<?xml version="1.0" encoding="utf-8" standalone="no"?>
<!DOCTYPE svg PUBLIC "-//W3C//DTD SVG 1.1//EN"
  "http://www.w3.org/Graphics/SVG/1.1/DTD/svg11.dtd">
<!-- Created with matplotlib (https://matplotlib.org/) -->
<svg height="288pt" version="1.1" viewBox="0 0 432 288" width="432pt" xmlns="http://www.w3.org/2000/svg" xmlns:xlink="http://www.w3.org/1999/xlink">
 <metadata>
  <rdf:RDF xmlns:cc="http://creativecommons.org/ns#" xmlns:dc="http://purl.org/dc/elements/1.1/" xmlns:rdf="http://www.w3.org/1999/02/22-rdf-syntax-ns#">
   <cc:Work>
    <dc:type rdf:resource="http://purl.org/dc/dcmitype/StillImage"/>
    <dc:date>2022-05-12T12:53:24.158829</dc:date>
    <dc:format>image/svg+xml</dc:format>
    <dc:creator>
     <cc:Agent>
      <dc:title>Matplotlib v3.3.4, https://matplotlib.org/</dc:title>
     </cc:Agent>
    </dc:creator>
   </cc:Work>
  </rdf:RDF>
 </metadata>
 <defs>
  <style type="text/css">*{stroke-linecap:butt;stroke-linejoin:round;}</style>
 </defs>
 <g id="figure_1">
  <g id="patch_1">
   <path d="M 0 288 
L 432 288 
L 432 0 
L 0 0 
z
" style="fill:#ffffff;"/>
  </g>
  <g id="axes_1">
   <g id="patch_2">
    <path d="M 54 252 
L 388.8 252 
L 388.8 34.56 
L 54 34.56 
z
" style="fill:#ffffff;"/>
   </g>
   <g id="PolyCollection_1">
    <defs>
     <path d="M 89.911623 -45.912679 
L 70.168377 -45.912679 
L 66.472872 -47.90908 
L 65.16 -49.905481 
L 66.080251 -51.901882 
L 67.79445 -53.898283 
L 69.112056 -55.894684 
L 69.730436 -57.891084 
L 69.904452 -59.887485 
L 69.93039 -61.883886 
L 69.917619 -63.880287 
L 69.857398 -65.876688 
L 69.750099 -67.873089 
L 69.65848 -69.86949 
L 69.695065 -71.86589 
L 69.976488 -73.862291 
L 70.546411 -75.858692 
L 71.316102 -77.855093 
L 72.123155 -79.851494 
L 72.857429 -81.847895 
L 73.52338 -83.844296 
L 74.197481 -85.840696 
L 74.933414 -87.837097 
L 75.712899 -89.833498 
L 76.473043 -91.829899 
L 77.160877 -93.8263 
L 77.768338 -95.822701 
L 78.298691 -97.819101 
L 78.719714 -99.815502 
L 79.007599 -101.811903 
L 79.196256 -103.808304 
L 79.340355 -105.804705 
L 79.466234 -107.801106 
L 79.576868 -109.797507 
L 79.678608 -111.793907 
L 79.778389 -113.790308 
L 79.86483 -115.786709 
L 79.919286 -117.78311 
L 79.942644 -119.779511 
L 79.953417 -121.775912 
L 79.965951 -123.772313 
L 79.981744 -125.768713 
L 79.996526 -127.765114 
L 80.006848 -129.761515 
L 80.012122 -131.757916 
L 80.015893 -133.754317 
L 80.021709 -135.750718 
L 80.026745 -137.747119 
L 80.024428 -139.743519 
L 80.013377 -141.73992 
L 80.0021 -143.736321 
L 80.001912 -145.732722 
L 80.013611 -147.729123 
L 80.027434 -149.725524 
L 80.035889 -151.721924 
L 80.039076 -153.718325 
L 80.039853 -155.714726 
L 80.039937 -157.711127 
L 80.03966 -159.707528 
L 80.038365 -161.703929 
L 80.034612 -163.70033 
L 80.027878 -165.69673 
L 80.021389 -167.693131 
L 80.020499 -169.689532 
L 80.026054 -171.685933 
L 80.033194 -173.682334 
L 80.037732 -175.678735 
L 80.039475 -177.675136 
L 80.03983 -179.671536 
L 80.039426 -181.667937 
L 80.037564 -183.664338 
L 80.032844 -185.660739 
L 80.025646 -187.65714 
L 80.020352 -189.653541 
L 80.021645 -191.649942 
L 80.028298 -193.646342 
L 80.034908 -195.642743 
L 80.038488 -197.639144 
L 80.039694 -199.635545 
L 80.039958 -201.631946 
L 80.039996 -203.628347 
L 80.04 -205.624747 
L 80.04 -207.621148 
L 80.04 -209.617549 
L 80.04 -211.61395 
L 80.04 -213.610351 
L 80.04 -215.606752 
L 80.039994 -217.603153 
L 80.039943 -219.599553 
L 80.039611 -221.595954 
L 80.038177 -223.592355 
L 80.034172 -225.588756 
L 80.027281 -227.585157 
L 80.021055 -229.581558 
L 80.020724 -231.577959 
L 80.026473 -233.574359 
L 80.032733 -235.57076 
L 80.034365 -237.567161 
L 80.030215 -239.563562 
L 80.023377 -241.559963 
L 80.019953 -243.556364 
L 80.060047 -243.556364 
L 80.060047 -243.556364 
L 80.056623 -241.559963 
L 80.049785 -239.563562 
L 80.045635 -237.567161 
L 80.047267 -235.57076 
L 80.053527 -233.574359 
L 80.059276 -231.577959 
L 80.058945 -229.581558 
L 80.052719 -227.585157 
L 80.045828 -225.588756 
L 80.041823 -223.592355 
L 80.040389 -221.595954 
L 80.040057 -219.599553 
L 80.040006 -217.603153 
L 80.04 -215.606752 
L 80.04 -213.610351 
L 80.04 -211.61395 
L 80.04 -209.617549 
L 80.04 -207.621148 
L 80.04 -205.624747 
L 80.040004 -203.628347 
L 80.040042 -201.631946 
L 80.040306 -199.635545 
L 80.041512 -197.639144 
L 80.045092 -195.642743 
L 80.051702 -193.646342 
L 80.058355 -191.649942 
L 80.059648 -189.653541 
L 80.054354 -187.65714 
L 80.047156 -185.660739 
L 80.042436 -183.664338 
L 80.040574 -181.667937 
L 80.04017 -179.671536 
L 80.040525 -177.675136 
L 80.042268 -175.678735 
L 80.046806 -173.682334 
L 80.053946 -171.685933 
L 80.059501 -169.689532 
L 80.058611 -167.693131 
L 80.052122 -165.69673 
L 80.045388 -163.70033 
L 80.041635 -161.703929 
L 80.04034 -159.707528 
L 80.040063 -157.711127 
L 80.040147 -155.714726 
L 80.040924 -153.718325 
L 80.044111 -151.721924 
L 80.052566 -149.725524 
L 80.066389 -147.729123 
L 80.078088 -145.732722 
L 80.0779 -143.736321 
L 80.066623 -141.73992 
L 80.055572 -139.743519 
L 80.053255 -137.747119 
L 80.058291 -135.750718 
L 80.064107 -133.754317 
L 80.067878 -131.757916 
L 80.073152 -129.761515 
L 80.083474 -127.765114 
L 80.098256 -125.768713 
L 80.114049 -123.772313 
L 80.126583 -121.775912 
L 80.137356 -119.779511 
L 80.160714 -117.78311 
L 80.21517 -115.786709 
L 80.301611 -113.790308 
L 80.401392 -111.793907 
L 80.503132 -109.797507 
L 80.613766 -107.801106 
L 80.739645 -105.804705 
L 80.883744 -103.808304 
L 81.072401 -101.811903 
L 81.360286 -99.815502 
L 81.781309 -97.819101 
L 82.311662 -95.822701 
L 82.919123 -93.8263 
L 83.606957 -91.829899 
L 84.367101 -89.833498 
L 85.146586 -87.837097 
L 85.882519 -85.840696 
L 86.55662 -83.844296 
L 87.222571 -81.847895 
L 87.956845 -79.851494 
L 88.763898 -77.855093 
L 89.533589 -75.858692 
L 90.103512 -73.862291 
L 90.384935 -71.86589 
L 90.42152 -69.86949 
L 90.329901 -67.873089 
L 90.222602 -65.876688 
L 90.162381 -63.880287 
L 90.14961 -61.883886 
L 90.175548 -59.887485 
L 90.349564 -57.891084 
L 90.967944 -55.894684 
L 92.28555 -53.898283 
L 93.999749 -51.901882 
L 94.92 -49.905481 
L 93.607128 -47.90908 
L 89.911623 -45.912679 
z
" id="mafd0af70da" style="stroke:#3d3d3d;stroke-width:1.5;"/>
    </defs>
    <g clip-path="url(#pb24e785ebc)">
     <use style="fill:#3274a1;stroke:#3d3d3d;stroke-width:1.5;" x="0" xlink:href="#mafd0af70da" y="288"/>
    </g>
   </g>
   <g id="PolyCollection_2">
    <defs>
     <path d="M 231.690617 -45.883636 
L 211.109383 -45.883636 
L 209.532564 -46.913826 
L 208.22743 -47.944016 
L 207.277814 -48.974206 
L 206.715795 -50.004396 
L 206.52 -51.034586 
L 206.625676 -52.064776 
L 206.942343 -53.094966 
L 207.373262 -54.125156 
L 207.831668 -55.155345 
L 208.250889 -56.185535 
L 208.587988 -57.215725 
L 208.822386 -58.245915 
L 208.951594 -59.276105 
L 208.985998 -60.306295 
L 208.943937 -61.336485 
L 208.847634 -62.366675 
L 208.720061 -63.396865 
L 208.582661 -64.427055 
L 208.453869 -65.457245 
L 208.348433 -66.487434 
L 208.277536 -67.517624 
L 208.249545 -68.547814 
L 208.271009 -69.578004 
L 208.347354 -70.608194 
L 208.48283 -71.638384 
L 208.679552 -72.668574 
L 208.936001 -73.698764 
L 209.24571 -74.728954 
L 209.596983 -75.759144 
L 209.974158 -76.789333 
L 210.360339 -77.819523 
L 210.740863 -78.849713 
L 211.106377 -79.879903 
L 211.454507 -80.910093 
L 211.789593 -81.940283 
L 212.120692 -82.970473 
L 212.458615 -84.000663 
L 212.812991 -85.030853 
L 213.190117 -86.061043 
L 213.59196 -87.091233 
L 214.016277 -88.121422 
L 214.457539 -89.151612 
L 214.908282 -90.181802 
L 215.360444 -91.211992 
L 215.806347 -92.242182 
L 216.239076 -93.272372 
L 216.652319 -94.302562 
L 217.039962 -95.332752 
L 217.39593 -96.362942 
L 217.714604 -97.393132 
L 217.991838 -98.423321 
L 218.226182 -99.453511 
L 218.419786 -100.483701 
L 218.578538 -101.513891 
L 218.711372 -102.544081 
L 218.829 -103.574271 
L 218.942443 -104.604461 
L 219.061677 -105.634651 
L 219.19447 -106.664841 
L 219.345427 -107.695031 
L 219.515301 -108.725221 
L 219.700754 -109.75541 
L 219.894839 -110.7856 
L 220.088286 -111.81579 
L 220.271398 -112.84598 
L 220.436055 -113.87617 
L 220.57722 -114.90636 
L 220.693508 -115.93655 
L 220.786738 -116.96674 
L 220.860771 -117.99693 
L 220.920121 -119.02712 
L 220.968849 -120.057309 
L 221.009989 -121.087499 
L 221.045495 -122.117689 
L 221.076519 -123.147879 
L 221.10376 -124.178069 
L 221.127732 -125.208259 
L 221.148905 -126.238449 
L 221.167768 -127.268639 
L 221.184865 -128.298829 
L 221.20083 -129.329019 
L 221.21637 -130.359208 
L 221.232196 -131.389398 
L 221.248868 -132.419588 
L 221.266625 -133.449778 
L 221.285266 -134.479968 
L 221.304126 -135.510158 
L 221.322189 -136.540348 
L 221.338286 -137.570538 
L 221.351329 -138.600728 
L 221.360514 -139.630918 
L 221.365465 -140.661108 
L 221.366301 -141.691297 
L 221.363639 -142.721487 
L 221.358535 -143.751677 
L 221.352354 -144.781867 
L 221.346573 -145.812057 
L 221.342538 -146.842247 
L 221.341215 -147.872437 
L 221.458785 -147.872437 
L 221.458785 -147.872437 
L 221.457462 -146.842247 
L 221.453427 -145.812057 
L 221.447646 -144.781867 
L 221.441465 -143.751677 
L 221.436361 -142.721487 
L 221.433699 -141.691297 
L 221.434535 -140.661108 
L 221.439486 -139.630918 
L 221.448671 -138.600728 
L 221.461714 -137.570538 
L 221.477811 -136.540348 
L 221.495874 -135.510158 
L 221.514734 -134.479968 
L 221.533375 -133.449778 
L 221.551132 -132.419588 
L 221.567804 -131.389398 
L 221.58363 -130.359208 
L 221.59917 -129.329019 
L 221.615135 -128.298829 
L 221.632232 -127.268639 
L 221.651095 -126.238449 
L 221.672268 -125.208259 
L 221.69624 -124.178069 
L 221.723481 -123.147879 
L 221.754505 -122.117689 
L 221.790011 -121.087499 
L 221.831151 -120.057309 
L 221.879879 -119.02712 
L 221.939229 -117.99693 
L 222.013262 -116.96674 
L 222.106492 -115.93655 
L 222.22278 -114.90636 
L 222.363945 -113.87617 
L 222.528602 -112.84598 
L 222.711714 -111.81579 
L 222.905161 -110.7856 
L 223.099246 -109.75541 
L 223.284699 -108.725221 
L 223.454573 -107.695031 
L 223.60553 -106.664841 
L 223.738323 -105.634651 
L 223.857557 -104.604461 
L 223.971 -103.574271 
L 224.088628 -102.544081 
L 224.221462 -101.513891 
L 224.380214 -100.483701 
L 224.573818 -99.453511 
L 224.808162 -98.423321 
L 225.085396 -97.393132 
L 225.40407 -96.362942 
L 225.760038 -95.332752 
L 226.147681 -94.302562 
L 226.560924 -93.272372 
L 226.993653 -92.242182 
L 227.439556 -91.211992 
L 227.891718 -90.181802 
L 228.342461 -89.151612 
L 228.783723 -88.121422 
L 229.20804 -87.091233 
L 229.609883 -86.061043 
L 229.987009 -85.030853 
L 230.341385 -84.000663 
L 230.679308 -82.970473 
L 231.010407 -81.940283 
L 231.345493 -80.910093 
L 231.693623 -79.879903 
L 232.059137 -78.849713 
L 232.439661 -77.819523 
L 232.825842 -76.789333 
L 233.203017 -75.759144 
L 233.55429 -74.728954 
L 233.863999 -73.698764 
L 234.120448 -72.668574 
L 234.31717 -71.638384 
L 234.452646 -70.608194 
L 234.528991 -69.578004 
L 234.550455 -68.547814 
L 234.522464 -67.517624 
L 234.451567 -66.487434 
L 234.346131 -65.457245 
L 234.217339 -64.427055 
L 234.079939 -63.396865 
L 233.952366 -62.366675 
L 233.856063 -61.336485 
L 233.814002 -60.306295 
L 233.848406 -59.276105 
L 233.977614 -58.245915 
L 234.212012 -57.215725 
L 234.549111 -56.185535 
L 234.968332 -55.155345 
L 235.426738 -54.125156 
L 235.857657 -53.094966 
L 236.174324 -52.064776 
L 236.28 -51.034586 
L 236.084205 -50.004396 
L 235.522186 -48.974206 
L 234.57257 -47.944016 
L 233.267436 -46.913826 
L 231.690617 -45.883636 
z
" id="mfc830268ea" style="stroke:#3d3d3d;stroke-width:1.5;"/>
    </defs>
    <g clip-path="url(#pb24e785ebc)">
     <use style="fill:#e1812c;stroke:#3d3d3d;stroke-width:1.5;" x="0" xlink:href="#mfc830268ea" y="288"/>
    </g>
   </g>
   <g id="PolyCollection_3">
    <defs>
     <path d="M 373.574398 -45.888657 
L 351.945602 -45.888657 
L 349.863414 -47.372549 
L 348.462858 -48.856442 
L 347.88 -50.340334 
L 348.032349 -51.824227 
L 348.670505 -53.30812 
L 349.483902 -54.792012 
L 350.205737 -56.275905 
L 350.67681 -57.759797 
L 350.857995 -59.24369 
L 350.804472 -60.727582 
L 350.622977 -62.211475 
L 350.429522 -63.695368 
L 350.317159 -65.17926 
L 350.337209 -66.663153 
L 350.494634 -68.147045 
L 350.756673 -69.630938 
L 351.070976 -71.11483 
L 351.386102 -72.598723 
L 351.666998 -74.082615 
L 351.902122 -75.566508 
L 352.103605 -77.050401 
L 352.303042 -78.534293 
L 352.543722 -80.018186 
L 352.869344 -81.502078 
L 353.311111 -82.985971 
L 353.877079 -84.469863 
L 354.547292 -85.953756 
L 355.276212 -87.437648 
L 356.002372 -88.921541 
L 356.663925 -90.405434 
L 357.216607 -91.889326 
L 357.647915 -93.373219 
L 357.980728 -94.857111 
L 358.263234 -96.341004 
L 358.54875 -97.824896 
L 358.874732 -99.308789 
L 359.250954 -100.792682 
L 359.661537 -102.276574 
L 360.077519 -103.760467 
L 360.471319 -105.244359 
L 360.825164 -106.728252 
L 361.131126 -108.212144 
L 361.3864 -109.696037 
L 361.589457 -111.179929 
L 361.740271 -112.663822 
L 361.843556 -114.147715 
L 361.911343 -115.631607 
L 361.961745 -117.1155 
L 362.013706 -118.599392 
L 362.080515 -120.083285 
L 362.165821 -121.567177 
L 362.264136 -123.05107 
L 362.364922 -124.534962 
L 362.457483 -126.018855 
L 362.534335 -127.502748 
L 362.592369 -128.98664 
L 362.632465 -130.470533 
L 362.658398 -131.954425 
L 362.675379 -133.438318 
L 362.688418 -134.92221 
L 362.700898 -136.406103 
L 362.713954 -137.889996 
L 362.726905 -139.373888 
L 362.738346 -140.857781 
L 362.747196 -142.341673 
L 362.753185 -143.825566 
L 362.756742 -145.309458 
L 362.758603 -146.793351 
L 362.759463 -148.277243 
L 362.759815 -149.761136 
L 362.759943 -151.245029 
L 362.759984 -152.728921 
L 362.759996 -154.212814 
L 362.759999 -155.696706 
L 362.76 -157.180599 
L 362.76 -158.664491 
L 362.76 -160.148384 
L 362.76 -161.632276 
L 362.76 -163.116169 
L 362.76 -164.600062 
L 362.76 -166.083954 
L 362.76 -167.567847 
L 362.76 -169.051739 
L 362.76 -170.535632 
L 362.759999 -172.019524 
L 362.759995 -173.503417 
L 362.75998 -174.98731 
L 362.759929 -176.471202 
L 362.759774 -177.955095 
L 362.759356 -179.438987 
L 362.758361 -180.92288 
L 362.75626 -182.406772 
L 362.752355 -183.890665 
L 362.746002 -185.374557 
L 362.737037 -186.85845 
L 362.726255 -188.342343 
L 362.715576 -189.826235 
L 362.707608 -191.310128 
L 362.704646 -192.79402 
L 362.815354 -192.79402 
L 362.815354 -192.79402 
L 362.812392 -191.310128 
L 362.804424 -189.826235 
L 362.793745 -188.342343 
L 362.782963 -186.85845 
L 362.773998 -185.374557 
L 362.767645 -183.890665 
L 362.76374 -182.406772 
L 362.761639 -180.92288 
L 362.760644 -179.438987 
L 362.760226 -177.955095 
L 362.760071 -176.471202 
L 362.76002 -174.98731 
L 362.760005 -173.503417 
L 362.760001 -172.019524 
L 362.76 -170.535632 
L 362.76 -169.051739 
L 362.76 -167.567847 
L 362.76 -166.083954 
L 362.76 -164.600062 
L 362.76 -163.116169 
L 362.76 -161.632276 
L 362.76 -160.148384 
L 362.76 -158.664491 
L 362.76 -157.180599 
L 362.760001 -155.696706 
L 362.760004 -154.212814 
L 362.760016 -152.728921 
L 362.760057 -151.245029 
L 362.760185 -149.761136 
L 362.760537 -148.277243 
L 362.761397 -146.793351 
L 362.763258 -145.309458 
L 362.766815 -143.825566 
L 362.772804 -142.341673 
L 362.781654 -140.857781 
L 362.793095 -139.373888 
L 362.806046 -137.889996 
L 362.819102 -136.406103 
L 362.831582 -134.92221 
L 362.844621 -133.438318 
L 362.861602 -131.954425 
L 362.887535 -130.470533 
L 362.927631 -128.98664 
L 362.985665 -127.502748 
L 363.062517 -126.018855 
L 363.155078 -124.534962 
L 363.255864 -123.05107 
L 363.354179 -121.567177 
L 363.439485 -120.083285 
L 363.506294 -118.599392 
L 363.558255 -117.1155 
L 363.608657 -115.631607 
L 363.676444 -114.147715 
L 363.779729 -112.663822 
L 363.930543 -111.179929 
L 364.1336 -109.696037 
L 364.388874 -108.212144 
L 364.694836 -106.728252 
L 365.048681 -105.244359 
L 365.442481 -103.760467 
L 365.858463 -102.276574 
L 366.269046 -100.792682 
L 366.645268 -99.308789 
L 366.97125 -97.824896 
L 367.256766 -96.341004 
L 367.539272 -94.857111 
L 367.872085 -93.373219 
L 368.303393 -91.889326 
L 368.856075 -90.405434 
L 369.517628 -88.921541 
L 370.243788 -87.437648 
L 370.972708 -85.953756 
L 371.642921 -84.469863 
L 372.208889 -82.985971 
L 372.650656 -81.502078 
L 372.976278 -80.018186 
L 373.216958 -78.534293 
L 373.416395 -77.050401 
L 373.617878 -75.566508 
L 373.853002 -74.082615 
L 374.133898 -72.598723 
L 374.449024 -71.11483 
L 374.763327 -69.630938 
L 375.025366 -68.147045 
L 375.182791 -66.663153 
L 375.202841 -65.17926 
L 375.090478 -63.695368 
L 374.897023 -62.211475 
L 374.715528 -60.727582 
L 374.662005 -59.24369 
L 374.84319 -57.759797 
L 375.314263 -56.275905 
L 376.036098 -54.792012 
L 376.849495 -53.30812 
L 377.487651 -51.824227 
L 377.64 -50.340334 
L 377.057142 -48.856442 
L 375.656586 -47.372549 
L 373.574398 -45.888657 
z
" id="m10aa45b0c4" style="stroke:#3d3d3d;stroke-width:1.5;"/>
    </defs>
    <g clip-path="url(#pb24e785ebc)">
     <use style="fill:#3a923a;stroke:#3d3d3d;stroke-width:1.5;" x="0" xlink:href="#m10aa45b0c4" y="288"/>
    </g>
   </g>
   <g id="patch_3">
    <path clip-path="url(#pb24e785ebc)" d="M 109.8 242.301589 
L 109.8 242.301589 
L 109.8 242.301589 
L 109.8 242.301589 
z
" style="fill:#3274a1;stroke:#3d3d3d;stroke-linejoin:miter;stroke-width:0.75;"/>
   </g>
   <g id="patch_4">
    <path clip-path="url(#pb24e785ebc)" d="M 109.8 242.301589 
L 109.8 242.301589 
L 109.8 242.301589 
L 109.8 242.301589 
z
" style="fill:#e1812c;stroke:#3d3d3d;stroke-linejoin:miter;stroke-width:0.75;"/>
   </g>
   <g id="patch_5">
    <path clip-path="url(#pb24e785ebc)" d="M 109.8 242.301589 
L 109.8 242.301589 
L 109.8 242.301589 
L 109.8 242.301589 
z
" style="fill:#3a923a;stroke:#3d3d3d;stroke-linejoin:miter;stroke-width:0.75;"/>
   </g>
   <g id="matplotlib.axis_1">
    <g id="xtick_1">
     <g id="line2d_1">
      <defs>
       <path d="M 0 0 
L 0 3.5 
" id="m9c3093b220" style="stroke:#000000;stroke-width:0.8;"/>
      </defs>
      <g>
       <use style="stroke:#000000;stroke-width:0.8;" x="109.8" xlink:href="#m9c3093b220" y="252"/>
      </g>
     </g>
     <g id="text_1">
      <!-- train -->
      <g transform="translate(98.1625 266.598437)scale(0.1 -0.1)">
       <defs>
        <path d="M 18.3125 70.21875 
L 18.3125 54.6875 
L 36.8125 54.6875 
L 36.8125 47.703125 
L 18.3125 47.703125 
L 18.3125 18.015625 
Q 18.3125 11.328125 20.140625 9.421875 
Q 21.96875 7.515625 27.59375 7.515625 
L 36.8125 7.515625 
L 36.8125 0 
L 27.59375 0 
Q 17.1875 0 13.234375 3.875 
Q 9.28125 7.765625 9.28125 18.015625 
L 9.28125 47.703125 
L 2.6875 47.703125 
L 2.6875 54.6875 
L 9.28125 54.6875 
L 9.28125 70.21875 
z
" id="DejaVuSans-116"/>
        <path d="M 41.109375 46.296875 
Q 39.59375 47.171875 37.8125 47.578125 
Q 36.03125 48 33.890625 48 
Q 26.265625 48 22.1875 43.046875 
Q 18.109375 38.09375 18.109375 28.8125 
L 18.109375 0 
L 9.078125 0 
L 9.078125 54.6875 
L 18.109375 54.6875 
L 18.109375 46.1875 
Q 20.953125 51.171875 25.484375 53.578125 
Q 30.03125 56 36.53125 56 
Q 37.453125 56 38.578125 55.875 
Q 39.703125 55.765625 41.0625 55.515625 
z
" id="DejaVuSans-114"/>
        <path d="M 34.28125 27.484375 
Q 23.390625 27.484375 19.1875 25 
Q 14.984375 22.515625 14.984375 16.5 
Q 14.984375 11.71875 18.140625 8.90625 
Q 21.296875 6.109375 26.703125 6.109375 
Q 34.1875 6.109375 38.703125 11.40625 
Q 43.21875 16.703125 43.21875 25.484375 
L 43.21875 27.484375 
z
M 52.203125 31.203125 
L 52.203125 0 
L 43.21875 0 
L 43.21875 8.296875 
Q 40.140625 3.328125 35.546875 0.953125 
Q 30.953125 -1.421875 24.3125 -1.421875 
Q 15.921875 -1.421875 10.953125 3.296875 
Q 6 8.015625 6 15.921875 
Q 6 25.140625 12.171875 29.828125 
Q 18.359375 34.515625 30.609375 34.515625 
L 43.21875 34.515625 
L 43.21875 35.40625 
Q 43.21875 41.609375 39.140625 45 
Q 35.0625 48.390625 27.6875 48.390625 
Q 23 48.390625 18.546875 47.265625 
Q 14.109375 46.140625 10.015625 43.890625 
L 10.015625 52.203125 
Q 14.9375 54.109375 19.578125 55.046875 
Q 24.21875 56 28.609375 56 
Q 40.484375 56 46.34375 49.84375 
Q 52.203125 43.703125 52.203125 31.203125 
z
" id="DejaVuSans-97"/>
        <path d="M 9.421875 54.6875 
L 18.40625 54.6875 
L 18.40625 0 
L 9.421875 0 
z
M 9.421875 75.984375 
L 18.40625 75.984375 
L 18.40625 64.59375 
L 9.421875 64.59375 
z
" id="DejaVuSans-105"/>
        <path d="M 54.890625 33.015625 
L 54.890625 0 
L 45.90625 0 
L 45.90625 32.71875 
Q 45.90625 40.484375 42.875 44.328125 
Q 39.84375 48.1875 33.796875 48.1875 
Q 26.515625 48.1875 22.3125 43.546875 
Q 18.109375 38.921875 18.109375 30.90625 
L 18.109375 0 
L 9.078125 0 
L 9.078125 54.6875 
L 18.109375 54.6875 
L 18.109375 46.1875 
Q 21.34375 51.125 25.703125 53.5625 
Q 30.078125 56 35.796875 56 
Q 45.21875 56 50.046875 50.171875 
Q 54.890625 44.34375 54.890625 33.015625 
z
" id="DejaVuSans-110"/>
       </defs>
       <use xlink:href="#DejaVuSans-116"/>
       <use x="39.208984" xlink:href="#DejaVuSans-114"/>
       <use x="80.322266" xlink:href="#DejaVuSans-97"/>
       <use x="141.601562" xlink:href="#DejaVuSans-105"/>
       <use x="169.384766" xlink:href="#DejaVuSans-110"/>
      </g>
     </g>
    </g>
    <g id="xtick_2">
     <g id="line2d_2">
      <g>
       <use style="stroke:#000000;stroke-width:0.8;" x="221.4" xlink:href="#m9c3093b220" y="252"/>
      </g>
     </g>
     <g id="text_2">
      <!-- val -->
      <g transform="translate(213.9875 266.598437)scale(0.1 -0.1)">
       <defs>
        <path d="M 2.984375 54.6875 
L 12.5 54.6875 
L 29.59375 8.796875 
L 46.6875 54.6875 
L 56.203125 54.6875 
L 35.6875 0 
L 23.484375 0 
z
" id="DejaVuSans-118"/>
        <path d="M 9.421875 75.984375 
L 18.40625 75.984375 
L 18.40625 0 
L 9.421875 0 
z
" id="DejaVuSans-108"/>
       </defs>
       <use xlink:href="#DejaVuSans-118"/>
       <use x="59.179688" xlink:href="#DejaVuSans-97"/>
       <use x="120.458984" xlink:href="#DejaVuSans-108"/>
      </g>
     </g>
    </g>
    <g id="xtick_3">
     <g id="line2d_3">
      <g>
       <use style="stroke:#000000;stroke-width:0.8;" x="333" xlink:href="#m9c3093b220" y="252"/>
      </g>
     </g>
     <g id="text_3">
      <!-- test -->
      <g transform="translate(323.398438 266.598437)scale(0.1 -0.1)">
       <defs>
        <path d="M 56.203125 29.59375 
L 56.203125 25.203125 
L 14.890625 25.203125 
Q 15.484375 15.921875 20.484375 11.0625 
Q 25.484375 6.203125 34.421875 6.203125 
Q 39.59375 6.203125 44.453125 7.46875 
Q 49.3125 8.734375 54.109375 11.28125 
L 54.109375 2.78125 
Q 49.265625 0.734375 44.1875 -0.34375 
Q 39.109375 -1.421875 33.890625 -1.421875 
Q 20.796875 -1.421875 13.15625 6.1875 
Q 5.515625 13.8125 5.515625 26.8125 
Q 5.515625 40.234375 12.765625 48.109375 
Q 20.015625 56 32.328125 56 
Q 43.359375 56 49.78125 48.890625 
Q 56.203125 41.796875 56.203125 29.59375 
z
M 47.21875 32.234375 
Q 47.125 39.59375 43.09375 43.984375 
Q 39.0625 48.390625 32.421875 48.390625 
Q 24.90625 48.390625 20.390625 44.140625 
Q 15.875 39.890625 15.1875 32.171875 
z
" id="DejaVuSans-101"/>
        <path d="M 44.28125 53.078125 
L 44.28125 44.578125 
Q 40.484375 46.53125 36.375 47.5 
Q 32.28125 48.484375 27.875 48.484375 
Q 21.1875 48.484375 17.84375 46.4375 
Q 14.5 44.390625 14.5 40.28125 
Q 14.5 37.15625 16.890625 35.375 
Q 19.28125 33.59375 26.515625 31.984375 
L 29.59375 31.296875 
Q 39.15625 29.25 43.1875 25.515625 
Q 47.21875 21.78125 47.21875 15.09375 
Q 47.21875 7.46875 41.1875 3.015625 
Q 35.15625 -1.421875 24.609375 -1.421875 
Q 20.21875 -1.421875 15.453125 -0.5625 
Q 10.6875 0.296875 5.421875 2 
L 5.421875 11.28125 
Q 10.40625 8.6875 15.234375 7.390625 
Q 20.0625 6.109375 24.8125 6.109375 
Q 31.15625 6.109375 34.5625 8.28125 
Q 37.984375 10.453125 37.984375 14.40625 
Q 37.984375 18.0625 35.515625 20.015625 
Q 33.0625 21.96875 24.703125 23.78125 
L 21.578125 24.515625 
Q 13.234375 26.265625 9.515625 29.90625 
Q 5.8125 33.546875 5.8125 39.890625 
Q 5.8125 47.609375 11.28125 51.796875 
Q 16.75 56 26.8125 56 
Q 31.78125 56 36.171875 55.265625 
Q 40.578125 54.546875 44.28125 53.078125 
z
" id="DejaVuSans-115"/>
       </defs>
       <use xlink:href="#DejaVuSans-116"/>
       <use x="39.208984" xlink:href="#DejaVuSans-101"/>
       <use x="100.732422" xlink:href="#DejaVuSans-115"/>
       <use x="152.832031" xlink:href="#DejaVuSans-116"/>
      </g>
     </g>
    </g>
    <g id="text_4">
     <!-- set -->
     <g transform="translate(213.758594 280.276563)scale(0.1 -0.1)">
      <use xlink:href="#DejaVuSans-115"/>
      <use x="52.099609" xlink:href="#DejaVuSans-101"/>
      <use x="113.623047" xlink:href="#DejaVuSans-116"/>
     </g>
    </g>
   </g>
   <g id="matplotlib.axis_2">
    <g id="ytick_1">
     <g id="line2d_4">
      <defs>
       <path d="M 0 0 
L -3.5 0 
" id="m8abc79ab8e" style="stroke:#000000;stroke-width:0.8;"/>
      </defs>
      <g>
       <use style="stroke:#000000;stroke-width:0.8;" x="54" xlink:href="#m8abc79ab8e" y="242.301589"/>
      </g>
     </g>
     <g id="text_5">
      <!-- 0.00 -->
      <g transform="translate(24.734375 246.100808)scale(0.1 -0.1)">
       <defs>
        <path d="M 31.78125 66.40625 
Q 24.171875 66.40625 20.328125 58.90625 
Q 16.5 51.421875 16.5 36.375 
Q 16.5 21.390625 20.328125 13.890625 
Q 24.171875 6.390625 31.78125 6.390625 
Q 39.453125 6.390625 43.28125 13.890625 
Q 47.125 21.390625 47.125 36.375 
Q 47.125 51.421875 43.28125 58.90625 
Q 39.453125 66.40625 31.78125 66.40625 
z
M 31.78125 74.21875 
Q 44.046875 74.21875 50.515625 64.515625 
Q 56.984375 54.828125 56.984375 36.375 
Q 56.984375 17.96875 50.515625 8.265625 
Q 44.046875 -1.421875 31.78125 -1.421875 
Q 19.53125 -1.421875 13.0625 8.265625 
Q 6.59375 17.96875 6.59375 36.375 
Q 6.59375 54.828125 13.0625 64.515625 
Q 19.53125 74.21875 31.78125 74.21875 
z
" id="DejaVuSans-48"/>
        <path d="M 10.6875 12.40625 
L 21 12.40625 
L 21 0 
L 10.6875 0 
z
" id="DejaVuSans-46"/>
       </defs>
       <use xlink:href="#DejaVuSans-48"/>
       <use x="63.623047" xlink:href="#DejaVuSans-46"/>
       <use x="95.410156" xlink:href="#DejaVuSans-48"/>
       <use x="159.033203" xlink:href="#DejaVuSans-48"/>
      </g>
     </g>
    </g>
    <g id="ytick_2">
     <g id="line2d_5">
      <g>
       <use style="stroke:#000000;stroke-width:0.8;" x="54" xlink:href="#m8abc79ab8e" y="203.531241"/>
      </g>
     </g>
     <g id="text_6">
      <!-- 0.01 -->
      <g transform="translate(24.734375 207.330459)scale(0.1 -0.1)">
       <defs>
        <path d="M 12.40625 8.296875 
L 28.515625 8.296875 
L 28.515625 63.921875 
L 10.984375 60.40625 
L 10.984375 69.390625 
L 28.421875 72.90625 
L 38.28125 72.90625 
L 38.28125 8.296875 
L 54.390625 8.296875 
L 54.390625 0 
L 12.40625 0 
z
" id="DejaVuSans-49"/>
       </defs>
       <use xlink:href="#DejaVuSans-48"/>
       <use x="63.623047" xlink:href="#DejaVuSans-46"/>
       <use x="95.410156" xlink:href="#DejaVuSans-48"/>
       <use x="159.033203" xlink:href="#DejaVuSans-49"/>
      </g>
     </g>
    </g>
    <g id="ytick_3">
     <g id="line2d_6">
      <g>
       <use style="stroke:#000000;stroke-width:0.8;" x="54" xlink:href="#m8abc79ab8e" y="164.760892"/>
      </g>
     </g>
     <g id="text_7">
      <!-- 0.02 -->
      <g transform="translate(24.734375 168.560111)scale(0.1 -0.1)">
       <defs>
        <path d="M 19.1875 8.296875 
L 53.609375 8.296875 
L 53.609375 0 
L 7.328125 0 
L 7.328125 8.296875 
Q 12.9375 14.109375 22.625 23.890625 
Q 32.328125 33.6875 34.8125 36.53125 
Q 39.546875 41.84375 41.421875 45.53125 
Q 43.3125 49.21875 43.3125 52.78125 
Q 43.3125 58.59375 39.234375 62.25 
Q 35.15625 65.921875 28.609375 65.921875 
Q 23.96875 65.921875 18.8125 64.3125 
Q 13.671875 62.703125 7.8125 59.421875 
L 7.8125 69.390625 
Q 13.765625 71.78125 18.9375 73 
Q 24.125 74.21875 28.421875 74.21875 
Q 39.75 74.21875 46.484375 68.546875 
Q 53.21875 62.890625 53.21875 53.421875 
Q 53.21875 48.921875 51.53125 44.890625 
Q 49.859375 40.875 45.40625 35.40625 
Q 44.1875 33.984375 37.640625 27.21875 
Q 31.109375 20.453125 19.1875 8.296875 
z
" id="DejaVuSans-50"/>
       </defs>
       <use xlink:href="#DejaVuSans-48"/>
       <use x="63.623047" xlink:href="#DejaVuSans-46"/>
       <use x="95.410156" xlink:href="#DejaVuSans-48"/>
       <use x="159.033203" xlink:href="#DejaVuSans-50"/>
      </g>
     </g>
    </g>
    <g id="ytick_4">
     <g id="line2d_7">
      <g>
       <use style="stroke:#000000;stroke-width:0.8;" x="54" xlink:href="#m8abc79ab8e" y="125.990544"/>
      </g>
     </g>
     <g id="text_8">
      <!-- 0.03 -->
      <g transform="translate(24.734375 129.789762)scale(0.1 -0.1)">
       <defs>
        <path d="M 40.578125 39.3125 
Q 47.65625 37.796875 51.625 33 
Q 55.609375 28.21875 55.609375 21.1875 
Q 55.609375 10.40625 48.1875 4.484375 
Q 40.765625 -1.421875 27.09375 -1.421875 
Q 22.515625 -1.421875 17.65625 -0.515625 
Q 12.796875 0.390625 7.625 2.203125 
L 7.625 11.71875 
Q 11.71875 9.328125 16.59375 8.109375 
Q 21.484375 6.890625 26.8125 6.890625 
Q 36.078125 6.890625 40.9375 10.546875 
Q 45.796875 14.203125 45.796875 21.1875 
Q 45.796875 27.640625 41.28125 31.265625 
Q 36.765625 34.90625 28.71875 34.90625 
L 20.21875 34.90625 
L 20.21875 43.015625 
L 29.109375 43.015625 
Q 36.375 43.015625 40.234375 45.921875 
Q 44.09375 48.828125 44.09375 54.296875 
Q 44.09375 59.90625 40.109375 62.90625 
Q 36.140625 65.921875 28.71875 65.921875 
Q 24.65625 65.921875 20.015625 65.03125 
Q 15.375 64.15625 9.8125 62.3125 
L 9.8125 71.09375 
Q 15.4375 72.65625 20.34375 73.4375 
Q 25.25 74.21875 29.59375 74.21875 
Q 40.828125 74.21875 47.359375 69.109375 
Q 53.90625 64.015625 53.90625 55.328125 
Q 53.90625 49.265625 50.4375 45.09375 
Q 46.96875 40.921875 40.578125 39.3125 
z
" id="DejaVuSans-51"/>
       </defs>
       <use xlink:href="#DejaVuSans-48"/>
       <use x="63.623047" xlink:href="#DejaVuSans-46"/>
       <use x="95.410156" xlink:href="#DejaVuSans-48"/>
       <use x="159.033203" xlink:href="#DejaVuSans-51"/>
      </g>
     </g>
    </g>
    <g id="ytick_5">
     <g id="line2d_8">
      <g>
       <use style="stroke:#000000;stroke-width:0.8;" x="54" xlink:href="#m8abc79ab8e" y="87.220195"/>
      </g>
     </g>
     <g id="text_9">
      <!-- 0.04 -->
      <g transform="translate(24.734375 91.019414)scale(0.1 -0.1)">
       <defs>
        <path d="M 37.796875 64.3125 
L 12.890625 25.390625 
L 37.796875 25.390625 
z
M 35.203125 72.90625 
L 47.609375 72.90625 
L 47.609375 25.390625 
L 58.015625 25.390625 
L 58.015625 17.1875 
L 47.609375 17.1875 
L 47.609375 0 
L 37.796875 0 
L 37.796875 17.1875 
L 4.890625 17.1875 
L 4.890625 26.703125 
z
" id="DejaVuSans-52"/>
       </defs>
       <use xlink:href="#DejaVuSans-48"/>
       <use x="63.623047" xlink:href="#DejaVuSans-46"/>
       <use x="95.410156" xlink:href="#DejaVuSans-48"/>
       <use x="159.033203" xlink:href="#DejaVuSans-52"/>
      </g>
     </g>
    </g>
    <g id="ytick_6">
     <g id="line2d_9">
      <g>
       <use style="stroke:#000000;stroke-width:0.8;" x="54" xlink:href="#m8abc79ab8e" y="48.449846"/>
      </g>
     </g>
     <g id="text_10">
      <!-- 0.05 -->
      <g transform="translate(24.734375 52.249065)scale(0.1 -0.1)">
       <defs>
        <path d="M 10.796875 72.90625 
L 49.515625 72.90625 
L 49.515625 64.59375 
L 19.828125 64.59375 
L 19.828125 46.734375 
Q 21.96875 47.46875 24.109375 47.828125 
Q 26.265625 48.1875 28.421875 48.1875 
Q 40.625 48.1875 47.75 41.5 
Q 54.890625 34.8125 54.890625 23.390625 
Q 54.890625 11.625 47.5625 5.09375 
Q 40.234375 -1.421875 26.90625 -1.421875 
Q 22.3125 -1.421875 17.546875 -0.640625 
Q 12.796875 0.140625 7.71875 1.703125 
L 7.71875 11.625 
Q 12.109375 9.234375 16.796875 8.0625 
Q 21.484375 6.890625 26.703125 6.890625 
Q 35.15625 6.890625 40.078125 11.328125 
Q 45.015625 15.765625 45.015625 23.390625 
Q 45.015625 31 40.078125 35.4375 
Q 35.15625 39.890625 26.703125 39.890625 
Q 22.75 39.890625 18.8125 39.015625 
Q 14.890625 38.140625 10.796875 36.28125 
z
" id="DejaVuSans-53"/>
       </defs>
       <use xlink:href="#DejaVuSans-48"/>
       <use x="63.623047" xlink:href="#DejaVuSans-46"/>
       <use x="95.410156" xlink:href="#DejaVuSans-48"/>
       <use x="159.033203" xlink:href="#DejaVuSans-53"/>
      </g>
     </g>
    </g>
    <g id="text_11">
     <!-- value -->
     <g transform="translate(18.654688 156.937813)rotate(-90)scale(0.1 -0.1)">
      <defs>
       <path d="M 8.5 21.578125 
L 8.5 54.6875 
L 17.484375 54.6875 
L 17.484375 21.921875 
Q 17.484375 14.15625 20.5 10.265625 
Q 23.53125 6.390625 29.59375 6.390625 
Q 36.859375 6.390625 41.078125 11.03125 
Q 45.3125 15.671875 45.3125 23.6875 
L 45.3125 54.6875 
L 54.296875 54.6875 
L 54.296875 0 
L 45.3125 0 
L 45.3125 8.40625 
Q 42.046875 3.421875 37.71875 1 
Q 33.40625 -1.421875 27.6875 -1.421875 
Q 18.265625 -1.421875 13.375 4.4375 
Q 8.5 10.296875 8.5 21.578125 
z
M 31.109375 56 
z
" id="DejaVuSans-117"/>
      </defs>
      <use xlink:href="#DejaVuSans-118"/>
      <use x="59.179688" xlink:href="#DejaVuSans-97"/>
      <use x="120.458984" xlink:href="#DejaVuSans-108"/>
      <use x="148.242188" xlink:href="#DejaVuSans-117"/>
      <use x="211.621094" xlink:href="#DejaVuSans-101"/>
     </g>
    </g>
   </g>
   <g id="line2d_10">
    <path clip-path="url(#pb24e785ebc)" d="M 80.04 242.087321 
L 80.04 174.92033 
" style="fill:none;stroke:#3d3d3d;stroke-linecap:square;stroke-width:1.5;"/>
   </g>
   <g id="line2d_11">
    <path clip-path="url(#pb24e785ebc)" d="M 80.04 235.470702 
L 80.04 211.15615 
" style="fill:none;stroke:#3d3d3d;stroke-linecap:square;stroke-width:4.5;"/>
   </g>
   <g id="line2d_12">
    <path clip-path="url(#pb24e785ebc)" d="M 221.4 242.116364 
L 221.4 168.567007 
" style="fill:none;stroke:#3d3d3d;stroke-linecap:square;stroke-width:1.5;"/>
   </g>
   <g id="line2d_13">
    <path clip-path="url(#pb24e785ebc)" d="M 221.4 233.60048 
L 221.4 207.457042 
" style="fill:none;stroke:#3d3d3d;stroke-linecap:square;stroke-width:4.5;"/>
   </g>
   <g id="line2d_14">
    <path clip-path="url(#pb24e785ebc)" d="M 362.76 242.111343 
L 362.76 165.321336 
" style="fill:none;stroke:#3d3d3d;stroke-linecap:square;stroke-width:1.5;"/>
   </g>
   <g id="line2d_15">
    <path clip-path="url(#pb24e785ebc)" d="M 362.76 234.516038 
L 362.76 206.638811 
" style="fill:none;stroke:#3d3d3d;stroke-linecap:square;stroke-width:4.5;"/>
   </g>
   <g id="patch_6">
    <path d="M 54 252 
L 54 34.56 
" style="fill:none;stroke:#000000;stroke-linecap:square;stroke-linejoin:miter;stroke-width:0.8;"/>
   </g>
   <g id="patch_7">
    <path d="M 388.8 252 
L 388.8 34.56 
" style="fill:none;stroke:#000000;stroke-linecap:square;stroke-linejoin:miter;stroke-width:0.8;"/>
   </g>
   <g id="patch_8">
    <path d="M 54 252 
L 388.8 252 
" style="fill:none;stroke:#000000;stroke-linecap:square;stroke-linejoin:miter;stroke-width:0.8;"/>
   </g>
   <g id="patch_9">
    <path d="M 54 34.56 
L 388.8 34.56 
" style="fill:none;stroke:#000000;stroke-linecap:square;stroke-linejoin:miter;stroke-width:0.8;"/>
   </g>
   <g id="PathCollection_1">
    <defs>
     <path d="M 0 1.5 
C 0.397805 1.5 0.77937 1.341951 1.06066 1.06066 
C 1.341951 0.77937 1.5 0.397805 1.5 0 
C 1.5 -0.397805 1.341951 -0.77937 1.06066 -1.06066 
C 0.77937 -1.341951 0.397805 -1.5 0 -1.5 
C -0.397805 -1.5 -0.77937 -1.341951 -1.06066 -1.06066 
C -1.341951 -0.77937 -1.5 -0.397805 -1.5 0 
C -1.5 0.397805 -1.341951 0.77937 -1.06066 1.06066 
C -0.77937 1.341951 -0.397805 1.5 0 1.5 
z
" id="m7dbc47b094" style="stroke:#3d3d3d;"/>
    </defs>
    <g clip-path="url(#pb24e785ebc)">
     <use style="fill:#ffffff;stroke:#3d3d3d;" x="80.04" xlink:href="#m7dbc47b094" y="223.19041"/>
    </g>
   </g>
   <g id="PathCollection_2">
    <g clip-path="url(#pb24e785ebc)">
     <use style="fill:#ffffff;stroke:#3d3d3d;" x="221.4" xlink:href="#m7dbc47b094" y="220.51659"/>
    </g>
   </g>
   <g id="PathCollection_3">
    <g clip-path="url(#pb24e785ebc)">
     <use style="fill:#ffffff;stroke:#3d3d3d;" x="362.76" xlink:href="#m7dbc47b094" y="221.086326"/>
    </g>
   </g>
   <g id="legend_1">
    <g id="patch_10">
     <path d="M 326.525 101.2725 
L 381.8 101.2725 
Q 383.8 101.2725 383.8 99.2725 
L 383.8 41.56 
Q 383.8 39.56 381.8 39.56 
L 326.525 39.56 
Q 324.525 39.56 324.525 41.56 
L 324.525 99.2725 
Q 324.525 101.2725 326.525 101.2725 
z
" style="fill:#ffffff;opacity:0.8;stroke:#cccccc;stroke-linejoin:miter;"/>
    </g>
    <g id="text_12">
     <!-- set -->
     <g transform="translate(346.521094 51.158437)scale(0.1 -0.1)">
      <use xlink:href="#DejaVuSans-115"/>
      <use x="52.099609" xlink:href="#DejaVuSans-101"/>
      <use x="113.623047" xlink:href="#DejaVuSans-116"/>
     </g>
    </g>
    <g id="patch_11">
     <path d="M 328.525 65.836562 
L 348.525 65.836562 
L 348.525 58.836562 
L 328.525 58.836562 
z
" style="fill:#3274a1;stroke:#3d3d3d;stroke-linejoin:miter;stroke-width:0.75;"/>
    </g>
    <g id="text_13">
     <!-- train -->
     <g transform="translate(356.525 65.836562)scale(0.1 -0.1)">
      <use xlink:href="#DejaVuSans-116"/>
      <use x="39.208984" xlink:href="#DejaVuSans-114"/>
      <use x="80.322266" xlink:href="#DejaVuSans-97"/>
      <use x="141.601562" xlink:href="#DejaVuSans-105"/>
      <use x="169.384766" xlink:href="#DejaVuSans-110"/>
     </g>
    </g>
    <g id="patch_12">
     <path d="M 328.525 80.514687 
L 348.525 80.514687 
L 348.525 73.514687 
L 328.525 73.514687 
z
" style="fill:#e1812c;stroke:#3d3d3d;stroke-linejoin:miter;stroke-width:0.75;"/>
    </g>
    <g id="text_14">
     <!-- val -->
     <g transform="translate(356.525 80.514687)scale(0.1 -0.1)">
      <use xlink:href="#DejaVuSans-118"/>
      <use x="59.179688" xlink:href="#DejaVuSans-97"/>
      <use x="120.458984" xlink:href="#DejaVuSans-108"/>
     </g>
    </g>
    <g id="patch_13">
     <path d="M 328.525 95.192813 
L 348.525 95.192813 
L 348.525 88.192813 
L 328.525 88.192813 
z
" style="fill:#3a923a;stroke:#3d3d3d;stroke-linejoin:miter;stroke-width:0.75;"/>
    </g>
    <g id="text_15">
     <!-- test -->
     <g transform="translate(356.525 95.192813)scale(0.1 -0.1)">
      <use xlink:href="#DejaVuSans-116"/>
      <use x="39.208984" xlink:href="#DejaVuSans-101"/>
      <use x="100.732422" xlink:href="#DejaVuSans-115"/>
      <use x="152.832031" xlink:href="#DejaVuSans-116"/>
     </g>
    </g>
   </g>
  </g>
 </g>
 <defs>
  <clipPath id="pb24e785ebc">
   <rect height="217.44" width="334.8" x="54" y="34.56"/>
  </clipPath>
 </defs>
</svg>
