<?xml version="1.0" encoding="utf-8" standalone="no"?>
<!DOCTYPE svg PUBLIC "-//W3C//DTD SVG 1.1//EN"
  "http://www.w3.org/Graphics/SVG/1.1/DTD/svg11.dtd">
<!-- Created with matplotlib (https://matplotlib.org/) -->
<svg height="288pt" version="1.1" viewBox="0 0 432 288" width="432pt" xmlns="http://www.w3.org/2000/svg" xmlns:xlink="http://www.w3.org/1999/xlink">
 <metadata>
  <rdf:RDF xmlns:cc="http://creativecommons.org/ns#" xmlns:dc="http://purl.org/dc/elements/1.1/" xmlns:rdf="http://www.w3.org/1999/02/22-rdf-syntax-ns#">
   <cc:Work>
    <dc:type rdf:resource="http://purl.org/dc/dcmitype/StillImage"/>
    <dc:date>2021-07-13T17:17:40.689725</dc:date>
    <dc:format>image/svg+xml</dc:format>
    <dc:creator>
     <cc:Agent>
      <dc:title>Matplotlib v3.3.4, https://matplotlib.org/</dc:title>
     </cc:Agent>
    </dc:creator>
   </cc:Work>
  </rdf:RDF>
 </metadata>
 <defs>
  <style type="text/css">*{stroke-linecap:butt;stroke-linejoin:round;}</style>
 </defs>
 <g id="figure_1">
  <g id="patch_1">
   <path d="M 0 288 
L 432 288 
L 432 0 
L 0 0 
z
" style="fill:#ffffff;"/>
  </g>
  <g id="axes_1">
   <g id="patch_2">
    <path d="M 54 252 
L 388.8 252 
L 388.8 34.56 
L 54 34.56 
z
" style="fill:#ffffff;"/>
   </g>
   <g id="PolyCollection_1">
    <defs>
     <path d="M 104.2335 -196.886387 
L 104.2065 -196.886387 
L 104.219706 -197.357801 
L 104.22 -197.829215 
L 104.22 -198.300629 
L 104.22 -198.772043 
L 104.22 -199.243457 
L 104.22 -199.71487 
L 104.22 -200.186284 
L 104.22 -200.657698 
L 104.22 -201.129112 
L 104.22 -201.600526 
L 104.22 -202.07194 
L 104.22 -202.543354 
L 104.22 -203.014768 
L 104.22 -203.486182 
L 104.22 -203.957596 
L 104.22 -204.429009 
L 104.22 -204.900423 
L 104.22 -205.371837 
L 104.22 -205.843251 
L 104.22 -206.314665 
L 104.22 -206.786079 
L 104.22 -207.257493 
L 104.22 -207.728907 
L 104.22 -208.200321 
L 104.22 -208.671735 
L 104.22 -209.143149 
L 104.22 -209.614562 
L 104.22 -210.085976 
L 104.22 -210.55739 
L 104.22 -211.028804 
L 104.22 -211.500218 
L 104.22 -211.971632 
L 104.22 -212.443046 
L 104.22 -212.91446 
L 104.22 -213.385874 
L 104.22 -213.857288 
L 104.22 -214.328701 
L 104.22 -214.800115 
L 104.22 -215.271529 
L 104.22 -215.742943 
L 104.22 -216.214357 
L 104.22 -216.685771 
L 104.22 -217.157185 
L 104.22 -217.628599 
L 104.22 -218.100013 
L 104.22 -218.571427 
L 104.22 -219.042841 
L 104.22 -219.514254 
L 104.22 -219.985668 
L 104.22 -220.457082 
L 104.22 -220.928496 
L 104.22 -221.39991 
L 104.22 -221.871324 
L 104.22 -222.342738 
L 104.22 -222.814152 
L 104.22 -223.285566 
L 104.22 -223.75698 
L 104.22 -224.228394 
L 104.22 -224.699807 
L 104.22 -225.171221 
L 104.22 -225.642635 
L 104.22 -226.114049 
L 104.22 -226.585463 
L 104.22 -227.056877 
L 104.22 -227.528291 
L 104.22 -227.999705 
L 104.22 -228.471119 
L 104.22 -228.942533 
L 104.22 -229.413946 
L 104.22 -229.88536 
L 104.22 -230.356774 
L 104.22 -230.828188 
L 104.22 -231.299602 
L 104.22 -231.771016 
L 104.22 -232.24243 
L 104.22 -232.713844 
L 104.22 -233.185258 
L 104.22 -233.656672 
L 104.22 -234.128086 
L 104.22 -234.599499 
L 104.22 -235.070913 
L 104.22 -235.542327 
L 104.22 -236.013741 
L 104.22 -236.485155 
L 104.22 -236.956569 
L 104.22 -237.427983 
L 104.22 -237.899397 
L 104.22 -238.370811 
L 104.219996 -238.842225 
L 104.213986 -239.313638 
L 104.215582 -239.785052 
L 104.218477 -240.256466 
L 104.209264 -240.72788 
L 104.219964 -241.199294 
L 104.22 -241.670708 
L 104.219017 -242.142122 
L 104.166164 -242.613536 
L 99.65708 -243.08495 
L 70.74 -243.556364 
L 137.7 -243.556364 
L 137.7 -243.556364 
L 108.78292 -243.08495 
L 104.273836 -242.613536 
L 104.220983 -242.142122 
L 104.22 -241.670708 
L 104.220036 -241.199294 
L 104.230736 -240.72788 
L 104.221523 -240.256466 
L 104.224418 -239.785052 
L 104.226014 -239.313638 
L 104.220004 -238.842225 
L 104.22 -238.370811 
L 104.22 -237.899397 
L 104.22 -237.427983 
L 104.22 -236.956569 
L 104.22 -236.485155 
L 104.22 -236.013741 
L 104.22 -235.542327 
L 104.22 -235.070913 
L 104.22 -234.599499 
L 104.22 -234.128086 
L 104.22 -233.656672 
L 104.22 -233.185258 
L 104.22 -232.713844 
L 104.22 -232.24243 
L 104.22 -231.771016 
L 104.22 -231.299602 
L 104.22 -230.828188 
L 104.22 -230.356774 
L 104.22 -229.88536 
L 104.22 -229.413946 
L 104.22 -228.942533 
L 104.22 -228.471119 
L 104.22 -227.999705 
L 104.22 -227.528291 
L 104.22 -227.056877 
L 104.22 -226.585463 
L 104.22 -226.114049 
L 104.22 -225.642635 
L 104.22 -225.171221 
L 104.22 -224.699807 
L 104.22 -224.228394 
L 104.22 -223.75698 
L 104.22 -223.285566 
L 104.22 -222.814152 
L 104.22 -222.342738 
L 104.22 -221.871324 
L 104.22 -221.39991 
L 104.22 -220.928496 
L 104.22 -220.457082 
L 104.22 -219.985668 
L 104.22 -219.514254 
L 104.22 -219.042841 
L 104.22 -218.571427 
L 104.22 -218.100013 
L 104.22 -217.628599 
L 104.22 -217.157185 
L 104.22 -216.685771 
L 104.22 -216.214357 
L 104.22 -215.742943 
L 104.22 -215.271529 
L 104.22 -214.800115 
L 104.22 -214.328701 
L 104.22 -213.857288 
L 104.22 -213.385874 
L 104.22 -212.91446 
L 104.22 -212.443046 
L 104.22 -211.971632 
L 104.22 -211.500218 
L 104.22 -211.028804 
L 104.22 -210.55739 
L 104.22 -210.085976 
L 104.22 -209.614562 
L 104.22 -209.143149 
L 104.22 -208.671735 
L 104.22 -208.200321 
L 104.22 -207.728907 
L 104.22 -207.257493 
L 104.22 -206.786079 
L 104.22 -206.314665 
L 104.22 -205.843251 
L 104.22 -205.371837 
L 104.22 -204.900423 
L 104.22 -204.429009 
L 104.22 -203.957596 
L 104.22 -203.486182 
L 104.22 -203.014768 
L 104.22 -202.543354 
L 104.22 -202.07194 
L 104.22 -201.600526 
L 104.22 -201.129112 
L 104.22 -200.657698 
L 104.22 -200.186284 
L 104.22 -199.71487 
L 104.22 -199.243457 
L 104.22 -198.772043 
L 104.22 -198.300629 
L 104.22 -197.829215 
L 104.220294 -197.357801 
L 104.2335 -196.886387 
z
" id="md8784d6eec" style="stroke:#3f3f3f;stroke-width:1.5;"/>
    </defs>
    <g clip-path="url(#pcfb5b44032)">
     <use style="fill:#3274a1;stroke:#3f3f3f;stroke-width:1.5;" x="0" xlink:href="#md8784d6eec" y="288"/>
    </g>
   </g>
   <g id="PolyCollection_2">
    <defs>
     <path d="M 338.591065 -45.883636 
L 338.568935 -45.883636 
L 338.577671 -47.880248 
L 338.579978 -49.876859 
L 338.58 -51.87347 
L 338.58 -53.870082 
L 338.58 -55.866693 
L 338.58 -57.863304 
L 338.58 -59.859915 
L 338.58 -61.856527 
L 338.58 -63.853138 
L 338.58 -65.849749 
L 338.58 -67.846361 
L 338.58 -69.842972 
L 338.58 -71.839583 
L 338.58 -73.836194 
L 338.58 -75.832806 
L 338.58 -77.829417 
L 338.58 -79.826028 
L 338.58 -81.82264 
L 338.58 -83.819251 
L 338.58 -85.815862 
L 338.58 -87.812474 
L 338.58 -89.809085 
L 338.58 -91.805696 
L 338.58 -93.802307 
L 338.58 -95.798919 
L 338.58 -97.79553 
L 338.58 -99.792141 
L 338.58 -101.788753 
L 338.58 -103.785364 
L 338.58 -105.781975 
L 338.579993 -107.778586 
L 338.578759 -109.775198 
L 338.569508 -111.771809 
L 338.576072 -113.76842 
L 338.579935 -115.765032 
L 338.58 -117.761643 
L 338.58 -119.758254 
L 338.58 -121.754866 
L 338.58 -123.751477 
L 338.58 -125.748088 
L 338.58 -127.744699 
L 338.58 -129.741311 
L 338.58 -131.737922 
L 338.579854 -133.734533 
L 338.574465 -135.731145 
L 338.570694 -137.727756 
L 338.579307 -139.724367 
L 338.579998 -141.720978 
L 338.58 -143.71759 
L 338.58 -145.714201 
L 338.58 -147.710812 
L 338.58 -149.707424 
L 338.579999 -151.704035 
L 338.579502 -153.700646 
L 338.57149 -155.697258 
L 338.573562 -157.693869 
L 338.579776 -159.69048 
L 338.578596 -161.687091 
L 338.569321 -163.683703 
L 338.576402 -165.680314 
L 338.57993 -167.676925 
L 338.577998 -169.673537 
L 338.568974 -171.670148 
L 338.577309 -173.666759 
L 338.579952 -175.66337 
L 338.577818 -177.659982 
L 338.568942 -179.656593 
L 338.577517 -181.653204 
L 338.579975 -183.649816 
L 338.58 -185.646427 
L 338.58 -187.643038 
L 338.579842 -189.639649 
L 338.574281 -191.636261 
L 338.57085 -193.632872 
L 338.579351 -195.629483 
L 338.579998 -197.626095 
L 338.579884 -199.622706 
L 338.574814 -201.619317 
L 338.564666 -203.615929 
L 338.569935 -205.61254 
L 338.579325 -207.609151 
L 338.579998 -209.605762 
L 338.58 -211.602374 
L 338.58 -213.598985 
L 338.58 -215.595596 
L 338.58 -217.592208 
L 338.58 -219.588819 
L 338.57988 -221.58543 
L 338.574886 -223.582041 
L 338.570349 -225.578653 
L 338.579192 -227.575264 
L 338.579363 -229.571875 
L 338.565261 -231.568487 
L 338.563285 -233.565098 
L 338.561653 -235.561709 
L 338.560319 -237.558321 
L 338.472677 -239.554932 
L 330.382332 -241.551543 
L 305.1 -243.548154 
L 372.06 -243.548154 
L 372.06 -243.548154 
L 346.777668 -241.551543 
L 338.687323 -239.554932 
L 338.599681 -237.558321 
L 338.598347 -235.561709 
L 338.596715 -233.565098 
L 338.594739 -231.568487 
L 338.580637 -229.571875 
L 338.580808 -227.575264 
L 338.589651 -225.578653 
L 338.585114 -223.582041 
L 338.58012 -221.58543 
L 338.58 -219.588819 
L 338.58 -217.592208 
L 338.58 -215.595596 
L 338.58 -213.598985 
L 338.58 -211.602374 
L 338.580002 -209.605762 
L 338.580675 -207.609151 
L 338.590065 -205.61254 
L 338.595334 -203.615929 
L 338.585186 -201.619317 
L 338.580116 -199.622706 
L 338.580002 -197.626095 
L 338.580649 -195.629483 
L 338.58915 -193.632872 
L 338.585719 -191.636261 
L 338.580158 -189.639649 
L 338.58 -187.643038 
L 338.58 -185.646427 
L 338.580025 -183.649816 
L 338.582483 -181.653204 
L 338.591058 -179.656593 
L 338.582182 -177.659982 
L 338.580048 -175.66337 
L 338.582691 -173.666759 
L 338.591026 -171.670148 
L 338.582002 -169.673537 
L 338.58007 -167.676925 
L 338.583598 -165.680314 
L 338.590679 -163.683703 
L 338.581404 -161.687091 
L 338.580224 -159.69048 
L 338.586438 -157.693869 
L 338.58851 -155.697258 
L 338.580498 -153.700646 
L 338.580001 -151.704035 
L 338.58 -149.707424 
L 338.58 -147.710812 
L 338.58 -145.714201 
L 338.58 -143.71759 
L 338.580002 -141.720978 
L 338.580693 -139.724367 
L 338.589306 -137.727756 
L 338.585535 -135.731145 
L 338.580146 -133.734533 
L 338.58 -131.737922 
L 338.58 -129.741311 
L 338.58 -127.744699 
L 338.58 -125.748088 
L 338.58 -123.751477 
L 338.58 -121.754866 
L 338.58 -119.758254 
L 338.58 -117.761643 
L 338.580065 -115.765032 
L 338.583928 -113.76842 
L 338.590492 -111.771809 
L 338.581241 -109.775198 
L 338.580007 -107.778586 
L 338.58 -105.781975 
L 338.58 -103.785364 
L 338.58 -101.788753 
L 338.58 -99.792141 
L 338.58 -97.79553 
L 338.58 -95.798919 
L 338.58 -93.802307 
L 338.58 -91.805696 
L 338.58 -89.809085 
L 338.58 -87.812474 
L 338.58 -85.815862 
L 338.58 -83.819251 
L 338.58 -81.82264 
L 338.58 -79.826028 
L 338.58 -77.829417 
L 338.58 -75.832806 
L 338.58 -73.836194 
L 338.58 -71.839583 
L 338.58 -69.842972 
L 338.58 -67.846361 
L 338.58 -65.849749 
L 338.58 -63.853138 
L 338.58 -61.856527 
L 338.58 -59.859915 
L 338.58 -57.863304 
L 338.58 -55.866693 
L 338.58 -53.870082 
L 338.58 -51.87347 
L 338.580022 -49.876859 
L 338.582329 -47.880248 
L 338.591065 -45.883636 
z
" id="m40f4abc17b" style="stroke:#3f3f3f;stroke-width:1.5;"/>
    </defs>
    <g clip-path="url(#pcfb5b44032)">
     <use style="fill:#e1812c;stroke:#3f3f3f;stroke-width:1.5;" x="0" xlink:href="#m40f4abc17b" y="288"/>
    </g>
   </g>
   <g id="patch_3">
    <path clip-path="url(#pcfb5b44032)" d="M 137.7 44.542602 
L 137.7 44.542602 
L 137.7 44.542602 
L 137.7 44.542602 
z
" style="fill:#3274a1;stroke:#3f3f3f;stroke-linejoin:miter;stroke-width:0.75;"/>
   </g>
   <g id="patch_4">
    <path clip-path="url(#pcfb5b44032)" d="M 137.7 44.542602 
L 137.7 44.542602 
L 137.7 44.542602 
L 137.7 44.542602 
z
" style="fill:#e1812c;stroke:#3f3f3f;stroke-linejoin:miter;stroke-width:0.75;"/>
   </g>
   <g id="matplotlib.axis_1">
    <g id="xtick_1">
     <g id="line2d_1">
      <defs>
       <path d="M 0 0 
L 0 3.5 
" id="m96e7e14fbd" style="stroke:#000000;stroke-width:0.8;"/>
      </defs>
      <g>
       <use style="stroke:#000000;stroke-width:0.8;" x="137.7" xlink:href="#m96e7e14fbd" y="252"/>
      </g>
     </g>
     <g id="text_1">
      <!-- Z_1_ns -->
      <g transform="translate(120.320312 266.320312)scale(0.1 -0.1)">
       <defs>
        <path d="M 5.609375 72.90625 
L 62.890625 72.90625 
L 62.890625 65.375 
L 16.796875 8.296875 
L 64.015625 8.296875 
L 64.015625 0 
L 4.5 0 
L 4.5 7.515625 
L 50.59375 64.59375 
L 5.609375 64.59375 
z
" id="DejaVuSans-90"/>
        <path d="M 50.984375 -16.609375 
L 50.984375 -23.578125 
L -0.984375 -23.578125 
L -0.984375 -16.609375 
z
" id="DejaVuSans-95"/>
        <path d="M 12.40625 8.296875 
L 28.515625 8.296875 
L 28.515625 63.921875 
L 10.984375 60.40625 
L 10.984375 69.390625 
L 28.421875 72.90625 
L 38.28125 72.90625 
L 38.28125 8.296875 
L 54.390625 8.296875 
L 54.390625 0 
L 12.40625 0 
z
" id="DejaVuSans-49"/>
        <path d="M 54.890625 33.015625 
L 54.890625 0 
L 45.90625 0 
L 45.90625 32.71875 
Q 45.90625 40.484375 42.875 44.328125 
Q 39.84375 48.1875 33.796875 48.1875 
Q 26.515625 48.1875 22.3125 43.546875 
Q 18.109375 38.921875 18.109375 30.90625 
L 18.109375 0 
L 9.078125 0 
L 9.078125 54.6875 
L 18.109375 54.6875 
L 18.109375 46.1875 
Q 21.34375 51.125 25.703125 53.5625 
Q 30.078125 56 35.796875 56 
Q 45.21875 56 50.046875 50.171875 
Q 54.890625 44.34375 54.890625 33.015625 
z
" id="DejaVuSans-110"/>
        <path d="M 44.28125 53.078125 
L 44.28125 44.578125 
Q 40.484375 46.53125 36.375 47.5 
Q 32.28125 48.484375 27.875 48.484375 
Q 21.1875 48.484375 17.84375 46.4375 
Q 14.5 44.390625 14.5 40.28125 
Q 14.5 37.15625 16.890625 35.375 
Q 19.28125 33.59375 26.515625 31.984375 
L 29.59375 31.296875 
Q 39.15625 29.25 43.1875 25.515625 
Q 47.21875 21.78125 47.21875 15.09375 
Q 47.21875 7.46875 41.1875 3.015625 
Q 35.15625 -1.421875 24.609375 -1.421875 
Q 20.21875 -1.421875 15.453125 -0.5625 
Q 10.6875 0.296875 5.421875 2 
L 5.421875 11.28125 
Q 10.40625 8.6875 15.234375 7.390625 
Q 20.0625 6.109375 24.8125 6.109375 
Q 31.15625 6.109375 34.5625 8.28125 
Q 37.984375 10.453125 37.984375 14.40625 
Q 37.984375 18.0625 35.515625 20.015625 
Q 33.0625 21.96875 24.703125 23.78125 
L 21.578125 24.515625 
Q 13.234375 26.265625 9.515625 29.90625 
Q 5.8125 33.546875 5.8125 39.890625 
Q 5.8125 47.609375 11.28125 51.796875 
Q 16.75 56 26.8125 56 
Q 31.78125 56 36.171875 55.265625 
Q 40.578125 54.546875 44.28125 53.078125 
z
" id="DejaVuSans-115"/>
       </defs>
       <use xlink:href="#DejaVuSans-90"/>
       <use x="68.505859" xlink:href="#DejaVuSans-95"/>
       <use x="118.505859" xlink:href="#DejaVuSans-49"/>
       <use x="182.128906" xlink:href="#DejaVuSans-95"/>
       <use x="232.128906" xlink:href="#DejaVuSans-110"/>
       <use x="295.507812" xlink:href="#DejaVuSans-115"/>
      </g>
     </g>
    </g>
    <g id="xtick_2">
     <g id="line2d_2">
      <g>
       <use style="stroke:#000000;stroke-width:0.8;" x="305.1" xlink:href="#m96e7e14fbd" y="252"/>
      </g>
     </g>
     <g id="text_2">
      <!-- Z_3_ns -->
      <g transform="translate(287.720313 266.421875)scale(0.1 -0.1)">
       <defs>
        <path d="M 40.578125 39.3125 
Q 47.65625 37.796875 51.625 33 
Q 55.609375 28.21875 55.609375 21.1875 
Q 55.609375 10.40625 48.1875 4.484375 
Q 40.765625 -1.421875 27.09375 -1.421875 
Q 22.515625 -1.421875 17.65625 -0.515625 
Q 12.796875 0.390625 7.625 2.203125 
L 7.625 11.71875 
Q 11.71875 9.328125 16.59375 8.109375 
Q 21.484375 6.890625 26.8125 6.890625 
Q 36.078125 6.890625 40.9375 10.546875 
Q 45.796875 14.203125 45.796875 21.1875 
Q 45.796875 27.640625 41.28125 31.265625 
Q 36.765625 34.90625 28.71875 34.90625 
L 20.21875 34.90625 
L 20.21875 43.015625 
L 29.109375 43.015625 
Q 36.375 43.015625 40.234375 45.921875 
Q 44.09375 48.828125 44.09375 54.296875 
Q 44.09375 59.90625 40.109375 62.90625 
Q 36.140625 65.921875 28.71875 65.921875 
Q 24.65625 65.921875 20.015625 65.03125 
Q 15.375 64.15625 9.8125 62.3125 
L 9.8125 71.09375 
Q 15.4375 72.65625 20.34375 73.4375 
Q 25.25 74.21875 29.59375 74.21875 
Q 40.828125 74.21875 47.359375 69.109375 
Q 53.90625 64.015625 53.90625 55.328125 
Q 53.90625 49.265625 50.4375 45.09375 
Q 46.96875 40.921875 40.578125 39.3125 
z
" id="DejaVuSans-51"/>
       </defs>
       <use xlink:href="#DejaVuSans-90"/>
       <use x="68.505859" xlink:href="#DejaVuSans-95"/>
       <use x="118.505859" xlink:href="#DejaVuSans-51"/>
       <use x="182.128906" xlink:href="#DejaVuSans-95"/>
       <use x="232.128906" xlink:href="#DejaVuSans-110"/>
       <use x="295.507812" xlink:href="#DejaVuSans-115"/>
      </g>
     </g>
    </g>
    <g id="text_3">
     <!-- set -->
     <g transform="translate(213.758594 280.378125)scale(0.1 -0.1)">
      <defs>
       <path d="M 56.203125 29.59375 
L 56.203125 25.203125 
L 14.890625 25.203125 
Q 15.484375 15.921875 20.484375 11.0625 
Q 25.484375 6.203125 34.421875 6.203125 
Q 39.59375 6.203125 44.453125 7.46875 
Q 49.3125 8.734375 54.109375 11.28125 
L 54.109375 2.78125 
Q 49.265625 0.734375 44.1875 -0.34375 
Q 39.109375 -1.421875 33.890625 -1.421875 
Q 20.796875 -1.421875 13.15625 6.1875 
Q 5.515625 13.8125 5.515625 26.8125 
Q 5.515625 40.234375 12.765625 48.109375 
Q 20.015625 56 32.328125 56 
Q 43.359375 56 49.78125 48.890625 
Q 56.203125 41.796875 56.203125 29.59375 
z
M 47.21875 32.234375 
Q 47.125 39.59375 43.09375 43.984375 
Q 39.0625 48.390625 32.421875 48.390625 
Q 24.90625 48.390625 20.390625 44.140625 
Q 15.875 39.890625 15.1875 32.171875 
z
" id="DejaVuSans-101"/>
       <path d="M 18.3125 70.21875 
L 18.3125 54.6875 
L 36.8125 54.6875 
L 36.8125 47.703125 
L 18.3125 47.703125 
L 18.3125 18.015625 
Q 18.3125 11.328125 20.140625 9.421875 
Q 21.96875 7.515625 27.59375 7.515625 
L 36.8125 7.515625 
L 36.8125 0 
L 27.59375 0 
Q 17.1875 0 13.234375 3.875 
Q 9.28125 7.765625 9.28125 18.015625 
L 9.28125 47.703125 
L 2.6875 47.703125 
L 2.6875 54.6875 
L 9.28125 54.6875 
L 9.28125 70.21875 
z
" id="DejaVuSans-116"/>
      </defs>
      <use xlink:href="#DejaVuSans-115"/>
      <use x="52.099609" xlink:href="#DejaVuSans-101"/>
      <use x="113.623047" xlink:href="#DejaVuSans-116"/>
     </g>
    </g>
   </g>
   <g id="matplotlib.axis_2">
    <g id="ytick_1">
     <g id="line2d_3">
      <defs>
       <path d="M 0 0 
L -3.5 0 
" id="mf7b9b19c2e" style="stroke:#000000;stroke-width:0.8;"/>
      </defs>
      <g>
       <use style="stroke:#000000;stroke-width:0.8;" x="54" xlink:href="#mf7b9b19c2e" y="237.501511"/>
      </g>
     </g>
     <g id="text_4">
      <!-- −8 -->
      <g transform="translate(32.257812 241.30073)scale(0.1 -0.1)">
       <defs>
        <path d="M 10.59375 35.5 
L 73.1875 35.5 
L 73.1875 27.203125 
L 10.59375 27.203125 
z
" id="DejaVuSans-8722"/>
        <path d="M 31.78125 34.625 
Q 24.75 34.625 20.71875 30.859375 
Q 16.703125 27.09375 16.703125 20.515625 
Q 16.703125 13.921875 20.71875 10.15625 
Q 24.75 6.390625 31.78125 6.390625 
Q 38.8125 6.390625 42.859375 10.171875 
Q 46.921875 13.96875 46.921875 20.515625 
Q 46.921875 27.09375 42.890625 30.859375 
Q 38.875 34.625 31.78125 34.625 
z
M 21.921875 38.8125 
Q 15.578125 40.375 12.03125 44.71875 
Q 8.5 49.078125 8.5 55.328125 
Q 8.5 64.0625 14.71875 69.140625 
Q 20.953125 74.21875 31.78125 74.21875 
Q 42.671875 74.21875 48.875 69.140625 
Q 55.078125 64.0625 55.078125 55.328125 
Q 55.078125 49.078125 51.53125 44.71875 
Q 48 40.375 41.703125 38.8125 
Q 48.828125 37.15625 52.796875 32.3125 
Q 56.78125 27.484375 56.78125 20.515625 
Q 56.78125 9.90625 50.3125 4.234375 
Q 43.84375 -1.421875 31.78125 -1.421875 
Q 19.734375 -1.421875 13.25 4.234375 
Q 6.78125 9.90625 6.78125 20.515625 
Q 6.78125 27.484375 10.78125 32.3125 
Q 14.796875 37.15625 21.921875 38.8125 
z
M 18.3125 54.390625 
Q 18.3125 48.734375 21.84375 45.5625 
Q 25.390625 42.390625 31.78125 42.390625 
Q 38.140625 42.390625 41.71875 45.5625 
Q 45.3125 48.734375 45.3125 54.390625 
Q 45.3125 60.0625 41.71875 63.234375 
Q 38.140625 66.40625 31.78125 66.40625 
Q 25.390625 66.40625 21.84375 63.234375 
Q 18.3125 60.0625 18.3125 54.390625 
z
" id="DejaVuSans-56"/>
       </defs>
       <use xlink:href="#DejaVuSans-8722"/>
       <use x="83.789062" xlink:href="#DejaVuSans-56"/>
      </g>
     </g>
    </g>
    <g id="ytick_2">
     <g id="line2d_4">
      <g>
       <use style="stroke:#000000;stroke-width:0.8;" x="54" xlink:href="#mf7b9b19c2e" y="189.261784"/>
      </g>
     </g>
     <g id="text_5">
      <!-- −6 -->
      <g transform="translate(32.257812 193.061003)scale(0.1 -0.1)">
       <defs>
        <path d="M 33.015625 40.375 
Q 26.375 40.375 22.484375 35.828125 
Q 18.609375 31.296875 18.609375 23.390625 
Q 18.609375 15.53125 22.484375 10.953125 
Q 26.375 6.390625 33.015625 6.390625 
Q 39.65625 6.390625 43.53125 10.953125 
Q 47.40625 15.53125 47.40625 23.390625 
Q 47.40625 31.296875 43.53125 35.828125 
Q 39.65625 40.375 33.015625 40.375 
z
M 52.59375 71.296875 
L 52.59375 62.3125 
Q 48.875 64.0625 45.09375 64.984375 
Q 41.3125 65.921875 37.59375 65.921875 
Q 27.828125 65.921875 22.671875 59.328125 
Q 17.53125 52.734375 16.796875 39.40625 
Q 19.671875 43.65625 24.015625 45.921875 
Q 28.375 48.1875 33.59375 48.1875 
Q 44.578125 48.1875 50.953125 41.515625 
Q 57.328125 34.859375 57.328125 23.390625 
Q 57.328125 12.15625 50.6875 5.359375 
Q 44.046875 -1.421875 33.015625 -1.421875 
Q 20.359375 -1.421875 13.671875 8.265625 
Q 6.984375 17.96875 6.984375 36.375 
Q 6.984375 53.65625 15.1875 63.9375 
Q 23.390625 74.21875 37.203125 74.21875 
Q 40.921875 74.21875 44.703125 73.484375 
Q 48.484375 72.75 52.59375 71.296875 
z
" id="DejaVuSans-54"/>
       </defs>
       <use xlink:href="#DejaVuSans-8722"/>
       <use x="83.789062" xlink:href="#DejaVuSans-54"/>
      </g>
     </g>
    </g>
    <g id="ytick_3">
     <g id="line2d_5">
      <g>
       <use style="stroke:#000000;stroke-width:0.8;" x="54" xlink:href="#mf7b9b19c2e" y="141.022056"/>
      </g>
     </g>
     <g id="text_6">
      <!-- −4 -->
      <g transform="translate(32.257812 144.821275)scale(0.1 -0.1)">
       <defs>
        <path d="M 37.796875 64.3125 
L 12.890625 25.390625 
L 37.796875 25.390625 
z
M 35.203125 72.90625 
L 47.609375 72.90625 
L 47.609375 25.390625 
L 58.015625 25.390625 
L 58.015625 17.1875 
L 47.609375 17.1875 
L 47.609375 0 
L 37.796875 0 
L 37.796875 17.1875 
L 4.890625 17.1875 
L 4.890625 26.703125 
z
" id="DejaVuSans-52"/>
       </defs>
       <use xlink:href="#DejaVuSans-8722"/>
       <use x="83.789062" xlink:href="#DejaVuSans-52"/>
      </g>
     </g>
    </g>
    <g id="ytick_4">
     <g id="line2d_6">
      <g>
       <use style="stroke:#000000;stroke-width:0.8;" x="54" xlink:href="#mf7b9b19c2e" y="92.782329"/>
      </g>
     </g>
     <g id="text_7">
      <!-- −2 -->
      <g transform="translate(32.257812 96.581548)scale(0.1 -0.1)">
       <defs>
        <path d="M 19.1875 8.296875 
L 53.609375 8.296875 
L 53.609375 0 
L 7.328125 0 
L 7.328125 8.296875 
Q 12.9375 14.109375 22.625 23.890625 
Q 32.328125 33.6875 34.8125 36.53125 
Q 39.546875 41.84375 41.421875 45.53125 
Q 43.3125 49.21875 43.3125 52.78125 
Q 43.3125 58.59375 39.234375 62.25 
Q 35.15625 65.921875 28.609375 65.921875 
Q 23.96875 65.921875 18.8125 64.3125 
Q 13.671875 62.703125 7.8125 59.421875 
L 7.8125 69.390625 
Q 13.765625 71.78125 18.9375 73 
Q 24.125 74.21875 28.421875 74.21875 
Q 39.75 74.21875 46.484375 68.546875 
Q 53.21875 62.890625 53.21875 53.421875 
Q 53.21875 48.921875 51.53125 44.890625 
Q 49.859375 40.875 45.40625 35.40625 
Q 44.1875 33.984375 37.640625 27.21875 
Q 31.109375 20.453125 19.1875 8.296875 
z
" id="DejaVuSans-50"/>
       </defs>
       <use xlink:href="#DejaVuSans-8722"/>
       <use x="83.789062" xlink:href="#DejaVuSans-50"/>
      </g>
     </g>
    </g>
    <g id="ytick_5">
     <g id="line2d_7">
      <g>
       <use style="stroke:#000000;stroke-width:0.8;" x="54" xlink:href="#mf7b9b19c2e" y="44.542602"/>
      </g>
     </g>
     <g id="text_8">
      <!-- 0 -->
      <g transform="translate(40.6375 48.34182)scale(0.1 -0.1)">
       <defs>
        <path d="M 31.78125 66.40625 
Q 24.171875 66.40625 20.328125 58.90625 
Q 16.5 51.421875 16.5 36.375 
Q 16.5 21.390625 20.328125 13.890625 
Q 24.171875 6.390625 31.78125 6.390625 
Q 39.453125 6.390625 43.28125 13.890625 
Q 47.125 21.390625 47.125 36.375 
Q 47.125 51.421875 43.28125 58.90625 
Q 39.453125 66.40625 31.78125 66.40625 
z
M 31.78125 74.21875 
Q 44.046875 74.21875 50.515625 64.515625 
Q 56.984375 54.828125 56.984375 36.375 
Q 56.984375 17.96875 50.515625 8.265625 
Q 44.046875 -1.421875 31.78125 -1.421875 
Q 19.53125 -1.421875 13.0625 8.265625 
Q 6.59375 17.96875 6.59375 36.375 
Q 6.59375 54.828125 13.0625 64.515625 
Q 19.53125 74.21875 31.78125 74.21875 
z
" id="DejaVuSans-48"/>
       </defs>
       <use xlink:href="#DejaVuSans-48"/>
      </g>
     </g>
    </g>
    <g id="text_9">
     <!-- value -->
     <g transform="translate(26.178125 156.937813)rotate(-90)scale(0.1 -0.1)">
      <defs>
       <path d="M 2.984375 54.6875 
L 12.5 54.6875 
L 29.59375 8.796875 
L 46.6875 54.6875 
L 56.203125 54.6875 
L 35.6875 0 
L 23.484375 0 
z
" id="DejaVuSans-118"/>
       <path d="M 34.28125 27.484375 
Q 23.390625 27.484375 19.1875 25 
Q 14.984375 22.515625 14.984375 16.5 
Q 14.984375 11.71875 18.140625 8.90625 
Q 21.296875 6.109375 26.703125 6.109375 
Q 34.1875 6.109375 38.703125 11.40625 
Q 43.21875 16.703125 43.21875 25.484375 
L 43.21875 27.484375 
z
M 52.203125 31.203125 
L 52.203125 0 
L 43.21875 0 
L 43.21875 8.296875 
Q 40.140625 3.328125 35.546875 0.953125 
Q 30.953125 -1.421875 24.3125 -1.421875 
Q 15.921875 -1.421875 10.953125 3.296875 
Q 6 8.015625 6 15.921875 
Q 6 25.140625 12.171875 29.828125 
Q 18.359375 34.515625 30.609375 34.515625 
L 43.21875 34.515625 
L 43.21875 35.40625 
Q 43.21875 41.609375 39.140625 45 
Q 35.0625 48.390625 27.6875 48.390625 
Q 23 48.390625 18.546875 47.265625 
Q 14.109375 46.140625 10.015625 43.890625 
L 10.015625 52.203125 
Q 14.9375 54.109375 19.578125 55.046875 
Q 24.21875 56 28.609375 56 
Q 40.484375 56 46.34375 49.84375 
Q 52.203125 43.703125 52.203125 31.203125 
z
" id="DejaVuSans-97"/>
       <path d="M 9.421875 75.984375 
L 18.40625 75.984375 
L 18.40625 0 
L 9.421875 0 
z
" id="DejaVuSans-108"/>
       <path d="M 8.5 21.578125 
L 8.5 54.6875 
L 17.484375 54.6875 
L 17.484375 21.921875 
Q 17.484375 14.15625 20.5 10.265625 
Q 23.53125 6.390625 29.59375 6.390625 
Q 36.859375 6.390625 41.078125 11.03125 
Q 45.3125 15.671875 45.3125 23.6875 
L 45.3125 54.6875 
L 54.296875 54.6875 
L 54.296875 0 
L 45.3125 0 
L 45.3125 8.40625 
Q 42.046875 3.421875 37.71875 1 
Q 33.40625 -1.421875 27.6875 -1.421875 
Q 18.265625 -1.421875 13.375 4.4375 
Q 8.5 10.296875 8.5 21.578125 
z
M 31.109375 56 
z
" id="DejaVuSans-117"/>
      </defs>
      <use xlink:href="#DejaVuSans-118"/>
      <use x="59.179688" xlink:href="#DejaVuSans-97"/>
      <use x="120.458984" xlink:href="#DejaVuSans-108"/>
      <use x="148.242188" xlink:href="#DejaVuSans-117"/>
      <use x="211.621094" xlink:href="#DejaVuSans-101"/>
     </g>
    </g>
   </g>
   <g id="line2d_8">
    <path clip-path="url(#pcfb5b44032)" d="M 104.22 44.566786 
L 104.22 44.526919 
" style="fill:none;stroke:#3f3f3f;stroke-linecap:square;stroke-width:1.5;"/>
   </g>
   <g id="line2d_9">
    <path clip-path="url(#pcfb5b44032)" d="M 104.22 44.551839 
L 104.22 44.541865 
" style="fill:none;stroke:#3f3f3f;stroke-linecap:square;stroke-width:4.5;"/>
   </g>
   <g id="line2d_10">
    <path clip-path="url(#pcfb5b44032)" d="M 338.58 44.564956 
L 338.58 44.523635 
" style="fill:none;stroke:#3f3f3f;stroke-linecap:square;stroke-width:1.5;"/>
   </g>
   <g id="line2d_11">
    <path clip-path="url(#pcfb5b44032)" d="M 338.58 44.549439 
L 338.58 44.53903 
" style="fill:none;stroke:#3f3f3f;stroke-linecap:square;stroke-width:4.5;"/>
   </g>
   <g id="patch_5">
    <path d="M 54 252 
L 54 34.56 
" style="fill:none;stroke:#000000;stroke-linecap:square;stroke-linejoin:miter;stroke-width:0.8;"/>
   </g>
   <g id="patch_6">
    <path d="M 388.8 252 
L 388.8 34.56 
" style="fill:none;stroke:#000000;stroke-linecap:square;stroke-linejoin:miter;stroke-width:0.8;"/>
   </g>
   <g id="patch_7">
    <path d="M 54 252 
L 388.8 252 
" style="fill:none;stroke:#000000;stroke-linecap:square;stroke-linejoin:miter;stroke-width:0.8;"/>
   </g>
   <g id="patch_8">
    <path d="M 54 34.56 
L 388.8 34.56 
" style="fill:none;stroke:#000000;stroke-linecap:square;stroke-linejoin:miter;stroke-width:0.8;"/>
   </g>
   <g id="PathCollection_1">
    <defs>
     <path d="M 0 1.5 
C 0.397805 1.5 0.77937 1.341951 1.06066 1.06066 
C 1.341951 0.77937 1.5 0.397805 1.5 0 
C 1.5 -0.397805 1.341951 -0.77937 1.06066 -1.06066 
C 0.77937 -1.341951 0.397805 -1.5 0 -1.5 
C -0.397805 -1.5 -0.77937 -1.341951 -1.06066 -1.06066 
C -1.341951 -0.77937 -1.5 -0.397805 -1.5 0 
C -1.5 0.397805 -1.341951 0.77937 -1.06066 1.06066 
C -0.77937 1.341951 -0.397805 1.5 0 1.5 
z
" id="mbf7d45b9ae" style="stroke:#3f3f3f;"/>
    </defs>
    <g clip-path="url(#pcfb5b44032)">
     <use style="fill:#ffffff;stroke:#3f3f3f;" x="104.22" xlink:href="#mbf7d45b9ae" y="44.544837"/>
    </g>
   </g>
   <g id="PathCollection_2">
    <g clip-path="url(#pcfb5b44032)">
     <use style="fill:#ffffff;stroke:#3f3f3f;" x="338.58" xlink:href="#mbf7d45b9ae" y="44.543569"/>
    </g>
   </g>
   <g id="legend_1">
    <g id="patch_9">
     <path d="M 61 247 
L 127.759375 247 
Q 129.759375 247 129.759375 245 
L 129.759375 201.409375 
Q 129.759375 199.409375 127.759375 199.409375 
L 61 199.409375 
Q 59 199.409375 59 201.409375 
L 59 245 
Q 59 247 61 247 
z
" style="fill:#ffffff;opacity:0.8;stroke:#cccccc;stroke-linejoin:miter;"/>
    </g>
    <g id="text_10">
     <!-- set -->
     <g transform="translate(86.738281 211.007812)scale(0.1 -0.1)">
      <use xlink:href="#DejaVuSans-115"/>
      <use x="52.099609" xlink:href="#DejaVuSans-101"/>
      <use x="113.623047" xlink:href="#DejaVuSans-116"/>
     </g>
    </g>
    <g id="patch_10">
     <path d="M 63 225.685937 
L 83 225.685937 
L 83 218.685937 
L 63 218.685937 
z
" style="fill:#3274a1;stroke:#3f3f3f;stroke-linejoin:miter;stroke-width:0.75;"/>
    </g>
    <g id="text_11">
     <!-- Z_1_ns -->
     <g transform="translate(91 225.685937)scale(0.1 -0.1)">
      <use xlink:href="#DejaVuSans-90"/>
      <use x="68.505859" xlink:href="#DejaVuSans-95"/>
      <use x="118.505859" xlink:href="#DejaVuSans-49"/>
      <use x="182.128906" xlink:href="#DejaVuSans-95"/>
      <use x="232.128906" xlink:href="#DejaVuSans-110"/>
      <use x="295.507812" xlink:href="#DejaVuSans-115"/>
     </g>
    </g>
    <g id="patch_11">
     <path d="M 63 240.642188 
L 83 240.642188 
L 83 233.642188 
L 63 233.642188 
z
" style="fill:#e1812c;stroke:#3f3f3f;stroke-linejoin:miter;stroke-width:0.75;"/>
    </g>
    <g id="text_12">
     <!-- Z_3_ns -->
     <g transform="translate(91 240.642188)scale(0.1 -0.1)">
      <use xlink:href="#DejaVuSans-90"/>
      <use x="68.505859" xlink:href="#DejaVuSans-95"/>
      <use x="118.505859" xlink:href="#DejaVuSans-51"/>
      <use x="182.128906" xlink:href="#DejaVuSans-95"/>
      <use x="232.128906" xlink:href="#DejaVuSans-110"/>
      <use x="295.507812" xlink:href="#DejaVuSans-115"/>
     </g>
    </g>
   </g>
  </g>
 </g>
 <defs>
  <clipPath id="pcfb5b44032">
   <rect height="217.44" width="334.8" x="54" y="34.56"/>
  </clipPath>
 </defs>
</svg>
