<?xml version="1.0" encoding="utf-8" standalone="no"?>
<!DOCTYPE svg PUBLIC "-//W3C//DTD SVG 1.1//EN"
  "http://www.w3.org/Graphics/SVG/1.1/DTD/svg11.dtd">
<!-- Created with matplotlib (https://matplotlib.org/) -->
<svg height="288pt" version="1.1" viewBox="0 0 432 288" width="432pt" xmlns="http://www.w3.org/2000/svg" xmlns:xlink="http://www.w3.org/1999/xlink">
 <metadata>
  <rdf:RDF xmlns:cc="http://creativecommons.org/ns#" xmlns:dc="http://purl.org/dc/elements/1.1/" xmlns:rdf="http://www.w3.org/1999/02/22-rdf-syntax-ns#">
   <cc:Work>
    <dc:type rdf:resource="http://purl.org/dc/dcmitype/StillImage"/>
    <dc:date>2021-07-13T17:17:38.977862</dc:date>
    <dc:format>image/svg+xml</dc:format>
    <dc:creator>
     <cc:Agent>
      <dc:title>Matplotlib v3.3.4, https://matplotlib.org/</dc:title>
     </cc:Agent>
    </dc:creator>
   </cc:Work>
  </rdf:RDF>
 </metadata>
 <defs>
  <style type="text/css">*{stroke-linecap:butt;stroke-linejoin:round;}</style>
 </defs>
 <g id="figure_1">
  <g id="patch_1">
   <path d="M 0 288 
L 432 288 
L 432 0 
L 0 0 
z
" style="fill:#ffffff;"/>
  </g>
  <g id="axes_1">
   <g id="patch_2">
    <path d="M 54 252 
L 388.8 252 
L 388.8 34.56 
L 54 34.56 
z
" style="fill:#ffffff;"/>
   </g>
   <g id="PolyCollection_1">
    <defs>
     <path d="M 104.264193 -45.883636 
L 104.175807 -45.883636 
L 104.180259 -47.880331 
L 104.190564 -49.877025 
L 104.199543 -51.873719 
L 104.20089 -53.870413 
L 104.192077 -55.867107 
L 104.175129 -57.863802 
L 104.156219 -59.860496 
L 104.143443 -61.85719 
L 104.142768 -63.853884 
L 104.154603 -65.850579 
L 104.17375 -67.847273 
L 104.192901 -69.843967 
L 104.206963 -71.840661 
L 104.214884 -73.837355 
L 104.218323 -75.83405 
L 104.219278 -77.830744 
L 104.218608 -79.827438 
L 104.21548 -81.824132 
L 104.207156 -83.820826 
L 104.189332 -85.817521 
L 104.157901 -87.814215 
L 104.112712 -89.810909 
L 104.062028 -91.807603 
L 104.022816 -93.804298 
L 104.011225 -95.800992 
L 104.027507 -97.797686 
L 104.052145 -99.79438 
L 104.061786 -101.791074 
L 104.048917 -103.787769 
L 104.023867 -105.784463 
L 104.001114 -107.781157 
L 103.988859 -109.777851 
L 103.988952 -111.774545 
L 103.997647 -113.77124 
L 104.003568 -115.767934 
L 103.992044 -117.764628 
L 103.957725 -119.761322 
L 103.91249 -121.758017 
L 103.877945 -123.754711 
L 103.866497 -125.751405 
L 103.865945 -127.748099 
L 103.842761 -129.744793 
L 103.764052 -131.741488 
L 103.618675 -133.738182 
L 103.421468 -135.734876 
L 103.206511 -137.73157 
L 103.017067 -139.728264 
L 102.882844 -141.724959 
L 102.787314 -143.721653 
L 102.662426 -145.718347 
L 102.436398 -147.715041 
L 102.097235 -149.711736 
L 101.704124 -151.70843 
L 101.33063 -153.705124 
L 101.0009 -155.701818 
L 100.688798 -157.698512 
L 100.37574 -159.695207 
L 100.090657 -161.691901 
L 99.872132 -163.688595 
L 99.690513 -165.685289 
L 99.430602 -167.681983 
L 98.968027 -169.678678 
L 98.256723 -171.675372 
L 97.336787 -173.672066 
L 96.273026 -175.66876 
L 95.110181 -177.665455 
L 93.892245 -179.662149 
L 92.692252 -181.658843 
L 91.575666 -183.655537 
L 90.519129 -185.652231 
L 89.381605 -187.648926 
L 87.963224 -189.64562 
L 86.099527 -191.642314 
L 83.746575 -193.639008 
L 81.041717 -195.635702 
L 78.29788 -197.632397 
L 75.882936 -199.629091 
L 74.027703 -201.625785 
L 72.719414 -203.622479 
L 71.794679 -205.619174 
L 71.133174 -207.615868 
L 70.748241 -209.612562 
L 70.74 -211.609256 
L 71.245725 -213.60595 
L 72.434836 -215.602645 
L 74.454969 -217.599339 
L 77.301346 -219.596033 
L 80.734536 -221.592727 
L 84.361664 -223.589421 
L 87.825977 -225.586116 
L 90.93827 -227.58281 
L 93.662036 -229.579504 
L 96.018763 -231.576198 
L 98.023642 -233.572893 
L 99.681055 -235.569587 
L 101.002383 -237.566281 
L 102.01777 -239.562975 
L 102.775399 -241.559669 
L 103.327464 -243.556364 
L 105.112536 -243.556364 
L 105.112536 -243.556364 
L 105.664601 -241.559669 
L 106.42223 -239.562975 
L 107.437617 -237.566281 
L 108.758945 -235.569587 
L 110.416358 -233.572893 
L 112.421237 -231.576198 
L 114.777964 -229.579504 
L 117.50173 -227.58281 
L 120.614023 -225.586116 
L 124.078336 -223.589421 
L 127.705464 -221.592727 
L 131.138654 -219.596033 
L 133.985031 -217.599339 
L 136.005164 -215.602645 
L 137.194275 -213.60595 
L 137.7 -211.609256 
L 137.691759 -209.612562 
L 137.306826 -207.615868 
L 136.645321 -205.619174 
L 135.720586 -203.622479 
L 134.412297 -201.625785 
L 132.557064 -199.629091 
L 130.14212 -197.632397 
L 127.398283 -195.635702 
L 124.693425 -193.639008 
L 122.340473 -191.642314 
L 120.476776 -189.64562 
L 119.058395 -187.648926 
L 117.920871 -185.652231 
L 116.864334 -183.655537 
L 115.747748 -181.658843 
L 114.547755 -179.662149 
L 113.329819 -177.665455 
L 112.166974 -175.66876 
L 111.103213 -173.672066 
L 110.183277 -171.675372 
L 109.471973 -169.678678 
L 109.009398 -167.681983 
L 108.749487 -165.685289 
L 108.567868 -163.688595 
L 108.349343 -161.691901 
L 108.06426 -159.695207 
L 107.751202 -157.698512 
L 107.4391 -155.701818 
L 107.10937 -153.705124 
L 106.735876 -151.70843 
L 106.342765 -149.711736 
L 106.003602 -147.715041 
L 105.777574 -145.718347 
L 105.652686 -143.721653 
L 105.557156 -141.724959 
L 105.422933 -139.728264 
L 105.233489 -137.73157 
L 105.018532 -135.734876 
L 104.821325 -133.738182 
L 104.675948 -131.741488 
L 104.597239 -129.744793 
L 104.574055 -127.748099 
L 104.573503 -125.751405 
L 104.562055 -123.754711 
L 104.52751 -121.758017 
L 104.482275 -119.761322 
L 104.447956 -117.764628 
L 104.436432 -115.767934 
L 104.442353 -113.77124 
L 104.451048 -111.774545 
L 104.451141 -109.777851 
L 104.438886 -107.781157 
L 104.416133 -105.784463 
L 104.391083 -103.787769 
L 104.378214 -101.791074 
L 104.387855 -99.79438 
L 104.412493 -97.797686 
L 104.428775 -95.800992 
L 104.417184 -93.804298 
L 104.377972 -91.807603 
L 104.327288 -89.810909 
L 104.282099 -87.814215 
L 104.250668 -85.817521 
L 104.232844 -83.820826 
L 104.22452 -81.824132 
L 104.221392 -79.827438 
L 104.220722 -77.830744 
L 104.221677 -75.83405 
L 104.225116 -73.837355 
L 104.233037 -71.840661 
L 104.247099 -69.843967 
L 104.26625 -67.847273 
L 104.285397 -65.850579 
L 104.297232 -63.853884 
L 104.296557 -61.85719 
L 104.283781 -59.860496 
L 104.264871 -57.863802 
L 104.247923 -55.867107 
L 104.23911 -53.870413 
L 104.240457 -51.873719 
L 104.249436 -49.877025 
L 104.259741 -47.880331 
L 104.264193 -45.883636 
z
" id="mc05f9ec5e0" style="stroke:#3f3f3f;stroke-width:1.5;"/>
    </defs>
    <g clip-path="url(#p9235dd2903)">
     <use style="fill:#3274a1;stroke:#3f3f3f;stroke-width:1.5;" x="0" xlink:href="#mc05f9ec5e0" y="288"/>
    </g>
   </g>
   <g id="PolyCollection_2">
    <defs>
     <path d="M 338.66165 -81.816763 
L 338.49835 -81.816763 
L 338.501841 -83.399922 
L 338.514087 -84.983082 
L 338.529 -86.566242 
L 338.53965 -88.149402 
L 338.541144 -89.732562 
L 338.531694 -91.315721 
L 338.511957 -92.898881 
L 338.483714 -94.482041 
L 338.449006 -96.065201 
L 338.410215 -97.648361 
L 338.370857 -99.231521 
L 338.336064 -100.81468 
L 338.311583 -102.39784 
L 338.301086 -103.981 
L 338.303315 -105.56416 
L 338.311461 -107.14732 
L 338.315695 -108.730479 
L 338.307262 -110.313639 
L 338.281635 -111.896799 
L 338.239681 -113.479959 
L 338.186941 -115.063119 
L 338.131086 -116.646279 
L 338.078069 -118.229438 
L 338.029141 -119.812598 
L 337.981281 -121.395758 
L 337.930987 -122.978918 
L 337.878328 -124.562078 
L 337.827801 -126.145237 
L 337.785249 -127.728397 
L 337.753559 -129.311557 
L 337.731185 -130.894717 
L 337.714893 -132.477877 
L 337.703379 -134.061037 
L 337.696658 -135.644196 
L 337.690796 -137.227356 
L 337.673647 -138.810516 
L 337.627504 -140.393676 
L 337.53824 -141.976836 
L 337.404349 -143.559995 
L 337.239115 -145.143155 
L 337.064155 -146.726315 
L 336.898545 -148.309475 
L 336.750098 -149.892635 
L 336.612959 -151.475795 
L 336.471074 -153.058954 
L 336.304686 -154.642114 
L 336.097835 -156.225274 
L 335.845664 -157.808434 
L 335.558793 -159.391594 
L 335.260647 -160.974753 
L 334.976488 -162.557913 
L 334.719588 -164.141073 
L 334.483765 -165.724233 
L 334.247344 -167.307393 
L 333.984363 -168.890553 
L 333.673484 -170.473712 
L 333.298763 -172.056872 
L 332.845277 -173.640032 
L 332.297784 -175.223192 
L 331.646699 -176.806352 
L 330.896071 -178.389512 
L 330.063317 -179.972671 
L 329.167952 -181.555831 
L 328.219358 -183.138991 
L 327.215376 -184.722151 
L 326.150327 -186.305311 
L 325.020263 -187.88847 
L 323.819805 -189.47163 
L 322.538393 -191.05479 
L 321.164333 -192.63795 
L 319.693978 -194.22111 
L 318.13851 -195.80427 
L 316.526797 -197.387429 
L 314.905634 -198.970589 
L 313.332398 -200.553749 
L 311.85427 -202.136909 
L 310.483496 -203.720069 
L 309.194145 -205.303228 
L 307.956853 -206.886388 
L 306.794574 -208.469548 
L 305.816197 -210.052708 
L 305.195 -211.635868 
L 305.1 -213.219028 
L 305.625323 -214.802187 
L 306.764032 -216.385347 
L 308.437904 -217.968507 
L 310.553643 -219.551667 
L 313.042007 -221.134827 
L 315.856689 -222.717986 
L 318.943265 -224.301146 
L 322.207001 -225.884306 
L 325.501794 -227.467466 
L 328.644763 -229.050626 
L 331.449929 -230.633786 
L 333.770914 -232.216945 
L 335.537919 -233.800105 
L 336.771018 -235.383265 
L 337.561291 -236.966425 
L 338.030757 -238.549585 
L 339.129243 -238.549585 
L 339.129243 -238.549585 
L 339.598709 -236.966425 
L 340.388982 -235.383265 
L 341.622081 -233.800105 
L 343.389086 -232.216945 
L 345.710071 -230.633786 
L 348.515237 -229.050626 
L 351.658206 -227.467466 
L 354.952999 -225.884306 
L 358.216735 -224.301146 
L 361.303311 -222.717986 
L 364.117993 -221.134827 
L 366.606357 -219.551667 
L 368.722096 -217.968507 
L 370.395968 -216.385347 
L 371.534677 -214.802187 
L 372.06 -213.219028 
L 371.965 -211.635868 
L 371.343803 -210.052708 
L 370.365426 -208.469548 
L 369.203147 -206.886388 
L 367.965855 -205.303228 
L 366.676504 -203.720069 
L 365.30573 -202.136909 
L 363.827602 -200.553749 
L 362.254366 -198.970589 
L 360.633203 -197.387429 
L 359.02149 -195.80427 
L 357.466022 -194.22111 
L 355.995667 -192.63795 
L 354.621607 -191.05479 
L 353.340195 -189.47163 
L 352.139737 -187.88847 
L 351.009673 -186.305311 
L 349.944624 -184.722151 
L 348.940642 -183.138991 
L 347.992048 -181.555831 
L 347.096683 -179.972671 
L 346.263929 -178.389512 
L 345.513301 -176.806352 
L 344.862216 -175.223192 
L 344.314723 -173.640032 
L 343.861237 -172.056872 
L 343.486516 -170.473712 
L 343.175637 -168.890553 
L 342.912656 -167.307393 
L 342.676235 -165.724233 
L 342.440412 -164.141073 
L 342.183512 -162.557913 
L 341.899353 -160.974753 
L 341.601207 -159.391594 
L 341.314336 -157.808434 
L 341.062165 -156.225274 
L 340.855314 -154.642114 
L 340.688926 -153.058954 
L 340.547041 -151.475795 
L 340.409902 -149.892635 
L 340.261455 -148.309475 
L 340.095845 -146.726315 
L 339.920885 -145.143155 
L 339.755651 -143.559995 
L 339.62176 -141.976836 
L 339.532496 -140.393676 
L 339.486353 -138.810516 
L 339.469204 -137.227356 
L 339.463342 -135.644196 
L 339.456621 -134.061037 
L 339.445107 -132.477877 
L 339.428815 -130.894717 
L 339.406441 -129.311557 
L 339.374751 -127.728397 
L 339.332199 -126.145237 
L 339.281672 -124.562078 
L 339.229013 -122.978918 
L 339.178719 -121.395758 
L 339.130859 -119.812598 
L 339.081931 -118.229438 
L 339.028914 -116.646279 
L 338.973059 -115.063119 
L 338.920319 -113.479959 
L 338.878365 -111.896799 
L 338.852738 -110.313639 
L 338.844305 -108.730479 
L 338.848539 -107.14732 
L 338.856685 -105.56416 
L 338.858914 -103.981 
L 338.848417 -102.39784 
L 338.823936 -100.81468 
L 338.789143 -99.231521 
L 338.749785 -97.648361 
L 338.710994 -96.065201 
L 338.676286 -94.482041 
L 338.648043 -92.898881 
L 338.628306 -91.315721 
L 338.618856 -89.732562 
L 338.62035 -88.149402 
L 338.631 -86.566242 
L 338.645913 -84.983082 
L 338.658159 -83.399922 
L 338.66165 -81.816763 
z
" id="m1fe6176da3" style="stroke:#3f3f3f;stroke-width:1.5;"/>
    </defs>
    <g clip-path="url(#p9235dd2903)">
     <use style="fill:#e1812c;stroke:#3f3f3f;stroke-width:1.5;" x="0" xlink:href="#m1fe6176da3" y="288"/>
    </g>
   </g>
   <g id="patch_3">
    <path clip-path="url(#p9235dd2903)" d="M 137.7 -1.570637 
L 137.7 -1.570637 
L 137.7 -1.570637 
L 137.7 -1.570637 
z
" style="fill:#3274a1;stroke:#3f3f3f;stroke-linejoin:miter;stroke-width:0.75;"/>
   </g>
   <g id="patch_4">
    <path clip-path="url(#p9235dd2903)" d="M 137.7 -1.570637 
L 137.7 -1.570637 
L 137.7 -1.570637 
L 137.7 -1.570637 
z
" style="fill:#e1812c;stroke:#3f3f3f;stroke-linejoin:miter;stroke-width:0.75;"/>
   </g>
   <g id="matplotlib.axis_1">
    <g id="xtick_1">
     <g id="line2d_1">
      <defs>
       <path d="M 0 0 
L 0 3.5 
" id="maf05a92425" style="stroke:#000000;stroke-width:0.8;"/>
      </defs>
      <g>
       <use style="stroke:#000000;stroke-width:0.8;" x="137.7" xlink:href="#maf05a92425" y="252"/>
      </g>
     </g>
     <g id="text_1">
      <!-- Z_1_ns -->
      <g transform="translate(120.320312 266.320312)scale(0.1 -0.1)">
       <defs>
        <path d="M 5.609375 72.90625 
L 62.890625 72.90625 
L 62.890625 65.375 
L 16.796875 8.296875 
L 64.015625 8.296875 
L 64.015625 0 
L 4.5 0 
L 4.5 7.515625 
L 50.59375 64.59375 
L 5.609375 64.59375 
z
" id="DejaVuSans-90"/>
        <path d="M 50.984375 -16.609375 
L 50.984375 -23.578125 
L -0.984375 -23.578125 
L -0.984375 -16.609375 
z
" id="DejaVuSans-95"/>
        <path d="M 12.40625 8.296875 
L 28.515625 8.296875 
L 28.515625 63.921875 
L 10.984375 60.40625 
L 10.984375 69.390625 
L 28.421875 72.90625 
L 38.28125 72.90625 
L 38.28125 8.296875 
L 54.390625 8.296875 
L 54.390625 0 
L 12.40625 0 
z
" id="DejaVuSans-49"/>
        <path d="M 54.890625 33.015625 
L 54.890625 0 
L 45.90625 0 
L 45.90625 32.71875 
Q 45.90625 40.484375 42.875 44.328125 
Q 39.84375 48.1875 33.796875 48.1875 
Q 26.515625 48.1875 22.3125 43.546875 
Q 18.109375 38.921875 18.109375 30.90625 
L 18.109375 0 
L 9.078125 0 
L 9.078125 54.6875 
L 18.109375 54.6875 
L 18.109375 46.1875 
Q 21.34375 51.125 25.703125 53.5625 
Q 30.078125 56 35.796875 56 
Q 45.21875 56 50.046875 50.171875 
Q 54.890625 44.34375 54.890625 33.015625 
z
" id="DejaVuSans-110"/>
        <path d="M 44.28125 53.078125 
L 44.28125 44.578125 
Q 40.484375 46.53125 36.375 47.5 
Q 32.28125 48.484375 27.875 48.484375 
Q 21.1875 48.484375 17.84375 46.4375 
Q 14.5 44.390625 14.5 40.28125 
Q 14.5 37.15625 16.890625 35.375 
Q 19.28125 33.59375 26.515625 31.984375 
L 29.59375 31.296875 
Q 39.15625 29.25 43.1875 25.515625 
Q 47.21875 21.78125 47.21875 15.09375 
Q 47.21875 7.46875 41.1875 3.015625 
Q 35.15625 -1.421875 24.609375 -1.421875 
Q 20.21875 -1.421875 15.453125 -0.5625 
Q 10.6875 0.296875 5.421875 2 
L 5.421875 11.28125 
Q 10.40625 8.6875 15.234375 7.390625 
Q 20.0625 6.109375 24.8125 6.109375 
Q 31.15625 6.109375 34.5625 8.28125 
Q 37.984375 10.453125 37.984375 14.40625 
Q 37.984375 18.0625 35.515625 20.015625 
Q 33.0625 21.96875 24.703125 23.78125 
L 21.578125 24.515625 
Q 13.234375 26.265625 9.515625 29.90625 
Q 5.8125 33.546875 5.8125 39.890625 
Q 5.8125 47.609375 11.28125 51.796875 
Q 16.75 56 26.8125 56 
Q 31.78125 56 36.171875 55.265625 
Q 40.578125 54.546875 44.28125 53.078125 
z
" id="DejaVuSans-115"/>
       </defs>
       <use xlink:href="#DejaVuSans-90"/>
       <use x="68.505859" xlink:href="#DejaVuSans-95"/>
       <use x="118.505859" xlink:href="#DejaVuSans-49"/>
       <use x="182.128906" xlink:href="#DejaVuSans-95"/>
       <use x="232.128906" xlink:href="#DejaVuSans-110"/>
       <use x="295.507812" xlink:href="#DejaVuSans-115"/>
      </g>
     </g>
    </g>
    <g id="xtick_2">
     <g id="line2d_2">
      <g>
       <use style="stroke:#000000;stroke-width:0.8;" x="305.1" xlink:href="#maf05a92425" y="252"/>
      </g>
     </g>
     <g id="text_2">
      <!-- Z_3_ns -->
      <g transform="translate(287.720313 266.421875)scale(0.1 -0.1)">
       <defs>
        <path d="M 40.578125 39.3125 
Q 47.65625 37.796875 51.625 33 
Q 55.609375 28.21875 55.609375 21.1875 
Q 55.609375 10.40625 48.1875 4.484375 
Q 40.765625 -1.421875 27.09375 -1.421875 
Q 22.515625 -1.421875 17.65625 -0.515625 
Q 12.796875 0.390625 7.625 2.203125 
L 7.625 11.71875 
Q 11.71875 9.328125 16.59375 8.109375 
Q 21.484375 6.890625 26.8125 6.890625 
Q 36.078125 6.890625 40.9375 10.546875 
Q 45.796875 14.203125 45.796875 21.1875 
Q 45.796875 27.640625 41.28125 31.265625 
Q 36.765625 34.90625 28.71875 34.90625 
L 20.21875 34.90625 
L 20.21875 43.015625 
L 29.109375 43.015625 
Q 36.375 43.015625 40.234375 45.921875 
Q 44.09375 48.828125 44.09375 54.296875 
Q 44.09375 59.90625 40.109375 62.90625 
Q 36.140625 65.921875 28.71875 65.921875 
Q 24.65625 65.921875 20.015625 65.03125 
Q 15.375 64.15625 9.8125 62.3125 
L 9.8125 71.09375 
Q 15.4375 72.65625 20.34375 73.4375 
Q 25.25 74.21875 29.59375 74.21875 
Q 40.828125 74.21875 47.359375 69.109375 
Q 53.90625 64.015625 53.90625 55.328125 
Q 53.90625 49.265625 50.4375 45.09375 
Q 46.96875 40.921875 40.578125 39.3125 
z
" id="DejaVuSans-51"/>
       </defs>
       <use xlink:href="#DejaVuSans-90"/>
       <use x="68.505859" xlink:href="#DejaVuSans-95"/>
       <use x="118.505859" xlink:href="#DejaVuSans-51"/>
       <use x="182.128906" xlink:href="#DejaVuSans-95"/>
       <use x="232.128906" xlink:href="#DejaVuSans-110"/>
       <use x="295.507812" xlink:href="#DejaVuSans-115"/>
      </g>
     </g>
    </g>
    <g id="text_3">
     <!-- set -->
     <g transform="translate(213.758594 280.378125)scale(0.1 -0.1)">
      <defs>
       <path d="M 56.203125 29.59375 
L 56.203125 25.203125 
L 14.890625 25.203125 
Q 15.484375 15.921875 20.484375 11.0625 
Q 25.484375 6.203125 34.421875 6.203125 
Q 39.59375 6.203125 44.453125 7.46875 
Q 49.3125 8.734375 54.109375 11.28125 
L 54.109375 2.78125 
Q 49.265625 0.734375 44.1875 -0.34375 
Q 39.109375 -1.421875 33.890625 -1.421875 
Q 20.796875 -1.421875 13.15625 6.1875 
Q 5.515625 13.8125 5.515625 26.8125 
Q 5.515625 40.234375 12.765625 48.109375 
Q 20.015625 56 32.328125 56 
Q 43.359375 56 49.78125 48.890625 
Q 56.203125 41.796875 56.203125 29.59375 
z
M 47.21875 32.234375 
Q 47.125 39.59375 43.09375 43.984375 
Q 39.0625 48.390625 32.421875 48.390625 
Q 24.90625 48.390625 20.390625 44.140625 
Q 15.875 39.890625 15.1875 32.171875 
z
" id="DejaVuSans-101"/>
       <path d="M 18.3125 70.21875 
L 18.3125 54.6875 
L 36.8125 54.6875 
L 36.8125 47.703125 
L 18.3125 47.703125 
L 18.3125 18.015625 
Q 18.3125 11.328125 20.140625 9.421875 
Q 21.96875 7.515625 27.59375 7.515625 
L 36.8125 7.515625 
L 36.8125 0 
L 27.59375 0 
Q 17.1875 0 13.234375 3.875 
Q 9.28125 7.765625 9.28125 18.015625 
L 9.28125 47.703125 
L 2.6875 47.703125 
L 2.6875 54.6875 
L 9.28125 54.6875 
L 9.28125 70.21875 
z
" id="DejaVuSans-116"/>
      </defs>
      <use xlink:href="#DejaVuSans-115"/>
      <use x="52.099609" xlink:href="#DejaVuSans-101"/>
      <use x="113.623047" xlink:href="#DejaVuSans-116"/>
     </g>
    </g>
   </g>
   <g id="matplotlib.axis_2">
    <g id="ytick_1">
     <g id="line2d_3">
      <defs>
       <path d="M 0 0 
L -3.5 0 
" id="m6a9bb4b0b9" style="stroke:#000000;stroke-width:0.8;"/>
      </defs>
      <g>
       <use style="stroke:#000000;stroke-width:0.8;" x="54" xlink:href="#m6a9bb4b0b9" y="240.561993"/>
      </g>
     </g>
     <g id="text_4">
      <!-- −120 -->
      <g transform="translate(19.532812 244.361212)scale(0.1 -0.1)">
       <defs>
        <path d="M 10.59375 35.5 
L 73.1875 35.5 
L 73.1875 27.203125 
L 10.59375 27.203125 
z
" id="DejaVuSans-8722"/>
        <path d="M 19.1875 8.296875 
L 53.609375 8.296875 
L 53.609375 0 
L 7.328125 0 
L 7.328125 8.296875 
Q 12.9375 14.109375 22.625 23.890625 
Q 32.328125 33.6875 34.8125 36.53125 
Q 39.546875 41.84375 41.421875 45.53125 
Q 43.3125 49.21875 43.3125 52.78125 
Q 43.3125 58.59375 39.234375 62.25 
Q 35.15625 65.921875 28.609375 65.921875 
Q 23.96875 65.921875 18.8125 64.3125 
Q 13.671875 62.703125 7.8125 59.421875 
L 7.8125 69.390625 
Q 13.765625 71.78125 18.9375 73 
Q 24.125 74.21875 28.421875 74.21875 
Q 39.75 74.21875 46.484375 68.546875 
Q 53.21875 62.890625 53.21875 53.421875 
Q 53.21875 48.921875 51.53125 44.890625 
Q 49.859375 40.875 45.40625 35.40625 
Q 44.1875 33.984375 37.640625 27.21875 
Q 31.109375 20.453125 19.1875 8.296875 
z
" id="DejaVuSans-50"/>
        <path d="M 31.78125 66.40625 
Q 24.171875 66.40625 20.328125 58.90625 
Q 16.5 51.421875 16.5 36.375 
Q 16.5 21.390625 20.328125 13.890625 
Q 24.171875 6.390625 31.78125 6.390625 
Q 39.453125 6.390625 43.28125 13.890625 
Q 47.125 21.390625 47.125 36.375 
Q 47.125 51.421875 43.28125 58.90625 
Q 39.453125 66.40625 31.78125 66.40625 
z
M 31.78125 74.21875 
Q 44.046875 74.21875 50.515625 64.515625 
Q 56.984375 54.828125 56.984375 36.375 
Q 56.984375 17.96875 50.515625 8.265625 
Q 44.046875 -1.421875 31.78125 -1.421875 
Q 19.53125 -1.421875 13.0625 8.265625 
Q 6.59375 17.96875 6.59375 36.375 
Q 6.59375 54.828125 13.0625 64.515625 
Q 19.53125 74.21875 31.78125 74.21875 
z
" id="DejaVuSans-48"/>
       </defs>
       <use xlink:href="#DejaVuSans-8722"/>
       <use x="83.789062" xlink:href="#DejaVuSans-49"/>
       <use x="147.412109" xlink:href="#DejaVuSans-50"/>
       <use x="211.035156" xlink:href="#DejaVuSans-48"/>
      </g>
     </g>
    </g>
    <g id="ytick_2">
     <g id="line2d_4">
      <g>
       <use style="stroke:#000000;stroke-width:0.8;" x="54" xlink:href="#m6a9bb4b0b9" y="200.206555"/>
      </g>
     </g>
     <g id="text_5">
      <!-- −100 -->
      <g transform="translate(19.532812 204.005774)scale(0.1 -0.1)">
       <use xlink:href="#DejaVuSans-8722"/>
       <use x="83.789062" xlink:href="#DejaVuSans-49"/>
       <use x="147.412109" xlink:href="#DejaVuSans-48"/>
       <use x="211.035156" xlink:href="#DejaVuSans-48"/>
      </g>
     </g>
    </g>
    <g id="ytick_3">
     <g id="line2d_5">
      <g>
       <use style="stroke:#000000;stroke-width:0.8;" x="54" xlink:href="#m6a9bb4b0b9" y="159.851117"/>
      </g>
     </g>
     <g id="text_6">
      <!-- −80 -->
      <g transform="translate(25.895312 163.650335)scale(0.1 -0.1)">
       <defs>
        <path d="M 31.78125 34.625 
Q 24.75 34.625 20.71875 30.859375 
Q 16.703125 27.09375 16.703125 20.515625 
Q 16.703125 13.921875 20.71875 10.15625 
Q 24.75 6.390625 31.78125 6.390625 
Q 38.8125 6.390625 42.859375 10.171875 
Q 46.921875 13.96875 46.921875 20.515625 
Q 46.921875 27.09375 42.890625 30.859375 
Q 38.875 34.625 31.78125 34.625 
z
M 21.921875 38.8125 
Q 15.578125 40.375 12.03125 44.71875 
Q 8.5 49.078125 8.5 55.328125 
Q 8.5 64.0625 14.71875 69.140625 
Q 20.953125 74.21875 31.78125 74.21875 
Q 42.671875 74.21875 48.875 69.140625 
Q 55.078125 64.0625 55.078125 55.328125 
Q 55.078125 49.078125 51.53125 44.71875 
Q 48 40.375 41.703125 38.8125 
Q 48.828125 37.15625 52.796875 32.3125 
Q 56.78125 27.484375 56.78125 20.515625 
Q 56.78125 9.90625 50.3125 4.234375 
Q 43.84375 -1.421875 31.78125 -1.421875 
Q 19.734375 -1.421875 13.25 4.234375 
Q 6.78125 9.90625 6.78125 20.515625 
Q 6.78125 27.484375 10.78125 32.3125 
Q 14.796875 37.15625 21.921875 38.8125 
z
M 18.3125 54.390625 
Q 18.3125 48.734375 21.84375 45.5625 
Q 25.390625 42.390625 31.78125 42.390625 
Q 38.140625 42.390625 41.71875 45.5625 
Q 45.3125 48.734375 45.3125 54.390625 
Q 45.3125 60.0625 41.71875 63.234375 
Q 38.140625 66.40625 31.78125 66.40625 
Q 25.390625 66.40625 21.84375 63.234375 
Q 18.3125 60.0625 18.3125 54.390625 
z
" id="DejaVuSans-56"/>
       </defs>
       <use xlink:href="#DejaVuSans-8722"/>
       <use x="83.789062" xlink:href="#DejaVuSans-56"/>
       <use x="147.412109" xlink:href="#DejaVuSans-48"/>
      </g>
     </g>
    </g>
    <g id="ytick_4">
     <g id="line2d_6">
      <g>
       <use style="stroke:#000000;stroke-width:0.8;" x="54" xlink:href="#m6a9bb4b0b9" y="119.495678"/>
      </g>
     </g>
     <g id="text_7">
      <!-- −60 -->
      <g transform="translate(25.895312 123.294897)scale(0.1 -0.1)">
       <defs>
        <path d="M 33.015625 40.375 
Q 26.375 40.375 22.484375 35.828125 
Q 18.609375 31.296875 18.609375 23.390625 
Q 18.609375 15.53125 22.484375 10.953125 
Q 26.375 6.390625 33.015625 6.390625 
Q 39.65625 6.390625 43.53125 10.953125 
Q 47.40625 15.53125 47.40625 23.390625 
Q 47.40625 31.296875 43.53125 35.828125 
Q 39.65625 40.375 33.015625 40.375 
z
M 52.59375 71.296875 
L 52.59375 62.3125 
Q 48.875 64.0625 45.09375 64.984375 
Q 41.3125 65.921875 37.59375 65.921875 
Q 27.828125 65.921875 22.671875 59.328125 
Q 17.53125 52.734375 16.796875 39.40625 
Q 19.671875 43.65625 24.015625 45.921875 
Q 28.375 48.1875 33.59375 48.1875 
Q 44.578125 48.1875 50.953125 41.515625 
Q 57.328125 34.859375 57.328125 23.390625 
Q 57.328125 12.15625 50.6875 5.359375 
Q 44.046875 -1.421875 33.015625 -1.421875 
Q 20.359375 -1.421875 13.671875 8.265625 
Q 6.984375 17.96875 6.984375 36.375 
Q 6.984375 53.65625 15.1875 63.9375 
Q 23.390625 74.21875 37.203125 74.21875 
Q 40.921875 74.21875 44.703125 73.484375 
Q 48.484375 72.75 52.59375 71.296875 
z
" id="DejaVuSans-54"/>
       </defs>
       <use xlink:href="#DejaVuSans-8722"/>
       <use x="83.789062" xlink:href="#DejaVuSans-54"/>
       <use x="147.412109" xlink:href="#DejaVuSans-48"/>
      </g>
     </g>
    </g>
    <g id="ytick_5">
     <g id="line2d_7">
      <g>
       <use style="stroke:#000000;stroke-width:0.8;" x="54" xlink:href="#m6a9bb4b0b9" y="79.14024"/>
      </g>
     </g>
     <g id="text_8">
      <!-- −40 -->
      <g transform="translate(25.895312 82.939459)scale(0.1 -0.1)">
       <defs>
        <path d="M 37.796875 64.3125 
L 12.890625 25.390625 
L 37.796875 25.390625 
z
M 35.203125 72.90625 
L 47.609375 72.90625 
L 47.609375 25.390625 
L 58.015625 25.390625 
L 58.015625 17.1875 
L 47.609375 17.1875 
L 47.609375 0 
L 37.796875 0 
L 37.796875 17.1875 
L 4.890625 17.1875 
L 4.890625 26.703125 
z
" id="DejaVuSans-52"/>
       </defs>
       <use xlink:href="#DejaVuSans-8722"/>
       <use x="83.789062" xlink:href="#DejaVuSans-52"/>
       <use x="147.412109" xlink:href="#DejaVuSans-48"/>
      </g>
     </g>
    </g>
    <g id="ytick_6">
     <g id="line2d_8">
      <g>
       <use style="stroke:#000000;stroke-width:0.8;" x="54" xlink:href="#m6a9bb4b0b9" y="38.784802"/>
      </g>
     </g>
     <g id="text_9">
      <!-- −20 -->
      <g transform="translate(25.895312 42.58402)scale(0.1 -0.1)">
       <use xlink:href="#DejaVuSans-8722"/>
       <use x="83.789062" xlink:href="#DejaVuSans-50"/>
       <use x="147.412109" xlink:href="#DejaVuSans-48"/>
      </g>
     </g>
    </g>
    <g id="text_10">
     <!-- value -->
     <g transform="translate(13.453125 156.937813)rotate(-90)scale(0.1 -0.1)">
      <defs>
       <path d="M 2.984375 54.6875 
L 12.5 54.6875 
L 29.59375 8.796875 
L 46.6875 54.6875 
L 56.203125 54.6875 
L 35.6875 0 
L 23.484375 0 
z
" id="DejaVuSans-118"/>
       <path d="M 34.28125 27.484375 
Q 23.390625 27.484375 19.1875 25 
Q 14.984375 22.515625 14.984375 16.5 
Q 14.984375 11.71875 18.140625 8.90625 
Q 21.296875 6.109375 26.703125 6.109375 
Q 34.1875 6.109375 38.703125 11.40625 
Q 43.21875 16.703125 43.21875 25.484375 
L 43.21875 27.484375 
z
M 52.203125 31.203125 
L 52.203125 0 
L 43.21875 0 
L 43.21875 8.296875 
Q 40.140625 3.328125 35.546875 0.953125 
Q 30.953125 -1.421875 24.3125 -1.421875 
Q 15.921875 -1.421875 10.953125 3.296875 
Q 6 8.015625 6 15.921875 
Q 6 25.140625 12.171875 29.828125 
Q 18.359375 34.515625 30.609375 34.515625 
L 43.21875 34.515625 
L 43.21875 35.40625 
Q 43.21875 41.609375 39.140625 45 
Q 35.0625 48.390625 27.6875 48.390625 
Q 23 48.390625 18.546875 47.265625 
Q 14.109375 46.140625 10.015625 43.890625 
L 10.015625 52.203125 
Q 14.9375 54.109375 19.578125 55.046875 
Q 24.21875 56 28.609375 56 
Q 40.484375 56 46.34375 49.84375 
Q 52.203125 43.703125 52.203125 31.203125 
z
" id="DejaVuSans-97"/>
       <path d="M 9.421875 75.984375 
L 18.40625 75.984375 
L 18.40625 0 
L 9.421875 0 
z
" id="DejaVuSans-108"/>
       <path d="M 8.5 21.578125 
L 8.5 54.6875 
L 17.484375 54.6875 
L 17.484375 21.921875 
Q 17.484375 14.15625 20.5 10.265625 
Q 23.53125 6.390625 29.59375 6.390625 
Q 36.859375 6.390625 41.078125 11.03125 
Q 45.3125 15.671875 45.3125 23.6875 
L 45.3125 54.6875 
L 54.296875 54.6875 
L 54.296875 0 
L 45.3125 0 
L 45.3125 8.40625 
Q 42.046875 3.421875 37.71875 1 
Q 33.40625 -1.421875 27.6875 -1.421875 
Q 18.265625 -1.421875 13.375 4.4375 
Q 8.5 10.296875 8.5 21.578125 
z
M 31.109375 56 
z
" id="DejaVuSans-117"/>
      </defs>
      <use xlink:href="#DejaVuSans-118"/>
      <use x="59.179688" xlink:href="#DejaVuSans-97"/>
      <use x="120.458984" xlink:href="#DejaVuSans-108"/>
      <use x="148.242188" xlink:href="#DejaVuSans-117"/>
      <use x="211.621094" xlink:href="#DejaVuSans-101"/>
     </g>
    </g>
   </g>
   <g id="line2d_9">
    <path clip-path="url(#p9235dd2903)" d="M 104.22 130.151497 
L 104.22 44.443636 
" style="fill:none;stroke:#3f3f3f;stroke-linecap:square;stroke-width:1.5;"/>
   </g>
   <g id="line2d_10">
    <path clip-path="url(#p9235dd2903)" d="M 104.22 95.425737 
L 104.22 72.200778 
" style="fill:none;stroke:#3f3f3f;stroke-linecap:square;stroke-width:4.5;"/>
   </g>
   <g id="line2d_11">
    <path clip-path="url(#p9235dd2903)" d="M 338.58 128.862295 
L 338.58 49.450415 
" style="fill:none;stroke:#3f3f3f;stroke-linecap:square;stroke-width:1.5;"/>
   </g>
   <g id="line2d_12">
    <path clip-path="url(#p9235dd2903)" d="M 338.58 94.831683 
L 338.58 72.130421 
" style="fill:none;stroke:#3f3f3f;stroke-linecap:square;stroke-width:4.5;"/>
   </g>
   <g id="patch_5">
    <path d="M 54 252 
L 54 34.56 
" style="fill:none;stroke:#000000;stroke-linecap:square;stroke-linejoin:miter;stroke-width:0.8;"/>
   </g>
   <g id="patch_6">
    <path d="M 388.8 252 
L 388.8 34.56 
" style="fill:none;stroke:#000000;stroke-linecap:square;stroke-linejoin:miter;stroke-width:0.8;"/>
   </g>
   <g id="patch_7">
    <path d="M 54 252 
L 388.8 252 
" style="fill:none;stroke:#000000;stroke-linecap:square;stroke-linejoin:miter;stroke-width:0.8;"/>
   </g>
   <g id="patch_8">
    <path d="M 54 34.56 
L 388.8 34.56 
" style="fill:none;stroke:#000000;stroke-linecap:square;stroke-linejoin:miter;stroke-width:0.8;"/>
   </g>
   <g id="PathCollection_1">
    <defs>
     <path d="M 0 1.5 
C 0.397805 1.5 0.77937 1.341951 1.06066 1.06066 
C 1.341951 0.77937 1.5 0.397805 1.5 0 
C 1.5 -0.397805 1.341951 -0.77937 1.06066 -1.06066 
C 0.77937 -1.341951 0.397805 -1.5 0 -1.5 
C -0.397805 -1.5 -0.77937 -1.341951 -1.06066 -1.06066 
C -1.341951 -0.77937 -1.5 -0.397805 -1.5 0 
C -1.5 0.397805 -1.341951 0.77937 -1.06066 1.06066 
C -0.77937 1.341951 -0.397805 1.5 0 1.5 
z
" id="m76c781a1fb" style="stroke:#3f3f3f;"/>
    </defs>
    <g clip-path="url(#p9235dd2903)">
     <use style="fill:#ffffff;stroke:#3f3f3f;" x="104.22" xlink:href="#m76c781a1fb" y="82.567421"/>
    </g>
   </g>
   <g id="PathCollection_2">
    <g clip-path="url(#p9235dd2903)">
     <use style="fill:#ffffff;stroke:#3f3f3f;" x="338.58" xlink:href="#m76c781a1fb" y="81.655904"/>
    </g>
   </g>
   <g id="legend_1">
    <g id="patch_9">
     <path d="M 61 247 
L 127.759375 247 
Q 129.759375 247 129.759375 245 
L 129.759375 201.409375 
Q 129.759375 199.409375 127.759375 199.409375 
L 61 199.409375 
Q 59 199.409375 59 201.409375 
L 59 245 
Q 59 247 61 247 
z
" style="fill:#ffffff;opacity:0.8;stroke:#cccccc;stroke-linejoin:miter;"/>
    </g>
    <g id="text_11">
     <!-- set -->
     <g transform="translate(86.738281 211.007812)scale(0.1 -0.1)">
      <use xlink:href="#DejaVuSans-115"/>
      <use x="52.099609" xlink:href="#DejaVuSans-101"/>
      <use x="113.623047" xlink:href="#DejaVuSans-116"/>
     </g>
    </g>
    <g id="patch_10">
     <path d="M 63 225.685937 
L 83 225.685937 
L 83 218.685937 
L 63 218.685937 
z
" style="fill:#3274a1;stroke:#3f3f3f;stroke-linejoin:miter;stroke-width:0.75;"/>
    </g>
    <g id="text_12">
     <!-- Z_1_ns -->
     <g transform="translate(91 225.685937)scale(0.1 -0.1)">
      <use xlink:href="#DejaVuSans-90"/>
      <use x="68.505859" xlink:href="#DejaVuSans-95"/>
      <use x="118.505859" xlink:href="#DejaVuSans-49"/>
      <use x="182.128906" xlink:href="#DejaVuSans-95"/>
      <use x="232.128906" xlink:href="#DejaVuSans-110"/>
      <use x="295.507812" xlink:href="#DejaVuSans-115"/>
     </g>
    </g>
    <g id="patch_11">
     <path d="M 63 240.642188 
L 83 240.642188 
L 83 233.642188 
L 63 233.642188 
z
" style="fill:#e1812c;stroke:#3f3f3f;stroke-linejoin:miter;stroke-width:0.75;"/>
    </g>
    <g id="text_13">
     <!-- Z_3_ns -->
     <g transform="translate(91 240.642188)scale(0.1 -0.1)">
      <use xlink:href="#DejaVuSans-90"/>
      <use x="68.505859" xlink:href="#DejaVuSans-95"/>
      <use x="118.505859" xlink:href="#DejaVuSans-51"/>
      <use x="182.128906" xlink:href="#DejaVuSans-95"/>
      <use x="232.128906" xlink:href="#DejaVuSans-110"/>
      <use x="295.507812" xlink:href="#DejaVuSans-115"/>
     </g>
    </g>
   </g>
  </g>
 </g>
 <defs>
  <clipPath id="p9235dd2903">
   <rect height="217.44" width="334.8" x="54" y="34.56"/>
  </clipPath>
 </defs>
</svg>
