<?xml version="1.0" encoding="utf-8" standalone="no"?>
<!DOCTYPE svg PUBLIC "-//W3C//DTD SVG 1.1//EN"
  "http://www.w3.org/Graphics/SVG/1.1/DTD/svg11.dtd">
<!-- Created with matplotlib (https://matplotlib.org/) -->
<svg height="288pt" version="1.1" viewBox="0 0 432 288" width="432pt" xmlns="http://www.w3.org/2000/svg" xmlns:xlink="http://www.w3.org/1999/xlink">
 <metadata>
  <rdf:RDF xmlns:cc="http://creativecommons.org/ns#" xmlns:dc="http://purl.org/dc/elements/1.1/" xmlns:rdf="http://www.w3.org/1999/02/22-rdf-syntax-ns#">
   <cc:Work>
    <dc:type rdf:resource="http://purl.org/dc/dcmitype/StillImage"/>
    <dc:date>2022-04-14T11:43:58.083160</dc:date>
    <dc:format>image/svg+xml</dc:format>
    <dc:creator>
     <cc:Agent>
      <dc:title>Matplotlib v3.3.4, https://matplotlib.org/</dc:title>
     </cc:Agent>
    </dc:creator>
   </cc:Work>
  </rdf:RDF>
 </metadata>
 <defs>
  <style type="text/css">*{stroke-linecap:butt;stroke-linejoin:round;}</style>
 </defs>
 <g id="figure_1">
  <g id="patch_1">
   <path d="M 0 288 
L 432 288 
L 432 0 
L 0 0 
z
" style="fill:#ffffff;"/>
  </g>
  <g id="axes_1">
   <g id="patch_2">
    <path d="M 54 252 
L 388.8 252 
L 388.8 34.56 
L 54 34.56 
z
" style="fill:#ffffff;"/>
   </g>
   <g id="PolyCollection_1">
    <defs>
     <path d="M 80.062093 -45.883636 
L 80.017907 -45.883636 
L 80.01695 -47.814905 
L 80.016977 -49.746174 
L 80.016781 -51.677443 
L 80.015978 -53.608712 
L 80.015131 -55.539981 
L 80.014849 -57.47125 
L 80.01504 -59.402519 
L 80.015243 -61.333788 
L 80.015509 -63.265057 
L 80.016557 -65.196326 
L 80.018892 -67.127595 
L 80.021878 -69.058864 
L 80.023888 -70.990133 
L 80.023414 -72.921403 
L 80.020047 -74.852672 
L 80.014402 -76.783941 
L 80.007079 -78.71521 
L 79.997737 -80.646479 
L 79.985326 -82.577748 
L 79.969409 -84.509017 
L 79.95132 -86.440286 
L 79.933934 -88.371555 
L 79.920185 -90.302824 
L 79.911678 -92.234093 
L 79.908533 -94.165362 
L 79.910319 -96.096631 
L 79.916879 -98.0279 
L 79.928121 -99.959169 
L 79.94291 -101.890438 
L 79.958012 -103.821707 
L 79.967978 -105.752976 
L 79.966282 -107.684245 
L 79.947313 -109.615514 
L 79.908408 -111.546783 
L 79.851024 -113.478052 
L 79.78046 -115.409321 
L 79.704202 -117.34059 
L 79.629968 -119.271859 
L 79.564649 -121.203128 
L 79.513807 -123.134397 
L 79.48016 -125.065666 
L 79.461086 -126.996935 
L 79.447881 -128.928204 
L 79.429031 -130.859473 
L 79.395622 -132.790742 
L 79.343996 -134.722011 
L 79.273095 -136.65328 
L 79.179879 -138.584549 
L 79.05889 -140.515818 
L 78.907297 -142.447087 
L 78.729695 -144.378356 
L 78.536464 -146.309625 
L 78.336725 -148.240894 
L 78.133285 -150.172163 
L 77.924918 -152.103432 
L 77.71309 -154.034701 
L 77.504873 -155.96597 
L 77.307478 -157.897239 
L 77.119354 -159.828508 
L 76.927858 -161.759777 
L 76.717861 -163.691046 
L 76.483453 -165.622315 
L 76.228784 -167.553584 
L 75.953901 -169.484853 
L 75.640282 -171.416122 
L 75.255794 -173.347391 
L 74.778258 -175.27866 
L 74.213286 -177.209929 
L 73.587666 -179.141198 
L 72.929481 -181.072467 
L 72.260687 -183.003736 
L 71.607583 -184.935005 
L 71.007452 -186.866274 
L 70.492991 -188.797543 
L 70.06593 -190.728812 
L 69.689007 -192.660081 
L 69.309029 -194.59135 
L 68.892511 -196.522619 
L 68.443751 -198.453888 
L 67.992709 -200.385157 
L 67.566405 -202.316426 
L 67.167517 -204.247695 
L 66.773704 -206.178964 
L 66.356564 -208.110233 
L 65.911633 -210.041502 
L 65.486525 -211.972771 
L 65.188949 -213.90404 
L 65.16 -215.835309 
L 65.520217 -217.766578 
L 66.321358 -219.697847 
L 67.534923 -221.629116 
L 69.075358 -223.560385 
L 70.828439 -225.491654 
L 72.664841 -227.422923 
L 74.447174 -229.354192 
L 76.046904 -231.285461 
L 77.370185 -233.21673 
L 78.376604 -235.147999 
L 79.07922 -237.079268 
L 81.00078 -237.079268 
L 81.00078 -237.079268 
L 81.703396 -235.147999 
L 82.709815 -233.21673 
L 84.033096 -231.285461 
L 85.632826 -229.354192 
L 87.415159 -227.422923 
L 89.251561 -225.491654 
L 91.004642 -223.560385 
L 92.545077 -221.629116 
L 93.758642 -219.697847 
L 94.559783 -217.766578 
L 94.92 -215.835309 
L 94.891051 -213.90404 
L 94.593475 -211.972771 
L 94.168367 -210.041502 
L 93.723436 -208.110233 
L 93.306296 -206.178964 
L 92.912483 -204.247695 
L 92.513595 -202.316426 
L 92.087291 -200.385157 
L 91.636249 -198.453888 
L 91.187489 -196.522619 
L 90.770971 -194.59135 
L 90.390993 -192.660081 
L 90.01407 -190.728812 
L 89.587009 -188.797543 
L 89.072548 -186.866274 
L 88.472417 -184.935005 
L 87.819313 -183.003736 
L 87.150519 -181.072467 
L 86.492334 -179.141198 
L 85.866714 -177.209929 
L 85.301742 -175.27866 
L 84.824206 -173.347391 
L 84.439718 -171.416122 
L 84.126099 -169.484853 
L 83.851216 -167.553584 
L 83.596547 -165.622315 
L 83.362139 -163.691046 
L 83.152142 -161.759777 
L 82.960646 -159.828508 
L 82.772522 -157.897239 
L 82.575127 -155.96597 
L 82.36691 -154.034701 
L 82.155082 -152.103432 
L 81.946715 -150.172163 
L 81.743275 -148.240894 
L 81.543536 -146.309625 
L 81.350305 -144.378356 
L 81.172703 -142.447087 
L 81.02111 -140.515818 
L 80.900121 -138.584549 
L 80.806905 -136.65328 
L 80.736004 -134.722011 
L 80.684378 -132.790742 
L 80.650969 -130.859473 
L 80.632119 -128.928204 
L 80.618914 -126.996935 
L 80.59984 -125.065666 
L 80.566193 -123.134397 
L 80.515351 -121.203128 
L 80.450032 -119.271859 
L 80.375798 -117.34059 
L 80.29954 -115.409321 
L 80.228976 -113.478052 
L 80.171592 -111.546783 
L 80.132687 -109.615514 
L 80.113718 -107.684245 
L 80.112022 -105.752976 
L 80.121988 -103.821707 
L 80.13709 -101.890438 
L 80.151879 -99.959169 
L 80.163121 -98.0279 
L 80.169681 -96.096631 
L 80.171467 -94.165362 
L 80.168322 -92.234093 
L 80.159815 -90.302824 
L 80.146066 -88.371555 
L 80.12868 -86.440286 
L 80.110591 -84.509017 
L 80.094674 -82.577748 
L 80.082263 -80.646479 
L 80.072921 -78.71521 
L 80.065598 -76.783941 
L 80.059953 -74.852672 
L 80.056586 -72.921403 
L 80.056112 -70.990133 
L 80.058122 -69.058864 
L 80.061108 -67.127595 
L 80.063443 -65.196326 
L 80.064491 -63.265057 
L 80.064757 -61.333788 
L 80.06496 -59.402519 
L 80.065151 -57.47125 
L 80.064869 -55.539981 
L 80.064022 -53.608712 
L 80.063219 -51.677443 
L 80.063023 -49.746174 
L 80.06305 -47.814905 
L 80.062093 -45.883636 
z
" id="m1b7ab8c234" style="stroke:#3d3d3d;stroke-width:1.5;"/>
    </defs>
    <g clip-path="url(#p3ee8525bfa)">
     <use style="fill:#3274a1;stroke:#3d3d3d;stroke-width:1.5;" x="0" xlink:href="#m1b7ab8c234" y="288"/>
    </g>
   </g>
   <g id="PolyCollection_2">
    <defs>
     <path d="M 221.470779 -82.392591 
L 221.329221 -82.392591 
L 221.325557 -83.980219 
L 221.328464 -85.567847 
L 221.337129 -87.155474 
L 221.349282 -88.743102 
L 221.361953 -90.33073 
L 221.372314 -91.918358 
L 221.378226 -93.505986 
L 221.378443 -95.093614 
L 221.372649 -96.681241 
L 221.36154 -98.268869 
L 221.346908 -99.856497 
L 221.331426 -101.444125 
L 221.317884 -103.031753 
L 221.308064 -104.619381 
L 221.301887 -106.207008 
L 221.297507 -107.794636 
L 221.29243 -109.382264 
L 221.284987 -110.969892 
L 221.275194 -112.55752 
L 221.264517 -114.145148 
L 221.254842 -115.732775 
L 221.24743 -117.320403 
L 221.242463 -118.908031 
L 221.23931 -120.495659 
L 221.23723 -122.083287 
L 221.236017 -123.670915 
L 221.236172 -125.258542 
L 221.238448 -126.84617 
L 221.243069 -128.433798 
L 221.24924 -130.021426 
L 221.255414 -131.609054 
L 221.260214 -133.196681 
L 221.263334 -134.784309 
L 221.265681 -136.371937 
L 221.268598 -137.959565 
L 221.272653 -139.547193 
L 221.276792 -141.134821 
L 221.278356 -142.722448 
L 221.273855 -144.310076 
L 221.259987 -145.897704 
L 221.234396 -147.485332 
L 221.196002 -149.07296 
L 221.145058 -150.660588 
L 221.083075 -152.248215 
L 221.012541 -153.835843 
L 220.936284 -155.423471 
L 220.856479 -157.011099 
L 220.773714 -158.598727 
L 220.686738 -160.186355 
L 220.593217 -161.773982 
L 220.491213 -163.36161 
L 220.380555 -164.949238 
L 220.26337 -166.536866 
L 220.143816 -168.124494 
L 220.027636 -169.712122 
L 219.922011 -171.299749 
L 219.835114 -172.887377 
L 219.774044 -174.475005 
L 219.74054 -176.062633 
L 219.726086 -177.650261 
L 219.709917 -179.237889 
L 219.662888 -180.825516 
L 219.556892 -182.413144 
L 219.375591 -184.000772 
L 219.120733 -185.5884 
L 218.810454 -187.176028 
L 218.470341 -188.763656 
L 218.121821 -190.351283 
L 217.773517 -191.938911 
L 217.41916 -193.526539 
L 217.0419 -195.114167 
L 216.621657 -196.701795 
L 216.1413 -198.289423 
L 215.589372 -199.87705 
L 214.959918 -201.464678 
L 214.251559 -203.052306 
L 213.46726 -204.639934 
L 212.614746 -206.227562 
L 211.70703 -207.815189 
L 210.763251 -209.402817 
L 209.810376 -210.990445 
L 208.885372 -212.578073 
L 208.03605 -214.165701 
L 207.318952 -215.753329 
L 206.794363 -217.340956 
L 206.52 -218.928584 
L 206.544379 -220.516212 
L 206.899485 -222.10384 
L 207.592588 -223.691468 
L 208.599375 -225.279096 
L 209.862414 -226.866723 
L 211.297873 -228.454351 
L 212.80947 -230.041979 
L 214.304901 -231.629607 
L 215.709087 -233.217235 
L 216.970659 -234.804863 
L 218.06149 -236.39249 
L 218.971801 -237.980118 
L 219.704337 -239.567746 
L 223.095663 -239.567746 
L 223.095663 -239.567746 
L 223.828199 -237.980118 
L 224.73851 -236.39249 
L 225.829341 -234.804863 
L 227.090913 -233.217235 
L 228.495099 -231.629607 
L 229.99053 -230.041979 
L 231.502127 -228.454351 
L 232.937586 -226.866723 
L 234.200625 -225.279096 
L 235.207412 -223.691468 
L 235.900515 -222.10384 
L 236.255621 -220.516212 
L 236.28 -218.928584 
L 236.005637 -217.340956 
L 235.481048 -215.753329 
L 234.76395 -214.165701 
L 233.914628 -212.578073 
L 232.989624 -210.990445 
L 232.036749 -209.402817 
L 231.09297 -207.815189 
L 230.185254 -206.227562 
L 229.33274 -204.639934 
L 228.548441 -203.052306 
L 227.840082 -201.464678 
L 227.210628 -199.87705 
L 226.6587 -198.289423 
L 226.178343 -196.701795 
L 225.7581 -195.114167 
L 225.38084 -193.526539 
L 225.026483 -191.938911 
L 224.678179 -190.351283 
L 224.329659 -188.763656 
L 223.989546 -187.176028 
L 223.679267 -185.5884 
L 223.424409 -184.000772 
L 223.243108 -182.413144 
L 223.137112 -180.825516 
L 223.090083 -179.237889 
L 223.073914 -177.650261 
L 223.05946 -176.062633 
L 223.025956 -174.475005 
L 222.964886 -172.887377 
L 222.877989 -171.299749 
L 222.772364 -169.712122 
L 222.656184 -168.124494 
L 222.53663 -166.536866 
L 222.419445 -164.949238 
L 222.308787 -163.36161 
L 222.206783 -161.773982 
L 222.113262 -160.186355 
L 222.026286 -158.598727 
L 221.943521 -157.011099 
L 221.863716 -155.423471 
L 221.787459 -153.835843 
L 221.716925 -152.248215 
L 221.654942 -150.660588 
L 221.603998 -149.07296 
L 221.565604 -147.485332 
L 221.540013 -145.897704 
L 221.526145 -144.310076 
L 221.521644 -142.722448 
L 221.523208 -141.134821 
L 221.527347 -139.547193 
L 221.531402 -137.959565 
L 221.534319 -136.371937 
L 221.536666 -134.784309 
L 221.539786 -133.196681 
L 221.544586 -131.609054 
L 221.55076 -130.021426 
L 221.556931 -128.433798 
L 221.561552 -126.84617 
L 221.563828 -125.258542 
L 221.563983 -123.670915 
L 221.56277 -122.083287 
L 221.56069 -120.495659 
L 221.557537 -118.908031 
L 221.55257 -117.320403 
L 221.545158 -115.732775 
L 221.535483 -114.145148 
L 221.524806 -112.55752 
L 221.515013 -110.969892 
L 221.50757 -109.382264 
L 221.502493 -107.794636 
L 221.498113 -106.207008 
L 221.491936 -104.619381 
L 221.482116 -103.031753 
L 221.468574 -101.444125 
L 221.453092 -99.856497 
L 221.43846 -98.268869 
L 221.427351 -96.681241 
L 221.421557 -95.093614 
L 221.421774 -93.505986 
L 221.427686 -91.918358 
L 221.438047 -90.33073 
L 221.450718 -88.743102 
L 221.462871 -87.155474 
L 221.471536 -85.567847 
L 221.474443 -83.980219 
L 221.470779 -82.392591 
z
" id="m07f2fc7d34" style="stroke:#3d3d3d;stroke-width:1.5;"/>
    </defs>
    <g clip-path="url(#p3ee8525bfa)">
     <use style="fill:#e1812c;stroke:#3d3d3d;stroke-width:1.5;" x="0" xlink:href="#m07f2fc7d34" y="288"/>
    </g>
   </g>
   <g id="PolyCollection_3">
    <defs>
     <path d="M 362.797327 -53.321383 
L 362.722673 -53.321383 
L 362.725108 -55.242949 
L 362.731501 -57.164514 
L 362.73966 -59.08608 
L 362.747315 -61.007645 
L 362.753088 -62.92921 
L 362.756709 -64.850776 
L 362.758631 -66.772341 
L 362.759502 -68.693907 
L 362.759842 -70.615472 
L 362.759955 -72.537038 
L 362.759984 -74.458603 
L 362.759974 -76.380169 
L 362.759903 -78.301734 
L 362.759655 -80.2233 
L 362.758925 -82.144865 
L 362.757071 -84.066431 
L 362.753028 -85.987996 
L 362.7455 -87.909561 
L 362.733648 -89.831127 
L 362.71815 -91.752692 
L 362.701924 -93.674258 
L 362.689572 -95.595823 
L 362.685356 -97.517389 
L 362.690816 -99.438954 
L 362.703784 -101.36052 
L 362.719538 -103.282085 
L 362.733126 -105.203651 
L 362.741171 -107.125216 
L 362.742331 -109.046782 
L 362.736872 -110.968347 
L 362.726214 -112.889912 
L 362.712669 -114.811478 
L 362.698996 -116.733043 
L 362.68741 -118.654609 
L 362.678371 -120.576174 
L 362.670022 -122.49774 
L 362.658908 -124.419305 
L 362.641645 -126.340871 
L 362.616226 -128.262436 
L 362.581863 -130.184002 
L 362.537942 -132.105567 
L 362.484036 -134.027132 
L 362.421975 -135.948698 
L 362.358026 -137.870263 
L 362.301764 -139.791829 
L 362.260899 -141.713394 
L 362.235701 -143.63496 
L 362.217787 -145.556525 
L 362.194314 -147.478091 
L 362.154099 -149.399656 
L 362.09158 -151.321222 
L 362.007485 -153.242787 
L 361.907603 -155.164353 
L 361.800906 -157.085918 
L 361.6971 -159.007483 
L 361.603814 -160.929049 
L 361.524791 -162.850614 
L 361.460239 -164.77218 
L 361.408477 -166.693745 
L 361.366418 -168.615311 
L 361.327855 -170.536876 
L 361.281968 -172.458442 
L 361.215766 -174.380007 
L 361.120664 -176.301573 
L 360.997814 -178.223138 
L 360.856035 -180.144703 
L 360.702434 -182.066269 
L 360.533347 -183.987834 
L 360.33366 -185.9094 
L 360.085377 -187.830965 
L 359.778635 -189.752531 
L 359.41672 -191.674096 
L 359.010754 -193.595662 
L 358.56586 -195.517227 
L 358.066262 -197.438793 
L 357.469902 -199.360358 
L 356.72049 -201.281924 
L 355.775004 -203.203489 
L 354.632585 -205.125054 
L 353.346767 -207.04662 
L 352.012707 -208.968185 
L 350.738265 -210.889751 
L 349.618306 -212.811316 
L 348.726807 -214.732882 
L 348.126185 -216.654447 
L 347.88 -218.576013 
L 348.052769 -220.497578 
L 348.690307 -222.419144 
L 349.790304 -224.340709 
L 351.283575 -226.262275 
L 353.040824 -228.18384 
L 354.901456 -230.105405 
L 356.707654 -232.026971 
L 358.329923 -233.948536 
L 359.681773 -235.870102 
L 360.726458 -237.791667 
L 361.475496 -239.713233 
L 361.976728 -241.634798 
L 362.294331 -243.556364 
L 363.225669 -243.556364 
L 363.225669 -243.556364 
L 363.543272 -241.634798 
L 364.044504 -239.713233 
L 364.793542 -237.791667 
L 365.838227 -235.870102 
L 367.190077 -233.948536 
L 368.812346 -232.026971 
L 370.618544 -230.105405 
L 372.479176 -228.18384 
L 374.236425 -226.262275 
L 375.729696 -224.340709 
L 376.829693 -222.419144 
L 377.467231 -220.497578 
L 377.64 -218.576013 
L 377.393815 -216.654447 
L 376.793193 -214.732882 
L 375.901694 -212.811316 
L 374.781735 -210.889751 
L 373.507293 -208.968185 
L 372.173233 -207.04662 
L 370.887415 -205.125054 
L 369.744996 -203.203489 
L 368.79951 -201.281924 
L 368.050098 -199.360358 
L 367.453738 -197.438793 
L 366.95414 -195.517227 
L 366.509246 -193.595662 
L 366.10328 -191.674096 
L 365.741365 -189.752531 
L 365.434623 -187.830965 
L 365.18634 -185.9094 
L 364.986653 -183.987834 
L 364.817566 -182.066269 
L 364.663965 -180.144703 
L 364.522186 -178.223138 
L 364.399336 -176.301573 
L 364.304234 -174.380007 
L 364.238032 -172.458442 
L 364.192145 -170.536876 
L 364.153582 -168.615311 
L 364.111523 -166.693745 
L 364.059761 -164.77218 
L 363.995209 -162.850614 
L 363.916186 -160.929049 
L 363.8229 -159.007483 
L 363.719094 -157.085918 
L 363.612397 -155.164353 
L 363.512515 -153.242787 
L 363.42842 -151.321222 
L 363.365901 -149.399656 
L 363.325686 -147.478091 
L 363.302213 -145.556525 
L 363.284299 -143.63496 
L 363.259101 -141.713394 
L 363.218236 -139.791829 
L 363.161974 -137.870263 
L 363.098025 -135.948698 
L 363.035964 -134.027132 
L 362.982058 -132.105567 
L 362.938137 -130.184002 
L 362.903774 -128.262436 
L 362.878355 -126.340871 
L 362.861092 -124.419305 
L 362.849978 -122.49774 
L 362.841629 -120.576174 
L 362.83259 -118.654609 
L 362.821004 -116.733043 
L 362.807331 -114.811478 
L 362.793786 -112.889912 
L 362.783128 -110.968347 
L 362.777669 -109.046782 
L 362.778829 -107.125216 
L 362.786874 -105.203651 
L 362.800462 -103.282085 
L 362.816216 -101.36052 
L 362.829184 -99.438954 
L 362.834644 -97.517389 
L 362.830428 -95.595823 
L 362.818076 -93.674258 
L 362.80185 -91.752692 
L 362.786352 -89.831127 
L 362.7745 -87.909561 
L 362.766972 -85.987996 
L 362.762929 -84.066431 
L 362.761075 -82.144865 
L 362.760345 -80.2233 
L 362.760097 -78.301734 
L 362.760026 -76.380169 
L 362.760016 -74.458603 
L 362.760045 -72.537038 
L 362.760158 -70.615472 
L 362.760498 -68.693907 
L 362.761369 -66.772341 
L 362.763291 -64.850776 
L 362.766912 -62.92921 
L 362.772685 -61.007645 
L 362.78034 -59.08608 
L 362.788499 -57.164514 
L 362.794892 -55.242949 
L 362.797327 -53.321383 
z
" id="me418e206b2" style="stroke:#3d3d3d;stroke-width:1.5;"/>
    </defs>
    <g clip-path="url(#p3ee8525bfa)">
     <use style="fill:#3a923a;stroke:#3d3d3d;stroke-width:1.5;" x="0" xlink:href="#me418e206b2" y="288"/>
    </g>
   </g>
   <g id="patch_3">
    <path clip-path="url(#p3ee8525bfa)" d="M 109.8 60.537752 
L 109.8 60.537752 
L 109.8 60.537752 
L 109.8 60.537752 
z
" style="fill:#3274a1;stroke:#3d3d3d;stroke-linejoin:miter;stroke-width:0.75;"/>
   </g>
   <g id="patch_4">
    <path clip-path="url(#p3ee8525bfa)" d="M 109.8 60.537752 
L 109.8 60.537752 
L 109.8 60.537752 
L 109.8 60.537752 
z
" style="fill:#e1812c;stroke:#3d3d3d;stroke-linejoin:miter;stroke-width:0.75;"/>
   </g>
   <g id="patch_5">
    <path clip-path="url(#p3ee8525bfa)" d="M 109.8 60.537752 
L 109.8 60.537752 
L 109.8 60.537752 
L 109.8 60.537752 
z
" style="fill:#3a923a;stroke:#3d3d3d;stroke-linejoin:miter;stroke-width:0.75;"/>
   </g>
   <g id="matplotlib.axis_1">
    <g id="xtick_1">
     <g id="line2d_1">
      <defs>
       <path d="M 0 0 
L 0 3.5 
" id="m3cdfcac8ee" style="stroke:#000000;stroke-width:0.8;"/>
      </defs>
      <g>
       <use style="stroke:#000000;stroke-width:0.8;" x="109.8" xlink:href="#m3cdfcac8ee" y="252"/>
      </g>
     </g>
     <g id="text_1">
      <!-- train -->
      <g transform="translate(98.1625 266.598437)scale(0.1 -0.1)">
       <defs>
        <path d="M 18.3125 70.21875 
L 18.3125 54.6875 
L 36.8125 54.6875 
L 36.8125 47.703125 
L 18.3125 47.703125 
L 18.3125 18.015625 
Q 18.3125 11.328125 20.140625 9.421875 
Q 21.96875 7.515625 27.59375 7.515625 
L 36.8125 7.515625 
L 36.8125 0 
L 27.59375 0 
Q 17.1875 0 13.234375 3.875 
Q 9.28125 7.765625 9.28125 18.015625 
L 9.28125 47.703125 
L 2.6875 47.703125 
L 2.6875 54.6875 
L 9.28125 54.6875 
L 9.28125 70.21875 
z
" id="DejaVuSans-116"/>
        <path d="M 41.109375 46.296875 
Q 39.59375 47.171875 37.8125 47.578125 
Q 36.03125 48 33.890625 48 
Q 26.265625 48 22.1875 43.046875 
Q 18.109375 38.09375 18.109375 28.8125 
L 18.109375 0 
L 9.078125 0 
L 9.078125 54.6875 
L 18.109375 54.6875 
L 18.109375 46.1875 
Q 20.953125 51.171875 25.484375 53.578125 
Q 30.03125 56 36.53125 56 
Q 37.453125 56 38.578125 55.875 
Q 39.703125 55.765625 41.0625 55.515625 
z
" id="DejaVuSans-114"/>
        <path d="M 34.28125 27.484375 
Q 23.390625 27.484375 19.1875 25 
Q 14.984375 22.515625 14.984375 16.5 
Q 14.984375 11.71875 18.140625 8.90625 
Q 21.296875 6.109375 26.703125 6.109375 
Q 34.1875 6.109375 38.703125 11.40625 
Q 43.21875 16.703125 43.21875 25.484375 
L 43.21875 27.484375 
z
M 52.203125 31.203125 
L 52.203125 0 
L 43.21875 0 
L 43.21875 8.296875 
Q 40.140625 3.328125 35.546875 0.953125 
Q 30.953125 -1.421875 24.3125 -1.421875 
Q 15.921875 -1.421875 10.953125 3.296875 
Q 6 8.015625 6 15.921875 
Q 6 25.140625 12.171875 29.828125 
Q 18.359375 34.515625 30.609375 34.515625 
L 43.21875 34.515625 
L 43.21875 35.40625 
Q 43.21875 41.609375 39.140625 45 
Q 35.0625 48.390625 27.6875 48.390625 
Q 23 48.390625 18.546875 47.265625 
Q 14.109375 46.140625 10.015625 43.890625 
L 10.015625 52.203125 
Q 14.9375 54.109375 19.578125 55.046875 
Q 24.21875 56 28.609375 56 
Q 40.484375 56 46.34375 49.84375 
Q 52.203125 43.703125 52.203125 31.203125 
z
" id="DejaVuSans-97"/>
        <path d="M 9.421875 54.6875 
L 18.40625 54.6875 
L 18.40625 0 
L 9.421875 0 
z
M 9.421875 75.984375 
L 18.40625 75.984375 
L 18.40625 64.59375 
L 9.421875 64.59375 
z
" id="DejaVuSans-105"/>
        <path d="M 54.890625 33.015625 
L 54.890625 0 
L 45.90625 0 
L 45.90625 32.71875 
Q 45.90625 40.484375 42.875 44.328125 
Q 39.84375 48.1875 33.796875 48.1875 
Q 26.515625 48.1875 22.3125 43.546875 
Q 18.109375 38.921875 18.109375 30.90625 
L 18.109375 0 
L 9.078125 0 
L 9.078125 54.6875 
L 18.109375 54.6875 
L 18.109375 46.1875 
Q 21.34375 51.125 25.703125 53.5625 
Q 30.078125 56 35.796875 56 
Q 45.21875 56 50.046875 50.171875 
Q 54.890625 44.34375 54.890625 33.015625 
z
" id="DejaVuSans-110"/>
       </defs>
       <use xlink:href="#DejaVuSans-116"/>
       <use x="39.208984" xlink:href="#DejaVuSans-114"/>
       <use x="80.322266" xlink:href="#DejaVuSans-97"/>
       <use x="141.601562" xlink:href="#DejaVuSans-105"/>
       <use x="169.384766" xlink:href="#DejaVuSans-110"/>
      </g>
     </g>
    </g>
    <g id="xtick_2">
     <g id="line2d_2">
      <g>
       <use style="stroke:#000000;stroke-width:0.8;" x="221.4" xlink:href="#m3cdfcac8ee" y="252"/>
      </g>
     </g>
     <g id="text_2">
      <!-- val -->
      <g transform="translate(213.9875 266.598437)scale(0.1 -0.1)">
       <defs>
        <path d="M 2.984375 54.6875 
L 12.5 54.6875 
L 29.59375 8.796875 
L 46.6875 54.6875 
L 56.203125 54.6875 
L 35.6875 0 
L 23.484375 0 
z
" id="DejaVuSans-118"/>
        <path d="M 9.421875 75.984375 
L 18.40625 75.984375 
L 18.40625 0 
L 9.421875 0 
z
" id="DejaVuSans-108"/>
       </defs>
       <use xlink:href="#DejaVuSans-118"/>
       <use x="59.179688" xlink:href="#DejaVuSans-97"/>
       <use x="120.458984" xlink:href="#DejaVuSans-108"/>
      </g>
     </g>
    </g>
    <g id="xtick_3">
     <g id="line2d_3">
      <g>
       <use style="stroke:#000000;stroke-width:0.8;" x="333" xlink:href="#m3cdfcac8ee" y="252"/>
      </g>
     </g>
     <g id="text_3">
      <!-- test -->
      <g transform="translate(323.398438 266.598437)scale(0.1 -0.1)">
       <defs>
        <path d="M 56.203125 29.59375 
L 56.203125 25.203125 
L 14.890625 25.203125 
Q 15.484375 15.921875 20.484375 11.0625 
Q 25.484375 6.203125 34.421875 6.203125 
Q 39.59375 6.203125 44.453125 7.46875 
Q 49.3125 8.734375 54.109375 11.28125 
L 54.109375 2.78125 
Q 49.265625 0.734375 44.1875 -0.34375 
Q 39.109375 -1.421875 33.890625 -1.421875 
Q 20.796875 -1.421875 13.15625 6.1875 
Q 5.515625 13.8125 5.515625 26.8125 
Q 5.515625 40.234375 12.765625 48.109375 
Q 20.015625 56 32.328125 56 
Q 43.359375 56 49.78125 48.890625 
Q 56.203125 41.796875 56.203125 29.59375 
z
M 47.21875 32.234375 
Q 47.125 39.59375 43.09375 43.984375 
Q 39.0625 48.390625 32.421875 48.390625 
Q 24.90625 48.390625 20.390625 44.140625 
Q 15.875 39.890625 15.1875 32.171875 
z
" id="DejaVuSans-101"/>
        <path d="M 44.28125 53.078125 
L 44.28125 44.578125 
Q 40.484375 46.53125 36.375 47.5 
Q 32.28125 48.484375 27.875 48.484375 
Q 21.1875 48.484375 17.84375 46.4375 
Q 14.5 44.390625 14.5 40.28125 
Q 14.5 37.15625 16.890625 35.375 
Q 19.28125 33.59375 26.515625 31.984375 
L 29.59375 31.296875 
Q 39.15625 29.25 43.1875 25.515625 
Q 47.21875 21.78125 47.21875 15.09375 
Q 47.21875 7.46875 41.1875 3.015625 
Q 35.15625 -1.421875 24.609375 -1.421875 
Q 20.21875 -1.421875 15.453125 -0.5625 
Q 10.6875 0.296875 5.421875 2 
L 5.421875 11.28125 
Q 10.40625 8.6875 15.234375 7.390625 
Q 20.0625 6.109375 24.8125 6.109375 
Q 31.15625 6.109375 34.5625 8.28125 
Q 37.984375 10.453125 37.984375 14.40625 
Q 37.984375 18.0625 35.515625 20.015625 
Q 33.0625 21.96875 24.703125 23.78125 
L 21.578125 24.515625 
Q 13.234375 26.265625 9.515625 29.90625 
Q 5.8125 33.546875 5.8125 39.890625 
Q 5.8125 47.609375 11.28125 51.796875 
Q 16.75 56 26.8125 56 
Q 31.78125 56 36.171875 55.265625 
Q 40.578125 54.546875 44.28125 53.078125 
z
" id="DejaVuSans-115"/>
       </defs>
       <use xlink:href="#DejaVuSans-116"/>
       <use x="39.208984" xlink:href="#DejaVuSans-101"/>
       <use x="100.732422" xlink:href="#DejaVuSans-115"/>
       <use x="152.832031" xlink:href="#DejaVuSans-116"/>
      </g>
     </g>
    </g>
    <g id="text_4">
     <!-- set -->
     <g transform="translate(213.758594 280.276563)scale(0.1 -0.1)">
      <use xlink:href="#DejaVuSans-115"/>
      <use x="52.099609" xlink:href="#DejaVuSans-101"/>
      <use x="113.623047" xlink:href="#DejaVuSans-116"/>
     </g>
    </g>
   </g>
   <g id="matplotlib.axis_2">
    <g id="ytick_1">
     <g id="line2d_4">
      <defs>
       <path d="M 0 0 
L -3.5 0 
" id="m47aa126e08" style="stroke:#000000;stroke-width:0.8;"/>
      </defs>
      <g>
       <use style="stroke:#000000;stroke-width:0.8;" x="54" xlink:href="#m47aa126e08" y="249.428966"/>
      </g>
     </g>
     <g id="text_5">
      <!-- −80 -->
      <g transform="translate(25.895312 253.228185)scale(0.1 -0.1)">
       <defs>
        <path d="M 10.59375 35.5 
L 73.1875 35.5 
L 73.1875 27.203125 
L 10.59375 27.203125 
z
" id="DejaVuSans-8722"/>
        <path d="M 31.78125 34.625 
Q 24.75 34.625 20.71875 30.859375 
Q 16.703125 27.09375 16.703125 20.515625 
Q 16.703125 13.921875 20.71875 10.15625 
Q 24.75 6.390625 31.78125 6.390625 
Q 38.8125 6.390625 42.859375 10.171875 
Q 46.921875 13.96875 46.921875 20.515625 
Q 46.921875 27.09375 42.890625 30.859375 
Q 38.875 34.625 31.78125 34.625 
z
M 21.921875 38.8125 
Q 15.578125 40.375 12.03125 44.71875 
Q 8.5 49.078125 8.5 55.328125 
Q 8.5 64.0625 14.71875 69.140625 
Q 20.953125 74.21875 31.78125 74.21875 
Q 42.671875 74.21875 48.875 69.140625 
Q 55.078125 64.0625 55.078125 55.328125 
Q 55.078125 49.078125 51.53125 44.71875 
Q 48 40.375 41.703125 38.8125 
Q 48.828125 37.15625 52.796875 32.3125 
Q 56.78125 27.484375 56.78125 20.515625 
Q 56.78125 9.90625 50.3125 4.234375 
Q 43.84375 -1.421875 31.78125 -1.421875 
Q 19.734375 -1.421875 13.25 4.234375 
Q 6.78125 9.90625 6.78125 20.515625 
Q 6.78125 27.484375 10.78125 32.3125 
Q 14.796875 37.15625 21.921875 38.8125 
z
M 18.3125 54.390625 
Q 18.3125 48.734375 21.84375 45.5625 
Q 25.390625 42.390625 31.78125 42.390625 
Q 38.140625 42.390625 41.71875 45.5625 
Q 45.3125 48.734375 45.3125 54.390625 
Q 45.3125 60.0625 41.71875 63.234375 
Q 38.140625 66.40625 31.78125 66.40625 
Q 25.390625 66.40625 21.84375 63.234375 
Q 18.3125 60.0625 18.3125 54.390625 
z
" id="DejaVuSans-56"/>
        <path d="M 31.78125 66.40625 
Q 24.171875 66.40625 20.328125 58.90625 
Q 16.5 51.421875 16.5 36.375 
Q 16.5 21.390625 20.328125 13.890625 
Q 24.171875 6.390625 31.78125 6.390625 
Q 39.453125 6.390625 43.28125 13.890625 
Q 47.125 21.390625 47.125 36.375 
Q 47.125 51.421875 43.28125 58.90625 
Q 39.453125 66.40625 31.78125 66.40625 
z
M 31.78125 74.21875 
Q 44.046875 74.21875 50.515625 64.515625 
Q 56.984375 54.828125 56.984375 36.375 
Q 56.984375 17.96875 50.515625 8.265625 
Q 44.046875 -1.421875 31.78125 -1.421875 
Q 19.53125 -1.421875 13.0625 8.265625 
Q 6.59375 17.96875 6.59375 36.375 
Q 6.59375 54.828125 13.0625 64.515625 
Q 19.53125 74.21875 31.78125 74.21875 
z
" id="DejaVuSans-48"/>
       </defs>
       <use xlink:href="#DejaVuSans-8722"/>
       <use x="83.789062" xlink:href="#DejaVuSans-56"/>
       <use x="147.412109" xlink:href="#DejaVuSans-48"/>
      </g>
     </g>
    </g>
    <g id="ytick_2">
     <g id="line2d_5">
      <g>
       <use style="stroke:#000000;stroke-width:0.8;" x="54" xlink:href="#m47aa126e08" y="202.206163"/>
      </g>
     </g>
     <g id="text_6">
      <!-- −60 -->
      <g transform="translate(25.895312 206.005381)scale(0.1 -0.1)">
       <defs>
        <path d="M 33.015625 40.375 
Q 26.375 40.375 22.484375 35.828125 
Q 18.609375 31.296875 18.609375 23.390625 
Q 18.609375 15.53125 22.484375 10.953125 
Q 26.375 6.390625 33.015625 6.390625 
Q 39.65625 6.390625 43.53125 10.953125 
Q 47.40625 15.53125 47.40625 23.390625 
Q 47.40625 31.296875 43.53125 35.828125 
Q 39.65625 40.375 33.015625 40.375 
z
M 52.59375 71.296875 
L 52.59375 62.3125 
Q 48.875 64.0625 45.09375 64.984375 
Q 41.3125 65.921875 37.59375 65.921875 
Q 27.828125 65.921875 22.671875 59.328125 
Q 17.53125 52.734375 16.796875 39.40625 
Q 19.671875 43.65625 24.015625 45.921875 
Q 28.375 48.1875 33.59375 48.1875 
Q 44.578125 48.1875 50.953125 41.515625 
Q 57.328125 34.859375 57.328125 23.390625 
Q 57.328125 12.15625 50.6875 5.359375 
Q 44.046875 -1.421875 33.015625 -1.421875 
Q 20.359375 -1.421875 13.671875 8.265625 
Q 6.984375 17.96875 6.984375 36.375 
Q 6.984375 53.65625 15.1875 63.9375 
Q 23.390625 74.21875 37.203125 74.21875 
Q 40.921875 74.21875 44.703125 73.484375 
Q 48.484375 72.75 52.59375 71.296875 
z
" id="DejaVuSans-54"/>
       </defs>
       <use xlink:href="#DejaVuSans-8722"/>
       <use x="83.789062" xlink:href="#DejaVuSans-54"/>
       <use x="147.412109" xlink:href="#DejaVuSans-48"/>
      </g>
     </g>
    </g>
    <g id="ytick_3">
     <g id="line2d_6">
      <g>
       <use style="stroke:#000000;stroke-width:0.8;" x="54" xlink:href="#m47aa126e08" y="154.983359"/>
      </g>
     </g>
     <g id="text_7">
      <!-- −40 -->
      <g transform="translate(25.895312 158.782578)scale(0.1 -0.1)">
       <defs>
        <path d="M 37.796875 64.3125 
L 12.890625 25.390625 
L 37.796875 25.390625 
z
M 35.203125 72.90625 
L 47.609375 72.90625 
L 47.609375 25.390625 
L 58.015625 25.390625 
L 58.015625 17.1875 
L 47.609375 17.1875 
L 47.609375 0 
L 37.796875 0 
L 37.796875 17.1875 
L 4.890625 17.1875 
L 4.890625 26.703125 
z
" id="DejaVuSans-52"/>
       </defs>
       <use xlink:href="#DejaVuSans-8722"/>
       <use x="83.789062" xlink:href="#DejaVuSans-52"/>
       <use x="147.412109" xlink:href="#DejaVuSans-48"/>
      </g>
     </g>
    </g>
    <g id="ytick_4">
     <g id="line2d_7">
      <g>
       <use style="stroke:#000000;stroke-width:0.8;" x="54" xlink:href="#m47aa126e08" y="107.760555"/>
      </g>
     </g>
     <g id="text_8">
      <!-- −20 -->
      <g transform="translate(25.895312 111.559774)scale(0.1 -0.1)">
       <defs>
        <path d="M 19.1875 8.296875 
L 53.609375 8.296875 
L 53.609375 0 
L 7.328125 0 
L 7.328125 8.296875 
Q 12.9375 14.109375 22.625 23.890625 
Q 32.328125 33.6875 34.8125 36.53125 
Q 39.546875 41.84375 41.421875 45.53125 
Q 43.3125 49.21875 43.3125 52.78125 
Q 43.3125 58.59375 39.234375 62.25 
Q 35.15625 65.921875 28.609375 65.921875 
Q 23.96875 65.921875 18.8125 64.3125 
Q 13.671875 62.703125 7.8125 59.421875 
L 7.8125 69.390625 
Q 13.765625 71.78125 18.9375 73 
Q 24.125 74.21875 28.421875 74.21875 
Q 39.75 74.21875 46.484375 68.546875 
Q 53.21875 62.890625 53.21875 53.421875 
Q 53.21875 48.921875 51.53125 44.890625 
Q 49.859375 40.875 45.40625 35.40625 
Q 44.1875 33.984375 37.640625 27.21875 
Q 31.109375 20.453125 19.1875 8.296875 
z
" id="DejaVuSans-50"/>
       </defs>
       <use xlink:href="#DejaVuSans-8722"/>
       <use x="83.789062" xlink:href="#DejaVuSans-50"/>
       <use x="147.412109" xlink:href="#DejaVuSans-48"/>
      </g>
     </g>
    </g>
    <g id="ytick_5">
     <g id="line2d_8">
      <g>
       <use style="stroke:#000000;stroke-width:0.8;" x="54" xlink:href="#m47aa126e08" y="60.537752"/>
      </g>
     </g>
     <g id="text_9">
      <!-- 0 -->
      <g transform="translate(40.6375 64.336971)scale(0.1 -0.1)">
       <use xlink:href="#DejaVuSans-48"/>
      </g>
     </g>
    </g>
    <g id="text_10">
     <!-- value -->
     <g transform="translate(19.815625 156.937813)rotate(-90)scale(0.1 -0.1)">
      <defs>
       <path d="M 8.5 21.578125 
L 8.5 54.6875 
L 17.484375 54.6875 
L 17.484375 21.921875 
Q 17.484375 14.15625 20.5 10.265625 
Q 23.53125 6.390625 29.59375 6.390625 
Q 36.859375 6.390625 41.078125 11.03125 
Q 45.3125 15.671875 45.3125 23.6875 
L 45.3125 54.6875 
L 54.296875 54.6875 
L 54.296875 0 
L 45.3125 0 
L 45.3125 8.40625 
Q 42.046875 3.421875 37.71875 1 
Q 33.40625 -1.421875 27.6875 -1.421875 
Q 18.265625 -1.421875 13.375 4.4375 
Q 8.5 10.296875 8.5 21.578125 
z
M 31.109375 56 
z
" id="DejaVuSans-117"/>
      </defs>
      <use xlink:href="#DejaVuSans-118"/>
      <use x="59.179688" xlink:href="#DejaVuSans-97"/>
      <use x="120.458984" xlink:href="#DejaVuSans-108"/>
      <use x="148.242188" xlink:href="#DejaVuSans-117"/>
      <use x="211.621094" xlink:href="#DejaVuSans-101"/>
     </g>
    </g>
   </g>
   <g id="line2d_9">
    <path clip-path="url(#p3ee8525bfa)" d="M 80.04 147.330389 
L 80.04 50.920732 
" style="fill:none;stroke:#3d3d3d;stroke-linecap:square;stroke-width:1.5;"/>
   </g>
   <g id="line2d_10">
    <path clip-path="url(#p3ee8525bfa)" d="M 80.04 102.404952 
L 80.04 72.28913 
" style="fill:none;stroke:#3d3d3d;stroke-linecap:square;stroke-width:4.5;"/>
   </g>
   <g id="line2d_11">
    <path clip-path="url(#p3ee8525bfa)" d="M 221.4 112.936108 
L 221.4 48.432254 
" style="fill:none;stroke:#3d3d3d;stroke-linecap:square;stroke-width:1.5;"/>
   </g>
   <g id="line2d_12">
    <path clip-path="url(#p3ee8525bfa)" d="M 221.4 84.198119 
L 221.4 64.854417 
" style="fill:none;stroke:#3d3d3d;stroke-linecap:square;stroke-width:4.5;"/>
   </g>
   <g id="line2d_13">
    <path clip-path="url(#p3ee8525bfa)" d="M 362.76 114.567665 
L 362.76 44.443636 
" style="fill:none;stroke:#3d3d3d;stroke-linecap:square;stroke-width:1.5;"/>
   </g>
   <g id="line2d_14">
    <path clip-path="url(#p3ee8525bfa)" d="M 362.76 85.226867 
L 362.76 65.64854 
" style="fill:none;stroke:#3d3d3d;stroke-linecap:square;stroke-width:4.5;"/>
   </g>
   <g id="patch_6">
    <path d="M 54 252 
L 54 34.56 
" style="fill:none;stroke:#000000;stroke-linecap:square;stroke-linejoin:miter;stroke-width:0.8;"/>
   </g>
   <g id="patch_7">
    <path d="M 388.8 252 
L 388.8 34.56 
" style="fill:none;stroke:#000000;stroke-linecap:square;stroke-linejoin:miter;stroke-width:0.8;"/>
   </g>
   <g id="patch_8">
    <path d="M 54 252 
L 388.8 252 
" style="fill:none;stroke:#000000;stroke-linecap:square;stroke-linejoin:miter;stroke-width:0.8;"/>
   </g>
   <g id="patch_9">
    <path d="M 54 34.56 
L 388.8 34.56 
" style="fill:none;stroke:#000000;stroke-linecap:square;stroke-linejoin:miter;stroke-width:0.8;"/>
   </g>
   <g id="PathCollection_1">
    <defs>
     <path d="M 0 1.5 
C 0.397805 1.5 0.77937 1.341951 1.06066 1.06066 
C 1.341951 0.77937 1.5 0.397805 1.5 0 
C 1.5 -0.397805 1.341951 -0.77937 1.06066 -1.06066 
C 0.77937 -1.341951 0.397805 -1.5 0 -1.5 
C -0.397805 -1.5 -0.77937 -1.341951 -1.06066 -1.06066 
C -1.341951 -0.77937 -1.5 -0.397805 -1.5 0 
C -1.5 0.397805 -1.341951 0.77937 -1.06066 1.06066 
C -0.77937 1.341951 -0.397805 1.5 0 1.5 
z
" id="m361c52cf3f" style="stroke:#3d3d3d;"/>
    </defs>
    <g clip-path="url(#p3ee8525bfa)">
     <use style="fill:#ffffff;stroke:#3d3d3d;" x="80.04" xlink:href="#m361c52cf3f" y="85.701949"/>
    </g>
   </g>
   <g id="PathCollection_2">
    <g clip-path="url(#p3ee8525bfa)">
     <use style="fill:#ffffff;stroke:#3d3d3d;" x="221.4" xlink:href="#m361c52cf3f" y="72.517866"/>
    </g>
   </g>
   <g id="PathCollection_3">
    <g clip-path="url(#p3ee8525bfa)">
     <use style="fill:#ffffff;stroke:#3d3d3d;" x="362.76" xlink:href="#m361c52cf3f" y="73.222241"/>
    </g>
   </g>
   <g id="legend_1">
    <g id="patch_10">
     <path d="M 61 247 
L 116.275 247 
Q 118.275 247 118.275 245 
L 118.275 187.2875 
Q 118.275 185.2875 116.275 185.2875 
L 61 185.2875 
Q 59 185.2875 59 187.2875 
L 59 245 
Q 59 247 61 247 
z
" style="fill:#ffffff;opacity:0.8;stroke:#cccccc;stroke-linejoin:miter;"/>
    </g>
    <g id="text_11">
     <!-- set -->
     <g transform="translate(80.996094 196.885938)scale(0.1 -0.1)">
      <use xlink:href="#DejaVuSans-115"/>
      <use x="52.099609" xlink:href="#DejaVuSans-101"/>
      <use x="113.623047" xlink:href="#DejaVuSans-116"/>
     </g>
    </g>
    <g id="patch_11">
     <path d="M 63 211.564063 
L 83 211.564063 
L 83 204.564063 
L 63 204.564063 
z
" style="fill:#3274a1;stroke:#3d3d3d;stroke-linejoin:miter;stroke-width:0.75;"/>
    </g>
    <g id="text_12">
     <!-- train -->
     <g transform="translate(91 211.564063)scale(0.1 -0.1)">
      <use xlink:href="#DejaVuSans-116"/>
      <use x="39.208984" xlink:href="#DejaVuSans-114"/>
      <use x="80.322266" xlink:href="#DejaVuSans-97"/>
      <use x="141.601562" xlink:href="#DejaVuSans-105"/>
      <use x="169.384766" xlink:href="#DejaVuSans-110"/>
     </g>
    </g>
    <g id="patch_12">
     <path d="M 63 226.242188 
L 83 226.242188 
L 83 219.242188 
L 63 219.242188 
z
" style="fill:#e1812c;stroke:#3d3d3d;stroke-linejoin:miter;stroke-width:0.75;"/>
    </g>
    <g id="text_13">
     <!-- val -->
     <g transform="translate(91 226.242188)scale(0.1 -0.1)">
      <use xlink:href="#DejaVuSans-118"/>
      <use x="59.179688" xlink:href="#DejaVuSans-97"/>
      <use x="120.458984" xlink:href="#DejaVuSans-108"/>
     </g>
    </g>
    <g id="patch_13">
     <path d="M 63 240.920313 
L 83 240.920313 
L 83 233.920313 
L 63 233.920313 
z
" style="fill:#3a923a;stroke:#3d3d3d;stroke-linejoin:miter;stroke-width:0.75;"/>
    </g>
    <g id="text_14">
     <!-- test -->
     <g transform="translate(91 240.920313)scale(0.1 -0.1)">
      <use xlink:href="#DejaVuSans-116"/>
      <use x="39.208984" xlink:href="#DejaVuSans-101"/>
      <use x="100.732422" xlink:href="#DejaVuSans-115"/>
      <use x="152.832031" xlink:href="#DejaVuSans-116"/>
     </g>
    </g>
   </g>
  </g>
 </g>
 <defs>
  <clipPath id="p3ee8525bfa">
   <rect height="217.44" width="334.8" x="54" y="34.56"/>
  </clipPath>
 </defs>
</svg>
