<?xml version="1.0" encoding="utf-8" standalone="no"?>
<!DOCTYPE svg PUBLIC "-//W3C//DTD SVG 1.1//EN"
  "http://www.w3.org/Graphics/SVG/1.1/DTD/svg11.dtd">
<!-- Created with matplotlib (https://matplotlib.org/) -->
<svg height="288pt" version="1.1" viewBox="0 0 432 288" width="432pt" xmlns="http://www.w3.org/2000/svg" xmlns:xlink="http://www.w3.org/1999/xlink">
 <metadata>
  <rdf:RDF xmlns:cc="http://creativecommons.org/ns#" xmlns:dc="http://purl.org/dc/elements/1.1/" xmlns:rdf="http://www.w3.org/1999/02/22-rdf-syntax-ns#">
   <cc:Work>
    <dc:type rdf:resource="http://purl.org/dc/dcmitype/StillImage"/>
    <dc:date>2022-05-02T16:47:52.500056</dc:date>
    <dc:format>image/svg+xml</dc:format>
    <dc:creator>
     <cc:Agent>
      <dc:title>Matplotlib v3.3.4, https://matplotlib.org/</dc:title>
     </cc:Agent>
    </dc:creator>
   </cc:Work>
  </rdf:RDF>
 </metadata>
 <defs>
  <style type="text/css">*{stroke-linecap:butt;stroke-linejoin:round;}</style>
 </defs>
 <g id="figure_1">
  <g id="patch_1">
   <path d="M 0 288 
L 432 288 
L 432 0 
L 0 0 
z
" style="fill:#ffffff;"/>
  </g>
  <g id="axes_1">
   <g id="patch_2">
    <path d="M 54 252 
L 388.8 252 
L 388.8 34.56 
L 54 34.56 
z
" style="fill:#ffffff;"/>
   </g>
   <g id="PolyCollection_1">
    <defs>
     <path d="M 94.92 -45.883636 
L 65.16 -45.883636 
L 75.33377 -47.880331 
L 79.807077 -49.877025 
L 79.961677 -51.873719 
L 79.984874 -53.870413 
L 79.985982 -55.867107 
L 79.998089 -57.863802 
L 80.004885 -59.860496 
L 80.020387 -61.85719 
L 80.031338 -63.853884 
L 80.033018 -65.850579 
L 80.031264 -67.847273 
L 80.03009 -69.843967 
L 80.031719 -71.840661 
L 80.037493 -73.837355 
L 80.034695 -75.83405 
L 80.032928 -77.830744 
L 80.028037 -79.827438 
L 80.02927 -81.824132 
L 80.03115 -83.820826 
L 80.031444 -85.817521 
L 80.034282 -87.814215 
L 80.038001 -89.810909 
L 80.039946 -91.807603 
L 80.04 -93.804298 
L 80.04 -95.800992 
L 80.04 -97.797686 
L 80.04 -99.79438 
L 80.039999 -101.791074 
L 80.039832 -103.787769 
L 80.036805 -105.784463 
L 80.03575 -107.781157 
L 80.036195 -109.777851 
L 80.036209 -111.774545 
L 80.039724 -113.77124 
L 80.039998 -115.767934 
L 80.039827 -117.764628 
L 80.036773 -119.761322 
L 80.03599 -121.758017 
L 80.039669 -123.754711 
L 80.039998 -125.751405 
L 80.04 -127.748099 
L 80.04 -129.744793 
L 80.04 -131.741488 
L 80.04 -133.738182 
L 80.04 -135.734876 
L 80.04 -137.73157 
L 80.04 -139.728264 
L 80.03989 -141.724959 
L 80.037287 -143.721653 
L 80.035561 -145.718347 
L 80.039517 -147.715041 
L 80.039996 -149.711736 
L 80.039786 -151.70843 
L 80.036517 -153.705124 
L 80.036229 -155.701818 
L 80.039728 -157.698512 
L 80.039999 -159.695207 
L 80.04 -161.691901 
L 80.04 -163.688595 
L 80.04 -165.685289 
L 80.04 -167.681983 
L 80.04 -169.678678 
L 80.04 -171.675372 
L 80.04 -173.672066 
L 80.04 -175.66876 
L 80.04 -177.665455 
L 80.04 -179.662149 
L 80.04 -181.658843 
L 80.04 -183.655537 
L 80.039989 -185.652231 
L 80.039082 -187.648926 
L 80.035014 -189.64562 
L 80.038198 -191.642314 
L 80.039957 -193.639008 
L 80.04 -195.635702 
L 80.04 -197.632397 
L 80.04 -199.629091 
L 80.04 -201.625785 
L 80.04 -203.622479 
L 80.04 -205.619174 
L 80.04 -207.615868 
L 80.04 -209.612562 
L 80.04 -211.609256 
L 80.04 -213.60595 
L 80.04 -215.602645 
L 80.04 -217.599339 
L 80.04 -219.596033 
L 80.04 -221.592727 
L 80.04 -223.589421 
L 80.04 -225.586116 
L 80.04 -227.58281 
L 80.04 -229.579504 
L 80.04 -231.576198 
L 80.04 -233.572893 
L 80.04 -235.569587 
L 80.04 -237.566281 
L 80.039977 -239.562975 
L 80.038687 -241.559669 
L 80.034908 -243.556364 
L 80.045092 -243.556364 
L 80.045092 -243.556364 
L 80.041313 -241.559669 
L 80.040023 -239.562975 
L 80.04 -237.566281 
L 80.04 -235.569587 
L 80.04 -233.572893 
L 80.04 -231.576198 
L 80.04 -229.579504 
L 80.04 -227.58281 
L 80.04 -225.586116 
L 80.04 -223.589421 
L 80.04 -221.592727 
L 80.04 -219.596033 
L 80.04 -217.599339 
L 80.04 -215.602645 
L 80.04 -213.60595 
L 80.04 -211.609256 
L 80.04 -209.612562 
L 80.04 -207.615868 
L 80.04 -205.619174 
L 80.04 -203.622479 
L 80.04 -201.625785 
L 80.04 -199.629091 
L 80.04 -197.632397 
L 80.04 -195.635702 
L 80.040043 -193.639008 
L 80.041802 -191.642314 
L 80.044986 -189.64562 
L 80.040918 -187.648926 
L 80.040011 -185.652231 
L 80.04 -183.655537 
L 80.04 -181.658843 
L 80.04 -179.662149 
L 80.04 -177.665455 
L 80.04 -175.66876 
L 80.04 -173.672066 
L 80.04 -171.675372 
L 80.04 -169.678678 
L 80.04 -167.681983 
L 80.04 -165.685289 
L 80.04 -163.688595 
L 80.04 -161.691901 
L 80.040001 -159.695207 
L 80.040272 -157.698512 
L 80.043771 -155.701818 
L 80.043483 -153.705124 
L 80.040214 -151.70843 
L 80.040004 -149.711736 
L 80.040483 -147.715041 
L 80.044439 -145.718347 
L 80.042713 -143.721653 
L 80.04011 -141.724959 
L 80.04 -139.728264 
L 80.04 -137.73157 
L 80.04 -135.734876 
L 80.04 -133.738182 
L 80.04 -131.741488 
L 80.04 -129.744793 
L 80.04 -127.748099 
L 80.040002 -125.751405 
L 80.040331 -123.754711 
L 80.04401 -121.758017 
L 80.043227 -119.761322 
L 80.040173 -117.764628 
L 80.040002 -115.767934 
L 80.040276 -113.77124 
L 80.043791 -111.774545 
L 80.043805 -109.777851 
L 80.04425 -107.781157 
L 80.043195 -105.784463 
L 80.040168 -103.787769 
L 80.040001 -101.791074 
L 80.04 -99.79438 
L 80.04 -97.797686 
L 80.04 -95.800992 
L 80.04 -93.804298 
L 80.040054 -91.807603 
L 80.041999 -89.810909 
L 80.045718 -87.814215 
L 80.048556 -85.817521 
L 80.04885 -83.820826 
L 80.05073 -81.824132 
L 80.051963 -79.827438 
L 80.047072 -77.830744 
L 80.045305 -75.83405 
L 80.042507 -73.837355 
L 80.048281 -71.840661 
L 80.04991 -69.843967 
L 80.048736 -67.847273 
L 80.046982 -65.850579 
L 80.048662 -63.853884 
L 80.059613 -61.85719 
L 80.075115 -59.860496 
L 80.081911 -57.863802 
L 80.094018 -55.867107 
L 80.095126 -53.870413 
L 80.118323 -51.873719 
L 80.272923 -49.877025 
L 84.74623 -47.880331 
L 94.92 -45.883636 
z
" id="mdbaeec41c5" style="stroke:#3d3d3d;stroke-width:1.5;"/>
    </defs>
    <g clip-path="url(#p86707e60f3)">
     <use style="fill:#3274a1;stroke:#3d3d3d;stroke-width:1.5;" x="0" xlink:href="#mdbaeec41c5" y="288"/>
    </g>
   </g>
   <g id="PolyCollection_2">
    <defs>
     <path d="M 236.28 -45.884719 
L 206.52 -45.884719 
L 208.380729 -46.387274 
L 213.975423 -46.889828 
L 218.549993 -47.392383 
L 220.583623 -47.894937 
L 221.159766 -48.397491 
L 221.27793 -48.900046 
L 221.298001 -49.4026 
L 221.309071 -49.905155 
L 221.329301 -50.407709 
L 221.3494 -50.910264 
L 221.353488 -51.412818 
L 221.34137 -51.915373 
L 221.328853 -52.417927 
L 221.329828 -52.920482 
L 221.344339 -53.423036 
L 221.361594 -53.92559 
L 221.373014 -54.428145 
L 221.37985 -54.930699 
L 221.385284 -55.433254 
L 221.386692 -55.935808 
L 221.381705 -56.438363 
L 221.373 -56.940917 
L 221.364052 -57.443472 
L 221.358678 -57.946026 
L 221.360722 -58.448581 
L 221.36842 -58.951135 
L 221.375894 -59.453689 
L 221.379245 -59.956244 
L 221.379494 -60.458798 
L 221.378568 -60.961353 
L 221.374396 -61.463907 
L 221.36772 -61.966462 
L 221.364884 -62.469016 
L 221.367543 -62.971571 
L 221.371415 -63.474125 
L 221.374298 -63.976679 
L 221.377729 -64.479234 
L 221.383877 -64.981788 
L 221.391492 -65.484343 
L 221.39698 -65.986897 
L 221.399304 -66.489452 
L 221.399897 -66.992006 
L 221.39999 -67.494561 
L 221.399999 -67.997115 
L 221.4 -68.49967 
L 221.4 -69.002224 
L 221.4 -69.504778 
L 221.4 -70.007333 
L 221.4 -70.509887 
L 221.4 -71.012442 
L 221.4 -71.514996 
L 221.4 -72.017551 
L 221.4 -72.520105 
L 221.399994 -73.02266 
L 221.399935 -73.525214 
L 221.399515 -74.027768 
L 221.39772 -74.530323 
L 221.393192 -75.032877 
L 221.387098 -75.535432 
L 221.384481 -76.037986 
L 221.388152 -76.540541 
L 221.394259 -77.043095 
L 221.398234 -77.54565 
L 221.399655 -78.048204 
L 221.399957 -78.550759 
L 221.399997 -79.053313 
L 221.4 -79.555867 
L 221.4 -80.058422 
L 221.4 -80.560976 
L 221.4 -81.063531 
L 221.399996 -81.566085 
L 221.399956 -82.06864 
L 221.399644 -82.571194 
L 221.398192 -83.073749 
L 221.394165 -83.576303 
L 221.388052 -84.078858 
L 221.384471 -84.581412 
L 221.387189 -85.083966 
L 221.393291 -85.586521 
L 221.397756 -86.089075 
L 221.399385 -86.59163 
L 221.399032 -87.094184 
L 221.396396 -87.596739 
L 221.390914 -88.099293 
L 221.385439 -88.601848 
L 221.385188 -89.104402 
L 221.390437 -89.606956 
L 221.396081 -90.109511 
L 221.398981 -90.612065 
L 221.399832 -91.11462 
L 221.399982 -91.617174 
L 221.399999 -92.119729 
L 221.399996 -92.622283 
L 221.399947 -93.124838 
L 221.39959 -93.627392 
L 221.397989 -94.129947 
L 221.393735 -94.632501 
L 221.387612 -95.135055 
L 221.38445 -95.63761 
L 221.41555 -95.63761 
L 221.41555 -95.63761 
L 221.412388 -95.135055 
L 221.406265 -94.632501 
L 221.402011 -94.129947 
L 221.40041 -93.627392 
L 221.400053 -93.124838 
L 221.400004 -92.622283 
L 221.400001 -92.119729 
L 221.400018 -91.617174 
L 221.400168 -91.11462 
L 221.401019 -90.612065 
L 221.403919 -90.109511 
L 221.409563 -89.606956 
L 221.414812 -89.104402 
L 221.414561 -88.601848 
L 221.409086 -88.099293 
L 221.403604 -87.596739 
L 221.400968 -87.094184 
L 221.400615 -86.59163 
L 221.402244 -86.089075 
L 221.406709 -85.586521 
L 221.412811 -85.083966 
L 221.415529 -84.581412 
L 221.411948 -84.078858 
L 221.405835 -83.576303 
L 221.401808 -83.073749 
L 221.400356 -82.571194 
L 221.400044 -82.06864 
L 221.400004 -81.566085 
L 221.4 -81.063531 
L 221.4 -80.560976 
L 221.4 -80.058422 
L 221.4 -79.555867 
L 221.400003 -79.053313 
L 221.400043 -78.550759 
L 221.400345 -78.048204 
L 221.401766 -77.54565 
L 221.405741 -77.043095 
L 221.411848 -76.540541 
L 221.415519 -76.037986 
L 221.412902 -75.535432 
L 221.406808 -75.032877 
L 221.40228 -74.530323 
L 221.400485 -74.027768 
L 221.400065 -73.525214 
L 221.400006 -73.02266 
L 221.4 -72.520105 
L 221.4 -72.017551 
L 221.4 -71.514996 
L 221.4 -71.012442 
L 221.4 -70.509887 
L 221.4 -70.007333 
L 221.4 -69.504778 
L 221.4 -69.002224 
L 221.4 -68.49967 
L 221.400001 -67.997115 
L 221.40001 -67.494561 
L 221.400103 -66.992006 
L 221.400696 -66.489452 
L 221.40302 -65.986897 
L 221.408508 -65.484343 
L 221.416123 -64.981788 
L 221.422271 -64.479234 
L 221.425702 -63.976679 
L 221.428585 -63.474125 
L 221.432457 -62.971571 
L 221.435116 -62.469016 
L 221.43228 -61.966462 
L 221.425604 -61.463907 
L 221.421432 -60.961353 
L 221.420506 -60.458798 
L 221.420755 -59.956244 
L 221.424106 -59.453689 
L 221.43158 -58.951135 
L 221.439278 -58.448581 
L 221.441322 -57.946026 
L 221.435948 -57.443472 
L 221.427 -56.940917 
L 221.418295 -56.438363 
L 221.413308 -55.935808 
L 221.414716 -55.433254 
L 221.42015 -54.930699 
L 221.426986 -54.428145 
L 221.438406 -53.92559 
L 221.455661 -53.423036 
L 221.470172 -52.920482 
L 221.471147 -52.417927 
L 221.45863 -51.915373 
L 221.446512 -51.412818 
L 221.4506 -50.910264 
L 221.470699 -50.407709 
L 221.490929 -49.905155 
L 221.501999 -49.4026 
L 221.52207 -48.900046 
L 221.640234 -48.397491 
L 222.216377 -47.894937 
L 224.250007 -47.392383 
L 228.824577 -46.889828 
L 234.419271 -46.387274 
L 236.28 -45.884719 
z
" id="mb397da6d5e" style="stroke:#3d3d3d;stroke-width:1.5;"/>
    </defs>
    <g clip-path="url(#p86707e60f3)">
     <use style="fill:#e1812c;stroke:#3d3d3d;stroke-width:1.5;" x="0" xlink:href="#mb397da6d5e" y="288"/>
    </g>
   </g>
   <g id="PolyCollection_3">
    <defs>
     <path d="M 377.64 -45.884907 
L 347.88 -45.884907 
L 352.810594 -47.069581 
L 360.214256 -48.254256 
L 362.450004 -49.43893 
L 362.688386 -50.623604 
L 362.684284 -51.808278 
L 362.672606 -52.992953 
L 362.673606 -54.177627 
L 362.680929 -55.362301 
L 362.693866 -56.546975 
L 362.714182 -57.73165 
L 362.742388 -58.916324 
L 362.757133 -60.100998 
L 362.759816 -61.285672 
L 362.759832 -62.470347 
L 362.757958 -63.655021 
L 362.750764 -64.839695 
L 362.74483 -66.024369 
L 362.75095 -67.209044 
L 362.758039 -68.393718 
L 362.759846 -69.578392 
L 362.759996 -70.763066 
L 362.76 -71.94774 
L 362.76 -73.132415 
L 362.759996 -74.317089 
L 362.759861 -75.501763 
L 362.758164 -76.686437 
L 362.751046 -77.871112 
L 362.74236 -79.055786 
L 362.739791 -80.24046 
L 362.737218 -81.425134 
L 362.730769 -82.609809 
L 362.728801 -83.794483 
L 362.744195 -84.979157 
L 362.756886 -86.163831 
L 362.75977 -87.348506 
L 362.759994 -88.53318 
L 362.76 -89.717854 
L 362.759974 -90.902528 
L 362.759435 -92.087203 
L 362.755501 -93.271877 
L 362.746979 -94.456551 
L 362.746312 -95.641225 
L 362.754774 -96.8259 
L 362.759275 -98.010574 
L 362.759964 -99.195248 
L 362.759999 -100.379922 
L 362.76 -101.564596 
L 362.76 -102.749271 
L 362.76 -103.933945 
L 362.76 -105.118619 
L 362.76 -106.303293 
L 362.76 -107.487968 
L 362.76 -108.672642 
L 362.76 -109.857316 
L 362.76 -111.04199 
L 362.76 -112.226665 
L 362.76 -113.411339 
L 362.76 -114.596013 
L 362.76 -115.780687 
L 362.76 -116.965362 
L 362.76 -118.150036 
L 362.76 -119.33471 
L 362.76 -120.519384 
L 362.76 -121.704059 
L 362.76 -122.888733 
L 362.76 -124.073407 
L 362.76 -125.258081 
L 362.76 -126.442756 
L 362.76 -127.62743 
L 362.76 -128.812104 
L 362.76 -129.996778 
L 362.76 -131.181452 
L 362.76 -132.366127 
L 362.76 -133.550801 
L 362.76 -134.735475 
L 362.76 -135.920149 
L 362.76 -137.104824 
L 362.76 -138.289498 
L 362.76 -139.474172 
L 362.76 -140.658846 
L 362.76 -141.843521 
L 362.76 -143.028195 
L 362.76 -144.212869 
L 362.76 -145.397543 
L 362.76 -146.582218 
L 362.76 -147.766892 
L 362.76 -148.951566 
L 362.76 -150.13624 
L 362.76 -151.320915 
L 362.76 -152.505589 
L 362.76 -153.690263 
L 362.76 -154.874937 
L 362.76 -156.059612 
L 362.76 -157.244286 
L 362.759995 -158.42896 
L 362.759841 -159.613634 
L 362.757999 -160.798308 
L 362.750857 -161.982983 
L 362.744829 -163.167657 
L 362.775171 -163.167657 
L 362.775171 -163.167657 
L 362.769143 -161.982983 
L 362.762001 -160.798308 
L 362.760159 -159.613634 
L 362.760005 -158.42896 
L 362.76 -157.244286 
L 362.76 -156.059612 
L 362.76 -154.874937 
L 362.76 -153.690263 
L 362.76 -152.505589 
L 362.76 -151.320915 
L 362.76 -150.13624 
L 362.76 -148.951566 
L 362.76 -147.766892 
L 362.76 -146.582218 
L 362.76 -145.397543 
L 362.76 -144.212869 
L 362.76 -143.028195 
L 362.76 -141.843521 
L 362.76 -140.658846 
L 362.76 -139.474172 
L 362.76 -138.289498 
L 362.76 -137.104824 
L 362.76 -135.920149 
L 362.76 -134.735475 
L 362.76 -133.550801 
L 362.76 -132.366127 
L 362.76 -131.181452 
L 362.76 -129.996778 
L 362.76 -128.812104 
L 362.76 -127.62743 
L 362.76 -126.442756 
L 362.76 -125.258081 
L 362.76 -124.073407 
L 362.76 -122.888733 
L 362.76 -121.704059 
L 362.76 -120.519384 
L 362.76 -119.33471 
L 362.76 -118.150036 
L 362.76 -116.965362 
L 362.76 -115.780687 
L 362.76 -114.596013 
L 362.76 -113.411339 
L 362.76 -112.226665 
L 362.76 -111.04199 
L 362.76 -109.857316 
L 362.76 -108.672642 
L 362.76 -107.487968 
L 362.76 -106.303293 
L 362.76 -105.118619 
L 362.76 -103.933945 
L 362.76 -102.749271 
L 362.76 -101.564596 
L 362.760001 -100.379922 
L 362.760036 -99.195248 
L 362.760725 -98.010574 
L 362.765226 -96.8259 
L 362.773688 -95.641225 
L 362.773021 -94.456551 
L 362.764499 -93.271877 
L 362.760565 -92.087203 
L 362.760026 -90.902528 
L 362.76 -89.717854 
L 362.760006 -88.53318 
L 362.76023 -87.348506 
L 362.763114 -86.163831 
L 362.775805 -84.979157 
L 362.791199 -83.794483 
L 362.789231 -82.609809 
L 362.782782 -81.425134 
L 362.780209 -80.24046 
L 362.77764 -79.055786 
L 362.768954 -77.871112 
L 362.761836 -76.686437 
L 362.760139 -75.501763 
L 362.760004 -74.317089 
L 362.76 -73.132415 
L 362.76 -71.94774 
L 362.760004 -70.763066 
L 362.760154 -69.578392 
L 362.761961 -68.393718 
L 362.76905 -67.209044 
L 362.77517 -66.024369 
L 362.769236 -64.839695 
L 362.762042 -63.655021 
L 362.760168 -62.470347 
L 362.760184 -61.285672 
L 362.762867 -60.100998 
L 362.777612 -58.916324 
L 362.805818 -57.73165 
L 362.826134 -56.546975 
L 362.839071 -55.362301 
L 362.846394 -54.177627 
L 362.847394 -52.992953 
L 362.835716 -51.808278 
L 362.831614 -50.623604 
L 363.069996 -49.43893 
L 365.305744 -48.254256 
L 372.709406 -47.069581 
L 377.64 -45.884907 
z
" id="md53946b857" style="stroke:#3d3d3d;stroke-width:1.5;"/>
    </defs>
    <g clip-path="url(#p86707e60f3)">
     <use style="fill:#3a923a;stroke:#3d3d3d;stroke-width:1.5;" x="0" xlink:href="#md53946b857" y="288"/>
    </g>
   </g>
   <g id="patch_3">
    <path clip-path="url(#p86707e60f3)" d="M 109.8 242.165451 
L 109.8 242.165451 
L 109.8 242.165451 
L 109.8 242.165451 
z
" style="fill:#3274a1;stroke:#3d3d3d;stroke-linejoin:miter;stroke-width:0.75;"/>
   </g>
   <g id="patch_4">
    <path clip-path="url(#p86707e60f3)" d="M 109.8 242.165451 
L 109.8 242.165451 
L 109.8 242.165451 
L 109.8 242.165451 
z
" style="fill:#e1812c;stroke:#3d3d3d;stroke-linejoin:miter;stroke-width:0.75;"/>
   </g>
   <g id="patch_5">
    <path clip-path="url(#p86707e60f3)" d="M 109.8 242.165451 
L 109.8 242.165451 
L 109.8 242.165451 
L 109.8 242.165451 
z
" style="fill:#3a923a;stroke:#3d3d3d;stroke-linejoin:miter;stroke-width:0.75;"/>
   </g>
   <g id="matplotlib.axis_1">
    <g id="xtick_1">
     <g id="line2d_1">
      <defs>
       <path d="M 0 0 
L 0 3.5 
" id="m504c1c1995" style="stroke:#000000;stroke-width:0.8;"/>
      </defs>
      <g>
       <use style="stroke:#000000;stroke-width:0.8;" x="109.8" xlink:href="#m504c1c1995" y="252"/>
      </g>
     </g>
     <g id="text_1">
      <!-- train -->
      <g transform="translate(98.1625 266.598437)scale(0.1 -0.1)">
       <defs>
        <path d="M 18.3125 70.21875 
L 18.3125 54.6875 
L 36.8125 54.6875 
L 36.8125 47.703125 
L 18.3125 47.703125 
L 18.3125 18.015625 
Q 18.3125 11.328125 20.140625 9.421875 
Q 21.96875 7.515625 27.59375 7.515625 
L 36.8125 7.515625 
L 36.8125 0 
L 27.59375 0 
Q 17.1875 0 13.234375 3.875 
Q 9.28125 7.765625 9.28125 18.015625 
L 9.28125 47.703125 
L 2.6875 47.703125 
L 2.6875 54.6875 
L 9.28125 54.6875 
L 9.28125 70.21875 
z
" id="DejaVuSans-116"/>
        <path d="M 41.109375 46.296875 
Q 39.59375 47.171875 37.8125 47.578125 
Q 36.03125 48 33.890625 48 
Q 26.265625 48 22.1875 43.046875 
Q 18.109375 38.09375 18.109375 28.8125 
L 18.109375 0 
L 9.078125 0 
L 9.078125 54.6875 
L 18.109375 54.6875 
L 18.109375 46.1875 
Q 20.953125 51.171875 25.484375 53.578125 
Q 30.03125 56 36.53125 56 
Q 37.453125 56 38.578125 55.875 
Q 39.703125 55.765625 41.0625 55.515625 
z
" id="DejaVuSans-114"/>
        <path d="M 34.28125 27.484375 
Q 23.390625 27.484375 19.1875 25 
Q 14.984375 22.515625 14.984375 16.5 
Q 14.984375 11.71875 18.140625 8.90625 
Q 21.296875 6.109375 26.703125 6.109375 
Q 34.1875 6.109375 38.703125 11.40625 
Q 43.21875 16.703125 43.21875 25.484375 
L 43.21875 27.484375 
z
M 52.203125 31.203125 
L 52.203125 0 
L 43.21875 0 
L 43.21875 8.296875 
Q 40.140625 3.328125 35.546875 0.953125 
Q 30.953125 -1.421875 24.3125 -1.421875 
Q 15.921875 -1.421875 10.953125 3.296875 
Q 6 8.015625 6 15.921875 
Q 6 25.140625 12.171875 29.828125 
Q 18.359375 34.515625 30.609375 34.515625 
L 43.21875 34.515625 
L 43.21875 35.40625 
Q 43.21875 41.609375 39.140625 45 
Q 35.0625 48.390625 27.6875 48.390625 
Q 23 48.390625 18.546875 47.265625 
Q 14.109375 46.140625 10.015625 43.890625 
L 10.015625 52.203125 
Q 14.9375 54.109375 19.578125 55.046875 
Q 24.21875 56 28.609375 56 
Q 40.484375 56 46.34375 49.84375 
Q 52.203125 43.703125 52.203125 31.203125 
z
" id="DejaVuSans-97"/>
        <path d="M 9.421875 54.6875 
L 18.40625 54.6875 
L 18.40625 0 
L 9.421875 0 
z
M 9.421875 75.984375 
L 18.40625 75.984375 
L 18.40625 64.59375 
L 9.421875 64.59375 
z
" id="DejaVuSans-105"/>
        <path d="M 54.890625 33.015625 
L 54.890625 0 
L 45.90625 0 
L 45.90625 32.71875 
Q 45.90625 40.484375 42.875 44.328125 
Q 39.84375 48.1875 33.796875 48.1875 
Q 26.515625 48.1875 22.3125 43.546875 
Q 18.109375 38.921875 18.109375 30.90625 
L 18.109375 0 
L 9.078125 0 
L 9.078125 54.6875 
L 18.109375 54.6875 
L 18.109375 46.1875 
Q 21.34375 51.125 25.703125 53.5625 
Q 30.078125 56 35.796875 56 
Q 45.21875 56 50.046875 50.171875 
Q 54.890625 44.34375 54.890625 33.015625 
z
" id="DejaVuSans-110"/>
       </defs>
       <use xlink:href="#DejaVuSans-116"/>
       <use x="39.208984" xlink:href="#DejaVuSans-114"/>
       <use x="80.322266" xlink:href="#DejaVuSans-97"/>
       <use x="141.601562" xlink:href="#DejaVuSans-105"/>
       <use x="169.384766" xlink:href="#DejaVuSans-110"/>
      </g>
     </g>
    </g>
    <g id="xtick_2">
     <g id="line2d_2">
      <g>
       <use style="stroke:#000000;stroke-width:0.8;" x="221.4" xlink:href="#m504c1c1995" y="252"/>
      </g>
     </g>
     <g id="text_2">
      <!-- val -->
      <g transform="translate(213.9875 266.598437)scale(0.1 -0.1)">
       <defs>
        <path d="M 2.984375 54.6875 
L 12.5 54.6875 
L 29.59375 8.796875 
L 46.6875 54.6875 
L 56.203125 54.6875 
L 35.6875 0 
L 23.484375 0 
z
" id="DejaVuSans-118"/>
        <path d="M 9.421875 75.984375 
L 18.40625 75.984375 
L 18.40625 0 
L 9.421875 0 
z
" id="DejaVuSans-108"/>
       </defs>
       <use xlink:href="#DejaVuSans-118"/>
       <use x="59.179688" xlink:href="#DejaVuSans-97"/>
       <use x="120.458984" xlink:href="#DejaVuSans-108"/>
      </g>
     </g>
    </g>
    <g id="xtick_3">
     <g id="line2d_3">
      <g>
       <use style="stroke:#000000;stroke-width:0.8;" x="333" xlink:href="#m504c1c1995" y="252"/>
      </g>
     </g>
     <g id="text_3">
      <!-- test -->
      <g transform="translate(323.398438 266.598437)scale(0.1 -0.1)">
       <defs>
        <path d="M 56.203125 29.59375 
L 56.203125 25.203125 
L 14.890625 25.203125 
Q 15.484375 15.921875 20.484375 11.0625 
Q 25.484375 6.203125 34.421875 6.203125 
Q 39.59375 6.203125 44.453125 7.46875 
Q 49.3125 8.734375 54.109375 11.28125 
L 54.109375 2.78125 
Q 49.265625 0.734375 44.1875 -0.34375 
Q 39.109375 -1.421875 33.890625 -1.421875 
Q 20.796875 -1.421875 13.15625 6.1875 
Q 5.515625 13.8125 5.515625 26.8125 
Q 5.515625 40.234375 12.765625 48.109375 
Q 20.015625 56 32.328125 56 
Q 43.359375 56 49.78125 48.890625 
Q 56.203125 41.796875 56.203125 29.59375 
z
M 47.21875 32.234375 
Q 47.125 39.59375 43.09375 43.984375 
Q 39.0625 48.390625 32.421875 48.390625 
Q 24.90625 48.390625 20.390625 44.140625 
Q 15.875 39.890625 15.1875 32.171875 
z
" id="DejaVuSans-101"/>
        <path d="M 44.28125 53.078125 
L 44.28125 44.578125 
Q 40.484375 46.53125 36.375 47.5 
Q 32.28125 48.484375 27.875 48.484375 
Q 21.1875 48.484375 17.84375 46.4375 
Q 14.5 44.390625 14.5 40.28125 
Q 14.5 37.15625 16.890625 35.375 
Q 19.28125 33.59375 26.515625 31.984375 
L 29.59375 31.296875 
Q 39.15625 29.25 43.1875 25.515625 
Q 47.21875 21.78125 47.21875 15.09375 
Q 47.21875 7.46875 41.1875 3.015625 
Q 35.15625 -1.421875 24.609375 -1.421875 
Q 20.21875 -1.421875 15.453125 -0.5625 
Q 10.6875 0.296875 5.421875 2 
L 5.421875 11.28125 
Q 10.40625 8.6875 15.234375 7.390625 
Q 20.0625 6.109375 24.8125 6.109375 
Q 31.15625 6.109375 34.5625 8.28125 
Q 37.984375 10.453125 37.984375 14.40625 
Q 37.984375 18.0625 35.515625 20.015625 
Q 33.0625 21.96875 24.703125 23.78125 
L 21.578125 24.515625 
Q 13.234375 26.265625 9.515625 29.90625 
Q 5.8125 33.546875 5.8125 39.890625 
Q 5.8125 47.609375 11.28125 51.796875 
Q 16.75 56 26.8125 56 
Q 31.78125 56 36.171875 55.265625 
Q 40.578125 54.546875 44.28125 53.078125 
z
" id="DejaVuSans-115"/>
       </defs>
       <use xlink:href="#DejaVuSans-116"/>
       <use x="39.208984" xlink:href="#DejaVuSans-101"/>
       <use x="100.732422" xlink:href="#DejaVuSans-115"/>
       <use x="152.832031" xlink:href="#DejaVuSans-116"/>
      </g>
     </g>
    </g>
    <g id="text_4">
     <!-- set -->
     <g transform="translate(213.758594 280.276563)scale(0.1 -0.1)">
      <use xlink:href="#DejaVuSans-115"/>
      <use x="52.099609" xlink:href="#DejaVuSans-101"/>
      <use x="113.623047" xlink:href="#DejaVuSans-116"/>
     </g>
    </g>
   </g>
   <g id="matplotlib.axis_2">
    <g id="ytick_1">
     <g id="line2d_4">
      <defs>
       <path d="M 0 0 
L -3.5 0 
" id="mec75127653" style="stroke:#000000;stroke-width:0.8;"/>
      </defs>
      <g>
       <use style="stroke:#000000;stroke-width:0.8;" x="54" xlink:href="#mec75127653" y="242.165451"/>
      </g>
     </g>
     <g id="text_5">
      <!-- 0.00 -->
      <g transform="translate(24.734375 245.96467)scale(0.1 -0.1)">
       <defs>
        <path d="M 31.78125 66.40625 
Q 24.171875 66.40625 20.328125 58.90625 
Q 16.5 51.421875 16.5 36.375 
Q 16.5 21.390625 20.328125 13.890625 
Q 24.171875 6.390625 31.78125 6.390625 
Q 39.453125 6.390625 43.28125 13.890625 
Q 47.125 21.390625 47.125 36.375 
Q 47.125 51.421875 43.28125 58.90625 
Q 39.453125 66.40625 31.78125 66.40625 
z
M 31.78125 74.21875 
Q 44.046875 74.21875 50.515625 64.515625 
Q 56.984375 54.828125 56.984375 36.375 
Q 56.984375 17.96875 50.515625 8.265625 
Q 44.046875 -1.421875 31.78125 -1.421875 
Q 19.53125 -1.421875 13.0625 8.265625 
Q 6.59375 17.96875 6.59375 36.375 
Q 6.59375 54.828125 13.0625 64.515625 
Q 19.53125 74.21875 31.78125 74.21875 
z
" id="DejaVuSans-48"/>
        <path d="M 10.6875 12.40625 
L 21 12.40625 
L 21 0 
L 10.6875 0 
z
" id="DejaVuSans-46"/>
       </defs>
       <use xlink:href="#DejaVuSans-48"/>
       <use x="63.623047" xlink:href="#DejaVuSans-46"/>
       <use x="95.410156" xlink:href="#DejaVuSans-48"/>
       <use x="159.033203" xlink:href="#DejaVuSans-48"/>
      </g>
     </g>
    </g>
    <g id="ytick_2">
     <g id="line2d_5">
      <g>
       <use style="stroke:#000000;stroke-width:0.8;" x="54" xlink:href="#mec75127653" y="199.284916"/>
      </g>
     </g>
     <g id="text_6">
      <!-- 0.01 -->
      <g transform="translate(24.734375 203.084134)scale(0.1 -0.1)">
       <defs>
        <path d="M 12.40625 8.296875 
L 28.515625 8.296875 
L 28.515625 63.921875 
L 10.984375 60.40625 
L 10.984375 69.390625 
L 28.421875 72.90625 
L 38.28125 72.90625 
L 38.28125 8.296875 
L 54.390625 8.296875 
L 54.390625 0 
L 12.40625 0 
z
" id="DejaVuSans-49"/>
       </defs>
       <use xlink:href="#DejaVuSans-48"/>
       <use x="63.623047" xlink:href="#DejaVuSans-46"/>
       <use x="95.410156" xlink:href="#DejaVuSans-48"/>
       <use x="159.033203" xlink:href="#DejaVuSans-49"/>
      </g>
     </g>
    </g>
    <g id="ytick_3">
     <g id="line2d_6">
      <g>
       <use style="stroke:#000000;stroke-width:0.8;" x="54" xlink:href="#mec75127653" y="156.40438"/>
      </g>
     </g>
     <g id="text_7">
      <!-- 0.02 -->
      <g transform="translate(24.734375 160.203599)scale(0.1 -0.1)">
       <defs>
        <path d="M 19.1875 8.296875 
L 53.609375 8.296875 
L 53.609375 0 
L 7.328125 0 
L 7.328125 8.296875 
Q 12.9375 14.109375 22.625 23.890625 
Q 32.328125 33.6875 34.8125 36.53125 
Q 39.546875 41.84375 41.421875 45.53125 
Q 43.3125 49.21875 43.3125 52.78125 
Q 43.3125 58.59375 39.234375 62.25 
Q 35.15625 65.921875 28.609375 65.921875 
Q 23.96875 65.921875 18.8125 64.3125 
Q 13.671875 62.703125 7.8125 59.421875 
L 7.8125 69.390625 
Q 13.765625 71.78125 18.9375 73 
Q 24.125 74.21875 28.421875 74.21875 
Q 39.75 74.21875 46.484375 68.546875 
Q 53.21875 62.890625 53.21875 53.421875 
Q 53.21875 48.921875 51.53125 44.890625 
Q 49.859375 40.875 45.40625 35.40625 
Q 44.1875 33.984375 37.640625 27.21875 
Q 31.109375 20.453125 19.1875 8.296875 
z
" id="DejaVuSans-50"/>
       </defs>
       <use xlink:href="#DejaVuSans-48"/>
       <use x="63.623047" xlink:href="#DejaVuSans-46"/>
       <use x="95.410156" xlink:href="#DejaVuSans-48"/>
       <use x="159.033203" xlink:href="#DejaVuSans-50"/>
      </g>
     </g>
    </g>
    <g id="ytick_4">
     <g id="line2d_7">
      <g>
       <use style="stroke:#000000;stroke-width:0.8;" x="54" xlink:href="#mec75127653" y="113.523845"/>
      </g>
     </g>
     <g id="text_8">
      <!-- 0.03 -->
      <g transform="translate(24.734375 117.323064)scale(0.1 -0.1)">
       <defs>
        <path d="M 40.578125 39.3125 
Q 47.65625 37.796875 51.625 33 
Q 55.609375 28.21875 55.609375 21.1875 
Q 55.609375 10.40625 48.1875 4.484375 
Q 40.765625 -1.421875 27.09375 -1.421875 
Q 22.515625 -1.421875 17.65625 -0.515625 
Q 12.796875 0.390625 7.625 2.203125 
L 7.625 11.71875 
Q 11.71875 9.328125 16.59375 8.109375 
Q 21.484375 6.890625 26.8125 6.890625 
Q 36.078125 6.890625 40.9375 10.546875 
Q 45.796875 14.203125 45.796875 21.1875 
Q 45.796875 27.640625 41.28125 31.265625 
Q 36.765625 34.90625 28.71875 34.90625 
L 20.21875 34.90625 
L 20.21875 43.015625 
L 29.109375 43.015625 
Q 36.375 43.015625 40.234375 45.921875 
Q 44.09375 48.828125 44.09375 54.296875 
Q 44.09375 59.90625 40.109375 62.90625 
Q 36.140625 65.921875 28.71875 65.921875 
Q 24.65625 65.921875 20.015625 65.03125 
Q 15.375 64.15625 9.8125 62.3125 
L 9.8125 71.09375 
Q 15.4375 72.65625 20.34375 73.4375 
Q 25.25 74.21875 29.59375 74.21875 
Q 40.828125 74.21875 47.359375 69.109375 
Q 53.90625 64.015625 53.90625 55.328125 
Q 53.90625 49.265625 50.4375 45.09375 
Q 46.96875 40.921875 40.578125 39.3125 
z
" id="DejaVuSans-51"/>
       </defs>
       <use xlink:href="#DejaVuSans-48"/>
       <use x="63.623047" xlink:href="#DejaVuSans-46"/>
       <use x="95.410156" xlink:href="#DejaVuSans-48"/>
       <use x="159.033203" xlink:href="#DejaVuSans-51"/>
      </g>
     </g>
    </g>
    <g id="ytick_5">
     <g id="line2d_8">
      <g>
       <use style="stroke:#000000;stroke-width:0.8;" x="54" xlink:href="#mec75127653" y="70.64331"/>
      </g>
     </g>
     <g id="text_9">
      <!-- 0.04 -->
      <g transform="translate(24.734375 74.442529)scale(0.1 -0.1)">
       <defs>
        <path d="M 37.796875 64.3125 
L 12.890625 25.390625 
L 37.796875 25.390625 
z
M 35.203125 72.90625 
L 47.609375 72.90625 
L 47.609375 25.390625 
L 58.015625 25.390625 
L 58.015625 17.1875 
L 47.609375 17.1875 
L 47.609375 0 
L 37.796875 0 
L 37.796875 17.1875 
L 4.890625 17.1875 
L 4.890625 26.703125 
z
" id="DejaVuSans-52"/>
       </defs>
       <use xlink:href="#DejaVuSans-48"/>
       <use x="63.623047" xlink:href="#DejaVuSans-46"/>
       <use x="95.410156" xlink:href="#DejaVuSans-48"/>
       <use x="159.033203" xlink:href="#DejaVuSans-52"/>
      </g>
     </g>
    </g>
    <g id="text_10">
     <!-- value -->
     <g transform="translate(18.654688 156.937813)rotate(-90)scale(0.1 -0.1)">
      <defs>
       <path d="M 8.5 21.578125 
L 8.5 54.6875 
L 17.484375 54.6875 
L 17.484375 21.921875 
Q 17.484375 14.15625 20.5 10.265625 
Q 23.53125 6.390625 29.59375 6.390625 
Q 36.859375 6.390625 41.078125 11.03125 
Q 45.3125 15.671875 45.3125 23.6875 
L 45.3125 54.6875 
L 54.296875 54.6875 
L 54.296875 0 
L 45.3125 0 
L 45.3125 8.40625 
Q 42.046875 3.421875 37.71875 1 
Q 33.40625 -1.421875 27.6875 -1.421875 
Q 18.265625 -1.421875 13.375 4.4375 
Q 8.5 10.296875 8.5 21.578125 
z
M 31.109375 56 
z
" id="DejaVuSans-117"/>
      </defs>
      <use xlink:href="#DejaVuSans-118"/>
      <use x="59.179688" xlink:href="#DejaVuSans-97"/>
      <use x="120.458984" xlink:href="#DejaVuSans-108"/>
      <use x="148.242188" xlink:href="#DejaVuSans-117"/>
      <use x="211.621094" xlink:href="#DejaVuSans-101"/>
     </g>
    </g>
   </g>
   <g id="line2d_9">
    <path clip-path="url(#p86707e60f3)" d="M 80.04 242.116364 
L 80.04 241.813974 
" style="fill:none;stroke:#3d3d3d;stroke-linecap:square;stroke-width:1.5;"/>
   </g>
   <g id="line2d_10">
    <path clip-path="url(#p86707e60f3)" d="M 80.04 242.099441 
L 80.04 241.984967 
" style="fill:none;stroke:#3d3d3d;stroke-linecap:square;stroke-width:4.5;"/>
   </g>
   <g id="line2d_11">
    <path clip-path="url(#p86707e60f3)" d="M 221.4 242.115281 
L 221.4 241.80733 
" style="fill:none;stroke:#3d3d3d;stroke-linecap:square;stroke-width:1.5;"/>
   </g>
   <g id="line2d_12">
    <path clip-path="url(#p86707e60f3)" d="M 221.4 242.096551 
L 221.4 241.979292 
" style="fill:none;stroke:#3d3d3d;stroke-linecap:square;stroke-width:4.5;"/>
   </g>
   <g id="line2d_13">
    <path clip-path="url(#p86707e60f3)" d="M 362.76 242.115093 
L 362.76 241.778548 
" style="fill:none;stroke:#3d3d3d;stroke-linecap:square;stroke-width:1.5;"/>
   </g>
   <g id="line2d_14">
    <path clip-path="url(#p86707e60f3)" d="M 362.76 242.097521 
L 362.76 241.969694 
" style="fill:none;stroke:#3d3d3d;stroke-linecap:square;stroke-width:4.5;"/>
   </g>
   <g id="patch_6">
    <path d="M 54 252 
L 54 34.56 
" style="fill:none;stroke:#000000;stroke-linecap:square;stroke-linejoin:miter;stroke-width:0.8;"/>
   </g>
   <g id="patch_7">
    <path d="M 388.8 252 
L 388.8 34.56 
" style="fill:none;stroke:#000000;stroke-linecap:square;stroke-linejoin:miter;stroke-width:0.8;"/>
   </g>
   <g id="patch_8">
    <path d="M 54 252 
L 388.8 252 
" style="fill:none;stroke:#000000;stroke-linecap:square;stroke-linejoin:miter;stroke-width:0.8;"/>
   </g>
   <g id="patch_9">
    <path d="M 54 34.56 
L 388.8 34.56 
" style="fill:none;stroke:#000000;stroke-linecap:square;stroke-linejoin:miter;stroke-width:0.8;"/>
   </g>
   <g id="PathCollection_1">
    <defs>
     <path d="M 0 1.5 
C 0.397805 1.5 0.77937 1.341951 1.06066 1.06066 
C 1.341951 0.77937 1.5 0.397805 1.5 0 
C 1.5 -0.397805 1.341951 -0.77937 1.06066 -1.06066 
C 0.77937 -1.341951 0.397805 -1.5 0 -1.5 
C -0.397805 -1.5 -0.77937 -1.341951 -1.06066 -1.06066 
C -1.341951 -0.77937 -1.5 -0.397805 -1.5 0 
C -1.5 0.397805 -1.341951 0.77937 -1.06066 1.06066 
C -0.77937 1.341951 -0.397805 1.5 0 1.5 
z
" id="m9348c5b244" style="stroke:#3d3d3d;"/>
    </defs>
    <g clip-path="url(#p86707e60f3)">
     <use style="fill:#ffffff;stroke:#3d3d3d;" x="80.04" xlink:href="#m9348c5b244" y="242.065392"/>
    </g>
   </g>
   <g id="PathCollection_2">
    <g clip-path="url(#p86707e60f3)">
     <use style="fill:#ffffff;stroke:#3d3d3d;" x="221.4" xlink:href="#m9348c5b244" y="242.05965"/>
    </g>
   </g>
   <g id="PathCollection_3">
    <g clip-path="url(#p86707e60f3)">
     <use style="fill:#ffffff;stroke:#3d3d3d;" x="362.76" xlink:href="#m9348c5b244" y="242.058368"/>
    </g>
   </g>
   <g id="legend_1">
    <g id="patch_10">
     <path d="M 326.525 101.2725 
L 381.8 101.2725 
Q 383.8 101.2725 383.8 99.2725 
L 383.8 41.56 
Q 383.8 39.56 381.8 39.56 
L 326.525 39.56 
Q 324.525 39.56 324.525 41.56 
L 324.525 99.2725 
Q 324.525 101.2725 326.525 101.2725 
z
" style="fill:#ffffff;opacity:0.8;stroke:#cccccc;stroke-linejoin:miter;"/>
    </g>
    <g id="text_11">
     <!-- set -->
     <g transform="translate(346.521094 51.158437)scale(0.1 -0.1)">
      <use xlink:href="#DejaVuSans-115"/>
      <use x="52.099609" xlink:href="#DejaVuSans-101"/>
      <use x="113.623047" xlink:href="#DejaVuSans-116"/>
     </g>
    </g>
    <g id="patch_11">
     <path d="M 328.525 65.836562 
L 348.525 65.836562 
L 348.525 58.836562 
L 328.525 58.836562 
z
" style="fill:#3274a1;stroke:#3d3d3d;stroke-linejoin:miter;stroke-width:0.75;"/>
    </g>
    <g id="text_12">
     <!-- train -->
     <g transform="translate(356.525 65.836562)scale(0.1 -0.1)">
      <use xlink:href="#DejaVuSans-116"/>
      <use x="39.208984" xlink:href="#DejaVuSans-114"/>
      <use x="80.322266" xlink:href="#DejaVuSans-97"/>
      <use x="141.601562" xlink:href="#DejaVuSans-105"/>
      <use x="169.384766" xlink:href="#DejaVuSans-110"/>
     </g>
    </g>
    <g id="patch_12">
     <path d="M 328.525 80.514687 
L 348.525 80.514687 
L 348.525 73.514687 
L 328.525 73.514687 
z
" style="fill:#e1812c;stroke:#3d3d3d;stroke-linejoin:miter;stroke-width:0.75;"/>
    </g>
    <g id="text_13">
     <!-- val -->
     <g transform="translate(356.525 80.514687)scale(0.1 -0.1)">
      <use xlink:href="#DejaVuSans-118"/>
      <use x="59.179688" xlink:href="#DejaVuSans-97"/>
      <use x="120.458984" xlink:href="#DejaVuSans-108"/>
     </g>
    </g>
    <g id="patch_13">
     <path d="M 328.525 95.192813 
L 348.525 95.192813 
L 348.525 88.192813 
L 328.525 88.192813 
z
" style="fill:#3a923a;stroke:#3d3d3d;stroke-linejoin:miter;stroke-width:0.75;"/>
    </g>
    <g id="text_14">
     <!-- test -->
     <g transform="translate(356.525 95.192813)scale(0.1 -0.1)">
      <use xlink:href="#DejaVuSans-116"/>
      <use x="39.208984" xlink:href="#DejaVuSans-101"/>
      <use x="100.732422" xlink:href="#DejaVuSans-115"/>
      <use x="152.832031" xlink:href="#DejaVuSans-116"/>
     </g>
    </g>
   </g>
  </g>
 </g>
 <defs>
  <clipPath id="p86707e60f3">
   <rect height="217.44" width="334.8" x="54" y="34.56"/>
  </clipPath>
 </defs>
</svg>
