<?xml version="1.0" encoding="utf-8" standalone="no"?>
<!DOCTYPE svg PUBLIC "-//W3C//DTD SVG 1.1//EN"
  "http://www.w3.org/Graphics/SVG/1.1/DTD/svg11.dtd">
<!-- Created with matplotlib (https://matplotlib.org/) -->
<svg height="288pt" version="1.1" viewBox="0 0 432 288" width="432pt" xmlns="http://www.w3.org/2000/svg" xmlns:xlink="http://www.w3.org/1999/xlink">
 <metadata>
  <rdf:RDF xmlns:cc="http://creativecommons.org/ns#" xmlns:dc="http://purl.org/dc/elements/1.1/" xmlns:rdf="http://www.w3.org/1999/02/22-rdf-syntax-ns#">
   <cc:Work>
    <dc:type rdf:resource="http://purl.org/dc/dcmitype/StillImage"/>
    <dc:date>2022-05-27T17:47:29.257782</dc:date>
    <dc:format>image/svg+xml</dc:format>
    <dc:creator>
     <cc:Agent>
      <dc:title>Matplotlib v3.3.4, https://matplotlib.org/</dc:title>
     </cc:Agent>
    </dc:creator>
   </cc:Work>
  </rdf:RDF>
 </metadata>
 <defs>
  <style type="text/css">*{stroke-linecap:butt;stroke-linejoin:round;}</style>
 </defs>
 <g id="figure_1">
  <g id="patch_1">
   <path d="M 0 288 
L 432 288 
L 432 0 
L 0 0 
z
" style="fill:#ffffff;"/>
  </g>
  <g id="axes_1">
   <g id="patch_2">
    <path d="M 54 252 
L 388.8 252 
L 388.8 34.56 
L 54 34.56 
z
" style="fill:#ffffff;"/>
   </g>
   <g id="PolyCollection_1">
    <defs>
     <path d="M 104.273535 -156.293169 
L 104.166465 -156.293169 
L 104.169599 -157.174616 
L 104.176981 -158.056062 
L 104.180811 -158.937508 
L 104.172493 -159.818955 
L 104.146177 -160.700401 
L 104.10145 -161.581848 
L 104.044658 -162.463294 
L 103.987956 -163.34474 
L 103.945407 -164.226187 
L 103.926703 -165.107633 
L 103.930866 -165.98908 
L 103.943746 -166.870526 
L 103.942843 -167.751972 
L 103.908918 -168.633419 
L 103.838488 -169.514865 
L 103.748919 -170.396312 
L 103.671029 -171.277758 
L 103.631596 -172.159205 
L 103.635817 -173.040651 
L 103.661538 -173.922097 
L 103.67041 -174.803544 
L 103.630165 -175.68499 
L 103.534022 -176.566437 
L 103.403969 -177.447883 
L 103.275766 -178.329329 
L 103.177605 -179.210776 
L 103.117805 -180.092222 
L 103.085947 -180.973669 
L 103.061133 -181.855115 
L 103.02263 -182.736561 
L 102.961263 -183.618008 
L 102.88405 -184.499454 
L 102.803352 -185.380901 
L 102.71761 -186.262347 
L 102.603756 -187.143793 
L 102.42961 -188.02524 
L 102.172579 -188.906686 
L 101.827211 -189.788133 
L 101.39852 -190.669579 
L 100.889483 -191.551026 
L 100.290995 -192.432472 
L 99.578541 -193.313918 
L 98.717387 -194.195365 
L 97.67302 -195.076811 
L 96.416733 -195.958258 
L 94.920576 -196.839704 
L 93.15462 -197.72115 
L 91.107838 -198.602597 
L 88.829423 -199.484043 
L 86.45153 -200.36549 
L 84.154557 -201.246936 
L 82.084824 -202.128382 
L 80.286988 -203.009829 
L 78.71132 -203.891275 
L 77.290177 -204.772722 
L 76.008832 -205.654168 
L 74.899716 -206.535614 
L 73.971916 -207.417061 
L 73.164477 -208.298507 
L 72.392779 -209.179954 
L 71.650665 -210.0614 
L 71.051226 -210.942847 
L 70.74 -211.824293 
L 70.75656 -212.705739 
L 70.991478 -213.587186 
L 71.289821 -214.468632 
L 71.59637 -215.350079 
L 72.004399 -216.231525 
L 72.682812 -217.112971 
L 73.766311 -217.994418 
L 75.291745 -218.875864 
L 77.199697 -219.757311 
L 79.379462 -220.638757 
L 81.72248 -221.520203 
L 84.144745 -222.40165 
L 86.565281 -223.283096 
L 88.880448 -224.164543 
L 90.981758 -225.045989 
L 92.80496 -225.927435 
L 94.352793 -226.808882 
L 95.667373 -227.690328 
L 96.788926 -228.571775 
L 97.744428 -229.453221 
L 98.564849 -230.334668 
L 99.296775 -231.216114 
L 99.987316 -232.09756 
L 100.656095 -232.979007 
L 101.283928 -233.860453 
L 101.831126 -234.7419 
L 102.270173 -235.623346 
L 102.605747 -236.504792 
L 102.868094 -237.386239 
L 103.089373 -238.267685 
L 103.285795 -239.149132 
L 103.459072 -240.030578 
L 103.609179 -240.912024 
L 103.741221 -241.793471 
L 103.861027 -242.674917 
L 103.968748 -243.556364 
L 104.471252 -243.556364 
L 104.471252 -243.556364 
L 104.578973 -242.674917 
L 104.698779 -241.793471 
L 104.830821 -240.912024 
L 104.980928 -240.030578 
L 105.154205 -239.149132 
L 105.350627 -238.267685 
L 105.571906 -237.386239 
L 105.834253 -236.504792 
L 106.169827 -235.623346 
L 106.608874 -234.7419 
L 107.156072 -233.860453 
L 107.783905 -232.979007 
L 108.452684 -232.09756 
L 109.143225 -231.216114 
L 109.875151 -230.334668 
L 110.695572 -229.453221 
L 111.651074 -228.571775 
L 112.772627 -227.690328 
L 114.087207 -226.808882 
L 115.63504 -225.927435 
L 117.458242 -225.045989 
L 119.559552 -224.164543 
L 121.874719 -223.283096 
L 124.295255 -222.40165 
L 126.71752 -221.520203 
L 129.060538 -220.638757 
L 131.240303 -219.757311 
L 133.148255 -218.875864 
L 134.673689 -217.994418 
L 135.757188 -217.112971 
L 136.435601 -216.231525 
L 136.84363 -215.350079 
L 137.150179 -214.468632 
L 137.448522 -213.587186 
L 137.68344 -212.705739 
L 137.7 -211.824293 
L 137.388774 -210.942847 
L 136.789335 -210.0614 
L 136.047221 -209.179954 
L 135.275523 -208.298507 
L 134.468084 -207.417061 
L 133.540284 -206.535614 
L 132.431168 -205.654168 
L 131.149823 -204.772722 
L 129.72868 -203.891275 
L 128.153012 -203.009829 
L 126.355176 -202.128382 
L 124.285443 -201.246936 
L 121.98847 -200.36549 
L 119.610577 -199.484043 
L 117.332162 -198.602597 
L 115.28538 -197.72115 
L 113.519424 -196.839704 
L 112.023267 -195.958258 
L 110.76698 -195.076811 
L 109.722613 -194.195365 
L 108.861459 -193.313918 
L 108.149005 -192.432472 
L 107.550517 -191.551026 
L 107.04148 -190.669579 
L 106.612789 -189.788133 
L 106.267421 -188.906686 
L 106.01039 -188.02524 
L 105.836244 -187.143793 
L 105.72239 -186.262347 
L 105.636648 -185.380901 
L 105.55595 -184.499454 
L 105.478737 -183.618008 
L 105.41737 -182.736561 
L 105.378867 -181.855115 
L 105.354053 -180.973669 
L 105.322195 -180.092222 
L 105.262395 -179.210776 
L 105.164234 -178.329329 
L 105.036031 -177.447883 
L 104.905978 -176.566437 
L 104.809835 -175.68499 
L 104.76959 -174.803544 
L 104.778462 -173.922097 
L 104.804183 -173.040651 
L 104.808404 -172.159205 
L 104.768971 -171.277758 
L 104.691081 -170.396312 
L 104.601512 -169.514865 
L 104.531082 -168.633419 
L 104.497157 -167.751972 
L 104.496254 -166.870526 
L 104.509134 -165.98908 
L 104.513297 -165.107633 
L 104.494593 -164.226187 
L 104.452044 -163.34474 
L 104.395342 -162.463294 
L 104.33855 -161.581848 
L 104.293823 -160.700401 
L 104.267507 -159.818955 
L 104.259189 -158.937508 
L 104.263019 -158.056062 
L 104.270401 -157.174616 
L 104.273535 -156.293169 
z
" id="m2a3e570ba7" style="stroke:#3f3f3f;stroke-width:1.5;"/>
    </defs>
    <g clip-path="url(#pfd40119796)">
     <use style="fill:#3274a1;stroke:#3f3f3f;stroke-width:1.5;" x="0" xlink:href="#m2a3e570ba7" y="288"/>
    </g>
   </g>
   <g id="PolyCollection_2">
    <defs>
     <path d="M 338.625457 -45.883636 
L 338.534543 -45.883636 
L 338.544307 -47.861709 
L 338.562721 -49.839782 
L 338.574843 -51.817855 
L 338.579051 -53.795928 
L 338.579892 -55.774001 
L 338.579992 -57.752074 
L 338.58 -59.730147 
L 338.58 -61.70822 
L 338.58 -63.686293 
L 338.58 -65.664366 
L 338.58 -67.642439 
L 338.58 -69.620512 
L 338.58 -71.598585 
L 338.58 -73.576658 
L 338.58 -75.554731 
L 338.58 -77.532803 
L 338.58 -79.510876 
L 338.58 -81.488949 
L 338.58 -83.467022 
L 338.58 -85.445095 
L 338.58 -87.423168 
L 338.58 -89.401241 
L 338.58 -91.379314 
L 338.58 -93.357387 
L 338.58 -95.33546 
L 338.58 -97.313533 
L 338.579999 -99.291606 
L 338.579977 -101.269679 
L 338.579723 -103.247752 
L 338.577858 -105.225825 
L 338.569438 -107.203898 
L 338.546042 -109.181971 
L 338.506508 -111.160043 
L 338.467927 -113.138116 
L 338.449481 -115.116189 
L 338.441972 -117.094262 
L 338.418353 -119.072335 
L 338.384745 -121.050408 
L 338.38122 -123.028481 
L 338.420891 -125.006554 
L 338.47194 -126.984627 
L 338.506463 -128.9627 
L 338.525796 -130.940773 
L 338.526809 -132.918846 
L 338.495893 -134.896919 
L 338.439909 -136.874992 
L 338.375122 -138.853065 
L 338.306364 -140.831138 
L 338.245905 -142.809211 
L 338.212194 -144.787284 
L 338.212948 -146.765356 
L 338.231906 -148.743429 
L 338.218246 -150.721502 
L 338.145375 -152.699575 
L 338.063391 -154.677648 
L 338.016878 -156.655721 
L 337.96339 -158.633794 
L 337.86469 -160.611867 
L 337.752083 -162.58994 
L 337.645241 -164.568013 
L 337.559532 -166.546086 
L 337.55315 -168.524159 
L 337.627377 -170.502232 
L 337.685157 -172.480305 
L 337.641868 -174.458378 
L 337.481213 -176.436451 
L 337.261653 -178.414524 
L 337.080237 -180.392597 
L 336.976854 -182.370669 
L 336.888913 -184.348742 
L 336.652572 -186.326815 
L 336.14063 -188.304888 
L 335.312122 -190.282961 
L 334.035891 -192.261034 
L 332.091421 -194.239107 
L 329.23368 -196.21718 
L 325.25794 -198.195253 
L 320.253897 -200.173326 
L 314.770898 -202.151399 
L 309.863353 -204.129472 
L 306.660479 -206.107545 
L 305.336923 -208.085618 
L 305.1 -210.063691 
L 305.213014 -212.041764 
L 305.271749 -214.019837 
L 305.306003 -215.997909 
L 305.944379 -217.975982 
L 307.779157 -219.954055 
L 311.029803 -221.932128 
L 315.667367 -223.910201 
L 321.019979 -225.888274 
L 325.901318 -227.866347 
L 329.62789 -229.84442 
L 332.340382 -231.822493 
L 334.396534 -233.800566 
L 335.959393 -235.778639 
L 337.077739 -237.756712 
L 337.803734 -239.734785 
L 338.223155 -241.712858 
L 338.936845 -241.712858 
L 338.936845 -241.712858 
L 339.356266 -239.734785 
L 340.082261 -237.756712 
L 341.200607 -235.778639 
L 342.763466 -233.800566 
L 344.819618 -231.822493 
L 347.53211 -229.84442 
L 351.258682 -227.866347 
L 356.140021 -225.888274 
L 361.492633 -223.910201 
L 366.130197 -221.932128 
L 369.380843 -219.954055 
L 371.215621 -217.975982 
L 371.853997 -215.997909 
L 371.888251 -214.019837 
L 371.946986 -212.041764 
L 372.06 -210.063691 
L 371.823077 -208.085618 
L 370.499521 -206.107545 
L 367.296647 -204.129472 
L 362.389102 -202.151399 
L 356.906103 -200.173326 
L 351.90206 -198.195253 
L 347.92632 -196.21718 
L 345.068579 -194.239107 
L 343.124109 -192.261034 
L 341.847878 -190.282961 
L 341.01937 -188.304888 
L 340.507428 -186.326815 
L 340.271087 -184.348742 
L 340.183146 -182.370669 
L 340.079763 -180.392597 
L 339.898347 -178.414524 
L 339.678787 -176.436451 
L 339.518132 -174.458378 
L 339.474843 -172.480305 
L 339.532623 -170.502232 
L 339.60685 -168.524159 
L 339.600468 -166.546086 
L 339.514759 -164.568013 
L 339.407917 -162.58994 
L 339.29531 -160.611867 
L 339.19661 -158.633794 
L 339.143122 -156.655721 
L 339.096609 -154.677648 
L 339.014625 -152.699575 
L 338.941754 -150.721502 
L 338.928094 -148.743429 
L 338.947052 -146.765356 
L 338.947806 -144.787284 
L 338.914095 -142.809211 
L 338.853636 -140.831138 
L 338.784878 -138.853065 
L 338.720091 -136.874992 
L 338.664107 -134.896919 
L 338.633191 -132.918846 
L 338.634204 -130.940773 
L 338.653537 -128.9627 
L 338.68806 -126.984627 
L 338.739109 -125.006554 
L 338.77878 -123.028481 
L 338.775255 -121.050408 
L 338.741647 -119.072335 
L 338.718028 -117.094262 
L 338.710519 -115.116189 
L 338.692073 -113.138116 
L 338.653492 -111.160043 
L 338.613958 -109.181971 
L 338.590562 -107.203898 
L 338.582142 -105.225825 
L 338.580277 -103.247752 
L 338.580023 -101.269679 
L 338.580001 -99.291606 
L 338.58 -97.313533 
L 338.58 -95.33546 
L 338.58 -93.357387 
L 338.58 -91.379314 
L 338.58 -89.401241 
L 338.58 -87.423168 
L 338.58 -85.445095 
L 338.58 -83.467022 
L 338.58 -81.488949 
L 338.58 -79.510876 
L 338.58 -77.532803 
L 338.58 -75.554731 
L 338.58 -73.576658 
L 338.58 -71.598585 
L 338.58 -69.620512 
L 338.58 -67.642439 
L 338.58 -65.664366 
L 338.58 -63.686293 
L 338.58 -61.70822 
L 338.58 -59.730147 
L 338.580008 -57.752074 
L 338.580108 -55.774001 
L 338.580949 -53.795928 
L 338.585157 -51.817855 
L 338.597279 -49.839782 
L 338.615693 -47.861709 
L 338.625457 -45.883636 
z
" id="m3a4c010eb3" style="stroke:#3f3f3f;stroke-width:1.5;"/>
    </defs>
    <g clip-path="url(#pfd40119796)">
     <use style="fill:#e1812c;stroke:#3f3f3f;stroke-width:1.5;" x="0" xlink:href="#m3a4c010eb3" y="288"/>
    </g>
   </g>
   <g id="patch_3">
    <path clip-path="url(#pfd40119796)" d="M 137.7 92.989957 
L 137.7 92.989957 
L 137.7 92.989957 
L 137.7 92.989957 
z
" style="fill:#3274a1;stroke:#3f3f3f;stroke-linejoin:miter;stroke-width:0.75;"/>
   </g>
   <g id="patch_4">
    <path clip-path="url(#pfd40119796)" d="M 137.7 92.989957 
L 137.7 92.989957 
L 137.7 92.989957 
L 137.7 92.989957 
z
" style="fill:#e1812c;stroke:#3f3f3f;stroke-linejoin:miter;stroke-width:0.75;"/>
   </g>
   <g id="matplotlib.axis_1">
    <g id="xtick_1">
     <g id="line2d_1">
      <defs>
       <path d="M 0 0 
L 0 3.5 
" id="md68d091914" style="stroke:#000000;stroke-width:0.8;"/>
      </defs>
      <g>
       <use style="stroke:#000000;stroke-width:0.8;" x="137.7" xlink:href="#md68d091914" y="252"/>
      </g>
     </g>
     <g id="text_1">
      <!-- Z_1_zero -->
      <g transform="translate(115.390625 266.320312)scale(0.1 -0.1)">
       <defs>
        <path d="M 5.609375 72.90625 
L 62.890625 72.90625 
L 62.890625 65.375 
L 16.796875 8.296875 
L 64.015625 8.296875 
L 64.015625 0 
L 4.5 0 
L 4.5 7.515625 
L 50.59375 64.59375 
L 5.609375 64.59375 
z
" id="DejaVuSans-90"/>
        <path d="M 50.984375 -16.609375 
L 50.984375 -23.578125 
L -0.984375 -23.578125 
L -0.984375 -16.609375 
z
" id="DejaVuSans-95"/>
        <path d="M 12.40625 8.296875 
L 28.515625 8.296875 
L 28.515625 63.921875 
L 10.984375 60.40625 
L 10.984375 69.390625 
L 28.421875 72.90625 
L 38.28125 72.90625 
L 38.28125 8.296875 
L 54.390625 8.296875 
L 54.390625 0 
L 12.40625 0 
z
" id="DejaVuSans-49"/>
        <path d="M 5.515625 54.6875 
L 48.1875 54.6875 
L 48.1875 46.484375 
L 14.40625 7.171875 
L 48.1875 7.171875 
L 48.1875 0 
L 4.296875 0 
L 4.296875 8.203125 
L 38.09375 47.515625 
L 5.515625 47.515625 
z
" id="DejaVuSans-122"/>
        <path d="M 56.203125 29.59375 
L 56.203125 25.203125 
L 14.890625 25.203125 
Q 15.484375 15.921875 20.484375 11.0625 
Q 25.484375 6.203125 34.421875 6.203125 
Q 39.59375 6.203125 44.453125 7.46875 
Q 49.3125 8.734375 54.109375 11.28125 
L 54.109375 2.78125 
Q 49.265625 0.734375 44.1875 -0.34375 
Q 39.109375 -1.421875 33.890625 -1.421875 
Q 20.796875 -1.421875 13.15625 6.1875 
Q 5.515625 13.8125 5.515625 26.8125 
Q 5.515625 40.234375 12.765625 48.109375 
Q 20.015625 56 32.328125 56 
Q 43.359375 56 49.78125 48.890625 
Q 56.203125 41.796875 56.203125 29.59375 
z
M 47.21875 32.234375 
Q 47.125 39.59375 43.09375 43.984375 
Q 39.0625 48.390625 32.421875 48.390625 
Q 24.90625 48.390625 20.390625 44.140625 
Q 15.875 39.890625 15.1875 32.171875 
z
" id="DejaVuSans-101"/>
        <path d="M 41.109375 46.296875 
Q 39.59375 47.171875 37.8125 47.578125 
Q 36.03125 48 33.890625 48 
Q 26.265625 48 22.1875 43.046875 
Q 18.109375 38.09375 18.109375 28.8125 
L 18.109375 0 
L 9.078125 0 
L 9.078125 54.6875 
L 18.109375 54.6875 
L 18.109375 46.1875 
Q 20.953125 51.171875 25.484375 53.578125 
Q 30.03125 56 36.53125 56 
Q 37.453125 56 38.578125 55.875 
Q 39.703125 55.765625 41.0625 55.515625 
z
" id="DejaVuSans-114"/>
        <path d="M 30.609375 48.390625 
Q 23.390625 48.390625 19.1875 42.75 
Q 14.984375 37.109375 14.984375 27.296875 
Q 14.984375 17.484375 19.15625 11.84375 
Q 23.34375 6.203125 30.609375 6.203125 
Q 37.796875 6.203125 41.984375 11.859375 
Q 46.1875 17.53125 46.1875 27.296875 
Q 46.1875 37.015625 41.984375 42.703125 
Q 37.796875 48.390625 30.609375 48.390625 
z
M 30.609375 56 
Q 42.328125 56 49.015625 48.375 
Q 55.71875 40.765625 55.71875 27.296875 
Q 55.71875 13.875 49.015625 6.21875 
Q 42.328125 -1.421875 30.609375 -1.421875 
Q 18.84375 -1.421875 12.171875 6.21875 
Q 5.515625 13.875 5.515625 27.296875 
Q 5.515625 40.765625 12.171875 48.375 
Q 18.84375 56 30.609375 56 
z
" id="DejaVuSans-111"/>
       </defs>
       <use xlink:href="#DejaVuSans-90"/>
       <use x="68.505859" xlink:href="#DejaVuSans-95"/>
       <use x="118.505859" xlink:href="#DejaVuSans-49"/>
       <use x="182.128906" xlink:href="#DejaVuSans-95"/>
       <use x="232.128906" xlink:href="#DejaVuSans-122"/>
       <use x="284.619141" xlink:href="#DejaVuSans-101"/>
       <use x="346.142578" xlink:href="#DejaVuSans-114"/>
       <use x="385.005859" xlink:href="#DejaVuSans-111"/>
      </g>
     </g>
    </g>
    <g id="xtick_2">
     <g id="line2d_2">
      <g>
       <use style="stroke:#000000;stroke-width:0.8;" x="305.1" xlink:href="#md68d091914" y="252"/>
      </g>
     </g>
     <g id="text_2">
      <!-- Z_2_zero -->
      <g transform="translate(282.790625 266.421875)scale(0.1 -0.1)">
       <defs>
        <path d="M 19.1875 8.296875 
L 53.609375 8.296875 
L 53.609375 0 
L 7.328125 0 
L 7.328125 8.296875 
Q 12.9375 14.109375 22.625 23.890625 
Q 32.328125 33.6875 34.8125 36.53125 
Q 39.546875 41.84375 41.421875 45.53125 
Q 43.3125 49.21875 43.3125 52.78125 
Q 43.3125 58.59375 39.234375 62.25 
Q 35.15625 65.921875 28.609375 65.921875 
Q 23.96875 65.921875 18.8125 64.3125 
Q 13.671875 62.703125 7.8125 59.421875 
L 7.8125 69.390625 
Q 13.765625 71.78125 18.9375 73 
Q 24.125 74.21875 28.421875 74.21875 
Q 39.75 74.21875 46.484375 68.546875 
Q 53.21875 62.890625 53.21875 53.421875 
Q 53.21875 48.921875 51.53125 44.890625 
Q 49.859375 40.875 45.40625 35.40625 
Q 44.1875 33.984375 37.640625 27.21875 
Q 31.109375 20.453125 19.1875 8.296875 
z
" id="DejaVuSans-50"/>
       </defs>
       <use xlink:href="#DejaVuSans-90"/>
       <use x="68.505859" xlink:href="#DejaVuSans-95"/>
       <use x="118.505859" xlink:href="#DejaVuSans-50"/>
       <use x="182.128906" xlink:href="#DejaVuSans-95"/>
       <use x="232.128906" xlink:href="#DejaVuSans-122"/>
       <use x="284.619141" xlink:href="#DejaVuSans-101"/>
       <use x="346.142578" xlink:href="#DejaVuSans-114"/>
       <use x="385.005859" xlink:href="#DejaVuSans-111"/>
      </g>
     </g>
    </g>
    <g id="text_3">
     <!-- set -->
     <g transform="translate(213.758594 280.378125)scale(0.1 -0.1)">
      <defs>
       <path d="M 44.28125 53.078125 
L 44.28125 44.578125 
Q 40.484375 46.53125 36.375 47.5 
Q 32.28125 48.484375 27.875 48.484375 
Q 21.1875 48.484375 17.84375 46.4375 
Q 14.5 44.390625 14.5 40.28125 
Q 14.5 37.15625 16.890625 35.375 
Q 19.28125 33.59375 26.515625 31.984375 
L 29.59375 31.296875 
Q 39.15625 29.25 43.1875 25.515625 
Q 47.21875 21.78125 47.21875 15.09375 
Q 47.21875 7.46875 41.1875 3.015625 
Q 35.15625 -1.421875 24.609375 -1.421875 
Q 20.21875 -1.421875 15.453125 -0.5625 
Q 10.6875 0.296875 5.421875 2 
L 5.421875 11.28125 
Q 10.40625 8.6875 15.234375 7.390625 
Q 20.0625 6.109375 24.8125 6.109375 
Q 31.15625 6.109375 34.5625 8.28125 
Q 37.984375 10.453125 37.984375 14.40625 
Q 37.984375 18.0625 35.515625 20.015625 
Q 33.0625 21.96875 24.703125 23.78125 
L 21.578125 24.515625 
Q 13.234375 26.265625 9.515625 29.90625 
Q 5.8125 33.546875 5.8125 39.890625 
Q 5.8125 47.609375 11.28125 51.796875 
Q 16.75 56 26.8125 56 
Q 31.78125 56 36.171875 55.265625 
Q 40.578125 54.546875 44.28125 53.078125 
z
" id="DejaVuSans-115"/>
       <path d="M 18.3125 70.21875 
L 18.3125 54.6875 
L 36.8125 54.6875 
L 36.8125 47.703125 
L 18.3125 47.703125 
L 18.3125 18.015625 
Q 18.3125 11.328125 20.140625 9.421875 
Q 21.96875 7.515625 27.59375 7.515625 
L 36.8125 7.515625 
L 36.8125 0 
L 27.59375 0 
Q 17.1875 0 13.234375 3.875 
Q 9.28125 7.765625 9.28125 18.015625 
L 9.28125 47.703125 
L 2.6875 47.703125 
L 2.6875 54.6875 
L 9.28125 54.6875 
L 9.28125 70.21875 
z
" id="DejaVuSans-116"/>
      </defs>
      <use xlink:href="#DejaVuSans-115"/>
      <use x="52.099609" xlink:href="#DejaVuSans-101"/>
      <use x="113.623047" xlink:href="#DejaVuSans-116"/>
     </g>
    </g>
   </g>
   <g id="matplotlib.axis_2">
    <g id="ytick_1">
     <g id="line2d_3">
      <defs>
       <path d="M 0 0 
L -3.5 0 
" id="m426d2c0318" style="stroke:#000000;stroke-width:0.8;"/>
      </defs>
      <g>
       <use style="stroke:#000000;stroke-width:0.8;" x="54" xlink:href="#m426d2c0318" y="250.026845"/>
      </g>
     </g>
     <g id="text_4">
      <!-- −60 -->
      <g transform="translate(25.895312 253.826064)scale(0.1 -0.1)">
       <defs>
        <path d="M 10.59375 35.5 
L 73.1875 35.5 
L 73.1875 27.203125 
L 10.59375 27.203125 
z
" id="DejaVuSans-8722"/>
        <path d="M 33.015625 40.375 
Q 26.375 40.375 22.484375 35.828125 
Q 18.609375 31.296875 18.609375 23.390625 
Q 18.609375 15.53125 22.484375 10.953125 
Q 26.375 6.390625 33.015625 6.390625 
Q 39.65625 6.390625 43.53125 10.953125 
Q 47.40625 15.53125 47.40625 23.390625 
Q 47.40625 31.296875 43.53125 35.828125 
Q 39.65625 40.375 33.015625 40.375 
z
M 52.59375 71.296875 
L 52.59375 62.3125 
Q 48.875 64.0625 45.09375 64.984375 
Q 41.3125 65.921875 37.59375 65.921875 
Q 27.828125 65.921875 22.671875 59.328125 
Q 17.53125 52.734375 16.796875 39.40625 
Q 19.671875 43.65625 24.015625 45.921875 
Q 28.375 48.1875 33.59375 48.1875 
Q 44.578125 48.1875 50.953125 41.515625 
Q 57.328125 34.859375 57.328125 23.390625 
Q 57.328125 12.15625 50.6875 5.359375 
Q 44.046875 -1.421875 33.015625 -1.421875 
Q 20.359375 -1.421875 13.671875 8.265625 
Q 6.984375 17.96875 6.984375 36.375 
Q 6.984375 53.65625 15.1875 63.9375 
Q 23.390625 74.21875 37.203125 74.21875 
Q 40.921875 74.21875 44.703125 73.484375 
Q 48.484375 72.75 52.59375 71.296875 
z
" id="DejaVuSans-54"/>
        <path d="M 31.78125 66.40625 
Q 24.171875 66.40625 20.328125 58.90625 
Q 16.5 51.421875 16.5 36.375 
Q 16.5 21.390625 20.328125 13.890625 
Q 24.171875 6.390625 31.78125 6.390625 
Q 39.453125 6.390625 43.28125 13.890625 
Q 47.125 21.390625 47.125 36.375 
Q 47.125 51.421875 43.28125 58.90625 
Q 39.453125 66.40625 31.78125 66.40625 
z
M 31.78125 74.21875 
Q 44.046875 74.21875 50.515625 64.515625 
Q 56.984375 54.828125 56.984375 36.375 
Q 56.984375 17.96875 50.515625 8.265625 
Q 44.046875 -1.421875 31.78125 -1.421875 
Q 19.53125 -1.421875 13.0625 8.265625 
Q 6.59375 17.96875 6.59375 36.375 
Q 6.59375 54.828125 13.0625 64.515625 
Q 19.53125 74.21875 31.78125 74.21875 
z
" id="DejaVuSans-48"/>
       </defs>
       <use xlink:href="#DejaVuSans-8722"/>
       <use x="83.789062" xlink:href="#DejaVuSans-54"/>
       <use x="147.412109" xlink:href="#DejaVuSans-48"/>
      </g>
     </g>
    </g>
    <g id="ytick_2">
     <g id="line2d_4">
      <g>
       <use style="stroke:#000000;stroke-width:0.8;" x="54" xlink:href="#m426d2c0318" y="223.85403"/>
      </g>
     </g>
     <g id="text_5">
      <!-- −50 -->
      <g transform="translate(25.895312 227.653249)scale(0.1 -0.1)">
       <defs>
        <path d="M 10.796875 72.90625 
L 49.515625 72.90625 
L 49.515625 64.59375 
L 19.828125 64.59375 
L 19.828125 46.734375 
Q 21.96875 47.46875 24.109375 47.828125 
Q 26.265625 48.1875 28.421875 48.1875 
Q 40.625 48.1875 47.75 41.5 
Q 54.890625 34.8125 54.890625 23.390625 
Q 54.890625 11.625 47.5625 5.09375 
Q 40.234375 -1.421875 26.90625 -1.421875 
Q 22.3125 -1.421875 17.546875 -0.640625 
Q 12.796875 0.140625 7.71875 1.703125 
L 7.71875 11.625 
Q 12.109375 9.234375 16.796875 8.0625 
Q 21.484375 6.890625 26.703125 6.890625 
Q 35.15625 6.890625 40.078125 11.328125 
Q 45.015625 15.765625 45.015625 23.390625 
Q 45.015625 31 40.078125 35.4375 
Q 35.15625 39.890625 26.703125 39.890625 
Q 22.75 39.890625 18.8125 39.015625 
Q 14.890625 38.140625 10.796875 36.28125 
z
" id="DejaVuSans-53"/>
       </defs>
       <use xlink:href="#DejaVuSans-8722"/>
       <use x="83.789062" xlink:href="#DejaVuSans-53"/>
       <use x="147.412109" xlink:href="#DejaVuSans-48"/>
      </g>
     </g>
    </g>
    <g id="ytick_3">
     <g id="line2d_5">
      <g>
       <use style="stroke:#000000;stroke-width:0.8;" x="54" xlink:href="#m426d2c0318" y="197.681216"/>
      </g>
     </g>
     <g id="text_6">
      <!-- −40 -->
      <g transform="translate(25.895312 201.480434)scale(0.1 -0.1)">
       <defs>
        <path d="M 37.796875 64.3125 
L 12.890625 25.390625 
L 37.796875 25.390625 
z
M 35.203125 72.90625 
L 47.609375 72.90625 
L 47.609375 25.390625 
L 58.015625 25.390625 
L 58.015625 17.1875 
L 47.609375 17.1875 
L 47.609375 0 
L 37.796875 0 
L 37.796875 17.1875 
L 4.890625 17.1875 
L 4.890625 26.703125 
z
" id="DejaVuSans-52"/>
       </defs>
       <use xlink:href="#DejaVuSans-8722"/>
       <use x="83.789062" xlink:href="#DejaVuSans-52"/>
       <use x="147.412109" xlink:href="#DejaVuSans-48"/>
      </g>
     </g>
    </g>
    <g id="ytick_4">
     <g id="line2d_6">
      <g>
       <use style="stroke:#000000;stroke-width:0.8;" x="54" xlink:href="#m426d2c0318" y="171.508401"/>
      </g>
     </g>
     <g id="text_7">
      <!-- −30 -->
      <g transform="translate(25.895312 175.30762)scale(0.1 -0.1)">
       <defs>
        <path d="M 40.578125 39.3125 
Q 47.65625 37.796875 51.625 33 
Q 55.609375 28.21875 55.609375 21.1875 
Q 55.609375 10.40625 48.1875 4.484375 
Q 40.765625 -1.421875 27.09375 -1.421875 
Q 22.515625 -1.421875 17.65625 -0.515625 
Q 12.796875 0.390625 7.625 2.203125 
L 7.625 11.71875 
Q 11.71875 9.328125 16.59375 8.109375 
Q 21.484375 6.890625 26.8125 6.890625 
Q 36.078125 6.890625 40.9375 10.546875 
Q 45.796875 14.203125 45.796875 21.1875 
Q 45.796875 27.640625 41.28125 31.265625 
Q 36.765625 34.90625 28.71875 34.90625 
L 20.21875 34.90625 
L 20.21875 43.015625 
L 29.109375 43.015625 
Q 36.375 43.015625 40.234375 45.921875 
Q 44.09375 48.828125 44.09375 54.296875 
Q 44.09375 59.90625 40.109375 62.90625 
Q 36.140625 65.921875 28.71875 65.921875 
Q 24.65625 65.921875 20.015625 65.03125 
Q 15.375 64.15625 9.8125 62.3125 
L 9.8125 71.09375 
Q 15.4375 72.65625 20.34375 73.4375 
Q 25.25 74.21875 29.59375 74.21875 
Q 40.828125 74.21875 47.359375 69.109375 
Q 53.90625 64.015625 53.90625 55.328125 
Q 53.90625 49.265625 50.4375 45.09375 
Q 46.96875 40.921875 40.578125 39.3125 
z
" id="DejaVuSans-51"/>
       </defs>
       <use xlink:href="#DejaVuSans-8722"/>
       <use x="83.789062" xlink:href="#DejaVuSans-51"/>
       <use x="147.412109" xlink:href="#DejaVuSans-48"/>
      </g>
     </g>
    </g>
    <g id="ytick_5">
     <g id="line2d_7">
      <g>
       <use style="stroke:#000000;stroke-width:0.8;" x="54" xlink:href="#m426d2c0318" y="145.335586"/>
      </g>
     </g>
     <g id="text_8">
      <!-- −20 -->
      <g transform="translate(25.895312 149.134805)scale(0.1 -0.1)">
       <use xlink:href="#DejaVuSans-8722"/>
       <use x="83.789062" xlink:href="#DejaVuSans-50"/>
       <use x="147.412109" xlink:href="#DejaVuSans-48"/>
      </g>
     </g>
    </g>
    <g id="ytick_6">
     <g id="line2d_8">
      <g>
       <use style="stroke:#000000;stroke-width:0.8;" x="54" xlink:href="#m426d2c0318" y="119.162772"/>
      </g>
     </g>
     <g id="text_9">
      <!-- −10 -->
      <g transform="translate(25.895312 122.961991)scale(0.1 -0.1)">
       <use xlink:href="#DejaVuSans-8722"/>
       <use x="83.789062" xlink:href="#DejaVuSans-49"/>
       <use x="147.412109" xlink:href="#DejaVuSans-48"/>
      </g>
     </g>
    </g>
    <g id="ytick_7">
     <g id="line2d_9">
      <g>
       <use style="stroke:#000000;stroke-width:0.8;" x="54" xlink:href="#m426d2c0318" y="92.989957"/>
      </g>
     </g>
     <g id="text_10">
      <!-- 0 -->
      <g transform="translate(40.6375 96.789176)scale(0.1 -0.1)">
       <use xlink:href="#DejaVuSans-48"/>
      </g>
     </g>
    </g>
    <g id="ytick_8">
     <g id="line2d_10">
      <g>
       <use style="stroke:#000000;stroke-width:0.8;" x="54" xlink:href="#m426d2c0318" y="66.817143"/>
      </g>
     </g>
     <g id="text_11">
      <!-- 10 -->
      <g transform="translate(34.275 70.616361)scale(0.1 -0.1)">
       <use xlink:href="#DejaVuSans-49"/>
       <use x="63.623047" xlink:href="#DejaVuSans-48"/>
      </g>
     </g>
    </g>
    <g id="ytick_9">
     <g id="line2d_11">
      <g>
       <use style="stroke:#000000;stroke-width:0.8;" x="54" xlink:href="#m426d2c0318" y="40.644328"/>
      </g>
     </g>
     <g id="text_12">
      <!-- 20 -->
      <g transform="translate(34.275 44.443547)scale(0.1 -0.1)">
       <use xlink:href="#DejaVuSans-50"/>
       <use x="63.623047" xlink:href="#DejaVuSans-48"/>
      </g>
     </g>
    </g>
    <g id="text_13">
     <!-- value -->
     <g transform="translate(19.815625 156.937813)rotate(-90)scale(0.1 -0.1)">
      <defs>
       <path d="M 2.984375 54.6875 
L 12.5 54.6875 
L 29.59375 8.796875 
L 46.6875 54.6875 
L 56.203125 54.6875 
L 35.6875 0 
L 23.484375 0 
z
" id="DejaVuSans-118"/>
       <path d="M 34.28125 27.484375 
Q 23.390625 27.484375 19.1875 25 
Q 14.984375 22.515625 14.984375 16.5 
Q 14.984375 11.71875 18.140625 8.90625 
Q 21.296875 6.109375 26.703125 6.109375 
Q 34.1875 6.109375 38.703125 11.40625 
Q 43.21875 16.703125 43.21875 25.484375 
L 43.21875 27.484375 
z
M 52.203125 31.203125 
L 52.203125 0 
L 43.21875 0 
L 43.21875 8.296875 
Q 40.140625 3.328125 35.546875 0.953125 
Q 30.953125 -1.421875 24.3125 -1.421875 
Q 15.921875 -1.421875 10.953125 3.296875 
Q 6 8.015625 6 15.921875 
Q 6 25.140625 12.171875 29.828125 
Q 18.359375 34.515625 30.609375 34.515625 
L 43.21875 34.515625 
L 43.21875 35.40625 
Q 43.21875 41.609375 39.140625 45 
Q 35.0625 48.390625 27.6875 48.390625 
Q 23 48.390625 18.546875 47.265625 
Q 14.109375 46.140625 10.015625 43.890625 
L 10.015625 52.203125 
Q 14.9375 54.109375 19.578125 55.046875 
Q 24.21875 56 28.609375 56 
Q 40.484375 56 46.34375 49.84375 
Q 52.203125 43.703125 52.203125 31.203125 
z
" id="DejaVuSans-97"/>
       <path d="M 9.421875 75.984375 
L 18.40625 75.984375 
L 18.40625 0 
L 9.421875 0 
z
" id="DejaVuSans-108"/>
       <path d="M 8.5 21.578125 
L 8.5 54.6875 
L 17.484375 54.6875 
L 17.484375 21.921875 
Q 17.484375 14.15625 20.5 10.265625 
Q 23.53125 6.390625 29.59375 6.390625 
Q 36.859375 6.390625 41.078125 11.03125 
Q 45.3125 15.671875 45.3125 23.6875 
L 45.3125 54.6875 
L 54.296875 54.6875 
L 54.296875 0 
L 45.3125 0 
L 45.3125 8.40625 
Q 42.046875 3.421875 37.71875 1 
Q 33.40625 -1.421875 27.6875 -1.421875 
Q 18.265625 -1.421875 13.375 4.4375 
Q 8.5 10.296875 8.5 21.578125 
z
M 31.109375 56 
z
" id="DejaVuSans-117"/>
      </defs>
      <use xlink:href="#DejaVuSans-118"/>
      <use x="59.179688" xlink:href="#DejaVuSans-97"/>
      <use x="120.458984" xlink:href="#DejaVuSans-108"/>
      <use x="148.242188" xlink:href="#DejaVuSans-117"/>
      <use x="211.621094" xlink:href="#DejaVuSans-101"/>
     </g>
    </g>
   </g>
   <g id="line2d_12">
    <path clip-path="url(#pfd40119796)" d="M 104.22 102.43426 
L 104.22 49.739921 
" style="fill:none;stroke:#3f3f3f;stroke-linecap:square;stroke-width:1.5;"/>
   </g>
   <g id="line2d_13">
    <path clip-path="url(#pfd40119796)" d="M 104.22 82.809875 
L 104.22 69.580154 
" style="fill:none;stroke:#3f3f3f;stroke-linecap:square;stroke-width:4.5;"/>
   </g>
   <g id="line2d_14">
    <path clip-path="url(#pfd40119796)" d="M 338.58 104.914902 
L 338.58 47.89342 
" style="fill:none;stroke:#3f3f3f;stroke-linecap:square;stroke-width:1.5;"/>
   </g>
   <g id="line2d_15">
    <path clip-path="url(#pfd40119796)" d="M 338.58 83.108433 
L 338.58 68.510975 
" style="fill:none;stroke:#3f3f3f;stroke-linecap:square;stroke-width:4.5;"/>
   </g>
   <g id="patch_5">
    <path d="M 54 252 
L 54 34.56 
" style="fill:none;stroke:#000000;stroke-linecap:square;stroke-linejoin:miter;stroke-width:0.8;"/>
   </g>
   <g id="patch_6">
    <path d="M 388.8 252 
L 388.8 34.56 
" style="fill:none;stroke:#000000;stroke-linecap:square;stroke-linejoin:miter;stroke-width:0.8;"/>
   </g>
   <g id="patch_7">
    <path d="M 54 252 
L 388.8 252 
" style="fill:none;stroke:#000000;stroke-linecap:square;stroke-linejoin:miter;stroke-width:0.8;"/>
   </g>
   <g id="patch_8">
    <path d="M 54 34.56 
L 388.8 34.56 
" style="fill:none;stroke:#000000;stroke-linecap:square;stroke-linejoin:miter;stroke-width:0.8;"/>
   </g>
   <g id="PathCollection_1">
    <defs>
     <path d="M 0 1.5 
C 0.397805 1.5 0.77937 1.341951 1.06066 1.06066 
C 1.341951 0.77937 1.5 0.397805 1.5 0 
C 1.5 -0.397805 1.341951 -0.77937 1.06066 -1.06066 
C 0.77937 -1.341951 0.397805 -1.5 0 -1.5 
C -0.397805 -1.5 -0.77937 -1.341951 -1.06066 -1.06066 
C -1.341951 -0.77937 -1.5 -0.397805 -1.5 0 
C -1.5 0.397805 -1.341951 0.77937 -1.06066 1.06066 
C -0.77937 1.341951 -0.397805 1.5 0 1.5 
z
" id="md4e30bb0f8" style="stroke:#3f3f3f;"/>
    </defs>
    <g clip-path="url(#pfd40119796)">
     <use style="fill:#ffffff;stroke:#3f3f3f;" x="104.22" xlink:href="#md4e30bb0f8" y="76.088881"/>
    </g>
   </g>
   <g id="PathCollection_2">
    <g clip-path="url(#pfd40119796)">
     <use style="fill:#ffffff;stroke:#3f3f3f;" x="338.58" xlink:href="#md4e30bb0f8" y="75.947563"/>
    </g>
   </g>
   <g id="legend_1">
    <g id="patch_9">
     <path d="M 61 247 
L 137.61875 247 
Q 139.61875 247 139.61875 245 
L 139.61875 201.409375 
Q 139.61875 199.409375 137.61875 199.409375 
L 61 199.409375 
Q 59 199.409375 59 201.409375 
L 59 245 
Q 59 247 61 247 
z
" style="fill:#ffffff;opacity:0.8;stroke:#cccccc;stroke-linejoin:miter;"/>
    </g>
    <g id="text_14">
     <!-- set -->
     <g transform="translate(91.667969 211.007812)scale(0.1 -0.1)">
      <use xlink:href="#DejaVuSans-115"/>
      <use x="52.099609" xlink:href="#DejaVuSans-101"/>
      <use x="113.623047" xlink:href="#DejaVuSans-116"/>
     </g>
    </g>
    <g id="patch_10">
     <path d="M 63 225.685937 
L 83 225.685937 
L 83 218.685937 
L 63 218.685937 
z
" style="fill:#3274a1;stroke:#3f3f3f;stroke-linejoin:miter;stroke-width:0.75;"/>
    </g>
    <g id="text_15">
     <!-- Z_1_zero -->
     <g transform="translate(91 225.685937)scale(0.1 -0.1)">
      <use xlink:href="#DejaVuSans-90"/>
      <use x="68.505859" xlink:href="#DejaVuSans-95"/>
      <use x="118.505859" xlink:href="#DejaVuSans-49"/>
      <use x="182.128906" xlink:href="#DejaVuSans-95"/>
      <use x="232.128906" xlink:href="#DejaVuSans-122"/>
      <use x="284.619141" xlink:href="#DejaVuSans-101"/>
      <use x="346.142578" xlink:href="#DejaVuSans-114"/>
      <use x="385.005859" xlink:href="#DejaVuSans-111"/>
     </g>
    </g>
    <g id="patch_11">
     <path d="M 63 240.642188 
L 83 240.642188 
L 83 233.642188 
L 63 233.642188 
z
" style="fill:#e1812c;stroke:#3f3f3f;stroke-linejoin:miter;stroke-width:0.75;"/>
    </g>
    <g id="text_16">
     <!-- Z_2_zero -->
     <g transform="translate(91 240.642188)scale(0.1 -0.1)">
      <use xlink:href="#DejaVuSans-90"/>
      <use x="68.505859" xlink:href="#DejaVuSans-95"/>
      <use x="118.505859" xlink:href="#DejaVuSans-50"/>
      <use x="182.128906" xlink:href="#DejaVuSans-95"/>
      <use x="232.128906" xlink:href="#DejaVuSans-122"/>
      <use x="284.619141" xlink:href="#DejaVuSans-101"/>
      <use x="346.142578" xlink:href="#DejaVuSans-114"/>
      <use x="385.005859" xlink:href="#DejaVuSans-111"/>
     </g>
    </g>
   </g>
  </g>
 </g>
 <defs>
  <clipPath id="pfd40119796">
   <rect height="217.44" width="334.8" x="54" y="34.56"/>
  </clipPath>
 </defs>
</svg>
