<?xml version="1.0" encoding="utf-8" standalone="no"?>
<!DOCTYPE svg PUBLIC "-//W3C//DTD SVG 1.1//EN"
  "http://www.w3.org/Graphics/SVG/1.1/DTD/svg11.dtd">
<!-- Created with matplotlib (https://matplotlib.org/) -->
<svg height="288pt" version="1.1" viewBox="0 0 432 288" width="432pt" xmlns="http://www.w3.org/2000/svg" xmlns:xlink="http://www.w3.org/1999/xlink">
 <metadata>
  <rdf:RDF xmlns:cc="http://creativecommons.org/ns#" xmlns:dc="http://purl.org/dc/elements/1.1/" xmlns:rdf="http://www.w3.org/1999/02/22-rdf-syntax-ns#">
   <cc:Work>
    <dc:type rdf:resource="http://purl.org/dc/dcmitype/StillImage"/>
    <dc:date>2022-05-02T17:00:02.340339</dc:date>
    <dc:format>image/svg+xml</dc:format>
    <dc:creator>
     <cc:Agent>
      <dc:title>Matplotlib v3.3.4, https://matplotlib.org/</dc:title>
     </cc:Agent>
    </dc:creator>
   </cc:Work>
  </rdf:RDF>
 </metadata>
 <defs>
  <style type="text/css">*{stroke-linecap:butt;stroke-linejoin:round;}</style>
 </defs>
 <g id="figure_1">
  <g id="patch_1">
   <path d="M 0 288 
L 432 288 
L 432 0 
L 0 0 
z
" style="fill:#ffffff;"/>
  </g>
  <g id="axes_1">
   <g id="patch_2">
    <path d="M 54 252 
L 388.8 252 
L 388.8 34.56 
L 54 34.56 
z
" style="fill:#ffffff;"/>
   </g>
   <g id="PolyCollection_1">
    <defs>
     <path d="M 80.200901 -52.34381 
L 79.879099 -52.34381 
L 79.837333 -54.162459 
L 79.794975 -55.981108 
L 79.753448 -57.799757 
L 79.712899 -59.618406 
L 79.672141 -61.437055 
L 79.629199 -63.255704 
L 79.582285 -65.074353 
L 79.530824 -66.893002 
L 79.476096 -68.711651 
L 79.421235 -70.5303 
L 79.370605 -72.348949 
L 79.328793 -74.167598 
L 79.299598 -75.986247 
L 79.285267 -77.804896 
L 79.286103 -79.623545 
L 79.300414 -81.442194 
L 79.32473 -83.260843 
L 79.354272 -85.079492 
L 79.383663 -86.898141 
L 79.407837 -88.71679 
L 79.422977 -90.535439 
L 79.427219 -92.354088 
L 79.420913 -94.172737 
L 79.406368 -95.991385 
L 79.387177 -97.810034 
L 79.367342 -99.628683 
L 79.35039 -101.447332 
L 79.338642 -103.265981 
L 79.332754 -105.08463 
L 79.33165 -106.903279 
L 79.33291 -108.721928 
L 79.333601 -110.540577 
L 79.331296 -112.359226 
L 79.324937 -114.177875 
L 79.315143 -115.996524 
L 79.303805 -117.815173 
L 79.293117 -119.633822 
L 79.284423 -121.452471 
L 79.27733 -123.27112 
L 79.269381 -125.089769 
L 79.25636 -126.908418 
L 79.233091 -128.727067 
L 79.194503 -130.545716 
L 79.136698 -132.364365 
L 79.057762 -134.183014 
L 78.958077 -136.001663 
L 78.839993 -137.820312 
L 78.706953 -139.638961 
L 78.562423 -141.45761 
L 78.409163 -143.276259 
L 78.249173 -145.094908 
L 78.084259 -146.913557 
L 77.916681 -148.732206 
L 77.74918 -150.550855 
L 77.584097 -152.369504 
L 77.421933 -154.188153 
L 77.260213 -156.006802 
L 77.093484 -157.825451 
L 76.914635 -159.6441 
L 76.716963 -161.462749 
L 76.49596 -163.281398 
L 76.24999 -165.100047 
L 75.979759 -166.918696 
L 75.687142 -168.737345 
L 75.374245 -170.555994 
L 75.043166 -172.374643 
L 74.696243 -174.193292 
L 74.336056 -176.011941 
L 73.964626 -177.83059 
L 73.581981 -179.649239 
L 73.185102 -181.467888 
L 72.768368 -183.286537 
L 72.325868 -185.105186 
L 71.854708 -186.923835 
L 71.35754 -188.742484 
L 70.842688 -190.561133 
L 70.321403 -192.379782 
L 69.803277 -194.198431 
L 69.291941 -196.01708 
L 68.783242 -197.835729 
L 68.267204 -199.654378 
L 67.733603 -201.473027 
L 67.179587 -203.291676 
L 66.616934 -205.110325 
L 66.076595 -206.928974 
L 65.608973 -208.747623 
L 65.279495 -210.566272 
L 65.16 -212.384921 
L 65.317118 -214.20357 
L 65.799337 -216.022219 
L 66.625096 -217.840868 
L 67.774745 -219.659517 
L 69.189147 -221.478166 
L 70.776405 -223.296815 
L 72.425905 -225.115463 
L 74.026445 -226.934112 
L 75.483721 -228.752761 
L 76.732765 -230.57141 
L 77.742818 -232.390059 
L 82.337182 -232.390059 
L 82.337182 -232.390059 
L 83.347235 -230.57141 
L 84.596279 -228.752761 
L 86.053555 -226.934112 
L 87.654095 -225.115463 
L 89.303595 -223.296815 
L 90.890853 -221.478166 
L 92.305255 -219.659517 
L 93.454904 -217.840868 
L 94.280663 -216.022219 
L 94.762882 -214.20357 
L 94.92 -212.384921 
L 94.800505 -210.566272 
L 94.471027 -208.747623 
L 94.003405 -206.928974 
L 93.463066 -205.110325 
L 92.900413 -203.291676 
L 92.346397 -201.473027 
L 91.812796 -199.654378 
L 91.296758 -197.835729 
L 90.788059 -196.01708 
L 90.276723 -194.198431 
L 89.758597 -192.379782 
L 89.237312 -190.561133 
L 88.72246 -188.742484 
L 88.225292 -186.923835 
L 87.754132 -185.105186 
L 87.311632 -183.286537 
L 86.894898 -181.467888 
L 86.498019 -179.649239 
L 86.115374 -177.83059 
L 85.743944 -176.011941 
L 85.383757 -174.193292 
L 85.036834 -172.374643 
L 84.705755 -170.555994 
L 84.392858 -168.737345 
L 84.100241 -166.918696 
L 83.83001 -165.100047 
L 83.58404 -163.281398 
L 83.363037 -161.462749 
L 83.165365 -159.6441 
L 82.986516 -157.825451 
L 82.819787 -156.006802 
L 82.658067 -154.188153 
L 82.495903 -152.369504 
L 82.33082 -150.550855 
L 82.163319 -148.732206 
L 81.995741 -146.913557 
L 81.830827 -145.094908 
L 81.670837 -143.276259 
L 81.517577 -141.45761 
L 81.373047 -139.638961 
L 81.240007 -137.820312 
L 81.121923 -136.001663 
L 81.022238 -134.183014 
L 80.943302 -132.364365 
L 80.885497 -130.545716 
L 80.846909 -128.727067 
L 80.82364 -126.908418 
L 80.810619 -125.089769 
L 80.80267 -123.27112 
L 80.795577 -121.452471 
L 80.786883 -119.633822 
L 80.776195 -117.815173 
L 80.764857 -115.996524 
L 80.755063 -114.177875 
L 80.748704 -112.359226 
L 80.746399 -110.540577 
L 80.74709 -108.721928 
L 80.74835 -106.903279 
L 80.747246 -105.08463 
L 80.741358 -103.265981 
L 80.72961 -101.447332 
L 80.712658 -99.628683 
L 80.692823 -97.810034 
L 80.673632 -95.991385 
L 80.659087 -94.172737 
L 80.652781 -92.354088 
L 80.657023 -90.535439 
L 80.672163 -88.71679 
L 80.696337 -86.898141 
L 80.725728 -85.079492 
L 80.75527 -83.260843 
L 80.779586 -81.442194 
L 80.793897 -79.623545 
L 80.794733 -77.804896 
L 80.780402 -75.986247 
L 80.751207 -74.167598 
L 80.709395 -72.348949 
L 80.658765 -70.5303 
L 80.603904 -68.711651 
L 80.549176 -66.893002 
L 80.497715 -65.074353 
L 80.450801 -63.255704 
L 80.407859 -61.437055 
L 80.367101 -59.618406 
L 80.326552 -57.799757 
L 80.285025 -55.981108 
L 80.242667 -54.162459 
L 80.200901 -52.34381 
z
" id="m41740eeaae" style="stroke:#3d3d3d;stroke-width:1.5;"/>
    </defs>
    <g clip-path="url(#p4a7fa45c1a)">
     <use style="fill:#3274a1;stroke:#3d3d3d;stroke-width:1.5;" x="0" xlink:href="#m41740eeaae" y="288"/>
    </g>
   </g>
   <g id="PolyCollection_2">
    <defs>
     <path d="M 221.496623 -45.883636 
L 221.303377 -45.883636 
L 221.274691 -47.833996 
L 221.246235 -49.784355 
L 221.219937 -51.734715 
L 221.196826 -53.685074 
L 221.176581 -55.635434 
L 221.157422 -57.585793 
L 221.136674 -59.536153 
L 221.112098 -61.486512 
L 221.083555 -63.436872 
L 221.054 -65.387231 
L 221.028965 -67.33759 
L 221.014576 -69.28795 
L 221.015069 -71.238309 
L 221.031046 -73.188669 
L 221.059187 -75.139028 
L 221.093387 -77.089388 
L 221.126717 -79.039747 
L 221.153422 -80.990107 
L 221.170215 -82.940466 
L 221.176433 -84.890826 
L 221.173252 -86.841185 
L 221.162654 -88.791545 
L 221.146903 -90.741904 
L 221.128614 -92.692264 
L 221.110827 -94.642623 
L 221.096445 -96.592982 
L 221.087137 -98.543342 
L 221.082564 -100.493701 
L 221.080692 -102.444061 
L 221.079134 -104.39442 
L 221.076591 -106.34478 
L 221.073363 -108.295139 
L 221.070623 -110.245499 
L 221.069063 -112.195858 
L 221.067912 -114.146218 
L 221.065018 -116.096577 
L 221.057918 -118.046937 
L 221.045147 -119.997296 
L 221.026955 -121.947656 
L 221.004969 -123.898015 
L 220.980999 -125.848374 
L 220.955622 -127.798734 
L 220.927205 -129.749093 
L 220.89181 -131.699453 
L 220.844034 -133.649812 
L 220.778574 -135.600172 
L 220.691955 -137.550531 
L 220.58375 -139.500891 
L 220.456619 -141.45125 
L 220.315056 -143.40161 
L 220.16351 -145.351969 
L 220.005009 -147.302329 
L 219.840958 -149.252688 
L 219.671661 -151.203048 
L 219.496541 -153.153407 
L 219.313799 -155.103766 
L 219.120337 -157.054126 
L 218.912766 -159.004485 
L 218.688935 -160.954845 
L 218.448396 -162.905204 
L 218.191142 -164.855564 
L 217.915821 -166.805923 
L 217.619229 -168.756283 
L 217.297318 -170.706642 
L 216.946132 -172.657002 
L 216.561456 -174.607361 
L 216.138167 -176.557721 
L 215.671489 -178.50808 
L 215.160546 -180.45844 
L 214.611557 -182.408799 
L 214.037189 -184.359158 
L 213.451227 -186.309518 
L 212.861648 -188.259877 
L 212.266985 -190.210237 
L 211.659221 -192.160596 
L 211.032308 -194.110956 
L 210.391178 -196.061315 
L 209.754786 -198.011675 
L 209.150009 -199.962034 
L 208.599583 -201.912394 
L 208.11208 -203.862753 
L 207.681222 -205.813113 
L 207.295876 -207.763472 
L 206.955278 -209.713832 
L 206.681099 -211.664191 
L 206.52 -213.61455 
L 206.535369 -215.56491 
L 206.791555 -217.515269 
L 207.336473 -219.465629 
L 208.188372 -221.415988 
L 209.330244 -223.366348 
L 210.711882 -225.316707 
L 212.256978 -227.267067 
L 213.872527 -229.217426 
L 215.459592 -231.167786 
L 216.925581 -233.118145 
L 218.197092 -235.068505 
L 219.230185 -237.018864 
L 220.014439 -238.969223 
L 222.785561 -238.969223 
L 222.785561 -238.969223 
L 223.569815 -237.018864 
L 224.602908 -235.068505 
L 225.874419 -233.118145 
L 227.340408 -231.167786 
L 228.927473 -229.217426 
L 230.543022 -227.267067 
L 232.088118 -225.316707 
L 233.469756 -223.366348 
L 234.611628 -221.415988 
L 235.463527 -219.465629 
L 236.008445 -217.515269 
L 236.264631 -215.56491 
L 236.28 -213.61455 
L 236.118901 -211.664191 
L 235.844722 -209.713832 
L 235.504124 -207.763472 
L 235.118778 -205.813113 
L 234.68792 -203.862753 
L 234.200417 -201.912394 
L 233.649991 -199.962034 
L 233.045214 -198.011675 
L 232.408822 -196.061315 
L 231.767692 -194.110956 
L 231.140779 -192.160596 
L 230.533015 -190.210237 
L 229.938352 -188.259877 
L 229.348773 -186.309518 
L 228.762811 -184.359158 
L 228.188443 -182.408799 
L 227.639454 -180.45844 
L 227.128511 -178.50808 
L 226.661833 -176.557721 
L 226.238544 -174.607361 
L 225.853868 -172.657002 
L 225.502682 -170.706642 
L 225.180771 -168.756283 
L 224.884179 -166.805923 
L 224.608858 -164.855564 
L 224.351604 -162.905204 
L 224.111065 -160.954845 
L 223.887234 -159.004485 
L 223.679663 -157.054126 
L 223.486201 -155.103766 
L 223.303459 -153.153407 
L 223.128339 -151.203048 
L 222.959042 -149.252688 
L 222.794991 -147.302329 
L 222.63649 -145.351969 
L 222.484944 -143.40161 
L 222.343381 -141.45125 
L 222.21625 -139.500891 
L 222.108045 -137.550531 
L 222.021426 -135.600172 
L 221.955966 -133.649812 
L 221.90819 -131.699453 
L 221.872795 -129.749093 
L 221.844378 -127.798734 
L 221.819001 -125.848374 
L 221.795031 -123.898015 
L 221.773045 -121.947656 
L 221.754853 -119.997296 
L 221.742082 -118.046937 
L 221.734982 -116.096577 
L 221.732088 -114.146218 
L 221.730937 -112.195858 
L 221.729377 -110.245499 
L 221.726637 -108.295139 
L 221.723409 -106.34478 
L 221.720866 -104.39442 
L 221.719308 -102.444061 
L 221.717436 -100.493701 
L 221.712863 -98.543342 
L 221.703555 -96.592982 
L 221.689173 -94.642623 
L 221.671386 -92.692264 
L 221.653097 -90.741904 
L 221.637346 -88.791545 
L 221.626748 -86.841185 
L 221.623567 -84.890826 
L 221.629785 -82.940466 
L 221.646578 -80.990107 
L 221.673283 -79.039747 
L 221.706613 -77.089388 
L 221.740813 -75.139028 
L 221.768954 -73.188669 
L 221.784931 -71.238309 
L 221.785424 -69.28795 
L 221.771035 -67.33759 
L 221.746 -65.387231 
L 221.716445 -63.436872 
L 221.687902 -61.486512 
L 221.663326 -59.536153 
L 221.642578 -57.585793 
L 221.623419 -55.635434 
L 221.603174 -53.685074 
L 221.580063 -51.734715 
L 221.553765 -49.784355 
L 221.525309 -47.833996 
L 221.496623 -45.883636 
z
" id="m391584708d" style="stroke:#3d3d3d;stroke-width:1.5;"/>
    </defs>
    <g clip-path="url(#p4a7fa45c1a)">
     <use style="fill:#e1812c;stroke:#3d3d3d;stroke-width:1.5;" x="0" xlink:href="#m391584708d" y="288"/>
    </g>
   </g>
   <g id="PolyCollection_3">
    <defs>
     <path d="M 362.780787 -109.182947 
L 362.739213 -109.182947 
L 362.740253 -110.540254 
L 362.743016 -111.897562 
L 362.745845 -113.254869 
L 362.746891 -114.612176 
L 362.744861 -115.969483 
L 362.739495 -117.32679 
L 362.731653 -118.684098 
L 362.722974 -120.041405 
L 362.715107 -121.398712 
L 362.708809 -122.756019 
L 362.703347 -124.113327 
L 362.696602 -125.470634 
L 362.685867 -126.827941 
L 362.668933 -128.185248 
L 362.644984 -129.542556 
L 362.614987 -130.899863 
L 362.581559 -132.25717 
L 362.548479 -133.614477 
L 362.519962 -134.971785 
L 362.499729 -136.329092 
L 362.489969 -137.686399 
L 362.490546 -139.043706 
L 362.498744 -140.401014 
L 362.509596 -141.758321 
L 362.516612 -143.115628 
L 362.512966 -144.472935 
L 362.493257 -145.830242 
L 362.455438 -147.18755 
L 362.401841 -148.544857 
L 362.338319 -149.902164 
L 362.271512 -151.259471 
L 362.205634 -152.616779 
L 362.140837 -153.974086 
L 362.074502 -155.331393 
L 362.004623 -156.6887 
L 361.932381 -158.046008 
L 361.861229 -159.403315 
L 361.792765 -160.760622 
L 361.722937 -162.117929 
L 361.642471 -163.475237 
L 361.542228 -164.832544 
L 361.419838 -166.189851 
L 361.282119 -167.547158 
L 361.140465 -168.904466 
L 361.002004 -170.261773 
L 360.863424 -171.61908 
L 360.712873 -172.976387 
L 360.538939 -174.333694 
L 360.339818 -175.691002 
L 360.125482 -177.048309 
L 359.911075 -178.405616 
L 359.706055 -179.762923 
L 359.50612 -181.120231 
L 359.292505 -182.477538 
L 359.038595 -183.834845 
L 358.720252 -185.192152 
L 358.325156 -186.54946 
L 357.857222 -187.906767 
L 357.334433 -189.264074 
L 356.781798 -190.621381 
L 356.223476 -191.978689 
L 355.677377 -193.335996 
L 355.153271 -194.693303 
L 354.654283 -196.05061 
L 354.181286 -197.407918 
L 353.737174 -198.765225 
L 353.325724 -200.122532 
L 352.943286 -201.479839 
L 352.570423 -202.837146 
L 352.174695 -204.194454 
L 351.727408 -205.551761 
L 351.223087 -206.909068 
L 350.685673 -208.266375 
L 350.155961 -209.623683 
L 349.67011 -210.98099 
L 349.244483 -212.338297 
L 348.874839 -213.695604 
L 348.547776 -215.052912 
L 348.257449 -216.410219 
L 348.020202 -217.767526 
L 347.88 -219.124833 
L 347.900368 -220.482141 
L 348.145729 -221.839448 
L 348.661541 -223.196755 
L 349.461737 -224.554062 
L 350.525648 -225.91137 
L 351.801845 -227.268677 
L 353.215893 -228.625984 
L 354.680225 -229.983291 
L 356.105637 -231.340598 
L 357.414615 -232.697906 
L 358.554955 -234.055213 
L 359.508215 -235.41252 
L 360.286628 -236.769827 
L 360.918415 -238.127135 
L 361.430475 -239.484442 
L 361.839355 -240.841749 
L 362.153679 -242.199056 
L 362.381853 -243.556364 
L 363.138147 -243.556364 
L 363.138147 -243.556364 
L 363.366321 -242.199056 
L 363.680645 -240.841749 
L 364.089525 -239.484442 
L 364.601585 -238.127135 
L 365.233372 -236.769827 
L 366.011785 -235.41252 
L 366.965045 -234.055213 
L 368.105385 -232.697906 
L 369.414363 -231.340598 
L 370.839775 -229.983291 
L 372.304107 -228.625984 
L 373.718155 -227.268677 
L 374.994352 -225.91137 
L 376.058263 -224.554062 
L 376.858459 -223.196755 
L 377.374271 -221.839448 
L 377.619632 -220.482141 
L 377.64 -219.124833 
L 377.499798 -217.767526 
L 377.262551 -216.410219 
L 376.972224 -215.052912 
L 376.645161 -213.695604 
L 376.275517 -212.338297 
L 375.84989 -210.98099 
L 375.364039 -209.623683 
L 374.834327 -208.266375 
L 374.296913 -206.909068 
L 373.792592 -205.551761 
L 373.345305 -204.194454 
L 372.949577 -202.837146 
L 372.576714 -201.479839 
L 372.194276 -200.122532 
L 371.782826 -198.765225 
L 371.338714 -197.407918 
L 370.865717 -196.05061 
L 370.366729 -194.693303 
L 369.842623 -193.335996 
L 369.296524 -191.978689 
L 368.738202 -190.621381 
L 368.185567 -189.264074 
L 367.662778 -187.906767 
L 367.194844 -186.54946 
L 366.799748 -185.192152 
L 366.481405 -183.834845 
L 366.227495 -182.477538 
L 366.01388 -181.120231 
L 365.813945 -179.762923 
L 365.608925 -178.405616 
L 365.394518 -177.048309 
L 365.180182 -175.691002 
L 364.981061 -174.333694 
L 364.807127 -172.976387 
L 364.656576 -171.61908 
L 364.517996 -170.261773 
L 364.379535 -168.904466 
L 364.237881 -167.547158 
L 364.100162 -166.189851 
L 363.977772 -164.832544 
L 363.877529 -163.475237 
L 363.797063 -162.117929 
L 363.727235 -160.760622 
L 363.658771 -159.403315 
L 363.587619 -158.046008 
L 363.515377 -156.6887 
L 363.445498 -155.331393 
L 363.379163 -153.974086 
L 363.314366 -152.616779 
L 363.248488 -151.259471 
L 363.181681 -149.902164 
L 363.118159 -148.544857 
L 363.064562 -147.18755 
L 363.026743 -145.830242 
L 363.007034 -144.472935 
L 363.003388 -143.115628 
L 363.010404 -141.758321 
L 363.021256 -140.401014 
L 363.029454 -139.043706 
L 363.030031 -137.686399 
L 363.020271 -136.329092 
L 363.000038 -134.971785 
L 362.971521 -133.614477 
L 362.938441 -132.25717 
L 362.905013 -130.899863 
L 362.875016 -129.542556 
L 362.851067 -128.185248 
L 362.834133 -126.827941 
L 362.823398 -125.470634 
L 362.816653 -124.113327 
L 362.811191 -122.756019 
L 362.804893 -121.398712 
L 362.797026 -120.041405 
L 362.788347 -118.684098 
L 362.780505 -117.32679 
L 362.775139 -115.969483 
L 362.773109 -114.612176 
L 362.774155 -113.254869 
L 362.776984 -111.897562 
L 362.779747 -110.540254 
L 362.780787 -109.182947 
z
" id="m87ebc5f111" style="stroke:#3d3d3d;stroke-width:1.5;"/>
    </defs>
    <g clip-path="url(#p4a7fa45c1a)">
     <use style="fill:#3a923a;stroke:#3d3d3d;stroke-width:1.5;" x="0" xlink:href="#m87ebc5f111" y="288"/>
    </g>
   </g>
   <g id="patch_3">
    <path clip-path="url(#p4a7fa45c1a)" d="M 109.8 252.078224 
L 109.8 252.078224 
L 109.8 252.078224 
L 109.8 252.078224 
z
" style="fill:#3274a1;stroke:#3d3d3d;stroke-linejoin:miter;stroke-width:0.75;"/>
   </g>
   <g id="patch_4">
    <path clip-path="url(#p4a7fa45c1a)" d="M 109.8 252.078224 
L 109.8 252.078224 
L 109.8 252.078224 
L 109.8 252.078224 
z
" style="fill:#e1812c;stroke:#3d3d3d;stroke-linejoin:miter;stroke-width:0.75;"/>
   </g>
   <g id="patch_5">
    <path clip-path="url(#p4a7fa45c1a)" d="M 109.8 252.078224 
L 109.8 252.078224 
L 109.8 252.078224 
L 109.8 252.078224 
z
" style="fill:#3a923a;stroke:#3d3d3d;stroke-linejoin:miter;stroke-width:0.75;"/>
   </g>
   <g id="matplotlib.axis_1">
    <g id="xtick_1">
     <g id="line2d_1">
      <defs>
       <path d="M 0 0 
L 0 3.5 
" id="m6e98062aea" style="stroke:#000000;stroke-width:0.8;"/>
      </defs>
      <g>
       <use style="stroke:#000000;stroke-width:0.8;" x="109.8" xlink:href="#m6e98062aea" y="252"/>
      </g>
     </g>
     <g id="text_1">
      <!-- Z_1_ns -->
      <g transform="translate(92.420312 266.320312)scale(0.1 -0.1)">
       <defs>
        <path d="M 5.609375 72.90625 
L 62.890625 72.90625 
L 62.890625 65.375 
L 16.796875 8.296875 
L 64.015625 8.296875 
L 64.015625 0 
L 4.5 0 
L 4.5 7.515625 
L 50.59375 64.59375 
L 5.609375 64.59375 
z
" id="DejaVuSans-90"/>
        <path d="M 50.984375 -16.609375 
L 50.984375 -23.578125 
L -0.984375 -23.578125 
L -0.984375 -16.609375 
z
" id="DejaVuSans-95"/>
        <path d="M 12.40625 8.296875 
L 28.515625 8.296875 
L 28.515625 63.921875 
L 10.984375 60.40625 
L 10.984375 69.390625 
L 28.421875 72.90625 
L 38.28125 72.90625 
L 38.28125 8.296875 
L 54.390625 8.296875 
L 54.390625 0 
L 12.40625 0 
z
" id="DejaVuSans-49"/>
        <path d="M 54.890625 33.015625 
L 54.890625 0 
L 45.90625 0 
L 45.90625 32.71875 
Q 45.90625 40.484375 42.875 44.328125 
Q 39.84375 48.1875 33.796875 48.1875 
Q 26.515625 48.1875 22.3125 43.546875 
Q 18.109375 38.921875 18.109375 30.90625 
L 18.109375 0 
L 9.078125 0 
L 9.078125 54.6875 
L 18.109375 54.6875 
L 18.109375 46.1875 
Q 21.34375 51.125 25.703125 53.5625 
Q 30.078125 56 35.796875 56 
Q 45.21875 56 50.046875 50.171875 
Q 54.890625 44.34375 54.890625 33.015625 
z
" id="DejaVuSans-110"/>
        <path d="M 44.28125 53.078125 
L 44.28125 44.578125 
Q 40.484375 46.53125 36.375 47.5 
Q 32.28125 48.484375 27.875 48.484375 
Q 21.1875 48.484375 17.84375 46.4375 
Q 14.5 44.390625 14.5 40.28125 
Q 14.5 37.15625 16.890625 35.375 
Q 19.28125 33.59375 26.515625 31.984375 
L 29.59375 31.296875 
Q 39.15625 29.25 43.1875 25.515625 
Q 47.21875 21.78125 47.21875 15.09375 
Q 47.21875 7.46875 41.1875 3.015625 
Q 35.15625 -1.421875 24.609375 -1.421875 
Q 20.21875 -1.421875 15.453125 -0.5625 
Q 10.6875 0.296875 5.421875 2 
L 5.421875 11.28125 
Q 10.40625 8.6875 15.234375 7.390625 
Q 20.0625 6.109375 24.8125 6.109375 
Q 31.15625 6.109375 34.5625 8.28125 
Q 37.984375 10.453125 37.984375 14.40625 
Q 37.984375 18.0625 35.515625 20.015625 
Q 33.0625 21.96875 24.703125 23.78125 
L 21.578125 24.515625 
Q 13.234375 26.265625 9.515625 29.90625 
Q 5.8125 33.546875 5.8125 39.890625 
Q 5.8125 47.609375 11.28125 51.796875 
Q 16.75 56 26.8125 56 
Q 31.78125 56 36.171875 55.265625 
Q 40.578125 54.546875 44.28125 53.078125 
z
" id="DejaVuSans-115"/>
       </defs>
       <use xlink:href="#DejaVuSans-90"/>
       <use x="68.505859" xlink:href="#DejaVuSans-95"/>
       <use x="118.505859" xlink:href="#DejaVuSans-49"/>
       <use x="182.128906" xlink:href="#DejaVuSans-95"/>
       <use x="232.128906" xlink:href="#DejaVuSans-110"/>
       <use x="295.507812" xlink:href="#DejaVuSans-115"/>
      </g>
     </g>
    </g>
    <g id="xtick_2">
     <g id="line2d_2">
      <g>
       <use style="stroke:#000000;stroke-width:0.8;" x="221.4" xlink:href="#m6e98062aea" y="252"/>
      </g>
     </g>
     <g id="text_2">
      <!-- Z_2_ns -->
      <g transform="translate(204.020312 266.421875)scale(0.1 -0.1)">
       <defs>
        <path d="M 19.1875 8.296875 
L 53.609375 8.296875 
L 53.609375 0 
L 7.328125 0 
L 7.328125 8.296875 
Q 12.9375 14.109375 22.625 23.890625 
Q 32.328125 33.6875 34.8125 36.53125 
Q 39.546875 41.84375 41.421875 45.53125 
Q 43.3125 49.21875 43.3125 52.78125 
Q 43.3125 58.59375 39.234375 62.25 
Q 35.15625 65.921875 28.609375 65.921875 
Q 23.96875 65.921875 18.8125 64.3125 
Q 13.671875 62.703125 7.8125 59.421875 
L 7.8125 69.390625 
Q 13.765625 71.78125 18.9375 73 
Q 24.125 74.21875 28.421875 74.21875 
Q 39.75 74.21875 46.484375 68.546875 
Q 53.21875 62.890625 53.21875 53.421875 
Q 53.21875 48.921875 51.53125 44.890625 
Q 49.859375 40.875 45.40625 35.40625 
Q 44.1875 33.984375 37.640625 27.21875 
Q 31.109375 20.453125 19.1875 8.296875 
z
" id="DejaVuSans-50"/>
       </defs>
       <use xlink:href="#DejaVuSans-90"/>
       <use x="68.505859" xlink:href="#DejaVuSans-95"/>
       <use x="118.505859" xlink:href="#DejaVuSans-50"/>
       <use x="182.128906" xlink:href="#DejaVuSans-95"/>
       <use x="232.128906" xlink:href="#DejaVuSans-110"/>
       <use x="295.507812" xlink:href="#DejaVuSans-115"/>
      </g>
     </g>
    </g>
    <g id="xtick_3">
     <g id="line2d_3">
      <g>
       <use style="stroke:#000000;stroke-width:0.8;" x="333" xlink:href="#m6e98062aea" y="252"/>
      </g>
     </g>
     <g id="text_3">
      <!-- Z_3_ns -->
      <g transform="translate(315.620313 266.421875)scale(0.1 -0.1)">
       <defs>
        <path d="M 40.578125 39.3125 
Q 47.65625 37.796875 51.625 33 
Q 55.609375 28.21875 55.609375 21.1875 
Q 55.609375 10.40625 48.1875 4.484375 
Q 40.765625 -1.421875 27.09375 -1.421875 
Q 22.515625 -1.421875 17.65625 -0.515625 
Q 12.796875 0.390625 7.625 2.203125 
L 7.625 11.71875 
Q 11.71875 9.328125 16.59375 8.109375 
Q 21.484375 6.890625 26.8125 6.890625 
Q 36.078125 6.890625 40.9375 10.546875 
Q 45.796875 14.203125 45.796875 21.1875 
Q 45.796875 27.640625 41.28125 31.265625 
Q 36.765625 34.90625 28.71875 34.90625 
L 20.21875 34.90625 
L 20.21875 43.015625 
L 29.109375 43.015625 
Q 36.375 43.015625 40.234375 45.921875 
Q 44.09375 48.828125 44.09375 54.296875 
Q 44.09375 59.90625 40.109375 62.90625 
Q 36.140625 65.921875 28.71875 65.921875 
Q 24.65625 65.921875 20.015625 65.03125 
Q 15.375 64.15625 9.8125 62.3125 
L 9.8125 71.09375 
Q 15.4375 72.65625 20.34375 73.4375 
Q 25.25 74.21875 29.59375 74.21875 
Q 40.828125 74.21875 47.359375 69.109375 
Q 53.90625 64.015625 53.90625 55.328125 
Q 53.90625 49.265625 50.4375 45.09375 
Q 46.96875 40.921875 40.578125 39.3125 
z
" id="DejaVuSans-51"/>
       </defs>
       <use xlink:href="#DejaVuSans-90"/>
       <use x="68.505859" xlink:href="#DejaVuSans-95"/>
       <use x="118.505859" xlink:href="#DejaVuSans-51"/>
       <use x="182.128906" xlink:href="#DejaVuSans-95"/>
       <use x="232.128906" xlink:href="#DejaVuSans-110"/>
       <use x="295.507812" xlink:href="#DejaVuSans-115"/>
      </g>
     </g>
    </g>
    <g id="text_4">
     <!-- set -->
     <g transform="translate(213.758594 280.378125)scale(0.1 -0.1)">
      <defs>
       <path d="M 56.203125 29.59375 
L 56.203125 25.203125 
L 14.890625 25.203125 
Q 15.484375 15.921875 20.484375 11.0625 
Q 25.484375 6.203125 34.421875 6.203125 
Q 39.59375 6.203125 44.453125 7.46875 
Q 49.3125 8.734375 54.109375 11.28125 
L 54.109375 2.78125 
Q 49.265625 0.734375 44.1875 -0.34375 
Q 39.109375 -1.421875 33.890625 -1.421875 
Q 20.796875 -1.421875 13.15625 6.1875 
Q 5.515625 13.8125 5.515625 26.8125 
Q 5.515625 40.234375 12.765625 48.109375 
Q 20.015625 56 32.328125 56 
Q 43.359375 56 49.78125 48.890625 
Q 56.203125 41.796875 56.203125 29.59375 
z
M 47.21875 32.234375 
Q 47.125 39.59375 43.09375 43.984375 
Q 39.0625 48.390625 32.421875 48.390625 
Q 24.90625 48.390625 20.390625 44.140625 
Q 15.875 39.890625 15.1875 32.171875 
z
" id="DejaVuSans-101"/>
       <path d="M 18.3125 70.21875 
L 18.3125 54.6875 
L 36.8125 54.6875 
L 36.8125 47.703125 
L 18.3125 47.703125 
L 18.3125 18.015625 
Q 18.3125 11.328125 20.140625 9.421875 
Q 21.96875 7.515625 27.59375 7.515625 
L 36.8125 7.515625 
L 36.8125 0 
L 27.59375 0 
Q 17.1875 0 13.234375 3.875 
Q 9.28125 7.765625 9.28125 18.015625 
L 9.28125 47.703125 
L 2.6875 47.703125 
L 2.6875 54.6875 
L 9.28125 54.6875 
L 9.28125 70.21875 
z
" id="DejaVuSans-116"/>
      </defs>
      <use xlink:href="#DejaVuSans-115"/>
      <use x="52.099609" xlink:href="#DejaVuSans-101"/>
      <use x="113.623047" xlink:href="#DejaVuSans-116"/>
     </g>
    </g>
   </g>
   <g id="matplotlib.axis_2">
    <g id="ytick_1">
     <g id="line2d_4">
      <defs>
       <path d="M 0 0 
L -3.5 0 
" id="m015f46a3e6" style="stroke:#000000;stroke-width:0.8;"/>
      </defs>
      <g>
       <use style="stroke:#000000;stroke-width:0.8;" x="54" xlink:href="#m015f46a3e6" y="210.460601"/>
      </g>
     </g>
     <g id="text_5">
      <!-- 10 -->
      <g transform="translate(34.275 214.25982)scale(0.1 -0.1)">
       <defs>
        <path d="M 31.78125 66.40625 
Q 24.171875 66.40625 20.328125 58.90625 
Q 16.5 51.421875 16.5 36.375 
Q 16.5 21.390625 20.328125 13.890625 
Q 24.171875 6.390625 31.78125 6.390625 
Q 39.453125 6.390625 43.28125 13.890625 
Q 47.125 21.390625 47.125 36.375 
Q 47.125 51.421875 43.28125 58.90625 
Q 39.453125 66.40625 31.78125 66.40625 
z
M 31.78125 74.21875 
Q 44.046875 74.21875 50.515625 64.515625 
Q 56.984375 54.828125 56.984375 36.375 
Q 56.984375 17.96875 50.515625 8.265625 
Q 44.046875 -1.421875 31.78125 -1.421875 
Q 19.53125 -1.421875 13.0625 8.265625 
Q 6.59375 17.96875 6.59375 36.375 
Q 6.59375 54.828125 13.0625 64.515625 
Q 19.53125 74.21875 31.78125 74.21875 
z
" id="DejaVuSans-48"/>
       </defs>
       <use xlink:href="#DejaVuSans-49"/>
       <use x="63.623047" xlink:href="#DejaVuSans-48"/>
      </g>
     </g>
    </g>
    <g id="ytick_2">
     <g id="line2d_5">
      <g>
       <use style="stroke:#000000;stroke-width:0.8;" x="54" xlink:href="#m015f46a3e6" y="168.842978"/>
      </g>
     </g>
     <g id="text_6">
      <!-- 20 -->
      <g transform="translate(34.275 172.642197)scale(0.1 -0.1)">
       <use xlink:href="#DejaVuSans-50"/>
       <use x="63.623047" xlink:href="#DejaVuSans-48"/>
      </g>
     </g>
    </g>
    <g id="ytick_3">
     <g id="line2d_6">
      <g>
       <use style="stroke:#000000;stroke-width:0.8;" x="54" xlink:href="#m015f46a3e6" y="127.225356"/>
      </g>
     </g>
     <g id="text_7">
      <!-- 30 -->
      <g transform="translate(34.275 131.024575)scale(0.1 -0.1)">
       <use xlink:href="#DejaVuSans-51"/>
       <use x="63.623047" xlink:href="#DejaVuSans-48"/>
      </g>
     </g>
    </g>
    <g id="ytick_4">
     <g id="line2d_7">
      <g>
       <use style="stroke:#000000;stroke-width:0.8;" x="54" xlink:href="#m015f46a3e6" y="85.607733"/>
      </g>
     </g>
     <g id="text_8">
      <!-- 40 -->
      <g transform="translate(34.275 89.406952)scale(0.1 -0.1)">
       <defs>
        <path d="M 37.796875 64.3125 
L 12.890625 25.390625 
L 37.796875 25.390625 
z
M 35.203125 72.90625 
L 47.609375 72.90625 
L 47.609375 25.390625 
L 58.015625 25.390625 
L 58.015625 17.1875 
L 47.609375 17.1875 
L 47.609375 0 
L 37.796875 0 
L 37.796875 17.1875 
L 4.890625 17.1875 
L 4.890625 26.703125 
z
" id="DejaVuSans-52"/>
       </defs>
       <use xlink:href="#DejaVuSans-52"/>
       <use x="63.623047" xlink:href="#DejaVuSans-48"/>
      </g>
     </g>
    </g>
    <g id="ytick_5">
     <g id="line2d_8">
      <g>
       <use style="stroke:#000000;stroke-width:0.8;" x="54" xlink:href="#m015f46a3e6" y="43.990111"/>
      </g>
     </g>
     <g id="text_9">
      <!-- 50 -->
      <g transform="translate(34.275 47.789329)scale(0.1 -0.1)">
       <defs>
        <path d="M 10.796875 72.90625 
L 49.515625 72.90625 
L 49.515625 64.59375 
L 19.828125 64.59375 
L 19.828125 46.734375 
Q 21.96875 47.46875 24.109375 47.828125 
Q 26.265625 48.1875 28.421875 48.1875 
Q 40.625 48.1875 47.75 41.5 
Q 54.890625 34.8125 54.890625 23.390625 
Q 54.890625 11.625 47.5625 5.09375 
Q 40.234375 -1.421875 26.90625 -1.421875 
Q 22.3125 -1.421875 17.546875 -0.640625 
Q 12.796875 0.140625 7.71875 1.703125 
L 7.71875 11.625 
Q 12.109375 9.234375 16.796875 8.0625 
Q 21.484375 6.890625 26.703125 6.890625 
Q 35.15625 6.890625 40.078125 11.328125 
Q 45.015625 15.765625 45.015625 23.390625 
Q 45.015625 31 40.078125 35.4375 
Q 35.15625 39.890625 26.703125 39.890625 
Q 22.75 39.890625 18.8125 39.015625 
Q 14.890625 38.140625 10.796875 36.28125 
z
" id="DejaVuSans-53"/>
       </defs>
       <use xlink:href="#DejaVuSans-53"/>
       <use x="63.623047" xlink:href="#DejaVuSans-48"/>
      </g>
     </g>
    </g>
    <g id="text_10">
     <!-- value -->
     <g transform="translate(28.195312 156.937813)rotate(-90)scale(0.1 -0.1)">
      <defs>
       <path d="M 2.984375 54.6875 
L 12.5 54.6875 
L 29.59375 8.796875 
L 46.6875 54.6875 
L 56.203125 54.6875 
L 35.6875 0 
L 23.484375 0 
z
" id="DejaVuSans-118"/>
       <path d="M 34.28125 27.484375 
Q 23.390625 27.484375 19.1875 25 
Q 14.984375 22.515625 14.984375 16.5 
Q 14.984375 11.71875 18.140625 8.90625 
Q 21.296875 6.109375 26.703125 6.109375 
Q 34.1875 6.109375 38.703125 11.40625 
Q 43.21875 16.703125 43.21875 25.484375 
L 43.21875 27.484375 
z
M 52.203125 31.203125 
L 52.203125 0 
L 43.21875 0 
L 43.21875 8.296875 
Q 40.140625 3.328125 35.546875 0.953125 
Q 30.953125 -1.421875 24.3125 -1.421875 
Q 15.921875 -1.421875 10.953125 3.296875 
Q 6 8.015625 6 15.921875 
Q 6 25.140625 12.171875 29.828125 
Q 18.359375 34.515625 30.609375 34.515625 
L 43.21875 34.515625 
L 43.21875 35.40625 
Q 43.21875 41.609375 39.140625 45 
Q 35.0625 48.390625 27.6875 48.390625 
Q 23 48.390625 18.546875 47.265625 
Q 14.109375 46.140625 10.015625 43.890625 
L 10.015625 52.203125 
Q 14.9375 54.109375 19.578125 55.046875 
Q 24.21875 56 28.609375 56 
Q 40.484375 56 46.34375 49.84375 
Q 52.203125 43.703125 52.203125 31.203125 
z
" id="DejaVuSans-97"/>
       <path d="M 9.421875 75.984375 
L 18.40625 75.984375 
L 18.40625 0 
L 9.421875 0 
z
" id="DejaVuSans-108"/>
       <path d="M 8.5 21.578125 
L 8.5 54.6875 
L 17.484375 54.6875 
L 17.484375 21.921875 
Q 17.484375 14.15625 20.5 10.265625 
Q 23.53125 6.390625 29.59375 6.390625 
Q 36.859375 6.390625 41.078125 11.03125 
Q 45.3125 15.671875 45.3125 23.6875 
L 45.3125 54.6875 
L 54.296875 54.6875 
L 54.296875 0 
L 45.3125 0 
L 45.3125 8.40625 
Q 42.046875 3.421875 37.71875 1 
Q 33.40625 -1.421875 27.6875 -1.421875 
Q 18.265625 -1.421875 13.375 4.4375 
Q 8.5 10.296875 8.5 21.578125 
z
M 31.109375 56 
z
" id="DejaVuSans-117"/>
      </defs>
      <use xlink:href="#DejaVuSans-118"/>
      <use x="59.179688" xlink:href="#DejaVuSans-97"/>
      <use x="120.458984" xlink:href="#DejaVuSans-108"/>
      <use x="148.242188" xlink:href="#DejaVuSans-117"/>
      <use x="211.621094" xlink:href="#DejaVuSans-101"/>
     </g>
    </g>
   </g>
   <g id="line2d_9">
    <path clip-path="url(#p4a7fa45c1a)" d="M 80.04 158.878048 
L 80.04 55.609941 
" style="fill:none;stroke:#3d3d3d;stroke-linecap:square;stroke-width:1.5;"/>
   </g>
   <g id="line2d_10">
    <path clip-path="url(#p4a7fa45c1a)" d="M 80.04 108.820404 
L 80.04 74.79404 
" style="fill:none;stroke:#3d3d3d;stroke-linecap:square;stroke-width:4.5;"/>
   </g>
   <g id="line2d_11">
    <path clip-path="url(#p4a7fa45c1a)" d="M 221.4 146.756232 
L 221.4 49.030777 
" style="fill:none;stroke:#3d3d3d;stroke-linecap:square;stroke-width:1.5;"/>
   </g>
   <g id="line2d_12">
    <path clip-path="url(#p4a7fa45c1a)" d="M 221.4 101.33757 
L 221.4 71.034024 
" style="fill:none;stroke:#3d3d3d;stroke-linecap:square;stroke-width:4.5;"/>
   </g>
   <g id="line2d_13">
    <path clip-path="url(#p4a7fa45c1a)" d="M 362.76 124.158901 
L 362.76 44.443636 
" style="fill:none;stroke:#3d3d3d;stroke-linecap:square;stroke-width:1.5;"/>
   </g>
   <g id="line2d_14">
    <path clip-path="url(#p4a7fa45c1a)" d="M 362.76 89.958252 
L 362.76 66.65658 
" style="fill:none;stroke:#3d3d3d;stroke-linecap:square;stroke-width:4.5;"/>
   </g>
   <g id="patch_6">
    <path d="M 54 252 
L 54 34.56 
" style="fill:none;stroke:#000000;stroke-linecap:square;stroke-linejoin:miter;stroke-width:0.8;"/>
   </g>
   <g id="patch_7">
    <path d="M 388.8 252 
L 388.8 34.56 
" style="fill:none;stroke:#000000;stroke-linecap:square;stroke-linejoin:miter;stroke-width:0.8;"/>
   </g>
   <g id="patch_8">
    <path d="M 54 252 
L 388.8 252 
" style="fill:none;stroke:#000000;stroke-linecap:square;stroke-linejoin:miter;stroke-width:0.8;"/>
   </g>
   <g id="patch_9">
    <path d="M 54 34.56 
L 388.8 34.56 
" style="fill:none;stroke:#000000;stroke-linecap:square;stroke-linejoin:miter;stroke-width:0.8;"/>
   </g>
   <g id="PathCollection_1">
    <defs>
     <path d="M 0 1.5 
C 0.397805 1.5 0.77937 1.341951 1.06066 1.06066 
C 1.341951 0.77937 1.5 0.397805 1.5 0 
C 1.5 -0.397805 1.341951 -0.77937 1.06066 -1.06066 
C 0.77937 -1.341951 0.397805 -1.5 0 -1.5 
C -0.397805 -1.5 -0.77937 -1.341951 -1.06066 -1.06066 
C -1.341951 -0.77937 -1.5 -0.397805 -1.5 0 
C -1.5 0.397805 -1.341951 0.77937 -1.06066 1.06066 
C -0.77937 1.341951 -0.397805 1.5 0 1.5 
z
" id="m9c44765654" style="stroke:#3d3d3d;"/>
    </defs>
    <g clip-path="url(#p4a7fa45c1a)">
     <use style="fill:#ffffff;stroke:#3d3d3d;" x="80.04" xlink:href="#m9c44765654" y="88.128773"/>
    </g>
   </g>
   <g id="PathCollection_2">
    <g clip-path="url(#p4a7fa45c1a)">
     <use style="fill:#ffffff;stroke:#3d3d3d;" x="221.4" xlink:href="#m9c44765654" y="84.010685"/>
    </g>
   </g>
   <g id="PathCollection_3">
    <g clip-path="url(#p4a7fa45c1a)">
     <use style="fill:#ffffff;stroke:#3d3d3d;" x="362.76" xlink:href="#m9c44765654" y="76.743096"/>
    </g>
   </g>
   <g id="legend_1">
    <g id="patch_10">
     <path d="M 61 247 
L 127.759375 247 
Q 129.759375 247 129.759375 245 
L 129.759375 186.453125 
Q 129.759375 184.453125 127.759375 184.453125 
L 61 184.453125 
Q 59 184.453125 59 186.453125 
L 59 245 
Q 59 247 61 247 
z
" style="fill:#ffffff;opacity:0.8;stroke:#cccccc;stroke-linejoin:miter;"/>
    </g>
    <g id="text_11">
     <!-- set -->
     <g transform="translate(86.738281 196.051562)scale(0.1 -0.1)">
      <use xlink:href="#DejaVuSans-115"/>
      <use x="52.099609" xlink:href="#DejaVuSans-101"/>
      <use x="113.623047" xlink:href="#DejaVuSans-116"/>
     </g>
    </g>
    <g id="patch_11">
     <path d="M 63 210.729687 
L 83 210.729687 
L 83 203.729687 
L 63 203.729687 
z
" style="fill:#3274a1;stroke:#3d3d3d;stroke-linejoin:miter;stroke-width:0.75;"/>
    </g>
    <g id="text_12">
     <!-- Z_1_ns -->
     <g transform="translate(91 210.729687)scale(0.1 -0.1)">
      <use xlink:href="#DejaVuSans-90"/>
      <use x="68.505859" xlink:href="#DejaVuSans-95"/>
      <use x="118.505859" xlink:href="#DejaVuSans-49"/>
      <use x="182.128906" xlink:href="#DejaVuSans-95"/>
      <use x="232.128906" xlink:href="#DejaVuSans-110"/>
      <use x="295.507812" xlink:href="#DejaVuSans-115"/>
     </g>
    </g>
    <g id="patch_12">
     <path d="M 63 225.685937 
L 83 225.685937 
L 83 218.685937 
L 63 218.685937 
z
" style="fill:#e1812c;stroke:#3d3d3d;stroke-linejoin:miter;stroke-width:0.75;"/>
    </g>
    <g id="text_13">
     <!-- Z_2_ns -->
     <g transform="translate(91 225.685937)scale(0.1 -0.1)">
      <use xlink:href="#DejaVuSans-90"/>
      <use x="68.505859" xlink:href="#DejaVuSans-95"/>
      <use x="118.505859" xlink:href="#DejaVuSans-50"/>
      <use x="182.128906" xlink:href="#DejaVuSans-95"/>
      <use x="232.128906" xlink:href="#DejaVuSans-110"/>
      <use x="295.507812" xlink:href="#DejaVuSans-115"/>
     </g>
    </g>
    <g id="patch_13">
     <path d="M 63 240.642187 
L 83 240.642187 
L 83 233.642187 
L 63 233.642187 
z
" style="fill:#3a923a;stroke:#3d3d3d;stroke-linejoin:miter;stroke-width:0.75;"/>
    </g>
    <g id="text_14">
     <!-- Z_3_ns -->
     <g transform="translate(91 240.642187)scale(0.1 -0.1)">
      <use xlink:href="#DejaVuSans-90"/>
      <use x="68.505859" xlink:href="#DejaVuSans-95"/>
      <use x="118.505859" xlink:href="#DejaVuSans-51"/>
      <use x="182.128906" xlink:href="#DejaVuSans-95"/>
      <use x="232.128906" xlink:href="#DejaVuSans-110"/>
      <use x="295.507812" xlink:href="#DejaVuSans-115"/>
     </g>
    </g>
   </g>
  </g>
 </g>
 <defs>
  <clipPath id="p4a7fa45c1a">
   <rect height="217.44" width="334.8" x="54" y="34.56"/>
  </clipPath>
 </defs>
</svg>
