<?xml version="1.0" encoding="utf-8" standalone="no"?>
<!DOCTYPE svg PUBLIC "-//W3C//DTD SVG 1.1//EN"
  "http://www.w3.org/Graphics/SVG/1.1/DTD/svg11.dtd">
<!-- Created with matplotlib (https://matplotlib.org/) -->
<svg height="288pt" version="1.1" viewBox="0 0 432 288" width="432pt" xmlns="http://www.w3.org/2000/svg" xmlns:xlink="http://www.w3.org/1999/xlink">
 <metadata>
  <rdf:RDF xmlns:cc="http://creativecommons.org/ns#" xmlns:dc="http://purl.org/dc/elements/1.1/" xmlns:rdf="http://www.w3.org/1999/02/22-rdf-syntax-ns#">
   <cc:Work>
    <dc:type rdf:resource="http://purl.org/dc/dcmitype/StillImage"/>
    <dc:date>2021-07-13T18:01:04.336616</dc:date>
    <dc:format>image/svg+xml</dc:format>
    <dc:creator>
     <cc:Agent>
      <dc:title>Matplotlib v3.3.4, https://matplotlib.org/</dc:title>
     </cc:Agent>
    </dc:creator>
   </cc:Work>
  </rdf:RDF>
 </metadata>
 <defs>
  <style type="text/css">*{stroke-linecap:butt;stroke-linejoin:round;}</style>
 </defs>
 <g id="figure_1">
  <g id="patch_1">
   <path d="M 0 288 
L 432 288 
L 432 0 
L 0 0 
z
" style="fill:#ffffff;"/>
  </g>
  <g id="axes_1">
   <g id="patch_2">
    <path d="M 54 252 
L 388.8 252 
L 388.8 34.56 
L 54 34.56 
z
" style="fill:#ffffff;"/>
   </g>
   <g id="PolyCollection_1">
    <defs>
     <path d="M 80.572714 -51.785822 
L 79.507286 -51.785822 
L 77.09988 -53.557149 
L 71.160266 -55.328476 
L 65.16 -57.099803 
L 65.323895 -58.87113 
L 70.176724 -60.642457 
L 74.391506 -62.413784 
L 76.588634 -64.185111 
L 77.651816 -65.956438 
L 78.319395 -67.727765 
L 78.796996 -69.499092 
L 79.05583 -71.270419 
L 79.182576 -73.041746 
L 79.305077 -74.813074 
L 79.433801 -76.584401 
L 79.532525 -78.355728 
L 79.601819 -80.127055 
L 79.665697 -81.898382 
L 79.741712 -83.669709 
L 79.810699 -85.441036 
L 79.853427 -87.212363 
L 79.888634 -88.98369 
L 79.926229 -90.755017 
L 79.953933 -92.526344 
L 79.965978 -94.297671 
L 79.967459 -96.068999 
L 79.966634 -97.840326 
L 79.967935 -99.611653 
L 79.972321 -101.38298 
L 79.973234 -103.154307 
L 79.969625 -104.925634 
L 79.972211 -106.696961 
L 79.979618 -108.468288 
L 79.982294 -110.239615 
L 79.981082 -112.010942 
L 79.984926 -113.782269 
L 79.99544 -115.553596 
L 80.008055 -117.324923 
L 80.013675 -119.096251 
L 80.007509 -120.867578 
L 80.003491 -122.638905 
L 80.012323 -124.410232 
L 80.023222 -126.181559 
L 80.028632 -127.952886 
L 80.032723 -129.724213 
L 80.037036 -131.49554 
L 80.039292 -133.266867 
L 80.039384 -135.038194 
L 80.037411 -136.809521 
L 80.033717 -138.580848 
L 80.032101 -140.352175 
L 80.034046 -142.123503 
L 80.033969 -143.89483 
L 80.028806 -145.666157 
L 80.022672 -147.437484 
L 80.021235 -149.208811 
L 80.025658 -150.980138 
L 80.028501 -152.751465 
L 80.025244 -154.522792 
L 80.024804 -156.294119 
L 80.031452 -158.065446 
L 80.037405 -159.836773 
L 80.038621 -161.6081 
L 80.035479 -163.379427 
L 80.028721 -165.150755 
L 80.022602 -166.922082 
L 80.021439 -168.693409 
L 80.024005 -170.464736 
L 80.02632 -172.236063 
L 80.027251 -174.00739 
L 80.028447 -175.778717 
L 80.031733 -177.550044 
L 80.036288 -179.321371 
L 80.039086 -181.092698 
L 80.039883 -182.864025 
L 80.039992 -184.635352 
L 80.04 -186.40668 
L 80.04 -188.178007 
L 80.04 -189.949334 
L 80.04 -191.720661 
L 80.039991 -193.491988 
L 80.039867 -195.263315 
L 80.039011 -197.034642 
L 80.036244 -198.805969 
L 80.032733 -200.577296 
L 80.032834 -202.348623 
L 80.036399 -204.11995 
L 80.039078 -205.891277 
L 80.03988 -207.662604 
L 80.039992 -209.433932 
L 80.04 -211.205259 
L 80.04 -212.976586 
L 80.04 -214.747913 
L 80.04 -216.51924 
L 80.039998 -218.290567 
L 80.039964 -220.061894 
L 80.039622 -221.833221 
L 80.03796 -223.604548 
L 80.034394 -225.375875 
L 80.032148 -227.147202 
L 80.047852 -227.147202 
L 80.047852 -227.147202 
L 80.045606 -225.375875 
L 80.04204 -223.604548 
L 80.040378 -221.833221 
L 80.040036 -220.061894 
L 80.040002 -218.290567 
L 80.04 -216.51924 
L 80.04 -214.747913 
L 80.04 -212.976586 
L 80.04 -211.205259 
L 80.040008 -209.433932 
L 80.04012 -207.662604 
L 80.040922 -205.891277 
L 80.043601 -204.11995 
L 80.047166 -202.348623 
L 80.047267 -200.577296 
L 80.043756 -198.805969 
L 80.040989 -197.034642 
L 80.040133 -195.263315 
L 80.040009 -193.491988 
L 80.04 -191.720661 
L 80.04 -189.949334 
L 80.04 -188.178007 
L 80.04 -186.40668 
L 80.040008 -184.635352 
L 80.040117 -182.864025 
L 80.040914 -181.092698 
L 80.043712 -179.321371 
L 80.048267 -177.550044 
L 80.051553 -175.778717 
L 80.052749 -174.00739 
L 80.05368 -172.236063 
L 80.055995 -170.464736 
L 80.058561 -168.693409 
L 80.057398 -166.922082 
L 80.051279 -165.150755 
L 80.044521 -163.379427 
L 80.041379 -161.6081 
L 80.042595 -159.836773 
L 80.048548 -158.065446 
L 80.055196 -156.294119 
L 80.054756 -154.522792 
L 80.051499 -152.751465 
L 80.054342 -150.980138 
L 80.058765 -149.208811 
L 80.057328 -147.437484 
L 80.051194 -145.666157 
L 80.046031 -143.89483 
L 80.045954 -142.123503 
L 80.047899 -140.352175 
L 80.046283 -138.580848 
L 80.042589 -136.809521 
L 80.040616 -135.038194 
L 80.040708 -133.266867 
L 80.042964 -131.49554 
L 80.047277 -129.724213 
L 80.051368 -127.952886 
L 80.056778 -126.181559 
L 80.067677 -124.410232 
L 80.076509 -122.638905 
L 80.072491 -120.867578 
L 80.066325 -119.096251 
L 80.071945 -117.324923 
L 80.08456 -115.553596 
L 80.095074 -113.782269 
L 80.098918 -112.010942 
L 80.097706 -110.239615 
L 80.100382 -108.468288 
L 80.107789 -106.696961 
L 80.110375 -104.925634 
L 80.106766 -103.154307 
L 80.107679 -101.38298 
L 80.112065 -99.611653 
L 80.113366 -97.840326 
L 80.112541 -96.068999 
L 80.114022 -94.297671 
L 80.126067 -92.526344 
L 80.153771 -90.755017 
L 80.191366 -88.98369 
L 80.226573 -87.212363 
L 80.269301 -85.441036 
L 80.338288 -83.669709 
L 80.414303 -81.898382 
L 80.478181 -80.127055 
L 80.547475 -78.355728 
L 80.646199 -76.584401 
L 80.774923 -74.813074 
L 80.897424 -73.041746 
L 81.02417 -71.270419 
L 81.283004 -69.499092 
L 81.760605 -67.727765 
L 82.428184 -65.956438 
L 83.491366 -64.185111 
L 85.688494 -62.413784 
L 89.903276 -60.642457 
L 94.756105 -58.87113 
L 94.92 -57.099803 
L 88.919734 -55.328476 
L 82.98012 -53.557149 
L 80.572714 -51.785822 
z
" id="ma5b4077e19" style="stroke:#3d3d3d;stroke-width:1.5;"/>
    </defs>
    <g clip-path="url(#p7f0e0bf365)">
     <use style="fill:#3274a1;stroke:#3d3d3d;stroke-width:1.5;" x="0" xlink:href="#ma5b4077e19" y="288"/>
    </g>
   </g>
   <g id="PolyCollection_2">
    <defs>
     <path d="M 221.417786 -45.883636 
L 221.382214 -45.883636 
L 221.36862 -47.880331 
L 221.339268 -49.877025 
L 221.237909 -51.873719 
L 219.801569 -53.870413 
L 212.137435 -55.867107 
L 206.52 -57.863802 
L 212.461538 -59.860496 
L 217.19869 -61.85719 
L 219.283378 -63.853884 
L 220.232324 -65.850579 
L 220.680574 -67.847273 
L 220.940207 -69.843967 
L 221.032004 -71.840661 
L 221.103149 -73.837355 
L 221.171828 -75.83405 
L 221.24054 -77.830744 
L 221.283928 -79.827438 
L 221.297195 -81.824132 
L 221.306577 -83.820826 
L 221.32105 -85.817521 
L 221.347428 -87.814215 
L 221.368608 -89.810909 
L 221.374874 -91.807603 
L 221.379615 -93.804298 
L 221.3861 -95.800992 
L 221.38205 -97.797686 
L 221.373732 -99.79438 
L 221.371949 -101.791074 
L 221.383973 -103.787769 
L 221.388 -105.784463 
L 221.371965 -107.781157 
L 221.374577 -109.777851 
L 221.390523 -111.774545 
L 221.398914 -113.77124 
L 221.399946 -115.767934 
L 221.399128 -117.764628 
L 221.393713 -119.761322 
L 221.385439 -121.758017 
L 221.383226 -123.754711 
L 221.394244 -125.751405 
L 221.399592 -127.748099 
L 221.399994 -129.744793 
L 221.4 -131.741488 
L 221.4 -133.738182 
L 221.4 -135.734876 
L 221.4 -137.73157 
L 221.399986 -139.728264 
L 221.399422 -141.724959 
L 221.395296 -143.721653 
L 221.392559 -145.718347 
L 221.395563 -147.715041 
L 221.39251 -149.711736 
L 221.395427 -151.70843 
L 221.399457 -153.705124 
L 221.399858 -155.701818 
L 221.397763 -157.698512 
L 221.39265 -159.695207 
L 221.395382 -161.691901 
L 221.399124 -163.688595 
L 221.396395 -165.685289 
L 221.392367 -167.681983 
L 221.396901 -169.678678 
L 221.39976 -171.675372 
L 221.399996 -173.672066 
L 221.4 -175.66876 
L 221.399996 -177.665455 
L 221.399738 -179.662149 
L 221.396763 -181.658843 
L 221.392356 -183.655537 
L 221.396552 -185.652231 
L 221.399703 -187.648926 
L 221.399995 -189.64562 
L 221.4 -191.642314 
L 221.4 -193.639008 
L 221.4 -195.635702 
L 221.4 -197.632397 
L 221.4 -199.629091 
L 221.4 -201.625785 
L 221.4 -203.622479 
L 221.4 -205.619174 
L 221.4 -207.615868 
L 221.4 -209.612562 
L 221.4 -211.609256 
L 221.4 -213.60595 
L 221.4 -215.602645 
L 221.4 -217.599339 
L 221.4 -219.596033 
L 221.4 -221.592727 
L 221.4 -223.589421 
L 221.4 -225.586116 
L 221.4 -227.58281 
L 221.4 -229.579504 
L 221.4 -231.576198 
L 221.4 -233.572893 
L 221.4 -235.569587 
L 221.399996 -237.566281 
L 221.399721 -239.562975 
L 221.396658 -241.559669 
L 221.392354 -243.556364 
L 221.407646 -243.556364 
L 221.407646 -243.556364 
L 221.403342 -241.559669 
L 221.400279 -239.562975 
L 221.400004 -237.566281 
L 221.4 -235.569587 
L 221.4 -233.572893 
L 221.4 -231.576198 
L 221.4 -229.579504 
L 221.4 -227.58281 
L 221.4 -225.586116 
L 221.4 -223.589421 
L 221.4 -221.592727 
L 221.4 -219.596033 
L 221.4 -217.599339 
L 221.4 -215.602645 
L 221.4 -213.60595 
L 221.4 -211.609256 
L 221.4 -209.612562 
L 221.4 -207.615868 
L 221.4 -205.619174 
L 221.4 -203.622479 
L 221.4 -201.625785 
L 221.4 -199.629091 
L 221.4 -197.632397 
L 221.4 -195.635702 
L 221.4 -193.639008 
L 221.4 -191.642314 
L 221.400005 -189.64562 
L 221.400297 -187.648926 
L 221.403448 -185.652231 
L 221.407644 -183.655537 
L 221.403237 -181.658843 
L 221.400262 -179.662149 
L 221.400004 -177.665455 
L 221.4 -175.66876 
L 221.400004 -173.672066 
L 221.40024 -171.675372 
L 221.403099 -169.678678 
L 221.407633 -167.681983 
L 221.403605 -165.685289 
L 221.400876 -163.688595 
L 221.404618 -161.691901 
L 221.40735 -159.695207 
L 221.402237 -157.698512 
L 221.400142 -155.701818 
L 221.400543 -153.705124 
L 221.404573 -151.70843 
L 221.40749 -149.711736 
L 221.404437 -147.715041 
L 221.407441 -145.718347 
L 221.404704 -143.721653 
L 221.400578 -141.724959 
L 221.400014 -139.728264 
L 221.4 -137.73157 
L 221.4 -135.734876 
L 221.4 -133.738182 
L 221.4 -131.741488 
L 221.400006 -129.744793 
L 221.400408 -127.748099 
L 221.405756 -125.751405 
L 221.416774 -123.754711 
L 221.414561 -121.758017 
L 221.406287 -119.761322 
L 221.400872 -117.764628 
L 221.400054 -115.767934 
L 221.401086 -113.77124 
L 221.409477 -111.774545 
L 221.425423 -109.777851 
L 221.428035 -107.781157 
L 221.412 -105.784463 
L 221.416027 -103.787769 
L 221.428051 -101.791074 
L 221.426268 -99.79438 
L 221.41795 -97.797686 
L 221.4139 -95.800992 
L 221.420385 -93.804298 
L 221.425126 -91.807603 
L 221.431392 -89.810909 
L 221.452572 -87.814215 
L 221.47895 -85.817521 
L 221.493423 -83.820826 
L 221.502805 -81.824132 
L 221.516072 -79.827438 
L 221.55946 -77.830744 
L 221.628172 -75.83405 
L 221.696851 -73.837355 
L 221.767996 -71.840661 
L 221.859793 -69.843967 
L 222.119426 -67.847273 
L 222.567676 -65.850579 
L 223.516622 -63.853884 
L 225.60131 -61.85719 
L 230.338462 -59.860496 
L 236.28 -57.863802 
L 230.662565 -55.867107 
L 222.998431 -53.870413 
L 221.562091 -51.873719 
L 221.460732 -49.877025 
L 221.43138 -47.880331 
L 221.417786 -45.883636 
z
" id="m42b089279b" style="stroke:#3d3d3d;stroke-width:1.5;"/>
    </defs>
    <g clip-path="url(#p7f0e0bf365)">
     <use style="fill:#e1812c;stroke:#3d3d3d;stroke-width:1.5;" x="0" xlink:href="#m42b089279b" y="288"/>
    </g>
   </g>
   <g id="PolyCollection_3">
    <defs>
     <path d="M 362.775149 -51.424678 
L 362.744851 -51.424678 
L 362.744434 -51.755122 
L 362.751923 -52.085565 
L 362.749942 -52.416008 
L 362.73553 -52.746451 
L 362.729481 -53.076894 
L 362.738179 -53.407337 
L 362.7419 -53.73778 
L 362.710536 -54.068223 
L 362.65665 -54.398666 
L 362.613998 -54.72911 
L 362.569521 -55.059553 
L 362.406024 -55.389996 
L 361.92773 -55.720439 
L 360.763981 -56.050882 
L 357.855898 -56.381325 
L 352.472864 -56.711768 
L 347.88 -57.042211 
L 349.017349 -57.372654 
L 354.026345 -57.703097 
L 358.009082 -58.033541 
L 359.993308 -58.363984 
L 361.061442 -58.694427 
L 361.66702 -59.02487 
L 361.994773 -59.355313 
L 362.195229 -59.685756 
L 362.334432 -60.016199 
L 362.423979 -60.346642 
L 362.471458 -60.677085 
L 362.542955 -61.007528 
L 362.576511 -61.337972 
L 362.602593 -61.668415 
L 362.638195 -61.998858 
L 362.671348 -62.329301 
L 362.700816 -62.659744 
L 362.712751 -62.990187 
L 362.692709 -63.32063 
L 362.688527 -63.651073 
L 362.714731 -63.981516 
L 362.72652 -64.31196 
L 362.71754 -64.642403 
L 362.714975 -64.972846 
L 362.721896 -65.303289 
L 362.73298 -65.633732 
L 362.744275 -65.964175 
L 362.753088 -66.294618 
L 362.7553 -66.625061 
L 362.75006 -66.955504 
L 362.748387 -67.285947 
L 362.747964 -67.616391 
L 362.748639 -67.946834 
L 362.748669 -68.277277 
L 362.751916 -68.60772 
L 362.751372 -68.938163 
L 362.736945 -69.268606 
L 362.733359 -69.599049 
L 362.7492 -69.929492 
L 362.756569 -70.259935 
L 362.752111 -70.590378 
L 362.749657 -70.920822 
L 362.750765 -71.251265 
L 362.749629 -71.581708 
L 362.754635 -71.912151 
L 362.758898 -72.242594 
L 362.75757 -72.573037 
L 362.751639 -72.90348 
L 362.749769 -73.233923 
L 362.750581 -73.564366 
L 362.749811 -73.894809 
L 362.755189 -74.225253 
L 362.757926 -74.555696 
L 362.753368 -74.886139 
L 362.750168 -75.216582 
L 362.755443 -75.547025 
L 362.759019 -75.877468 
L 362.756882 -76.207911 
L 362.750982 -76.538354 
L 362.751826 -76.868797 
L 362.757699 -77.199241 
L 362.759799 -77.529684 
L 362.759995 -77.860127 
L 362.76 -78.19057 
L 362.759995 -78.521013 
L 362.759809 -78.851456 
L 362.757771 -79.181899 
L 362.751921 -79.512342 
L 362.75091 -79.842785 
L 362.756824 -80.173228 
L 362.759656 -80.503672 
L 362.759988 -80.834115 
L 362.76 -81.164558 
L 362.76 -81.495001 
L 362.76 -81.825444 
L 362.76 -82.155887 
L 362.76 -82.48633 
L 362.759999 -82.816773 
L 362.759948 -83.147216 
L 362.759038 -83.477659 
L 362.75444 -83.808103 
L 362.750022 -84.138546 
L 362.769978 -84.138546 
L 362.769978 -84.138546 
L 362.76556 -83.808103 
L 362.760962 -83.477659 
L 362.760052 -83.147216 
L 362.760001 -82.816773 
L 362.76 -82.48633 
L 362.76 -82.155887 
L 362.76 -81.825444 
L 362.76 -81.495001 
L 362.76 -81.164558 
L 362.760012 -80.834115 
L 362.760344 -80.503672 
L 362.763176 -80.173228 
L 362.76909 -79.842785 
L 362.768079 -79.512342 
L 362.762229 -79.181899 
L 362.760191 -78.851456 
L 362.760005 -78.521013 
L 362.76 -78.19057 
L 362.760005 -77.860127 
L 362.760201 -77.529684 
L 362.762301 -77.199241 
L 362.768174 -76.868797 
L 362.769018 -76.538354 
L 362.763118 -76.207911 
L 362.760981 -75.877468 
L 362.764557 -75.547025 
L 362.769832 -75.216582 
L 362.766632 -74.886139 
L 362.762074 -74.555696 
L 362.764811 -74.225253 
L 362.770189 -73.894809 
L 362.769419 -73.564366 
L 362.770231 -73.233923 
L 362.768361 -72.90348 
L 362.76243 -72.573037 
L 362.761102 -72.242594 
L 362.765365 -71.912151 
L 362.770371 -71.581708 
L 362.769235 -71.251265 
L 362.770343 -70.920822 
L 362.767889 -70.590378 
L 362.763431 -70.259935 
L 362.7708 -69.929492 
L 362.786641 -69.599049 
L 362.783055 -69.268606 
L 362.768628 -68.938163 
L 362.768084 -68.60772 
L 362.771331 -68.277277 
L 362.771361 -67.946834 
L 362.772036 -67.616391 
L 362.771613 -67.285947 
L 362.76994 -66.955504 
L 362.7647 -66.625061 
L 362.766912 -66.294618 
L 362.775725 -65.964175 
L 362.78702 -65.633732 
L 362.798104 -65.303289 
L 362.805025 -64.972846 
L 362.80246 -64.642403 
L 362.79348 -64.31196 
L 362.805269 -63.981516 
L 362.831473 -63.651073 
L 362.827291 -63.32063 
L 362.807249 -62.990187 
L 362.819184 -62.659744 
L 362.848652 -62.329301 
L 362.881805 -61.998858 
L 362.917407 -61.668415 
L 362.943489 -61.337972 
L 362.977045 -61.007528 
L 363.048542 -60.677085 
L 363.096021 -60.346642 
L 363.185568 -60.016199 
L 363.324771 -59.685756 
L 363.525227 -59.355313 
L 363.85298 -59.02487 
L 364.458558 -58.694427 
L 365.526692 -58.363984 
L 367.510918 -58.033541 
L 371.493655 -57.703097 
L 376.502651 -57.372654 
L 377.64 -57.042211 
L 373.047136 -56.711768 
L 367.664102 -56.381325 
L 364.756019 -56.050882 
L 363.59227 -55.720439 
L 363.113976 -55.389996 
L 362.950479 -55.059553 
L 362.906002 -54.72911 
L 362.86335 -54.398666 
L 362.809464 -54.068223 
L 362.7781 -53.73778 
L 362.781821 -53.407337 
L 362.790519 -53.076894 
L 362.78447 -52.746451 
L 362.770058 -52.416008 
L 362.768077 -52.085565 
L 362.775566 -51.755122 
L 362.775149 -51.424678 
z
" id="m3df09d2c83" style="stroke:#3d3d3d;stroke-width:1.5;"/>
    </defs>
    <g clip-path="url(#p7f0e0bf365)">
     <use style="fill:#3a923a;stroke:#3d3d3d;stroke-width:1.5;" x="0" xlink:href="#m3df09d2c83" y="288"/>
    </g>
   </g>
   <g id="patch_3">
    <path clip-path="url(#p7f0e0bf365)" d="M 109.8 231.030487 
L 109.8 231.030487 
L 109.8 231.030487 
L 109.8 231.030487 
z
" style="fill:#3274a1;stroke:#3d3d3d;stroke-linejoin:miter;stroke-width:0.75;"/>
   </g>
   <g id="patch_4">
    <path clip-path="url(#p7f0e0bf365)" d="M 109.8 231.030487 
L 109.8 231.030487 
L 109.8 231.030487 
L 109.8 231.030487 
z
" style="fill:#e1812c;stroke:#3d3d3d;stroke-linejoin:miter;stroke-width:0.75;"/>
   </g>
   <g id="patch_5">
    <path clip-path="url(#p7f0e0bf365)" d="M 109.8 231.030487 
L 109.8 231.030487 
L 109.8 231.030487 
L 109.8 231.030487 
z
" style="fill:#3a923a;stroke:#3d3d3d;stroke-linejoin:miter;stroke-width:0.75;"/>
   </g>
   <g id="matplotlib.axis_1">
    <g id="xtick_1">
     <g id="line2d_1">
      <defs>
       <path d="M 0 0 
L 0 3.5 
" id="mabfe5d5402" style="stroke:#000000;stroke-width:0.8;"/>
      </defs>
      <g>
       <use style="stroke:#000000;stroke-width:0.8;" x="109.8" xlink:href="#mabfe5d5402" y="252"/>
      </g>
     </g>
     <g id="text_1">
      <!-- Z_1_ns -->
      <g transform="translate(92.420312 266.320312)scale(0.1 -0.1)">
       <defs>
        <path d="M 5.609375 72.90625 
L 62.890625 72.90625 
L 62.890625 65.375 
L 16.796875 8.296875 
L 64.015625 8.296875 
L 64.015625 0 
L 4.5 0 
L 4.5 7.515625 
L 50.59375 64.59375 
L 5.609375 64.59375 
z
" id="DejaVuSans-90"/>
        <path d="M 50.984375 -16.609375 
L 50.984375 -23.578125 
L -0.984375 -23.578125 
L -0.984375 -16.609375 
z
" id="DejaVuSans-95"/>
        <path d="M 12.40625 8.296875 
L 28.515625 8.296875 
L 28.515625 63.921875 
L 10.984375 60.40625 
L 10.984375 69.390625 
L 28.421875 72.90625 
L 38.28125 72.90625 
L 38.28125 8.296875 
L 54.390625 8.296875 
L 54.390625 0 
L 12.40625 0 
z
" id="DejaVuSans-49"/>
        <path d="M 54.890625 33.015625 
L 54.890625 0 
L 45.90625 0 
L 45.90625 32.71875 
Q 45.90625 40.484375 42.875 44.328125 
Q 39.84375 48.1875 33.796875 48.1875 
Q 26.515625 48.1875 22.3125 43.546875 
Q 18.109375 38.921875 18.109375 30.90625 
L 18.109375 0 
L 9.078125 0 
L 9.078125 54.6875 
L 18.109375 54.6875 
L 18.109375 46.1875 
Q 21.34375 51.125 25.703125 53.5625 
Q 30.078125 56 35.796875 56 
Q 45.21875 56 50.046875 50.171875 
Q 54.890625 44.34375 54.890625 33.015625 
z
" id="DejaVuSans-110"/>
        <path d="M 44.28125 53.078125 
L 44.28125 44.578125 
Q 40.484375 46.53125 36.375 47.5 
Q 32.28125 48.484375 27.875 48.484375 
Q 21.1875 48.484375 17.84375 46.4375 
Q 14.5 44.390625 14.5 40.28125 
Q 14.5 37.15625 16.890625 35.375 
Q 19.28125 33.59375 26.515625 31.984375 
L 29.59375 31.296875 
Q 39.15625 29.25 43.1875 25.515625 
Q 47.21875 21.78125 47.21875 15.09375 
Q 47.21875 7.46875 41.1875 3.015625 
Q 35.15625 -1.421875 24.609375 -1.421875 
Q 20.21875 -1.421875 15.453125 -0.5625 
Q 10.6875 0.296875 5.421875 2 
L 5.421875 11.28125 
Q 10.40625 8.6875 15.234375 7.390625 
Q 20.0625 6.109375 24.8125 6.109375 
Q 31.15625 6.109375 34.5625 8.28125 
Q 37.984375 10.453125 37.984375 14.40625 
Q 37.984375 18.0625 35.515625 20.015625 
Q 33.0625 21.96875 24.703125 23.78125 
L 21.578125 24.515625 
Q 13.234375 26.265625 9.515625 29.90625 
Q 5.8125 33.546875 5.8125 39.890625 
Q 5.8125 47.609375 11.28125 51.796875 
Q 16.75 56 26.8125 56 
Q 31.78125 56 36.171875 55.265625 
Q 40.578125 54.546875 44.28125 53.078125 
z
" id="DejaVuSans-115"/>
       </defs>
       <use xlink:href="#DejaVuSans-90"/>
       <use x="68.505859" xlink:href="#DejaVuSans-95"/>
       <use x="118.505859" xlink:href="#DejaVuSans-49"/>
       <use x="182.128906" xlink:href="#DejaVuSans-95"/>
       <use x="232.128906" xlink:href="#DejaVuSans-110"/>
       <use x="295.507812" xlink:href="#DejaVuSans-115"/>
      </g>
     </g>
    </g>
    <g id="xtick_2">
     <g id="line2d_2">
      <g>
       <use style="stroke:#000000;stroke-width:0.8;" x="221.4" xlink:href="#mabfe5d5402" y="252"/>
      </g>
     </g>
     <g id="text_2">
      <!-- Z_2_ns -->
      <g transform="translate(204.020312 266.421875)scale(0.1 -0.1)">
       <defs>
        <path d="M 19.1875 8.296875 
L 53.609375 8.296875 
L 53.609375 0 
L 7.328125 0 
L 7.328125 8.296875 
Q 12.9375 14.109375 22.625 23.890625 
Q 32.328125 33.6875 34.8125 36.53125 
Q 39.546875 41.84375 41.421875 45.53125 
Q 43.3125 49.21875 43.3125 52.78125 
Q 43.3125 58.59375 39.234375 62.25 
Q 35.15625 65.921875 28.609375 65.921875 
Q 23.96875 65.921875 18.8125 64.3125 
Q 13.671875 62.703125 7.8125 59.421875 
L 7.8125 69.390625 
Q 13.765625 71.78125 18.9375 73 
Q 24.125 74.21875 28.421875 74.21875 
Q 39.75 74.21875 46.484375 68.546875 
Q 53.21875 62.890625 53.21875 53.421875 
Q 53.21875 48.921875 51.53125 44.890625 
Q 49.859375 40.875 45.40625 35.40625 
Q 44.1875 33.984375 37.640625 27.21875 
Q 31.109375 20.453125 19.1875 8.296875 
z
" id="DejaVuSans-50"/>
       </defs>
       <use xlink:href="#DejaVuSans-90"/>
       <use x="68.505859" xlink:href="#DejaVuSans-95"/>
       <use x="118.505859" xlink:href="#DejaVuSans-50"/>
       <use x="182.128906" xlink:href="#DejaVuSans-95"/>
       <use x="232.128906" xlink:href="#DejaVuSans-110"/>
       <use x="295.507812" xlink:href="#DejaVuSans-115"/>
      </g>
     </g>
    </g>
    <g id="xtick_3">
     <g id="line2d_3">
      <g>
       <use style="stroke:#000000;stroke-width:0.8;" x="333" xlink:href="#mabfe5d5402" y="252"/>
      </g>
     </g>
     <g id="text_3">
      <!-- Z_3_ns -->
      <g transform="translate(315.620313 266.421875)scale(0.1 -0.1)">
       <defs>
        <path d="M 40.578125 39.3125 
Q 47.65625 37.796875 51.625 33 
Q 55.609375 28.21875 55.609375 21.1875 
Q 55.609375 10.40625 48.1875 4.484375 
Q 40.765625 -1.421875 27.09375 -1.421875 
Q 22.515625 -1.421875 17.65625 -0.515625 
Q 12.796875 0.390625 7.625 2.203125 
L 7.625 11.71875 
Q 11.71875 9.328125 16.59375 8.109375 
Q 21.484375 6.890625 26.8125 6.890625 
Q 36.078125 6.890625 40.9375 10.546875 
Q 45.796875 14.203125 45.796875 21.1875 
Q 45.796875 27.640625 41.28125 31.265625 
Q 36.765625 34.90625 28.71875 34.90625 
L 20.21875 34.90625 
L 20.21875 43.015625 
L 29.109375 43.015625 
Q 36.375 43.015625 40.234375 45.921875 
Q 44.09375 48.828125 44.09375 54.296875 
Q 44.09375 59.90625 40.109375 62.90625 
Q 36.140625 65.921875 28.71875 65.921875 
Q 24.65625 65.921875 20.015625 65.03125 
Q 15.375 64.15625 9.8125 62.3125 
L 9.8125 71.09375 
Q 15.4375 72.65625 20.34375 73.4375 
Q 25.25 74.21875 29.59375 74.21875 
Q 40.828125 74.21875 47.359375 69.109375 
Q 53.90625 64.015625 53.90625 55.328125 
Q 53.90625 49.265625 50.4375 45.09375 
Q 46.96875 40.921875 40.578125 39.3125 
z
" id="DejaVuSans-51"/>
       </defs>
       <use xlink:href="#DejaVuSans-90"/>
       <use x="68.505859" xlink:href="#DejaVuSans-95"/>
       <use x="118.505859" xlink:href="#DejaVuSans-51"/>
       <use x="182.128906" xlink:href="#DejaVuSans-95"/>
       <use x="232.128906" xlink:href="#DejaVuSans-110"/>
       <use x="295.507812" xlink:href="#DejaVuSans-115"/>
      </g>
     </g>
    </g>
    <g id="text_4">
     <!-- set -->
     <g transform="translate(213.758594 280.378125)scale(0.1 -0.1)">
      <defs>
       <path d="M 56.203125 29.59375 
L 56.203125 25.203125 
L 14.890625 25.203125 
Q 15.484375 15.921875 20.484375 11.0625 
Q 25.484375 6.203125 34.421875 6.203125 
Q 39.59375 6.203125 44.453125 7.46875 
Q 49.3125 8.734375 54.109375 11.28125 
L 54.109375 2.78125 
Q 49.265625 0.734375 44.1875 -0.34375 
Q 39.109375 -1.421875 33.890625 -1.421875 
Q 20.796875 -1.421875 13.15625 6.1875 
Q 5.515625 13.8125 5.515625 26.8125 
Q 5.515625 40.234375 12.765625 48.109375 
Q 20.015625 56 32.328125 56 
Q 43.359375 56 49.78125 48.890625 
Q 56.203125 41.796875 56.203125 29.59375 
z
M 47.21875 32.234375 
Q 47.125 39.59375 43.09375 43.984375 
Q 39.0625 48.390625 32.421875 48.390625 
Q 24.90625 48.390625 20.390625 44.140625 
Q 15.875 39.890625 15.1875 32.171875 
z
" id="DejaVuSans-101"/>
       <path d="M 18.3125 70.21875 
L 18.3125 54.6875 
L 36.8125 54.6875 
L 36.8125 47.703125 
L 18.3125 47.703125 
L 18.3125 18.015625 
Q 18.3125 11.328125 20.140625 9.421875 
Q 21.96875 7.515625 27.59375 7.515625 
L 36.8125 7.515625 
L 36.8125 0 
L 27.59375 0 
Q 17.1875 0 13.234375 3.875 
Q 9.28125 7.765625 9.28125 18.015625 
L 9.28125 47.703125 
L 2.6875 47.703125 
L 2.6875 54.6875 
L 9.28125 54.6875 
L 9.28125 70.21875 
z
" id="DejaVuSans-116"/>
      </defs>
      <use xlink:href="#DejaVuSans-115"/>
      <use x="52.099609" xlink:href="#DejaVuSans-101"/>
      <use x="113.623047" xlink:href="#DejaVuSans-116"/>
     </g>
    </g>
   </g>
   <g id="matplotlib.axis_2">
    <g id="ytick_1">
     <g id="line2d_4">
      <defs>
       <path d="M 0 0 
L -3.5 0 
" id="m072c5ac50f" style="stroke:#000000;stroke-width:0.8;"/>
      </defs>
      <g>
       <use style="stroke:#000000;stroke-width:0.8;" x="54" xlink:href="#m072c5ac50f" y="231.030487"/>
      </g>
     </g>
     <g id="text_5">
      <!-- 0.00 -->
      <g transform="translate(24.734375 234.829706)scale(0.1 -0.1)">
       <defs>
        <path d="M 31.78125 66.40625 
Q 24.171875 66.40625 20.328125 58.90625 
Q 16.5 51.421875 16.5 36.375 
Q 16.5 21.390625 20.328125 13.890625 
Q 24.171875 6.390625 31.78125 6.390625 
Q 39.453125 6.390625 43.28125 13.890625 
Q 47.125 21.390625 47.125 36.375 
Q 47.125 51.421875 43.28125 58.90625 
Q 39.453125 66.40625 31.78125 66.40625 
z
M 31.78125 74.21875 
Q 44.046875 74.21875 50.515625 64.515625 
Q 56.984375 54.828125 56.984375 36.375 
Q 56.984375 17.96875 50.515625 8.265625 
Q 44.046875 -1.421875 31.78125 -1.421875 
Q 19.53125 -1.421875 13.0625 8.265625 
Q 6.59375 17.96875 6.59375 36.375 
Q 6.59375 54.828125 13.0625 64.515625 
Q 19.53125 74.21875 31.78125 74.21875 
z
" id="DejaVuSans-48"/>
        <path d="M 10.6875 12.40625 
L 21 12.40625 
L 21 0 
L 10.6875 0 
z
" id="DejaVuSans-46"/>
       </defs>
       <use xlink:href="#DejaVuSans-48"/>
       <use x="63.623047" xlink:href="#DejaVuSans-46"/>
       <use x="95.410156" xlink:href="#DejaVuSans-48"/>
       <use x="159.033203" xlink:href="#DejaVuSans-48"/>
      </g>
     </g>
    </g>
    <g id="ytick_2">
     <g id="line2d_5">
      <g>
       <use style="stroke:#000000;stroke-width:0.8;" x="54" xlink:href="#m072c5ac50f" y="199.412471"/>
      </g>
     </g>
     <g id="text_6">
      <!-- 0.02 -->
      <g transform="translate(24.734375 203.21169)scale(0.1 -0.1)">
       <use xlink:href="#DejaVuSans-48"/>
       <use x="63.623047" xlink:href="#DejaVuSans-46"/>
       <use x="95.410156" xlink:href="#DejaVuSans-48"/>
       <use x="159.033203" xlink:href="#DejaVuSans-50"/>
      </g>
     </g>
    </g>
    <g id="ytick_3">
     <g id="line2d_6">
      <g>
       <use style="stroke:#000000;stroke-width:0.8;" x="54" xlink:href="#m072c5ac50f" y="167.794455"/>
      </g>
     </g>
     <g id="text_7">
      <!-- 0.04 -->
      <g transform="translate(24.734375 171.593674)scale(0.1 -0.1)">
       <defs>
        <path d="M 37.796875 64.3125 
L 12.890625 25.390625 
L 37.796875 25.390625 
z
M 35.203125 72.90625 
L 47.609375 72.90625 
L 47.609375 25.390625 
L 58.015625 25.390625 
L 58.015625 17.1875 
L 47.609375 17.1875 
L 47.609375 0 
L 37.796875 0 
L 37.796875 17.1875 
L 4.890625 17.1875 
L 4.890625 26.703125 
z
" id="DejaVuSans-52"/>
       </defs>
       <use xlink:href="#DejaVuSans-48"/>
       <use x="63.623047" xlink:href="#DejaVuSans-46"/>
       <use x="95.410156" xlink:href="#DejaVuSans-48"/>
       <use x="159.033203" xlink:href="#DejaVuSans-52"/>
      </g>
     </g>
    </g>
    <g id="ytick_4">
     <g id="line2d_7">
      <g>
       <use style="stroke:#000000;stroke-width:0.8;" x="54" xlink:href="#m072c5ac50f" y="136.176439"/>
      </g>
     </g>
     <g id="text_8">
      <!-- 0.06 -->
      <g transform="translate(24.734375 139.975657)scale(0.1 -0.1)">
       <defs>
        <path d="M 33.015625 40.375 
Q 26.375 40.375 22.484375 35.828125 
Q 18.609375 31.296875 18.609375 23.390625 
Q 18.609375 15.53125 22.484375 10.953125 
Q 26.375 6.390625 33.015625 6.390625 
Q 39.65625 6.390625 43.53125 10.953125 
Q 47.40625 15.53125 47.40625 23.390625 
Q 47.40625 31.296875 43.53125 35.828125 
Q 39.65625 40.375 33.015625 40.375 
z
M 52.59375 71.296875 
L 52.59375 62.3125 
Q 48.875 64.0625 45.09375 64.984375 
Q 41.3125 65.921875 37.59375 65.921875 
Q 27.828125 65.921875 22.671875 59.328125 
Q 17.53125 52.734375 16.796875 39.40625 
Q 19.671875 43.65625 24.015625 45.921875 
Q 28.375 48.1875 33.59375 48.1875 
Q 44.578125 48.1875 50.953125 41.515625 
Q 57.328125 34.859375 57.328125 23.390625 
Q 57.328125 12.15625 50.6875 5.359375 
Q 44.046875 -1.421875 33.015625 -1.421875 
Q 20.359375 -1.421875 13.671875 8.265625 
Q 6.984375 17.96875 6.984375 36.375 
Q 6.984375 53.65625 15.1875 63.9375 
Q 23.390625 74.21875 37.203125 74.21875 
Q 40.921875 74.21875 44.703125 73.484375 
Q 48.484375 72.75 52.59375 71.296875 
z
" id="DejaVuSans-54"/>
       </defs>
       <use xlink:href="#DejaVuSans-48"/>
       <use x="63.623047" xlink:href="#DejaVuSans-46"/>
       <use x="95.410156" xlink:href="#DejaVuSans-48"/>
       <use x="159.033203" xlink:href="#DejaVuSans-54"/>
      </g>
     </g>
    </g>
    <g id="ytick_5">
     <g id="line2d_8">
      <g>
       <use style="stroke:#000000;stroke-width:0.8;" x="54" xlink:href="#m072c5ac50f" y="104.558422"/>
      </g>
     </g>
     <g id="text_9">
      <!-- 0.08 -->
      <g transform="translate(24.734375 108.357641)scale(0.1 -0.1)">
       <defs>
        <path d="M 31.78125 34.625 
Q 24.75 34.625 20.71875 30.859375 
Q 16.703125 27.09375 16.703125 20.515625 
Q 16.703125 13.921875 20.71875 10.15625 
Q 24.75 6.390625 31.78125 6.390625 
Q 38.8125 6.390625 42.859375 10.171875 
Q 46.921875 13.96875 46.921875 20.515625 
Q 46.921875 27.09375 42.890625 30.859375 
Q 38.875 34.625 31.78125 34.625 
z
M 21.921875 38.8125 
Q 15.578125 40.375 12.03125 44.71875 
Q 8.5 49.078125 8.5 55.328125 
Q 8.5 64.0625 14.71875 69.140625 
Q 20.953125 74.21875 31.78125 74.21875 
Q 42.671875 74.21875 48.875 69.140625 
Q 55.078125 64.0625 55.078125 55.328125 
Q 55.078125 49.078125 51.53125 44.71875 
Q 48 40.375 41.703125 38.8125 
Q 48.828125 37.15625 52.796875 32.3125 
Q 56.78125 27.484375 56.78125 20.515625 
Q 56.78125 9.90625 50.3125 4.234375 
Q 43.84375 -1.421875 31.78125 -1.421875 
Q 19.734375 -1.421875 13.25 4.234375 
Q 6.78125 9.90625 6.78125 20.515625 
Q 6.78125 27.484375 10.78125 32.3125 
Q 14.796875 37.15625 21.921875 38.8125 
z
M 18.3125 54.390625 
Q 18.3125 48.734375 21.84375 45.5625 
Q 25.390625 42.390625 31.78125 42.390625 
Q 38.140625 42.390625 41.71875 45.5625 
Q 45.3125 48.734375 45.3125 54.390625 
Q 45.3125 60.0625 41.71875 63.234375 
Q 38.140625 66.40625 31.78125 66.40625 
Q 25.390625 66.40625 21.84375 63.234375 
Q 18.3125 60.0625 18.3125 54.390625 
z
" id="DejaVuSans-56"/>
       </defs>
       <use xlink:href="#DejaVuSans-48"/>
       <use x="63.623047" xlink:href="#DejaVuSans-46"/>
       <use x="95.410156" xlink:href="#DejaVuSans-48"/>
       <use x="159.033203" xlink:href="#DejaVuSans-56"/>
      </g>
     </g>
    </g>
    <g id="ytick_6">
     <g id="line2d_9">
      <g>
       <use style="stroke:#000000;stroke-width:0.8;" x="54" xlink:href="#m072c5ac50f" y="72.940406"/>
      </g>
     </g>
     <g id="text_10">
      <!-- 0.10 -->
      <g transform="translate(24.734375 76.739625)scale(0.1 -0.1)">
       <use xlink:href="#DejaVuSans-48"/>
       <use x="63.623047" xlink:href="#DejaVuSans-46"/>
       <use x="95.410156" xlink:href="#DejaVuSans-49"/>
       <use x="159.033203" xlink:href="#DejaVuSans-48"/>
      </g>
     </g>
    </g>
    <g id="ytick_7">
     <g id="line2d_10">
      <g>
       <use style="stroke:#000000;stroke-width:0.8;" x="54" xlink:href="#m072c5ac50f" y="41.32239"/>
      </g>
     </g>
     <g id="text_11">
      <!-- 0.12 -->
      <g transform="translate(24.734375 45.121608)scale(0.1 -0.1)">
       <use xlink:href="#DejaVuSans-48"/>
       <use x="63.623047" xlink:href="#DejaVuSans-46"/>
       <use x="95.410156" xlink:href="#DejaVuSans-49"/>
       <use x="159.033203" xlink:href="#DejaVuSans-50"/>
      </g>
     </g>
    </g>
    <g id="text_12">
     <!-- value -->
     <g transform="translate(18.654688 156.937813)rotate(-90)scale(0.1 -0.1)">
      <defs>
       <path d="M 2.984375 54.6875 
L 12.5 54.6875 
L 29.59375 8.796875 
L 46.6875 54.6875 
L 56.203125 54.6875 
L 35.6875 0 
L 23.484375 0 
z
" id="DejaVuSans-118"/>
       <path d="M 34.28125 27.484375 
Q 23.390625 27.484375 19.1875 25 
Q 14.984375 22.515625 14.984375 16.5 
Q 14.984375 11.71875 18.140625 8.90625 
Q 21.296875 6.109375 26.703125 6.109375 
Q 34.1875 6.109375 38.703125 11.40625 
Q 43.21875 16.703125 43.21875 25.484375 
L 43.21875 27.484375 
z
M 52.203125 31.203125 
L 52.203125 0 
L 43.21875 0 
L 43.21875 8.296875 
Q 40.140625 3.328125 35.546875 0.953125 
Q 30.953125 -1.421875 24.3125 -1.421875 
Q 15.921875 -1.421875 10.953125 3.296875 
Q 6 8.015625 6 15.921875 
Q 6 25.140625 12.171875 29.828125 
Q 18.359375 34.515625 30.609375 34.515625 
L 43.21875 34.515625 
L 43.21875 35.40625 
Q 43.21875 41.609375 39.140625 45 
Q 35.0625 48.390625 27.6875 48.390625 
Q 23 48.390625 18.546875 47.265625 
Q 14.109375 46.140625 10.015625 43.890625 
L 10.015625 52.203125 
Q 14.9375 54.109375 19.578125 55.046875 
Q 24.21875 56 28.609375 56 
Q 40.484375 56 46.34375 49.84375 
Q 52.203125 43.703125 52.203125 31.203125 
z
" id="DejaVuSans-97"/>
       <path d="M 9.421875 75.984375 
L 18.40625 75.984375 
L 18.40625 0 
L 9.421875 0 
z
" id="DejaVuSans-108"/>
       <path d="M 8.5 21.578125 
L 8.5 54.6875 
L 17.484375 54.6875 
L 17.484375 21.921875 
Q 17.484375 14.15625 20.5 10.265625 
Q 23.53125 6.390625 29.59375 6.390625 
Q 36.859375 6.390625 41.078125 11.03125 
Q 45.3125 15.671875 45.3125 23.6875 
L 45.3125 54.6875 
L 54.296875 54.6875 
L 54.296875 0 
L 45.3125 0 
L 45.3125 8.40625 
Q 42.046875 3.421875 37.71875 1 
Q 33.40625 -1.421875 27.6875 -1.421875 
Q 18.265625 -1.421875 13.375 4.4375 
Q 8.5 10.296875 8.5 21.578125 
z
M 31.109375 56 
z
" id="DejaVuSans-117"/>
      </defs>
      <use xlink:href="#DejaVuSans-118"/>
      <use x="59.179688" xlink:href="#DejaVuSans-97"/>
      <use x="120.458984" xlink:href="#DejaVuSans-108"/>
      <use x="148.242188" xlink:href="#DejaVuSans-117"/>
      <use x="211.621094" xlink:href="#DejaVuSans-101"/>
     </g>
    </g>
   </g>
   <g id="line2d_11">
    <path clip-path="url(#p7f0e0bf365)" d="M 80.04 236.214178 
L 80.04 219.622056 
" style="fill:none;stroke:#3d3d3d;stroke-linecap:square;stroke-width:1.5;"/>
   </g>
   <g id="line2d_12">
    <path clip-path="url(#p7f0e0bf365)" d="M 80.04 230.769196 
L 80.04 226.310036 
" style="fill:none;stroke:#3d3d3d;stroke-linecap:square;stroke-width:4.5;"/>
   </g>
   <g id="line2d_13">
    <path clip-path="url(#p7f0e0bf365)" d="M 221.4 235.254031 
L 221.4 223.156322 
" style="fill:none;stroke:#3d3d3d;stroke-linecap:square;stroke-width:1.5;"/>
   </g>
   <g id="line2d_14">
    <path clip-path="url(#p7f0e0bf365)" d="M 221.4 230.905352 
L 221.4 227.803622 
" style="fill:none;stroke:#3d3d3d;stroke-linecap:square;stroke-width:4.5;"/>
   </g>
   <g id="line2d_15">
    <path clip-path="url(#p7f0e0bf365)" d="M 362.76 232.162206 
L 362.76 229.303818 
" style="fill:none;stroke:#3d3d3d;stroke-linecap:square;stroke-width:1.5;"/>
   </g>
   <g id="line2d_16">
    <path clip-path="url(#p7f0e0bf365)" d="M 362.76 231.088195 
L 362.76 230.371863 
" style="fill:none;stroke:#3d3d3d;stroke-linecap:square;stroke-width:4.5;"/>
   </g>
   <g id="patch_6">
    <path d="M 54 252 
L 54 34.56 
" style="fill:none;stroke:#000000;stroke-linecap:square;stroke-linejoin:miter;stroke-width:0.8;"/>
   </g>
   <g id="patch_7">
    <path d="M 388.8 252 
L 388.8 34.56 
" style="fill:none;stroke:#000000;stroke-linecap:square;stroke-linejoin:miter;stroke-width:0.8;"/>
   </g>
   <g id="patch_8">
    <path d="M 54 252 
L 388.8 252 
" style="fill:none;stroke:#000000;stroke-linecap:square;stroke-linejoin:miter;stroke-width:0.8;"/>
   </g>
   <g id="patch_9">
    <path d="M 54 34.56 
L 388.8 34.56 
" style="fill:none;stroke:#000000;stroke-linecap:square;stroke-linejoin:miter;stroke-width:0.8;"/>
   </g>
   <g id="PathCollection_1">
    <defs>
     <path d="M 0 1.5 
C 0.397805 1.5 0.77937 1.341951 1.06066 1.06066 
C 1.341951 0.77937 1.5 0.397805 1.5 0 
C 1.5 -0.397805 1.341951 -0.77937 1.06066 -1.06066 
C 0.77937 -1.341951 0.397805 -1.5 0 -1.5 
C -0.397805 -1.5 -0.77937 -1.341951 -1.06066 -1.06066 
C -1.341951 -0.77937 -1.5 -0.397805 -1.5 0 
C -1.5 0.397805 -1.341951 0.77937 -1.06066 1.06066 
C -0.77937 1.341951 -0.397805 1.5 0 1.5 
z
" id="m89eda8841b" style="stroke:#3d3d3d;"/>
    </defs>
    <g clip-path="url(#p7f0e0bf365)">
     <use style="fill:#ffffff;stroke:#3d3d3d;" x="80.04" xlink:href="#m89eda8841b" y="229.782305"/>
    </g>
   </g>
   <g id="PathCollection_2">
    <g clip-path="url(#p7f0e0bf365)">
     <use style="fill:#ffffff;stroke:#3d3d3d;" x="221.4" xlink:href="#m89eda8841b" y="230.091718"/>
    </g>
   </g>
   <g id="PathCollection_3">
    <g clip-path="url(#p7f0e0bf365)">
     <use style="fill:#ffffff;stroke:#3d3d3d;" x="362.76" xlink:href="#m89eda8841b" y="230.788605"/>
    </g>
   </g>
   <g id="legend_1">
    <g id="patch_10">
     <path d="M 315.040625 102.106875 
L 381.8 102.106875 
Q 383.8 102.106875 383.8 100.106875 
L 383.8 41.56 
Q 383.8 39.56 381.8 39.56 
L 315.040625 39.56 
Q 313.040625 39.56 313.040625 41.56 
L 313.040625 100.106875 
Q 313.040625 102.106875 315.040625 102.106875 
z
" style="fill:#ffffff;opacity:0.8;stroke:#cccccc;stroke-linejoin:miter;"/>
    </g>
    <g id="text_13">
     <!-- set -->
     <g transform="translate(340.778906 51.158437)scale(0.1 -0.1)">
      <use xlink:href="#DejaVuSans-115"/>
      <use x="52.099609" xlink:href="#DejaVuSans-101"/>
      <use x="113.623047" xlink:href="#DejaVuSans-116"/>
     </g>
    </g>
    <g id="patch_11">
     <path d="M 317.040625 65.836562 
L 337.040625 65.836562 
L 337.040625 58.836562 
L 317.040625 58.836562 
z
" style="fill:#3274a1;stroke:#3d3d3d;stroke-linejoin:miter;stroke-width:0.75;"/>
    </g>
    <g id="text_14">
     <!-- Z_1_ns -->
     <g transform="translate(345.040625 65.836562)scale(0.1 -0.1)">
      <use xlink:href="#DejaVuSans-90"/>
      <use x="68.505859" xlink:href="#DejaVuSans-95"/>
      <use x="118.505859" xlink:href="#DejaVuSans-49"/>
      <use x="182.128906" xlink:href="#DejaVuSans-95"/>
      <use x="232.128906" xlink:href="#DejaVuSans-110"/>
      <use x="295.507812" xlink:href="#DejaVuSans-115"/>
     </g>
    </g>
    <g id="patch_12">
     <path d="M 317.040625 80.792812 
L 337.040625 80.792812 
L 337.040625 73.792812 
L 317.040625 73.792812 
z
" style="fill:#e1812c;stroke:#3d3d3d;stroke-linejoin:miter;stroke-width:0.75;"/>
    </g>
    <g id="text_15">
     <!-- Z_2_ns -->
     <g transform="translate(345.040625 80.792812)scale(0.1 -0.1)">
      <use xlink:href="#DejaVuSans-90"/>
      <use x="68.505859" xlink:href="#DejaVuSans-95"/>
      <use x="118.505859" xlink:href="#DejaVuSans-50"/>
      <use x="182.128906" xlink:href="#DejaVuSans-95"/>
      <use x="232.128906" xlink:href="#DejaVuSans-110"/>
      <use x="295.507812" xlink:href="#DejaVuSans-115"/>
     </g>
    </g>
    <g id="patch_13">
     <path d="M 317.040625 95.749062 
L 337.040625 95.749062 
L 337.040625 88.749062 
L 317.040625 88.749062 
z
" style="fill:#3a923a;stroke:#3d3d3d;stroke-linejoin:miter;stroke-width:0.75;"/>
    </g>
    <g id="text_16">
     <!-- Z_3_ns -->
     <g transform="translate(345.040625 95.749062)scale(0.1 -0.1)">
      <use xlink:href="#DejaVuSans-90"/>
      <use x="68.505859" xlink:href="#DejaVuSans-95"/>
      <use x="118.505859" xlink:href="#DejaVuSans-51"/>
      <use x="182.128906" xlink:href="#DejaVuSans-95"/>
      <use x="232.128906" xlink:href="#DejaVuSans-110"/>
      <use x="295.507812" xlink:href="#DejaVuSans-115"/>
     </g>
    </g>
   </g>
  </g>
 </g>
 <defs>
  <clipPath id="p7f0e0bf365">
   <rect height="217.44" width="334.8" x="54" y="34.56"/>
  </clipPath>
 </defs>
</svg>
