<?xml version="1.0" encoding="utf-8" standalone="no"?>
<!DOCTYPE svg PUBLIC "-//W3C//DTD SVG 1.1//EN"
  "http://www.w3.org/Graphics/SVG/1.1/DTD/svg11.dtd">
<!-- Created with matplotlib (https://matplotlib.org/) -->
<svg height="288pt" version="1.1" viewBox="0 0 432 288" width="432pt" xmlns="http://www.w3.org/2000/svg" xmlns:xlink="http://www.w3.org/1999/xlink">
 <metadata>
  <rdf:RDF xmlns:cc="http://creativecommons.org/ns#" xmlns:dc="http://purl.org/dc/elements/1.1/" xmlns:rdf="http://www.w3.org/1999/02/22-rdf-syntax-ns#">
   <cc:Work>
    <dc:type rdf:resource="http://purl.org/dc/dcmitype/StillImage"/>
    <dc:date>2021-07-13T18:01:07.743543</dc:date>
    <dc:format>image/svg+xml</dc:format>
    <dc:creator>
     <cc:Agent>
      <dc:title>Matplotlib v3.3.4, https://matplotlib.org/</dc:title>
     </cc:Agent>
    </dc:creator>
   </cc:Work>
  </rdf:RDF>
 </metadata>
 <defs>
  <style type="text/css">*{stroke-linecap:butt;stroke-linejoin:round;}</style>
 </defs>
 <g id="figure_1">
  <g id="patch_1">
   <path d="M 0 288 
L 432 288 
L 432 0 
L 0 0 
z
" style="fill:#ffffff;"/>
  </g>
  <g id="axes_1">
   <g id="patch_2">
    <path d="M 54 252 
L 388.8 252 
L 388.8 34.56 
L 54 34.56 
z
" style="fill:#ffffff;"/>
   </g>
   <g id="PolyCollection_1">
    <defs>
     <path d="M 80.078236 -111.003542 
L 80.001764 -111.003542 
L 79.999332 -112.342459 
L 80.001367 -113.681376 
L 80.006165 -115.020294 
L 80.010645 -116.359211 
L 80.011927 -117.698129 
L 80.00888 -119.037046 
L 80.002646 -120.375963 
L 79.995696 -121.714881 
L 79.989842 -123.053798 
L 79.984596 -124.392716 
L 79.977258 -125.731633 
L 79.964921 -127.07055 
L 79.946768 -128.409468 
L 79.924609 -129.748385 
L 79.901184 -131.087303 
L 79.878078 -132.42622 
L 79.855509 -133.765137 
L 79.834137 -135.104055 
L 79.816419 -136.442972 
L 79.805144 -137.78189 
L 79.799723 -139.120807 
L 79.793731 -140.459724 
L 79.77684 -141.798642 
L 79.740662 -143.137559 
L 79.684382 -144.476476 
L 79.615816 -145.815394 
L 79.547265 -147.154311 
L 79.489811 -148.493229 
L 79.450241 -149.832146 
L 79.431235 -151.171063 
L 79.432153 -152.509981 
L 79.448441 -153.848898 
L 79.470769 -155.187816 
L 79.486238 -156.526733 
L 79.482063 -157.86565 
L 79.449698 -159.204568 
L 79.386797 -160.543485 
L 79.295878 -161.882403 
L 79.180946 -163.22132 
L 79.045157 -164.560237 
L 78.89215 -165.899155 
L 78.729987 -167.238072 
L 78.572606 -168.57699 
L 78.434548 -169.915907 
L 78.32153 -171.254824 
L 78.225287 -172.593742 
L 78.128415 -173.932659 
L 78.015332 -175.271577 
L 77.879603 -176.610494 
L 77.721911 -177.949411 
L 77.541762 -179.288329 
L 77.330639 -180.627246 
L 77.071949 -181.966164 
L 76.747238 -183.305081 
L 76.343491 -184.643998 
L 75.856156 -185.982916 
L 75.28757 -187.321833 
L 74.645342 -188.66075 
L 73.943657 -189.999668 
L 73.203235 -191.338585 
L 72.442701 -192.677503 
L 71.663234 -194.01642 
L 70.842229 -195.355337 
L 69.951468 -196.694255 
L 68.993243 -198.033172 
L 68.02449 -199.37209 
L 67.143299 -200.711007 
L 66.444259 -202.049924 
L 65.975152 -203.388842 
L 65.721017 -204.727759 
L 65.615872 -206.066677 
L 65.56919 -207.405594 
L 65.500197 -208.744511 
L 65.37531 -210.083429 
L 65.231218 -211.422346 
L 65.16 -212.761264 
L 65.256844 -214.100181 
L 65.567753 -215.439098 
L 66.07958 -216.778016 
L 66.754998 -218.116933 
L 67.571563 -219.455851 
L 68.524483 -220.794768 
L 69.595398 -222.133685 
L 70.727164 -223.472603 
L 71.837189 -224.81152 
L 72.85954 -226.150438 
L 73.775919 -227.489355 
L 74.60876 -228.828272 
L 75.387931 -230.16719 
L 76.123605 -231.506107 
L 76.804259 -232.845024 
L 77.411968 -234.183942 
L 77.936405 -235.522859 
L 78.378577 -236.861777 
L 78.747633 -238.200694 
L 79.056154 -239.539611 
L 79.315529 -240.878529 
L 79.532171 -242.217446 
L 79.706958 -243.556364 
L 80.373042 -243.556364 
L 80.373042 -243.556364 
L 80.547829 -242.217446 
L 80.764471 -240.878529 
L 81.023846 -239.539611 
L 81.332367 -238.200694 
L 81.701423 -236.861777 
L 82.143595 -235.522859 
L 82.668032 -234.183942 
L 83.275741 -232.845024 
L 83.956395 -231.506107 
L 84.692069 -230.16719 
L 85.47124 -228.828272 
L 86.304081 -227.489355 
L 87.22046 -226.150438 
L 88.242811 -224.81152 
L 89.352836 -223.472603 
L 90.484602 -222.133685 
L 91.555517 -220.794768 
L 92.508437 -219.455851 
L 93.325002 -218.116933 
L 94.00042 -216.778016 
L 94.512247 -215.439098 
L 94.823156 -214.100181 
L 94.92 -212.761264 
L 94.848782 -211.422346 
L 94.70469 -210.083429 
L 94.579803 -208.744511 
L 94.51081 -207.405594 
L 94.464128 -206.066677 
L 94.358983 -204.727759 
L 94.104848 -203.388842 
L 93.635741 -202.049924 
L 92.936701 -200.711007 
L 92.05551 -199.37209 
L 91.086757 -198.033172 
L 90.128532 -196.694255 
L 89.237771 -195.355337 
L 88.416766 -194.01642 
L 87.637299 -192.677503 
L 86.876765 -191.338585 
L 86.136343 -189.999668 
L 85.434658 -188.66075 
L 84.79243 -187.321833 
L 84.223844 -185.982916 
L 83.736509 -184.643998 
L 83.332762 -183.305081 
L 83.008051 -181.966164 
L 82.749361 -180.627246 
L 82.538238 -179.288329 
L 82.358089 -177.949411 
L 82.200397 -176.610494 
L 82.064668 -175.271577 
L 81.951585 -173.932659 
L 81.854713 -172.593742 
L 81.75847 -171.254824 
L 81.645452 -169.915907 
L 81.507394 -168.57699 
L 81.350013 -167.238072 
L 81.18785 -165.899155 
L 81.034843 -164.560237 
L 80.899054 -163.22132 
L 80.784122 -161.882403 
L 80.693203 -160.543485 
L 80.630302 -159.204568 
L 80.597937 -157.86565 
L 80.593762 -156.526733 
L 80.609231 -155.187816 
L 80.631559 -153.848898 
L 80.647847 -152.509981 
L 80.648765 -151.171063 
L 80.629759 -149.832146 
L 80.590189 -148.493229 
L 80.532735 -147.154311 
L 80.464184 -145.815394 
L 80.395618 -144.476476 
L 80.339338 -143.137559 
L 80.30316 -141.798642 
L 80.286269 -140.459724 
L 80.280277 -139.120807 
L 80.274856 -137.78189 
L 80.263581 -136.442972 
L 80.245863 -135.104055 
L 80.224491 -133.765137 
L 80.201922 -132.42622 
L 80.178816 -131.087303 
L 80.155391 -129.748385 
L 80.133232 -128.409468 
L 80.115079 -127.07055 
L 80.102742 -125.731633 
L 80.095404 -124.392716 
L 80.090158 -123.053798 
L 80.084304 -121.714881 
L 80.077354 -120.375963 
L 80.07112 -119.037046 
L 80.068073 -117.698129 
L 80.069355 -116.359211 
L 80.073835 -115.020294 
L 80.078633 -113.681376 
L 80.080668 -112.342459 
L 80.078236 -111.003542 
z
" id="m7a15cef6e7" style="stroke:#3d3d3d;stroke-width:1.5;"/>
    </defs>
    <g clip-path="url(#pe3a66282c7)">
     <use style="fill:#3274a1;stroke:#3d3d3d;stroke-width:1.5;" x="0" xlink:href="#m7a15cef6e7" y="288"/>
    </g>
   </g>
   <g id="PolyCollection_2">
    <defs>
     <path d="M 221.418766 -51.361847 
L 221.381234 -51.361847 
L 221.38388 -53.299635 
L 221.389784 -55.237424 
L 221.395223 -57.175213 
L 221.398352 -59.113002 
L 221.399581 -61.050791 
L 221.399921 -62.98858 
L 221.399989 -64.926369 
L 221.399998 -66.864158 
L 221.399995 -68.801947 
L 221.399959 -70.739736 
L 221.399758 -72.677525 
L 221.398944 -74.615313 
L 221.396594 -76.553102 
L 221.391897 -78.490891 
L 221.385777 -80.42868 
L 221.381581 -82.366469 
L 221.3824 -84.304258 
L 221.387592 -86.242047 
L 221.393546 -88.179836 
L 221.397523 -90.117625 
L 221.399295 -92.055414 
L 221.399826 -93.993203 
L 221.399805 -95.930991 
L 221.399194 -97.86878 
L 221.397246 -99.806569 
L 221.393031 -101.744358 
L 221.386976 -103.682147 
L 221.381956 -105.619936 
L 221.381091 -107.557725 
L 221.383483 -109.495514 
L 221.383586 -111.433303 
L 221.375932 -113.371092 
L 221.360447 -115.308881 
L 221.343185 -117.24667 
L 221.331143 -119.184458 
L 221.325834 -121.122247 
L 221.32194 -123.060036 
L 221.310999 -124.997825 
L 221.288174 -126.935614 
L 221.260044 -128.873403 
L 221.24214 -130.811192 
L 221.24169 -132.748981 
L 221.247087 -134.68677 
L 221.240596 -136.624559 
L 221.216632 -138.562348 
L 221.182906 -140.500136 
L 221.148689 -142.437925 
L 221.117687 -144.375714 
L 221.088833 -146.313503 
L 221.054985 -148.251292 
L 221.001436 -150.189081 
L 220.918608 -152.12687 
L 220.819927 -154.064659 
L 220.733614 -156.002448 
L 220.672495 -157.940237 
L 220.62325 -159.878026 
L 220.563819 -161.815815 
L 220.479479 -163.753603 
L 220.363789 -165.691392 
L 220.208312 -167.629181 
L 219.994333 -169.56697 
L 219.712937 -171.504759 
L 219.397225 -173.442548 
L 219.097196 -175.380337 
L 218.801242 -177.318126 
L 218.426028 -179.255915 
L 217.924941 -181.193704 
L 217.367325 -183.131493 
L 216.85678 -185.069281 
L 216.399292 -187.00707 
L 215.901226 -188.944859 
L 215.282489 -190.882648 
L 214.560915 -192.820437 
L 213.818832 -194.758226 
L 213.088507 -196.696015 
L 212.294195 -198.633804 
L 211.334866 -200.571593 
L 210.211801 -202.509382 
L 209.051778 -204.447171 
L 208.016784 -206.38496 
L 207.214256 -208.322748 
L 206.696075 -210.260537 
L 206.52 -212.198326 
L 206.788021 -214.136115 
L 207.616025 -216.073904 
L 209.025811 -218.011693 
L 210.838124 -219.949482 
L 212.733736 -221.887271 
L 214.461305 -223.82506 
L 215.954522 -225.762849 
L 217.258016 -227.700638 
L 218.393239 -229.638426 
L 219.31864 -231.576215 
L 219.996703 -233.514004 
L 220.453382 -235.451793 
L 220.757671 -237.389582 
L 220.970773 -239.327371 
L 221.126656 -241.26516 
L 221.24022 -243.202949 
L 221.55978 -243.202949 
L 221.55978 -243.202949 
L 221.673344 -241.26516 
L 221.829227 -239.327371 
L 222.042329 -237.389582 
L 222.346618 -235.451793 
L 222.803297 -233.514004 
L 223.48136 -231.576215 
L 224.406761 -229.638426 
L 225.541984 -227.700638 
L 226.845478 -225.762849 
L 228.338695 -223.82506 
L 230.066264 -221.887271 
L 231.961876 -219.949482 
L 233.774189 -218.011693 
L 235.183975 -216.073904 
L 236.011979 -214.136115 
L 236.28 -212.198326 
L 236.103925 -210.260537 
L 235.585744 -208.322748 
L 234.783216 -206.38496 
L 233.748222 -204.447171 
L 232.588199 -202.509382 
L 231.465134 -200.571593 
L 230.505805 -198.633804 
L 229.711493 -196.696015 
L 228.981168 -194.758226 
L 228.239085 -192.820437 
L 227.517511 -190.882648 
L 226.898774 -188.944859 
L 226.400708 -187.00707 
L 225.94322 -185.069281 
L 225.432675 -183.131493 
L 224.875059 -181.193704 
L 224.373972 -179.255915 
L 223.998758 -177.318126 
L 223.702804 -175.380337 
L 223.402775 -173.442548 
L 223.087063 -171.504759 
L 222.805667 -169.56697 
L 222.591688 -167.629181 
L 222.436211 -165.691392 
L 222.320521 -163.753603 
L 222.236181 -161.815815 
L 222.17675 -159.878026 
L 222.127505 -157.940237 
L 222.066386 -156.002448 
L 221.980073 -154.064659 
L 221.881392 -152.12687 
L 221.798564 -150.189081 
L 221.745015 -148.251292 
L 221.711167 -146.313503 
L 221.682313 -144.375714 
L 221.651311 -142.437925 
L 221.617094 -140.500136 
L 221.583368 -138.562348 
L 221.559404 -136.624559 
L 221.552913 -134.68677 
L 221.55831 -132.748981 
L 221.55786 -130.811192 
L 221.539956 -128.873403 
L 221.511826 -126.935614 
L 221.489001 -124.997825 
L 221.47806 -123.060036 
L 221.474166 -121.122247 
L 221.468857 -119.184458 
L 221.456815 -117.24667 
L 221.439553 -115.308881 
L 221.424068 -113.371092 
L 221.416414 -111.433303 
L 221.416517 -109.495514 
L 221.418909 -107.557725 
L 221.418044 -105.619936 
L 221.413024 -103.682147 
L 221.406969 -101.744358 
L 221.402754 -99.806569 
L 221.400806 -97.86878 
L 221.400195 -95.930991 
L 221.400174 -93.993203 
L 221.400705 -92.055414 
L 221.402477 -90.117625 
L 221.406454 -88.179836 
L 221.412408 -86.242047 
L 221.4176 -84.304258 
L 221.418419 -82.366469 
L 221.414223 -80.42868 
L 221.408103 -78.490891 
L 221.403406 -76.553102 
L 221.401056 -74.615313 
L 221.400242 -72.677525 
L 221.400041 -70.739736 
L 221.400005 -68.801947 
L 221.400002 -66.864158 
L 221.400011 -64.926369 
L 221.400079 -62.98858 
L 221.400419 -61.050791 
L 221.401648 -59.113002 
L 221.404777 -57.175213 
L 221.410216 -55.237424 
L 221.41612 -53.299635 
L 221.418766 -51.361847 
z
" id="md132836603" style="stroke:#3d3d3d;stroke-width:1.5;"/>
    </defs>
    <g clip-path="url(#pe3a66282c7)">
     <use style="fill:#e1812c;stroke:#3d3d3d;stroke-width:1.5;" x="0" xlink:href="#md132836603" y="288"/>
    </g>
   </g>
   <g id="PolyCollection_3">
    <defs>
     <path d="M 362.779579 -45.883636 
L 362.740421 -45.883636 
L 362.742899 -47.762479 
L 362.748603 -49.641321 
L 362.75419 -51.520164 
L 362.757646 -53.399006 
L 362.75883 -55.277848 
L 362.758048 -57.156691 
L 362.755071 -59.035533 
L 362.749818 -60.914376 
L 362.74388 -62.793218 
L 362.740525 -64.67206 
L 362.742051 -66.550903 
L 362.747379 -68.429745 
L 362.753227 -70.308588 
L 362.757207 -72.18743 
L 362.759001 -74.066272 
L 362.759188 -75.945115 
L 362.757875 -77.823957 
L 362.754497 -79.7028 
L 362.748882 -81.581642 
L 362.742489 -83.460484 
L 362.737528 -85.339327 
L 362.733727 -87.218169 
L 362.727329 -89.097012 
L 362.716034 -90.975854 
L 362.704591 -92.854696 
L 362.702031 -94.733539 
L 362.712144 -96.612381 
L 362.72933 -98.491224 
L 362.744753 -100.370066 
L 362.753779 -102.248909 
L 362.756511 -104.127751 
L 362.753955 -106.006593 
L 362.745802 -107.885436 
L 362.731593 -109.764278 
L 362.712842 -111.643121 
L 362.693089 -113.521963 
L 362.675865 -115.400805 
L 362.663053 -117.279648 
L 362.654266 -119.15849 
L 362.646344 -121.037333 
L 362.634396 -122.916175 
L 362.615536 -124.795017 
L 362.591583 -126.67386 
L 362.566118 -128.552702 
L 362.539203 -130.431545 
L 362.507561 -132.310387 
L 362.469013 -134.189229 
L 362.42376 -136.068072 
L 362.373115 -137.946914 
L 362.319735 -139.825757 
L 362.266875 -141.704599 
L 362.21415 -143.583441 
L 362.154097 -145.462284 
L 362.076058 -147.341126 
L 361.975878 -149.219969 
L 361.858134 -151.098811 
L 361.725964 -152.977653 
L 361.576709 -154.856496 
L 361.411911 -156.735338 
L 361.238823 -158.614181 
L 361.054275 -160.493023 
L 360.837275 -162.371865 
L 360.567015 -164.250708 
L 360.252338 -166.12955 
L 359.943854 -168.008393 
L 359.699966 -169.887235 
L 359.521971 -171.766077 
L 359.328953 -173.64492 
L 359.004966 -175.523762 
L 358.463931 -177.402605 
L 357.684375 -179.281447 
L 356.722812 -181.16029 
L 355.699969 -183.039132 
L 354.735989 -184.917974 
L 353.87428 -186.796817 
L 353.070225 -188.675659 
L 352.251637 -190.554502 
L 351.388409 -192.433344 
L 350.51502 -194.312186 
L 349.695544 -196.191029 
L 348.977263 -198.069871 
L 348.393067 -199.948714 
L 347.999311 -201.827556 
L 347.88 -203.706398 
L 348.106479 -205.585241 
L 348.707057 -207.464083 
L 349.66775 -209.342926 
L 350.937502 -211.221768 
L 352.435549 -213.10061 
L 354.075615 -214.979453 
L 355.776141 -216.858295 
L 357.432281 -218.737138 
L 358.904918 -220.61598 
L 360.074583 -222.494822 
L 360.910179 -224.373665 
L 361.476592 -226.252507 
L 361.875865 -228.13135 
L 362.180893 -230.010192 
L 362.415894 -231.889034 
L 363.104106 -231.889034 
L 363.104106 -231.889034 
L 363.339107 -230.010192 
L 363.644135 -228.13135 
L 364.043408 -226.252507 
L 364.609821 -224.373665 
L 365.445417 -222.494822 
L 366.615082 -220.61598 
L 368.087719 -218.737138 
L 369.743859 -216.858295 
L 371.444385 -214.979453 
L 373.084451 -213.10061 
L 374.582498 -211.221768 
L 375.85225 -209.342926 
L 376.812943 -207.464083 
L 377.413521 -205.585241 
L 377.64 -203.706398 
L 377.520689 -201.827556 
L 377.126933 -199.948714 
L 376.542737 -198.069871 
L 375.824456 -196.191029 
L 375.00498 -194.312186 
L 374.131591 -192.433344 
L 373.268363 -190.554502 
L 372.449775 -188.675659 
L 371.64572 -186.796817 
L 370.784011 -184.917974 
L 369.820031 -183.039132 
L 368.797188 -181.16029 
L 367.835625 -179.281447 
L 367.056069 -177.402605 
L 366.515034 -175.523762 
L 366.191047 -173.64492 
L 365.998029 -171.766077 
L 365.820034 -169.887235 
L 365.576146 -168.008393 
L 365.267662 -166.12955 
L 364.952985 -164.250708 
L 364.682725 -162.371865 
L 364.465725 -160.493023 
L 364.281177 -158.614181 
L 364.108089 -156.735338 
L 363.943291 -154.856496 
L 363.794036 -152.977653 
L 363.661866 -151.098811 
L 363.544122 -149.219969 
L 363.443942 -147.341126 
L 363.365903 -145.462284 
L 363.30585 -143.583441 
L 363.253125 -141.704599 
L 363.200265 -139.825757 
L 363.146885 -137.946914 
L 363.09624 -136.068072 
L 363.050987 -134.189229 
L 363.012439 -132.310387 
L 362.980797 -130.431545 
L 362.953882 -128.552702 
L 362.928417 -126.67386 
L 362.904464 -124.795017 
L 362.885604 -122.916175 
L 362.873656 -121.037333 
L 362.865734 -119.15849 
L 362.856947 -117.279648 
L 362.844135 -115.400805 
L 362.826911 -113.521963 
L 362.807158 -111.643121 
L 362.788407 -109.764278 
L 362.774198 -107.885436 
L 362.766045 -106.006593 
L 362.763489 -104.127751 
L 362.766221 -102.248909 
L 362.775247 -100.370066 
L 362.79067 -98.491224 
L 362.807856 -96.612381 
L 362.817969 -94.733539 
L 362.815409 -92.854696 
L 362.803966 -90.975854 
L 362.792671 -89.097012 
L 362.786273 -87.218169 
L 362.782472 -85.339327 
L 362.777511 -83.460484 
L 362.771118 -81.581642 
L 362.765503 -79.7028 
L 362.762125 -77.823957 
L 362.760812 -75.945115 
L 362.760999 -74.066272 
L 362.762793 -72.18743 
L 362.766773 -70.308588 
L 362.772621 -68.429745 
L 362.777949 -66.550903 
L 362.779475 -64.67206 
L 362.77612 -62.793218 
L 362.770182 -60.914376 
L 362.764929 -59.035533 
L 362.761952 -57.156691 
L 362.76117 -55.277848 
L 362.762354 -53.399006 
L 362.76581 -51.520164 
L 362.771397 -49.641321 
L 362.777101 -47.762479 
L 362.779579 -45.883636 
z
" id="m4465ec0964" style="stroke:#3d3d3d;stroke-width:1.5;"/>
    </defs>
    <g clip-path="url(#pe3a66282c7)">
     <use style="fill:#3a923a;stroke:#3d3d3d;stroke-width:1.5;" x="0" xlink:href="#m4465ec0964" y="288"/>
    </g>
   </g>
   <g id="patch_3">
    <path clip-path="url(#pe3a66282c7)" d="M 109.8 10.507498 
L 109.8 10.507498 
L 109.8 10.507498 
L 109.8 10.507498 
z
" style="fill:#3274a1;stroke:#3d3d3d;stroke-linejoin:miter;stroke-width:0.75;"/>
   </g>
   <g id="patch_4">
    <path clip-path="url(#pe3a66282c7)" d="M 109.8 10.507498 
L 109.8 10.507498 
L 109.8 10.507498 
L 109.8 10.507498 
z
" style="fill:#e1812c;stroke:#3d3d3d;stroke-linejoin:miter;stroke-width:0.75;"/>
   </g>
   <g id="patch_5">
    <path clip-path="url(#pe3a66282c7)" d="M 109.8 10.507498 
L 109.8 10.507498 
L 109.8 10.507498 
L 109.8 10.507498 
z
" style="fill:#3a923a;stroke:#3d3d3d;stroke-linejoin:miter;stroke-width:0.75;"/>
   </g>
   <g id="matplotlib.axis_1">
    <g id="xtick_1">
     <g id="line2d_1">
      <defs>
       <path d="M 0 0 
L 0 3.5 
" id="m84c979e715" style="stroke:#000000;stroke-width:0.8;"/>
      </defs>
      <g>
       <use style="stroke:#000000;stroke-width:0.8;" x="109.8" xlink:href="#m84c979e715" y="252"/>
      </g>
     </g>
     <g id="text_1">
      <!-- Z_1_ns -->
      <g transform="translate(92.420312 266.320312)scale(0.1 -0.1)">
       <defs>
        <path d="M 5.609375 72.90625 
L 62.890625 72.90625 
L 62.890625 65.375 
L 16.796875 8.296875 
L 64.015625 8.296875 
L 64.015625 0 
L 4.5 0 
L 4.5 7.515625 
L 50.59375 64.59375 
L 5.609375 64.59375 
z
" id="DejaVuSans-90"/>
        <path d="M 50.984375 -16.609375 
L 50.984375 -23.578125 
L -0.984375 -23.578125 
L -0.984375 -16.609375 
z
" id="DejaVuSans-95"/>
        <path d="M 12.40625 8.296875 
L 28.515625 8.296875 
L 28.515625 63.921875 
L 10.984375 60.40625 
L 10.984375 69.390625 
L 28.421875 72.90625 
L 38.28125 72.90625 
L 38.28125 8.296875 
L 54.390625 8.296875 
L 54.390625 0 
L 12.40625 0 
z
" id="DejaVuSans-49"/>
        <path d="M 54.890625 33.015625 
L 54.890625 0 
L 45.90625 0 
L 45.90625 32.71875 
Q 45.90625 40.484375 42.875 44.328125 
Q 39.84375 48.1875 33.796875 48.1875 
Q 26.515625 48.1875 22.3125 43.546875 
Q 18.109375 38.921875 18.109375 30.90625 
L 18.109375 0 
L 9.078125 0 
L 9.078125 54.6875 
L 18.109375 54.6875 
L 18.109375 46.1875 
Q 21.34375 51.125 25.703125 53.5625 
Q 30.078125 56 35.796875 56 
Q 45.21875 56 50.046875 50.171875 
Q 54.890625 44.34375 54.890625 33.015625 
z
" id="DejaVuSans-110"/>
        <path d="M 44.28125 53.078125 
L 44.28125 44.578125 
Q 40.484375 46.53125 36.375 47.5 
Q 32.28125 48.484375 27.875 48.484375 
Q 21.1875 48.484375 17.84375 46.4375 
Q 14.5 44.390625 14.5 40.28125 
Q 14.5 37.15625 16.890625 35.375 
Q 19.28125 33.59375 26.515625 31.984375 
L 29.59375 31.296875 
Q 39.15625 29.25 43.1875 25.515625 
Q 47.21875 21.78125 47.21875 15.09375 
Q 47.21875 7.46875 41.1875 3.015625 
Q 35.15625 -1.421875 24.609375 -1.421875 
Q 20.21875 -1.421875 15.453125 -0.5625 
Q 10.6875 0.296875 5.421875 2 
L 5.421875 11.28125 
Q 10.40625 8.6875 15.234375 7.390625 
Q 20.0625 6.109375 24.8125 6.109375 
Q 31.15625 6.109375 34.5625 8.28125 
Q 37.984375 10.453125 37.984375 14.40625 
Q 37.984375 18.0625 35.515625 20.015625 
Q 33.0625 21.96875 24.703125 23.78125 
L 21.578125 24.515625 
Q 13.234375 26.265625 9.515625 29.90625 
Q 5.8125 33.546875 5.8125 39.890625 
Q 5.8125 47.609375 11.28125 51.796875 
Q 16.75 56 26.8125 56 
Q 31.78125 56 36.171875 55.265625 
Q 40.578125 54.546875 44.28125 53.078125 
z
" id="DejaVuSans-115"/>
       </defs>
       <use xlink:href="#DejaVuSans-90"/>
       <use x="68.505859" xlink:href="#DejaVuSans-95"/>
       <use x="118.505859" xlink:href="#DejaVuSans-49"/>
       <use x="182.128906" xlink:href="#DejaVuSans-95"/>
       <use x="232.128906" xlink:href="#DejaVuSans-110"/>
       <use x="295.507812" xlink:href="#DejaVuSans-115"/>
      </g>
     </g>
    </g>
    <g id="xtick_2">
     <g id="line2d_2">
      <g>
       <use style="stroke:#000000;stroke-width:0.8;" x="221.4" xlink:href="#m84c979e715" y="252"/>
      </g>
     </g>
     <g id="text_2">
      <!-- Z_2_ns -->
      <g transform="translate(204.020312 266.421875)scale(0.1 -0.1)">
       <defs>
        <path d="M 19.1875 8.296875 
L 53.609375 8.296875 
L 53.609375 0 
L 7.328125 0 
L 7.328125 8.296875 
Q 12.9375 14.109375 22.625 23.890625 
Q 32.328125 33.6875 34.8125 36.53125 
Q 39.546875 41.84375 41.421875 45.53125 
Q 43.3125 49.21875 43.3125 52.78125 
Q 43.3125 58.59375 39.234375 62.25 
Q 35.15625 65.921875 28.609375 65.921875 
Q 23.96875 65.921875 18.8125 64.3125 
Q 13.671875 62.703125 7.8125 59.421875 
L 7.8125 69.390625 
Q 13.765625 71.78125 18.9375 73 
Q 24.125 74.21875 28.421875 74.21875 
Q 39.75 74.21875 46.484375 68.546875 
Q 53.21875 62.890625 53.21875 53.421875 
Q 53.21875 48.921875 51.53125 44.890625 
Q 49.859375 40.875 45.40625 35.40625 
Q 44.1875 33.984375 37.640625 27.21875 
Q 31.109375 20.453125 19.1875 8.296875 
z
" id="DejaVuSans-50"/>
       </defs>
       <use xlink:href="#DejaVuSans-90"/>
       <use x="68.505859" xlink:href="#DejaVuSans-95"/>
       <use x="118.505859" xlink:href="#DejaVuSans-50"/>
       <use x="182.128906" xlink:href="#DejaVuSans-95"/>
       <use x="232.128906" xlink:href="#DejaVuSans-110"/>
       <use x="295.507812" xlink:href="#DejaVuSans-115"/>
      </g>
     </g>
    </g>
    <g id="xtick_3">
     <g id="line2d_3">
      <g>
       <use style="stroke:#000000;stroke-width:0.8;" x="333" xlink:href="#m84c979e715" y="252"/>
      </g>
     </g>
     <g id="text_3">
      <!-- Z_3_ns -->
      <g transform="translate(315.620313 266.421875)scale(0.1 -0.1)">
       <defs>
        <path d="M 40.578125 39.3125 
Q 47.65625 37.796875 51.625 33 
Q 55.609375 28.21875 55.609375 21.1875 
Q 55.609375 10.40625 48.1875 4.484375 
Q 40.765625 -1.421875 27.09375 -1.421875 
Q 22.515625 -1.421875 17.65625 -0.515625 
Q 12.796875 0.390625 7.625 2.203125 
L 7.625 11.71875 
Q 11.71875 9.328125 16.59375 8.109375 
Q 21.484375 6.890625 26.8125 6.890625 
Q 36.078125 6.890625 40.9375 10.546875 
Q 45.796875 14.203125 45.796875 21.1875 
Q 45.796875 27.640625 41.28125 31.265625 
Q 36.765625 34.90625 28.71875 34.90625 
L 20.21875 34.90625 
L 20.21875 43.015625 
L 29.109375 43.015625 
Q 36.375 43.015625 40.234375 45.921875 
Q 44.09375 48.828125 44.09375 54.296875 
Q 44.09375 59.90625 40.109375 62.90625 
Q 36.140625 65.921875 28.71875 65.921875 
Q 24.65625 65.921875 20.015625 65.03125 
Q 15.375 64.15625 9.8125 62.3125 
L 9.8125 71.09375 
Q 15.4375 72.65625 20.34375 73.4375 
Q 25.25 74.21875 29.59375 74.21875 
Q 40.828125 74.21875 47.359375 69.109375 
Q 53.90625 64.015625 53.90625 55.328125 
Q 53.90625 49.265625 50.4375 45.09375 
Q 46.96875 40.921875 40.578125 39.3125 
z
" id="DejaVuSans-51"/>
       </defs>
       <use xlink:href="#DejaVuSans-90"/>
       <use x="68.505859" xlink:href="#DejaVuSans-95"/>
       <use x="118.505859" xlink:href="#DejaVuSans-51"/>
       <use x="182.128906" xlink:href="#DejaVuSans-95"/>
       <use x="232.128906" xlink:href="#DejaVuSans-110"/>
       <use x="295.507812" xlink:href="#DejaVuSans-115"/>
      </g>
     </g>
    </g>
    <g id="text_4">
     <!-- set -->
     <g transform="translate(213.758594 280.378125)scale(0.1 -0.1)">
      <defs>
       <path d="M 56.203125 29.59375 
L 56.203125 25.203125 
L 14.890625 25.203125 
Q 15.484375 15.921875 20.484375 11.0625 
Q 25.484375 6.203125 34.421875 6.203125 
Q 39.59375 6.203125 44.453125 7.46875 
Q 49.3125 8.734375 54.109375 11.28125 
L 54.109375 2.78125 
Q 49.265625 0.734375 44.1875 -0.34375 
Q 39.109375 -1.421875 33.890625 -1.421875 
Q 20.796875 -1.421875 13.15625 6.1875 
Q 5.515625 13.8125 5.515625 26.8125 
Q 5.515625 40.234375 12.765625 48.109375 
Q 20.015625 56 32.328125 56 
Q 43.359375 56 49.78125 48.890625 
Q 56.203125 41.796875 56.203125 29.59375 
z
M 47.21875 32.234375 
Q 47.125 39.59375 43.09375 43.984375 
Q 39.0625 48.390625 32.421875 48.390625 
Q 24.90625 48.390625 20.390625 44.140625 
Q 15.875 39.890625 15.1875 32.171875 
z
" id="DejaVuSans-101"/>
       <path d="M 18.3125 70.21875 
L 18.3125 54.6875 
L 36.8125 54.6875 
L 36.8125 47.703125 
L 18.3125 47.703125 
L 18.3125 18.015625 
Q 18.3125 11.328125 20.140625 9.421875 
Q 21.96875 7.515625 27.59375 7.515625 
L 36.8125 7.515625 
L 36.8125 0 
L 27.59375 0 
Q 17.1875 0 13.234375 3.875 
Q 9.28125 7.765625 9.28125 18.015625 
L 9.28125 47.703125 
L 2.6875 47.703125 
L 2.6875 54.6875 
L 9.28125 54.6875 
L 9.28125 70.21875 
z
" id="DejaVuSans-116"/>
      </defs>
      <use xlink:href="#DejaVuSans-115"/>
      <use x="52.099609" xlink:href="#DejaVuSans-101"/>
      <use x="113.623047" xlink:href="#DejaVuSans-116"/>
     </g>
    </g>
   </g>
   <g id="matplotlib.axis_2">
    <g id="ytick_1">
     <g id="line2d_4">
      <defs>
       <path d="M 0 0 
L -3.5 0 
" id="m3b43f9590a" style="stroke:#000000;stroke-width:0.8;"/>
      </defs>
      <g>
       <use style="stroke:#000000;stroke-width:0.8;" x="54" xlink:href="#m3b43f9590a" y="221.049646"/>
      </g>
     </g>
     <g id="text_5">
      <!-- −120 -->
      <g transform="translate(19.532812 224.848865)scale(0.1 -0.1)">
       <defs>
        <path d="M 10.59375 35.5 
L 73.1875 35.5 
L 73.1875 27.203125 
L 10.59375 27.203125 
z
" id="DejaVuSans-8722"/>
        <path d="M 31.78125 66.40625 
Q 24.171875 66.40625 20.328125 58.90625 
Q 16.5 51.421875 16.5 36.375 
Q 16.5 21.390625 20.328125 13.890625 
Q 24.171875 6.390625 31.78125 6.390625 
Q 39.453125 6.390625 43.28125 13.890625 
Q 47.125 21.390625 47.125 36.375 
Q 47.125 51.421875 43.28125 58.90625 
Q 39.453125 66.40625 31.78125 66.40625 
z
M 31.78125 74.21875 
Q 44.046875 74.21875 50.515625 64.515625 
Q 56.984375 54.828125 56.984375 36.375 
Q 56.984375 17.96875 50.515625 8.265625 
Q 44.046875 -1.421875 31.78125 -1.421875 
Q 19.53125 -1.421875 13.0625 8.265625 
Q 6.59375 17.96875 6.59375 36.375 
Q 6.59375 54.828125 13.0625 64.515625 
Q 19.53125 74.21875 31.78125 74.21875 
z
" id="DejaVuSans-48"/>
       </defs>
       <use xlink:href="#DejaVuSans-8722"/>
       <use x="83.789062" xlink:href="#DejaVuSans-49"/>
       <use x="147.412109" xlink:href="#DejaVuSans-50"/>
       <use x="211.035156" xlink:href="#DejaVuSans-48"/>
      </g>
     </g>
    </g>
    <g id="ytick_2">
     <g id="line2d_5">
      <g>
       <use style="stroke:#000000;stroke-width:0.8;" x="54" xlink:href="#m3b43f9590a" y="185.959288"/>
      </g>
     </g>
     <g id="text_6">
      <!-- −100 -->
      <g transform="translate(19.532812 189.758507)scale(0.1 -0.1)">
       <use xlink:href="#DejaVuSans-8722"/>
       <use x="83.789062" xlink:href="#DejaVuSans-49"/>
       <use x="147.412109" xlink:href="#DejaVuSans-48"/>
       <use x="211.035156" xlink:href="#DejaVuSans-48"/>
      </g>
     </g>
    </g>
    <g id="ytick_3">
     <g id="line2d_6">
      <g>
       <use style="stroke:#000000;stroke-width:0.8;" x="54" xlink:href="#m3b43f9590a" y="150.86893"/>
      </g>
     </g>
     <g id="text_7">
      <!-- −80 -->
      <g transform="translate(25.895312 154.668149)scale(0.1 -0.1)">
       <defs>
        <path d="M 31.78125 34.625 
Q 24.75 34.625 20.71875 30.859375 
Q 16.703125 27.09375 16.703125 20.515625 
Q 16.703125 13.921875 20.71875 10.15625 
Q 24.75 6.390625 31.78125 6.390625 
Q 38.8125 6.390625 42.859375 10.171875 
Q 46.921875 13.96875 46.921875 20.515625 
Q 46.921875 27.09375 42.890625 30.859375 
Q 38.875 34.625 31.78125 34.625 
z
M 21.921875 38.8125 
Q 15.578125 40.375 12.03125 44.71875 
Q 8.5 49.078125 8.5 55.328125 
Q 8.5 64.0625 14.71875 69.140625 
Q 20.953125 74.21875 31.78125 74.21875 
Q 42.671875 74.21875 48.875 69.140625 
Q 55.078125 64.0625 55.078125 55.328125 
Q 55.078125 49.078125 51.53125 44.71875 
Q 48 40.375 41.703125 38.8125 
Q 48.828125 37.15625 52.796875 32.3125 
Q 56.78125 27.484375 56.78125 20.515625 
Q 56.78125 9.90625 50.3125 4.234375 
Q 43.84375 -1.421875 31.78125 -1.421875 
Q 19.734375 -1.421875 13.25 4.234375 
Q 6.78125 9.90625 6.78125 20.515625 
Q 6.78125 27.484375 10.78125 32.3125 
Q 14.796875 37.15625 21.921875 38.8125 
z
M 18.3125 54.390625 
Q 18.3125 48.734375 21.84375 45.5625 
Q 25.390625 42.390625 31.78125 42.390625 
Q 38.140625 42.390625 41.71875 45.5625 
Q 45.3125 48.734375 45.3125 54.390625 
Q 45.3125 60.0625 41.71875 63.234375 
Q 38.140625 66.40625 31.78125 66.40625 
Q 25.390625 66.40625 21.84375 63.234375 
Q 18.3125 60.0625 18.3125 54.390625 
z
" id="DejaVuSans-56"/>
       </defs>
       <use xlink:href="#DejaVuSans-8722"/>
       <use x="83.789062" xlink:href="#DejaVuSans-56"/>
       <use x="147.412109" xlink:href="#DejaVuSans-48"/>
      </g>
     </g>
    </g>
    <g id="ytick_4">
     <g id="line2d_7">
      <g>
       <use style="stroke:#000000;stroke-width:0.8;" x="54" xlink:href="#m3b43f9590a" y="115.778572"/>
      </g>
     </g>
     <g id="text_8">
      <!-- −60 -->
      <g transform="translate(25.895312 119.577791)scale(0.1 -0.1)">
       <defs>
        <path d="M 33.015625 40.375 
Q 26.375 40.375 22.484375 35.828125 
Q 18.609375 31.296875 18.609375 23.390625 
Q 18.609375 15.53125 22.484375 10.953125 
Q 26.375 6.390625 33.015625 6.390625 
Q 39.65625 6.390625 43.53125 10.953125 
Q 47.40625 15.53125 47.40625 23.390625 
Q 47.40625 31.296875 43.53125 35.828125 
Q 39.65625 40.375 33.015625 40.375 
z
M 52.59375 71.296875 
L 52.59375 62.3125 
Q 48.875 64.0625 45.09375 64.984375 
Q 41.3125 65.921875 37.59375 65.921875 
Q 27.828125 65.921875 22.671875 59.328125 
Q 17.53125 52.734375 16.796875 39.40625 
Q 19.671875 43.65625 24.015625 45.921875 
Q 28.375 48.1875 33.59375 48.1875 
Q 44.578125 48.1875 50.953125 41.515625 
Q 57.328125 34.859375 57.328125 23.390625 
Q 57.328125 12.15625 50.6875 5.359375 
Q 44.046875 -1.421875 33.015625 -1.421875 
Q 20.359375 -1.421875 13.671875 8.265625 
Q 6.984375 17.96875 6.984375 36.375 
Q 6.984375 53.65625 15.1875 63.9375 
Q 23.390625 74.21875 37.203125 74.21875 
Q 40.921875 74.21875 44.703125 73.484375 
Q 48.484375 72.75 52.59375 71.296875 
z
" id="DejaVuSans-54"/>
       </defs>
       <use xlink:href="#DejaVuSans-8722"/>
       <use x="83.789062" xlink:href="#DejaVuSans-54"/>
       <use x="147.412109" xlink:href="#DejaVuSans-48"/>
      </g>
     </g>
    </g>
    <g id="ytick_5">
     <g id="line2d_8">
      <g>
       <use style="stroke:#000000;stroke-width:0.8;" x="54" xlink:href="#m3b43f9590a" y="80.688214"/>
      </g>
     </g>
     <g id="text_9">
      <!-- −40 -->
      <g transform="translate(25.895312 84.487433)scale(0.1 -0.1)">
       <defs>
        <path d="M 37.796875 64.3125 
L 12.890625 25.390625 
L 37.796875 25.390625 
z
M 35.203125 72.90625 
L 47.609375 72.90625 
L 47.609375 25.390625 
L 58.015625 25.390625 
L 58.015625 17.1875 
L 47.609375 17.1875 
L 47.609375 0 
L 37.796875 0 
L 37.796875 17.1875 
L 4.890625 17.1875 
L 4.890625 26.703125 
z
" id="DejaVuSans-52"/>
       </defs>
       <use xlink:href="#DejaVuSans-8722"/>
       <use x="83.789062" xlink:href="#DejaVuSans-52"/>
       <use x="147.412109" xlink:href="#DejaVuSans-48"/>
      </g>
     </g>
    </g>
    <g id="ytick_6">
     <g id="line2d_9">
      <g>
       <use style="stroke:#000000;stroke-width:0.8;" x="54" xlink:href="#m3b43f9590a" y="45.597856"/>
      </g>
     </g>
     <g id="text_10">
      <!-- −20 -->
      <g transform="translate(25.895312 49.397075)scale(0.1 -0.1)">
       <use xlink:href="#DejaVuSans-8722"/>
       <use x="83.789062" xlink:href="#DejaVuSans-50"/>
       <use x="147.412109" xlink:href="#DejaVuSans-48"/>
      </g>
     </g>
    </g>
    <g id="text_11">
     <!-- value -->
     <g transform="translate(13.453125 156.937813)rotate(-90)scale(0.1 -0.1)">
      <defs>
       <path d="M 2.984375 54.6875 
L 12.5 54.6875 
L 29.59375 8.796875 
L 46.6875 54.6875 
L 56.203125 54.6875 
L 35.6875 0 
L 23.484375 0 
z
" id="DejaVuSans-118"/>
       <path d="M 34.28125 27.484375 
Q 23.390625 27.484375 19.1875 25 
Q 14.984375 22.515625 14.984375 16.5 
Q 14.984375 11.71875 18.140625 8.90625 
Q 21.296875 6.109375 26.703125 6.109375 
Q 34.1875 6.109375 38.703125 11.40625 
Q 43.21875 16.703125 43.21875 25.484375 
L 43.21875 27.484375 
z
M 52.203125 31.203125 
L 52.203125 0 
L 43.21875 0 
L 43.21875 8.296875 
Q 40.140625 3.328125 35.546875 0.953125 
Q 30.953125 -1.421875 24.3125 -1.421875 
Q 15.921875 -1.421875 10.953125 3.296875 
Q 6 8.015625 6 15.921875 
Q 6 25.140625 12.171875 29.828125 
Q 18.359375 34.515625 30.609375 34.515625 
L 43.21875 34.515625 
L 43.21875 35.40625 
Q 43.21875 41.609375 39.140625 45 
Q 35.0625 48.390625 27.6875 48.390625 
Q 23 48.390625 18.546875 47.265625 
Q 14.109375 46.140625 10.015625 43.890625 
L 10.015625 52.203125 
Q 14.9375 54.109375 19.578125 55.046875 
Q 24.21875 56 28.609375 56 
Q 40.484375 56 46.34375 49.84375 
Q 52.203125 43.703125 52.203125 31.203125 
z
" id="DejaVuSans-97"/>
       <path d="M 9.421875 75.984375 
L 18.40625 75.984375 
L 18.40625 0 
L 9.421875 0 
z
" id="DejaVuSans-108"/>
       <path d="M 8.5 21.578125 
L 8.5 54.6875 
L 17.484375 54.6875 
L 17.484375 21.921875 
Q 17.484375 14.15625 20.5 10.265625 
Q 23.53125 6.390625 29.59375 6.390625 
Q 36.859375 6.390625 41.078125 11.03125 
Q 45.3125 15.671875 45.3125 23.6875 
L 45.3125 54.6875 
L 54.296875 54.6875 
L 54.296875 0 
L 45.3125 0 
L 45.3125 8.40625 
Q 42.046875 3.421875 37.71875 1 
Q 33.40625 -1.421875 27.6875 -1.421875 
Q 18.265625 -1.421875 13.375 4.4375 
Q 8.5 10.296875 8.5 21.578125 
z
M 31.109375 56 
z
" id="DejaVuSans-117"/>
      </defs>
      <use xlink:href="#DejaVuSans-118"/>
      <use x="59.179688" xlink:href="#DejaVuSans-97"/>
      <use x="120.458984" xlink:href="#DejaVuSans-108"/>
      <use x="148.242188" xlink:href="#DejaVuSans-117"/>
      <use x="211.621094" xlink:href="#DejaVuSans-101"/>
     </g>
    </g>
   </g>
   <g id="line2d_10">
    <path clip-path="url(#pe3a66282c7)" d="M 80.04 119.927026 
L 80.04 44.443636 
" style="fill:none;stroke:#3d3d3d;stroke-linecap:square;stroke-width:1.5;"/>
   </g>
   <g id="line2d_11">
    <path clip-path="url(#pe3a66282c7)" d="M 80.04 90.419653 
L 80.04 70.736035 
" style="fill:none;stroke:#3d3d3d;stroke-linecap:square;stroke-width:4.5;"/>
   </g>
   <g id="line2d_12">
    <path clip-path="url(#pe3a66282c7)" d="M 221.4 122.691364 
L 221.4 44.797051 
" style="fill:none;stroke:#3d3d3d;stroke-linecap:square;stroke-width:1.5;"/>
   </g>
   <g id="line2d_13">
    <path clip-path="url(#pe3a66282c7)" d="M 221.4 92.542746 
L 221.4 72.181201 
" style="fill:none;stroke:#3d3d3d;stroke-linecap:square;stroke-width:4.5;"/>
   </g>
   <g id="line2d_14">
    <path clip-path="url(#pe3a66282c7)" d="M 362.76 131.760317 
L 362.76 56.110966 
" style="fill:none;stroke:#3d3d3d;stroke-linecap:square;stroke-width:1.5;"/>
   </g>
   <g id="line2d_15">
    <path clip-path="url(#pe3a66282c7)" d="M 362.76 101.022602 
L 362.76 80.388932 
" style="fill:none;stroke:#3d3d3d;stroke-linecap:square;stroke-width:4.5;"/>
   </g>
   <g id="patch_6">
    <path d="M 54 252 
L 54 34.56 
" style="fill:none;stroke:#000000;stroke-linecap:square;stroke-linejoin:miter;stroke-width:0.8;"/>
   </g>
   <g id="patch_7">
    <path d="M 388.8 252 
L 388.8 34.56 
" style="fill:none;stroke:#000000;stroke-linecap:square;stroke-linejoin:miter;stroke-width:0.8;"/>
   </g>
   <g id="patch_8">
    <path d="M 54 252 
L 388.8 252 
" style="fill:none;stroke:#000000;stroke-linecap:square;stroke-linejoin:miter;stroke-width:0.8;"/>
   </g>
   <g id="patch_9">
    <path d="M 54 34.56 
L 388.8 34.56 
" style="fill:none;stroke:#000000;stroke-linecap:square;stroke-linejoin:miter;stroke-width:0.8;"/>
   </g>
   <g id="PathCollection_1">
    <defs>
     <path d="M 0 1.5 
C 0.397805 1.5 0.77937 1.341951 1.06066 1.06066 
C 1.341951 0.77937 1.5 0.397805 1.5 0 
C 1.5 -0.397805 1.341951 -0.77937 1.06066 -1.06066 
C 0.77937 -1.341951 0.397805 -1.5 0 -1.5 
C -0.397805 -1.5 -0.77937 -1.341951 -1.06066 -1.06066 
C -1.341951 -0.77937 -1.5 -0.397805 -1.5 0 
C -1.5 0.397805 -1.341951 0.77937 -1.06066 1.06066 
C -0.77937 1.341951 -0.397805 1.5 0 1.5 
z
" id="m54e933e424" style="stroke:#3d3d3d;"/>
    </defs>
    <g clip-path="url(#pe3a66282c7)">
     <use style="fill:#ffffff;stroke:#3d3d3d;" x="80.04" xlink:href="#m54e933e424" y="80.248113"/>
    </g>
   </g>
   <g id="PathCollection_2">
    <g clip-path="url(#pe3a66282c7)">
     <use style="fill:#ffffff;stroke:#3d3d3d;" x="221.4" xlink:href="#m54e933e424" y="80.640085"/>
    </g>
   </g>
   <g id="PathCollection_3">
    <g clip-path="url(#pe3a66282c7)">
     <use style="fill:#ffffff;stroke:#3d3d3d;" x="362.76" xlink:href="#m54e933e424" y="89.259694"/>
    </g>
   </g>
   <g id="legend_1">
    <g id="patch_10">
     <path d="M 61 247 
L 127.759375 247 
Q 129.759375 247 129.759375 245 
L 129.759375 186.453125 
Q 129.759375 184.453125 127.759375 184.453125 
L 61 184.453125 
Q 59 184.453125 59 186.453125 
L 59 245 
Q 59 247 61 247 
z
" style="fill:#ffffff;opacity:0.8;stroke:#cccccc;stroke-linejoin:miter;"/>
    </g>
    <g id="text_12">
     <!-- set -->
     <g transform="translate(86.738281 196.051562)scale(0.1 -0.1)">
      <use xlink:href="#DejaVuSans-115"/>
      <use x="52.099609" xlink:href="#DejaVuSans-101"/>
      <use x="113.623047" xlink:href="#DejaVuSans-116"/>
     </g>
    </g>
    <g id="patch_11">
     <path d="M 63 210.729687 
L 83 210.729687 
L 83 203.729687 
L 63 203.729687 
z
" style="fill:#3274a1;stroke:#3d3d3d;stroke-linejoin:miter;stroke-width:0.75;"/>
    </g>
    <g id="text_13">
     <!-- Z_1_ns -->
     <g transform="translate(91 210.729687)scale(0.1 -0.1)">
      <use xlink:href="#DejaVuSans-90"/>
      <use x="68.505859" xlink:href="#DejaVuSans-95"/>
      <use x="118.505859" xlink:href="#DejaVuSans-49"/>
      <use x="182.128906" xlink:href="#DejaVuSans-95"/>
      <use x="232.128906" xlink:href="#DejaVuSans-110"/>
      <use x="295.507812" xlink:href="#DejaVuSans-115"/>
     </g>
    </g>
    <g id="patch_12">
     <path d="M 63 225.685937 
L 83 225.685937 
L 83 218.685937 
L 63 218.685937 
z
" style="fill:#e1812c;stroke:#3d3d3d;stroke-linejoin:miter;stroke-width:0.75;"/>
    </g>
    <g id="text_14">
     <!-- Z_2_ns -->
     <g transform="translate(91 225.685937)scale(0.1 -0.1)">
      <use xlink:href="#DejaVuSans-90"/>
      <use x="68.505859" xlink:href="#DejaVuSans-95"/>
      <use x="118.505859" xlink:href="#DejaVuSans-50"/>
      <use x="182.128906" xlink:href="#DejaVuSans-95"/>
      <use x="232.128906" xlink:href="#DejaVuSans-110"/>
      <use x="295.507812" xlink:href="#DejaVuSans-115"/>
     </g>
    </g>
    <g id="patch_13">
     <path d="M 63 240.642187 
L 83 240.642187 
L 83 233.642187 
L 63 233.642187 
z
" style="fill:#3a923a;stroke:#3d3d3d;stroke-linejoin:miter;stroke-width:0.75;"/>
    </g>
    <g id="text_15">
     <!-- Z_3_ns -->
     <g transform="translate(91 240.642187)scale(0.1 -0.1)">
      <use xlink:href="#DejaVuSans-90"/>
      <use x="68.505859" xlink:href="#DejaVuSans-95"/>
      <use x="118.505859" xlink:href="#DejaVuSans-51"/>
      <use x="182.128906" xlink:href="#DejaVuSans-95"/>
      <use x="232.128906" xlink:href="#DejaVuSans-110"/>
      <use x="295.507812" xlink:href="#DejaVuSans-115"/>
     </g>
    </g>
   </g>
  </g>
 </g>
 <defs>
  <clipPath id="pe3a66282c7">
   <rect height="217.44" width="334.8" x="54" y="34.56"/>
  </clipPath>
 </defs>
</svg>
