<?xml version="1.0" encoding="utf-8" standalone="no"?>
<!DOCTYPE svg PUBLIC "-//W3C//DTD SVG 1.1//EN"
  "http://www.w3.org/Graphics/SVG/1.1/DTD/svg11.dtd">
<!-- Created with matplotlib (https://matplotlib.org/) -->
<svg height="288pt" version="1.1" viewBox="0 0 432 288" width="432pt" xmlns="http://www.w3.org/2000/svg" xmlns:xlink="http://www.w3.org/1999/xlink">
 <metadata>
  <rdf:RDF xmlns:cc="http://creativecommons.org/ns#" xmlns:dc="http://purl.org/dc/elements/1.1/" xmlns:rdf="http://www.w3.org/1999/02/22-rdf-syntax-ns#">
   <cc:Work>
    <dc:type rdf:resource="http://purl.org/dc/dcmitype/StillImage"/>
    <dc:date>2022-07-22T10:43:22.336151</dc:date>
    <dc:format>image/svg+xml</dc:format>
    <dc:creator>
     <cc:Agent>
      <dc:title>Matplotlib v3.3.2, https://matplotlib.org/</dc:title>
     </cc:Agent>
    </dc:creator>
   </cc:Work>
  </rdf:RDF>
 </metadata>
 <defs>
  <style type="text/css">*{stroke-linecap:butt;stroke-linejoin:round;}</style>
 </defs>
 <g id="figure_1">
  <g id="patch_1">
   <path d="M 0 288 
L 432 288 
L 432 0 
L 0 0 
z
" style="fill:#ffffff;"/>
  </g>
  <g id="axes_1">
   <g id="patch_2">
    <path d="M 54 252 
L 388.8 252 
L 388.8 34.56 
L 54 34.56 
z
" style="fill:#ffffff;"/>
   </g>
   <g id="PolyCollection_1">
    <defs>
     <path d="M 104.274588 -45.883636 
L 104.165412 -45.883636 
L 104.173577 -47.850921 
L 104.191447 -49.818206 
L 104.207299 -51.785492 
L 104.215914 -53.752777 
L 104.219049 -55.720062 
L 104.21984 -57.687347 
L 104.219981 -59.654632 
L 104.219998 -61.621917 
L 104.22 -63.589202 
L 104.22 -65.556487 
L 104.22 -67.523772 
L 104.22 -69.491057 
L 104.22 -71.458342 
L 104.22 -73.425627 
L 104.22 -75.392912 
L 104.22 -77.360197 
L 104.22 -79.327482 
L 104.22 -81.294767 
L 104.219999 -83.262052 
L 104.219989 -85.229337 
L 104.219904 -87.196622 
L 104.219378 -89.163908 
L 104.217098 -91.131193 
L 104.210196 -93.098478 
L 104.196032 -95.065763 
L 104.177478 -97.033048 
L 104.164655 -99.000333 
L 104.164752 -100.967618 
L 104.171149 -102.934903 
L 104.171346 -104.902188 
L 104.164961 -106.869473 
L 104.164142 -108.836758 
L 104.175371 -110.804043 
L 104.18984 -112.771328 
L 104.193953 -114.738613 
L 104.183388 -116.705898 
L 104.166311 -118.673183 
L 104.154372 -120.640468 
L 104.15009 -122.607753 
L 104.14687 -124.575038 
L 104.138123 -126.542324 
L 104.114775 -128.509609 
L 104.062831 -130.476894 
L 103.984391 -132.444179 
L 103.910814 -134.411464 
L 103.870378 -136.378749 
L 103.851357 -138.346034 
L 103.817512 -140.313319 
L 103.752818 -142.280604 
L 103.674412 -144.247889 
L 103.601382 -146.215174 
L 103.522366 -148.182459 
L 103.403496 -150.149744 
L 103.227494 -152.117029 
L 103.014651 -154.084314 
L 102.8015 -156.051599 
L 102.602475 -158.018884 
L 102.381179 -159.986169 
L 102.055335 -161.953454 
L 101.544909 -163.92074 
L 100.801184 -165.888025 
L 99.793846 -167.85531 
L 98.533312 -169.822595 
L 97.098743 -171.78988 
L 95.592436 -173.757165 
L 94.093345 -175.72445 
L 92.628669 -177.691735 
L 91.116863 -179.65902 
L 89.418227 -181.626305 
L 87.503882 -183.59359 
L 85.473824 -185.560875 
L 83.385083 -187.52816 
L 81.155137 -189.495445 
L 78.719587 -191.46273 
L 76.271387 -193.430015 
L 74.176921 -195.3973 
L 72.649631 -197.364585 
L 71.695892 -199.33187 
L 71.264873 -201.299156 
L 71.192959 -203.266441 
L 71.146594 -205.233726 
L 70.9186 -207.201011 
L 70.74 -209.168296 
L 71.138411 -211.135581 
L 72.536508 -213.102866 
L 74.986554 -215.070151 
L 78.128181 -217.037436 
L 81.367409 -219.004721 
L 84.239603 -220.972006 
L 86.693591 -222.939291 
L 88.980722 -224.906576 
L 91.286392 -226.873861 
L 93.588332 -228.841146 
L 95.809597 -230.808431 
L 97.912285 -232.775716 
L 99.821559 -234.743001 
L 101.395894 -236.710287 
L 102.540677 -238.677572 
L 103.292082 -240.644857 
L 105.147918 -240.644857 
L 105.147918 -240.644857 
L 105.899323 -238.677572 
L 107.044106 -236.710287 
L 108.618441 -234.743001 
L 110.527715 -232.775716 
L 112.630403 -230.808431 
L 114.851668 -228.841146 
L 117.153608 -226.873861 
L 119.459278 -224.906576 
L 121.746409 -222.939291 
L 124.200397 -220.972006 
L 127.072591 -219.004721 
L 130.311819 -217.037436 
L 133.453446 -215.070151 
L 135.903492 -213.102866 
L 137.301589 -211.135581 
L 137.7 -209.168296 
L 137.5214 -207.201011 
L 137.293406 -205.233726 
L 137.247041 -203.266441 
L 137.175127 -201.299156 
L 136.744108 -199.33187 
L 135.790369 -197.364585 
L 134.263079 -195.3973 
L 132.168613 -193.430015 
L 129.720413 -191.46273 
L 127.284863 -189.495445 
L 125.054917 -187.52816 
L 122.966176 -185.560875 
L 120.936118 -183.59359 
L 119.021773 -181.626305 
L 117.323137 -179.65902 
L 115.811331 -177.691735 
L 114.346655 -175.72445 
L 112.847564 -173.757165 
L 111.341257 -171.78988 
L 109.906688 -169.822595 
L 108.646154 -167.85531 
L 107.638816 -165.888025 
L 106.895091 -163.92074 
L 106.384665 -161.953454 
L 106.058821 -159.986169 
L 105.837525 -158.018884 
L 105.6385 -156.051599 
L 105.425349 -154.084314 
L 105.212506 -152.117029 
L 105.036504 -150.149744 
L 104.917634 -148.182459 
L 104.838618 -146.215174 
L 104.765588 -144.247889 
L 104.687182 -142.280604 
L 104.622488 -140.313319 
L 104.588643 -138.346034 
L 104.569622 -136.378749 
L 104.529186 -134.411464 
L 104.455609 -132.444179 
L 104.377169 -130.476894 
L 104.325225 -128.509609 
L 104.301877 -126.542324 
L 104.29313 -124.575038 
L 104.28991 -122.607753 
L 104.285628 -120.640468 
L 104.273689 -118.673183 
L 104.256612 -116.705898 
L 104.246047 -114.738613 
L 104.25016 -112.771328 
L 104.264629 -110.804043 
L 104.275858 -108.836758 
L 104.275039 -106.869473 
L 104.268654 -104.902188 
L 104.268851 -102.934903 
L 104.275248 -100.967618 
L 104.275345 -99.000333 
L 104.262522 -97.033048 
L 104.243968 -95.065763 
L 104.229804 -93.098478 
L 104.222902 -91.131193 
L 104.220622 -89.163908 
L 104.220096 -87.196622 
L 104.220011 -85.229337 
L 104.220001 -83.262052 
L 104.22 -81.294767 
L 104.22 -79.327482 
L 104.22 -77.360197 
L 104.22 -75.392912 
L 104.22 -73.425627 
L 104.22 -71.458342 
L 104.22 -69.491057 
L 104.22 -67.523772 
L 104.22 -65.556487 
L 104.22 -63.589202 
L 104.220002 -61.621917 
L 104.220019 -59.654632 
L 104.22016 -57.687347 
L 104.220951 -55.720062 
L 104.224086 -53.752777 
L 104.232701 -51.785492 
L 104.248553 -49.818206 
L 104.266423 -47.850921 
L 104.274588 -45.883636 
z
" id="m1daaa1e0fc" style="stroke:#3f3f3f;stroke-width:1.5;"/>
    </defs>
    <g clip-path="url(#p3b816f57f2)">
     <use style="fill:#3274a1;stroke:#3f3f3f;stroke-width:1.5;" x="0" xlink:href="#m1daaa1e0fc" y="288"/>
    </g>
   </g>
   <g id="PolyCollection_2">
    <defs>
     <path d="M 338.639453 -126.057116 
L 338.520547 -126.057116 
L 338.523575 -127.243977 
L 338.531699 -128.430838 
L 338.541642 -129.617699 
L 338.549511 -130.80456 
L 338.552079 -131.991421 
L 338.547489 -133.178282 
L 338.535238 -134.365143 
L 338.515582 -135.552004 
L 338.488604 -136.738866 
L 338.453456 -137.925727 
L 338.40848 -139.112588 
L 338.352606 -140.299449 
L 338.287356 -141.48631 
L 338.217814 -142.673171 
L 338.151368 -143.860032 
L 338.09473 -145.046893 
L 338.051398 -146.233754 
L 338.021204 -147.420615 
L 338.001336 -148.607476 
L 337.986435 -149.794338 
L 337.966494 -150.981199 
L 337.924377 -152.16806 
L 337.836407 -153.354921 
L 337.677272 -154.541782 
L 337.426466 -155.728643 
L 337.07215 -156.915504 
L 336.611384 -158.102365 
L 336.049989 -159.289226 
L 335.405341 -160.476087 
L 334.710195 -161.662948 
L 334.010541 -162.84981 
L 333.352319 -164.036671 
L 332.760773 -165.223532 
L 332.224592 -166.410393 
L 331.696398 -167.597254 
L 331.11113 -168.784115 
L 330.412259 -169.970976 
L 329.571354 -171.157837 
L 328.591991 -172.344698 
L 327.500053 -173.531559 
L 326.330984 -174.71842 
L 325.124055 -175.905282 
L 323.924197 -177.092143 
L 322.781908 -178.279004 
L 321.741621 -179.465865 
L 320.820126 -180.652726 
L 319.988886 -181.839587 
L 319.175447 -183.026448 
L 318.288355 -184.213309 
L 317.255819 -185.40017 
L 316.060178 -186.587031 
L 314.751332 -187.773892 
L 313.431647 -188.960754 
L 312.217921 -190.147615 
L 311.196719 -191.334476 
L 310.392306 -192.521337 
L 309.760988 -193.708198 
L 309.214708 -194.895059 
L 308.664057 -196.08192 
L 308.061421 -197.268781 
L 307.424486 -198.455642 
L 306.829836 -199.642503 
L 306.379891 -200.829364 
L 306.156536 -202.016225 
L 306.179629 -203.203087 
L 306.388671 -204.389948 
L 306.658929 -205.576809 
L 306.847545 -206.76367 
L 306.84786 -207.950531 
L 306.625407 -209.137392 
L 306.222703 -210.324253 
L 305.740887 -211.511114 
L 305.315965 -212.697975 
L 305.1 -213.884836 
L 305.24438 -215.071697 
L 305.87785 -216.258559 
L 307.078121 -217.44542 
L 308.844326 -218.632281 
L 311.082175 -219.819142 
L 313.613516 -221.006003 
L 316.215957 -222.192864 
L 318.684102 -223.379725 
L 320.88776 -224.566586 
L 322.798577 -225.753447 
L 324.472851 -226.940308 
L 326.004216 -228.127169 
L 327.474623 -229.314031 
L 328.925844 -230.500892 
L 330.356038 -231.687753 
L 331.732953 -232.874614 
L 333.013011 -234.061475 
L 334.158629 -235.248336 
L 335.148836 -236.435197 
L 335.980776 -237.622058 
L 336.663804 -238.808919 
L 337.211694 -239.99578 
L 337.638247 -241.182641 
L 337.957421 -242.369503 
L 338.185147 -243.556364 
L 338.974853 -243.556364 
L 338.974853 -243.556364 
L 339.202579 -242.369503 
L 339.521753 -241.182641 
L 339.948306 -239.99578 
L 340.496196 -238.808919 
L 341.179224 -237.622058 
L 342.011164 -236.435197 
L 343.001371 -235.248336 
L 344.146989 -234.061475 
L 345.427047 -232.874614 
L 346.803962 -231.687753 
L 348.234156 -230.500892 
L 349.685377 -229.314031 
L 351.155784 -228.127169 
L 352.687149 -226.940308 
L 354.361423 -225.753447 
L 356.27224 -224.566586 
L 358.475898 -223.379725 
L 360.944043 -222.192864 
L 363.546484 -221.006003 
L 366.077825 -219.819142 
L 368.315674 -218.632281 
L 370.081879 -217.44542 
L 371.28215 -216.258559 
L 371.91562 -215.071697 
L 372.06 -213.884836 
L 371.844035 -212.697975 
L 371.419113 -211.511114 
L 370.937297 -210.324253 
L 370.534593 -209.137392 
L 370.31214 -207.950531 
L 370.312455 -206.76367 
L 370.501071 -205.576809 
L 370.771329 -204.389948 
L 370.980371 -203.203087 
L 371.003464 -202.016225 
L 370.780109 -200.829364 
L 370.330164 -199.642503 
L 369.735514 -198.455642 
L 369.098579 -197.268781 
L 368.495943 -196.08192 
L 367.945292 -194.895059 
L 367.399012 -193.708198 
L 366.767694 -192.521337 
L 365.963281 -191.334476 
L 364.942079 -190.147615 
L 363.728353 -188.960754 
L 362.408668 -187.773892 
L 361.099822 -186.587031 
L 359.904181 -185.40017 
L 358.871645 -184.213309 
L 357.984553 -183.026448 
L 357.171114 -181.839587 
L 356.339874 -180.652726 
L 355.418379 -179.465865 
L 354.378092 -178.279004 
L 353.235803 -177.092143 
L 352.035945 -175.905282 
L 350.829016 -174.71842 
L 349.659947 -173.531559 
L 348.568009 -172.344698 
L 347.588646 -171.157837 
L 346.747741 -169.970976 
L 346.04887 -168.784115 
L 345.463602 -167.597254 
L 344.935408 -166.410393 
L 344.399227 -165.223532 
L 343.807681 -164.036671 
L 343.149459 -162.84981 
L 342.449805 -161.662948 
L 341.754659 -160.476087 
L 341.110011 -159.289226 
L 340.548616 -158.102365 
L 340.08785 -156.915504 
L 339.733534 -155.728643 
L 339.482728 -154.541782 
L 339.323593 -153.354921 
L 339.235623 -152.16806 
L 339.193506 -150.981199 
L 339.173565 -149.794338 
L 339.158664 -148.607476 
L 339.138796 -147.420615 
L 339.108602 -146.233754 
L 339.06527 -145.046893 
L 339.008632 -143.860032 
L 338.942186 -142.673171 
L 338.872644 -141.48631 
L 338.807394 -140.299449 
L 338.75152 -139.112588 
L 338.706544 -137.925727 
L 338.671396 -136.738866 
L 338.644418 -135.552004 
L 338.624762 -134.365143 
L 338.612511 -133.178282 
L 338.607921 -131.991421 
L 338.610489 -130.80456 
L 338.618358 -129.617699 
L 338.628301 -128.430838 
L 338.636425 -127.243977 
L 338.639453 -126.057116 
z
" id="m7094d8ccb4" style="stroke:#3f3f3f;stroke-width:1.5;"/>
    </defs>
    <g clip-path="url(#p3b816f57f2)">
     <use style="fill:#e1812c;stroke:#3f3f3f;stroke-width:1.5;" x="0" xlink:href="#m7094d8ccb4" y="288"/>
    </g>
   </g>
   <g id="patch_3">
    <path clip-path="url(#p3b816f57f2)" d="M 137.7 130.764543 
L 137.7 130.764543 
L 137.7 130.764543 
L 137.7 130.764543 
z
" style="fill:#3274a1;stroke:#3f3f3f;stroke-linejoin:miter;stroke-width:0.75;"/>
   </g>
   <g id="patch_4">
    <path clip-path="url(#p3b816f57f2)" d="M 137.7 130.764543 
L 137.7 130.764543 
L 137.7 130.764543 
L 137.7 130.764543 
z
" style="fill:#e1812c;stroke:#3f3f3f;stroke-linejoin:miter;stroke-width:0.75;"/>
   </g>
   <g id="matplotlib.axis_1">
    <g id="xtick_1">
     <g id="line2d_1">
      <defs>
       <path d="M 0 0 
L 0 3.5 
" id="m1062ad7780" style="stroke:#000000;stroke-width:0.8;"/>
      </defs>
      <g>
       <use style="stroke:#000000;stroke-width:0.8;" x="137.7" xlink:href="#m1062ad7780" y="252"/>
      </g>
     </g>
     <g id="text_1">
      <!-- Z_1_ns -->
      <g transform="translate(120.320312 266.320312)scale(0.1 -0.1)">
       <defs>
        <path d="M 5.609375 72.90625 
L 62.890625 72.90625 
L 62.890625 65.375 
L 16.796875 8.296875 
L 64.015625 8.296875 
L 64.015625 0 
L 4.5 0 
L 4.5 7.515625 
L 50.59375 64.59375 
L 5.609375 64.59375 
z
" id="DejaVuSans-90"/>
        <path d="M 50.984375 -16.609375 
L 50.984375 -23.578125 
L -0.984375 -23.578125 
L -0.984375 -16.609375 
z
" id="DejaVuSans-95"/>
        <path d="M 12.40625 8.296875 
L 28.515625 8.296875 
L 28.515625 63.921875 
L 10.984375 60.40625 
L 10.984375 69.390625 
L 28.421875 72.90625 
L 38.28125 72.90625 
L 38.28125 8.296875 
L 54.390625 8.296875 
L 54.390625 0 
L 12.40625 0 
z
" id="DejaVuSans-49"/>
        <path d="M 54.890625 33.015625 
L 54.890625 0 
L 45.90625 0 
L 45.90625 32.71875 
Q 45.90625 40.484375 42.875 44.328125 
Q 39.84375 48.1875 33.796875 48.1875 
Q 26.515625 48.1875 22.3125 43.546875 
Q 18.109375 38.921875 18.109375 30.90625 
L 18.109375 0 
L 9.078125 0 
L 9.078125 54.6875 
L 18.109375 54.6875 
L 18.109375 46.1875 
Q 21.34375 51.125 25.703125 53.5625 
Q 30.078125 56 35.796875 56 
Q 45.21875 56 50.046875 50.171875 
Q 54.890625 44.34375 54.890625 33.015625 
z
" id="DejaVuSans-110"/>
        <path d="M 44.28125 53.078125 
L 44.28125 44.578125 
Q 40.484375 46.53125 36.375 47.5 
Q 32.28125 48.484375 27.875 48.484375 
Q 21.1875 48.484375 17.84375 46.4375 
Q 14.5 44.390625 14.5 40.28125 
Q 14.5 37.15625 16.890625 35.375 
Q 19.28125 33.59375 26.515625 31.984375 
L 29.59375 31.296875 
Q 39.15625 29.25 43.1875 25.515625 
Q 47.21875 21.78125 47.21875 15.09375 
Q 47.21875 7.46875 41.1875 3.015625 
Q 35.15625 -1.421875 24.609375 -1.421875 
Q 20.21875 -1.421875 15.453125 -0.5625 
Q 10.6875 0.296875 5.421875 2 
L 5.421875 11.28125 
Q 10.40625 8.6875 15.234375 7.390625 
Q 20.0625 6.109375 24.8125 6.109375 
Q 31.15625 6.109375 34.5625 8.28125 
Q 37.984375 10.453125 37.984375 14.40625 
Q 37.984375 18.0625 35.515625 20.015625 
Q 33.0625 21.96875 24.703125 23.78125 
L 21.578125 24.515625 
Q 13.234375 26.265625 9.515625 29.90625 
Q 5.8125 33.546875 5.8125 39.890625 
Q 5.8125 47.609375 11.28125 51.796875 
Q 16.75 56 26.8125 56 
Q 31.78125 56 36.171875 55.265625 
Q 40.578125 54.546875 44.28125 53.078125 
z
" id="DejaVuSans-115"/>
       </defs>
       <use xlink:href="#DejaVuSans-90"/>
       <use x="68.505859" xlink:href="#DejaVuSans-95"/>
       <use x="118.505859" xlink:href="#DejaVuSans-49"/>
       <use x="182.128906" xlink:href="#DejaVuSans-95"/>
       <use x="232.128906" xlink:href="#DejaVuSans-110"/>
       <use x="295.507812" xlink:href="#DejaVuSans-115"/>
      </g>
     </g>
    </g>
    <g id="xtick_2">
     <g id="line2d_2">
      <g>
       <use style="stroke:#000000;stroke-width:0.8;" x="305.1" xlink:href="#m1062ad7780" y="252"/>
      </g>
     </g>
     <g id="text_2">
      <!-- Z_2_ns -->
      <g transform="translate(287.720313 266.421875)scale(0.1 -0.1)">
       <defs>
        <path d="M 19.1875 8.296875 
L 53.609375 8.296875 
L 53.609375 0 
L 7.328125 0 
L 7.328125 8.296875 
Q 12.9375 14.109375 22.625 23.890625 
Q 32.328125 33.6875 34.8125 36.53125 
Q 39.546875 41.84375 41.421875 45.53125 
Q 43.3125 49.21875 43.3125 52.78125 
Q 43.3125 58.59375 39.234375 62.25 
Q 35.15625 65.921875 28.609375 65.921875 
Q 23.96875 65.921875 18.8125 64.3125 
Q 13.671875 62.703125 7.8125 59.421875 
L 7.8125 69.390625 
Q 13.765625 71.78125 18.9375 73 
Q 24.125 74.21875 28.421875 74.21875 
Q 39.75 74.21875 46.484375 68.546875 
Q 53.21875 62.890625 53.21875 53.421875 
Q 53.21875 48.921875 51.53125 44.890625 
Q 49.859375 40.875 45.40625 35.40625 
Q 44.1875 33.984375 37.640625 27.21875 
Q 31.109375 20.453125 19.1875 8.296875 
z
" id="DejaVuSans-50"/>
       </defs>
       <use xlink:href="#DejaVuSans-90"/>
       <use x="68.505859" xlink:href="#DejaVuSans-95"/>
       <use x="118.505859" xlink:href="#DejaVuSans-50"/>
       <use x="182.128906" xlink:href="#DejaVuSans-95"/>
       <use x="232.128906" xlink:href="#DejaVuSans-110"/>
       <use x="295.507812" xlink:href="#DejaVuSans-115"/>
      </g>
     </g>
    </g>
    <g id="text_3">
     <!-- set -->
     <g transform="translate(213.758594 280.378125)scale(0.1 -0.1)">
      <defs>
       <path d="M 56.203125 29.59375 
L 56.203125 25.203125 
L 14.890625 25.203125 
Q 15.484375 15.921875 20.484375 11.0625 
Q 25.484375 6.203125 34.421875 6.203125 
Q 39.59375 6.203125 44.453125 7.46875 
Q 49.3125 8.734375 54.109375 11.28125 
L 54.109375 2.78125 
Q 49.265625 0.734375 44.1875 -0.34375 
Q 39.109375 -1.421875 33.890625 -1.421875 
Q 20.796875 -1.421875 13.15625 6.1875 
Q 5.515625 13.8125 5.515625 26.8125 
Q 5.515625 40.234375 12.765625 48.109375 
Q 20.015625 56 32.328125 56 
Q 43.359375 56 49.78125 48.890625 
Q 56.203125 41.796875 56.203125 29.59375 
z
M 47.21875 32.234375 
Q 47.125 39.59375 43.09375 43.984375 
Q 39.0625 48.390625 32.421875 48.390625 
Q 24.90625 48.390625 20.390625 44.140625 
Q 15.875 39.890625 15.1875 32.171875 
z
" id="DejaVuSans-101"/>
       <path d="M 18.3125 70.21875 
L 18.3125 54.6875 
L 36.8125 54.6875 
L 36.8125 47.703125 
L 18.3125 47.703125 
L 18.3125 18.015625 
Q 18.3125 11.328125 20.140625 9.421875 
Q 21.96875 7.515625 27.59375 7.515625 
L 36.8125 7.515625 
L 36.8125 0 
L 27.59375 0 
Q 17.1875 0 13.234375 3.875 
Q 9.28125 7.765625 9.28125 18.015625 
L 9.28125 47.703125 
L 2.6875 47.703125 
L 2.6875 54.6875 
L 9.28125 54.6875 
L 9.28125 70.21875 
z
" id="DejaVuSans-116"/>
      </defs>
      <use xlink:href="#DejaVuSans-115"/>
      <use x="52.099609" xlink:href="#DejaVuSans-101"/>
      <use x="113.623047" xlink:href="#DejaVuSans-116"/>
     </g>
    </g>
   </g>
   <g id="matplotlib.axis_2">
    <g id="ytick_1">
     <g id="line2d_3">
      <defs>
       <path d="M 0 0 
L -3.5 0 
" id="mc4fcce96cd" style="stroke:#000000;stroke-width:0.8;"/>
      </defs>
      <g>
       <use style="stroke:#000000;stroke-width:0.8;" x="54" xlink:href="#mc4fcce96cd" y="228.19972"/>
      </g>
     </g>
     <g id="text_4">
      <!-- −15 -->
      <g transform="translate(25.895312 231.998939)scale(0.1 -0.1)">
       <defs>
        <path d="M 10.59375 35.5 
L 73.1875 35.5 
L 73.1875 27.203125 
L 10.59375 27.203125 
z
" id="DejaVuSans-8722"/>
        <path d="M 10.796875 72.90625 
L 49.515625 72.90625 
L 49.515625 64.59375 
L 19.828125 64.59375 
L 19.828125 46.734375 
Q 21.96875 47.46875 24.109375 47.828125 
Q 26.265625 48.1875 28.421875 48.1875 
Q 40.625 48.1875 47.75 41.5 
Q 54.890625 34.8125 54.890625 23.390625 
Q 54.890625 11.625 47.5625 5.09375 
Q 40.234375 -1.421875 26.90625 -1.421875 
Q 22.3125 -1.421875 17.546875 -0.640625 
Q 12.796875 0.140625 7.71875 1.703125 
L 7.71875 11.625 
Q 12.109375 9.234375 16.796875 8.0625 
Q 21.484375 6.890625 26.703125 6.890625 
Q 35.15625 6.890625 40.078125 11.328125 
Q 45.015625 15.765625 45.015625 23.390625 
Q 45.015625 31 40.078125 35.4375 
Q 35.15625 39.890625 26.703125 39.890625 
Q 22.75 39.890625 18.8125 39.015625 
Q 14.890625 38.140625 10.796875 36.28125 
z
" id="DejaVuSans-53"/>
       </defs>
       <use xlink:href="#DejaVuSans-8722"/>
       <use x="83.789062" xlink:href="#DejaVuSans-49"/>
       <use x="147.412109" xlink:href="#DejaVuSans-53"/>
      </g>
     </g>
    </g>
    <g id="ytick_2">
     <g id="line2d_4">
      <g>
       <use style="stroke:#000000;stroke-width:0.8;" x="54" xlink:href="#mc4fcce96cd" y="195.721328"/>
      </g>
     </g>
     <g id="text_5">
      <!-- −10 -->
      <g transform="translate(25.895312 199.520546)scale(0.1 -0.1)">
       <defs>
        <path d="M 31.78125 66.40625 
Q 24.171875 66.40625 20.328125 58.90625 
Q 16.5 51.421875 16.5 36.375 
Q 16.5 21.390625 20.328125 13.890625 
Q 24.171875 6.390625 31.78125 6.390625 
Q 39.453125 6.390625 43.28125 13.890625 
Q 47.125 21.390625 47.125 36.375 
Q 47.125 51.421875 43.28125 58.90625 
Q 39.453125 66.40625 31.78125 66.40625 
z
M 31.78125 74.21875 
Q 44.046875 74.21875 50.515625 64.515625 
Q 56.984375 54.828125 56.984375 36.375 
Q 56.984375 17.96875 50.515625 8.265625 
Q 44.046875 -1.421875 31.78125 -1.421875 
Q 19.53125 -1.421875 13.0625 8.265625 
Q 6.59375 17.96875 6.59375 36.375 
Q 6.59375 54.828125 13.0625 64.515625 
Q 19.53125 74.21875 31.78125 74.21875 
z
" id="DejaVuSans-48"/>
       </defs>
       <use xlink:href="#DejaVuSans-8722"/>
       <use x="83.789062" xlink:href="#DejaVuSans-49"/>
       <use x="147.412109" xlink:href="#DejaVuSans-48"/>
      </g>
     </g>
    </g>
    <g id="ytick_3">
     <g id="line2d_5">
      <g>
       <use style="stroke:#000000;stroke-width:0.8;" x="54" xlink:href="#mc4fcce96cd" y="163.242936"/>
      </g>
     </g>
     <g id="text_6">
      <!-- −5 -->
      <g transform="translate(32.257812 167.042154)scale(0.1 -0.1)">
       <use xlink:href="#DejaVuSans-8722"/>
       <use x="83.789062" xlink:href="#DejaVuSans-53"/>
      </g>
     </g>
    </g>
    <g id="ytick_4">
     <g id="line2d_6">
      <g>
       <use style="stroke:#000000;stroke-width:0.8;" x="54" xlink:href="#mc4fcce96cd" y="130.764543"/>
      </g>
     </g>
     <g id="text_7">
      <!-- 0 -->
      <g transform="translate(40.6375 134.563762)scale(0.1 -0.1)">
       <use xlink:href="#DejaVuSans-48"/>
      </g>
     </g>
    </g>
    <g id="ytick_5">
     <g id="line2d_7">
      <g>
       <use style="stroke:#000000;stroke-width:0.8;" x="54" xlink:href="#mc4fcce96cd" y="98.286151"/>
      </g>
     </g>
     <g id="text_8">
      <!-- 5 -->
      <g transform="translate(40.6375 102.08537)scale(0.1 -0.1)">
       <use xlink:href="#DejaVuSans-53"/>
      </g>
     </g>
    </g>
    <g id="ytick_6">
     <g id="line2d_8">
      <g>
       <use style="stroke:#000000;stroke-width:0.8;" x="54" xlink:href="#mc4fcce96cd" y="65.807759"/>
      </g>
     </g>
     <g id="text_9">
      <!-- 10 -->
      <g transform="translate(34.275 69.606978)scale(0.1 -0.1)">
       <use xlink:href="#DejaVuSans-49"/>
       <use x="63.623047" xlink:href="#DejaVuSans-48"/>
      </g>
     </g>
    </g>
    <g id="text_10">
     <!-- value -->
     <g transform="translate(19.815625 156.937813)rotate(-90)scale(0.1 -0.1)">
      <defs>
       <path d="M 2.984375 54.6875 
L 12.5 54.6875 
L 29.59375 8.796875 
L 46.6875 54.6875 
L 56.203125 54.6875 
L 35.6875 0 
L 23.484375 0 
z
" id="DejaVuSans-118"/>
       <path d="M 34.28125 27.484375 
Q 23.390625 27.484375 19.1875 25 
Q 14.984375 22.515625 14.984375 16.5 
Q 14.984375 11.71875 18.140625 8.90625 
Q 21.296875 6.109375 26.703125 6.109375 
Q 34.1875 6.109375 38.703125 11.40625 
Q 43.21875 16.703125 43.21875 25.484375 
L 43.21875 27.484375 
z
M 52.203125 31.203125 
L 52.203125 0 
L 43.21875 0 
L 43.21875 8.296875 
Q 40.140625 3.328125 35.546875 0.953125 
Q 30.953125 -1.421875 24.3125 -1.421875 
Q 15.921875 -1.421875 10.953125 3.296875 
Q 6 8.015625 6 15.921875 
Q 6 25.140625 12.171875 29.828125 
Q 18.359375 34.515625 30.609375 34.515625 
L 43.21875 34.515625 
L 43.21875 35.40625 
Q 43.21875 41.609375 39.140625 45 
Q 35.0625 48.390625 27.6875 48.390625 
Q 23 48.390625 18.546875 47.265625 
Q 14.109375 46.140625 10.015625 43.890625 
L 10.015625 52.203125 
Q 14.9375 54.109375 19.578125 55.046875 
Q 24.21875 56 28.609375 56 
Q 40.484375 56 46.34375 49.84375 
Q 52.203125 43.703125 52.203125 31.203125 
z
" id="DejaVuSans-97"/>
       <path d="M 9.421875 75.984375 
L 18.40625 75.984375 
L 18.40625 0 
L 9.421875 0 
z
" id="DejaVuSans-108"/>
       <path d="M 8.5 21.578125 
L 8.5 54.6875 
L 17.484375 54.6875 
L 17.484375 21.921875 
Q 17.484375 14.15625 20.5 10.265625 
Q 23.53125 6.390625 29.59375 6.390625 
Q 36.859375 6.390625 41.078125 11.03125 
Q 45.3125 15.671875 45.3125 23.6875 
L 45.3125 54.6875 
L 54.296875 54.6875 
L 54.296875 0 
L 45.3125 0 
L 45.3125 8.40625 
Q 42.046875 3.421875 37.71875 1 
Q 33.40625 -1.421875 27.6875 -1.421875 
Q 18.265625 -1.421875 13.375 4.4375 
Q 8.5 10.296875 8.5 21.578125 
z
M 31.109375 56 
z
" id="DejaVuSans-117"/>
      </defs>
      <use xlink:href="#DejaVuSans-118"/>
      <use x="59.179688" xlink:href="#DejaVuSans-97"/>
      <use x="120.458984" xlink:href="#DejaVuSans-108"/>
      <use x="148.242188" xlink:href="#DejaVuSans-117"/>
      <use x="211.621094" xlink:href="#DejaVuSans-101"/>
     </g>
    </g>
   </g>
   <g id="line2d_9">
    <path clip-path="url(#p3b816f57f2)" d="M 104.22 129.614245 
L 104.22 47.355143 
" style="fill:none;stroke:#3f3f3f;stroke-linecap:square;stroke-width:1.5;"/>
   </g>
   <g id="line2d_10">
    <path clip-path="url(#p3b816f57f2)" d="M 104.22 96.635193 
L 104.22 74.295357 
" style="fill:none;stroke:#3f3f3f;stroke-linecap:square;stroke-width:4.5;"/>
   </g>
   <g id="line2d_11">
    <path clip-path="url(#p3b816f57f2)" d="M 338.58 136.508068 
L 338.58 44.443636 
" style="fill:none;stroke:#3f3f3f;stroke-linecap:square;stroke-width:1.5;"/>
   </g>
   <g id="line2d_12">
    <path clip-path="url(#p3b816f57f2)" d="M 338.58 98.587898 
L 338.58 73.227401 
" style="fill:none;stroke:#3f3f3f;stroke-linecap:square;stroke-width:4.5;"/>
   </g>
   <g id="patch_5">
    <path d="M 54 252 
L 54 34.56 
" style="fill:none;stroke:#000000;stroke-linecap:square;stroke-linejoin:miter;stroke-width:0.8;"/>
   </g>
   <g id="patch_6">
    <path d="M 388.8 252 
L 388.8 34.56 
" style="fill:none;stroke:#000000;stroke-linecap:square;stroke-linejoin:miter;stroke-width:0.8;"/>
   </g>
   <g id="patch_7">
    <path d="M 54 252 
L 388.8 252 
" style="fill:none;stroke:#000000;stroke-linecap:square;stroke-linejoin:miter;stroke-width:0.8;"/>
   </g>
   <g id="patch_8">
    <path d="M 54 34.56 
L 388.8 34.56 
" style="fill:none;stroke:#000000;stroke-linecap:square;stroke-linejoin:miter;stroke-width:0.8;"/>
   </g>
   <g id="PathCollection_1">
    <defs>
     <path d="M 0 1.5 
C 0.397805 1.5 0.77937 1.341951 1.06066 1.06066 
C 1.341951 0.77937 1.5 0.397805 1.5 0 
C 1.5 -0.397805 1.341951 -0.77937 1.06066 -1.06066 
C 0.77937 -1.341951 0.397805 -1.5 0 -1.5 
C -0.397805 -1.5 -0.77937 -1.341951 -1.06066 -1.06066 
C -1.341951 -0.77937 -1.5 -0.397805 -1.5 0 
C -1.5 0.397805 -1.341951 0.77937 -1.06066 1.06066 
C -0.77937 1.341951 -0.397805 1.5 0 1.5 
z
" id="m10d9b772cf" style="stroke:#3f3f3f;"/>
    </defs>
    <g clip-path="url(#p3b816f57f2)">
     <use style="fill:#ffffff;stroke:#3f3f3f;" x="104.22" xlink:href="#m10d9b772cf" y="85.269835"/>
    </g>
   </g>
   <g id="PathCollection_2">
    <g clip-path="url(#p3b816f57f2)">
     <use style="fill:#ffffff;stroke:#3f3f3f;" x="338.58" xlink:href="#m10d9b772cf" y="85.461"/>
    </g>
   </g>
   <g id="legend_1">
    <g id="patch_9">
     <path d="M 61 247 
L 127.759375 247 
Q 129.759375 247 129.759375 245 
L 129.759375 201.409375 
Q 129.759375 199.409375 127.759375 199.409375 
L 61 199.409375 
Q 59 199.409375 59 201.409375 
L 59 245 
Q 59 247 61 247 
z
" style="fill:#ffffff;opacity:0.8;stroke:#cccccc;stroke-linejoin:miter;"/>
    </g>
    <g id="text_11">
     <!-- set -->
     <g transform="translate(86.738281 211.007812)scale(0.1 -0.1)">
      <use xlink:href="#DejaVuSans-115"/>
      <use x="52.099609" xlink:href="#DejaVuSans-101"/>
      <use x="113.623047" xlink:href="#DejaVuSans-116"/>
     </g>
    </g>
    <g id="patch_10">
     <path d="M 63 225.685937 
L 83 225.685937 
L 83 218.685937 
L 63 218.685937 
z
" style="fill:#3274a1;stroke:#3f3f3f;stroke-linejoin:miter;stroke-width:0.75;"/>
    </g>
    <g id="text_12">
     <!-- Z_1_ns -->
     <g transform="translate(91 225.685937)scale(0.1 -0.1)">
      <use xlink:href="#DejaVuSans-90"/>
      <use x="68.505859" xlink:href="#DejaVuSans-95"/>
      <use x="118.505859" xlink:href="#DejaVuSans-49"/>
      <use x="182.128906" xlink:href="#DejaVuSans-95"/>
      <use x="232.128906" xlink:href="#DejaVuSans-110"/>
      <use x="295.507812" xlink:href="#DejaVuSans-115"/>
     </g>
    </g>
    <g id="patch_11">
     <path d="M 63 240.642188 
L 83 240.642188 
L 83 233.642188 
L 63 233.642188 
z
" style="fill:#e1812c;stroke:#3f3f3f;stroke-linejoin:miter;stroke-width:0.75;"/>
    </g>
    <g id="text_13">
     <!-- Z_2_ns -->
     <g transform="translate(91 240.642188)scale(0.1 -0.1)">
      <use xlink:href="#DejaVuSans-90"/>
      <use x="68.505859" xlink:href="#DejaVuSans-95"/>
      <use x="118.505859" xlink:href="#DejaVuSans-50"/>
      <use x="182.128906" xlink:href="#DejaVuSans-95"/>
      <use x="232.128906" xlink:href="#DejaVuSans-110"/>
      <use x="295.507812" xlink:href="#DejaVuSans-115"/>
     </g>
    </g>
   </g>
  </g>
 </g>
 <defs>
  <clipPath id="p3b816f57f2">
   <rect height="217.44" width="334.8" x="54" y="34.56"/>
  </clipPath>
 </defs>
</svg>
