<?xml version="1.0" encoding="utf-8" standalone="no"?>
<!DOCTYPE svg PUBLIC "-//W3C//DTD SVG 1.1//EN"
  "http://www.w3.org/Graphics/SVG/1.1/DTD/svg11.dtd">
<!-- Created with matplotlib (https://matplotlib.org/) -->
<svg height="288pt" version="1.1" viewBox="0 0 432 288" width="432pt" xmlns="http://www.w3.org/2000/svg" xmlns:xlink="http://www.w3.org/1999/xlink">
 <metadata>
  <rdf:RDF xmlns:cc="http://creativecommons.org/ns#" xmlns:dc="http://purl.org/dc/elements/1.1/" xmlns:rdf="http://www.w3.org/1999/02/22-rdf-syntax-ns#">
   <cc:Work>
    <dc:type rdf:resource="http://purl.org/dc/dcmitype/StillImage"/>
    <dc:date>2022-05-07T18:02:31.626106</dc:date>
    <dc:format>image/svg+xml</dc:format>
    <dc:creator>
     <cc:Agent>
      <dc:title>Matplotlib v3.3.4, https://matplotlib.org/</dc:title>
     </cc:Agent>
    </dc:creator>
   </cc:Work>
  </rdf:RDF>
 </metadata>
 <defs>
  <style type="text/css">*{stroke-linecap:butt;stroke-linejoin:round;}</style>
 </defs>
 <g id="figure_1">
  <g id="patch_1">
   <path d="M 0 288 
L 432 288 
L 432 0 
L 0 0 
z
" style="fill:#ffffff;"/>
  </g>
  <g id="axes_1">
   <g id="patch_2">
    <path d="M 54 252 
L 388.8 252 
L 388.8 34.56 
L 54 34.56 
z
" style="fill:#ffffff;"/>
   </g>
   <g id="PolyCollection_1">
    <defs>
     <path d="M 104.277141 -63.934195 
L 104.162859 -63.934195 
L 104.157874 -65.74856 
L 104.155856 -67.562925 
L 104.155319 -69.377291 
L 104.155553 -71.191656 
L 104.155831 -73.006021 
L 104.153885 -74.820387 
L 104.146391 -76.634752 
L 104.131774 -78.449117 
L 104.112295 -80.263483 
L 104.09274 -82.077848 
L 104.076862 -83.892213 
L 104.065298 -85.706579 
L 104.056601 -87.520944 
L 104.049208 -89.335309 
L 104.041909 -91.149675 
L 104.033403 -92.96404 
L 104.02319 -94.778405 
L 104.013662 -96.592771 
L 104.010463 -98.407136 
L 104.018918 -100.221502 
L 104.03835 -102.035867 
L 104.059136 -103.850232 
L 104.06608 -105.664598 
L 104.046803 -107.478963 
L 103.999376 -109.293328 
L 103.933232 -111.107694 
L 103.862527 -112.922059 
L 103.797706 -114.736424 
L 103.742067 -116.55079 
L 103.693579 -118.365155 
L 103.646554 -120.17952 
L 103.59125 -121.993886 
L 103.516124 -123.808251 
L 103.415639 -125.622616 
L 103.29722 -127.436982 
L 103.17757 -129.251347 
L 103.067587 -131.065712 
L 102.957426 -132.880078 
L 102.816214 -134.694443 
L 102.61109 -136.508808 
L 102.33441 -138.323174 
L 102.017674 -140.137539 
L 101.716816 -141.951904 
L 101.475795 -143.76627 
L 101.295351 -145.580635 
L 101.130085 -147.395 
L 100.913563 -149.209366 
L 100.59244 -151.023731 
L 100.15019 -152.838096 
L 99.611347 -154.652462 
L 99.027826 -156.466827 
L 98.456089 -158.281193 
L 97.935418 -160.095558 
L 97.473415 -161.909923 
L 97.040718 -163.724289 
L 96.577117 -165.538654 
L 96.011919 -167.353019 
L 95.295395 -169.167385 
L 94.425095 -170.98175 
L 93.444417 -172.796115 
L 92.407161 -174.610481 
L 91.334806 -176.424846 
L 90.207372 -178.239211 
L 88.997287 -180.053577 
L 87.70701 -181.867942 
L 86.366405 -183.682307 
L 84.996801 -185.496673 
L 83.589584 -187.311038 
L 82.123025 -189.125403 
L 80.588601 -190.939769 
L 78.99383 -192.754134 
L 77.353516 -194.568499 
L 75.701433 -196.382865 
L 74.117002 -198.19723 
L 72.726407 -200.011595 
L 71.660692 -201.825961 
L 70.999914 -203.640326 
L 70.74 -205.454691 
L 70.796587 -207.269057 
L 71.049994 -209.083422 
L 71.425353 -210.897787 
L 71.963507 -212.712153 
L 72.814165 -214.526518 
L 74.135833 -216.340883 
L 75.980715 -218.155249 
L 78.26487 -219.969614 
L 80.839307 -221.78398 
L 83.582703 -223.598345 
L 86.432538 -225.41271 
L 89.34529 -227.227076 
L 92.240337 -229.041441 
L 94.983713 -230.855806 
L 97.423576 -232.670172 
L 99.446025 -234.484537 
L 101.010559 -236.298902 
L 102.147979 -238.113268 
L 102.932409 -239.927633 
L 103.449915 -241.741998 
L 103.778081 -243.556364 
L 104.661919 -243.556364 
L 104.661919 -243.556364 
L 104.990085 -241.741998 
L 105.507591 -239.927633 
L 106.292021 -238.113268 
L 107.429441 -236.298902 
L 108.993975 -234.484537 
L 111.016424 -232.670172 
L 113.456287 -230.855806 
L 116.199663 -229.041441 
L 119.09471 -227.227076 
L 122.007462 -225.41271 
L 124.857297 -223.598345 
L 127.600693 -221.78398 
L 130.17513 -219.969614 
L 132.459285 -218.155249 
L 134.304167 -216.340883 
L 135.625835 -214.526518 
L 136.476493 -212.712153 
L 137.014647 -210.897787 
L 137.390006 -209.083422 
L 137.643413 -207.269057 
L 137.7 -205.454691 
L 137.440086 -203.640326 
L 136.779308 -201.825961 
L 135.713593 -200.011595 
L 134.322998 -198.19723 
L 132.738567 -196.382865 
L 131.086484 -194.568499 
L 129.44617 -192.754134 
L 127.851399 -190.939769 
L 126.316975 -189.125403 
L 124.850416 -187.311038 
L 123.443199 -185.496673 
L 122.073595 -183.682307 
L 120.73299 -181.867942 
L 119.442713 -180.053577 
L 118.232628 -178.239211 
L 117.105194 -176.424846 
L 116.032839 -174.610481 
L 114.995583 -172.796115 
L 114.014905 -170.98175 
L 113.144605 -169.167385 
L 112.428081 -167.353019 
L 111.862883 -165.538654 
L 111.399282 -163.724289 
L 110.966585 -161.909923 
L 110.504582 -160.095558 
L 109.983911 -158.281193 
L 109.412174 -156.466827 
L 108.828653 -154.652462 
L 108.28981 -152.838096 
L 107.84756 -151.023731 
L 107.526437 -149.209366 
L 107.309915 -147.395 
L 107.144649 -145.580635 
L 106.964205 -143.76627 
L 106.723184 -141.951904 
L 106.422326 -140.137539 
L 106.10559 -138.323174 
L 105.82891 -136.508808 
L 105.623786 -134.694443 
L 105.482574 -132.880078 
L 105.372413 -131.065712 
L 105.26243 -129.251347 
L 105.14278 -127.436982 
L 105.024361 -125.622616 
L 104.923876 -123.808251 
L 104.84875 -121.993886 
L 104.793446 -120.17952 
L 104.746421 -118.365155 
L 104.697933 -116.55079 
L 104.642294 -114.736424 
L 104.577473 -112.922059 
L 104.506768 -111.107694 
L 104.440624 -109.293328 
L 104.393197 -107.478963 
L 104.37392 -105.664598 
L 104.380864 -103.850232 
L 104.40165 -102.035867 
L 104.421082 -100.221502 
L 104.429537 -98.407136 
L 104.426338 -96.592771 
L 104.41681 -94.778405 
L 104.406597 -92.96404 
L 104.398091 -91.149675 
L 104.390792 -89.335309 
L 104.383399 -87.520944 
L 104.374702 -85.706579 
L 104.363138 -83.892213 
L 104.34726 -82.077848 
L 104.327705 -80.263483 
L 104.308226 -78.449117 
L 104.293609 -76.634752 
L 104.286115 -74.820387 
L 104.284169 -73.006021 
L 104.284447 -71.191656 
L 104.284681 -69.377291 
L 104.284144 -67.562925 
L 104.282126 -65.74856 
L 104.277141 -63.934195 
z
" id="m2231b54f7d" style="stroke:#3f3f3f;stroke-width:1.5;"/>
    </defs>
    <g clip-path="url(#pe8a54969b8)">
     <use style="fill:#3274a1;stroke:#3f3f3f;stroke-width:1.5;" x="0" xlink:href="#m2231b54f7d" y="288"/>
    </g>
   </g>
   <g id="PolyCollection_2">
    <defs>
     <path d="M 338.628932 -45.883636 
L 338.531068 -45.883636 
L 338.529945 -47.576472 
L 338.530958 -49.269308 
L 338.530965 -50.962144 
L 338.528037 -52.65498 
L 338.522379 -54.347816 
L 338.515157 -56.040652 
L 338.50668 -57.733488 
L 338.496006 -59.426324 
L 338.482399 -61.11916 
L 338.466908 -62.811996 
L 338.452173 -64.504832 
L 338.440443 -66.197668 
L 338.431668 -67.890504 
L 338.423333 -69.58334 
L 338.411895 -71.276176 
L 338.394007 -72.969012 
L 338.366082 -74.661848 
L 338.322964 -76.354684 
L 338.258528 -78.04752 
L 338.170151 -79.740356 
L 338.06502 -81.433192 
L 337.962518 -83.126028 
L 337.887919 -84.818864 
L 337.859228 -86.5117 
L 337.87576 -88.204536 
L 337.916921 -89.897372 
L 337.952051 -91.590209 
L 337.954242 -93.283045 
L 337.909835 -94.975881 
L 337.820457 -96.668717 
L 337.700089 -98.361553 
L 337.570329 -100.054389 
L 337.45381 -101.747225 
L 337.364383 -103.440061 
L 337.297336 -105.132897 
L 337.228766 -106.825733 
L 337.130297 -108.518569 
L 336.992063 -110.211405 
L 336.835617 -111.904241 
L 336.702606 -113.597077 
L 336.623854 -115.289913 
L 336.591396 -116.982749 
L 336.556712 -118.675585 
L 336.4588 -120.368421 
L 336.26054 -122.061257 
L 335.964105 -123.754093 
L 335.595842 -125.446929 
L 335.179934 -127.139765 
L 334.727319 -128.832601 
L 334.244777 -130.525437 
L 333.745974 -132.218273 
L 333.248607 -133.911109 
L 332.762112 -135.603945 
L 332.280948 -137.296781 
L 331.78935 -138.989617 
L 331.2698 -140.682453 
L 330.705356 -142.375289 
L 330.075277 -144.068125 
L 329.352987 -145.760961 
L 328.51406 -147.453797 
L 327.549444 -149.146633 
L 326.469704 -150.839469 
L 325.293919 -152.532305 
L 324.034859 -154.225141 
L 322.696514 -155.917977 
L 321.282675 -157.610813 
L 319.799557 -159.303649 
L 318.2471 -160.996485 
L 316.619212 -162.689321 
L 314.930299 -164.382157 
L 313.245802 -166.074993 
L 311.671337 -167.767829 
L 310.293591 -169.460665 
L 309.126591 -171.153501 
L 308.118693 -172.846337 
L 307.211663 -174.539173 
L 306.394184 -176.232009 
L 305.712411 -177.924845 
L 305.249505 -179.617681 
L 305.1 -181.310517 
L 305.345186 -183.003353 
L 306.027726 -184.696189 
L 307.138337 -186.389025 
L 308.631229 -188.081861 
L 310.460533 -189.774697 
L 312.604265 -191.467533 
L 315.049882 -193.160369 
L 317.751918 -194.853205 
L 320.600417 -196.546041 
L 323.432006 -198.238877 
L 326.08103 -199.931713 
L 328.436533 -201.624549 
L 330.466993 -203.317385 
L 332.200686 -205.010221 
L 333.682658 -206.703057 
L 334.941739 -208.395893 
L 335.985378 -210.088729 
L 336.814619 -211.781565 
L 337.439819 -213.474401 
L 339.720181 -213.474401 
L 339.720181 -213.474401 
L 340.345381 -211.781565 
L 341.174622 -210.088729 
L 342.218261 -208.395893 
L 343.477342 -206.703057 
L 344.959314 -205.010221 
L 346.693007 -203.317385 
L 348.723467 -201.624549 
L 351.07897 -199.931713 
L 353.727994 -198.238877 
L 356.559583 -196.546041 
L 359.408082 -194.853205 
L 362.110118 -193.160369 
L 364.555735 -191.467533 
L 366.699467 -189.774697 
L 368.528771 -188.081861 
L 370.021663 -186.389025 
L 371.132274 -184.696189 
L 371.814814 -183.003353 
L 372.06 -181.310517 
L 371.910495 -179.617681 
L 371.447589 -177.924845 
L 370.765816 -176.232009 
L 369.948337 -174.539173 
L 369.041307 -172.846337 
L 368.033409 -171.153501 
L 366.866409 -169.460665 
L 365.488663 -167.767829 
L 363.914198 -166.074993 
L 362.229701 -164.382157 
L 360.540788 -162.689321 
L 358.9129 -160.996485 
L 357.360443 -159.303649 
L 355.877325 -157.610813 
L 354.463486 -155.917977 
L 353.125141 -154.225141 
L 351.866081 -152.532305 
L 350.690296 -150.839469 
L 349.610556 -149.146633 
L 348.64594 -147.453797 
L 347.807013 -145.760961 
L 347.084723 -144.068125 
L 346.454644 -142.375289 
L 345.8902 -140.682453 
L 345.37065 -138.989617 
L 344.879052 -137.296781 
L 344.397888 -135.603945 
L 343.911393 -133.911109 
L 343.414026 -132.218273 
L 342.915223 -130.525437 
L 342.432681 -128.832601 
L 341.980066 -127.139765 
L 341.564158 -125.446929 
L 341.195895 -123.754093 
L 340.89946 -122.061257 
L 340.7012 -120.368421 
L 340.603288 -118.675585 
L 340.568604 -116.982749 
L 340.536146 -115.289913 
L 340.457394 -113.597077 
L 340.324383 -111.904241 
L 340.167937 -110.211405 
L 340.029703 -108.518569 
L 339.931234 -106.825733 
L 339.862664 -105.132897 
L 339.795617 -103.440061 
L 339.70619 -101.747225 
L 339.589671 -100.054389 
L 339.459911 -98.361553 
L 339.339543 -96.668717 
L 339.250165 -94.975881 
L 339.205758 -93.283045 
L 339.207949 -91.590209 
L 339.243079 -89.897372 
L 339.28424 -88.204536 
L 339.300772 -86.5117 
L 339.272081 -84.818864 
L 339.197482 -83.126028 
L 339.09498 -81.433192 
L 338.989849 -79.740356 
L 338.901472 -78.04752 
L 338.837036 -76.354684 
L 338.793918 -74.661848 
L 338.765993 -72.969012 
L 338.748105 -71.276176 
L 338.736667 -69.58334 
L 338.728332 -67.890504 
L 338.719557 -66.197668 
L 338.707827 -64.504832 
L 338.693092 -62.811996 
L 338.677601 -61.11916 
L 338.663994 -59.426324 
L 338.65332 -57.733488 
L 338.644843 -56.040652 
L 338.637621 -54.347816 
L 338.631963 -52.65498 
L 338.629035 -50.962144 
L 338.629042 -49.269308 
L 338.630055 -47.576472 
L 338.628932 -45.883636 
z
" id="m8069f6eb1e" style="stroke:#3f3f3f;stroke-width:1.5;"/>
    </defs>
    <g clip-path="url(#pe8a54969b8)">
     <use style="fill:#e1812c;stroke:#3f3f3f;stroke-width:1.5;" x="0" xlink:href="#m8069f6eb1e" y="288"/>
    </g>
   </g>
   <g id="patch_3">
    <path clip-path="url(#pe8a54969b8)" d="M 137.7 23.84146 
L 137.7 23.84146 
L 137.7 23.84146 
L 137.7 23.84146 
z
" style="fill:#3274a1;stroke:#3f3f3f;stroke-linejoin:miter;stroke-width:0.75;"/>
   </g>
   <g id="patch_4">
    <path clip-path="url(#pe8a54969b8)" d="M 137.7 23.84146 
L 137.7 23.84146 
L 137.7 23.84146 
L 137.7 23.84146 
z
" style="fill:#e1812c;stroke:#3f3f3f;stroke-linejoin:miter;stroke-width:0.75;"/>
   </g>
   <g id="matplotlib.axis_1">
    <g id="xtick_1">
     <g id="line2d_1">
      <defs>
       <path d="M 0 0 
L 0 3.5 
" id="mfa17b0483d" style="stroke:#000000;stroke-width:0.8;"/>
      </defs>
      <g>
       <use style="stroke:#000000;stroke-width:0.8;" x="137.7" xlink:href="#mfa17b0483d" y="252"/>
      </g>
     </g>
     <g id="text_1">
      <!-- Z_2_ns -->
      <g transform="translate(120.320312 266.421875)scale(0.1 -0.1)">
       <defs>
        <path d="M 5.609375 72.90625 
L 62.890625 72.90625 
L 62.890625 65.375 
L 16.796875 8.296875 
L 64.015625 8.296875 
L 64.015625 0 
L 4.5 0 
L 4.5 7.515625 
L 50.59375 64.59375 
L 5.609375 64.59375 
z
" id="DejaVuSans-90"/>
        <path d="M 50.984375 -16.609375 
L 50.984375 -23.578125 
L -0.984375 -23.578125 
L -0.984375 -16.609375 
z
" id="DejaVuSans-95"/>
        <path d="M 19.1875 8.296875 
L 53.609375 8.296875 
L 53.609375 0 
L 7.328125 0 
L 7.328125 8.296875 
Q 12.9375 14.109375 22.625 23.890625 
Q 32.328125 33.6875 34.8125 36.53125 
Q 39.546875 41.84375 41.421875 45.53125 
Q 43.3125 49.21875 43.3125 52.78125 
Q 43.3125 58.59375 39.234375 62.25 
Q 35.15625 65.921875 28.609375 65.921875 
Q 23.96875 65.921875 18.8125 64.3125 
Q 13.671875 62.703125 7.8125 59.421875 
L 7.8125 69.390625 
Q 13.765625 71.78125 18.9375 73 
Q 24.125 74.21875 28.421875 74.21875 
Q 39.75 74.21875 46.484375 68.546875 
Q 53.21875 62.890625 53.21875 53.421875 
Q 53.21875 48.921875 51.53125 44.890625 
Q 49.859375 40.875 45.40625 35.40625 
Q 44.1875 33.984375 37.640625 27.21875 
Q 31.109375 20.453125 19.1875 8.296875 
z
" id="DejaVuSans-50"/>
        <path d="M 54.890625 33.015625 
L 54.890625 0 
L 45.90625 0 
L 45.90625 32.71875 
Q 45.90625 40.484375 42.875 44.328125 
Q 39.84375 48.1875 33.796875 48.1875 
Q 26.515625 48.1875 22.3125 43.546875 
Q 18.109375 38.921875 18.109375 30.90625 
L 18.109375 0 
L 9.078125 0 
L 9.078125 54.6875 
L 18.109375 54.6875 
L 18.109375 46.1875 
Q 21.34375 51.125 25.703125 53.5625 
Q 30.078125 56 35.796875 56 
Q 45.21875 56 50.046875 50.171875 
Q 54.890625 44.34375 54.890625 33.015625 
z
" id="DejaVuSans-110"/>
        <path d="M 44.28125 53.078125 
L 44.28125 44.578125 
Q 40.484375 46.53125 36.375 47.5 
Q 32.28125 48.484375 27.875 48.484375 
Q 21.1875 48.484375 17.84375 46.4375 
Q 14.5 44.390625 14.5 40.28125 
Q 14.5 37.15625 16.890625 35.375 
Q 19.28125 33.59375 26.515625 31.984375 
L 29.59375 31.296875 
Q 39.15625 29.25 43.1875 25.515625 
Q 47.21875 21.78125 47.21875 15.09375 
Q 47.21875 7.46875 41.1875 3.015625 
Q 35.15625 -1.421875 24.609375 -1.421875 
Q 20.21875 -1.421875 15.453125 -0.5625 
Q 10.6875 0.296875 5.421875 2 
L 5.421875 11.28125 
Q 10.40625 8.6875 15.234375 7.390625 
Q 20.0625 6.109375 24.8125 6.109375 
Q 31.15625 6.109375 34.5625 8.28125 
Q 37.984375 10.453125 37.984375 14.40625 
Q 37.984375 18.0625 35.515625 20.015625 
Q 33.0625 21.96875 24.703125 23.78125 
L 21.578125 24.515625 
Q 13.234375 26.265625 9.515625 29.90625 
Q 5.8125 33.546875 5.8125 39.890625 
Q 5.8125 47.609375 11.28125 51.796875 
Q 16.75 56 26.8125 56 
Q 31.78125 56 36.171875 55.265625 
Q 40.578125 54.546875 44.28125 53.078125 
z
" id="DejaVuSans-115"/>
       </defs>
       <use xlink:href="#DejaVuSans-90"/>
       <use x="68.505859" xlink:href="#DejaVuSans-95"/>
       <use x="118.505859" xlink:href="#DejaVuSans-50"/>
       <use x="182.128906" xlink:href="#DejaVuSans-95"/>
       <use x="232.128906" xlink:href="#DejaVuSans-110"/>
       <use x="295.507812" xlink:href="#DejaVuSans-115"/>
      </g>
     </g>
    </g>
    <g id="xtick_2">
     <g id="line2d_2">
      <g>
       <use style="stroke:#000000;stroke-width:0.8;" x="305.1" xlink:href="#mfa17b0483d" y="252"/>
      </g>
     </g>
     <g id="text_2">
      <!-- Z_3_ns -->
      <g transform="translate(287.720313 266.421875)scale(0.1 -0.1)">
       <defs>
        <path d="M 40.578125 39.3125 
Q 47.65625 37.796875 51.625 33 
Q 55.609375 28.21875 55.609375 21.1875 
Q 55.609375 10.40625 48.1875 4.484375 
Q 40.765625 -1.421875 27.09375 -1.421875 
Q 22.515625 -1.421875 17.65625 -0.515625 
Q 12.796875 0.390625 7.625 2.203125 
L 7.625 11.71875 
Q 11.71875 9.328125 16.59375 8.109375 
Q 21.484375 6.890625 26.8125 6.890625 
Q 36.078125 6.890625 40.9375 10.546875 
Q 45.796875 14.203125 45.796875 21.1875 
Q 45.796875 27.640625 41.28125 31.265625 
Q 36.765625 34.90625 28.71875 34.90625 
L 20.21875 34.90625 
L 20.21875 43.015625 
L 29.109375 43.015625 
Q 36.375 43.015625 40.234375 45.921875 
Q 44.09375 48.828125 44.09375 54.296875 
Q 44.09375 59.90625 40.109375 62.90625 
Q 36.140625 65.921875 28.71875 65.921875 
Q 24.65625 65.921875 20.015625 65.03125 
Q 15.375 64.15625 9.8125 62.3125 
L 9.8125 71.09375 
Q 15.4375 72.65625 20.34375 73.4375 
Q 25.25 74.21875 29.59375 74.21875 
Q 40.828125 74.21875 47.359375 69.109375 
Q 53.90625 64.015625 53.90625 55.328125 
Q 53.90625 49.265625 50.4375 45.09375 
Q 46.96875 40.921875 40.578125 39.3125 
z
" id="DejaVuSans-51"/>
       </defs>
       <use xlink:href="#DejaVuSans-90"/>
       <use x="68.505859" xlink:href="#DejaVuSans-95"/>
       <use x="118.505859" xlink:href="#DejaVuSans-51"/>
       <use x="182.128906" xlink:href="#DejaVuSans-95"/>
       <use x="232.128906" xlink:href="#DejaVuSans-110"/>
       <use x="295.507812" xlink:href="#DejaVuSans-115"/>
      </g>
     </g>
    </g>
    <g id="text_3">
     <!-- set -->
     <g transform="translate(213.758594 280.378125)scale(0.1 -0.1)">
      <defs>
       <path d="M 56.203125 29.59375 
L 56.203125 25.203125 
L 14.890625 25.203125 
Q 15.484375 15.921875 20.484375 11.0625 
Q 25.484375 6.203125 34.421875 6.203125 
Q 39.59375 6.203125 44.453125 7.46875 
Q 49.3125 8.734375 54.109375 11.28125 
L 54.109375 2.78125 
Q 49.265625 0.734375 44.1875 -0.34375 
Q 39.109375 -1.421875 33.890625 -1.421875 
Q 20.796875 -1.421875 13.15625 6.1875 
Q 5.515625 13.8125 5.515625 26.8125 
Q 5.515625 40.234375 12.765625 48.109375 
Q 20.015625 56 32.328125 56 
Q 43.359375 56 49.78125 48.890625 
Q 56.203125 41.796875 56.203125 29.59375 
z
M 47.21875 32.234375 
Q 47.125 39.59375 43.09375 43.984375 
Q 39.0625 48.390625 32.421875 48.390625 
Q 24.90625 48.390625 20.390625 44.140625 
Q 15.875 39.890625 15.1875 32.171875 
z
" id="DejaVuSans-101"/>
       <path d="M 18.3125 70.21875 
L 18.3125 54.6875 
L 36.8125 54.6875 
L 36.8125 47.703125 
L 18.3125 47.703125 
L 18.3125 18.015625 
Q 18.3125 11.328125 20.140625 9.421875 
Q 21.96875 7.515625 27.59375 7.515625 
L 36.8125 7.515625 
L 36.8125 0 
L 27.59375 0 
Q 17.1875 0 13.234375 3.875 
Q 9.28125 7.765625 9.28125 18.015625 
L 9.28125 47.703125 
L 2.6875 47.703125 
L 2.6875 54.6875 
L 9.28125 54.6875 
L 9.28125 70.21875 
z
" id="DejaVuSans-116"/>
      </defs>
      <use xlink:href="#DejaVuSans-115"/>
      <use x="52.099609" xlink:href="#DejaVuSans-101"/>
      <use x="113.623047" xlink:href="#DejaVuSans-116"/>
     </g>
    </g>
   </g>
   <g id="matplotlib.axis_2">
    <g id="ytick_1">
     <g id="line2d_3">
      <defs>
       <path d="M 0 0 
L -3.5 0 
" id="m9a337b3968" style="stroke:#000000;stroke-width:0.8;"/>
      </defs>
      <g>
       <use style="stroke:#000000;stroke-width:0.8;" x="54" xlink:href="#m9a337b3968" y="237.367386"/>
      </g>
     </g>
     <g id="text_4">
      <!-- −100 -->
      <g transform="translate(19.532812 241.166605)scale(0.1 -0.1)">
       <defs>
        <path d="M 10.59375 35.5 
L 73.1875 35.5 
L 73.1875 27.203125 
L 10.59375 27.203125 
z
" id="DejaVuSans-8722"/>
        <path d="M 12.40625 8.296875 
L 28.515625 8.296875 
L 28.515625 63.921875 
L 10.984375 60.40625 
L 10.984375 69.390625 
L 28.421875 72.90625 
L 38.28125 72.90625 
L 38.28125 8.296875 
L 54.390625 8.296875 
L 54.390625 0 
L 12.40625 0 
z
" id="DejaVuSans-49"/>
        <path d="M 31.78125 66.40625 
Q 24.171875 66.40625 20.328125 58.90625 
Q 16.5 51.421875 16.5 36.375 
Q 16.5 21.390625 20.328125 13.890625 
Q 24.171875 6.390625 31.78125 6.390625 
Q 39.453125 6.390625 43.28125 13.890625 
Q 47.125 21.390625 47.125 36.375 
Q 47.125 51.421875 43.28125 58.90625 
Q 39.453125 66.40625 31.78125 66.40625 
z
M 31.78125 74.21875 
Q 44.046875 74.21875 50.515625 64.515625 
Q 56.984375 54.828125 56.984375 36.375 
Q 56.984375 17.96875 50.515625 8.265625 
Q 44.046875 -1.421875 31.78125 -1.421875 
Q 19.53125 -1.421875 13.0625 8.265625 
Q 6.59375 17.96875 6.59375 36.375 
Q 6.59375 54.828125 13.0625 64.515625 
Q 19.53125 74.21875 31.78125 74.21875 
z
" id="DejaVuSans-48"/>
       </defs>
       <use xlink:href="#DejaVuSans-8722"/>
       <use x="83.789062" xlink:href="#DejaVuSans-49"/>
       <use x="147.412109" xlink:href="#DejaVuSans-48"/>
       <use x="211.035156" xlink:href="#DejaVuSans-48"/>
      </g>
     </g>
    </g>
    <g id="ytick_2">
     <g id="line2d_4">
      <g>
       <use style="stroke:#000000;stroke-width:0.8;" x="54" xlink:href="#m9a337b3968" y="194.662201"/>
      </g>
     </g>
     <g id="text_5">
      <!-- −80 -->
      <g transform="translate(25.895312 198.46142)scale(0.1 -0.1)">
       <defs>
        <path d="M 31.78125 34.625 
Q 24.75 34.625 20.71875 30.859375 
Q 16.703125 27.09375 16.703125 20.515625 
Q 16.703125 13.921875 20.71875 10.15625 
Q 24.75 6.390625 31.78125 6.390625 
Q 38.8125 6.390625 42.859375 10.171875 
Q 46.921875 13.96875 46.921875 20.515625 
Q 46.921875 27.09375 42.890625 30.859375 
Q 38.875 34.625 31.78125 34.625 
z
M 21.921875 38.8125 
Q 15.578125 40.375 12.03125 44.71875 
Q 8.5 49.078125 8.5 55.328125 
Q 8.5 64.0625 14.71875 69.140625 
Q 20.953125 74.21875 31.78125 74.21875 
Q 42.671875 74.21875 48.875 69.140625 
Q 55.078125 64.0625 55.078125 55.328125 
Q 55.078125 49.078125 51.53125 44.71875 
Q 48 40.375 41.703125 38.8125 
Q 48.828125 37.15625 52.796875 32.3125 
Q 56.78125 27.484375 56.78125 20.515625 
Q 56.78125 9.90625 50.3125 4.234375 
Q 43.84375 -1.421875 31.78125 -1.421875 
Q 19.734375 -1.421875 13.25 4.234375 
Q 6.78125 9.90625 6.78125 20.515625 
Q 6.78125 27.484375 10.78125 32.3125 
Q 14.796875 37.15625 21.921875 38.8125 
z
M 18.3125 54.390625 
Q 18.3125 48.734375 21.84375 45.5625 
Q 25.390625 42.390625 31.78125 42.390625 
Q 38.140625 42.390625 41.71875 45.5625 
Q 45.3125 48.734375 45.3125 54.390625 
Q 45.3125 60.0625 41.71875 63.234375 
Q 38.140625 66.40625 31.78125 66.40625 
Q 25.390625 66.40625 21.84375 63.234375 
Q 18.3125 60.0625 18.3125 54.390625 
z
" id="DejaVuSans-56"/>
       </defs>
       <use xlink:href="#DejaVuSans-8722"/>
       <use x="83.789062" xlink:href="#DejaVuSans-56"/>
       <use x="147.412109" xlink:href="#DejaVuSans-48"/>
      </g>
     </g>
    </g>
    <g id="ytick_3">
     <g id="line2d_5">
      <g>
       <use style="stroke:#000000;stroke-width:0.8;" x="54" xlink:href="#m9a337b3968" y="151.957016"/>
      </g>
     </g>
     <g id="text_6">
      <!-- −60 -->
      <g transform="translate(25.895312 155.756235)scale(0.1 -0.1)">
       <defs>
        <path d="M 33.015625 40.375 
Q 26.375 40.375 22.484375 35.828125 
Q 18.609375 31.296875 18.609375 23.390625 
Q 18.609375 15.53125 22.484375 10.953125 
Q 26.375 6.390625 33.015625 6.390625 
Q 39.65625 6.390625 43.53125 10.953125 
Q 47.40625 15.53125 47.40625 23.390625 
Q 47.40625 31.296875 43.53125 35.828125 
Q 39.65625 40.375 33.015625 40.375 
z
M 52.59375 71.296875 
L 52.59375 62.3125 
Q 48.875 64.0625 45.09375 64.984375 
Q 41.3125 65.921875 37.59375 65.921875 
Q 27.828125 65.921875 22.671875 59.328125 
Q 17.53125 52.734375 16.796875 39.40625 
Q 19.671875 43.65625 24.015625 45.921875 
Q 28.375 48.1875 33.59375 48.1875 
Q 44.578125 48.1875 50.953125 41.515625 
Q 57.328125 34.859375 57.328125 23.390625 
Q 57.328125 12.15625 50.6875 5.359375 
Q 44.046875 -1.421875 33.015625 -1.421875 
Q 20.359375 -1.421875 13.671875 8.265625 
Q 6.984375 17.96875 6.984375 36.375 
Q 6.984375 53.65625 15.1875 63.9375 
Q 23.390625 74.21875 37.203125 74.21875 
Q 40.921875 74.21875 44.703125 73.484375 
Q 48.484375 72.75 52.59375 71.296875 
z
" id="DejaVuSans-54"/>
       </defs>
       <use xlink:href="#DejaVuSans-8722"/>
       <use x="83.789062" xlink:href="#DejaVuSans-54"/>
       <use x="147.412109" xlink:href="#DejaVuSans-48"/>
      </g>
     </g>
    </g>
    <g id="ytick_4">
     <g id="line2d_6">
      <g>
       <use style="stroke:#000000;stroke-width:0.8;" x="54" xlink:href="#m9a337b3968" y="109.251831"/>
      </g>
     </g>
     <g id="text_7">
      <!-- −40 -->
      <g transform="translate(25.895312 113.051049)scale(0.1 -0.1)">
       <defs>
        <path d="M 37.796875 64.3125 
L 12.890625 25.390625 
L 37.796875 25.390625 
z
M 35.203125 72.90625 
L 47.609375 72.90625 
L 47.609375 25.390625 
L 58.015625 25.390625 
L 58.015625 17.1875 
L 47.609375 17.1875 
L 47.609375 0 
L 37.796875 0 
L 37.796875 17.1875 
L 4.890625 17.1875 
L 4.890625 26.703125 
z
" id="DejaVuSans-52"/>
       </defs>
       <use xlink:href="#DejaVuSans-8722"/>
       <use x="83.789062" xlink:href="#DejaVuSans-52"/>
       <use x="147.412109" xlink:href="#DejaVuSans-48"/>
      </g>
     </g>
    </g>
    <g id="ytick_5">
     <g id="line2d_7">
      <g>
       <use style="stroke:#000000;stroke-width:0.8;" x="54" xlink:href="#m9a337b3968" y="66.546645"/>
      </g>
     </g>
     <g id="text_8">
      <!-- −20 -->
      <g transform="translate(25.895312 70.345864)scale(0.1 -0.1)">
       <use xlink:href="#DejaVuSans-8722"/>
       <use x="83.789062" xlink:href="#DejaVuSans-50"/>
       <use x="147.412109" xlink:href="#DejaVuSans-48"/>
      </g>
     </g>
    </g>
    <g id="text_9">
     <!-- value -->
     <g transform="translate(13.453125 156.937813)rotate(-90)scale(0.1 -0.1)">
      <defs>
       <path d="M 2.984375 54.6875 
L 12.5 54.6875 
L 29.59375 8.796875 
L 46.6875 54.6875 
L 56.203125 54.6875 
L 35.6875 0 
L 23.484375 0 
z
" id="DejaVuSans-118"/>
       <path d="M 34.28125 27.484375 
Q 23.390625 27.484375 19.1875 25 
Q 14.984375 22.515625 14.984375 16.5 
Q 14.984375 11.71875 18.140625 8.90625 
Q 21.296875 6.109375 26.703125 6.109375 
Q 34.1875 6.109375 38.703125 11.40625 
Q 43.21875 16.703125 43.21875 25.484375 
L 43.21875 27.484375 
z
M 52.203125 31.203125 
L 52.203125 0 
L 43.21875 0 
L 43.21875 8.296875 
Q 40.140625 3.328125 35.546875 0.953125 
Q 30.953125 -1.421875 24.3125 -1.421875 
Q 15.921875 -1.421875 10.953125 3.296875 
Q 6 8.015625 6 15.921875 
Q 6 25.140625 12.171875 29.828125 
Q 18.359375 34.515625 30.609375 34.515625 
L 43.21875 34.515625 
L 43.21875 35.40625 
Q 43.21875 41.609375 39.140625 45 
Q 35.0625 48.390625 27.6875 48.390625 
Q 23 48.390625 18.546875 47.265625 
Q 14.109375 46.140625 10.015625 43.890625 
L 10.015625 52.203125 
Q 14.9375 54.109375 19.578125 55.046875 
Q 24.21875 56 28.609375 56 
Q 40.484375 56 46.34375 49.84375 
Q 52.203125 43.703125 52.203125 31.203125 
z
" id="DejaVuSans-97"/>
       <path d="M 9.421875 75.984375 
L 18.40625 75.984375 
L 18.40625 0 
L 9.421875 0 
z
" id="DejaVuSans-108"/>
       <path d="M 8.5 21.578125 
L 8.5 54.6875 
L 17.484375 54.6875 
L 17.484375 21.921875 
Q 17.484375 14.15625 20.5 10.265625 
Q 23.53125 6.390625 29.59375 6.390625 
Q 36.859375 6.390625 41.078125 11.03125 
Q 45.3125 15.671875 45.3125 23.6875 
L 45.3125 54.6875 
L 54.296875 54.6875 
L 54.296875 0 
L 45.3125 0 
L 45.3125 8.40625 
Q 42.046875 3.421875 37.71875 1 
Q 33.40625 -1.421875 27.6875 -1.421875 
Q 18.265625 -1.421875 13.375 4.4375 
Q 8.5 10.296875 8.5 21.578125 
z
M 31.109375 56 
z
" id="DejaVuSans-117"/>
      </defs>
      <use xlink:href="#DejaVuSans-118"/>
      <use x="59.179688" xlink:href="#DejaVuSans-97"/>
      <use x="120.458984" xlink:href="#DejaVuSans-108"/>
      <use x="148.242188" xlink:href="#DejaVuSans-117"/>
      <use x="211.621094" xlink:href="#DejaVuSans-101"/>
     </g>
    </g>
   </g>
   <g id="line2d_8">
    <path clip-path="url(#pe8a54969b8)" d="M 104.22 143.71998 
L 104.22 44.443636 
" style="fill:none;stroke:#3f3f3f;stroke-linecap:square;stroke-width:1.5;"/>
   </g>
   <g id="line2d_9">
    <path clip-path="url(#pe8a54969b8)" d="M 104.22 101.81289 
L 104.22 73.852325 
" style="fill:none;stroke:#3f3f3f;stroke-linecap:square;stroke-width:4.5;"/>
   </g>
   <g id="line2d_10">
    <path clip-path="url(#pe8a54969b8)" d="M 338.58 165.864596 
L 338.58 74.525599 
" style="fill:none;stroke:#3f3f3f;stroke-linecap:square;stroke-width:1.5;"/>
   </g>
   <g id="line2d_11">
    <path clip-path="url(#pe8a54969b8)" d="M 338.58 127.437806 
L 338.58 101.77073 
" style="fill:none;stroke:#3f3f3f;stroke-linecap:square;stroke-width:4.5;"/>
   </g>
   <g id="patch_5">
    <path d="M 54 252 
L 54 34.56 
" style="fill:none;stroke:#000000;stroke-linecap:square;stroke-linejoin:miter;stroke-width:0.8;"/>
   </g>
   <g id="patch_6">
    <path d="M 388.8 252 
L 388.8 34.56 
" style="fill:none;stroke:#000000;stroke-linecap:square;stroke-linejoin:miter;stroke-width:0.8;"/>
   </g>
   <g id="patch_7">
    <path d="M 54 252 
L 388.8 252 
" style="fill:none;stroke:#000000;stroke-linecap:square;stroke-linejoin:miter;stroke-width:0.8;"/>
   </g>
   <g id="patch_8">
    <path d="M 54 34.56 
L 388.8 34.56 
" style="fill:none;stroke:#000000;stroke-linecap:square;stroke-linejoin:miter;stroke-width:0.8;"/>
   </g>
   <g id="PathCollection_1">
    <defs>
     <path d="M 0 1.5 
C 0.397805 1.5 0.77937 1.341951 1.06066 1.06066 
C 1.341951 0.77937 1.5 0.397805 1.5 0 
C 1.5 -0.397805 1.341951 -0.77937 1.06066 -1.06066 
C 0.77937 -1.341951 0.397805 -1.5 0 -1.5 
C -0.397805 -1.5 -0.77937 -1.341951 -1.06066 -1.06066 
C -1.341951 -0.77937 -1.5 -0.397805 -1.5 0 
C -1.5 0.397805 -1.341951 0.77937 -1.06066 1.06066 
C -0.77937 1.341951 -0.397805 1.5 0 1.5 
z
" id="mf5ef9e70b5" style="stroke:#3f3f3f;"/>
    </defs>
    <g clip-path="url(#pe8a54969b8)">
     <use style="fill:#ffffff;stroke:#3f3f3f;" x="104.22" xlink:href="#mf5ef9e70b5" y="86.186882"/>
    </g>
   </g>
   <g id="PathCollection_2">
    <g clip-path="url(#pe8a54969b8)">
     <use style="fill:#ffffff;stroke:#3f3f3f;" x="338.58" xlink:href="#mf5ef9e70b5" y="112.98267"/>
    </g>
   </g>
   <g id="legend_1">
    <g id="patch_9">
     <path d="M 61 247 
L 127.759375 247 
Q 129.759375 247 129.759375 245 
L 129.759375 201.409375 
Q 129.759375 199.409375 127.759375 199.409375 
L 61 199.409375 
Q 59 199.409375 59 201.409375 
L 59 245 
Q 59 247 61 247 
z
" style="fill:#ffffff;opacity:0.8;stroke:#cccccc;stroke-linejoin:miter;"/>
    </g>
    <g id="text_10">
     <!-- set -->
     <g transform="translate(86.738281 211.007812)scale(0.1 -0.1)">
      <use xlink:href="#DejaVuSans-115"/>
      <use x="52.099609" xlink:href="#DejaVuSans-101"/>
      <use x="113.623047" xlink:href="#DejaVuSans-116"/>
     </g>
    </g>
    <g id="patch_10">
     <path d="M 63 225.685937 
L 83 225.685937 
L 83 218.685937 
L 63 218.685937 
z
" style="fill:#3274a1;stroke:#3f3f3f;stroke-linejoin:miter;stroke-width:0.75;"/>
    </g>
    <g id="text_11">
     <!-- Z_2_ns -->
     <g transform="translate(91 225.685937)scale(0.1 -0.1)">
      <use xlink:href="#DejaVuSans-90"/>
      <use x="68.505859" xlink:href="#DejaVuSans-95"/>
      <use x="118.505859" xlink:href="#DejaVuSans-50"/>
      <use x="182.128906" xlink:href="#DejaVuSans-95"/>
      <use x="232.128906" xlink:href="#DejaVuSans-110"/>
      <use x="295.507812" xlink:href="#DejaVuSans-115"/>
     </g>
    </g>
    <g id="patch_11">
     <path d="M 63 240.642188 
L 83 240.642188 
L 83 233.642188 
L 63 233.642188 
z
" style="fill:#e1812c;stroke:#3f3f3f;stroke-linejoin:miter;stroke-width:0.75;"/>
    </g>
    <g id="text_12">
     <!-- Z_3_ns -->
     <g transform="translate(91 240.642188)scale(0.1 -0.1)">
      <use xlink:href="#DejaVuSans-90"/>
      <use x="68.505859" xlink:href="#DejaVuSans-95"/>
      <use x="118.505859" xlink:href="#DejaVuSans-51"/>
      <use x="182.128906" xlink:href="#DejaVuSans-95"/>
      <use x="232.128906" xlink:href="#DejaVuSans-110"/>
      <use x="295.507812" xlink:href="#DejaVuSans-115"/>
     </g>
    </g>
   </g>
  </g>
 </g>
 <defs>
  <clipPath id="pe8a54969b8">
   <rect height="217.44" width="334.8" x="54" y="34.56"/>
  </clipPath>
 </defs>
</svg>
