<?xml version="1.0" encoding="utf-8" standalone="no"?>
<!DOCTYPE svg PUBLIC "-//W3C//DTD SVG 1.1//EN"
  "http://www.w3.org/Graphics/SVG/1.1/DTD/svg11.dtd">
<!-- Created with matplotlib (https://matplotlib.org/) -->
<svg height="288pt" version="1.1" viewBox="0 0 432 288" width="432pt" xmlns="http://www.w3.org/2000/svg" xmlns:xlink="http://www.w3.org/1999/xlink">
 <metadata>
  <rdf:RDF xmlns:cc="http://creativecommons.org/ns#" xmlns:dc="http://purl.org/dc/elements/1.1/" xmlns:rdf="http://www.w3.org/1999/02/22-rdf-syntax-ns#">
   <cc:Work>
    <dc:type rdf:resource="http://purl.org/dc/dcmitype/StillImage"/>
    <dc:date>2021-07-09T23:57:29.281397</dc:date>
    <dc:format>image/svg+xml</dc:format>
    <dc:creator>
     <cc:Agent>
      <dc:title>Matplotlib v3.3.4, https://matplotlib.org/</dc:title>
     </cc:Agent>
    </dc:creator>
   </cc:Work>
  </rdf:RDF>
 </metadata>
 <defs>
  <style type="text/css">*{stroke-linecap:butt;stroke-linejoin:round;}</style>
 </defs>
 <g id="figure_1">
  <g id="patch_1">
   <path d="M 0 288 
L 432 288 
L 432 0 
L 0 0 
z
" style="fill:#ffffff;"/>
  </g>
  <g id="axes_1">
   <g id="patch_2">
    <path d="M 54 252 
L 388.8 252 
L 388.8 34.56 
L 54 34.56 
z
" style="fill:#ffffff;"/>
   </g>
   <g id="PolyCollection_1">
    <defs>
     <path d="M 80.112801 -58.521639 
L 79.967199 -58.521639 
L 79.939951 -60.390677 
L 79.90238 -62.259714 
L 79.850601 -64.128752 
L 79.780563 -65.99779 
L 79.688769 -67.866827 
L 79.572844 -69.735865 
L 79.431624 -71.604903 
L 79.264546 -73.47394 
L 79.070457 -75.342978 
L 78.846316 -77.212015 
L 78.586406 -79.081053 
L 78.28259 -80.950091 
L 77.92591 -82.819128 
L 77.50936 -84.688166 
L 77.031272 -86.557204 
L 76.498158 -88.426241 
L 75.925621 -90.295279 
L 75.336256 -92.164316 
L 74.754495 -94.033354 
L 74.199657 -95.902392 
L 73.67948 -97.771429 
L 73.186571 -99.640467 
L 72.699596 -101.509504 
L 72.189731 -103.378542 
L 71.631054 -105.24758 
L 71.011461 -107.116617 
L 70.339553 -108.985655 
L 69.643802 -110.854693 
L 68.963582 -112.72373 
L 68.335842 -114.592768 
L 67.783725 -116.461805 
L 67.312467 -118.330843 
L 66.913902 -120.199881 
L 66.57614 -122.068918 
L 66.292417 -123.937956 
L 66.064001 -125.806994 
L 65.895761 -127.676031 
L 65.787347 -129.545069 
L 65.725635 -131.414106 
L 65.683851 -133.283144 
L 65.629555 -135.152182 
L 65.538944 -137.021219 
L 65.410768 -138.890257 
L 65.272095 -140.759295 
L 65.171302 -142.628332 
L 65.16 -144.49737 
L 65.271871 -146.366407 
L 65.508643 -148.235445 
L 65.840022 -150.104483 
L 66.21712 -151.97352 
L 66.592063 -153.842558 
L 66.933994 -155.711595 
L 67.234581 -157.580633 
L 67.502318 -159.449671 
L 67.75077 -161.318708 
L 67.988347 -163.187746 
L 68.215334 -165.056784 
L 68.428808 -166.925821 
L 68.631022 -168.794859 
L 68.834869 -170.663896 
L 69.062349 -172.532934 
L 69.33684 -174.401972 
L 69.673852 -176.271009 
L 70.07532 -178.140047 
L 70.529797 -180.009085 
L 71.017349 -181.878122 
L 71.516113 -183.74716 
L 72.007784 -185.616197 
L 72.480818 -187.485235 
L 72.931406 -189.354273 
L 73.362756 -191.22331 
L 73.783114 -193.092348 
L 74.202776 -194.961386 
L 74.630586 -196.830423 
L 75.070799 -198.699461 
L 75.521445 -200.568498 
L 75.974914 -202.437536 
L 76.420443 -204.306574 
L 76.847222 -206.175611 
L 77.246601 -208.044649 
L 77.612747 -209.913686 
L 77.942274 -211.782724 
L 78.233836 -213.651762 
L 78.488201 -215.520799 
L 78.708342 -217.389837 
L 78.89879 -219.258875 
L 79.064104 -221.127912 
L 79.207288 -222.99695 
L 79.329296 -224.865987 
L 79.430105 -226.735025 
L 79.510665 -228.604063 
L 79.574343 -230.4731 
L 79.626823 -232.342138 
L 79.674457 -234.211176 
L 79.722089 -236.080213 
L 79.771621 -237.949251 
L 79.821999 -239.818288 
L 79.870412 -241.687326 
L 79.913858 -243.556364 
L 80.166142 -243.556364 
L 80.166142 -243.556364 
L 80.209588 -241.687326 
L 80.258001 -239.818288 
L 80.308379 -237.949251 
L 80.357911 -236.080213 
L 80.405543 -234.211176 
L 80.453177 -232.342138 
L 80.505657 -230.4731 
L 80.569335 -228.604063 
L 80.649895 -226.735025 
L 80.750704 -224.865987 
L 80.872712 -222.99695 
L 81.015896 -221.127912 
L 81.18121 -219.258875 
L 81.371658 -217.389837 
L 81.591799 -215.520799 
L 81.846164 -213.651762 
L 82.137726 -211.782724 
L 82.467253 -209.913686 
L 82.833399 -208.044649 
L 83.232778 -206.175611 
L 83.659557 -204.306574 
L 84.105086 -202.437536 
L 84.558555 -200.568498 
L 85.009201 -198.699461 
L 85.449414 -196.830423 
L 85.877224 -194.961386 
L 86.296886 -193.092348 
L 86.717244 -191.22331 
L 87.148594 -189.354273 
L 87.599182 -187.485235 
L 88.072216 -185.616197 
L 88.563887 -183.74716 
L 89.062651 -181.878122 
L 89.550203 -180.009085 
L 90.00468 -178.140047 
L 90.406148 -176.271009 
L 90.74316 -174.401972 
L 91.017651 -172.532934 
L 91.245131 -170.663896 
L 91.448978 -168.794859 
L 91.651192 -166.925821 
L 91.864666 -165.056784 
L 92.091653 -163.187746 
L 92.32923 -161.318708 
L 92.577682 -159.449671 
L 92.845419 -157.580633 
L 93.146006 -155.711595 
L 93.487937 -153.842558 
L 93.86288 -151.97352 
L 94.239978 -150.104483 
L 94.571357 -148.235445 
L 94.808129 -146.366407 
L 94.92 -144.49737 
L 94.908698 -142.628332 
L 94.807905 -140.759295 
L 94.669232 -138.890257 
L 94.541056 -137.021219 
L 94.450445 -135.152182 
L 94.396149 -133.283144 
L 94.354365 -131.414106 
L 94.292653 -129.545069 
L 94.184239 -127.676031 
L 94.015999 -125.806994 
L 93.787583 -123.937956 
L 93.50386 -122.068918 
L 93.166098 -120.199881 
L 92.767533 -118.330843 
L 92.296275 -116.461805 
L 91.744158 -114.592768 
L 91.116418 -112.72373 
L 90.436198 -110.854693 
L 89.740447 -108.985655 
L 89.068539 -107.116617 
L 88.448946 -105.24758 
L 87.890269 -103.378542 
L 87.380404 -101.509504 
L 86.893429 -99.640467 
L 86.40052 -97.771429 
L 85.880343 -95.902392 
L 85.325505 -94.033354 
L 84.743744 -92.164316 
L 84.154379 -90.295279 
L 83.581842 -88.426241 
L 83.048728 -86.557204 
L 82.57064 -84.688166 
L 82.15409 -82.819128 
L 81.79741 -80.950091 
L 81.493594 -79.081053 
L 81.233684 -77.212015 
L 81.009543 -75.342978 
L 80.815454 -73.47394 
L 80.648376 -71.604903 
L 80.507156 -69.735865 
L 80.391231 -67.866827 
L 80.299437 -65.99779 
L 80.229399 -64.128752 
L 80.17762 -62.259714 
L 80.140049 -60.390677 
L 80.112801 -58.521639 
z
" id="m1a66d0447d" style="stroke:#3d3d3d;stroke-width:1.5;"/>
    </defs>
    <g clip-path="url(#pcb3bb5b196)">
     <use style="fill:#3274a1;stroke:#3d3d3d;stroke-width:1.5;" x="0" xlink:href="#m1a66d0447d" y="288"/>
    </g>
   </g>
   <g id="PolyCollection_2">
    <defs>
     <path d="M 221.766316 -66.206943 
L 221.033684 -66.206943 
L 220.920795 -67.644423 
L 220.783759 -69.081903 
L 220.621749 -70.519383 
L 220.435808 -71.956863 
L 220.229086 -73.394343 
L 220.006685 -74.831823 
L 219.775085 -76.269303 
L 219.541211 -77.706783 
L 219.311281 -79.144263 
L 219.089565 -80.581744 
L 218.877269 -82.019224 
L 218.671759 -83.456704 
L 218.466348 -84.894184 
L 218.250839 -86.331664 
L 218.012842 -87.769144 
L 217.739669 -89.206624 
L 217.420426 -90.644104 
L 217.047859 -92.081584 
L 216.619577 -93.519064 
L 216.138508 -94.956545 
L 215.612614 -96.394025 
L 215.054041 -97.831505 
L 214.477868 -99.268985 
L 213.900573 -100.706465 
L 213.338278 -102.143945 
L 212.804928 -103.581425 
L 212.310597 -105.018905 
L 211.860226 -106.456385 
L 211.453054 -107.893865 
L 211.082864 -109.331345 
L 210.738984 -110.768826 
L 210.407853 -112.206306 
L 210.074954 -113.643786 
L 209.726956 -115.081266 
L 209.353981 -116.518746 
L 208.951838 -117.956226 
L 208.523932 -119.393706 
L 208.082345 -120.831186 
L 207.647578 -122.268666 
L 207.246571 -123.706146 
L 206.909089 -125.143627 
L 206.663045 -126.581107 
L 206.529721 -128.018587 
L 206.52 -129.456067 
L 206.632469 -130.893547 
L 206.853817 -132.331027 
L 207.1614 -133.768507 
L 207.527399 -135.205987 
L 207.92364 -136.643467 
L 208.32608 -138.080947 
L 208.717979 -139.518428 
L 209.091157 -140.955908 
L 209.445216 -142.393388 
L 209.78518 -143.830868 
L 210.118472 -145.268348 
L 210.452201 -146.705828 
L 210.791445 -148.143308 
L 211.138702 -149.580788 
L 211.494158 -151.018268 
L 211.856279 -152.455748 
L 212.222311 -153.893229 
L 212.588637 -155.330709 
L 212.951174 -156.768189 
L 213.30604 -158.205669 
L 213.650529 -159.643149 
L 213.984144 -161.080629 
L 214.309288 -162.518109 
L 214.631234 -163.955589 
L 214.957249 -165.393069 
L 215.295044 -166.830549 
L 215.650964 -168.26803 
L 216.028402 -169.70551 
L 216.42683 -171.14299 
L 216.841608 -172.58047 
L 217.264567 -174.01795 
L 217.685149 -175.45543 
L 218.091878 -176.89291 
L 218.47387 -178.33039 
L 218.822176 -179.76787 
L 219.130763 -181.20535 
L 219.397013 -182.642831 
L 219.621694 -184.080311 
L 219.808463 -185.517791 
L 219.963024 -186.955271 
L 220.092129 -188.392751 
L 220.202592 -189.830231 
L 220.300473 -191.267711 
L 220.390508 -192.705191 
L 220.475837 -194.142671 
L 220.558029 -195.580151 
L 220.637367 -197.017631 
L 220.71332 -198.455112 
L 220.785086 -199.892592 
L 220.852067 -201.330072 
L 220.914155 -202.767552 
L 220.97177 -204.205032 
L 221.025677 -205.642512 
L 221.076667 -207.079992 
L 221.125241 -208.517472 
L 221.674759 -208.517472 
L 221.674759 -208.517472 
L 221.723333 -207.079992 
L 221.774323 -205.642512 
L 221.82823 -204.205032 
L 221.885845 -202.767552 
L 221.947933 -201.330072 
L 222.014914 -199.892592 
L 222.08668 -198.455112 
L 222.162633 -197.017631 
L 222.241971 -195.580151 
L 222.324163 -194.142671 
L 222.409492 -192.705191 
L 222.499527 -191.267711 
L 222.597408 -189.830231 
L 222.707871 -188.392751 
L 222.836976 -186.955271 
L 222.991537 -185.517791 
L 223.178306 -184.080311 
L 223.402987 -182.642831 
L 223.669237 -181.20535 
L 223.977824 -179.76787 
L 224.32613 -178.33039 
L 224.708122 -176.89291 
L 225.114851 -175.45543 
L 225.535433 -174.01795 
L 225.958392 -172.58047 
L 226.37317 -171.14299 
L 226.771598 -169.70551 
L 227.149036 -168.26803 
L 227.504956 -166.830549 
L 227.842751 -165.393069 
L 228.168766 -163.955589 
L 228.490712 -162.518109 
L 228.815856 -161.080629 
L 229.149471 -159.643149 
L 229.49396 -158.205669 
L 229.848826 -156.768189 
L 230.211363 -155.330709 
L 230.577689 -153.893229 
L 230.943721 -152.455748 
L 231.305842 -151.018268 
L 231.661298 -149.580788 
L 232.008555 -148.143308 
L 232.347799 -146.705828 
L 232.681528 -145.268348 
L 233.01482 -143.830868 
L 233.354784 -142.393388 
L 233.708843 -140.955908 
L 234.082021 -139.518428 
L 234.47392 -138.080947 
L 234.87636 -136.643467 
L 235.272601 -135.205987 
L 235.6386 -133.768507 
L 235.946183 -132.331027 
L 236.167531 -130.893547 
L 236.28 -129.456067 
L 236.270279 -128.018587 
L 236.136955 -126.581107 
L 235.890911 -125.143627 
L 235.553429 -123.706146 
L 235.152422 -122.268666 
L 234.717655 -120.831186 
L 234.276068 -119.393706 
L 233.848162 -117.956226 
L 233.446019 -116.518746 
L 233.073044 -115.081266 
L 232.725046 -113.643786 
L 232.392147 -112.206306 
L 232.061016 -110.768826 
L 231.717136 -109.331345 
L 231.346946 -107.893865 
L 230.939774 -106.456385 
L 230.489403 -105.018905 
L 229.995072 -103.581425 
L 229.461722 -102.143945 
L 228.899427 -100.706465 
L 228.322132 -99.268985 
L 227.745959 -97.831505 
L 227.187386 -96.394025 
L 226.661492 -94.956545 
L 226.180423 -93.519064 
L 225.752141 -92.081584 
L 225.379574 -90.644104 
L 225.060331 -89.206624 
L 224.787158 -87.769144 
L 224.549161 -86.331664 
L 224.333652 -84.894184 
L 224.128241 -83.456704 
L 223.922731 -82.019224 
L 223.710435 -80.581744 
L 223.488719 -79.144263 
L 223.258789 -77.706783 
L 223.024915 -76.269303 
L 222.793315 -74.831823 
L 222.570914 -73.394343 
L 222.364192 -71.956863 
L 222.178251 -70.519383 
L 222.016241 -69.081903 
L 221.879205 -67.644423 
L 221.766316 -66.206943 
z
" id="mff6a9f457c" style="stroke:#3d3d3d;stroke-width:1.5;"/>
    </defs>
    <g clip-path="url(#pcb3bb5b196)">
     <use style="fill:#e1812c;stroke:#3d3d3d;stroke-width:1.5;" x="0" xlink:href="#mff6a9f457c" y="288"/>
    </g>
   </g>
   <g id="PolyCollection_3">
    <defs>
     <path d="M 362.82181 -45.883636 
L 362.69819 -45.883636 
L 362.699381 -47.484439 
L 362.703257 -49.085241 
L 362.707879 -50.686043 
L 362.71043 -52.286845 
L 362.707495 -53.887648 
L 362.695408 -55.48845 
L 362.670692 -57.089252 
L 362.630618 -58.690054 
L 362.573881 -60.290857 
L 362.501187 -61.891659 
L 362.415459 -63.492461 
L 362.321341 -65.093264 
L 362.223891 -66.694066 
L 362.12674 -68.294868 
L 362.030321 -69.89567 
L 361.930861 -71.496473 
L 361.820636 -73.097275 
L 361.689527 -74.698077 
L 361.527413 -76.298879 
L 361.326682 -77.899682 
L 361.084069 -79.500484 
L 360.801321 -81.101286 
L 360.484495 -82.702088 
L 360.142075 -84.302891 
L 359.782387 -85.903693 
L 359.410977 -87.504495 
L 359.028735 -89.105298 
L 358.631401 -90.7061 
L 358.210852 -92.306902 
L 357.757939 -93.907704 
L 357.26609 -95.508507 
L 356.734391 -97.109309 
L 356.168977 -98.710111 
L 355.58214 -100.310913 
L 354.989513 -101.911716 
L 354.406537 -103.512518 
L 353.845635 -105.11332 
L 353.315128 -106.714122 
L 352.819973 -108.314925 
L 352.363483 -109.915727 
L 351.948609 -111.516529 
L 351.577581 -113.117331 
L 351.249644 -114.718134 
L 350.957917 -116.318936 
L 350.687443 -117.919738 
L 350.416472 -119.520541 
L 350.121774 -121.121343 
L 349.786784 -122.722145 
L 349.409531 -124.322947 
L 349.006867 -125.92375 
L 348.612612 -127.524552 
L 348.269648 -129.125354 
L 348.018462 -130.726156 
L 347.886177 -132.326959 
L 347.88 -133.927761 
L 347.987336 -135.528563 
L 348.182196 -137.129365 
L 348.435038 -138.730168 
L 348.721906 -140.33097 
L 349.029296 -141.931772 
L 349.353392 -143.532575 
L 349.695093 -145.133377 
L 350.05418 -146.734179 
L 350.426025 -148.334981 
L 350.802498 -149.935784 
L 351.176211 -151.536586 
L 351.545397 -153.137388 
L 351.91653 -154.73819 
L 352.303167 -156.338993 
L 352.721519 -157.939795 
L 353.184828 -159.540597 
L 353.698959 -161.141399 
L 354.260786 -162.742202 
L 354.859509 -164.343004 
L 355.479805 -165.943806 
L 356.105296 -167.544609 
L 356.721147 -169.145411 
L 357.315406 -170.746213 
L 357.879355 -172.347015 
L 358.407378 -173.947818 
L 358.896662 -175.54862 
L 359.346798 -177.149422 
L 359.759172 -178.750224 
L 360.136193 -180.351027 
L 360.480496 -181.951829 
L 360.794367 -183.552631 
L 361.079474 -185.153433 
L 361.33686 -186.754236 
L 361.567028 -188.355038 
L 361.770042 -189.95584 
L 361.945654 -191.556642 
L 362.093596 -193.157445 
L 362.214092 -194.758247 
L 362.308508 -196.359049 
L 362.379861 -197.959852 
L 362.432873 -199.560654 
L 362.473398 -201.161456 
L 362.507326 -202.762258 
L 362.539355 -204.363061 
L 362.980645 -204.363061 
L 362.980645 -204.363061 
L 363.012674 -202.762258 
L 363.046602 -201.161456 
L 363.087127 -199.560654 
L 363.140139 -197.959852 
L 363.211492 -196.359049 
L 363.305908 -194.758247 
L 363.426404 -193.157445 
L 363.574346 -191.556642 
L 363.749958 -189.95584 
L 363.952972 -188.355038 
L 364.18314 -186.754236 
L 364.440526 -185.153433 
L 364.725633 -183.552631 
L 365.039504 -181.951829 
L 365.383807 -180.351027 
L 365.760828 -178.750224 
L 366.173202 -177.149422 
L 366.623338 -175.54862 
L 367.112622 -173.947818 
L 367.640645 -172.347015 
L 368.204594 -170.746213 
L 368.798853 -169.145411 
L 369.414704 -167.544609 
L 370.040195 -165.943806 
L 370.660491 -164.343004 
L 371.259214 -162.742202 
L 371.821041 -161.141399 
L 372.335172 -159.540597 
L 372.798481 -157.939795 
L 373.216833 -156.338993 
L 373.60347 -154.73819 
L 373.974603 -153.137388 
L 374.343789 -151.536586 
L 374.717502 -149.935784 
L 375.093975 -148.334981 
L 375.46582 -146.734179 
L 375.824907 -145.133377 
L 376.166608 -143.532575 
L 376.490704 -141.931772 
L 376.798094 -140.33097 
L 377.084962 -138.730168 
L 377.337804 -137.129365 
L 377.532664 -135.528563 
L 377.64 -133.927761 
L 377.633823 -132.326959 
L 377.501538 -130.726156 
L 377.250352 -129.125354 
L 376.907388 -127.524552 
L 376.513133 -125.92375 
L 376.110469 -124.322947 
L 375.733216 -122.722145 
L 375.398226 -121.121343 
L 375.103528 -119.520541 
L 374.832557 -117.919738 
L 374.562083 -116.318936 
L 374.270356 -114.718134 
L 373.942419 -113.117331 
L 373.571391 -111.516529 
L 373.156517 -109.915727 
L 372.700027 -108.314925 
L 372.204872 -106.714122 
L 371.674365 -105.11332 
L 371.113463 -103.512518 
L 370.530487 -101.911716 
L 369.93786 -100.310913 
L 369.351023 -98.710111 
L 368.785609 -97.109309 
L 368.25391 -95.508507 
L 367.762061 -93.907704 
L 367.309148 -92.306902 
L 366.888599 -90.7061 
L 366.491265 -89.105298 
L 366.109023 -87.504495 
L 365.737613 -85.903693 
L 365.377925 -84.302891 
L 365.035505 -82.702088 
L 364.718679 -81.101286 
L 364.435931 -79.500484 
L 364.193318 -77.899682 
L 363.992587 -76.298879 
L 363.830473 -74.698077 
L 363.699364 -73.097275 
L 363.589139 -71.496473 
L 363.489679 -69.89567 
L 363.39326 -68.294868 
L 363.296109 -66.694066 
L 363.198659 -65.093264 
L 363.104541 -63.492461 
L 363.018813 -61.891659 
L 362.946119 -60.290857 
L 362.889382 -58.690054 
L 362.849308 -57.089252 
L 362.824592 -55.48845 
L 362.812505 -53.887648 
L 362.80957 -52.286845 
L 362.812121 -50.686043 
L 362.816743 -49.085241 
L 362.820619 -47.484439 
L 362.82181 -45.883636 
z
" id="m7bbf9f53c4" style="stroke:#3d3d3d;stroke-width:1.5;"/>
    </defs>
    <g clip-path="url(#pcb3bb5b196)">
     <use style="fill:#3a923a;stroke:#3d3d3d;stroke-width:1.5;" x="0" xlink:href="#m7bbf9f53c4" y="288"/>
    </g>
   </g>
   <g id="patch_3">
    <path clip-path="url(#pcb3bb5b196)" d="M 109.8 248.753033 
L 109.8 248.753033 
L 109.8 248.753033 
L 109.8 248.753033 
z
" style="fill:#3274a1;stroke:#3d3d3d;stroke-linejoin:miter;stroke-width:0.75;"/>
   </g>
   <g id="patch_4">
    <path clip-path="url(#pcb3bb5b196)" d="M 109.8 248.753033 
L 109.8 248.753033 
L 109.8 248.753033 
L 109.8 248.753033 
z
" style="fill:#e1812c;stroke:#3d3d3d;stroke-linejoin:miter;stroke-width:0.75;"/>
   </g>
   <g id="patch_5">
    <path clip-path="url(#pcb3bb5b196)" d="M 109.8 248.753033 
L 109.8 248.753033 
L 109.8 248.753033 
L 109.8 248.753033 
z
" style="fill:#3a923a;stroke:#3d3d3d;stroke-linejoin:miter;stroke-width:0.75;"/>
   </g>
   <g id="matplotlib.axis_1">
    <g id="xtick_1">
     <g id="line2d_1">
      <defs>
       <path d="M 0 0 
L 0 3.5 
" id="m92ab9fa88d" style="stroke:#000000;stroke-width:0.8;"/>
      </defs>
      <g>
       <use style="stroke:#000000;stroke-width:0.8;" x="109.8" xlink:href="#m92ab9fa88d" y="252"/>
      </g>
     </g>
     <g id="text_1">
      <!-- train -->
      <g transform="translate(98.1625 266.598437)scale(0.1 -0.1)">
       <defs>
        <path d="M 18.3125 70.21875 
L 18.3125 54.6875 
L 36.8125 54.6875 
L 36.8125 47.703125 
L 18.3125 47.703125 
L 18.3125 18.015625 
Q 18.3125 11.328125 20.140625 9.421875 
Q 21.96875 7.515625 27.59375 7.515625 
L 36.8125 7.515625 
L 36.8125 0 
L 27.59375 0 
Q 17.1875 0 13.234375 3.875 
Q 9.28125 7.765625 9.28125 18.015625 
L 9.28125 47.703125 
L 2.6875 47.703125 
L 2.6875 54.6875 
L 9.28125 54.6875 
L 9.28125 70.21875 
z
" id="DejaVuSans-116"/>
        <path d="M 41.109375 46.296875 
Q 39.59375 47.171875 37.8125 47.578125 
Q 36.03125 48 33.890625 48 
Q 26.265625 48 22.1875 43.046875 
Q 18.109375 38.09375 18.109375 28.8125 
L 18.109375 0 
L 9.078125 0 
L 9.078125 54.6875 
L 18.109375 54.6875 
L 18.109375 46.1875 
Q 20.953125 51.171875 25.484375 53.578125 
Q 30.03125 56 36.53125 56 
Q 37.453125 56 38.578125 55.875 
Q 39.703125 55.765625 41.0625 55.515625 
z
" id="DejaVuSans-114"/>
        <path d="M 34.28125 27.484375 
Q 23.390625 27.484375 19.1875 25 
Q 14.984375 22.515625 14.984375 16.5 
Q 14.984375 11.71875 18.140625 8.90625 
Q 21.296875 6.109375 26.703125 6.109375 
Q 34.1875 6.109375 38.703125 11.40625 
Q 43.21875 16.703125 43.21875 25.484375 
L 43.21875 27.484375 
z
M 52.203125 31.203125 
L 52.203125 0 
L 43.21875 0 
L 43.21875 8.296875 
Q 40.140625 3.328125 35.546875 0.953125 
Q 30.953125 -1.421875 24.3125 -1.421875 
Q 15.921875 -1.421875 10.953125 3.296875 
Q 6 8.015625 6 15.921875 
Q 6 25.140625 12.171875 29.828125 
Q 18.359375 34.515625 30.609375 34.515625 
L 43.21875 34.515625 
L 43.21875 35.40625 
Q 43.21875 41.609375 39.140625 45 
Q 35.0625 48.390625 27.6875 48.390625 
Q 23 48.390625 18.546875 47.265625 
Q 14.109375 46.140625 10.015625 43.890625 
L 10.015625 52.203125 
Q 14.9375 54.109375 19.578125 55.046875 
Q 24.21875 56 28.609375 56 
Q 40.484375 56 46.34375 49.84375 
Q 52.203125 43.703125 52.203125 31.203125 
z
" id="DejaVuSans-97"/>
        <path d="M 9.421875 54.6875 
L 18.40625 54.6875 
L 18.40625 0 
L 9.421875 0 
z
M 9.421875 75.984375 
L 18.40625 75.984375 
L 18.40625 64.59375 
L 9.421875 64.59375 
z
" id="DejaVuSans-105"/>
        <path d="M 54.890625 33.015625 
L 54.890625 0 
L 45.90625 0 
L 45.90625 32.71875 
Q 45.90625 40.484375 42.875 44.328125 
Q 39.84375 48.1875 33.796875 48.1875 
Q 26.515625 48.1875 22.3125 43.546875 
Q 18.109375 38.921875 18.109375 30.90625 
L 18.109375 0 
L 9.078125 0 
L 9.078125 54.6875 
L 18.109375 54.6875 
L 18.109375 46.1875 
Q 21.34375 51.125 25.703125 53.5625 
Q 30.078125 56 35.796875 56 
Q 45.21875 56 50.046875 50.171875 
Q 54.890625 44.34375 54.890625 33.015625 
z
" id="DejaVuSans-110"/>
       </defs>
       <use xlink:href="#DejaVuSans-116"/>
       <use x="39.208984" xlink:href="#DejaVuSans-114"/>
       <use x="80.322266" xlink:href="#DejaVuSans-97"/>
       <use x="141.601562" xlink:href="#DejaVuSans-105"/>
       <use x="169.384766" xlink:href="#DejaVuSans-110"/>
      </g>
     </g>
    </g>
    <g id="xtick_2">
     <g id="line2d_2">
      <g>
       <use style="stroke:#000000;stroke-width:0.8;" x="221.4" xlink:href="#m92ab9fa88d" y="252"/>
      </g>
     </g>
     <g id="text_2">
      <!-- val -->
      <g transform="translate(213.9875 266.598437)scale(0.1 -0.1)">
       <defs>
        <path d="M 2.984375 54.6875 
L 12.5 54.6875 
L 29.59375 8.796875 
L 46.6875 54.6875 
L 56.203125 54.6875 
L 35.6875 0 
L 23.484375 0 
z
" id="DejaVuSans-118"/>
        <path d="M 9.421875 75.984375 
L 18.40625 75.984375 
L 18.40625 0 
L 9.421875 0 
z
" id="DejaVuSans-108"/>
       </defs>
       <use xlink:href="#DejaVuSans-118"/>
       <use x="59.179688" xlink:href="#DejaVuSans-97"/>
       <use x="120.458984" xlink:href="#DejaVuSans-108"/>
      </g>
     </g>
    </g>
    <g id="xtick_3">
     <g id="line2d_3">
      <g>
       <use style="stroke:#000000;stroke-width:0.8;" x="333" xlink:href="#m92ab9fa88d" y="252"/>
      </g>
     </g>
     <g id="text_3">
      <!-- test -->
      <g transform="translate(323.398438 266.598437)scale(0.1 -0.1)">
       <defs>
        <path d="M 56.203125 29.59375 
L 56.203125 25.203125 
L 14.890625 25.203125 
Q 15.484375 15.921875 20.484375 11.0625 
Q 25.484375 6.203125 34.421875 6.203125 
Q 39.59375 6.203125 44.453125 7.46875 
Q 49.3125 8.734375 54.109375 11.28125 
L 54.109375 2.78125 
Q 49.265625 0.734375 44.1875 -0.34375 
Q 39.109375 -1.421875 33.890625 -1.421875 
Q 20.796875 -1.421875 13.15625 6.1875 
Q 5.515625 13.8125 5.515625 26.8125 
Q 5.515625 40.234375 12.765625 48.109375 
Q 20.015625 56 32.328125 56 
Q 43.359375 56 49.78125 48.890625 
Q 56.203125 41.796875 56.203125 29.59375 
z
M 47.21875 32.234375 
Q 47.125 39.59375 43.09375 43.984375 
Q 39.0625 48.390625 32.421875 48.390625 
Q 24.90625 48.390625 20.390625 44.140625 
Q 15.875 39.890625 15.1875 32.171875 
z
" id="DejaVuSans-101"/>
        <path d="M 44.28125 53.078125 
L 44.28125 44.578125 
Q 40.484375 46.53125 36.375 47.5 
Q 32.28125 48.484375 27.875 48.484375 
Q 21.1875 48.484375 17.84375 46.4375 
Q 14.5 44.390625 14.5 40.28125 
Q 14.5 37.15625 16.890625 35.375 
Q 19.28125 33.59375 26.515625 31.984375 
L 29.59375 31.296875 
Q 39.15625 29.25 43.1875 25.515625 
Q 47.21875 21.78125 47.21875 15.09375 
Q 47.21875 7.46875 41.1875 3.015625 
Q 35.15625 -1.421875 24.609375 -1.421875 
Q 20.21875 -1.421875 15.453125 -0.5625 
Q 10.6875 0.296875 5.421875 2 
L 5.421875 11.28125 
Q 10.40625 8.6875 15.234375 7.390625 
Q 20.0625 6.109375 24.8125 6.109375 
Q 31.15625 6.109375 34.5625 8.28125 
Q 37.984375 10.453125 37.984375 14.40625 
Q 37.984375 18.0625 35.515625 20.015625 
Q 33.0625 21.96875 24.703125 23.78125 
L 21.578125 24.515625 
Q 13.234375 26.265625 9.515625 29.90625 
Q 5.8125 33.546875 5.8125 39.890625 
Q 5.8125 47.609375 11.28125 51.796875 
Q 16.75 56 26.8125 56 
Q 31.78125 56 36.171875 55.265625 
Q 40.578125 54.546875 44.28125 53.078125 
z
" id="DejaVuSans-115"/>
       </defs>
       <use xlink:href="#DejaVuSans-116"/>
       <use x="39.208984" xlink:href="#DejaVuSans-101"/>
       <use x="100.732422" xlink:href="#DejaVuSans-115"/>
       <use x="152.832031" xlink:href="#DejaVuSans-116"/>
      </g>
     </g>
    </g>
    <g id="text_4">
     <!-- set -->
     <g transform="translate(213.758594 280.276563)scale(0.1 -0.1)">
      <use xlink:href="#DejaVuSans-115"/>
      <use x="52.099609" xlink:href="#DejaVuSans-101"/>
      <use x="113.623047" xlink:href="#DejaVuSans-116"/>
     </g>
    </g>
   </g>
   <g id="matplotlib.axis_2">
    <g id="ytick_1">
     <g id="line2d_4">
      <defs>
       <path d="M 0 0 
L -3.5 0 
" id="m36c75718b3" style="stroke:#000000;stroke-width:0.8;"/>
      </defs>
      <g>
       <use style="stroke:#000000;stroke-width:0.8;" x="54" xlink:href="#m36c75718b3" y="248.753033"/>
      </g>
     </g>
     <g id="text_5">
      <!-- 0.0 -->
      <g transform="translate(31.096875 252.552252)scale(0.1 -0.1)">
       <defs>
        <path d="M 31.78125 66.40625 
Q 24.171875 66.40625 20.328125 58.90625 
Q 16.5 51.421875 16.5 36.375 
Q 16.5 21.390625 20.328125 13.890625 
Q 24.171875 6.390625 31.78125 6.390625 
Q 39.453125 6.390625 43.28125 13.890625 
Q 47.125 21.390625 47.125 36.375 
Q 47.125 51.421875 43.28125 58.90625 
Q 39.453125 66.40625 31.78125 66.40625 
z
M 31.78125 74.21875 
Q 44.046875 74.21875 50.515625 64.515625 
Q 56.984375 54.828125 56.984375 36.375 
Q 56.984375 17.96875 50.515625 8.265625 
Q 44.046875 -1.421875 31.78125 -1.421875 
Q 19.53125 -1.421875 13.0625 8.265625 
Q 6.59375 17.96875 6.59375 36.375 
Q 6.59375 54.828125 13.0625 64.515625 
Q 19.53125 74.21875 31.78125 74.21875 
z
" id="DejaVuSans-48"/>
        <path d="M 10.6875 12.40625 
L 21 12.40625 
L 21 0 
L 10.6875 0 
z
" id="DejaVuSans-46"/>
       </defs>
       <use xlink:href="#DejaVuSans-48"/>
       <use x="63.623047" xlink:href="#DejaVuSans-46"/>
       <use x="95.410156" xlink:href="#DejaVuSans-48"/>
      </g>
     </g>
    </g>
    <g id="ytick_2">
     <g id="line2d_5">
      <g>
       <use style="stroke:#000000;stroke-width:0.8;" x="54" xlink:href="#m36c75718b3" y="220.988084"/>
      </g>
     </g>
     <g id="text_6">
      <!-- 0.1 -->
      <g transform="translate(31.096875 224.787303)scale(0.1 -0.1)">
       <defs>
        <path d="M 12.40625 8.296875 
L 28.515625 8.296875 
L 28.515625 63.921875 
L 10.984375 60.40625 
L 10.984375 69.390625 
L 28.421875 72.90625 
L 38.28125 72.90625 
L 38.28125 8.296875 
L 54.390625 8.296875 
L 54.390625 0 
L 12.40625 0 
z
" id="DejaVuSans-49"/>
       </defs>
       <use xlink:href="#DejaVuSans-48"/>
       <use x="63.623047" xlink:href="#DejaVuSans-46"/>
       <use x="95.410156" xlink:href="#DejaVuSans-49"/>
      </g>
     </g>
    </g>
    <g id="ytick_3">
     <g id="line2d_6">
      <g>
       <use style="stroke:#000000;stroke-width:0.8;" x="54" xlink:href="#m36c75718b3" y="193.223135"/>
      </g>
     </g>
     <g id="text_7">
      <!-- 0.2 -->
      <g transform="translate(31.096875 197.022354)scale(0.1 -0.1)">
       <defs>
        <path d="M 19.1875 8.296875 
L 53.609375 8.296875 
L 53.609375 0 
L 7.328125 0 
L 7.328125 8.296875 
Q 12.9375 14.109375 22.625 23.890625 
Q 32.328125 33.6875 34.8125 36.53125 
Q 39.546875 41.84375 41.421875 45.53125 
Q 43.3125 49.21875 43.3125 52.78125 
Q 43.3125 58.59375 39.234375 62.25 
Q 35.15625 65.921875 28.609375 65.921875 
Q 23.96875 65.921875 18.8125 64.3125 
Q 13.671875 62.703125 7.8125 59.421875 
L 7.8125 69.390625 
Q 13.765625 71.78125 18.9375 73 
Q 24.125 74.21875 28.421875 74.21875 
Q 39.75 74.21875 46.484375 68.546875 
Q 53.21875 62.890625 53.21875 53.421875 
Q 53.21875 48.921875 51.53125 44.890625 
Q 49.859375 40.875 45.40625 35.40625 
Q 44.1875 33.984375 37.640625 27.21875 
Q 31.109375 20.453125 19.1875 8.296875 
z
" id="DejaVuSans-50"/>
       </defs>
       <use xlink:href="#DejaVuSans-48"/>
       <use x="63.623047" xlink:href="#DejaVuSans-46"/>
       <use x="95.410156" xlink:href="#DejaVuSans-50"/>
      </g>
     </g>
    </g>
    <g id="ytick_4">
     <g id="line2d_7">
      <g>
       <use style="stroke:#000000;stroke-width:0.8;" x="54" xlink:href="#m36c75718b3" y="165.458186"/>
      </g>
     </g>
     <g id="text_8">
      <!-- 0.3 -->
      <g transform="translate(31.096875 169.257405)scale(0.1 -0.1)">
       <defs>
        <path d="M 40.578125 39.3125 
Q 47.65625 37.796875 51.625 33 
Q 55.609375 28.21875 55.609375 21.1875 
Q 55.609375 10.40625 48.1875 4.484375 
Q 40.765625 -1.421875 27.09375 -1.421875 
Q 22.515625 -1.421875 17.65625 -0.515625 
Q 12.796875 0.390625 7.625 2.203125 
L 7.625 11.71875 
Q 11.71875 9.328125 16.59375 8.109375 
Q 21.484375 6.890625 26.8125 6.890625 
Q 36.078125 6.890625 40.9375 10.546875 
Q 45.796875 14.203125 45.796875 21.1875 
Q 45.796875 27.640625 41.28125 31.265625 
Q 36.765625 34.90625 28.71875 34.90625 
L 20.21875 34.90625 
L 20.21875 43.015625 
L 29.109375 43.015625 
Q 36.375 43.015625 40.234375 45.921875 
Q 44.09375 48.828125 44.09375 54.296875 
Q 44.09375 59.90625 40.109375 62.90625 
Q 36.140625 65.921875 28.71875 65.921875 
Q 24.65625 65.921875 20.015625 65.03125 
Q 15.375 64.15625 9.8125 62.3125 
L 9.8125 71.09375 
Q 15.4375 72.65625 20.34375 73.4375 
Q 25.25 74.21875 29.59375 74.21875 
Q 40.828125 74.21875 47.359375 69.109375 
Q 53.90625 64.015625 53.90625 55.328125 
Q 53.90625 49.265625 50.4375 45.09375 
Q 46.96875 40.921875 40.578125 39.3125 
z
" id="DejaVuSans-51"/>
       </defs>
       <use xlink:href="#DejaVuSans-48"/>
       <use x="63.623047" xlink:href="#DejaVuSans-46"/>
       <use x="95.410156" xlink:href="#DejaVuSans-51"/>
      </g>
     </g>
    </g>
    <g id="ytick_5">
     <g id="line2d_8">
      <g>
       <use style="stroke:#000000;stroke-width:0.8;" x="54" xlink:href="#m36c75718b3" y="137.693237"/>
      </g>
     </g>
     <g id="text_9">
      <!-- 0.4 -->
      <g transform="translate(31.096875 141.492456)scale(0.1 -0.1)">
       <defs>
        <path d="M 37.796875 64.3125 
L 12.890625 25.390625 
L 37.796875 25.390625 
z
M 35.203125 72.90625 
L 47.609375 72.90625 
L 47.609375 25.390625 
L 58.015625 25.390625 
L 58.015625 17.1875 
L 47.609375 17.1875 
L 47.609375 0 
L 37.796875 0 
L 37.796875 17.1875 
L 4.890625 17.1875 
L 4.890625 26.703125 
z
" id="DejaVuSans-52"/>
       </defs>
       <use xlink:href="#DejaVuSans-48"/>
       <use x="63.623047" xlink:href="#DejaVuSans-46"/>
       <use x="95.410156" xlink:href="#DejaVuSans-52"/>
      </g>
     </g>
    </g>
    <g id="ytick_6">
     <g id="line2d_9">
      <g>
       <use style="stroke:#000000;stroke-width:0.8;" x="54" xlink:href="#m36c75718b3" y="109.928288"/>
      </g>
     </g>
     <g id="text_10">
      <!-- 0.5 -->
      <g transform="translate(31.096875 113.727507)scale(0.1 -0.1)">
       <defs>
        <path d="M 10.796875 72.90625 
L 49.515625 72.90625 
L 49.515625 64.59375 
L 19.828125 64.59375 
L 19.828125 46.734375 
Q 21.96875 47.46875 24.109375 47.828125 
Q 26.265625 48.1875 28.421875 48.1875 
Q 40.625 48.1875 47.75 41.5 
Q 54.890625 34.8125 54.890625 23.390625 
Q 54.890625 11.625 47.5625 5.09375 
Q 40.234375 -1.421875 26.90625 -1.421875 
Q 22.3125 -1.421875 17.546875 -0.640625 
Q 12.796875 0.140625 7.71875 1.703125 
L 7.71875 11.625 
Q 12.109375 9.234375 16.796875 8.0625 
Q 21.484375 6.890625 26.703125 6.890625 
Q 35.15625 6.890625 40.078125 11.328125 
Q 45.015625 15.765625 45.015625 23.390625 
Q 45.015625 31 40.078125 35.4375 
Q 35.15625 39.890625 26.703125 39.890625 
Q 22.75 39.890625 18.8125 39.015625 
Q 14.890625 38.140625 10.796875 36.28125 
z
" id="DejaVuSans-53"/>
       </defs>
       <use xlink:href="#DejaVuSans-48"/>
       <use x="63.623047" xlink:href="#DejaVuSans-46"/>
       <use x="95.410156" xlink:href="#DejaVuSans-53"/>
      </g>
     </g>
    </g>
    <g id="ytick_7">
     <g id="line2d_10">
      <g>
       <use style="stroke:#000000;stroke-width:0.8;" x="54" xlink:href="#m36c75718b3" y="82.163339"/>
      </g>
     </g>
     <g id="text_11">
      <!-- 0.6 -->
      <g transform="translate(31.096875 85.962558)scale(0.1 -0.1)">
       <defs>
        <path d="M 33.015625 40.375 
Q 26.375 40.375 22.484375 35.828125 
Q 18.609375 31.296875 18.609375 23.390625 
Q 18.609375 15.53125 22.484375 10.953125 
Q 26.375 6.390625 33.015625 6.390625 
Q 39.65625 6.390625 43.53125 10.953125 
Q 47.40625 15.53125 47.40625 23.390625 
Q 47.40625 31.296875 43.53125 35.828125 
Q 39.65625 40.375 33.015625 40.375 
z
M 52.59375 71.296875 
L 52.59375 62.3125 
Q 48.875 64.0625 45.09375 64.984375 
Q 41.3125 65.921875 37.59375 65.921875 
Q 27.828125 65.921875 22.671875 59.328125 
Q 17.53125 52.734375 16.796875 39.40625 
Q 19.671875 43.65625 24.015625 45.921875 
Q 28.375 48.1875 33.59375 48.1875 
Q 44.578125 48.1875 50.953125 41.515625 
Q 57.328125 34.859375 57.328125 23.390625 
Q 57.328125 12.15625 50.6875 5.359375 
Q 44.046875 -1.421875 33.015625 -1.421875 
Q 20.359375 -1.421875 13.671875 8.265625 
Q 6.984375 17.96875 6.984375 36.375 
Q 6.984375 53.65625 15.1875 63.9375 
Q 23.390625 74.21875 37.203125 74.21875 
Q 40.921875 74.21875 44.703125 73.484375 
Q 48.484375 72.75 52.59375 71.296875 
z
" id="DejaVuSans-54"/>
       </defs>
       <use xlink:href="#DejaVuSans-48"/>
       <use x="63.623047" xlink:href="#DejaVuSans-46"/>
       <use x="95.410156" xlink:href="#DejaVuSans-54"/>
      </g>
     </g>
    </g>
    <g id="ytick_8">
     <g id="line2d_11">
      <g>
       <use style="stroke:#000000;stroke-width:0.8;" x="54" xlink:href="#m36c75718b3" y="54.39839"/>
      </g>
     </g>
     <g id="text_12">
      <!-- 0.7 -->
      <g transform="translate(31.096875 58.197609)scale(0.1 -0.1)">
       <defs>
        <path d="M 8.203125 72.90625 
L 55.078125 72.90625 
L 55.078125 68.703125 
L 28.609375 0 
L 18.3125 0 
L 43.21875 64.59375 
L 8.203125 64.59375 
z
" id="DejaVuSans-55"/>
       </defs>
       <use xlink:href="#DejaVuSans-48"/>
       <use x="63.623047" xlink:href="#DejaVuSans-46"/>
       <use x="95.410156" xlink:href="#DejaVuSans-55"/>
      </g>
     </g>
    </g>
    <g id="text_13">
     <!-- value -->
     <g transform="translate(25.017187 156.937813)rotate(-90)scale(0.1 -0.1)">
      <defs>
       <path d="M 8.5 21.578125 
L 8.5 54.6875 
L 17.484375 54.6875 
L 17.484375 21.921875 
Q 17.484375 14.15625 20.5 10.265625 
Q 23.53125 6.390625 29.59375 6.390625 
Q 36.859375 6.390625 41.078125 11.03125 
Q 45.3125 15.671875 45.3125 23.6875 
L 45.3125 54.6875 
L 54.296875 54.6875 
L 54.296875 0 
L 45.3125 0 
L 45.3125 8.40625 
Q 42.046875 3.421875 37.71875 1 
Q 33.40625 -1.421875 27.6875 -1.421875 
Q 18.265625 -1.421875 13.375 4.4375 
Q 8.5 10.296875 8.5 21.578125 
z
M 31.109375 56 
z
" id="DejaVuSans-117"/>
      </defs>
      <use xlink:href="#DejaVuSans-118"/>
      <use x="59.179688" xlink:href="#DejaVuSans-97"/>
      <use x="120.458984" xlink:href="#DejaVuSans-108"/>
      <use x="148.242188" xlink:href="#DejaVuSans-117"/>
      <use x="211.621094" xlink:href="#DejaVuSans-101"/>
     </g>
    </g>
   </g>
   <g id="line2d_12">
    <path clip-path="url(#pcb3bb5b196)" d="M 80.04 229.478361 
L 80.04 52.482542 
" style="fill:none;stroke:#3d3d3d;stroke-linecap:square;stroke-width:1.5;"/>
   </g>
   <g id="line2d_13">
    <path clip-path="url(#pcb3bb5b196)" d="M 80.04 165.655255 
L 80.04 119.021721 
" style="fill:none;stroke:#3d3d3d;stroke-linecap:square;stroke-width:4.5;"/>
   </g>
   <g id="line2d_14">
    <path clip-path="url(#pcb3bb5b196)" d="M 221.4 221.793057 
L 221.4 89.41918 
" style="fill:none;stroke:#3d3d3d;stroke-linecap:square;stroke-width:1.5;"/>
   </g>
   <g id="line2d_15">
    <path clip-path="url(#pcb3bb5b196)" d="M 221.4 173.988054 
L 221.4 139.588766 
" style="fill:none;stroke:#3d3d3d;stroke-linecap:square;stroke-width:4.5;"/>
   </g>
   <g id="line2d_16">
    <path clip-path="url(#pcb3bb5b196)" d="M 362.76 221.866511 
L 362.76 86.149389 
" style="fill:none;stroke:#3d3d3d;stroke-linecap:square;stroke-width:1.5;"/>
   </g>
   <g id="line2d_17">
    <path clip-path="url(#pcb3bb5b196)" d="M 362.76 172.407223 
L 362.76 137.532619 
" style="fill:none;stroke:#3d3d3d;stroke-linecap:square;stroke-width:4.5;"/>
   </g>
   <g id="patch_6">
    <path d="M 54 252 
L 54 34.56 
" style="fill:none;stroke:#000000;stroke-linecap:square;stroke-linejoin:miter;stroke-width:0.8;"/>
   </g>
   <g id="patch_7">
    <path d="M 388.8 252 
L 388.8 34.56 
" style="fill:none;stroke:#000000;stroke-linecap:square;stroke-linejoin:miter;stroke-width:0.8;"/>
   </g>
   <g id="patch_8">
    <path d="M 54 252 
L 388.8 252 
" style="fill:none;stroke:#000000;stroke-linecap:square;stroke-linejoin:miter;stroke-width:0.8;"/>
   </g>
   <g id="patch_9">
    <path d="M 54 34.56 
L 388.8 34.56 
" style="fill:none;stroke:#000000;stroke-linecap:square;stroke-linejoin:miter;stroke-width:0.8;"/>
   </g>
   <g id="PathCollection_1">
    <defs>
     <path d="M 0 1.5 
C 0.397805 1.5 0.77937 1.341951 1.06066 1.06066 
C 1.341951 0.77937 1.5 0.397805 1.5 0 
C 1.5 -0.397805 1.341951 -0.77937 1.06066 -1.06066 
C 0.77937 -1.341951 0.397805 -1.5 0 -1.5 
C -0.397805 -1.5 -0.77937 -1.341951 -1.06066 -1.06066 
C -1.341951 -0.77937 -1.5 -0.397805 -1.5 0 
C -1.5 0.397805 -1.341951 0.77937 -1.06066 1.06066 
C -0.77937 1.341951 -0.397805 1.5 0 1.5 
z
" id="m7cdf4244cb" style="stroke:#3d3d3d;"/>
    </defs>
    <g clip-path="url(#pcb3bb5b196)">
     <use style="fill:#ffffff;stroke:#3d3d3d;" x="80.04" xlink:href="#m7cdf4244cb" y="143.492952"/>
    </g>
   </g>
   <g id="PathCollection_2">
    <g clip-path="url(#pcb3bb5b196)">
     <use style="fill:#ffffff;stroke:#3d3d3d;" x="221.4" xlink:href="#m7cdf4244cb" y="157.252523"/>
    </g>
   </g>
   <g id="PathCollection_3">
    <g clip-path="url(#pcb3bb5b196)">
     <use style="fill:#ffffff;stroke:#3d3d3d;" x="362.76" xlink:href="#m7cdf4244cb" y="155.19463"/>
    </g>
   </g>
   <g id="legend_1">
    <g id="patch_10">
     <path d="M 326.525 101.2725 
L 381.8 101.2725 
Q 383.8 101.2725 383.8 99.2725 
L 383.8 41.56 
Q 383.8 39.56 381.8 39.56 
L 326.525 39.56 
Q 324.525 39.56 324.525 41.56 
L 324.525 99.2725 
Q 324.525 101.2725 326.525 101.2725 
z
" style="fill:#ffffff;opacity:0.8;stroke:#cccccc;stroke-linejoin:miter;"/>
    </g>
    <g id="text_14">
     <!-- set -->
     <g transform="translate(346.521094 51.158437)scale(0.1 -0.1)">
      <use xlink:href="#DejaVuSans-115"/>
      <use x="52.099609" xlink:href="#DejaVuSans-101"/>
      <use x="113.623047" xlink:href="#DejaVuSans-116"/>
     </g>
    </g>
    <g id="patch_11">
     <path d="M 328.525 65.836562 
L 348.525 65.836562 
L 348.525 58.836562 
L 328.525 58.836562 
z
" style="fill:#3274a1;stroke:#3d3d3d;stroke-linejoin:miter;stroke-width:0.75;"/>
    </g>
    <g id="text_15">
     <!-- train -->
     <g transform="translate(356.525 65.836562)scale(0.1 -0.1)">
      <use xlink:href="#DejaVuSans-116"/>
      <use x="39.208984" xlink:href="#DejaVuSans-114"/>
      <use x="80.322266" xlink:href="#DejaVuSans-97"/>
      <use x="141.601562" xlink:href="#DejaVuSans-105"/>
      <use x="169.384766" xlink:href="#DejaVuSans-110"/>
     </g>
    </g>
    <g id="patch_12">
     <path d="M 328.525 80.514687 
L 348.525 80.514687 
L 348.525 73.514687 
L 328.525 73.514687 
z
" style="fill:#e1812c;stroke:#3d3d3d;stroke-linejoin:miter;stroke-width:0.75;"/>
    </g>
    <g id="text_16">
     <!-- val -->
     <g transform="translate(356.525 80.514687)scale(0.1 -0.1)">
      <use xlink:href="#DejaVuSans-118"/>
      <use x="59.179688" xlink:href="#DejaVuSans-97"/>
      <use x="120.458984" xlink:href="#DejaVuSans-108"/>
     </g>
    </g>
    <g id="patch_13">
     <path d="M 328.525 95.192813 
L 348.525 95.192813 
L 348.525 88.192813 
L 328.525 88.192813 
z
" style="fill:#3a923a;stroke:#3d3d3d;stroke-linejoin:miter;stroke-width:0.75;"/>
    </g>
    <g id="text_17">
     <!-- test -->
     <g transform="translate(356.525 95.192813)scale(0.1 -0.1)">
      <use xlink:href="#DejaVuSans-116"/>
      <use x="39.208984" xlink:href="#DejaVuSans-101"/>
      <use x="100.732422" xlink:href="#DejaVuSans-115"/>
      <use x="152.832031" xlink:href="#DejaVuSans-116"/>
     </g>
    </g>
   </g>
  </g>
 </g>
 <defs>
  <clipPath id="pcb3bb5b196">
   <rect height="217.44" width="334.8" x="54" y="34.56"/>
  </clipPath>
 </defs>
</svg>
