<?xml version="1.0" encoding="utf-8" standalone="no"?>
<!DOCTYPE svg PUBLIC "-//W3C//DTD SVG 1.1//EN"
  "http://www.w3.org/Graphics/SVG/1.1/DTD/svg11.dtd">
<!-- Created with matplotlib (https://matplotlib.org/) -->
<svg height="288pt" version="1.1" viewBox="0 0 432 288" width="432pt" xmlns="http://www.w3.org/2000/svg" xmlns:xlink="http://www.w3.org/1999/xlink">
 <metadata>
  <rdf:RDF xmlns:cc="http://creativecommons.org/ns#" xmlns:dc="http://purl.org/dc/elements/1.1/" xmlns:rdf="http://www.w3.org/1999/02/22-rdf-syntax-ns#">
   <cc:Work>
    <dc:type rdf:resource="http://purl.org/dc/dcmitype/StillImage"/>
    <dc:date>2022-07-16T12:12:43.141341</dc:date>
    <dc:format>image/svg+xml</dc:format>
    <dc:creator>
     <cc:Agent>
      <dc:title>Matplotlib v3.3.4, https://matplotlib.org/</dc:title>
     </cc:Agent>
    </dc:creator>
   </cc:Work>
  </rdf:RDF>
 </metadata>
 <defs>
  <style type="text/css">*{stroke-linecap:butt;stroke-linejoin:round;}</style>
 </defs>
 <g id="figure_1">
  <g id="patch_1">
   <path d="M 0 288 
L 432 288 
L 432 0 
L 0 0 
z
" style="fill:#ffffff;"/>
  </g>
  <g id="axes_1">
   <g id="patch_2">
    <path d="M 54 252 
L 388.8 252 
L 388.8 34.56 
L 54 34.56 
z
" style="fill:#ffffff;"/>
   </g>
   <g id="PolyCollection_1">
    <defs>
     <path d="M 80.074468 -69.249897 
L 80.005532 -69.249897 
L 80.001054 -70.765115 
L 79.9989 -72.280333 
L 79.998235 -73.795551 
L 79.997554 -75.310769 
L 79.995083 -76.825987 
L 79.989657 -78.341205 
L 79.981777 -79.856423 
L 79.973694 -81.371641 
L 79.967886 -82.886858 
L 79.964812 -84.402076 
L 79.961839 -85.917294 
L 79.954639 -87.432512 
L 79.940341 -88.94773 
L 79.919839 -90.462948 
L 79.897088 -91.978166 
L 79.875955 -93.493384 
L 79.857457 -95.008602 
L 79.839597 -96.52382 
L 79.819251 -98.039037 
L 79.793581 -99.554255 
L 79.759109 -101.069473 
L 79.70913 -102.584691 
L 79.631979 -104.099909 
L 79.5116 -105.615127 
L 79.329213 -107.130345 
L 79.064027 -108.645563 
L 78.693186 -110.160781 
L 78.194086 -111.675999 
L 77.551906 -113.191217 
L 76.769604 -114.706434 
L 75.87167 -116.221652 
L 74.894854 -117.73687 
L 73.87054 -119.252088 
L 72.813131 -120.767306 
L 71.724967 -122.282524 
L 70.614005 -123.797742 
L 69.509964 -125.31296 
L 68.466785 -126.828178 
L 67.549179 -128.343396 
L 66.810403 -129.858613 
L 66.272827 -131.373831 
L 65.921154 -132.889049 
L 65.710224 -134.404267 
L 65.580968 -135.919485 
L 65.477331 -137.434703 
L 65.363469 -138.949921 
L 65.24169 -140.465139 
L 65.16 -141.980357 
L 65.191121 -143.495575 
L 65.385722 -145.010792 
L 65.735066 -146.52601 
L 66.177339 -148.041228 
L 66.64117 -149.556446 
L 67.08671 -151.071664 
L 67.514606 -152.586882 
L 67.948371 -154.1021 
L 68.415676 -155.617318 
L 68.942632 -157.132536 
L 69.551852 -158.647754 
L 70.250674 -160.162971 
L 71.014833 -161.678189 
L 71.787378 -163.193407 
L 72.501759 -164.708625 
L 73.115112 -166.223843 
L 73.628523 -167.739061 
L 74.081747 -169.254279 
L 74.527415 -170.769497 
L 75.000945 -172.284715 
L 75.50283 -173.799933 
L 76.002262 -175.31515 
L 76.459249 -176.830368 
L 76.851006 -178.345586 
L 77.184484 -179.860804 
L 77.486406 -181.376022 
L 77.780101 -182.89124 
L 78.068422 -184.406458 
L 78.334827 -185.921676 
L 78.558662 -187.436894 
L 78.731218 -188.952112 
L 78.861577 -190.46733 
L 78.970112 -191.982547 
L 79.075494 -193.497765 
L 79.184773 -195.012983 
L 79.293596 -196.528201 
L 79.395197 -198.043419 
L 79.488723 -199.558637 
L 79.578743 -201.073855 
L 79.668103 -202.589073 
L 79.753279 -204.104291 
L 79.827036 -205.619509 
L 79.884242 -207.134726 
L 79.92461 -208.649944 
L 79.951242 -210.165162 
L 79.968023 -211.68038 
L 79.978298 -213.195598 
L 79.984773 -214.710816 
L 79.989723 -216.226034 
L 79.994996 -217.741252 
L 80.001753 -219.25647 
L 80.078247 -219.25647 
L 80.078247 -219.25647 
L 80.085004 -217.741252 
L 80.090277 -216.226034 
L 80.095227 -214.710816 
L 80.101702 -213.195598 
L 80.111977 -211.68038 
L 80.128758 -210.165162 
L 80.15539 -208.649944 
L 80.195758 -207.134726 
L 80.252964 -205.619509 
L 80.326721 -204.104291 
L 80.411897 -202.589073 
L 80.501257 -201.073855 
L 80.591277 -199.558637 
L 80.684803 -198.043419 
L 80.786404 -196.528201 
L 80.895227 -195.012983 
L 81.004506 -193.497765 
L 81.109888 -191.982547 
L 81.218423 -190.46733 
L 81.348782 -188.952112 
L 81.521338 -187.436894 
L 81.745173 -185.921676 
L 82.011578 -184.406458 
L 82.299899 -182.89124 
L 82.593594 -181.376022 
L 82.895516 -179.860804 
L 83.228994 -178.345586 
L 83.620751 -176.830368 
L 84.077738 -175.31515 
L 84.57717 -173.799933 
L 85.079055 -172.284715 
L 85.552585 -170.769497 
L 85.998253 -169.254279 
L 86.451477 -167.739061 
L 86.964888 -166.223843 
L 87.578241 -164.708625 
L 88.292622 -163.193407 
L 89.065167 -161.678189 
L 89.829326 -160.162971 
L 90.528148 -158.647754 
L 91.137368 -157.132536 
L 91.664324 -155.617318 
L 92.131629 -154.1021 
L 92.565394 -152.586882 
L 92.99329 -151.071664 
L 93.43883 -149.556446 
L 93.902661 -148.041228 
L 94.344934 -146.52601 
L 94.694278 -145.010792 
L 94.888879 -143.495575 
L 94.92 -141.980357 
L 94.83831 -140.465139 
L 94.716531 -138.949921 
L 94.602669 -137.434703 
L 94.499032 -135.919485 
L 94.369776 -134.404267 
L 94.158846 -132.889049 
L 93.807173 -131.373831 
L 93.269597 -129.858613 
L 92.530821 -128.343396 
L 91.613215 -126.828178 
L 90.570036 -125.31296 
L 89.465995 -123.797742 
L 88.355033 -122.282524 
L 87.266869 -120.767306 
L 86.20946 -119.252088 
L 85.185146 -117.73687 
L 84.20833 -116.221652 
L 83.310396 -114.706434 
L 82.528094 -113.191217 
L 81.885914 -111.675999 
L 81.386814 -110.160781 
L 81.015973 -108.645563 
L 80.750787 -107.130345 
L 80.5684 -105.615127 
L 80.448021 -104.099909 
L 80.37087 -102.584691 
L 80.320891 -101.069473 
L 80.286419 -99.554255 
L 80.260749 -98.039037 
L 80.240403 -96.52382 
L 80.222543 -95.008602 
L 80.204045 -93.493384 
L 80.182912 -91.978166 
L 80.160161 -90.462948 
L 80.139659 -88.94773 
L 80.125361 -87.432512 
L 80.118161 -85.917294 
L 80.115188 -84.402076 
L 80.112114 -82.886858 
L 80.106306 -81.371641 
L 80.098223 -79.856423 
L 80.090343 -78.341205 
L 80.084917 -76.825987 
L 80.082446 -75.310769 
L 80.081765 -73.795551 
L 80.0811 -72.280333 
L 80.078946 -70.765115 
L 80.074468 -69.249897 
z
" id="mc357a7fe11" style="stroke:#3d3d3d;stroke-width:1.5;"/>
    </defs>
    <g clip-path="url(#p70412de3b4)">
     <use style="fill:#3274a1;stroke:#3d3d3d;stroke-width:1.5;" x="0" xlink:href="#mc357a7fe11" y="288"/>
    </g>
   </g>
   <g id="PolyCollection_2">
    <defs>
     <path d="M 221.464222 -82.925642 
L 221.335778 -82.925642 
L 221.329939 -84.548175 
L 221.326346 -86.170707 
L 221.322975 -87.79324 
L 221.317097 -89.415772 
L 221.305958 -91.038305 
L 221.287141 -92.660837 
L 221.258284 -94.28337 
L 221.215966 -95.905903 
L 221.153658 -97.528435 
L 221.058981 -99.150968 
L 220.910892 -100.7735 
L 220.67801 -102.396033 
L 220.31964 -104.018565 
L 219.791093 -105.641098 
L 219.054022 -107.26363 
L 218.090474 -108.886163 
L 216.916276 -110.508695 
L 215.587068 -112.131228 
L 214.191258 -113.75376 
L 212.829737 -115.376293 
L 211.58978 -116.998826 
L 210.524728 -118.621358 
L 209.648085 -120.243891 
L 208.942416 -121.866423 
L 208.375949 -123.488956 
L 207.917805 -125.111488 
L 207.546091 -126.734021 
L 207.248123 -128.356553 
L 207.015797 -129.979086 
L 206.840596 -131.601618 
L 206.711778 -133.224151 
L 206.618649 -134.846683 
L 206.554686 -136.469216 
L 206.52 -138.091749 
L 206.520011 -139.714281 
L 206.561237 -141.336814 
L 206.64719 -142.959346 
L 206.777039 -144.581879 
L 206.947156 -146.204411 
L 207.15309 -147.826944 
L 207.389226 -149.449476 
L 207.646041 -151.072009 
L 207.90838 -152.694541 
L 208.158874 -154.317074 
L 208.387013 -155.939606 
L 208.59892 -157.562139 
L 208.820339 -159.184672 
L 209.088585 -160.807204 
L 209.436161 -162.429737 
L 209.874446 -164.052269 
L 210.386364 -165.674802 
L 210.932187 -167.297334 
L 211.46554 -168.919867 
L 211.951477 -170.542399 
L 212.377891 -172.164932 
L 212.755598 -173.787464 
L 213.10867 -175.409997 
L 213.46134 -177.03253 
L 213.82835 -178.655062 
L 214.212345 -180.277595 
L 214.607302 -181.900127 
L 215.004238 -183.52266 
L 215.39579 -185.145192 
L 215.778336 -186.767725 
L 216.151983 -188.390257 
L 216.518838 -190.01279 
L 216.879907 -191.635322 
L 217.231863 -193.257855 
L 217.56623 -194.880387 
L 217.872846 -196.50292 
L 218.146328 -198.125453 
L 218.391063 -199.747985 
L 218.620526 -201.370518 
L 218.850664 -202.99305 
L 219.091455 -204.615583 
L 219.341843 -206.238115 
L 219.590577 -207.860648 
L 219.82168 -209.48318 
L 220.021159 -211.105713 
L 220.181957 -212.728245 
L 220.305729 -214.350778 
L 220.401524 -215.97331 
L 220.482247 -217.595843 
L 220.5602 -219.218376 
L 220.643259 -220.840908 
L 220.733121 -222.463441 
L 220.826216 -224.085973 
L 220.916598 -225.708506 
L 220.999136 -227.331038 
L 221.071381 -228.953571 
L 221.1335 -230.576103 
L 221.186923 -232.198636 
L 221.232867 -233.821168 
L 221.271654 -235.443701 
L 221.302978 -237.066233 
L 221.326692 -238.688766 
L 221.343481 -240.311299 
L 221.354975 -241.933831 
L 221.363266 -243.556364 
L 221.436734 -243.556364 
L 221.436734 -243.556364 
L 221.445025 -241.933831 
L 221.456519 -240.311299 
L 221.473308 -238.688766 
L 221.497022 -237.066233 
L 221.528346 -235.443701 
L 221.567133 -233.821168 
L 221.613077 -232.198636 
L 221.6665 -230.576103 
L 221.728619 -228.953571 
L 221.800864 -227.331038 
L 221.883402 -225.708506 
L 221.973784 -224.085973 
L 222.066879 -222.463441 
L 222.156741 -220.840908 
L 222.2398 -219.218376 
L 222.317753 -217.595843 
L 222.398476 -215.97331 
L 222.494271 -214.350778 
L 222.618043 -212.728245 
L 222.778841 -211.105713 
L 222.97832 -209.48318 
L 223.209423 -207.860648 
L 223.458157 -206.238115 
L 223.708545 -204.615583 
L 223.949336 -202.99305 
L 224.179474 -201.370518 
L 224.408937 -199.747985 
L 224.653672 -198.125453 
L 224.927154 -196.50292 
L 225.23377 -194.880387 
L 225.568137 -193.257855 
L 225.920093 -191.635322 
L 226.281162 -190.01279 
L 226.648017 -188.390257 
L 227.021664 -186.767725 
L 227.40421 -185.145192 
L 227.795762 -183.52266 
L 228.192698 -181.900127 
L 228.587655 -180.277595 
L 228.97165 -178.655062 
L 229.33866 -177.03253 
L 229.69133 -175.409997 
L 230.044402 -173.787464 
L 230.422109 -172.164932 
L 230.848523 -170.542399 
L 231.33446 -168.919867 
L 231.867813 -167.297334 
L 232.413636 -165.674802 
L 232.925554 -164.052269 
L 233.363839 -162.429737 
L 233.711415 -160.807204 
L 233.979661 -159.184672 
L 234.20108 -157.562139 
L 234.412987 -155.939606 
L 234.641126 -154.317074 
L 234.89162 -152.694541 
L 235.153959 -151.072009 
L 235.410774 -149.449476 
L 235.64691 -147.826944 
L 235.852844 -146.204411 
L 236.022961 -144.581879 
L 236.15281 -142.959346 
L 236.238763 -141.336814 
L 236.279989 -139.714281 
L 236.28 -138.091749 
L 236.245314 -136.469216 
L 236.181351 -134.846683 
L 236.088222 -133.224151 
L 235.959404 -131.601618 
L 235.784203 -129.979086 
L 235.551877 -128.356553 
L 235.253909 -126.734021 
L 234.882195 -125.111488 
L 234.424051 -123.488956 
L 233.857584 -121.866423 
L 233.151915 -120.243891 
L 232.275272 -118.621358 
L 231.21022 -116.998826 
L 229.970263 -115.376293 
L 228.608742 -113.75376 
L 227.212932 -112.131228 
L 225.883724 -110.508695 
L 224.709526 -108.886163 
L 223.745978 -107.26363 
L 223.008907 -105.641098 
L 222.48036 -104.018565 
L 222.12199 -102.396033 
L 221.889108 -100.7735 
L 221.741019 -99.150968 
L 221.646342 -97.528435 
L 221.584034 -95.905903 
L 221.541716 -94.28337 
L 221.512859 -92.660837 
L 221.494042 -91.038305 
L 221.482903 -89.415772 
L 221.477025 -87.79324 
L 221.473654 -86.170707 
L 221.470061 -84.548175 
L 221.464222 -82.925642 
z
" id="m3dfe903338" style="stroke:#3d3d3d;stroke-width:1.5;"/>
    </defs>
    <g clip-path="url(#p70412de3b4)">
     <use style="fill:#e1812c;stroke:#3d3d3d;stroke-width:1.5;" x="0" xlink:href="#m3dfe903338" y="288"/>
    </g>
   </g>
   <g id="PolyCollection_3">
    <defs>
     <path d="M 362.786938 -45.883636 
L 362.733062 -45.883636 
L 362.733372 -47.825902 
L 362.73455 -49.768168 
L 362.733188 -51.710434 
L 362.726061 -53.652699 
L 362.712046 -55.594965 
L 362.693218 -57.537231 
L 362.674328 -59.479497 
L 362.660646 -61.421762 
L 362.655307 -63.364028 
L 362.657921 -65.306294 
L 362.665395 -67.24856 
L 362.674157 -69.190825 
L 362.681861 -71.133091 
L 362.687313 -73.075357 
L 362.68912 -75.017623 
L 362.684862 -76.959888 
L 362.671972 -78.902154 
L 362.649671 -80.84442 
L 362.619903 -82.786686 
L 362.585874 -84.728951 
L 362.549167 -86.671217 
L 362.508194 -88.613483 
L 362.459541 -90.555749 
L 362.400258 -92.498014 
L 362.32738 -94.44028 
L 362.233694 -96.382546 
L 362.103265 -98.324812 
L 361.910947 -100.267077 
L 361.626031 -102.209343 
L 361.216277 -104.151609 
L 360.649832 -106.093874 
L 359.897292 -108.03614 
L 358.93872 -109.978406 
L 357.776878 -111.920672 
L 356.450184 -113.862937 
L 355.034465 -115.805203 
L 353.628232 -117.747469 
L 352.329044 -119.689735 
L 351.214584 -121.632 
L 350.333491 -123.574266 
L 349.699579 -125.516532 
L 349.285523 -127.458798 
L 349.024847 -129.401063 
L 348.833198 -131.343329 
L 348.643317 -133.285595 
L 348.431128 -135.227861 
L 348.214749 -137.170126 
L 348.031247 -139.112392 
L 347.913065 -141.054658 
L 347.88 -142.996924 
L 347.943159 -144.939189 
L 348.107614 -146.881455 
L 348.367742 -148.823721 
L 348.700685 -150.765987 
L 349.06707 -152.708252 
L 349.42425 -154.650518 
L 349.748232 -156.592784 
L 350.049576 -158.53505 
L 350.36696 -160.477315 
L 350.73805 -162.419581 
L 351.168043 -164.361847 
L 351.619885 -166.304113 
L 352.033469 -168.246378 
L 352.360951 -170.188644 
L 352.596498 -172.13091 
L 352.783932 -174.073176 
L 353.000019 -176.015441 
L 353.324376 -177.957707 
L 353.810228 -179.899973 
L 354.465044 -181.842239 
L 355.24627 -183.784504 
L 356.075902 -185.72677 
L 356.870643 -187.669036 
L 357.573023 -189.611302 
L 358.166224 -191.553567 
L 358.667063 -193.495833 
L 359.106344 -195.438099 
L 359.510363 -197.380365 
L 359.891636 -199.32263 
L 360.249714 -201.264896 
L 360.578966 -203.207162 
L 360.877762 -205.149428 
L 361.152155 -207.091693 
L 361.410688 -209.033959 
L 361.654767 -210.976225 
L 361.873826 -212.918491 
L 362.050467 -214.860756 
L 362.172163 -216.803022 
L 362.241194 -218.745288 
L 362.276134 -220.687553 
L 362.303701 -222.629819 
L 362.345719 -224.572085 
L 362.409195 -226.514351 
L 362.485625 -228.456616 
L 362.559145 -230.398882 
L 362.617083 -232.341148 
L 362.655897 -234.283414 
L 362.680118 -236.225679 
L 362.697067 -238.167945 
L 362.822933 -238.167945 
L 362.822933 -238.167945 
L 362.839882 -236.225679 
L 362.864103 -234.283414 
L 362.902917 -232.341148 
L 362.960855 -230.398882 
L 363.034375 -228.456616 
L 363.110805 -226.514351 
L 363.174281 -224.572085 
L 363.216299 -222.629819 
L 363.243866 -220.687553 
L 363.278806 -218.745288 
L 363.347837 -216.803022 
L 363.469533 -214.860756 
L 363.646174 -212.918491 
L 363.865233 -210.976225 
L 364.109312 -209.033959 
L 364.367845 -207.091693 
L 364.642238 -205.149428 
L 364.941034 -203.207162 
L 365.270286 -201.264896 
L 365.628364 -199.32263 
L 366.009637 -197.380365 
L 366.413656 -195.438099 
L 366.852937 -193.495833 
L 367.353776 -191.553567 
L 367.946977 -189.611302 
L 368.649357 -187.669036 
L 369.444098 -185.72677 
L 370.27373 -183.784504 
L 371.054956 -181.842239 
L 371.709772 -179.899973 
L 372.195624 -177.957707 
L 372.519981 -176.015441 
L 372.736068 -174.073176 
L 372.923502 -172.13091 
L 373.159049 -170.188644 
L 373.486531 -168.246378 
L 373.900115 -166.304113 
L 374.351957 -164.361847 
L 374.78195 -162.419581 
L 375.15304 -160.477315 
L 375.470424 -158.53505 
L 375.771768 -156.592784 
L 376.09575 -154.650518 
L 376.45293 -152.708252 
L 376.819315 -150.765987 
L 377.152258 -148.823721 
L 377.412386 -146.881455 
L 377.576841 -144.939189 
L 377.64 -142.996924 
L 377.606935 -141.054658 
L 377.488753 -139.112392 
L 377.305251 -137.170126 
L 377.088872 -135.227861 
L 376.876683 -133.285595 
L 376.686802 -131.343329 
L 376.495153 -129.401063 
L 376.234477 -127.458798 
L 375.820421 -125.516532 
L 375.186509 -123.574266 
L 374.305416 -121.632 
L 373.190956 -119.689735 
L 371.891768 -117.747469 
L 370.485535 -115.805203 
L 369.069816 -113.862937 
L 367.743122 -111.920672 
L 366.58128 -109.978406 
L 365.622708 -108.03614 
L 364.870168 -106.093874 
L 364.303723 -104.151609 
L 363.893969 -102.209343 
L 363.609053 -100.267077 
L 363.416735 -98.324812 
L 363.286306 -96.382546 
L 363.19262 -94.44028 
L 363.119742 -92.498014 
L 363.060459 -90.555749 
L 363.011806 -88.613483 
L 362.970833 -86.671217 
L 362.934126 -84.728951 
L 362.900097 -82.786686 
L 362.870329 -80.84442 
L 362.848028 -78.902154 
L 362.835138 -76.959888 
L 362.83088 -75.017623 
L 362.832687 -73.075357 
L 362.838139 -71.133091 
L 362.845843 -69.190825 
L 362.854605 -67.24856 
L 362.862079 -65.306294 
L 362.864693 -63.364028 
L 362.859354 -61.421762 
L 362.845672 -59.479497 
L 362.826782 -57.537231 
L 362.807954 -55.594965 
L 362.793939 -53.652699 
L 362.786812 -51.710434 
L 362.78545 -49.768168 
L 362.786628 -47.825902 
L 362.786938 -45.883636 
z
" id="mf65c9cf76b" style="stroke:#3d3d3d;stroke-width:1.5;"/>
    </defs>
    <g clip-path="url(#p70412de3b4)">
     <use style="fill:#3a923a;stroke:#3d3d3d;stroke-width:1.5;" x="0" xlink:href="#mf65c9cf76b" y="288"/>
    </g>
   </g>
   <g id="patch_3">
    <path clip-path="url(#p70412de3b4)" d="M 109.8 176.426682 
L 109.8 176.426682 
L 109.8 176.426682 
L 109.8 176.426682 
z
" style="fill:#3274a1;stroke:#3d3d3d;stroke-linejoin:miter;stroke-width:0.75;"/>
   </g>
   <g id="patch_4">
    <path clip-path="url(#p70412de3b4)" d="M 109.8 176.426682 
L 109.8 176.426682 
L 109.8 176.426682 
L 109.8 176.426682 
z
" style="fill:#e1812c;stroke:#3d3d3d;stroke-linejoin:miter;stroke-width:0.75;"/>
   </g>
   <g id="patch_5">
    <path clip-path="url(#p70412de3b4)" d="M 109.8 176.426682 
L 109.8 176.426682 
L 109.8 176.426682 
L 109.8 176.426682 
z
" style="fill:#3a923a;stroke:#3d3d3d;stroke-linejoin:miter;stroke-width:0.75;"/>
   </g>
   <g id="matplotlib.axis_1">
    <g id="xtick_1">
     <g id="line2d_1">
      <defs>
       <path d="M 0 0 
L 0 3.5 
" id="mb287817539" style="stroke:#000000;stroke-width:0.8;"/>
      </defs>
      <g>
       <use style="stroke:#000000;stroke-width:0.8;" x="109.8" xlink:href="#mb287817539" y="252"/>
      </g>
     </g>
     <g id="text_1">
      <!-- Z_1_zero -->
      <g transform="translate(87.490625 266.320312)scale(0.1 -0.1)">
       <defs>
        <path d="M 5.609375 72.90625 
L 62.890625 72.90625 
L 62.890625 65.375 
L 16.796875 8.296875 
L 64.015625 8.296875 
L 64.015625 0 
L 4.5 0 
L 4.5 7.515625 
L 50.59375 64.59375 
L 5.609375 64.59375 
z
" id="DejaVuSans-90"/>
        <path d="M 50.984375 -16.609375 
L 50.984375 -23.578125 
L -0.984375 -23.578125 
L -0.984375 -16.609375 
z
" id="DejaVuSans-95"/>
        <path d="M 12.40625 8.296875 
L 28.515625 8.296875 
L 28.515625 63.921875 
L 10.984375 60.40625 
L 10.984375 69.390625 
L 28.421875 72.90625 
L 38.28125 72.90625 
L 38.28125 8.296875 
L 54.390625 8.296875 
L 54.390625 0 
L 12.40625 0 
z
" id="DejaVuSans-49"/>
        <path d="M 5.515625 54.6875 
L 48.1875 54.6875 
L 48.1875 46.484375 
L 14.40625 7.171875 
L 48.1875 7.171875 
L 48.1875 0 
L 4.296875 0 
L 4.296875 8.203125 
L 38.09375 47.515625 
L 5.515625 47.515625 
z
" id="DejaVuSans-122"/>
        <path d="M 56.203125 29.59375 
L 56.203125 25.203125 
L 14.890625 25.203125 
Q 15.484375 15.921875 20.484375 11.0625 
Q 25.484375 6.203125 34.421875 6.203125 
Q 39.59375 6.203125 44.453125 7.46875 
Q 49.3125 8.734375 54.109375 11.28125 
L 54.109375 2.78125 
Q 49.265625 0.734375 44.1875 -0.34375 
Q 39.109375 -1.421875 33.890625 -1.421875 
Q 20.796875 -1.421875 13.15625 6.1875 
Q 5.515625 13.8125 5.515625 26.8125 
Q 5.515625 40.234375 12.765625 48.109375 
Q 20.015625 56 32.328125 56 
Q 43.359375 56 49.78125 48.890625 
Q 56.203125 41.796875 56.203125 29.59375 
z
M 47.21875 32.234375 
Q 47.125 39.59375 43.09375 43.984375 
Q 39.0625 48.390625 32.421875 48.390625 
Q 24.90625 48.390625 20.390625 44.140625 
Q 15.875 39.890625 15.1875 32.171875 
z
" id="DejaVuSans-101"/>
        <path d="M 41.109375 46.296875 
Q 39.59375 47.171875 37.8125 47.578125 
Q 36.03125 48 33.890625 48 
Q 26.265625 48 22.1875 43.046875 
Q 18.109375 38.09375 18.109375 28.8125 
L 18.109375 0 
L 9.078125 0 
L 9.078125 54.6875 
L 18.109375 54.6875 
L 18.109375 46.1875 
Q 20.953125 51.171875 25.484375 53.578125 
Q 30.03125 56 36.53125 56 
Q 37.453125 56 38.578125 55.875 
Q 39.703125 55.765625 41.0625 55.515625 
z
" id="DejaVuSans-114"/>
        <path d="M 30.609375 48.390625 
Q 23.390625 48.390625 19.1875 42.75 
Q 14.984375 37.109375 14.984375 27.296875 
Q 14.984375 17.484375 19.15625 11.84375 
Q 23.34375 6.203125 30.609375 6.203125 
Q 37.796875 6.203125 41.984375 11.859375 
Q 46.1875 17.53125 46.1875 27.296875 
Q 46.1875 37.015625 41.984375 42.703125 
Q 37.796875 48.390625 30.609375 48.390625 
z
M 30.609375 56 
Q 42.328125 56 49.015625 48.375 
Q 55.71875 40.765625 55.71875 27.296875 
Q 55.71875 13.875 49.015625 6.21875 
Q 42.328125 -1.421875 30.609375 -1.421875 
Q 18.84375 -1.421875 12.171875 6.21875 
Q 5.515625 13.875 5.515625 27.296875 
Q 5.515625 40.765625 12.171875 48.375 
Q 18.84375 56 30.609375 56 
z
" id="DejaVuSans-111"/>
       </defs>
       <use xlink:href="#DejaVuSans-90"/>
       <use x="68.505859" xlink:href="#DejaVuSans-95"/>
       <use x="118.505859" xlink:href="#DejaVuSans-49"/>
       <use x="182.128906" xlink:href="#DejaVuSans-95"/>
       <use x="232.128906" xlink:href="#DejaVuSans-122"/>
       <use x="284.619141" xlink:href="#DejaVuSans-101"/>
       <use x="346.142578" xlink:href="#DejaVuSans-114"/>
       <use x="385.005859" xlink:href="#DejaVuSans-111"/>
      </g>
     </g>
    </g>
    <g id="xtick_2">
     <g id="line2d_2">
      <g>
       <use style="stroke:#000000;stroke-width:0.8;" x="221.4" xlink:href="#mb287817539" y="252"/>
      </g>
     </g>
     <g id="text_2">
      <!-- Z_2_zero -->
      <g transform="translate(199.090625 266.421875)scale(0.1 -0.1)">
       <defs>
        <path d="M 19.1875 8.296875 
L 53.609375 8.296875 
L 53.609375 0 
L 7.328125 0 
L 7.328125 8.296875 
Q 12.9375 14.109375 22.625 23.890625 
Q 32.328125 33.6875 34.8125 36.53125 
Q 39.546875 41.84375 41.421875 45.53125 
Q 43.3125 49.21875 43.3125 52.78125 
Q 43.3125 58.59375 39.234375 62.25 
Q 35.15625 65.921875 28.609375 65.921875 
Q 23.96875 65.921875 18.8125 64.3125 
Q 13.671875 62.703125 7.8125 59.421875 
L 7.8125 69.390625 
Q 13.765625 71.78125 18.9375 73 
Q 24.125 74.21875 28.421875 74.21875 
Q 39.75 74.21875 46.484375 68.546875 
Q 53.21875 62.890625 53.21875 53.421875 
Q 53.21875 48.921875 51.53125 44.890625 
Q 49.859375 40.875 45.40625 35.40625 
Q 44.1875 33.984375 37.640625 27.21875 
Q 31.109375 20.453125 19.1875 8.296875 
z
" id="DejaVuSans-50"/>
       </defs>
       <use xlink:href="#DejaVuSans-90"/>
       <use x="68.505859" xlink:href="#DejaVuSans-95"/>
       <use x="118.505859" xlink:href="#DejaVuSans-50"/>
       <use x="182.128906" xlink:href="#DejaVuSans-95"/>
       <use x="232.128906" xlink:href="#DejaVuSans-122"/>
       <use x="284.619141" xlink:href="#DejaVuSans-101"/>
       <use x="346.142578" xlink:href="#DejaVuSans-114"/>
       <use x="385.005859" xlink:href="#DejaVuSans-111"/>
      </g>
     </g>
    </g>
    <g id="xtick_3">
     <g id="line2d_3">
      <g>
       <use style="stroke:#000000;stroke-width:0.8;" x="333" xlink:href="#mb287817539" y="252"/>
      </g>
     </g>
     <g id="text_3">
      <!-- Z_3_zero -->
      <g transform="translate(310.690625 266.421875)scale(0.1 -0.1)">
       <defs>
        <path d="M 40.578125 39.3125 
Q 47.65625 37.796875 51.625 33 
Q 55.609375 28.21875 55.609375 21.1875 
Q 55.609375 10.40625 48.1875 4.484375 
Q 40.765625 -1.421875 27.09375 -1.421875 
Q 22.515625 -1.421875 17.65625 -0.515625 
Q 12.796875 0.390625 7.625 2.203125 
L 7.625 11.71875 
Q 11.71875 9.328125 16.59375 8.109375 
Q 21.484375 6.890625 26.8125 6.890625 
Q 36.078125 6.890625 40.9375 10.546875 
Q 45.796875 14.203125 45.796875 21.1875 
Q 45.796875 27.640625 41.28125 31.265625 
Q 36.765625 34.90625 28.71875 34.90625 
L 20.21875 34.90625 
L 20.21875 43.015625 
L 29.109375 43.015625 
Q 36.375 43.015625 40.234375 45.921875 
Q 44.09375 48.828125 44.09375 54.296875 
Q 44.09375 59.90625 40.109375 62.90625 
Q 36.140625 65.921875 28.71875 65.921875 
Q 24.65625 65.921875 20.015625 65.03125 
Q 15.375 64.15625 9.8125 62.3125 
L 9.8125 71.09375 
Q 15.4375 72.65625 20.34375 73.4375 
Q 25.25 74.21875 29.59375 74.21875 
Q 40.828125 74.21875 47.359375 69.109375 
Q 53.90625 64.015625 53.90625 55.328125 
Q 53.90625 49.265625 50.4375 45.09375 
Q 46.96875 40.921875 40.578125 39.3125 
z
" id="DejaVuSans-51"/>
       </defs>
       <use xlink:href="#DejaVuSans-90"/>
       <use x="68.505859" xlink:href="#DejaVuSans-95"/>
       <use x="118.505859" xlink:href="#DejaVuSans-51"/>
       <use x="182.128906" xlink:href="#DejaVuSans-95"/>
       <use x="232.128906" xlink:href="#DejaVuSans-122"/>
       <use x="284.619141" xlink:href="#DejaVuSans-101"/>
       <use x="346.142578" xlink:href="#DejaVuSans-114"/>
       <use x="385.005859" xlink:href="#DejaVuSans-111"/>
      </g>
     </g>
    </g>
    <g id="text_4">
     <!-- set -->
     <g transform="translate(213.758594 280.378125)scale(0.1 -0.1)">
      <defs>
       <path d="M 44.28125 53.078125 
L 44.28125 44.578125 
Q 40.484375 46.53125 36.375 47.5 
Q 32.28125 48.484375 27.875 48.484375 
Q 21.1875 48.484375 17.84375 46.4375 
Q 14.5 44.390625 14.5 40.28125 
Q 14.5 37.15625 16.890625 35.375 
Q 19.28125 33.59375 26.515625 31.984375 
L 29.59375 31.296875 
Q 39.15625 29.25 43.1875 25.515625 
Q 47.21875 21.78125 47.21875 15.09375 
Q 47.21875 7.46875 41.1875 3.015625 
Q 35.15625 -1.421875 24.609375 -1.421875 
Q 20.21875 -1.421875 15.453125 -0.5625 
Q 10.6875 0.296875 5.421875 2 
L 5.421875 11.28125 
Q 10.40625 8.6875 15.234375 7.390625 
Q 20.0625 6.109375 24.8125 6.109375 
Q 31.15625 6.109375 34.5625 8.28125 
Q 37.984375 10.453125 37.984375 14.40625 
Q 37.984375 18.0625 35.515625 20.015625 
Q 33.0625 21.96875 24.703125 23.78125 
L 21.578125 24.515625 
Q 13.234375 26.265625 9.515625 29.90625 
Q 5.8125 33.546875 5.8125 39.890625 
Q 5.8125 47.609375 11.28125 51.796875 
Q 16.75 56 26.8125 56 
Q 31.78125 56 36.171875 55.265625 
Q 40.578125 54.546875 44.28125 53.078125 
z
" id="DejaVuSans-115"/>
       <path d="M 18.3125 70.21875 
L 18.3125 54.6875 
L 36.8125 54.6875 
L 36.8125 47.703125 
L 18.3125 47.703125 
L 18.3125 18.015625 
Q 18.3125 11.328125 20.140625 9.421875 
Q 21.96875 7.515625 27.59375 7.515625 
L 36.8125 7.515625 
L 36.8125 0 
L 27.59375 0 
Q 17.1875 0 13.234375 3.875 
Q 9.28125 7.765625 9.28125 18.015625 
L 9.28125 47.703125 
L 2.6875 47.703125 
L 2.6875 54.6875 
L 9.28125 54.6875 
L 9.28125 70.21875 
z
" id="DejaVuSans-116"/>
      </defs>
      <use xlink:href="#DejaVuSans-115"/>
      <use x="52.099609" xlink:href="#DejaVuSans-101"/>
      <use x="113.623047" xlink:href="#DejaVuSans-116"/>
     </g>
    </g>
   </g>
   <g id="matplotlib.axis_2">
    <g id="ytick_1">
     <g id="line2d_4">
      <defs>
       <path d="M 0 0 
L -3.5 0 
" id="m5ab4ac2fe2" style="stroke:#000000;stroke-width:0.8;"/>
      </defs>
      <g>
       <use style="stroke:#000000;stroke-width:0.8;" x="54" xlink:href="#m5ab4ac2fe2" y="233.008266"/>
      </g>
     </g>
     <g id="text_5">
      <!-- −4 -->
      <g transform="translate(32.257812 236.807484)scale(0.1 -0.1)">
       <defs>
        <path d="M 10.59375 35.5 
L 73.1875 35.5 
L 73.1875 27.203125 
L 10.59375 27.203125 
z
" id="DejaVuSans-8722"/>
        <path d="M 37.796875 64.3125 
L 12.890625 25.390625 
L 37.796875 25.390625 
z
M 35.203125 72.90625 
L 47.609375 72.90625 
L 47.609375 25.390625 
L 58.015625 25.390625 
L 58.015625 17.1875 
L 47.609375 17.1875 
L 47.609375 0 
L 37.796875 0 
L 37.796875 17.1875 
L 4.890625 17.1875 
L 4.890625 26.703125 
z
" id="DejaVuSans-52"/>
       </defs>
       <use xlink:href="#DejaVuSans-8722"/>
       <use x="83.789062" xlink:href="#DejaVuSans-52"/>
      </g>
     </g>
    </g>
    <g id="ytick_2">
     <g id="line2d_5">
      <g>
       <use style="stroke:#000000;stroke-width:0.8;" x="54" xlink:href="#m5ab4ac2fe2" y="204.717474"/>
      </g>
     </g>
     <g id="text_6">
      <!-- −2 -->
      <g transform="translate(32.257812 208.516693)scale(0.1 -0.1)">
       <use xlink:href="#DejaVuSans-8722"/>
       <use x="83.789062" xlink:href="#DejaVuSans-50"/>
      </g>
     </g>
    </g>
    <g id="ytick_3">
     <g id="line2d_6">
      <g>
       <use style="stroke:#000000;stroke-width:0.8;" x="54" xlink:href="#m5ab4ac2fe2" y="176.426682"/>
      </g>
     </g>
     <g id="text_7">
      <!-- 0 -->
      <g transform="translate(40.6375 180.225901)scale(0.1 -0.1)">
       <defs>
        <path d="M 31.78125 66.40625 
Q 24.171875 66.40625 20.328125 58.90625 
Q 16.5 51.421875 16.5 36.375 
Q 16.5 21.390625 20.328125 13.890625 
Q 24.171875 6.390625 31.78125 6.390625 
Q 39.453125 6.390625 43.28125 13.890625 
Q 47.125 21.390625 47.125 36.375 
Q 47.125 51.421875 43.28125 58.90625 
Q 39.453125 66.40625 31.78125 66.40625 
z
M 31.78125 74.21875 
Q 44.046875 74.21875 50.515625 64.515625 
Q 56.984375 54.828125 56.984375 36.375 
Q 56.984375 17.96875 50.515625 8.265625 
Q 44.046875 -1.421875 31.78125 -1.421875 
Q 19.53125 -1.421875 13.0625 8.265625 
Q 6.59375 17.96875 6.59375 36.375 
Q 6.59375 54.828125 13.0625 64.515625 
Q 19.53125 74.21875 31.78125 74.21875 
z
" id="DejaVuSans-48"/>
       </defs>
       <use xlink:href="#DejaVuSans-48"/>
      </g>
     </g>
    </g>
    <g id="ytick_4">
     <g id="line2d_7">
      <g>
       <use style="stroke:#000000;stroke-width:0.8;" x="54" xlink:href="#m5ab4ac2fe2" y="148.13589"/>
      </g>
     </g>
     <g id="text_8">
      <!-- 2 -->
      <g transform="translate(40.6375 151.935109)scale(0.1 -0.1)">
       <use xlink:href="#DejaVuSans-50"/>
      </g>
     </g>
    </g>
    <g id="ytick_5">
     <g id="line2d_8">
      <g>
       <use style="stroke:#000000;stroke-width:0.8;" x="54" xlink:href="#m5ab4ac2fe2" y="119.845098"/>
      </g>
     </g>
     <g id="text_9">
      <!-- 4 -->
      <g transform="translate(40.6375 123.644317)scale(0.1 -0.1)">
       <use xlink:href="#DejaVuSans-52"/>
      </g>
     </g>
    </g>
    <g id="ytick_6">
     <g id="line2d_9">
      <g>
       <use style="stroke:#000000;stroke-width:0.8;" x="54" xlink:href="#m5ab4ac2fe2" y="91.554306"/>
      </g>
     </g>
     <g id="text_10">
      <!-- 6 -->
      <g transform="translate(40.6375 95.353525)scale(0.1 -0.1)">
       <defs>
        <path d="M 33.015625 40.375 
Q 26.375 40.375 22.484375 35.828125 
Q 18.609375 31.296875 18.609375 23.390625 
Q 18.609375 15.53125 22.484375 10.953125 
Q 26.375 6.390625 33.015625 6.390625 
Q 39.65625 6.390625 43.53125 10.953125 
Q 47.40625 15.53125 47.40625 23.390625 
Q 47.40625 31.296875 43.53125 35.828125 
Q 39.65625 40.375 33.015625 40.375 
z
M 52.59375 71.296875 
L 52.59375 62.3125 
Q 48.875 64.0625 45.09375 64.984375 
Q 41.3125 65.921875 37.59375 65.921875 
Q 27.828125 65.921875 22.671875 59.328125 
Q 17.53125 52.734375 16.796875 39.40625 
Q 19.671875 43.65625 24.015625 45.921875 
Q 28.375 48.1875 33.59375 48.1875 
Q 44.578125 48.1875 50.953125 41.515625 
Q 57.328125 34.859375 57.328125 23.390625 
Q 57.328125 12.15625 50.6875 5.359375 
Q 44.046875 -1.421875 33.015625 -1.421875 
Q 20.359375 -1.421875 13.671875 8.265625 
Q 6.984375 17.96875 6.984375 36.375 
Q 6.984375 53.65625 15.1875 63.9375 
Q 23.390625 74.21875 37.203125 74.21875 
Q 40.921875 74.21875 44.703125 73.484375 
Q 48.484375 72.75 52.59375 71.296875 
z
" id="DejaVuSans-54"/>
       </defs>
       <use xlink:href="#DejaVuSans-54"/>
      </g>
     </g>
    </g>
    <g id="ytick_7">
     <g id="line2d_10">
      <g>
       <use style="stroke:#000000;stroke-width:0.8;" x="54" xlink:href="#m5ab4ac2fe2" y="63.263514"/>
      </g>
     </g>
     <g id="text_11">
      <!-- 8 -->
      <g transform="translate(40.6375 67.062733)scale(0.1 -0.1)">
       <defs>
        <path d="M 31.78125 34.625 
Q 24.75 34.625 20.71875 30.859375 
Q 16.703125 27.09375 16.703125 20.515625 
Q 16.703125 13.921875 20.71875 10.15625 
Q 24.75 6.390625 31.78125 6.390625 
Q 38.8125 6.390625 42.859375 10.171875 
Q 46.921875 13.96875 46.921875 20.515625 
Q 46.921875 27.09375 42.890625 30.859375 
Q 38.875 34.625 31.78125 34.625 
z
M 21.921875 38.8125 
Q 15.578125 40.375 12.03125 44.71875 
Q 8.5 49.078125 8.5 55.328125 
Q 8.5 64.0625 14.71875 69.140625 
Q 20.953125 74.21875 31.78125 74.21875 
Q 42.671875 74.21875 48.875 69.140625 
Q 55.078125 64.0625 55.078125 55.328125 
Q 55.078125 49.078125 51.53125 44.71875 
Q 48 40.375 41.703125 38.8125 
Q 48.828125 37.15625 52.796875 32.3125 
Q 56.78125 27.484375 56.78125 20.515625 
Q 56.78125 9.90625 50.3125 4.234375 
Q 43.84375 -1.421875 31.78125 -1.421875 
Q 19.734375 -1.421875 13.25 4.234375 
Q 6.78125 9.90625 6.78125 20.515625 
Q 6.78125 27.484375 10.78125 32.3125 
Q 14.796875 37.15625 21.921875 38.8125 
z
M 18.3125 54.390625 
Q 18.3125 48.734375 21.84375 45.5625 
Q 25.390625 42.390625 31.78125 42.390625 
Q 38.140625 42.390625 41.71875 45.5625 
Q 45.3125 48.734375 45.3125 54.390625 
Q 45.3125 60.0625 41.71875 63.234375 
Q 38.140625 66.40625 31.78125 66.40625 
Q 25.390625 66.40625 21.84375 63.234375 
Q 18.3125 60.0625 18.3125 54.390625 
z
" id="DejaVuSans-56"/>
       </defs>
       <use xlink:href="#DejaVuSans-56"/>
      </g>
     </g>
    </g>
    <g id="ytick_8">
     <g id="line2d_11">
      <g>
       <use style="stroke:#000000;stroke-width:0.8;" x="54" xlink:href="#m5ab4ac2fe2" y="34.972722"/>
      </g>
     </g>
     <g id="text_12">
      <!-- 10 -->
      <g transform="translate(34.275 38.771941)scale(0.1 -0.1)">
       <use xlink:href="#DejaVuSans-49"/>
       <use x="63.623047" xlink:href="#DejaVuSans-48"/>
      </g>
     </g>
    </g>
    <g id="text_13">
     <!-- value -->
     <g transform="translate(26.178125 156.937813)rotate(-90)scale(0.1 -0.1)">
      <defs>
       <path d="M 2.984375 54.6875 
L 12.5 54.6875 
L 29.59375 8.796875 
L 46.6875 54.6875 
L 56.203125 54.6875 
L 35.6875 0 
L 23.484375 0 
z
" id="DejaVuSans-118"/>
       <path d="M 34.28125 27.484375 
Q 23.390625 27.484375 19.1875 25 
Q 14.984375 22.515625 14.984375 16.5 
Q 14.984375 11.71875 18.140625 8.90625 
Q 21.296875 6.109375 26.703125 6.109375 
Q 34.1875 6.109375 38.703125 11.40625 
Q 43.21875 16.703125 43.21875 25.484375 
L 43.21875 27.484375 
z
M 52.203125 31.203125 
L 52.203125 0 
L 43.21875 0 
L 43.21875 8.296875 
Q 40.140625 3.328125 35.546875 0.953125 
Q 30.953125 -1.421875 24.3125 -1.421875 
Q 15.921875 -1.421875 10.953125 3.296875 
Q 6 8.015625 6 15.921875 
Q 6 25.140625 12.171875 29.828125 
Q 18.359375 34.515625 30.609375 34.515625 
L 43.21875 34.515625 
L 43.21875 35.40625 
Q 43.21875 41.609375 39.140625 45 
Q 35.0625 48.390625 27.6875 48.390625 
Q 23 48.390625 18.546875 47.265625 
Q 14.109375 46.140625 10.015625 43.890625 
L 10.015625 52.203125 
Q 14.9375 54.109375 19.578125 55.046875 
Q 24.21875 56 28.609375 56 
Q 40.484375 56 46.34375 49.84375 
Q 52.203125 43.703125 52.203125 31.203125 
z
" id="DejaVuSans-97"/>
       <path d="M 9.421875 75.984375 
L 18.40625 75.984375 
L 18.40625 0 
L 9.421875 0 
z
" id="DejaVuSans-108"/>
       <path d="M 8.5 21.578125 
L 8.5 54.6875 
L 17.484375 54.6875 
L 17.484375 21.921875 
Q 17.484375 14.15625 20.5 10.265625 
Q 23.53125 6.390625 29.59375 6.390625 
Q 36.859375 6.390625 41.078125 11.03125 
Q 45.3125 15.671875 45.3125 23.6875 
L 45.3125 54.6875 
L 54.296875 54.6875 
L 54.296875 0 
L 45.3125 0 
L 45.3125 8.40625 
Q 42.046875 3.421875 37.71875 1 
Q 33.40625 -1.421875 27.6875 -1.421875 
Q 18.265625 -1.421875 13.375 4.4375 
Q 8.5 10.296875 8.5 21.578125 
z
M 31.109375 56 
z
" id="DejaVuSans-117"/>
      </defs>
      <use xlink:href="#DejaVuSans-118"/>
      <use x="59.179688" xlink:href="#DejaVuSans-97"/>
      <use x="120.458984" xlink:href="#DejaVuSans-108"/>
      <use x="148.242188" xlink:href="#DejaVuSans-117"/>
      <use x="211.621094" xlink:href="#DejaVuSans-101"/>
     </g>
    </g>
   </g>
   <g id="line2d_12">
    <path clip-path="url(#p70412de3b4)" d="M 80.04 193.243305 
L 80.04 93.285639 
" style="fill:none;stroke:#3d3d3d;stroke-linecap:square;stroke-width:1.5;"/>
   </g>
   <g id="line2d_13">
    <path clip-path="url(#p70412de3b4)" d="M 80.04 155.849666 
L 80.04 130.629415 
" style="fill:none;stroke:#3d3d3d;stroke-linecap:square;stroke-width:4.5;"/>
   </g>
   <g id="line2d_14">
    <path clip-path="url(#p70412de3b4)" d="M 221.4 205.074358 
L 221.4 68.202948 
" style="fill:none;stroke:#3d3d3d;stroke-linecap:square;stroke-width:1.5;"/>
   </g>
   <g id="line2d_15">
    <path clip-path="url(#p70412de3b4)" d="M 221.4 157.084988 
L 221.4 121.086504 
" style="fill:none;stroke:#3d3d3d;stroke-linecap:square;stroke-width:4.5;"/>
   </g>
   <g id="line2d_16">
    <path clip-path="url(#p70412de3b4)" d="M 362.76 205.923435 
L 362.76 65.280433 
" style="fill:none;stroke:#3d3d3d;stroke-linecap:square;stroke-width:1.5;"/>
   </g>
   <g id="line2d_17">
    <path clip-path="url(#p70412de3b4)" d="M 362.76 156.330419 
L 362.76 119.601123 
" style="fill:none;stroke:#3d3d3d;stroke-linecap:square;stroke-width:4.5;"/>
   </g>
   <g id="patch_6">
    <path d="M 54 252 
L 54 34.56 
" style="fill:none;stroke:#000000;stroke-linecap:square;stroke-linejoin:miter;stroke-width:0.8;"/>
   </g>
   <g id="patch_7">
    <path d="M 388.8 252 
L 388.8 34.56 
" style="fill:none;stroke:#000000;stroke-linecap:square;stroke-linejoin:miter;stroke-width:0.8;"/>
   </g>
   <g id="patch_8">
    <path d="M 54 252 
L 388.8 252 
" style="fill:none;stroke:#000000;stroke-linecap:square;stroke-linejoin:miter;stroke-width:0.8;"/>
   </g>
   <g id="patch_9">
    <path d="M 54 34.56 
L 388.8 34.56 
" style="fill:none;stroke:#000000;stroke-linecap:square;stroke-linejoin:miter;stroke-width:0.8;"/>
   </g>
   <g id="PathCollection_1">
    <defs>
     <path d="M 0 1.5 
C 0.397805 1.5 0.77937 1.341951 1.06066 1.06066 
C 1.341951 0.77937 1.5 0.397805 1.5 0 
C 1.5 -0.397805 1.341951 -0.77937 1.06066 -1.06066 
C 0.77937 -1.341951 0.397805 -1.5 0 -1.5 
C -0.397805 -1.5 -0.77937 -1.341951 -1.06066 -1.06066 
C -1.341951 -0.77937 -1.5 -0.397805 -1.5 0 
C -1.5 0.397805 -1.341951 0.77937 -1.06066 1.06066 
C -0.77937 1.341951 -0.397805 1.5 0 1.5 
z
" id="m0b622ef810" style="stroke:#3d3d3d;"/>
    </defs>
    <g clip-path="url(#p70412de3b4)">
     <use style="fill:#ffffff;stroke:#3d3d3d;" x="80.04" xlink:href="#m0b622ef810" y="144.072948"/>
    </g>
   </g>
   <g id="PathCollection_2">
    <g clip-path="url(#p70412de3b4)">
     <use style="fill:#ffffff;stroke:#3d3d3d;" x="221.4" xlink:href="#m0b622ef810" y="140.202352"/>
    </g>
   </g>
   <g id="PathCollection_3">
    <g clip-path="url(#p70412de3b4)">
     <use style="fill:#ffffff;stroke:#3d3d3d;" x="362.76" xlink:href="#m0b622ef810" y="139.176379"/>
    </g>
   </g>
   <g id="legend_1">
    <g id="patch_10">
     <path d="M 305.18125 102.106875 
L 381.8 102.106875 
Q 383.8 102.106875 383.8 100.106875 
L 383.8 41.56 
Q 383.8 39.56 381.8 39.56 
L 305.18125 39.56 
Q 303.18125 39.56 303.18125 41.56 
L 303.18125 100.106875 
Q 303.18125 102.106875 305.18125 102.106875 
z
" style="fill:#ffffff;opacity:0.8;stroke:#cccccc;stroke-linejoin:miter;"/>
    </g>
    <g id="text_14">
     <!-- set -->
     <g transform="translate(335.849219 51.158437)scale(0.1 -0.1)">
      <use xlink:href="#DejaVuSans-115"/>
      <use x="52.099609" xlink:href="#DejaVuSans-101"/>
      <use x="113.623047" xlink:href="#DejaVuSans-116"/>
     </g>
    </g>
    <g id="patch_11">
     <path d="M 307.18125 65.836562 
L 327.18125 65.836562 
L 327.18125 58.836562 
L 307.18125 58.836562 
z
" style="fill:#3274a1;stroke:#3d3d3d;stroke-linejoin:miter;stroke-width:0.75;"/>
    </g>
    <g id="text_15">
     <!-- Z_1_zero -->
     <g transform="translate(335.18125 65.836562)scale(0.1 -0.1)">
      <use xlink:href="#DejaVuSans-90"/>
      <use x="68.505859" xlink:href="#DejaVuSans-95"/>
      <use x="118.505859" xlink:href="#DejaVuSans-49"/>
      <use x="182.128906" xlink:href="#DejaVuSans-95"/>
      <use x="232.128906" xlink:href="#DejaVuSans-122"/>
      <use x="284.619141" xlink:href="#DejaVuSans-101"/>
      <use x="346.142578" xlink:href="#DejaVuSans-114"/>
      <use x="385.005859" xlink:href="#DejaVuSans-111"/>
     </g>
    </g>
    <g id="patch_12">
     <path d="M 307.18125 80.792812 
L 327.18125 80.792812 
L 327.18125 73.792812 
L 307.18125 73.792812 
z
" style="fill:#e1812c;stroke:#3d3d3d;stroke-linejoin:miter;stroke-width:0.75;"/>
    </g>
    <g id="text_16">
     <!-- Z_2_zero -->
     <g transform="translate(335.18125 80.792812)scale(0.1 -0.1)">
      <use xlink:href="#DejaVuSans-90"/>
      <use x="68.505859" xlink:href="#DejaVuSans-95"/>
      <use x="118.505859" xlink:href="#DejaVuSans-50"/>
      <use x="182.128906" xlink:href="#DejaVuSans-95"/>
      <use x="232.128906" xlink:href="#DejaVuSans-122"/>
      <use x="284.619141" xlink:href="#DejaVuSans-101"/>
      <use x="346.142578" xlink:href="#DejaVuSans-114"/>
      <use x="385.005859" xlink:href="#DejaVuSans-111"/>
     </g>
    </g>
    <g id="patch_13">
     <path d="M 307.18125 95.749062 
L 327.18125 95.749062 
L 327.18125 88.749062 
L 307.18125 88.749062 
z
" style="fill:#3a923a;stroke:#3d3d3d;stroke-linejoin:miter;stroke-width:0.75;"/>
    </g>
    <g id="text_17">
     <!-- Z_3_zero -->
     <g transform="translate(335.18125 95.749062)scale(0.1 -0.1)">
      <use xlink:href="#DejaVuSans-90"/>
      <use x="68.505859" xlink:href="#DejaVuSans-95"/>
      <use x="118.505859" xlink:href="#DejaVuSans-51"/>
      <use x="182.128906" xlink:href="#DejaVuSans-95"/>
      <use x="232.128906" xlink:href="#DejaVuSans-122"/>
      <use x="284.619141" xlink:href="#DejaVuSans-101"/>
      <use x="346.142578" xlink:href="#DejaVuSans-114"/>
      <use x="385.005859" xlink:href="#DejaVuSans-111"/>
     </g>
    </g>
   </g>
  </g>
 </g>
 <defs>
  <clipPath id="p70412de3b4">
   <rect height="217.44" width="334.8" x="54" y="34.56"/>
  </clipPath>
 </defs>
</svg>
