<?xml version="1.0" encoding="utf-8" standalone="no"?>
<!DOCTYPE svg PUBLIC "-//W3C//DTD SVG 1.1//EN"
  "http://www.w3.org/Graphics/SVG/1.1/DTD/svg11.dtd">
<!-- Created with matplotlib (https://matplotlib.org/) -->
<svg height="288pt" version="1.1" viewBox="0 0 432 288" width="432pt" xmlns="http://www.w3.org/2000/svg" xmlns:xlink="http://www.w3.org/1999/xlink">
 <metadata>
  <rdf:RDF xmlns:cc="http://creativecommons.org/ns#" xmlns:dc="http://purl.org/dc/elements/1.1/" xmlns:rdf="http://www.w3.org/1999/02/22-rdf-syntax-ns#">
   <cc:Work>
    <dc:type rdf:resource="http://purl.org/dc/dcmitype/StillImage"/>
    <dc:date>2022-07-16T11:49:04.534341</dc:date>
    <dc:format>image/svg+xml</dc:format>
    <dc:creator>
     <cc:Agent>
      <dc:title>Matplotlib v3.3.4, https://matplotlib.org/</dc:title>
     </cc:Agent>
    </dc:creator>
   </cc:Work>
  </rdf:RDF>
 </metadata>
 <defs>
  <style type="text/css">*{stroke-linecap:butt;stroke-linejoin:round;}</style>
 </defs>
 <g id="figure_1">
  <g id="patch_1">
   <path d="M 0 288 
L 432 288 
L 432 0 
L 0 0 
z
" style="fill:#ffffff;"/>
  </g>
  <g id="axes_1">
   <g id="patch_2">
    <path d="M 54 252 
L 388.8 252 
L 388.8 34.56 
L 54 34.56 
z
" style="fill:#ffffff;"/>
   </g>
   <g id="PolyCollection_1">
    <defs>
     <path d="M 80.053261 -83.782554 
L 80.026739 -83.782554 
L 80.027764 -85.387085 
L 80.030388 -86.991616 
L 80.033571 -88.596147 
L 80.036334 -90.200678 
L 80.038196 -91.805209 
L 80.039151 -93.409739 
L 80.03935 -95.01427 
L 80.038786 -96.618801 
L 80.037159 -98.223332 
L 80.033971 -99.827863 
L 80.028876 -101.432394 
L 80.022113 -103.036925 
L 80.014614 -104.641455 
L 80.00755 -106.245986 
L 80.001636 -107.850517 
L 79.996974 -109.455048 
L 79.99369 -111.059579 
L 79.992515 -112.66411 
L 79.99436 -114.268641 
L 79.999187 -115.873171 
L 80.005527 -117.477702 
L 80.011326 -119.082233 
L 80.015244 -120.686764 
L 80.017109 -122.291295 
L 80.017329 -123.895826 
L 80.016071 -125.500357 
L 80.012938 -127.104887 
L 80.007161 -128.709418 
L 79.99812 -130.313949 
L 79.985986 -131.91848 
L 79.972026 -133.523011 
L 79.958056 -135.127542 
L 79.945249 -136.732073 
L 79.933276 -138.336603 
L 79.920496 -139.941134 
L 79.9049 -141.545665 
L 79.884965 -143.150196 
L 79.859863 -144.754727 
L 79.829134 -146.359258 
L 79.792287 -147.963788 
L 79.748917 -149.568319 
L 79.69956 -151.17285 
L 79.646746 -152.777381 
L 79.595169 -154.381912 
L 79.550242 -155.986443 
L 79.515627 -157.590974 
L 79.491479 -159.195504 
L 79.474494 -160.800035 
L 79.459053 -162.404566 
L 79.438315 -164.009097 
L 79.40582 -165.613628 
L 79.358708 -167.218159 
L 79.300912 -168.82269 
L 79.242439 -170.42722 
L 79.193403 -172.031751 
L 79.156899 -173.636282 
L 79.126728 -175.240813 
L 79.091773 -176.845344 
L 79.043031 -178.449875 
L 78.977514 -180.054406 
L 78.896821 -181.658936 
L 78.803079 -183.263467 
L 78.696277 -184.867998 
L 78.574514 -186.472529 
L 78.43598 -188.07706 
L 78.281359 -189.681591 
L 78.116067 -191.286121 
L 77.950929 -192.890652 
L 77.799118 -194.495183 
L 77.669197 -196.099714 
L 77.557711 -197.704245 
L 77.446262 -199.308776 
L 77.306184 -200.913307 
L 77.110083 -202.517837 
L 76.845236 -204.122368 
L 76.521468 -205.726899 
L 76.168516 -207.33143 
L 75.823454 -208.935961 
L 75.512818 -210.540492 
L 75.235796 -212.145023 
L 74.95617 -213.749553 
L 74.609281 -215.354084 
L 74.123268 -216.958615 
L 73.445031 -218.563146 
L 72.558048 -220.167677 
L 71.483674 -221.772208 
L 70.268471 -223.376739 
L 68.972299 -224.981269 
L 67.673358 -226.5858 
L 66.488645 -228.190331 
L 65.585598 -229.794862 
L 65.16 -231.399393 
L 65.38097 -233.003924 
L 66.329397 -234.608454 
L 67.95819 -236.212985 
L 70.088114 -237.817516 
L 72.441373 -239.422047 
L 74.708638 -241.026578 
L 76.632125 -242.631109 
L 83.447875 -242.631109 
L 83.447875 -242.631109 
L 85.371362 -241.026578 
L 87.638627 -239.422047 
L 89.991886 -237.817516 
L 92.12181 -236.212985 
L 93.750603 -234.608454 
L 94.69903 -233.003924 
L 94.92 -231.399393 
L 94.494402 -229.794862 
L 93.591355 -228.190331 
L 92.406642 -226.5858 
L 91.107701 -224.981269 
L 89.811529 -223.376739 
L 88.596326 -221.772208 
L 87.521952 -220.167677 
L 86.634969 -218.563146 
L 85.956732 -216.958615 
L 85.470719 -215.354084 
L 85.12383 -213.749553 
L 84.844204 -212.145023 
L 84.567182 -210.540492 
L 84.256546 -208.935961 
L 83.911484 -207.33143 
L 83.558532 -205.726899 
L 83.234764 -204.122368 
L 82.969917 -202.517837 
L 82.773816 -200.913307 
L 82.633738 -199.308776 
L 82.522289 -197.704245 
L 82.410803 -196.099714 
L 82.280882 -194.495183 
L 82.129071 -192.890652 
L 81.963933 -191.286121 
L 81.798641 -189.681591 
L 81.64402 -188.07706 
L 81.505486 -186.472529 
L 81.383723 -184.867998 
L 81.276921 -183.263467 
L 81.183179 -181.658936 
L 81.102486 -180.054406 
L 81.036969 -178.449875 
L 80.988227 -176.845344 
L 80.953272 -175.240813 
L 80.923101 -173.636282 
L 80.886597 -172.031751 
L 80.837561 -170.42722 
L 80.779088 -168.82269 
L 80.721292 -167.218159 
L 80.67418 -165.613628 
L 80.641685 -164.009097 
L 80.620947 -162.404566 
L 80.605506 -160.800035 
L 80.588521 -159.195504 
L 80.564373 -157.590974 
L 80.529758 -155.986443 
L 80.484831 -154.381912 
L 80.433254 -152.777381 
L 80.38044 -151.17285 
L 80.331083 -149.568319 
L 80.287713 -147.963788 
L 80.250866 -146.359258 
L 80.220137 -144.754727 
L 80.195035 -143.150196 
L 80.1751 -141.545665 
L 80.159504 -139.941134 
L 80.146724 -138.336603 
L 80.134751 -136.732073 
L 80.121944 -135.127542 
L 80.107974 -133.523011 
L 80.094014 -131.91848 
L 80.08188 -130.313949 
L 80.072839 -128.709418 
L 80.067062 -127.104887 
L 80.063929 -125.500357 
L 80.062671 -123.895826 
L 80.062891 -122.291295 
L 80.064756 -120.686764 
L 80.068674 -119.082233 
L 80.074473 -117.477702 
L 80.080813 -115.873171 
L 80.08564 -114.268641 
L 80.087485 -112.66411 
L 80.08631 -111.059579 
L 80.083026 -109.455048 
L 80.078364 -107.850517 
L 80.07245 -106.245986 
L 80.065386 -104.641455 
L 80.057887 -103.036925 
L 80.051124 -101.432394 
L 80.046029 -99.827863 
L 80.042841 -98.223332 
L 80.041214 -96.618801 
L 80.04065 -95.01427 
L 80.040849 -93.409739 
L 80.041804 -91.805209 
L 80.043666 -90.200678 
L 80.046429 -88.596147 
L 80.049612 -86.991616 
L 80.052236 -85.387085 
L 80.053261 -83.782554 
z
" id="m230ee54464" style="stroke:#3d3d3d;stroke-width:1.5;"/>
    </defs>
    <g clip-path="url(#p366fb90b6f)">
     <use style="fill:#3274a1;stroke:#3d3d3d;stroke-width:1.5;" x="0" xlink:href="#m230ee54464" y="288"/>
    </g>
   </g>
   <g id="PolyCollection_2">
    <defs>
     <path d="M 221.444651 -45.883636 
L 221.355349 -45.883636 
L 221.357539 -47.880331 
L 221.363483 -49.877025 
L 221.371599 -51.873719 
L 221.380024 -53.870413 
L 221.387294 -55.867107 
L 221.392691 -57.863802 
L 221.396198 -59.860496 
L 221.398211 -61.85719 
L 221.399238 -63.853884 
L 221.399703 -65.850579 
L 221.399883 -67.847273 
L 221.399917 -69.843967 
L 221.399834 -71.840661 
L 221.399565 -73.837355 
L 221.398919 -75.83405 
L 221.397559 -77.830744 
L 221.395013 -79.827438 
L 221.39078 -81.824132 
L 221.384573 -83.820826 
L 221.376613 -85.817521 
L 221.367807 -87.814215 
L 221.359574 -89.810909 
L 221.353229 -91.807603 
L 221.349149 -93.804298 
L 221.346188 -95.800992 
L 221.341822 -97.797686 
L 221.333121 -99.79438 
L 221.318179 -101.791074 
L 221.297249 -103.787769 
L 221.272897 -105.784463 
L 221.248976 -107.781157 
L 221.228859 -109.777851 
L 221.213825 -111.774545 
L 221.202452 -113.77124 
L 221.191262 -115.767934 
L 221.176144 -117.764628 
L 221.153766 -119.761322 
L 221.122356 -121.758017 
L 221.081809 -123.754711 
L 221.033434 -125.751405 
L 220.979662 -127.748099 
L 220.923796 -129.744793 
L 220.869662 -131.741488 
L 220.820984 -133.738182 
L 220.780244 -135.734876 
L 220.746968 -137.73157 
L 220.715802 -139.728264 
L 220.675532 -141.724959 
L 220.610688 -143.721653 
L 220.506568 -145.718347 
L 220.356487 -147.715041 
L 220.167697 -149.711736 
L 219.961825 -151.70843 
L 219.767982 -153.705124 
L 219.610934 -155.701818 
L 219.500232 -157.698512 
L 219.426164 -159.695207 
L 219.36471 -161.691901 
L 219.288679 -163.688595 
L 219.179154 -165.685289 
L 219.031786 -167.681983 
L 218.855481 -169.678678 
L 218.664846 -171.675372 
L 218.470531 -173.672066 
L 218.27251 -175.66876 
L 218.059766 -177.665455 
L 217.816495 -179.662149 
L 217.531282 -181.658843 
L 217.203781 -183.655537 
L 216.844549 -185.652231 
L 216.467443 -187.648926 
L 216.078601 -189.64562 
L 215.668699 -191.642314 
L 215.214162 -193.639008 
L 214.688416 -195.635702 
L 214.078369 -197.632397 
L 213.397388 -199.629091 
L 212.686482 -201.625785 
L 212.000826 -203.622479 
L 211.386934 -205.619174 
L 210.862234 -207.615868 
L 210.4086 -209.612562 
L 209.983584 -211.609256 
L 209.542268 -213.60595 
L 209.05695 -215.602645 
L 208.525456 -217.599339 
L 207.968622 -219.596033 
L 207.424872 -221.592727 
L 206.949162 -223.589421 
L 206.616134 -225.586116 
L 206.52 -227.58281 
L 206.762778 -229.579504 
L 207.428802 -231.576198 
L 208.552837 -233.572893 
L 210.095508 -235.569587 
L 211.939127 -237.566281 
L 213.909106 -239.562975 
L 215.814738 -241.559669 
L 217.494242 -243.556364 
L 225.305758 -243.556364 
L 225.305758 -243.556364 
L 226.985262 -241.559669 
L 228.890894 -239.562975 
L 230.860873 -237.566281 
L 232.704492 -235.569587 
L 234.247163 -233.572893 
L 235.371198 -231.576198 
L 236.037222 -229.579504 
L 236.28 -227.58281 
L 236.183866 -225.586116 
L 235.850838 -223.589421 
L 235.375128 -221.592727 
L 234.831378 -219.596033 
L 234.274544 -217.599339 
L 233.74305 -215.602645 
L 233.257732 -213.60595 
L 232.816416 -211.609256 
L 232.3914 -209.612562 
L 231.937766 -207.615868 
L 231.413066 -205.619174 
L 230.799174 -203.622479 
L 230.113518 -201.625785 
L 229.402612 -199.629091 
L 228.721631 -197.632397 
L 228.111584 -195.635702 
L 227.585838 -193.639008 
L 227.131301 -191.642314 
L 226.721399 -189.64562 
L 226.332557 -187.648926 
L 225.955451 -185.652231 
L 225.596219 -183.655537 
L 225.268718 -181.658843 
L 224.983505 -179.662149 
L 224.740234 -177.665455 
L 224.52749 -175.66876 
L 224.329469 -173.672066 
L 224.135154 -171.675372 
L 223.944519 -169.678678 
L 223.768214 -167.681983 
L 223.620846 -165.685289 
L 223.511321 -163.688595 
L 223.43529 -161.691901 
L 223.373836 -159.695207 
L 223.299768 -157.698512 
L 223.189066 -155.701818 
L 223.032018 -153.705124 
L 222.838175 -151.70843 
L 222.632303 -149.711736 
L 222.443513 -147.715041 
L 222.293432 -145.718347 
L 222.189312 -143.721653 
L 222.124468 -141.724959 
L 222.084198 -139.728264 
L 222.053032 -137.73157 
L 222.019756 -135.734876 
L 221.979016 -133.738182 
L 221.930338 -131.741488 
L 221.876204 -129.744793 
L 221.820338 -127.748099 
L 221.766566 -125.751405 
L 221.718191 -123.754711 
L 221.677644 -121.758017 
L 221.646234 -119.761322 
L 221.623856 -117.764628 
L 221.608738 -115.767934 
L 221.597548 -113.77124 
L 221.586175 -111.774545 
L 221.571141 -109.777851 
L 221.551024 -107.781157 
L 221.527103 -105.784463 
L 221.502751 -103.787769 
L 221.481821 -101.791074 
L 221.466879 -99.79438 
L 221.458178 -97.797686 
L 221.453812 -95.800992 
L 221.450851 -93.804298 
L 221.446771 -91.807603 
L 221.440426 -89.810909 
L 221.432193 -87.814215 
L 221.423387 -85.817521 
L 221.415427 -83.820826 
L 221.40922 -81.824132 
L 221.404987 -79.827438 
L 221.402441 -77.830744 
L 221.401081 -75.83405 
L 221.400435 -73.837355 
L 221.400166 -71.840661 
L 221.400083 -69.843967 
L 221.400117 -67.847273 
L 221.400297 -65.850579 
L 221.400762 -63.853884 
L 221.401789 -61.85719 
L 221.403802 -59.860496 
L 221.407309 -57.863802 
L 221.412706 -55.867107 
L 221.419976 -53.870413 
L 221.428401 -51.873719 
L 221.436517 -49.877025 
L 221.442461 -47.880331 
L 221.444651 -45.883636 
z
" id="mac3de3cb66" style="stroke:#3d3d3d;stroke-width:1.5;"/>
    </defs>
    <g clip-path="url(#p366fb90b6f)">
     <use style="fill:#e1812c;stroke:#3d3d3d;stroke-width:1.5;" x="0" xlink:href="#mac3de3cb66" y="288"/>
    </g>
   </g>
   <g id="PolyCollection_3">
    <defs>
     <path d="M 362.803388 -76.467742 
L 362.716612 -76.467742 
L 362.718038 -78.141706 
L 362.722042 -79.815669 
L 362.72784 -81.489632 
L 362.734377 -83.163596 
L 362.74057 -84.837559 
L 362.745496 -86.511522 
L 362.748462 -88.185486 
L 362.748964 -89.859449 
L 362.74662 -91.533412 
L 362.741125 -93.207376 
L 362.732306 -94.881339 
L 362.720251 -96.555302 
L 362.705459 -98.229266 
L 362.688912 -99.903229 
L 362.67199 -101.577193 
L 362.656205 -103.251156 
L 362.64278 -104.925119 
L 362.632201 -106.599083 
L 362.623875 -108.273046 
L 362.61603 -109.947009 
L 362.605902 -111.620973 
L 362.590224 -113.294936 
L 362.565891 -114.968899 
L 362.530652 -116.642863 
L 362.483646 -118.316826 
L 362.425637 -119.990789 
L 362.358912 -121.664753 
L 362.286902 -123.338716 
L 362.213673 -125.012679 
L 362.143425 -126.686643 
L 362.080064 -128.360606 
L 362.026804 -130.03457 
L 361.985714 -131.708533 
L 361.957176 -133.382496 
L 361.939346 -135.05646 
L 361.927872 -136.730423 
L 361.916138 -138.404386 
L 361.896228 -140.07835 
L 361.860538 -141.752313 
L 361.803669 -143.426276 
L 361.724042 -145.10024 
L 361.62465 -146.774203 
L 361.512602 -148.448166 
L 361.397536 -150.12213 
L 361.289311 -151.796093 
L 361.195624 -153.470057 
L 361.12012 -155.14402 
L 361.061395 -156.817983 
L 361.013029 -158.491947 
L 360.964628 -160.16591 
L 360.903682 -161.839873 
L 360.817932 -163.513837 
L 360.697802 -165.1878 
L 360.538373 -166.861763 
L 360.340471 -168.535727 
L 360.110644 -170.20969 
L 359.860037 -171.883653 
L 359.602405 -173.557617 
L 359.351516 -175.23158 
L 359.118339 -176.905544 
L 358.908483 -178.579507 
L 358.72054 -180.25347 
L 358.545964 -181.927434 
L 358.370787 -183.601397 
L 358.178861 -185.27536 
L 357.95571 -186.949324 
L 357.691831 -188.623287 
L 357.384532 -190.29725 
L 357.037959 -191.971214 
L 356.661535 -193.645177 
L 356.267266 -195.31914 
L 355.866522 -196.993104 
L 355.466895 -198.667067 
L 355.069931 -200.341031 
L 354.670544 -202.014994 
L 354.258612 -203.688957 
L 353.822465 -205.362921 
L 353.3531 -207.036884 
L 352.847448 -208.710847 
L 352.3094 -210.384811 
L 351.748325 -212.058774 
L 351.176086 -213.732737 
L 350.604281 -215.406701 
L 350.043229 -217.080664 
L 349.503353 -218.754627 
L 348.998373 -220.428591 
L 348.548946 -222.102554 
L 348.185155 -223.776517 
L 347.946664 -225.450481 
L 347.88 -227.124444 
L 348.03302 -228.798408 
L 348.44714 -230.472371 
L 349.148367 -232.146334 
L 350.138751 -233.820298 
L 351.390423 -235.494261 
L 352.844473 -237.168224 
L 354.416198 -238.842188 
L 356.006527 -240.516151 
L 357.51735 -242.190114 
L 368.00265 -242.190114 
L 368.00265 -242.190114 
L 369.513473 -240.516151 
L 371.103802 -238.842188 
L 372.675527 -237.168224 
L 374.129577 -235.494261 
L 375.381249 -233.820298 
L 376.371633 -232.146334 
L 377.07286 -230.472371 
L 377.48698 -228.798408 
L 377.64 -227.124444 
L 377.573336 -225.450481 
L 377.334845 -223.776517 
L 376.971054 -222.102554 
L 376.521627 -220.428591 
L 376.016647 -218.754627 
L 375.476771 -217.080664 
L 374.915719 -215.406701 
L 374.343914 -213.732737 
L 373.771675 -212.058774 
L 373.2106 -210.384811 
L 372.672552 -208.710847 
L 372.1669 -207.036884 
L 371.697535 -205.362921 
L 371.261388 -203.688957 
L 370.849456 -202.014994 
L 370.450069 -200.341031 
L 370.053105 -198.667067 
L 369.653478 -196.993104 
L 369.252734 -195.31914 
L 368.858465 -193.645177 
L 368.482041 -191.971214 
L 368.135468 -190.29725 
L 367.828169 -188.623287 
L 367.56429 -186.949324 
L 367.341139 -185.27536 
L 367.149213 -183.601397 
L 366.974036 -181.927434 
L 366.79946 -180.25347 
L 366.611517 -178.579507 
L 366.401661 -176.905544 
L 366.168484 -175.23158 
L 365.917595 -173.557617 
L 365.659963 -171.883653 
L 365.409356 -170.20969 
L 365.179529 -168.535727 
L 364.981627 -166.861763 
L 364.822198 -165.1878 
L 364.702068 -163.513837 
L 364.616318 -161.839873 
L 364.555372 -160.16591 
L 364.506971 -158.491947 
L 364.458605 -156.817983 
L 364.39988 -155.14402 
L 364.324376 -153.470057 
L 364.230689 -151.796093 
L 364.122464 -150.12213 
L 364.007398 -148.448166 
L 363.89535 -146.774203 
L 363.795958 -145.10024 
L 363.716331 -143.426276 
L 363.659462 -141.752313 
L 363.623772 -140.07835 
L 363.603862 -138.404386 
L 363.592128 -136.730423 
L 363.580654 -135.05646 
L 363.562824 -133.382496 
L 363.534286 -131.708533 
L 363.493196 -130.03457 
L 363.439936 -128.360606 
L 363.376575 -126.686643 
L 363.306327 -125.012679 
L 363.233098 -123.338716 
L 363.161088 -121.664753 
L 363.094363 -119.990789 
L 363.036354 -118.316826 
L 362.989348 -116.642863 
L 362.954109 -114.968899 
L 362.929776 -113.294936 
L 362.914098 -111.620973 
L 362.90397 -109.947009 
L 362.896125 -108.273046 
L 362.887799 -106.599083 
L 362.87722 -104.925119 
L 362.863795 -103.251156 
L 362.84801 -101.577193 
L 362.831088 -99.903229 
L 362.814541 -98.229266 
L 362.799749 -96.555302 
L 362.787694 -94.881339 
L 362.778875 -93.207376 
L 362.77338 -91.533412 
L 362.771036 -89.859449 
L 362.771538 -88.185486 
L 362.774504 -86.511522 
L 362.77943 -84.837559 
L 362.785623 -83.163596 
L 362.79216 -81.489632 
L 362.797958 -79.815669 
L 362.801962 -78.141706 
L 362.803388 -76.467742 
z
" id="me4720dd758" style="stroke:#3d3d3d;stroke-width:1.5;"/>
    </defs>
    <g clip-path="url(#p366fb90b6f)">
     <use style="fill:#3a923a;stroke:#3d3d3d;stroke-width:1.5;" x="0" xlink:href="#me4720dd758" y="288"/>
    </g>
   </g>
   <g id="patch_3">
    <path clip-path="url(#p366fb90b6f)" d="M 109.8 121.849662 
L 109.8 121.849662 
L 109.8 121.849662 
L 109.8 121.849662 
z
" style="fill:#3274a1;stroke:#3d3d3d;stroke-linejoin:miter;stroke-width:0.75;"/>
   </g>
   <g id="patch_4">
    <path clip-path="url(#p366fb90b6f)" d="M 109.8 121.849662 
L 109.8 121.849662 
L 109.8 121.849662 
L 109.8 121.849662 
z
" style="fill:#e1812c;stroke:#3d3d3d;stroke-linejoin:miter;stroke-width:0.75;"/>
   </g>
   <g id="patch_5">
    <path clip-path="url(#p366fb90b6f)" d="M 109.8 121.849662 
L 109.8 121.849662 
L 109.8 121.849662 
L 109.8 121.849662 
z
" style="fill:#3a923a;stroke:#3d3d3d;stroke-linejoin:miter;stroke-width:0.75;"/>
   </g>
   <g id="matplotlib.axis_1">
    <g id="xtick_1">
     <g id="line2d_1">
      <defs>
       <path d="M 0 0 
L 0 3.5 
" id="m6ee796db82" style="stroke:#000000;stroke-width:0.8;"/>
      </defs>
      <g>
       <use style="stroke:#000000;stroke-width:0.8;" x="109.8" xlink:href="#m6ee796db82" y="252"/>
      </g>
     </g>
     <g id="text_1">
      <!-- train -->
      <g transform="translate(98.1625 266.598437)scale(0.1 -0.1)">
       <defs>
        <path d="M 18.3125 70.21875 
L 18.3125 54.6875 
L 36.8125 54.6875 
L 36.8125 47.703125 
L 18.3125 47.703125 
L 18.3125 18.015625 
Q 18.3125 11.328125 20.140625 9.421875 
Q 21.96875 7.515625 27.59375 7.515625 
L 36.8125 7.515625 
L 36.8125 0 
L 27.59375 0 
Q 17.1875 0 13.234375 3.875 
Q 9.28125 7.765625 9.28125 18.015625 
L 9.28125 47.703125 
L 2.6875 47.703125 
L 2.6875 54.6875 
L 9.28125 54.6875 
L 9.28125 70.21875 
z
" id="DejaVuSans-116"/>
        <path d="M 41.109375 46.296875 
Q 39.59375 47.171875 37.8125 47.578125 
Q 36.03125 48 33.890625 48 
Q 26.265625 48 22.1875 43.046875 
Q 18.109375 38.09375 18.109375 28.8125 
L 18.109375 0 
L 9.078125 0 
L 9.078125 54.6875 
L 18.109375 54.6875 
L 18.109375 46.1875 
Q 20.953125 51.171875 25.484375 53.578125 
Q 30.03125 56 36.53125 56 
Q 37.453125 56 38.578125 55.875 
Q 39.703125 55.765625 41.0625 55.515625 
z
" id="DejaVuSans-114"/>
        <path d="M 34.28125 27.484375 
Q 23.390625 27.484375 19.1875 25 
Q 14.984375 22.515625 14.984375 16.5 
Q 14.984375 11.71875 18.140625 8.90625 
Q 21.296875 6.109375 26.703125 6.109375 
Q 34.1875 6.109375 38.703125 11.40625 
Q 43.21875 16.703125 43.21875 25.484375 
L 43.21875 27.484375 
z
M 52.203125 31.203125 
L 52.203125 0 
L 43.21875 0 
L 43.21875 8.296875 
Q 40.140625 3.328125 35.546875 0.953125 
Q 30.953125 -1.421875 24.3125 -1.421875 
Q 15.921875 -1.421875 10.953125 3.296875 
Q 6 8.015625 6 15.921875 
Q 6 25.140625 12.171875 29.828125 
Q 18.359375 34.515625 30.609375 34.515625 
L 43.21875 34.515625 
L 43.21875 35.40625 
Q 43.21875 41.609375 39.140625 45 
Q 35.0625 48.390625 27.6875 48.390625 
Q 23 48.390625 18.546875 47.265625 
Q 14.109375 46.140625 10.015625 43.890625 
L 10.015625 52.203125 
Q 14.9375 54.109375 19.578125 55.046875 
Q 24.21875 56 28.609375 56 
Q 40.484375 56 46.34375 49.84375 
Q 52.203125 43.703125 52.203125 31.203125 
z
" id="DejaVuSans-97"/>
        <path d="M 9.421875 54.6875 
L 18.40625 54.6875 
L 18.40625 0 
L 9.421875 0 
z
M 9.421875 75.984375 
L 18.40625 75.984375 
L 18.40625 64.59375 
L 9.421875 64.59375 
z
" id="DejaVuSans-105"/>
        <path d="M 54.890625 33.015625 
L 54.890625 0 
L 45.90625 0 
L 45.90625 32.71875 
Q 45.90625 40.484375 42.875 44.328125 
Q 39.84375 48.1875 33.796875 48.1875 
Q 26.515625 48.1875 22.3125 43.546875 
Q 18.109375 38.921875 18.109375 30.90625 
L 18.109375 0 
L 9.078125 0 
L 9.078125 54.6875 
L 18.109375 54.6875 
L 18.109375 46.1875 
Q 21.34375 51.125 25.703125 53.5625 
Q 30.078125 56 35.796875 56 
Q 45.21875 56 50.046875 50.171875 
Q 54.890625 44.34375 54.890625 33.015625 
z
" id="DejaVuSans-110"/>
       </defs>
       <use xlink:href="#DejaVuSans-116"/>
       <use x="39.208984" xlink:href="#DejaVuSans-114"/>
       <use x="80.322266" xlink:href="#DejaVuSans-97"/>
       <use x="141.601562" xlink:href="#DejaVuSans-105"/>
       <use x="169.384766" xlink:href="#DejaVuSans-110"/>
      </g>
     </g>
    </g>
    <g id="xtick_2">
     <g id="line2d_2">
      <g>
       <use style="stroke:#000000;stroke-width:0.8;" x="221.4" xlink:href="#m6ee796db82" y="252"/>
      </g>
     </g>
     <g id="text_2">
      <!-- val -->
      <g transform="translate(213.9875 266.598437)scale(0.1 -0.1)">
       <defs>
        <path d="M 2.984375 54.6875 
L 12.5 54.6875 
L 29.59375 8.796875 
L 46.6875 54.6875 
L 56.203125 54.6875 
L 35.6875 0 
L 23.484375 0 
z
" id="DejaVuSans-118"/>
        <path d="M 9.421875 75.984375 
L 18.40625 75.984375 
L 18.40625 0 
L 9.421875 0 
z
" id="DejaVuSans-108"/>
       </defs>
       <use xlink:href="#DejaVuSans-118"/>
       <use x="59.179688" xlink:href="#DejaVuSans-97"/>
       <use x="120.458984" xlink:href="#DejaVuSans-108"/>
      </g>
     </g>
    </g>
    <g id="xtick_3">
     <g id="line2d_3">
      <g>
       <use style="stroke:#000000;stroke-width:0.8;" x="333" xlink:href="#m6ee796db82" y="252"/>
      </g>
     </g>
     <g id="text_3">
      <!-- test -->
      <g transform="translate(323.398438 266.598437)scale(0.1 -0.1)">
       <defs>
        <path d="M 56.203125 29.59375 
L 56.203125 25.203125 
L 14.890625 25.203125 
Q 15.484375 15.921875 20.484375 11.0625 
Q 25.484375 6.203125 34.421875 6.203125 
Q 39.59375 6.203125 44.453125 7.46875 
Q 49.3125 8.734375 54.109375 11.28125 
L 54.109375 2.78125 
Q 49.265625 0.734375 44.1875 -0.34375 
Q 39.109375 -1.421875 33.890625 -1.421875 
Q 20.796875 -1.421875 13.15625 6.1875 
Q 5.515625 13.8125 5.515625 26.8125 
Q 5.515625 40.234375 12.765625 48.109375 
Q 20.015625 56 32.328125 56 
Q 43.359375 56 49.78125 48.890625 
Q 56.203125 41.796875 56.203125 29.59375 
z
M 47.21875 32.234375 
Q 47.125 39.59375 43.09375 43.984375 
Q 39.0625 48.390625 32.421875 48.390625 
Q 24.90625 48.390625 20.390625 44.140625 
Q 15.875 39.890625 15.1875 32.171875 
z
" id="DejaVuSans-101"/>
        <path d="M 44.28125 53.078125 
L 44.28125 44.578125 
Q 40.484375 46.53125 36.375 47.5 
Q 32.28125 48.484375 27.875 48.484375 
Q 21.1875 48.484375 17.84375 46.4375 
Q 14.5 44.390625 14.5 40.28125 
Q 14.5 37.15625 16.890625 35.375 
Q 19.28125 33.59375 26.515625 31.984375 
L 29.59375 31.296875 
Q 39.15625 29.25 43.1875 25.515625 
Q 47.21875 21.78125 47.21875 15.09375 
Q 47.21875 7.46875 41.1875 3.015625 
Q 35.15625 -1.421875 24.609375 -1.421875 
Q 20.21875 -1.421875 15.453125 -0.5625 
Q 10.6875 0.296875 5.421875 2 
L 5.421875 11.28125 
Q 10.40625 8.6875 15.234375 7.390625 
Q 20.0625 6.109375 24.8125 6.109375 
Q 31.15625 6.109375 34.5625 8.28125 
Q 37.984375 10.453125 37.984375 14.40625 
Q 37.984375 18.0625 35.515625 20.015625 
Q 33.0625 21.96875 24.703125 23.78125 
L 21.578125 24.515625 
Q 13.234375 26.265625 9.515625 29.90625 
Q 5.8125 33.546875 5.8125 39.890625 
Q 5.8125 47.609375 11.28125 51.796875 
Q 16.75 56 26.8125 56 
Q 31.78125 56 36.171875 55.265625 
Q 40.578125 54.546875 44.28125 53.078125 
z
" id="DejaVuSans-115"/>
       </defs>
       <use xlink:href="#DejaVuSans-116"/>
       <use x="39.208984" xlink:href="#DejaVuSans-101"/>
       <use x="100.732422" xlink:href="#DejaVuSans-115"/>
       <use x="152.832031" xlink:href="#DejaVuSans-116"/>
      </g>
     </g>
    </g>
    <g id="text_4">
     <!-- set -->
     <g transform="translate(213.758594 280.276563)scale(0.1 -0.1)">
      <use xlink:href="#DejaVuSans-115"/>
      <use x="52.099609" xlink:href="#DejaVuSans-101"/>
      <use x="113.623047" xlink:href="#DejaVuSans-116"/>
     </g>
    </g>
   </g>
   <g id="matplotlib.axis_2">
    <g id="ytick_1">
     <g id="line2d_4">
      <defs>
       <path d="M 0 0 
L -3.5 0 
" id="m51354d2109" style="stroke:#000000;stroke-width:0.8;"/>
      </defs>
      <g>
       <use style="stroke:#000000;stroke-width:0.8;" x="54" xlink:href="#m51354d2109" y="235.711051"/>
      </g>
     </g>
     <g id="text_5">
      <!-- −30 -->
      <g transform="translate(25.895312 239.51027)scale(0.1 -0.1)">
       <defs>
        <path d="M 10.59375 35.5 
L 73.1875 35.5 
L 73.1875 27.203125 
L 10.59375 27.203125 
z
" id="DejaVuSans-8722"/>
        <path d="M 40.578125 39.3125 
Q 47.65625 37.796875 51.625 33 
Q 55.609375 28.21875 55.609375 21.1875 
Q 55.609375 10.40625 48.1875 4.484375 
Q 40.765625 -1.421875 27.09375 -1.421875 
Q 22.515625 -1.421875 17.65625 -0.515625 
Q 12.796875 0.390625 7.625 2.203125 
L 7.625 11.71875 
Q 11.71875 9.328125 16.59375 8.109375 
Q 21.484375 6.890625 26.8125 6.890625 
Q 36.078125 6.890625 40.9375 10.546875 
Q 45.796875 14.203125 45.796875 21.1875 
Q 45.796875 27.640625 41.28125 31.265625 
Q 36.765625 34.90625 28.71875 34.90625 
L 20.21875 34.90625 
L 20.21875 43.015625 
L 29.109375 43.015625 
Q 36.375 43.015625 40.234375 45.921875 
Q 44.09375 48.828125 44.09375 54.296875 
Q 44.09375 59.90625 40.109375 62.90625 
Q 36.140625 65.921875 28.71875 65.921875 
Q 24.65625 65.921875 20.015625 65.03125 
Q 15.375 64.15625 9.8125 62.3125 
L 9.8125 71.09375 
Q 15.4375 72.65625 20.34375 73.4375 
Q 25.25 74.21875 29.59375 74.21875 
Q 40.828125 74.21875 47.359375 69.109375 
Q 53.90625 64.015625 53.90625 55.328125 
Q 53.90625 49.265625 50.4375 45.09375 
Q 46.96875 40.921875 40.578125 39.3125 
z
" id="DejaVuSans-51"/>
        <path d="M 31.78125 66.40625 
Q 24.171875 66.40625 20.328125 58.90625 
Q 16.5 51.421875 16.5 36.375 
Q 16.5 21.390625 20.328125 13.890625 
Q 24.171875 6.390625 31.78125 6.390625 
Q 39.453125 6.390625 43.28125 13.890625 
Q 47.125 21.390625 47.125 36.375 
Q 47.125 51.421875 43.28125 58.90625 
Q 39.453125 66.40625 31.78125 66.40625 
z
M 31.78125 74.21875 
Q 44.046875 74.21875 50.515625 64.515625 
Q 56.984375 54.828125 56.984375 36.375 
Q 56.984375 17.96875 50.515625 8.265625 
Q 44.046875 -1.421875 31.78125 -1.421875 
Q 19.53125 -1.421875 13.0625 8.265625 
Q 6.59375 17.96875 6.59375 36.375 
Q 6.59375 54.828125 13.0625 64.515625 
Q 19.53125 74.21875 31.78125 74.21875 
z
" id="DejaVuSans-48"/>
       </defs>
       <use xlink:href="#DejaVuSans-8722"/>
       <use x="83.789062" xlink:href="#DejaVuSans-51"/>
       <use x="147.412109" xlink:href="#DejaVuSans-48"/>
      </g>
     </g>
    </g>
    <g id="ytick_2">
     <g id="line2d_5">
      <g>
       <use style="stroke:#000000;stroke-width:0.8;" x="54" xlink:href="#m51354d2109" y="197.757254"/>
      </g>
     </g>
     <g id="text_6">
      <!-- −20 -->
      <g transform="translate(25.895312 201.556473)scale(0.1 -0.1)">
       <defs>
        <path d="M 19.1875 8.296875 
L 53.609375 8.296875 
L 53.609375 0 
L 7.328125 0 
L 7.328125 8.296875 
Q 12.9375 14.109375 22.625 23.890625 
Q 32.328125 33.6875 34.8125 36.53125 
Q 39.546875 41.84375 41.421875 45.53125 
Q 43.3125 49.21875 43.3125 52.78125 
Q 43.3125 58.59375 39.234375 62.25 
Q 35.15625 65.921875 28.609375 65.921875 
Q 23.96875 65.921875 18.8125 64.3125 
Q 13.671875 62.703125 7.8125 59.421875 
L 7.8125 69.390625 
Q 13.765625 71.78125 18.9375 73 
Q 24.125 74.21875 28.421875 74.21875 
Q 39.75 74.21875 46.484375 68.546875 
Q 53.21875 62.890625 53.21875 53.421875 
Q 53.21875 48.921875 51.53125 44.890625 
Q 49.859375 40.875 45.40625 35.40625 
Q 44.1875 33.984375 37.640625 27.21875 
Q 31.109375 20.453125 19.1875 8.296875 
z
" id="DejaVuSans-50"/>
       </defs>
       <use xlink:href="#DejaVuSans-8722"/>
       <use x="83.789062" xlink:href="#DejaVuSans-50"/>
       <use x="147.412109" xlink:href="#DejaVuSans-48"/>
      </g>
     </g>
    </g>
    <g id="ytick_3">
     <g id="line2d_6">
      <g>
       <use style="stroke:#000000;stroke-width:0.8;" x="54" xlink:href="#m51354d2109" y="159.803458"/>
      </g>
     </g>
     <g id="text_7">
      <!-- −10 -->
      <g transform="translate(25.895312 163.602677)scale(0.1 -0.1)">
       <defs>
        <path d="M 12.40625 8.296875 
L 28.515625 8.296875 
L 28.515625 63.921875 
L 10.984375 60.40625 
L 10.984375 69.390625 
L 28.421875 72.90625 
L 38.28125 72.90625 
L 38.28125 8.296875 
L 54.390625 8.296875 
L 54.390625 0 
L 12.40625 0 
z
" id="DejaVuSans-49"/>
       </defs>
       <use xlink:href="#DejaVuSans-8722"/>
       <use x="83.789062" xlink:href="#DejaVuSans-49"/>
       <use x="147.412109" xlink:href="#DejaVuSans-48"/>
      </g>
     </g>
    </g>
    <g id="ytick_4">
     <g id="line2d_7">
      <g>
       <use style="stroke:#000000;stroke-width:0.8;" x="54" xlink:href="#m51354d2109" y="121.849662"/>
      </g>
     </g>
     <g id="text_8">
      <!-- 0 -->
      <g transform="translate(40.6375 125.64888)scale(0.1 -0.1)">
       <use xlink:href="#DejaVuSans-48"/>
      </g>
     </g>
    </g>
    <g id="ytick_5">
     <g id="line2d_8">
      <g>
       <use style="stroke:#000000;stroke-width:0.8;" x="54" xlink:href="#m51354d2109" y="83.895865"/>
      </g>
     </g>
     <g id="text_9">
      <!-- 10 -->
      <g transform="translate(34.275 87.695084)scale(0.1 -0.1)">
       <use xlink:href="#DejaVuSans-49"/>
       <use x="63.623047" xlink:href="#DejaVuSans-48"/>
      </g>
     </g>
    </g>
    <g id="ytick_6">
     <g id="line2d_9">
      <g>
       <use style="stroke:#000000;stroke-width:0.8;" x="54" xlink:href="#m51354d2109" y="45.942069"/>
      </g>
     </g>
     <g id="text_10">
      <!-- 20 -->
      <g transform="translate(34.275 49.741288)scale(0.1 -0.1)">
       <use xlink:href="#DejaVuSans-50"/>
       <use x="63.623047" xlink:href="#DejaVuSans-48"/>
      </g>
     </g>
    </g>
    <g id="text_11">
     <!-- value -->
     <g transform="translate(19.815625 156.937813)rotate(-90)scale(0.1 -0.1)">
      <defs>
       <path d="M 8.5 21.578125 
L 8.5 54.6875 
L 17.484375 54.6875 
L 17.484375 21.921875 
Q 17.484375 14.15625 20.5 10.265625 
Q 23.53125 6.390625 29.59375 6.390625 
Q 36.859375 6.390625 41.078125 11.03125 
Q 45.3125 15.671875 45.3125 23.6875 
L 45.3125 54.6875 
L 54.296875 54.6875 
L 54.296875 0 
L 45.3125 0 
L 45.3125 8.40625 
Q 42.046875 3.421875 37.71875 1 
Q 33.40625 -1.421875 27.6875 -1.421875 
Q 18.265625 -1.421875 13.375 4.4375 
Q 8.5 10.296875 8.5 21.578125 
z
M 31.109375 56 
z
" id="DejaVuSans-117"/>
      </defs>
      <use xlink:href="#DejaVuSans-118"/>
      <use x="59.179688" xlink:href="#DejaVuSans-97"/>
      <use x="120.458984" xlink:href="#DejaVuSans-108"/>
      <use x="148.242188" xlink:href="#DejaVuSans-117"/>
      <use x="211.621094" xlink:href="#DejaVuSans-101"/>
     </g>
    </g>
   </g>
   <g id="line2d_10">
    <path clip-path="url(#p366fb90b6f)" d="M 80.04 107.927369 
L 80.04 45.368891 
" style="fill:none;stroke:#3d3d3d;stroke-linecap:square;stroke-width:1.5;"/>
   </g>
   <g id="line2d_11">
    <path clip-path="url(#p366fb90b6f)" d="M 80.04 76.339794 
L 80.04 55.168353 
" style="fill:none;stroke:#3d3d3d;stroke-linecap:square;stroke-width:4.5;"/>
   </g>
   <g id="line2d_12">
    <path clip-path="url(#p366fb90b6f)" d="M 221.4 136.11501 
L 221.4 44.443636 
" style="fill:none;stroke:#3d3d3d;stroke-linecap:square;stroke-width:1.5;"/>
   </g>
   <g id="line2d_13">
    <path clip-path="url(#p366fb90b6f)" d="M 221.4 90.278571 
L 221.4 59.6415 
" style="fill:none;stroke:#3d3d3d;stroke-linecap:square;stroke-width:4.5;"/>
   </g>
   <g id="line2d_14">
    <path clip-path="url(#p366fb90b6f)" d="M 362.76 138.354938 
L 362.76 45.809886 
" style="fill:none;stroke:#3d3d3d;stroke-linecap:square;stroke-width:1.5;"/>
   </g>
   <g id="line2d_15">
    <path clip-path="url(#p366fb90b6f)" d="M 362.76 91.257764 
L 362.76 59.785772 
" style="fill:none;stroke:#3d3d3d;stroke-linecap:square;stroke-width:4.5;"/>
   </g>
   <g id="patch_6">
    <path d="M 54 252 
L 54 34.56 
" style="fill:none;stroke:#000000;stroke-linecap:square;stroke-linejoin:miter;stroke-width:0.8;"/>
   </g>
   <g id="patch_7">
    <path d="M 388.8 252 
L 388.8 34.56 
" style="fill:none;stroke:#000000;stroke-linecap:square;stroke-linejoin:miter;stroke-width:0.8;"/>
   </g>
   <g id="patch_8">
    <path d="M 54 252 
L 388.8 252 
" style="fill:none;stroke:#000000;stroke-linecap:square;stroke-linejoin:miter;stroke-width:0.8;"/>
   </g>
   <g id="patch_9">
    <path d="M 54 34.56 
L 388.8 34.56 
" style="fill:none;stroke:#000000;stroke-linecap:square;stroke-linejoin:miter;stroke-width:0.8;"/>
   </g>
   <g id="PathCollection_1">
    <defs>
     <path d="M 0 1.5 
C 0.397805 1.5 0.77937 1.341951 1.06066 1.06066 
C 1.341951 0.77937 1.5 0.397805 1.5 0 
C 1.5 -0.397805 1.341951 -0.77937 1.06066 -1.06066 
C 0.77937 -1.341951 0.397805 -1.5 0 -1.5 
C -0.397805 -1.5 -0.77937 -1.341951 -1.06066 -1.06066 
C -1.341951 -0.77937 -1.5 -0.397805 -1.5 0 
C -1.5 0.397805 -1.341951 0.77937 -1.06066 1.06066 
C -0.77937 1.341951 -0.397805 1.5 0 1.5 
z
" id="mc8e13ce1bf" style="stroke:#3d3d3d;"/>
    </defs>
    <g clip-path="url(#p366fb90b6f)">
     <use style="fill:#ffffff;stroke:#3d3d3d;" x="80.04" xlink:href="#mc8e13ce1bf" y="61.668235"/>
    </g>
   </g>
   <g id="PathCollection_2">
    <g clip-path="url(#p366fb90b6f)">
     <use style="fill:#ffffff;stroke:#3d3d3d;" x="221.4" xlink:href="#mc8e13ce1bf" y="72.430257"/>
    </g>
   </g>
   <g id="PathCollection_3">
    <g clip-path="url(#p366fb90b6f)">
     <use style="fill:#ffffff;stroke:#3d3d3d;" x="362.76" xlink:href="#mc8e13ce1bf" y="72.207846"/>
    </g>
   </g>
   <g id="legend_1">
    <g id="patch_10">
     <path d="M 61 247 
L 116.275 247 
Q 118.275 247 118.275 245 
L 118.275 187.2875 
Q 118.275 185.2875 116.275 185.2875 
L 61 185.2875 
Q 59 185.2875 59 187.2875 
L 59 245 
Q 59 247 61 247 
z
" style="fill:#ffffff;opacity:0.8;stroke:#cccccc;stroke-linejoin:miter;"/>
    </g>
    <g id="text_12">
     <!-- set -->
     <g transform="translate(80.996094 196.885938)scale(0.1 -0.1)">
      <use xlink:href="#DejaVuSans-115"/>
      <use x="52.099609" xlink:href="#DejaVuSans-101"/>
      <use x="113.623047" xlink:href="#DejaVuSans-116"/>
     </g>
    </g>
    <g id="patch_11">
     <path d="M 63 211.564063 
L 83 211.564063 
L 83 204.564063 
L 63 204.564063 
z
" style="fill:#3274a1;stroke:#3d3d3d;stroke-linejoin:miter;stroke-width:0.75;"/>
    </g>
    <g id="text_13">
     <!-- train -->
     <g transform="translate(91 211.564063)scale(0.1 -0.1)">
      <use xlink:href="#DejaVuSans-116"/>
      <use x="39.208984" xlink:href="#DejaVuSans-114"/>
      <use x="80.322266" xlink:href="#DejaVuSans-97"/>
      <use x="141.601562" xlink:href="#DejaVuSans-105"/>
      <use x="169.384766" xlink:href="#DejaVuSans-110"/>
     </g>
    </g>
    <g id="patch_12">
     <path d="M 63 226.242188 
L 83 226.242188 
L 83 219.242188 
L 63 219.242188 
z
" style="fill:#e1812c;stroke:#3d3d3d;stroke-linejoin:miter;stroke-width:0.75;"/>
    </g>
    <g id="text_14">
     <!-- val -->
     <g transform="translate(91 226.242188)scale(0.1 -0.1)">
      <use xlink:href="#DejaVuSans-118"/>
      <use x="59.179688" xlink:href="#DejaVuSans-97"/>
      <use x="120.458984" xlink:href="#DejaVuSans-108"/>
     </g>
    </g>
    <g id="patch_13">
     <path d="M 63 240.920313 
L 83 240.920313 
L 83 233.920313 
L 63 233.920313 
z
" style="fill:#3a923a;stroke:#3d3d3d;stroke-linejoin:miter;stroke-width:0.75;"/>
    </g>
    <g id="text_15">
     <!-- test -->
     <g transform="translate(91 240.920313)scale(0.1 -0.1)">
      <use xlink:href="#DejaVuSans-116"/>
      <use x="39.208984" xlink:href="#DejaVuSans-101"/>
      <use x="100.732422" xlink:href="#DejaVuSans-115"/>
      <use x="152.832031" xlink:href="#DejaVuSans-116"/>
     </g>
    </g>
   </g>
  </g>
 </g>
 <defs>
  <clipPath id="p366fb90b6f">
   <rect height="217.44" width="334.8" x="54" y="34.56"/>
  </clipPath>
 </defs>
</svg>
