<?xml version="1.0" encoding="utf-8" standalone="no"?>
<!DOCTYPE svg PUBLIC "-//W3C//DTD SVG 1.1//EN"
  "http://www.w3.org/Graphics/SVG/1.1/DTD/svg11.dtd">
<!-- Created with matplotlib (https://matplotlib.org/) -->
<svg height="288pt" version="1.1" viewBox="0 0 432 288" width="432pt" xmlns="http://www.w3.org/2000/svg" xmlns:xlink="http://www.w3.org/1999/xlink">
 <metadata>
  <rdf:RDF xmlns:cc="http://creativecommons.org/ns#" xmlns:dc="http://purl.org/dc/elements/1.1/" xmlns:rdf="http://www.w3.org/1999/02/22-rdf-syntax-ns#">
   <cc:Work>
    <dc:type rdf:resource="http://purl.org/dc/dcmitype/StillImage"/>
    <dc:date>2021-07-13T18:17:28.505100</dc:date>
    <dc:format>image/svg+xml</dc:format>
    <dc:creator>
     <cc:Agent>
      <dc:title>Matplotlib v3.3.4, https://matplotlib.org/</dc:title>
     </cc:Agent>
    </dc:creator>
   </cc:Work>
  </rdf:RDF>
 </metadata>
 <defs>
  <style type="text/css">*{stroke-linecap:butt;stroke-linejoin:round;}</style>
 </defs>
 <g id="figure_1">
  <g id="patch_1">
   <path d="M 0 288 
L 432 288 
L 432 0 
L 0 0 
z
" style="fill:#ffffff;"/>
  </g>
  <g id="axes_1">
   <g id="patch_2">
    <path d="M 54 252 
L 388.8 252 
L 388.8 34.56 
L 54 34.56 
z
" style="fill:#ffffff;"/>
   </g>
   <g id="PolyCollection_1">
    <defs>
     <path d="M 104.336377 -61.879827 
L 104.103623 -61.879827 
L 104.06571 -63.714944 
L 104.018926 -65.55006 
L 103.963169 -67.385177 
L 103.900582 -69.220293 
L 103.835963 -71.05541 
L 103.775911 -72.890526 
L 103.726819 -74.725643 
L 103.692549 -76.560759 
L 103.673036 -78.395876 
L 103.664596 -80.230992 
L 103.661635 -82.066109 
L 103.65861 -83.901225 
L 103.651098 -85.736342 
L 103.635704 -87.571459 
L 103.609506 -89.406575 
L 103.569994 -91.241692 
L 103.515783 -93.076808 
L 103.447456 -94.911925 
L 103.367468 -96.747041 
L 103.278573 -98.582158 
L 103.181318 -100.417274 
L 103.072071 -102.252391 
L 102.943193 -104.087507 
L 102.785983 -105.922624 
L 102.595433 -107.75774 
L 102.374388 -109.592857 
L 102.134394 -111.427973 
L 101.892037 -113.26309 
L 101.662115 -115.098206 
L 101.451126 -116.933323 
L 101.254635 -118.76844 
L 101.059747 -120.603556 
L 100.850833 -122.438673 
L 100.614962 -124.273789 
L 100.344343 -126.108906 
L 100.035492 -127.944022 
L 99.686798 -129.779139 
L 99.296446 -131.614255 
L 98.861709 -133.449372 
L 98.379673 -135.284488 
L 97.849264 -137.119605 
L 97.274296 -138.954721 
L 96.666737 -140.789838 
L 96.048498 -142.624954 
L 95.449828 -144.460071 
L 94.903559 -146.295188 
L 94.436573 -148.130304 
L 94.061684 -149.965421 
L 93.773452 -151.800537 
L 93.549874 -153.635654 
L 93.359375 -155.47077 
L 93.170264 -157.305887 
L 92.958979 -159.141003 
L 92.714359 -160.97612 
L 92.437226 -162.811236 
L 92.136503 -164.646353 
L 91.823902 -166.481469 
L 91.508657 -168.316586 
L 91.192847 -170.151702 
L 90.867571 -171.986819 
L 90.510596 -173.821935 
L 90.08664 -175.657052 
L 89.551339 -177.492169 
L 88.859074 -179.327285 
L 87.973543 -181.162402 
L 86.878475 -182.997518 
L 85.584762 -184.832635 
L 84.130469 -186.667751 
L 82.572516 -188.502868 
L 80.972655 -190.337984 
L 79.383806 -192.173101 
L 77.843215 -194.008217 
L 76.375467 -195.843334 
L 75.002702 -197.67845 
L 73.754984 -199.513567 
L 72.673522 -201.348683 
L 71.80397 -203.1838 
L 71.183552 -205.018916 
L 70.830067 -206.854033 
L 70.74 -208.68915 
L 70.897316 -210.524266 
L 71.287809 -212.359383 
L 71.910564 -214.194499 
L 72.780545 -216.029616 
L 73.922635 -217.864732 
L 75.362568 -219.699849 
L 77.119928 -221.534965 
L 79.203456 -223.370082 
L 81.60446 -225.205198 
L 84.285611 -227.040315 
L 87.168981 -228.875431 
L 90.132722 -230.710548 
L 93.024042 -232.545664 
L 95.687276 -234.380781 
L 97.996594 -236.215898 
L 99.879901 -238.051014 
L 101.32555 -239.886131 
L 102.372248 -241.721247 
L 103.089247 -243.556364 
L 105.350753 -243.556364 
L 105.350753 -243.556364 
L 106.067752 -241.721247 
L 107.11445 -239.886131 
L 108.560099 -238.051014 
L 110.443406 -236.215898 
L 112.752724 -234.380781 
L 115.415958 -232.545664 
L 118.307278 -230.710548 
L 121.271019 -228.875431 
L 124.154389 -227.040315 
L 126.83554 -225.205198 
L 129.236544 -223.370082 
L 131.320072 -221.534965 
L 133.077432 -219.699849 
L 134.517365 -217.864732 
L 135.659455 -216.029616 
L 136.529436 -214.194499 
L 137.152191 -212.359383 
L 137.542684 -210.524266 
L 137.7 -208.68915 
L 137.609933 -206.854033 
L 137.256448 -205.018916 
L 136.63603 -203.1838 
L 135.766478 -201.348683 
L 134.685016 -199.513567 
L 133.437298 -197.67845 
L 132.064533 -195.843334 
L 130.596785 -194.008217 
L 129.056194 -192.173101 
L 127.467345 -190.337984 
L 125.867484 -188.502868 
L 124.309531 -186.667751 
L 122.855238 -184.832635 
L 121.561525 -182.997518 
L 120.466457 -181.162402 
L 119.580926 -179.327285 
L 118.888661 -177.492169 
L 118.35336 -175.657052 
L 117.929404 -173.821935 
L 117.572429 -171.986819 
L 117.247153 -170.151702 
L 116.931343 -168.316586 
L 116.616098 -166.481469 
L 116.303497 -164.646353 
L 116.002774 -162.811236 
L 115.725641 -160.97612 
L 115.481021 -159.141003 
L 115.269736 -157.305887 
L 115.080625 -155.47077 
L 114.890126 -153.635654 
L 114.666548 -151.800537 
L 114.378316 -149.965421 
L 114.003427 -148.130304 
L 113.536441 -146.295188 
L 112.990172 -144.460071 
L 112.391502 -142.624954 
L 111.773263 -140.789838 
L 111.165704 -138.954721 
L 110.590736 -137.119605 
L 110.060327 -135.284488 
L 109.578291 -133.449372 
L 109.143554 -131.614255 
L 108.753202 -129.779139 
L 108.404508 -127.944022 
L 108.095657 -126.108906 
L 107.825038 -124.273789 
L 107.589167 -122.438673 
L 107.380253 -120.603556 
L 107.185365 -118.76844 
L 106.988874 -116.933323 
L 106.777885 -115.098206 
L 106.547963 -113.26309 
L 106.305606 -111.427973 
L 106.065612 -109.592857 
L 105.844567 -107.75774 
L 105.654017 -105.922624 
L 105.496807 -104.087507 
L 105.367929 -102.252391 
L 105.258682 -100.417274 
L 105.161427 -98.582158 
L 105.072532 -96.747041 
L 104.992544 -94.911925 
L 104.924217 -93.076808 
L 104.870006 -91.241692 
L 104.830494 -89.406575 
L 104.804296 -87.571459 
L 104.788902 -85.736342 
L 104.78139 -83.901225 
L 104.778365 -82.066109 
L 104.775404 -80.230992 
L 104.766964 -78.395876 
L 104.747451 -76.560759 
L 104.713181 -74.725643 
L 104.664089 -72.890526 
L 104.604037 -71.05541 
L 104.539418 -69.220293 
L 104.476831 -67.385177 
L 104.421074 -65.55006 
L 104.37429 -63.714944 
L 104.336377 -61.879827 
z
" id="m592ee20ece" style="stroke:#3f3f3f;stroke-width:1.5;"/>
    </defs>
    <g clip-path="url(#p808e144a00)">
     <use style="fill:#3274a1;stroke:#3f3f3f;stroke-width:1.5;" x="0" xlink:href="#m592ee20ece" y="288"/>
    </g>
   </g>
   <g id="PolyCollection_2">
    <defs>
     <path d="M 338.627114 -45.883636 
L 338.532886 -45.883636 
L 338.532452 -47.864702 
L 338.534078 -49.845768 
L 338.535765 -51.826834 
L 338.535763 -53.8079 
L 338.533406 -55.788966 
L 338.529171 -57.770032 
L 338.523872 -59.751098 
L 338.517516 -61.732164 
L 338.508636 -63.71323 
L 338.494569 -65.694296 
L 338.47253 -67.675362 
L 338.440732 -69.656427 
L 338.398904 -71.637493 
L 338.348114 -73.618559 
L 338.290384 -75.599625 
L 338.228506 -77.580691 
L 338.165897 -79.561757 
L 338.105882 -81.542823 
L 338.050254 -83.523889 
L 337.99793 -85.504955 
L 337.945003 -87.486021 
L 337.886611 -89.467087 
L 337.819574 -91.448153 
L 337.743879 -93.429219 
L 337.661945 -95.410285 
L 337.5763 -97.39135 
L 337.487402 -99.372416 
L 337.393073 -101.353482 
L 337.289685 -103.334548 
L 337.174192 -105.315614 
L 337.045823 -107.29668 
L 336.90662 -109.277746 
L 336.760569 -111.258812 
L 336.611533 -113.239878 
L 336.460694 -115.220944 
L 336.304677 -117.20201 
L 336.135543 -119.183076 
L 335.943124 -121.164142 
L 335.718766 -123.145207 
L 335.458468 -125.126273 
L 335.163527 -127.107339 
L 334.838069 -129.088405 
L 334.484468 -131.069471 
L 334.098811 -133.050537 
L 333.669094 -135.031603 
L 333.178416 -137.012669 
L 332.613516 -138.993735 
L 331.975787 -140.974801 
L 331.289133 -142.955867 
L 330.599153 -144.936933 
L 329.961978 -146.917999 
L 329.426367 -148.899064 
L 329.0164 -150.88013 
L 328.722041 -152.861196 
L 328.501377 -154.842262 
L 328.293305 -156.823328 
L 328.035321 -158.804394 
L 327.679786 -160.78546 
L 327.203746 -162.766526 
L 326.610598 -164.747592 
L 325.924619 -166.728658 
L 325.181182 -168.709724 
L 324.416287 -170.69079 
L 323.658847 -172.671856 
L 322.927451 -174.652922 
L 322.230809 -176.633987 
L 321.569487 -178.615053 
L 320.936886 -180.596119 
L 320.318919 -182.577185 
L 319.693052 -184.558251 
L 319.027859 -186.539317 
L 318.284435 -188.520383 
L 317.42111 -190.501449 
L 316.402312 -192.482515 
L 315.210508 -194.463581 
L 313.857509 -196.444647 
L 312.389755 -198.425713 
L 310.883394 -200.406779 
L 309.429283 -202.387844 
L 308.11348 -204.36891 
L 307.001576 -206.349976 
L 306.132882 -208.331042 
L 305.524463 -210.312108 
L 305.180152 -212.293174 
L 305.1 -214.27424 
L 305.289386 -216.255306 
L 305.768817 -218.236372 
L 306.582058 -220.217438 
L 307.795285 -222.198504 
L 309.480208 -224.17957 
L 311.682462 -226.160636 
L 314.387659 -228.141702 
L 317.502313 -230.122767 
L 320.860659 -232.103833 
L 324.255153 -234.084899 
L 327.477597 -236.065965 
L 330.355847 -238.047031 
L 332.776745 -240.028097 
L 334.693338 -242.009163 
L 342.466662 -242.009163 
L 342.466662 -242.009163 
L 344.383255 -240.028097 
L 346.804153 -238.047031 
L 349.682403 -236.065965 
L 352.904847 -234.084899 
L 356.299341 -232.103833 
L 359.657687 -230.122767 
L 362.772341 -228.141702 
L 365.477538 -226.160636 
L 367.679792 -224.17957 
L 369.364715 -222.198504 
L 370.577942 -220.217438 
L 371.391183 -218.236372 
L 371.870614 -216.255306 
L 372.06 -214.27424 
L 371.979848 -212.293174 
L 371.635537 -210.312108 
L 371.027118 -208.331042 
L 370.158424 -206.349976 
L 369.04652 -204.36891 
L 367.730717 -202.387844 
L 366.276606 -200.406779 
L 364.770245 -198.425713 
L 363.302491 -196.444647 
L 361.949492 -194.463581 
L 360.757688 -192.482515 
L 359.73889 -190.501449 
L 358.875565 -188.520383 
L 358.132141 -186.539317 
L 357.466948 -184.558251 
L 356.841081 -182.577185 
L 356.223114 -180.596119 
L 355.590513 -178.615053 
L 354.929191 -176.633987 
L 354.232549 -174.652922 
L 353.501153 -172.671856 
L 352.743713 -170.69079 
L 351.978818 -168.709724 
L 351.235381 -166.728658 
L 350.549402 -164.747592 
L 349.956254 -162.766526 
L 349.480214 -160.78546 
L 349.124679 -158.804394 
L 348.866695 -156.823328 
L 348.658623 -154.842262 
L 348.437959 -152.861196 
L 348.1436 -150.88013 
L 347.733633 -148.899064 
L 347.198022 -146.917999 
L 346.560847 -144.936933 
L 345.870867 -142.955867 
L 345.184213 -140.974801 
L 344.546484 -138.993735 
L 343.981584 -137.012669 
L 343.490906 -135.031603 
L 343.061189 -133.050537 
L 342.675532 -131.069471 
L 342.321931 -129.088405 
L 341.996473 -127.107339 
L 341.701532 -125.126273 
L 341.441234 -123.145207 
L 341.216876 -121.164142 
L 341.024457 -119.183076 
L 340.855323 -117.20201 
L 340.699306 -115.220944 
L 340.548467 -113.239878 
L 340.399431 -111.258812 
L 340.25338 -109.277746 
L 340.114177 -107.29668 
L 339.985808 -105.315614 
L 339.870315 -103.334548 
L 339.766927 -101.353482 
L 339.672598 -99.372416 
L 339.5837 -97.39135 
L 339.498055 -95.410285 
L 339.416121 -93.429219 
L 339.340426 -91.448153 
L 339.273389 -89.467087 
L 339.214997 -87.486021 
L 339.16207 -85.504955 
L 339.109746 -83.523889 
L 339.054118 -81.542823 
L 338.994103 -79.561757 
L 338.931494 -77.580691 
L 338.869616 -75.599625 
L 338.811886 -73.618559 
L 338.761096 -71.637493 
L 338.719268 -69.656427 
L 338.68747 -67.675362 
L 338.665431 -65.694296 
L 338.651364 -63.71323 
L 338.642484 -61.732164 
L 338.636128 -59.751098 
L 338.630829 -57.770032 
L 338.626594 -55.788966 
L 338.624237 -53.8079 
L 338.624235 -51.826834 
L 338.625922 -49.845768 
L 338.627548 -47.864702 
L 338.627114 -45.883636 
z
" id="mde3947f1a3" style="stroke:#3f3f3f;stroke-width:1.5;"/>
    </defs>
    <g clip-path="url(#p808e144a00)">
     <use style="fill:#e1812c;stroke:#3f3f3f;stroke-width:1.5;" x="0" xlink:href="#mde3947f1a3" y="288"/>
    </g>
   </g>
   <g id="patch_3">
    <path clip-path="url(#p808e144a00)" d="M 137.7 48.419822 
L 137.7 48.419822 
L 137.7 48.419822 
L 137.7 48.419822 
z
" style="fill:#3274a1;stroke:#3f3f3f;stroke-linejoin:miter;stroke-width:0.75;"/>
   </g>
   <g id="patch_4">
    <path clip-path="url(#p808e144a00)" d="M 137.7 48.419822 
L 137.7 48.419822 
L 137.7 48.419822 
L 137.7 48.419822 
z
" style="fill:#e1812c;stroke:#3f3f3f;stroke-linejoin:miter;stroke-width:0.75;"/>
   </g>
   <g id="matplotlib.axis_1">
    <g id="xtick_1">
     <g id="line2d_1">
      <defs>
       <path d="M 0 0 
L 0 3.5 
" id="m14de9bafb8" style="stroke:#000000;stroke-width:0.8;"/>
      </defs>
      <g>
       <use style="stroke:#000000;stroke-width:0.8;" x="137.7" xlink:href="#m14de9bafb8" y="252"/>
      </g>
     </g>
     <g id="text_1">
      <!-- Z_2_ns -->
      <g transform="translate(120.320312 266.421875)scale(0.1 -0.1)">
       <defs>
        <path d="M 5.609375 72.90625 
L 62.890625 72.90625 
L 62.890625 65.375 
L 16.796875 8.296875 
L 64.015625 8.296875 
L 64.015625 0 
L 4.5 0 
L 4.5 7.515625 
L 50.59375 64.59375 
L 5.609375 64.59375 
z
" id="DejaVuSans-90"/>
        <path d="M 50.984375 -16.609375 
L 50.984375 -23.578125 
L -0.984375 -23.578125 
L -0.984375 -16.609375 
z
" id="DejaVuSans-95"/>
        <path d="M 19.1875 8.296875 
L 53.609375 8.296875 
L 53.609375 0 
L 7.328125 0 
L 7.328125 8.296875 
Q 12.9375 14.109375 22.625 23.890625 
Q 32.328125 33.6875 34.8125 36.53125 
Q 39.546875 41.84375 41.421875 45.53125 
Q 43.3125 49.21875 43.3125 52.78125 
Q 43.3125 58.59375 39.234375 62.25 
Q 35.15625 65.921875 28.609375 65.921875 
Q 23.96875 65.921875 18.8125 64.3125 
Q 13.671875 62.703125 7.8125 59.421875 
L 7.8125 69.390625 
Q 13.765625 71.78125 18.9375 73 
Q 24.125 74.21875 28.421875 74.21875 
Q 39.75 74.21875 46.484375 68.546875 
Q 53.21875 62.890625 53.21875 53.421875 
Q 53.21875 48.921875 51.53125 44.890625 
Q 49.859375 40.875 45.40625 35.40625 
Q 44.1875 33.984375 37.640625 27.21875 
Q 31.109375 20.453125 19.1875 8.296875 
z
" id="DejaVuSans-50"/>
        <path d="M 54.890625 33.015625 
L 54.890625 0 
L 45.90625 0 
L 45.90625 32.71875 
Q 45.90625 40.484375 42.875 44.328125 
Q 39.84375 48.1875 33.796875 48.1875 
Q 26.515625 48.1875 22.3125 43.546875 
Q 18.109375 38.921875 18.109375 30.90625 
L 18.109375 0 
L 9.078125 0 
L 9.078125 54.6875 
L 18.109375 54.6875 
L 18.109375 46.1875 
Q 21.34375 51.125 25.703125 53.5625 
Q 30.078125 56 35.796875 56 
Q 45.21875 56 50.046875 50.171875 
Q 54.890625 44.34375 54.890625 33.015625 
z
" id="DejaVuSans-110"/>
        <path d="M 44.28125 53.078125 
L 44.28125 44.578125 
Q 40.484375 46.53125 36.375 47.5 
Q 32.28125 48.484375 27.875 48.484375 
Q 21.1875 48.484375 17.84375 46.4375 
Q 14.5 44.390625 14.5 40.28125 
Q 14.5 37.15625 16.890625 35.375 
Q 19.28125 33.59375 26.515625 31.984375 
L 29.59375 31.296875 
Q 39.15625 29.25 43.1875 25.515625 
Q 47.21875 21.78125 47.21875 15.09375 
Q 47.21875 7.46875 41.1875 3.015625 
Q 35.15625 -1.421875 24.609375 -1.421875 
Q 20.21875 -1.421875 15.453125 -0.5625 
Q 10.6875 0.296875 5.421875 2 
L 5.421875 11.28125 
Q 10.40625 8.6875 15.234375 7.390625 
Q 20.0625 6.109375 24.8125 6.109375 
Q 31.15625 6.109375 34.5625 8.28125 
Q 37.984375 10.453125 37.984375 14.40625 
Q 37.984375 18.0625 35.515625 20.015625 
Q 33.0625 21.96875 24.703125 23.78125 
L 21.578125 24.515625 
Q 13.234375 26.265625 9.515625 29.90625 
Q 5.8125 33.546875 5.8125 39.890625 
Q 5.8125 47.609375 11.28125 51.796875 
Q 16.75 56 26.8125 56 
Q 31.78125 56 36.171875 55.265625 
Q 40.578125 54.546875 44.28125 53.078125 
z
" id="DejaVuSans-115"/>
       </defs>
       <use xlink:href="#DejaVuSans-90"/>
       <use x="68.505859" xlink:href="#DejaVuSans-95"/>
       <use x="118.505859" xlink:href="#DejaVuSans-50"/>
       <use x="182.128906" xlink:href="#DejaVuSans-95"/>
       <use x="232.128906" xlink:href="#DejaVuSans-110"/>
       <use x="295.507812" xlink:href="#DejaVuSans-115"/>
      </g>
     </g>
    </g>
    <g id="xtick_2">
     <g id="line2d_2">
      <g>
       <use style="stroke:#000000;stroke-width:0.8;" x="305.1" xlink:href="#m14de9bafb8" y="252"/>
      </g>
     </g>
     <g id="text_2">
      <!-- Z_3_ns -->
      <g transform="translate(287.720313 266.421875)scale(0.1 -0.1)">
       <defs>
        <path d="M 40.578125 39.3125 
Q 47.65625 37.796875 51.625 33 
Q 55.609375 28.21875 55.609375 21.1875 
Q 55.609375 10.40625 48.1875 4.484375 
Q 40.765625 -1.421875 27.09375 -1.421875 
Q 22.515625 -1.421875 17.65625 -0.515625 
Q 12.796875 0.390625 7.625 2.203125 
L 7.625 11.71875 
Q 11.71875 9.328125 16.59375 8.109375 
Q 21.484375 6.890625 26.8125 6.890625 
Q 36.078125 6.890625 40.9375 10.546875 
Q 45.796875 14.203125 45.796875 21.1875 
Q 45.796875 27.640625 41.28125 31.265625 
Q 36.765625 34.90625 28.71875 34.90625 
L 20.21875 34.90625 
L 20.21875 43.015625 
L 29.109375 43.015625 
Q 36.375 43.015625 40.234375 45.921875 
Q 44.09375 48.828125 44.09375 54.296875 
Q 44.09375 59.90625 40.109375 62.90625 
Q 36.140625 65.921875 28.71875 65.921875 
Q 24.65625 65.921875 20.015625 65.03125 
Q 15.375 64.15625 9.8125 62.3125 
L 9.8125 71.09375 
Q 15.4375 72.65625 20.34375 73.4375 
Q 25.25 74.21875 29.59375 74.21875 
Q 40.828125 74.21875 47.359375 69.109375 
Q 53.90625 64.015625 53.90625 55.328125 
Q 53.90625 49.265625 50.4375 45.09375 
Q 46.96875 40.921875 40.578125 39.3125 
z
" id="DejaVuSans-51"/>
       </defs>
       <use xlink:href="#DejaVuSans-90"/>
       <use x="68.505859" xlink:href="#DejaVuSans-95"/>
       <use x="118.505859" xlink:href="#DejaVuSans-51"/>
       <use x="182.128906" xlink:href="#DejaVuSans-95"/>
       <use x="232.128906" xlink:href="#DejaVuSans-110"/>
       <use x="295.507812" xlink:href="#DejaVuSans-115"/>
      </g>
     </g>
    </g>
    <g id="text_3">
     <!-- set -->
     <g transform="translate(213.758594 280.378125)scale(0.1 -0.1)">
      <defs>
       <path d="M 56.203125 29.59375 
L 56.203125 25.203125 
L 14.890625 25.203125 
Q 15.484375 15.921875 20.484375 11.0625 
Q 25.484375 6.203125 34.421875 6.203125 
Q 39.59375 6.203125 44.453125 7.46875 
Q 49.3125 8.734375 54.109375 11.28125 
L 54.109375 2.78125 
Q 49.265625 0.734375 44.1875 -0.34375 
Q 39.109375 -1.421875 33.890625 -1.421875 
Q 20.796875 -1.421875 13.15625 6.1875 
Q 5.515625 13.8125 5.515625 26.8125 
Q 5.515625 40.234375 12.765625 48.109375 
Q 20.015625 56 32.328125 56 
Q 43.359375 56 49.78125 48.890625 
Q 56.203125 41.796875 56.203125 29.59375 
z
M 47.21875 32.234375 
Q 47.125 39.59375 43.09375 43.984375 
Q 39.0625 48.390625 32.421875 48.390625 
Q 24.90625 48.390625 20.390625 44.140625 
Q 15.875 39.890625 15.1875 32.171875 
z
" id="DejaVuSans-101"/>
       <path d="M 18.3125 70.21875 
L 18.3125 54.6875 
L 36.8125 54.6875 
L 36.8125 47.703125 
L 18.3125 47.703125 
L 18.3125 18.015625 
Q 18.3125 11.328125 20.140625 9.421875 
Q 21.96875 7.515625 27.59375 7.515625 
L 36.8125 7.515625 
L 36.8125 0 
L 27.59375 0 
Q 17.1875 0 13.234375 3.875 
Q 9.28125 7.765625 9.28125 18.015625 
L 9.28125 47.703125 
L 2.6875 47.703125 
L 2.6875 54.6875 
L 9.28125 54.6875 
L 9.28125 70.21875 
z
" id="DejaVuSans-116"/>
      </defs>
      <use xlink:href="#DejaVuSans-115"/>
      <use x="52.099609" xlink:href="#DejaVuSans-101"/>
      <use x="113.623047" xlink:href="#DejaVuSans-116"/>
     </g>
    </g>
   </g>
   <g id="matplotlib.axis_2">
    <g id="ytick_1">
     <g id="line2d_3">
      <defs>
       <path d="M 0 0 
L -3.5 0 
" id="m2811ac2a5b" style="stroke:#000000;stroke-width:0.8;"/>
      </defs>
      <g>
       <use style="stroke:#000000;stroke-width:0.8;" x="54" xlink:href="#m2811ac2a5b" y="232.31253"/>
      </g>
     </g>
     <g id="text_4">
      <!-- −35 -->
      <g transform="translate(25.895312 236.111749)scale(0.1 -0.1)">
       <defs>
        <path d="M 10.59375 35.5 
L 73.1875 35.5 
L 73.1875 27.203125 
L 10.59375 27.203125 
z
" id="DejaVuSans-8722"/>
        <path d="M 10.796875 72.90625 
L 49.515625 72.90625 
L 49.515625 64.59375 
L 19.828125 64.59375 
L 19.828125 46.734375 
Q 21.96875 47.46875 24.109375 47.828125 
Q 26.265625 48.1875 28.421875 48.1875 
Q 40.625 48.1875 47.75 41.5 
Q 54.890625 34.8125 54.890625 23.390625 
Q 54.890625 11.625 47.5625 5.09375 
Q 40.234375 -1.421875 26.90625 -1.421875 
Q 22.3125 -1.421875 17.546875 -0.640625 
Q 12.796875 0.140625 7.71875 1.703125 
L 7.71875 11.625 
Q 12.109375 9.234375 16.796875 8.0625 
Q 21.484375 6.890625 26.703125 6.890625 
Q 35.15625 6.890625 40.078125 11.328125 
Q 45.015625 15.765625 45.015625 23.390625 
Q 45.015625 31 40.078125 35.4375 
Q 35.15625 39.890625 26.703125 39.890625 
Q 22.75 39.890625 18.8125 39.015625 
Q 14.890625 38.140625 10.796875 36.28125 
z
" id="DejaVuSans-53"/>
       </defs>
       <use xlink:href="#DejaVuSans-8722"/>
       <use x="83.789062" xlink:href="#DejaVuSans-51"/>
       <use x="147.412109" xlink:href="#DejaVuSans-53"/>
      </g>
     </g>
    </g>
    <g id="ytick_2">
     <g id="line2d_4">
      <g>
       <use style="stroke:#000000;stroke-width:0.8;" x="54" xlink:href="#m2811ac2a5b" y="206.042143"/>
      </g>
     </g>
     <g id="text_5">
      <!-- −30 -->
      <g transform="translate(25.895312 209.841362)scale(0.1 -0.1)">
       <defs>
        <path d="M 31.78125 66.40625 
Q 24.171875 66.40625 20.328125 58.90625 
Q 16.5 51.421875 16.5 36.375 
Q 16.5 21.390625 20.328125 13.890625 
Q 24.171875 6.390625 31.78125 6.390625 
Q 39.453125 6.390625 43.28125 13.890625 
Q 47.125 21.390625 47.125 36.375 
Q 47.125 51.421875 43.28125 58.90625 
Q 39.453125 66.40625 31.78125 66.40625 
z
M 31.78125 74.21875 
Q 44.046875 74.21875 50.515625 64.515625 
Q 56.984375 54.828125 56.984375 36.375 
Q 56.984375 17.96875 50.515625 8.265625 
Q 44.046875 -1.421875 31.78125 -1.421875 
Q 19.53125 -1.421875 13.0625 8.265625 
Q 6.59375 17.96875 6.59375 36.375 
Q 6.59375 54.828125 13.0625 64.515625 
Q 19.53125 74.21875 31.78125 74.21875 
z
" id="DejaVuSans-48"/>
       </defs>
       <use xlink:href="#DejaVuSans-8722"/>
       <use x="83.789062" xlink:href="#DejaVuSans-51"/>
       <use x="147.412109" xlink:href="#DejaVuSans-48"/>
      </g>
     </g>
    </g>
    <g id="ytick_3">
     <g id="line2d_5">
      <g>
       <use style="stroke:#000000;stroke-width:0.8;" x="54" xlink:href="#m2811ac2a5b" y="179.771756"/>
      </g>
     </g>
     <g id="text_6">
      <!-- −25 -->
      <g transform="translate(25.895312 183.570975)scale(0.1 -0.1)">
       <use xlink:href="#DejaVuSans-8722"/>
       <use x="83.789062" xlink:href="#DejaVuSans-50"/>
       <use x="147.412109" xlink:href="#DejaVuSans-53"/>
      </g>
     </g>
    </g>
    <g id="ytick_4">
     <g id="line2d_6">
      <g>
       <use style="stroke:#000000;stroke-width:0.8;" x="54" xlink:href="#m2811ac2a5b" y="153.501369"/>
      </g>
     </g>
     <g id="text_7">
      <!-- −20 -->
      <g transform="translate(25.895312 157.300588)scale(0.1 -0.1)">
       <use xlink:href="#DejaVuSans-8722"/>
       <use x="83.789062" xlink:href="#DejaVuSans-50"/>
       <use x="147.412109" xlink:href="#DejaVuSans-48"/>
      </g>
     </g>
    </g>
    <g id="ytick_5">
     <g id="line2d_7">
      <g>
       <use style="stroke:#000000;stroke-width:0.8;" x="54" xlink:href="#m2811ac2a5b" y="127.230982"/>
      </g>
     </g>
     <g id="text_8">
      <!-- −15 -->
      <g transform="translate(25.895312 131.030201)scale(0.1 -0.1)">
       <defs>
        <path d="M 12.40625 8.296875 
L 28.515625 8.296875 
L 28.515625 63.921875 
L 10.984375 60.40625 
L 10.984375 69.390625 
L 28.421875 72.90625 
L 38.28125 72.90625 
L 38.28125 8.296875 
L 54.390625 8.296875 
L 54.390625 0 
L 12.40625 0 
z
" id="DejaVuSans-49"/>
       </defs>
       <use xlink:href="#DejaVuSans-8722"/>
       <use x="83.789062" xlink:href="#DejaVuSans-49"/>
       <use x="147.412109" xlink:href="#DejaVuSans-53"/>
      </g>
     </g>
    </g>
    <g id="ytick_6">
     <g id="line2d_8">
      <g>
       <use style="stroke:#000000;stroke-width:0.8;" x="54" xlink:href="#m2811ac2a5b" y="100.960595"/>
      </g>
     </g>
     <g id="text_9">
      <!-- −10 -->
      <g transform="translate(25.895312 104.759814)scale(0.1 -0.1)">
       <use xlink:href="#DejaVuSans-8722"/>
       <use x="83.789062" xlink:href="#DejaVuSans-49"/>
       <use x="147.412109" xlink:href="#DejaVuSans-48"/>
      </g>
     </g>
    </g>
    <g id="ytick_7">
     <g id="line2d_9">
      <g>
       <use style="stroke:#000000;stroke-width:0.8;" x="54" xlink:href="#m2811ac2a5b" y="74.690208"/>
      </g>
     </g>
     <g id="text_10">
      <!-- −5 -->
      <g transform="translate(32.257812 78.489427)scale(0.1 -0.1)">
       <use xlink:href="#DejaVuSans-8722"/>
       <use x="83.789062" xlink:href="#DejaVuSans-53"/>
      </g>
     </g>
    </g>
    <g id="ytick_8">
     <g id="line2d_10">
      <g>
       <use style="stroke:#000000;stroke-width:0.8;" x="54" xlink:href="#m2811ac2a5b" y="48.419822"/>
      </g>
     </g>
     <g id="text_11">
      <!-- 0 -->
      <g transform="translate(40.6375 52.21904)scale(0.1 -0.1)">
       <use xlink:href="#DejaVuSans-48"/>
      </g>
     </g>
    </g>
    <g id="text_12">
     <!-- value -->
     <g transform="translate(19.815625 156.937813)rotate(-90)scale(0.1 -0.1)">
      <defs>
       <path d="M 2.984375 54.6875 
L 12.5 54.6875 
L 29.59375 8.796875 
L 46.6875 54.6875 
L 56.203125 54.6875 
L 35.6875 0 
L 23.484375 0 
z
" id="DejaVuSans-118"/>
       <path d="M 34.28125 27.484375 
Q 23.390625 27.484375 19.1875 25 
Q 14.984375 22.515625 14.984375 16.5 
Q 14.984375 11.71875 18.140625 8.90625 
Q 21.296875 6.109375 26.703125 6.109375 
Q 34.1875 6.109375 38.703125 11.40625 
Q 43.21875 16.703125 43.21875 25.484375 
L 43.21875 27.484375 
z
M 52.203125 31.203125 
L 52.203125 0 
L 43.21875 0 
L 43.21875 8.296875 
Q 40.140625 3.328125 35.546875 0.953125 
Q 30.953125 -1.421875 24.3125 -1.421875 
Q 15.921875 -1.421875 10.953125 3.296875 
Q 6 8.015625 6 15.921875 
Q 6 25.140625 12.171875 29.828125 
Q 18.359375 34.515625 30.609375 34.515625 
L 43.21875 34.515625 
L 43.21875 35.40625 
Q 43.21875 41.609375 39.140625 45 
Q 35.0625 48.390625 27.6875 48.390625 
Q 23 48.390625 18.546875 47.265625 
Q 14.109375 46.140625 10.015625 43.890625 
L 10.015625 52.203125 
Q 14.9375 54.109375 19.578125 55.046875 
Q 24.21875 56 28.609375 56 
Q 40.484375 56 46.34375 49.84375 
Q 52.203125 43.703125 52.203125 31.203125 
z
" id="DejaVuSans-97"/>
       <path d="M 9.421875 75.984375 
L 18.40625 75.984375 
L 18.40625 0 
L 9.421875 0 
z
" id="DejaVuSans-108"/>
       <path d="M 8.5 21.578125 
L 8.5 54.6875 
L 17.484375 54.6875 
L 17.484375 21.921875 
Q 17.484375 14.15625 20.5 10.265625 
Q 23.53125 6.390625 29.59375 6.390625 
Q 36.859375 6.390625 41.078125 11.03125 
Q 45.3125 15.671875 45.3125 23.6875 
L 45.3125 54.6875 
L 54.296875 54.6875 
L 54.296875 0 
L 45.3125 0 
L 45.3125 8.40625 
Q 42.046875 3.421875 37.71875 1 
Q 33.40625 -1.421875 27.6875 -1.421875 
Q 18.265625 -1.421875 13.375 4.4375 
Q 8.5 10.296875 8.5 21.578125 
z
M 31.109375 56 
z
" id="DejaVuSans-117"/>
      </defs>
      <use xlink:href="#DejaVuSans-118"/>
      <use x="59.179688" xlink:href="#DejaVuSans-97"/>
      <use x="120.458984" xlink:href="#DejaVuSans-108"/>
      <use x="148.242188" xlink:href="#DejaVuSans-117"/>
      <use x="211.621094" xlink:href="#DejaVuSans-101"/>
     </g>
    </g>
   </g>
   <g id="line2d_11">
    <path clip-path="url(#p808e144a00)" d="M 104.22 175.832862 
L 104.22 44.443636 
" style="fill:none;stroke:#3f3f3f;stroke-linecap:square;stroke-width:1.5;"/>
   </g>
   <g id="line2d_12">
    <path clip-path="url(#p808e144a00)" d="M 104.22 115.17797 
L 104.22 74.399882 
" style="fill:none;stroke:#3f3f3f;stroke-linecap:square;stroke-width:4.5;"/>
   </g>
   <g id="line2d_13">
    <path clip-path="url(#p808e144a00)" d="M 338.58 172.631198 
L 338.58 45.990837 
" style="fill:none;stroke:#3f3f3f;stroke-linecap:square;stroke-width:1.5;"/>
   </g>
   <g id="line2d_14">
    <path clip-path="url(#p808e144a00)" d="M 338.58 111.775932 
L 338.58 71.061687 
" style="fill:none;stroke:#3f3f3f;stroke-linecap:square;stroke-width:4.5;"/>
   </g>
   <g id="patch_5">
    <path d="M 54 252 
L 54 34.56 
" style="fill:none;stroke:#000000;stroke-linecap:square;stroke-linejoin:miter;stroke-width:0.8;"/>
   </g>
   <g id="patch_6">
    <path d="M 388.8 252 
L 388.8 34.56 
" style="fill:none;stroke:#000000;stroke-linecap:square;stroke-linejoin:miter;stroke-width:0.8;"/>
   </g>
   <g id="patch_7">
    <path d="M 54 252 
L 388.8 252 
" style="fill:none;stroke:#000000;stroke-linecap:square;stroke-linejoin:miter;stroke-width:0.8;"/>
   </g>
   <g id="patch_8">
    <path d="M 54 34.56 
L 388.8 34.56 
" style="fill:none;stroke:#000000;stroke-linecap:square;stroke-linejoin:miter;stroke-width:0.8;"/>
   </g>
   <g id="PathCollection_1">
    <defs>
     <path d="M 0 1.5 
C 0.397805 1.5 0.77937 1.341951 1.06066 1.06066 
C 1.341951 0.77937 1.5 0.397805 1.5 0 
C 1.5 -0.397805 1.341951 -0.77937 1.06066 -1.06066 
C 0.77937 -1.341951 0.397805 -1.5 0 -1.5 
C -0.397805 -1.5 -0.77937 -1.341951 -1.06066 -1.06066 
C -1.341951 -0.77937 -1.5 -0.397805 -1.5 0 
C -1.5 0.397805 -1.341951 0.77937 -1.06066 1.06066 
C -0.77937 1.341951 -0.397805 1.5 0 1.5 
z
" id="m4125936819" style="stroke:#3f3f3f;"/>
    </defs>
    <g clip-path="url(#p808e144a00)">
     <use style="fill:#ffffff;stroke:#3f3f3f;" x="104.22" xlink:href="#m4125936819" y="89.407654"/>
    </g>
   </g>
   <g id="PathCollection_2">
    <g clip-path="url(#p808e144a00)">
     <use style="fill:#ffffff;stroke:#3f3f3f;" x="338.58" xlink:href="#m4125936819" y="86.513566"/>
    </g>
   </g>
   <g id="legend_1">
    <g id="patch_9">
     <path d="M 61 247 
L 127.759375 247 
Q 129.759375 247 129.759375 245 
L 129.759375 201.409375 
Q 129.759375 199.409375 127.759375 199.409375 
L 61 199.409375 
Q 59 199.409375 59 201.409375 
L 59 245 
Q 59 247 61 247 
z
" style="fill:#ffffff;opacity:0.8;stroke:#cccccc;stroke-linejoin:miter;"/>
    </g>
    <g id="text_13">
     <!-- set -->
     <g transform="translate(86.738281 211.007812)scale(0.1 -0.1)">
      <use xlink:href="#DejaVuSans-115"/>
      <use x="52.099609" xlink:href="#DejaVuSans-101"/>
      <use x="113.623047" xlink:href="#DejaVuSans-116"/>
     </g>
    </g>
    <g id="patch_10">
     <path d="M 63 225.685937 
L 83 225.685937 
L 83 218.685937 
L 63 218.685937 
z
" style="fill:#3274a1;stroke:#3f3f3f;stroke-linejoin:miter;stroke-width:0.75;"/>
    </g>
    <g id="text_14">
     <!-- Z_2_ns -->
     <g transform="translate(91 225.685937)scale(0.1 -0.1)">
      <use xlink:href="#DejaVuSans-90"/>
      <use x="68.505859" xlink:href="#DejaVuSans-95"/>
      <use x="118.505859" xlink:href="#DejaVuSans-50"/>
      <use x="182.128906" xlink:href="#DejaVuSans-95"/>
      <use x="232.128906" xlink:href="#DejaVuSans-110"/>
      <use x="295.507812" xlink:href="#DejaVuSans-115"/>
     </g>
    </g>
    <g id="patch_11">
     <path d="M 63 240.642188 
L 83 240.642188 
L 83 233.642188 
L 63 233.642188 
z
" style="fill:#e1812c;stroke:#3f3f3f;stroke-linejoin:miter;stroke-width:0.75;"/>
    </g>
    <g id="text_15">
     <!-- Z_3_ns -->
     <g transform="translate(91 240.642188)scale(0.1 -0.1)">
      <use xlink:href="#DejaVuSans-90"/>
      <use x="68.505859" xlink:href="#DejaVuSans-95"/>
      <use x="118.505859" xlink:href="#DejaVuSans-51"/>
      <use x="182.128906" xlink:href="#DejaVuSans-95"/>
      <use x="232.128906" xlink:href="#DejaVuSans-110"/>
      <use x="295.507812" xlink:href="#DejaVuSans-115"/>
     </g>
    </g>
   </g>
  </g>
 </g>
 <defs>
  <clipPath id="p808e144a00">
   <rect height="217.44" width="334.8" x="54" y="34.56"/>
  </clipPath>
 </defs>
</svg>
