<?xml version="1.0" encoding="utf-8" standalone="no"?>
<!DOCTYPE svg PUBLIC "-//W3C//DTD SVG 1.1//EN"
  "http://www.w3.org/Graphics/SVG/1.1/DTD/svg11.dtd">
<!-- Created with matplotlib (https://matplotlib.org/) -->
<svg height="288pt" version="1.1" viewBox="0 0 432 288" width="432pt" xmlns="http://www.w3.org/2000/svg" xmlns:xlink="http://www.w3.org/1999/xlink">
 <metadata>
  <rdf:RDF xmlns:cc="http://creativecommons.org/ns#" xmlns:dc="http://purl.org/dc/elements/1.1/" xmlns:rdf="http://www.w3.org/1999/02/22-rdf-syntax-ns#">
   <cc:Work>
    <dc:type rdf:resource="http://purl.org/dc/dcmitype/StillImage"/>
    <dc:date>2022-04-14T11:46:49.190138</dc:date>
    <dc:format>image/svg+xml</dc:format>
    <dc:creator>
     <cc:Agent>
      <dc:title>Matplotlib v3.3.4, https://matplotlib.org/</dc:title>
     </cc:Agent>
    </dc:creator>
   </cc:Work>
  </rdf:RDF>
 </metadata>
 <defs>
  <style type="text/css">*{stroke-linecap:butt;stroke-linejoin:round;}</style>
 </defs>
 <g id="figure_1">
  <g id="patch_1">
   <path d="M 0 288 
L 432 288 
L 432 0 
L 0 0 
z
" style="fill:#ffffff;"/>
  </g>
  <g id="axes_1">
   <g id="patch_2">
    <path d="M 54 252 
L 388.8 252 
L 388.8 34.56 
L 54 34.56 
z
" style="fill:#ffffff;"/>
   </g>
   <g id="PolyCollection_1">
    <defs>
     <path d="M 105.019844 -87.777721 
L 103.420156 -87.777721 
L 102.99122 -89.306854 
L 102.400359 -90.835987 
L 101.629781 -92.36512 
L 100.680137 -93.894253 
L 99.574161 -95.423386 
L 98.354214 -96.952519 
L 97.073454 -98.481652 
L 95.783181 -100.010785 
L 94.520867 -101.539918 
L 93.303386 -103.069051 
L 92.127919 -104.598184 
L 90.979755 -106.127317 
L 89.843312 -107.65645 
L 88.711392 -109.185583 
L 87.588528 -110.714716 
L 86.487012 -112.24385 
L 85.417754 -113.772983 
L 84.380865 -115.302116 
L 83.361336 -116.831249 
L 82.332863 -118.360382 
L 81.268643 -119.889515 
L 80.154103 -121.418648 
L 78.995217 -122.947781 
L 77.818203 -124.476914 
L 76.660946 -126.006047 
L 75.560828 -127.53518 
L 74.545285 -129.064313 
L 73.629428 -130.593446 
L 72.820696 -132.122579 
L 72.126411 -133.651712 
L 71.558638 -135.180845 
L 71.132742 -136.709978 
L 70.860209 -138.239111 
L 70.74 -139.768244 
L 70.753846 -141.297377 
L 70.868689 -142.826511 
L 71.045395 -144.355644 
L 71.249404 -145.884777 
L 71.458116 -147.41391 
L 71.662012 -148.943043 
L 71.86011 -150.472176 
L 72.053227 -152.001309 
L 72.239046 -153.530442 
L 72.411339 -155.059575 
L 72.563178 -156.588708 
L 72.692144 -158.117841 
L 72.805077 -159.646974 
L 72.920617 -161.176107 
L 73.06871 -162.70524 
L 73.287067 -164.234373 
L 73.615067 -165.763506 
L 74.086132 -167.292639 
L 74.72018 -168.821772 
L 75.518157 -170.350905 
L 76.460367 -171.880038 
L 77.509283 -173.409172 
L 78.616043 -174.938305 
L 79.728737 -176.467438 
L 80.800369 -177.996571 
L 81.794975 -179.525704 
L 82.691313 -181.054837 
L 83.484082 -182.58397 
L 84.182796 -184.113103 
L 84.808503 -185.642236 
L 85.388948 -187.171369 
L 85.953397 -188.700502 
L 86.528582 -190.229635 
L 87.136691 -191.758768 
L 87.795167 -193.287901 
L 88.517006 -194.817034 
L 89.310112 -196.346167 
L 90.175154 -197.8753 
L 91.102733 -199.404433 
L 92.071666 -200.933566 
L 93.050176 -202.462699 
L 94.000712 -203.991833 
L 94.887505 -205.520966 
L 95.684626 -207.050099 
L 96.381879 -208.579232 
L 96.986574 -210.108365 
L 97.520722 -211.637498 
L 98.01468 -213.166631 
L 98.499255 -214.695764 
L 98.998385 -216.224897 
L 99.524064 -217.75403 
L 100.074464 -219.283163 
L 100.635396 -220.812296 
L 101.184533 -222.341429 
L 101.697154 -223.870562 
L 102.151839 -225.399695 
L 102.53463 -226.928828 
L 102.84086 -228.457961 
L 103.074652 -229.987094 
L 103.246826 -231.516227 
L 103.372143 -233.04536 
L 103.466565 -234.574494 
L 103.544862 -236.103627 
L 103.618663 -237.63276 
L 103.695119 -239.161893 
L 104.744881 -239.161893 
L 104.744881 -239.161893 
L 104.821337 -237.63276 
L 104.895138 -236.103627 
L 104.973435 -234.574494 
L 105.067857 -233.04536 
L 105.193174 -231.516227 
L 105.365348 -229.987094 
L 105.59914 -228.457961 
L 105.90537 -226.928828 
L 106.288161 -225.399695 
L 106.742846 -223.870562 
L 107.255467 -222.341429 
L 107.804604 -220.812296 
L 108.365536 -219.283163 
L 108.915936 -217.75403 
L 109.441615 -216.224897 
L 109.940745 -214.695764 
L 110.42532 -213.166631 
L 110.919278 -211.637498 
L 111.453426 -210.108365 
L 112.058121 -208.579232 
L 112.755374 -207.050099 
L 113.552495 -205.520966 
L 114.439288 -203.991833 
L 115.389824 -202.462699 
L 116.368334 -200.933566 
L 117.337267 -199.404433 
L 118.264846 -197.8753 
L 119.129888 -196.346167 
L 119.922994 -194.817034 
L 120.644833 -193.287901 
L 121.303309 -191.758768 
L 121.911418 -190.229635 
L 122.486603 -188.700502 
L 123.051052 -187.171369 
L 123.631497 -185.642236 
L 124.257204 -184.113103 
L 124.955918 -182.58397 
L 125.748687 -181.054837 
L 126.645025 -179.525704 
L 127.639631 -177.996571 
L 128.711263 -176.467438 
L 129.823957 -174.938305 
L 130.930717 -173.409172 
L 131.979633 -171.880038 
L 132.921843 -170.350905 
L 133.71982 -168.821772 
L 134.353868 -167.292639 
L 134.824933 -165.763506 
L 135.152933 -164.234373 
L 135.37129 -162.70524 
L 135.519383 -161.176107 
L 135.634923 -159.646974 
L 135.747856 -158.117841 
L 135.876822 -156.588708 
L 136.028661 -155.059575 
L 136.200954 -153.530442 
L 136.386773 -152.001309 
L 136.57989 -150.472176 
L 136.777988 -148.943043 
L 136.981884 -147.41391 
L 137.190596 -145.884777 
L 137.394605 -144.355644 
L 137.571311 -142.826511 
L 137.686154 -141.297377 
L 137.7 -139.768244 
L 137.579791 -138.239111 
L 137.307258 -136.709978 
L 136.881362 -135.180845 
L 136.313589 -133.651712 
L 135.619304 -132.122579 
L 134.810572 -130.593446 
L 133.894715 -129.064313 
L 132.879172 -127.53518 
L 131.779054 -126.006047 
L 130.621797 -124.476914 
L 129.444783 -122.947781 
L 128.285897 -121.418648 
L 127.171357 -119.889515 
L 126.107137 -118.360382 
L 125.078664 -116.831249 
L 124.059135 -115.302116 
L 123.022246 -113.772983 
L 121.952988 -112.24385 
L 120.851472 -110.714716 
L 119.728608 -109.185583 
L 118.596688 -107.65645 
L 117.460245 -106.127317 
L 116.312081 -104.598184 
L 115.136614 -103.069051 
L 113.919133 -101.539918 
L 112.656819 -100.010785 
L 111.366546 -98.481652 
L 110.085786 -96.952519 
L 108.865839 -95.423386 
L 107.759863 -93.894253 
L 106.810219 -92.36512 
L 106.039641 -90.835987 
L 105.44878 -89.306854 
L 105.019844 -87.777721 
z
" id="md4f9771059" style="stroke:#3f3f3f;stroke-width:1.5;"/>
    </defs>
    <g clip-path="url(#p1d36fa6fb1)">
     <use style="fill:#3274a1;stroke:#3f3f3f;stroke-width:1.5;" x="0" xlink:href="#md4f9771059" y="288"/>
    </g>
   </g>
   <g id="PolyCollection_2">
    <defs>
     <path d="M 338.640665 -45.883636 
L 338.519335 -45.883636 
L 338.522352 -47.880331 
L 338.530487 -49.877025 
L 338.540927 -51.873719 
L 338.55028 -53.870413 
L 338.555702 -55.867107 
L 338.55563 -57.863802 
L 338.550084 -59.860496 
L 338.540653 -61.85719 
L 338.530178 -63.853884 
L 338.521977 -65.850579 
L 338.518645 -67.847273 
L 338.520866 -69.843967 
L 338.526809 -71.840661 
L 338.532371 -73.837355 
L 338.531793 -75.83405 
L 338.517669 -77.830744 
L 338.479223 -79.827438 
L 338.398212 -81.824132 
L 338.243093 -83.820826 
L 337.964423 -85.817521 
L 337.497038 -87.814215 
L 336.774585 -89.810909 
L 335.756532 -91.807603 
L 334.457367 -93.804298 
L 332.959339 -95.800992 
L 331.393461 -97.797686 
L 329.891344 -99.79438 
L 328.531793 -101.791074 
L 327.313306 -103.787769 
L 326.168294 -105.784463 
L 325.007426 -107.781157 
L 323.764486 -109.777851 
L 322.416507 -111.774545 
L 320.975201 -113.77124 
L 319.465617 -115.767934 
L 317.911962 -117.764628 
L 316.338459 -119.761322 
L 314.777363 -121.758017 
L 313.270282 -123.754711 
L 311.856791 -125.751405 
L 310.55822 -127.748099 
L 309.37178 -129.744793 
L 308.283589 -131.741488 
L 307.293324 -133.738182 
L 306.431376 -135.734876 
L 305.752341 -137.73157 
L 305.305589 -139.728264 
L 305.1019 -141.724959 
L 305.1 -143.721653 
L 305.223269 -145.718347 
L 305.394954 -147.715041 
L 305.567421 -149.711736 
L 305.727603 -151.70843 
L 305.880373 -153.705124 
L 306.027385 -155.701818 
L 306.159551 -157.698512 
L 306.26892 -159.695207 
L 306.370769 -161.691901 
L 306.518576 -163.688595 
L 306.797642 -165.685289 
L 307.296126 -167.681983 
L 308.067501 -169.678678 
L 309.104957 -171.675372 
L 310.341006 -173.672066 
L 311.670664 -175.66876 
L 312.985807 -177.665455 
L 314.207011 -179.662149 
L 315.303494 -181.658843 
L 316.296163 -183.655537 
L 317.242586 -185.652231 
L 318.208384 -187.648926 
L 319.236372 -189.64562 
L 320.32814 -191.642314 
L 321.447952 -193.639008 
L 322.546702 -195.635702 
L 323.591577 -197.632397 
L 324.583695 -199.629091 
L 325.554204 -201.625785 
L 326.543245 -203.622479 
L 327.575719 -205.619174 
L 328.647203 -207.615868 
L 329.724992 -209.612562 
L 330.760582 -211.609256 
L 331.706213 -213.60595 
L 332.529157 -215.602645 
L 333.220148 -217.599339 
L 333.794224 -219.596033 
L 334.283776 -221.592727 
L 334.725826 -223.589421 
L 335.148259 -225.586116 
L 335.561108 -227.58281 
L 335.957073 -229.579504 
L 336.320671 -231.576198 
L 336.640495 -233.572893 
L 336.917396 -235.569587 
L 337.164041 -237.566281 
L 337.396833 -239.562975 
L 337.625872 -241.559669 
L 337.84945 -243.556364 
L 339.31055 -243.556364 
L 339.31055 -243.556364 
L 339.534128 -241.559669 
L 339.763167 -239.562975 
L 339.995959 -237.566281 
L 340.242604 -235.569587 
L 340.519505 -233.572893 
L 340.839329 -231.576198 
L 341.202927 -229.579504 
L 341.598892 -227.58281 
L 342.011741 -225.586116 
L 342.434174 -223.589421 
L 342.876224 -221.592727 
L 343.365776 -219.596033 
L 343.939852 -217.599339 
L 344.630843 -215.602645 
L 345.453787 -213.60595 
L 346.399418 -211.609256 
L 347.435008 -209.612562 
L 348.512797 -207.615868 
L 349.584281 -205.619174 
L 350.616755 -203.622479 
L 351.605796 -201.625785 
L 352.576305 -199.629091 
L 353.568423 -197.632397 
L 354.613298 -195.635702 
L 355.712048 -193.639008 
L 356.83186 -191.642314 
L 357.923628 -189.64562 
L 358.951616 -187.648926 
L 359.917414 -185.652231 
L 360.863837 -183.655537 
L 361.856506 -181.658843 
L 362.952989 -179.662149 
L 364.174193 -177.665455 
L 365.489336 -175.66876 
L 366.818994 -173.672066 
L 368.055043 -171.675372 
L 369.092499 -169.678678 
L 369.863874 -167.681983 
L 370.362358 -165.685289 
L 370.641424 -163.688595 
L 370.789231 -161.691901 
L 370.89108 -159.695207 
L 371.000449 -157.698512 
L 371.132615 -155.701818 
L 371.279627 -153.705124 
L 371.432397 -151.70843 
L 371.592579 -149.711736 
L 371.765046 -147.715041 
L 371.936731 -145.718347 
L 372.06 -143.721653 
L 372.0581 -141.724959 
L 371.854411 -139.728264 
L 371.407659 -137.73157 
L 370.728624 -135.734876 
L 369.866676 -133.738182 
L 368.876411 -131.741488 
L 367.78822 -129.744793 
L 366.60178 -127.748099 
L 365.303209 -125.751405 
L 363.889718 -123.754711 
L 362.382637 -121.758017 
L 360.821541 -119.761322 
L 359.248038 -117.764628 
L 357.694383 -115.767934 
L 356.184799 -113.77124 
L 354.743493 -111.774545 
L 353.395514 -109.777851 
L 352.152574 -107.781157 
L 350.991706 -105.784463 
L 349.846694 -103.787769 
L 348.628207 -101.791074 
L 347.268656 -99.79438 
L 345.766539 -97.797686 
L 344.200661 -95.800992 
L 342.702633 -93.804298 
L 341.403468 -91.807603 
L 340.385415 -89.810909 
L 339.662962 -87.814215 
L 339.195577 -85.817521 
L 338.916907 -83.820826 
L 338.761788 -81.824132 
L 338.680777 -79.827438 
L 338.642331 -77.830744 
L 338.628207 -75.83405 
L 338.627629 -73.837355 
L 338.633191 -71.840661 
L 338.639134 -69.843967 
L 338.641355 -67.847273 
L 338.638023 -65.850579 
L 338.629822 -63.853884 
L 338.619347 -61.85719 
L 338.609916 -59.860496 
L 338.60437 -57.863802 
L 338.604298 -55.867107 
L 338.60972 -53.870413 
L 338.619073 -51.873719 
L 338.629513 -49.877025 
L 338.637648 -47.880331 
L 338.640665 -45.883636 
z
" id="m2bfd85a766" style="stroke:#3f3f3f;stroke-width:1.5;"/>
    </defs>
    <g clip-path="url(#p1d36fa6fb1)">
     <use style="fill:#e1812c;stroke:#3f3f3f;stroke-width:1.5;" x="0" xlink:href="#m2bfd85a766" y="288"/>
    </g>
   </g>
   <g id="patch_3">
    <path clip-path="url(#p1d36fa6fb1)" d="M 137.7 190.184374 
L 137.7 190.184374 
L 137.7 190.184374 
L 137.7 190.184374 
z
" style="fill:#3274a1;stroke:#3f3f3f;stroke-linejoin:miter;stroke-width:0.75;"/>
   </g>
   <g id="patch_4">
    <path clip-path="url(#p1d36fa6fb1)" d="M 137.7 190.184374 
L 137.7 190.184374 
L 137.7 190.184374 
L 137.7 190.184374 
z
" style="fill:#e1812c;stroke:#3f3f3f;stroke-linejoin:miter;stroke-width:0.75;"/>
   </g>
   <g id="matplotlib.axis_1">
    <g id="xtick_1">
     <g id="line2d_1">
      <defs>
       <path d="M 0 0 
L 0 3.5 
" id="mcf4ab09bd4" style="stroke:#000000;stroke-width:0.8;"/>
      </defs>
      <g>
       <use style="stroke:#000000;stroke-width:0.8;" x="137.7" xlink:href="#mcf4ab09bd4" y="252"/>
      </g>
     </g>
     <g id="text_1">
      <!-- Z_2_zero -->
      <g transform="translate(115.390625 266.421875)scale(0.1 -0.1)">
       <defs>
        <path d="M 5.609375 72.90625 
L 62.890625 72.90625 
L 62.890625 65.375 
L 16.796875 8.296875 
L 64.015625 8.296875 
L 64.015625 0 
L 4.5 0 
L 4.5 7.515625 
L 50.59375 64.59375 
L 5.609375 64.59375 
z
" id="DejaVuSans-90"/>
        <path d="M 50.984375 -16.609375 
L 50.984375 -23.578125 
L -0.984375 -23.578125 
L -0.984375 -16.609375 
z
" id="DejaVuSans-95"/>
        <path d="M 19.1875 8.296875 
L 53.609375 8.296875 
L 53.609375 0 
L 7.328125 0 
L 7.328125 8.296875 
Q 12.9375 14.109375 22.625 23.890625 
Q 32.328125 33.6875 34.8125 36.53125 
Q 39.546875 41.84375 41.421875 45.53125 
Q 43.3125 49.21875 43.3125 52.78125 
Q 43.3125 58.59375 39.234375 62.25 
Q 35.15625 65.921875 28.609375 65.921875 
Q 23.96875 65.921875 18.8125 64.3125 
Q 13.671875 62.703125 7.8125 59.421875 
L 7.8125 69.390625 
Q 13.765625 71.78125 18.9375 73 
Q 24.125 74.21875 28.421875 74.21875 
Q 39.75 74.21875 46.484375 68.546875 
Q 53.21875 62.890625 53.21875 53.421875 
Q 53.21875 48.921875 51.53125 44.890625 
Q 49.859375 40.875 45.40625 35.40625 
Q 44.1875 33.984375 37.640625 27.21875 
Q 31.109375 20.453125 19.1875 8.296875 
z
" id="DejaVuSans-50"/>
        <path d="M 5.515625 54.6875 
L 48.1875 54.6875 
L 48.1875 46.484375 
L 14.40625 7.171875 
L 48.1875 7.171875 
L 48.1875 0 
L 4.296875 0 
L 4.296875 8.203125 
L 38.09375 47.515625 
L 5.515625 47.515625 
z
" id="DejaVuSans-122"/>
        <path d="M 56.203125 29.59375 
L 56.203125 25.203125 
L 14.890625 25.203125 
Q 15.484375 15.921875 20.484375 11.0625 
Q 25.484375 6.203125 34.421875 6.203125 
Q 39.59375 6.203125 44.453125 7.46875 
Q 49.3125 8.734375 54.109375 11.28125 
L 54.109375 2.78125 
Q 49.265625 0.734375 44.1875 -0.34375 
Q 39.109375 -1.421875 33.890625 -1.421875 
Q 20.796875 -1.421875 13.15625 6.1875 
Q 5.515625 13.8125 5.515625 26.8125 
Q 5.515625 40.234375 12.765625 48.109375 
Q 20.015625 56 32.328125 56 
Q 43.359375 56 49.78125 48.890625 
Q 56.203125 41.796875 56.203125 29.59375 
z
M 47.21875 32.234375 
Q 47.125 39.59375 43.09375 43.984375 
Q 39.0625 48.390625 32.421875 48.390625 
Q 24.90625 48.390625 20.390625 44.140625 
Q 15.875 39.890625 15.1875 32.171875 
z
" id="DejaVuSans-101"/>
        <path d="M 41.109375 46.296875 
Q 39.59375 47.171875 37.8125 47.578125 
Q 36.03125 48 33.890625 48 
Q 26.265625 48 22.1875 43.046875 
Q 18.109375 38.09375 18.109375 28.8125 
L 18.109375 0 
L 9.078125 0 
L 9.078125 54.6875 
L 18.109375 54.6875 
L 18.109375 46.1875 
Q 20.953125 51.171875 25.484375 53.578125 
Q 30.03125 56 36.53125 56 
Q 37.453125 56 38.578125 55.875 
Q 39.703125 55.765625 41.0625 55.515625 
z
" id="DejaVuSans-114"/>
        <path d="M 30.609375 48.390625 
Q 23.390625 48.390625 19.1875 42.75 
Q 14.984375 37.109375 14.984375 27.296875 
Q 14.984375 17.484375 19.15625 11.84375 
Q 23.34375 6.203125 30.609375 6.203125 
Q 37.796875 6.203125 41.984375 11.859375 
Q 46.1875 17.53125 46.1875 27.296875 
Q 46.1875 37.015625 41.984375 42.703125 
Q 37.796875 48.390625 30.609375 48.390625 
z
M 30.609375 56 
Q 42.328125 56 49.015625 48.375 
Q 55.71875 40.765625 55.71875 27.296875 
Q 55.71875 13.875 49.015625 6.21875 
Q 42.328125 -1.421875 30.609375 -1.421875 
Q 18.84375 -1.421875 12.171875 6.21875 
Q 5.515625 13.875 5.515625 27.296875 
Q 5.515625 40.765625 12.171875 48.375 
Q 18.84375 56 30.609375 56 
z
" id="DejaVuSans-111"/>
       </defs>
       <use xlink:href="#DejaVuSans-90"/>
       <use x="68.505859" xlink:href="#DejaVuSans-95"/>
       <use x="118.505859" xlink:href="#DejaVuSans-50"/>
       <use x="182.128906" xlink:href="#DejaVuSans-95"/>
       <use x="232.128906" xlink:href="#DejaVuSans-122"/>
       <use x="284.619141" xlink:href="#DejaVuSans-101"/>
       <use x="346.142578" xlink:href="#DejaVuSans-114"/>
       <use x="385.005859" xlink:href="#DejaVuSans-111"/>
      </g>
     </g>
    </g>
    <g id="xtick_2">
     <g id="line2d_2">
      <g>
       <use style="stroke:#000000;stroke-width:0.8;" x="305.1" xlink:href="#mcf4ab09bd4" y="252"/>
      </g>
     </g>
     <g id="text_2">
      <!-- Z_3_zero -->
      <g transform="translate(282.790625 266.421875)scale(0.1 -0.1)">
       <defs>
        <path d="M 40.578125 39.3125 
Q 47.65625 37.796875 51.625 33 
Q 55.609375 28.21875 55.609375 21.1875 
Q 55.609375 10.40625 48.1875 4.484375 
Q 40.765625 -1.421875 27.09375 -1.421875 
Q 22.515625 -1.421875 17.65625 -0.515625 
Q 12.796875 0.390625 7.625 2.203125 
L 7.625 11.71875 
Q 11.71875 9.328125 16.59375 8.109375 
Q 21.484375 6.890625 26.8125 6.890625 
Q 36.078125 6.890625 40.9375 10.546875 
Q 45.796875 14.203125 45.796875 21.1875 
Q 45.796875 27.640625 41.28125 31.265625 
Q 36.765625 34.90625 28.71875 34.90625 
L 20.21875 34.90625 
L 20.21875 43.015625 
L 29.109375 43.015625 
Q 36.375 43.015625 40.234375 45.921875 
Q 44.09375 48.828125 44.09375 54.296875 
Q 44.09375 59.90625 40.109375 62.90625 
Q 36.140625 65.921875 28.71875 65.921875 
Q 24.65625 65.921875 20.015625 65.03125 
Q 15.375 64.15625 9.8125 62.3125 
L 9.8125 71.09375 
Q 15.4375 72.65625 20.34375 73.4375 
Q 25.25 74.21875 29.59375 74.21875 
Q 40.828125 74.21875 47.359375 69.109375 
Q 53.90625 64.015625 53.90625 55.328125 
Q 53.90625 49.265625 50.4375 45.09375 
Q 46.96875 40.921875 40.578125 39.3125 
z
" id="DejaVuSans-51"/>
       </defs>
       <use xlink:href="#DejaVuSans-90"/>
       <use x="68.505859" xlink:href="#DejaVuSans-95"/>
       <use x="118.505859" xlink:href="#DejaVuSans-51"/>
       <use x="182.128906" xlink:href="#DejaVuSans-95"/>
       <use x="232.128906" xlink:href="#DejaVuSans-122"/>
       <use x="284.619141" xlink:href="#DejaVuSans-101"/>
       <use x="346.142578" xlink:href="#DejaVuSans-114"/>
       <use x="385.005859" xlink:href="#DejaVuSans-111"/>
      </g>
     </g>
    </g>
    <g id="text_3">
     <!-- set -->
     <g transform="translate(213.758594 280.378125)scale(0.1 -0.1)">
      <defs>
       <path d="M 44.28125 53.078125 
L 44.28125 44.578125 
Q 40.484375 46.53125 36.375 47.5 
Q 32.28125 48.484375 27.875 48.484375 
Q 21.1875 48.484375 17.84375 46.4375 
Q 14.5 44.390625 14.5 40.28125 
Q 14.5 37.15625 16.890625 35.375 
Q 19.28125 33.59375 26.515625 31.984375 
L 29.59375 31.296875 
Q 39.15625 29.25 43.1875 25.515625 
Q 47.21875 21.78125 47.21875 15.09375 
Q 47.21875 7.46875 41.1875 3.015625 
Q 35.15625 -1.421875 24.609375 -1.421875 
Q 20.21875 -1.421875 15.453125 -0.5625 
Q 10.6875 0.296875 5.421875 2 
L 5.421875 11.28125 
Q 10.40625 8.6875 15.234375 7.390625 
Q 20.0625 6.109375 24.8125 6.109375 
Q 31.15625 6.109375 34.5625 8.28125 
Q 37.984375 10.453125 37.984375 14.40625 
Q 37.984375 18.0625 35.515625 20.015625 
Q 33.0625 21.96875 24.703125 23.78125 
L 21.578125 24.515625 
Q 13.234375 26.265625 9.515625 29.90625 
Q 5.8125 33.546875 5.8125 39.890625 
Q 5.8125 47.609375 11.28125 51.796875 
Q 16.75 56 26.8125 56 
Q 31.78125 56 36.171875 55.265625 
Q 40.578125 54.546875 44.28125 53.078125 
z
" id="DejaVuSans-115"/>
       <path d="M 18.3125 70.21875 
L 18.3125 54.6875 
L 36.8125 54.6875 
L 36.8125 47.703125 
L 18.3125 47.703125 
L 18.3125 18.015625 
Q 18.3125 11.328125 20.140625 9.421875 
Q 21.96875 7.515625 27.59375 7.515625 
L 36.8125 7.515625 
L 36.8125 0 
L 27.59375 0 
Q 17.1875 0 13.234375 3.875 
Q 9.28125 7.765625 9.28125 18.015625 
L 9.28125 47.703125 
L 2.6875 47.703125 
L 2.6875 54.6875 
L 9.28125 54.6875 
L 9.28125 70.21875 
z
" id="DejaVuSans-116"/>
      </defs>
      <use xlink:href="#DejaVuSans-115"/>
      <use x="52.099609" xlink:href="#DejaVuSans-101"/>
      <use x="113.623047" xlink:href="#DejaVuSans-116"/>
     </g>
    </g>
   </g>
   <g id="matplotlib.axis_2">
    <g id="ytick_1">
     <g id="line2d_3">
      <defs>
       <path d="M 0 0 
L -3.5 0 
" id="mcec28d0f67" style="stroke:#000000;stroke-width:0.8;"/>
      </defs>
      <g>
       <use style="stroke:#000000;stroke-width:0.8;" x="54" xlink:href="#mcec28d0f67" y="250.232653"/>
      </g>
     </g>
     <g id="text_4">
      <!-- −5.0 -->
      <g transform="translate(22.717187 254.031872)scale(0.1 -0.1)">
       <defs>
        <path d="M 10.59375 35.5 
L 73.1875 35.5 
L 73.1875 27.203125 
L 10.59375 27.203125 
z
" id="DejaVuSans-8722"/>
        <path d="M 10.796875 72.90625 
L 49.515625 72.90625 
L 49.515625 64.59375 
L 19.828125 64.59375 
L 19.828125 46.734375 
Q 21.96875 47.46875 24.109375 47.828125 
Q 26.265625 48.1875 28.421875 48.1875 
Q 40.625 48.1875 47.75 41.5 
Q 54.890625 34.8125 54.890625 23.390625 
Q 54.890625 11.625 47.5625 5.09375 
Q 40.234375 -1.421875 26.90625 -1.421875 
Q 22.3125 -1.421875 17.546875 -0.640625 
Q 12.796875 0.140625 7.71875 1.703125 
L 7.71875 11.625 
Q 12.109375 9.234375 16.796875 8.0625 
Q 21.484375 6.890625 26.703125 6.890625 
Q 35.15625 6.890625 40.078125 11.328125 
Q 45.015625 15.765625 45.015625 23.390625 
Q 45.015625 31 40.078125 35.4375 
Q 35.15625 39.890625 26.703125 39.890625 
Q 22.75 39.890625 18.8125 39.015625 
Q 14.890625 38.140625 10.796875 36.28125 
z
" id="DejaVuSans-53"/>
        <path d="M 10.6875 12.40625 
L 21 12.40625 
L 21 0 
L 10.6875 0 
z
" id="DejaVuSans-46"/>
        <path d="M 31.78125 66.40625 
Q 24.171875 66.40625 20.328125 58.90625 
Q 16.5 51.421875 16.5 36.375 
Q 16.5 21.390625 20.328125 13.890625 
Q 24.171875 6.390625 31.78125 6.390625 
Q 39.453125 6.390625 43.28125 13.890625 
Q 47.125 21.390625 47.125 36.375 
Q 47.125 51.421875 43.28125 58.90625 
Q 39.453125 66.40625 31.78125 66.40625 
z
M 31.78125 74.21875 
Q 44.046875 74.21875 50.515625 64.515625 
Q 56.984375 54.828125 56.984375 36.375 
Q 56.984375 17.96875 50.515625 8.265625 
Q 44.046875 -1.421875 31.78125 -1.421875 
Q 19.53125 -1.421875 13.0625 8.265625 
Q 6.59375 17.96875 6.59375 36.375 
Q 6.59375 54.828125 13.0625 64.515625 
Q 19.53125 74.21875 31.78125 74.21875 
z
" id="DejaVuSans-48"/>
       </defs>
       <use xlink:href="#DejaVuSans-8722"/>
       <use x="83.789062" xlink:href="#DejaVuSans-53"/>
       <use x="147.412109" xlink:href="#DejaVuSans-46"/>
       <use x="179.199219" xlink:href="#DejaVuSans-48"/>
      </g>
     </g>
    </g>
    <g id="ytick_2">
     <g id="line2d_4">
      <g>
       <use style="stroke:#000000;stroke-width:0.8;" x="54" xlink:href="#mcec28d0f67" y="220.208514"/>
      </g>
     </g>
     <g id="text_5">
      <!-- −2.5 -->
      <g transform="translate(22.717187 224.007733)scale(0.1 -0.1)">
       <use xlink:href="#DejaVuSans-8722"/>
       <use x="83.789062" xlink:href="#DejaVuSans-50"/>
       <use x="147.412109" xlink:href="#DejaVuSans-46"/>
       <use x="179.199219" xlink:href="#DejaVuSans-53"/>
      </g>
     </g>
    </g>
    <g id="ytick_3">
     <g id="line2d_5">
      <g>
       <use style="stroke:#000000;stroke-width:0.8;" x="54" xlink:href="#mcec28d0f67" y="190.184374"/>
      </g>
     </g>
     <g id="text_6">
      <!-- 0.0 -->
      <g transform="translate(31.096875 193.983593)scale(0.1 -0.1)">
       <use xlink:href="#DejaVuSans-48"/>
       <use x="63.623047" xlink:href="#DejaVuSans-46"/>
       <use x="95.410156" xlink:href="#DejaVuSans-48"/>
      </g>
     </g>
    </g>
    <g id="ytick_4">
     <g id="line2d_6">
      <g>
       <use style="stroke:#000000;stroke-width:0.8;" x="54" xlink:href="#mcec28d0f67" y="160.160235"/>
      </g>
     </g>
     <g id="text_7">
      <!-- 2.5 -->
      <g transform="translate(31.096875 163.959453)scale(0.1 -0.1)">
       <use xlink:href="#DejaVuSans-50"/>
       <use x="63.623047" xlink:href="#DejaVuSans-46"/>
       <use x="95.410156" xlink:href="#DejaVuSans-53"/>
      </g>
     </g>
    </g>
    <g id="ytick_5">
     <g id="line2d_7">
      <g>
       <use style="stroke:#000000;stroke-width:0.8;" x="54" xlink:href="#mcec28d0f67" y="130.136095"/>
      </g>
     </g>
     <g id="text_8">
      <!-- 5.0 -->
      <g transform="translate(31.096875 133.935314)scale(0.1 -0.1)">
       <use xlink:href="#DejaVuSans-53"/>
       <use x="63.623047" xlink:href="#DejaVuSans-46"/>
       <use x="95.410156" xlink:href="#DejaVuSans-48"/>
      </g>
     </g>
    </g>
    <g id="ytick_6">
     <g id="line2d_8">
      <g>
       <use style="stroke:#000000;stroke-width:0.8;" x="54" xlink:href="#mcec28d0f67" y="100.111956"/>
      </g>
     </g>
     <g id="text_9">
      <!-- 7.5 -->
      <g transform="translate(31.096875 103.911174)scale(0.1 -0.1)">
       <defs>
        <path d="M 8.203125 72.90625 
L 55.078125 72.90625 
L 55.078125 68.703125 
L 28.609375 0 
L 18.3125 0 
L 43.21875 64.59375 
L 8.203125 64.59375 
z
" id="DejaVuSans-55"/>
       </defs>
       <use xlink:href="#DejaVuSans-55"/>
       <use x="63.623047" xlink:href="#DejaVuSans-46"/>
       <use x="95.410156" xlink:href="#DejaVuSans-53"/>
      </g>
     </g>
    </g>
    <g id="ytick_7">
     <g id="line2d_9">
      <g>
       <use style="stroke:#000000;stroke-width:0.8;" x="54" xlink:href="#mcec28d0f67" y="70.087816"/>
      </g>
     </g>
     <g id="text_10">
      <!-- 10.0 -->
      <g transform="translate(24.734375 73.887035)scale(0.1 -0.1)">
       <defs>
        <path d="M 12.40625 8.296875 
L 28.515625 8.296875 
L 28.515625 63.921875 
L 10.984375 60.40625 
L 10.984375 69.390625 
L 28.421875 72.90625 
L 38.28125 72.90625 
L 38.28125 8.296875 
L 54.390625 8.296875 
L 54.390625 0 
L 12.40625 0 
z
" id="DejaVuSans-49"/>
       </defs>
       <use xlink:href="#DejaVuSans-49"/>
       <use x="63.623047" xlink:href="#DejaVuSans-48"/>
       <use x="127.246094" xlink:href="#DejaVuSans-46"/>
       <use x="159.033203" xlink:href="#DejaVuSans-48"/>
      </g>
     </g>
    </g>
    <g id="ytick_8">
     <g id="line2d_10">
      <g>
       <use style="stroke:#000000;stroke-width:0.8;" x="54" xlink:href="#mcec28d0f67" y="40.063677"/>
      </g>
     </g>
     <g id="text_11">
      <!-- 12.5 -->
      <g transform="translate(24.734375 43.862895)scale(0.1 -0.1)">
       <use xlink:href="#DejaVuSans-49"/>
       <use x="63.623047" xlink:href="#DejaVuSans-50"/>
       <use x="127.246094" xlink:href="#DejaVuSans-46"/>
       <use x="159.033203" xlink:href="#DejaVuSans-53"/>
      </g>
     </g>
    </g>
    <g id="text_12">
     <!-- value -->
     <g transform="translate(16.6375 156.937813)rotate(-90)scale(0.1 -0.1)">
      <defs>
       <path d="M 2.984375 54.6875 
L 12.5 54.6875 
L 29.59375 8.796875 
L 46.6875 54.6875 
L 56.203125 54.6875 
L 35.6875 0 
L 23.484375 0 
z
" id="DejaVuSans-118"/>
       <path d="M 34.28125 27.484375 
Q 23.390625 27.484375 19.1875 25 
Q 14.984375 22.515625 14.984375 16.5 
Q 14.984375 11.71875 18.140625 8.90625 
Q 21.296875 6.109375 26.703125 6.109375 
Q 34.1875 6.109375 38.703125 11.40625 
Q 43.21875 16.703125 43.21875 25.484375 
L 43.21875 27.484375 
z
M 52.203125 31.203125 
L 52.203125 0 
L 43.21875 0 
L 43.21875 8.296875 
Q 40.140625 3.328125 35.546875 0.953125 
Q 30.953125 -1.421875 24.3125 -1.421875 
Q 15.921875 -1.421875 10.953125 3.296875 
Q 6 8.015625 6 15.921875 
Q 6 25.140625 12.171875 29.828125 
Q 18.359375 34.515625 30.609375 34.515625 
L 43.21875 34.515625 
L 43.21875 35.40625 
Q 43.21875 41.609375 39.140625 45 
Q 35.0625 48.390625 27.6875 48.390625 
Q 23 48.390625 18.546875 47.265625 
Q 14.109375 46.140625 10.015625 43.890625 
L 10.015625 52.203125 
Q 14.9375 54.109375 19.578125 55.046875 
Q 24.21875 56 28.609375 56 
Q 40.484375 56 46.34375 49.84375 
Q 52.203125 43.703125 52.203125 31.203125 
z
" id="DejaVuSans-97"/>
       <path d="M 9.421875 75.984375 
L 18.40625 75.984375 
L 18.40625 0 
L 9.421875 0 
z
" id="DejaVuSans-108"/>
       <path d="M 8.5 21.578125 
L 8.5 54.6875 
L 17.484375 54.6875 
L 17.484375 21.921875 
Q 17.484375 14.15625 20.5 10.265625 
Q 23.53125 6.390625 29.59375 6.390625 
Q 36.859375 6.390625 41.078125 11.03125 
Q 45.3125 15.671875 45.3125 23.6875 
L 45.3125 54.6875 
L 54.296875 54.6875 
L 54.296875 0 
L 45.3125 0 
L 45.3125 8.40625 
Q 42.046875 3.421875 37.71875 1 
Q 33.40625 -1.421875 27.6875 -1.421875 
Q 18.265625 -1.421875 13.375 4.4375 
Q 8.5 10.296875 8.5 21.578125 
z
M 31.109375 56 
z
" id="DejaVuSans-117"/>
      </defs>
      <use xlink:href="#DejaVuSans-118"/>
      <use x="59.179688" xlink:href="#DejaVuSans-97"/>
      <use x="120.458984" xlink:href="#DejaVuSans-108"/>
      <use x="148.242188" xlink:href="#DejaVuSans-117"/>
      <use x="211.621094" xlink:href="#DejaVuSans-101"/>
     </g>
    </g>
   </g>
   <g id="line2d_11">
    <path clip-path="url(#p1d36fa6fb1)" d="M 104.22 200.222279 
L 104.22 52.172003 
" style="fill:none;stroke:#3f3f3f;stroke-linecap:square;stroke-width:1.5;"/>
   </g>
   <g id="line2d_12">
    <path clip-path="url(#p1d36fa6fb1)" d="M 104.22 156.397167 
L 104.22 114.467184 
" style="fill:none;stroke:#3f3f3f;stroke-linecap:square;stroke-width:4.5;"/>
   </g>
   <g id="line2d_13">
    <path clip-path="url(#p1d36fa6fb1)" d="M 338.58 201.669265 
L 338.58 47.732257 
" style="fill:none;stroke:#3f3f3f;stroke-linecap:square;stroke-width:1.5;"/>
   </g>
   <g id="line2d_14">
    <path clip-path="url(#p1d36fa6fb1)" d="M 338.58 155.061548 
L 338.58 112.000141 
" style="fill:none;stroke:#3f3f3f;stroke-linecap:square;stroke-width:4.5;"/>
   </g>
   <g id="patch_5">
    <path d="M 54 252 
L 54 34.56 
" style="fill:none;stroke:#000000;stroke-linecap:square;stroke-linejoin:miter;stroke-width:0.8;"/>
   </g>
   <g id="patch_6">
    <path d="M 388.8 252 
L 388.8 34.56 
" style="fill:none;stroke:#000000;stroke-linecap:square;stroke-linejoin:miter;stroke-width:0.8;"/>
   </g>
   <g id="patch_7">
    <path d="M 54 252 
L 388.8 252 
" style="fill:none;stroke:#000000;stroke-linecap:square;stroke-linejoin:miter;stroke-width:0.8;"/>
   </g>
   <g id="patch_8">
    <path d="M 54 34.56 
L 388.8 34.56 
" style="fill:none;stroke:#000000;stroke-linecap:square;stroke-linejoin:miter;stroke-width:0.8;"/>
   </g>
   <g id="PathCollection_1">
    <defs>
     <path d="M 0 1.5 
C 0.397805 1.5 0.77937 1.341951 1.06066 1.06066 
C 1.341951 0.77937 1.5 0.397805 1.5 0 
C 1.5 -0.397805 1.341951 -0.77937 1.06066 -1.06066 
C 0.77937 -1.341951 0.397805 -1.5 0 -1.5 
C -0.397805 -1.5 -0.77937 -1.341951 -1.06066 -1.06066 
C -1.341951 -0.77937 -1.5 -0.397805 -1.5 0 
C -1.5 0.397805 -1.341951 0.77937 -1.06066 1.06066 
C -0.77937 1.341951 -0.397805 1.5 0 1.5 
z
" id="m91667551b0" style="stroke:#3f3f3f;"/>
    </defs>
    <g clip-path="url(#p1d36fa6fb1)">
     <use style="fill:#ffffff;stroke:#3f3f3f;" x="104.22" xlink:href="#m91667551b0" y="136.201442"/>
    </g>
   </g>
   <g id="PathCollection_2">
    <g clip-path="url(#p1d36fa6fb1)">
     <use style="fill:#ffffff;stroke:#3f3f3f;" x="338.58" xlink:href="#m91667551b0" y="134.123923"/>
    </g>
   </g>
   <g id="legend_1">
    <g id="patch_9">
     <path d="M 183.090625 247 
L 259.709375 247 
Q 261.709375 247 261.709375 245 
L 261.709375 201.409375 
Q 261.709375 199.409375 259.709375 199.409375 
L 183.090625 199.409375 
Q 181.090625 199.409375 181.090625 201.409375 
L 181.090625 245 
Q 181.090625 247 183.090625 247 
z
" style="fill:#ffffff;opacity:0.8;stroke:#cccccc;stroke-linejoin:miter;"/>
    </g>
    <g id="text_13">
     <!-- set -->
     <g transform="translate(213.758594 211.007812)scale(0.1 -0.1)">
      <use xlink:href="#DejaVuSans-115"/>
      <use x="52.099609" xlink:href="#DejaVuSans-101"/>
      <use x="113.623047" xlink:href="#DejaVuSans-116"/>
     </g>
    </g>
    <g id="patch_10">
     <path d="M 185.090625 225.685937 
L 205.090625 225.685937 
L 205.090625 218.685937 
L 185.090625 218.685937 
z
" style="fill:#3274a1;stroke:#3f3f3f;stroke-linejoin:miter;stroke-width:0.75;"/>
    </g>
    <g id="text_14">
     <!-- Z_2_zero -->
     <g transform="translate(213.090625 225.685937)scale(0.1 -0.1)">
      <use xlink:href="#DejaVuSans-90"/>
      <use x="68.505859" xlink:href="#DejaVuSans-95"/>
      <use x="118.505859" xlink:href="#DejaVuSans-50"/>
      <use x="182.128906" xlink:href="#DejaVuSans-95"/>
      <use x="232.128906" xlink:href="#DejaVuSans-122"/>
      <use x="284.619141" xlink:href="#DejaVuSans-101"/>
      <use x="346.142578" xlink:href="#DejaVuSans-114"/>
      <use x="385.005859" xlink:href="#DejaVuSans-111"/>
     </g>
    </g>
    <g id="patch_11">
     <path d="M 185.090625 240.642188 
L 205.090625 240.642188 
L 205.090625 233.642188 
L 185.090625 233.642188 
z
" style="fill:#e1812c;stroke:#3f3f3f;stroke-linejoin:miter;stroke-width:0.75;"/>
    </g>
    <g id="text_15">
     <!-- Z_3_zero -->
     <g transform="translate(213.090625 240.642188)scale(0.1 -0.1)">
      <use xlink:href="#DejaVuSans-90"/>
      <use x="68.505859" xlink:href="#DejaVuSans-95"/>
      <use x="118.505859" xlink:href="#DejaVuSans-51"/>
      <use x="182.128906" xlink:href="#DejaVuSans-95"/>
      <use x="232.128906" xlink:href="#DejaVuSans-122"/>
      <use x="284.619141" xlink:href="#DejaVuSans-101"/>
      <use x="346.142578" xlink:href="#DejaVuSans-114"/>
      <use x="385.005859" xlink:href="#DejaVuSans-111"/>
     </g>
    </g>
   </g>
  </g>
 </g>
 <defs>
  <clipPath id="p1d36fa6fb1">
   <rect height="217.44" width="334.8" x="54" y="34.56"/>
  </clipPath>
 </defs>
</svg>
