<?xml version="1.0" encoding="utf-8" standalone="no"?>
<!DOCTYPE svg PUBLIC "-//W3C//DTD SVG 1.1//EN"
  "http://www.w3.org/Graphics/SVG/1.1/DTD/svg11.dtd">
<!-- Created with matplotlib (https://matplotlib.org/) -->
<svg height="288pt" version="1.1" viewBox="0 0 432 288" width="432pt" xmlns="http://www.w3.org/2000/svg" xmlns:xlink="http://www.w3.org/1999/xlink">
 <metadata>
  <rdf:RDF xmlns:cc="http://creativecommons.org/ns#" xmlns:dc="http://purl.org/dc/elements/1.1/" xmlns:rdf="http://www.w3.org/1999/02/22-rdf-syntax-ns#">
   <cc:Work>
    <dc:type rdf:resource="http://purl.org/dc/dcmitype/StillImage"/>
    <dc:date>2021-07-10T00:14:08.426157</dc:date>
    <dc:format>image/svg+xml</dc:format>
    <dc:creator>
     <cc:Agent>
      <dc:title>Matplotlib v3.3.4, https://matplotlib.org/</dc:title>
     </cc:Agent>
    </dc:creator>
   </cc:Work>
  </rdf:RDF>
 </metadata>
 <defs>
  <style type="text/css">*{stroke-linecap:butt;stroke-linejoin:round;}</style>
 </defs>
 <g id="figure_1">
  <g id="patch_1">
   <path d="M 0 288 
L 432 288 
L 432 0 
L 0 0 
z
" style="fill:#ffffff;"/>
  </g>
  <g id="axes_1">
   <g id="patch_2">
    <path d="M 54 252 
L 388.8 252 
L 388.8 34.56 
L 54 34.56 
z
" style="fill:#ffffff;"/>
   </g>
   <g id="PolyCollection_1">
    <defs>
     <path d="M 122.242909 -45.883636 
L 86.197091 -45.883636 
L 76.613034 -47.880331 
L 71.071867 -49.877025 
L 70.74 -51.873719 
L 73.503976 -53.870413 
L 77.027767 -55.867107 
L 80.396968 -57.863802 
L 83.561181 -59.860496 
L 86.443282 -61.85719 
L 88.875331 -63.853884 
L 90.965025 -65.850579 
L 92.98938 -67.847273 
L 94.941502 -69.843967 
L 96.591376 -71.840661 
L 97.90225 -73.837355 
L 99.030281 -75.83405 
L 100.066548 -77.830744 
L 100.980886 -79.827438 
L 101.710877 -81.824132 
L 102.245511 -83.820826 
L 102.618902 -85.817521 
L 102.833953 -87.814215 
L 102.897753 -89.810909 
L 102.896401 -91.807603 
L 102.937728 -93.804298 
L 103.070462 -95.800992 
L 103.268249 -97.797686 
L 103.459028 -99.79438 
L 103.583742 -101.791074 
L 103.644237 -103.787769 
L 103.69156 -105.784463 
L 103.756242 -107.781157 
L 103.815787 -109.777851 
L 103.852502 -111.774545 
L 103.888656 -113.77124 
L 103.943327 -115.767934 
L 104.004007 -117.764628 
L 104.044592 -119.761322 
L 104.04837 -121.758017 
L 104.025353 -123.754711 
L 104.009957 -125.751405 
L 104.026525 -127.748099 
L 104.068267 -129.744793 
L 104.114907 -131.741488 
L 104.150365 -133.738182 
L 104.164396 -135.734876 
L 104.159909 -137.73157 
L 104.15614 -139.728264 
L 104.164044 -141.724959 
L 104.171818 -143.721653 
L 104.169153 -145.718347 
L 104.161928 -147.715041 
L 104.157632 -149.711736 
L 104.155339 -151.70843 
L 104.149043 -153.705124 
L 104.13628 -155.701818 
L 104.127414 -157.698512 
L 104.135647 -159.695207 
L 104.153424 -161.691901 
L 104.161059 -163.688595 
L 104.158326 -165.685289 
L 104.161164 -167.681983 
L 104.171983 -169.678678 
L 104.180439 -171.675372 
L 104.186221 -173.672066 
L 104.195618 -175.66876 
L 104.204801 -177.665455 
L 104.203189 -179.662149 
L 104.18639 -181.658843 
L 104.16366 -183.655537 
L 104.151982 -185.652231 
L 104.157265 -187.648926 
L 104.172084 -189.64562 
L 104.189636 -191.642314 
L 104.205132 -193.639008 
L 104.213755 -195.635702 
L 104.213582 -197.632397 
L 104.205159 -199.629091 
L 104.192128 -201.625785 
L 104.180505 -203.622479 
L 104.17094 -205.619174 
L 104.161652 -207.615868 
L 104.160428 -209.612562 
L 104.174702 -211.609256 
L 104.196086 -213.60595 
L 104.211459 -215.602645 
L 104.217958 -217.599339 
L 104.219675 -219.596033 
L 104.219966 -221.592727 
L 104.219998 -223.589421 
L 104.22 -225.586116 
L 104.22 -227.58281 
L 104.219999 -229.579504 
L 104.219987 -231.576198 
L 104.219862 -233.572893 
L 104.219052 -235.569587 
L 104.21575 -237.566281 
L 104.207591 -239.562975 
L 104.196398 -241.559669 
L 104.190757 -243.556364 
L 104.249243 -243.556364 
L 104.249243 -243.556364 
L 104.243602 -241.559669 
L 104.232409 -239.562975 
L 104.22425 -237.566281 
L 104.220948 -235.569587 
L 104.220138 -233.572893 
L 104.220013 -231.576198 
L 104.220001 -229.579504 
L 104.22 -227.58281 
L 104.22 -225.586116 
L 104.220002 -223.589421 
L 104.220034 -221.592727 
L 104.220325 -219.596033 
L 104.222042 -217.599339 
L 104.228541 -215.602645 
L 104.243914 -213.60595 
L 104.265298 -211.609256 
L 104.279572 -209.612562 
L 104.278348 -207.615868 
L 104.26906 -205.619174 
L 104.259495 -203.622479 
L 104.247872 -201.625785 
L 104.234841 -199.629091 
L 104.226418 -197.632397 
L 104.226245 -195.635702 
L 104.234868 -193.639008 
L 104.250364 -191.642314 
L 104.267916 -189.64562 
L 104.282735 -187.648926 
L 104.288018 -185.652231 
L 104.27634 -183.655537 
L 104.25361 -181.658843 
L 104.236811 -179.662149 
L 104.235199 -177.665455 
L 104.244382 -175.66876 
L 104.253779 -173.672066 
L 104.259561 -171.675372 
L 104.268017 -169.678678 
L 104.278836 -167.681983 
L 104.281674 -165.685289 
L 104.278941 -163.688595 
L 104.286576 -161.691901 
L 104.304353 -159.695207 
L 104.312586 -157.698512 
L 104.30372 -155.701818 
L 104.290957 -153.705124 
L 104.284661 -151.70843 
L 104.282368 -149.711736 
L 104.278072 -147.715041 
L 104.270847 -145.718347 
L 104.268182 -143.721653 
L 104.275956 -141.724959 
L 104.28386 -139.728264 
L 104.280091 -137.73157 
L 104.275604 -135.734876 
L 104.289635 -133.738182 
L 104.325093 -131.741488 
L 104.371733 -129.744793 
L 104.413475 -127.748099 
L 104.430043 -125.751405 
L 104.414647 -123.754711 
L 104.39163 -121.758017 
L 104.395408 -119.761322 
L 104.435993 -117.764628 
L 104.496673 -115.767934 
L 104.551344 -113.77124 
L 104.587498 -111.774545 
L 104.624213 -109.777851 
L 104.683758 -107.781157 
L 104.74844 -105.784463 
L 104.795763 -103.787769 
L 104.856258 -101.791074 
L 104.980972 -99.79438 
L 105.171751 -97.797686 
L 105.369538 -95.800992 
L 105.502272 -93.804298 
L 105.543599 -91.807603 
L 105.542247 -89.810909 
L 105.606047 -87.814215 
L 105.821098 -85.817521 
L 106.194489 -83.820826 
L 106.729123 -81.824132 
L 107.459114 -79.827438 
L 108.373452 -77.830744 
L 109.409719 -75.83405 
L 110.53775 -73.837355 
L 111.848624 -71.840661 
L 113.498498 -69.843967 
L 115.45062 -67.847273 
L 117.474975 -65.850579 
L 119.564669 -63.853884 
L 121.996718 -61.85719 
L 124.878819 -59.860496 
L 128.043032 -57.863802 
L 131.412233 -55.867107 
L 134.936024 -53.870413 
L 137.7 -51.873719 
L 137.368133 -49.877025 
L 131.826966 -47.880331 
L 122.242909 -45.883636 
z
" id="mbd955688a2" style="stroke:#3f3f3f;stroke-width:1.5;"/>
    </defs>
    <g clip-path="url(#p32a702a808)">
     <use style="fill:#3274a1;stroke:#3f3f3f;stroke-width:1.5;" x="0" xlink:href="#mbd955688a2" y="288"/>
    </g>
   </g>
   <g id="PolyCollection_2">
    <defs>
     <path d="M 344.555044 -47.374643 
L 332.604956 -47.374643 
L 329.920104 -48.121361 
L 326.932417 -48.868078 
L 323.893658 -49.614796 
L 321.00937 -50.361513 
L 318.372744 -51.108231 
L 315.967291 -51.854948 
L 313.728763 -52.601666 
L 311.618932 -53.348384 
L 309.665484 -54.095101 
L 307.953716 -54.841819 
L 306.586918 -55.588536 
L 305.643828 -56.335254 
L 305.154444 -57.081972 
L 305.1 -57.828689 
L 305.429032 -58.575407 
L 306.075855 -59.322124 
L 306.972336 -60.068842 
L 308.052989 -60.815559 
L 309.258733 -61.562277 
L 310.542503 -62.308995 
L 311.874237 -63.055712 
L 313.240148 -63.80243 
L 314.634311 -64.549147 
L 316.046611 -65.295865 
L 317.454761 -66.042582 
L 318.826171 -66.7893 
L 320.129332 -67.536018 
L 321.348274 -68.282735 
L 322.491293 -69.029453 
L 323.587491 -69.77617 
L 324.670864 -70.522888 
L 325.759312 -71.269606 
L 326.840739 -72.016323 
L 327.8758 -72.763041 
L 328.816608 -73.509758 
L 329.629522 -74.256476 
L 330.307379 -75.003193 
L 330.865187 -75.749911 
L 331.326303 -76.496629 
L 331.712033 -77.243346 
L 332.041613 -77.990064 
L 332.338187 -78.736781 
L 332.630501 -79.483499 
L 332.94498 -80.230217 
L 333.293159 -80.976934 
L 333.665452 -81.723652 
L 334.038165 -82.470369 
L 334.390059 -83.217087 
L 334.716578 -83.963804 
L 335.031176 -84.710522 
L 335.353011 -85.45724 
L 335.690511 -86.203957 
L 336.032593 -86.950675 
L 336.352679 -87.697392 
L 336.62137 -88.44411 
L 336.81908 -89.190827 
L 336.942189 -89.937545 
L 337.001877 -90.684263 
L 337.018869 -91.43098 
L 337.017742 -92.177698 
L 337.022282 -92.924415 
L 337.051488 -93.671133 
L 337.115889 -94.417851 
L 337.215367 -95.164568 
L 337.340282 -95.911286 
L 337.476106 -96.658003 
L 337.609211 -97.404721 
L 337.730589 -98.151438 
L 337.836126 -98.898156 
L 337.924693 -99.644874 
L 337.996366 -100.391591 
L 338.051915 -101.138309 
L 338.092997 -101.885026 
L 338.122052 -102.631744 
L 338.141783 -103.378462 
L 338.15493 -104.125179 
L 338.164602 -104.871897 
L 338.174498 -105.618614 
L 338.188231 -106.365332 
L 338.207936 -107.112049 
L 338.233181 -107.858767 
L 338.261062 -108.605485 
L 338.287689 -109.352202 
L 338.310432 -110.09892 
L 338.329708 -110.845637 
L 338.349013 -111.592355 
L 338.372846 -112.339072 
L 338.403698 -113.08579 
L 338.440132 -113.832508 
L 338.477169 -114.579225 
L 338.50847 -115.325943 
L 338.528717 -116.07266 
L 338.535025 -116.819378 
L 338.527393 -117.566096 
L 338.508835 -118.312813 
L 338.485267 -119.059531 
L 338.464517 -119.806248 
L 338.453969 -120.552966 
L 338.457646 -121.299683 
L 338.702354 -121.299683 
L 338.702354 -121.299683 
L 338.706031 -120.552966 
L 338.695483 -119.806248 
L 338.674733 -119.059531 
L 338.651165 -118.312813 
L 338.632607 -117.566096 
L 338.624975 -116.819378 
L 338.631283 -116.07266 
L 338.65153 -115.325943 
L 338.682831 -114.579225 
L 338.719868 -113.832508 
L 338.756302 -113.08579 
L 338.787154 -112.339072 
L 338.810987 -111.592355 
L 338.830292 -110.845637 
L 338.849568 -110.09892 
L 338.872311 -109.352202 
L 338.898938 -108.605485 
L 338.926819 -107.858767 
L 338.952064 -107.112049 
L 338.971769 -106.365332 
L 338.985502 -105.618614 
L 338.995398 -104.871897 
L 339.00507 -104.125179 
L 339.018217 -103.378462 
L 339.037948 -102.631744 
L 339.067003 -101.885026 
L 339.108085 -101.138309 
L 339.163634 -100.391591 
L 339.235307 -99.644874 
L 339.323874 -98.898156 
L 339.429411 -98.151438 
L 339.550789 -97.404721 
L 339.683894 -96.658003 
L 339.819718 -95.911286 
L 339.944633 -95.164568 
L 340.044111 -94.417851 
L 340.108512 -93.671133 
L 340.137718 -92.924415 
L 340.142258 -92.177698 
L 340.141131 -91.43098 
L 340.158123 -90.684263 
L 340.217811 -89.937545 
L 340.34092 -89.190827 
L 340.53863 -88.44411 
L 340.807321 -87.697392 
L 341.127407 -86.950675 
L 341.469489 -86.203957 
L 341.806989 -85.45724 
L 342.128824 -84.710522 
L 342.443422 -83.963804 
L 342.769941 -83.217087 
L 343.121835 -82.470369 
L 343.494548 -81.723652 
L 343.866841 -80.976934 
L 344.21502 -80.230217 
L 344.529499 -79.483499 
L 344.821813 -78.736781 
L 345.118387 -77.990064 
L 345.447967 -77.243346 
L 345.833697 -76.496629 
L 346.294813 -75.749911 
L 346.852621 -75.003193 
L 347.530478 -74.256476 
L 348.343392 -73.509758 
L 349.2842 -72.763041 
L 350.319261 -72.016323 
L 351.400688 -71.269606 
L 352.489136 -70.522888 
L 353.572509 -69.77617 
L 354.668707 -69.029453 
L 355.811726 -68.282735 
L 357.030668 -67.536018 
L 358.333829 -66.7893 
L 359.705239 -66.042582 
L 361.113389 -65.295865 
L 362.525689 -64.549147 
L 363.919852 -63.80243 
L 365.285763 -63.055712 
L 366.617497 -62.308995 
L 367.901267 -61.562277 
L 369.107011 -60.815559 
L 370.187664 -60.068842 
L 371.084145 -59.322124 
L 371.730968 -58.575407 
L 372.06 -57.828689 
L 372.005556 -57.081972 
L 371.516172 -56.335254 
L 370.573082 -55.588536 
L 369.206284 -54.841819 
L 367.494516 -54.095101 
L 365.541068 -53.348384 
L 363.431237 -52.601666 
L 361.192709 -51.854948 
L 358.787256 -51.108231 
L 356.15063 -50.361513 
L 353.266342 -49.614796 
L 350.227583 -48.868078 
L 347.239896 -48.121361 
L 344.555044 -47.374643 
z
" id="m076d6c38e5" style="stroke:#3f3f3f;stroke-width:1.5;"/>
    </defs>
    <g clip-path="url(#p32a702a808)">
     <use style="fill:#e1812c;stroke:#3f3f3f;stroke-width:1.5;" x="0" xlink:href="#m076d6c38e5" y="288"/>
    </g>
   </g>
   <g id="patch_3">
    <path clip-path="url(#p32a702a808)" d="M 137.7 242.043544 
L 137.7 242.043544 
L 137.7 242.043544 
L 137.7 242.043544 
z
" style="fill:#3274a1;stroke:#3f3f3f;stroke-linejoin:miter;stroke-width:0.75;"/>
   </g>
   <g id="patch_4">
    <path clip-path="url(#p32a702a808)" d="M 137.7 242.043544 
L 137.7 242.043544 
L 137.7 242.043544 
L 137.7 242.043544 
z
" style="fill:#e1812c;stroke:#3f3f3f;stroke-linejoin:miter;stroke-width:0.75;"/>
   </g>
   <g id="matplotlib.axis_1">
    <g id="xtick_1">
     <g id="line2d_1">
      <defs>
       <path d="M 0 0 
L 0 3.5 
" id="m562936e1fa" style="stroke:#000000;stroke-width:0.8;"/>
      </defs>
      <g>
       <use style="stroke:#000000;stroke-width:0.8;" x="137.7" xlink:href="#m562936e1fa" y="252"/>
      </g>
     </g>
     <g id="text_1">
      <!-- Z_2_ns -->
      <g transform="translate(120.320312 266.421875)scale(0.1 -0.1)">
       <defs>
        <path d="M 5.609375 72.90625 
L 62.890625 72.90625 
L 62.890625 65.375 
L 16.796875 8.296875 
L 64.015625 8.296875 
L 64.015625 0 
L 4.5 0 
L 4.5 7.515625 
L 50.59375 64.59375 
L 5.609375 64.59375 
z
" id="DejaVuSans-90"/>
        <path d="M 50.984375 -16.609375 
L 50.984375 -23.578125 
L -0.984375 -23.578125 
L -0.984375 -16.609375 
z
" id="DejaVuSans-95"/>
        <path d="M 19.1875 8.296875 
L 53.609375 8.296875 
L 53.609375 0 
L 7.328125 0 
L 7.328125 8.296875 
Q 12.9375 14.109375 22.625 23.890625 
Q 32.328125 33.6875 34.8125 36.53125 
Q 39.546875 41.84375 41.421875 45.53125 
Q 43.3125 49.21875 43.3125 52.78125 
Q 43.3125 58.59375 39.234375 62.25 
Q 35.15625 65.921875 28.609375 65.921875 
Q 23.96875 65.921875 18.8125 64.3125 
Q 13.671875 62.703125 7.8125 59.421875 
L 7.8125 69.390625 
Q 13.765625 71.78125 18.9375 73 
Q 24.125 74.21875 28.421875 74.21875 
Q 39.75 74.21875 46.484375 68.546875 
Q 53.21875 62.890625 53.21875 53.421875 
Q 53.21875 48.921875 51.53125 44.890625 
Q 49.859375 40.875 45.40625 35.40625 
Q 44.1875 33.984375 37.640625 27.21875 
Q 31.109375 20.453125 19.1875 8.296875 
z
" id="DejaVuSans-50"/>
        <path d="M 54.890625 33.015625 
L 54.890625 0 
L 45.90625 0 
L 45.90625 32.71875 
Q 45.90625 40.484375 42.875 44.328125 
Q 39.84375 48.1875 33.796875 48.1875 
Q 26.515625 48.1875 22.3125 43.546875 
Q 18.109375 38.921875 18.109375 30.90625 
L 18.109375 0 
L 9.078125 0 
L 9.078125 54.6875 
L 18.109375 54.6875 
L 18.109375 46.1875 
Q 21.34375 51.125 25.703125 53.5625 
Q 30.078125 56 35.796875 56 
Q 45.21875 56 50.046875 50.171875 
Q 54.890625 44.34375 54.890625 33.015625 
z
" id="DejaVuSans-110"/>
        <path d="M 44.28125 53.078125 
L 44.28125 44.578125 
Q 40.484375 46.53125 36.375 47.5 
Q 32.28125 48.484375 27.875 48.484375 
Q 21.1875 48.484375 17.84375 46.4375 
Q 14.5 44.390625 14.5 40.28125 
Q 14.5 37.15625 16.890625 35.375 
Q 19.28125 33.59375 26.515625 31.984375 
L 29.59375 31.296875 
Q 39.15625 29.25 43.1875 25.515625 
Q 47.21875 21.78125 47.21875 15.09375 
Q 47.21875 7.46875 41.1875 3.015625 
Q 35.15625 -1.421875 24.609375 -1.421875 
Q 20.21875 -1.421875 15.453125 -0.5625 
Q 10.6875 0.296875 5.421875 2 
L 5.421875 11.28125 
Q 10.40625 8.6875 15.234375 7.390625 
Q 20.0625 6.109375 24.8125 6.109375 
Q 31.15625 6.109375 34.5625 8.28125 
Q 37.984375 10.453125 37.984375 14.40625 
Q 37.984375 18.0625 35.515625 20.015625 
Q 33.0625 21.96875 24.703125 23.78125 
L 21.578125 24.515625 
Q 13.234375 26.265625 9.515625 29.90625 
Q 5.8125 33.546875 5.8125 39.890625 
Q 5.8125 47.609375 11.28125 51.796875 
Q 16.75 56 26.8125 56 
Q 31.78125 56 36.171875 55.265625 
Q 40.578125 54.546875 44.28125 53.078125 
z
" id="DejaVuSans-115"/>
       </defs>
       <use xlink:href="#DejaVuSans-90"/>
       <use x="68.505859" xlink:href="#DejaVuSans-95"/>
       <use x="118.505859" xlink:href="#DejaVuSans-50"/>
       <use x="182.128906" xlink:href="#DejaVuSans-95"/>
       <use x="232.128906" xlink:href="#DejaVuSans-110"/>
       <use x="295.507812" xlink:href="#DejaVuSans-115"/>
      </g>
     </g>
    </g>
    <g id="xtick_2">
     <g id="line2d_2">
      <g>
       <use style="stroke:#000000;stroke-width:0.8;" x="305.1" xlink:href="#m562936e1fa" y="252"/>
      </g>
     </g>
     <g id="text_2">
      <!-- Z_3_ns -->
      <g transform="translate(287.720313 266.421875)scale(0.1 -0.1)">
       <defs>
        <path d="M 40.578125 39.3125 
Q 47.65625 37.796875 51.625 33 
Q 55.609375 28.21875 55.609375 21.1875 
Q 55.609375 10.40625 48.1875 4.484375 
Q 40.765625 -1.421875 27.09375 -1.421875 
Q 22.515625 -1.421875 17.65625 -0.515625 
Q 12.796875 0.390625 7.625 2.203125 
L 7.625 11.71875 
Q 11.71875 9.328125 16.59375 8.109375 
Q 21.484375 6.890625 26.8125 6.890625 
Q 36.078125 6.890625 40.9375 10.546875 
Q 45.796875 14.203125 45.796875 21.1875 
Q 45.796875 27.640625 41.28125 31.265625 
Q 36.765625 34.90625 28.71875 34.90625 
L 20.21875 34.90625 
L 20.21875 43.015625 
L 29.109375 43.015625 
Q 36.375 43.015625 40.234375 45.921875 
Q 44.09375 48.828125 44.09375 54.296875 
Q 44.09375 59.90625 40.109375 62.90625 
Q 36.140625 65.921875 28.71875 65.921875 
Q 24.65625 65.921875 20.015625 65.03125 
Q 15.375 64.15625 9.8125 62.3125 
L 9.8125 71.09375 
Q 15.4375 72.65625 20.34375 73.4375 
Q 25.25 74.21875 29.59375 74.21875 
Q 40.828125 74.21875 47.359375 69.109375 
Q 53.90625 64.015625 53.90625 55.328125 
Q 53.90625 49.265625 50.4375 45.09375 
Q 46.96875 40.921875 40.578125 39.3125 
z
" id="DejaVuSans-51"/>
       </defs>
       <use xlink:href="#DejaVuSans-90"/>
       <use x="68.505859" xlink:href="#DejaVuSans-95"/>
       <use x="118.505859" xlink:href="#DejaVuSans-51"/>
       <use x="182.128906" xlink:href="#DejaVuSans-95"/>
       <use x="232.128906" xlink:href="#DejaVuSans-110"/>
       <use x="295.507812" xlink:href="#DejaVuSans-115"/>
      </g>
     </g>
    </g>
    <g id="text_3">
     <!-- set -->
     <g transform="translate(213.758594 280.378125)scale(0.1 -0.1)">
      <defs>
       <path d="M 56.203125 29.59375 
L 56.203125 25.203125 
L 14.890625 25.203125 
Q 15.484375 15.921875 20.484375 11.0625 
Q 25.484375 6.203125 34.421875 6.203125 
Q 39.59375 6.203125 44.453125 7.46875 
Q 49.3125 8.734375 54.109375 11.28125 
L 54.109375 2.78125 
Q 49.265625 0.734375 44.1875 -0.34375 
Q 39.109375 -1.421875 33.890625 -1.421875 
Q 20.796875 -1.421875 13.15625 6.1875 
Q 5.515625 13.8125 5.515625 26.8125 
Q 5.515625 40.234375 12.765625 48.109375 
Q 20.015625 56 32.328125 56 
Q 43.359375 56 49.78125 48.890625 
Q 56.203125 41.796875 56.203125 29.59375 
z
M 47.21875 32.234375 
Q 47.125 39.59375 43.09375 43.984375 
Q 39.0625 48.390625 32.421875 48.390625 
Q 24.90625 48.390625 20.390625 44.140625 
Q 15.875 39.890625 15.1875 32.171875 
z
" id="DejaVuSans-101"/>
       <path d="M 18.3125 70.21875 
L 18.3125 54.6875 
L 36.8125 54.6875 
L 36.8125 47.703125 
L 18.3125 47.703125 
L 18.3125 18.015625 
Q 18.3125 11.328125 20.140625 9.421875 
Q 21.96875 7.515625 27.59375 7.515625 
L 36.8125 7.515625 
L 36.8125 0 
L 27.59375 0 
Q 17.1875 0 13.234375 3.875 
Q 9.28125 7.765625 9.28125 18.015625 
L 9.28125 47.703125 
L 2.6875 47.703125 
L 2.6875 54.6875 
L 9.28125 54.6875 
L 9.28125 70.21875 
z
" id="DejaVuSans-116"/>
      </defs>
      <use xlink:href="#DejaVuSans-115"/>
      <use x="52.099609" xlink:href="#DejaVuSans-101"/>
      <use x="113.623047" xlink:href="#DejaVuSans-116"/>
     </g>
    </g>
   </g>
   <g id="matplotlib.axis_2">
    <g id="ytick_1">
     <g id="line2d_3">
      <defs>
       <path d="M 0 0 
L -3.5 0 
" id="m569a30ada4" style="stroke:#000000;stroke-width:0.8;"/>
      </defs>
      <g>
       <use style="stroke:#000000;stroke-width:0.8;" x="54" xlink:href="#m569a30ada4" y="242.043544"/>
      </g>
     </g>
     <g id="text_4">
      <!-- 0.0 -->
      <g transform="translate(31.096875 245.842763)scale(0.1 -0.1)">
       <defs>
        <path d="M 31.78125 66.40625 
Q 24.171875 66.40625 20.328125 58.90625 
Q 16.5 51.421875 16.5 36.375 
Q 16.5 21.390625 20.328125 13.890625 
Q 24.171875 6.390625 31.78125 6.390625 
Q 39.453125 6.390625 43.28125 13.890625 
Q 47.125 21.390625 47.125 36.375 
Q 47.125 51.421875 43.28125 58.90625 
Q 39.453125 66.40625 31.78125 66.40625 
z
M 31.78125 74.21875 
Q 44.046875 74.21875 50.515625 64.515625 
Q 56.984375 54.828125 56.984375 36.375 
Q 56.984375 17.96875 50.515625 8.265625 
Q 44.046875 -1.421875 31.78125 -1.421875 
Q 19.53125 -1.421875 13.0625 8.265625 
Q 6.59375 17.96875 6.59375 36.375 
Q 6.59375 54.828125 13.0625 64.515625 
Q 19.53125 74.21875 31.78125 74.21875 
z
" id="DejaVuSans-48"/>
        <path d="M 10.6875 12.40625 
L 21 12.40625 
L 21 0 
L 10.6875 0 
z
" id="DejaVuSans-46"/>
       </defs>
       <use xlink:href="#DejaVuSans-48"/>
       <use x="63.623047" xlink:href="#DejaVuSans-46"/>
       <use x="95.410156" xlink:href="#DejaVuSans-48"/>
      </g>
     </g>
    </g>
    <g id="ytick_2">
     <g id="line2d_4">
      <g>
       <use style="stroke:#000000;stroke-width:0.8;" x="54" xlink:href="#m569a30ada4" y="216.137022"/>
      </g>
     </g>
     <g id="text_5">
      <!-- 2.5 -->
      <g transform="translate(31.096875 219.936241)scale(0.1 -0.1)">
       <defs>
        <path d="M 10.796875 72.90625 
L 49.515625 72.90625 
L 49.515625 64.59375 
L 19.828125 64.59375 
L 19.828125 46.734375 
Q 21.96875 47.46875 24.109375 47.828125 
Q 26.265625 48.1875 28.421875 48.1875 
Q 40.625 48.1875 47.75 41.5 
Q 54.890625 34.8125 54.890625 23.390625 
Q 54.890625 11.625 47.5625 5.09375 
Q 40.234375 -1.421875 26.90625 -1.421875 
Q 22.3125 -1.421875 17.546875 -0.640625 
Q 12.796875 0.140625 7.71875 1.703125 
L 7.71875 11.625 
Q 12.109375 9.234375 16.796875 8.0625 
Q 21.484375 6.890625 26.703125 6.890625 
Q 35.15625 6.890625 40.078125 11.328125 
Q 45.015625 15.765625 45.015625 23.390625 
Q 45.015625 31 40.078125 35.4375 
Q 35.15625 39.890625 26.703125 39.890625 
Q 22.75 39.890625 18.8125 39.015625 
Q 14.890625 38.140625 10.796875 36.28125 
z
" id="DejaVuSans-53"/>
       </defs>
       <use xlink:href="#DejaVuSans-50"/>
       <use x="63.623047" xlink:href="#DejaVuSans-46"/>
       <use x="95.410156" xlink:href="#DejaVuSans-53"/>
      </g>
     </g>
    </g>
    <g id="ytick_3">
     <g id="line2d_5">
      <g>
       <use style="stroke:#000000;stroke-width:0.8;" x="54" xlink:href="#m569a30ada4" y="190.2305"/>
      </g>
     </g>
     <g id="text_6">
      <!-- 5.0 -->
      <g transform="translate(31.096875 194.029718)scale(0.1 -0.1)">
       <use xlink:href="#DejaVuSans-53"/>
       <use x="63.623047" xlink:href="#DejaVuSans-46"/>
       <use x="95.410156" xlink:href="#DejaVuSans-48"/>
      </g>
     </g>
    </g>
    <g id="ytick_4">
     <g id="line2d_6">
      <g>
       <use style="stroke:#000000;stroke-width:0.8;" x="54" xlink:href="#m569a30ada4" y="164.323977"/>
      </g>
     </g>
     <g id="text_7">
      <!-- 7.5 -->
      <g transform="translate(31.096875 168.123196)scale(0.1 -0.1)">
       <defs>
        <path d="M 8.203125 72.90625 
L 55.078125 72.90625 
L 55.078125 68.703125 
L 28.609375 0 
L 18.3125 0 
L 43.21875 64.59375 
L 8.203125 64.59375 
z
" id="DejaVuSans-55"/>
       </defs>
       <use xlink:href="#DejaVuSans-55"/>
       <use x="63.623047" xlink:href="#DejaVuSans-46"/>
       <use x="95.410156" xlink:href="#DejaVuSans-53"/>
      </g>
     </g>
    </g>
    <g id="ytick_5">
     <g id="line2d_7">
      <g>
       <use style="stroke:#000000;stroke-width:0.8;" x="54" xlink:href="#m569a30ada4" y="138.417455"/>
      </g>
     </g>
     <g id="text_8">
      <!-- 10.0 -->
      <g transform="translate(24.734375 142.216674)scale(0.1 -0.1)">
       <defs>
        <path d="M 12.40625 8.296875 
L 28.515625 8.296875 
L 28.515625 63.921875 
L 10.984375 60.40625 
L 10.984375 69.390625 
L 28.421875 72.90625 
L 38.28125 72.90625 
L 38.28125 8.296875 
L 54.390625 8.296875 
L 54.390625 0 
L 12.40625 0 
z
" id="DejaVuSans-49"/>
       </defs>
       <use xlink:href="#DejaVuSans-49"/>
       <use x="63.623047" xlink:href="#DejaVuSans-48"/>
       <use x="127.246094" xlink:href="#DejaVuSans-46"/>
       <use x="159.033203" xlink:href="#DejaVuSans-48"/>
      </g>
     </g>
    </g>
    <g id="ytick_6">
     <g id="line2d_8">
      <g>
       <use style="stroke:#000000;stroke-width:0.8;" x="54" xlink:href="#m569a30ada4" y="112.510933"/>
      </g>
     </g>
     <g id="text_9">
      <!-- 12.5 -->
      <g transform="translate(24.734375 116.310151)scale(0.1 -0.1)">
       <use xlink:href="#DejaVuSans-49"/>
       <use x="63.623047" xlink:href="#DejaVuSans-50"/>
       <use x="127.246094" xlink:href="#DejaVuSans-46"/>
       <use x="159.033203" xlink:href="#DejaVuSans-53"/>
      </g>
     </g>
    </g>
    <g id="ytick_7">
     <g id="line2d_9">
      <g>
       <use style="stroke:#000000;stroke-width:0.8;" x="54" xlink:href="#m569a30ada4" y="86.60441"/>
      </g>
     </g>
     <g id="text_10">
      <!-- 15.0 -->
      <g transform="translate(24.734375 90.403629)scale(0.1 -0.1)">
       <use xlink:href="#DejaVuSans-49"/>
       <use x="63.623047" xlink:href="#DejaVuSans-53"/>
       <use x="127.246094" xlink:href="#DejaVuSans-46"/>
       <use x="159.033203" xlink:href="#DejaVuSans-48"/>
      </g>
     </g>
    </g>
    <g id="ytick_8">
     <g id="line2d_10">
      <g>
       <use style="stroke:#000000;stroke-width:0.8;" x="54" xlink:href="#m569a30ada4" y="60.697888"/>
      </g>
     </g>
     <g id="text_11">
      <!-- 17.5 -->
      <g transform="translate(24.734375 64.497107)scale(0.1 -0.1)">
       <use xlink:href="#DejaVuSans-49"/>
       <use x="63.623047" xlink:href="#DejaVuSans-55"/>
       <use x="127.246094" xlink:href="#DejaVuSans-46"/>
       <use x="159.033203" xlink:href="#DejaVuSans-53"/>
      </g>
     </g>
    </g>
    <g id="ytick_9">
     <g id="line2d_11">
      <g>
       <use style="stroke:#000000;stroke-width:0.8;" x="54" xlink:href="#m569a30ada4" y="34.791366"/>
      </g>
     </g>
     <g id="text_12">
      <!-- 20.0 -->
      <g transform="translate(24.734375 38.590584)scale(0.1 -0.1)">
       <use xlink:href="#DejaVuSans-50"/>
       <use x="63.623047" xlink:href="#DejaVuSans-48"/>
       <use x="127.246094" xlink:href="#DejaVuSans-46"/>
       <use x="159.033203" xlink:href="#DejaVuSans-48"/>
      </g>
     </g>
    </g>
    <g id="text_13">
     <!-- value -->
     <g transform="translate(18.654688 156.937813)rotate(-90)scale(0.1 -0.1)">
      <defs>
       <path d="M 2.984375 54.6875 
L 12.5 54.6875 
L 29.59375 8.796875 
L 46.6875 54.6875 
L 56.203125 54.6875 
L 35.6875 0 
L 23.484375 0 
z
" id="DejaVuSans-118"/>
       <path d="M 34.28125 27.484375 
Q 23.390625 27.484375 19.1875 25 
Q 14.984375 22.515625 14.984375 16.5 
Q 14.984375 11.71875 18.140625 8.90625 
Q 21.296875 6.109375 26.703125 6.109375 
Q 34.1875 6.109375 38.703125 11.40625 
Q 43.21875 16.703125 43.21875 25.484375 
L 43.21875 27.484375 
z
M 52.203125 31.203125 
L 52.203125 0 
L 43.21875 0 
L 43.21875 8.296875 
Q 40.140625 3.328125 35.546875 0.953125 
Q 30.953125 -1.421875 24.3125 -1.421875 
Q 15.921875 -1.421875 10.953125 3.296875 
Q 6 8.015625 6 15.921875 
Q 6 25.140625 12.171875 29.828125 
Q 18.359375 34.515625 30.609375 34.515625 
L 43.21875 34.515625 
L 43.21875 35.40625 
Q 43.21875 41.609375 39.140625 45 
Q 35.0625 48.390625 27.6875 48.390625 
Q 23 48.390625 18.546875 47.265625 
Q 14.109375 46.140625 10.015625 43.890625 
L 10.015625 52.203125 
Q 14.9375 54.109375 19.578125 55.046875 
Q 24.21875 56 28.609375 56 
Q 40.484375 56 46.34375 49.84375 
Q 52.203125 43.703125 52.203125 31.203125 
z
" id="DejaVuSans-97"/>
       <path d="M 9.421875 75.984375 
L 18.40625 75.984375 
L 18.40625 0 
L 9.421875 0 
z
" id="DejaVuSans-108"/>
       <path d="M 8.5 21.578125 
L 8.5 54.6875 
L 17.484375 54.6875 
L 17.484375 21.921875 
Q 17.484375 14.15625 20.5 10.265625 
Q 23.53125 6.390625 29.59375 6.390625 
Q 36.859375 6.390625 41.078125 11.03125 
Q 45.3125 15.671875 45.3125 23.6875 
L 45.3125 54.6875 
L 54.296875 54.6875 
L 54.296875 0 
L 45.3125 0 
L 45.3125 8.40625 
Q 42.046875 3.421875 37.71875 1 
Q 33.40625 -1.421875 27.6875 -1.421875 
Q 18.265625 -1.421875 13.375 4.4375 
Q 8.5 10.296875 8.5 21.578125 
z
M 31.109375 56 
z
" id="DejaVuSans-117"/>
      </defs>
      <use xlink:href="#DejaVuSans-118"/>
      <use x="59.179688" xlink:href="#DejaVuSans-97"/>
      <use x="120.458984" xlink:href="#DejaVuSans-108"/>
      <use x="148.242188" xlink:href="#DejaVuSans-117"/>
      <use x="211.621094" xlink:href="#DejaVuSans-101"/>
     </g>
    </g>
   </g>
   <g id="line2d_12">
    <path clip-path="url(#p32a702a808)" d="M 104.22 242.116364 
L 104.22 203.355964 
" style="fill:none;stroke:#3f3f3f;stroke-linecap:square;stroke-width:1.5;"/>
   </g>
   <g id="line2d_13">
    <path clip-path="url(#p32a702a808)" d="M 104.22 237.523323 
L 104.22 223.84621 
" style="fill:none;stroke:#3f3f3f;stroke-linecap:square;stroke-width:4.5;"/>
   </g>
   <g id="line2d_14">
    <path clip-path="url(#p32a702a808)" d="M 338.58 240.625357 
L 338.58 201.766015 
" style="fill:none;stroke:#3f3f3f;stroke-linecap:square;stroke-width:1.5;"/>
   </g>
   <g id="line2d_15">
    <path clip-path="url(#p32a702a808)" d="M 338.58 232.367873 
L 338.58 220.118876 
" style="fill:none;stroke:#3f3f3f;stroke-linecap:square;stroke-width:4.5;"/>
   </g>
   <g id="patch_5">
    <path d="M 54 252 
L 54 34.56 
" style="fill:none;stroke:#000000;stroke-linecap:square;stroke-linejoin:miter;stroke-width:0.8;"/>
   </g>
   <g id="patch_6">
    <path d="M 388.8 252 
L 388.8 34.56 
" style="fill:none;stroke:#000000;stroke-linecap:square;stroke-linejoin:miter;stroke-width:0.8;"/>
   </g>
   <g id="patch_7">
    <path d="M 54 252 
L 388.8 252 
" style="fill:none;stroke:#000000;stroke-linecap:square;stroke-linejoin:miter;stroke-width:0.8;"/>
   </g>
   <g id="patch_8">
    <path d="M 54 34.56 
L 388.8 34.56 
" style="fill:none;stroke:#000000;stroke-linecap:square;stroke-linejoin:miter;stroke-width:0.8;"/>
   </g>
   <g id="PathCollection_1">
    <defs>
     <path d="M 0 1.5 
C 0.397805 1.5 0.77937 1.341951 1.06066 1.06066 
C 1.341951 0.77937 1.5 0.397805 1.5 0 
C 1.5 -0.397805 1.341951 -0.77937 1.06066 -1.06066 
C 0.77937 -1.341951 0.397805 -1.5 0 -1.5 
C -0.397805 -1.5 -0.77937 -1.341951 -1.06066 -1.06066 
C -1.341951 -0.77937 -1.5 -0.397805 -1.5 0 
C -1.5 0.397805 -1.341951 0.77937 -1.06066 1.06066 
C -0.77937 1.341951 -0.397805 1.5 0 1.5 
z
" id="ma34b2a59a3" style="stroke:#3f3f3f;"/>
    </defs>
    <g clip-path="url(#p32a702a808)">
     <use style="fill:#ffffff;stroke:#3f3f3f;" x="104.22" xlink:href="#ma34b2a59a3" y="232.319142"/>
    </g>
   </g>
   <g id="PathCollection_2">
    <g clip-path="url(#p32a702a808)">
     <use style="fill:#ffffff;stroke:#3f3f3f;" x="338.58" xlink:href="#ma34b2a59a3" y="227.276568"/>
    </g>
   </g>
   <g id="legend_1">
    <g id="patch_9">
     <path d="M 315.040625 87.150625 
L 381.8 87.150625 
Q 383.8 87.150625 383.8 85.150625 
L 383.8 41.56 
Q 383.8 39.56 381.8 39.56 
L 315.040625 39.56 
Q 313.040625 39.56 313.040625 41.56 
L 313.040625 85.150625 
Q 313.040625 87.150625 315.040625 87.150625 
z
" style="fill:#ffffff;opacity:0.8;stroke:#cccccc;stroke-linejoin:miter;"/>
    </g>
    <g id="text_14">
     <!-- set -->
     <g transform="translate(340.778906 51.158437)scale(0.1 -0.1)">
      <use xlink:href="#DejaVuSans-115"/>
      <use x="52.099609" xlink:href="#DejaVuSans-101"/>
      <use x="113.623047" xlink:href="#DejaVuSans-116"/>
     </g>
    </g>
    <g id="patch_10">
     <path d="M 317.040625 65.836562 
L 337.040625 65.836562 
L 337.040625 58.836562 
L 317.040625 58.836562 
z
" style="fill:#3274a1;stroke:#3f3f3f;stroke-linejoin:miter;stroke-width:0.75;"/>
    </g>
    <g id="text_15">
     <!-- Z_2_ns -->
     <g transform="translate(345.040625 65.836562)scale(0.1 -0.1)">
      <use xlink:href="#DejaVuSans-90"/>
      <use x="68.505859" xlink:href="#DejaVuSans-95"/>
      <use x="118.505859" xlink:href="#DejaVuSans-50"/>
      <use x="182.128906" xlink:href="#DejaVuSans-95"/>
      <use x="232.128906" xlink:href="#DejaVuSans-110"/>
      <use x="295.507812" xlink:href="#DejaVuSans-115"/>
     </g>
    </g>
    <g id="patch_11">
     <path d="M 317.040625 80.792812 
L 337.040625 80.792812 
L 337.040625 73.792812 
L 317.040625 73.792812 
z
" style="fill:#e1812c;stroke:#3f3f3f;stroke-linejoin:miter;stroke-width:0.75;"/>
    </g>
    <g id="text_16">
     <!-- Z_3_ns -->
     <g transform="translate(345.040625 80.792812)scale(0.1 -0.1)">
      <use xlink:href="#DejaVuSans-90"/>
      <use x="68.505859" xlink:href="#DejaVuSans-95"/>
      <use x="118.505859" xlink:href="#DejaVuSans-51"/>
      <use x="182.128906" xlink:href="#DejaVuSans-95"/>
      <use x="232.128906" xlink:href="#DejaVuSans-110"/>
      <use x="295.507812" xlink:href="#DejaVuSans-115"/>
     </g>
    </g>
   </g>
  </g>
 </g>
 <defs>
  <clipPath id="p32a702a808">
   <rect height="217.44" width="334.8" x="54" y="34.56"/>
  </clipPath>
 </defs>
</svg>
