<?xml version="1.0" encoding="utf-8" standalone="no"?>
<!DOCTYPE svg PUBLIC "-//W3C//DTD SVG 1.1//EN"
  "http://www.w3.org/Graphics/SVG/1.1/DTD/svg11.dtd">
<!-- Created with matplotlib (https://matplotlib.org/) -->
<svg height="288pt" version="1.1" viewBox="0 0 432 288" width="432pt" xmlns="http://www.w3.org/2000/svg" xmlns:xlink="http://www.w3.org/1999/xlink">
 <metadata>
  <rdf:RDF xmlns:cc="http://creativecommons.org/ns#" xmlns:dc="http://purl.org/dc/elements/1.1/" xmlns:rdf="http://www.w3.org/1999/02/22-rdf-syntax-ns#">
   <cc:Work>
    <dc:type rdf:resource="http://purl.org/dc/dcmitype/StillImage"/>
    <dc:date>2021-07-10T00:14:14.266650</dc:date>
    <dc:format>image/svg+xml</dc:format>
    <dc:creator>
     <cc:Agent>
      <dc:title>Matplotlib v3.3.4, https://matplotlib.org/</dc:title>
     </cc:Agent>
    </dc:creator>
   </cc:Work>
  </rdf:RDF>
 </metadata>
 <defs>
  <style type="text/css">*{stroke-linecap:butt;stroke-linejoin:round;}</style>
 </defs>
 <g id="figure_1">
  <g id="patch_1">
   <path d="M 0 288 
L 432 288 
L 432 0 
L 0 0 
z
" style="fill:#ffffff;"/>
  </g>
  <g id="axes_1">
   <g id="patch_2">
    <path d="M 54 252 
L 388.8 252 
L 388.8 34.56 
L 54 34.56 
z
" style="fill:#ffffff;"/>
   </g>
   <g id="PolyCollection_1">
    <defs>
     <path d="M 104.529391 -82.394262 
L 103.910609 -82.394262 
L 103.868873 -84.022162 
L 103.836195 -85.650062 
L 103.804487 -87.277962 
L 103.758851 -88.905862 
L 103.677141 -90.533762 
L 103.526263 -92.161662 
L 103.253677 -93.789562 
L 102.775848 -95.417462 
L 101.969982 -97.045362 
L 100.67919 -98.673262 
L 98.740898 -100.301162 
L 96.040384 -101.929062 
L 92.576073 -103.556962 
L 88.50812 -105.184862 
L 84.159004 -106.812762 
L 79.952096 -108.440662 
L 76.305291 -110.068562 
L 73.522472 -111.696462 
L 71.72764 -113.324362 
L 70.862993 -114.952262 
L 70.74 -116.580162 
L 71.112574 -118.208062 
L 71.74245 -119.835962 
L 72.441259 -121.463862 
L 73.088177 -123.091762 
L 73.62927 -124.719662 
L 74.065676 -126.347562 
L 74.436737 -127.975462 
L 74.802564 -129.603362 
L 75.228112 -131.231262 
L 75.768443 -132.859162 
L 76.454528 -134.487062 
L 77.281748 -136.114962 
L 78.206676 -137.742862 
L 79.157423 -139.370762 
L 80.056951 -140.998662 
L 80.85038 -142.626562 
L 81.522947 -144.254462 
L 82.099361 -145.882362 
L 82.625962 -147.510262 
L 83.147097 -149.138162 
L 83.689096 -150.766062 
L 84.25825 -152.393962 
L 84.849029 -154.021862 
L 85.453426 -155.649762 
L 86.06479 -157.277662 
L 86.676252 -158.905563 
L 87.278774 -160.533463 
L 87.863463 -162.161363 
L 88.428299 -163.789263 
L 88.98486 -165.417163 
L 89.559163 -167.045063 
L 90.183538 -168.672963 
L 90.88183 -170.300863 
L 91.655006 -171.928763 
L 92.475 -173.556663 
L 93.290799 -175.184563 
L 94.044437 -176.812463 
L 94.690006 -178.440363 
L 95.208249 -180.068263 
L 95.612171 -181.696163 
L 95.942792 -183.324063 
L 96.256859 -184.951963 
L 96.609956 -186.579863 
L 97.039717 -188.207763 
L 97.554537 -189.835663 
L 98.1322 -191.463563 
L 98.729436 -193.091463 
L 99.298638 -194.719363 
L 99.804432 -196.347263 
L 100.232854 -197.975163 
L 100.590059 -199.603063 
L 100.893121 -201.230963 
L 101.159222 -202.858863 
L 101.399086 -204.486763 
L 101.616655 -206.114663 
L 101.812825 -207.742563 
L 101.98921 -209.370463 
L 102.149199 -210.998363 
L 102.296389 -212.626263 
L 102.432572 -214.254163 
L 102.557337 -215.882063 
L 102.669641 -217.509963 
L 102.769986 -219.137863 
L 102.861541 -220.765763 
L 102.949645 -222.393663 
L 103.040328 -224.021563 
L 103.138779 -225.649463 
L 103.248151 -227.277363 
L 103.368663 -228.905263 
L 103.497075 -230.533163 
L 103.626998 -232.161063 
L 103.750326 -233.788964 
L 103.859462 -235.416864 
L 103.949393 -237.044764 
L 104.018732 -238.672664 
L 104.069451 -240.300564 
L 104.105632 -241.928464 
L 104.131911 -243.556364 
L 104.308089 -243.556364 
L 104.308089 -243.556364 
L 104.334368 -241.928464 
L 104.370549 -240.300564 
L 104.421268 -238.672664 
L 104.490607 -237.044764 
L 104.580538 -235.416864 
L 104.689674 -233.788964 
L 104.813002 -232.161063 
L 104.942925 -230.533163 
L 105.071337 -228.905263 
L 105.191849 -227.277363 
L 105.301221 -225.649463 
L 105.399672 -224.021563 
L 105.490355 -222.393663 
L 105.578459 -220.765763 
L 105.670014 -219.137863 
L 105.770359 -217.509963 
L 105.882663 -215.882063 
L 106.007428 -214.254163 
L 106.143611 -212.626263 
L 106.290801 -210.998363 
L 106.45079 -209.370463 
L 106.627175 -207.742563 
L 106.823345 -206.114663 
L 107.040914 -204.486763 
L 107.280778 -202.858863 
L 107.546879 -201.230963 
L 107.849941 -199.603063 
L 108.207146 -197.975163 
L 108.635568 -196.347263 
L 109.141362 -194.719363 
L 109.710564 -193.091463 
L 110.3078 -191.463563 
L 110.885463 -189.835663 
L 111.400283 -188.207763 
L 111.830044 -186.579863 
L 112.183141 -184.951963 
L 112.497208 -183.324063 
L 112.827829 -181.696163 
L 113.231751 -180.068263 
L 113.749994 -178.440363 
L 114.395563 -176.812463 
L 115.149201 -175.184563 
L 115.965 -173.556663 
L 116.784994 -171.928763 
L 117.55817 -170.300863 
L 118.256462 -168.672963 
L 118.880837 -167.045063 
L 119.45514 -165.417163 
L 120.011701 -163.789263 
L 120.576537 -162.161363 
L 121.161226 -160.533463 
L 121.763748 -158.905563 
L 122.37521 -157.277662 
L 122.986574 -155.649762 
L 123.590971 -154.021862 
L 124.18175 -152.393962 
L 124.750904 -150.766062 
L 125.292903 -149.138162 
L 125.814038 -147.510262 
L 126.340639 -145.882362 
L 126.917053 -144.254462 
L 127.58962 -142.626562 
L 128.383049 -140.998662 
L 129.282577 -139.370762 
L 130.233324 -137.742862 
L 131.158252 -136.114962 
L 131.985472 -134.487062 
L 132.671557 -132.859162 
L 133.211888 -131.231262 
L 133.637436 -129.603362 
L 134.003263 -127.975462 
L 134.374324 -126.347562 
L 134.81073 -124.719662 
L 135.351823 -123.091762 
L 135.998741 -121.463862 
L 136.69755 -119.835962 
L 137.327426 -118.208062 
L 137.7 -116.580162 
L 137.577007 -114.952262 
L 136.71236 -113.324362 
L 134.917528 -111.696462 
L 132.134709 -110.068562 
L 128.487904 -108.440662 
L 124.280996 -106.812762 
L 119.93188 -105.184862 
L 115.863927 -103.556962 
L 112.399616 -101.929062 
L 109.699102 -100.301162 
L 107.76081 -98.673262 
L 106.470018 -97.045362 
L 105.664152 -95.417462 
L 105.186323 -93.789562 
L 104.913737 -92.161662 
L 104.762859 -90.533762 
L 104.681149 -88.905862 
L 104.635513 -87.277962 
L 104.603805 -85.650062 
L 104.571127 -84.022162 
L 104.529391 -82.394262 
z
" id="m0e3ff4339d" style="stroke:#3f3f3f;stroke-width:1.5;"/>
    </defs>
    <g clip-path="url(#p90f858778d)">
     <use style="fill:#3274a1;stroke:#3f3f3f;stroke-width:1.5;" x="0" xlink:href="#m0e3ff4339d" y="288"/>
    </g>
   </g>
   <g id="PolyCollection_2">
    <defs>
     <path d="M 338.628028 -45.883636 
L 338.531972 -45.883636 
L 338.537064 -47.345429 
L 338.549317 -48.807222 
L 338.562432 -50.269015 
L 338.57173 -51.730808 
L 338.575949 -53.1926 
L 338.575439 -54.654393 
L 338.570115 -56.116186 
L 338.559758 -57.577979 
L 338.546315 -59.039772 
L 338.535133 -60.501565 
L 338.532233 -61.963357 
L 338.539359 -63.42515 
L 338.552364 -64.886943 
L 338.564969 -66.348736 
L 338.573394 -67.810529 
L 338.577329 -69.272322 
L 338.577788 -70.734114 
L 338.574916 -72.195907 
L 338.567511 -73.6577 
L 338.554413 -75.119493 
L 338.53655 -76.581286 
L 338.517264 -78.043078 
L 338.499723 -79.504871 
L 338.484207 -80.966664 
L 338.468756 -82.428457 
L 338.452099 -83.89025 
L 338.434714 -85.352043 
L 338.416471 -86.813835 
L 338.392793 -88.275628 
L 338.352273 -89.737421 
L 338.279463 -91.199214 
L 338.166773 -92.661007 
L 338.030139 -94.122799 
L 337.906651 -95.584592 
L 337.81801 -97.046385 
L 337.718974 -98.508178 
L 337.46476 -99.969971 
L 336.804423 -101.431764 
L 335.400593 -102.893556 
L 332.915563 -104.355349 
L 329.199318 -105.817142 
L 324.500444 -107.278935 
L 319.500787 -108.740728 
L 315.0381 -110.20252 
L 311.657997 -111.664313 
L 309.364395 -113.126106 
L 307.793629 -114.587899 
L 306.612405 -116.049692 
L 305.737158 -117.511485 
L 305.231592 -118.973277 
L 305.1 -120.43507 
L 305.240002 -121.896863 
L 305.574023 -123.358656 
L 306.155399 -124.820449 
L 307.094386 -126.282242 
L 308.409721 -127.744034 
L 310.012494 -129.205827 
L 311.812798 -130.66762 
L 313.770736 -132.129413 
L 315.851738 -133.591206 
L 317.991981 -135.052998 
L 320.104082 -136.514791 
L 322.084602 -137.976584 
L 323.835309 -139.438377 
L 325.305501 -140.90017 
L 326.514874 -142.361963 
L 327.547507 -143.823755 
L 328.527652 -145.285548 
L 329.55363 -146.747341 
L 330.612865 -148.209134 
L 331.582075 -149.670927 
L 332.342318 -151.132719 
L 332.886797 -152.594512 
L 333.304488 -154.056305 
L 333.674584 -155.518098 
L 333.997177 -156.979891 
L 334.222283 -158.441684 
L 334.326801 -159.903476 
L 334.356123 -161.365269 
L 334.400913 -162.827062 
L 334.54301 -164.288855 
L 334.819865 -165.750648 
L 335.222257 -167.212441 
L 335.705392 -168.674233 
L 336.202418 -170.136026 
L 336.647778 -171.597819 
L 337.002893 -173.059612 
L 337.263313 -174.521405 
L 337.447277 -175.983197 
L 337.582815 -177.44499 
L 337.698482 -178.906783 
L 337.813855 -180.368576 
L 337.935437 -181.830369 
L 338.062081 -183.292162 
L 338.189442 -184.753954 
L 338.307455 -186.215747 
L 338.401881 -187.67754 
L 338.465111 -189.139333 
L 338.502878 -190.601126 
L 338.657122 -190.601126 
L 338.657122 -190.601126 
L 338.694889 -189.139333 
L 338.758119 -187.67754 
L 338.852545 -186.215747 
L 338.970558 -184.753954 
L 339.097919 -183.292162 
L 339.224563 -181.830369 
L 339.346145 -180.368576 
L 339.461518 -178.906783 
L 339.577185 -177.44499 
L 339.712723 -175.983197 
L 339.896687 -174.521405 
L 340.157107 -173.059612 
L 340.512222 -171.597819 
L 340.957582 -170.136026 
L 341.454608 -168.674233 
L 341.937743 -167.212441 
L 342.340135 -165.750648 
L 342.61699 -164.288855 
L 342.759087 -162.827062 
L 342.803877 -161.365269 
L 342.833199 -159.903476 
L 342.937717 -158.441684 
L 343.162823 -156.979891 
L 343.485416 -155.518098 
L 343.855512 -154.056305 
L 344.273203 -152.594512 
L 344.817682 -151.132719 
L 345.577925 -149.670927 
L 346.547135 -148.209134 
L 347.60637 -146.747341 
L 348.632348 -145.285548 
L 349.612493 -143.823755 
L 350.645126 -142.361963 
L 351.854499 -140.90017 
L 353.324691 -139.438377 
L 355.075398 -137.976584 
L 357.055918 -136.514791 
L 359.168019 -135.052998 
L 361.308262 -133.591206 
L 363.389264 -132.129413 
L 365.347202 -130.66762 
L 367.147506 -129.205827 
L 368.750279 -127.744034 
L 370.065614 -126.282242 
L 371.004601 -124.820449 
L 371.585977 -123.358656 
L 371.919998 -121.896863 
L 372.06 -120.43507 
L 371.928408 -118.973277 
L 371.422842 -117.511485 
L 370.547595 -116.049692 
L 369.366371 -114.587899 
L 367.795605 -113.126106 
L 365.502003 -111.664313 
L 362.1219 -110.20252 
L 357.659213 -108.740728 
L 352.659556 -107.278935 
L 347.960682 -105.817142 
L 344.244437 -104.355349 
L 341.759407 -102.893556 
L 340.355577 -101.431764 
L 339.69524 -99.969971 
L 339.441026 -98.508178 
L 339.34199 -97.046385 
L 339.253349 -95.584592 
L 339.129861 -94.122799 
L 338.993227 -92.661007 
L 338.880537 -91.199214 
L 338.807727 -89.737421 
L 338.767207 -88.275628 
L 338.743529 -86.813835 
L 338.725286 -85.352043 
L 338.707901 -83.89025 
L 338.691244 -82.428457 
L 338.675793 -80.966664 
L 338.660277 -79.504871 
L 338.642736 -78.043078 
L 338.62345 -76.581286 
L 338.605587 -75.119493 
L 338.592489 -73.6577 
L 338.585084 -72.195907 
L 338.582212 -70.734114 
L 338.582671 -69.272322 
L 338.586606 -67.810529 
L 338.595031 -66.348736 
L 338.607636 -64.886943 
L 338.620641 -63.42515 
L 338.627767 -61.963357 
L 338.624867 -60.501565 
L 338.613685 -59.039772 
L 338.600242 -57.577979 
L 338.589885 -56.116186 
L 338.584561 -54.654393 
L 338.584051 -53.1926 
L 338.58827 -51.730808 
L 338.597568 -50.269015 
L 338.610683 -48.807222 
L 338.622936 -47.345429 
L 338.628028 -45.883636 
z
" id="mfd41bf46e4" style="stroke:#3f3f3f;stroke-width:1.5;"/>
    </defs>
    <g clip-path="url(#p90f858778d)">
     <use style="fill:#e1812c;stroke:#3f3f3f;stroke-width:1.5;" x="0" xlink:href="#mfd41bf46e4" y="288"/>
    </g>
   </g>
   <g id="patch_3">
    <path clip-path="url(#p90f858778d)" d="M 137.7 227.087536 
L 137.7 227.087536 
L 137.7 227.087536 
L 137.7 227.087536 
z
" style="fill:#3274a1;stroke:#3f3f3f;stroke-linejoin:miter;stroke-width:0.75;"/>
   </g>
   <g id="patch_4">
    <path clip-path="url(#p90f858778d)" d="M 137.7 227.087536 
L 137.7 227.087536 
L 137.7 227.087536 
L 137.7 227.087536 
z
" style="fill:#e1812c;stroke:#3f3f3f;stroke-linejoin:miter;stroke-width:0.75;"/>
   </g>
   <g id="matplotlib.axis_1">
    <g id="xtick_1">
     <g id="line2d_1">
      <defs>
       <path d="M 0 0 
L 0 3.5 
" id="mf880ff27ee" style="stroke:#000000;stroke-width:0.8;"/>
      </defs>
      <g>
       <use style="stroke:#000000;stroke-width:0.8;" x="137.7" xlink:href="#mf880ff27ee" y="252"/>
      </g>
     </g>
     <g id="text_1">
      <!-- Z_2_ns -->
      <g transform="translate(120.320312 266.421875)scale(0.1 -0.1)">
       <defs>
        <path d="M 5.609375 72.90625 
L 62.890625 72.90625 
L 62.890625 65.375 
L 16.796875 8.296875 
L 64.015625 8.296875 
L 64.015625 0 
L 4.5 0 
L 4.5 7.515625 
L 50.59375 64.59375 
L 5.609375 64.59375 
z
" id="DejaVuSans-90"/>
        <path d="M 50.984375 -16.609375 
L 50.984375 -23.578125 
L -0.984375 -23.578125 
L -0.984375 -16.609375 
z
" id="DejaVuSans-95"/>
        <path d="M 19.1875 8.296875 
L 53.609375 8.296875 
L 53.609375 0 
L 7.328125 0 
L 7.328125 8.296875 
Q 12.9375 14.109375 22.625 23.890625 
Q 32.328125 33.6875 34.8125 36.53125 
Q 39.546875 41.84375 41.421875 45.53125 
Q 43.3125 49.21875 43.3125 52.78125 
Q 43.3125 58.59375 39.234375 62.25 
Q 35.15625 65.921875 28.609375 65.921875 
Q 23.96875 65.921875 18.8125 64.3125 
Q 13.671875 62.703125 7.8125 59.421875 
L 7.8125 69.390625 
Q 13.765625 71.78125 18.9375 73 
Q 24.125 74.21875 28.421875 74.21875 
Q 39.75 74.21875 46.484375 68.546875 
Q 53.21875 62.890625 53.21875 53.421875 
Q 53.21875 48.921875 51.53125 44.890625 
Q 49.859375 40.875 45.40625 35.40625 
Q 44.1875 33.984375 37.640625 27.21875 
Q 31.109375 20.453125 19.1875 8.296875 
z
" id="DejaVuSans-50"/>
        <path d="M 54.890625 33.015625 
L 54.890625 0 
L 45.90625 0 
L 45.90625 32.71875 
Q 45.90625 40.484375 42.875 44.328125 
Q 39.84375 48.1875 33.796875 48.1875 
Q 26.515625 48.1875 22.3125 43.546875 
Q 18.109375 38.921875 18.109375 30.90625 
L 18.109375 0 
L 9.078125 0 
L 9.078125 54.6875 
L 18.109375 54.6875 
L 18.109375 46.1875 
Q 21.34375 51.125 25.703125 53.5625 
Q 30.078125 56 35.796875 56 
Q 45.21875 56 50.046875 50.171875 
Q 54.890625 44.34375 54.890625 33.015625 
z
" id="DejaVuSans-110"/>
        <path d="M 44.28125 53.078125 
L 44.28125 44.578125 
Q 40.484375 46.53125 36.375 47.5 
Q 32.28125 48.484375 27.875 48.484375 
Q 21.1875 48.484375 17.84375 46.4375 
Q 14.5 44.390625 14.5 40.28125 
Q 14.5 37.15625 16.890625 35.375 
Q 19.28125 33.59375 26.515625 31.984375 
L 29.59375 31.296875 
Q 39.15625 29.25 43.1875 25.515625 
Q 47.21875 21.78125 47.21875 15.09375 
Q 47.21875 7.46875 41.1875 3.015625 
Q 35.15625 -1.421875 24.609375 -1.421875 
Q 20.21875 -1.421875 15.453125 -0.5625 
Q 10.6875 0.296875 5.421875 2 
L 5.421875 11.28125 
Q 10.40625 8.6875 15.234375 7.390625 
Q 20.0625 6.109375 24.8125 6.109375 
Q 31.15625 6.109375 34.5625 8.28125 
Q 37.984375 10.453125 37.984375 14.40625 
Q 37.984375 18.0625 35.515625 20.015625 
Q 33.0625 21.96875 24.703125 23.78125 
L 21.578125 24.515625 
Q 13.234375 26.265625 9.515625 29.90625 
Q 5.8125 33.546875 5.8125 39.890625 
Q 5.8125 47.609375 11.28125 51.796875 
Q 16.75 56 26.8125 56 
Q 31.78125 56 36.171875 55.265625 
Q 40.578125 54.546875 44.28125 53.078125 
z
" id="DejaVuSans-115"/>
       </defs>
       <use xlink:href="#DejaVuSans-90"/>
       <use x="68.505859" xlink:href="#DejaVuSans-95"/>
       <use x="118.505859" xlink:href="#DejaVuSans-50"/>
       <use x="182.128906" xlink:href="#DejaVuSans-95"/>
       <use x="232.128906" xlink:href="#DejaVuSans-110"/>
       <use x="295.507812" xlink:href="#DejaVuSans-115"/>
      </g>
     </g>
    </g>
    <g id="xtick_2">
     <g id="line2d_2">
      <g>
       <use style="stroke:#000000;stroke-width:0.8;" x="305.1" xlink:href="#mf880ff27ee" y="252"/>
      </g>
     </g>
     <g id="text_2">
      <!-- Z_3_ns -->
      <g transform="translate(287.720313 266.421875)scale(0.1 -0.1)">
       <defs>
        <path d="M 40.578125 39.3125 
Q 47.65625 37.796875 51.625 33 
Q 55.609375 28.21875 55.609375 21.1875 
Q 55.609375 10.40625 48.1875 4.484375 
Q 40.765625 -1.421875 27.09375 -1.421875 
Q 22.515625 -1.421875 17.65625 -0.515625 
Q 12.796875 0.390625 7.625 2.203125 
L 7.625 11.71875 
Q 11.71875 9.328125 16.59375 8.109375 
Q 21.484375 6.890625 26.8125 6.890625 
Q 36.078125 6.890625 40.9375 10.546875 
Q 45.796875 14.203125 45.796875 21.1875 
Q 45.796875 27.640625 41.28125 31.265625 
Q 36.765625 34.90625 28.71875 34.90625 
L 20.21875 34.90625 
L 20.21875 43.015625 
L 29.109375 43.015625 
Q 36.375 43.015625 40.234375 45.921875 
Q 44.09375 48.828125 44.09375 54.296875 
Q 44.09375 59.90625 40.109375 62.90625 
Q 36.140625 65.921875 28.71875 65.921875 
Q 24.65625 65.921875 20.015625 65.03125 
Q 15.375 64.15625 9.8125 62.3125 
L 9.8125 71.09375 
Q 15.4375 72.65625 20.34375 73.4375 
Q 25.25 74.21875 29.59375 74.21875 
Q 40.828125 74.21875 47.359375 69.109375 
Q 53.90625 64.015625 53.90625 55.328125 
Q 53.90625 49.265625 50.4375 45.09375 
Q 46.96875 40.921875 40.578125 39.3125 
z
" id="DejaVuSans-51"/>
       </defs>
       <use xlink:href="#DejaVuSans-90"/>
       <use x="68.505859" xlink:href="#DejaVuSans-95"/>
       <use x="118.505859" xlink:href="#DejaVuSans-51"/>
       <use x="182.128906" xlink:href="#DejaVuSans-95"/>
       <use x="232.128906" xlink:href="#DejaVuSans-110"/>
       <use x="295.507812" xlink:href="#DejaVuSans-115"/>
      </g>
     </g>
    </g>
    <g id="text_3">
     <!-- set -->
     <g transform="translate(213.758594 280.378125)scale(0.1 -0.1)">
      <defs>
       <path d="M 56.203125 29.59375 
L 56.203125 25.203125 
L 14.890625 25.203125 
Q 15.484375 15.921875 20.484375 11.0625 
Q 25.484375 6.203125 34.421875 6.203125 
Q 39.59375 6.203125 44.453125 7.46875 
Q 49.3125 8.734375 54.109375 11.28125 
L 54.109375 2.78125 
Q 49.265625 0.734375 44.1875 -0.34375 
Q 39.109375 -1.421875 33.890625 -1.421875 
Q 20.796875 -1.421875 13.15625 6.1875 
Q 5.515625 13.8125 5.515625 26.8125 
Q 5.515625 40.234375 12.765625 48.109375 
Q 20.015625 56 32.328125 56 
Q 43.359375 56 49.78125 48.890625 
Q 56.203125 41.796875 56.203125 29.59375 
z
M 47.21875 32.234375 
Q 47.125 39.59375 43.09375 43.984375 
Q 39.0625 48.390625 32.421875 48.390625 
Q 24.90625 48.390625 20.390625 44.140625 
Q 15.875 39.890625 15.1875 32.171875 
z
" id="DejaVuSans-101"/>
       <path d="M 18.3125 70.21875 
L 18.3125 54.6875 
L 36.8125 54.6875 
L 36.8125 47.703125 
L 18.3125 47.703125 
L 18.3125 18.015625 
Q 18.3125 11.328125 20.140625 9.421875 
Q 21.96875 7.515625 27.59375 7.515625 
L 36.8125 7.515625 
L 36.8125 0 
L 27.59375 0 
Q 17.1875 0 13.234375 3.875 
Q 9.28125 7.765625 9.28125 18.015625 
L 9.28125 47.703125 
L 2.6875 47.703125 
L 2.6875 54.6875 
L 9.28125 54.6875 
L 9.28125 70.21875 
z
" id="DejaVuSans-116"/>
      </defs>
      <use xlink:href="#DejaVuSans-115"/>
      <use x="52.099609" xlink:href="#DejaVuSans-101"/>
      <use x="113.623047" xlink:href="#DejaVuSans-116"/>
     </g>
    </g>
   </g>
   <g id="matplotlib.axis_2">
    <g id="ytick_1">
     <g id="line2d_3">
      <defs>
       <path d="M 0 0 
L -3.5 0 
" id="mcc207e2753" style="stroke:#000000;stroke-width:0.8;"/>
      </defs>
      <g>
       <use style="stroke:#000000;stroke-width:0.8;" x="54" xlink:href="#mcc207e2753" y="227.087536"/>
      </g>
     </g>
     <g id="text_4">
      <!-- 0 -->
      <g transform="translate(40.6375 230.886754)scale(0.1 -0.1)">
       <defs>
        <path d="M 31.78125 66.40625 
Q 24.171875 66.40625 20.328125 58.90625 
Q 16.5 51.421875 16.5 36.375 
Q 16.5 21.390625 20.328125 13.890625 
Q 24.171875 6.390625 31.78125 6.390625 
Q 39.453125 6.390625 43.28125 13.890625 
Q 47.125 21.390625 47.125 36.375 
Q 47.125 51.421875 43.28125 58.90625 
Q 39.453125 66.40625 31.78125 66.40625 
z
M 31.78125 74.21875 
Q 44.046875 74.21875 50.515625 64.515625 
Q 56.984375 54.828125 56.984375 36.375 
Q 56.984375 17.96875 50.515625 8.265625 
Q 44.046875 -1.421875 31.78125 -1.421875 
Q 19.53125 -1.421875 13.0625 8.265625 
Q 6.59375 17.96875 6.59375 36.375 
Q 6.59375 54.828125 13.0625 64.515625 
Q 19.53125 74.21875 31.78125 74.21875 
z
" id="DejaVuSans-48"/>
       </defs>
       <use xlink:href="#DejaVuSans-48"/>
      </g>
     </g>
    </g>
    <g id="ytick_2">
     <g id="line2d_4">
      <g>
       <use style="stroke:#000000;stroke-width:0.8;" x="54" xlink:href="#mcc207e2753" y="188.505842"/>
      </g>
     </g>
     <g id="text_5">
      <!-- 5 -->
      <g transform="translate(40.6375 192.305061)scale(0.1 -0.1)">
       <defs>
        <path d="M 10.796875 72.90625 
L 49.515625 72.90625 
L 49.515625 64.59375 
L 19.828125 64.59375 
L 19.828125 46.734375 
Q 21.96875 47.46875 24.109375 47.828125 
Q 26.265625 48.1875 28.421875 48.1875 
Q 40.625 48.1875 47.75 41.5 
Q 54.890625 34.8125 54.890625 23.390625 
Q 54.890625 11.625 47.5625 5.09375 
Q 40.234375 -1.421875 26.90625 -1.421875 
Q 22.3125 -1.421875 17.546875 -0.640625 
Q 12.796875 0.140625 7.71875 1.703125 
L 7.71875 11.625 
Q 12.109375 9.234375 16.796875 8.0625 
Q 21.484375 6.890625 26.703125 6.890625 
Q 35.15625 6.890625 40.078125 11.328125 
Q 45.015625 15.765625 45.015625 23.390625 
Q 45.015625 31 40.078125 35.4375 
Q 35.15625 39.890625 26.703125 39.890625 
Q 22.75 39.890625 18.8125 39.015625 
Q 14.890625 38.140625 10.796875 36.28125 
z
" id="DejaVuSans-53"/>
       </defs>
       <use xlink:href="#DejaVuSans-53"/>
      </g>
     </g>
    </g>
    <g id="ytick_3">
     <g id="line2d_5">
      <g>
       <use style="stroke:#000000;stroke-width:0.8;" x="54" xlink:href="#mcc207e2753" y="149.924148"/>
      </g>
     </g>
     <g id="text_6">
      <!-- 10 -->
      <g transform="translate(34.275 153.723367)scale(0.1 -0.1)">
       <defs>
        <path d="M 12.40625 8.296875 
L 28.515625 8.296875 
L 28.515625 63.921875 
L 10.984375 60.40625 
L 10.984375 69.390625 
L 28.421875 72.90625 
L 38.28125 72.90625 
L 38.28125 8.296875 
L 54.390625 8.296875 
L 54.390625 0 
L 12.40625 0 
z
" id="DejaVuSans-49"/>
       </defs>
       <use xlink:href="#DejaVuSans-49"/>
       <use x="63.623047" xlink:href="#DejaVuSans-48"/>
      </g>
     </g>
    </g>
    <g id="ytick_4">
     <g id="line2d_6">
      <g>
       <use style="stroke:#000000;stroke-width:0.8;" x="54" xlink:href="#mcc207e2753" y="111.342454"/>
      </g>
     </g>
     <g id="text_7">
      <!-- 15 -->
      <g transform="translate(34.275 115.141673)scale(0.1 -0.1)">
       <use xlink:href="#DejaVuSans-49"/>
       <use x="63.623047" xlink:href="#DejaVuSans-53"/>
      </g>
     </g>
    </g>
    <g id="ytick_5">
     <g id="line2d_7">
      <g>
       <use style="stroke:#000000;stroke-width:0.8;" x="54" xlink:href="#mcc207e2753" y="72.76076"/>
      </g>
     </g>
     <g id="text_8">
      <!-- 20 -->
      <g transform="translate(34.275 76.559979)scale(0.1 -0.1)">
       <use xlink:href="#DejaVuSans-50"/>
       <use x="63.623047" xlink:href="#DejaVuSans-48"/>
      </g>
     </g>
    </g>
    <g id="text_9">
     <!-- value -->
     <g transform="translate(28.195312 156.937813)rotate(-90)scale(0.1 -0.1)">
      <defs>
       <path d="M 2.984375 54.6875 
L 12.5 54.6875 
L 29.59375 8.796875 
L 46.6875 54.6875 
L 56.203125 54.6875 
L 35.6875 0 
L 23.484375 0 
z
" id="DejaVuSans-118"/>
       <path d="M 34.28125 27.484375 
Q 23.390625 27.484375 19.1875 25 
Q 14.984375 22.515625 14.984375 16.5 
Q 14.984375 11.71875 18.140625 8.90625 
Q 21.296875 6.109375 26.703125 6.109375 
Q 34.1875 6.109375 38.703125 11.40625 
Q 43.21875 16.703125 43.21875 25.484375 
L 43.21875 27.484375 
z
M 52.203125 31.203125 
L 52.203125 0 
L 43.21875 0 
L 43.21875 8.296875 
Q 40.140625 3.328125 35.546875 0.953125 
Q 30.953125 -1.421875 24.3125 -1.421875 
Q 15.921875 -1.421875 10.953125 3.296875 
Q 6 8.015625 6 15.921875 
Q 6 25.140625 12.171875 29.828125 
Q 18.359375 34.515625 30.609375 34.515625 
L 43.21875 34.515625 
L 43.21875 35.40625 
Q 43.21875 41.609375 39.140625 45 
Q 35.0625 48.390625 27.6875 48.390625 
Q 23 48.390625 18.546875 47.265625 
Q 14.109375 46.140625 10.015625 43.890625 
L 10.015625 52.203125 
Q 14.9375 54.109375 19.578125 55.046875 
Q 24.21875 56 28.609375 56 
Q 40.484375 56 46.34375 49.84375 
Q 52.203125 43.703125 52.203125 31.203125 
z
" id="DejaVuSans-97"/>
       <path d="M 9.421875 75.984375 
L 18.40625 75.984375 
L 18.40625 0 
L 9.421875 0 
z
" id="DejaVuSans-108"/>
       <path d="M 8.5 21.578125 
L 8.5 54.6875 
L 17.484375 54.6875 
L 17.484375 21.921875 
Q 17.484375 14.15625 20.5 10.265625 
Q 23.53125 6.390625 29.59375 6.390625 
Q 36.859375 6.390625 41.078125 11.03125 
Q 45.3125 15.671875 45.3125 23.6875 
L 45.3125 54.6875 
L 54.296875 54.6875 
L 54.296875 0 
L 45.3125 0 
L 45.3125 8.40625 
Q 42.046875 3.421875 37.71875 1 
Q 33.40625 -1.421875 27.6875 -1.421875 
Q 18.265625 -1.421875 13.375 4.4375 
Q 8.5 10.296875 8.5 21.578125 
z
M 31.109375 56 
z
" id="DejaVuSans-117"/>
      </defs>
      <use xlink:href="#DejaVuSans-118"/>
      <use x="59.179688" xlink:href="#DejaVuSans-97"/>
      <use x="120.458984" xlink:href="#DejaVuSans-108"/>
      <use x="148.242188" xlink:href="#DejaVuSans-117"/>
      <use x="211.621094" xlink:href="#DejaVuSans-101"/>
     </g>
    </g>
   </g>
   <g id="line2d_8">
    <path clip-path="url(#p90f858778d)" d="M 104.22 205.605738 
L 104.22 73.002102 
" style="fill:none;stroke:#3f3f3f;stroke-linecap:square;stroke-width:1.5;"/>
   </g>
   <g id="line2d_9">
    <path clip-path="url(#p90f858778d)" d="M 104.22 168.78983 
L 104.22 130.426469 
" style="fill:none;stroke:#3f3f3f;stroke-linecap:square;stroke-width:4.5;"/>
   </g>
   <g id="line2d_10">
    <path clip-path="url(#p90f858778d)" d="M 338.58 197.192432 
L 338.58 124.59327 
" style="fill:none;stroke:#3f3f3f;stroke-linecap:square;stroke-width:1.5;"/>
   </g>
   <g id="line2d_11">
    <path clip-path="url(#p90f858778d)" d="M 338.58 171.516345 
L 338.58 152.729638 
" style="fill:none;stroke:#3f3f3f;stroke-linecap:square;stroke-width:4.5;"/>
   </g>
   <g id="patch_5">
    <path d="M 54 252 
L 54 34.56 
" style="fill:none;stroke:#000000;stroke-linecap:square;stroke-linejoin:miter;stroke-width:0.8;"/>
   </g>
   <g id="patch_6">
    <path d="M 388.8 252 
L 388.8 34.56 
" style="fill:none;stroke:#000000;stroke-linecap:square;stroke-linejoin:miter;stroke-width:0.8;"/>
   </g>
   <g id="patch_7">
    <path d="M 54 252 
L 388.8 252 
" style="fill:none;stroke:#000000;stroke-linecap:square;stroke-linejoin:miter;stroke-width:0.8;"/>
   </g>
   <g id="patch_8">
    <path d="M 54 34.56 
L 388.8 34.56 
" style="fill:none;stroke:#000000;stroke-linecap:square;stroke-linejoin:miter;stroke-width:0.8;"/>
   </g>
   <g id="PathCollection_1">
    <defs>
     <path d="M 0 1.5 
C 0.397805 1.5 0.77937 1.341951 1.06066 1.06066 
C 1.341951 0.77937 1.5 0.397805 1.5 0 
C 1.5 -0.397805 1.341951 -0.77937 1.06066 -1.06066 
C 0.77937 -1.341951 0.397805 -1.5 0 -1.5 
C -0.397805 -1.5 -0.77937 -1.341951 -1.06066 -1.06066 
C -1.341951 -0.77937 -1.5 -0.397805 -1.5 0 
C -1.5 0.397805 -1.341951 0.77937 -1.06066 1.06066 
C -0.77937 1.341951 -0.397805 1.5 0 1.5 
z
" id="m173aeca0f2" style="stroke:#3f3f3f;"/>
    </defs>
    <g clip-path="url(#p90f858778d)">
     <use style="fill:#ffffff;stroke:#3f3f3f;" x="104.22" xlink:href="#m173aeca0f2" y="152.323516"/>
    </g>
   </g>
   <g id="PathCollection_2">
    <g clip-path="url(#p90f858778d)">
     <use style="fill:#ffffff;stroke:#3f3f3f;" x="338.58" xlink:href="#m173aeca0f2" y="162.995517"/>
    </g>
   </g>
   <g id="legend_1">
    <g id="patch_9">
     <path d="M 315.040625 87.150625 
L 381.8 87.150625 
Q 383.8 87.150625 383.8 85.150625 
L 383.8 41.56 
Q 383.8 39.56 381.8 39.56 
L 315.040625 39.56 
Q 313.040625 39.56 313.040625 41.56 
L 313.040625 85.150625 
Q 313.040625 87.150625 315.040625 87.150625 
z
" style="fill:#ffffff;opacity:0.8;stroke:#cccccc;stroke-linejoin:miter;"/>
    </g>
    <g id="text_10">
     <!-- set -->
     <g transform="translate(340.778906 51.158437)scale(0.1 -0.1)">
      <use xlink:href="#DejaVuSans-115"/>
      <use x="52.099609" xlink:href="#DejaVuSans-101"/>
      <use x="113.623047" xlink:href="#DejaVuSans-116"/>
     </g>
    </g>
    <g id="patch_10">
     <path d="M 317.040625 65.836562 
L 337.040625 65.836562 
L 337.040625 58.836562 
L 317.040625 58.836562 
z
" style="fill:#3274a1;stroke:#3f3f3f;stroke-linejoin:miter;stroke-width:0.75;"/>
    </g>
    <g id="text_11">
     <!-- Z_2_ns -->
     <g transform="translate(345.040625 65.836562)scale(0.1 -0.1)">
      <use xlink:href="#DejaVuSans-90"/>
      <use x="68.505859" xlink:href="#DejaVuSans-95"/>
      <use x="118.505859" xlink:href="#DejaVuSans-50"/>
      <use x="182.128906" xlink:href="#DejaVuSans-95"/>
      <use x="232.128906" xlink:href="#DejaVuSans-110"/>
      <use x="295.507812" xlink:href="#DejaVuSans-115"/>
     </g>
    </g>
    <g id="patch_11">
     <path d="M 317.040625 80.792812 
L 337.040625 80.792812 
L 337.040625 73.792812 
L 317.040625 73.792812 
z
" style="fill:#e1812c;stroke:#3f3f3f;stroke-linejoin:miter;stroke-width:0.75;"/>
    </g>
    <g id="text_12">
     <!-- Z_3_ns -->
     <g transform="translate(345.040625 80.792812)scale(0.1 -0.1)">
      <use xlink:href="#DejaVuSans-90"/>
      <use x="68.505859" xlink:href="#DejaVuSans-95"/>
      <use x="118.505859" xlink:href="#DejaVuSans-51"/>
      <use x="182.128906" xlink:href="#DejaVuSans-95"/>
      <use x="232.128906" xlink:href="#DejaVuSans-110"/>
      <use x="295.507812" xlink:href="#DejaVuSans-115"/>
     </g>
    </g>
   </g>
  </g>
 </g>
 <defs>
  <clipPath id="p90f858778d">
   <rect height="217.44" width="334.8" x="54" y="34.56"/>
  </clipPath>
 </defs>
</svg>
