<?xml version="1.0" encoding="utf-8" standalone="no"?>
<!DOCTYPE svg PUBLIC "-//W3C//DTD SVG 1.1//EN"
  "http://www.w3.org/Graphics/SVG/1.1/DTD/svg11.dtd">
<!-- Created with matplotlib (https://matplotlib.org/) -->
<svg height="288pt" version="1.1" viewBox="0 0 432 288" width="432pt" xmlns="http://www.w3.org/2000/svg" xmlns:xlink="http://www.w3.org/1999/xlink">
 <metadata>
  <rdf:RDF xmlns:cc="http://creativecommons.org/ns#" xmlns:dc="http://purl.org/dc/elements/1.1/" xmlns:rdf="http://www.w3.org/1999/02/22-rdf-syntax-ns#">
   <cc:Work>
    <dc:type rdf:resource="http://purl.org/dc/dcmitype/StillImage"/>
    <dc:date>2021-07-13T18:07:50.201793</dc:date>
    <dc:format>image/svg+xml</dc:format>
    <dc:creator>
     <cc:Agent>
      <dc:title>Matplotlib v3.3.4, https://matplotlib.org/</dc:title>
     </cc:Agent>
    </dc:creator>
   </cc:Work>
  </rdf:RDF>
 </metadata>
 <defs>
  <style type="text/css">*{stroke-linecap:butt;stroke-linejoin:round;}</style>
 </defs>
 <g id="figure_1">
  <g id="patch_1">
   <path d="M 0 288 
L 432 288 
L 432 0 
L 0 0 
z
" style="fill:#ffffff;"/>
  </g>
  <g id="axes_1">
   <g id="patch_2">
    <path d="M 54 252 
L 388.8 252 
L 388.8 34.56 
L 54 34.56 
z
" style="fill:#ffffff;"/>
   </g>
   <g id="PolyCollection_1">
    <defs>
     <path d="M 88.178193 -45.883636 
L 71.901807 -45.883636 
L 69.477068 -47.817539 
L 67.447024 -49.751441 
L 66.04576 -51.685343 
L 65.317328 -53.619245 
L 65.16 -55.553148 
L 65.416245 -57.48705 
L 65.942365 -59.420952 
L 66.632257 -61.354854 
L 67.409362 -63.288756 
L 68.212318 -65.222659 
L 68.99098 -67.156561 
L 69.714308 -69.090463 
L 70.379027 -71.024365 
L 71.005818 -72.958268 
L 71.621081 -74.89217 
L 72.237176 -76.826072 
L 72.846576 -78.759974 
L 73.432166 -80.693877 
L 73.981282 -82.627779 
L 74.491151 -84.561681 
L 74.966031 -86.495583 
L 75.414 -88.429486 
L 75.845497 -90.363388 
L 76.268527 -92.29729 
L 76.679723 -94.231192 
L 77.059708 -96.165095 
L 77.3804 -98.098997 
L 77.620845 -100.032899 
L 77.780076 -101.966801 
L 77.878622 -103.900703 
L 77.949197 -105.834606 
L 78.023394 -107.768508 
L 78.121484 -109.70241 
L 78.248952 -111.636312 
L 78.399086 -113.570215 
L 78.558768 -115.504117 
L 78.714627 -117.438019 
L 78.857602 -119.371921 
L 78.984495 -121.305824 
L 79.096253 -123.239726 
L 79.194609 -125.173628 
L 79.279701 -127.10753 
L 79.35008 -129.041433 
L 79.404319 -130.975335 
L 79.442558 -132.909237 
L 79.467084 -134.843139 
L 79.481978 -136.777041 
L 79.492111 -138.710944 
L 79.501889 -140.644846 
L 79.514356 -142.578748 
L 79.531132 -144.51265 
L 79.553044 -146.446553 
L 79.580717 -148.380455 
L 79.614395 -150.314357 
L 79.652946 -152.248259 
L 79.693046 -154.182162 
L 79.729795 -156.116064 
L 79.758948 -158.049966 
L 79.779374 -159.983868 
L 79.793841 -161.917771 
L 79.80733 -163.851673 
L 79.823949 -165.785575 
L 79.844587 -167.719477 
L 79.866934 -169.653379 
L 79.887614 -171.587282 
L 79.904566 -173.521184 
L 79.917893 -175.455086 
L 79.928949 -177.388988 
L 79.938896 -179.322891 
L 79.947896 -181.256793 
L 79.955166 -183.190695 
L 79.959533 -185.124597 
L 79.960129 -187.0585 
L 79.956831 -188.992402 
L 79.950166 -190.926304 
L 79.940994 -192.860206 
L 79.930558 -194.794109 
L 79.92092 -196.728011 
L 79.914983 -198.661913 
L 79.915537 -200.595815 
L 79.923933 -202.529718 
L 79.939437 -204.46362 
L 79.959527 -206.397522 
L 79.980678 -208.331424 
L 79.999227 -210.265326 
L 80.012264 -212.199229 
L 80.018446 -214.133131 
L 80.018445 -216.067033 
L 80.01476 -218.000935 
L 80.010817 -219.934838 
L 80.009549 -221.86874 
L 80.012088 -223.802642 
L 80.017389 -225.736544 
L 80.023086 -227.670447 
L 80.026956 -229.604349 
L 80.028054 -231.538251 
L 80.026972 -233.472153 
L 80.025296 -235.406056 
L 80.024666 -237.339958 
L 80.055334 -237.339958 
L 80.055334 -237.339958 
L 80.054704 -235.406056 
L 80.053028 -233.472153 
L 80.051946 -231.538251 
L 80.053044 -229.604349 
L 80.056914 -227.670447 
L 80.062611 -225.736544 
L 80.067912 -223.802642 
L 80.070451 -221.86874 
L 80.069183 -219.934838 
L 80.06524 -218.000935 
L 80.061555 -216.067033 
L 80.061554 -214.133131 
L 80.067736 -212.199229 
L 80.080773 -210.265326 
L 80.099322 -208.331424 
L 80.120473 -206.397522 
L 80.140563 -204.46362 
L 80.156067 -202.529718 
L 80.164463 -200.595815 
L 80.165017 -198.661913 
L 80.15908 -196.728011 
L 80.149442 -194.794109 
L 80.139006 -192.860206 
L 80.129834 -190.926304 
L 80.123169 -188.992402 
L 80.119871 -187.0585 
L 80.120467 -185.124597 
L 80.124834 -183.190695 
L 80.132104 -181.256793 
L 80.141104 -179.322891 
L 80.151051 -177.388988 
L 80.162107 -175.455086 
L 80.175434 -173.521184 
L 80.192386 -171.587282 
L 80.213066 -169.653379 
L 80.235413 -167.719477 
L 80.256051 -165.785575 
L 80.27267 -163.851673 
L 80.286159 -161.917771 
L 80.300626 -159.983868 
L 80.321052 -158.049966 
L 80.350205 -156.116064 
L 80.386954 -154.182162 
L 80.427054 -152.248259 
L 80.465605 -150.314357 
L 80.499283 -148.380455 
L 80.526956 -146.446553 
L 80.548868 -144.51265 
L 80.565644 -142.578748 
L 80.578111 -140.644846 
L 80.587889 -138.710944 
L 80.598022 -136.777041 
L 80.612916 -134.843139 
L 80.637442 -132.909237 
L 80.675681 -130.975335 
L 80.72992 -129.041433 
L 80.800299 -127.10753 
L 80.885391 -125.173628 
L 80.983747 -123.239726 
L 81.095505 -121.305824 
L 81.222398 -119.371921 
L 81.365373 -117.438019 
L 81.521232 -115.504117 
L 81.680914 -113.570215 
L 81.831048 -111.636312 
L 81.958516 -109.70241 
L 82.056606 -107.768508 
L 82.130803 -105.834606 
L 82.201378 -103.900703 
L 82.299924 -101.966801 
L 82.459155 -100.032899 
L 82.6996 -98.098997 
L 83.020292 -96.165095 
L 83.400277 -94.231192 
L 83.811473 -92.29729 
L 84.234503 -90.363388 
L 84.666 -88.429486 
L 85.113969 -86.495583 
L 85.588849 -84.561681 
L 86.098718 -82.627779 
L 86.647834 -80.693877 
L 87.233424 -78.759974 
L 87.842824 -76.826072 
L 88.458919 -74.89217 
L 89.074182 -72.958268 
L 89.700973 -71.024365 
L 90.365692 -69.090463 
L 91.08902 -67.156561 
L 91.867682 -65.222659 
L 92.670638 -63.288756 
L 93.447743 -61.354854 
L 94.137635 -59.420952 
L 94.663755 -57.48705 
L 94.92 -55.553148 
L 94.762672 -53.619245 
L 94.03424 -51.685343 
L 92.632976 -49.751441 
L 90.602932 -47.817539 
L 88.178193 -45.883636 
z
" id="m4bbeefe961" style="stroke:#3d3d3d;stroke-width:1.5;"/>
    </defs>
    <g clip-path="url(#p2784a47e2c)">
     <use style="fill:#3274a1;stroke:#3d3d3d;stroke-width:1.5;" x="0" xlink:href="#m4bbeefe961" y="288"/>
    </g>
   </g>
   <g id="PolyCollection_2">
    <defs>
     <path d="M 229.522867 -45.896847 
L 213.277133 -45.896847 
L 211.205429 -47.893408 
L 209.374018 -49.889968 
L 207.949895 -51.886529 
L 207.01064 -53.88309 
L 206.551956 -55.879651 
L 206.52 -57.876211 
L 206.843934 -59.872772 
L 207.452293 -61.869333 
L 208.273554 -63.865894 
L 209.232538 -65.862455 
L 210.252932 -67.859015 
L 211.266557 -69.855576 
L 212.222573 -71.852137 
L 213.090707 -73.848698 
L 213.858792 -75.845258 
L 214.528724 -77.841819 
L 215.11297 -79.83838 
L 215.63009 -81.834941 
L 216.097957 -83.831502 
L 216.527391 -85.828062 
L 216.920968 -87.824623 
L 217.278152 -89.821184 
L 217.601923 -91.817745 
L 217.900586 -93.814305 
L 218.183252 -95.810866 
L 218.453522 -97.807427 
L 218.707037 -99.803988 
L 218.934565 -101.800549 
L 219.127794 -103.797109 
L 219.284009 -105.79367 
L 219.407583 -107.790231 
L 219.508383 -109.786792 
L 219.598313 -111.783352 
L 219.687622 -113.779913 
L 219.782486 -115.776474 
L 219.884458 -117.773035 
L 219.991215 -119.769595 
L 220.097764 -121.766156 
L 220.198048 -123.762717 
L 220.287502 -125.759278 
L 220.366117 -127.755839 
L 220.439897 -129.752399 
L 220.518599 -131.74896 
L 220.610213 -133.745521 
L 220.715664 -135.742082 
L 220.827622 -137.738642 
L 220.9343 -139.735203 
L 221.025493 -141.731764 
L 221.096813 -143.728325 
L 221.149921 -145.724886 
L 221.189556 -147.721446 
L 221.219938 -149.718007 
L 221.242823 -151.714568 
L 221.257908 -153.711129 
L 221.264693 -155.707689 
L 221.264146 -157.70425 
L 221.258952 -159.700811 
L 221.25229 -161.697372 
L 221.246293 -163.693933 
L 221.241502 -165.690493 
L 221.237666 -167.687054 
L 221.234963 -169.683615 
L 221.234384 -171.680176 
L 221.236959 -173.676736 
L 221.242716 -175.673297 
L 221.250514 -177.669858 
L 221.258956 -179.666419 
L 221.267509 -181.66298 
L 221.276724 -183.65954 
L 221.287332 -185.656101 
L 221.298997 -187.652662 
L 221.309884 -189.649223 
L 221.317538 -191.645783 
L 221.32055 -193.642344 
L 221.3198 -195.638905 
L 221.318322 -197.635466 
L 221.319768 -199.632027 
L 221.326471 -201.628587 
L 221.338338 -203.625148 
L 221.353153 -205.621709 
L 221.367912 -207.61827 
L 221.380232 -209.61483 
L 221.389058 -211.611391 
L 221.394561 -213.607952 
L 221.397572 -215.604513 
L 221.399024 -217.601074 
L 221.399636 -219.597634 
L 221.399837 -221.594195 
L 221.399808 -223.590756 
L 221.399542 -225.587317 
L 221.398859 -227.583877 
L 221.397414 -229.580438 
L 221.394737 -231.576999 
L 221.390398 -233.57356 
L 221.384297 -235.570121 
L 221.376977 -237.566681 
L 221.369741 -239.563242 
L 221.364349 -241.559803 
L 221.362346 -243.556364 
L 221.437654 -243.556364 
L 221.437654 -243.556364 
L 221.435651 -241.559803 
L 221.430259 -239.563242 
L 221.423023 -237.566681 
L 221.415703 -235.570121 
L 221.409602 -233.57356 
L 221.405263 -231.576999 
L 221.402586 -229.580438 
L 221.401141 -227.583877 
L 221.400458 -225.587317 
L 221.400192 -223.590756 
L 221.400163 -221.594195 
L 221.400364 -219.597634 
L 221.400976 -217.601074 
L 221.402428 -215.604513 
L 221.405439 -213.607952 
L 221.410942 -211.611391 
L 221.419768 -209.61483 
L 221.432088 -207.61827 
L 221.446847 -205.621709 
L 221.461662 -203.625148 
L 221.473529 -201.628587 
L 221.480232 -199.632027 
L 221.481678 -197.635466 
L 221.4802 -195.638905 
L 221.47945 -193.642344 
L 221.482462 -191.645783 
L 221.490116 -189.649223 
L 221.501003 -187.652662 
L 221.512668 -185.656101 
L 221.523276 -183.65954 
L 221.532491 -181.66298 
L 221.541044 -179.666419 
L 221.549486 -177.669858 
L 221.557284 -175.673297 
L 221.563041 -173.676736 
L 221.565616 -171.680176 
L 221.565037 -169.683615 
L 221.562334 -167.687054 
L 221.558498 -165.690493 
L 221.553707 -163.693933 
L 221.54771 -161.697372 
L 221.541048 -159.700811 
L 221.535854 -157.70425 
L 221.535307 -155.707689 
L 221.542092 -153.711129 
L 221.557177 -151.714568 
L 221.580062 -149.718007 
L 221.610444 -147.721446 
L 221.650079 -145.724886 
L 221.703187 -143.728325 
L 221.774507 -141.731764 
L 221.8657 -139.735203 
L 221.972378 -137.738642 
L 222.084336 -135.742082 
L 222.189787 -133.745521 
L 222.281401 -131.74896 
L 222.360103 -129.752399 
L 222.433883 -127.755839 
L 222.512498 -125.759278 
L 222.601952 -123.762717 
L 222.702236 -121.766156 
L 222.808785 -119.769595 
L 222.915542 -117.773035 
L 223.017514 -115.776474 
L 223.112378 -113.779913 
L 223.201687 -111.783352 
L 223.291617 -109.786792 
L 223.392417 -107.790231 
L 223.515991 -105.79367 
L 223.672206 -103.797109 
L 223.865435 -101.800549 
L 224.092963 -99.803988 
L 224.346478 -97.807427 
L 224.616748 -95.810866 
L 224.899414 -93.814305 
L 225.198077 -91.817745 
L 225.521848 -89.821184 
L 225.879032 -87.824623 
L 226.272609 -85.828062 
L 226.702043 -83.831502 
L 227.16991 -81.834941 
L 227.68703 -79.83838 
L 228.271276 -77.841819 
L 228.941208 -75.845258 
L 229.709293 -73.848698 
L 230.577427 -71.852137 
L 231.533443 -69.855576 
L 232.547068 -67.859015 
L 233.567462 -65.862455 
L 234.526446 -63.865894 
L 235.347707 -61.869333 
L 235.956066 -59.872772 
L 236.28 -57.876211 
L 236.248044 -55.879651 
L 235.78936 -53.88309 
L 234.850105 -51.886529 
L 233.425982 -49.889968 
L 231.594571 -47.893408 
L 229.522867 -45.896847 
z
" id="mb37730d04a" style="stroke:#3d3d3d;stroke-width:1.5;"/>
    </defs>
    <g clip-path="url(#p2784a47e2c)">
     <use style="fill:#e1812c;stroke:#3d3d3d;stroke-width:1.5;" x="0" xlink:href="#mb37730d04a" y="288"/>
    </g>
   </g>
   <g id="PolyCollection_3">
    <defs>
     <path d="M 372.188145 -45.888475 
L 353.331855 -45.888475 
L 351.453686 -47.879663 
L 349.879885 -49.87085 
L 348.740868 -51.862038 
L 348.085119 -53.853225 
L 347.88 -55.844413 
L 348.035117 -57.8356 
L 348.435885 -59.826788 
L 348.974224 -61.817975 
L 349.568369 -63.809163 
L 350.170255 -65.80035 
L 350.763115 -67.791538 
L 351.353028 -69.782725 
L 351.95759 -71.773913 
L 352.594208 -73.7651 
L 353.270574 -75.756288 
L 353.97978 -77.747475 
L 354.701502 -79.738663 
L 355.408504 -81.72985 
L 356.075363 -83.721038 
L 356.685445 -85.712225 
L 357.233354 -87.703413 
L 357.722714 -89.6946 
L 358.161451 -91.685788 
L 358.557517 -93.676975 
L 358.916944 -95.668163 
L 359.244298 -97.65935 
L 359.544146 -99.650538 
L 359.821852 -101.641725 
L 360.082847 -103.632913 
L 360.330707 -105.6241 
L 360.565321 -107.615288 
L 360.782446 -109.606475 
L 360.975172 -111.597662 
L 361.136794 -113.58885 
L 361.263816 -115.580037 
L 361.357817 -117.571225 
L 361.425452 -119.562412 
L 361.476653 -121.5536 
L 361.521798 -123.544787 
L 361.568929 -125.535975 
L 361.622032 -127.527162 
L 361.680933 -129.51835 
L 361.742661 -131.509537 
L 361.803561 -133.500725 
L 361.861198 -135.491912 
L 361.91534 -137.4831 
L 361.96775 -139.474287 
L 362.02104 -141.465475 
L 362.077127 -143.456662 
L 362.135904 -145.44785 
L 362.194673 -147.439037 
L 362.248606 -149.430225 
L 362.29216 -151.421412 
L 362.320985 -153.4126 
L 362.333626 -155.403787 
L 362.332346 -157.394975 
L 362.322716 -159.386162 
L 362.312082 -161.37735 
L 362.30749 -163.368537 
L 362.313836 -165.359725 
L 362.33289 -167.350912 
L 362.363417 -169.3421 
L 362.402121 -171.333287 
L 362.444849 -173.324475 
L 362.487543 -175.315662 
L 362.526761 -177.30685 
L 362.559901 -179.298037 
L 362.58536 -181.289224 
L 362.602682 -183.280412 
L 362.612589 -185.271599 
L 362.616731 -187.262787 
L 362.617174 -189.253974 
L 362.61583 -191.245162 
L 362.614072 -193.236349 
L 362.61265 -195.227537 
L 362.611841 -197.218724 
L 362.611707 -199.209912 
L 362.612301 -201.201099 
L 362.613789 -203.192287 
L 362.616455 -205.183474 
L 362.620626 -207.174662 
L 362.626538 -209.165849 
L 362.634206 -211.157037 
L 362.643349 -213.148224 
L 362.653407 -215.139412 
L 362.663661 -217.130599 
L 362.67344 -219.121787 
L 362.682318 -221.112974 
L 362.69022 -223.104162 
L 362.697342 -225.095349 
L 362.703917 -227.086537 
L 362.70995 -229.077724 
L 362.715101 -231.068912 
L 362.718831 -233.060099 
L 362.720749 -235.051287 
L 362.720961 -237.042474 
L 362.720198 -239.033662 
L 362.719619 -241.024849 
L 362.720376 -243.016037 
L 362.799624 -243.016037 
L 362.799624 -243.016037 
L 362.800381 -241.024849 
L 362.799802 -239.033662 
L 362.799039 -237.042474 
L 362.799251 -235.051287 
L 362.801169 -233.060099 
L 362.804899 -231.068912 
L 362.81005 -229.077724 
L 362.816083 -227.086537 
L 362.822658 -225.095349 
L 362.82978 -223.104162 
L 362.837682 -221.112974 
L 362.84656 -219.121787 
L 362.856339 -217.130599 
L 362.866593 -215.139412 
L 362.876651 -213.148224 
L 362.885794 -211.157037 
L 362.893462 -209.165849 
L 362.899374 -207.174662 
L 362.903545 -205.183474 
L 362.906211 -203.192287 
L 362.907699 -201.201099 
L 362.908293 -199.209912 
L 362.908159 -197.218724 
L 362.90735 -195.227537 
L 362.905928 -193.236349 
L 362.90417 -191.245162 
L 362.902826 -189.253974 
L 362.903269 -187.262787 
L 362.907411 -185.271599 
L 362.917318 -183.280412 
L 362.93464 -181.289224 
L 362.960099 -179.298037 
L 362.993239 -177.30685 
L 363.032457 -175.315662 
L 363.075151 -173.324475 
L 363.117879 -171.333287 
L 363.156583 -169.3421 
L 363.18711 -167.350912 
L 363.206164 -165.359725 
L 363.21251 -163.368537 
L 363.207918 -161.37735 
L 363.197284 -159.386162 
L 363.187654 -157.394975 
L 363.186374 -155.403787 
L 363.199015 -153.4126 
L 363.22784 -151.421412 
L 363.271394 -149.430225 
L 363.325327 -147.439037 
L 363.384096 -145.44785 
L 363.442873 -143.456662 
L 363.49896 -141.465475 
L 363.55225 -139.474287 
L 363.60466 -137.4831 
L 363.658802 -135.491912 
L 363.716439 -133.500725 
L 363.777339 -131.509537 
L 363.839067 -129.51835 
L 363.897968 -127.527162 
L 363.951071 -125.535975 
L 363.998202 -123.544787 
L 364.043347 -121.5536 
L 364.094548 -119.562412 
L 364.162183 -117.571225 
L 364.256184 -115.580037 
L 364.383206 -113.58885 
L 364.544828 -111.597662 
L 364.737554 -109.606475 
L 364.954679 -107.615288 
L 365.189293 -105.6241 
L 365.437153 -103.632913 
L 365.698148 -101.641725 
L 365.975854 -99.650538 
L 366.275702 -97.65935 
L 366.603056 -95.668163 
L 366.962483 -93.676975 
L 367.358549 -91.685788 
L 367.797286 -89.6946 
L 368.286646 -87.703413 
L 368.834555 -85.712225 
L 369.444637 -83.721038 
L 370.111496 -81.72985 
L 370.818498 -79.738663 
L 371.54022 -77.747475 
L 372.249426 -75.756288 
L 372.925792 -73.7651 
L 373.56241 -71.773913 
L 374.166972 -69.782725 
L 374.756885 -67.791538 
L 375.349745 -65.80035 
L 375.951631 -63.809163 
L 376.545776 -61.817975 
L 377.084115 -59.826788 
L 377.484883 -57.8356 
L 377.64 -55.844413 
L 377.434881 -53.853225 
L 376.779132 -51.862038 
L 375.640115 -49.87085 
L 374.066314 -47.879663 
L 372.188145 -45.888475 
z
" id="mb6bac137f9" style="stroke:#3d3d3d;stroke-width:1.5;"/>
    </defs>
    <g clip-path="url(#p2784a47e2c)">
     <use style="fill:#3a923a;stroke:#3d3d3d;stroke-width:1.5;" x="0" xlink:href="#mb6bac137f9" y="288"/>
    </g>
   </g>
   <g id="patch_3">
    <path clip-path="url(#p2784a47e2c)" d="M 109.8 242.130982 
L 109.8 242.130982 
L 109.8 242.130982 
L 109.8 242.130982 
z
" style="fill:#3274a1;stroke:#3d3d3d;stroke-linejoin:miter;stroke-width:0.75;"/>
   </g>
   <g id="patch_4">
    <path clip-path="url(#p2784a47e2c)" d="M 109.8 242.130982 
L 109.8 242.130982 
L 109.8 242.130982 
L 109.8 242.130982 
z
" style="fill:#e1812c;stroke:#3d3d3d;stroke-linejoin:miter;stroke-width:0.75;"/>
   </g>
   <g id="patch_5">
    <path clip-path="url(#p2784a47e2c)" d="M 109.8 242.130982 
L 109.8 242.130982 
L 109.8 242.130982 
L 109.8 242.130982 
z
" style="fill:#3a923a;stroke:#3d3d3d;stroke-linejoin:miter;stroke-width:0.75;"/>
   </g>
   <g id="matplotlib.axis_1">
    <g id="xtick_1">
     <g id="line2d_1">
      <defs>
       <path d="M 0 0 
L 0 3.5 
" id="mf80401d9de" style="stroke:#000000;stroke-width:0.8;"/>
      </defs>
      <g>
       <use style="stroke:#000000;stroke-width:0.8;" x="109.8" xlink:href="#mf80401d9de" y="252"/>
      </g>
     </g>
     <g id="text_1">
      <!-- train -->
      <g transform="translate(98.1625 266.598437)scale(0.1 -0.1)">
       <defs>
        <path d="M 18.3125 70.21875 
L 18.3125 54.6875 
L 36.8125 54.6875 
L 36.8125 47.703125 
L 18.3125 47.703125 
L 18.3125 18.015625 
Q 18.3125 11.328125 20.140625 9.421875 
Q 21.96875 7.515625 27.59375 7.515625 
L 36.8125 7.515625 
L 36.8125 0 
L 27.59375 0 
Q 17.1875 0 13.234375 3.875 
Q 9.28125 7.765625 9.28125 18.015625 
L 9.28125 47.703125 
L 2.6875 47.703125 
L 2.6875 54.6875 
L 9.28125 54.6875 
L 9.28125 70.21875 
z
" id="DejaVuSans-116"/>
        <path d="M 41.109375 46.296875 
Q 39.59375 47.171875 37.8125 47.578125 
Q 36.03125 48 33.890625 48 
Q 26.265625 48 22.1875 43.046875 
Q 18.109375 38.09375 18.109375 28.8125 
L 18.109375 0 
L 9.078125 0 
L 9.078125 54.6875 
L 18.109375 54.6875 
L 18.109375 46.1875 
Q 20.953125 51.171875 25.484375 53.578125 
Q 30.03125 56 36.53125 56 
Q 37.453125 56 38.578125 55.875 
Q 39.703125 55.765625 41.0625 55.515625 
z
" id="DejaVuSans-114"/>
        <path d="M 34.28125 27.484375 
Q 23.390625 27.484375 19.1875 25 
Q 14.984375 22.515625 14.984375 16.5 
Q 14.984375 11.71875 18.140625 8.90625 
Q 21.296875 6.109375 26.703125 6.109375 
Q 34.1875 6.109375 38.703125 11.40625 
Q 43.21875 16.703125 43.21875 25.484375 
L 43.21875 27.484375 
z
M 52.203125 31.203125 
L 52.203125 0 
L 43.21875 0 
L 43.21875 8.296875 
Q 40.140625 3.328125 35.546875 0.953125 
Q 30.953125 -1.421875 24.3125 -1.421875 
Q 15.921875 -1.421875 10.953125 3.296875 
Q 6 8.015625 6 15.921875 
Q 6 25.140625 12.171875 29.828125 
Q 18.359375 34.515625 30.609375 34.515625 
L 43.21875 34.515625 
L 43.21875 35.40625 
Q 43.21875 41.609375 39.140625 45 
Q 35.0625 48.390625 27.6875 48.390625 
Q 23 48.390625 18.546875 47.265625 
Q 14.109375 46.140625 10.015625 43.890625 
L 10.015625 52.203125 
Q 14.9375 54.109375 19.578125 55.046875 
Q 24.21875 56 28.609375 56 
Q 40.484375 56 46.34375 49.84375 
Q 52.203125 43.703125 52.203125 31.203125 
z
" id="DejaVuSans-97"/>
        <path d="M 9.421875 54.6875 
L 18.40625 54.6875 
L 18.40625 0 
L 9.421875 0 
z
M 9.421875 75.984375 
L 18.40625 75.984375 
L 18.40625 64.59375 
L 9.421875 64.59375 
z
" id="DejaVuSans-105"/>
        <path d="M 54.890625 33.015625 
L 54.890625 0 
L 45.90625 0 
L 45.90625 32.71875 
Q 45.90625 40.484375 42.875 44.328125 
Q 39.84375 48.1875 33.796875 48.1875 
Q 26.515625 48.1875 22.3125 43.546875 
Q 18.109375 38.921875 18.109375 30.90625 
L 18.109375 0 
L 9.078125 0 
L 9.078125 54.6875 
L 18.109375 54.6875 
L 18.109375 46.1875 
Q 21.34375 51.125 25.703125 53.5625 
Q 30.078125 56 35.796875 56 
Q 45.21875 56 50.046875 50.171875 
Q 54.890625 44.34375 54.890625 33.015625 
z
" id="DejaVuSans-110"/>
       </defs>
       <use xlink:href="#DejaVuSans-116"/>
       <use x="39.208984" xlink:href="#DejaVuSans-114"/>
       <use x="80.322266" xlink:href="#DejaVuSans-97"/>
       <use x="141.601562" xlink:href="#DejaVuSans-105"/>
       <use x="169.384766" xlink:href="#DejaVuSans-110"/>
      </g>
     </g>
    </g>
    <g id="xtick_2">
     <g id="line2d_2">
      <g>
       <use style="stroke:#000000;stroke-width:0.8;" x="221.4" xlink:href="#mf80401d9de" y="252"/>
      </g>
     </g>
     <g id="text_2">
      <!-- val -->
      <g transform="translate(213.9875 266.598437)scale(0.1 -0.1)">
       <defs>
        <path d="M 2.984375 54.6875 
L 12.5 54.6875 
L 29.59375 8.796875 
L 46.6875 54.6875 
L 56.203125 54.6875 
L 35.6875 0 
L 23.484375 0 
z
" id="DejaVuSans-118"/>
        <path d="M 9.421875 75.984375 
L 18.40625 75.984375 
L 18.40625 0 
L 9.421875 0 
z
" id="DejaVuSans-108"/>
       </defs>
       <use xlink:href="#DejaVuSans-118"/>
       <use x="59.179688" xlink:href="#DejaVuSans-97"/>
       <use x="120.458984" xlink:href="#DejaVuSans-108"/>
      </g>
     </g>
    </g>
    <g id="xtick_3">
     <g id="line2d_3">
      <g>
       <use style="stroke:#000000;stroke-width:0.8;" x="333" xlink:href="#mf80401d9de" y="252"/>
      </g>
     </g>
     <g id="text_3">
      <!-- test -->
      <g transform="translate(323.398438 266.598437)scale(0.1 -0.1)">
       <defs>
        <path d="M 56.203125 29.59375 
L 56.203125 25.203125 
L 14.890625 25.203125 
Q 15.484375 15.921875 20.484375 11.0625 
Q 25.484375 6.203125 34.421875 6.203125 
Q 39.59375 6.203125 44.453125 7.46875 
Q 49.3125 8.734375 54.109375 11.28125 
L 54.109375 2.78125 
Q 49.265625 0.734375 44.1875 -0.34375 
Q 39.109375 -1.421875 33.890625 -1.421875 
Q 20.796875 -1.421875 13.15625 6.1875 
Q 5.515625 13.8125 5.515625 26.8125 
Q 5.515625 40.234375 12.765625 48.109375 
Q 20.015625 56 32.328125 56 
Q 43.359375 56 49.78125 48.890625 
Q 56.203125 41.796875 56.203125 29.59375 
z
M 47.21875 32.234375 
Q 47.125 39.59375 43.09375 43.984375 
Q 39.0625 48.390625 32.421875 48.390625 
Q 24.90625 48.390625 20.390625 44.140625 
Q 15.875 39.890625 15.1875 32.171875 
z
" id="DejaVuSans-101"/>
        <path d="M 44.28125 53.078125 
L 44.28125 44.578125 
Q 40.484375 46.53125 36.375 47.5 
Q 32.28125 48.484375 27.875 48.484375 
Q 21.1875 48.484375 17.84375 46.4375 
Q 14.5 44.390625 14.5 40.28125 
Q 14.5 37.15625 16.890625 35.375 
Q 19.28125 33.59375 26.515625 31.984375 
L 29.59375 31.296875 
Q 39.15625 29.25 43.1875 25.515625 
Q 47.21875 21.78125 47.21875 15.09375 
Q 47.21875 7.46875 41.1875 3.015625 
Q 35.15625 -1.421875 24.609375 -1.421875 
Q 20.21875 -1.421875 15.453125 -0.5625 
Q 10.6875 0.296875 5.421875 2 
L 5.421875 11.28125 
Q 10.40625 8.6875 15.234375 7.390625 
Q 20.0625 6.109375 24.8125 6.109375 
Q 31.15625 6.109375 34.5625 8.28125 
Q 37.984375 10.453125 37.984375 14.40625 
Q 37.984375 18.0625 35.515625 20.015625 
Q 33.0625 21.96875 24.703125 23.78125 
L 21.578125 24.515625 
Q 13.234375 26.265625 9.515625 29.90625 
Q 5.8125 33.546875 5.8125 39.890625 
Q 5.8125 47.609375 11.28125 51.796875 
Q 16.75 56 26.8125 56 
Q 31.78125 56 36.171875 55.265625 
Q 40.578125 54.546875 44.28125 53.078125 
z
" id="DejaVuSans-115"/>
       </defs>
       <use xlink:href="#DejaVuSans-116"/>
       <use x="39.208984" xlink:href="#DejaVuSans-101"/>
       <use x="100.732422" xlink:href="#DejaVuSans-115"/>
       <use x="152.832031" xlink:href="#DejaVuSans-116"/>
      </g>
     </g>
    </g>
    <g id="text_4">
     <!-- set -->
     <g transform="translate(213.758594 280.276563)scale(0.1 -0.1)">
      <use xlink:href="#DejaVuSans-115"/>
      <use x="52.099609" xlink:href="#DejaVuSans-101"/>
      <use x="113.623047" xlink:href="#DejaVuSans-116"/>
     </g>
    </g>
   </g>
   <g id="matplotlib.axis_2">
    <g id="ytick_1">
     <g id="line2d_4">
      <defs>
       <path d="M 0 0 
L -3.5 0 
" id="m112b80d573" style="stroke:#000000;stroke-width:0.8;"/>
      </defs>
      <g>
       <use style="stroke:#000000;stroke-width:0.8;" x="54" xlink:href="#m112b80d573" y="242.130982"/>
      </g>
     </g>
     <g id="text_5">
      <!-- 0.00 -->
      <g transform="translate(24.734375 245.930201)scale(0.1 -0.1)">
       <defs>
        <path d="M 31.78125 66.40625 
Q 24.171875 66.40625 20.328125 58.90625 
Q 16.5 51.421875 16.5 36.375 
Q 16.5 21.390625 20.328125 13.890625 
Q 24.171875 6.390625 31.78125 6.390625 
Q 39.453125 6.390625 43.28125 13.890625 
Q 47.125 21.390625 47.125 36.375 
Q 47.125 51.421875 43.28125 58.90625 
Q 39.453125 66.40625 31.78125 66.40625 
z
M 31.78125 74.21875 
Q 44.046875 74.21875 50.515625 64.515625 
Q 56.984375 54.828125 56.984375 36.375 
Q 56.984375 17.96875 50.515625 8.265625 
Q 44.046875 -1.421875 31.78125 -1.421875 
Q 19.53125 -1.421875 13.0625 8.265625 
Q 6.59375 17.96875 6.59375 36.375 
Q 6.59375 54.828125 13.0625 64.515625 
Q 19.53125 74.21875 31.78125 74.21875 
z
" id="DejaVuSans-48"/>
        <path d="M 10.6875 12.40625 
L 21 12.40625 
L 21 0 
L 10.6875 0 
z
" id="DejaVuSans-46"/>
       </defs>
       <use xlink:href="#DejaVuSans-48"/>
       <use x="63.623047" xlink:href="#DejaVuSans-46"/>
       <use x="95.410156" xlink:href="#DejaVuSans-48"/>
       <use x="159.033203" xlink:href="#DejaVuSans-48"/>
      </g>
     </g>
    </g>
    <g id="ytick_2">
     <g id="line2d_5">
      <g>
       <use style="stroke:#000000;stroke-width:0.8;" x="54" xlink:href="#m112b80d573" y="204.169575"/>
      </g>
     </g>
     <g id="text_6">
      <!-- 0.02 -->
      <g transform="translate(24.734375 207.968794)scale(0.1 -0.1)">
       <defs>
        <path d="M 19.1875 8.296875 
L 53.609375 8.296875 
L 53.609375 0 
L 7.328125 0 
L 7.328125 8.296875 
Q 12.9375 14.109375 22.625 23.890625 
Q 32.328125 33.6875 34.8125 36.53125 
Q 39.546875 41.84375 41.421875 45.53125 
Q 43.3125 49.21875 43.3125 52.78125 
Q 43.3125 58.59375 39.234375 62.25 
Q 35.15625 65.921875 28.609375 65.921875 
Q 23.96875 65.921875 18.8125 64.3125 
Q 13.671875 62.703125 7.8125 59.421875 
L 7.8125 69.390625 
Q 13.765625 71.78125 18.9375 73 
Q 24.125 74.21875 28.421875 74.21875 
Q 39.75 74.21875 46.484375 68.546875 
Q 53.21875 62.890625 53.21875 53.421875 
Q 53.21875 48.921875 51.53125 44.890625 
Q 49.859375 40.875 45.40625 35.40625 
Q 44.1875 33.984375 37.640625 27.21875 
Q 31.109375 20.453125 19.1875 8.296875 
z
" id="DejaVuSans-50"/>
       </defs>
       <use xlink:href="#DejaVuSans-48"/>
       <use x="63.623047" xlink:href="#DejaVuSans-46"/>
       <use x="95.410156" xlink:href="#DejaVuSans-48"/>
       <use x="159.033203" xlink:href="#DejaVuSans-50"/>
      </g>
     </g>
    </g>
    <g id="ytick_3">
     <g id="line2d_6">
      <g>
       <use style="stroke:#000000;stroke-width:0.8;" x="54" xlink:href="#m112b80d573" y="166.208168"/>
      </g>
     </g>
     <g id="text_7">
      <!-- 0.04 -->
      <g transform="translate(24.734375 170.007387)scale(0.1 -0.1)">
       <defs>
        <path d="M 37.796875 64.3125 
L 12.890625 25.390625 
L 37.796875 25.390625 
z
M 35.203125 72.90625 
L 47.609375 72.90625 
L 47.609375 25.390625 
L 58.015625 25.390625 
L 58.015625 17.1875 
L 47.609375 17.1875 
L 47.609375 0 
L 37.796875 0 
L 37.796875 17.1875 
L 4.890625 17.1875 
L 4.890625 26.703125 
z
" id="DejaVuSans-52"/>
       </defs>
       <use xlink:href="#DejaVuSans-48"/>
       <use x="63.623047" xlink:href="#DejaVuSans-46"/>
       <use x="95.410156" xlink:href="#DejaVuSans-48"/>
       <use x="159.033203" xlink:href="#DejaVuSans-52"/>
      </g>
     </g>
    </g>
    <g id="ytick_4">
     <g id="line2d_7">
      <g>
       <use style="stroke:#000000;stroke-width:0.8;" x="54" xlink:href="#m112b80d573" y="128.246761"/>
      </g>
     </g>
     <g id="text_8">
      <!-- 0.06 -->
      <g transform="translate(24.734375 132.04598)scale(0.1 -0.1)">
       <defs>
        <path d="M 33.015625 40.375 
Q 26.375 40.375 22.484375 35.828125 
Q 18.609375 31.296875 18.609375 23.390625 
Q 18.609375 15.53125 22.484375 10.953125 
Q 26.375 6.390625 33.015625 6.390625 
Q 39.65625 6.390625 43.53125 10.953125 
Q 47.40625 15.53125 47.40625 23.390625 
Q 47.40625 31.296875 43.53125 35.828125 
Q 39.65625 40.375 33.015625 40.375 
z
M 52.59375 71.296875 
L 52.59375 62.3125 
Q 48.875 64.0625 45.09375 64.984375 
Q 41.3125 65.921875 37.59375 65.921875 
Q 27.828125 65.921875 22.671875 59.328125 
Q 17.53125 52.734375 16.796875 39.40625 
Q 19.671875 43.65625 24.015625 45.921875 
Q 28.375 48.1875 33.59375 48.1875 
Q 44.578125 48.1875 50.953125 41.515625 
Q 57.328125 34.859375 57.328125 23.390625 
Q 57.328125 12.15625 50.6875 5.359375 
Q 44.046875 -1.421875 33.015625 -1.421875 
Q 20.359375 -1.421875 13.671875 8.265625 
Q 6.984375 17.96875 6.984375 36.375 
Q 6.984375 53.65625 15.1875 63.9375 
Q 23.390625 74.21875 37.203125 74.21875 
Q 40.921875 74.21875 44.703125 73.484375 
Q 48.484375 72.75 52.59375 71.296875 
z
" id="DejaVuSans-54"/>
       </defs>
       <use xlink:href="#DejaVuSans-48"/>
       <use x="63.623047" xlink:href="#DejaVuSans-46"/>
       <use x="95.410156" xlink:href="#DejaVuSans-48"/>
       <use x="159.033203" xlink:href="#DejaVuSans-54"/>
      </g>
     </g>
    </g>
    <g id="ytick_5">
     <g id="line2d_8">
      <g>
       <use style="stroke:#000000;stroke-width:0.8;" x="54" xlink:href="#m112b80d573" y="90.285354"/>
      </g>
     </g>
     <g id="text_9">
      <!-- 0.08 -->
      <g transform="translate(24.734375 94.084572)scale(0.1 -0.1)">
       <defs>
        <path d="M 31.78125 34.625 
Q 24.75 34.625 20.71875 30.859375 
Q 16.703125 27.09375 16.703125 20.515625 
Q 16.703125 13.921875 20.71875 10.15625 
Q 24.75 6.390625 31.78125 6.390625 
Q 38.8125 6.390625 42.859375 10.171875 
Q 46.921875 13.96875 46.921875 20.515625 
Q 46.921875 27.09375 42.890625 30.859375 
Q 38.875 34.625 31.78125 34.625 
z
M 21.921875 38.8125 
Q 15.578125 40.375 12.03125 44.71875 
Q 8.5 49.078125 8.5 55.328125 
Q 8.5 64.0625 14.71875 69.140625 
Q 20.953125 74.21875 31.78125 74.21875 
Q 42.671875 74.21875 48.875 69.140625 
Q 55.078125 64.0625 55.078125 55.328125 
Q 55.078125 49.078125 51.53125 44.71875 
Q 48 40.375 41.703125 38.8125 
Q 48.828125 37.15625 52.796875 32.3125 
Q 56.78125 27.484375 56.78125 20.515625 
Q 56.78125 9.90625 50.3125 4.234375 
Q 43.84375 -1.421875 31.78125 -1.421875 
Q 19.734375 -1.421875 13.25 4.234375 
Q 6.78125 9.90625 6.78125 20.515625 
Q 6.78125 27.484375 10.78125 32.3125 
Q 14.796875 37.15625 21.921875 38.8125 
z
M 18.3125 54.390625 
Q 18.3125 48.734375 21.84375 45.5625 
Q 25.390625 42.390625 31.78125 42.390625 
Q 38.140625 42.390625 41.71875 45.5625 
Q 45.3125 48.734375 45.3125 54.390625 
Q 45.3125 60.0625 41.71875 63.234375 
Q 38.140625 66.40625 31.78125 66.40625 
Q 25.390625 66.40625 21.84375 63.234375 
Q 18.3125 60.0625 18.3125 54.390625 
z
" id="DejaVuSans-56"/>
       </defs>
       <use xlink:href="#DejaVuSans-48"/>
       <use x="63.623047" xlink:href="#DejaVuSans-46"/>
       <use x="95.410156" xlink:href="#DejaVuSans-48"/>
       <use x="159.033203" xlink:href="#DejaVuSans-56"/>
      </g>
     </g>
    </g>
    <g id="ytick_6">
     <g id="line2d_9">
      <g>
       <use style="stroke:#000000;stroke-width:0.8;" x="54" xlink:href="#m112b80d573" y="52.323946"/>
      </g>
     </g>
     <g id="text_10">
      <!-- 0.10 -->
      <g transform="translate(24.734375 56.123165)scale(0.1 -0.1)">
       <defs>
        <path d="M 12.40625 8.296875 
L 28.515625 8.296875 
L 28.515625 63.921875 
L 10.984375 60.40625 
L 10.984375 69.390625 
L 28.421875 72.90625 
L 38.28125 72.90625 
L 38.28125 8.296875 
L 54.390625 8.296875 
L 54.390625 0 
L 12.40625 0 
z
" id="DejaVuSans-49"/>
       </defs>
       <use xlink:href="#DejaVuSans-48"/>
       <use x="63.623047" xlink:href="#DejaVuSans-46"/>
       <use x="95.410156" xlink:href="#DejaVuSans-49"/>
       <use x="159.033203" xlink:href="#DejaVuSans-48"/>
      </g>
     </g>
    </g>
    <g id="text_11">
     <!-- value -->
     <g transform="translate(18.654688 156.937813)rotate(-90)scale(0.1 -0.1)">
      <defs>
       <path d="M 8.5 21.578125 
L 8.5 54.6875 
L 17.484375 54.6875 
L 17.484375 21.921875 
Q 17.484375 14.15625 20.5 10.265625 
Q 23.53125 6.390625 29.59375 6.390625 
Q 36.859375 6.390625 41.078125 11.03125 
Q 45.3125 15.671875 45.3125 23.6875 
L 45.3125 54.6875 
L 54.296875 54.6875 
L 54.296875 0 
L 45.3125 0 
L 45.3125 8.40625 
Q 42.046875 3.421875 37.71875 1 
Q 33.40625 -1.421875 27.6875 -1.421875 
Q 18.265625 -1.421875 13.375 4.4375 
Q 8.5 10.296875 8.5 21.578125 
z
M 31.109375 56 
z
" id="DejaVuSans-117"/>
      </defs>
      <use xlink:href="#DejaVuSans-118"/>
      <use x="59.179688" xlink:href="#DejaVuSans-97"/>
      <use x="120.458984" xlink:href="#DejaVuSans-108"/>
      <use x="148.242188" xlink:href="#DejaVuSans-117"/>
      <use x="211.621094" xlink:href="#DejaVuSans-101"/>
     </g>
    </g>
   </g>
   <g id="line2d_10">
    <path clip-path="url(#p2784a47e2c)" d="M 80.04 242.116364 
L 80.04 167.877113 
" style="fill:none;stroke:#3d3d3d;stroke-linecap:square;stroke-width:1.5;"/>
   </g>
   <g id="line2d_11">
    <path clip-path="url(#p2784a47e2c)" d="M 80.04 233.199063 
L 80.04 207.060857 
" style="fill:none;stroke:#3d3d3d;stroke-linecap:square;stroke-width:4.5;"/>
   </g>
   <g id="line2d_12">
    <path clip-path="url(#p2784a47e2c)" d="M 221.4 242.103153 
L 221.4 168.579129 
" style="fill:none;stroke:#3d3d3d;stroke-linecap:square;stroke-width:1.5;"/>
   </g>
   <g id="line2d_13">
    <path clip-path="url(#p2784a47e2c)" d="M 221.4 233.261134 
L 221.4 207.211718 
" style="fill:none;stroke:#3d3d3d;stroke-linecap:square;stroke-width:4.5;"/>
   </g>
   <g id="line2d_14">
    <path clip-path="url(#p2784a47e2c)" d="M 362.76 242.111525 
L 362.76 165.263736 
" style="fill:none;stroke:#3d3d3d;stroke-linecap:square;stroke-width:1.5;"/>
   </g>
   <g id="line2d_15">
    <path clip-path="url(#p2784a47e2c)" d="M 362.76 233.839913 
L 362.76 206.192584 
" style="fill:none;stroke:#3d3d3d;stroke-linecap:square;stroke-width:4.5;"/>
   </g>
   <g id="patch_6">
    <path d="M 54 252 
L 54 34.56 
" style="fill:none;stroke:#000000;stroke-linecap:square;stroke-linejoin:miter;stroke-width:0.8;"/>
   </g>
   <g id="patch_7">
    <path d="M 388.8 252 
L 388.8 34.56 
" style="fill:none;stroke:#000000;stroke-linecap:square;stroke-linejoin:miter;stroke-width:0.8;"/>
   </g>
   <g id="patch_8">
    <path d="M 54 252 
L 388.8 252 
" style="fill:none;stroke:#000000;stroke-linecap:square;stroke-linejoin:miter;stroke-width:0.8;"/>
   </g>
   <g id="patch_9">
    <path d="M 54 34.56 
L 388.8 34.56 
" style="fill:none;stroke:#000000;stroke-linecap:square;stroke-linejoin:miter;stroke-width:0.8;"/>
   </g>
   <g id="PathCollection_1">
    <defs>
     <path d="M 0 1.5 
C 0.397805 1.5 0.77937 1.341951 1.06066 1.06066 
C 1.341951 0.77937 1.5 0.397805 1.5 0 
C 1.5 -0.397805 1.341951 -0.77937 1.06066 -1.06066 
C 0.77937 -1.341951 0.397805 -1.5 0 -1.5 
C -0.397805 -1.5 -0.77937 -1.341951 -1.06066 -1.06066 
C -1.341951 -0.77937 -1.5 -0.397805 -1.5 0 
C -1.5 0.397805 -1.341951 0.77937 -1.06066 1.06066 
C -0.77937 1.341951 -0.397805 1.5 0 1.5 
z
" id="m32e3678ff7" style="stroke:#3d3d3d;"/>
    </defs>
    <g clip-path="url(#p2784a47e2c)">
     <use style="fill:#ffffff;stroke:#3d3d3d;" x="80.04" xlink:href="#m32e3678ff7" y="223.231196"/>
    </g>
   </g>
   <g id="PathCollection_2">
    <g clip-path="url(#p2784a47e2c)">
     <use style="fill:#ffffff;stroke:#3d3d3d;" x="221.4" xlink:href="#m32e3678ff7" y="224.106883"/>
    </g>
   </g>
   <g id="PathCollection_3">
    <g clip-path="url(#p2784a47e2c)">
     <use style="fill:#ffffff;stroke:#3d3d3d;" x="362.76" xlink:href="#m32e3678ff7" y="221.839814"/>
    </g>
   </g>
   <g id="legend_1">
    <g id="patch_10">
     <path d="M 326.525 101.2725 
L 381.8 101.2725 
Q 383.8 101.2725 383.8 99.2725 
L 383.8 41.56 
Q 383.8 39.56 381.8 39.56 
L 326.525 39.56 
Q 324.525 39.56 324.525 41.56 
L 324.525 99.2725 
Q 324.525 101.2725 326.525 101.2725 
z
" style="fill:#ffffff;opacity:0.8;stroke:#cccccc;stroke-linejoin:miter;"/>
    </g>
    <g id="text_12">
     <!-- set -->
     <g transform="translate(346.521094 51.158437)scale(0.1 -0.1)">
      <use xlink:href="#DejaVuSans-115"/>
      <use x="52.099609" xlink:href="#DejaVuSans-101"/>
      <use x="113.623047" xlink:href="#DejaVuSans-116"/>
     </g>
    </g>
    <g id="patch_11">
     <path d="M 328.525 65.836562 
L 348.525 65.836562 
L 348.525 58.836562 
L 328.525 58.836562 
z
" style="fill:#3274a1;stroke:#3d3d3d;stroke-linejoin:miter;stroke-width:0.75;"/>
    </g>
    <g id="text_13">
     <!-- train -->
     <g transform="translate(356.525 65.836562)scale(0.1 -0.1)">
      <use xlink:href="#DejaVuSans-116"/>
      <use x="39.208984" xlink:href="#DejaVuSans-114"/>
      <use x="80.322266" xlink:href="#DejaVuSans-97"/>
      <use x="141.601562" xlink:href="#DejaVuSans-105"/>
      <use x="169.384766" xlink:href="#DejaVuSans-110"/>
     </g>
    </g>
    <g id="patch_12">
     <path d="M 328.525 80.514687 
L 348.525 80.514687 
L 348.525 73.514687 
L 328.525 73.514687 
z
" style="fill:#e1812c;stroke:#3d3d3d;stroke-linejoin:miter;stroke-width:0.75;"/>
    </g>
    <g id="text_14">
     <!-- val -->
     <g transform="translate(356.525 80.514687)scale(0.1 -0.1)">
      <use xlink:href="#DejaVuSans-118"/>
      <use x="59.179688" xlink:href="#DejaVuSans-97"/>
      <use x="120.458984" xlink:href="#DejaVuSans-108"/>
     </g>
    </g>
    <g id="patch_13">
     <path d="M 328.525 95.192813 
L 348.525 95.192813 
L 348.525 88.192813 
L 328.525 88.192813 
z
" style="fill:#3a923a;stroke:#3d3d3d;stroke-linejoin:miter;stroke-width:0.75;"/>
    </g>
    <g id="text_15">
     <!-- test -->
     <g transform="translate(356.525 95.192813)scale(0.1 -0.1)">
      <use xlink:href="#DejaVuSans-116"/>
      <use x="39.208984" xlink:href="#DejaVuSans-101"/>
      <use x="100.732422" xlink:href="#DejaVuSans-115"/>
      <use x="152.832031" xlink:href="#DejaVuSans-116"/>
     </g>
    </g>
   </g>
  </g>
 </g>
 <defs>
  <clipPath id="p2784a47e2c">
   <rect height="217.44" width="334.8" x="54" y="34.56"/>
  </clipPath>
 </defs>
</svg>
