<?xml version="1.0" encoding="utf-8" standalone="no"?>
<!DOCTYPE svg PUBLIC "-//W3C//DTD SVG 1.1//EN"
  "http://www.w3.org/Graphics/SVG/1.1/DTD/svg11.dtd">
<!-- Created with matplotlib (https://matplotlib.org/) -->
<svg height="288pt" version="1.1" viewBox="0 0 432 288" width="432pt" xmlns="http://www.w3.org/2000/svg" xmlns:xlink="http://www.w3.org/1999/xlink">
 <metadata>
  <rdf:RDF xmlns:cc="http://creativecommons.org/ns#" xmlns:dc="http://purl.org/dc/elements/1.1/" xmlns:rdf="http://www.w3.org/1999/02/22-rdf-syntax-ns#">
   <cc:Work>
    <dc:type rdf:resource="http://purl.org/dc/dcmitype/StillImage"/>
    <dc:date>2022-05-02T16:48:13.255553</dc:date>
    <dc:format>image/svg+xml</dc:format>
    <dc:creator>
     <cc:Agent>
      <dc:title>Matplotlib v3.3.4, https://matplotlib.org/</dc:title>
     </cc:Agent>
    </dc:creator>
   </cc:Work>
  </rdf:RDF>
 </metadata>
 <defs>
  <style type="text/css">*{stroke-linecap:butt;stroke-linejoin:round;}</style>
 </defs>
 <g id="figure_1">
  <g id="patch_1">
   <path d="M 0 288 
L 432 288 
L 432 0 
L 0 0 
z
" style="fill:#ffffff;"/>
  </g>
  <g id="axes_1">
   <g id="patch_2">
    <path d="M 54 252 
L 388.8 252 
L 388.8 34.56 
L 54 34.56 
z
" style="fill:#ffffff;"/>
   </g>
   <g id="PolyCollection_1">
    <defs>
     <path d="M 104.28408 -45.883636 
L 104.15592 -45.883636 
L 104.134944 -47.827044 
L 104.1066 -49.770452 
L 104.069854 -51.713859 
L 104.026628 -53.657267 
L 103.981894 -55.600675 
L 103.941991 -57.544082 
L 103.912125 -59.48749 
L 103.894387 -61.430897 
L 103.886932 -63.374305 
L 103.884083 -65.317713 
L 103.877067 -67.26112 
L 103.855608 -69.204528 
L 103.810615 -71.147936 
L 103.737457 -73.091343 
L 103.638515 -75.034751 
L 103.523797 -76.978159 
L 103.40936 -78.921566 
L 103.313974 -80.864974 
L 103.254507 -82.808381 
L 103.240632 -84.751789 
L 103.270475 -86.695197 
L 103.329878 -88.638604 
L 103.397008 -90.582012 
L 103.450825 -92.52542 
L 103.478869 -94.468827 
L 103.479882 -96.412235 
L 103.460398 -98.355643 
L 103.42854 -100.29905 
L 103.38971 -102.242458 
L 103.346549 -104.185866 
L 103.301655 -106.129273 
L 103.259489 -108.072681 
L 103.225253 -110.016088 
L 103.201772 -111.959496 
L 103.18731 -113.902904 
L 103.176128 -115.846311 
L 103.160995 -117.789719 
L 103.135644 -119.733127 
L 103.09597 -121.676534 
L 103.04023 -123.619942 
L 102.96888 -125.56335 
L 102.884198 -127.506757 
L 102.789351 -129.450165 
L 102.686668 -131.393572 
L 102.575536 -133.33698 
L 102.451083 -135.280388 
L 102.304919 -137.223795 
L 102.128098 -139.167203 
L 101.914877 -141.110611 
L 101.665234 -143.054018 
L 101.384775 -144.997426 
L 101.081729 -146.940834 
L 100.761765 -148.884241 
L 100.422809 -150.827649 
L 100.053642 -152.771056 
L 99.639125 -154.714464 
L 99.170266 -156.657872 
L 98.652414 -158.601279 
L 98.1049 -160.544687 
L 97.551197 -162.488095 
L 97.005028 -164.431502 
L 96.45993 -166.37491 
L 95.88743 -168.318318 
L 95.245062 -170.261725 
L 94.491651 -172.205133 
L 93.603811 -174.14854 
L 92.585488 -176.091948 
L 91.464209 -178.035356 
L 90.274725 -179.978763 
L 89.039633 -181.922171 
L 87.759858 -183.865579 
L 86.421207 -185.808986 
L 85.010887 -187.752394 
L 83.530883 -189.695802 
L 81.999519 -191.639209 
L 80.443739 -193.582617 
L 78.89117 -195.526024 
L 77.367567 -197.469432 
L 75.897724 -199.41284 
L 74.506706 -201.356247 
L 73.224688 -203.299655 
L 72.101564 -205.243063 
L 71.227456 -207.18647 
L 70.74 -209.129878 
L 70.798834 -211.073286 
L 71.530233 -213.016693 
L 72.972592 -214.960101 
L 75.058415 -216.903509 
L 77.642999 -218.846916 
L 80.556331 -220.790324 
L 83.642998 -222.733731 
L 86.772821 -224.677139 
L 89.831937 -226.620547 
L 92.715098 -228.563954 
L 95.329714 -230.507362 
L 97.606504 -232.45077 
L 99.506584 -234.394177 
L 101.021202 -236.337585 
L 102.167564 -238.280993 
L 106.272436 -238.280993 
L 106.272436 -238.280993 
L 107.418798 -236.337585 
L 108.933416 -234.394177 
L 110.833496 -232.45077 
L 113.110286 -230.507362 
L 115.724902 -228.563954 
L 118.608063 -226.620547 
L 121.667179 -224.677139 
L 124.797002 -222.733731 
L 127.883669 -220.790324 
L 130.797001 -218.846916 
L 133.381585 -216.903509 
L 135.467408 -214.960101 
L 136.909767 -213.016693 
L 137.641166 -211.073286 
L 137.7 -209.129878 
L 137.212544 -207.18647 
L 136.338436 -205.243063 
L 135.215312 -203.299655 
L 133.933294 -201.356247 
L 132.542276 -199.41284 
L 131.072433 -197.469432 
L 129.54883 -195.526024 
L 127.996261 -193.582617 
L 126.440481 -191.639209 
L 124.909117 -189.695802 
L 123.429113 -187.752394 
L 122.018793 -185.808986 
L 120.680142 -183.865579 
L 119.400367 -181.922171 
L 118.165275 -179.978763 
L 116.975791 -178.035356 
L 115.854512 -176.091948 
L 114.836189 -174.14854 
L 113.948349 -172.205133 
L 113.194938 -170.261725 
L 112.55257 -168.318318 
L 111.98007 -166.37491 
L 111.434972 -164.431502 
L 110.888803 -162.488095 
L 110.3351 -160.544687 
L 109.787586 -158.601279 
L 109.269734 -156.657872 
L 108.800875 -154.714464 
L 108.386358 -152.771056 
L 108.017191 -150.827649 
L 107.678235 -148.884241 
L 107.358271 -146.940834 
L 107.055225 -144.997426 
L 106.774766 -143.054018 
L 106.525123 -141.110611 
L 106.311902 -139.167203 
L 106.135081 -137.223795 
L 105.988917 -135.280388 
L 105.864464 -133.33698 
L 105.753332 -131.393572 
L 105.650649 -129.450165 
L 105.555802 -127.506757 
L 105.47112 -125.56335 
L 105.39977 -123.619942 
L 105.34403 -121.676534 
L 105.304356 -119.733127 
L 105.279005 -117.789719 
L 105.263872 -115.846311 
L 105.25269 -113.902904 
L 105.238228 -111.959496 
L 105.214747 -110.016088 
L 105.180511 -108.072681 
L 105.138345 -106.129273 
L 105.093451 -104.185866 
L 105.05029 -102.242458 
L 105.01146 -100.29905 
L 104.979602 -98.355643 
L 104.960118 -96.412235 
L 104.961131 -94.468827 
L 104.989175 -92.52542 
L 105.042992 -90.582012 
L 105.110122 -88.638604 
L 105.169525 -86.695197 
L 105.199368 -84.751789 
L 105.185493 -82.808381 
L 105.126026 -80.864974 
L 105.03064 -78.921566 
L 104.916203 -76.978159 
L 104.801485 -75.034751 
L 104.702543 -73.091343 
L 104.629385 -71.147936 
L 104.584392 -69.204528 
L 104.562933 -67.26112 
L 104.555917 -65.317713 
L 104.553068 -63.374305 
L 104.545613 -61.430897 
L 104.527875 -59.48749 
L 104.498009 -57.544082 
L 104.458106 -55.600675 
L 104.413372 -53.657267 
L 104.370146 -51.713859 
L 104.3334 -49.770452 
L 104.305056 -47.827044 
L 104.28408 -45.883636 
z
" id="m613afb0617" style="stroke:#3f3f3f;stroke-width:1.5;"/>
    </defs>
    <g clip-path="url(#pf8fc40efbc)">
     <use style="fill:#3274a1;stroke:#3f3f3f;stroke-width:1.5;" x="0" xlink:href="#m613afb0617" y="288"/>
    </g>
   </g>
   <g id="PolyCollection_2">
    <defs>
     <path d="M 338.624839 -54.800803 
L 338.535161 -54.800803 
L 338.539302 -56.707424 
L 338.549568 -58.614046 
L 338.561253 -60.520668 
L 338.570485 -62.42729 
L 338.576015 -64.333912 
L 338.578587 -66.240534 
L 338.579409 -68.147155 
L 338.579129 -70.053777 
L 338.577496 -71.960399 
L 338.573455 -73.867021 
L 338.565735 -75.773643 
L 338.554052 -77.680265 
L 338.540026 -79.586886 
L 338.526223 -81.493508 
L 338.513315 -83.40013 
L 338.498391 -85.306752 
L 338.477396 -87.213374 
L 338.450023 -89.119996 
L 338.421791 -91.026617 
L 338.400481 -92.933239 
L 338.389839 -94.839861 
L 338.385994 -96.746483 
L 338.379502 -98.653105 
L 338.361614 -100.559727 
L 338.330643 -102.466348 
L 338.294155 -104.37297 
L 338.264859 -106.279592 
L 338.252569 -108.186214 
L 338.258684 -110.092836 
L 338.277321 -111.999457 
L 338.299526 -113.906079 
L 338.314312 -115.812701 
L 338.307551 -117.719323 
L 338.265869 -119.625945 
L 338.186777 -121.532567 
L 338.085391 -123.439188 
L 337.987361 -125.34581 
L 337.910088 -127.252432 
L 337.847623 -129.159054 
L 337.774172 -131.065676 
L 337.66545 -132.972298 
L 337.52123 -134.878919 
L 337.37078 -136.785541 
L 337.25491 -138.692163 
L 337.194908 -140.598785 
L 337.17113 -142.505407 
L 337.13196 -144.412029 
L 337.030522 -146.31865 
L 336.858513 -148.225272 
L 336.646331 -150.131894 
L 336.431775 -152.038516 
L 336.228939 -153.945138 
L 336.021497 -155.85176 
L 335.77562 -157.758381 
L 335.454839 -159.665003 
L 335.029009 -161.571625 
L 334.47938 -163.478247 
L 333.802772 -165.384869 
L 333.018686 -167.291491 
L 332.178291 -169.198112 
L 331.357583 -171.104734 
L 330.615848 -173.011356 
L 329.938251 -174.917978 
L 329.218723 -176.8246 
L 328.318148 -178.731221 
L 327.163482 -180.637843 
L 325.807147 -182.544465 
L 324.391824 -184.451087 
L 323.046691 -186.357709 
L 321.806202 -188.264331 
L 320.61705 -190.170952 
L 319.401301 -192.077574 
L 318.096563 -193.984196 
L 316.656498 -195.890818 
L 315.059933 -197.79744 
L 313.341375 -199.704062 
L 311.593591 -201.610683 
L 309.920249 -203.517305 
L 308.390994 -205.423927 
L 307.052284 -207.330549 
L 305.975541 -209.237171 
L 305.280527 -211.143793 
L 305.1 -213.050414 
L 305.510517 -214.957036 
L 306.490297 -216.863658 
L 307.948103 -218.77028 
L 309.804291 -220.676902 
L 312.048863 -222.583524 
L 314.712916 -224.490145 
L 317.774629 -226.396767 
L 321.095927 -228.303389 
L 324.455118 -230.210011 
L 327.63515 -232.116633 
L 330.481272 -234.023254 
L 332.89974 -235.929876 
L 334.836407 -237.836498 
L 336.274802 -239.74312 
L 337.250886 -241.649742 
L 337.854148 -243.556364 
L 339.305852 -243.556364 
L 339.305852 -243.556364 
L 339.909114 -241.649742 
L 340.885198 -239.74312 
L 342.323593 -237.836498 
L 344.26026 -235.929876 
L 346.678728 -234.023254 
L 349.52485 -232.116633 
L 352.704882 -230.210011 
L 356.064073 -228.303389 
L 359.385371 -226.396767 
L 362.447084 -224.490145 
L 365.111137 -222.583524 
L 367.355709 -220.676902 
L 369.211897 -218.77028 
L 370.669703 -216.863658 
L 371.649483 -214.957036 
L 372.06 -213.050414 
L 371.879473 -211.143793 
L 371.184459 -209.237171 
L 370.107716 -207.330549 
L 368.769006 -205.423927 
L 367.239751 -203.517305 
L 365.566409 -201.610683 
L 363.818625 -199.704062 
L 362.100067 -197.79744 
L 360.503502 -195.890818 
L 359.063437 -193.984196 
L 357.758699 -192.077574 
L 356.54295 -190.170952 
L 355.353798 -188.264331 
L 354.113309 -186.357709 
L 352.768176 -184.451087 
L 351.352853 -182.544465 
L 349.996518 -180.637843 
L 348.841852 -178.731221 
L 347.941277 -176.8246 
L 347.221749 -174.917978 
L 346.544152 -173.011356 
L 345.802417 -171.104734 
L 344.981709 -169.198112 
L 344.141314 -167.291491 
L 343.357228 -165.384869 
L 342.68062 -163.478247 
L 342.130991 -161.571625 
L 341.705161 -159.665003 
L 341.38438 -157.758381 
L 341.138503 -155.85176 
L 340.931061 -153.945138 
L 340.728225 -152.038516 
L 340.513669 -150.131894 
L 340.301487 -148.225272 
L 340.129478 -146.31865 
L 340.02804 -144.412029 
L 339.98887 -142.505407 
L 339.965092 -140.598785 
L 339.90509 -138.692163 
L 339.78922 -136.785541 
L 339.63877 -134.878919 
L 339.49455 -132.972298 
L 339.385828 -131.065676 
L 339.312377 -129.159054 
L 339.249912 -127.252432 
L 339.172639 -125.34581 
L 339.074609 -123.439188 
L 338.973223 -121.532567 
L 338.894131 -119.625945 
L 338.852449 -117.719323 
L 338.845688 -115.812701 
L 338.860474 -113.906079 
L 338.882679 -111.999457 
L 338.901316 -110.092836 
L 338.907431 -108.186214 
L 338.895141 -106.279592 
L 338.865845 -104.37297 
L 338.829357 -102.466348 
L 338.798386 -100.559727 
L 338.780498 -98.653105 
L 338.774006 -96.746483 
L 338.770161 -94.839861 
L 338.759519 -92.933239 
L 338.738209 -91.026617 
L 338.709977 -89.119996 
L 338.682604 -87.213374 
L 338.661609 -85.306752 
L 338.646685 -83.40013 
L 338.633777 -81.493508 
L 338.619974 -79.586886 
L 338.605948 -77.680265 
L 338.594265 -75.773643 
L 338.586545 -73.867021 
L 338.582504 -71.960399 
L 338.580871 -70.053777 
L 338.580591 -68.147155 
L 338.581413 -66.240534 
L 338.583985 -64.333912 
L 338.589515 -62.42729 
L 338.598747 -60.520668 
L 338.610432 -58.614046 
L 338.620698 -56.707424 
L 338.624839 -54.800803 
z
" id="m246ca53c50" style="stroke:#3f3f3f;stroke-width:1.5;"/>
    </defs>
    <g clip-path="url(#pf8fc40efbc)">
     <use style="fill:#e1812c;stroke:#3f3f3f;stroke-width:1.5;" x="0" xlink:href="#m246ca53c50" y="288"/>
    </g>
   </g>
   <g id="patch_3">
    <path clip-path="url(#pf8fc40efbc)" d="M 137.7 251.470075 
L 137.7 251.470075 
L 137.7 251.470075 
L 137.7 251.470075 
z
" style="fill:#3274a1;stroke:#3f3f3f;stroke-linejoin:miter;stroke-width:0.75;"/>
   </g>
   <g id="patch_4">
    <path clip-path="url(#pf8fc40efbc)" d="M 137.7 251.470075 
L 137.7 251.470075 
L 137.7 251.470075 
L 137.7 251.470075 
z
" style="fill:#e1812c;stroke:#3f3f3f;stroke-linejoin:miter;stroke-width:0.75;"/>
   </g>
   <g id="matplotlib.axis_1">
    <g id="xtick_1">
     <g id="line2d_1">
      <defs>
       <path d="M 0 0 
L 0 3.5 
" id="m6eefe20e42" style="stroke:#000000;stroke-width:0.8;"/>
      </defs>
      <g>
       <use style="stroke:#000000;stroke-width:0.8;" x="137.7" xlink:href="#m6eefe20e42" y="252"/>
      </g>
     </g>
     <g id="text_1">
      <!-- Z_2_ns -->
      <g transform="translate(120.320312 266.421875)scale(0.1 -0.1)">
       <defs>
        <path d="M 5.609375 72.90625 
L 62.890625 72.90625 
L 62.890625 65.375 
L 16.796875 8.296875 
L 64.015625 8.296875 
L 64.015625 0 
L 4.5 0 
L 4.5 7.515625 
L 50.59375 64.59375 
L 5.609375 64.59375 
z
" id="DejaVuSans-90"/>
        <path d="M 50.984375 -16.609375 
L 50.984375 -23.578125 
L -0.984375 -23.578125 
L -0.984375 -16.609375 
z
" id="DejaVuSans-95"/>
        <path d="M 19.1875 8.296875 
L 53.609375 8.296875 
L 53.609375 0 
L 7.328125 0 
L 7.328125 8.296875 
Q 12.9375 14.109375 22.625 23.890625 
Q 32.328125 33.6875 34.8125 36.53125 
Q 39.546875 41.84375 41.421875 45.53125 
Q 43.3125 49.21875 43.3125 52.78125 
Q 43.3125 58.59375 39.234375 62.25 
Q 35.15625 65.921875 28.609375 65.921875 
Q 23.96875 65.921875 18.8125 64.3125 
Q 13.671875 62.703125 7.8125 59.421875 
L 7.8125 69.390625 
Q 13.765625 71.78125 18.9375 73 
Q 24.125 74.21875 28.421875 74.21875 
Q 39.75 74.21875 46.484375 68.546875 
Q 53.21875 62.890625 53.21875 53.421875 
Q 53.21875 48.921875 51.53125 44.890625 
Q 49.859375 40.875 45.40625 35.40625 
Q 44.1875 33.984375 37.640625 27.21875 
Q 31.109375 20.453125 19.1875 8.296875 
z
" id="DejaVuSans-50"/>
        <path d="M 54.890625 33.015625 
L 54.890625 0 
L 45.90625 0 
L 45.90625 32.71875 
Q 45.90625 40.484375 42.875 44.328125 
Q 39.84375 48.1875 33.796875 48.1875 
Q 26.515625 48.1875 22.3125 43.546875 
Q 18.109375 38.921875 18.109375 30.90625 
L 18.109375 0 
L 9.078125 0 
L 9.078125 54.6875 
L 18.109375 54.6875 
L 18.109375 46.1875 
Q 21.34375 51.125 25.703125 53.5625 
Q 30.078125 56 35.796875 56 
Q 45.21875 56 50.046875 50.171875 
Q 54.890625 44.34375 54.890625 33.015625 
z
" id="DejaVuSans-110"/>
        <path d="M 44.28125 53.078125 
L 44.28125 44.578125 
Q 40.484375 46.53125 36.375 47.5 
Q 32.28125 48.484375 27.875 48.484375 
Q 21.1875 48.484375 17.84375 46.4375 
Q 14.5 44.390625 14.5 40.28125 
Q 14.5 37.15625 16.890625 35.375 
Q 19.28125 33.59375 26.515625 31.984375 
L 29.59375 31.296875 
Q 39.15625 29.25 43.1875 25.515625 
Q 47.21875 21.78125 47.21875 15.09375 
Q 47.21875 7.46875 41.1875 3.015625 
Q 35.15625 -1.421875 24.609375 -1.421875 
Q 20.21875 -1.421875 15.453125 -0.5625 
Q 10.6875 0.296875 5.421875 2 
L 5.421875 11.28125 
Q 10.40625 8.6875 15.234375 7.390625 
Q 20.0625 6.109375 24.8125 6.109375 
Q 31.15625 6.109375 34.5625 8.28125 
Q 37.984375 10.453125 37.984375 14.40625 
Q 37.984375 18.0625 35.515625 20.015625 
Q 33.0625 21.96875 24.703125 23.78125 
L 21.578125 24.515625 
Q 13.234375 26.265625 9.515625 29.90625 
Q 5.8125 33.546875 5.8125 39.890625 
Q 5.8125 47.609375 11.28125 51.796875 
Q 16.75 56 26.8125 56 
Q 31.78125 56 36.171875 55.265625 
Q 40.578125 54.546875 44.28125 53.078125 
z
" id="DejaVuSans-115"/>
       </defs>
       <use xlink:href="#DejaVuSans-90"/>
       <use x="68.505859" xlink:href="#DejaVuSans-95"/>
       <use x="118.505859" xlink:href="#DejaVuSans-50"/>
       <use x="182.128906" xlink:href="#DejaVuSans-95"/>
       <use x="232.128906" xlink:href="#DejaVuSans-110"/>
       <use x="295.507812" xlink:href="#DejaVuSans-115"/>
      </g>
     </g>
    </g>
    <g id="xtick_2">
     <g id="line2d_2">
      <g>
       <use style="stroke:#000000;stroke-width:0.8;" x="305.1" xlink:href="#m6eefe20e42" y="252"/>
      </g>
     </g>
     <g id="text_2">
      <!-- Z_3_ns -->
      <g transform="translate(287.720313 266.421875)scale(0.1 -0.1)">
       <defs>
        <path d="M 40.578125 39.3125 
Q 47.65625 37.796875 51.625 33 
Q 55.609375 28.21875 55.609375 21.1875 
Q 55.609375 10.40625 48.1875 4.484375 
Q 40.765625 -1.421875 27.09375 -1.421875 
Q 22.515625 -1.421875 17.65625 -0.515625 
Q 12.796875 0.390625 7.625 2.203125 
L 7.625 11.71875 
Q 11.71875 9.328125 16.59375 8.109375 
Q 21.484375 6.890625 26.8125 6.890625 
Q 36.078125 6.890625 40.9375 10.546875 
Q 45.796875 14.203125 45.796875 21.1875 
Q 45.796875 27.640625 41.28125 31.265625 
Q 36.765625 34.90625 28.71875 34.90625 
L 20.21875 34.90625 
L 20.21875 43.015625 
L 29.109375 43.015625 
Q 36.375 43.015625 40.234375 45.921875 
Q 44.09375 48.828125 44.09375 54.296875 
Q 44.09375 59.90625 40.109375 62.90625 
Q 36.140625 65.921875 28.71875 65.921875 
Q 24.65625 65.921875 20.015625 65.03125 
Q 15.375 64.15625 9.8125 62.3125 
L 9.8125 71.09375 
Q 15.4375 72.65625 20.34375 73.4375 
Q 25.25 74.21875 29.59375 74.21875 
Q 40.828125 74.21875 47.359375 69.109375 
Q 53.90625 64.015625 53.90625 55.328125 
Q 53.90625 49.265625 50.4375 45.09375 
Q 46.96875 40.921875 40.578125 39.3125 
z
" id="DejaVuSans-51"/>
       </defs>
       <use xlink:href="#DejaVuSans-90"/>
       <use x="68.505859" xlink:href="#DejaVuSans-95"/>
       <use x="118.505859" xlink:href="#DejaVuSans-51"/>
       <use x="182.128906" xlink:href="#DejaVuSans-95"/>
       <use x="232.128906" xlink:href="#DejaVuSans-110"/>
       <use x="295.507812" xlink:href="#DejaVuSans-115"/>
      </g>
     </g>
    </g>
    <g id="text_3">
     <!-- set -->
     <g transform="translate(213.758594 280.378125)scale(0.1 -0.1)">
      <defs>
       <path d="M 56.203125 29.59375 
L 56.203125 25.203125 
L 14.890625 25.203125 
Q 15.484375 15.921875 20.484375 11.0625 
Q 25.484375 6.203125 34.421875 6.203125 
Q 39.59375 6.203125 44.453125 7.46875 
Q 49.3125 8.734375 54.109375 11.28125 
L 54.109375 2.78125 
Q 49.265625 0.734375 44.1875 -0.34375 
Q 39.109375 -1.421875 33.890625 -1.421875 
Q 20.796875 -1.421875 13.15625 6.1875 
Q 5.515625 13.8125 5.515625 26.8125 
Q 5.515625 40.234375 12.765625 48.109375 
Q 20.015625 56 32.328125 56 
Q 43.359375 56 49.78125 48.890625 
Q 56.203125 41.796875 56.203125 29.59375 
z
M 47.21875 32.234375 
Q 47.125 39.59375 43.09375 43.984375 
Q 39.0625 48.390625 32.421875 48.390625 
Q 24.90625 48.390625 20.390625 44.140625 
Q 15.875 39.890625 15.1875 32.171875 
z
" id="DejaVuSans-101"/>
       <path d="M 18.3125 70.21875 
L 18.3125 54.6875 
L 36.8125 54.6875 
L 36.8125 47.703125 
L 18.3125 47.703125 
L 18.3125 18.015625 
Q 18.3125 11.328125 20.140625 9.421875 
Q 21.96875 7.515625 27.59375 7.515625 
L 36.8125 7.515625 
L 36.8125 0 
L 27.59375 0 
Q 17.1875 0 13.234375 3.875 
Q 9.28125 7.765625 9.28125 18.015625 
L 9.28125 47.703125 
L 2.6875 47.703125 
L 2.6875 54.6875 
L 9.28125 54.6875 
L 9.28125 70.21875 
z
" id="DejaVuSans-116"/>
      </defs>
      <use xlink:href="#DejaVuSans-115"/>
      <use x="52.099609" xlink:href="#DejaVuSans-101"/>
      <use x="113.623047" xlink:href="#DejaVuSans-116"/>
     </g>
    </g>
   </g>
   <g id="matplotlib.axis_2">
    <g id="ytick_1">
     <g id="line2d_3">
      <defs>
       <path d="M 0 0 
L -3.5 0 
" id="m7b208ea582" style="stroke:#000000;stroke-width:0.8;"/>
      </defs>
      <g>
       <use style="stroke:#000000;stroke-width:0.8;" x="54" xlink:href="#m7b208ea582" y="251.470075"/>
      </g>
     </g>
     <g id="text_4">
      <!-- 0 -->
      <g transform="translate(40.6375 255.269293)scale(0.1 -0.1)">
       <defs>
        <path d="M 31.78125 66.40625 
Q 24.171875 66.40625 20.328125 58.90625 
Q 16.5 51.421875 16.5 36.375 
Q 16.5 21.390625 20.328125 13.890625 
Q 24.171875 6.390625 31.78125 6.390625 
Q 39.453125 6.390625 43.28125 13.890625 
Q 47.125 21.390625 47.125 36.375 
Q 47.125 51.421875 43.28125 58.90625 
Q 39.453125 66.40625 31.78125 66.40625 
z
M 31.78125 74.21875 
Q 44.046875 74.21875 50.515625 64.515625 
Q 56.984375 54.828125 56.984375 36.375 
Q 56.984375 17.96875 50.515625 8.265625 
Q 44.046875 -1.421875 31.78125 -1.421875 
Q 19.53125 -1.421875 13.0625 8.265625 
Q 6.59375 17.96875 6.59375 36.375 
Q 6.59375 54.828125 13.0625 64.515625 
Q 19.53125 74.21875 31.78125 74.21875 
z
" id="DejaVuSans-48"/>
       </defs>
       <use xlink:href="#DejaVuSans-48"/>
      </g>
     </g>
    </g>
    <g id="ytick_2">
     <g id="line2d_4">
      <g>
       <use style="stroke:#000000;stroke-width:0.8;" x="54" xlink:href="#m7b208ea582" y="222.629593"/>
      </g>
     </g>
     <g id="text_5">
      <!-- 5 -->
      <g transform="translate(40.6375 226.428811)scale(0.1 -0.1)">
       <defs>
        <path d="M 10.796875 72.90625 
L 49.515625 72.90625 
L 49.515625 64.59375 
L 19.828125 64.59375 
L 19.828125 46.734375 
Q 21.96875 47.46875 24.109375 47.828125 
Q 26.265625 48.1875 28.421875 48.1875 
Q 40.625 48.1875 47.75 41.5 
Q 54.890625 34.8125 54.890625 23.390625 
Q 54.890625 11.625 47.5625 5.09375 
Q 40.234375 -1.421875 26.90625 -1.421875 
Q 22.3125 -1.421875 17.546875 -0.640625 
Q 12.796875 0.140625 7.71875 1.703125 
L 7.71875 11.625 
Q 12.109375 9.234375 16.796875 8.0625 
Q 21.484375 6.890625 26.703125 6.890625 
Q 35.15625 6.890625 40.078125 11.328125 
Q 45.015625 15.765625 45.015625 23.390625 
Q 45.015625 31 40.078125 35.4375 
Q 35.15625 39.890625 26.703125 39.890625 
Q 22.75 39.890625 18.8125 39.015625 
Q 14.890625 38.140625 10.796875 36.28125 
z
" id="DejaVuSans-53"/>
       </defs>
       <use xlink:href="#DejaVuSans-53"/>
      </g>
     </g>
    </g>
    <g id="ytick_3">
     <g id="line2d_5">
      <g>
       <use style="stroke:#000000;stroke-width:0.8;" x="54" xlink:href="#m7b208ea582" y="193.789111"/>
      </g>
     </g>
     <g id="text_6">
      <!-- 10 -->
      <g transform="translate(34.275 197.588329)scale(0.1 -0.1)">
       <defs>
        <path d="M 12.40625 8.296875 
L 28.515625 8.296875 
L 28.515625 63.921875 
L 10.984375 60.40625 
L 10.984375 69.390625 
L 28.421875 72.90625 
L 38.28125 72.90625 
L 38.28125 8.296875 
L 54.390625 8.296875 
L 54.390625 0 
L 12.40625 0 
z
" id="DejaVuSans-49"/>
       </defs>
       <use xlink:href="#DejaVuSans-49"/>
       <use x="63.623047" xlink:href="#DejaVuSans-48"/>
      </g>
     </g>
    </g>
    <g id="ytick_4">
     <g id="line2d_6">
      <g>
       <use style="stroke:#000000;stroke-width:0.8;" x="54" xlink:href="#m7b208ea582" y="164.948628"/>
      </g>
     </g>
     <g id="text_7">
      <!-- 15 -->
      <g transform="translate(34.275 168.747847)scale(0.1 -0.1)">
       <use xlink:href="#DejaVuSans-49"/>
       <use x="63.623047" xlink:href="#DejaVuSans-53"/>
      </g>
     </g>
    </g>
    <g id="ytick_5">
     <g id="line2d_7">
      <g>
       <use style="stroke:#000000;stroke-width:0.8;" x="54" xlink:href="#m7b208ea582" y="136.108146"/>
      </g>
     </g>
     <g id="text_8">
      <!-- 20 -->
      <g transform="translate(34.275 139.907365)scale(0.1 -0.1)">
       <use xlink:href="#DejaVuSans-50"/>
       <use x="63.623047" xlink:href="#DejaVuSans-48"/>
      </g>
     </g>
    </g>
    <g id="ytick_6">
     <g id="line2d_8">
      <g>
       <use style="stroke:#000000;stroke-width:0.8;" x="54" xlink:href="#m7b208ea582" y="107.267664"/>
      </g>
     </g>
     <g id="text_9">
      <!-- 25 -->
      <g transform="translate(34.275 111.066883)scale(0.1 -0.1)">
       <use xlink:href="#DejaVuSans-50"/>
       <use x="63.623047" xlink:href="#DejaVuSans-53"/>
      </g>
     </g>
    </g>
    <g id="ytick_7">
     <g id="line2d_9">
      <g>
       <use style="stroke:#000000;stroke-width:0.8;" x="54" xlink:href="#m7b208ea582" y="78.427182"/>
      </g>
     </g>
     <g id="text_10">
      <!-- 30 -->
      <g transform="translate(34.275 82.226401)scale(0.1 -0.1)">
       <use xlink:href="#DejaVuSans-51"/>
       <use x="63.623047" xlink:href="#DejaVuSans-48"/>
      </g>
     </g>
    </g>
    <g id="ytick_8">
     <g id="line2d_10">
      <g>
       <use style="stroke:#000000;stroke-width:0.8;" x="54" xlink:href="#m7b208ea582" y="49.5867"/>
      </g>
     </g>
     <g id="text_11">
      <!-- 35 -->
      <g transform="translate(34.275 53.385919)scale(0.1 -0.1)">
       <use xlink:href="#DejaVuSans-51"/>
       <use x="63.623047" xlink:href="#DejaVuSans-53"/>
      </g>
     </g>
    </g>
    <g id="text_12">
     <!-- value -->
     <g transform="translate(28.195312 156.937813)rotate(-90)scale(0.1 -0.1)">
      <defs>
       <path d="M 2.984375 54.6875 
L 12.5 54.6875 
L 29.59375 8.796875 
L 46.6875 54.6875 
L 56.203125 54.6875 
L 35.6875 0 
L 23.484375 0 
z
" id="DejaVuSans-118"/>
       <path d="M 34.28125 27.484375 
Q 23.390625 27.484375 19.1875 25 
Q 14.984375 22.515625 14.984375 16.5 
Q 14.984375 11.71875 18.140625 8.90625 
Q 21.296875 6.109375 26.703125 6.109375 
Q 34.1875 6.109375 38.703125 11.40625 
Q 43.21875 16.703125 43.21875 25.484375 
L 43.21875 27.484375 
z
M 52.203125 31.203125 
L 52.203125 0 
L 43.21875 0 
L 43.21875 8.296875 
Q 40.140625 3.328125 35.546875 0.953125 
Q 30.953125 -1.421875 24.3125 -1.421875 
Q 15.921875 -1.421875 10.953125 3.296875 
Q 6 8.015625 6 15.921875 
Q 6 25.140625 12.171875 29.828125 
Q 18.359375 34.515625 30.609375 34.515625 
L 43.21875 34.515625 
L 43.21875 35.40625 
Q 43.21875 41.609375 39.140625 45 
Q 35.0625 48.390625 27.6875 48.390625 
Q 23 48.390625 18.546875 47.265625 
Q 14.109375 46.140625 10.015625 43.890625 
L 10.015625 52.203125 
Q 14.9375 54.109375 19.578125 55.046875 
Q 24.21875 56 28.609375 56 
Q 40.484375 56 46.34375 49.84375 
Q 52.203125 43.703125 52.203125 31.203125 
z
" id="DejaVuSans-97"/>
       <path d="M 9.421875 75.984375 
L 18.40625 75.984375 
L 18.40625 0 
L 9.421875 0 
z
" id="DejaVuSans-108"/>
       <path d="M 8.5 21.578125 
L 8.5 54.6875 
L 17.484375 54.6875 
L 17.484375 21.921875 
Q 17.484375 14.15625 20.5 10.265625 
Q 23.53125 6.390625 29.59375 6.390625 
Q 36.859375 6.390625 41.078125 11.03125 
Q 45.3125 15.671875 45.3125 23.6875 
L 45.3125 54.6875 
L 54.296875 54.6875 
L 54.296875 0 
L 45.3125 0 
L 45.3125 8.40625 
Q 42.046875 3.421875 37.71875 1 
Q 33.40625 -1.421875 27.6875 -1.421875 
Q 18.265625 -1.421875 13.375 4.4375 
Q 8.5 10.296875 8.5 21.578125 
z
M 31.109375 56 
z
" id="DejaVuSans-117"/>
      </defs>
      <use xlink:href="#DejaVuSans-118"/>
      <use x="59.179688" xlink:href="#DejaVuSans-97"/>
      <use x="120.458984" xlink:href="#DejaVuSans-108"/>
      <use x="148.242188" xlink:href="#DejaVuSans-117"/>
      <use x="211.621094" xlink:href="#DejaVuSans-101"/>
     </g>
    </g>
   </g>
   <g id="line2d_11">
    <path clip-path="url(#pf8fc40efbc)" d="M 104.22 146.270152 
L 104.22 49.719007 
" style="fill:none;stroke:#3f3f3f;stroke-linecap:square;stroke-width:1.5;"/>
   </g>
   <g id="line2d_12">
    <path clip-path="url(#pf8fc40efbc)" d="M 104.22 103.332391 
L 104.22 74.640362 
" style="fill:none;stroke:#3f3f3f;stroke-linecap:square;stroke-width:4.5;"/>
   </g>
   <g id="line2d_13">
    <path clip-path="url(#pf8fc40efbc)" d="M 338.58 134.249782 
L 338.58 44.443636 
" style="fill:none;stroke:#3f3f3f;stroke-linecap:square;stroke-width:1.5;"/>
   </g>
   <g id="line2d_14">
    <path clip-path="url(#pf8fc40efbc)" d="M 338.58 96.069088 
L 338.58 70.341365 
" style="fill:none;stroke:#3f3f3f;stroke-linecap:square;stroke-width:4.5;"/>
   </g>
   <g id="patch_5">
    <path d="M 54 252 
L 54 34.56 
" style="fill:none;stroke:#000000;stroke-linecap:square;stroke-linejoin:miter;stroke-width:0.8;"/>
   </g>
   <g id="patch_6">
    <path d="M 388.8 252 
L 388.8 34.56 
" style="fill:none;stroke:#000000;stroke-linecap:square;stroke-linejoin:miter;stroke-width:0.8;"/>
   </g>
   <g id="patch_7">
    <path d="M 54 252 
L 388.8 252 
" style="fill:none;stroke:#000000;stroke-linecap:square;stroke-linejoin:miter;stroke-width:0.8;"/>
   </g>
   <g id="patch_8">
    <path d="M 54 34.56 
L 388.8 34.56 
" style="fill:none;stroke:#000000;stroke-linecap:square;stroke-linejoin:miter;stroke-width:0.8;"/>
   </g>
   <g id="PathCollection_1">
    <defs>
     <path d="M 0 1.5 
C 0.397805 1.5 0.77937 1.341951 1.06066 1.06066 
C 1.341951 0.77937 1.5 0.397805 1.5 0 
C 1.5 -0.397805 1.341951 -0.77937 1.06066 -1.06066 
C 0.77937 -1.341951 0.397805 -1.5 0 -1.5 
C -0.397805 -1.5 -0.77937 -1.341951 -1.06066 -1.06066 
C -1.341951 -0.77937 -1.5 -0.397805 -1.5 0 
C -1.5 0.397805 -1.341951 0.77937 -1.06066 1.06066 
C -0.77937 1.341951 -0.397805 1.5 0 1.5 
z
" id="mf53c2e51df" style="stroke:#3f3f3f;"/>
    </defs>
    <g clip-path="url(#pf8fc40efbc)">
     <use style="fill:#ffffff;stroke:#3f3f3f;" x="104.22" xlink:href="#mf53c2e51df" y="86.156685"/>
    </g>
   </g>
   <g id="PathCollection_2">
    <g clip-path="url(#pf8fc40efbc)">
     <use style="fill:#ffffff;stroke:#3f3f3f;" x="338.58" xlink:href="#mf53c2e51df" y="81.29904"/>
    </g>
   </g>
   <g id="legend_1">
    <g id="patch_9">
     <path d="M 61 247 
L 127.759375 247 
Q 129.759375 247 129.759375 245 
L 129.759375 201.409375 
Q 129.759375 199.409375 127.759375 199.409375 
L 61 199.409375 
Q 59 199.409375 59 201.409375 
L 59 245 
Q 59 247 61 247 
z
" style="fill:#ffffff;opacity:0.8;stroke:#cccccc;stroke-linejoin:miter;"/>
    </g>
    <g id="text_13">
     <!-- set -->
     <g transform="translate(86.738281 211.007812)scale(0.1 -0.1)">
      <use xlink:href="#DejaVuSans-115"/>
      <use x="52.099609" xlink:href="#DejaVuSans-101"/>
      <use x="113.623047" xlink:href="#DejaVuSans-116"/>
     </g>
    </g>
    <g id="patch_10">
     <path d="M 63 225.685937 
L 83 225.685937 
L 83 218.685937 
L 63 218.685937 
z
" style="fill:#3274a1;stroke:#3f3f3f;stroke-linejoin:miter;stroke-width:0.75;"/>
    </g>
    <g id="text_14">
     <!-- Z_2_ns -->
     <g transform="translate(91 225.685937)scale(0.1 -0.1)">
      <use xlink:href="#DejaVuSans-90"/>
      <use x="68.505859" xlink:href="#DejaVuSans-95"/>
      <use x="118.505859" xlink:href="#DejaVuSans-50"/>
      <use x="182.128906" xlink:href="#DejaVuSans-95"/>
      <use x="232.128906" xlink:href="#DejaVuSans-110"/>
      <use x="295.507812" xlink:href="#DejaVuSans-115"/>
     </g>
    </g>
    <g id="patch_11">
     <path d="M 63 240.642188 
L 83 240.642188 
L 83 233.642188 
L 63 233.642188 
z
" style="fill:#e1812c;stroke:#3f3f3f;stroke-linejoin:miter;stroke-width:0.75;"/>
    </g>
    <g id="text_15">
     <!-- Z_3_ns -->
     <g transform="translate(91 240.642188)scale(0.1 -0.1)">
      <use xlink:href="#DejaVuSans-90"/>
      <use x="68.505859" xlink:href="#DejaVuSans-95"/>
      <use x="118.505859" xlink:href="#DejaVuSans-51"/>
      <use x="182.128906" xlink:href="#DejaVuSans-95"/>
      <use x="232.128906" xlink:href="#DejaVuSans-110"/>
      <use x="295.507812" xlink:href="#DejaVuSans-115"/>
     </g>
    </g>
   </g>
  </g>
 </g>
 <defs>
  <clipPath id="pf8fc40efbc">
   <rect height="217.44" width="334.8" x="54" y="34.56"/>
  </clipPath>
 </defs>
</svg>
