<?xml version="1.0" encoding="utf-8" standalone="no"?>
<!DOCTYPE svg PUBLIC "-//W3C//DTD SVG 1.1//EN"
  "http://www.w3.org/Graphics/SVG/1.1/DTD/svg11.dtd">
<!-- Created with matplotlib (https://matplotlib.org/) -->
<svg height="288pt" version="1.1" viewBox="0 0 432 288" width="432pt" xmlns="http://www.w3.org/2000/svg" xmlns:xlink="http://www.w3.org/1999/xlink">
 <metadata>
  <rdf:RDF xmlns:cc="http://creativecommons.org/ns#" xmlns:dc="http://purl.org/dc/elements/1.1/" xmlns:rdf="http://www.w3.org/1999/02/22-rdf-syntax-ns#">
   <cc:Work>
    <dc:type rdf:resource="http://purl.org/dc/dcmitype/StillImage"/>
    <dc:date>2022-04-14T11:43:55.278712</dc:date>
    <dc:format>image/svg+xml</dc:format>
    <dc:creator>
     <cc:Agent>
      <dc:title>Matplotlib v3.3.4, https://matplotlib.org/</dc:title>
     </cc:Agent>
    </dc:creator>
   </cc:Work>
  </rdf:RDF>
 </metadata>
 <defs>
  <style type="text/css">*{stroke-linecap:butt;stroke-linejoin:round;}</style>
 </defs>
 <g id="figure_1">
  <g id="patch_1">
   <path d="M 0 288 
L 432 288 
L 432 0 
L 0 0 
z
" style="fill:#ffffff;"/>
  </g>
  <g id="axes_1">
   <g id="patch_2">
    <path d="M 54 252 
L 388.8 252 
L 388.8 34.56 
L 54 34.56 
z
" style="fill:#ffffff;"/>
   </g>
   <g id="PolyCollection_1">
    <defs>
     <path d="M 80.064045 -86.088715 
L 80.015955 -86.088715 
L 80.012736 -87.549537 
L 80.009679 -89.01036 
L 80.005003 -90.471183 
L 79.997277 -91.932005 
L 79.986122 -93.392828 
L 79.972776 -94.853651 
L 79.96011 -96.314474 
L 79.951079 -97.775296 
L 79.94621 -99.236119 
L 79.942704 -100.696942 
L 79.936558 -102.157764 
L 79.925909 -103.618587 
L 79.912625 -105.07941 
L 79.900799 -106.540233 
L 79.893265 -108.001055 
L 79.888919 -109.461878 
L 79.883423 -110.922701 
L 79.872894 -112.383524 
L 79.857063 -113.844346 
L 79.838912 -115.305169 
L 79.821791 -116.765992 
L 79.807089 -118.226814 
L 79.793341 -119.687637 
L 79.775617 -121.14846 
L 79.745583 -122.609283 
L 79.694567 -124.070105 
L 79.619526 -125.530928 
L 79.527146 -126.991751 
L 79.431018 -128.452573 
L 79.342728 -129.913396 
L 79.263439 -131.374219 
L 79.182468 -132.835042 
L 79.084665 -134.295864 
L 78.962427 -135.756687 
L 78.822933 -137.21751 
L 78.682646 -138.678333 
L 78.553284 -140.139155 
L 78.434449 -141.599978 
L 78.320923 -143.060801 
L 78.213341 -144.521623 
L 78.115998 -145.982446 
L 78.023463 -147.443269 
L 77.913565 -148.904092 
L 77.756028 -150.364914 
L 77.527544 -151.825737 
L 77.22021 -153.28656 
L 76.839662 -154.747382 
L 76.396137 -156.208205 
L 75.894024 -157.669028 
L 75.32748 -159.129851 
L 74.687622 -160.590673 
L 73.977477 -162.051496 
L 73.222102 -163.512319 
L 72.464052 -164.973142 
L 71.747146 -166.433964 
L 71.099695 -167.894787 
L 70.523245 -169.35561 
L 69.985779 -170.816432 
L 69.423104 -172.277255 
L 68.760521 -173.738078 
L 67.958292 -175.198901 
L 67.058403 -176.659723 
L 66.192017 -178.120546 
L 65.525416 -179.581369 
L 65.174987 -181.042191 
L 65.16 -182.503014 
L 65.433058 -183.963837 
L 65.951686 -185.42466 
L 66.715007 -186.885482 
L 67.732999 -188.346305 
L 68.970309 -189.807128 
L 70.328942 -191.26795 
L 71.687048 -192.728773 
L 72.953026 -194.189596 
L 74.087019 -195.650419 
L 75.083551 -197.111241 
L 75.945054 -198.572064 
L 76.671759 -200.032887 
L 77.268044 -201.49371 
L 77.750517 -202.954532 
L 78.146266 -204.415355 
L 78.481634 -205.876178 
L 78.771829 -207.337 
L 79.020413 -208.797823 
L 79.226816 -210.258646 
L 79.392981 -211.719469 
L 79.52454 -213.180291 
L 79.628857 -214.641114 
L 79.712821 -216.101937 
L 79.781295 -217.562759 
L 79.837115 -219.023582 
L 79.882707 -220.484405 
L 79.920978 -221.945228 
L 79.953923 -223.40605 
L 79.981044 -224.866873 
L 80.000345 -226.327696 
L 80.011195 -227.788519 
L 80.015899 -229.249341 
L 80.018432 -230.710164 
L 80.061568 -230.710164 
L 80.061568 -230.710164 
L 80.064101 -229.249341 
L 80.068805 -227.788519 
L 80.079655 -226.327696 
L 80.098956 -224.866873 
L 80.126077 -223.40605 
L 80.159022 -221.945228 
L 80.197293 -220.484405 
L 80.242885 -219.023582 
L 80.298705 -217.562759 
L 80.367179 -216.101937 
L 80.451143 -214.641114 
L 80.55546 -213.180291 
L 80.687019 -211.719469 
L 80.853184 -210.258646 
L 81.059587 -208.797823 
L 81.308171 -207.337 
L 81.598366 -205.876178 
L 81.933734 -204.415355 
L 82.329483 -202.954532 
L 82.811956 -201.49371 
L 83.408241 -200.032887 
L 84.134946 -198.572064 
L 84.996449 -197.111241 
L 85.992981 -195.650419 
L 87.126974 -194.189596 
L 88.392952 -192.728773 
L 89.751058 -191.26795 
L 91.109691 -189.807128 
L 92.347001 -188.346305 
L 93.364993 -186.885482 
L 94.128314 -185.42466 
L 94.646942 -183.963837 
L 94.92 -182.503014 
L 94.905013 -181.042191 
L 94.554584 -179.581369 
L 93.887983 -178.120546 
L 93.021597 -176.659723 
L 92.121708 -175.198901 
L 91.319479 -173.738078 
L 90.656896 -172.277255 
L 90.094221 -170.816432 
L 89.556755 -169.35561 
L 88.980305 -167.894787 
L 88.332854 -166.433964 
L 87.615948 -164.973142 
L 86.857898 -163.512319 
L 86.102523 -162.051496 
L 85.392378 -160.590673 
L 84.75252 -159.129851 
L 84.185976 -157.669028 
L 83.683863 -156.208205 
L 83.240338 -154.747382 
L 82.85979 -153.28656 
L 82.552456 -151.825737 
L 82.323972 -150.364914 
L 82.166435 -148.904092 
L 82.056537 -147.443269 
L 81.964002 -145.982446 
L 81.866659 -144.521623 
L 81.759077 -143.060801 
L 81.645551 -141.599978 
L 81.526716 -140.139155 
L 81.397354 -138.678333 
L 81.257067 -137.21751 
L 81.117573 -135.756687 
L 80.995335 -134.295864 
L 80.897532 -132.835042 
L 80.816561 -131.374219 
L 80.737272 -129.913396 
L 80.648982 -128.452573 
L 80.552854 -126.991751 
L 80.460474 -125.530928 
L 80.385433 -124.070105 
L 80.334417 -122.609283 
L 80.304383 -121.14846 
L 80.286659 -119.687637 
L 80.272911 -118.226814 
L 80.258209 -116.765992 
L 80.241088 -115.305169 
L 80.222937 -113.844346 
L 80.207106 -112.383524 
L 80.196577 -110.922701 
L 80.191081 -109.461878 
L 80.186735 -108.001055 
L 80.179201 -106.540233 
L 80.167375 -105.07941 
L 80.154091 -103.618587 
L 80.143442 -102.157764 
L 80.137296 -100.696942 
L 80.13379 -99.236119 
L 80.128921 -97.775296 
L 80.11989 -96.314474 
L 80.107224 -94.853651 
L 80.093878 -93.392828 
L 80.082723 -91.932005 
L 80.074997 -90.471183 
L 80.070321 -89.01036 
L 80.067264 -87.549537 
L 80.064045 -86.088715 
z
" id="m2842438cc0" style="stroke:#3d3d3d;stroke-width:1.5;"/>
    </defs>
    <g clip-path="url(#pcdd024a289)">
     <use style="fill:#3274a1;stroke:#3d3d3d;stroke-width:1.5;" x="0" xlink:href="#m2842438cc0" y="288"/>
    </g>
   </g>
   <g id="PolyCollection_2">
    <defs>
     <path d="M 221.446591 -45.883636 
L 221.353409 -45.883636 
L 221.35789 -47.880331 
L 221.368907 -49.877025 
L 221.381246 -51.873719 
L 221.390759 -53.870413 
L 221.39628 -55.867107 
L 221.398777 -57.863802 
L 221.399671 -59.860496 
L 221.399928 -61.85719 
L 221.399987 -63.853884 
L 221.399998 -65.850579 
L 221.4 -67.847273 
L 221.4 -69.843967 
L 221.4 -71.840661 
L 221.4 -73.837355 
L 221.399997 -75.83405 
L 221.399982 -77.830744 
L 221.399897 -79.827438 
L 221.399515 -81.824132 
L 221.398128 -83.820826 
L 221.394087 -85.817521 
L 221.384707 -87.814215 
L 221.367579 -89.810909 
L 221.343523 -91.807603 
L 221.318617 -93.804298 
L 221.301222 -95.800992 
L 221.294356 -97.797686 
L 221.291139 -99.79438 
L 221.280264 -101.791074 
L 221.257259 -103.787769 
L 221.229049 -105.784463 
L 221.206225 -107.781157 
L 221.191732 -109.777851 
L 221.178241 -111.774545 
L 221.155419 -113.77124 
L 221.117888 -115.767934 
L 221.066814 -117.764628 
L 221.0059 -119.761322 
L 220.936743 -121.758017 
L 220.85908 -123.754711 
L 220.777507 -125.751405 
L 220.706629 -127.748099 
L 220.663476 -129.744793 
L 220.649448 -131.741488 
L 220.638807 -133.738182 
L 220.586708 -135.734876 
L 220.45299 -137.73157 
L 220.227025 -139.728264 
L 219.938682 -141.724959 
L 219.644893 -143.721653 
L 219.39167 -145.718347 
L 219.172077 -147.715041 
L 218.916037 -149.711736 
L 218.529716 -151.70843 
L 217.957028 -153.705124 
L 217.212822 -155.701818 
L 216.36417 -157.698512 
L 215.482299 -159.695207 
L 214.60724 -161.691901 
L 213.746697 -163.688595 
L 212.894237 -165.685289 
L 212.040779 -167.681983 
L 211.176736 -169.678678 
L 210.297043 -171.675372 
L 209.406894 -173.672066 
L 208.523007 -175.66876 
L 207.684092 -177.665455 
L 206.974911 -179.662149 
L 206.534026 -181.658843 
L 206.52 -183.655537 
L 207.050763 -185.652231 
L 208.147209 -187.648926 
L 209.70501 -189.64562 
L 211.51623 -191.642314 
L 213.342346 -193.639008 
L 214.995662 -195.635702 
L 216.377183 -197.632397 
L 217.468624 -199.629091 
L 218.310221 -201.625785 
L 218.973191 -203.622479 
L 219.520302 -205.619174 
L 219.97581 -207.615868 
L 220.334006 -209.612562 
L 220.593853 -211.609256 
L 220.778415 -213.60595 
L 220.922661 -215.602645 
L 221.050444 -217.599339 
L 221.165542 -219.596033 
L 221.259983 -221.592727 
L 221.326856 -223.589421 
L 221.366549 -225.586116 
L 221.384925 -227.58281 
L 221.388106 -229.579504 
L 221.379022 -231.576198 
L 221.358245 -233.572893 
L 221.328218 -235.569587 
L 221.296811 -237.566281 
L 221.275731 -239.562975 
L 221.273884 -241.559669 
L 221.291536 -243.556364 
L 221.508464 -243.556364 
L 221.508464 -243.556364 
L 221.526116 -241.559669 
L 221.524269 -239.562975 
L 221.503189 -237.566281 
L 221.471782 -235.569587 
L 221.441755 -233.572893 
L 221.420978 -231.576198 
L 221.411894 -229.579504 
L 221.415075 -227.58281 
L 221.433451 -225.586116 
L 221.473144 -223.589421 
L 221.540017 -221.592727 
L 221.634458 -219.596033 
L 221.749556 -217.599339 
L 221.877339 -215.602645 
L 222.021585 -213.60595 
L 222.206147 -211.609256 
L 222.465994 -209.612562 
L 222.82419 -207.615868 
L 223.279698 -205.619174 
L 223.826809 -203.622479 
L 224.489779 -201.625785 
L 225.331376 -199.629091 
L 226.422817 -197.632397 
L 227.804338 -195.635702 
L 229.457654 -193.639008 
L 231.28377 -191.642314 
L 233.09499 -189.64562 
L 234.652791 -187.648926 
L 235.749237 -185.652231 
L 236.28 -183.655537 
L 236.265974 -181.658843 
L 235.825089 -179.662149 
L 235.115908 -177.665455 
L 234.276993 -175.66876 
L 233.393106 -173.672066 
L 232.502957 -171.675372 
L 231.623264 -169.678678 
L 230.759221 -167.681983 
L 229.905763 -165.685289 
L 229.053303 -163.688595 
L 228.19276 -161.691901 
L 227.317701 -159.695207 
L 226.43583 -157.698512 
L 225.587178 -155.701818 
L 224.842972 -153.705124 
L 224.270284 -151.70843 
L 223.883963 -149.711736 
L 223.627923 -147.715041 
L 223.40833 -145.718347 
L 223.155107 -143.721653 
L 222.861318 -141.724959 
L 222.572975 -139.728264 
L 222.34701 -137.73157 
L 222.213292 -135.734876 
L 222.161193 -133.738182 
L 222.150552 -131.741488 
L 222.136524 -129.744793 
L 222.093371 -127.748099 
L 222.022493 -125.751405 
L 221.94092 -123.754711 
L 221.863257 -121.758017 
L 221.7941 -119.761322 
L 221.733186 -117.764628 
L 221.682112 -115.767934 
L 221.644581 -113.77124 
L 221.621759 -111.774545 
L 221.608268 -109.777851 
L 221.593775 -107.781157 
L 221.570951 -105.784463 
L 221.542741 -103.787769 
L 221.519736 -101.791074 
L 221.508861 -99.79438 
L 221.505644 -97.797686 
L 221.498778 -95.800992 
L 221.481383 -93.804298 
L 221.456477 -91.807603 
L 221.432421 -89.810909 
L 221.415293 -87.814215 
L 221.405913 -85.817521 
L 221.401872 -83.820826 
L 221.400485 -81.824132 
L 221.400103 -79.827438 
L 221.400018 -77.830744 
L 221.400003 -75.83405 
L 221.4 -73.837355 
L 221.4 -71.840661 
L 221.4 -69.843967 
L 221.4 -67.847273 
L 221.400002 -65.850579 
L 221.400013 -63.853884 
L 221.400072 -61.85719 
L 221.400329 -59.860496 
L 221.401223 -57.863802 
L 221.40372 -55.867107 
L 221.409241 -53.870413 
L 221.418754 -51.873719 
L 221.431093 -49.877025 
L 221.44211 -47.880331 
L 221.446591 -45.883636 
z
" id="m95913d9957" style="stroke:#3d3d3d;stroke-width:1.5;"/>
    </defs>
    <g clip-path="url(#pcdd024a289)">
     <use style="fill:#e1812c;stroke:#3d3d3d;stroke-width:1.5;" x="0" xlink:href="#m95913d9957" y="288"/>
    </g>
   </g>
   <g id="PolyCollection_3">
    <defs>
     <path d="M 362.808987 -94.469003 
L 362.711013 -94.469003 
L 362.713024 -95.872543 
L 362.718527 -97.276084 
L 362.72436 -98.679625 
L 362.726515 -100.083165 
L 362.721218 -101.486706 
L 362.705881 -102.890247 
L 362.67983 -104.293788 
L 362.644698 -105.697328 
L 362.604249 -107.100869 
L 362.563401 -108.50441 
L 362.526621 -109.90795 
L 362.496324 -111.311491 
L 362.472095 -112.715032 
L 362.451316 -114.118573 
L 362.431104 -115.522113 
L 362.410694 -116.925654 
L 362.392831 -118.329195 
L 362.383003 -119.732735 
L 362.386468 -121.136276 
L 362.404526 -122.539817 
L 362.432273 -123.943358 
L 362.459406 -125.346898 
L 362.473783 -126.750439 
L 362.465685 -128.15398 
L 362.430468 -129.55752 
L 362.368741 -130.961061 
L 362.284963 -132.364602 
L 362.185829 -133.768143 
L 362.078789 -135.171683 
L 361.969919 -136.575224 
L 361.860764 -137.978765 
L 361.745569 -139.382305 
L 361.611449 -140.785846 
L 361.442718 -142.189387 
L 361.227348 -143.592928 
L 360.961337 -144.996468 
L 360.64792 -146.400009 
L 360.292574 -147.80355 
L 359.898166 -149.20709 
L 359.464703 -150.610631 
L 358.99461 -152.014172 
L 358.49968 -153.417713 
L 358.003224 -154.821253 
L 357.532996 -156.224794 
L 357.106804 -157.628335 
L 356.719306 -159.031875 
L 356.339686 -160.435416 
L 355.923606 -161.838957 
L 355.433353 -163.242498 
L 354.854863 -164.646038 
L 354.20305 -166.049579 
L 353.514363 -167.45312 
L 352.831683 -168.85666 
L 352.188345 -170.260201 
L 351.596686 -171.663742 
L 351.044726 -173.067283 
L 350.503158 -174.470823 
L 349.94234 -175.874364 
L 349.354565 -177.277905 
L 348.771918 -178.681446 
L 348.268485 -180.084986 
L 347.941699 -181.488527 
L 347.88 -182.892068 
L 348.134138 -184.295608 
L 348.70738 -185.699149 
L 349.565724 -187.10269 
L 350.65522 -188.506231 
L 351.912359 -189.909771 
L 353.264734 -191.313312 
L 354.630387 -192.716853 
L 355.924794 -194.120393 
L 357.075729 -195.523934 
L 358.0381 -196.927475 
L 358.800513 -198.331016 
L 359.381414 -199.734556 
L 359.818576 -201.138097 
L 360.157205 -202.541638 
L 360.439882 -203.945178 
L 360.699415 -205.348719 
L 360.954961 -206.75226 
L 361.211739 -208.155801 
L 361.464201 -209.559341 
L 361.701524 -210.962882 
L 361.913346 -212.366423 
L 362.093503 -213.769963 
L 362.240591 -215.173504 
L 362.356104 -216.577045 
L 362.442338 -217.980586 
L 362.501868 -219.384126 
L 362.538537 -220.787667 
L 362.558296 -222.191208 
L 362.568492 -223.594748 
L 362.575824 -224.998289 
L 362.58451 -226.40183 
L 362.595957 -227.805371 
L 362.609872 -229.208911 
L 362.62569 -230.612452 
L 362.643242 -232.015993 
L 362.662469 -233.419533 
L 362.857531 -233.419533 
L 362.857531 -233.419533 
L 362.876758 -232.015993 
L 362.89431 -230.612452 
L 362.910128 -229.208911 
L 362.924043 -227.805371 
L 362.93549 -226.40183 
L 362.944176 -224.998289 
L 362.951508 -223.594748 
L 362.961704 -222.191208 
L 362.981463 -220.787667 
L 363.018132 -219.384126 
L 363.077662 -217.980586 
L 363.163896 -216.577045 
L 363.279409 -215.173504 
L 363.426497 -213.769963 
L 363.606654 -212.366423 
L 363.818476 -210.962882 
L 364.055799 -209.559341 
L 364.308261 -208.155801 
L 364.565039 -206.75226 
L 364.820585 -205.348719 
L 365.080118 -203.945178 
L 365.362795 -202.541638 
L 365.701424 -201.138097 
L 366.138586 -199.734556 
L 366.719487 -198.331016 
L 367.4819 -196.927475 
L 368.444271 -195.523934 
L 369.595206 -194.120393 
L 370.889613 -192.716853 
L 372.255266 -191.313312 
L 373.607641 -189.909771 
L 374.86478 -188.506231 
L 375.954276 -187.10269 
L 376.81262 -185.699149 
L 377.385862 -184.295608 
L 377.64 -182.892068 
L 377.578301 -181.488527 
L 377.251515 -180.084986 
L 376.748082 -178.681446 
L 376.165435 -177.277905 
L 375.57766 -175.874364 
L 375.016842 -174.470823 
L 374.475274 -173.067283 
L 373.923314 -171.663742 
L 373.331655 -170.260201 
L 372.688317 -168.85666 
L 372.005637 -167.45312 
L 371.31695 -166.049579 
L 370.665137 -164.646038 
L 370.086647 -163.242498 
L 369.596394 -161.838957 
L 369.180314 -160.435416 
L 368.800694 -159.031875 
L 368.413196 -157.628335 
L 367.987004 -156.224794 
L 367.516776 -154.821253 
L 367.02032 -153.417713 
L 366.52539 -152.014172 
L 366.055297 -150.610631 
L 365.621834 -149.20709 
L 365.227426 -147.80355 
L 364.87208 -146.400009 
L 364.558663 -144.996468 
L 364.292652 -143.592928 
L 364.077282 -142.189387 
L 363.908551 -140.785846 
L 363.774431 -139.382305 
L 363.659236 -137.978765 
L 363.550081 -136.575224 
L 363.441211 -135.171683 
L 363.334171 -133.768143 
L 363.235037 -132.364602 
L 363.151259 -130.961061 
L 363.089532 -129.55752 
L 363.054315 -128.15398 
L 363.046217 -126.750439 
L 363.060594 -125.346898 
L 363.087727 -123.943358 
L 363.115474 -122.539817 
L 363.133532 -121.136276 
L 363.136997 -119.732735 
L 363.127169 -118.329195 
L 363.109306 -116.925654 
L 363.088896 -115.522113 
L 363.068684 -114.118573 
L 363.047905 -112.715032 
L 363.023676 -111.311491 
L 362.993379 -109.90795 
L 362.956599 -108.50441 
L 362.915751 -107.100869 
L 362.875302 -105.697328 
L 362.84017 -104.293788 
L 362.814119 -102.890247 
L 362.798782 -101.486706 
L 362.793485 -100.083165 
L 362.79564 -98.679625 
L 362.801473 -97.276084 
L 362.806976 -95.872543 
L 362.808987 -94.469003 
z
" id="ma035347ec7" style="stroke:#3d3d3d;stroke-width:1.5;"/>
    </defs>
    <g clip-path="url(#pcdd024a289)">
     <use style="fill:#3a923a;stroke:#3d3d3d;stroke-width:1.5;" x="0" xlink:href="#ma035347ec7" y="288"/>
    </g>
   </g>
   <g id="patch_3">
    <path clip-path="url(#pcdd024a289)" d="M 109.8 47.909722 
L 109.8 47.909722 
L 109.8 47.909722 
L 109.8 47.909722 
z
" style="fill:#3274a1;stroke:#3d3d3d;stroke-linejoin:miter;stroke-width:0.75;"/>
   </g>
   <g id="patch_4">
    <path clip-path="url(#pcdd024a289)" d="M 109.8 47.909722 
L 109.8 47.909722 
L 109.8 47.909722 
L 109.8 47.909722 
z
" style="fill:#e1812c;stroke:#3d3d3d;stroke-linejoin:miter;stroke-width:0.75;"/>
   </g>
   <g id="patch_5">
    <path clip-path="url(#pcdd024a289)" d="M 109.8 47.909722 
L 109.8 47.909722 
L 109.8 47.909722 
L 109.8 47.909722 
z
" style="fill:#3a923a;stroke:#3d3d3d;stroke-linejoin:miter;stroke-width:0.75;"/>
   </g>
   <g id="matplotlib.axis_1">
    <g id="xtick_1">
     <g id="line2d_1">
      <defs>
       <path d="M 0 0 
L 0 3.5 
" id="md09858b76f" style="stroke:#000000;stroke-width:0.8;"/>
      </defs>
      <g>
       <use style="stroke:#000000;stroke-width:0.8;" x="109.8" xlink:href="#md09858b76f" y="252"/>
      </g>
     </g>
     <g id="text_1">
      <!-- train -->
      <g transform="translate(98.1625 266.598437)scale(0.1 -0.1)">
       <defs>
        <path d="M 18.3125 70.21875 
L 18.3125 54.6875 
L 36.8125 54.6875 
L 36.8125 47.703125 
L 18.3125 47.703125 
L 18.3125 18.015625 
Q 18.3125 11.328125 20.140625 9.421875 
Q 21.96875 7.515625 27.59375 7.515625 
L 36.8125 7.515625 
L 36.8125 0 
L 27.59375 0 
Q 17.1875 0 13.234375 3.875 
Q 9.28125 7.765625 9.28125 18.015625 
L 9.28125 47.703125 
L 2.6875 47.703125 
L 2.6875 54.6875 
L 9.28125 54.6875 
L 9.28125 70.21875 
z
" id="DejaVuSans-116"/>
        <path d="M 41.109375 46.296875 
Q 39.59375 47.171875 37.8125 47.578125 
Q 36.03125 48 33.890625 48 
Q 26.265625 48 22.1875 43.046875 
Q 18.109375 38.09375 18.109375 28.8125 
L 18.109375 0 
L 9.078125 0 
L 9.078125 54.6875 
L 18.109375 54.6875 
L 18.109375 46.1875 
Q 20.953125 51.171875 25.484375 53.578125 
Q 30.03125 56 36.53125 56 
Q 37.453125 56 38.578125 55.875 
Q 39.703125 55.765625 41.0625 55.515625 
z
" id="DejaVuSans-114"/>
        <path d="M 34.28125 27.484375 
Q 23.390625 27.484375 19.1875 25 
Q 14.984375 22.515625 14.984375 16.5 
Q 14.984375 11.71875 18.140625 8.90625 
Q 21.296875 6.109375 26.703125 6.109375 
Q 34.1875 6.109375 38.703125 11.40625 
Q 43.21875 16.703125 43.21875 25.484375 
L 43.21875 27.484375 
z
M 52.203125 31.203125 
L 52.203125 0 
L 43.21875 0 
L 43.21875 8.296875 
Q 40.140625 3.328125 35.546875 0.953125 
Q 30.953125 -1.421875 24.3125 -1.421875 
Q 15.921875 -1.421875 10.953125 3.296875 
Q 6 8.015625 6 15.921875 
Q 6 25.140625 12.171875 29.828125 
Q 18.359375 34.515625 30.609375 34.515625 
L 43.21875 34.515625 
L 43.21875 35.40625 
Q 43.21875 41.609375 39.140625 45 
Q 35.0625 48.390625 27.6875 48.390625 
Q 23 48.390625 18.546875 47.265625 
Q 14.109375 46.140625 10.015625 43.890625 
L 10.015625 52.203125 
Q 14.9375 54.109375 19.578125 55.046875 
Q 24.21875 56 28.609375 56 
Q 40.484375 56 46.34375 49.84375 
Q 52.203125 43.703125 52.203125 31.203125 
z
" id="DejaVuSans-97"/>
        <path d="M 9.421875 54.6875 
L 18.40625 54.6875 
L 18.40625 0 
L 9.421875 0 
z
M 9.421875 75.984375 
L 18.40625 75.984375 
L 18.40625 64.59375 
L 9.421875 64.59375 
z
" id="DejaVuSans-105"/>
        <path d="M 54.890625 33.015625 
L 54.890625 0 
L 45.90625 0 
L 45.90625 32.71875 
Q 45.90625 40.484375 42.875 44.328125 
Q 39.84375 48.1875 33.796875 48.1875 
Q 26.515625 48.1875 22.3125 43.546875 
Q 18.109375 38.921875 18.109375 30.90625 
L 18.109375 0 
L 9.078125 0 
L 9.078125 54.6875 
L 18.109375 54.6875 
L 18.109375 46.1875 
Q 21.34375 51.125 25.703125 53.5625 
Q 30.078125 56 35.796875 56 
Q 45.21875 56 50.046875 50.171875 
Q 54.890625 44.34375 54.890625 33.015625 
z
" id="DejaVuSans-110"/>
       </defs>
       <use xlink:href="#DejaVuSans-116"/>
       <use x="39.208984" xlink:href="#DejaVuSans-114"/>
       <use x="80.322266" xlink:href="#DejaVuSans-97"/>
       <use x="141.601562" xlink:href="#DejaVuSans-105"/>
       <use x="169.384766" xlink:href="#DejaVuSans-110"/>
      </g>
     </g>
    </g>
    <g id="xtick_2">
     <g id="line2d_2">
      <g>
       <use style="stroke:#000000;stroke-width:0.8;" x="221.4" xlink:href="#md09858b76f" y="252"/>
      </g>
     </g>
     <g id="text_2">
      <!-- val -->
      <g transform="translate(213.9875 266.598437)scale(0.1 -0.1)">
       <defs>
        <path d="M 2.984375 54.6875 
L 12.5 54.6875 
L 29.59375 8.796875 
L 46.6875 54.6875 
L 56.203125 54.6875 
L 35.6875 0 
L 23.484375 0 
z
" id="DejaVuSans-118"/>
        <path d="M 9.421875 75.984375 
L 18.40625 75.984375 
L 18.40625 0 
L 9.421875 0 
z
" id="DejaVuSans-108"/>
       </defs>
       <use xlink:href="#DejaVuSans-118"/>
       <use x="59.179688" xlink:href="#DejaVuSans-97"/>
       <use x="120.458984" xlink:href="#DejaVuSans-108"/>
      </g>
     </g>
    </g>
    <g id="xtick_3">
     <g id="line2d_3">
      <g>
       <use style="stroke:#000000;stroke-width:0.8;" x="333" xlink:href="#md09858b76f" y="252"/>
      </g>
     </g>
     <g id="text_3">
      <!-- test -->
      <g transform="translate(323.398438 266.598437)scale(0.1 -0.1)">
       <defs>
        <path d="M 56.203125 29.59375 
L 56.203125 25.203125 
L 14.890625 25.203125 
Q 15.484375 15.921875 20.484375 11.0625 
Q 25.484375 6.203125 34.421875 6.203125 
Q 39.59375 6.203125 44.453125 7.46875 
Q 49.3125 8.734375 54.109375 11.28125 
L 54.109375 2.78125 
Q 49.265625 0.734375 44.1875 -0.34375 
Q 39.109375 -1.421875 33.890625 -1.421875 
Q 20.796875 -1.421875 13.15625 6.1875 
Q 5.515625 13.8125 5.515625 26.8125 
Q 5.515625 40.234375 12.765625 48.109375 
Q 20.015625 56 32.328125 56 
Q 43.359375 56 49.78125 48.890625 
Q 56.203125 41.796875 56.203125 29.59375 
z
M 47.21875 32.234375 
Q 47.125 39.59375 43.09375 43.984375 
Q 39.0625 48.390625 32.421875 48.390625 
Q 24.90625 48.390625 20.390625 44.140625 
Q 15.875 39.890625 15.1875 32.171875 
z
" id="DejaVuSans-101"/>
        <path d="M 44.28125 53.078125 
L 44.28125 44.578125 
Q 40.484375 46.53125 36.375 47.5 
Q 32.28125 48.484375 27.875 48.484375 
Q 21.1875 48.484375 17.84375 46.4375 
Q 14.5 44.390625 14.5 40.28125 
Q 14.5 37.15625 16.890625 35.375 
Q 19.28125 33.59375 26.515625 31.984375 
L 29.59375 31.296875 
Q 39.15625 29.25 43.1875 25.515625 
Q 47.21875 21.78125 47.21875 15.09375 
Q 47.21875 7.46875 41.1875 3.015625 
Q 35.15625 -1.421875 24.609375 -1.421875 
Q 20.21875 -1.421875 15.453125 -0.5625 
Q 10.6875 0.296875 5.421875 2 
L 5.421875 11.28125 
Q 10.40625 8.6875 15.234375 7.390625 
Q 20.0625 6.109375 24.8125 6.109375 
Q 31.15625 6.109375 34.5625 8.28125 
Q 37.984375 10.453125 37.984375 14.40625 
Q 37.984375 18.0625 35.515625 20.015625 
Q 33.0625 21.96875 24.703125 23.78125 
L 21.578125 24.515625 
Q 13.234375 26.265625 9.515625 29.90625 
Q 5.8125 33.546875 5.8125 39.890625 
Q 5.8125 47.609375 11.28125 51.796875 
Q 16.75 56 26.8125 56 
Q 31.78125 56 36.171875 55.265625 
Q 40.578125 54.546875 44.28125 53.078125 
z
" id="DejaVuSans-115"/>
       </defs>
       <use xlink:href="#DejaVuSans-116"/>
       <use x="39.208984" xlink:href="#DejaVuSans-101"/>
       <use x="100.732422" xlink:href="#DejaVuSans-115"/>
       <use x="152.832031" xlink:href="#DejaVuSans-116"/>
      </g>
     </g>
    </g>
    <g id="text_4">
     <!-- set -->
     <g transform="translate(213.758594 280.276563)scale(0.1 -0.1)">
      <use xlink:href="#DejaVuSans-115"/>
      <use x="52.099609" xlink:href="#DejaVuSans-101"/>
      <use x="113.623047" xlink:href="#DejaVuSans-116"/>
     </g>
    </g>
   </g>
   <g id="matplotlib.axis_2">
    <g id="ytick_1">
     <g id="line2d_4">
      <defs>
       <path d="M 0 0 
L -3.5 0 
" id="m847db13133" style="stroke:#000000;stroke-width:0.8;"/>
      </defs>
      <g>
       <use style="stroke:#000000;stroke-width:0.8;" x="54" xlink:href="#m847db13133" y="237.309718"/>
      </g>
     </g>
     <g id="text_5">
      <!-- −120 -->
      <g transform="translate(19.532812 241.108936)scale(0.1 -0.1)">
       <defs>
        <path d="M 10.59375 35.5 
L 73.1875 35.5 
L 73.1875 27.203125 
L 10.59375 27.203125 
z
" id="DejaVuSans-8722"/>
        <path d="M 12.40625 8.296875 
L 28.515625 8.296875 
L 28.515625 63.921875 
L 10.984375 60.40625 
L 10.984375 69.390625 
L 28.421875 72.90625 
L 38.28125 72.90625 
L 38.28125 8.296875 
L 54.390625 8.296875 
L 54.390625 0 
L 12.40625 0 
z
" id="DejaVuSans-49"/>
        <path d="M 19.1875 8.296875 
L 53.609375 8.296875 
L 53.609375 0 
L 7.328125 0 
L 7.328125 8.296875 
Q 12.9375 14.109375 22.625 23.890625 
Q 32.328125 33.6875 34.8125 36.53125 
Q 39.546875 41.84375 41.421875 45.53125 
Q 43.3125 49.21875 43.3125 52.78125 
Q 43.3125 58.59375 39.234375 62.25 
Q 35.15625 65.921875 28.609375 65.921875 
Q 23.96875 65.921875 18.8125 64.3125 
Q 13.671875 62.703125 7.8125 59.421875 
L 7.8125 69.390625 
Q 13.765625 71.78125 18.9375 73 
Q 24.125 74.21875 28.421875 74.21875 
Q 39.75 74.21875 46.484375 68.546875 
Q 53.21875 62.890625 53.21875 53.421875 
Q 53.21875 48.921875 51.53125 44.890625 
Q 49.859375 40.875 45.40625 35.40625 
Q 44.1875 33.984375 37.640625 27.21875 
Q 31.109375 20.453125 19.1875 8.296875 
z
" id="DejaVuSans-50"/>
        <path d="M 31.78125 66.40625 
Q 24.171875 66.40625 20.328125 58.90625 
Q 16.5 51.421875 16.5 36.375 
Q 16.5 21.390625 20.328125 13.890625 
Q 24.171875 6.390625 31.78125 6.390625 
Q 39.453125 6.390625 43.28125 13.890625 
Q 47.125 21.390625 47.125 36.375 
Q 47.125 51.421875 43.28125 58.90625 
Q 39.453125 66.40625 31.78125 66.40625 
z
M 31.78125 74.21875 
Q 44.046875 74.21875 50.515625 64.515625 
Q 56.984375 54.828125 56.984375 36.375 
Q 56.984375 17.96875 50.515625 8.265625 
Q 44.046875 -1.421875 31.78125 -1.421875 
Q 19.53125 -1.421875 13.0625 8.265625 
Q 6.59375 17.96875 6.59375 36.375 
Q 6.59375 54.828125 13.0625 64.515625 
Q 19.53125 74.21875 31.78125 74.21875 
z
" id="DejaVuSans-48"/>
       </defs>
       <use xlink:href="#DejaVuSans-8722"/>
       <use x="83.789062" xlink:href="#DejaVuSans-49"/>
       <use x="147.412109" xlink:href="#DejaVuSans-50"/>
       <use x="211.035156" xlink:href="#DejaVuSans-48"/>
      </g>
     </g>
    </g>
    <g id="ytick_2">
     <g id="line2d_5">
      <g>
       <use style="stroke:#000000;stroke-width:0.8;" x="54" xlink:href="#m847db13133" y="205.743052"/>
      </g>
     </g>
     <g id="text_6">
      <!-- −100 -->
      <g transform="translate(19.532812 209.54227)scale(0.1 -0.1)">
       <use xlink:href="#DejaVuSans-8722"/>
       <use x="83.789062" xlink:href="#DejaVuSans-49"/>
       <use x="147.412109" xlink:href="#DejaVuSans-48"/>
       <use x="211.035156" xlink:href="#DejaVuSans-48"/>
      </g>
     </g>
    </g>
    <g id="ytick_3">
     <g id="line2d_6">
      <g>
       <use style="stroke:#000000;stroke-width:0.8;" x="54" xlink:href="#m847db13133" y="174.176386"/>
      </g>
     </g>
     <g id="text_7">
      <!-- −80 -->
      <g transform="translate(25.895312 177.975604)scale(0.1 -0.1)">
       <defs>
        <path d="M 31.78125 34.625 
Q 24.75 34.625 20.71875 30.859375 
Q 16.703125 27.09375 16.703125 20.515625 
Q 16.703125 13.921875 20.71875 10.15625 
Q 24.75 6.390625 31.78125 6.390625 
Q 38.8125 6.390625 42.859375 10.171875 
Q 46.921875 13.96875 46.921875 20.515625 
Q 46.921875 27.09375 42.890625 30.859375 
Q 38.875 34.625 31.78125 34.625 
z
M 21.921875 38.8125 
Q 15.578125 40.375 12.03125 44.71875 
Q 8.5 49.078125 8.5 55.328125 
Q 8.5 64.0625 14.71875 69.140625 
Q 20.953125 74.21875 31.78125 74.21875 
Q 42.671875 74.21875 48.875 69.140625 
Q 55.078125 64.0625 55.078125 55.328125 
Q 55.078125 49.078125 51.53125 44.71875 
Q 48 40.375 41.703125 38.8125 
Q 48.828125 37.15625 52.796875 32.3125 
Q 56.78125 27.484375 56.78125 20.515625 
Q 56.78125 9.90625 50.3125 4.234375 
Q 43.84375 -1.421875 31.78125 -1.421875 
Q 19.734375 -1.421875 13.25 4.234375 
Q 6.78125 9.90625 6.78125 20.515625 
Q 6.78125 27.484375 10.78125 32.3125 
Q 14.796875 37.15625 21.921875 38.8125 
z
M 18.3125 54.390625 
Q 18.3125 48.734375 21.84375 45.5625 
Q 25.390625 42.390625 31.78125 42.390625 
Q 38.140625 42.390625 41.71875 45.5625 
Q 45.3125 48.734375 45.3125 54.390625 
Q 45.3125 60.0625 41.71875 63.234375 
Q 38.140625 66.40625 31.78125 66.40625 
Q 25.390625 66.40625 21.84375 63.234375 
Q 18.3125 60.0625 18.3125 54.390625 
z
" id="DejaVuSans-56"/>
       </defs>
       <use xlink:href="#DejaVuSans-8722"/>
       <use x="83.789062" xlink:href="#DejaVuSans-56"/>
       <use x="147.412109" xlink:href="#DejaVuSans-48"/>
      </g>
     </g>
    </g>
    <g id="ytick_4">
     <g id="line2d_7">
      <g>
       <use style="stroke:#000000;stroke-width:0.8;" x="54" xlink:href="#m847db13133" y="142.60972"/>
      </g>
     </g>
     <g id="text_8">
      <!-- −60 -->
      <g transform="translate(25.895312 146.408939)scale(0.1 -0.1)">
       <defs>
        <path d="M 33.015625 40.375 
Q 26.375 40.375 22.484375 35.828125 
Q 18.609375 31.296875 18.609375 23.390625 
Q 18.609375 15.53125 22.484375 10.953125 
Q 26.375 6.390625 33.015625 6.390625 
Q 39.65625 6.390625 43.53125 10.953125 
Q 47.40625 15.53125 47.40625 23.390625 
Q 47.40625 31.296875 43.53125 35.828125 
Q 39.65625 40.375 33.015625 40.375 
z
M 52.59375 71.296875 
L 52.59375 62.3125 
Q 48.875 64.0625 45.09375 64.984375 
Q 41.3125 65.921875 37.59375 65.921875 
Q 27.828125 65.921875 22.671875 59.328125 
Q 17.53125 52.734375 16.796875 39.40625 
Q 19.671875 43.65625 24.015625 45.921875 
Q 28.375 48.1875 33.59375 48.1875 
Q 44.578125 48.1875 50.953125 41.515625 
Q 57.328125 34.859375 57.328125 23.390625 
Q 57.328125 12.15625 50.6875 5.359375 
Q 44.046875 -1.421875 33.015625 -1.421875 
Q 20.359375 -1.421875 13.671875 8.265625 
Q 6.984375 17.96875 6.984375 36.375 
Q 6.984375 53.65625 15.1875 63.9375 
Q 23.390625 74.21875 37.203125 74.21875 
Q 40.921875 74.21875 44.703125 73.484375 
Q 48.484375 72.75 52.59375 71.296875 
z
" id="DejaVuSans-54"/>
       </defs>
       <use xlink:href="#DejaVuSans-8722"/>
       <use x="83.789062" xlink:href="#DejaVuSans-54"/>
       <use x="147.412109" xlink:href="#DejaVuSans-48"/>
      </g>
     </g>
    </g>
    <g id="ytick_5">
     <g id="line2d_8">
      <g>
       <use style="stroke:#000000;stroke-width:0.8;" x="54" xlink:href="#m847db13133" y="111.043054"/>
      </g>
     </g>
     <g id="text_9">
      <!-- −40 -->
      <g transform="translate(25.895312 114.842273)scale(0.1 -0.1)">
       <defs>
        <path d="M 37.796875 64.3125 
L 12.890625 25.390625 
L 37.796875 25.390625 
z
M 35.203125 72.90625 
L 47.609375 72.90625 
L 47.609375 25.390625 
L 58.015625 25.390625 
L 58.015625 17.1875 
L 47.609375 17.1875 
L 47.609375 0 
L 37.796875 0 
L 37.796875 17.1875 
L 4.890625 17.1875 
L 4.890625 26.703125 
z
" id="DejaVuSans-52"/>
       </defs>
       <use xlink:href="#DejaVuSans-8722"/>
       <use x="83.789062" xlink:href="#DejaVuSans-52"/>
       <use x="147.412109" xlink:href="#DejaVuSans-48"/>
      </g>
     </g>
    </g>
    <g id="ytick_6">
     <g id="line2d_9">
      <g>
       <use style="stroke:#000000;stroke-width:0.8;" x="54" xlink:href="#m847db13133" y="79.476388"/>
      </g>
     </g>
     <g id="text_10">
      <!-- −20 -->
      <g transform="translate(25.895312 83.275607)scale(0.1 -0.1)">
       <use xlink:href="#DejaVuSans-8722"/>
       <use x="83.789062" xlink:href="#DejaVuSans-50"/>
       <use x="147.412109" xlink:href="#DejaVuSans-48"/>
      </g>
     </g>
    </g>
    <g id="ytick_7">
     <g id="line2d_10">
      <g>
       <use style="stroke:#000000;stroke-width:0.8;" x="54" xlink:href="#m847db13133" y="47.909722"/>
      </g>
     </g>
     <g id="text_11">
      <!-- 0 -->
      <g transform="translate(40.6375 51.708941)scale(0.1 -0.1)">
       <use xlink:href="#DejaVuSans-48"/>
      </g>
     </g>
    </g>
    <g id="text_12">
     <!-- value -->
     <g transform="translate(13.453125 156.937813)rotate(-90)scale(0.1 -0.1)">
      <defs>
       <path d="M 8.5 21.578125 
L 8.5 54.6875 
L 17.484375 54.6875 
L 17.484375 21.921875 
Q 17.484375 14.15625 20.5 10.265625 
Q 23.53125 6.390625 29.59375 6.390625 
Q 36.859375 6.390625 41.078125 11.03125 
Q 45.3125 15.671875 45.3125 23.6875 
L 45.3125 54.6875 
L 54.296875 54.6875 
L 54.296875 0 
L 45.3125 0 
L 45.3125 8.40625 
Q 42.046875 3.421875 37.71875 1 
Q 33.40625 -1.421875 27.6875 -1.421875 
Q 18.265625 -1.421875 13.375 4.4375 
Q 8.5 10.296875 8.5 21.578125 
z
M 31.109375 56 
z
" id="DejaVuSans-117"/>
      </defs>
      <use xlink:href="#DejaVuSans-118"/>
      <use x="59.179688" xlink:href="#DejaVuSans-97"/>
      <use x="120.458984" xlink:href="#DejaVuSans-108"/>
      <use x="148.242188" xlink:href="#DejaVuSans-117"/>
      <use x="211.621094" xlink:href="#DejaVuSans-101"/>
     </g>
    </g>
   </g>
   <g id="line2d_11">
    <path clip-path="url(#pcdd024a289)" d="M 80.04 148.388646 
L 80.04 72.631279 
" style="fill:none;stroke:#3d3d3d;stroke-linecap:square;stroke-width:1.5;"/>
   </g>
   <g id="line2d_12">
    <path clip-path="url(#pcdd024a289)" d="M 80.04 120.041568 
L 80.04 101.041004 
" style="fill:none;stroke:#3d3d3d;stroke-linecap:square;stroke-width:4.5;"/>
   </g>
   <g id="line2d_13">
    <path clip-path="url(#pcdd024a289)" d="M 221.4 149.963984 
L 221.4 72.957103 
" style="fill:none;stroke:#3d3d3d;stroke-linecap:square;stroke-width:1.5;"/>
   </g>
   <g id="line2d_14">
    <path clip-path="url(#pcdd024a289)" d="M 221.4 120.683957 
L 221.4 100.900321 
" style="fill:none;stroke:#3d3d3d;stroke-linecap:square;stroke-width:4.5;"/>
   </g>
   <g id="line2d_15">
    <path clip-path="url(#pcdd024a289)" d="M 362.76 150.052096 
L 362.76 72.426446 
" style="fill:none;stroke:#3d3d3d;stroke-linecap:square;stroke-width:1.5;"/>
   </g>
   <g id="line2d_16">
    <path clip-path="url(#pcdd024a289)" d="M 362.76 120.913413 
L 362.76 101.380909 
" style="fill:none;stroke:#3d3d3d;stroke-linecap:square;stroke-width:4.5;"/>
   </g>
   <g id="patch_6">
    <path d="M 54 252 
L 54 34.56 
" style="fill:none;stroke:#000000;stroke-linecap:square;stroke-linejoin:miter;stroke-width:0.8;"/>
   </g>
   <g id="patch_7">
    <path d="M 388.8 252 
L 388.8 34.56 
" style="fill:none;stroke:#000000;stroke-linecap:square;stroke-linejoin:miter;stroke-width:0.8;"/>
   </g>
   <g id="patch_8">
    <path d="M 54 252 
L 388.8 252 
" style="fill:none;stroke:#000000;stroke-linecap:square;stroke-linejoin:miter;stroke-width:0.8;"/>
   </g>
   <g id="patch_9">
    <path d="M 54 34.56 
L 388.8 34.56 
" style="fill:none;stroke:#000000;stroke-linecap:square;stroke-linejoin:miter;stroke-width:0.8;"/>
   </g>
   <g id="PathCollection_1">
    <defs>
     <path d="M 0 1.5 
C 0.397805 1.5 0.77937 1.341951 1.06066 1.06066 
C 1.341951 0.77937 1.5 0.397805 1.5 0 
C 1.5 -0.397805 1.341951 -0.77937 1.06066 -1.06066 
C 0.77937 -1.341951 0.397805 -1.5 0 -1.5 
C -0.397805 -1.5 -0.77937 -1.341951 -1.06066 -1.06066 
C -1.341951 -0.77937 -1.5 -0.397805 -1.5 0 
C -1.5 0.397805 -1.341951 0.77937 -1.06066 1.06066 
C -0.77937 1.341951 -0.397805 1.5 0 1.5 
z
" id="m8b2738af14" style="stroke:#3d3d3d;"/>
    </defs>
    <g clip-path="url(#pcdd024a289)">
     <use style="fill:#ffffff;stroke:#3d3d3d;" x="80.04" xlink:href="#m8b2738af14" y="109.078173"/>
    </g>
   </g>
   <g id="PathCollection_2">
    <g clip-path="url(#pcdd024a289)">
     <use style="fill:#ffffff;stroke:#3d3d3d;" x="221.4" xlink:href="#m8b2738af14" y="109.327116"/>
    </g>
   </g>
   <g id="PathCollection_3">
    <g clip-path="url(#pcdd024a289)">
     <use style="fill:#ffffff;stroke:#3d3d3d;" x="362.76" xlink:href="#m8b2738af14" y="109.601184"/>
    </g>
   </g>
   <g id="legend_1">
    <g id="patch_10">
     <path d="M 61 247 
L 116.275 247 
Q 118.275 247 118.275 245 
L 118.275 187.2875 
Q 118.275 185.2875 116.275 185.2875 
L 61 185.2875 
Q 59 185.2875 59 187.2875 
L 59 245 
Q 59 247 61 247 
z
" style="fill:#ffffff;opacity:0.8;stroke:#cccccc;stroke-linejoin:miter;"/>
    </g>
    <g id="text_13">
     <!-- set -->
     <g transform="translate(80.996094 196.885938)scale(0.1 -0.1)">
      <use xlink:href="#DejaVuSans-115"/>
      <use x="52.099609" xlink:href="#DejaVuSans-101"/>
      <use x="113.623047" xlink:href="#DejaVuSans-116"/>
     </g>
    </g>
    <g id="patch_11">
     <path d="M 63 211.564063 
L 83 211.564063 
L 83 204.564063 
L 63 204.564063 
z
" style="fill:#3274a1;stroke:#3d3d3d;stroke-linejoin:miter;stroke-width:0.75;"/>
    </g>
    <g id="text_14">
     <!-- train -->
     <g transform="translate(91 211.564063)scale(0.1 -0.1)">
      <use xlink:href="#DejaVuSans-116"/>
      <use x="39.208984" xlink:href="#DejaVuSans-114"/>
      <use x="80.322266" xlink:href="#DejaVuSans-97"/>
      <use x="141.601562" xlink:href="#DejaVuSans-105"/>
      <use x="169.384766" xlink:href="#DejaVuSans-110"/>
     </g>
    </g>
    <g id="patch_12">
     <path d="M 63 226.242188 
L 83 226.242188 
L 83 219.242188 
L 63 219.242188 
z
" style="fill:#e1812c;stroke:#3d3d3d;stroke-linejoin:miter;stroke-width:0.75;"/>
    </g>
    <g id="text_15">
     <!-- val -->
     <g transform="translate(91 226.242188)scale(0.1 -0.1)">
      <use xlink:href="#DejaVuSans-118"/>
      <use x="59.179688" xlink:href="#DejaVuSans-97"/>
      <use x="120.458984" xlink:href="#DejaVuSans-108"/>
     </g>
    </g>
    <g id="patch_13">
     <path d="M 63 240.920313 
L 83 240.920313 
L 83 233.920313 
L 63 233.920313 
z
" style="fill:#3a923a;stroke:#3d3d3d;stroke-linejoin:miter;stroke-width:0.75;"/>
    </g>
    <g id="text_16">
     <!-- test -->
     <g transform="translate(91 240.920313)scale(0.1 -0.1)">
      <use xlink:href="#DejaVuSans-116"/>
      <use x="39.208984" xlink:href="#DejaVuSans-101"/>
      <use x="100.732422" xlink:href="#DejaVuSans-115"/>
      <use x="152.832031" xlink:href="#DejaVuSans-116"/>
     </g>
    </g>
   </g>
  </g>
 </g>
 <defs>
  <clipPath id="pcdd024a289">
   <rect height="217.44" width="334.8" x="54" y="34.56"/>
  </clipPath>
 </defs>
</svg>
