<?xml version="1.0" encoding="utf-8" standalone="no"?>
<!DOCTYPE svg PUBLIC "-//W3C//DTD SVG 1.1//EN"
  "http://www.w3.org/Graphics/SVG/1.1/DTD/svg11.dtd">
<!-- Created with matplotlib (https://matplotlib.org/) -->
<svg height="288pt" version="1.1" viewBox="0 0 432 288" width="432pt" xmlns="http://www.w3.org/2000/svg" xmlns:xlink="http://www.w3.org/1999/xlink">
 <metadata>
  <rdf:RDF xmlns:cc="http://creativecommons.org/ns#" xmlns:dc="http://purl.org/dc/elements/1.1/" xmlns:rdf="http://www.w3.org/1999/02/22-rdf-syntax-ns#">
   <cc:Work>
    <dc:type rdf:resource="http://purl.org/dc/dcmitype/StillImage"/>
    <dc:date>2021-07-13T17:33:50.880656</dc:date>
    <dc:format>image/svg+xml</dc:format>
    <dc:creator>
     <cc:Agent>
      <dc:title>Matplotlib v3.3.4, https://matplotlib.org/</dc:title>
     </cc:Agent>
    </dc:creator>
   </cc:Work>
  </rdf:RDF>
 </metadata>
 <defs>
  <style type="text/css">*{stroke-linecap:butt;stroke-linejoin:round;}</style>
 </defs>
 <g id="figure_1">
  <g id="patch_1">
   <path d="M 0 288 
L 432 288 
L 432 0 
L 0 0 
z
" style="fill:#ffffff;"/>
  </g>
  <g id="axes_1">
   <g id="patch_2">
    <path d="M 54 252 
L 388.8 252 
L 388.8 34.56 
L 54 34.56 
z
" style="fill:#ffffff;"/>
   </g>
   <g id="PolyCollection_1">
    <defs>
     <path d="M 80.128093 -92.607755 
L 79.951907 -92.607755 
L 79.897634 -94.132489 
L 79.816136 -95.657222 
L 79.697856 -97.181956 
L 79.531722 -98.706689 
L 79.304225 -100.231422 
L 78.998212 -101.756156 
L 78.593614 -103.280889 
L 78.072468 -104.805623 
L 77.426654 -106.330356 
L 76.661688 -107.855089 
L 75.791401 -109.379823 
L 74.82815 -110.904556 
L 73.780301 -112.42929 
L 72.661847 -113.954023 
L 71.503852 -115.478757 
L 70.353021 -117.00349 
L 69.256939 -118.528223 
L 68.251922 -120.052957 
L 67.365759 -121.57769 
L 66.627114 -123.102424 
L 66.062978 -124.627157 
L 65.68075 -126.15189 
L 65.453418 -127.676624 
L 65.326872 -129.201357 
L 65.24705 -130.726091 
L 65.187323 -132.250824 
L 65.16 -133.775558 
L 65.210085 -135.300291 
L 65.396808 -136.825024 
L 65.768115 -138.349758 
L 66.335955 -139.874491 
L 67.065999 -141.399225 
L 67.89149 -142.923958 
L 68.743568 -144.448691 
L 69.575943 -145.973425 
L 70.367866 -147.498158 
L 71.110531 -149.022892 
L 71.794818 -150.547625 
L 72.410996 -152.072359 
L 72.95595 -153.597092 
L 73.437523 -155.121825 
L 73.870823 -156.646559 
L 74.269172 -158.171292 
L 74.63665 -159.696026 
L 74.968385 -161.220759 
L 75.259364 -162.745492 
L 75.515099 -164.270226 
L 75.754134 -165.794959 
L 75.998077 -167.319693 
L 76.255923 -168.844426 
L 76.515522 -170.36916 
L 76.750118 -171.893893 
L 76.93659 -173.418626 
L 77.073319 -174.94336 
L 77.18506 -176.468093 
L 77.310235 -177.992827 
L 77.478688 -179.51756 
L 77.695859 -181.042294 
L 77.944228 -182.567027 
L 78.198078 -184.09176 
L 78.437758 -185.616494 
L 78.653914 -187.141227 
L 78.843649 -188.665961 
L 79.006433 -190.190694 
L 79.144001 -191.715427 
L 79.262178 -193.240161 
L 79.370415 -194.764894 
L 79.477431 -196.289628 
L 79.585618 -197.814361 
L 79.688954 -199.339095 
L 79.776834 -200.863828 
L 79.841172 -202.388561 
L 79.881179 -203.913295 
L 79.902665 -205.438028 
L 79.913685 -206.962762 
L 79.920667 -208.487495 
L 79.927387 -210.012228 
L 79.935997 -211.536962 
L 79.947945 -213.061695 
L 79.963699 -214.586429 
L 79.982016 -216.111162 
L 80.000065 -217.635896 
L 80.014693 -219.160629 
L 80.023838 -220.685362 
L 80.027168 -222.210096 
L 80.02589 -223.734829 
L 80.022229 -225.259563 
L 80.018773 -226.784296 
L 80.01762 -228.309029 
L 80.019558 -229.833763 
L 80.02382 -231.358496 
L 80.028656 -232.88323 
L 80.032278 -234.407963 
L 80.03352 -235.932697 
L 80.032021 -237.45743 
L 80.02822 -238.982163 
L 80.023358 -240.506897 
L 80.019265 -242.03163 
L 80.017669 -243.556364 
L 80.062331 -243.556364 
L 80.062331 -243.556364 
L 80.060735 -242.03163 
L 80.056642 -240.506897 
L 80.05178 -238.982163 
L 80.047979 -237.45743 
L 80.04648 -235.932697 
L 80.047722 -234.407963 
L 80.051344 -232.88323 
L 80.05618 -231.358496 
L 80.060442 -229.833763 
L 80.06238 -228.309029 
L 80.061227 -226.784296 
L 80.057771 -225.259563 
L 80.05411 -223.734829 
L 80.052832 -222.210096 
L 80.056162 -220.685362 
L 80.065307 -219.160629 
L 80.079935 -217.635896 
L 80.097984 -216.111162 
L 80.116301 -214.586429 
L 80.132055 -213.061695 
L 80.144003 -211.536962 
L 80.152613 -210.012228 
L 80.159333 -208.487495 
L 80.166315 -206.962762 
L 80.177335 -205.438028 
L 80.198821 -203.913295 
L 80.238828 -202.388561 
L 80.303166 -200.863828 
L 80.391046 -199.339095 
L 80.494382 -197.814361 
L 80.602569 -196.289628 
L 80.709585 -194.764894 
L 80.817822 -193.240161 
L 80.935999 -191.715427 
L 81.073567 -190.190694 
L 81.236351 -188.665961 
L 81.426086 -187.141227 
L 81.642242 -185.616494 
L 81.881922 -184.09176 
L 82.135772 -182.567027 
L 82.384141 -181.042294 
L 82.601312 -179.51756 
L 82.769765 -177.992827 
L 82.89494 -176.468093 
L 83.006681 -174.94336 
L 83.14341 -173.418626 
L 83.329882 -171.893893 
L 83.564478 -170.36916 
L 83.824077 -168.844426 
L 84.081923 -167.319693 
L 84.325866 -165.794959 
L 84.564901 -164.270226 
L 84.820636 -162.745492 
L 85.111615 -161.220759 
L 85.44335 -159.696026 
L 85.810828 -158.171292 
L 86.209177 -156.646559 
L 86.642477 -155.121825 
L 87.12405 -153.597092 
L 87.669004 -152.072359 
L 88.285182 -150.547625 
L 88.969469 -149.022892 
L 89.712134 -147.498158 
L 90.504057 -145.973425 
L 91.336432 -144.448691 
L 92.18851 -142.923958 
L 93.014001 -141.399225 
L 93.744045 -139.874491 
L 94.311885 -138.349758 
L 94.683192 -136.825024 
L 94.869915 -135.300291 
L 94.92 -133.775558 
L 94.892677 -132.250824 
L 94.83295 -130.726091 
L 94.753128 -129.201357 
L 94.626582 -127.676624 
L 94.39925 -126.15189 
L 94.017022 -124.627157 
L 93.452886 -123.102424 
L 92.714241 -121.57769 
L 91.828078 -120.052957 
L 90.823061 -118.528223 
L 89.726979 -117.00349 
L 88.576148 -115.478757 
L 87.418153 -113.954023 
L 86.299699 -112.42929 
L 85.25185 -110.904556 
L 84.288599 -109.379823 
L 83.418312 -107.855089 
L 82.653346 -106.330356 
L 82.007532 -104.805623 
L 81.486386 -103.280889 
L 81.081788 -101.756156 
L 80.775775 -100.231422 
L 80.548278 -98.706689 
L 80.382144 -97.181956 
L 80.263864 -95.657222 
L 80.182366 -94.132489 
L 80.128093 -92.607755 
z
" id="me5293929cd" style="stroke:#3d3d3d;stroke-width:1.5;"/>
    </defs>
    <g clip-path="url(#pbc13fa72b4)">
     <use style="fill:#3274a1;stroke:#3d3d3d;stroke-width:1.5;" x="0" xlink:href="#me5293929cd" y="288"/>
    </g>
   </g>
   <g id="PolyCollection_2">
    <defs>
     <path d="M 221.549433 -45.883636 
L 221.250567 -45.883636 
L 221.205128 -47.715461 
L 221.14893 -49.547286 
L 221.07867 -51.37911 
L 220.991481 -53.210935 
L 220.88609 -55.04276 
L 220.763472 -56.874584 
L 220.62651 -58.706409 
L 220.478632 -60.538234 
L 220.32195 -62.370058 
L 220.155696 -64.201883 
L 219.975624 -66.033708 
L 219.774589 -67.865532 
L 219.544105 -69.697357 
L 219.276556 -71.529182 
L 218.967608 -73.361006 
L 218.618088 -75.192831 
L 218.234226 -77.024656 
L 217.825315 -78.85648 
L 217.398983 -80.688305 
L 216.955971 -82.52013 
L 216.487331 -84.351954 
L 215.976277 -86.183779 
L 215.404612 -88.015604 
L 214.761085 -89.847428 
L 214.047792 -91.679253 
L 213.28158 -93.511078 
L 212.489684 -95.342902 
L 211.701435 -97.174727 
L 210.939635 -99.006552 
L 210.215534 -100.838376 
L 209.529965 -102.670201 
L 208.880233 -104.502026 
L 208.269181 -106.33385 
L 207.711227 -108.165675 
L 207.231712 -109.9975 
L 206.859819 -111.829324 
L 206.619054 -113.661149 
L 206.52 -115.492974 
L 206.557776 -117.324798 
L 206.713542 -119.156623 
L 206.958148 -120.988447 
L 207.256954 -122.820272 
L 207.576007 -124.652097 
L 207.889286 -126.483921 
L 208.185102 -128.315746 
L 208.468736 -130.147571 
L 208.75958 -131.979395 
L 209.083582 -133.81122 
L 209.463857 -135.643045 
L 209.912757 -137.474869 
L 210.427731 -139.306694 
L 210.991906 -141.138519 
L 211.578838 -142.970343 
L 212.159559 -144.802168 
L 212.709293 -146.633993 
L 213.211669 -148.465817 
L 213.65968 -150.297642 
L 214.054196 -152.129467 
L 214.401313 -153.961291 
L 214.70942 -155.793116 
L 214.986354 -157.624941 
L 215.23711 -159.456765 
L 215.462922 -161.28859 
L 215.662424 -163.120415 
L 215.834637 -164.952239 
L 215.982355 -166.784064 
L 216.11413 -168.615889 
L 216.243732 -170.447713 
L 216.38732 -172.279538 
L 216.559562 -174.111363 
L 216.770127 -175.943187 
L 217.021414 -177.775012 
L 217.307876 -179.606837 
L 217.61706 -181.438661 
L 217.932326 -183.270486 
L 218.236866 -185.102311 
L 218.517911 -186.934135 
L 218.769638 -188.76596 
L 218.993608 -190.597785 
L 219.196717 -192.429609 
L 219.38775 -194.261434 
L 219.574128 -196.093259 
L 219.759932 -197.925083 
L 219.945466 -199.756908 
L 220.127979 -201.588733 
L 220.303033 -203.420557 
L 220.466014 -205.252382 
L 220.61334 -207.084207 
L 220.743003 -208.916031 
L 220.854438 -210.747856 
L 220.948101 -212.579681 
L 221.0252 -214.411505 
L 221.087734 -216.24333 
L 221.138514 -218.075155 
L 221.18083 -219.906979 
L 221.21772 -221.738804 
L 221.251235 -223.570629 
L 221.28213 -225.402453 
L 221.310113 -227.234278 
L 221.489887 -227.234278 
L 221.489887 -227.234278 
L 221.51787 -225.402453 
L 221.548765 -223.570629 
L 221.58228 -221.738804 
L 221.61917 -219.906979 
L 221.661486 -218.075155 
L 221.712266 -216.24333 
L 221.7748 -214.411505 
L 221.851899 -212.579681 
L 221.945562 -210.747856 
L 222.056997 -208.916031 
L 222.18666 -207.084207 
L 222.333986 -205.252382 
L 222.496967 -203.420557 
L 222.672021 -201.588733 
L 222.854534 -199.756908 
L 223.040068 -197.925083 
L 223.225872 -196.093259 
L 223.41225 -194.261434 
L 223.603283 -192.429609 
L 223.806392 -190.597785 
L 224.030362 -188.76596 
L 224.282089 -186.934135 
L 224.563134 -185.102311 
L 224.867674 -183.270486 
L 225.18294 -181.438661 
L 225.492124 -179.606837 
L 225.778586 -177.775012 
L 226.029873 -175.943187 
L 226.240438 -174.111363 
L 226.41268 -172.279538 
L 226.556268 -170.447713 
L 226.68587 -168.615889 
L 226.817645 -166.784064 
L 226.965363 -164.952239 
L 227.137576 -163.120415 
L 227.337078 -161.28859 
L 227.56289 -159.456765 
L 227.813646 -157.624941 
L 228.09058 -155.793116 
L 228.398687 -153.961291 
L 228.745804 -152.129467 
L 229.14032 -150.297642 
L 229.588331 -148.465817 
L 230.090707 -146.633993 
L 230.640441 -144.802168 
L 231.221162 -142.970343 
L 231.808094 -141.138519 
L 232.372269 -139.306694 
L 232.887243 -137.474869 
L 233.336143 -135.643045 
L 233.716418 -133.81122 
L 234.04042 -131.979395 
L 234.331264 -130.147571 
L 234.614898 -128.315746 
L 234.910714 -126.483921 
L 235.223993 -124.652097 
L 235.543046 -122.820272 
L 235.841852 -120.988447 
L 236.086458 -119.156623 
L 236.242224 -117.324798 
L 236.28 -115.492974 
L 236.180946 -113.661149 
L 235.940181 -111.829324 
L 235.568288 -109.9975 
L 235.088773 -108.165675 
L 234.530819 -106.33385 
L 233.919767 -104.502026 
L 233.270035 -102.670201 
L 232.584466 -100.838376 
L 231.860365 -99.006552 
L 231.098565 -97.174727 
L 230.310316 -95.342902 
L 229.51842 -93.511078 
L 228.752208 -91.679253 
L 228.038915 -89.847428 
L 227.395388 -88.015604 
L 226.823723 -86.183779 
L 226.312669 -84.351954 
L 225.844029 -82.52013 
L 225.401017 -80.688305 
L 224.974685 -78.85648 
L 224.565774 -77.024656 
L 224.181912 -75.192831 
L 223.832392 -73.361006 
L 223.523444 -71.529182 
L 223.255895 -69.697357 
L 223.025411 -67.865532 
L 222.824376 -66.033708 
L 222.644304 -64.201883 
L 222.47805 -62.370058 
L 222.321368 -60.538234 
L 222.17349 -58.706409 
L 222.036528 -56.874584 
L 221.91391 -55.04276 
L 221.808519 -53.210935 
L 221.72133 -51.37911 
L 221.65107 -49.547286 
L 221.594872 -47.715461 
L 221.549433 -45.883636 
z
" id="mb32ad0cdf1" style="stroke:#3d3d3d;stroke-width:1.5;"/>
    </defs>
    <g clip-path="url(#pbc13fa72b4)">
     <use style="fill:#e1812c;stroke:#3d3d3d;stroke-width:1.5;" x="0" xlink:href="#mb32ad0cdf1" y="288"/>
    </g>
   </g>
   <g id="PolyCollection_3">
    <defs>
     <path d="M 362.782029 -91.649474 
L 362.737971 -91.649474 
L 362.742622 -93.010766 
L 362.75147 -94.372057 
L 362.757394 -95.733349 
L 362.759505 -97.09464 
L 362.759941 -98.455932 
L 362.759996 -99.817223 
L 362.76 -101.178515 
L 362.76 -102.539806 
L 362.76 -103.901097 
L 362.76 -105.262389 
L 362.759993 -106.62368 
L 362.759911 -107.984972 
L 362.759273 -109.346263 
L 362.75624 -110.707555 
L 362.74746 -112.068846 
L 362.73257 -113.430138 
L 362.719412 -114.791429 
L 362.715274 -116.15272 
L 362.710927 -117.514012 
L 362.689255 -118.875303 
L 362.649706 -120.236595 
L 362.601219 -121.597886 
L 362.5397 -122.959178 
L 362.453304 -124.320469 
L 362.337591 -125.681761 
L 362.187932 -127.043052 
L 361.975389 -128.404344 
L 361.671806 -129.765635 
L 361.296705 -131.126926 
L 360.882621 -132.488218 
L 360.397838 -133.849509 
L 359.747311 -135.210801 
L 358.865127 -136.572092 
L 357.786017 -137.933384 
L 356.588267 -139.294675 
L 355.237222 -140.655967 
L 353.659523 -142.017258 
L 352.018451 -143.378549 
L 350.625092 -144.739841 
L 349.609047 -146.101132 
L 348.882528 -147.462424 
L 348.305372 -148.823715 
L 347.88 -150.185007 
L 347.884674 -151.546298 
L 348.583264 -152.90759 
L 349.782003 -154.268881 
L 351.030263 -155.630172 
L 352.201106 -156.991464 
L 353.4304 -158.352755 
L 354.670209 -159.714047 
L 355.769769 -161.075338 
L 356.756709 -162.43663 
L 357.736638 -163.797921 
L 358.682413 -165.159213 
L 359.468448 -166.520504 
L 360.045534 -167.881796 
L 360.475497 -169.243087 
L 360.840593 -170.604378 
L 361.183268 -171.96567 
L 361.496488 -173.326961 
L 361.754537 -174.688253 
L 361.948063 -176.049544 
L 362.10278 -177.410836 
L 362.251714 -178.772127 
L 362.392105 -180.133419 
L 362.501218 -181.49471 
L 362.576189 -182.856001 
L 362.634541 -184.217293 
L 362.687623 -185.578584 
L 362.728841 -186.939876 
L 362.750122 -188.301167 
L 362.754639 -189.662459 
L 362.748959 -191.02375 
L 362.738797 -192.385042 
L 362.730307 -193.746333 
L 362.724396 -195.107625 
L 362.718695 -196.468916 
L 362.7171 -197.830207 
L 362.722781 -199.191499 
L 362.729439 -200.55279 
L 362.732861 -201.914082 
L 362.738306 -203.275373 
L 362.747659 -204.636665 
L 362.755468 -205.997956 
L 362.758954 -207.359248 
L 362.75985 -208.720539 
L 362.759987 -210.08183 
L 362.759999 -211.443122 
L 362.76 -212.804413 
L 362.76 -214.165705 
L 362.76 -215.526996 
L 362.76 -216.888288 
L 362.759996 -218.249579 
L 362.759941 -219.610871 
L 362.759505 -220.972162 
L 362.757394 -222.333453 
L 362.75147 -223.694745 
L 362.742622 -225.056036 
L 362.737971 -226.417328 
L 362.782029 -226.417328 
L 362.782029 -226.417328 
L 362.777378 -225.056036 
L 362.76853 -223.694745 
L 362.762606 -222.333453 
L 362.760495 -220.972162 
L 362.760059 -219.610871 
L 362.760004 -218.249579 
L 362.76 -216.888288 
L 362.76 -215.526996 
L 362.76 -214.165705 
L 362.76 -212.804413 
L 362.760001 -211.443122 
L 362.760013 -210.08183 
L 362.76015 -208.720539 
L 362.761046 -207.359248 
L 362.764532 -205.997956 
L 362.772341 -204.636665 
L 362.781694 -203.275373 
L 362.787139 -201.914082 
L 362.790561 -200.55279 
L 362.797219 -199.191499 
L 362.8029 -197.830207 
L 362.801305 -196.468916 
L 362.795604 -195.107625 
L 362.789693 -193.746333 
L 362.781203 -192.385042 
L 362.771041 -191.02375 
L 362.765361 -189.662459 
L 362.769878 -188.301167 
L 362.791159 -186.939876 
L 362.832377 -185.578584 
L 362.885459 -184.217293 
L 362.943811 -182.856001 
L 363.018782 -181.49471 
L 363.127895 -180.133419 
L 363.268286 -178.772127 
L 363.41722 -177.410836 
L 363.571937 -176.049544 
L 363.765463 -174.688253 
L 364.023512 -173.326961 
L 364.336732 -171.96567 
L 364.679407 -170.604378 
L 365.044503 -169.243087 
L 365.474466 -167.881796 
L 366.051552 -166.520504 
L 366.837587 -165.159213 
L 367.783362 -163.797921 
L 368.763291 -162.43663 
L 369.750231 -161.075338 
L 370.849791 -159.714047 
L 372.0896 -158.352755 
L 373.318894 -156.991464 
L 374.489737 -155.630172 
L 375.737997 -154.268881 
L 376.936736 -152.90759 
L 377.635326 -151.546298 
L 377.64 -150.185007 
L 377.214628 -148.823715 
L 376.637472 -147.462424 
L 375.910953 -146.101132 
L 374.894908 -144.739841 
L 373.501549 -143.378549 
L 371.860477 -142.017258 
L 370.282778 -140.655967 
L 368.931733 -139.294675 
L 367.733983 -137.933384 
L 366.654873 -136.572092 
L 365.772689 -135.210801 
L 365.122162 -133.849509 
L 364.637379 -132.488218 
L 364.223295 -131.126926 
L 363.848194 -129.765635 
L 363.544611 -128.404344 
L 363.332068 -127.043052 
L 363.182409 -125.681761 
L 363.066696 -124.320469 
L 362.9803 -122.959178 
L 362.918781 -121.597886 
L 362.870294 -120.236595 
L 362.830745 -118.875303 
L 362.809073 -117.514012 
L 362.804726 -116.15272 
L 362.800588 -114.791429 
L 362.78743 -113.430138 
L 362.77254 -112.068846 
L 362.76376 -110.707555 
L 362.760727 -109.346263 
L 362.760089 -107.984972 
L 362.760007 -106.62368 
L 362.76 -105.262389 
L 362.76 -103.901097 
L 362.76 -102.539806 
L 362.76 -101.178515 
L 362.760004 -99.817223 
L 362.760059 -98.455932 
L 362.760495 -97.09464 
L 362.762606 -95.733349 
L 362.76853 -94.372057 
L 362.777378 -93.010766 
L 362.782029 -91.649474 
z
" id="mbfc8d07bf5" style="stroke:#3d3d3d;stroke-width:1.5;"/>
    </defs>
    <g clip-path="url(#pbc13fa72b4)">
     <use style="fill:#3a923a;stroke:#3d3d3d;stroke-width:1.5;" x="0" xlink:href="#mbfc8d07bf5" y="288"/>
    </g>
   </g>
   <g id="patch_3">
    <path clip-path="url(#pbc13fa72b4)" d="M 109.8 46.081286 
L 109.8 46.081286 
L 109.8 46.081286 
L 109.8 46.081286 
z
" style="fill:#3274a1;stroke:#3d3d3d;stroke-linejoin:miter;stroke-width:0.75;"/>
   </g>
   <g id="patch_4">
    <path clip-path="url(#pbc13fa72b4)" d="M 109.8 46.081286 
L 109.8 46.081286 
L 109.8 46.081286 
L 109.8 46.081286 
z
" style="fill:#e1812c;stroke:#3d3d3d;stroke-linejoin:miter;stroke-width:0.75;"/>
   </g>
   <g id="patch_5">
    <path clip-path="url(#pbc13fa72b4)" d="M 109.8 46.081286 
L 109.8 46.081286 
L 109.8 46.081286 
L 109.8 46.081286 
z
" style="fill:#3a923a;stroke:#3d3d3d;stroke-linejoin:miter;stroke-width:0.75;"/>
   </g>
   <g id="matplotlib.axis_1">
    <g id="xtick_1">
     <g id="line2d_1">
      <defs>
       <path d="M 0 0 
L 0 3.5 
" id="m08d1d45ec6" style="stroke:#000000;stroke-width:0.8;"/>
      </defs>
      <g>
       <use style="stroke:#000000;stroke-width:0.8;" x="109.8" xlink:href="#m08d1d45ec6" y="252"/>
      </g>
     </g>
     <g id="text_1">
      <!-- Z_1_ns -->
      <g transform="translate(92.420312 266.320312)scale(0.1 -0.1)">
       <defs>
        <path d="M 5.609375 72.90625 
L 62.890625 72.90625 
L 62.890625 65.375 
L 16.796875 8.296875 
L 64.015625 8.296875 
L 64.015625 0 
L 4.5 0 
L 4.5 7.515625 
L 50.59375 64.59375 
L 5.609375 64.59375 
z
" id="DejaVuSans-90"/>
        <path d="M 50.984375 -16.609375 
L 50.984375 -23.578125 
L -0.984375 -23.578125 
L -0.984375 -16.609375 
z
" id="DejaVuSans-95"/>
        <path d="M 12.40625 8.296875 
L 28.515625 8.296875 
L 28.515625 63.921875 
L 10.984375 60.40625 
L 10.984375 69.390625 
L 28.421875 72.90625 
L 38.28125 72.90625 
L 38.28125 8.296875 
L 54.390625 8.296875 
L 54.390625 0 
L 12.40625 0 
z
" id="DejaVuSans-49"/>
        <path d="M 54.890625 33.015625 
L 54.890625 0 
L 45.90625 0 
L 45.90625 32.71875 
Q 45.90625 40.484375 42.875 44.328125 
Q 39.84375 48.1875 33.796875 48.1875 
Q 26.515625 48.1875 22.3125 43.546875 
Q 18.109375 38.921875 18.109375 30.90625 
L 18.109375 0 
L 9.078125 0 
L 9.078125 54.6875 
L 18.109375 54.6875 
L 18.109375 46.1875 
Q 21.34375 51.125 25.703125 53.5625 
Q 30.078125 56 35.796875 56 
Q 45.21875 56 50.046875 50.171875 
Q 54.890625 44.34375 54.890625 33.015625 
z
" id="DejaVuSans-110"/>
        <path d="M 44.28125 53.078125 
L 44.28125 44.578125 
Q 40.484375 46.53125 36.375 47.5 
Q 32.28125 48.484375 27.875 48.484375 
Q 21.1875 48.484375 17.84375 46.4375 
Q 14.5 44.390625 14.5 40.28125 
Q 14.5 37.15625 16.890625 35.375 
Q 19.28125 33.59375 26.515625 31.984375 
L 29.59375 31.296875 
Q 39.15625 29.25 43.1875 25.515625 
Q 47.21875 21.78125 47.21875 15.09375 
Q 47.21875 7.46875 41.1875 3.015625 
Q 35.15625 -1.421875 24.609375 -1.421875 
Q 20.21875 -1.421875 15.453125 -0.5625 
Q 10.6875 0.296875 5.421875 2 
L 5.421875 11.28125 
Q 10.40625 8.6875 15.234375 7.390625 
Q 20.0625 6.109375 24.8125 6.109375 
Q 31.15625 6.109375 34.5625 8.28125 
Q 37.984375 10.453125 37.984375 14.40625 
Q 37.984375 18.0625 35.515625 20.015625 
Q 33.0625 21.96875 24.703125 23.78125 
L 21.578125 24.515625 
Q 13.234375 26.265625 9.515625 29.90625 
Q 5.8125 33.546875 5.8125 39.890625 
Q 5.8125 47.609375 11.28125 51.796875 
Q 16.75 56 26.8125 56 
Q 31.78125 56 36.171875 55.265625 
Q 40.578125 54.546875 44.28125 53.078125 
z
" id="DejaVuSans-115"/>
       </defs>
       <use xlink:href="#DejaVuSans-90"/>
       <use x="68.505859" xlink:href="#DejaVuSans-95"/>
       <use x="118.505859" xlink:href="#DejaVuSans-49"/>
       <use x="182.128906" xlink:href="#DejaVuSans-95"/>
       <use x="232.128906" xlink:href="#DejaVuSans-110"/>
       <use x="295.507812" xlink:href="#DejaVuSans-115"/>
      </g>
     </g>
    </g>
    <g id="xtick_2">
     <g id="line2d_2">
      <g>
       <use style="stroke:#000000;stroke-width:0.8;" x="221.4" xlink:href="#m08d1d45ec6" y="252"/>
      </g>
     </g>
     <g id="text_2">
      <!-- Z_2_ns -->
      <g transform="translate(204.020312 266.421875)scale(0.1 -0.1)">
       <defs>
        <path d="M 19.1875 8.296875 
L 53.609375 8.296875 
L 53.609375 0 
L 7.328125 0 
L 7.328125 8.296875 
Q 12.9375 14.109375 22.625 23.890625 
Q 32.328125 33.6875 34.8125 36.53125 
Q 39.546875 41.84375 41.421875 45.53125 
Q 43.3125 49.21875 43.3125 52.78125 
Q 43.3125 58.59375 39.234375 62.25 
Q 35.15625 65.921875 28.609375 65.921875 
Q 23.96875 65.921875 18.8125 64.3125 
Q 13.671875 62.703125 7.8125 59.421875 
L 7.8125 69.390625 
Q 13.765625 71.78125 18.9375 73 
Q 24.125 74.21875 28.421875 74.21875 
Q 39.75 74.21875 46.484375 68.546875 
Q 53.21875 62.890625 53.21875 53.421875 
Q 53.21875 48.921875 51.53125 44.890625 
Q 49.859375 40.875 45.40625 35.40625 
Q 44.1875 33.984375 37.640625 27.21875 
Q 31.109375 20.453125 19.1875 8.296875 
z
" id="DejaVuSans-50"/>
       </defs>
       <use xlink:href="#DejaVuSans-90"/>
       <use x="68.505859" xlink:href="#DejaVuSans-95"/>
       <use x="118.505859" xlink:href="#DejaVuSans-50"/>
       <use x="182.128906" xlink:href="#DejaVuSans-95"/>
       <use x="232.128906" xlink:href="#DejaVuSans-110"/>
       <use x="295.507812" xlink:href="#DejaVuSans-115"/>
      </g>
     </g>
    </g>
    <g id="xtick_3">
     <g id="line2d_3">
      <g>
       <use style="stroke:#000000;stroke-width:0.8;" x="333" xlink:href="#m08d1d45ec6" y="252"/>
      </g>
     </g>
     <g id="text_3">
      <!-- Z_3_ns -->
      <g transform="translate(315.620313 266.421875)scale(0.1 -0.1)">
       <defs>
        <path d="M 40.578125 39.3125 
Q 47.65625 37.796875 51.625 33 
Q 55.609375 28.21875 55.609375 21.1875 
Q 55.609375 10.40625 48.1875 4.484375 
Q 40.765625 -1.421875 27.09375 -1.421875 
Q 22.515625 -1.421875 17.65625 -0.515625 
Q 12.796875 0.390625 7.625 2.203125 
L 7.625 11.71875 
Q 11.71875 9.328125 16.59375 8.109375 
Q 21.484375 6.890625 26.8125 6.890625 
Q 36.078125 6.890625 40.9375 10.546875 
Q 45.796875 14.203125 45.796875 21.1875 
Q 45.796875 27.640625 41.28125 31.265625 
Q 36.765625 34.90625 28.71875 34.90625 
L 20.21875 34.90625 
L 20.21875 43.015625 
L 29.109375 43.015625 
Q 36.375 43.015625 40.234375 45.921875 
Q 44.09375 48.828125 44.09375 54.296875 
Q 44.09375 59.90625 40.109375 62.90625 
Q 36.140625 65.921875 28.71875 65.921875 
Q 24.65625 65.921875 20.015625 65.03125 
Q 15.375 64.15625 9.8125 62.3125 
L 9.8125 71.09375 
Q 15.4375 72.65625 20.34375 73.4375 
Q 25.25 74.21875 29.59375 74.21875 
Q 40.828125 74.21875 47.359375 69.109375 
Q 53.90625 64.015625 53.90625 55.328125 
Q 53.90625 49.265625 50.4375 45.09375 
Q 46.96875 40.921875 40.578125 39.3125 
z
" id="DejaVuSans-51"/>
       </defs>
       <use xlink:href="#DejaVuSans-90"/>
       <use x="68.505859" xlink:href="#DejaVuSans-95"/>
       <use x="118.505859" xlink:href="#DejaVuSans-51"/>
       <use x="182.128906" xlink:href="#DejaVuSans-95"/>
       <use x="232.128906" xlink:href="#DejaVuSans-110"/>
       <use x="295.507812" xlink:href="#DejaVuSans-115"/>
      </g>
     </g>
    </g>
    <g id="text_4">
     <!-- set -->
     <g transform="translate(213.758594 280.378125)scale(0.1 -0.1)">
      <defs>
       <path d="M 56.203125 29.59375 
L 56.203125 25.203125 
L 14.890625 25.203125 
Q 15.484375 15.921875 20.484375 11.0625 
Q 25.484375 6.203125 34.421875 6.203125 
Q 39.59375 6.203125 44.453125 7.46875 
Q 49.3125 8.734375 54.109375 11.28125 
L 54.109375 2.78125 
Q 49.265625 0.734375 44.1875 -0.34375 
Q 39.109375 -1.421875 33.890625 -1.421875 
Q 20.796875 -1.421875 13.15625 6.1875 
Q 5.515625 13.8125 5.515625 26.8125 
Q 5.515625 40.234375 12.765625 48.109375 
Q 20.015625 56 32.328125 56 
Q 43.359375 56 49.78125 48.890625 
Q 56.203125 41.796875 56.203125 29.59375 
z
M 47.21875 32.234375 
Q 47.125 39.59375 43.09375 43.984375 
Q 39.0625 48.390625 32.421875 48.390625 
Q 24.90625 48.390625 20.390625 44.140625 
Q 15.875 39.890625 15.1875 32.171875 
z
" id="DejaVuSans-101"/>
       <path d="M 18.3125 70.21875 
L 18.3125 54.6875 
L 36.8125 54.6875 
L 36.8125 47.703125 
L 18.3125 47.703125 
L 18.3125 18.015625 
Q 18.3125 11.328125 20.140625 9.421875 
Q 21.96875 7.515625 27.59375 7.515625 
L 36.8125 7.515625 
L 36.8125 0 
L 27.59375 0 
Q 17.1875 0 13.234375 3.875 
Q 9.28125 7.765625 9.28125 18.015625 
L 9.28125 47.703125 
L 2.6875 47.703125 
L 2.6875 54.6875 
L 9.28125 54.6875 
L 9.28125 70.21875 
z
" id="DejaVuSans-116"/>
      </defs>
      <use xlink:href="#DejaVuSans-115"/>
      <use x="52.099609" xlink:href="#DejaVuSans-101"/>
      <use x="113.623047" xlink:href="#DejaVuSans-116"/>
     </g>
    </g>
   </g>
   <g id="matplotlib.axis_2">
    <g id="ytick_1">
     <g id="line2d_4">
      <defs>
       <path d="M 0 0 
L -3.5 0 
" id="m550291eed0" style="stroke:#000000;stroke-width:0.8;"/>
      </defs>
      <g>
       <use style="stroke:#000000;stroke-width:0.8;" x="54" xlink:href="#m550291eed0" y="242.146836"/>
      </g>
     </g>
     <g id="text_5">
      <!-- −17.5 -->
      <g transform="translate(16.354687 245.946055)scale(0.1 -0.1)">
       <defs>
        <path d="M 10.59375 35.5 
L 73.1875 35.5 
L 73.1875 27.203125 
L 10.59375 27.203125 
z
" id="DejaVuSans-8722"/>
        <path d="M 8.203125 72.90625 
L 55.078125 72.90625 
L 55.078125 68.703125 
L 28.609375 0 
L 18.3125 0 
L 43.21875 64.59375 
L 8.203125 64.59375 
z
" id="DejaVuSans-55"/>
        <path d="M 10.6875 12.40625 
L 21 12.40625 
L 21 0 
L 10.6875 0 
z
" id="DejaVuSans-46"/>
        <path d="M 10.796875 72.90625 
L 49.515625 72.90625 
L 49.515625 64.59375 
L 19.828125 64.59375 
L 19.828125 46.734375 
Q 21.96875 47.46875 24.109375 47.828125 
Q 26.265625 48.1875 28.421875 48.1875 
Q 40.625 48.1875 47.75 41.5 
Q 54.890625 34.8125 54.890625 23.390625 
Q 54.890625 11.625 47.5625 5.09375 
Q 40.234375 -1.421875 26.90625 -1.421875 
Q 22.3125 -1.421875 17.546875 -0.640625 
Q 12.796875 0.140625 7.71875 1.703125 
L 7.71875 11.625 
Q 12.109375 9.234375 16.796875 8.0625 
Q 21.484375 6.890625 26.703125 6.890625 
Q 35.15625 6.890625 40.078125 11.328125 
Q 45.015625 15.765625 45.015625 23.390625 
Q 45.015625 31 40.078125 35.4375 
Q 35.15625 39.890625 26.703125 39.890625 
Q 22.75 39.890625 18.8125 39.015625 
Q 14.890625 38.140625 10.796875 36.28125 
z
" id="DejaVuSans-53"/>
       </defs>
       <use xlink:href="#DejaVuSans-8722"/>
       <use x="83.789062" xlink:href="#DejaVuSans-49"/>
       <use x="147.412109" xlink:href="#DejaVuSans-55"/>
       <use x="211.035156" xlink:href="#DejaVuSans-46"/>
       <use x="242.822266" xlink:href="#DejaVuSans-53"/>
      </g>
     </g>
    </g>
    <g id="ytick_2">
     <g id="line2d_5">
      <g>
       <use style="stroke:#000000;stroke-width:0.8;" x="54" xlink:href="#m550291eed0" y="214.137472"/>
      </g>
     </g>
     <g id="text_6">
      <!-- −15.0 -->
      <g transform="translate(16.354687 217.936691)scale(0.1 -0.1)">
       <defs>
        <path d="M 31.78125 66.40625 
Q 24.171875 66.40625 20.328125 58.90625 
Q 16.5 51.421875 16.5 36.375 
Q 16.5 21.390625 20.328125 13.890625 
Q 24.171875 6.390625 31.78125 6.390625 
Q 39.453125 6.390625 43.28125 13.890625 
Q 47.125 21.390625 47.125 36.375 
Q 47.125 51.421875 43.28125 58.90625 
Q 39.453125 66.40625 31.78125 66.40625 
z
M 31.78125 74.21875 
Q 44.046875 74.21875 50.515625 64.515625 
Q 56.984375 54.828125 56.984375 36.375 
Q 56.984375 17.96875 50.515625 8.265625 
Q 44.046875 -1.421875 31.78125 -1.421875 
Q 19.53125 -1.421875 13.0625 8.265625 
Q 6.59375 17.96875 6.59375 36.375 
Q 6.59375 54.828125 13.0625 64.515625 
Q 19.53125 74.21875 31.78125 74.21875 
z
" id="DejaVuSans-48"/>
       </defs>
       <use xlink:href="#DejaVuSans-8722"/>
       <use x="83.789062" xlink:href="#DejaVuSans-49"/>
       <use x="147.412109" xlink:href="#DejaVuSans-53"/>
       <use x="211.035156" xlink:href="#DejaVuSans-46"/>
       <use x="242.822266" xlink:href="#DejaVuSans-48"/>
      </g>
     </g>
    </g>
    <g id="ytick_3">
     <g id="line2d_6">
      <g>
       <use style="stroke:#000000;stroke-width:0.8;" x="54" xlink:href="#m550291eed0" y="186.128108"/>
      </g>
     </g>
     <g id="text_7">
      <!-- −12.5 -->
      <g transform="translate(16.354687 189.927326)scale(0.1 -0.1)">
       <use xlink:href="#DejaVuSans-8722"/>
       <use x="83.789062" xlink:href="#DejaVuSans-49"/>
       <use x="147.412109" xlink:href="#DejaVuSans-50"/>
       <use x="211.035156" xlink:href="#DejaVuSans-46"/>
       <use x="242.822266" xlink:href="#DejaVuSans-53"/>
      </g>
     </g>
    </g>
    <g id="ytick_4">
     <g id="line2d_7">
      <g>
       <use style="stroke:#000000;stroke-width:0.8;" x="54" xlink:href="#m550291eed0" y="158.118743"/>
      </g>
     </g>
     <g id="text_8">
      <!-- −10.0 -->
      <g transform="translate(16.354687 161.917962)scale(0.1 -0.1)">
       <use xlink:href="#DejaVuSans-8722"/>
       <use x="83.789062" xlink:href="#DejaVuSans-49"/>
       <use x="147.412109" xlink:href="#DejaVuSans-48"/>
       <use x="211.035156" xlink:href="#DejaVuSans-46"/>
       <use x="242.822266" xlink:href="#DejaVuSans-48"/>
      </g>
     </g>
    </g>
    <g id="ytick_5">
     <g id="line2d_8">
      <g>
       <use style="stroke:#000000;stroke-width:0.8;" x="54" xlink:href="#m550291eed0" y="130.109379"/>
      </g>
     </g>
     <g id="text_9">
      <!-- −7.5 -->
      <g transform="translate(22.717187 133.908598)scale(0.1 -0.1)">
       <use xlink:href="#DejaVuSans-8722"/>
       <use x="83.789062" xlink:href="#DejaVuSans-55"/>
       <use x="147.412109" xlink:href="#DejaVuSans-46"/>
       <use x="179.199219" xlink:href="#DejaVuSans-53"/>
      </g>
     </g>
    </g>
    <g id="ytick_6">
     <g id="line2d_9">
      <g>
       <use style="stroke:#000000;stroke-width:0.8;" x="54" xlink:href="#m550291eed0" y="102.100015"/>
      </g>
     </g>
     <g id="text_10">
      <!-- −5.0 -->
      <g transform="translate(22.717187 105.899233)scale(0.1 -0.1)">
       <use xlink:href="#DejaVuSans-8722"/>
       <use x="83.789062" xlink:href="#DejaVuSans-53"/>
       <use x="147.412109" xlink:href="#DejaVuSans-46"/>
       <use x="179.199219" xlink:href="#DejaVuSans-48"/>
      </g>
     </g>
    </g>
    <g id="ytick_7">
     <g id="line2d_10">
      <g>
       <use style="stroke:#000000;stroke-width:0.8;" x="54" xlink:href="#m550291eed0" y="74.09065"/>
      </g>
     </g>
     <g id="text_11">
      <!-- −2.5 -->
      <g transform="translate(22.717187 77.889869)scale(0.1 -0.1)">
       <use xlink:href="#DejaVuSans-8722"/>
       <use x="83.789062" xlink:href="#DejaVuSans-50"/>
       <use x="147.412109" xlink:href="#DejaVuSans-46"/>
       <use x="179.199219" xlink:href="#DejaVuSans-53"/>
      </g>
     </g>
    </g>
    <g id="ytick_8">
     <g id="line2d_11">
      <g>
       <use style="stroke:#000000;stroke-width:0.8;" x="54" xlink:href="#m550291eed0" y="46.081286"/>
      </g>
     </g>
     <g id="text_12">
      <!-- 0.0 -->
      <g transform="translate(31.096875 49.880505)scale(0.1 -0.1)">
       <use xlink:href="#DejaVuSans-48"/>
       <use x="63.623047" xlink:href="#DejaVuSans-46"/>
       <use x="95.410156" xlink:href="#DejaVuSans-48"/>
      </g>
     </g>
    </g>
    <g id="text_13">
     <!-- value -->
     <g transform="translate(10.275 156.937813)rotate(-90)scale(0.1 -0.1)">
      <defs>
       <path d="M 2.984375 54.6875 
L 12.5 54.6875 
L 29.59375 8.796875 
L 46.6875 54.6875 
L 56.203125 54.6875 
L 35.6875 0 
L 23.484375 0 
z
" id="DejaVuSans-118"/>
       <path d="M 34.28125 27.484375 
Q 23.390625 27.484375 19.1875 25 
Q 14.984375 22.515625 14.984375 16.5 
Q 14.984375 11.71875 18.140625 8.90625 
Q 21.296875 6.109375 26.703125 6.109375 
Q 34.1875 6.109375 38.703125 11.40625 
Q 43.21875 16.703125 43.21875 25.484375 
L 43.21875 27.484375 
z
M 52.203125 31.203125 
L 52.203125 0 
L 43.21875 0 
L 43.21875 8.296875 
Q 40.140625 3.328125 35.546875 0.953125 
Q 30.953125 -1.421875 24.3125 -1.421875 
Q 15.921875 -1.421875 10.953125 3.296875 
Q 6 8.015625 6 15.921875 
Q 6 25.140625 12.171875 29.828125 
Q 18.359375 34.515625 30.609375 34.515625 
L 43.21875 34.515625 
L 43.21875 35.40625 
Q 43.21875 41.609375 39.140625 45 
Q 35.0625 48.390625 27.6875 48.390625 
Q 23 48.390625 18.546875 47.265625 
Q 14.109375 46.140625 10.015625 43.890625 
L 10.015625 52.203125 
Q 14.9375 54.109375 19.578125 55.046875 
Q 24.21875 56 28.609375 56 
Q 40.484375 56 46.34375 49.84375 
Q 52.203125 43.703125 52.203125 31.203125 
z
" id="DejaVuSans-97"/>
       <path d="M 9.421875 75.984375 
L 18.40625 75.984375 
L 18.40625 0 
L 9.421875 0 
z
" id="DejaVuSans-108"/>
       <path d="M 8.5 21.578125 
L 8.5 54.6875 
L 17.484375 54.6875 
L 17.484375 21.921875 
Q 17.484375 14.15625 20.5 10.265625 
Q 23.53125 6.390625 29.59375 6.390625 
Q 36.859375 6.390625 41.078125 11.03125 
Q 45.3125 15.671875 45.3125 23.6875 
L 45.3125 54.6875 
L 54.296875 54.6875 
L 54.296875 0 
L 45.3125 0 
L 45.3125 8.40625 
Q 42.046875 3.421875 37.71875 1 
Q 33.40625 -1.421875 27.6875 -1.421875 
Q 18.265625 -1.421875 13.375 4.4375 
Q 8.5 10.296875 8.5 21.578125 
z
M 31.109375 56 
z
" id="DejaVuSans-117"/>
      </defs>
      <use xlink:href="#DejaVuSans-118"/>
      <use x="59.179688" xlink:href="#DejaVuSans-97"/>
      <use x="120.458984" xlink:href="#DejaVuSans-108"/>
      <use x="148.242188" xlink:href="#DejaVuSans-117"/>
      <use x="211.621094" xlink:href="#DejaVuSans-101"/>
     </g>
    </g>
   </g>
   <g id="line2d_12">
    <path clip-path="url(#pbc13fa72b4)" d="M 80.04 195.392245 
L 80.04 101.122875 
" style="fill:none;stroke:#3d3d3d;stroke-linecap:square;stroke-width:1.5;"/>
   </g>
   <g id="line2d_13">
    <path clip-path="url(#pbc13fa72b4)" d="M 80.04 163.150111 
L 80.04 138.319911 
" style="fill:none;stroke:#3d3d3d;stroke-linecap:square;stroke-width:4.5;"/>
   </g>
   <g id="line2d_14">
    <path clip-path="url(#pbc13fa72b4)" d="M 221.4 236.645229 
L 221.4 83.296849 
" style="fill:none;stroke:#3d3d3d;stroke-linecap:square;stroke-width:1.5;"/>
   </g>
   <g id="line2d_15">
    <path clip-path="url(#pbc13fa72b4)" d="M 221.4 180.965943 
L 221.4 141.514404 
" style="fill:none;stroke:#3d3d3d;stroke-linecap:square;stroke-width:4.5;"/>
   </g>
   <g id="line2d_16">
    <path clip-path="url(#pbc13fa72b4)" d="M 362.76 161.115435 
L 362.76 113.137303 
" style="fill:none;stroke:#3d3d3d;stroke-linecap:square;stroke-width:1.5;"/>
   </g>
   <g id="line2d_17">
    <path clip-path="url(#pbc13fa72b4)" d="M 362.76 143.109435 
L 362.76 131.097761 
" style="fill:none;stroke:#3d3d3d;stroke-linecap:square;stroke-width:4.5;"/>
   </g>
   <g id="patch_6">
    <path d="M 54 252 
L 54 34.56 
" style="fill:none;stroke:#000000;stroke-linecap:square;stroke-linejoin:miter;stroke-width:0.8;"/>
   </g>
   <g id="patch_7">
    <path d="M 388.8 252 
L 388.8 34.56 
" style="fill:none;stroke:#000000;stroke-linecap:square;stroke-linejoin:miter;stroke-width:0.8;"/>
   </g>
   <g id="patch_8">
    <path d="M 54 252 
L 388.8 252 
" style="fill:none;stroke:#000000;stroke-linecap:square;stroke-linejoin:miter;stroke-width:0.8;"/>
   </g>
   <g id="patch_9">
    <path d="M 54 34.56 
L 388.8 34.56 
" style="fill:none;stroke:#000000;stroke-linecap:square;stroke-linejoin:miter;stroke-width:0.8;"/>
   </g>
   <g id="PathCollection_1">
    <defs>
     <path d="M 0 1.5 
C 0.397805 1.5 0.77937 1.341951 1.06066 1.06066 
C 1.341951 0.77937 1.5 0.397805 1.5 0 
C 1.5 -0.397805 1.341951 -0.77937 1.06066 -1.06066 
C 0.77937 -1.341951 0.397805 -1.5 0 -1.5 
C -0.397805 -1.5 -0.77937 -1.341951 -1.06066 -1.06066 
C -1.341951 -0.77937 -1.5 -0.397805 -1.5 0 
C -1.5 0.397805 -1.341951 0.77937 -1.06066 1.06066 
C -0.77937 1.341951 -0.397805 1.5 0 1.5 
z
" id="md4277d7b99" style="stroke:#3d3d3d;"/>
    </defs>
    <g clip-path="url(#pbc13fa72b4)">
     <use style="fill:#ffffff;stroke:#3d3d3d;" x="80.04" xlink:href="#md4277d7b99" y="151.845912"/>
    </g>
   </g>
   <g id="PathCollection_2">
    <g clip-path="url(#pbc13fa72b4)">
     <use style="fill:#ffffff;stroke:#3d3d3d;" x="221.4" xlink:href="#md4277d7b99" y="163.813776"/>
    </g>
   </g>
   <g id="PathCollection_3">
    <g clip-path="url(#pbc13fa72b4)">
     <use style="fill:#ffffff;stroke:#3d3d3d;" x="362.76" xlink:href="#md4277d7b99" y="137.267535"/>
    </g>
   </g>
   <g id="legend_1">
    <g id="patch_10">
     <path d="M 315.040625 102.106875 
L 381.8 102.106875 
Q 383.8 102.106875 383.8 100.106875 
L 383.8 41.56 
Q 383.8 39.56 381.8 39.56 
L 315.040625 39.56 
Q 313.040625 39.56 313.040625 41.56 
L 313.040625 100.106875 
Q 313.040625 102.106875 315.040625 102.106875 
z
" style="fill:#ffffff;opacity:0.8;stroke:#cccccc;stroke-linejoin:miter;"/>
    </g>
    <g id="text_14">
     <!-- set -->
     <g transform="translate(340.778906 51.158437)scale(0.1 -0.1)">
      <use xlink:href="#DejaVuSans-115"/>
      <use x="52.099609" xlink:href="#DejaVuSans-101"/>
      <use x="113.623047" xlink:href="#DejaVuSans-116"/>
     </g>
    </g>
    <g id="patch_11">
     <path d="M 317.040625 65.836562 
L 337.040625 65.836562 
L 337.040625 58.836562 
L 317.040625 58.836562 
z
" style="fill:#3274a1;stroke:#3d3d3d;stroke-linejoin:miter;stroke-width:0.75;"/>
    </g>
    <g id="text_15">
     <!-- Z_1_ns -->
     <g transform="translate(345.040625 65.836562)scale(0.1 -0.1)">
      <use xlink:href="#DejaVuSans-90"/>
      <use x="68.505859" xlink:href="#DejaVuSans-95"/>
      <use x="118.505859" xlink:href="#DejaVuSans-49"/>
      <use x="182.128906" xlink:href="#DejaVuSans-95"/>
      <use x="232.128906" xlink:href="#DejaVuSans-110"/>
      <use x="295.507812" xlink:href="#DejaVuSans-115"/>
     </g>
    </g>
    <g id="patch_12">
     <path d="M 317.040625 80.792812 
L 337.040625 80.792812 
L 337.040625 73.792812 
L 317.040625 73.792812 
z
" style="fill:#e1812c;stroke:#3d3d3d;stroke-linejoin:miter;stroke-width:0.75;"/>
    </g>
    <g id="text_16">
     <!-- Z_2_ns -->
     <g transform="translate(345.040625 80.792812)scale(0.1 -0.1)">
      <use xlink:href="#DejaVuSans-90"/>
      <use x="68.505859" xlink:href="#DejaVuSans-95"/>
      <use x="118.505859" xlink:href="#DejaVuSans-50"/>
      <use x="182.128906" xlink:href="#DejaVuSans-95"/>
      <use x="232.128906" xlink:href="#DejaVuSans-110"/>
      <use x="295.507812" xlink:href="#DejaVuSans-115"/>
     </g>
    </g>
    <g id="patch_13">
     <path d="M 317.040625 95.749062 
L 337.040625 95.749062 
L 337.040625 88.749062 
L 317.040625 88.749062 
z
" style="fill:#3a923a;stroke:#3d3d3d;stroke-linejoin:miter;stroke-width:0.75;"/>
    </g>
    <g id="text_17">
     <!-- Z_3_ns -->
     <g transform="translate(345.040625 95.749062)scale(0.1 -0.1)">
      <use xlink:href="#DejaVuSans-90"/>
      <use x="68.505859" xlink:href="#DejaVuSans-95"/>
      <use x="118.505859" xlink:href="#DejaVuSans-51"/>
      <use x="182.128906" xlink:href="#DejaVuSans-95"/>
      <use x="232.128906" xlink:href="#DejaVuSans-110"/>
      <use x="295.507812" xlink:href="#DejaVuSans-115"/>
     </g>
    </g>
   </g>
  </g>
 </g>
 <defs>
  <clipPath id="pbc13fa72b4">
   <rect height="217.44" width="334.8" x="54" y="34.56"/>
  </clipPath>
 </defs>
</svg>
