<?xml version="1.0" encoding="utf-8" standalone="no"?>
<!DOCTYPE svg PUBLIC "-//W3C//DTD SVG 1.1//EN"
  "http://www.w3.org/Graphics/SVG/1.1/DTD/svg11.dtd">
<!-- Created with matplotlib (https://matplotlib.org/) -->
<svg height="288pt" version="1.1" viewBox="0 0 432 288" width="432pt" xmlns="http://www.w3.org/2000/svg" xmlns:xlink="http://www.w3.org/1999/xlink">
 <metadata>
  <rdf:RDF xmlns:cc="http://creativecommons.org/ns#" xmlns:dc="http://purl.org/dc/elements/1.1/" xmlns:rdf="http://www.w3.org/1999/02/22-rdf-syntax-ns#">
   <cc:Work>
    <dc:type rdf:resource="http://purl.org/dc/dcmitype/StillImage"/>
    <dc:date>2021-07-13T18:13:55.117828</dc:date>
    <dc:format>image/svg+xml</dc:format>
    <dc:creator>
     <cc:Agent>
      <dc:title>Matplotlib v3.3.4, https://matplotlib.org/</dc:title>
     </cc:Agent>
    </dc:creator>
   </cc:Work>
  </rdf:RDF>
 </metadata>
 <defs>
  <style type="text/css">*{stroke-linecap:butt;stroke-linejoin:round;}</style>
 </defs>
 <g id="figure_1">
  <g id="patch_1">
   <path d="M 0 288 
L 432 288 
L 432 0 
L 0 0 
z
" style="fill:#ffffff;"/>
  </g>
  <g id="axes_1">
   <g id="patch_2">
    <path d="M 54 252 
L 388.8 252 
L 388.8 34.56 
L 54 34.56 
z
" style="fill:#ffffff;"/>
   </g>
   <g id="PolyCollection_1">
    <defs>
     <path d="M 104.269161 -56.946712 
L 104.170839 -56.946712 
L 104.1637 -58.743356 
L 104.157435 -60.539999 
L 104.151995 -62.336643 
L 104.147328 -64.133286 
L 104.143211 -65.929929 
L 104.138811 -67.726573 
L 104.132286 -69.523216 
L 104.120826 -71.31986 
L 104.101369 -73.116503 
L 104.071805 -74.913146 
L 104.032114 -76.70979 
L 103.984761 -78.506433 
L 103.934041 -80.303077 
L 103.884582 -82.09972 
L 103.839659 -83.896363 
L 103.800026 -85.693007 
L 103.763686 -87.48965 
L 103.726706 -89.286294 
L 103.68487 -91.082937 
L 103.635678 -92.87958 
L 103.579918 -94.676224 
L 103.522013 -96.472867 
L 103.468775 -98.269511 
L 103.427008 -100.066154 
L 103.401065 -101.862797 
L 103.391414 -103.659441 
L 103.394641 -105.456084 
L 103.40447 -107.252727 
L 103.412916 -109.049371 
L 103.410895 -110.846014 
L 103.388314 -112.642658 
L 103.334392 -114.439301 
L 103.239112 -116.235944 
L 103.096018 -118.032588 
L 102.905292 -119.829231 
L 102.675187 -121.625875 
L 102.420327 -123.422518 
L 102.157089 -125.219161 
L 101.898217 -127.015805 
L 101.649462 -128.812448 
L 101.409925 -130.609092 
L 101.175449 -132.405735 
L 100.942632 -134.202378 
L 100.710775 -135.999022 
L 100.480702 -137.795665 
L 100.251477 -139.592309 
L 100.017459 -141.388952 
L 99.767781 -143.185595 
L 99.48882 -144.982239 
L 99.168537 -146.778882 
L 98.80079 -148.575526 
L 98.388032 -150.372169 
L 97.941632 -152.168812 
L 97.479792 -153.965456 
L 97.023572 -155.762099 
L 96.59216 -157.558743 
L 96.198998 -159.355386 
L 95.85034 -161.152029 
L 95.546775 -162.948673 
L 95.286644 -164.745316 
L 95.069011 -166.54196 
L 94.894049 -168.338603 
L 94.760433 -170.135246 
L 94.661781 -171.93189 
L 94.585201 -173.728533 
L 94.513654 -175.525177 
L 94.430718 -177.32182 
L 94.324341 -179.118463 
L 94.186997 -180.915107 
L 94.01277 -182.71175 
L 93.794153 -184.508394 
L 93.520634 -186.305037 
L 93.178387 -188.10168 
L 92.748601 -189.898324 
L 92.203537 -191.694967 
L 91.502848 -193.49161 
L 90.594812 -195.288254 
L 89.425293 -197.084897 
L 87.952605 -198.881541 
L 86.162702 -200.678184 
L 84.079215 -202.474827 
L 81.766491 -204.271471 
L 79.327625 -206.068114 
L 76.900208 -207.864758 
L 74.649852 -209.661401 
L 72.758543 -211.458044 
L 71.405158 -213.254688 
L 70.74 -215.051331 
L 70.860693 -216.847975 
L 71.798383 -218.644618 
L 73.518514 -220.441261 
L 75.932448 -222.237905 
L 78.911135 -224.034548 
L 82.294018 -225.831192 
L 85.893841 -227.627835 
L 89.50446 -229.424478 
L 92.918538 -231.221122 
L 95.95496 -233.017765 
L 98.48746 -234.814409 
L 109.95254 -234.814409 
L 109.95254 -234.814409 
L 112.48504 -233.017765 
L 115.521462 -231.221122 
L 118.93554 -229.424478 
L 122.546159 -227.627835 
L 126.145982 -225.831192 
L 129.528865 -224.034548 
L 132.507552 -222.237905 
L 134.921486 -220.441261 
L 136.641617 -218.644618 
L 137.579307 -216.847975 
L 137.7 -215.051331 
L 137.034842 -213.254688 
L 135.681457 -211.458044 
L 133.790148 -209.661401 
L 131.539792 -207.864758 
L 129.112375 -206.068114 
L 126.673509 -204.271471 
L 124.360785 -202.474827 
L 122.277298 -200.678184 
L 120.487395 -198.881541 
L 119.014707 -197.084897 
L 117.845188 -195.288254 
L 116.937152 -193.49161 
L 116.236463 -191.694967 
L 115.691399 -189.898324 
L 115.261613 -188.10168 
L 114.919366 -186.305037 
L 114.645847 -184.508394 
L 114.42723 -182.71175 
L 114.253003 -180.915107 
L 114.115659 -179.118463 
L 114.009282 -177.32182 
L 113.926346 -175.525177 
L 113.854799 -173.728533 
L 113.778219 -171.93189 
L 113.679567 -170.135246 
L 113.545951 -168.338603 
L 113.370989 -166.54196 
L 113.153356 -164.745316 
L 112.893225 -162.948673 
L 112.58966 -161.152029 
L 112.241002 -159.355386 
L 111.84784 -157.558743 
L 111.416428 -155.762099 
L 110.960208 -153.965456 
L 110.498368 -152.168812 
L 110.051968 -150.372169 
L 109.63921 -148.575526 
L 109.271463 -146.778882 
L 108.95118 -144.982239 
L 108.672219 -143.185595 
L 108.422541 -141.388952 
L 108.188523 -139.592309 
L 107.959298 -137.795665 
L 107.729225 -135.999022 
L 107.497368 -134.202378 
L 107.264551 -132.405735 
L 107.030075 -130.609092 
L 106.790538 -128.812448 
L 106.541783 -127.015805 
L 106.282911 -125.219161 
L 106.019673 -123.422518 
L 105.764813 -121.625875 
L 105.534708 -119.829231 
L 105.343982 -118.032588 
L 105.200888 -116.235944 
L 105.105608 -114.439301 
L 105.051686 -112.642658 
L 105.029105 -110.846014 
L 105.027084 -109.049371 
L 105.03553 -107.252727 
L 105.045359 -105.456084 
L 105.048586 -103.659441 
L 105.038935 -101.862797 
L 105.012992 -100.066154 
L 104.971225 -98.269511 
L 104.917987 -96.472867 
L 104.860082 -94.676224 
L 104.804322 -92.87958 
L 104.75513 -91.082937 
L 104.713294 -89.286294 
L 104.676314 -87.48965 
L 104.639974 -85.693007 
L 104.600341 -83.896363 
L 104.555418 -82.09972 
L 104.505959 -80.303077 
L 104.455239 -78.506433 
L 104.407886 -76.70979 
L 104.368195 -74.913146 
L 104.338631 -73.116503 
L 104.319174 -71.31986 
L 104.307714 -69.523216 
L 104.301189 -67.726573 
L 104.296789 -65.929929 
L 104.292672 -64.133286 
L 104.288005 -62.336643 
L 104.282565 -60.539999 
L 104.2763 -58.743356 
L 104.269161 -56.946712 
z
" id="m927a0b6bc0" style="stroke:#3f3f3f;stroke-width:1.5;"/>
    </defs>
    <g clip-path="url(#p583f263c90)">
     <use style="fill:#3274a1;stroke:#3f3f3f;stroke-width:1.5;" x="0" xlink:href="#m927a0b6bc0" y="288"/>
    </g>
   </g>
   <g id="PolyCollection_2">
    <defs>
     <path d="M 338.61863 -45.883636 
L 338.54137 -45.883636 
L 338.541987 -47.880331 
L 338.544779 -49.877025 
L 338.547779 -51.873719 
L 338.549076 -53.870413 
L 338.547762 -55.867107 
L 338.544295 -57.863802 
L 338.540053 -59.860496 
L 338.536271 -61.85719 
L 338.532998 -63.853884 
L 338.528695 -65.850579 
L 338.520776 -67.847273 
L 338.506771 -69.843967 
L 338.485364 -71.840661 
L 338.456664 -73.837355 
L 338.421666 -75.83405 
L 338.381539 -77.830744 
L 338.337483 -79.827438 
L 338.29126 -81.824132 
L 338.245613 -83.820826 
L 338.203651 -85.817521 
L 338.167126 -87.814215 
L 338.134804 -89.810909 
L 338.102459 -91.807603 
L 338.064937 -93.804298 
L 338.019021 -95.800992 
L 337.965067 -97.797686 
L 337.906275 -99.79438 
L 337.846235 -101.791074 
L 337.786534 -103.787769 
L 337.725875 -105.784463 
L 337.660942 -107.781157 
L 337.588132 -109.777851 
L 337.50516 -111.774545 
L 337.411953 -113.77124 
L 337.31072 -115.767934 
L 337.205254 -117.764628 
L 337.099545 -119.761322 
L 336.99591 -121.758017 
L 336.893208 -123.754711 
L 336.786091 -125.751405 
L 336.666127 -127.748099 
L 336.524693 -129.744793 
L 336.356286 -131.741488 
L 336.160421 -133.738182 
L 335.941073 -135.734876 
L 335.703998 -137.73157 
L 335.45304 -139.728264 
L 335.186585 -141.724959 
L 334.895472 -143.721653 
L 334.564081 -145.718347 
L 334.175869 -147.715041 
L 333.722421 -149.711736 
L 333.212103 -151.70843 
L 332.673275 -153.705124 
L 332.149177 -155.701818 
L 331.685722 -157.698512 
L 331.316822 -159.695207 
L 331.052886 -161.691901 
L 330.876723 -163.688595 
L 330.748303 -165.685289 
L 330.616354 -167.681983 
L 330.432197 -169.678678 
L 330.160874 -171.675372 
L 329.786759 -173.672066 
L 329.313555 -175.66876 
L 328.760008 -177.665455 
L 328.152966 -179.662149 
L 327.519697 -181.658843 
L 326.881874 -183.655537 
L 326.253006 -185.652231 
L 325.639062 -187.648926 
L 325.040158 -189.64562 
L 324.451277 -191.642314 
L 323.861502 -193.639008 
L 323.252569 -195.635702 
L 322.597712 -197.632397 
L 321.861645 -199.629091 
L 321.002838 -201.625785 
L 319.979603 -203.622479 
L 318.760486 -205.619174 
L 317.336729 -207.615868 
L 315.73175 -209.612562 
L 314.002164 -211.609256 
L 312.228429 -213.60595 
L 310.498842 -215.602645 
L 308.894842 -217.599339 
L 307.485143 -219.596033 
L 306.331692 -221.592727 
L 305.504744 -223.589421 
L 305.1 -225.586116 
L 305.247599 -227.58281 
L 306.101447 -229.579504 
L 307.801311 -231.576198 
L 310.412937 -233.572893 
L 313.868899 -235.569587 
L 317.942427 -237.566281 
L 322.276748 -239.562975 
L 326.46577 -241.559669 
L 330.154679 -243.556364 
L 347.005321 -243.556364 
L 347.005321 -243.556364 
L 350.69423 -241.559669 
L 354.883252 -239.562975 
L 359.217573 -237.566281 
L 363.291101 -235.569587 
L 366.747063 -233.572893 
L 369.358689 -231.576198 
L 371.058553 -229.579504 
L 371.912401 -227.58281 
L 372.06 -225.586116 
L 371.655256 -223.589421 
L 370.828308 -221.592727 
L 369.674857 -219.596033 
L 368.265158 -217.599339 
L 366.661158 -215.602645 
L 364.931571 -213.60595 
L 363.157836 -211.609256 
L 361.42825 -209.612562 
L 359.823271 -207.615868 
L 358.399514 -205.619174 
L 357.180397 -203.622479 
L 356.157162 -201.625785 
L 355.298355 -199.629091 
L 354.562288 -197.632397 
L 353.907431 -195.635702 
L 353.298498 -193.639008 
L 352.708723 -191.642314 
L 352.119842 -189.64562 
L 351.520938 -187.648926 
L 350.906994 -185.652231 
L 350.278126 -183.655537 
L 349.640303 -181.658843 
L 349.007034 -179.662149 
L 348.399992 -177.665455 
L 347.846445 -175.66876 
L 347.373241 -173.672066 
L 346.999126 -171.675372 
L 346.727803 -169.678678 
L 346.543646 -167.681983 
L 346.411697 -165.685289 
L 346.283277 -163.688595 
L 346.107114 -161.691901 
L 345.843178 -159.695207 
L 345.474278 -157.698512 
L 345.010823 -155.701818 
L 344.486725 -153.705124 
L 343.947897 -151.70843 
L 343.437579 -149.711736 
L 342.984131 -147.715041 
L 342.595919 -145.718347 
L 342.264528 -143.721653 
L 341.973415 -141.724959 
L 341.70696 -139.728264 
L 341.456002 -137.73157 
L 341.218927 -135.734876 
L 340.999579 -133.738182 
L 340.803714 -131.741488 
L 340.635307 -129.744793 
L 340.493873 -127.748099 
L 340.373909 -125.751405 
L 340.266792 -123.754711 
L 340.16409 -121.758017 
L 340.060455 -119.761322 
L 339.954746 -117.764628 
L 339.84928 -115.767934 
L 339.748047 -113.77124 
L 339.65484 -111.774545 
L 339.571868 -109.777851 
L 339.499058 -107.781157 
L 339.434125 -105.784463 
L 339.373466 -103.787769 
L 339.313765 -101.791074 
L 339.253725 -99.79438 
L 339.194933 -97.797686 
L 339.140979 -95.800992 
L 339.095063 -93.804298 
L 339.057541 -91.807603 
L 339.025196 -89.810909 
L 338.992874 -87.814215 
L 338.956349 -85.817521 
L 338.914387 -83.820826 
L 338.86874 -81.824132 
L 338.822517 -79.827438 
L 338.778461 -77.830744 
L 338.738334 -75.83405 
L 338.703336 -73.837355 
L 338.674636 -71.840661 
L 338.653229 -69.843967 
L 338.639224 -67.847273 
L 338.631305 -65.850579 
L 338.627002 -63.853884 
L 338.623729 -61.85719 
L 338.619947 -59.860496 
L 338.615705 -57.863802 
L 338.612238 -55.867107 
L 338.610924 -53.870413 
L 338.612221 -51.873719 
L 338.615221 -49.877025 
L 338.618013 -47.880331 
L 338.61863 -45.883636 
z
" id="mc4fa5f2290" style="stroke:#3f3f3f;stroke-width:1.5;"/>
    </defs>
    <g clip-path="url(#p583f263c90)">
     <use style="fill:#e1812c;stroke:#3f3f3f;stroke-width:1.5;" x="0" xlink:href="#mc4fa5f2290" y="288"/>
    </g>
   </g>
   <g id="patch_3">
    <path clip-path="url(#p583f263c90)" d="M 137.7 28.614457 
L 137.7 28.614457 
L 137.7 28.614457 
L 137.7 28.614457 
z
" style="fill:#3274a1;stroke:#3f3f3f;stroke-linejoin:miter;stroke-width:0.75;"/>
   </g>
   <g id="patch_4">
    <path clip-path="url(#p583f263c90)" d="M 137.7 28.614457 
L 137.7 28.614457 
L 137.7 28.614457 
L 137.7 28.614457 
z
" style="fill:#e1812c;stroke:#3f3f3f;stroke-linejoin:miter;stroke-width:0.75;"/>
   </g>
   <g id="matplotlib.axis_1">
    <g id="xtick_1">
     <g id="line2d_1">
      <defs>
       <path d="M 0 0 
L 0 3.5 
" id="m65421ec03f" style="stroke:#000000;stroke-width:0.8;"/>
      </defs>
      <g>
       <use style="stroke:#000000;stroke-width:0.8;" x="137.7" xlink:href="#m65421ec03f" y="252"/>
      </g>
     </g>
     <g id="text_1">
      <!-- Z_1_ns -->
      <g transform="translate(120.320312 266.320312)scale(0.1 -0.1)">
       <defs>
        <path d="M 5.609375 72.90625 
L 62.890625 72.90625 
L 62.890625 65.375 
L 16.796875 8.296875 
L 64.015625 8.296875 
L 64.015625 0 
L 4.5 0 
L 4.5 7.515625 
L 50.59375 64.59375 
L 5.609375 64.59375 
z
" id="DejaVuSans-90"/>
        <path d="M 50.984375 -16.609375 
L 50.984375 -23.578125 
L -0.984375 -23.578125 
L -0.984375 -16.609375 
z
" id="DejaVuSans-95"/>
        <path d="M 12.40625 8.296875 
L 28.515625 8.296875 
L 28.515625 63.921875 
L 10.984375 60.40625 
L 10.984375 69.390625 
L 28.421875 72.90625 
L 38.28125 72.90625 
L 38.28125 8.296875 
L 54.390625 8.296875 
L 54.390625 0 
L 12.40625 0 
z
" id="DejaVuSans-49"/>
        <path d="M 54.890625 33.015625 
L 54.890625 0 
L 45.90625 0 
L 45.90625 32.71875 
Q 45.90625 40.484375 42.875 44.328125 
Q 39.84375 48.1875 33.796875 48.1875 
Q 26.515625 48.1875 22.3125 43.546875 
Q 18.109375 38.921875 18.109375 30.90625 
L 18.109375 0 
L 9.078125 0 
L 9.078125 54.6875 
L 18.109375 54.6875 
L 18.109375 46.1875 
Q 21.34375 51.125 25.703125 53.5625 
Q 30.078125 56 35.796875 56 
Q 45.21875 56 50.046875 50.171875 
Q 54.890625 44.34375 54.890625 33.015625 
z
" id="DejaVuSans-110"/>
        <path d="M 44.28125 53.078125 
L 44.28125 44.578125 
Q 40.484375 46.53125 36.375 47.5 
Q 32.28125 48.484375 27.875 48.484375 
Q 21.1875 48.484375 17.84375 46.4375 
Q 14.5 44.390625 14.5 40.28125 
Q 14.5 37.15625 16.890625 35.375 
Q 19.28125 33.59375 26.515625 31.984375 
L 29.59375 31.296875 
Q 39.15625 29.25 43.1875 25.515625 
Q 47.21875 21.78125 47.21875 15.09375 
Q 47.21875 7.46875 41.1875 3.015625 
Q 35.15625 -1.421875 24.609375 -1.421875 
Q 20.21875 -1.421875 15.453125 -0.5625 
Q 10.6875 0.296875 5.421875 2 
L 5.421875 11.28125 
Q 10.40625 8.6875 15.234375 7.390625 
Q 20.0625 6.109375 24.8125 6.109375 
Q 31.15625 6.109375 34.5625 8.28125 
Q 37.984375 10.453125 37.984375 14.40625 
Q 37.984375 18.0625 35.515625 20.015625 
Q 33.0625 21.96875 24.703125 23.78125 
L 21.578125 24.515625 
Q 13.234375 26.265625 9.515625 29.90625 
Q 5.8125 33.546875 5.8125 39.890625 
Q 5.8125 47.609375 11.28125 51.796875 
Q 16.75 56 26.8125 56 
Q 31.78125 56 36.171875 55.265625 
Q 40.578125 54.546875 44.28125 53.078125 
z
" id="DejaVuSans-115"/>
       </defs>
       <use xlink:href="#DejaVuSans-90"/>
       <use x="68.505859" xlink:href="#DejaVuSans-95"/>
       <use x="118.505859" xlink:href="#DejaVuSans-49"/>
       <use x="182.128906" xlink:href="#DejaVuSans-95"/>
       <use x="232.128906" xlink:href="#DejaVuSans-110"/>
       <use x="295.507812" xlink:href="#DejaVuSans-115"/>
      </g>
     </g>
    </g>
    <g id="xtick_2">
     <g id="line2d_2">
      <g>
       <use style="stroke:#000000;stroke-width:0.8;" x="305.1" xlink:href="#m65421ec03f" y="252"/>
      </g>
     </g>
     <g id="text_2">
      <!-- Z_3_ns -->
      <g transform="translate(287.720313 266.421875)scale(0.1 -0.1)">
       <defs>
        <path d="M 40.578125 39.3125 
Q 47.65625 37.796875 51.625 33 
Q 55.609375 28.21875 55.609375 21.1875 
Q 55.609375 10.40625 48.1875 4.484375 
Q 40.765625 -1.421875 27.09375 -1.421875 
Q 22.515625 -1.421875 17.65625 -0.515625 
Q 12.796875 0.390625 7.625 2.203125 
L 7.625 11.71875 
Q 11.71875 9.328125 16.59375 8.109375 
Q 21.484375 6.890625 26.8125 6.890625 
Q 36.078125 6.890625 40.9375 10.546875 
Q 45.796875 14.203125 45.796875 21.1875 
Q 45.796875 27.640625 41.28125 31.265625 
Q 36.765625 34.90625 28.71875 34.90625 
L 20.21875 34.90625 
L 20.21875 43.015625 
L 29.109375 43.015625 
Q 36.375 43.015625 40.234375 45.921875 
Q 44.09375 48.828125 44.09375 54.296875 
Q 44.09375 59.90625 40.109375 62.90625 
Q 36.140625 65.921875 28.71875 65.921875 
Q 24.65625 65.921875 20.015625 65.03125 
Q 15.375 64.15625 9.8125 62.3125 
L 9.8125 71.09375 
Q 15.4375 72.65625 20.34375 73.4375 
Q 25.25 74.21875 29.59375 74.21875 
Q 40.828125 74.21875 47.359375 69.109375 
Q 53.90625 64.015625 53.90625 55.328125 
Q 53.90625 49.265625 50.4375 45.09375 
Q 46.96875 40.921875 40.578125 39.3125 
z
" id="DejaVuSans-51"/>
       </defs>
       <use xlink:href="#DejaVuSans-90"/>
       <use x="68.505859" xlink:href="#DejaVuSans-95"/>
       <use x="118.505859" xlink:href="#DejaVuSans-51"/>
       <use x="182.128906" xlink:href="#DejaVuSans-95"/>
       <use x="232.128906" xlink:href="#DejaVuSans-110"/>
       <use x="295.507812" xlink:href="#DejaVuSans-115"/>
      </g>
     </g>
    </g>
    <g id="text_3">
     <!-- set -->
     <g transform="translate(213.758594 280.378125)scale(0.1 -0.1)">
      <defs>
       <path d="M 56.203125 29.59375 
L 56.203125 25.203125 
L 14.890625 25.203125 
Q 15.484375 15.921875 20.484375 11.0625 
Q 25.484375 6.203125 34.421875 6.203125 
Q 39.59375 6.203125 44.453125 7.46875 
Q 49.3125 8.734375 54.109375 11.28125 
L 54.109375 2.78125 
Q 49.265625 0.734375 44.1875 -0.34375 
Q 39.109375 -1.421875 33.890625 -1.421875 
Q 20.796875 -1.421875 13.15625 6.1875 
Q 5.515625 13.8125 5.515625 26.8125 
Q 5.515625 40.234375 12.765625 48.109375 
Q 20.015625 56 32.328125 56 
Q 43.359375 56 49.78125 48.890625 
Q 56.203125 41.796875 56.203125 29.59375 
z
M 47.21875 32.234375 
Q 47.125 39.59375 43.09375 43.984375 
Q 39.0625 48.390625 32.421875 48.390625 
Q 24.90625 48.390625 20.390625 44.140625 
Q 15.875 39.890625 15.1875 32.171875 
z
" id="DejaVuSans-101"/>
       <path d="M 18.3125 70.21875 
L 18.3125 54.6875 
L 36.8125 54.6875 
L 36.8125 47.703125 
L 18.3125 47.703125 
L 18.3125 18.015625 
Q 18.3125 11.328125 20.140625 9.421875 
Q 21.96875 7.515625 27.59375 7.515625 
L 36.8125 7.515625 
L 36.8125 0 
L 27.59375 0 
Q 17.1875 0 13.234375 3.875 
Q 9.28125 7.765625 9.28125 18.015625 
L 9.28125 47.703125 
L 2.6875 47.703125 
L 2.6875 54.6875 
L 9.28125 54.6875 
L 9.28125 70.21875 
z
" id="DejaVuSans-116"/>
      </defs>
      <use xlink:href="#DejaVuSans-115"/>
      <use x="52.099609" xlink:href="#DejaVuSans-101"/>
      <use x="113.623047" xlink:href="#DejaVuSans-116"/>
     </g>
    </g>
   </g>
   <g id="matplotlib.axis_2">
    <g id="ytick_1">
     <g id="line2d_3">
      <defs>
       <path d="M 0 0 
L -3.5 0 
" id="m0421ae7181" style="stroke:#000000;stroke-width:0.8;"/>
      </defs>
      <g>
       <use style="stroke:#000000;stroke-width:0.8;" x="54" xlink:href="#m0421ae7181" y="231.297279"/>
      </g>
     </g>
     <g id="text_4">
      <!-- −35 -->
      <g transform="translate(25.895312 235.096498)scale(0.1 -0.1)">
       <defs>
        <path d="M 10.59375 35.5 
L 73.1875 35.5 
L 73.1875 27.203125 
L 10.59375 27.203125 
z
" id="DejaVuSans-8722"/>
        <path d="M 10.796875 72.90625 
L 49.515625 72.90625 
L 49.515625 64.59375 
L 19.828125 64.59375 
L 19.828125 46.734375 
Q 21.96875 47.46875 24.109375 47.828125 
Q 26.265625 48.1875 28.421875 48.1875 
Q 40.625 48.1875 47.75 41.5 
Q 54.890625 34.8125 54.890625 23.390625 
Q 54.890625 11.625 47.5625 5.09375 
Q 40.234375 -1.421875 26.90625 -1.421875 
Q 22.3125 -1.421875 17.546875 -0.640625 
Q 12.796875 0.140625 7.71875 1.703125 
L 7.71875 11.625 
Q 12.109375 9.234375 16.796875 8.0625 
Q 21.484375 6.890625 26.703125 6.890625 
Q 35.15625 6.890625 40.078125 11.328125 
Q 45.015625 15.765625 45.015625 23.390625 
Q 45.015625 31 40.078125 35.4375 
Q 35.15625 39.890625 26.703125 39.890625 
Q 22.75 39.890625 18.8125 39.015625 
Q 14.890625 38.140625 10.796875 36.28125 
z
" id="DejaVuSans-53"/>
       </defs>
       <use xlink:href="#DejaVuSans-8722"/>
       <use x="83.789062" xlink:href="#DejaVuSans-51"/>
       <use x="147.412109" xlink:href="#DejaVuSans-53"/>
      </g>
     </g>
    </g>
    <g id="ytick_2">
     <g id="line2d_4">
      <g>
       <use style="stroke:#000000;stroke-width:0.8;" x="54" xlink:href="#m0421ae7181" y="202.34259"/>
      </g>
     </g>
     <g id="text_5">
      <!-- −30 -->
      <g transform="translate(25.895312 206.141809)scale(0.1 -0.1)">
       <defs>
        <path d="M 31.78125 66.40625 
Q 24.171875 66.40625 20.328125 58.90625 
Q 16.5 51.421875 16.5 36.375 
Q 16.5 21.390625 20.328125 13.890625 
Q 24.171875 6.390625 31.78125 6.390625 
Q 39.453125 6.390625 43.28125 13.890625 
Q 47.125 21.390625 47.125 36.375 
Q 47.125 51.421875 43.28125 58.90625 
Q 39.453125 66.40625 31.78125 66.40625 
z
M 31.78125 74.21875 
Q 44.046875 74.21875 50.515625 64.515625 
Q 56.984375 54.828125 56.984375 36.375 
Q 56.984375 17.96875 50.515625 8.265625 
Q 44.046875 -1.421875 31.78125 -1.421875 
Q 19.53125 -1.421875 13.0625 8.265625 
Q 6.59375 17.96875 6.59375 36.375 
Q 6.59375 54.828125 13.0625 64.515625 
Q 19.53125 74.21875 31.78125 74.21875 
z
" id="DejaVuSans-48"/>
       </defs>
       <use xlink:href="#DejaVuSans-8722"/>
       <use x="83.789062" xlink:href="#DejaVuSans-51"/>
       <use x="147.412109" xlink:href="#DejaVuSans-48"/>
      </g>
     </g>
    </g>
    <g id="ytick_3">
     <g id="line2d_5">
      <g>
       <use style="stroke:#000000;stroke-width:0.8;" x="54" xlink:href="#m0421ae7181" y="173.387901"/>
      </g>
     </g>
     <g id="text_6">
      <!-- −25 -->
      <g transform="translate(25.895312 177.18712)scale(0.1 -0.1)">
       <defs>
        <path d="M 19.1875 8.296875 
L 53.609375 8.296875 
L 53.609375 0 
L 7.328125 0 
L 7.328125 8.296875 
Q 12.9375 14.109375 22.625 23.890625 
Q 32.328125 33.6875 34.8125 36.53125 
Q 39.546875 41.84375 41.421875 45.53125 
Q 43.3125 49.21875 43.3125 52.78125 
Q 43.3125 58.59375 39.234375 62.25 
Q 35.15625 65.921875 28.609375 65.921875 
Q 23.96875 65.921875 18.8125 64.3125 
Q 13.671875 62.703125 7.8125 59.421875 
L 7.8125 69.390625 
Q 13.765625 71.78125 18.9375 73 
Q 24.125 74.21875 28.421875 74.21875 
Q 39.75 74.21875 46.484375 68.546875 
Q 53.21875 62.890625 53.21875 53.421875 
Q 53.21875 48.921875 51.53125 44.890625 
Q 49.859375 40.875 45.40625 35.40625 
Q 44.1875 33.984375 37.640625 27.21875 
Q 31.109375 20.453125 19.1875 8.296875 
z
" id="DejaVuSans-50"/>
       </defs>
       <use xlink:href="#DejaVuSans-8722"/>
       <use x="83.789062" xlink:href="#DejaVuSans-50"/>
       <use x="147.412109" xlink:href="#DejaVuSans-53"/>
      </g>
     </g>
    </g>
    <g id="ytick_4">
     <g id="line2d_6">
      <g>
       <use style="stroke:#000000;stroke-width:0.8;" x="54" xlink:href="#m0421ae7181" y="144.433213"/>
      </g>
     </g>
     <g id="text_7">
      <!-- −20 -->
      <g transform="translate(25.895312 148.232431)scale(0.1 -0.1)">
       <use xlink:href="#DejaVuSans-8722"/>
       <use x="83.789062" xlink:href="#DejaVuSans-50"/>
       <use x="147.412109" xlink:href="#DejaVuSans-48"/>
      </g>
     </g>
    </g>
    <g id="ytick_5">
     <g id="line2d_7">
      <g>
       <use style="stroke:#000000;stroke-width:0.8;" x="54" xlink:href="#m0421ae7181" y="115.478524"/>
      </g>
     </g>
     <g id="text_8">
      <!-- −15 -->
      <g transform="translate(25.895312 119.277743)scale(0.1 -0.1)">
       <use xlink:href="#DejaVuSans-8722"/>
       <use x="83.789062" xlink:href="#DejaVuSans-49"/>
       <use x="147.412109" xlink:href="#DejaVuSans-53"/>
      </g>
     </g>
    </g>
    <g id="ytick_6">
     <g id="line2d_8">
      <g>
       <use style="stroke:#000000;stroke-width:0.8;" x="54" xlink:href="#m0421ae7181" y="86.523835"/>
      </g>
     </g>
     <g id="text_9">
      <!-- −10 -->
      <g transform="translate(25.895312 90.323054)scale(0.1 -0.1)">
       <use xlink:href="#DejaVuSans-8722"/>
       <use x="83.789062" xlink:href="#DejaVuSans-49"/>
       <use x="147.412109" xlink:href="#DejaVuSans-48"/>
      </g>
     </g>
    </g>
    <g id="ytick_7">
     <g id="line2d_9">
      <g>
       <use style="stroke:#000000;stroke-width:0.8;" x="54" xlink:href="#m0421ae7181" y="57.569146"/>
      </g>
     </g>
     <g id="text_10">
      <!-- −5 -->
      <g transform="translate(32.257812 61.368365)scale(0.1 -0.1)">
       <use xlink:href="#DejaVuSans-8722"/>
       <use x="83.789062" xlink:href="#DejaVuSans-53"/>
      </g>
     </g>
    </g>
    <g id="text_11">
     <!-- value -->
     <g transform="translate(19.815625 156.937813)rotate(-90)scale(0.1 -0.1)">
      <defs>
       <path d="M 2.984375 54.6875 
L 12.5 54.6875 
L 29.59375 8.796875 
L 46.6875 54.6875 
L 56.203125 54.6875 
L 35.6875 0 
L 23.484375 0 
z
" id="DejaVuSans-118"/>
       <path d="M 34.28125 27.484375 
Q 23.390625 27.484375 19.1875 25 
Q 14.984375 22.515625 14.984375 16.5 
Q 14.984375 11.71875 18.140625 8.90625 
Q 21.296875 6.109375 26.703125 6.109375 
Q 34.1875 6.109375 38.703125 11.40625 
Q 43.21875 16.703125 43.21875 25.484375 
L 43.21875 27.484375 
z
M 52.203125 31.203125 
L 52.203125 0 
L 43.21875 0 
L 43.21875 8.296875 
Q 40.140625 3.328125 35.546875 0.953125 
Q 30.953125 -1.421875 24.3125 -1.421875 
Q 15.921875 -1.421875 10.953125 3.296875 
Q 6 8.015625 6 15.921875 
Q 6 25.140625 12.171875 29.828125 
Q 18.359375 34.515625 30.609375 34.515625 
L 43.21875 34.515625 
L 43.21875 35.40625 
Q 43.21875 41.609375 39.140625 45 
Q 35.0625 48.390625 27.6875 48.390625 
Q 23 48.390625 18.546875 47.265625 
Q 14.109375 46.140625 10.015625 43.890625 
L 10.015625 52.203125 
Q 14.9375 54.109375 19.578125 55.046875 
Q 24.21875 56 28.609375 56 
Q 40.484375 56 46.34375 49.84375 
Q 52.203125 43.703125 52.203125 31.203125 
z
" id="DejaVuSans-97"/>
       <path d="M 9.421875 75.984375 
L 18.40625 75.984375 
L 18.40625 0 
L 9.421875 0 
z
" id="DejaVuSans-108"/>
       <path d="M 8.5 21.578125 
L 8.5 54.6875 
L 17.484375 54.6875 
L 17.484375 21.921875 
Q 17.484375 14.15625 20.5 10.265625 
Q 23.53125 6.390625 29.59375 6.390625 
Q 36.859375 6.390625 41.078125 11.03125 
Q 45.3125 15.671875 45.3125 23.6875 
L 45.3125 54.6875 
L 54.296875 54.6875 
L 54.296875 0 
L 45.3125 0 
L 45.3125 8.40625 
Q 42.046875 3.421875 37.71875 1 
Q 33.40625 -1.421875 27.6875 -1.421875 
Q 18.265625 -1.421875 13.375 4.4375 
Q 8.5 10.296875 8.5 21.578125 
z
M 31.109375 56 
z
" id="DejaVuSans-117"/>
      </defs>
      <use xlink:href="#DejaVuSans-118"/>
      <use x="59.179688" xlink:href="#DejaVuSans-97"/>
      <use x="120.458984" xlink:href="#DejaVuSans-108"/>
      <use x="148.242188" xlink:href="#DejaVuSans-117"/>
      <use x="211.621094" xlink:href="#DejaVuSans-101"/>
     </g>
    </g>
   </g>
   <g id="line2d_10">
    <path clip-path="url(#p583f263c90)" d="M 104.22 166.42153 
L 104.22 53.185591 
" style="fill:none;stroke:#3f3f3f;stroke-linecap:square;stroke-width:1.5;"/>
   </g>
   <g id="line2d_11">
    <path clip-path="url(#p583f263c90)" d="M 104.22 109.342508 
L 104.22 70.667976 
" style="fill:none;stroke:#3f3f3f;stroke-linecap:square;stroke-width:4.5;"/>
   </g>
   <g id="line2d_12">
    <path clip-path="url(#p583f263c90)" d="M 338.58 157.581913 
L 338.58 44.443636 
" style="fill:none;stroke:#3f3f3f;stroke-linecap:square;stroke-width:1.5;"/>
   </g>
   <g id="line2d_13">
    <path clip-path="url(#p583f263c90)" d="M 338.58 99.967874 
L 338.58 61.458764 
" style="fill:none;stroke:#3f3f3f;stroke-linecap:square;stroke-width:4.5;"/>
   </g>
   <g id="patch_5">
    <path d="M 54 252 
L 54 34.56 
" style="fill:none;stroke:#000000;stroke-linecap:square;stroke-linejoin:miter;stroke-width:0.8;"/>
   </g>
   <g id="patch_6">
    <path d="M 388.8 252 
L 388.8 34.56 
" style="fill:none;stroke:#000000;stroke-linecap:square;stroke-linejoin:miter;stroke-width:0.8;"/>
   </g>
   <g id="patch_7">
    <path d="M 54 252 
L 388.8 252 
" style="fill:none;stroke:#000000;stroke-linecap:square;stroke-linejoin:miter;stroke-width:0.8;"/>
   </g>
   <g id="patch_8">
    <path d="M 54 34.56 
L 388.8 34.56 
" style="fill:none;stroke:#000000;stroke-linecap:square;stroke-linejoin:miter;stroke-width:0.8;"/>
   </g>
   <g id="PathCollection_1">
    <defs>
     <path d="M 0 1.5 
C 0.397805 1.5 0.77937 1.341951 1.06066 1.06066 
C 1.341951 0.77937 1.5 0.397805 1.5 0 
C 1.5 -0.397805 1.341951 -0.77937 1.06066 -1.06066 
C 0.77937 -1.341951 0.397805 -1.5 0 -1.5 
C -0.397805 -1.5 -0.77937 -1.341951 -1.06066 -1.06066 
C -1.341951 -0.77937 -1.5 -0.397805 -1.5 0 
C -1.5 0.397805 -1.341951 0.77937 -1.06066 1.06066 
C -0.77937 1.341951 -0.397805 1.5 0 1.5 
z
" id="m34c09519c7" style="stroke:#3f3f3f;"/>
    </defs>
    <g clip-path="url(#p583f263c90)">
     <use style="fill:#ffffff;stroke:#3f3f3f;" x="104.22" xlink:href="#m34c09519c7" y="81.496373"/>
    </g>
   </g>
   <g id="PathCollection_2">
    <g clip-path="url(#p583f263c90)">
     <use style="fill:#ffffff;stroke:#3f3f3f;" x="338.58" xlink:href="#m34c09519c7" y="74.972174"/>
    </g>
   </g>
   <g id="legend_1">
    <g id="patch_9">
     <path d="M 61 247 
L 127.759375 247 
Q 129.759375 247 129.759375 245 
L 129.759375 201.409375 
Q 129.759375 199.409375 127.759375 199.409375 
L 61 199.409375 
Q 59 199.409375 59 201.409375 
L 59 245 
Q 59 247 61 247 
z
" style="fill:#ffffff;opacity:0.8;stroke:#cccccc;stroke-linejoin:miter;"/>
    </g>
    <g id="text_12">
     <!-- set -->
     <g transform="translate(86.738281 211.007812)scale(0.1 -0.1)">
      <use xlink:href="#DejaVuSans-115"/>
      <use x="52.099609" xlink:href="#DejaVuSans-101"/>
      <use x="113.623047" xlink:href="#DejaVuSans-116"/>
     </g>
    </g>
    <g id="patch_10">
     <path d="M 63 225.685937 
L 83 225.685937 
L 83 218.685937 
L 63 218.685937 
z
" style="fill:#3274a1;stroke:#3f3f3f;stroke-linejoin:miter;stroke-width:0.75;"/>
    </g>
    <g id="text_13">
     <!-- Z_1_ns -->
     <g transform="translate(91 225.685937)scale(0.1 -0.1)">
      <use xlink:href="#DejaVuSans-90"/>
      <use x="68.505859" xlink:href="#DejaVuSans-95"/>
      <use x="118.505859" xlink:href="#DejaVuSans-49"/>
      <use x="182.128906" xlink:href="#DejaVuSans-95"/>
      <use x="232.128906" xlink:href="#DejaVuSans-110"/>
      <use x="295.507812" xlink:href="#DejaVuSans-115"/>
     </g>
    </g>
    <g id="patch_11">
     <path d="M 63 240.642188 
L 83 240.642188 
L 83 233.642188 
L 63 233.642188 
z
" style="fill:#e1812c;stroke:#3f3f3f;stroke-linejoin:miter;stroke-width:0.75;"/>
    </g>
    <g id="text_14">
     <!-- Z_3_ns -->
     <g transform="translate(91 240.642188)scale(0.1 -0.1)">
      <use xlink:href="#DejaVuSans-90"/>
      <use x="68.505859" xlink:href="#DejaVuSans-95"/>
      <use x="118.505859" xlink:href="#DejaVuSans-51"/>
      <use x="182.128906" xlink:href="#DejaVuSans-95"/>
      <use x="232.128906" xlink:href="#DejaVuSans-110"/>
      <use x="295.507812" xlink:href="#DejaVuSans-115"/>
     </g>
    </g>
   </g>
  </g>
 </g>
 <defs>
  <clipPath id="p583f263c90">
   <rect height="217.44" width="334.8" x="54" y="34.56"/>
  </clipPath>
 </defs>
</svg>
