<?xml version="1.0" encoding="utf-8" standalone="no"?>
<!DOCTYPE svg PUBLIC "-//W3C//DTD SVG 1.1//EN"
  "http://www.w3.org/Graphics/SVG/1.1/DTD/svg11.dtd">
<!-- Created with matplotlib (https://matplotlib.org/) -->
<svg height="288pt" version="1.1" viewBox="0 0 432 288" width="432pt" xmlns="http://www.w3.org/2000/svg" xmlns:xlink="http://www.w3.org/1999/xlink">
 <metadata>
  <rdf:RDF xmlns:cc="http://creativecommons.org/ns#" xmlns:dc="http://purl.org/dc/elements/1.1/" xmlns:rdf="http://www.w3.org/1999/02/22-rdf-syntax-ns#">
   <cc:Work>
    <dc:type rdf:resource="http://purl.org/dc/dcmitype/StillImage"/>
    <dc:date>2021-07-13T18:13:58.682293</dc:date>
    <dc:format>image/svg+xml</dc:format>
    <dc:creator>
     <cc:Agent>
      <dc:title>Matplotlib v3.3.4, https://matplotlib.org/</dc:title>
     </cc:Agent>
    </dc:creator>
   </cc:Work>
  </rdf:RDF>
 </metadata>
 <defs>
  <style type="text/css">*{stroke-linecap:butt;stroke-linejoin:round;}</style>
 </defs>
 <g id="figure_1">
  <g id="patch_1">
   <path d="M 0 288 
L 432 288 
L 432 0 
L 0 0 
z
" style="fill:#ffffff;"/>
  </g>
  <g id="axes_1">
   <g id="patch_2">
    <path d="M 54 252 
L 388.8 252 
L 388.8 34.56 
L 54 34.56 
z
" style="fill:#ffffff;"/>
   </g>
   <g id="PolyCollection_1">
    <defs>
     <path d="M 104.273696 -83.970226 
L 104.166304 -83.970226 
L 104.160933 -85.582207 
L 104.155549 -87.194188 
L 104.147281 -88.806169 
L 104.13675 -90.41815 
L 104.128572 -92.030132 
L 104.127875 -93.642113 
L 104.135834 -95.254094 
L 104.148286 -96.866075 
L 104.158641 -98.478056 
L 104.162355 -100.090038 
L 104.159058 -101.702019 
L 104.150972 -103.314 
L 104.139984 -104.925981 
L 104.126659 -106.537962 
L 104.111578 -108.149944 
L 104.096237 -109.761925 
L 104.081796 -111.373906 
L 104.06763 -112.985887 
L 104.051922 -114.597868 
L 104.032696 -116.209849 
L 104.006422 -117.821831 
L 103.966154 -119.433812 
L 103.90455 -121.045793 
L 103.821654 -122.657774 
L 103.728954 -124.269755 
L 103.643161 -125.881737 
L 103.575116 -127.493718 
L 103.525314 -129.105699 
L 103.488778 -130.71768 
L 103.460878 -132.329661 
L 103.437342 -133.941643 
L 103.411786 -135.553624 
L 103.377072 -137.165605 
L 103.329641 -138.777586 
L 103.270828 -140.389567 
L 103.203223 -142.001549 
L 103.126213 -143.61353 
L 103.034234 -145.225511 
L 102.917523 -146.837492 
L 102.765474 -148.449473 
L 102.573503 -150.061455 
L 102.349169 -151.673436 
L 102.108719 -153.285417 
L 101.862515 -154.897398 
L 101.60217 -156.509379 
L 101.305578 -158.12136 
L 100.960523 -159.733342 
L 100.586892 -161.345323 
L 100.232813 -162.957304 
L 99.939344 -164.569285 
L 99.697743 -166.181266 
L 99.43557 -167.793248 
L 99.047525 -169.405229 
L 98.450064 -171.01721 
L 97.620716 -172.629191 
L 96.600677 -174.241172 
L 95.471346 -175.853154 
L 94.327439 -177.465135 
L 93.254283 -179.077116 
L 92.301651 -180.689097 
L 91.454711 -182.301078 
L 90.623473 -183.91306 
L 89.67275 -185.525041 
L 88.484506 -187.137022 
L 87.014289 -188.749003 
L 85.307745 -190.360984 
L 83.473928 -191.972965 
L 81.635155 -193.584947 
L 79.879082 -195.196928 
L 78.238682 -196.808909 
L 76.712888 -198.42089 
L 75.307641 -200.032871 
L 74.054921 -201.644853 
L 72.990992 -203.256834 
L 72.124388 -204.868815 
L 71.440991 -206.480796 
L 70.952667 -208.092777 
L 70.74 -209.704759 
L 70.936809 -211.31674 
L 71.663537 -212.928721 
L 72.966768 -214.540702 
L 74.803438 -216.152683 
L 77.056949 -217.764665 
L 79.562046 -219.376646 
L 82.142803 -220.988627 
L 84.667373 -222.600608 
L 87.084508 -224.212589 
L 89.401106 -225.824571 
L 91.618984 -227.436552 
L 93.698131 -229.048533 
L 95.57991 -230.660514 
L 97.231506 -232.272495 
L 98.658318 -233.884476 
L 99.881646 -235.496458 
L 100.917731 -237.108439 
L 101.778009 -238.72042 
L 102.477332 -240.332401 
L 103.033595 -241.944382 
L 103.461633 -243.556364 
L 104.978367 -243.556364 
L 104.978367 -243.556364 
L 105.406405 -241.944382 
L 105.962668 -240.332401 
L 106.661991 -238.72042 
L 107.522269 -237.108439 
L 108.558354 -235.496458 
L 109.781682 -233.884476 
L 111.208494 -232.272495 
L 112.86009 -230.660514 
L 114.741869 -229.048533 
L 116.821016 -227.436552 
L 119.038894 -225.824571 
L 121.355492 -224.212589 
L 123.772627 -222.600608 
L 126.297197 -220.988627 
L 128.877954 -219.376646 
L 131.383051 -217.764665 
L 133.636562 -216.152683 
L 135.473232 -214.540702 
L 136.776463 -212.928721 
L 137.503191 -211.31674 
L 137.7 -209.704759 
L 137.487333 -208.092777 
L 136.999009 -206.480796 
L 136.315612 -204.868815 
L 135.449008 -203.256834 
L 134.385079 -201.644853 
L 133.132359 -200.032871 
L 131.727112 -198.42089 
L 130.201318 -196.808909 
L 128.560918 -195.196928 
L 126.804845 -193.584947 
L 124.966072 -191.972965 
L 123.132255 -190.360984 
L 121.425711 -188.749003 
L 119.955494 -187.137022 
L 118.76725 -185.525041 
L 117.816527 -183.91306 
L 116.985289 -182.301078 
L 116.138349 -180.689097 
L 115.185717 -179.077116 
L 114.112561 -177.465135 
L 112.968654 -175.853154 
L 111.839323 -174.241172 
L 110.819284 -172.629191 
L 109.989936 -171.01721 
L 109.392475 -169.405229 
L 109.00443 -167.793248 
L 108.742257 -166.181266 
L 108.500656 -164.569285 
L 108.207187 -162.957304 
L 107.853108 -161.345323 
L 107.479477 -159.733342 
L 107.134422 -158.12136 
L 106.83783 -156.509379 
L 106.577485 -154.897398 
L 106.331281 -153.285417 
L 106.090831 -151.673436 
L 105.866497 -150.061455 
L 105.674526 -148.449473 
L 105.522477 -146.837492 
L 105.405766 -145.225511 
L 105.313787 -143.61353 
L 105.236777 -142.001549 
L 105.169172 -140.389567 
L 105.110359 -138.777586 
L 105.062928 -137.165605 
L 105.028214 -135.553624 
L 105.002658 -133.941643 
L 104.979122 -132.329661 
L 104.951222 -130.71768 
L 104.914686 -129.105699 
L 104.864884 -127.493718 
L 104.796839 -125.881737 
L 104.711046 -124.269755 
L 104.618346 -122.657774 
L 104.53545 -121.045793 
L 104.473846 -119.433812 
L 104.433578 -117.821831 
L 104.407304 -116.209849 
L 104.388078 -114.597868 
L 104.37237 -112.985887 
L 104.358204 -111.373906 
L 104.343763 -109.761925 
L 104.328422 -108.149944 
L 104.313341 -106.537962 
L 104.300016 -104.925981 
L 104.289028 -103.314 
L 104.280942 -101.702019 
L 104.277645 -100.090038 
L 104.281359 -98.478056 
L 104.291714 -96.866075 
L 104.304166 -95.254094 
L 104.312125 -93.642113 
L 104.311428 -92.030132 
L 104.30325 -90.41815 
L 104.292719 -88.806169 
L 104.284451 -87.194188 
L 104.279067 -85.582207 
L 104.273696 -83.970226 
z
" id="m3d63f18690" style="stroke:#3f3f3f;stroke-width:1.5;"/>
    </defs>
    <g clip-path="url(#pfb839dbf42)">
     <use style="fill:#3274a1;stroke:#3f3f3f;stroke-width:1.5;" x="0" xlink:href="#m3d63f18690" y="288"/>
    </g>
   </g>
   <g id="PolyCollection_2">
    <defs>
     <path d="M 338.623625 -45.883636 
L 338.536375 -45.883636 
L 338.540879 -47.759772 
L 338.551789 -49.635909 
L 338.563629 -51.512045 
L 338.572289 -53.388181 
L 338.57671 -55.264317 
L 338.577374 -57.140453 
L 338.573975 -59.016589 
L 338.564525 -60.892725 
L 338.547036 -62.768861 
L 338.523369 -64.644997 
L 338.5017 -66.521133 
L 338.492885 -68.39727 
L 338.502008 -70.273406 
L 338.523807 -72.149542 
L 338.547377 -74.025678 
L 338.564541 -75.901814 
L 338.573233 -77.77795 
L 338.574866 -79.654086 
L 338.570789 -81.530222 
L 338.561645 -83.406358 
L 338.549193 -85.282494 
L 338.537226 -87.15863 
L 338.52874 -89.034767 
L 338.52115 -90.910903 
L 338.505645 -92.787039 
L 338.473915 -94.663175 
L 338.427065 -96.539311 
L 338.377296 -98.415447 
L 338.339004 -100.291583 
L 338.317246 -102.167719 
L 338.305737 -104.043855 
L 338.296109 -105.919991 
L 338.286491 -107.796128 
L 338.278945 -109.672264 
L 338.271172 -111.5484 
L 338.255988 -113.424536 
L 338.22987 -115.300672 
L 338.196703 -117.176808 
L 338.158652 -119.052944 
L 338.106194 -120.92908 
L 338.023039 -122.805216 
L 337.90172 -124.681352 
L 337.750903 -126.557489 
L 337.586477 -128.433625 
L 337.417783 -130.309761 
L 337.242815 -132.185897 
L 337.054591 -134.062033 
L 336.850994 -135.938169 
L 336.639859 -137.814305 
L 336.437385 -139.690441 
L 336.261076 -141.566577 
L 336.116603 -143.442713 
L 335.986025 -145.31885 
L 335.835425 -147.194986 
L 335.641226 -149.071122 
L 335.403593 -150.947258 
L 335.128451 -152.823394 
L 334.803369 -154.69953 
L 334.39714 -156.575666 
L 333.877426 -158.451802 
L 333.227528 -160.327938 
L 332.458857 -162.204074 
L 331.61486 -164.08021 
L 330.749623 -165.956347 
L 329.88418 -167.832483 
L 328.982208 -169.708619 
L 327.978635 -171.584755 
L 326.831721 -173.460891 
L 325.536938 -175.337027 
L 324.095499 -177.213163 
L 322.499575 -179.089299 
L 320.774293 -180.965435 
L 319.017702 -182.841571 
L 317.34444 -184.717708 
L 315.760779 -186.593844 
L 314.136204 -188.46998 
L 312.351002 -190.346116 
L 310.461441 -192.222252 
L 308.680205 -194.098388 
L 307.203583 -195.974524 
L 306.102434 -197.85066 
L 305.38317 -199.726796 
L 305.1 -201.602932 
L 305.379166 -203.479069 
L 306.366495 -205.355205 
L 308.163742 -207.231341 
L 310.766158 -209.107477 
L 314.022024 -210.983613 
L 317.664552 -212.859749 
L 321.403353 -214.735885 
L 324.992682 -216.612021 
L 328.236644 -218.488157 
L 330.982454 -220.364293 
L 333.151702 -222.240429 
L 334.774132 -224.116566 
L 335.961988 -225.992702 
L 336.837919 -227.868838 
L 337.48423 -229.744974 
L 337.943819 -231.62111 
L 339.216181 -231.62111 
L 339.216181 -231.62111 
L 339.67577 -229.744974 
L 340.322081 -227.868838 
L 341.198012 -225.992702 
L 342.385868 -224.116566 
L 344.008298 -222.240429 
L 346.177546 -220.364293 
L 348.923356 -218.488157 
L 352.167318 -216.612021 
L 355.756647 -214.735885 
L 359.495448 -212.859749 
L 363.137976 -210.983613 
L 366.393842 -209.107477 
L 368.996258 -207.231341 
L 370.793505 -205.355205 
L 371.780834 -203.479069 
L 372.06 -201.602932 
L 371.77683 -199.726796 
L 371.057566 -197.85066 
L 369.956417 -195.974524 
L 368.479795 -194.098388 
L 366.698559 -192.222252 
L 364.808998 -190.346116 
L 363.023796 -188.46998 
L 361.399221 -186.593844 
L 359.81556 -184.717708 
L 358.142298 -182.841571 
L 356.385707 -180.965435 
L 354.660425 -179.089299 
L 353.064501 -177.213163 
L 351.623062 -175.337027 
L 350.328279 -173.460891 
L 349.181365 -171.584755 
L 348.177792 -169.708619 
L 347.27582 -167.832483 
L 346.410377 -165.956347 
L 345.54514 -164.08021 
L 344.701143 -162.204074 
L 343.932472 -160.327938 
L 343.282574 -158.451802 
L 342.76286 -156.575666 
L 342.356631 -154.69953 
L 342.031549 -152.823394 
L 341.756407 -150.947258 
L 341.518774 -149.071122 
L 341.324575 -147.194986 
L 341.173975 -145.31885 
L 341.043397 -143.442713 
L 340.898924 -141.566577 
L 340.722615 -139.690441 
L 340.520141 -137.814305 
L 340.309006 -135.938169 
L 340.105409 -134.062033 
L 339.917185 -132.185897 
L 339.742217 -130.309761 
L 339.573523 -128.433625 
L 339.409097 -126.557489 
L 339.25828 -124.681352 
L 339.136961 -122.805216 
L 339.053806 -120.92908 
L 339.001348 -119.052944 
L 338.963297 -117.176808 
L 338.93013 -115.300672 
L 338.904012 -113.424536 
L 338.888828 -111.5484 
L 338.881055 -109.672264 
L 338.873509 -107.796128 
L 338.863891 -105.919991 
L 338.854263 -104.043855 
L 338.842754 -102.167719 
L 338.820996 -100.291583 
L 338.782704 -98.415447 
L 338.732935 -96.539311 
L 338.686085 -94.663175 
L 338.654355 -92.787039 
L 338.63885 -90.910903 
L 338.63126 -89.034767 
L 338.622774 -87.15863 
L 338.610807 -85.282494 
L 338.598355 -83.406358 
L 338.589211 -81.530222 
L 338.585134 -79.654086 
L 338.586767 -77.77795 
L 338.595459 -75.901814 
L 338.612623 -74.025678 
L 338.636193 -72.149542 
L 338.657992 -70.273406 
L 338.667115 -68.39727 
L 338.6583 -66.521133 
L 338.636631 -64.644997 
L 338.612964 -62.768861 
L 338.595475 -60.892725 
L 338.586025 -59.016589 
L 338.582626 -57.140453 
L 338.58329 -55.264317 
L 338.587711 -53.388181 
L 338.596371 -51.512045 
L 338.608211 -49.635909 
L 338.619121 -47.759772 
L 338.623625 -45.883636 
z
" id="md5855c297e" style="stroke:#3f3f3f;stroke-width:1.5;"/>
    </defs>
    <g clip-path="url(#pfb839dbf42)">
     <use style="fill:#e1812c;stroke:#3f3f3f;stroke-width:1.5;" x="0" xlink:href="#md5855c297e" y="288"/>
    </g>
   </g>
   <g id="patch_3">
    <path clip-path="url(#pfb839dbf42)" d="M 137.7 5.937824 
L 137.7 5.937824 
L 137.7 5.937824 
L 137.7 5.937824 
z
" style="fill:#3274a1;stroke:#3f3f3f;stroke-linejoin:miter;stroke-width:0.75;"/>
   </g>
   <g id="patch_4">
    <path clip-path="url(#pfb839dbf42)" d="M 137.7 5.937824 
L 137.7 5.937824 
L 137.7 5.937824 
L 137.7 5.937824 
z
" style="fill:#e1812c;stroke:#3f3f3f;stroke-linejoin:miter;stroke-width:0.75;"/>
   </g>
   <g id="matplotlib.axis_1">
    <g id="xtick_1">
     <g id="line2d_1">
      <defs>
       <path d="M 0 0 
L 0 3.5 
" id="m470357e266" style="stroke:#000000;stroke-width:0.8;"/>
      </defs>
      <g>
       <use style="stroke:#000000;stroke-width:0.8;" x="137.7" xlink:href="#m470357e266" y="252"/>
      </g>
     </g>
     <g id="text_1">
      <!-- Z_1_ns -->
      <g transform="translate(120.320312 266.320312)scale(0.1 -0.1)">
       <defs>
        <path d="M 5.609375 72.90625 
L 62.890625 72.90625 
L 62.890625 65.375 
L 16.796875 8.296875 
L 64.015625 8.296875 
L 64.015625 0 
L 4.5 0 
L 4.5 7.515625 
L 50.59375 64.59375 
L 5.609375 64.59375 
z
" id="DejaVuSans-90"/>
        <path d="M 50.984375 -16.609375 
L 50.984375 -23.578125 
L -0.984375 -23.578125 
L -0.984375 -16.609375 
z
" id="DejaVuSans-95"/>
        <path d="M 12.40625 8.296875 
L 28.515625 8.296875 
L 28.515625 63.921875 
L 10.984375 60.40625 
L 10.984375 69.390625 
L 28.421875 72.90625 
L 38.28125 72.90625 
L 38.28125 8.296875 
L 54.390625 8.296875 
L 54.390625 0 
L 12.40625 0 
z
" id="DejaVuSans-49"/>
        <path d="M 54.890625 33.015625 
L 54.890625 0 
L 45.90625 0 
L 45.90625 32.71875 
Q 45.90625 40.484375 42.875 44.328125 
Q 39.84375 48.1875 33.796875 48.1875 
Q 26.515625 48.1875 22.3125 43.546875 
Q 18.109375 38.921875 18.109375 30.90625 
L 18.109375 0 
L 9.078125 0 
L 9.078125 54.6875 
L 18.109375 54.6875 
L 18.109375 46.1875 
Q 21.34375 51.125 25.703125 53.5625 
Q 30.078125 56 35.796875 56 
Q 45.21875 56 50.046875 50.171875 
Q 54.890625 44.34375 54.890625 33.015625 
z
" id="DejaVuSans-110"/>
        <path d="M 44.28125 53.078125 
L 44.28125 44.578125 
Q 40.484375 46.53125 36.375 47.5 
Q 32.28125 48.484375 27.875 48.484375 
Q 21.1875 48.484375 17.84375 46.4375 
Q 14.5 44.390625 14.5 40.28125 
Q 14.5 37.15625 16.890625 35.375 
Q 19.28125 33.59375 26.515625 31.984375 
L 29.59375 31.296875 
Q 39.15625 29.25 43.1875 25.515625 
Q 47.21875 21.78125 47.21875 15.09375 
Q 47.21875 7.46875 41.1875 3.015625 
Q 35.15625 -1.421875 24.609375 -1.421875 
Q 20.21875 -1.421875 15.453125 -0.5625 
Q 10.6875 0.296875 5.421875 2 
L 5.421875 11.28125 
Q 10.40625 8.6875 15.234375 7.390625 
Q 20.0625 6.109375 24.8125 6.109375 
Q 31.15625 6.109375 34.5625 8.28125 
Q 37.984375 10.453125 37.984375 14.40625 
Q 37.984375 18.0625 35.515625 20.015625 
Q 33.0625 21.96875 24.703125 23.78125 
L 21.578125 24.515625 
Q 13.234375 26.265625 9.515625 29.90625 
Q 5.8125 33.546875 5.8125 39.890625 
Q 5.8125 47.609375 11.28125 51.796875 
Q 16.75 56 26.8125 56 
Q 31.78125 56 36.171875 55.265625 
Q 40.578125 54.546875 44.28125 53.078125 
z
" id="DejaVuSans-115"/>
       </defs>
       <use xlink:href="#DejaVuSans-90"/>
       <use x="68.505859" xlink:href="#DejaVuSans-95"/>
       <use x="118.505859" xlink:href="#DejaVuSans-49"/>
       <use x="182.128906" xlink:href="#DejaVuSans-95"/>
       <use x="232.128906" xlink:href="#DejaVuSans-110"/>
       <use x="295.507812" xlink:href="#DejaVuSans-115"/>
      </g>
     </g>
    </g>
    <g id="xtick_2">
     <g id="line2d_2">
      <g>
       <use style="stroke:#000000;stroke-width:0.8;" x="305.1" xlink:href="#m470357e266" y="252"/>
      </g>
     </g>
     <g id="text_2">
      <!-- Z_3_ns -->
      <g transform="translate(287.720313 266.421875)scale(0.1 -0.1)">
       <defs>
        <path d="M 40.578125 39.3125 
Q 47.65625 37.796875 51.625 33 
Q 55.609375 28.21875 55.609375 21.1875 
Q 55.609375 10.40625 48.1875 4.484375 
Q 40.765625 -1.421875 27.09375 -1.421875 
Q 22.515625 -1.421875 17.65625 -0.515625 
Q 12.796875 0.390625 7.625 2.203125 
L 7.625 11.71875 
Q 11.71875 9.328125 16.59375 8.109375 
Q 21.484375 6.890625 26.8125 6.890625 
Q 36.078125 6.890625 40.9375 10.546875 
Q 45.796875 14.203125 45.796875 21.1875 
Q 45.796875 27.640625 41.28125 31.265625 
Q 36.765625 34.90625 28.71875 34.90625 
L 20.21875 34.90625 
L 20.21875 43.015625 
L 29.109375 43.015625 
Q 36.375 43.015625 40.234375 45.921875 
Q 44.09375 48.828125 44.09375 54.296875 
Q 44.09375 59.90625 40.109375 62.90625 
Q 36.140625 65.921875 28.71875 65.921875 
Q 24.65625 65.921875 20.015625 65.03125 
Q 15.375 64.15625 9.8125 62.3125 
L 9.8125 71.09375 
Q 15.4375 72.65625 20.34375 73.4375 
Q 25.25 74.21875 29.59375 74.21875 
Q 40.828125 74.21875 47.359375 69.109375 
Q 53.90625 64.015625 53.90625 55.328125 
Q 53.90625 49.265625 50.4375 45.09375 
Q 46.96875 40.921875 40.578125 39.3125 
z
" id="DejaVuSans-51"/>
       </defs>
       <use xlink:href="#DejaVuSans-90"/>
       <use x="68.505859" xlink:href="#DejaVuSans-95"/>
       <use x="118.505859" xlink:href="#DejaVuSans-51"/>
       <use x="182.128906" xlink:href="#DejaVuSans-95"/>
       <use x="232.128906" xlink:href="#DejaVuSans-110"/>
       <use x="295.507812" xlink:href="#DejaVuSans-115"/>
      </g>
     </g>
    </g>
    <g id="text_3">
     <!-- set -->
     <g transform="translate(213.758594 280.378125)scale(0.1 -0.1)">
      <defs>
       <path d="M 56.203125 29.59375 
L 56.203125 25.203125 
L 14.890625 25.203125 
Q 15.484375 15.921875 20.484375 11.0625 
Q 25.484375 6.203125 34.421875 6.203125 
Q 39.59375 6.203125 44.453125 7.46875 
Q 49.3125 8.734375 54.109375 11.28125 
L 54.109375 2.78125 
Q 49.265625 0.734375 44.1875 -0.34375 
Q 39.109375 -1.421875 33.890625 -1.421875 
Q 20.796875 -1.421875 13.15625 6.1875 
Q 5.515625 13.8125 5.515625 26.8125 
Q 5.515625 40.234375 12.765625 48.109375 
Q 20.015625 56 32.328125 56 
Q 43.359375 56 49.78125 48.890625 
Q 56.203125 41.796875 56.203125 29.59375 
z
M 47.21875 32.234375 
Q 47.125 39.59375 43.09375 43.984375 
Q 39.0625 48.390625 32.421875 48.390625 
Q 24.90625 48.390625 20.390625 44.140625 
Q 15.875 39.890625 15.1875 32.171875 
z
" id="DejaVuSans-101"/>
       <path d="M 18.3125 70.21875 
L 18.3125 54.6875 
L 36.8125 54.6875 
L 36.8125 47.703125 
L 18.3125 47.703125 
L 18.3125 18.015625 
Q 18.3125 11.328125 20.140625 9.421875 
Q 21.96875 7.515625 27.59375 7.515625 
L 36.8125 7.515625 
L 36.8125 0 
L 27.59375 0 
Q 17.1875 0 13.234375 3.875 
Q 9.28125 7.765625 9.28125 18.015625 
L 9.28125 47.703125 
L 2.6875 47.703125 
L 2.6875 54.6875 
L 9.28125 54.6875 
L 9.28125 70.21875 
z
" id="DejaVuSans-116"/>
      </defs>
      <use xlink:href="#DejaVuSans-115"/>
      <use x="52.099609" xlink:href="#DejaVuSans-101"/>
      <use x="113.623047" xlink:href="#DejaVuSans-116"/>
     </g>
    </g>
   </g>
   <g id="matplotlib.axis_2">
    <g id="ytick_1">
     <g id="line2d_3">
      <defs>
       <path d="M 0 0 
L -3.5 0 
" id="m1f5aa4ca07" style="stroke:#000000;stroke-width:0.8;"/>
      </defs>
      <g>
       <use style="stroke:#000000;stroke-width:0.8;" x="54" xlink:href="#m1f5aa4ca07" y="238.378213"/>
      </g>
     </g>
     <g id="text_4">
      <!-- −120 -->
      <g transform="translate(19.532812 242.177432)scale(0.1 -0.1)">
       <defs>
        <path d="M 10.59375 35.5 
L 73.1875 35.5 
L 73.1875 27.203125 
L 10.59375 27.203125 
z
" id="DejaVuSans-8722"/>
        <path d="M 19.1875 8.296875 
L 53.609375 8.296875 
L 53.609375 0 
L 7.328125 0 
L 7.328125 8.296875 
Q 12.9375 14.109375 22.625 23.890625 
Q 32.328125 33.6875 34.8125 36.53125 
Q 39.546875 41.84375 41.421875 45.53125 
Q 43.3125 49.21875 43.3125 52.78125 
Q 43.3125 58.59375 39.234375 62.25 
Q 35.15625 65.921875 28.609375 65.921875 
Q 23.96875 65.921875 18.8125 64.3125 
Q 13.671875 62.703125 7.8125 59.421875 
L 7.8125 69.390625 
Q 13.765625 71.78125 18.9375 73 
Q 24.125 74.21875 28.421875 74.21875 
Q 39.75 74.21875 46.484375 68.546875 
Q 53.21875 62.890625 53.21875 53.421875 
Q 53.21875 48.921875 51.53125 44.890625 
Q 49.859375 40.875 45.40625 35.40625 
Q 44.1875 33.984375 37.640625 27.21875 
Q 31.109375 20.453125 19.1875 8.296875 
z
" id="DejaVuSans-50"/>
        <path d="M 31.78125 66.40625 
Q 24.171875 66.40625 20.328125 58.90625 
Q 16.5 51.421875 16.5 36.375 
Q 16.5 21.390625 20.328125 13.890625 
Q 24.171875 6.390625 31.78125 6.390625 
Q 39.453125 6.390625 43.28125 13.890625 
Q 47.125 21.390625 47.125 36.375 
Q 47.125 51.421875 43.28125 58.90625 
Q 39.453125 66.40625 31.78125 66.40625 
z
M 31.78125 74.21875 
Q 44.046875 74.21875 50.515625 64.515625 
Q 56.984375 54.828125 56.984375 36.375 
Q 56.984375 17.96875 50.515625 8.265625 
Q 44.046875 -1.421875 31.78125 -1.421875 
Q 19.53125 -1.421875 13.0625 8.265625 
Q 6.59375 17.96875 6.59375 36.375 
Q 6.59375 54.828125 13.0625 64.515625 
Q 19.53125 74.21875 31.78125 74.21875 
z
" id="DejaVuSans-48"/>
       </defs>
       <use xlink:href="#DejaVuSans-8722"/>
       <use x="83.789062" xlink:href="#DejaVuSans-49"/>
       <use x="147.412109" xlink:href="#DejaVuSans-50"/>
       <use x="211.035156" xlink:href="#DejaVuSans-48"/>
      </g>
     </g>
    </g>
    <g id="ytick_2">
     <g id="line2d_4">
      <g>
       <use style="stroke:#000000;stroke-width:0.8;" x="54" xlink:href="#m1f5aa4ca07" y="199.638148"/>
      </g>
     </g>
     <g id="text_5">
      <!-- −100 -->
      <g transform="translate(19.532812 203.437367)scale(0.1 -0.1)">
       <use xlink:href="#DejaVuSans-8722"/>
       <use x="83.789062" xlink:href="#DejaVuSans-49"/>
       <use x="147.412109" xlink:href="#DejaVuSans-48"/>
       <use x="211.035156" xlink:href="#DejaVuSans-48"/>
      </g>
     </g>
    </g>
    <g id="ytick_3">
     <g id="line2d_5">
      <g>
       <use style="stroke:#000000;stroke-width:0.8;" x="54" xlink:href="#m1f5aa4ca07" y="160.898083"/>
      </g>
     </g>
     <g id="text_6">
      <!-- −80 -->
      <g transform="translate(25.895312 164.697302)scale(0.1 -0.1)">
       <defs>
        <path d="M 31.78125 34.625 
Q 24.75 34.625 20.71875 30.859375 
Q 16.703125 27.09375 16.703125 20.515625 
Q 16.703125 13.921875 20.71875 10.15625 
Q 24.75 6.390625 31.78125 6.390625 
Q 38.8125 6.390625 42.859375 10.171875 
Q 46.921875 13.96875 46.921875 20.515625 
Q 46.921875 27.09375 42.890625 30.859375 
Q 38.875 34.625 31.78125 34.625 
z
M 21.921875 38.8125 
Q 15.578125 40.375 12.03125 44.71875 
Q 8.5 49.078125 8.5 55.328125 
Q 8.5 64.0625 14.71875 69.140625 
Q 20.953125 74.21875 31.78125 74.21875 
Q 42.671875 74.21875 48.875 69.140625 
Q 55.078125 64.0625 55.078125 55.328125 
Q 55.078125 49.078125 51.53125 44.71875 
Q 48 40.375 41.703125 38.8125 
Q 48.828125 37.15625 52.796875 32.3125 
Q 56.78125 27.484375 56.78125 20.515625 
Q 56.78125 9.90625 50.3125 4.234375 
Q 43.84375 -1.421875 31.78125 -1.421875 
Q 19.734375 -1.421875 13.25 4.234375 
Q 6.78125 9.90625 6.78125 20.515625 
Q 6.78125 27.484375 10.78125 32.3125 
Q 14.796875 37.15625 21.921875 38.8125 
z
M 18.3125 54.390625 
Q 18.3125 48.734375 21.84375 45.5625 
Q 25.390625 42.390625 31.78125 42.390625 
Q 38.140625 42.390625 41.71875 45.5625 
Q 45.3125 48.734375 45.3125 54.390625 
Q 45.3125 60.0625 41.71875 63.234375 
Q 38.140625 66.40625 31.78125 66.40625 
Q 25.390625 66.40625 21.84375 63.234375 
Q 18.3125 60.0625 18.3125 54.390625 
z
" id="DejaVuSans-56"/>
       </defs>
       <use xlink:href="#DejaVuSans-8722"/>
       <use x="83.789062" xlink:href="#DejaVuSans-56"/>
       <use x="147.412109" xlink:href="#DejaVuSans-48"/>
      </g>
     </g>
    </g>
    <g id="ytick_4">
     <g id="line2d_6">
      <g>
       <use style="stroke:#000000;stroke-width:0.8;" x="54" xlink:href="#m1f5aa4ca07" y="122.158018"/>
      </g>
     </g>
     <g id="text_7">
      <!-- −60 -->
      <g transform="translate(25.895312 125.957237)scale(0.1 -0.1)">
       <defs>
        <path d="M 33.015625 40.375 
Q 26.375 40.375 22.484375 35.828125 
Q 18.609375 31.296875 18.609375 23.390625 
Q 18.609375 15.53125 22.484375 10.953125 
Q 26.375 6.390625 33.015625 6.390625 
Q 39.65625 6.390625 43.53125 10.953125 
Q 47.40625 15.53125 47.40625 23.390625 
Q 47.40625 31.296875 43.53125 35.828125 
Q 39.65625 40.375 33.015625 40.375 
z
M 52.59375 71.296875 
L 52.59375 62.3125 
Q 48.875 64.0625 45.09375 64.984375 
Q 41.3125 65.921875 37.59375 65.921875 
Q 27.828125 65.921875 22.671875 59.328125 
Q 17.53125 52.734375 16.796875 39.40625 
Q 19.671875 43.65625 24.015625 45.921875 
Q 28.375 48.1875 33.59375 48.1875 
Q 44.578125 48.1875 50.953125 41.515625 
Q 57.328125 34.859375 57.328125 23.390625 
Q 57.328125 12.15625 50.6875 5.359375 
Q 44.046875 -1.421875 33.015625 -1.421875 
Q 20.359375 -1.421875 13.671875 8.265625 
Q 6.984375 17.96875 6.984375 36.375 
Q 6.984375 53.65625 15.1875 63.9375 
Q 23.390625 74.21875 37.203125 74.21875 
Q 40.921875 74.21875 44.703125 73.484375 
Q 48.484375 72.75 52.59375 71.296875 
z
" id="DejaVuSans-54"/>
       </defs>
       <use xlink:href="#DejaVuSans-8722"/>
       <use x="83.789062" xlink:href="#DejaVuSans-54"/>
       <use x="147.412109" xlink:href="#DejaVuSans-48"/>
      </g>
     </g>
    </g>
    <g id="ytick_5">
     <g id="line2d_7">
      <g>
       <use style="stroke:#000000;stroke-width:0.8;" x="54" xlink:href="#m1f5aa4ca07" y="83.417954"/>
      </g>
     </g>
     <g id="text_8">
      <!-- −40 -->
      <g transform="translate(25.895312 87.217172)scale(0.1 -0.1)">
       <defs>
        <path d="M 37.796875 64.3125 
L 12.890625 25.390625 
L 37.796875 25.390625 
z
M 35.203125 72.90625 
L 47.609375 72.90625 
L 47.609375 25.390625 
L 58.015625 25.390625 
L 58.015625 17.1875 
L 47.609375 17.1875 
L 47.609375 0 
L 37.796875 0 
L 37.796875 17.1875 
L 4.890625 17.1875 
L 4.890625 26.703125 
z
" id="DejaVuSans-52"/>
       </defs>
       <use xlink:href="#DejaVuSans-8722"/>
       <use x="83.789062" xlink:href="#DejaVuSans-52"/>
       <use x="147.412109" xlink:href="#DejaVuSans-48"/>
      </g>
     </g>
    </g>
    <g id="ytick_6">
     <g id="line2d_8">
      <g>
       <use style="stroke:#000000;stroke-width:0.8;" x="54" xlink:href="#m1f5aa4ca07" y="44.677889"/>
      </g>
     </g>
     <g id="text_9">
      <!-- −20 -->
      <g transform="translate(25.895312 48.477107)scale(0.1 -0.1)">
       <use xlink:href="#DejaVuSans-8722"/>
       <use x="83.789062" xlink:href="#DejaVuSans-50"/>
       <use x="147.412109" xlink:href="#DejaVuSans-48"/>
      </g>
     </g>
    </g>
    <g id="text_10">
     <!-- value -->
     <g transform="translate(13.453125 156.937813)rotate(-90)scale(0.1 -0.1)">
      <defs>
       <path d="M 2.984375 54.6875 
L 12.5 54.6875 
L 29.59375 8.796875 
L 46.6875 54.6875 
L 56.203125 54.6875 
L 35.6875 0 
L 23.484375 0 
z
" id="DejaVuSans-118"/>
       <path d="M 34.28125 27.484375 
Q 23.390625 27.484375 19.1875 25 
Q 14.984375 22.515625 14.984375 16.5 
Q 14.984375 11.71875 18.140625 8.90625 
Q 21.296875 6.109375 26.703125 6.109375 
Q 34.1875 6.109375 38.703125 11.40625 
Q 43.21875 16.703125 43.21875 25.484375 
L 43.21875 27.484375 
z
M 52.203125 31.203125 
L 52.203125 0 
L 43.21875 0 
L 43.21875 8.296875 
Q 40.140625 3.328125 35.546875 0.953125 
Q 30.953125 -1.421875 24.3125 -1.421875 
Q 15.921875 -1.421875 10.953125 3.296875 
Q 6 8.015625 6 15.921875 
Q 6 25.140625 12.171875 29.828125 
Q 18.359375 34.515625 30.609375 34.515625 
L 43.21875 34.515625 
L 43.21875 35.40625 
Q 43.21875 41.609375 39.140625 45 
Q 35.0625 48.390625 27.6875 48.390625 
Q 23 48.390625 18.546875 47.265625 
Q 14.109375 46.140625 10.015625 43.890625 
L 10.015625 52.203125 
Q 14.9375 54.109375 19.578125 55.046875 
Q 24.21875 56 28.609375 56 
Q 40.484375 56 46.34375 49.84375 
Q 52.203125 43.703125 52.203125 31.203125 
z
" id="DejaVuSans-97"/>
       <path d="M 9.421875 75.984375 
L 18.40625 75.984375 
L 18.40625 0 
L 9.421875 0 
z
" id="DejaVuSans-108"/>
       <path d="M 8.5 21.578125 
L 8.5 54.6875 
L 17.484375 54.6875 
L 17.484375 21.921875 
Q 17.484375 14.15625 20.5 10.265625 
Q 23.53125 6.390625 29.59375 6.390625 
Q 36.859375 6.390625 41.078125 11.03125 
Q 45.3125 15.671875 45.3125 23.6875 
L 45.3125 54.6875 
L 54.296875 54.6875 
L 54.296875 0 
L 45.3125 0 
L 45.3125 8.40625 
Q 42.046875 3.421875 37.71875 1 
Q 33.40625 -1.421875 27.6875 -1.421875 
Q 18.265625 -1.421875 13.375 4.4375 
Q 8.5 10.296875 8.5 21.578125 
z
M 31.109375 56 
z
" id="DejaVuSans-117"/>
      </defs>
      <use xlink:href="#DejaVuSans-118"/>
      <use x="59.179688" xlink:href="#DejaVuSans-97"/>
      <use x="120.458984" xlink:href="#DejaVuSans-108"/>
      <use x="148.242188" xlink:href="#DejaVuSans-117"/>
      <use x="211.621094" xlink:href="#DejaVuSans-101"/>
     </g>
    </g>
   </g>
   <g id="line2d_9">
    <path clip-path="url(#pfb839dbf42)" d="M 104.22 130.557689 
L 104.22 44.443636 
" style="fill:none;stroke:#3f3f3f;stroke-linecap:square;stroke-width:1.5;"/>
   </g>
   <g id="line2d_10">
    <path clip-path="url(#pfb839dbf42)" d="M 104.22 96.099889 
L 104.22 73.08572 
" style="fill:none;stroke:#3f3f3f;stroke-linecap:square;stroke-width:4.5;"/>
   </g>
   <g id="line2d_11">
    <path clip-path="url(#pfb839dbf42)" d="M 338.58 139.978797 
L 338.58 56.37889 
" style="fill:none;stroke:#3f3f3f;stroke-linecap:square;stroke-width:1.5;"/>
   </g>
   <g id="line2d_12">
    <path clip-path="url(#pfb839dbf42)" d="M 338.58 105.503647 
L 338.58 82.438649 
" style="fill:none;stroke:#3f3f3f;stroke-linecap:square;stroke-width:4.5;"/>
   </g>
   <g id="patch_5">
    <path d="M 54 252 
L 54 34.56 
" style="fill:none;stroke:#000000;stroke-linecap:square;stroke-linejoin:miter;stroke-width:0.8;"/>
   </g>
   <g id="patch_6">
    <path d="M 388.8 252 
L 388.8 34.56 
" style="fill:none;stroke:#000000;stroke-linecap:square;stroke-linejoin:miter;stroke-width:0.8;"/>
   </g>
   <g id="patch_7">
    <path d="M 54 252 
L 388.8 252 
" style="fill:none;stroke:#000000;stroke-linecap:square;stroke-linejoin:miter;stroke-width:0.8;"/>
   </g>
   <g id="patch_8">
    <path d="M 54 34.56 
L 388.8 34.56 
" style="fill:none;stroke:#000000;stroke-linecap:square;stroke-linejoin:miter;stroke-width:0.8;"/>
   </g>
   <g id="PathCollection_1">
    <defs>
     <path d="M 0 1.5 
C 0.397805 1.5 0.77937 1.341951 1.06066 1.06066 
C 1.341951 0.77937 1.5 0.397805 1.5 0 
C 1.5 -0.397805 1.341951 -0.77937 1.06066 -1.06066 
C 0.77937 -1.341951 0.397805 -1.5 0 -1.5 
C -0.397805 -1.5 -0.77937 -1.341951 -1.06066 -1.06066 
C -1.341951 -0.77937 -1.5 -0.397805 -1.5 0 
C -1.5 0.397805 -1.341951 0.77937 -1.06066 1.06066 
C -0.77937 1.341951 -0.397805 1.5 0 1.5 
z
" id="mc0be54ca86" style="stroke:#3f3f3f;"/>
    </defs>
    <g clip-path="url(#pfb839dbf42)">
     <use style="fill:#ffffff;stroke:#3f3f3f;" x="104.22" xlink:href="#mc0be54ca86" y="83.488652"/>
    </g>
   </g>
   <g id="PathCollection_2">
    <g clip-path="url(#pfb839dbf42)">
     <use style="fill:#ffffff;stroke:#3f3f3f;" x="338.58" xlink:href="#mc0be54ca86" y="92.454962"/>
    </g>
   </g>
   <g id="legend_1">
    <g id="patch_9">
     <path d="M 61 247 
L 127.759375 247 
Q 129.759375 247 129.759375 245 
L 129.759375 201.409375 
Q 129.759375 199.409375 127.759375 199.409375 
L 61 199.409375 
Q 59 199.409375 59 201.409375 
L 59 245 
Q 59 247 61 247 
z
" style="fill:#ffffff;opacity:0.8;stroke:#cccccc;stroke-linejoin:miter;"/>
    </g>
    <g id="text_11">
     <!-- set -->
     <g transform="translate(86.738281 211.007812)scale(0.1 -0.1)">
      <use xlink:href="#DejaVuSans-115"/>
      <use x="52.099609" xlink:href="#DejaVuSans-101"/>
      <use x="113.623047" xlink:href="#DejaVuSans-116"/>
     </g>
    </g>
    <g id="patch_10">
     <path d="M 63 225.685937 
L 83 225.685937 
L 83 218.685937 
L 63 218.685937 
z
" style="fill:#3274a1;stroke:#3f3f3f;stroke-linejoin:miter;stroke-width:0.75;"/>
    </g>
    <g id="text_12">
     <!-- Z_1_ns -->
     <g transform="translate(91 225.685937)scale(0.1 -0.1)">
      <use xlink:href="#DejaVuSans-90"/>
      <use x="68.505859" xlink:href="#DejaVuSans-95"/>
      <use x="118.505859" xlink:href="#DejaVuSans-49"/>
      <use x="182.128906" xlink:href="#DejaVuSans-95"/>
      <use x="232.128906" xlink:href="#DejaVuSans-110"/>
      <use x="295.507812" xlink:href="#DejaVuSans-115"/>
     </g>
    </g>
    <g id="patch_11">
     <path d="M 63 240.642188 
L 83 240.642188 
L 83 233.642188 
L 63 233.642188 
z
" style="fill:#e1812c;stroke:#3f3f3f;stroke-linejoin:miter;stroke-width:0.75;"/>
    </g>
    <g id="text_13">
     <!-- Z_3_ns -->
     <g transform="translate(91 240.642188)scale(0.1 -0.1)">
      <use xlink:href="#DejaVuSans-90"/>
      <use x="68.505859" xlink:href="#DejaVuSans-95"/>
      <use x="118.505859" xlink:href="#DejaVuSans-51"/>
      <use x="182.128906" xlink:href="#DejaVuSans-95"/>
      <use x="232.128906" xlink:href="#DejaVuSans-110"/>
      <use x="295.507812" xlink:href="#DejaVuSans-115"/>
     </g>
    </g>
   </g>
  </g>
 </g>
 <defs>
  <clipPath id="pfb839dbf42">
   <rect height="217.44" width="334.8" x="54" y="34.56"/>
  </clipPath>
 </defs>
</svg>
