<?xml version="1.0" encoding="utf-8" standalone="no"?>
<!DOCTYPE svg PUBLIC "-//W3C//DTD SVG 1.1//EN"
  "http://www.w3.org/Graphics/SVG/1.1/DTD/svg11.dtd">
<!-- Created with matplotlib (https://matplotlib.org/) -->
<svg height="288pt" version="1.1" viewBox="0 0 432 288" width="432pt" xmlns="http://www.w3.org/2000/svg" xmlns:xlink="http://www.w3.org/1999/xlink">
 <metadata>
  <rdf:RDF xmlns:cc="http://creativecommons.org/ns#" xmlns:dc="http://purl.org/dc/elements/1.1/" xmlns:rdf="http://www.w3.org/1999/02/22-rdf-syntax-ns#">
   <cc:Work>
    <dc:type rdf:resource="http://purl.org/dc/dcmitype/StillImage"/>
    <dc:date>2022-05-07T17:58:09.519018</dc:date>
    <dc:format>image/svg+xml</dc:format>
    <dc:creator>
     <cc:Agent>
      <dc:title>Matplotlib v3.3.4, https://matplotlib.org/</dc:title>
     </cc:Agent>
    </dc:creator>
   </cc:Work>
  </rdf:RDF>
 </metadata>
 <defs>
  <style type="text/css">*{stroke-linecap:butt;stroke-linejoin:round;}</style>
 </defs>
 <g id="figure_1">
  <g id="patch_1">
   <path d="M 0 288 
L 432 288 
L 432 0 
L 0 0 
z
" style="fill:#ffffff;"/>
  </g>
  <g id="axes_1">
   <g id="patch_2">
    <path d="M 54 252 
L 388.8 252 
L 388.8 34.56 
L 54 34.56 
z
" style="fill:#ffffff;"/>
   </g>
   <g id="PolyCollection_1">
    <defs>
     <path d="M 80.061748 -45.883636 
L 80.018252 -45.883636 
L 80.017753 -47.855782 
L 80.018204 -49.827928 
L 80.018207 -51.800073 
L 80.016905 -53.772219 
L 80.014391 -55.744365 
L 80.011181 -57.71651 
L 80.007413 -59.688656 
L 80.002669 -61.660802 
L 79.996622 -63.632947 
L 79.989737 -65.605093 
L 79.983188 -67.577239 
L 79.977975 -69.549384 
L 79.974075 -71.52153 
L 79.97037 -73.493676 
L 79.965287 -75.465821 
L 79.957336 -77.437967 
L 79.944925 -79.410113 
L 79.925762 -81.382258 
L 79.897124 -83.354404 
L 79.857845 -85.32655 
L 79.81112 -87.298695 
L 79.765564 -89.270841 
L 79.732408 -91.242987 
L 79.719657 -93.215132 
L 79.727004 -95.187278 
L 79.745298 -97.159424 
L 79.760911 -99.131569 
L 79.761885 -101.103715 
L 79.742149 -103.075861 
L 79.702425 -105.048006 
L 79.648929 -107.020152 
L 79.591257 -108.992298 
L 79.539471 -110.964443 
L 79.499726 -112.936589 
L 79.469927 -114.908735 
L 79.439452 -116.88088 
L 79.395688 -118.853026 
L 79.33425 -120.825172 
L 79.264719 -122.797317 
L 79.205603 -124.769463 
L 79.170602 -126.741609 
L 79.156176 -128.713754 
L 79.140761 -130.6859 
L 79.097244 -132.658046 
L 79.009129 -134.630191 
L 78.87738 -136.602337 
L 78.713708 -138.574483 
L 78.52886 -140.546628 
L 78.327698 -142.518774 
L 78.113234 -144.49092 
L 77.891544 -146.463065 
L 77.670492 -148.435211 
L 77.454272 -150.407357 
L 77.240422 -152.379502 
L 77.021933 -154.351648 
L 76.791023 -156.323794 
L 76.540159 -158.295939 
L 76.260124 -160.268085 
L 75.939106 -162.240231 
L 75.566249 -164.212376 
L 75.137531 -166.184522 
L 74.657647 -168.156668 
L 74.135076 -170.128813 
L 73.575494 -172.100959 
L 72.980673 -174.073105 
L 72.3523 -176.04525 
L 71.693137 -178.017396 
L 71.003156 -179.989542 
L 70.27965 -181.961687 
L 69.529022 -183.933833 
L 68.780357 -185.905979 
L 68.080595 -187.878124 
L 67.468263 -189.85027 
L 66.949596 -191.822416 
L 66.501642 -193.794561 
L 66.098517 -195.766707 
L 65.735193 -197.738853 
L 65.432183 -199.710998 
L 65.226447 -201.683144 
L 65.16 -203.65529 
L 65.268971 -205.627435 
L 65.572323 -207.599581 
L 66.065927 -209.571727 
L 66.729434 -211.543872 
L 67.542459 -213.516018 
L 68.495228 -215.488164 
L 69.582169 -217.460309 
L 70.783074 -219.432455 
L 72.049073 -221.404601 
L 73.307557 -223.376746 
L 74.484901 -225.348892 
L 75.531792 -227.321038 
L 76.434219 -229.293183 
L 77.204749 -231.265329 
L 77.863403 -233.237475 
L 78.422995 -235.20962 
L 78.886834 -237.181766 
L 79.255386 -239.153911 
L 79.533253 -241.126057 
L 80.546747 -241.126057 
L 80.546747 -241.126057 
L 80.824614 -239.153911 
L 81.193166 -237.181766 
L 81.657005 -235.20962 
L 82.216597 -233.237475 
L 82.875251 -231.265329 
L 83.645781 -229.293183 
L 84.548208 -227.321038 
L 85.595099 -225.348892 
L 86.772443 -223.376746 
L 88.030927 -221.404601 
L 89.296926 -219.432455 
L 90.497831 -217.460309 
L 91.584772 -215.488164 
L 92.537541 -213.516018 
L 93.350566 -211.543872 
L 94.014073 -209.571727 
L 94.507677 -207.599581 
L 94.811029 -205.627435 
L 94.92 -203.65529 
L 94.853553 -201.683144 
L 94.647817 -199.710998 
L 94.344807 -197.738853 
L 93.981483 -195.766707 
L 93.578358 -193.794561 
L 93.130404 -191.822416 
L 92.611737 -189.85027 
L 91.999405 -187.878124 
L 91.299643 -185.905979 
L 90.550978 -183.933833 
L 89.80035 -181.961687 
L 89.076844 -179.989542 
L 88.386863 -178.017396 
L 87.7277 -176.04525 
L 87.099327 -174.073105 
L 86.504506 -172.100959 
L 85.944924 -170.128813 
L 85.422353 -168.156668 
L 84.942469 -166.184522 
L 84.513751 -164.212376 
L 84.140894 -162.240231 
L 83.819876 -160.268085 
L 83.539841 -158.295939 
L 83.288977 -156.323794 
L 83.058067 -154.351648 
L 82.839578 -152.379502 
L 82.625728 -150.407357 
L 82.409508 -148.435211 
L 82.188456 -146.463065 
L 81.966766 -144.49092 
L 81.752302 -142.518774 
L 81.55114 -140.546628 
L 81.366292 -138.574483 
L 81.20262 -136.602337 
L 81.070871 -134.630191 
L 80.982756 -132.658046 
L 80.939239 -130.6859 
L 80.923824 -128.713754 
L 80.909398 -126.741609 
L 80.874397 -124.769463 
L 80.815281 -122.797317 
L 80.74575 -120.825172 
L 80.684312 -118.853026 
L 80.640548 -116.88088 
L 80.610073 -114.908735 
L 80.580274 -112.936589 
L 80.540529 -110.964443 
L 80.488743 -108.992298 
L 80.431071 -107.020152 
L 80.377575 -105.048006 
L 80.337851 -103.075861 
L 80.318115 -101.103715 
L 80.319089 -99.131569 
L 80.334702 -97.159424 
L 80.352996 -95.187278 
L 80.360343 -93.215132 
L 80.347592 -91.242987 
L 80.314436 -89.270841 
L 80.26888 -87.298695 
L 80.222155 -85.32655 
L 80.182876 -83.354404 
L 80.154238 -81.382258 
L 80.135075 -79.410113 
L 80.122664 -77.437967 
L 80.114713 -75.465821 
L 80.10963 -73.493676 
L 80.105925 -71.52153 
L 80.102025 -69.549384 
L 80.096812 -67.577239 
L 80.090263 -65.605093 
L 80.083378 -63.632947 
L 80.077331 -61.660802 
L 80.072587 -59.688656 
L 80.068819 -57.71651 
L 80.065609 -55.744365 
L 80.063095 -53.772219 
L 80.061793 -51.800073 
L 80.061796 -49.827928 
L 80.062247 -47.855782 
L 80.061748 -45.883636 
z
" id="m950b9ec099" style="stroke:#3d3d3d;stroke-width:1.5;"/>
    </defs>
    <g clip-path="url(#p4e65d99c59)">
     <use style="fill:#3274a1;stroke:#3d3d3d;stroke-width:1.5;" x="0" xlink:href="#m950b9ec099" y="288"/>
    </g>
   </g>
   <g id="PolyCollection_2">
    <defs>
     <path d="M 221.450098 -48.715501 
L 221.349902 -48.715501 
L 221.352179 -50.68359 
L 221.358391 -52.65168 
L 221.366675 -54.619769 
L 221.374708 -56.587859 
L 221.380412 -58.555948 
L 221.382419 -60.524038 
L 221.38027 -62.492127 
L 221.374457 -64.460217 
L 221.366374 -66.428306 
L 221.358114 -68.396396 
L 221.35198 -70.364485 
L 221.34976 -72.332575 
L 221.352041 -74.300664 
L 221.357895 -76.268754 
L 221.365095 -78.236843 
L 221.370662 -80.204933 
L 221.371423 -82.173022 
L 221.36434 -84.141112 
L 221.346672 -86.109202 
L 221.316194 -88.077291 
L 221.271658 -90.045381 
L 221.213466 -92.01347 
L 221.144311 -93.98156 
L 221.069468 -95.949649 
L 220.996426 -97.917739 
L 220.933627 -99.885828 
L 220.888319 -101.853918 
L 220.864088 -103.822007 
L 220.859201 -105.790097 
L 220.867003 -107.758186 
L 220.878767 -109.726276 
L 220.887762 -111.694365 
L 220.892118 -113.662455 
L 220.894414 -115.630544 
L 220.897921 -117.598634 
L 220.901747 -119.566723 
L 220.898141 -121.534813 
L 220.873988 -123.502903 
L 220.816039 -125.470992 
L 220.717163 -127.439082 
L 220.580351 -129.407171 
L 220.418409 -131.375261 
L 220.249459 -133.34335 
L 220.090237 -135.31144 
L 219.949992 -137.279529 
L 219.827437 -139.247619 
L 219.711966 -141.215708 
L 219.588698 -143.183798 
L 219.445124 -145.151887 
L 219.276082 -147.119977 
L 219.084184 -149.088066 
L 218.8752 -151.056156 
L 218.651012 -153.024245 
L 218.404654 -154.992335 
L 218.12087 -156.960424 
L 217.78222 -158.928514 
L 217.377276 -160.896604 
L 216.906395 -162.864693 
L 216.382518 -164.832783 
L 215.827498 -166.800872 
L 215.266276 -168.768962 
L 214.720787 -170.737051 
L 214.204124 -172.705141 
L 213.715349 -174.67323 
L 213.236874 -176.64132 
L 212.737603 -178.609409 
L 212.183631 -180.577499 
L 211.553733 -182.545588 
L 210.85226 -184.513678 
L 210.111438 -186.481767 
L 209.380471 -188.449857 
L 208.706936 -190.417946 
L 208.120985 -192.386036 
L 207.630727 -194.354125 
L 207.229617 -196.322215 
L 206.909621 -198.290305 
L 206.67226 -200.258394 
L 206.533136 -202.226484 
L 206.52 -204.194573 
L 206.6664 -206.162663 
L 207.002666 -208.130752 
L 207.545929 -210.098842 
L 208.291968 -212.066931 
L 209.212477 -214.035021 
L 210.259842 -216.00311 
L 211.378137 -217.9712 
L 212.515762 -219.939289 
L 213.63438 -221.907379 
L 214.710933 -223.875468 
L 215.733327 -225.843558 
L 216.693434 -227.811647 
L 217.581601 -229.779737 
L 218.38504 -231.747826 
L 219.089961 -233.715916 
L 219.685606 -235.684006 
L 220.167991 -237.652095 
L 220.541694 -239.620185 
L 220.819038 -241.588274 
L 221.017152 -243.556364 
L 221.782848 -243.556364 
L 221.782848 -243.556364 
L 221.980962 -241.588274 
L 222.258306 -239.620185 
L 222.632009 -237.652095 
L 223.114394 -235.684006 
L 223.710039 -233.715916 
L 224.41496 -231.747826 
L 225.218399 -229.779737 
L 226.106566 -227.811647 
L 227.066673 -225.843558 
L 228.089067 -223.875468 
L 229.16562 -221.907379 
L 230.284238 -219.939289 
L 231.421863 -217.9712 
L 232.540158 -216.00311 
L 233.587523 -214.035021 
L 234.508032 -212.066931 
L 235.254071 -210.098842 
L 235.797334 -208.130752 
L 236.1336 -206.162663 
L 236.28 -204.194573 
L 236.266864 -202.226484 
L 236.12774 -200.258394 
L 235.890379 -198.290305 
L 235.570383 -196.322215 
L 235.169273 -194.354125 
L 234.679015 -192.386036 
L 234.093064 -190.417946 
L 233.419529 -188.449857 
L 232.688562 -186.481767 
L 231.94774 -184.513678 
L 231.246267 -182.545588 
L 230.616369 -180.577499 
L 230.062397 -178.609409 
L 229.563126 -176.64132 
L 229.084651 -174.67323 
L 228.595876 -172.705141 
L 228.079213 -170.737051 
L 227.533724 -168.768962 
L 226.972502 -166.800872 
L 226.417482 -164.832783 
L 225.893605 -162.864693 
L 225.422724 -160.896604 
L 225.01778 -158.928514 
L 224.67913 -156.960424 
L 224.395346 -154.992335 
L 224.148988 -153.024245 
L 223.9248 -151.056156 
L 223.715816 -149.088066 
L 223.523918 -147.119977 
L 223.354876 -145.151887 
L 223.211302 -143.183798 
L 223.088034 -141.215708 
L 222.972563 -139.247619 
L 222.850008 -137.279529 
L 222.709763 -135.31144 
L 222.550541 -133.34335 
L 222.381591 -131.375261 
L 222.219649 -129.407171 
L 222.082837 -127.439082 
L 221.983961 -125.470992 
L 221.926012 -123.502903 
L 221.901859 -121.534813 
L 221.898253 -119.566723 
L 221.902079 -117.598634 
L 221.905586 -115.630544 
L 221.907882 -113.662455 
L 221.912238 -111.694365 
L 221.921233 -109.726276 
L 221.932997 -107.758186 
L 221.940799 -105.790097 
L 221.935912 -103.822007 
L 221.911681 -101.853918 
L 221.866373 -99.885828 
L 221.803574 -97.917739 
L 221.730532 -95.949649 
L 221.655689 -93.98156 
L 221.586534 -92.01347 
L 221.528342 -90.045381 
L 221.483806 -88.077291 
L 221.453328 -86.109202 
L 221.43566 -84.141112 
L 221.428577 -82.173022 
L 221.429338 -80.204933 
L 221.434905 -78.236843 
L 221.442105 -76.268754 
L 221.447959 -74.300664 
L 221.45024 -72.332575 
L 221.44802 -70.364485 
L 221.441886 -68.396396 
L 221.433626 -66.428306 
L 221.425543 -64.460217 
L 221.41973 -62.492127 
L 221.417581 -60.524038 
L 221.419588 -58.555948 
L 221.425292 -56.587859 
L 221.433325 -54.619769 
L 221.441609 -52.65168 
L 221.447821 -50.68359 
L 221.450098 -48.715501 
z
" id="m243304d188" style="stroke:#3d3d3d;stroke-width:1.5;"/>
    </defs>
    <g clip-path="url(#p4e65d99c59)">
     <use style="fill:#e1812c;stroke:#3d3d3d;stroke-width:1.5;" x="0" xlink:href="#m243304d188" y="288"/>
    </g>
   </g>
   <g id="PolyCollection_3">
    <defs>
     <path d="M 362.812025 -64.848322 
L 362.707975 -64.848322 
L 362.708408 -66.643168 
L 362.71135 -68.438014 
L 362.714894 -70.23286 
L 362.717046 -72.027706 
L 362.716565 -73.822552 
L 362.713456 -75.617399 
L 362.708844 -77.412245 
L 362.704296 -79.207091 
L 362.700903 -81.001937 
L 362.698596 -82.796783 
L 362.696032 -84.591629 
L 362.691085 -86.386475 
L 362.681646 -88.181321 
L 362.666326 -89.976167 
L 362.644778 -91.771013 
L 362.617657 -93.565859 
L 362.586405 -95.360705 
L 362.553064 -97.155551 
L 362.520114 -98.950397 
L 362.490223 -100.745243 
L 362.465814 -102.540089 
L 362.448442 -104.334935 
L 362.438211 -106.129781 
L 362.433496 -107.924627 
L 362.431213 -109.719473 
L 362.427643 -111.514319 
L 362.419446 -113.309165 
L 362.40429 -115.104011 
L 362.380695 -116.898857 
L 362.347225 -118.693704 
L 362.301726 -120.48855 
L 362.241437 -122.283396 
L 362.164224 -124.078242 
L 362.070416 -125.873088 
L 361.964137 -127.667934 
L 361.853111 -129.46278 
L 361.746543 -131.257626 
L 361.651645 -133.052472 
L 361.57014 -134.847318 
L 361.496366 -136.642164 
L 361.418188 -138.43701 
L 361.320882 -140.231856 
L 361.192858 -142.026702 
L 361.031064 -143.821548 
L 360.843622 -145.616394 
L 360.647993 -147.41124 
L 360.464791 -149.206086 
L 360.309464 -151.000932 
L 360.185464 -152.795778 
L 360.08216 -154.590624 
L 359.97852 -156.38547 
L 359.85056 -158.180316 
L 359.678611 -159.975162 
L 359.450883 -161.770009 
L 359.16243 -163.564855 
L 358.811692 -165.359701 
L 358.398094 -167.154547 
L 357.922594 -168.949393 
L 357.390039 -170.744239 
L 356.810158 -172.539085 
L 356.195045 -174.333931 
L 355.554327 -176.128777 
L 354.891845 -177.923623 
L 354.206991 -179.718469 
L 353.50003 -181.513315 
L 352.777242 -183.308161 
L 352.051875 -185.103007 
L 351.340663 -186.897853 
L 350.659429 -188.692699 
L 350.021538 -190.487545 
L 349.439753 -192.282391 
L 348.928693 -194.077237 
L 348.504768 -195.872083 
L 348.183109 -197.666929 
L 347.973746 -199.461775 
L 347.88 -201.256621 
L 347.900253 -203.051467 
L 348.031776 -204.846313 
L 348.273856 -206.64116 
L 348.628023 -208.436006 
L 349.09537 -210.230852 
L 349.673245 -212.025698 
L 350.354224 -213.820544 
L 351.128592 -215.61539 
L 351.988543 -217.410236 
L 352.930237 -219.205082 
L 353.950685 -220.999928 
L 355.040017 -222.794774 
L 356.173529 -224.58962 
L 357.309136 -226.384466 
L 358.393125 -228.179312 
L 359.372326 -229.974158 
L 360.20721 -231.769004 
L 360.880204 -233.56385 
L 361.39641 -235.358696 
L 361.777694 -237.153542 
L 362.053645 -238.948388 
L 362.253244 -240.743234 
L 362.399676 -242.53808 
L 363.120324 -242.53808 
L 363.120324 -242.53808 
L 363.266756 -240.743234 
L 363.466355 -238.948388 
L 363.742306 -237.153542 
L 364.12359 -235.358696 
L 364.639796 -233.56385 
L 365.31279 -231.769004 
L 366.147674 -229.974158 
L 367.126875 -228.179312 
L 368.210864 -226.384466 
L 369.346471 -224.58962 
L 370.479983 -222.794774 
L 371.569315 -220.999928 
L 372.589763 -219.205082 
L 373.531457 -217.410236 
L 374.391408 -215.61539 
L 375.165776 -213.820544 
L 375.846755 -212.025698 
L 376.42463 -210.230852 
L 376.891977 -208.436006 
L 377.246144 -206.64116 
L 377.488224 -204.846313 
L 377.619747 -203.051467 
L 377.64 -201.256621 
L 377.546254 -199.461775 
L 377.336891 -197.666929 
L 377.015232 -195.872083 
L 376.591307 -194.077237 
L 376.080247 -192.282391 
L 375.498462 -190.487545 
L 374.860571 -188.692699 
L 374.179337 -186.897853 
L 373.468125 -185.103007 
L 372.742758 -183.308161 
L 372.01997 -181.513315 
L 371.313009 -179.718469 
L 370.628155 -177.923623 
L 369.965673 -176.128777 
L 369.324955 -174.333931 
L 368.709842 -172.539085 
L 368.129961 -170.744239 
L 367.597406 -168.949393 
L 367.121906 -167.154547 
L 366.708308 -165.359701 
L 366.35757 -163.564855 
L 366.069117 -161.770009 
L 365.841389 -159.975162 
L 365.66944 -158.180316 
L 365.54148 -156.38547 
L 365.43784 -154.590624 
L 365.334536 -152.795778 
L 365.210536 -151.000932 
L 365.055209 -149.206086 
L 364.872007 -147.41124 
L 364.676378 -145.616394 
L 364.488936 -143.821548 
L 364.327142 -142.026702 
L 364.199118 -140.231856 
L 364.101812 -138.43701 
L 364.023634 -136.642164 
L 363.94986 -134.847318 
L 363.868355 -133.052472 
L 363.773457 -131.257626 
L 363.666889 -129.46278 
L 363.555863 -127.667934 
L 363.449584 -125.873088 
L 363.355776 -124.078242 
L 363.278563 -122.283396 
L 363.218274 -120.48855 
L 363.172775 -118.693704 
L 363.139305 -116.898857 
L 363.11571 -115.104011 
L 363.100554 -113.309165 
L 363.092357 -111.514319 
L 363.088787 -109.719473 
L 363.086504 -107.924627 
L 363.081789 -106.129781 
L 363.071558 -104.334935 
L 363.054186 -102.540089 
L 363.029777 -100.745243 
L 362.999886 -98.950397 
L 362.966936 -97.155551 
L 362.933595 -95.360705 
L 362.902343 -93.565859 
L 362.875222 -91.771013 
L 362.853674 -89.976167 
L 362.838354 -88.181321 
L 362.828915 -86.386475 
L 362.823968 -84.591629 
L 362.821404 -82.796783 
L 362.819097 -81.001937 
L 362.815704 -79.207091 
L 362.811156 -77.412245 
L 362.806544 -75.617399 
L 362.803435 -73.822552 
L 362.802954 -72.027706 
L 362.805106 -70.23286 
L 362.80865 -68.438014 
L 362.811592 -66.643168 
L 362.812025 -64.848322 
z
" id="mdd5d5aad5d" style="stroke:#3d3d3d;stroke-width:1.5;"/>
    </defs>
    <g clip-path="url(#p4e65d99c59)">
     <use style="fill:#3a923a;stroke:#3d3d3d;stroke-width:1.5;" x="0" xlink:href="#mdd5d5aad5d" y="288"/>
    </g>
   </g>
   <g id="patch_3">
    <path clip-path="url(#p4e65d99c59)" d="M 109.8 -12.172831 
L 109.8 -12.172831 
L 109.8 -12.172831 
L 109.8 -12.172831 
z
" style="fill:#3274a1;stroke:#3d3d3d;stroke-linejoin:miter;stroke-width:0.75;"/>
   </g>
   <g id="patch_4">
    <path clip-path="url(#p4e65d99c59)" d="M 109.8 -12.172831 
L 109.8 -12.172831 
L 109.8 -12.172831 
L 109.8 -12.172831 
z
" style="fill:#e1812c;stroke:#3d3d3d;stroke-linejoin:miter;stroke-width:0.75;"/>
   </g>
   <g id="patch_5">
    <path clip-path="url(#p4e65d99c59)" d="M 109.8 -12.172831 
L 109.8 -12.172831 
L 109.8 -12.172831 
L 109.8 -12.172831 
z
" style="fill:#3a923a;stroke:#3d3d3d;stroke-linejoin:miter;stroke-width:0.75;"/>
   </g>
   <g id="matplotlib.axis_1">
    <g id="xtick_1">
     <g id="line2d_1">
      <defs>
       <path d="M 0 0 
L 0 3.5 
" id="m9a39f1a734" style="stroke:#000000;stroke-width:0.8;"/>
      </defs>
      <g>
       <use style="stroke:#000000;stroke-width:0.8;" x="109.8" xlink:href="#m9a39f1a734" y="252"/>
      </g>
     </g>
     <g id="text_1">
      <!-- train -->
      <g transform="translate(98.1625 266.598437)scale(0.1 -0.1)">
       <defs>
        <path d="M 18.3125 70.21875 
L 18.3125 54.6875 
L 36.8125 54.6875 
L 36.8125 47.703125 
L 18.3125 47.703125 
L 18.3125 18.015625 
Q 18.3125 11.328125 20.140625 9.421875 
Q 21.96875 7.515625 27.59375 7.515625 
L 36.8125 7.515625 
L 36.8125 0 
L 27.59375 0 
Q 17.1875 0 13.234375 3.875 
Q 9.28125 7.765625 9.28125 18.015625 
L 9.28125 47.703125 
L 2.6875 47.703125 
L 2.6875 54.6875 
L 9.28125 54.6875 
L 9.28125 70.21875 
z
" id="DejaVuSans-116"/>
        <path d="M 41.109375 46.296875 
Q 39.59375 47.171875 37.8125 47.578125 
Q 36.03125 48 33.890625 48 
Q 26.265625 48 22.1875 43.046875 
Q 18.109375 38.09375 18.109375 28.8125 
L 18.109375 0 
L 9.078125 0 
L 9.078125 54.6875 
L 18.109375 54.6875 
L 18.109375 46.1875 
Q 20.953125 51.171875 25.484375 53.578125 
Q 30.03125 56 36.53125 56 
Q 37.453125 56 38.578125 55.875 
Q 39.703125 55.765625 41.0625 55.515625 
z
" id="DejaVuSans-114"/>
        <path d="M 34.28125 27.484375 
Q 23.390625 27.484375 19.1875 25 
Q 14.984375 22.515625 14.984375 16.5 
Q 14.984375 11.71875 18.140625 8.90625 
Q 21.296875 6.109375 26.703125 6.109375 
Q 34.1875 6.109375 38.703125 11.40625 
Q 43.21875 16.703125 43.21875 25.484375 
L 43.21875 27.484375 
z
M 52.203125 31.203125 
L 52.203125 0 
L 43.21875 0 
L 43.21875 8.296875 
Q 40.140625 3.328125 35.546875 0.953125 
Q 30.953125 -1.421875 24.3125 -1.421875 
Q 15.921875 -1.421875 10.953125 3.296875 
Q 6 8.015625 6 15.921875 
Q 6 25.140625 12.171875 29.828125 
Q 18.359375 34.515625 30.609375 34.515625 
L 43.21875 34.515625 
L 43.21875 35.40625 
Q 43.21875 41.609375 39.140625 45 
Q 35.0625 48.390625 27.6875 48.390625 
Q 23 48.390625 18.546875 47.265625 
Q 14.109375 46.140625 10.015625 43.890625 
L 10.015625 52.203125 
Q 14.9375 54.109375 19.578125 55.046875 
Q 24.21875 56 28.609375 56 
Q 40.484375 56 46.34375 49.84375 
Q 52.203125 43.703125 52.203125 31.203125 
z
" id="DejaVuSans-97"/>
        <path d="M 9.421875 54.6875 
L 18.40625 54.6875 
L 18.40625 0 
L 9.421875 0 
z
M 9.421875 75.984375 
L 18.40625 75.984375 
L 18.40625 64.59375 
L 9.421875 64.59375 
z
" id="DejaVuSans-105"/>
        <path d="M 54.890625 33.015625 
L 54.890625 0 
L 45.90625 0 
L 45.90625 32.71875 
Q 45.90625 40.484375 42.875 44.328125 
Q 39.84375 48.1875 33.796875 48.1875 
Q 26.515625 48.1875 22.3125 43.546875 
Q 18.109375 38.921875 18.109375 30.90625 
L 18.109375 0 
L 9.078125 0 
L 9.078125 54.6875 
L 18.109375 54.6875 
L 18.109375 46.1875 
Q 21.34375 51.125 25.703125 53.5625 
Q 30.078125 56 35.796875 56 
Q 45.21875 56 50.046875 50.171875 
Q 54.890625 44.34375 54.890625 33.015625 
z
" id="DejaVuSans-110"/>
       </defs>
       <use xlink:href="#DejaVuSans-116"/>
       <use x="39.208984" xlink:href="#DejaVuSans-114"/>
       <use x="80.322266" xlink:href="#DejaVuSans-97"/>
       <use x="141.601562" xlink:href="#DejaVuSans-105"/>
       <use x="169.384766" xlink:href="#DejaVuSans-110"/>
      </g>
     </g>
    </g>
    <g id="xtick_2">
     <g id="line2d_2">
      <g>
       <use style="stroke:#000000;stroke-width:0.8;" x="221.4" xlink:href="#m9a39f1a734" y="252"/>
      </g>
     </g>
     <g id="text_2">
      <!-- val -->
      <g transform="translate(213.9875 266.598437)scale(0.1 -0.1)">
       <defs>
        <path d="M 2.984375 54.6875 
L 12.5 54.6875 
L 29.59375 8.796875 
L 46.6875 54.6875 
L 56.203125 54.6875 
L 35.6875 0 
L 23.484375 0 
z
" id="DejaVuSans-118"/>
        <path d="M 9.421875 75.984375 
L 18.40625 75.984375 
L 18.40625 0 
L 9.421875 0 
z
" id="DejaVuSans-108"/>
       </defs>
       <use xlink:href="#DejaVuSans-118"/>
       <use x="59.179688" xlink:href="#DejaVuSans-97"/>
       <use x="120.458984" xlink:href="#DejaVuSans-108"/>
      </g>
     </g>
    </g>
    <g id="xtick_3">
     <g id="line2d_3">
      <g>
       <use style="stroke:#000000;stroke-width:0.8;" x="333" xlink:href="#m9a39f1a734" y="252"/>
      </g>
     </g>
     <g id="text_3">
      <!-- test -->
      <g transform="translate(323.398438 266.598437)scale(0.1 -0.1)">
       <defs>
        <path d="M 56.203125 29.59375 
L 56.203125 25.203125 
L 14.890625 25.203125 
Q 15.484375 15.921875 20.484375 11.0625 
Q 25.484375 6.203125 34.421875 6.203125 
Q 39.59375 6.203125 44.453125 7.46875 
Q 49.3125 8.734375 54.109375 11.28125 
L 54.109375 2.78125 
Q 49.265625 0.734375 44.1875 -0.34375 
Q 39.109375 -1.421875 33.890625 -1.421875 
Q 20.796875 -1.421875 13.15625 6.1875 
Q 5.515625 13.8125 5.515625 26.8125 
Q 5.515625 40.234375 12.765625 48.109375 
Q 20.015625 56 32.328125 56 
Q 43.359375 56 49.78125 48.890625 
Q 56.203125 41.796875 56.203125 29.59375 
z
M 47.21875 32.234375 
Q 47.125 39.59375 43.09375 43.984375 
Q 39.0625 48.390625 32.421875 48.390625 
Q 24.90625 48.390625 20.390625 44.140625 
Q 15.875 39.890625 15.1875 32.171875 
z
" id="DejaVuSans-101"/>
        <path d="M 44.28125 53.078125 
L 44.28125 44.578125 
Q 40.484375 46.53125 36.375 47.5 
Q 32.28125 48.484375 27.875 48.484375 
Q 21.1875 48.484375 17.84375 46.4375 
Q 14.5 44.390625 14.5 40.28125 
Q 14.5 37.15625 16.890625 35.375 
Q 19.28125 33.59375 26.515625 31.984375 
L 29.59375 31.296875 
Q 39.15625 29.25 43.1875 25.515625 
Q 47.21875 21.78125 47.21875 15.09375 
Q 47.21875 7.46875 41.1875 3.015625 
Q 35.15625 -1.421875 24.609375 -1.421875 
Q 20.21875 -1.421875 15.453125 -0.5625 
Q 10.6875 0.296875 5.421875 2 
L 5.421875 11.28125 
Q 10.40625 8.6875 15.234375 7.390625 
Q 20.0625 6.109375 24.8125 6.109375 
Q 31.15625 6.109375 34.5625 8.28125 
Q 37.984375 10.453125 37.984375 14.40625 
Q 37.984375 18.0625 35.515625 20.015625 
Q 33.0625 21.96875 24.703125 23.78125 
L 21.578125 24.515625 
Q 13.234375 26.265625 9.515625 29.90625 
Q 5.8125 33.546875 5.8125 39.890625 
Q 5.8125 47.609375 11.28125 51.796875 
Q 16.75 56 26.8125 56 
Q 31.78125 56 36.171875 55.265625 
Q 40.578125 54.546875 44.28125 53.078125 
z
" id="DejaVuSans-115"/>
       </defs>
       <use xlink:href="#DejaVuSans-116"/>
       <use x="39.208984" xlink:href="#DejaVuSans-101"/>
       <use x="100.732422" xlink:href="#DejaVuSans-115"/>
       <use x="152.832031" xlink:href="#DejaVuSans-116"/>
      </g>
     </g>
    </g>
    <g id="text_4">
     <!-- set -->
     <g transform="translate(213.758594 280.276563)scale(0.1 -0.1)">
      <use xlink:href="#DejaVuSans-115"/>
      <use x="52.099609" xlink:href="#DejaVuSans-101"/>
      <use x="113.623047" xlink:href="#DejaVuSans-116"/>
     </g>
    </g>
   </g>
   <g id="matplotlib.axis_2">
    <g id="ytick_1">
     <g id="line2d_4">
      <defs>
       <path d="M 0 0 
L -3.5 0 
" id="m2070edef7b" style="stroke:#000000;stroke-width:0.8;"/>
      </defs>
      <g>
       <use style="stroke:#000000;stroke-width:0.8;" x="54" xlink:href="#m2070edef7b" y="236.583825"/>
      </g>
     </g>
     <g id="text_5">
      <!-- −100 -->
      <g transform="translate(19.532812 240.383044)scale(0.1 -0.1)">
       <defs>
        <path d="M 10.59375 35.5 
L 73.1875 35.5 
L 73.1875 27.203125 
L 10.59375 27.203125 
z
" id="DejaVuSans-8722"/>
        <path d="M 12.40625 8.296875 
L 28.515625 8.296875 
L 28.515625 63.921875 
L 10.984375 60.40625 
L 10.984375 69.390625 
L 28.421875 72.90625 
L 38.28125 72.90625 
L 38.28125 8.296875 
L 54.390625 8.296875 
L 54.390625 0 
L 12.40625 0 
z
" id="DejaVuSans-49"/>
        <path d="M 31.78125 66.40625 
Q 24.171875 66.40625 20.328125 58.90625 
Q 16.5 51.421875 16.5 36.375 
Q 16.5 21.390625 20.328125 13.890625 
Q 24.171875 6.390625 31.78125 6.390625 
Q 39.453125 6.390625 43.28125 13.890625 
Q 47.125 21.390625 47.125 36.375 
Q 47.125 51.421875 43.28125 58.90625 
Q 39.453125 66.40625 31.78125 66.40625 
z
M 31.78125 74.21875 
Q 44.046875 74.21875 50.515625 64.515625 
Q 56.984375 54.828125 56.984375 36.375 
Q 56.984375 17.96875 50.515625 8.265625 
Q 44.046875 -1.421875 31.78125 -1.421875 
Q 19.53125 -1.421875 13.0625 8.265625 
Q 6.59375 17.96875 6.59375 36.375 
Q 6.59375 54.828125 13.0625 64.515625 
Q 19.53125 74.21875 31.78125 74.21875 
z
" id="DejaVuSans-48"/>
       </defs>
       <use xlink:href="#DejaVuSans-8722"/>
       <use x="83.789062" xlink:href="#DejaVuSans-49"/>
       <use x="147.412109" xlink:href="#DejaVuSans-48"/>
       <use x="211.035156" xlink:href="#DejaVuSans-48"/>
      </g>
     </g>
    </g>
    <g id="ytick_2">
     <g id="line2d_5">
      <g>
       <use style="stroke:#000000;stroke-width:0.8;" x="54" xlink:href="#m2070edef7b" y="211.70816"/>
      </g>
     </g>
     <g id="text_6">
      <!-- −90 -->
      <g transform="translate(25.895312 215.507378)scale(0.1 -0.1)">
       <defs>
        <path d="M 10.984375 1.515625 
L 10.984375 10.5 
Q 14.703125 8.734375 18.5 7.8125 
Q 22.3125 6.890625 25.984375 6.890625 
Q 35.75 6.890625 40.890625 13.453125 
Q 46.046875 20.015625 46.78125 33.40625 
Q 43.953125 29.203125 39.59375 26.953125 
Q 35.25 24.703125 29.984375 24.703125 
Q 19.046875 24.703125 12.671875 31.3125 
Q 6.296875 37.9375 6.296875 49.421875 
Q 6.296875 60.640625 12.9375 67.421875 
Q 19.578125 74.21875 30.609375 74.21875 
Q 43.265625 74.21875 49.921875 64.515625 
Q 56.59375 54.828125 56.59375 36.375 
Q 56.59375 19.140625 48.40625 8.859375 
Q 40.234375 -1.421875 26.421875 -1.421875 
Q 22.703125 -1.421875 18.890625 -0.6875 
Q 15.09375 0.046875 10.984375 1.515625 
z
M 30.609375 32.421875 
Q 37.25 32.421875 41.125 36.953125 
Q 45.015625 41.5 45.015625 49.421875 
Q 45.015625 57.28125 41.125 61.84375 
Q 37.25 66.40625 30.609375 66.40625 
Q 23.96875 66.40625 20.09375 61.84375 
Q 16.21875 57.28125 16.21875 49.421875 
Q 16.21875 41.5 20.09375 36.953125 
Q 23.96875 32.421875 30.609375 32.421875 
z
" id="DejaVuSans-57"/>
       </defs>
       <use xlink:href="#DejaVuSans-8722"/>
       <use x="83.789062" xlink:href="#DejaVuSans-57"/>
       <use x="147.412109" xlink:href="#DejaVuSans-48"/>
      </g>
     </g>
    </g>
    <g id="ytick_3">
     <g id="line2d_6">
      <g>
       <use style="stroke:#000000;stroke-width:0.8;" x="54" xlink:href="#m2070edef7b" y="186.832494"/>
      </g>
     </g>
     <g id="text_7">
      <!-- −80 -->
      <g transform="translate(25.895312 190.631713)scale(0.1 -0.1)">
       <defs>
        <path d="M 31.78125 34.625 
Q 24.75 34.625 20.71875 30.859375 
Q 16.703125 27.09375 16.703125 20.515625 
Q 16.703125 13.921875 20.71875 10.15625 
Q 24.75 6.390625 31.78125 6.390625 
Q 38.8125 6.390625 42.859375 10.171875 
Q 46.921875 13.96875 46.921875 20.515625 
Q 46.921875 27.09375 42.890625 30.859375 
Q 38.875 34.625 31.78125 34.625 
z
M 21.921875 38.8125 
Q 15.578125 40.375 12.03125 44.71875 
Q 8.5 49.078125 8.5 55.328125 
Q 8.5 64.0625 14.71875 69.140625 
Q 20.953125 74.21875 31.78125 74.21875 
Q 42.671875 74.21875 48.875 69.140625 
Q 55.078125 64.0625 55.078125 55.328125 
Q 55.078125 49.078125 51.53125 44.71875 
Q 48 40.375 41.703125 38.8125 
Q 48.828125 37.15625 52.796875 32.3125 
Q 56.78125 27.484375 56.78125 20.515625 
Q 56.78125 9.90625 50.3125 4.234375 
Q 43.84375 -1.421875 31.78125 -1.421875 
Q 19.734375 -1.421875 13.25 4.234375 
Q 6.78125 9.90625 6.78125 20.515625 
Q 6.78125 27.484375 10.78125 32.3125 
Q 14.796875 37.15625 21.921875 38.8125 
z
M 18.3125 54.390625 
Q 18.3125 48.734375 21.84375 45.5625 
Q 25.390625 42.390625 31.78125 42.390625 
Q 38.140625 42.390625 41.71875 45.5625 
Q 45.3125 48.734375 45.3125 54.390625 
Q 45.3125 60.0625 41.71875 63.234375 
Q 38.140625 66.40625 31.78125 66.40625 
Q 25.390625 66.40625 21.84375 63.234375 
Q 18.3125 60.0625 18.3125 54.390625 
z
" id="DejaVuSans-56"/>
       </defs>
       <use xlink:href="#DejaVuSans-8722"/>
       <use x="83.789062" xlink:href="#DejaVuSans-56"/>
       <use x="147.412109" xlink:href="#DejaVuSans-48"/>
      </g>
     </g>
    </g>
    <g id="ytick_4">
     <g id="line2d_7">
      <g>
       <use style="stroke:#000000;stroke-width:0.8;" x="54" xlink:href="#m2070edef7b" y="161.956828"/>
      </g>
     </g>
     <g id="text_8">
      <!-- −70 -->
      <g transform="translate(25.895312 165.756047)scale(0.1 -0.1)">
       <defs>
        <path d="M 8.203125 72.90625 
L 55.078125 72.90625 
L 55.078125 68.703125 
L 28.609375 0 
L 18.3125 0 
L 43.21875 64.59375 
L 8.203125 64.59375 
z
" id="DejaVuSans-55"/>
       </defs>
       <use xlink:href="#DejaVuSans-8722"/>
       <use x="83.789062" xlink:href="#DejaVuSans-55"/>
       <use x="147.412109" xlink:href="#DejaVuSans-48"/>
      </g>
     </g>
    </g>
    <g id="ytick_5">
     <g id="line2d_8">
      <g>
       <use style="stroke:#000000;stroke-width:0.8;" x="54" xlink:href="#m2070edef7b" y="137.081163"/>
      </g>
     </g>
     <g id="text_9">
      <!-- −60 -->
      <g transform="translate(25.895312 140.880381)scale(0.1 -0.1)">
       <defs>
        <path d="M 33.015625 40.375 
Q 26.375 40.375 22.484375 35.828125 
Q 18.609375 31.296875 18.609375 23.390625 
Q 18.609375 15.53125 22.484375 10.953125 
Q 26.375 6.390625 33.015625 6.390625 
Q 39.65625 6.390625 43.53125 10.953125 
Q 47.40625 15.53125 47.40625 23.390625 
Q 47.40625 31.296875 43.53125 35.828125 
Q 39.65625 40.375 33.015625 40.375 
z
M 52.59375 71.296875 
L 52.59375 62.3125 
Q 48.875 64.0625 45.09375 64.984375 
Q 41.3125 65.921875 37.59375 65.921875 
Q 27.828125 65.921875 22.671875 59.328125 
Q 17.53125 52.734375 16.796875 39.40625 
Q 19.671875 43.65625 24.015625 45.921875 
Q 28.375 48.1875 33.59375 48.1875 
Q 44.578125 48.1875 50.953125 41.515625 
Q 57.328125 34.859375 57.328125 23.390625 
Q 57.328125 12.15625 50.6875 5.359375 
Q 44.046875 -1.421875 33.015625 -1.421875 
Q 20.359375 -1.421875 13.671875 8.265625 
Q 6.984375 17.96875 6.984375 36.375 
Q 6.984375 53.65625 15.1875 63.9375 
Q 23.390625 74.21875 37.203125 74.21875 
Q 40.921875 74.21875 44.703125 73.484375 
Q 48.484375 72.75 52.59375 71.296875 
z
" id="DejaVuSans-54"/>
       </defs>
       <use xlink:href="#DejaVuSans-8722"/>
       <use x="83.789062" xlink:href="#DejaVuSans-54"/>
       <use x="147.412109" xlink:href="#DejaVuSans-48"/>
      </g>
     </g>
    </g>
    <g id="ytick_6">
     <g id="line2d_9">
      <g>
       <use style="stroke:#000000;stroke-width:0.8;" x="54" xlink:href="#m2070edef7b" y="112.205497"/>
      </g>
     </g>
     <g id="text_10">
      <!-- −50 -->
      <g transform="translate(25.895312 116.004716)scale(0.1 -0.1)">
       <defs>
        <path d="M 10.796875 72.90625 
L 49.515625 72.90625 
L 49.515625 64.59375 
L 19.828125 64.59375 
L 19.828125 46.734375 
Q 21.96875 47.46875 24.109375 47.828125 
Q 26.265625 48.1875 28.421875 48.1875 
Q 40.625 48.1875 47.75 41.5 
Q 54.890625 34.8125 54.890625 23.390625 
Q 54.890625 11.625 47.5625 5.09375 
Q 40.234375 -1.421875 26.90625 -1.421875 
Q 22.3125 -1.421875 17.546875 -0.640625 
Q 12.796875 0.140625 7.71875 1.703125 
L 7.71875 11.625 
Q 12.109375 9.234375 16.796875 8.0625 
Q 21.484375 6.890625 26.703125 6.890625 
Q 35.15625 6.890625 40.078125 11.328125 
Q 45.015625 15.765625 45.015625 23.390625 
Q 45.015625 31 40.078125 35.4375 
Q 35.15625 39.890625 26.703125 39.890625 
Q 22.75 39.890625 18.8125 39.015625 
Q 14.890625 38.140625 10.796875 36.28125 
z
" id="DejaVuSans-53"/>
       </defs>
       <use xlink:href="#DejaVuSans-8722"/>
       <use x="83.789062" xlink:href="#DejaVuSans-53"/>
       <use x="147.412109" xlink:href="#DejaVuSans-48"/>
      </g>
     </g>
    </g>
    <g id="ytick_7">
     <g id="line2d_10">
      <g>
       <use style="stroke:#000000;stroke-width:0.8;" x="54" xlink:href="#m2070edef7b" y="87.329831"/>
      </g>
     </g>
     <g id="text_11">
      <!-- −40 -->
      <g transform="translate(25.895312 91.12905)scale(0.1 -0.1)">
       <defs>
        <path d="M 37.796875 64.3125 
L 12.890625 25.390625 
L 37.796875 25.390625 
z
M 35.203125 72.90625 
L 47.609375 72.90625 
L 47.609375 25.390625 
L 58.015625 25.390625 
L 58.015625 17.1875 
L 47.609375 17.1875 
L 47.609375 0 
L 37.796875 0 
L 37.796875 17.1875 
L 4.890625 17.1875 
L 4.890625 26.703125 
z
" id="DejaVuSans-52"/>
       </defs>
       <use xlink:href="#DejaVuSans-8722"/>
       <use x="83.789062" xlink:href="#DejaVuSans-52"/>
       <use x="147.412109" xlink:href="#DejaVuSans-48"/>
      </g>
     </g>
    </g>
    <g id="ytick_8">
     <g id="line2d_11">
      <g>
       <use style="stroke:#000000;stroke-width:0.8;" x="54" xlink:href="#m2070edef7b" y="62.454166"/>
      </g>
     </g>
     <g id="text_12">
      <!-- −30 -->
      <g transform="translate(25.895312 66.253384)scale(0.1 -0.1)">
       <defs>
        <path d="M 40.578125 39.3125 
Q 47.65625 37.796875 51.625 33 
Q 55.609375 28.21875 55.609375 21.1875 
Q 55.609375 10.40625 48.1875 4.484375 
Q 40.765625 -1.421875 27.09375 -1.421875 
Q 22.515625 -1.421875 17.65625 -0.515625 
Q 12.796875 0.390625 7.625 2.203125 
L 7.625 11.71875 
Q 11.71875 9.328125 16.59375 8.109375 
Q 21.484375 6.890625 26.8125 6.890625 
Q 36.078125 6.890625 40.9375 10.546875 
Q 45.796875 14.203125 45.796875 21.1875 
Q 45.796875 27.640625 41.28125 31.265625 
Q 36.765625 34.90625 28.71875 34.90625 
L 20.21875 34.90625 
L 20.21875 43.015625 
L 29.109375 43.015625 
Q 36.375 43.015625 40.234375 45.921875 
Q 44.09375 48.828125 44.09375 54.296875 
Q 44.09375 59.90625 40.109375 62.90625 
Q 36.140625 65.921875 28.71875 65.921875 
Q 24.65625 65.921875 20.015625 65.03125 
Q 15.375 64.15625 9.8125 62.3125 
L 9.8125 71.09375 
Q 15.4375 72.65625 20.34375 73.4375 
Q 25.25 74.21875 29.59375 74.21875 
Q 40.828125 74.21875 47.359375 69.109375 
Q 53.90625 64.015625 53.90625 55.328125 
Q 53.90625 49.265625 50.4375 45.09375 
Q 46.96875 40.921875 40.578125 39.3125 
z
" id="DejaVuSans-51"/>
       </defs>
       <use xlink:href="#DejaVuSans-8722"/>
       <use x="83.789062" xlink:href="#DejaVuSans-51"/>
       <use x="147.412109" xlink:href="#DejaVuSans-48"/>
      </g>
     </g>
    </g>
    <g id="ytick_9">
     <g id="line2d_12">
      <g>
       <use style="stroke:#000000;stroke-width:0.8;" x="54" xlink:href="#m2070edef7b" y="37.5785"/>
      </g>
     </g>
     <g id="text_13">
      <!-- −20 -->
      <g transform="translate(25.895312 41.377719)scale(0.1 -0.1)">
       <defs>
        <path d="M 19.1875 8.296875 
L 53.609375 8.296875 
L 53.609375 0 
L 7.328125 0 
L 7.328125 8.296875 
Q 12.9375 14.109375 22.625 23.890625 
Q 32.328125 33.6875 34.8125 36.53125 
Q 39.546875 41.84375 41.421875 45.53125 
Q 43.3125 49.21875 43.3125 52.78125 
Q 43.3125 58.59375 39.234375 62.25 
Q 35.15625 65.921875 28.609375 65.921875 
Q 23.96875 65.921875 18.8125 64.3125 
Q 13.671875 62.703125 7.8125 59.421875 
L 7.8125 69.390625 
Q 13.765625 71.78125 18.9375 73 
Q 24.125 74.21875 28.421875 74.21875 
Q 39.75 74.21875 46.484375 68.546875 
Q 53.21875 62.890625 53.21875 53.421875 
Q 53.21875 48.921875 51.53125 44.890625 
Q 49.859375 40.875 45.40625 35.40625 
Q 44.1875 33.984375 37.640625 27.21875 
Q 31.109375 20.453125 19.1875 8.296875 
z
" id="DejaVuSans-50"/>
       </defs>
       <use xlink:href="#DejaVuSans-8722"/>
       <use x="83.789062" xlink:href="#DejaVuSans-50"/>
       <use x="147.412109" xlink:href="#DejaVuSans-48"/>
      </g>
     </g>
    </g>
    <g id="text_14">
     <!-- value -->
     <g transform="translate(13.453125 156.937813)rotate(-90)scale(0.1 -0.1)">
      <defs>
       <path d="M 8.5 21.578125 
L 8.5 54.6875 
L 17.484375 54.6875 
L 17.484375 21.921875 
Q 17.484375 14.15625 20.5 10.265625 
Q 23.53125 6.390625 29.59375 6.390625 
Q 36.859375 6.390625 41.078125 11.03125 
Q 45.3125 15.671875 45.3125 23.6875 
L 45.3125 54.6875 
L 54.296875 54.6875 
L 54.296875 0 
L 45.3125 0 
L 45.3125 8.40625 
Q 42.046875 3.421875 37.71875 1 
Q 33.40625 -1.421875 27.6875 -1.421875 
Q 18.265625 -1.421875 13.375 4.4375 
Q 8.5 10.296875 8.5 21.578125 
z
M 31.109375 56 
z
" id="DejaVuSans-117"/>
      </defs>
      <use xlink:href="#DejaVuSans-118"/>
      <use x="59.179688" xlink:href="#DejaVuSans-97"/>
      <use x="120.458984" xlink:href="#DejaVuSans-108"/>
      <use x="148.242188" xlink:href="#DejaVuSans-117"/>
      <use x="211.621094" xlink:href="#DejaVuSans-101"/>
     </g>
    </g>
   </g>
   <g id="line2d_13">
    <path clip-path="url(#p4e65d99c59)" d="M 80.04 153.283437 
L 80.04 46.873943 
" style="fill:none;stroke:#3d3d3d;stroke-linecap:square;stroke-width:1.5;"/>
   </g>
   <g id="line2d_14">
    <path clip-path="url(#p4e65d99c59)" d="M 80.04 108.516399 
L 80.04 78.614383 
" style="fill:none;stroke:#3d3d3d;stroke-linecap:square;stroke-width:4.5;"/>
   </g>
   <g id="line2d_15">
    <path clip-path="url(#p4e65d99c59)" d="M 221.4 154.10978 
L 221.4 44.443636 
" style="fill:none;stroke:#3d3d3d;stroke-linecap:square;stroke-width:1.5;"/>
   </g>
   <g id="line2d_16">
    <path clip-path="url(#p4e65d99c59)" d="M 221.4 108.863057 
L 221.4 78.666814 
" style="fill:none;stroke:#3d3d3d;stroke-linecap:square;stroke-width:4.5;"/>
   </g>
   <g id="line2d_17">
    <path clip-path="url(#p4e65d99c59)" d="M 362.76 145.888245 
L 362.76 45.46192 
" style="fill:none;stroke:#3d3d3d;stroke-linecap:square;stroke-width:1.5;"/>
   </g>
   <g id="line2d_18">
    <path clip-path="url(#p4e65d99c59)" d="M 362.76 105.483632 
L 362.76 77.868363 
" style="fill:none;stroke:#3d3d3d;stroke-linecap:square;stroke-width:4.5;"/>
   </g>
   <g id="patch_6">
    <path d="M 54 252 
L 54 34.56 
" style="fill:none;stroke:#000000;stroke-linecap:square;stroke-linejoin:miter;stroke-width:0.8;"/>
   </g>
   <g id="patch_7">
    <path d="M 388.8 252 
L 388.8 34.56 
" style="fill:none;stroke:#000000;stroke-linecap:square;stroke-linejoin:miter;stroke-width:0.8;"/>
   </g>
   <g id="patch_8">
    <path d="M 54 252 
L 388.8 252 
" style="fill:none;stroke:#000000;stroke-linecap:square;stroke-linejoin:miter;stroke-width:0.8;"/>
   </g>
   <g id="patch_9">
    <path d="M 54 34.56 
L 388.8 34.56 
" style="fill:none;stroke:#000000;stroke-linecap:square;stroke-linejoin:miter;stroke-width:0.8;"/>
   </g>
   <g id="PathCollection_1">
    <defs>
     <path d="M 0 1.5 
C 0.397805 1.5 0.77937 1.341951 1.06066 1.06066 
C 1.341951 0.77937 1.5 0.397805 1.5 0 
C 1.5 -0.397805 1.341951 -0.77937 1.06066 -1.06066 
C 0.77937 -1.341951 0.397805 -1.5 0 -1.5 
C -0.397805 -1.5 -0.77937 -1.341951 -1.06066 -1.06066 
C -1.341951 -0.77937 -1.5 -0.397805 -1.5 0 
C -1.5 0.397805 -1.341951 0.77937 -1.06066 1.06066 
C -0.77937 1.341951 -0.397805 1.5 0 1.5 
z
" id="m2ab1a658f9" style="stroke:#3d3d3d;"/>
    </defs>
    <g clip-path="url(#p4e65d99c59)">
     <use style="fill:#ffffff;stroke:#3d3d3d;" x="80.04" xlink:href="#m2ab1a658f9" y="91.676244"/>
    </g>
   </g>
   <g id="PathCollection_2">
    <g clip-path="url(#p4e65d99c59)">
     <use style="fill:#ffffff;stroke:#3d3d3d;" x="221.4" xlink:href="#m2ab1a658f9" y="91.619374"/>
    </g>
   </g>
   <g id="PathCollection_3">
    <g clip-path="url(#p4e65d99c59)">
     <use style="fill:#ffffff;stroke:#3d3d3d;" x="362.76" xlink:href="#m2ab1a658f9" y="90.591365"/>
    </g>
   </g>
   <g id="legend_1">
    <g id="patch_10">
     <path d="M 61 247 
L 116.275 247 
Q 118.275 247 118.275 245 
L 118.275 187.2875 
Q 118.275 185.2875 116.275 185.2875 
L 61 185.2875 
Q 59 185.2875 59 187.2875 
L 59 245 
Q 59 247 61 247 
z
" style="fill:#ffffff;opacity:0.8;stroke:#cccccc;stroke-linejoin:miter;"/>
    </g>
    <g id="text_15">
     <!-- set -->
     <g transform="translate(80.996094 196.885938)scale(0.1 -0.1)">
      <use xlink:href="#DejaVuSans-115"/>
      <use x="52.099609" xlink:href="#DejaVuSans-101"/>
      <use x="113.623047" xlink:href="#DejaVuSans-116"/>
     </g>
    </g>
    <g id="patch_11">
     <path d="M 63 211.564063 
L 83 211.564063 
L 83 204.564063 
L 63 204.564063 
z
" style="fill:#3274a1;stroke:#3d3d3d;stroke-linejoin:miter;stroke-width:0.75;"/>
    </g>
    <g id="text_16">
     <!-- train -->
     <g transform="translate(91 211.564063)scale(0.1 -0.1)">
      <use xlink:href="#DejaVuSans-116"/>
      <use x="39.208984" xlink:href="#DejaVuSans-114"/>
      <use x="80.322266" xlink:href="#DejaVuSans-97"/>
      <use x="141.601562" xlink:href="#DejaVuSans-105"/>
      <use x="169.384766" xlink:href="#DejaVuSans-110"/>
     </g>
    </g>
    <g id="patch_12">
     <path d="M 63 226.242188 
L 83 226.242188 
L 83 219.242188 
L 63 219.242188 
z
" style="fill:#e1812c;stroke:#3d3d3d;stroke-linejoin:miter;stroke-width:0.75;"/>
    </g>
    <g id="text_17">
     <!-- val -->
     <g transform="translate(91 226.242188)scale(0.1 -0.1)">
      <use xlink:href="#DejaVuSans-118"/>
      <use x="59.179688" xlink:href="#DejaVuSans-97"/>
      <use x="120.458984" xlink:href="#DejaVuSans-108"/>
     </g>
    </g>
    <g id="patch_13">
     <path d="M 63 240.920313 
L 83 240.920313 
L 83 233.920313 
L 63 233.920313 
z
" style="fill:#3a923a;stroke:#3d3d3d;stroke-linejoin:miter;stroke-width:0.75;"/>
    </g>
    <g id="text_18">
     <!-- test -->
     <g transform="translate(91 240.920313)scale(0.1 -0.1)">
      <use xlink:href="#DejaVuSans-116"/>
      <use x="39.208984" xlink:href="#DejaVuSans-101"/>
      <use x="100.732422" xlink:href="#DejaVuSans-115"/>
      <use x="152.832031" xlink:href="#DejaVuSans-116"/>
     </g>
    </g>
   </g>
  </g>
 </g>
 <defs>
  <clipPath id="p4e65d99c59">
   <rect height="217.44" width="334.8" x="54" y="34.56"/>
  </clipPath>
 </defs>
</svg>
