<?xml version="1.0" encoding="utf-8" standalone="no"?>
<!DOCTYPE svg PUBLIC "-//W3C//DTD SVG 1.1//EN"
  "http://www.w3.org/Graphics/SVG/1.1/DTD/svg11.dtd">
<!-- Created with matplotlib (https://matplotlib.org/) -->
<svg height="288pt" version="1.1" viewBox="0 0 432 288" width="432pt" xmlns="http://www.w3.org/2000/svg" xmlns:xlink="http://www.w3.org/1999/xlink">
 <metadata>
  <rdf:RDF xmlns:cc="http://creativecommons.org/ns#" xmlns:dc="http://purl.org/dc/elements/1.1/" xmlns:rdf="http://www.w3.org/1999/02/22-rdf-syntax-ns#">
   <cc:Work>
    <dc:type rdf:resource="http://purl.org/dc/dcmitype/StillImage"/>
    <dc:date>2022-06-09T23:34:51.160036</dc:date>
    <dc:format>image/svg+xml</dc:format>
    <dc:creator>
     <cc:Agent>
      <dc:title>Matplotlib v3.3.4, https://matplotlib.org/</dc:title>
     </cc:Agent>
    </dc:creator>
   </cc:Work>
  </rdf:RDF>
 </metadata>
 <defs>
  <style type="text/css">*{stroke-linecap:butt;stroke-linejoin:round;}</style>
 </defs>
 <g id="figure_1">
  <g id="patch_1">
   <path d="M 0 288 
L 432 288 
L 432 0 
L 0 0 
z
" style="fill:#ffffff;"/>
  </g>
  <g id="axes_1">
   <g id="patch_2">
    <path d="M 54 252 
L 206.181818 252 
L 206.181818 34.56 
L 54 34.56 
z
" style="fill:#ffffff;"/>
   </g>
   <g id="patch_3">
    <path clip-path="url(#p1bd794c166)" d="M 69.861073 252 
L 83.245481 252 
L 83.245481 252 
L 69.861073 252 
z
" style="fill:#1f77b4;opacity:0.4;"/>
   </g>
   <g id="patch_4">
    <path clip-path="url(#p1bd794c166)" d="M 83.245481 252 
L 96.629889 252 
L 96.629889 251.648017 
L 83.245481 251.648017 
z
" style="fill:#1f77b4;opacity:0.4;"/>
   </g>
   <g id="patch_5">
    <path clip-path="url(#p1bd794c166)" d="M 96.629889 252 
L 110.014297 252 
L 110.014297 251.472025 
L 96.629889 251.472025 
z
" style="fill:#1f77b4;opacity:0.4;"/>
   </g>
   <g id="patch_6">
    <path clip-path="url(#p1bd794c166)" d="M 110.014297 252 
L 123.398705 252 
L 123.398705 242.144469 
L 110.014297 242.144469 
z
" style="fill:#1f77b4;opacity:0.4;"/>
   </g>
   <g id="patch_7">
    <path clip-path="url(#p1bd794c166)" d="M 123.398705 252 
L 136.783113 252 
L 136.783113 172.803771 
L 123.398705 172.803771 
z
" style="fill:#1f77b4;opacity:0.4;"/>
   </g>
   <g id="patch_8">
    <path clip-path="url(#p1bd794c166)" d="M 136.783113 252 
L 150.167521 252 
L 150.167521 60.873102 
L 136.783113 60.873102 
z
" style="fill:#1f77b4;opacity:0.4;"/>
   </g>
   <g id="patch_9">
    <path clip-path="url(#p1bd794c166)" d="M 150.167521 252 
L 163.551929 252 
L 163.551929 88.327794 
L 150.167521 88.327794 
z
" style="fill:#1f77b4;opacity:0.4;"/>
   </g>
   <g id="patch_10">
    <path clip-path="url(#p1bd794c166)" d="M 163.551929 252 
L 176.936337 252 
L 176.936337 167.348031 
L 163.551929 167.348031 
z
" style="fill:#1f77b4;opacity:0.4;"/>
   </g>
   <g id="patch_11">
    <path clip-path="url(#p1bd794c166)" d="M 176.936337 252 
L 190.320746 252 
L 190.320746 243.728394 
L 176.936337 243.728394 
z
" style="fill:#1f77b4;opacity:0.4;"/>
   </g>
   <g id="matplotlib.axis_1">
    <g id="xtick_1">
     <g id="line2d_1">
      <defs>
       <path d="M 0 0 
L 0 3.5 
" id="ma9f71938a8" style="stroke:#000000;stroke-width:0.8;"/>
      </defs>
      <g>
       <use style="stroke:#000000;stroke-width:0.8;" x="84.790578" xlink:href="#ma9f71938a8" y="252"/>
      </g>
     </g>
     <g id="text_1">
      <!-- 0 -->
      <g transform="translate(81.609328 266.598437)scale(0.1 -0.1)">
       <defs>
        <path d="M 31.78125 66.40625 
Q 24.171875 66.40625 20.328125 58.90625 
Q 16.5 51.421875 16.5 36.375 
Q 16.5 21.390625 20.328125 13.890625 
Q 24.171875 6.390625 31.78125 6.390625 
Q 39.453125 6.390625 43.28125 13.890625 
Q 47.125 21.390625 47.125 36.375 
Q 47.125 51.421875 43.28125 58.90625 
Q 39.453125 66.40625 31.78125 66.40625 
z
M 31.78125 74.21875 
Q 44.046875 74.21875 50.515625 64.515625 
Q 56.984375 54.828125 56.984375 36.375 
Q 56.984375 17.96875 50.515625 8.265625 
Q 44.046875 -1.421875 31.78125 -1.421875 
Q 19.53125 -1.421875 13.0625 8.265625 
Q 6.59375 17.96875 6.59375 36.375 
Q 6.59375 54.828125 13.0625 64.515625 
Q 19.53125 74.21875 31.78125 74.21875 
z
" id="DejaVuSans-48"/>
       </defs>
       <use xlink:href="#DejaVuSans-48"/>
      </g>
     </g>
    </g>
    <g id="xtick_2">
     <g id="line2d_2">
      <g>
       <use style="stroke:#000000;stroke-width:0.8;" x="141.991638" xlink:href="#ma9f71938a8" y="252"/>
      </g>
     </g>
     <g id="text_2">
      <!-- 10 -->
      <g transform="translate(135.629138 266.598437)scale(0.1 -0.1)">
       <defs>
        <path d="M 12.40625 8.296875 
L 28.515625 8.296875 
L 28.515625 63.921875 
L 10.984375 60.40625 
L 10.984375 69.390625 
L 28.421875 72.90625 
L 38.28125 72.90625 
L 38.28125 8.296875 
L 54.390625 8.296875 
L 54.390625 0 
L 12.40625 0 
z
" id="DejaVuSans-49"/>
       </defs>
       <use xlink:href="#DejaVuSans-49"/>
       <use x="63.623047" xlink:href="#DejaVuSans-48"/>
      </g>
     </g>
    </g>
    <g id="xtick_3">
     <g id="line2d_3">
      <g>
       <use style="stroke:#000000;stroke-width:0.8;" x="199.192699" xlink:href="#ma9f71938a8" y="252"/>
      </g>
     </g>
     <g id="text_3">
      <!-- 20 -->
      <g transform="translate(192.830199 266.598437)scale(0.1 -0.1)">
       <defs>
        <path d="M 19.1875 8.296875 
L 53.609375 8.296875 
L 53.609375 0 
L 7.328125 0 
L 7.328125 8.296875 
Q 12.9375 14.109375 22.625 23.890625 
Q 32.328125 33.6875 34.8125 36.53125 
Q 39.546875 41.84375 41.421875 45.53125 
Q 43.3125 49.21875 43.3125 52.78125 
Q 43.3125 58.59375 39.234375 62.25 
Q 35.15625 65.921875 28.609375 65.921875 
Q 23.96875 65.921875 18.8125 64.3125 
Q 13.671875 62.703125 7.8125 59.421875 
L 7.8125 69.390625 
Q 13.765625 71.78125 18.9375 73 
Q 24.125 74.21875 28.421875 74.21875 
Q 39.75 74.21875 46.484375 68.546875 
Q 53.21875 62.890625 53.21875 53.421875 
Q 53.21875 48.921875 51.53125 44.890625 
Q 49.859375 40.875 45.40625 35.40625 
Q 44.1875 33.984375 37.640625 27.21875 
Q 31.109375 20.453125 19.1875 8.296875 
z
" id="DejaVuSans-50"/>
       </defs>
       <use xlink:href="#DejaVuSans-50"/>
       <use x="63.623047" xlink:href="#DejaVuSans-48"/>
      </g>
     </g>
    </g>
    <g id="text_4">
     <!-- Z_1_ns -->
     <g transform="translate(112.711222 279.998438)scale(0.1 -0.1)">
      <defs>
       <path d="M 5.609375 72.90625 
L 62.890625 72.90625 
L 62.890625 65.375 
L 16.796875 8.296875 
L 64.015625 8.296875 
L 64.015625 0 
L 4.5 0 
L 4.5 7.515625 
L 50.59375 64.59375 
L 5.609375 64.59375 
z
" id="DejaVuSans-90"/>
       <path d="M 50.984375 -16.609375 
L 50.984375 -23.578125 
L -0.984375 -23.578125 
L -0.984375 -16.609375 
z
" id="DejaVuSans-95"/>
       <path d="M 54.890625 33.015625 
L 54.890625 0 
L 45.90625 0 
L 45.90625 32.71875 
Q 45.90625 40.484375 42.875 44.328125 
Q 39.84375 48.1875 33.796875 48.1875 
Q 26.515625 48.1875 22.3125 43.546875 
Q 18.109375 38.921875 18.109375 30.90625 
L 18.109375 0 
L 9.078125 0 
L 9.078125 54.6875 
L 18.109375 54.6875 
L 18.109375 46.1875 
Q 21.34375 51.125 25.703125 53.5625 
Q 30.078125 56 35.796875 56 
Q 45.21875 56 50.046875 50.171875 
Q 54.890625 44.34375 54.890625 33.015625 
z
" id="DejaVuSans-110"/>
       <path d="M 44.28125 53.078125 
L 44.28125 44.578125 
Q 40.484375 46.53125 36.375 47.5 
Q 32.28125 48.484375 27.875 48.484375 
Q 21.1875 48.484375 17.84375 46.4375 
Q 14.5 44.390625 14.5 40.28125 
Q 14.5 37.15625 16.890625 35.375 
Q 19.28125 33.59375 26.515625 31.984375 
L 29.59375 31.296875 
Q 39.15625 29.25 43.1875 25.515625 
Q 47.21875 21.78125 47.21875 15.09375 
Q 47.21875 7.46875 41.1875 3.015625 
Q 35.15625 -1.421875 24.609375 -1.421875 
Q 20.21875 -1.421875 15.453125 -0.5625 
Q 10.6875 0.296875 5.421875 2 
L 5.421875 11.28125 
Q 10.40625 8.6875 15.234375 7.390625 
Q 20.0625 6.109375 24.8125 6.109375 
Q 31.15625 6.109375 34.5625 8.28125 
Q 37.984375 10.453125 37.984375 14.40625 
Q 37.984375 18.0625 35.515625 20.015625 
Q 33.0625 21.96875 24.703125 23.78125 
L 21.578125 24.515625 
Q 13.234375 26.265625 9.515625 29.90625 
Q 5.8125 33.546875 5.8125 39.890625 
Q 5.8125 47.609375 11.28125 51.796875 
Q 16.75 56 26.8125 56 
Q 31.78125 56 36.171875 55.265625 
Q 40.578125 54.546875 44.28125 53.078125 
z
" id="DejaVuSans-115"/>
      </defs>
      <use xlink:href="#DejaVuSans-90"/>
      <use x="68.505859" xlink:href="#DejaVuSans-95"/>
      <use x="118.505859" xlink:href="#DejaVuSans-49"/>
      <use x="182.128906" xlink:href="#DejaVuSans-95"/>
      <use x="232.128906" xlink:href="#DejaVuSans-110"/>
      <use x="295.507812" xlink:href="#DejaVuSans-115"/>
     </g>
    </g>
   </g>
   <g id="matplotlib.axis_2">
    <g id="ytick_1">
     <g id="line2d_4">
      <defs>
       <path d="M 0 0 
L -3.5 0 
" id="ma9d7c3919a" style="stroke:#000000;stroke-width:0.8;"/>
      </defs>
      <g>
       <use style="stroke:#000000;stroke-width:0.8;" x="54" xlink:href="#ma9d7c3919a" y="252"/>
      </g>
     </g>
     <g id="text_5">
      <!-- 0.00 -->
      <g transform="translate(24.734375 255.799219)scale(0.1 -0.1)">
       <defs>
        <path d="M 10.6875 12.40625 
L 21 12.40625 
L 21 0 
L 10.6875 0 
z
" id="DejaVuSans-46"/>
       </defs>
       <use xlink:href="#DejaVuSans-48"/>
       <use x="63.623047" xlink:href="#DejaVuSans-46"/>
       <use x="95.410156" xlink:href="#DejaVuSans-48"/>
       <use x="159.033203" xlink:href="#DejaVuSans-48"/>
      </g>
     </g>
    </g>
    <g id="ytick_2">
     <g id="line2d_5">
      <g>
       <use style="stroke:#000000;stroke-width:0.8;" x="54" xlink:href="#ma9d7c3919a" y="226.838978"/>
      </g>
     </g>
     <g id="text_6">
      <!-- 0.02 -->
      <g transform="translate(24.734375 230.638196)scale(0.1 -0.1)">
       <use xlink:href="#DejaVuSans-48"/>
       <use x="63.623047" xlink:href="#DejaVuSans-46"/>
       <use x="95.410156" xlink:href="#DejaVuSans-48"/>
       <use x="159.033203" xlink:href="#DejaVuSans-50"/>
      </g>
     </g>
    </g>
    <g id="ytick_3">
     <g id="line2d_6">
      <g>
       <use style="stroke:#000000;stroke-width:0.8;" x="54" xlink:href="#ma9d7c3919a" y="201.677955"/>
      </g>
     </g>
     <g id="text_7">
      <!-- 0.04 -->
      <g transform="translate(24.734375 205.477174)scale(0.1 -0.1)">
       <defs>
        <path d="M 37.796875 64.3125 
L 12.890625 25.390625 
L 37.796875 25.390625 
z
M 35.203125 72.90625 
L 47.609375 72.90625 
L 47.609375 25.390625 
L 58.015625 25.390625 
L 58.015625 17.1875 
L 47.609375 17.1875 
L 47.609375 0 
L 37.796875 0 
L 37.796875 17.1875 
L 4.890625 17.1875 
L 4.890625 26.703125 
z
" id="DejaVuSans-52"/>
       </defs>
       <use xlink:href="#DejaVuSans-48"/>
       <use x="63.623047" xlink:href="#DejaVuSans-46"/>
       <use x="95.410156" xlink:href="#DejaVuSans-48"/>
       <use x="159.033203" xlink:href="#DejaVuSans-52"/>
      </g>
     </g>
    </g>
    <g id="ytick_4">
     <g id="line2d_7">
      <g>
       <use style="stroke:#000000;stroke-width:0.8;" x="54" xlink:href="#ma9d7c3919a" y="176.516933"/>
      </g>
     </g>
     <g id="text_8">
      <!-- 0.06 -->
      <g transform="translate(24.734375 180.316151)scale(0.1 -0.1)">
       <defs>
        <path d="M 33.015625 40.375 
Q 26.375 40.375 22.484375 35.828125 
Q 18.609375 31.296875 18.609375 23.390625 
Q 18.609375 15.53125 22.484375 10.953125 
Q 26.375 6.390625 33.015625 6.390625 
Q 39.65625 6.390625 43.53125 10.953125 
Q 47.40625 15.53125 47.40625 23.390625 
Q 47.40625 31.296875 43.53125 35.828125 
Q 39.65625 40.375 33.015625 40.375 
z
M 52.59375 71.296875 
L 52.59375 62.3125 
Q 48.875 64.0625 45.09375 64.984375 
Q 41.3125 65.921875 37.59375 65.921875 
Q 27.828125 65.921875 22.671875 59.328125 
Q 17.53125 52.734375 16.796875 39.40625 
Q 19.671875 43.65625 24.015625 45.921875 
Q 28.375 48.1875 33.59375 48.1875 
Q 44.578125 48.1875 50.953125 41.515625 
Q 57.328125 34.859375 57.328125 23.390625 
Q 57.328125 12.15625 50.6875 5.359375 
Q 44.046875 -1.421875 33.015625 -1.421875 
Q 20.359375 -1.421875 13.671875 8.265625 
Q 6.984375 17.96875 6.984375 36.375 
Q 6.984375 53.65625 15.1875 63.9375 
Q 23.390625 74.21875 37.203125 74.21875 
Q 40.921875 74.21875 44.703125 73.484375 
Q 48.484375 72.75 52.59375 71.296875 
z
" id="DejaVuSans-54"/>
       </defs>
       <use xlink:href="#DejaVuSans-48"/>
       <use x="63.623047" xlink:href="#DejaVuSans-46"/>
       <use x="95.410156" xlink:href="#DejaVuSans-48"/>
       <use x="159.033203" xlink:href="#DejaVuSans-54"/>
      </g>
     </g>
    </g>
    <g id="ytick_5">
     <g id="line2d_8">
      <g>
       <use style="stroke:#000000;stroke-width:0.8;" x="54" xlink:href="#ma9d7c3919a" y="151.35591"/>
      </g>
     </g>
     <g id="text_9">
      <!-- 0.08 -->
      <g transform="translate(24.734375 155.155129)scale(0.1 -0.1)">
       <defs>
        <path d="M 31.78125 34.625 
Q 24.75 34.625 20.71875 30.859375 
Q 16.703125 27.09375 16.703125 20.515625 
Q 16.703125 13.921875 20.71875 10.15625 
Q 24.75 6.390625 31.78125 6.390625 
Q 38.8125 6.390625 42.859375 10.171875 
Q 46.921875 13.96875 46.921875 20.515625 
Q 46.921875 27.09375 42.890625 30.859375 
Q 38.875 34.625 31.78125 34.625 
z
M 21.921875 38.8125 
Q 15.578125 40.375 12.03125 44.71875 
Q 8.5 49.078125 8.5 55.328125 
Q 8.5 64.0625 14.71875 69.140625 
Q 20.953125 74.21875 31.78125 74.21875 
Q 42.671875 74.21875 48.875 69.140625 
Q 55.078125 64.0625 55.078125 55.328125 
Q 55.078125 49.078125 51.53125 44.71875 
Q 48 40.375 41.703125 38.8125 
Q 48.828125 37.15625 52.796875 32.3125 
Q 56.78125 27.484375 56.78125 20.515625 
Q 56.78125 9.90625 50.3125 4.234375 
Q 43.84375 -1.421875 31.78125 -1.421875 
Q 19.734375 -1.421875 13.25 4.234375 
Q 6.78125 9.90625 6.78125 20.515625 
Q 6.78125 27.484375 10.78125 32.3125 
Q 14.796875 37.15625 21.921875 38.8125 
z
M 18.3125 54.390625 
Q 18.3125 48.734375 21.84375 45.5625 
Q 25.390625 42.390625 31.78125 42.390625 
Q 38.140625 42.390625 41.71875 45.5625 
Q 45.3125 48.734375 45.3125 54.390625 
Q 45.3125 60.0625 41.71875 63.234375 
Q 38.140625 66.40625 31.78125 66.40625 
Q 25.390625 66.40625 21.84375 63.234375 
Q 18.3125 60.0625 18.3125 54.390625 
z
" id="DejaVuSans-56"/>
       </defs>
       <use xlink:href="#DejaVuSans-48"/>
       <use x="63.623047" xlink:href="#DejaVuSans-46"/>
       <use x="95.410156" xlink:href="#DejaVuSans-48"/>
       <use x="159.033203" xlink:href="#DejaVuSans-56"/>
      </g>
     </g>
    </g>
    <g id="ytick_6">
     <g id="line2d_9">
      <g>
       <use style="stroke:#000000;stroke-width:0.8;" x="54" xlink:href="#ma9d7c3919a" y="126.194888"/>
      </g>
     </g>
     <g id="text_10">
      <!-- 0.10 -->
      <g transform="translate(24.734375 129.994107)scale(0.1 -0.1)">
       <use xlink:href="#DejaVuSans-48"/>
       <use x="63.623047" xlink:href="#DejaVuSans-46"/>
       <use x="95.410156" xlink:href="#DejaVuSans-49"/>
       <use x="159.033203" xlink:href="#DejaVuSans-48"/>
      </g>
     </g>
    </g>
    <g id="ytick_7">
     <g id="line2d_10">
      <g>
       <use style="stroke:#000000;stroke-width:0.8;" x="54" xlink:href="#ma9d7c3919a" y="101.033865"/>
      </g>
     </g>
     <g id="text_11">
      <!-- 0.12 -->
      <g transform="translate(24.734375 104.833084)scale(0.1 -0.1)">
       <use xlink:href="#DejaVuSans-48"/>
       <use x="63.623047" xlink:href="#DejaVuSans-46"/>
       <use x="95.410156" xlink:href="#DejaVuSans-49"/>
       <use x="159.033203" xlink:href="#DejaVuSans-50"/>
      </g>
     </g>
    </g>
    <g id="ytick_8">
     <g id="line2d_11">
      <g>
       <use style="stroke:#000000;stroke-width:0.8;" x="54" xlink:href="#ma9d7c3919a" y="75.872843"/>
      </g>
     </g>
     <g id="text_12">
      <!-- 0.14 -->
      <g transform="translate(24.734375 79.672062)scale(0.1 -0.1)">
       <use xlink:href="#DejaVuSans-48"/>
       <use x="63.623047" xlink:href="#DejaVuSans-46"/>
       <use x="95.410156" xlink:href="#DejaVuSans-49"/>
       <use x="159.033203" xlink:href="#DejaVuSans-52"/>
      </g>
     </g>
    </g>
    <g id="ytick_9">
     <g id="line2d_12">
      <g>
       <use style="stroke:#000000;stroke-width:0.8;" x="54" xlink:href="#ma9d7c3919a" y="50.711821"/>
      </g>
     </g>
     <g id="text_13">
      <!-- 0.16 -->
      <g transform="translate(24.734375 54.511039)scale(0.1 -0.1)">
       <use xlink:href="#DejaVuSans-48"/>
       <use x="63.623047" xlink:href="#DejaVuSans-46"/>
       <use x="95.410156" xlink:href="#DejaVuSans-49"/>
       <use x="159.033203" xlink:href="#DejaVuSans-54"/>
      </g>
     </g>
    </g>
    <g id="text_14">
     <!-- Density -->
     <g transform="translate(18.654687 162.288594)rotate(-90)scale(0.1 -0.1)">
      <defs>
       <path d="M 19.671875 64.796875 
L 19.671875 8.109375 
L 31.59375 8.109375 
Q 46.6875 8.109375 53.6875 14.9375 
Q 60.6875 21.78125 60.6875 36.53125 
Q 60.6875 51.171875 53.6875 57.984375 
Q 46.6875 64.796875 31.59375 64.796875 
z
M 9.8125 72.90625 
L 30.078125 72.90625 
Q 51.265625 72.90625 61.171875 64.09375 
Q 71.09375 55.28125 71.09375 36.53125 
Q 71.09375 17.671875 61.125 8.828125 
Q 51.171875 0 30.078125 0 
L 9.8125 0 
z
" id="DejaVuSans-68"/>
       <path d="M 56.203125 29.59375 
L 56.203125 25.203125 
L 14.890625 25.203125 
Q 15.484375 15.921875 20.484375 11.0625 
Q 25.484375 6.203125 34.421875 6.203125 
Q 39.59375 6.203125 44.453125 7.46875 
Q 49.3125 8.734375 54.109375 11.28125 
L 54.109375 2.78125 
Q 49.265625 0.734375 44.1875 -0.34375 
Q 39.109375 -1.421875 33.890625 -1.421875 
Q 20.796875 -1.421875 13.15625 6.1875 
Q 5.515625 13.8125 5.515625 26.8125 
Q 5.515625 40.234375 12.765625 48.109375 
Q 20.015625 56 32.328125 56 
Q 43.359375 56 49.78125 48.890625 
Q 56.203125 41.796875 56.203125 29.59375 
z
M 47.21875 32.234375 
Q 47.125 39.59375 43.09375 43.984375 
Q 39.0625 48.390625 32.421875 48.390625 
Q 24.90625 48.390625 20.390625 44.140625 
Q 15.875 39.890625 15.1875 32.171875 
z
" id="DejaVuSans-101"/>
       <path d="M 9.421875 54.6875 
L 18.40625 54.6875 
L 18.40625 0 
L 9.421875 0 
z
M 9.421875 75.984375 
L 18.40625 75.984375 
L 18.40625 64.59375 
L 9.421875 64.59375 
z
" id="DejaVuSans-105"/>
       <path d="M 18.3125 70.21875 
L 18.3125 54.6875 
L 36.8125 54.6875 
L 36.8125 47.703125 
L 18.3125 47.703125 
L 18.3125 18.015625 
Q 18.3125 11.328125 20.140625 9.421875 
Q 21.96875 7.515625 27.59375 7.515625 
L 36.8125 7.515625 
L 36.8125 0 
L 27.59375 0 
Q 17.1875 0 13.234375 3.875 
Q 9.28125 7.765625 9.28125 18.015625 
L 9.28125 47.703125 
L 2.6875 47.703125 
L 2.6875 54.6875 
L 9.28125 54.6875 
L 9.28125 70.21875 
z
" id="DejaVuSans-116"/>
       <path d="M 32.171875 -5.078125 
Q 28.375 -14.84375 24.75 -17.8125 
Q 21.140625 -20.796875 15.09375 -20.796875 
L 7.90625 -20.796875 
L 7.90625 -13.28125 
L 13.1875 -13.28125 
Q 16.890625 -13.28125 18.9375 -11.515625 
Q 21 -9.765625 23.484375 -3.21875 
L 25.09375 0.875 
L 2.984375 54.6875 
L 12.5 54.6875 
L 29.59375 11.921875 
L 46.6875 54.6875 
L 56.203125 54.6875 
z
" id="DejaVuSans-121"/>
      </defs>
      <use xlink:href="#DejaVuSans-68"/>
      <use x="77.001953" xlink:href="#DejaVuSans-101"/>
      <use x="138.525391" xlink:href="#DejaVuSans-110"/>
      <use x="201.904297" xlink:href="#DejaVuSans-115"/>
      <use x="254.003906" xlink:href="#DejaVuSans-105"/>
      <use x="281.787109" xlink:href="#DejaVuSans-116"/>
      <use x="320.996094" xlink:href="#DejaVuSans-121"/>
     </g>
    </g>
   </g>
   <g id="line2d_13">
    <path clip-path="url(#p1bd794c166)" d="M 77.76191 251.996125 
L 81.860826 251.883014 
L 86.545302 251.65515 
L 91.229778 251.734701 
L 96.499813 251.488611 
L 99.427611 251.637542 
L 102.940967 251.854462 
L 104.697646 251.718766 
L 106.454324 251.297778 
L 108.211003 250.616323 
L 111.72436 248.92857 
L 112.895479 248.231057 
L 114.066598 247.313149 
L 115.237717 245.995936 
L 116.408835 244.086646 
L 117.579954 241.486541 
L 118.751073 238.277606 
L 120.507752 232.737386 
L 121.678871 228.603678 
L 122.84999 223.803078 
L 124.021109 217.977331 
L 125.192228 211.024567 
L 126.948906 199.023786 
L 128.705585 185.781823 
L 130.462263 170.847111 
L 136.317858 115.785469 
L 138.660096 91.610799 
L 140.416774 74.417892 
L 141.587893 65.466175 
L 142.759012 58.879071 
L 143.930131 54.116465 
L 145.10125 50.470777 
L 146.272369 47.599269 
L 146.857928 46.480674 
L 147.443488 45.627782 
L 148.029047 45.089578 
L 148.614607 44.914286 
L 149.200166 45.147261 
L 149.785726 45.830307 
L 150.371285 46.999954 
L 150.956845 48.683531 
L 151.542404 50.893957 
L 152.713523 56.854729 
L 153.884642 64.64025 
L 155.055761 73.870046 
L 157.397999 94.812977 
L 159.154677 110.069849 
L 160.325796 118.740156 
L 161.496915 125.797227 
L 162.668034 131.232081 
L 163.839153 135.347915 
L 166.181391 142.438005 
L 167.35251 147.041142 
L 168.523629 152.925625 
L 169.694748 159.94817 
L 171.451426 171.929674 
L 173.793664 189.759942 
L 176.721462 212.454094 
L 178.47814 224.612708 
L 180.234819 235.171889 
L 181.405938 240.887198 
L 182.577057 245.210406 
L 183.162616 246.829423 
L 183.748176 248.114428 
L 184.333735 249.105568 
L 184.919294 249.8514 
L 186.090413 250.805917 
L 187.261532 251.321798 
L 189.018211 251.7182 
L 191.360449 251.937171 
L 194.288246 251.995991 
L 194.288246 251.995991 
" style="fill:none;stroke:#1f77b4;stroke-linecap:square;stroke-width:1.5;"/>
   </g>
   <g id="patch_12">
    <path d="M 54 252 
L 54 34.56 
" style="fill:none;stroke:#000000;stroke-linecap:square;stroke-linejoin:miter;stroke-width:0.8;"/>
   </g>
   <g id="patch_13">
    <path d="M 206.181818 252 
L 206.181818 34.56 
" style="fill:none;stroke:#000000;stroke-linecap:square;stroke-linejoin:miter;stroke-width:0.8;"/>
   </g>
   <g id="patch_14">
    <path d="M 54 252 
L 206.181818 252 
" style="fill:none;stroke:#000000;stroke-linecap:square;stroke-linejoin:miter;stroke-width:0.8;"/>
   </g>
   <g id="patch_15">
    <path d="M 54 34.56 
L 206.181818 34.56 
" style="fill:none;stroke:#000000;stroke-linecap:square;stroke-linejoin:miter;stroke-width:0.8;"/>
   </g>
  </g>
  <g id="axes_2">
   <g id="patch_16">
    <path d="M 236.618182 252 
L 388.8 252 
L 388.8 34.56 
L 236.618182 34.56 
z
" style="fill:#ffffff;"/>
   </g>
   <g id="patch_17">
    <path clip-path="url(#pa0f03f6988)" d="M 252.479254 252 
L 265.863663 252 
L 265.863663 251.237719 
L 252.479254 251.237719 
z
" style="fill:#1f77b4;opacity:0.4;"/>
   </g>
   <g id="patch_18">
    <path clip-path="url(#pa0f03f6988)" d="M 265.863663 252 
L 279.248071 252 
L 279.248071 249.903727 
L 265.863663 249.903727 
z
" style="fill:#1f77b4;opacity:0.4;"/>
   </g>
   <g id="patch_19">
    <path clip-path="url(#pa0f03f6988)" d="M 279.248071 252 
L 292.632479 252 
L 292.632479 249.713156 
L 279.248071 249.713156 
z
" style="fill:#1f77b4;opacity:0.4;"/>
   </g>
   <g id="patch_20">
    <path clip-path="url(#pa0f03f6988)" d="M 292.632479 252 
L 306.016887 252 
L 306.016887 241.137493 
L 292.632479 241.137493 
z
" style="fill:#1f77b4;opacity:0.4;"/>
   </g>
   <g id="patch_21">
    <path clip-path="url(#pa0f03f6988)" d="M 306.016887 252 
L 319.401295 252 
L 319.401295 162.050822 
L 306.016887 162.050822 
z
" style="fill:#1f77b4;opacity:0.4;"/>
   </g>
   <g id="patch_22">
    <path clip-path="url(#pa0f03f6988)" d="M 319.401295 252 
L 332.785703 252 
L 332.785703 62.382559 
L 319.401295 62.382559 
z
" style="fill:#1f77b4;opacity:0.4;"/>
   </g>
   <g id="patch_23">
    <path clip-path="url(#pa0f03f6988)" d="M 332.785703 252 
L 346.170111 252 
L 346.170111 79.152744 
L 332.785703 79.152744 
z
" style="fill:#1f77b4;opacity:0.4;"/>
   </g>
   <g id="patch_24">
    <path clip-path="url(#pa0f03f6988)" d="M 346.170111 252 
L 359.554519 252 
L 359.554519 150.235464 
L 346.170111 150.235464 
z
" style="fill:#1f77b4;opacity:0.4;"/>
   </g>
   <g id="patch_25">
    <path clip-path="url(#pa0f03f6988)" d="M 359.554519 252 
L 372.938927 252 
L 372.938927 239.994072 
L 359.554519 239.994072 
z
" style="fill:#1f77b4;opacity:0.4;"/>
   </g>
   <g id="matplotlib.axis_3">
    <g id="xtick_4">
     <g id="line2d_14">
      <g>
       <use style="stroke:#000000;stroke-width:0.8;" x="267.408759" xlink:href="#ma9f71938a8" y="252"/>
      </g>
     </g>
     <g id="text_15">
      <!-- 0 -->
      <g transform="translate(264.227509 266.598437)scale(0.1 -0.1)">
       <use xlink:href="#DejaVuSans-48"/>
      </g>
     </g>
    </g>
    <g id="xtick_5">
     <g id="line2d_15">
      <g>
       <use style="stroke:#000000;stroke-width:0.8;" x="324.60982" xlink:href="#ma9f71938a8" y="252"/>
      </g>
     </g>
     <g id="text_16">
      <!-- 10 -->
      <g transform="translate(318.24732 266.598437)scale(0.1 -0.1)">
       <use xlink:href="#DejaVuSans-49"/>
       <use x="63.623047" xlink:href="#DejaVuSans-48"/>
      </g>
     </g>
    </g>
    <g id="xtick_6">
     <g id="line2d_16">
      <g>
       <use style="stroke:#000000;stroke-width:0.8;" x="381.810881" xlink:href="#ma9f71938a8" y="252"/>
      </g>
     </g>
     <g id="text_17">
      <!-- 20 -->
      <g transform="translate(375.448381 266.598437)scale(0.1 -0.1)">
       <use xlink:href="#DejaVuSans-50"/>
       <use x="63.623047" xlink:href="#DejaVuSans-48"/>
      </g>
     </g>
    </g>
    <g id="text_18">
     <!-- Z_2_ns -->
     <g transform="translate(295.329403 280.1)scale(0.1 -0.1)">
      <use xlink:href="#DejaVuSans-90"/>
      <use x="68.505859" xlink:href="#DejaVuSans-95"/>
      <use x="118.505859" xlink:href="#DejaVuSans-50"/>
      <use x="182.128906" xlink:href="#DejaVuSans-95"/>
      <use x="232.128906" xlink:href="#DejaVuSans-110"/>
      <use x="295.507812" xlink:href="#DejaVuSans-115"/>
     </g>
    </g>
   </g>
   <g id="matplotlib.axis_4">
    <g id="ytick_10">
     <g id="line2d_17">
      <g>
       <use style="stroke:#000000;stroke-width:0.8;" x="236.618182" xlink:href="#ma9d7c3919a" y="252"/>
      </g>
     </g>
     <g id="text_19">
      <!-- 0.00 -->
      <g transform="translate(207.352557 255.799219)scale(0.1 -0.1)">
       <use xlink:href="#DejaVuSans-48"/>
       <use x="63.623047" xlink:href="#DejaVuSans-46"/>
       <use x="95.410156" xlink:href="#DejaVuSans-48"/>
       <use x="159.033203" xlink:href="#DejaVuSans-48"/>
      </g>
     </g>
    </g>
    <g id="ytick_11">
     <g id="line2d_18">
      <g>
       <use style="stroke:#000000;stroke-width:0.8;" x="236.618182" xlink:href="#ma9d7c3919a" y="224.754706"/>
      </g>
     </g>
     <g id="text_20">
      <!-- 0.02 -->
      <g transform="translate(207.352557 228.553925)scale(0.1 -0.1)">
       <use xlink:href="#DejaVuSans-48"/>
       <use x="63.623047" xlink:href="#DejaVuSans-46"/>
       <use x="95.410156" xlink:href="#DejaVuSans-48"/>
       <use x="159.033203" xlink:href="#DejaVuSans-50"/>
      </g>
     </g>
    </g>
    <g id="ytick_12">
     <g id="line2d_19">
      <g>
       <use style="stroke:#000000;stroke-width:0.8;" x="236.618182" xlink:href="#ma9d7c3919a" y="197.509412"/>
      </g>
     </g>
     <g id="text_21">
      <!-- 0.04 -->
      <g transform="translate(207.352557 201.308631)scale(0.1 -0.1)">
       <use xlink:href="#DejaVuSans-48"/>
       <use x="63.623047" xlink:href="#DejaVuSans-46"/>
       <use x="95.410156" xlink:href="#DejaVuSans-48"/>
       <use x="159.033203" xlink:href="#DejaVuSans-52"/>
      </g>
     </g>
    </g>
    <g id="ytick_13">
     <g id="line2d_20">
      <g>
       <use style="stroke:#000000;stroke-width:0.8;" x="236.618182" xlink:href="#ma9d7c3919a" y="170.264118"/>
      </g>
     </g>
     <g id="text_22">
      <!-- 0.06 -->
      <g transform="translate(207.352557 174.063337)scale(0.1 -0.1)">
       <use xlink:href="#DejaVuSans-48"/>
       <use x="63.623047" xlink:href="#DejaVuSans-46"/>
       <use x="95.410156" xlink:href="#DejaVuSans-48"/>
       <use x="159.033203" xlink:href="#DejaVuSans-54"/>
      </g>
     </g>
    </g>
    <g id="ytick_14">
     <g id="line2d_21">
      <g>
       <use style="stroke:#000000;stroke-width:0.8;" x="236.618182" xlink:href="#ma9d7c3919a" y="143.018824"/>
      </g>
     </g>
     <g id="text_23">
      <!-- 0.08 -->
      <g transform="translate(207.352557 146.818042)scale(0.1 -0.1)">
       <use xlink:href="#DejaVuSans-48"/>
       <use x="63.623047" xlink:href="#DejaVuSans-46"/>
       <use x="95.410156" xlink:href="#DejaVuSans-48"/>
       <use x="159.033203" xlink:href="#DejaVuSans-56"/>
      </g>
     </g>
    </g>
    <g id="ytick_15">
     <g id="line2d_22">
      <g>
       <use style="stroke:#000000;stroke-width:0.8;" x="236.618182" xlink:href="#ma9d7c3919a" y="115.77353"/>
      </g>
     </g>
     <g id="text_24">
      <!-- 0.10 -->
      <g transform="translate(207.352557 119.572748)scale(0.1 -0.1)">
       <use xlink:href="#DejaVuSans-48"/>
       <use x="63.623047" xlink:href="#DejaVuSans-46"/>
       <use x="95.410156" xlink:href="#DejaVuSans-49"/>
       <use x="159.033203" xlink:href="#DejaVuSans-48"/>
      </g>
     </g>
    </g>
    <g id="ytick_16">
     <g id="line2d_23">
      <g>
       <use style="stroke:#000000;stroke-width:0.8;" x="236.618182" xlink:href="#ma9d7c3919a" y="88.528236"/>
      </g>
     </g>
     <g id="text_25">
      <!-- 0.12 -->
      <g transform="translate(207.352557 92.327454)scale(0.1 -0.1)">
       <use xlink:href="#DejaVuSans-48"/>
       <use x="63.623047" xlink:href="#DejaVuSans-46"/>
       <use x="95.410156" xlink:href="#DejaVuSans-49"/>
       <use x="159.033203" xlink:href="#DejaVuSans-50"/>
      </g>
     </g>
    </g>
    <g id="ytick_17">
     <g id="line2d_24">
      <g>
       <use style="stroke:#000000;stroke-width:0.8;" x="236.618182" xlink:href="#ma9d7c3919a" y="61.282942"/>
      </g>
     </g>
     <g id="text_26">
      <!-- 0.14 -->
      <g transform="translate(207.352557 65.08216)scale(0.1 -0.1)">
       <use xlink:href="#DejaVuSans-48"/>
       <use x="63.623047" xlink:href="#DejaVuSans-46"/>
       <use x="95.410156" xlink:href="#DejaVuSans-49"/>
       <use x="159.033203" xlink:href="#DejaVuSans-52"/>
      </g>
     </g>
    </g>
    <g id="text_27">
     <!-- Density -->
     <g transform="translate(201.272869 162.288594)rotate(-90)scale(0.1 -0.1)">
      <use xlink:href="#DejaVuSans-68"/>
      <use x="77.001953" xlink:href="#DejaVuSans-101"/>
      <use x="138.525391" xlink:href="#DejaVuSans-110"/>
      <use x="201.904297" xlink:href="#DejaVuSans-115"/>
      <use x="254.003906" xlink:href="#DejaVuSans-105"/>
      <use x="281.787109" xlink:href="#DejaVuSans-116"/>
      <use x="320.996094" xlink:href="#DejaVuSans-121"/>
     </g>
    </g>
   </g>
   <g id="line2d_25">
    <path clip-path="url(#pa0f03f6988)" d="M 243.535537 251.996208 
L 248.402018 251.865381 
L 253.963711 251.585829 
L 257.439769 251.394678 
L 260.915827 251.181998 
L 263.001462 251.022794 
L 264.391885 250.740349 
L 268.563155 249.567703 
L 269.953578 249.502103 
L 271.344001 249.674707 
L 274.124847 250.191998 
L 275.515271 250.273905 
L 277.600905 250.151424 
L 281.076963 249.872034 
L 283.85781 249.898578 
L 286.638656 249.878857 
L 288.029079 249.685344 
L 289.419502 249.32889 
L 291.505137 248.539159 
L 297.06683 246.070156 
L 297.762042 245.585018 
L 298.457253 244.915396 
L 299.152465 243.994249 
L 299.847676 242.763257 
L 300.542888 241.180789 
L 301.2381 239.225578 
L 302.628523 234.197162 
L 304.018946 227.737112 
L 305.409369 219.832144 
L 306.799792 210.367766 
L 308.190216 199.357549 
L 310.27585 180.773772 
L 313.056697 155.690805 
L 314.44712 144.533254 
L 315.837543 134.802347 
L 320.008813 108.324898 
L 321.399236 96.702031 
L 325.570505 58.061225 
L 326.265717 53.538689 
L 326.960929 49.993037 
L 327.65614 47.424629 
L 328.351352 45.780867 
L 329.046563 44.977589 
L 329.741775 44.914286 
L 330.436987 45.481344 
L 331.132198 46.562672 
L 331.82741 48.039212 
L 333.217833 51.741458 
L 335.303468 58.277162 
L 336.693891 63.502 
L 338.084314 70.010483 
L 339.474737 77.860557 
L 341.560372 90.189377 
L 342.950795 96.980699 
L 344.341218 102.22388 
L 346.426853 109.523263 
L 347.817276 115.900677 
L 349.2077 124.170257 
L 350.598123 134.217291 
L 352.683758 151.499379 
L 355.464604 174.507351 
L 359.635874 205.910038 
L 361.721508 220.664099 
L 363.111932 228.760417 
L 364.502355 235.020373 
L 365.892778 239.696803 
L 367.283201 243.254488 
L 368.673624 246.015732 
L 370.064048 248.106379 
L 371.454471 249.59224 
L 372.844894 250.578321 
L 374.235317 251.201268 
L 375.62574 251.581622 
L 377.711375 251.870733 
L 380.492221 251.984342 
L 381.882645 251.99588 
L 381.882645 251.99588 
" style="fill:none;stroke:#1f77b4;stroke-linecap:square;stroke-width:1.5;"/>
   </g>
   <g id="patch_26">
    <path d="M 236.618182 252 
L 236.618182 34.56 
" style="fill:none;stroke:#000000;stroke-linecap:square;stroke-linejoin:miter;stroke-width:0.8;"/>
   </g>
   <g id="patch_27">
    <path d="M 388.8 252 
L 388.8 34.56 
" style="fill:none;stroke:#000000;stroke-linecap:square;stroke-linejoin:miter;stroke-width:0.8;"/>
   </g>
   <g id="patch_28">
    <path d="M 236.618182 252 
L 388.8 252 
" style="fill:none;stroke:#000000;stroke-linecap:square;stroke-linejoin:miter;stroke-width:0.8;"/>
   </g>
   <g id="patch_29">
    <path d="M 236.618182 34.56 
L 388.8 34.56 
" style="fill:none;stroke:#000000;stroke-linecap:square;stroke-linejoin:miter;stroke-width:0.8;"/>
   </g>
  </g>
 </g>
 <defs>
  <clipPath id="p1bd794c166">
   <rect height="217.44" width="152.181818" x="54" y="34.56"/>
  </clipPath>
  <clipPath id="pa0f03f6988">
   <rect height="217.44" width="152.181818" x="236.618182" y="34.56"/>
  </clipPath>
 </defs>
</svg>
