<?xml version="1.0" encoding="utf-8" standalone="no"?>
<!DOCTYPE svg PUBLIC "-//W3C//DTD SVG 1.1//EN"
  "http://www.w3.org/Graphics/SVG/1.1/DTD/svg11.dtd">
<!-- Created with matplotlib (https://matplotlib.org/) -->
<svg height="288pt" version="1.1" viewBox="0 0 432 288" width="432pt" xmlns="http://www.w3.org/2000/svg" xmlns:xlink="http://www.w3.org/1999/xlink">
 <metadata>
  <rdf:RDF xmlns:cc="http://creativecommons.org/ns#" xmlns:dc="http://purl.org/dc/elements/1.1/" xmlns:rdf="http://www.w3.org/1999/02/22-rdf-syntax-ns#">
   <cc:Work>
    <dc:type rdf:resource="http://purl.org/dc/dcmitype/StillImage"/>
    <dc:date>2022-06-09T23:34:41.077867</dc:date>
    <dc:format>image/svg+xml</dc:format>
    <dc:creator>
     <cc:Agent>
      <dc:title>Matplotlib v3.3.4, https://matplotlib.org/</dc:title>
     </cc:Agent>
    </dc:creator>
   </cc:Work>
  </rdf:RDF>
 </metadata>
 <defs>
  <style type="text/css">*{stroke-linecap:butt;stroke-linejoin:round;}</style>
 </defs>
 <g id="figure_1">
  <g id="patch_1">
   <path d="M 0 288 
L 432 288 
L 432 0 
L 0 0 
z
" style="fill:#ffffff;"/>
  </g>
  <g id="axes_1">
   <g id="patch_2">
    <path d="M 54 252 
L 388.8 252 
L 388.8 34.56 
L 54 34.56 
z
" style="fill:#ffffff;"/>
   </g>
   <g id="PolyCollection_1">
    <defs>
     <path d="M 104.333496 -74.096483 
L 104.106504 -74.096483 
L 104.08237 -75.808199 
L 104.056407 -77.519915 
L 104.02459 -79.231631 
L 103.982692 -80.943347 
L 103.927928 -82.655063 
L 103.858901 -84.366779 
L 103.773772 -86.078495 
L 103.668308 -87.790211 
L 103.535881 -89.501927 
L 103.370054 -91.213643 
L 103.168082 -92.925359 
L 102.932202 -94.637075 
L 102.666603 -96.348791 
L 102.371228 -98.060507 
L 102.037 -99.772223 
L 101.647259 -101.483939 
L 101.186068 -103.195655 
L 100.648193 -104.907371 
L 100.042959 -106.619087 
L 99.387528 -108.330803 
L 98.692347 -110.042519 
L 97.947021 -111.754235 
L 97.11486 -113.46595 
L 96.139935 -115.177666 
L 94.96556 -116.889382 
L 93.559409 -118.601098 
L 91.936533 -120.312814 
L 90.168223 -122.02453 
L 88.367008 -123.736246 
L 86.650146 -125.447962 
L 85.099893 -127.159678 
L 83.74443 -128.871394 
L 82.569746 -130.58311 
L 81.548859 -132.294826 
L 80.662077 -134.006542 
L 79.893664 -135.718258 
L 79.214957 -137.429974 
L 78.57681 -139.14169 
L 77.922681 -140.853406 
L 77.211516 -142.565122 
L 76.430591 -144.276838 
L 75.590307 -145.988554 
L 74.710804 -147.70027 
L 73.815484 -149.411986 
L 72.936268 -151.123702 
L 72.12215 -152.835418 
L 71.439312 -154.547134 
L 70.959015 -156.25885 
L 70.74 -157.970566 
L 70.816036 -159.682281 
L 71.194707 -161.393997 
L 71.865305 -163.105713 
L 72.807904 -164.817429 
L 73.995711 -166.529145 
L 75.388704 -168.240861 
L 76.92487 -169.952577 
L 78.520278 -171.664293 
L 80.08607 -173.376009 
L 81.559273 -175.087725 
L 82.931095 -176.799441 
L 84.251122 -178.511157 
L 85.596651 -180.222873 
L 87.020104 -181.934589 
L 88.507066 -183.646305 
L 89.974587 -185.358021 
L 91.313107 -187.069737 
L 92.445298 -188.781453 
L 93.364404 -190.493169 
L 94.130566 -192.204885 
L 94.832975 -193.916601 
L 95.546194 -195.628317 
L 96.30629 -197.340033 
L 97.111934 -199.051749 
L 97.937474 -200.763465 
L 98.744271 -202.475181 
L 99.488521 -204.186896 
L 100.131647 -205.898612 
L 100.654319 -207.610328 
L 101.065817 -209.322044 
L 101.399659 -211.03376 
L 101.696183 -212.745476 
L 101.983276 -214.457192 
L 102.267389 -216.168908 
L 102.538334 -217.880624 
L 102.781231 -219.59234 
L 102.985815 -221.304056 
L 103.148447 -223.015772 
L 103.269548 -224.727488 
L 103.352116 -226.439204 
L 103.403609 -228.15092 
L 103.438202 -229.862636 
L 103.474885 -231.574352 
L 103.530422 -233.286068 
L 103.611471 -234.997784 
L 103.711811 -236.7095 
L 103.816966 -238.421216 
L 103.912727 -240.132932 
L 103.991496 -241.844648 
L 104.053023 -243.556364 
L 104.386977 -243.556364 
L 104.386977 -243.556364 
L 104.448504 -241.844648 
L 104.527273 -240.132932 
L 104.623034 -238.421216 
L 104.728189 -236.7095 
L 104.828529 -234.997784 
L 104.909578 -233.286068 
L 104.965115 -231.574352 
L 105.001798 -229.862636 
L 105.036391 -228.15092 
L 105.087884 -226.439204 
L 105.170452 -224.727488 
L 105.291553 -223.015772 
L 105.454185 -221.304056 
L 105.658769 -219.59234 
L 105.901666 -217.880624 
L 106.172611 -216.168908 
L 106.456724 -214.457192 
L 106.743817 -212.745476 
L 107.040341 -211.03376 
L 107.374183 -209.322044 
L 107.785681 -207.610328 
L 108.308353 -205.898612 
L 108.951479 -204.186896 
L 109.695729 -202.475181 
L 110.502526 -200.763465 
L 111.328066 -199.051749 
L 112.13371 -197.340033 
L 112.893806 -195.628317 
L 113.607025 -193.916601 
L 114.309434 -192.204885 
L 115.075596 -190.493169 
L 115.994702 -188.781453 
L 117.126893 -187.069737 
L 118.465413 -185.358021 
L 119.932934 -183.646305 
L 121.419896 -181.934589 
L 122.843349 -180.222873 
L 124.188878 -178.511157 
L 125.508905 -176.799441 
L 126.880727 -175.087725 
L 128.35393 -173.376009 
L 129.919722 -171.664293 
L 131.51513 -169.952577 
L 133.051296 -168.240861 
L 134.444289 -166.529145 
L 135.632096 -164.817429 
L 136.574695 -163.105713 
L 137.245293 -161.393997 
L 137.623964 -159.682281 
L 137.7 -157.970566 
L 137.480985 -156.25885 
L 137.000688 -154.547134 
L 136.31785 -152.835418 
L 135.503732 -151.123702 
L 134.624516 -149.411986 
L 133.729196 -147.70027 
L 132.849693 -145.988554 
L 132.009409 -144.276838 
L 131.228484 -142.565122 
L 130.517319 -140.853406 
L 129.86319 -139.14169 
L 129.225043 -137.429974 
L 128.546336 -135.718258 
L 127.777923 -134.006542 
L 126.891141 -132.294826 
L 125.870254 -130.58311 
L 124.69557 -128.871394 
L 123.340107 -127.159678 
L 121.789854 -125.447962 
L 120.072992 -123.736246 
L 118.271777 -122.02453 
L 116.503467 -120.312814 
L 114.880591 -118.601098 
L 113.47444 -116.889382 
L 112.300065 -115.177666 
L 111.32514 -113.46595 
L 110.492979 -111.754235 
L 109.747653 -110.042519 
L 109.052472 -108.330803 
L 108.397041 -106.619087 
L 107.791807 -104.907371 
L 107.253932 -103.195655 
L 106.792741 -101.483939 
L 106.403 -99.772223 
L 106.068772 -98.060507 
L 105.773397 -96.348791 
L 105.507798 -94.637075 
L 105.271918 -92.925359 
L 105.069946 -91.213643 
L 104.904119 -89.501927 
L 104.771692 -87.790211 
L 104.666228 -86.078495 
L 104.581099 -84.366779 
L 104.512072 -82.655063 
L 104.457308 -80.943347 
L 104.41541 -79.231631 
L 104.383593 -77.519915 
L 104.35763 -75.808199 
L 104.333496 -74.096483 
z
" id="m756fa66210" style="stroke:#3f3f3f;stroke-width:1.5;"/>
    </defs>
    <g clip-path="url(#pe43037d89c)">
     <use style="fill:#3274a1;stroke:#3f3f3f;stroke-width:1.5;" x="0" xlink:href="#m756fa66210" y="288"/>
    </g>
   </g>
   <g id="PolyCollection_2">
    <defs>
     <path d="M 338.637331 -45.883636 
L 338.522669 -45.883636 
L 338.525953 -47.817977 
L 338.534345 -49.752317 
L 338.542761 -51.686657 
L 338.544929 -53.620997 
L 338.535114 -55.555338 
L 338.509525 -57.489678 
L 338.46768 -59.424018 
L 338.413478 -61.358358 
L 338.354792 -63.292699 
L 338.300766 -65.227039 
L 338.257929 -67.161379 
L 338.227702 -69.09572 
L 338.206854 -71.03006 
L 338.189778 -72.9644 
L 338.170072 -74.89874 
L 338.140323 -76.833081 
L 338.091543 -78.767421 
L 338.014513 -80.701761 
L 337.903248 -82.636101 
L 337.757705 -84.570442 
L 337.581809 -86.504782 
L 337.375904 -88.439122 
L 337.128099 -90.373462 
L 336.81176 -92.307803 
L 336.392717 -94.242143 
L 335.841604 -96.176483 
L 335.141695 -98.110823 
L 334.286576 -100.045164 
L 333.272497 -101.979504 
L 332.096431 -103.913844 
L 330.764236 -105.848185 
L 329.299022 -107.782525 
L 327.735241 -109.716865 
L 326.098382 -111.651205 
L 324.389471 -113.585546 
L 322.594119 -115.519886 
L 320.713771 -117.454226 
L 318.79479 -119.388566 
L 316.930977 -121.322907 
L 315.235476 -123.257247 
L 313.79905 -125.191587 
L 312.657711 -127.125927 
L 311.78352 -129.060268 
L 311.098584 -130.994608 
L 310.503645 -132.928948 
L 309.910348 -134.863288 
L 309.266376 -136.797629 
L 308.564967 -138.731969 
L 307.836908 -140.666309 
L 307.131262 -142.60065 
L 306.49458 -144.53499 
L 305.957157 -146.46933 
L 305.533123 -148.40367 
L 305.236153 -150.338011 
L 305.1 -152.272351 
L 305.182312 -154.206691 
L 305.539626 -156.141031 
L 306.18982 -158.075372 
L 307.095761 -160.009712 
L 308.18589 -161.944052 
L 309.390661 -163.878392 
L 310.660487 -165.812733 
L 311.95726 -167.747073 
L 313.244435 -169.681413 
L 314.498967 -171.615753 
L 315.73486 -173.550094 
L 317.006102 -175.484434 
L 318.374984 -177.418774 
L 319.868488 -179.353115 
L 321.457636 -181.287455 
L 323.071175 -183.221795 
L 324.626129 -185.156135 
L 326.053312 -187.090476 
L 327.311151 -189.024816 
L 328.391801 -190.959156 
L 329.320779 -192.893496 
L 330.146622 -194.827837 
L 330.921085 -196.762177 
L 331.678658 -198.696517 
L 332.426005 -200.630857 
L 333.145285 -202.565198 
L 333.807847 -204.499538 
L 334.391637 -206.433878 
L 334.894613 -208.368218 
L 335.33672 -210.302559 
L 335.748213 -212.236899 
L 336.151898 -214.171239 
L 336.551755 -216.10558 
L 336.934631 -218.03992 
L 337.281216 -219.97426 
L 337.577379 -221.9086 
L 337.819428 -223.842941 
L 338.012307 -225.777281 
L 338.164043 -227.711621 
L 338.281103 -229.645961 
L 338.367561 -231.580302 
L 338.427379 -233.514642 
L 338.466613 -235.448982 
L 338.493014 -237.383322 
L 338.666986 -237.383322 
L 338.666986 -237.383322 
L 338.693387 -235.448982 
L 338.732621 -233.514642 
L 338.792439 -231.580302 
L 338.878897 -229.645961 
L 338.995957 -227.711621 
L 339.147693 -225.777281 
L 339.340572 -223.842941 
L 339.582621 -221.9086 
L 339.878784 -219.97426 
L 340.225369 -218.03992 
L 340.608245 -216.10558 
L 341.008102 -214.171239 
L 341.411787 -212.236899 
L 341.82328 -210.302559 
L 342.265387 -208.368218 
L 342.768363 -206.433878 
L 343.352153 -204.499538 
L 344.014715 -202.565198 
L 344.733995 -200.630857 
L 345.481342 -198.696517 
L 346.238915 -196.762177 
L 347.013378 -194.827837 
L 347.839221 -192.893496 
L 348.768199 -190.959156 
L 349.848849 -189.024816 
L 351.106688 -187.090476 
L 352.533871 -185.156135 
L 354.088825 -183.221795 
L 355.702364 -181.287455 
L 357.291512 -179.353115 
L 358.785016 -177.418774 
L 360.153898 -175.484434 
L 361.42514 -173.550094 
L 362.661033 -171.615753 
L 363.915565 -169.681413 
L 365.20274 -167.747073 
L 366.499513 -165.812733 
L 367.769339 -163.878392 
L 368.97411 -161.944052 
L 370.064239 -160.009712 
L 370.97018 -158.075372 
L 371.620374 -156.141031 
L 371.977688 -154.206691 
L 372.06 -152.272351 
L 371.923847 -150.338011 
L 371.626877 -148.40367 
L 371.202843 -146.46933 
L 370.66542 -144.53499 
L 370.028738 -142.60065 
L 369.323092 -140.666309 
L 368.595033 -138.731969 
L 367.893624 -136.797629 
L 367.249652 -134.863288 
L 366.656355 -132.928948 
L 366.061416 -130.994608 
L 365.37648 -129.060268 
L 364.502289 -127.125927 
L 363.36095 -125.191587 
L 361.924524 -123.257247 
L 360.229023 -121.322907 
L 358.36521 -119.388566 
L 356.446229 -117.454226 
L 354.565881 -115.519886 
L 352.770529 -113.585546 
L 351.061618 -111.651205 
L 349.424759 -109.716865 
L 347.860978 -107.782525 
L 346.395764 -105.848185 
L 345.063569 -103.913844 
L 343.887503 -101.979504 
L 342.873424 -100.045164 
L 342.018305 -98.110823 
L 341.318396 -96.176483 
L 340.767283 -94.242143 
L 340.34824 -92.307803 
L 340.031901 -90.373462 
L 339.784096 -88.439122 
L 339.578191 -86.504782 
L 339.402295 -84.570442 
L 339.256752 -82.636101 
L 339.145487 -80.701761 
L 339.068457 -78.767421 
L 339.019677 -76.833081 
L 338.989928 -74.89874 
L 338.970222 -72.9644 
L 338.953146 -71.03006 
L 338.932298 -69.09572 
L 338.902071 -67.161379 
L 338.859234 -65.227039 
L 338.805208 -63.292699 
L 338.746522 -61.358358 
L 338.69232 -59.424018 
L 338.650475 -57.489678 
L 338.624886 -55.555338 
L 338.615071 -53.620997 
L 338.617239 -51.686657 
L 338.625655 -49.752317 
L 338.634047 -47.817977 
L 338.637331 -45.883636 
z
" id="mf4663756a1" style="stroke:#3f3f3f;stroke-width:1.5;"/>
    </defs>
    <g clip-path="url(#pe43037d89c)">
     <use style="fill:#e1812c;stroke:#3f3f3f;stroke-width:1.5;" x="0" xlink:href="#mf4663756a1" y="288"/>
    </g>
   </g>
   <g id="patch_3">
    <path clip-path="url(#pe43037d89c)" d="M 137.7 187.379113 
L 137.7 187.379113 
L 137.7 187.379113 
L 137.7 187.379113 
z
" style="fill:#3274a1;stroke:#3f3f3f;stroke-linejoin:miter;stroke-width:0.75;"/>
   </g>
   <g id="patch_4">
    <path clip-path="url(#pe43037d89c)" d="M 137.7 187.379113 
L 137.7 187.379113 
L 137.7 187.379113 
L 137.7 187.379113 
z
" style="fill:#e1812c;stroke:#3f3f3f;stroke-linejoin:miter;stroke-width:0.75;"/>
   </g>
   <g id="matplotlib.axis_1">
    <g id="xtick_1">
     <g id="line2d_1">
      <defs>
       <path d="M 0 0 
L 0 3.5 
" id="m62c2409898" style="stroke:#000000;stroke-width:0.8;"/>
      </defs>
      <g>
       <use style="stroke:#000000;stroke-width:0.8;" x="137.7" xlink:href="#m62c2409898" y="252"/>
      </g>
     </g>
     <g id="text_1">
      <!-- Z_1_ns -->
      <g transform="translate(120.320312 266.320312)scale(0.1 -0.1)">
       <defs>
        <path d="M 5.609375 72.90625 
L 62.890625 72.90625 
L 62.890625 65.375 
L 16.796875 8.296875 
L 64.015625 8.296875 
L 64.015625 0 
L 4.5 0 
L 4.5 7.515625 
L 50.59375 64.59375 
L 5.609375 64.59375 
z
" id="DejaVuSans-90"/>
        <path d="M 50.984375 -16.609375 
L 50.984375 -23.578125 
L -0.984375 -23.578125 
L -0.984375 -16.609375 
z
" id="DejaVuSans-95"/>
        <path d="M 12.40625 8.296875 
L 28.515625 8.296875 
L 28.515625 63.921875 
L 10.984375 60.40625 
L 10.984375 69.390625 
L 28.421875 72.90625 
L 38.28125 72.90625 
L 38.28125 8.296875 
L 54.390625 8.296875 
L 54.390625 0 
L 12.40625 0 
z
" id="DejaVuSans-49"/>
        <path d="M 54.890625 33.015625 
L 54.890625 0 
L 45.90625 0 
L 45.90625 32.71875 
Q 45.90625 40.484375 42.875 44.328125 
Q 39.84375 48.1875 33.796875 48.1875 
Q 26.515625 48.1875 22.3125 43.546875 
Q 18.109375 38.921875 18.109375 30.90625 
L 18.109375 0 
L 9.078125 0 
L 9.078125 54.6875 
L 18.109375 54.6875 
L 18.109375 46.1875 
Q 21.34375 51.125 25.703125 53.5625 
Q 30.078125 56 35.796875 56 
Q 45.21875 56 50.046875 50.171875 
Q 54.890625 44.34375 54.890625 33.015625 
z
" id="DejaVuSans-110"/>
        <path d="M 44.28125 53.078125 
L 44.28125 44.578125 
Q 40.484375 46.53125 36.375 47.5 
Q 32.28125 48.484375 27.875 48.484375 
Q 21.1875 48.484375 17.84375 46.4375 
Q 14.5 44.390625 14.5 40.28125 
Q 14.5 37.15625 16.890625 35.375 
Q 19.28125 33.59375 26.515625 31.984375 
L 29.59375 31.296875 
Q 39.15625 29.25 43.1875 25.515625 
Q 47.21875 21.78125 47.21875 15.09375 
Q 47.21875 7.46875 41.1875 3.015625 
Q 35.15625 -1.421875 24.609375 -1.421875 
Q 20.21875 -1.421875 15.453125 -0.5625 
Q 10.6875 0.296875 5.421875 2 
L 5.421875 11.28125 
Q 10.40625 8.6875 15.234375 7.390625 
Q 20.0625 6.109375 24.8125 6.109375 
Q 31.15625 6.109375 34.5625 8.28125 
Q 37.984375 10.453125 37.984375 14.40625 
Q 37.984375 18.0625 35.515625 20.015625 
Q 33.0625 21.96875 24.703125 23.78125 
L 21.578125 24.515625 
Q 13.234375 26.265625 9.515625 29.90625 
Q 5.8125 33.546875 5.8125 39.890625 
Q 5.8125 47.609375 11.28125 51.796875 
Q 16.75 56 26.8125 56 
Q 31.78125 56 36.171875 55.265625 
Q 40.578125 54.546875 44.28125 53.078125 
z
" id="DejaVuSans-115"/>
       </defs>
       <use xlink:href="#DejaVuSans-90"/>
       <use x="68.505859" xlink:href="#DejaVuSans-95"/>
       <use x="118.505859" xlink:href="#DejaVuSans-49"/>
       <use x="182.128906" xlink:href="#DejaVuSans-95"/>
       <use x="232.128906" xlink:href="#DejaVuSans-110"/>
       <use x="295.507812" xlink:href="#DejaVuSans-115"/>
      </g>
     </g>
    </g>
    <g id="xtick_2">
     <g id="line2d_2">
      <g>
       <use style="stroke:#000000;stroke-width:0.8;" x="305.1" xlink:href="#m62c2409898" y="252"/>
      </g>
     </g>
     <g id="text_2">
      <!-- Z_2_ns -->
      <g transform="translate(287.720313 266.421875)scale(0.1 -0.1)">
       <defs>
        <path d="M 19.1875 8.296875 
L 53.609375 8.296875 
L 53.609375 0 
L 7.328125 0 
L 7.328125 8.296875 
Q 12.9375 14.109375 22.625 23.890625 
Q 32.328125 33.6875 34.8125 36.53125 
Q 39.546875 41.84375 41.421875 45.53125 
Q 43.3125 49.21875 43.3125 52.78125 
Q 43.3125 58.59375 39.234375 62.25 
Q 35.15625 65.921875 28.609375 65.921875 
Q 23.96875 65.921875 18.8125 64.3125 
Q 13.671875 62.703125 7.8125 59.421875 
L 7.8125 69.390625 
Q 13.765625 71.78125 18.9375 73 
Q 24.125 74.21875 28.421875 74.21875 
Q 39.75 74.21875 46.484375 68.546875 
Q 53.21875 62.890625 53.21875 53.421875 
Q 53.21875 48.921875 51.53125 44.890625 
Q 49.859375 40.875 45.40625 35.40625 
Q 44.1875 33.984375 37.640625 27.21875 
Q 31.109375 20.453125 19.1875 8.296875 
z
" id="DejaVuSans-50"/>
       </defs>
       <use xlink:href="#DejaVuSans-90"/>
       <use x="68.505859" xlink:href="#DejaVuSans-95"/>
       <use x="118.505859" xlink:href="#DejaVuSans-50"/>
       <use x="182.128906" xlink:href="#DejaVuSans-95"/>
       <use x="232.128906" xlink:href="#DejaVuSans-110"/>
       <use x="295.507812" xlink:href="#DejaVuSans-115"/>
      </g>
     </g>
    </g>
    <g id="text_3">
     <!-- set -->
     <g transform="translate(213.758594 280.378125)scale(0.1 -0.1)">
      <defs>
       <path d="M 56.203125 29.59375 
L 56.203125 25.203125 
L 14.890625 25.203125 
Q 15.484375 15.921875 20.484375 11.0625 
Q 25.484375 6.203125 34.421875 6.203125 
Q 39.59375 6.203125 44.453125 7.46875 
Q 49.3125 8.734375 54.109375 11.28125 
L 54.109375 2.78125 
Q 49.265625 0.734375 44.1875 -0.34375 
Q 39.109375 -1.421875 33.890625 -1.421875 
Q 20.796875 -1.421875 13.15625 6.1875 
Q 5.515625 13.8125 5.515625 26.8125 
Q 5.515625 40.234375 12.765625 48.109375 
Q 20.015625 56 32.328125 56 
Q 43.359375 56 49.78125 48.890625 
Q 56.203125 41.796875 56.203125 29.59375 
z
M 47.21875 32.234375 
Q 47.125 39.59375 43.09375 43.984375 
Q 39.0625 48.390625 32.421875 48.390625 
Q 24.90625 48.390625 20.390625 44.140625 
Q 15.875 39.890625 15.1875 32.171875 
z
" id="DejaVuSans-101"/>
       <path d="M 18.3125 70.21875 
L 18.3125 54.6875 
L 36.8125 54.6875 
L 36.8125 47.703125 
L 18.3125 47.703125 
L 18.3125 18.015625 
Q 18.3125 11.328125 20.140625 9.421875 
Q 21.96875 7.515625 27.59375 7.515625 
L 36.8125 7.515625 
L 36.8125 0 
L 27.59375 0 
Q 17.1875 0 13.234375 3.875 
Q 9.28125 7.765625 9.28125 18.015625 
L 9.28125 47.703125 
L 2.6875 47.703125 
L 2.6875 54.6875 
L 9.28125 54.6875 
L 9.28125 70.21875 
z
" id="DejaVuSans-116"/>
      </defs>
      <use xlink:href="#DejaVuSans-115"/>
      <use x="52.099609" xlink:href="#DejaVuSans-101"/>
      <use x="113.623047" xlink:href="#DejaVuSans-116"/>
     </g>
    </g>
   </g>
   <g id="matplotlib.axis_2">
    <g id="ytick_1">
     <g id="line2d_3">
      <defs>
       <path d="M 0 0 
L -3.5 0 
" id="m2e2819be45" style="stroke:#000000;stroke-width:0.8;"/>
      </defs>
      <g>
       <use style="stroke:#000000;stroke-width:0.8;" x="54" xlink:href="#m2e2819be45" y="242.686996"/>
      </g>
     </g>
     <g id="text_4">
      <!-- −4 -->
      <g transform="translate(32.257812 246.486215)scale(0.1 -0.1)">
       <defs>
        <path d="M 10.59375 35.5 
L 73.1875 35.5 
L 73.1875 27.203125 
L 10.59375 27.203125 
z
" id="DejaVuSans-8722"/>
        <path d="M 37.796875 64.3125 
L 12.890625 25.390625 
L 37.796875 25.390625 
z
M 35.203125 72.90625 
L 47.609375 72.90625 
L 47.609375 25.390625 
L 58.015625 25.390625 
L 58.015625 17.1875 
L 47.609375 17.1875 
L 47.609375 0 
L 37.796875 0 
L 37.796875 17.1875 
L 4.890625 17.1875 
L 4.890625 26.703125 
z
" id="DejaVuSans-52"/>
       </defs>
       <use xlink:href="#DejaVuSans-8722"/>
       <use x="83.789062" xlink:href="#DejaVuSans-52"/>
      </g>
     </g>
    </g>
    <g id="ytick_2">
     <g id="line2d_4">
      <g>
       <use style="stroke:#000000;stroke-width:0.8;" x="54" xlink:href="#m2e2819be45" y="215.033054"/>
      </g>
     </g>
     <g id="text_5">
      <!-- −2 -->
      <g transform="translate(32.257812 218.832273)scale(0.1 -0.1)">
       <use xlink:href="#DejaVuSans-8722"/>
       <use x="83.789062" xlink:href="#DejaVuSans-50"/>
      </g>
     </g>
    </g>
    <g id="ytick_3">
     <g id="line2d_5">
      <g>
       <use style="stroke:#000000;stroke-width:0.8;" x="54" xlink:href="#m2e2819be45" y="187.379113"/>
      </g>
     </g>
     <g id="text_6">
      <!-- 0 -->
      <g transform="translate(40.6375 191.178331)scale(0.1 -0.1)">
       <defs>
        <path d="M 31.78125 66.40625 
Q 24.171875 66.40625 20.328125 58.90625 
Q 16.5 51.421875 16.5 36.375 
Q 16.5 21.390625 20.328125 13.890625 
Q 24.171875 6.390625 31.78125 6.390625 
Q 39.453125 6.390625 43.28125 13.890625 
Q 47.125 21.390625 47.125 36.375 
Q 47.125 51.421875 43.28125 58.90625 
Q 39.453125 66.40625 31.78125 66.40625 
z
M 31.78125 74.21875 
Q 44.046875 74.21875 50.515625 64.515625 
Q 56.984375 54.828125 56.984375 36.375 
Q 56.984375 17.96875 50.515625 8.265625 
Q 44.046875 -1.421875 31.78125 -1.421875 
Q 19.53125 -1.421875 13.0625 8.265625 
Q 6.59375 17.96875 6.59375 36.375 
Q 6.59375 54.828125 13.0625 64.515625 
Q 19.53125 74.21875 31.78125 74.21875 
z
" id="DejaVuSans-48"/>
       </defs>
       <use xlink:href="#DejaVuSans-48"/>
      </g>
     </g>
    </g>
    <g id="ytick_4">
     <g id="line2d_6">
      <g>
       <use style="stroke:#000000;stroke-width:0.8;" x="54" xlink:href="#m2e2819be45" y="159.725171"/>
      </g>
     </g>
     <g id="text_7">
      <!-- 2 -->
      <g transform="translate(40.6375 163.524389)scale(0.1 -0.1)">
       <use xlink:href="#DejaVuSans-50"/>
      </g>
     </g>
    </g>
    <g id="ytick_5">
     <g id="line2d_7">
      <g>
       <use style="stroke:#000000;stroke-width:0.8;" x="54" xlink:href="#m2e2819be45" y="132.071229"/>
      </g>
     </g>
     <g id="text_8">
      <!-- 4 -->
      <g transform="translate(40.6375 135.870448)scale(0.1 -0.1)">
       <use xlink:href="#DejaVuSans-52"/>
      </g>
     </g>
    </g>
    <g id="ytick_6">
     <g id="line2d_8">
      <g>
       <use style="stroke:#000000;stroke-width:0.8;" x="54" xlink:href="#m2e2819be45" y="104.417287"/>
      </g>
     </g>
     <g id="text_9">
      <!-- 6 -->
      <g transform="translate(40.6375 108.216506)scale(0.1 -0.1)">
       <defs>
        <path d="M 33.015625 40.375 
Q 26.375 40.375 22.484375 35.828125 
Q 18.609375 31.296875 18.609375 23.390625 
Q 18.609375 15.53125 22.484375 10.953125 
Q 26.375 6.390625 33.015625 6.390625 
Q 39.65625 6.390625 43.53125 10.953125 
Q 47.40625 15.53125 47.40625 23.390625 
Q 47.40625 31.296875 43.53125 35.828125 
Q 39.65625 40.375 33.015625 40.375 
z
M 52.59375 71.296875 
L 52.59375 62.3125 
Q 48.875 64.0625 45.09375 64.984375 
Q 41.3125 65.921875 37.59375 65.921875 
Q 27.828125 65.921875 22.671875 59.328125 
Q 17.53125 52.734375 16.796875 39.40625 
Q 19.671875 43.65625 24.015625 45.921875 
Q 28.375 48.1875 33.59375 48.1875 
Q 44.578125 48.1875 50.953125 41.515625 
Q 57.328125 34.859375 57.328125 23.390625 
Q 57.328125 12.15625 50.6875 5.359375 
Q 44.046875 -1.421875 33.015625 -1.421875 
Q 20.359375 -1.421875 13.671875 8.265625 
Q 6.984375 17.96875 6.984375 36.375 
Q 6.984375 53.65625 15.1875 63.9375 
Q 23.390625 74.21875 37.203125 74.21875 
Q 40.921875 74.21875 44.703125 73.484375 
Q 48.484375 72.75 52.59375 71.296875 
z
" id="DejaVuSans-54"/>
       </defs>
       <use xlink:href="#DejaVuSans-54"/>
      </g>
     </g>
    </g>
    <g id="ytick_7">
     <g id="line2d_9">
      <g>
       <use style="stroke:#000000;stroke-width:0.8;" x="54" xlink:href="#m2e2819be45" y="76.763345"/>
      </g>
     </g>
     <g id="text_10">
      <!-- 8 -->
      <g transform="translate(40.6375 80.562564)scale(0.1 -0.1)">
       <defs>
        <path d="M 31.78125 34.625 
Q 24.75 34.625 20.71875 30.859375 
Q 16.703125 27.09375 16.703125 20.515625 
Q 16.703125 13.921875 20.71875 10.15625 
Q 24.75 6.390625 31.78125 6.390625 
Q 38.8125 6.390625 42.859375 10.171875 
Q 46.921875 13.96875 46.921875 20.515625 
Q 46.921875 27.09375 42.890625 30.859375 
Q 38.875 34.625 31.78125 34.625 
z
M 21.921875 38.8125 
Q 15.578125 40.375 12.03125 44.71875 
Q 8.5 49.078125 8.5 55.328125 
Q 8.5 64.0625 14.71875 69.140625 
Q 20.953125 74.21875 31.78125 74.21875 
Q 42.671875 74.21875 48.875 69.140625 
Q 55.078125 64.0625 55.078125 55.328125 
Q 55.078125 49.078125 51.53125 44.71875 
Q 48 40.375 41.703125 38.8125 
Q 48.828125 37.15625 52.796875 32.3125 
Q 56.78125 27.484375 56.78125 20.515625 
Q 56.78125 9.90625 50.3125 4.234375 
Q 43.84375 -1.421875 31.78125 -1.421875 
Q 19.734375 -1.421875 13.25 4.234375 
Q 6.78125 9.90625 6.78125 20.515625 
Q 6.78125 27.484375 10.78125 32.3125 
Q 14.796875 37.15625 21.921875 38.8125 
z
M 18.3125 54.390625 
Q 18.3125 48.734375 21.84375 45.5625 
Q 25.390625 42.390625 31.78125 42.390625 
Q 38.140625 42.390625 41.71875 45.5625 
Q 45.3125 48.734375 45.3125 54.390625 
Q 45.3125 60.0625 41.71875 63.234375 
Q 38.140625 66.40625 31.78125 66.40625 
Q 25.390625 66.40625 21.84375 63.234375 
Q 18.3125 60.0625 18.3125 54.390625 
z
" id="DejaVuSans-56"/>
       </defs>
       <use xlink:href="#DejaVuSans-56"/>
      </g>
     </g>
    </g>
    <g id="ytick_8">
     <g id="line2d_10">
      <g>
       <use style="stroke:#000000;stroke-width:0.8;" x="54" xlink:href="#m2e2819be45" y="49.109403"/>
      </g>
     </g>
     <g id="text_11">
      <!-- 10 -->
      <g transform="translate(34.275 52.908622)scale(0.1 -0.1)">
       <use xlink:href="#DejaVuSans-49"/>
       <use x="63.623047" xlink:href="#DejaVuSans-48"/>
      </g>
     </g>
    </g>
    <g id="text_12">
     <!-- value -->
     <g transform="translate(26.178125 156.937813)rotate(-90)scale(0.1 -0.1)">
      <defs>
       <path d="M 2.984375 54.6875 
L 12.5 54.6875 
L 29.59375 8.796875 
L 46.6875 54.6875 
L 56.203125 54.6875 
L 35.6875 0 
L 23.484375 0 
z
" id="DejaVuSans-118"/>
       <path d="M 34.28125 27.484375 
Q 23.390625 27.484375 19.1875 25 
Q 14.984375 22.515625 14.984375 16.5 
Q 14.984375 11.71875 18.140625 8.90625 
Q 21.296875 6.109375 26.703125 6.109375 
Q 34.1875 6.109375 38.703125 11.40625 
Q 43.21875 16.703125 43.21875 25.484375 
L 43.21875 27.484375 
z
M 52.203125 31.203125 
L 52.203125 0 
L 43.21875 0 
L 43.21875 8.296875 
Q 40.140625 3.328125 35.546875 0.953125 
Q 30.953125 -1.421875 24.3125 -1.421875 
Q 15.921875 -1.421875 10.953125 3.296875 
Q 6 8.015625 6 15.921875 
Q 6 25.140625 12.171875 29.828125 
Q 18.359375 34.515625 30.609375 34.515625 
L 43.21875 34.515625 
L 43.21875 35.40625 
Q 43.21875 41.609375 39.140625 45 
Q 35.0625 48.390625 27.6875 48.390625 
Q 23 48.390625 18.546875 47.265625 
Q 14.109375 46.140625 10.015625 43.890625 
L 10.015625 52.203125 
Q 14.9375 54.109375 19.578125 55.046875 
Q 24.21875 56 28.609375 56 
Q 40.484375 56 46.34375 49.84375 
Q 52.203125 43.703125 52.203125 31.203125 
z
" id="DejaVuSans-97"/>
       <path d="M 9.421875 75.984375 
L 18.40625 75.984375 
L 18.40625 0 
L 9.421875 0 
z
" id="DejaVuSans-108"/>
       <path d="M 8.5 21.578125 
L 8.5 54.6875 
L 17.484375 54.6875 
L 17.484375 21.921875 
Q 17.484375 14.15625 20.5 10.265625 
Q 23.53125 6.390625 29.59375 6.390625 
Q 36.859375 6.390625 41.078125 11.03125 
Q 45.3125 15.671875 45.3125 23.6875 
L 45.3125 54.6875 
L 54.296875 54.6875 
L 54.296875 0 
L 45.3125 0 
L 45.3125 8.40625 
Q 42.046875 3.421875 37.71875 1 
Q 33.40625 -1.421875 27.6875 -1.421875 
Q 18.265625 -1.421875 13.375 4.4375 
Q 8.5 10.296875 8.5 21.578125 
z
M 31.109375 56 
z
" id="DejaVuSans-117"/>
      </defs>
      <use xlink:href="#DejaVuSans-118"/>
      <use x="59.179688" xlink:href="#DejaVuSans-97"/>
      <use x="120.458984" xlink:href="#DejaVuSans-108"/>
      <use x="148.242188" xlink:href="#DejaVuSans-117"/>
      <use x="211.621094" xlink:href="#DejaVuSans-101"/>
     </g>
    </g>
   </g>
   <g id="line2d_11">
    <path clip-path="url(#pe43037d89c)" d="M 104.22 198.748016 
L 104.22 67.974539 
" style="fill:none;stroke:#3f3f3f;stroke-linecap:square;stroke-width:1.5;"/>
   </g>
   <g id="line2d_12">
    <path clip-path="url(#pe43037d89c)" d="M 104.22 149.67744 
L 104.22 116.795402 
" style="fill:none;stroke:#3f3f3f;stroke-linecap:square;stroke-width:4.5;"/>
   </g>
   <g id="line2d_13">
    <path clip-path="url(#pe43037d89c)" d="M 338.58 209.533767 
L 338.58 67.621116 
" style="fill:none;stroke:#3f3f3f;stroke-linecap:square;stroke-width:1.5;"/>
   </g>
   <g id="line2d_14">
    <path clip-path="url(#pe43037d89c)" d="M 338.58 156.144836 
L 338.58 120.263324 
" style="fill:none;stroke:#3f3f3f;stroke-linecap:square;stroke-width:4.5;"/>
   </g>
   <g id="patch_5">
    <path d="M 54 252 
L 54 34.56 
" style="fill:none;stroke:#000000;stroke-linecap:square;stroke-linejoin:miter;stroke-width:0.8;"/>
   </g>
   <g id="patch_6">
    <path d="M 388.8 252 
L 388.8 34.56 
" style="fill:none;stroke:#000000;stroke-linecap:square;stroke-linejoin:miter;stroke-width:0.8;"/>
   </g>
   <g id="patch_7">
    <path d="M 54 252 
L 388.8 252 
" style="fill:none;stroke:#000000;stroke-linecap:square;stroke-linejoin:miter;stroke-width:0.8;"/>
   </g>
   <g id="patch_8">
    <path d="M 54 34.56 
L 388.8 34.56 
" style="fill:none;stroke:#000000;stroke-linecap:square;stroke-linejoin:miter;stroke-width:0.8;"/>
   </g>
   <g id="PathCollection_1">
    <defs>
     <path d="M 0 1.5 
C 0.397805 1.5 0.77937 1.341951 1.06066 1.06066 
C 1.341951 0.77937 1.5 0.397805 1.5 0 
C 1.5 -0.397805 1.341951 -0.77937 1.06066 -1.06066 
C 0.77937 -1.341951 0.397805 -1.5 0 -1.5 
C -0.397805 -1.5 -0.77937 -1.341951 -1.06066 -1.06066 
C -1.341951 -0.77937 -1.5 -0.397805 -1.5 0 
C -1.5 0.397805 -1.341951 0.77937 -1.06066 1.06066 
C -0.77937 1.341951 -0.397805 1.5 0 1.5 
z
" id="mcc37ca2904" style="stroke:#3f3f3f;"/>
    </defs>
    <g clip-path="url(#pe43037d89c)">
     <use style="fill:#ffffff;stroke:#3f3f3f;" x="104.22" xlink:href="#mcc37ca2904" y="132.276479"/>
    </g>
   </g>
   <g id="PathCollection_2">
    <g clip-path="url(#pe43037d89c)">
     <use style="fill:#ffffff;stroke:#3f3f3f;" x="338.58" xlink:href="#mcc37ca2904" y="137.732155"/>
    </g>
   </g>
   <g id="legend_1">
    <g id="patch_9">
     <path d="M 61 247 
L 127.759375 247 
Q 129.759375 247 129.759375 245 
L 129.759375 201.409375 
Q 129.759375 199.409375 127.759375 199.409375 
L 61 199.409375 
Q 59 199.409375 59 201.409375 
L 59 245 
Q 59 247 61 247 
z
" style="fill:#ffffff;opacity:0.8;stroke:#cccccc;stroke-linejoin:miter;"/>
    </g>
    <g id="text_13">
     <!-- set -->
     <g transform="translate(86.738281 211.007812)scale(0.1 -0.1)">
      <use xlink:href="#DejaVuSans-115"/>
      <use x="52.099609" xlink:href="#DejaVuSans-101"/>
      <use x="113.623047" xlink:href="#DejaVuSans-116"/>
     </g>
    </g>
    <g id="patch_10">
     <path d="M 63 225.685937 
L 83 225.685937 
L 83 218.685937 
L 63 218.685937 
z
" style="fill:#3274a1;stroke:#3f3f3f;stroke-linejoin:miter;stroke-width:0.75;"/>
    </g>
    <g id="text_14">
     <!-- Z_1_ns -->
     <g transform="translate(91 225.685937)scale(0.1 -0.1)">
      <use xlink:href="#DejaVuSans-90"/>
      <use x="68.505859" xlink:href="#DejaVuSans-95"/>
      <use x="118.505859" xlink:href="#DejaVuSans-49"/>
      <use x="182.128906" xlink:href="#DejaVuSans-95"/>
      <use x="232.128906" xlink:href="#DejaVuSans-110"/>
      <use x="295.507812" xlink:href="#DejaVuSans-115"/>
     </g>
    </g>
    <g id="patch_11">
     <path d="M 63 240.642188 
L 83 240.642188 
L 83 233.642188 
L 63 233.642188 
z
" style="fill:#e1812c;stroke:#3f3f3f;stroke-linejoin:miter;stroke-width:0.75;"/>
    </g>
    <g id="text_15">
     <!-- Z_2_ns -->
     <g transform="translate(91 240.642188)scale(0.1 -0.1)">
      <use xlink:href="#DejaVuSans-90"/>
      <use x="68.505859" xlink:href="#DejaVuSans-95"/>
      <use x="118.505859" xlink:href="#DejaVuSans-50"/>
      <use x="182.128906" xlink:href="#DejaVuSans-95"/>
      <use x="232.128906" xlink:href="#DejaVuSans-110"/>
      <use x="295.507812" xlink:href="#DejaVuSans-115"/>
     </g>
    </g>
   </g>
  </g>
 </g>
 <defs>
  <clipPath id="pe43037d89c">
   <rect height="217.44" width="334.8" x="54" y="34.56"/>
  </clipPath>
 </defs>
</svg>
