<?xml version="1.0" encoding="utf-8" standalone="no"?>
<!DOCTYPE svg PUBLIC "-//W3C//DTD SVG 1.1//EN"
  "http://www.w3.org/Graphics/SVG/1.1/DTD/svg11.dtd">
<!-- Created with matplotlib (https://matplotlib.org/) -->
<svg height="288pt" version="1.1" viewBox="0 0 432 288" width="432pt" xmlns="http://www.w3.org/2000/svg" xmlns:xlink="http://www.w3.org/1999/xlink">
 <metadata>
  <rdf:RDF xmlns:cc="http://creativecommons.org/ns#" xmlns:dc="http://purl.org/dc/elements/1.1/" xmlns:rdf="http://www.w3.org/1999/02/22-rdf-syntax-ns#">
   <cc:Work>
    <dc:type rdf:resource="http://purl.org/dc/dcmitype/StillImage"/>
    <dc:date>2021-07-13T18:56:58.521257</dc:date>
    <dc:format>image/svg+xml</dc:format>
    <dc:creator>
     <cc:Agent>
      <dc:title>Matplotlib v3.3.4, https://matplotlib.org/</dc:title>
     </cc:Agent>
    </dc:creator>
   </cc:Work>
  </rdf:RDF>
 </metadata>
 <defs>
  <style type="text/css">*{stroke-linecap:butt;stroke-linejoin:round;}</style>
 </defs>
 <g id="figure_1">
  <g id="patch_1">
   <path d="M 0 288 
L 432 288 
L 432 0 
L 0 0 
z
" style="fill:#ffffff;"/>
  </g>
  <g id="axes_1">
   <g id="patch_2">
    <path d="M 54 252 
L 388.8 252 
L 388.8 34.56 
L 54 34.56 
z
" style="fill:#ffffff;"/>
   </g>
   <g id="PolyCollection_1">
    <defs>
     <path d="M 80.049483 -45.883636 
L 80.030517 -45.883636 
L 80.03748 -47.299243 
L 80.039953 -48.71485 
L 80.04 -50.130457 
L 80.04 -51.546064 
L 80.04 -52.961671 
L 80.04 -54.377278 
L 80.04 -55.792884 
L 80.04 -57.208491 
L 80.04 -58.624098 
L 80.04 -60.039705 
L 80.04 -61.455312 
L 80.04 -62.870919 
L 80.04 -64.286526 
L 80.04 -65.702132 
L 80.04 -67.117739 
L 80.04 -68.533346 
L 80.04 -69.948953 
L 80.04 -71.36456 
L 80.04 -72.780167 
L 80.04 -74.195774 
L 80.04 -75.61138 
L 80.04 -77.026987 
L 80.04 -78.442594 
L 80.04 -79.858201 
L 80.04 -81.273808 
L 80.04 -82.689415 
L 80.04 -84.105022 
L 80.04 -85.520628 
L 80.04 -86.936235 
L 80.04 -88.351842 
L 80.04 -89.767449 
L 80.039997 -91.183056 
L 80.039486 -92.598663 
L 80.03304 -94.01427 
L 80.033344 -95.429876 
L 80.03955 -96.845483 
L 80.039998 -98.26109 
L 80.04 -99.676697 
L 80.04 -101.092304 
L 80.04 -102.507911 
L 80.04 -103.923518 
L 80.04 -105.339124 
L 80.039965 -106.754731 
L 80.037826 -108.170338 
L 80.029791 -109.585945 
L 80.029253 -111.001552 
L 80.03425 -112.417159 
L 80.039704 -113.832766 
L 80.039284 -115.248372 
L 80.032275 -116.663979 
L 80.03212 -118.079586 
L 80.026342 -119.495193 
L 80.027713 -120.9108 
L 80.038475 -122.326407 
L 80.039928 -123.742014 
L 80.037269 -125.15762 
L 80.030529 -126.573227 
L 80.037585 -127.988834 
L 80.035543 -129.404441 
L 80.020137 -130.820048 
L 80.018284 -132.235655 
L 80.027709 -133.651262 
L 80.031148 -135.066868 
L 80.034455 -136.482475 
L 80.036543 -137.898082 
L 80.015461 -139.313689 
L 80.01003 -140.729296 
L 80.021198 -142.144903 
L 80.02765 -143.56051 
L 80.019548 -144.976116 
L 79.992461 -146.391723 
L 79.969689 -147.80733 
L 79.874961 -149.222937 
L 79.538342 -150.638544 
L 76.453804 -152.054151 
L 65.16 -153.469758 
L 66.495805 -154.885364 
L 74.721582 -156.300971 
L 77.879328 -157.716578 
L 78.890979 -159.132185 
L 79.225079 -160.547792 
L 79.438259 -161.963399 
L 79.664791 -163.379006 
L 79.790092 -164.794612 
L 79.801448 -166.210219 
L 79.866911 -167.625826 
L 79.942224 -169.041433 
L 79.975065 -170.45704 
L 79.993691 -171.872647 
L 79.999882 -173.288254 
L 80.011689 -174.703861 
L 80.007266 -176.119467 
L 79.997733 -177.535074 
L 80.008976 -178.950681 
L 80.02479 -180.366288 
L 80.024066 -181.781895 
L 80.036053 -183.197502 
L 80.037385 -184.613109 
L 80.030517 -186.028715 
L 80.049483 -186.028715 
L 80.049483 -186.028715 
L 80.042615 -184.613109 
L 80.043947 -183.197502 
L 80.055934 -181.781895 
L 80.05521 -180.366288 
L 80.071024 -178.950681 
L 80.082267 -177.535074 
L 80.072734 -176.119467 
L 80.068311 -174.703861 
L 80.080118 -173.288254 
L 80.086309 -171.872647 
L 80.104935 -170.45704 
L 80.137776 -169.041433 
L 80.213089 -167.625826 
L 80.278552 -166.210219 
L 80.289908 -164.794612 
L 80.415209 -163.379006 
L 80.641741 -161.963399 
L 80.854921 -160.547792 
L 81.189021 -159.132185 
L 82.200672 -157.716578 
L 85.358418 -156.300971 
L 93.584195 -154.885364 
L 94.92 -153.469758 
L 83.626196 -152.054151 
L 80.541658 -150.638544 
L 80.205039 -149.222937 
L 80.110311 -147.80733 
L 80.087539 -146.391723 
L 80.060452 -144.976116 
L 80.05235 -143.56051 
L 80.058802 -142.144903 
L 80.06997 -140.729296 
L 80.064539 -139.313689 
L 80.043457 -137.898082 
L 80.045545 -136.482475 
L 80.048852 -135.066868 
L 80.052291 -133.651262 
L 80.061716 -132.235655 
L 80.059863 -130.820048 
L 80.044457 -129.404441 
L 80.042415 -127.988834 
L 80.049471 -126.573227 
L 80.042731 -125.15762 
L 80.040072 -123.742014 
L 80.041525 -122.326407 
L 80.052287 -120.9108 
L 80.053658 -119.495193 
L 80.04788 -118.079586 
L 80.047725 -116.663979 
L 80.040716 -115.248372 
L 80.040296 -113.832766 
L 80.04575 -112.417159 
L 80.050747 -111.001552 
L 80.050209 -109.585945 
L 80.042174 -108.170338 
L 80.040035 -106.754731 
L 80.04 -105.339124 
L 80.04 -103.923518 
L 80.04 -102.507911 
L 80.04 -101.092304 
L 80.04 -99.676697 
L 80.040002 -98.26109 
L 80.04045 -96.845483 
L 80.046656 -95.429876 
L 80.04696 -94.01427 
L 80.040514 -92.598663 
L 80.040003 -91.183056 
L 80.04 -89.767449 
L 80.04 -88.351842 
L 80.04 -86.936235 
L 80.04 -85.520628 
L 80.04 -84.105022 
L 80.04 -82.689415 
L 80.04 -81.273808 
L 80.04 -79.858201 
L 80.04 -78.442594 
L 80.04 -77.026987 
L 80.04 -75.61138 
L 80.04 -74.195774 
L 80.04 -72.780167 
L 80.04 -71.36456 
L 80.04 -69.948953 
L 80.04 -68.533346 
L 80.04 -67.117739 
L 80.04 -65.702132 
L 80.04 -64.286526 
L 80.04 -62.870919 
L 80.04 -61.455312 
L 80.04 -60.039705 
L 80.04 -58.624098 
L 80.04 -57.208491 
L 80.04 -55.792884 
L 80.04 -54.377278 
L 80.04 -52.961671 
L 80.04 -51.546064 
L 80.04 -50.130457 
L 80.040047 -48.71485 
L 80.04252 -47.299243 
L 80.049483 -45.883636 
z
" id="m12c654c60e" style="stroke:#3d3d3d;stroke-width:1.5;"/>
    </defs>
    <g clip-path="url(#pafd11fb6c6)">
     <use style="fill:#3274a1;stroke:#3d3d3d;stroke-width:1.5;" x="0" xlink:href="#m12c654c60e" y="288"/>
    </g>
   </g>
   <g id="PolyCollection_2">
    <defs>
     <path d="M 221.415941 -133.668625 
L 221.384059 -133.668625 
L 221.385718 -134.778602 
L 221.392029 -135.888579 
L 221.397214 -136.998556 
L 221.399237 -138.108534 
L 221.398972 -139.218511 
L 221.396564 -140.328488 
L 221.391948 -141.438465 
L 221.387129 -142.548442 
L 221.384704 -143.658419 
L 221.38283 -144.768396 
L 221.371185 -145.878374 
L 221.327838 -146.988351 
L 221.195938 -148.098328 
L 220.760498 -149.208305 
L 219.367005 -150.318282 
L 215.987114 -151.428259 
L 210.73975 -152.538237 
L 206.52 -153.648214 
L 206.534136 -154.758191 
L 210.149565 -155.868168 
L 214.202939 -156.978145 
L 216.897764 -158.088122 
L 218.322654 -159.1981 
L 219.091947 -160.308077 
L 219.612048 -161.418054 
L 220.013942 -162.528031 
L 220.31712 -163.638008 
L 220.525117 -164.747985 
L 220.641823 -165.857962 
L 220.707394 -166.96794 
L 220.774096 -168.077917 
L 220.850584 -169.187894 
L 220.920802 -170.297871 
L 220.976972 -171.407848 
L 221.021326 -172.517825 
L 221.055704 -173.627803 
L 221.083327 -174.73778 
L 221.113181 -175.847757 
L 221.146736 -176.957734 
L 221.178739 -178.067711 
L 221.206007 -179.177688 
L 221.225747 -180.287666 
L 221.237071 -181.397643 
L 221.2407 -182.50762 
L 221.239395 -183.617597 
L 221.243001 -184.727574 
L 221.259145 -185.837551 
L 221.281632 -186.947529 
L 221.299324 -188.057506 
L 221.30719 -189.167483 
L 221.309725 -190.27746 
L 221.316907 -191.387437 
L 221.331278 -192.497414 
L 221.3451 -193.607391 
L 221.35218 -194.717369 
L 221.353744 -195.827346 
L 221.356124 -196.937323 
L 221.363161 -198.0473 
L 221.36831 -199.157277 
L 221.366419 -200.267254 
L 221.364862 -201.377232 
L 221.368102 -202.487209 
L 221.369094 -203.597186 
L 221.365056 -204.707163 
L 221.36252 -205.81714 
L 221.366643 -206.927117 
L 221.376729 -208.037095 
L 221.387727 -209.147072 
L 221.394138 -210.257049 
L 221.39453 -211.367026 
L 221.392241 -212.477003 
L 221.391905 -213.58698 
L 221.39401 -214.696957 
L 221.394758 -215.806935 
L 221.392116 -216.916912 
L 221.387851 -218.026889 
L 221.383468 -219.136866 
L 221.379587 -220.246843 
L 221.378748 -221.35682 
L 221.382456 -222.466798 
L 221.388744 -223.576775 
L 221.394294 -224.686752 
L 221.396381 -225.796729 
L 221.394659 -226.906706 
L 221.392072 -228.016683 
L 221.392373 -229.126661 
L 221.395486 -230.236638 
L 221.398363 -231.346615 
L 221.399637 -232.456592 
L 221.399951 -233.566569 
L 221.399996 -234.676546 
L 221.399999 -235.786524 
L 221.399993 -236.896501 
L 221.399912 -238.006478 
L 221.399295 -239.116455 
L 221.396495 -240.226432 
L 221.389199 -241.336409 
L 221.379385 -242.446386 
L 221.375643 -243.556364 
L 221.424357 -243.556364 
L 221.424357 -243.556364 
L 221.420615 -242.446386 
L 221.410801 -241.336409 
L 221.403505 -240.226432 
L 221.400705 -239.116455 
L 221.400088 -238.006478 
L 221.400007 -236.896501 
L 221.400001 -235.786524 
L 221.400004 -234.676546 
L 221.400049 -233.566569 
L 221.400363 -232.456592 
L 221.401637 -231.346615 
L 221.404514 -230.236638 
L 221.407627 -229.126661 
L 221.407928 -228.016683 
L 221.405341 -226.906706 
L 221.403619 -225.796729 
L 221.405706 -224.686752 
L 221.411256 -223.576775 
L 221.417544 -222.466798 
L 221.421252 -221.35682 
L 221.420413 -220.246843 
L 221.416532 -219.136866 
L 221.412149 -218.026889 
L 221.407884 -216.916912 
L 221.405242 -215.806935 
L 221.40599 -214.696957 
L 221.408095 -213.58698 
L 221.407759 -212.477003 
L 221.40547 -211.367026 
L 221.405862 -210.257049 
L 221.412273 -209.147072 
L 221.423271 -208.037095 
L 221.433357 -206.927117 
L 221.43748 -205.81714 
L 221.434944 -204.707163 
L 221.430906 -203.597186 
L 221.431898 -202.487209 
L 221.435138 -201.377232 
L 221.433581 -200.267254 
L 221.43169 -199.157277 
L 221.436839 -198.0473 
L 221.443876 -196.937323 
L 221.446256 -195.827346 
L 221.44782 -194.717369 
L 221.4549 -193.607391 
L 221.468722 -192.497414 
L 221.483093 -191.387437 
L 221.490275 -190.27746 
L 221.49281 -189.167483 
L 221.500676 -188.057506 
L 221.518368 -186.947529 
L 221.540855 -185.837551 
L 221.556999 -184.727574 
L 221.560605 -183.617597 
L 221.5593 -182.50762 
L 221.562929 -181.397643 
L 221.574253 -180.287666 
L 221.593993 -179.177688 
L 221.621261 -178.067711 
L 221.653264 -176.957734 
L 221.686819 -175.847757 
L 221.716673 -174.73778 
L 221.744296 -173.627803 
L 221.778674 -172.517825 
L 221.823028 -171.407848 
L 221.879198 -170.297871 
L 221.949416 -169.187894 
L 222.025904 -168.077917 
L 222.092606 -166.96794 
L 222.158177 -165.857962 
L 222.274883 -164.747985 
L 222.48288 -163.638008 
L 222.786058 -162.528031 
L 223.187952 -161.418054 
L 223.708053 -160.308077 
L 224.477346 -159.1981 
L 225.902236 -158.088122 
L 228.597061 -156.978145 
L 232.650435 -155.868168 
L 236.265864 -154.758191 
L 236.28 -153.648214 
L 232.06025 -152.538237 
L 226.812886 -151.428259 
L 223.432995 -150.318282 
L 222.039502 -149.208305 
L 221.604062 -148.098328 
L 221.472162 -146.988351 
L 221.428815 -145.878374 
L 221.41717 -144.768396 
L 221.415296 -143.658419 
L 221.412871 -142.548442 
L 221.408052 -141.438465 
L 221.403436 -140.328488 
L 221.401028 -139.218511 
L 221.400763 -138.108534 
L 221.402786 -136.998556 
L 221.407971 -135.888579 
L 221.414282 -134.778602 
L 221.415941 -133.668625 
z
" id="me31ad2a3bb" style="stroke:#3d3d3d;stroke-width:1.5;"/>
    </defs>
    <g clip-path="url(#pafd11fb6c6)">
     <use style="fill:#e1812c;stroke:#3d3d3d;stroke-width:1.5;" x="0" xlink:href="#me31ad2a3bb" y="288"/>
    </g>
   </g>
   <g id="PolyCollection_3">
    <defs>
     <path d="M 362.770442 -136.438373 
L 362.749558 -136.438373 
L 362.751931 -137.010002 
L 362.756277 -137.581632 
L 362.758974 -138.153261 
L 362.759818 -138.724891 
L 362.759843 -139.29652 
L 362.759099 -139.86815 
L 362.756522 -140.439779 
L 362.751692 -141.011409 
L 362.74696 -141.583038 
L 362.744892 -142.154668 
L 362.745754 -142.726297 
L 362.749557 -143.297927 
L 362.754612 -143.869556 
L 362.757272 -144.441186 
L 362.755127 -145.012815 
L 362.747289 -145.584445 
L 362.735491 -146.156074 
L 362.724132 -146.727704 
L 362.714407 -147.299333 
L 362.703777 -147.870963 
L 362.694032 -148.442592 
L 362.682225 -149.014222 
L 362.649654 -149.585851 
L 362.577035 -150.157481 
L 362.419738 -150.72911 
L 361.986793 -151.30074 
L 360.791329 -151.872369 
L 358.130836 -152.443999 
L 353.8979 -153.015628 
L 349.678509 -153.587257 
L 347.88 -154.158887 
L 349.12503 -154.730516 
L 351.902244 -155.302146 
L 354.638088 -155.873775 
L 356.731344 -156.445405 
L 358.158126 -157.017034 
L 359.109265 -157.588664 
L 359.820542 -158.160293 
L 360.401791 -158.731923 
L 360.853614 -159.303552 
L 361.185392 -159.875182 
L 361.43888 -160.446811 
L 361.641474 -161.018441 
L 361.784727 -161.59007 
L 361.869305 -162.1617 
L 361.943547 -162.733329 
L 362.057012 -163.304959 
L 362.202212 -163.876588 
L 362.335517 -164.448218 
L 362.431776 -165.019847 
L 362.497584 -165.591477 
L 362.542738 -166.163106 
L 362.5605 -166.734736 
L 362.551301 -167.306365 
L 362.545212 -167.877995 
L 362.567673 -168.449624 
L 362.603523 -169.021254 
L 362.630259 -169.592883 
L 362.646667 -170.164513 
L 362.654426 -170.736142 
L 362.652615 -171.307772 
L 362.648596 -171.879401 
L 362.656307 -172.45103 
L 362.67917 -173.02266 
L 362.703797 -173.594289 
L 362.714232 -174.165919 
L 362.705297 -174.737548 
L 362.687265 -175.309178 
L 362.680083 -175.880807 
L 362.690766 -176.452437 
L 362.707408 -177.024066 
L 362.718743 -177.595696 
L 362.722223 -178.167325 
L 362.721401 -178.738955 
L 362.722645 -179.310584 
L 362.72743 -179.882214 
L 362.729998 -180.453843 
L 362.727538 -181.025473 
L 362.726334 -181.597102 
L 362.730655 -182.168732 
L 362.736374 -182.740361 
L 362.737795 -183.311991 
L 362.733204 -183.88362 
L 362.72806 -184.45525 
L 362.729318 -185.026879 
L 362.736522 -185.598509 
L 362.745453 -186.170138 
L 362.753131 -186.741768 
L 362.757396 -187.313397 
L 362.757528 -187.885027 
L 362.754187 -188.456656 
L 362.750238 -189.028286 
L 362.749958 -189.599915 
L 362.752658 -190.171544 
L 362.751976 -190.743174 
L 362.744483 -191.314803 
L 362.735654 -191.886433 
L 362.733925 -192.458062 
L 362.740145 -193.029692 
L 362.779855 -193.029692 
L 362.779855 -193.029692 
L 362.786075 -192.458062 
L 362.784346 -191.886433 
L 362.775517 -191.314803 
L 362.768024 -190.743174 
L 362.767342 -190.171544 
L 362.770042 -189.599915 
L 362.769762 -189.028286 
L 362.765813 -188.456656 
L 362.762472 -187.885027 
L 362.762604 -187.313397 
L 362.766869 -186.741768 
L 362.774547 -186.170138 
L 362.783478 -185.598509 
L 362.790682 -185.026879 
L 362.79194 -184.45525 
L 362.786796 -183.88362 
L 362.782205 -183.311991 
L 362.783626 -182.740361 
L 362.789345 -182.168732 
L 362.793666 -181.597102 
L 362.792462 -181.025473 
L 362.790002 -180.453843 
L 362.79257 -179.882214 
L 362.797355 -179.310584 
L 362.798599 -178.738955 
L 362.797777 -178.167325 
L 362.801257 -177.595696 
L 362.812592 -177.024066 
L 362.829234 -176.452437 
L 362.839917 -175.880807 
L 362.832735 -175.309178 
L 362.814703 -174.737548 
L 362.805768 -174.165919 
L 362.816203 -173.594289 
L 362.84083 -173.02266 
L 362.863693 -172.45103 
L 362.871404 -171.879401 
L 362.867385 -171.307772 
L 362.865574 -170.736142 
L 362.873333 -170.164513 
L 362.889741 -169.592883 
L 362.916477 -169.021254 
L 362.952327 -168.449624 
L 362.974788 -167.877995 
L 362.968699 -167.306365 
L 362.9595 -166.734736 
L 362.977262 -166.163106 
L 363.022416 -165.591477 
L 363.088224 -165.019847 
L 363.184483 -164.448218 
L 363.317788 -163.876588 
L 363.462988 -163.304959 
L 363.576453 -162.733329 
L 363.650695 -162.1617 
L 363.735273 -161.59007 
L 363.878526 -161.018441 
L 364.08112 -160.446811 
L 364.334608 -159.875182 
L 364.666386 -159.303552 
L 365.118209 -158.731923 
L 365.699458 -158.160293 
L 366.410735 -157.588664 
L 367.361874 -157.017034 
L 368.788656 -156.445405 
L 370.881912 -155.873775 
L 373.617756 -155.302146 
L 376.39497 -154.730516 
L 377.64 -154.158887 
L 375.841491 -153.587257 
L 371.6221 -153.015628 
L 367.389164 -152.443999 
L 364.728671 -151.872369 
L 363.533207 -151.30074 
L 363.100262 -150.72911 
L 362.942965 -150.157481 
L 362.870346 -149.585851 
L 362.837775 -149.014222 
L 362.825968 -148.442592 
L 362.816223 -147.870963 
L 362.805593 -147.299333 
L 362.795868 -146.727704 
L 362.784509 -146.156074 
L 362.772711 -145.584445 
L 362.764873 -145.012815 
L 362.762728 -144.441186 
L 362.765388 -143.869556 
L 362.770443 -143.297927 
L 362.774246 -142.726297 
L 362.775108 -142.154668 
L 362.77304 -141.583038 
L 362.768308 -141.011409 
L 362.763478 -140.439779 
L 362.760901 -139.86815 
L 362.760157 -139.29652 
L 362.760182 -138.724891 
L 362.761026 -138.153261 
L 362.763723 -137.581632 
L 362.768069 -137.010002 
L 362.770442 -136.438373 
z
" id="mfc27f6edff" style="stroke:#3d3d3d;stroke-width:1.5;"/>
    </defs>
    <g clip-path="url(#pafd11fb6c6)">
     <use style="fill:#3a923a;stroke:#3d3d3d;stroke-width:1.5;" x="0" xlink:href="#mfc27f6edff" y="288"/>
    </g>
   </g>
   <g id="patch_3">
    <path clip-path="url(#pafd11fb6c6)" d="M 109.8 134.412927 
L 109.8 134.412927 
L 109.8 134.412927 
L 109.8 134.412927 
z
" style="fill:#3274a1;stroke:#3d3d3d;stroke-linejoin:miter;stroke-width:0.75;"/>
   </g>
   <g id="patch_4">
    <path clip-path="url(#pafd11fb6c6)" d="M 109.8 134.412927 
L 109.8 134.412927 
L 109.8 134.412927 
L 109.8 134.412927 
z
" style="fill:#e1812c;stroke:#3d3d3d;stroke-linejoin:miter;stroke-width:0.75;"/>
   </g>
   <g id="patch_5">
    <path clip-path="url(#pafd11fb6c6)" d="M 109.8 134.412927 
L 109.8 134.412927 
L 109.8 134.412927 
L 109.8 134.412927 
z
" style="fill:#3a923a;stroke:#3d3d3d;stroke-linejoin:miter;stroke-width:0.75;"/>
   </g>
   <g id="matplotlib.axis_1">
    <g id="xtick_1">
     <g id="line2d_1">
      <defs>
       <path d="M 0 0 
L 0 3.5 
" id="m2110351b57" style="stroke:#000000;stroke-width:0.8;"/>
      </defs>
      <g>
       <use style="stroke:#000000;stroke-width:0.8;" x="109.8" xlink:href="#m2110351b57" y="252"/>
      </g>
     </g>
     <g id="text_1">
      <!-- Z_1_ns -->
      <g transform="translate(92.420312 266.320312)scale(0.1 -0.1)">
       <defs>
        <path d="M 5.609375 72.90625 
L 62.890625 72.90625 
L 62.890625 65.375 
L 16.796875 8.296875 
L 64.015625 8.296875 
L 64.015625 0 
L 4.5 0 
L 4.5 7.515625 
L 50.59375 64.59375 
L 5.609375 64.59375 
z
" id="DejaVuSans-90"/>
        <path d="M 50.984375 -16.609375 
L 50.984375 -23.578125 
L -0.984375 -23.578125 
L -0.984375 -16.609375 
z
" id="DejaVuSans-95"/>
        <path d="M 12.40625 8.296875 
L 28.515625 8.296875 
L 28.515625 63.921875 
L 10.984375 60.40625 
L 10.984375 69.390625 
L 28.421875 72.90625 
L 38.28125 72.90625 
L 38.28125 8.296875 
L 54.390625 8.296875 
L 54.390625 0 
L 12.40625 0 
z
" id="DejaVuSans-49"/>
        <path d="M 54.890625 33.015625 
L 54.890625 0 
L 45.90625 0 
L 45.90625 32.71875 
Q 45.90625 40.484375 42.875 44.328125 
Q 39.84375 48.1875 33.796875 48.1875 
Q 26.515625 48.1875 22.3125 43.546875 
Q 18.109375 38.921875 18.109375 30.90625 
L 18.109375 0 
L 9.078125 0 
L 9.078125 54.6875 
L 18.109375 54.6875 
L 18.109375 46.1875 
Q 21.34375 51.125 25.703125 53.5625 
Q 30.078125 56 35.796875 56 
Q 45.21875 56 50.046875 50.171875 
Q 54.890625 44.34375 54.890625 33.015625 
z
" id="DejaVuSans-110"/>
        <path d="M 44.28125 53.078125 
L 44.28125 44.578125 
Q 40.484375 46.53125 36.375 47.5 
Q 32.28125 48.484375 27.875 48.484375 
Q 21.1875 48.484375 17.84375 46.4375 
Q 14.5 44.390625 14.5 40.28125 
Q 14.5 37.15625 16.890625 35.375 
Q 19.28125 33.59375 26.515625 31.984375 
L 29.59375 31.296875 
Q 39.15625 29.25 43.1875 25.515625 
Q 47.21875 21.78125 47.21875 15.09375 
Q 47.21875 7.46875 41.1875 3.015625 
Q 35.15625 -1.421875 24.609375 -1.421875 
Q 20.21875 -1.421875 15.453125 -0.5625 
Q 10.6875 0.296875 5.421875 2 
L 5.421875 11.28125 
Q 10.40625 8.6875 15.234375 7.390625 
Q 20.0625 6.109375 24.8125 6.109375 
Q 31.15625 6.109375 34.5625 8.28125 
Q 37.984375 10.453125 37.984375 14.40625 
Q 37.984375 18.0625 35.515625 20.015625 
Q 33.0625 21.96875 24.703125 23.78125 
L 21.578125 24.515625 
Q 13.234375 26.265625 9.515625 29.90625 
Q 5.8125 33.546875 5.8125 39.890625 
Q 5.8125 47.609375 11.28125 51.796875 
Q 16.75 56 26.8125 56 
Q 31.78125 56 36.171875 55.265625 
Q 40.578125 54.546875 44.28125 53.078125 
z
" id="DejaVuSans-115"/>
       </defs>
       <use xlink:href="#DejaVuSans-90"/>
       <use x="68.505859" xlink:href="#DejaVuSans-95"/>
       <use x="118.505859" xlink:href="#DejaVuSans-49"/>
       <use x="182.128906" xlink:href="#DejaVuSans-95"/>
       <use x="232.128906" xlink:href="#DejaVuSans-110"/>
       <use x="295.507812" xlink:href="#DejaVuSans-115"/>
      </g>
     </g>
    </g>
    <g id="xtick_2">
     <g id="line2d_2">
      <g>
       <use style="stroke:#000000;stroke-width:0.8;" x="221.4" xlink:href="#m2110351b57" y="252"/>
      </g>
     </g>
     <g id="text_2">
      <!-- Z_2_ns -->
      <g transform="translate(204.020312 266.421875)scale(0.1 -0.1)">
       <defs>
        <path d="M 19.1875 8.296875 
L 53.609375 8.296875 
L 53.609375 0 
L 7.328125 0 
L 7.328125 8.296875 
Q 12.9375 14.109375 22.625 23.890625 
Q 32.328125 33.6875 34.8125 36.53125 
Q 39.546875 41.84375 41.421875 45.53125 
Q 43.3125 49.21875 43.3125 52.78125 
Q 43.3125 58.59375 39.234375 62.25 
Q 35.15625 65.921875 28.609375 65.921875 
Q 23.96875 65.921875 18.8125 64.3125 
Q 13.671875 62.703125 7.8125 59.421875 
L 7.8125 69.390625 
Q 13.765625 71.78125 18.9375 73 
Q 24.125 74.21875 28.421875 74.21875 
Q 39.75 74.21875 46.484375 68.546875 
Q 53.21875 62.890625 53.21875 53.421875 
Q 53.21875 48.921875 51.53125 44.890625 
Q 49.859375 40.875 45.40625 35.40625 
Q 44.1875 33.984375 37.640625 27.21875 
Q 31.109375 20.453125 19.1875 8.296875 
z
" id="DejaVuSans-50"/>
       </defs>
       <use xlink:href="#DejaVuSans-90"/>
       <use x="68.505859" xlink:href="#DejaVuSans-95"/>
       <use x="118.505859" xlink:href="#DejaVuSans-50"/>
       <use x="182.128906" xlink:href="#DejaVuSans-95"/>
       <use x="232.128906" xlink:href="#DejaVuSans-110"/>
       <use x="295.507812" xlink:href="#DejaVuSans-115"/>
      </g>
     </g>
    </g>
    <g id="xtick_3">
     <g id="line2d_3">
      <g>
       <use style="stroke:#000000;stroke-width:0.8;" x="333" xlink:href="#m2110351b57" y="252"/>
      </g>
     </g>
     <g id="text_3">
      <!-- Z_3_ns -->
      <g transform="translate(315.620313 266.421875)scale(0.1 -0.1)">
       <defs>
        <path d="M 40.578125 39.3125 
Q 47.65625 37.796875 51.625 33 
Q 55.609375 28.21875 55.609375 21.1875 
Q 55.609375 10.40625 48.1875 4.484375 
Q 40.765625 -1.421875 27.09375 -1.421875 
Q 22.515625 -1.421875 17.65625 -0.515625 
Q 12.796875 0.390625 7.625 2.203125 
L 7.625 11.71875 
Q 11.71875 9.328125 16.59375 8.109375 
Q 21.484375 6.890625 26.8125 6.890625 
Q 36.078125 6.890625 40.9375 10.546875 
Q 45.796875 14.203125 45.796875 21.1875 
Q 45.796875 27.640625 41.28125 31.265625 
Q 36.765625 34.90625 28.71875 34.90625 
L 20.21875 34.90625 
L 20.21875 43.015625 
L 29.109375 43.015625 
Q 36.375 43.015625 40.234375 45.921875 
Q 44.09375 48.828125 44.09375 54.296875 
Q 44.09375 59.90625 40.109375 62.90625 
Q 36.140625 65.921875 28.71875 65.921875 
Q 24.65625 65.921875 20.015625 65.03125 
Q 15.375 64.15625 9.8125 62.3125 
L 9.8125 71.09375 
Q 15.4375 72.65625 20.34375 73.4375 
Q 25.25 74.21875 29.59375 74.21875 
Q 40.828125 74.21875 47.359375 69.109375 
Q 53.90625 64.015625 53.90625 55.328125 
Q 53.90625 49.265625 50.4375 45.09375 
Q 46.96875 40.921875 40.578125 39.3125 
z
" id="DejaVuSans-51"/>
       </defs>
       <use xlink:href="#DejaVuSans-90"/>
       <use x="68.505859" xlink:href="#DejaVuSans-95"/>
       <use x="118.505859" xlink:href="#DejaVuSans-51"/>
       <use x="182.128906" xlink:href="#DejaVuSans-95"/>
       <use x="232.128906" xlink:href="#DejaVuSans-110"/>
       <use x="295.507812" xlink:href="#DejaVuSans-115"/>
      </g>
     </g>
    </g>
    <g id="text_4">
     <!-- set -->
     <g transform="translate(213.758594 280.378125)scale(0.1 -0.1)">
      <defs>
       <path d="M 56.203125 29.59375 
L 56.203125 25.203125 
L 14.890625 25.203125 
Q 15.484375 15.921875 20.484375 11.0625 
Q 25.484375 6.203125 34.421875 6.203125 
Q 39.59375 6.203125 44.453125 7.46875 
Q 49.3125 8.734375 54.109375 11.28125 
L 54.109375 2.78125 
Q 49.265625 0.734375 44.1875 -0.34375 
Q 39.109375 -1.421875 33.890625 -1.421875 
Q 20.796875 -1.421875 13.15625 6.1875 
Q 5.515625 13.8125 5.515625 26.8125 
Q 5.515625 40.234375 12.765625 48.109375 
Q 20.015625 56 32.328125 56 
Q 43.359375 56 49.78125 48.890625 
Q 56.203125 41.796875 56.203125 29.59375 
z
M 47.21875 32.234375 
Q 47.125 39.59375 43.09375 43.984375 
Q 39.0625 48.390625 32.421875 48.390625 
Q 24.90625 48.390625 20.390625 44.140625 
Q 15.875 39.890625 15.1875 32.171875 
z
" id="DejaVuSans-101"/>
       <path d="M 18.3125 70.21875 
L 18.3125 54.6875 
L 36.8125 54.6875 
L 36.8125 47.703125 
L 18.3125 47.703125 
L 18.3125 18.015625 
Q 18.3125 11.328125 20.140625 9.421875 
Q 21.96875 7.515625 27.59375 7.515625 
L 36.8125 7.515625 
L 36.8125 0 
L 27.59375 0 
Q 17.1875 0 13.234375 3.875 
Q 9.28125 7.765625 9.28125 18.015625 
L 9.28125 47.703125 
L 2.6875 47.703125 
L 2.6875 54.6875 
L 9.28125 54.6875 
L 9.28125 70.21875 
z
" id="DejaVuSans-116"/>
      </defs>
      <use xlink:href="#DejaVuSans-115"/>
      <use x="52.099609" xlink:href="#DejaVuSans-101"/>
      <use x="113.623047" xlink:href="#DejaVuSans-116"/>
     </g>
    </g>
   </g>
   <g id="matplotlib.axis_2">
    <g id="ytick_1">
     <g id="line2d_4">
      <defs>
       <path d="M 0 0 
L -3.5 0 
" id="mc8b44b3078" style="stroke:#000000;stroke-width:0.8;"/>
      </defs>
      <g>
       <use style="stroke:#000000;stroke-width:0.8;" x="54" xlink:href="#mc8b44b3078" y="221.039062"/>
      </g>
     </g>
     <g id="text_5">
      <!-- −2 -->
      <g transform="translate(32.257812 224.83828)scale(0.1 -0.1)">
       <defs>
        <path d="M 10.59375 35.5 
L 73.1875 35.5 
L 73.1875 27.203125 
L 10.59375 27.203125 
z
" id="DejaVuSans-8722"/>
       </defs>
       <use xlink:href="#DejaVuSans-8722"/>
       <use x="83.789062" xlink:href="#DejaVuSans-50"/>
      </g>
     </g>
    </g>
    <g id="ytick_2">
     <g id="line2d_5">
      <g>
       <use style="stroke:#000000;stroke-width:0.8;" x="54" xlink:href="#mc8b44b3078" y="177.725994"/>
      </g>
     </g>
     <g id="text_6">
      <!-- −1 -->
      <g transform="translate(32.257812 181.525213)scale(0.1 -0.1)">
       <use xlink:href="#DejaVuSans-8722"/>
       <use x="83.789062" xlink:href="#DejaVuSans-49"/>
      </g>
     </g>
    </g>
    <g id="ytick_3">
     <g id="line2d_6">
      <g>
       <use style="stroke:#000000;stroke-width:0.8;" x="54" xlink:href="#mc8b44b3078" y="134.412927"/>
      </g>
     </g>
     <g id="text_7">
      <!-- 0 -->
      <g transform="translate(40.6375 138.212146)scale(0.1 -0.1)">
       <defs>
        <path d="M 31.78125 66.40625 
Q 24.171875 66.40625 20.328125 58.90625 
Q 16.5 51.421875 16.5 36.375 
Q 16.5 21.390625 20.328125 13.890625 
Q 24.171875 6.390625 31.78125 6.390625 
Q 39.453125 6.390625 43.28125 13.890625 
Q 47.125 21.390625 47.125 36.375 
Q 47.125 51.421875 43.28125 58.90625 
Q 39.453125 66.40625 31.78125 66.40625 
z
M 31.78125 74.21875 
Q 44.046875 74.21875 50.515625 64.515625 
Q 56.984375 54.828125 56.984375 36.375 
Q 56.984375 17.96875 50.515625 8.265625 
Q 44.046875 -1.421875 31.78125 -1.421875 
Q 19.53125 -1.421875 13.0625 8.265625 
Q 6.59375 17.96875 6.59375 36.375 
Q 6.59375 54.828125 13.0625 64.515625 
Q 19.53125 74.21875 31.78125 74.21875 
z
" id="DejaVuSans-48"/>
       </defs>
       <use xlink:href="#DejaVuSans-48"/>
      </g>
     </g>
    </g>
    <g id="ytick_4">
     <g id="line2d_7">
      <g>
       <use style="stroke:#000000;stroke-width:0.8;" x="54" xlink:href="#mc8b44b3078" y="91.09986"/>
      </g>
     </g>
     <g id="text_8">
      <!-- 1 -->
      <g transform="translate(40.6375 94.899079)scale(0.1 -0.1)">
       <use xlink:href="#DejaVuSans-49"/>
      </g>
     </g>
    </g>
    <g id="ytick_5">
     <g id="line2d_8">
      <g>
       <use style="stroke:#000000;stroke-width:0.8;" x="54" xlink:href="#mc8b44b3078" y="47.786793"/>
      </g>
     </g>
     <g id="text_9">
      <!-- 2 -->
      <g transform="translate(40.6375 51.586012)scale(0.1 -0.1)">
       <use xlink:href="#DejaVuSans-50"/>
      </g>
     </g>
    </g>
    <g id="text_10">
     <!-- value -->
     <g transform="translate(26.178125 156.937813)rotate(-90)scale(0.1 -0.1)">
      <defs>
       <path d="M 2.984375 54.6875 
L 12.5 54.6875 
L 29.59375 8.796875 
L 46.6875 54.6875 
L 56.203125 54.6875 
L 35.6875 0 
L 23.484375 0 
z
" id="DejaVuSans-118"/>
       <path d="M 34.28125 27.484375 
Q 23.390625 27.484375 19.1875 25 
Q 14.984375 22.515625 14.984375 16.5 
Q 14.984375 11.71875 18.140625 8.90625 
Q 21.296875 6.109375 26.703125 6.109375 
Q 34.1875 6.109375 38.703125 11.40625 
Q 43.21875 16.703125 43.21875 25.484375 
L 43.21875 27.484375 
z
M 52.203125 31.203125 
L 52.203125 0 
L 43.21875 0 
L 43.21875 8.296875 
Q 40.140625 3.328125 35.546875 0.953125 
Q 30.953125 -1.421875 24.3125 -1.421875 
Q 15.921875 -1.421875 10.953125 3.296875 
Q 6 8.015625 6 15.921875 
Q 6 25.140625 12.171875 29.828125 
Q 18.359375 34.515625 30.609375 34.515625 
L 43.21875 34.515625 
L 43.21875 35.40625 
Q 43.21875 41.609375 39.140625 45 
Q 35.0625 48.390625 27.6875 48.390625 
Q 23 48.390625 18.546875 47.265625 
Q 14.109375 46.140625 10.015625 43.890625 
L 10.015625 52.203125 
Q 14.9375 54.109375 19.578125 55.046875 
Q 24.21875 56 28.609375 56 
Q 40.484375 56 46.34375 49.84375 
Q 52.203125 43.703125 52.203125 31.203125 
z
" id="DejaVuSans-97"/>
       <path d="M 9.421875 75.984375 
L 18.40625 75.984375 
L 18.40625 0 
L 9.421875 0 
z
" id="DejaVuSans-108"/>
       <path d="M 8.5 21.578125 
L 8.5 54.6875 
L 17.484375 54.6875 
L 17.484375 21.921875 
Q 17.484375 14.15625 20.5 10.265625 
Q 23.53125 6.390625 29.59375 6.390625 
Q 36.859375 6.390625 41.078125 11.03125 
Q 45.3125 15.671875 45.3125 23.6875 
L 45.3125 54.6875 
L 54.296875 54.6875 
L 54.296875 0 
L 45.3125 0 
L 45.3125 8.40625 
Q 42.046875 3.421875 37.71875 1 
Q 33.40625 -1.421875 27.6875 -1.421875 
Q 18.265625 -1.421875 13.375 4.4375 
Q 8.5 10.296875 8.5 21.578125 
z
M 31.109375 56 
z
" id="DejaVuSans-117"/>
      </defs>
      <use xlink:href="#DejaVuSans-118"/>
      <use x="59.179688" xlink:href="#DejaVuSans-97"/>
      <use x="120.458984" xlink:href="#DejaVuSans-108"/>
      <use x="148.242188" xlink:href="#DejaVuSans-117"/>
      <use x="211.621094" xlink:href="#DejaVuSans-101"/>
     </g>
    </g>
   </g>
   <g id="line2d_9">
    <path clip-path="url(#pafd11fb6c6)" d="M 80.04 136.962841 
L 80.04 129.911703 
" style="fill:none;stroke:#3d3d3d;stroke-linecap:square;stroke-width:1.5;"/>
   </g>
   <g id="line2d_10">
    <path clip-path="url(#pafd11fb6c6)" d="M 80.04 134.318277 
L 80.04 132.55392 
" style="fill:none;stroke:#3d3d3d;stroke-linecap:square;stroke-width:4.5;"/>
   </g>
   <g id="line2d_11">
    <path clip-path="url(#pafd11fb6c6)" d="M 221.4 139.215597 
L 221.4 126.006282 
" style="fill:none;stroke:#3d3d3d;stroke-linecap:square;stroke-width:1.5;"/>
   </g>
   <g id="line2d_12">
    <path clip-path="url(#pafd11fb6c6)" d="M 221.4 134.28688 
L 221.4 130.969688 
" style="fill:none;stroke:#3d3d3d;stroke-linecap:square;stroke-width:4.5;"/>
   </g>
   <g id="line2d_13">
    <path clip-path="url(#pafd11fb6c6)" d="M 362.76 138.054337 
L 362.76 127.57285 
" style="fill:none;stroke:#3d3d3d;stroke-linecap:square;stroke-width:1.5;"/>
   </g>
   <g id="line2d_14">
    <path clip-path="url(#pafd11fb6c6)" d="M 362.76 134.148801 
L 362.76 131.514382 
" style="fill:none;stroke:#3d3d3d;stroke-linecap:square;stroke-width:4.5;"/>
   </g>
   <g id="patch_6">
    <path d="M 54 252 
L 54 34.56 
" style="fill:none;stroke:#000000;stroke-linecap:square;stroke-linejoin:miter;stroke-width:0.8;"/>
   </g>
   <g id="patch_7">
    <path d="M 388.8 252 
L 388.8 34.56 
" style="fill:none;stroke:#000000;stroke-linecap:square;stroke-linejoin:miter;stroke-width:0.8;"/>
   </g>
   <g id="patch_8">
    <path d="M 54 252 
L 388.8 252 
" style="fill:none;stroke:#000000;stroke-linecap:square;stroke-linejoin:miter;stroke-width:0.8;"/>
   </g>
   <g id="patch_9">
    <path d="M 54 34.56 
L 388.8 34.56 
" style="fill:none;stroke:#000000;stroke-linecap:square;stroke-linejoin:miter;stroke-width:0.8;"/>
   </g>
   <g id="PathCollection_1">
    <defs>
     <path d="M 0 1.5 
C 0.397805 1.5 0.77937 1.341951 1.06066 1.06066 
C 1.341951 0.77937 1.5 0.397805 1.5 0 
C 1.5 -0.397805 1.341951 -0.77937 1.06066 -1.06066 
C 0.77937 -1.341951 0.397805 -1.5 0 -1.5 
C -0.397805 -1.5 -0.77937 -1.341951 -1.06066 -1.06066 
C -1.341951 -0.77937 -1.5 -0.397805 -1.5 0 
C -1.5 0.397805 -1.341951 0.77937 -1.06066 1.06066 
C -0.77937 1.341951 -0.397805 1.5 0 1.5 
z
" id="m3b2b2d9025" style="stroke:#3d3d3d;"/>
    </defs>
    <g clip-path="url(#pafd11fb6c6)">
     <use style="fill:#ffffff;stroke:#3d3d3d;" x="80.04" xlink:href="#m3b2b2d9025" y="133.774323"/>
    </g>
   </g>
   <g id="PathCollection_2">
    <g clip-path="url(#pafd11fb6c6)">
     <use style="fill:#ffffff;stroke:#3d3d3d;" x="221.4" xlink:href="#m3b2b2d9025" y="133.468179"/>
    </g>
   </g>
   <g id="PathCollection_3">
    <g clip-path="url(#pafd11fb6c6)">
     <use style="fill:#ffffff;stroke:#3d3d3d;" x="362.76" xlink:href="#m3b2b2d9025" y="133.269097"/>
    </g>
   </g>
   <g id="legend_1">
    <g id="patch_10">
     <path d="M 315.040625 102.106875 
L 381.8 102.106875 
Q 383.8 102.106875 383.8 100.106875 
L 383.8 41.56 
Q 383.8 39.56 381.8 39.56 
L 315.040625 39.56 
Q 313.040625 39.56 313.040625 41.56 
L 313.040625 100.106875 
Q 313.040625 102.106875 315.040625 102.106875 
z
" style="fill:#ffffff;opacity:0.8;stroke:#cccccc;stroke-linejoin:miter;"/>
    </g>
    <g id="text_11">
     <!-- set -->
     <g transform="translate(340.778906 51.158437)scale(0.1 -0.1)">
      <use xlink:href="#DejaVuSans-115"/>
      <use x="52.099609" xlink:href="#DejaVuSans-101"/>
      <use x="113.623047" xlink:href="#DejaVuSans-116"/>
     </g>
    </g>
    <g id="patch_11">
     <path d="M 317.040625 65.836562 
L 337.040625 65.836562 
L 337.040625 58.836562 
L 317.040625 58.836562 
z
" style="fill:#3274a1;stroke:#3d3d3d;stroke-linejoin:miter;stroke-width:0.75;"/>
    </g>
    <g id="text_12">
     <!-- Z_1_ns -->
     <g transform="translate(345.040625 65.836562)scale(0.1 -0.1)">
      <use xlink:href="#DejaVuSans-90"/>
      <use x="68.505859" xlink:href="#DejaVuSans-95"/>
      <use x="118.505859" xlink:href="#DejaVuSans-49"/>
      <use x="182.128906" xlink:href="#DejaVuSans-95"/>
      <use x="232.128906" xlink:href="#DejaVuSans-110"/>
      <use x="295.507812" xlink:href="#DejaVuSans-115"/>
     </g>
    </g>
    <g id="patch_12">
     <path d="M 317.040625 80.792812 
L 337.040625 80.792812 
L 337.040625 73.792812 
L 317.040625 73.792812 
z
" style="fill:#e1812c;stroke:#3d3d3d;stroke-linejoin:miter;stroke-width:0.75;"/>
    </g>
    <g id="text_13">
     <!-- Z_2_ns -->
     <g transform="translate(345.040625 80.792812)scale(0.1 -0.1)">
      <use xlink:href="#DejaVuSans-90"/>
      <use x="68.505859" xlink:href="#DejaVuSans-95"/>
      <use x="118.505859" xlink:href="#DejaVuSans-50"/>
      <use x="182.128906" xlink:href="#DejaVuSans-95"/>
      <use x="232.128906" xlink:href="#DejaVuSans-110"/>
      <use x="295.507812" xlink:href="#DejaVuSans-115"/>
     </g>
    </g>
    <g id="patch_13">
     <path d="M 317.040625 95.749062 
L 337.040625 95.749062 
L 337.040625 88.749062 
L 317.040625 88.749062 
z
" style="fill:#3a923a;stroke:#3d3d3d;stroke-linejoin:miter;stroke-width:0.75;"/>
    </g>
    <g id="text_14">
     <!-- Z_3_ns -->
     <g transform="translate(345.040625 95.749062)scale(0.1 -0.1)">
      <use xlink:href="#DejaVuSans-90"/>
      <use x="68.505859" xlink:href="#DejaVuSans-95"/>
      <use x="118.505859" xlink:href="#DejaVuSans-51"/>
      <use x="182.128906" xlink:href="#DejaVuSans-95"/>
      <use x="232.128906" xlink:href="#DejaVuSans-110"/>
      <use x="295.507812" xlink:href="#DejaVuSans-115"/>
     </g>
    </g>
   </g>
  </g>
 </g>
 <defs>
  <clipPath id="pafd11fb6c6">
   <rect height="217.44" width="334.8" x="54" y="34.56"/>
  </clipPath>
 </defs>
</svg>
