<?xml version="1.0" encoding="utf-8" standalone="no"?>
<!DOCTYPE svg PUBLIC "-//W3C//DTD SVG 1.1//EN"
  "http://www.w3.org/Graphics/SVG/1.1/DTD/svg11.dtd">
<!-- Created with matplotlib (https://matplotlib.org/) -->
<svg height="288pt" version="1.1" viewBox="0 0 432 288" width="432pt" xmlns="http://www.w3.org/2000/svg" xmlns:xlink="http://www.w3.org/1999/xlink">
 <metadata>
  <rdf:RDF xmlns:cc="http://creativecommons.org/ns#" xmlns:dc="http://purl.org/dc/elements/1.1/" xmlns:rdf="http://www.w3.org/1999/02/22-rdf-syntax-ns#">
   <cc:Work>
    <dc:type rdf:resource="http://purl.org/dc/dcmitype/StillImage"/>
    <dc:date>2021-07-13T18:57:04.494465</dc:date>
    <dc:format>image/svg+xml</dc:format>
    <dc:creator>
     <cc:Agent>
      <dc:title>Matplotlib v3.3.4, https://matplotlib.org/</dc:title>
     </cc:Agent>
    </dc:creator>
   </cc:Work>
  </rdf:RDF>
 </metadata>
 <defs>
  <style type="text/css">*{stroke-linecap:butt;stroke-linejoin:round;}</style>
 </defs>
 <g id="figure_1">
  <g id="patch_1">
   <path d="M 0 288 
L 432 288 
L 432 0 
L 0 0 
z
" style="fill:#ffffff;"/>
  </g>
  <g id="axes_1">
   <g id="patch_2">
    <path d="M 54 252 
L 388.8 252 
L 388.8 34.56 
L 54 34.56 
z
" style="fill:#ffffff;"/>
   </g>
   <g id="PolyCollection_1">
    <defs>
     <path d="M 80.132348 -50.10998 
L 79.947652 -50.10998 
L 79.931236 -51.997821 
L 79.916331 -53.885662 
L 79.901952 -55.773503 
L 79.887604 -57.661345 
L 79.873728 -59.549186 
L 79.861083 -61.437027 
L 79.849805 -63.324869 
L 79.839156 -65.21271 
L 79.828175 -67.100551 
L 79.816531 -68.988393 
L 79.804757 -70.876234 
L 79.79367 -72.764075 
L 79.783493 -74.651917 
L 79.773311 -76.539758 
L 79.76114 -78.427599 
L 79.744374 -80.31544 
L 79.72002 -82.203282 
L 79.684244 -84.091123 
L 79.631371 -85.978964 
L 79.553233 -87.866806 
L 79.440011 -89.754647 
L 79.282877 -91.642488 
L 79.077192 -93.53033 
L 78.824119 -95.418171 
L 78.529214 -97.306012 
L 78.198605 -99.193853 
L 77.83509 -101.081695 
L 77.436667 -102.969536 
L 76.998587 -104.857377 
L 76.517948 -106.745219 
L 75.998118 -108.63306 
L 75.449713 -110.520901 
L 74.886366 -112.408743 
L 74.317122 -114.296584 
L 73.740609 -116.184425 
L 73.14583 -118.072267 
L 72.519628 -119.960108 
L 71.855775 -121.847949 
L 71.160044 -123.73579 
L 70.44964 -125.623632 
L 69.749072 -127.511473 
L 69.084752 -129.399314 
L 68.479131 -131.287156 
L 67.945272 -133.174997 
L 67.483885 -135.062838 
L 67.084328 -136.95068 
L 66.729001 -138.838521 
L 66.39942 -140.726362 
L 66.082911 -142.614204 
L 65.778994 -144.502045 
L 65.503097 -146.389886 
L 65.284765 -148.277727 
L 65.16 -150.165569 
L 65.161083 -152.05341 
L 65.308239 -153.941251 
L 65.605596 -155.829093 
L 66.04135 -157.716934 
L 66.590513 -159.604775 
L 67.218333 -161.492617 
L 67.883549 -163.380458 
L 68.542855 -165.268299 
L 69.158377 -167.156141 
L 69.706639 -169.043982 
L 70.183638 -170.931823 
L 70.601842 -172.819664 
L 70.981108 -174.707506 
L 71.340566 -176.595347 
L 71.69681 -178.483188 
L 72.067023 -180.37103 
L 72.470622 -182.258871 
L 72.924482 -184.146712 
L 73.43367 -186.034554 
L 73.985167 -187.922395 
L 74.55079 -189.810236 
L 75.098386 -191.698077 
L 75.604057 -193.585919 
L 76.058242 -195.47376 
L 76.463683 -197.361601 
L 76.828628 -199.249443 
L 77.160296 -201.137284 
L 77.461966 -203.025125 
L 77.734033 -204.912967 
L 77.976925 -206.800808 
L 78.1931 -208.688649 
L 78.386766 -210.576491 
L 78.562232 -212.464332 
L 78.722758 -214.352173 
L 78.870734 -216.240014 
L 79.008433 -218.127856 
L 79.13831 -220.015697 
L 79.262559 -221.903538 
L 79.3823 -223.79138 
L 79.496854 -225.679221 
L 79.603558 -227.567062 
L 79.698554 -229.454904 
L 79.778476 -231.342745 
L 79.842173 -233.230586 
L 79.891284 -235.118428 
L 79.92923 -237.006269 
L 80.15077 -237.006269 
L 80.15077 -237.006269 
L 80.188716 -235.118428 
L 80.237827 -233.230586 
L 80.301524 -231.342745 
L 80.381446 -229.454904 
L 80.476442 -227.567062 
L 80.583146 -225.679221 
L 80.6977 -223.79138 
L 80.817441 -221.903538 
L 80.94169 -220.015697 
L 81.071567 -218.127856 
L 81.209266 -216.240014 
L 81.357242 -214.352173 
L 81.517768 -212.464332 
L 81.693234 -210.576491 
L 81.8869 -208.688649 
L 82.103075 -206.800808 
L 82.345967 -204.912967 
L 82.618034 -203.025125 
L 82.919704 -201.137284 
L 83.251372 -199.249443 
L 83.616317 -197.361601 
L 84.021758 -195.47376 
L 84.475943 -193.585919 
L 84.981614 -191.698077 
L 85.52921 -189.810236 
L 86.094833 -187.922395 
L 86.64633 -186.034554 
L 87.155518 -184.146712 
L 87.609378 -182.258871 
L 88.012977 -180.37103 
L 88.38319 -178.483188 
L 88.739434 -176.595347 
L 89.098892 -174.707506 
L 89.478158 -172.819664 
L 89.896362 -170.931823 
L 90.373361 -169.043982 
L 90.921623 -167.156141 
L 91.537145 -165.268299 
L 92.196451 -163.380458 
L 92.861667 -161.492617 
L 93.489487 -159.604775 
L 94.03865 -157.716934 
L 94.474404 -155.829093 
L 94.771761 -153.941251 
L 94.918917 -152.05341 
L 94.92 -150.165569 
L 94.795235 -148.277727 
L 94.576903 -146.389886 
L 94.301006 -144.502045 
L 93.997089 -142.614204 
L 93.68058 -140.726362 
L 93.350999 -138.838521 
L 92.995672 -136.95068 
L 92.596115 -135.062838 
L 92.134728 -133.174997 
L 91.600869 -131.287156 
L 90.995248 -129.399314 
L 90.330928 -127.511473 
L 89.63036 -125.623632 
L 88.919956 -123.73579 
L 88.224225 -121.847949 
L 87.560372 -119.960108 
L 86.93417 -118.072267 
L 86.339391 -116.184425 
L 85.762878 -114.296584 
L 85.193634 -112.408743 
L 84.630287 -110.520901 
L 84.081882 -108.63306 
L 83.562052 -106.745219 
L 83.081413 -104.857377 
L 82.643333 -102.969536 
L 82.24491 -101.081695 
L 81.881395 -99.193853 
L 81.550786 -97.306012 
L 81.255881 -95.418171 
L 81.002808 -93.53033 
L 80.797123 -91.642488 
L 80.639989 -89.754647 
L 80.526767 -87.866806 
L 80.448629 -85.978964 
L 80.395756 -84.091123 
L 80.35998 -82.203282 
L 80.335626 -80.31544 
L 80.31886 -78.427599 
L 80.306689 -76.539758 
L 80.296507 -74.651917 
L 80.28633 -72.764075 
L 80.275243 -70.876234 
L 80.263469 -68.988393 
L 80.251825 -67.100551 
L 80.240844 -65.21271 
L 80.230195 -63.324869 
L 80.218917 -61.437027 
L 80.206272 -59.549186 
L 80.192396 -57.661345 
L 80.178048 -55.773503 
L 80.163669 -53.885662 
L 80.148764 -51.997821 
L 80.132348 -50.10998 
z
" id="m281a5ebfb7" style="stroke:#3d3d3d;stroke-width:1.5;"/>
    </defs>
    <g clip-path="url(#p9fa97feafe)">
     <use style="fill:#3274a1;stroke:#3d3d3d;stroke-width:1.5;" x="0" xlink:href="#m281a5ebfb7" y="288"/>
    </g>
   </g>
   <g id="PolyCollection_2">
    <defs>
     <path d="M 221.439645 -53.337017 
L 221.360355 -53.337017 
L 221.35041 -55.258425 
L 221.336963 -57.179832 
L 221.317642 -59.10124 
L 221.290077 -61.022647 
L 221.252561 -62.944055 
L 221.204593 -64.865463 
L 221.146984 -66.78687 
L 221.081061 -68.708278 
L 221.006855 -70.629685 
L 220.921031 -72.551093 
L 220.816052 -74.4725 
L 220.681782 -76.393908 
L 220.509178 -78.315315 
L 220.294083 -80.236723 
L 220.038785 -82.15813 
L 219.750264 -84.079538 
L 219.436171 -86.000945 
L 219.100863 -87.922353 
L 218.743686 -89.843761 
L 218.360232 -91.765168 
L 217.945594 -93.686576 
L 217.497919 -95.607983 
L 217.020895 -97.529391 
L 216.524705 -99.450798 
L 216.025195 -101.372206 
L 215.540781 -103.293613 
L 215.087065 -105.215021 
L 214.670631 -107.136428 
L 214.284905 -109.057836 
L 213.910458 -110.979243 
L 213.519934 -112.900651 
L 213.085655 -114.822059 
L 212.587275 -116.743466 
L 212.017322 -118.664874 
L 211.383129 -120.586281 
L 210.704747 -122.507689 
L 210.010142 -124.429096 
L 209.330174 -126.350504 
L 208.695067 -128.271911 
L 208.13185 -130.193319 
L 207.661109 -132.114726 
L 207.292871 -134.036134 
L 207.023837 -135.957541 
L 206.838609 -137.878949 
L 206.715207 -139.800357 
L 206.632376 -141.721764 
L 206.575233 -143.643172 
L 206.537381 -145.564579 
L 206.52 -147.485987 
L 206.529871 -149.407394 
L 206.577788 -151.328802 
L 206.67727 -153.250209 
L 206.842425 -155.171617 
L 207.084518 -157.093024 
L 207.408573 -159.014432 
L 207.812137 -160.935839 
L 208.286821 -162.857247 
L 208.820733 -164.778655 
L 209.399262 -166.700062 
L 210.004193 -168.62147 
L 210.614342 -170.542877 
L 211.210741 -172.464285 
L 211.78481 -174.385692 
L 212.343166 -176.3071 
L 212.903185 -178.228507 
L 213.480248 -180.149915 
L 214.07498 -182.071322 
L 214.669806 -183.99273 
L 215.237443 -185.914137 
L 215.75511 -187.835545 
L 216.214607 -189.756953 
L 216.62254 -191.67836 
L 216.992682 -193.599768 
L 217.337483 -195.521175 
L 217.66442 -197.442583 
L 217.977613 -199.36399 
L 218.280847 -201.285398 
L 218.578395 -203.206805 
L 218.873264 -205.128213 
L 219.165011 -207.04962 
L 219.448981 -208.971028 
L 219.71707 -210.892435 
L 219.959406 -212.813843 
L 220.166822 -214.735251 
L 220.334102 -216.656658 
L 220.462972 -218.578066 
L 220.562765 -220.499473 
L 220.647529 -222.420881 
L 220.730654 -224.342288 
L 220.819943 -226.263696 
L 220.915741 -228.185103 
L 221.012619 -230.106511 
L 221.102986 -232.027918 
L 221.180481 -233.949326 
L 221.241807 -235.870733 
L 221.28693 -237.792141 
L 221.318257 -239.713549 
L 221.339423 -241.634956 
L 221.354108 -243.556364 
L 221.445892 -243.556364 
L 221.445892 -243.556364 
L 221.460577 -241.634956 
L 221.481743 -239.713549 
L 221.51307 -237.792141 
L 221.558193 -235.870733 
L 221.619519 -233.949326 
L 221.697014 -232.027918 
L 221.787381 -230.106511 
L 221.884259 -228.185103 
L 221.980057 -226.263696 
L 222.069346 -224.342288 
L 222.152471 -222.420881 
L 222.237235 -220.499473 
L 222.337028 -218.578066 
L 222.465898 -216.656658 
L 222.633178 -214.735251 
L 222.840594 -212.813843 
L 223.08293 -210.892435 
L 223.351019 -208.971028 
L 223.634989 -207.04962 
L 223.926736 -205.128213 
L 224.221605 -203.206805 
L 224.519153 -201.285398 
L 224.822387 -199.36399 
L 225.13558 -197.442583 
L 225.462517 -195.521175 
L 225.807318 -193.599768 
L 226.17746 -191.67836 
L 226.585393 -189.756953 
L 227.04489 -187.835545 
L 227.562557 -185.914137 
L 228.130194 -183.99273 
L 228.72502 -182.071322 
L 229.319752 -180.149915 
L 229.896815 -178.228507 
L 230.456834 -176.3071 
L 231.01519 -174.385692 
L 231.589259 -172.464285 
L 232.185658 -170.542877 
L 232.795807 -168.62147 
L 233.400738 -166.700062 
L 233.979267 -164.778655 
L 234.513179 -162.857247 
L 234.987863 -160.935839 
L 235.391427 -159.014432 
L 235.715482 -157.093024 
L 235.957575 -155.171617 
L 236.12273 -153.250209 
L 236.222212 -151.328802 
L 236.270129 -149.407394 
L 236.28 -147.485987 
L 236.262619 -145.564579 
L 236.224767 -143.643172 
L 236.167624 -141.721764 
L 236.084793 -139.800357 
L 235.961391 -137.878949 
L 235.776163 -135.957541 
L 235.507129 -134.036134 
L 235.138891 -132.114726 
L 234.66815 -130.193319 
L 234.104933 -128.271911 
L 233.469826 -126.350504 
L 232.789858 -124.429096 
L 232.095253 -122.507689 
L 231.416871 -120.586281 
L 230.782678 -118.664874 
L 230.212725 -116.743466 
L 229.714345 -114.822059 
L 229.280066 -112.900651 
L 228.889542 -110.979243 
L 228.515095 -109.057836 
L 228.129369 -107.136428 
L 227.712935 -105.215021 
L 227.259219 -103.293613 
L 226.774805 -101.372206 
L 226.275295 -99.450798 
L 225.779105 -97.529391 
L 225.302081 -95.607983 
L 224.854406 -93.686576 
L 224.439768 -91.765168 
L 224.056314 -89.843761 
L 223.699137 -87.922353 
L 223.363829 -86.000945 
L 223.049736 -84.079538 
L 222.761215 -82.15813 
L 222.505917 -80.236723 
L 222.290822 -78.315315 
L 222.118218 -76.393908 
L 221.983948 -74.4725 
L 221.878969 -72.551093 
L 221.793145 -70.629685 
L 221.718939 -68.708278 
L 221.653016 -66.78687 
L 221.595407 -64.865463 
L 221.547439 -62.944055 
L 221.509923 -61.022647 
L 221.482358 -59.10124 
L 221.463037 -57.179832 
L 221.44959 -55.258425 
L 221.439645 -53.337017 
z
" id="m7ad5d3e6a4" style="stroke:#3d3d3d;stroke-width:1.5;"/>
    </defs>
    <g clip-path="url(#p9fa97feafe)">
     <use style="fill:#e1812c;stroke:#3d3d3d;stroke-width:1.5;" x="0" xlink:href="#m7ad5d3e6a4" y="288"/>
    </g>
   </g>
   <g id="PolyCollection_3">
    <defs>
     <path d="M 362.784464 -45.883636 
L 362.735536 -45.883636 
L 362.736883 -47.840249 
L 362.740356 -49.796861 
L 362.744045 -51.753473 
L 362.745399 -53.710086 
L 362.741676 -55.666698 
L 362.730288 -57.62331 
L 362.709361 -59.579923 
L 362.678668 -61.536535 
L 362.640524 -63.493147 
L 362.599791 -65.44976 
L 362.562375 -67.406372 
L 362.532607 -69.362984 
L 362.510779 -71.319597 
L 362.492223 -73.276209 
L 362.468488 -75.232821 
L 362.429926 -77.189434 
L 362.368302 -79.146046 
L 362.278272 -81.102658 
L 362.15748 -83.05927 
L 362.005889 -85.015883 
L 361.82506 -86.972495 
L 361.617514 -88.929107 
L 361.385561 -90.88572 
L 361.128843 -92.842332 
L 360.840814 -94.798944 
L 360.506045 -96.755557 
L 360.101402 -98.712169 
L 359.603078 -100.668781 
L 358.997474 -102.625394 
L 358.289419 -104.582006 
L 357.500866 -106.538618 
L 356.659763 -108.495231 
L 355.787389 -110.451843 
L 354.894719 -112.408455 
L 353.990663 -114.365068 
L 353.094271 -116.32168 
L 352.239249 -118.278292 
L 351.465493 -120.234905 
L 350.802293 -122.191517 
L 350.254088 -124.148129 
L 349.799025 -126.104742 
L 349.403346 -128.061354 
L 349.043136 -130.017966 
L 348.717357 -131.974579 
L 348.441715 -133.931191 
L 348.22961 -135.887803 
L 348.078362 -137.844415 
L 347.973159 -139.801028 
L 347.903997 -141.75764 
L 347.88 -143.714252 
L 347.929638 -145.670865 
L 348.087154 -147.627477 
L 348.373694 -149.584089 
L 348.7833 -151.540702 
L 349.281458 -153.497314 
L 349.818181 -155.453926 
L 350.348974 -157.410539 
L 350.850955 -159.367151 
L 351.325028 -161.323763 
L 351.786501 -163.280376 
L 352.25456 -165.236988 
L 352.747513 -167.1936 
L 353.281547 -169.150213 
L 353.867264 -171.106825 
L 354.503129 -173.063437 
L 355.170948 -175.02005 
L 355.838691 -176.976662 
L 356.470906 -178.933274 
L 357.041603 -180.889887 
L 357.542672 -182.846499 
L 357.983398 -184.803111 
L 358.381872 -186.759724 
L 358.75377 -188.716336 
L 359.105151 -190.672948 
L 359.432469 -192.62956 
L 359.727945 -194.586173 
L 359.98575 -196.542785 
L 360.205805 -198.499397 
L 360.394816 -200.45601 
L 360.565206 -202.412622 
L 360.731831 -204.369234 
L 360.906528 -206.325847 
L 361.092634 -208.282459 
L 361.28323 -210.239071 
L 361.465039 -212.195684 
L 361.625808 -214.152296 
L 361.760377 -216.108908 
L 361.871905 -218.065521 
L 361.968481 -220.022133 
L 362.058255 -221.978745 
L 362.146174 -223.935358 
L 362.233346 -225.89197 
L 362.318129 -227.848582 
L 362.397654 -229.805195 
L 362.469121 -231.761807 
L 362.530737 -233.718419 
L 362.582212 -235.675032 
L 362.624622 -237.631644 
L 362.659646 -239.588256 
L 362.860354 -239.588256 
L 362.860354 -239.588256 
L 362.895378 -237.631644 
L 362.937788 -235.675032 
L 362.989263 -233.718419 
L 363.050879 -231.761807 
L 363.122346 -229.805195 
L 363.201871 -227.848582 
L 363.286654 -225.89197 
L 363.373826 -223.935358 
L 363.461745 -221.978745 
L 363.551519 -220.022133 
L 363.648095 -218.065521 
L 363.759623 -216.108908 
L 363.894192 -214.152296 
L 364.054961 -212.195684 
L 364.23677 -210.239071 
L 364.427366 -208.282459 
L 364.613472 -206.325847 
L 364.788169 -204.369234 
L 364.954794 -202.412622 
L 365.125184 -200.45601 
L 365.314195 -198.499397 
L 365.53425 -196.542785 
L 365.792055 -194.586173 
L 366.087531 -192.62956 
L 366.414849 -190.672948 
L 366.76623 -188.716336 
L 367.138128 -186.759724 
L 367.536602 -184.803111 
L 367.977328 -182.846499 
L 368.478397 -180.889887 
L 369.049094 -178.933274 
L 369.681309 -176.976662 
L 370.349052 -175.02005 
L 371.016871 -173.063437 
L 371.652736 -171.106825 
L 372.238453 -169.150213 
L 372.772487 -167.1936 
L 373.26544 -165.236988 
L 373.733499 -163.280376 
L 374.194972 -161.323763 
L 374.669045 -159.367151 
L 375.171026 -157.410539 
L 375.701819 -155.453926 
L 376.238542 -153.497314 
L 376.7367 -151.540702 
L 377.146306 -149.584089 
L 377.432846 -147.627477 
L 377.590362 -145.670865 
L 377.64 -143.714252 
L 377.616003 -141.75764 
L 377.546841 -139.801028 
L 377.441638 -137.844415 
L 377.29039 -135.887803 
L 377.078285 -133.931191 
L 376.802643 -131.974579 
L 376.476864 -130.017966 
L 376.116654 -128.061354 
L 375.720975 -126.104742 
L 375.265912 -124.148129 
L 374.717707 -122.191517 
L 374.054507 -120.234905 
L 373.280751 -118.278292 
L 372.425729 -116.32168 
L 371.529337 -114.365068 
L 370.625281 -112.408455 
L 369.732611 -110.451843 
L 368.860237 -108.495231 
L 368.019134 -106.538618 
L 367.230581 -104.582006 
L 366.522526 -102.625394 
L 365.916922 -100.668781 
L 365.418598 -98.712169 
L 365.013955 -96.755557 
L 364.679186 -94.798944 
L 364.391157 -92.842332 
L 364.134439 -90.88572 
L 363.902486 -88.929107 
L 363.69494 -86.972495 
L 363.514111 -85.015883 
L 363.36252 -83.05927 
L 363.241728 -81.102658 
L 363.151698 -79.146046 
L 363.090074 -77.189434 
L 363.051512 -75.232821 
L 363.027777 -73.276209 
L 363.009221 -71.319597 
L 362.987393 -69.362984 
L 362.957625 -67.406372 
L 362.920209 -65.44976 
L 362.879476 -63.493147 
L 362.841332 -61.536535 
L 362.810639 -59.579923 
L 362.789712 -57.62331 
L 362.778324 -55.666698 
L 362.774601 -53.710086 
L 362.775955 -51.753473 
L 362.779644 -49.796861 
L 362.783117 -47.840249 
L 362.784464 -45.883636 
z
" id="mec8061f71a" style="stroke:#3d3d3d;stroke-width:1.5;"/>
    </defs>
    <g clip-path="url(#p9fa97feafe)">
     <use style="fill:#3a923a;stroke:#3d3d3d;stroke-width:1.5;" x="0" xlink:href="#mec8061f71a" y="288"/>
    </g>
   </g>
   <g id="patch_3">
    <path clip-path="url(#p9fa97feafe)" d="M 109.8 212.214262 
L 109.8 212.214262 
L 109.8 212.214262 
L 109.8 212.214262 
z
" style="fill:#3274a1;stroke:#3d3d3d;stroke-linejoin:miter;stroke-width:0.75;"/>
   </g>
   <g id="patch_4">
    <path clip-path="url(#p9fa97feafe)" d="M 109.8 212.214262 
L 109.8 212.214262 
L 109.8 212.214262 
L 109.8 212.214262 
z
" style="fill:#e1812c;stroke:#3d3d3d;stroke-linejoin:miter;stroke-width:0.75;"/>
   </g>
   <g id="patch_5">
    <path clip-path="url(#p9fa97feafe)" d="M 109.8 212.214262 
L 109.8 212.214262 
L 109.8 212.214262 
L 109.8 212.214262 
z
" style="fill:#3a923a;stroke:#3d3d3d;stroke-linejoin:miter;stroke-width:0.75;"/>
   </g>
   <g id="matplotlib.axis_1">
    <g id="xtick_1">
     <g id="line2d_1">
      <defs>
       <path d="M 0 0 
L 0 3.5 
" id="m43cb0b5ac7" style="stroke:#000000;stroke-width:0.8;"/>
      </defs>
      <g>
       <use style="stroke:#000000;stroke-width:0.8;" x="109.8" xlink:href="#m43cb0b5ac7" y="252"/>
      </g>
     </g>
     <g id="text_1">
      <!-- Z_1_ns -->
      <g transform="translate(92.420312 266.320312)scale(0.1 -0.1)">
       <defs>
        <path d="M 5.609375 72.90625 
L 62.890625 72.90625 
L 62.890625 65.375 
L 16.796875 8.296875 
L 64.015625 8.296875 
L 64.015625 0 
L 4.5 0 
L 4.5 7.515625 
L 50.59375 64.59375 
L 5.609375 64.59375 
z
" id="DejaVuSans-90"/>
        <path d="M 50.984375 -16.609375 
L 50.984375 -23.578125 
L -0.984375 -23.578125 
L -0.984375 -16.609375 
z
" id="DejaVuSans-95"/>
        <path d="M 12.40625 8.296875 
L 28.515625 8.296875 
L 28.515625 63.921875 
L 10.984375 60.40625 
L 10.984375 69.390625 
L 28.421875 72.90625 
L 38.28125 72.90625 
L 38.28125 8.296875 
L 54.390625 8.296875 
L 54.390625 0 
L 12.40625 0 
z
" id="DejaVuSans-49"/>
        <path d="M 54.890625 33.015625 
L 54.890625 0 
L 45.90625 0 
L 45.90625 32.71875 
Q 45.90625 40.484375 42.875 44.328125 
Q 39.84375 48.1875 33.796875 48.1875 
Q 26.515625 48.1875 22.3125 43.546875 
Q 18.109375 38.921875 18.109375 30.90625 
L 18.109375 0 
L 9.078125 0 
L 9.078125 54.6875 
L 18.109375 54.6875 
L 18.109375 46.1875 
Q 21.34375 51.125 25.703125 53.5625 
Q 30.078125 56 35.796875 56 
Q 45.21875 56 50.046875 50.171875 
Q 54.890625 44.34375 54.890625 33.015625 
z
" id="DejaVuSans-110"/>
        <path d="M 44.28125 53.078125 
L 44.28125 44.578125 
Q 40.484375 46.53125 36.375 47.5 
Q 32.28125 48.484375 27.875 48.484375 
Q 21.1875 48.484375 17.84375 46.4375 
Q 14.5 44.390625 14.5 40.28125 
Q 14.5 37.15625 16.890625 35.375 
Q 19.28125 33.59375 26.515625 31.984375 
L 29.59375 31.296875 
Q 39.15625 29.25 43.1875 25.515625 
Q 47.21875 21.78125 47.21875 15.09375 
Q 47.21875 7.46875 41.1875 3.015625 
Q 35.15625 -1.421875 24.609375 -1.421875 
Q 20.21875 -1.421875 15.453125 -0.5625 
Q 10.6875 0.296875 5.421875 2 
L 5.421875 11.28125 
Q 10.40625 8.6875 15.234375 7.390625 
Q 20.0625 6.109375 24.8125 6.109375 
Q 31.15625 6.109375 34.5625 8.28125 
Q 37.984375 10.453125 37.984375 14.40625 
Q 37.984375 18.0625 35.515625 20.015625 
Q 33.0625 21.96875 24.703125 23.78125 
L 21.578125 24.515625 
Q 13.234375 26.265625 9.515625 29.90625 
Q 5.8125 33.546875 5.8125 39.890625 
Q 5.8125 47.609375 11.28125 51.796875 
Q 16.75 56 26.8125 56 
Q 31.78125 56 36.171875 55.265625 
Q 40.578125 54.546875 44.28125 53.078125 
z
" id="DejaVuSans-115"/>
       </defs>
       <use xlink:href="#DejaVuSans-90"/>
       <use x="68.505859" xlink:href="#DejaVuSans-95"/>
       <use x="118.505859" xlink:href="#DejaVuSans-49"/>
       <use x="182.128906" xlink:href="#DejaVuSans-95"/>
       <use x="232.128906" xlink:href="#DejaVuSans-110"/>
       <use x="295.507812" xlink:href="#DejaVuSans-115"/>
      </g>
     </g>
    </g>
    <g id="xtick_2">
     <g id="line2d_2">
      <g>
       <use style="stroke:#000000;stroke-width:0.8;" x="221.4" xlink:href="#m43cb0b5ac7" y="252"/>
      </g>
     </g>
     <g id="text_2">
      <!-- Z_2_ns -->
      <g transform="translate(204.020312 266.421875)scale(0.1 -0.1)">
       <defs>
        <path d="M 19.1875 8.296875 
L 53.609375 8.296875 
L 53.609375 0 
L 7.328125 0 
L 7.328125 8.296875 
Q 12.9375 14.109375 22.625 23.890625 
Q 32.328125 33.6875 34.8125 36.53125 
Q 39.546875 41.84375 41.421875 45.53125 
Q 43.3125 49.21875 43.3125 52.78125 
Q 43.3125 58.59375 39.234375 62.25 
Q 35.15625 65.921875 28.609375 65.921875 
Q 23.96875 65.921875 18.8125 64.3125 
Q 13.671875 62.703125 7.8125 59.421875 
L 7.8125 69.390625 
Q 13.765625 71.78125 18.9375 73 
Q 24.125 74.21875 28.421875 74.21875 
Q 39.75 74.21875 46.484375 68.546875 
Q 53.21875 62.890625 53.21875 53.421875 
Q 53.21875 48.921875 51.53125 44.890625 
Q 49.859375 40.875 45.40625 35.40625 
Q 44.1875 33.984375 37.640625 27.21875 
Q 31.109375 20.453125 19.1875 8.296875 
z
" id="DejaVuSans-50"/>
       </defs>
       <use xlink:href="#DejaVuSans-90"/>
       <use x="68.505859" xlink:href="#DejaVuSans-95"/>
       <use x="118.505859" xlink:href="#DejaVuSans-50"/>
       <use x="182.128906" xlink:href="#DejaVuSans-95"/>
       <use x="232.128906" xlink:href="#DejaVuSans-110"/>
       <use x="295.507812" xlink:href="#DejaVuSans-115"/>
      </g>
     </g>
    </g>
    <g id="xtick_3">
     <g id="line2d_3">
      <g>
       <use style="stroke:#000000;stroke-width:0.8;" x="333" xlink:href="#m43cb0b5ac7" y="252"/>
      </g>
     </g>
     <g id="text_3">
      <!-- Z_3_ns -->
      <g transform="translate(315.620313 266.421875)scale(0.1 -0.1)">
       <defs>
        <path d="M 40.578125 39.3125 
Q 47.65625 37.796875 51.625 33 
Q 55.609375 28.21875 55.609375 21.1875 
Q 55.609375 10.40625 48.1875 4.484375 
Q 40.765625 -1.421875 27.09375 -1.421875 
Q 22.515625 -1.421875 17.65625 -0.515625 
Q 12.796875 0.390625 7.625 2.203125 
L 7.625 11.71875 
Q 11.71875 9.328125 16.59375 8.109375 
Q 21.484375 6.890625 26.8125 6.890625 
Q 36.078125 6.890625 40.9375 10.546875 
Q 45.796875 14.203125 45.796875 21.1875 
Q 45.796875 27.640625 41.28125 31.265625 
Q 36.765625 34.90625 28.71875 34.90625 
L 20.21875 34.90625 
L 20.21875 43.015625 
L 29.109375 43.015625 
Q 36.375 43.015625 40.234375 45.921875 
Q 44.09375 48.828125 44.09375 54.296875 
Q 44.09375 59.90625 40.109375 62.90625 
Q 36.140625 65.921875 28.71875 65.921875 
Q 24.65625 65.921875 20.015625 65.03125 
Q 15.375 64.15625 9.8125 62.3125 
L 9.8125 71.09375 
Q 15.4375 72.65625 20.34375 73.4375 
Q 25.25 74.21875 29.59375 74.21875 
Q 40.828125 74.21875 47.359375 69.109375 
Q 53.90625 64.015625 53.90625 55.328125 
Q 53.90625 49.265625 50.4375 45.09375 
Q 46.96875 40.921875 40.578125 39.3125 
z
" id="DejaVuSans-51"/>
       </defs>
       <use xlink:href="#DejaVuSans-90"/>
       <use x="68.505859" xlink:href="#DejaVuSans-95"/>
       <use x="118.505859" xlink:href="#DejaVuSans-51"/>
       <use x="182.128906" xlink:href="#DejaVuSans-95"/>
       <use x="232.128906" xlink:href="#DejaVuSans-110"/>
       <use x="295.507812" xlink:href="#DejaVuSans-115"/>
      </g>
     </g>
    </g>
    <g id="text_4">
     <!-- set -->
     <g transform="translate(213.758594 280.378125)scale(0.1 -0.1)">
      <defs>
       <path d="M 56.203125 29.59375 
L 56.203125 25.203125 
L 14.890625 25.203125 
Q 15.484375 15.921875 20.484375 11.0625 
Q 25.484375 6.203125 34.421875 6.203125 
Q 39.59375 6.203125 44.453125 7.46875 
Q 49.3125 8.734375 54.109375 11.28125 
L 54.109375 2.78125 
Q 49.265625 0.734375 44.1875 -0.34375 
Q 39.109375 -1.421875 33.890625 -1.421875 
Q 20.796875 -1.421875 13.15625 6.1875 
Q 5.515625 13.8125 5.515625 26.8125 
Q 5.515625 40.234375 12.765625 48.109375 
Q 20.015625 56 32.328125 56 
Q 43.359375 56 49.78125 48.890625 
Q 56.203125 41.796875 56.203125 29.59375 
z
M 47.21875 32.234375 
Q 47.125 39.59375 43.09375 43.984375 
Q 39.0625 48.390625 32.421875 48.390625 
Q 24.90625 48.390625 20.390625 44.140625 
Q 15.875 39.890625 15.1875 32.171875 
z
" id="DejaVuSans-101"/>
       <path d="M 18.3125 70.21875 
L 18.3125 54.6875 
L 36.8125 54.6875 
L 36.8125 47.703125 
L 18.3125 47.703125 
L 18.3125 18.015625 
Q 18.3125 11.328125 20.140625 9.421875 
Q 21.96875 7.515625 27.59375 7.515625 
L 36.8125 7.515625 
L 36.8125 0 
L 27.59375 0 
Q 17.1875 0 13.234375 3.875 
Q 9.28125 7.765625 9.28125 18.015625 
L 9.28125 47.703125 
L 2.6875 47.703125 
L 2.6875 54.6875 
L 9.28125 54.6875 
L 9.28125 70.21875 
z
" id="DejaVuSans-116"/>
      </defs>
      <use xlink:href="#DejaVuSans-115"/>
      <use x="52.099609" xlink:href="#DejaVuSans-101"/>
      <use x="113.623047" xlink:href="#DejaVuSans-116"/>
     </g>
    </g>
   </g>
   <g id="matplotlib.axis_2">
    <g id="ytick_1">
     <g id="line2d_4">
      <defs>
       <path d="M 0 0 
L -3.5 0 
" id="mbb0563e719" style="stroke:#000000;stroke-width:0.8;"/>
      </defs>
      <g>
       <use style="stroke:#000000;stroke-width:0.8;" x="54" xlink:href="#mbb0563e719" y="212.214262"/>
      </g>
     </g>
     <g id="text_5">
      <!-- 0 -->
      <g transform="translate(40.6375 216.01348)scale(0.1 -0.1)">
       <defs>
        <path d="M 31.78125 66.40625 
Q 24.171875 66.40625 20.328125 58.90625 
Q 16.5 51.421875 16.5 36.375 
Q 16.5 21.390625 20.328125 13.890625 
Q 24.171875 6.390625 31.78125 6.390625 
Q 39.453125 6.390625 43.28125 13.890625 
Q 47.125 21.390625 47.125 36.375 
Q 47.125 51.421875 43.28125 58.90625 
Q 39.453125 66.40625 31.78125 66.40625 
z
M 31.78125 74.21875 
Q 44.046875 74.21875 50.515625 64.515625 
Q 56.984375 54.828125 56.984375 36.375 
Q 56.984375 17.96875 50.515625 8.265625 
Q 44.046875 -1.421875 31.78125 -1.421875 
Q 19.53125 -1.421875 13.0625 8.265625 
Q 6.59375 17.96875 6.59375 36.375 
Q 6.59375 54.828125 13.0625 64.515625 
Q 19.53125 74.21875 31.78125 74.21875 
z
" id="DejaVuSans-48"/>
       </defs>
       <use xlink:href="#DejaVuSans-48"/>
      </g>
     </g>
    </g>
    <g id="ytick_2">
     <g id="line2d_5">
      <g>
       <use style="stroke:#000000;stroke-width:0.8;" x="54" xlink:href="#mbb0563e719" y="164.927222"/>
      </g>
     </g>
     <g id="text_6">
      <!-- 10 -->
      <g transform="translate(34.275 168.726441)scale(0.1 -0.1)">
       <use xlink:href="#DejaVuSans-49"/>
       <use x="63.623047" xlink:href="#DejaVuSans-48"/>
      </g>
     </g>
    </g>
    <g id="ytick_3">
     <g id="line2d_6">
      <g>
       <use style="stroke:#000000;stroke-width:0.8;" x="54" xlink:href="#mbb0563e719" y="117.640183"/>
      </g>
     </g>
     <g id="text_7">
      <!-- 20 -->
      <g transform="translate(34.275 121.439402)scale(0.1 -0.1)">
       <use xlink:href="#DejaVuSans-50"/>
       <use x="63.623047" xlink:href="#DejaVuSans-48"/>
      </g>
     </g>
    </g>
    <g id="ytick_4">
     <g id="line2d_7">
      <g>
       <use style="stroke:#000000;stroke-width:0.8;" x="54" xlink:href="#mbb0563e719" y="70.353144"/>
      </g>
     </g>
     <g id="text_8">
      <!-- 30 -->
      <g transform="translate(34.275 74.152362)scale(0.1 -0.1)">
       <use xlink:href="#DejaVuSans-51"/>
       <use x="63.623047" xlink:href="#DejaVuSans-48"/>
      </g>
     </g>
    </g>
    <g id="text_9">
     <!-- value -->
     <g transform="translate(28.195312 156.937813)rotate(-90)scale(0.1 -0.1)">
      <defs>
       <path d="M 2.984375 54.6875 
L 12.5 54.6875 
L 29.59375 8.796875 
L 46.6875 54.6875 
L 56.203125 54.6875 
L 35.6875 0 
L 23.484375 0 
z
" id="DejaVuSans-118"/>
       <path d="M 34.28125 27.484375 
Q 23.390625 27.484375 19.1875 25 
Q 14.984375 22.515625 14.984375 16.5 
Q 14.984375 11.71875 18.140625 8.90625 
Q 21.296875 6.109375 26.703125 6.109375 
Q 34.1875 6.109375 38.703125 11.40625 
Q 43.21875 16.703125 43.21875 25.484375 
L 43.21875 27.484375 
z
M 52.203125 31.203125 
L 52.203125 0 
L 43.21875 0 
L 43.21875 8.296875 
Q 40.140625 3.328125 35.546875 0.953125 
Q 30.953125 -1.421875 24.3125 -1.421875 
Q 15.921875 -1.421875 10.953125 3.296875 
Q 6 8.015625 6 15.921875 
Q 6 25.140625 12.171875 29.828125 
Q 18.359375 34.515625 30.609375 34.515625 
L 43.21875 34.515625 
L 43.21875 35.40625 
Q 43.21875 41.609375 39.140625 45 
Q 35.0625 48.390625 27.6875 48.390625 
Q 23 48.390625 18.546875 47.265625 
Q 14.109375 46.140625 10.015625 43.890625 
L 10.015625 52.203125 
Q 14.9375 54.109375 19.578125 55.046875 
Q 24.21875 56 28.609375 56 
Q 40.484375 56 46.34375 49.84375 
Q 52.203125 43.703125 52.203125 31.203125 
z
" id="DejaVuSans-97"/>
       <path d="M 9.421875 75.984375 
L 18.40625 75.984375 
L 18.40625 0 
L 9.421875 0 
z
" id="DejaVuSans-108"/>
       <path d="M 8.5 21.578125 
L 8.5 54.6875 
L 17.484375 54.6875 
L 17.484375 21.921875 
Q 17.484375 14.15625 20.5 10.265625 
Q 23.53125 6.390625 29.59375 6.390625 
Q 36.859375 6.390625 41.078125 11.03125 
Q 45.3125 15.671875 45.3125 23.6875 
L 45.3125 54.6875 
L 54.296875 54.6875 
L 54.296875 0 
L 45.3125 0 
L 45.3125 8.40625 
Q 42.046875 3.421875 37.71875 1 
Q 33.40625 -1.421875 27.6875 -1.421875 
Q 18.265625 -1.421875 13.375 4.4375 
Q 8.5 10.296875 8.5 21.578125 
z
M 31.109375 56 
z
" id="DejaVuSans-117"/>
      </defs>
      <use xlink:href="#DejaVuSans-118"/>
      <use x="59.179688" xlink:href="#DejaVuSans-97"/>
      <use x="120.458984" xlink:href="#DejaVuSans-108"/>
      <use x="148.242188" xlink:href="#DejaVuSans-117"/>
      <use x="211.621094" xlink:href="#DejaVuSans-101"/>
     </g>
    </g>
   </g>
   <g id="line2d_8">
    <path clip-path="url(#p9fa97feafe)" d="M 80.04 208.155056 
L 80.04 65.104063 
" style="fill:none;stroke:#3d3d3d;stroke-linecap:square;stroke-width:1.5;"/>
   </g>
   <g id="line2d_9">
    <path clip-path="url(#p9fa97feafe)" d="M 80.04 154.455645 
L 80.04 118.513633 
" style="fill:none;stroke:#3d3d3d;stroke-linecap:square;stroke-width:4.5;"/>
   </g>
   <g id="line2d_10">
    <path clip-path="url(#p9fa97feafe)" d="M 221.4 218.583184 
L 221.4 62.820452 
" style="fill:none;stroke:#3d3d3d;stroke-linecap:square;stroke-width:1.5;"/>
   </g>
   <g id="line2d_11">
    <path clip-path="url(#p9fa97feafe)" d="M 221.4 161.166676 
L 221.4 121.596011 
" style="fill:none;stroke:#3d3d3d;stroke-linecap:square;stroke-width:4.5;"/>
   </g>
   <g id="line2d_12">
    <path clip-path="url(#p9fa97feafe)" d="M 362.76 215.092875 
L 362.76 69.629698 
" style="fill:none;stroke:#3d3d3d;stroke-linecap:square;stroke-width:1.5;"/>
   </g>
   <g id="line2d_13">
    <path clip-path="url(#p9fa97feafe)" d="M 362.76 161.132538 
L 362.76 124.378961 
" style="fill:none;stroke:#3d3d3d;stroke-linecap:square;stroke-width:4.5;"/>
   </g>
   <g id="patch_6">
    <path d="M 54 252 
L 54 34.56 
" style="fill:none;stroke:#000000;stroke-linecap:square;stroke-linejoin:miter;stroke-width:0.8;"/>
   </g>
   <g id="patch_7">
    <path d="M 388.8 252 
L 388.8 34.56 
" style="fill:none;stroke:#000000;stroke-linecap:square;stroke-linejoin:miter;stroke-width:0.8;"/>
   </g>
   <g id="patch_8">
    <path d="M 54 252 
L 388.8 252 
" style="fill:none;stroke:#000000;stroke-linecap:square;stroke-linejoin:miter;stroke-width:0.8;"/>
   </g>
   <g id="patch_9">
    <path d="M 54 34.56 
L 388.8 34.56 
" style="fill:none;stroke:#000000;stroke-linecap:square;stroke-linejoin:miter;stroke-width:0.8;"/>
   </g>
   <g id="PathCollection_1">
    <defs>
     <path d="M 0 1.5 
C 0.397805 1.5 0.77937 1.341951 1.06066 1.06066 
C 1.341951 0.77937 1.5 0.397805 1.5 0 
C 1.5 -0.397805 1.341951 -0.77937 1.06066 -1.06066 
C 0.77937 -1.341951 0.397805 -1.5 0 -1.5 
C -0.397805 -1.5 -0.77937 -1.341951 -1.06066 -1.06066 
C -1.341951 -0.77937 -1.5 -0.397805 -1.5 0 
C -1.5 0.397805 -1.341951 0.77937 -1.06066 1.06066 
C -0.77937 1.341951 -0.397805 1.5 0 1.5 
z
" id="m7e69c7452a" style="stroke:#3d3d3d;"/>
    </defs>
    <g clip-path="url(#p9fa97feafe)">
     <use style="fill:#ffffff;stroke:#3d3d3d;" x="80.04" xlink:href="#m7e69c7452a" y="137.045341"/>
    </g>
   </g>
   <g id="PathCollection_2">
    <g clip-path="url(#p9fa97feafe)">
     <use style="fill:#ffffff;stroke:#3d3d3d;" x="221.4" xlink:href="#m7e69c7452a" y="141.323726"/>
    </g>
   </g>
   <g id="PathCollection_3">
    <g clip-path="url(#p9fa97feafe)">
     <use style="fill:#ffffff;stroke:#3d3d3d;" x="362.76" xlink:href="#m7e69c7452a" y="143.472196"/>
    </g>
   </g>
   <g id="legend_1">
    <g id="patch_10">
     <path d="M 315.040625 102.106875 
L 381.8 102.106875 
Q 383.8 102.106875 383.8 100.106875 
L 383.8 41.56 
Q 383.8 39.56 381.8 39.56 
L 315.040625 39.56 
Q 313.040625 39.56 313.040625 41.56 
L 313.040625 100.106875 
Q 313.040625 102.106875 315.040625 102.106875 
z
" style="fill:#ffffff;opacity:0.8;stroke:#cccccc;stroke-linejoin:miter;"/>
    </g>
    <g id="text_10">
     <!-- set -->
     <g transform="translate(340.778906 51.158437)scale(0.1 -0.1)">
      <use xlink:href="#DejaVuSans-115"/>
      <use x="52.099609" xlink:href="#DejaVuSans-101"/>
      <use x="113.623047" xlink:href="#DejaVuSans-116"/>
     </g>
    </g>
    <g id="patch_11">
     <path d="M 317.040625 65.836562 
L 337.040625 65.836562 
L 337.040625 58.836562 
L 317.040625 58.836562 
z
" style="fill:#3274a1;stroke:#3d3d3d;stroke-linejoin:miter;stroke-width:0.75;"/>
    </g>
    <g id="text_11">
     <!-- Z_1_ns -->
     <g transform="translate(345.040625 65.836562)scale(0.1 -0.1)">
      <use xlink:href="#DejaVuSans-90"/>
      <use x="68.505859" xlink:href="#DejaVuSans-95"/>
      <use x="118.505859" xlink:href="#DejaVuSans-49"/>
      <use x="182.128906" xlink:href="#DejaVuSans-95"/>
      <use x="232.128906" xlink:href="#DejaVuSans-110"/>
      <use x="295.507812" xlink:href="#DejaVuSans-115"/>
     </g>
    </g>
    <g id="patch_12">
     <path d="M 317.040625 80.792812 
L 337.040625 80.792812 
L 337.040625 73.792812 
L 317.040625 73.792812 
z
" style="fill:#e1812c;stroke:#3d3d3d;stroke-linejoin:miter;stroke-width:0.75;"/>
    </g>
    <g id="text_12">
     <!-- Z_2_ns -->
     <g transform="translate(345.040625 80.792812)scale(0.1 -0.1)">
      <use xlink:href="#DejaVuSans-90"/>
      <use x="68.505859" xlink:href="#DejaVuSans-95"/>
      <use x="118.505859" xlink:href="#DejaVuSans-50"/>
      <use x="182.128906" xlink:href="#DejaVuSans-95"/>
      <use x="232.128906" xlink:href="#DejaVuSans-110"/>
      <use x="295.507812" xlink:href="#DejaVuSans-115"/>
     </g>
    </g>
    <g id="patch_13">
     <path d="M 317.040625 95.749062 
L 337.040625 95.749062 
L 337.040625 88.749062 
L 317.040625 88.749062 
z
" style="fill:#3a923a;stroke:#3d3d3d;stroke-linejoin:miter;stroke-width:0.75;"/>
    </g>
    <g id="text_13">
     <!-- Z_3_ns -->
     <g transform="translate(345.040625 95.749062)scale(0.1 -0.1)">
      <use xlink:href="#DejaVuSans-90"/>
      <use x="68.505859" xlink:href="#DejaVuSans-95"/>
      <use x="118.505859" xlink:href="#DejaVuSans-51"/>
      <use x="182.128906" xlink:href="#DejaVuSans-95"/>
      <use x="232.128906" xlink:href="#DejaVuSans-110"/>
      <use x="295.507812" xlink:href="#DejaVuSans-115"/>
     </g>
    </g>
   </g>
  </g>
 </g>
 <defs>
  <clipPath id="p9fa97feafe">
   <rect height="217.44" width="334.8" x="54" y="34.56"/>
  </clipPath>
 </defs>
</svg>
