<?xml version="1.0" encoding="utf-8" standalone="no"?>
<!DOCTYPE svg PUBLIC "-//W3C//DTD SVG 1.1//EN"
  "http://www.w3.org/Graphics/SVG/1.1/DTD/svg11.dtd">
<!-- Created with matplotlib (https://matplotlib.org/) -->
<svg height="288pt" version="1.1" viewBox="0 0 432 288" width="432pt" xmlns="http://www.w3.org/2000/svg" xmlns:xlink="http://www.w3.org/1999/xlink">
 <metadata>
  <rdf:RDF xmlns:cc="http://creativecommons.org/ns#" xmlns:dc="http://purl.org/dc/elements/1.1/" xmlns:rdf="http://www.w3.org/1999/02/22-rdf-syntax-ns#">
   <cc:Work>
    <dc:type rdf:resource="http://purl.org/dc/dcmitype/StillImage"/>
    <dc:date>2022-05-27T17:54:50.752476</dc:date>
    <dc:format>image/svg+xml</dc:format>
    <dc:creator>
     <cc:Agent>
      <dc:title>Matplotlib v3.3.4, https://matplotlib.org/</dc:title>
     </cc:Agent>
    </dc:creator>
   </cc:Work>
  </rdf:RDF>
 </metadata>
 <defs>
  <style type="text/css">*{stroke-linecap:butt;stroke-linejoin:round;}</style>
 </defs>
 <g id="figure_1">
  <g id="patch_1">
   <path d="M 0 288 
L 432 288 
L 432 0 
L 0 0 
z
" style="fill:#ffffff;"/>
  </g>
  <g id="axes_1">
   <g id="patch_2">
    <path d="M 54 252 
L 388.8 252 
L 388.8 34.56 
L 54 34.56 
z
" style="fill:#ffffff;"/>
   </g>
   <g id="PolyCollection_1">
    <defs>
     <path d="M 80.132178 -45.883636 
L 79.947822 -45.883636 
L 79.944329 -47.870275 
L 79.949053 -49.856913 
L 79.960061 -51.843551 
L 79.973765 -53.830189 
L 79.986163 -55.816827 
L 79.993943 -57.803466 
L 79.995088 -59.790104 
L 79.988968 -61.776742 
L 79.97615 -63.76338 
L 79.958113 -65.750018 
L 79.936954 -67.736657 
L 79.915037 -69.723295 
L 79.894516 -71.709933 
L 79.876808 -73.696571 
L 79.862214 -75.68321 
L 79.849912 -77.669848 
L 79.838366 -79.656486 
L 79.825927 -81.643124 
L 79.811337 -83.629762 
L 79.79396 -85.616401 
L 79.773764 -87.603039 
L 79.751103 -89.589677 
L 79.726323 -91.576315 
L 79.699316 -93.562953 
L 79.669362 -95.549592 
L 79.635692 -97.53623 
L 79.598674 -99.522868 
L 79.560897 -101.509506 
L 79.527161 -103.496145 
L 79.502968 -105.482783 
L 79.49213 -107.469421 
L 79.494774 -109.456059 
L 79.506903 -111.442697 
L 79.521853 -113.429336 
L 79.532933 -115.415974 
L 79.535807 -117.402612 
L 79.529332 -119.38925 
L 79.514486 -121.375888 
L 79.492257 -123.362527 
L 79.461965 -125.349165 
L 79.421039 -127.335803 
L 79.366249 -129.322441 
L 79.295523 -131.30908 
L 79.209259 -133.295718 
L 79.110434 -135.282356 
L 79.003525 -137.268994 
L 78.892895 -139.255632 
L 78.781503 -141.242271 
L 78.670446 -143.228909 
L 78.559206 -145.215547 
L 78.446111 -147.202185 
L 78.328768 -149.188823 
L 78.204512 -151.175462 
L 78.070976 -153.1621 
L 77.926582 -155.148738 
L 77.770584 -157.135376 
L 77.602629 -159.122014 
L 77.422108 -161.108653 
L 77.227712 -163.095291 
L 77.017316 -165.081929 
L 76.78807 -167.068567 
L 76.536757 -169.055206 
L 76.260717 -171.041844 
L 75.959526 -173.028482 
L 75.636692 -175.01512 
L 75.299798 -177.001758 
L 74.957868 -178.988397 
L 74.616589 -180.975035 
L 74.274011 -182.961673 
L 73.919798 -184.948311 
L 73.539433 -186.934949 
L 73.121916 -188.921588 
L 72.667037 -190.908226 
L 72.187781 -192.894864 
L 71.705541 -194.881502 
L 71.240146 -196.868141 
L 70.800381 -198.854779 
L 70.380726 -200.841417 
L 69.965669 -202.828055 
L 69.537661 -204.814693 
L 69.082991 -206.801332 
L 68.593188 -208.78797 
L 68.064455 -210.774608 
L 67.499327 -212.761246 
L 66.911678 -214.747884 
L 66.331743 -216.734523 
L 65.806675 -218.721161 
L 65.395318 -220.707799 
L 65.160098 -222.694437 
L 65.16 -224.681075 
L 65.445798 -226.667714 
L 66.055201 -228.654352 
L 67.005017 -230.64099 
L 68.280589 -232.627628 
L 69.826943 -234.614267 
L 71.547919 -236.600905 
L 73.31725 -238.587543 
L 75.00053 -240.574181 
L 76.481729 -242.560819 
L 83.598271 -242.560819 
L 83.598271 -242.560819 
L 85.07947 -240.574181 
L 86.76275 -238.587543 
L 88.532081 -236.600905 
L 90.253057 -234.614267 
L 91.799411 -232.627628 
L 93.074983 -230.64099 
L 94.024799 -228.654352 
L 94.634202 -226.667714 
L 94.92 -224.681075 
L 94.919902 -222.694437 
L 94.684682 -220.707799 
L 94.273325 -218.721161 
L 93.748257 -216.734523 
L 93.168322 -214.747884 
L 92.580673 -212.761246 
L 92.015545 -210.774608 
L 91.486812 -208.78797 
L 90.997009 -206.801332 
L 90.542339 -204.814693 
L 90.114331 -202.828055 
L 89.699274 -200.841417 
L 89.279619 -198.854779 
L 88.839854 -196.868141 
L 88.374459 -194.881502 
L 87.892219 -192.894864 
L 87.412963 -190.908226 
L 86.958084 -188.921588 
L 86.540567 -186.934949 
L 86.160202 -184.948311 
L 85.805989 -182.961673 
L 85.463411 -180.975035 
L 85.122132 -178.988397 
L 84.780202 -177.001758 
L 84.443308 -175.01512 
L 84.120474 -173.028482 
L 83.819283 -171.041844 
L 83.543243 -169.055206 
L 83.29193 -167.068567 
L 83.062684 -165.081929 
L 82.852288 -163.095291 
L 82.657892 -161.108653 
L 82.477371 -159.122014 
L 82.309416 -157.135376 
L 82.153418 -155.148738 
L 82.009024 -153.1621 
L 81.875488 -151.175462 
L 81.751232 -149.188823 
L 81.633889 -147.202185 
L 81.520794 -145.215547 
L 81.409554 -143.228909 
L 81.298497 -141.242271 
L 81.187105 -139.255632 
L 81.076475 -137.268994 
L 80.969566 -135.282356 
L 80.870741 -133.295718 
L 80.784477 -131.30908 
L 80.713751 -129.322441 
L 80.658961 -127.335803 
L 80.618035 -125.349165 
L 80.587743 -123.362527 
L 80.565514 -121.375888 
L 80.550668 -119.38925 
L 80.544193 -117.402612 
L 80.547067 -115.415974 
L 80.558147 -113.429336 
L 80.573097 -111.442697 
L 80.585226 -109.456059 
L 80.58787 -107.469421 
L 80.577032 -105.482783 
L 80.552839 -103.496145 
L 80.519103 -101.509506 
L 80.481326 -99.522868 
L 80.444308 -97.53623 
L 80.410638 -95.549592 
L 80.380684 -93.562953 
L 80.353677 -91.576315 
L 80.328897 -89.589677 
L 80.306236 -87.603039 
L 80.28604 -85.616401 
L 80.268663 -83.629762 
L 80.254073 -81.643124 
L 80.241634 -79.656486 
L 80.230088 -77.669848 
L 80.217786 -75.68321 
L 80.203192 -73.696571 
L 80.185484 -71.709933 
L 80.164963 -69.723295 
L 80.143046 -67.736657 
L 80.121887 -65.750018 
L 80.10385 -63.76338 
L 80.091032 -61.776742 
L 80.084912 -59.790104 
L 80.086057 -57.803466 
L 80.093837 -55.816827 
L 80.106235 -53.830189 
L 80.119939 -51.843551 
L 80.130947 -49.856913 
L 80.135671 -47.870275 
L 80.132178 -45.883636 
z
" id="maeabfffa49" style="stroke:#3d3d3d;stroke-width:1.5;"/>
    </defs>
    <g clip-path="url(#pa03d17f91a)">
     <use style="fill:#3274a1;stroke:#3d3d3d;stroke-width:1.5;" x="0" xlink:href="#maeabfffa49" y="288"/>
    </g>
   </g>
   <g id="PolyCollection_2">
    <defs>
     <path d="M 221.709344 -46.452502 
L 221.090656 -46.452502 
L 221.023607 -48.418137 
L 220.955785 -50.383773 
L 220.891216 -52.349409 
L 220.833974 -54.315044 
L 220.787571 -56.28068 
L 220.75438 -58.246315 
L 220.735223 -60.211951 
L 220.729215 -62.177586 
L 220.733908 -64.143222 
L 220.745701 -66.108857 
L 220.760435 -68.074493 
L 220.774073 -70.040128 
L 220.783316 -72.005764 
L 220.786078 -73.9714 
L 220.781705 -75.937035 
L 220.770931 -77.902671 
L 220.755569 -79.868306 
L 220.738021 -81.833942 
L 220.720727 -83.799577 
L 220.705671 -85.765213 
L 220.694065 -87.730848 
L 220.686238 -89.696484 
L 220.681737 -91.66212 
L 220.679551 -93.627755 
L 220.678396 -95.593391 
L 220.67695 -97.559026 
L 220.674012 -99.524662 
L 220.668557 -101.490297 
L 220.659705 -103.455933 
L 220.646629 -105.421568 
L 220.628445 -107.387204 
L 220.604109 -109.352839 
L 220.572365 -111.318475 
L 220.531772 -113.284111 
L 220.480823 -115.249746 
L 220.418182 -117.215382 
L 220.342978 -119.181017 
L 220.255138 -121.146653 
L 220.155648 -123.112288 
L 220.046674 -125.077924 
L 219.93148 -127.043559 
L 219.814098 -129.009195 
L 219.698778 -130.97483 
L 219.589289 -132.940466 
L 219.488162 -134.906102 
L 219.396031 -136.871737 
L 219.311186 -138.837373 
L 219.22949 -140.803008 
L 219.144711 -142.768644 
L 219.049286 -144.734279 
L 218.935424 -146.699915 
L 218.796359 -148.66555 
L 218.627517 -150.631186 
L 218.427363 -152.596821 
L 218.197736 -154.562457 
L 217.943606 -156.528093 
L 217.672299 -158.493728 
L 217.392334 -160.459364 
L 217.112058 -162.424999 
L 216.838283 -164.390635 
L 216.575105 -166.35627 
L 216.323025 -168.321906 
L 216.07853 -170.287541 
L 215.834218 -172.253177 
L 215.579539 -174.218813 
L 215.30215 -176.184448 
L 214.989731 -178.150084 
L 214.631985 -180.115719 
L 214.222445 -182.081355 
L 213.759705 -184.04699 
L 213.247805 -186.012626 
L 212.695713 -187.978261 
L 212.116065 -189.943897 
L 211.523481 -191.909532 
L 210.932808 -193.875168 
L 210.35757 -195.840804 
L 209.808806 -197.806439 
L 209.294363 -199.772075 
L 208.818675 -201.73771 
L 208.383086 -203.703346 
L 207.986749 -205.668981 
L 207.628082 -207.634617 
L 207.306624 -209.600252 
L 207.024979 -211.565888 
L 206.790453 -213.531523 
L 206.61597 -215.497159 
L 206.52 -217.462795 
L 206.525397 -219.42843 
L 206.657226 -221.394066 
L 206.939776 -223.359701 
L 207.393052 -225.325337 
L 208.029125 -227.290972 
L 208.848815 -229.256608 
L 209.839309 -231.222243 
L 210.97335 -233.187879 
L 212.210464 -235.153514 
L 213.500357 -237.11915 
L 214.788123 -239.084786 
L 216.020391 -241.050421 
L 226.779609 -241.050421 
L 226.779609 -241.050421 
L 228.011877 -239.084786 
L 229.299643 -237.11915 
L 230.589536 -235.153514 
L 231.82665 -233.187879 
L 232.960691 -231.222243 
L 233.951185 -229.256608 
L 234.770875 -227.290972 
L 235.406948 -225.325337 
L 235.860224 -223.359701 
L 236.142774 -221.394066 
L 236.274603 -219.42843 
L 236.28 -217.462795 
L 236.18403 -215.497159 
L 236.009547 -213.531523 
L 235.775021 -211.565888 
L 235.493376 -209.600252 
L 235.171918 -207.634617 
L 234.813251 -205.668981 
L 234.416914 -203.703346 
L 233.981325 -201.73771 
L 233.505637 -199.772075 
L 232.991194 -197.806439 
L 232.44243 -195.840804 
L 231.867192 -193.875168 
L 231.276519 -191.909532 
L 230.683935 -189.943897 
L 230.104287 -187.978261 
L 229.552195 -186.012626 
L 229.040295 -184.04699 
L 228.577555 -182.081355 
L 228.168015 -180.115719 
L 227.810269 -178.150084 
L 227.49785 -176.184448 
L 227.220461 -174.218813 
L 226.965782 -172.253177 
L 226.72147 -170.287541 
L 226.476975 -168.321906 
L 226.224895 -166.35627 
L 225.961717 -164.390635 
L 225.687942 -162.424999 
L 225.407666 -160.459364 
L 225.127701 -158.493728 
L 224.856394 -156.528093 
L 224.602264 -154.562457 
L 224.372637 -152.596821 
L 224.172483 -150.631186 
L 224.003641 -148.66555 
L 223.864576 -146.699915 
L 223.750714 -144.734279 
L 223.655289 -142.768644 
L 223.57051 -140.803008 
L 223.488814 -138.837373 
L 223.403969 -136.871737 
L 223.311838 -134.906102 
L 223.210711 -132.940466 
L 223.101222 -130.97483 
L 222.985902 -129.009195 
L 222.86852 -127.043559 
L 222.753326 -125.077924 
L 222.644352 -123.112288 
L 222.544862 -121.146653 
L 222.457022 -119.181017 
L 222.381818 -117.215382 
L 222.319177 -115.249746 
L 222.268228 -113.284111 
L 222.227635 -111.318475 
L 222.195891 -109.352839 
L 222.171555 -107.387204 
L 222.153371 -105.421568 
L 222.140295 -103.455933 
L 222.131443 -101.490297 
L 222.125988 -99.524662 
L 222.12305 -97.559026 
L 222.121604 -95.593391 
L 222.120449 -93.627755 
L 222.118263 -91.66212 
L 222.113762 -89.696484 
L 222.105935 -87.730848 
L 222.094329 -85.765213 
L 222.079273 -83.799577 
L 222.061979 -81.833942 
L 222.044431 -79.868306 
L 222.029069 -77.902671 
L 222.018295 -75.937035 
L 222.013922 -73.9714 
L 222.016684 -72.005764 
L 222.025927 -70.040128 
L 222.039565 -68.074493 
L 222.054299 -66.108857 
L 222.066092 -64.143222 
L 222.070785 -62.177586 
L 222.064777 -60.211951 
L 222.04562 -58.246315 
L 222.012429 -56.28068 
L 221.966026 -54.315044 
L 221.908784 -52.349409 
L 221.844215 -50.383773 
L 221.776393 -48.418137 
L 221.709344 -46.452502 
z
" id="mc1110bd138" style="stroke:#3d3d3d;stroke-width:1.5;"/>
    </defs>
    <g clip-path="url(#pa03d17f91a)">
     <use style="fill:#e1812c;stroke:#3d3d3d;stroke-width:1.5;" x="0" xlink:href="#mc1110bd138" y="288"/>
    </g>
   </g>
   <g id="PolyCollection_3">
    <defs>
     <path d="M 363.150971 -47.867911 
L 362.369029 -47.867911 
L 362.304058 -49.844562 
L 362.240368 -51.821213 
L 362.180575 -53.797864 
L 362.127136 -55.774515 
L 362.082098 -57.751166 
L 362.046826 -59.727817 
L 362.021786 -61.704468 
L 362.006404 -63.681119 
L 361.999073 -65.65777 
L 361.997331 -67.634421 
L 361.998219 -69.611072 
L 361.99875 -71.587723 
L 361.996411 -73.564374 
L 361.989573 -75.541025 
L 361.977701 -77.517676 
L 361.96132 -79.494327 
L 361.941734 -81.470978 
L 361.920586 -83.447629 
L 361.899389 -85.42428 
L 361.879143 -87.400931 
L 361.86015 -89.377582 
L 361.842033 -91.354234 
L 361.823941 -93.330885 
L 361.80483 -95.307536 
L 361.783735 -97.284187 
L 361.759946 -99.260838 
L 361.733074 -101.237489 
L 361.703017 -103.21414 
L 361.66988 -105.190791 
L 361.633886 -107.167442 
L 361.595312 -109.144093 
L 361.554425 -111.120744 
L 361.511422 -113.097395 
L 361.466332 -115.074046 
L 361.418928 -117.050697 
L 361.368657 -119.027348 
L 361.314638 -121.003999 
L 361.255743 -122.98065 
L 361.190743 -124.957301 
L 361.118468 -126.933952 
L 361.037918 -128.910603 
L 360.948308 -130.887254 
L 360.849043 -132.863905 
L 360.739681 -134.840556 
L 360.619947 -136.817207 
L 360.4898 -138.793858 
L 360.34956 -140.77051 
L 360.199987 -142.747161 
L 360.042243 -144.723812 
L 359.877682 -146.700463 
L 359.707487 -148.677114 
L 359.532254 -150.653765 
L 359.351671 -152.630416 
L 359.164417 -154.607067 
L 358.968358 -156.583718 
L 358.760984 -158.560369 
L 358.539972 -160.53702 
L 358.303698 -162.513671 
L 358.051559 -164.490322 
L 357.784036 -166.466973 
L 357.502528 -168.443624 
L 357.209077 -170.420275 
L 356.906117 -172.396926 
L 356.596321 -174.373577 
L 356.282561 -176.350228 
L 355.967863 -178.326879 
L 355.655233 -180.30353 
L 355.347214 -182.280181 
L 355.045173 -184.256832 
L 354.748419 -186.233483 
L 354.453422 -188.210135 
L 354.153425 -190.186786 
L 353.838724 -192.163437 
L 353.497751 -194.140088 
L 353.118888 -196.116739 
L 352.692746 -198.09339 
L 352.214474 -200.070041 
L 351.685623 -202.046692 
L 351.115171 -204.023343 
L 350.519492 -205.999994 
L 349.921315 -207.976645 
L 349.347947 -209.953296 
L 348.829175 -211.929947 
L 348.395258 -213.906598 
L 348.075272 -215.883249 
L 347.895833 -217.8599 
L 347.88 -219.836551 
L 348.046094 -221.813202 
L 348.40619 -223.789853 
L 348.96432 -225.766504 
L 349.714651 -227.743155 
L 350.640184 -229.719806 
L 351.712507 -231.696457 
L 352.893039 -233.673108 
L 354.13582 -235.649759 
L 355.391553 -237.626411 
L 356.612243 -239.603062 
L 357.755649 -241.579713 
L 358.7888 -243.556364 
L 366.7312 -243.556364 
L 366.7312 -243.556364 
L 367.764351 -241.579713 
L 368.907757 -239.603062 
L 370.128447 -237.626411 
L 371.38418 -235.649759 
L 372.626961 -233.673108 
L 373.807493 -231.696457 
L 374.879816 -229.719806 
L 375.805349 -227.743155 
L 376.55568 -225.766504 
L 377.11381 -223.789853 
L 377.473906 -221.813202 
L 377.64 -219.836551 
L 377.624167 -217.8599 
L 377.444728 -215.883249 
L 377.124742 -213.906598 
L 376.690825 -211.929947 
L 376.172053 -209.953296 
L 375.598685 -207.976645 
L 375.000508 -205.999994 
L 374.404829 -204.023343 
L 373.834377 -202.046692 
L 373.305526 -200.070041 
L 372.827254 -198.09339 
L 372.401112 -196.116739 
L 372.022249 -194.140088 
L 371.681276 -192.163437 
L 371.366575 -190.186786 
L 371.066578 -188.210135 
L 370.771581 -186.233483 
L 370.474827 -184.256832 
L 370.172786 -182.280181 
L 369.864767 -180.30353 
L 369.552137 -178.326879 
L 369.237439 -176.350228 
L 368.923679 -174.373577 
L 368.613883 -172.396926 
L 368.310923 -170.420275 
L 368.017472 -168.443624 
L 367.735964 -166.466973 
L 367.468441 -164.490322 
L 367.216302 -162.513671 
L 366.980028 -160.53702 
L 366.759016 -158.560369 
L 366.551642 -156.583718 
L 366.355583 -154.607067 
L 366.168329 -152.630416 
L 365.987746 -150.653765 
L 365.812513 -148.677114 
L 365.642318 -146.700463 
L 365.477757 -144.723812 
L 365.320013 -142.747161 
L 365.17044 -140.77051 
L 365.0302 -138.793858 
L 364.900053 -136.817207 
L 364.780319 -134.840556 
L 364.670957 -132.863905 
L 364.571692 -130.887254 
L 364.482082 -128.910603 
L 364.401532 -126.933952 
L 364.329257 -124.957301 
L 364.264257 -122.98065 
L 364.205362 -121.003999 
L 364.151343 -119.027348 
L 364.101072 -117.050697 
L 364.053668 -115.074046 
L 364.008578 -113.097395 
L 363.965575 -111.120744 
L 363.924688 -109.144093 
L 363.886114 -107.167442 
L 363.85012 -105.190791 
L 363.816983 -103.21414 
L 363.786926 -101.237489 
L 363.760054 -99.260838 
L 363.736265 -97.284187 
L 363.71517 -95.307536 
L 363.696059 -93.330885 
L 363.677967 -91.354234 
L 363.65985 -89.377582 
L 363.640857 -87.400931 
L 363.620611 -85.42428 
L 363.599414 -83.447629 
L 363.578266 -81.470978 
L 363.55868 -79.494327 
L 363.542299 -77.517676 
L 363.530427 -75.541025 
L 363.523589 -73.564374 
L 363.52125 -71.587723 
L 363.521781 -69.611072 
L 363.522669 -67.634421 
L 363.520927 -65.65777 
L 363.513596 -63.681119 
L 363.498214 -61.704468 
L 363.473174 -59.727817 
L 363.437902 -57.751166 
L 363.392864 -55.774515 
L 363.339425 -53.797864 
L 363.279632 -51.821213 
L 363.215942 -49.844562 
L 363.150971 -47.867911 
z
" id="me306b4e93e" style="stroke:#3d3d3d;stroke-width:1.5;"/>
    </defs>
    <g clip-path="url(#pa03d17f91a)">
     <use style="fill:#3a923a;stroke:#3d3d3d;stroke-width:1.5;" x="0" xlink:href="#me306b4e93e" y="288"/>
    </g>
   </g>
   <g id="patch_3">
    <path clip-path="url(#pa03d17f91a)" d="M 109.8 242.290589 
L 109.8 242.290589 
L 109.8 242.290589 
L 109.8 242.290589 
z
" style="fill:#3274a1;stroke:#3d3d3d;stroke-linejoin:miter;stroke-width:0.75;"/>
   </g>
   <g id="patch_4">
    <path clip-path="url(#pa03d17f91a)" d="M 109.8 242.290589 
L 109.8 242.290589 
L 109.8 242.290589 
L 109.8 242.290589 
z
" style="fill:#e1812c;stroke:#3d3d3d;stroke-linejoin:miter;stroke-width:0.75;"/>
   </g>
   <g id="patch_5">
    <path clip-path="url(#pa03d17f91a)" d="M 109.8 242.290589 
L 109.8 242.290589 
L 109.8 242.290589 
L 109.8 242.290589 
z
" style="fill:#3a923a;stroke:#3d3d3d;stroke-linejoin:miter;stroke-width:0.75;"/>
   </g>
   <g id="matplotlib.axis_1">
    <g id="xtick_1">
     <g id="line2d_1">
      <defs>
       <path d="M 0 0 
L 0 3.5 
" id="mb205254720" style="stroke:#000000;stroke-width:0.8;"/>
      </defs>
      <g>
       <use style="stroke:#000000;stroke-width:0.8;" x="109.8" xlink:href="#mb205254720" y="252"/>
      </g>
     </g>
     <g id="text_1">
      <!-- train -->
      <g transform="translate(98.1625 266.598437)scale(0.1 -0.1)">
       <defs>
        <path d="M 18.3125 70.21875 
L 18.3125 54.6875 
L 36.8125 54.6875 
L 36.8125 47.703125 
L 18.3125 47.703125 
L 18.3125 18.015625 
Q 18.3125 11.328125 20.140625 9.421875 
Q 21.96875 7.515625 27.59375 7.515625 
L 36.8125 7.515625 
L 36.8125 0 
L 27.59375 0 
Q 17.1875 0 13.234375 3.875 
Q 9.28125 7.765625 9.28125 18.015625 
L 9.28125 47.703125 
L 2.6875 47.703125 
L 2.6875 54.6875 
L 9.28125 54.6875 
L 9.28125 70.21875 
z
" id="DejaVuSans-116"/>
        <path d="M 41.109375 46.296875 
Q 39.59375 47.171875 37.8125 47.578125 
Q 36.03125 48 33.890625 48 
Q 26.265625 48 22.1875 43.046875 
Q 18.109375 38.09375 18.109375 28.8125 
L 18.109375 0 
L 9.078125 0 
L 9.078125 54.6875 
L 18.109375 54.6875 
L 18.109375 46.1875 
Q 20.953125 51.171875 25.484375 53.578125 
Q 30.03125 56 36.53125 56 
Q 37.453125 56 38.578125 55.875 
Q 39.703125 55.765625 41.0625 55.515625 
z
" id="DejaVuSans-114"/>
        <path d="M 34.28125 27.484375 
Q 23.390625 27.484375 19.1875 25 
Q 14.984375 22.515625 14.984375 16.5 
Q 14.984375 11.71875 18.140625 8.90625 
Q 21.296875 6.109375 26.703125 6.109375 
Q 34.1875 6.109375 38.703125 11.40625 
Q 43.21875 16.703125 43.21875 25.484375 
L 43.21875 27.484375 
z
M 52.203125 31.203125 
L 52.203125 0 
L 43.21875 0 
L 43.21875 8.296875 
Q 40.140625 3.328125 35.546875 0.953125 
Q 30.953125 -1.421875 24.3125 -1.421875 
Q 15.921875 -1.421875 10.953125 3.296875 
Q 6 8.015625 6 15.921875 
Q 6 25.140625 12.171875 29.828125 
Q 18.359375 34.515625 30.609375 34.515625 
L 43.21875 34.515625 
L 43.21875 35.40625 
Q 43.21875 41.609375 39.140625 45 
Q 35.0625 48.390625 27.6875 48.390625 
Q 23 48.390625 18.546875 47.265625 
Q 14.109375 46.140625 10.015625 43.890625 
L 10.015625 52.203125 
Q 14.9375 54.109375 19.578125 55.046875 
Q 24.21875 56 28.609375 56 
Q 40.484375 56 46.34375 49.84375 
Q 52.203125 43.703125 52.203125 31.203125 
z
" id="DejaVuSans-97"/>
        <path d="M 9.421875 54.6875 
L 18.40625 54.6875 
L 18.40625 0 
L 9.421875 0 
z
M 9.421875 75.984375 
L 18.40625 75.984375 
L 18.40625 64.59375 
L 9.421875 64.59375 
z
" id="DejaVuSans-105"/>
        <path d="M 54.890625 33.015625 
L 54.890625 0 
L 45.90625 0 
L 45.90625 32.71875 
Q 45.90625 40.484375 42.875 44.328125 
Q 39.84375 48.1875 33.796875 48.1875 
Q 26.515625 48.1875 22.3125 43.546875 
Q 18.109375 38.921875 18.109375 30.90625 
L 18.109375 0 
L 9.078125 0 
L 9.078125 54.6875 
L 18.109375 54.6875 
L 18.109375 46.1875 
Q 21.34375 51.125 25.703125 53.5625 
Q 30.078125 56 35.796875 56 
Q 45.21875 56 50.046875 50.171875 
Q 54.890625 44.34375 54.890625 33.015625 
z
" id="DejaVuSans-110"/>
       </defs>
       <use xlink:href="#DejaVuSans-116"/>
       <use x="39.208984" xlink:href="#DejaVuSans-114"/>
       <use x="80.322266" xlink:href="#DejaVuSans-97"/>
       <use x="141.601562" xlink:href="#DejaVuSans-105"/>
       <use x="169.384766" xlink:href="#DejaVuSans-110"/>
      </g>
     </g>
    </g>
    <g id="xtick_2">
     <g id="line2d_2">
      <g>
       <use style="stroke:#000000;stroke-width:0.8;" x="221.4" xlink:href="#mb205254720" y="252"/>
      </g>
     </g>
     <g id="text_2">
      <!-- val -->
      <g transform="translate(213.9875 266.598437)scale(0.1 -0.1)">
       <defs>
        <path d="M 2.984375 54.6875 
L 12.5 54.6875 
L 29.59375 8.796875 
L 46.6875 54.6875 
L 56.203125 54.6875 
L 35.6875 0 
L 23.484375 0 
z
" id="DejaVuSans-118"/>
        <path d="M 9.421875 75.984375 
L 18.40625 75.984375 
L 18.40625 0 
L 9.421875 0 
z
" id="DejaVuSans-108"/>
       </defs>
       <use xlink:href="#DejaVuSans-118"/>
       <use x="59.179688" xlink:href="#DejaVuSans-97"/>
       <use x="120.458984" xlink:href="#DejaVuSans-108"/>
      </g>
     </g>
    </g>
    <g id="xtick_3">
     <g id="line2d_3">
      <g>
       <use style="stroke:#000000;stroke-width:0.8;" x="333" xlink:href="#mb205254720" y="252"/>
      </g>
     </g>
     <g id="text_3">
      <!-- test -->
      <g transform="translate(323.398438 266.598437)scale(0.1 -0.1)">
       <defs>
        <path d="M 56.203125 29.59375 
L 56.203125 25.203125 
L 14.890625 25.203125 
Q 15.484375 15.921875 20.484375 11.0625 
Q 25.484375 6.203125 34.421875 6.203125 
Q 39.59375 6.203125 44.453125 7.46875 
Q 49.3125 8.734375 54.109375 11.28125 
L 54.109375 2.78125 
Q 49.265625 0.734375 44.1875 -0.34375 
Q 39.109375 -1.421875 33.890625 -1.421875 
Q 20.796875 -1.421875 13.15625 6.1875 
Q 5.515625 13.8125 5.515625 26.8125 
Q 5.515625 40.234375 12.765625 48.109375 
Q 20.015625 56 32.328125 56 
Q 43.359375 56 49.78125 48.890625 
Q 56.203125 41.796875 56.203125 29.59375 
z
M 47.21875 32.234375 
Q 47.125 39.59375 43.09375 43.984375 
Q 39.0625 48.390625 32.421875 48.390625 
Q 24.90625 48.390625 20.390625 44.140625 
Q 15.875 39.890625 15.1875 32.171875 
z
" id="DejaVuSans-101"/>
        <path d="M 44.28125 53.078125 
L 44.28125 44.578125 
Q 40.484375 46.53125 36.375 47.5 
Q 32.28125 48.484375 27.875 48.484375 
Q 21.1875 48.484375 17.84375 46.4375 
Q 14.5 44.390625 14.5 40.28125 
Q 14.5 37.15625 16.890625 35.375 
Q 19.28125 33.59375 26.515625 31.984375 
L 29.59375 31.296875 
Q 39.15625 29.25 43.1875 25.515625 
Q 47.21875 21.78125 47.21875 15.09375 
Q 47.21875 7.46875 41.1875 3.015625 
Q 35.15625 -1.421875 24.609375 -1.421875 
Q 20.21875 -1.421875 15.453125 -0.5625 
Q 10.6875 0.296875 5.421875 2 
L 5.421875 11.28125 
Q 10.40625 8.6875 15.234375 7.390625 
Q 20.0625 6.109375 24.8125 6.109375 
Q 31.15625 6.109375 34.5625 8.28125 
Q 37.984375 10.453125 37.984375 14.40625 
Q 37.984375 18.0625 35.515625 20.015625 
Q 33.0625 21.96875 24.703125 23.78125 
L 21.578125 24.515625 
Q 13.234375 26.265625 9.515625 29.90625 
Q 5.8125 33.546875 5.8125 39.890625 
Q 5.8125 47.609375 11.28125 51.796875 
Q 16.75 56 26.8125 56 
Q 31.78125 56 36.171875 55.265625 
Q 40.578125 54.546875 44.28125 53.078125 
z
" id="DejaVuSans-115"/>
       </defs>
       <use xlink:href="#DejaVuSans-116"/>
       <use x="39.208984" xlink:href="#DejaVuSans-101"/>
       <use x="100.732422" xlink:href="#DejaVuSans-115"/>
       <use x="152.832031" xlink:href="#DejaVuSans-116"/>
      </g>
     </g>
    </g>
    <g id="text_4">
     <!-- set -->
     <g transform="translate(213.758594 280.276563)scale(0.1 -0.1)">
      <use xlink:href="#DejaVuSans-115"/>
      <use x="52.099609" xlink:href="#DejaVuSans-101"/>
      <use x="113.623047" xlink:href="#DejaVuSans-116"/>
     </g>
    </g>
   </g>
   <g id="matplotlib.axis_2">
    <g id="ytick_1">
     <g id="line2d_4">
      <defs>
       <path d="M 0 0 
L -3.5 0 
" id="m29fdd6870d" style="stroke:#000000;stroke-width:0.8;"/>
      </defs>
      <g>
       <use style="stroke:#000000;stroke-width:0.8;" x="54" xlink:href="#m29fdd6870d" y="242.290589"/>
      </g>
     </g>
     <g id="text_5">
      <!-- 0.0 -->
      <g transform="translate(31.096875 246.089807)scale(0.1 -0.1)">
       <defs>
        <path d="M 31.78125 66.40625 
Q 24.171875 66.40625 20.328125 58.90625 
Q 16.5 51.421875 16.5 36.375 
Q 16.5 21.390625 20.328125 13.890625 
Q 24.171875 6.390625 31.78125 6.390625 
Q 39.453125 6.390625 43.28125 13.890625 
Q 47.125 21.390625 47.125 36.375 
Q 47.125 51.421875 43.28125 58.90625 
Q 39.453125 66.40625 31.78125 66.40625 
z
M 31.78125 74.21875 
Q 44.046875 74.21875 50.515625 64.515625 
Q 56.984375 54.828125 56.984375 36.375 
Q 56.984375 17.96875 50.515625 8.265625 
Q 44.046875 -1.421875 31.78125 -1.421875 
Q 19.53125 -1.421875 13.0625 8.265625 
Q 6.59375 17.96875 6.59375 36.375 
Q 6.59375 54.828125 13.0625 64.515625 
Q 19.53125 74.21875 31.78125 74.21875 
z
" id="DejaVuSans-48"/>
        <path d="M 10.6875 12.40625 
L 21 12.40625 
L 21 0 
L 10.6875 0 
z
" id="DejaVuSans-46"/>
       </defs>
       <use xlink:href="#DejaVuSans-48"/>
       <use x="63.623047" xlink:href="#DejaVuSans-46"/>
       <use x="95.410156" xlink:href="#DejaVuSans-48"/>
      </g>
     </g>
    </g>
    <g id="ytick_2">
     <g id="line2d_5">
      <g>
       <use style="stroke:#000000;stroke-width:0.8;" x="54" xlink:href="#m29fdd6870d" y="201.883528"/>
      </g>
     </g>
     <g id="text_6">
      <!-- 0.2 -->
      <g transform="translate(31.096875 205.682747)scale(0.1 -0.1)">
       <defs>
        <path d="M 19.1875 8.296875 
L 53.609375 8.296875 
L 53.609375 0 
L 7.328125 0 
L 7.328125 8.296875 
Q 12.9375 14.109375 22.625 23.890625 
Q 32.328125 33.6875 34.8125 36.53125 
Q 39.546875 41.84375 41.421875 45.53125 
Q 43.3125 49.21875 43.3125 52.78125 
Q 43.3125 58.59375 39.234375 62.25 
Q 35.15625 65.921875 28.609375 65.921875 
Q 23.96875 65.921875 18.8125 64.3125 
Q 13.671875 62.703125 7.8125 59.421875 
L 7.8125 69.390625 
Q 13.765625 71.78125 18.9375 73 
Q 24.125 74.21875 28.421875 74.21875 
Q 39.75 74.21875 46.484375 68.546875 
Q 53.21875 62.890625 53.21875 53.421875 
Q 53.21875 48.921875 51.53125 44.890625 
Q 49.859375 40.875 45.40625 35.40625 
Q 44.1875 33.984375 37.640625 27.21875 
Q 31.109375 20.453125 19.1875 8.296875 
z
" id="DejaVuSans-50"/>
       </defs>
       <use xlink:href="#DejaVuSans-48"/>
       <use x="63.623047" xlink:href="#DejaVuSans-46"/>
       <use x="95.410156" xlink:href="#DejaVuSans-50"/>
      </g>
     </g>
    </g>
    <g id="ytick_3">
     <g id="line2d_6">
      <g>
       <use style="stroke:#000000;stroke-width:0.8;" x="54" xlink:href="#m29fdd6870d" y="161.476467"/>
      </g>
     </g>
     <g id="text_7">
      <!-- 0.4 -->
      <g transform="translate(31.096875 165.275686)scale(0.1 -0.1)">
       <defs>
        <path d="M 37.796875 64.3125 
L 12.890625 25.390625 
L 37.796875 25.390625 
z
M 35.203125 72.90625 
L 47.609375 72.90625 
L 47.609375 25.390625 
L 58.015625 25.390625 
L 58.015625 17.1875 
L 47.609375 17.1875 
L 47.609375 0 
L 37.796875 0 
L 37.796875 17.1875 
L 4.890625 17.1875 
L 4.890625 26.703125 
z
" id="DejaVuSans-52"/>
       </defs>
       <use xlink:href="#DejaVuSans-48"/>
       <use x="63.623047" xlink:href="#DejaVuSans-46"/>
       <use x="95.410156" xlink:href="#DejaVuSans-52"/>
      </g>
     </g>
    </g>
    <g id="ytick_4">
     <g id="line2d_7">
      <g>
       <use style="stroke:#000000;stroke-width:0.8;" x="54" xlink:href="#m29fdd6870d" y="121.069406"/>
      </g>
     </g>
     <g id="text_8">
      <!-- 0.6 -->
      <g transform="translate(31.096875 124.868625)scale(0.1 -0.1)">
       <defs>
        <path d="M 33.015625 40.375 
Q 26.375 40.375 22.484375 35.828125 
Q 18.609375 31.296875 18.609375 23.390625 
Q 18.609375 15.53125 22.484375 10.953125 
Q 26.375 6.390625 33.015625 6.390625 
Q 39.65625 6.390625 43.53125 10.953125 
Q 47.40625 15.53125 47.40625 23.390625 
Q 47.40625 31.296875 43.53125 35.828125 
Q 39.65625 40.375 33.015625 40.375 
z
M 52.59375 71.296875 
L 52.59375 62.3125 
Q 48.875 64.0625 45.09375 64.984375 
Q 41.3125 65.921875 37.59375 65.921875 
Q 27.828125 65.921875 22.671875 59.328125 
Q 17.53125 52.734375 16.796875 39.40625 
Q 19.671875 43.65625 24.015625 45.921875 
Q 28.375 48.1875 33.59375 48.1875 
Q 44.578125 48.1875 50.953125 41.515625 
Q 57.328125 34.859375 57.328125 23.390625 
Q 57.328125 12.15625 50.6875 5.359375 
Q 44.046875 -1.421875 33.015625 -1.421875 
Q 20.359375 -1.421875 13.671875 8.265625 
Q 6.984375 17.96875 6.984375 36.375 
Q 6.984375 53.65625 15.1875 63.9375 
Q 23.390625 74.21875 37.203125 74.21875 
Q 40.921875 74.21875 44.703125 73.484375 
Q 48.484375 72.75 52.59375 71.296875 
z
" id="DejaVuSans-54"/>
       </defs>
       <use xlink:href="#DejaVuSans-48"/>
       <use x="63.623047" xlink:href="#DejaVuSans-46"/>
       <use x="95.410156" xlink:href="#DejaVuSans-54"/>
      </g>
     </g>
    </g>
    <g id="ytick_5">
     <g id="line2d_8">
      <g>
       <use style="stroke:#000000;stroke-width:0.8;" x="54" xlink:href="#m29fdd6870d" y="80.662345"/>
      </g>
     </g>
     <g id="text_9">
      <!-- 0.8 -->
      <g transform="translate(31.096875 84.461564)scale(0.1 -0.1)">
       <defs>
        <path d="M 31.78125 34.625 
Q 24.75 34.625 20.71875 30.859375 
Q 16.703125 27.09375 16.703125 20.515625 
Q 16.703125 13.921875 20.71875 10.15625 
Q 24.75 6.390625 31.78125 6.390625 
Q 38.8125 6.390625 42.859375 10.171875 
Q 46.921875 13.96875 46.921875 20.515625 
Q 46.921875 27.09375 42.890625 30.859375 
Q 38.875 34.625 31.78125 34.625 
z
M 21.921875 38.8125 
Q 15.578125 40.375 12.03125 44.71875 
Q 8.5 49.078125 8.5 55.328125 
Q 8.5 64.0625 14.71875 69.140625 
Q 20.953125 74.21875 31.78125 74.21875 
Q 42.671875 74.21875 48.875 69.140625 
Q 55.078125 64.0625 55.078125 55.328125 
Q 55.078125 49.078125 51.53125 44.71875 
Q 48 40.375 41.703125 38.8125 
Q 48.828125 37.15625 52.796875 32.3125 
Q 56.78125 27.484375 56.78125 20.515625 
Q 56.78125 9.90625 50.3125 4.234375 
Q 43.84375 -1.421875 31.78125 -1.421875 
Q 19.734375 -1.421875 13.25 4.234375 
Q 6.78125 9.90625 6.78125 20.515625 
Q 6.78125 27.484375 10.78125 32.3125 
Q 14.796875 37.15625 21.921875 38.8125 
z
M 18.3125 54.390625 
Q 18.3125 48.734375 21.84375 45.5625 
Q 25.390625 42.390625 31.78125 42.390625 
Q 38.140625 42.390625 41.71875 45.5625 
Q 45.3125 48.734375 45.3125 54.390625 
Q 45.3125 60.0625 41.71875 63.234375 
Q 38.140625 66.40625 31.78125 66.40625 
Q 25.390625 66.40625 21.84375 63.234375 
Q 18.3125 60.0625 18.3125 54.390625 
z
" id="DejaVuSans-56"/>
       </defs>
       <use xlink:href="#DejaVuSans-48"/>
       <use x="63.623047" xlink:href="#DejaVuSans-46"/>
       <use x="95.410156" xlink:href="#DejaVuSans-56"/>
      </g>
     </g>
    </g>
    <g id="ytick_6">
     <g id="line2d_9">
      <g>
       <use style="stroke:#000000;stroke-width:0.8;" x="54" xlink:href="#m29fdd6870d" y="40.255284"/>
      </g>
     </g>
     <g id="text_10">
      <!-- 1.0 -->
      <g transform="translate(31.096875 44.054503)scale(0.1 -0.1)">
       <defs>
        <path d="M 12.40625 8.296875 
L 28.515625 8.296875 
L 28.515625 63.921875 
L 10.984375 60.40625 
L 10.984375 69.390625 
L 28.421875 72.90625 
L 38.28125 72.90625 
L 38.28125 8.296875 
L 54.390625 8.296875 
L 54.390625 0 
L 12.40625 0 
z
" id="DejaVuSans-49"/>
       </defs>
       <use xlink:href="#DejaVuSans-49"/>
       <use x="63.623047" xlink:href="#DejaVuSans-46"/>
       <use x="95.410156" xlink:href="#DejaVuSans-48"/>
      </g>
     </g>
    </g>
    <g id="text_11">
     <!-- value -->
     <g transform="translate(25.017187 156.937813)rotate(-90)scale(0.1 -0.1)">
      <defs>
       <path d="M 8.5 21.578125 
L 8.5 54.6875 
L 17.484375 54.6875 
L 17.484375 21.921875 
Q 17.484375 14.15625 20.5 10.265625 
Q 23.53125 6.390625 29.59375 6.390625 
Q 36.859375 6.390625 41.078125 11.03125 
Q 45.3125 15.671875 45.3125 23.6875 
L 45.3125 54.6875 
L 54.296875 54.6875 
L 54.296875 0 
L 45.3125 0 
L 45.3125 8.40625 
Q 42.046875 3.421875 37.71875 1 
Q 33.40625 -1.421875 27.6875 -1.421875 
Q 18.265625 -1.421875 13.375 4.4375 
Q 8.5 10.296875 8.5 21.578125 
z
M 31.109375 56 
z
" id="DejaVuSans-117"/>
      </defs>
      <use xlink:href="#DejaVuSans-118"/>
      <use x="59.179688" xlink:href="#DejaVuSans-97"/>
      <use x="120.458984" xlink:href="#DejaVuSans-108"/>
      <use x="148.242188" xlink:href="#DejaVuSans-117"/>
      <use x="211.621094" xlink:href="#DejaVuSans-101"/>
     </g>
    </g>
   </g>
   <g id="line2d_10">
    <path clip-path="url(#pa03d17f91a)" d="M 80.04 151.284038 
L 80.04 45.439181 
" style="fill:none;stroke:#3d3d3d;stroke-linecap:square;stroke-width:1.5;"/>
   </g>
   <g id="line2d_11">
    <path clip-path="url(#pa03d17f91a)" d="M 80.04 98.552087 
L 80.04 63.380201 
" style="fill:none;stroke:#3d3d3d;stroke-linecap:square;stroke-width:4.5;"/>
   </g>
   <g id="line2d_12">
    <path clip-path="url(#pa03d17f91a)" d="M 221.4 167.903122 
L 221.4 46.949579 
" style="fill:none;stroke:#3d3d3d;stroke-linecap:square;stroke-width:1.5;"/>
   </g>
   <g id="line2d_13">
    <path clip-path="url(#pa03d17f91a)" d="M 221.4 107.313716 
L 221.4 66.734737 
" style="fill:none;stroke:#3d3d3d;stroke-linecap:square;stroke-width:4.5;"/>
   </g>
   <g id="line2d_14">
    <path clip-path="url(#pa03d17f91a)" d="M 362.76 178.68182 
L 362.76 44.443636 
" style="fill:none;stroke:#3d3d3d;stroke-linecap:square;stroke-width:1.5;"/>
   </g>
   <g id="line2d_15">
    <path clip-path="url(#pa03d17f91a)" d="M 362.76 111.514336 
L 362.76 66.619239 
" style="fill:none;stroke:#3d3d3d;stroke-linecap:square;stroke-width:4.5;"/>
   </g>
   <g id="patch_6">
    <path d="M 54 252 
L 54 34.56 
" style="fill:none;stroke:#000000;stroke-linecap:square;stroke-linejoin:miter;stroke-width:0.8;"/>
   </g>
   <g id="patch_7">
    <path d="M 388.8 252 
L 388.8 34.56 
" style="fill:none;stroke:#000000;stroke-linecap:square;stroke-linejoin:miter;stroke-width:0.8;"/>
   </g>
   <g id="patch_8">
    <path d="M 54 252 
L 388.8 252 
" style="fill:none;stroke:#000000;stroke-linecap:square;stroke-linejoin:miter;stroke-width:0.8;"/>
   </g>
   <g id="patch_9">
    <path d="M 54 34.56 
L 388.8 34.56 
" style="fill:none;stroke:#000000;stroke-linecap:square;stroke-linejoin:miter;stroke-width:0.8;"/>
   </g>
   <g id="PathCollection_1">
    <defs>
     <path d="M 0 1.5 
C 0.397805 1.5 0.77937 1.341951 1.06066 1.06066 
C 1.341951 0.77937 1.5 0.397805 1.5 0 
C 1.5 -0.397805 1.341951 -0.77937 1.06066 -1.06066 
C 0.77937 -1.341951 0.397805 -1.5 0 -1.5 
C -0.397805 -1.5 -0.77937 -1.341951 -1.06066 -1.06066 
C -1.341951 -0.77937 -1.5 -0.397805 -1.5 0 
C -1.5 0.397805 -1.341951 0.77937 -1.06066 1.06066 
C -0.77937 1.341951 -0.397805 1.5 0 1.5 
z
" id="m13da0d8ed0" style="stroke:#3d3d3d;"/>
    </defs>
    <g clip-path="url(#pa03d17f91a)">
     <use style="fill:#ffffff;stroke:#3d3d3d;" x="80.04" xlink:href="#m13da0d8ed0" y="77.482179"/>
    </g>
   </g>
   <g id="PathCollection_2">
    <g clip-path="url(#pa03d17f91a)">
     <use style="fill:#ffffff;stroke:#3d3d3d;" x="221.4" xlink:href="#m13da0d8ed0" y="83.05495"/>
    </g>
   </g>
   <g id="PathCollection_3">
    <g clip-path="url(#pa03d17f91a)">
     <use style="fill:#ffffff;stroke:#3d3d3d;" x="362.76" xlink:href="#m13da0d8ed0" y="82.270813"/>
    </g>
   </g>
   <g id="legend_1">
    <g id="patch_10">
     <path d="M 326.525 247 
L 381.8 247 
Q 383.8 247 383.8 245 
L 383.8 187.2875 
Q 383.8 185.2875 381.8 185.2875 
L 326.525 185.2875 
Q 324.525 185.2875 324.525 187.2875 
L 324.525 245 
Q 324.525 247 326.525 247 
z
" style="fill:#ffffff;opacity:0.8;stroke:#cccccc;stroke-linejoin:miter;"/>
    </g>
    <g id="text_12">
     <!-- set -->
     <g transform="translate(346.521094 196.885938)scale(0.1 -0.1)">
      <use xlink:href="#DejaVuSans-115"/>
      <use x="52.099609" xlink:href="#DejaVuSans-101"/>
      <use x="113.623047" xlink:href="#DejaVuSans-116"/>
     </g>
    </g>
    <g id="patch_11">
     <path d="M 328.525 211.564063 
L 348.525 211.564063 
L 348.525 204.564063 
L 328.525 204.564063 
z
" style="fill:#3274a1;stroke:#3d3d3d;stroke-linejoin:miter;stroke-width:0.75;"/>
    </g>
    <g id="text_13">
     <!-- train -->
     <g transform="translate(356.525 211.564063)scale(0.1 -0.1)">
      <use xlink:href="#DejaVuSans-116"/>
      <use x="39.208984" xlink:href="#DejaVuSans-114"/>
      <use x="80.322266" xlink:href="#DejaVuSans-97"/>
      <use x="141.601562" xlink:href="#DejaVuSans-105"/>
      <use x="169.384766" xlink:href="#DejaVuSans-110"/>
     </g>
    </g>
    <g id="patch_12">
     <path d="M 328.525 226.242188 
L 348.525 226.242188 
L 348.525 219.242188 
L 328.525 219.242188 
z
" style="fill:#e1812c;stroke:#3d3d3d;stroke-linejoin:miter;stroke-width:0.75;"/>
    </g>
    <g id="text_14">
     <!-- val -->
     <g transform="translate(356.525 226.242188)scale(0.1 -0.1)">
      <use xlink:href="#DejaVuSans-118"/>
      <use x="59.179688" xlink:href="#DejaVuSans-97"/>
      <use x="120.458984" xlink:href="#DejaVuSans-108"/>
     </g>
    </g>
    <g id="patch_13">
     <path d="M 328.525 240.920313 
L 348.525 240.920313 
L 348.525 233.920313 
L 328.525 233.920313 
z
" style="fill:#3a923a;stroke:#3d3d3d;stroke-linejoin:miter;stroke-width:0.75;"/>
    </g>
    <g id="text_15">
     <!-- test -->
     <g transform="translate(356.525 240.920313)scale(0.1 -0.1)">
      <use xlink:href="#DejaVuSans-116"/>
      <use x="39.208984" xlink:href="#DejaVuSans-101"/>
      <use x="100.732422" xlink:href="#DejaVuSans-115"/>
      <use x="152.832031" xlink:href="#DejaVuSans-116"/>
     </g>
    </g>
   </g>
  </g>
 </g>
 <defs>
  <clipPath id="pa03d17f91a">
   <rect height="217.44" width="334.8" x="54" y="34.56"/>
  </clipPath>
 </defs>
</svg>
