<?xml version="1.0" encoding="utf-8" standalone="no"?>
<!DOCTYPE svg PUBLIC "-//W3C//DTD SVG 1.1//EN"
  "http://www.w3.org/Graphics/SVG/1.1/DTD/svg11.dtd">
<!-- Created with matplotlib (https://matplotlib.org/) -->
<svg height="288pt" version="1.1" viewBox="0 0 432 288" width="432pt" xmlns="http://www.w3.org/2000/svg" xmlns:xlink="http://www.w3.org/1999/xlink">
 <metadata>
  <rdf:RDF xmlns:cc="http://creativecommons.org/ns#" xmlns:dc="http://purl.org/dc/elements/1.1/" xmlns:rdf="http://www.w3.org/1999/02/22-rdf-syntax-ns#">
   <cc:Work>
    <dc:type rdf:resource="http://purl.org/dc/dcmitype/StillImage"/>
    <dc:date>2022-04-17T18:31:35.217241</dc:date>
    <dc:format>image/svg+xml</dc:format>
    <dc:creator>
     <cc:Agent>
      <dc:title>Matplotlib v3.3.4, https://matplotlib.org/</dc:title>
     </cc:Agent>
    </dc:creator>
   </cc:Work>
  </rdf:RDF>
 </metadata>
 <defs>
  <style type="text/css">*{stroke-linecap:butt;stroke-linejoin:round;}</style>
 </defs>
 <g id="figure_1">
  <g id="patch_1">
   <path d="M 0 288 
L 432 288 
L 432 0 
L 0 0 
z
" style="fill:#ffffff;"/>
  </g>
  <g id="axes_1">
   <g id="patch_2">
    <path d="M 54 252 
L 388.8 252 
L 388.8 34.56 
L 54 34.56 
z
" style="fill:#ffffff;"/>
   </g>
   <g id="PolyCollection_1">
    <defs>
     <path d="M 80.077426 -45.883636 
L 80.002574 -45.883636 
L 80.00503 -47.880331 
L 80.011756 -49.877025 
L 80.016948 -51.873719 
L 80.01683 -53.870413 
L 80.011857 -55.867107 
L 80.005049 -57.863802 
L 79.999349 -59.860496 
L 79.996472 -61.85719 
L 79.996687 -63.853884 
L 79.998292 -65.850579 
L 79.997355 -67.847273 
L 79.988788 -69.843967 
L 79.96833 -71.840661 
L 79.934633 -73.837355 
L 79.890707 -75.83405 
L 79.842591 -77.830744 
L 79.795211 -79.827438 
L 79.750365 -81.824132 
L 79.708877 -83.820826 
L 79.671067 -85.817521 
L 79.634097 -87.814215 
L 79.593187 -89.810909 
L 79.546484 -91.807603 
L 79.49521 -93.804298 
L 79.439856 -95.800992 
L 79.379471 -97.797686 
L 79.312194 -99.79438 
L 79.233482 -101.791074 
L 79.13806 -103.787769 
L 79.029147 -105.784463 
L 78.925653 -107.781157 
L 78.856731 -109.777851 
L 78.843967 -111.774545 
L 78.883271 -113.77124 
L 78.941973 -115.767934 
L 78.97334 -117.764628 
L 78.935021 -119.761322 
L 78.80267 -121.758017 
L 78.57972 -123.754711 
L 78.295494 -125.751405 
L 77.981594 -127.748099 
L 77.644123 -129.744793 
L 77.262227 -131.741488 
L 76.805667 -133.738182 
L 76.236209 -135.734876 
L 75.498361 -137.73157 
L 74.543424 -139.728264 
L 73.382482 -141.724959 
L 72.102657 -143.721653 
L 70.815613 -145.718347 
L 69.590152 -147.715041 
L 68.438331 -149.711736 
L 67.363599 -151.70843 
L 66.413583 -153.705124 
L 65.679858 -155.701818 
L 65.249339 -157.698512 
L 65.16 -159.695207 
L 65.396529 -161.691901 
L 65.916478 -163.688595 
L 66.679067 -165.685289 
L 67.655802 -167.681983 
L 68.813138 -169.678678 
L 70.079649 -171.675372 
L 71.338818 -173.672066 
L 72.475557 -175.66876 
L 73.441186 -177.665455 
L 74.270446 -179.662149 
L 75.034611 -181.658843 
L 75.777807 -183.655537 
L 76.489361 -185.652231 
L 77.12712 -187.648926 
L 77.662324 -189.64562 
L 78.099575 -191.642314 
L 78.459616 -193.639008 
L 78.75684 -195.635702 
L 78.997586 -197.632397 
L 79.189713 -199.629091 
L 79.344697 -201.625785 
L 79.471078 -203.622479 
L 79.570689 -205.619174 
L 79.643894 -207.615868 
L 79.696827 -209.612562 
L 79.740617 -211.609256 
L 79.784047 -213.60595 
L 79.829026 -215.602645 
L 79.87236 -217.599339 
L 79.91002 -219.596033 
L 79.939911 -221.592727 
L 79.961905 -223.589421 
L 79.976716 -225.586116 
L 79.985684 -227.58281 
L 79.991088 -229.579504 
L 79.99529 -231.576198 
L 79.999299 -233.572893 
L 80.002748 -235.569587 
L 80.005235 -237.566281 
L 80.007206 -239.562975 
L 80.009769 -241.559669 
L 80.014023 -243.556364 
L 80.065977 -243.556364 
L 80.065977 -243.556364 
L 80.070231 -241.559669 
L 80.072794 -239.562975 
L 80.074765 -237.566281 
L 80.077252 -235.569587 
L 80.080701 -233.572893 
L 80.08471 -231.576198 
L 80.088912 -229.579504 
L 80.094316 -227.58281 
L 80.103284 -225.586116 
L 80.118095 -223.589421 
L 80.140089 -221.592727 
L 80.16998 -219.596033 
L 80.20764 -217.599339 
L 80.250974 -215.602645 
L 80.295953 -213.60595 
L 80.339383 -211.609256 
L 80.383173 -209.612562 
L 80.436106 -207.615868 
L 80.509311 -205.619174 
L 80.608922 -203.622479 
L 80.735303 -201.625785 
L 80.890287 -199.629091 
L 81.082414 -197.632397 
L 81.32316 -195.635702 
L 81.620384 -193.639008 
L 81.980425 -191.642314 
L 82.417676 -189.64562 
L 82.95288 -187.648926 
L 83.590639 -185.652231 
L 84.302193 -183.655537 
L 85.045389 -181.658843 
L 85.809554 -179.662149 
L 86.638814 -177.665455 
L 87.604443 -175.66876 
L 88.741182 -173.672066 
L 90.000351 -171.675372 
L 91.266862 -169.678678 
L 92.424198 -167.681983 
L 93.400933 -165.685289 
L 94.163522 -163.688595 
L 94.683471 -161.691901 
L 94.92 -159.695207 
L 94.830661 -157.698512 
L 94.400142 -155.701818 
L 93.666417 -153.705124 
L 92.716401 -151.70843 
L 91.641669 -149.711736 
L 90.489848 -147.715041 
L 89.264387 -145.718347 
L 87.977343 -143.721653 
L 86.697518 -141.724959 
L 85.536576 -139.728264 
L 84.581639 -137.73157 
L 83.843791 -135.734876 
L 83.274333 -133.738182 
L 82.817773 -131.741488 
L 82.435877 -129.744793 
L 82.098406 -127.748099 
L 81.784506 -125.751405 
L 81.50028 -123.754711 
L 81.27733 -121.758017 
L 81.144979 -119.761322 
L 81.10666 -117.764628 
L 81.138027 -115.767934 
L 81.196729 -113.77124 
L 81.236033 -111.774545 
L 81.223269 -109.777851 
L 81.154347 -107.781157 
L 81.050853 -105.784463 
L 80.94194 -103.787769 
L 80.846518 -101.791074 
L 80.767806 -99.79438 
L 80.700529 -97.797686 
L 80.640144 -95.800992 
L 80.58479 -93.804298 
L 80.533516 -91.807603 
L 80.486813 -89.810909 
L 80.445903 -87.814215 
L 80.408933 -85.817521 
L 80.371123 -83.820826 
L 80.329635 -81.824132 
L 80.284789 -79.827438 
L 80.237409 -77.830744 
L 80.189293 -75.83405 
L 80.145367 -73.837355 
L 80.11167 -71.840661 
L 80.091212 -69.843967 
L 80.082645 -67.847273 
L 80.081708 -65.850579 
L 80.083313 -63.853884 
L 80.083528 -61.85719 
L 80.080651 -59.860496 
L 80.074951 -57.863802 
L 80.068143 -55.867107 
L 80.06317 -53.870413 
L 80.063052 -51.873719 
L 80.068244 -49.877025 
L 80.07497 -47.880331 
L 80.077426 -45.883636 
z
" id="m92577adfaf" style="stroke:#3d3d3d;stroke-width:1.5;"/>
    </defs>
    <g clip-path="url(#pae1ecf6da9)">
     <use style="fill:#3274a1;stroke:#3d3d3d;stroke-width:1.5;" x="0" xlink:href="#m92577adfaf" y="288"/>
    </g>
   </g>
   <g id="PolyCollection_2">
    <defs>
     <path d="M 221.43982 -60.693758 
L 221.36018 -60.693758 
L 221.346628 -62.501191 
L 221.333914 -64.308624 
L 221.323836 -66.116057 
L 221.318276 -67.92349 
L 221.317373 -69.730923 
L 221.317849 -71.538356 
L 221.31383 -73.345789 
L 221.300856 -75.153222 
L 221.279331 -76.960655 
L 221.252266 -78.768088 
L 221.219668 -80.575521 
L 221.178895 -82.382954 
L 221.132429 -84.190387 
L 221.091668 -85.99782 
L 221.069176 -87.805252 
L 221.068095 -89.612685 
L 221.081117 -91.420118 
L 221.097634 -93.227551 
L 221.108138 -95.034984 
L 221.102309 -96.842417 
L 221.069039 -98.64985 
L 221.005315 -100.457283 
L 220.925236 -102.264716 
L 220.853055 -104.072149 
L 220.804236 -105.879582 
L 220.777736 -107.687015 
L 220.765035 -109.494448 
L 220.757513 -111.301881 
L 220.744 -113.109314 
L 220.709358 -114.916747 
L 220.640846 -116.72418 
L 220.535992 -118.531613 
L 220.40205 -120.339046 
L 220.242571 -122.146479 
L 220.041946 -123.953912 
L 219.769386 -125.761345 
L 219.401693 -127.568777 
L 218.933974 -129.37621 
L 218.365605 -131.183643 
L 217.690325 -132.991076 
L 216.909051 -134.798509 
L 216.038724 -136.605942 
L 215.095521 -138.413375 
L 214.078768 -140.220808 
L 212.982127 -142.028241 
L 211.813945 -143.835674 
L 210.60437 -145.643107 
L 209.407644 -147.45054 
L 208.306572 -149.257973 
L 207.404632 -151.065406 
L 206.795432 -152.872839 
L 206.52 -154.680272 
L 206.541678 -156.487705 
L 206.775722 -158.295138 
L 207.164839 -160.102571 
L 207.720204 -161.910004 
L 208.474157 -163.717437 
L 209.405716 -165.524869 
L 210.431053 -167.332302 
L 211.460993 -169.139735 
L 212.45637 -170.947168 
L 213.429456 -172.754601 
L 214.397904 -174.562034 
L 215.345227 -176.369467 
L 216.233018 -178.1769 
L 217.041104 -179.984333 
L 217.775538 -181.791766 
L 218.439458 -183.599199 
L 219.018232 -185.406632 
L 219.499936 -187.214065 
L 219.893407 -189.021498 
L 220.214398 -190.828931 
L 220.464498 -192.636364 
L 220.637624 -194.443797 
L 220.744549 -196.25123 
L 220.818879 -198.058663 
L 220.894231 -199.866096 
L 220.980304 -201.673529 
L 221.064992 -203.480961 
L 221.13553 -205.288394 
L 221.191255 -207.095827 
L 221.237368 -208.90326 
L 221.273921 -210.710693 
L 221.29488 -212.518126 
L 221.296106 -214.325559 
L 221.282232 -216.132992 
L 221.266082 -217.940425 
L 221.261664 -219.747858 
L 221.276079 -221.555291 
L 221.305855 -223.362724 
L 221.340204 -225.170157 
L 221.368579 -226.97759 
L 221.386285 -228.785023 
L 221.394358 -230.592456 
L 221.395832 -232.399889 
L 221.393016 -234.207322 
L 221.387652 -236.014755 
L 221.382276 -237.822188 
L 221.379989 -239.629621 
L 221.420011 -239.629621 
L 221.420011 -239.629621 
L 221.417724 -237.822188 
L 221.412348 -236.014755 
L 221.406984 -234.207322 
L 221.404168 -232.399889 
L 221.405642 -230.592456 
L 221.413715 -228.785023 
L 221.431421 -226.97759 
L 221.459796 -225.170157 
L 221.494145 -223.362724 
L 221.523921 -221.555291 
L 221.538336 -219.747858 
L 221.533918 -217.940425 
L 221.517768 -216.132992 
L 221.503894 -214.325559 
L 221.50512 -212.518126 
L 221.526079 -210.710693 
L 221.562632 -208.90326 
L 221.608745 -207.095827 
L 221.66447 -205.288394 
L 221.735008 -203.480961 
L 221.819696 -201.673529 
L 221.905769 -199.866096 
L 221.981121 -198.058663 
L 222.055451 -196.25123 
L 222.162376 -194.443797 
L 222.335502 -192.636364 
L 222.585602 -190.828931 
L 222.906593 -189.021498 
L 223.300064 -187.214065 
L 223.781768 -185.406632 
L 224.360542 -183.599199 
L 225.024462 -181.791766 
L 225.758896 -179.984333 
L 226.566982 -178.1769 
L 227.454773 -176.369467 
L 228.402096 -174.562034 
L 229.370544 -172.754601 
L 230.34363 -170.947168 
L 231.339007 -169.139735 
L 232.368947 -167.332302 
L 233.394284 -165.524869 
L 234.325843 -163.717437 
L 235.079796 -161.910004 
L 235.635161 -160.102571 
L 236.024278 -158.295138 
L 236.258322 -156.487705 
L 236.28 -154.680272 
L 236.004568 -152.872839 
L 235.395368 -151.065406 
L 234.493428 -149.257973 
L 233.392356 -147.45054 
L 232.19563 -145.643107 
L 230.986055 -143.835674 
L 229.817873 -142.028241 
L 228.721232 -140.220808 
L 227.704479 -138.413375 
L 226.761276 -136.605942 
L 225.890949 -134.798509 
L 225.109675 -132.991076 
L 224.434395 -131.183643 
L 223.866026 -129.37621 
L 223.398307 -127.568777 
L 223.030614 -125.761345 
L 222.758054 -123.953912 
L 222.557429 -122.146479 
L 222.39795 -120.339046 
L 222.264008 -118.531613 
L 222.159154 -116.72418 
L 222.090642 -114.916747 
L 222.056 -113.109314 
L 222.042487 -111.301881 
L 222.034965 -109.494448 
L 222.022264 -107.687015 
L 221.995764 -105.879582 
L 221.946945 -104.072149 
L 221.874764 -102.264716 
L 221.794685 -100.457283 
L 221.730961 -98.64985 
L 221.697691 -96.842417 
L 221.691862 -95.034984 
L 221.702366 -93.227551 
L 221.718883 -91.420118 
L 221.731905 -89.612685 
L 221.730824 -87.805252 
L 221.708332 -85.99782 
L 221.667571 -84.190387 
L 221.621105 -82.382954 
L 221.580332 -80.575521 
L 221.547734 -78.768088 
L 221.520669 -76.960655 
L 221.499144 -75.153222 
L 221.48617 -73.345789 
L 221.482151 -71.538356 
L 221.482627 -69.730923 
L 221.481724 -67.92349 
L 221.476164 -66.116057 
L 221.466086 -64.308624 
L 221.453372 -62.501191 
L 221.43982 -60.693758 
z
" id="m39a0b988d2" style="stroke:#3d3d3d;stroke-width:1.5;"/>
    </defs>
    <g clip-path="url(#pae1ecf6da9)">
     <use style="fill:#e1812c;stroke:#3d3d3d;stroke-width:1.5;" x="0" xlink:href="#m39a0b988d2" y="288"/>
    </g>
   </g>
   <g id="PolyCollection_3">
    <defs>
     <path d="M 362.784774 -96.194133 
L 362.735226 -96.194133 
L 362.731957 -97.567157 
L 362.727178 -98.940181 
L 362.71832 -100.313204 
L 362.704851 -101.686228 
L 362.688735 -103.059252 
L 362.672527 -104.432276 
L 362.657237 -105.805299 
L 362.642302 -107.178323 
L 362.627197 -108.551347 
L 362.612088 -109.924371 
L 362.596431 -111.297395 
L 362.577114 -112.670418 
L 362.548068 -114.043442 
L 362.501846 -115.416466 
L 362.432653 -116.78949 
L 362.339103 -118.162513 
L 362.223788 -119.535537 
L 362.088634 -120.908561 
L 361.929869 -122.281585 
L 361.73851 -123.654608 
L 361.508272 -125.027632 
L 361.245411 -126.400656 
L 360.970326 -127.77368 
L 360.705659 -129.146703 
L 360.45939 -130.519727 
L 360.218847 -131.892751 
L 359.960274 -133.265775 
L 359.661524 -134.638798 
L 359.305795 -136.011822 
L 358.879342 -137.384846 
L 358.371885 -138.75787 
L 357.778723 -140.130893 
L 357.098909 -141.503917 
L 356.334032 -142.876941 
L 355.496516 -144.249965 
L 354.619884 -145.622989 
L 353.75044 -146.996012 
L 352.918768 -148.369036 
L 352.119742 -149.74206 
L 351.325431 -151.115084 
L 350.51853 -152.488107 
L 349.715827 -153.861131 
L 348.970883 -155.234155 
L 348.364055 -156.607179 
L 347.981392 -157.980202 
L 347.88 -159.353226 
L 348.057324 -160.72625 
L 348.454355 -162.099274 
L 348.995363 -163.472297 
L 349.627346 -164.845321 
L 350.324696 -166.218345 
L 351.066665 -167.591369 
L 351.820623 -168.964392 
L 352.547052 -170.337416 
L 353.216451 -171.71044 
L 353.824941 -173.083464 
L 354.401443 -174.456487 
L 354.998203 -175.829511 
L 355.660918 -177.202535 
L 356.395021 -178.575559 
L 357.157503 -179.948583 
L 357.883843 -181.321606 
L 358.525559 -182.69463 
L 359.068004 -184.067654 
L 359.524133 -185.440678 
L 359.919101 -186.813701 
L 360.275599 -188.186725 
L 360.603336 -189.559749 
L 360.897822 -190.932773 
L 361.149279 -192.305796 
L 361.353126 -193.67882 
L 361.513917 -195.051844 
L 361.642926 -196.424868 
L 361.753312 -197.797891 
L 361.855682 -199.170915 
L 361.955772 -200.543939 
L 362.054813 -201.916963 
L 362.151312 -203.289986 
L 362.242503 -204.66301 
L 362.325038 -206.036034 
L 362.395814 -207.409058 
L 362.453607 -208.782082 
L 362.500137 -210.155105 
L 362.538469 -211.528129 
L 362.56958 -212.901153 
L 362.591211 -214.274177 
L 362.601387 -215.6472 
L 362.603212 -217.020224 
L 362.605029 -218.393248 
L 362.614677 -219.766272 
L 362.633364 -221.139295 
L 362.655459 -222.512319 
L 362.673974 -223.885343 
L 362.685783 -225.258367 
L 362.692195 -226.63139 
L 362.696265 -228.004414 
L 362.700616 -229.377438 
L 362.706934 -230.750462 
L 362.7159 -232.123485 
L 362.8041 -232.123485 
L 362.8041 -232.123485 
L 362.813066 -230.750462 
L 362.819384 -229.377438 
L 362.823735 -228.004414 
L 362.827805 -226.63139 
L 362.834217 -225.258367 
L 362.846026 -223.885343 
L 362.864541 -222.512319 
L 362.886636 -221.139295 
L 362.905323 -219.766272 
L 362.914971 -218.393248 
L 362.916788 -217.020224 
L 362.918613 -215.6472 
L 362.928789 -214.274177 
L 362.95042 -212.901153 
L 362.981531 -211.528129 
L 363.019863 -210.155105 
L 363.066393 -208.782082 
L 363.124186 -207.409058 
L 363.194962 -206.036034 
L 363.277497 -204.66301 
L 363.368688 -203.289986 
L 363.465187 -201.916963 
L 363.564228 -200.543939 
L 363.664318 -199.170915 
L 363.766688 -197.797891 
L 363.877074 -196.424868 
L 364.006083 -195.051844 
L 364.166874 -193.67882 
L 364.370721 -192.305796 
L 364.622178 -190.932773 
L 364.916664 -189.559749 
L 365.244401 -188.186725 
L 365.600899 -186.813701 
L 365.995867 -185.440678 
L 366.451996 -184.067654 
L 366.994441 -182.69463 
L 367.636157 -181.321606 
L 368.362497 -179.948583 
L 369.124979 -178.575559 
L 369.859082 -177.202535 
L 370.521797 -175.829511 
L 371.118557 -174.456487 
L 371.695059 -173.083464 
L 372.303549 -171.71044 
L 372.972948 -170.337416 
L 373.699377 -168.964392 
L 374.453335 -167.591369 
L 375.195304 -166.218345 
L 375.892654 -164.845321 
L 376.524637 -163.472297 
L 377.065645 -162.099274 
L 377.462676 -160.72625 
L 377.64 -159.353226 
L 377.538608 -157.980202 
L 377.155945 -156.607179 
L 376.549117 -155.234155 
L 375.804173 -153.861131 
L 375.00147 -152.488107 
L 374.194569 -151.115084 
L 373.400258 -149.74206 
L 372.601232 -148.369036 
L 371.76956 -146.996012 
L 370.900116 -145.622989 
L 370.023484 -144.249965 
L 369.185968 -142.876941 
L 368.421091 -141.503917 
L 367.741277 -140.130893 
L 367.148115 -138.75787 
L 366.640658 -137.384846 
L 366.214205 -136.011822 
L 365.858476 -134.638798 
L 365.559726 -133.265775 
L 365.301153 -131.892751 
L 365.06061 -130.519727 
L 364.814341 -129.146703 
L 364.549674 -127.77368 
L 364.274589 -126.400656 
L 364.011728 -125.027632 
L 363.78149 -123.654608 
L 363.590131 -122.281585 
L 363.431366 -120.908561 
L 363.296212 -119.535537 
L 363.180897 -118.162513 
L 363.087347 -116.78949 
L 363.018154 -115.416466 
L 362.971932 -114.043442 
L 362.942886 -112.670418 
L 362.923569 -111.297395 
L 362.907912 -109.924371 
L 362.892803 -108.551347 
L 362.877698 -107.178323 
L 362.862763 -105.805299 
L 362.847473 -104.432276 
L 362.831265 -103.059252 
L 362.815149 -101.686228 
L 362.80168 -100.313204 
L 362.792822 -98.940181 
L 362.788043 -97.567157 
L 362.784774 -96.194133 
z
" id="m5d0a89bed0" style="stroke:#3d3d3d;stroke-width:1.5;"/>
    </defs>
    <g clip-path="url(#pae1ecf6da9)">
     <use style="fill:#3a923a;stroke:#3d3d3d;stroke-width:1.5;" x="0" xlink:href="#m5d0a89bed0" y="288"/>
    </g>
   </g>
   <g id="patch_3">
    <path clip-path="url(#pae1ecf6da9)" d="M 109.8 266.617325 
L 109.8 266.617325 
L 109.8 266.617325 
L 109.8 266.617325 
z
" style="fill:#3274a1;stroke:#3d3d3d;stroke-linejoin:miter;stroke-width:0.75;"/>
   </g>
   <g id="patch_4">
    <path clip-path="url(#pae1ecf6da9)" d="M 109.8 266.617325 
L 109.8 266.617325 
L 109.8 266.617325 
L 109.8 266.617325 
z
" style="fill:#e1812c;stroke:#3d3d3d;stroke-linejoin:miter;stroke-width:0.75;"/>
   </g>
   <g id="patch_5">
    <path clip-path="url(#pae1ecf6da9)" d="M 109.8 266.617325 
L 109.8 266.617325 
L 109.8 266.617325 
L 109.8 266.617325 
z
" style="fill:#3a923a;stroke:#3d3d3d;stroke-linejoin:miter;stroke-width:0.75;"/>
   </g>
   <g id="matplotlib.axis_1">
    <g id="xtick_1">
     <g id="line2d_1">
      <defs>
       <path d="M 0 0 
L 0 3.5 
" id="ma36840176d" style="stroke:#000000;stroke-width:0.8;"/>
      </defs>
      <g>
       <use style="stroke:#000000;stroke-width:0.8;" x="109.8" xlink:href="#ma36840176d" y="252"/>
      </g>
     </g>
     <g id="text_1">
      <!-- Z_1_ns -->
      <g transform="translate(92.420312 266.320312)scale(0.1 -0.1)">
       <defs>
        <path d="M 5.609375 72.90625 
L 62.890625 72.90625 
L 62.890625 65.375 
L 16.796875 8.296875 
L 64.015625 8.296875 
L 64.015625 0 
L 4.5 0 
L 4.5 7.515625 
L 50.59375 64.59375 
L 5.609375 64.59375 
z
" id="DejaVuSans-90"/>
        <path d="M 50.984375 -16.609375 
L 50.984375 -23.578125 
L -0.984375 -23.578125 
L -0.984375 -16.609375 
z
" id="DejaVuSans-95"/>
        <path d="M 12.40625 8.296875 
L 28.515625 8.296875 
L 28.515625 63.921875 
L 10.984375 60.40625 
L 10.984375 69.390625 
L 28.421875 72.90625 
L 38.28125 72.90625 
L 38.28125 8.296875 
L 54.390625 8.296875 
L 54.390625 0 
L 12.40625 0 
z
" id="DejaVuSans-49"/>
        <path d="M 54.890625 33.015625 
L 54.890625 0 
L 45.90625 0 
L 45.90625 32.71875 
Q 45.90625 40.484375 42.875 44.328125 
Q 39.84375 48.1875 33.796875 48.1875 
Q 26.515625 48.1875 22.3125 43.546875 
Q 18.109375 38.921875 18.109375 30.90625 
L 18.109375 0 
L 9.078125 0 
L 9.078125 54.6875 
L 18.109375 54.6875 
L 18.109375 46.1875 
Q 21.34375 51.125 25.703125 53.5625 
Q 30.078125 56 35.796875 56 
Q 45.21875 56 50.046875 50.171875 
Q 54.890625 44.34375 54.890625 33.015625 
z
" id="DejaVuSans-110"/>
        <path d="M 44.28125 53.078125 
L 44.28125 44.578125 
Q 40.484375 46.53125 36.375 47.5 
Q 32.28125 48.484375 27.875 48.484375 
Q 21.1875 48.484375 17.84375 46.4375 
Q 14.5 44.390625 14.5 40.28125 
Q 14.5 37.15625 16.890625 35.375 
Q 19.28125 33.59375 26.515625 31.984375 
L 29.59375 31.296875 
Q 39.15625 29.25 43.1875 25.515625 
Q 47.21875 21.78125 47.21875 15.09375 
Q 47.21875 7.46875 41.1875 3.015625 
Q 35.15625 -1.421875 24.609375 -1.421875 
Q 20.21875 -1.421875 15.453125 -0.5625 
Q 10.6875 0.296875 5.421875 2 
L 5.421875 11.28125 
Q 10.40625 8.6875 15.234375 7.390625 
Q 20.0625 6.109375 24.8125 6.109375 
Q 31.15625 6.109375 34.5625 8.28125 
Q 37.984375 10.453125 37.984375 14.40625 
Q 37.984375 18.0625 35.515625 20.015625 
Q 33.0625 21.96875 24.703125 23.78125 
L 21.578125 24.515625 
Q 13.234375 26.265625 9.515625 29.90625 
Q 5.8125 33.546875 5.8125 39.890625 
Q 5.8125 47.609375 11.28125 51.796875 
Q 16.75 56 26.8125 56 
Q 31.78125 56 36.171875 55.265625 
Q 40.578125 54.546875 44.28125 53.078125 
z
" id="DejaVuSans-115"/>
       </defs>
       <use xlink:href="#DejaVuSans-90"/>
       <use x="68.505859" xlink:href="#DejaVuSans-95"/>
       <use x="118.505859" xlink:href="#DejaVuSans-49"/>
       <use x="182.128906" xlink:href="#DejaVuSans-95"/>
       <use x="232.128906" xlink:href="#DejaVuSans-110"/>
       <use x="295.507812" xlink:href="#DejaVuSans-115"/>
      </g>
     </g>
    </g>
    <g id="xtick_2">
     <g id="line2d_2">
      <g>
       <use style="stroke:#000000;stroke-width:0.8;" x="221.4" xlink:href="#ma36840176d" y="252"/>
      </g>
     </g>
     <g id="text_2">
      <!-- Z_2_ns -->
      <g transform="translate(204.020312 266.421875)scale(0.1 -0.1)">
       <defs>
        <path d="M 19.1875 8.296875 
L 53.609375 8.296875 
L 53.609375 0 
L 7.328125 0 
L 7.328125 8.296875 
Q 12.9375 14.109375 22.625 23.890625 
Q 32.328125 33.6875 34.8125 36.53125 
Q 39.546875 41.84375 41.421875 45.53125 
Q 43.3125 49.21875 43.3125 52.78125 
Q 43.3125 58.59375 39.234375 62.25 
Q 35.15625 65.921875 28.609375 65.921875 
Q 23.96875 65.921875 18.8125 64.3125 
Q 13.671875 62.703125 7.8125 59.421875 
L 7.8125 69.390625 
Q 13.765625 71.78125 18.9375 73 
Q 24.125 74.21875 28.421875 74.21875 
Q 39.75 74.21875 46.484375 68.546875 
Q 53.21875 62.890625 53.21875 53.421875 
Q 53.21875 48.921875 51.53125 44.890625 
Q 49.859375 40.875 45.40625 35.40625 
Q 44.1875 33.984375 37.640625 27.21875 
Q 31.109375 20.453125 19.1875 8.296875 
z
" id="DejaVuSans-50"/>
       </defs>
       <use xlink:href="#DejaVuSans-90"/>
       <use x="68.505859" xlink:href="#DejaVuSans-95"/>
       <use x="118.505859" xlink:href="#DejaVuSans-50"/>
       <use x="182.128906" xlink:href="#DejaVuSans-95"/>
       <use x="232.128906" xlink:href="#DejaVuSans-110"/>
       <use x="295.507812" xlink:href="#DejaVuSans-115"/>
      </g>
     </g>
    </g>
    <g id="xtick_3">
     <g id="line2d_3">
      <g>
       <use style="stroke:#000000;stroke-width:0.8;" x="333" xlink:href="#ma36840176d" y="252"/>
      </g>
     </g>
     <g id="text_3">
      <!-- Z_3_ns -->
      <g transform="translate(315.620313 266.421875)scale(0.1 -0.1)">
       <defs>
        <path d="M 40.578125 39.3125 
Q 47.65625 37.796875 51.625 33 
Q 55.609375 28.21875 55.609375 21.1875 
Q 55.609375 10.40625 48.1875 4.484375 
Q 40.765625 -1.421875 27.09375 -1.421875 
Q 22.515625 -1.421875 17.65625 -0.515625 
Q 12.796875 0.390625 7.625 2.203125 
L 7.625 11.71875 
Q 11.71875 9.328125 16.59375 8.109375 
Q 21.484375 6.890625 26.8125 6.890625 
Q 36.078125 6.890625 40.9375 10.546875 
Q 45.796875 14.203125 45.796875 21.1875 
Q 45.796875 27.640625 41.28125 31.265625 
Q 36.765625 34.90625 28.71875 34.90625 
L 20.21875 34.90625 
L 20.21875 43.015625 
L 29.109375 43.015625 
Q 36.375 43.015625 40.234375 45.921875 
Q 44.09375 48.828125 44.09375 54.296875 
Q 44.09375 59.90625 40.109375 62.90625 
Q 36.140625 65.921875 28.71875 65.921875 
Q 24.65625 65.921875 20.015625 65.03125 
Q 15.375 64.15625 9.8125 62.3125 
L 9.8125 71.09375 
Q 15.4375 72.65625 20.34375 73.4375 
Q 25.25 74.21875 29.59375 74.21875 
Q 40.828125 74.21875 47.359375 69.109375 
Q 53.90625 64.015625 53.90625 55.328125 
Q 53.90625 49.265625 50.4375 45.09375 
Q 46.96875 40.921875 40.578125 39.3125 
z
" id="DejaVuSans-51"/>
       </defs>
       <use xlink:href="#DejaVuSans-90"/>
       <use x="68.505859" xlink:href="#DejaVuSans-95"/>
       <use x="118.505859" xlink:href="#DejaVuSans-51"/>
       <use x="182.128906" xlink:href="#DejaVuSans-95"/>
       <use x="232.128906" xlink:href="#DejaVuSans-110"/>
       <use x="295.507812" xlink:href="#DejaVuSans-115"/>
      </g>
     </g>
    </g>
    <g id="text_4">
     <!-- set -->
     <g transform="translate(213.758594 280.378125)scale(0.1 -0.1)">
      <defs>
       <path d="M 56.203125 29.59375 
L 56.203125 25.203125 
L 14.890625 25.203125 
Q 15.484375 15.921875 20.484375 11.0625 
Q 25.484375 6.203125 34.421875 6.203125 
Q 39.59375 6.203125 44.453125 7.46875 
Q 49.3125 8.734375 54.109375 11.28125 
L 54.109375 2.78125 
Q 49.265625 0.734375 44.1875 -0.34375 
Q 39.109375 -1.421875 33.890625 -1.421875 
Q 20.796875 -1.421875 13.15625 6.1875 
Q 5.515625 13.8125 5.515625 26.8125 
Q 5.515625 40.234375 12.765625 48.109375 
Q 20.015625 56 32.328125 56 
Q 43.359375 56 49.78125 48.890625 
Q 56.203125 41.796875 56.203125 29.59375 
z
M 47.21875 32.234375 
Q 47.125 39.59375 43.09375 43.984375 
Q 39.0625 48.390625 32.421875 48.390625 
Q 24.90625 48.390625 20.390625 44.140625 
Q 15.875 39.890625 15.1875 32.171875 
z
" id="DejaVuSans-101"/>
       <path d="M 18.3125 70.21875 
L 18.3125 54.6875 
L 36.8125 54.6875 
L 36.8125 47.703125 
L 18.3125 47.703125 
L 18.3125 18.015625 
Q 18.3125 11.328125 20.140625 9.421875 
Q 21.96875 7.515625 27.59375 7.515625 
L 36.8125 7.515625 
L 36.8125 0 
L 27.59375 0 
Q 17.1875 0 13.234375 3.875 
Q 9.28125 7.765625 9.28125 18.015625 
L 9.28125 47.703125 
L 2.6875 47.703125 
L 2.6875 54.6875 
L 9.28125 54.6875 
L 9.28125 70.21875 
z
" id="DejaVuSans-116"/>
      </defs>
      <use xlink:href="#DejaVuSans-115"/>
      <use x="52.099609" xlink:href="#DejaVuSans-101"/>
      <use x="113.623047" xlink:href="#DejaVuSans-116"/>
     </g>
    </g>
   </g>
   <g id="matplotlib.axis_2">
    <g id="ytick_1">
     <g id="line2d_4">
      <defs>
       <path d="M 0 0 
L -3.5 0 
" id="m1b3083ed8c" style="stroke:#000000;stroke-width:0.8;"/>
      </defs>
      <g>
       <use style="stroke:#000000;stroke-width:0.8;" x="54" xlink:href="#m1b3083ed8c" y="223.234606"/>
      </g>
     </g>
     <g id="text_5">
      <!-- 20 -->
      <g transform="translate(34.275 227.033825)scale(0.1 -0.1)">
       <defs>
        <path d="M 31.78125 66.40625 
Q 24.171875 66.40625 20.328125 58.90625 
Q 16.5 51.421875 16.5 36.375 
Q 16.5 21.390625 20.328125 13.890625 
Q 24.171875 6.390625 31.78125 6.390625 
Q 39.453125 6.390625 43.28125 13.890625 
Q 47.125 21.390625 47.125 36.375 
Q 47.125 51.421875 43.28125 58.90625 
Q 39.453125 66.40625 31.78125 66.40625 
z
M 31.78125 74.21875 
Q 44.046875 74.21875 50.515625 64.515625 
Q 56.984375 54.828125 56.984375 36.375 
Q 56.984375 17.96875 50.515625 8.265625 
Q 44.046875 -1.421875 31.78125 -1.421875 
Q 19.53125 -1.421875 13.0625 8.265625 
Q 6.59375 17.96875 6.59375 36.375 
Q 6.59375 54.828125 13.0625 64.515625 
Q 19.53125 74.21875 31.78125 74.21875 
z
" id="DejaVuSans-48"/>
       </defs>
       <use xlink:href="#DejaVuSans-50"/>
       <use x="63.623047" xlink:href="#DejaVuSans-48"/>
      </g>
     </g>
    </g>
    <g id="ytick_2">
     <g id="line2d_5">
      <g>
       <use style="stroke:#000000;stroke-width:0.8;" x="54" xlink:href="#m1b3083ed8c" y="179.851888"/>
      </g>
     </g>
     <g id="text_6">
      <!-- 40 -->
      <g transform="translate(34.275 183.651106)scale(0.1 -0.1)">
       <defs>
        <path d="M 37.796875 64.3125 
L 12.890625 25.390625 
L 37.796875 25.390625 
z
M 35.203125 72.90625 
L 47.609375 72.90625 
L 47.609375 25.390625 
L 58.015625 25.390625 
L 58.015625 17.1875 
L 47.609375 17.1875 
L 47.609375 0 
L 37.796875 0 
L 37.796875 17.1875 
L 4.890625 17.1875 
L 4.890625 26.703125 
z
" id="DejaVuSans-52"/>
       </defs>
       <use xlink:href="#DejaVuSans-52"/>
       <use x="63.623047" xlink:href="#DejaVuSans-48"/>
      </g>
     </g>
    </g>
    <g id="ytick_3">
     <g id="line2d_6">
      <g>
       <use style="stroke:#000000;stroke-width:0.8;" x="54" xlink:href="#m1b3083ed8c" y="136.469169"/>
      </g>
     </g>
     <g id="text_7">
      <!-- 60 -->
      <g transform="translate(34.275 140.268388)scale(0.1 -0.1)">
       <defs>
        <path d="M 33.015625 40.375 
Q 26.375 40.375 22.484375 35.828125 
Q 18.609375 31.296875 18.609375 23.390625 
Q 18.609375 15.53125 22.484375 10.953125 
Q 26.375 6.390625 33.015625 6.390625 
Q 39.65625 6.390625 43.53125 10.953125 
Q 47.40625 15.53125 47.40625 23.390625 
Q 47.40625 31.296875 43.53125 35.828125 
Q 39.65625 40.375 33.015625 40.375 
z
M 52.59375 71.296875 
L 52.59375 62.3125 
Q 48.875 64.0625 45.09375 64.984375 
Q 41.3125 65.921875 37.59375 65.921875 
Q 27.828125 65.921875 22.671875 59.328125 
Q 17.53125 52.734375 16.796875 39.40625 
Q 19.671875 43.65625 24.015625 45.921875 
Q 28.375 48.1875 33.59375 48.1875 
Q 44.578125 48.1875 50.953125 41.515625 
Q 57.328125 34.859375 57.328125 23.390625 
Q 57.328125 12.15625 50.6875 5.359375 
Q 44.046875 -1.421875 33.015625 -1.421875 
Q 20.359375 -1.421875 13.671875 8.265625 
Q 6.984375 17.96875 6.984375 36.375 
Q 6.984375 53.65625 15.1875 63.9375 
Q 23.390625 74.21875 37.203125 74.21875 
Q 40.921875 74.21875 44.703125 73.484375 
Q 48.484375 72.75 52.59375 71.296875 
z
" id="DejaVuSans-54"/>
       </defs>
       <use xlink:href="#DejaVuSans-54"/>
       <use x="63.623047" xlink:href="#DejaVuSans-48"/>
      </g>
     </g>
    </g>
    <g id="ytick_4">
     <g id="line2d_7">
      <g>
       <use style="stroke:#000000;stroke-width:0.8;" x="54" xlink:href="#m1b3083ed8c" y="93.08645"/>
      </g>
     </g>
     <g id="text_8">
      <!-- 80 -->
      <g transform="translate(34.275 96.885669)scale(0.1 -0.1)">
       <defs>
        <path d="M 31.78125 34.625 
Q 24.75 34.625 20.71875 30.859375 
Q 16.703125 27.09375 16.703125 20.515625 
Q 16.703125 13.921875 20.71875 10.15625 
Q 24.75 6.390625 31.78125 6.390625 
Q 38.8125 6.390625 42.859375 10.171875 
Q 46.921875 13.96875 46.921875 20.515625 
Q 46.921875 27.09375 42.890625 30.859375 
Q 38.875 34.625 31.78125 34.625 
z
M 21.921875 38.8125 
Q 15.578125 40.375 12.03125 44.71875 
Q 8.5 49.078125 8.5 55.328125 
Q 8.5 64.0625 14.71875 69.140625 
Q 20.953125 74.21875 31.78125 74.21875 
Q 42.671875 74.21875 48.875 69.140625 
Q 55.078125 64.0625 55.078125 55.328125 
Q 55.078125 49.078125 51.53125 44.71875 
Q 48 40.375 41.703125 38.8125 
Q 48.828125 37.15625 52.796875 32.3125 
Q 56.78125 27.484375 56.78125 20.515625 
Q 56.78125 9.90625 50.3125 4.234375 
Q 43.84375 -1.421875 31.78125 -1.421875 
Q 19.734375 -1.421875 13.25 4.234375 
Q 6.78125 9.90625 6.78125 20.515625 
Q 6.78125 27.484375 10.78125 32.3125 
Q 14.796875 37.15625 21.921875 38.8125 
z
M 18.3125 54.390625 
Q 18.3125 48.734375 21.84375 45.5625 
Q 25.390625 42.390625 31.78125 42.390625 
Q 38.140625 42.390625 41.71875 45.5625 
Q 45.3125 48.734375 45.3125 54.390625 
Q 45.3125 60.0625 41.71875 63.234375 
Q 38.140625 66.40625 31.78125 66.40625 
Q 25.390625 66.40625 21.84375 63.234375 
Q 18.3125 60.0625 18.3125 54.390625 
z
" id="DejaVuSans-56"/>
       </defs>
       <use xlink:href="#DejaVuSans-56"/>
       <use x="63.623047" xlink:href="#DejaVuSans-48"/>
      </g>
     </g>
    </g>
    <g id="ytick_5">
     <g id="line2d_8">
      <g>
       <use style="stroke:#000000;stroke-width:0.8;" x="54" xlink:href="#m1b3083ed8c" y="49.703731"/>
      </g>
     </g>
     <g id="text_9">
      <!-- 100 -->
      <g transform="translate(27.9125 53.50295)scale(0.1 -0.1)">
       <use xlink:href="#DejaVuSans-49"/>
       <use x="63.623047" xlink:href="#DejaVuSans-48"/>
       <use x="127.246094" xlink:href="#DejaVuSans-48"/>
      </g>
     </g>
    </g>
    <g id="text_10">
     <!-- value -->
     <g transform="translate(21.832812 156.937813)rotate(-90)scale(0.1 -0.1)">
      <defs>
       <path d="M 2.984375 54.6875 
L 12.5 54.6875 
L 29.59375 8.796875 
L 46.6875 54.6875 
L 56.203125 54.6875 
L 35.6875 0 
L 23.484375 0 
z
" id="DejaVuSans-118"/>
       <path d="M 34.28125 27.484375 
Q 23.390625 27.484375 19.1875 25 
Q 14.984375 22.515625 14.984375 16.5 
Q 14.984375 11.71875 18.140625 8.90625 
Q 21.296875 6.109375 26.703125 6.109375 
Q 34.1875 6.109375 38.703125 11.40625 
Q 43.21875 16.703125 43.21875 25.484375 
L 43.21875 27.484375 
z
M 52.203125 31.203125 
L 52.203125 0 
L 43.21875 0 
L 43.21875 8.296875 
Q 40.140625 3.328125 35.546875 0.953125 
Q 30.953125 -1.421875 24.3125 -1.421875 
Q 15.921875 -1.421875 10.953125 3.296875 
Q 6 8.015625 6 15.921875 
Q 6 25.140625 12.171875 29.828125 
Q 18.359375 34.515625 30.609375 34.515625 
L 43.21875 34.515625 
L 43.21875 35.40625 
Q 43.21875 41.609375 39.140625 45 
Q 35.0625 48.390625 27.6875 48.390625 
Q 23 48.390625 18.546875 47.265625 
Q 14.109375 46.140625 10.015625 43.890625 
L 10.015625 52.203125 
Q 14.9375 54.109375 19.578125 55.046875 
Q 24.21875 56 28.609375 56 
Q 40.484375 56 46.34375 49.84375 
Q 52.203125 43.703125 52.203125 31.203125 
z
" id="DejaVuSans-97"/>
       <path d="M 9.421875 75.984375 
L 18.40625 75.984375 
L 18.40625 0 
L 9.421875 0 
z
" id="DejaVuSans-108"/>
       <path d="M 8.5 21.578125 
L 8.5 54.6875 
L 17.484375 54.6875 
L 17.484375 21.921875 
Q 17.484375 14.15625 20.5 10.265625 
Q 23.53125 6.390625 29.59375 6.390625 
Q 36.859375 6.390625 41.078125 11.03125 
Q 45.3125 15.671875 45.3125 23.6875 
L 45.3125 54.6875 
L 54.296875 54.6875 
L 54.296875 0 
L 45.3125 0 
L 45.3125 8.40625 
Q 42.046875 3.421875 37.71875 1 
Q 33.40625 -1.421875 27.6875 -1.421875 
Q 18.265625 -1.421875 13.375 4.4375 
Q 8.5 10.296875 8.5 21.578125 
z
M 31.109375 56 
z
" id="DejaVuSans-117"/>
      </defs>
      <use xlink:href="#DejaVuSans-118"/>
      <use x="59.179688" xlink:href="#DejaVuSans-97"/>
      <use x="120.458984" xlink:href="#DejaVuSans-108"/>
      <use x="148.242188" xlink:href="#DejaVuSans-117"/>
      <use x="211.621094" xlink:href="#DejaVuSans-101"/>
     </g>
    </g>
   </g>
   <g id="line2d_9">
    <path clip-path="url(#pae1ecf6da9)" d="M 80.04 171.458873 
L 80.04 87.263054 
" style="fill:none;stroke:#3d3d3d;stroke-linecap:square;stroke-width:1.5;"/>
   </g>
   <g id="line2d_10">
    <path clip-path="url(#pae1ecf6da9)" d="M 80.04 139.902589 
L 80.04 118.765876 
" style="fill:none;stroke:#3d3d3d;stroke-linecap:square;stroke-width:4.5;"/>
   </g>
   <g id="line2d_11">
    <path clip-path="url(#pae1ecf6da9)" d="M 221.4 170.962074 
L 221.4 91.616882 
" style="fill:none;stroke:#3d3d3d;stroke-linecap:square;stroke-width:1.5;"/>
   </g>
   <g id="line2d_12">
    <path clip-path="url(#pae1ecf6da9)" d="M 221.4 141.416282 
L 221.4 121.48466 
" style="fill:none;stroke:#3d3d3d;stroke-linecap:square;stroke-width:4.5;"/>
   </g>
   <g id="line2d_13">
    <path clip-path="url(#pae1ecf6da9)" d="M 362.76 166.540378 
L 362.76 88.467918 
" style="fill:none;stroke:#3d3d3d;stroke-linecap:square;stroke-width:1.5;"/>
   </g>
   <g id="line2d_14">
    <path clip-path="url(#pae1ecf6da9)" d="M 362.76 137.295193 
L 362.76 117.724352 
" style="fill:none;stroke:#3d3d3d;stroke-linecap:square;stroke-width:4.5;"/>
   </g>
   <g id="patch_6">
    <path d="M 54 252 
L 54 34.56 
" style="fill:none;stroke:#000000;stroke-linecap:square;stroke-linejoin:miter;stroke-width:0.8;"/>
   </g>
   <g id="patch_7">
    <path d="M 388.8 252 
L 388.8 34.56 
" style="fill:none;stroke:#000000;stroke-linecap:square;stroke-linejoin:miter;stroke-width:0.8;"/>
   </g>
   <g id="patch_8">
    <path d="M 54 252 
L 388.8 252 
" style="fill:none;stroke:#000000;stroke-linecap:square;stroke-linejoin:miter;stroke-width:0.8;"/>
   </g>
   <g id="patch_9">
    <path d="M 54 34.56 
L 388.8 34.56 
" style="fill:none;stroke:#000000;stroke-linecap:square;stroke-linejoin:miter;stroke-width:0.8;"/>
   </g>
   <g id="PathCollection_1">
    <defs>
     <path d="M 0 1.5 
C 0.397805 1.5 0.77937 1.341951 1.06066 1.06066 
C 1.341951 0.77937 1.5 0.397805 1.5 0 
C 1.5 -0.397805 1.341951 -0.77937 1.06066 -1.06066 
C 0.77937 -1.341951 0.397805 -1.5 0 -1.5 
C -0.397805 -1.5 -0.77937 -1.341951 -1.06066 -1.06066 
C -1.341951 -0.77937 -1.5 -0.397805 -1.5 0 
C -1.5 0.397805 -1.341951 0.77937 -1.06066 1.06066 
C -0.77937 1.341951 -0.397805 1.5 0 1.5 
z
" id="m2dda19408a" style="stroke:#3d3d3d;"/>
    </defs>
    <g clip-path="url(#pae1ecf6da9)">
     <use style="fill:#ffffff;stroke:#3d3d3d;" x="80.04" xlink:href="#m2dda19408a" y="129.253356"/>
    </g>
   </g>
   <g id="PathCollection_2">
    <g clip-path="url(#pae1ecf6da9)">
     <use style="fill:#ffffff;stroke:#3d3d3d;" x="221.4" xlink:href="#m2dda19408a" y="131.714503"/>
    </g>
   </g>
   <g id="PathCollection_3">
    <g clip-path="url(#pae1ecf6da9)">
     <use style="fill:#ffffff;stroke:#3d3d3d;" x="362.76" xlink:href="#m2dda19408a" y="127.971522"/>
    </g>
   </g>
   <g id="legend_1">
    <g id="patch_10">
     <path d="M 61 247 
L 127.759375 247 
Q 129.759375 247 129.759375 245 
L 129.759375 186.453125 
Q 129.759375 184.453125 127.759375 184.453125 
L 61 184.453125 
Q 59 184.453125 59 186.453125 
L 59 245 
Q 59 247 61 247 
z
" style="fill:#ffffff;opacity:0.8;stroke:#cccccc;stroke-linejoin:miter;"/>
    </g>
    <g id="text_11">
     <!-- set -->
     <g transform="translate(86.738281 196.051562)scale(0.1 -0.1)">
      <use xlink:href="#DejaVuSans-115"/>
      <use x="52.099609" xlink:href="#DejaVuSans-101"/>
      <use x="113.623047" xlink:href="#DejaVuSans-116"/>
     </g>
    </g>
    <g id="patch_11">
     <path d="M 63 210.729687 
L 83 210.729687 
L 83 203.729687 
L 63 203.729687 
z
" style="fill:#3274a1;stroke:#3d3d3d;stroke-linejoin:miter;stroke-width:0.75;"/>
    </g>
    <g id="text_12">
     <!-- Z_1_ns -->
     <g transform="translate(91 210.729687)scale(0.1 -0.1)">
      <use xlink:href="#DejaVuSans-90"/>
      <use x="68.505859" xlink:href="#DejaVuSans-95"/>
      <use x="118.505859" xlink:href="#DejaVuSans-49"/>
      <use x="182.128906" xlink:href="#DejaVuSans-95"/>
      <use x="232.128906" xlink:href="#DejaVuSans-110"/>
      <use x="295.507812" xlink:href="#DejaVuSans-115"/>
     </g>
    </g>
    <g id="patch_12">
     <path d="M 63 225.685937 
L 83 225.685937 
L 83 218.685937 
L 63 218.685937 
z
" style="fill:#e1812c;stroke:#3d3d3d;stroke-linejoin:miter;stroke-width:0.75;"/>
    </g>
    <g id="text_13">
     <!-- Z_2_ns -->
     <g transform="translate(91 225.685937)scale(0.1 -0.1)">
      <use xlink:href="#DejaVuSans-90"/>
      <use x="68.505859" xlink:href="#DejaVuSans-95"/>
      <use x="118.505859" xlink:href="#DejaVuSans-50"/>
      <use x="182.128906" xlink:href="#DejaVuSans-95"/>
      <use x="232.128906" xlink:href="#DejaVuSans-110"/>
      <use x="295.507812" xlink:href="#DejaVuSans-115"/>
     </g>
    </g>
    <g id="patch_13">
     <path d="M 63 240.642187 
L 83 240.642187 
L 83 233.642187 
L 63 233.642187 
z
" style="fill:#3a923a;stroke:#3d3d3d;stroke-linejoin:miter;stroke-width:0.75;"/>
    </g>
    <g id="text_14">
     <!-- Z_3_ns -->
     <g transform="translate(91 240.642187)scale(0.1 -0.1)">
      <use xlink:href="#DejaVuSans-90"/>
      <use x="68.505859" xlink:href="#DejaVuSans-95"/>
      <use x="118.505859" xlink:href="#DejaVuSans-51"/>
      <use x="182.128906" xlink:href="#DejaVuSans-95"/>
      <use x="232.128906" xlink:href="#DejaVuSans-110"/>
      <use x="295.507812" xlink:href="#DejaVuSans-115"/>
     </g>
    </g>
   </g>
  </g>
 </g>
 <defs>
  <clipPath id="pae1ecf6da9">
   <rect height="217.44" width="334.8" x="54" y="34.56"/>
  </clipPath>
 </defs>
</svg>
