<?xml version="1.0" encoding="utf-8" standalone="no"?>
<!DOCTYPE svg PUBLIC "-//W3C//DTD SVG 1.1//EN"
  "http://www.w3.org/Graphics/SVG/1.1/DTD/svg11.dtd">
<!-- Created with matplotlib (https://matplotlib.org/) -->
<svg height="288pt" version="1.1" viewBox="0 0 432 288" width="432pt" xmlns="http://www.w3.org/2000/svg" xmlns:xlink="http://www.w3.org/1999/xlink">
 <metadata>
  <rdf:RDF xmlns:cc="http://creativecommons.org/ns#" xmlns:dc="http://purl.org/dc/elements/1.1/" xmlns:rdf="http://www.w3.org/1999/02/22-rdf-syntax-ns#">
   <cc:Work>
    <dc:type rdf:resource="http://purl.org/dc/dcmitype/StillImage"/>
    <dc:date>2022-05-05T17:49:56.626038</dc:date>
    <dc:format>image/svg+xml</dc:format>
    <dc:creator>
     <cc:Agent>
      <dc:title>Matplotlib v3.3.4, https://matplotlib.org/</dc:title>
     </cc:Agent>
    </dc:creator>
   </cc:Work>
  </rdf:RDF>
 </metadata>
 <defs>
  <style type="text/css">*{stroke-linecap:butt;stroke-linejoin:round;}</style>
 </defs>
 <g id="figure_1">
  <g id="patch_1">
   <path d="M 0 288 
L 432 288 
L 432 0 
L 0 0 
z
" style="fill:#ffffff;"/>
  </g>
  <g id="axes_1">
   <g id="patch_2">
    <path d="M 54 252 
L 388.8 252 
L 388.8 34.56 
L 54 34.56 
z
" style="fill:#ffffff;"/>
   </g>
   <g id="PolyCollection_1">
    <defs>
     <path d="M 104.481649 -45.883636 
L 103.958351 -45.883636 
L 103.872787 -47.880331 
L 103.79462 -49.877025 
L 103.720966 -51.873719 
L 103.641328 -53.870413 
L 103.543595 -55.867107 
L 103.422271 -57.863802 
L 103.285826 -59.860496 
L 103.157165 -61.85719 
L 103.063758 -63.853884 
L 103.021514 -65.850579 
L 103.021939 -67.847273 
L 103.031014 -69.843967 
L 102.998169 -71.840661 
L 102.862937 -73.837355 
L 102.556534 -75.83405 
L 102.019451 -77.830744 
L 101.241545 -79.827438 
L 100.274976 -81.824132 
L 99.171519 -83.820826 
L 97.896294 -85.817521 
L 96.327508 -87.814215 
L 94.351137 -89.810909 
L 91.944859 -91.807603 
L 89.189828 -93.804298 
L 86.246115 -95.800992 
L 83.315394 -97.797686 
L 80.57569 -99.79438 
L 78.116699 -101.791074 
L 75.937473 -103.787769 
L 74.017232 -105.784463 
L 72.404737 -107.781157 
L 71.249437 -109.777851 
L 70.74 -111.774545 
L 70.99863 -113.77124 
L 72.001047 -115.767934 
L 73.55871 -117.764628 
L 75.393512 -119.761322 
L 77.286519 -121.758017 
L 79.17664 -123.754711 
L 81.106175 -125.751405 
L 83.081292 -127.748099 
L 85.010693 -129.744793 
L 86.7853 -131.741488 
L 88.391765 -133.738182 
L 89.909425 -135.734876 
L 91.390165 -137.73157 
L 92.783855 -139.728264 
L 94.008348 -141.724959 
L 95.059356 -143.721653 
L 96.018949 -145.718347 
L 96.973708 -147.715041 
L 97.948375 -149.711736 
L 98.904736 -151.70843 
L 99.773405 -153.705124 
L 100.483787 -155.701818 
L 100.994799 -157.698512 
L 101.322466 -159.695207 
L 101.532989 -161.691901 
L 101.698122 -163.688595 
L 101.861019 -165.685289 
L 102.042365 -167.681983 
L 102.256636 -169.678678 
L 102.507075 -171.675372 
L 102.774773 -173.672066 
L 103.027031 -175.66876 
L 103.238126 -177.665455 
L 103.400837 -179.662149 
L 103.523105 -181.658843 
L 103.618874 -183.655537 
L 103.701023 -185.652231 
L 103.777828 -187.648926 
L 103.851256 -189.64562 
L 103.916366 -191.642314 
L 103.963635 -193.639008 
L 103.985861 -195.635702 
L 103.986306 -197.632397 
L 103.979468 -199.629091 
L 103.980327 -201.625785 
L 103.991803 -203.622479 
L 104.005235 -205.619174 
L 104.013308 -207.615868 
L 104.018839 -209.612562 
L 104.029916 -211.609256 
L 104.05031 -213.60595 
L 104.07674 -215.602645 
L 104.103011 -217.599339 
L 104.124973 -219.596033 
L 104.142633 -221.592727 
L 104.15825 -223.589421 
L 104.172085 -225.586116 
L 104.180861 -227.58281 
L 104.181593 -229.579504 
L 104.176266 -231.576198 
L 104.171048 -233.572893 
L 104.170232 -235.569587 
L 104.172175 -237.566281 
L 104.172564 -239.562975 
L 104.170909 -241.559669 
L 104.171694 -243.556364 
L 104.268306 -243.556364 
L 104.268306 -243.556364 
L 104.269091 -241.559669 
L 104.267436 -239.562975 
L 104.267825 -237.566281 
L 104.269768 -235.569587 
L 104.268952 -233.572893 
L 104.263734 -231.576198 
L 104.258407 -229.579504 
L 104.259139 -227.58281 
L 104.267915 -225.586116 
L 104.28175 -223.589421 
L 104.297367 -221.592727 
L 104.315027 -219.596033 
L 104.336989 -217.599339 
L 104.36326 -215.602645 
L 104.38969 -213.60595 
L 104.410084 -211.609256 
L 104.421161 -209.612562 
L 104.426692 -207.615868 
L 104.434765 -205.619174 
L 104.448197 -203.622479 
L 104.459673 -201.625785 
L 104.460532 -199.629091 
L 104.453694 -197.632397 
L 104.454139 -195.635702 
L 104.476365 -193.639008 
L 104.523634 -191.642314 
L 104.588744 -189.64562 
L 104.662172 -187.648926 
L 104.738977 -185.652231 
L 104.821126 -183.655537 
L 104.916895 -181.658843 
L 105.039163 -179.662149 
L 105.201874 -177.665455 
L 105.412969 -175.66876 
L 105.665227 -173.672066 
L 105.932925 -171.675372 
L 106.183364 -169.678678 
L 106.397635 -167.681983 
L 106.578981 -165.685289 
L 106.741878 -163.688595 
L 106.907011 -161.691901 
L 107.117534 -159.695207 
L 107.445201 -157.698512 
L 107.956213 -155.701818 
L 108.666595 -153.705124 
L 109.535264 -151.70843 
L 110.491625 -149.711736 
L 111.466292 -147.715041 
L 112.421051 -145.718347 
L 113.380644 -143.721653 
L 114.431652 -141.724959 
L 115.656145 -139.728264 
L 117.049835 -137.73157 
L 118.530575 -135.734876 
L 120.048235 -133.738182 
L 121.6547 -131.741488 
L 123.429307 -129.744793 
L 125.358708 -127.748099 
L 127.333825 -125.751405 
L 129.26336 -123.754711 
L 131.153481 -121.758017 
L 133.046488 -119.761322 
L 134.88129 -117.764628 
L 136.438953 -115.767934 
L 137.44137 -113.77124 
L 137.7 -111.774545 
L 137.190563 -109.777851 
L 136.035263 -107.781157 
L 134.422768 -105.784463 
L 132.502527 -103.787769 
L 130.323301 -101.791074 
L 127.86431 -99.79438 
L 125.124606 -97.797686 
L 122.193885 -95.800992 
L 119.250172 -93.804298 
L 116.495141 -91.807603 
L 114.088863 -89.810909 
L 112.112492 -87.814215 
L 110.543706 -85.817521 
L 109.268481 -83.820826 
L 108.165024 -81.824132 
L 107.198455 -79.827438 
L 106.420549 -77.830744 
L 105.883466 -75.83405 
L 105.577063 -73.837355 
L 105.441831 -71.840661 
L 105.408986 -69.843967 
L 105.418061 -67.847273 
L 105.418486 -65.850579 
L 105.376242 -63.853884 
L 105.282835 -61.85719 
L 105.154174 -59.860496 
L 105.017729 -57.863802 
L 104.896405 -55.867107 
L 104.798672 -53.870413 
L 104.719034 -51.873719 
L 104.64538 -49.877025 
L 104.567213 -47.880331 
L 104.481649 -45.883636 
z
" id="mb9d87c1036" style="stroke:#3f3f3f;stroke-width:1.5;"/>
    </defs>
    <g clip-path="url(#pcc8d651bb7)">
     <use style="fill:#3274a1;stroke:#3f3f3f;stroke-width:1.5;" x="0" xlink:href="#mb9d87c1036" y="288"/>
    </g>
   </g>
   <g id="PolyCollection_2">
    <defs>
     <path d="M 338.90446 -67.409158 
L 338.25554 -67.409158 
L 338.165707 -68.955091 
L 338.081535 -70.501024 
L 338.001359 -72.046957 
L 337.915838 -73.59289 
L 337.810676 -75.138822 
L 337.668787 -76.684755 
L 337.46919 -78.230688 
L 337.184441 -79.776621 
L 336.781543 -81.322554 
L 336.228332 -82.868487 
L 335.50114 -84.41442 
L 334.588311 -85.960353 
L 333.489182 -87.506286 
L 332.211476 -89.052219 
L 330.767823 -90.598151 
L 329.170061 -92.144084 
L 327.422399 -93.690017 
L 325.517229 -95.23595 
L 323.437324 -96.781883 
L 321.168809 -98.327816 
L 318.727593 -99.873749 
L 316.188634 -101.419682 
L 313.690729 -102.965615 
L 311.397648 -104.511548 
L 309.435289 -106.057481 
L 307.853988 -107.603413 
L 306.644692 -109.149346 
L 305.785591 -110.695279 
L 305.270768 -112.241212 
L 305.1 -113.787145 
L 305.251671 -115.333078 
L 305.67191 -116.879011 
L 306.290611 -118.424944 
L 307.050429 -119.970877 
L 307.927134 -121.51681 
L 308.926837 -123.062742 
L 310.062302 -124.608675 
L 311.328352 -126.154608 
L 312.697813 -127.700541 
L 314.138772 -129.246474 
L 315.63286 -130.792407 
L 317.17582 -132.33834 
L 318.760939 -133.884273 
L 320.361762 -135.430206 
L 321.930845 -136.976139 
L 323.417563 -138.522072 
L 324.790203 -140.068004 
L 326.042298 -141.613937 
L 327.17858 -143.15987 
L 328.19731 -144.705803 
L 329.088855 -146.251736 
L 329.852318 -147.797669 
L 330.513392 -149.343602 
L 331.125347 -150.889535 
L 331.749257 -152.435468 
L 332.425116 -153.981401 
L 333.150968 -155.527333 
L 333.88111 -157.073266 
L 334.543207 -158.619199 
L 335.06621 -160.165132 
L 335.408494 -161.711065 
L 335.575401 -163.256998 
L 335.616944 -164.802931 
L 335.605306 -166.348864 
L 335.605915 -167.894797 
L 335.660796 -169.44073 
L 335.789597 -170.986663 
L 335.996393 -172.532595 
L 336.26992 -174.078528 
L 336.579808 -175.624461 
L 336.880637 -177.170394 
L 337.128136 -178.716327 
L 337.298318 -180.26226 
L 337.396517 -181.808193 
L 337.451283 -183.354126 
L 337.498482 -184.900059 
L 337.56524 -186.445992 
L 337.660644 -187.991924 
L 337.775109 -189.537857 
L 337.88704 -191.08379 
L 337.973936 -192.629723 
L 338.023792 -194.175656 
L 338.041515 -195.721589 
L 338.046619 -197.267522 
L 338.063184 -198.813455 
L 338.107868 -200.359388 
L 338.182684 -201.905321 
L 338.275845 -203.451254 
L 338.368951 -204.997186 
L 338.445656 -206.543119 
L 338.497228 -208.089052 
L 338.523401 -209.634985 
L 338.529879 -211.180918 
L 338.524813 -212.726851 
L 338.515823 -214.272784 
L 338.50826 -215.818717 
L 338.504934 -217.36465 
L 338.506872 -218.910583 
L 338.514101 -220.456515 
L 338.645899 -220.456515 
L 338.645899 -220.456515 
L 338.653128 -218.910583 
L 338.655066 -217.36465 
L 338.65174 -215.818717 
L 338.644177 -214.272784 
L 338.635187 -212.726851 
L 338.630121 -211.180918 
L 338.636599 -209.634985 
L 338.662772 -208.089052 
L 338.714344 -206.543119 
L 338.791049 -204.997186 
L 338.884155 -203.451254 
L 338.977316 -201.905321 
L 339.052132 -200.359388 
L 339.096816 -198.813455 
L 339.113381 -197.267522 
L 339.118485 -195.721589 
L 339.136208 -194.175656 
L 339.186064 -192.629723 
L 339.27296 -191.08379 
L 339.384891 -189.537857 
L 339.499356 -187.991924 
L 339.59476 -186.445992 
L 339.661518 -184.900059 
L 339.708717 -183.354126 
L 339.763483 -181.808193 
L 339.861682 -180.26226 
L 340.031864 -178.716327 
L 340.279363 -177.170394 
L 340.580192 -175.624461 
L 340.89008 -174.078528 
L 341.163607 -172.532595 
L 341.370403 -170.986663 
L 341.499204 -169.44073 
L 341.554085 -167.894797 
L 341.554694 -166.348864 
L 341.543056 -164.802931 
L 341.584599 -163.256998 
L 341.751506 -161.711065 
L 342.09379 -160.165132 
L 342.616793 -158.619199 
L 343.27889 -157.073266 
L 344.009032 -155.527333 
L 344.734884 -153.981401 
L 345.410743 -152.435468 
L 346.034653 -150.889535 
L 346.646608 -149.343602 
L 347.307682 -147.797669 
L 348.071145 -146.251736 
L 348.96269 -144.705803 
L 349.98142 -143.15987 
L 351.117702 -141.613937 
L 352.369797 -140.068004 
L 353.742437 -138.522072 
L 355.229155 -136.976139 
L 356.798238 -135.430206 
L 358.399061 -133.884273 
L 359.98418 -132.33834 
L 361.52714 -130.792407 
L 363.021228 -129.246474 
L 364.462187 -127.700541 
L 365.831648 -126.154608 
L 367.097698 -124.608675 
L 368.233163 -123.062742 
L 369.232866 -121.51681 
L 370.109571 -119.970877 
L 370.869389 -118.424944 
L 371.48809 -116.879011 
L 371.908329 -115.333078 
L 372.06 -113.787145 
L 371.889232 -112.241212 
L 371.374409 -110.695279 
L 370.515308 -109.149346 
L 369.306012 -107.603413 
L 367.724711 -106.057481 
L 365.762352 -104.511548 
L 363.469271 -102.965615 
L 360.971366 -101.419682 
L 358.432407 -99.873749 
L 355.991191 -98.327816 
L 353.722676 -96.781883 
L 351.642771 -95.23595 
L 349.737601 -93.690017 
L 347.989939 -92.144084 
L 346.392177 -90.598151 
L 344.948524 -89.052219 
L 343.670818 -87.506286 
L 342.571689 -85.960353 
L 341.65886 -84.41442 
L 340.931668 -82.868487 
L 340.378457 -81.322554 
L 339.975559 -79.776621 
L 339.69081 -78.230688 
L 339.491213 -76.684755 
L 339.349324 -75.138822 
L 339.244162 -73.59289 
L 339.158641 -72.046957 
L 339.078465 -70.501024 
L 338.994293 -68.955091 
L 338.90446 -67.409158 
z
" id="m897ba1f657" style="stroke:#3f3f3f;stroke-width:1.5;"/>
    </defs>
    <g clip-path="url(#pcc8d651bb7)">
     <use style="fill:#e1812c;stroke:#3f3f3f;stroke-width:1.5;" x="0" xlink:href="#m897ba1f657" y="288"/>
    </g>
   </g>
   <g id="patch_3">
    <path clip-path="url(#pcc8d651bb7)" d="M 137.7 298.759467 
L 137.7 298.759467 
L 137.7 298.759467 
L 137.7 298.759467 
z
" style="fill:#3274a1;stroke:#3f3f3f;stroke-linejoin:miter;stroke-width:0.75;"/>
   </g>
   <g id="patch_4">
    <path clip-path="url(#pcc8d651bb7)" d="M 137.7 298.759467 
L 137.7 298.759467 
L 137.7 298.759467 
L 137.7 298.759467 
z
" style="fill:#e1812c;stroke:#3f3f3f;stroke-linejoin:miter;stroke-width:0.75;"/>
   </g>
   <g id="matplotlib.axis_1">
    <g id="xtick_1">
     <g id="line2d_1">
      <defs>
       <path d="M 0 0 
L 0 3.5 
" id="ma160636cf8" style="stroke:#000000;stroke-width:0.8;"/>
      </defs>
      <g>
       <use style="stroke:#000000;stroke-width:0.8;" x="137.7" xlink:href="#ma160636cf8" y="252"/>
      </g>
     </g>
     <g id="text_1">
      <!-- Z_2_ns -->
      <g transform="translate(120.320312 266.421875)scale(0.1 -0.1)">
       <defs>
        <path d="M 5.609375 72.90625 
L 62.890625 72.90625 
L 62.890625 65.375 
L 16.796875 8.296875 
L 64.015625 8.296875 
L 64.015625 0 
L 4.5 0 
L 4.5 7.515625 
L 50.59375 64.59375 
L 5.609375 64.59375 
z
" id="DejaVuSans-90"/>
        <path d="M 50.984375 -16.609375 
L 50.984375 -23.578125 
L -0.984375 -23.578125 
L -0.984375 -16.609375 
z
" id="DejaVuSans-95"/>
        <path d="M 19.1875 8.296875 
L 53.609375 8.296875 
L 53.609375 0 
L 7.328125 0 
L 7.328125 8.296875 
Q 12.9375 14.109375 22.625 23.890625 
Q 32.328125 33.6875 34.8125 36.53125 
Q 39.546875 41.84375 41.421875 45.53125 
Q 43.3125 49.21875 43.3125 52.78125 
Q 43.3125 58.59375 39.234375 62.25 
Q 35.15625 65.921875 28.609375 65.921875 
Q 23.96875 65.921875 18.8125 64.3125 
Q 13.671875 62.703125 7.8125 59.421875 
L 7.8125 69.390625 
Q 13.765625 71.78125 18.9375 73 
Q 24.125 74.21875 28.421875 74.21875 
Q 39.75 74.21875 46.484375 68.546875 
Q 53.21875 62.890625 53.21875 53.421875 
Q 53.21875 48.921875 51.53125 44.890625 
Q 49.859375 40.875 45.40625 35.40625 
Q 44.1875 33.984375 37.640625 27.21875 
Q 31.109375 20.453125 19.1875 8.296875 
z
" id="DejaVuSans-50"/>
        <path d="M 54.890625 33.015625 
L 54.890625 0 
L 45.90625 0 
L 45.90625 32.71875 
Q 45.90625 40.484375 42.875 44.328125 
Q 39.84375 48.1875 33.796875 48.1875 
Q 26.515625 48.1875 22.3125 43.546875 
Q 18.109375 38.921875 18.109375 30.90625 
L 18.109375 0 
L 9.078125 0 
L 9.078125 54.6875 
L 18.109375 54.6875 
L 18.109375 46.1875 
Q 21.34375 51.125 25.703125 53.5625 
Q 30.078125 56 35.796875 56 
Q 45.21875 56 50.046875 50.171875 
Q 54.890625 44.34375 54.890625 33.015625 
z
" id="DejaVuSans-110"/>
        <path d="M 44.28125 53.078125 
L 44.28125 44.578125 
Q 40.484375 46.53125 36.375 47.5 
Q 32.28125 48.484375 27.875 48.484375 
Q 21.1875 48.484375 17.84375 46.4375 
Q 14.5 44.390625 14.5 40.28125 
Q 14.5 37.15625 16.890625 35.375 
Q 19.28125 33.59375 26.515625 31.984375 
L 29.59375 31.296875 
Q 39.15625 29.25 43.1875 25.515625 
Q 47.21875 21.78125 47.21875 15.09375 
Q 47.21875 7.46875 41.1875 3.015625 
Q 35.15625 -1.421875 24.609375 -1.421875 
Q 20.21875 -1.421875 15.453125 -0.5625 
Q 10.6875 0.296875 5.421875 2 
L 5.421875 11.28125 
Q 10.40625 8.6875 15.234375 7.390625 
Q 20.0625 6.109375 24.8125 6.109375 
Q 31.15625 6.109375 34.5625 8.28125 
Q 37.984375 10.453125 37.984375 14.40625 
Q 37.984375 18.0625 35.515625 20.015625 
Q 33.0625 21.96875 24.703125 23.78125 
L 21.578125 24.515625 
Q 13.234375 26.265625 9.515625 29.90625 
Q 5.8125 33.546875 5.8125 39.890625 
Q 5.8125 47.609375 11.28125 51.796875 
Q 16.75 56 26.8125 56 
Q 31.78125 56 36.171875 55.265625 
Q 40.578125 54.546875 44.28125 53.078125 
z
" id="DejaVuSans-115"/>
       </defs>
       <use xlink:href="#DejaVuSans-90"/>
       <use x="68.505859" xlink:href="#DejaVuSans-95"/>
       <use x="118.505859" xlink:href="#DejaVuSans-50"/>
       <use x="182.128906" xlink:href="#DejaVuSans-95"/>
       <use x="232.128906" xlink:href="#DejaVuSans-110"/>
       <use x="295.507812" xlink:href="#DejaVuSans-115"/>
      </g>
     </g>
    </g>
    <g id="xtick_2">
     <g id="line2d_2">
      <g>
       <use style="stroke:#000000;stroke-width:0.8;" x="305.1" xlink:href="#ma160636cf8" y="252"/>
      </g>
     </g>
     <g id="text_2">
      <!-- Z_3_ns -->
      <g transform="translate(287.720313 266.421875)scale(0.1 -0.1)">
       <defs>
        <path d="M 40.578125 39.3125 
Q 47.65625 37.796875 51.625 33 
Q 55.609375 28.21875 55.609375 21.1875 
Q 55.609375 10.40625 48.1875 4.484375 
Q 40.765625 -1.421875 27.09375 -1.421875 
Q 22.515625 -1.421875 17.65625 -0.515625 
Q 12.796875 0.390625 7.625 2.203125 
L 7.625 11.71875 
Q 11.71875 9.328125 16.59375 8.109375 
Q 21.484375 6.890625 26.8125 6.890625 
Q 36.078125 6.890625 40.9375 10.546875 
Q 45.796875 14.203125 45.796875 21.1875 
Q 45.796875 27.640625 41.28125 31.265625 
Q 36.765625 34.90625 28.71875 34.90625 
L 20.21875 34.90625 
L 20.21875 43.015625 
L 29.109375 43.015625 
Q 36.375 43.015625 40.234375 45.921875 
Q 44.09375 48.828125 44.09375 54.296875 
Q 44.09375 59.90625 40.109375 62.90625 
Q 36.140625 65.921875 28.71875 65.921875 
Q 24.65625 65.921875 20.015625 65.03125 
Q 15.375 64.15625 9.8125 62.3125 
L 9.8125 71.09375 
Q 15.4375 72.65625 20.34375 73.4375 
Q 25.25 74.21875 29.59375 74.21875 
Q 40.828125 74.21875 47.359375 69.109375 
Q 53.90625 64.015625 53.90625 55.328125 
Q 53.90625 49.265625 50.4375 45.09375 
Q 46.96875 40.921875 40.578125 39.3125 
z
" id="DejaVuSans-51"/>
       </defs>
       <use xlink:href="#DejaVuSans-90"/>
       <use x="68.505859" xlink:href="#DejaVuSans-95"/>
       <use x="118.505859" xlink:href="#DejaVuSans-51"/>
       <use x="182.128906" xlink:href="#DejaVuSans-95"/>
       <use x="232.128906" xlink:href="#DejaVuSans-110"/>
       <use x="295.507812" xlink:href="#DejaVuSans-115"/>
      </g>
     </g>
    </g>
    <g id="text_3">
     <!-- set -->
     <g transform="translate(213.758594 280.378125)scale(0.1 -0.1)">
      <defs>
       <path d="M 56.203125 29.59375 
L 56.203125 25.203125 
L 14.890625 25.203125 
Q 15.484375 15.921875 20.484375 11.0625 
Q 25.484375 6.203125 34.421875 6.203125 
Q 39.59375 6.203125 44.453125 7.46875 
Q 49.3125 8.734375 54.109375 11.28125 
L 54.109375 2.78125 
Q 49.265625 0.734375 44.1875 -0.34375 
Q 39.109375 -1.421875 33.890625 -1.421875 
Q 20.796875 -1.421875 13.15625 6.1875 
Q 5.515625 13.8125 5.515625 26.8125 
Q 5.515625 40.234375 12.765625 48.109375 
Q 20.015625 56 32.328125 56 
Q 43.359375 56 49.78125 48.890625 
Q 56.203125 41.796875 56.203125 29.59375 
z
M 47.21875 32.234375 
Q 47.125 39.59375 43.09375 43.984375 
Q 39.0625 48.390625 32.421875 48.390625 
Q 24.90625 48.390625 20.390625 44.140625 
Q 15.875 39.890625 15.1875 32.171875 
z
" id="DejaVuSans-101"/>
       <path d="M 18.3125 70.21875 
L 18.3125 54.6875 
L 36.8125 54.6875 
L 36.8125 47.703125 
L 18.3125 47.703125 
L 18.3125 18.015625 
Q 18.3125 11.328125 20.140625 9.421875 
Q 21.96875 7.515625 27.59375 7.515625 
L 36.8125 7.515625 
L 36.8125 0 
L 27.59375 0 
Q 17.1875 0 13.234375 3.875 
Q 9.28125 7.765625 9.28125 18.015625 
L 9.28125 47.703125 
L 2.6875 47.703125 
L 2.6875 54.6875 
L 9.28125 54.6875 
L 9.28125 70.21875 
z
" id="DejaVuSans-116"/>
      </defs>
      <use xlink:href="#DejaVuSans-115"/>
      <use x="52.099609" xlink:href="#DejaVuSans-101"/>
      <use x="113.623047" xlink:href="#DejaVuSans-116"/>
     </g>
    </g>
   </g>
   <g id="matplotlib.axis_2">
    <g id="ytick_1">
     <g id="line2d_3">
      <defs>
       <path d="M 0 0 
L -3.5 0 
" id="me13000397a" style="stroke:#000000;stroke-width:0.8;"/>
      </defs>
      <g>
       <use style="stroke:#000000;stroke-width:0.8;" x="54" xlink:href="#me13000397a" y="222.818317"/>
      </g>
     </g>
     <g id="text_4">
      <!-- 40 -->
      <g transform="translate(34.275 226.617535)scale(0.1 -0.1)">
       <defs>
        <path d="M 37.796875 64.3125 
L 12.890625 25.390625 
L 37.796875 25.390625 
z
M 35.203125 72.90625 
L 47.609375 72.90625 
L 47.609375 25.390625 
L 58.015625 25.390625 
L 58.015625 17.1875 
L 47.609375 17.1875 
L 47.609375 0 
L 37.796875 0 
L 37.796875 17.1875 
L 4.890625 17.1875 
L 4.890625 26.703125 
z
" id="DejaVuSans-52"/>
        <path d="M 31.78125 66.40625 
Q 24.171875 66.40625 20.328125 58.90625 
Q 16.5 51.421875 16.5 36.375 
Q 16.5 21.390625 20.328125 13.890625 
Q 24.171875 6.390625 31.78125 6.390625 
Q 39.453125 6.390625 43.28125 13.890625 
Q 47.125 21.390625 47.125 36.375 
Q 47.125 51.421875 43.28125 58.90625 
Q 39.453125 66.40625 31.78125 66.40625 
z
M 31.78125 74.21875 
Q 44.046875 74.21875 50.515625 64.515625 
Q 56.984375 54.828125 56.984375 36.375 
Q 56.984375 17.96875 50.515625 8.265625 
Q 44.046875 -1.421875 31.78125 -1.421875 
Q 19.53125 -1.421875 13.0625 8.265625 
Q 6.59375 17.96875 6.59375 36.375 
Q 6.59375 54.828125 13.0625 64.515625 
Q 19.53125 74.21875 31.78125 74.21875 
z
" id="DejaVuSans-48"/>
       </defs>
       <use xlink:href="#DejaVuSans-52"/>
       <use x="63.623047" xlink:href="#DejaVuSans-48"/>
      </g>
     </g>
    </g>
    <g id="ytick_2">
     <g id="line2d_4">
      <g>
       <use style="stroke:#000000;stroke-width:0.8;" x="54" xlink:href="#me13000397a" y="184.847741"/>
      </g>
     </g>
     <g id="text_5">
      <!-- 60 -->
      <g transform="translate(34.275 188.64696)scale(0.1 -0.1)">
       <defs>
        <path d="M 33.015625 40.375 
Q 26.375 40.375 22.484375 35.828125 
Q 18.609375 31.296875 18.609375 23.390625 
Q 18.609375 15.53125 22.484375 10.953125 
Q 26.375 6.390625 33.015625 6.390625 
Q 39.65625 6.390625 43.53125 10.953125 
Q 47.40625 15.53125 47.40625 23.390625 
Q 47.40625 31.296875 43.53125 35.828125 
Q 39.65625 40.375 33.015625 40.375 
z
M 52.59375 71.296875 
L 52.59375 62.3125 
Q 48.875 64.0625 45.09375 64.984375 
Q 41.3125 65.921875 37.59375 65.921875 
Q 27.828125 65.921875 22.671875 59.328125 
Q 17.53125 52.734375 16.796875 39.40625 
Q 19.671875 43.65625 24.015625 45.921875 
Q 28.375 48.1875 33.59375 48.1875 
Q 44.578125 48.1875 50.953125 41.515625 
Q 57.328125 34.859375 57.328125 23.390625 
Q 57.328125 12.15625 50.6875 5.359375 
Q 44.046875 -1.421875 33.015625 -1.421875 
Q 20.359375 -1.421875 13.671875 8.265625 
Q 6.984375 17.96875 6.984375 36.375 
Q 6.984375 53.65625 15.1875 63.9375 
Q 23.390625 74.21875 37.203125 74.21875 
Q 40.921875 74.21875 44.703125 73.484375 
Q 48.484375 72.75 52.59375 71.296875 
z
" id="DejaVuSans-54"/>
       </defs>
       <use xlink:href="#DejaVuSans-54"/>
       <use x="63.623047" xlink:href="#DejaVuSans-48"/>
      </g>
     </g>
    </g>
    <g id="ytick_3">
     <g id="line2d_5">
      <g>
       <use style="stroke:#000000;stroke-width:0.8;" x="54" xlink:href="#me13000397a" y="146.877166"/>
      </g>
     </g>
     <g id="text_6">
      <!-- 80 -->
      <g transform="translate(34.275 150.676385)scale(0.1 -0.1)">
       <defs>
        <path d="M 31.78125 34.625 
Q 24.75 34.625 20.71875 30.859375 
Q 16.703125 27.09375 16.703125 20.515625 
Q 16.703125 13.921875 20.71875 10.15625 
Q 24.75 6.390625 31.78125 6.390625 
Q 38.8125 6.390625 42.859375 10.171875 
Q 46.921875 13.96875 46.921875 20.515625 
Q 46.921875 27.09375 42.890625 30.859375 
Q 38.875 34.625 31.78125 34.625 
z
M 21.921875 38.8125 
Q 15.578125 40.375 12.03125 44.71875 
Q 8.5 49.078125 8.5 55.328125 
Q 8.5 64.0625 14.71875 69.140625 
Q 20.953125 74.21875 31.78125 74.21875 
Q 42.671875 74.21875 48.875 69.140625 
Q 55.078125 64.0625 55.078125 55.328125 
Q 55.078125 49.078125 51.53125 44.71875 
Q 48 40.375 41.703125 38.8125 
Q 48.828125 37.15625 52.796875 32.3125 
Q 56.78125 27.484375 56.78125 20.515625 
Q 56.78125 9.90625 50.3125 4.234375 
Q 43.84375 -1.421875 31.78125 -1.421875 
Q 19.734375 -1.421875 13.25 4.234375 
Q 6.78125 9.90625 6.78125 20.515625 
Q 6.78125 27.484375 10.78125 32.3125 
Q 14.796875 37.15625 21.921875 38.8125 
z
M 18.3125 54.390625 
Q 18.3125 48.734375 21.84375 45.5625 
Q 25.390625 42.390625 31.78125 42.390625 
Q 38.140625 42.390625 41.71875 45.5625 
Q 45.3125 48.734375 45.3125 54.390625 
Q 45.3125 60.0625 41.71875 63.234375 
Q 38.140625 66.40625 31.78125 66.40625 
Q 25.390625 66.40625 21.84375 63.234375 
Q 18.3125 60.0625 18.3125 54.390625 
z
" id="DejaVuSans-56"/>
       </defs>
       <use xlink:href="#DejaVuSans-56"/>
       <use x="63.623047" xlink:href="#DejaVuSans-48"/>
      </g>
     </g>
    </g>
    <g id="ytick_4">
     <g id="line2d_6">
      <g>
       <use style="stroke:#000000;stroke-width:0.8;" x="54" xlink:href="#me13000397a" y="108.906591"/>
      </g>
     </g>
     <g id="text_7">
      <!-- 100 -->
      <g transform="translate(27.9125 112.70581)scale(0.1 -0.1)">
       <defs>
        <path d="M 12.40625 8.296875 
L 28.515625 8.296875 
L 28.515625 63.921875 
L 10.984375 60.40625 
L 10.984375 69.390625 
L 28.421875 72.90625 
L 38.28125 72.90625 
L 38.28125 8.296875 
L 54.390625 8.296875 
L 54.390625 0 
L 12.40625 0 
z
" id="DejaVuSans-49"/>
       </defs>
       <use xlink:href="#DejaVuSans-49"/>
       <use x="63.623047" xlink:href="#DejaVuSans-48"/>
       <use x="127.246094" xlink:href="#DejaVuSans-48"/>
      </g>
     </g>
    </g>
    <g id="ytick_5">
     <g id="line2d_7">
      <g>
       <use style="stroke:#000000;stroke-width:0.8;" x="54" xlink:href="#me13000397a" y="70.936015"/>
      </g>
     </g>
     <g id="text_8">
      <!-- 120 -->
      <g transform="translate(27.9125 74.735234)scale(0.1 -0.1)">
       <use xlink:href="#DejaVuSans-49"/>
       <use x="63.623047" xlink:href="#DejaVuSans-50"/>
       <use x="127.246094" xlink:href="#DejaVuSans-48"/>
      </g>
     </g>
    </g>
    <g id="text_9">
     <!-- value -->
     <g transform="translate(21.832812 156.937813)rotate(-90)scale(0.1 -0.1)">
      <defs>
       <path d="M 2.984375 54.6875 
L 12.5 54.6875 
L 29.59375 8.796875 
L 46.6875 54.6875 
L 56.203125 54.6875 
L 35.6875 0 
L 23.484375 0 
z
" id="DejaVuSans-118"/>
       <path d="M 34.28125 27.484375 
Q 23.390625 27.484375 19.1875 25 
Q 14.984375 22.515625 14.984375 16.5 
Q 14.984375 11.71875 18.140625 8.90625 
Q 21.296875 6.109375 26.703125 6.109375 
Q 34.1875 6.109375 38.703125 11.40625 
Q 43.21875 16.703125 43.21875 25.484375 
L 43.21875 27.484375 
z
M 52.203125 31.203125 
L 52.203125 0 
L 43.21875 0 
L 43.21875 8.296875 
Q 40.140625 3.328125 35.546875 0.953125 
Q 30.953125 -1.421875 24.3125 -1.421875 
Q 15.921875 -1.421875 10.953125 3.296875 
Q 6 8.015625 6 15.921875 
Q 6 25.140625 12.171875 29.828125 
Q 18.359375 34.515625 30.609375 34.515625 
L 43.21875 34.515625 
L 43.21875 35.40625 
Q 43.21875 41.609375 39.140625 45 
Q 35.0625 48.390625 27.6875 48.390625 
Q 23 48.390625 18.546875 47.265625 
Q 14.109375 46.140625 10.015625 43.890625 
L 10.015625 52.203125 
Q 14.9375 54.109375 19.578125 55.046875 
Q 24.21875 56 28.609375 56 
Q 40.484375 56 46.34375 49.84375 
Q 52.203125 43.703125 52.203125 31.203125 
z
" id="DejaVuSans-97"/>
       <path d="M 9.421875 75.984375 
L 18.40625 75.984375 
L 18.40625 0 
L 9.421875 0 
z
" id="DejaVuSans-108"/>
       <path d="M 8.5 21.578125 
L 8.5 54.6875 
L 17.484375 54.6875 
L 17.484375 21.921875 
Q 17.484375 14.15625 20.5 10.265625 
Q 23.53125 6.390625 29.59375 6.390625 
Q 36.859375 6.390625 41.078125 11.03125 
Q 45.3125 15.671875 45.3125 23.6875 
L 45.3125 54.6875 
L 54.296875 54.6875 
L 54.296875 0 
L 45.3125 0 
L 45.3125 8.40625 
Q 42.046875 3.421875 37.71875 1 
Q 33.40625 -1.421875 27.6875 -1.421875 
Q 18.265625 -1.421875 13.375 4.4375 
Q 8.5 10.296875 8.5 21.578125 
z
M 31.109375 56 
z
" id="DejaVuSans-117"/>
      </defs>
      <use xlink:href="#DejaVuSans-118"/>
      <use x="59.179688" xlink:href="#DejaVuSans-97"/>
      <use x="120.458984" xlink:href="#DejaVuSans-108"/>
      <use x="148.242188" xlink:href="#DejaVuSans-117"/>
      <use x="211.621094" xlink:href="#DejaVuSans-101"/>
     </g>
    </g>
   </g>
   <g id="line2d_8">
    <path clip-path="url(#pcc8d651bb7)" d="M 104.22 219.965034 
L 104.22 124.75125 
" style="fill:none;stroke:#3f3f3f;stroke-linecap:square;stroke-width:1.5;"/>
   </g>
   <g id="line2d_9">
    <path clip-path="url(#pcc8d651bb7)" d="M 104.22 184.158715 
L 104.22 160.163174 
" style="fill:none;stroke:#3f3f3f;stroke-linecap:square;stroke-width:4.5;"/>
   </g>
   <g id="line2d_10">
    <path clip-path="url(#pcc8d651bb7)" d="M 338.58 216.344124 
L 338.58 119.915471 
" style="fill:none;stroke:#3f3f3f;stroke-linecap:square;stroke-width:1.5;"/>
   </g>
   <g id="line2d_11">
    <path clip-path="url(#pcc8d651bb7)" d="M 338.58 180.418408 
L 338.58 156.053321 
" style="fill:none;stroke:#3f3f3f;stroke-linecap:square;stroke-width:4.5;"/>
   </g>
   <g id="patch_5">
    <path d="M 54 252 
L 54 34.56 
" style="fill:none;stroke:#000000;stroke-linecap:square;stroke-linejoin:miter;stroke-width:0.8;"/>
   </g>
   <g id="patch_6">
    <path d="M 388.8 252 
L 388.8 34.56 
" style="fill:none;stroke:#000000;stroke-linecap:square;stroke-linejoin:miter;stroke-width:0.8;"/>
   </g>
   <g id="patch_7">
    <path d="M 54 252 
L 388.8 252 
" style="fill:none;stroke:#000000;stroke-linecap:square;stroke-linejoin:miter;stroke-width:0.8;"/>
   </g>
   <g id="patch_8">
    <path d="M 54 34.56 
L 388.8 34.56 
" style="fill:none;stroke:#000000;stroke-linecap:square;stroke-linejoin:miter;stroke-width:0.8;"/>
   </g>
   <g id="PathCollection_1">
    <defs>
     <path d="M 0 1.5 
C 0.397805 1.5 0.77937 1.341951 1.06066 1.06066 
C 1.341951 0.77937 1.5 0.397805 1.5 0 
C 1.5 -0.397805 1.341951 -0.77937 1.06066 -1.06066 
C 0.77937 -1.341951 0.397805 -1.5 0 -1.5 
C -0.397805 -1.5 -0.77937 -1.341951 -1.06066 -1.06066 
C -1.341951 -0.77937 -1.5 -0.397805 -1.5 0 
C -1.5 0.397805 -1.341951 0.77937 -1.06066 1.06066 
C -0.77937 1.341951 -0.397805 1.5 0 1.5 
z
" id="m653ddd1794" style="stroke:#3f3f3f;"/>
    </defs>
    <g clip-path="url(#pcc8d651bb7)">
     <use style="fill:#ffffff;stroke:#3f3f3f;" x="104.22" xlink:href="#m653ddd1794" y="173.230333"/>
    </g>
   </g>
   <g id="PathCollection_2">
    <g clip-path="url(#pcc8d651bb7)">
     <use style="fill:#ffffff;stroke:#3f3f3f;" x="338.58" xlink:href="#m653ddd1794" y="169.445501"/>
    </g>
   </g>
   <g id="legend_1">
    <g id="patch_9">
     <path d="M 315.040625 87.150625 
L 381.8 87.150625 
Q 383.8 87.150625 383.8 85.150625 
L 383.8 41.56 
Q 383.8 39.56 381.8 39.56 
L 315.040625 39.56 
Q 313.040625 39.56 313.040625 41.56 
L 313.040625 85.150625 
Q 313.040625 87.150625 315.040625 87.150625 
z
" style="fill:#ffffff;opacity:0.8;stroke:#cccccc;stroke-linejoin:miter;"/>
    </g>
    <g id="text_10">
     <!-- set -->
     <g transform="translate(340.778906 51.158437)scale(0.1 -0.1)">
      <use xlink:href="#DejaVuSans-115"/>
      <use x="52.099609" xlink:href="#DejaVuSans-101"/>
      <use x="113.623047" xlink:href="#DejaVuSans-116"/>
     </g>
    </g>
    <g id="patch_10">
     <path d="M 317.040625 65.836562 
L 337.040625 65.836562 
L 337.040625 58.836562 
L 317.040625 58.836562 
z
" style="fill:#3274a1;stroke:#3f3f3f;stroke-linejoin:miter;stroke-width:0.75;"/>
    </g>
    <g id="text_11">
     <!-- Z_2_ns -->
     <g transform="translate(345.040625 65.836562)scale(0.1 -0.1)">
      <use xlink:href="#DejaVuSans-90"/>
      <use x="68.505859" xlink:href="#DejaVuSans-95"/>
      <use x="118.505859" xlink:href="#DejaVuSans-50"/>
      <use x="182.128906" xlink:href="#DejaVuSans-95"/>
      <use x="232.128906" xlink:href="#DejaVuSans-110"/>
      <use x="295.507812" xlink:href="#DejaVuSans-115"/>
     </g>
    </g>
    <g id="patch_11">
     <path d="M 317.040625 80.792812 
L 337.040625 80.792812 
L 337.040625 73.792812 
L 317.040625 73.792812 
z
" style="fill:#e1812c;stroke:#3f3f3f;stroke-linejoin:miter;stroke-width:0.75;"/>
    </g>
    <g id="text_12">
     <!-- Z_3_ns -->
     <g transform="translate(345.040625 80.792812)scale(0.1 -0.1)">
      <use xlink:href="#DejaVuSans-90"/>
      <use x="68.505859" xlink:href="#DejaVuSans-95"/>
      <use x="118.505859" xlink:href="#DejaVuSans-51"/>
      <use x="182.128906" xlink:href="#DejaVuSans-95"/>
      <use x="232.128906" xlink:href="#DejaVuSans-110"/>
      <use x="295.507812" xlink:href="#DejaVuSans-115"/>
     </g>
    </g>
   </g>
  </g>
 </g>
 <defs>
  <clipPath id="pcc8d651bb7">
   <rect height="217.44" width="334.8" x="54" y="34.56"/>
  </clipPath>
 </defs>
</svg>
