<?xml version="1.0" encoding="utf-8" standalone="no"?>
<!DOCTYPE svg PUBLIC "-//W3C//DTD SVG 1.1//EN"
  "http://www.w3.org/Graphics/SVG/1.1/DTD/svg11.dtd">
<!-- Created with matplotlib (https://matplotlib.org/) -->
<svg height="288pt" version="1.1" viewBox="0 0 432 288" width="432pt" xmlns="http://www.w3.org/2000/svg" xmlns:xlink="http://www.w3.org/1999/xlink">
 <metadata>
  <rdf:RDF xmlns:cc="http://creativecommons.org/ns#" xmlns:dc="http://purl.org/dc/elements/1.1/" xmlns:rdf="http://www.w3.org/1999/02/22-rdf-syntax-ns#">
   <cc:Work>
    <dc:type rdf:resource="http://purl.org/dc/dcmitype/StillImage"/>
    <dc:date>2022-05-05T17:49:54.858714</dc:date>
    <dc:format>image/svg+xml</dc:format>
    <dc:creator>
     <cc:Agent>
      <dc:title>Matplotlib v3.3.4, https://matplotlib.org/</dc:title>
     </cc:Agent>
    </dc:creator>
   </cc:Work>
  </rdf:RDF>
 </metadata>
 <defs>
  <style type="text/css">*{stroke-linecap:butt;stroke-linejoin:round;}</style>
 </defs>
 <g id="figure_1">
  <g id="patch_1">
   <path d="M 0 288 
L 432 288 
L 432 0 
L 0 0 
z
" style="fill:#ffffff;"/>
  </g>
  <g id="axes_1">
   <g id="patch_2">
    <path d="M 54 252 
L 388.8 252 
L 388.8 34.56 
L 54 34.56 
z
" style="fill:#ffffff;"/>
   </g>
   <g id="PolyCollection_1">
    <defs>
     <path d="M 104.322468 -45.883636 
L 104.117532 -45.883636 
L 104.101348 -47.781323 
L 104.085087 -49.67901 
L 104.06558 -51.576697 
L 104.039442 -53.474384 
L 104.004407 -55.37207 
L 103.959958 -57.269757 
L 103.907068 -59.167444 
L 103.847518 -61.065131 
L 103.783461 -62.962817 
L 103.717558 -64.860504 
L 103.653369 -66.758191 
L 103.595196 -68.655878 
L 103.546701 -70.553565 
L 103.508513 -72.451251 
L 103.476154 -74.348938 
L 103.440031 -76.246625 
L 103.388334 -78.144312 
L 103.311847 -80.041999 
L 103.208217 -81.939685 
L 103.083243 -83.837372 
L 102.948411 -85.735059 
L 102.816108 -87.632746 
L 102.695157 -89.530433 
L 102.588823 -91.428119 
L 102.495631 -93.325806 
L 102.411785 -95.223493 
L 102.333593 -97.12118 
L 102.259017 -99.018867 
L 102.188106 -100.916553 
L 102.122171 -102.81424 
L 102.06153 -104.711927 
L 102.002457 -106.609614 
L 101.935194 -108.5073 
L 101.845153 -110.404987 
L 101.717871 -112.302674 
L 101.545452 -114.200361 
L 101.330417 -116.098048 
L 101.083628 -117.995734 
L 100.81634 -119.893421 
L 100.53067 -121.791108 
L 100.214944 -123.688795 
L 99.848491 -125.586482 
L 99.414556 -127.484168 
L 98.913773 -129.381855 
L 98.368805 -131.279542 
L 97.815799 -133.177229 
L 97.286967 -135.074916 
L 96.794442 -136.972602 
L 96.324148 -138.870289 
L 95.841868 -140.767976 
L 95.307488 -142.665663 
L 94.691301 -144.56335 
L 93.987229 -146.461036 
L 93.218999 -148.358723 
L 92.4362 -150.25641 
L 91.699463 -152.154097 
L 91.058651 -154.051783 
L 90.532572 -155.94947 
L 90.0996 -157.847157 
L 89.703937 -159.744844 
L 89.274252 -161.642531 
L 88.745077 -163.540217 
L 88.070841 -165.437904 
L 87.228272 -167.335591 
L 86.210974 -169.233278 
L 85.02446 -171.130965 
L 83.687213 -173.028651 
L 82.235539 -174.926338 
L 80.723912 -176.824025 
L 79.214675 -178.721712 
L 77.7607 -180.619399 
L 76.39289 -182.517085 
L 75.122393 -184.414772 
L 73.955802 -186.312459 
L 72.91119 -188.210146 
L 72.023455 -190.107833 
L 71.337564 -192.005519 
L 70.897597 -193.903206 
L 70.74 -195.800893 
L 70.89287 -197.69858 
L 71.377484 -199.596267 
L 72.208571 -201.493953 
L 73.393422 -203.39164 
L 74.931506 -205.289327 
L 76.814001 -207.187014 
L 79.020254 -209.0847 
L 81.509633 -210.982387 
L 84.21226 -212.880074 
L 87.025953 -214.777761 
L 89.825253 -216.675448 
L 92.481877 -218.573134 
L 94.88892 -220.470821 
L 96.978695 -222.368508 
L 98.727624 -224.266195 
L 100.148453 -226.163882 
L 101.275614 -228.061568 
L 102.151036 -229.959255 
L 102.815219 -231.856942 
L 103.304269 -233.754629 
L 105.135731 -233.754629 
L 105.135731 -233.754629 
L 105.624781 -231.856942 
L 106.288964 -229.959255 
L 107.164386 -228.061568 
L 108.291547 -226.163882 
L 109.712376 -224.266195 
L 111.461305 -222.368508 
L 113.55108 -220.470821 
L 115.958123 -218.573134 
L 118.614747 -216.675448 
L 121.414047 -214.777761 
L 124.22774 -212.880074 
L 126.930367 -210.982387 
L 129.419746 -209.0847 
L 131.625999 -207.187014 
L 133.508494 -205.289327 
L 135.046578 -203.39164 
L 136.231429 -201.493953 
L 137.062516 -199.596267 
L 137.54713 -197.69858 
L 137.7 -195.800893 
L 137.542403 -193.903206 
L 137.102436 -192.005519 
L 136.416545 -190.107833 
L 135.52881 -188.210146 
L 134.484198 -186.312459 
L 133.317607 -184.414772 
L 132.04711 -182.517085 
L 130.6793 -180.619399 
L 129.225325 -178.721712 
L 127.716088 -176.824025 
L 126.204461 -174.926338 
L 124.752787 -173.028651 
L 123.41554 -171.130965 
L 122.229026 -169.233278 
L 121.211728 -167.335591 
L 120.369159 -165.437904 
L 119.694923 -163.540217 
L 119.165748 -161.642531 
L 118.736063 -159.744844 
L 118.3404 -157.847157 
L 117.907428 -155.94947 
L 117.381349 -154.051783 
L 116.740537 -152.154097 
L 116.0038 -150.25641 
L 115.221001 -148.358723 
L 114.452771 -146.461036 
L 113.748699 -144.56335 
L 113.132512 -142.665663 
L 112.598132 -140.767976 
L 112.115852 -138.870289 
L 111.645558 -136.972602 
L 111.153033 -135.074916 
L 110.624201 -133.177229 
L 110.071195 -131.279542 
L 109.526227 -129.381855 
L 109.025444 -127.484168 
L 108.591509 -125.586482 
L 108.225056 -123.688795 
L 107.90933 -121.791108 
L 107.62366 -119.893421 
L 107.356372 -117.995734 
L 107.109583 -116.098048 
L 106.894548 -114.200361 
L 106.722129 -112.302674 
L 106.594847 -110.404987 
L 106.504806 -108.5073 
L 106.437543 -106.609614 
L 106.37847 -104.711927 
L 106.317829 -102.81424 
L 106.251894 -100.916553 
L 106.180983 -99.018867 
L 106.106407 -97.12118 
L 106.028215 -95.223493 
L 105.944369 -93.325806 
L 105.851177 -91.428119 
L 105.744843 -89.530433 
L 105.623892 -87.632746 
L 105.491589 -85.735059 
L 105.356757 -83.837372 
L 105.231783 -81.939685 
L 105.128153 -80.041999 
L 105.051666 -78.144312 
L 104.999969 -76.246625 
L 104.963846 -74.348938 
L 104.931487 -72.451251 
L 104.893299 -70.553565 
L 104.844804 -68.655878 
L 104.786631 -66.758191 
L 104.722442 -64.860504 
L 104.656539 -62.962817 
L 104.592482 -61.065131 
L 104.532932 -59.167444 
L 104.480042 -57.269757 
L 104.435593 -55.37207 
L 104.400558 -53.474384 
L 104.37442 -51.576697 
L 104.354913 -49.67901 
L 104.338652 -47.781323 
L 104.322468 -45.883636 
z
" id="m31777c07b0" style="stroke:#3f3f3f;stroke-width:1.5;"/>
    </defs>
    <g clip-path="url(#p09f2ca6e7c)">
     <use style="fill:#3274a1;stroke:#3f3f3f;stroke-width:1.5;" x="0" xlink:href="#m31777c07b0" y="288"/>
    </g>
   </g>
   <g id="PolyCollection_2">
    <defs>
     <path d="M 338.625501 -61.74641 
L 338.534499 -61.74641 
L 338.538415 -63.582874 
L 338.548251 -65.419338 
L 338.559726 -67.255802 
L 338.56906 -69.092266 
L 338.574579 -70.92873 
L 338.576177 -72.765195 
L 338.573835 -74.601659 
L 338.566766 -76.438123 
L 338.553873 -78.274587 
L 338.535116 -80.111051 
L 338.512654 -81.947516 
L 338.490765 -83.78398 
L 338.474571 -85.620444 
L 338.468372 -87.456908 
L 338.47404 -89.293372 
L 338.489577 -91.129836 
L 338.50851 -92.966301 
L 338.52112 -94.802765 
L 338.517558 -96.639229 
L 338.491802 -98.475693 
L 338.44489 -100.312157 
L 338.385088 -102.148622 
L 338.322939 -103.985086 
L 338.263334 -105.82155 
L 338.201991 -107.658014 
L 338.131971 -109.494478 
L 338.055417 -111.330942 
L 337.987631 -113.167407 
L 337.946501 -115.003871 
L 337.935803 -116.840335 
L 337.938917 -118.676799 
L 337.930025 -120.513263 
L 337.893322 -122.349728 
L 337.833969 -124.186192 
L 337.771399 -126.022656 
L 337.71965 -127.85912 
L 337.672071 -129.695584 
L 337.607089 -131.532048 
L 337.511207 -133.368513 
L 337.394363 -135.204977 
L 337.279632 -137.041441 
L 337.17856 -138.877905 
L 337.078448 -140.714369 
L 336.952869 -142.550834 
L 336.78411 -144.387298 
L 336.578775 -146.223762 
L 336.364109 -148.060226 
L 336.165037 -149.89669 
L 335.977079 -151.733155 
L 335.75774 -153.569619 
L 335.446775 -155.406083 
L 335.001978 -157.242547 
L 334.425153 -159.079011 
L 333.762363 -160.915475 
L 333.080249 -162.75194 
L 332.431174 -164.588404 
L 331.823511 -166.424868 
L 331.213058 -168.261332 
L 330.522937 -170.097796 
L 329.680604 -171.934261 
L 328.646325 -173.770725 
L 327.415493 -175.607189 
L 326.004808 -177.443653 
L 324.45118 -179.280117 
L 322.832652 -181.116581 
L 321.278204 -182.953046 
L 319.926412 -184.78951 
L 318.843508 -186.625974 
L 317.962336 -188.462438 
L 317.096351 -190.298902 
L 316.028142 -192.135367 
L 314.619593 -193.971831 
L 312.877693 -195.808295 
L 310.946454 -197.644759 
L 309.047934 -199.481223 
L 307.409372 -201.317687 
L 306.192429 -203.154152 
L 305.442632 -204.990616 
L 305.101717 -206.82708 
L 305.1 -208.663544 
L 305.464224 -210.500008 
L 306.338541 -212.336473 
L 307.885172 -214.172937 
L 310.140091 -216.009401 
L 312.939409 -217.845865 
L 315.974075 -219.682329 
L 318.933387 -221.518793 
L 321.638157 -223.355258 
L 324.077846 -225.191722 
L 326.338561 -227.028186 
L 328.488781 -228.86465 
L 330.514154 -230.701114 
L 332.339481 -232.537579 
L 333.896545 -234.374043 
L 335.167998 -236.210507 
L 336.179072 -238.046971 
L 336.965017 -239.883435 
L 337.553287 -241.719899 
L 337.968258 -243.556364 
L 339.191742 -243.556364 
L 339.191742 -243.556364 
L 339.606713 -241.719899 
L 340.194983 -239.883435 
L 340.980928 -238.046971 
L 341.992002 -236.210507 
L 343.263455 -234.374043 
L 344.820519 -232.537579 
L 346.645846 -230.701114 
L 348.671219 -228.86465 
L 350.821439 -227.028186 
L 353.082154 -225.191722 
L 355.521843 -223.355258 
L 358.226613 -221.518793 
L 361.185925 -219.682329 
L 364.220591 -217.845865 
L 367.019909 -216.009401 
L 369.274828 -214.172937 
L 370.821459 -212.336473 
L 371.695776 -210.500008 
L 372.06 -208.663544 
L 372.058283 -206.82708 
L 371.717368 -204.990616 
L 370.967571 -203.154152 
L 369.750628 -201.317687 
L 368.112066 -199.481223 
L 366.213546 -197.644759 
L 364.282307 -195.808295 
L 362.540407 -193.971831 
L 361.131858 -192.135367 
L 360.063649 -190.298902 
L 359.197664 -188.462438 
L 358.316492 -186.625974 
L 357.233588 -184.78951 
L 355.881796 -182.953046 
L 354.327348 -181.116581 
L 352.70882 -179.280117 
L 351.155192 -177.443653 
L 349.744507 -175.607189 
L 348.513675 -173.770725 
L 347.479396 -171.934261 
L 346.637063 -170.097796 
L 345.946942 -168.261332 
L 345.336489 -166.424868 
L 344.728826 -164.588404 
L 344.079751 -162.75194 
L 343.397637 -160.915475 
L 342.734847 -159.079011 
L 342.158022 -157.242547 
L 341.713225 -155.406083 
L 341.40226 -153.569619 
L 341.182921 -151.733155 
L 340.994963 -149.89669 
L 340.795891 -148.060226 
L 340.581225 -146.223762 
L 340.37589 -144.387298 
L 340.207131 -142.550834 
L 340.081552 -140.714369 
L 339.98144 -138.877905 
L 339.880368 -137.041441 
L 339.765637 -135.204977 
L 339.648793 -133.368513 
L 339.552911 -131.532048 
L 339.487929 -129.695584 
L 339.44035 -127.85912 
L 339.388601 -126.022656 
L 339.326031 -124.186192 
L 339.266678 -122.349728 
L 339.229975 -120.513263 
L 339.221083 -118.676799 
L 339.224197 -116.840335 
L 339.213499 -115.003871 
L 339.172369 -113.167407 
L 339.104583 -111.330942 
L 339.028029 -109.494478 
L 338.958009 -107.658014 
L 338.896666 -105.82155 
L 338.837061 -103.985086 
L 338.774912 -102.148622 
L 338.71511 -100.312157 
L 338.668198 -98.475693 
L 338.642442 -96.639229 
L 338.63888 -94.802765 
L 338.65149 -92.966301 
L 338.670423 -91.129836 
L 338.68596 -89.293372 
L 338.691628 -87.456908 
L 338.685429 -85.620444 
L 338.669235 -83.78398 
L 338.647346 -81.947516 
L 338.624884 -80.111051 
L 338.606127 -78.274587 
L 338.593234 -76.438123 
L 338.586165 -74.601659 
L 338.583823 -72.765195 
L 338.585421 -70.92873 
L 338.59094 -69.092266 
L 338.600274 -67.255802 
L 338.611749 -65.419338 
L 338.621585 -63.582874 
L 338.625501 -61.74641 
z
" id="mb43c0a3cd7" style="stroke:#3f3f3f;stroke-width:1.5;"/>
    </defs>
    <g clip-path="url(#p09f2ca6e7c)">
     <use style="fill:#e1812c;stroke:#3f3f3f;stroke-width:1.5;" x="0" xlink:href="#mb43c0a3cd7" y="288"/>
    </g>
   </g>
   <g id="patch_3">
    <path clip-path="url(#p09f2ca6e7c)" d="M 137.7 360.83347 
L 137.7 360.83347 
L 137.7 360.83347 
L 137.7 360.83347 
z
" style="fill:#3274a1;stroke:#3f3f3f;stroke-linejoin:miter;stroke-width:0.75;"/>
   </g>
   <g id="patch_4">
    <path clip-path="url(#p09f2ca6e7c)" d="M 137.7 360.83347 
L 137.7 360.83347 
L 137.7 360.83347 
L 137.7 360.83347 
z
" style="fill:#e1812c;stroke:#3f3f3f;stroke-linejoin:miter;stroke-width:0.75;"/>
   </g>
   <g id="matplotlib.axis_1">
    <g id="xtick_1">
     <g id="line2d_1">
      <defs>
       <path d="M 0 0 
L 0 3.5 
" id="m5aa3180226" style="stroke:#000000;stroke-width:0.8;"/>
      </defs>
      <g>
       <use style="stroke:#000000;stroke-width:0.8;" x="137.7" xlink:href="#m5aa3180226" y="252"/>
      </g>
     </g>
     <g id="text_1">
      <!-- Z_2_ns -->
      <g transform="translate(120.320312 266.421875)scale(0.1 -0.1)">
       <defs>
        <path d="M 5.609375 72.90625 
L 62.890625 72.90625 
L 62.890625 65.375 
L 16.796875 8.296875 
L 64.015625 8.296875 
L 64.015625 0 
L 4.5 0 
L 4.5 7.515625 
L 50.59375 64.59375 
L 5.609375 64.59375 
z
" id="DejaVuSans-90"/>
        <path d="M 50.984375 -16.609375 
L 50.984375 -23.578125 
L -0.984375 -23.578125 
L -0.984375 -16.609375 
z
" id="DejaVuSans-95"/>
        <path d="M 19.1875 8.296875 
L 53.609375 8.296875 
L 53.609375 0 
L 7.328125 0 
L 7.328125 8.296875 
Q 12.9375 14.109375 22.625 23.890625 
Q 32.328125 33.6875 34.8125 36.53125 
Q 39.546875 41.84375 41.421875 45.53125 
Q 43.3125 49.21875 43.3125 52.78125 
Q 43.3125 58.59375 39.234375 62.25 
Q 35.15625 65.921875 28.609375 65.921875 
Q 23.96875 65.921875 18.8125 64.3125 
Q 13.671875 62.703125 7.8125 59.421875 
L 7.8125 69.390625 
Q 13.765625 71.78125 18.9375 73 
Q 24.125 74.21875 28.421875 74.21875 
Q 39.75 74.21875 46.484375 68.546875 
Q 53.21875 62.890625 53.21875 53.421875 
Q 53.21875 48.921875 51.53125 44.890625 
Q 49.859375 40.875 45.40625 35.40625 
Q 44.1875 33.984375 37.640625 27.21875 
Q 31.109375 20.453125 19.1875 8.296875 
z
" id="DejaVuSans-50"/>
        <path d="M 54.890625 33.015625 
L 54.890625 0 
L 45.90625 0 
L 45.90625 32.71875 
Q 45.90625 40.484375 42.875 44.328125 
Q 39.84375 48.1875 33.796875 48.1875 
Q 26.515625 48.1875 22.3125 43.546875 
Q 18.109375 38.921875 18.109375 30.90625 
L 18.109375 0 
L 9.078125 0 
L 9.078125 54.6875 
L 18.109375 54.6875 
L 18.109375 46.1875 
Q 21.34375 51.125 25.703125 53.5625 
Q 30.078125 56 35.796875 56 
Q 45.21875 56 50.046875 50.171875 
Q 54.890625 44.34375 54.890625 33.015625 
z
" id="DejaVuSans-110"/>
        <path d="M 44.28125 53.078125 
L 44.28125 44.578125 
Q 40.484375 46.53125 36.375 47.5 
Q 32.28125 48.484375 27.875 48.484375 
Q 21.1875 48.484375 17.84375 46.4375 
Q 14.5 44.390625 14.5 40.28125 
Q 14.5 37.15625 16.890625 35.375 
Q 19.28125 33.59375 26.515625 31.984375 
L 29.59375 31.296875 
Q 39.15625 29.25 43.1875 25.515625 
Q 47.21875 21.78125 47.21875 15.09375 
Q 47.21875 7.46875 41.1875 3.015625 
Q 35.15625 -1.421875 24.609375 -1.421875 
Q 20.21875 -1.421875 15.453125 -0.5625 
Q 10.6875 0.296875 5.421875 2 
L 5.421875 11.28125 
Q 10.40625 8.6875 15.234375 7.390625 
Q 20.0625 6.109375 24.8125 6.109375 
Q 31.15625 6.109375 34.5625 8.28125 
Q 37.984375 10.453125 37.984375 14.40625 
Q 37.984375 18.0625 35.515625 20.015625 
Q 33.0625 21.96875 24.703125 23.78125 
L 21.578125 24.515625 
Q 13.234375 26.265625 9.515625 29.90625 
Q 5.8125 33.546875 5.8125 39.890625 
Q 5.8125 47.609375 11.28125 51.796875 
Q 16.75 56 26.8125 56 
Q 31.78125 56 36.171875 55.265625 
Q 40.578125 54.546875 44.28125 53.078125 
z
" id="DejaVuSans-115"/>
       </defs>
       <use xlink:href="#DejaVuSans-90"/>
       <use x="68.505859" xlink:href="#DejaVuSans-95"/>
       <use x="118.505859" xlink:href="#DejaVuSans-50"/>
       <use x="182.128906" xlink:href="#DejaVuSans-95"/>
       <use x="232.128906" xlink:href="#DejaVuSans-110"/>
       <use x="295.507812" xlink:href="#DejaVuSans-115"/>
      </g>
     </g>
    </g>
    <g id="xtick_2">
     <g id="line2d_2">
      <g>
       <use style="stroke:#000000;stroke-width:0.8;" x="305.1" xlink:href="#m5aa3180226" y="252"/>
      </g>
     </g>
     <g id="text_2">
      <!-- Z_3_ns -->
      <g transform="translate(287.720313 266.421875)scale(0.1 -0.1)">
       <defs>
        <path d="M 40.578125 39.3125 
Q 47.65625 37.796875 51.625 33 
Q 55.609375 28.21875 55.609375 21.1875 
Q 55.609375 10.40625 48.1875 4.484375 
Q 40.765625 -1.421875 27.09375 -1.421875 
Q 22.515625 -1.421875 17.65625 -0.515625 
Q 12.796875 0.390625 7.625 2.203125 
L 7.625 11.71875 
Q 11.71875 9.328125 16.59375 8.109375 
Q 21.484375 6.890625 26.8125 6.890625 
Q 36.078125 6.890625 40.9375 10.546875 
Q 45.796875 14.203125 45.796875 21.1875 
Q 45.796875 27.640625 41.28125 31.265625 
Q 36.765625 34.90625 28.71875 34.90625 
L 20.21875 34.90625 
L 20.21875 43.015625 
L 29.109375 43.015625 
Q 36.375 43.015625 40.234375 45.921875 
Q 44.09375 48.828125 44.09375 54.296875 
Q 44.09375 59.90625 40.109375 62.90625 
Q 36.140625 65.921875 28.71875 65.921875 
Q 24.65625 65.921875 20.015625 65.03125 
Q 15.375 64.15625 9.8125 62.3125 
L 9.8125 71.09375 
Q 15.4375 72.65625 20.34375 73.4375 
Q 25.25 74.21875 29.59375 74.21875 
Q 40.828125 74.21875 47.359375 69.109375 
Q 53.90625 64.015625 53.90625 55.328125 
Q 53.90625 49.265625 50.4375 45.09375 
Q 46.96875 40.921875 40.578125 39.3125 
z
" id="DejaVuSans-51"/>
       </defs>
       <use xlink:href="#DejaVuSans-90"/>
       <use x="68.505859" xlink:href="#DejaVuSans-95"/>
       <use x="118.505859" xlink:href="#DejaVuSans-51"/>
       <use x="182.128906" xlink:href="#DejaVuSans-95"/>
       <use x="232.128906" xlink:href="#DejaVuSans-110"/>
       <use x="295.507812" xlink:href="#DejaVuSans-115"/>
      </g>
     </g>
    </g>
    <g id="text_3">
     <!-- set -->
     <g transform="translate(213.758594 280.378125)scale(0.1 -0.1)">
      <defs>
       <path d="M 56.203125 29.59375 
L 56.203125 25.203125 
L 14.890625 25.203125 
Q 15.484375 15.921875 20.484375 11.0625 
Q 25.484375 6.203125 34.421875 6.203125 
Q 39.59375 6.203125 44.453125 7.46875 
Q 49.3125 8.734375 54.109375 11.28125 
L 54.109375 2.78125 
Q 49.265625 0.734375 44.1875 -0.34375 
Q 39.109375 -1.421875 33.890625 -1.421875 
Q 20.796875 -1.421875 13.15625 6.1875 
Q 5.515625 13.8125 5.515625 26.8125 
Q 5.515625 40.234375 12.765625 48.109375 
Q 20.015625 56 32.328125 56 
Q 43.359375 56 49.78125 48.890625 
Q 56.203125 41.796875 56.203125 29.59375 
z
M 47.21875 32.234375 
Q 47.125 39.59375 43.09375 43.984375 
Q 39.0625 48.390625 32.421875 48.390625 
Q 24.90625 48.390625 20.390625 44.140625 
Q 15.875 39.890625 15.1875 32.171875 
z
" id="DejaVuSans-101"/>
       <path d="M 18.3125 70.21875 
L 18.3125 54.6875 
L 36.8125 54.6875 
L 36.8125 47.703125 
L 18.3125 47.703125 
L 18.3125 18.015625 
Q 18.3125 11.328125 20.140625 9.421875 
Q 21.96875 7.515625 27.59375 7.515625 
L 36.8125 7.515625 
L 36.8125 0 
L 27.59375 0 
Q 17.1875 0 13.234375 3.875 
Q 9.28125 7.765625 9.28125 18.015625 
L 9.28125 47.703125 
L 2.6875 47.703125 
L 2.6875 54.6875 
L 9.28125 54.6875 
L 9.28125 70.21875 
z
" id="DejaVuSans-116"/>
      </defs>
      <use xlink:href="#DejaVuSans-115"/>
      <use x="52.099609" xlink:href="#DejaVuSans-101"/>
      <use x="113.623047" xlink:href="#DejaVuSans-116"/>
     </g>
    </g>
   </g>
   <g id="matplotlib.axis_2">
    <g id="ytick_1">
     <g id="line2d_3">
      <defs>
       <path d="M 0 0 
L -3.5 0 
" id="mec94c6c769" style="stroke:#000000;stroke-width:0.8;"/>
      </defs>
      <g>
       <use style="stroke:#000000;stroke-width:0.8;" x="54" xlink:href="#mec94c6c769" y="236.046079"/>
      </g>
     </g>
     <g id="text_4">
      <!-- 20 -->
      <g transform="translate(34.275 239.845297)scale(0.1 -0.1)">
       <defs>
        <path d="M 31.78125 66.40625 
Q 24.171875 66.40625 20.328125 58.90625 
Q 16.5 51.421875 16.5 36.375 
Q 16.5 21.390625 20.328125 13.890625 
Q 24.171875 6.390625 31.78125 6.390625 
Q 39.453125 6.390625 43.28125 13.890625 
Q 47.125 21.390625 47.125 36.375 
Q 47.125 51.421875 43.28125 58.90625 
Q 39.453125 66.40625 31.78125 66.40625 
z
M 31.78125 74.21875 
Q 44.046875 74.21875 50.515625 64.515625 
Q 56.984375 54.828125 56.984375 36.375 
Q 56.984375 17.96875 50.515625 8.265625 
Q 44.046875 -1.421875 31.78125 -1.421875 
Q 19.53125 -1.421875 13.0625 8.265625 
Q 6.59375 17.96875 6.59375 36.375 
Q 6.59375 54.828125 13.0625 64.515625 
Q 19.53125 74.21875 31.78125 74.21875 
z
" id="DejaVuSans-48"/>
       </defs>
       <use xlink:href="#DejaVuSans-50"/>
       <use x="63.623047" xlink:href="#DejaVuSans-48"/>
      </g>
     </g>
    </g>
    <g id="ytick_2">
     <g id="line2d_4">
      <g>
       <use style="stroke:#000000;stroke-width:0.8;" x="54" xlink:href="#mec94c6c769" y="204.849231"/>
      </g>
     </g>
     <g id="text_5">
      <!-- 25 -->
      <g transform="translate(34.275 208.648449)scale(0.1 -0.1)">
       <defs>
        <path d="M 10.796875 72.90625 
L 49.515625 72.90625 
L 49.515625 64.59375 
L 19.828125 64.59375 
L 19.828125 46.734375 
Q 21.96875 47.46875 24.109375 47.828125 
Q 26.265625 48.1875 28.421875 48.1875 
Q 40.625 48.1875 47.75 41.5 
Q 54.890625 34.8125 54.890625 23.390625 
Q 54.890625 11.625 47.5625 5.09375 
Q 40.234375 -1.421875 26.90625 -1.421875 
Q 22.3125 -1.421875 17.546875 -0.640625 
Q 12.796875 0.140625 7.71875 1.703125 
L 7.71875 11.625 
Q 12.109375 9.234375 16.796875 8.0625 
Q 21.484375 6.890625 26.703125 6.890625 
Q 35.15625 6.890625 40.078125 11.328125 
Q 45.015625 15.765625 45.015625 23.390625 
Q 45.015625 31 40.078125 35.4375 
Q 35.15625 39.890625 26.703125 39.890625 
Q 22.75 39.890625 18.8125 39.015625 
Q 14.890625 38.140625 10.796875 36.28125 
z
" id="DejaVuSans-53"/>
       </defs>
       <use xlink:href="#DejaVuSans-50"/>
       <use x="63.623047" xlink:href="#DejaVuSans-53"/>
      </g>
     </g>
    </g>
    <g id="ytick_3">
     <g id="line2d_5">
      <g>
       <use style="stroke:#000000;stroke-width:0.8;" x="54" xlink:href="#mec94c6c769" y="173.652383"/>
      </g>
     </g>
     <g id="text_6">
      <!-- 30 -->
      <g transform="translate(34.275 177.451601)scale(0.1 -0.1)">
       <use xlink:href="#DejaVuSans-51"/>
       <use x="63.623047" xlink:href="#DejaVuSans-48"/>
      </g>
     </g>
    </g>
    <g id="ytick_4">
     <g id="line2d_6">
      <g>
       <use style="stroke:#000000;stroke-width:0.8;" x="54" xlink:href="#mec94c6c769" y="142.455535"/>
      </g>
     </g>
     <g id="text_7">
      <!-- 35 -->
      <g transform="translate(34.275 146.254753)scale(0.1 -0.1)">
       <use xlink:href="#DejaVuSans-51"/>
       <use x="63.623047" xlink:href="#DejaVuSans-53"/>
      </g>
     </g>
    </g>
    <g id="ytick_5">
     <g id="line2d_7">
      <g>
       <use style="stroke:#000000;stroke-width:0.8;" x="54" xlink:href="#mec94c6c769" y="111.258687"/>
      </g>
     </g>
     <g id="text_8">
      <!-- 40 -->
      <g transform="translate(34.275 115.057905)scale(0.1 -0.1)">
       <defs>
        <path d="M 37.796875 64.3125 
L 12.890625 25.390625 
L 37.796875 25.390625 
z
M 35.203125 72.90625 
L 47.609375 72.90625 
L 47.609375 25.390625 
L 58.015625 25.390625 
L 58.015625 17.1875 
L 47.609375 17.1875 
L 47.609375 0 
L 37.796875 0 
L 37.796875 17.1875 
L 4.890625 17.1875 
L 4.890625 26.703125 
z
" id="DejaVuSans-52"/>
       </defs>
       <use xlink:href="#DejaVuSans-52"/>
       <use x="63.623047" xlink:href="#DejaVuSans-48"/>
      </g>
     </g>
    </g>
    <g id="ytick_6">
     <g id="line2d_8">
      <g>
       <use style="stroke:#000000;stroke-width:0.8;" x="54" xlink:href="#mec94c6c769" y="80.061839"/>
      </g>
     </g>
     <g id="text_9">
      <!-- 45 -->
      <g transform="translate(34.275 83.861057)scale(0.1 -0.1)">
       <use xlink:href="#DejaVuSans-52"/>
       <use x="63.623047" xlink:href="#DejaVuSans-53"/>
      </g>
     </g>
    </g>
    <g id="ytick_7">
     <g id="line2d_9">
      <g>
       <use style="stroke:#000000;stroke-width:0.8;" x="54" xlink:href="#mec94c6c769" y="48.864991"/>
      </g>
     </g>
     <g id="text_10">
      <!-- 50 -->
      <g transform="translate(34.275 52.66421)scale(0.1 -0.1)">
       <use xlink:href="#DejaVuSans-53"/>
       <use x="63.623047" xlink:href="#DejaVuSans-48"/>
      </g>
     </g>
    </g>
    <g id="text_11">
     <!-- value -->
     <g transform="translate(28.195312 156.937813)rotate(-90)scale(0.1 -0.1)">
      <defs>
       <path d="M 2.984375 54.6875 
L 12.5 54.6875 
L 29.59375 8.796875 
L 46.6875 54.6875 
L 56.203125 54.6875 
L 35.6875 0 
L 23.484375 0 
z
" id="DejaVuSans-118"/>
       <path d="M 34.28125 27.484375 
Q 23.390625 27.484375 19.1875 25 
Q 14.984375 22.515625 14.984375 16.5 
Q 14.984375 11.71875 18.140625 8.90625 
Q 21.296875 6.109375 26.703125 6.109375 
Q 34.1875 6.109375 38.703125 11.40625 
Q 43.21875 16.703125 43.21875 25.484375 
L 43.21875 27.484375 
z
M 52.203125 31.203125 
L 52.203125 0 
L 43.21875 0 
L 43.21875 8.296875 
Q 40.140625 3.328125 35.546875 0.953125 
Q 30.953125 -1.421875 24.3125 -1.421875 
Q 15.921875 -1.421875 10.953125 3.296875 
Q 6 8.015625 6 15.921875 
Q 6 25.140625 12.171875 29.828125 
Q 18.359375 34.515625 30.609375 34.515625 
L 43.21875 34.515625 
L 43.21875 35.40625 
Q 43.21875 41.609375 39.140625 45 
Q 35.0625 48.390625 27.6875 48.390625 
Q 23 48.390625 18.546875 47.265625 
Q 14.109375 46.140625 10.015625 43.890625 
L 10.015625 52.203125 
Q 14.9375 54.109375 19.578125 55.046875 
Q 24.21875 56 28.609375 56 
Q 40.484375 56 46.34375 49.84375 
Q 52.203125 43.703125 52.203125 31.203125 
z
" id="DejaVuSans-97"/>
       <path d="M 9.421875 75.984375 
L 18.40625 75.984375 
L 18.40625 0 
L 9.421875 0 
z
" id="DejaVuSans-108"/>
       <path d="M 8.5 21.578125 
L 8.5 54.6875 
L 17.484375 54.6875 
L 17.484375 21.921875 
Q 17.484375 14.15625 20.5 10.265625 
Q 23.53125 6.390625 29.59375 6.390625 
Q 36.859375 6.390625 41.078125 11.03125 
Q 45.3125 15.671875 45.3125 23.6875 
L 45.3125 54.6875 
L 54.296875 54.6875 
L 54.296875 0 
L 45.3125 0 
L 45.3125 8.40625 
Q 42.046875 3.421875 37.71875 1 
Q 33.40625 -1.421875 27.6875 -1.421875 
Q 18.265625 -1.421875 13.375 4.4375 
Q 8.5 10.296875 8.5 21.578125 
z
M 31.109375 56 
z
" id="DejaVuSans-117"/>
      </defs>
      <use xlink:href="#DejaVuSans-118"/>
      <use x="59.179688" xlink:href="#DejaVuSans-97"/>
      <use x="120.458984" xlink:href="#DejaVuSans-108"/>
      <use x="148.242188" xlink:href="#DejaVuSans-117"/>
      <use x="211.621094" xlink:href="#DejaVuSans-101"/>
     </g>
    </g>
   </g>
   <g id="line2d_10">
    <path clip-path="url(#p09f2ca6e7c)" d="M 104.22 178.545348 
L 104.22 54.245371 
" style="fill:none;stroke:#3f3f3f;stroke-linecap:square;stroke-width:1.5;"/>
   </g>
   <g id="line2d_11">
    <path clip-path="url(#p09f2ca6e7c)" d="M 104.22 123.957838 
L 104.22 87.353714 
" style="fill:none;stroke:#3f3f3f;stroke-linecap:square;stroke-width:4.5;"/>
   </g>
   <g id="line2d_12">
    <path clip-path="url(#p09f2ca6e7c)" d="M 338.58 139.870951 
L 338.58 44.443636 
" style="fill:none;stroke:#3f3f3f;stroke-linecap:square;stroke-width:1.5;"/>
   </g>
   <g id="line2d_13">
    <path clip-path="url(#p09f2ca6e7c)" d="M 338.58 100.843116 
L 338.58 74.755623 
" style="fill:none;stroke:#3f3f3f;stroke-linecap:square;stroke-width:4.5;"/>
   </g>
   <g id="patch_5">
    <path d="M 54 252 
L 54 34.56 
" style="fill:none;stroke:#000000;stroke-linecap:square;stroke-linejoin:miter;stroke-width:0.8;"/>
   </g>
   <g id="patch_6">
    <path d="M 388.8 252 
L 388.8 34.56 
" style="fill:none;stroke:#000000;stroke-linecap:square;stroke-linejoin:miter;stroke-width:0.8;"/>
   </g>
   <g id="patch_7">
    <path d="M 54 252 
L 388.8 252 
" style="fill:none;stroke:#000000;stroke-linecap:square;stroke-linejoin:miter;stroke-width:0.8;"/>
   </g>
   <g id="patch_8">
    <path d="M 54 34.56 
L 388.8 34.56 
" style="fill:none;stroke:#000000;stroke-linecap:square;stroke-linejoin:miter;stroke-width:0.8;"/>
   </g>
   <g id="PathCollection_1">
    <defs>
     <path d="M 0 1.5 
C 0.397805 1.5 0.77937 1.341951 1.06066 1.06066 
C 1.341951 0.77937 1.5 0.397805 1.5 0 
C 1.5 -0.397805 1.341951 -0.77937 1.06066 -1.06066 
C 0.77937 -1.341951 0.397805 -1.5 0 -1.5 
C -0.397805 -1.5 -0.77937 -1.341951 -1.06066 -1.06066 
C -1.341951 -0.77937 -1.5 -0.397805 -1.5 0 
C -1.5 0.397805 -1.341951 0.77937 -1.06066 1.06066 
C -0.77937 1.341951 -0.397805 1.5 0 1.5 
z
" id="me8806e12f6" style="stroke:#3f3f3f;"/>
    </defs>
    <g clip-path="url(#p09f2ca6e7c)">
     <use style="fill:#ffffff;stroke:#3f3f3f;" x="104.22" xlink:href="#me8806e12f6" y="101.776913"/>
    </g>
   </g>
   <g id="PathCollection_2">
    <g clip-path="url(#p09f2ca6e7c)">
     <use style="fill:#ffffff;stroke:#3f3f3f;" x="338.58" xlink:href="#me8806e12f6" y="85.627251"/>
    </g>
   </g>
   <g id="legend_1">
    <g id="patch_9">
     <path d="M 61 247 
L 127.759375 247 
Q 129.759375 247 129.759375 245 
L 129.759375 201.409375 
Q 129.759375 199.409375 127.759375 199.409375 
L 61 199.409375 
Q 59 199.409375 59 201.409375 
L 59 245 
Q 59 247 61 247 
z
" style="fill:#ffffff;opacity:0.8;stroke:#cccccc;stroke-linejoin:miter;"/>
    </g>
    <g id="text_12">
     <!-- set -->
     <g transform="translate(86.738281 211.007812)scale(0.1 -0.1)">
      <use xlink:href="#DejaVuSans-115"/>
      <use x="52.099609" xlink:href="#DejaVuSans-101"/>
      <use x="113.623047" xlink:href="#DejaVuSans-116"/>
     </g>
    </g>
    <g id="patch_10">
     <path d="M 63 225.685937 
L 83 225.685937 
L 83 218.685937 
L 63 218.685937 
z
" style="fill:#3274a1;stroke:#3f3f3f;stroke-linejoin:miter;stroke-width:0.75;"/>
    </g>
    <g id="text_13">
     <!-- Z_2_ns -->
     <g transform="translate(91 225.685937)scale(0.1 -0.1)">
      <use xlink:href="#DejaVuSans-90"/>
      <use x="68.505859" xlink:href="#DejaVuSans-95"/>
      <use x="118.505859" xlink:href="#DejaVuSans-50"/>
      <use x="182.128906" xlink:href="#DejaVuSans-95"/>
      <use x="232.128906" xlink:href="#DejaVuSans-110"/>
      <use x="295.507812" xlink:href="#DejaVuSans-115"/>
     </g>
    </g>
    <g id="patch_11">
     <path d="M 63 240.642188 
L 83 240.642188 
L 83 233.642188 
L 63 233.642188 
z
" style="fill:#e1812c;stroke:#3f3f3f;stroke-linejoin:miter;stroke-width:0.75;"/>
    </g>
    <g id="text_14">
     <!-- Z_3_ns -->
     <g transform="translate(91 240.642188)scale(0.1 -0.1)">
      <use xlink:href="#DejaVuSans-90"/>
      <use x="68.505859" xlink:href="#DejaVuSans-95"/>
      <use x="118.505859" xlink:href="#DejaVuSans-51"/>
      <use x="182.128906" xlink:href="#DejaVuSans-95"/>
      <use x="232.128906" xlink:href="#DejaVuSans-110"/>
      <use x="295.507812" xlink:href="#DejaVuSans-115"/>
     </g>
    </g>
   </g>
  </g>
 </g>
 <defs>
  <clipPath id="p09f2ca6e7c">
   <rect height="217.44" width="334.8" x="54" y="34.56"/>
  </clipPath>
 </defs>
</svg>
