<?xml version="1.0" encoding="utf-8" standalone="no"?>
<!DOCTYPE svg PUBLIC "-//W3C//DTD SVG 1.1//EN"
  "http://www.w3.org/Graphics/SVG/1.1/DTD/svg11.dtd">
<!-- Created with matplotlib (https://matplotlib.org/) -->
<svg height="288pt" version="1.1" viewBox="0 0 432 288" width="432pt" xmlns="http://www.w3.org/2000/svg" xmlns:xlink="http://www.w3.org/1999/xlink">
 <metadata>
  <rdf:RDF xmlns:cc="http://creativecommons.org/ns#" xmlns:dc="http://purl.org/dc/elements/1.1/" xmlns:rdf="http://www.w3.org/1999/02/22-rdf-syntax-ns#">
   <cc:Work>
    <dc:type rdf:resource="http://purl.org/dc/dcmitype/StillImage"/>
    <dc:date>2022-05-02T16:47:09.799240</dc:date>
    <dc:format>image/svg+xml</dc:format>
    <dc:creator>
     <cc:Agent>
      <dc:title>Matplotlib v3.3.4, https://matplotlib.org/</dc:title>
     </cc:Agent>
    </dc:creator>
   </cc:Work>
  </rdf:RDF>
 </metadata>
 <defs>
  <style type="text/css">*{stroke-linecap:butt;stroke-linejoin:round;}</style>
 </defs>
 <g id="figure_1">
  <g id="patch_1">
   <path d="M 0 288 
L 432 288 
L 432 0 
L 0 0 
z
" style="fill:#ffffff;"/>
  </g>
  <g id="axes_1">
   <g id="patch_2">
    <path d="M 54 252 
L 388.8 252 
L 388.8 34.56 
L 54 34.56 
z
" style="fill:#ffffff;"/>
   </g>
   <g id="PolyCollection_1">
    <defs>
     <path d="M 94.92 -45.900046 
L 65.16 -45.900046 
L 72.572273 -47.896575 
L 78.656104 -49.893103 
L 79.659539 -51.889632 
L 79.890835 -53.88616 
L 79.968964 -55.882689 
L 80.015112 -57.879217 
L 80.012298 -59.875746 
L 80.013075 -61.872274 
L 80.017089 -63.868802 
L 80.033066 -65.865331 
L 80.038891 -67.861859 
L 80.032182 -69.858388 
L 80.020995 -71.854916 
L 80.016355 -73.851445 
L 80.019195 -75.847973 
L 80.032553 -77.844502 
L 80.039303 -79.84103 
L 80.037144 -81.837559 
L 80.034632 -83.834087 
L 80.039407 -85.830615 
L 80.039645 -87.827144 
L 80.035305 -89.823672 
L 80.036187 -91.820201 
L 80.036435 -93.816729 
L 80.03506 -95.813258 
L 80.039579 -97.809786 
L 80.039998 -99.806315 
L 80.04 -101.802843 
L 80.04 -103.799372 
L 80.04 -105.7959 
L 80.04 -107.792429 
L 80.04 -109.788957 
L 80.04 -111.785485 
L 80.04 -113.782014 
L 80.04 -115.778542 
L 80.04 -117.775071 
L 80.04 -119.771599 
L 80.04 -121.768128 
L 80.04 -123.764656 
L 80.04 -125.761185 
L 80.04 -127.757713 
L 80.04 -129.754242 
L 80.04 -131.75077 
L 80.04 -133.747298 
L 80.04 -135.743827 
L 80.04 -137.740355 
L 80.04 -139.736884 
L 80.04 -141.733412 
L 80.04 -143.729941 
L 80.04 -145.726469 
L 80.04 -147.722998 
L 80.03986 -149.719526 
L 80.036572 -151.716055 
L 80.035087 -153.712583 
L 80.039588 -155.709112 
L 80.039998 -157.70564 
L 80.04 -159.702168 
L 80.04 -161.698697 
L 80.04 -163.695225 
L 80.04 -165.691754 
L 80.04 -167.688282 
L 80.04 -169.684811 
L 80.04 -171.681339 
L 80.04 -173.677868 
L 80.04 -175.674396 
L 80.04 -177.670925 
L 80.04 -179.667453 
L 80.04 -181.663981 
L 80.04 -183.66051 
L 80.04 -185.657038 
L 80.04 -187.653567 
L 80.04 -189.650095 
L 80.04 -191.646624 
L 80.04 -193.643152 
L 80.04 -195.639681 
L 80.04 -197.636209 
L 80.04 -199.632738 
L 80.04 -201.629266 
L 80.04 -203.625794 
L 80.04 -205.622323 
L 80.04 -207.618851 
L 80.04 -209.61538 
L 80.04 -211.611908 
L 80.04 -213.608437 
L 80.04 -215.604965 
L 80.04 -217.601494 
L 80.04 -219.598022 
L 80.04 -221.594551 
L 80.04 -223.591079 
L 80.04 -225.587608 
L 80.04 -227.584136 
L 80.04 -229.580664 
L 80.04 -231.577193 
L 80.039999 -233.573721 
L 80.03976 -235.57025 
L 80.035837 -237.566778 
L 80.035745 -239.563307 
L 80.038299 -241.559835 
L 80.034013 -243.556364 
L 80.045987 -243.556364 
L 80.045987 -243.556364 
L 80.041701 -241.559835 
L 80.044255 -239.563307 
L 80.044163 -237.566778 
L 80.04024 -235.57025 
L 80.040001 -233.573721 
L 80.04 -231.577193 
L 80.04 -229.580664 
L 80.04 -227.584136 
L 80.04 -225.587608 
L 80.04 -223.591079 
L 80.04 -221.594551 
L 80.04 -219.598022 
L 80.04 -217.601494 
L 80.04 -215.604965 
L 80.04 -213.608437 
L 80.04 -211.611908 
L 80.04 -209.61538 
L 80.04 -207.618851 
L 80.04 -205.622323 
L 80.04 -203.625794 
L 80.04 -201.629266 
L 80.04 -199.632738 
L 80.04 -197.636209 
L 80.04 -195.639681 
L 80.04 -193.643152 
L 80.04 -191.646624 
L 80.04 -189.650095 
L 80.04 -187.653567 
L 80.04 -185.657038 
L 80.04 -183.66051 
L 80.04 -181.663981 
L 80.04 -179.667453 
L 80.04 -177.670925 
L 80.04 -175.674396 
L 80.04 -173.677868 
L 80.04 -171.681339 
L 80.04 -169.684811 
L 80.04 -167.688282 
L 80.04 -165.691754 
L 80.04 -163.695225 
L 80.04 -161.698697 
L 80.04 -159.702168 
L 80.040002 -157.70564 
L 80.040412 -155.709112 
L 80.044913 -153.712583 
L 80.043428 -151.716055 
L 80.04014 -149.719526 
L 80.04 -147.722998 
L 80.04 -145.726469 
L 80.04 -143.729941 
L 80.04 -141.733412 
L 80.04 -139.736884 
L 80.04 -137.740355 
L 80.04 -135.743827 
L 80.04 -133.747298 
L 80.04 -131.75077 
L 80.04 -129.754242 
L 80.04 -127.757713 
L 80.04 -125.761185 
L 80.04 -123.764656 
L 80.04 -121.768128 
L 80.04 -119.771599 
L 80.04 -117.775071 
L 80.04 -115.778542 
L 80.04 -113.782014 
L 80.04 -111.785485 
L 80.04 -109.788957 
L 80.04 -107.792429 
L 80.04 -105.7959 
L 80.04 -103.799372 
L 80.04 -101.802843 
L 80.040002 -99.806315 
L 80.040421 -97.809786 
L 80.04494 -95.813258 
L 80.043565 -93.816729 
L 80.043813 -91.820201 
L 80.044695 -89.823672 
L 80.040355 -87.827144 
L 80.040593 -85.830615 
L 80.045368 -83.834087 
L 80.042856 -81.837559 
L 80.040697 -79.84103 
L 80.047447 -77.844502 
L 80.060805 -75.847973 
L 80.063645 -73.851445 
L 80.059005 -71.854916 
L 80.047818 -69.858388 
L 80.041109 -67.861859 
L 80.046934 -65.865331 
L 80.062911 -63.868802 
L 80.066925 -61.872274 
L 80.067702 -59.875746 
L 80.064888 -57.879217 
L 80.111036 -55.882689 
L 80.189165 -53.88616 
L 80.420461 -51.889632 
L 81.423896 -49.893103 
L 87.507727 -47.896575 
L 94.92 -45.900046 
z
" id="me26db675d3" style="stroke:#3d3d3d;stroke-width:1.5;"/>
    </defs>
    <g clip-path="url(#p1abf94a746)">
     <use style="fill:#3274a1;stroke:#3d3d3d;stroke-width:1.5;" x="0" xlink:href="#me26db675d3" y="288"/>
    </g>
   </g>
   <g id="PolyCollection_2">
    <defs>
     <path d="M 235.687043 -45.903132 
L 207.112957 -45.903132 
L 206.52 -46.230154 
L 209.010592 -46.557175 
L 212.722642 -46.884196 
L 215.818366 -47.211217 
L 217.720931 -47.538239 
L 218.754196 -47.86526 
L 219.360025 -48.192281 
L 219.768449 -48.519303 
L 220.0468 -48.846324 
L 220.224496 -49.173345 
L 220.348562 -49.500367 
L 220.466145 -49.827388 
L 220.594098 -50.154409 
L 220.719723 -50.48143 
L 220.82406 -50.808452 
L 220.900206 -51.135473 
L 220.955242 -51.462494 
L 221.001332 -51.789516 
L 221.047744 -52.116537 
L 221.097357 -52.443558 
L 221.143969 -52.77058 
L 221.1759 -53.097601 
L 221.188255 -53.424622 
L 221.188341 -53.751643 
L 221.186809 -54.078665 
L 221.18813 -54.405686 
L 221.191776 -54.732707 
L 221.200137 -55.059729 
L 221.220885 -55.38675 
L 221.258088 -55.713771 
L 221.303324 -56.040793 
L 221.339675 -56.367814 
L 221.354094 -56.694835 
L 221.345847 -57.021856 
L 221.326279 -57.348878 
L 221.311324 -57.675899 
L 221.311016 -58.00292 
L 221.323918 -58.329942 
L 221.341245 -58.656963 
L 221.355579 -58.983984 
L 221.364746 -59.311006 
L 221.368787 -59.638027 
L 221.367248 -59.965048 
L 221.361284 -60.292069 
L 221.355202 -60.619091 
L 221.353306 -60.946112 
L 221.356787 -61.273133 
L 221.364557 -61.600155 
L 221.374844 -61.927176 
L 221.385178 -62.254197 
L 221.393031 -62.581219 
L 221.397456 -62.90824 
L 221.399288 -63.235261 
L 221.399827 -63.562282 
L 221.399828 -63.889304 
L 221.399301 -64.216325 
L 221.397556 -64.543346 
L 221.393576 -64.870368 
L 221.387346 -65.197389 
L 221.381323 -65.52441 
L 221.379347 -65.851432 
L 221.382888 -66.178453 
L 221.389376 -66.505474 
L 221.395046 -66.832495 
L 221.398186 -67.159517 
L 221.399084 -67.486538 
L 221.398139 -67.813559 
L 221.394935 -68.140581 
L 221.389213 -68.467602 
L 221.382749 -68.794623 
L 221.379327 -69.121645 
L 221.381438 -69.448666 
L 221.387513 -69.775687 
L 221.393706 -70.102708 
L 221.397623 -70.42973 
L 221.399327 -70.756751 
L 221.399857 -71.083772 
L 221.399977 -71.410794 
L 221.399997 -71.737815 
L 221.4 -72.064836 
L 221.4 -72.391858 
L 221.4 -72.718879 
L 221.4 -73.0459 
L 221.4 -73.372921 
L 221.4 -73.699943 
L 221.4 -74.026964 
L 221.4 -74.353985 
L 221.4 -74.681007 
L 221.4 -75.008028 
L 221.4 -75.335049 
L 221.399998 -75.662071 
L 221.399982 -75.989092 
L 221.399885 -76.316113 
L 221.399439 -76.643134 
L 221.397942 -76.970156 
L 221.394348 -77.297177 
L 221.388368 -77.624198 
L 221.382064 -77.95122 
L 221.379278 -78.278241 
L 221.420722 -78.278241 
L 221.420722 -78.278241 
L 221.417936 -77.95122 
L 221.411632 -77.624198 
L 221.405652 -77.297177 
L 221.402058 -76.970156 
L 221.400561 -76.643134 
L 221.400115 -76.316113 
L 221.400018 -75.989092 
L 221.400002 -75.662071 
L 221.4 -75.335049 
L 221.4 -75.008028 
L 221.4 -74.681007 
L 221.4 -74.353985 
L 221.4 -74.026964 
L 221.4 -73.699943 
L 221.4 -73.372921 
L 221.4 -73.0459 
L 221.4 -72.718879 
L 221.4 -72.391858 
L 221.4 -72.064836 
L 221.400003 -71.737815 
L 221.400023 -71.410794 
L 221.400143 -71.083772 
L 221.400673 -70.756751 
L 221.402377 -70.42973 
L 221.406294 -70.102708 
L 221.412487 -69.775687 
L 221.418562 -69.448666 
L 221.420673 -69.121645 
L 221.417251 -68.794623 
L 221.410787 -68.467602 
L 221.405065 -68.140581 
L 221.401861 -67.813559 
L 221.400916 -67.486538 
L 221.401814 -67.159517 
L 221.404954 -66.832495 
L 221.410624 -66.505474 
L 221.417112 -66.178453 
L 221.420653 -65.851432 
L 221.418677 -65.52441 
L 221.412654 -65.197389 
L 221.406424 -64.870368 
L 221.402444 -64.543346 
L 221.400699 -64.216325 
L 221.400172 -63.889304 
L 221.400173 -63.562282 
L 221.400712 -63.235261 
L 221.402544 -62.90824 
L 221.406969 -62.581219 
L 221.414822 -62.254197 
L 221.425156 -61.927176 
L 221.435443 -61.600155 
L 221.443213 -61.273133 
L 221.446694 -60.946112 
L 221.444798 -60.619091 
L 221.438716 -60.292069 
L 221.432752 -59.965048 
L 221.431213 -59.638027 
L 221.435254 -59.311006 
L 221.444421 -58.983984 
L 221.458755 -58.656963 
L 221.476082 -58.329942 
L 221.488984 -58.00292 
L 221.488676 -57.675899 
L 221.473721 -57.348878 
L 221.454153 -57.021856 
L 221.445906 -56.694835 
L 221.460325 -56.367814 
L 221.496676 -56.040793 
L 221.541912 -55.713771 
L 221.579115 -55.38675 
L 221.599863 -55.059729 
L 221.608224 -54.732707 
L 221.61187 -54.405686 
L 221.613191 -54.078665 
L 221.611659 -53.751643 
L 221.611745 -53.424622 
L 221.6241 -53.097601 
L 221.656031 -52.77058 
L 221.702643 -52.443558 
L 221.752256 -52.116537 
L 221.798668 -51.789516 
L 221.844758 -51.462494 
L 221.899794 -51.135473 
L 221.97594 -50.808452 
L 222.080277 -50.48143 
L 222.205902 -50.154409 
L 222.333855 -49.827388 
L 222.451438 -49.500367 
L 222.575504 -49.173345 
L 222.7532 -48.846324 
L 223.031551 -48.519303 
L 223.439975 -48.192281 
L 224.045804 -47.86526 
L 225.079069 -47.538239 
L 226.981634 -47.211217 
L 230.077358 -46.884196 
L 233.789408 -46.557175 
L 236.28 -46.230154 
L 235.687043 -45.903132 
z
" id="m291fd19981" style="stroke:#3d3d3d;stroke-width:1.5;"/>
    </defs>
    <g clip-path="url(#p1abf94a746)">
     <use style="fill:#e1812c;stroke:#3d3d3d;stroke-width:1.5;" x="0" xlink:href="#m291fd19981" y="288"/>
    </g>
   </g>
   <g id="PolyCollection_3">
    <defs>
     <path d="M 377.64 -45.883636 
L 347.88 -45.883636 
L 348.271172 -46.656323 
L 353.486335 -47.429009 
L 358.066003 -48.201695 
L 360.277964 -48.974382 
L 361.223045 -49.747068 
L 361.738225 -50.519754 
L 362.024812 -51.29244 
L 362.193103 -52.065127 
L 362.351831 -52.837813 
L 362.489303 -53.610499 
L 362.564522 -54.383186 
L 362.604427 -55.155872 
L 362.638934 -55.928558 
L 362.661828 -56.701244 
L 362.674585 -57.473931 
L 362.685677 -58.246617 
L 362.699927 -59.019303 
L 362.713598 -59.79199 
L 362.7188 -60.564676 
L 362.721186 -61.337362 
L 362.726606 -62.110048 
L 362.726074 -62.882735 
L 362.71961 -63.655421 
L 362.724655 -64.428107 
L 362.741451 -65.200794 
L 362.75284 -65.97348 
L 362.75174 -66.746166 
L 362.741982 -67.518852 
L 362.732179 -68.291539 
L 362.729617 -69.064225 
L 362.735827 -69.836911 
L 362.747003 -70.609598 
L 362.755707 -71.382284 
L 362.759176 -72.15497 
L 362.75991 -72.927656 
L 362.759994 -73.700343 
L 362.759993 -74.473029 
L 362.759892 -75.245715 
L 362.759038 -76.018402 
L 362.7551 -76.791088 
L 362.74531 -77.563774 
L 362.732801 -78.33646 
L 362.727022 -79.109147 
L 362.733054 -79.881833 
L 362.7456 -80.654519 
L 362.755249 -81.427206 
L 362.759001 -82.199892 
L 362.759154 -82.972578 
L 362.756096 -83.745265 
L 362.748569 -84.517951 
L 362.741241 -85.290637 
L 362.742775 -86.063323 
L 362.75115 -86.83601 
L 362.757456 -87.608696 
L 362.759591 -88.381382 
L 362.759963 -89.154069 
L 362.759998 -89.926755 
L 362.76 -90.699441 
L 362.76 -91.472127 
L 362.76 -92.244814 
L 362.76 -93.0175 
L 362.759998 -93.790186 
L 362.759963 -94.562873 
L 362.759588 -95.335559 
L 362.757443 -96.108245 
L 362.751123 -96.880931 
L 362.742754 -97.653618 
L 362.741254 -98.426304 
L 362.748598 -99.19899 
L 362.75612 -99.971677 
L 362.759261 -100.744363 
L 362.759921 -101.517049 
L 362.759995 -102.289735 
L 362.76 -103.062422 
L 362.76 -103.835108 
L 362.76 -104.607794 
L 362.76 -105.380481 
L 362.76 -106.153167 
L 362.76 -106.925853 
L 362.76 -107.698539 
L 362.76 -108.471226 
L 362.76 -109.243912 
L 362.76 -110.016598 
L 362.76 -110.789285 
L 362.76 -111.561971 
L 362.76 -112.334657 
L 362.76 -113.107343 
L 362.76 -113.88003 
L 362.76 -114.652716 
L 362.76 -115.425402 
L 362.76 -116.198089 
L 362.76 -116.970775 
L 362.759999 -117.743461 
L 362.759986 -118.516148 
L 362.759813 -119.288834 
L 362.758574 -120.06152 
L 362.753911 -120.834206 
L 362.745451 -121.606893 
L 362.740549 -122.379579 
L 362.779451 -122.379579 
L 362.779451 -122.379579 
L 362.774549 -121.606893 
L 362.766089 -120.834206 
L 362.761426 -120.06152 
L 362.760187 -119.288834 
L 362.760014 -118.516148 
L 362.760001 -117.743461 
L 362.76 -116.970775 
L 362.76 -116.198089 
L 362.76 -115.425402 
L 362.76 -114.652716 
L 362.76 -113.88003 
L 362.76 -113.107343 
L 362.76 -112.334657 
L 362.76 -111.561971 
L 362.76 -110.789285 
L 362.76 -110.016598 
L 362.76 -109.243912 
L 362.76 -108.471226 
L 362.76 -107.698539 
L 362.76 -106.925853 
L 362.76 -106.153167 
L 362.76 -105.380481 
L 362.76 -104.607794 
L 362.76 -103.835108 
L 362.76 -103.062422 
L 362.760005 -102.289735 
L 362.760079 -101.517049 
L 362.760739 -100.744363 
L 362.76388 -99.971677 
L 362.771402 -99.19899 
L 362.778746 -98.426304 
L 362.777246 -97.653618 
L 362.768877 -96.880931 
L 362.762557 -96.108245 
L 362.760412 -95.335559 
L 362.760037 -94.562873 
L 362.760002 -93.790186 
L 362.76 -93.0175 
L 362.76 -92.244814 
L 362.76 -91.472127 
L 362.76 -90.699441 
L 362.760002 -89.926755 
L 362.760037 -89.154069 
L 362.760409 -88.381382 
L 362.762544 -87.608696 
L 362.76885 -86.83601 
L 362.777225 -86.063323 
L 362.778759 -85.290637 
L 362.771431 -84.517951 
L 362.763904 -83.745265 
L 362.760846 -82.972578 
L 362.760999 -82.199892 
L 362.764751 -81.427206 
L 362.7744 -80.654519 
L 362.786946 -79.881833 
L 362.792978 -79.109147 
L 362.787199 -78.33646 
L 362.77469 -77.563774 
L 362.7649 -76.791088 
L 362.760962 -76.018402 
L 362.760108 -75.245715 
L 362.760007 -74.473029 
L 362.760006 -73.700343 
L 362.76009 -72.927656 
L 362.760824 -72.15497 
L 362.764293 -71.382284 
L 362.772997 -70.609598 
L 362.784173 -69.836911 
L 362.790383 -69.064225 
L 362.787821 -68.291539 
L 362.778018 -67.518852 
L 362.76826 -66.746166 
L 362.76716 -65.97348 
L 362.778549 -65.200794 
L 362.795345 -64.428107 
L 362.80039 -63.655421 
L 362.793926 -62.882735 
L 362.793394 -62.110048 
L 362.798814 -61.337362 
L 362.8012 -60.564676 
L 362.806402 -59.79199 
L 362.820073 -59.019303 
L 362.834323 -58.246617 
L 362.845415 -57.473931 
L 362.858172 -56.701244 
L 362.881066 -55.928558 
L 362.915573 -55.155872 
L 362.955478 -54.383186 
L 363.030697 -53.610499 
L 363.168169 -52.837813 
L 363.326897 -52.065127 
L 363.495188 -51.29244 
L 363.781775 -50.519754 
L 364.296955 -49.747068 
L 365.242036 -48.974382 
L 367.453997 -48.201695 
L 372.033665 -47.429009 
L 377.248828 -46.656323 
L 377.64 -45.883636 
z
" id="m8b9e870881" style="stroke:#3d3d3d;stroke-width:1.5;"/>
    </defs>
    <g clip-path="url(#p1abf94a746)">
     <use style="fill:#3a923a;stroke:#3d3d3d;stroke-width:1.5;" x="0" xlink:href="#m8b9e870881" y="288"/>
    </g>
   </g>
   <g id="patch_3">
    <path clip-path="url(#p1abf94a746)" d="M 109.8 242.359495 
L 109.8 242.359495 
L 109.8 242.359495 
L 109.8 242.359495 
z
" style="fill:#3274a1;stroke:#3d3d3d;stroke-linejoin:miter;stroke-width:0.75;"/>
   </g>
   <g id="patch_4">
    <path clip-path="url(#p1abf94a746)" d="M 109.8 242.359495 
L 109.8 242.359495 
L 109.8 242.359495 
L 109.8 242.359495 
z
" style="fill:#e1812c;stroke:#3d3d3d;stroke-linejoin:miter;stroke-width:0.75;"/>
   </g>
   <g id="patch_5">
    <path clip-path="url(#p1abf94a746)" d="M 109.8 242.359495 
L 109.8 242.359495 
L 109.8 242.359495 
L 109.8 242.359495 
z
" style="fill:#3a923a;stroke:#3d3d3d;stroke-linejoin:miter;stroke-width:0.75;"/>
   </g>
   <g id="matplotlib.axis_1">
    <g id="xtick_1">
     <g id="line2d_1">
      <defs>
       <path d="M 0 0 
L 0 3.5 
" id="mf7652df4a6" style="stroke:#000000;stroke-width:0.8;"/>
      </defs>
      <g>
       <use style="stroke:#000000;stroke-width:0.8;" x="109.8" xlink:href="#mf7652df4a6" y="252"/>
      </g>
     </g>
     <g id="text_1">
      <!-- train -->
      <g transform="translate(98.1625 266.598437)scale(0.1 -0.1)">
       <defs>
        <path d="M 18.3125 70.21875 
L 18.3125 54.6875 
L 36.8125 54.6875 
L 36.8125 47.703125 
L 18.3125 47.703125 
L 18.3125 18.015625 
Q 18.3125 11.328125 20.140625 9.421875 
Q 21.96875 7.515625 27.59375 7.515625 
L 36.8125 7.515625 
L 36.8125 0 
L 27.59375 0 
Q 17.1875 0 13.234375 3.875 
Q 9.28125 7.765625 9.28125 18.015625 
L 9.28125 47.703125 
L 2.6875 47.703125 
L 2.6875 54.6875 
L 9.28125 54.6875 
L 9.28125 70.21875 
z
" id="DejaVuSans-116"/>
        <path d="M 41.109375 46.296875 
Q 39.59375 47.171875 37.8125 47.578125 
Q 36.03125 48 33.890625 48 
Q 26.265625 48 22.1875 43.046875 
Q 18.109375 38.09375 18.109375 28.8125 
L 18.109375 0 
L 9.078125 0 
L 9.078125 54.6875 
L 18.109375 54.6875 
L 18.109375 46.1875 
Q 20.953125 51.171875 25.484375 53.578125 
Q 30.03125 56 36.53125 56 
Q 37.453125 56 38.578125 55.875 
Q 39.703125 55.765625 41.0625 55.515625 
z
" id="DejaVuSans-114"/>
        <path d="M 34.28125 27.484375 
Q 23.390625 27.484375 19.1875 25 
Q 14.984375 22.515625 14.984375 16.5 
Q 14.984375 11.71875 18.140625 8.90625 
Q 21.296875 6.109375 26.703125 6.109375 
Q 34.1875 6.109375 38.703125 11.40625 
Q 43.21875 16.703125 43.21875 25.484375 
L 43.21875 27.484375 
z
M 52.203125 31.203125 
L 52.203125 0 
L 43.21875 0 
L 43.21875 8.296875 
Q 40.140625 3.328125 35.546875 0.953125 
Q 30.953125 -1.421875 24.3125 -1.421875 
Q 15.921875 -1.421875 10.953125 3.296875 
Q 6 8.015625 6 15.921875 
Q 6 25.140625 12.171875 29.828125 
Q 18.359375 34.515625 30.609375 34.515625 
L 43.21875 34.515625 
L 43.21875 35.40625 
Q 43.21875 41.609375 39.140625 45 
Q 35.0625 48.390625 27.6875 48.390625 
Q 23 48.390625 18.546875 47.265625 
Q 14.109375 46.140625 10.015625 43.890625 
L 10.015625 52.203125 
Q 14.9375 54.109375 19.578125 55.046875 
Q 24.21875 56 28.609375 56 
Q 40.484375 56 46.34375 49.84375 
Q 52.203125 43.703125 52.203125 31.203125 
z
" id="DejaVuSans-97"/>
        <path d="M 9.421875 54.6875 
L 18.40625 54.6875 
L 18.40625 0 
L 9.421875 0 
z
M 9.421875 75.984375 
L 18.40625 75.984375 
L 18.40625 64.59375 
L 9.421875 64.59375 
z
" id="DejaVuSans-105"/>
        <path d="M 54.890625 33.015625 
L 54.890625 0 
L 45.90625 0 
L 45.90625 32.71875 
Q 45.90625 40.484375 42.875 44.328125 
Q 39.84375 48.1875 33.796875 48.1875 
Q 26.515625 48.1875 22.3125 43.546875 
Q 18.109375 38.921875 18.109375 30.90625 
L 18.109375 0 
L 9.078125 0 
L 9.078125 54.6875 
L 18.109375 54.6875 
L 18.109375 46.1875 
Q 21.34375 51.125 25.703125 53.5625 
Q 30.078125 56 35.796875 56 
Q 45.21875 56 50.046875 50.171875 
Q 54.890625 44.34375 54.890625 33.015625 
z
" id="DejaVuSans-110"/>
       </defs>
       <use xlink:href="#DejaVuSans-116"/>
       <use x="39.208984" xlink:href="#DejaVuSans-114"/>
       <use x="80.322266" xlink:href="#DejaVuSans-97"/>
       <use x="141.601562" xlink:href="#DejaVuSans-105"/>
       <use x="169.384766" xlink:href="#DejaVuSans-110"/>
      </g>
     </g>
    </g>
    <g id="xtick_2">
     <g id="line2d_2">
      <g>
       <use style="stroke:#000000;stroke-width:0.8;" x="221.4" xlink:href="#mf7652df4a6" y="252"/>
      </g>
     </g>
     <g id="text_2">
      <!-- val -->
      <g transform="translate(213.9875 266.598437)scale(0.1 -0.1)">
       <defs>
        <path d="M 2.984375 54.6875 
L 12.5 54.6875 
L 29.59375 8.796875 
L 46.6875 54.6875 
L 56.203125 54.6875 
L 35.6875 0 
L 23.484375 0 
z
" id="DejaVuSans-118"/>
        <path d="M 9.421875 75.984375 
L 18.40625 75.984375 
L 18.40625 0 
L 9.421875 0 
z
" id="DejaVuSans-108"/>
       </defs>
       <use xlink:href="#DejaVuSans-118"/>
       <use x="59.179688" xlink:href="#DejaVuSans-97"/>
       <use x="120.458984" xlink:href="#DejaVuSans-108"/>
      </g>
     </g>
    </g>
    <g id="xtick_3">
     <g id="line2d_3">
      <g>
       <use style="stroke:#000000;stroke-width:0.8;" x="333" xlink:href="#mf7652df4a6" y="252"/>
      </g>
     </g>
     <g id="text_3">
      <!-- test -->
      <g transform="translate(323.398438 266.598437)scale(0.1 -0.1)">
       <defs>
        <path d="M 56.203125 29.59375 
L 56.203125 25.203125 
L 14.890625 25.203125 
Q 15.484375 15.921875 20.484375 11.0625 
Q 25.484375 6.203125 34.421875 6.203125 
Q 39.59375 6.203125 44.453125 7.46875 
Q 49.3125 8.734375 54.109375 11.28125 
L 54.109375 2.78125 
Q 49.265625 0.734375 44.1875 -0.34375 
Q 39.109375 -1.421875 33.890625 -1.421875 
Q 20.796875 -1.421875 13.15625 6.1875 
Q 5.515625 13.8125 5.515625 26.8125 
Q 5.515625 40.234375 12.765625 48.109375 
Q 20.015625 56 32.328125 56 
Q 43.359375 56 49.78125 48.890625 
Q 56.203125 41.796875 56.203125 29.59375 
z
M 47.21875 32.234375 
Q 47.125 39.59375 43.09375 43.984375 
Q 39.0625 48.390625 32.421875 48.390625 
Q 24.90625 48.390625 20.390625 44.140625 
Q 15.875 39.890625 15.1875 32.171875 
z
" id="DejaVuSans-101"/>
        <path d="M 44.28125 53.078125 
L 44.28125 44.578125 
Q 40.484375 46.53125 36.375 47.5 
Q 32.28125 48.484375 27.875 48.484375 
Q 21.1875 48.484375 17.84375 46.4375 
Q 14.5 44.390625 14.5 40.28125 
Q 14.5 37.15625 16.890625 35.375 
Q 19.28125 33.59375 26.515625 31.984375 
L 29.59375 31.296875 
Q 39.15625 29.25 43.1875 25.515625 
Q 47.21875 21.78125 47.21875 15.09375 
Q 47.21875 7.46875 41.1875 3.015625 
Q 35.15625 -1.421875 24.609375 -1.421875 
Q 20.21875 -1.421875 15.453125 -0.5625 
Q 10.6875 0.296875 5.421875 2 
L 5.421875 11.28125 
Q 10.40625 8.6875 15.234375 7.390625 
Q 20.0625 6.109375 24.8125 6.109375 
Q 31.15625 6.109375 34.5625 8.28125 
Q 37.984375 10.453125 37.984375 14.40625 
Q 37.984375 18.0625 35.515625 20.015625 
Q 33.0625 21.96875 24.703125 23.78125 
L 21.578125 24.515625 
Q 13.234375 26.265625 9.515625 29.90625 
Q 5.8125 33.546875 5.8125 39.890625 
Q 5.8125 47.609375 11.28125 51.796875 
Q 16.75 56 26.8125 56 
Q 31.78125 56 36.171875 55.265625 
Q 40.578125 54.546875 44.28125 53.078125 
z
" id="DejaVuSans-115"/>
       </defs>
       <use xlink:href="#DejaVuSans-116"/>
       <use x="39.208984" xlink:href="#DejaVuSans-101"/>
       <use x="100.732422" xlink:href="#DejaVuSans-115"/>
       <use x="152.832031" xlink:href="#DejaVuSans-116"/>
      </g>
     </g>
    </g>
    <g id="text_4">
     <!-- set -->
     <g transform="translate(213.758594 280.276563)scale(0.1 -0.1)">
      <use xlink:href="#DejaVuSans-115"/>
      <use x="52.099609" xlink:href="#DejaVuSans-101"/>
      <use x="113.623047" xlink:href="#DejaVuSans-116"/>
     </g>
    </g>
   </g>
   <g id="matplotlib.axis_2">
    <g id="ytick_1">
     <g id="line2d_4">
      <defs>
       <path d="M 0 0 
L -3.5 0 
" id="m69a762725e" style="stroke:#000000;stroke-width:0.8;"/>
      </defs>
      <g>
       <use style="stroke:#000000;stroke-width:0.8;" x="54" xlink:href="#m69a762725e" y="242.359495"/>
      </g>
     </g>
     <g id="text_5">
      <!-- 0.0000 -->
      <g transform="translate(12.009375 246.158713)scale(0.1 -0.1)">
       <defs>
        <path d="M 31.78125 66.40625 
Q 24.171875 66.40625 20.328125 58.90625 
Q 16.5 51.421875 16.5 36.375 
Q 16.5 21.390625 20.328125 13.890625 
Q 24.171875 6.390625 31.78125 6.390625 
Q 39.453125 6.390625 43.28125 13.890625 
Q 47.125 21.390625 47.125 36.375 
Q 47.125 51.421875 43.28125 58.90625 
Q 39.453125 66.40625 31.78125 66.40625 
z
M 31.78125 74.21875 
Q 44.046875 74.21875 50.515625 64.515625 
Q 56.984375 54.828125 56.984375 36.375 
Q 56.984375 17.96875 50.515625 8.265625 
Q 44.046875 -1.421875 31.78125 -1.421875 
Q 19.53125 -1.421875 13.0625 8.265625 
Q 6.59375 17.96875 6.59375 36.375 
Q 6.59375 54.828125 13.0625 64.515625 
Q 19.53125 74.21875 31.78125 74.21875 
z
" id="DejaVuSans-48"/>
        <path d="M 10.6875 12.40625 
L 21 12.40625 
L 21 0 
L 10.6875 0 
z
" id="DejaVuSans-46"/>
       </defs>
       <use xlink:href="#DejaVuSans-48"/>
       <use x="63.623047" xlink:href="#DejaVuSans-46"/>
       <use x="95.410156" xlink:href="#DejaVuSans-48"/>
       <use x="159.033203" xlink:href="#DejaVuSans-48"/>
       <use x="222.65625" xlink:href="#DejaVuSans-48"/>
       <use x="286.279297" xlink:href="#DejaVuSans-48"/>
      </g>
     </g>
    </g>
    <g id="ytick_2">
     <g id="line2d_5">
      <g>
       <use style="stroke:#000000;stroke-width:0.8;" x="54" xlink:href="#m69a762725e" y="196.930468"/>
      </g>
     </g>
     <g id="text_6">
      <!-- 0.0005 -->
      <g transform="translate(12.009375 200.729687)scale(0.1 -0.1)">
       <defs>
        <path d="M 10.796875 72.90625 
L 49.515625 72.90625 
L 49.515625 64.59375 
L 19.828125 64.59375 
L 19.828125 46.734375 
Q 21.96875 47.46875 24.109375 47.828125 
Q 26.265625 48.1875 28.421875 48.1875 
Q 40.625 48.1875 47.75 41.5 
Q 54.890625 34.8125 54.890625 23.390625 
Q 54.890625 11.625 47.5625 5.09375 
Q 40.234375 -1.421875 26.90625 -1.421875 
Q 22.3125 -1.421875 17.546875 -0.640625 
Q 12.796875 0.140625 7.71875 1.703125 
L 7.71875 11.625 
Q 12.109375 9.234375 16.796875 8.0625 
Q 21.484375 6.890625 26.703125 6.890625 
Q 35.15625 6.890625 40.078125 11.328125 
Q 45.015625 15.765625 45.015625 23.390625 
Q 45.015625 31 40.078125 35.4375 
Q 35.15625 39.890625 26.703125 39.890625 
Q 22.75 39.890625 18.8125 39.015625 
Q 14.890625 38.140625 10.796875 36.28125 
z
" id="DejaVuSans-53"/>
       </defs>
       <use xlink:href="#DejaVuSans-48"/>
       <use x="63.623047" xlink:href="#DejaVuSans-46"/>
       <use x="95.410156" xlink:href="#DejaVuSans-48"/>
       <use x="159.033203" xlink:href="#DejaVuSans-48"/>
       <use x="222.65625" xlink:href="#DejaVuSans-48"/>
       <use x="286.279297" xlink:href="#DejaVuSans-53"/>
      </g>
     </g>
    </g>
    <g id="ytick_3">
     <g id="line2d_6">
      <g>
       <use style="stroke:#000000;stroke-width:0.8;" x="54" xlink:href="#m69a762725e" y="151.501442"/>
      </g>
     </g>
     <g id="text_7">
      <!-- 0.0010 -->
      <g transform="translate(12.009375 155.300661)scale(0.1 -0.1)">
       <defs>
        <path d="M 12.40625 8.296875 
L 28.515625 8.296875 
L 28.515625 63.921875 
L 10.984375 60.40625 
L 10.984375 69.390625 
L 28.421875 72.90625 
L 38.28125 72.90625 
L 38.28125 8.296875 
L 54.390625 8.296875 
L 54.390625 0 
L 12.40625 0 
z
" id="DejaVuSans-49"/>
       </defs>
       <use xlink:href="#DejaVuSans-48"/>
       <use x="63.623047" xlink:href="#DejaVuSans-46"/>
       <use x="95.410156" xlink:href="#DejaVuSans-48"/>
       <use x="159.033203" xlink:href="#DejaVuSans-48"/>
       <use x="222.65625" xlink:href="#DejaVuSans-49"/>
       <use x="286.279297" xlink:href="#DejaVuSans-48"/>
      </g>
     </g>
    </g>
    <g id="ytick_4">
     <g id="line2d_7">
      <g>
       <use style="stroke:#000000;stroke-width:0.8;" x="54" xlink:href="#m69a762725e" y="106.072415"/>
      </g>
     </g>
     <g id="text_8">
      <!-- 0.0015 -->
      <g transform="translate(12.009375 109.871634)scale(0.1 -0.1)">
       <use xlink:href="#DejaVuSans-48"/>
       <use x="63.623047" xlink:href="#DejaVuSans-46"/>
       <use x="95.410156" xlink:href="#DejaVuSans-48"/>
       <use x="159.033203" xlink:href="#DejaVuSans-48"/>
       <use x="222.65625" xlink:href="#DejaVuSans-49"/>
       <use x="286.279297" xlink:href="#DejaVuSans-53"/>
      </g>
     </g>
    </g>
    <g id="ytick_5">
     <g id="line2d_8">
      <g>
       <use style="stroke:#000000;stroke-width:0.8;" x="54" xlink:href="#m69a762725e" y="60.643389"/>
      </g>
     </g>
     <g id="text_9">
      <!-- 0.0020 -->
      <g transform="translate(12.009375 64.442608)scale(0.1 -0.1)">
       <defs>
        <path d="M 19.1875 8.296875 
L 53.609375 8.296875 
L 53.609375 0 
L 7.328125 0 
L 7.328125 8.296875 
Q 12.9375 14.109375 22.625 23.890625 
Q 32.328125 33.6875 34.8125 36.53125 
Q 39.546875 41.84375 41.421875 45.53125 
Q 43.3125 49.21875 43.3125 52.78125 
Q 43.3125 58.59375 39.234375 62.25 
Q 35.15625 65.921875 28.609375 65.921875 
Q 23.96875 65.921875 18.8125 64.3125 
Q 13.671875 62.703125 7.8125 59.421875 
L 7.8125 69.390625 
Q 13.765625 71.78125 18.9375 73 
Q 24.125 74.21875 28.421875 74.21875 
Q 39.75 74.21875 46.484375 68.546875 
Q 53.21875 62.890625 53.21875 53.421875 
Q 53.21875 48.921875 51.53125 44.890625 
Q 49.859375 40.875 45.40625 35.40625 
Q 44.1875 33.984375 37.640625 27.21875 
Q 31.109375 20.453125 19.1875 8.296875 
z
" id="DejaVuSans-50"/>
       </defs>
       <use xlink:href="#DejaVuSans-48"/>
       <use x="63.623047" xlink:href="#DejaVuSans-46"/>
       <use x="95.410156" xlink:href="#DejaVuSans-48"/>
       <use x="159.033203" xlink:href="#DejaVuSans-48"/>
       <use x="222.65625" xlink:href="#DejaVuSans-50"/>
       <use x="286.279297" xlink:href="#DejaVuSans-48"/>
      </g>
     </g>
    </g>
    <g id="text_10">
     <!-- value -->
     <g transform="translate(5.929687 156.937813)rotate(-90)scale(0.1 -0.1)">
      <defs>
       <path d="M 8.5 21.578125 
L 8.5 54.6875 
L 17.484375 54.6875 
L 17.484375 21.921875 
Q 17.484375 14.15625 20.5 10.265625 
Q 23.53125 6.390625 29.59375 6.390625 
Q 36.859375 6.390625 41.078125 11.03125 
Q 45.3125 15.671875 45.3125 23.6875 
L 45.3125 54.6875 
L 54.296875 54.6875 
L 54.296875 0 
L 45.3125 0 
L 45.3125 8.40625 
Q 42.046875 3.421875 37.71875 1 
Q 33.40625 -1.421875 27.6875 -1.421875 
Q 18.265625 -1.421875 13.375 4.4375 
Q 8.5 10.296875 8.5 21.578125 
z
M 31.109375 56 
z
" id="DejaVuSans-117"/>
      </defs>
      <use xlink:href="#DejaVuSans-118"/>
      <use x="59.179688" xlink:href="#DejaVuSans-97"/>
      <use x="120.458984" xlink:href="#DejaVuSans-108"/>
      <use x="148.242188" xlink:href="#DejaVuSans-117"/>
      <use x="211.621094" xlink:href="#DejaVuSans-101"/>
     </g>
    </g>
   </g>
   <g id="line2d_9">
    <path clip-path="url(#p1abf94a746)" d="M 80.04 242.099954 
L 80.04 240.189793 
" style="fill:none;stroke:#3d3d3d;stroke-linecap:square;stroke-width:1.5;"/>
   </g>
   <g id="line2d_10">
    <path clip-path="url(#p1abf94a746)" d="M 80.04 242.041344 
L 80.04 241.294606 
" style="fill:none;stroke:#3d3d3d;stroke-linecap:square;stroke-width:4.5;"/>
   </g>
   <g id="line2d_11">
    <path clip-path="url(#p1abf94a746)" d="M 221.4 242.096868 
L 221.4 239.568329 
" style="fill:none;stroke:#3d3d3d;stroke-linecap:square;stroke-width:1.5;"/>
   </g>
   <g id="line2d_12">
    <path clip-path="url(#p1abf94a746)" d="M 221.4 242.03782 
L 221.4 241.046766 
" style="fill:none;stroke:#3d3d3d;stroke-linecap:square;stroke-width:4.5;"/>
   </g>
   <g id="line2d_13">
    <path clip-path="url(#p1abf94a746)" d="M 362.76 242.116364 
L 362.76 239.691821 
" style="fill:none;stroke:#3d3d3d;stroke-linecap:square;stroke-width:1.5;"/>
   </g>
   <g id="line2d_14">
    <path clip-path="url(#p1abf94a746)" d="M 362.76 242.041835 
L 362.76 241.10049 
" style="fill:none;stroke:#3d3d3d;stroke-linecap:square;stroke-width:4.5;"/>
   </g>
   <g id="patch_6">
    <path d="M 54 252 
L 54 34.56 
" style="fill:none;stroke:#000000;stroke-linecap:square;stroke-linejoin:miter;stroke-width:0.8;"/>
   </g>
   <g id="patch_7">
    <path d="M 388.8 252 
L 388.8 34.56 
" style="fill:none;stroke:#000000;stroke-linecap:square;stroke-linejoin:miter;stroke-width:0.8;"/>
   </g>
   <g id="patch_8">
    <path d="M 54 252 
L 388.8 252 
" style="fill:none;stroke:#000000;stroke-linecap:square;stroke-linejoin:miter;stroke-width:0.8;"/>
   </g>
   <g id="patch_9">
    <path d="M 54 34.56 
L 388.8 34.56 
" style="fill:none;stroke:#000000;stroke-linecap:square;stroke-linejoin:miter;stroke-width:0.8;"/>
   </g>
   <g id="PathCollection_1">
    <defs>
     <path d="M 0 1.5 
C 0.397805 1.5 0.77937 1.341951 1.06066 1.06066 
C 1.341951 0.77937 1.5 0.397805 1.5 0 
C 1.5 -0.397805 1.341951 -0.77937 1.06066 -1.06066 
C 0.77937 -1.341951 0.397805 -1.5 0 -1.5 
C -0.397805 -1.5 -0.77937 -1.341951 -1.06066 -1.06066 
C -1.341951 -0.77937 -1.5 -0.397805 -1.5 0 
C -1.5 0.397805 -1.341951 0.77937 -1.06066 1.06066 
C -0.77937 1.341951 -0.397805 1.5 0 1.5 
z
" id="mde2345328e" style="stroke:#3d3d3d;"/>
    </defs>
    <g clip-path="url(#p1abf94a746)">
     <use style="fill:#ffffff;stroke:#3d3d3d;" x="80.04" xlink:href="#mde2345328e" y="241.911894"/>
    </g>
   </g>
   <g id="PathCollection_2">
    <g clip-path="url(#p1abf94a746)">
     <use style="fill:#ffffff;stroke:#3d3d3d;" x="221.4" xlink:href="#mde2345328e" y="241.886174"/>
    </g>
   </g>
   <g id="PathCollection_3">
    <g clip-path="url(#p1abf94a746)">
     <use style="fill:#ffffff;stroke:#3d3d3d;" x="362.76" xlink:href="#mde2345328e" y="241.890714"/>
    </g>
   </g>
   <g id="legend_1">
    <g id="patch_10">
     <path d="M 326.525 101.2725 
L 381.8 101.2725 
Q 383.8 101.2725 383.8 99.2725 
L 383.8 41.56 
Q 383.8 39.56 381.8 39.56 
L 326.525 39.56 
Q 324.525 39.56 324.525 41.56 
L 324.525 99.2725 
Q 324.525 101.2725 326.525 101.2725 
z
" style="fill:#ffffff;opacity:0.8;stroke:#cccccc;stroke-linejoin:miter;"/>
    </g>
    <g id="text_11">
     <!-- set -->
     <g transform="translate(346.521094 51.158437)scale(0.1 -0.1)">
      <use xlink:href="#DejaVuSans-115"/>
      <use x="52.099609" xlink:href="#DejaVuSans-101"/>
      <use x="113.623047" xlink:href="#DejaVuSans-116"/>
     </g>
    </g>
    <g id="patch_11">
     <path d="M 328.525 65.836562 
L 348.525 65.836562 
L 348.525 58.836562 
L 328.525 58.836562 
z
" style="fill:#3274a1;stroke:#3d3d3d;stroke-linejoin:miter;stroke-width:0.75;"/>
    </g>
    <g id="text_12">
     <!-- train -->
     <g transform="translate(356.525 65.836562)scale(0.1 -0.1)">
      <use xlink:href="#DejaVuSans-116"/>
      <use x="39.208984" xlink:href="#DejaVuSans-114"/>
      <use x="80.322266" xlink:href="#DejaVuSans-97"/>
      <use x="141.601562" xlink:href="#DejaVuSans-105"/>
      <use x="169.384766" xlink:href="#DejaVuSans-110"/>
     </g>
    </g>
    <g id="patch_12">
     <path d="M 328.525 80.514687 
L 348.525 80.514687 
L 348.525 73.514687 
L 328.525 73.514687 
z
" style="fill:#e1812c;stroke:#3d3d3d;stroke-linejoin:miter;stroke-width:0.75;"/>
    </g>
    <g id="text_13">
     <!-- val -->
     <g transform="translate(356.525 80.514687)scale(0.1 -0.1)">
      <use xlink:href="#DejaVuSans-118"/>
      <use x="59.179688" xlink:href="#DejaVuSans-97"/>
      <use x="120.458984" xlink:href="#DejaVuSans-108"/>
     </g>
    </g>
    <g id="patch_13">
     <path d="M 328.525 95.192813 
L 348.525 95.192813 
L 348.525 88.192813 
L 328.525 88.192813 
z
" style="fill:#3a923a;stroke:#3d3d3d;stroke-linejoin:miter;stroke-width:0.75;"/>
    </g>
    <g id="text_14">
     <!-- test -->
     <g transform="translate(356.525 95.192813)scale(0.1 -0.1)">
      <use xlink:href="#DejaVuSans-116"/>
      <use x="39.208984" xlink:href="#DejaVuSans-101"/>
      <use x="100.732422" xlink:href="#DejaVuSans-115"/>
      <use x="152.832031" xlink:href="#DejaVuSans-116"/>
     </g>
    </g>
   </g>
  </g>
 </g>
 <defs>
  <clipPath id="p1abf94a746">
   <rect height="217.44" width="334.8" x="54" y="34.56"/>
  </clipPath>
 </defs>
</svg>
