<?xml version="1.0" encoding="utf-8" standalone="no"?>
<!DOCTYPE svg PUBLIC "-//W3C//DTD SVG 1.1//EN"
  "http://www.w3.org/Graphics/SVG/1.1/DTD/svg11.dtd">
<!-- Created with matplotlib (https://matplotlib.org/) -->
<svg height="288pt" version="1.1" viewBox="0 0 432 288" width="432pt" xmlns="http://www.w3.org/2000/svg" xmlns:xlink="http://www.w3.org/1999/xlink">
 <metadata>
  <rdf:RDF xmlns:cc="http://creativecommons.org/ns#" xmlns:dc="http://purl.org/dc/elements/1.1/" xmlns:rdf="http://www.w3.org/1999/02/22-rdf-syntax-ns#">
   <cc:Work>
    <dc:type rdf:resource="http://purl.org/dc/dcmitype/StillImage"/>
    <dc:date>2022-04-15T22:33:43.036792</dc:date>
    <dc:format>image/svg+xml</dc:format>
    <dc:creator>
     <cc:Agent>
      <dc:title>Matplotlib v3.3.4, https://matplotlib.org/</dc:title>
     </cc:Agent>
    </dc:creator>
   </cc:Work>
  </rdf:RDF>
 </metadata>
 <defs>
  <style type="text/css">*{stroke-linecap:butt;stroke-linejoin:round;}</style>
 </defs>
 <g id="figure_1">
  <g id="patch_1">
   <path d="M 0 288 
L 432 288 
L 432 0 
L 0 0 
z
" style="fill:#ffffff;"/>
  </g>
  <g id="axes_1">
   <g id="patch_2">
    <path d="M 54 252 
L 388.8 252 
L 388.8 34.56 
L 54 34.56 
z
" style="fill:#ffffff;"/>
   </g>
   <g id="PolyCollection_1">
    <defs>
     <path d="M 80.166878 -74.418365 
L 79.913122 -74.418365 
L 79.878922 -76.117255 
L 79.844311 -77.816145 
L 79.811668 -79.515035 
L 79.78278 -81.213925 
L 79.758268 -82.912815 
L 79.737332 -84.611705 
L 79.71794 -86.310595 
L 79.697342 -88.009485 
L 79.672708 -89.708375 
L 79.641672 -91.407266 
L 79.602724 -93.106156 
L 79.555502 -94.805046 
L 79.501023 -96.503936 
L 79.441782 -98.202826 
L 79.381575 -99.901716 
L 79.324945 -101.600606 
L 79.276303 -103.299496 
L 79.238968 -104.998386 
L 79.214426 -106.697276 
L 79.201997 -108.396166 
L 79.198955 -110.095056 
L 79.201048 -111.793946 
L 79.20333 -113.492836 
L 79.201189 -115.191726 
L 79.191389 -116.890616 
L 79.172796 -118.589506 
L 79.146505 -120.288397 
L 79.115261 -121.987287 
L 79.082393 -123.686177 
L 79.050746 -125.385067 
L 79.021978 -127.083957 
L 78.996346 -128.782847 
L 78.972711 -130.481737 
L 78.948434 -132.180627 
L 78.919076 -133.879517 
L 78.878275 -135.578407 
L 78.818304 -137.277297 
L 78.73162 -138.976187 
L 78.613063 -140.675077 
L 78.461839 -142.373967 
L 78.282318 -144.072857 
L 78.083204 -145.771747 
L 77.875356 -147.470637 
L 77.66919 -149.169528 
L 77.472655 -150.868418 
L 77.290405 -152.567308 
L 77.124138 -154.266198 
L 76.973565 -155.965088 
L 76.837298 -157.663978 
L 76.713153 -159.362868 
L 76.597884 -161.061758 
L 76.486822 -162.760648 
L 76.374046 -164.459538 
L 76.253358 -166.158428 
L 76.119728 -167.857318 
L 75.970378 -169.556208 
L 75.804808 -171.255098 
L 75.623698 -172.953988 
L 75.427396 -174.652878 
L 75.214954 -176.351769 
L 74.984319 -178.050659 
L 74.733521 -179.749549 
L 74.462058 -181.448439 
L 74.171429 -183.147329 
L 73.86404 -184.846219 
L 73.540482 -186.545109 
L 73.196201 -188.243999 
L 72.819335 -189.942889 
L 72.391399 -191.641779 
L 71.891284 -193.340669 
L 71.301365 -195.039559 
L 70.613437 -196.738449 
L 69.832631 -198.437339 
L 68.978957 -200.136229 
L 68.087492 -201.835119 
L 67.208106 -203.534009 
L 66.404173 -205.2329 
L 65.74832 -206.93179 
L 65.313503 -208.63068 
L 65.16 -210.32957 
L 65.321828 -212.02846 
L 65.797715 -213.72735 
L 66.550721 -215.42624 
L 67.517271 -217.12513 
L 68.622426 -218.82402 
L 69.795719 -220.52291 
L 70.982053 -222.2218 
L 72.144874 -223.92069 
L 73.26247 -225.61958 
L 74.320999 -227.31847 
L 75.30836 -229.01736 
L 76.21145 -230.71625 
L 77.017043 -232.41514 
L 77.714672 -234.114031 
L 78.29943 -235.812921 
L 78.77327 -237.511811 
L 79.14444 -239.210701 
L 79.42563 -240.909591 
L 79.6317 -242.608481 
L 80.4483 -242.608481 
L 80.4483 -242.608481 
L 80.65437 -240.909591 
L 80.93556 -239.210701 
L 81.30673 -237.511811 
L 81.78057 -235.812921 
L 82.365328 -234.114031 
L 83.062957 -232.41514 
L 83.86855 -230.71625 
L 84.77164 -229.01736 
L 85.759001 -227.31847 
L 86.81753 -225.61958 
L 87.935126 -223.92069 
L 89.097947 -222.2218 
L 90.284281 -220.52291 
L 91.457574 -218.82402 
L 92.562729 -217.12513 
L 93.529279 -215.42624 
L 94.282285 -213.72735 
L 94.758172 -212.02846 
L 94.92 -210.32957 
L 94.766497 -208.63068 
L 94.33168 -206.93179 
L 93.675827 -205.2329 
L 92.871894 -203.534009 
L 91.992508 -201.835119 
L 91.101043 -200.136229 
L 90.247369 -198.437339 
L 89.466563 -196.738449 
L 88.778635 -195.039559 
L 88.188716 -193.340669 
L 87.688601 -191.641779 
L 87.260665 -189.942889 
L 86.883799 -188.243999 
L 86.539518 -186.545109 
L 86.21596 -184.846219 
L 85.908571 -183.147329 
L 85.617942 -181.448439 
L 85.346479 -179.749549 
L 85.095681 -178.050659 
L 84.865046 -176.351769 
L 84.652604 -174.652878 
L 84.456302 -172.953988 
L 84.275192 -171.255098 
L 84.109622 -169.556208 
L 83.960272 -167.857318 
L 83.826642 -166.158428 
L 83.705954 -164.459538 
L 83.593178 -162.760648 
L 83.482116 -161.061758 
L 83.366847 -159.362868 
L 83.242702 -157.663978 
L 83.106435 -155.965088 
L 82.955862 -154.266198 
L 82.789595 -152.567308 
L 82.607345 -150.868418 
L 82.41081 -149.169528 
L 82.204644 -147.470637 
L 81.996796 -145.771747 
L 81.797682 -144.072857 
L 81.618161 -142.373967 
L 81.466937 -140.675077 
L 81.34838 -138.976187 
L 81.261696 -137.277297 
L 81.201725 -135.578407 
L 81.160924 -133.879517 
L 81.131566 -132.180627 
L 81.107289 -130.481737 
L 81.083654 -128.782847 
L 81.058022 -127.083957 
L 81.029254 -125.385067 
L 80.997607 -123.686177 
L 80.964739 -121.987287 
L 80.933495 -120.288397 
L 80.907204 -118.589506 
L 80.888611 -116.890616 
L 80.878811 -115.191726 
L 80.87667 -113.492836 
L 80.878952 -111.793946 
L 80.881045 -110.095056 
L 80.878003 -108.396166 
L 80.865574 -106.697276 
L 80.841032 -104.998386 
L 80.803697 -103.299496 
L 80.755055 -101.600606 
L 80.698425 -99.901716 
L 80.638218 -98.202826 
L 80.578977 -96.503936 
L 80.524498 -94.805046 
L 80.477276 -93.106156 
L 80.438328 -91.407266 
L 80.407292 -89.708375 
L 80.382658 -88.009485 
L 80.36206 -86.310595 
L 80.342668 -84.611705 
L 80.321732 -82.912815 
L 80.29722 -81.213925 
L 80.268332 -79.515035 
L 80.235689 -77.816145 
L 80.201078 -76.117255 
L 80.166878 -74.418365 
z
" id="mecb790a96d" style="stroke:#3d3d3d;stroke-width:1.5;"/>
    </defs>
    <g clip-path="url(#p0293b2634d)">
     <use style="fill:#3274a1;stroke:#3d3d3d;stroke-width:1.5;" x="0" xlink:href="#mecb790a96d" y="288"/>
    </g>
   </g>
   <g id="PolyCollection_2">
    <defs>
     <path d="M 221.495582 -66.399398 
L 221.304418 -66.399398 
L 221.280939 -68.030013 
L 221.257624 -69.660628 
L 221.235171 -71.291243 
L 221.213623 -72.921858 
L 221.192401 -74.552473 
L 221.170594 -76.183088 
L 221.14741 -77.813703 
L 221.122624 -79.444319 
L 221.096782 -81.074934 
L 221.071047 -82.705549 
L 221.046756 -84.336164 
L 221.024903 -85.966779 
L 221.005816 -87.597394 
L 220.989175 -89.228009 
L 220.974349 -90.858624 
L 220.960869 -92.48924 
L 220.948825 -94.119855 
L 220.938976 -95.75047 
L 220.932543 -97.381085 
L 220.930736 -99.0117 
L 220.934202 -100.642315 
L 220.942576 -102.27293 
L 220.954345 -103.903545 
L 220.967097 -105.534161 
L 220.978081 -107.164776 
L 220.984825 -108.795391 
L 220.985518 -110.426006 
L 220.979015 -112.056621 
L 220.964504 -113.687236 
L 220.941023 -115.317851 
L 220.90705 -116.948466 
L 220.860438 -118.579082 
L 220.798885 -120.209697 
L 220.720916 -121.840312 
L 220.627008 -123.470927 
L 220.520228 -125.101542 
L 220.40593 -126.732157 
L 220.290506 -128.362772 
L 220.179696 -129.993387 
L 220.077059 -131.624003 
L 219.983039 -133.254618 
L 219.894823 -134.885233 
L 219.807062 -136.515848 
L 219.713447 -138.146463 
L 219.608834 -139.777078 
L 219.491227 -141.407693 
L 219.36273 -143.038308 
L 219.228807 -144.668923 
L 219.095959 -146.299539 
L 218.968711 -147.930154 
L 218.847255 -149.560769 
L 218.726838 -151.191384 
L 218.599121 -152.821999 
L 218.454826 -154.452614 
L 218.28648 -156.083229 
L 218.090214 -157.713844 
L 217.866102 -159.34446 
L 217.61724 -160.975075 
L 217.348276 -162.60569 
L 217.064244 -164.236305 
L 216.770121 -165.86692 
L 216.470768 -167.497535 
L 216.170471 -169.12815 
L 215.871634 -170.758765 
L 215.572963 -172.389381 
L 215.268027 -174.019996 
L 214.94493 -175.650611 
L 214.587556 -177.281226 
L 214.17864 -178.911841 
L 213.704609 -180.542456 
L 213.160981 -182.173071 
L 212.555751 -183.803686 
L 211.908243 -185.434302 
L 211.243171 -187.064917 
L 210.582799 -188.695532 
L 209.941514 -190.326147 
L 209.325511 -191.956762 
L 208.736962 -193.587377 
L 208.179729 -195.217992 
L 207.663831 -196.848607 
L 207.207827 -198.479223 
L 206.839636 -200.109838 
L 206.596056 -201.740453 
L 206.52 -203.371068 
L 206.654246 -205.001683 
L 207.032154 -206.632298 
L 207.668162 -208.262913 
L 208.551834 -209.893528 
L 209.64794 -211.524144 
L 210.902223 -213.154759 
L 212.250321 -214.785374 
L 213.626674 -216.415989 
L 214.971292 -218.046604 
L 216.233793 -219.677219 
L 217.37531 -221.307834 
L 218.369178 -222.938449 
L 219.201043 -224.569065 
L 219.868501 -226.19968 
L 220.380031 -227.830295 
L 222.419969 -227.830295 
L 222.419969 -227.830295 
L 222.931499 -226.19968 
L 223.598957 -224.569065 
L 224.430822 -222.938449 
L 225.42469 -221.307834 
L 226.566207 -219.677219 
L 227.828708 -218.046604 
L 229.173326 -216.415989 
L 230.549679 -214.785374 
L 231.897777 -213.154759 
L 233.15206 -211.524144 
L 234.248166 -209.893528 
L 235.131838 -208.262913 
L 235.767846 -206.632298 
L 236.145754 -205.001683 
L 236.28 -203.371068 
L 236.203944 -201.740453 
L 235.960364 -200.109838 
L 235.592173 -198.479223 
L 235.136169 -196.848607 
L 234.620271 -195.217992 
L 234.063038 -193.587377 
L 233.474489 -191.956762 
L 232.858486 -190.326147 
L 232.217201 -188.695532 
L 231.556829 -187.064917 
L 230.891757 -185.434302 
L 230.244249 -183.803686 
L 229.639019 -182.173071 
L 229.095391 -180.542456 
L 228.62136 -178.911841 
L 228.212444 -177.281226 
L 227.85507 -175.650611 
L 227.531973 -174.019996 
L 227.227037 -172.389381 
L 226.928366 -170.758765 
L 226.629529 -169.12815 
L 226.329232 -167.497535 
L 226.029879 -165.86692 
L 225.735756 -164.236305 
L 225.451724 -162.60569 
L 225.18276 -160.975075 
L 224.933898 -159.34446 
L 224.709786 -157.713844 
L 224.51352 -156.083229 
L 224.345174 -154.452614 
L 224.200879 -152.821999 
L 224.073162 -151.191384 
L 223.952745 -149.560769 
L 223.831289 -147.930154 
L 223.704041 -146.299539 
L 223.571193 -144.668923 
L 223.43727 -143.038308 
L 223.308773 -141.407693 
L 223.191166 -139.777078 
L 223.086553 -138.146463 
L 222.992938 -136.515848 
L 222.905177 -134.885233 
L 222.816961 -133.254618 
L 222.722941 -131.624003 
L 222.620304 -129.993387 
L 222.509494 -128.362772 
L 222.39407 -126.732157 
L 222.279772 -125.101542 
L 222.172992 -123.470927 
L 222.079084 -121.840312 
L 222.001115 -120.209697 
L 221.939562 -118.579082 
L 221.89295 -116.948466 
L 221.858977 -115.317851 
L 221.835496 -113.687236 
L 221.820985 -112.056621 
L 221.814482 -110.426006 
L 221.815175 -108.795391 
L 221.821919 -107.164776 
L 221.832903 -105.534161 
L 221.845655 -103.903545 
L 221.857424 -102.27293 
L 221.865798 -100.642315 
L 221.869264 -99.0117 
L 221.867457 -97.381085 
L 221.861024 -95.75047 
L 221.851175 -94.119855 
L 221.839131 -92.48924 
L 221.825651 -90.858624 
L 221.810825 -89.228009 
L 221.794184 -87.597394 
L 221.775097 -85.966779 
L 221.753244 -84.336164 
L 221.728953 -82.705549 
L 221.703218 -81.074934 
L 221.677376 -79.444319 
L 221.65259 -77.813703 
L 221.629406 -76.183088 
L 221.607599 -74.552473 
L 221.586377 -72.921858 
L 221.564829 -71.291243 
L 221.542376 -69.660628 
L 221.519061 -68.030013 
L 221.495582 -66.399398 
z
" id="mb8dc35b8b2" style="stroke:#3d3d3d;stroke-width:1.5;"/>
    </defs>
    <g clip-path="url(#p0293b2634d)">
     <use style="fill:#e1812c;stroke:#3d3d3d;stroke-width:1.5;" x="0" xlink:href="#mb8dc35b8b2" y="288"/>
    </g>
   </g>
   <g id="PolyCollection_3">
    <defs>
     <path d="M 362.777466 -45.883636 
L 362.742534 -45.883636 
L 362.744144 -47.880331 
L 362.748135 -49.877025 
L 362.752678 -51.873719 
L 362.756253 -53.870413 
L 362.758317 -55.867107 
L 362.75901 -57.863802 
L 362.758499 -59.860496 
L 362.756651 -61.85719 
L 362.753281 -63.853884 
L 362.748771 -65.850579 
L 362.744438 -67.847273 
L 362.741938 -69.843967 
L 362.741895 -71.840661 
L 362.743064 -73.837355 
L 362.743069 -75.83405 
L 362.740114 -77.830744 
L 362.734021 -79.827438 
L 362.725827 -81.824132 
L 362.716735 -83.820826 
L 362.707317 -85.817521 
L 362.697072 -87.814215 
L 362.684554 -89.810909 
L 362.668747 -91.807603 
L 362.650997 -93.804298 
L 362.63502 -95.800992 
L 362.624193 -97.797686 
L 362.618933 -99.79438 
L 362.616787 -101.791074 
L 362.614349 -103.787769 
L 362.608712 -105.784463 
L 362.598169 -107.781157 
L 362.58271 -109.777851 
L 362.563795 -111.774545 
L 362.543182 -113.77124 
L 362.522129 -115.767934 
L 362.501762 -117.764628 
L 362.483161 -119.761322 
L 362.46599 -121.758017 
L 362.447196 -123.754711 
L 362.42236 -125.751405 
L 362.38943 -127.748099 
L 362.350996 -129.744793 
L 362.312045 -131.741488 
L 362.275598 -133.738182 
L 362.241445 -135.734876 
L 362.20854 -137.73157 
L 362.176167 -139.728264 
L 362.141511 -141.724959 
L 362.097744 -143.721653 
L 362.036328 -145.718347 
L 361.951464 -147.715041 
L 361.843462 -149.711736 
L 361.720792 -151.70843 
L 361.599429 -153.705124 
L 361.496044 -155.701818 
L 361.416279 -157.698512 
L 361.346008 -159.695207 
L 361.253087 -161.691901 
L 361.101309 -163.688595 
L 360.870814 -165.685289 
L 360.571681 -167.681983 
L 360.238541 -169.678678 
L 359.90936 -171.675372 
L 359.605843 -173.672066 
L 359.32879 -175.66876 
L 359.066319 -177.665455 
L 358.803844 -179.662149 
L 358.526887 -181.658843 
L 358.217005 -183.655537 
L 357.84904 -185.652231 
L 357.394791 -187.648926 
L 356.828658 -189.64562 
L 356.131552 -191.642314 
L 355.29725 -193.639008 
L 354.34166 -195.635702 
L 353.305007 -197.632397 
L 352.241007 -199.629091 
L 351.201535 -201.625785 
L 350.229539 -203.622479 
L 349.363908 -205.619174 
L 348.648954 -207.615868 
L 348.13706 -209.612562 
L 347.88 -211.609256 
L 347.916509 -213.60595 
L 348.266352 -215.602645 
L 348.931643 -217.599339 
L 349.898452 -219.596033 
L 351.134207 -221.592727 
L 352.582384 -223.589421 
L 354.159966 -225.586116 
L 355.764544 -227.58281 
L 357.292679 -229.579504 
L 358.660368 -231.576198 
L 359.814045 -233.572893 
L 360.731034 -235.569587 
L 361.416429 -237.566281 
L 361.899116 -239.562975 
L 362.223466 -241.559669 
L 362.436088 -243.556364 
L 363.083912 -243.556364 
L 363.083912 -243.556364 
L 363.296534 -241.559669 
L 363.620884 -239.562975 
L 364.103571 -237.566281 
L 364.788966 -235.569587 
L 365.705955 -233.572893 
L 366.859632 -231.576198 
L 368.227321 -229.579504 
L 369.755456 -227.58281 
L 371.360034 -225.586116 
L 372.937616 -223.589421 
L 374.385793 -221.592727 
L 375.621548 -219.596033 
L 376.588357 -217.599339 
L 377.253648 -215.602645 
L 377.603491 -213.60595 
L 377.64 -211.609256 
L 377.38294 -209.612562 
L 376.871046 -207.615868 
L 376.156092 -205.619174 
L 375.290461 -203.622479 
L 374.318465 -201.625785 
L 373.278993 -199.629091 
L 372.214993 -197.632397 
L 371.17834 -195.635702 
L 370.22275 -193.639008 
L 369.388448 -191.642314 
L 368.691342 -189.64562 
L 368.125209 -187.648926 
L 367.67096 -185.652231 
L 367.302995 -183.655537 
L 366.993113 -181.658843 
L 366.716156 -179.662149 
L 366.453681 -177.665455 
L 366.19121 -175.66876 
L 365.914157 -173.672066 
L 365.61064 -171.675372 
L 365.281459 -169.678678 
L 364.948319 -167.681983 
L 364.649186 -165.685289 
L 364.418691 -163.688595 
L 364.266913 -161.691901 
L 364.173992 -159.695207 
L 364.103721 -157.698512 
L 364.023956 -155.701818 
L 363.920571 -153.705124 
L 363.799208 -151.70843 
L 363.676538 -149.711736 
L 363.568536 -147.715041 
L 363.483672 -145.718347 
L 363.422256 -143.721653 
L 363.378489 -141.724959 
L 363.343833 -139.728264 
L 363.31146 -137.73157 
L 363.278555 -135.734876 
L 363.244402 -133.738182 
L 363.207955 -131.741488 
L 363.169004 -129.744793 
L 363.13057 -127.748099 
L 363.09764 -125.751405 
L 363.072804 -123.754711 
L 363.05401 -121.758017 
L 363.036839 -119.761322 
L 363.018238 -117.764628 
L 362.997871 -115.767934 
L 362.976818 -113.77124 
L 362.956205 -111.774545 
L 362.93729 -109.777851 
L 362.921831 -107.781157 
L 362.911288 -105.784463 
L 362.905651 -103.787769 
L 362.903213 -101.791074 
L 362.901067 -99.79438 
L 362.895807 -97.797686 
L 362.88498 -95.800992 
L 362.869003 -93.804298 
L 362.851253 -91.807603 
L 362.835446 -89.810909 
L 362.822928 -87.814215 
L 362.812683 -85.817521 
L 362.803265 -83.820826 
L 362.794173 -81.824132 
L 362.785979 -79.827438 
L 362.779886 -77.830744 
L 362.776931 -75.83405 
L 362.776936 -73.837355 
L 362.778105 -71.840661 
L 362.778062 -69.843967 
L 362.775562 -67.847273 
L 362.771229 -65.850579 
L 362.766719 -63.853884 
L 362.763349 -61.85719 
L 362.761501 -59.860496 
L 362.76099 -57.863802 
L 362.761683 -55.867107 
L 362.763747 -53.870413 
L 362.767322 -51.873719 
L 362.771865 -49.877025 
L 362.775856 -47.880331 
L 362.777466 -45.883636 
z
" id="m0bb1e82faa" style="stroke:#3d3d3d;stroke-width:1.5;"/>
    </defs>
    <g clip-path="url(#p0293b2634d)">
     <use style="fill:#3a923a;stroke:#3d3d3d;stroke-width:1.5;" x="0" xlink:href="#m0bb1e82faa" y="288"/>
    </g>
   </g>
   <g id="patch_3">
    <path clip-path="url(#p0293b2634d)" d="M 109.8 235.174073 
L 109.8 235.174073 
L 109.8 235.174073 
L 109.8 235.174073 
z
" style="fill:#3274a1;stroke:#3d3d3d;stroke-linejoin:miter;stroke-width:0.75;"/>
   </g>
   <g id="patch_4">
    <path clip-path="url(#p0293b2634d)" d="M 109.8 235.174073 
L 109.8 235.174073 
L 109.8 235.174073 
L 109.8 235.174073 
z
" style="fill:#e1812c;stroke:#3d3d3d;stroke-linejoin:miter;stroke-width:0.75;"/>
   </g>
   <g id="patch_5">
    <path clip-path="url(#p0293b2634d)" d="M 109.8 235.174073 
L 109.8 235.174073 
L 109.8 235.174073 
L 109.8 235.174073 
z
" style="fill:#3a923a;stroke:#3d3d3d;stroke-linejoin:miter;stroke-width:0.75;"/>
   </g>
   <g id="matplotlib.axis_1">
    <g id="xtick_1">
     <g id="line2d_1">
      <defs>
       <path d="M 0 0 
L 0 3.5 
" id="m7d3934018f" style="stroke:#000000;stroke-width:0.8;"/>
      </defs>
      <g>
       <use style="stroke:#000000;stroke-width:0.8;" x="109.8" xlink:href="#m7d3934018f" y="252"/>
      </g>
     </g>
     <g id="text_1">
      <!-- Z_1_ns -->
      <g transform="translate(92.420312 266.320312)scale(0.1 -0.1)">
       <defs>
        <path d="M 5.609375 72.90625 
L 62.890625 72.90625 
L 62.890625 65.375 
L 16.796875 8.296875 
L 64.015625 8.296875 
L 64.015625 0 
L 4.5 0 
L 4.5 7.515625 
L 50.59375 64.59375 
L 5.609375 64.59375 
z
" id="DejaVuSans-90"/>
        <path d="M 50.984375 -16.609375 
L 50.984375 -23.578125 
L -0.984375 -23.578125 
L -0.984375 -16.609375 
z
" id="DejaVuSans-95"/>
        <path d="M 12.40625 8.296875 
L 28.515625 8.296875 
L 28.515625 63.921875 
L 10.984375 60.40625 
L 10.984375 69.390625 
L 28.421875 72.90625 
L 38.28125 72.90625 
L 38.28125 8.296875 
L 54.390625 8.296875 
L 54.390625 0 
L 12.40625 0 
z
" id="DejaVuSans-49"/>
        <path d="M 54.890625 33.015625 
L 54.890625 0 
L 45.90625 0 
L 45.90625 32.71875 
Q 45.90625 40.484375 42.875 44.328125 
Q 39.84375 48.1875 33.796875 48.1875 
Q 26.515625 48.1875 22.3125 43.546875 
Q 18.109375 38.921875 18.109375 30.90625 
L 18.109375 0 
L 9.078125 0 
L 9.078125 54.6875 
L 18.109375 54.6875 
L 18.109375 46.1875 
Q 21.34375 51.125 25.703125 53.5625 
Q 30.078125 56 35.796875 56 
Q 45.21875 56 50.046875 50.171875 
Q 54.890625 44.34375 54.890625 33.015625 
z
" id="DejaVuSans-110"/>
        <path d="M 44.28125 53.078125 
L 44.28125 44.578125 
Q 40.484375 46.53125 36.375 47.5 
Q 32.28125 48.484375 27.875 48.484375 
Q 21.1875 48.484375 17.84375 46.4375 
Q 14.5 44.390625 14.5 40.28125 
Q 14.5 37.15625 16.890625 35.375 
Q 19.28125 33.59375 26.515625 31.984375 
L 29.59375 31.296875 
Q 39.15625 29.25 43.1875 25.515625 
Q 47.21875 21.78125 47.21875 15.09375 
Q 47.21875 7.46875 41.1875 3.015625 
Q 35.15625 -1.421875 24.609375 -1.421875 
Q 20.21875 -1.421875 15.453125 -0.5625 
Q 10.6875 0.296875 5.421875 2 
L 5.421875 11.28125 
Q 10.40625 8.6875 15.234375 7.390625 
Q 20.0625 6.109375 24.8125 6.109375 
Q 31.15625 6.109375 34.5625 8.28125 
Q 37.984375 10.453125 37.984375 14.40625 
Q 37.984375 18.0625 35.515625 20.015625 
Q 33.0625 21.96875 24.703125 23.78125 
L 21.578125 24.515625 
Q 13.234375 26.265625 9.515625 29.90625 
Q 5.8125 33.546875 5.8125 39.890625 
Q 5.8125 47.609375 11.28125 51.796875 
Q 16.75 56 26.8125 56 
Q 31.78125 56 36.171875 55.265625 
Q 40.578125 54.546875 44.28125 53.078125 
z
" id="DejaVuSans-115"/>
       </defs>
       <use xlink:href="#DejaVuSans-90"/>
       <use x="68.505859" xlink:href="#DejaVuSans-95"/>
       <use x="118.505859" xlink:href="#DejaVuSans-49"/>
       <use x="182.128906" xlink:href="#DejaVuSans-95"/>
       <use x="232.128906" xlink:href="#DejaVuSans-110"/>
       <use x="295.507812" xlink:href="#DejaVuSans-115"/>
      </g>
     </g>
    </g>
    <g id="xtick_2">
     <g id="line2d_2">
      <g>
       <use style="stroke:#000000;stroke-width:0.8;" x="221.4" xlink:href="#m7d3934018f" y="252"/>
      </g>
     </g>
     <g id="text_2">
      <!-- Z_2_ns -->
      <g transform="translate(204.020312 266.421875)scale(0.1 -0.1)">
       <defs>
        <path d="M 19.1875 8.296875 
L 53.609375 8.296875 
L 53.609375 0 
L 7.328125 0 
L 7.328125 8.296875 
Q 12.9375 14.109375 22.625 23.890625 
Q 32.328125 33.6875 34.8125 36.53125 
Q 39.546875 41.84375 41.421875 45.53125 
Q 43.3125 49.21875 43.3125 52.78125 
Q 43.3125 58.59375 39.234375 62.25 
Q 35.15625 65.921875 28.609375 65.921875 
Q 23.96875 65.921875 18.8125 64.3125 
Q 13.671875 62.703125 7.8125 59.421875 
L 7.8125 69.390625 
Q 13.765625 71.78125 18.9375 73 
Q 24.125 74.21875 28.421875 74.21875 
Q 39.75 74.21875 46.484375 68.546875 
Q 53.21875 62.890625 53.21875 53.421875 
Q 53.21875 48.921875 51.53125 44.890625 
Q 49.859375 40.875 45.40625 35.40625 
Q 44.1875 33.984375 37.640625 27.21875 
Q 31.109375 20.453125 19.1875 8.296875 
z
" id="DejaVuSans-50"/>
       </defs>
       <use xlink:href="#DejaVuSans-90"/>
       <use x="68.505859" xlink:href="#DejaVuSans-95"/>
       <use x="118.505859" xlink:href="#DejaVuSans-50"/>
       <use x="182.128906" xlink:href="#DejaVuSans-95"/>
       <use x="232.128906" xlink:href="#DejaVuSans-110"/>
       <use x="295.507812" xlink:href="#DejaVuSans-115"/>
      </g>
     </g>
    </g>
    <g id="xtick_3">
     <g id="line2d_3">
      <g>
       <use style="stroke:#000000;stroke-width:0.8;" x="333" xlink:href="#m7d3934018f" y="252"/>
      </g>
     </g>
     <g id="text_3">
      <!-- Z_3_ns -->
      <g transform="translate(315.620313 266.421875)scale(0.1 -0.1)">
       <defs>
        <path d="M 40.578125 39.3125 
Q 47.65625 37.796875 51.625 33 
Q 55.609375 28.21875 55.609375 21.1875 
Q 55.609375 10.40625 48.1875 4.484375 
Q 40.765625 -1.421875 27.09375 -1.421875 
Q 22.515625 -1.421875 17.65625 -0.515625 
Q 12.796875 0.390625 7.625 2.203125 
L 7.625 11.71875 
Q 11.71875 9.328125 16.59375 8.109375 
Q 21.484375 6.890625 26.8125 6.890625 
Q 36.078125 6.890625 40.9375 10.546875 
Q 45.796875 14.203125 45.796875 21.1875 
Q 45.796875 27.640625 41.28125 31.265625 
Q 36.765625 34.90625 28.71875 34.90625 
L 20.21875 34.90625 
L 20.21875 43.015625 
L 29.109375 43.015625 
Q 36.375 43.015625 40.234375 45.921875 
Q 44.09375 48.828125 44.09375 54.296875 
Q 44.09375 59.90625 40.109375 62.90625 
Q 36.140625 65.921875 28.71875 65.921875 
Q 24.65625 65.921875 20.015625 65.03125 
Q 15.375 64.15625 9.8125 62.3125 
L 9.8125 71.09375 
Q 15.4375 72.65625 20.34375 73.4375 
Q 25.25 74.21875 29.59375 74.21875 
Q 40.828125 74.21875 47.359375 69.109375 
Q 53.90625 64.015625 53.90625 55.328125 
Q 53.90625 49.265625 50.4375 45.09375 
Q 46.96875 40.921875 40.578125 39.3125 
z
" id="DejaVuSans-51"/>
       </defs>
       <use xlink:href="#DejaVuSans-90"/>
       <use x="68.505859" xlink:href="#DejaVuSans-95"/>
       <use x="118.505859" xlink:href="#DejaVuSans-51"/>
       <use x="182.128906" xlink:href="#DejaVuSans-95"/>
       <use x="232.128906" xlink:href="#DejaVuSans-110"/>
       <use x="295.507812" xlink:href="#DejaVuSans-115"/>
      </g>
     </g>
    </g>
    <g id="text_4">
     <!-- set -->
     <g transform="translate(213.758594 280.378125)scale(0.1 -0.1)">
      <defs>
       <path d="M 56.203125 29.59375 
L 56.203125 25.203125 
L 14.890625 25.203125 
Q 15.484375 15.921875 20.484375 11.0625 
Q 25.484375 6.203125 34.421875 6.203125 
Q 39.59375 6.203125 44.453125 7.46875 
Q 49.3125 8.734375 54.109375 11.28125 
L 54.109375 2.78125 
Q 49.265625 0.734375 44.1875 -0.34375 
Q 39.109375 -1.421875 33.890625 -1.421875 
Q 20.796875 -1.421875 13.15625 6.1875 
Q 5.515625 13.8125 5.515625 26.8125 
Q 5.515625 40.234375 12.765625 48.109375 
Q 20.015625 56 32.328125 56 
Q 43.359375 56 49.78125 48.890625 
Q 56.203125 41.796875 56.203125 29.59375 
z
M 47.21875 32.234375 
Q 47.125 39.59375 43.09375 43.984375 
Q 39.0625 48.390625 32.421875 48.390625 
Q 24.90625 48.390625 20.390625 44.140625 
Q 15.875 39.890625 15.1875 32.171875 
z
" id="DejaVuSans-101"/>
       <path d="M 18.3125 70.21875 
L 18.3125 54.6875 
L 36.8125 54.6875 
L 36.8125 47.703125 
L 18.3125 47.703125 
L 18.3125 18.015625 
Q 18.3125 11.328125 20.140625 9.421875 
Q 21.96875 7.515625 27.59375 7.515625 
L 36.8125 7.515625 
L 36.8125 0 
L 27.59375 0 
Q 17.1875 0 13.234375 3.875 
Q 9.28125 7.765625 9.28125 18.015625 
L 9.28125 47.703125 
L 2.6875 47.703125 
L 2.6875 54.6875 
L 9.28125 54.6875 
L 9.28125 70.21875 
z
" id="DejaVuSans-116"/>
      </defs>
      <use xlink:href="#DejaVuSans-115"/>
      <use x="52.099609" xlink:href="#DejaVuSans-101"/>
      <use x="113.623047" xlink:href="#DejaVuSans-116"/>
     </g>
    </g>
   </g>
   <g id="matplotlib.axis_2">
    <g id="ytick_1">
     <g id="line2d_4">
      <defs>
       <path d="M 0 0 
L -3.5 0 
" id="me2b305b1b6" style="stroke:#000000;stroke-width:0.8;"/>
      </defs>
      <g>
       <use style="stroke:#000000;stroke-width:0.8;" x="54" xlink:href="#me2b305b1b6" y="235.174073"/>
      </g>
     </g>
     <g id="text_5">
      <!-- 0 -->
      <g transform="translate(40.6375 238.973292)scale(0.1 -0.1)">
       <defs>
        <path d="M 31.78125 66.40625 
Q 24.171875 66.40625 20.328125 58.90625 
Q 16.5 51.421875 16.5 36.375 
Q 16.5 21.390625 20.328125 13.890625 
Q 24.171875 6.390625 31.78125 6.390625 
Q 39.453125 6.390625 43.28125 13.890625 
Q 47.125 21.390625 47.125 36.375 
Q 47.125 51.421875 43.28125 58.90625 
Q 39.453125 66.40625 31.78125 66.40625 
z
M 31.78125 74.21875 
Q 44.046875 74.21875 50.515625 64.515625 
Q 56.984375 54.828125 56.984375 36.375 
Q 56.984375 17.96875 50.515625 8.265625 
Q 44.046875 -1.421875 31.78125 -1.421875 
Q 19.53125 -1.421875 13.0625 8.265625 
Q 6.59375 17.96875 6.59375 36.375 
Q 6.59375 54.828125 13.0625 64.515625 
Q 19.53125 74.21875 31.78125 74.21875 
z
" id="DejaVuSans-48"/>
       </defs>
       <use xlink:href="#DejaVuSans-48"/>
      </g>
     </g>
    </g>
    <g id="ytick_2">
     <g id="line2d_5">
      <g>
       <use style="stroke:#000000;stroke-width:0.8;" x="54" xlink:href="#me2b305b1b6" y="204.458631"/>
      </g>
     </g>
     <g id="text_6">
      <!-- 5 -->
      <g transform="translate(40.6375 208.25785)scale(0.1 -0.1)">
       <defs>
        <path d="M 10.796875 72.90625 
L 49.515625 72.90625 
L 49.515625 64.59375 
L 19.828125 64.59375 
L 19.828125 46.734375 
Q 21.96875 47.46875 24.109375 47.828125 
Q 26.265625 48.1875 28.421875 48.1875 
Q 40.625 48.1875 47.75 41.5 
Q 54.890625 34.8125 54.890625 23.390625 
Q 54.890625 11.625 47.5625 5.09375 
Q 40.234375 -1.421875 26.90625 -1.421875 
Q 22.3125 -1.421875 17.546875 -0.640625 
Q 12.796875 0.140625 7.71875 1.703125 
L 7.71875 11.625 
Q 12.109375 9.234375 16.796875 8.0625 
Q 21.484375 6.890625 26.703125 6.890625 
Q 35.15625 6.890625 40.078125 11.328125 
Q 45.015625 15.765625 45.015625 23.390625 
Q 45.015625 31 40.078125 35.4375 
Q 35.15625 39.890625 26.703125 39.890625 
Q 22.75 39.890625 18.8125 39.015625 
Q 14.890625 38.140625 10.796875 36.28125 
z
" id="DejaVuSans-53"/>
       </defs>
       <use xlink:href="#DejaVuSans-53"/>
      </g>
     </g>
    </g>
    <g id="ytick_3">
     <g id="line2d_6">
      <g>
       <use style="stroke:#000000;stroke-width:0.8;" x="54" xlink:href="#me2b305b1b6" y="173.743189"/>
      </g>
     </g>
     <g id="text_7">
      <!-- 10 -->
      <g transform="translate(34.275 177.542407)scale(0.1 -0.1)">
       <use xlink:href="#DejaVuSans-49"/>
       <use x="63.623047" xlink:href="#DejaVuSans-48"/>
      </g>
     </g>
    </g>
    <g id="ytick_4">
     <g id="line2d_7">
      <g>
       <use style="stroke:#000000;stroke-width:0.8;" x="54" xlink:href="#me2b305b1b6" y="143.027746"/>
      </g>
     </g>
     <g id="text_8">
      <!-- 15 -->
      <g transform="translate(34.275 146.826965)scale(0.1 -0.1)">
       <use xlink:href="#DejaVuSans-49"/>
       <use x="63.623047" xlink:href="#DejaVuSans-53"/>
      </g>
     </g>
    </g>
    <g id="ytick_5">
     <g id="line2d_8">
      <g>
       <use style="stroke:#000000;stroke-width:0.8;" x="54" xlink:href="#me2b305b1b6" y="112.312304"/>
      </g>
     </g>
     <g id="text_9">
      <!-- 20 -->
      <g transform="translate(34.275 116.111523)scale(0.1 -0.1)">
       <use xlink:href="#DejaVuSans-50"/>
       <use x="63.623047" xlink:href="#DejaVuSans-48"/>
      </g>
     </g>
    </g>
    <g id="ytick_6">
     <g id="line2d_9">
      <g>
       <use style="stroke:#000000;stroke-width:0.8;" x="54" xlink:href="#me2b305b1b6" y="81.596862"/>
      </g>
     </g>
     <g id="text_10">
      <!-- 25 -->
      <g transform="translate(34.275 85.39608)scale(0.1 -0.1)">
       <use xlink:href="#DejaVuSans-50"/>
       <use x="63.623047" xlink:href="#DejaVuSans-53"/>
      </g>
     </g>
    </g>
    <g id="ytick_7">
     <g id="line2d_10">
      <g>
       <use style="stroke:#000000;stroke-width:0.8;" x="54" xlink:href="#me2b305b1b6" y="50.881419"/>
      </g>
     </g>
     <g id="text_11">
      <!-- 30 -->
      <g transform="translate(34.275 54.680638)scale(0.1 -0.1)">
       <use xlink:href="#DejaVuSans-51"/>
       <use x="63.623047" xlink:href="#DejaVuSans-48"/>
      </g>
     </g>
    </g>
    <g id="text_12">
     <!-- value -->
     <g transform="translate(28.195312 156.937813)rotate(-90)scale(0.1 -0.1)">
      <defs>
       <path d="M 2.984375 54.6875 
L 12.5 54.6875 
L 29.59375 8.796875 
L 46.6875 54.6875 
L 56.203125 54.6875 
L 35.6875 0 
L 23.484375 0 
z
" id="DejaVuSans-118"/>
       <path d="M 34.28125 27.484375 
Q 23.390625 27.484375 19.1875 25 
Q 14.984375 22.515625 14.984375 16.5 
Q 14.984375 11.71875 18.140625 8.90625 
Q 21.296875 6.109375 26.703125 6.109375 
Q 34.1875 6.109375 38.703125 11.40625 
Q 43.21875 16.703125 43.21875 25.484375 
L 43.21875 27.484375 
z
M 52.203125 31.203125 
L 52.203125 0 
L 43.21875 0 
L 43.21875 8.296875 
Q 40.140625 3.328125 35.546875 0.953125 
Q 30.953125 -1.421875 24.3125 -1.421875 
Q 15.921875 -1.421875 10.953125 3.296875 
Q 6 8.015625 6 15.921875 
Q 6 25.140625 12.171875 29.828125 
Q 18.359375 34.515625 30.609375 34.515625 
L 43.21875 34.515625 
L 43.21875 35.40625 
Q 43.21875 41.609375 39.140625 45 
Q 35.0625 48.390625 27.6875 48.390625 
Q 23 48.390625 18.546875 47.265625 
Q 14.109375 46.140625 10.015625 43.890625 
L 10.015625 52.203125 
Q 14.9375 54.109375 19.578125 55.046875 
Q 24.21875 56 28.609375 56 
Q 40.484375 56 46.34375 49.84375 
Q 52.203125 43.703125 52.203125 31.203125 
z
" id="DejaVuSans-97"/>
       <path d="M 9.421875 75.984375 
L 18.40625 75.984375 
L 18.40625 0 
L 9.421875 0 
z
" id="DejaVuSans-108"/>
       <path d="M 8.5 21.578125 
L 8.5 54.6875 
L 17.484375 54.6875 
L 17.484375 21.921875 
Q 17.484375 14.15625 20.5 10.265625 
Q 23.53125 6.390625 29.59375 6.390625 
Q 36.859375 6.390625 41.078125 11.03125 
Q 45.3125 15.671875 45.3125 23.6875 
L 45.3125 54.6875 
L 54.296875 54.6875 
L 54.296875 0 
L 45.3125 0 
L 45.3125 8.40625 
Q 42.046875 3.421875 37.71875 1 
Q 33.40625 -1.421875 27.6875 -1.421875 
Q 18.265625 -1.421875 13.375 4.4375 
Q 8.5 10.296875 8.5 21.578125 
z
M 31.109375 56 
z
" id="DejaVuSans-117"/>
      </defs>
      <use xlink:href="#DejaVuSans-118"/>
      <use x="59.179688" xlink:href="#DejaVuSans-97"/>
      <use x="120.458984" xlink:href="#DejaVuSans-108"/>
      <use x="148.242188" xlink:href="#DejaVuSans-117"/>
      <use x="211.621094" xlink:href="#DejaVuSans-101"/>
     </g>
    </g>
   </g>
   <g id="line2d_11">
    <path clip-path="url(#p0293b2634d)" d="M 80.04 159.80735 
L 80.04 45.391519 
" style="fill:none;stroke:#3d3d3d;stroke-linecap:square;stroke-width:1.5;"/>
   </g>
   <g id="line2d_12">
    <path clip-path="url(#p0293b2634d)" d="M 80.04 108.695104 
L 80.04 74.61115 
" style="fill:none;stroke:#3d3d3d;stroke-linecap:square;stroke-width:4.5;"/>
   </g>
   <g id="line2d_13">
    <path clip-path="url(#p0293b2634d)" d="M 221.4 156.854482 
L 221.4 60.169705 
" style="fill:none;stroke:#3d3d3d;stroke-linecap:square;stroke-width:1.5;"/>
   </g>
   <g id="line2d_14">
    <path clip-path="url(#p0293b2634d)" d="M 221.4 112.20872 
L 221.4 82.432472 
" style="fill:none;stroke:#3d3d3d;stroke-linecap:square;stroke-width:4.5;"/>
   </g>
   <g id="line2d_15">
    <path clip-path="url(#p0293b2634d)" d="M 362.76 130.565955 
L 362.76 44.443636 
" style="fill:none;stroke:#3d3d3d;stroke-linecap:square;stroke-width:1.5;"/>
   </g>
   <g id="line2d_16">
    <path clip-path="url(#p0293b2634d)" d="M 362.76 94.675595 
L 362.76 70.718372 
" style="fill:none;stroke:#3d3d3d;stroke-linecap:square;stroke-width:4.5;"/>
   </g>
   <g id="patch_6">
    <path d="M 54 252 
L 54 34.56 
" style="fill:none;stroke:#000000;stroke-linecap:square;stroke-linejoin:miter;stroke-width:0.8;"/>
   </g>
   <g id="patch_7">
    <path d="M 388.8 252 
L 388.8 34.56 
" style="fill:none;stroke:#000000;stroke-linecap:square;stroke-linejoin:miter;stroke-width:0.8;"/>
   </g>
   <g id="patch_8">
    <path d="M 54 252 
L 388.8 252 
" style="fill:none;stroke:#000000;stroke-linecap:square;stroke-linejoin:miter;stroke-width:0.8;"/>
   </g>
   <g id="patch_9">
    <path d="M 54 34.56 
L 388.8 34.56 
" style="fill:none;stroke:#000000;stroke-linecap:square;stroke-linejoin:miter;stroke-width:0.8;"/>
   </g>
   <g id="PathCollection_1">
    <defs>
     <path d="M 0 1.5 
C 0.397805 1.5 0.77937 1.341951 1.06066 1.06066 
C 1.341951 0.77937 1.5 0.397805 1.5 0 
C 1.5 -0.397805 1.341951 -0.77937 1.06066 -1.06066 
C 0.77937 -1.341951 0.397805 -1.5 0 -1.5 
C -0.397805 -1.5 -0.77937 -1.341951 -1.06066 -1.06066 
C -1.341951 -0.77937 -1.5 -0.397805 -1.5 0 
C -1.5 0.397805 -1.341951 0.77937 -1.06066 1.06066 
C -0.77937 1.341951 -0.397805 1.5 0 1.5 
z
" id="mb10f138ad6" style="stroke:#3d3d3d;"/>
    </defs>
    <g clip-path="url(#p0293b2634d)">
     <use style="fill:#ffffff;stroke:#3d3d3d;" x="80.04" xlink:href="#mb10f138ad6" y="85.708619"/>
    </g>
   </g>
   <g id="PathCollection_2">
    <g clip-path="url(#p0293b2634d)">
     <use style="fill:#ffffff;stroke:#3d3d3d;" x="221.4" xlink:href="#mb10f138ad6" y="93.776953"/>
    </g>
   </g>
   <g id="PathCollection_3">
    <g clip-path="url(#p0293b2634d)">
     <use style="fill:#ffffff;stroke:#3d3d3d;" x="362.76" xlink:href="#mb10f138ad6" y="80.699081"/>
    </g>
   </g>
   <g id="legend_1">
    <g id="patch_10">
     <path d="M 315.040625 247 
L 381.8 247 
Q 383.8 247 383.8 245 
L 383.8 186.453125 
Q 383.8 184.453125 381.8 184.453125 
L 315.040625 184.453125 
Q 313.040625 184.453125 313.040625 186.453125 
L 313.040625 245 
Q 313.040625 247 315.040625 247 
z
" style="fill:#ffffff;opacity:0.8;stroke:#cccccc;stroke-linejoin:miter;"/>
    </g>
    <g id="text_13">
     <!-- set -->
     <g transform="translate(340.778906 196.051562)scale(0.1 -0.1)">
      <use xlink:href="#DejaVuSans-115"/>
      <use x="52.099609" xlink:href="#DejaVuSans-101"/>
      <use x="113.623047" xlink:href="#DejaVuSans-116"/>
     </g>
    </g>
    <g id="patch_11">
     <path d="M 317.040625 210.729687 
L 337.040625 210.729687 
L 337.040625 203.729687 
L 317.040625 203.729687 
z
" style="fill:#3274a1;stroke:#3d3d3d;stroke-linejoin:miter;stroke-width:0.75;"/>
    </g>
    <g id="text_14">
     <!-- Z_1_ns -->
     <g transform="translate(345.040625 210.729687)scale(0.1 -0.1)">
      <use xlink:href="#DejaVuSans-90"/>
      <use x="68.505859" xlink:href="#DejaVuSans-95"/>
      <use x="118.505859" xlink:href="#DejaVuSans-49"/>
      <use x="182.128906" xlink:href="#DejaVuSans-95"/>
      <use x="232.128906" xlink:href="#DejaVuSans-110"/>
      <use x="295.507812" xlink:href="#DejaVuSans-115"/>
     </g>
    </g>
    <g id="patch_12">
     <path d="M 317.040625 225.685937 
L 337.040625 225.685937 
L 337.040625 218.685937 
L 317.040625 218.685937 
z
" style="fill:#e1812c;stroke:#3d3d3d;stroke-linejoin:miter;stroke-width:0.75;"/>
    </g>
    <g id="text_15">
     <!-- Z_2_ns -->
     <g transform="translate(345.040625 225.685937)scale(0.1 -0.1)">
      <use xlink:href="#DejaVuSans-90"/>
      <use x="68.505859" xlink:href="#DejaVuSans-95"/>
      <use x="118.505859" xlink:href="#DejaVuSans-50"/>
      <use x="182.128906" xlink:href="#DejaVuSans-95"/>
      <use x="232.128906" xlink:href="#DejaVuSans-110"/>
      <use x="295.507812" xlink:href="#DejaVuSans-115"/>
     </g>
    </g>
    <g id="patch_13">
     <path d="M 317.040625 240.642187 
L 337.040625 240.642187 
L 337.040625 233.642187 
L 317.040625 233.642187 
z
" style="fill:#3a923a;stroke:#3d3d3d;stroke-linejoin:miter;stroke-width:0.75;"/>
    </g>
    <g id="text_16">
     <!-- Z_3_ns -->
     <g transform="translate(345.040625 240.642187)scale(0.1 -0.1)">
      <use xlink:href="#DejaVuSans-90"/>
      <use x="68.505859" xlink:href="#DejaVuSans-95"/>
      <use x="118.505859" xlink:href="#DejaVuSans-51"/>
      <use x="182.128906" xlink:href="#DejaVuSans-95"/>
      <use x="232.128906" xlink:href="#DejaVuSans-110"/>
      <use x="295.507812" xlink:href="#DejaVuSans-115"/>
     </g>
    </g>
   </g>
  </g>
 </g>
 <defs>
  <clipPath id="p0293b2634d">
   <rect height="217.44" width="334.8" x="54" y="34.56"/>
  </clipPath>
 </defs>
</svg>
