<?xml version="1.0" encoding="utf-8" standalone="no"?>
<!DOCTYPE svg PUBLIC "-//W3C//DTD SVG 1.1//EN"
  "http://www.w3.org/Graphics/SVG/1.1/DTD/svg11.dtd">
<!-- Created with matplotlib (https://matplotlib.org/) -->
<svg height="288pt" version="1.1" viewBox="0 0 432 288" width="432pt" xmlns="http://www.w3.org/2000/svg" xmlns:xlink="http://www.w3.org/1999/xlink">
 <metadata>
  <rdf:RDF xmlns:cc="http://creativecommons.org/ns#" xmlns:dc="http://purl.org/dc/elements/1.1/" xmlns:rdf="http://www.w3.org/1999/02/22-rdf-syntax-ns#">
   <cc:Work>
    <dc:type rdf:resource="http://purl.org/dc/dcmitype/StillImage"/>
    <dc:date>2022-04-14T11:40:42.336233</dc:date>
    <dc:format>image/svg+xml</dc:format>
    <dc:creator>
     <cc:Agent>
      <dc:title>Matplotlib v3.3.4, https://matplotlib.org/</dc:title>
     </cc:Agent>
    </dc:creator>
   </cc:Work>
  </rdf:RDF>
 </metadata>
 <defs>
  <style type="text/css">*{stroke-linecap:butt;stroke-linejoin:round;}</style>
 </defs>
 <g id="figure_1">
  <g id="patch_1">
   <path d="M 0 288 
L 432 288 
L 432 0 
L 0 0 
z
" style="fill:#ffffff;"/>
  </g>
  <g id="axes_1">
   <g id="patch_2">
    <path d="M 54 252 
L 388.8 252 
L 388.8 34.56 
L 54 34.56 
z
" style="fill:#ffffff;"/>
   </g>
   <g id="PolyCollection_1">
    <defs>
     <path d="M 106.729484 -47.82258 
L 101.710516 -47.82258 
L 101.078368 -49.799689 
L 100.497218 -51.776798 
L 99.982564 -53.753907 
L 99.512311 -55.731016 
L 99.037866 -57.708125 
L 98.504013 -59.685234 
L 97.867392 -61.662343 
L 97.106537 -63.639452 
L 96.221124 -65.616561 
L 95.222089 -67.59367 
L 94.118095 -69.570779 
L 92.906354 -71.547887 
L 91.573791 -73.524996 
L 90.107406 -75.502105 
L 88.505796 -77.479214 
L 86.783877 -79.456323 
L 84.970005 -81.433432 
L 83.10147 -83.410541 
L 81.223773 -85.38765 
L 79.392367 -87.364759 
L 77.670538 -89.341868 
L 76.119581 -91.318977 
L 74.784629 -93.296086 
L 73.683962 -95.273194 
L 72.807664 -97.250303 
L 72.125851 -99.227412 
L 71.602428 -101.204521 
L 71.208689 -103.18163 
L 70.931368 -105.158739 
L 70.77208 -107.135848 
L 70.74 -109.112957 
L 70.844221 -111.090066 
L 71.091722 -113.067175 
L 71.490836 -115.044284 
L 72.054335 -117.021393 
L 72.796119 -118.998502 
L 73.720058 -120.97561 
L 74.80479 -122.952719 
L 75.992392 -124.929828 
L 77.191326 -126.906937 
L 78.301154 -128.884046 
L 79.254437 -130.861155 
L 80.055166 -132.838264 
L 80.787178 -134.815373 
L 81.580454 -136.792482 
L 82.550666 -138.769591 
L 83.746633 -140.7467 
L 85.134947 -142.723809 
L 86.624946 -144.700918 
L 88.111744 -146.678026 
L 89.509818 -148.655135 
L 90.765342 -150.632244 
L 91.854476 -152.609353 
L 92.779922 -154.586462 
L 93.568924 -156.563571 
L 94.266663 -158.54068 
L 94.921172 -160.517789 
L 95.565896 -162.494898 
L 96.211139 -164.472007 
L 96.849544 -166.449116 
L 97.469659 -168.426225 
L 98.066394 -170.403334 
L 98.641597 -172.380442 
L 99.196906 -174.357551 
L 99.72651 -176.33466 
L 100.216183 -178.311769 
L 100.649344 -180.288878 
L 101.01582 -182.265987 
L 101.317794 -184.243096 
L 101.569932 -186.220205 
L 101.794224 -188.197314 
L 102.012306 -190.174423 
L 102.238456 -192.151532 
L 102.47568 -194.128641 
L 102.715837 -196.10575 
L 102.943295 -198.082858 
L 103.140617 -200.059967 
L 103.294601 -202.037076 
L 103.401072 -204.014185 
L 103.466853 -205.991294 
L 103.507902 -207.968403 
L 103.544067 -209.945512 
L 103.592501 -211.922621 
L 103.662418 -213.89973 
L 103.753109 -215.876839 
L 103.855617 -217.853948 
L 103.957052 -219.831057 
L 104.045592 -221.808165 
L 104.114078 -223.785274 
L 104.161012 -225.762383 
L 104.189172 -227.739492 
L 104.203143 -229.716601 
L 104.207219 -231.69371 
L 104.204494 -233.670819 
L 104.197101 -235.647928 
L 104.187017 -237.625037 
L 104.176675 -239.602146 
L 104.168873 -241.579255 
L 104.165965 -243.556364 
L 104.274035 -243.556364 
L 104.274035 -243.556364 
L 104.271127 -241.579255 
L 104.263325 -239.602146 
L 104.252983 -237.625037 
L 104.242899 -235.647928 
L 104.235506 -233.670819 
L 104.232781 -231.69371 
L 104.236857 -229.716601 
L 104.250828 -227.739492 
L 104.278988 -225.762383 
L 104.325922 -223.785274 
L 104.394408 -221.808165 
L 104.482948 -219.831057 
L 104.584383 -217.853948 
L 104.686891 -215.876839 
L 104.777582 -213.89973 
L 104.847499 -211.922621 
L 104.895933 -209.945512 
L 104.932098 -207.968403 
L 104.973147 -205.991294 
L 105.038928 -204.014185 
L 105.145399 -202.037076 
L 105.299383 -200.059967 
L 105.496705 -198.082858 
L 105.724163 -196.10575 
L 105.96432 -194.128641 
L 106.201544 -192.151532 
L 106.427694 -190.174423 
L 106.645776 -188.197314 
L 106.870068 -186.220205 
L 107.122206 -184.243096 
L 107.42418 -182.265987 
L 107.790656 -180.288878 
L 108.223817 -178.311769 
L 108.71349 -176.33466 
L 109.243094 -174.357551 
L 109.798403 -172.380442 
L 110.373606 -170.403334 
L 110.970341 -168.426225 
L 111.590456 -166.449116 
L 112.228861 -164.472007 
L 112.874104 -162.494898 
L 113.518828 -160.517789 
L 114.173337 -158.54068 
L 114.871076 -156.563571 
L 115.660078 -154.586462 
L 116.585524 -152.609353 
L 117.674658 -150.632244 
L 118.930182 -148.655135 
L 120.328256 -146.678026 
L 121.815054 -144.700918 
L 123.305053 -142.723809 
L 124.693367 -140.7467 
L 125.889334 -138.769591 
L 126.859546 -136.792482 
L 127.652822 -134.815373 
L 128.384834 -132.838264 
L 129.185563 -130.861155 
L 130.138846 -128.884046 
L 131.248674 -126.906937 
L 132.447608 -124.929828 
L 133.63521 -122.952719 
L 134.719942 -120.97561 
L 135.643881 -118.998502 
L 136.385665 -117.021393 
L 136.949164 -115.044284 
L 137.348278 -113.067175 
L 137.595779 -111.090066 
L 137.7 -109.112957 
L 137.66792 -107.135848 
L 137.508632 -105.158739 
L 137.231311 -103.18163 
L 136.837572 -101.204521 
L 136.314149 -99.227412 
L 135.632336 -97.250303 
L 134.756038 -95.273194 
L 133.655371 -93.296086 
L 132.320419 -91.318977 
L 130.769462 -89.341868 
L 129.047633 -87.364759 
L 127.216227 -85.38765 
L 125.33853 -83.410541 
L 123.469995 -81.433432 
L 121.656123 -79.456323 
L 119.934204 -77.479214 
L 118.332594 -75.502105 
L 116.866209 -73.524996 
L 115.533646 -71.547887 
L 114.321905 -69.570779 
L 113.217911 -67.59367 
L 112.218876 -65.616561 
L 111.333463 -63.639452 
L 110.572608 -61.662343 
L 109.935987 -59.685234 
L 109.402134 -57.708125 
L 108.927689 -55.731016 
L 108.457436 -53.753907 
L 107.942782 -51.776798 
L 107.361632 -49.799689 
L 106.729484 -47.82258 
z
" id="mf867345803" style="stroke:#3f3f3f;stroke-width:1.5;"/>
    </defs>
    <g clip-path="url(#p5cb69ff2ee)">
     <use style="fill:#3274a1;stroke:#3f3f3f;stroke-width:1.5;" x="0" xlink:href="#mf867345803" y="288"/>
    </g>
   </g>
   <g id="PolyCollection_2">
    <defs>
     <path d="M 341.807736 -45.883636 
L 335.352264 -45.883636 
L 334.618494 -47.627081 
L 333.95718 -49.370526 
L 333.40428 -51.11397 
L 332.961783 -52.857415 
L 332.599176 -54.60086 
L 332.263005 -56.344304 
L 331.889002 -58.087749 
L 331.412859 -59.831194 
L 330.778913 -61.574638 
L 329.947809 -63.318083 
L 328.903285 -65.061528 
L 327.656196 -66.804972 
L 326.242911 -68.548417 
L 324.716506 -70.291862 
L 323.132143 -72.035306 
L 321.530975 -73.778751 
L 319.928525 -75.522195 
L 318.313016 -77.26564 
L 316.656266 -79.009085 
L 314.934946 -80.752529 
L 313.154385 -82.495974 
L 311.363777 -84.239419 
L 309.653521 -85.982863 
L 308.13304 -87.726308 
L 306.897561 -89.469753 
L 305.998924 -91.213197 
L 305.434142 -92.956642 
L 305.156241 -94.700087 
L 305.1 -96.443531 
L 305.2075 -98.186976 
L 305.439559 -99.930421 
L 305.768534 -101.673865 
L 306.160215 -103.41731 
L 306.56001 -105.160755 
L 306.896292 -106.904199 
L 307.102697 -108.647644 
L 307.148108 -110.391089 
L 307.056788 -112.134533 
L 306.905918 -113.877978 
L 306.800527 -115.621423 
L 306.838166 -117.364867 
L 307.079989 -119.108312 
L 307.539554 -120.851756 
L 308.190324 -122.595201 
L 308.984449 -124.338646 
L 309.873027 -126.08209 
L 310.820783 -127.825535 
L 311.812157 -129.56898 
L 312.848598 -131.312424 
L 313.938594 -133.055869 
L 315.084233 -134.799314 
L 316.270558 -136.542758 
L 317.464042 -138.286203 
L 318.622331 -140.029648 
L 319.710768 -141.773092 
L 320.716826 -143.516537 
L 321.654841 -145.259982 
L 322.559131 -147.003426 
L 323.469655 -148.746871 
L 324.416932 -150.490316 
L 325.411705 -152.23376 
L 326.441747 -153.977205 
L 327.475458 -155.72065 
L 328.470426 -157.464094 
L 329.384588 -159.207539 
L 330.187457 -160.950984 
L 330.868617 -162.694428 
L 331.440749 -164.437873 
L 331.935509 -166.181317 
L 332.392961 -167.924762 
L 332.848316 -169.668207 
L 333.321412 -171.411651 
L 333.813307 -173.155096 
L 334.310552 -174.898541 
L 334.793732 -176.641985 
L 335.245298 -178.38543 
L 335.653521 -180.128875 
L 336.012779 -181.872319 
L 336.322461 -183.615764 
L 336.586311 -185.359209 
L 336.81201 -187.102653 
L 337.00963 -188.846098 
L 337.188408 -190.589543 
L 337.353213 -192.332987 
L 337.503134 -194.076432 
L 337.633534 -195.819877 
L 337.740553 -197.563321 
L 337.825157 -199.306766 
L 337.894079 -201.050211 
L 337.957076 -202.793655 
L 338.022343 -204.5371 
L 338.092958 -206.280545 
L 338.166294 -208.023989 
L 338.236365 -209.767434 
L 338.297401 -211.510879 
L 338.346602 -213.254323 
L 338.384857 -214.997768 
L 338.41555 -216.741212 
L 338.442483 -218.484657 
L 338.717517 -218.484657 
L 338.717517 -218.484657 
L 338.74445 -216.741212 
L 338.775143 -214.997768 
L 338.813398 -213.254323 
L 338.862599 -211.510879 
L 338.923635 -209.767434 
L 338.993706 -208.023989 
L 339.067042 -206.280545 
L 339.137657 -204.5371 
L 339.202924 -202.793655 
L 339.265921 -201.050211 
L 339.334843 -199.306766 
L 339.419447 -197.563321 
L 339.526466 -195.819877 
L 339.656866 -194.076432 
L 339.806787 -192.332987 
L 339.971592 -190.589543 
L 340.15037 -188.846098 
L 340.34799 -187.102653 
L 340.573689 -185.359209 
L 340.837539 -183.615764 
L 341.147221 -181.872319 
L 341.506479 -180.128875 
L 341.914702 -178.38543 
L 342.366268 -176.641985 
L 342.849448 -174.898541 
L 343.346693 -173.155096 
L 343.838588 -171.411651 
L 344.311684 -169.668207 
L 344.767039 -167.924762 
L 345.224491 -166.181317 
L 345.719251 -164.437873 
L 346.291383 -162.694428 
L 346.972543 -160.950984 
L 347.775412 -159.207539 
L 348.689574 -157.464094 
L 349.684542 -155.72065 
L 350.718253 -153.977205 
L 351.748295 -152.23376 
L 352.743068 -150.490316 
L 353.690345 -148.746871 
L 354.600869 -147.003426 
L 355.505159 -145.259982 
L 356.443174 -143.516537 
L 357.449232 -141.773092 
L 358.537669 -140.029648 
L 359.695958 -138.286203 
L 360.889442 -136.542758 
L 362.075767 -134.799314 
L 363.221406 -133.055869 
L 364.311402 -131.312424 
L 365.347843 -129.56898 
L 366.339217 -127.825535 
L 367.286973 -126.08209 
L 368.175551 -124.338646 
L 368.969676 -122.595201 
L 369.620446 -120.851756 
L 370.080011 -119.108312 
L 370.321834 -117.364867 
L 370.359473 -115.621423 
L 370.254082 -113.877978 
L 370.103212 -112.134533 
L 370.011892 -110.391089 
L 370.057303 -108.647644 
L 370.263708 -106.904199 
L 370.59999 -105.160755 
L 370.999785 -103.41731 
L 371.391466 -101.673865 
L 371.720441 -99.930421 
L 371.9525 -98.186976 
L 372.06 -96.443531 
L 372.003759 -94.700087 
L 371.725858 -92.956642 
L 371.161076 -91.213197 
L 370.262439 -89.469753 
L 369.02696 -87.726308 
L 367.506479 -85.982863 
L 365.796223 -84.239419 
L 364.005615 -82.495974 
L 362.225054 -80.752529 
L 360.503734 -79.009085 
L 358.846984 -77.26564 
L 357.231475 -75.522195 
L 355.629025 -73.778751 
L 354.027857 -72.035306 
L 352.443494 -70.291862 
L 350.917089 -68.548417 
L 349.503804 -66.804972 
L 348.256715 -65.061528 
L 347.212191 -63.318083 
L 346.381087 -61.574638 
L 345.747141 -59.831194 
L 345.270998 -58.087749 
L 344.896995 -56.344304 
L 344.560824 -54.60086 
L 344.198217 -52.857415 
L 343.75572 -51.11397 
L 343.20282 -49.370526 
L 342.541506 -47.627081 
L 341.807736 -45.883636 
z
" id="md949972546" style="stroke:#3f3f3f;stroke-width:1.5;"/>
    </defs>
    <g clip-path="url(#p5cb69ff2ee)">
     <use style="fill:#e1812c;stroke:#3f3f3f;stroke-width:1.5;" x="0" xlink:href="#md949972546" y="288"/>
    </g>
   </g>
   <g id="patch_3">
    <path clip-path="url(#p5cb69ff2ee)" d="M 137.7 240.741439 
L 137.7 240.741439 
L 137.7 240.741439 
L 137.7 240.741439 
z
" style="fill:#3274a1;stroke:#3f3f3f;stroke-linejoin:miter;stroke-width:0.75;"/>
   </g>
   <g id="patch_4">
    <path clip-path="url(#p5cb69ff2ee)" d="M 137.7 240.741439 
L 137.7 240.741439 
L 137.7 240.741439 
L 137.7 240.741439 
z
" style="fill:#e1812c;stroke:#3f3f3f;stroke-linejoin:miter;stroke-width:0.75;"/>
   </g>
   <g id="matplotlib.axis_1">
    <g id="xtick_1">
     <g id="line2d_1">
      <defs>
       <path d="M 0 0 
L 0 3.5 
" id="mc86558b01a" style="stroke:#000000;stroke-width:0.8;"/>
      </defs>
      <g>
       <use style="stroke:#000000;stroke-width:0.8;" x="137.7" xlink:href="#mc86558b01a" y="252"/>
      </g>
     </g>
     <g id="text_1">
      <!-- Z_1_zero -->
      <g transform="translate(115.390625 266.320312)scale(0.1 -0.1)">
       <defs>
        <path d="M 5.609375 72.90625 
L 62.890625 72.90625 
L 62.890625 65.375 
L 16.796875 8.296875 
L 64.015625 8.296875 
L 64.015625 0 
L 4.5 0 
L 4.5 7.515625 
L 50.59375 64.59375 
L 5.609375 64.59375 
z
" id="DejaVuSans-90"/>
        <path d="M 50.984375 -16.609375 
L 50.984375 -23.578125 
L -0.984375 -23.578125 
L -0.984375 -16.609375 
z
" id="DejaVuSans-95"/>
        <path d="M 12.40625 8.296875 
L 28.515625 8.296875 
L 28.515625 63.921875 
L 10.984375 60.40625 
L 10.984375 69.390625 
L 28.421875 72.90625 
L 38.28125 72.90625 
L 38.28125 8.296875 
L 54.390625 8.296875 
L 54.390625 0 
L 12.40625 0 
z
" id="DejaVuSans-49"/>
        <path d="M 5.515625 54.6875 
L 48.1875 54.6875 
L 48.1875 46.484375 
L 14.40625 7.171875 
L 48.1875 7.171875 
L 48.1875 0 
L 4.296875 0 
L 4.296875 8.203125 
L 38.09375 47.515625 
L 5.515625 47.515625 
z
" id="DejaVuSans-122"/>
        <path d="M 56.203125 29.59375 
L 56.203125 25.203125 
L 14.890625 25.203125 
Q 15.484375 15.921875 20.484375 11.0625 
Q 25.484375 6.203125 34.421875 6.203125 
Q 39.59375 6.203125 44.453125 7.46875 
Q 49.3125 8.734375 54.109375 11.28125 
L 54.109375 2.78125 
Q 49.265625 0.734375 44.1875 -0.34375 
Q 39.109375 -1.421875 33.890625 -1.421875 
Q 20.796875 -1.421875 13.15625 6.1875 
Q 5.515625 13.8125 5.515625 26.8125 
Q 5.515625 40.234375 12.765625 48.109375 
Q 20.015625 56 32.328125 56 
Q 43.359375 56 49.78125 48.890625 
Q 56.203125 41.796875 56.203125 29.59375 
z
M 47.21875 32.234375 
Q 47.125 39.59375 43.09375 43.984375 
Q 39.0625 48.390625 32.421875 48.390625 
Q 24.90625 48.390625 20.390625 44.140625 
Q 15.875 39.890625 15.1875 32.171875 
z
" id="DejaVuSans-101"/>
        <path d="M 41.109375 46.296875 
Q 39.59375 47.171875 37.8125 47.578125 
Q 36.03125 48 33.890625 48 
Q 26.265625 48 22.1875 43.046875 
Q 18.109375 38.09375 18.109375 28.8125 
L 18.109375 0 
L 9.078125 0 
L 9.078125 54.6875 
L 18.109375 54.6875 
L 18.109375 46.1875 
Q 20.953125 51.171875 25.484375 53.578125 
Q 30.03125 56 36.53125 56 
Q 37.453125 56 38.578125 55.875 
Q 39.703125 55.765625 41.0625 55.515625 
z
" id="DejaVuSans-114"/>
        <path d="M 30.609375 48.390625 
Q 23.390625 48.390625 19.1875 42.75 
Q 14.984375 37.109375 14.984375 27.296875 
Q 14.984375 17.484375 19.15625 11.84375 
Q 23.34375 6.203125 30.609375 6.203125 
Q 37.796875 6.203125 41.984375 11.859375 
Q 46.1875 17.53125 46.1875 27.296875 
Q 46.1875 37.015625 41.984375 42.703125 
Q 37.796875 48.390625 30.609375 48.390625 
z
M 30.609375 56 
Q 42.328125 56 49.015625 48.375 
Q 55.71875 40.765625 55.71875 27.296875 
Q 55.71875 13.875 49.015625 6.21875 
Q 42.328125 -1.421875 30.609375 -1.421875 
Q 18.84375 -1.421875 12.171875 6.21875 
Q 5.515625 13.875 5.515625 27.296875 
Q 5.515625 40.765625 12.171875 48.375 
Q 18.84375 56 30.609375 56 
z
" id="DejaVuSans-111"/>
       </defs>
       <use xlink:href="#DejaVuSans-90"/>
       <use x="68.505859" xlink:href="#DejaVuSans-95"/>
       <use x="118.505859" xlink:href="#DejaVuSans-49"/>
       <use x="182.128906" xlink:href="#DejaVuSans-95"/>
       <use x="232.128906" xlink:href="#DejaVuSans-122"/>
       <use x="284.619141" xlink:href="#DejaVuSans-101"/>
       <use x="346.142578" xlink:href="#DejaVuSans-114"/>
       <use x="385.005859" xlink:href="#DejaVuSans-111"/>
      </g>
     </g>
    </g>
    <g id="xtick_2">
     <g id="line2d_2">
      <g>
       <use style="stroke:#000000;stroke-width:0.8;" x="305.1" xlink:href="#mc86558b01a" y="252"/>
      </g>
     </g>
     <g id="text_2">
      <!-- Z_3_zero -->
      <g transform="translate(282.790625 266.421875)scale(0.1 -0.1)">
       <defs>
        <path d="M 40.578125 39.3125 
Q 47.65625 37.796875 51.625 33 
Q 55.609375 28.21875 55.609375 21.1875 
Q 55.609375 10.40625 48.1875 4.484375 
Q 40.765625 -1.421875 27.09375 -1.421875 
Q 22.515625 -1.421875 17.65625 -0.515625 
Q 12.796875 0.390625 7.625 2.203125 
L 7.625 11.71875 
Q 11.71875 9.328125 16.59375 8.109375 
Q 21.484375 6.890625 26.8125 6.890625 
Q 36.078125 6.890625 40.9375 10.546875 
Q 45.796875 14.203125 45.796875 21.1875 
Q 45.796875 27.640625 41.28125 31.265625 
Q 36.765625 34.90625 28.71875 34.90625 
L 20.21875 34.90625 
L 20.21875 43.015625 
L 29.109375 43.015625 
Q 36.375 43.015625 40.234375 45.921875 
Q 44.09375 48.828125 44.09375 54.296875 
Q 44.09375 59.90625 40.109375 62.90625 
Q 36.140625 65.921875 28.71875 65.921875 
Q 24.65625 65.921875 20.015625 65.03125 
Q 15.375 64.15625 9.8125 62.3125 
L 9.8125 71.09375 
Q 15.4375 72.65625 20.34375 73.4375 
Q 25.25 74.21875 29.59375 74.21875 
Q 40.828125 74.21875 47.359375 69.109375 
Q 53.90625 64.015625 53.90625 55.328125 
Q 53.90625 49.265625 50.4375 45.09375 
Q 46.96875 40.921875 40.578125 39.3125 
z
" id="DejaVuSans-51"/>
       </defs>
       <use xlink:href="#DejaVuSans-90"/>
       <use x="68.505859" xlink:href="#DejaVuSans-95"/>
       <use x="118.505859" xlink:href="#DejaVuSans-51"/>
       <use x="182.128906" xlink:href="#DejaVuSans-95"/>
       <use x="232.128906" xlink:href="#DejaVuSans-122"/>
       <use x="284.619141" xlink:href="#DejaVuSans-101"/>
       <use x="346.142578" xlink:href="#DejaVuSans-114"/>
       <use x="385.005859" xlink:href="#DejaVuSans-111"/>
      </g>
     </g>
    </g>
    <g id="text_3">
     <!-- set -->
     <g transform="translate(213.758594 280.378125)scale(0.1 -0.1)">
      <defs>
       <path d="M 44.28125 53.078125 
L 44.28125 44.578125 
Q 40.484375 46.53125 36.375 47.5 
Q 32.28125 48.484375 27.875 48.484375 
Q 21.1875 48.484375 17.84375 46.4375 
Q 14.5 44.390625 14.5 40.28125 
Q 14.5 37.15625 16.890625 35.375 
Q 19.28125 33.59375 26.515625 31.984375 
L 29.59375 31.296875 
Q 39.15625 29.25 43.1875 25.515625 
Q 47.21875 21.78125 47.21875 15.09375 
Q 47.21875 7.46875 41.1875 3.015625 
Q 35.15625 -1.421875 24.609375 -1.421875 
Q 20.21875 -1.421875 15.453125 -0.5625 
Q 10.6875 0.296875 5.421875 2 
L 5.421875 11.28125 
Q 10.40625 8.6875 15.234375 7.390625 
Q 20.0625 6.109375 24.8125 6.109375 
Q 31.15625 6.109375 34.5625 8.28125 
Q 37.984375 10.453125 37.984375 14.40625 
Q 37.984375 18.0625 35.515625 20.015625 
Q 33.0625 21.96875 24.703125 23.78125 
L 21.578125 24.515625 
Q 13.234375 26.265625 9.515625 29.90625 
Q 5.8125 33.546875 5.8125 39.890625 
Q 5.8125 47.609375 11.28125 51.796875 
Q 16.75 56 26.8125 56 
Q 31.78125 56 36.171875 55.265625 
Q 40.578125 54.546875 44.28125 53.078125 
z
" id="DejaVuSans-115"/>
       <path d="M 18.3125 70.21875 
L 18.3125 54.6875 
L 36.8125 54.6875 
L 36.8125 47.703125 
L 18.3125 47.703125 
L 18.3125 18.015625 
Q 18.3125 11.328125 20.140625 9.421875 
Q 21.96875 7.515625 27.59375 7.515625 
L 36.8125 7.515625 
L 36.8125 0 
L 27.59375 0 
Q 17.1875 0 13.234375 3.875 
Q 9.28125 7.765625 9.28125 18.015625 
L 9.28125 47.703125 
L 2.6875 47.703125 
L 2.6875 54.6875 
L 9.28125 54.6875 
L 9.28125 70.21875 
z
" id="DejaVuSans-116"/>
      </defs>
      <use xlink:href="#DejaVuSans-115"/>
      <use x="52.099609" xlink:href="#DejaVuSans-101"/>
      <use x="113.623047" xlink:href="#DejaVuSans-116"/>
     </g>
    </g>
   </g>
   <g id="matplotlib.axis_2">
    <g id="ytick_1">
     <g id="line2d_3">
      <defs>
       <path d="M 0 0 
L -3.5 0 
" id="m327c771370" style="stroke:#000000;stroke-width:0.8;"/>
      </defs>
      <g>
       <use style="stroke:#000000;stroke-width:0.8;" x="54" xlink:href="#m327c771370" y="240.741439"/>
      </g>
     </g>
     <g id="text_4">
      <!-- 0 -->
      <g transform="translate(40.6375 244.540658)scale(0.1 -0.1)">
       <defs>
        <path d="M 31.78125 66.40625 
Q 24.171875 66.40625 20.328125 58.90625 
Q 16.5 51.421875 16.5 36.375 
Q 16.5 21.390625 20.328125 13.890625 
Q 24.171875 6.390625 31.78125 6.390625 
Q 39.453125 6.390625 43.28125 13.890625 
Q 47.125 21.390625 47.125 36.375 
Q 47.125 51.421875 43.28125 58.90625 
Q 39.453125 66.40625 31.78125 66.40625 
z
M 31.78125 74.21875 
Q 44.046875 74.21875 50.515625 64.515625 
Q 56.984375 54.828125 56.984375 36.375 
Q 56.984375 17.96875 50.515625 8.265625 
Q 44.046875 -1.421875 31.78125 -1.421875 
Q 19.53125 -1.421875 13.0625 8.265625 
Q 6.59375 17.96875 6.59375 36.375 
Q 6.59375 54.828125 13.0625 64.515625 
Q 19.53125 74.21875 31.78125 74.21875 
z
" id="DejaVuSans-48"/>
       </defs>
       <use xlink:href="#DejaVuSans-48"/>
      </g>
     </g>
    </g>
    <g id="ytick_2">
     <g id="line2d_4">
      <g>
       <use style="stroke:#000000;stroke-width:0.8;" x="54" xlink:href="#m327c771370" y="198.024006"/>
      </g>
     </g>
     <g id="text_5">
      <!-- 5 -->
      <g transform="translate(40.6375 201.823225)scale(0.1 -0.1)">
       <defs>
        <path d="M 10.796875 72.90625 
L 49.515625 72.90625 
L 49.515625 64.59375 
L 19.828125 64.59375 
L 19.828125 46.734375 
Q 21.96875 47.46875 24.109375 47.828125 
Q 26.265625 48.1875 28.421875 48.1875 
Q 40.625 48.1875 47.75 41.5 
Q 54.890625 34.8125 54.890625 23.390625 
Q 54.890625 11.625 47.5625 5.09375 
Q 40.234375 -1.421875 26.90625 -1.421875 
Q 22.3125 -1.421875 17.546875 -0.640625 
Q 12.796875 0.140625 7.71875 1.703125 
L 7.71875 11.625 
Q 12.109375 9.234375 16.796875 8.0625 
Q 21.484375 6.890625 26.703125 6.890625 
Q 35.15625 6.890625 40.078125 11.328125 
Q 45.015625 15.765625 45.015625 23.390625 
Q 45.015625 31 40.078125 35.4375 
Q 35.15625 39.890625 26.703125 39.890625 
Q 22.75 39.890625 18.8125 39.015625 
Q 14.890625 38.140625 10.796875 36.28125 
z
" id="DejaVuSans-53"/>
       </defs>
       <use xlink:href="#DejaVuSans-53"/>
      </g>
     </g>
    </g>
    <g id="ytick_3">
     <g id="line2d_5">
      <g>
       <use style="stroke:#000000;stroke-width:0.8;" x="54" xlink:href="#m327c771370" y="155.306573"/>
      </g>
     </g>
     <g id="text_6">
      <!-- 10 -->
      <g transform="translate(34.275 159.105792)scale(0.1 -0.1)">
       <use xlink:href="#DejaVuSans-49"/>
       <use x="63.623047" xlink:href="#DejaVuSans-48"/>
      </g>
     </g>
    </g>
    <g id="ytick_4">
     <g id="line2d_6">
      <g>
       <use style="stroke:#000000;stroke-width:0.8;" x="54" xlink:href="#m327c771370" y="112.58914"/>
      </g>
     </g>
     <g id="text_7">
      <!-- 15 -->
      <g transform="translate(34.275 116.388359)scale(0.1 -0.1)">
       <use xlink:href="#DejaVuSans-49"/>
       <use x="63.623047" xlink:href="#DejaVuSans-53"/>
      </g>
     </g>
    </g>
    <g id="ytick_5">
     <g id="line2d_7">
      <g>
       <use style="stroke:#000000;stroke-width:0.8;" x="54" xlink:href="#m327c771370" y="69.871707"/>
      </g>
     </g>
     <g id="text_8">
      <!-- 20 -->
      <g transform="translate(34.275 73.670926)scale(0.1 -0.1)">
       <defs>
        <path d="M 19.1875 8.296875 
L 53.609375 8.296875 
L 53.609375 0 
L 7.328125 0 
L 7.328125 8.296875 
Q 12.9375 14.109375 22.625 23.890625 
Q 32.328125 33.6875 34.8125 36.53125 
Q 39.546875 41.84375 41.421875 45.53125 
Q 43.3125 49.21875 43.3125 52.78125 
Q 43.3125 58.59375 39.234375 62.25 
Q 35.15625 65.921875 28.609375 65.921875 
Q 23.96875 65.921875 18.8125 64.3125 
Q 13.671875 62.703125 7.8125 59.421875 
L 7.8125 69.390625 
Q 13.765625 71.78125 18.9375 73 
Q 24.125 74.21875 28.421875 74.21875 
Q 39.75 74.21875 46.484375 68.546875 
Q 53.21875 62.890625 53.21875 53.421875 
Q 53.21875 48.921875 51.53125 44.890625 
Q 49.859375 40.875 45.40625 35.40625 
Q 44.1875 33.984375 37.640625 27.21875 
Q 31.109375 20.453125 19.1875 8.296875 
z
" id="DejaVuSans-50"/>
       </defs>
       <use xlink:href="#DejaVuSans-50"/>
       <use x="63.623047" xlink:href="#DejaVuSans-48"/>
      </g>
     </g>
    </g>
    <g id="text_9">
     <!-- value -->
     <g transform="translate(28.195312 156.937813)rotate(-90)scale(0.1 -0.1)">
      <defs>
       <path d="M 2.984375 54.6875 
L 12.5 54.6875 
L 29.59375 8.796875 
L 46.6875 54.6875 
L 56.203125 54.6875 
L 35.6875 0 
L 23.484375 0 
z
" id="DejaVuSans-118"/>
       <path d="M 34.28125 27.484375 
Q 23.390625 27.484375 19.1875 25 
Q 14.984375 22.515625 14.984375 16.5 
Q 14.984375 11.71875 18.140625 8.90625 
Q 21.296875 6.109375 26.703125 6.109375 
Q 34.1875 6.109375 38.703125 11.40625 
Q 43.21875 16.703125 43.21875 25.484375 
L 43.21875 27.484375 
z
M 52.203125 31.203125 
L 52.203125 0 
L 43.21875 0 
L 43.21875 8.296875 
Q 40.140625 3.328125 35.546875 0.953125 
Q 30.953125 -1.421875 24.3125 -1.421875 
Q 15.921875 -1.421875 10.953125 3.296875 
Q 6 8.015625 6 15.921875 
Q 6 25.140625 12.171875 29.828125 
Q 18.359375 34.515625 30.609375 34.515625 
L 43.21875 34.515625 
L 43.21875 35.40625 
Q 43.21875 41.609375 39.140625 45 
Q 35.0625 48.390625 27.6875 48.390625 
Q 23 48.390625 18.546875 47.265625 
Q 14.109375 46.140625 10.015625 43.890625 
L 10.015625 52.203125 
Q 14.9375 54.109375 19.578125 55.046875 
Q 24.21875 56 28.609375 56 
Q 40.484375 56 46.34375 49.84375 
Q 52.203125 43.703125 52.203125 31.203125 
z
" id="DejaVuSans-97"/>
       <path d="M 9.421875 75.984375 
L 18.40625 75.984375 
L 18.40625 0 
L 9.421875 0 
z
" id="DejaVuSans-108"/>
       <path d="M 8.5 21.578125 
L 8.5 54.6875 
L 17.484375 54.6875 
L 17.484375 21.921875 
Q 17.484375 14.15625 20.5 10.265625 
Q 23.53125 6.390625 29.59375 6.390625 
Q 36.859375 6.390625 41.078125 11.03125 
Q 45.3125 15.671875 45.3125 23.6875 
L 45.3125 54.6875 
L 54.296875 54.6875 
L 54.296875 0 
L 45.3125 0 
L 45.3125 8.40625 
Q 42.046875 3.421875 37.71875 1 
Q 33.40625 -1.421875 27.6875 -1.421875 
Q 18.265625 -1.421875 13.375 4.4375 
Q 8.5 10.296875 8.5 21.578125 
z
M 31.109375 56 
z
" id="DejaVuSans-117"/>
      </defs>
      <use xlink:href="#DejaVuSans-118"/>
      <use x="59.179688" xlink:href="#DejaVuSans-97"/>
      <use x="120.458984" xlink:href="#DejaVuSans-108"/>
      <use x="148.242188" xlink:href="#DejaVuSans-117"/>
      <use x="211.621094" xlink:href="#DejaVuSans-101"/>
     </g>
    </g>
   </g>
   <g id="line2d_8">
    <path clip-path="url(#p5cb69ff2ee)" d="M 104.22 240.17742 
L 104.22 95.180235 
" style="fill:none;stroke:#3f3f3f;stroke-linecap:square;stroke-width:1.5;"/>
   </g>
   <g id="line2d_9">
    <path clip-path="url(#p5cb69ff2ee)" d="M 104.22 193.973357 
L 104.22 154.201414 
" style="fill:none;stroke:#3f3f3f;stroke-linecap:square;stroke-width:4.5;"/>
   </g>
   <g id="line2d_10">
    <path clip-path="url(#p5cb69ff2ee)" d="M 338.58 242.116364 
L 338.58 96.749434 
" style="fill:none;stroke:#3f3f3f;stroke-linecap:square;stroke-width:1.5;"/>
   </g>
   <g id="line2d_11">
    <path clip-path="url(#p5cb69ff2ee)" d="M 338.58 197.89847 
L 338.58 157.341678 
" style="fill:none;stroke:#3f3f3f;stroke-linecap:square;stroke-width:4.5;"/>
   </g>
   <g id="patch_5">
    <path d="M 54 252 
L 54 34.56 
" style="fill:none;stroke:#000000;stroke-linecap:square;stroke-linejoin:miter;stroke-width:0.8;"/>
   </g>
   <g id="patch_6">
    <path d="M 388.8 252 
L 388.8 34.56 
" style="fill:none;stroke:#000000;stroke-linecap:square;stroke-linejoin:miter;stroke-width:0.8;"/>
   </g>
   <g id="patch_7">
    <path d="M 54 252 
L 388.8 252 
" style="fill:none;stroke:#000000;stroke-linecap:square;stroke-linejoin:miter;stroke-width:0.8;"/>
   </g>
   <g id="patch_8">
    <path d="M 54 34.56 
L 388.8 34.56 
" style="fill:none;stroke:#000000;stroke-linecap:square;stroke-linejoin:miter;stroke-width:0.8;"/>
   </g>
   <g id="PathCollection_1">
    <defs>
     <path d="M 0 1.5 
C 0.397805 1.5 0.77937 1.341951 1.06066 1.06066 
C 1.341951 0.77937 1.5 0.397805 1.5 0 
C 1.5 -0.397805 1.341951 -0.77937 1.06066 -1.06066 
C 0.77937 -1.341951 0.397805 -1.5 0 -1.5 
C -0.397805 -1.5 -0.77937 -1.341951 -1.06066 -1.06066 
C -1.341951 -0.77937 -1.5 -0.397805 -1.5 0 
C -1.5 0.397805 -1.341951 0.77937 -1.06066 1.06066 
C -0.77937 1.341951 -0.397805 1.5 0 1.5 
z
" id="m7870b2bed6" style="stroke:#3f3f3f;"/>
    </defs>
    <g clip-path="url(#p5cb69ff2ee)">
     <use style="fill:#ffffff;stroke:#3f3f3f;" x="104.22" xlink:href="#m7870b2bed6" y="175.376706"/>
    </g>
   </g>
   <g id="PathCollection_2">
    <g clip-path="url(#p5cb69ff2ee)">
     <use style="fill:#ffffff;stroke:#3f3f3f;" x="338.58" xlink:href="#m7870b2bed6" y="178.293307"/>
    </g>
   </g>
   <g id="legend_1">
    <g id="patch_9">
     <path d="M 305.18125 87.150625 
L 381.8 87.150625 
Q 383.8 87.150625 383.8 85.150625 
L 383.8 41.56 
Q 383.8 39.56 381.8 39.56 
L 305.18125 39.56 
Q 303.18125 39.56 303.18125 41.56 
L 303.18125 85.150625 
Q 303.18125 87.150625 305.18125 87.150625 
z
" style="fill:#ffffff;opacity:0.8;stroke:#cccccc;stroke-linejoin:miter;"/>
    </g>
    <g id="text_10">
     <!-- set -->
     <g transform="translate(335.849219 51.158437)scale(0.1 -0.1)">
      <use xlink:href="#DejaVuSans-115"/>
      <use x="52.099609" xlink:href="#DejaVuSans-101"/>
      <use x="113.623047" xlink:href="#DejaVuSans-116"/>
     </g>
    </g>
    <g id="patch_10">
     <path d="M 307.18125 65.836562 
L 327.18125 65.836562 
L 327.18125 58.836562 
L 307.18125 58.836562 
z
" style="fill:#3274a1;stroke:#3f3f3f;stroke-linejoin:miter;stroke-width:0.75;"/>
    </g>
    <g id="text_11">
     <!-- Z_1_zero -->
     <g transform="translate(335.18125 65.836562)scale(0.1 -0.1)">
      <use xlink:href="#DejaVuSans-90"/>
      <use x="68.505859" xlink:href="#DejaVuSans-95"/>
      <use x="118.505859" xlink:href="#DejaVuSans-49"/>
      <use x="182.128906" xlink:href="#DejaVuSans-95"/>
      <use x="232.128906" xlink:href="#DejaVuSans-122"/>
      <use x="284.619141" xlink:href="#DejaVuSans-101"/>
      <use x="346.142578" xlink:href="#DejaVuSans-114"/>
      <use x="385.005859" xlink:href="#DejaVuSans-111"/>
     </g>
    </g>
    <g id="patch_11">
     <path d="M 307.18125 80.792812 
L 327.18125 80.792812 
L 327.18125 73.792812 
L 307.18125 73.792812 
z
" style="fill:#e1812c;stroke:#3f3f3f;stroke-linejoin:miter;stroke-width:0.75;"/>
    </g>
    <g id="text_12">
     <!-- Z_3_zero -->
     <g transform="translate(335.18125 80.792812)scale(0.1 -0.1)">
      <use xlink:href="#DejaVuSans-90"/>
      <use x="68.505859" xlink:href="#DejaVuSans-95"/>
      <use x="118.505859" xlink:href="#DejaVuSans-51"/>
      <use x="182.128906" xlink:href="#DejaVuSans-95"/>
      <use x="232.128906" xlink:href="#DejaVuSans-122"/>
      <use x="284.619141" xlink:href="#DejaVuSans-101"/>
      <use x="346.142578" xlink:href="#DejaVuSans-114"/>
      <use x="385.005859" xlink:href="#DejaVuSans-111"/>
     </g>
    </g>
   </g>
  </g>
 </g>
 <defs>
  <clipPath id="p5cb69ff2ee">
   <rect height="217.44" width="334.8" x="54" y="34.56"/>
  </clipPath>
 </defs>
</svg>
