<?xml version="1.0" encoding="utf-8" standalone="no"?>
<!DOCTYPE svg PUBLIC "-//W3C//DTD SVG 1.1//EN"
  "http://www.w3.org/Graphics/SVG/1.1/DTD/svg11.dtd">
<!-- Created with matplotlib (https://matplotlib.org/) -->
<svg height="288pt" version="1.1" viewBox="0 0 432 288" width="432pt" xmlns="http://www.w3.org/2000/svg" xmlns:xlink="http://www.w3.org/1999/xlink">
 <metadata>
  <rdf:RDF xmlns:cc="http://creativecommons.org/ns#" xmlns:dc="http://purl.org/dc/elements/1.1/" xmlns:rdf="http://www.w3.org/1999/02/22-rdf-syntax-ns#">
   <cc:Work>
    <dc:type rdf:resource="http://purl.org/dc/dcmitype/StillImage"/>
    <dc:date>2022-04-14T11:50:03.742295</dc:date>
    <dc:format>image/svg+xml</dc:format>
    <dc:creator>
     <cc:Agent>
      <dc:title>Matplotlib v3.3.4, https://matplotlib.org/</dc:title>
     </cc:Agent>
    </dc:creator>
   </cc:Work>
  </rdf:RDF>
 </metadata>
 <defs>
  <style type="text/css">*{stroke-linecap:butt;stroke-linejoin:round;}</style>
 </defs>
 <g id="figure_1">
  <g id="patch_1">
   <path d="M 0 288 
L 432 288 
L 432 0 
L 0 0 
z
" style="fill:#ffffff;"/>
  </g>
  <g id="axes_1">
   <g id="patch_2">
    <path d="M 54 252 
L 388.8 252 
L 388.8 34.56 
L 54 34.56 
z
" style="fill:#ffffff;"/>
   </g>
   <g id="PolyCollection_1">
    <defs>
     <path d="M 89.788571 -45.883636 
L 70.291429 -45.883636 
L 65.16 -47.880331 
L 65.826436 -49.877025 
L 69.161942 -51.873719 
L 72.163631 -53.870413 
L 74.411036 -55.867107 
L 76.172908 -57.863802 
L 77.390767 -59.860496 
L 78.179229 -61.85719 
L 78.716762 -63.853884 
L 79.142638 -65.850579 
L 79.434603 -67.847273 
L 79.610925 -69.843967 
L 79.726286 -71.840661 
L 79.781209 -73.837355 
L 79.817625 -75.83405 
L 79.843151 -77.830744 
L 79.840682 -79.827438 
L 79.849679 -81.824132 
L 79.891692 -83.820826 
L 79.949417 -85.817521 
L 79.987769 -87.814215 
L 79.982378 -89.810909 
L 79.966437 -91.807603 
L 79.974302 -93.804298 
L 79.981571 -95.800992 
L 79.986752 -97.797686 
L 79.998203 -99.79438 
L 80.003666 -101.791074 
L 80.009179 -103.787769 
L 80.018841 -105.784463 
L 80.023207 -107.781157 
L 80.018017 -109.777851 
L 80.018549 -111.774545 
L 80.016355 -113.77124 
L 80.001102 -115.767934 
L 80.006799 -117.764628 
L 80.027924 -119.761322 
L 80.033914 -121.758017 
L 80.023774 -123.754711 
L 80.019185 -125.751405 
L 80.02989 -127.748099 
L 80.034381 -129.744793 
L 80.029002 -131.741488 
L 80.025304 -133.738182 
L 80.022069 -135.734876 
L 80.021655 -137.73157 
L 80.029754 -139.728264 
L 80.037484 -141.724959 
L 80.039759 -143.721653 
L 80.039992 -145.718347 
L 80.04 -147.715041 
L 80.04 -149.711736 
L 80.04 -151.70843 
L 80.04 -153.705124 
L 80.039995 -155.701818 
L 80.039844 -157.698512 
L 80.038207 -159.695207 
L 80.032665 -161.691901 
L 80.029344 -163.688595 
L 80.03449 -165.685289 
L 80.038682 -167.681983 
L 80.037155 -169.678678 
L 80.031162 -171.675372 
L 80.030023 -173.672066 
L 80.035999 -175.66876 
L 80.03943 -177.665455 
L 80.039971 -179.662149 
L 80.039999 -181.658843 
L 80.04 -183.655537 
L 80.04 -185.652231 
L 80.04 -187.648926 
L 80.04 -189.64562 
L 80.04 -191.642314 
L 80.04 -193.639008 
L 80.04 -195.635702 
L 80.04 -197.632397 
L 80.04 -199.629091 
L 80.04 -201.625785 
L 80.04 -203.622479 
L 80.04 -205.619174 
L 80.039991 -207.615868 
L 80.039761 -209.612562 
L 80.037641 -211.609256 
L 80.031724 -213.60595 
L 80.029688 -215.602645 
L 80.035436 -217.599339 
L 80.039283 -219.596033 
L 80.03996 -221.592727 
L 80.039999 -223.589421 
L 80.04 -225.586116 
L 80.04 -227.58281 
L 80.04 -229.579504 
L 80.04 -231.576198 
L 80.04 -233.572893 
L 80.039997 -235.569587 
L 80.039898 -237.566281 
L 80.038642 -239.562975 
L 80.033586 -241.559669 
L 80.029237 -243.556364 
L 80.050763 -243.556364 
L 80.050763 -243.556364 
L 80.046414 -241.559669 
L 80.041358 -239.562975 
L 80.040102 -237.566281 
L 80.040003 -235.569587 
L 80.04 -233.572893 
L 80.04 -231.576198 
L 80.04 -229.579504 
L 80.04 -227.58281 
L 80.04 -225.586116 
L 80.040001 -223.589421 
L 80.04004 -221.592727 
L 80.040717 -219.596033 
L 80.044564 -217.599339 
L 80.050312 -215.602645 
L 80.048276 -213.60595 
L 80.042359 -211.609256 
L 80.040239 -209.612562 
L 80.040009 -207.615868 
L 80.04 -205.619174 
L 80.04 -203.622479 
L 80.04 -201.625785 
L 80.04 -199.629091 
L 80.04 -197.632397 
L 80.04 -195.635702 
L 80.04 -193.639008 
L 80.04 -191.642314 
L 80.04 -189.64562 
L 80.04 -187.648926 
L 80.04 -185.652231 
L 80.04 -183.655537 
L 80.040001 -181.658843 
L 80.040029 -179.662149 
L 80.04057 -177.665455 
L 80.044001 -175.66876 
L 80.049977 -173.672066 
L 80.048838 -171.675372 
L 80.042845 -169.678678 
L 80.041318 -167.681983 
L 80.04551 -165.685289 
L 80.050656 -163.688595 
L 80.047335 -161.691901 
L 80.041793 -159.695207 
L 80.040156 -157.698512 
L 80.040005 -155.701818 
L 80.04 -153.705124 
L 80.04 -151.70843 
L 80.04 -149.711736 
L 80.04 -147.715041 
L 80.040008 -145.718347 
L 80.040241 -143.721653 
L 80.042516 -141.724959 
L 80.050246 -139.728264 
L 80.058345 -137.73157 
L 80.057931 -135.734876 
L 80.054696 -133.738182 
L 80.050998 -131.741488 
L 80.045619 -129.744793 
L 80.05011 -127.748099 
L 80.060815 -125.751405 
L 80.056226 -123.754711 
L 80.046086 -121.758017 
L 80.052076 -119.761322 
L 80.073201 -117.764628 
L 80.078898 -115.767934 
L 80.063645 -113.77124 
L 80.061451 -111.774545 
L 80.061983 -109.777851 
L 80.056793 -107.781157 
L 80.061159 -105.784463 
L 80.070821 -103.787769 
L 80.076334 -101.791074 
L 80.081797 -99.79438 
L 80.093248 -97.797686 
L 80.098429 -95.800992 
L 80.105698 -93.804298 
L 80.113563 -91.807603 
L 80.097622 -89.810909 
L 80.092231 -87.814215 
L 80.130583 -85.817521 
L 80.188308 -83.820826 
L 80.230321 -81.824132 
L 80.239318 -79.827438 
L 80.236849 -77.830744 
L 80.262375 -75.83405 
L 80.298791 -73.837355 
L 80.353714 -71.840661 
L 80.469075 -69.843967 
L 80.645397 -67.847273 
L 80.937362 -65.850579 
L 81.363238 -63.853884 
L 81.900771 -61.85719 
L 82.689233 -59.860496 
L 83.907092 -57.863802 
L 85.668964 -55.867107 
L 87.916369 -53.870413 
L 90.918058 -51.873719 
L 94.253564 -49.877025 
L 94.92 -47.880331 
L 89.788571 -45.883636 
z
" id="madbed9911e" style="stroke:#3d3d3d;stroke-width:1.5;"/>
    </defs>
    <g clip-path="url(#p56f0db443f)">
     <use style="fill:#3274a1;stroke:#3d3d3d;stroke-width:1.5;" x="0" xlink:href="#madbed9911e" y="288"/>
    </g>
   </g>
   <g id="PolyCollection_2">
    <defs>
     <path d="M 232.173239 -45.899196 
L 210.626761 -45.899196 
L 207.423979 -47.64694 
L 206.52 -49.394684 
L 207.800344 -51.142428 
L 210.223909 -52.890171 
L 212.820644 -54.637915 
L 215.089464 -56.385659 
L 216.871405 -58.133403 
L 218.16098 -59.881146 
L 219.032885 -61.62889 
L 219.6167 -63.376634 
L 220.039257 -65.124378 
L 220.371659 -66.872121 
L 220.635287 -68.619865 
L 220.833861 -70.367609 
L 220.967823 -72.115353 
L 221.041974 -73.863096 
L 221.077265 -75.61084 
L 221.105674 -77.358584 
L 221.142185 -79.106328 
L 221.173359 -80.854072 
L 221.185062 -82.601815 
L 221.186185 -84.349559 
L 221.194375 -86.097303 
L 221.213815 -87.845047 
L 221.235523 -89.59279 
L 221.249639 -91.340534 
L 221.25353 -93.088278 
L 221.253097 -94.836022 
L 221.2583 -96.583765 
L 221.276596 -98.331509 
L 221.30722 -100.079253 
L 221.339071 -101.826997 
L 221.358724 -103.57474 
L 221.362857 -105.322484 
L 221.359226 -107.070228 
L 221.356574 -108.817972 
L 221.356977 -110.565715 
L 221.356159 -112.313459 
L 221.350109 -114.061203 
L 221.342235 -115.808947 
L 221.340375 -117.55669 
L 221.346892 -119.304434 
L 221.358082 -121.052178 
L 221.37066 -122.799922 
L 221.382291 -124.547665 
L 221.389486 -126.295409 
L 221.389385 -128.043153 
L 221.382315 -129.790897 
L 221.37219 -131.53864 
L 221.364209 -133.286384 
L 221.361557 -135.034128 
L 221.364967 -136.781872 
L 221.37358 -138.529616 
L 221.384267 -140.277359 
L 221.392894 -142.025103 
L 221.397624 -143.772847 
L 221.39942 -145.520591 
L 221.399897 -147.268334 
L 221.399987 -149.016078 
L 221.399999 -150.763822 
L 221.4 -152.511566 
L 221.4 -154.259309 
L 221.4 -156.007053 
L 221.399999 -157.754797 
L 221.39999 -159.502541 
L 221.399919 -161.250284 
L 221.399526 -162.998028 
L 221.398 -164.745772 
L 221.393895 -166.493516 
L 221.386533 -168.241259 
L 221.378528 -169.989003 
L 221.375254 -171.736747 
L 221.379386 -173.484491 
L 221.387588 -175.232234 
L 221.394598 -176.979978 
L 221.3983 -178.727722 
L 221.399602 -180.475466 
L 221.399845 -182.223209 
L 221.399471 -183.970953 
L 221.39784 -185.718697 
L 221.393537 -187.466441 
L 221.386021 -189.214184 
L 221.378143 -190.961928 
L 221.375299 -192.709672 
L 221.379822 -194.457416 
L 221.388087 -196.20516 
L 221.394916 -197.952903 
L 221.398432 -199.700647 
L 221.39965 -201.448391 
L 221.399944 -203.196135 
L 221.399993 -204.943878 
L 221.399991 -206.691622 
L 221.399928 -208.439366 
L 221.399572 -210.18711 
L 221.398155 -211.934853 
L 221.394254 -213.682597 
L 221.387063 -215.430341 
L 221.378948 -217.178085 
L 221.375238 -218.925828 
L 221.424762 -218.925828 
L 221.424762 -218.925828 
L 221.421052 -217.178085 
L 221.412937 -215.430341 
L 221.405746 -213.682597 
L 221.401845 -211.934853 
L 221.400428 -210.18711 
L 221.400072 -208.439366 
L 221.400009 -206.691622 
L 221.400007 -204.943878 
L 221.400056 -203.196135 
L 221.40035 -201.448391 
L 221.401568 -199.700647 
L 221.405084 -197.952903 
L 221.411913 -196.20516 
L 221.420178 -194.457416 
L 221.424701 -192.709672 
L 221.421857 -190.961928 
L 221.413979 -189.214184 
L 221.406463 -187.466441 
L 221.40216 -185.718697 
L 221.400529 -183.970953 
L 221.400155 -182.223209 
L 221.400398 -180.475466 
L 221.4017 -178.727722 
L 221.405402 -176.979978 
L 221.412412 -175.232234 
L 221.420614 -173.484491 
L 221.424746 -171.736747 
L 221.421472 -169.989003 
L 221.413467 -168.241259 
L 221.406105 -166.493516 
L 221.402 -164.745772 
L 221.400474 -162.998028 
L 221.400081 -161.250284 
L 221.40001 -159.502541 
L 221.400001 -157.754797 
L 221.4 -156.007053 
L 221.4 -154.259309 
L 221.4 -152.511566 
L 221.400001 -150.763822 
L 221.400013 -149.016078 
L 221.400103 -147.268334 
L 221.40058 -145.520591 
L 221.402376 -143.772847 
L 221.407106 -142.025103 
L 221.415733 -140.277359 
L 221.42642 -138.529616 
L 221.435033 -136.781872 
L 221.438443 -135.034128 
L 221.435791 -133.286384 
L 221.42781 -131.53864 
L 221.417685 -129.790897 
L 221.410615 -128.043153 
L 221.410514 -126.295409 
L 221.417709 -124.547665 
L 221.42934 -122.799922 
L 221.441918 -121.052178 
L 221.453108 -119.304434 
L 221.459625 -117.55669 
L 221.457765 -115.808947 
L 221.449891 -114.061203 
L 221.443841 -112.313459 
L 221.443023 -110.565715 
L 221.443426 -108.817972 
L 221.440774 -107.070228 
L 221.437143 -105.322484 
L 221.441276 -103.57474 
L 221.460929 -101.826997 
L 221.49278 -100.079253 
L 221.523404 -98.331509 
L 221.5417 -96.583765 
L 221.546903 -94.836022 
L 221.54647 -93.088278 
L 221.550361 -91.340534 
L 221.564477 -89.59279 
L 221.586185 -87.845047 
L 221.605625 -86.097303 
L 221.613815 -84.349559 
L 221.614938 -82.601815 
L 221.626641 -80.854072 
L 221.657815 -79.106328 
L 221.694326 -77.358584 
L 221.722735 -75.61084 
L 221.758026 -73.863096 
L 221.832177 -72.115353 
L 221.966139 -70.367609 
L 222.164713 -68.619865 
L 222.428341 -66.872121 
L 222.760743 -65.124378 
L 223.1833 -63.376634 
L 223.767115 -61.62889 
L 224.63902 -59.881146 
L 225.928595 -58.133403 
L 227.710536 -56.385659 
L 229.979356 -54.637915 
L 232.576091 -52.890171 
L 234.999656 -51.142428 
L 236.28 -49.394684 
L 235.376021 -47.64694 
L 232.173239 -45.899196 
z
" id="m72a8474b3a" style="stroke:#3d3d3d;stroke-width:1.5;"/>
    </defs>
    <g clip-path="url(#p56f0db443f)">
     <use style="fill:#e1812c;stroke:#3d3d3d;stroke-width:1.5;" x="0" xlink:href="#m72a8474b3a" y="288"/>
    </g>
   </g>
   <g id="PolyCollection_3">
    <defs>
     <path d="M 373.167877 -45.901401 
L 352.352123 -45.901401 
L 348.726372 -47.642703 
L 347.88 -49.384004 
L 349.49246 -51.125306 
L 352.072924 -52.866608 
L 354.518587 -54.607909 
L 356.536427 -56.349211 
L 358.180386 -58.090512 
L 359.443383 -59.831814 
L 360.321038 -61.573116 
L 360.934177 -63.314417 
L 361.407769 -65.055719 
L 361.768005 -66.797021 
L 362.002861 -68.538322 
L 362.130448 -70.279624 
L 362.203129 -72.020926 
L 362.272644 -73.762227 
L 362.350096 -75.503529 
L 362.420416 -77.244831 
L 362.49079 -78.986132 
L 362.573923 -80.727434 
L 362.647927 -82.468735 
L 362.684784 -84.210037 
L 362.686541 -85.951339 
L 362.673199 -87.69264 
L 362.663289 -89.433942 
L 362.666985 -91.175244 
L 362.6826 -92.916545 
L 362.700685 -94.657847 
L 362.714099 -96.399149 
L 362.721256 -98.14045 
L 362.725067 -99.881752 
L 362.730328 -101.623054 
L 362.735596 -103.364355 
L 362.73529 -105.105657 
L 362.732228 -106.846958 
L 362.735133 -108.58826 
L 362.744637 -110.329562 
L 362.753671 -112.070863 
L 362.758273 -113.812165 
L 362.759688 -115.553467 
L 362.759963 -117.294768 
L 362.759997 -119.03607 
L 362.76 -120.777372 
L 362.76 -122.518673 
L 362.76 -124.259975 
L 362.759998 -126.001277 
L 362.759976 -127.742578 
L 362.75978 -129.48388 
L 362.758617 -131.225181 
L 362.754129 -132.966483 
L 362.742977 -134.707785 
L 362.725894 -136.449086 
L 362.712265 -138.190388 
L 362.713019 -139.93169 
L 362.727495 -141.672991 
L 362.744304 -143.414293 
L 362.754768 -145.155595 
L 362.75881 -146.896896 
L 362.759817 -148.638198 
L 362.75998 -150.3795 
L 362.759986 -152.120801 
L 362.759872 -153.862103 
L 362.759149 -155.603404 
L 362.756253 -157.344706 
L 362.749066 -159.086008 
L 362.738715 -160.827309 
L 362.731557 -162.568611 
L 362.731113 -164.309913 
L 362.732009 -166.051214 
L 362.730749 -167.792516 
L 362.73296 -169.533818 
L 362.7418 -171.275119 
L 362.751698 -173.016421 
L 362.757481 -174.757723 
L 362.759494 -176.499024 
L 362.759933 -178.240326 
L 362.759994 -179.981627 
L 362.76 -181.722929 
L 362.76 -183.464231 
L 362.76 -185.205532 
L 362.76 -186.946834 
L 362.76 -188.688136 
L 362.76 -190.429437 
L 362.76 -192.170739 
L 362.76 -193.912041 
L 362.76 -195.653342 
L 362.76 -197.394644 
L 362.76 -199.135946 
L 362.76 -200.877247 
L 362.76 -202.618549 
L 362.76 -204.359851 
L 362.759999 -206.101152 
L 362.759984 -207.842454 
L 362.759848 -209.583755 
L 362.759024 -211.325057 
L 362.755848 -213.066359 
L 362.748323 -214.80766 
L 362.738283 -216.548962 
L 362.733294 -218.290264 
L 362.786706 -218.290264 
L 362.786706 -218.290264 
L 362.781717 -216.548962 
L 362.771677 -214.80766 
L 362.764152 -213.066359 
L 362.760976 -211.325057 
L 362.760152 -209.583755 
L 362.760016 -207.842454 
L 362.760001 -206.101152 
L 362.76 -204.359851 
L 362.76 -202.618549 
L 362.76 -200.877247 
L 362.76 -199.135946 
L 362.76 -197.394644 
L 362.76 -195.653342 
L 362.76 -193.912041 
L 362.76 -192.170739 
L 362.76 -190.429437 
L 362.76 -188.688136 
L 362.76 -186.946834 
L 362.76 -185.205532 
L 362.76 -183.464231 
L 362.76 -181.722929 
L 362.760006 -179.981627 
L 362.760067 -178.240326 
L 362.760506 -176.499024 
L 362.762519 -174.757723 
L 362.768302 -173.016421 
L 362.7782 -171.275119 
L 362.78704 -169.533818 
L 362.789251 -167.792516 
L 362.787991 -166.051214 
L 362.788887 -164.309913 
L 362.788443 -162.568611 
L 362.781285 -160.827309 
L 362.770934 -159.086008 
L 362.763747 -157.344706 
L 362.760851 -155.603404 
L 362.760128 -153.862103 
L 362.760014 -152.120801 
L 362.76002 -150.3795 
L 362.760183 -148.638198 
L 362.76119 -146.896896 
L 362.765232 -145.155595 
L 362.775696 -143.414293 
L 362.792505 -141.672991 
L 362.806981 -139.93169 
L 362.807735 -138.190388 
L 362.794106 -136.449086 
L 362.777023 -134.707785 
L 362.765871 -132.966483 
L 362.761383 -131.225181 
L 362.76022 -129.48388 
L 362.760024 -127.742578 
L 362.760002 -126.001277 
L 362.76 -124.259975 
L 362.76 -122.518673 
L 362.76 -120.777372 
L 362.760003 -119.03607 
L 362.760037 -117.294768 
L 362.760312 -115.553467 
L 362.761727 -113.812165 
L 362.766329 -112.070863 
L 362.775363 -110.329562 
L 362.784867 -108.58826 
L 362.787772 -106.846958 
L 362.78471 -105.105657 
L 362.784404 -103.364355 
L 362.789672 -101.623054 
L 362.794933 -99.881752 
L 362.798744 -98.14045 
L 362.805901 -96.399149 
L 362.819315 -94.657847 
L 362.8374 -92.916545 
L 362.853015 -91.175244 
L 362.856711 -89.433942 
L 362.846801 -87.69264 
L 362.833459 -85.951339 
L 362.835216 -84.210037 
L 362.872073 -82.468735 
L 362.946077 -80.727434 
L 363.02921 -78.986132 
L 363.099584 -77.244831 
L 363.169904 -75.503529 
L 363.247356 -73.762227 
L 363.316871 -72.020926 
L 363.389552 -70.279624 
L 363.517139 -68.538322 
L 363.751995 -66.797021 
L 364.112231 -65.055719 
L 364.585823 -63.314417 
L 365.198962 -61.573116 
L 366.076617 -59.831814 
L 367.339614 -58.090512 
L 368.983573 -56.349211 
L 371.001413 -54.607909 
L 373.447076 -52.866608 
L 376.02754 -51.125306 
L 377.64 -49.384004 
L 376.793628 -47.642703 
L 373.167877 -45.901401 
z
" id="m79b50407a4" style="stroke:#3d3d3d;stroke-width:1.5;"/>
    </defs>
    <g clip-path="url(#p56f0db443f)">
     <use style="fill:#3a923a;stroke:#3d3d3d;stroke-width:1.5;" x="0" xlink:href="#m79b50407a4" y="288"/>
    </g>
   </g>
   <g id="patch_3">
    <path clip-path="url(#p56f0db443f)" d="M 109.8 242.116703 
L 109.8 242.116703 
L 109.8 242.116703 
L 109.8 242.116703 
z
" style="fill:#3274a1;stroke:#3d3d3d;stroke-linejoin:miter;stroke-width:0.75;"/>
   </g>
   <g id="patch_4">
    <path clip-path="url(#p56f0db443f)" d="M 109.8 242.116703 
L 109.8 242.116703 
L 109.8 242.116703 
L 109.8 242.116703 
z
" style="fill:#e1812c;stroke:#3d3d3d;stroke-linejoin:miter;stroke-width:0.75;"/>
   </g>
   <g id="patch_5">
    <path clip-path="url(#p56f0db443f)" d="M 109.8 242.116703 
L 109.8 242.116703 
L 109.8 242.116703 
L 109.8 242.116703 
z
" style="fill:#3a923a;stroke:#3d3d3d;stroke-linejoin:miter;stroke-width:0.75;"/>
   </g>
   <g id="matplotlib.axis_1">
    <g id="xtick_1">
     <g id="line2d_1">
      <defs>
       <path d="M 0 0 
L 0 3.5 
" id="m344ccfa1ed" style="stroke:#000000;stroke-width:0.8;"/>
      </defs>
      <g>
       <use style="stroke:#000000;stroke-width:0.8;" x="109.8" xlink:href="#m344ccfa1ed" y="252"/>
      </g>
     </g>
     <g id="text_1">
      <!-- train -->
      <g transform="translate(98.1625 266.598437)scale(0.1 -0.1)">
       <defs>
        <path d="M 18.3125 70.21875 
L 18.3125 54.6875 
L 36.8125 54.6875 
L 36.8125 47.703125 
L 18.3125 47.703125 
L 18.3125 18.015625 
Q 18.3125 11.328125 20.140625 9.421875 
Q 21.96875 7.515625 27.59375 7.515625 
L 36.8125 7.515625 
L 36.8125 0 
L 27.59375 0 
Q 17.1875 0 13.234375 3.875 
Q 9.28125 7.765625 9.28125 18.015625 
L 9.28125 47.703125 
L 2.6875 47.703125 
L 2.6875 54.6875 
L 9.28125 54.6875 
L 9.28125 70.21875 
z
" id="DejaVuSans-116"/>
        <path d="M 41.109375 46.296875 
Q 39.59375 47.171875 37.8125 47.578125 
Q 36.03125 48 33.890625 48 
Q 26.265625 48 22.1875 43.046875 
Q 18.109375 38.09375 18.109375 28.8125 
L 18.109375 0 
L 9.078125 0 
L 9.078125 54.6875 
L 18.109375 54.6875 
L 18.109375 46.1875 
Q 20.953125 51.171875 25.484375 53.578125 
Q 30.03125 56 36.53125 56 
Q 37.453125 56 38.578125 55.875 
Q 39.703125 55.765625 41.0625 55.515625 
z
" id="DejaVuSans-114"/>
        <path d="M 34.28125 27.484375 
Q 23.390625 27.484375 19.1875 25 
Q 14.984375 22.515625 14.984375 16.5 
Q 14.984375 11.71875 18.140625 8.90625 
Q 21.296875 6.109375 26.703125 6.109375 
Q 34.1875 6.109375 38.703125 11.40625 
Q 43.21875 16.703125 43.21875 25.484375 
L 43.21875 27.484375 
z
M 52.203125 31.203125 
L 52.203125 0 
L 43.21875 0 
L 43.21875 8.296875 
Q 40.140625 3.328125 35.546875 0.953125 
Q 30.953125 -1.421875 24.3125 -1.421875 
Q 15.921875 -1.421875 10.953125 3.296875 
Q 6 8.015625 6 15.921875 
Q 6 25.140625 12.171875 29.828125 
Q 18.359375 34.515625 30.609375 34.515625 
L 43.21875 34.515625 
L 43.21875 35.40625 
Q 43.21875 41.609375 39.140625 45 
Q 35.0625 48.390625 27.6875 48.390625 
Q 23 48.390625 18.546875 47.265625 
Q 14.109375 46.140625 10.015625 43.890625 
L 10.015625 52.203125 
Q 14.9375 54.109375 19.578125 55.046875 
Q 24.21875 56 28.609375 56 
Q 40.484375 56 46.34375 49.84375 
Q 52.203125 43.703125 52.203125 31.203125 
z
" id="DejaVuSans-97"/>
        <path d="M 9.421875 54.6875 
L 18.40625 54.6875 
L 18.40625 0 
L 9.421875 0 
z
M 9.421875 75.984375 
L 18.40625 75.984375 
L 18.40625 64.59375 
L 9.421875 64.59375 
z
" id="DejaVuSans-105"/>
        <path d="M 54.890625 33.015625 
L 54.890625 0 
L 45.90625 0 
L 45.90625 32.71875 
Q 45.90625 40.484375 42.875 44.328125 
Q 39.84375 48.1875 33.796875 48.1875 
Q 26.515625 48.1875 22.3125 43.546875 
Q 18.109375 38.921875 18.109375 30.90625 
L 18.109375 0 
L 9.078125 0 
L 9.078125 54.6875 
L 18.109375 54.6875 
L 18.109375 46.1875 
Q 21.34375 51.125 25.703125 53.5625 
Q 30.078125 56 35.796875 56 
Q 45.21875 56 50.046875 50.171875 
Q 54.890625 44.34375 54.890625 33.015625 
z
" id="DejaVuSans-110"/>
       </defs>
       <use xlink:href="#DejaVuSans-116"/>
       <use x="39.208984" xlink:href="#DejaVuSans-114"/>
       <use x="80.322266" xlink:href="#DejaVuSans-97"/>
       <use x="141.601562" xlink:href="#DejaVuSans-105"/>
       <use x="169.384766" xlink:href="#DejaVuSans-110"/>
      </g>
     </g>
    </g>
    <g id="xtick_2">
     <g id="line2d_2">
      <g>
       <use style="stroke:#000000;stroke-width:0.8;" x="221.4" xlink:href="#m344ccfa1ed" y="252"/>
      </g>
     </g>
     <g id="text_2">
      <!-- val -->
      <g transform="translate(213.9875 266.598437)scale(0.1 -0.1)">
       <defs>
        <path d="M 2.984375 54.6875 
L 12.5 54.6875 
L 29.59375 8.796875 
L 46.6875 54.6875 
L 56.203125 54.6875 
L 35.6875 0 
L 23.484375 0 
z
" id="DejaVuSans-118"/>
        <path d="M 9.421875 75.984375 
L 18.40625 75.984375 
L 18.40625 0 
L 9.421875 0 
z
" id="DejaVuSans-108"/>
       </defs>
       <use xlink:href="#DejaVuSans-118"/>
       <use x="59.179688" xlink:href="#DejaVuSans-97"/>
       <use x="120.458984" xlink:href="#DejaVuSans-108"/>
      </g>
     </g>
    </g>
    <g id="xtick_3">
     <g id="line2d_3">
      <g>
       <use style="stroke:#000000;stroke-width:0.8;" x="333" xlink:href="#m344ccfa1ed" y="252"/>
      </g>
     </g>
     <g id="text_3">
      <!-- test -->
      <g transform="translate(323.398438 266.598437)scale(0.1 -0.1)">
       <defs>
        <path d="M 56.203125 29.59375 
L 56.203125 25.203125 
L 14.890625 25.203125 
Q 15.484375 15.921875 20.484375 11.0625 
Q 25.484375 6.203125 34.421875 6.203125 
Q 39.59375 6.203125 44.453125 7.46875 
Q 49.3125 8.734375 54.109375 11.28125 
L 54.109375 2.78125 
Q 49.265625 0.734375 44.1875 -0.34375 
Q 39.109375 -1.421875 33.890625 -1.421875 
Q 20.796875 -1.421875 13.15625 6.1875 
Q 5.515625 13.8125 5.515625 26.8125 
Q 5.515625 40.234375 12.765625 48.109375 
Q 20.015625 56 32.328125 56 
Q 43.359375 56 49.78125 48.890625 
Q 56.203125 41.796875 56.203125 29.59375 
z
M 47.21875 32.234375 
Q 47.125 39.59375 43.09375 43.984375 
Q 39.0625 48.390625 32.421875 48.390625 
Q 24.90625 48.390625 20.390625 44.140625 
Q 15.875 39.890625 15.1875 32.171875 
z
" id="DejaVuSans-101"/>
        <path d="M 44.28125 53.078125 
L 44.28125 44.578125 
Q 40.484375 46.53125 36.375 47.5 
Q 32.28125 48.484375 27.875 48.484375 
Q 21.1875 48.484375 17.84375 46.4375 
Q 14.5 44.390625 14.5 40.28125 
Q 14.5 37.15625 16.890625 35.375 
Q 19.28125 33.59375 26.515625 31.984375 
L 29.59375 31.296875 
Q 39.15625 29.25 43.1875 25.515625 
Q 47.21875 21.78125 47.21875 15.09375 
Q 47.21875 7.46875 41.1875 3.015625 
Q 35.15625 -1.421875 24.609375 -1.421875 
Q 20.21875 -1.421875 15.453125 -0.5625 
Q 10.6875 0.296875 5.421875 2 
L 5.421875 11.28125 
Q 10.40625 8.6875 15.234375 7.390625 
Q 20.0625 6.109375 24.8125 6.109375 
Q 31.15625 6.109375 34.5625 8.28125 
Q 37.984375 10.453125 37.984375 14.40625 
Q 37.984375 18.0625 35.515625 20.015625 
Q 33.0625 21.96875 24.703125 23.78125 
L 21.578125 24.515625 
Q 13.234375 26.265625 9.515625 29.90625 
Q 5.8125 33.546875 5.8125 39.890625 
Q 5.8125 47.609375 11.28125 51.796875 
Q 16.75 56 26.8125 56 
Q 31.78125 56 36.171875 55.265625 
Q 40.578125 54.546875 44.28125 53.078125 
z
" id="DejaVuSans-115"/>
       </defs>
       <use xlink:href="#DejaVuSans-116"/>
       <use x="39.208984" xlink:href="#DejaVuSans-101"/>
       <use x="100.732422" xlink:href="#DejaVuSans-115"/>
       <use x="152.832031" xlink:href="#DejaVuSans-116"/>
      </g>
     </g>
    </g>
    <g id="text_4">
     <!-- set -->
     <g transform="translate(213.758594 280.276563)scale(0.1 -0.1)">
      <use xlink:href="#DejaVuSans-115"/>
      <use x="52.099609" xlink:href="#DejaVuSans-101"/>
      <use x="113.623047" xlink:href="#DejaVuSans-116"/>
     </g>
    </g>
   </g>
   <g id="matplotlib.axis_2">
    <g id="ytick_1">
     <g id="line2d_4">
      <defs>
       <path d="M 0 0 
L -3.5 0 
" id="m31129efce8" style="stroke:#000000;stroke-width:0.8;"/>
      </defs>
      <g>
       <use style="stroke:#000000;stroke-width:0.8;" x="54" xlink:href="#m31129efce8" y="242.116703"/>
      </g>
     </g>
     <g id="text_5">
      <!-- 0.0 -->
      <g transform="translate(31.096875 245.915922)scale(0.1 -0.1)">
       <defs>
        <path d="M 31.78125 66.40625 
Q 24.171875 66.40625 20.328125 58.90625 
Q 16.5 51.421875 16.5 36.375 
Q 16.5 21.390625 20.328125 13.890625 
Q 24.171875 6.390625 31.78125 6.390625 
Q 39.453125 6.390625 43.28125 13.890625 
Q 47.125 21.390625 47.125 36.375 
Q 47.125 51.421875 43.28125 58.90625 
Q 39.453125 66.40625 31.78125 66.40625 
z
M 31.78125 74.21875 
Q 44.046875 74.21875 50.515625 64.515625 
Q 56.984375 54.828125 56.984375 36.375 
Q 56.984375 17.96875 50.515625 8.265625 
Q 44.046875 -1.421875 31.78125 -1.421875 
Q 19.53125 -1.421875 13.0625 8.265625 
Q 6.59375 17.96875 6.59375 36.375 
Q 6.59375 54.828125 13.0625 64.515625 
Q 19.53125 74.21875 31.78125 74.21875 
z
" id="DejaVuSans-48"/>
        <path d="M 10.6875 12.40625 
L 21 12.40625 
L 21 0 
L 10.6875 0 
z
" id="DejaVuSans-46"/>
       </defs>
       <use xlink:href="#DejaVuSans-48"/>
       <use x="63.623047" xlink:href="#DejaVuSans-46"/>
       <use x="95.410156" xlink:href="#DejaVuSans-48"/>
      </g>
     </g>
    </g>
    <g id="ytick_2">
     <g id="line2d_5">
      <g>
       <use style="stroke:#000000;stroke-width:0.8;" x="54" xlink:href="#m31129efce8" y="207.222382"/>
      </g>
     </g>
     <g id="text_6">
      <!-- 0.1 -->
      <g transform="translate(31.096875 211.021601)scale(0.1 -0.1)">
       <defs>
        <path d="M 12.40625 8.296875 
L 28.515625 8.296875 
L 28.515625 63.921875 
L 10.984375 60.40625 
L 10.984375 69.390625 
L 28.421875 72.90625 
L 38.28125 72.90625 
L 38.28125 8.296875 
L 54.390625 8.296875 
L 54.390625 0 
L 12.40625 0 
z
" id="DejaVuSans-49"/>
       </defs>
       <use xlink:href="#DejaVuSans-48"/>
       <use x="63.623047" xlink:href="#DejaVuSans-46"/>
       <use x="95.410156" xlink:href="#DejaVuSans-49"/>
      </g>
     </g>
    </g>
    <g id="ytick_3">
     <g id="line2d_6">
      <g>
       <use style="stroke:#000000;stroke-width:0.8;" x="54" xlink:href="#m31129efce8" y="172.328061"/>
      </g>
     </g>
     <g id="text_7">
      <!-- 0.2 -->
      <g transform="translate(31.096875 176.127279)scale(0.1 -0.1)">
       <defs>
        <path d="M 19.1875 8.296875 
L 53.609375 8.296875 
L 53.609375 0 
L 7.328125 0 
L 7.328125 8.296875 
Q 12.9375 14.109375 22.625 23.890625 
Q 32.328125 33.6875 34.8125 36.53125 
Q 39.546875 41.84375 41.421875 45.53125 
Q 43.3125 49.21875 43.3125 52.78125 
Q 43.3125 58.59375 39.234375 62.25 
Q 35.15625 65.921875 28.609375 65.921875 
Q 23.96875 65.921875 18.8125 64.3125 
Q 13.671875 62.703125 7.8125 59.421875 
L 7.8125 69.390625 
Q 13.765625 71.78125 18.9375 73 
Q 24.125 74.21875 28.421875 74.21875 
Q 39.75 74.21875 46.484375 68.546875 
Q 53.21875 62.890625 53.21875 53.421875 
Q 53.21875 48.921875 51.53125 44.890625 
Q 49.859375 40.875 45.40625 35.40625 
Q 44.1875 33.984375 37.640625 27.21875 
Q 31.109375 20.453125 19.1875 8.296875 
z
" id="DejaVuSans-50"/>
       </defs>
       <use xlink:href="#DejaVuSans-48"/>
       <use x="63.623047" xlink:href="#DejaVuSans-46"/>
       <use x="95.410156" xlink:href="#DejaVuSans-50"/>
      </g>
     </g>
    </g>
    <g id="ytick_4">
     <g id="line2d_7">
      <g>
       <use style="stroke:#000000;stroke-width:0.8;" x="54" xlink:href="#m31129efce8" y="137.43374"/>
      </g>
     </g>
     <g id="text_8">
      <!-- 0.3 -->
      <g transform="translate(31.096875 141.232958)scale(0.1 -0.1)">
       <defs>
        <path d="M 40.578125 39.3125 
Q 47.65625 37.796875 51.625 33 
Q 55.609375 28.21875 55.609375 21.1875 
Q 55.609375 10.40625 48.1875 4.484375 
Q 40.765625 -1.421875 27.09375 -1.421875 
Q 22.515625 -1.421875 17.65625 -0.515625 
Q 12.796875 0.390625 7.625 2.203125 
L 7.625 11.71875 
Q 11.71875 9.328125 16.59375 8.109375 
Q 21.484375 6.890625 26.8125 6.890625 
Q 36.078125 6.890625 40.9375 10.546875 
Q 45.796875 14.203125 45.796875 21.1875 
Q 45.796875 27.640625 41.28125 31.265625 
Q 36.765625 34.90625 28.71875 34.90625 
L 20.21875 34.90625 
L 20.21875 43.015625 
L 29.109375 43.015625 
Q 36.375 43.015625 40.234375 45.921875 
Q 44.09375 48.828125 44.09375 54.296875 
Q 44.09375 59.90625 40.109375 62.90625 
Q 36.140625 65.921875 28.71875 65.921875 
Q 24.65625 65.921875 20.015625 65.03125 
Q 15.375 64.15625 9.8125 62.3125 
L 9.8125 71.09375 
Q 15.4375 72.65625 20.34375 73.4375 
Q 25.25 74.21875 29.59375 74.21875 
Q 40.828125 74.21875 47.359375 69.109375 
Q 53.90625 64.015625 53.90625 55.328125 
Q 53.90625 49.265625 50.4375 45.09375 
Q 46.96875 40.921875 40.578125 39.3125 
z
" id="DejaVuSans-51"/>
       </defs>
       <use xlink:href="#DejaVuSans-48"/>
       <use x="63.623047" xlink:href="#DejaVuSans-46"/>
       <use x="95.410156" xlink:href="#DejaVuSans-51"/>
      </g>
     </g>
    </g>
    <g id="ytick_5">
     <g id="line2d_8">
      <g>
       <use style="stroke:#000000;stroke-width:0.8;" x="54" xlink:href="#m31129efce8" y="102.539418"/>
      </g>
     </g>
     <g id="text_9">
      <!-- 0.4 -->
      <g transform="translate(31.096875 106.338637)scale(0.1 -0.1)">
       <defs>
        <path d="M 37.796875 64.3125 
L 12.890625 25.390625 
L 37.796875 25.390625 
z
M 35.203125 72.90625 
L 47.609375 72.90625 
L 47.609375 25.390625 
L 58.015625 25.390625 
L 58.015625 17.1875 
L 47.609375 17.1875 
L 47.609375 0 
L 37.796875 0 
L 37.796875 17.1875 
L 4.890625 17.1875 
L 4.890625 26.703125 
z
" id="DejaVuSans-52"/>
       </defs>
       <use xlink:href="#DejaVuSans-48"/>
       <use x="63.623047" xlink:href="#DejaVuSans-46"/>
       <use x="95.410156" xlink:href="#DejaVuSans-52"/>
      </g>
     </g>
    </g>
    <g id="ytick_6">
     <g id="line2d_9">
      <g>
       <use style="stroke:#000000;stroke-width:0.8;" x="54" xlink:href="#m31129efce8" y="67.645097"/>
      </g>
     </g>
     <g id="text_10">
      <!-- 0.5 -->
      <g transform="translate(31.096875 71.444316)scale(0.1 -0.1)">
       <defs>
        <path d="M 10.796875 72.90625 
L 49.515625 72.90625 
L 49.515625 64.59375 
L 19.828125 64.59375 
L 19.828125 46.734375 
Q 21.96875 47.46875 24.109375 47.828125 
Q 26.265625 48.1875 28.421875 48.1875 
Q 40.625 48.1875 47.75 41.5 
Q 54.890625 34.8125 54.890625 23.390625 
Q 54.890625 11.625 47.5625 5.09375 
Q 40.234375 -1.421875 26.90625 -1.421875 
Q 22.3125 -1.421875 17.546875 -0.640625 
Q 12.796875 0.140625 7.71875 1.703125 
L 7.71875 11.625 
Q 12.109375 9.234375 16.796875 8.0625 
Q 21.484375 6.890625 26.703125 6.890625 
Q 35.15625 6.890625 40.078125 11.328125 
Q 45.015625 15.765625 45.015625 23.390625 
Q 45.015625 31 40.078125 35.4375 
Q 35.15625 39.890625 26.703125 39.890625 
Q 22.75 39.890625 18.8125 39.015625 
Q 14.890625 38.140625 10.796875 36.28125 
z
" id="DejaVuSans-53"/>
       </defs>
       <use xlink:href="#DejaVuSans-48"/>
       <use x="63.623047" xlink:href="#DejaVuSans-46"/>
       <use x="95.410156" xlink:href="#DejaVuSans-53"/>
      </g>
     </g>
    </g>
    <g id="text_11">
     <!-- value -->
     <g transform="translate(25.017187 156.937813)rotate(-90)scale(0.1 -0.1)">
      <defs>
       <path d="M 8.5 21.578125 
L 8.5 54.6875 
L 17.484375 54.6875 
L 17.484375 21.921875 
Q 17.484375 14.15625 20.5 10.265625 
Q 23.53125 6.390625 29.59375 6.390625 
Q 36.859375 6.390625 41.078125 11.03125 
Q 45.3125 15.671875 45.3125 23.6875 
L 45.3125 54.6875 
L 54.296875 54.6875 
L 54.296875 0 
L 45.3125 0 
L 45.3125 8.40625 
Q 42.046875 3.421875 37.71875 1 
Q 33.40625 -1.421875 27.6875 -1.421875 
Q 18.265625 -1.421875 13.375 4.4375 
Q 8.5 10.296875 8.5 21.578125 
z
M 31.109375 56 
z
" id="DejaVuSans-117"/>
      </defs>
      <use xlink:href="#DejaVuSans-118"/>
      <use x="59.179688" xlink:href="#DejaVuSans-97"/>
      <use x="120.458984" xlink:href="#DejaVuSans-108"/>
      <use x="148.242188" xlink:href="#DejaVuSans-117"/>
      <use x="211.621094" xlink:href="#DejaVuSans-101"/>
     </g>
    </g>
   </g>
   <g id="line2d_10">
    <path clip-path="url(#p56f0db443f)" d="M 80.04 242.116364 
L 80.04 223.549272 
" style="fill:none;stroke:#3d3d3d;stroke-linecap:square;stroke-width:1.5;"/>
   </g>
   <g id="line2d_11">
    <path clip-path="url(#p56f0db443f)" d="M 80.04 240.171728 
L 80.04 233.501004 
" style="fill:none;stroke:#3d3d3d;stroke-linecap:square;stroke-width:4.5;"/>
   </g>
   <g id="line2d_12">
    <path clip-path="url(#p56f0db443f)" d="M 221.4 242.100804 
L 221.4 223.725726 
" style="fill:none;stroke:#3d3d3d;stroke-linecap:square;stroke-width:1.5;"/>
   </g>
   <g id="line2d_13">
    <path clip-path="url(#p56f0db443f)" d="M 221.4 240.267005 
L 221.4 233.538287 
" style="fill:none;stroke:#3d3d3d;stroke-linecap:square;stroke-width:4.5;"/>
   </g>
   <g id="line2d_14">
    <path clip-path="url(#p56f0db443f)" d="M 362.76 242.098599 
L 362.76 222.805339 
" style="fill:none;stroke:#3d3d3d;stroke-linecap:square;stroke-width:1.5;"/>
   </g>
   <g id="line2d_15">
    <path clip-path="url(#p56f0db443f)" d="M 362.76 240.228845 
L 362.76 233.096509 
" style="fill:none;stroke:#3d3d3d;stroke-linecap:square;stroke-width:4.5;"/>
   </g>
   <g id="patch_6">
    <path d="M 54 252 
L 54 34.56 
" style="fill:none;stroke:#000000;stroke-linecap:square;stroke-linejoin:miter;stroke-width:0.8;"/>
   </g>
   <g id="patch_7">
    <path d="M 388.8 252 
L 388.8 34.56 
" style="fill:none;stroke:#000000;stroke-linecap:square;stroke-linejoin:miter;stroke-width:0.8;"/>
   </g>
   <g id="patch_8">
    <path d="M 54 252 
L 388.8 252 
" style="fill:none;stroke:#000000;stroke-linecap:square;stroke-linejoin:miter;stroke-width:0.8;"/>
   </g>
   <g id="patch_9">
    <path d="M 54 34.56 
L 388.8 34.56 
" style="fill:none;stroke:#000000;stroke-linecap:square;stroke-linejoin:miter;stroke-width:0.8;"/>
   </g>
   <g id="PathCollection_1">
    <defs>
     <path d="M 0 1.5 
C 0.397805 1.5 0.77937 1.341951 1.06066 1.06066 
C 1.341951 0.77937 1.5 0.397805 1.5 0 
C 1.5 -0.397805 1.341951 -0.77937 1.06066 -1.06066 
C 0.77937 -1.341951 0.397805 -1.5 0 -1.5 
C -0.397805 -1.5 -0.77937 -1.341951 -1.06066 -1.06066 
C -1.341951 -0.77937 -1.5 -0.397805 -1.5 0 
C -1.5 0.397805 -1.341951 0.77937 -1.06066 1.06066 
C -0.77937 1.341951 -0.397805 1.5 0 1.5 
z
" id="m5640fa0c09" style="stroke:#3d3d3d;"/>
    </defs>
    <g clip-path="url(#p56f0db443f)">
     <use style="fill:#ffffff;stroke:#3d3d3d;" x="80.04" xlink:href="#m5640fa0c09" y="237.678159"/>
    </g>
   </g>
   <g id="PathCollection_2">
    <g clip-path="url(#p56f0db443f)">
     <use style="fill:#ffffff;stroke:#3d3d3d;" x="221.4" xlink:href="#m5640fa0c09" y="237.575022"/>
    </g>
   </g>
   <g id="PathCollection_3">
    <g clip-path="url(#p56f0db443f)">
     <use style="fill:#ffffff;stroke:#3d3d3d;" x="362.76" xlink:href="#m5640fa0c09" y="237.510004"/>
    </g>
   </g>
   <g id="legend_1">
    <g id="patch_10">
     <path d="M 326.525 101.2725 
L 381.8 101.2725 
Q 383.8 101.2725 383.8 99.2725 
L 383.8 41.56 
Q 383.8 39.56 381.8 39.56 
L 326.525 39.56 
Q 324.525 39.56 324.525 41.56 
L 324.525 99.2725 
Q 324.525 101.2725 326.525 101.2725 
z
" style="fill:#ffffff;opacity:0.8;stroke:#cccccc;stroke-linejoin:miter;"/>
    </g>
    <g id="text_12">
     <!-- set -->
     <g transform="translate(346.521094 51.158437)scale(0.1 -0.1)">
      <use xlink:href="#DejaVuSans-115"/>
      <use x="52.099609" xlink:href="#DejaVuSans-101"/>
      <use x="113.623047" xlink:href="#DejaVuSans-116"/>
     </g>
    </g>
    <g id="patch_11">
     <path d="M 328.525 65.836562 
L 348.525 65.836562 
L 348.525 58.836562 
L 328.525 58.836562 
z
" style="fill:#3274a1;stroke:#3d3d3d;stroke-linejoin:miter;stroke-width:0.75;"/>
    </g>
    <g id="text_13">
     <!-- train -->
     <g transform="translate(356.525 65.836562)scale(0.1 -0.1)">
      <use xlink:href="#DejaVuSans-116"/>
      <use x="39.208984" xlink:href="#DejaVuSans-114"/>
      <use x="80.322266" xlink:href="#DejaVuSans-97"/>
      <use x="141.601562" xlink:href="#DejaVuSans-105"/>
      <use x="169.384766" xlink:href="#DejaVuSans-110"/>
     </g>
    </g>
    <g id="patch_12">
     <path d="M 328.525 80.514687 
L 348.525 80.514687 
L 348.525 73.514687 
L 328.525 73.514687 
z
" style="fill:#e1812c;stroke:#3d3d3d;stroke-linejoin:miter;stroke-width:0.75;"/>
    </g>
    <g id="text_14">
     <!-- val -->
     <g transform="translate(356.525 80.514687)scale(0.1 -0.1)">
      <use xlink:href="#DejaVuSans-118"/>
      <use x="59.179688" xlink:href="#DejaVuSans-97"/>
      <use x="120.458984" xlink:href="#DejaVuSans-108"/>
     </g>
    </g>
    <g id="patch_13">
     <path d="M 328.525 95.192813 
L 348.525 95.192813 
L 348.525 88.192813 
L 328.525 88.192813 
z
" style="fill:#3a923a;stroke:#3d3d3d;stroke-linejoin:miter;stroke-width:0.75;"/>
    </g>
    <g id="text_15">
     <!-- test -->
     <g transform="translate(356.525 95.192813)scale(0.1 -0.1)">
      <use xlink:href="#DejaVuSans-116"/>
      <use x="39.208984" xlink:href="#DejaVuSans-101"/>
      <use x="100.732422" xlink:href="#DejaVuSans-115"/>
      <use x="152.832031" xlink:href="#DejaVuSans-116"/>
     </g>
    </g>
   </g>
  </g>
 </g>
 <defs>
  <clipPath id="p56f0db443f">
   <rect height="217.44" width="334.8" x="54" y="34.56"/>
  </clipPath>
 </defs>
</svg>
