<?xml version="1.0" encoding="utf-8" standalone="no"?>
<!DOCTYPE svg PUBLIC "-//W3C//DTD SVG 1.1//EN"
  "http://www.w3.org/Graphics/SVG/1.1/DTD/svg11.dtd">
<!-- Created with matplotlib (https://matplotlib.org/) -->
<svg height="288pt" version="1.1" viewBox="0 0 432 288" width="432pt" xmlns="http://www.w3.org/2000/svg" xmlns:xlink="http://www.w3.org/1999/xlink">
 <metadata>
  <rdf:RDF xmlns:cc="http://creativecommons.org/ns#" xmlns:dc="http://purl.org/dc/elements/1.1/" xmlns:rdf="http://www.w3.org/1999/02/22-rdf-syntax-ns#">
   <cc:Work>
    <dc:type rdf:resource="http://purl.org/dc/dcmitype/StillImage"/>
    <dc:date>2021-07-13T18:41:52.736383</dc:date>
    <dc:format>image/svg+xml</dc:format>
    <dc:creator>
     <cc:Agent>
      <dc:title>Matplotlib v3.3.4, https://matplotlib.org/</dc:title>
     </cc:Agent>
    </dc:creator>
   </cc:Work>
  </rdf:RDF>
 </metadata>
 <defs>
  <style type="text/css">*{stroke-linecap:butt;stroke-linejoin:round;}</style>
 </defs>
 <g id="figure_1">
  <g id="patch_1">
   <path d="M 0 288 
L 432 288 
L 432 0 
L 0 0 
z
" style="fill:#ffffff;"/>
  </g>
  <g id="axes_1">
   <g id="patch_2">
    <path d="M 54 252 
L 388.8 252 
L 388.8 34.56 
L 54 34.56 
z
" style="fill:#ffffff;"/>
   </g>
   <g id="PolyCollection_1">
    <defs>
     <path d="M 104.241337 -45.883636 
L 104.198663 -45.883636 
L 104.214329 -47.785331 
L 104.219894 -49.687026 
L 104.22 -51.58872 
L 104.22 -53.490415 
L 104.22 -55.39211 
L 104.22 -57.293804 
L 104.22 -59.195499 
L 104.22 -61.097194 
L 104.22 -62.998888 
L 104.22 -64.900583 
L 104.22 -66.802278 
L 104.22 -68.703972 
L 104.22 -70.605667 
L 104.22 -72.507362 
L 104.22 -74.409056 
L 104.22 -76.310751 
L 104.22 -78.212446 
L 104.22 -80.11414 
L 104.22 -82.015835 
L 104.22 -83.91753 
L 104.22 -85.819224 
L 104.22 -87.720919 
L 104.22 -89.622614 
L 104.22 -91.524308 
L 104.22 -93.426003 
L 104.22 -95.327698 
L 104.22 -97.229392 
L 104.22 -99.131087 
L 104.22 -101.032782 
L 104.22 -102.934476 
L 104.22 -104.836171 
L 104.219994 -106.737866 
L 104.218843 -108.63956 
L 104.20434 -110.541255 
L 104.205024 -112.44295 
L 104.218988 -114.344644 
L 104.219995 -116.246339 
L 104.22 -118.148034 
L 104.22 -120.049728 
L 104.22 -121.951423 
L 104.22 -123.853118 
L 104.22 -125.754812 
L 104.219921 -127.656507 
L 104.215108 -129.558202 
L 104.197031 -131.459896 
L 104.19582 -133.361591 
L 104.207063 -135.263286 
L 104.219334 -137.16498 
L 104.218389 -139.066675 
L 104.202619 -140.96837 
L 104.20227 -142.870064 
L 104.189269 -144.771759 
L 104.192353 -146.673454 
L 104.216569 -148.575148 
L 104.219838 -150.476843 
L 104.213855 -152.378538 
L 104.19869 -154.280232 
L 104.214567 -156.181927 
L 104.209971 -158.083621 
L 104.175309 -159.985316 
L 104.171139 -161.887011 
L 104.192345 -163.788705 
L 104.200084 -165.6904 
L 104.207525 -167.592095 
L 104.212221 -169.493789 
L 104.164788 -171.395484 
L 104.152568 -173.297179 
L 104.177696 -175.198873 
L 104.192213 -177.100568 
L 104.173983 -179.002263 
L 104.113038 -180.903957 
L 104.0618 -182.805652 
L 103.848662 -184.707347 
L 103.09127 -186.609041 
L 96.151059 -188.510736 
L 70.74 -190.412431 
L 73.745562 -192.314125 
L 92.253559 -194.21582 
L 99.358487 -196.117515 
L 101.634703 -198.019209 
L 102.386428 -199.920904 
L 102.866084 -201.822599 
L 103.375781 -203.724293 
L 103.657708 -205.625988 
L 103.683257 -207.527683 
L 103.83055 -209.429377 
L 104.000003 -211.331072 
L 104.073896 -213.232767 
L 104.115804 -215.134461 
L 104.129734 -217.036156 
L 104.156301 -218.937851 
L 104.146349 -220.839545 
L 104.124899 -222.74124 
L 104.150197 -224.642935 
L 104.185778 -226.544629 
L 104.184149 -228.446324 
L 104.21112 -230.348019 
L 104.214117 -232.249713 
L 104.198663 -234.151408 
L 104.241337 -234.151408 
L 104.241337 -234.151408 
L 104.225883 -232.249713 
L 104.22888 -230.348019 
L 104.255851 -228.446324 
L 104.254222 -226.544629 
L 104.289803 -224.642935 
L 104.315101 -222.74124 
L 104.293651 -220.839545 
L 104.283699 -218.937851 
L 104.310266 -217.036156 
L 104.324196 -215.134461 
L 104.366104 -213.232767 
L 104.439997 -211.331072 
L 104.60945 -209.429377 
L 104.756743 -207.527683 
L 104.782292 -205.625988 
L 105.064219 -203.724293 
L 105.573916 -201.822599 
L 106.053572 -199.920904 
L 106.805297 -198.019209 
L 109.081513 -196.117515 
L 116.186441 -194.21582 
L 134.694438 -192.314125 
L 137.7 -190.412431 
L 112.288941 -188.510736 
L 105.34873 -186.609041 
L 104.591338 -184.707347 
L 104.3782 -182.805652 
L 104.326962 -180.903957 
L 104.266017 -179.002263 
L 104.247787 -177.100568 
L 104.262304 -175.198873 
L 104.287432 -173.297179 
L 104.275212 -171.395484 
L 104.227779 -169.493789 
L 104.232475 -167.592095 
L 104.239916 -165.6904 
L 104.247655 -163.788705 
L 104.268861 -161.887011 
L 104.264691 -159.985316 
L 104.230029 -158.083621 
L 104.225433 -156.181927 
L 104.24131 -154.280232 
L 104.226145 -152.378538 
L 104.220162 -150.476843 
L 104.223431 -148.575148 
L 104.247647 -146.673454 
L 104.250731 -144.771759 
L 104.23773 -142.870064 
L 104.237381 -140.96837 
L 104.221611 -139.066675 
L 104.220666 -137.16498 
L 104.232937 -135.263286 
L 104.24418 -133.361591 
L 104.242969 -131.459896 
L 104.224892 -129.558202 
L 104.220079 -127.656507 
L 104.22 -125.754812 
L 104.22 -123.853118 
L 104.22 -121.951423 
L 104.22 -120.049728 
L 104.22 -118.148034 
L 104.220005 -116.246339 
L 104.221012 -114.344644 
L 104.234976 -112.44295 
L 104.23566 -110.541255 
L 104.221157 -108.63956 
L 104.220006 -106.737866 
L 104.22 -104.836171 
L 104.22 -102.934476 
L 104.22 -101.032782 
L 104.22 -99.131087 
L 104.22 -97.229392 
L 104.22 -95.327698 
L 104.22 -93.426003 
L 104.22 -91.524308 
L 104.22 -89.622614 
L 104.22 -87.720919 
L 104.22 -85.819224 
L 104.22 -83.91753 
L 104.22 -82.015835 
L 104.22 -80.11414 
L 104.22 -78.212446 
L 104.22 -76.310751 
L 104.22 -74.409056 
L 104.22 -72.507362 
L 104.22 -70.605667 
L 104.22 -68.703972 
L 104.22 -66.802278 
L 104.22 -64.900583 
L 104.22 -62.998888 
L 104.22 -61.097194 
L 104.22 -59.195499 
L 104.22 -57.293804 
L 104.22 -55.39211 
L 104.22 -53.490415 
L 104.22 -51.58872 
L 104.220106 -49.687026 
L 104.225671 -47.785331 
L 104.241337 -45.883636 
z
" id="m81be2b61f0" style="stroke:#3f3f3f;stroke-width:1.5;"/>
    </defs>
    <g clip-path="url(#p1041f28dd1)">
     <use style="fill:#3274a1;stroke:#3f3f3f;stroke-width:1.5;" x="0" xlink:href="#m81be2b61f0" y="288"/>
    </g>
   </g>
   <g id="PolyCollection_2">
    <defs>
     <path d="M 338.603494 -167.532849 
L 338.556506 -167.532849 
L 338.561846 -168.300763 
L 338.571624 -169.068677 
L 338.577691 -169.836592 
L 338.579591 -170.604506 
L 338.579646 -171.37242 
L 338.577972 -172.140334 
L 338.572174 -172.908249 
L 338.561307 -173.676163 
L 338.550659 -174.444077 
L 338.546006 -175.211992 
L 338.547946 -175.979906 
L 338.556504 -176.74782 
L 338.567876 -177.515735 
L 338.573863 -178.283649 
L 338.569035 -179.051563 
L 338.551399 -179.819477 
L 338.524855 -180.587392 
L 338.499296 -181.355306 
L 338.477415 -182.12322 
L 338.453498 -182.891135 
L 338.431573 -183.659049 
L 338.405006 -184.426963 
L 338.331721 -185.194877 
L 338.16833 -185.962792 
L 337.81441 -186.730706 
L 336.840284 -187.49862 
L 334.150491 -188.266535 
L 328.164382 -189.034449 
L 318.640275 -189.802363 
L 309.146644 -190.570277 
L 305.1 -191.338192 
L 307.901318 -192.106106 
L 314.150049 -192.87402 
L 320.305698 -193.641935 
L 325.015524 -194.409849 
L 328.225782 -195.177763 
L 330.365845 -195.945678 
L 331.966221 -196.713592 
L 333.274029 -197.481506 
L 334.290631 -198.24942 
L 335.037133 -199.017335 
L 335.607481 -199.785249 
L 336.063316 -200.553163 
L 336.385637 -201.321078 
L 336.575937 -202.088992 
L 336.74298 -202.856906 
L 336.998277 -203.62482 
L 337.324977 -204.392735 
L 337.624913 -205.160649 
L 337.841497 -205.928563 
L 337.989563 -206.696478 
L 338.091161 -207.464392 
L 338.131126 -208.232306 
L 338.110426 -209.00022 
L 338.096728 -209.768135 
L 338.147264 -210.536049 
L 338.227926 -211.303963 
L 338.288083 -212.071878 
L 338.325002 -212.839792 
L 338.342458 -213.607706 
L 338.338385 -214.375621 
L 338.32934 -215.143535 
L 338.346691 -215.911449 
L 338.398133 -216.679363 
L 338.453543 -217.447278 
L 338.477021 -218.215192 
L 338.456917 -218.983106 
L 338.416347 -219.751021 
L 338.400186 -220.518935 
L 338.424224 -221.286849 
L 338.461669 -222.054763 
L 338.487172 -222.822678 
L 338.495001 -223.590592 
L 338.493152 -224.358506 
L 338.49595 -225.126421 
L 338.506718 -225.894335 
L 338.512496 -226.662249 
L 338.50696 -227.430163 
L 338.504251 -228.198078 
L 338.513973 -228.965992 
L 338.526842 -229.733906 
L 338.53004 -230.501821 
L 338.519709 -231.269735 
L 338.508135 -232.037649 
L 338.510965 -232.805564 
L 338.527176 -233.573478 
L 338.54727 -234.341392 
L 338.564545 -235.109306 
L 338.574142 -235.877221 
L 338.574437 -236.645135 
L 338.56692 -237.413049 
L 338.558036 -238.180964 
L 338.557406 -238.948878 
L 338.56348 -239.716792 
L 338.561946 -240.484706 
L 338.545088 -241.252621 
L 338.525222 -242.020535 
L 338.521332 -242.788449 
L 338.535327 -243.556364 
L 338.624673 -243.556364 
L 338.624673 -243.556364 
L 338.638668 -242.788449 
L 338.634778 -242.020535 
L 338.614912 -241.252621 
L 338.598054 -240.484706 
L 338.59652 -239.716792 
L 338.602594 -238.948878 
L 338.601964 -238.180964 
L 338.59308 -237.413049 
L 338.585563 -236.645135 
L 338.585858 -235.877221 
L 338.595455 -235.109306 
L 338.61273 -234.341392 
L 338.632824 -233.573478 
L 338.649035 -232.805564 
L 338.651865 -232.037649 
L 338.640291 -231.269735 
L 338.62996 -230.501821 
L 338.633158 -229.733906 
L 338.646027 -228.965992 
L 338.655749 -228.198078 
L 338.65304 -227.430163 
L 338.647504 -226.662249 
L 338.653282 -225.894335 
L 338.66405 -225.126421 
L 338.666848 -224.358506 
L 338.664999 -223.590592 
L 338.672828 -222.822678 
L 338.698331 -222.054763 
L 338.735776 -221.286849 
L 338.759814 -220.518935 
L 338.743653 -219.751021 
L 338.703083 -218.983106 
L 338.682979 -218.215192 
L 338.706457 -217.447278 
L 338.761867 -216.679363 
L 338.813309 -215.911449 
L 338.83066 -215.143535 
L 338.821615 -214.375621 
L 338.817542 -213.607706 
L 338.834998 -212.839792 
L 338.871917 -212.071878 
L 338.932074 -211.303963 
L 339.012736 -210.536049 
L 339.063272 -209.768135 
L 339.049574 -209.00022 
L 339.028874 -208.232306 
L 339.068839 -207.464392 
L 339.170437 -206.696478 
L 339.318503 -205.928563 
L 339.535087 -205.160649 
L 339.835023 -204.392735 
L 340.161723 -203.62482 
L 340.41702 -202.856906 
L 340.584063 -202.088992 
L 340.774363 -201.321078 
L 341.096684 -200.553163 
L 341.552519 -199.785249 
L 342.122867 -199.017335 
L 342.869369 -198.24942 
L 343.885971 -197.481506 
L 345.193779 -196.713592 
L 346.794155 -195.945678 
L 348.934218 -195.177763 
L 352.144476 -194.409849 
L 356.854302 -193.641935 
L 363.009951 -192.87402 
L 369.258682 -192.106106 
L 372.06 -191.338192 
L 368.013356 -190.570277 
L 358.519725 -189.802363 
L 348.995618 -189.034449 
L 343.009509 -188.266535 
L 340.319716 -187.49862 
L 339.34559 -186.730706 
L 338.99167 -185.962792 
L 338.828279 -185.194877 
L 338.754994 -184.426963 
L 338.728427 -183.659049 
L 338.706502 -182.891135 
L 338.682585 -182.12322 
L 338.660704 -181.355306 
L 338.635145 -180.587392 
L 338.608601 -179.819477 
L 338.590965 -179.051563 
L 338.586137 -178.283649 
L 338.592124 -177.515735 
L 338.603496 -176.74782 
L 338.612054 -175.979906 
L 338.613994 -175.211992 
L 338.609341 -174.444077 
L 338.598693 -173.676163 
L 338.587826 -172.908249 
L 338.582028 -172.140334 
L 338.580354 -171.37242 
L 338.580409 -170.604506 
L 338.582309 -169.836592 
L 338.588376 -169.068677 
L 338.598154 -168.300763 
L 338.603494 -167.532849 
z
" id="mad57a4cfbe" style="stroke:#3f3f3f;stroke-width:1.5;"/>
    </defs>
    <g clip-path="url(#p1041f28dd1)">
     <use style="fill:#e1812c;stroke:#3f3f3f;stroke-width:1.5;" x="0" xlink:href="#mad57a4cfbe" y="288"/>
    </g>
   </g>
   <g id="patch_3">
    <path clip-path="url(#p1041f28dd1)" d="M 137.7 97.429971 
L 137.7 97.429971 
L 137.7 97.429971 
L 137.7 97.429971 
z
" style="fill:#3274a1;stroke:#3f3f3f;stroke-linejoin:miter;stroke-width:0.75;"/>
   </g>
   <g id="patch_4">
    <path clip-path="url(#p1041f28dd1)" d="M 137.7 97.429971 
L 137.7 97.429971 
L 137.7 97.429971 
L 137.7 97.429971 
z
" style="fill:#e1812c;stroke:#3f3f3f;stroke-linejoin:miter;stroke-width:0.75;"/>
   </g>
   <g id="matplotlib.axis_1">
    <g id="xtick_1">
     <g id="line2d_1">
      <defs>
       <path d="M 0 0 
L 0 3.5 
" id="m12cf4f0d4f" style="stroke:#000000;stroke-width:0.8;"/>
      </defs>
      <g>
       <use style="stroke:#000000;stroke-width:0.8;" x="137.7" xlink:href="#m12cf4f0d4f" y="252"/>
      </g>
     </g>
     <g id="text_1">
      <!-- Z_1_ns -->
      <g transform="translate(120.320312 266.320312)scale(0.1 -0.1)">
       <defs>
        <path d="M 5.609375 72.90625 
L 62.890625 72.90625 
L 62.890625 65.375 
L 16.796875 8.296875 
L 64.015625 8.296875 
L 64.015625 0 
L 4.5 0 
L 4.5 7.515625 
L 50.59375 64.59375 
L 5.609375 64.59375 
z
" id="DejaVuSans-90"/>
        <path d="M 50.984375 -16.609375 
L 50.984375 -23.578125 
L -0.984375 -23.578125 
L -0.984375 -16.609375 
z
" id="DejaVuSans-95"/>
        <path d="M 12.40625 8.296875 
L 28.515625 8.296875 
L 28.515625 63.921875 
L 10.984375 60.40625 
L 10.984375 69.390625 
L 28.421875 72.90625 
L 38.28125 72.90625 
L 38.28125 8.296875 
L 54.390625 8.296875 
L 54.390625 0 
L 12.40625 0 
z
" id="DejaVuSans-49"/>
        <path d="M 54.890625 33.015625 
L 54.890625 0 
L 45.90625 0 
L 45.90625 32.71875 
Q 45.90625 40.484375 42.875 44.328125 
Q 39.84375 48.1875 33.796875 48.1875 
Q 26.515625 48.1875 22.3125 43.546875 
Q 18.109375 38.921875 18.109375 30.90625 
L 18.109375 0 
L 9.078125 0 
L 9.078125 54.6875 
L 18.109375 54.6875 
L 18.109375 46.1875 
Q 21.34375 51.125 25.703125 53.5625 
Q 30.078125 56 35.796875 56 
Q 45.21875 56 50.046875 50.171875 
Q 54.890625 44.34375 54.890625 33.015625 
z
" id="DejaVuSans-110"/>
        <path d="M 44.28125 53.078125 
L 44.28125 44.578125 
Q 40.484375 46.53125 36.375 47.5 
Q 32.28125 48.484375 27.875 48.484375 
Q 21.1875 48.484375 17.84375 46.4375 
Q 14.5 44.390625 14.5 40.28125 
Q 14.5 37.15625 16.890625 35.375 
Q 19.28125 33.59375 26.515625 31.984375 
L 29.59375 31.296875 
Q 39.15625 29.25 43.1875 25.515625 
Q 47.21875 21.78125 47.21875 15.09375 
Q 47.21875 7.46875 41.1875 3.015625 
Q 35.15625 -1.421875 24.609375 -1.421875 
Q 20.21875 -1.421875 15.453125 -0.5625 
Q 10.6875 0.296875 5.421875 2 
L 5.421875 11.28125 
Q 10.40625 8.6875 15.234375 7.390625 
Q 20.0625 6.109375 24.8125 6.109375 
Q 31.15625 6.109375 34.5625 8.28125 
Q 37.984375 10.453125 37.984375 14.40625 
Q 37.984375 18.0625 35.515625 20.015625 
Q 33.0625 21.96875 24.703125 23.78125 
L 21.578125 24.515625 
Q 13.234375 26.265625 9.515625 29.90625 
Q 5.8125 33.546875 5.8125 39.890625 
Q 5.8125 47.609375 11.28125 51.796875 
Q 16.75 56 26.8125 56 
Q 31.78125 56 36.171875 55.265625 
Q 40.578125 54.546875 44.28125 53.078125 
z
" id="DejaVuSans-115"/>
       </defs>
       <use xlink:href="#DejaVuSans-90"/>
       <use x="68.505859" xlink:href="#DejaVuSans-95"/>
       <use x="118.505859" xlink:href="#DejaVuSans-49"/>
       <use x="182.128906" xlink:href="#DejaVuSans-95"/>
       <use x="232.128906" xlink:href="#DejaVuSans-110"/>
       <use x="295.507812" xlink:href="#DejaVuSans-115"/>
      </g>
     </g>
    </g>
    <g id="xtick_2">
     <g id="line2d_2">
      <g>
       <use style="stroke:#000000;stroke-width:0.8;" x="305.1" xlink:href="#m12cf4f0d4f" y="252"/>
      </g>
     </g>
     <g id="text_2">
      <!-- Z_3_ns -->
      <g transform="translate(287.720313 266.421875)scale(0.1 -0.1)">
       <defs>
        <path d="M 40.578125 39.3125 
Q 47.65625 37.796875 51.625 33 
Q 55.609375 28.21875 55.609375 21.1875 
Q 55.609375 10.40625 48.1875 4.484375 
Q 40.765625 -1.421875 27.09375 -1.421875 
Q 22.515625 -1.421875 17.65625 -0.515625 
Q 12.796875 0.390625 7.625 2.203125 
L 7.625 11.71875 
Q 11.71875 9.328125 16.59375 8.109375 
Q 21.484375 6.890625 26.8125 6.890625 
Q 36.078125 6.890625 40.9375 10.546875 
Q 45.796875 14.203125 45.796875 21.1875 
Q 45.796875 27.640625 41.28125 31.265625 
Q 36.765625 34.90625 28.71875 34.90625 
L 20.21875 34.90625 
L 20.21875 43.015625 
L 29.109375 43.015625 
Q 36.375 43.015625 40.234375 45.921875 
Q 44.09375 48.828125 44.09375 54.296875 
Q 44.09375 59.90625 40.109375 62.90625 
Q 36.140625 65.921875 28.71875 65.921875 
Q 24.65625 65.921875 20.015625 65.03125 
Q 15.375 64.15625 9.8125 62.3125 
L 9.8125 71.09375 
Q 15.4375 72.65625 20.34375 73.4375 
Q 25.25 74.21875 29.59375 74.21875 
Q 40.828125 74.21875 47.359375 69.109375 
Q 53.90625 64.015625 53.90625 55.328125 
Q 53.90625 49.265625 50.4375 45.09375 
Q 46.96875 40.921875 40.578125 39.3125 
z
" id="DejaVuSans-51"/>
       </defs>
       <use xlink:href="#DejaVuSans-90"/>
       <use x="68.505859" xlink:href="#DejaVuSans-95"/>
       <use x="118.505859" xlink:href="#DejaVuSans-51"/>
       <use x="182.128906" xlink:href="#DejaVuSans-95"/>
       <use x="232.128906" xlink:href="#DejaVuSans-110"/>
       <use x="295.507812" xlink:href="#DejaVuSans-115"/>
      </g>
     </g>
    </g>
    <g id="text_3">
     <!-- set -->
     <g transform="translate(213.758594 280.378125)scale(0.1 -0.1)">
      <defs>
       <path d="M 56.203125 29.59375 
L 56.203125 25.203125 
L 14.890625 25.203125 
Q 15.484375 15.921875 20.484375 11.0625 
Q 25.484375 6.203125 34.421875 6.203125 
Q 39.59375 6.203125 44.453125 7.46875 
Q 49.3125 8.734375 54.109375 11.28125 
L 54.109375 2.78125 
Q 49.265625 0.734375 44.1875 -0.34375 
Q 39.109375 -1.421875 33.890625 -1.421875 
Q 20.796875 -1.421875 13.15625 6.1875 
Q 5.515625 13.8125 5.515625 26.8125 
Q 5.515625 40.234375 12.765625 48.109375 
Q 20.015625 56 32.328125 56 
Q 43.359375 56 49.78125 48.890625 
Q 56.203125 41.796875 56.203125 29.59375 
z
M 47.21875 32.234375 
Q 47.125 39.59375 43.09375 43.984375 
Q 39.0625 48.390625 32.421875 48.390625 
Q 24.90625 48.390625 20.390625 44.140625 
Q 15.875 39.890625 15.1875 32.171875 
z
" id="DejaVuSans-101"/>
       <path d="M 18.3125 70.21875 
L 18.3125 54.6875 
L 36.8125 54.6875 
L 36.8125 47.703125 
L 18.3125 47.703125 
L 18.3125 18.015625 
Q 18.3125 11.328125 20.140625 9.421875 
Q 21.96875 7.515625 27.59375 7.515625 
L 36.8125 7.515625 
L 36.8125 0 
L 27.59375 0 
Q 17.1875 0 13.234375 3.875 
Q 9.28125 7.765625 9.28125 18.015625 
L 9.28125 47.703125 
L 2.6875 47.703125 
L 2.6875 54.6875 
L 9.28125 54.6875 
L 9.28125 70.21875 
z
" id="DejaVuSans-116"/>
      </defs>
      <use xlink:href="#DejaVuSans-115"/>
      <use x="52.099609" xlink:href="#DejaVuSans-101"/>
      <use x="113.623047" xlink:href="#DejaVuSans-116"/>
     </g>
    </g>
   </g>
   <g id="matplotlib.axis_2">
    <g id="ytick_1">
     <g id="line2d_3">
      <defs>
       <path d="M 0 0 
L -3.5 0 
" id="me29ae0ccfd" style="stroke:#000000;stroke-width:0.8;"/>
      </defs>
      <g>
       <use style="stroke:#000000;stroke-width:0.8;" x="54" xlink:href="#me29ae0ccfd" y="242.89449"/>
      </g>
     </g>
     <g id="text_4">
      <!-- −2.5 -->
      <g transform="translate(22.717187 246.693709)scale(0.1 -0.1)">
       <defs>
        <path d="M 10.59375 35.5 
L 73.1875 35.5 
L 73.1875 27.203125 
L 10.59375 27.203125 
z
" id="DejaVuSans-8722"/>
        <path d="M 19.1875 8.296875 
L 53.609375 8.296875 
L 53.609375 0 
L 7.328125 0 
L 7.328125 8.296875 
Q 12.9375 14.109375 22.625 23.890625 
Q 32.328125 33.6875 34.8125 36.53125 
Q 39.546875 41.84375 41.421875 45.53125 
Q 43.3125 49.21875 43.3125 52.78125 
Q 43.3125 58.59375 39.234375 62.25 
Q 35.15625 65.921875 28.609375 65.921875 
Q 23.96875 65.921875 18.8125 64.3125 
Q 13.671875 62.703125 7.8125 59.421875 
L 7.8125 69.390625 
Q 13.765625 71.78125 18.9375 73 
Q 24.125 74.21875 28.421875 74.21875 
Q 39.75 74.21875 46.484375 68.546875 
Q 53.21875 62.890625 53.21875 53.421875 
Q 53.21875 48.921875 51.53125 44.890625 
Q 49.859375 40.875 45.40625 35.40625 
Q 44.1875 33.984375 37.640625 27.21875 
Q 31.109375 20.453125 19.1875 8.296875 
z
" id="DejaVuSans-50"/>
        <path d="M 10.6875 12.40625 
L 21 12.40625 
L 21 0 
L 10.6875 0 
z
" id="DejaVuSans-46"/>
        <path d="M 10.796875 72.90625 
L 49.515625 72.90625 
L 49.515625 64.59375 
L 19.828125 64.59375 
L 19.828125 46.734375 
Q 21.96875 47.46875 24.109375 47.828125 
Q 26.265625 48.1875 28.421875 48.1875 
Q 40.625 48.1875 47.75 41.5 
Q 54.890625 34.8125 54.890625 23.390625 
Q 54.890625 11.625 47.5625 5.09375 
Q 40.234375 -1.421875 26.90625 -1.421875 
Q 22.3125 -1.421875 17.546875 -0.640625 
Q 12.796875 0.140625 7.71875 1.703125 
L 7.71875 11.625 
Q 12.109375 9.234375 16.796875 8.0625 
Q 21.484375 6.890625 26.703125 6.890625 
Q 35.15625 6.890625 40.078125 11.328125 
Q 45.015625 15.765625 45.015625 23.390625 
Q 45.015625 31 40.078125 35.4375 
Q 35.15625 39.890625 26.703125 39.890625 
Q 22.75 39.890625 18.8125 39.015625 
Q 14.890625 38.140625 10.796875 36.28125 
z
" id="DejaVuSans-53"/>
       </defs>
       <use xlink:href="#DejaVuSans-8722"/>
       <use x="83.789062" xlink:href="#DejaVuSans-50"/>
       <use x="147.412109" xlink:href="#DejaVuSans-46"/>
       <use x="179.199219" xlink:href="#DejaVuSans-53"/>
      </g>
     </g>
    </g>
    <g id="ytick_2">
     <g id="line2d_4">
      <g>
       <use style="stroke:#000000;stroke-width:0.8;" x="54" xlink:href="#me29ae0ccfd" y="213.801586"/>
      </g>
     </g>
     <g id="text_5">
      <!-- −2.0 -->
      <g transform="translate(22.717187 217.600805)scale(0.1 -0.1)">
       <defs>
        <path d="M 31.78125 66.40625 
Q 24.171875 66.40625 20.328125 58.90625 
Q 16.5 51.421875 16.5 36.375 
Q 16.5 21.390625 20.328125 13.890625 
Q 24.171875 6.390625 31.78125 6.390625 
Q 39.453125 6.390625 43.28125 13.890625 
Q 47.125 21.390625 47.125 36.375 
Q 47.125 51.421875 43.28125 58.90625 
Q 39.453125 66.40625 31.78125 66.40625 
z
M 31.78125 74.21875 
Q 44.046875 74.21875 50.515625 64.515625 
Q 56.984375 54.828125 56.984375 36.375 
Q 56.984375 17.96875 50.515625 8.265625 
Q 44.046875 -1.421875 31.78125 -1.421875 
Q 19.53125 -1.421875 13.0625 8.265625 
Q 6.59375 17.96875 6.59375 36.375 
Q 6.59375 54.828125 13.0625 64.515625 
Q 19.53125 74.21875 31.78125 74.21875 
z
" id="DejaVuSans-48"/>
       </defs>
       <use xlink:href="#DejaVuSans-8722"/>
       <use x="83.789062" xlink:href="#DejaVuSans-50"/>
       <use x="147.412109" xlink:href="#DejaVuSans-46"/>
       <use x="179.199219" xlink:href="#DejaVuSans-48"/>
      </g>
     </g>
    </g>
    <g id="ytick_3">
     <g id="line2d_5">
      <g>
       <use style="stroke:#000000;stroke-width:0.8;" x="54" xlink:href="#me29ae0ccfd" y="184.708683"/>
      </g>
     </g>
     <g id="text_6">
      <!-- −1.5 -->
      <g transform="translate(22.717187 188.507901)scale(0.1 -0.1)">
       <use xlink:href="#DejaVuSans-8722"/>
       <use x="83.789062" xlink:href="#DejaVuSans-49"/>
       <use x="147.412109" xlink:href="#DejaVuSans-46"/>
       <use x="179.199219" xlink:href="#DejaVuSans-53"/>
      </g>
     </g>
    </g>
    <g id="ytick_4">
     <g id="line2d_6">
      <g>
       <use style="stroke:#000000;stroke-width:0.8;" x="54" xlink:href="#me29ae0ccfd" y="155.615779"/>
      </g>
     </g>
     <g id="text_7">
      <!-- −1.0 -->
      <g transform="translate(22.717187 159.414997)scale(0.1 -0.1)">
       <use xlink:href="#DejaVuSans-8722"/>
       <use x="83.789062" xlink:href="#DejaVuSans-49"/>
       <use x="147.412109" xlink:href="#DejaVuSans-46"/>
       <use x="179.199219" xlink:href="#DejaVuSans-48"/>
      </g>
     </g>
    </g>
    <g id="ytick_5">
     <g id="line2d_7">
      <g>
       <use style="stroke:#000000;stroke-width:0.8;" x="54" xlink:href="#me29ae0ccfd" y="126.522875"/>
      </g>
     </g>
     <g id="text_8">
      <!-- −0.5 -->
      <g transform="translate(22.717187 130.322094)scale(0.1 -0.1)">
       <use xlink:href="#DejaVuSans-8722"/>
       <use x="83.789062" xlink:href="#DejaVuSans-48"/>
       <use x="147.412109" xlink:href="#DejaVuSans-46"/>
       <use x="179.199219" xlink:href="#DejaVuSans-53"/>
      </g>
     </g>
    </g>
    <g id="ytick_6">
     <g id="line2d_8">
      <g>
       <use style="stroke:#000000;stroke-width:0.8;" x="54" xlink:href="#me29ae0ccfd" y="97.429971"/>
      </g>
     </g>
     <g id="text_9">
      <!-- 0.0 -->
      <g transform="translate(31.096875 101.22919)scale(0.1 -0.1)">
       <use xlink:href="#DejaVuSans-48"/>
       <use x="63.623047" xlink:href="#DejaVuSans-46"/>
       <use x="95.410156" xlink:href="#DejaVuSans-48"/>
      </g>
     </g>
    </g>
    <g id="ytick_7">
     <g id="line2d_9">
      <g>
       <use style="stroke:#000000;stroke-width:0.8;" x="54" xlink:href="#me29ae0ccfd" y="68.337067"/>
      </g>
     </g>
     <g id="text_10">
      <!-- 0.5 -->
      <g transform="translate(31.096875 72.136286)scale(0.1 -0.1)">
       <use xlink:href="#DejaVuSans-48"/>
       <use x="63.623047" xlink:href="#DejaVuSans-46"/>
       <use x="95.410156" xlink:href="#DejaVuSans-53"/>
      </g>
     </g>
    </g>
    <g id="ytick_8">
     <g id="line2d_10">
      <g>
       <use style="stroke:#000000;stroke-width:0.8;" x="54" xlink:href="#me29ae0ccfd" y="39.244163"/>
      </g>
     </g>
     <g id="text_11">
      <!-- 1.0 -->
      <g transform="translate(31.096875 43.043382)scale(0.1 -0.1)">
       <use xlink:href="#DejaVuSans-49"/>
       <use x="63.623047" xlink:href="#DejaVuSans-46"/>
       <use x="95.410156" xlink:href="#DejaVuSans-48"/>
      </g>
     </g>
    </g>
    <g id="text_12">
     <!-- value -->
     <g transform="translate(16.6375 156.937813)rotate(-90)scale(0.1 -0.1)">
      <defs>
       <path d="M 2.984375 54.6875 
L 12.5 54.6875 
L 29.59375 8.796875 
L 46.6875 54.6875 
L 56.203125 54.6875 
L 35.6875 0 
L 23.484375 0 
z
" id="DejaVuSans-118"/>
       <path d="M 34.28125 27.484375 
Q 23.390625 27.484375 19.1875 25 
Q 14.984375 22.515625 14.984375 16.5 
Q 14.984375 11.71875 18.140625 8.90625 
Q 21.296875 6.109375 26.703125 6.109375 
Q 34.1875 6.109375 38.703125 11.40625 
Q 43.21875 16.703125 43.21875 25.484375 
L 43.21875 27.484375 
z
M 52.203125 31.203125 
L 52.203125 0 
L 43.21875 0 
L 43.21875 8.296875 
Q 40.140625 3.328125 35.546875 0.953125 
Q 30.953125 -1.421875 24.3125 -1.421875 
Q 15.921875 -1.421875 10.953125 3.296875 
Q 6 8.015625 6 15.921875 
Q 6 25.140625 12.171875 29.828125 
Q 18.359375 34.515625 30.609375 34.515625 
L 43.21875 34.515625 
L 43.21875 35.40625 
Q 43.21875 41.609375 39.140625 45 
Q 35.0625 48.390625 27.6875 48.390625 
Q 23 48.390625 18.546875 47.265625 
Q 14.109375 46.140625 10.015625 43.890625 
L 10.015625 52.203125 
Q 14.9375 54.109375 19.578125 55.046875 
Q 24.21875 56 28.609375 56 
Q 40.484375 56 46.34375 49.84375 
Q 52.203125 43.703125 52.203125 31.203125 
z
" id="DejaVuSans-97"/>
       <path d="M 9.421875 75.984375 
L 18.40625 75.984375 
L 18.40625 0 
L 9.421875 0 
z
" id="DejaVuSans-108"/>
       <path d="M 8.5 21.578125 
L 8.5 54.6875 
L 17.484375 54.6875 
L 17.484375 21.921875 
Q 17.484375 14.15625 20.5 10.265625 
Q 23.53125 6.390625 29.59375 6.390625 
Q 36.859375 6.390625 41.078125 11.03125 
Q 45.3125 15.671875 45.3125 23.6875 
L 45.3125 54.6875 
L 54.296875 54.6875 
L 54.296875 0 
L 45.3125 0 
L 45.3125 8.40625 
Q 42.046875 3.421875 37.71875 1 
Q 33.40625 -1.421875 27.6875 -1.421875 
Q 18.265625 -1.421875 13.375 4.4375 
Q 8.5 10.296875 8.5 21.578125 
z
M 31.109375 56 
z
" id="DejaVuSans-117"/>
      </defs>
      <use xlink:href="#DejaVuSans-118"/>
      <use x="59.179688" xlink:href="#DejaVuSans-97"/>
      <use x="120.458984" xlink:href="#DejaVuSans-108"/>
      <use x="148.242188" xlink:href="#DejaVuSans-117"/>
      <use x="211.621094" xlink:href="#DejaVuSans-101"/>
     </g>
    </g>
   </g>
   <g id="line2d_11">
    <path clip-path="url(#p1041f28dd1)" d="M 104.22 100.855468 
L 104.22 91.383127 
" style="fill:none;stroke:#3f3f3f;stroke-linecap:square;stroke-width:1.5;"/>
   </g>
   <g id="line2d_12">
    <path clip-path="url(#p1041f28dd1)" d="M 104.22 97.30282 
L 104.22 94.932621 
" style="fill:none;stroke:#3f3f3f;stroke-linecap:square;stroke-width:4.5;"/>
   </g>
   <g id="line2d_13">
    <path clip-path="url(#p1041f28dd1)" d="M 338.58 102.32176 
L 338.58 88.241163 
" style="fill:none;stroke:#3f3f3f;stroke-linecap:square;stroke-width:1.5;"/>
   </g>
   <g id="line2d_14">
    <path clip-path="url(#p1041f28dd1)" d="M 338.58 97.07515 
L 338.58 93.53613 
" style="fill:none;stroke:#3f3f3f;stroke-linecap:square;stroke-width:4.5;"/>
   </g>
   <g id="patch_5">
    <path d="M 54 252 
L 54 34.56 
" style="fill:none;stroke:#000000;stroke-linecap:square;stroke-linejoin:miter;stroke-width:0.8;"/>
   </g>
   <g id="patch_6">
    <path d="M 388.8 252 
L 388.8 34.56 
" style="fill:none;stroke:#000000;stroke-linecap:square;stroke-linejoin:miter;stroke-width:0.8;"/>
   </g>
   <g id="patch_7">
    <path d="M 54 252 
L 388.8 252 
" style="fill:none;stroke:#000000;stroke-linecap:square;stroke-linejoin:miter;stroke-width:0.8;"/>
   </g>
   <g id="patch_8">
    <path d="M 54 34.56 
L 388.8 34.56 
" style="fill:none;stroke:#000000;stroke-linecap:square;stroke-linejoin:miter;stroke-width:0.8;"/>
   </g>
   <g id="PathCollection_1">
    <defs>
     <path d="M 0 1.5 
C 0.397805 1.5 0.77937 1.341951 1.06066 1.06066 
C 1.341951 0.77937 1.5 0.397805 1.5 0 
C 1.5 -0.397805 1.341951 -0.77937 1.06066 -1.06066 
C 0.77937 -1.341951 0.397805 -1.5 0 -1.5 
C -0.397805 -1.5 -0.77937 -1.341951 -1.06066 -1.06066 
C -1.341951 -0.77937 -1.5 -0.397805 -1.5 0 
C -1.5 0.397805 -1.341951 0.77937 -1.06066 1.06066 
C -0.77937 1.341951 -0.397805 1.5 0 1.5 
z
" id="mec9c18f606" style="stroke:#3f3f3f;"/>
    </defs>
    <g clip-path="url(#p1041f28dd1)">
     <use style="fill:#ffffff;stroke:#3f3f3f;" x="104.22" xlink:href="#mec9c18f606" y="96.572084"/>
    </g>
   </g>
   <g id="PathCollection_2">
    <g clip-path="url(#p1041f28dd1)">
     <use style="fill:#ffffff;stroke:#3f3f3f;" x="338.58" xlink:href="#mec9c18f606" y="95.893375"/>
    </g>
   </g>
   <g id="legend_1">
    <g id="patch_9">
     <path d="M 315.040625 87.150625 
L 381.8 87.150625 
Q 383.8 87.150625 383.8 85.150625 
L 383.8 41.56 
Q 383.8 39.56 381.8 39.56 
L 315.040625 39.56 
Q 313.040625 39.56 313.040625 41.56 
L 313.040625 85.150625 
Q 313.040625 87.150625 315.040625 87.150625 
z
" style="fill:#ffffff;opacity:0.8;stroke:#cccccc;stroke-linejoin:miter;"/>
    </g>
    <g id="text_13">
     <!-- set -->
     <g transform="translate(340.778906 51.158437)scale(0.1 -0.1)">
      <use xlink:href="#DejaVuSans-115"/>
      <use x="52.099609" xlink:href="#DejaVuSans-101"/>
      <use x="113.623047" xlink:href="#DejaVuSans-116"/>
     </g>
    </g>
    <g id="patch_10">
     <path d="M 317.040625 65.836562 
L 337.040625 65.836562 
L 337.040625 58.836562 
L 317.040625 58.836562 
z
" style="fill:#3274a1;stroke:#3f3f3f;stroke-linejoin:miter;stroke-width:0.75;"/>
    </g>
    <g id="text_14">
     <!-- Z_1_ns -->
     <g transform="translate(345.040625 65.836562)scale(0.1 -0.1)">
      <use xlink:href="#DejaVuSans-90"/>
      <use x="68.505859" xlink:href="#DejaVuSans-95"/>
      <use x="118.505859" xlink:href="#DejaVuSans-49"/>
      <use x="182.128906" xlink:href="#DejaVuSans-95"/>
      <use x="232.128906" xlink:href="#DejaVuSans-110"/>
      <use x="295.507812" xlink:href="#DejaVuSans-115"/>
     </g>
    </g>
    <g id="patch_11">
     <path d="M 317.040625 80.792812 
L 337.040625 80.792812 
L 337.040625 73.792812 
L 317.040625 73.792812 
z
" style="fill:#e1812c;stroke:#3f3f3f;stroke-linejoin:miter;stroke-width:0.75;"/>
    </g>
    <g id="text_15">
     <!-- Z_3_ns -->
     <g transform="translate(345.040625 80.792812)scale(0.1 -0.1)">
      <use xlink:href="#DejaVuSans-90"/>
      <use x="68.505859" xlink:href="#DejaVuSans-95"/>
      <use x="118.505859" xlink:href="#DejaVuSans-51"/>
      <use x="182.128906" xlink:href="#DejaVuSans-95"/>
      <use x="232.128906" xlink:href="#DejaVuSans-110"/>
      <use x="295.507812" xlink:href="#DejaVuSans-115"/>
     </g>
    </g>
   </g>
  </g>
 </g>
 <defs>
  <clipPath id="p1041f28dd1">
   <rect height="217.44" width="334.8" x="54" y="34.56"/>
  </clipPath>
 </defs>
</svg>
