<?xml version="1.0" encoding="utf-8" standalone="no"?>
<!DOCTYPE svg PUBLIC "-//W3C//DTD SVG 1.1//EN"
  "http://www.w3.org/Graphics/SVG/1.1/DTD/svg11.dtd">
<!-- Created with matplotlib (https://matplotlib.org/) -->
<svg height="345.6pt" version="1.1" viewBox="0 0 460.8 345.6" width="460.8pt" xmlns="http://www.w3.org/2000/svg" xmlns:xlink="http://www.w3.org/1999/xlink">
 <metadata>
  <rdf:RDF xmlns:cc="http://creativecommons.org/ns#" xmlns:dc="http://purl.org/dc/elements/1.1/" xmlns:rdf="http://www.w3.org/1999/02/22-rdf-syntax-ns#">
   <cc:Work>
    <dc:type rdf:resource="http://purl.org/dc/dcmitype/StillImage"/>
    <dc:date>2024-05-08T19:45:48.818066</dc:date>
    <dc:format>image/svg+xml</dc:format>
    <dc:creator>
     <cc:Agent>
      <dc:title>Matplotlib v3.3.4, https://matplotlib.org/</dc:title>
     </cc:Agent>
    </dc:creator>
   </cc:Work>
  </rdf:RDF>
 </metadata>
 <defs>
  <style type="text/css">*{stroke-linecap:butt;stroke-linejoin:round;}</style>
 </defs>
 <g id="figure_1">
  <g id="patch_1">
   <path d="M 0 345.6 
L 460.8 345.6 
L 460.8 0 
L 0 0 
z
" style="fill:#ffffff;"/>
  </g>
  <g id="axes_1">
   <g id="patch_2">
    <path d="M 57.6 307.584 
L 414.72 307.584 
L 414.72 41.472 
L 57.6 41.472 
z
" style="fill:#ffffff;"/>
   </g>
   <g id="matplotlib.axis_1">
    <g id="xtick_1">
     <g id="line2d_1">
      <defs>
       <path d="M 0 0 
L 0 3.5 
" id="m8ec87a5933" style="stroke:#000000;stroke-width:0.8;"/>
      </defs>
      <g>
       <use style="stroke:#000000;stroke-width:0.8;" x="73.832727" xlink:href="#m8ec87a5933" y="307.584"/>
      </g>
     </g>
     <g id="text_1">
      <!-- 0 -->
      <g transform="translate(70.651477 322.182437)scale(0.1 -0.1)">
       <defs>
        <path d="M 31.78125 66.40625 
Q 24.171875 66.40625 20.328125 58.90625 
Q 16.5 51.421875 16.5 36.375 
Q 16.5 21.390625 20.328125 13.890625 
Q 24.171875 6.390625 31.78125 6.390625 
Q 39.453125 6.390625 43.28125 13.890625 
Q 47.125 21.390625 47.125 36.375 
Q 47.125 51.421875 43.28125 58.90625 
Q 39.453125 66.40625 31.78125 66.40625 
z
M 31.78125 74.21875 
Q 44.046875 74.21875 50.515625 64.515625 
Q 56.984375 54.828125 56.984375 36.375 
Q 56.984375 17.96875 50.515625 8.265625 
Q 44.046875 -1.421875 31.78125 -1.421875 
Q 19.53125 -1.421875 13.0625 8.265625 
Q 6.59375 17.96875 6.59375 36.375 
Q 6.59375 54.828125 13.0625 64.515625 
Q 19.53125 74.21875 31.78125 74.21875 
z
" id="DejaVuSans-48"/>
       </defs>
       <use xlink:href="#DejaVuSans-48"/>
      </g>
     </g>
    </g>
    <g id="xtick_2">
     <g id="line2d_2">
      <g>
       <use style="stroke:#000000;stroke-width:0.8;" x="114.618474" xlink:href="#m8ec87a5933" y="307.584"/>
      </g>
     </g>
     <g id="text_2">
      <!-- 25 -->
      <g transform="translate(108.255974 322.182437)scale(0.1 -0.1)">
       <defs>
        <path d="M 19.1875 8.296875 
L 53.609375 8.296875 
L 53.609375 0 
L 7.328125 0 
L 7.328125 8.296875 
Q 12.9375 14.109375 22.625 23.890625 
Q 32.328125 33.6875 34.8125 36.53125 
Q 39.546875 41.84375 41.421875 45.53125 
Q 43.3125 49.21875 43.3125 52.78125 
Q 43.3125 58.59375 39.234375 62.25 
Q 35.15625 65.921875 28.609375 65.921875 
Q 23.96875 65.921875 18.8125 64.3125 
Q 13.671875 62.703125 7.8125 59.421875 
L 7.8125 69.390625 
Q 13.765625 71.78125 18.9375 73 
Q 24.125 74.21875 28.421875 74.21875 
Q 39.75 74.21875 46.484375 68.546875 
Q 53.21875 62.890625 53.21875 53.421875 
Q 53.21875 48.921875 51.53125 44.890625 
Q 49.859375 40.875 45.40625 35.40625 
Q 44.1875 33.984375 37.640625 27.21875 
Q 31.109375 20.453125 19.1875 8.296875 
z
" id="DejaVuSans-50"/>
        <path d="M 10.796875 72.90625 
L 49.515625 72.90625 
L 49.515625 64.59375 
L 19.828125 64.59375 
L 19.828125 46.734375 
Q 21.96875 47.46875 24.109375 47.828125 
Q 26.265625 48.1875 28.421875 48.1875 
Q 40.625 48.1875 47.75 41.5 
Q 54.890625 34.8125 54.890625 23.390625 
Q 54.890625 11.625 47.5625 5.09375 
Q 40.234375 -1.421875 26.90625 -1.421875 
Q 22.3125 -1.421875 17.546875 -0.640625 
Q 12.796875 0.140625 7.71875 1.703125 
L 7.71875 11.625 
Q 12.109375 9.234375 16.796875 8.0625 
Q 21.484375 6.890625 26.703125 6.890625 
Q 35.15625 6.890625 40.078125 11.328125 
Q 45.015625 15.765625 45.015625 23.390625 
Q 45.015625 31 40.078125 35.4375 
Q 35.15625 39.890625 26.703125 39.890625 
Q 22.75 39.890625 18.8125 39.015625 
Q 14.890625 38.140625 10.796875 36.28125 
z
" id="DejaVuSans-53"/>
       </defs>
       <use xlink:href="#DejaVuSans-50"/>
       <use x="63.623047" xlink:href="#DejaVuSans-53"/>
      </g>
     </g>
    </g>
    <g id="xtick_3">
     <g id="line2d_3">
      <g>
       <use style="stroke:#000000;stroke-width:0.8;" x="155.404221" xlink:href="#m8ec87a5933" y="307.584"/>
      </g>
     </g>
     <g id="text_3">
      <!-- 50 -->
      <g transform="translate(149.041721 322.182437)scale(0.1 -0.1)">
       <use xlink:href="#DejaVuSans-53"/>
       <use x="63.623047" xlink:href="#DejaVuSans-48"/>
      </g>
     </g>
    </g>
    <g id="xtick_4">
     <g id="line2d_4">
      <g>
       <use style="stroke:#000000;stroke-width:0.8;" x="196.189968" xlink:href="#m8ec87a5933" y="307.584"/>
      </g>
     </g>
     <g id="text_4">
      <!-- 75 -->
      <g transform="translate(189.827468 322.182437)scale(0.1 -0.1)">
       <defs>
        <path d="M 8.203125 72.90625 
L 55.078125 72.90625 
L 55.078125 68.703125 
L 28.609375 0 
L 18.3125 0 
L 43.21875 64.59375 
L 8.203125 64.59375 
z
" id="DejaVuSans-55"/>
       </defs>
       <use xlink:href="#DejaVuSans-55"/>
       <use x="63.623047" xlink:href="#DejaVuSans-53"/>
      </g>
     </g>
    </g>
    <g id="xtick_5">
     <g id="line2d_5">
      <g>
       <use style="stroke:#000000;stroke-width:0.8;" x="236.975715" xlink:href="#m8ec87a5933" y="307.584"/>
      </g>
     </g>
     <g id="text_5">
      <!-- 100 -->
      <g transform="translate(227.431965 322.182437)scale(0.1 -0.1)">
       <defs>
        <path d="M 12.40625 8.296875 
L 28.515625 8.296875 
L 28.515625 63.921875 
L 10.984375 60.40625 
L 10.984375 69.390625 
L 28.421875 72.90625 
L 38.28125 72.90625 
L 38.28125 8.296875 
L 54.390625 8.296875 
L 54.390625 0 
L 12.40625 0 
z
" id="DejaVuSans-49"/>
       </defs>
       <use xlink:href="#DejaVuSans-49"/>
       <use x="63.623047" xlink:href="#DejaVuSans-48"/>
       <use x="127.246094" xlink:href="#DejaVuSans-48"/>
      </g>
     </g>
    </g>
    <g id="xtick_6">
     <g id="line2d_6">
      <g>
       <use style="stroke:#000000;stroke-width:0.8;" x="277.761462" xlink:href="#m8ec87a5933" y="307.584"/>
      </g>
     </g>
     <g id="text_6">
      <!-- 125 -->
      <g transform="translate(268.217712 322.182437)scale(0.1 -0.1)">
       <use xlink:href="#DejaVuSans-49"/>
       <use x="63.623047" xlink:href="#DejaVuSans-50"/>
       <use x="127.246094" xlink:href="#DejaVuSans-53"/>
      </g>
     </g>
    </g>
    <g id="xtick_7">
     <g id="line2d_7">
      <g>
       <use style="stroke:#000000;stroke-width:0.8;" x="318.547209" xlink:href="#m8ec87a5933" y="307.584"/>
      </g>
     </g>
     <g id="text_7">
      <!-- 150 -->
      <g transform="translate(309.003459 322.182437)scale(0.1 -0.1)">
       <use xlink:href="#DejaVuSans-49"/>
       <use x="63.623047" xlink:href="#DejaVuSans-53"/>
       <use x="127.246094" xlink:href="#DejaVuSans-48"/>
      </g>
     </g>
    </g>
    <g id="xtick_8">
     <g id="line2d_8">
      <g>
       <use style="stroke:#000000;stroke-width:0.8;" x="359.332956" xlink:href="#m8ec87a5933" y="307.584"/>
      </g>
     </g>
     <g id="text_8">
      <!-- 175 -->
      <g transform="translate(349.789206 322.182437)scale(0.1 -0.1)">
       <use xlink:href="#DejaVuSans-49"/>
       <use x="63.623047" xlink:href="#DejaVuSans-55"/>
       <use x="127.246094" xlink:href="#DejaVuSans-53"/>
      </g>
     </g>
    </g>
    <g id="xtick_9">
     <g id="line2d_9">
      <g>
       <use style="stroke:#000000;stroke-width:0.8;" x="400.118703" xlink:href="#m8ec87a5933" y="307.584"/>
      </g>
     </g>
     <g id="text_9">
      <!-- 200 -->
      <g transform="translate(390.574953 322.182437)scale(0.1 -0.1)">
       <use xlink:href="#DejaVuSans-50"/>
       <use x="63.623047" xlink:href="#DejaVuSans-48"/>
       <use x="127.246094" xlink:href="#DejaVuSans-48"/>
      </g>
     </g>
    </g>
    <g id="text_10">
     <!-- epoch -->
     <g transform="translate(220.931875 335.860562)scale(0.1 -0.1)">
      <defs>
       <path d="M 56.203125 29.59375 
L 56.203125 25.203125 
L 14.890625 25.203125 
Q 15.484375 15.921875 20.484375 11.0625 
Q 25.484375 6.203125 34.421875 6.203125 
Q 39.59375 6.203125 44.453125 7.46875 
Q 49.3125 8.734375 54.109375 11.28125 
L 54.109375 2.78125 
Q 49.265625 0.734375 44.1875 -0.34375 
Q 39.109375 -1.421875 33.890625 -1.421875 
Q 20.796875 -1.421875 13.15625 6.1875 
Q 5.515625 13.8125 5.515625 26.8125 
Q 5.515625 40.234375 12.765625 48.109375 
Q 20.015625 56 32.328125 56 
Q 43.359375 56 49.78125 48.890625 
Q 56.203125 41.796875 56.203125 29.59375 
z
M 47.21875 32.234375 
Q 47.125 39.59375 43.09375 43.984375 
Q 39.0625 48.390625 32.421875 48.390625 
Q 24.90625 48.390625 20.390625 44.140625 
Q 15.875 39.890625 15.1875 32.171875 
z
" id="DejaVuSans-101"/>
       <path d="M 18.109375 8.203125 
L 18.109375 -20.796875 
L 9.078125 -20.796875 
L 9.078125 54.6875 
L 18.109375 54.6875 
L 18.109375 46.390625 
Q 20.953125 51.265625 25.265625 53.625 
Q 29.59375 56 35.59375 56 
Q 45.5625 56 51.78125 48.09375 
Q 58.015625 40.1875 58.015625 27.296875 
Q 58.015625 14.40625 51.78125 6.484375 
Q 45.5625 -1.421875 35.59375 -1.421875 
Q 29.59375 -1.421875 25.265625 0.953125 
Q 20.953125 3.328125 18.109375 8.203125 
z
M 48.6875 27.296875 
Q 48.6875 37.203125 44.609375 42.84375 
Q 40.53125 48.484375 33.40625 48.484375 
Q 26.265625 48.484375 22.1875 42.84375 
Q 18.109375 37.203125 18.109375 27.296875 
Q 18.109375 17.390625 22.1875 11.75 
Q 26.265625 6.109375 33.40625 6.109375 
Q 40.53125 6.109375 44.609375 11.75 
Q 48.6875 17.390625 48.6875 27.296875 
z
" id="DejaVuSans-112"/>
       <path d="M 30.609375 48.390625 
Q 23.390625 48.390625 19.1875 42.75 
Q 14.984375 37.109375 14.984375 27.296875 
Q 14.984375 17.484375 19.15625 11.84375 
Q 23.34375 6.203125 30.609375 6.203125 
Q 37.796875 6.203125 41.984375 11.859375 
Q 46.1875 17.53125 46.1875 27.296875 
Q 46.1875 37.015625 41.984375 42.703125 
Q 37.796875 48.390625 30.609375 48.390625 
z
M 30.609375 56 
Q 42.328125 56 49.015625 48.375 
Q 55.71875 40.765625 55.71875 27.296875 
Q 55.71875 13.875 49.015625 6.21875 
Q 42.328125 -1.421875 30.609375 -1.421875 
Q 18.84375 -1.421875 12.171875 6.21875 
Q 5.515625 13.875 5.515625 27.296875 
Q 5.515625 40.765625 12.171875 48.375 
Q 18.84375 56 30.609375 56 
z
" id="DejaVuSans-111"/>
       <path d="M 48.78125 52.59375 
L 48.78125 44.1875 
Q 44.96875 46.296875 41.140625 47.34375 
Q 37.3125 48.390625 33.40625 48.390625 
Q 24.65625 48.390625 19.8125 42.84375 
Q 14.984375 37.3125 14.984375 27.296875 
Q 14.984375 17.28125 19.8125 11.734375 
Q 24.65625 6.203125 33.40625 6.203125 
Q 37.3125 6.203125 41.140625 7.25 
Q 44.96875 8.296875 48.78125 10.40625 
L 48.78125 2.09375 
Q 45.015625 0.34375 40.984375 -0.53125 
Q 36.96875 -1.421875 32.421875 -1.421875 
Q 20.0625 -1.421875 12.78125 6.34375 
Q 5.515625 14.109375 5.515625 27.296875 
Q 5.515625 40.671875 12.859375 48.328125 
Q 20.21875 56 33.015625 56 
Q 37.15625 56 41.109375 55.140625 
Q 45.0625 54.296875 48.78125 52.59375 
z
" id="DejaVuSans-99"/>
       <path d="M 54.890625 33.015625 
L 54.890625 0 
L 45.90625 0 
L 45.90625 32.71875 
Q 45.90625 40.484375 42.875 44.328125 
Q 39.84375 48.1875 33.796875 48.1875 
Q 26.515625 48.1875 22.3125 43.546875 
Q 18.109375 38.921875 18.109375 30.90625 
L 18.109375 0 
L 9.078125 0 
L 9.078125 75.984375 
L 18.109375 75.984375 
L 18.109375 46.1875 
Q 21.34375 51.125 25.703125 53.5625 
Q 30.078125 56 35.796875 56 
Q 45.21875 56 50.046875 50.171875 
Q 54.890625 44.34375 54.890625 33.015625 
z
" id="DejaVuSans-104"/>
      </defs>
      <use xlink:href="#DejaVuSans-101"/>
      <use x="61.523438" xlink:href="#DejaVuSans-112"/>
      <use x="125" xlink:href="#DejaVuSans-111"/>
      <use x="186.181641" xlink:href="#DejaVuSans-99"/>
      <use x="241.162109" xlink:href="#DejaVuSans-104"/>
     </g>
    </g>
   </g>
   <g id="matplotlib.axis_2">
    <g id="ytick_1">
     <g id="line2d_10">
      <defs>
       <path d="M 0 0 
L -3.5 0 
" id="m809309b6c6" style="stroke:#000000;stroke-width:0.8;"/>
      </defs>
      <g>
       <use style="stroke:#000000;stroke-width:0.8;" x="57.6" xlink:href="#m809309b6c6" y="291.412018"/>
      </g>
     </g>
     <g id="text_11">
      <!-- 0.0015 -->
      <g transform="translate(15.609375 295.211237)scale(0.1 -0.1)">
       <defs>
        <path d="M 10.6875 12.40625 
L 21 12.40625 
L 21 0 
L 10.6875 0 
z
" id="DejaVuSans-46"/>
       </defs>
       <use xlink:href="#DejaVuSans-48"/>
       <use x="63.623047" xlink:href="#DejaVuSans-46"/>
       <use x="95.410156" xlink:href="#DejaVuSans-48"/>
       <use x="159.033203" xlink:href="#DejaVuSans-48"/>
       <use x="222.65625" xlink:href="#DejaVuSans-49"/>
       <use x="286.279297" xlink:href="#DejaVuSans-53"/>
      </g>
     </g>
    </g>
    <g id="ytick_2">
     <g id="line2d_11">
      <g>
       <use style="stroke:#000000;stroke-width:0.8;" x="57.6" xlink:href="#m809309b6c6" y="247.260114"/>
      </g>
     </g>
     <g id="text_12">
      <!-- 0.0020 -->
      <g transform="translate(15.609375 251.059333)scale(0.1 -0.1)">
       <use xlink:href="#DejaVuSans-48"/>
       <use x="63.623047" xlink:href="#DejaVuSans-46"/>
       <use x="95.410156" xlink:href="#DejaVuSans-48"/>
       <use x="159.033203" xlink:href="#DejaVuSans-48"/>
       <use x="222.65625" xlink:href="#DejaVuSans-50"/>
       <use x="286.279297" xlink:href="#DejaVuSans-48"/>
      </g>
     </g>
    </g>
    <g id="ytick_3">
     <g id="line2d_12">
      <g>
       <use style="stroke:#000000;stroke-width:0.8;" x="57.6" xlink:href="#m809309b6c6" y="203.10821"/>
      </g>
     </g>
     <g id="text_13">
      <!-- 0.0025 -->
      <g transform="translate(15.609375 206.907428)scale(0.1 -0.1)">
       <use xlink:href="#DejaVuSans-48"/>
       <use x="63.623047" xlink:href="#DejaVuSans-46"/>
       <use x="95.410156" xlink:href="#DejaVuSans-48"/>
       <use x="159.033203" xlink:href="#DejaVuSans-48"/>
       <use x="222.65625" xlink:href="#DejaVuSans-50"/>
       <use x="286.279297" xlink:href="#DejaVuSans-53"/>
      </g>
     </g>
    </g>
    <g id="ytick_4">
     <g id="line2d_13">
      <g>
       <use style="stroke:#000000;stroke-width:0.8;" x="57.6" xlink:href="#m809309b6c6" y="158.956305"/>
      </g>
     </g>
     <g id="text_14">
      <!-- 0.0030 -->
      <g transform="translate(15.609375 162.755524)scale(0.1 -0.1)">
       <defs>
        <path d="M 40.578125 39.3125 
Q 47.65625 37.796875 51.625 33 
Q 55.609375 28.21875 55.609375 21.1875 
Q 55.609375 10.40625 48.1875 4.484375 
Q 40.765625 -1.421875 27.09375 -1.421875 
Q 22.515625 -1.421875 17.65625 -0.515625 
Q 12.796875 0.390625 7.625 2.203125 
L 7.625 11.71875 
Q 11.71875 9.328125 16.59375 8.109375 
Q 21.484375 6.890625 26.8125 6.890625 
Q 36.078125 6.890625 40.9375 10.546875 
Q 45.796875 14.203125 45.796875 21.1875 
Q 45.796875 27.640625 41.28125 31.265625 
Q 36.765625 34.90625 28.71875 34.90625 
L 20.21875 34.90625 
L 20.21875 43.015625 
L 29.109375 43.015625 
Q 36.375 43.015625 40.234375 45.921875 
Q 44.09375 48.828125 44.09375 54.296875 
Q 44.09375 59.90625 40.109375 62.90625 
Q 36.140625 65.921875 28.71875 65.921875 
Q 24.65625 65.921875 20.015625 65.03125 
Q 15.375 64.15625 9.8125 62.3125 
L 9.8125 71.09375 
Q 15.4375 72.65625 20.34375 73.4375 
Q 25.25 74.21875 29.59375 74.21875 
Q 40.828125 74.21875 47.359375 69.109375 
Q 53.90625 64.015625 53.90625 55.328125 
Q 53.90625 49.265625 50.4375 45.09375 
Q 46.96875 40.921875 40.578125 39.3125 
z
" id="DejaVuSans-51"/>
       </defs>
       <use xlink:href="#DejaVuSans-48"/>
       <use x="63.623047" xlink:href="#DejaVuSans-46"/>
       <use x="95.410156" xlink:href="#DejaVuSans-48"/>
       <use x="159.033203" xlink:href="#DejaVuSans-48"/>
       <use x="222.65625" xlink:href="#DejaVuSans-51"/>
       <use x="286.279297" xlink:href="#DejaVuSans-48"/>
      </g>
     </g>
    </g>
    <g id="ytick_5">
     <g id="line2d_14">
      <g>
       <use style="stroke:#000000;stroke-width:0.8;" x="57.6" xlink:href="#m809309b6c6" y="114.804401"/>
      </g>
     </g>
     <g id="text_15">
      <!-- 0.0035 -->
      <g transform="translate(15.609375 118.60362)scale(0.1 -0.1)">
       <use xlink:href="#DejaVuSans-48"/>
       <use x="63.623047" xlink:href="#DejaVuSans-46"/>
       <use x="95.410156" xlink:href="#DejaVuSans-48"/>
       <use x="159.033203" xlink:href="#DejaVuSans-48"/>
       <use x="222.65625" xlink:href="#DejaVuSans-51"/>
       <use x="286.279297" xlink:href="#DejaVuSans-53"/>
      </g>
     </g>
    </g>
    <g id="ytick_6">
     <g id="line2d_15">
      <g>
       <use style="stroke:#000000;stroke-width:0.8;" x="57.6" xlink:href="#m809309b6c6" y="70.652497"/>
      </g>
     </g>
     <g id="text_16">
      <!-- 0.0040 -->
      <g transform="translate(15.609375 74.451716)scale(0.1 -0.1)">
       <defs>
        <path d="M 37.796875 64.3125 
L 12.890625 25.390625 
L 37.796875 25.390625 
z
M 35.203125 72.90625 
L 47.609375 72.90625 
L 47.609375 25.390625 
L 58.015625 25.390625 
L 58.015625 17.1875 
L 47.609375 17.1875 
L 47.609375 0 
L 37.796875 0 
L 37.796875 17.1875 
L 4.890625 17.1875 
L 4.890625 26.703125 
z
" id="DejaVuSans-52"/>
       </defs>
       <use xlink:href="#DejaVuSans-48"/>
       <use x="63.623047" xlink:href="#DejaVuSans-46"/>
       <use x="95.410156" xlink:href="#DejaVuSans-48"/>
       <use x="159.033203" xlink:href="#DejaVuSans-48"/>
       <use x="222.65625" xlink:href="#DejaVuSans-52"/>
       <use x="286.279297" xlink:href="#DejaVuSans-48"/>
      </g>
     </g>
    </g>
    <g id="text_17">
     <!-- loss -->
     <g transform="translate(9.529687 184.185812)rotate(-90)scale(0.1 -0.1)">
      <defs>
       <path d="M 9.421875 75.984375 
L 18.40625 75.984375 
L 18.40625 0 
L 9.421875 0 
z
" id="DejaVuSans-108"/>
       <path d="M 44.28125 53.078125 
L 44.28125 44.578125 
Q 40.484375 46.53125 36.375 47.5 
Q 32.28125 48.484375 27.875 48.484375 
Q 21.1875 48.484375 17.84375 46.4375 
Q 14.5 44.390625 14.5 40.28125 
Q 14.5 37.15625 16.890625 35.375 
Q 19.28125 33.59375 26.515625 31.984375 
L 29.59375 31.296875 
Q 39.15625 29.25 43.1875 25.515625 
Q 47.21875 21.78125 47.21875 15.09375 
Q 47.21875 7.46875 41.1875 3.015625 
Q 35.15625 -1.421875 24.609375 -1.421875 
Q 20.21875 -1.421875 15.453125 -0.5625 
Q 10.6875 0.296875 5.421875 2 
L 5.421875 11.28125 
Q 10.40625 8.6875 15.234375 7.390625 
Q 20.0625 6.109375 24.8125 6.109375 
Q 31.15625 6.109375 34.5625 8.28125 
Q 37.984375 10.453125 37.984375 14.40625 
Q 37.984375 18.0625 35.515625 20.015625 
Q 33.0625 21.96875 24.703125 23.78125 
L 21.578125 24.515625 
Q 13.234375 26.265625 9.515625 29.90625 
Q 5.8125 33.546875 5.8125 39.890625 
Q 5.8125 47.609375 11.28125 51.796875 
Q 16.75 56 26.8125 56 
Q 31.78125 56 36.171875 55.265625 
Q 40.578125 54.546875 44.28125 53.078125 
z
" id="DejaVuSans-115"/>
      </defs>
      <use xlink:href="#DejaVuSans-108"/>
      <use x="27.783203" xlink:href="#DejaVuSans-111"/>
      <use x="88.964844" xlink:href="#DejaVuSans-115"/>
      <use x="141.064453" xlink:href="#DejaVuSans-115"/>
     </g>
    </g>
   </g>
   <g id="line2d_16">
    <path clip-path="url(#pe8b8a79589)" d="M 73.832727 53.568 
L 75.464157 117.389963 
L 80.358447 139.77773 
L 81.989877 146.659721 
L 83.621307 160.937842 
L 85.252736 176.592502 
L 88.515596 198.739534 
L 90.147026 207.524699 
L 91.778456 214.65558 
L 93.409886 219.426053 
L 96.672746 228.13791 
L 99.935605 235.638301 
L 101.567035 238.186762 
L 103.198465 241.465793 
L 104.829895 243.391656 
L 106.461325 245.937531 
L 109.724185 250.302706 
L 112.987044 253.729286 
L 114.618474 254.270914 
L 116.249904 256.340727 
L 117.881334 258.793945 
L 119.512764 259.10111 
L 121.144194 261.603972 
L 122.775624 261.590545 
L 124.407053 264.189945 
L 126.038483 264.397078 
L 127.669913 265.902754 
L 129.301343 267.09712 
L 132.564203 268.94149 
L 134.195633 269.335335 
L 135.827063 270.903491 
L 137.458492 271.109475 
L 139.089922 272.312821 
L 140.721352 272.810235 
L 142.352782 273.6616 
L 143.984212 273.946098 
L 145.615642 275.047337 
L 148.878502 275.395684 
L 150.509931 277.311388 
L 152.141361 275.251815 
L 153.772791 277.549062 
L 155.404221 278.742214 
L 157.035651 278.701866 
L 158.667081 279.594128 
L 160.298511 279.482276 
L 161.929941 280.378893 
L 163.56137 280.868714 
L 165.1928 280.676392 
L 166.82423 281.511826 
L 168.45566 281.573277 
L 170.08709 282.575853 
L 171.71852 282.554536 
L 173.34995 283.138497 
L 176.61281 283.855366 
L 178.244239 283.904671 
L 179.875669 284.203695 
L 183.138529 284.273325 
L 184.769959 285.030263 
L 186.401389 285.496371 
L 188.032819 285.670956 
L 189.664249 286.290796 
L 192.927108 286.176356 
L 194.558538 286.721581 
L 196.189968 283.173804 
L 197.821398 287.787977 
L 199.452828 287.468169 
L 201.084258 287.579542 
L 204.347117 288.027205 
L 205.978547 288.632965 
L 207.609977 288.686291 
L 209.241407 288.931813 
L 210.872837 289.002535 
L 212.504267 288.439566 
L 214.135697 289.184557 
L 217.398556 290.019782 
L 219.029986 289.474724 
L 220.661416 289.927015 
L 222.292846 290.187173 
L 223.924276 290.278533 
L 225.555706 289.596617 
L 227.187136 290.547189 
L 228.818566 290.312678 
L 230.449995 291.377346 
L 232.081425 291.275817 
L 233.712855 290.818416 
L 235.344285 291.652064 
L 236.975715 291.963713 
L 238.607145 291.573425 
L 240.238575 292.047063 
L 241.870005 291.672705 
L 243.501434 292.494285 
L 246.764294 292.092909 
L 248.395724 292.972532 
L 250.027154 292.41362 
L 251.658584 292.193457 
L 253.290014 288.331809 
L 254.921444 293.047862 
L 256.552873 292.905742 
L 258.184303 291.854157 
L 259.815733 293.7245 
L 261.447163 293.471564 
L 263.078593 293.476859 
L 264.710023 293.276204 
L 266.341453 294.008859 
L 269.604312 293.694648 
L 271.235742 294.365629 
L 272.867172 294.549823 
L 274.498602 293.683718 
L 276.130032 294.637662 
L 277.761462 294.470173 
L 279.392892 294.507766 
L 281.024322 294.918529 
L 282.655751 294.611332 
L 284.287181 294.555491 
L 285.918611 295.488 
L 287.550041 295.196776 
L 289.181471 273.786816 
L 290.812901 240.13472 
L 292.444331 247.375841 
L 294.075761 236.590658 
L 295.70719 253.144374 
L 297.33862 204.578201 
L 298.97005 203.892854 
L 300.60148 164.171023 
L 302.23291 167.133673 
L 303.86434 166.899828 
L 305.49577 168.657844 
L 307.1272 172.283139 
L 308.75863 172.653905 
L 310.390059 174.444908 
L 312.021489 176.5203 
L 313.652919 164.681621 
L 315.284349 142.689456 
L 316.915779 134.81363 
L 318.547209 140.259022 
L 320.178639 138.720056 
L 321.810069 139.420957 
L 323.441498 146.857799 
L 325.072928 162.570919 
L 326.704358 168.753675 
L 328.335788 162.23911 
L 329.967218 148.921933 
L 331.598648 140.83294 
L 333.230078 146.389323 
L 334.861508 153.312674 
L 336.492937 161.632036 
L 338.124367 169.271673 
L 339.755797 156.654819 
L 341.387227 162.391978 
L 343.018657 167.507705 
L 344.650087 178.356945 
L 346.281517 178.962262 
L 347.912947 185.393308 
L 349.544376 176.154657 
L 351.175806 170.255323 
L 352.807236 171.232951 
L 354.438666 146.347255 
L 356.070096 143.298788 
L 357.701526 115.468508 
L 359.332956 121.801008 
L 360.964386 126.315503 
L 362.595815 128.592737 
L 364.227245 134.049037 
L 367.490105 151.006056 
L 369.121535 154.050693 
L 370.752965 153.195564 
L 372.384395 151.533269 
L 374.015825 158.068589 
L 375.647254 150.999811 
L 377.278684 156.900536 
L 378.910114 147.684347 
L 380.541544 160.514556 
L 382.172974 142.731585 
L 383.804404 151.624731 
L 385.435834 157.833884 
L 387.067264 164.510909 
L 388.698693 166.21548 
L 390.330123 165.966961 
L 391.961553 169.589233 
L 393.592983 152.35211 
L 396.855843 170.14144 
L 398.487273 162.712477 
L 398.487273 162.712477 
" style="fill:none;stroke:#ff0000;stroke-linecap:square;stroke-width:1.5;"/>
   </g>
   <g id="line2d_17">
    <path clip-path="url(#pe8b8a79589)" d="M 73.832727 100.818696 
L 75.464157 113.620659 
L 77.095587 112.301422 
L 78.727017 124.799155 
L 80.358447 126.984638 
L 81.989877 149.851684 
L 83.621307 162.33726 
L 85.252736 183.026695 
L 86.884166 178.948602 
L 88.515596 178.356994 
L 90.147026 201.972313 
L 91.778456 211.201176 
L 93.409886 213.498429 
L 95.041316 214.288704 
L 96.672746 225.953268 
L 98.304175 220.888193 
L 99.935605 219.038247 
L 101.567035 219.866118 
L 103.198465 232.361486 
L 104.829895 231.46496 
L 106.461325 230.358225 
L 108.092755 236.824762 
L 109.724185 238.203222 
L 111.355614 238.956377 
L 112.987044 241.054454 
L 114.618474 233.105025 
L 116.249904 240.614163 
L 117.881334 231.179939 
L 119.512764 238.925229 
L 121.144194 238.729103 
L 124.407053 247.983075 
L 126.038483 243.50301 
L 127.669913 244.840736 
L 129.301343 247.609159 
L 130.932773 246.917945 
L 132.564203 246.790419 
L 134.195633 245.869057 
L 135.827063 246.512929 
L 137.458492 243.116074 
L 139.089922 250.536946 
L 140.721352 249.601511 
L 142.352782 248.988585 
L 143.984212 250.041582 
L 145.615642 245.186904 
L 147.247072 250.049253 
L 148.878502 244.832288 
L 150.509931 250.450075 
L 152.141361 252.045592 
L 153.772791 253.012637 
L 155.404221 253.119468 
L 157.035651 251.661784 
L 158.667081 253.465993 
L 160.298511 254.701805 
L 165.1928 251.468003 
L 166.82423 256.149902 
L 168.45566 255.894055 
L 170.08709 257.39108 
L 171.71852 252.295839 
L 173.34995 255.479307 
L 174.98138 256.421456 
L 176.61281 256.429928 
L 178.244239 252.827119 
L 179.875669 256.173953 
L 181.507099 255.247153 
L 183.138529 256.78089 
L 184.769959 256.826459 
L 186.401389 257.615702 
L 188.032819 257.160871 
L 189.664249 255.882026 
L 191.295678 251.067945 
L 192.927108 256.010427 
L 194.558538 258.821304 
L 196.189968 258.234343 
L 197.821398 259.301466 
L 199.452828 258.505806 
L 201.084258 259.960725 
L 202.715688 256.643204 
L 204.347117 255.452519 
L 205.978547 256.025836 
L 207.609977 257.467326 
L 209.241407 258.098786 
L 210.872837 258.875373 
L 212.504267 258.273406 
L 214.135697 257.088932 
L 215.767127 255.363353 
L 217.398556 259.089488 
L 219.029986 260.514382 
L 220.661416 258.919838 
L 222.292846 259.712299 
L 223.924276 259.161585 
L 225.555706 259.75564 
L 227.187136 257.360341 
L 228.818566 260.303758 
L 230.449995 257.916899 
L 232.081425 259.44723 
L 233.712855 258.487763 
L 235.344285 258.939029 
L 236.975715 258.694509 
L 238.607145 259.86653 
L 240.238575 257.759347 
L 241.870005 257.187453 
L 243.501434 258.499702 
L 245.132864 260.270699 
L 246.764294 259.780686 
L 248.395724 257.976156 
L 250.027154 261.102269 
L 251.658584 260.739756 
L 253.290014 259.335507 
L 254.921444 255.852356 
L 256.552873 259.565869 
L 258.184303 261.195849 
L 259.815733 260.314992 
L 261.447163 259.995262 
L 263.078593 258.603373 
L 264.710023 259.993478 
L 266.341453 259.378118 
L 267.972883 261.045132 
L 269.604312 261.302937 
L 271.235742 261.772945 
L 272.867172 260.254092 
L 274.498602 261.356058 
L 276.130032 256.622937 
L 277.761462 259.640076 
L 279.392892 260.021448 
L 282.655751 261.579348 
L 284.287181 261.68207 
L 285.918611 259.323106 
L 287.550041 259.602697 
L 289.181471 221.123836 
L 290.812901 240.826658 
L 292.444331 212.518102 
L 294.075761 230.946705 
L 295.70719 242.059953 
L 297.33862 207.433046 
L 298.97005 160.50624 
L 300.60148 170.06728 
L 302.23291 147.209119 
L 303.86434 158.037787 
L 305.49577 171.074627 
L 307.1272 163.623453 
L 308.75863 153.541884 
L 310.390059 169.10133 
L 312.021489 182.463375 
L 313.652919 118.938431 
L 315.284349 137.152914 
L 316.915779 129.408789 
L 318.547209 132.887802 
L 320.178639 123.319028 
L 321.810069 133.277842 
L 323.441498 148.792088 
L 325.072928 156.814418 
L 326.704358 123.351167 
L 328.335788 171.836943 
L 329.967218 121.850595 
L 331.598648 142.21306 
L 333.230078 145.868101 
L 334.861508 154.842706 
L 336.492937 157.739023 
L 338.124367 161.129936 
L 339.755797 144.915943 
L 341.387227 159.952278 
L 343.018657 163.765283 
L 344.650087 177.404656 
L 346.281517 174.277919 
L 347.912947 182.52729 
L 349.544376 160.85751 
L 351.175806 162.725131 
L 352.807236 121.110508 
L 354.438666 144.835657 
L 356.070096 98.4511 
L 357.701526 110.53536 
L 359.332956 111.714099 
L 360.964386 117.885208 
L 362.595815 115.886298 
L 364.227245 128.27511 
L 365.858675 141.597803 
L 367.490105 141.66476 
L 370.752965 144.77454 
L 372.384395 146.755249 
L 374.015825 150.301512 
L 375.647254 136.434878 
L 377.278684 156.65708 
L 378.910114 144.717095 
L 380.541544 114.938392 
L 382.172974 139.424777 
L 383.804404 150.792318 
L 385.435834 151.715549 
L 387.067264 159.673286 
L 388.698693 162.521235 
L 390.330123 156.437579 
L 391.961553 160.423512 
L 393.592983 123.632616 
L 395.224413 162.456664 
L 396.855843 164.323797 
L 398.487273 149.456917 
L 398.487273 149.456917 
" style="fill:none;stroke:#008000;stroke-linecap:square;stroke-width:1.5;"/>
   </g>
   <g id="patch_3">
    <path d="M 57.6 307.584 
L 57.6 41.472 
" style="fill:none;stroke:#000000;stroke-linecap:square;stroke-linejoin:miter;stroke-width:0.8;"/>
   </g>
   <g id="patch_4">
    <path d="M 414.72 307.584 
L 414.72 41.472 
" style="fill:none;stroke:#000000;stroke-linecap:square;stroke-linejoin:miter;stroke-width:0.8;"/>
   </g>
   <g id="patch_5">
    <path d="M 57.6 307.584 
L 414.72 307.584 
" style="fill:none;stroke:#000000;stroke-linecap:square;stroke-linejoin:miter;stroke-width:0.8;"/>
   </g>
   <g id="patch_6">
    <path d="M 57.6 41.472 
L 414.72 41.472 
" style="fill:none;stroke:#000000;stroke-linecap:square;stroke-linejoin:miter;stroke-width:0.8;"/>
   </g>
   <g id="text_18">
    <!-- loss val_loss -->
    <g transform="translate(199.179375 35.472)scale(0.12 -0.12)">
     <defs>
      <path id="DejaVuSans-32"/>
      <path d="M 2.984375 54.6875 
L 12.5 54.6875 
L 29.59375 8.796875 
L 46.6875 54.6875 
L 56.203125 54.6875 
L 35.6875 0 
L 23.484375 0 
z
" id="DejaVuSans-118"/>
      <path d="M 34.28125 27.484375 
Q 23.390625 27.484375 19.1875 25 
Q 14.984375 22.515625 14.984375 16.5 
Q 14.984375 11.71875 18.140625 8.90625 
Q 21.296875 6.109375 26.703125 6.109375 
Q 34.1875 6.109375 38.703125 11.40625 
Q 43.21875 16.703125 43.21875 25.484375 
L 43.21875 27.484375 
z
M 52.203125 31.203125 
L 52.203125 0 
L 43.21875 0 
L 43.21875 8.296875 
Q 40.140625 3.328125 35.546875 0.953125 
Q 30.953125 -1.421875 24.3125 -1.421875 
Q 15.921875 -1.421875 10.953125 3.296875 
Q 6 8.015625 6 15.921875 
Q 6 25.140625 12.171875 29.828125 
Q 18.359375 34.515625 30.609375 34.515625 
L 43.21875 34.515625 
L 43.21875 35.40625 
Q 43.21875 41.609375 39.140625 45 
Q 35.0625 48.390625 27.6875 48.390625 
Q 23 48.390625 18.546875 47.265625 
Q 14.109375 46.140625 10.015625 43.890625 
L 10.015625 52.203125 
Q 14.9375 54.109375 19.578125 55.046875 
Q 24.21875 56 28.609375 56 
Q 40.484375 56 46.34375 49.84375 
Q 52.203125 43.703125 52.203125 31.203125 
z
" id="DejaVuSans-97"/>
      <path d="M 50.984375 -16.609375 
L 50.984375 -23.578125 
L -0.984375 -23.578125 
L -0.984375 -16.609375 
z
" id="DejaVuSans-95"/>
     </defs>
     <use xlink:href="#DejaVuSans-108"/>
     <use x="27.783203" xlink:href="#DejaVuSans-111"/>
     <use x="88.964844" xlink:href="#DejaVuSans-115"/>
     <use x="141.064453" xlink:href="#DejaVuSans-115"/>
     <use x="193.164062" xlink:href="#DejaVuSans-32"/>
     <use x="224.951172" xlink:href="#DejaVuSans-118"/>
     <use x="284.130859" xlink:href="#DejaVuSans-97"/>
     <use x="345.410156" xlink:href="#DejaVuSans-108"/>
     <use x="373.193359" xlink:href="#DejaVuSans-95"/>
     <use x="423.193359" xlink:href="#DejaVuSans-108"/>
     <use x="450.976562" xlink:href="#DejaVuSans-111"/>
     <use x="512.158203" xlink:href="#DejaVuSans-115"/>
     <use x="564.257812" xlink:href="#DejaVuSans-115"/>
    </g>
   </g>
   <g id="legend_1">
    <g id="patch_7">
     <path d="M 64.6 54.472 
L 68.6 54.472 
Q 70.6 54.472 70.6 52.472 
L 70.6 48.472 
Q 70.6 46.472 68.6 46.472 
L 64.6 46.472 
Q 62.6 46.472 62.6 48.472 
L 62.6 52.472 
Q 62.6 54.472 64.6 54.472 
z
" style="fill:#ffffff;opacity:0.8;stroke:#cccccc;stroke-linejoin:miter;"/>
    </g>
   </g>
  </g>
 </g>
 <defs>
  <clipPath id="pe8b8a79589">
   <rect height="266.112" width="357.12" x="57.6" y="41.472"/>
  </clipPath>
 </defs>
</svg>
