<?xml version="1.0" encoding="utf-8" standalone="no"?>
<!DOCTYPE svg PUBLIC "-//W3C//DTD SVG 1.1//EN"
  "http://www.w3.org/Graphics/SVG/1.1/DTD/svg11.dtd">
<!-- Created with matplotlib (https://matplotlib.org/) -->
<svg height="288pt" version="1.1" viewBox="0 0 432 288" width="432pt" xmlns="http://www.w3.org/2000/svg" xmlns:xlink="http://www.w3.org/1999/xlink">
 <metadata>
  <rdf:RDF xmlns:cc="http://creativecommons.org/ns#" xmlns:dc="http://purl.org/dc/elements/1.1/" xmlns:rdf="http://www.w3.org/1999/02/22-rdf-syntax-ns#">
   <cc:Work>
    <dc:type rdf:resource="http://purl.org/dc/dcmitype/StillImage"/>
    <dc:date>2022-05-07T17:53:02.333317</dc:date>
    <dc:format>image/svg+xml</dc:format>
    <dc:creator>
     <cc:Agent>
      <dc:title>Matplotlib v3.3.4, https://matplotlib.org/</dc:title>
     </cc:Agent>
    </dc:creator>
   </cc:Work>
  </rdf:RDF>
 </metadata>
 <defs>
  <style type="text/css">*{stroke-linecap:butt;stroke-linejoin:round;}</style>
 </defs>
 <g id="figure_1">
  <g id="patch_1">
   <path d="M 0 288 
L 432 288 
L 432 0 
L 0 0 
z
" style="fill:#ffffff;"/>
  </g>
  <g id="axes_1">
   <g id="patch_2">
    <path d="M 54 252 
L 388.8 252 
L 388.8 34.56 
L 54 34.56 
z
" style="fill:#ffffff;"/>
   </g>
   <g id="PolyCollection_1">
    <defs>
     <path d="M 104.256361 -63.29531 
L 104.183639 -63.29531 
L 104.18664 -65.116129 
L 104.194238 -66.936948 
L 104.203253 -68.757766 
L 104.210832 -70.578585 
L 104.215749 -72.399404 
L 104.218209 -74.220223 
L 104.21881 -76.041041 
L 104.217508 -77.86186 
L 104.212859 -79.682679 
L 104.201716 -81.503498 
L 104.179977 -83.324316 
L 104.145025 -85.145135 
L 104.098938 -86.965954 
L 104.049571 -88.786772 
L 104.007197 -90.607591 
L 103.978545 -92.42841 
L 103.963359 -94.249229 
L 103.956435 -96.070047 
L 103.9526 -97.890866 
L 103.949565 -99.711685 
L 103.946239 -101.532503 
L 103.938778 -103.353322 
L 103.919274 -105.174141 
L 103.879974 -106.99496 
L 103.820147 -108.815778 
L 103.748985 -110.636597 
L 103.681298 -112.457416 
L 103.63007 -114.278234 
L 103.602436 -116.099053 
L 103.600348 -117.919872 
L 103.62176 -119.740691 
L 103.65967 -121.561509 
L 103.700873 -123.382328 
L 103.727152 -125.203147 
L 103.719866 -127.023966 
L 103.667226 -128.844784 
L 103.570284 -130.665603 
L 103.441321 -132.486422 
L 103.293497 -134.30724 
L 103.130565 -136.128059 
L 102.947058 -137.948878 
L 102.738391 -139.769697 
L 102.509595 -141.590515 
L 102.273476 -143.411334 
L 102.040665 -145.232153 
L 101.811659 -147.052971 
L 101.577697 -148.87379 
L 101.32812 -150.694609 
L 101.056207 -152.515428 
L 100.758921 -154.336246 
L 100.433867 -156.157065 
L 100.077776 -157.977884 
L 99.683942 -159.798702 
L 99.235919 -161.619521 
L 98.706496 -163.44034 
L 98.074551 -165.261159 
L 97.35333 -167.081977 
L 96.602645 -168.902796 
L 95.905769 -170.723615 
L 95.325174 -172.544434 
L 94.872102 -174.365252 
L 94.51055 -176.186071 
L 94.184767 -178.00689 
L 93.842621 -179.827708 
L 93.437071 -181.648527 
L 92.912155 -183.469346 
L 92.197181 -185.290165 
L 91.226272 -187.110983 
L 89.972391 -188.931802 
L 88.463625 -190.752621 
L 86.761359 -192.573439 
L 84.91315 -194.394258 
L 82.915096 -196.215077 
L 80.719133 -198.035896 
L 78.301526 -199.856714 
L 75.763518 -201.677533 
L 73.387405 -203.498352 
L 71.582651 -205.319171 
L 70.74 -207.139989 
L 71.087738 -208.960808 
L 72.633238 -210.781627 
L 75.194973 -212.602445 
L 78.472981 -214.423264 
L 82.115541 -216.244083 
L 85.778901 -218.064902 
L 89.187085 -219.88572 
L 92.177163 -221.706539 
L 94.704337 -223.527358 
L 96.803406 -225.348176 
L 98.534657 -227.168995 
L 99.948623 -228.989814 
L 101.081255 -230.810633 
L 101.96483 -232.631451 
L 102.635149 -234.45227 
L 103.129869 -236.273089 
L 103.48451 -238.093907 
L 103.731157 -239.914726 
L 103.898639 -241.735545 
L 104.011618 -243.556364 
L 104.428382 -243.556364 
L 104.428382 -243.556364 
L 104.541361 -241.735545 
L 104.708843 -239.914726 
L 104.95549 -238.093907 
L 105.310131 -236.273089 
L 105.804851 -234.45227 
L 106.47517 -232.631451 
L 107.358745 -230.810633 
L 108.491377 -228.989814 
L 109.905343 -227.168995 
L 111.636594 -225.348176 
L 113.735663 -223.527358 
L 116.262837 -221.706539 
L 119.252915 -219.88572 
L 122.661099 -218.064902 
L 126.324459 -216.244083 
L 129.967019 -214.423264 
L 133.245027 -212.602445 
L 135.806762 -210.781627 
L 137.352262 -208.960808 
L 137.7 -207.139989 
L 136.857349 -205.319171 
L 135.052595 -203.498352 
L 132.676482 -201.677533 
L 130.138474 -199.856714 
L 127.720867 -198.035896 
L 125.524904 -196.215077 
L 123.52685 -194.394258 
L 121.678641 -192.573439 
L 119.976375 -190.752621 
L 118.467609 -188.931802 
L 117.213728 -187.110983 
L 116.242819 -185.290165 
L 115.527845 -183.469346 
L 115.002929 -181.648527 
L 114.597379 -179.827708 
L 114.255233 -178.00689 
L 113.92945 -176.186071 
L 113.567898 -174.365252 
L 113.114826 -172.544434 
L 112.534231 -170.723615 
L 111.837355 -168.902796 
L 111.08667 -167.081977 
L 110.365449 -165.261159 
L 109.733504 -163.44034 
L 109.204081 -161.619521 
L 108.756058 -159.798702 
L 108.362224 -157.977884 
L 108.006133 -156.157065 
L 107.681079 -154.336246 
L 107.383793 -152.515428 
L 107.11188 -150.694609 
L 106.862303 -148.87379 
L 106.628341 -147.052971 
L 106.399335 -145.232153 
L 106.166524 -143.411334 
L 105.930405 -141.590515 
L 105.701609 -139.769697 
L 105.492942 -137.948878 
L 105.309435 -136.128059 
L 105.146503 -134.30724 
L 104.998679 -132.486422 
L 104.869716 -130.665603 
L 104.772774 -128.844784 
L 104.720134 -127.023966 
L 104.712848 -125.203147 
L 104.739127 -123.382328 
L 104.78033 -121.561509 
L 104.81824 -119.740691 
L 104.839652 -117.919872 
L 104.837564 -116.099053 
L 104.80993 -114.278234 
L 104.758702 -112.457416 
L 104.691015 -110.636597 
L 104.619853 -108.815778 
L 104.560026 -106.99496 
L 104.520726 -105.174141 
L 104.501222 -103.353322 
L 104.493761 -101.532503 
L 104.490435 -99.711685 
L 104.4874 -97.890866 
L 104.483565 -96.070047 
L 104.476641 -94.249229 
L 104.461455 -92.42841 
L 104.432803 -90.607591 
L 104.390429 -88.786772 
L 104.341062 -86.965954 
L 104.294975 -85.145135 
L 104.260023 -83.324316 
L 104.238284 -81.503498 
L 104.227141 -79.682679 
L 104.222492 -77.86186 
L 104.22119 -76.041041 
L 104.221791 -74.220223 
L 104.224251 -72.399404 
L 104.229168 -70.578585 
L 104.236747 -68.757766 
L 104.245762 -66.936948 
L 104.25336 -65.116129 
L 104.256361 -63.29531 
z
" id="m3745546891" style="stroke:#3f3f3f;stroke-width:1.5;"/>
    </defs>
    <g clip-path="url(#pef32548661)">
     <use style="fill:#3274a1;stroke:#3f3f3f;stroke-width:1.5;" x="0" xlink:href="#m3745546891" y="288"/>
    </g>
   </g>
   <g id="PolyCollection_2">
    <defs>
     <path d="M 338.614899 -45.883636 
L 338.545101 -45.883636 
L 338.547378 -47.609771 
L 338.553191 -49.335906 
L 338.55956 -51.062041 
L 338.563197 -52.788176 
L 338.561752 -54.514311 
L 338.554478 -56.240446 
L 338.542427 -57.966581 
L 338.528206 -59.692716 
L 338.515064 -61.418851 
L 338.505315 -63.144986 
L 338.498831 -64.871121 
L 338.492581 -66.597256 
L 338.481618 -68.323391 
L 338.461192 -70.049526 
L 338.429307 -71.775661 
L 338.388924 -73.501796 
L 338.348433 -75.227931 
L 338.318974 -76.954066 
L 338.308774 -78.680201 
L 338.317704 -80.406336 
L 338.336392 -82.132471 
L 338.35158 -83.858606 
L 338.354365 -85.584741 
L 338.345168 -87.310876 
L 338.331522 -89.037011 
L 338.320468 -90.763146 
L 338.311739 -92.489281 
L 338.297165 -94.215416 
L 338.266683 -95.941551 
L 338.216335 -97.667686 
L 338.152276 -99.393821 
L 338.087366 -101.119956 
L 338.031958 -102.846091 
L 337.98509 -104.572226 
L 337.933368 -106.298361 
L 337.860155 -108.024496 
L 337.759702 -109.750631 
L 337.645818 -111.476766 
L 337.547311 -113.202901 
L 337.491812 -114.929036 
L 337.488593 -116.655171 
L 337.521843 -118.381306 
L 337.557611 -120.107441 
L 337.558225 -121.833576 
L 337.495846 -123.559711 
L 337.361044 -125.285846 
L 337.165654 -127.011982 
L 336.93873 -128.738117 
L 336.715192 -130.464252 
L 336.521968 -132.190387 
L 336.370213 -133.916522 
L 336.257547 -135.642657 
L 336.174511 -137.368792 
L 336.106226 -139.094927 
L 336.028081 -140.821062 
L 335.904174 -142.547197 
L 335.697431 -144.273332 
L 335.389056 -145.999467 
L 334.993314 -147.725602 
L 334.554169 -149.451737 
L 334.124648 -151.177872 
L 333.744008 -152.904007 
L 333.427009 -154.630142 
L 333.165579 -156.356277 
L 332.933263 -158.082412 
L 332.687572 -159.808547 
L 332.375676 -161.534682 
L 331.949289 -163.260817 
L 331.383995 -164.986952 
L 330.689114 -166.713087 
L 329.897516 -168.439222 
L 329.039378 -170.165357 
L 328.117982 -171.891492 
L 327.106136 -173.617627 
L 325.965911 -175.343762 
L 324.675851 -177.069897 
L 323.246274 -178.796032 
L 321.715568 -180.522167 
L 320.132512 -182.248302 
L 318.532498 -183.974437 
L 316.917171 -185.700572 
L 315.252739 -187.426707 
L 313.49822 -189.152842 
L 311.65169 -190.878977 
L 309.781067 -192.605112 
L 308.017189 -194.331247 
L 306.524582 -196.057382 
L 305.484624 -197.783517 
L 305.1 -199.509652 
L 305.588933 -201.235787 
L 307.135774 -202.961922 
L 309.807924 -204.688057 
L 313.488762 -206.414192 
L 317.87062 -208.140327 
L 322.513757 -209.866462 
L 326.946517 -211.592597 
L 330.773299 -213.318732 
L 333.757931 -215.044867 
L 335.854771 -216.771002 
L 341.305229 -216.771002 
L 341.305229 -216.771002 
L 343.402069 -215.044867 
L 346.386701 -213.318732 
L 350.213483 -211.592597 
L 354.646243 -209.866462 
L 359.28938 -208.140327 
L 363.671238 -206.414192 
L 367.352076 -204.688057 
L 370.024226 -202.961922 
L 371.571067 -201.235787 
L 372.06 -199.509652 
L 371.675376 -197.783517 
L 370.635418 -196.057382 
L 369.142811 -194.331247 
L 367.378933 -192.605112 
L 365.50831 -190.878977 
L 363.66178 -189.152842 
L 361.907261 -187.426707 
L 360.242829 -185.700572 
L 358.627502 -183.974437 
L 357.027488 -182.248302 
L 355.444432 -180.522167 
L 353.913726 -178.796032 
L 352.484149 -177.069897 
L 351.194089 -175.343762 
L 350.053864 -173.617627 
L 349.042018 -171.891492 
L 348.120622 -170.165357 
L 347.262484 -168.439222 
L 346.470886 -166.713087 
L 345.776005 -164.986952 
L 345.210711 -163.260817 
L 344.784324 -161.534682 
L 344.472428 -159.808547 
L 344.226737 -158.082412 
L 343.994421 -156.356277 
L 343.732991 -154.630142 
L 343.415992 -152.904007 
L 343.035352 -151.177872 
L 342.605831 -149.451737 
L 342.166686 -147.725602 
L 341.770944 -145.999467 
L 341.462569 -144.273332 
L 341.255826 -142.547197 
L 341.131919 -140.821062 
L 341.053774 -139.094927 
L 340.985489 -137.368792 
L 340.902453 -135.642657 
L 340.789787 -133.916522 
L 340.638032 -132.190387 
L 340.444808 -130.464252 
L 340.22127 -128.738117 
L 339.994346 -127.011982 
L 339.798956 -125.285846 
L 339.664154 -123.559711 
L 339.601775 -121.833576 
L 339.602389 -120.107441 
L 339.638157 -118.381306 
L 339.671407 -116.655171 
L 339.668188 -114.929036 
L 339.612689 -113.202901 
L 339.514182 -111.476766 
L 339.400298 -109.750631 
L 339.299845 -108.024496 
L 339.226632 -106.298361 
L 339.17491 -104.572226 
L 339.128042 -102.846091 
L 339.072634 -101.119956 
L 339.007724 -99.393821 
L 338.943665 -97.667686 
L 338.893317 -95.941551 
L 338.862835 -94.215416 
L 338.848261 -92.489281 
L 338.839532 -90.763146 
L 338.828478 -89.037011 
L 338.814832 -87.310876 
L 338.805635 -85.584741 
L 338.80842 -83.858606 
L 338.823608 -82.132471 
L 338.842296 -80.406336 
L 338.851226 -78.680201 
L 338.841026 -76.954066 
L 338.811567 -75.227931 
L 338.771076 -73.501796 
L 338.730693 -71.775661 
L 338.698808 -70.049526 
L 338.678382 -68.323391 
L 338.667419 -66.597256 
L 338.661169 -64.871121 
L 338.654685 -63.144986 
L 338.644936 -61.418851 
L 338.631794 -59.692716 
L 338.617573 -57.966581 
L 338.605522 -56.240446 
L 338.598248 -54.514311 
L 338.596803 -52.788176 
L 338.60044 -51.062041 
L 338.606809 -49.335906 
L 338.612622 -47.609771 
L 338.614899 -45.883636 
z
" id="m7442565001" style="stroke:#3f3f3f;stroke-width:1.5;"/>
    </defs>
    <g clip-path="url(#pef32548661)">
     <use style="fill:#e1812c;stroke:#3f3f3f;stroke-width:1.5;" x="0" xlink:href="#m7442565001" y="288"/>
    </g>
   </g>
   <g id="patch_3">
    <path clip-path="url(#pef32548661)" d="M 137.7 70.250832 
L 137.7 70.250832 
L 137.7 70.250832 
L 137.7 70.250832 
z
" style="fill:#3274a1;stroke:#3f3f3f;stroke-linejoin:miter;stroke-width:0.75;"/>
   </g>
   <g id="patch_4">
    <path clip-path="url(#pef32548661)" d="M 137.7 70.250832 
L 137.7 70.250832 
L 137.7 70.250832 
L 137.7 70.250832 
z
" style="fill:#e1812c;stroke:#3f3f3f;stroke-linejoin:miter;stroke-width:0.75;"/>
   </g>
   <g id="matplotlib.axis_1">
    <g id="xtick_1">
     <g id="line2d_1">
      <defs>
       <path d="M 0 0 
L 0 3.5 
" id="mbcec4fb4a6" style="stroke:#000000;stroke-width:0.8;"/>
      </defs>
      <g>
       <use style="stroke:#000000;stroke-width:0.8;" x="137.7" xlink:href="#mbcec4fb4a6" y="252"/>
      </g>
     </g>
     <g id="text_1">
      <!-- Z_1_ns -->
      <g transform="translate(120.320312 266.320312)scale(0.1 -0.1)">
       <defs>
        <path d="M 5.609375 72.90625 
L 62.890625 72.90625 
L 62.890625 65.375 
L 16.796875 8.296875 
L 64.015625 8.296875 
L 64.015625 0 
L 4.5 0 
L 4.5 7.515625 
L 50.59375 64.59375 
L 5.609375 64.59375 
z
" id="DejaVuSans-90"/>
        <path d="M 50.984375 -16.609375 
L 50.984375 -23.578125 
L -0.984375 -23.578125 
L -0.984375 -16.609375 
z
" id="DejaVuSans-95"/>
        <path d="M 12.40625 8.296875 
L 28.515625 8.296875 
L 28.515625 63.921875 
L 10.984375 60.40625 
L 10.984375 69.390625 
L 28.421875 72.90625 
L 38.28125 72.90625 
L 38.28125 8.296875 
L 54.390625 8.296875 
L 54.390625 0 
L 12.40625 0 
z
" id="DejaVuSans-49"/>
        <path d="M 54.890625 33.015625 
L 54.890625 0 
L 45.90625 0 
L 45.90625 32.71875 
Q 45.90625 40.484375 42.875 44.328125 
Q 39.84375 48.1875 33.796875 48.1875 
Q 26.515625 48.1875 22.3125 43.546875 
Q 18.109375 38.921875 18.109375 30.90625 
L 18.109375 0 
L 9.078125 0 
L 9.078125 54.6875 
L 18.109375 54.6875 
L 18.109375 46.1875 
Q 21.34375 51.125 25.703125 53.5625 
Q 30.078125 56 35.796875 56 
Q 45.21875 56 50.046875 50.171875 
Q 54.890625 44.34375 54.890625 33.015625 
z
" id="DejaVuSans-110"/>
        <path d="M 44.28125 53.078125 
L 44.28125 44.578125 
Q 40.484375 46.53125 36.375 47.5 
Q 32.28125 48.484375 27.875 48.484375 
Q 21.1875 48.484375 17.84375 46.4375 
Q 14.5 44.390625 14.5 40.28125 
Q 14.5 37.15625 16.890625 35.375 
Q 19.28125 33.59375 26.515625 31.984375 
L 29.59375 31.296875 
Q 39.15625 29.25 43.1875 25.515625 
Q 47.21875 21.78125 47.21875 15.09375 
Q 47.21875 7.46875 41.1875 3.015625 
Q 35.15625 -1.421875 24.609375 -1.421875 
Q 20.21875 -1.421875 15.453125 -0.5625 
Q 10.6875 0.296875 5.421875 2 
L 5.421875 11.28125 
Q 10.40625 8.6875 15.234375 7.390625 
Q 20.0625 6.109375 24.8125 6.109375 
Q 31.15625 6.109375 34.5625 8.28125 
Q 37.984375 10.453125 37.984375 14.40625 
Q 37.984375 18.0625 35.515625 20.015625 
Q 33.0625 21.96875 24.703125 23.78125 
L 21.578125 24.515625 
Q 13.234375 26.265625 9.515625 29.90625 
Q 5.8125 33.546875 5.8125 39.890625 
Q 5.8125 47.609375 11.28125 51.796875 
Q 16.75 56 26.8125 56 
Q 31.78125 56 36.171875 55.265625 
Q 40.578125 54.546875 44.28125 53.078125 
z
" id="DejaVuSans-115"/>
       </defs>
       <use xlink:href="#DejaVuSans-90"/>
       <use x="68.505859" xlink:href="#DejaVuSans-95"/>
       <use x="118.505859" xlink:href="#DejaVuSans-49"/>
       <use x="182.128906" xlink:href="#DejaVuSans-95"/>
       <use x="232.128906" xlink:href="#DejaVuSans-110"/>
       <use x="295.507812" xlink:href="#DejaVuSans-115"/>
      </g>
     </g>
    </g>
    <g id="xtick_2">
     <g id="line2d_2">
      <g>
       <use style="stroke:#000000;stroke-width:0.8;" x="305.1" xlink:href="#mbcec4fb4a6" y="252"/>
      </g>
     </g>
     <g id="text_2">
      <!-- Z_3_ns -->
      <g transform="translate(287.720313 266.421875)scale(0.1 -0.1)">
       <defs>
        <path d="M 40.578125 39.3125 
Q 47.65625 37.796875 51.625 33 
Q 55.609375 28.21875 55.609375 21.1875 
Q 55.609375 10.40625 48.1875 4.484375 
Q 40.765625 -1.421875 27.09375 -1.421875 
Q 22.515625 -1.421875 17.65625 -0.515625 
Q 12.796875 0.390625 7.625 2.203125 
L 7.625 11.71875 
Q 11.71875 9.328125 16.59375 8.109375 
Q 21.484375 6.890625 26.8125 6.890625 
Q 36.078125 6.890625 40.9375 10.546875 
Q 45.796875 14.203125 45.796875 21.1875 
Q 45.796875 27.640625 41.28125 31.265625 
Q 36.765625 34.90625 28.71875 34.90625 
L 20.21875 34.90625 
L 20.21875 43.015625 
L 29.109375 43.015625 
Q 36.375 43.015625 40.234375 45.921875 
Q 44.09375 48.828125 44.09375 54.296875 
Q 44.09375 59.90625 40.109375 62.90625 
Q 36.140625 65.921875 28.71875 65.921875 
Q 24.65625 65.921875 20.015625 65.03125 
Q 15.375 64.15625 9.8125 62.3125 
L 9.8125 71.09375 
Q 15.4375 72.65625 20.34375 73.4375 
Q 25.25 74.21875 29.59375 74.21875 
Q 40.828125 74.21875 47.359375 69.109375 
Q 53.90625 64.015625 53.90625 55.328125 
Q 53.90625 49.265625 50.4375 45.09375 
Q 46.96875 40.921875 40.578125 39.3125 
z
" id="DejaVuSans-51"/>
       </defs>
       <use xlink:href="#DejaVuSans-90"/>
       <use x="68.505859" xlink:href="#DejaVuSans-95"/>
       <use x="118.505859" xlink:href="#DejaVuSans-51"/>
       <use x="182.128906" xlink:href="#DejaVuSans-95"/>
       <use x="232.128906" xlink:href="#DejaVuSans-110"/>
       <use x="295.507812" xlink:href="#DejaVuSans-115"/>
      </g>
     </g>
    </g>
    <g id="text_3">
     <!-- set -->
     <g transform="translate(213.758594 280.378125)scale(0.1 -0.1)">
      <defs>
       <path d="M 56.203125 29.59375 
L 56.203125 25.203125 
L 14.890625 25.203125 
Q 15.484375 15.921875 20.484375 11.0625 
Q 25.484375 6.203125 34.421875 6.203125 
Q 39.59375 6.203125 44.453125 7.46875 
Q 49.3125 8.734375 54.109375 11.28125 
L 54.109375 2.78125 
Q 49.265625 0.734375 44.1875 -0.34375 
Q 39.109375 -1.421875 33.890625 -1.421875 
Q 20.796875 -1.421875 13.15625 6.1875 
Q 5.515625 13.8125 5.515625 26.8125 
Q 5.515625 40.234375 12.765625 48.109375 
Q 20.015625 56 32.328125 56 
Q 43.359375 56 49.78125 48.890625 
Q 56.203125 41.796875 56.203125 29.59375 
z
M 47.21875 32.234375 
Q 47.125 39.59375 43.09375 43.984375 
Q 39.0625 48.390625 32.421875 48.390625 
Q 24.90625 48.390625 20.390625 44.140625 
Q 15.875 39.890625 15.1875 32.171875 
z
" id="DejaVuSans-101"/>
       <path d="M 18.3125 70.21875 
L 18.3125 54.6875 
L 36.8125 54.6875 
L 36.8125 47.703125 
L 18.3125 47.703125 
L 18.3125 18.015625 
Q 18.3125 11.328125 20.140625 9.421875 
Q 21.96875 7.515625 27.59375 7.515625 
L 36.8125 7.515625 
L 36.8125 0 
L 27.59375 0 
Q 17.1875 0 13.234375 3.875 
Q 9.28125 7.765625 9.28125 18.015625 
L 9.28125 47.703125 
L 2.6875 47.703125 
L 2.6875 54.6875 
L 9.28125 54.6875 
L 9.28125 70.21875 
z
" id="DejaVuSans-116"/>
      </defs>
      <use xlink:href="#DejaVuSans-115"/>
      <use x="52.099609" xlink:href="#DejaVuSans-101"/>
      <use x="113.623047" xlink:href="#DejaVuSans-116"/>
     </g>
    </g>
   </g>
   <g id="matplotlib.axis_2">
    <g id="ytick_1">
     <g id="line2d_3">
      <defs>
       <path d="M 0 0 
L -3.5 0 
" id="m9af2b03679" style="stroke:#000000;stroke-width:0.8;"/>
      </defs>
      <g>
       <use style="stroke:#000000;stroke-width:0.8;" x="54" xlink:href="#m9af2b03679" y="223.513441"/>
      </g>
     </g>
     <g id="text_4">
      <!-- −25 -->
      <g transform="translate(25.895312 227.31266)scale(0.1 -0.1)">
       <defs>
        <path d="M 10.59375 35.5 
L 73.1875 35.5 
L 73.1875 27.203125 
L 10.59375 27.203125 
z
" id="DejaVuSans-8722"/>
        <path d="M 19.1875 8.296875 
L 53.609375 8.296875 
L 53.609375 0 
L 7.328125 0 
L 7.328125 8.296875 
Q 12.9375 14.109375 22.625 23.890625 
Q 32.328125 33.6875 34.8125 36.53125 
Q 39.546875 41.84375 41.421875 45.53125 
Q 43.3125 49.21875 43.3125 52.78125 
Q 43.3125 58.59375 39.234375 62.25 
Q 35.15625 65.921875 28.609375 65.921875 
Q 23.96875 65.921875 18.8125 64.3125 
Q 13.671875 62.703125 7.8125 59.421875 
L 7.8125 69.390625 
Q 13.765625 71.78125 18.9375 73 
Q 24.125 74.21875 28.421875 74.21875 
Q 39.75 74.21875 46.484375 68.546875 
Q 53.21875 62.890625 53.21875 53.421875 
Q 53.21875 48.921875 51.53125 44.890625 
Q 49.859375 40.875 45.40625 35.40625 
Q 44.1875 33.984375 37.640625 27.21875 
Q 31.109375 20.453125 19.1875 8.296875 
z
" id="DejaVuSans-50"/>
        <path d="M 10.796875 72.90625 
L 49.515625 72.90625 
L 49.515625 64.59375 
L 19.828125 64.59375 
L 19.828125 46.734375 
Q 21.96875 47.46875 24.109375 47.828125 
Q 26.265625 48.1875 28.421875 48.1875 
Q 40.625 48.1875 47.75 41.5 
Q 54.890625 34.8125 54.890625 23.390625 
Q 54.890625 11.625 47.5625 5.09375 
Q 40.234375 -1.421875 26.90625 -1.421875 
Q 22.3125 -1.421875 17.546875 -0.640625 
Q 12.796875 0.140625 7.71875 1.703125 
L 7.71875 11.625 
Q 12.109375 9.234375 16.796875 8.0625 
Q 21.484375 6.890625 26.703125 6.890625 
Q 35.15625 6.890625 40.078125 11.328125 
Q 45.015625 15.765625 45.015625 23.390625 
Q 45.015625 31 40.078125 35.4375 
Q 35.15625 39.890625 26.703125 39.890625 
Q 22.75 39.890625 18.8125 39.015625 
Q 14.890625 38.140625 10.796875 36.28125 
z
" id="DejaVuSans-53"/>
       </defs>
       <use xlink:href="#DejaVuSans-8722"/>
       <use x="83.789062" xlink:href="#DejaVuSans-50"/>
       <use x="147.412109" xlink:href="#DejaVuSans-53"/>
      </g>
     </g>
    </g>
    <g id="ytick_2">
     <g id="line2d_4">
      <g>
       <use style="stroke:#000000;stroke-width:0.8;" x="54" xlink:href="#m9af2b03679" y="192.860919"/>
      </g>
     </g>
     <g id="text_5">
      <!-- −20 -->
      <g transform="translate(25.895312 196.660138)scale(0.1 -0.1)">
       <defs>
        <path d="M 31.78125 66.40625 
Q 24.171875 66.40625 20.328125 58.90625 
Q 16.5 51.421875 16.5 36.375 
Q 16.5 21.390625 20.328125 13.890625 
Q 24.171875 6.390625 31.78125 6.390625 
Q 39.453125 6.390625 43.28125 13.890625 
Q 47.125 21.390625 47.125 36.375 
Q 47.125 51.421875 43.28125 58.90625 
Q 39.453125 66.40625 31.78125 66.40625 
z
M 31.78125 74.21875 
Q 44.046875 74.21875 50.515625 64.515625 
Q 56.984375 54.828125 56.984375 36.375 
Q 56.984375 17.96875 50.515625 8.265625 
Q 44.046875 -1.421875 31.78125 -1.421875 
Q 19.53125 -1.421875 13.0625 8.265625 
Q 6.59375 17.96875 6.59375 36.375 
Q 6.59375 54.828125 13.0625 64.515625 
Q 19.53125 74.21875 31.78125 74.21875 
z
" id="DejaVuSans-48"/>
       </defs>
       <use xlink:href="#DejaVuSans-8722"/>
       <use x="83.789062" xlink:href="#DejaVuSans-50"/>
       <use x="147.412109" xlink:href="#DejaVuSans-48"/>
      </g>
     </g>
    </g>
    <g id="ytick_3">
     <g id="line2d_5">
      <g>
       <use style="stroke:#000000;stroke-width:0.8;" x="54" xlink:href="#m9af2b03679" y="162.208398"/>
      </g>
     </g>
     <g id="text_6">
      <!-- −15 -->
      <g transform="translate(25.895312 166.007616)scale(0.1 -0.1)">
       <use xlink:href="#DejaVuSans-8722"/>
       <use x="83.789062" xlink:href="#DejaVuSans-49"/>
       <use x="147.412109" xlink:href="#DejaVuSans-53"/>
      </g>
     </g>
    </g>
    <g id="ytick_4">
     <g id="line2d_6">
      <g>
       <use style="stroke:#000000;stroke-width:0.8;" x="54" xlink:href="#m9af2b03679" y="131.555876"/>
      </g>
     </g>
     <g id="text_7">
      <!-- −10 -->
      <g transform="translate(25.895312 135.355095)scale(0.1 -0.1)">
       <use xlink:href="#DejaVuSans-8722"/>
       <use x="83.789062" xlink:href="#DejaVuSans-49"/>
       <use x="147.412109" xlink:href="#DejaVuSans-48"/>
      </g>
     </g>
    </g>
    <g id="ytick_5">
     <g id="line2d_7">
      <g>
       <use style="stroke:#000000;stroke-width:0.8;" x="54" xlink:href="#m9af2b03679" y="100.903354"/>
      </g>
     </g>
     <g id="text_8">
      <!-- −5 -->
      <g transform="translate(32.257812 104.702573)scale(0.1 -0.1)">
       <use xlink:href="#DejaVuSans-8722"/>
       <use x="83.789062" xlink:href="#DejaVuSans-53"/>
      </g>
     </g>
    </g>
    <g id="ytick_6">
     <g id="line2d_8">
      <g>
       <use style="stroke:#000000;stroke-width:0.8;" x="54" xlink:href="#m9af2b03679" y="70.250832"/>
      </g>
     </g>
     <g id="text_9">
      <!-- 0 -->
      <g transform="translate(40.6375 74.050051)scale(0.1 -0.1)">
       <use xlink:href="#DejaVuSans-48"/>
      </g>
     </g>
    </g>
    <g id="ytick_7">
     <g id="line2d_9">
      <g>
       <use style="stroke:#000000;stroke-width:0.8;" x="54" xlink:href="#m9af2b03679" y="39.598311"/>
      </g>
     </g>
     <g id="text_10">
      <!-- 5 -->
      <g transform="translate(40.6375 43.397529)scale(0.1 -0.1)">
       <use xlink:href="#DejaVuSans-53"/>
      </g>
     </g>
    </g>
    <g id="text_11">
     <!-- value -->
     <g transform="translate(19.815625 156.937813)rotate(-90)scale(0.1 -0.1)">
      <defs>
       <path d="M 2.984375 54.6875 
L 12.5 54.6875 
L 29.59375 8.796875 
L 46.6875 54.6875 
L 56.203125 54.6875 
L 35.6875 0 
L 23.484375 0 
z
" id="DejaVuSans-118"/>
       <path d="M 34.28125 27.484375 
Q 23.390625 27.484375 19.1875 25 
Q 14.984375 22.515625 14.984375 16.5 
Q 14.984375 11.71875 18.140625 8.90625 
Q 21.296875 6.109375 26.703125 6.109375 
Q 34.1875 6.109375 38.703125 11.40625 
Q 43.21875 16.703125 43.21875 25.484375 
L 43.21875 27.484375 
z
M 52.203125 31.203125 
L 52.203125 0 
L 43.21875 0 
L 43.21875 8.296875 
Q 40.140625 3.328125 35.546875 0.953125 
Q 30.953125 -1.421875 24.3125 -1.421875 
Q 15.921875 -1.421875 10.953125 3.296875 
Q 6 8.015625 6 15.921875 
Q 6 25.140625 12.171875 29.828125 
Q 18.359375 34.515625 30.609375 34.515625 
L 43.21875 34.515625 
L 43.21875 35.40625 
Q 43.21875 41.609375 39.140625 45 
Q 35.0625 48.390625 27.6875 48.390625 
Q 23 48.390625 18.546875 47.265625 
Q 14.109375 46.140625 10.015625 43.890625 
L 10.015625 52.203125 
Q 14.9375 54.109375 19.578125 55.046875 
Q 24.21875 56 28.609375 56 
Q 40.484375 56 46.34375 49.84375 
Q 52.203125 43.703125 52.203125 31.203125 
z
" id="DejaVuSans-97"/>
       <path d="M 9.421875 75.984375 
L 18.40625 75.984375 
L 18.40625 0 
L 9.421875 0 
z
" id="DejaVuSans-108"/>
       <path d="M 8.5 21.578125 
L 8.5 54.6875 
L 17.484375 54.6875 
L 17.484375 21.921875 
Q 17.484375 14.15625 20.5 10.265625 
Q 23.53125 6.390625 29.59375 6.390625 
Q 36.859375 6.390625 41.078125 11.03125 
Q 45.3125 15.671875 45.3125 23.6875 
L 45.3125 54.6875 
L 54.296875 54.6875 
L 54.296875 0 
L 45.3125 0 
L 45.3125 8.40625 
Q 42.046875 3.421875 37.71875 1 
Q 33.40625 -1.421875 27.6875 -1.421875 
Q 18.265625 -1.421875 13.375 4.4375 
Q 8.5 10.296875 8.5 21.578125 
z
M 31.109375 56 
z
" id="DejaVuSans-117"/>
      </defs>
      <use xlink:href="#DejaVuSans-118"/>
      <use x="59.179688" xlink:href="#DejaVuSans-97"/>
      <use x="120.458984" xlink:href="#DejaVuSans-108"/>
      <use x="148.242188" xlink:href="#DejaVuSans-117"/>
      <use x="211.621094" xlink:href="#DejaVuSans-101"/>
     </g>
    </g>
   </g>
   <g id="line2d_10">
    <path clip-path="url(#pef32548661)" d="M 104.22 138.982609 
L 104.22 44.443636 
" style="fill:none;stroke:#3f3f3f;stroke-linecap:square;stroke-width:1.5;"/>
   </g>
   <g id="line2d_11">
    <path clip-path="url(#pef32548661)" d="M 104.22 101.955601 
L 104.22 77.270095 
" style="fill:none;stroke:#3f3f3f;stroke-linecap:square;stroke-width:4.5;"/>
   </g>
   <g id="line2d_12">
    <path clip-path="url(#pef32548661)" d="M 338.58 145.22626 
L 338.58 71.228998 
" style="fill:none;stroke:#3f3f3f;stroke-linecap:square;stroke-width:1.5;"/>
   </g>
   <g id="line2d_13">
    <path clip-path="url(#pef32548661)" d="M 338.58 110.366176 
L 338.58 87.111019 
" style="fill:none;stroke:#3f3f3f;stroke-linecap:square;stroke-width:4.5;"/>
   </g>
   <g id="patch_5">
    <path d="M 54 252 
L 54 34.56 
" style="fill:none;stroke:#000000;stroke-linecap:square;stroke-linejoin:miter;stroke-width:0.8;"/>
   </g>
   <g id="patch_6">
    <path d="M 388.8 252 
L 388.8 34.56 
" style="fill:none;stroke:#000000;stroke-linecap:square;stroke-linejoin:miter;stroke-width:0.8;"/>
   </g>
   <g id="patch_7">
    <path d="M 54 252 
L 388.8 252 
" style="fill:none;stroke:#000000;stroke-linecap:square;stroke-linejoin:miter;stroke-width:0.8;"/>
   </g>
   <g id="patch_8">
    <path d="M 54 34.56 
L 388.8 34.56 
" style="fill:none;stroke:#000000;stroke-linecap:square;stroke-linejoin:miter;stroke-width:0.8;"/>
   </g>
   <g id="PathCollection_1">
    <defs>
     <path d="M 0 1.5 
C 0.397805 1.5 0.77937 1.341951 1.06066 1.06066 
C 1.341951 0.77937 1.5 0.397805 1.5 0 
C 1.5 -0.397805 1.341951 -0.77937 1.06066 -1.06066 
C 0.77937 -1.341951 0.397805 -1.5 0 -1.5 
C -0.397805 -1.5 -0.77937 -1.341951 -1.06066 -1.06066 
C -1.341951 -0.77937 -1.5 -0.397805 -1.5 0 
C -1.5 0.397805 -1.341951 0.77937 -1.06066 1.06066 
C -0.77937 1.341951 -0.397805 1.5 0 1.5 
z
" id="mc80c577024" style="stroke:#3f3f3f;"/>
    </defs>
    <g clip-path="url(#pef32548661)">
     <use style="fill:#ffffff;stroke:#3f3f3f;" x="104.22" xlink:href="#mc80c577024" y="85.592094"/>
    </g>
   </g>
   <g id="PathCollection_2">
    <g clip-path="url(#pef32548661)">
     <use style="fill:#ffffff;stroke:#3f3f3f;" x="338.58" xlink:href="#mc80c577024" y="95.835662"/>
    </g>
   </g>
   <g id="legend_1">
    <g id="patch_9">
     <path d="M 61 247 
L 127.759375 247 
Q 129.759375 247 129.759375 245 
L 129.759375 201.409375 
Q 129.759375 199.409375 127.759375 199.409375 
L 61 199.409375 
Q 59 199.409375 59 201.409375 
L 59 245 
Q 59 247 61 247 
z
" style="fill:#ffffff;opacity:0.8;stroke:#cccccc;stroke-linejoin:miter;"/>
    </g>
    <g id="text_12">
     <!-- set -->
     <g transform="translate(86.738281 211.007812)scale(0.1 -0.1)">
      <use xlink:href="#DejaVuSans-115"/>
      <use x="52.099609" xlink:href="#DejaVuSans-101"/>
      <use x="113.623047" xlink:href="#DejaVuSans-116"/>
     </g>
    </g>
    <g id="patch_10">
     <path d="M 63 225.685937 
L 83 225.685937 
L 83 218.685937 
L 63 218.685937 
z
" style="fill:#3274a1;stroke:#3f3f3f;stroke-linejoin:miter;stroke-width:0.75;"/>
    </g>
    <g id="text_13">
     <!-- Z_1_ns -->
     <g transform="translate(91 225.685937)scale(0.1 -0.1)">
      <use xlink:href="#DejaVuSans-90"/>
      <use x="68.505859" xlink:href="#DejaVuSans-95"/>
      <use x="118.505859" xlink:href="#DejaVuSans-49"/>
      <use x="182.128906" xlink:href="#DejaVuSans-95"/>
      <use x="232.128906" xlink:href="#DejaVuSans-110"/>
      <use x="295.507812" xlink:href="#DejaVuSans-115"/>
     </g>
    </g>
    <g id="patch_11">
     <path d="M 63 240.642188 
L 83 240.642188 
L 83 233.642188 
L 63 233.642188 
z
" style="fill:#e1812c;stroke:#3f3f3f;stroke-linejoin:miter;stroke-width:0.75;"/>
    </g>
    <g id="text_14">
     <!-- Z_3_ns -->
     <g transform="translate(91 240.642188)scale(0.1 -0.1)">
      <use xlink:href="#DejaVuSans-90"/>
      <use x="68.505859" xlink:href="#DejaVuSans-95"/>
      <use x="118.505859" xlink:href="#DejaVuSans-51"/>
      <use x="182.128906" xlink:href="#DejaVuSans-95"/>
      <use x="232.128906" xlink:href="#DejaVuSans-110"/>
      <use x="295.507812" xlink:href="#DejaVuSans-115"/>
     </g>
    </g>
   </g>
  </g>
 </g>
 <defs>
  <clipPath id="pef32548661">
   <rect height="217.44" width="334.8" x="54" y="34.56"/>
  </clipPath>
 </defs>
</svg>
