<?xml version="1.0" encoding="utf-8" standalone="no"?>
<!DOCTYPE svg PUBLIC "-//W3C//DTD SVG 1.1//EN"
  "http://www.w3.org/Graphics/SVG/1.1/DTD/svg11.dtd">
<!-- Created with matplotlib (https://matplotlib.org/) -->
<svg height="288pt" version="1.1" viewBox="0 0 432 288" width="432pt" xmlns="http://www.w3.org/2000/svg" xmlns:xlink="http://www.w3.org/1999/xlink">
 <metadata>
  <rdf:RDF xmlns:cc="http://creativecommons.org/ns#" xmlns:dc="http://purl.org/dc/elements/1.1/" xmlns:rdf="http://www.w3.org/1999/02/22-rdf-syntax-ns#">
   <cc:Work>
    <dc:type rdf:resource="http://purl.org/dc/dcmitype/StillImage"/>
    <dc:date>2022-05-12T13:11:23.127117</dc:date>
    <dc:format>image/svg+xml</dc:format>
    <dc:creator>
     <cc:Agent>
      <dc:title>Matplotlib v3.3.4, https://matplotlib.org/</dc:title>
     </cc:Agent>
    </dc:creator>
   </cc:Work>
  </rdf:RDF>
 </metadata>
 <defs>
  <style type="text/css">*{stroke-linecap:butt;stroke-linejoin:round;}</style>
 </defs>
 <g id="figure_1">
  <g id="patch_1">
   <path d="M 0 288 
L 432 288 
L 432 0 
L 0 0 
z
" style="fill:#ffffff;"/>
  </g>
  <g id="axes_1">
   <g id="patch_2">
    <path d="M 54 252 
L 388.8 252 
L 388.8 34.56 
L 54 34.56 
z
" style="fill:#ffffff;"/>
   </g>
   <g id="PolyCollection_1">
    <defs>
     <path d="M 80.090588 -45.883636 
L 79.989412 -45.883636 
L 79.977421 -47.82655 
L 79.962725 -49.769464 
L 79.94439 -51.712378 
L 79.921439 -53.655292 
L 79.892866 -55.598206 
L 79.85755 -57.54112 
L 79.814163 -59.484034 
L 79.761151 -61.426948 
L 79.696848 -63.369862 
L 79.619658 -65.312776 
L 79.528167 -67.25569 
L 79.421011 -69.198604 
L 79.29649 -71.141519 
L 79.152132 -73.084433 
L 78.984595 -75.027347 
L 78.790294 -76.970261 
L 78.566786 -78.913175 
L 78.314467 -80.856089 
L 78.037694 -82.799003 
L 77.744481 -84.741917 
L 77.444427 -86.684831 
L 77.145461 -88.627745 
L 76.850704 -90.570659 
L 76.556948 -92.513573 
L 76.255684 -94.456487 
L 75.936438 -96.399401 
L 75.591016 -98.342315 
L 75.216693 -100.285229 
L 74.816816 -102.228143 
L 74.398581 -104.171057 
L 73.969265 -106.113971 
L 73.533059 -108.056885 
L 73.090311 -109.999799 
L 72.639548 -111.942713 
L 72.181009 -113.885627 
L 71.719488 -115.828541 
L 71.264676 -117.771455 
L 70.828688 -119.714369 
L 70.421989 -121.657283 
L 70.049761 -123.600197 
L 69.710292 -125.543111 
L 69.395858 -127.486025 
L 69.095421 -129.428939 
L 68.798088 -131.371853 
L 68.496465 -133.314767 
L 68.189414 -135.257681 
L 67.883834 -137.200595 
L 67.594843 -139.143509 
L 67.343668 -141.086423 
L 67.152929 -143.029337 
L 67.040046 -144.972251 
L 67.010662 -146.915165 
L 67.054588 -148.858079 
L 67.146323 -150.800993 
L 67.250518 -152.743907 
L 67.330717 -154.686821 
L 67.358157 -156.629735 
L 67.317404 -158.572649 
L 67.207094 -160.515563 
L 67.036343 -162.458477 
L 66.819271 -164.401391 
L 66.570518 -166.344305 
L 66.303566 -168.287219 
L 66.031762 -170.230133 
L 65.770255 -172.173047 
L 65.53659 -174.115961 
L 65.34871 -176.058875 
L 65.220927 -178.001789 
L 65.16 -179.944703 
L 65.163683 -181.887617 
L 65.222792 -183.830531 
L 65.325782 -185.773445 
L 65.463373 -187.716359 
L 65.630904 -189.659273 
L 65.827733 -191.602187 
L 66.05492 -193.545101 
L 66.313298 -195.488015 
L 66.603364 -197.430929 
L 66.92675 -199.373843 
L 67.287768 -201.316757 
L 67.693468 -203.259671 
L 68.151811 -205.202585 
L 68.668961 -207.145499 
L 69.24732 -209.088413 
L 69.885322 -211.031327 
L 70.578668 -212.974241 
L 71.321716 -214.917155 
L 72.107731 -216.860069 
L 72.927733 -218.802983 
L 73.768863 -220.745897 
L 74.613669 -222.688811 
L 75.441134 -224.631725 
L 76.229219 -226.574639 
L 76.957848 -228.517553 
L 77.611247 -230.460467 
L 78.179139 -232.403381 
L 78.656916 -234.346295 
L 79.045235 -236.289209 
L 79.349341 -238.232123 
L 80.730659 -238.232123 
L 80.730659 -238.232123 
L 81.034765 -236.289209 
L 81.423084 -234.346295 
L 81.900861 -232.403381 
L 82.468753 -230.460467 
L 83.122152 -228.517553 
L 83.850781 -226.574639 
L 84.638866 -224.631725 
L 85.466331 -222.688811 
L 86.311137 -220.745897 
L 87.152267 -218.802983 
L 87.972269 -216.860069 
L 88.758284 -214.917155 
L 89.501332 -212.974241 
L 90.194678 -211.031327 
L 90.83268 -209.088413 
L 91.411039 -207.145499 
L 91.928189 -205.202585 
L 92.386532 -203.259671 
L 92.792232 -201.316757 
L 93.15325 -199.373843 
L 93.476636 -197.430929 
L 93.766702 -195.488015 
L 94.02508 -193.545101 
L 94.252267 -191.602187 
L 94.449096 -189.659273 
L 94.616627 -187.716359 
L 94.754218 -185.773445 
L 94.857208 -183.830531 
L 94.916317 -181.887617 
L 94.92 -179.944703 
L 94.859073 -178.001789 
L 94.73129 -176.058875 
L 94.54341 -174.115961 
L 94.309745 -172.173047 
L 94.048238 -170.230133 
L 93.776434 -168.287219 
L 93.509482 -166.344305 
L 93.260729 -164.401391 
L 93.043657 -162.458477 
L 92.872906 -160.515563 
L 92.762596 -158.572649 
L 92.721843 -156.629735 
L 92.749283 -154.686821 
L 92.829482 -152.743907 
L 92.933677 -150.800993 
L 93.025412 -148.858079 
L 93.069338 -146.915165 
L 93.039954 -144.972251 
L 92.927071 -143.029337 
L 92.736332 -141.086423 
L 92.485157 -139.143509 
L 92.196166 -137.200595 
L 91.890586 -135.257681 
L 91.583535 -133.314767 
L 91.281912 -131.371853 
L 90.984579 -129.428939 
L 90.684142 -127.486025 
L 90.369708 -125.543111 
L 90.030239 -123.600197 
L 89.658011 -121.657283 
L 89.251312 -119.714369 
L 88.815324 -117.771455 
L 88.360512 -115.828541 
L 87.898991 -113.885627 
L 87.440452 -111.942713 
L 86.989689 -109.999799 
L 86.546941 -108.056885 
L 86.110735 -106.113971 
L 85.681419 -104.171057 
L 85.263184 -102.228143 
L 84.863307 -100.285229 
L 84.488984 -98.342315 
L 84.143562 -96.399401 
L 83.824316 -94.456487 
L 83.523052 -92.513573 
L 83.229296 -90.570659 
L 82.934539 -88.627745 
L 82.635573 -86.684831 
L 82.335519 -84.741917 
L 82.042306 -82.799003 
L 81.765533 -80.856089 
L 81.513214 -78.913175 
L 81.289706 -76.970261 
L 81.095405 -75.027347 
L 80.927868 -73.084433 
L 80.78351 -71.141519 
L 80.658989 -69.198604 
L 80.551833 -67.25569 
L 80.460342 -65.312776 
L 80.383152 -63.369862 
L 80.318849 -61.426948 
L 80.265837 -59.484034 
L 80.22245 -57.54112 
L 80.187134 -55.598206 
L 80.158561 -53.655292 
L 80.13561 -51.712378 
L 80.117275 -49.769464 
L 80.102579 -47.82655 
L 80.090588 -45.883636 
z
" id="m453f826f44" style="stroke:#3d3d3d;stroke-width:1.5;"/>
    </defs>
    <g clip-path="url(#p01499d1953)">
     <use style="fill:#3274a1;stroke:#3d3d3d;stroke-width:1.5;" x="0" xlink:href="#m453f826f44" y="288"/>
    </g>
   </g>
   <g id="PolyCollection_2">
    <defs>
     <path d="M 221.626545 -53.70617 
L 221.173455 -53.70617 
L 221.12125 -55.623848 
L 221.058822 -57.541527 
L 220.983794 -59.459206 
L 220.893663 -61.376885 
L 220.786165 -63.294563 
L 220.65964 -65.212242 
L 220.513306 -67.129921 
L 220.347351 -69.047599 
L 220.162808 -70.965278 
L 219.961244 -72.882957 
L 219.744385 -74.800636 
L 219.513803 -76.718314 
L 219.270777 -78.635993 
L 219.01636 -80.553672 
L 218.751604 -82.471351 
L 218.477811 -84.389029 
L 218.19669 -86.306708 
L 217.910363 -88.224387 
L 217.621209 -90.142065 
L 217.331643 -92.059744 
L 217.043898 -93.977423 
L 216.759887 -95.895102 
L 216.481104 -97.81278 
L 216.208507 -99.730459 
L 215.942301 -101.648138 
L 215.681607 -103.565817 
L 215.424106 -105.483495 
L 215.165817 -107.401174 
L 214.901224 -109.318853 
L 214.623855 -111.236531 
L 214.327342 -113.15421 
L 214.006743 -115.071889 
L 213.659853 -116.989568 
L 213.288124 -118.907246 
L 212.896919 -120.824925 
L 212.494997 -122.742604 
L 212.093344 -124.660283 
L 211.703598 -126.577961 
L 211.336457 -128.49564 
L 211.000366 -130.413319 
L 210.700666 -132.330997 
L 210.439243 -134.248676 
L 210.214575 -136.166355 
L 210.022055 -138.084034 
L 209.854485 -140.001712 
L 209.702733 -141.919391 
L 209.556542 -143.83707 
L 209.40552 -145.754749 
L 209.240241 -147.672427 
L 209.053315 -149.590106 
L 208.840288 -151.507785 
L 208.600227 -153.425463 
L 208.335932 -155.343142 
L 208.053799 -157.260821 
L 207.763371 -159.1785 
L 207.476617 -161.096178 
L 207.206942 -163.013857 
L 206.967936 -164.931536 
L 206.771965 -166.849215 
L 206.628753 -168.766893 
L 206.544245 -170.684572 
L 206.52 -172.602251 
L 206.553276 -174.519929 
L 206.637787 -176.437608 
L 206.764914 -178.355287 
L 206.925063 -180.272966 
L 207.108841 -182.190644 
L 207.30786 -184.108323 
L 207.515137 -186.026002 
L 207.72522 -187.943681 
L 207.934232 -189.861359 
L 208.140031 -191.779038 
L 208.342575 -193.696717 
L 208.544468 -195.614395 
L 208.75151 -197.532074 
L 208.973026 -199.449753 
L 209.221695 -201.367432 
L 209.512683 -203.28511 
L 209.862027 -205.202789 
L 210.284406 -207.120468 
L 210.790655 -209.038147 
L 211.385508 -210.955825 
L 212.066103 -212.873504 
L 212.821608 -214.791183 
L 213.634114 -216.708861 
L 214.480617 -218.62654 
L 215.335654 -220.544219 
L 216.174051 -222.461898 
L 216.973282 -224.379576 
L 217.715103 -226.297255 
L 218.386357 -228.214934 
L 218.979068 -230.132613 
L 219.49002 -232.050291 
L 219.920079 -233.96797 
L 220.27341 -235.885649 
L 220.556678 -237.803327 
L 220.77827 -239.721006 
L 220.947516 -241.638685 
L 221.073946 -243.556364 
L 221.726054 -243.556364 
L 221.726054 -243.556364 
L 221.852484 -241.638685 
L 222.02173 -239.721006 
L 222.243322 -237.803327 
L 222.52659 -235.885649 
L 222.879921 -233.96797 
L 223.30998 -232.050291 
L 223.820932 -230.132613 
L 224.413643 -228.214934 
L 225.084897 -226.297255 
L 225.826718 -224.379576 
L 226.625949 -222.461898 
L 227.464346 -220.544219 
L 228.319383 -218.62654 
L 229.165886 -216.708861 
L 229.978392 -214.791183 
L 230.733897 -212.873504 
L 231.414492 -210.955825 
L 232.009345 -209.038147 
L 232.515594 -207.120468 
L 232.937973 -205.202789 
L 233.287317 -203.28511 
L 233.578305 -201.367432 
L 233.826974 -199.449753 
L 234.04849 -197.532074 
L 234.255532 -195.614395 
L 234.457425 -193.696717 
L 234.659969 -191.779038 
L 234.865768 -189.861359 
L 235.07478 -187.943681 
L 235.284863 -186.026002 
L 235.49214 -184.108323 
L 235.691159 -182.190644 
L 235.874937 -180.272966 
L 236.035086 -178.355287 
L 236.162213 -176.437608 
L 236.246724 -174.519929 
L 236.28 -172.602251 
L 236.255755 -170.684572 
L 236.171247 -168.766893 
L 236.028035 -166.849215 
L 235.832064 -164.931536 
L 235.593058 -163.013857 
L 235.323383 -161.096178 
L 235.036629 -159.1785 
L 234.746201 -157.260821 
L 234.464068 -155.343142 
L 234.199773 -153.425463 
L 233.959712 -151.507785 
L 233.746685 -149.590106 
L 233.559759 -147.672427 
L 233.39448 -145.754749 
L 233.243458 -143.83707 
L 233.097267 -141.919391 
L 232.945515 -140.001712 
L 232.777945 -138.084034 
L 232.585425 -136.166355 
L 232.360757 -134.248676 
L 232.099334 -132.330997 
L 231.799634 -130.413319 
L 231.463543 -128.49564 
L 231.096402 -126.577961 
L 230.706656 -124.660283 
L 230.305003 -122.742604 
L 229.903081 -120.824925 
L 229.511876 -118.907246 
L 229.140147 -116.989568 
L 228.793257 -115.071889 
L 228.472658 -113.15421 
L 228.176145 -111.236531 
L 227.898776 -109.318853 
L 227.634183 -107.401174 
L 227.375894 -105.483495 
L 227.118393 -103.565817 
L 226.857699 -101.648138 
L 226.591493 -99.730459 
L 226.318896 -97.81278 
L 226.040113 -95.895102 
L 225.756102 -93.977423 
L 225.468357 -92.059744 
L 225.178791 -90.142065 
L 224.889637 -88.224387 
L 224.60331 -86.306708 
L 224.322189 -84.389029 
L 224.048396 -82.471351 
L 223.78364 -80.553672 
L 223.529223 -78.635993 
L 223.286197 -76.718314 
L 223.055615 -74.800636 
L 222.838756 -72.882957 
L 222.637192 -70.965278 
L 222.452649 -69.047599 
L 222.286694 -67.129921 
L 222.14036 -65.212242 
L 222.013835 -63.294563 
L 221.906337 -61.376885 
L 221.816206 -59.459206 
L 221.741178 -57.541527 
L 221.67875 -55.623848 
L 221.626545 -53.70617 
z
" id="me16b371848" style="stroke:#3d3d3d;stroke-width:1.5;"/>
    </defs>
    <g clip-path="url(#p01499d1953)">
     <use style="fill:#e1812c;stroke:#3d3d3d;stroke-width:1.5;" x="0" xlink:href="#me16b371848" y="288"/>
    </g>
   </g>
   <g id="PolyCollection_3">
    <defs>
     <path d="M 363.206113 -64.379396 
L 362.313887 -64.379396 
L 362.204318 -66.133221 
L 362.075558 -67.887045 
L 361.925625 -69.64087 
L 361.752724 -71.394695 
L 361.555427 -73.148519 
L 361.332849 -74.902344 
L 361.084791 -76.656168 
L 360.811813 -78.409993 
L 360.515235 -80.163818 
L 360.197055 -81.917642 
L 359.859795 -83.671467 
L 359.5063 -85.425291 
L 359.139511 -87.179116 
L 358.76225 -88.932941 
L 358.37705 -90.686765 
L 357.986071 -92.44059 
L 357.591123 -94.194414 
L 357.193808 -95.948239 
L 356.795731 -97.702064 
L 356.398713 -99.455888 
L 356.004904 -101.209713 
L 355.616726 -102.963537 
L 355.236627 -104.717362 
L 354.866694 -106.471187 
L 354.508279 -108.225011 
L 354.161781 -109.978836 
L 353.826726 -111.73266 
L 353.502153 -113.486485 
L 353.187208 -115.240309 
L 352.881732 -116.994134 
L 352.586618 -118.747959 
L 352.303776 -120.501783 
L 352.0357 -122.255608 
L 351.784736 -124.009432 
L 351.552317 -125.763257 
L 351.338363 -127.517082 
L 351.141057 -129.270906 
L 350.957021 -131.024731 
L 350.781862 -132.778555 
L 350.61095 -134.53238 
L 350.440293 -136.286205 
L 350.267363 -138.040029 
L 350.091738 -139.793854 
L 349.915447 -141.547678 
L 349.742914 -143.301503 
L 349.580426 -145.055328 
L 349.435138 -146.809152 
L 349.313727 -148.562977 
L 349.220935 -150.316801 
L 349.158301 -152.070626 
L 349.12341 -153.824451 
L 349.109898 -155.578275 
L 349.108289 -157.3321 
L 349.107541 -159.085924 
L 349.096971 -160.839749 
L 349.068128 -162.593573 
L 349.016168 -164.347398 
L 348.940392 -166.101223 
L 348.843868 -167.855047 
L 348.732256 -169.608872 
L 348.612248 -171.362696 
L 348.490066 -173.116521 
L 348.37049 -174.870346 
L 348.256666 -176.62417 
L 348.150722 -178.377995 
L 348.054961 -180.131819 
L 347.973198 -181.885644 
L 347.911793 -183.639469 
L 347.88 -185.393293 
L 347.889433 -187.147118 
L 347.952727 -188.900942 
L 348.081653 -190.654767 
L 348.285127 -192.408592 
L 348.567569 -194.162416 
L 348.927979 -195.916241 
L 349.359976 -197.670065 
L 349.852773 -199.42389 
L 350.392904 -201.177715 
L 350.966346 -202.931539 
L 351.560601 -204.685364 
L 352.166335 -206.439188 
L 352.77826 -208.193013 
L 353.395119 -209.946838 
L 354.018812 -211.700662 
L 354.652854 -213.454487 
L 355.30053 -215.208311 
L 355.963104 -216.962136 
L 356.638471 -218.71596 
L 357.320526 -220.469785 
L 357.999347 -222.22361 
L 358.662172 -223.977434 
L 359.29493 -225.731259 
L 359.884026 -227.485083 
L 360.418018 -229.238908 
L 360.888896 -230.992733 
L 361.292744 -232.746557 
L 361.629766 -234.500382 
L 361.903729 -236.254206 
L 362.121028 -238.008031 
L 363.398972 -238.008031 
L 363.398972 -238.008031 
L 363.616271 -236.254206 
L 363.890234 -234.500382 
L 364.227256 -232.746557 
L 364.631104 -230.992733 
L 365.101982 -229.238908 
L 365.635974 -227.485083 
L 366.22507 -225.731259 
L 366.857828 -223.977434 
L 367.520653 -222.22361 
L 368.199474 -220.469785 
L 368.881529 -218.71596 
L 369.556896 -216.962136 
L 370.21947 -215.208311 
L 370.867146 -213.454487 
L 371.501188 -211.700662 
L 372.124881 -209.946838 
L 372.74174 -208.193013 
L 373.353665 -206.439188 
L 373.959399 -204.685364 
L 374.553654 -202.931539 
L 375.127096 -201.177715 
L 375.667227 -199.42389 
L 376.160024 -197.670065 
L 376.592021 -195.916241 
L 376.952431 -194.162416 
L 377.234873 -192.408592 
L 377.438347 -190.654767 
L 377.567273 -188.900942 
L 377.630567 -187.147118 
L 377.64 -185.393293 
L 377.608207 -183.639469 
L 377.546802 -181.885644 
L 377.465039 -180.131819 
L 377.369278 -178.377995 
L 377.263334 -176.62417 
L 377.14951 -174.870346 
L 377.029934 -173.116521 
L 376.907752 -171.362696 
L 376.787744 -169.608872 
L 376.676132 -167.855047 
L 376.579608 -166.101223 
L 376.503832 -164.347398 
L 376.451872 -162.593573 
L 376.423029 -160.839749 
L 376.412459 -159.085924 
L 376.411711 -157.3321 
L 376.410102 -155.578275 
L 376.39659 -153.824451 
L 376.361699 -152.070626 
L 376.299065 -150.316801 
L 376.206273 -148.562977 
L 376.084862 -146.809152 
L 375.939574 -145.055328 
L 375.777086 -143.301503 
L 375.604553 -141.547678 
L 375.428262 -139.793854 
L 375.252637 -138.040029 
L 375.079707 -136.286205 
L 374.90905 -134.53238 
L 374.738138 -132.778555 
L 374.562979 -131.024731 
L 374.378943 -129.270906 
L 374.181637 -127.517082 
L 373.967683 -125.763257 
L 373.735264 -124.009432 
L 373.4843 -122.255608 
L 373.216224 -120.501783 
L 372.933382 -118.747959 
L 372.638268 -116.994134 
L 372.332792 -115.240309 
L 372.017847 -113.486485 
L 371.693274 -111.73266 
L 371.358219 -109.978836 
L 371.011721 -108.225011 
L 370.653306 -106.471187 
L 370.283373 -104.717362 
L 369.903274 -102.963537 
L 369.515096 -101.209713 
L 369.121287 -99.455888 
L 368.724269 -97.702064 
L 368.326192 -95.948239 
L 367.928877 -94.194414 
L 367.533929 -92.44059 
L 367.14295 -90.686765 
L 366.75775 -88.932941 
L 366.380489 -87.179116 
L 366.0137 -85.425291 
L 365.660205 -83.671467 
L 365.322945 -81.917642 
L 365.004765 -80.163818 
L 364.708187 -78.409993 
L 364.435209 -76.656168 
L 364.187151 -74.902344 
L 363.964573 -73.148519 
L 363.767276 -71.394695 
L 363.594375 -69.64087 
L 363.444442 -67.887045 
L 363.315682 -66.133221 
L 363.206113 -64.379396 
z
" id="mf9e2896353" style="stroke:#3d3d3d;stroke-width:1.5;"/>
    </defs>
    <g clip-path="url(#p01499d1953)">
     <use style="fill:#3a923a;stroke:#3d3d3d;stroke-width:1.5;" x="0" xlink:href="#mf9e2896353" y="288"/>
    </g>
   </g>
   <g id="patch_3">
    <path clip-path="url(#p01499d1953)" d="M 109.8 280.290926 
L 109.8 280.290926 
L 109.8 280.290926 
L 109.8 280.290926 
z
" style="fill:#3274a1;stroke:#3d3d3d;stroke-linejoin:miter;stroke-width:0.75;"/>
   </g>
   <g id="patch_4">
    <path clip-path="url(#p01499d1953)" d="M 109.8 280.290926 
L 109.8 280.290926 
L 109.8 280.290926 
L 109.8 280.290926 
z
" style="fill:#e1812c;stroke:#3d3d3d;stroke-linejoin:miter;stroke-width:0.75;"/>
   </g>
   <g id="patch_5">
    <path clip-path="url(#p01499d1953)" d="M 109.8 280.290926 
L 109.8 280.290926 
L 109.8 280.290926 
L 109.8 280.290926 
z
" style="fill:#3a923a;stroke:#3d3d3d;stroke-linejoin:miter;stroke-width:0.75;"/>
   </g>
   <g id="matplotlib.axis_1">
    <g id="xtick_1">
     <g id="line2d_1">
      <defs>
       <path d="M 0 0 
L 0 3.5 
" id="mb17241eba3" style="stroke:#000000;stroke-width:0.8;"/>
      </defs>
      <g>
       <use style="stroke:#000000;stroke-width:0.8;" x="109.8" xlink:href="#mb17241eba3" y="252"/>
      </g>
     </g>
     <g id="text_1">
      <!-- train -->
      <g transform="translate(98.1625 266.598437)scale(0.1 -0.1)">
       <defs>
        <path d="M 18.3125 70.21875 
L 18.3125 54.6875 
L 36.8125 54.6875 
L 36.8125 47.703125 
L 18.3125 47.703125 
L 18.3125 18.015625 
Q 18.3125 11.328125 20.140625 9.421875 
Q 21.96875 7.515625 27.59375 7.515625 
L 36.8125 7.515625 
L 36.8125 0 
L 27.59375 0 
Q 17.1875 0 13.234375 3.875 
Q 9.28125 7.765625 9.28125 18.015625 
L 9.28125 47.703125 
L 2.6875 47.703125 
L 2.6875 54.6875 
L 9.28125 54.6875 
L 9.28125 70.21875 
z
" id="DejaVuSans-116"/>
        <path d="M 41.109375 46.296875 
Q 39.59375 47.171875 37.8125 47.578125 
Q 36.03125 48 33.890625 48 
Q 26.265625 48 22.1875 43.046875 
Q 18.109375 38.09375 18.109375 28.8125 
L 18.109375 0 
L 9.078125 0 
L 9.078125 54.6875 
L 18.109375 54.6875 
L 18.109375 46.1875 
Q 20.953125 51.171875 25.484375 53.578125 
Q 30.03125 56 36.53125 56 
Q 37.453125 56 38.578125 55.875 
Q 39.703125 55.765625 41.0625 55.515625 
z
" id="DejaVuSans-114"/>
        <path d="M 34.28125 27.484375 
Q 23.390625 27.484375 19.1875 25 
Q 14.984375 22.515625 14.984375 16.5 
Q 14.984375 11.71875 18.140625 8.90625 
Q 21.296875 6.109375 26.703125 6.109375 
Q 34.1875 6.109375 38.703125 11.40625 
Q 43.21875 16.703125 43.21875 25.484375 
L 43.21875 27.484375 
z
M 52.203125 31.203125 
L 52.203125 0 
L 43.21875 0 
L 43.21875 8.296875 
Q 40.140625 3.328125 35.546875 0.953125 
Q 30.953125 -1.421875 24.3125 -1.421875 
Q 15.921875 -1.421875 10.953125 3.296875 
Q 6 8.015625 6 15.921875 
Q 6 25.140625 12.171875 29.828125 
Q 18.359375 34.515625 30.609375 34.515625 
L 43.21875 34.515625 
L 43.21875 35.40625 
Q 43.21875 41.609375 39.140625 45 
Q 35.0625 48.390625 27.6875 48.390625 
Q 23 48.390625 18.546875 47.265625 
Q 14.109375 46.140625 10.015625 43.890625 
L 10.015625 52.203125 
Q 14.9375 54.109375 19.578125 55.046875 
Q 24.21875 56 28.609375 56 
Q 40.484375 56 46.34375 49.84375 
Q 52.203125 43.703125 52.203125 31.203125 
z
" id="DejaVuSans-97"/>
        <path d="M 9.421875 54.6875 
L 18.40625 54.6875 
L 18.40625 0 
L 9.421875 0 
z
M 9.421875 75.984375 
L 18.40625 75.984375 
L 18.40625 64.59375 
L 9.421875 64.59375 
z
" id="DejaVuSans-105"/>
        <path d="M 54.890625 33.015625 
L 54.890625 0 
L 45.90625 0 
L 45.90625 32.71875 
Q 45.90625 40.484375 42.875 44.328125 
Q 39.84375 48.1875 33.796875 48.1875 
Q 26.515625 48.1875 22.3125 43.546875 
Q 18.109375 38.921875 18.109375 30.90625 
L 18.109375 0 
L 9.078125 0 
L 9.078125 54.6875 
L 18.109375 54.6875 
L 18.109375 46.1875 
Q 21.34375 51.125 25.703125 53.5625 
Q 30.078125 56 35.796875 56 
Q 45.21875 56 50.046875 50.171875 
Q 54.890625 44.34375 54.890625 33.015625 
z
" id="DejaVuSans-110"/>
       </defs>
       <use xlink:href="#DejaVuSans-116"/>
       <use x="39.208984" xlink:href="#DejaVuSans-114"/>
       <use x="80.322266" xlink:href="#DejaVuSans-97"/>
       <use x="141.601562" xlink:href="#DejaVuSans-105"/>
       <use x="169.384766" xlink:href="#DejaVuSans-110"/>
      </g>
     </g>
    </g>
    <g id="xtick_2">
     <g id="line2d_2">
      <g>
       <use style="stroke:#000000;stroke-width:0.8;" x="221.4" xlink:href="#mb17241eba3" y="252"/>
      </g>
     </g>
     <g id="text_2">
      <!-- val -->
      <g transform="translate(213.9875 266.598437)scale(0.1 -0.1)">
       <defs>
        <path d="M 2.984375 54.6875 
L 12.5 54.6875 
L 29.59375 8.796875 
L 46.6875 54.6875 
L 56.203125 54.6875 
L 35.6875 0 
L 23.484375 0 
z
" id="DejaVuSans-118"/>
        <path d="M 9.421875 75.984375 
L 18.40625 75.984375 
L 18.40625 0 
L 9.421875 0 
z
" id="DejaVuSans-108"/>
       </defs>
       <use xlink:href="#DejaVuSans-118"/>
       <use x="59.179688" xlink:href="#DejaVuSans-97"/>
       <use x="120.458984" xlink:href="#DejaVuSans-108"/>
      </g>
     </g>
    </g>
    <g id="xtick_3">
     <g id="line2d_3">
      <g>
       <use style="stroke:#000000;stroke-width:0.8;" x="333" xlink:href="#mb17241eba3" y="252"/>
      </g>
     </g>
     <g id="text_3">
      <!-- test -->
      <g transform="translate(323.398438 266.598437)scale(0.1 -0.1)">
       <defs>
        <path d="M 56.203125 29.59375 
L 56.203125 25.203125 
L 14.890625 25.203125 
Q 15.484375 15.921875 20.484375 11.0625 
Q 25.484375 6.203125 34.421875 6.203125 
Q 39.59375 6.203125 44.453125 7.46875 
Q 49.3125 8.734375 54.109375 11.28125 
L 54.109375 2.78125 
Q 49.265625 0.734375 44.1875 -0.34375 
Q 39.109375 -1.421875 33.890625 -1.421875 
Q 20.796875 -1.421875 13.15625 6.1875 
Q 5.515625 13.8125 5.515625 26.8125 
Q 5.515625 40.234375 12.765625 48.109375 
Q 20.015625 56 32.328125 56 
Q 43.359375 56 49.78125 48.890625 
Q 56.203125 41.796875 56.203125 29.59375 
z
M 47.21875 32.234375 
Q 47.125 39.59375 43.09375 43.984375 
Q 39.0625 48.390625 32.421875 48.390625 
Q 24.90625 48.390625 20.390625 44.140625 
Q 15.875 39.890625 15.1875 32.171875 
z
" id="DejaVuSans-101"/>
        <path d="M 44.28125 53.078125 
L 44.28125 44.578125 
Q 40.484375 46.53125 36.375 47.5 
Q 32.28125 48.484375 27.875 48.484375 
Q 21.1875 48.484375 17.84375 46.4375 
Q 14.5 44.390625 14.5 40.28125 
Q 14.5 37.15625 16.890625 35.375 
Q 19.28125 33.59375 26.515625 31.984375 
L 29.59375 31.296875 
Q 39.15625 29.25 43.1875 25.515625 
Q 47.21875 21.78125 47.21875 15.09375 
Q 47.21875 7.46875 41.1875 3.015625 
Q 35.15625 -1.421875 24.609375 -1.421875 
Q 20.21875 -1.421875 15.453125 -0.5625 
Q 10.6875 0.296875 5.421875 2 
L 5.421875 11.28125 
Q 10.40625 8.6875 15.234375 7.390625 
Q 20.0625 6.109375 24.8125 6.109375 
Q 31.15625 6.109375 34.5625 8.28125 
Q 37.984375 10.453125 37.984375 14.40625 
Q 37.984375 18.0625 35.515625 20.015625 
Q 33.0625 21.96875 24.703125 23.78125 
L 21.578125 24.515625 
Q 13.234375 26.265625 9.515625 29.90625 
Q 5.8125 33.546875 5.8125 39.890625 
Q 5.8125 47.609375 11.28125 51.796875 
Q 16.75 56 26.8125 56 
Q 31.78125 56 36.171875 55.265625 
Q 40.578125 54.546875 44.28125 53.078125 
z
" id="DejaVuSans-115"/>
       </defs>
       <use xlink:href="#DejaVuSans-116"/>
       <use x="39.208984" xlink:href="#DejaVuSans-101"/>
       <use x="100.732422" xlink:href="#DejaVuSans-115"/>
       <use x="152.832031" xlink:href="#DejaVuSans-116"/>
      </g>
     </g>
    </g>
    <g id="text_4">
     <!-- set -->
     <g transform="translate(213.758594 280.276563)scale(0.1 -0.1)">
      <use xlink:href="#DejaVuSans-115"/>
      <use x="52.099609" xlink:href="#DejaVuSans-101"/>
      <use x="113.623047" xlink:href="#DejaVuSans-116"/>
     </g>
    </g>
   </g>
   <g id="matplotlib.axis_2">
    <g id="ytick_1">
     <g id="line2d_4">
      <defs>
       <path d="M 0 0 
L -3.5 0 
" id="m9c5ebd8628" style="stroke:#000000;stroke-width:0.8;"/>
      </defs>
      <g>
       <use style="stroke:#000000;stroke-width:0.8;" x="54" xlink:href="#m9c5ebd8628" y="229.271153"/>
      </g>
     </g>
     <g id="text_5">
      <!-- 0.2 -->
      <g transform="translate(31.096875 233.070372)scale(0.1 -0.1)">
       <defs>
        <path d="M 31.78125 66.40625 
Q 24.171875 66.40625 20.328125 58.90625 
Q 16.5 51.421875 16.5 36.375 
Q 16.5 21.390625 20.328125 13.890625 
Q 24.171875 6.390625 31.78125 6.390625 
Q 39.453125 6.390625 43.28125 13.890625 
Q 47.125 21.390625 47.125 36.375 
Q 47.125 51.421875 43.28125 58.90625 
Q 39.453125 66.40625 31.78125 66.40625 
z
M 31.78125 74.21875 
Q 44.046875 74.21875 50.515625 64.515625 
Q 56.984375 54.828125 56.984375 36.375 
Q 56.984375 17.96875 50.515625 8.265625 
Q 44.046875 -1.421875 31.78125 -1.421875 
Q 19.53125 -1.421875 13.0625 8.265625 
Q 6.59375 17.96875 6.59375 36.375 
Q 6.59375 54.828125 13.0625 64.515625 
Q 19.53125 74.21875 31.78125 74.21875 
z
" id="DejaVuSans-48"/>
        <path d="M 10.6875 12.40625 
L 21 12.40625 
L 21 0 
L 10.6875 0 
z
" id="DejaVuSans-46"/>
        <path d="M 19.1875 8.296875 
L 53.609375 8.296875 
L 53.609375 0 
L 7.328125 0 
L 7.328125 8.296875 
Q 12.9375 14.109375 22.625 23.890625 
Q 32.328125 33.6875 34.8125 36.53125 
Q 39.546875 41.84375 41.421875 45.53125 
Q 43.3125 49.21875 43.3125 52.78125 
Q 43.3125 58.59375 39.234375 62.25 
Q 35.15625 65.921875 28.609375 65.921875 
Q 23.96875 65.921875 18.8125 64.3125 
Q 13.671875 62.703125 7.8125 59.421875 
L 7.8125 69.390625 
Q 13.765625 71.78125 18.9375 73 
Q 24.125 74.21875 28.421875 74.21875 
Q 39.75 74.21875 46.484375 68.546875 
Q 53.21875 62.890625 53.21875 53.421875 
Q 53.21875 48.921875 51.53125 44.890625 
Q 49.859375 40.875 45.40625 35.40625 
Q 44.1875 33.984375 37.640625 27.21875 
Q 31.109375 20.453125 19.1875 8.296875 
z
" id="DejaVuSans-50"/>
       </defs>
       <use xlink:href="#DejaVuSans-48"/>
       <use x="63.623047" xlink:href="#DejaVuSans-46"/>
       <use x="95.410156" xlink:href="#DejaVuSans-50"/>
      </g>
     </g>
    </g>
    <g id="ytick_2">
     <g id="line2d_5">
      <g>
       <use style="stroke:#000000;stroke-width:0.8;" x="54" xlink:href="#m9c5ebd8628" y="203.761267"/>
      </g>
     </g>
     <g id="text_6">
      <!-- 0.3 -->
      <g transform="translate(31.096875 207.560486)scale(0.1 -0.1)">
       <defs>
        <path d="M 40.578125 39.3125 
Q 47.65625 37.796875 51.625 33 
Q 55.609375 28.21875 55.609375 21.1875 
Q 55.609375 10.40625 48.1875 4.484375 
Q 40.765625 -1.421875 27.09375 -1.421875 
Q 22.515625 -1.421875 17.65625 -0.515625 
Q 12.796875 0.390625 7.625 2.203125 
L 7.625 11.71875 
Q 11.71875 9.328125 16.59375 8.109375 
Q 21.484375 6.890625 26.8125 6.890625 
Q 36.078125 6.890625 40.9375 10.546875 
Q 45.796875 14.203125 45.796875 21.1875 
Q 45.796875 27.640625 41.28125 31.265625 
Q 36.765625 34.90625 28.71875 34.90625 
L 20.21875 34.90625 
L 20.21875 43.015625 
L 29.109375 43.015625 
Q 36.375 43.015625 40.234375 45.921875 
Q 44.09375 48.828125 44.09375 54.296875 
Q 44.09375 59.90625 40.109375 62.90625 
Q 36.140625 65.921875 28.71875 65.921875 
Q 24.65625 65.921875 20.015625 65.03125 
Q 15.375 64.15625 9.8125 62.3125 
L 9.8125 71.09375 
Q 15.4375 72.65625 20.34375 73.4375 
Q 25.25 74.21875 29.59375 74.21875 
Q 40.828125 74.21875 47.359375 69.109375 
Q 53.90625 64.015625 53.90625 55.328125 
Q 53.90625 49.265625 50.4375 45.09375 
Q 46.96875 40.921875 40.578125 39.3125 
z
" id="DejaVuSans-51"/>
       </defs>
       <use xlink:href="#DejaVuSans-48"/>
       <use x="63.623047" xlink:href="#DejaVuSans-46"/>
       <use x="95.410156" xlink:href="#DejaVuSans-51"/>
      </g>
     </g>
    </g>
    <g id="ytick_3">
     <g id="line2d_6">
      <g>
       <use style="stroke:#000000;stroke-width:0.8;" x="54" xlink:href="#m9c5ebd8628" y="178.251381"/>
      </g>
     </g>
     <g id="text_7">
      <!-- 0.4 -->
      <g transform="translate(31.096875 182.050599)scale(0.1 -0.1)">
       <defs>
        <path d="M 37.796875 64.3125 
L 12.890625 25.390625 
L 37.796875 25.390625 
z
M 35.203125 72.90625 
L 47.609375 72.90625 
L 47.609375 25.390625 
L 58.015625 25.390625 
L 58.015625 17.1875 
L 47.609375 17.1875 
L 47.609375 0 
L 37.796875 0 
L 37.796875 17.1875 
L 4.890625 17.1875 
L 4.890625 26.703125 
z
" id="DejaVuSans-52"/>
       </defs>
       <use xlink:href="#DejaVuSans-48"/>
       <use x="63.623047" xlink:href="#DejaVuSans-46"/>
       <use x="95.410156" xlink:href="#DejaVuSans-52"/>
      </g>
     </g>
    </g>
    <g id="ytick_4">
     <g id="line2d_7">
      <g>
       <use style="stroke:#000000;stroke-width:0.8;" x="54" xlink:href="#m9c5ebd8628" y="152.741494"/>
      </g>
     </g>
     <g id="text_8">
      <!-- 0.5 -->
      <g transform="translate(31.096875 156.540713)scale(0.1 -0.1)">
       <defs>
        <path d="M 10.796875 72.90625 
L 49.515625 72.90625 
L 49.515625 64.59375 
L 19.828125 64.59375 
L 19.828125 46.734375 
Q 21.96875 47.46875 24.109375 47.828125 
Q 26.265625 48.1875 28.421875 48.1875 
Q 40.625 48.1875 47.75 41.5 
Q 54.890625 34.8125 54.890625 23.390625 
Q 54.890625 11.625 47.5625 5.09375 
Q 40.234375 -1.421875 26.90625 -1.421875 
Q 22.3125 -1.421875 17.546875 -0.640625 
Q 12.796875 0.140625 7.71875 1.703125 
L 7.71875 11.625 
Q 12.109375 9.234375 16.796875 8.0625 
Q 21.484375 6.890625 26.703125 6.890625 
Q 35.15625 6.890625 40.078125 11.328125 
Q 45.015625 15.765625 45.015625 23.390625 
Q 45.015625 31 40.078125 35.4375 
Q 35.15625 39.890625 26.703125 39.890625 
Q 22.75 39.890625 18.8125 39.015625 
Q 14.890625 38.140625 10.796875 36.28125 
z
" id="DejaVuSans-53"/>
       </defs>
       <use xlink:href="#DejaVuSans-48"/>
       <use x="63.623047" xlink:href="#DejaVuSans-46"/>
       <use x="95.410156" xlink:href="#DejaVuSans-53"/>
      </g>
     </g>
    </g>
    <g id="ytick_5">
     <g id="line2d_8">
      <g>
       <use style="stroke:#000000;stroke-width:0.8;" x="54" xlink:href="#m9c5ebd8628" y="127.231608"/>
      </g>
     </g>
     <g id="text_9">
      <!-- 0.6 -->
      <g transform="translate(31.096875 131.030827)scale(0.1 -0.1)">
       <defs>
        <path d="M 33.015625 40.375 
Q 26.375 40.375 22.484375 35.828125 
Q 18.609375 31.296875 18.609375 23.390625 
Q 18.609375 15.53125 22.484375 10.953125 
Q 26.375 6.390625 33.015625 6.390625 
Q 39.65625 6.390625 43.53125 10.953125 
Q 47.40625 15.53125 47.40625 23.390625 
Q 47.40625 31.296875 43.53125 35.828125 
Q 39.65625 40.375 33.015625 40.375 
z
M 52.59375 71.296875 
L 52.59375 62.3125 
Q 48.875 64.0625 45.09375 64.984375 
Q 41.3125 65.921875 37.59375 65.921875 
Q 27.828125 65.921875 22.671875 59.328125 
Q 17.53125 52.734375 16.796875 39.40625 
Q 19.671875 43.65625 24.015625 45.921875 
Q 28.375 48.1875 33.59375 48.1875 
Q 44.578125 48.1875 50.953125 41.515625 
Q 57.328125 34.859375 57.328125 23.390625 
Q 57.328125 12.15625 50.6875 5.359375 
Q 44.046875 -1.421875 33.015625 -1.421875 
Q 20.359375 -1.421875 13.671875 8.265625 
Q 6.984375 17.96875 6.984375 36.375 
Q 6.984375 53.65625 15.1875 63.9375 
Q 23.390625 74.21875 37.203125 74.21875 
Q 40.921875 74.21875 44.703125 73.484375 
Q 48.484375 72.75 52.59375 71.296875 
z
" id="DejaVuSans-54"/>
       </defs>
       <use xlink:href="#DejaVuSans-48"/>
       <use x="63.623047" xlink:href="#DejaVuSans-46"/>
       <use x="95.410156" xlink:href="#DejaVuSans-54"/>
      </g>
     </g>
    </g>
    <g id="ytick_6">
     <g id="line2d_9">
      <g>
       <use style="stroke:#000000;stroke-width:0.8;" x="54" xlink:href="#m9c5ebd8628" y="101.721721"/>
      </g>
     </g>
     <g id="text_10">
      <!-- 0.7 -->
      <g transform="translate(31.096875 105.52094)scale(0.1 -0.1)">
       <defs>
        <path d="M 8.203125 72.90625 
L 55.078125 72.90625 
L 55.078125 68.703125 
L 28.609375 0 
L 18.3125 0 
L 43.21875 64.59375 
L 8.203125 64.59375 
z
" id="DejaVuSans-55"/>
       </defs>
       <use xlink:href="#DejaVuSans-48"/>
       <use x="63.623047" xlink:href="#DejaVuSans-46"/>
       <use x="95.410156" xlink:href="#DejaVuSans-55"/>
      </g>
     </g>
    </g>
    <g id="ytick_7">
     <g id="line2d_10">
      <g>
       <use style="stroke:#000000;stroke-width:0.8;" x="54" xlink:href="#m9c5ebd8628" y="76.211835"/>
      </g>
     </g>
     <g id="text_11">
      <!-- 0.8 -->
      <g transform="translate(31.096875 80.011054)scale(0.1 -0.1)">
       <defs>
        <path d="M 31.78125 34.625 
Q 24.75 34.625 20.71875 30.859375 
Q 16.703125 27.09375 16.703125 20.515625 
Q 16.703125 13.921875 20.71875 10.15625 
Q 24.75 6.390625 31.78125 6.390625 
Q 38.8125 6.390625 42.859375 10.171875 
Q 46.921875 13.96875 46.921875 20.515625 
Q 46.921875 27.09375 42.890625 30.859375 
Q 38.875 34.625 31.78125 34.625 
z
M 21.921875 38.8125 
Q 15.578125 40.375 12.03125 44.71875 
Q 8.5 49.078125 8.5 55.328125 
Q 8.5 64.0625 14.71875 69.140625 
Q 20.953125 74.21875 31.78125 74.21875 
Q 42.671875 74.21875 48.875 69.140625 
Q 55.078125 64.0625 55.078125 55.328125 
Q 55.078125 49.078125 51.53125 44.71875 
Q 48 40.375 41.703125 38.8125 
Q 48.828125 37.15625 52.796875 32.3125 
Q 56.78125 27.484375 56.78125 20.515625 
Q 56.78125 9.90625 50.3125 4.234375 
Q 43.84375 -1.421875 31.78125 -1.421875 
Q 19.734375 -1.421875 13.25 4.234375 
Q 6.78125 9.90625 6.78125 20.515625 
Q 6.78125 27.484375 10.78125 32.3125 
Q 14.796875 37.15625 21.921875 38.8125 
z
M 18.3125 54.390625 
Q 18.3125 48.734375 21.84375 45.5625 
Q 25.390625 42.390625 31.78125 42.390625 
Q 38.140625 42.390625 41.71875 45.5625 
Q 45.3125 48.734375 45.3125 54.390625 
Q 45.3125 60.0625 41.71875 63.234375 
Q 38.140625 66.40625 31.78125 66.40625 
Q 25.390625 66.40625 21.84375 63.234375 
Q 18.3125 60.0625 18.3125 54.390625 
z
" id="DejaVuSans-56"/>
       </defs>
       <use xlink:href="#DejaVuSans-48"/>
       <use x="63.623047" xlink:href="#DejaVuSans-46"/>
       <use x="95.410156" xlink:href="#DejaVuSans-56"/>
      </g>
     </g>
    </g>
    <g id="ytick_8">
     <g id="line2d_11">
      <g>
       <use style="stroke:#000000;stroke-width:0.8;" x="54" xlink:href="#m9c5ebd8628" y="50.701949"/>
      </g>
     </g>
     <g id="text_12">
      <!-- 0.9 -->
      <g transform="translate(31.096875 54.501168)scale(0.1 -0.1)">
       <defs>
        <path d="M 10.984375 1.515625 
L 10.984375 10.5 
Q 14.703125 8.734375 18.5 7.8125 
Q 22.3125 6.890625 25.984375 6.890625 
Q 35.75 6.890625 40.890625 13.453125 
Q 46.046875 20.015625 46.78125 33.40625 
Q 43.953125 29.203125 39.59375 26.953125 
Q 35.25 24.703125 29.984375 24.703125 
Q 19.046875 24.703125 12.671875 31.3125 
Q 6.296875 37.9375 6.296875 49.421875 
Q 6.296875 60.640625 12.9375 67.421875 
Q 19.578125 74.21875 30.609375 74.21875 
Q 43.265625 74.21875 49.921875 64.515625 
Q 56.59375 54.828125 56.59375 36.375 
Q 56.59375 19.140625 48.40625 8.859375 
Q 40.234375 -1.421875 26.421875 -1.421875 
Q 22.703125 -1.421875 18.890625 -0.6875 
Q 15.09375 0.046875 10.984375 1.515625 
z
M 30.609375 32.421875 
Q 37.25 32.421875 41.125 36.953125 
Q 45.015625 41.5 45.015625 49.421875 
Q 45.015625 57.28125 41.125 61.84375 
Q 37.25 66.40625 30.609375 66.40625 
Q 23.96875 66.40625 20.09375 61.84375 
Q 16.21875 57.28125 16.21875 49.421875 
Q 16.21875 41.5 20.09375 36.953125 
Q 23.96875 32.421875 30.609375 32.421875 
z
" id="DejaVuSans-57"/>
       </defs>
       <use xlink:href="#DejaVuSans-48"/>
       <use x="63.623047" xlink:href="#DejaVuSans-46"/>
       <use x="95.410156" xlink:href="#DejaVuSans-57"/>
      </g>
     </g>
    </g>
    <g id="text_13">
     <!-- value -->
     <g transform="translate(25.017187 156.937813)rotate(-90)scale(0.1 -0.1)">
      <defs>
       <path d="M 8.5 21.578125 
L 8.5 54.6875 
L 17.484375 54.6875 
L 17.484375 21.921875 
Q 17.484375 14.15625 20.5 10.265625 
Q 23.53125 6.390625 29.59375 6.390625 
Q 36.859375 6.390625 41.078125 11.03125 
Q 45.3125 15.671875 45.3125 23.6875 
L 45.3125 54.6875 
L 54.296875 54.6875 
L 54.296875 0 
L 45.3125 0 
L 45.3125 8.40625 
Q 42.046875 3.421875 37.71875 1 
Q 33.40625 -1.421875 27.6875 -1.421875 
Q 18.265625 -1.421875 13.375 4.4375 
Q 8.5 10.296875 8.5 21.578125 
z
M 31.109375 56 
z
" id="DejaVuSans-117"/>
      </defs>
      <use xlink:href="#DejaVuSans-118"/>
      <use x="59.179688" xlink:href="#DejaVuSans-97"/>
      <use x="120.458984" xlink:href="#DejaVuSans-108"/>
      <use x="148.242188" xlink:href="#DejaVuSans-117"/>
      <use x="211.621094" xlink:href="#DejaVuSans-101"/>
     </g>
    </g>
   </g>
   <g id="line2d_12">
    <path clip-path="url(#p01499d1953)" d="M 80.04 231.118938 
L 80.04 49.767877 
" style="fill:none;stroke:#3d3d3d;stroke-linecap:square;stroke-width:1.5;"/>
   </g>
   <g id="line2d_13">
    <path clip-path="url(#p01499d1953)" d="M 80.04 152.340924 
L 80.04 96.697975 
" style="fill:none;stroke:#3d3d3d;stroke-linecap:square;stroke-width:4.5;"/>
   </g>
   <g id="line2d_14">
    <path clip-path="url(#p01499d1953)" d="M 221.4 234.29383 
L 221.4 44.443636 
" style="fill:none;stroke:#3d3d3d;stroke-linecap:square;stroke-width:1.5;"/>
   </g>
   <g id="line2d_15">
    <path clip-path="url(#p01499d1953)" d="M 221.4 153.119207 
L 221.4 97.637337 
" style="fill:none;stroke:#3d3d3d;stroke-linecap:square;stroke-width:4.5;"/>
   </g>
   <g id="line2d_16">
    <path clip-path="url(#p01499d1953)" d="M 362.76 223.620604 
L 362.76 49.991969 
" style="fill:none;stroke:#3d3d3d;stroke-linecap:square;stroke-width:1.5;"/>
   </g>
   <g id="line2d_17">
    <path clip-path="url(#p01499d1953)" d="M 362.76 156.279356 
L 362.76 99.150257 
" style="fill:none;stroke:#3d3d3d;stroke-linecap:square;stroke-width:4.5;"/>
   </g>
   <g id="patch_6">
    <path d="M 54 252 
L 54 34.56 
" style="fill:none;stroke:#000000;stroke-linecap:square;stroke-linejoin:miter;stroke-width:0.8;"/>
   </g>
   <g id="patch_7">
    <path d="M 388.8 252 
L 388.8 34.56 
" style="fill:none;stroke:#000000;stroke-linecap:square;stroke-linejoin:miter;stroke-width:0.8;"/>
   </g>
   <g id="patch_8">
    <path d="M 54 252 
L 388.8 252 
" style="fill:none;stroke:#000000;stroke-linecap:square;stroke-linejoin:miter;stroke-width:0.8;"/>
   </g>
   <g id="patch_9">
    <path d="M 54 34.56 
L 388.8 34.56 
" style="fill:none;stroke:#000000;stroke-linecap:square;stroke-linejoin:miter;stroke-width:0.8;"/>
   </g>
   <g id="PathCollection_1">
    <defs>
     <path d="M 0 1.5 
C 0.397805 1.5 0.77937 1.341951 1.06066 1.06066 
C 1.341951 0.77937 1.5 0.397805 1.5 0 
C 1.5 -0.397805 1.341951 -0.77937 1.06066 -1.06066 
C 0.77937 -1.341951 0.397805 -1.5 0 -1.5 
C -0.397805 -1.5 -0.77937 -1.341951 -1.06066 -1.06066 
C -1.341951 -0.77937 -1.5 -0.397805 -1.5 0 
C -1.5 0.397805 -1.341951 0.77937 -1.06066 1.06066 
C -0.77937 1.341951 -0.397805 1.5 0 1.5 
z
" id="m1b62fbaca5" style="stroke:#3d3d3d;"/>
    </defs>
    <g clip-path="url(#p01499d1953)">
     <use style="fill:#ffffff;stroke:#3d3d3d;" x="80.04" xlink:href="#m1b62fbaca5" y="122.837426"/>
    </g>
   </g>
   <g id="PathCollection_2">
    <g clip-path="url(#p01499d1953)">
     <use style="fill:#ffffff;stroke:#3d3d3d;" x="221.4" xlink:href="#m1b62fbaca5" y="122.936578"/>
    </g>
   </g>
   <g id="PathCollection_3">
    <g clip-path="url(#p01499d1953)">
     <use style="fill:#ffffff;stroke:#3d3d3d;" x="362.76" xlink:href="#m1b62fbaca5" y="126.993262"/>
    </g>
   </g>
   <g id="legend_1">
    <g id="patch_10">
     <path d="M 61 247 
L 116.275 247 
Q 118.275 247 118.275 245 
L 118.275 187.2875 
Q 118.275 185.2875 116.275 185.2875 
L 61 185.2875 
Q 59 185.2875 59 187.2875 
L 59 245 
Q 59 247 61 247 
z
" style="fill:#ffffff;opacity:0.8;stroke:#cccccc;stroke-linejoin:miter;"/>
    </g>
    <g id="text_14">
     <!-- set -->
     <g transform="translate(80.996094 196.885938)scale(0.1 -0.1)">
      <use xlink:href="#DejaVuSans-115"/>
      <use x="52.099609" xlink:href="#DejaVuSans-101"/>
      <use x="113.623047" xlink:href="#DejaVuSans-116"/>
     </g>
    </g>
    <g id="patch_11">
     <path d="M 63 211.564063 
L 83 211.564063 
L 83 204.564063 
L 63 204.564063 
z
" style="fill:#3274a1;stroke:#3d3d3d;stroke-linejoin:miter;stroke-width:0.75;"/>
    </g>
    <g id="text_15">
     <!-- train -->
     <g transform="translate(91 211.564063)scale(0.1 -0.1)">
      <use xlink:href="#DejaVuSans-116"/>
      <use x="39.208984" xlink:href="#DejaVuSans-114"/>
      <use x="80.322266" xlink:href="#DejaVuSans-97"/>
      <use x="141.601562" xlink:href="#DejaVuSans-105"/>
      <use x="169.384766" xlink:href="#DejaVuSans-110"/>
     </g>
    </g>
    <g id="patch_12">
     <path d="M 63 226.242188 
L 83 226.242188 
L 83 219.242188 
L 63 219.242188 
z
" style="fill:#e1812c;stroke:#3d3d3d;stroke-linejoin:miter;stroke-width:0.75;"/>
    </g>
    <g id="text_16">
     <!-- val -->
     <g transform="translate(91 226.242188)scale(0.1 -0.1)">
      <use xlink:href="#DejaVuSans-118"/>
      <use x="59.179688" xlink:href="#DejaVuSans-97"/>
      <use x="120.458984" xlink:href="#DejaVuSans-108"/>
     </g>
    </g>
    <g id="patch_13">
     <path d="M 63 240.920313 
L 83 240.920313 
L 83 233.920313 
L 63 233.920313 
z
" style="fill:#3a923a;stroke:#3d3d3d;stroke-linejoin:miter;stroke-width:0.75;"/>
    </g>
    <g id="text_17">
     <!-- test -->
     <g transform="translate(91 240.920313)scale(0.1 -0.1)">
      <use xlink:href="#DejaVuSans-116"/>
      <use x="39.208984" xlink:href="#DejaVuSans-101"/>
      <use x="100.732422" xlink:href="#DejaVuSans-115"/>
      <use x="152.832031" xlink:href="#DejaVuSans-116"/>
     </g>
    </g>
   </g>
  </g>
 </g>
 <defs>
  <clipPath id="p01499d1953">
   <rect height="217.44" width="334.8" x="54" y="34.56"/>
  </clipPath>
 </defs>
</svg>
