<?xml version="1.0" encoding="utf-8" standalone="no"?>
<!DOCTYPE svg PUBLIC "-//W3C//DTD SVG 1.1//EN"
  "http://www.w3.org/Graphics/SVG/1.1/DTD/svg11.dtd">
<!-- Created with matplotlib (https://matplotlib.org/) -->
<svg height="288pt" version="1.1" viewBox="0 0 432 288" width="432pt" xmlns="http://www.w3.org/2000/svg" xmlns:xlink="http://www.w3.org/1999/xlink">
 <metadata>
  <rdf:RDF xmlns:cc="http://creativecommons.org/ns#" xmlns:dc="http://purl.org/dc/elements/1.1/" xmlns:rdf="http://www.w3.org/1999/02/22-rdf-syntax-ns#">
   <cc:Work>
    <dc:type rdf:resource="http://purl.org/dc/dcmitype/StillImage"/>
    <dc:date>2022-04-14T11:31:16.878082</dc:date>
    <dc:format>image/svg+xml</dc:format>
    <dc:creator>
     <cc:Agent>
      <dc:title>Matplotlib v3.3.4, https://matplotlib.org/</dc:title>
     </cc:Agent>
    </dc:creator>
   </cc:Work>
  </rdf:RDF>
 </metadata>
 <defs>
  <style type="text/css">*{stroke-linecap:butt;stroke-linejoin:round;}</style>
 </defs>
 <g id="figure_1">
  <g id="patch_1">
   <path d="M 0 288 
L 432 288 
L 432 0 
L 0 0 
z
" style="fill:#ffffff;"/>
  </g>
  <g id="axes_1">
   <g id="patch_2">
    <path d="M 54 252 
L 388.8 252 
L 388.8 34.56 
L 54 34.56 
z
" style="fill:#ffffff;"/>
   </g>
   <g id="PolyCollection_1">
    <defs>
     <path d="M 90.284302 -45.883636 
L 69.795698 -45.883636 
L 65.16 -45.973395 
L 69.9564 -46.063153 
L 76.087388 -46.152911 
L 78.575853 -46.242669 
L 79.256359 -46.332428 
L 79.522586 -46.422186 
L 79.677204 -46.511944 
L 79.772048 -46.601703 
L 79.837811 -46.691461 
L 79.873734 -46.781219 
L 79.889672 -46.870977 
L 79.889524 -46.960736 
L 79.903603 -47.050494 
L 79.943435 -47.140252 
L 79.978616 -47.230011 
L 79.989628 -47.319769 
L 79.988682 -47.409527 
L 79.991329 -47.499285 
L 79.993616 -47.589044 
L 80.004241 -47.678802 
L 80.0132 -47.76856 
L 80.012081 -47.858318 
L 80.016961 -47.948077 
L 80.022336 -48.037835 
L 80.020128 -48.127593 
L 80.017823 -48.217352 
L 80.017298 -48.30711 
L 80.010477 -48.396868 
L 80.004909 -48.486626 
L 80.01442 -48.576385 
L 80.027512 -48.666143 
L 80.035533 -48.755901 
L 80.038188 -48.84566 
L 80.035348 -48.935418 
L 80.031336 -49.025176 
L 80.025055 -49.114934 
L 80.015958 -49.204693 
L 80.021647 -49.294451 
L 80.034472 -49.384209 
L 80.039022 -49.473968 
L 80.037141 -49.563726 
L 80.031411 -49.653484 
L 80.028836 -49.743242 
L 80.033511 -49.833001 
L 80.038439 -49.922759 
L 80.039859 -50.012517 
L 80.03999 -50.102275 
L 80.039841 -50.192034 
L 80.038389 -50.281792 
L 80.033825 -50.37155 
L 80.027555 -50.461309 
L 80.020566 -50.551067 
L 80.019634 -50.640825 
L 80.027286 -50.730583 
L 80.035686 -50.820342 
L 80.03936 -50.9101 
L 80.039964 -50.999858 
L 80.039999 -51.089617 
L 80.04 -51.179375 
L 80.04 -51.269133 
L 80.039995 -51.358891 
L 80.039851 -51.44865 
L 80.03849 -51.538408 
L 80.034823 -51.628166 
L 80.033975 -51.717924 
L 80.03762 -51.807683 
L 80.039681 -51.897441 
L 80.039985 -51.987199 
L 80.04 -52.076958 
L 80.04 -52.166716 
L 80.04 -52.256474 
L 80.04 -52.346232 
L 80.04 -52.435991 
L 80.04 -52.525749 
L 80.04 -52.615507 
L 80.04 -52.705266 
L 80.04 -52.795024 
L 80.04 -52.884782 
L 80.04 -52.97454 
L 80.04 -53.064299 
L 80.04 -53.154057 
L 80.04 -53.243815 
L 80.04 -53.333573 
L 80.04 -53.423332 
L 80.04 -53.51309 
L 80.04 -53.602848 
L 80.04 -53.692607 
L 80.04 -53.782365 
L 80.04 -53.872123 
L 80.04 -53.961881 
L 80.04 -54.05164 
L 80.04 -54.141398 
L 80.04 -54.231156 
L 80.04 -54.320915 
L 80.039991 -54.410673 
L 80.039742 -54.500431 
L 80.037409 -54.590189 
L 80.03066 -54.679948 
L 80.027827 -54.769706 
L 80.052173 -54.769706 
L 80.052173 -54.769706 
L 80.04934 -54.679948 
L 80.042591 -54.590189 
L 80.040258 -54.500431 
L 80.040009 -54.410673 
L 80.04 -54.320915 
L 80.04 -54.231156 
L 80.04 -54.141398 
L 80.04 -54.05164 
L 80.04 -53.961881 
L 80.04 -53.872123 
L 80.04 -53.782365 
L 80.04 -53.692607 
L 80.04 -53.602848 
L 80.04 -53.51309 
L 80.04 -53.423332 
L 80.04 -53.333573 
L 80.04 -53.243815 
L 80.04 -53.154057 
L 80.04 -53.064299 
L 80.04 -52.97454 
L 80.04 -52.884782 
L 80.04 -52.795024 
L 80.04 -52.705266 
L 80.04 -52.615507 
L 80.04 -52.525749 
L 80.04 -52.435991 
L 80.04 -52.346232 
L 80.04 -52.256474 
L 80.04 -52.166716 
L 80.04 -52.076958 
L 80.040015 -51.987199 
L 80.040319 -51.897441 
L 80.04238 -51.807683 
L 80.046025 -51.717924 
L 80.045177 -51.628166 
L 80.04151 -51.538408 
L 80.040149 -51.44865 
L 80.040005 -51.358891 
L 80.04 -51.269133 
L 80.04 -51.179375 
L 80.040001 -51.089617 
L 80.040036 -50.999858 
L 80.04064 -50.9101 
L 80.044314 -50.820342 
L 80.052714 -50.730583 
L 80.060366 -50.640825 
L 80.059434 -50.551067 
L 80.052445 -50.461309 
L 80.046175 -50.37155 
L 80.041611 -50.281792 
L 80.040159 -50.192034 
L 80.04001 -50.102275 
L 80.040141 -50.012517 
L 80.041561 -49.922759 
L 80.046489 -49.833001 
L 80.051164 -49.743242 
L 80.048589 -49.653484 
L 80.042859 -49.563726 
L 80.040978 -49.473968 
L 80.045528 -49.384209 
L 80.058353 -49.294451 
L 80.064042 -49.204693 
L 80.054945 -49.114934 
L 80.048664 -49.025176 
L 80.044652 -48.935418 
L 80.041812 -48.84566 
L 80.044467 -48.755901 
L 80.052488 -48.666143 
L 80.06558 -48.576385 
L 80.075091 -48.486626 
L 80.069523 -48.396868 
L 80.062702 -48.30711 
L 80.062177 -48.217352 
L 80.059872 -48.127593 
L 80.057664 -48.037835 
L 80.063039 -47.948077 
L 80.067919 -47.858318 
L 80.0668 -47.76856 
L 80.075759 -47.678802 
L 80.086384 -47.589044 
L 80.088671 -47.499285 
L 80.091318 -47.409527 
L 80.090372 -47.319769 
L 80.101384 -47.230011 
L 80.136565 -47.140252 
L 80.176397 -47.050494 
L 80.190476 -46.960736 
L 80.190328 -46.870977 
L 80.206266 -46.781219 
L 80.242189 -46.691461 
L 80.307952 -46.601703 
L 80.402796 -46.511944 
L 80.557414 -46.422186 
L 80.823641 -46.332428 
L 81.504147 -46.242669 
L 83.992612 -46.152911 
L 90.1236 -46.063153 
L 94.92 -45.973395 
L 90.284302 -45.883636 
z
" id="mc51a859d63" style="stroke:#3d3d3d;stroke-width:1.5;"/>
    </defs>
    <g clip-path="url(#p50ede6345f)">
     <use style="fill:#3274a1;stroke:#3d3d3d;stroke-width:1.5;" x="0" xlink:href="#mc51a859d63" y="288"/>
    </g>
   </g>
   <g id="PolyCollection_2">
    <defs>
     <path d="M 236.28 -45.886187 
L 206.52 -45.886187 
L 212.593408 -47.882856 
L 219.673242 -49.879524 
L 221.066468 -51.876193 
L 221.201592 -53.872861 
L 221.223348 -55.86953 
L 221.258931 -57.866198 
L 221.31607 -59.862866 
L 221.337157 -61.859535 
L 221.329626 -63.856203 
L 221.349164 -65.852872 
L 221.376938 -67.84954 
L 221.378304 -69.846209 
L 221.367022 -71.842877 
L 221.365926 -73.839546 
L 221.358732 -75.836214 
L 221.369528 -77.832882 
L 221.385375 -79.829551 
L 221.383985 -81.826219 
L 221.389246 -83.822888 
L 221.398011 -85.819556 
L 221.399904 -87.816225 
L 221.399999 -89.812893 
L 221.4 -91.809562 
L 221.4 -93.80623 
L 221.4 -95.802898 
L 221.4 -97.799567 
L 221.4 -99.796235 
L 221.4 -101.792904 
L 221.4 -103.789572 
L 221.4 -105.786241 
L 221.4 -107.782909 
L 221.4 -109.779578 
L 221.4 -111.776246 
L 221.4 -113.772915 
L 221.4 -115.769583 
L 221.4 -117.766251 
L 221.4 -119.76292 
L 221.4 -121.759588 
L 221.4 -123.756257 
L 221.4 -125.752925 
L 221.4 -127.749594 
L 221.4 -129.746262 
L 221.4 -131.742931 
L 221.4 -133.739599 
L 221.4 -135.736267 
L 221.4 -137.732936 
L 221.4 -139.729604 
L 221.4 -141.726273 
L 221.4 -143.722941 
L 221.4 -145.71961 
L 221.4 -147.716278 
L 221.4 -149.712947 
L 221.4 -151.709615 
L 221.4 -153.706283 
L 221.4 -155.702952 
L 221.4 -157.69962 
L 221.4 -159.696289 
L 221.4 -161.692957 
L 221.4 -163.689626 
L 221.4 -165.686294 
L 221.4 -167.682963 
L 221.4 -169.679631 
L 221.4 -171.6763 
L 221.4 -173.672968 
L 221.4 -175.669636 
L 221.4 -177.666305 
L 221.4 -179.662973 
L 221.4 -181.659642 
L 221.4 -183.65631 
L 221.4 -185.652979 
L 221.4 -187.649647 
L 221.4 -189.646316 
L 221.4 -191.642984 
L 221.4 -193.639652 
L 221.4 -195.636321 
L 221.4 -197.632989 
L 221.4 -199.629658 
L 221.4 -201.626326 
L 221.4 -203.622995 
L 221.4 -205.619663 
L 221.4 -207.616332 
L 221.4 -209.613 
L 221.4 -211.609668 
L 221.4 -213.606337 
L 221.4 -215.603005 
L 221.4 -217.599674 
L 221.4 -219.596342 
L 221.4 -221.593011 
L 221.4 -223.589679 
L 221.4 -225.586348 
L 221.4 -227.583016 
L 221.4 -229.579685 
L 221.4 -231.576353 
L 221.4 -233.573021 
L 221.4 -235.56969 
L 221.399963 -237.566358 
L 221.398933 -239.563027 
L 221.391982 -241.559695 
L 221.384295 -243.556364 
L 221.415705 -243.556364 
L 221.415705 -243.556364 
L 221.408018 -241.559695 
L 221.401067 -239.563027 
L 221.400037 -237.566358 
L 221.4 -235.56969 
L 221.4 -233.573021 
L 221.4 -231.576353 
L 221.4 -229.579685 
L 221.4 -227.583016 
L 221.4 -225.586348 
L 221.4 -223.589679 
L 221.4 -221.593011 
L 221.4 -219.596342 
L 221.4 -217.599674 
L 221.4 -215.603005 
L 221.4 -213.606337 
L 221.4 -211.609668 
L 221.4 -209.613 
L 221.4 -207.616332 
L 221.4 -205.619663 
L 221.4 -203.622995 
L 221.4 -201.626326 
L 221.4 -199.629658 
L 221.4 -197.632989 
L 221.4 -195.636321 
L 221.4 -193.639652 
L 221.4 -191.642984 
L 221.4 -189.646316 
L 221.4 -187.649647 
L 221.4 -185.652979 
L 221.4 -183.65631 
L 221.4 -181.659642 
L 221.4 -179.662973 
L 221.4 -177.666305 
L 221.4 -175.669636 
L 221.4 -173.672968 
L 221.4 -171.6763 
L 221.4 -169.679631 
L 221.4 -167.682963 
L 221.4 -165.686294 
L 221.4 -163.689626 
L 221.4 -161.692957 
L 221.4 -159.696289 
L 221.4 -157.69962 
L 221.4 -155.702952 
L 221.4 -153.706283 
L 221.4 -151.709615 
L 221.4 -149.712947 
L 221.4 -147.716278 
L 221.4 -145.71961 
L 221.4 -143.722941 
L 221.4 -141.726273 
L 221.4 -139.729604 
L 221.4 -137.732936 
L 221.4 -135.736267 
L 221.4 -133.739599 
L 221.4 -131.742931 
L 221.4 -129.746262 
L 221.4 -127.749594 
L 221.4 -125.752925 
L 221.4 -123.756257 
L 221.4 -121.759588 
L 221.4 -119.76292 
L 221.4 -117.766251 
L 221.4 -115.769583 
L 221.4 -113.772915 
L 221.4 -111.776246 
L 221.4 -109.779578 
L 221.4 -107.782909 
L 221.4 -105.786241 
L 221.4 -103.789572 
L 221.4 -101.792904 
L 221.4 -99.796235 
L 221.4 -97.799567 
L 221.4 -95.802898 
L 221.4 -93.80623 
L 221.4 -91.809562 
L 221.400001 -89.812893 
L 221.400096 -87.816225 
L 221.401989 -85.819556 
L 221.410754 -83.822888 
L 221.416015 -81.826219 
L 221.414625 -79.829551 
L 221.430472 -77.832882 
L 221.441268 -75.836214 
L 221.434074 -73.839546 
L 221.432978 -71.842877 
L 221.421696 -69.846209 
L 221.423062 -67.84954 
L 221.450836 -65.852872 
L 221.470374 -63.856203 
L 221.462843 -61.859535 
L 221.48393 -59.862866 
L 221.541069 -57.866198 
L 221.576652 -55.86953 
L 221.598408 -53.872861 
L 221.733532 -51.876193 
L 223.126758 -49.879524 
L 230.206592 -47.882856 
L 236.28 -45.886187 
z
" id="ma8870b02eb" style="stroke:#3d3d3d;stroke-width:1.5;"/>
    </defs>
    <g clip-path="url(#p50ede6345f)">
     <use style="fill:#e1812c;stroke:#3d3d3d;stroke-width:1.5;" x="0" xlink:href="#ma8870b02eb" y="288"/>
    </g>
   </g>
   <g id="PolyCollection_3">
    <defs>
     <path d="M 377.64 -45.885267 
L 347.88 -45.885267 
L 350.92925 -46.818253 
L 357.861226 -47.751239 
L 361.478815 -48.684225 
L 362.372352 -49.617211 
L 362.506977 -50.550197 
L 362.499398 -51.483183 
L 362.513238 -52.416169 
L 362.569015 -53.349154 
L 362.616584 -54.28214 
L 362.647114 -55.215126 
L 362.679532 -56.148112 
L 362.716065 -57.081098 
L 362.740282 -58.014084 
L 362.739176 -58.94707 
L 362.728323 -59.880056 
L 362.729048 -60.813042 
L 362.732583 -61.746028 
L 362.729138 -62.679014 
L 362.729567 -63.612 
L 362.728903 -64.544986 
L 362.713889 -65.477972 
L 362.702037 -66.410958 
L 362.71554 -67.343944 
L 362.735773 -68.27693 
L 362.73588 -69.209916 
L 362.727879 -70.142902 
L 362.73333 -71.075888 
L 362.741412 -72.008874 
L 362.742295 -72.94186 
L 362.745055 -73.874846 
L 362.74296 -74.807832 
L 362.725355 -75.740818 
L 362.713114 -76.673804 
L 362.727532 -77.60679 
L 362.748808 -78.539776 
L 362.758096 -79.472762 
L 362.759841 -80.405748 
L 362.759994 -81.338734 
L 362.76 -82.27172 
L 362.76 -83.204706 
L 362.76 -84.137692 
L 362.76 -85.070678 
L 362.76 -86.003664 
L 362.76 -86.93665 
L 362.76 -87.869636 
L 362.76 -88.802622 
L 362.76 -89.735608 
L 362.759999 -90.668594 
L 362.75996 -91.60158 
L 362.759463 -92.534565 
L 362.756538 -93.467551 
L 362.749266 -94.400537 
L 362.743981 -95.333523 
L 362.748494 -96.266509 
L 362.756022 -97.199495 
L 362.759338 -98.132481 
L 362.759947 -99.065467 
L 362.759998 -99.998453 
L 362.76 -100.931439 
L 362.76 -101.864425 
L 362.76 -102.797411 
L 362.76 -103.730397 
L 362.76 -104.663383 
L 362.76 -105.596369 
L 362.76 -106.529355 
L 362.76 -107.462341 
L 362.76 -108.395327 
L 362.76 -109.328313 
L 362.76 -110.261299 
L 362.76 -111.194285 
L 362.76 -112.127271 
L 362.76 -113.060257 
L 362.76 -113.993243 
L 362.76 -114.926229 
L 362.76 -115.859215 
L 362.76 -116.792201 
L 362.76 -117.725187 
L 362.76 -118.658173 
L 362.76 -119.591159 
L 362.76 -120.524145 
L 362.76 -121.457131 
L 362.76 -122.390117 
L 362.76 -123.323103 
L 362.76 -124.256089 
L 362.76 -125.189075 
L 362.76 -126.122061 
L 362.76 -127.055047 
L 362.76 -127.988033 
L 362.76 -128.921019 
L 362.76 -129.854005 
L 362.76 -130.78699 
L 362.76 -131.719976 
L 362.76 -132.652962 
L 362.759998 -133.585948 
L 362.759954 -134.518934 
L 362.759403 -135.45192 
L 362.756286 -136.384906 
L 362.748878 -137.317892 
L 362.743968 -138.250878 
L 362.776032 -138.250878 
L 362.776032 -138.250878 
L 362.771122 -137.317892 
L 362.763714 -136.384906 
L 362.760597 -135.45192 
L 362.760046 -134.518934 
L 362.760002 -133.585948 
L 362.76 -132.652962 
L 362.76 -131.719976 
L 362.76 -130.78699 
L 362.76 -129.854005 
L 362.76 -128.921019 
L 362.76 -127.988033 
L 362.76 -127.055047 
L 362.76 -126.122061 
L 362.76 -125.189075 
L 362.76 -124.256089 
L 362.76 -123.323103 
L 362.76 -122.390117 
L 362.76 -121.457131 
L 362.76 -120.524145 
L 362.76 -119.591159 
L 362.76 -118.658173 
L 362.76 -117.725187 
L 362.76 -116.792201 
L 362.76 -115.859215 
L 362.76 -114.926229 
L 362.76 -113.993243 
L 362.76 -113.060257 
L 362.76 -112.127271 
L 362.76 -111.194285 
L 362.76 -110.261299 
L 362.76 -109.328313 
L 362.76 -108.395327 
L 362.76 -107.462341 
L 362.76 -106.529355 
L 362.76 -105.596369 
L 362.76 -104.663383 
L 362.76 -103.730397 
L 362.76 -102.797411 
L 362.76 -101.864425 
L 362.76 -100.931439 
L 362.760002 -99.998453 
L 362.760053 -99.065467 
L 362.760662 -98.132481 
L 362.763978 -97.199495 
L 362.771506 -96.266509 
L 362.776019 -95.333523 
L 362.770734 -94.400537 
L 362.763462 -93.467551 
L 362.760537 -92.534565 
L 362.76004 -91.60158 
L 362.760001 -90.668594 
L 362.76 -89.735608 
L 362.76 -88.802622 
L 362.76 -87.869636 
L 362.76 -86.93665 
L 362.76 -86.003664 
L 362.76 -85.070678 
L 362.76 -84.137692 
L 362.76 -83.204706 
L 362.76 -82.27172 
L 362.760006 -81.338734 
L 362.760159 -80.405748 
L 362.761904 -79.472762 
L 362.771192 -78.539776 
L 362.792468 -77.60679 
L 362.806886 -76.673804 
L 362.794645 -75.740818 
L 362.77704 -74.807832 
L 362.774945 -73.874846 
L 362.777705 -72.94186 
L 362.778588 -72.008874 
L 362.78667 -71.075888 
L 362.792121 -70.142902 
L 362.78412 -69.209916 
L 362.784227 -68.27693 
L 362.80446 -67.343944 
L 362.817963 -66.410958 
L 362.806111 -65.477972 
L 362.791097 -64.544986 
L 362.790433 -63.612 
L 362.790862 -62.679014 
L 362.787417 -61.746028 
L 362.790952 -60.813042 
L 362.791677 -59.880056 
L 362.780824 -58.94707 
L 362.779718 -58.014084 
L 362.803935 -57.081098 
L 362.840468 -56.148112 
L 362.872886 -55.215126 
L 362.903416 -54.28214 
L 362.950985 -53.349154 
L 363.006762 -52.416169 
L 363.020602 -51.483183 
L 363.013023 -50.550197 
L 363.147648 -49.617211 
L 364.041185 -48.684225 
L 367.658774 -47.751239 
L 374.59075 -46.818253 
L 377.64 -45.885267 
z
" id="m8617028b78" style="stroke:#3d3d3d;stroke-width:1.5;"/>
    </defs>
    <g clip-path="url(#p50ede6345f)">
     <use style="fill:#3a923a;stroke:#3d3d3d;stroke-width:1.5;" x="0" xlink:href="#m8617028b78" y="288"/>
    </g>
   </g>
   <g id="patch_3">
    <path clip-path="url(#p50ede6345f)" d="M 109.8 242.153997 
L 109.8 242.153997 
L 109.8 242.153997 
L 109.8 242.153997 
z
" style="fill:#3274a1;stroke:#3d3d3d;stroke-linejoin:miter;stroke-width:0.75;"/>
   </g>
   <g id="patch_4">
    <path clip-path="url(#p50ede6345f)" d="M 109.8 242.153997 
L 109.8 242.153997 
L 109.8 242.153997 
L 109.8 242.153997 
z
" style="fill:#e1812c;stroke:#3d3d3d;stroke-linejoin:miter;stroke-width:0.75;"/>
   </g>
   <g id="patch_5">
    <path clip-path="url(#p50ede6345f)" d="M 109.8 242.153997 
L 109.8 242.153997 
L 109.8 242.153997 
L 109.8 242.153997 
z
" style="fill:#3a923a;stroke:#3d3d3d;stroke-linejoin:miter;stroke-width:0.75;"/>
   </g>
   <g id="matplotlib.axis_1">
    <g id="xtick_1">
     <g id="line2d_1">
      <defs>
       <path d="M 0 0 
L 0 3.5 
" id="mee5390f765" style="stroke:#000000;stroke-width:0.8;"/>
      </defs>
      <g>
       <use style="stroke:#000000;stroke-width:0.8;" x="109.8" xlink:href="#mee5390f765" y="252"/>
      </g>
     </g>
     <g id="text_1">
      <!-- train -->
      <g transform="translate(98.1625 266.598437)scale(0.1 -0.1)">
       <defs>
        <path d="M 18.3125 70.21875 
L 18.3125 54.6875 
L 36.8125 54.6875 
L 36.8125 47.703125 
L 18.3125 47.703125 
L 18.3125 18.015625 
Q 18.3125 11.328125 20.140625 9.421875 
Q 21.96875 7.515625 27.59375 7.515625 
L 36.8125 7.515625 
L 36.8125 0 
L 27.59375 0 
Q 17.1875 0 13.234375 3.875 
Q 9.28125 7.765625 9.28125 18.015625 
L 9.28125 47.703125 
L 2.6875 47.703125 
L 2.6875 54.6875 
L 9.28125 54.6875 
L 9.28125 70.21875 
z
" id="DejaVuSans-116"/>
        <path d="M 41.109375 46.296875 
Q 39.59375 47.171875 37.8125 47.578125 
Q 36.03125 48 33.890625 48 
Q 26.265625 48 22.1875 43.046875 
Q 18.109375 38.09375 18.109375 28.8125 
L 18.109375 0 
L 9.078125 0 
L 9.078125 54.6875 
L 18.109375 54.6875 
L 18.109375 46.1875 
Q 20.953125 51.171875 25.484375 53.578125 
Q 30.03125 56 36.53125 56 
Q 37.453125 56 38.578125 55.875 
Q 39.703125 55.765625 41.0625 55.515625 
z
" id="DejaVuSans-114"/>
        <path d="M 34.28125 27.484375 
Q 23.390625 27.484375 19.1875 25 
Q 14.984375 22.515625 14.984375 16.5 
Q 14.984375 11.71875 18.140625 8.90625 
Q 21.296875 6.109375 26.703125 6.109375 
Q 34.1875 6.109375 38.703125 11.40625 
Q 43.21875 16.703125 43.21875 25.484375 
L 43.21875 27.484375 
z
M 52.203125 31.203125 
L 52.203125 0 
L 43.21875 0 
L 43.21875 8.296875 
Q 40.140625 3.328125 35.546875 0.953125 
Q 30.953125 -1.421875 24.3125 -1.421875 
Q 15.921875 -1.421875 10.953125 3.296875 
Q 6 8.015625 6 15.921875 
Q 6 25.140625 12.171875 29.828125 
Q 18.359375 34.515625 30.609375 34.515625 
L 43.21875 34.515625 
L 43.21875 35.40625 
Q 43.21875 41.609375 39.140625 45 
Q 35.0625 48.390625 27.6875 48.390625 
Q 23 48.390625 18.546875 47.265625 
Q 14.109375 46.140625 10.015625 43.890625 
L 10.015625 52.203125 
Q 14.9375 54.109375 19.578125 55.046875 
Q 24.21875 56 28.609375 56 
Q 40.484375 56 46.34375 49.84375 
Q 52.203125 43.703125 52.203125 31.203125 
z
" id="DejaVuSans-97"/>
        <path d="M 9.421875 54.6875 
L 18.40625 54.6875 
L 18.40625 0 
L 9.421875 0 
z
M 9.421875 75.984375 
L 18.40625 75.984375 
L 18.40625 64.59375 
L 9.421875 64.59375 
z
" id="DejaVuSans-105"/>
        <path d="M 54.890625 33.015625 
L 54.890625 0 
L 45.90625 0 
L 45.90625 32.71875 
Q 45.90625 40.484375 42.875 44.328125 
Q 39.84375 48.1875 33.796875 48.1875 
Q 26.515625 48.1875 22.3125 43.546875 
Q 18.109375 38.921875 18.109375 30.90625 
L 18.109375 0 
L 9.078125 0 
L 9.078125 54.6875 
L 18.109375 54.6875 
L 18.109375 46.1875 
Q 21.34375 51.125 25.703125 53.5625 
Q 30.078125 56 35.796875 56 
Q 45.21875 56 50.046875 50.171875 
Q 54.890625 44.34375 54.890625 33.015625 
z
" id="DejaVuSans-110"/>
       </defs>
       <use xlink:href="#DejaVuSans-116"/>
       <use x="39.208984" xlink:href="#DejaVuSans-114"/>
       <use x="80.322266" xlink:href="#DejaVuSans-97"/>
       <use x="141.601562" xlink:href="#DejaVuSans-105"/>
       <use x="169.384766" xlink:href="#DejaVuSans-110"/>
      </g>
     </g>
    </g>
    <g id="xtick_2">
     <g id="line2d_2">
      <g>
       <use style="stroke:#000000;stroke-width:0.8;" x="221.4" xlink:href="#mee5390f765" y="252"/>
      </g>
     </g>
     <g id="text_2">
      <!-- val -->
      <g transform="translate(213.9875 266.598437)scale(0.1 -0.1)">
       <defs>
        <path d="M 2.984375 54.6875 
L 12.5 54.6875 
L 29.59375 8.796875 
L 46.6875 54.6875 
L 56.203125 54.6875 
L 35.6875 0 
L 23.484375 0 
z
" id="DejaVuSans-118"/>
        <path d="M 9.421875 75.984375 
L 18.40625 75.984375 
L 18.40625 0 
L 9.421875 0 
z
" id="DejaVuSans-108"/>
       </defs>
       <use xlink:href="#DejaVuSans-118"/>
       <use x="59.179688" xlink:href="#DejaVuSans-97"/>
       <use x="120.458984" xlink:href="#DejaVuSans-108"/>
      </g>
     </g>
    </g>
    <g id="xtick_3">
     <g id="line2d_3">
      <g>
       <use style="stroke:#000000;stroke-width:0.8;" x="333" xlink:href="#mee5390f765" y="252"/>
      </g>
     </g>
     <g id="text_3">
      <!-- test -->
      <g transform="translate(323.398438 266.598437)scale(0.1 -0.1)">
       <defs>
        <path d="M 56.203125 29.59375 
L 56.203125 25.203125 
L 14.890625 25.203125 
Q 15.484375 15.921875 20.484375 11.0625 
Q 25.484375 6.203125 34.421875 6.203125 
Q 39.59375 6.203125 44.453125 7.46875 
Q 49.3125 8.734375 54.109375 11.28125 
L 54.109375 2.78125 
Q 49.265625 0.734375 44.1875 -0.34375 
Q 39.109375 -1.421875 33.890625 -1.421875 
Q 20.796875 -1.421875 13.15625 6.1875 
Q 5.515625 13.8125 5.515625 26.8125 
Q 5.515625 40.234375 12.765625 48.109375 
Q 20.015625 56 32.328125 56 
Q 43.359375 56 49.78125 48.890625 
Q 56.203125 41.796875 56.203125 29.59375 
z
M 47.21875 32.234375 
Q 47.125 39.59375 43.09375 43.984375 
Q 39.0625 48.390625 32.421875 48.390625 
Q 24.90625 48.390625 20.390625 44.140625 
Q 15.875 39.890625 15.1875 32.171875 
z
" id="DejaVuSans-101"/>
        <path d="M 44.28125 53.078125 
L 44.28125 44.578125 
Q 40.484375 46.53125 36.375 47.5 
Q 32.28125 48.484375 27.875 48.484375 
Q 21.1875 48.484375 17.84375 46.4375 
Q 14.5 44.390625 14.5 40.28125 
Q 14.5 37.15625 16.890625 35.375 
Q 19.28125 33.59375 26.515625 31.984375 
L 29.59375 31.296875 
Q 39.15625 29.25 43.1875 25.515625 
Q 47.21875 21.78125 47.21875 15.09375 
Q 47.21875 7.46875 41.1875 3.015625 
Q 35.15625 -1.421875 24.609375 -1.421875 
Q 20.21875 -1.421875 15.453125 -0.5625 
Q 10.6875 0.296875 5.421875 2 
L 5.421875 11.28125 
Q 10.40625 8.6875 15.234375 7.390625 
Q 20.0625 6.109375 24.8125 6.109375 
Q 31.15625 6.109375 34.5625 8.28125 
Q 37.984375 10.453125 37.984375 14.40625 
Q 37.984375 18.0625 35.515625 20.015625 
Q 33.0625 21.96875 24.703125 23.78125 
L 21.578125 24.515625 
Q 13.234375 26.265625 9.515625 29.90625 
Q 5.8125 33.546875 5.8125 39.890625 
Q 5.8125 47.609375 11.28125 51.796875 
Q 16.75 56 26.8125 56 
Q 31.78125 56 36.171875 55.265625 
Q 40.578125 54.546875 44.28125 53.078125 
z
" id="DejaVuSans-115"/>
       </defs>
       <use xlink:href="#DejaVuSans-116"/>
       <use x="39.208984" xlink:href="#DejaVuSans-101"/>
       <use x="100.732422" xlink:href="#DejaVuSans-115"/>
       <use x="152.832031" xlink:href="#DejaVuSans-116"/>
      </g>
     </g>
    </g>
    <g id="text_4">
     <!-- set -->
     <g transform="translate(213.758594 280.276563)scale(0.1 -0.1)">
      <use xlink:href="#DejaVuSans-115"/>
      <use x="52.099609" xlink:href="#DejaVuSans-101"/>
      <use x="113.623047" xlink:href="#DejaVuSans-116"/>
     </g>
    </g>
   </g>
   <g id="matplotlib.axis_2">
    <g id="ytick_1">
     <g id="line2d_4">
      <defs>
       <path d="M 0 0 
L -3.5 0 
" id="m4a0b6916d6" style="stroke:#000000;stroke-width:0.8;"/>
      </defs>
      <g>
       <use style="stroke:#000000;stroke-width:0.8;" x="54" xlink:href="#m4a0b6916d6" y="242.153997"/>
      </g>
     </g>
     <g id="text_5">
      <!-- 0.0000 -->
      <g transform="translate(12.009375 245.953216)scale(0.1 -0.1)">
       <defs>
        <path d="M 31.78125 66.40625 
Q 24.171875 66.40625 20.328125 58.90625 
Q 16.5 51.421875 16.5 36.375 
Q 16.5 21.390625 20.328125 13.890625 
Q 24.171875 6.390625 31.78125 6.390625 
Q 39.453125 6.390625 43.28125 13.890625 
Q 47.125 21.390625 47.125 36.375 
Q 47.125 51.421875 43.28125 58.90625 
Q 39.453125 66.40625 31.78125 66.40625 
z
M 31.78125 74.21875 
Q 44.046875 74.21875 50.515625 64.515625 
Q 56.984375 54.828125 56.984375 36.375 
Q 56.984375 17.96875 50.515625 8.265625 
Q 44.046875 -1.421875 31.78125 -1.421875 
Q 19.53125 -1.421875 13.0625 8.265625 
Q 6.59375 17.96875 6.59375 36.375 
Q 6.59375 54.828125 13.0625 64.515625 
Q 19.53125 74.21875 31.78125 74.21875 
z
" id="DejaVuSans-48"/>
        <path d="M 10.6875 12.40625 
L 21 12.40625 
L 21 0 
L 10.6875 0 
z
" id="DejaVuSans-46"/>
       </defs>
       <use xlink:href="#DejaVuSans-48"/>
       <use x="63.623047" xlink:href="#DejaVuSans-46"/>
       <use x="95.410156" xlink:href="#DejaVuSans-48"/>
       <use x="159.033203" xlink:href="#DejaVuSans-48"/>
       <use x="222.65625" xlink:href="#DejaVuSans-48"/>
       <use x="286.279297" xlink:href="#DejaVuSans-48"/>
      </g>
     </g>
    </g>
    <g id="ytick_2">
     <g id="line2d_5">
      <g>
       <use style="stroke:#000000;stroke-width:0.8;" x="54" xlink:href="#m4a0b6916d6" y="213.250829"/>
      </g>
     </g>
     <g id="text_6">
      <!-- 0.0025 -->
      <g transform="translate(12.009375 217.050048)scale(0.1 -0.1)">
       <defs>
        <path d="M 19.1875 8.296875 
L 53.609375 8.296875 
L 53.609375 0 
L 7.328125 0 
L 7.328125 8.296875 
Q 12.9375 14.109375 22.625 23.890625 
Q 32.328125 33.6875 34.8125 36.53125 
Q 39.546875 41.84375 41.421875 45.53125 
Q 43.3125 49.21875 43.3125 52.78125 
Q 43.3125 58.59375 39.234375 62.25 
Q 35.15625 65.921875 28.609375 65.921875 
Q 23.96875 65.921875 18.8125 64.3125 
Q 13.671875 62.703125 7.8125 59.421875 
L 7.8125 69.390625 
Q 13.765625 71.78125 18.9375 73 
Q 24.125 74.21875 28.421875 74.21875 
Q 39.75 74.21875 46.484375 68.546875 
Q 53.21875 62.890625 53.21875 53.421875 
Q 53.21875 48.921875 51.53125 44.890625 
Q 49.859375 40.875 45.40625 35.40625 
Q 44.1875 33.984375 37.640625 27.21875 
Q 31.109375 20.453125 19.1875 8.296875 
z
" id="DejaVuSans-50"/>
        <path d="M 10.796875 72.90625 
L 49.515625 72.90625 
L 49.515625 64.59375 
L 19.828125 64.59375 
L 19.828125 46.734375 
Q 21.96875 47.46875 24.109375 47.828125 
Q 26.265625 48.1875 28.421875 48.1875 
Q 40.625 48.1875 47.75 41.5 
Q 54.890625 34.8125 54.890625 23.390625 
Q 54.890625 11.625 47.5625 5.09375 
Q 40.234375 -1.421875 26.90625 -1.421875 
Q 22.3125 -1.421875 17.546875 -0.640625 
Q 12.796875 0.140625 7.71875 1.703125 
L 7.71875 11.625 
Q 12.109375 9.234375 16.796875 8.0625 
Q 21.484375 6.890625 26.703125 6.890625 
Q 35.15625 6.890625 40.078125 11.328125 
Q 45.015625 15.765625 45.015625 23.390625 
Q 45.015625 31 40.078125 35.4375 
Q 35.15625 39.890625 26.703125 39.890625 
Q 22.75 39.890625 18.8125 39.015625 
Q 14.890625 38.140625 10.796875 36.28125 
z
" id="DejaVuSans-53"/>
       </defs>
       <use xlink:href="#DejaVuSans-48"/>
       <use x="63.623047" xlink:href="#DejaVuSans-46"/>
       <use x="95.410156" xlink:href="#DejaVuSans-48"/>
       <use x="159.033203" xlink:href="#DejaVuSans-48"/>
       <use x="222.65625" xlink:href="#DejaVuSans-50"/>
       <use x="286.279297" xlink:href="#DejaVuSans-53"/>
      </g>
     </g>
    </g>
    <g id="ytick_3">
     <g id="line2d_6">
      <g>
       <use style="stroke:#000000;stroke-width:0.8;" x="54" xlink:href="#m4a0b6916d6" y="184.347662"/>
      </g>
     </g>
     <g id="text_7">
      <!-- 0.0050 -->
      <g transform="translate(12.009375 188.14688)scale(0.1 -0.1)">
       <use xlink:href="#DejaVuSans-48"/>
       <use x="63.623047" xlink:href="#DejaVuSans-46"/>
       <use x="95.410156" xlink:href="#DejaVuSans-48"/>
       <use x="159.033203" xlink:href="#DejaVuSans-48"/>
       <use x="222.65625" xlink:href="#DejaVuSans-53"/>
       <use x="286.279297" xlink:href="#DejaVuSans-48"/>
      </g>
     </g>
    </g>
    <g id="ytick_4">
     <g id="line2d_7">
      <g>
       <use style="stroke:#000000;stroke-width:0.8;" x="54" xlink:href="#m4a0b6916d6" y="155.444494"/>
      </g>
     </g>
     <g id="text_8">
      <!-- 0.0075 -->
      <g transform="translate(12.009375 159.243712)scale(0.1 -0.1)">
       <defs>
        <path d="M 8.203125 72.90625 
L 55.078125 72.90625 
L 55.078125 68.703125 
L 28.609375 0 
L 18.3125 0 
L 43.21875 64.59375 
L 8.203125 64.59375 
z
" id="DejaVuSans-55"/>
       </defs>
       <use xlink:href="#DejaVuSans-48"/>
       <use x="63.623047" xlink:href="#DejaVuSans-46"/>
       <use x="95.410156" xlink:href="#DejaVuSans-48"/>
       <use x="159.033203" xlink:href="#DejaVuSans-48"/>
       <use x="222.65625" xlink:href="#DejaVuSans-55"/>
       <use x="286.279297" xlink:href="#DejaVuSans-53"/>
      </g>
     </g>
    </g>
    <g id="ytick_5">
     <g id="line2d_8">
      <g>
       <use style="stroke:#000000;stroke-width:0.8;" x="54" xlink:href="#m4a0b6916d6" y="126.541326"/>
      </g>
     </g>
     <g id="text_9">
      <!-- 0.0100 -->
      <g transform="translate(12.009375 130.340545)scale(0.1 -0.1)">
       <defs>
        <path d="M 12.40625 8.296875 
L 28.515625 8.296875 
L 28.515625 63.921875 
L 10.984375 60.40625 
L 10.984375 69.390625 
L 28.421875 72.90625 
L 38.28125 72.90625 
L 38.28125 8.296875 
L 54.390625 8.296875 
L 54.390625 0 
L 12.40625 0 
z
" id="DejaVuSans-49"/>
       </defs>
       <use xlink:href="#DejaVuSans-48"/>
       <use x="63.623047" xlink:href="#DejaVuSans-46"/>
       <use x="95.410156" xlink:href="#DejaVuSans-48"/>
       <use x="159.033203" xlink:href="#DejaVuSans-49"/>
       <use x="222.65625" xlink:href="#DejaVuSans-48"/>
       <use x="286.279297" xlink:href="#DejaVuSans-48"/>
      </g>
     </g>
    </g>
    <g id="ytick_6">
     <g id="line2d_9">
      <g>
       <use style="stroke:#000000;stroke-width:0.8;" x="54" xlink:href="#m4a0b6916d6" y="97.638158"/>
      </g>
     </g>
     <g id="text_10">
      <!-- 0.0125 -->
      <g transform="translate(12.009375 101.437377)scale(0.1 -0.1)">
       <use xlink:href="#DejaVuSans-48"/>
       <use x="63.623047" xlink:href="#DejaVuSans-46"/>
       <use x="95.410156" xlink:href="#DejaVuSans-48"/>
       <use x="159.033203" xlink:href="#DejaVuSans-49"/>
       <use x="222.65625" xlink:href="#DejaVuSans-50"/>
       <use x="286.279297" xlink:href="#DejaVuSans-53"/>
      </g>
     </g>
    </g>
    <g id="ytick_7">
     <g id="line2d_10">
      <g>
       <use style="stroke:#000000;stroke-width:0.8;" x="54" xlink:href="#m4a0b6916d6" y="68.73499"/>
      </g>
     </g>
     <g id="text_11">
      <!-- 0.0150 -->
      <g transform="translate(12.009375 72.534209)scale(0.1 -0.1)">
       <use xlink:href="#DejaVuSans-48"/>
       <use x="63.623047" xlink:href="#DejaVuSans-46"/>
       <use x="95.410156" xlink:href="#DejaVuSans-48"/>
       <use x="159.033203" xlink:href="#DejaVuSans-49"/>
       <use x="222.65625" xlink:href="#DejaVuSans-53"/>
       <use x="286.279297" xlink:href="#DejaVuSans-48"/>
      </g>
     </g>
    </g>
    <g id="ytick_8">
     <g id="line2d_11">
      <g>
       <use style="stroke:#000000;stroke-width:0.8;" x="54" xlink:href="#m4a0b6916d6" y="39.831822"/>
      </g>
     </g>
     <g id="text_12">
      <!-- 0.0175 -->
      <g transform="translate(12.009375 43.631041)scale(0.1 -0.1)">
       <use xlink:href="#DejaVuSans-48"/>
       <use x="63.623047" xlink:href="#DejaVuSans-46"/>
       <use x="95.410156" xlink:href="#DejaVuSans-48"/>
       <use x="159.033203" xlink:href="#DejaVuSans-49"/>
       <use x="222.65625" xlink:href="#DejaVuSans-55"/>
       <use x="286.279297" xlink:href="#DejaVuSans-53"/>
      </g>
     </g>
    </g>
    <g id="text_13">
     <!-- value -->
     <g transform="translate(5.929687 156.937813)rotate(-90)scale(0.1 -0.1)">
      <defs>
       <path d="M 8.5 21.578125 
L 8.5 54.6875 
L 17.484375 54.6875 
L 17.484375 21.921875 
Q 17.484375 14.15625 20.5 10.265625 
Q 23.53125 6.390625 29.59375 6.390625 
Q 36.859375 6.390625 41.078125 11.03125 
Q 45.3125 15.671875 45.3125 23.6875 
L 45.3125 54.6875 
L 54.296875 54.6875 
L 54.296875 0 
L 45.3125 0 
L 45.3125 8.40625 
Q 42.046875 3.421875 37.71875 1 
Q 33.40625 -1.421875 27.6875 -1.421875 
Q 18.265625 -1.421875 13.375 4.4375 
Q 8.5 10.296875 8.5 21.578125 
z
M 31.109375 56 
z
" id="DejaVuSans-117"/>
      </defs>
      <use xlink:href="#DejaVuSans-118"/>
      <use x="59.179688" xlink:href="#DejaVuSans-97"/>
      <use x="120.458984" xlink:href="#DejaVuSans-108"/>
      <use x="148.242188" xlink:href="#DejaVuSans-117"/>
      <use x="211.621094" xlink:href="#DejaVuSans-101"/>
     </g>
    </g>
   </g>
   <g id="line2d_12">
    <path clip-path="url(#p50ede6345f)" d="M 80.04 242.116364 
L 80.04 241.83251 
" style="fill:none;stroke:#3d3d3d;stroke-linecap:square;stroke-width:1.5;"/>
   </g>
   <g id="line2d_13">
    <path clip-path="url(#p50ede6345f)" d="M 80.04 242.060071 
L 80.04 241.969039 
" style="fill:none;stroke:#3d3d3d;stroke-linecap:square;stroke-width:4.5;"/>
   </g>
   <g id="line2d_14">
    <path clip-path="url(#p50ede6345f)" d="M 221.4 242.113813 
L 221.4 241.785287 
" style="fill:none;stroke:#3d3d3d;stroke-linecap:square;stroke-width:1.5;"/>
   </g>
   <g id="line2d_15">
    <path clip-path="url(#p50ede6345f)" d="M 221.4 242.060032 
L 221.4 241.94786 
" style="fill:none;stroke:#3d3d3d;stroke-linecap:square;stroke-width:4.5;"/>
   </g>
   <g id="line2d_16">
    <path clip-path="url(#p50ede6345f)" d="M 362.76 242.114733 
L 362.76 241.746302 
" style="fill:none;stroke:#3d3d3d;stroke-linecap:square;stroke-width:1.5;"/>
   </g>
   <g id="line2d_17">
    <path clip-path="url(#p50ede6345f)" d="M 362.76 242.054067 
L 362.76 241.930615 
" style="fill:none;stroke:#3d3d3d;stroke-linecap:square;stroke-width:4.5;"/>
   </g>
   <g id="patch_6">
    <path d="M 54 252 
L 54 34.56 
" style="fill:none;stroke:#000000;stroke-linecap:square;stroke-linejoin:miter;stroke-width:0.8;"/>
   </g>
   <g id="patch_7">
    <path d="M 388.8 252 
L 388.8 34.56 
" style="fill:none;stroke:#000000;stroke-linecap:square;stroke-linejoin:miter;stroke-width:0.8;"/>
   </g>
   <g id="patch_8">
    <path d="M 54 252 
L 388.8 252 
" style="fill:none;stroke:#000000;stroke-linecap:square;stroke-linejoin:miter;stroke-width:0.8;"/>
   </g>
   <g id="patch_9">
    <path d="M 54 34.56 
L 388.8 34.56 
" style="fill:none;stroke:#000000;stroke-linecap:square;stroke-linejoin:miter;stroke-width:0.8;"/>
   </g>
   <g id="PathCollection_1">
    <defs>
     <path d="M 0 1.5 
C 0.397805 1.5 0.77937 1.341951 1.06066 1.06066 
C 1.341951 0.77937 1.5 0.397805 1.5 0 
C 1.5 -0.397805 1.341951 -0.77937 1.06066 -1.06066 
C 0.77937 -1.341951 0.397805 -1.5 0 -1.5 
C -0.397805 -1.5 -0.77937 -1.341951 -1.06066 -1.06066 
C -1.341951 -0.77937 -1.5 -0.397805 -1.5 0 
C -1.5 0.397805 -1.341951 0.77937 -1.06066 1.06066 
C -0.77937 1.341951 -0.397805 1.5 0 1.5 
z
" id="mc173020c95" style="stroke:#3d3d3d;"/>
    </defs>
    <g clip-path="url(#p50ede6345f)">
     <use style="fill:#ffffff;stroke:#3d3d3d;" x="80.04" xlink:href="#mc173020c95" y="242.023477"/>
    </g>
   </g>
   <g id="PathCollection_2">
    <g clip-path="url(#p50ede6345f)">
     <use style="fill:#ffffff;stroke:#3d3d3d;" x="221.4" xlink:href="#mc173020c95" y="242.018555"/>
    </g>
   </g>
   <g id="PathCollection_3">
    <g clip-path="url(#p50ede6345f)">
     <use style="fill:#ffffff;stroke:#3d3d3d;" x="362.76" xlink:href="#mc173020c95" y="242.014755"/>
    </g>
   </g>
   <g id="legend_1">
    <g id="patch_10">
     <path d="M 326.525 101.2725 
L 381.8 101.2725 
Q 383.8 101.2725 383.8 99.2725 
L 383.8 41.56 
Q 383.8 39.56 381.8 39.56 
L 326.525 39.56 
Q 324.525 39.56 324.525 41.56 
L 324.525 99.2725 
Q 324.525 101.2725 326.525 101.2725 
z
" style="fill:#ffffff;opacity:0.8;stroke:#cccccc;stroke-linejoin:miter;"/>
    </g>
    <g id="text_14">
     <!-- set -->
     <g transform="translate(346.521094 51.158437)scale(0.1 -0.1)">
      <use xlink:href="#DejaVuSans-115"/>
      <use x="52.099609" xlink:href="#DejaVuSans-101"/>
      <use x="113.623047" xlink:href="#DejaVuSans-116"/>
     </g>
    </g>
    <g id="patch_11">
     <path d="M 328.525 65.836562 
L 348.525 65.836562 
L 348.525 58.836562 
L 328.525 58.836562 
z
" style="fill:#3274a1;stroke:#3d3d3d;stroke-linejoin:miter;stroke-width:0.75;"/>
    </g>
    <g id="text_15">
     <!-- train -->
     <g transform="translate(356.525 65.836562)scale(0.1 -0.1)">
      <use xlink:href="#DejaVuSans-116"/>
      <use x="39.208984" xlink:href="#DejaVuSans-114"/>
      <use x="80.322266" xlink:href="#DejaVuSans-97"/>
      <use x="141.601562" xlink:href="#DejaVuSans-105"/>
      <use x="169.384766" xlink:href="#DejaVuSans-110"/>
     </g>
    </g>
    <g id="patch_12">
     <path d="M 328.525 80.514687 
L 348.525 80.514687 
L 348.525 73.514687 
L 328.525 73.514687 
z
" style="fill:#e1812c;stroke:#3d3d3d;stroke-linejoin:miter;stroke-width:0.75;"/>
    </g>
    <g id="text_16">
     <!-- val -->
     <g transform="translate(356.525 80.514687)scale(0.1 -0.1)">
      <use xlink:href="#DejaVuSans-118"/>
      <use x="59.179688" xlink:href="#DejaVuSans-97"/>
      <use x="120.458984" xlink:href="#DejaVuSans-108"/>
     </g>
    </g>
    <g id="patch_13">
     <path d="M 328.525 95.192813 
L 348.525 95.192813 
L 348.525 88.192813 
L 328.525 88.192813 
z
" style="fill:#3a923a;stroke:#3d3d3d;stroke-linejoin:miter;stroke-width:0.75;"/>
    </g>
    <g id="text_17">
     <!-- test -->
     <g transform="translate(356.525 95.192813)scale(0.1 -0.1)">
      <use xlink:href="#DejaVuSans-116"/>
      <use x="39.208984" xlink:href="#DejaVuSans-101"/>
      <use x="100.732422" xlink:href="#DejaVuSans-115"/>
      <use x="152.832031" xlink:href="#DejaVuSans-116"/>
     </g>
    </g>
   </g>
  </g>
 </g>
 <defs>
  <clipPath id="p50ede6345f">
   <rect height="217.44" width="334.8" x="54" y="34.56"/>
  </clipPath>
 </defs>
</svg>
