<?xml version="1.0" encoding="utf-8" standalone="no"?>
<!DOCTYPE svg PUBLIC "-//W3C//DTD SVG 1.1//EN"
  "http://www.w3.org/Graphics/SVG/1.1/DTD/svg11.dtd">
<!-- Created with matplotlib (https://matplotlib.org/) -->
<svg height="288pt" version="1.1" viewBox="0 0 432 288" width="432pt" xmlns="http://www.w3.org/2000/svg" xmlns:xlink="http://www.w3.org/1999/xlink">
 <metadata>
  <rdf:RDF xmlns:cc="http://creativecommons.org/ns#" xmlns:dc="http://purl.org/dc/elements/1.1/" xmlns:rdf="http://www.w3.org/1999/02/22-rdf-syntax-ns#">
   <cc:Work>
    <dc:type rdf:resource="http://purl.org/dc/dcmitype/StillImage"/>
    <dc:date>2022-05-27T17:43:30.138020</dc:date>
    <dc:format>image/svg+xml</dc:format>
    <dc:creator>
     <cc:Agent>
      <dc:title>Matplotlib v3.3.4, https://matplotlib.org/</dc:title>
     </cc:Agent>
    </dc:creator>
   </cc:Work>
  </rdf:RDF>
 </metadata>
 <defs>
  <style type="text/css">*{stroke-linecap:butt;stroke-linejoin:round;}</style>
 </defs>
 <g id="figure_1">
  <g id="patch_1">
   <path d="M 0 288 
L 432 288 
L 432 0 
L 0 0 
z
" style="fill:#ffffff;"/>
  </g>
  <g id="axes_1">
   <g id="patch_2">
    <path d="M 54 252 
L 388.8 252 
L 388.8 34.56 
L 54 34.56 
z
" style="fill:#ffffff;"/>
   </g>
   <g id="PolyCollection_1">
    <defs>
     <path d="M 91.980486 -45.884161 
L 68.099514 -45.884161 
L 65.335072 -47.874091 
L 65.16 -49.86402 
L 67.228687 -51.85395 
L 70.211733 -53.843879 
L 72.956166 -55.833808 
L 75.006508 -57.823738 
L 76.400315 -59.813667 
L 77.323301 -61.803597 
L 77.940326 -63.793526 
L 78.363484 -65.783455 
L 78.662603 -67.773385 
L 78.881677 -69.763314 
L 79.050596 -71.753244 
L 79.188644 -73.743173 
L 79.304619 -75.733102 
L 79.400817 -77.723032 
L 79.479844 -79.712961 
L 79.54703 -81.702891 
L 79.608998 -83.69282 
L 79.672551 -85.682749 
L 79.740257 -87.672679 
L 79.804369 -89.662608 
L 79.851022 -91.652538 
L 79.872996 -93.642467 
L 79.874217 -95.632396 
L 79.863451 -97.622326 
L 79.850061 -99.612255 
L 79.843179 -101.602185 
L 79.847005 -103.592114 
L 79.857405 -105.582043 
L 79.866905 -107.571973 
L 79.871272 -109.561902 
L 79.870813 -111.551832 
L 79.868693 -113.541761 
L 79.868476 -115.53169 
L 79.872035 -117.52162 
L 79.879948 -119.511549 
L 79.892576 -121.501478 
L 79.908658 -123.491408 
L 79.924308 -125.481337 
L 79.93568 -127.471267 
L 79.941716 -129.461196 
L 79.94342 -131.451125 
L 79.941667 -133.441055 
L 79.937145 -135.430984 
L 79.932781 -137.420914 
L 79.934047 -139.410843 
L 79.944291 -141.400772 
L 79.960948 -143.390702 
L 79.978096 -145.380631 
L 79.991466 -147.370561 
L 80.000573 -149.36049 
L 80.007428 -151.350419 
L 80.013298 -153.340349 
L 80.016649 -155.330278 
L 80.015071 -157.320208 
L 80.008913 -159.310137 
L 80.002124 -161.300066 
L 79.999489 -163.289996 
L 80.002985 -165.279925 
L 80.010568 -167.269855 
L 80.018489 -169.259784 
L 80.024323 -171.249713 
L 80.027332 -173.239643 
L 80.027156 -175.229572 
L 80.023993 -177.219502 
L 80.01982 -179.209431 
L 80.017689 -181.19936 
L 80.018952 -183.18929 
L 80.021696 -185.179219 
L 80.022777 -187.169149 
L 80.021333 -189.159078 
L 80.019162 -191.149007 
L 80.017733 -193.138937 
L 80.016753 -195.128866 
L 80.016139 -197.118796 
L 80.017154 -199.108725 
L 80.020471 -201.098654 
L 80.024452 -203.088584 
L 80.026447 -205.078513 
L 80.025689 -207.068443 
L 80.024308 -209.058372 
L 80.025128 -211.048301 
L 80.028766 -213.038231 
L 80.03341 -215.02816 
L 80.037023 -217.01809 
L 80.038949 -219.008019 
L 80.039598 -220.997948 
L 80.039371 -222.987878 
L 80.038074 -224.977807 
L 80.035131 -226.967737 
L 80.030555 -228.957666 
L 80.025872 -230.947595 
L 80.023296 -232.937525 
L 80.023342 -234.927454 
L 80.024131 -236.917384 
L 80.023966 -238.907313 
L 80.023663 -240.897242 
L 80.025259 -242.887172 
L 80.054741 -242.887172 
L 80.054741 -242.887172 
L 80.056337 -240.897242 
L 80.056034 -238.907313 
L 80.055869 -236.917384 
L 80.056658 -234.927454 
L 80.056704 -232.937525 
L 80.054128 -230.947595 
L 80.049445 -228.957666 
L 80.044869 -226.967737 
L 80.041926 -224.977807 
L 80.040629 -222.987878 
L 80.040402 -220.997948 
L 80.041051 -219.008019 
L 80.042977 -217.01809 
L 80.04659 -215.02816 
L 80.051234 -213.038231 
L 80.054872 -211.048301 
L 80.055692 -209.058372 
L 80.054311 -207.068443 
L 80.053553 -205.078513 
L 80.055548 -203.088584 
L 80.059529 -201.098654 
L 80.062846 -199.108725 
L 80.063861 -197.118796 
L 80.063247 -195.128866 
L 80.062267 -193.138937 
L 80.060838 -191.149007 
L 80.058667 -189.159078 
L 80.057223 -187.169149 
L 80.058304 -185.179219 
L 80.061048 -183.18929 
L 80.062311 -181.19936 
L 80.06018 -179.209431 
L 80.056007 -177.219502 
L 80.052844 -175.229572 
L 80.052668 -173.239643 
L 80.055677 -171.249713 
L 80.061511 -169.259784 
L 80.069432 -167.269855 
L 80.077015 -165.279925 
L 80.080511 -163.289996 
L 80.077876 -161.300066 
L 80.071087 -159.310137 
L 80.064929 -157.320208 
L 80.063351 -155.330278 
L 80.066702 -153.340349 
L 80.072572 -151.350419 
L 80.079427 -149.36049 
L 80.088534 -147.370561 
L 80.101904 -145.380631 
L 80.119052 -143.390702 
L 80.135709 -141.400772 
L 80.145953 -139.410843 
L 80.147219 -137.420914 
L 80.142855 -135.430984 
L 80.138333 -133.441055 
L 80.13658 -131.451125 
L 80.138284 -129.461196 
L 80.14432 -127.471267 
L 80.155692 -125.481337 
L 80.171342 -123.491408 
L 80.187424 -121.501478 
L 80.200052 -119.511549 
L 80.207965 -117.52162 
L 80.211524 -115.53169 
L 80.211307 -113.541761 
L 80.209187 -111.551832 
L 80.208728 -109.561902 
L 80.213095 -107.571973 
L 80.222595 -105.582043 
L 80.232995 -103.592114 
L 80.236821 -101.602185 
L 80.229939 -99.612255 
L 80.216549 -97.622326 
L 80.205783 -95.632396 
L 80.207004 -93.642467 
L 80.228978 -91.652538 
L 80.275631 -89.662608 
L 80.339743 -87.672679 
L 80.407449 -85.682749 
L 80.471002 -83.69282 
L 80.53297 -81.702891 
L 80.600156 -79.712961 
L 80.679183 -77.723032 
L 80.775381 -75.733102 
L 80.891356 -73.743173 
L 81.029404 -71.753244 
L 81.198323 -69.763314 
L 81.417397 -67.773385 
L 81.716516 -65.783455 
L 82.139674 -63.793526 
L 82.756699 -61.803597 
L 83.679685 -59.813667 
L 85.073492 -57.823738 
L 87.123834 -55.833808 
L 89.868267 -53.843879 
L 92.851313 -51.85395 
L 94.92 -49.86402 
L 94.744928 -47.874091 
L 91.980486 -45.884161 
z
" id="m6c118e866a" style="stroke:#3d3d3d;stroke-width:1.5;"/>
    </defs>
    <g clip-path="url(#p1c612c0ec5)">
     <use style="fill:#3274a1;stroke:#3d3d3d;stroke-width:1.5;" x="0" xlink:href="#m6c118e866a" y="288"/>
    </g>
   </g>
   <g id="PolyCollection_2">
    <defs>
     <path d="M 234.548892 -45.883636 
L 208.251108 -45.883636 
L 206.960992 -47.880276 
L 206.52 -49.876915 
L 206.963394 -51.873555 
L 208.160351 -53.870194 
L 209.86413 -55.866834 
L 211.789683 -57.863473 
L 213.686297 -59.860113 
L 215.381596 -61.856752 
L 216.790701 -63.853391 
L 217.89953 -65.850031 
L 218.737519 -67.84667 
L 219.352611 -69.84331 
L 219.794695 -71.839949 
L 220.107627 -73.836589 
L 220.326957 -75.833228 
L 220.480336 -77.829868 
L 220.588718 -79.826507 
L 220.667604 -81.823147 
L 220.72814 -83.819786 
L 220.778023 -85.816425 
L 220.822212 -87.813065 
L 220.863518 -89.809704 
L 220.903199 -91.806344 
L 220.941563 -93.802983 
L 220.978539 -95.799623 
L 221.01404 -97.796262 
L 221.048075 -99.792902 
L 221.080674 -101.789541 
L 221.111762 -103.78618 
L 221.141116 -105.78282 
L 221.16842 -107.779459 
L 221.193347 -109.776099 
L 221.215578 -111.772738 
L 221.234747 -113.769378 
L 221.250351 -115.766017 
L 221.261755 -117.762657 
L 221.268364 -119.759296 
L 221.269934 -121.755936 
L 221.266882 -123.752575 
L 221.260434 -125.749214 
L 221.252516 -127.745854 
L 221.245407 -129.742493 
L 221.241267 -131.739133 
L 221.241676 -133.735772 
L 221.247303 -135.732412 
L 221.25778 -137.729051 
L 221.271806 -139.725691 
L 221.287468 -141.72233 
L 221.302689 -143.71897 
L 221.315698 -145.715609 
L 221.325365 -147.712248 
L 221.33135 -149.708888 
L 221.334037 -151.705527 
L 221.334328 -153.702167 
L 221.333364 -155.698806 
L 221.332274 -157.695446 
L 221.331963 -159.692085 
L 221.332999 -161.688725 
L 221.335578 -163.685364 
L 221.339572 -165.682004 
L 221.344638 -167.678643 
L 221.35034 -169.675282 
L 221.35623 -171.671922 
L 221.361857 -173.668561 
L 221.366709 -175.665201 
L 221.370148 -177.66184 
L 221.371422 -179.65848 
L 221.369798 -181.655119 
L 221.364792 -183.651759 
L 221.356421 -185.648398 
L 221.345377 -187.645038 
L 221.333015 -189.641677 
L 221.321134 -191.638316 
L 221.311565 -193.634956 
L 221.305694 -195.631595 
L 221.30408 -197.628235 
L 221.306322 -199.624874 
L 221.311233 -201.621514 
L 221.31725 -203.618153 
L 221.322888 -205.614793 
L 221.327053 -207.611432 
L 221.329126 -209.608072 
L 221.328841 -211.604711 
L 221.326109 -213.60135 
L 221.320899 -215.59799 
L 221.313263 -217.594629 
L 221.303437 -219.591269 
L 221.29196 -221.587908 
L 221.279694 -223.584548 
L 221.267698 -225.581187 
L 221.256997 -227.577827 
L 221.248321 -229.574466 
L 221.241997 -231.571105 
L 221.238066 -233.567745 
L 221.236597 -235.564384 
L 221.237993 -237.561024 
L 221.243042 -239.557663 
L 221.252605 -241.554303 
L 221.267063 -243.550942 
L 221.532937 -243.550942 
L 221.532937 -243.550942 
L 221.547395 -241.554303 
L 221.556958 -239.557663 
L 221.562007 -237.561024 
L 221.563403 -235.564384 
L 221.561934 -233.567745 
L 221.558003 -231.571105 
L 221.551679 -229.574466 
L 221.543003 -227.577827 
L 221.532302 -225.581187 
L 221.520306 -223.584548 
L 221.50804 -221.587908 
L 221.496563 -219.591269 
L 221.486737 -217.594629 
L 221.479101 -215.59799 
L 221.473891 -213.60135 
L 221.471159 -211.604711 
L 221.470874 -209.608072 
L 221.472947 -207.611432 
L 221.477112 -205.614793 
L 221.48275 -203.618153 
L 221.488767 -201.621514 
L 221.493678 -199.624874 
L 221.49592 -197.628235 
L 221.494306 -195.631595 
L 221.488435 -193.634956 
L 221.478866 -191.638316 
L 221.466985 -189.641677 
L 221.454623 -187.645038 
L 221.443579 -185.648398 
L 221.435208 -183.651759 
L 221.430202 -181.655119 
L 221.428578 -179.65848 
L 221.429852 -177.66184 
L 221.433291 -175.665201 
L 221.438143 -173.668561 
L 221.44377 -171.671922 
L 221.44966 -169.675282 
L 221.455362 -167.678643 
L 221.460428 -165.682004 
L 221.464422 -163.685364 
L 221.467001 -161.688725 
L 221.468037 -159.692085 
L 221.467726 -157.695446 
L 221.466636 -155.698806 
L 221.465672 -153.702167 
L 221.465963 -151.705527 
L 221.46865 -149.708888 
L 221.474635 -147.712248 
L 221.484302 -145.715609 
L 221.497311 -143.71897 
L 221.512532 -141.72233 
L 221.528194 -139.725691 
L 221.54222 -137.729051 
L 221.552697 -135.732412 
L 221.558324 -133.735772 
L 221.558733 -131.739133 
L 221.554593 -129.742493 
L 221.547484 -127.745854 
L 221.539566 -125.749214 
L 221.533118 -123.752575 
L 221.530066 -121.755936 
L 221.531636 -119.759296 
L 221.538245 -117.762657 
L 221.549649 -115.766017 
L 221.565253 -113.769378 
L 221.584422 -111.772738 
L 221.606653 -109.776099 
L 221.63158 -107.779459 
L 221.658884 -105.78282 
L 221.688238 -103.78618 
L 221.719326 -101.789541 
L 221.751925 -99.792902 
L 221.78596 -97.796262 
L 221.821461 -95.799623 
L 221.858437 -93.802983 
L 221.896801 -91.806344 
L 221.936482 -89.809704 
L 221.977788 -87.813065 
L 222.021977 -85.816425 
L 222.07186 -83.819786 
L 222.132396 -81.823147 
L 222.211282 -79.826507 
L 222.319664 -77.829868 
L 222.473043 -75.833228 
L 222.692373 -73.836589 
L 223.005305 -71.839949 
L 223.447389 -69.84331 
L 224.062481 -67.84667 
L 224.90047 -65.850031 
L 226.009299 -63.853391 
L 227.418404 -61.856752 
L 229.113703 -59.860113 
L 231.010317 -57.863473 
L 232.93587 -55.866834 
L 234.639649 -53.870194 
L 235.836606 -51.873555 
L 236.28 -49.876915 
L 235.839008 -47.880276 
L 234.548892 -45.883636 
z
" id="me6ee9a7712" style="stroke:#3d3d3d;stroke-width:1.5;"/>
    </defs>
    <g clip-path="url(#p1c612c0ec5)">
     <use style="fill:#e1812c;stroke:#3d3d3d;stroke-width:1.5;" x="0" xlink:href="#me6ee9a7712" y="288"/>
    </g>
   </g>
   <g id="PolyCollection_3">
    <defs>
     <path d="M 376.07047 -45.884152 
L 349.44953 -45.884152 
L 348.283198 -47.880841 
L 347.88 -49.87753 
L 348.267356 -51.874219 
L 349.339068 -53.870908 
L 350.892209 -55.867597 
L 352.685407 -57.864286 
L 354.49621 -59.860975 
L 356.159883 -61.857664 
L 357.582926 -63.854353 
L 358.735359 -65.851042 
L 359.631559 -67.847731 
L 360.309396 -69.84442 
L 360.813823 -71.841109 
L 361.186864 -73.837798 
L 361.4631 -75.834487 
L 361.668772 -77.831176 
L 361.822752 -79.827865 
L 361.938279 -81.824554 
L 362.024844 -83.821243 
L 362.08983 -85.817932 
L 362.13967 -87.814621 
L 362.180333 -89.81131 
L 362.217154 -91.807999 
L 362.254267 -93.804688 
L 362.294001 -95.801377 
L 362.336655 -97.798066 
L 362.380806 -99.794755 
L 362.424092 -101.791444 
L 362.464155 -103.788133 
L 362.499413 -105.784822 
L 362.529405 -107.781511 
L 362.554679 -109.7782 
L 362.576346 -111.774889 
L 362.595523 -113.771578 
L 362.612904 -115.768267 
L 362.628597 -117.764956 
L 362.64225 -119.761645 
L 362.653368 -121.758334 
L 362.661665 -123.755023 
L 362.667264 -125.751712 
L 362.670675 -127.748401 
L 362.672568 -129.74509 
L 362.673492 -131.741779 
L 362.673691 -133.738468 
L 362.673133 -135.735157 
L 362.671684 -137.731846 
L 362.669336 -139.728535 
L 362.666322 -141.725224 
L 362.663074 -143.721913 
L 362.660078 -145.718602 
L 362.657736 -147.715291 
L 362.656328 -149.71198 
L 362.656076 -151.708669 
L 362.657238 -153.705358 
L 362.66012 -155.702047 
L 362.664977 -157.698736 
L 362.671844 -159.695425 
L 362.680397 -161.692114 
L 362.689967 -163.688803 
L 362.699695 -165.685492 
L 362.708789 -167.682181 
L 362.716726 -169.67887 
L 362.72332 -171.675559 
L 362.728627 -173.672248 
L 362.732743 -175.668937 
L 362.735627 -177.665626 
L 362.737019 -179.662315 
L 362.736514 -181.659004 
L 362.73373 -183.655693 
L 362.728523 -185.652382 
L 362.721128 -187.649071 
L 362.712197 -189.64576 
L 362.702688 -191.642449 
L 362.693661 -193.639138 
L 362.686021 -195.635827 
L 362.680307 -197.632516 
L 362.676562 -199.629205 
L 362.674337 -201.625894 
L 362.672818 -203.622583 
L 362.671076 -205.619272 
L 362.668381 -207.615961 
L 362.664503 -209.61265 
L 362.659883 -211.609339 
L 362.655566 -213.606028 
L 362.65286 -215.602717 
L 362.652783 -217.599407 
L 362.655502 -219.596096 
L 362.659977 -221.592785 
L 362.663994 -223.589474 
L 362.664616 -225.586163 
L 362.658954 -227.582852 
L 362.645057 -229.579541 
L 362.622684 -231.57623 
L 362.593744 -233.572919 
L 362.56221 -235.569608 
L 362.533463 -237.566297 
L 362.513117 -239.562986 
L 362.505626 -241.559675 
L 362.513095 -243.556364 
L 363.006905 -243.556364 
L 363.006905 -243.556364 
L 363.014374 -241.559675 
L 363.006883 -239.562986 
L 362.986537 -237.566297 
L 362.95779 -235.569608 
L 362.926256 -233.572919 
L 362.897316 -231.57623 
L 362.874943 -229.579541 
L 362.861046 -227.582852 
L 362.855384 -225.586163 
L 362.856006 -223.589474 
L 362.860023 -221.592785 
L 362.864498 -219.596096 
L 362.867217 -217.599407 
L 362.86714 -215.602717 
L 362.864434 -213.606028 
L 362.860117 -211.609339 
L 362.855497 -209.61265 
L 362.851619 -207.615961 
L 362.848924 -205.619272 
L 362.847182 -203.622583 
L 362.845663 -201.625894 
L 362.843438 -199.629205 
L 362.839693 -197.632516 
L 362.833979 -195.635827 
L 362.826339 -193.639138 
L 362.817312 -191.642449 
L 362.807803 -189.64576 
L 362.798872 -187.649071 
L 362.791477 -185.652382 
L 362.78627 -183.655693 
L 362.783486 -181.659004 
L 362.782981 -179.662315 
L 362.784373 -177.665626 
L 362.787257 -175.668937 
L 362.791373 -173.672248 
L 362.79668 -171.675559 
L 362.803274 -169.67887 
L 362.811211 -167.682181 
L 362.820305 -165.685492 
L 362.830033 -163.688803 
L 362.839603 -161.692114 
L 362.848156 -159.695425 
L 362.855023 -157.698736 
L 362.85988 -155.702047 
L 362.862762 -153.705358 
L 362.863924 -151.708669 
L 362.863672 -149.71198 
L 362.862264 -147.715291 
L 362.859922 -145.718602 
L 362.856926 -143.721913 
L 362.853678 -141.725224 
L 362.850664 -139.728535 
L 362.848316 -137.731846 
L 362.846867 -135.735157 
L 362.846309 -133.738468 
L 362.846508 -131.741779 
L 362.847432 -129.74509 
L 362.849325 -127.748401 
L 362.852736 -125.751712 
L 362.858335 -123.755023 
L 362.866632 -121.758334 
L 362.87775 -119.761645 
L 362.891403 -117.764956 
L 362.907096 -115.768267 
L 362.924477 -113.771578 
L 362.943654 -111.774889 
L 362.965321 -109.7782 
L 362.990595 -107.781511 
L 363.020587 -105.784822 
L 363.055845 -103.788133 
L 363.095908 -101.791444 
L 363.139194 -99.794755 
L 363.183345 -97.798066 
L 363.225999 -95.801377 
L 363.265733 -93.804688 
L 363.302846 -91.807999 
L 363.339667 -89.81131 
L 363.38033 -87.814621 
L 363.43017 -85.817932 
L 363.495156 -83.821243 
L 363.581721 -81.824554 
L 363.697248 -79.827865 
L 363.851228 -77.831176 
L 364.0569 -75.834487 
L 364.333136 -73.837798 
L 364.706177 -71.841109 
L 365.210604 -69.84442 
L 365.888441 -67.847731 
L 366.784641 -65.851042 
L 367.937074 -63.854353 
L 369.360117 -61.857664 
L 371.02379 -59.860975 
L 372.834593 -57.864286 
L 374.627791 -55.867597 
L 376.180932 -53.870908 
L 377.252644 -51.874219 
L 377.64 -49.87753 
L 377.236802 -47.880841 
L 376.07047 -45.884152 
z
" id="ma9c86d942e" style="stroke:#3d3d3d;stroke-width:1.5;"/>
    </defs>
    <g clip-path="url(#p1c612c0ec5)">
     <use style="fill:#3a923a;stroke:#3d3d3d;stroke-width:1.5;" x="0" xlink:href="#ma9c86d942e" y="288"/>
    </g>
   </g>
   <g id="patch_3">
    <path clip-path="url(#p1c612c0ec5)" d="M 109.8 242.117619 
L 109.8 242.117619 
L 109.8 242.117619 
L 109.8 242.117619 
z
" style="fill:#3274a1;stroke:#3d3d3d;stroke-linejoin:miter;stroke-width:0.75;"/>
   </g>
   <g id="patch_4">
    <path clip-path="url(#p1c612c0ec5)" d="M 109.8 242.117619 
L 109.8 242.117619 
L 109.8 242.117619 
L 109.8 242.117619 
z
" style="fill:#e1812c;stroke:#3d3d3d;stroke-linejoin:miter;stroke-width:0.75;"/>
   </g>
   <g id="patch_5">
    <path clip-path="url(#p1c612c0ec5)" d="M 109.8 242.117619 
L 109.8 242.117619 
L 109.8 242.117619 
L 109.8 242.117619 
z
" style="fill:#3a923a;stroke:#3d3d3d;stroke-linejoin:miter;stroke-width:0.75;"/>
   </g>
   <g id="matplotlib.axis_1">
    <g id="xtick_1">
     <g id="line2d_1">
      <defs>
       <path d="M 0 0 
L 0 3.5 
" id="m3135424b00" style="stroke:#000000;stroke-width:0.8;"/>
      </defs>
      <g>
       <use style="stroke:#000000;stroke-width:0.8;" x="109.8" xlink:href="#m3135424b00" y="252"/>
      </g>
     </g>
     <g id="text_1">
      <!-- train -->
      <g transform="translate(98.1625 266.598437)scale(0.1 -0.1)">
       <defs>
        <path d="M 18.3125 70.21875 
L 18.3125 54.6875 
L 36.8125 54.6875 
L 36.8125 47.703125 
L 18.3125 47.703125 
L 18.3125 18.015625 
Q 18.3125 11.328125 20.140625 9.421875 
Q 21.96875 7.515625 27.59375 7.515625 
L 36.8125 7.515625 
L 36.8125 0 
L 27.59375 0 
Q 17.1875 0 13.234375 3.875 
Q 9.28125 7.765625 9.28125 18.015625 
L 9.28125 47.703125 
L 2.6875 47.703125 
L 2.6875 54.6875 
L 9.28125 54.6875 
L 9.28125 70.21875 
z
" id="DejaVuSans-116"/>
        <path d="M 41.109375 46.296875 
Q 39.59375 47.171875 37.8125 47.578125 
Q 36.03125 48 33.890625 48 
Q 26.265625 48 22.1875 43.046875 
Q 18.109375 38.09375 18.109375 28.8125 
L 18.109375 0 
L 9.078125 0 
L 9.078125 54.6875 
L 18.109375 54.6875 
L 18.109375 46.1875 
Q 20.953125 51.171875 25.484375 53.578125 
Q 30.03125 56 36.53125 56 
Q 37.453125 56 38.578125 55.875 
Q 39.703125 55.765625 41.0625 55.515625 
z
" id="DejaVuSans-114"/>
        <path d="M 34.28125 27.484375 
Q 23.390625 27.484375 19.1875 25 
Q 14.984375 22.515625 14.984375 16.5 
Q 14.984375 11.71875 18.140625 8.90625 
Q 21.296875 6.109375 26.703125 6.109375 
Q 34.1875 6.109375 38.703125 11.40625 
Q 43.21875 16.703125 43.21875 25.484375 
L 43.21875 27.484375 
z
M 52.203125 31.203125 
L 52.203125 0 
L 43.21875 0 
L 43.21875 8.296875 
Q 40.140625 3.328125 35.546875 0.953125 
Q 30.953125 -1.421875 24.3125 -1.421875 
Q 15.921875 -1.421875 10.953125 3.296875 
Q 6 8.015625 6 15.921875 
Q 6 25.140625 12.171875 29.828125 
Q 18.359375 34.515625 30.609375 34.515625 
L 43.21875 34.515625 
L 43.21875 35.40625 
Q 43.21875 41.609375 39.140625 45 
Q 35.0625 48.390625 27.6875 48.390625 
Q 23 48.390625 18.546875 47.265625 
Q 14.109375 46.140625 10.015625 43.890625 
L 10.015625 52.203125 
Q 14.9375 54.109375 19.578125 55.046875 
Q 24.21875 56 28.609375 56 
Q 40.484375 56 46.34375 49.84375 
Q 52.203125 43.703125 52.203125 31.203125 
z
" id="DejaVuSans-97"/>
        <path d="M 9.421875 54.6875 
L 18.40625 54.6875 
L 18.40625 0 
L 9.421875 0 
z
M 9.421875 75.984375 
L 18.40625 75.984375 
L 18.40625 64.59375 
L 9.421875 64.59375 
z
" id="DejaVuSans-105"/>
        <path d="M 54.890625 33.015625 
L 54.890625 0 
L 45.90625 0 
L 45.90625 32.71875 
Q 45.90625 40.484375 42.875 44.328125 
Q 39.84375 48.1875 33.796875 48.1875 
Q 26.515625 48.1875 22.3125 43.546875 
Q 18.109375 38.921875 18.109375 30.90625 
L 18.109375 0 
L 9.078125 0 
L 9.078125 54.6875 
L 18.109375 54.6875 
L 18.109375 46.1875 
Q 21.34375 51.125 25.703125 53.5625 
Q 30.078125 56 35.796875 56 
Q 45.21875 56 50.046875 50.171875 
Q 54.890625 44.34375 54.890625 33.015625 
z
" id="DejaVuSans-110"/>
       </defs>
       <use xlink:href="#DejaVuSans-116"/>
       <use x="39.208984" xlink:href="#DejaVuSans-114"/>
       <use x="80.322266" xlink:href="#DejaVuSans-97"/>
       <use x="141.601562" xlink:href="#DejaVuSans-105"/>
       <use x="169.384766" xlink:href="#DejaVuSans-110"/>
      </g>
     </g>
    </g>
    <g id="xtick_2">
     <g id="line2d_2">
      <g>
       <use style="stroke:#000000;stroke-width:0.8;" x="221.4" xlink:href="#m3135424b00" y="252"/>
      </g>
     </g>
     <g id="text_2">
      <!-- val -->
      <g transform="translate(213.9875 266.598437)scale(0.1 -0.1)">
       <defs>
        <path d="M 2.984375 54.6875 
L 12.5 54.6875 
L 29.59375 8.796875 
L 46.6875 54.6875 
L 56.203125 54.6875 
L 35.6875 0 
L 23.484375 0 
z
" id="DejaVuSans-118"/>
        <path d="M 9.421875 75.984375 
L 18.40625 75.984375 
L 18.40625 0 
L 9.421875 0 
z
" id="DejaVuSans-108"/>
       </defs>
       <use xlink:href="#DejaVuSans-118"/>
       <use x="59.179688" xlink:href="#DejaVuSans-97"/>
       <use x="120.458984" xlink:href="#DejaVuSans-108"/>
      </g>
     </g>
    </g>
    <g id="xtick_3">
     <g id="line2d_3">
      <g>
       <use style="stroke:#000000;stroke-width:0.8;" x="333" xlink:href="#m3135424b00" y="252"/>
      </g>
     </g>
     <g id="text_3">
      <!-- test -->
      <g transform="translate(323.398438 266.598437)scale(0.1 -0.1)">
       <defs>
        <path d="M 56.203125 29.59375 
L 56.203125 25.203125 
L 14.890625 25.203125 
Q 15.484375 15.921875 20.484375 11.0625 
Q 25.484375 6.203125 34.421875 6.203125 
Q 39.59375 6.203125 44.453125 7.46875 
Q 49.3125 8.734375 54.109375 11.28125 
L 54.109375 2.78125 
Q 49.265625 0.734375 44.1875 -0.34375 
Q 39.109375 -1.421875 33.890625 -1.421875 
Q 20.796875 -1.421875 13.15625 6.1875 
Q 5.515625 13.8125 5.515625 26.8125 
Q 5.515625 40.234375 12.765625 48.109375 
Q 20.015625 56 32.328125 56 
Q 43.359375 56 49.78125 48.890625 
Q 56.203125 41.796875 56.203125 29.59375 
z
M 47.21875 32.234375 
Q 47.125 39.59375 43.09375 43.984375 
Q 39.0625 48.390625 32.421875 48.390625 
Q 24.90625 48.390625 20.390625 44.140625 
Q 15.875 39.890625 15.1875 32.171875 
z
" id="DejaVuSans-101"/>
        <path d="M 44.28125 53.078125 
L 44.28125 44.578125 
Q 40.484375 46.53125 36.375 47.5 
Q 32.28125 48.484375 27.875 48.484375 
Q 21.1875 48.484375 17.84375 46.4375 
Q 14.5 44.390625 14.5 40.28125 
Q 14.5 37.15625 16.890625 35.375 
Q 19.28125 33.59375 26.515625 31.984375 
L 29.59375 31.296875 
Q 39.15625 29.25 43.1875 25.515625 
Q 47.21875 21.78125 47.21875 15.09375 
Q 47.21875 7.46875 41.1875 3.015625 
Q 35.15625 -1.421875 24.609375 -1.421875 
Q 20.21875 -1.421875 15.453125 -0.5625 
Q 10.6875 0.296875 5.421875 2 
L 5.421875 11.28125 
Q 10.40625 8.6875 15.234375 7.390625 
Q 20.0625 6.109375 24.8125 6.109375 
Q 31.15625 6.109375 34.5625 8.28125 
Q 37.984375 10.453125 37.984375 14.40625 
Q 37.984375 18.0625 35.515625 20.015625 
Q 33.0625 21.96875 24.703125 23.78125 
L 21.578125 24.515625 
Q 13.234375 26.265625 9.515625 29.90625 
Q 5.8125 33.546875 5.8125 39.890625 
Q 5.8125 47.609375 11.28125 51.796875 
Q 16.75 56 26.8125 56 
Q 31.78125 56 36.171875 55.265625 
Q 40.578125 54.546875 44.28125 53.078125 
z
" id="DejaVuSans-115"/>
       </defs>
       <use xlink:href="#DejaVuSans-116"/>
       <use x="39.208984" xlink:href="#DejaVuSans-101"/>
       <use x="100.732422" xlink:href="#DejaVuSans-115"/>
       <use x="152.832031" xlink:href="#DejaVuSans-116"/>
      </g>
     </g>
    </g>
    <g id="text_4">
     <!-- set -->
     <g transform="translate(213.758594 280.276563)scale(0.1 -0.1)">
      <use xlink:href="#DejaVuSans-115"/>
      <use x="52.099609" xlink:href="#DejaVuSans-101"/>
      <use x="113.623047" xlink:href="#DejaVuSans-116"/>
     </g>
    </g>
   </g>
   <g id="matplotlib.axis_2">
    <g id="ytick_1">
     <g id="line2d_4">
      <defs>
       <path d="M 0 0 
L -3.5 0 
" id="m7dfccb5b2d" style="stroke:#000000;stroke-width:0.8;"/>
      </defs>
      <g>
       <use style="stroke:#000000;stroke-width:0.8;" x="54" xlink:href="#m7dfccb5b2d" y="242.117619"/>
      </g>
     </g>
     <g id="text_5">
      <!-- 0.0 -->
      <g transform="translate(31.096875 245.916838)scale(0.1 -0.1)">
       <defs>
        <path d="M 31.78125 66.40625 
Q 24.171875 66.40625 20.328125 58.90625 
Q 16.5 51.421875 16.5 36.375 
Q 16.5 21.390625 20.328125 13.890625 
Q 24.171875 6.390625 31.78125 6.390625 
Q 39.453125 6.390625 43.28125 13.890625 
Q 47.125 21.390625 47.125 36.375 
Q 47.125 51.421875 43.28125 58.90625 
Q 39.453125 66.40625 31.78125 66.40625 
z
M 31.78125 74.21875 
Q 44.046875 74.21875 50.515625 64.515625 
Q 56.984375 54.828125 56.984375 36.375 
Q 56.984375 17.96875 50.515625 8.265625 
Q 44.046875 -1.421875 31.78125 -1.421875 
Q 19.53125 -1.421875 13.0625 8.265625 
Q 6.59375 17.96875 6.59375 36.375 
Q 6.59375 54.828125 13.0625 64.515625 
Q 19.53125 74.21875 31.78125 74.21875 
z
" id="DejaVuSans-48"/>
        <path d="M 10.6875 12.40625 
L 21 12.40625 
L 21 0 
L 10.6875 0 
z
" id="DejaVuSans-46"/>
       </defs>
       <use xlink:href="#DejaVuSans-48"/>
       <use x="63.623047" xlink:href="#DejaVuSans-46"/>
       <use x="95.410156" xlink:href="#DejaVuSans-48"/>
      </g>
     </g>
    </g>
    <g id="ytick_2">
     <g id="line2d_5">
      <g>
       <use style="stroke:#000000;stroke-width:0.8;" x="54" xlink:href="#m7dfccb5b2d" y="202.398603"/>
      </g>
     </g>
     <g id="text_6">
      <!-- 0.2 -->
      <g transform="translate(31.096875 206.197822)scale(0.1 -0.1)">
       <defs>
        <path d="M 19.1875 8.296875 
L 53.609375 8.296875 
L 53.609375 0 
L 7.328125 0 
L 7.328125 8.296875 
Q 12.9375 14.109375 22.625 23.890625 
Q 32.328125 33.6875 34.8125 36.53125 
Q 39.546875 41.84375 41.421875 45.53125 
Q 43.3125 49.21875 43.3125 52.78125 
Q 43.3125 58.59375 39.234375 62.25 
Q 35.15625 65.921875 28.609375 65.921875 
Q 23.96875 65.921875 18.8125 64.3125 
Q 13.671875 62.703125 7.8125 59.421875 
L 7.8125 69.390625 
Q 13.765625 71.78125 18.9375 73 
Q 24.125 74.21875 28.421875 74.21875 
Q 39.75 74.21875 46.484375 68.546875 
Q 53.21875 62.890625 53.21875 53.421875 
Q 53.21875 48.921875 51.53125 44.890625 
Q 49.859375 40.875 45.40625 35.40625 
Q 44.1875 33.984375 37.640625 27.21875 
Q 31.109375 20.453125 19.1875 8.296875 
z
" id="DejaVuSans-50"/>
       </defs>
       <use xlink:href="#DejaVuSans-48"/>
       <use x="63.623047" xlink:href="#DejaVuSans-46"/>
       <use x="95.410156" xlink:href="#DejaVuSans-50"/>
      </g>
     </g>
    </g>
    <g id="ytick_3">
     <g id="line2d_6">
      <g>
       <use style="stroke:#000000;stroke-width:0.8;" x="54" xlink:href="#m7dfccb5b2d" y="162.679586"/>
      </g>
     </g>
     <g id="text_7">
      <!-- 0.4 -->
      <g transform="translate(31.096875 166.478805)scale(0.1 -0.1)">
       <defs>
        <path d="M 37.796875 64.3125 
L 12.890625 25.390625 
L 37.796875 25.390625 
z
M 35.203125 72.90625 
L 47.609375 72.90625 
L 47.609375 25.390625 
L 58.015625 25.390625 
L 58.015625 17.1875 
L 47.609375 17.1875 
L 47.609375 0 
L 37.796875 0 
L 37.796875 17.1875 
L 4.890625 17.1875 
L 4.890625 26.703125 
z
" id="DejaVuSans-52"/>
       </defs>
       <use xlink:href="#DejaVuSans-48"/>
       <use x="63.623047" xlink:href="#DejaVuSans-46"/>
       <use x="95.410156" xlink:href="#DejaVuSans-52"/>
      </g>
     </g>
    </g>
    <g id="ytick_4">
     <g id="line2d_7">
      <g>
       <use style="stroke:#000000;stroke-width:0.8;" x="54" xlink:href="#m7dfccb5b2d" y="122.96057"/>
      </g>
     </g>
     <g id="text_8">
      <!-- 0.6 -->
      <g transform="translate(31.096875 126.759789)scale(0.1 -0.1)">
       <defs>
        <path d="M 33.015625 40.375 
Q 26.375 40.375 22.484375 35.828125 
Q 18.609375 31.296875 18.609375 23.390625 
Q 18.609375 15.53125 22.484375 10.953125 
Q 26.375 6.390625 33.015625 6.390625 
Q 39.65625 6.390625 43.53125 10.953125 
Q 47.40625 15.53125 47.40625 23.390625 
Q 47.40625 31.296875 43.53125 35.828125 
Q 39.65625 40.375 33.015625 40.375 
z
M 52.59375 71.296875 
L 52.59375 62.3125 
Q 48.875 64.0625 45.09375 64.984375 
Q 41.3125 65.921875 37.59375 65.921875 
Q 27.828125 65.921875 22.671875 59.328125 
Q 17.53125 52.734375 16.796875 39.40625 
Q 19.671875 43.65625 24.015625 45.921875 
Q 28.375 48.1875 33.59375 48.1875 
Q 44.578125 48.1875 50.953125 41.515625 
Q 57.328125 34.859375 57.328125 23.390625 
Q 57.328125 12.15625 50.6875 5.359375 
Q 44.046875 -1.421875 33.015625 -1.421875 
Q 20.359375 -1.421875 13.671875 8.265625 
Q 6.984375 17.96875 6.984375 36.375 
Q 6.984375 53.65625 15.1875 63.9375 
Q 23.390625 74.21875 37.203125 74.21875 
Q 40.921875 74.21875 44.703125 73.484375 
Q 48.484375 72.75 52.59375 71.296875 
z
" id="DejaVuSans-54"/>
       </defs>
       <use xlink:href="#DejaVuSans-48"/>
       <use x="63.623047" xlink:href="#DejaVuSans-46"/>
       <use x="95.410156" xlink:href="#DejaVuSans-54"/>
      </g>
     </g>
    </g>
    <g id="ytick_5">
     <g id="line2d_8">
      <g>
       <use style="stroke:#000000;stroke-width:0.8;" x="54" xlink:href="#m7dfccb5b2d" y="83.241554"/>
      </g>
     </g>
     <g id="text_9">
      <!-- 0.8 -->
      <g transform="translate(31.096875 87.040772)scale(0.1 -0.1)">
       <defs>
        <path d="M 31.78125 34.625 
Q 24.75 34.625 20.71875 30.859375 
Q 16.703125 27.09375 16.703125 20.515625 
Q 16.703125 13.921875 20.71875 10.15625 
Q 24.75 6.390625 31.78125 6.390625 
Q 38.8125 6.390625 42.859375 10.171875 
Q 46.921875 13.96875 46.921875 20.515625 
Q 46.921875 27.09375 42.890625 30.859375 
Q 38.875 34.625 31.78125 34.625 
z
M 21.921875 38.8125 
Q 15.578125 40.375 12.03125 44.71875 
Q 8.5 49.078125 8.5 55.328125 
Q 8.5 64.0625 14.71875 69.140625 
Q 20.953125 74.21875 31.78125 74.21875 
Q 42.671875 74.21875 48.875 69.140625 
Q 55.078125 64.0625 55.078125 55.328125 
Q 55.078125 49.078125 51.53125 44.71875 
Q 48 40.375 41.703125 38.8125 
Q 48.828125 37.15625 52.796875 32.3125 
Q 56.78125 27.484375 56.78125 20.515625 
Q 56.78125 9.90625 50.3125 4.234375 
Q 43.84375 -1.421875 31.78125 -1.421875 
Q 19.734375 -1.421875 13.25 4.234375 
Q 6.78125 9.90625 6.78125 20.515625 
Q 6.78125 27.484375 10.78125 32.3125 
Q 14.796875 37.15625 21.921875 38.8125 
z
M 18.3125 54.390625 
Q 18.3125 48.734375 21.84375 45.5625 
Q 25.390625 42.390625 31.78125 42.390625 
Q 38.140625 42.390625 41.71875 45.5625 
Q 45.3125 48.734375 45.3125 54.390625 
Q 45.3125 60.0625 41.71875 63.234375 
Q 38.140625 66.40625 31.78125 66.40625 
Q 25.390625 66.40625 21.84375 63.234375 
Q 18.3125 60.0625 18.3125 54.390625 
z
" id="DejaVuSans-56"/>
       </defs>
       <use xlink:href="#DejaVuSans-48"/>
       <use x="63.623047" xlink:href="#DejaVuSans-46"/>
       <use x="95.410156" xlink:href="#DejaVuSans-56"/>
      </g>
     </g>
    </g>
    <g id="ytick_6">
     <g id="line2d_9">
      <g>
       <use style="stroke:#000000;stroke-width:0.8;" x="54" xlink:href="#m7dfccb5b2d" y="43.522537"/>
      </g>
     </g>
     <g id="text_10">
      <!-- 1.0 -->
      <g transform="translate(31.096875 47.321756)scale(0.1 -0.1)">
       <defs>
        <path d="M 12.40625 8.296875 
L 28.515625 8.296875 
L 28.515625 63.921875 
L 10.984375 60.40625 
L 10.984375 69.390625 
L 28.421875 72.90625 
L 38.28125 72.90625 
L 38.28125 8.296875 
L 54.390625 8.296875 
L 54.390625 0 
L 12.40625 0 
z
" id="DejaVuSans-49"/>
       </defs>
       <use xlink:href="#DejaVuSans-49"/>
       <use x="63.623047" xlink:href="#DejaVuSans-46"/>
       <use x="95.410156" xlink:href="#DejaVuSans-48"/>
      </g>
     </g>
    </g>
    <g id="text_11">
     <!-- value -->
     <g transform="translate(25.017187 156.937813)rotate(-90)scale(0.1 -0.1)">
      <defs>
       <path d="M 8.5 21.578125 
L 8.5 54.6875 
L 17.484375 54.6875 
L 17.484375 21.921875 
Q 17.484375 14.15625 20.5 10.265625 
Q 23.53125 6.390625 29.59375 6.390625 
Q 36.859375 6.390625 41.078125 11.03125 
Q 45.3125 15.671875 45.3125 23.6875 
L 45.3125 54.6875 
L 54.296875 54.6875 
L 54.296875 0 
L 45.3125 0 
L 45.3125 8.40625 
Q 42.046875 3.421875 37.71875 1 
Q 33.40625 -1.421875 27.6875 -1.421875 
Q 18.265625 -1.421875 13.375 4.4375 
Q 8.5 10.296875 8.5 21.578125 
z
M 31.109375 56 
z
" id="DejaVuSans-117"/>
      </defs>
      <use xlink:href="#DejaVuSans-118"/>
      <use x="59.179688" xlink:href="#DejaVuSans-97"/>
      <use x="120.458984" xlink:href="#DejaVuSans-108"/>
      <use x="148.242188" xlink:href="#DejaVuSans-117"/>
      <use x="211.621094" xlink:href="#DejaVuSans-101"/>
     </g>
    </g>
   </g>
   <g id="line2d_10">
    <path clip-path="url(#p1c612c0ec5)" d="M 80.04 242.115839 
L 80.04 220.360732 
" style="fill:none;stroke:#3d3d3d;stroke-linecap:square;stroke-width:1.5;"/>
   </g>
   <g id="line2d_11">
    <path clip-path="url(#p1c612c0ec5)" d="M 80.04 240.385194 
L 80.04 232.343785 
" style="fill:none;stroke:#3d3d3d;stroke-linecap:square;stroke-width:4.5;"/>
   </g>
   <g id="line2d_12">
    <path clip-path="url(#p1c612c0ec5)" d="M 221.4 242.116364 
L 221.4 221.726056 
" style="fill:none;stroke:#3d3d3d;stroke-linecap:square;stroke-width:1.5;"/>
   </g>
   <g id="line2d_13">
    <path clip-path="url(#p1c612c0ec5)" d="M 221.4 240.467221 
L 221.4 232.872927 
" style="fill:none;stroke:#3d3d3d;stroke-linecap:square;stroke-width:4.5;"/>
   </g>
   <g id="line2d_14">
    <path clip-path="url(#p1c612c0ec5)" d="M 362.76 242.115848 
L 362.76 219.860593 
" style="fill:none;stroke:#3d3d3d;stroke-linecap:square;stroke-width:1.5;"/>
   </g>
   <g id="line2d_15">
    <path clip-path="url(#p1c612c0ec5)" d="M 362.76 240.400176 
L 362.76 232.054301 
" style="fill:none;stroke:#3d3d3d;stroke-linecap:square;stroke-width:4.5;"/>
   </g>
   <g id="patch_6">
    <path d="M 54 252 
L 54 34.56 
" style="fill:none;stroke:#000000;stroke-linecap:square;stroke-linejoin:miter;stroke-width:0.8;"/>
   </g>
   <g id="patch_7">
    <path d="M 388.8 252 
L 388.8 34.56 
" style="fill:none;stroke:#000000;stroke-linecap:square;stroke-linejoin:miter;stroke-width:0.8;"/>
   </g>
   <g id="patch_8">
    <path d="M 54 252 
L 388.8 252 
" style="fill:none;stroke:#000000;stroke-linecap:square;stroke-linejoin:miter;stroke-width:0.8;"/>
   </g>
   <g id="patch_9">
    <path d="M 54 34.56 
L 388.8 34.56 
" style="fill:none;stroke:#000000;stroke-linecap:square;stroke-linejoin:miter;stroke-width:0.8;"/>
   </g>
   <g id="PathCollection_1">
    <defs>
     <path d="M 0 1.5 
C 0.397805 1.5 0.77937 1.341951 1.06066 1.06066 
C 1.341951 0.77937 1.5 0.397805 1.5 0 
C 1.5 -0.397805 1.341951 -0.77937 1.06066 -1.06066 
C 0.77937 -1.341951 0.397805 -1.5 0 -1.5 
C -0.397805 -1.5 -0.77937 -1.341951 -1.06066 -1.06066 
C -1.341951 -0.77937 -1.5 -0.397805 -1.5 0 
C -1.5 0.397805 -1.341951 0.77937 -1.06066 1.06066 
C -0.77937 1.341951 -0.397805 1.5 0 1.5 
z
" id="m991434b3bf" style="stroke:#3d3d3d;"/>
    </defs>
    <g clip-path="url(#p1c612c0ec5)">
     <use style="fill:#ffffff;stroke:#3d3d3d;" x="80.04" xlink:href="#m991434b3bf" y="237.945376"/>
    </g>
   </g>
   <g id="PathCollection_2">
    <g clip-path="url(#p1c612c0ec5)">
     <use style="fill:#ffffff;stroke:#3d3d3d;" x="221.4" xlink:href="#m991434b3bf" y="238.075471"/>
    </g>
   </g>
   <g id="PathCollection_3">
    <g clip-path="url(#p1c612c0ec5)">
     <use style="fill:#ffffff;stroke:#3d3d3d;" x="362.76" xlink:href="#m991434b3bf" y="238.046586"/>
    </g>
   </g>
   <g id="legend_1">
    <g id="patch_10">
     <path d="M 326.525 101.2725 
L 381.8 101.2725 
Q 383.8 101.2725 383.8 99.2725 
L 383.8 41.56 
Q 383.8 39.56 381.8 39.56 
L 326.525 39.56 
Q 324.525 39.56 324.525 41.56 
L 324.525 99.2725 
Q 324.525 101.2725 326.525 101.2725 
z
" style="fill:#ffffff;opacity:0.8;stroke:#cccccc;stroke-linejoin:miter;"/>
    </g>
    <g id="text_12">
     <!-- set -->
     <g transform="translate(346.521094 51.158437)scale(0.1 -0.1)">
      <use xlink:href="#DejaVuSans-115"/>
      <use x="52.099609" xlink:href="#DejaVuSans-101"/>
      <use x="113.623047" xlink:href="#DejaVuSans-116"/>
     </g>
    </g>
    <g id="patch_11">
     <path d="M 328.525 65.836562 
L 348.525 65.836562 
L 348.525 58.836562 
L 328.525 58.836562 
z
" style="fill:#3274a1;stroke:#3d3d3d;stroke-linejoin:miter;stroke-width:0.75;"/>
    </g>
    <g id="text_13">
     <!-- train -->
     <g transform="translate(356.525 65.836562)scale(0.1 -0.1)">
      <use xlink:href="#DejaVuSans-116"/>
      <use x="39.208984" xlink:href="#DejaVuSans-114"/>
      <use x="80.322266" xlink:href="#DejaVuSans-97"/>
      <use x="141.601562" xlink:href="#DejaVuSans-105"/>
      <use x="169.384766" xlink:href="#DejaVuSans-110"/>
     </g>
    </g>
    <g id="patch_12">
     <path d="M 328.525 80.514687 
L 348.525 80.514687 
L 348.525 73.514687 
L 328.525 73.514687 
z
" style="fill:#e1812c;stroke:#3d3d3d;stroke-linejoin:miter;stroke-width:0.75;"/>
    </g>
    <g id="text_14">
     <!-- val -->
     <g transform="translate(356.525 80.514687)scale(0.1 -0.1)">
      <use xlink:href="#DejaVuSans-118"/>
      <use x="59.179688" xlink:href="#DejaVuSans-97"/>
      <use x="120.458984" xlink:href="#DejaVuSans-108"/>
     </g>
    </g>
    <g id="patch_13">
     <path d="M 328.525 95.192813 
L 348.525 95.192813 
L 348.525 88.192813 
L 328.525 88.192813 
z
" style="fill:#3a923a;stroke:#3d3d3d;stroke-linejoin:miter;stroke-width:0.75;"/>
    </g>
    <g id="text_15">
     <!-- test -->
     <g transform="translate(356.525 95.192813)scale(0.1 -0.1)">
      <use xlink:href="#DejaVuSans-116"/>
      <use x="39.208984" xlink:href="#DejaVuSans-101"/>
      <use x="100.732422" xlink:href="#DejaVuSans-115"/>
      <use x="152.832031" xlink:href="#DejaVuSans-116"/>
     </g>
    </g>
   </g>
  </g>
 </g>
 <defs>
  <clipPath id="p1c612c0ec5">
   <rect height="217.44" width="334.8" x="54" y="34.56"/>
  </clipPath>
 </defs>
</svg>
