<?xml version="1.0" encoding="utf-8" standalone="no"?>
<!DOCTYPE svg PUBLIC "-//W3C//DTD SVG 1.1//EN"
  "http://www.w3.org/Graphics/SVG/1.1/DTD/svg11.dtd">
<!-- Created with matplotlib (https://matplotlib.org/) -->
<svg height="288pt" version="1.1" viewBox="0 0 432 288" width="432pt" xmlns="http://www.w3.org/2000/svg" xmlns:xlink="http://www.w3.org/1999/xlink">
 <metadata>
  <rdf:RDF xmlns:cc="http://creativecommons.org/ns#" xmlns:dc="http://purl.org/dc/elements/1.1/" xmlns:rdf="http://www.w3.org/1999/02/22-rdf-syntax-ns#">
   <cc:Work>
    <dc:type rdf:resource="http://purl.org/dc/dcmitype/StillImage"/>
    <dc:date>2022-05-02T16:34:25.894375</dc:date>
    <dc:format>image/svg+xml</dc:format>
    <dc:creator>
     <cc:Agent>
      <dc:title>Matplotlib v3.3.4, https://matplotlib.org/</dc:title>
     </cc:Agent>
    </dc:creator>
   </cc:Work>
  </rdf:RDF>
 </metadata>
 <defs>
  <style type="text/css">*{stroke-linecap:butt;stroke-linejoin:round;}</style>
 </defs>
 <g id="figure_1">
  <g id="patch_1">
   <path d="M 0 288 
L 432 288 
L 432 0 
L 0 0 
z
" style="fill:#ffffff;"/>
  </g>
  <g id="axes_1">
   <g id="patch_2">
    <path d="M 54 252 
L 388.8 252 
L 388.8 34.56 
L 54 34.56 
z
" style="fill:#ffffff;"/>
   </g>
   <g id="PolyCollection_1">
    <defs>
     <path d="M 94.92 -45.883995 
L 65.16 -45.883995 
L 73.167202 -47.880686 
L 78.96194 -49.877376 
L 79.72765 -51.874067 
L 79.917358 -53.870758 
L 79.98554 -55.867448 
L 80.00327 -57.864139 
L 80.015266 -59.860829 
L 80.008799 -61.85752 
L 80.021509 -63.854211 
L 80.035242 -65.850901 
L 80.037737 -67.847592 
L 80.031023 -69.844282 
L 80.01861 -71.840973 
L 80.014678 -73.837664 
L 80.024983 -75.834354 
L 80.035608 -77.831045 
L 80.03969 -79.827735 
L 80.03669 -81.824426 
L 80.035248 -83.821116 
L 80.03961 -85.817807 
L 80.039201 -87.814498 
L 80.034425 -89.811188 
L 80.036704 -91.807879 
L 80.034181 -93.804569 
L 80.038317 -95.80126 
L 80.039972 -97.797951 
L 80.04 -99.794641 
L 80.04 -101.791332 
L 80.04 -103.788022 
L 80.04 -105.784713 
L 80.04 -107.781404 
L 80.04 -109.778094 
L 80.04 -111.774785 
L 80.04 -113.771475 
L 80.04 -115.768166 
L 80.04 -117.764856 
L 80.04 -119.761547 
L 80.04 -121.758238 
L 80.04 -123.754928 
L 80.04 -125.751619 
L 80.04 -127.748309 
L 80.04 -129.745 
L 80.04 -131.741691 
L 80.04 -133.738381 
L 80.04 -135.735072 
L 80.04 -137.731762 
L 80.04 -139.728453 
L 80.04 -141.725144 
L 80.04 -143.721834 
L 80.04 -145.718525 
L 80.039999 -147.715215 
L 80.039753 -149.711906 
L 80.035835 -151.708597 
L 80.036052 -153.705287 
L 80.03979 -155.701978 
L 80.039999 -157.698668 
L 80.04 -159.695359 
L 80.04 -161.692049 
L 80.04 -163.68874 
L 80.04 -165.685431 
L 80.04 -167.682121 
L 80.04 -169.678812 
L 80.04 -171.675502 
L 80.04 -173.672193 
L 80.04 -175.668884 
L 80.04 -177.665574 
L 80.04 -179.662265 
L 80.04 -181.658955 
L 80.04 -183.655646 
L 80.04 -185.652337 
L 80.04 -187.649027 
L 80.04 -189.645718 
L 80.04 -191.642408 
L 80.04 -193.639099 
L 80.04 -195.635789 
L 80.04 -197.63248 
L 80.04 -199.629171 
L 80.04 -201.625861 
L 80.04 -203.622552 
L 80.04 -205.619242 
L 80.04 -207.615933 
L 80.04 -209.612624 
L 80.04 -211.609314 
L 80.04 -213.606005 
L 80.04 -215.602695 
L 80.04 -217.599386 
L 80.04 -219.596077 
L 80.04 -221.592767 
L 80.04 -223.589458 
L 80.04 -225.586148 
L 80.04 -227.582839 
L 80.04 -229.57953 
L 80.04 -231.57622 
L 80.039891 -233.572911 
L 80.036909 -235.569601 
L 80.035065 -237.566292 
L 80.039539 -239.562982 
L 80.038619 -241.559673 
L 80.034186 -243.556364 
L 80.045814 -243.556364 
L 80.045814 -243.556364 
L 80.041381 -241.559673 
L 80.040461 -239.562982 
L 80.044935 -237.566292 
L 80.043091 -235.569601 
L 80.040109 -233.572911 
L 80.04 -231.57622 
L 80.04 -229.57953 
L 80.04 -227.582839 
L 80.04 -225.586148 
L 80.04 -223.589458 
L 80.04 -221.592767 
L 80.04 -219.596077 
L 80.04 -217.599386 
L 80.04 -215.602695 
L 80.04 -213.606005 
L 80.04 -211.609314 
L 80.04 -209.612624 
L 80.04 -207.615933 
L 80.04 -205.619242 
L 80.04 -203.622552 
L 80.04 -201.625861 
L 80.04 -199.629171 
L 80.04 -197.63248 
L 80.04 -195.635789 
L 80.04 -193.639099 
L 80.04 -191.642408 
L 80.04 -189.645718 
L 80.04 -187.649027 
L 80.04 -185.652337 
L 80.04 -183.655646 
L 80.04 -181.658955 
L 80.04 -179.662265 
L 80.04 -177.665574 
L 80.04 -175.668884 
L 80.04 -173.672193 
L 80.04 -171.675502 
L 80.04 -169.678812 
L 80.04 -167.682121 
L 80.04 -165.685431 
L 80.04 -163.68874 
L 80.04 -161.692049 
L 80.04 -159.695359 
L 80.040001 -157.698668 
L 80.04021 -155.701978 
L 80.043948 -153.705287 
L 80.044165 -151.708597 
L 80.040247 -149.711906 
L 80.040001 -147.715215 
L 80.04 -145.718525 
L 80.04 -143.721834 
L 80.04 -141.725144 
L 80.04 -139.728453 
L 80.04 -137.731762 
L 80.04 -135.735072 
L 80.04 -133.738381 
L 80.04 -131.741691 
L 80.04 -129.745 
L 80.04 -127.748309 
L 80.04 -125.751619 
L 80.04 -123.754928 
L 80.04 -121.758238 
L 80.04 -119.761547 
L 80.04 -117.764856 
L 80.04 -115.768166 
L 80.04 -113.771475 
L 80.04 -111.774785 
L 80.04 -109.778094 
L 80.04 -107.781404 
L 80.04 -105.784713 
L 80.04 -103.788022 
L 80.04 -101.791332 
L 80.04 -99.794641 
L 80.040028 -97.797951 
L 80.041683 -95.80126 
L 80.045819 -93.804569 
L 80.043296 -91.807879 
L 80.045575 -89.811188 
L 80.040799 -87.814498 
L 80.04039 -85.817807 
L 80.044752 -83.821116 
L 80.04331 -81.824426 
L 80.04031 -79.827735 
L 80.044392 -77.831045 
L 80.055017 -75.834354 
L 80.065322 -73.837664 
L 80.06139 -71.840973 
L 80.048977 -69.844282 
L 80.042263 -67.847592 
L 80.044758 -65.850901 
L 80.058491 -63.854211 
L 80.071201 -61.85752 
L 80.064734 -59.860829 
L 80.07673 -57.864139 
L 80.09446 -55.867448 
L 80.162642 -53.870758 
L 80.35235 -51.874067 
L 81.11806 -49.877376 
L 86.912798 -47.880686 
L 94.92 -45.883995 
z
" id="m2d5ca6edf7" style="stroke:#3d3d3d;stroke-width:1.5;"/>
    </defs>
    <g clip-path="url(#pa6717aa1ad)">
     <use style="fill:#3274a1;stroke:#3d3d3d;stroke-width:1.5;" x="0" xlink:href="#m2d5ca6edf7" y="288"/>
    </g>
   </g>
   <g id="PolyCollection_2">
    <defs>
     <path d="M 236.000055 -45.884706 
L 206.799945 -45.884706 
L 206.52 -46.202003 
L 209.667941 -46.519301 
L 213.695097 -46.836598 
L 216.628705 -47.153895 
L 218.242039 -47.471193 
L 219.096346 -47.78849 
L 219.631171 -48.105788 
L 220.030529 -48.423085 
L 220.344996 -48.740382 
L 220.565357 -49.05768 
L 220.682105 -49.374977 
L 220.730517 -49.692274 
L 220.769906 -50.009572 
L 220.832777 -50.326869 
L 220.914179 -50.644167 
L 220.994904 -50.961464 
L 221.061623 -51.278761 
L 221.116633 -51.596059 
L 221.171138 -51.913356 
L 221.225114 -52.230653 
L 221.263441 -52.547951 
L 221.275896 -52.865248 
L 221.270625 -53.182546 
L 221.262689 -53.499843 
L 221.25924 -53.81714 
L 221.263648 -54.134438 
L 221.279103 -54.451735 
L 221.298662 -54.769033 
L 221.309707 -55.08633 
L 221.312226 -55.403627 
L 221.315815 -55.720925 
L 221.322607 -56.038222 
L 221.327301 -56.355519 
L 221.327395 -56.672817 
L 221.324669 -56.990114 
L 221.323564 -57.307412 
L 221.330553 -57.624709 
L 221.346998 -57.942006 
L 221.364299 -58.259304 
L 221.373193 -58.576601 
L 221.373852 -58.893898 
L 221.371735 -59.211196 
L 221.368606 -59.528493 
L 221.363802 -59.845791 
L 221.360519 -60.163088 
L 221.363918 -60.480385 
L 221.374201 -60.797683 
L 221.386025 -61.11498 
L 221.394332 -61.432277 
L 221.398036 -61.749575 
L 221.39823 -62.066872 
L 221.395316 -62.38417 
L 221.38925 -62.701467 
L 221.382291 -63.018764 
L 221.379273 -63.336062 
L 221.38276 -63.653359 
L 221.389725 -63.970656 
L 221.395134 -64.287954 
L 221.396317 -64.605251 
L 221.392886 -64.922549 
L 221.386177 -65.239846 
L 221.38029 -65.557143 
L 221.379992 -65.874441 
L 221.385574 -66.191738 
L 221.392614 -66.509035 
L 221.397314 -66.826333 
L 221.399307 -67.14363 
L 221.399873 -67.460928 
L 221.399983 -67.778225 
L 221.399998 -68.095522 
L 221.4 -68.41282 
L 221.4 -68.730117 
L 221.4 -69.047415 
L 221.4 -69.364712 
L 221.4 -69.682009 
L 221.4 -69.999307 
L 221.4 -70.316604 
L 221.4 -70.633901 
L 221.4 -70.951199 
L 221.4 -71.268496 
L 221.4 -71.585794 
L 221.4 -71.903091 
L 221.4 -72.220388 
L 221.4 -72.537686 
L 221.4 -72.854983 
L 221.4 -73.17228 
L 221.4 -73.489578 
L 221.4 -73.806875 
L 221.4 -74.124173 
L 221.4 -74.44147 
L 221.4 -74.758767 
L 221.399995 -75.076065 
L 221.399956 -75.393362 
L 221.399713 -75.710659 
L 221.398659 -76.027957 
L 221.395557 -76.345254 
L 221.389545 -76.662552 
L 221.38253 -76.979849 
L 221.379268 -77.297146 
L 221.420732 -77.297146 
L 221.420732 -77.297146 
L 221.41747 -76.979849 
L 221.410455 -76.662552 
L 221.404443 -76.345254 
L 221.401341 -76.027957 
L 221.400287 -75.710659 
L 221.400044 -75.393362 
L 221.400005 -75.076065 
L 221.4 -74.758767 
L 221.4 -74.44147 
L 221.4 -74.124173 
L 221.4 -73.806875 
L 221.4 -73.489578 
L 221.4 -73.17228 
L 221.4 -72.854983 
L 221.4 -72.537686 
L 221.4 -72.220388 
L 221.4 -71.903091 
L 221.4 -71.585794 
L 221.4 -71.268496 
L 221.4 -70.951199 
L 221.4 -70.633901 
L 221.4 -70.316604 
L 221.4 -69.999307 
L 221.4 -69.682009 
L 221.4 -69.364712 
L 221.4 -69.047415 
L 221.4 -68.730117 
L 221.4 -68.41282 
L 221.400002 -68.095522 
L 221.400017 -67.778225 
L 221.400127 -67.460928 
L 221.400693 -67.14363 
L 221.402686 -66.826333 
L 221.407386 -66.509035 
L 221.414426 -66.191738 
L 221.420008 -65.874441 
L 221.41971 -65.557143 
L 221.413823 -65.239846 
L 221.407114 -64.922549 
L 221.403683 -64.605251 
L 221.404866 -64.287954 
L 221.410275 -63.970656 
L 221.41724 -63.653359 
L 221.420727 -63.336062 
L 221.417709 -63.018764 
L 221.41075 -62.701467 
L 221.404684 -62.38417 
L 221.40177 -62.066872 
L 221.401964 -61.749575 
L 221.405668 -61.432277 
L 221.413975 -61.11498 
L 221.425799 -60.797683 
L 221.436082 -60.480385 
L 221.439481 -60.163088 
L 221.436198 -59.845791 
L 221.431394 -59.528493 
L 221.428265 -59.211196 
L 221.426148 -58.893898 
L 221.426807 -58.576601 
L 221.435701 -58.259304 
L 221.453002 -57.942006 
L 221.469447 -57.624709 
L 221.476436 -57.307412 
L 221.475331 -56.990114 
L 221.472605 -56.672817 
L 221.472699 -56.355519 
L 221.477393 -56.038222 
L 221.484185 -55.720925 
L 221.487774 -55.403627 
L 221.490293 -55.08633 
L 221.501338 -54.769033 
L 221.520897 -54.451735 
L 221.536352 -54.134438 
L 221.54076 -53.81714 
L 221.537311 -53.499843 
L 221.529375 -53.182546 
L 221.524104 -52.865248 
L 221.536559 -52.547951 
L 221.574886 -52.230653 
L 221.628862 -51.913356 
L 221.683367 -51.596059 
L 221.738377 -51.278761 
L 221.805096 -50.961464 
L 221.885821 -50.644167 
L 221.967223 -50.326869 
L 222.030094 -50.009572 
L 222.069483 -49.692274 
L 222.117895 -49.374977 
L 222.234643 -49.05768 
L 222.455004 -48.740382 
L 222.769471 -48.423085 
L 223.168829 -48.105788 
L 223.703654 -47.78849 
L 224.557961 -47.471193 
L 226.171295 -47.153895 
L 229.104903 -46.836598 
L 233.132059 -46.519301 
L 236.28 -46.202003 
L 236.000055 -45.884706 
z
" id="mc72d903a38" style="stroke:#3d3d3d;stroke-width:1.5;"/>
    </defs>
    <g clip-path="url(#pa6717aa1ad)">
     <use style="fill:#e1812c;stroke:#3d3d3d;stroke-width:1.5;" x="0" xlink:href="#mc72d903a38" y="288"/>
    </g>
   </g>
   <g id="PolyCollection_3">
    <defs>
     <path d="M 377.64 -45.883636 
L 347.88 -45.883636 
L 348.799401 -46.630806 
L 354.438051 -47.377976 
L 358.876087 -48.125146 
L 360.848606 -48.872316 
L 361.649705 -49.619486 
L 362.050852 -50.366656 
L 362.25254 -51.113826 
L 362.372893 -51.860996 
L 362.488535 -52.608165 
L 362.576791 -53.355335 
L 362.623466 -54.102505 
L 362.650774 -54.849675 
L 362.669179 -55.596845 
L 362.68444 -56.344015 
L 362.702907 -57.091185 
L 362.714307 -57.838355 
L 362.715489 -58.585525 
L 362.721854 -59.332695 
L 362.73167 -60.079864 
L 362.735532 -60.827034 
L 362.73692 -61.574204 
L 362.734618 -62.321374 
L 362.728036 -63.068544 
L 362.72135 -63.815714 
L 362.721181 -64.562884 
L 362.731654 -65.310054 
L 362.740868 -66.057224 
L 362.740622 -66.804394 
L 362.741922 -67.551563 
L 362.750121 -68.298733 
L 362.757108 -69.045903 
L 362.759552 -69.793073 
L 362.759963 -70.540243 
L 362.759998 -71.287413 
L 362.76 -72.034583 
L 362.76 -72.781753 
L 362.759999 -73.528923 
L 362.759978 -74.276093 
L 362.759695 -75.023262 
L 362.757716 -75.770432 
L 362.750483 -76.517602 
L 362.736312 -77.264772 
L 362.720911 -78.011942 
L 362.714579 -78.759112 
L 362.724785 -79.506282 
L 362.743463 -80.253452 
L 362.755589 -81.000622 
L 362.759352 -81.747792 
L 362.759948 -82.494961 
L 362.759998 -83.242131 
L 362.76 -83.989301 
L 362.76 -84.736471 
L 362.76 -85.483641 
L 362.76 -86.230811 
L 362.76 -86.977981 
L 362.76 -87.725151 
L 362.759997 -88.472321 
L 362.759947 -89.219491 
L 362.759405 -89.96666 
L 362.756473 -90.71383 
L 362.748948 -91.461 
L 362.741691 -92.20817 
L 362.743966 -92.95534 
L 362.752577 -93.70251 
L 362.758183 -94.44968 
L 362.759765 -95.19685 
L 362.759984 -95.94402 
L 362.759999 -96.69119 
L 362.76 -97.438359 
L 362.76 -98.185529 
L 362.76 -98.932699 
L 362.76 -99.679869 
L 362.76 -100.427039 
L 362.76 -101.174209 
L 362.76 -101.921379 
L 362.76 -102.668549 
L 362.76 -103.415719 
L 362.76 -104.162889 
L 362.76 -104.910059 
L 362.76 -105.657228 
L 362.76 -106.404398 
L 362.76 -107.151568 
L 362.76 -107.898738 
L 362.76 -108.645908 
L 362.76 -109.393078 
L 362.76 -110.140248 
L 362.76 -110.887418 
L 362.76 -111.634588 
L 362.76 -112.381758 
L 362.76 -113.128927 
L 362.76 -113.876097 
L 362.76 -114.623267 
L 362.76 -115.370437 
L 362.759993 -116.117607 
L 362.759885 -116.864777 
L 362.758932 -117.611947 
L 362.754743 -118.359117 
L 362.746321 -119.106287 
L 362.741187 -119.853457 
L 362.778813 -119.853457 
L 362.778813 -119.853457 
L 362.773679 -119.106287 
L 362.765257 -118.359117 
L 362.761068 -117.611947 
L 362.760115 -116.864777 
L 362.760007 -116.117607 
L 362.76 -115.370437 
L 362.76 -114.623267 
L 362.76 -113.876097 
L 362.76 -113.128927 
L 362.76 -112.381758 
L 362.76 -111.634588 
L 362.76 -110.887418 
L 362.76 -110.140248 
L 362.76 -109.393078 
L 362.76 -108.645908 
L 362.76 -107.898738 
L 362.76 -107.151568 
L 362.76 -106.404398 
L 362.76 -105.657228 
L 362.76 -104.910059 
L 362.76 -104.162889 
L 362.76 -103.415719 
L 362.76 -102.668549 
L 362.76 -101.921379 
L 362.76 -101.174209 
L 362.76 -100.427039 
L 362.76 -99.679869 
L 362.76 -98.932699 
L 362.76 -98.185529 
L 362.76 -97.438359 
L 362.760001 -96.69119 
L 362.760016 -95.94402 
L 362.760235 -95.19685 
L 362.761817 -94.44968 
L 362.767423 -93.70251 
L 362.776034 -92.95534 
L 362.778309 -92.20817 
L 362.771052 -91.461 
L 362.763527 -90.71383 
L 362.760595 -89.96666 
L 362.760053 -89.219491 
L 362.760003 -88.472321 
L 362.76 -87.725151 
L 362.76 -86.977981 
L 362.76 -86.230811 
L 362.76 -85.483641 
L 362.76 -84.736471 
L 362.76 -83.989301 
L 362.760002 -83.242131 
L 362.760052 -82.494961 
L 362.760648 -81.747792 
L 362.764411 -81.000622 
L 362.776537 -80.253452 
L 362.795215 -79.506282 
L 362.805421 -78.759112 
L 362.799089 -78.011942 
L 362.783688 -77.264772 
L 362.769517 -76.517602 
L 362.762284 -75.770432 
L 362.760305 -75.023262 
L 362.760022 -74.276093 
L 362.760001 -73.528923 
L 362.76 -72.781753 
L 362.76 -72.034583 
L 362.760002 -71.287413 
L 362.760037 -70.540243 
L 362.760448 -69.793073 
L 362.762892 -69.045903 
L 362.769879 -68.298733 
L 362.778078 -67.551563 
L 362.779378 -66.804394 
L 362.779132 -66.057224 
L 362.788346 -65.310054 
L 362.798819 -64.562884 
L 362.79865 -63.815714 
L 362.791964 -63.068544 
L 362.785382 -62.321374 
L 362.78308 -61.574204 
L 362.784468 -60.827034 
L 362.78833 -60.079864 
L 362.798146 -59.332695 
L 362.804511 -58.585525 
L 362.805693 -57.838355 
L 362.817093 -57.091185 
L 362.83556 -56.344015 
L 362.850821 -55.596845 
L 362.869226 -54.849675 
L 362.896534 -54.102505 
L 362.943209 -53.355335 
L 363.031465 -52.608165 
L 363.147107 -51.860996 
L 363.26746 -51.113826 
L 363.469148 -50.366656 
L 363.870295 -49.619486 
L 364.671394 -48.872316 
L 366.643913 -48.125146 
L 371.081949 -47.377976 
L 376.720599 -46.630806 
L 377.64 -45.883636 
z
" id="meb0722ec82" style="stroke:#3d3d3d;stroke-width:1.5;"/>
    </defs>
    <g clip-path="url(#pa6717aa1ad)">
     <use style="fill:#3a923a;stroke:#3d3d3d;stroke-width:1.5;" x="0" xlink:href="#meb0722ec82" y="288"/>
    </g>
   </g>
   <g id="patch_3">
    <path clip-path="url(#pa6717aa1ad)" d="M 109.8 242.235943 
L 109.8 242.235943 
L 109.8 242.235943 
L 109.8 242.235943 
z
" style="fill:#3274a1;stroke:#3d3d3d;stroke-linejoin:miter;stroke-width:0.75;"/>
   </g>
   <g id="patch_4">
    <path clip-path="url(#pa6717aa1ad)" d="M 109.8 242.235943 
L 109.8 242.235943 
L 109.8 242.235943 
L 109.8 242.235943 
z
" style="fill:#e1812c;stroke:#3d3d3d;stroke-linejoin:miter;stroke-width:0.75;"/>
   </g>
   <g id="patch_5">
    <path clip-path="url(#pa6717aa1ad)" d="M 109.8 242.235943 
L 109.8 242.235943 
L 109.8 242.235943 
L 109.8 242.235943 
z
" style="fill:#3a923a;stroke:#3d3d3d;stroke-linejoin:miter;stroke-width:0.75;"/>
   </g>
   <g id="matplotlib.axis_1">
    <g id="xtick_1">
     <g id="line2d_1">
      <defs>
       <path d="M 0 0 
L 0 3.5 
" id="m35a3b5a26e" style="stroke:#000000;stroke-width:0.8;"/>
      </defs>
      <g>
       <use style="stroke:#000000;stroke-width:0.8;" x="109.8" xlink:href="#m35a3b5a26e" y="252"/>
      </g>
     </g>
     <g id="text_1">
      <!-- train -->
      <g transform="translate(98.1625 266.598437)scale(0.1 -0.1)">
       <defs>
        <path d="M 18.3125 70.21875 
L 18.3125 54.6875 
L 36.8125 54.6875 
L 36.8125 47.703125 
L 18.3125 47.703125 
L 18.3125 18.015625 
Q 18.3125 11.328125 20.140625 9.421875 
Q 21.96875 7.515625 27.59375 7.515625 
L 36.8125 7.515625 
L 36.8125 0 
L 27.59375 0 
Q 17.1875 0 13.234375 3.875 
Q 9.28125 7.765625 9.28125 18.015625 
L 9.28125 47.703125 
L 2.6875 47.703125 
L 2.6875 54.6875 
L 9.28125 54.6875 
L 9.28125 70.21875 
z
" id="DejaVuSans-116"/>
        <path d="M 41.109375 46.296875 
Q 39.59375 47.171875 37.8125 47.578125 
Q 36.03125 48 33.890625 48 
Q 26.265625 48 22.1875 43.046875 
Q 18.109375 38.09375 18.109375 28.8125 
L 18.109375 0 
L 9.078125 0 
L 9.078125 54.6875 
L 18.109375 54.6875 
L 18.109375 46.1875 
Q 20.953125 51.171875 25.484375 53.578125 
Q 30.03125 56 36.53125 56 
Q 37.453125 56 38.578125 55.875 
Q 39.703125 55.765625 41.0625 55.515625 
z
" id="DejaVuSans-114"/>
        <path d="M 34.28125 27.484375 
Q 23.390625 27.484375 19.1875 25 
Q 14.984375 22.515625 14.984375 16.5 
Q 14.984375 11.71875 18.140625 8.90625 
Q 21.296875 6.109375 26.703125 6.109375 
Q 34.1875 6.109375 38.703125 11.40625 
Q 43.21875 16.703125 43.21875 25.484375 
L 43.21875 27.484375 
z
M 52.203125 31.203125 
L 52.203125 0 
L 43.21875 0 
L 43.21875 8.296875 
Q 40.140625 3.328125 35.546875 0.953125 
Q 30.953125 -1.421875 24.3125 -1.421875 
Q 15.921875 -1.421875 10.953125 3.296875 
Q 6 8.015625 6 15.921875 
Q 6 25.140625 12.171875 29.828125 
Q 18.359375 34.515625 30.609375 34.515625 
L 43.21875 34.515625 
L 43.21875 35.40625 
Q 43.21875 41.609375 39.140625 45 
Q 35.0625 48.390625 27.6875 48.390625 
Q 23 48.390625 18.546875 47.265625 
Q 14.109375 46.140625 10.015625 43.890625 
L 10.015625 52.203125 
Q 14.9375 54.109375 19.578125 55.046875 
Q 24.21875 56 28.609375 56 
Q 40.484375 56 46.34375 49.84375 
Q 52.203125 43.703125 52.203125 31.203125 
z
" id="DejaVuSans-97"/>
        <path d="M 9.421875 54.6875 
L 18.40625 54.6875 
L 18.40625 0 
L 9.421875 0 
z
M 9.421875 75.984375 
L 18.40625 75.984375 
L 18.40625 64.59375 
L 9.421875 64.59375 
z
" id="DejaVuSans-105"/>
        <path d="M 54.890625 33.015625 
L 54.890625 0 
L 45.90625 0 
L 45.90625 32.71875 
Q 45.90625 40.484375 42.875 44.328125 
Q 39.84375 48.1875 33.796875 48.1875 
Q 26.515625 48.1875 22.3125 43.546875 
Q 18.109375 38.921875 18.109375 30.90625 
L 18.109375 0 
L 9.078125 0 
L 9.078125 54.6875 
L 18.109375 54.6875 
L 18.109375 46.1875 
Q 21.34375 51.125 25.703125 53.5625 
Q 30.078125 56 35.796875 56 
Q 45.21875 56 50.046875 50.171875 
Q 54.890625 44.34375 54.890625 33.015625 
z
" id="DejaVuSans-110"/>
       </defs>
       <use xlink:href="#DejaVuSans-116"/>
       <use x="39.208984" xlink:href="#DejaVuSans-114"/>
       <use x="80.322266" xlink:href="#DejaVuSans-97"/>
       <use x="141.601562" xlink:href="#DejaVuSans-105"/>
       <use x="169.384766" xlink:href="#DejaVuSans-110"/>
      </g>
     </g>
    </g>
    <g id="xtick_2">
     <g id="line2d_2">
      <g>
       <use style="stroke:#000000;stroke-width:0.8;" x="221.4" xlink:href="#m35a3b5a26e" y="252"/>
      </g>
     </g>
     <g id="text_2">
      <!-- val -->
      <g transform="translate(213.9875 266.598437)scale(0.1 -0.1)">
       <defs>
        <path d="M 2.984375 54.6875 
L 12.5 54.6875 
L 29.59375 8.796875 
L 46.6875 54.6875 
L 56.203125 54.6875 
L 35.6875 0 
L 23.484375 0 
z
" id="DejaVuSans-118"/>
        <path d="M 9.421875 75.984375 
L 18.40625 75.984375 
L 18.40625 0 
L 9.421875 0 
z
" id="DejaVuSans-108"/>
       </defs>
       <use xlink:href="#DejaVuSans-118"/>
       <use x="59.179688" xlink:href="#DejaVuSans-97"/>
       <use x="120.458984" xlink:href="#DejaVuSans-108"/>
      </g>
     </g>
    </g>
    <g id="xtick_3">
     <g id="line2d_3">
      <g>
       <use style="stroke:#000000;stroke-width:0.8;" x="333" xlink:href="#m35a3b5a26e" y="252"/>
      </g>
     </g>
     <g id="text_3">
      <!-- test -->
      <g transform="translate(323.398438 266.598437)scale(0.1 -0.1)">
       <defs>
        <path d="M 56.203125 29.59375 
L 56.203125 25.203125 
L 14.890625 25.203125 
Q 15.484375 15.921875 20.484375 11.0625 
Q 25.484375 6.203125 34.421875 6.203125 
Q 39.59375 6.203125 44.453125 7.46875 
Q 49.3125 8.734375 54.109375 11.28125 
L 54.109375 2.78125 
Q 49.265625 0.734375 44.1875 -0.34375 
Q 39.109375 -1.421875 33.890625 -1.421875 
Q 20.796875 -1.421875 13.15625 6.1875 
Q 5.515625 13.8125 5.515625 26.8125 
Q 5.515625 40.234375 12.765625 48.109375 
Q 20.015625 56 32.328125 56 
Q 43.359375 56 49.78125 48.890625 
Q 56.203125 41.796875 56.203125 29.59375 
z
M 47.21875 32.234375 
Q 47.125 39.59375 43.09375 43.984375 
Q 39.0625 48.390625 32.421875 48.390625 
Q 24.90625 48.390625 20.390625 44.140625 
Q 15.875 39.890625 15.1875 32.171875 
z
" id="DejaVuSans-101"/>
        <path d="M 44.28125 53.078125 
L 44.28125 44.578125 
Q 40.484375 46.53125 36.375 47.5 
Q 32.28125 48.484375 27.875 48.484375 
Q 21.1875 48.484375 17.84375 46.4375 
Q 14.5 44.390625 14.5 40.28125 
Q 14.5 37.15625 16.890625 35.375 
Q 19.28125 33.59375 26.515625 31.984375 
L 29.59375 31.296875 
Q 39.15625 29.25 43.1875 25.515625 
Q 47.21875 21.78125 47.21875 15.09375 
Q 47.21875 7.46875 41.1875 3.015625 
Q 35.15625 -1.421875 24.609375 -1.421875 
Q 20.21875 -1.421875 15.453125 -0.5625 
Q 10.6875 0.296875 5.421875 2 
L 5.421875 11.28125 
Q 10.40625 8.6875 15.234375 7.390625 
Q 20.0625 6.109375 24.8125 6.109375 
Q 31.15625 6.109375 34.5625 8.28125 
Q 37.984375 10.453125 37.984375 14.40625 
Q 37.984375 18.0625 35.515625 20.015625 
Q 33.0625 21.96875 24.703125 23.78125 
L 21.578125 24.515625 
Q 13.234375 26.265625 9.515625 29.90625 
Q 5.8125 33.546875 5.8125 39.890625 
Q 5.8125 47.609375 11.28125 51.796875 
Q 16.75 56 26.8125 56 
Q 31.78125 56 36.171875 55.265625 
Q 40.578125 54.546875 44.28125 53.078125 
z
" id="DejaVuSans-115"/>
       </defs>
       <use xlink:href="#DejaVuSans-116"/>
       <use x="39.208984" xlink:href="#DejaVuSans-101"/>
       <use x="100.732422" xlink:href="#DejaVuSans-115"/>
       <use x="152.832031" xlink:href="#DejaVuSans-116"/>
      </g>
     </g>
    </g>
    <g id="text_4">
     <!-- set -->
     <g transform="translate(213.758594 280.276563)scale(0.1 -0.1)">
      <use xlink:href="#DejaVuSans-115"/>
      <use x="52.099609" xlink:href="#DejaVuSans-101"/>
      <use x="113.623047" xlink:href="#DejaVuSans-116"/>
     </g>
    </g>
   </g>
   <g id="matplotlib.axis_2">
    <g id="ytick_1">
     <g id="line2d_4">
      <defs>
       <path d="M 0 0 
L -3.5 0 
" id="mc9f41a203d" style="stroke:#000000;stroke-width:0.8;"/>
      </defs>
      <g>
       <use style="stroke:#000000;stroke-width:0.8;" x="54" xlink:href="#mc9f41a203d" y="242.235943"/>
      </g>
     </g>
     <g id="text_5">
      <!-- 0.0000 -->
      <g transform="translate(12.009375 246.035162)scale(0.1 -0.1)">
       <defs>
        <path d="M 31.78125 66.40625 
Q 24.171875 66.40625 20.328125 58.90625 
Q 16.5 51.421875 16.5 36.375 
Q 16.5 21.390625 20.328125 13.890625 
Q 24.171875 6.390625 31.78125 6.390625 
Q 39.453125 6.390625 43.28125 13.890625 
Q 47.125 21.390625 47.125 36.375 
Q 47.125 51.421875 43.28125 58.90625 
Q 39.453125 66.40625 31.78125 66.40625 
z
M 31.78125 74.21875 
Q 44.046875 74.21875 50.515625 64.515625 
Q 56.984375 54.828125 56.984375 36.375 
Q 56.984375 17.96875 50.515625 8.265625 
Q 44.046875 -1.421875 31.78125 -1.421875 
Q 19.53125 -1.421875 13.0625 8.265625 
Q 6.59375 17.96875 6.59375 36.375 
Q 6.59375 54.828125 13.0625 64.515625 
Q 19.53125 74.21875 31.78125 74.21875 
z
" id="DejaVuSans-48"/>
        <path d="M 10.6875 12.40625 
L 21 12.40625 
L 21 0 
L 10.6875 0 
z
" id="DejaVuSans-46"/>
       </defs>
       <use xlink:href="#DejaVuSans-48"/>
       <use x="63.623047" xlink:href="#DejaVuSans-46"/>
       <use x="95.410156" xlink:href="#DejaVuSans-48"/>
       <use x="159.033203" xlink:href="#DejaVuSans-48"/>
       <use x="222.65625" xlink:href="#DejaVuSans-48"/>
       <use x="286.279297" xlink:href="#DejaVuSans-48"/>
      </g>
     </g>
    </g>
    <g id="ytick_2">
     <g id="line2d_5">
      <g>
       <use style="stroke:#000000;stroke-width:0.8;" x="54" xlink:href="#mc9f41a203d" y="196.327739"/>
      </g>
     </g>
     <g id="text_6">
      <!-- 0.0005 -->
      <g transform="translate(12.009375 200.126957)scale(0.1 -0.1)">
       <defs>
        <path d="M 10.796875 72.90625 
L 49.515625 72.90625 
L 49.515625 64.59375 
L 19.828125 64.59375 
L 19.828125 46.734375 
Q 21.96875 47.46875 24.109375 47.828125 
Q 26.265625 48.1875 28.421875 48.1875 
Q 40.625 48.1875 47.75 41.5 
Q 54.890625 34.8125 54.890625 23.390625 
Q 54.890625 11.625 47.5625 5.09375 
Q 40.234375 -1.421875 26.90625 -1.421875 
Q 22.3125 -1.421875 17.546875 -0.640625 
Q 12.796875 0.140625 7.71875 1.703125 
L 7.71875 11.625 
Q 12.109375 9.234375 16.796875 8.0625 
Q 21.484375 6.890625 26.703125 6.890625 
Q 35.15625 6.890625 40.078125 11.328125 
Q 45.015625 15.765625 45.015625 23.390625 
Q 45.015625 31 40.078125 35.4375 
Q 35.15625 39.890625 26.703125 39.890625 
Q 22.75 39.890625 18.8125 39.015625 
Q 14.890625 38.140625 10.796875 36.28125 
z
" id="DejaVuSans-53"/>
       </defs>
       <use xlink:href="#DejaVuSans-48"/>
       <use x="63.623047" xlink:href="#DejaVuSans-46"/>
       <use x="95.410156" xlink:href="#DejaVuSans-48"/>
       <use x="159.033203" xlink:href="#DejaVuSans-48"/>
       <use x="222.65625" xlink:href="#DejaVuSans-48"/>
       <use x="286.279297" xlink:href="#DejaVuSans-53"/>
      </g>
     </g>
    </g>
    <g id="ytick_3">
     <g id="line2d_6">
      <g>
       <use style="stroke:#000000;stroke-width:0.8;" x="54" xlink:href="#mc9f41a203d" y="150.419534"/>
      </g>
     </g>
     <g id="text_7">
      <!-- 0.0010 -->
      <g transform="translate(12.009375 154.218753)scale(0.1 -0.1)">
       <defs>
        <path d="M 12.40625 8.296875 
L 28.515625 8.296875 
L 28.515625 63.921875 
L 10.984375 60.40625 
L 10.984375 69.390625 
L 28.421875 72.90625 
L 38.28125 72.90625 
L 38.28125 8.296875 
L 54.390625 8.296875 
L 54.390625 0 
L 12.40625 0 
z
" id="DejaVuSans-49"/>
       </defs>
       <use xlink:href="#DejaVuSans-48"/>
       <use x="63.623047" xlink:href="#DejaVuSans-46"/>
       <use x="95.410156" xlink:href="#DejaVuSans-48"/>
       <use x="159.033203" xlink:href="#DejaVuSans-48"/>
       <use x="222.65625" xlink:href="#DejaVuSans-49"/>
       <use x="286.279297" xlink:href="#DejaVuSans-48"/>
      </g>
     </g>
    </g>
    <g id="ytick_4">
     <g id="line2d_7">
      <g>
       <use style="stroke:#000000;stroke-width:0.8;" x="54" xlink:href="#mc9f41a203d" y="104.51133"/>
      </g>
     </g>
     <g id="text_8">
      <!-- 0.0015 -->
      <g transform="translate(12.009375 108.310549)scale(0.1 -0.1)">
       <use xlink:href="#DejaVuSans-48"/>
       <use x="63.623047" xlink:href="#DejaVuSans-46"/>
       <use x="95.410156" xlink:href="#DejaVuSans-48"/>
       <use x="159.033203" xlink:href="#DejaVuSans-48"/>
       <use x="222.65625" xlink:href="#DejaVuSans-49"/>
       <use x="286.279297" xlink:href="#DejaVuSans-53"/>
      </g>
     </g>
    </g>
    <g id="ytick_5">
     <g id="line2d_8">
      <g>
       <use style="stroke:#000000;stroke-width:0.8;" x="54" xlink:href="#mc9f41a203d" y="58.603126"/>
      </g>
     </g>
     <g id="text_9">
      <!-- 0.0020 -->
      <g transform="translate(12.009375 62.402345)scale(0.1 -0.1)">
       <defs>
        <path d="M 19.1875 8.296875 
L 53.609375 8.296875 
L 53.609375 0 
L 7.328125 0 
L 7.328125 8.296875 
Q 12.9375 14.109375 22.625 23.890625 
Q 32.328125 33.6875 34.8125 36.53125 
Q 39.546875 41.84375 41.421875 45.53125 
Q 43.3125 49.21875 43.3125 52.78125 
Q 43.3125 58.59375 39.234375 62.25 
Q 35.15625 65.921875 28.609375 65.921875 
Q 23.96875 65.921875 18.8125 64.3125 
Q 13.671875 62.703125 7.8125 59.421875 
L 7.8125 69.390625 
Q 13.765625 71.78125 18.9375 73 
Q 24.125 74.21875 28.421875 74.21875 
Q 39.75 74.21875 46.484375 68.546875 
Q 53.21875 62.890625 53.21875 53.421875 
Q 53.21875 48.921875 51.53125 44.890625 
Q 49.859375 40.875 45.40625 35.40625 
Q 44.1875 33.984375 37.640625 27.21875 
Q 31.109375 20.453125 19.1875 8.296875 
z
" id="DejaVuSans-50"/>
       </defs>
       <use xlink:href="#DejaVuSans-48"/>
       <use x="63.623047" xlink:href="#DejaVuSans-46"/>
       <use x="95.410156" xlink:href="#DejaVuSans-48"/>
       <use x="159.033203" xlink:href="#DejaVuSans-48"/>
       <use x="222.65625" xlink:href="#DejaVuSans-50"/>
       <use x="286.279297" xlink:href="#DejaVuSans-48"/>
      </g>
     </g>
    </g>
    <g id="text_10">
     <!-- value -->
     <g transform="translate(5.929687 156.937813)rotate(-90)scale(0.1 -0.1)">
      <defs>
       <path d="M 8.5 21.578125 
L 8.5 54.6875 
L 17.484375 54.6875 
L 17.484375 21.921875 
Q 17.484375 14.15625 20.5 10.265625 
Q 23.53125 6.390625 29.59375 6.390625 
Q 36.859375 6.390625 41.078125 11.03125 
Q 45.3125 15.671875 45.3125 23.6875 
L 45.3125 54.6875 
L 54.296875 54.6875 
L 54.296875 0 
L 45.3125 0 
L 45.3125 8.40625 
Q 42.046875 3.421875 37.71875 1 
Q 33.40625 -1.421875 27.6875 -1.421875 
Q 18.265625 -1.421875 13.375 4.4375 
Q 8.5 10.296875 8.5 21.578125 
z
M 31.109375 56 
z
" id="DejaVuSans-117"/>
      </defs>
      <use xlink:href="#DejaVuSans-118"/>
      <use x="59.179688" xlink:href="#DejaVuSans-97"/>
      <use x="120.458984" xlink:href="#DejaVuSans-108"/>
      <use x="148.242188" xlink:href="#DejaVuSans-117"/>
      <use x="211.621094" xlink:href="#DejaVuSans-101"/>
     </g>
    </g>
   </g>
   <g id="line2d_9">
    <path clip-path="url(#pa6717aa1ad)" d="M 80.04 242.116005 
L 80.04 240.470464 
" style="fill:none;stroke:#3d3d3d;stroke-linecap:square;stroke-width:1.5;"/>
   </g>
   <g id="line2d_10">
    <path clip-path="url(#pa6717aa1ad)" d="M 80.04 242.084859 
L 80.04 241.437287 
" style="fill:none;stroke:#3d3d3d;stroke-linecap:square;stroke-width:4.5;"/>
   </g>
   <g id="line2d_11">
    <path clip-path="url(#pa6717aa1ad)" d="M 221.4 242.115294 
L 221.4 240.047634 
" style="fill:none;stroke:#3d3d3d;stroke-linecap:square;stroke-width:1.5;"/>
   </g>
   <g id="line2d_12">
    <path clip-path="url(#pa6717aa1ad)" d="M 221.4 242.081744 
L 221.4 241.256902 
" style="fill:none;stroke:#3d3d3d;stroke-linecap:square;stroke-width:4.5;"/>
   </g>
   <g id="line2d_13">
    <path clip-path="url(#pa6717aa1ad)" d="M 362.76 242.116364 
L 362.76 240.140689 
" style="fill:none;stroke:#3d3d3d;stroke-linecap:square;stroke-width:1.5;"/>
   </g>
   <g id="line2d_14">
    <path clip-path="url(#pa6717aa1ad)" d="M 362.76 242.081888 
L 362.76 241.304975 
" style="fill:none;stroke:#3d3d3d;stroke-linecap:square;stroke-width:4.5;"/>
   </g>
   <g id="patch_6">
    <path d="M 54 252 
L 54 34.56 
" style="fill:none;stroke:#000000;stroke-linecap:square;stroke-linejoin:miter;stroke-width:0.8;"/>
   </g>
   <g id="patch_7">
    <path d="M 388.8 252 
L 388.8 34.56 
" style="fill:none;stroke:#000000;stroke-linecap:square;stroke-linejoin:miter;stroke-width:0.8;"/>
   </g>
   <g id="patch_8">
    <path d="M 54 252 
L 388.8 252 
" style="fill:none;stroke:#000000;stroke-linecap:square;stroke-linejoin:miter;stroke-width:0.8;"/>
   </g>
   <g id="patch_9">
    <path d="M 54 34.56 
L 388.8 34.56 
" style="fill:none;stroke:#000000;stroke-linecap:square;stroke-linejoin:miter;stroke-width:0.8;"/>
   </g>
   <g id="PathCollection_1">
    <defs>
     <path d="M 0 1.5 
C 0.397805 1.5 0.77937 1.341951 1.06066 1.06066 
C 1.341951 0.77937 1.5 0.397805 1.5 0 
C 1.5 -0.397805 1.341951 -0.77937 1.06066 -1.06066 
C 0.77937 -1.341951 0.397805 -1.5 0 -1.5 
C -0.397805 -1.5 -0.77937 -1.341951 -1.06066 -1.06066 
C -1.341951 -0.77937 -1.5 -0.397805 -1.5 0 
C -1.5 0.397805 -1.341951 0.77937 -1.06066 1.06066 
C -0.77937 1.341951 -0.397805 1.5 0 1.5 
z
" id="ma9e31909fe" style="stroke:#3d3d3d;"/>
    </defs>
    <g clip-path="url(#pa6717aa1ad)">
     <use style="fill:#ffffff;stroke:#3d3d3d;" x="80.04" xlink:href="#ma9e31909fe" y="241.951039"/>
    </g>
   </g>
   <g id="PathCollection_2">
    <g clip-path="url(#pa6717aa1ad)">
     <use style="fill:#ffffff;stroke:#3d3d3d;" x="221.4" xlink:href="#ma9e31909fe" y="241.922675"/>
    </g>
   </g>
   <g id="PathCollection_3">
    <g clip-path="url(#pa6717aa1ad)">
     <use style="fill:#ffffff;stroke:#3d3d3d;" x="362.76" xlink:href="#ma9e31909fe" y="241.937467"/>
    </g>
   </g>
   <g id="legend_1">
    <g id="patch_10">
     <path d="M 326.525 101.2725 
L 381.8 101.2725 
Q 383.8 101.2725 383.8 99.2725 
L 383.8 41.56 
Q 383.8 39.56 381.8 39.56 
L 326.525 39.56 
Q 324.525 39.56 324.525 41.56 
L 324.525 99.2725 
Q 324.525 101.2725 326.525 101.2725 
z
" style="fill:#ffffff;opacity:0.8;stroke:#cccccc;stroke-linejoin:miter;"/>
    </g>
    <g id="text_11">
     <!-- set -->
     <g transform="translate(346.521094 51.158437)scale(0.1 -0.1)">
      <use xlink:href="#DejaVuSans-115"/>
      <use x="52.099609" xlink:href="#DejaVuSans-101"/>
      <use x="113.623047" xlink:href="#DejaVuSans-116"/>
     </g>
    </g>
    <g id="patch_11">
     <path d="M 328.525 65.836562 
L 348.525 65.836562 
L 348.525 58.836562 
L 328.525 58.836562 
z
" style="fill:#3274a1;stroke:#3d3d3d;stroke-linejoin:miter;stroke-width:0.75;"/>
    </g>
    <g id="text_12">
     <!-- train -->
     <g transform="translate(356.525 65.836562)scale(0.1 -0.1)">
      <use xlink:href="#DejaVuSans-116"/>
      <use x="39.208984" xlink:href="#DejaVuSans-114"/>
      <use x="80.322266" xlink:href="#DejaVuSans-97"/>
      <use x="141.601562" xlink:href="#DejaVuSans-105"/>
      <use x="169.384766" xlink:href="#DejaVuSans-110"/>
     </g>
    </g>
    <g id="patch_12">
     <path d="M 328.525 80.514687 
L 348.525 80.514687 
L 348.525 73.514687 
L 328.525 73.514687 
z
" style="fill:#e1812c;stroke:#3d3d3d;stroke-linejoin:miter;stroke-width:0.75;"/>
    </g>
    <g id="text_13">
     <!-- val -->
     <g transform="translate(356.525 80.514687)scale(0.1 -0.1)">
      <use xlink:href="#DejaVuSans-118"/>
      <use x="59.179688" xlink:href="#DejaVuSans-97"/>
      <use x="120.458984" xlink:href="#DejaVuSans-108"/>
     </g>
    </g>
    <g id="patch_13">
     <path d="M 328.525 95.192813 
L 348.525 95.192813 
L 348.525 88.192813 
L 328.525 88.192813 
z
" style="fill:#3a923a;stroke:#3d3d3d;stroke-linejoin:miter;stroke-width:0.75;"/>
    </g>
    <g id="text_14">
     <!-- test -->
     <g transform="translate(356.525 95.192813)scale(0.1 -0.1)">
      <use xlink:href="#DejaVuSans-116"/>
      <use x="39.208984" xlink:href="#DejaVuSans-101"/>
      <use x="100.732422" xlink:href="#DejaVuSans-115"/>
      <use x="152.832031" xlink:href="#DejaVuSans-116"/>
     </g>
    </g>
   </g>
  </g>
 </g>
 <defs>
  <clipPath id="pa6717aa1ad">
   <rect height="217.44" width="334.8" x="54" y="34.56"/>
  </clipPath>
 </defs>
</svg>
