<?xml version="1.0" encoding="utf-8" standalone="no"?>
<!DOCTYPE svg PUBLIC "-//W3C//DTD SVG 1.1//EN"
  "http://www.w3.org/Graphics/SVG/1.1/DTD/svg11.dtd">
<!-- Created with matplotlib (https://matplotlib.org/) -->
<svg height="288pt" version="1.1" viewBox="0 0 432 288" width="432pt" xmlns="http://www.w3.org/2000/svg" xmlns:xlink="http://www.w3.org/1999/xlink">
 <metadata>
  <rdf:RDF xmlns:cc="http://creativecommons.org/ns#" xmlns:dc="http://purl.org/dc/elements/1.1/" xmlns:rdf="http://www.w3.org/1999/02/22-rdf-syntax-ns#">
   <cc:Work>
    <dc:type rdf:resource="http://purl.org/dc/dcmitype/StillImage"/>
    <dc:date>2021-07-13T17:12:50.850126</dc:date>
    <dc:format>image/svg+xml</dc:format>
    <dc:creator>
     <cc:Agent>
      <dc:title>Matplotlib v3.3.4, https://matplotlib.org/</dc:title>
     </cc:Agent>
    </dc:creator>
   </cc:Work>
  </rdf:RDF>
 </metadata>
 <defs>
  <style type="text/css">*{stroke-linecap:butt;stroke-linejoin:round;}</style>
 </defs>
 <g id="figure_1">
  <g id="patch_1">
   <path d="M 0 288 
L 432 288 
L 432 0 
L 0 0 
z
" style="fill:#ffffff;"/>
  </g>
  <g id="axes_1">
   <g id="patch_2">
    <path d="M 54 252 
L 388.8 252 
L 388.8 34.56 
L 54 34.56 
z
" style="fill:#ffffff;"/>
   </g>
   <g id="PolyCollection_1">
    <defs>
     <path d="M 104.236924 -45.883636 
L 104.203076 -45.883636 
L 104.219648 -47.843992 
L 104.22 -49.804348 
L 104.22 -51.764704 
L 104.22 -53.72506 
L 104.22 -55.685415 
L 104.22 -57.645771 
L 104.22 -59.606127 
L 104.22 -61.566483 
L 104.22 -63.526839 
L 104.22 -65.487195 
L 104.22 -67.44755 
L 104.22 -69.407906 
L 104.22 -71.368262 
L 104.22 -73.328618 
L 104.22 -75.288974 
L 104.22 -77.24933 
L 104.22 -79.209685 
L 104.22 -81.170041 
L 104.22 -83.130397 
L 104.22 -85.090753 
L 104.22 -87.051109 
L 104.22 -89.011465 
L 104.22 -90.97182 
L 104.22 -92.932176 
L 104.22 -94.892532 
L 104.22 -96.852888 
L 104.22 -98.813244 
L 104.22 -100.773599 
L 104.22 -102.733955 
L 104.22 -104.694311 
L 104.22 -106.654667 
L 104.22 -108.615023 
L 104.22 -110.575379 
L 104.22 -112.535734 
L 104.22 -114.49609 
L 104.22 -116.456446 
L 104.22 -118.416802 
L 104.22 -120.377158 
L 104.22 -122.337514 
L 104.22 -124.297869 
L 104.22 -126.258225 
L 104.22 -128.218581 
L 104.22 -130.178937 
L 104.22 -132.139293 
L 104.22 -134.099649 
L 104.22 -136.060004 
L 104.22 -138.02036 
L 104.22 -139.980716 
L 104.22 -141.941072 
L 104.22 -143.901428 
L 104.22 -145.861783 
L 104.22 -147.822139 
L 104.22 -149.782495 
L 104.22 -151.742851 
L 104.22 -153.703207 
L 104.22 -155.663563 
L 104.22 -157.623918 
L 104.22 -159.584274 
L 104.22 -161.54463 
L 104.219997 -163.504986 
L 104.213318 -165.465342 
L 104.213825 -167.425698 
L 104.219998 -169.386053 
L 104.22 -171.346409 
L 104.22 -173.306765 
L 104.22 -175.267121 
L 104.22 -177.227477 
L 104.22 -179.187833 
L 104.22 -181.148188 
L 104.22 -183.108544 
L 104.22 -185.0689 
L 104.22 -187.029256 
L 104.22 -188.989612 
L 104.219803 -190.949967 
L 104.203403 -192.910323 
L 104.209866 -194.870679 
L 104.206823 -196.831035 
L 104.215872 -198.791391 
L 104.197826 -200.751747 
L 104.206979 -202.712102 
L 104.17238 -204.672458 
L 104.15341 -206.632814 
L 104.063905 -208.59317 
L 103.92877 -210.553526 
L 103.301429 -212.513882 
L 93.536076 -214.474237 
L 70.74 -216.434593 
L 103.647429 -218.394949 
L 104.1338 -220.355305 
L 104.178259 -222.315661 
L 104.205944 -224.276017 
L 104.217212 -226.236372 
L 104.188343 -228.196728 
L 104.209147 -230.157084 
L 104.219987 -232.11744 
L 104.22 -234.077796 
L 104.22 -236.038151 
L 104.219648 -237.998507 
L 104.203076 -239.958863 
L 104.236924 -239.958863 
L 104.236924 -239.958863 
L 104.220352 -237.998507 
L 104.22 -236.038151 
L 104.22 -234.077796 
L 104.220013 -232.11744 
L 104.230853 -230.157084 
L 104.251657 -228.196728 
L 104.222788 -226.236372 
L 104.234056 -224.276017 
L 104.261741 -222.315661 
L 104.3062 -220.355305 
L 104.792571 -218.394949 
L 137.7 -216.434593 
L 114.903924 -214.474237 
L 105.138571 -212.513882 
L 104.51123 -210.553526 
L 104.376095 -208.59317 
L 104.28659 -206.632814 
L 104.26762 -204.672458 
L 104.233021 -202.712102 
L 104.242174 -200.751747 
L 104.224128 -198.791391 
L 104.233177 -196.831035 
L 104.230134 -194.870679 
L 104.236597 -192.910323 
L 104.220197 -190.949967 
L 104.22 -188.989612 
L 104.22 -187.029256 
L 104.22 -185.0689 
L 104.22 -183.108544 
L 104.22 -181.148188 
L 104.22 -179.187833 
L 104.22 -177.227477 
L 104.22 -175.267121 
L 104.22 -173.306765 
L 104.22 -171.346409 
L 104.220002 -169.386053 
L 104.226175 -167.425698 
L 104.226682 -165.465342 
L 104.220003 -163.504986 
L 104.22 -161.54463 
L 104.22 -159.584274 
L 104.22 -157.623918 
L 104.22 -155.663563 
L 104.22 -153.703207 
L 104.22 -151.742851 
L 104.22 -149.782495 
L 104.22 -147.822139 
L 104.22 -145.861783 
L 104.22 -143.901428 
L 104.22 -141.941072 
L 104.22 -139.980716 
L 104.22 -138.02036 
L 104.22 -136.060004 
L 104.22 -134.099649 
L 104.22 -132.139293 
L 104.22 -130.178937 
L 104.22 -128.218581 
L 104.22 -126.258225 
L 104.22 -124.297869 
L 104.22 -122.337514 
L 104.22 -120.377158 
L 104.22 -118.416802 
L 104.22 -116.456446 
L 104.22 -114.49609 
L 104.22 -112.535734 
L 104.22 -110.575379 
L 104.22 -108.615023 
L 104.22 -106.654667 
L 104.22 -104.694311 
L 104.22 -102.733955 
L 104.22 -100.773599 
L 104.22 -98.813244 
L 104.22 -96.852888 
L 104.22 -94.892532 
L 104.22 -92.932176 
L 104.22 -90.97182 
L 104.22 -89.011465 
L 104.22 -87.051109 
L 104.22 -85.090753 
L 104.22 -83.130397 
L 104.22 -81.170041 
L 104.22 -79.209685 
L 104.22 -77.24933 
L 104.22 -75.288974 
L 104.22 -73.328618 
L 104.22 -71.368262 
L 104.22 -69.407906 
L 104.22 -67.44755 
L 104.22 -65.487195 
L 104.22 -63.526839 
L 104.22 -61.566483 
L 104.22 -59.606127 
L 104.22 -57.645771 
L 104.22 -55.685415 
L 104.22 -53.72506 
L 104.22 -51.764704 
L 104.22 -49.804348 
L 104.220352 -47.843992 
L 104.236924 -45.883636 
z
" id="mf2c37014e3" style="stroke:#3f3f3f;stroke-width:1.5;"/>
    </defs>
    <g clip-path="url(#p559a322213)">
     <use style="fill:#3274a1;stroke:#3f3f3f;stroke-width:1.5;" x="0" xlink:href="#mf2c37014e3" y="288"/>
    </g>
   </g>
   <g id="PolyCollection_2">
    <defs>
     <path d="M 338.599745 -166.135123 
L 338.560255 -166.135123 
L 338.579235 -166.917156 
L 338.58 -167.699189 
L 338.58 -168.481222 
L 338.58 -169.263254 
L 338.58 -170.045287 
L 338.58 -170.82732 
L 338.58 -171.609353 
L 338.58 -172.391385 
L 338.58 -173.173418 
L 338.58 -173.955451 
L 338.58 -174.737483 
L 338.58 -175.519516 
L 338.58 -176.301549 
L 338.58 -177.083582 
L 338.58 -177.865614 
L 338.58 -178.647647 
L 338.58 -179.42968 
L 338.58 -180.211713 
L 338.58 -180.993745 
L 338.58 -181.775778 
L 338.58 -182.557811 
L 338.58 -183.339843 
L 338.58 -184.121876 
L 338.58 -184.903909 
L 338.58 -185.685942 
L 338.58 -186.467974 
L 338.58 -187.250007 
L 338.58 -188.03204 
L 338.58 -188.814073 
L 338.579991 -189.596105 
L 338.572268 -190.378138 
L 338.570165 -191.160171 
L 338.577991 -191.942204 
L 338.56183 -192.724236 
L 338.579751 -193.506269 
L 338.58 -194.288302 
L 338.58 -195.070334 
L 338.58 -195.852367 
L 338.58 -196.6344 
L 338.58 -197.416433 
L 338.58 -198.198465 
L 338.58 -198.980498 
L 338.58 -199.762531 
L 338.58 -200.544564 
L 338.58 -201.326596 
L 338.58 -202.108629 
L 338.58 -202.890662 
L 338.579958 -203.672694 
L 338.567511 -204.454727 
L 338.574374 -205.23676 
L 338.565615 -206.018793 
L 338.57136 -206.800825 
L 338.565852 -207.582858 
L 338.579665 -208.364891 
L 338.559453 -209.146924 
L 338.554325 -209.928956 
L 338.564634 -210.710989 
L 338.541623 -211.493022 
L 338.51711 -212.275054 
L 338.427647 -213.057087 
L 338.125873 -213.83912 
L 336.919733 -214.621153 
L 325.118626 -215.403185 
L 305.1 -216.185218 
L 331.727661 -216.967251 
L 336.92593 -217.749284 
L 337.975389 -218.531316 
L 338.310202 -219.313349 
L 338.502901 -220.095382 
L 338.538745 -220.877414 
L 338.528703 -221.659447 
L 338.546219 -222.44148 
L 338.55252 -223.223513 
L 338.546245 -224.005545 
L 338.532764 -224.787578 
L 338.578575 -225.569611 
L 338.58 -226.351644 
L 338.58 -227.133676 
L 338.58 -227.915709 
L 338.58 -228.697742 
L 338.58 -229.479775 
L 338.58 -230.261807 
L 338.579961 -231.04384 
L 338.567773 -231.825873 
L 338.574251 -232.607905 
L 338.579996 -233.389938 
L 338.58 -234.171971 
L 338.58 -234.954004 
L 338.58 -235.736036 
L 338.58 -236.518069 
L 338.58 -237.300102 
L 338.58 -238.082135 
L 338.58 -238.864167 
L 338.58 -239.6462 
L 338.58 -240.428233 
L 338.58 -241.210265 
L 338.58 -241.992298 
L 338.579235 -242.774331 
L 338.560255 -243.556364 
L 338.599745 -243.556364 
L 338.599745 -243.556364 
L 338.580765 -242.774331 
L 338.58 -241.992298 
L 338.58 -241.210265 
L 338.58 -240.428233 
L 338.58 -239.6462 
L 338.58 -238.864167 
L 338.58 -238.082135 
L 338.58 -237.300102 
L 338.58 -236.518069 
L 338.58 -235.736036 
L 338.58 -234.954004 
L 338.58 -234.171971 
L 338.580004 -233.389938 
L 338.585749 -232.607905 
L 338.592227 -231.825873 
L 338.580039 -231.04384 
L 338.58 -230.261807 
L 338.58 -229.479775 
L 338.58 -228.697742 
L 338.58 -227.915709 
L 338.58 -227.133676 
L 338.58 -226.351644 
L 338.581425 -225.569611 
L 338.627236 -224.787578 
L 338.613755 -224.005545 
L 338.60748 -223.223513 
L 338.613781 -222.44148 
L 338.631297 -221.659447 
L 338.621255 -220.877414 
L 338.657099 -220.095382 
L 338.849798 -219.313349 
L 339.184611 -218.531316 
L 340.23407 -217.749284 
L 345.432339 -216.967251 
L 372.06 -216.185218 
L 352.041374 -215.403185 
L 340.240267 -214.621153 
L 339.034127 -213.83912 
L 338.732353 -213.057087 
L 338.64289 -212.275054 
L 338.618377 -211.493022 
L 338.595366 -210.710989 
L 338.605675 -209.928956 
L 338.600547 -209.146924 
L 338.580335 -208.364891 
L 338.594148 -207.582858 
L 338.58864 -206.800825 
L 338.594385 -206.018793 
L 338.585626 -205.23676 
L 338.592489 -204.454727 
L 338.580042 -203.672694 
L 338.58 -202.890662 
L 338.58 -202.108629 
L 338.58 -201.326596 
L 338.58 -200.544564 
L 338.58 -199.762531 
L 338.58 -198.980498 
L 338.58 -198.198465 
L 338.58 -197.416433 
L 338.58 -196.6344 
L 338.58 -195.852367 
L 338.58 -195.070334 
L 338.58 -194.288302 
L 338.580249 -193.506269 
L 338.59817 -192.724236 
L 338.582009 -191.942204 
L 338.589835 -191.160171 
L 338.587732 -190.378138 
L 338.580009 -189.596105 
L 338.58 -188.814073 
L 338.58 -188.03204 
L 338.58 -187.250007 
L 338.58 -186.467974 
L 338.58 -185.685942 
L 338.58 -184.903909 
L 338.58 -184.121876 
L 338.58 -183.339843 
L 338.58 -182.557811 
L 338.58 -181.775778 
L 338.58 -180.993745 
L 338.58 -180.211713 
L 338.58 -179.42968 
L 338.58 -178.647647 
L 338.58 -177.865614 
L 338.58 -177.083582 
L 338.58 -176.301549 
L 338.58 -175.519516 
L 338.58 -174.737483 
L 338.58 -173.955451 
L 338.58 -173.173418 
L 338.58 -172.391385 
L 338.58 -171.609353 
L 338.58 -170.82732 
L 338.58 -170.045287 
L 338.58 -169.263254 
L 338.58 -168.481222 
L 338.58 -167.699189 
L 338.580765 -166.917156 
L 338.599745 -166.135123 
z
" id="mcbab7ad4e9" style="stroke:#3f3f3f;stroke-width:1.5;"/>
    </defs>
    <g clip-path="url(#p559a322213)">
     <use style="fill:#e1812c;stroke:#3f3f3f;stroke-width:1.5;" x="0" xlink:href="#mcbab7ad4e9" y="288"/>
    </g>
   </g>
   <g id="patch_3">
    <path clip-path="url(#p559a322213)" d="M 137.7 71.988891 
L 137.7 71.988891 
L 137.7 71.988891 
L 137.7 71.988891 
z
" style="fill:#3274a1;stroke:#3f3f3f;stroke-linejoin:miter;stroke-width:0.75;"/>
   </g>
   <g id="patch_4">
    <path clip-path="url(#p559a322213)" d="M 137.7 71.988891 
L 137.7 71.988891 
L 137.7 71.988891 
L 137.7 71.988891 
z
" style="fill:#e1812c;stroke:#3f3f3f;stroke-linejoin:miter;stroke-width:0.75;"/>
   </g>
   <g id="matplotlib.axis_1">
    <g id="xtick_1">
     <g id="line2d_1">
      <defs>
       <path d="M 0 0 
L 0 3.5 
" id="m26a9a3d07b" style="stroke:#000000;stroke-width:0.8;"/>
      </defs>
      <g>
       <use style="stroke:#000000;stroke-width:0.8;" x="137.7" xlink:href="#m26a9a3d07b" y="252"/>
      </g>
     </g>
     <g id="text_1">
      <!-- Z_1_ns -->
      <g transform="translate(120.320312 266.320312)scale(0.1 -0.1)">
       <defs>
        <path d="M 5.609375 72.90625 
L 62.890625 72.90625 
L 62.890625 65.375 
L 16.796875 8.296875 
L 64.015625 8.296875 
L 64.015625 0 
L 4.5 0 
L 4.5 7.515625 
L 50.59375 64.59375 
L 5.609375 64.59375 
z
" id="DejaVuSans-90"/>
        <path d="M 50.984375 -16.609375 
L 50.984375 -23.578125 
L -0.984375 -23.578125 
L -0.984375 -16.609375 
z
" id="DejaVuSans-95"/>
        <path d="M 12.40625 8.296875 
L 28.515625 8.296875 
L 28.515625 63.921875 
L 10.984375 60.40625 
L 10.984375 69.390625 
L 28.421875 72.90625 
L 38.28125 72.90625 
L 38.28125 8.296875 
L 54.390625 8.296875 
L 54.390625 0 
L 12.40625 0 
z
" id="DejaVuSans-49"/>
        <path d="M 54.890625 33.015625 
L 54.890625 0 
L 45.90625 0 
L 45.90625 32.71875 
Q 45.90625 40.484375 42.875 44.328125 
Q 39.84375 48.1875 33.796875 48.1875 
Q 26.515625 48.1875 22.3125 43.546875 
Q 18.109375 38.921875 18.109375 30.90625 
L 18.109375 0 
L 9.078125 0 
L 9.078125 54.6875 
L 18.109375 54.6875 
L 18.109375 46.1875 
Q 21.34375 51.125 25.703125 53.5625 
Q 30.078125 56 35.796875 56 
Q 45.21875 56 50.046875 50.171875 
Q 54.890625 44.34375 54.890625 33.015625 
z
" id="DejaVuSans-110"/>
        <path d="M 44.28125 53.078125 
L 44.28125 44.578125 
Q 40.484375 46.53125 36.375 47.5 
Q 32.28125 48.484375 27.875 48.484375 
Q 21.1875 48.484375 17.84375 46.4375 
Q 14.5 44.390625 14.5 40.28125 
Q 14.5 37.15625 16.890625 35.375 
Q 19.28125 33.59375 26.515625 31.984375 
L 29.59375 31.296875 
Q 39.15625 29.25 43.1875 25.515625 
Q 47.21875 21.78125 47.21875 15.09375 
Q 47.21875 7.46875 41.1875 3.015625 
Q 35.15625 -1.421875 24.609375 -1.421875 
Q 20.21875 -1.421875 15.453125 -0.5625 
Q 10.6875 0.296875 5.421875 2 
L 5.421875 11.28125 
Q 10.40625 8.6875 15.234375 7.390625 
Q 20.0625 6.109375 24.8125 6.109375 
Q 31.15625 6.109375 34.5625 8.28125 
Q 37.984375 10.453125 37.984375 14.40625 
Q 37.984375 18.0625 35.515625 20.015625 
Q 33.0625 21.96875 24.703125 23.78125 
L 21.578125 24.515625 
Q 13.234375 26.265625 9.515625 29.90625 
Q 5.8125 33.546875 5.8125 39.890625 
Q 5.8125 47.609375 11.28125 51.796875 
Q 16.75 56 26.8125 56 
Q 31.78125 56 36.171875 55.265625 
Q 40.578125 54.546875 44.28125 53.078125 
z
" id="DejaVuSans-115"/>
       </defs>
       <use xlink:href="#DejaVuSans-90"/>
       <use x="68.505859" xlink:href="#DejaVuSans-95"/>
       <use x="118.505859" xlink:href="#DejaVuSans-49"/>
       <use x="182.128906" xlink:href="#DejaVuSans-95"/>
       <use x="232.128906" xlink:href="#DejaVuSans-110"/>
       <use x="295.507812" xlink:href="#DejaVuSans-115"/>
      </g>
     </g>
    </g>
    <g id="xtick_2">
     <g id="line2d_2">
      <g>
       <use style="stroke:#000000;stroke-width:0.8;" x="305.1" xlink:href="#m26a9a3d07b" y="252"/>
      </g>
     </g>
     <g id="text_2">
      <!-- Z_2_ns -->
      <g transform="translate(287.720313 266.421875)scale(0.1 -0.1)">
       <defs>
        <path d="M 19.1875 8.296875 
L 53.609375 8.296875 
L 53.609375 0 
L 7.328125 0 
L 7.328125 8.296875 
Q 12.9375 14.109375 22.625 23.890625 
Q 32.328125 33.6875 34.8125 36.53125 
Q 39.546875 41.84375 41.421875 45.53125 
Q 43.3125 49.21875 43.3125 52.78125 
Q 43.3125 58.59375 39.234375 62.25 
Q 35.15625 65.921875 28.609375 65.921875 
Q 23.96875 65.921875 18.8125 64.3125 
Q 13.671875 62.703125 7.8125 59.421875 
L 7.8125 69.390625 
Q 13.765625 71.78125 18.9375 73 
Q 24.125 74.21875 28.421875 74.21875 
Q 39.75 74.21875 46.484375 68.546875 
Q 53.21875 62.890625 53.21875 53.421875 
Q 53.21875 48.921875 51.53125 44.890625 
Q 49.859375 40.875 45.40625 35.40625 
Q 44.1875 33.984375 37.640625 27.21875 
Q 31.109375 20.453125 19.1875 8.296875 
z
" id="DejaVuSans-50"/>
       </defs>
       <use xlink:href="#DejaVuSans-90"/>
       <use x="68.505859" xlink:href="#DejaVuSans-95"/>
       <use x="118.505859" xlink:href="#DejaVuSans-50"/>
       <use x="182.128906" xlink:href="#DejaVuSans-95"/>
       <use x="232.128906" xlink:href="#DejaVuSans-110"/>
       <use x="295.507812" xlink:href="#DejaVuSans-115"/>
      </g>
     </g>
    </g>
    <g id="text_3">
     <!-- set -->
     <g transform="translate(213.758594 280.378125)scale(0.1 -0.1)">
      <defs>
       <path d="M 56.203125 29.59375 
L 56.203125 25.203125 
L 14.890625 25.203125 
Q 15.484375 15.921875 20.484375 11.0625 
Q 25.484375 6.203125 34.421875 6.203125 
Q 39.59375 6.203125 44.453125 7.46875 
Q 49.3125 8.734375 54.109375 11.28125 
L 54.109375 2.78125 
Q 49.265625 0.734375 44.1875 -0.34375 
Q 39.109375 -1.421875 33.890625 -1.421875 
Q 20.796875 -1.421875 13.15625 6.1875 
Q 5.515625 13.8125 5.515625 26.8125 
Q 5.515625 40.234375 12.765625 48.109375 
Q 20.015625 56 32.328125 56 
Q 43.359375 56 49.78125 48.890625 
Q 56.203125 41.796875 56.203125 29.59375 
z
M 47.21875 32.234375 
Q 47.125 39.59375 43.09375 43.984375 
Q 39.0625 48.390625 32.421875 48.390625 
Q 24.90625 48.390625 20.390625 44.140625 
Q 15.875 39.890625 15.1875 32.171875 
z
" id="DejaVuSans-101"/>
       <path d="M 18.3125 70.21875 
L 18.3125 54.6875 
L 36.8125 54.6875 
L 36.8125 47.703125 
L 18.3125 47.703125 
L 18.3125 18.015625 
Q 18.3125 11.328125 20.140625 9.421875 
Q 21.96875 7.515625 27.59375 7.515625 
L 36.8125 7.515625 
L 36.8125 0 
L 27.59375 0 
Q 17.1875 0 13.234375 3.875 
Q 9.28125 7.765625 9.28125 18.015625 
L 9.28125 47.703125 
L 2.6875 47.703125 
L 2.6875 54.6875 
L 9.28125 54.6875 
L 9.28125 70.21875 
z
" id="DejaVuSans-116"/>
      </defs>
      <use xlink:href="#DejaVuSans-115"/>
      <use x="52.099609" xlink:href="#DejaVuSans-101"/>
      <use x="113.623047" xlink:href="#DejaVuSans-116"/>
     </g>
    </g>
   </g>
   <g id="matplotlib.axis_2">
    <g id="ytick_1">
     <g id="line2d_3">
      <defs>
       <path d="M 0 0 
L -3.5 0 
" id="mad568fe2ce" style="stroke:#000000;stroke-width:0.8;"/>
      </defs>
      <g>
       <use style="stroke:#000000;stroke-width:0.8;" x="54" xlink:href="#mad568fe2ce" y="251.792455"/>
      </g>
     </g>
     <g id="text_4">
      <!-- −0.14 -->
      <g transform="translate(16.354687 255.591674)scale(0.1 -0.1)">
       <defs>
        <path d="M 10.59375 35.5 
L 73.1875 35.5 
L 73.1875 27.203125 
L 10.59375 27.203125 
z
" id="DejaVuSans-8722"/>
        <path d="M 31.78125 66.40625 
Q 24.171875 66.40625 20.328125 58.90625 
Q 16.5 51.421875 16.5 36.375 
Q 16.5 21.390625 20.328125 13.890625 
Q 24.171875 6.390625 31.78125 6.390625 
Q 39.453125 6.390625 43.28125 13.890625 
Q 47.125 21.390625 47.125 36.375 
Q 47.125 51.421875 43.28125 58.90625 
Q 39.453125 66.40625 31.78125 66.40625 
z
M 31.78125 74.21875 
Q 44.046875 74.21875 50.515625 64.515625 
Q 56.984375 54.828125 56.984375 36.375 
Q 56.984375 17.96875 50.515625 8.265625 
Q 44.046875 -1.421875 31.78125 -1.421875 
Q 19.53125 -1.421875 13.0625 8.265625 
Q 6.59375 17.96875 6.59375 36.375 
Q 6.59375 54.828125 13.0625 64.515625 
Q 19.53125 74.21875 31.78125 74.21875 
z
" id="DejaVuSans-48"/>
        <path d="M 10.6875 12.40625 
L 21 12.40625 
L 21 0 
L 10.6875 0 
z
" id="DejaVuSans-46"/>
        <path d="M 37.796875 64.3125 
L 12.890625 25.390625 
L 37.796875 25.390625 
z
M 35.203125 72.90625 
L 47.609375 72.90625 
L 47.609375 25.390625 
L 58.015625 25.390625 
L 58.015625 17.1875 
L 47.609375 17.1875 
L 47.609375 0 
L 37.796875 0 
L 37.796875 17.1875 
L 4.890625 17.1875 
L 4.890625 26.703125 
z
" id="DejaVuSans-52"/>
       </defs>
       <use xlink:href="#DejaVuSans-8722"/>
       <use x="83.789062" xlink:href="#DejaVuSans-48"/>
       <use x="147.412109" xlink:href="#DejaVuSans-46"/>
       <use x="179.199219" xlink:href="#DejaVuSans-49"/>
       <use x="242.822266" xlink:href="#DejaVuSans-52"/>
      </g>
     </g>
    </g>
    <g id="ytick_2">
     <g id="line2d_4">
      <g>
       <use style="stroke:#000000;stroke-width:0.8;" x="54" xlink:href="#mad568fe2ce" y="226.106232"/>
      </g>
     </g>
     <g id="text_5">
      <!-- −0.12 -->
      <g transform="translate(16.354687 229.905451)scale(0.1 -0.1)">
       <use xlink:href="#DejaVuSans-8722"/>
       <use x="83.789062" xlink:href="#DejaVuSans-48"/>
       <use x="147.412109" xlink:href="#DejaVuSans-46"/>
       <use x="179.199219" xlink:href="#DejaVuSans-49"/>
       <use x="242.822266" xlink:href="#DejaVuSans-50"/>
      </g>
     </g>
    </g>
    <g id="ytick_3">
     <g id="line2d_5">
      <g>
       <use style="stroke:#000000;stroke-width:0.8;" x="54" xlink:href="#mad568fe2ce" y="200.420008"/>
      </g>
     </g>
     <g id="text_6">
      <!-- −0.10 -->
      <g transform="translate(16.354687 204.219227)scale(0.1 -0.1)">
       <use xlink:href="#DejaVuSans-8722"/>
       <use x="83.789062" xlink:href="#DejaVuSans-48"/>
       <use x="147.412109" xlink:href="#DejaVuSans-46"/>
       <use x="179.199219" xlink:href="#DejaVuSans-49"/>
       <use x="242.822266" xlink:href="#DejaVuSans-48"/>
      </g>
     </g>
    </g>
    <g id="ytick_4">
     <g id="line2d_6">
      <g>
       <use style="stroke:#000000;stroke-width:0.8;" x="54" xlink:href="#mad568fe2ce" y="174.733785"/>
      </g>
     </g>
     <g id="text_7">
      <!-- −0.08 -->
      <g transform="translate(16.354687 178.533004)scale(0.1 -0.1)">
       <defs>
        <path d="M 31.78125 34.625 
Q 24.75 34.625 20.71875 30.859375 
Q 16.703125 27.09375 16.703125 20.515625 
Q 16.703125 13.921875 20.71875 10.15625 
Q 24.75 6.390625 31.78125 6.390625 
Q 38.8125 6.390625 42.859375 10.171875 
Q 46.921875 13.96875 46.921875 20.515625 
Q 46.921875 27.09375 42.890625 30.859375 
Q 38.875 34.625 31.78125 34.625 
z
M 21.921875 38.8125 
Q 15.578125 40.375 12.03125 44.71875 
Q 8.5 49.078125 8.5 55.328125 
Q 8.5 64.0625 14.71875 69.140625 
Q 20.953125 74.21875 31.78125 74.21875 
Q 42.671875 74.21875 48.875 69.140625 
Q 55.078125 64.0625 55.078125 55.328125 
Q 55.078125 49.078125 51.53125 44.71875 
Q 48 40.375 41.703125 38.8125 
Q 48.828125 37.15625 52.796875 32.3125 
Q 56.78125 27.484375 56.78125 20.515625 
Q 56.78125 9.90625 50.3125 4.234375 
Q 43.84375 -1.421875 31.78125 -1.421875 
Q 19.734375 -1.421875 13.25 4.234375 
Q 6.78125 9.90625 6.78125 20.515625 
Q 6.78125 27.484375 10.78125 32.3125 
Q 14.796875 37.15625 21.921875 38.8125 
z
M 18.3125 54.390625 
Q 18.3125 48.734375 21.84375 45.5625 
Q 25.390625 42.390625 31.78125 42.390625 
Q 38.140625 42.390625 41.71875 45.5625 
Q 45.3125 48.734375 45.3125 54.390625 
Q 45.3125 60.0625 41.71875 63.234375 
Q 38.140625 66.40625 31.78125 66.40625 
Q 25.390625 66.40625 21.84375 63.234375 
Q 18.3125 60.0625 18.3125 54.390625 
z
" id="DejaVuSans-56"/>
       </defs>
       <use xlink:href="#DejaVuSans-8722"/>
       <use x="83.789062" xlink:href="#DejaVuSans-48"/>
       <use x="147.412109" xlink:href="#DejaVuSans-46"/>
       <use x="179.199219" xlink:href="#DejaVuSans-48"/>
       <use x="242.822266" xlink:href="#DejaVuSans-56"/>
      </g>
     </g>
    </g>
    <g id="ytick_5">
     <g id="line2d_7">
      <g>
       <use style="stroke:#000000;stroke-width:0.8;" x="54" xlink:href="#mad568fe2ce" y="149.047561"/>
      </g>
     </g>
     <g id="text_8">
      <!-- −0.06 -->
      <g transform="translate(16.354687 152.84678)scale(0.1 -0.1)">
       <defs>
        <path d="M 33.015625 40.375 
Q 26.375 40.375 22.484375 35.828125 
Q 18.609375 31.296875 18.609375 23.390625 
Q 18.609375 15.53125 22.484375 10.953125 
Q 26.375 6.390625 33.015625 6.390625 
Q 39.65625 6.390625 43.53125 10.953125 
Q 47.40625 15.53125 47.40625 23.390625 
Q 47.40625 31.296875 43.53125 35.828125 
Q 39.65625 40.375 33.015625 40.375 
z
M 52.59375 71.296875 
L 52.59375 62.3125 
Q 48.875 64.0625 45.09375 64.984375 
Q 41.3125 65.921875 37.59375 65.921875 
Q 27.828125 65.921875 22.671875 59.328125 
Q 17.53125 52.734375 16.796875 39.40625 
Q 19.671875 43.65625 24.015625 45.921875 
Q 28.375 48.1875 33.59375 48.1875 
Q 44.578125 48.1875 50.953125 41.515625 
Q 57.328125 34.859375 57.328125 23.390625 
Q 57.328125 12.15625 50.6875 5.359375 
Q 44.046875 -1.421875 33.015625 -1.421875 
Q 20.359375 -1.421875 13.671875 8.265625 
Q 6.984375 17.96875 6.984375 36.375 
Q 6.984375 53.65625 15.1875 63.9375 
Q 23.390625 74.21875 37.203125 74.21875 
Q 40.921875 74.21875 44.703125 73.484375 
Q 48.484375 72.75 52.59375 71.296875 
z
" id="DejaVuSans-54"/>
       </defs>
       <use xlink:href="#DejaVuSans-8722"/>
       <use x="83.789062" xlink:href="#DejaVuSans-48"/>
       <use x="147.412109" xlink:href="#DejaVuSans-46"/>
       <use x="179.199219" xlink:href="#DejaVuSans-48"/>
       <use x="242.822266" xlink:href="#DejaVuSans-54"/>
      </g>
     </g>
    </g>
    <g id="ytick_6">
     <g id="line2d_8">
      <g>
       <use style="stroke:#000000;stroke-width:0.8;" x="54" xlink:href="#mad568fe2ce" y="123.361338"/>
      </g>
     </g>
     <g id="text_9">
      <!-- −0.04 -->
      <g transform="translate(16.354687 127.160557)scale(0.1 -0.1)">
       <use xlink:href="#DejaVuSans-8722"/>
       <use x="83.789062" xlink:href="#DejaVuSans-48"/>
       <use x="147.412109" xlink:href="#DejaVuSans-46"/>
       <use x="179.199219" xlink:href="#DejaVuSans-48"/>
       <use x="242.822266" xlink:href="#DejaVuSans-52"/>
      </g>
     </g>
    </g>
    <g id="ytick_7">
     <g id="line2d_9">
      <g>
       <use style="stroke:#000000;stroke-width:0.8;" x="54" xlink:href="#mad568fe2ce" y="97.675114"/>
      </g>
     </g>
     <g id="text_10">
      <!-- −0.02 -->
      <g transform="translate(16.354687 101.474333)scale(0.1 -0.1)">
       <use xlink:href="#DejaVuSans-8722"/>
       <use x="83.789062" xlink:href="#DejaVuSans-48"/>
       <use x="147.412109" xlink:href="#DejaVuSans-46"/>
       <use x="179.199219" xlink:href="#DejaVuSans-48"/>
       <use x="242.822266" xlink:href="#DejaVuSans-50"/>
      </g>
     </g>
    </g>
    <g id="ytick_8">
     <g id="line2d_10">
      <g>
       <use style="stroke:#000000;stroke-width:0.8;" x="54" xlink:href="#mad568fe2ce" y="71.988891"/>
      </g>
     </g>
     <g id="text_11">
      <!-- 0.00 -->
      <g transform="translate(24.734375 75.78811)scale(0.1 -0.1)">
       <use xlink:href="#DejaVuSans-48"/>
       <use x="63.623047" xlink:href="#DejaVuSans-46"/>
       <use x="95.410156" xlink:href="#DejaVuSans-48"/>
       <use x="159.033203" xlink:href="#DejaVuSans-48"/>
      </g>
     </g>
    </g>
    <g id="ytick_9">
     <g id="line2d_11">
      <g>
       <use style="stroke:#000000;stroke-width:0.8;" x="54" xlink:href="#mad568fe2ce" y="46.302667"/>
      </g>
     </g>
     <g id="text_12">
      <!-- 0.02 -->
      <g transform="translate(24.734375 50.101886)scale(0.1 -0.1)">
       <use xlink:href="#DejaVuSans-48"/>
       <use x="63.623047" xlink:href="#DejaVuSans-46"/>
       <use x="95.410156" xlink:href="#DejaVuSans-48"/>
       <use x="159.033203" xlink:href="#DejaVuSans-50"/>
      </g>
     </g>
    </g>
    <g id="text_13">
     <!-- value -->
     <g transform="translate(10.275 156.937813)rotate(-90)scale(0.1 -0.1)">
      <defs>
       <path d="M 2.984375 54.6875 
L 12.5 54.6875 
L 29.59375 8.796875 
L 46.6875 54.6875 
L 56.203125 54.6875 
L 35.6875 0 
L 23.484375 0 
z
" id="DejaVuSans-118"/>
       <path d="M 34.28125 27.484375 
Q 23.390625 27.484375 19.1875 25 
Q 14.984375 22.515625 14.984375 16.5 
Q 14.984375 11.71875 18.140625 8.90625 
Q 21.296875 6.109375 26.703125 6.109375 
Q 34.1875 6.109375 38.703125 11.40625 
Q 43.21875 16.703125 43.21875 25.484375 
L 43.21875 27.484375 
z
M 52.203125 31.203125 
L 52.203125 0 
L 43.21875 0 
L 43.21875 8.296875 
Q 40.140625 3.328125 35.546875 0.953125 
Q 30.953125 -1.421875 24.3125 -1.421875 
Q 15.921875 -1.421875 10.953125 3.296875 
Q 6 8.015625 6 15.921875 
Q 6 25.140625 12.171875 29.828125 
Q 18.359375 34.515625 30.609375 34.515625 
L 43.21875 34.515625 
L 43.21875 35.40625 
Q 43.21875 41.609375 39.140625 45 
Q 35.0625 48.390625 27.6875 48.390625 
Q 23 48.390625 18.546875 47.265625 
Q 14.109375 46.140625 10.015625 43.890625 
L 10.015625 52.203125 
Q 14.9375 54.109375 19.578125 55.046875 
Q 24.21875 56 28.609375 56 
Q 40.484375 56 46.34375 49.84375 
Q 52.203125 43.703125 52.203125 31.203125 
z
" id="DejaVuSans-97"/>
       <path d="M 9.421875 75.984375 
L 18.40625 75.984375 
L 18.40625 0 
L 9.421875 0 
z
" id="DejaVuSans-108"/>
       <path d="M 8.5 21.578125 
L 8.5 54.6875 
L 17.484375 54.6875 
L 17.484375 21.921875 
Q 17.484375 14.15625 20.5 10.265625 
Q 23.53125 6.390625 29.59375 6.390625 
Q 36.859375 6.390625 41.078125 11.03125 
Q 45.3125 15.671875 45.3125 23.6875 
L 45.3125 54.6875 
L 54.296875 54.6875 
L 54.296875 0 
L 45.3125 0 
L 45.3125 8.40625 
Q 42.046875 3.421875 37.71875 1 
Q 33.40625 -1.421875 27.6875 -1.421875 
Q 18.265625 -1.421875 13.375 4.4375 
Q 8.5 10.296875 8.5 21.578125 
z
M 31.109375 56 
z
" id="DejaVuSans-117"/>
      </defs>
      <use xlink:href="#DejaVuSans-118"/>
      <use x="59.179688" xlink:href="#DejaVuSans-97"/>
      <use x="120.458984" xlink:href="#DejaVuSans-108"/>
      <use x="148.242188" xlink:href="#DejaVuSans-117"/>
      <use x="211.621094" xlink:href="#DejaVuSans-101"/>
     </g>
    </g>
   </g>
   <g id="line2d_12">
    <path clip-path="url(#p559a322213)" d="M 104.22 73.074465 
L 104.22 71.23177 
" style="fill:none;stroke:#3f3f3f;stroke-linecap:square;stroke-width:1.5;"/>
   </g>
   <g id="line2d_13">
    <path clip-path="url(#p559a322213)" d="M 104.22 72.382053 
L 104.22 71.920262 
" style="fill:none;stroke:#3f3f3f;stroke-linecap:square;stroke-width:4.5;"/>
   </g>
   <g id="line2d_14">
    <path clip-path="url(#p559a322213)" d="M 338.58 72.889977 
L 338.58 70.948766 
" style="fill:none;stroke:#3f3f3f;stroke-linecap:square;stroke-width:1.5;"/>
   </g>
   <g id="line2d_15">
    <path clip-path="url(#p559a322213)" d="M 338.58 72.166565 
L 338.58 71.67903 
" style="fill:none;stroke:#3f3f3f;stroke-linecap:square;stroke-width:4.5;"/>
   </g>
   <g id="patch_5">
    <path d="M 54 252 
L 54 34.56 
" style="fill:none;stroke:#000000;stroke-linecap:square;stroke-linejoin:miter;stroke-width:0.8;"/>
   </g>
   <g id="patch_6">
    <path d="M 388.8 252 
L 388.8 34.56 
" style="fill:none;stroke:#000000;stroke-linecap:square;stroke-linejoin:miter;stroke-width:0.8;"/>
   </g>
   <g id="patch_7">
    <path d="M 54 252 
L 388.8 252 
" style="fill:none;stroke:#000000;stroke-linecap:square;stroke-linejoin:miter;stroke-width:0.8;"/>
   </g>
   <g id="patch_8">
    <path d="M 54 34.56 
L 388.8 34.56 
" style="fill:none;stroke:#000000;stroke-linecap:square;stroke-linejoin:miter;stroke-width:0.8;"/>
   </g>
   <g id="PathCollection_1">
    <defs>
     <path d="M 0 1.5 
C 0.397805 1.5 0.77937 1.341951 1.06066 1.06066 
C 1.341951 0.77937 1.5 0.397805 1.5 0 
C 1.5 -0.397805 1.341951 -0.77937 1.06066 -1.06066 
C 0.77937 -1.341951 0.397805 -1.5 0 -1.5 
C -0.397805 -1.5 -0.77937 -1.341951 -1.06066 -1.06066 
C -1.341951 -0.77937 -1.5 -0.397805 -1.5 0 
C -1.5 0.397805 -1.341951 0.77937 -1.06066 1.06066 
C -0.77937 1.341951 -0.397805 1.5 0 1.5 
z
" id="mdbe39ef541" style="stroke:#3f3f3f;"/>
    </defs>
    <g clip-path="url(#p559a322213)">
     <use style="fill:#ffffff;stroke:#3f3f3f;" x="104.22" xlink:href="#mdbe39ef541" y="72.080203"/>
    </g>
   </g>
   <g id="PathCollection_2">
    <g clip-path="url(#p559a322213)">
     <use style="fill:#ffffff;stroke:#3f3f3f;" x="338.58" xlink:href="#mdbe39ef541" y="71.974411"/>
    </g>
   </g>
   <g id="legend_1">
    <g id="patch_9">
     <path d="M 61 247 
L 127.759375 247 
Q 129.759375 247 129.759375 245 
L 129.759375 201.409375 
Q 129.759375 199.409375 127.759375 199.409375 
L 61 199.409375 
Q 59 199.409375 59 201.409375 
L 59 245 
Q 59 247 61 247 
z
" style="fill:#ffffff;opacity:0.8;stroke:#cccccc;stroke-linejoin:miter;"/>
    </g>
    <g id="text_14">
     <!-- set -->
     <g transform="translate(86.738281 211.007812)scale(0.1 -0.1)">
      <use xlink:href="#DejaVuSans-115"/>
      <use x="52.099609" xlink:href="#DejaVuSans-101"/>
      <use x="113.623047" xlink:href="#DejaVuSans-116"/>
     </g>
    </g>
    <g id="patch_10">
     <path d="M 63 225.685937 
L 83 225.685937 
L 83 218.685937 
L 63 218.685937 
z
" style="fill:#3274a1;stroke:#3f3f3f;stroke-linejoin:miter;stroke-width:0.75;"/>
    </g>
    <g id="text_15">
     <!-- Z_1_ns -->
     <g transform="translate(91 225.685937)scale(0.1 -0.1)">
      <use xlink:href="#DejaVuSans-90"/>
      <use x="68.505859" xlink:href="#DejaVuSans-95"/>
      <use x="118.505859" xlink:href="#DejaVuSans-49"/>
      <use x="182.128906" xlink:href="#DejaVuSans-95"/>
      <use x="232.128906" xlink:href="#DejaVuSans-110"/>
      <use x="295.507812" xlink:href="#DejaVuSans-115"/>
     </g>
    </g>
    <g id="patch_11">
     <path d="M 63 240.642188 
L 83 240.642188 
L 83 233.642188 
L 63 233.642188 
z
" style="fill:#e1812c;stroke:#3f3f3f;stroke-linejoin:miter;stroke-width:0.75;"/>
    </g>
    <g id="text_16">
     <!-- Z_2_ns -->
     <g transform="translate(91 240.642188)scale(0.1 -0.1)">
      <use xlink:href="#DejaVuSans-90"/>
      <use x="68.505859" xlink:href="#DejaVuSans-95"/>
      <use x="118.505859" xlink:href="#DejaVuSans-50"/>
      <use x="182.128906" xlink:href="#DejaVuSans-95"/>
      <use x="232.128906" xlink:href="#DejaVuSans-110"/>
      <use x="295.507812" xlink:href="#DejaVuSans-115"/>
     </g>
    </g>
   </g>
  </g>
 </g>
 <defs>
  <clipPath id="p559a322213">
   <rect height="217.44" width="334.8" x="54" y="34.56"/>
  </clipPath>
 </defs>
</svg>
