<?xml version="1.0" encoding="UTF-8" standalone="no"?>
<!DOCTYPE svg PUBLIC "-//W3C//DTD SVG 1.1//EN"
 "http://www.w3.org/Graphics/SVG/1.1/DTD/svg11.dtd">
<!-- Generated by graphviz version 2.40.1 (20161225.0304)
 -->
<!-- Title: G Pages: 1 -->
<svg width="277pt" height="2162pt"
 viewBox="0.00 0.00 277.00 2162.00" xmlns="http://www.w3.org/2000/svg" xmlns:xlink="http://www.w3.org/1999/xlink">
<g id="graph0" class="graph" transform="scale(1 1) rotate(0) translate(4 2158)">
<title>G</title>
<polygon fill="#ffffff" stroke="transparent" points="-4,4 -4,-2158 273,-2158 273,4 -4,4"/>
<!-- 140209547209360 -->
<g id="node1" class="node">
<title>140209547209360</title>
<polygon fill="none" stroke="#000000" points="72,-2117.5 72,-2153.5 197,-2153.5 197,-2117.5 72,-2117.5"/>
<text text-anchor="middle" x="134.5" y="-2131.8" font-family="Times,serif" font-size="14.00" fill="#000000">input_1: InputLayer</text>
</g>
<!-- 140209547324552 -->
<g id="node2" class="node">
<title>140209547324552</title>
<polygon fill="none" stroke="#000000" points="29,-2044.5 29,-2080.5 240,-2080.5 240,-2044.5 29,-2044.5"/>
<text text-anchor="middle" x="134.5" y="-2058.8" font-family="Times,serif" font-size="14.00" fill="#000000">zero_padding1d_1: ZeroPadding1D</text>
</g>
<!-- 140209547209360&#45;&gt;140209547324552 -->
<g id="edge1" class="edge">
<title>140209547209360&#45;&gt;140209547324552</title>
<path fill="none" stroke="#000000" d="M134.5,-2117.4551C134.5,-2109.3828 134.5,-2099.6764 134.5,-2090.6817"/>
<polygon fill="#000000" stroke="#000000" points="138.0001,-2090.5903 134.5,-2080.5904 131.0001,-2090.5904 138.0001,-2090.5903"/>
</g>
<!-- 140209547324608 -->
<g id="node3" class="node">
<title>140209547324608</title>
<polygon fill="none" stroke="#000000" points="73,-1971.5 73,-2007.5 196,-2007.5 196,-1971.5 73,-1971.5"/>
<text text-anchor="middle" x="134.5" y="-1985.8" font-family="Times,serif" font-size="14.00" fill="#000000">conv1d_1: Conv1D</text>
</g>
<!-- 140209547324552&#45;&gt;140209547324608 -->
<g id="edge2" class="edge">
<title>140209547324552&#45;&gt;140209547324608</title>
<path fill="none" stroke="#000000" d="M134.5,-2044.4551C134.5,-2036.3828 134.5,-2026.6764 134.5,-2017.6817"/>
<polygon fill="#000000" stroke="#000000" points="138.0001,-2017.5903 134.5,-2007.5904 131.0001,-2017.5904 138.0001,-2017.5903"/>
</g>
<!-- 140209547325336 -->
<g id="node4" class="node">
<title>140209547325336</title>
<polygon fill="none" stroke="#000000" points="60.5,-1898.5 60.5,-1934.5 208.5,-1934.5 208.5,-1898.5 60.5,-1898.5"/>
<text text-anchor="middle" x="134.5" y="-1912.8" font-family="Times,serif" font-size="14.00" fill="#000000">activation_1: Activation</text>
</g>
<!-- 140209547324608&#45;&gt;140209547325336 -->
<g id="edge3" class="edge">
<title>140209547324608&#45;&gt;140209547325336</title>
<path fill="none" stroke="#000000" d="M134.5,-1971.4551C134.5,-1963.3828 134.5,-1953.6764 134.5,-1944.6817"/>
<polygon fill="#000000" stroke="#000000" points="138.0001,-1944.5903 134.5,-1934.5904 131.0001,-1944.5904 138.0001,-1944.5903"/>
</g>
<!-- 140211994620480 -->
<g id="node5" class="node">
<title>140211994620480</title>
<polygon fill="none" stroke="#000000" points="73,-1825.5 73,-1861.5 196,-1861.5 196,-1825.5 73,-1825.5"/>
<text text-anchor="middle" x="134.5" y="-1839.8" font-family="Times,serif" font-size="14.00" fill="#000000">conv1d_2: Conv1D</text>
</g>
<!-- 140209547325336&#45;&gt;140211994620480 -->
<g id="edge4" class="edge">
<title>140209547325336&#45;&gt;140211994620480</title>
<path fill="none" stroke="#000000" d="M134.5,-1898.4551C134.5,-1890.3828 134.5,-1880.6764 134.5,-1871.6817"/>
<polygon fill="#000000" stroke="#000000" points="138.0001,-1871.5903 134.5,-1861.5904 131.0001,-1871.5904 138.0001,-1871.5903"/>
</g>
<!-- 140209546741352 -->
<g id="node6" class="node">
<title>140209546741352</title>
<polygon fill="none" stroke="#000000" points="60.5,-1752.5 60.5,-1788.5 208.5,-1788.5 208.5,-1752.5 60.5,-1752.5"/>
<text text-anchor="middle" x="134.5" y="-1766.8" font-family="Times,serif" font-size="14.00" fill="#000000">activation_2: Activation</text>
</g>
<!-- 140211994620480&#45;&gt;140209546741352 -->
<g id="edge5" class="edge">
<title>140211994620480&#45;&gt;140209546741352</title>
<path fill="none" stroke="#000000" d="M134.5,-1825.4551C134.5,-1817.3828 134.5,-1807.6764 134.5,-1798.6817"/>
<polygon fill="#000000" stroke="#000000" points="138.0001,-1798.5903 134.5,-1788.5904 131.0001,-1798.5904 138.0001,-1798.5903"/>
</g>
<!-- 140209546741912 -->
<g id="node7" class="node">
<title>140209546741912</title>
<polygon fill="none" stroke="#000000" points="73,-1679.5 73,-1715.5 196,-1715.5 196,-1679.5 73,-1679.5"/>
<text text-anchor="middle" x="134.5" y="-1693.8" font-family="Times,serif" font-size="14.00" fill="#000000">conv1d_3: Conv1D</text>
</g>
<!-- 140209546741352&#45;&gt;140209546741912 -->
<g id="edge6" class="edge">
<title>140209546741352&#45;&gt;140209546741912</title>
<path fill="none" stroke="#000000" d="M134.5,-1752.4551C134.5,-1744.3828 134.5,-1734.6764 134.5,-1725.6817"/>
<polygon fill="#000000" stroke="#000000" points="138.0001,-1725.5903 134.5,-1715.5904 131.0001,-1725.5904 138.0001,-1725.5903"/>
</g>
<!-- 140209546377760 -->
<g id="node8" class="node">
<title>140209546377760</title>
<polygon fill="none" stroke="#000000" points="60.5,-1606.5 60.5,-1642.5 208.5,-1642.5 208.5,-1606.5 60.5,-1606.5"/>
<text text-anchor="middle" x="134.5" y="-1620.8" font-family="Times,serif" font-size="14.00" fill="#000000">activation_3: Activation</text>
</g>
<!-- 140209546741912&#45;&gt;140209546377760 -->
<g id="edge7" class="edge">
<title>140209546741912&#45;&gt;140209546377760</title>
<path fill="none" stroke="#000000" d="M134.5,-1679.4551C134.5,-1671.3828 134.5,-1661.6764 134.5,-1652.6817"/>
<polygon fill="#000000" stroke="#000000" points="138.0001,-1652.5903 134.5,-1642.5904 131.0001,-1652.5904 138.0001,-1652.5903"/>
</g>
<!-- 140209546379048 -->
<g id="node9" class="node">
<title>140209546379048</title>
<polygon fill="none" stroke="#000000" points="73,-1533.5 73,-1569.5 196,-1569.5 196,-1533.5 73,-1533.5"/>
<text text-anchor="middle" x="134.5" y="-1547.8" font-family="Times,serif" font-size="14.00" fill="#000000">conv1d_4: Conv1D</text>
</g>
<!-- 140209546377760&#45;&gt;140209546379048 -->
<g id="edge8" class="edge">
<title>140209546377760&#45;&gt;140209546379048</title>
<path fill="none" stroke="#000000" d="M134.5,-1606.4551C134.5,-1598.3828 134.5,-1588.6764 134.5,-1579.6817"/>
<polygon fill="#000000" stroke="#000000" points="138.0001,-1579.5903 134.5,-1569.5904 131.0001,-1579.5904 138.0001,-1579.5903"/>
</g>
<!-- 140209546542216 -->
<g id="node10" class="node">
<title>140209546542216</title>
<polygon fill="none" stroke="#000000" points="60.5,-1460.5 60.5,-1496.5 208.5,-1496.5 208.5,-1460.5 60.5,-1460.5"/>
<text text-anchor="middle" x="134.5" y="-1474.8" font-family="Times,serif" font-size="14.00" fill="#000000">activation_4: Activation</text>
</g>
<!-- 140209546379048&#45;&gt;140209546542216 -->
<g id="edge9" class="edge">
<title>140209546379048&#45;&gt;140209546542216</title>
<path fill="none" stroke="#000000" d="M134.5,-1533.4551C134.5,-1525.3828 134.5,-1515.6764 134.5,-1506.6817"/>
<polygon fill="#000000" stroke="#000000" points="138.0001,-1506.5903 134.5,-1496.5904 131.0001,-1506.5904 138.0001,-1506.5903"/>
</g>
<!-- 140209546542496 -->
<g id="node11" class="node">
<title>140209546542496</title>
<polygon fill="none" stroke="#000000" points="73,-1387.5 73,-1423.5 196,-1423.5 196,-1387.5 73,-1387.5"/>
<text text-anchor="middle" x="134.5" y="-1401.8" font-family="Times,serif" font-size="14.00" fill="#000000">conv1d_5: Conv1D</text>
</g>
<!-- 140209546542216&#45;&gt;140209546542496 -->
<g id="edge10" class="edge">
<title>140209546542216&#45;&gt;140209546542496</title>
<path fill="none" stroke="#000000" d="M134.5,-1460.4551C134.5,-1452.3828 134.5,-1442.6764 134.5,-1433.6817"/>
<polygon fill="#000000" stroke="#000000" points="138.0001,-1433.5903 134.5,-1423.5904 131.0001,-1433.5904 138.0001,-1433.5903"/>
</g>
<!-- 140209546178008 -->
<g id="node12" class="node">
<title>140209546178008</title>
<polygon fill="none" stroke="#000000" points="60.5,-1314.5 60.5,-1350.5 208.5,-1350.5 208.5,-1314.5 60.5,-1314.5"/>
<text text-anchor="middle" x="134.5" y="-1328.8" font-family="Times,serif" font-size="14.00" fill="#000000">activation_5: Activation</text>
</g>
<!-- 140209546542496&#45;&gt;140209546178008 -->
<g id="edge11" class="edge">
<title>140209546542496&#45;&gt;140209546178008</title>
<path fill="none" stroke="#000000" d="M134.5,-1387.4551C134.5,-1379.3828 134.5,-1369.6764 134.5,-1360.6817"/>
<polygon fill="#000000" stroke="#000000" points="138.0001,-1360.5903 134.5,-1350.5904 131.0001,-1360.5904 138.0001,-1360.5903"/>
</g>
<!-- 140209546178512 -->
<g id="node13" class="node">
<title>140209546178512</title>
<polygon fill="none" stroke="#000000" points="73,-1241.5 73,-1277.5 196,-1277.5 196,-1241.5 73,-1241.5"/>
<text text-anchor="middle" x="134.5" y="-1255.8" font-family="Times,serif" font-size="14.00" fill="#000000">conv1d_6: Conv1D</text>
</g>
<!-- 140209546178008&#45;&gt;140209546178512 -->
<g id="edge12" class="edge">
<title>140209546178008&#45;&gt;140209546178512</title>
<path fill="none" stroke="#000000" d="M134.5,-1314.4551C134.5,-1306.3828 134.5,-1296.6764 134.5,-1287.6817"/>
<polygon fill="#000000" stroke="#000000" points="138.0001,-1287.5903 134.5,-1277.5904 131.0001,-1287.5904 138.0001,-1287.5903"/>
</g>
<!-- 140209545962048 -->
<g id="node14" class="node">
<title>140209545962048</title>
<polygon fill="none" stroke="#000000" points="60.5,-1168.5 60.5,-1204.5 208.5,-1204.5 208.5,-1168.5 60.5,-1168.5"/>
<text text-anchor="middle" x="134.5" y="-1182.8" font-family="Times,serif" font-size="14.00" fill="#000000">activation_6: Activation</text>
</g>
<!-- 140209546178512&#45;&gt;140209545962048 -->
<g id="edge13" class="edge">
<title>140209546178512&#45;&gt;140209545962048</title>
<path fill="none" stroke="#000000" d="M134.5,-1241.4551C134.5,-1233.3828 134.5,-1223.6764 134.5,-1214.6817"/>
<polygon fill="#000000" stroke="#000000" points="138.0001,-1214.5903 134.5,-1204.5904 131.0001,-1214.5904 138.0001,-1214.5903"/>
</g>
<!-- 140209545962944 -->
<g id="node15" class="node">
<title>140209545962944</title>
<polygon fill="none" stroke="#000000" points="73,-1095.5 73,-1131.5 196,-1131.5 196,-1095.5 73,-1095.5"/>
<text text-anchor="middle" x="134.5" y="-1109.8" font-family="Times,serif" font-size="14.00" fill="#000000">conv1d_7: Conv1D</text>
</g>
<!-- 140209545962048&#45;&gt;140209545962944 -->
<g id="edge14" class="edge">
<title>140209545962048&#45;&gt;140209545962944</title>
<path fill="none" stroke="#000000" d="M134.5,-1168.4551C134.5,-1160.3828 134.5,-1150.6764 134.5,-1141.6817"/>
<polygon fill="#000000" stroke="#000000" points="138.0001,-1141.5903 134.5,-1131.5904 131.0001,-1141.5904 138.0001,-1141.5903"/>
</g>
<!-- 140209545581680 -->
<g id="node16" class="node">
<title>140209545581680</title>
<polygon fill="none" stroke="#000000" points="60.5,-1022.5 60.5,-1058.5 208.5,-1058.5 208.5,-1022.5 60.5,-1022.5"/>
<text text-anchor="middle" x="134.5" y="-1036.8" font-family="Times,serif" font-size="14.00" fill="#000000">activation_7: Activation</text>
</g>
<!-- 140209545962944&#45;&gt;140209545581680 -->
<g id="edge15" class="edge">
<title>140209545962944&#45;&gt;140209545581680</title>
<path fill="none" stroke="#000000" d="M134.5,-1095.4551C134.5,-1087.3828 134.5,-1077.6764 134.5,-1068.6817"/>
<polygon fill="#000000" stroke="#000000" points="138.0001,-1068.5903 134.5,-1058.5904 131.0001,-1068.5904 138.0001,-1068.5903"/>
</g>
<!-- 140209545582576 -->
<g id="node17" class="node">
<title>140209545582576</title>
<polygon fill="none" stroke="#000000" points="73,-949.5 73,-985.5 196,-985.5 196,-949.5 73,-949.5"/>
<text text-anchor="middle" x="134.5" y="-963.8" font-family="Times,serif" font-size="14.00" fill="#000000">conv1d_8: Conv1D</text>
</g>
<!-- 140209545581680&#45;&gt;140209545582576 -->
<g id="edge16" class="edge">
<title>140209545581680&#45;&gt;140209545582576</title>
<path fill="none" stroke="#000000" d="M134.5,-1022.4551C134.5,-1014.3828 134.5,-1004.6764 134.5,-995.6817"/>
<polygon fill="#000000" stroke="#000000" points="138.0001,-995.5903 134.5,-985.5904 131.0001,-995.5904 138.0001,-995.5903"/>
</g>
<!-- 140209545698272 -->
<g id="node18" class="node">
<title>140209545698272</title>
<polygon fill="none" stroke="#000000" points="60.5,-876.5 60.5,-912.5 208.5,-912.5 208.5,-876.5 60.5,-876.5"/>
<text text-anchor="middle" x="134.5" y="-890.8" font-family="Times,serif" font-size="14.00" fill="#000000">activation_8: Activation</text>
</g>
<!-- 140209545582576&#45;&gt;140209545698272 -->
<g id="edge17" class="edge">
<title>140209545582576&#45;&gt;140209545698272</title>
<path fill="none" stroke="#000000" d="M134.5,-949.4551C134.5,-941.3828 134.5,-931.6764 134.5,-922.6817"/>
<polygon fill="#000000" stroke="#000000" points="138.0001,-922.5903 134.5,-912.5904 131.0001,-922.5904 138.0001,-922.5903"/>
</g>
<!-- 140209545698608 -->
<g id="node19" class="node">
<title>140209545698608</title>
<polygon fill="none" stroke="#000000" points="73,-803.5 73,-839.5 196,-839.5 196,-803.5 73,-803.5"/>
<text text-anchor="middle" x="134.5" y="-817.8" font-family="Times,serif" font-size="14.00" fill="#000000">lambda_1: Lambda</text>
</g>
<!-- 140209545698272&#45;&gt;140209545698608 -->
<g id="edge18" class="edge">
<title>140209545698272&#45;&gt;140209545698608</title>
<path fill="none" stroke="#000000" d="M134.5,-876.4551C134.5,-868.3828 134.5,-858.6764 134.5,-849.6817"/>
<polygon fill="#000000" stroke="#000000" points="138.0001,-849.5903 134.5,-839.5904 131.0001,-849.5904 138.0001,-849.5903"/>
</g>
<!-- 140209545325872 -->
<g id="node20" class="node">
<title>140209545325872</title>
<polygon fill="none" stroke="#000000" points="72,-730.5 72,-766.5 197,-766.5 197,-730.5 72,-730.5"/>
<text text-anchor="middle" x="134.5" y="-744.8" font-family="Times,serif" font-size="14.00" fill="#000000">reshape_5: Reshape</text>
</g>
<!-- 140209545698608&#45;&gt;140209545325872 -->
<g id="edge19" class="edge">
<title>140209545698608&#45;&gt;140209545325872</title>
<path fill="none" stroke="#000000" d="M134.5,-803.4551C134.5,-795.3828 134.5,-785.6764 134.5,-776.6817"/>
<polygon fill="#000000" stroke="#000000" points="138.0001,-776.5903 134.5,-766.5904 131.0001,-776.5904 138.0001,-776.5903"/>
</g>
<!-- 140208678428232 -->
<g id="node21" class="node">
<title>140208678428232</title>
<polygon fill="none" stroke="#000000" points="0,-657.5 0,-693.5 269,-693.5 269,-657.5 0,-657.5"/>
<text text-anchor="middle" x="134.5" y="-671.8" font-family="Times,serif" font-size="14.00" fill="#000000">bidirectional_1(lstm_1): Bidirectional(LSTM)</text>
</g>
<!-- 140209545325872&#45;&gt;140208678428232 -->
<g id="edge20" class="edge">
<title>140209545325872&#45;&gt;140208678428232</title>
<path fill="none" stroke="#000000" d="M134.5,-730.4551C134.5,-722.3828 134.5,-712.6764 134.5,-703.6817"/>
<polygon fill="#000000" stroke="#000000" points="138.0001,-703.5903 134.5,-693.5904 131.0001,-703.5904 138.0001,-703.5903"/>
</g>
<!-- 140208205556088 -->
<g id="node22" class="node">
<title>140208205556088</title>
<polygon fill="none" stroke="#000000" points="0,-584.5 0,-620.5 269,-620.5 269,-584.5 0,-584.5"/>
<text text-anchor="middle" x="134.5" y="-598.8" font-family="Times,serif" font-size="14.00" fill="#000000">bidirectional_2(lstm_2): Bidirectional(LSTM)</text>
</g>
<!-- 140208678428232&#45;&gt;140208205556088 -->
<g id="edge21" class="edge">
<title>140208678428232&#45;&gt;140208205556088</title>
<path fill="none" stroke="#000000" d="M134.5,-657.4551C134.5,-649.3828 134.5,-639.6764 134.5,-630.6817"/>
<polygon fill="#000000" stroke="#000000" points="138.0001,-630.5903 134.5,-620.5904 131.0001,-630.5904 138.0001,-630.5903"/>
</g>
<!-- 140206962377112 -->
<g id="node23" class="node">
<title>140206962377112</title>
<polygon fill="none" stroke="#000000" points="0,-511.5 0,-547.5 269,-547.5 269,-511.5 0,-511.5"/>
<text text-anchor="middle" x="134.5" y="-525.8" font-family="Times,serif" font-size="14.00" fill="#000000">bidirectional_3(lstm_3): Bidirectional(LSTM)</text>
</g>
<!-- 140208205556088&#45;&gt;140206962377112 -->
<g id="edge22" class="edge">
<title>140208205556088&#45;&gt;140206962377112</title>
<path fill="none" stroke="#000000" d="M134.5,-584.4551C134.5,-576.3828 134.5,-566.6764 134.5,-557.6817"/>
<polygon fill="#000000" stroke="#000000" points="138.0001,-557.5903 134.5,-547.5904 131.0001,-557.5904 138.0001,-557.5903"/>
</g>
<!-- 140206956631824 -->
<g id="node24" class="node">
<title>140206956631824</title>
<polygon fill="none" stroke="#000000" points="0,-438.5 0,-474.5 269,-474.5 269,-438.5 0,-438.5"/>
<text text-anchor="middle" x="134.5" y="-452.8" font-family="Times,serif" font-size="14.00" fill="#000000">bidirectional_4(lstm_4): Bidirectional(LSTM)</text>
</g>
<!-- 140206962377112&#45;&gt;140206956631824 -->
<g id="edge23" class="edge">
<title>140206962377112&#45;&gt;140206956631824</title>
<path fill="none" stroke="#000000" d="M134.5,-511.4551C134.5,-503.3828 134.5,-493.6764 134.5,-484.6817"/>
<polygon fill="#000000" stroke="#000000" points="138.0001,-484.5903 134.5,-474.5904 131.0001,-484.5904 138.0001,-484.5903"/>
</g>
<!-- 140206952974432 -->
<g id="node25" class="node">
<title>140206952974432</title>
<polygon fill="none" stroke="#000000" points="0,-365.5 0,-401.5 269,-401.5 269,-365.5 0,-365.5"/>
<text text-anchor="middle" x="134.5" y="-379.8" font-family="Times,serif" font-size="14.00" fill="#000000">bidirectional_5(lstm_5): Bidirectional(LSTM)</text>
</g>
<!-- 140206956631824&#45;&gt;140206952974432 -->
<g id="edge24" class="edge">
<title>140206956631824&#45;&gt;140206952974432</title>
<path fill="none" stroke="#000000" d="M134.5,-438.4551C134.5,-430.3828 134.5,-420.6764 134.5,-411.6817"/>
<polygon fill="#000000" stroke="#000000" points="138.0001,-411.5903 134.5,-401.5904 131.0001,-411.5904 138.0001,-411.5903"/>
</g>
<!-- 140206950889232 -->
<g id="node26" class="node">
<title>140206950889232</title>
<polygon fill="none" stroke="#000000" points="83.5,-292.5 83.5,-328.5 185.5,-328.5 185.5,-292.5 83.5,-292.5"/>
<text text-anchor="middle" x="134.5" y="-306.8" font-family="Times,serif" font-size="14.00" fill="#000000">dense_1: Dense</text>
</g>
<!-- 140206952974432&#45;&gt;140206950889232 -->
<g id="edge25" class="edge">
<title>140206952974432&#45;&gt;140206950889232</title>
<path fill="none" stroke="#000000" d="M134.5,-365.4551C134.5,-357.3828 134.5,-347.6764 134.5,-338.6817"/>
<polygon fill="#000000" stroke="#000000" points="138.0001,-338.5903 134.5,-328.5904 131.0001,-338.5904 138.0001,-338.5903"/>
</g>
<!-- 140206947699848 -->
<g id="node27" class="node">
<title>140206947699848</title>
<polygon fill="none" stroke="#000000" points="6,-219.5 6,-255.5 263,-255.5 263,-219.5 6,-219.5"/>
<text text-anchor="middle" x="134.5" y="-233.8" font-family="Times,serif" font-size="14.00" fill="#000000">layer_normalization_1: LayerNormalization</text>
</g>
<!-- 140206950889232&#45;&gt;140206947699848 -->
<g id="edge26" class="edge">
<title>140206950889232&#45;&gt;140206947699848</title>
<path fill="none" stroke="#000000" d="M134.5,-292.4551C134.5,-284.3828 134.5,-274.6764 134.5,-265.6817"/>
<polygon fill="#000000" stroke="#000000" points="138.0001,-265.5903 134.5,-255.5904 131.0001,-265.5904 138.0001,-265.5903"/>
</g>
<!-- 140206945957256 -->
<g id="node28" class="node">
<title>140206945957256</title>
<polygon fill="none" stroke="#000000" points="73,-146.5 73,-182.5 196,-182.5 196,-146.5 73,-146.5"/>
<text text-anchor="middle" x="134.5" y="-160.8" font-family="Times,serif" font-size="14.00" fill="#000000">lambda_2: Lambda</text>
</g>
<!-- 140206947699848&#45;&gt;140206945957256 -->
<g id="edge27" class="edge">
<title>140206947699848&#45;&gt;140206945957256</title>
<path fill="none" stroke="#000000" d="M134.5,-219.4551C134.5,-211.3828 134.5,-201.6764 134.5,-192.6817"/>
<polygon fill="#000000" stroke="#000000" points="138.0001,-192.5903 134.5,-182.5904 131.0001,-192.5904 138.0001,-192.5903"/>
</g>
<!-- 140206946127152 -->
<g id="node29" class="node">
<title>140206946127152</title>
<polygon fill="none" stroke="#000000" points="73,-73.5 73,-109.5 196,-109.5 196,-73.5 73,-73.5"/>
<text text-anchor="middle" x="134.5" y="-87.8" font-family="Times,serif" font-size="14.00" fill="#000000">lambda_3: Lambda</text>
</g>
<!-- 140206945957256&#45;&gt;140206946127152 -->
<g id="edge28" class="edge">
<title>140206945957256&#45;&gt;140206946127152</title>
<path fill="none" stroke="#000000" d="M134.5,-146.4551C134.5,-138.3828 134.5,-128.6764 134.5,-119.6817"/>
<polygon fill="#000000" stroke="#000000" points="138.0001,-119.5903 134.5,-109.5904 131.0001,-119.5904 138.0001,-119.5903"/>
</g>
<!-- 140206944075336 -->
<g id="node30" class="node">
<title>140206944075336</title>
<polygon fill="none" stroke="#000000" points="73,-.5 73,-36.5 196,-36.5 196,-.5 73,-.5"/>
<text text-anchor="middle" x="134.5" y="-14.8" font-family="Times,serif" font-size="14.00" fill="#000000">lambda_4: Lambda</text>
</g>
<!-- 140206946127152&#45;&gt;140206944075336 -->
<g id="edge29" class="edge">
<title>140206946127152&#45;&gt;140206944075336</title>
<path fill="none" stroke="#000000" d="M134.5,-73.4551C134.5,-65.3828 134.5,-55.6764 134.5,-46.6817"/>
<polygon fill="#000000" stroke="#000000" points="138.0001,-46.5903 134.5,-36.5904 131.0001,-46.5904 138.0001,-46.5903"/>
</g>
</g>
</svg>
