<?xml version="1.0" encoding="utf-8" standalone="no"?>
<!DOCTYPE svg PUBLIC "-//W3C//DTD SVG 1.1//EN"
  "http://www.w3.org/Graphics/SVG/1.1/DTD/svg11.dtd">
<!-- Created with matplotlib (https://matplotlib.org/) -->
<svg height="288pt" version="1.1" viewBox="0 0 432 288" width="432pt" xmlns="http://www.w3.org/2000/svg" xmlns:xlink="http://www.w3.org/1999/xlink">
 <metadata>
  <rdf:RDF xmlns:cc="http://creativecommons.org/ns#" xmlns:dc="http://purl.org/dc/elements/1.1/" xmlns:rdf="http://www.w3.org/1999/02/22-rdf-syntax-ns#">
   <cc:Work>
    <dc:type rdf:resource="http://purl.org/dc/dcmitype/StillImage"/>
    <dc:date>2022-05-07T18:22:53.336590</dc:date>
    <dc:format>image/svg+xml</dc:format>
    <dc:creator>
     <cc:Agent>
      <dc:title>Matplotlib v3.3.4, https://matplotlib.org/</dc:title>
     </cc:Agent>
    </dc:creator>
   </cc:Work>
  </rdf:RDF>
 </metadata>
 <defs>
  <style type="text/css">*{stroke-linecap:butt;stroke-linejoin:round;}</style>
 </defs>
 <g id="figure_1">
  <g id="patch_1">
   <path d="M 0 288 
L 432 288 
L 432 0 
L 0 0 
z
" style="fill:#ffffff;"/>
  </g>
  <g id="axes_1">
   <g id="patch_2">
    <path d="M 54 252 
L 388.8 252 
L 388.8 34.56 
L 54 34.56 
z
" style="fill:#ffffff;"/>
   </g>
   <g id="PolyCollection_1">
    <defs>
     <path d="M 80.068512 -45.883636 
L 80.011488 -45.883636 
L 80.009406 -47.560521 
L 80.009353 -49.237406 
L 80.010523 -50.914291 
L 80.011267 -52.591176 
L 80.009451 -54.268061 
L 80.002993 -55.944946 
L 79.990433 -57.621831 
L 79.971358 -59.298716 
L 79.946584 -60.975601 
L 79.918025 -62.652486 
L 79.888252 -64.329371 
L 79.85984 -66.006256 
L 79.834708 -67.683141 
L 79.813761 -69.360026 
L 79.796993 -71.036911 
L 79.783992 -72.713796 
L 79.774447 -74.390681 
L 79.768222 -76.067566 
L 79.764894 -77.744451 
L 79.763138 -79.421336 
L 79.760581 -81.098221 
L 79.754453 -82.775106 
L 79.742703 -84.451991 
L 79.724779 -86.128876 
L 79.701515 -87.80576 
L 79.674227 -89.482645 
L 79.643724 -91.15953 
L 79.609781 -92.836415 
L 79.571078 -94.5133 
L 79.525233 -96.190185 
L 79.468871 -97.86707 
L 79.398187 -99.543955 
L 79.310392 -101.22084 
L 79.205619 -102.897725 
L 79.087961 -104.57461 
L 78.964509 -106.251495 
L 78.842516 -107.92838 
L 78.726241 -109.605265 
L 78.615321 -111.28215 
L 78.505409 -112.959035 
L 78.390269 -114.63592 
L 78.263823 -116.312805 
L 78.121252 -117.98969 
L 77.959403 -119.666575 
L 77.777294 -121.34346 
L 77.576881 -123.020345 
L 77.363313 -124.69723 
L 77.143796 -126.374115 
L 76.925214 -128.051 
L 76.711975 -129.727885 
L 76.505797 -131.40477 
L 76.307905 -133.081655 
L 76.122242 -134.75854 
L 75.957223 -136.435424 
L 75.824075 -138.112309 
L 75.731812 -139.789194 
L 75.681139 -141.466079 
L 75.660794 -143.142964 
L 75.648968 -144.819849 
L 75.619899 -146.496734 
L 75.552795 -148.173619 
L 75.438819 -149.850504 
L 75.282846 -151.527389 
L 75.099577 -153.204274 
L 74.906356 -154.881159 
L 74.715972 -156.558044 
L 74.531497 -158.234929 
L 74.343518 -159.911814 
L 74.129593 -161.588699 
L 73.856584 -163.265584 
L 73.486748 -164.942469 
L 72.986908 -166.619354 
L 72.33773 -168.296239 
L 71.539687 -169.973124 
L 70.614334 -171.650009 
L 69.602115 -173.326894 
L 68.558483 -175.003779 
L 67.548935 -176.680664 
L 66.642772 -178.357549 
L 65.906227 -180.034434 
L 65.396803 -181.711319 
L 65.16 -183.388204 
L 65.227467 -185.065088 
L 65.614357 -186.741973 
L 66.315189 -188.418858 
L 67.300444 -190.095743 
L 68.517193 -191.772628 
L 69.894977 -193.449513 
L 71.354941 -195.126398 
L 72.819035 -196.803283 
L 74.217347 -198.480168 
L 75.493396 -200.157053 
L 76.607646 -201.833938 
L 77.538997 -203.510823 
L 78.283941 -205.187708 
L 78.853611 -206.864593 
L 79.269585 -208.541478 
L 79.559296 -210.218363 
L 79.75169 -211.895248 
L 80.32831 -211.895248 
L 80.32831 -211.895248 
L 80.520704 -210.218363 
L 80.810415 -208.541478 
L 81.226389 -206.864593 
L 81.796059 -205.187708 
L 82.541003 -203.510823 
L 83.472354 -201.833938 
L 84.586604 -200.157053 
L 85.862653 -198.480168 
L 87.260965 -196.803283 
L 88.725059 -195.126398 
L 90.185023 -193.449513 
L 91.562807 -191.772628 
L 92.779556 -190.095743 
L 93.764811 -188.418858 
L 94.465643 -186.741973 
L 94.852533 -185.065088 
L 94.92 -183.388204 
L 94.683197 -181.711319 
L 94.173773 -180.034434 
L 93.437228 -178.357549 
L 92.531065 -176.680664 
L 91.521517 -175.003779 
L 90.477885 -173.326894 
L 89.465666 -171.650009 
L 88.540313 -169.973124 
L 87.74227 -168.296239 
L 87.093092 -166.619354 
L 86.593252 -164.942469 
L 86.223416 -163.265584 
L 85.950407 -161.588699 
L 85.736482 -159.911814 
L 85.548503 -158.234929 
L 85.364028 -156.558044 
L 85.173644 -154.881159 
L 84.980423 -153.204274 
L 84.797154 -151.527389 
L 84.641181 -149.850504 
L 84.527205 -148.173619 
L 84.460101 -146.496734 
L 84.431032 -144.819849 
L 84.419206 -143.142964 
L 84.398861 -141.466079 
L 84.348188 -139.789194 
L 84.255925 -138.112309 
L 84.122777 -136.435424 
L 83.957758 -134.75854 
L 83.772095 -133.081655 
L 83.574203 -131.40477 
L 83.368025 -129.727885 
L 83.154786 -128.051 
L 82.936204 -126.374115 
L 82.716687 -124.69723 
L 82.503119 -123.020345 
L 82.302706 -121.34346 
L 82.120597 -119.666575 
L 81.958748 -117.98969 
L 81.816177 -116.312805 
L 81.689731 -114.63592 
L 81.574591 -112.959035 
L 81.464679 -111.28215 
L 81.353759 -109.605265 
L 81.237484 -107.92838 
L 81.115491 -106.251495 
L 80.992039 -104.57461 
L 80.874381 -102.897725 
L 80.769608 -101.22084 
L 80.681813 -99.543955 
L 80.611129 -97.86707 
L 80.554767 -96.190185 
L 80.508922 -94.5133 
L 80.470219 -92.836415 
L 80.436276 -91.15953 
L 80.405773 -89.482645 
L 80.378485 -87.80576 
L 80.355221 -86.128876 
L 80.337297 -84.451991 
L 80.325547 -82.775106 
L 80.319419 -81.098221 
L 80.316862 -79.421336 
L 80.315106 -77.744451 
L 80.311778 -76.067566 
L 80.305553 -74.390681 
L 80.296008 -72.713796 
L 80.283007 -71.036911 
L 80.266239 -69.360026 
L 80.245292 -67.683141 
L 80.22016 -66.006256 
L 80.191748 -64.329371 
L 80.161975 -62.652486 
L 80.133416 -60.975601 
L 80.108642 -59.298716 
L 80.089567 -57.621831 
L 80.077007 -55.944946 
L 80.070549 -54.268061 
L 80.068733 -52.591176 
L 80.069477 -50.914291 
L 80.070647 -49.237406 
L 80.070594 -47.560521 
L 80.068512 -45.883636 
z
" id="m0a0df4ec47" style="stroke:#3d3d3d;stroke-width:1.5;"/>
    </defs>
    <g clip-path="url(#pe17ab2c56b)">
     <use style="fill:#3274a1;stroke:#3d3d3d;stroke-width:1.5;" x="0" xlink:href="#m0a0df4ec47" y="288"/>
    </g>
   </g>
   <g id="PolyCollection_2">
    <defs>
     <path d="M 221.428184 -114.112282 
L 221.371816 -114.112282 
L 221.367756 -115.419798 
L 221.364714 -116.727314 
L 221.361832 -118.03483 
L 221.357882 -119.342346 
L 221.351967 -120.649862 
L 221.344199 -121.957378 
L 221.335778 -123.264894 
L 221.328198 -124.57241 
L 221.322075 -125.879926 
L 221.316556 -127.187442 
L 221.30986 -128.494958 
L 221.300468 -129.802474 
L 221.287933 -131.10999 
L 221.272775 -132.417506 
L 221.255908 -133.725022 
L 221.238354 -135.032538 
L 221.221446 -136.340054 
L 221.206867 -137.64757 
L 221.195965 -138.955086 
L 221.188533 -140.262602 
L 221.182122 -141.570118 
L 221.172712 -142.877634 
L 221.156543 -144.18515 
L 221.131927 -145.492666 
L 221.099878 -146.800182 
L 221.063295 -148.107698 
L 221.025405 -149.415214 
L 220.988576 -150.72273 
L 220.954048 -152.030246 
L 220.922281 -153.337762 
L 220.893097 -154.645278 
L 220.865224 -155.952794 
L 220.835847 -157.26031 
L 220.801121 -158.567825 
L 220.757738 -159.875341 
L 220.704481 -161.182857 
L 220.642671 -162.490373 
L 220.575439 -163.797889 
L 220.506565 -165.105405 
L 220.439369 -166.412921 
L 220.375481 -167.720437 
L 220.313324 -169.027953 
L 220.24709 -170.335469 
L 220.167751 -171.642985 
L 220.066897 -172.950501 
L 219.941741 -174.258017 
L 219.797607 -175.565533 
L 219.645417 -176.873049 
L 219.495701 -178.180565 
L 219.353717 -179.488081 
L 219.218681 -180.795597 
L 219.085884 -182.103113 
L 218.948391 -183.410629 
L 218.797361 -184.718145 
L 218.622909 -186.025661 
L 218.416882 -187.333177 
L 218.175796 -188.640693 
L 217.901311 -189.948209 
L 217.598547 -191.255725 
L 217.275141 -192.563241 
L 216.941994 -193.870757 
L 216.612428 -195.178273 
L 216.2963 -196.485789 
L 215.99115 -197.793305 
L 215.677742 -199.100821 
L 215.325442 -200.408337 
L 214.90511 -201.715853 
L 214.401239 -203.023369 
L 213.816587 -204.330884 
L 213.168654 -205.6384 
L 212.481498 -206.945916 
L 211.776676 -208.253432 
L 211.066705 -209.560948 
L 210.354459 -210.868464 
L 209.639628 -212.17598 
L 208.928621 -213.483496 
L 208.241796 -214.791012 
L 207.614323 -216.098528 
L 207.090714 -217.406044 
L 206.714977 -218.71356 
L 206.52 -220.021076 
L 206.52225 -221.328592 
L 206.726586 -222.636108 
L 207.138082 -223.943624 
L 207.769609 -225.25114 
L 208.635587 -226.558656 
L 209.73422 -227.866172 
L 211.031544 -229.173688 
L 212.460012 -230.481204 
L 213.932922 -231.78872 
L 215.364791 -233.096236 
L 216.686301 -234.403752 
L 217.849638 -235.711268 
L 218.827608 -237.018784 
L 219.611388 -238.3263 
L 220.208529 -239.633816 
L 220.640052 -240.941332 
L 220.935697 -242.248848 
L 221.128042 -243.556364 
L 221.671958 -243.556364 
L 221.671958 -243.556364 
L 221.864303 -242.248848 
L 222.159948 -240.941332 
L 222.591471 -239.633816 
L 223.188612 -238.3263 
L 223.972392 -237.018784 
L 224.950362 -235.711268 
L 226.113699 -234.403752 
L 227.435209 -233.096236 
L 228.867078 -231.78872 
L 230.339988 -230.481204 
L 231.768456 -229.173688 
L 233.06578 -227.866172 
L 234.164413 -226.558656 
L 235.030391 -225.25114 
L 235.661918 -223.943624 
L 236.073414 -222.636108 
L 236.27775 -221.328592 
L 236.28 -220.021076 
L 236.085023 -218.71356 
L 235.709286 -217.406044 
L 235.185677 -216.098528 
L 234.558204 -214.791012 
L 233.871379 -213.483496 
L 233.160372 -212.17598 
L 232.445541 -210.868464 
L 231.733295 -209.560948 
L 231.023324 -208.253432 
L 230.318502 -206.945916 
L 229.631346 -205.6384 
L 228.983413 -204.330884 
L 228.398761 -203.023369 
L 227.89489 -201.715853 
L 227.474558 -200.408337 
L 227.122258 -199.100821 
L 226.80885 -197.793305 
L 226.5037 -196.485789 
L 226.187572 -195.178273 
L 225.858006 -193.870757 
L 225.524859 -192.563241 
L 225.201453 -191.255725 
L 224.898689 -189.948209 
L 224.624204 -188.640693 
L 224.383118 -187.333177 
L 224.177091 -186.025661 
L 224.002639 -184.718145 
L 223.851609 -183.410629 
L 223.714116 -182.103113 
L 223.581319 -180.795597 
L 223.446283 -179.488081 
L 223.304299 -178.180565 
L 223.154583 -176.873049 
L 223.002393 -175.565533 
L 222.858259 -174.258017 
L 222.733103 -172.950501 
L 222.632249 -171.642985 
L 222.55291 -170.335469 
L 222.486676 -169.027953 
L 222.424519 -167.720437 
L 222.360631 -166.412921 
L 222.293435 -165.105405 
L 222.224561 -163.797889 
L 222.157329 -162.490373 
L 222.095519 -161.182857 
L 222.042262 -159.875341 
L 221.998879 -158.567825 
L 221.964153 -157.26031 
L 221.934776 -155.952794 
L 221.906903 -154.645278 
L 221.877719 -153.337762 
L 221.845952 -152.030246 
L 221.811424 -150.72273 
L 221.774595 -149.415214 
L 221.736705 -148.107698 
L 221.700122 -146.800182 
L 221.668073 -145.492666 
L 221.643457 -144.18515 
L 221.627288 -142.877634 
L 221.617878 -141.570118 
L 221.611467 -140.262602 
L 221.604035 -138.955086 
L 221.593133 -137.64757 
L 221.578554 -136.340054 
L 221.561646 -135.032538 
L 221.544092 -133.725022 
L 221.527225 -132.417506 
L 221.512067 -131.10999 
L 221.499532 -129.802474 
L 221.49014 -128.494958 
L 221.483444 -127.187442 
L 221.477925 -125.879926 
L 221.471802 -124.57241 
L 221.464222 -123.264894 
L 221.455801 -121.957378 
L 221.448033 -120.649862 
L 221.442118 -119.342346 
L 221.438168 -118.03483 
L 221.435286 -116.727314 
L 221.432244 -115.419798 
L 221.428184 -114.112282 
z
" id="mbe53eebed6" style="stroke:#3d3d3d;stroke-width:1.5;"/>
    </defs>
    <g clip-path="url(#pe17ab2c56b)">
     <use style="fill:#e1812c;stroke:#3d3d3d;stroke-width:1.5;" x="0" xlink:href="#mbe53eebed6" y="288"/>
    </g>
   </g>
   <g id="PolyCollection_3">
    <defs>
     <path d="M 362.776037 -59.851578 
L 362.743963 -59.851578 
L 362.744962 -61.446096 
L 362.747598 -63.040613 
L 362.750994 -64.635131 
L 362.754201 -66.229648 
L 362.756567 -67.824166 
L 362.757804 -69.418683 
L 362.757819 -71.013201 
L 362.756502 -72.607718 
L 362.753654 -74.202235 
L 362.749097 -75.796753 
L 362.742849 -77.39127 
L 362.735207 -78.985788 
L 362.72663 -80.580305 
L 362.717464 -82.174823 
L 362.707674 -83.76934 
L 362.69674 -85.363858 
L 362.683831 -86.958375 
L 362.668303 -88.552893 
L 362.650401 -90.14741 
L 362.631762 -91.741927 
L 362.615122 -93.336445 
L 362.603068 -94.930962 
L 362.596503 -96.52548 
L 362.593945 -98.119997 
L 362.5922 -99.714515 
L 362.587829 -101.309032 
L 362.578281 -102.90355 
L 362.562112 -104.498067 
L 362.538655 -106.092585 
L 362.507946 -107.687102 
L 362.471186 -109.281619 
L 362.431222 -110.876137 
L 362.392139 -112.470654 
L 362.357666 -114.065172 
L 362.329168 -115.659689 
L 362.304631 -117.254207 
L 362.279411 -118.848724 
L 362.248263 -120.443242 
L 362.207206 -122.037759 
L 362.154201 -123.632277 
L 362.088867 -125.226794 
L 362.012322 -126.821312 
L 361.927679 -128.415829 
L 361.84032 -130.010346 
L 361.756575 -131.604864 
L 361.680693 -133.199381 
L 361.611933 -134.793899 
L 361.543971 -136.388416 
L 361.467056 -137.982934 
L 361.371299 -139.577451 
L 361.249084 -141.171969 
L 361.096189 -142.766486 
L 360.91269 -144.361004 
L 360.704695 -145.955521 
L 360.486154 -147.550038 
L 360.278399 -149.144556 
L 360.105209 -150.739073 
L 359.983798 -152.333591 
L 359.915564 -153.928108 
L 359.882087 -155.522626 
L 359.849723 -157.117143 
L 359.781288 -158.711661 
L 359.649168 -160.306178 
L 359.44372 -161.900696 
L 359.173829 -163.495213 
L 358.860591 -165.08973 
L 358.527948 -166.684248 
L 358.194772 -168.278765 
L 357.871327 -169.873283 
L 357.560148 -171.4678 
L 357.259106 -173.062318 
L 356.964138 -174.656835 
L 356.670288 -176.251353 
L 356.370646 -177.84587 
L 356.053482 -179.440388 
L 355.699502 -181.034905 
L 355.283138 -182.629423 
L 354.780588 -184.22394 
L 354.181415 -185.818457 
L 353.495052 -187.412975 
L 352.745845 -189.007492 
L 351.960328 -190.60201 
L 351.158044 -192.196527 
L 350.353964 -193.791045 
L 349.570188 -195.385562 
L 348.848648 -196.98008 
L 348.258782 -198.574597 
L 347.897748 -200.169115 
L 347.88 -201.763632 
L 348.312262 -203.358149 
L 349.256299 -204.952667 
L 350.693479 -206.547184 
L 352.511076 -208.141702 
L 354.522487 -209.736219 
L 356.515374 -211.330737 
L 358.306204 -212.925254 
L 359.778023 -214.519772 
L 360.890402 -216.114289 
L 361.665739 -217.708807 
L 363.854261 -217.708807 
L 363.854261 -217.708807 
L 364.629598 -216.114289 
L 365.741977 -214.519772 
L 367.213796 -212.925254 
L 369.004626 -211.330737 
L 370.997513 -209.736219 
L 373.008924 -208.141702 
L 374.826521 -206.547184 
L 376.263701 -204.952667 
L 377.207738 -203.358149 
L 377.64 -201.763632 
L 377.622252 -200.169115 
L 377.261218 -198.574597 
L 376.671352 -196.98008 
L 375.949812 -195.385562 
L 375.166036 -193.791045 
L 374.361956 -192.196527 
L 373.559672 -190.60201 
L 372.774155 -189.007492 
L 372.024948 -187.412975 
L 371.338585 -185.818457 
L 370.739412 -184.22394 
L 370.236862 -182.629423 
L 369.820498 -181.034905 
L 369.466518 -179.440388 
L 369.149354 -177.84587 
L 368.849712 -176.251353 
L 368.555862 -174.656835 
L 368.260894 -173.062318 
L 367.959852 -171.4678 
L 367.648673 -169.873283 
L 367.325228 -168.278765 
L 366.992052 -166.684248 
L 366.659409 -165.08973 
L 366.346171 -163.495213 
L 366.07628 -161.900696 
L 365.870832 -160.306178 
L 365.738712 -158.711661 
L 365.670277 -157.117143 
L 365.637913 -155.522626 
L 365.604436 -153.928108 
L 365.536202 -152.333591 
L 365.414791 -150.739073 
L 365.241601 -149.144556 
L 365.033846 -147.550038 
L 364.815305 -145.955521 
L 364.60731 -144.361004 
L 364.423811 -142.766486 
L 364.270916 -141.171969 
L 364.148701 -139.577451 
L 364.052944 -137.982934 
L 363.976029 -136.388416 
L 363.908067 -134.793899 
L 363.839307 -133.199381 
L 363.763425 -131.604864 
L 363.67968 -130.010346 
L 363.592321 -128.415829 
L 363.507678 -126.821312 
L 363.431133 -125.226794 
L 363.365799 -123.632277 
L 363.312794 -122.037759 
L 363.271737 -120.443242 
L 363.240589 -118.848724 
L 363.215369 -117.254207 
L 363.190832 -115.659689 
L 363.162334 -114.065172 
L 363.127861 -112.470654 
L 363.088778 -110.876137 
L 363.048814 -109.281619 
L 363.012054 -107.687102 
L 362.981345 -106.092585 
L 362.957888 -104.498067 
L 362.941719 -102.90355 
L 362.932171 -101.309032 
L 362.9278 -99.714515 
L 362.926055 -98.119997 
L 362.923497 -96.52548 
L 362.916932 -94.930962 
L 362.904878 -93.336445 
L 362.888238 -91.741927 
L 362.869599 -90.14741 
L 362.851697 -88.552893 
L 362.836169 -86.958375 
L 362.82326 -85.363858 
L 362.812326 -83.76934 
L 362.802536 -82.174823 
L 362.79337 -80.580305 
L 362.784793 -78.985788 
L 362.777151 -77.39127 
L 362.770903 -75.796753 
L 362.766346 -74.202235 
L 362.763498 -72.607718 
L 362.762181 -71.013201 
L 362.762196 -69.418683 
L 362.763433 -67.824166 
L 362.765799 -66.229648 
L 362.769006 -64.635131 
L 362.772402 -63.040613 
L 362.775038 -61.446096 
L 362.776037 -59.851578 
z
" id="m0b24ff1696" style="stroke:#3d3d3d;stroke-width:1.5;"/>
    </defs>
    <g clip-path="url(#pe17ab2c56b)">
     <use style="fill:#3a923a;stroke:#3d3d3d;stroke-width:1.5;" x="0" xlink:href="#m0b24ff1696" y="288"/>
    </g>
   </g>
   <g id="patch_3">
    <path clip-path="url(#pe17ab2c56b)" d="M 109.8 53.570502 
L 109.8 53.570502 
L 109.8 53.570502 
L 109.8 53.570502 
z
" style="fill:#3274a1;stroke:#3d3d3d;stroke-linejoin:miter;stroke-width:0.75;"/>
   </g>
   <g id="patch_4">
    <path clip-path="url(#pe17ab2c56b)" d="M 109.8 53.570502 
L 109.8 53.570502 
L 109.8 53.570502 
L 109.8 53.570502 
z
" style="fill:#e1812c;stroke:#3d3d3d;stroke-linejoin:miter;stroke-width:0.75;"/>
   </g>
   <g id="patch_5">
    <path clip-path="url(#pe17ab2c56b)" d="M 109.8 53.570502 
L 109.8 53.570502 
L 109.8 53.570502 
L 109.8 53.570502 
z
" style="fill:#3a923a;stroke:#3d3d3d;stroke-linejoin:miter;stroke-width:0.75;"/>
   </g>
   <g id="matplotlib.axis_1">
    <g id="xtick_1">
     <g id="line2d_1">
      <defs>
       <path d="M 0 0 
L 0 3.5 
" id="m886ae86443" style="stroke:#000000;stroke-width:0.8;"/>
      </defs>
      <g>
       <use style="stroke:#000000;stroke-width:0.8;" x="109.8" xlink:href="#m886ae86443" y="252"/>
      </g>
     </g>
     <g id="text_1">
      <!-- Z_1_ns -->
      <g transform="translate(92.420312 266.320312)scale(0.1 -0.1)">
       <defs>
        <path d="M 5.609375 72.90625 
L 62.890625 72.90625 
L 62.890625 65.375 
L 16.796875 8.296875 
L 64.015625 8.296875 
L 64.015625 0 
L 4.5 0 
L 4.5 7.515625 
L 50.59375 64.59375 
L 5.609375 64.59375 
z
" id="DejaVuSans-90"/>
        <path d="M 50.984375 -16.609375 
L 50.984375 -23.578125 
L -0.984375 -23.578125 
L -0.984375 -16.609375 
z
" id="DejaVuSans-95"/>
        <path d="M 12.40625 8.296875 
L 28.515625 8.296875 
L 28.515625 63.921875 
L 10.984375 60.40625 
L 10.984375 69.390625 
L 28.421875 72.90625 
L 38.28125 72.90625 
L 38.28125 8.296875 
L 54.390625 8.296875 
L 54.390625 0 
L 12.40625 0 
z
" id="DejaVuSans-49"/>
        <path d="M 54.890625 33.015625 
L 54.890625 0 
L 45.90625 0 
L 45.90625 32.71875 
Q 45.90625 40.484375 42.875 44.328125 
Q 39.84375 48.1875 33.796875 48.1875 
Q 26.515625 48.1875 22.3125 43.546875 
Q 18.109375 38.921875 18.109375 30.90625 
L 18.109375 0 
L 9.078125 0 
L 9.078125 54.6875 
L 18.109375 54.6875 
L 18.109375 46.1875 
Q 21.34375 51.125 25.703125 53.5625 
Q 30.078125 56 35.796875 56 
Q 45.21875 56 50.046875 50.171875 
Q 54.890625 44.34375 54.890625 33.015625 
z
" id="DejaVuSans-110"/>
        <path d="M 44.28125 53.078125 
L 44.28125 44.578125 
Q 40.484375 46.53125 36.375 47.5 
Q 32.28125 48.484375 27.875 48.484375 
Q 21.1875 48.484375 17.84375 46.4375 
Q 14.5 44.390625 14.5 40.28125 
Q 14.5 37.15625 16.890625 35.375 
Q 19.28125 33.59375 26.515625 31.984375 
L 29.59375 31.296875 
Q 39.15625 29.25 43.1875 25.515625 
Q 47.21875 21.78125 47.21875 15.09375 
Q 47.21875 7.46875 41.1875 3.015625 
Q 35.15625 -1.421875 24.609375 -1.421875 
Q 20.21875 -1.421875 15.453125 -0.5625 
Q 10.6875 0.296875 5.421875 2 
L 5.421875 11.28125 
Q 10.40625 8.6875 15.234375 7.390625 
Q 20.0625 6.109375 24.8125 6.109375 
Q 31.15625 6.109375 34.5625 8.28125 
Q 37.984375 10.453125 37.984375 14.40625 
Q 37.984375 18.0625 35.515625 20.015625 
Q 33.0625 21.96875 24.703125 23.78125 
L 21.578125 24.515625 
Q 13.234375 26.265625 9.515625 29.90625 
Q 5.8125 33.546875 5.8125 39.890625 
Q 5.8125 47.609375 11.28125 51.796875 
Q 16.75 56 26.8125 56 
Q 31.78125 56 36.171875 55.265625 
Q 40.578125 54.546875 44.28125 53.078125 
z
" id="DejaVuSans-115"/>
       </defs>
       <use xlink:href="#DejaVuSans-90"/>
       <use x="68.505859" xlink:href="#DejaVuSans-95"/>
       <use x="118.505859" xlink:href="#DejaVuSans-49"/>
       <use x="182.128906" xlink:href="#DejaVuSans-95"/>
       <use x="232.128906" xlink:href="#DejaVuSans-110"/>
       <use x="295.507812" xlink:href="#DejaVuSans-115"/>
      </g>
     </g>
    </g>
    <g id="xtick_2">
     <g id="line2d_2">
      <g>
       <use style="stroke:#000000;stroke-width:0.8;" x="221.4" xlink:href="#m886ae86443" y="252"/>
      </g>
     </g>
     <g id="text_2">
      <!-- Z_2_ns -->
      <g transform="translate(204.020312 266.421875)scale(0.1 -0.1)">
       <defs>
        <path d="M 19.1875 8.296875 
L 53.609375 8.296875 
L 53.609375 0 
L 7.328125 0 
L 7.328125 8.296875 
Q 12.9375 14.109375 22.625 23.890625 
Q 32.328125 33.6875 34.8125 36.53125 
Q 39.546875 41.84375 41.421875 45.53125 
Q 43.3125 49.21875 43.3125 52.78125 
Q 43.3125 58.59375 39.234375 62.25 
Q 35.15625 65.921875 28.609375 65.921875 
Q 23.96875 65.921875 18.8125 64.3125 
Q 13.671875 62.703125 7.8125 59.421875 
L 7.8125 69.390625 
Q 13.765625 71.78125 18.9375 73 
Q 24.125 74.21875 28.421875 74.21875 
Q 39.75 74.21875 46.484375 68.546875 
Q 53.21875 62.890625 53.21875 53.421875 
Q 53.21875 48.921875 51.53125 44.890625 
Q 49.859375 40.875 45.40625 35.40625 
Q 44.1875 33.984375 37.640625 27.21875 
Q 31.109375 20.453125 19.1875 8.296875 
z
" id="DejaVuSans-50"/>
       </defs>
       <use xlink:href="#DejaVuSans-90"/>
       <use x="68.505859" xlink:href="#DejaVuSans-95"/>
       <use x="118.505859" xlink:href="#DejaVuSans-50"/>
       <use x="182.128906" xlink:href="#DejaVuSans-95"/>
       <use x="232.128906" xlink:href="#DejaVuSans-110"/>
       <use x="295.507812" xlink:href="#DejaVuSans-115"/>
      </g>
     </g>
    </g>
    <g id="xtick_3">
     <g id="line2d_3">
      <g>
       <use style="stroke:#000000;stroke-width:0.8;" x="333" xlink:href="#m886ae86443" y="252"/>
      </g>
     </g>
     <g id="text_3">
      <!-- Z_3_ns -->
      <g transform="translate(315.620313 266.421875)scale(0.1 -0.1)">
       <defs>
        <path d="M 40.578125 39.3125 
Q 47.65625 37.796875 51.625 33 
Q 55.609375 28.21875 55.609375 21.1875 
Q 55.609375 10.40625 48.1875 4.484375 
Q 40.765625 -1.421875 27.09375 -1.421875 
Q 22.515625 -1.421875 17.65625 -0.515625 
Q 12.796875 0.390625 7.625 2.203125 
L 7.625 11.71875 
Q 11.71875 9.328125 16.59375 8.109375 
Q 21.484375 6.890625 26.8125 6.890625 
Q 36.078125 6.890625 40.9375 10.546875 
Q 45.796875 14.203125 45.796875 21.1875 
Q 45.796875 27.640625 41.28125 31.265625 
Q 36.765625 34.90625 28.71875 34.90625 
L 20.21875 34.90625 
L 20.21875 43.015625 
L 29.109375 43.015625 
Q 36.375 43.015625 40.234375 45.921875 
Q 44.09375 48.828125 44.09375 54.296875 
Q 44.09375 59.90625 40.109375 62.90625 
Q 36.140625 65.921875 28.71875 65.921875 
Q 24.65625 65.921875 20.015625 65.03125 
Q 15.375 64.15625 9.8125 62.3125 
L 9.8125 71.09375 
Q 15.4375 72.65625 20.34375 73.4375 
Q 25.25 74.21875 29.59375 74.21875 
Q 40.828125 74.21875 47.359375 69.109375 
Q 53.90625 64.015625 53.90625 55.328125 
Q 53.90625 49.265625 50.4375 45.09375 
Q 46.96875 40.921875 40.578125 39.3125 
z
" id="DejaVuSans-51"/>
       </defs>
       <use xlink:href="#DejaVuSans-90"/>
       <use x="68.505859" xlink:href="#DejaVuSans-95"/>
       <use x="118.505859" xlink:href="#DejaVuSans-51"/>
       <use x="182.128906" xlink:href="#DejaVuSans-95"/>
       <use x="232.128906" xlink:href="#DejaVuSans-110"/>
       <use x="295.507812" xlink:href="#DejaVuSans-115"/>
      </g>
     </g>
    </g>
    <g id="text_4">
     <!-- set -->
     <g transform="translate(213.758594 280.378125)scale(0.1 -0.1)">
      <defs>
       <path d="M 56.203125 29.59375 
L 56.203125 25.203125 
L 14.890625 25.203125 
Q 15.484375 15.921875 20.484375 11.0625 
Q 25.484375 6.203125 34.421875 6.203125 
Q 39.59375 6.203125 44.453125 7.46875 
Q 49.3125 8.734375 54.109375 11.28125 
L 54.109375 2.78125 
Q 49.265625 0.734375 44.1875 -0.34375 
Q 39.109375 -1.421875 33.890625 -1.421875 
Q 20.796875 -1.421875 13.15625 6.1875 
Q 5.515625 13.8125 5.515625 26.8125 
Q 5.515625 40.234375 12.765625 48.109375 
Q 20.015625 56 32.328125 56 
Q 43.359375 56 49.78125 48.890625 
Q 56.203125 41.796875 56.203125 29.59375 
z
M 47.21875 32.234375 
Q 47.125 39.59375 43.09375 43.984375 
Q 39.0625 48.390625 32.421875 48.390625 
Q 24.90625 48.390625 20.390625 44.140625 
Q 15.875 39.890625 15.1875 32.171875 
z
" id="DejaVuSans-101"/>
       <path d="M 18.3125 70.21875 
L 18.3125 54.6875 
L 36.8125 54.6875 
L 36.8125 47.703125 
L 18.3125 47.703125 
L 18.3125 18.015625 
Q 18.3125 11.328125 20.140625 9.421875 
Q 21.96875 7.515625 27.59375 7.515625 
L 36.8125 7.515625 
L 36.8125 0 
L 27.59375 0 
Q 17.1875 0 13.234375 3.875 
Q 9.28125 7.765625 9.28125 18.015625 
L 9.28125 47.703125 
L 2.6875 47.703125 
L 2.6875 54.6875 
L 9.28125 54.6875 
L 9.28125 70.21875 
z
" id="DejaVuSans-116"/>
      </defs>
      <use xlink:href="#DejaVuSans-115"/>
      <use x="52.099609" xlink:href="#DejaVuSans-101"/>
      <use x="113.623047" xlink:href="#DejaVuSans-116"/>
     </g>
    </g>
   </g>
   <g id="matplotlib.axis_2">
    <g id="ytick_1">
     <g id="line2d_4">
      <defs>
       <path d="M 0 0 
L -3.5 0 
" id="m167dfa8746" style="stroke:#000000;stroke-width:0.8;"/>
      </defs>
      <g>
       <use style="stroke:#000000;stroke-width:0.8;" x="54" xlink:href="#m167dfa8746" y="227.273153"/>
      </g>
     </g>
     <g id="text_5">
      <!-- −35 -->
      <g transform="translate(25.895312 231.072372)scale(0.1 -0.1)">
       <defs>
        <path d="M 10.59375 35.5 
L 73.1875 35.5 
L 73.1875 27.203125 
L 10.59375 27.203125 
z
" id="DejaVuSans-8722"/>
        <path d="M 10.796875 72.90625 
L 49.515625 72.90625 
L 49.515625 64.59375 
L 19.828125 64.59375 
L 19.828125 46.734375 
Q 21.96875 47.46875 24.109375 47.828125 
Q 26.265625 48.1875 28.421875 48.1875 
Q 40.625 48.1875 47.75 41.5 
Q 54.890625 34.8125 54.890625 23.390625 
Q 54.890625 11.625 47.5625 5.09375 
Q 40.234375 -1.421875 26.90625 -1.421875 
Q 22.3125 -1.421875 17.546875 -0.640625 
Q 12.796875 0.140625 7.71875 1.703125 
L 7.71875 11.625 
Q 12.109375 9.234375 16.796875 8.0625 
Q 21.484375 6.890625 26.703125 6.890625 
Q 35.15625 6.890625 40.078125 11.328125 
Q 45.015625 15.765625 45.015625 23.390625 
Q 45.015625 31 40.078125 35.4375 
Q 35.15625 39.890625 26.703125 39.890625 
Q 22.75 39.890625 18.8125 39.015625 
Q 14.890625 38.140625 10.796875 36.28125 
z
" id="DejaVuSans-53"/>
       </defs>
       <use xlink:href="#DejaVuSans-8722"/>
       <use x="83.789062" xlink:href="#DejaVuSans-51"/>
       <use x="147.412109" xlink:href="#DejaVuSans-53"/>
      </g>
     </g>
    </g>
    <g id="ytick_2">
     <g id="line2d_5">
      <g>
       <use style="stroke:#000000;stroke-width:0.8;" x="54" xlink:href="#m167dfa8746" y="202.458489"/>
      </g>
     </g>
     <g id="text_6">
      <!-- −30 -->
      <g transform="translate(25.895312 206.257708)scale(0.1 -0.1)">
       <defs>
        <path d="M 31.78125 66.40625 
Q 24.171875 66.40625 20.328125 58.90625 
Q 16.5 51.421875 16.5 36.375 
Q 16.5 21.390625 20.328125 13.890625 
Q 24.171875 6.390625 31.78125 6.390625 
Q 39.453125 6.390625 43.28125 13.890625 
Q 47.125 21.390625 47.125 36.375 
Q 47.125 51.421875 43.28125 58.90625 
Q 39.453125 66.40625 31.78125 66.40625 
z
M 31.78125 74.21875 
Q 44.046875 74.21875 50.515625 64.515625 
Q 56.984375 54.828125 56.984375 36.375 
Q 56.984375 17.96875 50.515625 8.265625 
Q 44.046875 -1.421875 31.78125 -1.421875 
Q 19.53125 -1.421875 13.0625 8.265625 
Q 6.59375 17.96875 6.59375 36.375 
Q 6.59375 54.828125 13.0625 64.515625 
Q 19.53125 74.21875 31.78125 74.21875 
z
" id="DejaVuSans-48"/>
       </defs>
       <use xlink:href="#DejaVuSans-8722"/>
       <use x="83.789062" xlink:href="#DejaVuSans-51"/>
       <use x="147.412109" xlink:href="#DejaVuSans-48"/>
      </g>
     </g>
    </g>
    <g id="ytick_3">
     <g id="line2d_6">
      <g>
       <use style="stroke:#000000;stroke-width:0.8;" x="54" xlink:href="#m167dfa8746" y="177.643825"/>
      </g>
     </g>
     <g id="text_7">
      <!-- −25 -->
      <g transform="translate(25.895312 181.443043)scale(0.1 -0.1)">
       <use xlink:href="#DejaVuSans-8722"/>
       <use x="83.789062" xlink:href="#DejaVuSans-50"/>
       <use x="147.412109" xlink:href="#DejaVuSans-53"/>
      </g>
     </g>
    </g>
    <g id="ytick_4">
     <g id="line2d_7">
      <g>
       <use style="stroke:#000000;stroke-width:0.8;" x="54" xlink:href="#m167dfa8746" y="152.82916"/>
      </g>
     </g>
     <g id="text_8">
      <!-- −20 -->
      <g transform="translate(25.895312 156.628379)scale(0.1 -0.1)">
       <use xlink:href="#DejaVuSans-8722"/>
       <use x="83.789062" xlink:href="#DejaVuSans-50"/>
       <use x="147.412109" xlink:href="#DejaVuSans-48"/>
      </g>
     </g>
    </g>
    <g id="ytick_5">
     <g id="line2d_8">
      <g>
       <use style="stroke:#000000;stroke-width:0.8;" x="54" xlink:href="#m167dfa8746" y="128.014496"/>
      </g>
     </g>
     <g id="text_9">
      <!-- −15 -->
      <g transform="translate(25.895312 131.813714)scale(0.1 -0.1)">
       <use xlink:href="#DejaVuSans-8722"/>
       <use x="83.789062" xlink:href="#DejaVuSans-49"/>
       <use x="147.412109" xlink:href="#DejaVuSans-53"/>
      </g>
     </g>
    </g>
    <g id="ytick_6">
     <g id="line2d_9">
      <g>
       <use style="stroke:#000000;stroke-width:0.8;" x="54" xlink:href="#m167dfa8746" y="103.199831"/>
      </g>
     </g>
     <g id="text_10">
      <!-- −10 -->
      <g transform="translate(25.895312 106.99905)scale(0.1 -0.1)">
       <use xlink:href="#DejaVuSans-8722"/>
       <use x="83.789062" xlink:href="#DejaVuSans-49"/>
       <use x="147.412109" xlink:href="#DejaVuSans-48"/>
      </g>
     </g>
    </g>
    <g id="ytick_7">
     <g id="line2d_10">
      <g>
       <use style="stroke:#000000;stroke-width:0.8;" x="54" xlink:href="#m167dfa8746" y="78.385167"/>
      </g>
     </g>
     <g id="text_11">
      <!-- −5 -->
      <g transform="translate(32.257812 82.184386)scale(0.1 -0.1)">
       <use xlink:href="#DejaVuSans-8722"/>
       <use x="83.789062" xlink:href="#DejaVuSans-53"/>
      </g>
     </g>
    </g>
    <g id="ytick_8">
     <g id="line2d_11">
      <g>
       <use style="stroke:#000000;stroke-width:0.8;" x="54" xlink:href="#m167dfa8746" y="53.570502"/>
      </g>
     </g>
     <g id="text_12">
      <!-- 0 -->
      <g transform="translate(40.6375 57.369721)scale(0.1 -0.1)">
       <use xlink:href="#DejaVuSans-48"/>
      </g>
     </g>
    </g>
    <g id="text_13">
     <!-- value -->
     <g transform="translate(19.815625 156.937813)rotate(-90)scale(0.1 -0.1)">
      <defs>
       <path d="M 2.984375 54.6875 
L 12.5 54.6875 
L 29.59375 8.796875 
L 46.6875 54.6875 
L 56.203125 54.6875 
L 35.6875 0 
L 23.484375 0 
z
" id="DejaVuSans-118"/>
       <path d="M 34.28125 27.484375 
Q 23.390625 27.484375 19.1875 25 
Q 14.984375 22.515625 14.984375 16.5 
Q 14.984375 11.71875 18.140625 8.90625 
Q 21.296875 6.109375 26.703125 6.109375 
Q 34.1875 6.109375 38.703125 11.40625 
Q 43.21875 16.703125 43.21875 25.484375 
L 43.21875 27.484375 
z
M 52.203125 31.203125 
L 52.203125 0 
L 43.21875 0 
L 43.21875 8.296875 
Q 40.140625 3.328125 35.546875 0.953125 
Q 30.953125 -1.421875 24.3125 -1.421875 
Q 15.921875 -1.421875 10.953125 3.296875 
Q 6 8.015625 6 15.921875 
Q 6 25.140625 12.171875 29.828125 
Q 18.359375 34.515625 30.609375 34.515625 
L 43.21875 34.515625 
L 43.21875 35.40625 
Q 43.21875 41.609375 39.140625 45 
Q 35.0625 48.390625 27.6875 48.390625 
Q 23 48.390625 18.546875 47.265625 
Q 14.109375 46.140625 10.015625 43.890625 
L 10.015625 52.203125 
Q 14.9375 54.109375 19.578125 55.046875 
Q 24.21875 56 28.609375 56 
Q 40.484375 56 46.34375 49.84375 
Q 52.203125 43.703125 52.203125 31.203125 
z
" id="DejaVuSans-97"/>
       <path d="M 9.421875 75.984375 
L 18.40625 75.984375 
L 18.40625 0 
L 9.421875 0 
z
" id="DejaVuSans-108"/>
       <path d="M 8.5 21.578125 
L 8.5 54.6875 
L 17.484375 54.6875 
L 17.484375 21.921875 
Q 17.484375 14.15625 20.5 10.265625 
Q 23.53125 6.390625 29.59375 6.390625 
Q 36.859375 6.390625 41.078125 11.03125 
Q 45.3125 15.671875 45.3125 23.6875 
L 45.3125 54.6875 
L 54.296875 54.6875 
L 54.296875 0 
L 45.3125 0 
L 45.3125 8.40625 
Q 42.046875 3.421875 37.71875 1 
Q 33.40625 -1.421875 27.6875 -1.421875 
Q 18.265625 -1.421875 13.375 4.4375 
Q 8.5 10.296875 8.5 21.578125 
z
M 31.109375 56 
z
" id="DejaVuSans-117"/>
      </defs>
      <use xlink:href="#DejaVuSans-118"/>
      <use x="59.179688" xlink:href="#DejaVuSans-97"/>
      <use x="120.458984" xlink:href="#DejaVuSans-108"/>
      <use x="148.242188" xlink:href="#DejaVuSans-117"/>
      <use x="211.621094" xlink:href="#DejaVuSans-101"/>
     </g>
    </g>
   </g>
   <g id="line2d_12">
    <path clip-path="url(#pe17ab2c56b)" d="M 80.04 185.806488 
L 80.04 76.104752 
" style="fill:none;stroke:#3d3d3d;stroke-linecap:square;stroke-width:1.5;"/>
   </g>
   <g id="line2d_13">
    <path clip-path="url(#pe17ab2c56b)" d="M 80.04 135.443243 
L 80.04 101.657226 
" style="fill:none;stroke:#3d3d3d;stroke-linecap:square;stroke-width:4.5;"/>
   </g>
   <g id="line2d_14">
    <path clip-path="url(#pe17ab2c56b)" d="M 221.4 115.521425 
L 221.4 44.443636 
" style="fill:none;stroke:#3d3d3d;stroke-linecap:square;stroke-width:1.5;"/>
   </g>
   <g id="line2d_15">
    <path clip-path="url(#pe17ab2c56b)" d="M 221.4 84.947764 
L 221.4 64.400726 
" style="fill:none;stroke:#3d3d3d;stroke-linecap:square;stroke-width:4.5;"/>
   </g>
   <g id="line2d_16">
    <path clip-path="url(#pe17ab2c56b)" d="M 362.76 154.47982 
L 362.76 70.291193 
" style="fill:none;stroke:#3d3d3d;stroke-linecap:square;stroke-width:1.5;"/>
   </g>
   <g id="line2d_17">
    <path clip-path="url(#pe17ab2c56b)" d="M 362.76 113.568556 
L 362.76 86.212798 
" style="fill:none;stroke:#3d3d3d;stroke-linecap:square;stroke-width:4.5;"/>
   </g>
   <g id="patch_6">
    <path d="M 54 252 
L 54 34.56 
" style="fill:none;stroke:#000000;stroke-linecap:square;stroke-linejoin:miter;stroke-width:0.8;"/>
   </g>
   <g id="patch_7">
    <path d="M 388.8 252 
L 388.8 34.56 
" style="fill:none;stroke:#000000;stroke-linecap:square;stroke-linejoin:miter;stroke-width:0.8;"/>
   </g>
   <g id="patch_8">
    <path d="M 54 252 
L 388.8 252 
" style="fill:none;stroke:#000000;stroke-linecap:square;stroke-linejoin:miter;stroke-width:0.8;"/>
   </g>
   <g id="patch_9">
    <path d="M 54 34.56 
L 388.8 34.56 
" style="fill:none;stroke:#000000;stroke-linecap:square;stroke-linejoin:miter;stroke-width:0.8;"/>
   </g>
   <g id="PathCollection_1">
    <defs>
     <path d="M 0 1.5 
C 0.397805 1.5 0.77937 1.341951 1.06066 1.06066 
C 1.341951 0.77937 1.5 0.397805 1.5 0 
C 1.5 -0.397805 1.341951 -0.77937 1.06066 -1.06066 
C 0.77937 -1.341951 0.397805 -1.5 0 -1.5 
C -0.397805 -1.5 -0.77937 -1.341951 -1.06066 -1.06066 
C -1.341951 -0.77937 -1.5 -0.397805 -1.5 0 
C -1.5 0.397805 -1.341951 0.77937 -1.06066 1.06066 
C -0.77937 1.341951 -0.397805 1.5 0 1.5 
z
" id="m6109df34f5" style="stroke:#3d3d3d;"/>
    </defs>
    <g clip-path="url(#pe17ab2c56b)">
     <use style="fill:#ffffff;stroke:#3d3d3d;" x="80.04" xlink:href="#m6109df34f5" y="111.963882"/>
    </g>
   </g>
   <g id="PathCollection_2">
    <g clip-path="url(#pe17ab2c56b)">
     <use style="fill:#ffffff;stroke:#3d3d3d;" x="221.4" xlink:href="#m6109df34f5" y="72.62451"/>
    </g>
   </g>
   <g id="PathCollection_3">
    <g clip-path="url(#pe17ab2c56b)">
     <use style="fill:#ffffff;stroke:#3d3d3d;" x="362.76" xlink:href="#m6109df34f5" y="96.212178"/>
    </g>
   </g>
   <g id="legend_1">
    <g id="patch_10">
     <path d="M 315.040625 247 
L 381.8 247 
Q 383.8 247 383.8 245 
L 383.8 186.453125 
Q 383.8 184.453125 381.8 184.453125 
L 315.040625 184.453125 
Q 313.040625 184.453125 313.040625 186.453125 
L 313.040625 245 
Q 313.040625 247 315.040625 247 
z
" style="fill:#ffffff;opacity:0.8;stroke:#cccccc;stroke-linejoin:miter;"/>
    </g>
    <g id="text_14">
     <!-- set -->
     <g transform="translate(340.778906 196.051562)scale(0.1 -0.1)">
      <use xlink:href="#DejaVuSans-115"/>
      <use x="52.099609" xlink:href="#DejaVuSans-101"/>
      <use x="113.623047" xlink:href="#DejaVuSans-116"/>
     </g>
    </g>
    <g id="patch_11">
     <path d="M 317.040625 210.729687 
L 337.040625 210.729687 
L 337.040625 203.729687 
L 317.040625 203.729687 
z
" style="fill:#3274a1;stroke:#3d3d3d;stroke-linejoin:miter;stroke-width:0.75;"/>
    </g>
    <g id="text_15">
     <!-- Z_1_ns -->
     <g transform="translate(345.040625 210.729687)scale(0.1 -0.1)">
      <use xlink:href="#DejaVuSans-90"/>
      <use x="68.505859" xlink:href="#DejaVuSans-95"/>
      <use x="118.505859" xlink:href="#DejaVuSans-49"/>
      <use x="182.128906" xlink:href="#DejaVuSans-95"/>
      <use x="232.128906" xlink:href="#DejaVuSans-110"/>
      <use x="295.507812" xlink:href="#DejaVuSans-115"/>
     </g>
    </g>
    <g id="patch_12">
     <path d="M 317.040625 225.685937 
L 337.040625 225.685937 
L 337.040625 218.685937 
L 317.040625 218.685937 
z
" style="fill:#e1812c;stroke:#3d3d3d;stroke-linejoin:miter;stroke-width:0.75;"/>
    </g>
    <g id="text_16">
     <!-- Z_2_ns -->
     <g transform="translate(345.040625 225.685937)scale(0.1 -0.1)">
      <use xlink:href="#DejaVuSans-90"/>
      <use x="68.505859" xlink:href="#DejaVuSans-95"/>
      <use x="118.505859" xlink:href="#DejaVuSans-50"/>
      <use x="182.128906" xlink:href="#DejaVuSans-95"/>
      <use x="232.128906" xlink:href="#DejaVuSans-110"/>
      <use x="295.507812" xlink:href="#DejaVuSans-115"/>
     </g>
    </g>
    <g id="patch_13">
     <path d="M 317.040625 240.642187 
L 337.040625 240.642187 
L 337.040625 233.642187 
L 317.040625 233.642187 
z
" style="fill:#3a923a;stroke:#3d3d3d;stroke-linejoin:miter;stroke-width:0.75;"/>
    </g>
    <g id="text_17">
     <!-- Z_3_ns -->
     <g transform="translate(345.040625 240.642187)scale(0.1 -0.1)">
      <use xlink:href="#DejaVuSans-90"/>
      <use x="68.505859" xlink:href="#DejaVuSans-95"/>
      <use x="118.505859" xlink:href="#DejaVuSans-51"/>
      <use x="182.128906" xlink:href="#DejaVuSans-95"/>
      <use x="232.128906" xlink:href="#DejaVuSans-110"/>
      <use x="295.507812" xlink:href="#DejaVuSans-115"/>
     </g>
    </g>
   </g>
  </g>
 </g>
 <defs>
  <clipPath id="pe17ab2c56b">
   <rect height="217.44" width="334.8" x="54" y="34.56"/>
  </clipPath>
 </defs>
</svg>
