<?xml version="1.0" encoding="utf-8" standalone="no"?>
<!DOCTYPE svg PUBLIC "-//W3C//DTD SVG 1.1//EN"
  "http://www.w3.org/Graphics/SVG/1.1/DTD/svg11.dtd">
<!-- Created with matplotlib (https://matplotlib.org/) -->
<svg height="288pt" version="1.1" viewBox="0 0 432 288" width="432pt" xmlns="http://www.w3.org/2000/svg" xmlns:xlink="http://www.w3.org/1999/xlink">
 <metadata>
  <rdf:RDF xmlns:cc="http://creativecommons.org/ns#" xmlns:dc="http://purl.org/dc/elements/1.1/" xmlns:rdf="http://www.w3.org/1999/02/22-rdf-syntax-ns#">
   <cc:Work>
    <dc:type rdf:resource="http://purl.org/dc/dcmitype/StillImage"/>
    <dc:date>2022-05-07T18:23:02.924763</dc:date>
    <dc:format>image/svg+xml</dc:format>
    <dc:creator>
     <cc:Agent>
      <dc:title>Matplotlib v3.3.4, https://matplotlib.org/</dc:title>
     </cc:Agent>
    </dc:creator>
   </cc:Work>
  </rdf:RDF>
 </metadata>
 <defs>
  <style type="text/css">*{stroke-linecap:butt;stroke-linejoin:round;}</style>
 </defs>
 <g id="figure_1">
  <g id="patch_1">
   <path d="M 0 288 
L 432 288 
L 432 0 
L 0 0 
z
" style="fill:#ffffff;"/>
  </g>
  <g id="axes_1">
   <g id="patch_2">
    <path d="M 54 252 
L 388.8 252 
L 388.8 34.56 
L 54 34.56 
z
" style="fill:#ffffff;"/>
   </g>
   <g id="PolyCollection_1">
    <defs>
     <path d="M 80.065674 -45.883636 
L 80.014326 -45.883636 
L 80.010266 -47.481945 
L 80.006687 -49.080254 
L 80.003553 -50.678563 
L 80.000649 -52.276872 
L 79.997451 -53.87518 
L 79.992991 -55.473489 
L 79.985893 -57.071798 
L 79.974691 -58.670107 
L 79.958394 -60.268416 
L 79.937025 -61.866724 
L 79.91181 -63.465033 
L 79.884818 -65.063342 
L 79.85819 -66.661651 
L 79.833281 -68.259959 
L 79.810164 -69.858268 
L 79.787732 -71.456577 
L 79.764397 -73.054886 
L 79.739097 -74.653195 
L 79.712132 -76.251503 
L 79.685394 -77.849812 
L 79.661818 -79.448121 
L 79.644297 -81.04643 
L 79.634567 -82.644739 
L 79.632522 -84.243047 
L 79.636061 -85.841356 
L 79.641301 -87.439665 
L 79.642901 -89.037974 
L 79.634498 -90.636283 
L 79.609454 -92.234591 
L 79.562068 -93.8329 
L 79.489081 -95.431209 
L 79.390833 -97.029518 
L 79.27139 -98.627827 
L 79.137332 -100.226135 
L 78.99566 -101.824444 
L 78.851811 -103.422753 
L 78.708737 -105.021062 
L 78.567312 -106.619371 
L 78.427515 -108.217679 
L 78.289418 -109.815988 
L 78.153235 -111.414297 
L 78.018432 -113.012606 
L 77.882608 -114.610914 
L 77.74102 -116.209223 
L 77.58734 -117.807532 
L 77.415513 -119.405841 
L 77.222071 -121.00415 
L 77.007948 -122.602458 
L 76.778984 -124.200767 
L 76.544761 -125.799076 
L 76.316191 -127.397385 
L 76.102924 -128.995694 
L 75.911731 -130.594002 
L 75.74638 -132.192311 
L 75.608577 -133.79062 
L 75.498931 -135.388929 
L 75.417063 -136.987238 
L 75.36077 -138.585546 
L 75.32497 -140.183855 
L 75.301552 -141.782164 
L 75.280742 -143.380473 
L 75.253509 -144.978782 
L 75.213646 -146.57709 
L 75.158264 -148.175399 
L 75.086521 -149.773708 
L 74.997629 -151.372017 
L 74.889309 -152.970326 
L 74.756978 -154.568634 
L 74.592979 -156.166943 
L 74.38535 -157.765252 
L 74.116793 -159.363561 
L 73.765467 -160.961869 
L 73.308668 -162.560178 
L 72.728779 -164.158487 
L 72.019229 -165.756796 
L 71.18815 -167.355105 
L 70.258863 -168.953413 
L 69.268118 -170.551722 
L 68.26377 -172.150031 
L 67.302781 -173.74834 
L 66.448924 -175.346649 
L 65.768531 -176.944957 
L 65.323153 -178.543266 
L 65.16 -180.141575 
L 65.303204 -181.739884 
L 65.749772 -183.338193 
L 66.472386 -184.936501 
L 67.427778 -186.53481 
L 68.566418 -188.133119 
L 69.838832 -189.731428 
L 71.196469 -191.329737 
L 72.588844 -192.928045 
L 73.961097 -194.526354 
L 75.255725 -196.124663 
L 76.419275 -197.722972 
L 77.411397 -199.321281 
L 78.211954 -200.919589 
L 78.822876 -202.517898 
L 79.264222 -204.116207 
L 80.815778 -204.116207 
L 80.815778 -204.116207 
L 81.257124 -202.517898 
L 81.868046 -200.919589 
L 82.668603 -199.321281 
L 83.660725 -197.722972 
L 84.824275 -196.124663 
L 86.118903 -194.526354 
L 87.491156 -192.928045 
L 88.883531 -191.329737 
L 90.241168 -189.731428 
L 91.513582 -188.133119 
L 92.652222 -186.53481 
L 93.607614 -184.936501 
L 94.330228 -183.338193 
L 94.776796 -181.739884 
L 94.92 -180.141575 
L 94.756847 -178.543266 
L 94.311469 -176.944957 
L 93.631076 -175.346649 
L 92.777219 -173.74834 
L 91.81623 -172.150031 
L 90.811882 -170.551722 
L 89.821137 -168.953413 
L 88.89185 -167.355105 
L 88.060771 -165.756796 
L 87.351221 -164.158487 
L 86.771332 -162.560178 
L 86.314533 -160.961869 
L 85.963207 -159.363561 
L 85.69465 -157.765252 
L 85.487021 -156.166943 
L 85.323022 -154.568634 
L 85.190691 -152.970326 
L 85.082371 -151.372017 
L 84.993479 -149.773708 
L 84.921736 -148.175399 
L 84.866354 -146.57709 
L 84.826491 -144.978782 
L 84.799258 -143.380473 
L 84.778448 -141.782164 
L 84.75503 -140.183855 
L 84.71923 -138.585546 
L 84.662937 -136.987238 
L 84.581069 -135.388929 
L 84.471423 -133.79062 
L 84.33362 -132.192311 
L 84.168269 -130.594002 
L 83.977076 -128.995694 
L 83.763809 -127.397385 
L 83.535239 -125.799076 
L 83.301016 -124.200767 
L 83.072052 -122.602458 
L 82.857929 -121.00415 
L 82.664487 -119.405841 
L 82.49266 -117.807532 
L 82.33898 -116.209223 
L 82.197392 -114.610914 
L 82.061568 -113.012606 
L 81.926765 -111.414297 
L 81.790582 -109.815988 
L 81.652485 -108.217679 
L 81.512688 -106.619371 
L 81.371263 -105.021062 
L 81.228189 -103.422753 
L 81.08434 -101.824444 
L 80.942668 -100.226135 
L 80.80861 -98.627827 
L 80.689167 -97.029518 
L 80.590919 -95.431209 
L 80.517932 -93.8329 
L 80.470546 -92.234591 
L 80.445502 -90.636283 
L 80.437099 -89.037974 
L 80.438699 -87.439665 
L 80.443939 -85.841356 
L 80.447478 -84.243047 
L 80.445433 -82.644739 
L 80.435703 -81.04643 
L 80.418182 -79.448121 
L 80.394606 -77.849812 
L 80.367868 -76.251503 
L 80.340903 -74.653195 
L 80.315603 -73.054886 
L 80.292268 -71.456577 
L 80.269836 -69.858268 
L 80.246719 -68.259959 
L 80.22181 -66.661651 
L 80.195182 -65.063342 
L 80.16819 -63.465033 
L 80.142975 -61.866724 
L 80.121606 -60.268416 
L 80.105309 -58.670107 
L 80.094107 -57.071798 
L 80.087009 -55.473489 
L 80.082549 -53.87518 
L 80.079351 -52.276872 
L 80.076447 -50.678563 
L 80.073313 -49.080254 
L 80.069734 -47.481945 
L 80.065674 -45.883636 
z
" id="me27b2b0a08" style="stroke:#3d3d3d;stroke-width:1.5;"/>
    </defs>
    <g clip-path="url(#pd780fb7472)">
     <use style="fill:#3274a1;stroke:#3d3d3d;stroke-width:1.5;" x="0" xlink:href="#me27b2b0a08" y="288"/>
    </g>
   </g>
   <g id="PolyCollection_2">
    <defs>
     <path d="M 221.43136 -113.460687 
L 221.36864 -113.460687 
L 221.360359 -114.774784 
L 221.348405 -116.088882 
L 221.330923 -117.40298 
L 221.307133 -118.717078 
L 221.278276 -120.031175 
L 221.247804 -121.345273 
L 221.220495 -122.659371 
L 221.200695 -123.973469 
L 221.19052 -125.287566 
L 221.188956 -126.601664 
L 221.192399 -127.915762 
L 221.19634 -129.22986 
L 221.19728 -130.543957 
L 221.193914 -131.858055 
L 221.187095 -133.172153 
L 221.178683 -134.486251 
L 221.169861 -135.800348 
L 221.159812 -137.114446 
L 221.145649 -138.428544 
L 221.12391 -139.742642 
L 221.0929 -141.056739 
L 221.054196 -142.370837 
L 221.011863 -143.684935 
L 220.969461 -144.999033 
L 220.926772 -146.31313 
L 220.878769 -147.627228 
L 220.817978 -148.941326 
L 220.738973 -150.255424 
L 220.64216 -151.569521 
L 220.534493 -152.883619 
L 220.426797 -154.197717 
L 220.329346 -155.511815 
L 220.247989 -156.825912 
L 220.182378 -158.14001 
L 220.126625 -159.454108 
L 220.071842 -160.768206 
L 220.009442 -162.082303 
L 219.933848 -163.396401 
L 219.843419 -164.710499 
L 219.73922 -166.024597 
L 219.622487 -167.338694 
L 219.492374 -168.652792 
L 219.3452 -169.96689 
L 219.175226 -171.280988 
L 218.97613 -172.595085 
L 218.742613 -173.909183 
L 218.472473 -175.223281 
L 218.169458 -176.537379 
L 217.845772 -177.851476 
L 217.521742 -179.165574 
L 217.220906 -180.479672 
L 216.961797 -181.79377 
L 216.750434 -183.107867 
L 216.577419 -184.421965 
L 216.420697 -185.736063 
L 216.251943 -187.050161 
L 216.043774 -188.364258 
L 215.776042 -189.678356 
L 215.440494 -190.992454 
L 215.042722 -192.306552 
L 214.599868 -193.620649 
L 214.133654 -194.934747 
L 213.660885 -196.248845 
L 213.185643 -197.562943 
L 212.696957 -198.87704 
L 212.173321 -200.191138 
L 211.592419 -201.505236 
L 210.942371 -202.819333 
L 210.230107 -204.133431 
L 209.483333 -205.447529 
L 208.745058 -206.761627 
L 208.063134 -208.075724 
L 207.479699 -209.389822 
L 207.024725 -210.70392 
L 206.714248 -212.018018 
L 206.550319 -213.332115 
L 206.52 -214.646213 
L 206.594966 -215.960311 
L 206.736707 -217.274409 
L 206.909939 -218.588506 
L 207.09921 -219.902604 
L 207.317754 -221.216702 
L 207.600408 -222.5308 
L 207.983272 -223.844897 
L 208.483264 -225.158995 
L 209.091525 -226.473093 
L 209.784618 -227.787191 
L 210.544334 -229.101288 
L 211.371129 -230.415386 
L 212.281543 -231.729484 
L 213.291739 -233.043582 
L 214.398212 -234.357679 
L 215.56742 -235.671777 
L 216.73956 -236.985875 
L 217.843672 -238.299973 
L 218.816405 -239.61407 
L 219.616657 -240.928168 
L 220.231552 -242.242266 
L 220.673457 -243.556364 
L 222.126543 -243.556364 
L 222.126543 -243.556364 
L 222.568448 -242.242266 
L 223.183343 -240.928168 
L 223.983595 -239.61407 
L 224.956328 -238.299973 
L 226.06044 -236.985875 
L 227.23258 -235.671777 
L 228.401788 -234.357679 
L 229.508261 -233.043582 
L 230.518457 -231.729484 
L 231.428871 -230.415386 
L 232.255666 -229.101288 
L 233.015382 -227.787191 
L 233.708475 -226.473093 
L 234.316736 -225.158995 
L 234.816728 -223.844897 
L 235.199592 -222.5308 
L 235.482246 -221.216702 
L 235.70079 -219.902604 
L 235.890061 -218.588506 
L 236.063293 -217.274409 
L 236.205034 -215.960311 
L 236.28 -214.646213 
L 236.249681 -213.332115 
L 236.085752 -212.018018 
L 235.775275 -210.70392 
L 235.320301 -209.389822 
L 234.736866 -208.075724 
L 234.054942 -206.761627 
L 233.316667 -205.447529 
L 232.569893 -204.133431 
L 231.857629 -202.819333 
L 231.207581 -201.505236 
L 230.626679 -200.191138 
L 230.103043 -198.87704 
L 229.614357 -197.562943 
L 229.139115 -196.248845 
L 228.666346 -194.934747 
L 228.200132 -193.620649 
L 227.757278 -192.306552 
L 227.359506 -190.992454 
L 227.023958 -189.678356 
L 226.756226 -188.364258 
L 226.548057 -187.050161 
L 226.379303 -185.736063 
L 226.222581 -184.421965 
L 226.049566 -183.107867 
L 225.838203 -181.79377 
L 225.579094 -180.479672 
L 225.278258 -179.165574 
L 224.954228 -177.851476 
L 224.630542 -176.537379 
L 224.327527 -175.223281 
L 224.057387 -173.909183 
L 223.82387 -172.595085 
L 223.624774 -171.280988 
L 223.4548 -169.96689 
L 223.307626 -168.652792 
L 223.177513 -167.338694 
L 223.06078 -166.024597 
L 222.956581 -164.710499 
L 222.866152 -163.396401 
L 222.790558 -162.082303 
L 222.728158 -160.768206 
L 222.673375 -159.454108 
L 222.617622 -158.14001 
L 222.552011 -156.825912 
L 222.470654 -155.511815 
L 222.373203 -154.197717 
L 222.265507 -152.883619 
L 222.15784 -151.569521 
L 222.061027 -150.255424 
L 221.982022 -148.941326 
L 221.921231 -147.627228 
L 221.873228 -146.31313 
L 221.830539 -144.999033 
L 221.788137 -143.684935 
L 221.745804 -142.370837 
L 221.7071 -141.056739 
L 221.67609 -139.742642 
L 221.654351 -138.428544 
L 221.640188 -137.114446 
L 221.630139 -135.800348 
L 221.621317 -134.486251 
L 221.612905 -133.172153 
L 221.606086 -131.858055 
L 221.60272 -130.543957 
L 221.60366 -129.22986 
L 221.607601 -127.915762 
L 221.611044 -126.601664 
L 221.60948 -125.287566 
L 221.599305 -123.973469 
L 221.579505 -122.659371 
L 221.552196 -121.345273 
L 221.521724 -120.031175 
L 221.492867 -118.717078 
L 221.469077 -117.40298 
L 221.451595 -116.088882 
L 221.439641 -114.774784 
L 221.43136 -113.460687 
z
" id="md2153de555" style="stroke:#3d3d3d;stroke-width:1.5;"/>
    </defs>
    <g clip-path="url(#pd780fb7472)">
     <use style="fill:#e1812c;stroke:#3d3d3d;stroke-width:1.5;" x="0" xlink:href="#md2153de555" y="288"/>
    </g>
   </g>
   <g id="PolyCollection_3">
    <defs>
     <path d="M 362.781549 -58.887365 
L 362.738451 -58.887365 
L 362.738538 -60.593383 
L 362.739708 -62.299401 
L 362.740908 -64.005419 
L 362.741188 -65.711436 
L 362.740182 -67.417454 
L 362.738202 -69.123472 
L 362.73587 -70.82949 
L 362.7335 -72.535508 
L 362.730641 -74.241526 
L 362.726098 -75.947544 
L 362.718425 -77.653561 
L 362.706547 -79.359579 
L 362.690107 -81.065597 
L 362.669373 -82.771615 
L 362.644972 -84.477633 
L 362.617803 -86.183651 
L 362.589195 -87.889669 
L 362.560932 -89.595686 
L 362.534723 -91.301704 
L 362.511219 -93.007722 
L 362.489331 -94.71374 
L 362.466575 -96.419758 
L 362.440399 -98.125776 
L 362.409555 -99.831794 
L 362.374474 -101.537811 
L 362.3364 -103.243829 
L 362.296052 -104.949847 
L 362.252839 -106.655865 
L 362.205122 -108.361883 
L 362.151203 -110.067901 
L 362.090333 -111.773918 
L 362.023204 -113.479936 
L 361.951754 -115.185954 
L 361.878395 -116.891972 
L 361.804857 -118.59799 
L 361.73098 -120.304008 
L 361.653942 -122.010026 
L 361.568536 -123.716043 
L 361.468699 -125.422061 
L 361.349767 -127.128079 
L 361.21021 -128.834097 
L 361.051603 -130.540115 
L 360.876492 -132.246133 
L 360.68515 -133.952151 
L 360.473244 -135.658168 
L 360.232425 -137.364186 
L 359.95459 -139.070204 
L 359.638376 -140.776222 
L 359.294535 -142.48224 
L 358.946558 -144.188258 
L 358.624888 -145.894276 
L 358.356468 -147.600293 
L 358.15416 -149.306311 
L 358.01101 -151.012329 
L 357.901919 -152.718347 
L 357.791792 -154.424365 
L 357.64659 -156.130383 
L 357.443198 -157.836401 
L 357.175073 -159.542418 
L 356.852272 -161.248436 
L 356.496235 -162.954454 
L 356.131382 -164.660472 
L 355.77681 -166.36649 
L 355.44128 -168.072508 
L 355.123198 -169.778525 
L 354.814907 -171.484543 
L 354.508567 -173.190561 
L 354.200032 -174.896579 
L 353.888201 -176.602597 
L 353.570165 -178.308615 
L 353.235702 -180.014633 
L 352.865828 -181.72065 
L 352.437905 -183.426668 
L 351.935648 -185.132686 
L 351.359004 -186.838704 
L 350.728725 -188.544722 
L 350.083238 -190.25074 
L 349.469211 -191.956758 
L 348.929853 -193.662775 
L 348.495413 -195.368793 
L 348.17898 -197.074811 
L 347.978309 -198.780829 
L 347.882359 -200.486847 
L 347.88 -202.192865 
L 347.968352 -203.898883 
L 348.158804 -205.6049 
L 348.479011 -207.310918 
L 348.969031 -209.016936 
L 349.670483 -210.722954 
L 350.610347 -212.428972 
L 351.785098 -214.13499 
L 353.152819 -215.841007 
L 354.637996 -217.547025 
L 356.147156 -219.253043 
L 357.588168 -220.959061 
L 358.885749 -222.665079 
L 359.98972 -224.371097 
L 360.876831 -226.077115 
L 361.548456 -227.783132 
L 363.971544 -227.783132 
L 363.971544 -227.783132 
L 364.643169 -226.077115 
L 365.53028 -224.371097 
L 366.634251 -222.665079 
L 367.931832 -220.959061 
L 369.372844 -219.253043 
L 370.882004 -217.547025 
L 372.367181 -215.841007 
L 373.734902 -214.13499 
L 374.909653 -212.428972 
L 375.849517 -210.722954 
L 376.550969 -209.016936 
L 377.040989 -207.310918 
L 377.361196 -205.6049 
L 377.551648 -203.898883 
L 377.64 -202.192865 
L 377.637641 -200.486847 
L 377.541691 -198.780829 
L 377.34102 -197.074811 
L 377.024587 -195.368793 
L 376.590147 -193.662775 
L 376.050789 -191.956758 
L 375.436762 -190.25074 
L 374.791275 -188.544722 
L 374.160996 -186.838704 
L 373.584352 -185.132686 
L 373.082095 -183.426668 
L 372.654172 -181.72065 
L 372.284298 -180.014633 
L 371.949835 -178.308615 
L 371.631799 -176.602597 
L 371.319968 -174.896579 
L 371.011433 -173.190561 
L 370.705093 -171.484543 
L 370.396802 -169.778525 
L 370.07872 -168.072508 
L 369.74319 -166.36649 
L 369.388618 -164.660472 
L 369.023765 -162.954454 
L 368.667728 -161.248436 
L 368.344927 -159.542418 
L 368.076802 -157.836401 
L 367.87341 -156.130383 
L 367.728208 -154.424365 
L 367.618081 -152.718347 
L 367.50899 -151.012329 
L 367.36584 -149.306311 
L 367.163532 -147.600293 
L 366.895112 -145.894276 
L 366.573442 -144.188258 
L 366.225465 -142.48224 
L 365.881624 -140.776222 
L 365.56541 -139.070204 
L 365.287575 -137.364186 
L 365.046756 -135.658168 
L 364.83485 -133.952151 
L 364.643508 -132.246133 
L 364.468397 -130.540115 
L 364.30979 -128.834097 
L 364.170233 -127.128079 
L 364.051301 -125.422061 
L 363.951464 -123.716043 
L 363.866058 -122.010026 
L 363.78902 -120.304008 
L 363.715143 -118.59799 
L 363.641605 -116.891972 
L 363.568246 -115.185954 
L 363.496796 -113.479936 
L 363.429667 -111.773918 
L 363.368797 -110.067901 
L 363.314878 -108.361883 
L 363.267161 -106.655865 
L 363.223948 -104.949847 
L 363.1836 -103.243829 
L 363.145526 -101.537811 
L 363.110445 -99.831794 
L 363.079601 -98.125776 
L 363.053425 -96.419758 
L 363.030669 -94.71374 
L 363.008781 -93.007722 
L 362.985277 -91.301704 
L 362.959068 -89.595686 
L 362.930805 -87.889669 
L 362.902197 -86.183651 
L 362.875028 -84.477633 
L 362.850627 -82.771615 
L 362.829893 -81.065597 
L 362.813453 -79.359579 
L 362.801575 -77.653561 
L 362.793902 -75.947544 
L 362.789359 -74.241526 
L 362.7865 -72.535508 
L 362.78413 -70.82949 
L 362.781798 -69.123472 
L 362.779818 -67.417454 
L 362.778812 -65.711436 
L 362.779092 -64.005419 
L 362.780292 -62.299401 
L 362.781462 -60.593383 
L 362.781549 -58.887365 
z
" id="md52e9f9007" style="stroke:#3d3d3d;stroke-width:1.5;"/>
    </defs>
    <g clip-path="url(#pd780fb7472)">
     <use style="fill:#3a923a;stroke:#3d3d3d;stroke-width:1.5;" x="0" xlink:href="#md52e9f9007" y="288"/>
    </g>
   </g>
   <g id="patch_3">
    <path clip-path="url(#pd780fb7472)" d="M 109.8 2.006375 
L 109.8 2.006375 
L 109.8 2.006375 
L 109.8 2.006375 
z
" style="fill:#3274a1;stroke:#3d3d3d;stroke-linejoin:miter;stroke-width:0.75;"/>
   </g>
   <g id="patch_4">
    <path clip-path="url(#pd780fb7472)" d="M 109.8 2.006375 
L 109.8 2.006375 
L 109.8 2.006375 
L 109.8 2.006375 
z
" style="fill:#e1812c;stroke:#3d3d3d;stroke-linejoin:miter;stroke-width:0.75;"/>
   </g>
   <g id="patch_5">
    <path clip-path="url(#pd780fb7472)" d="M 109.8 2.006375 
L 109.8 2.006375 
L 109.8 2.006375 
L 109.8 2.006375 
z
" style="fill:#3a923a;stroke:#3d3d3d;stroke-linejoin:miter;stroke-width:0.75;"/>
   </g>
   <g id="matplotlib.axis_1">
    <g id="xtick_1">
     <g id="line2d_1">
      <defs>
       <path d="M 0 0 
L 0 3.5 
" id="mcc299b6ba7" style="stroke:#000000;stroke-width:0.8;"/>
      </defs>
      <g>
       <use style="stroke:#000000;stroke-width:0.8;" x="109.8" xlink:href="#mcc299b6ba7" y="252"/>
      </g>
     </g>
     <g id="text_1">
      <!-- Z_1_ns -->
      <g transform="translate(92.420312 266.320312)scale(0.1 -0.1)">
       <defs>
        <path d="M 5.609375 72.90625 
L 62.890625 72.90625 
L 62.890625 65.375 
L 16.796875 8.296875 
L 64.015625 8.296875 
L 64.015625 0 
L 4.5 0 
L 4.5 7.515625 
L 50.59375 64.59375 
L 5.609375 64.59375 
z
" id="DejaVuSans-90"/>
        <path d="M 50.984375 -16.609375 
L 50.984375 -23.578125 
L -0.984375 -23.578125 
L -0.984375 -16.609375 
z
" id="DejaVuSans-95"/>
        <path d="M 12.40625 8.296875 
L 28.515625 8.296875 
L 28.515625 63.921875 
L 10.984375 60.40625 
L 10.984375 69.390625 
L 28.421875 72.90625 
L 38.28125 72.90625 
L 38.28125 8.296875 
L 54.390625 8.296875 
L 54.390625 0 
L 12.40625 0 
z
" id="DejaVuSans-49"/>
        <path d="M 54.890625 33.015625 
L 54.890625 0 
L 45.90625 0 
L 45.90625 32.71875 
Q 45.90625 40.484375 42.875 44.328125 
Q 39.84375 48.1875 33.796875 48.1875 
Q 26.515625 48.1875 22.3125 43.546875 
Q 18.109375 38.921875 18.109375 30.90625 
L 18.109375 0 
L 9.078125 0 
L 9.078125 54.6875 
L 18.109375 54.6875 
L 18.109375 46.1875 
Q 21.34375 51.125 25.703125 53.5625 
Q 30.078125 56 35.796875 56 
Q 45.21875 56 50.046875 50.171875 
Q 54.890625 44.34375 54.890625 33.015625 
z
" id="DejaVuSans-110"/>
        <path d="M 44.28125 53.078125 
L 44.28125 44.578125 
Q 40.484375 46.53125 36.375 47.5 
Q 32.28125 48.484375 27.875 48.484375 
Q 21.1875 48.484375 17.84375 46.4375 
Q 14.5 44.390625 14.5 40.28125 
Q 14.5 37.15625 16.890625 35.375 
Q 19.28125 33.59375 26.515625 31.984375 
L 29.59375 31.296875 
Q 39.15625 29.25 43.1875 25.515625 
Q 47.21875 21.78125 47.21875 15.09375 
Q 47.21875 7.46875 41.1875 3.015625 
Q 35.15625 -1.421875 24.609375 -1.421875 
Q 20.21875 -1.421875 15.453125 -0.5625 
Q 10.6875 0.296875 5.421875 2 
L 5.421875 11.28125 
Q 10.40625 8.6875 15.234375 7.390625 
Q 20.0625 6.109375 24.8125 6.109375 
Q 31.15625 6.109375 34.5625 8.28125 
Q 37.984375 10.453125 37.984375 14.40625 
Q 37.984375 18.0625 35.515625 20.015625 
Q 33.0625 21.96875 24.703125 23.78125 
L 21.578125 24.515625 
Q 13.234375 26.265625 9.515625 29.90625 
Q 5.8125 33.546875 5.8125 39.890625 
Q 5.8125 47.609375 11.28125 51.796875 
Q 16.75 56 26.8125 56 
Q 31.78125 56 36.171875 55.265625 
Q 40.578125 54.546875 44.28125 53.078125 
z
" id="DejaVuSans-115"/>
       </defs>
       <use xlink:href="#DejaVuSans-90"/>
       <use x="68.505859" xlink:href="#DejaVuSans-95"/>
       <use x="118.505859" xlink:href="#DejaVuSans-49"/>
       <use x="182.128906" xlink:href="#DejaVuSans-95"/>
       <use x="232.128906" xlink:href="#DejaVuSans-110"/>
       <use x="295.507812" xlink:href="#DejaVuSans-115"/>
      </g>
     </g>
    </g>
    <g id="xtick_2">
     <g id="line2d_2">
      <g>
       <use style="stroke:#000000;stroke-width:0.8;" x="221.4" xlink:href="#mcc299b6ba7" y="252"/>
      </g>
     </g>
     <g id="text_2">
      <!-- Z_2_ns -->
      <g transform="translate(204.020312 266.421875)scale(0.1 -0.1)">
       <defs>
        <path d="M 19.1875 8.296875 
L 53.609375 8.296875 
L 53.609375 0 
L 7.328125 0 
L 7.328125 8.296875 
Q 12.9375 14.109375 22.625 23.890625 
Q 32.328125 33.6875 34.8125 36.53125 
Q 39.546875 41.84375 41.421875 45.53125 
Q 43.3125 49.21875 43.3125 52.78125 
Q 43.3125 58.59375 39.234375 62.25 
Q 35.15625 65.921875 28.609375 65.921875 
Q 23.96875 65.921875 18.8125 64.3125 
Q 13.671875 62.703125 7.8125 59.421875 
L 7.8125 69.390625 
Q 13.765625 71.78125 18.9375 73 
Q 24.125 74.21875 28.421875 74.21875 
Q 39.75 74.21875 46.484375 68.546875 
Q 53.21875 62.890625 53.21875 53.421875 
Q 53.21875 48.921875 51.53125 44.890625 
Q 49.859375 40.875 45.40625 35.40625 
Q 44.1875 33.984375 37.640625 27.21875 
Q 31.109375 20.453125 19.1875 8.296875 
z
" id="DejaVuSans-50"/>
       </defs>
       <use xlink:href="#DejaVuSans-90"/>
       <use x="68.505859" xlink:href="#DejaVuSans-95"/>
       <use x="118.505859" xlink:href="#DejaVuSans-50"/>
       <use x="182.128906" xlink:href="#DejaVuSans-95"/>
       <use x="232.128906" xlink:href="#DejaVuSans-110"/>
       <use x="295.507812" xlink:href="#DejaVuSans-115"/>
      </g>
     </g>
    </g>
    <g id="xtick_3">
     <g id="line2d_3">
      <g>
       <use style="stroke:#000000;stroke-width:0.8;" x="333" xlink:href="#mcc299b6ba7" y="252"/>
      </g>
     </g>
     <g id="text_3">
      <!-- Z_3_ns -->
      <g transform="translate(315.620313 266.421875)scale(0.1 -0.1)">
       <defs>
        <path d="M 40.578125 39.3125 
Q 47.65625 37.796875 51.625 33 
Q 55.609375 28.21875 55.609375 21.1875 
Q 55.609375 10.40625 48.1875 4.484375 
Q 40.765625 -1.421875 27.09375 -1.421875 
Q 22.515625 -1.421875 17.65625 -0.515625 
Q 12.796875 0.390625 7.625 2.203125 
L 7.625 11.71875 
Q 11.71875 9.328125 16.59375 8.109375 
Q 21.484375 6.890625 26.8125 6.890625 
Q 36.078125 6.890625 40.9375 10.546875 
Q 45.796875 14.203125 45.796875 21.1875 
Q 45.796875 27.640625 41.28125 31.265625 
Q 36.765625 34.90625 28.71875 34.90625 
L 20.21875 34.90625 
L 20.21875 43.015625 
L 29.109375 43.015625 
Q 36.375 43.015625 40.234375 45.921875 
Q 44.09375 48.828125 44.09375 54.296875 
Q 44.09375 59.90625 40.109375 62.90625 
Q 36.140625 65.921875 28.71875 65.921875 
Q 24.65625 65.921875 20.015625 65.03125 
Q 15.375 64.15625 9.8125 62.3125 
L 9.8125 71.09375 
Q 15.4375 72.65625 20.34375 73.4375 
Q 25.25 74.21875 29.59375 74.21875 
Q 40.828125 74.21875 47.359375 69.109375 
Q 53.90625 64.015625 53.90625 55.328125 
Q 53.90625 49.265625 50.4375 45.09375 
Q 46.96875 40.921875 40.578125 39.3125 
z
" id="DejaVuSans-51"/>
       </defs>
       <use xlink:href="#DejaVuSans-90"/>
       <use x="68.505859" xlink:href="#DejaVuSans-95"/>
       <use x="118.505859" xlink:href="#DejaVuSans-51"/>
       <use x="182.128906" xlink:href="#DejaVuSans-95"/>
       <use x="232.128906" xlink:href="#DejaVuSans-110"/>
       <use x="295.507812" xlink:href="#DejaVuSans-115"/>
      </g>
     </g>
    </g>
    <g id="text_4">
     <!-- set -->
     <g transform="translate(213.758594 280.378125)scale(0.1 -0.1)">
      <defs>
       <path d="M 56.203125 29.59375 
L 56.203125 25.203125 
L 14.890625 25.203125 
Q 15.484375 15.921875 20.484375 11.0625 
Q 25.484375 6.203125 34.421875 6.203125 
Q 39.59375 6.203125 44.453125 7.46875 
Q 49.3125 8.734375 54.109375 11.28125 
L 54.109375 2.78125 
Q 49.265625 0.734375 44.1875 -0.34375 
Q 39.109375 -1.421875 33.890625 -1.421875 
Q 20.796875 -1.421875 13.15625 6.1875 
Q 5.515625 13.8125 5.515625 26.8125 
Q 5.515625 40.234375 12.765625 48.109375 
Q 20.015625 56 32.328125 56 
Q 43.359375 56 49.78125 48.890625 
Q 56.203125 41.796875 56.203125 29.59375 
z
M 47.21875 32.234375 
Q 47.125 39.59375 43.09375 43.984375 
Q 39.0625 48.390625 32.421875 48.390625 
Q 24.90625 48.390625 20.390625 44.140625 
Q 15.875 39.890625 15.1875 32.171875 
z
" id="DejaVuSans-101"/>
       <path d="M 18.3125 70.21875 
L 18.3125 54.6875 
L 36.8125 54.6875 
L 36.8125 47.703125 
L 18.3125 47.703125 
L 18.3125 18.015625 
Q 18.3125 11.328125 20.140625 9.421875 
Q 21.96875 7.515625 27.59375 7.515625 
L 36.8125 7.515625 
L 36.8125 0 
L 27.59375 0 
Q 17.1875 0 13.234375 3.875 
Q 9.28125 7.765625 9.28125 18.015625 
L 9.28125 47.703125 
L 2.6875 47.703125 
L 2.6875 54.6875 
L 9.28125 54.6875 
L 9.28125 70.21875 
z
" id="DejaVuSans-116"/>
      </defs>
      <use xlink:href="#DejaVuSans-115"/>
      <use x="52.099609" xlink:href="#DejaVuSans-101"/>
      <use x="113.623047" xlink:href="#DejaVuSans-116"/>
     </g>
    </g>
   </g>
   <g id="matplotlib.axis_2">
    <g id="ytick_1">
     <g id="line2d_4">
      <defs>
       <path d="M 0 0 
L -3.5 0 
" id="m8d55a0ca8e" style="stroke:#000000;stroke-width:0.8;"/>
      </defs>
      <g>
       <use style="stroke:#000000;stroke-width:0.8;" x="54" xlink:href="#m8d55a0ca8e" y="236.159598"/>
      </g>
     </g>
     <g id="text_5">
      <!-- −50 -->
      <g transform="translate(25.895312 239.958817)scale(0.1 -0.1)">
       <defs>
        <path d="M 10.59375 35.5 
L 73.1875 35.5 
L 73.1875 27.203125 
L 10.59375 27.203125 
z
" id="DejaVuSans-8722"/>
        <path d="M 10.796875 72.90625 
L 49.515625 72.90625 
L 49.515625 64.59375 
L 19.828125 64.59375 
L 19.828125 46.734375 
Q 21.96875 47.46875 24.109375 47.828125 
Q 26.265625 48.1875 28.421875 48.1875 
Q 40.625 48.1875 47.75 41.5 
Q 54.890625 34.8125 54.890625 23.390625 
Q 54.890625 11.625 47.5625 5.09375 
Q 40.234375 -1.421875 26.90625 -1.421875 
Q 22.3125 -1.421875 17.546875 -0.640625 
Q 12.796875 0.140625 7.71875 1.703125 
L 7.71875 11.625 
Q 12.109375 9.234375 16.796875 8.0625 
Q 21.484375 6.890625 26.703125 6.890625 
Q 35.15625 6.890625 40.078125 11.328125 
Q 45.015625 15.765625 45.015625 23.390625 
Q 45.015625 31 40.078125 35.4375 
Q 35.15625 39.890625 26.703125 39.890625 
Q 22.75 39.890625 18.8125 39.015625 
Q 14.890625 38.140625 10.796875 36.28125 
z
" id="DejaVuSans-53"/>
        <path d="M 31.78125 66.40625 
Q 24.171875 66.40625 20.328125 58.90625 
Q 16.5 51.421875 16.5 36.375 
Q 16.5 21.390625 20.328125 13.890625 
Q 24.171875 6.390625 31.78125 6.390625 
Q 39.453125 6.390625 43.28125 13.890625 
Q 47.125 21.390625 47.125 36.375 
Q 47.125 51.421875 43.28125 58.90625 
Q 39.453125 66.40625 31.78125 66.40625 
z
M 31.78125 74.21875 
Q 44.046875 74.21875 50.515625 64.515625 
Q 56.984375 54.828125 56.984375 36.375 
Q 56.984375 17.96875 50.515625 8.265625 
Q 44.046875 -1.421875 31.78125 -1.421875 
Q 19.53125 -1.421875 13.0625 8.265625 
Q 6.59375 17.96875 6.59375 36.375 
Q 6.59375 54.828125 13.0625 64.515625 
Q 19.53125 74.21875 31.78125 74.21875 
z
" id="DejaVuSans-48"/>
       </defs>
       <use xlink:href="#DejaVuSans-8722"/>
       <use x="83.789062" xlink:href="#DejaVuSans-53"/>
       <use x="147.412109" xlink:href="#DejaVuSans-48"/>
      </g>
     </g>
    </g>
    <g id="ytick_2">
     <g id="line2d_5">
      <g>
       <use style="stroke:#000000;stroke-width:0.8;" x="54" xlink:href="#m8d55a0ca8e" y="189.328953"/>
      </g>
     </g>
     <g id="text_6">
      <!-- −40 -->
      <g transform="translate(25.895312 193.128172)scale(0.1 -0.1)">
       <defs>
        <path d="M 37.796875 64.3125 
L 12.890625 25.390625 
L 37.796875 25.390625 
z
M 35.203125 72.90625 
L 47.609375 72.90625 
L 47.609375 25.390625 
L 58.015625 25.390625 
L 58.015625 17.1875 
L 47.609375 17.1875 
L 47.609375 0 
L 37.796875 0 
L 37.796875 17.1875 
L 4.890625 17.1875 
L 4.890625 26.703125 
z
" id="DejaVuSans-52"/>
       </defs>
       <use xlink:href="#DejaVuSans-8722"/>
       <use x="83.789062" xlink:href="#DejaVuSans-52"/>
       <use x="147.412109" xlink:href="#DejaVuSans-48"/>
      </g>
     </g>
    </g>
    <g id="ytick_3">
     <g id="line2d_6">
      <g>
       <use style="stroke:#000000;stroke-width:0.8;" x="54" xlink:href="#m8d55a0ca8e" y="142.498309"/>
      </g>
     </g>
     <g id="text_7">
      <!-- −30 -->
      <g transform="translate(25.895312 146.297527)scale(0.1 -0.1)">
       <use xlink:href="#DejaVuSans-8722"/>
       <use x="83.789062" xlink:href="#DejaVuSans-51"/>
       <use x="147.412109" xlink:href="#DejaVuSans-48"/>
      </g>
     </g>
    </g>
    <g id="ytick_4">
     <g id="line2d_7">
      <g>
       <use style="stroke:#000000;stroke-width:0.8;" x="54" xlink:href="#m8d55a0ca8e" y="95.667664"/>
      </g>
     </g>
     <g id="text_8">
      <!-- −20 -->
      <g transform="translate(25.895312 99.466883)scale(0.1 -0.1)">
       <use xlink:href="#DejaVuSans-8722"/>
       <use x="83.789062" xlink:href="#DejaVuSans-50"/>
       <use x="147.412109" xlink:href="#DejaVuSans-48"/>
      </g>
     </g>
    </g>
    <g id="ytick_5">
     <g id="line2d_8">
      <g>
       <use style="stroke:#000000;stroke-width:0.8;" x="54" xlink:href="#m8d55a0ca8e" y="48.837019"/>
      </g>
     </g>
     <g id="text_9">
      <!-- −10 -->
      <g transform="translate(25.895312 52.636238)scale(0.1 -0.1)">
       <use xlink:href="#DejaVuSans-8722"/>
       <use x="83.789062" xlink:href="#DejaVuSans-49"/>
       <use x="147.412109" xlink:href="#DejaVuSans-48"/>
      </g>
     </g>
    </g>
    <g id="text_10">
     <!-- value -->
     <g transform="translate(19.815625 156.937813)rotate(-90)scale(0.1 -0.1)">
      <defs>
       <path d="M 2.984375 54.6875 
L 12.5 54.6875 
L 29.59375 8.796875 
L 46.6875 54.6875 
L 56.203125 54.6875 
L 35.6875 0 
L 23.484375 0 
z
" id="DejaVuSans-118"/>
       <path d="M 34.28125 27.484375 
Q 23.390625 27.484375 19.1875 25 
Q 14.984375 22.515625 14.984375 16.5 
Q 14.984375 11.71875 18.140625 8.90625 
Q 21.296875 6.109375 26.703125 6.109375 
Q 34.1875 6.109375 38.703125 11.40625 
Q 43.21875 16.703125 43.21875 25.484375 
L 43.21875 27.484375 
z
M 52.203125 31.203125 
L 52.203125 0 
L 43.21875 0 
L 43.21875 8.296875 
Q 40.140625 3.328125 35.546875 0.953125 
Q 30.953125 -1.421875 24.3125 -1.421875 
Q 15.921875 -1.421875 10.953125 3.296875 
Q 6 8.015625 6 15.921875 
Q 6 25.140625 12.171875 29.828125 
Q 18.359375 34.515625 30.609375 34.515625 
L 43.21875 34.515625 
L 43.21875 35.40625 
Q 43.21875 41.609375 39.140625 45 
Q 35.0625 48.390625 27.6875 48.390625 
Q 23 48.390625 18.546875 47.265625 
Q 14.109375 46.140625 10.015625 43.890625 
L 10.015625 52.203125 
Q 14.9375 54.109375 19.578125 55.046875 
Q 24.21875 56 28.609375 56 
Q 40.484375 56 46.34375 49.84375 
Q 52.203125 43.703125 52.203125 31.203125 
z
" id="DejaVuSans-97"/>
       <path d="M 9.421875 75.984375 
L 18.40625 75.984375 
L 18.40625 0 
L 9.421875 0 
z
" id="DejaVuSans-108"/>
       <path d="M 8.5 21.578125 
L 8.5 54.6875 
L 17.484375 54.6875 
L 17.484375 21.921875 
Q 17.484375 14.15625 20.5 10.265625 
Q 23.53125 6.390625 29.59375 6.390625 
Q 36.859375 6.390625 41.078125 11.03125 
Q 45.3125 15.671875 45.3125 23.6875 
L 45.3125 54.6875 
L 54.296875 54.6875 
L 54.296875 0 
L 45.3125 0 
L 45.3125 8.40625 
Q 42.046875 3.421875 37.71875 1 
Q 33.40625 -1.421875 27.6875 -1.421875 
Q 18.265625 -1.421875 13.375 4.4375 
Q 8.5 10.296875 8.5 21.578125 
z
M 31.109375 56 
z
" id="DejaVuSans-117"/>
      </defs>
      <use xlink:href="#DejaVuSans-118"/>
      <use x="59.179688" xlink:href="#DejaVuSans-97"/>
      <use x="120.458984" xlink:href="#DejaVuSans-108"/>
      <use x="148.242188" xlink:href="#DejaVuSans-117"/>
      <use x="211.621094" xlink:href="#DejaVuSans-101"/>
     </g>
    </g>
   </g>
   <g id="line2d_9">
    <path clip-path="url(#pd780fb7472)" d="M 80.04 194.404518 
L 80.04 83.883793 
" style="fill:none;stroke:#3d3d3d;stroke-linecap:square;stroke-width:1.5;"/>
   </g>
   <g id="line2d_10">
    <path clip-path="url(#pd780fb7472)" d="M 80.04 141.356818 
L 80.04 105.689736 
" style="fill:none;stroke:#3d3d3d;stroke-linecap:square;stroke-width:4.5;"/>
   </g>
   <g id="line2d_11">
    <path clip-path="url(#pd780fb7472)" d="M 221.4 127.9408 
L 221.4 44.443636 
" style="fill:none;stroke:#3d3d3d;stroke-linecap:square;stroke-width:1.5;"/>
   </g>
   <g id="line2d_12">
    <path clip-path="url(#pd780fb7472)" d="M 221.4 90.443043 
L 221.4 65.374383 
" style="fill:none;stroke:#3d3d3d;stroke-linecap:square;stroke-width:4.5;"/>
   </g>
   <g id="line2d_13">
    <path clip-path="url(#pd780fb7472)" d="M 362.76 170.525005 
L 362.76 60.216868 
" style="fill:none;stroke:#3d3d3d;stroke-linecap:square;stroke-width:1.5;"/>
   </g>
   <g id="line2d_14">
    <path clip-path="url(#pd780fb7472)" d="M 362.76 118.399568 
L 362.76 83.364964 
" style="fill:none;stroke:#3d3d3d;stroke-linecap:square;stroke-width:4.5;"/>
   </g>
   <g id="patch_6">
    <path d="M 54 252 
L 54 34.56 
" style="fill:none;stroke:#000000;stroke-linecap:square;stroke-linejoin:miter;stroke-width:0.8;"/>
   </g>
   <g id="patch_7">
    <path d="M 388.8 252 
L 388.8 34.56 
" style="fill:none;stroke:#000000;stroke-linecap:square;stroke-linejoin:miter;stroke-width:0.8;"/>
   </g>
   <g id="patch_8">
    <path d="M 54 252 
L 388.8 252 
" style="fill:none;stroke:#000000;stroke-linecap:square;stroke-linejoin:miter;stroke-width:0.8;"/>
   </g>
   <g id="patch_9">
    <path d="M 54 34.56 
L 388.8 34.56 
" style="fill:none;stroke:#000000;stroke-linecap:square;stroke-linejoin:miter;stroke-width:0.8;"/>
   </g>
   <g id="PathCollection_1">
    <defs>
     <path d="M 0 1.5 
C 0.397805 1.5 0.77937 1.341951 1.06066 1.06066 
C 1.341951 0.77937 1.5 0.397805 1.5 0 
C 1.5 -0.397805 1.341951 -0.77937 1.06066 -1.06066 
C 0.77937 -1.341951 0.397805 -1.5 0 -1.5 
C -0.397805 -1.5 -0.77937 -1.341951 -1.06066 -1.06066 
C -1.341951 -0.77937 -1.5 -0.397805 -1.5 0 
C -1.5 0.397805 -1.341951 0.77937 -1.06066 1.06066 
C -0.77937 1.341951 -0.397805 1.5 0 1.5 
z
" id="mbb9ed86e12" style="stroke:#3d3d3d;"/>
    </defs>
    <g clip-path="url(#pd780fb7472)">
     <use style="fill:#ffffff;stroke:#3d3d3d;" x="80.04" xlink:href="#mbb9ed86e12" y="116.166566"/>
    </g>
   </g>
   <g id="PathCollection_2">
    <g clip-path="url(#pd780fb7472)">
     <use style="fill:#ffffff;stroke:#3d3d3d;" x="221.4" xlink:href="#mbb9ed86e12" y="76.469782"/>
    </g>
   </g>
   <g id="PathCollection_3">
    <g clip-path="url(#pd780fb7472)">
     <use style="fill:#ffffff;stroke:#3d3d3d;" x="362.76" xlink:href="#mbb9ed86e12" y="96.909343"/>
    </g>
   </g>
   <g id="legend_1">
    <g id="patch_10">
     <path d="M 315.040625 247 
L 381.8 247 
Q 383.8 247 383.8 245 
L 383.8 186.453125 
Q 383.8 184.453125 381.8 184.453125 
L 315.040625 184.453125 
Q 313.040625 184.453125 313.040625 186.453125 
L 313.040625 245 
Q 313.040625 247 315.040625 247 
z
" style="fill:#ffffff;opacity:0.8;stroke:#cccccc;stroke-linejoin:miter;"/>
    </g>
    <g id="text_11">
     <!-- set -->
     <g transform="translate(340.778906 196.051562)scale(0.1 -0.1)">
      <use xlink:href="#DejaVuSans-115"/>
      <use x="52.099609" xlink:href="#DejaVuSans-101"/>
      <use x="113.623047" xlink:href="#DejaVuSans-116"/>
     </g>
    </g>
    <g id="patch_11">
     <path d="M 317.040625 210.729687 
L 337.040625 210.729687 
L 337.040625 203.729687 
L 317.040625 203.729687 
z
" style="fill:#3274a1;stroke:#3d3d3d;stroke-linejoin:miter;stroke-width:0.75;"/>
    </g>
    <g id="text_12">
     <!-- Z_1_ns -->
     <g transform="translate(345.040625 210.729687)scale(0.1 -0.1)">
      <use xlink:href="#DejaVuSans-90"/>
      <use x="68.505859" xlink:href="#DejaVuSans-95"/>
      <use x="118.505859" xlink:href="#DejaVuSans-49"/>
      <use x="182.128906" xlink:href="#DejaVuSans-95"/>
      <use x="232.128906" xlink:href="#DejaVuSans-110"/>
      <use x="295.507812" xlink:href="#DejaVuSans-115"/>
     </g>
    </g>
    <g id="patch_12">
     <path d="M 317.040625 225.685937 
L 337.040625 225.685937 
L 337.040625 218.685937 
L 317.040625 218.685937 
z
" style="fill:#e1812c;stroke:#3d3d3d;stroke-linejoin:miter;stroke-width:0.75;"/>
    </g>
    <g id="text_13">
     <!-- Z_2_ns -->
     <g transform="translate(345.040625 225.685937)scale(0.1 -0.1)">
      <use xlink:href="#DejaVuSans-90"/>
      <use x="68.505859" xlink:href="#DejaVuSans-95"/>
      <use x="118.505859" xlink:href="#DejaVuSans-50"/>
      <use x="182.128906" xlink:href="#DejaVuSans-95"/>
      <use x="232.128906" xlink:href="#DejaVuSans-110"/>
      <use x="295.507812" xlink:href="#DejaVuSans-115"/>
     </g>
    </g>
    <g id="patch_13">
     <path d="M 317.040625 240.642187 
L 337.040625 240.642187 
L 337.040625 233.642187 
L 317.040625 233.642187 
z
" style="fill:#3a923a;stroke:#3d3d3d;stroke-linejoin:miter;stroke-width:0.75;"/>
    </g>
    <g id="text_14">
     <!-- Z_3_ns -->
     <g transform="translate(345.040625 240.642187)scale(0.1 -0.1)">
      <use xlink:href="#DejaVuSans-90"/>
      <use x="68.505859" xlink:href="#DejaVuSans-95"/>
      <use x="118.505859" xlink:href="#DejaVuSans-51"/>
      <use x="182.128906" xlink:href="#DejaVuSans-95"/>
      <use x="232.128906" xlink:href="#DejaVuSans-110"/>
      <use x="295.507812" xlink:href="#DejaVuSans-115"/>
     </g>
    </g>
   </g>
  </g>
 </g>
 <defs>
  <clipPath id="pd780fb7472">
   <rect height="217.44" width="334.8" x="54" y="34.56"/>
  </clipPath>
 </defs>
</svg>
