<?xml version="1.0" encoding="utf-8" standalone="no"?>
<!DOCTYPE svg PUBLIC "-//W3C//DTD SVG 1.1//EN"
  "http://www.w3.org/Graphics/SVG/1.1/DTD/svg11.dtd">
<!-- Created with matplotlib (https://matplotlib.org/) -->
<svg height="288pt" version="1.1" viewBox="0 0 432 288" width="432pt" xmlns="http://www.w3.org/2000/svg" xmlns:xlink="http://www.w3.org/1999/xlink">
 <metadata>
  <rdf:RDF xmlns:cc="http://creativecommons.org/ns#" xmlns:dc="http://purl.org/dc/elements/1.1/" xmlns:rdf="http://www.w3.org/1999/02/22-rdf-syntax-ns#">
   <cc:Work>
    <dc:type rdf:resource="http://purl.org/dc/dcmitype/StillImage"/>
    <dc:date>2022-05-12T12:56:31.414062</dc:date>
    <dc:format>image/svg+xml</dc:format>
    <dc:creator>
     <cc:Agent>
      <dc:title>Matplotlib v3.3.4, https://matplotlib.org/</dc:title>
     </cc:Agent>
    </dc:creator>
   </cc:Work>
  </rdf:RDF>
 </metadata>
 <defs>
  <style type="text/css">*{stroke-linecap:butt;stroke-linejoin:round;}</style>
 </defs>
 <g id="figure_1">
  <g id="patch_1">
   <path d="M 0 288 
L 432 288 
L 432 0 
L 0 0 
z
" style="fill:#ffffff;"/>
  </g>
  <g id="axes_1">
   <g id="patch_2">
    <path d="M 54 252 
L 388.8 252 
L 388.8 34.56 
L 54 34.56 
z
" style="fill:#ffffff;"/>
   </g>
   <g id="PolyCollection_1">
    <defs>
     <path d="M 104.263619 -45.883636 
L 104.176381 -45.883636 
L 104.179528 -47.880331 
L 104.187214 -49.877025 
L 104.194069 -51.873719 
L 104.195283 -53.870413 
L 104.189268 -55.867107 
L 104.178155 -57.863802 
L 104.166141 -59.860496 
L 104.15688 -61.85719 
L 104.151715 -63.853884 
L 104.149457 -65.850579 
L 104.146544 -67.847273 
L 104.13692 -69.843967 
L 104.113655 -71.840661 
L 104.074049 -73.837355 
L 104.024922 -75.83405 
L 103.981512 -77.830744 
L 103.957795 -79.827438 
L 103.955254 -81.824132 
L 103.960699 -83.820826 
L 103.956234 -85.817521 
L 103.932712 -87.814215 
L 103.894979 -89.810909 
L 103.855556 -91.807603 
L 103.823561 -93.804298 
L 103.798496 -95.800992 
L 103.773859 -97.797686 
L 103.747035 -99.79438 
L 103.725179 -101.791074 
L 103.719577 -103.787769 
L 103.733603 -105.784463 
L 103.757399 -107.781157 
L 103.774803 -109.777851 
L 103.774655 -111.774545 
L 103.756189 -113.77124 
L 103.72669 -115.767934 
L 103.695779 -117.764628 
L 103.669634 -119.761322 
L 103.64662 -121.758017 
L 103.616968 -123.754711 
L 103.56831 -125.751405 
L 103.493793 -127.748099 
L 103.396298 -129.744793 
L 103.285809 -131.741488 
L 103.172821 -133.738182 
L 103.062272 -135.734876 
L 102.949902 -137.73157 
L 102.821411 -139.728264 
L 102.655672 -141.724959 
L 102.432957 -143.721653 
L 102.144585 -145.718347 
L 101.795805 -147.715041 
L 101.397605 -149.711736 
L 100.956354 -151.70843 
L 100.475039 -153.705124 
L 99.963517 -155.701818 
L 99.439371 -157.698512 
L 98.912748 -159.695207 
L 98.371519 -161.691901 
L 97.783218 -163.688595 
L 97.111234 -165.685289 
L 96.332627 -167.681983 
L 95.448827 -169.678678 
L 94.484142 -171.675372 
L 93.469275 -173.672066 
L 92.417934 -175.66876 
L 91.31493 -177.665455 
L 90.124124 -179.662149 
L 88.805868 -181.658843 
L 87.334968 -183.655537 
L 85.721011 -185.652231 
L 84.022965 -187.648926 
L 82.334653 -189.64562 
L 80.735287 -191.642314 
L 79.238882 -193.639008 
L 77.787592 -195.635702 
L 76.300502 -197.632397 
L 74.747636 -199.629091 
L 73.205236 -201.625785 
L 71.861993 -203.622479 
L 70.967788 -205.619174 
L 70.74 -207.615868 
L 71.27018 -209.612562 
L 72.486822 -211.609256 
L 74.198302 -213.60595 
L 76.183779 -215.602645 
L 78.280923 -217.599339 
L 80.442131 -219.596033 
L 82.739161 -221.592727 
L 85.29262 -223.589421 
L 88.148591 -225.586116 
L 91.194219 -227.58281 
L 94.189111 -229.579504 
L 96.882395 -231.576198 
L 99.113725 -233.572893 
L 100.836889 -235.569587 
L 102.086983 -237.566281 
L 102.940262 -239.562975 
L 103.488122 -241.559669 
L 103.82028 -243.556364 
L 104.61972 -243.556364 
L 104.61972 -243.556364 
L 104.951878 -241.559669 
L 105.499738 -239.562975 
L 106.353017 -237.566281 
L 107.603111 -235.569587 
L 109.326275 -233.572893 
L 111.557605 -231.576198 
L 114.250889 -229.579504 
L 117.245781 -227.58281 
L 120.291409 -225.586116 
L 123.14738 -223.589421 
L 125.700839 -221.592727 
L 127.997869 -219.596033 
L 130.159077 -217.599339 
L 132.256221 -215.602645 
L 134.241698 -213.60595 
L 135.953178 -211.609256 
L 137.16982 -209.612562 
L 137.7 -207.615868 
L 137.472212 -205.619174 
L 136.578007 -203.622479 
L 135.234764 -201.625785 
L 133.692364 -199.629091 
L 132.139498 -197.632397 
L 130.652408 -195.635702 
L 129.201118 -193.639008 
L 127.704713 -191.642314 
L 126.105347 -189.64562 
L 124.417035 -187.648926 
L 122.718989 -185.652231 
L 121.105032 -183.655537 
L 119.634132 -181.658843 
L 118.315876 -179.662149 
L 117.12507 -177.665455 
L 116.022066 -175.66876 
L 114.970725 -173.672066 
L 113.955858 -171.675372 
L 112.991173 -169.678678 
L 112.107373 -167.681983 
L 111.328766 -165.685289 
L 110.656782 -163.688595 
L 110.068481 -161.691901 
L 109.527252 -159.695207 
L 109.000629 -157.698512 
L 108.476483 -155.701818 
L 107.964961 -153.705124 
L 107.483646 -151.70843 
L 107.042395 -149.711736 
L 106.644195 -147.715041 
L 106.295415 -145.718347 
L 106.007043 -143.721653 
L 105.784328 -141.724959 
L 105.618589 -139.728264 
L 105.490098 -137.73157 
L 105.377728 -135.734876 
L 105.267179 -133.738182 
L 105.154191 -131.741488 
L 105.043702 -129.744793 
L 104.946207 -127.748099 
L 104.87169 -125.751405 
L 104.823032 -123.754711 
L 104.79338 -121.758017 
L 104.770366 -119.761322 
L 104.744221 -117.764628 
L 104.71331 -115.767934 
L 104.683811 -113.77124 
L 104.665345 -111.774545 
L 104.665197 -109.777851 
L 104.682601 -107.781157 
L 104.706397 -105.784463 
L 104.720423 -103.787769 
L 104.714821 -101.791074 
L 104.692965 -99.79438 
L 104.666141 -97.797686 
L 104.641504 -95.800992 
L 104.616439 -93.804298 
L 104.584444 -91.807603 
L 104.545021 -89.810909 
L 104.507288 -87.814215 
L 104.483766 -85.817521 
L 104.479301 -83.820826 
L 104.484746 -81.824132 
L 104.482205 -79.827438 
L 104.458488 -77.830744 
L 104.415078 -75.83405 
L 104.365951 -73.837355 
L 104.326345 -71.840661 
L 104.30308 -69.843967 
L 104.293456 -67.847273 
L 104.290543 -65.850579 
L 104.288285 -63.853884 
L 104.28312 -61.85719 
L 104.273859 -59.860496 
L 104.261845 -57.863802 
L 104.250732 -55.867107 
L 104.244717 -53.870413 
L 104.245931 -51.873719 
L 104.252786 -49.877025 
L 104.260472 -47.880331 
L 104.263619 -45.883636 
z
" id="ma293770226" style="stroke:#3f3f3f;stroke-width:1.5;"/>
    </defs>
    <g clip-path="url(#p05c63e6613)">
     <use style="fill:#3274a1;stroke:#3f3f3f;stroke-width:1.5;" x="0" xlink:href="#ma293770226" y="288"/>
    </g>
   </g>
   <g id="PolyCollection_2">
    <defs>
     <path d="M 338.654168 -77.157464 
L 338.505832 -77.157464 
L 338.492661 -78.807466 
L 338.483217 -80.457468 
L 338.477531 -82.10747 
L 338.474952 -83.757472 
L 338.473216 -85.407475 
L 338.467659 -87.057477 
L 338.452572 -88.707479 
L 338.424957 -90.357481 
L 338.387724 -92.007483 
L 338.34871 -93.657485 
L 338.315497 -95.307487 
L 338.290497 -96.957489 
L 338.270595 -98.607491 
L 338.250857 -100.257494 
L 338.228425 -101.907496 
L 338.204245 -103.557498 
L 338.183082 -105.2075 
L 338.171893 -106.857502 
L 338.175625 -108.507504 
L 338.192034 -110.157506 
L 338.210162 -111.807508 
L 338.214659 -113.457511 
L 338.192856 -115.107513 
L 338.14033 -116.757515 
L 338.063316 -118.407517 
L 337.977288 -120.057519 
L 337.900896 -121.707521 
L 337.847242 -123.357523 
L 337.818022 -125.007525 
L 337.804809 -126.657527 
L 337.796119 -128.30753 
L 337.784552 -129.957532 
L 337.768883 -131.607534 
L 337.750643 -133.257536 
L 337.729345 -134.907538 
L 337.70053 -136.55754 
L 337.656892 -138.207542 
L 337.590297 -139.857544 
L 337.493763 -141.507546 
L 337.363307 -143.157549 
L 337.19806 -144.807551 
L 336.997832 -146.457553 
L 336.7617 -148.107555 
L 336.491772 -149.757557 
L 336.198758 -151.407559 
L 335.899871 -153.057561 
L 335.606373 -154.707563 
L 335.311664 -156.357565 
L 334.99307 -158.007568 
L 334.62611 -159.65757 
L 334.195773 -161.307572 
L 333.693025 -162.957574 
L 333.102819 -164.607576 
L 332.400969 -166.257578 
L 331.567557 -167.90758 
L 330.604086 -169.557582 
L 329.534632 -171.207584 
L 328.387637 -172.857587 
L 327.175681 -174.507589 
L 325.890333 -176.157591 
L 324.511262 -177.807593 
L 323.019722 -179.457595 
L 321.414155 -181.107597 
L 319.725929 -182.757599 
L 318.016848 -184.407601 
L 316.34074 -186.057603 
L 314.693622 -187.707606 
L 313.013313 -189.357608 
L 311.25219 -191.00761 
L 309.461081 -192.657612 
L 307.79732 -194.307614 
L 306.447306 -195.957616 
L 305.5377 -197.607618 
L 305.101687 -199.25762 
L 305.1 -200.907622 
L 305.459809 -202.557625 
L 306.102486 -204.207627 
L 306.947787 -205.857629 
L 307.903087 -207.507631 
L 308.8712 -209.157633 
L 309.798641 -210.807635 
L 310.729796 -212.457637 
L 311.803056 -214.107639 
L 313.174925 -215.757641 
L 314.930085 -217.407644 
L 317.043353 -219.057646 
L 319.406044 -220.707648 
L 321.882195 -222.35765 
L 324.354625 -224.007652 
L 326.740985 -225.657654 
L 328.983923 -227.307656 
L 331.035225 -228.957658 
L 332.85136 -230.60766 
L 334.40033 -232.257663 
L 335.667807 -233.907665 
L 336.65659 -235.557667 
L 337.384218 -237.207669 
L 337.882915 -238.857671 
L 338.198296 -240.507673 
L 338.961704 -240.507673 
L 338.961704 -240.507673 
L 339.277085 -238.857671 
L 339.775782 -237.207669 
L 340.50341 -235.557667 
L 341.492193 -233.907665 
L 342.75967 -232.257663 
L 344.30864 -230.60766 
L 346.124775 -228.957658 
L 348.176077 -227.307656 
L 350.419015 -225.657654 
L 352.805375 -224.007652 
L 355.277805 -222.35765 
L 357.753956 -220.707648 
L 360.116647 -219.057646 
L 362.229915 -217.407644 
L 363.985075 -215.757641 
L 365.356944 -214.107639 
L 366.430204 -212.457637 
L 367.361359 -210.807635 
L 368.2888 -209.157633 
L 369.256913 -207.507631 
L 370.212213 -205.857629 
L 371.057514 -204.207627 
L 371.700191 -202.557625 
L 372.06 -200.907622 
L 372.058313 -199.25762 
L 371.6223 -197.607618 
L 370.712694 -195.957616 
L 369.36268 -194.307614 
L 367.698919 -192.657612 
L 365.90781 -191.00761 
L 364.146687 -189.357608 
L 362.466378 -187.707606 
L 360.81926 -186.057603 
L 359.143152 -184.407601 
L 357.434071 -182.757599 
L 355.745845 -181.107597 
L 354.140278 -179.457595 
L 352.648738 -177.807593 
L 351.269667 -176.157591 
L 349.984319 -174.507589 
L 348.772363 -172.857587 
L 347.625368 -171.207584 
L 346.555914 -169.557582 
L 345.592443 -167.90758 
L 344.759031 -166.257578 
L 344.057181 -164.607576 
L 343.466975 -162.957574 
L 342.964227 -161.307572 
L 342.53389 -159.65757 
L 342.16693 -158.007568 
L 341.848336 -156.357565 
L 341.553627 -154.707563 
L 341.260129 -153.057561 
L 340.961242 -151.407559 
L 340.668228 -149.757557 
L 340.3983 -148.107555 
L 340.162168 -146.457553 
L 339.96194 -144.807551 
L 339.796693 -143.157549 
L 339.666237 -141.507546 
L 339.569703 -139.857544 
L 339.503108 -138.207542 
L 339.45947 -136.55754 
L 339.430655 -134.907538 
L 339.409357 -133.257536 
L 339.391117 -131.607534 
L 339.375448 -129.957532 
L 339.363881 -128.30753 
L 339.355191 -126.657527 
L 339.341978 -125.007525 
L 339.312758 -123.357523 
L 339.259104 -121.707521 
L 339.182712 -120.057519 
L 339.096684 -118.407517 
L 339.01967 -116.757515 
L 338.967144 -115.107513 
L 338.945341 -113.457511 
L 338.949838 -111.807508 
L 338.967966 -110.157506 
L 338.984375 -108.507504 
L 338.988107 -106.857502 
L 338.976918 -105.2075 
L 338.955755 -103.557498 
L 338.931575 -101.907496 
L 338.909143 -100.257494 
L 338.889405 -98.607491 
L 338.869503 -96.957489 
L 338.844503 -95.307487 
L 338.81129 -93.657485 
L 338.772276 -92.007483 
L 338.735043 -90.357481 
L 338.707428 -88.707479 
L 338.692341 -87.057477 
L 338.686784 -85.407475 
L 338.685048 -83.757472 
L 338.682469 -82.10747 
L 338.676783 -80.457468 
L 338.667339 -78.807466 
L 338.654168 -77.157464 
z
" id="mc1b24ec178" style="stroke:#3f3f3f;stroke-width:1.5;"/>
    </defs>
    <g clip-path="url(#p05c63e6613)">
     <use style="fill:#e1812c;stroke:#3f3f3f;stroke-width:1.5;" x="0" xlink:href="#mc1b24ec178" y="288"/>
    </g>
   </g>
   <g id="patch_3">
    <path clip-path="url(#p05c63e6613)" d="M 137.7 191.626967 
L 137.7 191.626967 
L 137.7 191.626967 
L 137.7 191.626967 
z
" style="fill:#3274a1;stroke:#3f3f3f;stroke-linejoin:miter;stroke-width:0.75;"/>
   </g>
   <g id="patch_4">
    <path clip-path="url(#p05c63e6613)" d="M 137.7 191.626967 
L 137.7 191.626967 
L 137.7 191.626967 
L 137.7 191.626967 
z
" style="fill:#e1812c;stroke:#3f3f3f;stroke-linejoin:miter;stroke-width:0.75;"/>
   </g>
   <g id="matplotlib.axis_1">
    <g id="xtick_1">
     <g id="line2d_1">
      <defs>
       <path d="M 0 0 
L 0 3.5 
" id="m77e44c6fd1" style="stroke:#000000;stroke-width:0.8;"/>
      </defs>
      <g>
       <use style="stroke:#000000;stroke-width:0.8;" x="137.7" xlink:href="#m77e44c6fd1" y="252"/>
      </g>
     </g>
     <g id="text_1">
      <!-- Z_1_ns -->
      <g transform="translate(120.320312 266.320312)scale(0.1 -0.1)">
       <defs>
        <path d="M 5.609375 72.90625 
L 62.890625 72.90625 
L 62.890625 65.375 
L 16.796875 8.296875 
L 64.015625 8.296875 
L 64.015625 0 
L 4.5 0 
L 4.5 7.515625 
L 50.59375 64.59375 
L 5.609375 64.59375 
z
" id="DejaVuSans-90"/>
        <path d="M 50.984375 -16.609375 
L 50.984375 -23.578125 
L -0.984375 -23.578125 
L -0.984375 -16.609375 
z
" id="DejaVuSans-95"/>
        <path d="M 12.40625 8.296875 
L 28.515625 8.296875 
L 28.515625 63.921875 
L 10.984375 60.40625 
L 10.984375 69.390625 
L 28.421875 72.90625 
L 38.28125 72.90625 
L 38.28125 8.296875 
L 54.390625 8.296875 
L 54.390625 0 
L 12.40625 0 
z
" id="DejaVuSans-49"/>
        <path d="M 54.890625 33.015625 
L 54.890625 0 
L 45.90625 0 
L 45.90625 32.71875 
Q 45.90625 40.484375 42.875 44.328125 
Q 39.84375 48.1875 33.796875 48.1875 
Q 26.515625 48.1875 22.3125 43.546875 
Q 18.109375 38.921875 18.109375 30.90625 
L 18.109375 0 
L 9.078125 0 
L 9.078125 54.6875 
L 18.109375 54.6875 
L 18.109375 46.1875 
Q 21.34375 51.125 25.703125 53.5625 
Q 30.078125 56 35.796875 56 
Q 45.21875 56 50.046875 50.171875 
Q 54.890625 44.34375 54.890625 33.015625 
z
" id="DejaVuSans-110"/>
        <path d="M 44.28125 53.078125 
L 44.28125 44.578125 
Q 40.484375 46.53125 36.375 47.5 
Q 32.28125 48.484375 27.875 48.484375 
Q 21.1875 48.484375 17.84375 46.4375 
Q 14.5 44.390625 14.5 40.28125 
Q 14.5 37.15625 16.890625 35.375 
Q 19.28125 33.59375 26.515625 31.984375 
L 29.59375 31.296875 
Q 39.15625 29.25 43.1875 25.515625 
Q 47.21875 21.78125 47.21875 15.09375 
Q 47.21875 7.46875 41.1875 3.015625 
Q 35.15625 -1.421875 24.609375 -1.421875 
Q 20.21875 -1.421875 15.453125 -0.5625 
Q 10.6875 0.296875 5.421875 2 
L 5.421875 11.28125 
Q 10.40625 8.6875 15.234375 7.390625 
Q 20.0625 6.109375 24.8125 6.109375 
Q 31.15625 6.109375 34.5625 8.28125 
Q 37.984375 10.453125 37.984375 14.40625 
Q 37.984375 18.0625 35.515625 20.015625 
Q 33.0625 21.96875 24.703125 23.78125 
L 21.578125 24.515625 
Q 13.234375 26.265625 9.515625 29.90625 
Q 5.8125 33.546875 5.8125 39.890625 
Q 5.8125 47.609375 11.28125 51.796875 
Q 16.75 56 26.8125 56 
Q 31.78125 56 36.171875 55.265625 
Q 40.578125 54.546875 44.28125 53.078125 
z
" id="DejaVuSans-115"/>
       </defs>
       <use xlink:href="#DejaVuSans-90"/>
       <use x="68.505859" xlink:href="#DejaVuSans-95"/>
       <use x="118.505859" xlink:href="#DejaVuSans-49"/>
       <use x="182.128906" xlink:href="#DejaVuSans-95"/>
       <use x="232.128906" xlink:href="#DejaVuSans-110"/>
       <use x="295.507812" xlink:href="#DejaVuSans-115"/>
      </g>
     </g>
    </g>
    <g id="xtick_2">
     <g id="line2d_2">
      <g>
       <use style="stroke:#000000;stroke-width:0.8;" x="305.1" xlink:href="#m77e44c6fd1" y="252"/>
      </g>
     </g>
     <g id="text_2">
      <!-- Z_2_ns -->
      <g transform="translate(287.720313 266.421875)scale(0.1 -0.1)">
       <defs>
        <path d="M 19.1875 8.296875 
L 53.609375 8.296875 
L 53.609375 0 
L 7.328125 0 
L 7.328125 8.296875 
Q 12.9375 14.109375 22.625 23.890625 
Q 32.328125 33.6875 34.8125 36.53125 
Q 39.546875 41.84375 41.421875 45.53125 
Q 43.3125 49.21875 43.3125 52.78125 
Q 43.3125 58.59375 39.234375 62.25 
Q 35.15625 65.921875 28.609375 65.921875 
Q 23.96875 65.921875 18.8125 64.3125 
Q 13.671875 62.703125 7.8125 59.421875 
L 7.8125 69.390625 
Q 13.765625 71.78125 18.9375 73 
Q 24.125 74.21875 28.421875 74.21875 
Q 39.75 74.21875 46.484375 68.546875 
Q 53.21875 62.890625 53.21875 53.421875 
Q 53.21875 48.921875 51.53125 44.890625 
Q 49.859375 40.875 45.40625 35.40625 
Q 44.1875 33.984375 37.640625 27.21875 
Q 31.109375 20.453125 19.1875 8.296875 
z
" id="DejaVuSans-50"/>
       </defs>
       <use xlink:href="#DejaVuSans-90"/>
       <use x="68.505859" xlink:href="#DejaVuSans-95"/>
       <use x="118.505859" xlink:href="#DejaVuSans-50"/>
       <use x="182.128906" xlink:href="#DejaVuSans-95"/>
       <use x="232.128906" xlink:href="#DejaVuSans-110"/>
       <use x="295.507812" xlink:href="#DejaVuSans-115"/>
      </g>
     </g>
    </g>
    <g id="text_3">
     <!-- set -->
     <g transform="translate(213.758594 280.378125)scale(0.1 -0.1)">
      <defs>
       <path d="M 56.203125 29.59375 
L 56.203125 25.203125 
L 14.890625 25.203125 
Q 15.484375 15.921875 20.484375 11.0625 
Q 25.484375 6.203125 34.421875 6.203125 
Q 39.59375 6.203125 44.453125 7.46875 
Q 49.3125 8.734375 54.109375 11.28125 
L 54.109375 2.78125 
Q 49.265625 0.734375 44.1875 -0.34375 
Q 39.109375 -1.421875 33.890625 -1.421875 
Q 20.796875 -1.421875 13.15625 6.1875 
Q 5.515625 13.8125 5.515625 26.8125 
Q 5.515625 40.234375 12.765625 48.109375 
Q 20.015625 56 32.328125 56 
Q 43.359375 56 49.78125 48.890625 
Q 56.203125 41.796875 56.203125 29.59375 
z
M 47.21875 32.234375 
Q 47.125 39.59375 43.09375 43.984375 
Q 39.0625 48.390625 32.421875 48.390625 
Q 24.90625 48.390625 20.390625 44.140625 
Q 15.875 39.890625 15.1875 32.171875 
z
" id="DejaVuSans-101"/>
       <path d="M 18.3125 70.21875 
L 18.3125 54.6875 
L 36.8125 54.6875 
L 36.8125 47.703125 
L 18.3125 47.703125 
L 18.3125 18.015625 
Q 18.3125 11.328125 20.140625 9.421875 
Q 21.96875 7.515625 27.59375 7.515625 
L 36.8125 7.515625 
L 36.8125 0 
L 27.59375 0 
Q 17.1875 0 13.234375 3.875 
Q 9.28125 7.765625 9.28125 18.015625 
L 9.28125 47.703125 
L 2.6875 47.703125 
L 2.6875 54.6875 
L 9.28125 54.6875 
L 9.28125 70.21875 
z
" id="DejaVuSans-116"/>
      </defs>
      <use xlink:href="#DejaVuSans-115"/>
      <use x="52.099609" xlink:href="#DejaVuSans-101"/>
      <use x="113.623047" xlink:href="#DejaVuSans-116"/>
     </g>
    </g>
   </g>
   <g id="matplotlib.axis_2">
    <g id="ytick_1">
     <g id="line2d_3">
      <defs>
       <path d="M 0 0 
L -3.5 0 
" id="md9fc2e7d52" style="stroke:#000000;stroke-width:0.8;"/>
      </defs>
      <g>
       <use style="stroke:#000000;stroke-width:0.8;" x="54" xlink:href="#md9fc2e7d52" y="232.795258"/>
      </g>
     </g>
     <g id="text_4">
      <!-- −5 -->
      <g transform="translate(32.257812 236.594477)scale(0.1 -0.1)">
       <defs>
        <path d="M 10.59375 35.5 
L 73.1875 35.5 
L 73.1875 27.203125 
L 10.59375 27.203125 
z
" id="DejaVuSans-8722"/>
        <path d="M 10.796875 72.90625 
L 49.515625 72.90625 
L 49.515625 64.59375 
L 19.828125 64.59375 
L 19.828125 46.734375 
Q 21.96875 47.46875 24.109375 47.828125 
Q 26.265625 48.1875 28.421875 48.1875 
Q 40.625 48.1875 47.75 41.5 
Q 54.890625 34.8125 54.890625 23.390625 
Q 54.890625 11.625 47.5625 5.09375 
Q 40.234375 -1.421875 26.90625 -1.421875 
Q 22.3125 -1.421875 17.546875 -0.640625 
Q 12.796875 0.140625 7.71875 1.703125 
L 7.71875 11.625 
Q 12.109375 9.234375 16.796875 8.0625 
Q 21.484375 6.890625 26.703125 6.890625 
Q 35.15625 6.890625 40.078125 11.328125 
Q 45.015625 15.765625 45.015625 23.390625 
Q 45.015625 31 40.078125 35.4375 
Q 35.15625 39.890625 26.703125 39.890625 
Q 22.75 39.890625 18.8125 39.015625 
Q 14.890625 38.140625 10.796875 36.28125 
z
" id="DejaVuSans-53"/>
       </defs>
       <use xlink:href="#DejaVuSans-8722"/>
       <use x="83.789062" xlink:href="#DejaVuSans-53"/>
      </g>
     </g>
    </g>
    <g id="ytick_2">
     <g id="line2d_4">
      <g>
       <use style="stroke:#000000;stroke-width:0.8;" x="54" xlink:href="#md9fc2e7d52" y="191.626967"/>
      </g>
     </g>
     <g id="text_5">
      <!-- 0 -->
      <g transform="translate(40.6375 195.426186)scale(0.1 -0.1)">
       <defs>
        <path d="M 31.78125 66.40625 
Q 24.171875 66.40625 20.328125 58.90625 
Q 16.5 51.421875 16.5 36.375 
Q 16.5 21.390625 20.328125 13.890625 
Q 24.171875 6.390625 31.78125 6.390625 
Q 39.453125 6.390625 43.28125 13.890625 
Q 47.125 21.390625 47.125 36.375 
Q 47.125 51.421875 43.28125 58.90625 
Q 39.453125 66.40625 31.78125 66.40625 
z
M 31.78125 74.21875 
Q 44.046875 74.21875 50.515625 64.515625 
Q 56.984375 54.828125 56.984375 36.375 
Q 56.984375 17.96875 50.515625 8.265625 
Q 44.046875 -1.421875 31.78125 -1.421875 
Q 19.53125 -1.421875 13.0625 8.265625 
Q 6.59375 17.96875 6.59375 36.375 
Q 6.59375 54.828125 13.0625 64.515625 
Q 19.53125 74.21875 31.78125 74.21875 
z
" id="DejaVuSans-48"/>
       </defs>
       <use xlink:href="#DejaVuSans-48"/>
      </g>
     </g>
    </g>
    <g id="ytick_3">
     <g id="line2d_5">
      <g>
       <use style="stroke:#000000;stroke-width:0.8;" x="54" xlink:href="#md9fc2e7d52" y="150.458676"/>
      </g>
     </g>
     <g id="text_6">
      <!-- 5 -->
      <g transform="translate(40.6375 154.257895)scale(0.1 -0.1)">
       <use xlink:href="#DejaVuSans-53"/>
      </g>
     </g>
    </g>
    <g id="ytick_4">
     <g id="line2d_6">
      <g>
       <use style="stroke:#000000;stroke-width:0.8;" x="54" xlink:href="#md9fc2e7d52" y="109.290385"/>
      </g>
     </g>
     <g id="text_7">
      <!-- 10 -->
      <g transform="translate(34.275 113.089604)scale(0.1 -0.1)">
       <use xlink:href="#DejaVuSans-49"/>
       <use x="63.623047" xlink:href="#DejaVuSans-48"/>
      </g>
     </g>
    </g>
    <g id="ytick_5">
     <g id="line2d_7">
      <g>
       <use style="stroke:#000000;stroke-width:0.8;" x="54" xlink:href="#md9fc2e7d52" y="68.122094"/>
      </g>
     </g>
     <g id="text_8">
      <!-- 15 -->
      <g transform="translate(34.275 71.921313)scale(0.1 -0.1)">
       <use xlink:href="#DejaVuSans-49"/>
       <use x="63.623047" xlink:href="#DejaVuSans-53"/>
      </g>
     </g>
    </g>
    <g id="text_9">
     <!-- value -->
     <g transform="translate(26.178125 156.937813)rotate(-90)scale(0.1 -0.1)">
      <defs>
       <path d="M 2.984375 54.6875 
L 12.5 54.6875 
L 29.59375 8.796875 
L 46.6875 54.6875 
L 56.203125 54.6875 
L 35.6875 0 
L 23.484375 0 
z
" id="DejaVuSans-118"/>
       <path d="M 34.28125 27.484375 
Q 23.390625 27.484375 19.1875 25 
Q 14.984375 22.515625 14.984375 16.5 
Q 14.984375 11.71875 18.140625 8.90625 
Q 21.296875 6.109375 26.703125 6.109375 
Q 34.1875 6.109375 38.703125 11.40625 
Q 43.21875 16.703125 43.21875 25.484375 
L 43.21875 27.484375 
z
M 52.203125 31.203125 
L 52.203125 0 
L 43.21875 0 
L 43.21875 8.296875 
Q 40.140625 3.328125 35.546875 0.953125 
Q 30.953125 -1.421875 24.3125 -1.421875 
Q 15.921875 -1.421875 10.953125 3.296875 
Q 6 8.015625 6 15.921875 
Q 6 25.140625 12.171875 29.828125 
Q 18.359375 34.515625 30.609375 34.515625 
L 43.21875 34.515625 
L 43.21875 35.40625 
Q 43.21875 41.609375 39.140625 45 
Q 35.0625 48.390625 27.6875 48.390625 
Q 23 48.390625 18.546875 47.265625 
Q 14.109375 46.140625 10.015625 43.890625 
L 10.015625 52.203125 
Q 14.9375 54.109375 19.578125 55.046875 
Q 24.21875 56 28.609375 56 
Q 40.484375 56 46.34375 49.84375 
Q 52.203125 43.703125 52.203125 31.203125 
z
" id="DejaVuSans-97"/>
       <path d="M 9.421875 75.984375 
L 18.40625 75.984375 
L 18.40625 0 
L 9.421875 0 
z
" id="DejaVuSans-108"/>
       <path d="M 8.5 21.578125 
L 8.5 54.6875 
L 17.484375 54.6875 
L 17.484375 21.921875 
Q 17.484375 14.15625 20.5 10.265625 
Q 23.53125 6.390625 29.59375 6.390625 
Q 36.859375 6.390625 41.078125 11.03125 
Q 45.3125 15.671875 45.3125 23.6875 
L 45.3125 54.6875 
L 54.296875 54.6875 
L 54.296875 0 
L 45.3125 0 
L 45.3125 8.40625 
Q 42.046875 3.421875 37.71875 1 
Q 33.40625 -1.421875 27.6875 -1.421875 
Q 18.265625 -1.421875 13.375 4.4375 
Q 8.5 10.296875 8.5 21.578125 
z
M 31.109375 56 
z
" id="DejaVuSans-117"/>
      </defs>
      <use xlink:href="#DejaVuSans-118"/>
      <use x="59.179688" xlink:href="#DejaVuSans-97"/>
      <use x="120.458984" xlink:href="#DejaVuSans-108"/>
      <use x="148.242188" xlink:href="#DejaVuSans-117"/>
      <use x="211.621094" xlink:href="#DejaVuSans-101"/>
     </g>
    </g>
   </g>
   <g id="line2d_8">
    <path clip-path="url(#p05c63e6613)" d="M 104.22 140.290853 
L 104.22 44.443636 
" style="fill:none;stroke:#3f3f3f;stroke-linecap:square;stroke-width:1.5;"/>
   </g>
   <g id="line2d_9">
    <path clip-path="url(#p05c63e6613)" d="M 104.22 101.133871 
L 104.22 74.833759 
" style="fill:none;stroke:#3f3f3f;stroke-linecap:square;stroke-width:4.5;"/>
   </g>
   <g id="line2d_10">
    <path clip-path="url(#p05c63e6613)" d="M 338.58 138.122119 
L 338.58 47.492327 
" style="fill:none;stroke:#3f3f3f;stroke-linecap:square;stroke-width:1.5;"/>
   </g>
   <g id="line2d_11">
    <path clip-path="url(#p05c63e6613)" d="M 338.58 101.294975 
L 338.58 76.708761 
" style="fill:none;stroke:#3f3f3f;stroke-linecap:square;stroke-width:4.5;"/>
   </g>
   <g id="patch_5">
    <path d="M 54 252 
L 54 34.56 
" style="fill:none;stroke:#000000;stroke-linecap:square;stroke-linejoin:miter;stroke-width:0.8;"/>
   </g>
   <g id="patch_6">
    <path d="M 388.8 252 
L 388.8 34.56 
" style="fill:none;stroke:#000000;stroke-linecap:square;stroke-linejoin:miter;stroke-width:0.8;"/>
   </g>
   <g id="patch_7">
    <path d="M 54 252 
L 388.8 252 
" style="fill:none;stroke:#000000;stroke-linecap:square;stroke-linejoin:miter;stroke-width:0.8;"/>
   </g>
   <g id="patch_8">
    <path d="M 54 34.56 
L 388.8 34.56 
" style="fill:none;stroke:#000000;stroke-linecap:square;stroke-linejoin:miter;stroke-width:0.8;"/>
   </g>
   <g id="PathCollection_1">
    <defs>
     <path d="M 0 1.5 
C 0.397805 1.5 0.77937 1.341951 1.06066 1.06066 
C 1.341951 0.77937 1.5 0.397805 1.5 0 
C 1.5 -0.397805 1.341951 -0.77937 1.06066 -1.06066 
C 0.77937 -1.341951 0.397805 -1.5 0 -1.5 
C -0.397805 -1.5 -0.77937 -1.341951 -1.06066 -1.06066 
C -1.341951 -0.77937 -1.5 -0.397805 -1.5 0 
C -1.5 0.397805 -1.341951 0.77937 -1.06066 1.06066 
C -0.77937 1.341951 -0.397805 1.5 0 1.5 
z
" id="m5a338b6437" style="stroke:#3f3f3f;"/>
    </defs>
    <g clip-path="url(#p05c63e6613)">
     <use style="fill:#ffffff;stroke:#3f3f3f;" x="104.22" xlink:href="#m5a338b6437" y="86.015713"/>
    </g>
   </g>
   <g id="PathCollection_2">
    <g clip-path="url(#p05c63e6613)">
     <use style="fill:#ffffff;stroke:#3f3f3f;" x="338.58" xlink:href="#m5a338b6437" y="88.634454"/>
    </g>
   </g>
   <g id="legend_1">
    <g id="patch_9">
     <path d="M 61 247 
L 127.759375 247 
Q 129.759375 247 129.759375 245 
L 129.759375 201.409375 
Q 129.759375 199.409375 127.759375 199.409375 
L 61 199.409375 
Q 59 199.409375 59 201.409375 
L 59 245 
Q 59 247 61 247 
z
" style="fill:#ffffff;opacity:0.8;stroke:#cccccc;stroke-linejoin:miter;"/>
    </g>
    <g id="text_10">
     <!-- set -->
     <g transform="translate(86.738281 211.007812)scale(0.1 -0.1)">
      <use xlink:href="#DejaVuSans-115"/>
      <use x="52.099609" xlink:href="#DejaVuSans-101"/>
      <use x="113.623047" xlink:href="#DejaVuSans-116"/>
     </g>
    </g>
    <g id="patch_10">
     <path d="M 63 225.685937 
L 83 225.685937 
L 83 218.685937 
L 63 218.685937 
z
" style="fill:#3274a1;stroke:#3f3f3f;stroke-linejoin:miter;stroke-width:0.75;"/>
    </g>
    <g id="text_11">
     <!-- Z_1_ns -->
     <g transform="translate(91 225.685937)scale(0.1 -0.1)">
      <use xlink:href="#DejaVuSans-90"/>
      <use x="68.505859" xlink:href="#DejaVuSans-95"/>
      <use x="118.505859" xlink:href="#DejaVuSans-49"/>
      <use x="182.128906" xlink:href="#DejaVuSans-95"/>
      <use x="232.128906" xlink:href="#DejaVuSans-110"/>
      <use x="295.507812" xlink:href="#DejaVuSans-115"/>
     </g>
    </g>
    <g id="patch_11">
     <path d="M 63 240.642188 
L 83 240.642188 
L 83 233.642188 
L 63 233.642188 
z
" style="fill:#e1812c;stroke:#3f3f3f;stroke-linejoin:miter;stroke-width:0.75;"/>
    </g>
    <g id="text_12">
     <!-- Z_2_ns -->
     <g transform="translate(91 240.642188)scale(0.1 -0.1)">
      <use xlink:href="#DejaVuSans-90"/>
      <use x="68.505859" xlink:href="#DejaVuSans-95"/>
      <use x="118.505859" xlink:href="#DejaVuSans-50"/>
      <use x="182.128906" xlink:href="#DejaVuSans-95"/>
      <use x="232.128906" xlink:href="#DejaVuSans-110"/>
      <use x="295.507812" xlink:href="#DejaVuSans-115"/>
     </g>
    </g>
   </g>
  </g>
 </g>
 <defs>
  <clipPath id="p05c63e6613">
   <rect height="217.44" width="334.8" x="54" y="34.56"/>
  </clipPath>
 </defs>
</svg>
