<?xml version="1.0" encoding="utf-8" standalone="no"?>
<!DOCTYPE svg PUBLIC "-//W3C//DTD SVG 1.1//EN"
  "http://www.w3.org/Graphics/SVG/1.1/DTD/svg11.dtd">
<!-- Created with matplotlib (https://matplotlib.org/) -->
<svg height="288pt" version="1.1" viewBox="0 0 432 288" width="432pt" xmlns="http://www.w3.org/2000/svg" xmlns:xlink="http://www.w3.org/1999/xlink">
 <metadata>
  <rdf:RDF xmlns:cc="http://creativecommons.org/ns#" xmlns:dc="http://purl.org/dc/elements/1.1/" xmlns:rdf="http://www.w3.org/1999/02/22-rdf-syntax-ns#">
   <cc:Work>
    <dc:type rdf:resource="http://purl.org/dc/dcmitype/StillImage"/>
    <dc:date>2022-07-16T12:06:00.286092</dc:date>
    <dc:format>image/svg+xml</dc:format>
    <dc:creator>
     <cc:Agent>
      <dc:title>Matplotlib v3.3.4, https://matplotlib.org/</dc:title>
     </cc:Agent>
    </dc:creator>
   </cc:Work>
  </rdf:RDF>
 </metadata>
 <defs>
  <style type="text/css">*{stroke-linecap:butt;stroke-linejoin:round;}</style>
 </defs>
 <g id="figure_1">
  <g id="patch_1">
   <path d="M 0 288 
L 432 288 
L 432 0 
L 0 0 
z
" style="fill:#ffffff;"/>
  </g>
  <g id="axes_1">
   <g id="patch_2">
    <path d="M 54 252 
L 388.8 252 
L 388.8 34.56 
L 54 34.56 
z
" style="fill:#ffffff;"/>
   </g>
   <g id="PolyCollection_1">
    <defs>
     <path d="M 80.071018 -71.375246 
L 80.008982 -71.375246 
L 80.004944 -73.110678 
L 80.000081 -74.84611 
L 79.993309 -76.581542 
L 79.984325 -78.316975 
L 79.97407 -80.052407 
L 79.964385 -81.787839 
L 79.956882 -83.523271 
L 79.951628 -85.258703 
L 79.946478 -86.994135 
L 79.937608 -88.729567 
L 79.921095 -90.464999 
L 79.894708 -92.200432 
L 79.858858 -93.935864 
L 79.816092 -95.671296 
L 79.769343 -97.406728 
L 79.719961 -99.14216 
L 79.666677 -100.877592 
L 79.606132 -102.613024 
L 79.534594 -104.348456 
L 79.449875 -106.083889 
L 79.352516 -107.819321 
L 79.245939 -109.554753 
L 79.13575 -111.290185 
L 79.028408 -113.025617 
L 78.929315 -114.761049 
L 78.84048 -116.496481 
L 78.758509 -118.231913 
L 78.674169 -119.967346 
L 78.574467 -121.702778 
L 78.446826 -123.43821 
L 78.283425 -125.173642 
L 78.083366 -126.909074 
L 77.851499 -128.644506 
L 77.59476 -130.379938 
L 77.318116 -132.11537 
L 77.022047 -133.850803 
L 76.702341 -135.586235 
L 76.351982 -137.321667 
L 75.964405 -139.057099 
L 75.537109 -140.792531 
L 75.074268 -142.527963 
L 74.586802 -144.263395 
L 74.089335 -145.998827 
L 73.59523 -147.73426 
L 73.112491 -149.469692 
L 72.643015 -151.205124 
L 72.185499 -152.940556 
L 71.739961 -154.675988 
L 71.311072 -156.41142 
L 70.908458 -158.146852 
L 70.543702 -159.882284 
L 70.225176 -161.617717 
L 69.952845 -163.353149 
L 69.71571 -165.088581 
L 69.493722 -166.824013 
L 69.263692 -168.559445 
L 69.006233 -170.294877 
L 68.709915 -172.030309 
L 68.370784 -173.765741 
L 67.988983 -175.501174 
L 67.566734 -177.236606 
L 67.110831 -178.972038 
L 66.638364 -180.70747 
L 66.180163 -182.442902 
L 65.776544 -184.178334 
L 65.464996 -185.913766 
L 65.265709 -187.649198 
L 65.173335 -189.384631 
L 65.16 -191.120063 
L 65.187952 -192.855495 
L 65.225001 -194.590927 
L 65.25535 -196.326359 
L 65.282333 -198.061791 
L 65.324515 -199.797223 
L 65.409037 -201.532655 
L 65.565059 -203.268088 
L 65.817831 -205.00352 
L 66.183288 -206.738952 
L 66.664342 -208.474384 
L 67.251079 -210.209816 
L 67.925484 -211.945248 
L 68.668294 -213.68068 
L 69.463818 -215.416112 
L 70.30023 -217.151545 
L 71.166307 -218.886977 
L 72.047985 -220.622409 
L 72.92752 -222.357841 
L 73.785625 -224.093273 
L 74.604965 -225.828705 
L 75.373097 -227.564137 
L 76.083693 -229.299569 
L 76.73573 -231.035002 
L 77.330955 -232.770434 
L 77.870632 -234.505866 
L 78.353154 -236.241298 
L 78.773903 -237.97673 
L 79.127485 -239.712162 
L 79.411015 -241.447594 
L 79.626511 -243.183026 
L 80.453489 -243.183026 
L 80.453489 -243.183026 
L 80.668985 -241.447594 
L 80.952515 -239.712162 
L 81.306097 -237.97673 
L 81.726846 -236.241298 
L 82.209368 -234.505866 
L 82.749045 -232.770434 
L 83.34427 -231.035002 
L 83.996307 -229.299569 
L 84.706903 -227.564137 
L 85.475035 -225.828705 
L 86.294375 -224.093273 
L 87.15248 -222.357841 
L 88.032015 -220.622409 
L 88.913693 -218.886977 
L 89.77977 -217.151545 
L 90.616182 -215.416112 
L 91.411706 -213.68068 
L 92.154516 -211.945248 
L 92.828921 -210.209816 
L 93.415658 -208.474384 
L 93.896712 -206.738952 
L 94.262169 -205.00352 
L 94.514941 -203.268088 
L 94.670963 -201.532655 
L 94.755485 -199.797223 
L 94.797667 -198.061791 
L 94.82465 -196.326359 
L 94.854999 -194.590927 
L 94.892048 -192.855495 
L 94.92 -191.120063 
L 94.906665 -189.384631 
L 94.814291 -187.649198 
L 94.615004 -185.913766 
L 94.303456 -184.178334 
L 93.899837 -182.442902 
L 93.441636 -180.70747 
L 92.969169 -178.972038 
L 92.513266 -177.236606 
L 92.091017 -175.501174 
L 91.709216 -173.765741 
L 91.370085 -172.030309 
L 91.073767 -170.294877 
L 90.816308 -168.559445 
L 90.586278 -166.824013 
L 90.36429 -165.088581 
L 90.127155 -163.353149 
L 89.854824 -161.617717 
L 89.536298 -159.882284 
L 89.171542 -158.146852 
L 88.768928 -156.41142 
L 88.340039 -154.675988 
L 87.894501 -152.940556 
L 87.436985 -151.205124 
L 86.967509 -149.469692 
L 86.48477 -147.73426 
L 85.990665 -145.998827 
L 85.493198 -144.263395 
L 85.005732 -142.527963 
L 84.542891 -140.792531 
L 84.115595 -139.057099 
L 83.728018 -137.321667 
L 83.377659 -135.586235 
L 83.057953 -133.850803 
L 82.761884 -132.11537 
L 82.48524 -130.379938 
L 82.228501 -128.644506 
L 81.996634 -126.909074 
L 81.796575 -125.173642 
L 81.633174 -123.43821 
L 81.505533 -121.702778 
L 81.405831 -119.967346 
L 81.321491 -118.231913 
L 81.23952 -116.496481 
L 81.150685 -114.761049 
L 81.051592 -113.025617 
L 80.94425 -111.290185 
L 80.834061 -109.554753 
L 80.727484 -107.819321 
L 80.630125 -106.083889 
L 80.545406 -104.348456 
L 80.473868 -102.613024 
L 80.413323 -100.877592 
L 80.360039 -99.14216 
L 80.310657 -97.406728 
L 80.263908 -95.671296 
L 80.221142 -93.935864 
L 80.185292 -92.200432 
L 80.158905 -90.464999 
L 80.142392 -88.729567 
L 80.133522 -86.994135 
L 80.128372 -85.258703 
L 80.123118 -83.523271 
L 80.115615 -81.787839 
L 80.10593 -80.052407 
L 80.095675 -78.316975 
L 80.086691 -76.581542 
L 80.079919 -74.84611 
L 80.075056 -73.110678 
L 80.071018 -71.375246 
z
" id="m4ebc858afe" style="stroke:#3d3d3d;stroke-width:1.5;"/>
    </defs>
    <g clip-path="url(#p5f57afae0a)">
     <use style="fill:#3274a1;stroke:#3d3d3d;stroke-width:1.5;" x="0" xlink:href="#m4ebc858afe" y="288"/>
    </g>
   </g>
   <g id="PolyCollection_2">
    <defs>
     <path d="M 221.458695 -45.883636 
L 221.341305 -45.883636 
L 221.338957 -47.791349 
L 221.336439 -49.699062 
L 221.330948 -51.606774 
L 221.319 -53.514487 
L 221.297129 -55.4222 
L 221.262759 -57.329913 
L 221.21509 -59.237625 
L 221.15575 -61.145338 
L 221.088977 -63.053051 
L 221.021143 -64.960763 
L 220.959599 -66.868476 
L 220.911038 -68.776189 
L 220.879796 -70.683902 
L 220.866594 -72.591614 
L 220.868135 -74.499327 
L 220.877761 -76.40704 
L 220.887035 -78.314752 
L 220.887784 -80.222465 
L 220.874016 -82.130178 
L 220.843106 -84.037891 
L 220.795942 -85.945603 
L 220.736044 -87.853316 
L 220.668068 -89.761029 
L 220.59625 -91.668741 
L 220.523337 -93.576454 
L 220.450254 -95.484167 
L 220.376456 -97.391879 
L 220.300653 -99.299592 
L 220.221503 -101.207305 
L 220.137993 -103.115018 
L 220.049353 -105.02273 
L 219.954544 -106.930443 
L 219.85147 -108.838156 
L 219.736201 -110.745868 
L 219.602639 -112.653581 
L 219.443065 -114.561294 
L 219.249808 -116.469007 
L 219.017757 -118.376719 
L 218.7469 -120.284432 
L 218.443703 -122.192145 
L 218.12043 -124.099857 
L 217.792231 -126.00757 
L 217.47285 -127.915283 
L 217.170415 -129.822995 
L 216.884808 -131.730708 
L 216.607372 -133.638421 
L 216.322866 -135.546134 
L 216.012855 -137.453846 
L 215.659594 -139.361559 
L 215.249652 -141.269272 
L 214.776795 -143.176984 
L 214.243701 -145.084697 
L 213.662059 -146.99241 
L 213.050769 -148.900123 
L 212.43245 -150.807835 
L 211.829176 -152.715548 
L 211.258734 -154.623261 
L 210.732512 -156.530973 
L 210.255348 -158.438686 
L 209.826769 -160.346399 
L 209.442583 -162.254112 
L 209.095939 -164.161824 
L 208.777746 -166.069537 
L 208.477062 -167.97725 
L 208.182438 -169.884962 
L 207.884712 -171.792675 
L 207.580817 -173.700388 
L 207.277211 -175.6081 
L 206.991247 -177.515813 
L 206.749418 -179.423526 
L 206.582645 -181.331239 
L 206.52 -183.238951 
L 206.58279 -185.146664 
L 206.780652 -187.054377 
L 207.110401 -188.962089 
L 207.557408 -190.869802 
L 208.098656 -192.777515 
L 208.70647 -194.685228 
L 209.352223 -196.59294 
L 210.00968 -198.500653 
L 210.65799 -200.408366 
L 211.284296 -202.316078 
L 211.885657 -204.223791 
L 212.469531 -206.131504 
L 213.051982 -208.039216 
L 213.653259 -209.946929 
L 214.291465 -211.854642 
L 214.976091 -213.762355 
L 215.703702 -215.670067 
L 216.457421 -217.57778 
L 217.210463 -219.485493 
L 217.932377 -221.393205 
L 218.595732 -223.300918 
L 219.181088 -225.208631 
L 219.67908 -227.116344 
L 220.089683 -229.024056 
L 220.419641 -230.931769 
L 220.679361 -232.839482 
L 220.880283 -234.747194 
L 221.919717 -234.747194 
L 221.919717 -234.747194 
L 222.120639 -232.839482 
L 222.380359 -230.931769 
L 222.710317 -229.024056 
L 223.12092 -227.116344 
L 223.618912 -225.208631 
L 224.204268 -223.300918 
L 224.867623 -221.393205 
L 225.589537 -219.485493 
L 226.342579 -217.57778 
L 227.096298 -215.670067 
L 227.823909 -213.762355 
L 228.508535 -211.854642 
L 229.146741 -209.946929 
L 229.748018 -208.039216 
L 230.330469 -206.131504 
L 230.914343 -204.223791 
L 231.515704 -202.316078 
L 232.14201 -200.408366 
L 232.79032 -198.500653 
L 233.447777 -196.59294 
L 234.09353 -194.685228 
L 234.701344 -192.777515 
L 235.242592 -190.869802 
L 235.689599 -188.962089 
L 236.019348 -187.054377 
L 236.21721 -185.146664 
L 236.28 -183.238951 
L 236.217355 -181.331239 
L 236.050582 -179.423526 
L 235.808753 -177.515813 
L 235.522789 -175.6081 
L 235.219183 -173.700388 
L 234.915288 -171.792675 
L 234.617562 -169.884962 
L 234.322938 -167.97725 
L 234.022254 -166.069537 
L 233.704061 -164.161824 
L 233.357417 -162.254112 
L 232.973231 -160.346399 
L 232.544652 -158.438686 
L 232.067488 -156.530973 
L 231.541266 -154.623261 
L 230.970824 -152.715548 
L 230.36755 -150.807835 
L 229.749231 -148.900123 
L 229.137941 -146.99241 
L 228.556299 -145.084697 
L 228.023205 -143.176984 
L 227.550348 -141.269272 
L 227.140406 -139.361559 
L 226.787145 -137.453846 
L 226.477134 -135.546134 
L 226.192628 -133.638421 
L 225.915192 -131.730708 
L 225.629585 -129.822995 
L 225.32715 -127.915283 
L 225.007769 -126.00757 
L 224.67957 -124.099857 
L 224.356297 -122.192145 
L 224.0531 -120.284432 
L 223.782243 -118.376719 
L 223.550192 -116.469007 
L 223.356935 -114.561294 
L 223.197361 -112.653581 
L 223.063799 -110.745868 
L 222.94853 -108.838156 
L 222.845456 -106.930443 
L 222.750647 -105.02273 
L 222.662007 -103.115018 
L 222.578497 -101.207305 
L 222.499347 -99.299592 
L 222.423544 -97.391879 
L 222.349746 -95.484167 
L 222.276663 -93.576454 
L 222.20375 -91.668741 
L 222.131932 -89.761029 
L 222.063956 -87.853316 
L 222.004058 -85.945603 
L 221.956894 -84.037891 
L 221.925984 -82.130178 
L 221.912216 -80.222465 
L 221.912965 -78.314752 
L 221.922239 -76.40704 
L 221.931865 -74.499327 
L 221.933406 -72.591614 
L 221.920204 -70.683902 
L 221.888962 -68.776189 
L 221.840401 -66.868476 
L 221.778857 -64.960763 
L 221.711023 -63.053051 
L 221.64425 -61.145338 
L 221.58491 -59.237625 
L 221.537241 -57.329913 
L 221.502871 -55.4222 
L 221.481 -53.514487 
L 221.469052 -51.606774 
L 221.463561 -49.699062 
L 221.461043 -47.791349 
L 221.458695 -45.883636 
z
" id="m6de7d6e9b0" style="stroke:#3d3d3d;stroke-width:1.5;"/>
    </defs>
    <g clip-path="url(#p5f57afae0a)">
     <use style="fill:#e1812c;stroke:#3d3d3d;stroke-width:1.5;" x="0" xlink:href="#m6de7d6e9b0" y="288"/>
    </g>
   </g>
   <g id="PolyCollection_3">
    <defs>
     <path d="M 363.123328 -66.046253 
L 362.396672 -66.046253 
L 362.350305 -67.839284 
L 362.311171 -69.632315 
L 362.279498 -71.425347 
L 362.254502 -73.218378 
L 362.235011 -75.01141 
L 362.220109 -76.804441 
L 362.209492 -78.597473 
L 362.203395 -80.390504 
L 362.202056 -82.183535 
L 362.204916 -83.976567 
L 362.209839 -85.769598 
L 362.212675 -87.56263 
L 362.207412 -89.355661 
L 362.186973 -91.148693 
L 362.144509 -92.941724 
L 362.074843 -94.734755 
L 361.975695 -96.527787 
L 361.848321 -98.320818 
L 361.697399 -100.11385 
L 361.53015 -101.906881 
L 361.354877 -103.699913 
L 361.179229 -105.492944 
L 361.008559 -107.285975 
L 360.844731 -109.079007 
L 360.685654 -110.872038 
L 360.525624 -112.66507 
L 360.356408 -114.458101 
L 360.168796 -116.251133 
L 359.954287 -118.044164 
L 359.706557 -119.837195 
L 359.422482 -121.630227 
L 359.102595 -123.423258 
L 358.751015 -125.21629 
L 358.374838 -127.009321 
L 357.983044 -128.802352 
L 357.584894 -130.595384 
L 357.187955 -132.388415 
L 356.796097 -134.181447 
L 356.408021 -135.974478 
L 356.01699 -137.76751 
L 355.612177 -139.560541 
L 355.181553 -141.353572 
L 354.715581 -143.146604 
L 354.210513 -144.939635 
L 353.670084 -146.732667 
L 353.104935 -148.525698 
L 352.529968 -150.31873 
L 351.960672 -152.111761 
L 351.409852 -153.904792 
L 350.885859 -155.697824 
L 350.392759 -157.490855 
L 349.931982 -159.283887 
L 349.50457 -161.076918 
L 349.113077 -162.86995 
L 348.762546 -164.662981 
L 348.460369 -166.456012 
L 348.215134 -168.249044 
L 348.034644 -170.042075 
L 347.923393 -171.835107 
L 347.88 -173.628138 
L 347.895363 -175.42117 
L 347.952505 -177.214201 
L 348.028824 -179.007232 
L 348.100764 -180.800264 
L 348.149832 -182.593295 
L 348.168126 -184.386327 
L 348.161364 -186.179358 
L 348.148187 -187.972389 
L 348.155872 -189.765421 
L 348.213927 -191.558452 
L 348.347757 -193.351484 
L 348.574349 -195.144515 
L 348.90094 -196.937547 
L 349.326384 -198.730578 
L 349.844028 -200.523609 
L 350.444609 -202.316641 
L 351.11808 -204.109672 
L 351.853996 -205.902704 
L 352.64084 -207.695735 
L 353.4651 -209.488767 
L 354.310924 -211.281798 
L 355.160799 -213.074829 
L 355.997172 -214.867861 
L 356.804443 -216.660892 
L 357.570562 -218.453924 
L 358.287612 -220.246955 
L 358.951239 -222.039987 
L 359.559287 -223.833018 
L 360.11033 -225.626049 
L 360.602763 -227.419081 
L 361.03478 -229.212112 
L 361.405117 -231.005144 
L 361.714085 -232.798175 
L 361.964365 -234.591207 
L 362.161195 -236.384238 
L 362.311891 -238.177269 
L 362.424898 -239.970301 
L 362.508708 -241.763332 
L 362.570927 -243.556364 
L 362.949073 -243.556364 
L 362.949073 -243.556364 
L 363.011292 -241.763332 
L 363.095102 -239.970301 
L 363.208109 -238.177269 
L 363.358805 -236.384238 
L 363.555635 -234.591207 
L 363.805915 -232.798175 
L 364.114883 -231.005144 
L 364.48522 -229.212112 
L 364.917237 -227.419081 
L 365.40967 -225.626049 
L 365.960713 -223.833018 
L 366.568761 -222.039987 
L 367.232388 -220.246955 
L 367.949438 -218.453924 
L 368.715557 -216.660892 
L 369.522828 -214.867861 
L 370.359201 -213.074829 
L 371.209076 -211.281798 
L 372.0549 -209.488767 
L 372.87916 -207.695735 
L 373.666004 -205.902704 
L 374.40192 -204.109672 
L 375.075391 -202.316641 
L 375.675972 -200.523609 
L 376.193616 -198.730578 
L 376.61906 -196.937547 
L 376.945651 -195.144515 
L 377.172243 -193.351484 
L 377.306073 -191.558452 
L 377.364128 -189.765421 
L 377.371813 -187.972389 
L 377.358636 -186.179358 
L 377.351874 -184.386327 
L 377.370168 -182.593295 
L 377.419236 -180.800264 
L 377.491176 -179.007232 
L 377.567495 -177.214201 
L 377.624637 -175.42117 
L 377.64 -173.628138 
L 377.596607 -171.835107 
L 377.485356 -170.042075 
L 377.304866 -168.249044 
L 377.059631 -166.456012 
L 376.757454 -164.662981 
L 376.406923 -162.86995 
L 376.01543 -161.076918 
L 375.588018 -159.283887 
L 375.127241 -157.490855 
L 374.634141 -155.697824 
L 374.110148 -153.904792 
L 373.559328 -152.111761 
L 372.990032 -150.31873 
L 372.415065 -148.525698 
L 371.849916 -146.732667 
L 371.309487 -144.939635 
L 370.804419 -143.146604 
L 370.338447 -141.353572 
L 369.907823 -139.560541 
L 369.50301 -137.76751 
L 369.111979 -135.974478 
L 368.723903 -134.181447 
L 368.332045 -132.388415 
L 367.935106 -130.595384 
L 367.536956 -128.802352 
L 367.145162 -127.009321 
L 366.768985 -125.21629 
L 366.417405 -123.423258 
L 366.097518 -121.630227 
L 365.813443 -119.837195 
L 365.565713 -118.044164 
L 365.351204 -116.251133 
L 365.163592 -114.458101 
L 364.994376 -112.66507 
L 364.834346 -110.872038 
L 364.675269 -109.079007 
L 364.511441 -107.285975 
L 364.340771 -105.492944 
L 364.165123 -103.699913 
L 363.98985 -101.906881 
L 363.822601 -100.11385 
L 363.671679 -98.320818 
L 363.544305 -96.527787 
L 363.445157 -94.734755 
L 363.375491 -92.941724 
L 363.333027 -91.148693 
L 363.312588 -89.355661 
L 363.307325 -87.56263 
L 363.310161 -85.769598 
L 363.315084 -83.976567 
L 363.317944 -82.183535 
L 363.316605 -80.390504 
L 363.310508 -78.597473 
L 363.299891 -76.804441 
L 363.284989 -75.01141 
L 363.265498 -73.218378 
L 363.240502 -71.425347 
L 363.208829 -69.632315 
L 363.169695 -67.839284 
L 363.123328 -66.046253 
z
" id="m1da8b821a9" style="stroke:#3d3d3d;stroke-width:1.5;"/>
    </defs>
    <g clip-path="url(#p5f57afae0a)">
     <use style="fill:#3a923a;stroke:#3d3d3d;stroke-width:1.5;" x="0" xlink:href="#m1da8b821a9" y="288"/>
    </g>
   </g>
   <g id="patch_3">
    <path clip-path="url(#p5f57afae0a)" d="M 109.8 243.011449 
L 109.8 243.011449 
L 109.8 243.011449 
L 109.8 243.011449 
z
" style="fill:#3274a1;stroke:#3d3d3d;stroke-linejoin:miter;stroke-width:0.75;"/>
   </g>
   <g id="patch_4">
    <path clip-path="url(#p5f57afae0a)" d="M 109.8 243.011449 
L 109.8 243.011449 
L 109.8 243.011449 
L 109.8 243.011449 
z
" style="fill:#e1812c;stroke:#3d3d3d;stroke-linejoin:miter;stroke-width:0.75;"/>
   </g>
   <g id="patch_5">
    <path clip-path="url(#p5f57afae0a)" d="M 109.8 243.011449 
L 109.8 243.011449 
L 109.8 243.011449 
L 109.8 243.011449 
z
" style="fill:#3a923a;stroke:#3d3d3d;stroke-linejoin:miter;stroke-width:0.75;"/>
   </g>
   <g id="matplotlib.axis_1">
    <g id="xtick_1">
     <g id="line2d_1">
      <defs>
       <path d="M 0 0 
L 0 3.5 
" id="mc5b36584db" style="stroke:#000000;stroke-width:0.8;"/>
      </defs>
      <g>
       <use style="stroke:#000000;stroke-width:0.8;" x="109.8" xlink:href="#mc5b36584db" y="252"/>
      </g>
     </g>
     <g id="text_1">
      <!-- train -->
      <g transform="translate(98.1625 266.598437)scale(0.1 -0.1)">
       <defs>
        <path d="M 18.3125 70.21875 
L 18.3125 54.6875 
L 36.8125 54.6875 
L 36.8125 47.703125 
L 18.3125 47.703125 
L 18.3125 18.015625 
Q 18.3125 11.328125 20.140625 9.421875 
Q 21.96875 7.515625 27.59375 7.515625 
L 36.8125 7.515625 
L 36.8125 0 
L 27.59375 0 
Q 17.1875 0 13.234375 3.875 
Q 9.28125 7.765625 9.28125 18.015625 
L 9.28125 47.703125 
L 2.6875 47.703125 
L 2.6875 54.6875 
L 9.28125 54.6875 
L 9.28125 70.21875 
z
" id="DejaVuSans-116"/>
        <path d="M 41.109375 46.296875 
Q 39.59375 47.171875 37.8125 47.578125 
Q 36.03125 48 33.890625 48 
Q 26.265625 48 22.1875 43.046875 
Q 18.109375 38.09375 18.109375 28.8125 
L 18.109375 0 
L 9.078125 0 
L 9.078125 54.6875 
L 18.109375 54.6875 
L 18.109375 46.1875 
Q 20.953125 51.171875 25.484375 53.578125 
Q 30.03125 56 36.53125 56 
Q 37.453125 56 38.578125 55.875 
Q 39.703125 55.765625 41.0625 55.515625 
z
" id="DejaVuSans-114"/>
        <path d="M 34.28125 27.484375 
Q 23.390625 27.484375 19.1875 25 
Q 14.984375 22.515625 14.984375 16.5 
Q 14.984375 11.71875 18.140625 8.90625 
Q 21.296875 6.109375 26.703125 6.109375 
Q 34.1875 6.109375 38.703125 11.40625 
Q 43.21875 16.703125 43.21875 25.484375 
L 43.21875 27.484375 
z
M 52.203125 31.203125 
L 52.203125 0 
L 43.21875 0 
L 43.21875 8.296875 
Q 40.140625 3.328125 35.546875 0.953125 
Q 30.953125 -1.421875 24.3125 -1.421875 
Q 15.921875 -1.421875 10.953125 3.296875 
Q 6 8.015625 6 15.921875 
Q 6 25.140625 12.171875 29.828125 
Q 18.359375 34.515625 30.609375 34.515625 
L 43.21875 34.515625 
L 43.21875 35.40625 
Q 43.21875 41.609375 39.140625 45 
Q 35.0625 48.390625 27.6875 48.390625 
Q 23 48.390625 18.546875 47.265625 
Q 14.109375 46.140625 10.015625 43.890625 
L 10.015625 52.203125 
Q 14.9375 54.109375 19.578125 55.046875 
Q 24.21875 56 28.609375 56 
Q 40.484375 56 46.34375 49.84375 
Q 52.203125 43.703125 52.203125 31.203125 
z
" id="DejaVuSans-97"/>
        <path d="M 9.421875 54.6875 
L 18.40625 54.6875 
L 18.40625 0 
L 9.421875 0 
z
M 9.421875 75.984375 
L 18.40625 75.984375 
L 18.40625 64.59375 
L 9.421875 64.59375 
z
" id="DejaVuSans-105"/>
        <path d="M 54.890625 33.015625 
L 54.890625 0 
L 45.90625 0 
L 45.90625 32.71875 
Q 45.90625 40.484375 42.875 44.328125 
Q 39.84375 48.1875 33.796875 48.1875 
Q 26.515625 48.1875 22.3125 43.546875 
Q 18.109375 38.921875 18.109375 30.90625 
L 18.109375 0 
L 9.078125 0 
L 9.078125 54.6875 
L 18.109375 54.6875 
L 18.109375 46.1875 
Q 21.34375 51.125 25.703125 53.5625 
Q 30.078125 56 35.796875 56 
Q 45.21875 56 50.046875 50.171875 
Q 54.890625 44.34375 54.890625 33.015625 
z
" id="DejaVuSans-110"/>
       </defs>
       <use xlink:href="#DejaVuSans-116"/>
       <use x="39.208984" xlink:href="#DejaVuSans-114"/>
       <use x="80.322266" xlink:href="#DejaVuSans-97"/>
       <use x="141.601562" xlink:href="#DejaVuSans-105"/>
       <use x="169.384766" xlink:href="#DejaVuSans-110"/>
      </g>
     </g>
    </g>
    <g id="xtick_2">
     <g id="line2d_2">
      <g>
       <use style="stroke:#000000;stroke-width:0.8;" x="221.4" xlink:href="#mc5b36584db" y="252"/>
      </g>
     </g>
     <g id="text_2">
      <!-- val -->
      <g transform="translate(213.9875 266.598437)scale(0.1 -0.1)">
       <defs>
        <path d="M 2.984375 54.6875 
L 12.5 54.6875 
L 29.59375 8.796875 
L 46.6875 54.6875 
L 56.203125 54.6875 
L 35.6875 0 
L 23.484375 0 
z
" id="DejaVuSans-118"/>
        <path d="M 9.421875 75.984375 
L 18.40625 75.984375 
L 18.40625 0 
L 9.421875 0 
z
" id="DejaVuSans-108"/>
       </defs>
       <use xlink:href="#DejaVuSans-118"/>
       <use x="59.179688" xlink:href="#DejaVuSans-97"/>
       <use x="120.458984" xlink:href="#DejaVuSans-108"/>
      </g>
     </g>
    </g>
    <g id="xtick_3">
     <g id="line2d_3">
      <g>
       <use style="stroke:#000000;stroke-width:0.8;" x="333" xlink:href="#mc5b36584db" y="252"/>
      </g>
     </g>
     <g id="text_3">
      <!-- test -->
      <g transform="translate(323.398438 266.598437)scale(0.1 -0.1)">
       <defs>
        <path d="M 56.203125 29.59375 
L 56.203125 25.203125 
L 14.890625 25.203125 
Q 15.484375 15.921875 20.484375 11.0625 
Q 25.484375 6.203125 34.421875 6.203125 
Q 39.59375 6.203125 44.453125 7.46875 
Q 49.3125 8.734375 54.109375 11.28125 
L 54.109375 2.78125 
Q 49.265625 0.734375 44.1875 -0.34375 
Q 39.109375 -1.421875 33.890625 -1.421875 
Q 20.796875 -1.421875 13.15625 6.1875 
Q 5.515625 13.8125 5.515625 26.8125 
Q 5.515625 40.234375 12.765625 48.109375 
Q 20.015625 56 32.328125 56 
Q 43.359375 56 49.78125 48.890625 
Q 56.203125 41.796875 56.203125 29.59375 
z
M 47.21875 32.234375 
Q 47.125 39.59375 43.09375 43.984375 
Q 39.0625 48.390625 32.421875 48.390625 
Q 24.90625 48.390625 20.390625 44.140625 
Q 15.875 39.890625 15.1875 32.171875 
z
" id="DejaVuSans-101"/>
        <path d="M 44.28125 53.078125 
L 44.28125 44.578125 
Q 40.484375 46.53125 36.375 47.5 
Q 32.28125 48.484375 27.875 48.484375 
Q 21.1875 48.484375 17.84375 46.4375 
Q 14.5 44.390625 14.5 40.28125 
Q 14.5 37.15625 16.890625 35.375 
Q 19.28125 33.59375 26.515625 31.984375 
L 29.59375 31.296875 
Q 39.15625 29.25 43.1875 25.515625 
Q 47.21875 21.78125 47.21875 15.09375 
Q 47.21875 7.46875 41.1875 3.015625 
Q 35.15625 -1.421875 24.609375 -1.421875 
Q 20.21875 -1.421875 15.453125 -0.5625 
Q 10.6875 0.296875 5.421875 2 
L 5.421875 11.28125 
Q 10.40625 8.6875 15.234375 7.390625 
Q 20.0625 6.109375 24.8125 6.109375 
Q 31.15625 6.109375 34.5625 8.28125 
Q 37.984375 10.453125 37.984375 14.40625 
Q 37.984375 18.0625 35.515625 20.015625 
Q 33.0625 21.96875 24.703125 23.78125 
L 21.578125 24.515625 
Q 13.234375 26.265625 9.515625 29.90625 
Q 5.8125 33.546875 5.8125 39.890625 
Q 5.8125 47.609375 11.28125 51.796875 
Q 16.75 56 26.8125 56 
Q 31.78125 56 36.171875 55.265625 
Q 40.578125 54.546875 44.28125 53.078125 
z
" id="DejaVuSans-115"/>
       </defs>
       <use xlink:href="#DejaVuSans-116"/>
       <use x="39.208984" xlink:href="#DejaVuSans-101"/>
       <use x="100.732422" xlink:href="#DejaVuSans-115"/>
       <use x="152.832031" xlink:href="#DejaVuSans-116"/>
      </g>
     </g>
    </g>
    <g id="text_4">
     <!-- set -->
     <g transform="translate(213.758594 280.276563)scale(0.1 -0.1)">
      <use xlink:href="#DejaVuSans-115"/>
      <use x="52.099609" xlink:href="#DejaVuSans-101"/>
      <use x="113.623047" xlink:href="#DejaVuSans-116"/>
     </g>
    </g>
   </g>
   <g id="matplotlib.axis_2">
    <g id="ytick_1">
     <g id="line2d_4">
      <defs>
       <path d="M 0 0 
L -3.5 0 
" id="m03f2c328db" style="stroke:#000000;stroke-width:0.8;"/>
      </defs>
      <g>
       <use style="stroke:#000000;stroke-width:0.8;" x="54" xlink:href="#m03f2c328db" y="243.011449"/>
      </g>
     </g>
     <g id="text_5">
      <!-- 0.0 -->
      <g transform="translate(31.096875 246.810668)scale(0.1 -0.1)">
       <defs>
        <path d="M 31.78125 66.40625 
Q 24.171875 66.40625 20.328125 58.90625 
Q 16.5 51.421875 16.5 36.375 
Q 16.5 21.390625 20.328125 13.890625 
Q 24.171875 6.390625 31.78125 6.390625 
Q 39.453125 6.390625 43.28125 13.890625 
Q 47.125 21.390625 47.125 36.375 
Q 47.125 51.421875 43.28125 58.90625 
Q 39.453125 66.40625 31.78125 66.40625 
z
M 31.78125 74.21875 
Q 44.046875 74.21875 50.515625 64.515625 
Q 56.984375 54.828125 56.984375 36.375 
Q 56.984375 17.96875 50.515625 8.265625 
Q 44.046875 -1.421875 31.78125 -1.421875 
Q 19.53125 -1.421875 13.0625 8.265625 
Q 6.59375 17.96875 6.59375 36.375 
Q 6.59375 54.828125 13.0625 64.515625 
Q 19.53125 74.21875 31.78125 74.21875 
z
" id="DejaVuSans-48"/>
        <path d="M 10.6875 12.40625 
L 21 12.40625 
L 21 0 
L 10.6875 0 
z
" id="DejaVuSans-46"/>
       </defs>
       <use xlink:href="#DejaVuSans-48"/>
       <use x="63.623047" xlink:href="#DejaVuSans-46"/>
       <use x="95.410156" xlink:href="#DejaVuSans-48"/>
      </g>
     </g>
    </g>
    <g id="ytick_2">
     <g id="line2d_5">
      <g>
       <use style="stroke:#000000;stroke-width:0.8;" x="54" xlink:href="#m03f2c328db" y="199.429765"/>
      </g>
     </g>
     <g id="text_6">
      <!-- 0.2 -->
      <g transform="translate(31.096875 203.228984)scale(0.1 -0.1)">
       <defs>
        <path d="M 19.1875 8.296875 
L 53.609375 8.296875 
L 53.609375 0 
L 7.328125 0 
L 7.328125 8.296875 
Q 12.9375 14.109375 22.625 23.890625 
Q 32.328125 33.6875 34.8125 36.53125 
Q 39.546875 41.84375 41.421875 45.53125 
Q 43.3125 49.21875 43.3125 52.78125 
Q 43.3125 58.59375 39.234375 62.25 
Q 35.15625 65.921875 28.609375 65.921875 
Q 23.96875 65.921875 18.8125 64.3125 
Q 13.671875 62.703125 7.8125 59.421875 
L 7.8125 69.390625 
Q 13.765625 71.78125 18.9375 73 
Q 24.125 74.21875 28.421875 74.21875 
Q 39.75 74.21875 46.484375 68.546875 
Q 53.21875 62.890625 53.21875 53.421875 
Q 53.21875 48.921875 51.53125 44.890625 
Q 49.859375 40.875 45.40625 35.40625 
Q 44.1875 33.984375 37.640625 27.21875 
Q 31.109375 20.453125 19.1875 8.296875 
z
" id="DejaVuSans-50"/>
       </defs>
       <use xlink:href="#DejaVuSans-48"/>
       <use x="63.623047" xlink:href="#DejaVuSans-46"/>
       <use x="95.410156" xlink:href="#DejaVuSans-50"/>
      </g>
     </g>
    </g>
    <g id="ytick_3">
     <g id="line2d_6">
      <g>
       <use style="stroke:#000000;stroke-width:0.8;" x="54" xlink:href="#m03f2c328db" y="155.848081"/>
      </g>
     </g>
     <g id="text_7">
      <!-- 0.4 -->
      <g transform="translate(31.096875 159.6473)scale(0.1 -0.1)">
       <defs>
        <path d="M 37.796875 64.3125 
L 12.890625 25.390625 
L 37.796875 25.390625 
z
M 35.203125 72.90625 
L 47.609375 72.90625 
L 47.609375 25.390625 
L 58.015625 25.390625 
L 58.015625 17.1875 
L 47.609375 17.1875 
L 47.609375 0 
L 37.796875 0 
L 37.796875 17.1875 
L 4.890625 17.1875 
L 4.890625 26.703125 
z
" id="DejaVuSans-52"/>
       </defs>
       <use xlink:href="#DejaVuSans-48"/>
       <use x="63.623047" xlink:href="#DejaVuSans-46"/>
       <use x="95.410156" xlink:href="#DejaVuSans-52"/>
      </g>
     </g>
    </g>
    <g id="ytick_4">
     <g id="line2d_7">
      <g>
       <use style="stroke:#000000;stroke-width:0.8;" x="54" xlink:href="#m03f2c328db" y="112.266397"/>
      </g>
     </g>
     <g id="text_8">
      <!-- 0.6 -->
      <g transform="translate(31.096875 116.065616)scale(0.1 -0.1)">
       <defs>
        <path d="M 33.015625 40.375 
Q 26.375 40.375 22.484375 35.828125 
Q 18.609375 31.296875 18.609375 23.390625 
Q 18.609375 15.53125 22.484375 10.953125 
Q 26.375 6.390625 33.015625 6.390625 
Q 39.65625 6.390625 43.53125 10.953125 
Q 47.40625 15.53125 47.40625 23.390625 
Q 47.40625 31.296875 43.53125 35.828125 
Q 39.65625 40.375 33.015625 40.375 
z
M 52.59375 71.296875 
L 52.59375 62.3125 
Q 48.875 64.0625 45.09375 64.984375 
Q 41.3125 65.921875 37.59375 65.921875 
Q 27.828125 65.921875 22.671875 59.328125 
Q 17.53125 52.734375 16.796875 39.40625 
Q 19.671875 43.65625 24.015625 45.921875 
Q 28.375 48.1875 33.59375 48.1875 
Q 44.578125 48.1875 50.953125 41.515625 
Q 57.328125 34.859375 57.328125 23.390625 
Q 57.328125 12.15625 50.6875 5.359375 
Q 44.046875 -1.421875 33.015625 -1.421875 
Q 20.359375 -1.421875 13.671875 8.265625 
Q 6.984375 17.96875 6.984375 36.375 
Q 6.984375 53.65625 15.1875 63.9375 
Q 23.390625 74.21875 37.203125 74.21875 
Q 40.921875 74.21875 44.703125 73.484375 
Q 48.484375 72.75 52.59375 71.296875 
z
" id="DejaVuSans-54"/>
       </defs>
       <use xlink:href="#DejaVuSans-48"/>
       <use x="63.623047" xlink:href="#DejaVuSans-46"/>
       <use x="95.410156" xlink:href="#DejaVuSans-54"/>
      </g>
     </g>
    </g>
    <g id="ytick_5">
     <g id="line2d_8">
      <g>
       <use style="stroke:#000000;stroke-width:0.8;" x="54" xlink:href="#m03f2c328db" y="68.684713"/>
      </g>
     </g>
     <g id="text_9">
      <!-- 0.8 -->
      <g transform="translate(31.096875 72.483932)scale(0.1 -0.1)">
       <defs>
        <path d="M 31.78125 34.625 
Q 24.75 34.625 20.71875 30.859375 
Q 16.703125 27.09375 16.703125 20.515625 
Q 16.703125 13.921875 20.71875 10.15625 
Q 24.75 6.390625 31.78125 6.390625 
Q 38.8125 6.390625 42.859375 10.171875 
Q 46.921875 13.96875 46.921875 20.515625 
Q 46.921875 27.09375 42.890625 30.859375 
Q 38.875 34.625 31.78125 34.625 
z
M 21.921875 38.8125 
Q 15.578125 40.375 12.03125 44.71875 
Q 8.5 49.078125 8.5 55.328125 
Q 8.5 64.0625 14.71875 69.140625 
Q 20.953125 74.21875 31.78125 74.21875 
Q 42.671875 74.21875 48.875 69.140625 
Q 55.078125 64.0625 55.078125 55.328125 
Q 55.078125 49.078125 51.53125 44.71875 
Q 48 40.375 41.703125 38.8125 
Q 48.828125 37.15625 52.796875 32.3125 
Q 56.78125 27.484375 56.78125 20.515625 
Q 56.78125 9.90625 50.3125 4.234375 
Q 43.84375 -1.421875 31.78125 -1.421875 
Q 19.734375 -1.421875 13.25 4.234375 
Q 6.78125 9.90625 6.78125 20.515625 
Q 6.78125 27.484375 10.78125 32.3125 
Q 14.796875 37.15625 21.921875 38.8125 
z
M 18.3125 54.390625 
Q 18.3125 48.734375 21.84375 45.5625 
Q 25.390625 42.390625 31.78125 42.390625 
Q 38.140625 42.390625 41.71875 45.5625 
Q 45.3125 48.734375 45.3125 54.390625 
Q 45.3125 60.0625 41.71875 63.234375 
Q 38.140625 66.40625 31.78125 66.40625 
Q 25.390625 66.40625 21.84375 63.234375 
Q 18.3125 60.0625 18.3125 54.390625 
z
" id="DejaVuSans-56"/>
       </defs>
       <use xlink:href="#DejaVuSans-48"/>
       <use x="63.623047" xlink:href="#DejaVuSans-46"/>
       <use x="95.410156" xlink:href="#DejaVuSans-56"/>
      </g>
     </g>
    </g>
    <g id="text_10">
     <!-- value -->
     <g transform="translate(25.017187 156.937813)rotate(-90)scale(0.1 -0.1)">
      <defs>
       <path d="M 8.5 21.578125 
L 8.5 54.6875 
L 17.484375 54.6875 
L 17.484375 21.921875 
Q 17.484375 14.15625 20.5 10.265625 
Q 23.53125 6.390625 29.59375 6.390625 
Q 36.859375 6.390625 41.078125 11.03125 
Q 45.3125 15.671875 45.3125 23.6875 
L 45.3125 54.6875 
L 54.296875 54.6875 
L 54.296875 0 
L 45.3125 0 
L 45.3125 8.40625 
Q 42.046875 3.421875 37.71875 1 
Q 33.40625 -1.421875 27.6875 -1.421875 
Q 18.265625 -1.421875 13.375 4.4375 
Q 8.5 10.296875 8.5 21.578125 
z
M 31.109375 56 
z
" id="DejaVuSans-117"/>
      </defs>
      <use xlink:href="#DejaVuSans-118"/>
      <use x="59.179688" xlink:href="#DejaVuSans-97"/>
      <use x="120.458984" xlink:href="#DejaVuSans-108"/>
      <use x="148.242188" xlink:href="#DejaVuSans-117"/>
      <use x="211.621094" xlink:href="#DejaVuSans-101"/>
     </g>
    </g>
   </g>
   <g id="line2d_9">
    <path clip-path="url(#p5f57afae0a)" d="M 80.04 181.594978 
L 80.04 44.816974 
" style="fill:none;stroke:#3d3d3d;stroke-linecap:square;stroke-width:1.5;"/>
   </g>
   <g id="line2d_10">
    <path clip-path="url(#p5f57afae0a)" d="M 80.04 122.692981 
L 80.04 83.387553 
" style="fill:none;stroke:#3d3d3d;stroke-linecap:square;stroke-width:4.5;"/>
   </g>
   <g id="line2d_11">
    <path clip-path="url(#p5f57afae0a)" d="M 221.4 188.785406 
L 221.4 53.252806 
" style="fill:none;stroke:#3d3d3d;stroke-linecap:square;stroke-width:1.5;"/>
   </g>
   <g id="line2d_12">
    <path clip-path="url(#p5f57afae0a)" d="M 221.4 133.027412 
L 221.4 95.382408 
" style="fill:none;stroke:#3d3d3d;stroke-linecap:square;stroke-width:4.5;"/>
   </g>
   <g id="line2d_13">
    <path clip-path="url(#p5f57afae0a)" d="M 362.76 192.290443 
L 362.76 44.443636 
" style="fill:none;stroke:#3d3d3d;stroke-linecap:square;stroke-width:1.5;"/>
   </g>
   <g id="line2d_14">
    <path clip-path="url(#p5f57afae0a)" d="M 362.76 134.100695 
L 362.76 93.602234 
" style="fill:none;stroke:#3d3d3d;stroke-linecap:square;stroke-width:4.5;"/>
   </g>
   <g id="patch_6">
    <path d="M 54 252 
L 54 34.56 
" style="fill:none;stroke:#000000;stroke-linecap:square;stroke-linejoin:miter;stroke-width:0.8;"/>
   </g>
   <g id="patch_7">
    <path d="M 388.8 252 
L 388.8 34.56 
" style="fill:none;stroke:#000000;stroke-linecap:square;stroke-linejoin:miter;stroke-width:0.8;"/>
   </g>
   <g id="patch_8">
    <path d="M 54 252 
L 388.8 252 
" style="fill:none;stroke:#000000;stroke-linecap:square;stroke-linejoin:miter;stroke-width:0.8;"/>
   </g>
   <g id="patch_9">
    <path d="M 54 34.56 
L 388.8 34.56 
" style="fill:none;stroke:#000000;stroke-linecap:square;stroke-linejoin:miter;stroke-width:0.8;"/>
   </g>
   <g id="PathCollection_1">
    <defs>
     <path d="M 0 1.5 
C 0.397805 1.5 0.77937 1.341951 1.06066 1.06066 
C 1.341951 0.77937 1.5 0.397805 1.5 0 
C 1.5 -0.397805 1.341951 -0.77937 1.06066 -1.06066 
C 0.77937 -1.341951 0.397805 -1.5 0 -1.5 
C -0.397805 -1.5 -0.77937 -1.341951 -1.06066 -1.06066 
C -1.341951 -0.77937 -1.5 -0.397805 -1.5 0 
C -1.5 0.397805 -1.341951 0.77937 -1.06066 1.06066 
C -0.77937 1.341951 -0.397805 1.5 0 1.5 
z
" id="mf67d76c601" style="stroke:#3d3d3d;"/>
    </defs>
    <g clip-path="url(#p5f57afae0a)">
     <use style="fill:#ffffff;stroke:#3d3d3d;" x="80.04" xlink:href="#mf67d76c601" y="101.248527"/>
    </g>
   </g>
   <g id="PathCollection_2">
    <g clip-path="url(#p5f57afae0a)">
     <use style="fill:#ffffff;stroke:#3d3d3d;" x="221.4" xlink:href="#mf67d76c601" y="111.609155"/>
    </g>
   </g>
   <g id="PathCollection_3">
    <g clip-path="url(#p5f57afae0a)">
     <use style="fill:#ffffff;stroke:#3d3d3d;" x="362.76" xlink:href="#mf67d76c601" y="112.819793"/>
    </g>
   </g>
   <g id="legend_1">
    <g id="patch_10">
     <path d="M 326.525 247 
L 381.8 247 
Q 383.8 247 383.8 245 
L 383.8 187.2875 
Q 383.8 185.2875 381.8 185.2875 
L 326.525 185.2875 
Q 324.525 185.2875 324.525 187.2875 
L 324.525 245 
Q 324.525 247 326.525 247 
z
" style="fill:#ffffff;opacity:0.8;stroke:#cccccc;stroke-linejoin:miter;"/>
    </g>
    <g id="text_11">
     <!-- set -->
     <g transform="translate(346.521094 196.885938)scale(0.1 -0.1)">
      <use xlink:href="#DejaVuSans-115"/>
      <use x="52.099609" xlink:href="#DejaVuSans-101"/>
      <use x="113.623047" xlink:href="#DejaVuSans-116"/>
     </g>
    </g>
    <g id="patch_11">
     <path d="M 328.525 211.564063 
L 348.525 211.564063 
L 348.525 204.564063 
L 328.525 204.564063 
z
" style="fill:#3274a1;stroke:#3d3d3d;stroke-linejoin:miter;stroke-width:0.75;"/>
    </g>
    <g id="text_12">
     <!-- train -->
     <g transform="translate(356.525 211.564063)scale(0.1 -0.1)">
      <use xlink:href="#DejaVuSans-116"/>
      <use x="39.208984" xlink:href="#DejaVuSans-114"/>
      <use x="80.322266" xlink:href="#DejaVuSans-97"/>
      <use x="141.601562" xlink:href="#DejaVuSans-105"/>
      <use x="169.384766" xlink:href="#DejaVuSans-110"/>
     </g>
    </g>
    <g id="patch_12">
     <path d="M 328.525 226.242188 
L 348.525 226.242188 
L 348.525 219.242188 
L 328.525 219.242188 
z
" style="fill:#e1812c;stroke:#3d3d3d;stroke-linejoin:miter;stroke-width:0.75;"/>
    </g>
    <g id="text_13">
     <!-- val -->
     <g transform="translate(356.525 226.242188)scale(0.1 -0.1)">
      <use xlink:href="#DejaVuSans-118"/>
      <use x="59.179688" xlink:href="#DejaVuSans-97"/>
      <use x="120.458984" xlink:href="#DejaVuSans-108"/>
     </g>
    </g>
    <g id="patch_13">
     <path d="M 328.525 240.920313 
L 348.525 240.920313 
L 348.525 233.920313 
L 328.525 233.920313 
z
" style="fill:#3a923a;stroke:#3d3d3d;stroke-linejoin:miter;stroke-width:0.75;"/>
    </g>
    <g id="text_14">
     <!-- test -->
     <g transform="translate(356.525 240.920313)scale(0.1 -0.1)">
      <use xlink:href="#DejaVuSans-116"/>
      <use x="39.208984" xlink:href="#DejaVuSans-101"/>
      <use x="100.732422" xlink:href="#DejaVuSans-115"/>
      <use x="152.832031" xlink:href="#DejaVuSans-116"/>
     </g>
    </g>
   </g>
  </g>
 </g>
 <defs>
  <clipPath id="p5f57afae0a">
   <rect height="217.44" width="334.8" x="54" y="34.56"/>
  </clipPath>
 </defs>
</svg>
