<?xml version="1.0" encoding="utf-8" standalone="no"?>
<!DOCTYPE svg PUBLIC "-//W3C//DTD SVG 1.1//EN"
  "http://www.w3.org/Graphics/SVG/1.1/DTD/svg11.dtd">
<!-- Created with matplotlib (https://matplotlib.org/) -->
<svg height="345.6pt" version="1.1" viewBox="0 0 460.8 345.6" width="460.8pt" xmlns="http://www.w3.org/2000/svg" xmlns:xlink="http://www.w3.org/1999/xlink">
 <metadata>
  <rdf:RDF xmlns:cc="http://creativecommons.org/ns#" xmlns:dc="http://purl.org/dc/elements/1.1/" xmlns:rdf="http://www.w3.org/1999/02/22-rdf-syntax-ns#">
   <cc:Work>
    <dc:type rdf:resource="http://purl.org/dc/dcmitype/StillImage"/>
    <dc:date>2023-06-28T01:44:46.450448</dc:date>
    <dc:format>image/svg+xml</dc:format>
    <dc:creator>
     <cc:Agent>
      <dc:title>Matplotlib v3.3.4, https://matplotlib.org/</dc:title>
     </cc:Agent>
    </dc:creator>
   </cc:Work>
  </rdf:RDF>
 </metadata>
 <defs>
  <style type="text/css">*{stroke-linecap:butt;stroke-linejoin:round;}</style>
 </defs>
 <g id="figure_1">
  <g id="patch_1">
   <path d="M 0 345.6 
L 460.8 345.6 
L 460.8 0 
L 0 0 
z
" style="fill:#ffffff;"/>
  </g>
  <g id="axes_1">
   <g id="patch_2">
    <path d="M 57.6 307.584 
L 414.72 307.584 
L 414.72 41.472 
L 57.6 41.472 
z
" style="fill:#ffffff;"/>
   </g>
   <g id="matplotlib.axis_1">
    <g id="xtick_1">
     <g id="line2d_1">
      <defs>
       <path d="M 0 0 
L 0 3.5 
" id="mb228277a14" style="stroke:#000000;stroke-width:0.8;"/>
      </defs>
      <g>
       <use style="stroke:#000000;stroke-width:0.8;" x="73.832727" xlink:href="#mb228277a14" y="307.584"/>
      </g>
     </g>
     <g id="text_1">
      <!-- 0 -->
      <g transform="translate(70.651477 322.182437)scale(0.1 -0.1)">
       <defs>
        <path d="M 31.78125 66.40625 
Q 24.171875 66.40625 20.328125 58.90625 
Q 16.5 51.421875 16.5 36.375 
Q 16.5 21.390625 20.328125 13.890625 
Q 24.171875 6.390625 31.78125 6.390625 
Q 39.453125 6.390625 43.28125 13.890625 
Q 47.125 21.390625 47.125 36.375 
Q 47.125 51.421875 43.28125 58.90625 
Q 39.453125 66.40625 31.78125 66.40625 
z
M 31.78125 74.21875 
Q 44.046875 74.21875 50.515625 64.515625 
Q 56.984375 54.828125 56.984375 36.375 
Q 56.984375 17.96875 50.515625 8.265625 
Q 44.046875 -1.421875 31.78125 -1.421875 
Q 19.53125 -1.421875 13.0625 8.265625 
Q 6.59375 17.96875 6.59375 36.375 
Q 6.59375 54.828125 13.0625 64.515625 
Q 19.53125 74.21875 31.78125 74.21875 
z
" id="DejaVuSans-48"/>
       </defs>
       <use xlink:href="#DejaVuSans-48"/>
      </g>
     </g>
    </g>
    <g id="xtick_2">
     <g id="line2d_2">
      <g>
       <use style="stroke:#000000;stroke-width:0.8;" x="114.465336" xlink:href="#mb228277a14" y="307.584"/>
      </g>
     </g>
     <g id="text_2">
      <!-- 100 -->
      <g transform="translate(104.921586 322.182437)scale(0.1 -0.1)">
       <defs>
        <path d="M 12.40625 8.296875 
L 28.515625 8.296875 
L 28.515625 63.921875 
L 10.984375 60.40625 
L 10.984375 69.390625 
L 28.421875 72.90625 
L 38.28125 72.90625 
L 38.28125 8.296875 
L 54.390625 8.296875 
L 54.390625 0 
L 12.40625 0 
z
" id="DejaVuSans-49"/>
       </defs>
       <use xlink:href="#DejaVuSans-49"/>
       <use x="63.623047" xlink:href="#DejaVuSans-48"/>
       <use x="127.246094" xlink:href="#DejaVuSans-48"/>
      </g>
     </g>
    </g>
    <g id="xtick_3">
     <g id="line2d_3">
      <g>
       <use style="stroke:#000000;stroke-width:0.8;" x="155.097945" xlink:href="#mb228277a14" y="307.584"/>
      </g>
     </g>
     <g id="text_3">
      <!-- 200 -->
      <g transform="translate(145.554195 322.182437)scale(0.1 -0.1)">
       <defs>
        <path d="M 19.1875 8.296875 
L 53.609375 8.296875 
L 53.609375 0 
L 7.328125 0 
L 7.328125 8.296875 
Q 12.9375 14.109375 22.625 23.890625 
Q 32.328125 33.6875 34.8125 36.53125 
Q 39.546875 41.84375 41.421875 45.53125 
Q 43.3125 49.21875 43.3125 52.78125 
Q 43.3125 58.59375 39.234375 62.25 
Q 35.15625 65.921875 28.609375 65.921875 
Q 23.96875 65.921875 18.8125 64.3125 
Q 13.671875 62.703125 7.8125 59.421875 
L 7.8125 69.390625 
Q 13.765625 71.78125 18.9375 73 
Q 24.125 74.21875 28.421875 74.21875 
Q 39.75 74.21875 46.484375 68.546875 
Q 53.21875 62.890625 53.21875 53.421875 
Q 53.21875 48.921875 51.53125 44.890625 
Q 49.859375 40.875 45.40625 35.40625 
Q 44.1875 33.984375 37.640625 27.21875 
Q 31.109375 20.453125 19.1875 8.296875 
z
" id="DejaVuSans-50"/>
       </defs>
       <use xlink:href="#DejaVuSans-50"/>
       <use x="63.623047" xlink:href="#DejaVuSans-48"/>
       <use x="127.246094" xlink:href="#DejaVuSans-48"/>
      </g>
     </g>
    </g>
    <g id="xtick_4">
     <g id="line2d_4">
      <g>
       <use style="stroke:#000000;stroke-width:0.8;" x="195.730554" xlink:href="#mb228277a14" y="307.584"/>
      </g>
     </g>
     <g id="text_4">
      <!-- 300 -->
      <g transform="translate(186.186804 322.182437)scale(0.1 -0.1)">
       <defs>
        <path d="M 40.578125 39.3125 
Q 47.65625 37.796875 51.625 33 
Q 55.609375 28.21875 55.609375 21.1875 
Q 55.609375 10.40625 48.1875 4.484375 
Q 40.765625 -1.421875 27.09375 -1.421875 
Q 22.515625 -1.421875 17.65625 -0.515625 
Q 12.796875 0.390625 7.625 2.203125 
L 7.625 11.71875 
Q 11.71875 9.328125 16.59375 8.109375 
Q 21.484375 6.890625 26.8125 6.890625 
Q 36.078125 6.890625 40.9375 10.546875 
Q 45.796875 14.203125 45.796875 21.1875 
Q 45.796875 27.640625 41.28125 31.265625 
Q 36.765625 34.90625 28.71875 34.90625 
L 20.21875 34.90625 
L 20.21875 43.015625 
L 29.109375 43.015625 
Q 36.375 43.015625 40.234375 45.921875 
Q 44.09375 48.828125 44.09375 54.296875 
Q 44.09375 59.90625 40.109375 62.90625 
Q 36.140625 65.921875 28.71875 65.921875 
Q 24.65625 65.921875 20.015625 65.03125 
Q 15.375 64.15625 9.8125 62.3125 
L 9.8125 71.09375 
Q 15.4375 72.65625 20.34375 73.4375 
Q 25.25 74.21875 29.59375 74.21875 
Q 40.828125 74.21875 47.359375 69.109375 
Q 53.90625 64.015625 53.90625 55.328125 
Q 53.90625 49.265625 50.4375 45.09375 
Q 46.96875 40.921875 40.578125 39.3125 
z
" id="DejaVuSans-51"/>
       </defs>
       <use xlink:href="#DejaVuSans-51"/>
       <use x="63.623047" xlink:href="#DejaVuSans-48"/>
       <use x="127.246094" xlink:href="#DejaVuSans-48"/>
      </g>
     </g>
    </g>
    <g id="xtick_5">
     <g id="line2d_5">
      <g>
       <use style="stroke:#000000;stroke-width:0.8;" x="236.363163" xlink:href="#mb228277a14" y="307.584"/>
      </g>
     </g>
     <g id="text_5">
      <!-- 400 -->
      <g transform="translate(226.819413 322.182437)scale(0.1 -0.1)">
       <defs>
        <path d="M 37.796875 64.3125 
L 12.890625 25.390625 
L 37.796875 25.390625 
z
M 35.203125 72.90625 
L 47.609375 72.90625 
L 47.609375 25.390625 
L 58.015625 25.390625 
L 58.015625 17.1875 
L 47.609375 17.1875 
L 47.609375 0 
L 37.796875 0 
L 37.796875 17.1875 
L 4.890625 17.1875 
L 4.890625 26.703125 
z
" id="DejaVuSans-52"/>
       </defs>
       <use xlink:href="#DejaVuSans-52"/>
       <use x="63.623047" xlink:href="#DejaVuSans-48"/>
       <use x="127.246094" xlink:href="#DejaVuSans-48"/>
      </g>
     </g>
    </g>
    <g id="xtick_6">
     <g id="line2d_6">
      <g>
       <use style="stroke:#000000;stroke-width:0.8;" x="276.995772" xlink:href="#mb228277a14" y="307.584"/>
      </g>
     </g>
     <g id="text_6">
      <!-- 500 -->
      <g transform="translate(267.452022 322.182437)scale(0.1 -0.1)">
       <defs>
        <path d="M 10.796875 72.90625 
L 49.515625 72.90625 
L 49.515625 64.59375 
L 19.828125 64.59375 
L 19.828125 46.734375 
Q 21.96875 47.46875 24.109375 47.828125 
Q 26.265625 48.1875 28.421875 48.1875 
Q 40.625 48.1875 47.75 41.5 
Q 54.890625 34.8125 54.890625 23.390625 
Q 54.890625 11.625 47.5625 5.09375 
Q 40.234375 -1.421875 26.90625 -1.421875 
Q 22.3125 -1.421875 17.546875 -0.640625 
Q 12.796875 0.140625 7.71875 1.703125 
L 7.71875 11.625 
Q 12.109375 9.234375 16.796875 8.0625 
Q 21.484375 6.890625 26.703125 6.890625 
Q 35.15625 6.890625 40.078125 11.328125 
Q 45.015625 15.765625 45.015625 23.390625 
Q 45.015625 31 40.078125 35.4375 
Q 35.15625 39.890625 26.703125 39.890625 
Q 22.75 39.890625 18.8125 39.015625 
Q 14.890625 38.140625 10.796875 36.28125 
z
" id="DejaVuSans-53"/>
       </defs>
       <use xlink:href="#DejaVuSans-53"/>
       <use x="63.623047" xlink:href="#DejaVuSans-48"/>
       <use x="127.246094" xlink:href="#DejaVuSans-48"/>
      </g>
     </g>
    </g>
    <g id="xtick_7">
     <g id="line2d_7">
      <g>
       <use style="stroke:#000000;stroke-width:0.8;" x="317.628381" xlink:href="#mb228277a14" y="307.584"/>
      </g>
     </g>
     <g id="text_7">
      <!-- 600 -->
      <g transform="translate(308.084631 322.182437)scale(0.1 -0.1)">
       <defs>
        <path d="M 33.015625 40.375 
Q 26.375 40.375 22.484375 35.828125 
Q 18.609375 31.296875 18.609375 23.390625 
Q 18.609375 15.53125 22.484375 10.953125 
Q 26.375 6.390625 33.015625 6.390625 
Q 39.65625 6.390625 43.53125 10.953125 
Q 47.40625 15.53125 47.40625 23.390625 
Q 47.40625 31.296875 43.53125 35.828125 
Q 39.65625 40.375 33.015625 40.375 
z
M 52.59375 71.296875 
L 52.59375 62.3125 
Q 48.875 64.0625 45.09375 64.984375 
Q 41.3125 65.921875 37.59375 65.921875 
Q 27.828125 65.921875 22.671875 59.328125 
Q 17.53125 52.734375 16.796875 39.40625 
Q 19.671875 43.65625 24.015625 45.921875 
Q 28.375 48.1875 33.59375 48.1875 
Q 44.578125 48.1875 50.953125 41.515625 
Q 57.328125 34.859375 57.328125 23.390625 
Q 57.328125 12.15625 50.6875 5.359375 
Q 44.046875 -1.421875 33.015625 -1.421875 
Q 20.359375 -1.421875 13.671875 8.265625 
Q 6.984375 17.96875 6.984375 36.375 
Q 6.984375 53.65625 15.1875 63.9375 
Q 23.390625 74.21875 37.203125 74.21875 
Q 40.921875 74.21875 44.703125 73.484375 
Q 48.484375 72.75 52.59375 71.296875 
z
" id="DejaVuSans-54"/>
       </defs>
       <use xlink:href="#DejaVuSans-54"/>
       <use x="63.623047" xlink:href="#DejaVuSans-48"/>
       <use x="127.246094" xlink:href="#DejaVuSans-48"/>
      </g>
     </g>
    </g>
    <g id="xtick_8">
     <g id="line2d_8">
      <g>
       <use style="stroke:#000000;stroke-width:0.8;" x="358.26099" xlink:href="#mb228277a14" y="307.584"/>
      </g>
     </g>
     <g id="text_8">
      <!-- 700 -->
      <g transform="translate(348.71724 322.182437)scale(0.1 -0.1)">
       <defs>
        <path d="M 8.203125 72.90625 
L 55.078125 72.90625 
L 55.078125 68.703125 
L 28.609375 0 
L 18.3125 0 
L 43.21875 64.59375 
L 8.203125 64.59375 
z
" id="DejaVuSans-55"/>
       </defs>
       <use xlink:href="#DejaVuSans-55"/>
       <use x="63.623047" xlink:href="#DejaVuSans-48"/>
       <use x="127.246094" xlink:href="#DejaVuSans-48"/>
      </g>
     </g>
    </g>
    <g id="xtick_9">
     <g id="line2d_9">
      <g>
       <use style="stroke:#000000;stroke-width:0.8;" x="398.893599" xlink:href="#mb228277a14" y="307.584"/>
      </g>
     </g>
     <g id="text_9">
      <!-- 800 -->
      <g transform="translate(389.349849 322.182437)scale(0.1 -0.1)">
       <defs>
        <path d="M 31.78125 34.625 
Q 24.75 34.625 20.71875 30.859375 
Q 16.703125 27.09375 16.703125 20.515625 
Q 16.703125 13.921875 20.71875 10.15625 
Q 24.75 6.390625 31.78125 6.390625 
Q 38.8125 6.390625 42.859375 10.171875 
Q 46.921875 13.96875 46.921875 20.515625 
Q 46.921875 27.09375 42.890625 30.859375 
Q 38.875 34.625 31.78125 34.625 
z
M 21.921875 38.8125 
Q 15.578125 40.375 12.03125 44.71875 
Q 8.5 49.078125 8.5 55.328125 
Q 8.5 64.0625 14.71875 69.140625 
Q 20.953125 74.21875 31.78125 74.21875 
Q 42.671875 74.21875 48.875 69.140625 
Q 55.078125 64.0625 55.078125 55.328125 
Q 55.078125 49.078125 51.53125 44.71875 
Q 48 40.375 41.703125 38.8125 
Q 48.828125 37.15625 52.796875 32.3125 
Q 56.78125 27.484375 56.78125 20.515625 
Q 56.78125 9.90625 50.3125 4.234375 
Q 43.84375 -1.421875 31.78125 -1.421875 
Q 19.734375 -1.421875 13.25 4.234375 
Q 6.78125 9.90625 6.78125 20.515625 
Q 6.78125 27.484375 10.78125 32.3125 
Q 14.796875 37.15625 21.921875 38.8125 
z
M 18.3125 54.390625 
Q 18.3125 48.734375 21.84375 45.5625 
Q 25.390625 42.390625 31.78125 42.390625 
Q 38.140625 42.390625 41.71875 45.5625 
Q 45.3125 48.734375 45.3125 54.390625 
Q 45.3125 60.0625 41.71875 63.234375 
Q 38.140625 66.40625 31.78125 66.40625 
Q 25.390625 66.40625 21.84375 63.234375 
Q 18.3125 60.0625 18.3125 54.390625 
z
" id="DejaVuSans-56"/>
       </defs>
       <use xlink:href="#DejaVuSans-56"/>
       <use x="63.623047" xlink:href="#DejaVuSans-48"/>
       <use x="127.246094" xlink:href="#DejaVuSans-48"/>
      </g>
     </g>
    </g>
    <g id="text_10">
     <!-- epoch -->
     <g transform="translate(220.931875 335.860562)scale(0.1 -0.1)">
      <defs>
       <path d="M 56.203125 29.59375 
L 56.203125 25.203125 
L 14.890625 25.203125 
Q 15.484375 15.921875 20.484375 11.0625 
Q 25.484375 6.203125 34.421875 6.203125 
Q 39.59375 6.203125 44.453125 7.46875 
Q 49.3125 8.734375 54.109375 11.28125 
L 54.109375 2.78125 
Q 49.265625 0.734375 44.1875 -0.34375 
Q 39.109375 -1.421875 33.890625 -1.421875 
Q 20.796875 -1.421875 13.15625 6.1875 
Q 5.515625 13.8125 5.515625 26.8125 
Q 5.515625 40.234375 12.765625 48.109375 
Q 20.015625 56 32.328125 56 
Q 43.359375 56 49.78125 48.890625 
Q 56.203125 41.796875 56.203125 29.59375 
z
M 47.21875 32.234375 
Q 47.125 39.59375 43.09375 43.984375 
Q 39.0625 48.390625 32.421875 48.390625 
Q 24.90625 48.390625 20.390625 44.140625 
Q 15.875 39.890625 15.1875 32.171875 
z
" id="DejaVuSans-101"/>
       <path d="M 18.109375 8.203125 
L 18.109375 -20.796875 
L 9.078125 -20.796875 
L 9.078125 54.6875 
L 18.109375 54.6875 
L 18.109375 46.390625 
Q 20.953125 51.265625 25.265625 53.625 
Q 29.59375 56 35.59375 56 
Q 45.5625 56 51.78125 48.09375 
Q 58.015625 40.1875 58.015625 27.296875 
Q 58.015625 14.40625 51.78125 6.484375 
Q 45.5625 -1.421875 35.59375 -1.421875 
Q 29.59375 -1.421875 25.265625 0.953125 
Q 20.953125 3.328125 18.109375 8.203125 
z
M 48.6875 27.296875 
Q 48.6875 37.203125 44.609375 42.84375 
Q 40.53125 48.484375 33.40625 48.484375 
Q 26.265625 48.484375 22.1875 42.84375 
Q 18.109375 37.203125 18.109375 27.296875 
Q 18.109375 17.390625 22.1875 11.75 
Q 26.265625 6.109375 33.40625 6.109375 
Q 40.53125 6.109375 44.609375 11.75 
Q 48.6875 17.390625 48.6875 27.296875 
z
" id="DejaVuSans-112"/>
       <path d="M 30.609375 48.390625 
Q 23.390625 48.390625 19.1875 42.75 
Q 14.984375 37.109375 14.984375 27.296875 
Q 14.984375 17.484375 19.15625 11.84375 
Q 23.34375 6.203125 30.609375 6.203125 
Q 37.796875 6.203125 41.984375 11.859375 
Q 46.1875 17.53125 46.1875 27.296875 
Q 46.1875 37.015625 41.984375 42.703125 
Q 37.796875 48.390625 30.609375 48.390625 
z
M 30.609375 56 
Q 42.328125 56 49.015625 48.375 
Q 55.71875 40.765625 55.71875 27.296875 
Q 55.71875 13.875 49.015625 6.21875 
Q 42.328125 -1.421875 30.609375 -1.421875 
Q 18.84375 -1.421875 12.171875 6.21875 
Q 5.515625 13.875 5.515625 27.296875 
Q 5.515625 40.765625 12.171875 48.375 
Q 18.84375 56 30.609375 56 
z
" id="DejaVuSans-111"/>
       <path d="M 48.78125 52.59375 
L 48.78125 44.1875 
Q 44.96875 46.296875 41.140625 47.34375 
Q 37.3125 48.390625 33.40625 48.390625 
Q 24.65625 48.390625 19.8125 42.84375 
Q 14.984375 37.3125 14.984375 27.296875 
Q 14.984375 17.28125 19.8125 11.734375 
Q 24.65625 6.203125 33.40625 6.203125 
Q 37.3125 6.203125 41.140625 7.25 
Q 44.96875 8.296875 48.78125 10.40625 
L 48.78125 2.09375 
Q 45.015625 0.34375 40.984375 -0.53125 
Q 36.96875 -1.421875 32.421875 -1.421875 
Q 20.0625 -1.421875 12.78125 6.34375 
Q 5.515625 14.109375 5.515625 27.296875 
Q 5.515625 40.671875 12.859375 48.328125 
Q 20.21875 56 33.015625 56 
Q 37.15625 56 41.109375 55.140625 
Q 45.0625 54.296875 48.78125 52.59375 
z
" id="DejaVuSans-99"/>
       <path d="M 54.890625 33.015625 
L 54.890625 0 
L 45.90625 0 
L 45.90625 32.71875 
Q 45.90625 40.484375 42.875 44.328125 
Q 39.84375 48.1875 33.796875 48.1875 
Q 26.515625 48.1875 22.3125 43.546875 
Q 18.109375 38.921875 18.109375 30.90625 
L 18.109375 0 
L 9.078125 0 
L 9.078125 75.984375 
L 18.109375 75.984375 
L 18.109375 46.1875 
Q 21.34375 51.125 25.703125 53.5625 
Q 30.078125 56 35.796875 56 
Q 45.21875 56 50.046875 50.171875 
Q 54.890625 44.34375 54.890625 33.015625 
z
" id="DejaVuSans-104"/>
      </defs>
      <use xlink:href="#DejaVuSans-101"/>
      <use x="61.523438" xlink:href="#DejaVuSans-112"/>
      <use x="125" xlink:href="#DejaVuSans-111"/>
      <use x="186.181641" xlink:href="#DejaVuSans-99"/>
      <use x="241.162109" xlink:href="#DejaVuSans-104"/>
     </g>
    </g>
   </g>
   <g id="matplotlib.axis_2">
    <g id="ytick_1">
     <g id="line2d_10">
      <defs>
       <path d="M 0 0 
L -3.5 0 
" id="m627332069c" style="stroke:#000000;stroke-width:0.8;"/>
      </defs>
      <g>
       <use style="stroke:#000000;stroke-width:0.8;" x="57.6" xlink:href="#m627332069c" y="295.881422"/>
      </g>
     </g>
     <g id="text_11">
      <!-- 0.000 -->
      <g transform="translate(21.971875 299.680641)scale(0.1 -0.1)">
       <defs>
        <path d="M 10.6875 12.40625 
L 21 12.40625 
L 21 0 
L 10.6875 0 
z
" id="DejaVuSans-46"/>
       </defs>
       <use xlink:href="#DejaVuSans-48"/>
       <use x="63.623047" xlink:href="#DejaVuSans-46"/>
       <use x="95.410156" xlink:href="#DejaVuSans-48"/>
       <use x="159.033203" xlink:href="#DejaVuSans-48"/>
       <use x="222.65625" xlink:href="#DejaVuSans-48"/>
      </g>
     </g>
    </g>
    <g id="ytick_2">
     <g id="line2d_11">
      <g>
       <use style="stroke:#000000;stroke-width:0.8;" x="57.6" xlink:href="#m627332069c" y="255.27266"/>
      </g>
     </g>
     <g id="text_12">
      <!-- 0.002 -->
      <g transform="translate(21.971875 259.071879)scale(0.1 -0.1)">
       <use xlink:href="#DejaVuSans-48"/>
       <use x="63.623047" xlink:href="#DejaVuSans-46"/>
       <use x="95.410156" xlink:href="#DejaVuSans-48"/>
       <use x="159.033203" xlink:href="#DejaVuSans-48"/>
       <use x="222.65625" xlink:href="#DejaVuSans-50"/>
      </g>
     </g>
    </g>
    <g id="ytick_3">
     <g id="line2d_12">
      <g>
       <use style="stroke:#000000;stroke-width:0.8;" x="57.6" xlink:href="#m627332069c" y="214.663899"/>
      </g>
     </g>
     <g id="text_13">
      <!-- 0.004 -->
      <g transform="translate(21.971875 218.463118)scale(0.1 -0.1)">
       <use xlink:href="#DejaVuSans-48"/>
       <use x="63.623047" xlink:href="#DejaVuSans-46"/>
       <use x="95.410156" xlink:href="#DejaVuSans-48"/>
       <use x="159.033203" xlink:href="#DejaVuSans-48"/>
       <use x="222.65625" xlink:href="#DejaVuSans-52"/>
      </g>
     </g>
    </g>
    <g id="ytick_4">
     <g id="line2d_13">
      <g>
       <use style="stroke:#000000;stroke-width:0.8;" x="57.6" xlink:href="#m627332069c" y="174.055138"/>
      </g>
     </g>
     <g id="text_14">
      <!-- 0.006 -->
      <g transform="translate(21.971875 177.854356)scale(0.1 -0.1)">
       <use xlink:href="#DejaVuSans-48"/>
       <use x="63.623047" xlink:href="#DejaVuSans-46"/>
       <use x="95.410156" xlink:href="#DejaVuSans-48"/>
       <use x="159.033203" xlink:href="#DejaVuSans-48"/>
       <use x="222.65625" xlink:href="#DejaVuSans-54"/>
      </g>
     </g>
    </g>
    <g id="ytick_5">
     <g id="line2d_14">
      <g>
       <use style="stroke:#000000;stroke-width:0.8;" x="57.6" xlink:href="#m627332069c" y="133.446376"/>
      </g>
     </g>
     <g id="text_15">
      <!-- 0.008 -->
      <g transform="translate(21.971875 137.245595)scale(0.1 -0.1)">
       <use xlink:href="#DejaVuSans-48"/>
       <use x="63.623047" xlink:href="#DejaVuSans-46"/>
       <use x="95.410156" xlink:href="#DejaVuSans-48"/>
       <use x="159.033203" xlink:href="#DejaVuSans-48"/>
       <use x="222.65625" xlink:href="#DejaVuSans-56"/>
      </g>
     </g>
    </g>
    <g id="ytick_6">
     <g id="line2d_15">
      <g>
       <use style="stroke:#000000;stroke-width:0.8;" x="57.6" xlink:href="#m627332069c" y="92.837615"/>
      </g>
     </g>
     <g id="text_16">
      <!-- 0.010 -->
      <g transform="translate(21.971875 96.636834)scale(0.1 -0.1)">
       <use xlink:href="#DejaVuSans-48"/>
       <use x="63.623047" xlink:href="#DejaVuSans-46"/>
       <use x="95.410156" xlink:href="#DejaVuSans-48"/>
       <use x="159.033203" xlink:href="#DejaVuSans-49"/>
       <use x="222.65625" xlink:href="#DejaVuSans-48"/>
      </g>
     </g>
    </g>
    <g id="ytick_7">
     <g id="line2d_16">
      <g>
       <use style="stroke:#000000;stroke-width:0.8;" x="57.6" xlink:href="#m627332069c" y="52.228854"/>
      </g>
     </g>
     <g id="text_17">
      <!-- 0.012 -->
      <g transform="translate(21.971875 56.028072)scale(0.1 -0.1)">
       <use xlink:href="#DejaVuSans-48"/>
       <use x="63.623047" xlink:href="#DejaVuSans-46"/>
       <use x="95.410156" xlink:href="#DejaVuSans-48"/>
       <use x="159.033203" xlink:href="#DejaVuSans-49"/>
       <use x="222.65625" xlink:href="#DejaVuSans-50"/>
      </g>
     </g>
    </g>
    <g id="text_18">
     <!-- loss -->
     <g transform="translate(15.892188 184.185812)rotate(-90)scale(0.1 -0.1)">
      <defs>
       <path d="M 9.421875 75.984375 
L 18.40625 75.984375 
L 18.40625 0 
L 9.421875 0 
z
" id="DejaVuSans-108"/>
       <path d="M 44.28125 53.078125 
L 44.28125 44.578125 
Q 40.484375 46.53125 36.375 47.5 
Q 32.28125 48.484375 27.875 48.484375 
Q 21.1875 48.484375 17.84375 46.4375 
Q 14.5 44.390625 14.5 40.28125 
Q 14.5 37.15625 16.890625 35.375 
Q 19.28125 33.59375 26.515625 31.984375 
L 29.59375 31.296875 
Q 39.15625 29.25 43.1875 25.515625 
Q 47.21875 21.78125 47.21875 15.09375 
Q 47.21875 7.46875 41.1875 3.015625 
Q 35.15625 -1.421875 24.609375 -1.421875 
Q 20.21875 -1.421875 15.453125 -0.5625 
Q 10.6875 0.296875 5.421875 2 
L 5.421875 11.28125 
Q 10.40625 8.6875 15.234375 7.390625 
Q 20.0625 6.109375 24.8125 6.109375 
Q 31.15625 6.109375 34.5625 8.28125 
Q 37.984375 10.453125 37.984375 14.40625 
Q 37.984375 18.0625 35.515625 20.015625 
Q 33.0625 21.96875 24.703125 23.78125 
L 21.578125 24.515625 
Q 13.234375 26.265625 9.515625 29.90625 
Q 5.8125 33.546875 5.8125 39.890625 
Q 5.8125 47.609375 11.28125 51.796875 
Q 16.75 56 26.8125 56 
Q 31.78125 56 36.171875 55.265625 
Q 40.578125 54.546875 44.28125 53.078125 
z
" id="DejaVuSans-115"/>
      </defs>
      <use xlink:href="#DejaVuSans-108"/>
      <use x="27.783203" xlink:href="#DejaVuSans-111"/>
      <use x="88.964844" xlink:href="#DejaVuSans-115"/>
      <use x="141.064453" xlink:href="#DejaVuSans-115"/>
     </g>
    </g>
   </g>
   <g id="line2d_17">
    <path clip-path="url(#pbcaad819a4)" d="M 73.832727 53.568 
L 74.239053 198.300736 
L 75.051706 211.792522 
L 75.458032 224.120323 
L 76.67701 247.13081 
L 77.083336 250.737437 
L 77.489662 251.389175 
L 77.895988 255.365008 
L 78.302314 257.858293 
L 78.70864 256.660557 
L 79.521293 258.68974 
L 79.927619 263.659064 
L 80.333945 264.915778 
L 80.740271 264.626718 
L 81.146597 265.216699 
L 81.552923 266.299919 
L 81.959249 266.133375 
L 82.365575 267.37814 
L 82.771901 268.151272 
L 83.178227 268.47153 
L 83.584553 269.163037 
L 83.99088 270.780753 
L 84.397206 269.313978 
L 85.209858 271.262173 
L 85.616184 271.282506 
L 86.02251 272.123196 
L 86.428836 272.399134 
L 86.835162 273.078852 
L 87.241488 272.384166 
L 87.647814 273.126737 
L 88.05414 273.409779 
L 88.460466 273.53065 
L 88.866793 270.569881 
L 89.273119 271.92329 
L 89.679445 273.776256 
L 90.085771 272.2398 
L 90.492097 274.700181 
L 90.898423 274.896611 
L 91.304749 276.045539 
L 91.711075 275.130039 
L 92.117401 276.404023 
L 92.523727 276.513079 
L 92.930053 276.82368 
L 93.33638 276.89334 
L 93.742706 277.61633 
L 94.149032 277.21397 
L 94.555358 278.51571 
L 94.961684 277.299715 
L 95.36801 278.110126 
L 95.774336 278.604969 
L 96.180662 278.090344 
L 97.39964 278.282175 
L 97.805967 279.246549 
L 98.212293 278.542375 
L 98.618619 279.233102 
L 99.024945 276.887328 
L 99.431271 278.283347 
L 99.837597 278.648107 
L 100.243923 278.379551 
L 100.650249 279.611221 
L 101.056575 279.372838 
L 101.462901 280.400623 
L 101.869227 280.973786 
L 102.275554 281.05561 
L 102.68188 279.550359 
L 103.088206 281.123917 
L 103.900858 281.801865 
L 104.71351 281.794291 
L 105.119836 280.490003 
L 105.526162 281.849336 
L 105.932488 281.501238 
L 106.338814 281.636257 
L 106.745141 282.207506 
L 107.151467 282.022581 
L 107.557793 282.387658 
L 107.964119 282.981461 
L 108.370445 282.67511 
L 108.776771 282.519104 
L 109.183097 282.591526 
L 109.589423 282.806937 
L 109.995749 282.529255 
L 110.402075 282.439669 
L 111.214728 283.24097 
L 111.621054 281.867481 
L 112.02738 282.992634 
L 112.433706 283.177039 
L 112.840032 282.253975 
L 113.246358 282.339489 
L 113.652684 283.226832 
L 114.05901 282.436536 
L 114.871662 284.00986 
L 115.277988 283.99587 
L 116.090641 284.706554 
L 116.496967 284.803975 
L 116.903293 284.432485 
L 117.309619 283.433615 
L 117.715945 285.31925 
L 118.122271 284.998723 
L 119.341249 285.478095 
L 119.747575 285.467262 
L 120.153901 285.143834 
L 120.560228 285.611107 
L 120.966554 285.318118 
L 121.37288 285.424217 
L 121.779206 285.69788 
L 122.998184 285.733324 
L 123.40451 285.646678 
L 123.810836 285.679173 
L 124.217162 285.913774 
L 124.623488 285.67542 
L 125.029815 285.954157 
L 125.436141 285.804134 
L 125.842467 286.045517 
L 126.655119 285.868823 
L 127.061445 286.216109 
L 127.467771 286.711348 
L 127.874097 285.956407 
L 128.686749 286.935216 
L 129.093075 287.292409 
L 130.71838 287.161682 
L 131.124706 287.441886 
L 131.531032 287.283076 
L 131.937358 287.556598 
L 132.343684 287.618996 
L 132.75001 287.851515 
L 133.562662 287.685196 
L 134.375315 287.816228 
L 134.781641 287.551917 
L 135.187967 288.010216 
L 135.594293 287.895889 
L 136.000619 287.948763 
L 136.406945 288.191884 
L 136.813271 288.022695 
L 137.219597 288.352989 
L 138.032249 288.284178 
L 138.438575 288.093343 
L 138.844902 287.502459 
L 139.251228 288.153278 
L 139.657554 288.094111 
L 140.06388 288.4627 
L 140.470206 288.063274 
L 141.689184 288.58445 
L 142.09551 288.489437 
L 142.501836 287.758072 
L 142.908162 288.399853 
L 143.720815 288.571861 
L 144.127141 288.34584 
L 144.533467 288.572605 
L 144.939793 288.237726 
L 145.346119 288.607269 
L 145.752445 288.516261 
L 146.158771 288.74426 
L 146.565097 288.354257 
L 146.971423 288.287295 
L 147.784076 288.852956 
L 148.596728 289.114828 
L 149.003054 289.163753 
L 149.40938 288.906103 
L 150.222032 289.3146 
L 150.628358 289.198939 
L 151.44101 289.442497 
L 151.847336 289.003461 
L 152.253663 289.394452 
L 152.659989 289.556525 
L 153.066315 289.439385 
L 154.285293 289.777428 
L 154.691619 289.731947 
L 155.097945 289.860152 
L 155.504271 289.675318 
L 155.910597 289.850311 
L 156.72325 289.817956 
L 157.129576 290.092736 
L 157.942228 289.889606 
L 158.348554 290.065581 
L 158.75488 289.655692 
L 159.161206 289.990426 
L 159.567532 290.040791 
L 159.973858 290.228695 
L 160.380184 289.893006 
L 160.78651 290.200826 
L 162.005489 289.974629 
L 162.411815 290.251802 
L 163.224467 290.24799 
L 163.630793 290.228544 
L 164.037119 290.015317 
L 164.443445 290.209329 
L 164.849771 290.268708 
L 165.662423 290.084156 
L 166.06875 290.166563 
L 166.475076 290.095676 
L 166.881402 290.315468 
L 167.694054 290.45184 
L 168.10038 290.320299 
L 168.506706 290.601459 
L 168.913032 290.67256 
L 169.319358 290.371469 
L 169.725684 289.668792 
L 170.13201 290.580431 
L 170.538337 290.799193 
L 170.944663 290.839222 
L 171.350989 290.635123 
L 171.757315 290.955135 
L 172.976293 291.0362 
L 173.382619 290.784238 
L 173.788945 290.911248 
L 174.195271 290.909548 
L 174.601597 291.125628 
L 176.633228 291.255318 
L 177.039554 291.018359 
L 177.44588 290.931675 
L 177.852206 291.298408 
L 178.258532 291.31092 
L 178.664858 291.210414 
L 179.071184 291.415058 
L 179.477511 291.321884 
L 181.102815 291.486846 
L 181.915467 291.285052 
L 182.728119 291.546404 
L 183.134445 291.404122 
L 184.75975 291.558061 
L 185.166076 291.094034 
L 185.572402 291.589146 
L 185.978728 291.549672 
L 186.385054 291.670092 
L 186.79138 291.621567 
L 187.197706 291.423466 
L 187.604032 291.58127 
L 188.416684 291.657463 
L 189.229337 291.522217 
L 190.041989 291.604044 
L 190.854641 291.772538 
L 191.260967 291.60287 
L 191.667293 291.845343 
L 192.073619 291.415054 
L 192.479945 291.78871 
L 192.886271 291.800681 
L 193.292598 291.982297 
L 194.10525 292.081311 
L 194.511576 292.128731 
L 194.917902 291.96172 
L 195.730554 292.182416 
L 196.13688 292.081767 
L 196.543206 292.199266 
L 196.949532 292.159679 
L 197.355858 292.339024 
L 197.762185 291.973162 
L 198.168511 292.070811 
L 198.574837 292.494888 
L 199.793815 292.430848 
L 200.606467 292.589744 
L 201.012793 292.368312 
L 201.419119 292.597948 
L 202.231772 292.479715 
L 203.45075 292.714382 
L 203.857076 292.56341 
L 204.263402 292.587113 
L 204.669728 292.46125 
L 205.48238 292.608889 
L 205.888706 292.530093 
L 206.701359 292.689795 
L 209.545641 292.636109 
L 209.951967 292.696967 
L 210.358293 292.448957 
L 210.764619 292.584546 
L 211.170946 292.47035 
L 211.577272 292.707841 
L 212.389924 292.707224 
L 212.79625 292.760921 
L 213.202576 292.598879 
L 214.015228 292.493323 
L 214.421554 292.745074 
L 215.234206 292.672606 
L 215.640532 292.785592 
L 216.453185 292.750874 
L 216.859511 292.351799 
L 217.672163 292.75813 
L 218.078489 292.577934 
L 218.484815 292.780985 
L 219.703793 292.78476 
L 220.110119 292.653324 
L 220.922772 292.724433 
L 221.329098 292.635868 
L 222.954402 292.799424 
L 223.767054 292.596235 
L 224.17338 292.802496 
L 225.798685 292.619439 
L 226.205011 292.836448 
L 228.236641 292.790957 
L 228.642967 292.838632 
L 229.049293 292.733396 
L 231.893576 292.807837 
L 232.299902 292.696696 
L 233.51888 292.773422 
L 233.925207 292.865962 
L 234.737859 292.779732 
L 235.550511 292.847179 
L 236.363163 292.669679 
L 236.769489 292.690811 
L 237.175815 292.891494 
L 238.394793 292.719701 
L 239.613772 292.856646 
L 240.426424 292.87428 
L 242.051728 292.79768 
L 242.86438 292.877979 
L 243.270707 292.65665 
L 243.677033 292.859197 
L 246.521315 293.15983 
L 246.927641 292.149717 
L 247.333967 292.971416 
L 247.740294 293.138281 
L 250.17825 293.236203 
L 250.584576 292.897833 
L 250.990902 293.253293 
L 256.679468 293.289612 
L 257.085794 293.069614 
L 257.49212 293.340946 
L 258.711098 293.417214 
L 259.117424 293.179673 
L 259.52375 293.389635 
L 261.555381 293.419247 
L 261.961707 293.198158 
L 262.368033 293.407363 
L 263.587011 293.506735 
L 271.713533 293.570779 
L 272.526185 293.613712 
L 272.932511 293.576539 
L 273.338837 293.352796 
L 273.745163 293.632481 
L 275.370468 293.569309 
L 276.589446 293.650085 
L 276.995772 293.503812 
L 279.027402 293.72407 
L 280.652707 293.581839 
L 281.059033 293.733109 
L 281.465359 293.607142 
L 285.52862 293.741051 
L 285.934946 293.441537 
L 286.341272 293.730736 
L 286.747598 293.808677 
L 287.153924 293.747331 
L 287.56025 293.825705 
L 288.779229 293.710141 
L 289.591881 293.818716 
L 292.842489 293.776709 
L 293.248816 293.752272 
L 293.655142 293.884155 
L 294.467794 293.907316 
L 294.87412 293.942047 
L 295.280446 293.856486 
L 298.531055 294.02016 
L 300.562685 294.001463 
L 301.375337 294.083314 
L 302.18799 293.977371 
L 302.594316 294.106917 
L 303.000642 293.950703 
L 303.813294 294.103428 
L 305.032272 294.051145 
L 305.438598 293.878736 
L 305.844924 294.147892 
L 308.282881 294.196419 
L 309.501859 294.26738 
L 314.377772 294.281397 
L 314.784098 294.433368 
L 315.190424 294.256783 
L 315.59675 294.366488 
L 316.003077 294.316338 
L 316.409403 294.412613 
L 317.628381 294.398233 
L 318.441033 294.4604 
L 318.847359 294.379848 
L 319.253685 294.448563 
L 319.660011 294.28343 
L 320.066337 294.45048 
L 320.472664 294.461921 
L 320.87899 294.266335 
L 321.691642 294.481017 
L 322.91062 294.505958 
L 324.129598 294.357147 
L 324.942251 294.453525 
L 326.161229 294.503848 
L 330.630816 294.485735 
L 331.037142 294.225274 
L 331.443468 294.506071 
L 335.506729 294.520331 
L 335.913055 294.427015 
L 336.725707 294.521047 
L 340.382642 294.549562 
L 340.788968 294.311263 
L 341.60162 294.572129 
L 344.039577 294.447845 
L 344.445903 294.418588 
L 344.852229 294.561339 
L 345.258555 294.478339 
L 346.071207 294.572893 
L 350.540794 294.56856 
L 351.353446 294.583494 
L 352.166099 294.578844 
L 353.385077 294.627474 
L 353.791403 294.449325 
L 354.197729 294.594494 
L 355.010381 294.644849 
L 355.823033 294.551613 
L 356.229359 294.663726 
L 357.854664 294.581836 
L 358.26099 294.787005 
L 358.667316 294.748844 
L 359.479968 294.899852 
L 361.105272 294.950735 
L 361.511599 294.910276 
L 361.917925 295.008685 
L 362.324251 294.885981 
L 363.136903 295.078491 
L 363.949555 294.867592 
L 364.355881 295.036578 
L 367.200164 295.156846 
L 368.012816 294.950812 
L 368.825468 295.183023 
L 372.076077 295.258152 
L 372.482403 295.047004 
L 372.888729 295.299145 
L 373.701381 295.290809 
L 381.827903 295.360135 
L 382.640555 295.205383 
L 383.046881 295.403678 
L 383.859534 295.369201 
L 384.672186 295.420159 
L 385.891164 295.441443 
L 386.29749 295.324375 
L 387.110142 295.342817 
L 387.922794 295.342627 
L 388.735447 295.452163 
L 389.548099 295.404518 
L 389.954425 295.271403 
L 390.767077 295.459083 
L 391.986055 295.414426 
L 392.392381 295.0593 
L 392.798707 295.443067 
L 397.674621 295.372947 
L 398.080947 295.144866 
L 398.487273 295.368825 
L 398.487273 295.368825 
" style="fill:none;stroke:#ff0000;stroke-linecap:square;stroke-width:1.5;"/>
   </g>
   <g id="line2d_18">
    <path clip-path="url(#pbcaad819a4)" d="M 73.832727 95.258944 
L 74.239053 165.004993 
L 74.645379 198.408962 
L 75.051706 209.878428 
L 75.458032 194.70404 
L 75.864358 237.185537 
L 76.270684 246.967051 
L 76.67701 241.410644 
L 77.083336 252.155595 
L 77.489662 251.766277 
L 77.895988 250.201529 
L 78.302314 246.011157 
L 78.70864 256.680186 
L 79.114966 259.088343 
L 79.521293 255.97761 
L 79.927619 264.95673 
L 80.333945 256.04448 
L 80.740271 265.021592 
L 81.146597 264.65658 
L 81.552923 262.266024 
L 81.959249 262.882186 
L 82.365575 267.902254 
L 82.771901 254.189535 
L 83.178227 266.183205 
L 83.584553 267.538944 
L 83.99088 268.375526 
L 84.397206 267.771525 
L 85.209858 271.554161 
L 85.616184 270.593239 
L 86.02251 270.399197 
L 86.428836 271.976877 
L 86.835162 272.91788 
L 87.241488 271.924494 
L 87.647814 272.703354 
L 88.05414 271.238114 
L 88.460466 273.762684 
L 88.866793 272.813624 
L 89.273119 266.89786 
L 89.679445 274.204622 
L 90.085771 271.604154 
L 90.898423 275.308368 
L 91.304749 271.328503 
L 91.711075 275.422771 
L 92.117401 277.095462 
L 92.523727 275.711768 
L 92.930053 275.638795 
L 93.33638 277.789193 
L 93.742706 278.482306 
L 94.149032 277.876267 
L 94.555358 276.358529 
L 94.961684 272.155182 
L 95.36801 278.795947 
L 95.774336 274.237743 
L 96.180662 274.597256 
L 96.586988 275.119877 
L 96.993314 277.503193 
L 97.39964 278.668515 
L 97.805967 278.916312 
L 98.212293 278.34482 
L 98.618619 276.915456 
L 99.024945 276.921714 
L 99.431271 278.93529 
L 99.837597 276.091963 
L 100.243923 276.13698 
L 100.650249 277.297884 
L 101.056575 280.024854 
L 101.462901 280.460508 
L 101.869227 279.986064 
L 102.275554 279.114285 
L 102.68188 280.842654 
L 103.088206 278.491441 
L 103.494532 279.565898 
L 103.900858 281.993257 
L 104.307184 280.814653 
L 104.71351 282.008743 
L 105.119836 281.724731 
L 105.526162 279.794311 
L 105.932488 276.595131 
L 106.338814 282.445468 
L 106.745141 282.07144 
L 107.151467 282.112858 
L 107.557793 282.557569 
L 107.964119 282.292465 
L 108.370445 280.482451 
L 108.776771 282.23175 
L 109.183097 282.462475 
L 109.589423 282.840937 
L 109.995749 278.101427 
L 110.402075 281.734885 
L 110.808401 282.458913 
L 111.214728 281.576791 
L 111.621054 281.1738 
L 112.02738 281.258578 
L 112.433706 277.083962 
L 112.840032 276.101029 
L 113.246358 282.361359 
L 113.652684 282.60519 
L 114.05901 280.029642 
L 114.465336 283.43691 
L 114.871662 280.609163 
L 115.277988 282.799081 
L 115.684314 283.616021 
L 116.090641 283.668317 
L 116.496967 283.6017 
L 116.903293 284.667477 
L 117.309619 285.07903 
L 117.715945 285.191393 
L 118.122271 285.037987 
L 118.528597 283.983527 
L 119.341249 285.152835 
L 119.747575 284.875838 
L 120.153901 285.037817 
L 120.560228 283.395767 
L 120.966554 285.315801 
L 121.37288 283.086465 
L 121.779206 285.183255 
L 122.185532 284.727366 
L 122.591858 284.912677 
L 122.998184 285.31292 
L 123.40451 284.619696 
L 123.810836 285.106548 
L 124.623488 284.747069 
L 125.029815 285.565093 
L 125.436141 284.753962 
L 125.842467 284.806163 
L 126.655119 285.228094 
L 127.061445 285.613727 
L 127.467771 286.478525 
L 127.874097 286.213346 
L 128.280423 284.808097 
L 128.686749 285.398953 
L 129.093075 286.272054 
L 129.905728 286.438694 
L 130.312054 286.210116 
L 130.71838 285.39248 
L 131.124706 286.671065 
L 131.531032 286.697092 
L 131.937358 285.661641 
L 132.343684 287.03232 
L 132.75001 287.145801 
L 133.156336 286.934991 
L 133.562662 286.910393 
L 133.968989 287.137986 
L 135.187967 287.081384 
L 135.594293 287.422755 
L 136.813271 287.435009 
L 138.032249 287.842692 
L 138.438575 287.437411 
L 138.844902 287.916724 
L 139.251228 287.495778 
L 139.657554 287.715001 
L 140.06388 286.733007 
L 140.470206 287.325534 
L 140.876532 286.767525 
L 141.282858 287.869592 
L 142.09551 287.483533 
L 142.501836 287.56149 
L 142.908162 287.037409 
L 143.314489 287.659378 
L 143.720815 287.495587 
L 144.127141 288.136523 
L 144.533467 287.433572 
L 144.939793 287.898685 
L 145.346119 287.595774 
L 145.752445 287.589181 
L 146.158771 287.463516 
L 146.565097 288.422508 
L 146.971423 285.616585 
L 147.377749 288.215027 
L 147.784076 287.791234 
L 148.190402 287.79206 
L 148.596728 288.171203 
L 149.40938 288.138873 
L 149.815706 287.839755 
L 151.44101 288.235961 
L 151.847336 289.11798 
L 152.659989 288.760734 
L 153.066315 288.387468 
L 153.472641 289.20448 
L 154.285293 288.451209 
L 154.691619 288.765855 
L 155.097945 288.593162 
L 155.504271 288.698325 
L 155.910597 289.193148 
L 156.316923 288.341397 
L 156.72325 289.475176 
L 157.129576 288.767527 
L 157.535902 288.546212 
L 158.348554 289.115362 
L 158.75488 289.262374 
L 159.567532 289.28432 
L 159.973858 289.467334 
L 160.380184 289.505962 
L 160.78651 288.930287 
L 161.192837 289.615644 
L 162.005489 289.588155 
L 162.411815 289.434035 
L 162.818141 288.164888 
L 163.224467 289.632516 
L 163.630793 289.832022 
L 164.443445 289.485777 
L 165.256097 289.798083 
L 165.662423 288.705262 
L 166.06875 289.434099 
L 166.475076 288.917719 
L 166.881402 289.725564 
L 167.287728 288.874275 
L 167.694054 289.05335 
L 168.10038 289.612511 
L 168.913032 289.726325 
L 169.319358 289.445175 
L 169.725684 284.840055 
L 170.13201 289.846316 
L 170.538337 290.084421 
L 170.944663 289.281741 
L 171.350989 290.071877 
L 171.757315 290.024124 
L 172.163641 290.207558 
L 172.569967 289.989734 
L 172.976293 290.333932 
L 173.382619 290.11216 
L 173.788945 290.505199 
L 174.195271 290.26685 
L 174.601597 290.170566 
L 175.007924 290.455229 
L 175.41425 290.422447 
L 176.226902 290.700207 
L 176.633228 290.38422 
L 177.039554 290.310375 
L 177.44588 290.598398 
L 177.852206 290.4328 
L 178.258532 290.559841 
L 178.664858 290.450717 
L 179.071184 289.400432 
L 179.477511 290.230488 
L 179.883837 289.824066 
L 180.290163 290.868128 
L 181.102815 290.525777 
L 181.509141 290.811955 
L 181.915467 290.726289 
L 182.321793 290.369095 
L 182.728119 290.939911 
L 183.540771 290.932223 
L 183.947098 290.975796 
L 184.353424 290.625893 
L 185.572402 290.952218 
L 185.978728 290.62487 
L 186.79138 290.836523 
L 187.197706 291.179629 
L 187.604032 291.201565 
L 188.010358 290.987237 
L 188.416684 290.458505 
L 188.823011 290.940772 
L 189.229337 290.830897 
L 189.635663 291.04676 
L 190.041989 290.925043 
L 190.448315 290.924266 
L 190.854641 290.128184 
L 191.260967 291.311437 
L 191.667293 291.274461 
L 192.073619 290.055136 
L 192.479945 290.967527 
L 192.886271 291.371353 
L 193.292598 291.333432 
L 193.698924 291.03931 
L 194.10525 290.157194 
L 194.511576 291.509407 
L 194.917902 290.949466 
L 195.324228 291.380297 
L 195.730554 291.285378 
L 196.13688 291.68346 
L 196.543206 291.460684 
L 196.949532 291.804901 
L 197.762185 290.552628 
L 198.168511 291.528383 
L 198.574837 291.527856 
L 199.387489 291.840521 
L 199.793815 291.887398 
L 200.200141 291.816305 
L 200.606467 290.988551 
L 201.012793 292.155163 
L 201.419119 291.938627 
L 201.825445 292.121797 
L 202.231772 291.160627 
L 202.638098 291.920774 
L 203.044424 292.113322 
L 203.857076 291.780341 
L 204.669728 292.144971 
L 205.888706 291.998736 
L 206.295032 292.057297 
L 206.701359 292.296579 
L 207.514011 291.597978 
L 207.920337 291.701175 
L 208.326663 291.629867 
L 208.732989 292.200119 
L 209.139315 292.06333 
L 209.545641 292.183262 
L 209.951967 291.689201 
L 210.764619 292.01668 
L 211.170946 290.919548 
L 211.577272 291.146458 
L 211.983598 292.311263 
L 212.389924 291.782461 
L 212.79625 291.971528 
L 213.202576 291.717539 
L 213.608902 292.140209 
L 214.015228 292.019248 
L 214.82788 291.996807 
L 215.234206 291.960553 
L 215.640532 292.141663 
L 216.453185 291.604876 
L 216.859511 292.033483 
L 217.265837 292.110632 
L 217.672163 291.75 
L 218.484815 292.336271 
L 218.891141 291.999778 
L 220.110119 291.957801 
L 220.922772 292.177857 
L 221.329098 291.584881 
L 221.735424 291.581028 
L 222.14175 291.749643 
L 222.548076 291.762816 
L 222.954402 292.075007 
L 223.360728 292.025866 
L 223.767054 292.330506 
L 224.17338 292.196868 
L 224.579706 291.880219 
L 224.986033 292.458372 
L 225.392359 291.508096 
L 225.798685 291.947449 
L 226.205011 291.904516 
L 226.611337 292.194321 
L 227.017663 292.260995 
L 227.423989 292.141839 
L 227.830315 292.45863 
L 229.049293 291.696489 
L 229.45562 292.238411 
L 229.861946 291.973949 
L 230.268272 292.199941 
L 230.674598 292.116309 
L 231.080924 291.481562 
L 231.48725 292.266319 
L 231.893576 292.27311 
L 232.299902 291.623754 
L 232.706228 291.907167 
L 233.112554 291.751337 
L 233.51888 292.164576 
L 233.925207 292.153197 
L 234.331533 291.741508 
L 234.737859 292.302258 
L 235.144185 292.213202 
L 235.550511 291.800146 
L 235.956837 291.658721 
L 236.363163 292.312019 
L 236.769489 292.139724 
L 237.175815 292.231138 
L 237.582141 291.890774 
L 237.988467 291.366137 
L 238.394793 292.055671 
L 238.80112 292.008606 
L 239.613772 292.198189 
L 240.020098 291.649057 
L 240.426424 292.1722 
L 240.83275 291.987695 
L 241.239076 291.562613 
L 241.645402 292.043989 
L 242.051728 291.956281 
L 242.86438 292.150084 
L 243.270707 292.202618 
L 243.677033 291.955158 
L 244.489685 291.926975 
L 244.896011 291.843271 
L 245.302337 292.099455 
L 245.708663 291.649244 
L 246.114989 292.353264 
L 246.927641 292.249977 
L 247.333967 292.258678 
L 247.740294 292.462213 
L 248.14662 292.347335 
L 248.552946 292.498776 
L 248.959272 292.184769 
L 249.771924 292.669164 
L 250.17825 292.677596 
L 250.584576 292.15507 
L 250.990902 292.226807 
L 251.397228 292.584638 
L 251.803554 292.730656 
L 252.209881 292.5926 
L 253.022533 292.700408 
L 253.428859 292.48073 
L 253.835185 292.438862 
L 254.647837 292.818042 
L 255.054163 292.676751 
L 255.460489 292.259443 
L 255.866815 292.363171 
L 256.273141 291.726799 
L 256.679468 292.512727 
L 257.898446 292.721901 
L 258.304772 291.899925 
L 258.711098 292.571046 
L 259.117424 292.408697 
L 259.52375 292.548824 
L 259.930076 292.498938 
L 260.336402 292.897283 
L 260.742728 292.651511 
L 261.149054 292.869022 
L 261.555381 292.887482 
L 262.368033 292.766317 
L 262.774359 292.871409 
L 263.587011 292.585613 
L 263.993337 292.607553 
L 264.399663 292.151045 
L 264.805989 292.849691 
L 265.212315 292.839956 
L 266.024968 292.562405 
L 266.431294 292.822313 
L 267.243946 293.047826 
L 267.650272 292.938979 
L 268.056598 293.010329 
L 268.462924 292.865016 
L 268.86925 291.589234 
L 269.275576 292.795235 
L 269.681902 292.694588 
L 270.088228 292.865422 
L 270.494555 292.891181 
L 270.900881 292.622977 
L 271.307207 292.809475 
L 271.713533 292.741308 
L 272.119859 292.791476 
L 272.526185 292.500373 
L 272.932511 293.039136 
L 273.338837 293.101397 
L 274.151489 292.659044 
L 274.557815 292.12748 
L 274.964142 293.099746 
L 275.776794 292.893913 
L 276.18312 293.05018 
L 276.589446 292.167349 
L 276.995772 292.921727 
L 277.402098 293.232074 
L 277.808424 292.873985 
L 278.21475 292.325074 
L 278.621076 292.995898 
L 279.433729 292.800477 
L 279.840055 292.526794 
L 280.246381 292.716581 
L 280.652707 293.254392 
L 281.059033 293.308106 
L 281.465359 293.050696 
L 282.684337 292.989854 
L 283.090663 292.581049 
L 283.496989 293.220343 
L 283.903316 293.029974 
L 284.309642 293.13738 
L 284.715968 292.848515 
L 285.122294 292.099436 
L 285.52862 292.784618 
L 285.934946 291.798882 
L 286.341272 293.069035 
L 287.56025 293.113833 
L 288.372902 293.004826 
L 288.779229 292.966744 
L 289.185555 293.318348 
L 289.591881 293.044911 
L 289.998207 293.112273 
L 290.404533 293.348974 
L 290.810859 293.238016 
L 291.217185 292.838436 
L 291.623511 293.203425 
L 292.029837 293.082786 
L 292.436163 293.211661 
L 292.842489 292.772121 
L 293.248816 293.307092 
L 293.655142 293.244041 
L 294.061468 292.754658 
L 294.467794 293.38394 
L 294.87412 293.273702 
L 295.686772 293.203888 
L 296.093098 293.547523 
L 296.499424 293.365255 
L 297.312076 293.446659 
L 297.718403 293.175492 
L 298.531055 293.755023 
L 298.937381 293.266223 
L 299.343707 293.199027 
L 299.750033 293.607572 
L 300.156359 293.315219 
L 300.562685 293.526112 
L 300.969011 293.494995 
L 301.781663 293.193127 
L 302.594316 293.436402 
L 303.000642 292.459766 
L 303.406968 293.336829 
L 303.813294 292.927049 
L 304.21962 293.21923 
L 304.625946 293.231094 
L 305.032272 293.12557 
L 305.844924 293.565749 
L 306.25125 293.19005 
L 306.657577 293.11057 
L 307.063903 293.601933 
L 307.470229 293.71232 
L 307.876555 293.078184 
L 308.689207 293.788529 
L 309.501859 293.53787 
L 309.908185 293.701872 
L 310.720837 293.324883 
L 311.127163 293.652759 
L 311.53349 293.743969 
L 312.346142 293.381974 
L 312.752468 293.749564 
L 313.56512 293.779892 
L 313.971446 293.500745 
L 314.377772 293.64678 
L 314.784098 293.482584 
L 315.190424 293.999248 
L 315.59675 293.636606 
L 316.003077 293.722486 
L 316.409403 293.460621 
L 316.815729 293.636475 
L 317.222055 293.251269 
L 317.628381 293.745429 
L 318.034707 293.482734 
L 318.441033 293.776289 
L 318.847359 293.774458 
L 319.253685 293.649811 
L 320.066337 293.72952 
L 320.472664 293.14953 
L 320.87899 293.869561 
L 321.285316 293.808626 
L 321.691642 293.588625 
L 322.097968 294.036968 
L 322.504294 293.781535 
L 322.91062 293.748681 
L 323.316946 293.528157 
L 324.129598 293.739204 
L 324.535924 293.720372 
L 324.942251 293.995353 
L 325.348577 293.987461 
L 326.161229 293.73613 
L 326.567555 293.791223 
L 326.973881 293.578925 
L 327.380207 293.855629 
L 327.786533 293.708911 
L 328.192859 293.849732 
L 329.411838 293.869461 
L 329.818164 293.225679 
L 330.22449 294.036964 
L 330.630816 293.843966 
L 331.037142 293.848089 
L 331.443468 294.04688 
L 331.849794 293.42017 
L 332.25612 293.588457 
L 333.068772 294.101446 
L 333.475098 293.373633 
L 333.881425 293.976466 
L 334.287751 293.993863 
L 334.694077 293.713745 
L 335.100403 294.148234 
L 335.506729 293.78946 
L 335.913055 293.602057 
L 336.319381 294.063853 
L 336.725707 293.970695 
L 337.132033 293.686495 
L 337.538359 294.07087 
L 337.944685 293.714025 
L 338.351011 293.83488 
L 338.757338 293.786758 
L 339.163664 293.599643 
L 339.976316 294.221603 
L 340.382642 293.845069 
L 340.788968 294.210387 
L 341.195294 293.89775 
L 342.007946 293.908865 
L 343.226925 293.6132 
L 343.633251 293.969568 
L 344.039577 291.590504 
L 344.445903 294.100955 
L 344.852229 294.099018 
L 345.258555 293.940218 
L 345.664881 293.905897 
L 346.071207 293.589237 
L 346.477533 293.938735 
L 347.290185 293.791197 
L 347.696512 294.073256 
L 348.102838 294.047292 
L 348.509164 293.852735 
L 348.91549 294.037359 
L 349.728142 293.712239 
L 350.134468 293.864864 
L 350.540794 293.663052 
L 350.94712 293.987599 
L 351.353446 293.941486 
L 351.759772 294.055291 
L 352.166099 293.729266 
L 352.572425 293.880919 
L 354.197729 294.059747 
L 354.604055 293.697648 
L 355.010381 294.046649 
L 355.416707 293.801177 
L 355.823033 294.035158 
L 356.229359 293.812326 
L 356.635686 293.997157 
L 357.042012 293.87987 
L 357.448338 293.50228 
L 357.854664 294.420244 
L 358.26099 294.390556 
L 358.667316 294.198181 
L 359.073642 294.474256 
L 361.105272 294.449032 
L 361.511599 294.290867 
L 361.917925 294.323511 
L 362.324251 294.533248 
L 362.730577 294.523189 
L 363.136903 294.26219 
L 363.543229 294.695228 
L 363.949555 293.792459 
L 364.355881 294.536365 
L 364.762207 294.731006 
L 365.168533 294.480219 
L 365.981186 294.583558 
L 366.387512 294.442932 
L 367.200164 294.566065 
L 367.60649 294.63261 
L 369.231794 294.532442 
L 370.044446 294.548768 
L 370.450773 294.784581 
L 370.857099 294.441198 
L 371.263425 294.578946 
L 371.669751 294.54978 
L 372.076077 294.79069 
L 372.888729 294.569373 
L 373.295055 294.923023 
L 373.701381 294.579738 
L 374.107707 294.478017 
L 374.514033 294.813255 
L 375.326686 294.490625 
L 376.545664 294.680971 
L 376.95199 294.52852 
L 377.358316 294.781199 
L 377.764642 294.812794 
L 378.170968 294.702621 
L 378.577294 294.812816 
L 379.389947 294.556673 
L 379.796273 294.801097 
L 380.202599 294.697348 
L 380.608925 295.035225 
L 381.015251 294.713949 
L 381.421577 294.927569 
L 381.827903 294.942793 
L 382.234229 295.192485 
L 382.640555 294.523839 
L 383.046881 294.859362 
L 383.453207 294.815169 
L 384.26586 294.927218 
L 384.672186 294.792373 
L 385.078512 294.954272 
L 385.484838 294.772171 
L 385.891164 295.019047 
L 386.703816 294.914322 
L 387.110142 294.465799 
L 387.516468 294.880297 
L 388.735447 294.584602 
L 389.141773 294.747323 
L 389.548099 294.764946 
L 389.954425 294.274327 
L 390.360751 294.954926 
L 390.767077 294.615963 
L 391.173403 294.879725 
L 391.579729 294.850988 
L 391.986055 295.118954 
L 392.798707 294.930598 
L 393.205034 294.609927 
L 394.017686 295.081567 
L 394.830338 295.101279 
L 395.236664 294.798977 
L 396.049316 294.831116 
L 396.455642 294.577059 
L 396.861968 295.018268 
L 397.268294 294.876364 
L 397.674621 294.915274 
L 398.080947 295.112871 
L 398.487273 294.174447 
L 398.487273 294.174447 
" style="fill:none;stroke:#008000;stroke-linecap:square;stroke-width:1.5;"/>
   </g>
   <g id="patch_3">
    <path d="M 57.6 307.584 
L 57.6 41.472 
" style="fill:none;stroke:#000000;stroke-linecap:square;stroke-linejoin:miter;stroke-width:0.8;"/>
   </g>
   <g id="patch_4">
    <path d="M 414.72 307.584 
L 414.72 41.472 
" style="fill:none;stroke:#000000;stroke-linecap:square;stroke-linejoin:miter;stroke-width:0.8;"/>
   </g>
   <g id="patch_5">
    <path d="M 57.6 307.584 
L 414.72 307.584 
" style="fill:none;stroke:#000000;stroke-linecap:square;stroke-linejoin:miter;stroke-width:0.8;"/>
   </g>
   <g id="patch_6">
    <path d="M 57.6 41.472 
L 414.72 41.472 
" style="fill:none;stroke:#000000;stroke-linecap:square;stroke-linejoin:miter;stroke-width:0.8;"/>
   </g>
   <g id="text_19">
    <!-- loss val_loss -->
    <g transform="translate(199.179375 35.472)scale(0.12 -0.12)">
     <defs>
      <path id="DejaVuSans-32"/>
      <path d="M 2.984375 54.6875 
L 12.5 54.6875 
L 29.59375 8.796875 
L 46.6875 54.6875 
L 56.203125 54.6875 
L 35.6875 0 
L 23.484375 0 
z
" id="DejaVuSans-118"/>
      <path d="M 34.28125 27.484375 
Q 23.390625 27.484375 19.1875 25 
Q 14.984375 22.515625 14.984375 16.5 
Q 14.984375 11.71875 18.140625 8.90625 
Q 21.296875 6.109375 26.703125 6.109375 
Q 34.1875 6.109375 38.703125 11.40625 
Q 43.21875 16.703125 43.21875 25.484375 
L 43.21875 27.484375 
z
M 52.203125 31.203125 
L 52.203125 0 
L 43.21875 0 
L 43.21875 8.296875 
Q 40.140625 3.328125 35.546875 0.953125 
Q 30.953125 -1.421875 24.3125 -1.421875 
Q 15.921875 -1.421875 10.953125 3.296875 
Q 6 8.015625 6 15.921875 
Q 6 25.140625 12.171875 29.828125 
Q 18.359375 34.515625 30.609375 34.515625 
L 43.21875 34.515625 
L 43.21875 35.40625 
Q 43.21875 41.609375 39.140625 45 
Q 35.0625 48.390625 27.6875 48.390625 
Q 23 48.390625 18.546875 47.265625 
Q 14.109375 46.140625 10.015625 43.890625 
L 10.015625 52.203125 
Q 14.9375 54.109375 19.578125 55.046875 
Q 24.21875 56 28.609375 56 
Q 40.484375 56 46.34375 49.84375 
Q 52.203125 43.703125 52.203125 31.203125 
z
" id="DejaVuSans-97"/>
      <path d="M 50.984375 -16.609375 
L 50.984375 -23.578125 
L -0.984375 -23.578125 
L -0.984375 -16.609375 
z
" id="DejaVuSans-95"/>
     </defs>
     <use xlink:href="#DejaVuSans-108"/>
     <use x="27.783203" xlink:href="#DejaVuSans-111"/>
     <use x="88.964844" xlink:href="#DejaVuSans-115"/>
     <use x="141.064453" xlink:href="#DejaVuSans-115"/>
     <use x="193.164062" xlink:href="#DejaVuSans-32"/>
     <use x="224.951172" xlink:href="#DejaVuSans-118"/>
     <use x="284.130859" xlink:href="#DejaVuSans-97"/>
     <use x="345.410156" xlink:href="#DejaVuSans-108"/>
     <use x="373.193359" xlink:href="#DejaVuSans-95"/>
     <use x="423.193359" xlink:href="#DejaVuSans-108"/>
     <use x="450.976562" xlink:href="#DejaVuSans-111"/>
     <use x="512.158203" xlink:href="#DejaVuSans-115"/>
     <use x="564.257812" xlink:href="#DejaVuSans-115"/>
    </g>
   </g>
   <g id="legend_1">
    <g id="patch_7">
     <path d="M 64.6 54.472 
L 68.6 54.472 
Q 70.6 54.472 70.6 52.472 
L 70.6 48.472 
Q 70.6 46.472 68.6 46.472 
L 64.6 46.472 
Q 62.6 46.472 62.6 48.472 
L 62.6 52.472 
Q 62.6 54.472 64.6 54.472 
z
" style="fill:#ffffff;opacity:0.8;stroke:#cccccc;stroke-linejoin:miter;"/>
    </g>
   </g>
  </g>
 </g>
 <defs>
  <clipPath id="pbcaad819a4">
   <rect height="266.112" width="357.12" x="57.6" y="41.472"/>
  </clipPath>
 </defs>
</svg>
