<?xml version="1.0" encoding="utf-8" standalone="no"?>
<!DOCTYPE svg PUBLIC "-//W3C//DTD SVG 1.1//EN"
  "http://www.w3.org/Graphics/SVG/1.1/DTD/svg11.dtd">
<!-- Created with matplotlib (https://matplotlib.org/) -->
<svg height="345.6pt" version="1.1" viewBox="0 0 460.8 345.6" width="460.8pt" xmlns="http://www.w3.org/2000/svg" xmlns:xlink="http://www.w3.org/1999/xlink">
 <metadata>
  <rdf:RDF xmlns:cc="http://creativecommons.org/ns#" xmlns:dc="http://purl.org/dc/elements/1.1/" xmlns:rdf="http://www.w3.org/1999/02/22-rdf-syntax-ns#">
   <cc:Work>
    <dc:type rdf:resource="http://purl.org/dc/dcmitype/StillImage"/>
    <dc:date>2023-06-28T05:56:26.459377</dc:date>
    <dc:format>image/svg+xml</dc:format>
    <dc:creator>
     <cc:Agent>
      <dc:title>Matplotlib v3.3.4, https://matplotlib.org/</dc:title>
     </cc:Agent>
    </dc:creator>
   </cc:Work>
  </rdf:RDF>
 </metadata>
 <defs>
  <style type="text/css">*{stroke-linecap:butt;stroke-linejoin:round;}</style>
 </defs>
 <g id="figure_1">
  <g id="patch_1">
   <path d="M 0 345.6 
L 460.8 345.6 
L 460.8 0 
L 0 0 
z
" style="fill:#ffffff;"/>
  </g>
  <g id="axes_1">
   <g id="patch_2">
    <path d="M 57.6 307.584 
L 414.72 307.584 
L 414.72 41.472 
L 57.6 41.472 
z
" style="fill:#ffffff;"/>
   </g>
   <g id="matplotlib.axis_1">
    <g id="xtick_1">
     <g id="line2d_1">
      <defs>
       <path d="M 0 0 
L 0 3.5 
" id="m958667d3ff" style="stroke:#000000;stroke-width:0.8;"/>
      </defs>
      <g>
       <use style="stroke:#000000;stroke-width:0.8;" x="73.832727" xlink:href="#m958667d3ff" y="307.584"/>
      </g>
     </g>
     <g id="text_1">
      <!-- 0 -->
      <g transform="translate(70.651477 322.182437)scale(0.1 -0.1)">
       <defs>
        <path d="M 31.78125 66.40625 
Q 24.171875 66.40625 20.328125 58.90625 
Q 16.5 51.421875 16.5 36.375 
Q 16.5 21.390625 20.328125 13.890625 
Q 24.171875 6.390625 31.78125 6.390625 
Q 39.453125 6.390625 43.28125 13.890625 
Q 47.125 21.390625 47.125 36.375 
Q 47.125 51.421875 43.28125 58.90625 
Q 39.453125 66.40625 31.78125 66.40625 
z
M 31.78125 74.21875 
Q 44.046875 74.21875 50.515625 64.515625 
Q 56.984375 54.828125 56.984375 36.375 
Q 56.984375 17.96875 50.515625 8.265625 
Q 44.046875 -1.421875 31.78125 -1.421875 
Q 19.53125 -1.421875 13.0625 8.265625 
Q 6.59375 17.96875 6.59375 36.375 
Q 6.59375 54.828125 13.0625 64.515625 
Q 19.53125 74.21875 31.78125 74.21875 
z
" id="DejaVuSans-48"/>
       </defs>
       <use xlink:href="#DejaVuSans-48"/>
      </g>
     </g>
    </g>
    <g id="xtick_2">
     <g id="line2d_2">
      <g>
       <use style="stroke:#000000;stroke-width:0.8;" x="114.465336" xlink:href="#m958667d3ff" y="307.584"/>
      </g>
     </g>
     <g id="text_2">
      <!-- 100 -->
      <g transform="translate(104.921586 322.182437)scale(0.1 -0.1)">
       <defs>
        <path d="M 12.40625 8.296875 
L 28.515625 8.296875 
L 28.515625 63.921875 
L 10.984375 60.40625 
L 10.984375 69.390625 
L 28.421875 72.90625 
L 38.28125 72.90625 
L 38.28125 8.296875 
L 54.390625 8.296875 
L 54.390625 0 
L 12.40625 0 
z
" id="DejaVuSans-49"/>
       </defs>
       <use xlink:href="#DejaVuSans-49"/>
       <use x="63.623047" xlink:href="#DejaVuSans-48"/>
       <use x="127.246094" xlink:href="#DejaVuSans-48"/>
      </g>
     </g>
    </g>
    <g id="xtick_3">
     <g id="line2d_3">
      <g>
       <use style="stroke:#000000;stroke-width:0.8;" x="155.097945" xlink:href="#m958667d3ff" y="307.584"/>
      </g>
     </g>
     <g id="text_3">
      <!-- 200 -->
      <g transform="translate(145.554195 322.182437)scale(0.1 -0.1)">
       <defs>
        <path d="M 19.1875 8.296875 
L 53.609375 8.296875 
L 53.609375 0 
L 7.328125 0 
L 7.328125 8.296875 
Q 12.9375 14.109375 22.625 23.890625 
Q 32.328125 33.6875 34.8125 36.53125 
Q 39.546875 41.84375 41.421875 45.53125 
Q 43.3125 49.21875 43.3125 52.78125 
Q 43.3125 58.59375 39.234375 62.25 
Q 35.15625 65.921875 28.609375 65.921875 
Q 23.96875 65.921875 18.8125 64.3125 
Q 13.671875 62.703125 7.8125 59.421875 
L 7.8125 69.390625 
Q 13.765625 71.78125 18.9375 73 
Q 24.125 74.21875 28.421875 74.21875 
Q 39.75 74.21875 46.484375 68.546875 
Q 53.21875 62.890625 53.21875 53.421875 
Q 53.21875 48.921875 51.53125 44.890625 
Q 49.859375 40.875 45.40625 35.40625 
Q 44.1875 33.984375 37.640625 27.21875 
Q 31.109375 20.453125 19.1875 8.296875 
z
" id="DejaVuSans-50"/>
       </defs>
       <use xlink:href="#DejaVuSans-50"/>
       <use x="63.623047" xlink:href="#DejaVuSans-48"/>
       <use x="127.246094" xlink:href="#DejaVuSans-48"/>
      </g>
     </g>
    </g>
    <g id="xtick_4">
     <g id="line2d_4">
      <g>
       <use style="stroke:#000000;stroke-width:0.8;" x="195.730554" xlink:href="#m958667d3ff" y="307.584"/>
      </g>
     </g>
     <g id="text_4">
      <!-- 300 -->
      <g transform="translate(186.186804 322.182437)scale(0.1 -0.1)">
       <defs>
        <path d="M 40.578125 39.3125 
Q 47.65625 37.796875 51.625 33 
Q 55.609375 28.21875 55.609375 21.1875 
Q 55.609375 10.40625 48.1875 4.484375 
Q 40.765625 -1.421875 27.09375 -1.421875 
Q 22.515625 -1.421875 17.65625 -0.515625 
Q 12.796875 0.390625 7.625 2.203125 
L 7.625 11.71875 
Q 11.71875 9.328125 16.59375 8.109375 
Q 21.484375 6.890625 26.8125 6.890625 
Q 36.078125 6.890625 40.9375 10.546875 
Q 45.796875 14.203125 45.796875 21.1875 
Q 45.796875 27.640625 41.28125 31.265625 
Q 36.765625 34.90625 28.71875 34.90625 
L 20.21875 34.90625 
L 20.21875 43.015625 
L 29.109375 43.015625 
Q 36.375 43.015625 40.234375 45.921875 
Q 44.09375 48.828125 44.09375 54.296875 
Q 44.09375 59.90625 40.109375 62.90625 
Q 36.140625 65.921875 28.71875 65.921875 
Q 24.65625 65.921875 20.015625 65.03125 
Q 15.375 64.15625 9.8125 62.3125 
L 9.8125 71.09375 
Q 15.4375 72.65625 20.34375 73.4375 
Q 25.25 74.21875 29.59375 74.21875 
Q 40.828125 74.21875 47.359375 69.109375 
Q 53.90625 64.015625 53.90625 55.328125 
Q 53.90625 49.265625 50.4375 45.09375 
Q 46.96875 40.921875 40.578125 39.3125 
z
" id="DejaVuSans-51"/>
       </defs>
       <use xlink:href="#DejaVuSans-51"/>
       <use x="63.623047" xlink:href="#DejaVuSans-48"/>
       <use x="127.246094" xlink:href="#DejaVuSans-48"/>
      </g>
     </g>
    </g>
    <g id="xtick_5">
     <g id="line2d_5">
      <g>
       <use style="stroke:#000000;stroke-width:0.8;" x="236.363163" xlink:href="#m958667d3ff" y="307.584"/>
      </g>
     </g>
     <g id="text_5">
      <!-- 400 -->
      <g transform="translate(226.819413 322.182437)scale(0.1 -0.1)">
       <defs>
        <path d="M 37.796875 64.3125 
L 12.890625 25.390625 
L 37.796875 25.390625 
z
M 35.203125 72.90625 
L 47.609375 72.90625 
L 47.609375 25.390625 
L 58.015625 25.390625 
L 58.015625 17.1875 
L 47.609375 17.1875 
L 47.609375 0 
L 37.796875 0 
L 37.796875 17.1875 
L 4.890625 17.1875 
L 4.890625 26.703125 
z
" id="DejaVuSans-52"/>
       </defs>
       <use xlink:href="#DejaVuSans-52"/>
       <use x="63.623047" xlink:href="#DejaVuSans-48"/>
       <use x="127.246094" xlink:href="#DejaVuSans-48"/>
      </g>
     </g>
    </g>
    <g id="xtick_6">
     <g id="line2d_6">
      <g>
       <use style="stroke:#000000;stroke-width:0.8;" x="276.995772" xlink:href="#m958667d3ff" y="307.584"/>
      </g>
     </g>
     <g id="text_6">
      <!-- 500 -->
      <g transform="translate(267.452022 322.182437)scale(0.1 -0.1)">
       <defs>
        <path d="M 10.796875 72.90625 
L 49.515625 72.90625 
L 49.515625 64.59375 
L 19.828125 64.59375 
L 19.828125 46.734375 
Q 21.96875 47.46875 24.109375 47.828125 
Q 26.265625 48.1875 28.421875 48.1875 
Q 40.625 48.1875 47.75 41.5 
Q 54.890625 34.8125 54.890625 23.390625 
Q 54.890625 11.625 47.5625 5.09375 
Q 40.234375 -1.421875 26.90625 -1.421875 
Q 22.3125 -1.421875 17.546875 -0.640625 
Q 12.796875 0.140625 7.71875 1.703125 
L 7.71875 11.625 
Q 12.109375 9.234375 16.796875 8.0625 
Q 21.484375 6.890625 26.703125 6.890625 
Q 35.15625 6.890625 40.078125 11.328125 
Q 45.015625 15.765625 45.015625 23.390625 
Q 45.015625 31 40.078125 35.4375 
Q 35.15625 39.890625 26.703125 39.890625 
Q 22.75 39.890625 18.8125 39.015625 
Q 14.890625 38.140625 10.796875 36.28125 
z
" id="DejaVuSans-53"/>
       </defs>
       <use xlink:href="#DejaVuSans-53"/>
       <use x="63.623047" xlink:href="#DejaVuSans-48"/>
       <use x="127.246094" xlink:href="#DejaVuSans-48"/>
      </g>
     </g>
    </g>
    <g id="xtick_7">
     <g id="line2d_7">
      <g>
       <use style="stroke:#000000;stroke-width:0.8;" x="317.628381" xlink:href="#m958667d3ff" y="307.584"/>
      </g>
     </g>
     <g id="text_7">
      <!-- 600 -->
      <g transform="translate(308.084631 322.182437)scale(0.1 -0.1)">
       <defs>
        <path d="M 33.015625 40.375 
Q 26.375 40.375 22.484375 35.828125 
Q 18.609375 31.296875 18.609375 23.390625 
Q 18.609375 15.53125 22.484375 10.953125 
Q 26.375 6.390625 33.015625 6.390625 
Q 39.65625 6.390625 43.53125 10.953125 
Q 47.40625 15.53125 47.40625 23.390625 
Q 47.40625 31.296875 43.53125 35.828125 
Q 39.65625 40.375 33.015625 40.375 
z
M 52.59375 71.296875 
L 52.59375 62.3125 
Q 48.875 64.0625 45.09375 64.984375 
Q 41.3125 65.921875 37.59375 65.921875 
Q 27.828125 65.921875 22.671875 59.328125 
Q 17.53125 52.734375 16.796875 39.40625 
Q 19.671875 43.65625 24.015625 45.921875 
Q 28.375 48.1875 33.59375 48.1875 
Q 44.578125 48.1875 50.953125 41.515625 
Q 57.328125 34.859375 57.328125 23.390625 
Q 57.328125 12.15625 50.6875 5.359375 
Q 44.046875 -1.421875 33.015625 -1.421875 
Q 20.359375 -1.421875 13.671875 8.265625 
Q 6.984375 17.96875 6.984375 36.375 
Q 6.984375 53.65625 15.1875 63.9375 
Q 23.390625 74.21875 37.203125 74.21875 
Q 40.921875 74.21875 44.703125 73.484375 
Q 48.484375 72.75 52.59375 71.296875 
z
" id="DejaVuSans-54"/>
       </defs>
       <use xlink:href="#DejaVuSans-54"/>
       <use x="63.623047" xlink:href="#DejaVuSans-48"/>
       <use x="127.246094" xlink:href="#DejaVuSans-48"/>
      </g>
     </g>
    </g>
    <g id="xtick_8">
     <g id="line2d_8">
      <g>
       <use style="stroke:#000000;stroke-width:0.8;" x="358.26099" xlink:href="#m958667d3ff" y="307.584"/>
      </g>
     </g>
     <g id="text_8">
      <!-- 700 -->
      <g transform="translate(348.71724 322.182437)scale(0.1 -0.1)">
       <defs>
        <path d="M 8.203125 72.90625 
L 55.078125 72.90625 
L 55.078125 68.703125 
L 28.609375 0 
L 18.3125 0 
L 43.21875 64.59375 
L 8.203125 64.59375 
z
" id="DejaVuSans-55"/>
       </defs>
       <use xlink:href="#DejaVuSans-55"/>
       <use x="63.623047" xlink:href="#DejaVuSans-48"/>
       <use x="127.246094" xlink:href="#DejaVuSans-48"/>
      </g>
     </g>
    </g>
    <g id="xtick_9">
     <g id="line2d_9">
      <g>
       <use style="stroke:#000000;stroke-width:0.8;" x="398.893599" xlink:href="#m958667d3ff" y="307.584"/>
      </g>
     </g>
     <g id="text_9">
      <!-- 800 -->
      <g transform="translate(389.349849 322.182437)scale(0.1 -0.1)">
       <defs>
        <path d="M 31.78125 34.625 
Q 24.75 34.625 20.71875 30.859375 
Q 16.703125 27.09375 16.703125 20.515625 
Q 16.703125 13.921875 20.71875 10.15625 
Q 24.75 6.390625 31.78125 6.390625 
Q 38.8125 6.390625 42.859375 10.171875 
Q 46.921875 13.96875 46.921875 20.515625 
Q 46.921875 27.09375 42.890625 30.859375 
Q 38.875 34.625 31.78125 34.625 
z
M 21.921875 38.8125 
Q 15.578125 40.375 12.03125 44.71875 
Q 8.5 49.078125 8.5 55.328125 
Q 8.5 64.0625 14.71875 69.140625 
Q 20.953125 74.21875 31.78125 74.21875 
Q 42.671875 74.21875 48.875 69.140625 
Q 55.078125 64.0625 55.078125 55.328125 
Q 55.078125 49.078125 51.53125 44.71875 
Q 48 40.375 41.703125 38.8125 
Q 48.828125 37.15625 52.796875 32.3125 
Q 56.78125 27.484375 56.78125 20.515625 
Q 56.78125 9.90625 50.3125 4.234375 
Q 43.84375 -1.421875 31.78125 -1.421875 
Q 19.734375 -1.421875 13.25 4.234375 
Q 6.78125 9.90625 6.78125 20.515625 
Q 6.78125 27.484375 10.78125 32.3125 
Q 14.796875 37.15625 21.921875 38.8125 
z
M 18.3125 54.390625 
Q 18.3125 48.734375 21.84375 45.5625 
Q 25.390625 42.390625 31.78125 42.390625 
Q 38.140625 42.390625 41.71875 45.5625 
Q 45.3125 48.734375 45.3125 54.390625 
Q 45.3125 60.0625 41.71875 63.234375 
Q 38.140625 66.40625 31.78125 66.40625 
Q 25.390625 66.40625 21.84375 63.234375 
Q 18.3125 60.0625 18.3125 54.390625 
z
" id="DejaVuSans-56"/>
       </defs>
       <use xlink:href="#DejaVuSans-56"/>
       <use x="63.623047" xlink:href="#DejaVuSans-48"/>
       <use x="127.246094" xlink:href="#DejaVuSans-48"/>
      </g>
     </g>
    </g>
    <g id="text_10">
     <!-- epoch -->
     <g transform="translate(220.931875 335.860562)scale(0.1 -0.1)">
      <defs>
       <path d="M 56.203125 29.59375 
L 56.203125 25.203125 
L 14.890625 25.203125 
Q 15.484375 15.921875 20.484375 11.0625 
Q 25.484375 6.203125 34.421875 6.203125 
Q 39.59375 6.203125 44.453125 7.46875 
Q 49.3125 8.734375 54.109375 11.28125 
L 54.109375 2.78125 
Q 49.265625 0.734375 44.1875 -0.34375 
Q 39.109375 -1.421875 33.890625 -1.421875 
Q 20.796875 -1.421875 13.15625 6.1875 
Q 5.515625 13.8125 5.515625 26.8125 
Q 5.515625 40.234375 12.765625 48.109375 
Q 20.015625 56 32.328125 56 
Q 43.359375 56 49.78125 48.890625 
Q 56.203125 41.796875 56.203125 29.59375 
z
M 47.21875 32.234375 
Q 47.125 39.59375 43.09375 43.984375 
Q 39.0625 48.390625 32.421875 48.390625 
Q 24.90625 48.390625 20.390625 44.140625 
Q 15.875 39.890625 15.1875 32.171875 
z
" id="DejaVuSans-101"/>
       <path d="M 18.109375 8.203125 
L 18.109375 -20.796875 
L 9.078125 -20.796875 
L 9.078125 54.6875 
L 18.109375 54.6875 
L 18.109375 46.390625 
Q 20.953125 51.265625 25.265625 53.625 
Q 29.59375 56 35.59375 56 
Q 45.5625 56 51.78125 48.09375 
Q 58.015625 40.1875 58.015625 27.296875 
Q 58.015625 14.40625 51.78125 6.484375 
Q 45.5625 -1.421875 35.59375 -1.421875 
Q 29.59375 -1.421875 25.265625 0.953125 
Q 20.953125 3.328125 18.109375 8.203125 
z
M 48.6875 27.296875 
Q 48.6875 37.203125 44.609375 42.84375 
Q 40.53125 48.484375 33.40625 48.484375 
Q 26.265625 48.484375 22.1875 42.84375 
Q 18.109375 37.203125 18.109375 27.296875 
Q 18.109375 17.390625 22.1875 11.75 
Q 26.265625 6.109375 33.40625 6.109375 
Q 40.53125 6.109375 44.609375 11.75 
Q 48.6875 17.390625 48.6875 27.296875 
z
" id="DejaVuSans-112"/>
       <path d="M 30.609375 48.390625 
Q 23.390625 48.390625 19.1875 42.75 
Q 14.984375 37.109375 14.984375 27.296875 
Q 14.984375 17.484375 19.15625 11.84375 
Q 23.34375 6.203125 30.609375 6.203125 
Q 37.796875 6.203125 41.984375 11.859375 
Q 46.1875 17.53125 46.1875 27.296875 
Q 46.1875 37.015625 41.984375 42.703125 
Q 37.796875 48.390625 30.609375 48.390625 
z
M 30.609375 56 
Q 42.328125 56 49.015625 48.375 
Q 55.71875 40.765625 55.71875 27.296875 
Q 55.71875 13.875 49.015625 6.21875 
Q 42.328125 -1.421875 30.609375 -1.421875 
Q 18.84375 -1.421875 12.171875 6.21875 
Q 5.515625 13.875 5.515625 27.296875 
Q 5.515625 40.765625 12.171875 48.375 
Q 18.84375 56 30.609375 56 
z
" id="DejaVuSans-111"/>
       <path d="M 48.78125 52.59375 
L 48.78125 44.1875 
Q 44.96875 46.296875 41.140625 47.34375 
Q 37.3125 48.390625 33.40625 48.390625 
Q 24.65625 48.390625 19.8125 42.84375 
Q 14.984375 37.3125 14.984375 27.296875 
Q 14.984375 17.28125 19.8125 11.734375 
Q 24.65625 6.203125 33.40625 6.203125 
Q 37.3125 6.203125 41.140625 7.25 
Q 44.96875 8.296875 48.78125 10.40625 
L 48.78125 2.09375 
Q 45.015625 0.34375 40.984375 -0.53125 
Q 36.96875 -1.421875 32.421875 -1.421875 
Q 20.0625 -1.421875 12.78125 6.34375 
Q 5.515625 14.109375 5.515625 27.296875 
Q 5.515625 40.671875 12.859375 48.328125 
Q 20.21875 56 33.015625 56 
Q 37.15625 56 41.109375 55.140625 
Q 45.0625 54.296875 48.78125 52.59375 
z
" id="DejaVuSans-99"/>
       <path d="M 54.890625 33.015625 
L 54.890625 0 
L 45.90625 0 
L 45.90625 32.71875 
Q 45.90625 40.484375 42.875 44.328125 
Q 39.84375 48.1875 33.796875 48.1875 
Q 26.515625 48.1875 22.3125 43.546875 
Q 18.109375 38.921875 18.109375 30.90625 
L 18.109375 0 
L 9.078125 0 
L 9.078125 75.984375 
L 18.109375 75.984375 
L 18.109375 46.1875 
Q 21.34375 51.125 25.703125 53.5625 
Q 30.078125 56 35.796875 56 
Q 45.21875 56 50.046875 50.171875 
Q 54.890625 44.34375 54.890625 33.015625 
z
" id="DejaVuSans-104"/>
      </defs>
      <use xlink:href="#DejaVuSans-101"/>
      <use x="61.523438" xlink:href="#DejaVuSans-112"/>
      <use x="125" xlink:href="#DejaVuSans-111"/>
      <use x="186.181641" xlink:href="#DejaVuSans-99"/>
      <use x="241.162109" xlink:href="#DejaVuSans-104"/>
     </g>
    </g>
   </g>
   <g id="matplotlib.axis_2">
    <g id="ytick_1">
     <g id="line2d_10">
      <defs>
       <path d="M 0 0 
L -3.5 0 
" id="mccb628f9f9" style="stroke:#000000;stroke-width:0.8;"/>
      </defs>
      <g>
       <use style="stroke:#000000;stroke-width:0.8;" x="57.6" xlink:href="#mccb628f9f9" y="295.947299"/>
      </g>
     </g>
     <g id="text_11">
      <!-- 0.0000 -->
      <g transform="translate(15.609375 299.746518)scale(0.1 -0.1)">
       <defs>
        <path d="M 10.6875 12.40625 
L 21 12.40625 
L 21 0 
L 10.6875 0 
z
" id="DejaVuSans-46"/>
       </defs>
       <use xlink:href="#DejaVuSans-48"/>
       <use x="63.623047" xlink:href="#DejaVuSans-46"/>
       <use x="95.410156" xlink:href="#DejaVuSans-48"/>
       <use x="159.033203" xlink:href="#DejaVuSans-48"/>
       <use x="222.65625" xlink:href="#DejaVuSans-48"/>
       <use x="286.279297" xlink:href="#DejaVuSans-48"/>
      </g>
     </g>
    </g>
    <g id="ytick_2">
     <g id="line2d_11">
      <g>
       <use style="stroke:#000000;stroke-width:0.8;" x="57.6" xlink:href="#mccb628f9f9" y="265.054119"/>
      </g>
     </g>
     <g id="text_12">
      <!-- 0.0025 -->
      <g transform="translate(15.609375 268.853338)scale(0.1 -0.1)">
       <use xlink:href="#DejaVuSans-48"/>
       <use x="63.623047" xlink:href="#DejaVuSans-46"/>
       <use x="95.410156" xlink:href="#DejaVuSans-48"/>
       <use x="159.033203" xlink:href="#DejaVuSans-48"/>
       <use x="222.65625" xlink:href="#DejaVuSans-50"/>
       <use x="286.279297" xlink:href="#DejaVuSans-53"/>
      </g>
     </g>
    </g>
    <g id="ytick_3">
     <g id="line2d_12">
      <g>
       <use style="stroke:#000000;stroke-width:0.8;" x="57.6" xlink:href="#mccb628f9f9" y="234.160939"/>
      </g>
     </g>
     <g id="text_13">
      <!-- 0.0050 -->
      <g transform="translate(15.609375 237.960158)scale(0.1 -0.1)">
       <use xlink:href="#DejaVuSans-48"/>
       <use x="63.623047" xlink:href="#DejaVuSans-46"/>
       <use x="95.410156" xlink:href="#DejaVuSans-48"/>
       <use x="159.033203" xlink:href="#DejaVuSans-48"/>
       <use x="222.65625" xlink:href="#DejaVuSans-53"/>
       <use x="286.279297" xlink:href="#DejaVuSans-48"/>
      </g>
     </g>
    </g>
    <g id="ytick_4">
     <g id="line2d_13">
      <g>
       <use style="stroke:#000000;stroke-width:0.8;" x="57.6" xlink:href="#mccb628f9f9" y="203.267759"/>
      </g>
     </g>
     <g id="text_14">
      <!-- 0.0075 -->
      <g transform="translate(15.609375 207.066978)scale(0.1 -0.1)">
       <use xlink:href="#DejaVuSans-48"/>
       <use x="63.623047" xlink:href="#DejaVuSans-46"/>
       <use x="95.410156" xlink:href="#DejaVuSans-48"/>
       <use x="159.033203" xlink:href="#DejaVuSans-48"/>
       <use x="222.65625" xlink:href="#DejaVuSans-55"/>
       <use x="286.279297" xlink:href="#DejaVuSans-53"/>
      </g>
     </g>
    </g>
    <g id="ytick_5">
     <g id="line2d_14">
      <g>
       <use style="stroke:#000000;stroke-width:0.8;" x="57.6" xlink:href="#mccb628f9f9" y="172.374579"/>
      </g>
     </g>
     <g id="text_15">
      <!-- 0.0100 -->
      <g transform="translate(15.609375 176.173798)scale(0.1 -0.1)">
       <use xlink:href="#DejaVuSans-48"/>
       <use x="63.623047" xlink:href="#DejaVuSans-46"/>
       <use x="95.410156" xlink:href="#DejaVuSans-48"/>
       <use x="159.033203" xlink:href="#DejaVuSans-49"/>
       <use x="222.65625" xlink:href="#DejaVuSans-48"/>
       <use x="286.279297" xlink:href="#DejaVuSans-48"/>
      </g>
     </g>
    </g>
    <g id="ytick_6">
     <g id="line2d_15">
      <g>
       <use style="stroke:#000000;stroke-width:0.8;" x="57.6" xlink:href="#mccb628f9f9" y="141.481399"/>
      </g>
     </g>
     <g id="text_16">
      <!-- 0.0125 -->
      <g transform="translate(15.609375 145.280618)scale(0.1 -0.1)">
       <use xlink:href="#DejaVuSans-48"/>
       <use x="63.623047" xlink:href="#DejaVuSans-46"/>
       <use x="95.410156" xlink:href="#DejaVuSans-48"/>
       <use x="159.033203" xlink:href="#DejaVuSans-49"/>
       <use x="222.65625" xlink:href="#DejaVuSans-50"/>
       <use x="286.279297" xlink:href="#DejaVuSans-53"/>
      </g>
     </g>
    </g>
    <g id="ytick_7">
     <g id="line2d_16">
      <g>
       <use style="stroke:#000000;stroke-width:0.8;" x="57.6" xlink:href="#mccb628f9f9" y="110.588219"/>
      </g>
     </g>
     <g id="text_17">
      <!-- 0.0150 -->
      <g transform="translate(15.609375 114.387438)scale(0.1 -0.1)">
       <use xlink:href="#DejaVuSans-48"/>
       <use x="63.623047" xlink:href="#DejaVuSans-46"/>
       <use x="95.410156" xlink:href="#DejaVuSans-48"/>
       <use x="159.033203" xlink:href="#DejaVuSans-49"/>
       <use x="222.65625" xlink:href="#DejaVuSans-53"/>
       <use x="286.279297" xlink:href="#DejaVuSans-48"/>
      </g>
     </g>
    </g>
    <g id="ytick_8">
     <g id="line2d_17">
      <g>
       <use style="stroke:#000000;stroke-width:0.8;" x="57.6" xlink:href="#mccb628f9f9" y="79.695039"/>
      </g>
     </g>
     <g id="text_18">
      <!-- 0.0175 -->
      <g transform="translate(15.609375 83.494258)scale(0.1 -0.1)">
       <use xlink:href="#DejaVuSans-48"/>
       <use x="63.623047" xlink:href="#DejaVuSans-46"/>
       <use x="95.410156" xlink:href="#DejaVuSans-48"/>
       <use x="159.033203" xlink:href="#DejaVuSans-49"/>
       <use x="222.65625" xlink:href="#DejaVuSans-55"/>
       <use x="286.279297" xlink:href="#DejaVuSans-53"/>
      </g>
     </g>
    </g>
    <g id="ytick_9">
     <g id="line2d_18">
      <g>
       <use style="stroke:#000000;stroke-width:0.8;" x="57.6" xlink:href="#mccb628f9f9" y="48.801859"/>
      </g>
     </g>
     <g id="text_19">
      <!-- 0.0200 -->
      <g transform="translate(15.609375 52.601078)scale(0.1 -0.1)">
       <use xlink:href="#DejaVuSans-48"/>
       <use x="63.623047" xlink:href="#DejaVuSans-46"/>
       <use x="95.410156" xlink:href="#DejaVuSans-48"/>
       <use x="159.033203" xlink:href="#DejaVuSans-50"/>
       <use x="222.65625" xlink:href="#DejaVuSans-48"/>
       <use x="286.279297" xlink:href="#DejaVuSans-48"/>
      </g>
     </g>
    </g>
    <g id="text_20">
     <!-- loss -->
     <g transform="translate(9.529687 184.185812)rotate(-90)scale(0.1 -0.1)">
      <defs>
       <path d="M 9.421875 75.984375 
L 18.40625 75.984375 
L 18.40625 0 
L 9.421875 0 
z
" id="DejaVuSans-108"/>
       <path d="M 44.28125 53.078125 
L 44.28125 44.578125 
Q 40.484375 46.53125 36.375 47.5 
Q 32.28125 48.484375 27.875 48.484375 
Q 21.1875 48.484375 17.84375 46.4375 
Q 14.5 44.390625 14.5 40.28125 
Q 14.5 37.15625 16.890625 35.375 
Q 19.28125 33.59375 26.515625 31.984375 
L 29.59375 31.296875 
Q 39.15625 29.25 43.1875 25.515625 
Q 47.21875 21.78125 47.21875 15.09375 
Q 47.21875 7.46875 41.1875 3.015625 
Q 35.15625 -1.421875 24.609375 -1.421875 
Q 20.21875 -1.421875 15.453125 -0.5625 
Q 10.6875 0.296875 5.421875 2 
L 5.421875 11.28125 
Q 10.40625 8.6875 15.234375 7.390625 
Q 20.0625 6.109375 24.8125 6.109375 
Q 31.15625 6.109375 34.5625 8.28125 
Q 37.984375 10.453125 37.984375 14.40625 
Q 37.984375 18.0625 35.515625 20.015625 
Q 33.0625 21.96875 24.703125 23.78125 
L 21.578125 24.515625 
Q 13.234375 26.265625 9.515625 29.90625 
Q 5.8125 33.546875 5.8125 39.890625 
Q 5.8125 47.609375 11.28125 51.796875 
Q 16.75 56 26.8125 56 
Q 31.78125 56 36.171875 55.265625 
Q 40.578125 54.546875 44.28125 53.078125 
z
" id="DejaVuSans-115"/>
      </defs>
      <use xlink:href="#DejaVuSans-108"/>
      <use x="27.783203" xlink:href="#DejaVuSans-111"/>
      <use x="88.964844" xlink:href="#DejaVuSans-115"/>
      <use x="141.064453" xlink:href="#DejaVuSans-115"/>
     </g>
    </g>
   </g>
   <g id="line2d_19">
    <path clip-path="url(#p4a7bdd1b8f)" d="M 73.832727 141.065158 
L 74.239053 247.283865 
L 74.645379 251.88489 
L 75.051706 253.233854 
L 75.458032 260.466561 
L 75.864358 265.181486 
L 76.67701 267.766555 
L 77.489662 273.935641 
L 77.895988 274.632968 
L 78.302314 276.455485 
L 78.70864 277.175829 
L 79.114966 278.497869 
L 80.333945 278.976662 
L 81.146597 281.06334 
L 81.552923 281.744443 
L 81.959249 282.65756 
L 82.365575 282.56057 
L 83.178227 283.353374 
L 83.584553 283.396485 
L 83.99088 283.953192 
L 84.803532 283.768339 
L 85.209858 284.523761 
L 85.616184 284.340968 
L 86.02251 284.453371 
L 86.428836 284.1647 
L 86.835162 284.872263 
L 87.241488 285.343238 
L 87.647814 285.488057 
L 88.05414 285.36341 
L 88.460466 285.784767 
L 89.273119 285.807748 
L 89.679445 285.431645 
L 90.492097 286.556786 
L 90.898423 286.540016 
L 91.304749 286.950419 
L 91.711075 286.230572 
L 92.117401 286.840545 
L 92.523727 287.048371 
L 92.930053 287.022884 
L 93.33638 286.802511 
L 93.742706 286.976261 
L 94.149032 287.661307 
L 95.36801 287.87172 
L 95.774336 287.981698 
L 96.180662 288.249098 
L 96.586988 288.32098 
L 96.993314 288.707699 
L 97.39964 288.687978 
L 97.805967 288.805346 
L 98.212293 288.798443 
L 99.024945 288.428686 
L 99.431271 289.263044 
L 99.837597 289.418589 
L 101.056575 289.098169 
L 101.462901 289.399278 
L 101.869227 289.418339 
L 102.275554 288.945871 
L 102.68188 289.566507 
L 103.088206 289.909398 
L 104.307184 290.101387 
L 104.71351 290.361166 
L 105.119836 290.465908 
L 105.526162 290.408744 
L 106.745141 290.688829 
L 107.151467 290.858128 
L 107.557793 290.891197 
L 107.964119 290.776724 
L 109.183097 290.897234 
L 109.589423 290.993034 
L 110.402075 291.035784 
L 110.808401 290.794921 
L 111.214728 290.840768 
L 111.621054 291.016438 
L 112.02738 290.766781 
L 112.433706 290.868959 
L 112.840032 291.300783 
L 113.246358 291.480008 
L 113.652684 291.468013 
L 114.465336 291.803668 
L 115.277988 291.819054 
L 116.090641 292.084147 
L 116.903293 291.90759 
L 118.528597 292.224235 
L 118.934923 292.037906 
L 119.341249 292.364005 
L 120.153901 292.220308 
L 121.37288 292.090878 
L 121.779206 292.250008 
L 122.591858 291.930404 
L 122.998184 292.273475 
L 123.40451 292.391035 
L 124.623488 292.248571 
L 125.029815 292.499399 
L 126.248793 292.689249 
L 127.061445 292.869991 
L 127.874097 292.914964 
L 129.499402 293.011795 
L 129.905728 292.728103 
L 131.124706 293.219702 
L 131.531032 293.228964 
L 132.343684 293.061001 
L 132.75001 293.223142 
L 133.562662 293.321302 
L 133.968989 293.171435 
L 134.375315 293.304384 
L 134.781641 293.073503 
L 135.594293 293.287085 
L 136.000619 293.307679 
L 136.406945 292.975291 
L 136.813271 293.37567 
L 138.032249 293.299738 
L 138.844902 293.469609 
L 139.657554 293.399378 
L 140.06388 293.564985 
L 143.314489 293.755547 
L 143.720815 293.586437 
L 144.939793 293.887716 
L 145.346119 293.663431 
L 146.158771 293.90372 
L 146.565097 293.9134 
L 146.971423 293.617069 
L 147.784076 293.981032 
L 148.190402 293.757587 
L 148.596728 293.912432 
L 149.003054 293.798471 
L 149.815706 293.998012 
L 151.034684 293.9655 
L 151.44101 294.015927 
L 152.659989 293.843981 
L 153.066315 294.017139 
L 154.285293 293.979181 
L 155.097945 293.933718 
L 155.910597 294.052275 
L 156.72325 294.002471 
L 157.942228 294.024781 
L 158.348554 293.818427 
L 158.75488 294.016584 
L 159.161206 294.075183 
L 159.567532 293.905142 
L 160.380184 293.956255 
L 160.78651 293.848544 
L 161.599163 294.005856 
L 162.411815 293.923295 
L 162.818141 293.91204 
L 163.630793 294.003496 
L 166.881402 294.069971 
L 167.694054 294.03368 
L 168.913032 294.066192 
L 178.664858 294.10531 
L 180.696489 294.320499 
L 181.509141 294.215809 
L 182.321793 294.302167 
L 182.728119 294.35956 
L 183.540771 294.05695 
L 183.947098 294.41201 
L 184.75975 294.399997 
L 185.166076 294.322539 
L 185.572402 294.443033 
L 187.197706 294.446061 
L 188.416684 294.446702 
L 190.854641 294.488929 
L 193.292598 294.462755 
L 194.10525 294.541153 
L 196.543206 294.614036 
L 198.574837 294.693066 
L 198.981163 294.591106 
L 199.387489 294.718342 
L 200.606467 294.677744 
L 202.231772 294.779487 
L 203.044424 294.799633 
L 203.45075 294.452154 
L 203.857076 294.810749 
L 205.48238 294.775406 
L 206.701359 294.812005 
L 208.732989 294.872265 
L 210.764619 294.763215 
L 211.983598 294.822904 
L 212.389924 294.725369 
L 213.202576 294.890481 
L 232.299902 294.925529 
L 232.706228 294.817773 
L 233.112554 294.901142 
L 233.925207 294.873781 
L 234.737859 294.939908 
L 237.175815 294.889211 
L 237.988467 294.916592 
L 238.80112 294.897686 
L 239.613772 294.908975 
L 243.270707 294.75836 
L 243.677033 294.940777 
L 246.114989 294.942394 
L 247.333967 294.926696 
L 247.740294 294.557421 
L 248.14662 294.913575 
L 250.990902 294.898123 
L 251.803554 294.830687 
L 252.616207 294.958731 
L 253.835185 294.903894 
L 258.711098 294.948867 
L 259.117424 294.838479 
L 261.149054 294.949361 
L 264.805989 294.983372 
L 266.431294 294.961983 
L 270.494555 294.951173 
L 337.132033 295.454839 
L 337.538359 295.376318 
L 339.163664 295.460328 
L 339.56999 295.379269 
L 341.60162 295.461947 
L 342.414272 295.4219 
L 344.445903 295.451702 
L 346.477533 295.449627 
L 358.26099 295.435574 
L 363.136903 295.43415 
L 365.574859 295.45837 
L 397.674621 295.464399 
L 398.487273 295.4814 
L 398.487273 295.4814 
" style="fill:none;stroke:#ff0000;stroke-linecap:square;stroke-width:1.5;"/>
   </g>
   <g id="line2d_20">
    <path clip-path="url(#p4a7bdd1b8f)" d="M 73.832727 53.568 
L 74.239053 181.560115 
L 74.645379 230.286097 
L 75.051706 257.173616 
L 75.458032 261.348286 
L 75.864358 269.301077 
L 76.270684 268.869014 
L 77.083336 258.007831 
L 77.489662 270.14656 
L 77.895988 257.681968 
L 78.302314 278.369692 
L 78.70864 277.96059 
L 79.114966 279.905052 
L 79.521293 279.940678 
L 79.927619 278.36615 
L 80.333945 280.390688 
L 81.146597 279.309309 
L 81.552923 281.518472 
L 81.959249 281.814578 
L 82.365575 279.190704 
L 82.771901 282.436583 
L 83.178227 284.181302 
L 83.584553 282.735941 
L 83.99088 282.702982 
L 84.397206 284.304541 
L 84.803532 285.059437 
L 85.209858 284.925623 
L 85.616184 285.017537 
L 86.02251 283.663651 
L 86.428836 280.632965 
L 86.835162 284.878968 
L 87.241488 283.592012 
L 87.647814 285.700077 
L 88.05414 281.289066 
L 88.460466 286.60328 
L 88.866793 286.340191 
L 89.273119 280.473314 
L 89.679445 283.969331 
L 90.085771 282.869499 
L 90.492097 284.572689 
L 91.304749 281.460835 
L 91.711075 285.191762 
L 92.117401 282.540334 
L 92.523727 285.59508 
L 92.930053 287.603186 
L 93.33638 281.375566 
L 93.742706 283.416071 
L 94.149032 287.556352 
L 94.555358 287.718489 
L 94.961684 288.063911 
L 95.774336 285.965084 
L 96.180662 287.985958 
L 96.586988 286.409349 
L 96.993314 289.098887 
L 97.39964 287.350437 
L 97.805967 276.510526 
L 98.212293 287.911951 
L 98.618619 272.032792 
L 99.024945 289.4648 
L 99.431271 289.447915 
L 100.243923 288.020194 
L 100.650249 289.633209 
L 101.056575 289.162377 
L 101.462901 289.777596 
L 101.869227 289.833835 
L 102.275554 287.93318 
L 102.68188 289.185266 
L 103.088206 288.33721 
L 103.494532 290.175969 
L 103.900858 286.736427 
L 104.307184 290.306524 
L 104.71351 290.766615 
L 105.119836 290.556531 
L 105.526162 290.751896 
L 105.932488 290.416492 
L 106.338814 290.807722 
L 106.745141 290.770587 
L 107.151467 290.958487 
L 107.557793 289.573806 
L 107.964119 289.284148 
L 108.370445 290.913582 
L 108.776771 290.765568 
L 109.183097 291.131055 
L 109.589423 289.829964 
L 109.995749 289.151996 
L 110.402075 290.707972 
L 110.808401 289.324605 
L 111.214728 291.266756 
L 111.621054 290.553859 
L 112.02738 290.333705 
L 112.433706 290.532361 
L 112.840032 291.678815 
L 113.246358 289.746332 
L 113.652684 286.639002 
L 114.05901 291.258995 
L 114.465336 290.676067 
L 114.871662 291.71075 
L 115.277988 291.514297 
L 115.684314 291.707369 
L 116.090641 290.177824 
L 116.496967 291.102268 
L 116.903293 290.070069 
L 117.309619 292.003244 
L 117.715945 290.52537 
L 118.122271 292.32043 
L 118.528597 292.28089 
L 118.934923 291.739418 
L 119.341249 292.050452 
L 119.747575 291.919241 
L 120.153901 291.983647 
L 120.560228 291.906035 
L 120.966554 291.190553 
L 121.37288 292.15328 
L 121.779206 292.367288 
L 122.185532 292.168486 
L 122.591858 292.478697 
L 122.998184 291.60383 
L 123.810836 292.56621 
L 124.217162 291.352215 
L 124.623488 292.473867 
L 125.029815 291.794577 
L 125.436141 292.592149 
L 125.842467 291.826593 
L 126.248793 292.391888 
L 127.061445 292.427831 
L 127.874097 292.860257 
L 128.280423 292.882664 
L 128.686749 293.169268 
L 129.093075 292.786317 
L 129.499402 292.807194 
L 129.905728 292.261859 
L 130.312054 292.696408 
L 131.124706 293.136858 
L 131.531032 292.900907 
L 131.937358 293.333618 
L 132.75001 292.787675 
L 133.156336 293.327915 
L 133.562662 292.859351 
L 133.968989 293.290593 
L 134.781641 293.316918 
L 135.187967 292.173861 
L 135.594293 293.011789 
L 136.000619 290.378765 
L 136.406945 293.346734 
L 136.813271 293.436392 
L 137.219597 292.905084 
L 137.625923 293.277758 
L 138.032249 291.575767 
L 138.438575 293.465119 
L 138.844902 293.237566 
L 139.251228 293.269491 
L 139.657554 292.006301 
L 140.06388 293.474864 
L 140.470206 293.603948 
L 140.876532 293.274037 
L 141.282858 293.353039 
L 141.689184 293.624958 
L 142.09551 292.972126 
L 142.501836 293.716211 
L 142.908162 293.605019 
L 143.314489 293.689969 
L 143.720815 292.194215 
L 144.127141 293.828354 
L 144.533467 293.599204 
L 144.939793 293.214498 
L 145.346119 293.853416 
L 145.752445 292.557659 
L 146.565097 293.653653 
L 146.971423 293.617954 
L 147.377749 293.312761 
L 147.784076 293.789435 
L 148.190402 293.887608 
L 148.596728 293.575564 
L 149.003054 292.573901 
L 149.815706 294.006395 
L 150.222032 290.702201 
L 150.628358 293.99745 
L 151.034684 293.055272 
L 151.44101 293.930176 
L 151.847336 293.377742 
L 152.253663 293.982273 
L 152.659989 294.066062 
L 153.066315 293.780423 
L 153.472641 293.955749 
L 153.878967 293.947505 
L 154.285293 292.872632 
L 154.691619 293.531747 
L 155.097945 293.401119 
L 155.910597 293.713408 
L 156.316923 293.616646 
L 157.129576 293.584379 
L 157.535902 293.088537 
L 157.942228 293.210779 
L 158.348554 293.661454 
L 159.161206 294.00733 
L 159.567532 293.658591 
L 159.973858 294.110647 
L 160.380184 293.293419 
L 160.78651 294.054974 
L 161.192837 292.950678 
L 161.599163 294.071149 
L 162.005489 293.760511 
L 162.411815 293.617183 
L 162.818141 293.665102 
L 163.224467 293.892592 
L 163.630793 292.414536 
L 164.037119 293.839034 
L 164.443445 293.44855 
L 164.849771 293.741282 
L 165.256097 293.69355 
L 165.662423 293.958044 
L 166.06875 293.711884 
L 166.475076 294.009314 
L 166.881402 293.967186 
L 167.287728 294.131301 
L 167.694054 293.226021 
L 168.10038 293.929265 
L 168.913032 293.484221 
L 169.319358 293.78399 
L 169.725684 293.932397 
L 170.13201 293.320229 
L 170.538337 293.97364 
L 170.944663 293.888392 
L 171.350989 292.543836 
L 171.757315 294.094684 
L 172.163641 293.947685 
L 172.569967 293.643146 
L 172.976293 293.010221 
L 173.382619 293.865347 
L 173.788945 293.90141 
L 174.195271 293.581363 
L 174.601597 294.064808 
L 175.41425 293.801497 
L 175.820576 294.058396 
L 176.226902 293.766859 
L 176.633228 293.731285 
L 177.039554 293.539521 
L 177.44588 293.543671 
L 177.852206 293.825933 
L 178.258532 292.337873 
L 178.664858 293.725523 
L 179.071184 293.259915 
L 179.477511 293.61513 
L 179.883837 293.239152 
L 180.290163 294.156034 
L 180.696489 292.913058 
L 181.102815 294.021905 
L 181.509141 294.250159 
L 181.915467 290.460695 
L 182.321793 294.279607 
L 182.728119 293.916625 
L 183.134445 293.374462 
L 183.540771 293.907056 
L 183.947098 293.944573 
L 184.353424 293.413148 
L 184.75975 294.24206 
L 185.572402 293.840118 
L 185.978728 294.233017 
L 186.79138 294.273597 
L 187.197706 294.313706 
L 187.604032 293.655001 
L 188.010358 294.399434 
L 188.416684 294.212723 
L 188.823011 294.417854 
L 189.229337 292.618995 
L 189.635663 293.887092 
L 190.448315 294.391046 
L 190.854641 293.241089 
L 191.260967 294.226033 
L 191.667293 293.999084 
L 192.073619 294.403819 
L 192.479945 293.728903 
L 192.886271 294.211655 
L 193.292598 293.992348 
L 193.698924 294.362855 
L 194.10525 294.206358 
L 194.511576 294.43206 
L 194.917902 294.510745 
L 195.324228 294.390123 
L 195.730554 294.555989 
L 196.13688 294.071004 
L 196.543206 294.465953 
L 196.949532 294.464519 
L 197.355858 294.299156 
L 197.762185 294.665482 
L 198.168511 293.65164 
L 198.574837 294.75383 
L 198.981163 294.560547 
L 199.387489 294.582562 
L 199.793815 294.474871 
L 200.200141 293.410419 
L 200.606467 293.594737 
L 201.012793 294.484826 
L 201.419119 294.24671 
L 201.825445 294.745808 
L 202.231772 294.72156 
L 203.044424 294.198437 
L 203.45075 294.535549 
L 203.857076 294.09425 
L 204.263402 294.679618 
L 204.669728 294.162958 
L 205.076054 294.730966 
L 205.48238 294.523918 
L 205.888706 294.694878 
L 206.295032 291.62684 
L 206.701359 294.311765 
L 207.107685 294.306893 
L 207.514011 293.45311 
L 207.920337 294.408151 
L 208.326663 294.737439 
L 208.732989 294.794333 
L 209.139315 294.473872 
L 209.545641 294.430084 
L 209.951967 294.601467 
L 210.358293 294.43707 
L 211.577272 294.476841 
L 211.983598 294.711081 
L 212.389924 294.765667 
L 212.79625 293.552226 
L 213.202576 294.493788 
L 213.608902 294.856897 
L 214.421554 294.764053 
L 214.82788 294.794946 
L 215.640532 294.467111 
L 216.046859 293.663623 
L 216.453185 294.392836 
L 216.859511 294.671509 
L 217.265837 294.815216 
L 218.078489 294.716704 
L 218.484815 294.04087 
L 218.891141 294.506901 
L 219.703793 294.799754 
L 220.110119 294.730057 
L 220.516446 293.5669 
L 220.922772 294.747688 
L 221.329098 294.757112 
L 221.735424 294.89973 
L 222.14175 294.130119 
L 222.548076 294.742607 
L 222.954402 294.715404 
L 223.360728 294.530233 
L 223.767054 294.897066 
L 224.17338 294.720813 
L 224.579706 294.814688 
L 224.986033 294.619656 
L 225.798685 294.879642 
L 226.205011 294.444212 
L 226.611337 294.765855 
L 227.017663 294.585114 
L 227.423989 294.269443 
L 227.830315 293.563563 
L 228.236641 294.763964 
L 228.642967 294.820975 
L 229.049293 294.471816 
L 229.861946 294.750156 
L 230.268272 293.187985 
L 230.674598 294.547651 
L 231.080924 294.781064 
L 231.48725 294.734166 
L 231.893576 294.418642 
L 232.706228 294.864491 
L 233.112554 294.643579 
L 233.51888 294.155081 
L 233.925207 294.788975 
L 234.331533 294.321012 
L 234.737859 294.759074 
L 235.144185 294.609181 
L 235.956837 294.788407 
L 236.363163 294.599887 
L 236.769489 294.927472 
L 237.582141 294.568257 
L 237.988467 294.795501 
L 238.394793 293.727557 
L 238.80112 294.474489 
L 239.207446 294.862929 
L 239.613772 294.80944 
L 240.020098 294.623078 
L 240.426424 294.838304 
L 240.83275 294.341073 
L 241.239076 294.736036 
L 241.645402 294.788169 
L 242.051728 294.535169 
L 242.458054 294.531838 
L 242.86438 294.755458 
L 243.270707 294.571439 
L 243.677033 294.755472 
L 244.083359 294.641479 
L 244.896011 294.741786 
L 245.302337 294.622983 
L 245.708663 294.335528 
L 246.521315 294.794907 
L 246.927641 294.641492 
L 247.333967 294.003995 
L 247.740294 294.082384 
L 248.14662 294.607657 
L 248.552946 294.718321 
L 248.959272 294.563276 
L 249.365598 294.668528 
L 249.771924 294.09788 
L 250.17825 294.311231 
L 250.584576 294.932189 
L 250.990902 294.797758 
L 251.397228 292.020623 
L 251.803554 294.787199 
L 252.209881 294.74046 
L 252.616207 294.843149 
L 253.022533 294.635194 
L 253.428859 294.834341 
L 257.49212 294.689782 
L 257.898446 294.62928 
L 258.304772 294.813855 
L 258.711098 294.650542 
L 259.117424 294.927179 
L 259.52375 294.345644 
L 259.930076 294.776472 
L 260.742728 294.602894 
L 261.149054 294.760701 
L 261.555381 294.605066 
L 261.961707 294.690192 
L 262.368033 294.644334 
L 262.774359 294.789768 
L 263.180685 294.704937 
L 263.587011 294.856715 
L 265.618641 294.595079 
L 266.024968 294.622462 
L 266.431294 294.763647 
L 267.650272 294.718604 
L 268.056598 294.940258 
L 268.462924 294.184686 
L 268.86925 294.776732 
L 269.681902 294.943704 
L 270.088228 294.486686 
L 270.494555 294.81335 
L 270.900881 294.739755 
L 271.713533 294.821699 
L 272.119859 294.590153 
L 272.932511 294.906206 
L 273.338837 294.649179 
L 274.151489 294.723169 
L 274.557815 294.600857 
L 274.964142 294.769243 
L 275.370468 294.650747 
L 276.589446 294.805172 
L 276.995772 294.942563 
L 277.402098 294.578202 
L 277.808424 294.906921 
L 278.21475 294.92647 
L 278.621076 294.665005 
L 279.027402 294.628362 
L 279.433729 294.841891 
L 279.840055 294.891082 
L 280.246381 294.332942 
L 280.652707 294.700557 
L 281.059033 294.882802 
L 282.278011 294.91042 
L 282.684337 294.585694 
L 283.090663 294.84984 
L 283.496989 294.589005 
L 283.903316 294.948913 
L 284.309642 294.921749 
L 284.715968 295.012905 
L 285.52862 294.984643 
L 285.934946 295.053006 
L 286.341272 294.044915 
L 286.747598 294.743985 
L 287.153924 295.031885 
L 287.966576 294.850847 
L 288.779229 295.012593 
L 289.185555 294.912477 
L 289.591881 295.039979 
L 289.998207 294.926198 
L 290.404533 295.050558 
L 290.810859 294.743097 
L 291.217185 294.766014 
L 291.623511 295.164623 
L 292.029837 294.907588 
L 293.248816 295.06435 
L 294.061468 294.94962 
L 294.467794 295.036587 
L 295.280446 294.83853 
L 295.686772 294.757641 
L 296.093098 295.089963 
L 296.499424 295.151721 
L 296.90575 295.091485 
L 297.312076 295.15915 
L 297.718403 295.00513 
L 298.124729 295.154759 
L 298.531055 294.829149 
L 298.937381 295.15146 
L 299.343707 294.904473 
L 299.750033 294.287203 
L 300.156359 294.985532 
L 300.562685 295.102209 
L 302.594316 294.960682 
L 303.000642 295.158109 
L 303.406968 295.064196 
L 303.813294 295.27911 
L 304.21962 295.067877 
L 305.844924 295.119284 
L 306.25125 294.74645 
L 306.657577 295.090061 
L 307.063903 294.901184 
L 307.470229 295.0028 
L 308.282881 295.001244 
L 308.689207 295.163836 
L 310.314511 295.15996 
L 311.127163 294.821885 
L 311.53349 295.034423 
L 311.939816 294.686335 
L 312.752468 295.159409 
L 313.56512 295.105476 
L 313.971446 294.186693 
L 314.377772 295.016736 
L 315.59675 295.307378 
L 316.003077 295.002907 
L 316.815729 295.161898 
L 317.222055 294.87914 
L 318.034707 295.197207 
L 318.441033 294.628435 
L 318.847359 295.194827 
L 319.253685 294.620619 
L 319.660011 295.024669 
L 320.066337 294.916576 
L 320.472664 294.630362 
L 320.87899 295.207631 
L 321.285316 295.160607 
L 321.691642 295.270669 
L 322.91062 295.096547 
L 323.316946 295.246219 
L 323.723272 294.896805 
L 324.129598 295.14945 
L 324.535924 294.784452 
L 324.942251 294.811476 
L 325.754903 295.405085 
L 326.161229 295.134431 
L 326.973881 295.18198 
L 327.380207 294.836938 
L 328.599185 295.277194 
L 329.411838 295.234573 
L 329.818164 295.007482 
L 330.630816 295.330993 
L 331.037142 295.18476 
L 331.849794 295.269053 
L 332.25612 295.221524 
L 333.068772 295.285933 
L 333.881425 295.141599 
L 334.694077 295.242798 
L 335.100403 295.15265 
L 335.506729 295.369087 
L 337.538359 295.165363 
L 337.944685 295.265794 
L 338.351011 295.140847 
L 338.757338 295.368936 
L 340.382642 295.185212 
L 340.788968 295.153831 
L 341.195294 295.358027 
L 342.007946 295.015578 
L 342.414272 295.271998 
L 343.226925 295.155494 
L 344.039577 295.222729 
L 344.445903 295.375218 
L 345.664881 295.208227 
L 346.071207 295.338106 
L 347.696512 295.17141 
L 348.102838 295.369221 
L 348.509164 295.22832 
L 348.91549 295.246207 
L 349.321816 294.889655 
L 349.728142 295.269122 
L 350.134468 295.008992 
L 350.94712 295.326606 
L 351.353446 295.35672 
L 351.759772 295.195524 
L 352.166099 295.234809 
L 352.572425 295.06532 
L 352.978751 295.236516 
L 354.197729 295.164358 
L 356.229359 295.243275 
L 356.635686 294.834071 
L 357.042012 295.38765 
L 357.854664 294.966683 
L 358.26099 295.021469 
L 358.667316 295.380658 
L 359.886294 294.997565 
L 360.29262 295.275026 
L 360.698946 295.375355 
L 361.105272 295.323034 
L 361.511599 295.07514 
L 361.917925 295.366654 
L 362.324251 295.426377 
L 362.730577 295.068574 
L 363.136903 295.104735 
L 363.949555 295.413324 
L 364.355881 295.272555 
L 364.762207 295.449641 
L 365.574859 295.13502 
L 365.981186 295.297619 
L 366.387512 295.218531 
L 366.793838 294.924733 
L 367.200164 295.271 
L 368.012816 294.812735 
L 368.419142 295.120973 
L 368.825468 294.495094 
L 369.231794 295.440661 
L 369.63812 295.083881 
L 370.450773 295.429764 
L 370.857099 295.247513 
L 371.263425 295.321057 
L 371.669751 294.772031 
L 372.076077 295.286427 
L 372.482403 295.372569 
L 372.888729 295.105939 
L 374.107707 295.255352 
L 374.514033 294.99721 
L 374.92036 295.265293 
L 375.326686 294.943147 
L 375.733012 295.326564 
L 376.139338 295.150363 
L 376.545664 295.287615 
L 376.95199 295.193659 
L 377.358316 295.394441 
L 378.170968 295.225512 
L 378.98362 295.416519 
L 379.389947 295.110264 
L 379.796273 291.957649 
L 380.202599 295.231203 
L 380.608925 295.085169 
L 381.015251 295.321582 
L 381.421577 295.317718 
L 381.827903 295.144191 
L 382.234229 295.242388 
L 382.640555 295.047365 
L 383.046881 294.267574 
L 383.453207 295.038823 
L 383.859534 295.351691 
L 384.26586 295.179787 
L 385.484838 295.255549 
L 386.29749 294.980666 
L 386.703816 295.371181 
L 387.110142 295.196684 
L 387.516468 295.367252 
L 388.735447 294.938897 
L 389.141773 295.202358 
L 389.954425 295.272694 
L 391.173403 295.279628 
L 391.579729 295.115586 
L 391.986055 294.749869 
L 392.392381 295.313688 
L 392.798707 295.067323 
L 393.205034 295.252745 
L 394.017686 295.225799 
L 394.424012 294.975111 
L 394.830338 295.275897 
L 395.64299 295.044169 
L 396.049316 295.253682 
L 396.455642 295.202425 
L 396.861968 295.440575 
L 397.674621 295.188861 
L 398.080947 295.393936 
L 398.487273 294.993228 
L 398.487273 294.993228 
" style="fill:none;stroke:#008000;stroke-linecap:square;stroke-width:1.5;"/>
   </g>
   <g id="patch_3">
    <path d="M 57.6 307.584 
L 57.6 41.472 
" style="fill:none;stroke:#000000;stroke-linecap:square;stroke-linejoin:miter;stroke-width:0.8;"/>
   </g>
   <g id="patch_4">
    <path d="M 414.72 307.584 
L 414.72 41.472 
" style="fill:none;stroke:#000000;stroke-linecap:square;stroke-linejoin:miter;stroke-width:0.8;"/>
   </g>
   <g id="patch_5">
    <path d="M 57.6 307.584 
L 414.72 307.584 
" style="fill:none;stroke:#000000;stroke-linecap:square;stroke-linejoin:miter;stroke-width:0.8;"/>
   </g>
   <g id="patch_6">
    <path d="M 57.6 41.472 
L 414.72 41.472 
" style="fill:none;stroke:#000000;stroke-linecap:square;stroke-linejoin:miter;stroke-width:0.8;"/>
   </g>
   <g id="text_21">
    <!-- loss val_loss -->
    <g transform="translate(199.179375 35.472)scale(0.12 -0.12)">
     <defs>
      <path id="DejaVuSans-32"/>
      <path d="M 2.984375 54.6875 
L 12.5 54.6875 
L 29.59375 8.796875 
L 46.6875 54.6875 
L 56.203125 54.6875 
L 35.6875 0 
L 23.484375 0 
z
" id="DejaVuSans-118"/>
      <path d="M 34.28125 27.484375 
Q 23.390625 27.484375 19.1875 25 
Q 14.984375 22.515625 14.984375 16.5 
Q 14.984375 11.71875 18.140625 8.90625 
Q 21.296875 6.109375 26.703125 6.109375 
Q 34.1875 6.109375 38.703125 11.40625 
Q 43.21875 16.703125 43.21875 25.484375 
L 43.21875 27.484375 
z
M 52.203125 31.203125 
L 52.203125 0 
L 43.21875 0 
L 43.21875 8.296875 
Q 40.140625 3.328125 35.546875 0.953125 
Q 30.953125 -1.421875 24.3125 -1.421875 
Q 15.921875 -1.421875 10.953125 3.296875 
Q 6 8.015625 6 15.921875 
Q 6 25.140625 12.171875 29.828125 
Q 18.359375 34.515625 30.609375 34.515625 
L 43.21875 34.515625 
L 43.21875 35.40625 
Q 43.21875 41.609375 39.140625 45 
Q 35.0625 48.390625 27.6875 48.390625 
Q 23 48.390625 18.546875 47.265625 
Q 14.109375 46.140625 10.015625 43.890625 
L 10.015625 52.203125 
Q 14.9375 54.109375 19.578125 55.046875 
Q 24.21875 56 28.609375 56 
Q 40.484375 56 46.34375 49.84375 
Q 52.203125 43.703125 52.203125 31.203125 
z
" id="DejaVuSans-97"/>
      <path d="M 50.984375 -16.609375 
L 50.984375 -23.578125 
L -0.984375 -23.578125 
L -0.984375 -16.609375 
z
" id="DejaVuSans-95"/>
     </defs>
     <use xlink:href="#DejaVuSans-108"/>
     <use x="27.783203" xlink:href="#DejaVuSans-111"/>
     <use x="88.964844" xlink:href="#DejaVuSans-115"/>
     <use x="141.064453" xlink:href="#DejaVuSans-115"/>
     <use x="193.164062" xlink:href="#DejaVuSans-32"/>
     <use x="224.951172" xlink:href="#DejaVuSans-118"/>
     <use x="284.130859" xlink:href="#DejaVuSans-97"/>
     <use x="345.410156" xlink:href="#DejaVuSans-108"/>
     <use x="373.193359" xlink:href="#DejaVuSans-95"/>
     <use x="423.193359" xlink:href="#DejaVuSans-108"/>
     <use x="450.976562" xlink:href="#DejaVuSans-111"/>
     <use x="512.158203" xlink:href="#DejaVuSans-115"/>
     <use x="564.257812" xlink:href="#DejaVuSans-115"/>
    </g>
   </g>
   <g id="legend_1">
    <g id="patch_7">
     <path d="M 64.6 54.472 
L 68.6 54.472 
Q 70.6 54.472 70.6 52.472 
L 70.6 48.472 
Q 70.6 46.472 68.6 46.472 
L 64.6 46.472 
Q 62.6 46.472 62.6 48.472 
L 62.6 52.472 
Q 62.6 54.472 64.6 54.472 
z
" style="fill:#ffffff;opacity:0.8;stroke:#cccccc;stroke-linejoin:miter;"/>
    </g>
   </g>
  </g>
 </g>
 <defs>
  <clipPath id="p4a7bdd1b8f">
   <rect height="266.112" width="357.12" x="57.6" y="41.472"/>
  </clipPath>
 </defs>
</svg>
