<?xml version="1.0" encoding="utf-8" standalone="no"?>
<!DOCTYPE svg PUBLIC "-//W3C//DTD SVG 1.1//EN"
  "http://www.w3.org/Graphics/SVG/1.1/DTD/svg11.dtd">
<!-- Created with matplotlib (https://matplotlib.org/) -->
<svg height="288pt" version="1.1" viewBox="0 0 432 288" width="432pt" xmlns="http://www.w3.org/2000/svg" xmlns:xlink="http://www.w3.org/1999/xlink">
 <metadata>
  <rdf:RDF xmlns:cc="http://creativecommons.org/ns#" xmlns:dc="http://purl.org/dc/elements/1.1/" xmlns:rdf="http://www.w3.org/1999/02/22-rdf-syntax-ns#">
   <cc:Work>
    <dc:type rdf:resource="http://purl.org/dc/dcmitype/StillImage"/>
    <dc:date>2022-04-26T23:22:57.604125</dc:date>
    <dc:format>image/svg+xml</dc:format>
    <dc:creator>
     <cc:Agent>
      <dc:title>Matplotlib v3.3.4, https://matplotlib.org/</dc:title>
     </cc:Agent>
    </dc:creator>
   </cc:Work>
  </rdf:RDF>
 </metadata>
 <defs>
  <style type="text/css">*{stroke-linecap:butt;stroke-linejoin:round;}</style>
 </defs>
 <g id="figure_1">
  <g id="patch_1">
   <path d="M 0 288 
L 432 288 
L 432 0 
L 0 0 
z
" style="fill:#ffffff;"/>
  </g>
  <g id="axes_1">
   <g id="patch_2">
    <path d="M 54 252 
L 388.8 252 
L 388.8 34.56 
L 54 34.56 
z
" style="fill:#ffffff;"/>
   </g>
   <g id="PolyCollection_1">
    <defs>
     <path d="M 80.141463 -45.883636 
L 79.938537 -45.883636 
L 79.923912 -47.855203 
L 79.90692 -49.826769 
L 79.884255 -51.798336 
L 79.852273 -53.769902 
L 79.807962 -55.741469 
L 79.749798 -57.713035 
L 79.67822 -59.684602 
L 79.595658 -61.656168 
L 79.506175 -63.627735 
L 79.414829 -65.599301 
L 79.326839 -67.570868 
L 79.246567 -69.542434 
L 79.17634 -71.514001 
L 79.115304 -73.485567 
L 79.058656 -75.457134 
L 78.997681 -77.4287 
L 78.920847 -79.400267 
L 78.815834 -81.371833 
L 78.671951 -83.3434 
L 78.482237 -85.314966 
L 78.244688 -87.286533 
L 77.962459 -89.258099 
L 77.643239 -91.229666 
L 77.298068 -93.201232 
L 76.939739 -95.172799 
L 76.58074 -97.144365 
L 76.23086 -99.115932 
L 75.894957 -101.087498 
L 75.571721 -103.059064 
L 75.254154 -105.030631 
L 74.93184 -107.002197 
L 74.59418 -108.973764 
L 74.233345 -110.94533 
L 73.845905 -112.916897 
L 73.432915 -114.888463 
L 72.998965 -116.86003 
L 72.550946 -118.831596 
L 72.096956 -120.803163 
L 71.64526 -122.774729 
L 71.203073 -124.746296 
L 70.775215 -126.717862 
L 70.363199 -128.689429 
L 69.965493 -130.660995 
L 69.579243 -132.632562 
L 69.202858 -134.604128 
L 68.838182 -136.575695 
L 68.491001 -138.547261 
L 68.169609 -140.518828 
L 67.882326 -142.490394 
L 67.635545 -144.461961 
L 67.43339 -146.433527 
L 67.278803 -148.405094 
L 67.174639 -150.37666 
L 67.123143 -152.348227 
L 67.123165 -154.319793 
L 67.166191 -156.29136 
L 67.233487 -158.262926 
L 67.296668 -160.234493 
L 67.322573 -162.206059 
L 67.281333 -164.177626 
L 67.154843 -166.149192 
L 66.942519 -168.120759 
L 66.66211 -170.092325 
L 66.345143 -172.063892 
L 66.028533 -174.035458 
L 65.745206 -176.007024 
L 65.51687 -177.978591 
L 65.35118 -179.950157 
L 65.243783 -181.921724 
L 65.183784 -183.89329 
L 65.16 -185.864857 
L 65.165423 -187.836423 
L 65.198586 -189.80799 
L 65.262253 -191.779556 
L 65.361089 -193.751123 
L 65.500041 -195.722689 
L 65.684208 -197.694256 
L 65.919617 -199.665822 
L 66.213557 -201.637389 
L 66.573374 -203.608955 
L 67.003777 -205.580522 
L 67.503962 -207.552088 
L 68.066325 -209.523655 
L 68.67792 -211.495221 
L 69.324286 -213.466788 
L 69.993965 -215.438354 
L 70.681574 -217.409921 
L 71.388096 -219.381487 
L 72.118436 -221.353054 
L 72.877413 -223.32462 
L 73.665744 -225.296187 
L 74.477201 -227.267753 
L 75.297547 -229.23932 
L 76.105421 -231.210886 
L 76.875007 -233.182453 
L 77.580048 -235.154019 
L 78.198318 -237.125586 
L 78.715399 -239.097152 
L 79.126724 -241.068719 
L 80.953276 -241.068719 
L 80.953276 -241.068719 
L 81.364601 -239.097152 
L 81.881682 -237.125586 
L 82.499952 -235.154019 
L 83.204993 -233.182453 
L 83.974579 -231.210886 
L 84.782453 -229.23932 
L 85.602799 -227.267753 
L 86.414256 -225.296187 
L 87.202587 -223.32462 
L 87.961564 -221.353054 
L 88.691904 -219.381487 
L 89.398426 -217.409921 
L 90.086035 -215.438354 
L 90.755714 -213.466788 
L 91.40208 -211.495221 
L 92.013675 -209.523655 
L 92.576038 -207.552088 
L 93.076223 -205.580522 
L 93.506626 -203.608955 
L 93.866443 -201.637389 
L 94.160383 -199.665822 
L 94.395792 -197.694256 
L 94.579959 -195.722689 
L 94.718911 -193.751123 
L 94.817747 -191.779556 
L 94.881414 -189.80799 
L 94.914577 -187.836423 
L 94.92 -185.864857 
L 94.896216 -183.89329 
L 94.836217 -181.921724 
L 94.72882 -179.950157 
L 94.56313 -177.978591 
L 94.334794 -176.007024 
L 94.051467 -174.035458 
L 93.734857 -172.063892 
L 93.41789 -170.092325 
L 93.137481 -168.120759 
L 92.925157 -166.149192 
L 92.798667 -164.177626 
L 92.757427 -162.206059 
L 92.783332 -160.234493 
L 92.846513 -158.262926 
L 92.913809 -156.29136 
L 92.956835 -154.319793 
L 92.956857 -152.348227 
L 92.905361 -150.37666 
L 92.801197 -148.405094 
L 92.64661 -146.433527 
L 92.444455 -144.461961 
L 92.197674 -142.490394 
L 91.910391 -140.518828 
L 91.588999 -138.547261 
L 91.241818 -136.575695 
L 90.877142 -134.604128 
L 90.500757 -132.632562 
L 90.114507 -130.660995 
L 89.716801 -128.689429 
L 89.304785 -126.717862 
L 88.876927 -124.746296 
L 88.43474 -122.774729 
L 87.983044 -120.803163 
L 87.529054 -118.831596 
L 87.081035 -116.86003 
L 86.647085 -114.888463 
L 86.234095 -112.916897 
L 85.846655 -110.94533 
L 85.48582 -108.973764 
L 85.14816 -107.002197 
L 84.825846 -105.030631 
L 84.508279 -103.059064 
L 84.185043 -101.087498 
L 83.84914 -99.115932 
L 83.49926 -97.144365 
L 83.140261 -95.172799 
L 82.781932 -93.201232 
L 82.436761 -91.229666 
L 82.117541 -89.258099 
L 81.835312 -87.286533 
L 81.597763 -85.314966 
L 81.408049 -83.3434 
L 81.264166 -81.371833 
L 81.159153 -79.400267 
L 81.082319 -77.4287 
L 81.021344 -75.457134 
L 80.964696 -73.485567 
L 80.90366 -71.514001 
L 80.833433 -69.542434 
L 80.753161 -67.570868 
L 80.665171 -65.599301 
L 80.573825 -63.627735 
L 80.484342 -61.656168 
L 80.40178 -59.684602 
L 80.330202 -57.713035 
L 80.272038 -55.741469 
L 80.227727 -53.769902 
L 80.195745 -51.798336 
L 80.17308 -49.826769 
L 80.156088 -47.855203 
L 80.141463 -45.883636 
z
" id="m34c6dddaad" style="stroke:#3d3d3d;stroke-width:1.5;"/>
    </defs>
    <g clip-path="url(#pa318985085)">
     <use style="fill:#3274a1;stroke:#3d3d3d;stroke-width:1.5;" x="0" xlink:href="#m34c6dddaad" y="288"/>
    </g>
   </g>
   <g id="PolyCollection_2">
    <defs>
     <path d="M 221.575719 -48.507531 
L 221.224281 -48.507531 
L 221.204788 -50.477721 
L 221.187283 -52.447911 
L 221.170798 -54.418101 
L 221.153397 -56.388292 
L 221.132276 -58.358482 
L 221.104015 -60.328672 
L 221.064898 -62.298862 
L 221.011214 -64.269053 
L 220.9395 -66.239243 
L 220.846663 -68.209433 
L 220.730038 -70.179623 
L 220.587426 -72.149813 
L 220.417205 -74.120004 
L 220.21854 -76.090194 
L 219.991687 -78.060384 
L 219.73827 -80.030574 
L 219.461435 -82.000765 
L 219.165731 -83.970955 
L 218.856699 -85.941145 
L 218.540208 -87.911335 
L 218.221674 -89.881526 
L 217.90536 -91.851716 
L 217.59391 -93.821906 
L 217.28822 -95.792096 
L 216.98763 -97.762286 
L 216.690337 -99.732477 
L 216.393889 -101.702667 
L 216.095611 -103.672857 
L 215.792884 -105.643047 
L 215.483274 -107.613238 
L 215.164576 -109.583428 
L 214.834856 -111.553618 
L 214.492577 -113.523808 
L 214.136792 -115.493999 
L 213.767356 -117.464189 
L 213.385062 -119.434379 
L 212.991635 -121.404569 
L 212.58962 -123.374759 
L 212.182258 -125.34495 
L 211.773497 -127.31514 
L 211.368165 -129.28533 
L 210.972221 -131.25552 
L 210.592841 -133.225711 
L 210.238034 -135.195901 
L 209.915631 -137.166091 
L 209.631748 -139.136281 
L 209.389087 -141.106472 
L 209.185649 -143.076662 
L 209.014373 -145.046852 
L 208.863972 -147.017042 
L 208.720853 -148.987233 
L 208.571685 -150.957423 
L 208.405948 -152.927613 
L 208.217877 -154.897803 
L 208.007385 -156.867993 
L 207.779867 -158.838184 
L 207.54503 -160.808374 
L 207.315051 -162.778564 
L 207.102443 -164.748754 
L 206.917961 -166.718945 
L 206.768897 -168.689135 
L 206.658067 -170.659325 
L 206.583732 -172.629515 
L 206.540562 -174.599706 
L 206.521484 -176.569896 
L 206.52 -178.540086 
L 206.532295 -180.510276 
L 206.558483 -182.480466 
L 206.602511 -184.450657 
L 206.67068 -186.420847 
L 206.769216 -188.391037 
L 206.901677 -190.361227 
L 207.067083 -192.331418 
L 207.2595 -194.301608 
L 207.469308 -196.271798 
L 207.68594 -198.241988 
L 207.901332 -200.212179 
L 208.11317 -202.182369 
L 208.32699 -204.152559 
L 208.556536 -206.122749 
L 208.822189 -208.092939 
L 209.147776 -210.06313 
L 209.556426 -212.03332 
L 210.066318 -214.00351 
L 210.687171 -215.9737 
L 211.418109 -217.943891 
L 212.247248 -219.914081 
L 213.152952 -221.884271 
L 214.106433 -223.854461 
L 215.07513 -225.824652 
L 216.026248 -227.794842 
L 216.929922 -229.765032 
L 217.761633 -231.735222 
L 218.503703 -233.705412 
L 219.145858 -235.675603 
L 219.68498 -237.645793 
L 220.1242 -239.615983 
L 220.471547 -241.586173 
L 220.738353 -243.556364 
L 222.061647 -243.556364 
L 222.061647 -243.556364 
L 222.328453 -241.586173 
L 222.6758 -239.615983 
L 223.11502 -237.645793 
L 223.654142 -235.675603 
L 224.296297 -233.705412 
L 225.038367 -231.735222 
L 225.870078 -229.765032 
L 226.773752 -227.794842 
L 227.72487 -225.824652 
L 228.693567 -223.854461 
L 229.647048 -221.884271 
L 230.552752 -219.914081 
L 231.381891 -217.943891 
L 232.112829 -215.9737 
L 232.733682 -214.00351 
L 233.243574 -212.03332 
L 233.652224 -210.06313 
L 233.977811 -208.092939 
L 234.243464 -206.122749 
L 234.47301 -204.152559 
L 234.68683 -202.182369 
L 234.898668 -200.212179 
L 235.11406 -198.241988 
L 235.330692 -196.271798 
L 235.5405 -194.301608 
L 235.732917 -192.331418 
L 235.898323 -190.361227 
L 236.030784 -188.391037 
L 236.12932 -186.420847 
L 236.197489 -184.450657 
L 236.241517 -182.480466 
L 236.267705 -180.510276 
L 236.28 -178.540086 
L 236.278516 -176.569896 
L 236.259438 -174.599706 
L 236.216268 -172.629515 
L 236.141933 -170.659325 
L 236.031103 -168.689135 
L 235.882039 -166.718945 
L 235.697557 -164.748754 
L 235.484949 -162.778564 
L 235.25497 -160.808374 
L 235.020133 -158.838184 
L 234.792615 -156.867993 
L 234.582123 -154.897803 
L 234.394052 -152.927613 
L 234.228315 -150.957423 
L 234.079147 -148.987233 
L 233.936028 -147.017042 
L 233.785627 -145.046852 
L 233.614351 -143.076662 
L 233.410913 -141.106472 
L 233.168252 -139.136281 
L 232.884369 -137.166091 
L 232.561966 -135.195901 
L 232.207159 -133.225711 
L 231.827779 -131.25552 
L 231.431835 -129.28533 
L 231.026503 -127.31514 
L 230.617742 -125.34495 
L 230.21038 -123.374759 
L 229.808365 -121.404569 
L 229.414938 -119.434379 
L 229.032644 -117.464189 
L 228.663208 -115.493999 
L 228.307423 -113.523808 
L 227.965144 -111.553618 
L 227.635424 -109.583428 
L 227.316726 -107.613238 
L 227.007116 -105.643047 
L 226.704389 -103.672857 
L 226.406111 -101.702667 
L 226.109663 -99.732477 
L 225.81237 -97.762286 
L 225.51178 -95.792096 
L 225.20609 -93.821906 
L 224.89464 -91.851716 
L 224.578326 -89.881526 
L 224.259792 -87.911335 
L 223.943301 -85.941145 
L 223.634269 -83.970955 
L 223.338565 -82.000765 
L 223.06173 -80.030574 
L 222.808313 -78.060384 
L 222.58146 -76.090194 
L 222.382795 -74.120004 
L 222.212574 -72.149813 
L 222.069962 -70.179623 
L 221.953337 -68.209433 
L 221.8605 -66.239243 
L 221.788786 -64.269053 
L 221.735102 -62.298862 
L 221.695985 -60.328672 
L 221.667724 -58.358482 
L 221.646603 -56.388292 
L 221.629202 -54.418101 
L 221.612717 -52.447911 
L 221.595212 -50.477721 
L 221.575719 -48.507531 
z
" id="m4fb41a04ad" style="stroke:#3d3d3d;stroke-width:1.5;"/>
    </defs>
    <g clip-path="url(#pa318985085)">
     <use style="fill:#e1812c;stroke:#3d3d3d;stroke-width:1.5;" x="0" xlink:href="#m4fb41a04ad" y="288"/>
    </g>
   </g>
   <g id="PolyCollection_3">
    <defs>
     <path d="M 362.873387 -52.435079 
L 362.646613 -52.435079 
L 362.625014 -54.315938 
L 362.597766 -56.196796 
L 362.562858 -58.077655 
L 362.518272 -59.958514 
L 362.46222 -61.839372 
L 362.393312 -63.720231 
L 362.310622 -65.60109 
L 362.213634 -67.481949 
L 362.102104 -69.362807 
L 361.975871 -71.243666 
L 361.834689 -73.124525 
L 361.678096 -75.005384 
L 361.505352 -76.886242 
L 361.315442 -78.767101 
L 361.107147 -80.64796 
L 360.879189 -82.528818 
L 360.630426 -84.409677 
L 360.360058 -86.290536 
L 360.067774 -88.171395 
L 359.753759 -90.052253 
L 359.418517 -91.933112 
L 359.062546 -93.813971 
L 358.685988 -95.69483 
L 358.288453 -97.575688 
L 357.869179 -99.456547 
L 357.427607 -101.337406 
L 356.964274 -103.218264 
L 356.481789 -105.099123 
L 355.985569 -106.979982 
L 355.484077 -108.860841 
L 354.98841 -110.741699 
L 354.511288 -112.622558 
L 354.065612 -114.503417 
L 353.662837 -116.384276 
L 353.311406 -118.265134 
L 353.015439 -120.145993 
L 352.773851 -122.026852 
L 352.58007 -123.90771 
L 352.422506 -125.788569 
L 352.285832 -127.669428 
L 352.152991 -129.550287 
L 352.007629 -131.431145 
L 351.836442 -133.312004 
L 351.630931 -135.192863 
L 351.388134 -137.073722 
L 351.110269 -138.95458 
L 350.803524 -140.835439 
L 350.476513 -142.716298 
L 350.138945 -144.597156 
L 349.800859 -146.478015 
L 349.472476 -148.358874 
L 349.164372 -150.239733 
L 348.887519 -152.120591 
L 348.652806 -154.00145 
L 348.469905 -155.882309 
L 348.345672 -157.763168 
L 348.282558 -159.644026 
L 348.277568 -161.524885 
L 348.322156 -163.405744 
L 348.403154 -165.286602 
L 348.504472 -167.167461 
L 348.609124 -169.04832 
L 348.701083 -170.929179 
L 348.766661 -172.810037 
L 348.795367 -174.690896 
L 348.780433 -176.571755 
L 348.719287 -178.452614 
L 348.614171 -180.333472 
L 348.472837 -182.214331 
L 348.30906 -184.09519 
L 348.142526 -185.976048 
L 347.997697 -187.856907 
L 347.901499 -189.737766 
L 347.88 -191.618625 
L 347.954619 -193.499483 
L 348.138633 -195.380342 
L 348.434794 -197.261201 
L 348.834695 -199.14206 
L 349.320166 -201.022918 
L 349.866508 -202.903777 
L 350.446967 -204.784636 
L 351.037506 -206.665494 
L 351.620868 -208.546353 
L 352.18905 -210.427212 
L 352.743686 -212.308071 
L 353.294319 -214.188929 
L 353.85503 -216.069788 
L 354.440274 -217.950647 
L 355.060886 -219.831506 
L 355.721134 -221.712364 
L 356.417363 -223.593223 
L 357.138347 -225.474082 
L 357.867091 -227.35494 
L 358.583512 -229.235799 
L 359.267354 -231.116658 
L 359.900752 -232.997517 
L 360.470062 -234.878375 
L 360.966798 -236.759234 
L 361.387716 -238.640093 
L 364.132284 -238.640093 
L 364.132284 -238.640093 
L 364.553202 -236.759234 
L 365.049938 -234.878375 
L 365.619248 -232.997517 
L 366.252646 -231.116658 
L 366.936488 -229.235799 
L 367.652909 -227.35494 
L 368.381653 -225.474082 
L 369.102637 -223.593223 
L 369.798866 -221.712364 
L 370.459114 -219.831506 
L 371.079726 -217.950647 
L 371.66497 -216.069788 
L 372.225681 -214.188929 
L 372.776314 -212.308071 
L 373.33095 -210.427212 
L 373.899132 -208.546353 
L 374.482494 -206.665494 
L 375.073033 -204.784636 
L 375.653492 -202.903777 
L 376.199834 -201.022918 
L 376.685305 -199.14206 
L 377.085206 -197.261201 
L 377.381367 -195.380342 
L 377.565381 -193.499483 
L 377.64 -191.618625 
L 377.618501 -189.737766 
L 377.522303 -187.856907 
L 377.377474 -185.976048 
L 377.21094 -184.09519 
L 377.047163 -182.214331 
L 376.905829 -180.333472 
L 376.800713 -178.452614 
L 376.739567 -176.571755 
L 376.724633 -174.690896 
L 376.753339 -172.810037 
L 376.818917 -170.929179 
L 376.910876 -169.04832 
L 377.015528 -167.167461 
L 377.116846 -165.286602 
L 377.197844 -163.405744 
L 377.242432 -161.524885 
L 377.237442 -159.644026 
L 377.174328 -157.763168 
L 377.050095 -155.882309 
L 376.867194 -154.00145 
L 376.632481 -152.120591 
L 376.355628 -150.239733 
L 376.047524 -148.358874 
L 375.719141 -146.478015 
L 375.381055 -144.597156 
L 375.043487 -142.716298 
L 374.716476 -140.835439 
L 374.409731 -138.95458 
L 374.131866 -137.073722 
L 373.889069 -135.192863 
L 373.683558 -133.312004 
L 373.512371 -131.431145 
L 373.367009 -129.550287 
L 373.234168 -127.669428 
L 373.097494 -125.788569 
L 372.93993 -123.90771 
L 372.746149 -122.026852 
L 372.504561 -120.145993 
L 372.208594 -118.265134 
L 371.857163 -116.384276 
L 371.454388 -114.503417 
L 371.008712 -112.622558 
L 370.53159 -110.741699 
L 370.035923 -108.860841 
L 369.534431 -106.979982 
L 369.038211 -105.099123 
L 368.555726 -103.218264 
L 368.092393 -101.337406 
L 367.650821 -99.456547 
L 367.231547 -97.575688 
L 366.834012 -95.69483 
L 366.457454 -93.813971 
L 366.101483 -91.933112 
L 365.766241 -90.052253 
L 365.452226 -88.171395 
L 365.159942 -86.290536 
L 364.889574 -84.409677 
L 364.640811 -82.528818 
L 364.412853 -80.64796 
L 364.204558 -78.767101 
L 364.014648 -76.886242 
L 363.841904 -75.005384 
L 363.685311 -73.124525 
L 363.544129 -71.243666 
L 363.417896 -69.362807 
L 363.306366 -67.481949 
L 363.209378 -65.60109 
L 363.126688 -63.720231 
L 363.05778 -61.839372 
L 363.001728 -59.958514 
L 362.957142 -58.077655 
L 362.922234 -56.196796 
L 362.894986 -54.315938 
L 362.873387 -52.435079 
z
" id="m5422c788f5" style="stroke:#3d3d3d;stroke-width:1.5;"/>
    </defs>
    <g clip-path="url(#pa318985085)">
     <use style="fill:#3a923a;stroke:#3d3d3d;stroke-width:1.5;" x="0" xlink:href="#m5422c788f5" y="288"/>
    </g>
   </g>
   <g id="patch_3">
    <path clip-path="url(#pa318985085)" d="M 109.8 266.961647 
L 109.8 266.961647 
L 109.8 266.961647 
L 109.8 266.961647 
z
" style="fill:#3274a1;stroke:#3d3d3d;stroke-linejoin:miter;stroke-width:0.75;"/>
   </g>
   <g id="patch_4">
    <path clip-path="url(#pa318985085)" d="M 109.8 266.961647 
L 109.8 266.961647 
L 109.8 266.961647 
L 109.8 266.961647 
z
" style="fill:#e1812c;stroke:#3d3d3d;stroke-linejoin:miter;stroke-width:0.75;"/>
   </g>
   <g id="patch_5">
    <path clip-path="url(#pa318985085)" d="M 109.8 266.961647 
L 109.8 266.961647 
L 109.8 266.961647 
L 109.8 266.961647 
z
" style="fill:#3a923a;stroke:#3d3d3d;stroke-linejoin:miter;stroke-width:0.75;"/>
   </g>
   <g id="matplotlib.axis_1">
    <g id="xtick_1">
     <g id="line2d_1">
      <defs>
       <path d="M 0 0 
L 0 3.5 
" id="mbf921302a4" style="stroke:#000000;stroke-width:0.8;"/>
      </defs>
      <g>
       <use style="stroke:#000000;stroke-width:0.8;" x="109.8" xlink:href="#mbf921302a4" y="252"/>
      </g>
     </g>
     <g id="text_1">
      <!-- train -->
      <g transform="translate(98.1625 266.598437)scale(0.1 -0.1)">
       <defs>
        <path d="M 18.3125 70.21875 
L 18.3125 54.6875 
L 36.8125 54.6875 
L 36.8125 47.703125 
L 18.3125 47.703125 
L 18.3125 18.015625 
Q 18.3125 11.328125 20.140625 9.421875 
Q 21.96875 7.515625 27.59375 7.515625 
L 36.8125 7.515625 
L 36.8125 0 
L 27.59375 0 
Q 17.1875 0 13.234375 3.875 
Q 9.28125 7.765625 9.28125 18.015625 
L 9.28125 47.703125 
L 2.6875 47.703125 
L 2.6875 54.6875 
L 9.28125 54.6875 
L 9.28125 70.21875 
z
" id="DejaVuSans-116"/>
        <path d="M 41.109375 46.296875 
Q 39.59375 47.171875 37.8125 47.578125 
Q 36.03125 48 33.890625 48 
Q 26.265625 48 22.1875 43.046875 
Q 18.109375 38.09375 18.109375 28.8125 
L 18.109375 0 
L 9.078125 0 
L 9.078125 54.6875 
L 18.109375 54.6875 
L 18.109375 46.1875 
Q 20.953125 51.171875 25.484375 53.578125 
Q 30.03125 56 36.53125 56 
Q 37.453125 56 38.578125 55.875 
Q 39.703125 55.765625 41.0625 55.515625 
z
" id="DejaVuSans-114"/>
        <path d="M 34.28125 27.484375 
Q 23.390625 27.484375 19.1875 25 
Q 14.984375 22.515625 14.984375 16.5 
Q 14.984375 11.71875 18.140625 8.90625 
Q 21.296875 6.109375 26.703125 6.109375 
Q 34.1875 6.109375 38.703125 11.40625 
Q 43.21875 16.703125 43.21875 25.484375 
L 43.21875 27.484375 
z
M 52.203125 31.203125 
L 52.203125 0 
L 43.21875 0 
L 43.21875 8.296875 
Q 40.140625 3.328125 35.546875 0.953125 
Q 30.953125 -1.421875 24.3125 -1.421875 
Q 15.921875 -1.421875 10.953125 3.296875 
Q 6 8.015625 6 15.921875 
Q 6 25.140625 12.171875 29.828125 
Q 18.359375 34.515625 30.609375 34.515625 
L 43.21875 34.515625 
L 43.21875 35.40625 
Q 43.21875 41.609375 39.140625 45 
Q 35.0625 48.390625 27.6875 48.390625 
Q 23 48.390625 18.546875 47.265625 
Q 14.109375 46.140625 10.015625 43.890625 
L 10.015625 52.203125 
Q 14.9375 54.109375 19.578125 55.046875 
Q 24.21875 56 28.609375 56 
Q 40.484375 56 46.34375 49.84375 
Q 52.203125 43.703125 52.203125 31.203125 
z
" id="DejaVuSans-97"/>
        <path d="M 9.421875 54.6875 
L 18.40625 54.6875 
L 18.40625 0 
L 9.421875 0 
z
M 9.421875 75.984375 
L 18.40625 75.984375 
L 18.40625 64.59375 
L 9.421875 64.59375 
z
" id="DejaVuSans-105"/>
        <path d="M 54.890625 33.015625 
L 54.890625 0 
L 45.90625 0 
L 45.90625 32.71875 
Q 45.90625 40.484375 42.875 44.328125 
Q 39.84375 48.1875 33.796875 48.1875 
Q 26.515625 48.1875 22.3125 43.546875 
Q 18.109375 38.921875 18.109375 30.90625 
L 18.109375 0 
L 9.078125 0 
L 9.078125 54.6875 
L 18.109375 54.6875 
L 18.109375 46.1875 
Q 21.34375 51.125 25.703125 53.5625 
Q 30.078125 56 35.796875 56 
Q 45.21875 56 50.046875 50.171875 
Q 54.890625 44.34375 54.890625 33.015625 
z
" id="DejaVuSans-110"/>
       </defs>
       <use xlink:href="#DejaVuSans-116"/>
       <use x="39.208984" xlink:href="#DejaVuSans-114"/>
       <use x="80.322266" xlink:href="#DejaVuSans-97"/>
       <use x="141.601562" xlink:href="#DejaVuSans-105"/>
       <use x="169.384766" xlink:href="#DejaVuSans-110"/>
      </g>
     </g>
    </g>
    <g id="xtick_2">
     <g id="line2d_2">
      <g>
       <use style="stroke:#000000;stroke-width:0.8;" x="221.4" xlink:href="#mbf921302a4" y="252"/>
      </g>
     </g>
     <g id="text_2">
      <!-- val -->
      <g transform="translate(213.9875 266.598437)scale(0.1 -0.1)">
       <defs>
        <path d="M 2.984375 54.6875 
L 12.5 54.6875 
L 29.59375 8.796875 
L 46.6875 54.6875 
L 56.203125 54.6875 
L 35.6875 0 
L 23.484375 0 
z
" id="DejaVuSans-118"/>
        <path d="M 9.421875 75.984375 
L 18.40625 75.984375 
L 18.40625 0 
L 9.421875 0 
z
" id="DejaVuSans-108"/>
       </defs>
       <use xlink:href="#DejaVuSans-118"/>
       <use x="59.179688" xlink:href="#DejaVuSans-97"/>
       <use x="120.458984" xlink:href="#DejaVuSans-108"/>
      </g>
     </g>
    </g>
    <g id="xtick_3">
     <g id="line2d_3">
      <g>
       <use style="stroke:#000000;stroke-width:0.8;" x="333" xlink:href="#mbf921302a4" y="252"/>
      </g>
     </g>
     <g id="text_3">
      <!-- test -->
      <g transform="translate(323.398438 266.598437)scale(0.1 -0.1)">
       <defs>
        <path d="M 56.203125 29.59375 
L 56.203125 25.203125 
L 14.890625 25.203125 
Q 15.484375 15.921875 20.484375 11.0625 
Q 25.484375 6.203125 34.421875 6.203125 
Q 39.59375 6.203125 44.453125 7.46875 
Q 49.3125 8.734375 54.109375 11.28125 
L 54.109375 2.78125 
Q 49.265625 0.734375 44.1875 -0.34375 
Q 39.109375 -1.421875 33.890625 -1.421875 
Q 20.796875 -1.421875 13.15625 6.1875 
Q 5.515625 13.8125 5.515625 26.8125 
Q 5.515625 40.234375 12.765625 48.109375 
Q 20.015625 56 32.328125 56 
Q 43.359375 56 49.78125 48.890625 
Q 56.203125 41.796875 56.203125 29.59375 
z
M 47.21875 32.234375 
Q 47.125 39.59375 43.09375 43.984375 
Q 39.0625 48.390625 32.421875 48.390625 
Q 24.90625 48.390625 20.390625 44.140625 
Q 15.875 39.890625 15.1875 32.171875 
z
" id="DejaVuSans-101"/>
        <path d="M 44.28125 53.078125 
L 44.28125 44.578125 
Q 40.484375 46.53125 36.375 47.5 
Q 32.28125 48.484375 27.875 48.484375 
Q 21.1875 48.484375 17.84375 46.4375 
Q 14.5 44.390625 14.5 40.28125 
Q 14.5 37.15625 16.890625 35.375 
Q 19.28125 33.59375 26.515625 31.984375 
L 29.59375 31.296875 
Q 39.15625 29.25 43.1875 25.515625 
Q 47.21875 21.78125 47.21875 15.09375 
Q 47.21875 7.46875 41.1875 3.015625 
Q 35.15625 -1.421875 24.609375 -1.421875 
Q 20.21875 -1.421875 15.453125 -0.5625 
Q 10.6875 0.296875 5.421875 2 
L 5.421875 11.28125 
Q 10.40625 8.6875 15.234375 7.390625 
Q 20.0625 6.109375 24.8125 6.109375 
Q 31.15625 6.109375 34.5625 8.28125 
Q 37.984375 10.453125 37.984375 14.40625 
Q 37.984375 18.0625 35.515625 20.015625 
Q 33.0625 21.96875 24.703125 23.78125 
L 21.578125 24.515625 
Q 13.234375 26.265625 9.515625 29.90625 
Q 5.8125 33.546875 5.8125 39.890625 
Q 5.8125 47.609375 11.28125 51.796875 
Q 16.75 56 26.8125 56 
Q 31.78125 56 36.171875 55.265625 
Q 40.578125 54.546875 44.28125 53.078125 
z
" id="DejaVuSans-115"/>
       </defs>
       <use xlink:href="#DejaVuSans-116"/>
       <use x="39.208984" xlink:href="#DejaVuSans-101"/>
       <use x="100.732422" xlink:href="#DejaVuSans-115"/>
       <use x="152.832031" xlink:href="#DejaVuSans-116"/>
      </g>
     </g>
    </g>
    <g id="text_4">
     <!-- set -->
     <g transform="translate(213.758594 280.276563)scale(0.1 -0.1)">
      <use xlink:href="#DejaVuSans-115"/>
      <use x="52.099609" xlink:href="#DejaVuSans-101"/>
      <use x="113.623047" xlink:href="#DejaVuSans-116"/>
     </g>
    </g>
   </g>
   <g id="matplotlib.axis_2">
    <g id="ytick_1">
     <g id="line2d_4">
      <defs>
       <path d="M 0 0 
L -3.5 0 
" id="m00c13a8897" style="stroke:#000000;stroke-width:0.8;"/>
      </defs>
      <g>
       <use style="stroke:#000000;stroke-width:0.8;" x="54" xlink:href="#m00c13a8897" y="218.847934"/>
      </g>
     </g>
     <g id="text_5">
      <!-- 0.2 -->
      <g transform="translate(31.096875 222.647153)scale(0.1 -0.1)">
       <defs>
        <path d="M 31.78125 66.40625 
Q 24.171875 66.40625 20.328125 58.90625 
Q 16.5 51.421875 16.5 36.375 
Q 16.5 21.390625 20.328125 13.890625 
Q 24.171875 6.390625 31.78125 6.390625 
Q 39.453125 6.390625 43.28125 13.890625 
Q 47.125 21.390625 47.125 36.375 
Q 47.125 51.421875 43.28125 58.90625 
Q 39.453125 66.40625 31.78125 66.40625 
z
M 31.78125 74.21875 
Q 44.046875 74.21875 50.515625 64.515625 
Q 56.984375 54.828125 56.984375 36.375 
Q 56.984375 17.96875 50.515625 8.265625 
Q 44.046875 -1.421875 31.78125 -1.421875 
Q 19.53125 -1.421875 13.0625 8.265625 
Q 6.59375 17.96875 6.59375 36.375 
Q 6.59375 54.828125 13.0625 64.515625 
Q 19.53125 74.21875 31.78125 74.21875 
z
" id="DejaVuSans-48"/>
        <path d="M 10.6875 12.40625 
L 21 12.40625 
L 21 0 
L 10.6875 0 
z
" id="DejaVuSans-46"/>
        <path d="M 19.1875 8.296875 
L 53.609375 8.296875 
L 53.609375 0 
L 7.328125 0 
L 7.328125 8.296875 
Q 12.9375 14.109375 22.625 23.890625 
Q 32.328125 33.6875 34.8125 36.53125 
Q 39.546875 41.84375 41.421875 45.53125 
Q 43.3125 49.21875 43.3125 52.78125 
Q 43.3125 58.59375 39.234375 62.25 
Q 35.15625 65.921875 28.609375 65.921875 
Q 23.96875 65.921875 18.8125 64.3125 
Q 13.671875 62.703125 7.8125 59.421875 
L 7.8125 69.390625 
Q 13.765625 71.78125 18.9375 73 
Q 24.125 74.21875 28.421875 74.21875 
Q 39.75 74.21875 46.484375 68.546875 
Q 53.21875 62.890625 53.21875 53.421875 
Q 53.21875 48.921875 51.53125 44.890625 
Q 49.859375 40.875 45.40625 35.40625 
Q 44.1875 33.984375 37.640625 27.21875 
Q 31.109375 20.453125 19.1875 8.296875 
z
" id="DejaVuSans-50"/>
       </defs>
       <use xlink:href="#DejaVuSans-48"/>
       <use x="63.623047" xlink:href="#DejaVuSans-46"/>
       <use x="95.410156" xlink:href="#DejaVuSans-50"/>
      </g>
     </g>
    </g>
    <g id="ytick_2">
     <g id="line2d_5">
      <g>
       <use style="stroke:#000000;stroke-width:0.8;" x="54" xlink:href="#m00c13a8897" y="170.734221"/>
      </g>
     </g>
     <g id="text_6">
      <!-- 0.4 -->
      <g transform="translate(31.096875 174.53344)scale(0.1 -0.1)">
       <defs>
        <path d="M 37.796875 64.3125 
L 12.890625 25.390625 
L 37.796875 25.390625 
z
M 35.203125 72.90625 
L 47.609375 72.90625 
L 47.609375 25.390625 
L 58.015625 25.390625 
L 58.015625 17.1875 
L 47.609375 17.1875 
L 47.609375 0 
L 37.796875 0 
L 37.796875 17.1875 
L 4.890625 17.1875 
L 4.890625 26.703125 
z
" id="DejaVuSans-52"/>
       </defs>
       <use xlink:href="#DejaVuSans-48"/>
       <use x="63.623047" xlink:href="#DejaVuSans-46"/>
       <use x="95.410156" xlink:href="#DejaVuSans-52"/>
      </g>
     </g>
    </g>
    <g id="ytick_3">
     <g id="line2d_6">
      <g>
       <use style="stroke:#000000;stroke-width:0.8;" x="54" xlink:href="#m00c13a8897" y="122.620508"/>
      </g>
     </g>
     <g id="text_7">
      <!-- 0.6 -->
      <g transform="translate(31.096875 126.419727)scale(0.1 -0.1)">
       <defs>
        <path d="M 33.015625 40.375 
Q 26.375 40.375 22.484375 35.828125 
Q 18.609375 31.296875 18.609375 23.390625 
Q 18.609375 15.53125 22.484375 10.953125 
Q 26.375 6.390625 33.015625 6.390625 
Q 39.65625 6.390625 43.53125 10.953125 
Q 47.40625 15.53125 47.40625 23.390625 
Q 47.40625 31.296875 43.53125 35.828125 
Q 39.65625 40.375 33.015625 40.375 
z
M 52.59375 71.296875 
L 52.59375 62.3125 
Q 48.875 64.0625 45.09375 64.984375 
Q 41.3125 65.921875 37.59375 65.921875 
Q 27.828125 65.921875 22.671875 59.328125 
Q 17.53125 52.734375 16.796875 39.40625 
Q 19.671875 43.65625 24.015625 45.921875 
Q 28.375 48.1875 33.59375 48.1875 
Q 44.578125 48.1875 50.953125 41.515625 
Q 57.328125 34.859375 57.328125 23.390625 
Q 57.328125 12.15625 50.6875 5.359375 
Q 44.046875 -1.421875 33.015625 -1.421875 
Q 20.359375 -1.421875 13.671875 8.265625 
Q 6.984375 17.96875 6.984375 36.375 
Q 6.984375 53.65625 15.1875 63.9375 
Q 23.390625 74.21875 37.203125 74.21875 
Q 40.921875 74.21875 44.703125 73.484375 
Q 48.484375 72.75 52.59375 71.296875 
z
" id="DejaVuSans-54"/>
       </defs>
       <use xlink:href="#DejaVuSans-48"/>
       <use x="63.623047" xlink:href="#DejaVuSans-46"/>
       <use x="95.410156" xlink:href="#DejaVuSans-54"/>
      </g>
     </g>
    </g>
    <g id="ytick_4">
     <g id="line2d_7">
      <g>
       <use style="stroke:#000000;stroke-width:0.8;" x="54" xlink:href="#m00c13a8897" y="74.506795"/>
      </g>
     </g>
     <g id="text_8">
      <!-- 0.8 -->
      <g transform="translate(31.096875 78.306014)scale(0.1 -0.1)">
       <defs>
        <path d="M 31.78125 34.625 
Q 24.75 34.625 20.71875 30.859375 
Q 16.703125 27.09375 16.703125 20.515625 
Q 16.703125 13.921875 20.71875 10.15625 
Q 24.75 6.390625 31.78125 6.390625 
Q 38.8125 6.390625 42.859375 10.171875 
Q 46.921875 13.96875 46.921875 20.515625 
Q 46.921875 27.09375 42.890625 30.859375 
Q 38.875 34.625 31.78125 34.625 
z
M 21.921875 38.8125 
Q 15.578125 40.375 12.03125 44.71875 
Q 8.5 49.078125 8.5 55.328125 
Q 8.5 64.0625 14.71875 69.140625 
Q 20.953125 74.21875 31.78125 74.21875 
Q 42.671875 74.21875 48.875 69.140625 
Q 55.078125 64.0625 55.078125 55.328125 
Q 55.078125 49.078125 51.53125 44.71875 
Q 48 40.375 41.703125 38.8125 
Q 48.828125 37.15625 52.796875 32.3125 
Q 56.78125 27.484375 56.78125 20.515625 
Q 56.78125 9.90625 50.3125 4.234375 
Q 43.84375 -1.421875 31.78125 -1.421875 
Q 19.734375 -1.421875 13.25 4.234375 
Q 6.78125 9.90625 6.78125 20.515625 
Q 6.78125 27.484375 10.78125 32.3125 
Q 14.796875 37.15625 21.921875 38.8125 
z
M 18.3125 54.390625 
Q 18.3125 48.734375 21.84375 45.5625 
Q 25.390625 42.390625 31.78125 42.390625 
Q 38.140625 42.390625 41.71875 45.5625 
Q 45.3125 48.734375 45.3125 54.390625 
Q 45.3125 60.0625 41.71875 63.234375 
Q 38.140625 66.40625 31.78125 66.40625 
Q 25.390625 66.40625 21.84375 63.234375 
Q 18.3125 60.0625 18.3125 54.390625 
z
" id="DejaVuSans-56"/>
       </defs>
       <use xlink:href="#DejaVuSans-48"/>
       <use x="63.623047" xlink:href="#DejaVuSans-46"/>
       <use x="95.410156" xlink:href="#DejaVuSans-56"/>
      </g>
     </g>
    </g>
    <g id="text_9">
     <!-- value -->
     <g transform="translate(25.017187 156.937813)rotate(-90)scale(0.1 -0.1)">
      <defs>
       <path d="M 8.5 21.578125 
L 8.5 54.6875 
L 17.484375 54.6875 
L 17.484375 21.921875 
Q 17.484375 14.15625 20.5 10.265625 
Q 23.53125 6.390625 29.59375 6.390625 
Q 36.859375 6.390625 41.078125 11.03125 
Q 45.3125 15.671875 45.3125 23.6875 
L 45.3125 54.6875 
L 54.296875 54.6875 
L 54.296875 0 
L 45.3125 0 
L 45.3125 8.40625 
Q 42.046875 3.421875 37.71875 1 
Q 33.40625 -1.421875 27.6875 -1.421875 
Q 18.265625 -1.421875 13.375 4.4375 
Q 8.5 10.296875 8.5 21.578125 
z
M 31.109375 56 
z
" id="DejaVuSans-117"/>
      </defs>
      <use xlink:href="#DejaVuSans-118"/>
      <use x="59.179688" xlink:href="#DejaVuSans-97"/>
      <use x="120.458984" xlink:href="#DejaVuSans-108"/>
      <use x="148.242188" xlink:href="#DejaVuSans-117"/>
      <use x="211.621094" xlink:href="#DejaVuSans-101"/>
     </g>
    </g>
   </g>
   <g id="line2d_8">
    <path clip-path="url(#pa318985085)" d="M 80.04 229.988859 
L 80.04 46.931281 
" style="fill:none;stroke:#3d3d3d;stroke-linecap:square;stroke-width:1.5;"/>
   </g>
   <g id="line2d_9">
    <path clip-path="url(#pa318985085)" d="M 80.04 147.346612 
L 80.04 91.91658 
" style="fill:none;stroke:#3d3d3d;stroke-linecap:square;stroke-width:4.5;"/>
   </g>
   <g id="line2d_10">
    <path clip-path="url(#pa318985085)" d="M 221.4 229.711657 
L 221.4 44.443636 
" style="fill:none;stroke:#3d3d3d;stroke-linecap:square;stroke-width:1.5;"/>
   </g>
   <g id="line2d_11">
    <path clip-path="url(#pa318985085)" d="M 221.4 148.625981 
L 221.4 93.1809 
" style="fill:none;stroke:#3d3d3d;stroke-linecap:square;stroke-width:4.5;"/>
   </g>
   <g id="line2d_12">
    <path clip-path="url(#pa318985085)" d="M 362.76 220.380335 
L 362.76 49.359907 
" style="fill:none;stroke:#3d3d3d;stroke-linecap:square;stroke-width:1.5;"/>
   </g>
   <g id="line2d_13">
    <path clip-path="url(#pa318985085)" d="M 362.76 150.547478 
L 362.76 94.432268 
" style="fill:none;stroke:#3d3d3d;stroke-linecap:square;stroke-width:4.5;"/>
   </g>
   <g id="patch_6">
    <path d="M 54 252 
L 54 34.56 
" style="fill:none;stroke:#000000;stroke-linecap:square;stroke-linejoin:miter;stroke-width:0.8;"/>
   </g>
   <g id="patch_7">
    <path d="M 388.8 252 
L 388.8 34.56 
" style="fill:none;stroke:#000000;stroke-linecap:square;stroke-linejoin:miter;stroke-width:0.8;"/>
   </g>
   <g id="patch_8">
    <path d="M 54 252 
L 388.8 252 
" style="fill:none;stroke:#000000;stroke-linecap:square;stroke-linejoin:miter;stroke-width:0.8;"/>
   </g>
   <g id="patch_9">
    <path d="M 54 34.56 
L 388.8 34.56 
" style="fill:none;stroke:#000000;stroke-linecap:square;stroke-linejoin:miter;stroke-width:0.8;"/>
   </g>
   <g id="PathCollection_1">
    <defs>
     <path d="M 0 1.5 
C 0.397805 1.5 0.77937 1.341951 1.06066 1.06066 
C 1.341951 0.77937 1.5 0.397805 1.5 0 
C 1.5 -0.397805 1.341951 -0.77937 1.06066 -1.06066 
C 0.77937 -1.341951 0.397805 -1.5 0 -1.5 
C -0.397805 -1.5 -0.77937 -1.341951 -1.06066 -1.06066 
C -1.341951 -0.77937 -1.5 -0.397805 -1.5 0 
C -1.5 0.397805 -1.341951 0.77937 -1.06066 1.06066 
C -0.77937 1.341951 -0.397805 1.5 0 1.5 
z
" id="m02e0b372d6" style="stroke:#3d3d3d;"/>
    </defs>
    <g clip-path="url(#pa318985085)">
     <use style="fill:#ffffff;stroke:#3d3d3d;" x="80.04" xlink:href="#m02e0b372d6" y="117.274835"/>
    </g>
   </g>
   <g id="PathCollection_2">
    <g clip-path="url(#pa318985085)">
     <use style="fill:#ffffff;stroke:#3d3d3d;" x="221.4" xlink:href="#m02e0b372d6" y="118.700799"/>
    </g>
   </g>
   <g id="PathCollection_3">
    <g clip-path="url(#pa318985085)">
     <use style="fill:#ffffff;stroke:#3d3d3d;" x="362.76" xlink:href="#m02e0b372d6" y="123.537682"/>
    </g>
   </g>
   <g id="legend_1">
    <g id="patch_10">
     <path d="M 61 247 
L 116.275 247 
Q 118.275 247 118.275 245 
L 118.275 187.2875 
Q 118.275 185.2875 116.275 185.2875 
L 61 185.2875 
Q 59 185.2875 59 187.2875 
L 59 245 
Q 59 247 61 247 
z
" style="fill:#ffffff;opacity:0.8;stroke:#cccccc;stroke-linejoin:miter;"/>
    </g>
    <g id="text_10">
     <!-- set -->
     <g transform="translate(80.996094 196.885938)scale(0.1 -0.1)">
      <use xlink:href="#DejaVuSans-115"/>
      <use x="52.099609" xlink:href="#DejaVuSans-101"/>
      <use x="113.623047" xlink:href="#DejaVuSans-116"/>
     </g>
    </g>
    <g id="patch_11">
     <path d="M 63 211.564063 
L 83 211.564063 
L 83 204.564063 
L 63 204.564063 
z
" style="fill:#3274a1;stroke:#3d3d3d;stroke-linejoin:miter;stroke-width:0.75;"/>
    </g>
    <g id="text_11">
     <!-- train -->
     <g transform="translate(91 211.564063)scale(0.1 -0.1)">
      <use xlink:href="#DejaVuSans-116"/>
      <use x="39.208984" xlink:href="#DejaVuSans-114"/>
      <use x="80.322266" xlink:href="#DejaVuSans-97"/>
      <use x="141.601562" xlink:href="#DejaVuSans-105"/>
      <use x="169.384766" xlink:href="#DejaVuSans-110"/>
     </g>
    </g>
    <g id="patch_12">
     <path d="M 63 226.242188 
L 83 226.242188 
L 83 219.242188 
L 63 219.242188 
z
" style="fill:#e1812c;stroke:#3d3d3d;stroke-linejoin:miter;stroke-width:0.75;"/>
    </g>
    <g id="text_12">
     <!-- val -->
     <g transform="translate(91 226.242188)scale(0.1 -0.1)">
      <use xlink:href="#DejaVuSans-118"/>
      <use x="59.179688" xlink:href="#DejaVuSans-97"/>
      <use x="120.458984" xlink:href="#DejaVuSans-108"/>
     </g>
    </g>
    <g id="patch_13">
     <path d="M 63 240.920313 
L 83 240.920313 
L 83 233.920313 
L 63 233.920313 
z
" style="fill:#3a923a;stroke:#3d3d3d;stroke-linejoin:miter;stroke-width:0.75;"/>
    </g>
    <g id="text_13">
     <!-- test -->
     <g transform="translate(91 240.920313)scale(0.1 -0.1)">
      <use xlink:href="#DejaVuSans-116"/>
      <use x="39.208984" xlink:href="#DejaVuSans-101"/>
      <use x="100.732422" xlink:href="#DejaVuSans-115"/>
      <use x="152.832031" xlink:href="#DejaVuSans-116"/>
     </g>
    </g>
   </g>
  </g>
 </g>
 <defs>
  <clipPath id="pa318985085">
   <rect height="217.44" width="334.8" x="54" y="34.56"/>
  </clipPath>
 </defs>
</svg>
