<?xml version="1.0" encoding="utf-8" standalone="no"?>
<!DOCTYPE svg PUBLIC "-//W3C//DTD SVG 1.1//EN"
  "http://www.w3.org/Graphics/SVG/1.1/DTD/svg11.dtd">
<!-- Created with matplotlib (https://matplotlib.org/) -->
<svg height="288pt" version="1.1" viewBox="0 0 432 288" width="432pt" xmlns="http://www.w3.org/2000/svg" xmlns:xlink="http://www.w3.org/1999/xlink">
 <metadata>
  <rdf:RDF xmlns:cc="http://creativecommons.org/ns#" xmlns:dc="http://purl.org/dc/elements/1.1/" xmlns:rdf="http://www.w3.org/1999/02/22-rdf-syntax-ns#">
   <cc:Work>
    <dc:type rdf:resource="http://purl.org/dc/dcmitype/StillImage"/>
    <dc:date>2022-05-12T13:04:49.960744</dc:date>
    <dc:format>image/svg+xml</dc:format>
    <dc:creator>
     <cc:Agent>
      <dc:title>Matplotlib v3.3.4, https://matplotlib.org/</dc:title>
     </cc:Agent>
    </dc:creator>
   </cc:Work>
  </rdf:RDF>
 </metadata>
 <defs>
  <style type="text/css">*{stroke-linecap:butt;stroke-linejoin:round;}</style>
 </defs>
 <g id="figure_1">
  <g id="patch_1">
   <path d="M 0 288 
L 432 288 
L 432 0 
L 0 0 
z
" style="fill:#ffffff;"/>
  </g>
  <g id="axes_1">
   <g id="patch_2">
    <path d="M 54 252 
L 388.8 252 
L 388.8 34.56 
L 54 34.56 
z
" style="fill:#ffffff;"/>
   </g>
   <g id="PolyCollection_1">
    <defs>
     <path d="M 80.125032 -45.883636 
L 79.954968 -45.883636 
L 79.939483 -47.880331 
L 79.925163 -49.877025 
L 79.910827 -51.873719 
L 79.894008 -53.870413 
L 79.871436 -55.867107 
L 79.839782 -57.863802 
L 79.796407 -59.860496 
L 79.739865 -61.85719 
L 79.670116 -63.853884 
L 79.588447 -65.850579 
L 79.497105 -67.847273 
L 79.398528 -69.843967 
L 79.294185 -71.840661 
L 79.183329 -73.837355 
L 79.062244 -75.83405 
L 78.924479 -77.830744 
L 78.76207 -79.827438 
L 78.567289 -81.824132 
L 78.334393 -83.820826 
L 78.061179 -85.817521 
L 77.750239 -87.814215 
L 77.409466 -89.810909 
L 77.050878 -91.807603 
L 76.687178 -93.804298 
L 76.32696 -95.800992 
L 75.971108 -97.797686 
L 75.613047 -99.79438 
L 75.243362 -101.791074 
L 74.856168 -103.787769 
L 74.453075 -105.784463 
L 74.042117 -107.781157 
L 73.632542 -109.777851 
L 73.229147 -111.774545 
L 72.82975 -113.77124 
L 72.426904 -115.767934 
L 72.012165 -117.764628 
L 71.58024 -119.761322 
L 71.131241 -121.758017 
L 70.670872 -123.754711 
L 70.209241 -125.751405 
L 69.758876 -127.748099 
L 69.332074 -129.744793 
L 68.937746 -131.741488 
L 68.578633 -133.738182 
L 68.250424 -135.734876 
L 67.944009 -137.73157 
L 67.650486 -139.728264 
L 67.366434 -141.724959 
L 67.096194 -143.721653 
L 66.84935 -145.718347 
L 66.634737 -147.715041 
L 66.454579 -149.711736 
L 66.30207 -151.70843 
L 66.163311 -153.705124 
L 66.022152 -155.701818 
L 65.865938 -157.698512 
L 65.690815 -159.695207 
L 65.505645 -161.691901 
L 65.333091 -163.688595 
L 65.206179 -165.685289 
L 65.16 -167.681983 
L 65.220951 -169.678678 
L 65.398013 -171.675372 
L 65.680157 -173.672066 
L 66.041 -175.66876 
L 66.44822 -177.665455 
L 66.873244 -179.662149 
L 67.29732 -181.658843 
L 67.712556 -183.655537 
L 68.119032 -185.652231 
L 68.52056 -187.648926 
L 68.921566 -189.64562 
L 69.326311 -191.642314 
L 69.740117 -193.639008 
L 70.171149 -195.635702 
L 70.631168 -197.632397 
L 71.134294 -199.629091 
L 71.693674 -201.625785 
L 72.316779 -203.622479 
L 73.000813 -205.619174 
L 73.730376 -207.615868 
L 74.479176 -209.612562 
L 75.215975 -211.609256 
L 75.912569 -213.60595 
L 76.550177 -215.602645 
L 77.121454 -217.599339 
L 77.627877 -219.596033 
L 78.074788 -221.592727 
L 78.467068 -223.589421 
L 78.807274 -225.586116 
L 79.09617 -227.58281 
L 79.334395 -229.579504 
L 79.523936 -231.576198 
L 79.668752 -233.572893 
L 79.774645 -235.569587 
L 79.848713 -237.566281 
L 79.898656 -239.562975 
L 79.931986 -241.559669 
L 79.955193 -243.556364 
L 80.124807 -243.556364 
L 80.124807 -243.556364 
L 80.148014 -241.559669 
L 80.181344 -239.562975 
L 80.231287 -237.566281 
L 80.305355 -235.569587 
L 80.411248 -233.572893 
L 80.556064 -231.576198 
L 80.745605 -229.579504 
L 80.98383 -227.58281 
L 81.272726 -225.586116 
L 81.612932 -223.589421 
L 82.005212 -221.592727 
L 82.452123 -219.596033 
L 82.958546 -217.599339 
L 83.529823 -215.602645 
L 84.167431 -213.60595 
L 84.864025 -211.609256 
L 85.600824 -209.612562 
L 86.349624 -207.615868 
L 87.079187 -205.619174 
L 87.763221 -203.622479 
L 88.386326 -201.625785 
L 88.945706 -199.629091 
L 89.448832 -197.632397 
L 89.908851 -195.635702 
L 90.339883 -193.639008 
L 90.753689 -191.642314 
L 91.158434 -189.64562 
L 91.55944 -187.648926 
L 91.960968 -185.652231 
L 92.367444 -183.655537 
L 92.78268 -181.658843 
L 93.206756 -179.662149 
L 93.63178 -177.665455 
L 94.039 -175.66876 
L 94.399843 -173.672066 
L 94.681987 -171.675372 
L 94.859049 -169.678678 
L 94.92 -167.681983 
L 94.873821 -165.685289 
L 94.746909 -163.688595 
L 94.574355 -161.691901 
L 94.389185 -159.695207 
L 94.214062 -157.698512 
L 94.057848 -155.701818 
L 93.916689 -153.705124 
L 93.77793 -151.70843 
L 93.625421 -149.711736 
L 93.445263 -147.715041 
L 93.23065 -145.718347 
L 92.983806 -143.721653 
L 92.713566 -141.724959 
L 92.429514 -139.728264 
L 92.135991 -137.73157 
L 91.829576 -135.734876 
L 91.501367 -133.738182 
L 91.142254 -131.741488 
L 90.747926 -129.744793 
L 90.321124 -127.748099 
L 89.870759 -125.751405 
L 89.409128 -123.754711 
L 88.948759 -121.758017 
L 88.49976 -119.761322 
L 88.067835 -117.764628 
L 87.653096 -115.767934 
L 87.25025 -113.77124 
L 86.850853 -111.774545 
L 86.447458 -109.777851 
L 86.037883 -107.781157 
L 85.626925 -105.784463 
L 85.223832 -103.787769 
L 84.836638 -101.791074 
L 84.466953 -99.79438 
L 84.108892 -97.797686 
L 83.75304 -95.800992 
L 83.392822 -93.804298 
L 83.029122 -91.807603 
L 82.670534 -89.810909 
L 82.329761 -87.814215 
L 82.018821 -85.817521 
L 81.745607 -83.820826 
L 81.512711 -81.824132 
L 81.31793 -79.827438 
L 81.155521 -77.830744 
L 81.017756 -75.83405 
L 80.896671 -73.837355 
L 80.785815 -71.840661 
L 80.681472 -69.843967 
L 80.582895 -67.847273 
L 80.491553 -65.850579 
L 80.409884 -63.853884 
L 80.340135 -61.85719 
L 80.283593 -59.860496 
L 80.240218 -57.863802 
L 80.208564 -55.867107 
L 80.185992 -53.870413 
L 80.169173 -51.873719 
L 80.154837 -49.877025 
L 80.140517 -47.880331 
L 80.125032 -45.883636 
z
" id="m1a0d76836c" style="stroke:#3d3d3d;stroke-width:1.5;"/>
    </defs>
    <g clip-path="url(#p45e3c366e0)">
     <use style="fill:#3274a1;stroke:#3d3d3d;stroke-width:1.5;" x="0" xlink:href="#m1a0d76836c" y="288"/>
    </g>
   </g>
   <g id="PolyCollection_2">
    <defs>
     <path d="M 221.856828 -57.25649 
L 220.943172 -57.25649 
L 220.852142 -59.110024 
L 220.760065 -60.963558 
L 220.669428 -62.817092 
L 220.581634 -64.670626 
L 220.49672 -66.52416 
L 220.413349 -68.377694 
L 220.329061 -70.231228 
L 220.24062 -72.084762 
L 220.144325 -73.938296 
L 220.036185 -75.79183 
L 219.911974 -77.645364 
L 219.767356 -79.498898 
L 219.598242 -81.352431 
L 219.401531 -83.205965 
L 219.176124 -85.059499 
L 218.923904 -86.913033 
L 218.65024 -88.766567 
L 218.363632 -90.620101 
L 218.074347 -92.473635 
L 217.792292 -94.327169 
L 217.524688 -96.180703 
L 217.274247 -98.034237 
L 217.038451 -99.887771 
L 216.810167 -101.741305 
L 216.579408 -103.594839 
L 216.335724 -105.448373 
L 216.070551 -107.301907 
L 215.77896 -109.15544 
L 215.460486 -111.008974 
L 215.118989 -112.862508 
L 214.761688 -114.716042 
L 214.397632 -116.569576 
L 214.035904 -118.42311 
L 213.683899 -120.276644 
L 213.345998 -122.130178 
L 213.02293 -123.983712 
L 212.711964 -125.837246 
L 212.40784 -127.69078 
L 212.104136 -129.544314 
L 211.794625 -131.397848 
L 211.474219 -133.251382 
L 211.139331 -135.104916 
L 210.787754 -136.958449 
L 210.418456 -138.811983 
L 210.031647 -140.665517 
L 209.629336 -142.519051 
L 209.216201 -144.372585 
L 208.80029 -146.226119 
L 208.392995 -148.079653 
L 208.007931 -149.933187 
L 207.658794 -151.786721 
L 207.356757 -153.640255 
L 207.108201 -155.493789 
L 206.913589 -157.347323 
L 206.76794 -159.200857 
L 206.662851 -161.054391 
L 206.589558 -162.907925 
L 206.542151 -164.761459 
L 206.52 -166.614992 
L 206.528638 -168.468526 
L 206.578777 -170.32206 
L 206.68369 -172.175594 
L 206.855734 -174.029128 
L 207.103025 -175.882662 
L 207.427262 -177.736196 
L 207.823253 -179.58973 
L 208.280151 -181.443264 
L 208.783876 -183.296798 
L 209.319911 -185.150332 
L 209.875686 -187.003866 
L 210.442009 -188.8574 
L 211.013389 -190.710934 
L 211.587446 -192.564468 
L 212.163814 -194.418001 
L 212.743 -196.271535 
L 213.325536 -198.125069 
L 213.911536 -199.978603 
L 214.500538 -201.832137 
L 215.091393 -203.685671 
L 215.681989 -205.539205 
L 216.268808 -207.392739 
L 216.846506 -209.246273 
L 217.407838 -211.099807 
L 217.94414 -212.953341 
L 218.446395 -214.806875 
L 218.906594 -216.660409 
L 219.319009 -218.513943 
L 219.680952 -220.367477 
L 219.992846 -222.22101 
L 220.257644 -224.074544 
L 220.479872 -225.928078 
L 220.664637 -227.781612 
L 220.816875 -229.635146 
L 220.940999 -231.48868 
L 221.040878 -233.342214 
L 221.120028 -235.195748 
L 221.181803 -237.049282 
L 221.229478 -238.902816 
L 221.26617 -240.75635 
L 221.53383 -240.75635 
L 221.53383 -240.75635 
L 221.570522 -238.902816 
L 221.618197 -237.049282 
L 221.679972 -235.195748 
L 221.759122 -233.342214 
L 221.859001 -231.48868 
L 221.983125 -229.635146 
L 222.135363 -227.781612 
L 222.320128 -225.928078 
L 222.542356 -224.074544 
L 222.807154 -222.22101 
L 223.119048 -220.367477 
L 223.480991 -218.513943 
L 223.893406 -216.660409 
L 224.353605 -214.806875 
L 224.85586 -212.953341 
L 225.392162 -211.099807 
L 225.953494 -209.246273 
L 226.531192 -207.392739 
L 227.118011 -205.539205 
L 227.708607 -203.685671 
L 228.299462 -201.832137 
L 228.888464 -199.978603 
L 229.474464 -198.125069 
L 230.057 -196.271535 
L 230.636186 -194.418001 
L 231.212554 -192.564468 
L 231.786611 -190.710934 
L 232.357991 -188.8574 
L 232.924314 -187.003866 
L 233.480089 -185.150332 
L 234.016124 -183.296798 
L 234.519849 -181.443264 
L 234.976747 -179.58973 
L 235.372738 -177.736196 
L 235.696975 -175.882662 
L 235.944266 -174.029128 
L 236.11631 -172.175594 
L 236.221223 -170.32206 
L 236.271362 -168.468526 
L 236.28 -166.614992 
L 236.257849 -164.761459 
L 236.210442 -162.907925 
L 236.137149 -161.054391 
L 236.03206 -159.200857 
L 235.886411 -157.347323 
L 235.691799 -155.493789 
L 235.443243 -153.640255 
L 235.141206 -151.786721 
L 234.792069 -149.933187 
L 234.407005 -148.079653 
L 233.99971 -146.226119 
L 233.583799 -144.372585 
L 233.170664 -142.519051 
L 232.768353 -140.665517 
L 232.381544 -138.811983 
L 232.012246 -136.958449 
L 231.660669 -135.104916 
L 231.325781 -133.251382 
L 231.005375 -131.397848 
L 230.695864 -129.544314 
L 230.39216 -127.69078 
L 230.088036 -125.837246 
L 229.77707 -123.983712 
L 229.454002 -122.130178 
L 229.116101 -120.276644 
L 228.764096 -118.42311 
L 228.402368 -116.569576 
L 228.038312 -114.716042 
L 227.681011 -112.862508 
L 227.339514 -111.008974 
L 227.02104 -109.15544 
L 226.729449 -107.301907 
L 226.464276 -105.448373 
L 226.220592 -103.594839 
L 225.989833 -101.741305 
L 225.761549 -99.887771 
L 225.525753 -98.034237 
L 225.275312 -96.180703 
L 225.007708 -94.327169 
L 224.725653 -92.473635 
L 224.436368 -90.620101 
L 224.14976 -88.766567 
L 223.876096 -86.913033 
L 223.623876 -85.059499 
L 223.398469 -83.205965 
L 223.201758 -81.352431 
L 223.032644 -79.498898 
L 222.888026 -77.645364 
L 222.763815 -75.79183 
L 222.655675 -73.938296 
L 222.55938 -72.084762 
L 222.470939 -70.231228 
L 222.386651 -68.377694 
L 222.30328 -66.52416 
L 222.218366 -64.670626 
L 222.130572 -62.817092 
L 222.039935 -60.963558 
L 221.947858 -59.110024 
L 221.856828 -57.25649 
z
" id="m07896e6c9f" style="stroke:#3d3d3d;stroke-width:1.5;"/>
    </defs>
    <g clip-path="url(#p45e3c366e0)">
     <use style="fill:#e1812c;stroke:#3d3d3d;stroke-width:1.5;" x="0" xlink:href="#m07896e6c9f" y="288"/>
    </g>
   </g>
   <g id="PolyCollection_3">
    <defs>
     <path d="M 363.222583 -61.91035 
L 362.297417 -61.91035 
L 362.194562 -63.624058 
L 362.08335 -65.337766 
L 361.965429 -67.051474 
L 361.842068 -68.765182 
L 361.713841 -70.47889 
L 361.580453 -72.192598 
L 361.44076 -73.906306 
L 361.292976 -75.620014 
L 361.13503 -77.333722 
L 360.964966 -79.047429 
L 360.781298 -80.761137 
L 360.583212 -82.474845 
L 360.370592 -84.188553 
L 360.143841 -85.902261 
L 359.903589 -87.615969 
L 359.650341 -89.329677 
L 359.384197 -91.043385 
L 359.104747 -92.757093 
L 358.811189 -94.470801 
L 358.502702 -96.184508 
L 358.178986 -97.898216 
L 357.840853 -99.611924 
L 357.490688 -101.325632 
L 357.132616 -103.03934 
L 356.772284 -104.753048 
L 356.416258 -106.466756 
L 356.07114 -108.180464 
L 355.74259 -109.894172 
L 355.434478 -111.60788 
L 355.148333 -113.321587 
L 354.883191 -115.035295 
L 354.63586 -116.749003 
L 354.40153 -118.462711 
L 354.174626 -120.176419 
L 353.949783 -121.890127 
L 353.722781 -123.603835 
L 353.491272 -125.317543 
L 353.255154 -127.031251 
L 353.016444 -128.744959 
L 352.778656 -130.458666 
L 352.545808 -132.172374 
L 352.321287 -133.886082 
L 352.106905 -135.59979 
L 351.902367 -137.313498 
L 351.705268 -139.027206 
L 351.511555 -140.740914 
L 351.31624 -142.454622 
L 351.114176 -144.16833 
L 350.900721 -145.882038 
L 350.672257 -147.595745 
L 350.42661 -149.309453 
L 350.163422 -151.023161 
L 349.884463 -152.736869 
L 349.593844 -154.450577 
L 349.297981 -156.164285 
L 349.005287 -157.877993 
L 348.725573 -159.591701 
L 348.46932 -161.305409 
L 348.246995 -163.019117 
L 348.068589 -164.732824 
L 347.9434 -166.446532 
L 347.88 -168.16024 
L 347.886128 -169.873948 
L 347.968323 -171.587656 
L 348.131165 -173.301364 
L 348.376235 -175.015072 
L 348.701122 -176.72878 
L 349.0989 -178.442488 
L 349.558472 -180.156196 
L 350.0659 -181.869903 
L 350.60649 -183.583611 
L 351.167099 -185.297319 
L 351.737962 -187.011027 
L 352.313455 -188.724735 
L 352.891583 -190.438443 
L 353.472407 -192.152151 
L 354.056042 -193.865859 
L 354.64096 -195.579567 
L 355.223216 -197.293275 
L 355.796801 -199.006982 
L 356.354899 -200.72069 
L 356.891485 -202.434398 
L 357.402606 -204.148106 
L 357.886905 -205.861814 
L 358.345224 -207.575522 
L 358.779547 -209.28923 
L 359.191727 -211.002938 
L 359.582473 -212.716646 
L 359.950946 -214.430354 
L 360.29502 -216.144061 
L 360.612042 -217.857769 
L 360.899776 -219.571477 
L 361.157186 -221.285185 
L 361.38483 -222.998893 
L 361.584791 -224.712601 
L 361.760212 -226.426309 
L 361.914647 -228.140017 
L 362.051399 -229.853725 
L 362.173062 -231.567433 
L 363.346938 -231.567433 
L 363.346938 -231.567433 
L 363.468601 -229.853725 
L 363.605353 -228.140017 
L 363.759788 -226.426309 
L 363.935209 -224.712601 
L 364.13517 -222.998893 
L 364.362814 -221.285185 
L 364.620224 -219.571477 
L 364.907958 -217.857769 
L 365.22498 -216.144061 
L 365.569054 -214.430354 
L 365.937527 -212.716646 
L 366.328273 -211.002938 
L 366.740453 -209.28923 
L 367.174776 -207.575522 
L 367.633095 -205.861814 
L 368.117394 -204.148106 
L 368.628515 -202.434398 
L 369.165101 -200.72069 
L 369.723199 -199.006982 
L 370.296784 -197.293275 
L 370.87904 -195.579567 
L 371.463958 -193.865859 
L 372.047593 -192.152151 
L 372.628417 -190.438443 
L 373.206545 -188.724735 
L 373.782038 -187.011027 
L 374.352901 -185.297319 
L 374.91351 -183.583611 
L 375.4541 -181.869903 
L 375.961528 -180.156196 
L 376.4211 -178.442488 
L 376.818878 -176.72878 
L 377.143765 -175.015072 
L 377.388835 -173.301364 
L 377.551677 -171.587656 
L 377.633872 -169.873948 
L 377.64 -168.16024 
L 377.5766 -166.446532 
L 377.451411 -164.732824 
L 377.273005 -163.019117 
L 377.05068 -161.305409 
L 376.794427 -159.591701 
L 376.514713 -157.877993 
L 376.222019 -156.164285 
L 375.926156 -154.450577 
L 375.635537 -152.736869 
L 375.356578 -151.023161 
L 375.09339 -149.309453 
L 374.847743 -147.595745 
L 374.619279 -145.882038 
L 374.405824 -144.16833 
L 374.20376 -142.454622 
L 374.008445 -140.740914 
L 373.814732 -139.027206 
L 373.617633 -137.313498 
L 373.413095 -135.59979 
L 373.198713 -133.886082 
L 372.974192 -132.172374 
L 372.741344 -130.458666 
L 372.503556 -128.744959 
L 372.264846 -127.031251 
L 372.028728 -125.317543 
L 371.797219 -123.603835 
L 371.570217 -121.890127 
L 371.345374 -120.176419 
L 371.11847 -118.462711 
L 370.88414 -116.749003 
L 370.636809 -115.035295 
L 370.371667 -113.321587 
L 370.085522 -111.60788 
L 369.77741 -109.894172 
L 369.44886 -108.180464 
L 369.103742 -106.466756 
L 368.747716 -104.753048 
L 368.387384 -103.03934 
L 368.029312 -101.325632 
L 367.679147 -99.611924 
L 367.341014 -97.898216 
L 367.017298 -96.184508 
L 366.708811 -94.470801 
L 366.415253 -92.757093 
L 366.135803 -91.043385 
L 365.869659 -89.329677 
L 365.616411 -87.615969 
L 365.376159 -85.902261 
L 365.149408 -84.188553 
L 364.936788 -82.474845 
L 364.738702 -80.761137 
L 364.555034 -79.047429 
L 364.38497 -77.333722 
L 364.227024 -75.620014 
L 364.07924 -73.906306 
L 363.939547 -72.192598 
L 363.806159 -70.47889 
L 363.677932 -68.765182 
L 363.554571 -67.051474 
L 363.43665 -65.337766 
L 363.325438 -63.624058 
L 363.222583 -61.91035 
z
" id="m3b5a9bfc0f" style="stroke:#3d3d3d;stroke-width:1.5;"/>
    </defs>
    <g clip-path="url(#p45e3c366e0)">
     <use style="fill:#3a923a;stroke:#3d3d3d;stroke-width:1.5;" x="0" xlink:href="#m3b5a9bfc0f" y="288"/>
    </g>
   </g>
   <g id="patch_3">
    <path clip-path="url(#p45e3c366e0)" d="M 109.8 141.567234 
L 109.8 141.567234 
L 109.8 141.567234 
L 109.8 141.567234 
z
" style="fill:#3274a1;stroke:#3d3d3d;stroke-linejoin:miter;stroke-width:0.75;"/>
   </g>
   <g id="patch_4">
    <path clip-path="url(#p45e3c366e0)" d="M 109.8 141.567234 
L 109.8 141.567234 
L 109.8 141.567234 
L 109.8 141.567234 
z
" style="fill:#e1812c;stroke:#3d3d3d;stroke-linejoin:miter;stroke-width:0.75;"/>
   </g>
   <g id="patch_5">
    <path clip-path="url(#p45e3c366e0)" d="M 109.8 141.567234 
L 109.8 141.567234 
L 109.8 141.567234 
L 109.8 141.567234 
z
" style="fill:#3a923a;stroke:#3d3d3d;stroke-linejoin:miter;stroke-width:0.75;"/>
   </g>
   <g id="matplotlib.axis_1">
    <g id="xtick_1">
     <g id="line2d_1">
      <defs>
       <path d="M 0 0 
L 0 3.5 
" id="m8e258087f3" style="stroke:#000000;stroke-width:0.8;"/>
      </defs>
      <g>
       <use style="stroke:#000000;stroke-width:0.8;" x="109.8" xlink:href="#m8e258087f3" y="252"/>
      </g>
     </g>
     <g id="text_1">
      <!-- train -->
      <g transform="translate(98.1625 266.598437)scale(0.1 -0.1)">
       <defs>
        <path d="M 18.3125 70.21875 
L 18.3125 54.6875 
L 36.8125 54.6875 
L 36.8125 47.703125 
L 18.3125 47.703125 
L 18.3125 18.015625 
Q 18.3125 11.328125 20.140625 9.421875 
Q 21.96875 7.515625 27.59375 7.515625 
L 36.8125 7.515625 
L 36.8125 0 
L 27.59375 0 
Q 17.1875 0 13.234375 3.875 
Q 9.28125 7.765625 9.28125 18.015625 
L 9.28125 47.703125 
L 2.6875 47.703125 
L 2.6875 54.6875 
L 9.28125 54.6875 
L 9.28125 70.21875 
z
" id="DejaVuSans-116"/>
        <path d="M 41.109375 46.296875 
Q 39.59375 47.171875 37.8125 47.578125 
Q 36.03125 48 33.890625 48 
Q 26.265625 48 22.1875 43.046875 
Q 18.109375 38.09375 18.109375 28.8125 
L 18.109375 0 
L 9.078125 0 
L 9.078125 54.6875 
L 18.109375 54.6875 
L 18.109375 46.1875 
Q 20.953125 51.171875 25.484375 53.578125 
Q 30.03125 56 36.53125 56 
Q 37.453125 56 38.578125 55.875 
Q 39.703125 55.765625 41.0625 55.515625 
z
" id="DejaVuSans-114"/>
        <path d="M 34.28125 27.484375 
Q 23.390625 27.484375 19.1875 25 
Q 14.984375 22.515625 14.984375 16.5 
Q 14.984375 11.71875 18.140625 8.90625 
Q 21.296875 6.109375 26.703125 6.109375 
Q 34.1875 6.109375 38.703125 11.40625 
Q 43.21875 16.703125 43.21875 25.484375 
L 43.21875 27.484375 
z
M 52.203125 31.203125 
L 52.203125 0 
L 43.21875 0 
L 43.21875 8.296875 
Q 40.140625 3.328125 35.546875 0.953125 
Q 30.953125 -1.421875 24.3125 -1.421875 
Q 15.921875 -1.421875 10.953125 3.296875 
Q 6 8.015625 6 15.921875 
Q 6 25.140625 12.171875 29.828125 
Q 18.359375 34.515625 30.609375 34.515625 
L 43.21875 34.515625 
L 43.21875 35.40625 
Q 43.21875 41.609375 39.140625 45 
Q 35.0625 48.390625 27.6875 48.390625 
Q 23 48.390625 18.546875 47.265625 
Q 14.109375 46.140625 10.015625 43.890625 
L 10.015625 52.203125 
Q 14.9375 54.109375 19.578125 55.046875 
Q 24.21875 56 28.609375 56 
Q 40.484375 56 46.34375 49.84375 
Q 52.203125 43.703125 52.203125 31.203125 
z
" id="DejaVuSans-97"/>
        <path d="M 9.421875 54.6875 
L 18.40625 54.6875 
L 18.40625 0 
L 9.421875 0 
z
M 9.421875 75.984375 
L 18.40625 75.984375 
L 18.40625 64.59375 
L 9.421875 64.59375 
z
" id="DejaVuSans-105"/>
        <path d="M 54.890625 33.015625 
L 54.890625 0 
L 45.90625 0 
L 45.90625 32.71875 
Q 45.90625 40.484375 42.875 44.328125 
Q 39.84375 48.1875 33.796875 48.1875 
Q 26.515625 48.1875 22.3125 43.546875 
Q 18.109375 38.921875 18.109375 30.90625 
L 18.109375 0 
L 9.078125 0 
L 9.078125 54.6875 
L 18.109375 54.6875 
L 18.109375 46.1875 
Q 21.34375 51.125 25.703125 53.5625 
Q 30.078125 56 35.796875 56 
Q 45.21875 56 50.046875 50.171875 
Q 54.890625 44.34375 54.890625 33.015625 
z
" id="DejaVuSans-110"/>
       </defs>
       <use xlink:href="#DejaVuSans-116"/>
       <use x="39.208984" xlink:href="#DejaVuSans-114"/>
       <use x="80.322266" xlink:href="#DejaVuSans-97"/>
       <use x="141.601562" xlink:href="#DejaVuSans-105"/>
       <use x="169.384766" xlink:href="#DejaVuSans-110"/>
      </g>
     </g>
    </g>
    <g id="xtick_2">
     <g id="line2d_2">
      <g>
       <use style="stroke:#000000;stroke-width:0.8;" x="221.4" xlink:href="#m8e258087f3" y="252"/>
      </g>
     </g>
     <g id="text_2">
      <!-- val -->
      <g transform="translate(213.9875 266.598437)scale(0.1 -0.1)">
       <defs>
        <path d="M 2.984375 54.6875 
L 12.5 54.6875 
L 29.59375 8.796875 
L 46.6875 54.6875 
L 56.203125 54.6875 
L 35.6875 0 
L 23.484375 0 
z
" id="DejaVuSans-118"/>
        <path d="M 9.421875 75.984375 
L 18.40625 75.984375 
L 18.40625 0 
L 9.421875 0 
z
" id="DejaVuSans-108"/>
       </defs>
       <use xlink:href="#DejaVuSans-118"/>
       <use x="59.179688" xlink:href="#DejaVuSans-97"/>
       <use x="120.458984" xlink:href="#DejaVuSans-108"/>
      </g>
     </g>
    </g>
    <g id="xtick_3">
     <g id="line2d_3">
      <g>
       <use style="stroke:#000000;stroke-width:0.8;" x="333" xlink:href="#m8e258087f3" y="252"/>
      </g>
     </g>
     <g id="text_3">
      <!-- test -->
      <g transform="translate(323.398438 266.598437)scale(0.1 -0.1)">
       <defs>
        <path d="M 56.203125 29.59375 
L 56.203125 25.203125 
L 14.890625 25.203125 
Q 15.484375 15.921875 20.484375 11.0625 
Q 25.484375 6.203125 34.421875 6.203125 
Q 39.59375 6.203125 44.453125 7.46875 
Q 49.3125 8.734375 54.109375 11.28125 
L 54.109375 2.78125 
Q 49.265625 0.734375 44.1875 -0.34375 
Q 39.109375 -1.421875 33.890625 -1.421875 
Q 20.796875 -1.421875 13.15625 6.1875 
Q 5.515625 13.8125 5.515625 26.8125 
Q 5.515625 40.234375 12.765625 48.109375 
Q 20.015625 56 32.328125 56 
Q 43.359375 56 49.78125 48.890625 
Q 56.203125 41.796875 56.203125 29.59375 
z
M 47.21875 32.234375 
Q 47.125 39.59375 43.09375 43.984375 
Q 39.0625 48.390625 32.421875 48.390625 
Q 24.90625 48.390625 20.390625 44.140625 
Q 15.875 39.890625 15.1875 32.171875 
z
" id="DejaVuSans-101"/>
        <path d="M 44.28125 53.078125 
L 44.28125 44.578125 
Q 40.484375 46.53125 36.375 47.5 
Q 32.28125 48.484375 27.875 48.484375 
Q 21.1875 48.484375 17.84375 46.4375 
Q 14.5 44.390625 14.5 40.28125 
Q 14.5 37.15625 16.890625 35.375 
Q 19.28125 33.59375 26.515625 31.984375 
L 29.59375 31.296875 
Q 39.15625 29.25 43.1875 25.515625 
Q 47.21875 21.78125 47.21875 15.09375 
Q 47.21875 7.46875 41.1875 3.015625 
Q 35.15625 -1.421875 24.609375 -1.421875 
Q 20.21875 -1.421875 15.453125 -0.5625 
Q 10.6875 0.296875 5.421875 2 
L 5.421875 11.28125 
Q 10.40625 8.6875 15.234375 7.390625 
Q 20.0625 6.109375 24.8125 6.109375 
Q 31.15625 6.109375 34.5625 8.28125 
Q 37.984375 10.453125 37.984375 14.40625 
Q 37.984375 18.0625 35.515625 20.015625 
Q 33.0625 21.96875 24.703125 23.78125 
L 21.578125 24.515625 
Q 13.234375 26.265625 9.515625 29.90625 
Q 5.8125 33.546875 5.8125 39.890625 
Q 5.8125 47.609375 11.28125 51.796875 
Q 16.75 56 26.8125 56 
Q 31.78125 56 36.171875 55.265625 
Q 40.578125 54.546875 44.28125 53.078125 
z
" id="DejaVuSans-115"/>
       </defs>
       <use xlink:href="#DejaVuSans-116"/>
       <use x="39.208984" xlink:href="#DejaVuSans-101"/>
       <use x="100.732422" xlink:href="#DejaVuSans-115"/>
       <use x="152.832031" xlink:href="#DejaVuSans-116"/>
      </g>
     </g>
    </g>
    <g id="text_4">
     <!-- set -->
     <g transform="translate(213.758594 280.276563)scale(0.1 -0.1)">
      <use xlink:href="#DejaVuSans-115"/>
      <use x="52.099609" xlink:href="#DejaVuSans-101"/>
      <use x="113.623047" xlink:href="#DejaVuSans-116"/>
     </g>
    </g>
   </g>
   <g id="matplotlib.axis_2">
    <g id="ytick_1">
     <g id="line2d_4">
      <defs>
       <path d="M 0 0 
L -3.5 0 
" id="m34c36684c7" style="stroke:#000000;stroke-width:0.8;"/>
      </defs>
      <g>
       <use style="stroke:#000000;stroke-width:0.8;" x="54" xlink:href="#m34c36684c7" y="228.703168"/>
      </g>
     </g>
     <g id="text_5">
      <!-- −10 -->
      <g transform="translate(25.895312 232.502387)scale(0.1 -0.1)">
       <defs>
        <path d="M 10.59375 35.5 
L 73.1875 35.5 
L 73.1875 27.203125 
L 10.59375 27.203125 
z
" id="DejaVuSans-8722"/>
        <path d="M 12.40625 8.296875 
L 28.515625 8.296875 
L 28.515625 63.921875 
L 10.984375 60.40625 
L 10.984375 69.390625 
L 28.421875 72.90625 
L 38.28125 72.90625 
L 38.28125 8.296875 
L 54.390625 8.296875 
L 54.390625 0 
L 12.40625 0 
z
" id="DejaVuSans-49"/>
        <path d="M 31.78125 66.40625 
Q 24.171875 66.40625 20.328125 58.90625 
Q 16.5 51.421875 16.5 36.375 
Q 16.5 21.390625 20.328125 13.890625 
Q 24.171875 6.390625 31.78125 6.390625 
Q 39.453125 6.390625 43.28125 13.890625 
Q 47.125 21.390625 47.125 36.375 
Q 47.125 51.421875 43.28125 58.90625 
Q 39.453125 66.40625 31.78125 66.40625 
z
M 31.78125 74.21875 
Q 44.046875 74.21875 50.515625 64.515625 
Q 56.984375 54.828125 56.984375 36.375 
Q 56.984375 17.96875 50.515625 8.265625 
Q 44.046875 -1.421875 31.78125 -1.421875 
Q 19.53125 -1.421875 13.0625 8.265625 
Q 6.59375 17.96875 6.59375 36.375 
Q 6.59375 54.828125 13.0625 64.515625 
Q 19.53125 74.21875 31.78125 74.21875 
z
" id="DejaVuSans-48"/>
       </defs>
       <use xlink:href="#DejaVuSans-8722"/>
       <use x="83.789062" xlink:href="#DejaVuSans-49"/>
       <use x="147.412109" xlink:href="#DejaVuSans-48"/>
      </g>
     </g>
    </g>
    <g id="ytick_2">
     <g id="line2d_5">
      <g>
       <use style="stroke:#000000;stroke-width:0.8;" x="54" xlink:href="#m34c36684c7" y="185.135201"/>
      </g>
     </g>
     <g id="text_6">
      <!-- −5 -->
      <g transform="translate(32.257812 188.934419)scale(0.1 -0.1)">
       <defs>
        <path d="M 10.796875 72.90625 
L 49.515625 72.90625 
L 49.515625 64.59375 
L 19.828125 64.59375 
L 19.828125 46.734375 
Q 21.96875 47.46875 24.109375 47.828125 
Q 26.265625 48.1875 28.421875 48.1875 
Q 40.625 48.1875 47.75 41.5 
Q 54.890625 34.8125 54.890625 23.390625 
Q 54.890625 11.625 47.5625 5.09375 
Q 40.234375 -1.421875 26.90625 -1.421875 
Q 22.3125 -1.421875 17.546875 -0.640625 
Q 12.796875 0.140625 7.71875 1.703125 
L 7.71875 11.625 
Q 12.109375 9.234375 16.796875 8.0625 
Q 21.484375 6.890625 26.703125 6.890625 
Q 35.15625 6.890625 40.078125 11.328125 
Q 45.015625 15.765625 45.015625 23.390625 
Q 45.015625 31 40.078125 35.4375 
Q 35.15625 39.890625 26.703125 39.890625 
Q 22.75 39.890625 18.8125 39.015625 
Q 14.890625 38.140625 10.796875 36.28125 
z
" id="DejaVuSans-53"/>
       </defs>
       <use xlink:href="#DejaVuSans-8722"/>
       <use x="83.789062" xlink:href="#DejaVuSans-53"/>
      </g>
     </g>
    </g>
    <g id="ytick_3">
     <g id="line2d_6">
      <g>
       <use style="stroke:#000000;stroke-width:0.8;" x="54" xlink:href="#m34c36684c7" y="141.567234"/>
      </g>
     </g>
     <g id="text_7">
      <!-- 0 -->
      <g transform="translate(40.6375 145.366452)scale(0.1 -0.1)">
       <use xlink:href="#DejaVuSans-48"/>
      </g>
     </g>
    </g>
    <g id="ytick_4">
     <g id="line2d_7">
      <g>
       <use style="stroke:#000000;stroke-width:0.8;" x="54" xlink:href="#m34c36684c7" y="97.999266"/>
      </g>
     </g>
     <g id="text_8">
      <!-- 5 -->
      <g transform="translate(40.6375 101.798485)scale(0.1 -0.1)">
       <use xlink:href="#DejaVuSans-53"/>
      </g>
     </g>
    </g>
    <g id="ytick_5">
     <g id="line2d_8">
      <g>
       <use style="stroke:#000000;stroke-width:0.8;" x="54" xlink:href="#m34c36684c7" y="54.431299"/>
      </g>
     </g>
     <g id="text_9">
      <!-- 10 -->
      <g transform="translate(34.275 58.230518)scale(0.1 -0.1)">
       <use xlink:href="#DejaVuSans-49"/>
       <use x="63.623047" xlink:href="#DejaVuSans-48"/>
      </g>
     </g>
    </g>
    <g id="text_10">
     <!-- value -->
     <g transform="translate(19.815625 156.937813)rotate(-90)scale(0.1 -0.1)">
      <defs>
       <path d="M 8.5 21.578125 
L 8.5 54.6875 
L 17.484375 54.6875 
L 17.484375 21.921875 
Q 17.484375 14.15625 20.5 10.265625 
Q 23.53125 6.390625 29.59375 6.390625 
Q 36.859375 6.390625 41.078125 11.03125 
Q 45.3125 15.671875 45.3125 23.6875 
L 45.3125 54.6875 
L 54.296875 54.6875 
L 54.296875 0 
L 45.3125 0 
L 45.3125 8.40625 
Q 42.046875 3.421875 37.71875 1 
Q 33.40625 -1.421875 27.6875 -1.421875 
Q 18.265625 -1.421875 13.375 4.4375 
Q 8.5 10.296875 8.5 21.578125 
z
M 31.109375 56 
z
" id="DejaVuSans-117"/>
      </defs>
      <use xlink:href="#DejaVuSans-118"/>
      <use x="59.179688" xlink:href="#DejaVuSans-97"/>
      <use x="120.458984" xlink:href="#DejaVuSans-108"/>
      <use x="148.242188" xlink:href="#DejaVuSans-117"/>
      <use x="211.621094" xlink:href="#DejaVuSans-101"/>
     </g>
    </g>
   </g>
   <g id="line2d_9">
    <path clip-path="url(#p45e3c366e0)" d="M 80.04 223.732762 
L 80.04 44.443636 
" style="fill:none;stroke:#3d3d3d;stroke-linecap:square;stroke-width:1.5;"/>
   </g>
   <g id="line2d_10">
    <path clip-path="url(#p45e3c366e0)" d="M 80.04 154.547324 
L 80.04 106.976258 
" style="fill:none;stroke:#3d3d3d;stroke-linecap:square;stroke-width:4.5;"/>
   </g>
   <g id="line2d_11">
    <path clip-path="url(#p45e3c366e0)" d="M 221.4 221.179347 
L 221.4 47.24365 
" style="fill:none;stroke:#3d3d3d;stroke-linecap:square;stroke-width:1.5;"/>
   </g>
   <g id="line2d_12">
    <path clip-path="url(#p45e3c366e0)" d="M 221.4 154.516428 
L 221.4 108.804396 
" style="fill:none;stroke:#3d3d3d;stroke-linecap:square;stroke-width:4.5;"/>
   </g>
   <g id="line2d_13">
    <path clip-path="url(#p45e3c366e0)" d="M 362.76 226.08965 
L 362.76 56.432567 
" style="fill:none;stroke:#3d3d3d;stroke-linecap:square;stroke-width:1.5;"/>
   </g>
   <g id="line2d_14">
    <path clip-path="url(#p45e3c366e0)" d="M 362.76 157.752812 
L 362.76 110.295259 
" style="fill:none;stroke:#3d3d3d;stroke-linecap:square;stroke-width:4.5;"/>
   </g>
   <g id="patch_6">
    <path d="M 54 252 
L 54 34.56 
" style="fill:none;stroke:#000000;stroke-linecap:square;stroke-linejoin:miter;stroke-width:0.8;"/>
   </g>
   <g id="patch_7">
    <path d="M 388.8 252 
L 388.8 34.56 
" style="fill:none;stroke:#000000;stroke-linecap:square;stroke-linejoin:miter;stroke-width:0.8;"/>
   </g>
   <g id="patch_8">
    <path d="M 54 252 
L 388.8 252 
" style="fill:none;stroke:#000000;stroke-linecap:square;stroke-linejoin:miter;stroke-width:0.8;"/>
   </g>
   <g id="patch_9">
    <path d="M 54 34.56 
L 388.8 34.56 
" style="fill:none;stroke:#000000;stroke-linecap:square;stroke-linejoin:miter;stroke-width:0.8;"/>
   </g>
   <g id="PathCollection_1">
    <defs>
     <path d="M 0 1.5 
C 0.397805 1.5 0.77937 1.341951 1.06066 1.06066 
C 1.341951 0.77937 1.5 0.397805 1.5 0 
C 1.5 -0.397805 1.341951 -0.77937 1.06066 -1.06066 
C 0.77937 -1.341951 0.397805 -1.5 0 -1.5 
C -0.397805 -1.5 -0.77937 -1.341951 -1.06066 -1.06066 
C -1.341951 -0.77937 -1.5 -0.397805 -1.5 0 
C -1.5 0.397805 -1.341951 0.77937 -1.06066 1.06066 
C -0.77937 1.341951 -0.397805 1.5 0 1.5 
z
" id="m089c55bc96" style="stroke:#3d3d3d;"/>
    </defs>
    <g clip-path="url(#p45e3c366e0)">
     <use style="fill:#ffffff;stroke:#3d3d3d;" x="80.04" xlink:href="#m089c55bc96" y="129.668783"/>
    </g>
   </g>
   <g id="PathCollection_2">
    <g clip-path="url(#p45e3c366e0)">
     <use style="fill:#ffffff;stroke:#3d3d3d;" x="221.4" xlink:href="#m089c55bc96" y="129.450166"/>
    </g>
   </g>
   <g id="PathCollection_3">
    <g clip-path="url(#p45e3c366e0)">
     <use style="fill:#ffffff;stroke:#3d3d3d;" x="362.76" xlink:href="#m089c55bc96" y="130.628158"/>
    </g>
   </g>
   <g id="legend_1">
    <g id="patch_10">
     <path d="M 326.525 101.2725 
L 381.8 101.2725 
Q 383.8 101.2725 383.8 99.2725 
L 383.8 41.56 
Q 383.8 39.56 381.8 39.56 
L 326.525 39.56 
Q 324.525 39.56 324.525 41.56 
L 324.525 99.2725 
Q 324.525 101.2725 326.525 101.2725 
z
" style="fill:#ffffff;opacity:0.8;stroke:#cccccc;stroke-linejoin:miter;"/>
    </g>
    <g id="text_11">
     <!-- set -->
     <g transform="translate(346.521094 51.158437)scale(0.1 -0.1)">
      <use xlink:href="#DejaVuSans-115"/>
      <use x="52.099609" xlink:href="#DejaVuSans-101"/>
      <use x="113.623047" xlink:href="#DejaVuSans-116"/>
     </g>
    </g>
    <g id="patch_11">
     <path d="M 328.525 65.836562 
L 348.525 65.836562 
L 348.525 58.836562 
L 328.525 58.836562 
z
" style="fill:#3274a1;stroke:#3d3d3d;stroke-linejoin:miter;stroke-width:0.75;"/>
    </g>
    <g id="text_12">
     <!-- train -->
     <g transform="translate(356.525 65.836562)scale(0.1 -0.1)">
      <use xlink:href="#DejaVuSans-116"/>
      <use x="39.208984" xlink:href="#DejaVuSans-114"/>
      <use x="80.322266" xlink:href="#DejaVuSans-97"/>
      <use x="141.601562" xlink:href="#DejaVuSans-105"/>
      <use x="169.384766" xlink:href="#DejaVuSans-110"/>
     </g>
    </g>
    <g id="patch_12">
     <path d="M 328.525 80.514687 
L 348.525 80.514687 
L 348.525 73.514687 
L 328.525 73.514687 
z
" style="fill:#e1812c;stroke:#3d3d3d;stroke-linejoin:miter;stroke-width:0.75;"/>
    </g>
    <g id="text_13">
     <!-- val -->
     <g transform="translate(356.525 80.514687)scale(0.1 -0.1)">
      <use xlink:href="#DejaVuSans-118"/>
      <use x="59.179688" xlink:href="#DejaVuSans-97"/>
      <use x="120.458984" xlink:href="#DejaVuSans-108"/>
     </g>
    </g>
    <g id="patch_13">
     <path d="M 328.525 95.192813 
L 348.525 95.192813 
L 348.525 88.192813 
L 328.525 88.192813 
z
" style="fill:#3a923a;stroke:#3d3d3d;stroke-linejoin:miter;stroke-width:0.75;"/>
    </g>
    <g id="text_14">
     <!-- test -->
     <g transform="translate(356.525 95.192813)scale(0.1 -0.1)">
      <use xlink:href="#DejaVuSans-116"/>
      <use x="39.208984" xlink:href="#DejaVuSans-101"/>
      <use x="100.732422" xlink:href="#DejaVuSans-115"/>
      <use x="152.832031" xlink:href="#DejaVuSans-116"/>
     </g>
    </g>
   </g>
  </g>
 </g>
 <defs>
  <clipPath id="p45e3c366e0">
   <rect height="217.44" width="334.8" x="54" y="34.56"/>
  </clipPath>
 </defs>
</svg>
