<?xml version="1.0" encoding="utf-8" standalone="no"?>
<!DOCTYPE svg PUBLIC "-//W3C//DTD SVG 1.1//EN"
  "http://www.w3.org/Graphics/SVG/1.1/DTD/svg11.dtd">
<!-- Created with matplotlib (https://matplotlib.org/) -->
<svg height="288pt" version="1.1" viewBox="0 0 432 288" width="432pt" xmlns="http://www.w3.org/2000/svg" xmlns:xlink="http://www.w3.org/1999/xlink">
 <metadata>
  <rdf:RDF xmlns:cc="http://creativecommons.org/ns#" xmlns:dc="http://purl.org/dc/elements/1.1/" xmlns:rdf="http://www.w3.org/1999/02/22-rdf-syntax-ns#">
   <cc:Work>
    <dc:type rdf:resource="http://purl.org/dc/dcmitype/StillImage"/>
    <dc:date>2022-06-10T02:57:02.241266</dc:date>
    <dc:format>image/svg+xml</dc:format>
    <dc:creator>
     <cc:Agent>
      <dc:title>Matplotlib v3.3.4, https://matplotlib.org/</dc:title>
     </cc:Agent>
    </dc:creator>
   </cc:Work>
  </rdf:RDF>
 </metadata>
 <defs>
  <style type="text/css">*{stroke-linecap:butt;stroke-linejoin:round;}</style>
 </defs>
 <g id="figure_1">
  <g id="patch_1">
   <path d="M 0 288 
L 432 288 
L 432 0 
L 0 0 
z
" style="fill:#ffffff;"/>
  </g>
  <g id="axes_1">
   <g id="patch_2">
    <path d="M 54 252 
L 388.8 252 
L 388.8 34.56 
L 54 34.56 
z
" style="fill:#ffffff;"/>
   </g>
   <g id="PolyCollection_1">
    <defs>
     <path d="M 90.055234 -45.911606 
L 70.024766 -45.911606 
L 66.571943 -47.908017 
L 65.16 -49.904429 
L 65.846402 -51.900841 
L 67.540236 -53.897252 
L 69.108837 -55.893664 
L 70.064588 -57.890076 
L 70.443267 -59.886488 
L 70.425707 -61.882899 
L 70.148634 -63.879311 
L 69.707063 -65.875723 
L 69.212558 -67.872134 
L 68.805223 -69.868546 
L 68.610102 -71.864958 
L 68.704168 -73.861369 
L 69.106418 -75.857781 
L 69.769608 -77.854193 
L 70.597599 -79.850604 
L 71.495183 -81.847016 
L 72.397476 -83.843428 
L 73.253161 -85.83984 
L 74.019053 -87.836251 
L 74.703441 -89.832663 
L 75.374013 -91.829075 
L 76.068807 -93.825486 
L 76.729389 -95.821898 
L 77.263103 -97.81831 
L 77.642007 -99.814721 
L 77.913812 -101.811133 
L 78.141745 -103.807545 
L 78.361284 -105.803957 
L 78.582352 -107.800368 
L 78.807401 -109.79678 
L 79.03866 -111.793192 
L 79.27064 -113.789603 
L 79.48512 -115.786015 
L 79.660943 -117.782427 
L 79.788018 -119.778838 
L 79.871361 -121.77525 
L 79.923425 -123.771662 
L 79.953508 -125.768074 
L 79.964556 -127.764485 
L 79.959302 -129.760897 
L 79.946646 -131.757309 
L 79.937761 -133.75372 
L 79.936958 -135.750132 
L 79.942295 -137.746544 
L 79.953579 -139.742955 
L 79.972506 -141.739367 
L 79.995758 -143.735779 
L 80.01464 -145.73219 
L 80.022862 -147.728602 
L 80.022033 -149.725014 
L 80.01942 -151.721426 
L 80.020996 -153.717837 
L 80.026417 -155.714249 
L 80.030761 -157.710661 
L 80.030118 -159.707072 
L 80.025067 -161.703484 
L 80.020274 -163.699896 
L 80.020401 -165.696307 
L 80.025278 -167.692719 
L 80.030059 -169.689131 
L 80.030227 -171.685543 
L 80.02563 -173.681954 
L 80.020608 -175.678366 
L 80.020212 -177.674778 
L 80.025248 -179.671189 
L 80.032005 -181.667601 
L 80.036853 -183.664013 
L 80.0391 -185.660424 
L 80.039813 -187.656836 
L 80.039972 -189.653248 
L 80.039997 -191.64966 
L 80.04 -193.646071 
L 80.039999 -195.642483 
L 80.039991 -197.638895 
L 80.039931 -199.635306 
L 80.039604 -201.631718 
L 80.038351 -203.62813 
L 80.035009 -205.624541 
L 80.029029 -207.620953 
L 80.022484 -209.617365 
L 80.019686 -211.613776 
L 80.02289 -213.610188 
L 80.029532 -215.6066 
L 80.035348 -217.603012 
L 80.038499 -219.599423 
L 80.039648 -221.595835 
L 80.03994 -223.592247 
L 80.039993 -225.588658 
L 80.039999 -227.58507 
L 80.039992 -229.581482 
L 80.039936 -231.577893 
L 80.039627 -233.574305 
L 80.038426 -235.570717 
L 80.035181 -237.567129 
L 80.029281 -239.56354 
L 80.022684 -241.559952 
L 80.019682 -243.556364 
L 80.060318 -243.556364 
L 80.060318 -243.556364 
L 80.057316 -241.559952 
L 80.050719 -239.56354 
L 80.044819 -237.567129 
L 80.041574 -235.570717 
L 80.040373 -233.574305 
L 80.040064 -231.577893 
L 80.040008 -229.581482 
L 80.040001 -227.58507 
L 80.040007 -225.588658 
L 80.04006 -223.592247 
L 80.040352 -221.595835 
L 80.041501 -219.599423 
L 80.044652 -217.603012 
L 80.050468 -215.6066 
L 80.05711 -213.610188 
L 80.060314 -211.613776 
L 80.057516 -209.617365 
L 80.050971 -207.620953 
L 80.044991 -205.624541 
L 80.041649 -203.62813 
L 80.040396 -201.631718 
L 80.040069 -199.635306 
L 80.040009 -197.638895 
L 80.040001 -195.642483 
L 80.04 -193.646071 
L 80.040003 -191.64966 
L 80.040028 -189.653248 
L 80.040187 -187.656836 
L 80.0409 -185.660424 
L 80.043147 -183.664013 
L 80.047995 -181.667601 
L 80.054752 -179.671189 
L 80.059788 -177.674778 
L 80.059392 -175.678366 
L 80.05437 -173.681954 
L 80.049773 -171.685543 
L 80.049941 -169.689131 
L 80.054722 -167.692719 
L 80.059599 -165.696307 
L 80.059726 -163.699896 
L 80.054933 -161.703484 
L 80.049882 -159.707072 
L 80.049239 -157.710661 
L 80.053583 -155.714249 
L 80.059004 -153.717837 
L 80.06058 -151.721426 
L 80.057967 -149.725014 
L 80.057138 -147.728602 
L 80.06536 -145.73219 
L 80.084242 -143.735779 
L 80.107494 -141.739367 
L 80.126421 -139.742955 
L 80.137705 -137.746544 
L 80.143042 -135.750132 
L 80.142239 -133.75372 
L 80.133354 -131.757309 
L 80.120698 -129.760897 
L 80.115444 -127.764485 
L 80.126492 -125.768074 
L 80.156575 -123.771662 
L 80.208639 -121.77525 
L 80.291982 -119.778838 
L 80.419057 -117.782427 
L 80.59488 -115.786015 
L 80.80936 -113.789603 
L 81.04134 -111.793192 
L 81.272599 -109.79678 
L 81.497648 -107.800368 
L 81.718716 -105.803957 
L 81.938255 -103.807545 
L 82.166188 -101.811133 
L 82.437993 -99.814721 
L 82.816897 -97.81831 
L 83.350611 -95.821898 
L 84.011193 -93.825486 
L 84.705987 -91.829075 
L 85.376559 -89.832663 
L 86.060947 -87.836251 
L 86.826839 -85.83984 
L 87.682524 -83.843428 
L 88.584817 -81.847016 
L 89.482401 -79.850604 
L 90.310392 -77.854193 
L 90.973582 -75.857781 
L 91.375832 -73.861369 
L 91.469898 -71.864958 
L 91.274777 -69.868546 
L 90.867442 -67.872134 
L 90.372937 -65.875723 
L 89.931366 -63.879311 
L 89.654293 -61.882899 
L 89.636733 -59.886488 
L 90.015412 -57.890076 
L 90.971163 -55.893664 
L 92.539764 -53.897252 
L 94.233598 -51.900841 
L 94.92 -49.904429 
L 93.508057 -47.908017 
L 90.055234 -45.911606 
z
" id="mbecd67bd30" style="stroke:#3d3d3d;stroke-width:1.5;"/>
    </defs>
    <g clip-path="url(#p7968428ea6)">
     <use style="fill:#3274a1;stroke:#3d3d3d;stroke-width:1.5;" x="0" xlink:href="#mbecd67bd30" y="288"/>
    </g>
   </g>
   <g id="PolyCollection_2">
    <defs>
     <path d="M 231.612028 -45.883636 
L 211.187972 -45.883636 
L 209.804907 -46.847317 
L 208.60951 -47.810998 
L 207.663245 -48.774678 
L 207.00081 -49.738359 
L 206.627188 -50.70204 
L 206.52 -51.66572 
L 206.636148 -52.629401 
L 206.920841 -53.593081 
L 207.316727 -54.556762 
L 207.771199 -55.520443 
L 208.24075 -56.484123 
L 208.692225 -57.447804 
L 209.101675 -58.411485 
L 209.452021 -59.375165 
L 209.730771 -60.338846 
L 209.928652 -61.302526 
L 210.039439 -62.266207 
L 210.060681 -63.229888 
L 209.994669 -64.193568 
L 209.848961 -65.157249 
L 209.636061 -66.12093 
L 209.372214 -67.08461 
L 209.075686 -68.048291 
L 208.765032 -69.011972 
L 208.457804 -69.975652 
L 208.169902 -70.939333 
L 207.915474 -71.903013 
L 207.707062 -72.866694 
L 207.555659 -73.830375 
L 207.470433 -74.794055 
L 207.458132 -75.757736 
L 207.522333 -76.721417 
L 207.662863 -77.685097 
L 207.875645 -78.648778 
L 208.15314 -79.612458 
L 208.485324 -80.576139 
L 208.861026 -81.53982 
L 209.269373 -82.5035 
L 209.701085 -83.467181 
L 210.14942 -84.430862 
L 210.610669 -85.394542 
L 211.08411 -86.358223 
L 211.571422 -87.321904 
L 212.075584 -88.285584 
L 212.599431 -89.249265 
L 213.144091 -90.212945 
L 213.707673 -91.176626 
L 214.284526 -92.140307 
L 214.865315 -93.103987 
L 215.437906 -94.067668 
L 215.988891 -95.031349 
L 216.505345 -95.995029 
L 216.976442 -96.95871 
L 217.394576 -97.922391 
L 217.755868 -98.886071 
L 218.060076 -99.849752 
L 218.310066 -100.813432 
L 218.511073 -101.777113 
L 218.669915 -102.740794 
L 218.794268 -103.704474 
L 218.892048 -104.668155 
L 218.970877 -105.631836 
L 219.037648 -106.595516 
L 219.098182 -107.559197 
L 219.157038 -108.522877 
L 219.217503 -109.486558 
L 219.28178 -110.450239 
L 219.351322 -111.413919 
L 219.427201 -112.3776 
L 219.5104 -113.341281 
L 219.601889 -114.304961 
L 219.702471 -115.268642 
L 219.812416 -116.232323 
L 219.931024 -117.196003 
L 220.056271 -118.159684 
L 220.184694 -119.123364 
L 220.311621 -120.087045 
L 220.431723 -121.050726 
L 220.539815 -122.014406 
L 220.63172 -122.978087 
L 220.704995 -123.941768 
L 220.759346 -124.905448 
L 220.796629 -125.869129 
L 220.820447 -126.832809 
L 220.835444 -127.79649 
L 220.846474 -128.760171 
L 220.857846 -129.723851 
L 220.87278 -130.687532 
L 220.893164 -131.651213 
L 220.919584 -132.614893 
L 220.951569 -133.578574 
L 220.987932 -134.542255 
L 221.027122 -135.505935 
L 221.06752 -136.469616 
L 221.10766 -137.433296 
L 221.146353 -138.396977 
L 221.182738 -139.360658 
L 221.216278 -140.324338 
L 221.246702 -141.288019 
L 221.553298 -141.288019 
L 221.553298 -141.288019 
L 221.583722 -140.324338 
L 221.617262 -139.360658 
L 221.653647 -138.396977 
L 221.69234 -137.433296 
L 221.73248 -136.469616 
L 221.772878 -135.505935 
L 221.812068 -134.542255 
L 221.848431 -133.578574 
L 221.880416 -132.614893 
L 221.906836 -131.651213 
L 221.92722 -130.687532 
L 221.942154 -129.723851 
L 221.953526 -128.760171 
L 221.964556 -127.79649 
L 221.979553 -126.832809 
L 222.003371 -125.869129 
L 222.040654 -124.905448 
L 222.095005 -123.941768 
L 222.16828 -122.978087 
L 222.260185 -122.014406 
L 222.368277 -121.050726 
L 222.488379 -120.087045 
L 222.615306 -119.123364 
L 222.743729 -118.159684 
L 222.868976 -117.196003 
L 222.987584 -116.232323 
L 223.097529 -115.268642 
L 223.198111 -114.304961 
L 223.2896 -113.341281 
L 223.372799 -112.3776 
L 223.448678 -111.413919 
L 223.51822 -110.450239 
L 223.582497 -109.486558 
L 223.642962 -108.522877 
L 223.701818 -107.559197 
L 223.762352 -106.595516 
L 223.829123 -105.631836 
L 223.907952 -104.668155 
L 224.005732 -103.704474 
L 224.130085 -102.740794 
L 224.288927 -101.777113 
L 224.489934 -100.813432 
L 224.739924 -99.849752 
L 225.044132 -98.886071 
L 225.405424 -97.922391 
L 225.823558 -96.95871 
L 226.294655 -95.995029 
L 226.811109 -95.031349 
L 227.362094 -94.067668 
L 227.934685 -93.103987 
L 228.515474 -92.140307 
L 229.092327 -91.176626 
L 229.655909 -90.212945 
L 230.200569 -89.249265 
L 230.724416 -88.285584 
L 231.228578 -87.321904 
L 231.71589 -86.358223 
L 232.189331 -85.394542 
L 232.65058 -84.430862 
L 233.098915 -83.467181 
L 233.530627 -82.5035 
L 233.938974 -81.53982 
L 234.314676 -80.576139 
L 234.64686 -79.612458 
L 234.924355 -78.648778 
L 235.137137 -77.685097 
L 235.277667 -76.721417 
L 235.341868 -75.757736 
L 235.329567 -74.794055 
L 235.244341 -73.830375 
L 235.092938 -72.866694 
L 234.884526 -71.903013 
L 234.630098 -70.939333 
L 234.342196 -69.975652 
L 234.034968 -69.011972 
L 233.724314 -68.048291 
L 233.427786 -67.08461 
L 233.163939 -66.12093 
L 232.951039 -65.157249 
L 232.805331 -64.193568 
L 232.739319 -63.229888 
L 232.760561 -62.266207 
L 232.871348 -61.302526 
L 233.069229 -60.338846 
L 233.347979 -59.375165 
L 233.698325 -58.411485 
L 234.107775 -57.447804 
L 234.55925 -56.484123 
L 235.028801 -55.520443 
L 235.483273 -54.556762 
L 235.879159 -53.593081 
L 236.163852 -52.629401 
L 236.28 -51.66572 
L 236.172812 -50.70204 
L 235.79919 -49.738359 
L 235.136755 -48.774678 
L 234.19049 -47.810998 
L 232.995093 -46.847317 
L 231.612028 -45.883636 
z
" id="m93a32a6b03" style="stroke:#3d3d3d;stroke-width:1.5;"/>
    </defs>
    <g clip-path="url(#p7968428ea6)">
     <use style="fill:#e1812c;stroke:#3d3d3d;stroke-width:1.5;" x="0" xlink:href="#m93a32a6b03" y="288"/>
    </g>
   </g>
   <g id="PolyCollection_3">
    <defs>
     <path d="M 373.647423 -45.906515 
L 351.872577 -45.906515 
L 350.007663 -47.282337 
L 348.659483 -48.658158 
L 347.953137 -50.03398 
L 347.88 -51.409801 
L 348.311661 -52.785623 
L 349.048897 -54.161444 
L 349.882686 -55.537266 
L 350.643639 -56.913087 
L 351.226317 -58.288909 
L 351.588291 -59.66473 
L 351.733185 -61.040552 
L 351.689563 -62.416373 
L 351.494631 -63.792195 
L 351.186572 -65.168016 
L 350.804632 -66.543838 
L 350.392983 -67.91966 
L 350.003275 -69.295481 
L 349.69182 -70.671303 
L 349.510429 -72.047124 
L 349.493922 -73.422946 
L 349.650298 -74.798767 
L 349.959219 -76.174589 
L 350.380619 -77.55041 
L 350.86977 -78.926232 
L 351.391534 -80.302053 
L 351.927277 -81.677875 
L 352.47255 -83.053696 
L 353.02906 -84.429518 
L 353.597 -85.805339 
L 354.172037 -87.181161 
L 354.747029 -88.556982 
L 355.315339 -89.932804 
L 355.872509 -91.308625 
L 356.415388 -92.684447 
L 356.940096 -94.060268 
L 357.44064 -95.43609 
L 357.909051 -96.811911 
L 358.336916 -98.187733 
L 358.717831 -99.563555 
L 359.050141 -100.939376 
L 359.338802 -102.315198 
L 359.594859 -103.691019 
L 359.831851 -105.066841 
L 360.060345 -106.442662 
L 360.283498 -107.818484 
L 360.49635 -109.194305 
L 360.689448 -110.570127 
L 360.854867 -111.945948 
L 360.991404 -113.32177 
L 361.106355 -114.697591 
L 361.213181 -116.073413 
L 361.326285 -117.449234 
L 361.455338 -118.825056 
L 361.601632 -120.200877 
L 361.757973 -121.576699 
L 361.912007 -122.95252 
L 362.051313 -124.328342 
L 362.167872 -125.704163 
L 362.260044 -127.079985 
L 362.331607 -128.455807 
L 362.388946 -129.831628 
L 362.438129 -131.20745 
L 362.48319 -132.583271 
L 362.525914 -133.959093 
L 362.566543 -135.334914 
L 362.604596 -136.710736 
L 362.639371 -138.086557 
L 362.670127 -139.462379 
L 362.696195 -140.8382 
L 362.717138 -142.214022 
L 362.732924 -143.589843 
L 362.743999 -144.965665 
L 362.751191 -146.341486 
L 362.755495 -147.717308 
L 362.757866 -149.093129 
L 362.759065 -150.468951 
L 362.759621 -151.844772 
L 362.759859 -153.220594 
L 362.759951 -154.596415 
L 362.759985 -155.972237 
L 362.759995 -157.348059 
L 362.759998 -158.72388 
L 362.759999 -160.099702 
L 362.759996 -161.475523 
L 362.759985 -162.851345 
L 362.759955 -164.227166 
L 362.75987 -165.602988 
L 362.759657 -166.978809 
L 362.759168 -168.354631 
L 362.758148 -169.730452 
L 362.75621 -171.106274 
L 362.75287 -172.482095 
L 362.74767 -173.857917 
L 362.740401 -175.233738 
L 362.731365 -176.60956 
L 362.721542 -177.985381 
L 362.712525 -179.361203 
L 362.706128 -180.737024 
L 362.70381 -182.112846 
L 362.81619 -182.112846 
L 362.81619 -182.112846 
L 362.813872 -180.737024 
L 362.807475 -179.361203 
L 362.798458 -177.985381 
L 362.788635 -176.60956 
L 362.779599 -175.233738 
L 362.77233 -173.857917 
L 362.76713 -172.482095 
L 362.76379 -171.106274 
L 362.761852 -169.730452 
L 362.760832 -168.354631 
L 362.760343 -166.978809 
L 362.76013 -165.602988 
L 362.760045 -164.227166 
L 362.760015 -162.851345 
L 362.760004 -161.475523 
L 362.760001 -160.099702 
L 362.760002 -158.72388 
L 362.760005 -157.348059 
L 362.760015 -155.972237 
L 362.760049 -154.596415 
L 362.760141 -153.220594 
L 362.760379 -151.844772 
L 362.760935 -150.468951 
L 362.762134 -149.093129 
L 362.764505 -147.717308 
L 362.768809 -146.341486 
L 362.776001 -144.965665 
L 362.787076 -143.589843 
L 362.802862 -142.214022 
L 362.823805 -140.8382 
L 362.849873 -139.462379 
L 362.880629 -138.086557 
L 362.915404 -136.710736 
L 362.953457 -135.334914 
L 362.994086 -133.959093 
L 363.03681 -132.583271 
L 363.081871 -131.20745 
L 363.131054 -129.831628 
L 363.188393 -128.455807 
L 363.259956 -127.079985 
L 363.352128 -125.704163 
L 363.468687 -124.328342 
L 363.607993 -122.95252 
L 363.762027 -121.576699 
L 363.918368 -120.200877 
L 364.064662 -118.825056 
L 364.193715 -117.449234 
L 364.306819 -116.073413 
L 364.413645 -114.697591 
L 364.528596 -113.32177 
L 364.665133 -111.945948 
L 364.830552 -110.570127 
L 365.02365 -109.194305 
L 365.236502 -107.818484 
L 365.459655 -106.442662 
L 365.688149 -105.066841 
L 365.925141 -103.691019 
L 366.181198 -102.315198 
L 366.469859 -100.939376 
L 366.802169 -99.563555 
L 367.183084 -98.187733 
L 367.610949 -96.811911 
L 368.07936 -95.43609 
L 368.579904 -94.060268 
L 369.104612 -92.684447 
L 369.647491 -91.308625 
L 370.204661 -89.932804 
L 370.772971 -88.556982 
L 371.347963 -87.181161 
L 371.923 -85.805339 
L 372.49094 -84.429518 
L 373.04745 -83.053696 
L 373.592723 -81.677875 
L 374.128466 -80.302053 
L 374.65023 -78.926232 
L 375.139381 -77.55041 
L 375.560781 -76.174589 
L 375.869702 -74.798767 
L 376.026078 -73.422946 
L 376.009571 -72.047124 
L 375.82818 -70.671303 
L 375.516725 -69.295481 
L 375.127017 -67.91966 
L 374.715368 -66.543838 
L 374.333428 -65.168016 
L 374.025369 -63.792195 
L 373.830437 -62.416373 
L 373.786815 -61.040552 
L 373.931709 -59.66473 
L 374.293683 -58.288909 
L 374.876361 -56.913087 
L 375.637314 -55.537266 
L 376.471103 -54.161444 
L 377.208339 -52.785623 
L 377.64 -51.409801 
L 377.566863 -50.03398 
L 376.860517 -48.658158 
L 375.512337 -47.282337 
L 373.647423 -45.906515 
z
" id="ma29a8ca656" style="stroke:#3d3d3d;stroke-width:1.5;"/>
    </defs>
    <g clip-path="url(#p7968428ea6)">
     <use style="fill:#3a923a;stroke:#3d3d3d;stroke-width:1.5;" x="0" xlink:href="#ma29a8ca656" y="288"/>
    </g>
   </g>
   <g id="patch_3">
    <path clip-path="url(#p7968428ea6)" d="M 109.8 242.284272 
L 109.8 242.284272 
L 109.8 242.284272 
L 109.8 242.284272 
z
" style="fill:#3274a1;stroke:#3d3d3d;stroke-linejoin:miter;stroke-width:0.75;"/>
   </g>
   <g id="patch_4">
    <path clip-path="url(#p7968428ea6)" d="M 109.8 242.284272 
L 109.8 242.284272 
L 109.8 242.284272 
L 109.8 242.284272 
z
" style="fill:#e1812c;stroke:#3d3d3d;stroke-linejoin:miter;stroke-width:0.75;"/>
   </g>
   <g id="patch_5">
    <path clip-path="url(#p7968428ea6)" d="M 109.8 242.284272 
L 109.8 242.284272 
L 109.8 242.284272 
L 109.8 242.284272 
z
" style="fill:#3a923a;stroke:#3d3d3d;stroke-linejoin:miter;stroke-width:0.75;"/>
   </g>
   <g id="matplotlib.axis_1">
    <g id="xtick_1">
     <g id="line2d_1">
      <defs>
       <path d="M 0 0 
L 0 3.5 
" id="mc6570b7a9c" style="stroke:#000000;stroke-width:0.8;"/>
      </defs>
      <g>
       <use style="stroke:#000000;stroke-width:0.8;" x="109.8" xlink:href="#mc6570b7a9c" y="252"/>
      </g>
     </g>
     <g id="text_1">
      <!-- train -->
      <g transform="translate(98.1625 266.598437)scale(0.1 -0.1)">
       <defs>
        <path d="M 18.3125 70.21875 
L 18.3125 54.6875 
L 36.8125 54.6875 
L 36.8125 47.703125 
L 18.3125 47.703125 
L 18.3125 18.015625 
Q 18.3125 11.328125 20.140625 9.421875 
Q 21.96875 7.515625 27.59375 7.515625 
L 36.8125 7.515625 
L 36.8125 0 
L 27.59375 0 
Q 17.1875 0 13.234375 3.875 
Q 9.28125 7.765625 9.28125 18.015625 
L 9.28125 47.703125 
L 2.6875 47.703125 
L 2.6875 54.6875 
L 9.28125 54.6875 
L 9.28125 70.21875 
z
" id="DejaVuSans-116"/>
        <path d="M 41.109375 46.296875 
Q 39.59375 47.171875 37.8125 47.578125 
Q 36.03125 48 33.890625 48 
Q 26.265625 48 22.1875 43.046875 
Q 18.109375 38.09375 18.109375 28.8125 
L 18.109375 0 
L 9.078125 0 
L 9.078125 54.6875 
L 18.109375 54.6875 
L 18.109375 46.1875 
Q 20.953125 51.171875 25.484375 53.578125 
Q 30.03125 56 36.53125 56 
Q 37.453125 56 38.578125 55.875 
Q 39.703125 55.765625 41.0625 55.515625 
z
" id="DejaVuSans-114"/>
        <path d="M 34.28125 27.484375 
Q 23.390625 27.484375 19.1875 25 
Q 14.984375 22.515625 14.984375 16.5 
Q 14.984375 11.71875 18.140625 8.90625 
Q 21.296875 6.109375 26.703125 6.109375 
Q 34.1875 6.109375 38.703125 11.40625 
Q 43.21875 16.703125 43.21875 25.484375 
L 43.21875 27.484375 
z
M 52.203125 31.203125 
L 52.203125 0 
L 43.21875 0 
L 43.21875 8.296875 
Q 40.140625 3.328125 35.546875 0.953125 
Q 30.953125 -1.421875 24.3125 -1.421875 
Q 15.921875 -1.421875 10.953125 3.296875 
Q 6 8.015625 6 15.921875 
Q 6 25.140625 12.171875 29.828125 
Q 18.359375 34.515625 30.609375 34.515625 
L 43.21875 34.515625 
L 43.21875 35.40625 
Q 43.21875 41.609375 39.140625 45 
Q 35.0625 48.390625 27.6875 48.390625 
Q 23 48.390625 18.546875 47.265625 
Q 14.109375 46.140625 10.015625 43.890625 
L 10.015625 52.203125 
Q 14.9375 54.109375 19.578125 55.046875 
Q 24.21875 56 28.609375 56 
Q 40.484375 56 46.34375 49.84375 
Q 52.203125 43.703125 52.203125 31.203125 
z
" id="DejaVuSans-97"/>
        <path d="M 9.421875 54.6875 
L 18.40625 54.6875 
L 18.40625 0 
L 9.421875 0 
z
M 9.421875 75.984375 
L 18.40625 75.984375 
L 18.40625 64.59375 
L 9.421875 64.59375 
z
" id="DejaVuSans-105"/>
        <path d="M 54.890625 33.015625 
L 54.890625 0 
L 45.90625 0 
L 45.90625 32.71875 
Q 45.90625 40.484375 42.875 44.328125 
Q 39.84375 48.1875 33.796875 48.1875 
Q 26.515625 48.1875 22.3125 43.546875 
Q 18.109375 38.921875 18.109375 30.90625 
L 18.109375 0 
L 9.078125 0 
L 9.078125 54.6875 
L 18.109375 54.6875 
L 18.109375 46.1875 
Q 21.34375 51.125 25.703125 53.5625 
Q 30.078125 56 35.796875 56 
Q 45.21875 56 50.046875 50.171875 
Q 54.890625 44.34375 54.890625 33.015625 
z
" id="DejaVuSans-110"/>
       </defs>
       <use xlink:href="#DejaVuSans-116"/>
       <use x="39.208984" xlink:href="#DejaVuSans-114"/>
       <use x="80.322266" xlink:href="#DejaVuSans-97"/>
       <use x="141.601562" xlink:href="#DejaVuSans-105"/>
       <use x="169.384766" xlink:href="#DejaVuSans-110"/>
      </g>
     </g>
    </g>
    <g id="xtick_2">
     <g id="line2d_2">
      <g>
       <use style="stroke:#000000;stroke-width:0.8;" x="221.4" xlink:href="#mc6570b7a9c" y="252"/>
      </g>
     </g>
     <g id="text_2">
      <!-- val -->
      <g transform="translate(213.9875 266.598437)scale(0.1 -0.1)">
       <defs>
        <path d="M 2.984375 54.6875 
L 12.5 54.6875 
L 29.59375 8.796875 
L 46.6875 54.6875 
L 56.203125 54.6875 
L 35.6875 0 
L 23.484375 0 
z
" id="DejaVuSans-118"/>
        <path d="M 9.421875 75.984375 
L 18.40625 75.984375 
L 18.40625 0 
L 9.421875 0 
z
" id="DejaVuSans-108"/>
       </defs>
       <use xlink:href="#DejaVuSans-118"/>
       <use x="59.179688" xlink:href="#DejaVuSans-97"/>
       <use x="120.458984" xlink:href="#DejaVuSans-108"/>
      </g>
     </g>
    </g>
    <g id="xtick_3">
     <g id="line2d_3">
      <g>
       <use style="stroke:#000000;stroke-width:0.8;" x="333" xlink:href="#mc6570b7a9c" y="252"/>
      </g>
     </g>
     <g id="text_3">
      <!-- test -->
      <g transform="translate(323.398438 266.598437)scale(0.1 -0.1)">
       <defs>
        <path d="M 56.203125 29.59375 
L 56.203125 25.203125 
L 14.890625 25.203125 
Q 15.484375 15.921875 20.484375 11.0625 
Q 25.484375 6.203125 34.421875 6.203125 
Q 39.59375 6.203125 44.453125 7.46875 
Q 49.3125 8.734375 54.109375 11.28125 
L 54.109375 2.78125 
Q 49.265625 0.734375 44.1875 -0.34375 
Q 39.109375 -1.421875 33.890625 -1.421875 
Q 20.796875 -1.421875 13.15625 6.1875 
Q 5.515625 13.8125 5.515625 26.8125 
Q 5.515625 40.234375 12.765625 48.109375 
Q 20.015625 56 32.328125 56 
Q 43.359375 56 49.78125 48.890625 
Q 56.203125 41.796875 56.203125 29.59375 
z
M 47.21875 32.234375 
Q 47.125 39.59375 43.09375 43.984375 
Q 39.0625 48.390625 32.421875 48.390625 
Q 24.90625 48.390625 20.390625 44.140625 
Q 15.875 39.890625 15.1875 32.171875 
z
" id="DejaVuSans-101"/>
        <path d="M 44.28125 53.078125 
L 44.28125 44.578125 
Q 40.484375 46.53125 36.375 47.5 
Q 32.28125 48.484375 27.875 48.484375 
Q 21.1875 48.484375 17.84375 46.4375 
Q 14.5 44.390625 14.5 40.28125 
Q 14.5 37.15625 16.890625 35.375 
Q 19.28125 33.59375 26.515625 31.984375 
L 29.59375 31.296875 
Q 39.15625 29.25 43.1875 25.515625 
Q 47.21875 21.78125 47.21875 15.09375 
Q 47.21875 7.46875 41.1875 3.015625 
Q 35.15625 -1.421875 24.609375 -1.421875 
Q 20.21875 -1.421875 15.453125 -0.5625 
Q 10.6875 0.296875 5.421875 2 
L 5.421875 11.28125 
Q 10.40625 8.6875 15.234375 7.390625 
Q 20.0625 6.109375 24.8125 6.109375 
Q 31.15625 6.109375 34.5625 8.28125 
Q 37.984375 10.453125 37.984375 14.40625 
Q 37.984375 18.0625 35.515625 20.015625 
Q 33.0625 21.96875 24.703125 23.78125 
L 21.578125 24.515625 
Q 13.234375 26.265625 9.515625 29.90625 
Q 5.8125 33.546875 5.8125 39.890625 
Q 5.8125 47.609375 11.28125 51.796875 
Q 16.75 56 26.8125 56 
Q 31.78125 56 36.171875 55.265625 
Q 40.578125 54.546875 44.28125 53.078125 
z
" id="DejaVuSans-115"/>
       </defs>
       <use xlink:href="#DejaVuSans-116"/>
       <use x="39.208984" xlink:href="#DejaVuSans-101"/>
       <use x="100.732422" xlink:href="#DejaVuSans-115"/>
       <use x="152.832031" xlink:href="#DejaVuSans-116"/>
      </g>
     </g>
    </g>
    <g id="text_4">
     <!-- set -->
     <g transform="translate(213.758594 280.276563)scale(0.1 -0.1)">
      <use xlink:href="#DejaVuSans-115"/>
      <use x="52.099609" xlink:href="#DejaVuSans-101"/>
      <use x="113.623047" xlink:href="#DejaVuSans-116"/>
     </g>
    </g>
   </g>
   <g id="matplotlib.axis_2">
    <g id="ytick_1">
     <g id="line2d_4">
      <defs>
       <path d="M 0 0 
L -3.5 0 
" id="m4561ebd2b2" style="stroke:#000000;stroke-width:0.8;"/>
      </defs>
      <g>
       <use style="stroke:#000000;stroke-width:0.8;" x="54" xlink:href="#m4561ebd2b2" y="242.284272"/>
      </g>
     </g>
     <g id="text_5">
      <!-- 0.00 -->
      <g transform="translate(24.734375 246.083491)scale(0.1 -0.1)">
       <defs>
        <path d="M 31.78125 66.40625 
Q 24.171875 66.40625 20.328125 58.90625 
Q 16.5 51.421875 16.5 36.375 
Q 16.5 21.390625 20.328125 13.890625 
Q 24.171875 6.390625 31.78125 6.390625 
Q 39.453125 6.390625 43.28125 13.890625 
Q 47.125 21.390625 47.125 36.375 
Q 47.125 51.421875 43.28125 58.90625 
Q 39.453125 66.40625 31.78125 66.40625 
z
M 31.78125 74.21875 
Q 44.046875 74.21875 50.515625 64.515625 
Q 56.984375 54.828125 56.984375 36.375 
Q 56.984375 17.96875 50.515625 8.265625 
Q 44.046875 -1.421875 31.78125 -1.421875 
Q 19.53125 -1.421875 13.0625 8.265625 
Q 6.59375 17.96875 6.59375 36.375 
Q 6.59375 54.828125 13.0625 64.515625 
Q 19.53125 74.21875 31.78125 74.21875 
z
" id="DejaVuSans-48"/>
        <path d="M 10.6875 12.40625 
L 21 12.40625 
L 21 0 
L 10.6875 0 
z
" id="DejaVuSans-46"/>
       </defs>
       <use xlink:href="#DejaVuSans-48"/>
       <use x="63.623047" xlink:href="#DejaVuSans-46"/>
       <use x="95.410156" xlink:href="#DejaVuSans-48"/>
       <use x="159.033203" xlink:href="#DejaVuSans-48"/>
      </g>
     </g>
    </g>
    <g id="ytick_2">
     <g id="line2d_5">
      <g>
       <use style="stroke:#000000;stroke-width:0.8;" x="54" xlink:href="#m4561ebd2b2" y="210.807186"/>
      </g>
     </g>
     <g id="text_6">
      <!-- 0.01 -->
      <g transform="translate(24.734375 214.606405)scale(0.1 -0.1)">
       <defs>
        <path d="M 12.40625 8.296875 
L 28.515625 8.296875 
L 28.515625 63.921875 
L 10.984375 60.40625 
L 10.984375 69.390625 
L 28.421875 72.90625 
L 38.28125 72.90625 
L 38.28125 8.296875 
L 54.390625 8.296875 
L 54.390625 0 
L 12.40625 0 
z
" id="DejaVuSans-49"/>
       </defs>
       <use xlink:href="#DejaVuSans-48"/>
       <use x="63.623047" xlink:href="#DejaVuSans-46"/>
       <use x="95.410156" xlink:href="#DejaVuSans-48"/>
       <use x="159.033203" xlink:href="#DejaVuSans-49"/>
      </g>
     </g>
    </g>
    <g id="ytick_3">
     <g id="line2d_6">
      <g>
       <use style="stroke:#000000;stroke-width:0.8;" x="54" xlink:href="#m4561ebd2b2" y="179.3301"/>
      </g>
     </g>
     <g id="text_7">
      <!-- 0.02 -->
      <g transform="translate(24.734375 183.129318)scale(0.1 -0.1)">
       <defs>
        <path d="M 19.1875 8.296875 
L 53.609375 8.296875 
L 53.609375 0 
L 7.328125 0 
L 7.328125 8.296875 
Q 12.9375 14.109375 22.625 23.890625 
Q 32.328125 33.6875 34.8125 36.53125 
Q 39.546875 41.84375 41.421875 45.53125 
Q 43.3125 49.21875 43.3125 52.78125 
Q 43.3125 58.59375 39.234375 62.25 
Q 35.15625 65.921875 28.609375 65.921875 
Q 23.96875 65.921875 18.8125 64.3125 
Q 13.671875 62.703125 7.8125 59.421875 
L 7.8125 69.390625 
Q 13.765625 71.78125 18.9375 73 
Q 24.125 74.21875 28.421875 74.21875 
Q 39.75 74.21875 46.484375 68.546875 
Q 53.21875 62.890625 53.21875 53.421875 
Q 53.21875 48.921875 51.53125 44.890625 
Q 49.859375 40.875 45.40625 35.40625 
Q 44.1875 33.984375 37.640625 27.21875 
Q 31.109375 20.453125 19.1875 8.296875 
z
" id="DejaVuSans-50"/>
       </defs>
       <use xlink:href="#DejaVuSans-48"/>
       <use x="63.623047" xlink:href="#DejaVuSans-46"/>
       <use x="95.410156" xlink:href="#DejaVuSans-48"/>
       <use x="159.033203" xlink:href="#DejaVuSans-50"/>
      </g>
     </g>
    </g>
    <g id="ytick_4">
     <g id="line2d_7">
      <g>
       <use style="stroke:#000000;stroke-width:0.8;" x="54" xlink:href="#m4561ebd2b2" y="147.853013"/>
      </g>
     </g>
     <g id="text_8">
      <!-- 0.03 -->
      <g transform="translate(24.734375 151.652232)scale(0.1 -0.1)">
       <defs>
        <path d="M 40.578125 39.3125 
Q 47.65625 37.796875 51.625 33 
Q 55.609375 28.21875 55.609375 21.1875 
Q 55.609375 10.40625 48.1875 4.484375 
Q 40.765625 -1.421875 27.09375 -1.421875 
Q 22.515625 -1.421875 17.65625 -0.515625 
Q 12.796875 0.390625 7.625 2.203125 
L 7.625 11.71875 
Q 11.71875 9.328125 16.59375 8.109375 
Q 21.484375 6.890625 26.8125 6.890625 
Q 36.078125 6.890625 40.9375 10.546875 
Q 45.796875 14.203125 45.796875 21.1875 
Q 45.796875 27.640625 41.28125 31.265625 
Q 36.765625 34.90625 28.71875 34.90625 
L 20.21875 34.90625 
L 20.21875 43.015625 
L 29.109375 43.015625 
Q 36.375 43.015625 40.234375 45.921875 
Q 44.09375 48.828125 44.09375 54.296875 
Q 44.09375 59.90625 40.109375 62.90625 
Q 36.140625 65.921875 28.71875 65.921875 
Q 24.65625 65.921875 20.015625 65.03125 
Q 15.375 64.15625 9.8125 62.3125 
L 9.8125 71.09375 
Q 15.4375 72.65625 20.34375 73.4375 
Q 25.25 74.21875 29.59375 74.21875 
Q 40.828125 74.21875 47.359375 69.109375 
Q 53.90625 64.015625 53.90625 55.328125 
Q 53.90625 49.265625 50.4375 45.09375 
Q 46.96875 40.921875 40.578125 39.3125 
z
" id="DejaVuSans-51"/>
       </defs>
       <use xlink:href="#DejaVuSans-48"/>
       <use x="63.623047" xlink:href="#DejaVuSans-46"/>
       <use x="95.410156" xlink:href="#DejaVuSans-48"/>
       <use x="159.033203" xlink:href="#DejaVuSans-51"/>
      </g>
     </g>
    </g>
    <g id="ytick_5">
     <g id="line2d_8">
      <g>
       <use style="stroke:#000000;stroke-width:0.8;" x="54" xlink:href="#m4561ebd2b2" y="116.375927"/>
      </g>
     </g>
     <g id="text_9">
      <!-- 0.04 -->
      <g transform="translate(24.734375 120.175146)scale(0.1 -0.1)">
       <defs>
        <path d="M 37.796875 64.3125 
L 12.890625 25.390625 
L 37.796875 25.390625 
z
M 35.203125 72.90625 
L 47.609375 72.90625 
L 47.609375 25.390625 
L 58.015625 25.390625 
L 58.015625 17.1875 
L 47.609375 17.1875 
L 47.609375 0 
L 37.796875 0 
L 37.796875 17.1875 
L 4.890625 17.1875 
L 4.890625 26.703125 
z
" id="DejaVuSans-52"/>
       </defs>
       <use xlink:href="#DejaVuSans-48"/>
       <use x="63.623047" xlink:href="#DejaVuSans-46"/>
       <use x="95.410156" xlink:href="#DejaVuSans-48"/>
       <use x="159.033203" xlink:href="#DejaVuSans-52"/>
      </g>
     </g>
    </g>
    <g id="ytick_6">
     <g id="line2d_9">
      <g>
       <use style="stroke:#000000;stroke-width:0.8;" x="54" xlink:href="#m4561ebd2b2" y="84.898841"/>
      </g>
     </g>
     <g id="text_10">
      <!-- 0.05 -->
      <g transform="translate(24.734375 88.698059)scale(0.1 -0.1)">
       <defs>
        <path d="M 10.796875 72.90625 
L 49.515625 72.90625 
L 49.515625 64.59375 
L 19.828125 64.59375 
L 19.828125 46.734375 
Q 21.96875 47.46875 24.109375 47.828125 
Q 26.265625 48.1875 28.421875 48.1875 
Q 40.625 48.1875 47.75 41.5 
Q 54.890625 34.8125 54.890625 23.390625 
Q 54.890625 11.625 47.5625 5.09375 
Q 40.234375 -1.421875 26.90625 -1.421875 
Q 22.3125 -1.421875 17.546875 -0.640625 
Q 12.796875 0.140625 7.71875 1.703125 
L 7.71875 11.625 
Q 12.109375 9.234375 16.796875 8.0625 
Q 21.484375 6.890625 26.703125 6.890625 
Q 35.15625 6.890625 40.078125 11.328125 
Q 45.015625 15.765625 45.015625 23.390625 
Q 45.015625 31 40.078125 35.4375 
Q 35.15625 39.890625 26.703125 39.890625 
Q 22.75 39.890625 18.8125 39.015625 
Q 14.890625 38.140625 10.796875 36.28125 
z
" id="DejaVuSans-53"/>
       </defs>
       <use xlink:href="#DejaVuSans-48"/>
       <use x="63.623047" xlink:href="#DejaVuSans-46"/>
       <use x="95.410156" xlink:href="#DejaVuSans-48"/>
       <use x="159.033203" xlink:href="#DejaVuSans-53"/>
      </g>
     </g>
    </g>
    <g id="ytick_7">
     <g id="line2d_10">
      <g>
       <use style="stroke:#000000;stroke-width:0.8;" x="54" xlink:href="#m4561ebd2b2" y="53.421754"/>
      </g>
     </g>
     <g id="text_11">
      <!-- 0.06 -->
      <g transform="translate(24.734375 57.220973)scale(0.1 -0.1)">
       <defs>
        <path d="M 33.015625 40.375 
Q 26.375 40.375 22.484375 35.828125 
Q 18.609375 31.296875 18.609375 23.390625 
Q 18.609375 15.53125 22.484375 10.953125 
Q 26.375 6.390625 33.015625 6.390625 
Q 39.65625 6.390625 43.53125 10.953125 
Q 47.40625 15.53125 47.40625 23.390625 
Q 47.40625 31.296875 43.53125 35.828125 
Q 39.65625 40.375 33.015625 40.375 
z
M 52.59375 71.296875 
L 52.59375 62.3125 
Q 48.875 64.0625 45.09375 64.984375 
Q 41.3125 65.921875 37.59375 65.921875 
Q 27.828125 65.921875 22.671875 59.328125 
Q 17.53125 52.734375 16.796875 39.40625 
Q 19.671875 43.65625 24.015625 45.921875 
Q 28.375 48.1875 33.59375 48.1875 
Q 44.578125 48.1875 50.953125 41.515625 
Q 57.328125 34.859375 57.328125 23.390625 
Q 57.328125 12.15625 50.6875 5.359375 
Q 44.046875 -1.421875 33.015625 -1.421875 
Q 20.359375 -1.421875 13.671875 8.265625 
Q 6.984375 17.96875 6.984375 36.375 
Q 6.984375 53.65625 15.1875 63.9375 
Q 23.390625 74.21875 37.203125 74.21875 
Q 40.921875 74.21875 44.703125 73.484375 
Q 48.484375 72.75 52.59375 71.296875 
z
" id="DejaVuSans-54"/>
       </defs>
       <use xlink:href="#DejaVuSans-48"/>
       <use x="63.623047" xlink:href="#DejaVuSans-46"/>
       <use x="95.410156" xlink:href="#DejaVuSans-48"/>
       <use x="159.033203" xlink:href="#DejaVuSans-54"/>
      </g>
     </g>
    </g>
    <g id="text_12">
     <!-- value -->
     <g transform="translate(18.654688 156.937813)rotate(-90)scale(0.1 -0.1)">
      <defs>
       <path d="M 8.5 21.578125 
L 8.5 54.6875 
L 17.484375 54.6875 
L 17.484375 21.921875 
Q 17.484375 14.15625 20.5 10.265625 
Q 23.53125 6.390625 29.59375 6.390625 
Q 36.859375 6.390625 41.078125 11.03125 
Q 45.3125 15.671875 45.3125 23.6875 
L 45.3125 54.6875 
L 54.296875 54.6875 
L 54.296875 0 
L 45.3125 0 
L 45.3125 8.40625 
Q 42.046875 3.421875 37.71875 1 
Q 33.40625 -1.421875 27.6875 -1.421875 
Q 18.265625 -1.421875 13.375 4.4375 
Q 8.5 10.296875 8.5 21.578125 
z
M 31.109375 56 
z
" id="DejaVuSans-117"/>
      </defs>
      <use xlink:href="#DejaVuSans-118"/>
      <use x="59.179688" xlink:href="#DejaVuSans-97"/>
      <use x="120.458984" xlink:href="#DejaVuSans-108"/>
      <use x="148.242188" xlink:href="#DejaVuSans-117"/>
      <use x="211.621094" xlink:href="#DejaVuSans-101"/>
     </g>
    </g>
   </g>
   <g id="line2d_11">
    <path clip-path="url(#p7968428ea6)" d="M 80.04 242.088394 
L 80.04 169.244323 
" style="fill:none;stroke:#3d3d3d;stroke-linecap:square;stroke-width:1.5;"/>
   </g>
   <g id="line2d_12">
    <path clip-path="url(#p7968428ea6)" d="M 80.04 234.952054 
L 80.04 208.36865 
" style="fill:none;stroke:#3d3d3d;stroke-linecap:square;stroke-width:4.5;"/>
   </g>
   <g id="line2d_13">
    <path clip-path="url(#p7968428ea6)" d="M 221.4 242.116364 
L 221.4 165.999346 
" style="fill:none;stroke:#3d3d3d;stroke-linecap:square;stroke-width:1.5;"/>
   </g>
   <g id="line2d_14">
    <path clip-path="url(#p7968428ea6)" d="M 221.4 232.713652 
L 221.4 204.884511 
" style="fill:none;stroke:#3d3d3d;stroke-linecap:square;stroke-width:4.5;"/>
   </g>
   <g id="line2d_15">
    <path clip-path="url(#p7968428ea6)" d="M 362.76 242.093485 
L 362.76 164.71055 
" style="fill:none;stroke:#3d3d3d;stroke-linecap:square;stroke-width:1.5;"/>
   </g>
   <g id="line2d_16">
    <path clip-path="url(#p7968428ea6)" d="M 362.76 234.067819 
L 362.76 205.001861 
" style="fill:none;stroke:#3d3d3d;stroke-linecap:square;stroke-width:4.5;"/>
   </g>
   <g id="patch_6">
    <path d="M 54 252 
L 54 34.56 
" style="fill:none;stroke:#000000;stroke-linecap:square;stroke-linejoin:miter;stroke-width:0.8;"/>
   </g>
   <g id="patch_7">
    <path d="M 388.8 252 
L 388.8 34.56 
" style="fill:none;stroke:#000000;stroke-linecap:square;stroke-linejoin:miter;stroke-width:0.8;"/>
   </g>
   <g id="patch_8">
    <path d="M 54 252 
L 388.8 252 
" style="fill:none;stroke:#000000;stroke-linecap:square;stroke-linejoin:miter;stroke-width:0.8;"/>
   </g>
   <g id="patch_9">
    <path d="M 54 34.56 
L 388.8 34.56 
" style="fill:none;stroke:#000000;stroke-linecap:square;stroke-linejoin:miter;stroke-width:0.8;"/>
   </g>
   <g id="PathCollection_1">
    <defs>
     <path d="M 0 1.5 
C 0.397805 1.5 0.77937 1.341951 1.06066 1.06066 
C 1.341951 0.77937 1.5 0.397805 1.5 0 
C 1.5 -0.397805 1.341951 -0.77937 1.06066 -1.06066 
C 0.77937 -1.341951 0.397805 -1.5 0 -1.5 
C -0.397805 -1.5 -0.77937 -1.341951 -1.06066 -1.06066 
C -1.341951 -0.77937 -1.5 -0.397805 -1.5 0 
C -1.5 0.397805 -1.341951 0.77937 -1.06066 1.06066 
C -0.77937 1.341951 -0.397805 1.5 0 1.5 
z
" id="me3ce47075e" style="stroke:#3d3d3d;"/>
    </defs>
    <g clip-path="url(#p7968428ea6)">
     <use style="fill:#ffffff;stroke:#3d3d3d;" x="80.04" xlink:href="#me3ce47075e" y="220.390317"/>
    </g>
   </g>
   <g id="PathCollection_2">
    <g clip-path="url(#p7968428ea6)">
     <use style="fill:#ffffff;stroke:#3d3d3d;" x="221.4" xlink:href="#me3ce47075e" y="217.321418"/>
    </g>
   </g>
   <g id="PathCollection_3">
    <g clip-path="url(#p7968428ea6)">
     <use style="fill:#ffffff;stroke:#3d3d3d;" x="362.76" xlink:href="#me3ce47075e" y="217.994404"/>
    </g>
   </g>
   <g id="legend_1">
    <g id="patch_10">
     <path d="M 326.525 101.2725 
L 381.8 101.2725 
Q 383.8 101.2725 383.8 99.2725 
L 383.8 41.56 
Q 383.8 39.56 381.8 39.56 
L 326.525 39.56 
Q 324.525 39.56 324.525 41.56 
L 324.525 99.2725 
Q 324.525 101.2725 326.525 101.2725 
z
" style="fill:#ffffff;opacity:0.8;stroke:#cccccc;stroke-linejoin:miter;"/>
    </g>
    <g id="text_13">
     <!-- set -->
     <g transform="translate(346.521094 51.158437)scale(0.1 -0.1)">
      <use xlink:href="#DejaVuSans-115"/>
      <use x="52.099609" xlink:href="#DejaVuSans-101"/>
      <use x="113.623047" xlink:href="#DejaVuSans-116"/>
     </g>
    </g>
    <g id="patch_11">
     <path d="M 328.525 65.836562 
L 348.525 65.836562 
L 348.525 58.836562 
L 328.525 58.836562 
z
" style="fill:#3274a1;stroke:#3d3d3d;stroke-linejoin:miter;stroke-width:0.75;"/>
    </g>
    <g id="text_14">
     <!-- train -->
     <g transform="translate(356.525 65.836562)scale(0.1 -0.1)">
      <use xlink:href="#DejaVuSans-116"/>
      <use x="39.208984" xlink:href="#DejaVuSans-114"/>
      <use x="80.322266" xlink:href="#DejaVuSans-97"/>
      <use x="141.601562" xlink:href="#DejaVuSans-105"/>
      <use x="169.384766" xlink:href="#DejaVuSans-110"/>
     </g>
    </g>
    <g id="patch_12">
     <path d="M 328.525 80.514687 
L 348.525 80.514687 
L 348.525 73.514687 
L 328.525 73.514687 
z
" style="fill:#e1812c;stroke:#3d3d3d;stroke-linejoin:miter;stroke-width:0.75;"/>
    </g>
    <g id="text_15">
     <!-- val -->
     <g transform="translate(356.525 80.514687)scale(0.1 -0.1)">
      <use xlink:href="#DejaVuSans-118"/>
      <use x="59.179688" xlink:href="#DejaVuSans-97"/>
      <use x="120.458984" xlink:href="#DejaVuSans-108"/>
     </g>
    </g>
    <g id="patch_13">
     <path d="M 328.525 95.192813 
L 348.525 95.192813 
L 348.525 88.192813 
L 328.525 88.192813 
z
" style="fill:#3a923a;stroke:#3d3d3d;stroke-linejoin:miter;stroke-width:0.75;"/>
    </g>
    <g id="text_16">
     <!-- test -->
     <g transform="translate(356.525 95.192813)scale(0.1 -0.1)">
      <use xlink:href="#DejaVuSans-116"/>
      <use x="39.208984" xlink:href="#DejaVuSans-101"/>
      <use x="100.732422" xlink:href="#DejaVuSans-115"/>
      <use x="152.832031" xlink:href="#DejaVuSans-116"/>
     </g>
    </g>
   </g>
  </g>
 </g>
 <defs>
  <clipPath id="p7968428ea6">
   <rect height="217.44" width="334.8" x="54" y="34.56"/>
  </clipPath>
 </defs>
</svg>
