<?xml version="1.0" encoding="utf-8" standalone="no"?>
<!DOCTYPE svg PUBLIC "-//W3C//DTD SVG 1.1//EN"
  "http://www.w3.org/Graphics/SVG/1.1/DTD/svg11.dtd">
<!-- Created with matplotlib (https://matplotlib.org/) -->
<svg height="288pt" version="1.1" viewBox="0 0 432 288" width="432pt" xmlns="http://www.w3.org/2000/svg" xmlns:xlink="http://www.w3.org/1999/xlink">
 <metadata>
  <rdf:RDF xmlns:cc="http://creativecommons.org/ns#" xmlns:dc="http://purl.org/dc/elements/1.1/" xmlns:rdf="http://www.w3.org/1999/02/22-rdf-syntax-ns#">
   <cc:Work>
    <dc:type rdf:resource="http://purl.org/dc/dcmitype/StillImage"/>
    <dc:date>2022-05-11T05:21:26.851602</dc:date>
    <dc:format>image/svg+xml</dc:format>
    <dc:creator>
     <cc:Agent>
      <dc:title>Matplotlib v3.3.4, https://matplotlib.org/</dc:title>
     </cc:Agent>
    </dc:creator>
   </cc:Work>
  </rdf:RDF>
 </metadata>
 <defs>
  <style type="text/css">*{stroke-linecap:butt;stroke-linejoin:round;}</style>
 </defs>
 <g id="figure_1">
  <g id="patch_1">
   <path d="M 0 288 
L 432 288 
L 432 0 
L 0 0 
z
" style="fill:#ffffff;"/>
  </g>
  <g id="axes_1">
   <g id="patch_2">
    <path d="M 54 252 
L 388.8 252 
L 388.8 34.56 
L 54 34.56 
z
" style="fill:#ffffff;"/>
   </g>
   <g id="PolyCollection_1">
    <defs>
     <path d="M 104.441517 -45.883636 
L 103.998483 -45.883636 
L 103.938973 -47.794274 
L 103.874091 -49.704912 
L 103.804337 -51.615549 
L 103.730141 -53.526187 
L 103.652303 -55.436825 
L 103.572204 -57.347462 
L 103.491442 -59.2581 
L 103.410889 -61.168738 
L 103.329641 -63.079375 
L 103.244668 -64.990013 
L 103.151748 -66.90065 
L 103.047601 -68.811288 
L 102.932341 -70.721926 
L 102.810906 -72.632563 
L 102.692458 -74.543201 
L 102.587708 -76.453839 
L 102.505221 -78.364476 
L 102.448434 -80.275114 
L 102.414843 -82.185752 
L 102.397715 -84.096389 
L 102.389294 -86.007027 
L 102.383694 -87.917665 
L 102.377914 -89.828302 
L 102.370658 -91.73894 
L 102.359936 -93.649577 
L 102.341071 -95.560215 
L 102.306371 -97.470853 
L 102.246719 -99.38149 
L 102.154353 -101.292128 
L 102.025631 -103.202766 
L 101.862717 -105.113403 
L 101.673709 -107.024041 
L 101.47141 -108.934679 
L 101.271349 -110.845316 
L 101.08965 -112.755954 
L 100.940935 -114.666592 
L 100.836027 -116.577229 
L 100.779321 -118.487867 
L 100.766274 -120.398504 
L 100.782215 -122.309142 
L 100.80375 -124.21978 
L 100.803203 -126.130417 
L 100.754978 -128.041055 
L 100.64155 -129.951693 
L 100.456672 -131.86233 
L 100.204528 -133.772968 
L 99.895384 -135.683606 
L 99.539731 -137.594243 
L 99.143473 -139.504881 
L 98.706144 -141.415519 
L 98.222706 -143.326156 
L 97.687909 -145.236794 
L 97.101031 -147.147431 
L 96.468714 -149.058069 
L 95.804535 -150.968707 
L 95.125489 -152.879344 
L 94.446855 -154.789982 
L 93.777483 -156.70062 
L 93.117321 -158.611257 
L 92.458045 -160.521895 
L 91.786346 -162.432533 
L 91.088234 -164.34317 
L 90.352266 -166.253808 
L 89.570275 -168.164446 
L 88.735695 -170.075083 
L 87.841074 -171.985721 
L 86.876962 -173.896358 
L 85.833691 -175.806996 
L 84.705805 -177.717634 
L 83.496816 -179.628271 
L 82.220912 -181.538909 
L 80.899331 -183.449547 
L 79.552563 -185.360184 
L 78.193351 -187.270822 
L 76.826691 -189.18146 
L 75.459805 -191.092097 
L 74.118892 -193.002735 
L 72.864363 -194.913373 
L 71.79578 -196.82401 
L 71.042208 -198.734648 
L 70.74 -200.645285 
L 71.004639 -202.555923 
L 71.9045 -204.466561 
L 73.443091 -206.377198 
L 75.554034 -208.287836 
L 78.110197 -210.198474 
L 80.945115 -212.109111 
L 83.88145 -214.019749 
L 86.759195 -215.930387 
L 89.456642 -217.841024 
L 91.899917 -219.751662 
L 94.060573 -221.6623 
L 95.944118 -223.572937 
L 97.574381 -225.483575 
L 98.979028 -227.394212 
L 100.180324 -229.30485 
L 101.19263 -231.215488 
L 102.025301 -233.126125 
L 102.687822 -235.036763 
L 105.752178 -235.036763 
L 105.752178 -235.036763 
L 106.414699 -233.126125 
L 107.24737 -231.215488 
L 108.259676 -229.30485 
L 109.460972 -227.394212 
L 110.865619 -225.483575 
L 112.495882 -223.572937 
L 114.379427 -221.6623 
L 116.540083 -219.751662 
L 118.983358 -217.841024 
L 121.680805 -215.930387 
L 124.55855 -214.019749 
L 127.494885 -212.109111 
L 130.329803 -210.198474 
L 132.885966 -208.287836 
L 134.996909 -206.377198 
L 136.5355 -204.466561 
L 137.435361 -202.555923 
L 137.7 -200.645285 
L 137.397792 -198.734648 
L 136.64422 -196.82401 
L 135.575637 -194.913373 
L 134.321108 -193.002735 
L 132.980195 -191.092097 
L 131.613309 -189.18146 
L 130.246649 -187.270822 
L 128.887437 -185.360184 
L 127.540669 -183.449547 
L 126.219088 -181.538909 
L 124.943184 -179.628271 
L 123.734195 -177.717634 
L 122.606309 -175.806996 
L 121.563038 -173.896358 
L 120.598926 -171.985721 
L 119.704305 -170.075083 
L 118.869725 -168.164446 
L 118.087734 -166.253808 
L 117.351766 -164.34317 
L 116.653654 -162.432533 
L 115.981955 -160.521895 
L 115.322679 -158.611257 
L 114.662517 -156.70062 
L 113.993145 -154.789982 
L 113.314511 -152.879344 
L 112.635465 -150.968707 
L 111.971286 -149.058069 
L 111.338969 -147.147431 
L 110.752091 -145.236794 
L 110.217294 -143.326156 
L 109.733856 -141.415519 
L 109.296527 -139.504881 
L 108.900269 -137.594243 
L 108.544616 -135.683606 
L 108.235472 -133.772968 
L 107.983328 -131.86233 
L 107.79845 -129.951693 
L 107.685022 -128.041055 
L 107.636797 -126.130417 
L 107.63625 -124.21978 
L 107.657785 -122.309142 
L 107.673726 -120.398504 
L 107.660679 -118.487867 
L 107.603973 -116.577229 
L 107.499065 -114.666592 
L 107.35035 -112.755954 
L 107.168651 -110.845316 
L 106.96859 -108.934679 
L 106.766291 -107.024041 
L 106.577283 -105.113403 
L 106.414369 -103.202766 
L 106.285647 -101.292128 
L 106.193281 -99.38149 
L 106.133629 -97.470853 
L 106.098929 -95.560215 
L 106.080064 -93.649577 
L 106.069342 -91.73894 
L 106.062086 -89.828302 
L 106.056306 -87.917665 
L 106.050706 -86.007027 
L 106.042285 -84.096389 
L 106.025157 -82.185752 
L 105.991566 -80.275114 
L 105.934779 -78.364476 
L 105.852292 -76.453839 
L 105.747542 -74.543201 
L 105.629094 -72.632563 
L 105.507659 -70.721926 
L 105.392399 -68.811288 
L 105.288252 -66.90065 
L 105.195332 -64.990013 
L 105.110359 -63.079375 
L 105.029111 -61.168738 
L 104.948558 -59.2581 
L 104.867796 -57.347462 
L 104.787697 -55.436825 
L 104.709859 -53.526187 
L 104.635663 -51.615549 
L 104.565909 -49.704912 
L 104.501027 -47.794274 
L 104.441517 -45.883636 
z
" id="m21ac99e9ee" style="stroke:#3f3f3f;stroke-width:1.5;"/>
    </defs>
    <g clip-path="url(#p23c623eb3c)">
     <use style="fill:#3274a1;stroke:#3f3f3f;stroke-width:1.5;" x="0" xlink:href="#m21ac99e9ee" y="288"/>
    </g>
   </g>
   <g id="PolyCollection_2">
    <defs>
     <path d="M 338.624612 -57.702939 
L 338.535388 -57.702939 
L 338.538852 -59.580246 
L 338.547604 -61.457553 
L 338.557662 -63.334861 
L 338.564975 -65.212168 
L 338.566997 -67.089475 
L 338.56309 -68.966783 
L 338.554511 -70.84409 
L 338.544378 -72.721397 
L 338.536906 -74.598705 
L 338.53542 -76.476012 
L 338.540155 -78.353319 
L 338.547666 -80.230627 
L 338.552359 -82.107934 
L 338.548985 -83.985241 
L 338.534758 -85.862549 
L 338.510633 -87.739856 
L 338.481315 -89.617163 
L 338.453137 -91.494471 
L 338.429957 -93.371778 
L 338.409806 -95.249085 
L 338.385786 -97.126393 
L 338.351655 -99.0037 
L 338.307814 -100.881007 
L 338.262423 -102.758315 
L 338.226393 -104.635622 
L 338.205767 -106.512929 
L 338.196479 -108.390236 
L 338.184957 -110.267544 
L 338.155203 -112.144851 
L 338.098641 -114.022158 
L 338.019564 -115.899466 
L 337.931274 -117.776773 
L 337.846261 -119.65408 
L 337.769487 -121.531388 
L 337.700048 -123.408695 
L 337.636993 -125.286002 
L 337.581025 -127.16331 
L 337.529631 -129.040617 
L 337.471731 -130.917924 
L 337.38993 -132.795232 
L 337.271143 -134.672539 
L 337.116224 -136.549846 
L 336.937468 -138.427154 
L 336.745468 -140.304461 
L 336.5411 -142.181768 
L 336.323356 -144.059076 
L 336.101335 -145.936383 
L 335.88962 -147.81369 
L 335.687228 -149.690998 
L 335.464039 -151.568305 
L 335.17242 -153.445612 
L 334.7752 -155.32292 
L 334.26781 -157.200227 
L 333.680681 -159.077534 
L 333.061782 -160.954841 
L 332.449275 -162.832149 
L 331.850257 -164.709456 
L 331.237804 -166.586763 
L 330.564563 -168.464071 
L 329.782021 -170.341378 
L 328.859683 -172.218685 
L 327.803325 -174.095993 
L 326.663635 -175.9733 
L 325.521125 -177.850607 
L 324.449487 -179.727915 
L 323.483401 -181.605222 
L 322.616137 -183.482529 
L 321.822412 -185.359837 
L 321.073986 -187.237144 
L 320.324678 -189.114451 
L 319.486474 -190.991759 
L 318.446136 -192.869066 
L 317.132631 -194.746373 
L 315.577758 -196.623681 
L 313.90674 -198.500988 
L 312.264009 -200.378295 
L 310.737737 -202.255603 
L 309.339664 -204.13291 
L 308.048695 -206.010217 
L 306.878518 -207.887525 
L 305.911697 -209.764832 
L 305.276644 -211.642139 
L 305.1 -213.519446 
L 305.47831 -215.396754 
L 306.471971 -217.274061 
L 308.097221 -219.151368 
L 310.311483 -221.028676 
L 313.012296 -222.905983 
L 316.060308 -224.78329 
L 319.30936 -226.660598 
L 322.619759 -228.537905 
L 325.851692 -230.415212 
L 328.858715 -232.29252 
L 331.501288 -234.169827 
L 333.678396 -236.047134 
L 335.354843 -237.924442 
L 336.56368 -239.801749 
L 337.383703 -241.679056 
L 337.908963 -243.556364 
L 339.251037 -243.556364 
L 339.251037 -243.556364 
L 339.776297 -241.679056 
L 340.59632 -239.801749 
L 341.805157 -237.924442 
L 343.481604 -236.047134 
L 345.658712 -234.169827 
L 348.301285 -232.29252 
L 351.308308 -230.415212 
L 354.540241 -228.537905 
L 357.85064 -226.660598 
L 361.099692 -224.78329 
L 364.147704 -222.905983 
L 366.848517 -221.028676 
L 369.062779 -219.151368 
L 370.688029 -217.274061 
L 371.68169 -215.396754 
L 372.06 -213.519446 
L 371.883356 -211.642139 
L 371.248303 -209.764832 
L 370.281482 -207.887525 
L 369.111305 -206.010217 
L 367.820336 -204.13291 
L 366.422263 -202.255603 
L 364.895991 -200.378295 
L 363.25326 -198.500988 
L 361.582242 -196.623681 
L 360.027369 -194.746373 
L 358.713864 -192.869066 
L 357.673526 -190.991759 
L 356.835322 -189.114451 
L 356.086014 -187.237144 
L 355.337588 -185.359837 
L 354.543863 -183.482529 
L 353.676599 -181.605222 
L 352.710513 -179.727915 
L 351.638875 -177.850607 
L 350.496365 -175.9733 
L 349.356675 -174.095993 
L 348.300317 -172.218685 
L 347.377979 -170.341378 
L 346.595437 -168.464071 
L 345.922196 -166.586763 
L 345.309743 -164.709456 
L 344.710725 -162.832149 
L 344.098218 -160.954841 
L 343.479319 -159.077534 
L 342.89219 -157.200227 
L 342.3848 -155.32292 
L 341.98758 -153.445612 
L 341.695961 -151.568305 
L 341.472772 -149.690998 
L 341.27038 -147.81369 
L 341.058665 -145.936383 
L 340.836644 -144.059076 
L 340.6189 -142.181768 
L 340.414532 -140.304461 
L 340.222532 -138.427154 
L 340.043776 -136.549846 
L 339.888857 -134.672539 
L 339.77007 -132.795232 
L 339.688269 -130.917924 
L 339.630369 -129.040617 
L 339.578975 -127.16331 
L 339.523007 -125.286002 
L 339.459952 -123.408695 
L 339.390513 -121.531388 
L 339.313739 -119.65408 
L 339.228726 -117.776773 
L 339.140436 -115.899466 
L 339.061359 -114.022158 
L 339.004797 -112.144851 
L 338.975043 -110.267544 
L 338.963521 -108.390236 
L 338.954233 -106.512929 
L 338.933607 -104.635622 
L 338.897577 -102.758315 
L 338.852186 -100.881007 
L 338.808345 -99.0037 
L 338.774214 -97.126393 
L 338.750194 -95.249085 
L 338.730043 -93.371778 
L 338.706863 -91.494471 
L 338.678685 -89.617163 
L 338.649367 -87.739856 
L 338.625242 -85.862549 
L 338.611015 -83.985241 
L 338.607641 -82.107934 
L 338.612334 -80.230627 
L 338.619845 -78.353319 
L 338.62458 -76.476012 
L 338.623094 -74.598705 
L 338.615622 -72.721397 
L 338.605489 -70.84409 
L 338.59691 -68.966783 
L 338.593003 -67.089475 
L 338.595025 -65.212168 
L 338.602338 -63.334861 
L 338.612396 -61.457553 
L 338.621148 -59.580246 
L 338.624612 -57.702939 
z
" id="m04d3bf5548" style="stroke:#3f3f3f;stroke-width:1.5;"/>
    </defs>
    <g clip-path="url(#p23c623eb3c)">
     <use style="fill:#e1812c;stroke:#3f3f3f;stroke-width:1.5;" x="0" xlink:href="#m04d3bf5548" y="288"/>
    </g>
   </g>
   <g id="patch_3">
    <path clip-path="url(#p23c623eb3c)" d="M 137.7 259.86888 
L 137.7 259.86888 
L 137.7 259.86888 
L 137.7 259.86888 
z
" style="fill:#3274a1;stroke:#3f3f3f;stroke-linejoin:miter;stroke-width:0.75;"/>
   </g>
   <g id="patch_4">
    <path clip-path="url(#p23c623eb3c)" d="M 137.7 259.86888 
L 137.7 259.86888 
L 137.7 259.86888 
L 137.7 259.86888 
z
" style="fill:#e1812c;stroke:#3f3f3f;stroke-linejoin:miter;stroke-width:0.75;"/>
   </g>
   <g id="matplotlib.axis_1">
    <g id="xtick_1">
     <g id="line2d_1">
      <defs>
       <path d="M 0 0 
L 0 3.5 
" id="md40ce11cb0" style="stroke:#000000;stroke-width:0.8;"/>
      </defs>
      <g>
       <use style="stroke:#000000;stroke-width:0.8;" x="137.7" xlink:href="#md40ce11cb0" y="252"/>
      </g>
     </g>
     <g id="text_1">
      <!-- Z_1_ns -->
      <g transform="translate(120.320312 266.320312)scale(0.1 -0.1)">
       <defs>
        <path d="M 5.609375 72.90625 
L 62.890625 72.90625 
L 62.890625 65.375 
L 16.796875 8.296875 
L 64.015625 8.296875 
L 64.015625 0 
L 4.5 0 
L 4.5 7.515625 
L 50.59375 64.59375 
L 5.609375 64.59375 
z
" id="DejaVuSans-90"/>
        <path d="M 50.984375 -16.609375 
L 50.984375 -23.578125 
L -0.984375 -23.578125 
L -0.984375 -16.609375 
z
" id="DejaVuSans-95"/>
        <path d="M 12.40625 8.296875 
L 28.515625 8.296875 
L 28.515625 63.921875 
L 10.984375 60.40625 
L 10.984375 69.390625 
L 28.421875 72.90625 
L 38.28125 72.90625 
L 38.28125 8.296875 
L 54.390625 8.296875 
L 54.390625 0 
L 12.40625 0 
z
" id="DejaVuSans-49"/>
        <path d="M 54.890625 33.015625 
L 54.890625 0 
L 45.90625 0 
L 45.90625 32.71875 
Q 45.90625 40.484375 42.875 44.328125 
Q 39.84375 48.1875 33.796875 48.1875 
Q 26.515625 48.1875 22.3125 43.546875 
Q 18.109375 38.921875 18.109375 30.90625 
L 18.109375 0 
L 9.078125 0 
L 9.078125 54.6875 
L 18.109375 54.6875 
L 18.109375 46.1875 
Q 21.34375 51.125 25.703125 53.5625 
Q 30.078125 56 35.796875 56 
Q 45.21875 56 50.046875 50.171875 
Q 54.890625 44.34375 54.890625 33.015625 
z
" id="DejaVuSans-110"/>
        <path d="M 44.28125 53.078125 
L 44.28125 44.578125 
Q 40.484375 46.53125 36.375 47.5 
Q 32.28125 48.484375 27.875 48.484375 
Q 21.1875 48.484375 17.84375 46.4375 
Q 14.5 44.390625 14.5 40.28125 
Q 14.5 37.15625 16.890625 35.375 
Q 19.28125 33.59375 26.515625 31.984375 
L 29.59375 31.296875 
Q 39.15625 29.25 43.1875 25.515625 
Q 47.21875 21.78125 47.21875 15.09375 
Q 47.21875 7.46875 41.1875 3.015625 
Q 35.15625 -1.421875 24.609375 -1.421875 
Q 20.21875 -1.421875 15.453125 -0.5625 
Q 10.6875 0.296875 5.421875 2 
L 5.421875 11.28125 
Q 10.40625 8.6875 15.234375 7.390625 
Q 20.0625 6.109375 24.8125 6.109375 
Q 31.15625 6.109375 34.5625 8.28125 
Q 37.984375 10.453125 37.984375 14.40625 
Q 37.984375 18.0625 35.515625 20.015625 
Q 33.0625 21.96875 24.703125 23.78125 
L 21.578125 24.515625 
Q 13.234375 26.265625 9.515625 29.90625 
Q 5.8125 33.546875 5.8125 39.890625 
Q 5.8125 47.609375 11.28125 51.796875 
Q 16.75 56 26.8125 56 
Q 31.78125 56 36.171875 55.265625 
Q 40.578125 54.546875 44.28125 53.078125 
z
" id="DejaVuSans-115"/>
       </defs>
       <use xlink:href="#DejaVuSans-90"/>
       <use x="68.505859" xlink:href="#DejaVuSans-95"/>
       <use x="118.505859" xlink:href="#DejaVuSans-49"/>
       <use x="182.128906" xlink:href="#DejaVuSans-95"/>
       <use x="232.128906" xlink:href="#DejaVuSans-110"/>
       <use x="295.507812" xlink:href="#DejaVuSans-115"/>
      </g>
     </g>
    </g>
    <g id="xtick_2">
     <g id="line2d_2">
      <g>
       <use style="stroke:#000000;stroke-width:0.8;" x="305.1" xlink:href="#md40ce11cb0" y="252"/>
      </g>
     </g>
     <g id="text_2">
      <!-- Z_3_ns -->
      <g transform="translate(287.720313 266.421875)scale(0.1 -0.1)">
       <defs>
        <path d="M 40.578125 39.3125 
Q 47.65625 37.796875 51.625 33 
Q 55.609375 28.21875 55.609375 21.1875 
Q 55.609375 10.40625 48.1875 4.484375 
Q 40.765625 -1.421875 27.09375 -1.421875 
Q 22.515625 -1.421875 17.65625 -0.515625 
Q 12.796875 0.390625 7.625 2.203125 
L 7.625 11.71875 
Q 11.71875 9.328125 16.59375 8.109375 
Q 21.484375 6.890625 26.8125 6.890625 
Q 36.078125 6.890625 40.9375 10.546875 
Q 45.796875 14.203125 45.796875 21.1875 
Q 45.796875 27.640625 41.28125 31.265625 
Q 36.765625 34.90625 28.71875 34.90625 
L 20.21875 34.90625 
L 20.21875 43.015625 
L 29.109375 43.015625 
Q 36.375 43.015625 40.234375 45.921875 
Q 44.09375 48.828125 44.09375 54.296875 
Q 44.09375 59.90625 40.109375 62.90625 
Q 36.140625 65.921875 28.71875 65.921875 
Q 24.65625 65.921875 20.015625 65.03125 
Q 15.375 64.15625 9.8125 62.3125 
L 9.8125 71.09375 
Q 15.4375 72.65625 20.34375 73.4375 
Q 25.25 74.21875 29.59375 74.21875 
Q 40.828125 74.21875 47.359375 69.109375 
Q 53.90625 64.015625 53.90625 55.328125 
Q 53.90625 49.265625 50.4375 45.09375 
Q 46.96875 40.921875 40.578125 39.3125 
z
" id="DejaVuSans-51"/>
       </defs>
       <use xlink:href="#DejaVuSans-90"/>
       <use x="68.505859" xlink:href="#DejaVuSans-95"/>
       <use x="118.505859" xlink:href="#DejaVuSans-51"/>
       <use x="182.128906" xlink:href="#DejaVuSans-95"/>
       <use x="232.128906" xlink:href="#DejaVuSans-110"/>
       <use x="295.507812" xlink:href="#DejaVuSans-115"/>
      </g>
     </g>
    </g>
    <g id="text_3">
     <!-- set -->
     <g transform="translate(213.758594 280.378125)scale(0.1 -0.1)">
      <defs>
       <path d="M 56.203125 29.59375 
L 56.203125 25.203125 
L 14.890625 25.203125 
Q 15.484375 15.921875 20.484375 11.0625 
Q 25.484375 6.203125 34.421875 6.203125 
Q 39.59375 6.203125 44.453125 7.46875 
Q 49.3125 8.734375 54.109375 11.28125 
L 54.109375 2.78125 
Q 49.265625 0.734375 44.1875 -0.34375 
Q 39.109375 -1.421875 33.890625 -1.421875 
Q 20.796875 -1.421875 13.15625 6.1875 
Q 5.515625 13.8125 5.515625 26.8125 
Q 5.515625 40.234375 12.765625 48.109375 
Q 20.015625 56 32.328125 56 
Q 43.359375 56 49.78125 48.890625 
Q 56.203125 41.796875 56.203125 29.59375 
z
M 47.21875 32.234375 
Q 47.125 39.59375 43.09375 43.984375 
Q 39.0625 48.390625 32.421875 48.390625 
Q 24.90625 48.390625 20.390625 44.140625 
Q 15.875 39.890625 15.1875 32.171875 
z
" id="DejaVuSans-101"/>
       <path d="M 18.3125 70.21875 
L 18.3125 54.6875 
L 36.8125 54.6875 
L 36.8125 47.703125 
L 18.3125 47.703125 
L 18.3125 18.015625 
Q 18.3125 11.328125 20.140625 9.421875 
Q 21.96875 7.515625 27.59375 7.515625 
L 36.8125 7.515625 
L 36.8125 0 
L 27.59375 0 
Q 17.1875 0 13.234375 3.875 
Q 9.28125 7.765625 9.28125 18.015625 
L 9.28125 47.703125 
L 2.6875 47.703125 
L 2.6875 54.6875 
L 9.28125 54.6875 
L 9.28125 70.21875 
z
" id="DejaVuSans-116"/>
      </defs>
      <use xlink:href="#DejaVuSans-115"/>
      <use x="52.099609" xlink:href="#DejaVuSans-101"/>
      <use x="113.623047" xlink:href="#DejaVuSans-116"/>
     </g>
    </g>
   </g>
   <g id="matplotlib.axis_2">
    <g id="ytick_1">
     <g id="line2d_3">
      <defs>
       <path d="M 0 0 
L -3.5 0 
" id="m705437900a" style="stroke:#000000;stroke-width:0.8;"/>
      </defs>
      <g>
       <use style="stroke:#000000;stroke-width:0.8;" x="54" xlink:href="#m705437900a" y="229.091393"/>
      </g>
     </g>
     <g id="text_4">
      <!-- 5 -->
      <g transform="translate(40.6375 232.890612)scale(0.1 -0.1)">
       <defs>
        <path d="M 10.796875 72.90625 
L 49.515625 72.90625 
L 49.515625 64.59375 
L 19.828125 64.59375 
L 19.828125 46.734375 
Q 21.96875 47.46875 24.109375 47.828125 
Q 26.265625 48.1875 28.421875 48.1875 
Q 40.625 48.1875 47.75 41.5 
Q 54.890625 34.8125 54.890625 23.390625 
Q 54.890625 11.625 47.5625 5.09375 
Q 40.234375 -1.421875 26.90625 -1.421875 
Q 22.3125 -1.421875 17.546875 -0.640625 
Q 12.796875 0.140625 7.71875 1.703125 
L 7.71875 11.625 
Q 12.109375 9.234375 16.796875 8.0625 
Q 21.484375 6.890625 26.703125 6.890625 
Q 35.15625 6.890625 40.078125 11.328125 
Q 45.015625 15.765625 45.015625 23.390625 
Q 45.015625 31 40.078125 35.4375 
Q 35.15625 39.890625 26.703125 39.890625 
Q 22.75 39.890625 18.8125 39.015625 
Q 14.890625 38.140625 10.796875 36.28125 
z
" id="DejaVuSans-53"/>
       </defs>
       <use xlink:href="#DejaVuSans-53"/>
      </g>
     </g>
    </g>
    <g id="ytick_2">
     <g id="line2d_4">
      <g>
       <use style="stroke:#000000;stroke-width:0.8;" x="54" xlink:href="#m705437900a" y="198.313906"/>
      </g>
     </g>
     <g id="text_5">
      <!-- 10 -->
      <g transform="translate(34.275 202.113125)scale(0.1 -0.1)">
       <defs>
        <path d="M 31.78125 66.40625 
Q 24.171875 66.40625 20.328125 58.90625 
Q 16.5 51.421875 16.5 36.375 
Q 16.5 21.390625 20.328125 13.890625 
Q 24.171875 6.390625 31.78125 6.390625 
Q 39.453125 6.390625 43.28125 13.890625 
Q 47.125 21.390625 47.125 36.375 
Q 47.125 51.421875 43.28125 58.90625 
Q 39.453125 66.40625 31.78125 66.40625 
z
M 31.78125 74.21875 
Q 44.046875 74.21875 50.515625 64.515625 
Q 56.984375 54.828125 56.984375 36.375 
Q 56.984375 17.96875 50.515625 8.265625 
Q 44.046875 -1.421875 31.78125 -1.421875 
Q 19.53125 -1.421875 13.0625 8.265625 
Q 6.59375 17.96875 6.59375 36.375 
Q 6.59375 54.828125 13.0625 64.515625 
Q 19.53125 74.21875 31.78125 74.21875 
z
" id="DejaVuSans-48"/>
       </defs>
       <use xlink:href="#DejaVuSans-49"/>
       <use x="63.623047" xlink:href="#DejaVuSans-48"/>
      </g>
     </g>
    </g>
    <g id="ytick_3">
     <g id="line2d_5">
      <g>
       <use style="stroke:#000000;stroke-width:0.8;" x="54" xlink:href="#m705437900a" y="167.536419"/>
      </g>
     </g>
     <g id="text_6">
      <!-- 15 -->
      <g transform="translate(34.275 171.335638)scale(0.1 -0.1)">
       <use xlink:href="#DejaVuSans-49"/>
       <use x="63.623047" xlink:href="#DejaVuSans-53"/>
      </g>
     </g>
    </g>
    <g id="ytick_4">
     <g id="line2d_6">
      <g>
       <use style="stroke:#000000;stroke-width:0.8;" x="54" xlink:href="#m705437900a" y="136.758932"/>
      </g>
     </g>
     <g id="text_7">
      <!-- 20 -->
      <g transform="translate(34.275 140.558151)scale(0.1 -0.1)">
       <defs>
        <path d="M 19.1875 8.296875 
L 53.609375 8.296875 
L 53.609375 0 
L 7.328125 0 
L 7.328125 8.296875 
Q 12.9375 14.109375 22.625 23.890625 
Q 32.328125 33.6875 34.8125 36.53125 
Q 39.546875 41.84375 41.421875 45.53125 
Q 43.3125 49.21875 43.3125 52.78125 
Q 43.3125 58.59375 39.234375 62.25 
Q 35.15625 65.921875 28.609375 65.921875 
Q 23.96875 65.921875 18.8125 64.3125 
Q 13.671875 62.703125 7.8125 59.421875 
L 7.8125 69.390625 
Q 13.765625 71.78125 18.9375 73 
Q 24.125 74.21875 28.421875 74.21875 
Q 39.75 74.21875 46.484375 68.546875 
Q 53.21875 62.890625 53.21875 53.421875 
Q 53.21875 48.921875 51.53125 44.890625 
Q 49.859375 40.875 45.40625 35.40625 
Q 44.1875 33.984375 37.640625 27.21875 
Q 31.109375 20.453125 19.1875 8.296875 
z
" id="DejaVuSans-50"/>
       </defs>
       <use xlink:href="#DejaVuSans-50"/>
       <use x="63.623047" xlink:href="#DejaVuSans-48"/>
      </g>
     </g>
    </g>
    <g id="ytick_5">
     <g id="line2d_7">
      <g>
       <use style="stroke:#000000;stroke-width:0.8;" x="54" xlink:href="#m705437900a" y="105.981445"/>
      </g>
     </g>
     <g id="text_8">
      <!-- 25 -->
      <g transform="translate(34.275 109.780664)scale(0.1 -0.1)">
       <use xlink:href="#DejaVuSans-50"/>
       <use x="63.623047" xlink:href="#DejaVuSans-53"/>
      </g>
     </g>
    </g>
    <g id="ytick_6">
     <g id="line2d_8">
      <g>
       <use style="stroke:#000000;stroke-width:0.8;" x="54" xlink:href="#m705437900a" y="75.203958"/>
      </g>
     </g>
     <g id="text_9">
      <!-- 30 -->
      <g transform="translate(34.275 79.003177)scale(0.1 -0.1)">
       <use xlink:href="#DejaVuSans-51"/>
       <use x="63.623047" xlink:href="#DejaVuSans-48"/>
      </g>
     </g>
    </g>
    <g id="ytick_7">
     <g id="line2d_9">
      <g>
       <use style="stroke:#000000;stroke-width:0.8;" x="54" xlink:href="#m705437900a" y="44.426471"/>
      </g>
     </g>
     <g id="text_10">
      <!-- 35 -->
      <g transform="translate(34.275 48.22569)scale(0.1 -0.1)">
       <use xlink:href="#DejaVuSans-51"/>
       <use x="63.623047" xlink:href="#DejaVuSans-53"/>
      </g>
     </g>
    </g>
    <g id="text_11">
     <!-- value -->
     <g transform="translate(28.195312 156.937813)rotate(-90)scale(0.1 -0.1)">
      <defs>
       <path d="M 2.984375 54.6875 
L 12.5 54.6875 
L 29.59375 8.796875 
L 46.6875 54.6875 
L 56.203125 54.6875 
L 35.6875 0 
L 23.484375 0 
z
" id="DejaVuSans-118"/>
       <path d="M 34.28125 27.484375 
Q 23.390625 27.484375 19.1875 25 
Q 14.984375 22.515625 14.984375 16.5 
Q 14.984375 11.71875 18.140625 8.90625 
Q 21.296875 6.109375 26.703125 6.109375 
Q 34.1875 6.109375 38.703125 11.40625 
Q 43.21875 16.703125 43.21875 25.484375 
L 43.21875 27.484375 
z
M 52.203125 31.203125 
L 52.203125 0 
L 43.21875 0 
L 43.21875 8.296875 
Q 40.140625 3.328125 35.546875 0.953125 
Q 30.953125 -1.421875 24.3125 -1.421875 
Q 15.921875 -1.421875 10.953125 3.296875 
Q 6 8.015625 6 15.921875 
Q 6 25.140625 12.171875 29.828125 
Q 18.359375 34.515625 30.609375 34.515625 
L 43.21875 34.515625 
L 43.21875 35.40625 
Q 43.21875 41.609375 39.140625 45 
Q 35.0625 48.390625 27.6875 48.390625 
Q 23 48.390625 18.546875 47.265625 
Q 14.109375 46.140625 10.015625 43.890625 
L 10.015625 52.203125 
Q 14.9375 54.109375 19.578125 55.046875 
Q 24.21875 56 28.609375 56 
Q 40.484375 56 46.34375 49.84375 
Q 52.203125 43.703125 52.203125 31.203125 
z
" id="DejaVuSans-97"/>
       <path d="M 9.421875 75.984375 
L 18.40625 75.984375 
L 18.40625 0 
L 9.421875 0 
z
" id="DejaVuSans-108"/>
       <path d="M 8.5 21.578125 
L 8.5 54.6875 
L 17.484375 54.6875 
L 17.484375 21.921875 
Q 17.484375 14.15625 20.5 10.265625 
Q 23.53125 6.390625 29.59375 6.390625 
Q 36.859375 6.390625 41.078125 11.03125 
Q 45.3125 15.671875 45.3125 23.6875 
L 45.3125 54.6875 
L 54.296875 54.6875 
L 54.296875 0 
L 45.3125 0 
L 45.3125 8.40625 
Q 42.046875 3.421875 37.71875 1 
Q 33.40625 -1.421875 27.6875 -1.421875 
Q 18.265625 -1.421875 13.375 4.4375 
Q 8.5 10.296875 8.5 21.578125 
z
M 31.109375 56 
z
" id="DejaVuSans-117"/>
      </defs>
      <use xlink:href="#DejaVuSans-118"/>
      <use x="59.179688" xlink:href="#DejaVuSans-97"/>
      <use x="120.458984" xlink:href="#DejaVuSans-108"/>
      <use x="148.242188" xlink:href="#DejaVuSans-117"/>
      <use x="211.621094" xlink:href="#DejaVuSans-101"/>
     </g>
    </g>
   </g>
   <g id="line2d_10">
    <path clip-path="url(#p23c623eb3c)" d="M 104.22 174.219895 
L 104.22 52.963237 
" style="fill:none;stroke:#3f3f3f;stroke-linecap:square;stroke-width:1.5;"/>
   </g>
   <g id="line2d_11">
    <path clip-path="url(#p23c623eb3c)" d="M 104.22 120.338477 
L 104.22 84.199004 
" style="fill:none;stroke:#3f3f3f;stroke-linecap:square;stroke-width:4.5;"/>
   </g>
   <g id="line2d_12">
    <path clip-path="url(#p23c623eb3c)" d="M 338.58 143.301825 
L 338.58 44.443636 
" style="fill:none;stroke:#3f3f3f;stroke-linecap:square;stroke-width:1.5;"/>
   </g>
   <g id="line2d_13">
    <path clip-path="url(#p23c623eb3c)" d="M 338.58 100.307269 
L 338.58 71.470957 
" style="fill:none;stroke:#3f3f3f;stroke-linecap:square;stroke-width:4.5;"/>
   </g>
   <g id="patch_5">
    <path d="M 54 252 
L 54 34.56 
" style="fill:none;stroke:#000000;stroke-linecap:square;stroke-linejoin:miter;stroke-width:0.8;"/>
   </g>
   <g id="patch_6">
    <path d="M 388.8 252 
L 388.8 34.56 
" style="fill:none;stroke:#000000;stroke-linecap:square;stroke-linejoin:miter;stroke-width:0.8;"/>
   </g>
   <g id="patch_7">
    <path d="M 54 252 
L 388.8 252 
" style="fill:none;stroke:#000000;stroke-linecap:square;stroke-linejoin:miter;stroke-width:0.8;"/>
   </g>
   <g id="patch_8">
    <path d="M 54 34.56 
L 388.8 34.56 
" style="fill:none;stroke:#000000;stroke-linecap:square;stroke-linejoin:miter;stroke-width:0.8;"/>
   </g>
   <g id="PathCollection_1">
    <defs>
     <path d="M 0 1.5 
C 0.397805 1.5 0.77937 1.341951 1.06066 1.06066 
C 1.341951 0.77937 1.5 0.397805 1.5 0 
C 1.5 -0.397805 1.341951 -0.77937 1.06066 -1.06066 
C 0.77937 -1.341951 0.397805 -1.5 0 -1.5 
C -0.397805 -1.5 -0.77937 -1.341951 -1.06066 -1.06066 
C -1.341951 -0.77937 -1.5 -0.397805 -1.5 0 
C -1.5 0.397805 -1.341951 0.77937 -1.06066 1.06066 
C -0.77937 1.341951 -0.397805 1.5 0 1.5 
z
" id="mee19d9583e" style="stroke:#3f3f3f;"/>
    </defs>
    <g clip-path="url(#p23c623eb3c)">
     <use style="fill:#ffffff;stroke:#3f3f3f;" x="104.22" xlink:href="#mee19d9583e" y="98.041588"/>
    </g>
   </g>
   <g id="PathCollection_2">
    <g clip-path="url(#p23c623eb3c)">
     <use style="fill:#ffffff;stroke:#3f3f3f;" x="338.58" xlink:href="#mee19d9583e" y="83.532796"/>
    </g>
   </g>
   <g id="legend_1">
    <g id="patch_9">
     <path d="M 61 247 
L 127.759375 247 
Q 129.759375 247 129.759375 245 
L 129.759375 201.409375 
Q 129.759375 199.409375 127.759375 199.409375 
L 61 199.409375 
Q 59 199.409375 59 201.409375 
L 59 245 
Q 59 247 61 247 
z
" style="fill:#ffffff;opacity:0.8;stroke:#cccccc;stroke-linejoin:miter;"/>
    </g>
    <g id="text_12">
     <!-- set -->
     <g transform="translate(86.738281 211.007812)scale(0.1 -0.1)">
      <use xlink:href="#DejaVuSans-115"/>
      <use x="52.099609" xlink:href="#DejaVuSans-101"/>
      <use x="113.623047" xlink:href="#DejaVuSans-116"/>
     </g>
    </g>
    <g id="patch_10">
     <path d="M 63 225.685937 
L 83 225.685937 
L 83 218.685937 
L 63 218.685937 
z
" style="fill:#3274a1;stroke:#3f3f3f;stroke-linejoin:miter;stroke-width:0.75;"/>
    </g>
    <g id="text_13">
     <!-- Z_1_ns -->
     <g transform="translate(91 225.685937)scale(0.1 -0.1)">
      <use xlink:href="#DejaVuSans-90"/>
      <use x="68.505859" xlink:href="#DejaVuSans-95"/>
      <use x="118.505859" xlink:href="#DejaVuSans-49"/>
      <use x="182.128906" xlink:href="#DejaVuSans-95"/>
      <use x="232.128906" xlink:href="#DejaVuSans-110"/>
      <use x="295.507812" xlink:href="#DejaVuSans-115"/>
     </g>
    </g>
    <g id="patch_11">
     <path d="M 63 240.642188 
L 83 240.642188 
L 83 233.642188 
L 63 233.642188 
z
" style="fill:#e1812c;stroke:#3f3f3f;stroke-linejoin:miter;stroke-width:0.75;"/>
    </g>
    <g id="text_14">
     <!-- Z_3_ns -->
     <g transform="translate(91 240.642188)scale(0.1 -0.1)">
      <use xlink:href="#DejaVuSans-90"/>
      <use x="68.505859" xlink:href="#DejaVuSans-95"/>
      <use x="118.505859" xlink:href="#DejaVuSans-51"/>
      <use x="182.128906" xlink:href="#DejaVuSans-95"/>
      <use x="232.128906" xlink:href="#DejaVuSans-110"/>
      <use x="295.507812" xlink:href="#DejaVuSans-115"/>
     </g>
    </g>
   </g>
  </g>
 </g>
 <defs>
  <clipPath id="p23c623eb3c">
   <rect height="217.44" width="334.8" x="54" y="34.56"/>
  </clipPath>
 </defs>
</svg>
