<?xml version="1.0" encoding="utf-8" standalone="no"?>
<!DOCTYPE svg PUBLIC "-//W3C//DTD SVG 1.1//EN"
  "http://www.w3.org/Graphics/SVG/1.1/DTD/svg11.dtd">
<!-- Created with matplotlib (https://matplotlib.org/) -->
<svg height="288pt" version="1.1" viewBox="0 0 432 288" width="432pt" xmlns="http://www.w3.org/2000/svg" xmlns:xlink="http://www.w3.org/1999/xlink">
 <metadata>
  <rdf:RDF xmlns:cc="http://creativecommons.org/ns#" xmlns:dc="http://purl.org/dc/elements/1.1/" xmlns:rdf="http://www.w3.org/1999/02/22-rdf-syntax-ns#">
   <cc:Work>
    <dc:type rdf:resource="http://purl.org/dc/dcmitype/StillImage"/>
    <dc:date>2022-05-11T05:21:26.583372</dc:date>
    <dc:format>image/svg+xml</dc:format>
    <dc:creator>
     <cc:Agent>
      <dc:title>Matplotlib v3.3.4, https://matplotlib.org/</dc:title>
     </cc:Agent>
    </dc:creator>
   </cc:Work>
  </rdf:RDF>
 </metadata>
 <defs>
  <style type="text/css">*{stroke-linecap:butt;stroke-linejoin:round;}</style>
 </defs>
 <g id="figure_1">
  <g id="patch_1">
   <path d="M 0 288 
L 432 288 
L 432 0 
L 0 0 
z
" style="fill:#ffffff;"/>
  </g>
  <g id="axes_1">
   <g id="patch_2">
    <path d="M 54 252 
L 388.8 252 
L 388.8 34.56 
L 54 34.56 
z
" style="fill:#ffffff;"/>
   </g>
   <g id="PolyCollection_1">
    <defs>
     <path d="M 104.36902 -45.883636 
L 104.07098 -45.883636 
L 104.0005 -47.503823 
L 103.914085 -49.12401 
L 103.810626 -50.744197 
L 103.68518 -52.364384 
L 103.528716 -53.984571 
L 103.331807 -55.604758 
L 103.090272 -57.224944 
L 102.808953 -58.845131 
L 102.501168 -60.465318 
L 102.183813 -62.085505 
L 101.87085 -63.705692 
L 101.570134 -65.325879 
L 101.286185 -66.946066 
L 101.02333 -68.566253 
L 100.780604 -70.186439 
L 100.541462 -71.806626 
L 100.274298 -73.426813 
L 99.950232 -75.047 
L 99.559278 -76.667187 
L 99.101228 -78.287374 
L 98.556059 -79.907561 
L 97.865845 -81.527748 
L 96.950147 -83.147935 
L 95.74188 -84.768121 
L 94.212084 -86.388308 
L 92.3668 -88.008495 
L 90.226132 -89.628682 
L 87.809463 -91.248869 
L 85.145485 -92.869056 
L 82.30441 -94.489243 
L 79.423713 -96.10943 
L 76.695766 -97.729616 
L 74.3208 -99.349803 
L 72.464359 -100.96999 
L 71.245611 -102.590177 
L 70.74 -104.210364 
L 70.96891 -105.830551 
L 71.879319 -107.450738 
L 73.338237 -109.070925 
L 75.154073 -110.691111 
L 77.115781 -112.311298 
L 79.036708 -113.931485 
L 80.795128 -115.551672 
L 82.360171 -117.171859 
L 83.78719 -118.792046 
L 85.178372 -120.412233 
L 86.626938 -122.03242 
L 88.173542 -123.652606 
L 89.793606 -125.272793 
L 91.416156 -126.89298 
L 92.959312 -128.513167 
L 94.360575 -130.133354 
L 95.586412 -131.753541 
L 96.625053 -133.373728 
L 97.481989 -134.993915 
L 98.188158 -136.614101 
L 98.804001 -138.234288 
L 99.396624 -139.854475 
L 99.998378 -141.474662 
L 100.585063 -143.094849 
L 101.098253 -144.715036 
L 101.49261 -146.335223 
L 101.767116 -147.95541 
L 101.959811 -149.575596 
L 102.119689 -151.195783 
L 102.280811 -152.81597 
L 102.451499 -154.436157 
L 102.617962 -156.056344 
L 102.757376 -157.676531 
L 102.853478 -159.296718 
L 102.905747 -160.916905 
L 102.927712 -162.537091 
L 102.939094 -164.157278 
L 102.958966 -165.777465 
L 103.00157 -167.397652 
L 103.073258 -169.017839 
L 103.171379 -170.638026 
L 103.286454 -172.258213 
L 103.405873 -173.8784 
L 103.517111 -175.498586 
L 103.611197 -177.118773 
L 103.686581 -178.73896 
L 103.749741 -180.359147 
L 103.809566 -181.979334 
L 103.869598 -183.599521 
L 103.926038 -185.219708 
L 103.973331 -186.839895 
L 104.010475 -188.460081 
L 104.041367 -190.080268 
L 104.070129 -191.700455 
L 104.096989 -193.320642 
L 104.118127 -194.940829 
L 104.128884 -196.561016 
L 104.127854 -198.181203 
L 104.11906 -199.80139 
L 104.110373 -201.421576 
L 104.109097 -203.041763 
L 104.118217 -204.66195 
L 104.135908 -206.282137 
L 104.304092 -206.282137 
L 104.304092 -206.282137 
L 104.321783 -204.66195 
L 104.330903 -203.041763 
L 104.329627 -201.421576 
L 104.32094 -199.80139 
L 104.312146 -198.181203 
L 104.311116 -196.561016 
L 104.321873 -194.940829 
L 104.343011 -193.320642 
L 104.369871 -191.700455 
L 104.398633 -190.080268 
L 104.429525 -188.460081 
L 104.466669 -186.839895 
L 104.513962 -185.219708 
L 104.570402 -183.599521 
L 104.630434 -181.979334 
L 104.690259 -180.359147 
L 104.753419 -178.73896 
L 104.828803 -177.118773 
L 104.922889 -175.498586 
L 105.034127 -173.8784 
L 105.153546 -172.258213 
L 105.268621 -170.638026 
L 105.366742 -169.017839 
L 105.43843 -167.397652 
L 105.481034 -165.777465 
L 105.500906 -164.157278 
L 105.512288 -162.537091 
L 105.534253 -160.916905 
L 105.586522 -159.296718 
L 105.682624 -157.676531 
L 105.822038 -156.056344 
L 105.988501 -154.436157 
L 106.159189 -152.81597 
L 106.320311 -151.195783 
L 106.480189 -149.575596 
L 106.672884 -147.95541 
L 106.94739 -146.335223 
L 107.341747 -144.715036 
L 107.854937 -143.094849 
L 108.441622 -141.474662 
L 109.043376 -139.854475 
L 109.635999 -138.234288 
L 110.251842 -136.614101 
L 110.958011 -134.993915 
L 111.814947 -133.373728 
L 112.853588 -131.753541 
L 114.079425 -130.133354 
L 115.480688 -128.513167 
L 117.023844 -126.89298 
L 118.646394 -125.272793 
L 120.266458 -123.652606 
L 121.813062 -122.03242 
L 123.261628 -120.412233 
L 124.65281 -118.792046 
L 126.079829 -117.171859 
L 127.644872 -115.551672 
L 129.403292 -113.931485 
L 131.324219 -112.311298 
L 133.285927 -110.691111 
L 135.101763 -109.070925 
L 136.560681 -107.450738 
L 137.47109 -105.830551 
L 137.7 -104.210364 
L 137.194389 -102.590177 
L 135.975641 -100.96999 
L 134.1192 -99.349803 
L 131.744234 -97.729616 
L 129.016287 -96.10943 
L 126.13559 -94.489243 
L 123.294515 -92.869056 
L 120.630537 -91.248869 
L 118.213868 -89.628682 
L 116.0732 -88.008495 
L 114.227916 -86.388308 
L 112.69812 -84.768121 
L 111.489853 -83.147935 
L 110.574155 -81.527748 
L 109.883941 -79.907561 
L 109.338772 -78.287374 
L 108.880722 -76.667187 
L 108.489768 -75.047 
L 108.165702 -73.426813 
L 107.898538 -71.806626 
L 107.659396 -70.186439 
L 107.41667 -68.566253 
L 107.153815 -66.946066 
L 106.869866 -65.325879 
L 106.56915 -63.705692 
L 106.256187 -62.085505 
L 105.938832 -60.465318 
L 105.631047 -58.845131 
L 105.349728 -57.224944 
L 105.108193 -55.604758 
L 104.911284 -53.984571 
L 104.75482 -52.364384 
L 104.629374 -50.744197 
L 104.525915 -49.12401 
L 104.4395 -47.503823 
L 104.36902 -45.883636 
z
" id="m84df9eef29" style="stroke:#3f3f3f;stroke-width:1.5;"/>
    </defs>
    <g clip-path="url(#p361aff7573)">
     <use style="fill:#3274a1;stroke:#3f3f3f;stroke-width:1.5;" x="0" xlink:href="#m84df9eef29" y="288"/>
    </g>
   </g>
   <g id="PolyCollection_2">
    <defs>
     <path d="M 338.97153 -66.59955 
L 338.18847 -66.59955 
L 338.041787 -68.386993 
L 337.891173 -70.174435 
L 337.713517 -71.961878 
L 337.47341 -73.74932 
L 337.146671 -75.536763 
L 336.732712 -77.324205 
L 336.25134 -79.111648 
L 335.727203 -80.899091 
L 335.154881 -82.686533 
L 334.452865 -84.473976 
L 333.464693 -86.261418 
L 332.050941 -88.048861 
L 330.198031 -89.836303 
L 328.01416 -91.623746 
L 325.607543 -93.411189 
L 322.995942 -95.198631 
L 320.159127 -96.986074 
L 317.148544 -98.773516 
L 314.102367 -100.560959 
L 311.188821 -102.348401 
L 308.600862 -104.135844 
L 306.581134 -105.923286 
L 305.370773 -107.710729 
L 305.1 -109.498172 
L 305.71843 -111.285614 
L 306.997453 -113.073057 
L 308.595948 -114.860499 
L 310.193946 -116.647942 
L 311.65545 -118.435384 
L 313.098408 -120.222827 
L 314.769361 -122.01027 
L 316.80122 -123.797712 
L 319.083256 -125.585155 
L 321.362891 -127.372597 
L 323.444015 -129.16004 
L 325.269783 -130.947482 
L 326.851209 -132.734925 
L 328.17981 -134.522367 
L 329.24015 -136.30981 
L 330.085399 -138.097253 
L 330.8509 -139.884695 
L 331.661082 -141.672138 
L 332.532841 -143.45958 
L 333.38455 -145.247023 
L 334.120775 -147.034465 
L 334.691867 -148.821908 
L 335.095077 -150.60935 
L 335.355494 -152.396793 
L 335.520898 -154.184236 
L 335.662352 -155.971678 
L 335.851017 -157.759121 
L 336.116086 -159.546563 
L 336.43376 -161.334006 
L 336.765935 -163.121448 
L 337.094859 -164.908891 
L 337.408986 -166.696334 
L 337.674951 -168.483776 
L 337.850239 -170.271219 
L 337.924686 -172.058661 
L 337.935045 -173.846104 
L 337.934334 -175.633546 
L 337.953307 -177.420989 
L 337.993299 -179.208431 
L 338.046559 -180.995874 
L 338.111329 -182.783317 
L 338.186491 -184.570759 
L 338.262395 -186.358202 
L 338.324759 -188.145644 
L 338.365772 -189.933087 
L 338.388676 -191.720529 
L 338.403556 -193.507972 
L 338.420636 -195.295414 
L 338.445276 -197.082857 
L 338.475235 -198.8703 
L 338.502102 -200.657742 
L 338.518575 -202.445185 
L 338.525689 -204.232627 
L 338.531263 -206.02007 
L 338.541168 -207.807512 
L 338.554018 -209.594955 
L 338.563998 -211.382398 
L 338.56606 -213.16984 
L 338.558029 -214.957283 
L 338.54097 -216.744725 
L 338.520038 -218.532168 
L 338.50384 -220.31961 
L 338.50022 -222.107053 
L 338.511067 -223.894495 
L 338.53104 -225.681938 
L 338.5516 -227.469381 
L 338.566635 -229.256823 
L 338.574836 -231.044266 
L 338.577895 -232.831708 
L 338.577442 -234.619151 
L 338.573455 -236.406593 
L 338.564956 -238.194036 
L 338.552562 -239.981479 
L 338.540636 -241.768921 
L 338.535603 -243.556364 
L 338.624397 -243.556364 
L 338.624397 -243.556364 
L 338.619364 -241.768921 
L 338.607438 -239.981479 
L 338.595044 -238.194036 
L 338.586545 -236.406593 
L 338.582558 -234.619151 
L 338.582105 -232.831708 
L 338.585164 -231.044266 
L 338.593365 -229.256823 
L 338.6084 -227.469381 
L 338.62896 -225.681938 
L 338.648933 -223.894495 
L 338.65978 -222.107053 
L 338.65616 -220.31961 
L 338.639962 -218.532168 
L 338.61903 -216.744725 
L 338.601971 -214.957283 
L 338.59394 -213.16984 
L 338.596002 -211.382398 
L 338.605982 -209.594955 
L 338.618832 -207.807512 
L 338.628737 -206.02007 
L 338.634311 -204.232627 
L 338.641425 -202.445185 
L 338.657898 -200.657742 
L 338.684765 -198.8703 
L 338.714724 -197.082857 
L 338.739364 -195.295414 
L 338.756444 -193.507972 
L 338.771324 -191.720529 
L 338.794228 -189.933087 
L 338.835241 -188.145644 
L 338.897605 -186.358202 
L 338.973509 -184.570759 
L 339.048671 -182.783317 
L 339.113441 -180.995874 
L 339.166701 -179.208431 
L 339.206693 -177.420989 
L 339.225666 -175.633546 
L 339.224955 -173.846104 
L 339.235314 -172.058661 
L 339.309761 -170.271219 
L 339.485049 -168.483776 
L 339.751014 -166.696334 
L 340.065141 -164.908891 
L 340.394065 -163.121448 
L 340.72624 -161.334006 
L 341.043914 -159.546563 
L 341.308983 -157.759121 
L 341.497648 -155.971678 
L 341.639102 -154.184236 
L 341.804506 -152.396793 
L 342.064923 -150.60935 
L 342.468133 -148.821908 
L 343.039225 -147.034465 
L 343.77545 -145.247023 
L 344.627159 -143.45958 
L 345.498918 -141.672138 
L 346.3091 -139.884695 
L 347.074601 -138.097253 
L 347.91985 -136.30981 
L 348.98019 -134.522367 
L 350.308791 -132.734925 
L 351.890217 -130.947482 
L 353.715985 -129.16004 
L 355.797109 -127.372597 
L 358.076744 -125.585155 
L 360.35878 -123.797712 
L 362.390639 -122.01027 
L 364.061592 -120.222827 
L 365.50455 -118.435384 
L 366.966054 -116.647942 
L 368.564052 -114.860499 
L 370.162547 -113.073057 
L 371.44157 -111.285614 
L 372.06 -109.498172 
L 371.789227 -107.710729 
L 370.578866 -105.923286 
L 368.559138 -104.135844 
L 365.971179 -102.348401 
L 363.057633 -100.560959 
L 360.011456 -98.773516 
L 357.000873 -96.986074 
L 354.164058 -95.198631 
L 351.552457 -93.411189 
L 349.14584 -91.623746 
L 346.961969 -89.836303 
L 345.109059 -88.048861 
L 343.695307 -86.261418 
L 342.707135 -84.473976 
L 342.005119 -82.686533 
L 341.432797 -80.899091 
L 340.90866 -79.111648 
L 340.427288 -77.324205 
L 340.013329 -75.536763 
L 339.68659 -73.74932 
L 339.446483 -71.961878 
L 339.268827 -70.174435 
L 339.118213 -68.386993 
L 338.97153 -66.59955 
z
" id="me16d273bf9" style="stroke:#3f3f3f;stroke-width:1.5;"/>
    </defs>
    <g clip-path="url(#p361aff7573)">
     <use style="fill:#e1812c;stroke:#3f3f3f;stroke-width:1.5;" x="0" xlink:href="#me16d273bf9" y="288"/>
    </g>
   </g>
   <g id="patch_3">
    <path clip-path="url(#p361aff7573)" d="M 137.7 285.440467 
L 137.7 285.440467 
L 137.7 285.440467 
L 137.7 285.440467 
z
" style="fill:#3274a1;stroke:#3f3f3f;stroke-linejoin:miter;stroke-width:0.75;"/>
   </g>
   <g id="patch_4">
    <path clip-path="url(#p361aff7573)" d="M 137.7 285.440467 
L 137.7 285.440467 
L 137.7 285.440467 
L 137.7 285.440467 
z
" style="fill:#e1812c;stroke:#3f3f3f;stroke-linejoin:miter;stroke-width:0.75;"/>
   </g>
   <g id="matplotlib.axis_1">
    <g id="xtick_1">
     <g id="line2d_1">
      <defs>
       <path d="M 0 0 
L 0 3.5 
" id="mfff6c54fc1" style="stroke:#000000;stroke-width:0.8;"/>
      </defs>
      <g>
       <use style="stroke:#000000;stroke-width:0.8;" x="137.7" xlink:href="#mfff6c54fc1" y="252"/>
      </g>
     </g>
     <g id="text_1">
      <!-- Z_1_ns -->
      <g transform="translate(120.320312 266.320312)scale(0.1 -0.1)">
       <defs>
        <path d="M 5.609375 72.90625 
L 62.890625 72.90625 
L 62.890625 65.375 
L 16.796875 8.296875 
L 64.015625 8.296875 
L 64.015625 0 
L 4.5 0 
L 4.5 7.515625 
L 50.59375 64.59375 
L 5.609375 64.59375 
z
" id="DejaVuSans-90"/>
        <path d="M 50.984375 -16.609375 
L 50.984375 -23.578125 
L -0.984375 -23.578125 
L -0.984375 -16.609375 
z
" id="DejaVuSans-95"/>
        <path d="M 12.40625 8.296875 
L 28.515625 8.296875 
L 28.515625 63.921875 
L 10.984375 60.40625 
L 10.984375 69.390625 
L 28.421875 72.90625 
L 38.28125 72.90625 
L 38.28125 8.296875 
L 54.390625 8.296875 
L 54.390625 0 
L 12.40625 0 
z
" id="DejaVuSans-49"/>
        <path d="M 54.890625 33.015625 
L 54.890625 0 
L 45.90625 0 
L 45.90625 32.71875 
Q 45.90625 40.484375 42.875 44.328125 
Q 39.84375 48.1875 33.796875 48.1875 
Q 26.515625 48.1875 22.3125 43.546875 
Q 18.109375 38.921875 18.109375 30.90625 
L 18.109375 0 
L 9.078125 0 
L 9.078125 54.6875 
L 18.109375 54.6875 
L 18.109375 46.1875 
Q 21.34375 51.125 25.703125 53.5625 
Q 30.078125 56 35.796875 56 
Q 45.21875 56 50.046875 50.171875 
Q 54.890625 44.34375 54.890625 33.015625 
z
" id="DejaVuSans-110"/>
        <path d="M 44.28125 53.078125 
L 44.28125 44.578125 
Q 40.484375 46.53125 36.375 47.5 
Q 32.28125 48.484375 27.875 48.484375 
Q 21.1875 48.484375 17.84375 46.4375 
Q 14.5 44.390625 14.5 40.28125 
Q 14.5 37.15625 16.890625 35.375 
Q 19.28125 33.59375 26.515625 31.984375 
L 29.59375 31.296875 
Q 39.15625 29.25 43.1875 25.515625 
Q 47.21875 21.78125 47.21875 15.09375 
Q 47.21875 7.46875 41.1875 3.015625 
Q 35.15625 -1.421875 24.609375 -1.421875 
Q 20.21875 -1.421875 15.453125 -0.5625 
Q 10.6875 0.296875 5.421875 2 
L 5.421875 11.28125 
Q 10.40625 8.6875 15.234375 7.390625 
Q 20.0625 6.109375 24.8125 6.109375 
Q 31.15625 6.109375 34.5625 8.28125 
Q 37.984375 10.453125 37.984375 14.40625 
Q 37.984375 18.0625 35.515625 20.015625 
Q 33.0625 21.96875 24.703125 23.78125 
L 21.578125 24.515625 
Q 13.234375 26.265625 9.515625 29.90625 
Q 5.8125 33.546875 5.8125 39.890625 
Q 5.8125 47.609375 11.28125 51.796875 
Q 16.75 56 26.8125 56 
Q 31.78125 56 36.171875 55.265625 
Q 40.578125 54.546875 44.28125 53.078125 
z
" id="DejaVuSans-115"/>
       </defs>
       <use xlink:href="#DejaVuSans-90"/>
       <use x="68.505859" xlink:href="#DejaVuSans-95"/>
       <use x="118.505859" xlink:href="#DejaVuSans-49"/>
       <use x="182.128906" xlink:href="#DejaVuSans-95"/>
       <use x="232.128906" xlink:href="#DejaVuSans-110"/>
       <use x="295.507812" xlink:href="#DejaVuSans-115"/>
      </g>
     </g>
    </g>
    <g id="xtick_2">
     <g id="line2d_2">
      <g>
       <use style="stroke:#000000;stroke-width:0.8;" x="305.1" xlink:href="#mfff6c54fc1" y="252"/>
      </g>
     </g>
     <g id="text_2">
      <!-- Z_3_ns -->
      <g transform="translate(287.720313 266.421875)scale(0.1 -0.1)">
       <defs>
        <path d="M 40.578125 39.3125 
Q 47.65625 37.796875 51.625 33 
Q 55.609375 28.21875 55.609375 21.1875 
Q 55.609375 10.40625 48.1875 4.484375 
Q 40.765625 -1.421875 27.09375 -1.421875 
Q 22.515625 -1.421875 17.65625 -0.515625 
Q 12.796875 0.390625 7.625 2.203125 
L 7.625 11.71875 
Q 11.71875 9.328125 16.59375 8.109375 
Q 21.484375 6.890625 26.8125 6.890625 
Q 36.078125 6.890625 40.9375 10.546875 
Q 45.796875 14.203125 45.796875 21.1875 
Q 45.796875 27.640625 41.28125 31.265625 
Q 36.765625 34.90625 28.71875 34.90625 
L 20.21875 34.90625 
L 20.21875 43.015625 
L 29.109375 43.015625 
Q 36.375 43.015625 40.234375 45.921875 
Q 44.09375 48.828125 44.09375 54.296875 
Q 44.09375 59.90625 40.109375 62.90625 
Q 36.140625 65.921875 28.71875 65.921875 
Q 24.65625 65.921875 20.015625 65.03125 
Q 15.375 64.15625 9.8125 62.3125 
L 9.8125 71.09375 
Q 15.4375 72.65625 20.34375 73.4375 
Q 25.25 74.21875 29.59375 74.21875 
Q 40.828125 74.21875 47.359375 69.109375 
Q 53.90625 64.015625 53.90625 55.328125 
Q 53.90625 49.265625 50.4375 45.09375 
Q 46.96875 40.921875 40.578125 39.3125 
z
" id="DejaVuSans-51"/>
       </defs>
       <use xlink:href="#DejaVuSans-90"/>
       <use x="68.505859" xlink:href="#DejaVuSans-95"/>
       <use x="118.505859" xlink:href="#DejaVuSans-51"/>
       <use x="182.128906" xlink:href="#DejaVuSans-95"/>
       <use x="232.128906" xlink:href="#DejaVuSans-110"/>
       <use x="295.507812" xlink:href="#DejaVuSans-115"/>
      </g>
     </g>
    </g>
    <g id="text_3">
     <!-- set -->
     <g transform="translate(213.758594 280.378125)scale(0.1 -0.1)">
      <defs>
       <path d="M 56.203125 29.59375 
L 56.203125 25.203125 
L 14.890625 25.203125 
Q 15.484375 15.921875 20.484375 11.0625 
Q 25.484375 6.203125 34.421875 6.203125 
Q 39.59375 6.203125 44.453125 7.46875 
Q 49.3125 8.734375 54.109375 11.28125 
L 54.109375 2.78125 
Q 49.265625 0.734375 44.1875 -0.34375 
Q 39.109375 -1.421875 33.890625 -1.421875 
Q 20.796875 -1.421875 13.15625 6.1875 
Q 5.515625 13.8125 5.515625 26.8125 
Q 5.515625 40.234375 12.765625 48.109375 
Q 20.015625 56 32.328125 56 
Q 43.359375 56 49.78125 48.890625 
Q 56.203125 41.796875 56.203125 29.59375 
z
M 47.21875 32.234375 
Q 47.125 39.59375 43.09375 43.984375 
Q 39.0625 48.390625 32.421875 48.390625 
Q 24.90625 48.390625 20.390625 44.140625 
Q 15.875 39.890625 15.1875 32.171875 
z
" id="DejaVuSans-101"/>
       <path d="M 18.3125 70.21875 
L 18.3125 54.6875 
L 36.8125 54.6875 
L 36.8125 47.703125 
L 18.3125 47.703125 
L 18.3125 18.015625 
Q 18.3125 11.328125 20.140625 9.421875 
Q 21.96875 7.515625 27.59375 7.515625 
L 36.8125 7.515625 
L 36.8125 0 
L 27.59375 0 
Q 17.1875 0 13.234375 3.875 
Q 9.28125 7.765625 9.28125 18.015625 
L 9.28125 47.703125 
L 2.6875 47.703125 
L 2.6875 54.6875 
L 9.28125 54.6875 
L 9.28125 70.21875 
z
" id="DejaVuSans-116"/>
      </defs>
      <use xlink:href="#DejaVuSans-115"/>
      <use x="52.099609" xlink:href="#DejaVuSans-101"/>
      <use x="113.623047" xlink:href="#DejaVuSans-116"/>
     </g>
    </g>
   </g>
   <g id="matplotlib.axis_2">
    <g id="ytick_1">
     <g id="line2d_3">
      <defs>
       <path d="M 0 0 
L -3.5 0 
" id="m28c3733512" style="stroke:#000000;stroke-width:0.8;"/>
      </defs>
      <g>
       <use style="stroke:#000000;stroke-width:0.8;" x="54" xlink:href="#m28c3733512" y="251.996816"/>
      </g>
     </g>
     <g id="text_4">
      <!-- 20 -->
      <g transform="translate(34.275 255.796035)scale(0.1 -0.1)">
       <defs>
        <path d="M 19.1875 8.296875 
L 53.609375 8.296875 
L 53.609375 0 
L 7.328125 0 
L 7.328125 8.296875 
Q 12.9375 14.109375 22.625 23.890625 
Q 32.328125 33.6875 34.8125 36.53125 
Q 39.546875 41.84375 41.421875 45.53125 
Q 43.3125 49.21875 43.3125 52.78125 
Q 43.3125 58.59375 39.234375 62.25 
Q 35.15625 65.921875 28.609375 65.921875 
Q 23.96875 65.921875 18.8125 64.3125 
Q 13.671875 62.703125 7.8125 59.421875 
L 7.8125 69.390625 
Q 13.765625 71.78125 18.9375 73 
Q 24.125 74.21875 28.421875 74.21875 
Q 39.75 74.21875 46.484375 68.546875 
Q 53.21875 62.890625 53.21875 53.421875 
Q 53.21875 48.921875 51.53125 44.890625 
Q 49.859375 40.875 45.40625 35.40625 
Q 44.1875 33.984375 37.640625 27.21875 
Q 31.109375 20.453125 19.1875 8.296875 
z
" id="DejaVuSans-50"/>
        <path d="M 31.78125 66.40625 
Q 24.171875 66.40625 20.328125 58.90625 
Q 16.5 51.421875 16.5 36.375 
Q 16.5 21.390625 20.328125 13.890625 
Q 24.171875 6.390625 31.78125 6.390625 
Q 39.453125 6.390625 43.28125 13.890625 
Q 47.125 21.390625 47.125 36.375 
Q 47.125 51.421875 43.28125 58.90625 
Q 39.453125 66.40625 31.78125 66.40625 
z
M 31.78125 74.21875 
Q 44.046875 74.21875 50.515625 64.515625 
Q 56.984375 54.828125 56.984375 36.375 
Q 56.984375 17.96875 50.515625 8.265625 
Q 44.046875 -1.421875 31.78125 -1.421875 
Q 19.53125 -1.421875 13.0625 8.265625 
Q 6.59375 17.96875 6.59375 36.375 
Q 6.59375 54.828125 13.0625 64.515625 
Q 19.53125 74.21875 31.78125 74.21875 
z
" id="DejaVuSans-48"/>
       </defs>
       <use xlink:href="#DejaVuSans-50"/>
       <use x="63.623047" xlink:href="#DejaVuSans-48"/>
      </g>
     </g>
    </g>
    <g id="ytick_2">
     <g id="line2d_4">
      <g>
       <use style="stroke:#000000;stroke-width:0.8;" x="54" xlink:href="#m28c3733512" y="218.553165"/>
      </g>
     </g>
     <g id="text_5">
      <!-- 40 -->
      <g transform="translate(34.275 222.352383)scale(0.1 -0.1)">
       <defs>
        <path d="M 37.796875 64.3125 
L 12.890625 25.390625 
L 37.796875 25.390625 
z
M 35.203125 72.90625 
L 47.609375 72.90625 
L 47.609375 25.390625 
L 58.015625 25.390625 
L 58.015625 17.1875 
L 47.609375 17.1875 
L 47.609375 0 
L 37.796875 0 
L 37.796875 17.1875 
L 4.890625 17.1875 
L 4.890625 26.703125 
z
" id="DejaVuSans-52"/>
       </defs>
       <use xlink:href="#DejaVuSans-52"/>
       <use x="63.623047" xlink:href="#DejaVuSans-48"/>
      </g>
     </g>
    </g>
    <g id="ytick_3">
     <g id="line2d_5">
      <g>
       <use style="stroke:#000000;stroke-width:0.8;" x="54" xlink:href="#m28c3733512" y="185.109513"/>
      </g>
     </g>
     <g id="text_6">
      <!-- 60 -->
      <g transform="translate(34.275 188.908732)scale(0.1 -0.1)">
       <defs>
        <path d="M 33.015625 40.375 
Q 26.375 40.375 22.484375 35.828125 
Q 18.609375 31.296875 18.609375 23.390625 
Q 18.609375 15.53125 22.484375 10.953125 
Q 26.375 6.390625 33.015625 6.390625 
Q 39.65625 6.390625 43.53125 10.953125 
Q 47.40625 15.53125 47.40625 23.390625 
Q 47.40625 31.296875 43.53125 35.828125 
Q 39.65625 40.375 33.015625 40.375 
z
M 52.59375 71.296875 
L 52.59375 62.3125 
Q 48.875 64.0625 45.09375 64.984375 
Q 41.3125 65.921875 37.59375 65.921875 
Q 27.828125 65.921875 22.671875 59.328125 
Q 17.53125 52.734375 16.796875 39.40625 
Q 19.671875 43.65625 24.015625 45.921875 
Q 28.375 48.1875 33.59375 48.1875 
Q 44.578125 48.1875 50.953125 41.515625 
Q 57.328125 34.859375 57.328125 23.390625 
Q 57.328125 12.15625 50.6875 5.359375 
Q 44.046875 -1.421875 33.015625 -1.421875 
Q 20.359375 -1.421875 13.671875 8.265625 
Q 6.984375 17.96875 6.984375 36.375 
Q 6.984375 53.65625 15.1875 63.9375 
Q 23.390625 74.21875 37.203125 74.21875 
Q 40.921875 74.21875 44.703125 73.484375 
Q 48.484375 72.75 52.59375 71.296875 
z
" id="DejaVuSans-54"/>
       </defs>
       <use xlink:href="#DejaVuSans-54"/>
       <use x="63.623047" xlink:href="#DejaVuSans-48"/>
      </g>
     </g>
    </g>
    <g id="ytick_4">
     <g id="line2d_6">
      <g>
       <use style="stroke:#000000;stroke-width:0.8;" x="54" xlink:href="#m28c3733512" y="151.665862"/>
      </g>
     </g>
     <g id="text_7">
      <!-- 80 -->
      <g transform="translate(34.275 155.465081)scale(0.1 -0.1)">
       <defs>
        <path d="M 31.78125 34.625 
Q 24.75 34.625 20.71875 30.859375 
Q 16.703125 27.09375 16.703125 20.515625 
Q 16.703125 13.921875 20.71875 10.15625 
Q 24.75 6.390625 31.78125 6.390625 
Q 38.8125 6.390625 42.859375 10.171875 
Q 46.921875 13.96875 46.921875 20.515625 
Q 46.921875 27.09375 42.890625 30.859375 
Q 38.875 34.625 31.78125 34.625 
z
M 21.921875 38.8125 
Q 15.578125 40.375 12.03125 44.71875 
Q 8.5 49.078125 8.5 55.328125 
Q 8.5 64.0625 14.71875 69.140625 
Q 20.953125 74.21875 31.78125 74.21875 
Q 42.671875 74.21875 48.875 69.140625 
Q 55.078125 64.0625 55.078125 55.328125 
Q 55.078125 49.078125 51.53125 44.71875 
Q 48 40.375 41.703125 38.8125 
Q 48.828125 37.15625 52.796875 32.3125 
Q 56.78125 27.484375 56.78125 20.515625 
Q 56.78125 9.90625 50.3125 4.234375 
Q 43.84375 -1.421875 31.78125 -1.421875 
Q 19.734375 -1.421875 13.25 4.234375 
Q 6.78125 9.90625 6.78125 20.515625 
Q 6.78125 27.484375 10.78125 32.3125 
Q 14.796875 37.15625 21.921875 38.8125 
z
M 18.3125 54.390625 
Q 18.3125 48.734375 21.84375 45.5625 
Q 25.390625 42.390625 31.78125 42.390625 
Q 38.140625 42.390625 41.71875 45.5625 
Q 45.3125 48.734375 45.3125 54.390625 
Q 45.3125 60.0625 41.71875 63.234375 
Q 38.140625 66.40625 31.78125 66.40625 
Q 25.390625 66.40625 21.84375 63.234375 
Q 18.3125 60.0625 18.3125 54.390625 
z
" id="DejaVuSans-56"/>
       </defs>
       <use xlink:href="#DejaVuSans-56"/>
       <use x="63.623047" xlink:href="#DejaVuSans-48"/>
      </g>
     </g>
    </g>
    <g id="ytick_5">
     <g id="line2d_7">
      <g>
       <use style="stroke:#000000;stroke-width:0.8;" x="54" xlink:href="#m28c3733512" y="118.222211"/>
      </g>
     </g>
     <g id="text_8">
      <!-- 100 -->
      <g transform="translate(27.9125 122.02143)scale(0.1 -0.1)">
       <use xlink:href="#DejaVuSans-49"/>
       <use x="63.623047" xlink:href="#DejaVuSans-48"/>
       <use x="127.246094" xlink:href="#DejaVuSans-48"/>
      </g>
     </g>
    </g>
    <g id="ytick_6">
     <g id="line2d_8">
      <g>
       <use style="stroke:#000000;stroke-width:0.8;" x="54" xlink:href="#m28c3733512" y="84.77856"/>
      </g>
     </g>
     <g id="text_9">
      <!-- 120 -->
      <g transform="translate(27.9125 88.577778)scale(0.1 -0.1)">
       <use xlink:href="#DejaVuSans-49"/>
       <use x="63.623047" xlink:href="#DejaVuSans-50"/>
       <use x="127.246094" xlink:href="#DejaVuSans-48"/>
      </g>
     </g>
    </g>
    <g id="ytick_7">
     <g id="line2d_9">
      <g>
       <use style="stroke:#000000;stroke-width:0.8;" x="54" xlink:href="#m28c3733512" y="51.334908"/>
      </g>
     </g>
     <g id="text_10">
      <!-- 140 -->
      <g transform="translate(27.9125 55.134127)scale(0.1 -0.1)">
       <use xlink:href="#DejaVuSans-49"/>
       <use x="63.623047" xlink:href="#DejaVuSans-52"/>
       <use x="127.246094" xlink:href="#DejaVuSans-48"/>
      </g>
     </g>
    </g>
    <g id="text_11">
     <!-- value -->
     <g transform="translate(21.832812 156.937813)rotate(-90)scale(0.1 -0.1)">
      <defs>
       <path d="M 2.984375 54.6875 
L 12.5 54.6875 
L 29.59375 8.796875 
L 46.6875 54.6875 
L 56.203125 54.6875 
L 35.6875 0 
L 23.484375 0 
z
" id="DejaVuSans-118"/>
       <path d="M 34.28125 27.484375 
Q 23.390625 27.484375 19.1875 25 
Q 14.984375 22.515625 14.984375 16.5 
Q 14.984375 11.71875 18.140625 8.90625 
Q 21.296875 6.109375 26.703125 6.109375 
Q 34.1875 6.109375 38.703125 11.40625 
Q 43.21875 16.703125 43.21875 25.484375 
L 43.21875 27.484375 
z
M 52.203125 31.203125 
L 52.203125 0 
L 43.21875 0 
L 43.21875 8.296875 
Q 40.140625 3.328125 35.546875 0.953125 
Q 30.953125 -1.421875 24.3125 -1.421875 
Q 15.921875 -1.421875 10.953125 3.296875 
Q 6 8.015625 6 15.921875 
Q 6 25.140625 12.171875 29.828125 
Q 18.359375 34.515625 30.609375 34.515625 
L 43.21875 34.515625 
L 43.21875 35.40625 
Q 43.21875 41.609375 39.140625 45 
Q 35.0625 48.390625 27.6875 48.390625 
Q 23 48.390625 18.546875 47.265625 
Q 14.109375 46.140625 10.015625 43.890625 
L 10.015625 52.203125 
Q 14.9375 54.109375 19.578125 55.046875 
Q 24.21875 56 28.609375 56 
Q 40.484375 56 46.34375 49.84375 
Q 52.203125 43.703125 52.203125 31.203125 
z
" id="DejaVuSans-97"/>
       <path d="M 9.421875 75.984375 
L 18.40625 75.984375 
L 18.40625 0 
L 9.421875 0 
z
" id="DejaVuSans-108"/>
       <path d="M 8.5 21.578125 
L 8.5 54.6875 
L 17.484375 54.6875 
L 17.484375 21.921875 
Q 17.484375 14.15625 20.5 10.265625 
Q 23.53125 6.390625 29.59375 6.390625 
Q 36.859375 6.390625 41.078125 11.03125 
Q 45.3125 15.671875 45.3125 23.6875 
L 45.3125 54.6875 
L 54.296875 54.6875 
L 54.296875 0 
L 45.3125 0 
L 45.3125 8.40625 
Q 42.046875 3.421875 37.71875 1 
Q 33.40625 -1.421875 27.6875 -1.421875 
Q 18.265625 -1.421875 13.375 4.4375 
Q 8.5 10.296875 8.5 21.578125 
z
M 31.109375 56 
z
" id="DejaVuSans-117"/>
      </defs>
      <use xlink:href="#DejaVuSans-118"/>
      <use x="59.179688" xlink:href="#DejaVuSans-97"/>
      <use x="120.458984" xlink:href="#DejaVuSans-108"/>
      <use x="148.242188" xlink:href="#DejaVuSans-117"/>
      <use x="211.621094" xlink:href="#DejaVuSans-101"/>
     </g>
    </g>
   </g>
   <g id="line2d_10">
    <path clip-path="url(#p361aff7573)" d="M 104.22 222.210075 
L 104.22 137.75967 
" style="fill:none;stroke:#3f3f3f;stroke-linecap:square;stroke-width:1.5;"/>
   </g>
   <g id="line2d_11">
    <path clip-path="url(#p361aff7573)" d="M 104.22 190.536254 
L 104.22 169.402942 
" style="fill:none;stroke:#3f3f3f;stroke-linecap:square;stroke-width:4.5;"/>
   </g>
   <g id="line2d_12">
    <path clip-path="url(#p361aff7573)" d="M 338.58 214.49545 
L 338.58 133.033999 
" style="fill:none;stroke:#3f3f3f;stroke-linecap:square;stroke-width:1.5;"/>
   </g>
   <g id="line2d_13">
    <path clip-path="url(#p361aff7573)" d="M 338.58 184.252174 
L 338.58 163.718291 
" style="fill:none;stroke:#3f3f3f;stroke-linecap:square;stroke-width:4.5;"/>
   </g>
   <g id="patch_5">
    <path d="M 54 252 
L 54 34.56 
" style="fill:none;stroke:#000000;stroke-linecap:square;stroke-linejoin:miter;stroke-width:0.8;"/>
   </g>
   <g id="patch_6">
    <path d="M 388.8 252 
L 388.8 34.56 
" style="fill:none;stroke:#000000;stroke-linecap:square;stroke-linejoin:miter;stroke-width:0.8;"/>
   </g>
   <g id="patch_7">
    <path d="M 54 252 
L 388.8 252 
" style="fill:none;stroke:#000000;stroke-linecap:square;stroke-linejoin:miter;stroke-width:0.8;"/>
   </g>
   <g id="patch_8">
    <path d="M 54 34.56 
L 388.8 34.56 
" style="fill:none;stroke:#000000;stroke-linecap:square;stroke-linejoin:miter;stroke-width:0.8;"/>
   </g>
   <g id="PathCollection_1">
    <defs>
     <path d="M 0 1.5 
C 0.397805 1.5 0.77937 1.341951 1.06066 1.06066 
C 1.341951 0.77937 1.5 0.397805 1.5 0 
C 1.5 -0.397805 1.341951 -0.77937 1.06066 -1.06066 
C 0.77937 -1.341951 0.397805 -1.5 0 -1.5 
C -0.397805 -1.5 -0.77937 -1.341951 -1.06066 -1.06066 
C -1.341951 -0.77937 -1.5 -0.397805 -1.5 0 
C -1.5 0.397805 -1.341951 0.77937 -1.06066 1.06066 
C -0.77937 1.341951 -0.397805 1.5 0 1.5 
z
" id="ma19d097256" style="stroke:#3f3f3f;"/>
    </defs>
    <g clip-path="url(#p361aff7573)">
     <use style="fill:#ffffff;stroke:#3f3f3f;" x="104.22" xlink:href="#ma19d097256" y="181.20789"/>
    </g>
   </g>
   <g id="PathCollection_2">
    <g clip-path="url(#p361aff7573)">
     <use style="fill:#ffffff;stroke:#3f3f3f;" x="338.58" xlink:href="#ma19d097256" y="175.344879"/>
    </g>
   </g>
   <g id="legend_1">
    <g id="patch_9">
     <path d="M 315.040625 87.150625 
L 381.8 87.150625 
Q 383.8 87.150625 383.8 85.150625 
L 383.8 41.56 
Q 383.8 39.56 381.8 39.56 
L 315.040625 39.56 
Q 313.040625 39.56 313.040625 41.56 
L 313.040625 85.150625 
Q 313.040625 87.150625 315.040625 87.150625 
z
" style="fill:#ffffff;opacity:0.8;stroke:#cccccc;stroke-linejoin:miter;"/>
    </g>
    <g id="text_12">
     <!-- set -->
     <g transform="translate(340.778906 51.158437)scale(0.1 -0.1)">
      <use xlink:href="#DejaVuSans-115"/>
      <use x="52.099609" xlink:href="#DejaVuSans-101"/>
      <use x="113.623047" xlink:href="#DejaVuSans-116"/>
     </g>
    </g>
    <g id="patch_10">
     <path d="M 317.040625 65.836562 
L 337.040625 65.836562 
L 337.040625 58.836562 
L 317.040625 58.836562 
z
" style="fill:#3274a1;stroke:#3f3f3f;stroke-linejoin:miter;stroke-width:0.75;"/>
    </g>
    <g id="text_13">
     <!-- Z_1_ns -->
     <g transform="translate(345.040625 65.836562)scale(0.1 -0.1)">
      <use xlink:href="#DejaVuSans-90"/>
      <use x="68.505859" xlink:href="#DejaVuSans-95"/>
      <use x="118.505859" xlink:href="#DejaVuSans-49"/>
      <use x="182.128906" xlink:href="#DejaVuSans-95"/>
      <use x="232.128906" xlink:href="#DejaVuSans-110"/>
      <use x="295.507812" xlink:href="#DejaVuSans-115"/>
     </g>
    </g>
    <g id="patch_11">
     <path d="M 317.040625 80.792812 
L 337.040625 80.792812 
L 337.040625 73.792812 
L 317.040625 73.792812 
z
" style="fill:#e1812c;stroke:#3f3f3f;stroke-linejoin:miter;stroke-width:0.75;"/>
    </g>
    <g id="text_14">
     <!-- Z_3_ns -->
     <g transform="translate(345.040625 80.792812)scale(0.1 -0.1)">
      <use xlink:href="#DejaVuSans-90"/>
      <use x="68.505859" xlink:href="#DejaVuSans-95"/>
      <use x="118.505859" xlink:href="#DejaVuSans-51"/>
      <use x="182.128906" xlink:href="#DejaVuSans-95"/>
      <use x="232.128906" xlink:href="#DejaVuSans-110"/>
      <use x="295.507812" xlink:href="#DejaVuSans-115"/>
     </g>
    </g>
   </g>
  </g>
 </g>
 <defs>
  <clipPath id="p361aff7573">
   <rect height="217.44" width="334.8" x="54" y="34.56"/>
  </clipPath>
 </defs>
</svg>
