<?xml version="1.0" encoding="utf-8" standalone="no"?>
<!DOCTYPE svg PUBLIC "-//W3C//DTD SVG 1.1//EN"
  "http://www.w3.org/Graphics/SVG/1.1/DTD/svg11.dtd">
<!-- Created with matplotlib (https://matplotlib.org/) -->
<svg height="288pt" version="1.1" viewBox="0 0 432 288" width="432pt" xmlns="http://www.w3.org/2000/svg" xmlns:xlink="http://www.w3.org/1999/xlink">
 <metadata>
  <rdf:RDF xmlns:cc="http://creativecommons.org/ns#" xmlns:dc="http://purl.org/dc/elements/1.1/" xmlns:rdf="http://www.w3.org/1999/02/22-rdf-syntax-ns#">
   <cc:Work>
    <dc:type rdf:resource="http://purl.org/dc/dcmitype/StillImage"/>
    <dc:date>2022-04-15T22:17:56.398782</dc:date>
    <dc:format>image/svg+xml</dc:format>
    <dc:creator>
     <cc:Agent>
      <dc:title>Matplotlib v3.3.4, https://matplotlib.org/</dc:title>
     </cc:Agent>
    </dc:creator>
   </cc:Work>
  </rdf:RDF>
 </metadata>
 <defs>
  <style type="text/css">*{stroke-linecap:butt;stroke-linejoin:round;}</style>
 </defs>
 <g id="figure_1">
  <g id="patch_1">
   <path d="M 0 288 
L 432 288 
L 432 0 
L 0 0 
z
" style="fill:#ffffff;"/>
  </g>
  <g id="axes_1">
   <g id="patch_2">
    <path d="M 54 252 
L 388.8 252 
L 388.8 34.56 
L 54 34.56 
z
" style="fill:#ffffff;"/>
   </g>
   <g id="PolyCollection_1">
    <defs>
     <path d="M 104.269893 -70.115453 
L 104.170107 -70.115453 
L 104.164247 -71.811123 
L 104.158259 -73.506792 
L 104.150932 -75.202462 
L 104.141449 -76.898131 
L 104.129616 -78.593801 
L 104.115458 -80.289471 
L 104.098459 -81.98514 
L 104.077019 -83.68081 
L 104.048581 -85.376479 
L 104.010399 -87.072149 
L 103.960461 -88.767818 
L 103.898123 -90.463488 
L 103.824347 -92.159158 
L 103.74173 -93.854827 
L 103.65434 -95.550497 
L 103.567028 -97.246166 
L 103.48386 -98.941836 
L 103.406004 -100.637506 
L 103.330168 -102.333175 
L 103.248838 -104.028845 
L 103.152661 -105.724514 
L 103.034143 -107.420184 
L 102.891034 -109.115854 
L 102.727929 -110.811523 
L 102.555311 -112.507193 
L 102.38633 -114.202862 
L 102.232509 -115.898532 
L 102.100091 -117.594201 
L 101.988419 -119.289871 
L 101.890725 -120.985541 
L 101.796619 -122.68121 
L 101.694996 -124.37688 
L 101.576144 -126.072549 
L 101.43251 -127.768219 
L 101.258437 -129.463889 
L 101.049829 -131.159558 
L 100.804646 -132.855228 
L 100.524221 -134.550897 
L 100.214361 -136.246567 
L 99.884947 -137.942236 
L 99.547731 -139.637906 
L 99.213333 -141.333576 
L 98.88903 -143.029245 
L 98.578161 -144.724915 
L 98.280685 -146.420584 
L 97.993662 -148.116254 
L 97.71101 -149.811924 
L 97.423244 -151.507593 
L 97.118676 -153.203263 
L 96.786707 -154.898932 
L 96.421698 -156.594602 
L 96.024535 -158.290272 
L 95.600094 -159.985941 
L 95.152168 -161.681611 
L 94.680244 -163.37728 
L 94.181863 -165.07295 
L 93.659689 -166.768619 
L 93.127283 -168.464289 
L 92.606582 -170.159959 
L 92.115454 -171.855628 
L 91.652044 -173.551298 
L 91.187223 -175.246967 
L 90.672572 -176.942637 
L 90.060855 -178.638307 
L 89.326986 -180.333976 
L 88.476961 -182.029646 
L 87.540317 -183.725315 
L 86.55163 -185.420985 
L 85.531387 -187.116654 
L 84.474844 -188.812324 
L 83.352732 -190.507994 
L 82.123276 -192.203663 
L 80.751581 -193.899333 
L 79.229545 -195.595002 
L 77.588594 -197.290672 
L 75.900809 -198.986342 
L 74.270023 -200.682011 
L 72.818378 -202.377681 
L 71.67251 -204.07335 
L 70.949352 -205.76902 
L 70.74 -207.46469 
L 71.093277 -209.160359 
L 72.004963 -210.856029 
L 73.419014 -212.551698 
L 75.242132 -214.247368 
L 77.366141 -215.943037 
L 79.688764 -217.638707 
L 82.125065 -219.334377 
L 84.607855 -221.030046 
L 87.081499 -222.725716 
L 89.495751 -224.421385 
L 91.803686 -226.117055 
L 93.963234 -227.812725 
L 95.939343 -229.508394 
L 97.704784 -231.204064 
L 99.240164 -232.899733 
L 100.534707 -234.595403 
L 101.588106 -236.291073 
L 102.411983 -237.986742 
L 106.028017 -237.986742 
L 106.028017 -237.986742 
L 106.851894 -236.291073 
L 107.905293 -234.595403 
L 109.199836 -232.899733 
L 110.735216 -231.204064 
L 112.500657 -229.508394 
L 114.476766 -227.812725 
L 116.636314 -226.117055 
L 118.944249 -224.421385 
L 121.358501 -222.725716 
L 123.832145 -221.030046 
L 126.314935 -219.334377 
L 128.751236 -217.638707 
L 131.073859 -215.943037 
L 133.197868 -214.247368 
L 135.020986 -212.551698 
L 136.435037 -210.856029 
L 137.346723 -209.160359 
L 137.7 -207.46469 
L 137.490648 -205.76902 
L 136.76749 -204.07335 
L 135.621622 -202.377681 
L 134.169977 -200.682011 
L 132.539191 -198.986342 
L 130.851406 -197.290672 
L 129.210455 -195.595002 
L 127.688419 -193.899333 
L 126.316724 -192.203663 
L 125.087268 -190.507994 
L 123.965156 -188.812324 
L 122.908613 -187.116654 
L 121.88837 -185.420985 
L 120.899683 -183.725315 
L 119.963039 -182.029646 
L 119.113014 -180.333976 
L 118.379145 -178.638307 
L 117.767428 -176.942637 
L 117.252777 -175.246967 
L 116.787956 -173.551298 
L 116.324546 -171.855628 
L 115.833418 -170.159959 
L 115.312717 -168.464289 
L 114.780311 -166.768619 
L 114.258137 -165.07295 
L 113.759756 -163.37728 
L 113.287832 -161.681611 
L 112.839906 -159.985941 
L 112.415465 -158.290272 
L 112.018302 -156.594602 
L 111.653293 -154.898932 
L 111.321324 -153.203263 
L 111.016756 -151.507593 
L 110.72899 -149.811924 
L 110.446338 -148.116254 
L 110.159315 -146.420584 
L 109.861839 -144.724915 
L 109.55097 -143.029245 
L 109.226667 -141.333576 
L 108.892269 -139.637906 
L 108.555053 -137.942236 
L 108.225639 -136.246567 
L 107.915779 -134.550897 
L 107.635354 -132.855228 
L 107.390171 -131.159558 
L 107.181563 -129.463889 
L 107.00749 -127.768219 
L 106.863856 -126.072549 
L 106.745004 -124.37688 
L 106.643381 -122.68121 
L 106.549275 -120.985541 
L 106.451581 -119.289871 
L 106.339909 -117.594201 
L 106.207491 -115.898532 
L 106.05367 -114.202862 
L 105.884689 -112.507193 
L 105.712071 -110.811523 
L 105.548966 -109.115854 
L 105.405857 -107.420184 
L 105.287339 -105.724514 
L 105.191162 -104.028845 
L 105.109832 -102.333175 
L 105.033996 -100.637506 
L 104.95614 -98.941836 
L 104.872972 -97.246166 
L 104.78566 -95.550497 
L 104.69827 -93.854827 
L 104.615653 -92.159158 
L 104.541877 -90.463488 
L 104.479539 -88.767818 
L 104.429601 -87.072149 
L 104.391419 -85.376479 
L 104.362981 -83.68081 
L 104.341541 -81.98514 
L 104.324542 -80.289471 
L 104.310384 -78.593801 
L 104.298551 -76.898131 
L 104.289068 -75.202462 
L 104.281741 -73.506792 
L 104.275753 -71.811123 
L 104.269893 -70.115453 
z
" id="mf1a182588c" style="stroke:#3f3f3f;stroke-width:1.5;"/>
    </defs>
    <g clip-path="url(#pfe7798c9ae)">
     <use style="fill:#3274a1;stroke:#3f3f3f;stroke-width:1.5;" x="0" xlink:href="#mf1a182588c" y="288"/>
    </g>
   </g>
   <g id="PolyCollection_2">
    <defs>
     <path d="M 338.619908 -45.883636 
L 338.540092 -45.883636 
L 338.543331 -47.880331 
L 338.551467 -49.877025 
L 338.560721 -51.873719 
L 338.567199 -53.870413 
L 338.568096 -55.867107 
L 338.561767 -57.863802 
L 338.547948 -59.860496 
L 338.528857 -61.85719 
L 338.509823 -63.853884 
L 338.49731 -65.850579 
L 338.494704 -67.847273 
L 338.499526 -69.843967 
L 338.505245 -71.840661 
L 338.506276 -73.837355 
L 338.501466 -75.83405 
L 338.493342 -77.830744 
L 338.484674 -79.827438 
L 338.475521 -81.824132 
L 338.462393 -83.820826 
L 338.439772 -85.817521 
L 338.403603 -87.814215 
L 338.354942 -89.810909 
L 338.300306 -91.807603 
L 338.247164 -93.804298 
L 338.198503 -95.800992 
L 338.152608 -97.797686 
L 338.108531 -99.79438 
L 338.070458 -101.791074 
L 338.044945 -103.787769 
L 338.032931 -105.784463 
L 338.024412 -107.781157 
L 338.001869 -109.777851 
L 337.951216 -111.774545 
L 337.872324 -113.77124 
L 337.780551 -115.767934 
L 337.69762 -117.764628 
L 337.638756 -119.761322 
L 337.60478 -121.758017 
L 337.582202 -123.754711 
L 337.549264 -125.751405 
L 337.485913 -127.748099 
L 337.385446 -129.744793 
L 337.260705 -131.741488 
L 337.135912 -133.738182 
L 337.026472 -135.734876 
L 336.924609 -137.73157 
L 336.806385 -139.728264 
L 336.652919 -141.724959 
L 336.462187 -143.721653 
L 336.239168 -145.718347 
L 335.977491 -147.715041 
L 335.654118 -149.711736 
L 335.242477 -151.70843 
L 334.731821 -153.705124 
L 334.140123 -155.701818 
L 333.515855 -157.698512 
L 332.926601 -159.695207 
L 332.434358 -161.691901 
L 332.067023 -163.688595 
L 331.80459 -165.685289 
L 331.591876 -167.681983 
L 331.36724 -169.678678 
L 331.0816 -171.675372 
L 330.6955 -173.672066 
L 330.17059 -175.66876 
L 329.476921 -177.665455 
L 328.609259 -179.662149 
L 327.582405 -181.658843 
L 326.394752 -183.655537 
L 324.995041 -185.652231 
L 323.30102 -187.648926 
L 321.269384 -189.64562 
L 318.953595 -191.642314 
L 316.491806 -193.639008 
L 314.042818 -195.635702 
L 311.73906 -197.632397 
L 309.687742 -199.629091 
L 307.981746 -201.625785 
L 306.679578 -203.622479 
L 305.779856 -205.619174 
L 305.248927 -207.615868 
L 305.1 -209.612562 
L 305.444104 -211.609256 
L 306.446729 -213.60595 
L 308.216779 -215.602645 
L 310.716102 -217.599339 
L 313.751556 -219.596033 
L 317.043911 -221.592727 
L 320.32462 -223.589421 
L 323.408862 -225.586116 
L 326.215283 -227.58281 
L 328.734603 -229.579504 
L 330.976453 -231.576198 
L 332.930838 -233.572893 
L 334.564851 -235.569587 
L 335.849624 -237.566281 
L 336.791871 -239.562975 
L 337.442506 -241.559669 
L 337.876242 -243.556364 
L 339.283758 -243.556364 
L 339.283758 -243.556364 
L 339.717494 -241.559669 
L 340.368129 -239.562975 
L 341.310376 -237.566281 
L 342.595149 -235.569587 
L 344.229162 -233.572893 
L 346.183547 -231.576198 
L 348.425397 -229.579504 
L 350.944717 -227.58281 
L 353.751138 -225.586116 
L 356.83538 -223.589421 
L 360.116089 -221.592727 
L 363.408444 -219.596033 
L 366.443898 -217.599339 
L 368.943221 -215.602645 
L 370.713271 -213.60595 
L 371.715896 -211.609256 
L 372.06 -209.612562 
L 371.911073 -207.615868 
L 371.380144 -205.619174 
L 370.480422 -203.622479 
L 369.178254 -201.625785 
L 367.472258 -199.629091 
L 365.42094 -197.632397 
L 363.117182 -195.635702 
L 360.668194 -193.639008 
L 358.206405 -191.642314 
L 355.890616 -189.64562 
L 353.85898 -187.648926 
L 352.164959 -185.652231 
L 350.765248 -183.655537 
L 349.577595 -181.658843 
L 348.550741 -179.662149 
L 347.683079 -177.665455 
L 346.98941 -175.66876 
L 346.4645 -173.672066 
L 346.0784 -171.675372 
L 345.79276 -169.678678 
L 345.568124 -167.681983 
L 345.35541 -165.685289 
L 345.092977 -163.688595 
L 344.725642 -161.691901 
L 344.233399 -159.695207 
L 343.644145 -157.698512 
L 343.019877 -155.701818 
L 342.428179 -153.705124 
L 341.917523 -151.70843 
L 341.505882 -149.711736 
L 341.182509 -147.715041 
L 340.920832 -145.718347 
L 340.697813 -143.721653 
L 340.507081 -141.724959 
L 340.353615 -139.728264 
L 340.235391 -137.73157 
L 340.133528 -135.734876 
L 340.024088 -133.738182 
L 339.899295 -131.741488 
L 339.774554 -129.744793 
L 339.674087 -127.748099 
L 339.610736 -125.751405 
L 339.577798 -123.754711 
L 339.55522 -121.758017 
L 339.521244 -119.761322 
L 339.46238 -117.764628 
L 339.379449 -115.767934 
L 339.287676 -113.77124 
L 339.208784 -111.774545 
L 339.158131 -109.777851 
L 339.135588 -107.781157 
L 339.127069 -105.784463 
L 339.115055 -103.787769 
L 339.089542 -101.791074 
L 339.051469 -99.79438 
L 339.007392 -97.797686 
L 338.961497 -95.800992 
L 338.912836 -93.804298 
L 338.859694 -91.807603 
L 338.805058 -89.810909 
L 338.756397 -87.814215 
L 338.720228 -85.817521 
L 338.697607 -83.820826 
L 338.684479 -81.824132 
L 338.675326 -79.827438 
L 338.666658 -77.830744 
L 338.658534 -75.83405 
L 338.653724 -73.837355 
L 338.654755 -71.840661 
L 338.660474 -69.843967 
L 338.665296 -67.847273 
L 338.66269 -65.850579 
L 338.650177 -63.853884 
L 338.631143 -61.85719 
L 338.612052 -59.860496 
L 338.598233 -57.863802 
L 338.591904 -55.867107 
L 338.592801 -53.870413 
L 338.599279 -51.873719 
L 338.608533 -49.877025 
L 338.616669 -47.880331 
L 338.619908 -45.883636 
z
" id="m5684d34e4d" style="stroke:#3f3f3f;stroke-width:1.5;"/>
    </defs>
    <g clip-path="url(#pfe7798c9ae)">
     <use style="fill:#e1812c;stroke:#3f3f3f;stroke-width:1.5;" x="0" xlink:href="#m5684d34e4d" y="288"/>
    </g>
   </g>
   <g id="patch_3">
    <path clip-path="url(#pfe7798c9ae)" d="M 137.7 316.895823 
L 137.7 316.895823 
L 137.7 316.895823 
L 137.7 316.895823 
z
" style="fill:#3274a1;stroke:#3f3f3f;stroke-linejoin:miter;stroke-width:0.75;"/>
   </g>
   <g id="patch_4">
    <path clip-path="url(#pfe7798c9ae)" d="M 137.7 316.895823 
L 137.7 316.895823 
L 137.7 316.895823 
L 137.7 316.895823 
z
" style="fill:#e1812c;stroke:#3f3f3f;stroke-linejoin:miter;stroke-width:0.75;"/>
   </g>
   <g id="matplotlib.axis_1">
    <g id="xtick_1">
     <g id="line2d_1">
      <defs>
       <path d="M 0 0 
L 0 3.5 
" id="md72430cd56" style="stroke:#000000;stroke-width:0.8;"/>
      </defs>
      <g>
       <use style="stroke:#000000;stroke-width:0.8;" x="137.7" xlink:href="#md72430cd56" y="252"/>
      </g>
     </g>
     <g id="text_1">
      <!-- Z_1_ns -->
      <g transform="translate(120.320312 266.320312)scale(0.1 -0.1)">
       <defs>
        <path d="M 5.609375 72.90625 
L 62.890625 72.90625 
L 62.890625 65.375 
L 16.796875 8.296875 
L 64.015625 8.296875 
L 64.015625 0 
L 4.5 0 
L 4.5 7.515625 
L 50.59375 64.59375 
L 5.609375 64.59375 
z
" id="DejaVuSans-90"/>
        <path d="M 50.984375 -16.609375 
L 50.984375 -23.578125 
L -0.984375 -23.578125 
L -0.984375 -16.609375 
z
" id="DejaVuSans-95"/>
        <path d="M 12.40625 8.296875 
L 28.515625 8.296875 
L 28.515625 63.921875 
L 10.984375 60.40625 
L 10.984375 69.390625 
L 28.421875 72.90625 
L 38.28125 72.90625 
L 38.28125 8.296875 
L 54.390625 8.296875 
L 54.390625 0 
L 12.40625 0 
z
" id="DejaVuSans-49"/>
        <path d="M 54.890625 33.015625 
L 54.890625 0 
L 45.90625 0 
L 45.90625 32.71875 
Q 45.90625 40.484375 42.875 44.328125 
Q 39.84375 48.1875 33.796875 48.1875 
Q 26.515625 48.1875 22.3125 43.546875 
Q 18.109375 38.921875 18.109375 30.90625 
L 18.109375 0 
L 9.078125 0 
L 9.078125 54.6875 
L 18.109375 54.6875 
L 18.109375 46.1875 
Q 21.34375 51.125 25.703125 53.5625 
Q 30.078125 56 35.796875 56 
Q 45.21875 56 50.046875 50.171875 
Q 54.890625 44.34375 54.890625 33.015625 
z
" id="DejaVuSans-110"/>
        <path d="M 44.28125 53.078125 
L 44.28125 44.578125 
Q 40.484375 46.53125 36.375 47.5 
Q 32.28125 48.484375 27.875 48.484375 
Q 21.1875 48.484375 17.84375 46.4375 
Q 14.5 44.390625 14.5 40.28125 
Q 14.5 37.15625 16.890625 35.375 
Q 19.28125 33.59375 26.515625 31.984375 
L 29.59375 31.296875 
Q 39.15625 29.25 43.1875 25.515625 
Q 47.21875 21.78125 47.21875 15.09375 
Q 47.21875 7.46875 41.1875 3.015625 
Q 35.15625 -1.421875 24.609375 -1.421875 
Q 20.21875 -1.421875 15.453125 -0.5625 
Q 10.6875 0.296875 5.421875 2 
L 5.421875 11.28125 
Q 10.40625 8.6875 15.234375 7.390625 
Q 20.0625 6.109375 24.8125 6.109375 
Q 31.15625 6.109375 34.5625 8.28125 
Q 37.984375 10.453125 37.984375 14.40625 
Q 37.984375 18.0625 35.515625 20.015625 
Q 33.0625 21.96875 24.703125 23.78125 
L 21.578125 24.515625 
Q 13.234375 26.265625 9.515625 29.90625 
Q 5.8125 33.546875 5.8125 39.890625 
Q 5.8125 47.609375 11.28125 51.796875 
Q 16.75 56 26.8125 56 
Q 31.78125 56 36.171875 55.265625 
Q 40.578125 54.546875 44.28125 53.078125 
z
" id="DejaVuSans-115"/>
       </defs>
       <use xlink:href="#DejaVuSans-90"/>
       <use x="68.505859" xlink:href="#DejaVuSans-95"/>
       <use x="118.505859" xlink:href="#DejaVuSans-49"/>
       <use x="182.128906" xlink:href="#DejaVuSans-95"/>
       <use x="232.128906" xlink:href="#DejaVuSans-110"/>
       <use x="295.507812" xlink:href="#DejaVuSans-115"/>
      </g>
     </g>
    </g>
    <g id="xtick_2">
     <g id="line2d_2">
      <g>
       <use style="stroke:#000000;stroke-width:0.8;" x="305.1" xlink:href="#md72430cd56" y="252"/>
      </g>
     </g>
     <g id="text_2">
      <!-- Z_3_ns -->
      <g transform="translate(287.720313 266.421875)scale(0.1 -0.1)">
       <defs>
        <path d="M 40.578125 39.3125 
Q 47.65625 37.796875 51.625 33 
Q 55.609375 28.21875 55.609375 21.1875 
Q 55.609375 10.40625 48.1875 4.484375 
Q 40.765625 -1.421875 27.09375 -1.421875 
Q 22.515625 -1.421875 17.65625 -0.515625 
Q 12.796875 0.390625 7.625 2.203125 
L 7.625 11.71875 
Q 11.71875 9.328125 16.59375 8.109375 
Q 21.484375 6.890625 26.8125 6.890625 
Q 36.078125 6.890625 40.9375 10.546875 
Q 45.796875 14.203125 45.796875 21.1875 
Q 45.796875 27.640625 41.28125 31.265625 
Q 36.765625 34.90625 28.71875 34.90625 
L 20.21875 34.90625 
L 20.21875 43.015625 
L 29.109375 43.015625 
Q 36.375 43.015625 40.234375 45.921875 
Q 44.09375 48.828125 44.09375 54.296875 
Q 44.09375 59.90625 40.109375 62.90625 
Q 36.140625 65.921875 28.71875 65.921875 
Q 24.65625 65.921875 20.015625 65.03125 
Q 15.375 64.15625 9.8125 62.3125 
L 9.8125 71.09375 
Q 15.4375 72.65625 20.34375 73.4375 
Q 25.25 74.21875 29.59375 74.21875 
Q 40.828125 74.21875 47.359375 69.109375 
Q 53.90625 64.015625 53.90625 55.328125 
Q 53.90625 49.265625 50.4375 45.09375 
Q 46.96875 40.921875 40.578125 39.3125 
z
" id="DejaVuSans-51"/>
       </defs>
       <use xlink:href="#DejaVuSans-90"/>
       <use x="68.505859" xlink:href="#DejaVuSans-95"/>
       <use x="118.505859" xlink:href="#DejaVuSans-51"/>
       <use x="182.128906" xlink:href="#DejaVuSans-95"/>
       <use x="232.128906" xlink:href="#DejaVuSans-110"/>
       <use x="295.507812" xlink:href="#DejaVuSans-115"/>
      </g>
     </g>
    </g>
    <g id="text_3">
     <!-- set -->
     <g transform="translate(213.758594 280.378125)scale(0.1 -0.1)">
      <defs>
       <path d="M 56.203125 29.59375 
L 56.203125 25.203125 
L 14.890625 25.203125 
Q 15.484375 15.921875 20.484375 11.0625 
Q 25.484375 6.203125 34.421875 6.203125 
Q 39.59375 6.203125 44.453125 7.46875 
Q 49.3125 8.734375 54.109375 11.28125 
L 54.109375 2.78125 
Q 49.265625 0.734375 44.1875 -0.34375 
Q 39.109375 -1.421875 33.890625 -1.421875 
Q 20.796875 -1.421875 13.15625 6.1875 
Q 5.515625 13.8125 5.515625 26.8125 
Q 5.515625 40.234375 12.765625 48.109375 
Q 20.015625 56 32.328125 56 
Q 43.359375 56 49.78125 48.890625 
Q 56.203125 41.796875 56.203125 29.59375 
z
M 47.21875 32.234375 
Q 47.125 39.59375 43.09375 43.984375 
Q 39.0625 48.390625 32.421875 48.390625 
Q 24.90625 48.390625 20.390625 44.140625 
Q 15.875 39.890625 15.1875 32.171875 
z
" id="DejaVuSans-101"/>
       <path d="M 18.3125 70.21875 
L 18.3125 54.6875 
L 36.8125 54.6875 
L 36.8125 47.703125 
L 18.3125 47.703125 
L 18.3125 18.015625 
Q 18.3125 11.328125 20.140625 9.421875 
Q 21.96875 7.515625 27.59375 7.515625 
L 36.8125 7.515625 
L 36.8125 0 
L 27.59375 0 
Q 17.1875 0 13.234375 3.875 
Q 9.28125 7.765625 9.28125 18.015625 
L 9.28125 47.703125 
L 2.6875 47.703125 
L 2.6875 54.6875 
L 9.28125 54.6875 
L 9.28125 70.21875 
z
" id="DejaVuSans-116"/>
      </defs>
      <use xlink:href="#DejaVuSans-115"/>
      <use x="52.099609" xlink:href="#DejaVuSans-101"/>
      <use x="113.623047" xlink:href="#DejaVuSans-116"/>
     </g>
    </g>
   </g>
   <g id="matplotlib.axis_2">
    <g id="ytick_1">
     <g id="line2d_3">
      <defs>
       <path d="M 0 0 
L -3.5 0 
" id="mca27363720" style="stroke:#000000;stroke-width:0.8;"/>
      </defs>
      <g>
       <use style="stroke:#000000;stroke-width:0.8;" x="54" xlink:href="#mca27363720" y="228.205194"/>
      </g>
     </g>
     <g id="text_4">
      <!-- 15 -->
      <g transform="translate(34.275 232.004413)scale(0.1 -0.1)">
       <defs>
        <path d="M 10.796875 72.90625 
L 49.515625 72.90625 
L 49.515625 64.59375 
L 19.828125 64.59375 
L 19.828125 46.734375 
Q 21.96875 47.46875 24.109375 47.828125 
Q 26.265625 48.1875 28.421875 48.1875 
Q 40.625 48.1875 47.75 41.5 
Q 54.890625 34.8125 54.890625 23.390625 
Q 54.890625 11.625 47.5625 5.09375 
Q 40.234375 -1.421875 26.90625 -1.421875 
Q 22.3125 -1.421875 17.546875 -0.640625 
Q 12.796875 0.140625 7.71875 1.703125 
L 7.71875 11.625 
Q 12.109375 9.234375 16.796875 8.0625 
Q 21.484375 6.890625 26.703125 6.890625 
Q 35.15625 6.890625 40.078125 11.328125 
Q 45.015625 15.765625 45.015625 23.390625 
Q 45.015625 31 40.078125 35.4375 
Q 35.15625 39.890625 26.703125 39.890625 
Q 22.75 39.890625 18.8125 39.015625 
Q 14.890625 38.140625 10.796875 36.28125 
z
" id="DejaVuSans-53"/>
       </defs>
       <use xlink:href="#DejaVuSans-49"/>
       <use x="63.623047" xlink:href="#DejaVuSans-53"/>
      </g>
     </g>
    </g>
    <g id="ytick_2">
     <g id="line2d_4">
      <g>
       <use style="stroke:#000000;stroke-width:0.8;" x="54" xlink:href="#mca27363720" y="198.641651"/>
      </g>
     </g>
     <g id="text_5">
      <!-- 20 -->
      <g transform="translate(34.275 202.44087)scale(0.1 -0.1)">
       <defs>
        <path d="M 19.1875 8.296875 
L 53.609375 8.296875 
L 53.609375 0 
L 7.328125 0 
L 7.328125 8.296875 
Q 12.9375 14.109375 22.625 23.890625 
Q 32.328125 33.6875 34.8125 36.53125 
Q 39.546875 41.84375 41.421875 45.53125 
Q 43.3125 49.21875 43.3125 52.78125 
Q 43.3125 58.59375 39.234375 62.25 
Q 35.15625 65.921875 28.609375 65.921875 
Q 23.96875 65.921875 18.8125 64.3125 
Q 13.671875 62.703125 7.8125 59.421875 
L 7.8125 69.390625 
Q 13.765625 71.78125 18.9375 73 
Q 24.125 74.21875 28.421875 74.21875 
Q 39.75 74.21875 46.484375 68.546875 
Q 53.21875 62.890625 53.21875 53.421875 
Q 53.21875 48.921875 51.53125 44.890625 
Q 49.859375 40.875 45.40625 35.40625 
Q 44.1875 33.984375 37.640625 27.21875 
Q 31.109375 20.453125 19.1875 8.296875 
z
" id="DejaVuSans-50"/>
        <path d="M 31.78125 66.40625 
Q 24.171875 66.40625 20.328125 58.90625 
Q 16.5 51.421875 16.5 36.375 
Q 16.5 21.390625 20.328125 13.890625 
Q 24.171875 6.390625 31.78125 6.390625 
Q 39.453125 6.390625 43.28125 13.890625 
Q 47.125 21.390625 47.125 36.375 
Q 47.125 51.421875 43.28125 58.90625 
Q 39.453125 66.40625 31.78125 66.40625 
z
M 31.78125 74.21875 
Q 44.046875 74.21875 50.515625 64.515625 
Q 56.984375 54.828125 56.984375 36.375 
Q 56.984375 17.96875 50.515625 8.265625 
Q 44.046875 -1.421875 31.78125 -1.421875 
Q 19.53125 -1.421875 13.0625 8.265625 
Q 6.59375 17.96875 6.59375 36.375 
Q 6.59375 54.828125 13.0625 64.515625 
Q 19.53125 74.21875 31.78125 74.21875 
z
" id="DejaVuSans-48"/>
       </defs>
       <use xlink:href="#DejaVuSans-50"/>
       <use x="63.623047" xlink:href="#DejaVuSans-48"/>
      </g>
     </g>
    </g>
    <g id="ytick_3">
     <g id="line2d_5">
      <g>
       <use style="stroke:#000000;stroke-width:0.8;" x="54" xlink:href="#mca27363720" y="169.078109"/>
      </g>
     </g>
     <g id="text_6">
      <!-- 25 -->
      <g transform="translate(34.275 172.877327)scale(0.1 -0.1)">
       <use xlink:href="#DejaVuSans-50"/>
       <use x="63.623047" xlink:href="#DejaVuSans-53"/>
      </g>
     </g>
    </g>
    <g id="ytick_4">
     <g id="line2d_6">
      <g>
       <use style="stroke:#000000;stroke-width:0.8;" x="54" xlink:href="#mca27363720" y="139.514566"/>
      </g>
     </g>
     <g id="text_7">
      <!-- 30 -->
      <g transform="translate(34.275 143.313784)scale(0.1 -0.1)">
       <use xlink:href="#DejaVuSans-51"/>
       <use x="63.623047" xlink:href="#DejaVuSans-48"/>
      </g>
     </g>
    </g>
    <g id="ytick_5">
     <g id="line2d_7">
      <g>
       <use style="stroke:#000000;stroke-width:0.8;" x="54" xlink:href="#mca27363720" y="109.951023"/>
      </g>
     </g>
     <g id="text_8">
      <!-- 35 -->
      <g transform="translate(34.275 113.750241)scale(0.1 -0.1)">
       <use xlink:href="#DejaVuSans-51"/>
       <use x="63.623047" xlink:href="#DejaVuSans-53"/>
      </g>
     </g>
    </g>
    <g id="ytick_6">
     <g id="line2d_8">
      <g>
       <use style="stroke:#000000;stroke-width:0.8;" x="54" xlink:href="#mca27363720" y="80.38748"/>
      </g>
     </g>
     <g id="text_9">
      <!-- 40 -->
      <g transform="translate(34.275 84.186698)scale(0.1 -0.1)">
       <defs>
        <path d="M 37.796875 64.3125 
L 12.890625 25.390625 
L 37.796875 25.390625 
z
M 35.203125 72.90625 
L 47.609375 72.90625 
L 47.609375 25.390625 
L 58.015625 25.390625 
L 58.015625 17.1875 
L 47.609375 17.1875 
L 47.609375 0 
L 37.796875 0 
L 37.796875 17.1875 
L 4.890625 17.1875 
L 4.890625 26.703125 
z
" id="DejaVuSans-52"/>
       </defs>
       <use xlink:href="#DejaVuSans-52"/>
       <use x="63.623047" xlink:href="#DejaVuSans-48"/>
      </g>
     </g>
    </g>
    <g id="ytick_7">
     <g id="line2d_9">
      <g>
       <use style="stroke:#000000;stroke-width:0.8;" x="54" xlink:href="#mca27363720" y="50.823937"/>
      </g>
     </g>
     <g id="text_10">
      <!-- 45 -->
      <g transform="translate(34.275 54.623155)scale(0.1 -0.1)">
       <use xlink:href="#DejaVuSans-52"/>
       <use x="63.623047" xlink:href="#DejaVuSans-53"/>
      </g>
     </g>
    </g>
    <g id="text_11">
     <!-- value -->
     <g transform="translate(28.195312 156.937813)rotate(-90)scale(0.1 -0.1)">
      <defs>
       <path d="M 2.984375 54.6875 
L 12.5 54.6875 
L 29.59375 8.796875 
L 46.6875 54.6875 
L 56.203125 54.6875 
L 35.6875 0 
L 23.484375 0 
z
" id="DejaVuSans-118"/>
       <path d="M 34.28125 27.484375 
Q 23.390625 27.484375 19.1875 25 
Q 14.984375 22.515625 14.984375 16.5 
Q 14.984375 11.71875 18.140625 8.90625 
Q 21.296875 6.109375 26.703125 6.109375 
Q 34.1875 6.109375 38.703125 11.40625 
Q 43.21875 16.703125 43.21875 25.484375 
L 43.21875 27.484375 
z
M 52.203125 31.203125 
L 52.203125 0 
L 43.21875 0 
L 43.21875 8.296875 
Q 40.140625 3.328125 35.546875 0.953125 
Q 30.953125 -1.421875 24.3125 -1.421875 
Q 15.921875 -1.421875 10.953125 3.296875 
Q 6 8.015625 6 15.921875 
Q 6 25.140625 12.171875 29.828125 
Q 18.359375 34.515625 30.609375 34.515625 
L 43.21875 34.515625 
L 43.21875 35.40625 
Q 43.21875 41.609375 39.140625 45 
Q 35.0625 48.390625 27.6875 48.390625 
Q 23 48.390625 18.546875 47.265625 
Q 14.109375 46.140625 10.015625 43.890625 
L 10.015625 52.203125 
Q 14.9375 54.109375 19.578125 55.046875 
Q 24.21875 56 28.609375 56 
Q 40.484375 56 46.34375 49.84375 
Q 52.203125 43.703125 52.203125 31.203125 
z
" id="DejaVuSans-97"/>
       <path d="M 9.421875 75.984375 
L 18.40625 75.984375 
L 18.40625 0 
L 9.421875 0 
z
" id="DejaVuSans-108"/>
       <path d="M 8.5 21.578125 
L 8.5 54.6875 
L 17.484375 54.6875 
L 17.484375 21.921875 
Q 17.484375 14.15625 20.5 10.265625 
Q 23.53125 6.390625 29.59375 6.390625 
Q 36.859375 6.390625 41.078125 11.03125 
Q 45.3125 15.671875 45.3125 23.6875 
L 45.3125 54.6875 
L 54.296875 54.6875 
L 54.296875 0 
L 45.3125 0 
L 45.3125 8.40625 
Q 42.046875 3.421875 37.71875 1 
Q 33.40625 -1.421875 27.6875 -1.421875 
Q 18.265625 -1.421875 13.375 4.4375 
Q 8.5 10.296875 8.5 21.578125 
z
M 31.109375 56 
z
" id="DejaVuSans-117"/>
      </defs>
      <use xlink:href="#DejaVuSans-118"/>
      <use x="59.179688" xlink:href="#DejaVuSans-97"/>
      <use x="120.458984" xlink:href="#DejaVuSans-108"/>
      <use x="148.242188" xlink:href="#DejaVuSans-117"/>
      <use x="211.621094" xlink:href="#DejaVuSans-101"/>
     </g>
    </g>
   </g>
   <g id="line2d_10">
    <path clip-path="url(#pfe7798c9ae)" d="M 104.22 161.929161 
L 104.22 50.013258 
" style="fill:none;stroke:#3f3f3f;stroke-linecap:square;stroke-width:1.5;"/>
   </g>
   <g id="line2d_11">
    <path clip-path="url(#pfe7798c9ae)" d="M 104.22 111.22494 
L 104.22 77.088557 
" style="fill:none;stroke:#3f3f3f;stroke-linecap:square;stroke-width:4.5;"/>
   </g>
   <g id="line2d_12">
    <path clip-path="url(#pfe7798c9ae)" d="M 338.58 135.944992 
L 338.58 44.443636 
" style="fill:none;stroke:#3f3f3f;stroke-linecap:square;stroke-width:1.5;"/>
   </g>
   <g id="line2d_13">
    <path clip-path="url(#pfe7798c9ae)" d="M 338.58 98.596355 
L 338.58 73.691959 
" style="fill:none;stroke:#3f3f3f;stroke-linecap:square;stroke-width:4.5;"/>
   </g>
   <g id="patch_5">
    <path d="M 54 252 
L 54 34.56 
" style="fill:none;stroke:#000000;stroke-linecap:square;stroke-linejoin:miter;stroke-width:0.8;"/>
   </g>
   <g id="patch_6">
    <path d="M 388.8 252 
L 388.8 34.56 
" style="fill:none;stroke:#000000;stroke-linecap:square;stroke-linejoin:miter;stroke-width:0.8;"/>
   </g>
   <g id="patch_7">
    <path d="M 54 252 
L 388.8 252 
" style="fill:none;stroke:#000000;stroke-linecap:square;stroke-linejoin:miter;stroke-width:0.8;"/>
   </g>
   <g id="patch_8">
    <path d="M 54 34.56 
L 388.8 34.56 
" style="fill:none;stroke:#000000;stroke-linecap:square;stroke-linejoin:miter;stroke-width:0.8;"/>
   </g>
   <g id="PathCollection_1">
    <defs>
     <path d="M 0 1.5 
C 0.397805 1.5 0.77937 1.341951 1.06066 1.06066 
C 1.341951 0.77937 1.5 0.397805 1.5 0 
C 1.5 -0.397805 1.341951 -0.77937 1.06066 -1.06066 
C 0.77937 -1.341951 0.397805 -1.5 0 -1.5 
C -0.397805 -1.5 -0.77937 -1.341951 -1.06066 -1.06066 
C -1.341951 -0.77937 -1.5 -0.397805 -1.5 0 
C -1.5 0.397805 -1.341951 0.77937 -1.06066 1.06066 
C -0.77937 1.341951 -0.397805 1.5 0 1.5 
z
" id="m60bf97ddb6" style="stroke:#3f3f3f;"/>
    </defs>
    <g clip-path="url(#pfe7798c9ae)">
     <use style="fill:#ffffff;stroke:#3f3f3f;" x="104.22" xlink:href="#m60bf97ddb6" y="89.132421"/>
    </g>
   </g>
   <g id="PathCollection_2">
    <g clip-path="url(#pfe7798c9ae)">
     <use style="fill:#ffffff;stroke:#3f3f3f;" x="338.58" xlink:href="#m60bf97ddb6" y="84.499878"/>
    </g>
   </g>
   <g id="legend_1">
    <g id="patch_9">
     <path d="M 61 247 
L 127.759375 247 
Q 129.759375 247 129.759375 245 
L 129.759375 201.409375 
Q 129.759375 199.409375 127.759375 199.409375 
L 61 199.409375 
Q 59 199.409375 59 201.409375 
L 59 245 
Q 59 247 61 247 
z
" style="fill:#ffffff;opacity:0.8;stroke:#cccccc;stroke-linejoin:miter;"/>
    </g>
    <g id="text_12">
     <!-- set -->
     <g transform="translate(86.738281 211.007812)scale(0.1 -0.1)">
      <use xlink:href="#DejaVuSans-115"/>
      <use x="52.099609" xlink:href="#DejaVuSans-101"/>
      <use x="113.623047" xlink:href="#DejaVuSans-116"/>
     </g>
    </g>
    <g id="patch_10">
     <path d="M 63 225.685937 
L 83 225.685937 
L 83 218.685937 
L 63 218.685937 
z
" style="fill:#3274a1;stroke:#3f3f3f;stroke-linejoin:miter;stroke-width:0.75;"/>
    </g>
    <g id="text_13">
     <!-- Z_1_ns -->
     <g transform="translate(91 225.685937)scale(0.1 -0.1)">
      <use xlink:href="#DejaVuSans-90"/>
      <use x="68.505859" xlink:href="#DejaVuSans-95"/>
      <use x="118.505859" xlink:href="#DejaVuSans-49"/>
      <use x="182.128906" xlink:href="#DejaVuSans-95"/>
      <use x="232.128906" xlink:href="#DejaVuSans-110"/>
      <use x="295.507812" xlink:href="#DejaVuSans-115"/>
     </g>
    </g>
    <g id="patch_11">
     <path d="M 63 240.642188 
L 83 240.642188 
L 83 233.642188 
L 63 233.642188 
z
" style="fill:#e1812c;stroke:#3f3f3f;stroke-linejoin:miter;stroke-width:0.75;"/>
    </g>
    <g id="text_14">
     <!-- Z_3_ns -->
     <g transform="translate(91 240.642188)scale(0.1 -0.1)">
      <use xlink:href="#DejaVuSans-90"/>
      <use x="68.505859" xlink:href="#DejaVuSans-95"/>
      <use x="118.505859" xlink:href="#DejaVuSans-51"/>
      <use x="182.128906" xlink:href="#DejaVuSans-95"/>
      <use x="232.128906" xlink:href="#DejaVuSans-110"/>
      <use x="295.507812" xlink:href="#DejaVuSans-115"/>
     </g>
    </g>
   </g>
  </g>
 </g>
 <defs>
  <clipPath id="pfe7798c9ae">
   <rect height="217.44" width="334.8" x="54" y="34.56"/>
  </clipPath>
 </defs>
</svg>
