<?xml version="1.0" encoding="utf-8" standalone="no"?>
<!DOCTYPE svg PUBLIC "-//W3C//DTD SVG 1.1//EN"
  "http://www.w3.org/Graphics/SVG/1.1/DTD/svg11.dtd">
<!-- Created with matplotlib (https://matplotlib.org/) -->
<svg height="288pt" version="1.1" viewBox="0 0 432 288" width="432pt" xmlns="http://www.w3.org/2000/svg" xmlns:xlink="http://www.w3.org/1999/xlink">
 <metadata>
  <rdf:RDF xmlns:cc="http://creativecommons.org/ns#" xmlns:dc="http://purl.org/dc/elements/1.1/" xmlns:rdf="http://www.w3.org/1999/02/22-rdf-syntax-ns#">
   <cc:Work>
    <dc:type rdf:resource="http://purl.org/dc/dcmitype/StillImage"/>
    <dc:date>2022-05-02T17:00:21.054789</dc:date>
    <dc:format>image/svg+xml</dc:format>
    <dc:creator>
     <cc:Agent>
      <dc:title>Matplotlib v3.3.4, https://matplotlib.org/</dc:title>
     </cc:Agent>
    </dc:creator>
   </cc:Work>
  </rdf:RDF>
 </metadata>
 <defs>
  <style type="text/css">*{stroke-linecap:butt;stroke-linejoin:round;}</style>
 </defs>
 <g id="figure_1">
  <g id="patch_1">
   <path d="M 0 288 
L 432 288 
L 432 0 
L 0 0 
z
" style="fill:#ffffff;"/>
  </g>
  <g id="axes_1">
   <g id="patch_2">
    <path d="M 54 252 
L 388.8 252 
L 388.8 34.56 
L 54 34.56 
z
" style="fill:#ffffff;"/>
   </g>
   <g id="PolyCollection_1">
    <defs>
     <path d="M 104.387942 -67.835706 
L 104.052058 -67.835706 
L 103.992617 -69.610663 
L 103.919845 -71.385619 
L 103.834317 -73.160575 
L 103.739228 -74.935531 
L 103.640622 -76.710487 
L 103.546377 -78.485443 
L 103.464008 -80.260399 
L 103.39808 -82.035355 
L 103.348355 -83.810312 
L 103.309482 -85.585268 
L 103.272294 -87.360224 
L 103.225938 -89.13518 
L 103.159913 -90.910136 
L 103.065559 -92.685092 
L 102.937284 -94.460048 
L 102.774086 -96.235005 
L 102.581313 -98.009961 
L 102.371646 -99.784917 
L 102.163837 -101.559873 
L 101.978545 -103.334829 
L 101.832328 -105.109785 
L 101.732286 -106.884741 
L 101.673932 -108.659697 
L 101.643313 -110.434654 
L 101.622326 -112.20961 
L 101.594808 -113.984566 
L 101.551 -115.759522 
L 101.489145 -117.534478 
L 101.414289 -119.309434 
L 101.335219 -121.08439 
L 101.260769 -122.859347 
L 101.19649 -124.634303 
L 101.142437 -126.409259 
L 101.092499 -128.184215 
L 101.035503 -129.959171 
L 100.957985 -131.734127 
L 100.848064 -133.509083 
L 100.699212 -135.284039 
L 100.512478 -137.058996 
L 100.296118 -138.833952 
L 100.062661 -140.608908 
L 99.824542 -142.383864 
L 99.589825 -144.15882 
L 99.359092 -145.933776 
L 99.123974 -147.708732 
L 98.867512 -149.483689 
L 98.566718 -151.258645 
L 98.19747 -153.033601 
L 97.741039 -154.808557 
L 97.190231 -156.583513 
L 96.552502 -158.358469 
L 95.848094 -160.133425 
L 95.103388 -161.908381 
L 94.342003 -163.683338 
L 93.577387 -165.458294 
L 92.809774 -167.23325 
L 92.028135 -169.008206 
L 91.215563 -170.783162 
L 90.355842 -172.558118 
L 89.439555 -174.333074 
L 88.468858 -176.108031 
L 87.459916 -177.882987 
L 86.441379 -179.657943 
L 85.447501 -181.432899 
L 84.506608 -183.207855 
L 83.628836 -184.982811 
L 82.79903 -186.757767 
L 81.979416 -188.532723 
L 81.122094 -190.30768 
L 80.186254 -192.082636 
L 79.152391 -193.857592 
L 78.027565 -195.632548 
L 76.840774 -197.407504 
L 75.632895 -199.18246 
L 74.44805 -200.957416 
L 73.331369 -202.732373 
L 72.33325 -204.507329 
L 71.515749 -206.282285 
L 70.955509 -208.057241 
L 70.74 -209.832197 
L 70.957482 -211.607153 
L 71.683241 -213.382109 
L 72.964698 -215.157065 
L 74.807488 -216.932022 
L 77.165209 -218.706978 
L 79.93675 -220.481934 
L 82.974756 -222.25689 
L 86.105568 -224.031846 
L 89.156142 -225.806802 
L 91.980229 -227.581758 
L 94.476517 -229.356715 
L 96.595123 -231.131671 
L 98.333133 -232.906627 
L 99.722671 -234.681583 
L 100.815783 -236.456539 
L 101.669975 -238.231495 
L 102.337319 -240.006451 
L 102.858743 -241.781408 
L 103.263443 -243.556364 
L 105.176557 -243.556364 
L 105.176557 -243.556364 
L 105.581257 -241.781408 
L 106.102681 -240.006451 
L 106.770025 -238.231495 
L 107.624217 -236.456539 
L 108.717329 -234.681583 
L 110.106867 -232.906627 
L 111.844877 -231.131671 
L 113.963483 -229.356715 
L 116.459771 -227.581758 
L 119.283858 -225.806802 
L 122.334432 -224.031846 
L 125.465244 -222.25689 
L 128.50325 -220.481934 
L 131.274791 -218.706978 
L 133.632512 -216.932022 
L 135.475302 -215.157065 
L 136.756759 -213.382109 
L 137.482518 -211.607153 
L 137.7 -209.832197 
L 137.484491 -208.057241 
L 136.924251 -206.282285 
L 136.10675 -204.507329 
L 135.108631 -202.732373 
L 133.99195 -200.957416 
L 132.807105 -199.18246 
L 131.599226 -197.407504 
L 130.412435 -195.632548 
L 129.287609 -193.857592 
L 128.253746 -192.082636 
L 127.317906 -190.30768 
L 126.460584 -188.532723 
L 125.64097 -186.757767 
L 124.811164 -184.982811 
L 123.933392 -183.207855 
L 122.992499 -181.432899 
L 121.998621 -179.657943 
L 120.980084 -177.882987 
L 119.971142 -176.108031 
L 119.000445 -174.333074 
L 118.084158 -172.558118 
L 117.224437 -170.783162 
L 116.411865 -169.008206 
L 115.630226 -167.23325 
L 114.862613 -165.458294 
L 114.097997 -163.683338 
L 113.336612 -161.908381 
L 112.591906 -160.133425 
L 111.887498 -158.358469 
L 111.249769 -156.583513 
L 110.698961 -154.808557 
L 110.24253 -153.033601 
L 109.873282 -151.258645 
L 109.572488 -149.483689 
L 109.316026 -147.708732 
L 109.080908 -145.933776 
L 108.850175 -144.15882 
L 108.615458 -142.383864 
L 108.377339 -140.608908 
L 108.143882 -138.833952 
L 107.927522 -137.058996 
L 107.740788 -135.284039 
L 107.591936 -133.509083 
L 107.482015 -131.734127 
L 107.404497 -129.959171 
L 107.347501 -128.184215 
L 107.297563 -126.409259 
L 107.24351 -124.634303 
L 107.179231 -122.859347 
L 107.104781 -121.08439 
L 107.025711 -119.309434 
L 106.950855 -117.534478 
L 106.889 -115.759522 
L 106.845192 -113.984566 
L 106.817674 -112.20961 
L 106.796687 -110.434654 
L 106.766068 -108.659697 
L 106.707714 -106.884741 
L 106.607672 -105.109785 
L 106.461455 -103.334829 
L 106.276163 -101.559873 
L 106.068354 -99.784917 
L 105.858687 -98.009961 
L 105.665914 -96.235005 
L 105.502716 -94.460048 
L 105.374441 -92.685092 
L 105.280087 -90.910136 
L 105.214062 -89.13518 
L 105.167706 -87.360224 
L 105.130518 -85.585268 
L 105.091645 -83.810312 
L 105.04192 -82.035355 
L 104.975992 -80.260399 
L 104.893623 -78.485443 
L 104.799378 -76.710487 
L 104.700772 -74.935531 
L 104.605683 -73.160575 
L 104.520155 -71.385619 
L 104.447383 -69.610663 
L 104.387942 -67.835706 
z
" id="m630079b0d8" style="stroke:#3f3f3f;stroke-width:1.5;"/>
    </defs>
    <g clip-path="url(#p785a9e991e)">
     <use style="fill:#3274a1;stroke:#3f3f3f;stroke-width:1.5;" x="0" xlink:href="#m630079b0d8" y="288"/>
    </g>
   </g>
   <g id="PolyCollection_2">
    <defs>
     <path d="M 338.685446 -45.883636 
L 338.474554 -45.883636 
L 338.463198 -47.593592 
L 338.453055 -49.303548 
L 338.439132 -51.013504 
L 338.41486 -52.72346 
L 338.374362 -54.433416 
L 338.31512 -56.143372 
L 338.239935 -57.853328 
L 338.157061 -59.563284 
L 338.077938 -61.27324 
L 338.013053 -62.983196 
L 337.967658 -64.693152 
L 337.93957 -66.403108 
L 337.920466 -68.113064 
L 337.900222 -69.82302 
L 337.872007 -71.532975 
L 337.835339 -73.242931 
L 337.795531 -74.952887 
L 337.760079 -76.662843 
L 337.734216 -78.372799 
L 337.718051 -80.082755 
L 337.706554 -81.792711 
L 337.691921 -83.502667 
L 337.666796 -85.212623 
L 337.626711 -86.922579 
L 337.570898 -88.632535 
L 337.501559 -90.342491 
L 337.422118 -92.052447 
L 337.335104 -93.762403 
L 337.240276 -95.472359 
L 337.133783 -97.182315 
L 337.00913 -98.89227 
L 336.860158 -100.602226 
L 336.685036 -102.312182 
L 336.489264 -104.022138 
L 336.285641 -105.732094 
L 336.090465 -107.44205 
L 335.9172 -109.152006 
L 335.770386 -110.861962 
L 335.642684 -112.571918 
L 335.516587 -114.281874 
L 335.370074 -115.99183 
L 335.183693 -117.701786 
L 334.946112 -119.411742 
L 334.656207 -121.121698 
L 334.32167 -122.831654 
L 333.95561 -124.54161 
L 333.572961 -126.251565 
L 333.18776 -127.961521 
L 332.811297 -129.671477 
L 332.450526 -131.381433 
L 332.106433 -133.091389 
L 331.772718 -134.801345 
L 331.435776 -136.511301 
L 331.076878 -138.221257 
L 330.67689 -139.931213 
L 330.222786 -141.641169 
L 329.714011 -143.351125 
L 329.165695 -145.061081 
L 328.605811 -146.771037 
L 328.065697 -148.480993 
L 327.567304 -150.190949 
L 327.11365 -151.900905 
L 326.68797 -153.61086 
L 326.261973 -155.320816 
L 325.807694 -157.030772 
L 325.305625 -158.740728 
L 324.745224 -160.450684 
L 324.119807 -162.16064 
L 323.421187 -163.870596 
L 322.637859 -165.580552 
L 321.7563 -167.290508 
L 320.762385 -169.000464 
L 319.641524 -170.71042 
L 318.379635 -172.420376 
L 316.968177 -174.130332 
L 315.413119 -175.840288 
L 313.743129 -177.550244 
L 312.011331 -179.2602 
L 310.289652 -180.970155 
L 308.661112 -182.680111 
L 307.217137 -184.390067 
L 306.061448 -186.100023 
L 305.313413 -187.809979 
L 305.1 -189.519935 
L 305.531197 -191.229891 
L 306.665872 -192.939847 
L 308.484456 -194.649803 
L 310.884069 -196.359759 
L 313.700536 -198.069715 
L 316.747393 -199.779671 
L 319.853764 -201.489627 
L 322.885972 -203.199583 
L 325.749042 -204.909539 
L 328.375793 -206.619495 
L 330.715494 -208.329451 
L 332.729886 -210.039406 
L 334.396605 -211.749362 
L 335.714664 -213.459318 
L 336.706472 -215.169274 
L 340.453528 -215.169274 
L 340.453528 -215.169274 
L 341.445336 -213.459318 
L 342.763395 -211.749362 
L 344.430114 -210.039406 
L 346.444506 -208.329451 
L 348.784207 -206.619495 
L 351.410958 -204.909539 
L 354.274028 -203.199583 
L 357.306236 -201.489627 
L 360.412607 -199.779671 
L 363.459464 -198.069715 
L 366.275931 -196.359759 
L 368.675544 -194.649803 
L 370.494128 -192.939847 
L 371.628803 -191.229891 
L 372.06 -189.519935 
L 371.846587 -187.809979 
L 371.098552 -186.100023 
L 369.942863 -184.390067 
L 368.498888 -182.680111 
L 366.870348 -180.970155 
L 365.148669 -179.2602 
L 363.416871 -177.550244 
L 361.746881 -175.840288 
L 360.191823 -174.130332 
L 358.780365 -172.420376 
L 357.518476 -170.71042 
L 356.397615 -169.000464 
L 355.4037 -167.290508 
L 354.522141 -165.580552 
L 353.738813 -163.870596 
L 353.040193 -162.16064 
L 352.414776 -160.450684 
L 351.854375 -158.740728 
L 351.352306 -157.030772 
L 350.898027 -155.320816 
L 350.47203 -153.61086 
L 350.04635 -151.900905 
L 349.592696 -150.190949 
L 349.094303 -148.480993 
L 348.554189 -146.771037 
L 347.994305 -145.061081 
L 347.445989 -143.351125 
L 346.937214 -141.641169 
L 346.48311 -139.931213 
L 346.083122 -138.221257 
L 345.724224 -136.511301 
L 345.387282 -134.801345 
L 345.053567 -133.091389 
L 344.709474 -131.381433 
L 344.348703 -129.671477 
L 343.97224 -127.961521 
L 343.587039 -126.251565 
L 343.20439 -124.54161 
L 342.83833 -122.831654 
L 342.503793 -121.121698 
L 342.213888 -119.411742 
L 341.976307 -117.701786 
L 341.789926 -115.99183 
L 341.643413 -114.281874 
L 341.517316 -112.571918 
L 341.389614 -110.861962 
L 341.2428 -109.152006 
L 341.069535 -107.44205 
L 340.874359 -105.732094 
L 340.670736 -104.022138 
L 340.474964 -102.312182 
L 340.299842 -100.602226 
L 340.15087 -98.89227 
L 340.026217 -97.182315 
L 339.919724 -95.472359 
L 339.824896 -93.762403 
L 339.737882 -92.052447 
L 339.658441 -90.342491 
L 339.589102 -88.632535 
L 339.533289 -86.922579 
L 339.493204 -85.212623 
L 339.468079 -83.502667 
L 339.453446 -81.792711 
L 339.441949 -80.082755 
L 339.425784 -78.372799 
L 339.399921 -76.662843 
L 339.364469 -74.952887 
L 339.324661 -73.242931 
L 339.287993 -71.532975 
L 339.259778 -69.82302 
L 339.239534 -68.113064 
L 339.22043 -66.403108 
L 339.192342 -64.693152 
L 339.146947 -62.983196 
L 339.082062 -61.27324 
L 339.002939 -59.563284 
L 338.920065 -57.853328 
L 338.84488 -56.143372 
L 338.785638 -54.433416 
L 338.74514 -52.72346 
L 338.720868 -51.013504 
L 338.706945 -49.303548 
L 338.696802 -47.593592 
L 338.685446 -45.883636 
z
" id="m12bb339c1e" style="stroke:#3f3f3f;stroke-width:1.5;"/>
    </defs>
    <g clip-path="url(#p785a9e991e)">
     <use style="fill:#e1812c;stroke:#3f3f3f;stroke-width:1.5;" x="0" xlink:href="#m12bb339c1e" y="288"/>
    </g>
   </g>
   <g id="patch_3">
    <path clip-path="url(#p785a9e991e)" d="M 137.7 257.830294 
L 137.7 257.830294 
L 137.7 257.830294 
L 137.7 257.830294 
z
" style="fill:#3274a1;stroke:#3f3f3f;stroke-linejoin:miter;stroke-width:0.75;"/>
   </g>
   <g id="patch_4">
    <path clip-path="url(#p785a9e991e)" d="M 137.7 257.830294 
L 137.7 257.830294 
L 137.7 257.830294 
L 137.7 257.830294 
z
" style="fill:#e1812c;stroke:#3f3f3f;stroke-linejoin:miter;stroke-width:0.75;"/>
   </g>
   <g id="matplotlib.axis_1">
    <g id="xtick_1">
     <g id="line2d_1">
      <defs>
       <path d="M 0 0 
L 0 3.5 
" id="mf8c14eea64" style="stroke:#000000;stroke-width:0.8;"/>
      </defs>
      <g>
       <use style="stroke:#000000;stroke-width:0.8;" x="137.7" xlink:href="#mf8c14eea64" y="252"/>
      </g>
     </g>
     <g id="text_1">
      <!-- Z_1_ns -->
      <g transform="translate(120.320312 266.320312)scale(0.1 -0.1)">
       <defs>
        <path d="M 5.609375 72.90625 
L 62.890625 72.90625 
L 62.890625 65.375 
L 16.796875 8.296875 
L 64.015625 8.296875 
L 64.015625 0 
L 4.5 0 
L 4.5 7.515625 
L 50.59375 64.59375 
L 5.609375 64.59375 
z
" id="DejaVuSans-90"/>
        <path d="M 50.984375 -16.609375 
L 50.984375 -23.578125 
L -0.984375 -23.578125 
L -0.984375 -16.609375 
z
" id="DejaVuSans-95"/>
        <path d="M 12.40625 8.296875 
L 28.515625 8.296875 
L 28.515625 63.921875 
L 10.984375 60.40625 
L 10.984375 69.390625 
L 28.421875 72.90625 
L 38.28125 72.90625 
L 38.28125 8.296875 
L 54.390625 8.296875 
L 54.390625 0 
L 12.40625 0 
z
" id="DejaVuSans-49"/>
        <path d="M 54.890625 33.015625 
L 54.890625 0 
L 45.90625 0 
L 45.90625 32.71875 
Q 45.90625 40.484375 42.875 44.328125 
Q 39.84375 48.1875 33.796875 48.1875 
Q 26.515625 48.1875 22.3125 43.546875 
Q 18.109375 38.921875 18.109375 30.90625 
L 18.109375 0 
L 9.078125 0 
L 9.078125 54.6875 
L 18.109375 54.6875 
L 18.109375 46.1875 
Q 21.34375 51.125 25.703125 53.5625 
Q 30.078125 56 35.796875 56 
Q 45.21875 56 50.046875 50.171875 
Q 54.890625 44.34375 54.890625 33.015625 
z
" id="DejaVuSans-110"/>
        <path d="M 44.28125 53.078125 
L 44.28125 44.578125 
Q 40.484375 46.53125 36.375 47.5 
Q 32.28125 48.484375 27.875 48.484375 
Q 21.1875 48.484375 17.84375 46.4375 
Q 14.5 44.390625 14.5 40.28125 
Q 14.5 37.15625 16.890625 35.375 
Q 19.28125 33.59375 26.515625 31.984375 
L 29.59375 31.296875 
Q 39.15625 29.25 43.1875 25.515625 
Q 47.21875 21.78125 47.21875 15.09375 
Q 47.21875 7.46875 41.1875 3.015625 
Q 35.15625 -1.421875 24.609375 -1.421875 
Q 20.21875 -1.421875 15.453125 -0.5625 
Q 10.6875 0.296875 5.421875 2 
L 5.421875 11.28125 
Q 10.40625 8.6875 15.234375 7.390625 
Q 20.0625 6.109375 24.8125 6.109375 
Q 31.15625 6.109375 34.5625 8.28125 
Q 37.984375 10.453125 37.984375 14.40625 
Q 37.984375 18.0625 35.515625 20.015625 
Q 33.0625 21.96875 24.703125 23.78125 
L 21.578125 24.515625 
Q 13.234375 26.265625 9.515625 29.90625 
Q 5.8125 33.546875 5.8125 39.890625 
Q 5.8125 47.609375 11.28125 51.796875 
Q 16.75 56 26.8125 56 
Q 31.78125 56 36.171875 55.265625 
Q 40.578125 54.546875 44.28125 53.078125 
z
" id="DejaVuSans-115"/>
       </defs>
       <use xlink:href="#DejaVuSans-90"/>
       <use x="68.505859" xlink:href="#DejaVuSans-95"/>
       <use x="118.505859" xlink:href="#DejaVuSans-49"/>
       <use x="182.128906" xlink:href="#DejaVuSans-95"/>
       <use x="232.128906" xlink:href="#DejaVuSans-110"/>
       <use x="295.507812" xlink:href="#DejaVuSans-115"/>
      </g>
     </g>
    </g>
    <g id="xtick_2">
     <g id="line2d_2">
      <g>
       <use style="stroke:#000000;stroke-width:0.8;" x="305.1" xlink:href="#mf8c14eea64" y="252"/>
      </g>
     </g>
     <g id="text_2">
      <!-- Z_2_ns -->
      <g transform="translate(287.720313 266.421875)scale(0.1 -0.1)">
       <defs>
        <path d="M 19.1875 8.296875 
L 53.609375 8.296875 
L 53.609375 0 
L 7.328125 0 
L 7.328125 8.296875 
Q 12.9375 14.109375 22.625 23.890625 
Q 32.328125 33.6875 34.8125 36.53125 
Q 39.546875 41.84375 41.421875 45.53125 
Q 43.3125 49.21875 43.3125 52.78125 
Q 43.3125 58.59375 39.234375 62.25 
Q 35.15625 65.921875 28.609375 65.921875 
Q 23.96875 65.921875 18.8125 64.3125 
Q 13.671875 62.703125 7.8125 59.421875 
L 7.8125 69.390625 
Q 13.765625 71.78125 18.9375 73 
Q 24.125 74.21875 28.421875 74.21875 
Q 39.75 74.21875 46.484375 68.546875 
Q 53.21875 62.890625 53.21875 53.421875 
Q 53.21875 48.921875 51.53125 44.890625 
Q 49.859375 40.875 45.40625 35.40625 
Q 44.1875 33.984375 37.640625 27.21875 
Q 31.109375 20.453125 19.1875 8.296875 
z
" id="DejaVuSans-50"/>
       </defs>
       <use xlink:href="#DejaVuSans-90"/>
       <use x="68.505859" xlink:href="#DejaVuSans-95"/>
       <use x="118.505859" xlink:href="#DejaVuSans-50"/>
       <use x="182.128906" xlink:href="#DejaVuSans-95"/>
       <use x="232.128906" xlink:href="#DejaVuSans-110"/>
       <use x="295.507812" xlink:href="#DejaVuSans-115"/>
      </g>
     </g>
    </g>
    <g id="text_3">
     <!-- set -->
     <g transform="translate(213.758594 280.378125)scale(0.1 -0.1)">
      <defs>
       <path d="M 56.203125 29.59375 
L 56.203125 25.203125 
L 14.890625 25.203125 
Q 15.484375 15.921875 20.484375 11.0625 
Q 25.484375 6.203125 34.421875 6.203125 
Q 39.59375 6.203125 44.453125 7.46875 
Q 49.3125 8.734375 54.109375 11.28125 
L 54.109375 2.78125 
Q 49.265625 0.734375 44.1875 -0.34375 
Q 39.109375 -1.421875 33.890625 -1.421875 
Q 20.796875 -1.421875 13.15625 6.1875 
Q 5.515625 13.8125 5.515625 26.8125 
Q 5.515625 40.234375 12.765625 48.109375 
Q 20.015625 56 32.328125 56 
Q 43.359375 56 49.78125 48.890625 
Q 56.203125 41.796875 56.203125 29.59375 
z
M 47.21875 32.234375 
Q 47.125 39.59375 43.09375 43.984375 
Q 39.0625 48.390625 32.421875 48.390625 
Q 24.90625 48.390625 20.390625 44.140625 
Q 15.875 39.890625 15.1875 32.171875 
z
" id="DejaVuSans-101"/>
       <path d="M 18.3125 70.21875 
L 18.3125 54.6875 
L 36.8125 54.6875 
L 36.8125 47.703125 
L 18.3125 47.703125 
L 18.3125 18.015625 
Q 18.3125 11.328125 20.140625 9.421875 
Q 21.96875 7.515625 27.59375 7.515625 
L 36.8125 7.515625 
L 36.8125 0 
L 27.59375 0 
Q 17.1875 0 13.234375 3.875 
Q 9.28125 7.765625 9.28125 18.015625 
L 9.28125 47.703125 
L 2.6875 47.703125 
L 2.6875 54.6875 
L 9.28125 54.6875 
L 9.28125 70.21875 
z
" id="DejaVuSans-116"/>
      </defs>
      <use xlink:href="#DejaVuSans-115"/>
      <use x="52.099609" xlink:href="#DejaVuSans-101"/>
      <use x="113.623047" xlink:href="#DejaVuSans-116"/>
     </g>
    </g>
   </g>
   <g id="matplotlib.axis_2">
    <g id="ytick_1">
     <g id="line2d_3">
      <defs>
       <path d="M 0 0 
L -3.5 0 
" id="mfe7b769f99" style="stroke:#000000;stroke-width:0.8;"/>
      </defs>
      <g>
       <use style="stroke:#000000;stroke-width:0.8;" x="54" xlink:href="#mfe7b769f99" y="229.004702"/>
      </g>
     </g>
     <g id="text_4">
      <!-- 5 -->
      <g transform="translate(40.6375 232.803921)scale(0.1 -0.1)">
       <defs>
        <path d="M 10.796875 72.90625 
L 49.515625 72.90625 
L 49.515625 64.59375 
L 19.828125 64.59375 
L 19.828125 46.734375 
Q 21.96875 47.46875 24.109375 47.828125 
Q 26.265625 48.1875 28.421875 48.1875 
Q 40.625 48.1875 47.75 41.5 
Q 54.890625 34.8125 54.890625 23.390625 
Q 54.890625 11.625 47.5625 5.09375 
Q 40.234375 -1.421875 26.90625 -1.421875 
Q 22.3125 -1.421875 17.546875 -0.640625 
Q 12.796875 0.140625 7.71875 1.703125 
L 7.71875 11.625 
Q 12.109375 9.234375 16.796875 8.0625 
Q 21.484375 6.890625 26.703125 6.890625 
Q 35.15625 6.890625 40.078125 11.328125 
Q 45.015625 15.765625 45.015625 23.390625 
Q 45.015625 31 40.078125 35.4375 
Q 35.15625 39.890625 26.703125 39.890625 
Q 22.75 39.890625 18.8125 39.015625 
Q 14.890625 38.140625 10.796875 36.28125 
z
" id="DejaVuSans-53"/>
       </defs>
       <use xlink:href="#DejaVuSans-53"/>
      </g>
     </g>
    </g>
    <g id="ytick_2">
     <g id="line2d_4">
      <g>
       <use style="stroke:#000000;stroke-width:0.8;" x="54" xlink:href="#mfe7b769f99" y="200.179111"/>
      </g>
     </g>
     <g id="text_5">
      <!-- 10 -->
      <g transform="translate(34.275 203.97833)scale(0.1 -0.1)">
       <defs>
        <path d="M 31.78125 66.40625 
Q 24.171875 66.40625 20.328125 58.90625 
Q 16.5 51.421875 16.5 36.375 
Q 16.5 21.390625 20.328125 13.890625 
Q 24.171875 6.390625 31.78125 6.390625 
Q 39.453125 6.390625 43.28125 13.890625 
Q 47.125 21.390625 47.125 36.375 
Q 47.125 51.421875 43.28125 58.90625 
Q 39.453125 66.40625 31.78125 66.40625 
z
M 31.78125 74.21875 
Q 44.046875 74.21875 50.515625 64.515625 
Q 56.984375 54.828125 56.984375 36.375 
Q 56.984375 17.96875 50.515625 8.265625 
Q 44.046875 -1.421875 31.78125 -1.421875 
Q 19.53125 -1.421875 13.0625 8.265625 
Q 6.59375 17.96875 6.59375 36.375 
Q 6.59375 54.828125 13.0625 64.515625 
Q 19.53125 74.21875 31.78125 74.21875 
z
" id="DejaVuSans-48"/>
       </defs>
       <use xlink:href="#DejaVuSans-49"/>
       <use x="63.623047" xlink:href="#DejaVuSans-48"/>
      </g>
     </g>
    </g>
    <g id="ytick_3">
     <g id="line2d_5">
      <g>
       <use style="stroke:#000000;stroke-width:0.8;" x="54" xlink:href="#mfe7b769f99" y="171.353519"/>
      </g>
     </g>
     <g id="text_6">
      <!-- 15 -->
      <g transform="translate(34.275 175.152738)scale(0.1 -0.1)">
       <use xlink:href="#DejaVuSans-49"/>
       <use x="63.623047" xlink:href="#DejaVuSans-53"/>
      </g>
     </g>
    </g>
    <g id="ytick_4">
     <g id="line2d_6">
      <g>
       <use style="stroke:#000000;stroke-width:0.8;" x="54" xlink:href="#mfe7b769f99" y="142.527928"/>
      </g>
     </g>
     <g id="text_7">
      <!-- 20 -->
      <g transform="translate(34.275 146.327147)scale(0.1 -0.1)">
       <use xlink:href="#DejaVuSans-50"/>
       <use x="63.623047" xlink:href="#DejaVuSans-48"/>
      </g>
     </g>
    </g>
    <g id="ytick_5">
     <g id="line2d_7">
      <g>
       <use style="stroke:#000000;stroke-width:0.8;" x="54" xlink:href="#mfe7b769f99" y="113.702336"/>
      </g>
     </g>
     <g id="text_8">
      <!-- 25 -->
      <g transform="translate(34.275 117.501555)scale(0.1 -0.1)">
       <use xlink:href="#DejaVuSans-50"/>
       <use x="63.623047" xlink:href="#DejaVuSans-53"/>
      </g>
     </g>
    </g>
    <g id="ytick_6">
     <g id="line2d_8">
      <g>
       <use style="stroke:#000000;stroke-width:0.8;" x="54" xlink:href="#mfe7b769f99" y="84.876745"/>
      </g>
     </g>
     <g id="text_9">
      <!-- 30 -->
      <g transform="translate(34.275 88.675964)scale(0.1 -0.1)">
       <defs>
        <path d="M 40.578125 39.3125 
Q 47.65625 37.796875 51.625 33 
Q 55.609375 28.21875 55.609375 21.1875 
Q 55.609375 10.40625 48.1875 4.484375 
Q 40.765625 -1.421875 27.09375 -1.421875 
Q 22.515625 -1.421875 17.65625 -0.515625 
Q 12.796875 0.390625 7.625 2.203125 
L 7.625 11.71875 
Q 11.71875 9.328125 16.59375 8.109375 
Q 21.484375 6.890625 26.8125 6.890625 
Q 36.078125 6.890625 40.9375 10.546875 
Q 45.796875 14.203125 45.796875 21.1875 
Q 45.796875 27.640625 41.28125 31.265625 
Q 36.765625 34.90625 28.71875 34.90625 
L 20.21875 34.90625 
L 20.21875 43.015625 
L 29.109375 43.015625 
Q 36.375 43.015625 40.234375 45.921875 
Q 44.09375 48.828125 44.09375 54.296875 
Q 44.09375 59.90625 40.109375 62.90625 
Q 36.140625 65.921875 28.71875 65.921875 
Q 24.65625 65.921875 20.015625 65.03125 
Q 15.375 64.15625 9.8125 62.3125 
L 9.8125 71.09375 
Q 15.4375 72.65625 20.34375 73.4375 
Q 25.25 74.21875 29.59375 74.21875 
Q 40.828125 74.21875 47.359375 69.109375 
Q 53.90625 64.015625 53.90625 55.328125 
Q 53.90625 49.265625 50.4375 45.09375 
Q 46.96875 40.921875 40.578125 39.3125 
z
" id="DejaVuSans-51"/>
       </defs>
       <use xlink:href="#DejaVuSans-51"/>
       <use x="63.623047" xlink:href="#DejaVuSans-48"/>
      </g>
     </g>
    </g>
    <g id="ytick_7">
     <g id="line2d_9">
      <g>
       <use style="stroke:#000000;stroke-width:0.8;" x="54" xlink:href="#mfe7b769f99" y="56.051153"/>
      </g>
     </g>
     <g id="text_10">
      <!-- 35 -->
      <g transform="translate(34.275 59.850372)scale(0.1 -0.1)">
       <use xlink:href="#DejaVuSans-51"/>
       <use x="63.623047" xlink:href="#DejaVuSans-53"/>
      </g>
     </g>
    </g>
    <g id="text_11">
     <!-- value -->
     <g transform="translate(28.195312 156.937813)rotate(-90)scale(0.1 -0.1)">
      <defs>
       <path d="M 2.984375 54.6875 
L 12.5 54.6875 
L 29.59375 8.796875 
L 46.6875 54.6875 
L 56.203125 54.6875 
L 35.6875 0 
L 23.484375 0 
z
" id="DejaVuSans-118"/>
       <path d="M 34.28125 27.484375 
Q 23.390625 27.484375 19.1875 25 
Q 14.984375 22.515625 14.984375 16.5 
Q 14.984375 11.71875 18.140625 8.90625 
Q 21.296875 6.109375 26.703125 6.109375 
Q 34.1875 6.109375 38.703125 11.40625 
Q 43.21875 16.703125 43.21875 25.484375 
L 43.21875 27.484375 
z
M 52.203125 31.203125 
L 52.203125 0 
L 43.21875 0 
L 43.21875 8.296875 
Q 40.140625 3.328125 35.546875 0.953125 
Q 30.953125 -1.421875 24.3125 -1.421875 
Q 15.921875 -1.421875 10.953125 3.296875 
Q 6 8.015625 6 15.921875 
Q 6 25.140625 12.171875 29.828125 
Q 18.359375 34.515625 30.609375 34.515625 
L 43.21875 34.515625 
L 43.21875 35.40625 
Q 43.21875 41.609375 39.140625 45 
Q 35.0625 48.390625 27.6875 48.390625 
Q 23 48.390625 18.546875 47.265625 
Q 14.109375 46.140625 10.015625 43.890625 
L 10.015625 52.203125 
Q 14.9375 54.109375 19.578125 55.046875 
Q 24.21875 56 28.609375 56 
Q 40.484375 56 46.34375 49.84375 
Q 52.203125 43.703125 52.203125 31.203125 
z
" id="DejaVuSans-97"/>
       <path d="M 9.421875 75.984375 
L 18.40625 75.984375 
L 18.40625 0 
L 9.421875 0 
z
" id="DejaVuSans-108"/>
       <path d="M 8.5 21.578125 
L 8.5 54.6875 
L 17.484375 54.6875 
L 17.484375 21.921875 
Q 17.484375 14.15625 20.5 10.265625 
Q 23.53125 6.390625 29.59375 6.390625 
Q 36.859375 6.390625 41.078125 11.03125 
Q 45.3125 15.671875 45.3125 23.6875 
L 45.3125 54.6875 
L 54.296875 54.6875 
L 54.296875 0 
L 45.3125 0 
L 45.3125 8.40625 
Q 42.046875 3.421875 37.71875 1 
Q 33.40625 -1.421875 27.6875 -1.421875 
Q 18.265625 -1.421875 13.375 4.4375 
Q 8.5 10.296875 8.5 21.578125 
z
M 31.109375 56 
z
" id="DejaVuSans-117"/>
      </defs>
      <use xlink:href="#DejaVuSans-118"/>
      <use x="59.179688" xlink:href="#DejaVuSans-97"/>
      <use x="120.458984" xlink:href="#DejaVuSans-108"/>
      <use x="148.242188" xlink:href="#DejaVuSans-117"/>
      <use x="211.621094" xlink:href="#DejaVuSans-101"/>
     </g>
    </g>
   </g>
   <g id="line2d_10">
    <path clip-path="url(#p785a9e991e)" d="M 104.22 163.215632 
L 104.22 44.443636 
" style="fill:none;stroke:#3f3f3f;stroke-linecap:square;stroke-width:1.5;"/>
   </g>
   <g id="line2d_11">
    <path clip-path="url(#p785a9e991e)" d="M 104.22 110.898075 
L 104.22 75.995351 
" style="fill:none;stroke:#3f3f3f;stroke-linecap:square;stroke-width:4.5;"/>
   </g>
   <g id="line2d_12">
    <path clip-path="url(#p785a9e991e)" d="M 338.58 180.035131 
L 338.58 72.830726 
" style="fill:none;stroke:#3f3f3f;stroke-linecap:square;stroke-width:1.5;"/>
   </g>
   <g id="line2d_13">
    <path clip-path="url(#p785a9e991e)" d="M 338.58 130.06149 
L 338.58 96.676331 
" style="fill:none;stroke:#3f3f3f;stroke-linecap:square;stroke-width:4.5;"/>
   </g>
   <g id="patch_5">
    <path d="M 54 252 
L 54 34.56 
" style="fill:none;stroke:#000000;stroke-linecap:square;stroke-linejoin:miter;stroke-width:0.8;"/>
   </g>
   <g id="patch_6">
    <path d="M 388.8 252 
L 388.8 34.56 
" style="fill:none;stroke:#000000;stroke-linecap:square;stroke-linejoin:miter;stroke-width:0.8;"/>
   </g>
   <g id="patch_7">
    <path d="M 54 252 
L 388.8 252 
" style="fill:none;stroke:#000000;stroke-linecap:square;stroke-linejoin:miter;stroke-width:0.8;"/>
   </g>
   <g id="patch_8">
    <path d="M 54 34.56 
L 388.8 34.56 
" style="fill:none;stroke:#000000;stroke-linecap:square;stroke-linejoin:miter;stroke-width:0.8;"/>
   </g>
   <g id="PathCollection_1">
    <defs>
     <path d="M 0 1.5 
C 0.397805 1.5 0.77937 1.341951 1.06066 1.06066 
C 1.341951 0.77937 1.5 0.397805 1.5 0 
C 1.5 -0.397805 1.341951 -0.77937 1.06066 -1.06066 
C 0.77937 -1.341951 0.397805 -1.5 0 -1.5 
C -0.397805 -1.5 -0.77937 -1.341951 -1.06066 -1.06066 
C -1.341951 -0.77937 -1.5 -0.397805 -1.5 0 
C -1.5 0.397805 -1.341951 0.77937 -1.06066 1.06066 
C -0.77937 1.341951 -0.397805 1.5 0 1.5 
z
" id="m411a306677" style="stroke:#3f3f3f;"/>
    </defs>
    <g clip-path="url(#p785a9e991e)">
     <use style="fill:#ffffff;stroke:#3f3f3f;" x="104.22" xlink:href="#m411a306677" y="89.670623"/>
    </g>
   </g>
   <g id="PathCollection_2">
    <g clip-path="url(#p785a9e991e)">
     <use style="fill:#ffffff;stroke:#3f3f3f;" x="338.58" xlink:href="#m411a306677" y="108.310854"/>
    </g>
   </g>
   <g id="legend_1">
    <g id="patch_9">
     <path d="M 61 247 
L 127.759375 247 
Q 129.759375 247 129.759375 245 
L 129.759375 201.409375 
Q 129.759375 199.409375 127.759375 199.409375 
L 61 199.409375 
Q 59 199.409375 59 201.409375 
L 59 245 
Q 59 247 61 247 
z
" style="fill:#ffffff;opacity:0.8;stroke:#cccccc;stroke-linejoin:miter;"/>
    </g>
    <g id="text_12">
     <!-- set -->
     <g transform="translate(86.738281 211.007812)scale(0.1 -0.1)">
      <use xlink:href="#DejaVuSans-115"/>
      <use x="52.099609" xlink:href="#DejaVuSans-101"/>
      <use x="113.623047" xlink:href="#DejaVuSans-116"/>
     </g>
    </g>
    <g id="patch_10">
     <path d="M 63 225.685937 
L 83 225.685937 
L 83 218.685937 
L 63 218.685937 
z
" style="fill:#3274a1;stroke:#3f3f3f;stroke-linejoin:miter;stroke-width:0.75;"/>
    </g>
    <g id="text_13">
     <!-- Z_1_ns -->
     <g transform="translate(91 225.685937)scale(0.1 -0.1)">
      <use xlink:href="#DejaVuSans-90"/>
      <use x="68.505859" xlink:href="#DejaVuSans-95"/>
      <use x="118.505859" xlink:href="#DejaVuSans-49"/>
      <use x="182.128906" xlink:href="#DejaVuSans-95"/>
      <use x="232.128906" xlink:href="#DejaVuSans-110"/>
      <use x="295.507812" xlink:href="#DejaVuSans-115"/>
     </g>
    </g>
    <g id="patch_11">
     <path d="M 63 240.642188 
L 83 240.642188 
L 83 233.642188 
L 63 233.642188 
z
" style="fill:#e1812c;stroke:#3f3f3f;stroke-linejoin:miter;stroke-width:0.75;"/>
    </g>
    <g id="text_14">
     <!-- Z_2_ns -->
     <g transform="translate(91 240.642188)scale(0.1 -0.1)">
      <use xlink:href="#DejaVuSans-90"/>
      <use x="68.505859" xlink:href="#DejaVuSans-95"/>
      <use x="118.505859" xlink:href="#DejaVuSans-50"/>
      <use x="182.128906" xlink:href="#DejaVuSans-95"/>
      <use x="232.128906" xlink:href="#DejaVuSans-110"/>
      <use x="295.507812" xlink:href="#DejaVuSans-115"/>
     </g>
    </g>
   </g>
  </g>
 </g>
 <defs>
  <clipPath id="p785a9e991e">
   <rect height="217.44" width="334.8" x="54" y="34.56"/>
  </clipPath>
 </defs>
</svg>
