<?xml version="1.0" encoding="utf-8" standalone="no"?>
<!DOCTYPE svg PUBLIC "-//W3C//DTD SVG 1.1//EN"
  "http://www.w3.org/Graphics/SVG/1.1/DTD/svg11.dtd">
<!-- Created with matplotlib (https://matplotlib.org/) -->
<svg height="288pt" version="1.1" viewBox="0 0 432 288" width="432pt" xmlns="http://www.w3.org/2000/svg" xmlns:xlink="http://www.w3.org/1999/xlink">
 <metadata>
  <rdf:RDF xmlns:cc="http://creativecommons.org/ns#" xmlns:dc="http://purl.org/dc/elements/1.1/" xmlns:rdf="http://www.w3.org/1999/02/22-rdf-syntax-ns#">
   <cc:Work>
    <dc:type rdf:resource="http://purl.org/dc/dcmitype/StillImage"/>
    <dc:date>2022-05-02T17:00:27.200375</dc:date>
    <dc:format>image/svg+xml</dc:format>
    <dc:creator>
     <cc:Agent>
      <dc:title>Matplotlib v3.3.4, https://matplotlib.org/</dc:title>
     </cc:Agent>
    </dc:creator>
   </cc:Work>
  </rdf:RDF>
 </metadata>
 <defs>
  <style type="text/css">*{stroke-linecap:butt;stroke-linejoin:round;}</style>
 </defs>
 <g id="figure_1">
  <g id="patch_1">
   <path d="M 0 288 
L 432 288 
L 432 0 
L 0 0 
z
" style="fill:#ffffff;"/>
  </g>
  <g id="axes_1">
   <g id="patch_2">
    <path d="M 54 252 
L 388.8 252 
L 388.8 34.56 
L 54 34.56 
z
" style="fill:#ffffff;"/>
   </g>
   <g id="PolyCollection_1">
    <defs>
     <path d="M 104.519799 -59.40857 
L 103.920201 -59.40857 
L 103.833307 -61.268648 
L 103.744603 -63.128727 
L 103.659293 -64.988806 
L 103.580131 -66.848885 
L 103.50637 -68.708963 
L 103.434062 -70.569042 
L 103.357612 -72.429121 
L 103.271888 -74.2892 
L 103.174043 -76.149278 
L 103.064485 -78.009357 
L 102.94695 -79.869436 
L 102.827919 -81.729514 
L 102.715708 -83.589593 
L 102.619314 -85.449672 
L 102.547039 -87.309751 
L 102.504918 -89.169829 
L 102.4952 -91.029908 
L 102.515247 -92.889987 
L 102.557254 -94.750066 
L 102.609022 -96.610144 
L 102.655816 -98.470223 
L 102.683075 -100.330302 
L 102.67948 -102.19038 
L 102.6396 -104.050459 
L 102.565226 -105.910538 
L 102.464784 -107.770617 
L 102.35091 -109.630695 
L 102.237071 -111.490774 
L 102.134505 -113.350853 
L 102.050353 -115.210931 
L 101.98702 -117.07101 
L 101.942216 -118.931089 
L 101.909278 -120.791168 
L 101.878059 -122.651246 
L 101.836923 -124.511325 
L 101.775892 -126.371404 
L 101.689948 -128.231483 
L 101.580929 -130.091561 
L 101.456949 -131.95164 
L 101.329505 -133.811719 
L 101.209478 -135.671797 
L 101.103508 -137.531876 
L 101.011681 -139.391955 
L 100.926869 -141.252034 
L 100.835691 -143.112112 
L 100.721012 -144.972191 
L 100.565561 -146.83227 
L 100.355668 -148.692349 
L 100.083598 -150.552427 
L 99.747266 -152.412506 
L 99.347487 -154.272585 
L 98.884551 -156.132663 
L 98.35658 -157.992742 
L 97.761112 -159.852821 
L 97.09919 -161.7129 
L 96.379317 -163.572978 
L 95.618411 -165.433057 
L 94.838403 -167.293136 
L 94.059549 -169.153215 
L 93.293376 -171.013293 
L 92.538509 -172.873372 
L 91.781367 -174.733451 
L 91.001615 -176.593529 
L 90.180363 -178.453608 
L 89.308022 -180.313687 
L 88.388869 -182.173766 
L 87.440281 -184.033844 
L 86.486391 -185.893923 
L 85.547974 -187.754002 
L 84.632374 -189.614081 
L 83.728005 -191.474159 
L 82.806545 -193.334238 
L 81.832574 -195.194317 
L 80.776701 -197.054395 
L 79.626415 -198.914474 
L 78.390293 -200.774553 
L 77.09515 -202.634632 
L 75.779721 -204.49471 
L 74.48998 -206.354789 
L 73.279258 -208.214868 
L 72.212286 -210.074947 
L 71.369112 -211.935025 
L 70.844413 -213.795104 
L 70.74 -215.655183 
L 71.151231 -217.515261 
L 72.14988 -219.37534 
L 73.766706 -221.235419 
L 75.977411 -223.095498 
L 78.696229 -224.955576 
L 81.781024 -226.815655 
L 85.051198 -228.675734 
L 88.3152 -230.535813 
L 91.400272 -232.395891 
L 94.175901 -234.25597 
L 96.565073 -236.116049 
L 98.542415 -237.976127 
L 100.122915 -239.836206 
L 101.346968 -241.696285 
L 102.266806 -243.556364 
L 106.173194 -243.556364 
L 106.173194 -243.556364 
L 107.093032 -241.696285 
L 108.317085 -239.836206 
L 109.897585 -237.976127 
L 111.874927 -236.116049 
L 114.264099 -234.25597 
L 117.039728 -232.395891 
L 120.1248 -230.535813 
L 123.388802 -228.675734 
L 126.658976 -226.815655 
L 129.743771 -224.955576 
L 132.462589 -223.095498 
L 134.673294 -221.235419 
L 136.29012 -219.37534 
L 137.288769 -217.515261 
L 137.7 -215.655183 
L 137.595587 -213.795104 
L 137.070888 -211.935025 
L 136.227714 -210.074947 
L 135.160742 -208.214868 
L 133.95002 -206.354789 
L 132.660279 -204.49471 
L 131.34485 -202.634632 
L 130.049707 -200.774553 
L 128.813585 -198.914474 
L 127.663299 -197.054395 
L 126.607426 -195.194317 
L 125.633455 -193.334238 
L 124.711995 -191.474159 
L 123.807626 -189.614081 
L 122.892026 -187.754002 
L 121.953609 -185.893923 
L 120.999719 -184.033844 
L 120.051131 -182.173766 
L 119.131978 -180.313687 
L 118.259637 -178.453608 
L 117.438385 -176.593529 
L 116.658633 -174.733451 
L 115.901491 -172.873372 
L 115.146624 -171.013293 
L 114.380451 -169.153215 
L 113.601597 -167.293136 
L 112.821589 -165.433057 
L 112.060683 -163.572978 
L 111.34081 -161.7129 
L 110.678888 -159.852821 
L 110.08342 -157.992742 
L 109.555449 -156.132663 
L 109.092513 -154.272585 
L 108.692734 -152.412506 
L 108.356402 -150.552427 
L 108.084332 -148.692349 
L 107.874439 -146.83227 
L 107.718988 -144.972191 
L 107.604309 -143.112112 
L 107.513131 -141.252034 
L 107.428319 -139.391955 
L 107.336492 -137.531876 
L 107.230522 -135.671797 
L 107.110495 -133.811719 
L 106.983051 -131.95164 
L 106.859071 -130.091561 
L 106.750052 -128.231483 
L 106.664108 -126.371404 
L 106.603077 -124.511325 
L 106.561941 -122.651246 
L 106.530722 -120.791168 
L 106.497784 -118.931089 
L 106.45298 -117.07101 
L 106.389647 -115.210931 
L 106.305495 -113.350853 
L 106.202929 -111.490774 
L 106.08909 -109.630695 
L 105.975216 -107.770617 
L 105.874774 -105.910538 
L 105.8004 -104.050459 
L 105.76052 -102.19038 
L 105.756925 -100.330302 
L 105.784184 -98.470223 
L 105.830978 -96.610144 
L 105.882746 -94.750066 
L 105.924753 -92.889987 
L 105.9448 -91.029908 
L 105.935082 -89.169829 
L 105.892961 -87.309751 
L 105.820686 -85.449672 
L 105.724292 -83.589593 
L 105.612081 -81.729514 
L 105.49305 -79.869436 
L 105.375515 -78.009357 
L 105.265957 -76.149278 
L 105.168112 -74.2892 
L 105.082388 -72.429121 
L 105.005938 -70.569042 
L 104.93363 -68.708963 
L 104.859869 -66.848885 
L 104.780707 -64.988806 
L 104.695397 -63.128727 
L 104.606693 -61.268648 
L 104.519799 -59.40857 
z
" id="m95c1275ea0" style="stroke:#3f3f3f;stroke-width:1.5;"/>
    </defs>
    <g clip-path="url(#p96b365e0f7)">
     <use style="fill:#3274a1;stroke:#3f3f3f;stroke-width:1.5;" x="0" xlink:href="#m95c1275ea0" y="288"/>
    </g>
   </g>
   <g id="PolyCollection_2">
    <defs>
     <path d="M 338.69434 -45.883636 
L 338.46566 -45.883636 
L 338.428418 -47.640051 
L 338.386138 -49.396465 
L 338.340653 -51.15288 
L 338.294172 -52.909295 
L 338.248314 -54.665709 
L 338.203126 -56.422124 
L 338.1567 -58.178538 
L 338.105829 -59.934953 
L 338.047485 -61.691367 
L 337.980409 -63.447782 
L 337.905951 -65.204196 
L 337.827763 -66.960611 
L 337.750584 -68.717025 
L 337.678765 -70.47344 
L 337.615268 -72.229854 
L 337.561498 -73.986269 
L 337.517917 -75.742684 
L 337.485005 -77.499098 
L 337.463999 -79.255513 
L 337.456896 -81.011927 
L 337.465563 -82.768342 
L 337.490194 -84.524756 
L 337.527815 -86.281171 
L 337.571717 -88.037585 
L 337.612389 -89.794 
L 337.639823 -91.550414 
L 337.646188 -93.306829 
L 337.627524 -95.063243 
L 337.583562 -96.819658 
L 337.515814 -98.576073 
L 337.425103 -100.332487 
L 337.310069 -102.088902 
L 337.167627 -103.845316 
L 336.995284 -105.601731 
L 336.794114 -107.358145 
L 336.570791 -109.11456 
L 336.337382 -110.870974 
L 336.108505 -112.627389 
L 335.896661 -114.383803 
L 335.707482 -116.140218 
L 335.536972 -117.896632 
L 335.372113 -119.653047 
L 335.19475 -121.409462 
L 334.987246 -123.165876 
L 334.737824 -124.922291 
L 334.444084 -126.678705 
L 334.114008 -128.43512 
L 333.764228 -130.191534 
L 333.415408 -131.947949 
L 333.085147 -133.704363 
L 332.780245 -135.460778 
L 332.491489 -137.217192 
L 332.193977 -138.973607 
L 331.85388 -140.730021 
L 331.439629 -142.486436 
L 330.933622 -144.24285 
L 330.340323 -145.999265 
L 329.68774 -147.75568 
L 329.021057 -149.512094 
L 328.389556 -151.268509 
L 327.830864 -153.024923 
L 327.358681 -154.781338 
L 326.959534 -156.537752 
L 326.599977 -158.294167 
L 326.240147 -160.050581 
L 325.846379 -161.806996 
L 325.397168 -163.56341 
L 324.881666 -165.319825 
L 324.294267 -167.076239 
L 323.62953 -168.832654 
L 322.879154 -170.589069 
L 322.030252 -172.345483 
L 321.064211 -174.101898 
L 319.957546 -175.858312 
L 318.687193 -177.614727 
L 317.240649 -179.371141 
L 315.627315 -181.127556 
L 313.885126 -182.88397 
L 312.078627 -184.640385 
L 310.290274 -186.396799 
L 308.611529 -188.153214 
L 307.140067 -189.909628 
L 305.983445 -191.666043 
L 305.26189 -193.422458 
L 305.1 -195.178872 
L 305.602685 -196.935287 
L 306.822076 -198.691701 
L 308.731309 -200.448116 
L 311.220602 -202.20453 
L 314.119982 -203.960945 
L 317.238536 -205.717359 
L 320.401941 -207.473774 
L 323.473453 -209.230188 
L 326.355182 -210.986603 
L 328.977666 -212.743017 
L 331.289467 -214.499432 
L 333.25399 -216.255847 
L 334.853153 -218.012261 
L 336.092472 -219.768676 
L 341.067528 -219.768676 
L 341.067528 -219.768676 
L 342.306847 -218.012261 
L 343.90601 -216.255847 
L 345.870533 -214.499432 
L 348.182334 -212.743017 
L 350.804818 -210.986603 
L 353.686547 -209.230188 
L 356.758059 -207.473774 
L 359.921464 -205.717359 
L 363.040018 -203.960945 
L 365.939398 -202.20453 
L 368.428691 -200.448116 
L 370.337924 -198.691701 
L 371.557315 -196.935287 
L 372.06 -195.178872 
L 371.89811 -193.422458 
L 371.176555 -191.666043 
L 370.019933 -189.909628 
L 368.548471 -188.153214 
L 366.869726 -186.396799 
L 365.081373 -184.640385 
L 363.274874 -182.88397 
L 361.532685 -181.127556 
L 359.919351 -179.371141 
L 358.472807 -177.614727 
L 357.202454 -175.858312 
L 356.095789 -174.101898 
L 355.129748 -172.345483 
L 354.280846 -170.589069 
L 353.53047 -168.832654 
L 352.865733 -167.076239 
L 352.278334 -165.319825 
L 351.762832 -163.56341 
L 351.313621 -161.806996 
L 350.919853 -160.050581 
L 350.560023 -158.294167 
L 350.200466 -156.537752 
L 349.801319 -154.781338 
L 349.329136 -153.024923 
L 348.770444 -151.268509 
L 348.138943 -149.512094 
L 347.47226 -147.75568 
L 346.819677 -145.999265 
L 346.226378 -144.24285 
L 345.720371 -142.486436 
L 345.30612 -140.730021 
L 344.966023 -138.973607 
L 344.668511 -137.217192 
L 344.379755 -135.460778 
L 344.074853 -133.704363 
L 343.744592 -131.947949 
L 343.395772 -130.191534 
L 343.045992 -128.43512 
L 342.715916 -126.678705 
L 342.422176 -124.922291 
L 342.172754 -123.165876 
L 341.96525 -121.409462 
L 341.787887 -119.653047 
L 341.623028 -117.896632 
L 341.452518 -116.140218 
L 341.263339 -114.383803 
L 341.051495 -112.627389 
L 340.822618 -110.870974 
L 340.589209 -109.11456 
L 340.365886 -107.358145 
L 340.164716 -105.601731 
L 339.992373 -103.845316 
L 339.849931 -102.088902 
L 339.734897 -100.332487 
L 339.644186 -98.576073 
L 339.576438 -96.819658 
L 339.532476 -95.063243 
L 339.513812 -93.306829 
L 339.520177 -91.550414 
L 339.547611 -89.794 
L 339.588283 -88.037585 
L 339.632185 -86.281171 
L 339.669806 -84.524756 
L 339.694437 -82.768342 
L 339.703104 -81.011927 
L 339.696001 -79.255513 
L 339.674995 -77.499098 
L 339.642083 -75.742684 
L 339.598502 -73.986269 
L 339.544732 -72.229854 
L 339.481235 -70.47344 
L 339.409416 -68.717025 
L 339.332237 -66.960611 
L 339.254049 -65.204196 
L 339.179591 -63.447782 
L 339.112515 -61.691367 
L 339.054171 -59.934953 
L 339.0033 -58.178538 
L 338.956874 -56.422124 
L 338.911686 -54.665709 
L 338.865828 -52.909295 
L 338.819347 -51.15288 
L 338.773862 -49.396465 
L 338.731582 -47.640051 
L 338.69434 -45.883636 
z
" id="ma90274da82" style="stroke:#3f3f3f;stroke-width:1.5;"/>
    </defs>
    <g clip-path="url(#p96b365e0f7)">
     <use style="fill:#e1812c;stroke:#3f3f3f;stroke-width:1.5;" x="0" xlink:href="#ma90274da82" y="288"/>
    </g>
   </g>
   <g id="patch_3">
    <path clip-path="url(#p96b365e0f7)" d="M 137.7 249.064006 
L 137.7 249.064006 
L 137.7 249.064006 
L 137.7 249.064006 
z
" style="fill:#3274a1;stroke:#3f3f3f;stroke-linejoin:miter;stroke-width:0.75;"/>
   </g>
   <g id="patch_4">
    <path clip-path="url(#p96b365e0f7)" d="M 137.7 249.064006 
L 137.7 249.064006 
L 137.7 249.064006 
L 137.7 249.064006 
z
" style="fill:#e1812c;stroke:#3f3f3f;stroke-linejoin:miter;stroke-width:0.75;"/>
   </g>
   <g id="matplotlib.axis_1">
    <g id="xtick_1">
     <g id="line2d_1">
      <defs>
       <path d="M 0 0 
L 0 3.5 
" id="mb03360938a" style="stroke:#000000;stroke-width:0.8;"/>
      </defs>
      <g>
       <use style="stroke:#000000;stroke-width:0.8;" x="137.7" xlink:href="#mb03360938a" y="252"/>
      </g>
     </g>
     <g id="text_1">
      <!-- Z_1_ns -->
      <g transform="translate(120.320312 266.320312)scale(0.1 -0.1)">
       <defs>
        <path d="M 5.609375 72.90625 
L 62.890625 72.90625 
L 62.890625 65.375 
L 16.796875 8.296875 
L 64.015625 8.296875 
L 64.015625 0 
L 4.5 0 
L 4.5 7.515625 
L 50.59375 64.59375 
L 5.609375 64.59375 
z
" id="DejaVuSans-90"/>
        <path d="M 50.984375 -16.609375 
L 50.984375 -23.578125 
L -0.984375 -23.578125 
L -0.984375 -16.609375 
z
" id="DejaVuSans-95"/>
        <path d="M 12.40625 8.296875 
L 28.515625 8.296875 
L 28.515625 63.921875 
L 10.984375 60.40625 
L 10.984375 69.390625 
L 28.421875 72.90625 
L 38.28125 72.90625 
L 38.28125 8.296875 
L 54.390625 8.296875 
L 54.390625 0 
L 12.40625 0 
z
" id="DejaVuSans-49"/>
        <path d="M 54.890625 33.015625 
L 54.890625 0 
L 45.90625 0 
L 45.90625 32.71875 
Q 45.90625 40.484375 42.875 44.328125 
Q 39.84375 48.1875 33.796875 48.1875 
Q 26.515625 48.1875 22.3125 43.546875 
Q 18.109375 38.921875 18.109375 30.90625 
L 18.109375 0 
L 9.078125 0 
L 9.078125 54.6875 
L 18.109375 54.6875 
L 18.109375 46.1875 
Q 21.34375 51.125 25.703125 53.5625 
Q 30.078125 56 35.796875 56 
Q 45.21875 56 50.046875 50.171875 
Q 54.890625 44.34375 54.890625 33.015625 
z
" id="DejaVuSans-110"/>
        <path d="M 44.28125 53.078125 
L 44.28125 44.578125 
Q 40.484375 46.53125 36.375 47.5 
Q 32.28125 48.484375 27.875 48.484375 
Q 21.1875 48.484375 17.84375 46.4375 
Q 14.5 44.390625 14.5 40.28125 
Q 14.5 37.15625 16.890625 35.375 
Q 19.28125 33.59375 26.515625 31.984375 
L 29.59375 31.296875 
Q 39.15625 29.25 43.1875 25.515625 
Q 47.21875 21.78125 47.21875 15.09375 
Q 47.21875 7.46875 41.1875 3.015625 
Q 35.15625 -1.421875 24.609375 -1.421875 
Q 20.21875 -1.421875 15.453125 -0.5625 
Q 10.6875 0.296875 5.421875 2 
L 5.421875 11.28125 
Q 10.40625 8.6875 15.234375 7.390625 
Q 20.0625 6.109375 24.8125 6.109375 
Q 31.15625 6.109375 34.5625 8.28125 
Q 37.984375 10.453125 37.984375 14.40625 
Q 37.984375 18.0625 35.515625 20.015625 
Q 33.0625 21.96875 24.703125 23.78125 
L 21.578125 24.515625 
Q 13.234375 26.265625 9.515625 29.90625 
Q 5.8125 33.546875 5.8125 39.890625 
Q 5.8125 47.609375 11.28125 51.796875 
Q 16.75 56 26.8125 56 
Q 31.78125 56 36.171875 55.265625 
Q 40.578125 54.546875 44.28125 53.078125 
z
" id="DejaVuSans-115"/>
       </defs>
       <use xlink:href="#DejaVuSans-90"/>
       <use x="68.505859" xlink:href="#DejaVuSans-95"/>
       <use x="118.505859" xlink:href="#DejaVuSans-49"/>
       <use x="182.128906" xlink:href="#DejaVuSans-95"/>
       <use x="232.128906" xlink:href="#DejaVuSans-110"/>
       <use x="295.507812" xlink:href="#DejaVuSans-115"/>
      </g>
     </g>
    </g>
    <g id="xtick_2">
     <g id="line2d_2">
      <g>
       <use style="stroke:#000000;stroke-width:0.8;" x="305.1" xlink:href="#mb03360938a" y="252"/>
      </g>
     </g>
     <g id="text_2">
      <!-- Z_2_ns -->
      <g transform="translate(287.720313 266.421875)scale(0.1 -0.1)">
       <defs>
        <path d="M 19.1875 8.296875 
L 53.609375 8.296875 
L 53.609375 0 
L 7.328125 0 
L 7.328125 8.296875 
Q 12.9375 14.109375 22.625 23.890625 
Q 32.328125 33.6875 34.8125 36.53125 
Q 39.546875 41.84375 41.421875 45.53125 
Q 43.3125 49.21875 43.3125 52.78125 
Q 43.3125 58.59375 39.234375 62.25 
Q 35.15625 65.921875 28.609375 65.921875 
Q 23.96875 65.921875 18.8125 64.3125 
Q 13.671875 62.703125 7.8125 59.421875 
L 7.8125 69.390625 
Q 13.765625 71.78125 18.9375 73 
Q 24.125 74.21875 28.421875 74.21875 
Q 39.75 74.21875 46.484375 68.546875 
Q 53.21875 62.890625 53.21875 53.421875 
Q 53.21875 48.921875 51.53125 44.890625 
Q 49.859375 40.875 45.40625 35.40625 
Q 44.1875 33.984375 37.640625 27.21875 
Q 31.109375 20.453125 19.1875 8.296875 
z
" id="DejaVuSans-50"/>
       </defs>
       <use xlink:href="#DejaVuSans-90"/>
       <use x="68.505859" xlink:href="#DejaVuSans-95"/>
       <use x="118.505859" xlink:href="#DejaVuSans-50"/>
       <use x="182.128906" xlink:href="#DejaVuSans-95"/>
       <use x="232.128906" xlink:href="#DejaVuSans-110"/>
       <use x="295.507812" xlink:href="#DejaVuSans-115"/>
      </g>
     </g>
    </g>
    <g id="text_3">
     <!-- set -->
     <g transform="translate(213.758594 280.378125)scale(0.1 -0.1)">
      <defs>
       <path d="M 56.203125 29.59375 
L 56.203125 25.203125 
L 14.890625 25.203125 
Q 15.484375 15.921875 20.484375 11.0625 
Q 25.484375 6.203125 34.421875 6.203125 
Q 39.59375 6.203125 44.453125 7.46875 
Q 49.3125 8.734375 54.109375 11.28125 
L 54.109375 2.78125 
Q 49.265625 0.734375 44.1875 -0.34375 
Q 39.109375 -1.421875 33.890625 -1.421875 
Q 20.796875 -1.421875 13.15625 6.1875 
Q 5.515625 13.8125 5.515625 26.8125 
Q 5.515625 40.234375 12.765625 48.109375 
Q 20.015625 56 32.328125 56 
Q 43.359375 56 49.78125 48.890625 
Q 56.203125 41.796875 56.203125 29.59375 
z
M 47.21875 32.234375 
Q 47.125 39.59375 43.09375 43.984375 
Q 39.0625 48.390625 32.421875 48.390625 
Q 24.90625 48.390625 20.390625 44.140625 
Q 15.875 39.890625 15.1875 32.171875 
z
" id="DejaVuSans-101"/>
       <path d="M 18.3125 70.21875 
L 18.3125 54.6875 
L 36.8125 54.6875 
L 36.8125 47.703125 
L 18.3125 47.703125 
L 18.3125 18.015625 
Q 18.3125 11.328125 20.140625 9.421875 
Q 21.96875 7.515625 27.59375 7.515625 
L 36.8125 7.515625 
L 36.8125 0 
L 27.59375 0 
Q 17.1875 0 13.234375 3.875 
Q 9.28125 7.765625 9.28125 18.015625 
L 9.28125 47.703125 
L 2.6875 47.703125 
L 2.6875 54.6875 
L 9.28125 54.6875 
L 9.28125 70.21875 
z
" id="DejaVuSans-116"/>
      </defs>
      <use xlink:href="#DejaVuSans-115"/>
      <use x="52.099609" xlink:href="#DejaVuSans-101"/>
      <use x="113.623047" xlink:href="#DejaVuSans-116"/>
     </g>
    </g>
   </g>
   <g id="matplotlib.axis_2">
    <g id="ytick_1">
     <g id="line2d_3">
      <defs>
       <path d="M 0 0 
L -3.5 0 
" id="m16bc50a8ff" style="stroke:#000000;stroke-width:0.8;"/>
      </defs>
      <g>
       <use style="stroke:#000000;stroke-width:0.8;" x="54" xlink:href="#m16bc50a8ff" y="249.064006"/>
      </g>
     </g>
     <g id="text_4">
      <!-- 0 -->
      <g transform="translate(40.6375 252.863224)scale(0.1 -0.1)">
       <defs>
        <path d="M 31.78125 66.40625 
Q 24.171875 66.40625 20.328125 58.90625 
Q 16.5 51.421875 16.5 36.375 
Q 16.5 21.390625 20.328125 13.890625 
Q 24.171875 6.390625 31.78125 6.390625 
Q 39.453125 6.390625 43.28125 13.890625 
Q 47.125 21.390625 47.125 36.375 
Q 47.125 51.421875 43.28125 58.90625 
Q 39.453125 66.40625 31.78125 66.40625 
z
M 31.78125 74.21875 
Q 44.046875 74.21875 50.515625 64.515625 
Q 56.984375 54.828125 56.984375 36.375 
Q 56.984375 17.96875 50.515625 8.265625 
Q 44.046875 -1.421875 31.78125 -1.421875 
Q 19.53125 -1.421875 13.0625 8.265625 
Q 6.59375 17.96875 6.59375 36.375 
Q 6.59375 54.828125 13.0625 64.515625 
Q 19.53125 74.21875 31.78125 74.21875 
z
" id="DejaVuSans-48"/>
       </defs>
       <use xlink:href="#DejaVuSans-48"/>
      </g>
     </g>
    </g>
    <g id="ytick_2">
     <g id="line2d_4">
      <g>
       <use style="stroke:#000000;stroke-width:0.8;" x="54" xlink:href="#m16bc50a8ff" y="220.309169"/>
      </g>
     </g>
     <g id="text_5">
      <!-- 5 -->
      <g transform="translate(40.6375 224.108388)scale(0.1 -0.1)">
       <defs>
        <path d="M 10.796875 72.90625 
L 49.515625 72.90625 
L 49.515625 64.59375 
L 19.828125 64.59375 
L 19.828125 46.734375 
Q 21.96875 47.46875 24.109375 47.828125 
Q 26.265625 48.1875 28.421875 48.1875 
Q 40.625 48.1875 47.75 41.5 
Q 54.890625 34.8125 54.890625 23.390625 
Q 54.890625 11.625 47.5625 5.09375 
Q 40.234375 -1.421875 26.90625 -1.421875 
Q 22.3125 -1.421875 17.546875 -0.640625 
Q 12.796875 0.140625 7.71875 1.703125 
L 7.71875 11.625 
Q 12.109375 9.234375 16.796875 8.0625 
Q 21.484375 6.890625 26.703125 6.890625 
Q 35.15625 6.890625 40.078125 11.328125 
Q 45.015625 15.765625 45.015625 23.390625 
Q 45.015625 31 40.078125 35.4375 
Q 35.15625 39.890625 26.703125 39.890625 
Q 22.75 39.890625 18.8125 39.015625 
Q 14.890625 38.140625 10.796875 36.28125 
z
" id="DejaVuSans-53"/>
       </defs>
       <use xlink:href="#DejaVuSans-53"/>
      </g>
     </g>
    </g>
    <g id="ytick_3">
     <g id="line2d_5">
      <g>
       <use style="stroke:#000000;stroke-width:0.8;" x="54" xlink:href="#m16bc50a8ff" y="191.554333"/>
      </g>
     </g>
     <g id="text_6">
      <!-- 10 -->
      <g transform="translate(34.275 195.353552)scale(0.1 -0.1)">
       <use xlink:href="#DejaVuSans-49"/>
       <use x="63.623047" xlink:href="#DejaVuSans-48"/>
      </g>
     </g>
    </g>
    <g id="ytick_4">
     <g id="line2d_6">
      <g>
       <use style="stroke:#000000;stroke-width:0.8;" x="54" xlink:href="#m16bc50a8ff" y="162.799497"/>
      </g>
     </g>
     <g id="text_7">
      <!-- 15 -->
      <g transform="translate(34.275 166.598715)scale(0.1 -0.1)">
       <use xlink:href="#DejaVuSans-49"/>
       <use x="63.623047" xlink:href="#DejaVuSans-53"/>
      </g>
     </g>
    </g>
    <g id="ytick_5">
     <g id="line2d_7">
      <g>
       <use style="stroke:#000000;stroke-width:0.8;" x="54" xlink:href="#m16bc50a8ff" y="134.04466"/>
      </g>
     </g>
     <g id="text_8">
      <!-- 20 -->
      <g transform="translate(34.275 137.843879)scale(0.1 -0.1)">
       <use xlink:href="#DejaVuSans-50"/>
       <use x="63.623047" xlink:href="#DejaVuSans-48"/>
      </g>
     </g>
    </g>
    <g id="ytick_6">
     <g id="line2d_8">
      <g>
       <use style="stroke:#000000;stroke-width:0.8;" x="54" xlink:href="#m16bc50a8ff" y="105.289824"/>
      </g>
     </g>
     <g id="text_9">
      <!-- 25 -->
      <g transform="translate(34.275 109.089043)scale(0.1 -0.1)">
       <use xlink:href="#DejaVuSans-50"/>
       <use x="63.623047" xlink:href="#DejaVuSans-53"/>
      </g>
     </g>
    </g>
    <g id="ytick_7">
     <g id="line2d_9">
      <g>
       <use style="stroke:#000000;stroke-width:0.8;" x="54" xlink:href="#m16bc50a8ff" y="76.534988"/>
      </g>
     </g>
     <g id="text_10">
      <!-- 30 -->
      <g transform="translate(34.275 80.334206)scale(0.1 -0.1)">
       <defs>
        <path d="M 40.578125 39.3125 
Q 47.65625 37.796875 51.625 33 
Q 55.609375 28.21875 55.609375 21.1875 
Q 55.609375 10.40625 48.1875 4.484375 
Q 40.765625 -1.421875 27.09375 -1.421875 
Q 22.515625 -1.421875 17.65625 -0.515625 
Q 12.796875 0.390625 7.625 2.203125 
L 7.625 11.71875 
Q 11.71875 9.328125 16.59375 8.109375 
Q 21.484375 6.890625 26.8125 6.890625 
Q 36.078125 6.890625 40.9375 10.546875 
Q 45.796875 14.203125 45.796875 21.1875 
Q 45.796875 27.640625 41.28125 31.265625 
Q 36.765625 34.90625 28.71875 34.90625 
L 20.21875 34.90625 
L 20.21875 43.015625 
L 29.109375 43.015625 
Q 36.375 43.015625 40.234375 45.921875 
Q 44.09375 48.828125 44.09375 54.296875 
Q 44.09375 59.90625 40.109375 62.90625 
Q 36.140625 65.921875 28.71875 65.921875 
Q 24.65625 65.921875 20.015625 65.03125 
Q 15.375 64.15625 9.8125 62.3125 
L 9.8125 71.09375 
Q 15.4375 72.65625 20.34375 73.4375 
Q 25.25 74.21875 29.59375 74.21875 
Q 40.828125 74.21875 47.359375 69.109375 
Q 53.90625 64.015625 53.90625 55.328125 
Q 53.90625 49.265625 50.4375 45.09375 
Q 46.96875 40.921875 40.578125 39.3125 
z
" id="DejaVuSans-51"/>
       </defs>
       <use xlink:href="#DejaVuSans-51"/>
       <use x="63.623047" xlink:href="#DejaVuSans-48"/>
      </g>
     </g>
    </g>
    <g id="ytick_8">
     <g id="line2d_10">
      <g>
       <use style="stroke:#000000;stroke-width:0.8;" x="54" xlink:href="#m16bc50a8ff" y="47.780151"/>
      </g>
     </g>
     <g id="text_11">
      <!-- 35 -->
      <g transform="translate(34.275 51.57937)scale(0.1 -0.1)">
       <use xlink:href="#DejaVuSans-51"/>
       <use x="63.623047" xlink:href="#DejaVuSans-53"/>
      </g>
     </g>
    </g>
    <g id="text_12">
     <!-- value -->
     <g transform="translate(28.195312 156.937813)rotate(-90)scale(0.1 -0.1)">
      <defs>
       <path d="M 2.984375 54.6875 
L 12.5 54.6875 
L 29.59375 8.796875 
L 46.6875 54.6875 
L 56.203125 54.6875 
L 35.6875 0 
L 23.484375 0 
z
" id="DejaVuSans-118"/>
       <path d="M 34.28125 27.484375 
Q 23.390625 27.484375 19.1875 25 
Q 14.984375 22.515625 14.984375 16.5 
Q 14.984375 11.71875 18.140625 8.90625 
Q 21.296875 6.109375 26.703125 6.109375 
Q 34.1875 6.109375 38.703125 11.40625 
Q 43.21875 16.703125 43.21875 25.484375 
L 43.21875 27.484375 
z
M 52.203125 31.203125 
L 52.203125 0 
L 43.21875 0 
L 43.21875 8.296875 
Q 40.140625 3.328125 35.546875 0.953125 
Q 30.953125 -1.421875 24.3125 -1.421875 
Q 15.921875 -1.421875 10.953125 3.296875 
Q 6 8.015625 6 15.921875 
Q 6 25.140625 12.171875 29.828125 
Q 18.359375 34.515625 30.609375 34.515625 
L 43.21875 34.515625 
L 43.21875 35.40625 
Q 43.21875 41.609375 39.140625 45 
Q 35.0625 48.390625 27.6875 48.390625 
Q 23 48.390625 18.546875 47.265625 
Q 14.109375 46.140625 10.015625 43.890625 
L 10.015625 52.203125 
Q 14.9375 54.109375 19.578125 55.046875 
Q 24.21875 56 28.609375 56 
Q 40.484375 56 46.34375 49.84375 
Q 52.203125 43.703125 52.203125 31.203125 
z
" id="DejaVuSans-97"/>
       <path d="M 9.421875 75.984375 
L 18.40625 75.984375 
L 18.40625 0 
L 9.421875 0 
z
" id="DejaVuSans-108"/>
       <path d="M 8.5 21.578125 
L 8.5 54.6875 
L 17.484375 54.6875 
L 17.484375 21.921875 
Q 17.484375 14.15625 20.5 10.265625 
Q 23.53125 6.390625 29.59375 6.390625 
Q 36.859375 6.390625 41.078125 11.03125 
Q 45.3125 15.671875 45.3125 23.6875 
L 45.3125 54.6875 
L 54.296875 54.6875 
L 54.296875 0 
L 45.3125 0 
L 45.3125 8.40625 
Q 42.046875 3.421875 37.71875 1 
Q 33.40625 -1.421875 27.6875 -1.421875 
Q 18.265625 -1.421875 13.375 4.4375 
Q 8.5 10.296875 8.5 21.578125 
z
M 31.109375 56 
z
" id="DejaVuSans-117"/>
      </defs>
      <use xlink:href="#DejaVuSans-118"/>
      <use x="59.179688" xlink:href="#DejaVuSans-97"/>
      <use x="120.458984" xlink:href="#DejaVuSans-108"/>
      <use x="148.242188" xlink:href="#DejaVuSans-117"/>
      <use x="211.621094" xlink:href="#DejaVuSans-101"/>
     </g>
    </g>
   </g>
   <g id="line2d_11">
    <path clip-path="url(#p96b365e0f7)" d="M 104.22 157.871875 
L 104.22 44.443636 
" style="fill:none;stroke:#3f3f3f;stroke-linecap:square;stroke-width:1.5;"/>
   </g>
   <g id="line2d_12">
    <path clip-path="url(#p96b365e0f7)" d="M 104.22 106.098685 
L 104.22 71.019373 
" style="fill:none;stroke:#3f3f3f;stroke-linecap:square;stroke-width:4.5;"/>
   </g>
   <g id="line2d_13">
    <path clip-path="url(#p96b365e0f7)" d="M 338.58 177.419321 
L 338.58 68.231324 
" style="fill:none;stroke:#3f3f3f;stroke-linecap:square;stroke-width:1.5;"/>
   </g>
   <g id="line2d_14">
    <path clip-path="url(#p96b365e0f7)" d="M 338.58 125.679625 
L 338.58 91.116184 
" style="fill:none;stroke:#3f3f3f;stroke-linecap:square;stroke-width:4.5;"/>
   </g>
   <g id="patch_5">
    <path d="M 54 252 
L 54 34.56 
" style="fill:none;stroke:#000000;stroke-linecap:square;stroke-linejoin:miter;stroke-width:0.8;"/>
   </g>
   <g id="patch_6">
    <path d="M 388.8 252 
L 388.8 34.56 
" style="fill:none;stroke:#000000;stroke-linecap:square;stroke-linejoin:miter;stroke-width:0.8;"/>
   </g>
   <g id="patch_7">
    <path d="M 54 252 
L 388.8 252 
" style="fill:none;stroke:#000000;stroke-linecap:square;stroke-linejoin:miter;stroke-width:0.8;"/>
   </g>
   <g id="patch_8">
    <path d="M 54 34.56 
L 388.8 34.56 
" style="fill:none;stroke:#000000;stroke-linecap:square;stroke-linejoin:miter;stroke-width:0.8;"/>
   </g>
   <g id="PathCollection_1">
    <defs>
     <path d="M 0 1.5 
C 0.397805 1.5 0.77937 1.341951 1.06066 1.06066 
C 1.341951 0.77937 1.5 0.397805 1.5 0 
C 1.5 -0.397805 1.341951 -0.77937 1.06066 -1.06066 
C 0.77937 -1.341951 0.397805 -1.5 0 -1.5 
C -0.397805 -1.5 -0.77937 -1.341951 -1.06066 -1.06066 
C -1.341951 -0.77937 -1.5 -0.397805 -1.5 0 
C -1.5 0.397805 -1.341951 0.77937 -1.06066 1.06066 
C -0.77937 1.341951 -0.397805 1.5 0 1.5 
z
" id="mf6aa42eab0" style="stroke:#3f3f3f;"/>
    </defs>
    <g clip-path="url(#p96b365e0f7)">
     <use style="fill:#ffffff;stroke:#3f3f3f;" x="104.22" xlink:href="#mf6aa42eab0" y="84.617415"/>
    </g>
   </g>
   <g id="PathCollection_2">
    <g clip-path="url(#p96b365e0f7)">
     <use style="fill:#ffffff;stroke:#3f3f3f;" x="338.58" xlink:href="#mf6aa42eab0" y="102.959724"/>
    </g>
   </g>
   <g id="legend_1">
    <g id="patch_9">
     <path d="M 61 247 
L 127.759375 247 
Q 129.759375 247 129.759375 245 
L 129.759375 201.409375 
Q 129.759375 199.409375 127.759375 199.409375 
L 61 199.409375 
Q 59 199.409375 59 201.409375 
L 59 245 
Q 59 247 61 247 
z
" style="fill:#ffffff;opacity:0.8;stroke:#cccccc;stroke-linejoin:miter;"/>
    </g>
    <g id="text_13">
     <!-- set -->
     <g transform="translate(86.738281 211.007812)scale(0.1 -0.1)">
      <use xlink:href="#DejaVuSans-115"/>
      <use x="52.099609" xlink:href="#DejaVuSans-101"/>
      <use x="113.623047" xlink:href="#DejaVuSans-116"/>
     </g>
    </g>
    <g id="patch_10">
     <path d="M 63 225.685937 
L 83 225.685937 
L 83 218.685937 
L 63 218.685937 
z
" style="fill:#3274a1;stroke:#3f3f3f;stroke-linejoin:miter;stroke-width:0.75;"/>
    </g>
    <g id="text_14">
     <!-- Z_1_ns -->
     <g transform="translate(91 225.685937)scale(0.1 -0.1)">
      <use xlink:href="#DejaVuSans-90"/>
      <use x="68.505859" xlink:href="#DejaVuSans-95"/>
      <use x="118.505859" xlink:href="#DejaVuSans-49"/>
      <use x="182.128906" xlink:href="#DejaVuSans-95"/>
      <use x="232.128906" xlink:href="#DejaVuSans-110"/>
      <use x="295.507812" xlink:href="#DejaVuSans-115"/>
     </g>
    </g>
    <g id="patch_11">
     <path d="M 63 240.642188 
L 83 240.642188 
L 83 233.642188 
L 63 233.642188 
z
" style="fill:#e1812c;stroke:#3f3f3f;stroke-linejoin:miter;stroke-width:0.75;"/>
    </g>
    <g id="text_15">
     <!-- Z_2_ns -->
     <g transform="translate(91 240.642188)scale(0.1 -0.1)">
      <use xlink:href="#DejaVuSans-90"/>
      <use x="68.505859" xlink:href="#DejaVuSans-95"/>
      <use x="118.505859" xlink:href="#DejaVuSans-50"/>
      <use x="182.128906" xlink:href="#DejaVuSans-95"/>
      <use x="232.128906" xlink:href="#DejaVuSans-110"/>
      <use x="295.507812" xlink:href="#DejaVuSans-115"/>
     </g>
    </g>
   </g>
  </g>
 </g>
 <defs>
  <clipPath id="p96b365e0f7">
   <rect height="217.44" width="334.8" x="54" y="34.56"/>
  </clipPath>
 </defs>
</svg>
