<?xml version="1.0" encoding="utf-8" standalone="no"?>
<!DOCTYPE svg PUBLIC "-//W3C//DTD SVG 1.1//EN"
  "http://www.w3.org/Graphics/SVG/1.1/DTD/svg11.dtd">
<!-- Created with matplotlib (https://matplotlib.org/) -->
<svg height="288pt" version="1.1" viewBox="0 0 432 288" width="432pt" xmlns="http://www.w3.org/2000/svg" xmlns:xlink="http://www.w3.org/1999/xlink">
 <metadata>
  <rdf:RDF xmlns:cc="http://creativecommons.org/ns#" xmlns:dc="http://purl.org/dc/elements/1.1/" xmlns:rdf="http://www.w3.org/1999/02/22-rdf-syntax-ns#">
   <cc:Work>
    <dc:type rdf:resource="http://purl.org/dc/dcmitype/StillImage"/>
    <dc:date>2022-05-02T17:00:23.776262</dc:date>
    <dc:format>image/svg+xml</dc:format>
    <dc:creator>
     <cc:Agent>
      <dc:title>Matplotlib v3.3.4, https://matplotlib.org/</dc:title>
     </cc:Agent>
    </dc:creator>
   </cc:Work>
  </rdf:RDF>
 </metadata>
 <defs>
  <style type="text/css">*{stroke-linecap:butt;stroke-linejoin:round;}</style>
 </defs>
 <g id="figure_1">
  <g id="patch_1">
   <path d="M 0 288 
L 432 288 
L 432 0 
L 0 0 
z
" style="fill:#ffffff;"/>
  </g>
  <g id="axes_1">
   <g id="patch_2">
    <path d="M 54 252 
L 388.8 252 
L 388.8 34.56 
L 54 34.56 
z
" style="fill:#ffffff;"/>
   </g>
   <g id="PolyCollection_1">
    <defs>
     <path d="M 104.483626 -60.847739 
L 103.956374 -60.847739 
L 103.88875 -62.693281 
L 103.81686 -64.538823 
L 103.740754 -66.384364 
L 103.659812 -68.229906 
L 103.573572 -70.075448 
L 103.482406 -71.920989 
L 103.387558 -73.766531 
L 103.290544 -75.612073 
L 103.192381 -77.457614 
L 103.093289 -79.303156 
L 102.993179 -81.148698 
L 102.892763 -82.994239 
L 102.794714 -84.839781 
L 102.704175 -86.685323 
L 102.62816 -88.530864 
L 102.573788 -90.376406 
L 102.545821 -92.221948 
L 102.544315 -94.067489 
L 102.563289 -95.913031 
L 102.591087 -97.758573 
L 102.612603 -99.604114 
L 102.612936 -101.449656 
L 102.581485 -103.295198 
L 102.51508 -105.140739 
L 102.418864 -106.986281 
L 102.304382 -108.831822 
L 102.185559 -110.677364 
L 102.074363 -112.522906 
L 101.978049 -114.368447 
L 101.898798 -116.213989 
L 101.83505 -118.059531 
L 101.782955 -119.905072 
L 101.736952 -121.750614 
L 101.68978 -123.596156 
L 101.633055 -125.441697 
L 101.559149 -127.287239 
L 101.463882 -129.132781 
L 101.348624 -130.978322 
L 101.220447 -132.823864 
L 101.089892 -134.669406 
L 100.966965 -136.514947 
L 100.856705 -138.360489 
L 100.755904 -140.206031 
L 100.652366 -142.051572 
L 100.52736 -143.897114 
L 100.360607 -145.742656 
L 100.135752 -147.588197 
L 99.843665 -149.433739 
L 99.481949 -151.279281 
L 99.051278 -153.124822 
L 98.551368 -154.970364 
L 97.979722 -156.815906 
L 97.334382 -158.661447 
L 96.619011 -160.506989 
L 95.846672 -162.352531 
L 95.039149 -164.198072 
L 94.221179 -166.043614 
L 93.411979 -167.889156 
L 92.618097 -169.734697 
L 91.831096 -171.580239 
L 91.031323 -173.425781 
L 90.196339 -175.271322 
L 89.310695 -177.116864 
L 88.373266 -178.962406 
L 87.399065 -180.807947 
L 86.414214 -182.653489 
L 85.445215 -184.499031 
L 84.506369 -186.344572 
L 83.590924 -188.190114 
L 82.670749 -190.035656 
L 81.705743 -191.881197 
L 80.659272 -193.726739 
L 79.512687 -195.57228 
L 78.272531 -197.417822 
L 76.96842 -199.263364 
L 75.644931 -201.108905 
L 74.353896 -202.954447 
L 73.152091 -204.799989 
L 72.104697 -206.64553 
L 71.290306 -208.491072 
L 70.80184 -210.336614 
L 70.74 -212.182155 
L 71.199488 -214.027697 
L 72.250926 -215.873239 
L 73.922326 -217.71878 
L 76.184344 -219.564322 
L 78.943927 -221.409864 
L 82.050447 -223.255405 
L 85.315539 -225.100947 
L 88.542898 -226.946489 
L 91.559874 -228.79203 
L 94.241653 -230.637572 
L 96.521944 -232.483114 
L 98.389447 -234.328655 
L 99.874088 -236.174197 
L 101.029135 -238.019739 
L 101.914806 -239.86528 
L 102.586899 -241.710822 
L 103.091407 -243.556364 
L 105.348593 -243.556364 
L 105.348593 -243.556364 
L 105.853101 -241.710822 
L 106.525194 -239.86528 
L 107.410865 -238.019739 
L 108.565912 -236.174197 
L 110.050553 -234.328655 
L 111.918056 -232.483114 
L 114.198347 -230.637572 
L 116.880126 -228.79203 
L 119.897102 -226.946489 
L 123.124461 -225.100947 
L 126.389553 -223.255405 
L 129.496073 -221.409864 
L 132.255656 -219.564322 
L 134.517674 -217.71878 
L 136.189074 -215.873239 
L 137.240512 -214.027697 
L 137.7 -212.182155 
L 137.63816 -210.336614 
L 137.149694 -208.491072 
L 136.335303 -206.64553 
L 135.287909 -204.799989 
L 134.086104 -202.954447 
L 132.795069 -201.108905 
L 131.47158 -199.263364 
L 130.167469 -197.417822 
L 128.927313 -195.57228 
L 127.780728 -193.726739 
L 126.734257 -191.881197 
L 125.769251 -190.035656 
L 124.849076 -188.190114 
L 123.933631 -186.344572 
L 122.994785 -184.499031 
L 122.025786 -182.653489 
L 121.040935 -180.807947 
L 120.066734 -178.962406 
L 119.129305 -177.116864 
L 118.243661 -175.271322 
L 117.408677 -173.425781 
L 116.608904 -171.580239 
L 115.821903 -169.734697 
L 115.028021 -167.889156 
L 114.218821 -166.043614 
L 113.400851 -164.198072 
L 112.593328 -162.352531 
L 111.820989 -160.506989 
L 111.105618 -158.661447 
L 110.460278 -156.815906 
L 109.888632 -154.970364 
L 109.388722 -153.124822 
L 108.958051 -151.279281 
L 108.596335 -149.433739 
L 108.304248 -147.588197 
L 108.079393 -145.742656 
L 107.91264 -143.897114 
L 107.787634 -142.051572 
L 107.684096 -140.206031 
L 107.583295 -138.360489 
L 107.473035 -136.514947 
L 107.350108 -134.669406 
L 107.219553 -132.823864 
L 107.091376 -130.978322 
L 106.976118 -129.132781 
L 106.880851 -127.287239 
L 106.806945 -125.441697 
L 106.75022 -123.596156 
L 106.703048 -121.750614 
L 106.657045 -119.905072 
L 106.60495 -118.059531 
L 106.541202 -116.213989 
L 106.461951 -114.368447 
L 106.365637 -112.522906 
L 106.254441 -110.677364 
L 106.135618 -108.831822 
L 106.021136 -106.986281 
L 105.92492 -105.140739 
L 105.858515 -103.295198 
L 105.827064 -101.449656 
L 105.827397 -99.604114 
L 105.848913 -97.758573 
L 105.876711 -95.913031 
L 105.895685 -94.067489 
L 105.894179 -92.221948 
L 105.866212 -90.376406 
L 105.81184 -88.530864 
L 105.735825 -86.685323 
L 105.645286 -84.839781 
L 105.547237 -82.994239 
L 105.446821 -81.148698 
L 105.346711 -79.303156 
L 105.247619 -77.457614 
L 105.149456 -75.612073 
L 105.052442 -73.766531 
L 104.957594 -71.920989 
L 104.866428 -70.075448 
L 104.780188 -68.229906 
L 104.699246 -66.384364 
L 104.62314 -64.538823 
L 104.55125 -62.693281 
L 104.483626 -60.847739 
z
" id="mb3196bcdcf" style="stroke:#3f3f3f;stroke-width:1.5;"/>
    </defs>
    <g clip-path="url(#pa5225cafde)">
     <use style="fill:#3274a1;stroke:#3f3f3f;stroke-width:1.5;" x="0" xlink:href="#mb3196bcdcf" y="288"/>
    </g>
   </g>
   <g id="PolyCollection_2">
    <defs>
     <path d="M 338.667189 -45.883636 
L 338.492811 -45.883636 
L 338.474117 -47.608251 
L 338.454328 -49.332866 
L 338.431871 -51.057481 
L 338.404537 -52.782096 
L 338.370187 -54.506711 
L 338.327437 -56.231326 
L 338.275991 -57.955941 
L 338.216573 -59.680556 
L 338.15069 -61.405171 
L 338.08052 -63.129786 
L 338.008957 -64.8544 
L 337.939454 -66.579015 
L 337.87522 -68.30363 
L 337.817794 -70.028245 
L 337.765743 -71.75286 
L 337.714584 -73.477475 
L 337.658507 -75.20209 
L 337.593433 -76.926705 
L 337.520022 -78.65132 
L 337.445112 -80.375935 
L 337.380602 -82.10055 
L 337.339863 -83.825165 
L 337.332745 -85.549779 
L 337.361136 -87.274394 
L 337.417076 -88.999009 
L 337.484544 -90.723624 
L 337.544222 -92.448239 
L 337.579059 -94.172854 
L 337.578091 -95.897469 
L 337.537139 -97.622084 
L 337.456801 -99.346699 
L 337.339551 -101.071314 
L 337.187892 -102.795929 
L 337.004602 -104.520544 
L 336.794601 -106.245158 
L 336.566872 -107.969773 
L 336.33469 -109.694388 
L 336.113195 -111.419003 
L 335.914775 -113.143618 
L 335.744021 -114.868233 
L 335.594641 -116.592848 
L 335.450147 -118.317463 
L 335.288482 -120.042078 
L 335.088831 -121.766693 
L 334.837957 -123.491308 
L 334.533963 -125.215923 
L 334.186831 -126.940537 
L 333.816019 -128.665152 
L 333.445413 -130.389767 
L 333.096065 -132.114382 
L 332.77808 -133.838997 
L 332.484581 -135.563612 
L 332.191027 -137.288227 
L 331.861424 -139.012842 
L 331.459915 -140.737457 
L 330.963794 -142.462072 
L 330.373345 -144.186687 
L 329.714763 -145.911302 
L 329.034319 -147.635916 
L 328.384643 -149.360531 
L 327.807387 -151.085146 
L 327.319205 -152.809761 
L 326.907487 -154.534376 
L 326.537793 -156.258991 
L 326.1686 -157.983606 
L 325.765179 -159.708221 
L 325.30605 -161.432836 
L 324.781072 -163.157451 
L 324.185247 -164.882066 
L 323.513096 -166.606681 
L 322.755496 -168.331295 
L 321.89798 -170.05591 
L 320.919647 -171.780525 
L 319.794351 -173.50514 
L 318.497036 -175.229755 
L 317.015473 -176.95437 
L 315.362865 -178.678985 
L 313.584252 -180.4036 
L 311.752597 -182.128215 
L 309.957398 -183.85283 
L 308.294188 -185.577445 
L 306.862333 -187.30206 
L 305.770637 -189.026674 
L 305.141262 -190.751289 
L 305.1 -192.475904 
L 305.748752 -194.200519 
L 307.129587 -195.925134 
L 309.19903 -197.649749 
L 311.828483 -199.374364 
L 314.832798 -201.098979 
L 318.013481 -202.823594 
L 321.196319 -204.548209 
L 324.249439 -206.272824 
L 327.081272 -207.997439 
L 329.628652 -209.722053 
L 331.846928 -211.446668 
L 333.707772 -213.171283 
L 335.202657 -214.895898 
L 336.346308 -216.620513 
L 340.813692 -216.620513 
L 340.813692 -216.620513 
L 341.957343 -214.895898 
L 343.452228 -213.171283 
L 345.313072 -211.446668 
L 347.531348 -209.722053 
L 350.078728 -207.997439 
L 352.910561 -206.272824 
L 355.963681 -204.548209 
L 359.146519 -202.823594 
L 362.327202 -201.098979 
L 365.331517 -199.374364 
L 367.96097 -197.649749 
L 370.030413 -195.925134 
L 371.411248 -194.200519 
L 372.06 -192.475904 
L 372.018738 -190.751289 
L 371.389363 -189.026674 
L 370.297667 -187.30206 
L 368.865812 -185.577445 
L 367.202602 -183.85283 
L 365.407403 -182.128215 
L 363.575748 -180.4036 
L 361.797135 -178.678985 
L 360.144527 -176.95437 
L 358.662964 -175.229755 
L 357.365649 -173.50514 
L 356.240353 -171.780525 
L 355.26202 -170.05591 
L 354.404504 -168.331295 
L 353.646904 -166.606681 
L 352.974753 -164.882066 
L 352.378928 -163.157451 
L 351.85395 -161.432836 
L 351.394821 -159.708221 
L 350.9914 -157.983606 
L 350.622207 -156.258991 
L 350.252513 -154.534376 
L 349.840795 -152.809761 
L 349.352613 -151.085146 
L 348.775357 -149.360531 
L 348.125681 -147.635916 
L 347.445237 -145.911302 
L 346.786655 -144.186687 
L 346.196206 -142.462072 
L 345.700085 -140.737457 
L 345.298576 -139.012842 
L 344.968973 -137.288227 
L 344.675419 -135.563612 
L 344.38192 -133.838997 
L 344.063935 -132.114382 
L 343.714587 -130.389767 
L 343.343981 -128.665152 
L 342.973169 -126.940537 
L 342.626037 -125.215923 
L 342.322043 -123.491308 
L 342.071169 -121.766693 
L 341.871518 -120.042078 
L 341.709853 -118.317463 
L 341.565359 -116.592848 
L 341.415979 -114.868233 
L 341.245225 -113.143618 
L 341.046805 -111.419003 
L 340.82531 -109.694388 
L 340.593128 -107.969773 
L 340.365399 -106.245158 
L 340.155398 -104.520544 
L 339.972108 -102.795929 
L 339.820449 -101.071314 
L 339.703199 -99.346699 
L 339.622861 -97.622084 
L 339.581909 -95.897469 
L 339.580941 -94.172854 
L 339.615778 -92.448239 
L 339.675456 -90.723624 
L 339.742924 -88.999009 
L 339.798864 -87.274394 
L 339.827255 -85.549779 
L 339.820137 -83.825165 
L 339.779398 -82.10055 
L 339.714888 -80.375935 
L 339.639978 -78.65132 
L 339.566567 -76.926705 
L 339.501493 -75.20209 
L 339.445416 -73.477475 
L 339.394257 -71.75286 
L 339.342206 -70.028245 
L 339.28478 -68.30363 
L 339.220546 -66.579015 
L 339.151043 -64.8544 
L 339.07948 -63.129786 
L 339.00931 -61.405171 
L 338.943427 -59.680556 
L 338.884009 -57.955941 
L 338.832563 -56.231326 
L 338.789813 -54.506711 
L 338.755463 -52.782096 
L 338.728129 -51.057481 
L 338.705672 -49.332866 
L 338.685883 -47.608251 
L 338.667189 -45.883636 
z
" id="m46a4027d3f" style="stroke:#3f3f3f;stroke-width:1.5;"/>
    </defs>
    <g clip-path="url(#pa5225cafde)">
     <use style="fill:#e1812c;stroke:#3f3f3f;stroke-width:1.5;" x="0" xlink:href="#m46a4027d3f" y="288"/>
    </g>
   </g>
   <g id="patch_3">
    <path clip-path="url(#pa5225cafde)" d="M 137.7 246.623724 
L 137.7 246.623724 
L 137.7 246.623724 
L 137.7 246.623724 
z
" style="fill:#3274a1;stroke:#3f3f3f;stroke-linejoin:miter;stroke-width:0.75;"/>
   </g>
   <g id="patch_4">
    <path clip-path="url(#pa5225cafde)" d="M 137.7 246.623724 
L 137.7 246.623724 
L 137.7 246.623724 
L 137.7 246.623724 
z
" style="fill:#e1812c;stroke:#3f3f3f;stroke-linejoin:miter;stroke-width:0.75;"/>
   </g>
   <g id="matplotlib.axis_1">
    <g id="xtick_1">
     <g id="line2d_1">
      <defs>
       <path d="M 0 0 
L 0 3.5 
" id="m599212c98f" style="stroke:#000000;stroke-width:0.8;"/>
      </defs>
      <g>
       <use style="stroke:#000000;stroke-width:0.8;" x="137.7" xlink:href="#m599212c98f" y="252"/>
      </g>
     </g>
     <g id="text_1">
      <!-- Z_1_ns -->
      <g transform="translate(120.320312 266.320312)scale(0.1 -0.1)">
       <defs>
        <path d="M 5.609375 72.90625 
L 62.890625 72.90625 
L 62.890625 65.375 
L 16.796875 8.296875 
L 64.015625 8.296875 
L 64.015625 0 
L 4.5 0 
L 4.5 7.515625 
L 50.59375 64.59375 
L 5.609375 64.59375 
z
" id="DejaVuSans-90"/>
        <path d="M 50.984375 -16.609375 
L 50.984375 -23.578125 
L -0.984375 -23.578125 
L -0.984375 -16.609375 
z
" id="DejaVuSans-95"/>
        <path d="M 12.40625 8.296875 
L 28.515625 8.296875 
L 28.515625 63.921875 
L 10.984375 60.40625 
L 10.984375 69.390625 
L 28.421875 72.90625 
L 38.28125 72.90625 
L 38.28125 8.296875 
L 54.390625 8.296875 
L 54.390625 0 
L 12.40625 0 
z
" id="DejaVuSans-49"/>
        <path d="M 54.890625 33.015625 
L 54.890625 0 
L 45.90625 0 
L 45.90625 32.71875 
Q 45.90625 40.484375 42.875 44.328125 
Q 39.84375 48.1875 33.796875 48.1875 
Q 26.515625 48.1875 22.3125 43.546875 
Q 18.109375 38.921875 18.109375 30.90625 
L 18.109375 0 
L 9.078125 0 
L 9.078125 54.6875 
L 18.109375 54.6875 
L 18.109375 46.1875 
Q 21.34375 51.125 25.703125 53.5625 
Q 30.078125 56 35.796875 56 
Q 45.21875 56 50.046875 50.171875 
Q 54.890625 44.34375 54.890625 33.015625 
z
" id="DejaVuSans-110"/>
        <path d="M 44.28125 53.078125 
L 44.28125 44.578125 
Q 40.484375 46.53125 36.375 47.5 
Q 32.28125 48.484375 27.875 48.484375 
Q 21.1875 48.484375 17.84375 46.4375 
Q 14.5 44.390625 14.5 40.28125 
Q 14.5 37.15625 16.890625 35.375 
Q 19.28125 33.59375 26.515625 31.984375 
L 29.59375 31.296875 
Q 39.15625 29.25 43.1875 25.515625 
Q 47.21875 21.78125 47.21875 15.09375 
Q 47.21875 7.46875 41.1875 3.015625 
Q 35.15625 -1.421875 24.609375 -1.421875 
Q 20.21875 -1.421875 15.453125 -0.5625 
Q 10.6875 0.296875 5.421875 2 
L 5.421875 11.28125 
Q 10.40625 8.6875 15.234375 7.390625 
Q 20.0625 6.109375 24.8125 6.109375 
Q 31.15625 6.109375 34.5625 8.28125 
Q 37.984375 10.453125 37.984375 14.40625 
Q 37.984375 18.0625 35.515625 20.015625 
Q 33.0625 21.96875 24.703125 23.78125 
L 21.578125 24.515625 
Q 13.234375 26.265625 9.515625 29.90625 
Q 5.8125 33.546875 5.8125 39.890625 
Q 5.8125 47.609375 11.28125 51.796875 
Q 16.75 56 26.8125 56 
Q 31.78125 56 36.171875 55.265625 
Q 40.578125 54.546875 44.28125 53.078125 
z
" id="DejaVuSans-115"/>
       </defs>
       <use xlink:href="#DejaVuSans-90"/>
       <use x="68.505859" xlink:href="#DejaVuSans-95"/>
       <use x="118.505859" xlink:href="#DejaVuSans-49"/>
       <use x="182.128906" xlink:href="#DejaVuSans-95"/>
       <use x="232.128906" xlink:href="#DejaVuSans-110"/>
       <use x="295.507812" xlink:href="#DejaVuSans-115"/>
      </g>
     </g>
    </g>
    <g id="xtick_2">
     <g id="line2d_2">
      <g>
       <use style="stroke:#000000;stroke-width:0.8;" x="305.1" xlink:href="#m599212c98f" y="252"/>
      </g>
     </g>
     <g id="text_2">
      <!-- Z_2_ns -->
      <g transform="translate(287.720313 266.421875)scale(0.1 -0.1)">
       <defs>
        <path d="M 19.1875 8.296875 
L 53.609375 8.296875 
L 53.609375 0 
L 7.328125 0 
L 7.328125 8.296875 
Q 12.9375 14.109375 22.625 23.890625 
Q 32.328125 33.6875 34.8125 36.53125 
Q 39.546875 41.84375 41.421875 45.53125 
Q 43.3125 49.21875 43.3125 52.78125 
Q 43.3125 58.59375 39.234375 62.25 
Q 35.15625 65.921875 28.609375 65.921875 
Q 23.96875 65.921875 18.8125 64.3125 
Q 13.671875 62.703125 7.8125 59.421875 
L 7.8125 69.390625 
Q 13.765625 71.78125 18.9375 73 
Q 24.125 74.21875 28.421875 74.21875 
Q 39.75 74.21875 46.484375 68.546875 
Q 53.21875 62.890625 53.21875 53.421875 
Q 53.21875 48.921875 51.53125 44.890625 
Q 49.859375 40.875 45.40625 35.40625 
Q 44.1875 33.984375 37.640625 27.21875 
Q 31.109375 20.453125 19.1875 8.296875 
z
" id="DejaVuSans-50"/>
       </defs>
       <use xlink:href="#DejaVuSans-90"/>
       <use x="68.505859" xlink:href="#DejaVuSans-95"/>
       <use x="118.505859" xlink:href="#DejaVuSans-50"/>
       <use x="182.128906" xlink:href="#DejaVuSans-95"/>
       <use x="232.128906" xlink:href="#DejaVuSans-110"/>
       <use x="295.507812" xlink:href="#DejaVuSans-115"/>
      </g>
     </g>
    </g>
    <g id="text_3">
     <!-- set -->
     <g transform="translate(213.758594 280.378125)scale(0.1 -0.1)">
      <defs>
       <path d="M 56.203125 29.59375 
L 56.203125 25.203125 
L 14.890625 25.203125 
Q 15.484375 15.921875 20.484375 11.0625 
Q 25.484375 6.203125 34.421875 6.203125 
Q 39.59375 6.203125 44.453125 7.46875 
Q 49.3125 8.734375 54.109375 11.28125 
L 54.109375 2.78125 
Q 49.265625 0.734375 44.1875 -0.34375 
Q 39.109375 -1.421875 33.890625 -1.421875 
Q 20.796875 -1.421875 13.15625 6.1875 
Q 5.515625 13.8125 5.515625 26.8125 
Q 5.515625 40.234375 12.765625 48.109375 
Q 20.015625 56 32.328125 56 
Q 43.359375 56 49.78125 48.890625 
Q 56.203125 41.796875 56.203125 29.59375 
z
M 47.21875 32.234375 
Q 47.125 39.59375 43.09375 43.984375 
Q 39.0625 48.390625 32.421875 48.390625 
Q 24.90625 48.390625 20.390625 44.140625 
Q 15.875 39.890625 15.1875 32.171875 
z
" id="DejaVuSans-101"/>
       <path d="M 18.3125 70.21875 
L 18.3125 54.6875 
L 36.8125 54.6875 
L 36.8125 47.703125 
L 18.3125 47.703125 
L 18.3125 18.015625 
Q 18.3125 11.328125 20.140625 9.421875 
Q 21.96875 7.515625 27.59375 7.515625 
L 36.8125 7.515625 
L 36.8125 0 
L 27.59375 0 
Q 17.1875 0 13.234375 3.875 
Q 9.28125 7.765625 9.28125 18.015625 
L 9.28125 47.703125 
L 2.6875 47.703125 
L 2.6875 54.6875 
L 9.28125 54.6875 
L 9.28125 70.21875 
z
" id="DejaVuSans-116"/>
      </defs>
      <use xlink:href="#DejaVuSans-115"/>
      <use x="52.099609" xlink:href="#DejaVuSans-101"/>
      <use x="113.623047" xlink:href="#DejaVuSans-116"/>
     </g>
    </g>
   </g>
   <g id="matplotlib.axis_2">
    <g id="ytick_1">
     <g id="line2d_3">
      <defs>
       <path d="M 0 0 
L -3.5 0 
" id="m1604120c64" style="stroke:#000000;stroke-width:0.8;"/>
      </defs>
      <g>
       <use style="stroke:#000000;stroke-width:0.8;" x="54" xlink:href="#m1604120c64" y="246.623724"/>
      </g>
     </g>
     <g id="text_4">
      <!-- 0 -->
      <g transform="translate(40.6375 250.422943)scale(0.1 -0.1)">
       <defs>
        <path d="M 31.78125 66.40625 
Q 24.171875 66.40625 20.328125 58.90625 
Q 16.5 51.421875 16.5 36.375 
Q 16.5 21.390625 20.328125 13.890625 
Q 24.171875 6.390625 31.78125 6.390625 
Q 39.453125 6.390625 43.28125 13.890625 
Q 47.125 21.390625 47.125 36.375 
Q 47.125 51.421875 43.28125 58.90625 
Q 39.453125 66.40625 31.78125 66.40625 
z
M 31.78125 74.21875 
Q 44.046875 74.21875 50.515625 64.515625 
Q 56.984375 54.828125 56.984375 36.375 
Q 56.984375 17.96875 50.515625 8.265625 
Q 44.046875 -1.421875 31.78125 -1.421875 
Q 19.53125 -1.421875 13.0625 8.265625 
Q 6.59375 17.96875 6.59375 36.375 
Q 6.59375 54.828125 13.0625 64.515625 
Q 19.53125 74.21875 31.78125 74.21875 
z
" id="DejaVuSans-48"/>
       </defs>
       <use xlink:href="#DejaVuSans-48"/>
      </g>
     </g>
    </g>
    <g id="ytick_2">
     <g id="line2d_4">
      <g>
       <use style="stroke:#000000;stroke-width:0.8;" x="54" xlink:href="#m1604120c64" y="218.902297"/>
      </g>
     </g>
     <g id="text_5">
      <!-- 5 -->
      <g transform="translate(40.6375 222.701516)scale(0.1 -0.1)">
       <defs>
        <path d="M 10.796875 72.90625 
L 49.515625 72.90625 
L 49.515625 64.59375 
L 19.828125 64.59375 
L 19.828125 46.734375 
Q 21.96875 47.46875 24.109375 47.828125 
Q 26.265625 48.1875 28.421875 48.1875 
Q 40.625 48.1875 47.75 41.5 
Q 54.890625 34.8125 54.890625 23.390625 
Q 54.890625 11.625 47.5625 5.09375 
Q 40.234375 -1.421875 26.90625 -1.421875 
Q 22.3125 -1.421875 17.546875 -0.640625 
Q 12.796875 0.140625 7.71875 1.703125 
L 7.71875 11.625 
Q 12.109375 9.234375 16.796875 8.0625 
Q 21.484375 6.890625 26.703125 6.890625 
Q 35.15625 6.890625 40.078125 11.328125 
Q 45.015625 15.765625 45.015625 23.390625 
Q 45.015625 31 40.078125 35.4375 
Q 35.15625 39.890625 26.703125 39.890625 
Q 22.75 39.890625 18.8125 39.015625 
Q 14.890625 38.140625 10.796875 36.28125 
z
" id="DejaVuSans-53"/>
       </defs>
       <use xlink:href="#DejaVuSans-53"/>
      </g>
     </g>
    </g>
    <g id="ytick_3">
     <g id="line2d_5">
      <g>
       <use style="stroke:#000000;stroke-width:0.8;" x="54" xlink:href="#m1604120c64" y="191.18087"/>
      </g>
     </g>
     <g id="text_6">
      <!-- 10 -->
      <g transform="translate(34.275 194.980089)scale(0.1 -0.1)">
       <use xlink:href="#DejaVuSans-49"/>
       <use x="63.623047" xlink:href="#DejaVuSans-48"/>
      </g>
     </g>
    </g>
    <g id="ytick_4">
     <g id="line2d_6">
      <g>
       <use style="stroke:#000000;stroke-width:0.8;" x="54" xlink:href="#m1604120c64" y="163.459443"/>
      </g>
     </g>
     <g id="text_7">
      <!-- 15 -->
      <g transform="translate(34.275 167.258662)scale(0.1 -0.1)">
       <use xlink:href="#DejaVuSans-49"/>
       <use x="63.623047" xlink:href="#DejaVuSans-53"/>
      </g>
     </g>
    </g>
    <g id="ytick_5">
     <g id="line2d_7">
      <g>
       <use style="stroke:#000000;stroke-width:0.8;" x="54" xlink:href="#m1604120c64" y="135.738016"/>
      </g>
     </g>
     <g id="text_8">
      <!-- 20 -->
      <g transform="translate(34.275 139.537235)scale(0.1 -0.1)">
       <use xlink:href="#DejaVuSans-50"/>
       <use x="63.623047" xlink:href="#DejaVuSans-48"/>
      </g>
     </g>
    </g>
    <g id="ytick_6">
     <g id="line2d_8">
      <g>
       <use style="stroke:#000000;stroke-width:0.8;" x="54" xlink:href="#m1604120c64" y="108.016589"/>
      </g>
     </g>
     <g id="text_9">
      <!-- 25 -->
      <g transform="translate(34.275 111.815808)scale(0.1 -0.1)">
       <use xlink:href="#DejaVuSans-50"/>
       <use x="63.623047" xlink:href="#DejaVuSans-53"/>
      </g>
     </g>
    </g>
    <g id="ytick_7">
     <g id="line2d_9">
      <g>
       <use style="stroke:#000000;stroke-width:0.8;" x="54" xlink:href="#m1604120c64" y="80.295162"/>
      </g>
     </g>
     <g id="text_10">
      <!-- 30 -->
      <g transform="translate(34.275 84.094381)scale(0.1 -0.1)">
       <defs>
        <path d="M 40.578125 39.3125 
Q 47.65625 37.796875 51.625 33 
Q 55.609375 28.21875 55.609375 21.1875 
Q 55.609375 10.40625 48.1875 4.484375 
Q 40.765625 -1.421875 27.09375 -1.421875 
Q 22.515625 -1.421875 17.65625 -0.515625 
Q 12.796875 0.390625 7.625 2.203125 
L 7.625 11.71875 
Q 11.71875 9.328125 16.59375 8.109375 
Q 21.484375 6.890625 26.8125 6.890625 
Q 36.078125 6.890625 40.9375 10.546875 
Q 45.796875 14.203125 45.796875 21.1875 
Q 45.796875 27.640625 41.28125 31.265625 
Q 36.765625 34.90625 28.71875 34.90625 
L 20.21875 34.90625 
L 20.21875 43.015625 
L 29.109375 43.015625 
Q 36.375 43.015625 40.234375 45.921875 
Q 44.09375 48.828125 44.09375 54.296875 
Q 44.09375 59.90625 40.109375 62.90625 
Q 36.140625 65.921875 28.71875 65.921875 
Q 24.65625 65.921875 20.015625 65.03125 
Q 15.375 64.15625 9.8125 62.3125 
L 9.8125 71.09375 
Q 15.4375 72.65625 20.34375 73.4375 
Q 25.25 74.21875 29.59375 74.21875 
Q 40.828125 74.21875 47.359375 69.109375 
Q 53.90625 64.015625 53.90625 55.328125 
Q 53.90625 49.265625 50.4375 45.09375 
Q 46.96875 40.921875 40.578125 39.3125 
z
" id="DejaVuSans-51"/>
       </defs>
       <use xlink:href="#DejaVuSans-51"/>
       <use x="63.623047" xlink:href="#DejaVuSans-48"/>
      </g>
     </g>
    </g>
    <g id="ytick_8">
     <g id="line2d_10">
      <g>
       <use style="stroke:#000000;stroke-width:0.8;" x="54" xlink:href="#m1604120c64" y="52.573735"/>
      </g>
     </g>
     <g id="text_11">
      <!-- 35 -->
      <g transform="translate(34.275 56.372954)scale(0.1 -0.1)">
       <use xlink:href="#DejaVuSans-51"/>
       <use x="63.623047" xlink:href="#DejaVuSans-53"/>
      </g>
     </g>
    </g>
    <g id="text_12">
     <!-- value -->
     <g transform="translate(28.195312 156.937813)rotate(-90)scale(0.1 -0.1)">
      <defs>
       <path d="M 2.984375 54.6875 
L 12.5 54.6875 
L 29.59375 8.796875 
L 46.6875 54.6875 
L 56.203125 54.6875 
L 35.6875 0 
L 23.484375 0 
z
" id="DejaVuSans-118"/>
       <path d="M 34.28125 27.484375 
Q 23.390625 27.484375 19.1875 25 
Q 14.984375 22.515625 14.984375 16.5 
Q 14.984375 11.71875 18.140625 8.90625 
Q 21.296875 6.109375 26.703125 6.109375 
Q 34.1875 6.109375 38.703125 11.40625 
Q 43.21875 16.703125 43.21875 25.484375 
L 43.21875 27.484375 
z
M 52.203125 31.203125 
L 52.203125 0 
L 43.21875 0 
L 43.21875 8.296875 
Q 40.140625 3.328125 35.546875 0.953125 
Q 30.953125 -1.421875 24.3125 -1.421875 
Q 15.921875 -1.421875 10.953125 3.296875 
Q 6 8.015625 6 15.921875 
Q 6 25.140625 12.171875 29.828125 
Q 18.359375 34.515625 30.609375 34.515625 
L 43.21875 34.515625 
L 43.21875 35.40625 
Q 43.21875 41.609375 39.140625 45 
Q 35.0625 48.390625 27.6875 48.390625 
Q 23 48.390625 18.546875 47.265625 
Q 14.109375 46.140625 10.015625 43.890625 
L 10.015625 52.203125 
Q 14.9375 54.109375 19.578125 55.046875 
Q 24.21875 56 28.609375 56 
Q 40.484375 56 46.34375 49.84375 
Q 52.203125 43.703125 52.203125 31.203125 
z
" id="DejaVuSans-97"/>
       <path d="M 9.421875 75.984375 
L 18.40625 75.984375 
L 18.40625 0 
L 9.421875 0 
z
" id="DejaVuSans-108"/>
       <path d="M 8.5 21.578125 
L 8.5 54.6875 
L 17.484375 54.6875 
L 17.484375 21.921875 
Q 17.484375 14.15625 20.5 10.265625 
Q 23.53125 6.390625 29.59375 6.390625 
Q 36.859375 6.390625 41.078125 11.03125 
Q 45.3125 15.671875 45.3125 23.6875 
L 45.3125 54.6875 
L 54.296875 54.6875 
L 54.296875 0 
L 45.3125 0 
L 45.3125 8.40625 
Q 42.046875 3.421875 37.71875 1 
Q 33.40625 -1.421875 27.6875 -1.421875 
Q 18.265625 -1.421875 13.375 4.4375 
Q 8.5 10.296875 8.5 21.578125 
z
M 31.109375 56 
z
" id="DejaVuSans-117"/>
      </defs>
      <use xlink:href="#DejaVuSans-118"/>
      <use x="59.179688" xlink:href="#DejaVuSans-97"/>
      <use x="120.458984" xlink:href="#DejaVuSans-108"/>
      <use x="148.242188" xlink:href="#DejaVuSans-117"/>
      <use x="211.621094" xlink:href="#DejaVuSans-101"/>
     </g>
    </g>
   </g>
   <g id="line2d_11">
    <path clip-path="url(#pa5225cafde)" d="M 104.22 160.264479 
L 104.22 44.443636 
" style="fill:none;stroke:#3f3f3f;stroke-linecap:square;stroke-width:1.5;"/>
   </g>
   <g id="line2d_12">
    <path clip-path="url(#pa5225cafde)" d="M 104.22 108.793706 
L 104.22 74.444707 
" style="fill:none;stroke:#3f3f3f;stroke-linecap:square;stroke-width:4.5;"/>
   </g>
   <g id="line2d_13">
    <path clip-path="url(#pa5225cafde)" d="M 338.58 177.550456 
L 338.58 71.379487 
" style="fill:none;stroke:#3f3f3f;stroke-linecap:square;stroke-width:1.5;"/>
   </g>
   <g id="line2d_14">
    <path clip-path="url(#pa5225cafde)" d="M 338.58 127.7416 
L 338.58 94.23607 
" style="fill:none;stroke:#3f3f3f;stroke-linecap:square;stroke-width:4.5;"/>
   </g>
   <g id="patch_5">
    <path d="M 54 252 
L 54 34.56 
" style="fill:none;stroke:#000000;stroke-linecap:square;stroke-linejoin:miter;stroke-width:0.8;"/>
   </g>
   <g id="patch_6">
    <path d="M 388.8 252 
L 388.8 34.56 
" style="fill:none;stroke:#000000;stroke-linecap:square;stroke-linejoin:miter;stroke-width:0.8;"/>
   </g>
   <g id="patch_7">
    <path d="M 54 252 
L 388.8 252 
" style="fill:none;stroke:#000000;stroke-linecap:square;stroke-linejoin:miter;stroke-width:0.8;"/>
   </g>
   <g id="patch_8">
    <path d="M 54 34.56 
L 388.8 34.56 
" style="fill:none;stroke:#000000;stroke-linecap:square;stroke-linejoin:miter;stroke-width:0.8;"/>
   </g>
   <g id="PathCollection_1">
    <defs>
     <path d="M 0 1.5 
C 0.397805 1.5 0.77937 1.341951 1.06066 1.06066 
C 1.341951 0.77937 1.5 0.397805 1.5 0 
C 1.5 -0.397805 1.341951 -0.77937 1.06066 -1.06066 
C 0.77937 -1.341951 0.397805 -1.5 0 -1.5 
C -0.397805 -1.5 -0.77937 -1.341951 -1.06066 -1.06066 
C -1.341951 -0.77937 -1.5 -0.397805 -1.5 0 
C -1.5 0.397805 -1.341951 0.77937 -1.06066 1.06066 
C -0.77937 1.341951 -0.397805 1.5 0 1.5 
z
" id="m5adb918dae" style="stroke:#3f3f3f;"/>
    </defs>
    <g clip-path="url(#pa5225cafde)">
     <use style="fill:#ffffff;stroke:#3f3f3f;" x="104.22" xlink:href="#m5adb918dae" y="87.802569"/>
    </g>
   </g>
   <g id="PathCollection_2">
    <g clip-path="url(#pa5225cafde)">
     <use style="fill:#ffffff;stroke:#3f3f3f;" x="338.58" xlink:href="#m5adb918dae" y="105.660452"/>
    </g>
   </g>
   <g id="legend_1">
    <g id="patch_9">
     <path d="M 61 247 
L 127.759375 247 
Q 129.759375 247 129.759375 245 
L 129.759375 201.409375 
Q 129.759375 199.409375 127.759375 199.409375 
L 61 199.409375 
Q 59 199.409375 59 201.409375 
L 59 245 
Q 59 247 61 247 
z
" style="fill:#ffffff;opacity:0.8;stroke:#cccccc;stroke-linejoin:miter;"/>
    </g>
    <g id="text_13">
     <!-- set -->
     <g transform="translate(86.738281 211.007812)scale(0.1 -0.1)">
      <use xlink:href="#DejaVuSans-115"/>
      <use x="52.099609" xlink:href="#DejaVuSans-101"/>
      <use x="113.623047" xlink:href="#DejaVuSans-116"/>
     </g>
    </g>
    <g id="patch_10">
     <path d="M 63 225.685937 
L 83 225.685937 
L 83 218.685937 
L 63 218.685937 
z
" style="fill:#3274a1;stroke:#3f3f3f;stroke-linejoin:miter;stroke-width:0.75;"/>
    </g>
    <g id="text_14">
     <!-- Z_1_ns -->
     <g transform="translate(91 225.685937)scale(0.1 -0.1)">
      <use xlink:href="#DejaVuSans-90"/>
      <use x="68.505859" xlink:href="#DejaVuSans-95"/>
      <use x="118.505859" xlink:href="#DejaVuSans-49"/>
      <use x="182.128906" xlink:href="#DejaVuSans-95"/>
      <use x="232.128906" xlink:href="#DejaVuSans-110"/>
      <use x="295.507812" xlink:href="#DejaVuSans-115"/>
     </g>
    </g>
    <g id="patch_11">
     <path d="M 63 240.642188 
L 83 240.642188 
L 83 233.642188 
L 63 233.642188 
z
" style="fill:#e1812c;stroke:#3f3f3f;stroke-linejoin:miter;stroke-width:0.75;"/>
    </g>
    <g id="text_15">
     <!-- Z_2_ns -->
     <g transform="translate(91 240.642188)scale(0.1 -0.1)">
      <use xlink:href="#DejaVuSans-90"/>
      <use x="68.505859" xlink:href="#DejaVuSans-95"/>
      <use x="118.505859" xlink:href="#DejaVuSans-50"/>
      <use x="182.128906" xlink:href="#DejaVuSans-95"/>
      <use x="232.128906" xlink:href="#DejaVuSans-110"/>
      <use x="295.507812" xlink:href="#DejaVuSans-115"/>
     </g>
    </g>
   </g>
  </g>
 </g>
 <defs>
  <clipPath id="pa5225cafde">
   <rect height="217.44" width="334.8" x="54" y="34.56"/>
  </clipPath>
 </defs>
</svg>
