<?xml version="1.0" encoding="utf-8" standalone="no"?>
<!DOCTYPE svg PUBLIC "-//W3C//DTD SVG 1.1//EN"
  "http://www.w3.org/Graphics/SVG/1.1/DTD/svg11.dtd">
<!-- Created with matplotlib (https://matplotlib.org/) -->
<svg height="288pt" version="1.1" viewBox="0 0 432 288" width="432pt" xmlns="http://www.w3.org/2000/svg" xmlns:xlink="http://www.w3.org/1999/xlink">
 <metadata>
  <rdf:RDF xmlns:cc="http://creativecommons.org/ns#" xmlns:dc="http://purl.org/dc/elements/1.1/" xmlns:rdf="http://www.w3.org/1999/02/22-rdf-syntax-ns#">
   <cc:Work>
    <dc:type rdf:resource="http://purl.org/dc/dcmitype/StillImage"/>
    <dc:date>2021-07-13T17:09:34.037349</dc:date>
    <dc:format>image/svg+xml</dc:format>
    <dc:creator>
     <cc:Agent>
      <dc:title>Matplotlib v3.3.4, https://matplotlib.org/</dc:title>
     </cc:Agent>
    </dc:creator>
   </cc:Work>
  </rdf:RDF>
 </metadata>
 <defs>
  <style type="text/css">*{stroke-linecap:butt;stroke-linejoin:round;}</style>
 </defs>
 <g id="figure_1">
  <g id="patch_1">
   <path d="M 0 288 
L 432 288 
L 432 0 
L 0 0 
z
" style="fill:#ffffff;"/>
  </g>
  <g id="axes_1">
   <g id="patch_2">
    <path d="M 54 252 
L 388.8 252 
L 388.8 34.56 
L 54 34.56 
z
" style="fill:#ffffff;"/>
   </g>
   <g id="PolyCollection_1">
    <defs>
     <path d="M 88.282996 -45.883636 
L 71.797004 -45.883636 
L 69.55168 -47.676037 
L 67.686264 -49.468438 
L 66.368541 -51.260838 
L 65.592677 -53.053239 
L 65.236376 -54.845639 
L 65.16 -56.63804 
L 65.277513 -58.43044 
L 65.563956 -60.222841 
L 66.016408 -62.015242 
L 66.61344 -63.807642 
L 67.305699 -65.600043 
L 68.035517 -67.392443 
L 68.759903 -69.184844 
L 69.456859 -70.977244 
L 70.116743 -72.769645 
L 70.732992 -74.562046 
L 71.300742 -76.354446 
L 71.820334 -78.146847 
L 72.299097 -79.939247 
L 72.748978 -81.731648 
L 73.182337 -83.524048 
L 73.609397 -85.316449 
L 74.038728 -87.10885 
L 74.478269 -88.90125 
L 74.932737 -90.693651 
L 75.397385 -92.486051 
L 75.854562 -94.278452 
L 76.279408 -96.070852 
L 76.652383 -97.863253 
L 76.968793 -99.655654 
L 77.238266 -101.448054 
L 77.476644 -103.240455 
L 77.697698 -105.032855 
L 77.908647 -106.825256 
L 78.108586 -108.617657 
L 78.288828 -110.410057 
L 78.43654 -112.202458 
L 78.542197 -113.994858 
L 78.607258 -115.787259 
L 78.646448 -117.579659 
L 78.682394 -119.37206 
L 78.736056 -121.164461 
L 78.818952 -122.956861 
L 78.930735 -124.749262 
L 79.061385 -126.541662 
L 79.195231 -128.334063 
L 79.315124 -130.126463 
L 79.406699 -131.918864 
L 79.46258 -133.711265 
L 79.484919 -135.503665 
L 79.484549 -137.296066 
L 79.476866 -139.088466 
L 79.476409 -140.880867 
L 79.492304 -142.673267 
L 79.525928 -144.465668 
L 79.571597 -146.258069 
L 79.620138 -148.050469 
L 79.663566 -149.84287 
L 79.698096 -151.63527 
L 79.724101 -153.427671 
L 79.744193 -155.220072 
L 79.761478 -157.012472 
L 79.778703 -158.804873 
L 79.797706 -160.597273 
L 79.818789 -162.389674 
L 79.840475 -164.182074 
L 79.860166 -165.974475 
L 79.875455 -167.766876 
L 79.885411 -169.559276 
L 79.891154 -171.351677 
L 79.895413 -173.144077 
L 79.901193 -174.936478 
L 79.91029 -176.728878 
L 79.922569 -178.521279 
L 79.936427 -180.31368 
L 79.94995 -182.10608 
L 79.96175 -183.898481 
L 79.970883 -185.690881 
L 79.976237 -187.483282 
L 79.976411 -189.275682 
L 79.970648 -191.068083 
L 79.960164 -192.860484 
L 79.948592 -194.652884 
L 79.940773 -196.445285 
L 79.940481 -198.237685 
L 79.948611 -200.030086 
L 79.963014 -201.822486 
L 79.979853 -203.614887 
L 79.995306 -205.407288 
L 80.006585 -207.199688 
L 80.012137 -208.992089 
L 80.011594 -210.784489 
L 80.005862 -212.57689 
L 79.99715 -214.369291 
L 79.988557 -216.161691 
L 79.983124 -217.954092 
L 79.982768 -219.746492 
L 79.987701 -221.538893 
L 79.996594 -223.331293 
L 80.083406 -223.331293 
L 80.083406 -223.331293 
L 80.092299 -221.538893 
L 80.097232 -219.746492 
L 80.096876 -217.954092 
L 80.091443 -216.161691 
L 80.08285 -214.369291 
L 80.074138 -212.57689 
L 80.068406 -210.784489 
L 80.067863 -208.992089 
L 80.073415 -207.199688 
L 80.084694 -205.407288 
L 80.100147 -203.614887 
L 80.116986 -201.822486 
L 80.131389 -200.030086 
L 80.139519 -198.237685 
L 80.139227 -196.445285 
L 80.131408 -194.652884 
L 80.119836 -192.860484 
L 80.109352 -191.068083 
L 80.103589 -189.275682 
L 80.103763 -187.483282 
L 80.109117 -185.690881 
L 80.11825 -183.898481 
L 80.13005 -182.10608 
L 80.143573 -180.31368 
L 80.157431 -178.521279 
L 80.16971 -176.728878 
L 80.178807 -174.936478 
L 80.184587 -173.144077 
L 80.188846 -171.351677 
L 80.194589 -169.559276 
L 80.204545 -167.766876 
L 80.219834 -165.974475 
L 80.239525 -164.182074 
L 80.261211 -162.389674 
L 80.282294 -160.597273 
L 80.301297 -158.804873 
L 80.318522 -157.012472 
L 80.335807 -155.220072 
L 80.355899 -153.427671 
L 80.381904 -151.63527 
L 80.416434 -149.84287 
L 80.459862 -148.050469 
L 80.508403 -146.258069 
L 80.554072 -144.465668 
L 80.587696 -142.673267 
L 80.603591 -140.880867 
L 80.603134 -139.088466 
L 80.595451 -137.296066 
L 80.595081 -135.503665 
L 80.61742 -133.711265 
L 80.673301 -131.918864 
L 80.764876 -130.126463 
L 80.884769 -128.334063 
L 81.018615 -126.541662 
L 81.149265 -124.749262 
L 81.261048 -122.956861 
L 81.343944 -121.164461 
L 81.397606 -119.37206 
L 81.433552 -117.579659 
L 81.472742 -115.787259 
L 81.537803 -113.994858 
L 81.64346 -112.202458 
L 81.791172 -110.410057 
L 81.971414 -108.617657 
L 82.171353 -106.825256 
L 82.382302 -105.032855 
L 82.603356 -103.240455 
L 82.841734 -101.448054 
L 83.111207 -99.655654 
L 83.427617 -97.863253 
L 83.800592 -96.070852 
L 84.225438 -94.278452 
L 84.682615 -92.486051 
L 85.147263 -90.693651 
L 85.601731 -88.90125 
L 86.041272 -87.10885 
L 86.470603 -85.316449 
L 86.897663 -83.524048 
L 87.331022 -81.731648 
L 87.780903 -79.939247 
L 88.259666 -78.146847 
L 88.779258 -76.354446 
L 89.347008 -74.562046 
L 89.963257 -72.769645 
L 90.623141 -70.977244 
L 91.320097 -69.184844 
L 92.044483 -67.392443 
L 92.774301 -65.600043 
L 93.46656 -63.807642 
L 94.063592 -62.015242 
L 94.516044 -60.222841 
L 94.802487 -58.43044 
L 94.92 -56.63804 
L 94.843624 -54.845639 
L 94.487323 -53.053239 
L 93.711459 -51.260838 
L 92.393736 -49.468438 
L 90.52832 -47.676037 
L 88.282996 -45.883636 
z
" id="mdb058708a4" style="stroke:#3d3d3d;stroke-width:1.5;"/>
    </defs>
    <g clip-path="url(#p38dc3e42d6)">
     <use style="fill:#3274a1;stroke:#3d3d3d;stroke-width:1.5;" x="0" xlink:href="#mdb058708a4" y="288"/>
    </g>
   </g>
   <g id="PolyCollection_2">
    <defs>
     <path d="M 229.506987 -45.908947 
L 213.293013 -45.908947 
L 211.171476 -47.905386 
L 209.297551 -49.901824 
L 207.852597 -51.898263 
L 206.926237 -53.894701 
L 206.52 -55.89114 
L 206.574305 -57.887578 
L 206.997036 -59.884017 
L 207.681521 -61.880455 
L 208.516035 -63.876894 
L 209.393887 -65.873333 
L 210.229091 -67.869771 
L 210.973018 -69.86621 
L 211.621674 -71.862648 
L 212.206674 -73.859087 
L 212.7728 -75.855525 
L 213.353475 -77.851964 
L 213.956396 -79.848402 
L 214.56505 -81.844841 
L 215.152473 -83.84128 
L 215.697228 -85.837718 
L 216.191834 -87.834157 
L 216.640267 -89.830595 
L 217.049104 -91.827034 
L 217.420326 -93.823472 
L 217.750842 -95.819911 
L 218.037534 -97.816349 
L 218.282803 -99.812788 
L 218.496524 -101.809226 
L 218.693752 -103.805665 
L 218.889955 -105.802104 
L 219.095964 -107.798542 
L 219.314436 -109.794981 
L 219.539126 -111.791419 
L 219.757267 -113.787858 
L 219.954157 -115.784296 
L 220.118271 -117.780735 
L 220.245375 -119.777173 
L 220.340326 -121.773612 
L 220.415497 -123.770051 
L 220.485702 -125.766489 
L 220.561568 -127.762928 
L 220.64476 -129.759366 
L 220.727793 -131.755805 
L 220.798476 -133.752243 
L 220.846472 -135.748682 
L 220.868621 -137.74512 
L 220.870548 -139.741559 
L 220.863971 -141.737998 
L 220.861312 -143.734436 
L 220.870705 -145.730875 
L 220.894138 -147.727313 
L 220.929183 -149.723752 
L 220.972226 -151.72019 
L 221.020564 -153.716629 
L 221.072362 -155.713067 
L 221.12556 -157.709506 
L 221.177362 -159.705944 
L 221.22486 -161.702383 
L 221.266077 -163.698822 
L 221.30044 -165.69526 
L 221.328407 -167.691699 
L 221.350731 -169.688137 
L 221.367996 -171.684576 
L 221.380623 -173.681014 
L 221.389101 -175.677453 
L 221.394064 -177.673891 
L 221.396117 -179.67033 
L 221.395521 -181.666769 
L 221.392 -183.663207 
L 221.384882 -185.659646 
L 221.37366 -187.656084 
L 221.358834 -189.652523 
L 221.342561 -191.648961 
L 221.328488 -193.6454 
L 221.320511 -195.641838 
L 221.320959 -197.638277 
L 221.329287 -199.634716 
L 221.342187 -201.631154 
L 221.355082 -203.627593 
L 221.364106 -205.624031 
L 221.367532 -207.62047 
L 221.36612 -209.616908 
L 221.36244 -211.613347 
L 221.359607 -213.609785 
L 221.35994 -215.606224 
L 221.36413 -217.602662 
L 221.371225 -219.599101 
L 221.379358 -221.59554 
L 221.386702 -223.591978 
L 221.392107 -225.588417 
L 221.395159 -227.584855 
L 221.39585 -229.581294 
L 221.394207 -231.577732 
L 221.390185 -233.574171 
L 221.383909 -235.570609 
L 221.376072 -237.567048 
L 221.368164 -239.563487 
L 221.362203 -241.559925 
L 221.359976 -243.556364 
L 221.440024 -243.556364 
L 221.440024 -243.556364 
L 221.437797 -241.559925 
L 221.431836 -239.563487 
L 221.423928 -237.567048 
L 221.416091 -235.570609 
L 221.409815 -233.574171 
L 221.405793 -231.577732 
L 221.40415 -229.581294 
L 221.404841 -227.584855 
L 221.407893 -225.588417 
L 221.413298 -223.591978 
L 221.420642 -221.59554 
L 221.428775 -219.599101 
L 221.43587 -217.602662 
L 221.44006 -215.606224 
L 221.440393 -213.609785 
L 221.43756 -211.613347 
L 221.43388 -209.616908 
L 221.432468 -207.62047 
L 221.435894 -205.624031 
L 221.444918 -203.627593 
L 221.457813 -201.631154 
L 221.470713 -199.634716 
L 221.479041 -197.638277 
L 221.479489 -195.641838 
L 221.471512 -193.6454 
L 221.457439 -191.648961 
L 221.441166 -189.652523 
L 221.42634 -187.656084 
L 221.415118 -185.659646 
L 221.408 -183.663207 
L 221.404479 -181.666769 
L 221.403883 -179.67033 
L 221.405936 -177.673891 
L 221.410899 -175.677453 
L 221.419377 -173.681014 
L 221.432004 -171.684576 
L 221.449269 -169.688137 
L 221.471593 -167.691699 
L 221.49956 -165.69526 
L 221.533923 -163.698822 
L 221.57514 -161.702383 
L 221.622638 -159.705944 
L 221.67444 -157.709506 
L 221.727638 -155.713067 
L 221.779436 -153.716629 
L 221.827774 -151.72019 
L 221.870817 -149.723752 
L 221.905862 -147.727313 
L 221.929295 -145.730875 
L 221.938688 -143.734436 
L 221.936029 -141.737998 
L 221.929452 -139.741559 
L 221.931379 -137.74512 
L 221.953528 -135.748682 
L 222.001524 -133.752243 
L 222.072207 -131.755805 
L 222.15524 -129.759366 
L 222.238432 -127.762928 
L 222.314298 -125.766489 
L 222.384503 -123.770051 
L 222.459674 -121.773612 
L 222.554625 -119.777173 
L 222.681729 -117.780735 
L 222.845843 -115.784296 
L 223.042733 -113.787858 
L 223.260874 -111.791419 
L 223.485564 -109.794981 
L 223.704036 -107.798542 
L 223.910045 -105.802104 
L 224.106248 -103.805665 
L 224.303476 -101.809226 
L 224.517197 -99.812788 
L 224.762466 -97.816349 
L 225.049158 -95.819911 
L 225.379674 -93.823472 
L 225.750896 -91.827034 
L 226.159733 -89.830595 
L 226.608166 -87.834157 
L 227.102772 -85.837718 
L 227.647527 -83.84128 
L 228.23495 -81.844841 
L 228.843604 -79.848402 
L 229.446525 -77.851964 
L 230.0272 -75.855525 
L 230.593326 -73.859087 
L 231.178326 -71.862648 
L 231.826982 -69.86621 
L 232.570909 -67.869771 
L 233.406113 -65.873333 
L 234.283965 -63.876894 
L 235.118479 -61.880455 
L 235.802964 -59.884017 
L 236.225695 -57.887578 
L 236.28 -55.89114 
L 235.873763 -53.894701 
L 234.947403 -51.898263 
L 233.502449 -49.901824 
L 231.628524 -47.905386 
L 229.506987 -45.908947 
z
" id="m19b5457c1d" style="stroke:#3d3d3d;stroke-width:1.5;"/>
    </defs>
    <g clip-path="url(#p38dc3e42d6)">
     <use style="fill:#e1812c;stroke:#3d3d3d;stroke-width:1.5;" x="0" xlink:href="#m19b5457c1d" y="288"/>
    </g>
   </g>
   <g id="PolyCollection_3">
    <defs>
     <path d="M 370.747425 -45.931606 
L 354.772575 -45.931606 
L 352.945934 -47.906005 
L 351.30091 -49.880403 
L 349.944424 -51.854801 
L 348.926762 -53.829199 
L 348.25462 -55.803597 
L 347.913112 -57.777995 
L 347.88 -59.752394 
L 348.125902 -61.726792 
L 348.60721 -63.70119 
L 349.263254 -65.675588 
L 350.023559 -67.649986 
L 350.821681 -69.624385 
L 351.607382 -71.598783 
L 352.351603 -73.573181 
L 353.044493 -75.547579 
L 353.690221 -77.521977 
L 354.301359 -79.496376 
L 354.893157 -81.470774 
L 355.477228 -83.445172 
L 356.055917 -85.41957 
L 356.620305 -87.393968 
L 357.154051 -89.368367 
L 357.641812 -91.342765 
L 358.077608 -93.317163 
L 358.46803 -95.291561 
L 358.828322 -97.265959 
L 359.173935 -99.240358 
L 359.512909 -101.214756 
L 359.843439 -103.189154 
L 360.157264 -105.163552 
L 360.445753 -107.13795 
L 360.7044 -109.112348 
L 360.933275 -111.086747 
L 361.134262 -113.061145 
L 361.307998 -115.035543 
L 361.453171 -117.009941 
L 361.568618 -118.984339 
L 361.656443 -120.958738 
L 361.723619 -122.933136 
L 361.780589 -124.907534 
L 361.837339 -126.881932 
L 361.899003 -128.85633 
L 361.963485 -130.830729 
L 362.022591 -132.805127 
L 362.066375 -134.779525 
L 362.088639 -136.753923 
L 362.09082 -138.728321 
L 362.082248 -140.70272 
L 362.076624 -142.677118 
L 362.086527 -144.651516 
L 362.11866 -146.625914 
L 362.172037 -148.600312 
L 362.239576 -150.57471 
L 362.311846 -152.549109 
L 362.38081 -154.523507 
L 362.44182 -156.497905 
L 362.493444 -158.472303 
L 362.535905 -160.446701 
L 362.569442 -162.4211 
L 362.593521 -164.395498 
L 362.607064 -166.369896 
L 362.609284 -168.344294 
L 362.600579 -170.318692 
L 362.583044 -172.293091 
L 362.560388 -174.267489 
L 362.53724 -176.241887 
L 362.518061 -178.216285 
L 362.506047 -180.190683 
L 362.502446 -182.165082 
L 362.506493 -184.13948 
L 362.516002 -186.113878 
L 362.528368 -188.088276 
L 362.541619 -190.062674 
L 362.555077 -192.037073 
L 362.5693 -194.011471 
L 362.58534 -195.985869 
L 362.603752 -197.960267 
L 362.623945 -199.934665 
L 362.644276 -201.909063 
L 362.662807 -203.883462 
L 362.678233 -205.85786 
L 362.690433 -207.832258 
L 362.700347 -209.806656 
L 362.709304 -211.781054 
L 362.718263 -213.755453 
L 362.727401 -215.729851 
L 362.736199 -217.704249 
L 362.743864 -219.678647 
L 362.749748 -221.653045 
L 362.753537 -223.627444 
L 362.755188 -225.601842 
L 362.754742 -227.57624 
L 362.752217 -229.550638 
L 362.74767 -231.525036 
L 362.741405 -233.499435 
L 362.734206 -235.473833 
L 362.72736 -237.448231 
L 362.722398 -239.422629 
L 362.720581 -241.397027 
L 362.799419 -241.397027 
L 362.799419 -241.397027 
L 362.797602 -239.422629 
L 362.79264 -237.448231 
L 362.785794 -235.473833 
L 362.778595 -233.499435 
L 362.77233 -231.525036 
L 362.767783 -229.550638 
L 362.765258 -227.57624 
L 362.764812 -225.601842 
L 362.766463 -223.627444 
L 362.770252 -221.653045 
L 362.776136 -219.678647 
L 362.783801 -217.704249 
L 362.792599 -215.729851 
L 362.801737 -213.755453 
L 362.810696 -211.781054 
L 362.819653 -209.806656 
L 362.829567 -207.832258 
L 362.841767 -205.85786 
L 362.857193 -203.883462 
L 362.875724 -201.909063 
L 362.896055 -199.934665 
L 362.916248 -197.960267 
L 362.93466 -195.985869 
L 362.9507 -194.011471 
L 362.964923 -192.037073 
L 362.978381 -190.062674 
L 362.991632 -188.088276 
L 363.003998 -186.113878 
L 363.013507 -184.13948 
L 363.017554 -182.165082 
L 363.013953 -180.190683 
L 363.001939 -178.216285 
L 362.98276 -176.241887 
L 362.959612 -174.267489 
L 362.936956 -172.293091 
L 362.919421 -170.318692 
L 362.910716 -168.344294 
L 362.912936 -166.369896 
L 362.926479 -164.395498 
L 362.950558 -162.4211 
L 362.984095 -160.446701 
L 363.026556 -158.472303 
L 363.07818 -156.497905 
L 363.13919 -154.523507 
L 363.208154 -152.549109 
L 363.280424 -150.57471 
L 363.347963 -148.600312 
L 363.40134 -146.625914 
L 363.433473 -144.651516 
L 363.443376 -142.677118 
L 363.437752 -140.70272 
L 363.42918 -138.728321 
L 363.431361 -136.753923 
L 363.453625 -134.779525 
L 363.497409 -132.805127 
L 363.556515 -130.830729 
L 363.620997 -128.85633 
L 363.682661 -126.881932 
L 363.739411 -124.907534 
L 363.796381 -122.933136 
L 363.863557 -120.958738 
L 363.951382 -118.984339 
L 364.066829 -117.009941 
L 364.212002 -115.035543 
L 364.385738 -113.061145 
L 364.586725 -111.086747 
L 364.8156 -109.112348 
L 365.074247 -107.13795 
L 365.362736 -105.163552 
L 365.676561 -103.189154 
L 366.007091 -101.214756 
L 366.346065 -99.240358 
L 366.691678 -97.265959 
L 367.05197 -95.291561 
L 367.442392 -93.317163 
L 367.878188 -91.342765 
L 368.365949 -89.368367 
L 368.899695 -87.393968 
L 369.464083 -85.41957 
L 370.042772 -83.445172 
L 370.626843 -81.470774 
L 371.218641 -79.496376 
L 371.829779 -77.521977 
L 372.475507 -75.547579 
L 373.168397 -73.573181 
L 373.912618 -71.598783 
L 374.698319 -69.624385 
L 375.496441 -67.649986 
L 376.256746 -65.675588 
L 376.91279 -63.70119 
L 377.394098 -61.726792 
L 377.64 -59.752394 
L 377.606888 -57.777995 
L 377.26538 -55.803597 
L 376.593238 -53.829199 
L 375.575576 -51.854801 
L 374.21909 -49.880403 
L 372.574066 -47.906005 
L 370.747425 -45.931606 
z
" id="m2c5fb678e6" style="stroke:#3d3d3d;stroke-width:1.5;"/>
    </defs>
    <g clip-path="url(#p38dc3e42d6)">
     <use style="fill:#3a923a;stroke:#3d3d3d;stroke-width:1.5;" x="0" xlink:href="#m2c5fb678e6" y="288"/>
    </g>
   </g>
   <g id="patch_3">
    <path clip-path="url(#p38dc3e42d6)" d="M 109.8 242.118612 
L 109.8 242.118612 
L 109.8 242.118612 
L 109.8 242.118612 
z
" style="fill:#3274a1;stroke:#3d3d3d;stroke-linejoin:miter;stroke-width:0.75;"/>
   </g>
   <g id="patch_4">
    <path clip-path="url(#p38dc3e42d6)" d="M 109.8 242.118612 
L 109.8 242.118612 
L 109.8 242.118612 
L 109.8 242.118612 
z
" style="fill:#e1812c;stroke:#3d3d3d;stroke-linejoin:miter;stroke-width:0.75;"/>
   </g>
   <g id="patch_5">
    <path clip-path="url(#p38dc3e42d6)" d="M 109.8 242.118612 
L 109.8 242.118612 
L 109.8 242.118612 
L 109.8 242.118612 
z
" style="fill:#3a923a;stroke:#3d3d3d;stroke-linejoin:miter;stroke-width:0.75;"/>
   </g>
   <g id="matplotlib.axis_1">
    <g id="xtick_1">
     <g id="line2d_1">
      <defs>
       <path d="M 0 0 
L 0 3.5 
" id="m32caaf3ee6" style="stroke:#000000;stroke-width:0.8;"/>
      </defs>
      <g>
       <use style="stroke:#000000;stroke-width:0.8;" x="109.8" xlink:href="#m32caaf3ee6" y="252"/>
      </g>
     </g>
     <g id="text_1">
      <!-- train -->
      <g transform="translate(98.1625 266.598437)scale(0.1 -0.1)">
       <defs>
        <path d="M 18.3125 70.21875 
L 18.3125 54.6875 
L 36.8125 54.6875 
L 36.8125 47.703125 
L 18.3125 47.703125 
L 18.3125 18.015625 
Q 18.3125 11.328125 20.140625 9.421875 
Q 21.96875 7.515625 27.59375 7.515625 
L 36.8125 7.515625 
L 36.8125 0 
L 27.59375 0 
Q 17.1875 0 13.234375 3.875 
Q 9.28125 7.765625 9.28125 18.015625 
L 9.28125 47.703125 
L 2.6875 47.703125 
L 2.6875 54.6875 
L 9.28125 54.6875 
L 9.28125 70.21875 
z
" id="DejaVuSans-116"/>
        <path d="M 41.109375 46.296875 
Q 39.59375 47.171875 37.8125 47.578125 
Q 36.03125 48 33.890625 48 
Q 26.265625 48 22.1875 43.046875 
Q 18.109375 38.09375 18.109375 28.8125 
L 18.109375 0 
L 9.078125 0 
L 9.078125 54.6875 
L 18.109375 54.6875 
L 18.109375 46.1875 
Q 20.953125 51.171875 25.484375 53.578125 
Q 30.03125 56 36.53125 56 
Q 37.453125 56 38.578125 55.875 
Q 39.703125 55.765625 41.0625 55.515625 
z
" id="DejaVuSans-114"/>
        <path d="M 34.28125 27.484375 
Q 23.390625 27.484375 19.1875 25 
Q 14.984375 22.515625 14.984375 16.5 
Q 14.984375 11.71875 18.140625 8.90625 
Q 21.296875 6.109375 26.703125 6.109375 
Q 34.1875 6.109375 38.703125 11.40625 
Q 43.21875 16.703125 43.21875 25.484375 
L 43.21875 27.484375 
z
M 52.203125 31.203125 
L 52.203125 0 
L 43.21875 0 
L 43.21875 8.296875 
Q 40.140625 3.328125 35.546875 0.953125 
Q 30.953125 -1.421875 24.3125 -1.421875 
Q 15.921875 -1.421875 10.953125 3.296875 
Q 6 8.015625 6 15.921875 
Q 6 25.140625 12.171875 29.828125 
Q 18.359375 34.515625 30.609375 34.515625 
L 43.21875 34.515625 
L 43.21875 35.40625 
Q 43.21875 41.609375 39.140625 45 
Q 35.0625 48.390625 27.6875 48.390625 
Q 23 48.390625 18.546875 47.265625 
Q 14.109375 46.140625 10.015625 43.890625 
L 10.015625 52.203125 
Q 14.9375 54.109375 19.578125 55.046875 
Q 24.21875 56 28.609375 56 
Q 40.484375 56 46.34375 49.84375 
Q 52.203125 43.703125 52.203125 31.203125 
z
" id="DejaVuSans-97"/>
        <path d="M 9.421875 54.6875 
L 18.40625 54.6875 
L 18.40625 0 
L 9.421875 0 
z
M 9.421875 75.984375 
L 18.40625 75.984375 
L 18.40625 64.59375 
L 9.421875 64.59375 
z
" id="DejaVuSans-105"/>
        <path d="M 54.890625 33.015625 
L 54.890625 0 
L 45.90625 0 
L 45.90625 32.71875 
Q 45.90625 40.484375 42.875 44.328125 
Q 39.84375 48.1875 33.796875 48.1875 
Q 26.515625 48.1875 22.3125 43.546875 
Q 18.109375 38.921875 18.109375 30.90625 
L 18.109375 0 
L 9.078125 0 
L 9.078125 54.6875 
L 18.109375 54.6875 
L 18.109375 46.1875 
Q 21.34375 51.125 25.703125 53.5625 
Q 30.078125 56 35.796875 56 
Q 45.21875 56 50.046875 50.171875 
Q 54.890625 44.34375 54.890625 33.015625 
z
" id="DejaVuSans-110"/>
       </defs>
       <use xlink:href="#DejaVuSans-116"/>
       <use x="39.208984" xlink:href="#DejaVuSans-114"/>
       <use x="80.322266" xlink:href="#DejaVuSans-97"/>
       <use x="141.601562" xlink:href="#DejaVuSans-105"/>
       <use x="169.384766" xlink:href="#DejaVuSans-110"/>
      </g>
     </g>
    </g>
    <g id="xtick_2">
     <g id="line2d_2">
      <g>
       <use style="stroke:#000000;stroke-width:0.8;" x="221.4" xlink:href="#m32caaf3ee6" y="252"/>
      </g>
     </g>
     <g id="text_2">
      <!-- val -->
      <g transform="translate(213.9875 266.598437)scale(0.1 -0.1)">
       <defs>
        <path d="M 2.984375 54.6875 
L 12.5 54.6875 
L 29.59375 8.796875 
L 46.6875 54.6875 
L 56.203125 54.6875 
L 35.6875 0 
L 23.484375 0 
z
" id="DejaVuSans-118"/>
        <path d="M 9.421875 75.984375 
L 18.40625 75.984375 
L 18.40625 0 
L 9.421875 0 
z
" id="DejaVuSans-108"/>
       </defs>
       <use xlink:href="#DejaVuSans-118"/>
       <use x="59.179688" xlink:href="#DejaVuSans-97"/>
       <use x="120.458984" xlink:href="#DejaVuSans-108"/>
      </g>
     </g>
    </g>
    <g id="xtick_3">
     <g id="line2d_3">
      <g>
       <use style="stroke:#000000;stroke-width:0.8;" x="333" xlink:href="#m32caaf3ee6" y="252"/>
      </g>
     </g>
     <g id="text_3">
      <!-- test -->
      <g transform="translate(323.398438 266.598437)scale(0.1 -0.1)">
       <defs>
        <path d="M 56.203125 29.59375 
L 56.203125 25.203125 
L 14.890625 25.203125 
Q 15.484375 15.921875 20.484375 11.0625 
Q 25.484375 6.203125 34.421875 6.203125 
Q 39.59375 6.203125 44.453125 7.46875 
Q 49.3125 8.734375 54.109375 11.28125 
L 54.109375 2.78125 
Q 49.265625 0.734375 44.1875 -0.34375 
Q 39.109375 -1.421875 33.890625 -1.421875 
Q 20.796875 -1.421875 13.15625 6.1875 
Q 5.515625 13.8125 5.515625 26.8125 
Q 5.515625 40.234375 12.765625 48.109375 
Q 20.015625 56 32.328125 56 
Q 43.359375 56 49.78125 48.890625 
Q 56.203125 41.796875 56.203125 29.59375 
z
M 47.21875 32.234375 
Q 47.125 39.59375 43.09375 43.984375 
Q 39.0625 48.390625 32.421875 48.390625 
Q 24.90625 48.390625 20.390625 44.140625 
Q 15.875 39.890625 15.1875 32.171875 
z
" id="DejaVuSans-101"/>
        <path d="M 44.28125 53.078125 
L 44.28125 44.578125 
Q 40.484375 46.53125 36.375 47.5 
Q 32.28125 48.484375 27.875 48.484375 
Q 21.1875 48.484375 17.84375 46.4375 
Q 14.5 44.390625 14.5 40.28125 
Q 14.5 37.15625 16.890625 35.375 
Q 19.28125 33.59375 26.515625 31.984375 
L 29.59375 31.296875 
Q 39.15625 29.25 43.1875 25.515625 
Q 47.21875 21.78125 47.21875 15.09375 
Q 47.21875 7.46875 41.1875 3.015625 
Q 35.15625 -1.421875 24.609375 -1.421875 
Q 20.21875 -1.421875 15.453125 -0.5625 
Q 10.6875 0.296875 5.421875 2 
L 5.421875 11.28125 
Q 10.40625 8.6875 15.234375 7.390625 
Q 20.0625 6.109375 24.8125 6.109375 
Q 31.15625 6.109375 34.5625 8.28125 
Q 37.984375 10.453125 37.984375 14.40625 
Q 37.984375 18.0625 35.515625 20.015625 
Q 33.0625 21.96875 24.703125 23.78125 
L 21.578125 24.515625 
Q 13.234375 26.265625 9.515625 29.90625 
Q 5.8125 33.546875 5.8125 39.890625 
Q 5.8125 47.609375 11.28125 51.796875 
Q 16.75 56 26.8125 56 
Q 31.78125 56 36.171875 55.265625 
Q 40.578125 54.546875 44.28125 53.078125 
z
" id="DejaVuSans-115"/>
       </defs>
       <use xlink:href="#DejaVuSans-116"/>
       <use x="39.208984" xlink:href="#DejaVuSans-101"/>
       <use x="100.732422" xlink:href="#DejaVuSans-115"/>
       <use x="152.832031" xlink:href="#DejaVuSans-116"/>
      </g>
     </g>
    </g>
    <g id="text_4">
     <!-- set -->
     <g transform="translate(213.758594 280.276563)scale(0.1 -0.1)">
      <use xlink:href="#DejaVuSans-115"/>
      <use x="52.099609" xlink:href="#DejaVuSans-101"/>
      <use x="113.623047" xlink:href="#DejaVuSans-116"/>
     </g>
    </g>
   </g>
   <g id="matplotlib.axis_2">
    <g id="ytick_1">
     <g id="line2d_4">
      <defs>
       <path d="M 0 0 
L -3.5 0 
" id="m75252de8b5" style="stroke:#000000;stroke-width:0.8;"/>
      </defs>
      <g>
       <use style="stroke:#000000;stroke-width:0.8;" x="54" xlink:href="#m75252de8b5" y="242.118612"/>
      </g>
     </g>
     <g id="text_5">
      <!-- 0.00 -->
      <g transform="translate(24.734375 245.917831)scale(0.1 -0.1)">
       <defs>
        <path d="M 31.78125 66.40625 
Q 24.171875 66.40625 20.328125 58.90625 
Q 16.5 51.421875 16.5 36.375 
Q 16.5 21.390625 20.328125 13.890625 
Q 24.171875 6.390625 31.78125 6.390625 
Q 39.453125 6.390625 43.28125 13.890625 
Q 47.125 21.390625 47.125 36.375 
Q 47.125 51.421875 43.28125 58.90625 
Q 39.453125 66.40625 31.78125 66.40625 
z
M 31.78125 74.21875 
Q 44.046875 74.21875 50.515625 64.515625 
Q 56.984375 54.828125 56.984375 36.375 
Q 56.984375 17.96875 50.515625 8.265625 
Q 44.046875 -1.421875 31.78125 -1.421875 
Q 19.53125 -1.421875 13.0625 8.265625 
Q 6.59375 17.96875 6.59375 36.375 
Q 6.59375 54.828125 13.0625 64.515625 
Q 19.53125 74.21875 31.78125 74.21875 
z
" id="DejaVuSans-48"/>
        <path d="M 10.6875 12.40625 
L 21 12.40625 
L 21 0 
L 10.6875 0 
z
" id="DejaVuSans-46"/>
       </defs>
       <use xlink:href="#DejaVuSans-48"/>
       <use x="63.623047" xlink:href="#DejaVuSans-46"/>
       <use x="95.410156" xlink:href="#DejaVuSans-48"/>
       <use x="159.033203" xlink:href="#DejaVuSans-48"/>
      </g>
     </g>
    </g>
    <g id="ytick_2">
     <g id="line2d_5">
      <g>
       <use style="stroke:#000000;stroke-width:0.8;" x="54" xlink:href="#m75252de8b5" y="217.546872"/>
      </g>
     </g>
     <g id="text_6">
      <!-- 0.01 -->
      <g transform="translate(24.734375 221.346091)scale(0.1 -0.1)">
       <defs>
        <path d="M 12.40625 8.296875 
L 28.515625 8.296875 
L 28.515625 63.921875 
L 10.984375 60.40625 
L 10.984375 69.390625 
L 28.421875 72.90625 
L 38.28125 72.90625 
L 38.28125 8.296875 
L 54.390625 8.296875 
L 54.390625 0 
L 12.40625 0 
z
" id="DejaVuSans-49"/>
       </defs>
       <use xlink:href="#DejaVuSans-48"/>
       <use x="63.623047" xlink:href="#DejaVuSans-46"/>
       <use x="95.410156" xlink:href="#DejaVuSans-48"/>
       <use x="159.033203" xlink:href="#DejaVuSans-49"/>
      </g>
     </g>
    </g>
    <g id="ytick_3">
     <g id="line2d_6">
      <g>
       <use style="stroke:#000000;stroke-width:0.8;" x="54" xlink:href="#m75252de8b5" y="192.975132"/>
      </g>
     </g>
     <g id="text_7">
      <!-- 0.02 -->
      <g transform="translate(24.734375 196.774351)scale(0.1 -0.1)">
       <defs>
        <path d="M 19.1875 8.296875 
L 53.609375 8.296875 
L 53.609375 0 
L 7.328125 0 
L 7.328125 8.296875 
Q 12.9375 14.109375 22.625 23.890625 
Q 32.328125 33.6875 34.8125 36.53125 
Q 39.546875 41.84375 41.421875 45.53125 
Q 43.3125 49.21875 43.3125 52.78125 
Q 43.3125 58.59375 39.234375 62.25 
Q 35.15625 65.921875 28.609375 65.921875 
Q 23.96875 65.921875 18.8125 64.3125 
Q 13.671875 62.703125 7.8125 59.421875 
L 7.8125 69.390625 
Q 13.765625 71.78125 18.9375 73 
Q 24.125 74.21875 28.421875 74.21875 
Q 39.75 74.21875 46.484375 68.546875 
Q 53.21875 62.890625 53.21875 53.421875 
Q 53.21875 48.921875 51.53125 44.890625 
Q 49.859375 40.875 45.40625 35.40625 
Q 44.1875 33.984375 37.640625 27.21875 
Q 31.109375 20.453125 19.1875 8.296875 
z
" id="DejaVuSans-50"/>
       </defs>
       <use xlink:href="#DejaVuSans-48"/>
       <use x="63.623047" xlink:href="#DejaVuSans-46"/>
       <use x="95.410156" xlink:href="#DejaVuSans-48"/>
       <use x="159.033203" xlink:href="#DejaVuSans-50"/>
      </g>
     </g>
    </g>
    <g id="ytick_4">
     <g id="line2d_7">
      <g>
       <use style="stroke:#000000;stroke-width:0.8;" x="54" xlink:href="#m75252de8b5" y="168.403392"/>
      </g>
     </g>
     <g id="text_8">
      <!-- 0.03 -->
      <g transform="translate(24.734375 172.202611)scale(0.1 -0.1)">
       <defs>
        <path d="M 40.578125 39.3125 
Q 47.65625 37.796875 51.625 33 
Q 55.609375 28.21875 55.609375 21.1875 
Q 55.609375 10.40625 48.1875 4.484375 
Q 40.765625 -1.421875 27.09375 -1.421875 
Q 22.515625 -1.421875 17.65625 -0.515625 
Q 12.796875 0.390625 7.625 2.203125 
L 7.625 11.71875 
Q 11.71875 9.328125 16.59375 8.109375 
Q 21.484375 6.890625 26.8125 6.890625 
Q 36.078125 6.890625 40.9375 10.546875 
Q 45.796875 14.203125 45.796875 21.1875 
Q 45.796875 27.640625 41.28125 31.265625 
Q 36.765625 34.90625 28.71875 34.90625 
L 20.21875 34.90625 
L 20.21875 43.015625 
L 29.109375 43.015625 
Q 36.375 43.015625 40.234375 45.921875 
Q 44.09375 48.828125 44.09375 54.296875 
Q 44.09375 59.90625 40.109375 62.90625 
Q 36.140625 65.921875 28.71875 65.921875 
Q 24.65625 65.921875 20.015625 65.03125 
Q 15.375 64.15625 9.8125 62.3125 
L 9.8125 71.09375 
Q 15.4375 72.65625 20.34375 73.4375 
Q 25.25 74.21875 29.59375 74.21875 
Q 40.828125 74.21875 47.359375 69.109375 
Q 53.90625 64.015625 53.90625 55.328125 
Q 53.90625 49.265625 50.4375 45.09375 
Q 46.96875 40.921875 40.578125 39.3125 
z
" id="DejaVuSans-51"/>
       </defs>
       <use xlink:href="#DejaVuSans-48"/>
       <use x="63.623047" xlink:href="#DejaVuSans-46"/>
       <use x="95.410156" xlink:href="#DejaVuSans-48"/>
       <use x="159.033203" xlink:href="#DejaVuSans-51"/>
      </g>
     </g>
    </g>
    <g id="ytick_5">
     <g id="line2d_8">
      <g>
       <use style="stroke:#000000;stroke-width:0.8;" x="54" xlink:href="#m75252de8b5" y="143.831652"/>
      </g>
     </g>
     <g id="text_9">
      <!-- 0.04 -->
      <g transform="translate(24.734375 147.630871)scale(0.1 -0.1)">
       <defs>
        <path d="M 37.796875 64.3125 
L 12.890625 25.390625 
L 37.796875 25.390625 
z
M 35.203125 72.90625 
L 47.609375 72.90625 
L 47.609375 25.390625 
L 58.015625 25.390625 
L 58.015625 17.1875 
L 47.609375 17.1875 
L 47.609375 0 
L 37.796875 0 
L 37.796875 17.1875 
L 4.890625 17.1875 
L 4.890625 26.703125 
z
" id="DejaVuSans-52"/>
       </defs>
       <use xlink:href="#DejaVuSans-48"/>
       <use x="63.623047" xlink:href="#DejaVuSans-46"/>
       <use x="95.410156" xlink:href="#DejaVuSans-48"/>
       <use x="159.033203" xlink:href="#DejaVuSans-52"/>
      </g>
     </g>
    </g>
    <g id="ytick_6">
     <g id="line2d_9">
      <g>
       <use style="stroke:#000000;stroke-width:0.8;" x="54" xlink:href="#m75252de8b5" y="119.259912"/>
      </g>
     </g>
     <g id="text_10">
      <!-- 0.05 -->
      <g transform="translate(24.734375 123.059131)scale(0.1 -0.1)">
       <defs>
        <path d="M 10.796875 72.90625 
L 49.515625 72.90625 
L 49.515625 64.59375 
L 19.828125 64.59375 
L 19.828125 46.734375 
Q 21.96875 47.46875 24.109375 47.828125 
Q 26.265625 48.1875 28.421875 48.1875 
Q 40.625 48.1875 47.75 41.5 
Q 54.890625 34.8125 54.890625 23.390625 
Q 54.890625 11.625 47.5625 5.09375 
Q 40.234375 -1.421875 26.90625 -1.421875 
Q 22.3125 -1.421875 17.546875 -0.640625 
Q 12.796875 0.140625 7.71875 1.703125 
L 7.71875 11.625 
Q 12.109375 9.234375 16.796875 8.0625 
Q 21.484375 6.890625 26.703125 6.890625 
Q 35.15625 6.890625 40.078125 11.328125 
Q 45.015625 15.765625 45.015625 23.390625 
Q 45.015625 31 40.078125 35.4375 
Q 35.15625 39.890625 26.703125 39.890625 
Q 22.75 39.890625 18.8125 39.015625 
Q 14.890625 38.140625 10.796875 36.28125 
z
" id="DejaVuSans-53"/>
       </defs>
       <use xlink:href="#DejaVuSans-48"/>
       <use x="63.623047" xlink:href="#DejaVuSans-46"/>
       <use x="95.410156" xlink:href="#DejaVuSans-48"/>
       <use x="159.033203" xlink:href="#DejaVuSans-53"/>
      </g>
     </g>
    </g>
    <g id="ytick_7">
     <g id="line2d_10">
      <g>
       <use style="stroke:#000000;stroke-width:0.8;" x="54" xlink:href="#m75252de8b5" y="94.688172"/>
      </g>
     </g>
     <g id="text_11">
      <!-- 0.06 -->
      <g transform="translate(24.734375 98.487391)scale(0.1 -0.1)">
       <defs>
        <path d="M 33.015625 40.375 
Q 26.375 40.375 22.484375 35.828125 
Q 18.609375 31.296875 18.609375 23.390625 
Q 18.609375 15.53125 22.484375 10.953125 
Q 26.375 6.390625 33.015625 6.390625 
Q 39.65625 6.390625 43.53125 10.953125 
Q 47.40625 15.53125 47.40625 23.390625 
Q 47.40625 31.296875 43.53125 35.828125 
Q 39.65625 40.375 33.015625 40.375 
z
M 52.59375 71.296875 
L 52.59375 62.3125 
Q 48.875 64.0625 45.09375 64.984375 
Q 41.3125 65.921875 37.59375 65.921875 
Q 27.828125 65.921875 22.671875 59.328125 
Q 17.53125 52.734375 16.796875 39.40625 
Q 19.671875 43.65625 24.015625 45.921875 
Q 28.375 48.1875 33.59375 48.1875 
Q 44.578125 48.1875 50.953125 41.515625 
Q 57.328125 34.859375 57.328125 23.390625 
Q 57.328125 12.15625 50.6875 5.359375 
Q 44.046875 -1.421875 33.015625 -1.421875 
Q 20.359375 -1.421875 13.671875 8.265625 
Q 6.984375 17.96875 6.984375 36.375 
Q 6.984375 53.65625 15.1875 63.9375 
Q 23.390625 74.21875 37.203125 74.21875 
Q 40.921875 74.21875 44.703125 73.484375 
Q 48.484375 72.75 52.59375 71.296875 
z
" id="DejaVuSans-54"/>
       </defs>
       <use xlink:href="#DejaVuSans-48"/>
       <use x="63.623047" xlink:href="#DejaVuSans-46"/>
       <use x="95.410156" xlink:href="#DejaVuSans-48"/>
       <use x="159.033203" xlink:href="#DejaVuSans-54"/>
      </g>
     </g>
    </g>
    <g id="ytick_8">
     <g id="line2d_11">
      <g>
       <use style="stroke:#000000;stroke-width:0.8;" x="54" xlink:href="#m75252de8b5" y="70.116432"/>
      </g>
     </g>
     <g id="text_12">
      <!-- 0.07 -->
      <g transform="translate(24.734375 73.915651)scale(0.1 -0.1)">
       <defs>
        <path d="M 8.203125 72.90625 
L 55.078125 72.90625 
L 55.078125 68.703125 
L 28.609375 0 
L 18.3125 0 
L 43.21875 64.59375 
L 8.203125 64.59375 
z
" id="DejaVuSans-55"/>
       </defs>
       <use xlink:href="#DejaVuSans-48"/>
       <use x="63.623047" xlink:href="#DejaVuSans-46"/>
       <use x="95.410156" xlink:href="#DejaVuSans-48"/>
       <use x="159.033203" xlink:href="#DejaVuSans-55"/>
      </g>
     </g>
    </g>
    <g id="ytick_9">
     <g id="line2d_12">
      <g>
       <use style="stroke:#000000;stroke-width:0.8;" x="54" xlink:href="#m75252de8b5" y="45.544692"/>
      </g>
     </g>
     <g id="text_13">
      <!-- 0.08 -->
      <g transform="translate(24.734375 49.343911)scale(0.1 -0.1)">
       <defs>
        <path d="M 31.78125 34.625 
Q 24.75 34.625 20.71875 30.859375 
Q 16.703125 27.09375 16.703125 20.515625 
Q 16.703125 13.921875 20.71875 10.15625 
Q 24.75 6.390625 31.78125 6.390625 
Q 38.8125 6.390625 42.859375 10.171875 
Q 46.921875 13.96875 46.921875 20.515625 
Q 46.921875 27.09375 42.890625 30.859375 
Q 38.875 34.625 31.78125 34.625 
z
M 21.921875 38.8125 
Q 15.578125 40.375 12.03125 44.71875 
Q 8.5 49.078125 8.5 55.328125 
Q 8.5 64.0625 14.71875 69.140625 
Q 20.953125 74.21875 31.78125 74.21875 
Q 42.671875 74.21875 48.875 69.140625 
Q 55.078125 64.0625 55.078125 55.328125 
Q 55.078125 49.078125 51.53125 44.71875 
Q 48 40.375 41.703125 38.8125 
Q 48.828125 37.15625 52.796875 32.3125 
Q 56.78125 27.484375 56.78125 20.515625 
Q 56.78125 9.90625 50.3125 4.234375 
Q 43.84375 -1.421875 31.78125 -1.421875 
Q 19.734375 -1.421875 13.25 4.234375 
Q 6.78125 9.90625 6.78125 20.515625 
Q 6.78125 27.484375 10.78125 32.3125 
Q 14.796875 37.15625 21.921875 38.8125 
z
M 18.3125 54.390625 
Q 18.3125 48.734375 21.84375 45.5625 
Q 25.390625 42.390625 31.78125 42.390625 
Q 38.140625 42.390625 41.71875 45.5625 
Q 45.3125 48.734375 45.3125 54.390625 
Q 45.3125 60.0625 41.71875 63.234375 
Q 38.140625 66.40625 31.78125 66.40625 
Q 25.390625 66.40625 21.84375 63.234375 
Q 18.3125 60.0625 18.3125 54.390625 
z
" id="DejaVuSans-56"/>
       </defs>
       <use xlink:href="#DejaVuSans-48"/>
       <use x="63.623047" xlink:href="#DejaVuSans-46"/>
       <use x="95.410156" xlink:href="#DejaVuSans-48"/>
       <use x="159.033203" xlink:href="#DejaVuSans-56"/>
      </g>
     </g>
    </g>
    <g id="text_14">
     <!-- value -->
     <g transform="translate(18.654688 156.937813)rotate(-90)scale(0.1 -0.1)">
      <defs>
       <path d="M 8.5 21.578125 
L 8.5 54.6875 
L 17.484375 54.6875 
L 17.484375 21.921875 
Q 17.484375 14.15625 20.5 10.265625 
Q 23.53125 6.390625 29.59375 6.390625 
Q 36.859375 6.390625 41.078125 11.03125 
Q 45.3125 15.671875 45.3125 23.6875 
L 45.3125 54.6875 
L 54.296875 54.6875 
L 54.296875 0 
L 45.3125 0 
L 45.3125 8.40625 
Q 42.046875 3.421875 37.71875 1 
Q 33.40625 -1.421875 27.6875 -1.421875 
Q 18.265625 -1.421875 13.375 4.4375 
Q 8.5 10.296875 8.5 21.578125 
z
M 31.109375 56 
z
" id="DejaVuSans-117"/>
      </defs>
      <use xlink:href="#DejaVuSans-118"/>
      <use x="59.179688" xlink:href="#DejaVuSans-97"/>
      <use x="120.458984" xlink:href="#DejaVuSans-108"/>
      <use x="148.242188" xlink:href="#DejaVuSans-117"/>
      <use x="211.621094" xlink:href="#DejaVuSans-101"/>
     </g>
    </g>
   </g>
   <g id="line2d_13">
    <path clip-path="url(#p38dc3e42d6)" d="M 80.04 242.116364 
L 80.04 165.988153 
" style="fill:none;stroke:#3d3d3d;stroke-linecap:square;stroke-width:1.5;"/>
   </g>
   <g id="line2d_14">
    <path clip-path="url(#p38dc3e42d6)" d="M 80.04 232.416169 
L 80.04 205.614104 
" style="fill:none;stroke:#3d3d3d;stroke-linecap:square;stroke-width:4.5;"/>
   </g>
   <g id="line2d_15">
    <path clip-path="url(#p38dc3e42d6)" d="M 221.4 242.091053 
L 221.4 168.304987 
" style="fill:none;stroke:#3d3d3d;stroke-linecap:square;stroke-width:1.5;"/>
   </g>
   <g id="line2d_16">
    <path clip-path="url(#p38dc3e42d6)" d="M 221.4 232.832647 
L 221.4 206.660646 
" style="fill:none;stroke:#3d3d3d;stroke-linecap:square;stroke-width:4.5;"/>
   </g>
   <g id="line2d_17">
    <path clip-path="url(#p38dc3e42d6)" d="M 362.76 242.068394 
L 362.76 166.269898 
" style="fill:none;stroke:#3d3d3d;stroke-linecap:square;stroke-width:1.5;"/>
   </g>
   <g id="line2d_18">
    <path clip-path="url(#p38dc3e42d6)" d="M 362.76 231.260986 
L 362.76 205.123702 
" style="fill:none;stroke:#3d3d3d;stroke-linecap:square;stroke-width:4.5;"/>
   </g>
   <g id="patch_6">
    <path d="M 54 252 
L 54 34.56 
" style="fill:none;stroke:#000000;stroke-linecap:square;stroke-linejoin:miter;stroke-width:0.8;"/>
   </g>
   <g id="patch_7">
    <path d="M 388.8 252 
L 388.8 34.56 
" style="fill:none;stroke:#000000;stroke-linecap:square;stroke-linejoin:miter;stroke-width:0.8;"/>
   </g>
   <g id="patch_8">
    <path d="M 54 252 
L 388.8 252 
" style="fill:none;stroke:#000000;stroke-linecap:square;stroke-linejoin:miter;stroke-width:0.8;"/>
   </g>
   <g id="patch_9">
    <path d="M 54 34.56 
L 388.8 34.56 
" style="fill:none;stroke:#000000;stroke-linecap:square;stroke-linejoin:miter;stroke-width:0.8;"/>
   </g>
   <g id="PathCollection_1">
    <defs>
     <path d="M 0 1.5 
C 0.397805 1.5 0.77937 1.341951 1.06066 1.06066 
C 1.341951 0.77937 1.5 0.397805 1.5 0 
C 1.5 -0.397805 1.341951 -0.77937 1.06066 -1.06066 
C 0.77937 -1.341951 0.397805 -1.5 0 -1.5 
C -0.397805 -1.5 -0.77937 -1.341951 -1.06066 -1.06066 
C -1.341951 -0.77937 -1.5 -0.397805 -1.5 0 
C -1.5 0.397805 -1.341951 0.77937 -1.06066 1.06066 
C -0.77937 1.341951 -0.397805 1.5 0 1.5 
z
" id="mb9eb0c6a63" style="stroke:#3d3d3d;"/>
    </defs>
    <g clip-path="url(#p38dc3e42d6)">
     <use style="fill:#ffffff;stroke:#3d3d3d;" x="80.04" xlink:href="#mb9eb0c6a63" y="221.911863"/>
    </g>
   </g>
   <g id="PathCollection_2">
    <g clip-path="url(#p38dc3e42d6)">
     <use style="fill:#ffffff;stroke:#3d3d3d;" x="221.4" xlink:href="#mb9eb0c6a63" y="223.04544"/>
    </g>
   </g>
   <g id="PathCollection_3">
    <g clip-path="url(#p38dc3e42d6)">
     <use style="fill:#ffffff;stroke:#3d3d3d;" x="362.76" xlink:href="#mb9eb0c6a63" y="221.528022"/>
    </g>
   </g>
   <g id="legend_1">
    <g id="patch_10">
     <path d="M 326.525 101.2725 
L 381.8 101.2725 
Q 383.8 101.2725 383.8 99.2725 
L 383.8 41.56 
Q 383.8 39.56 381.8 39.56 
L 326.525 39.56 
Q 324.525 39.56 324.525 41.56 
L 324.525 99.2725 
Q 324.525 101.2725 326.525 101.2725 
z
" style="fill:#ffffff;opacity:0.8;stroke:#cccccc;stroke-linejoin:miter;"/>
    </g>
    <g id="text_15">
     <!-- set -->
     <g transform="translate(346.521094 51.158437)scale(0.1 -0.1)">
      <use xlink:href="#DejaVuSans-115"/>
      <use x="52.099609" xlink:href="#DejaVuSans-101"/>
      <use x="113.623047" xlink:href="#DejaVuSans-116"/>
     </g>
    </g>
    <g id="patch_11">
     <path d="M 328.525 65.836562 
L 348.525 65.836562 
L 348.525 58.836562 
L 328.525 58.836562 
z
" style="fill:#3274a1;stroke:#3d3d3d;stroke-linejoin:miter;stroke-width:0.75;"/>
    </g>
    <g id="text_16">
     <!-- train -->
     <g transform="translate(356.525 65.836562)scale(0.1 -0.1)">
      <use xlink:href="#DejaVuSans-116"/>
      <use x="39.208984" xlink:href="#DejaVuSans-114"/>
      <use x="80.322266" xlink:href="#DejaVuSans-97"/>
      <use x="141.601562" xlink:href="#DejaVuSans-105"/>
      <use x="169.384766" xlink:href="#DejaVuSans-110"/>
     </g>
    </g>
    <g id="patch_12">
     <path d="M 328.525 80.514687 
L 348.525 80.514687 
L 348.525 73.514687 
L 328.525 73.514687 
z
" style="fill:#e1812c;stroke:#3d3d3d;stroke-linejoin:miter;stroke-width:0.75;"/>
    </g>
    <g id="text_17">
     <!-- val -->
     <g transform="translate(356.525 80.514687)scale(0.1 -0.1)">
      <use xlink:href="#DejaVuSans-118"/>
      <use x="59.179688" xlink:href="#DejaVuSans-97"/>
      <use x="120.458984" xlink:href="#DejaVuSans-108"/>
     </g>
    </g>
    <g id="patch_13">
     <path d="M 328.525 95.192813 
L 348.525 95.192813 
L 348.525 88.192813 
L 328.525 88.192813 
z
" style="fill:#3a923a;stroke:#3d3d3d;stroke-linejoin:miter;stroke-width:0.75;"/>
    </g>
    <g id="text_18">
     <!-- test -->
     <g transform="translate(356.525 95.192813)scale(0.1 -0.1)">
      <use xlink:href="#DejaVuSans-116"/>
      <use x="39.208984" xlink:href="#DejaVuSans-101"/>
      <use x="100.732422" xlink:href="#DejaVuSans-115"/>
      <use x="152.832031" xlink:href="#DejaVuSans-116"/>
     </g>
    </g>
   </g>
  </g>
 </g>
 <defs>
  <clipPath id="p38dc3e42d6">
   <rect height="217.44" width="334.8" x="54" y="34.56"/>
  </clipPath>
 </defs>
</svg>
