<?xml version="1.0" encoding="utf-8" standalone="no"?>
<!DOCTYPE svg PUBLIC "-//W3C//DTD SVG 1.1//EN"
  "http://www.w3.org/Graphics/SVG/1.1/DTD/svg11.dtd">
<!-- Created with matplotlib (https://matplotlib.org/) -->
<svg height="288pt" version="1.1" viewBox="0 0 432 288" width="432pt" xmlns="http://www.w3.org/2000/svg" xmlns:xlink="http://www.w3.org/1999/xlink">
 <metadata>
  <rdf:RDF xmlns:cc="http://creativecommons.org/ns#" xmlns:dc="http://purl.org/dc/elements/1.1/" xmlns:rdf="http://www.w3.org/1999/02/22-rdf-syntax-ns#">
   <cc:Work>
    <dc:type rdf:resource="http://purl.org/dc/dcmitype/StillImage"/>
    <dc:date>2022-05-27T17:42:33.942070</dc:date>
    <dc:format>image/svg+xml</dc:format>
    <dc:creator>
     <cc:Agent>
      <dc:title>Matplotlib v3.3.4, https://matplotlib.org/</dc:title>
     </cc:Agent>
    </dc:creator>
   </cc:Work>
  </rdf:RDF>
 </metadata>
 <defs>
  <style type="text/css">*{stroke-linecap:butt;stroke-linejoin:round;}</style>
 </defs>
 <g id="figure_1">
  <g id="patch_1">
   <path d="M 0 288 
L 432 288 
L 432 0 
L 0 0 
z
" style="fill:#ffffff;"/>
  </g>
  <g id="axes_1">
   <g id="patch_2">
    <path d="M 54 252 
L 388.8 252 
L 388.8 34.56 
L 54 34.56 
z
" style="fill:#ffffff;"/>
   </g>
   <g id="PolyCollection_1">
    <defs>
     <path d="M 90.008517 -45.883636 
L 70.071483 -45.883636 
L 68.477831 -47.849733 
L 67.112641 -49.81583 
L 66.072609 -51.781926 
L 65.416667 -53.748023 
L 65.16 -55.714119 
L 65.276926 -57.680216 
L 65.710739 -59.646313 
L 66.387047 -61.612409 
L 67.226976 -63.578506 
L 68.157516 -65.544602 
L 69.117797 -67.510699 
L 70.061428 -69.476796 
L 70.955917 -71.442892 
L 71.780497 -73.408989 
L 72.523467 -75.375086 
L 73.179821 -77.341182 
L 73.749465 -79.307279 
L 74.236015 -81.273375 
L 74.646007 -83.239472 
L 74.988237 -85.205569 
L 75.273065 -87.171665 
L 75.511581 -89.137762 
L 75.71467 -91.103858 
L 75.892127 -93.069955 
L 76.05197 -95.036052 
L 76.200091 -97.002148 
L 76.340298 -98.968245 
L 76.474686 -100.934341 
L 76.604216 -102.900438 
L 76.72933 -104.866535 
L 76.850433 -106.832631 
L 76.968124 -108.798728 
L 77.083166 -110.764825 
L 77.196234 -112.730921 
L 77.307588 -114.697018 
L 77.416809 -116.663114 
L 77.522723 -118.629211 
L 77.623542 -120.595308 
L 77.717187 -122.561404 
L 77.801691 -124.527501 
L 77.875569 -126.493597 
L 77.938082 -128.459694 
L 77.989377 -130.425791 
L 78.030511 -132.391887 
L 78.063369 -134.357984 
L 78.090503 -136.32408 
L 78.114863 -138.290177 
L 78.13945 -140.256274 
L 78.166926 -142.22237 
L 78.199238 -144.188467 
L 78.237357 -146.154564 
L 78.281193 -148.12066 
L 78.329715 -150.086757 
L 78.381265 -152.052853 
L 78.433987 -154.01895 
L 78.486256 -155.985047 
L 78.536994 -157.951143 
L 78.585783 -159.91724 
L 78.632757 -161.883336 
L 78.67834 -163.849433 
L 78.722951 -165.81553 
L 78.766789 -167.781626 
L 78.80978 -169.747723 
L 78.851661 -171.713819 
L 78.892164 -173.679916 
L 78.931171 -175.646013 
L 78.968803 -177.612109 
L 79.005386 -179.578206 
L 79.041328 -181.544303 
L 79.076965 -183.510399 
L 79.112423 -185.476496 
L 79.147553 -187.442592 
L 79.181938 -189.408689 
L 79.214968 -191.374786 
L 79.245937 -193.340882 
L 79.274154 -195.306979 
L 79.299053 -197.273075 
L 79.320313 -199.239172 
L 79.337986 -201.205269 
L 79.352595 -203.171365 
L 79.365166 -205.137462 
L 79.377147 -207.103558 
L 79.390215 -209.069655 
L 79.406007 -211.035752 
L 79.425849 -213.001848 
L 79.45056 -214.967945 
L 79.480373 -216.934041 
L 79.514969 -218.900138 
L 79.553607 -220.866235 
L 79.595274 -222.832331 
L 79.638847 -224.798428 
L 79.683198 -226.764525 
L 79.727272 -228.730621 
L 79.770121 -230.696718 
L 79.810921 -232.662814 
L 79.848983 -234.628911 
L 79.883757 -236.595008 
L 79.914847 -238.561104 
L 79.942013 -240.527201 
L 80.137987 -240.527201 
L 80.137987 -240.527201 
L 80.165153 -238.561104 
L 80.196243 -236.595008 
L 80.231017 -234.628911 
L 80.269079 -232.662814 
L 80.309879 -230.696718 
L 80.352728 -228.730621 
L 80.396802 -226.764525 
L 80.441153 -224.798428 
L 80.484726 -222.832331 
L 80.526393 -220.866235 
L 80.565031 -218.900138 
L 80.599627 -216.934041 
L 80.62944 -214.967945 
L 80.654151 -213.001848 
L 80.673993 -211.035752 
L 80.689785 -209.069655 
L 80.702853 -207.103558 
L 80.714834 -205.137462 
L 80.727405 -203.171365 
L 80.742014 -201.205269 
L 80.759687 -199.239172 
L 80.780947 -197.273075 
L 80.805846 -195.306979 
L 80.834063 -193.340882 
L 80.865032 -191.374786 
L 80.898062 -189.408689 
L 80.932447 -187.442592 
L 80.967577 -185.476496 
L 81.003035 -183.510399 
L 81.038672 -181.544303 
L 81.074614 -179.578206 
L 81.111197 -177.612109 
L 81.148829 -175.646013 
L 81.187836 -173.679916 
L 81.228339 -171.713819 
L 81.27022 -169.747723 
L 81.313211 -167.781626 
L 81.357049 -165.81553 
L 81.40166 -163.849433 
L 81.447243 -161.883336 
L 81.494217 -159.91724 
L 81.543006 -157.951143 
L 81.593744 -155.985047 
L 81.646013 -154.01895 
L 81.698735 -152.052853 
L 81.750285 -150.086757 
L 81.798807 -148.12066 
L 81.842643 -146.154564 
L 81.880762 -144.188467 
L 81.913074 -142.22237 
L 81.94055 -140.256274 
L 81.965137 -138.290177 
L 81.989497 -136.32408 
L 82.016631 -134.357984 
L 82.049489 -132.391887 
L 82.090623 -130.425791 
L 82.141918 -128.459694 
L 82.204431 -126.493597 
L 82.278309 -124.527501 
L 82.362813 -122.561404 
L 82.456458 -120.595308 
L 82.557277 -118.629211 
L 82.663191 -116.663114 
L 82.772412 -114.697018 
L 82.883766 -112.730921 
L 82.996834 -110.764825 
L 83.111876 -108.798728 
L 83.229567 -106.832631 
L 83.35067 -104.866535 
L 83.475784 -102.900438 
L 83.605314 -100.934341 
L 83.739702 -98.968245 
L 83.879909 -97.002148 
L 84.02803 -95.036052 
L 84.187873 -93.069955 
L 84.36533 -91.103858 
L 84.568419 -89.137762 
L 84.806935 -87.171665 
L 85.091763 -85.205569 
L 85.433993 -83.239472 
L 85.843985 -81.273375 
L 86.330535 -79.307279 
L 86.900179 -77.341182 
L 87.556533 -75.375086 
L 88.299503 -73.408989 
L 89.124083 -71.442892 
L 90.018572 -69.476796 
L 90.962203 -67.510699 
L 91.922484 -65.544602 
L 92.853024 -63.578506 
L 93.692953 -61.612409 
L 94.369261 -59.646313 
L 94.803074 -57.680216 
L 94.92 -55.714119 
L 94.663333 -53.748023 
L 94.007391 -51.781926 
L 92.967359 -49.81583 
L 91.602169 -47.849733 
L 90.008517 -45.883636 
z
" id="mec079398de" style="stroke:#3d3d3d;stroke-width:1.5;"/>
    </defs>
    <g clip-path="url(#p58e9653097)">
     <use style="fill:#3274a1;stroke:#3d3d3d;stroke-width:1.5;" x="0" xlink:href="#mec079398de" y="288"/>
    </g>
   </g>
   <g id="PolyCollection_2">
    <defs>
     <path d="M 233.220801 -45.916261 
L 209.579199 -45.916261 
L 208.776981 -47.912626 
L 208.074269 -49.908991 
L 207.488862 -51.905355 
L 207.034414 -53.90172 
L 206.719799 -55.898085 
L 206.548776 -57.894449 
L 206.52 -59.890814 
L 206.627337 -61.887179 
L 206.860461 -63.883543 
L 207.20566 -65.879908 
L 207.646774 -67.876273 
L 208.16618 -69.872637 
L 208.745748 -71.869002 
L 209.367703 -73.865367 
L 210.015338 -75.861731 
L 210.673549 -77.858096 
L 211.329195 -79.854461 
L 211.971271 -81.850825 
L 212.590939 -83.84719 
L 213.181429 -85.843555 
L 213.737861 -87.839919 
L 214.257015 -89.836284 
L 214.73708 -91.832649 
L 215.177411 -93.829013 
L 215.578302 -95.825378 
L 215.940795 -97.821743 
L 216.266509 -99.818107 
L 216.557512 -101.814472 
L 216.816205 -103.810837 
L 217.045227 -105.807201 
L 217.247369 -107.803566 
L 217.425493 -109.799931 
L 217.582446 -111.796295 
L 217.720988 -113.79266 
L 217.843704 -115.789025 
L 217.952939 -117.785389 
L 218.050727 -119.781754 
L 218.138743 -121.778119 
L 218.218275 -123.774483 
L 218.290211 -125.770848 
L 218.355061 -127.767213 
L 218.412994 -129.763577 
L 218.463906 -131.759942 
L 218.5075 -133.756307 
L 218.543384 -135.752671 
L 218.571163 -137.749036 
L 218.590538 -139.745401 
L 218.601379 -141.741765 
L 218.603785 -143.73813 
L 218.598116 -145.734495 
L 218.584986 -147.730859 
L 218.565242 -149.727224 
L 218.53991 -151.723589 
L 218.510117 -153.719953 
L 218.477017 -155.716318 
L 218.441706 -157.712683 
L 218.405146 -159.709048 
L 218.368113 -161.705412 
L 218.331158 -163.701777 
L 218.294596 -165.698142 
L 218.258511 -167.694506 
L 218.222786 -169.690871 
L 218.187135 -171.687236 
L 218.151145 -173.6836 
L 218.114311 -175.679965 
L 218.076071 -177.67633 
L 218.035821 -179.672694 
L 217.992937 -181.669059 
L 217.946777 -183.665424 
L 217.896699 -185.661788 
L 217.842077 -187.658153 
L 217.782335 -189.654518 
L 217.716995 -191.650882 
L 217.645748 -193.647247 
L 217.568527 -195.643612 
L 217.485601 -197.639976 
L 217.397657 -199.636341 
L 217.305871 -201.632706 
L 217.211956 -203.62907 
L 217.11818 -205.625435 
L 217.027333 -207.6218 
L 216.942661 -209.618164 
L 216.867755 -211.614529 
L 216.806398 -213.610894 
L 216.762392 -215.607258 
L 216.739366 -217.603623 
L 216.740577 -219.599988 
L 216.76873 -221.596352 
L 216.825811 -223.592717 
L 216.912969 -225.589082 
L 217.030425 -227.585446 
L 217.177436 -229.581811 
L 217.352309 -231.578176 
L 217.552462 -233.57454 
L 217.774529 -235.570905 
L 218.014498 -237.56727 
L 218.267889 -239.563634 
L 218.529935 -241.559999 
L 218.795788 -243.556364 
L 224.004212 -243.556364 
L 224.004212 -243.556364 
L 224.270065 -241.559999 
L 224.532111 -239.563634 
L 224.785502 -237.56727 
L 225.025471 -235.570905 
L 225.247538 -233.57454 
L 225.447691 -231.578176 
L 225.622564 -229.581811 
L 225.769575 -227.585446 
L 225.887031 -225.589082 
L 225.974189 -223.592717 
L 226.03127 -221.596352 
L 226.059423 -219.599988 
L 226.060634 -217.603623 
L 226.037608 -215.607258 
L 225.993602 -213.610894 
L 225.932245 -211.614529 
L 225.857339 -209.618164 
L 225.772667 -207.6218 
L 225.68182 -205.625435 
L 225.588044 -203.62907 
L 225.494129 -201.632706 
L 225.402343 -199.636341 
L 225.314399 -197.639976 
L 225.231473 -195.643612 
L 225.154252 -193.647247 
L 225.083005 -191.650882 
L 225.017665 -189.654518 
L 224.957923 -187.658153 
L 224.903301 -185.661788 
L 224.853223 -183.665424 
L 224.807063 -181.669059 
L 224.764179 -179.672694 
L 224.723929 -177.67633 
L 224.685689 -175.679965 
L 224.648855 -173.6836 
L 224.612865 -171.687236 
L 224.577214 -169.690871 
L 224.541489 -167.694506 
L 224.505404 -165.698142 
L 224.468842 -163.701777 
L 224.431887 -161.705412 
L 224.394854 -159.709048 
L 224.358294 -157.712683 
L 224.322983 -155.716318 
L 224.289883 -153.719953 
L 224.26009 -151.723589 
L 224.234758 -149.727224 
L 224.215014 -147.730859 
L 224.201884 -145.734495 
L 224.196215 -143.73813 
L 224.198621 -141.741765 
L 224.209462 -139.745401 
L 224.228837 -137.749036 
L 224.256616 -135.752671 
L 224.2925 -133.756307 
L 224.336094 -131.759942 
L 224.387006 -129.763577 
L 224.444939 -127.767213 
L 224.509789 -125.770848 
L 224.581725 -123.774483 
L 224.661257 -121.778119 
L 224.749273 -119.781754 
L 224.847061 -117.785389 
L 224.956296 -115.789025 
L 225.079012 -113.79266 
L 225.217554 -111.796295 
L 225.374507 -109.799931 
L 225.552631 -107.803566 
L 225.754773 -105.807201 
L 225.983795 -103.810837 
L 226.242488 -101.814472 
L 226.533491 -99.818107 
L 226.859205 -97.821743 
L 227.221698 -95.825378 
L 227.622589 -93.829013 
L 228.06292 -91.832649 
L 228.542985 -89.836284 
L 229.062139 -87.839919 
L 229.618571 -85.843555 
L 230.209061 -83.84719 
L 230.828729 -81.850825 
L 231.470805 -79.854461 
L 232.126451 -77.858096 
L 232.784662 -75.861731 
L 233.432297 -73.865367 
L 234.054252 -71.869002 
L 234.63382 -69.872637 
L 235.153226 -67.876273 
L 235.59434 -65.879908 
L 235.939539 -63.883543 
L 236.172663 -61.887179 
L 236.28 -59.890814 
L 236.251224 -57.894449 
L 236.080201 -55.898085 
L 235.765586 -53.90172 
L 235.311138 -51.905355 
L 234.725731 -49.908991 
L 234.023019 -47.912626 
L 233.220801 -45.916261 
z
" id="m22188a120e" style="stroke:#3d3d3d;stroke-width:1.5;"/>
    </defs>
    <g clip-path="url(#p58e9653097)">
     <use style="fill:#e1812c;stroke:#3d3d3d;stroke-width:1.5;" x="0" xlink:href="#m22188a120e" y="288"/>
    </g>
   </g>
   <g id="PolyCollection_3">
    <defs>
     <path d="M 374.383586 -45.910875 
L 351.136414 -45.910875 
L 350.289515 -47.904467 
L 349.543333 -49.898058 
L 348.918561 -51.891649 
L 348.431556 -53.885241 
L 348.093477 -55.878832 
L 347.909763 -57.872424 
L 347.88 -59.866015 
L 347.998154 -61.859607 
L 348.253158 -63.853198 
L 348.629773 -65.84679 
L 349.109646 -67.840381 
L 349.672468 -69.833973 
L 350.29714 -71.827564 
L 350.962858 -73.821156 
L 351.650048 -75.814747 
L 352.341104 -77.808338 
L 353.020901 -79.80193 
L 353.677095 -81.795521 
L 354.300197 -83.789113 
L 354.883486 -85.782704 
L 355.422774 -87.776296 
L 355.916085 -89.769887 
L 356.363277 -91.763479 
L 356.765653 -93.75707 
L 357.125589 -95.750662 
L 357.446193 -97.744253 
L 357.731022 -99.737844 
L 357.983843 -101.731436 
L 358.208455 -103.725027 
L 358.408549 -105.718619 
L 358.587606 -107.71221 
L 358.748826 -109.705802 
L 358.895077 -111.699393 
L 359.028849 -113.692985 
L 359.152235 -115.686576 
L 359.266909 -117.680168 
L 359.37412 -119.673759 
L 359.4747 -121.667351 
L 359.569092 -123.660942 
L 359.657383 -125.654533 
L 359.739375 -127.648125 
L 359.814652 -129.641716 
L 359.882674 -131.635308 
L 359.942867 -133.628899 
L 359.994716 -135.622491 
L 360.037848 -137.616082 
L 360.072097 -139.609674 
L 360.097542 -141.603265 
L 360.114523 -143.596857 
L 360.123628 -145.590448 
L 360.125649 -147.584039 
L 360.121526 -149.577631 
L 360.112268 -151.571222 
L 360.098876 -153.564814 
L 360.082269 -155.558405 
L 360.063218 -157.551997 
L 360.0423 -159.545588 
L 360.019874 -161.53918 
L 359.996079 -163.532771 
L 359.970844 -165.526363 
L 359.943922 -167.519954 
L 359.91493 -169.513546 
L 359.883391 -171.507137 
L 359.848777 -173.500728 
L 359.810547 -175.49432 
L 359.768177 -177.487911 
L 359.721187 -179.481503 
L 359.669165 -181.475094 
L 359.611783 -183.468686 
L 359.548831 -185.462277 
L 359.48024 -187.455869 
L 359.406121 -189.44946 
L 359.326806 -191.443052 
L 359.242897 -193.436643 
L 359.155298 -195.430234 
L 359.065254 -197.423826 
L 358.974365 -199.417417 
L 358.884581 -201.411009 
L 358.798179 -203.4046 
L 358.717706 -205.398192 
L 358.64591 -207.391783 
L 358.585643 -209.385375 
L 358.539753 -211.378966 
L 358.510974 -213.372558 
L 358.50181 -215.366149 
L 358.514423 -217.359741 
L 358.550539 -219.353332 
L 358.611361 -221.346923 
L 358.697501 -223.340515 
L 358.808934 -225.334106 
L 358.944968 -227.327698 
L 359.10424 -229.321289 
L 359.28474 -231.314881 
L 359.48385 -233.308472 
L 359.698424 -235.302064 
L 359.924881 -237.295655 
L 360.159332 -239.289247 
L 360.39772 -241.282838 
L 360.635973 -243.276429 
L 364.884027 -243.276429 
L 364.884027 -243.276429 
L 365.12228 -241.282838 
L 365.360668 -239.289247 
L 365.595119 -237.295655 
L 365.821576 -235.302064 
L 366.03615 -233.308472 
L 366.23526 -231.314881 
L 366.41576 -229.321289 
L 366.575032 -227.327698 
L 366.711066 -225.334106 
L 366.822499 -223.340515 
L 366.908639 -221.346923 
L 366.969461 -219.353332 
L 367.005577 -217.359741 
L 367.01819 -215.366149 
L 367.009026 -213.372558 
L 366.980247 -211.378966 
L 366.934357 -209.385375 
L 366.87409 -207.391783 
L 366.802294 -205.398192 
L 366.721821 -203.4046 
L 366.635419 -201.411009 
L 366.545635 -199.417417 
L 366.454746 -197.423826 
L 366.364702 -195.430234 
L 366.277103 -193.436643 
L 366.193194 -191.443052 
L 366.113879 -189.44946 
L 366.03976 -187.455869 
L 365.971169 -185.462277 
L 365.908217 -183.468686 
L 365.850835 -181.475094 
L 365.798813 -179.481503 
L 365.751823 -177.487911 
L 365.709453 -175.49432 
L 365.671223 -173.500728 
L 365.636609 -171.507137 
L 365.60507 -169.513546 
L 365.576078 -167.519954 
L 365.549156 -165.526363 
L 365.523921 -163.532771 
L 365.500126 -161.53918 
L 365.4777 -159.545588 
L 365.456782 -157.551997 
L 365.437731 -155.558405 
L 365.421124 -153.564814 
L 365.407732 -151.571222 
L 365.398474 -149.577631 
L 365.394351 -147.584039 
L 365.396372 -145.590448 
L 365.405477 -143.596857 
L 365.422458 -141.603265 
L 365.447903 -139.609674 
L 365.482152 -137.616082 
L 365.525284 -135.622491 
L 365.577133 -133.628899 
L 365.637326 -131.635308 
L 365.705348 -129.641716 
L 365.780625 -127.648125 
L 365.862617 -125.654533 
L 365.950908 -123.660942 
L 366.0453 -121.667351 
L 366.14588 -119.673759 
L 366.253091 -117.680168 
L 366.367765 -115.686576 
L 366.491151 -113.692985 
L 366.624923 -111.699393 
L 366.771174 -109.705802 
L 366.932394 -107.71221 
L 367.111451 -105.718619 
L 367.311545 -103.725027 
L 367.536157 -101.731436 
L 367.788978 -99.737844 
L 368.073807 -97.744253 
L 368.394411 -95.750662 
L 368.754347 -93.75707 
L 369.156723 -91.763479 
L 369.603915 -89.769887 
L 370.097226 -87.776296 
L 370.636514 -85.782704 
L 371.219803 -83.789113 
L 371.842905 -81.795521 
L 372.499099 -79.80193 
L 373.178896 -77.808338 
L 373.869952 -75.814747 
L 374.557142 -73.821156 
L 375.22286 -71.827564 
L 375.847532 -69.833973 
L 376.410354 -67.840381 
L 376.890227 -65.84679 
L 377.266842 -63.853198 
L 377.521846 -61.859607 
L 377.64 -59.866015 
L 377.610237 -57.872424 
L 377.426523 -55.878832 
L 377.088444 -53.885241 
L 376.601439 -51.891649 
L 375.976667 -49.898058 
L 375.230485 -47.904467 
L 374.383586 -45.910875 
z
" id="m3e6d67b3e3" style="stroke:#3d3d3d;stroke-width:1.5;"/>
    </defs>
    <g clip-path="url(#p58e9653097)">
     <use style="fill:#3a923a;stroke:#3d3d3d;stroke-width:1.5;" x="0" xlink:href="#m3e6d67b3e3" y="288"/>
    </g>
   </g>
   <g id="patch_3">
    <path clip-path="url(#p58e9653097)" d="M 109.8 242.134145 
L 109.8 242.134145 
L 109.8 242.134145 
L 109.8 242.134145 
z
" style="fill:#3274a1;stroke:#3d3d3d;stroke-linejoin:miter;stroke-width:0.75;"/>
   </g>
   <g id="patch_4">
    <path clip-path="url(#p58e9653097)" d="M 109.8 242.134145 
L 109.8 242.134145 
L 109.8 242.134145 
L 109.8 242.134145 
z
" style="fill:#e1812c;stroke:#3d3d3d;stroke-linejoin:miter;stroke-width:0.75;"/>
   </g>
   <g id="patch_5">
    <path clip-path="url(#p58e9653097)" d="M 109.8 242.134145 
L 109.8 242.134145 
L 109.8 242.134145 
L 109.8 242.134145 
z
" style="fill:#3a923a;stroke:#3d3d3d;stroke-linejoin:miter;stroke-width:0.75;"/>
   </g>
   <g id="matplotlib.axis_1">
    <g id="xtick_1">
     <g id="line2d_1">
      <defs>
       <path d="M 0 0 
L 0 3.5 
" id="mc3492dd438" style="stroke:#000000;stroke-width:0.8;"/>
      </defs>
      <g>
       <use style="stroke:#000000;stroke-width:0.8;" x="109.8" xlink:href="#mc3492dd438" y="252"/>
      </g>
     </g>
     <g id="text_1">
      <!-- train -->
      <g transform="translate(98.1625 266.598437)scale(0.1 -0.1)">
       <defs>
        <path d="M 18.3125 70.21875 
L 18.3125 54.6875 
L 36.8125 54.6875 
L 36.8125 47.703125 
L 18.3125 47.703125 
L 18.3125 18.015625 
Q 18.3125 11.328125 20.140625 9.421875 
Q 21.96875 7.515625 27.59375 7.515625 
L 36.8125 7.515625 
L 36.8125 0 
L 27.59375 0 
Q 17.1875 0 13.234375 3.875 
Q 9.28125 7.765625 9.28125 18.015625 
L 9.28125 47.703125 
L 2.6875 47.703125 
L 2.6875 54.6875 
L 9.28125 54.6875 
L 9.28125 70.21875 
z
" id="DejaVuSans-116"/>
        <path d="M 41.109375 46.296875 
Q 39.59375 47.171875 37.8125 47.578125 
Q 36.03125 48 33.890625 48 
Q 26.265625 48 22.1875 43.046875 
Q 18.109375 38.09375 18.109375 28.8125 
L 18.109375 0 
L 9.078125 0 
L 9.078125 54.6875 
L 18.109375 54.6875 
L 18.109375 46.1875 
Q 20.953125 51.171875 25.484375 53.578125 
Q 30.03125 56 36.53125 56 
Q 37.453125 56 38.578125 55.875 
Q 39.703125 55.765625 41.0625 55.515625 
z
" id="DejaVuSans-114"/>
        <path d="M 34.28125 27.484375 
Q 23.390625 27.484375 19.1875 25 
Q 14.984375 22.515625 14.984375 16.5 
Q 14.984375 11.71875 18.140625 8.90625 
Q 21.296875 6.109375 26.703125 6.109375 
Q 34.1875 6.109375 38.703125 11.40625 
Q 43.21875 16.703125 43.21875 25.484375 
L 43.21875 27.484375 
z
M 52.203125 31.203125 
L 52.203125 0 
L 43.21875 0 
L 43.21875 8.296875 
Q 40.140625 3.328125 35.546875 0.953125 
Q 30.953125 -1.421875 24.3125 -1.421875 
Q 15.921875 -1.421875 10.953125 3.296875 
Q 6 8.015625 6 15.921875 
Q 6 25.140625 12.171875 29.828125 
Q 18.359375 34.515625 30.609375 34.515625 
L 43.21875 34.515625 
L 43.21875 35.40625 
Q 43.21875 41.609375 39.140625 45 
Q 35.0625 48.390625 27.6875 48.390625 
Q 23 48.390625 18.546875 47.265625 
Q 14.109375 46.140625 10.015625 43.890625 
L 10.015625 52.203125 
Q 14.9375 54.109375 19.578125 55.046875 
Q 24.21875 56 28.609375 56 
Q 40.484375 56 46.34375 49.84375 
Q 52.203125 43.703125 52.203125 31.203125 
z
" id="DejaVuSans-97"/>
        <path d="M 9.421875 54.6875 
L 18.40625 54.6875 
L 18.40625 0 
L 9.421875 0 
z
M 9.421875 75.984375 
L 18.40625 75.984375 
L 18.40625 64.59375 
L 9.421875 64.59375 
z
" id="DejaVuSans-105"/>
        <path d="M 54.890625 33.015625 
L 54.890625 0 
L 45.90625 0 
L 45.90625 32.71875 
Q 45.90625 40.484375 42.875 44.328125 
Q 39.84375 48.1875 33.796875 48.1875 
Q 26.515625 48.1875 22.3125 43.546875 
Q 18.109375 38.921875 18.109375 30.90625 
L 18.109375 0 
L 9.078125 0 
L 9.078125 54.6875 
L 18.109375 54.6875 
L 18.109375 46.1875 
Q 21.34375 51.125 25.703125 53.5625 
Q 30.078125 56 35.796875 56 
Q 45.21875 56 50.046875 50.171875 
Q 54.890625 44.34375 54.890625 33.015625 
z
" id="DejaVuSans-110"/>
       </defs>
       <use xlink:href="#DejaVuSans-116"/>
       <use x="39.208984" xlink:href="#DejaVuSans-114"/>
       <use x="80.322266" xlink:href="#DejaVuSans-97"/>
       <use x="141.601562" xlink:href="#DejaVuSans-105"/>
       <use x="169.384766" xlink:href="#DejaVuSans-110"/>
      </g>
     </g>
    </g>
    <g id="xtick_2">
     <g id="line2d_2">
      <g>
       <use style="stroke:#000000;stroke-width:0.8;" x="221.4" xlink:href="#mc3492dd438" y="252"/>
      </g>
     </g>
     <g id="text_2">
      <!-- val -->
      <g transform="translate(213.9875 266.598437)scale(0.1 -0.1)">
       <defs>
        <path d="M 2.984375 54.6875 
L 12.5 54.6875 
L 29.59375 8.796875 
L 46.6875 54.6875 
L 56.203125 54.6875 
L 35.6875 0 
L 23.484375 0 
z
" id="DejaVuSans-118"/>
        <path d="M 9.421875 75.984375 
L 18.40625 75.984375 
L 18.40625 0 
L 9.421875 0 
z
" id="DejaVuSans-108"/>
       </defs>
       <use xlink:href="#DejaVuSans-118"/>
       <use x="59.179688" xlink:href="#DejaVuSans-97"/>
       <use x="120.458984" xlink:href="#DejaVuSans-108"/>
      </g>
     </g>
    </g>
    <g id="xtick_3">
     <g id="line2d_3">
      <g>
       <use style="stroke:#000000;stroke-width:0.8;" x="333" xlink:href="#mc3492dd438" y="252"/>
      </g>
     </g>
     <g id="text_3">
      <!-- test -->
      <g transform="translate(323.398438 266.598437)scale(0.1 -0.1)">
       <defs>
        <path d="M 56.203125 29.59375 
L 56.203125 25.203125 
L 14.890625 25.203125 
Q 15.484375 15.921875 20.484375 11.0625 
Q 25.484375 6.203125 34.421875 6.203125 
Q 39.59375 6.203125 44.453125 7.46875 
Q 49.3125 8.734375 54.109375 11.28125 
L 54.109375 2.78125 
Q 49.265625 0.734375 44.1875 -0.34375 
Q 39.109375 -1.421875 33.890625 -1.421875 
Q 20.796875 -1.421875 13.15625 6.1875 
Q 5.515625 13.8125 5.515625 26.8125 
Q 5.515625 40.234375 12.765625 48.109375 
Q 20.015625 56 32.328125 56 
Q 43.359375 56 49.78125 48.890625 
Q 56.203125 41.796875 56.203125 29.59375 
z
M 47.21875 32.234375 
Q 47.125 39.59375 43.09375 43.984375 
Q 39.0625 48.390625 32.421875 48.390625 
Q 24.90625 48.390625 20.390625 44.140625 
Q 15.875 39.890625 15.1875 32.171875 
z
" id="DejaVuSans-101"/>
        <path d="M 44.28125 53.078125 
L 44.28125 44.578125 
Q 40.484375 46.53125 36.375 47.5 
Q 32.28125 48.484375 27.875 48.484375 
Q 21.1875 48.484375 17.84375 46.4375 
Q 14.5 44.390625 14.5 40.28125 
Q 14.5 37.15625 16.890625 35.375 
Q 19.28125 33.59375 26.515625 31.984375 
L 29.59375 31.296875 
Q 39.15625 29.25 43.1875 25.515625 
Q 47.21875 21.78125 47.21875 15.09375 
Q 47.21875 7.46875 41.1875 3.015625 
Q 35.15625 -1.421875 24.609375 -1.421875 
Q 20.21875 -1.421875 15.453125 -0.5625 
Q 10.6875 0.296875 5.421875 2 
L 5.421875 11.28125 
Q 10.40625 8.6875 15.234375 7.390625 
Q 20.0625 6.109375 24.8125 6.109375 
Q 31.15625 6.109375 34.5625 8.28125 
Q 37.984375 10.453125 37.984375 14.40625 
Q 37.984375 18.0625 35.515625 20.015625 
Q 33.0625 21.96875 24.703125 23.78125 
L 21.578125 24.515625 
Q 13.234375 26.265625 9.515625 29.90625 
Q 5.8125 33.546875 5.8125 39.890625 
Q 5.8125 47.609375 11.28125 51.796875 
Q 16.75 56 26.8125 56 
Q 31.78125 56 36.171875 55.265625 
Q 40.578125 54.546875 44.28125 53.078125 
z
" id="DejaVuSans-115"/>
       </defs>
       <use xlink:href="#DejaVuSans-116"/>
       <use x="39.208984" xlink:href="#DejaVuSans-101"/>
       <use x="100.732422" xlink:href="#DejaVuSans-115"/>
       <use x="152.832031" xlink:href="#DejaVuSans-116"/>
      </g>
     </g>
    </g>
    <g id="text_4">
     <!-- set -->
     <g transform="translate(213.758594 280.276563)scale(0.1 -0.1)">
      <use xlink:href="#DejaVuSans-115"/>
      <use x="52.099609" xlink:href="#DejaVuSans-101"/>
      <use x="113.623047" xlink:href="#DejaVuSans-116"/>
     </g>
    </g>
   </g>
   <g id="matplotlib.axis_2">
    <g id="ytick_1">
     <g id="line2d_4">
      <defs>
       <path d="M 0 0 
L -3.5 0 
" id="mc51ee3f4d5" style="stroke:#000000;stroke-width:0.8;"/>
      </defs>
      <g>
       <use style="stroke:#000000;stroke-width:0.8;" x="54" xlink:href="#mc51ee3f4d5" y="242.134145"/>
      </g>
     </g>
     <g id="text_5">
      <!-- 0.0 -->
      <g transform="translate(31.096875 245.933363)scale(0.1 -0.1)">
       <defs>
        <path d="M 31.78125 66.40625 
Q 24.171875 66.40625 20.328125 58.90625 
Q 16.5 51.421875 16.5 36.375 
Q 16.5 21.390625 20.328125 13.890625 
Q 24.171875 6.390625 31.78125 6.390625 
Q 39.453125 6.390625 43.28125 13.890625 
Q 47.125 21.390625 47.125 36.375 
Q 47.125 51.421875 43.28125 58.90625 
Q 39.453125 66.40625 31.78125 66.40625 
z
M 31.78125 74.21875 
Q 44.046875 74.21875 50.515625 64.515625 
Q 56.984375 54.828125 56.984375 36.375 
Q 56.984375 17.96875 50.515625 8.265625 
Q 44.046875 -1.421875 31.78125 -1.421875 
Q 19.53125 -1.421875 13.0625 8.265625 
Q 6.59375 17.96875 6.59375 36.375 
Q 6.59375 54.828125 13.0625 64.515625 
Q 19.53125 74.21875 31.78125 74.21875 
z
" id="DejaVuSans-48"/>
        <path d="M 10.6875 12.40625 
L 21 12.40625 
L 21 0 
L 10.6875 0 
z
" id="DejaVuSans-46"/>
       </defs>
       <use xlink:href="#DejaVuSans-48"/>
       <use x="63.623047" xlink:href="#DejaVuSans-46"/>
       <use x="95.410156" xlink:href="#DejaVuSans-48"/>
      </g>
     </g>
    </g>
    <g id="ytick_2">
     <g id="line2d_5">
      <g>
       <use style="stroke:#000000;stroke-width:0.8;" x="54" xlink:href="#mc51ee3f4d5" y="202.382009"/>
      </g>
     </g>
     <g id="text_6">
      <!-- 0.2 -->
      <g transform="translate(31.096875 206.181228)scale(0.1 -0.1)">
       <defs>
        <path d="M 19.1875 8.296875 
L 53.609375 8.296875 
L 53.609375 0 
L 7.328125 0 
L 7.328125 8.296875 
Q 12.9375 14.109375 22.625 23.890625 
Q 32.328125 33.6875 34.8125 36.53125 
Q 39.546875 41.84375 41.421875 45.53125 
Q 43.3125 49.21875 43.3125 52.78125 
Q 43.3125 58.59375 39.234375 62.25 
Q 35.15625 65.921875 28.609375 65.921875 
Q 23.96875 65.921875 18.8125 64.3125 
Q 13.671875 62.703125 7.8125 59.421875 
L 7.8125 69.390625 
Q 13.765625 71.78125 18.9375 73 
Q 24.125 74.21875 28.421875 74.21875 
Q 39.75 74.21875 46.484375 68.546875 
Q 53.21875 62.890625 53.21875 53.421875 
Q 53.21875 48.921875 51.53125 44.890625 
Q 49.859375 40.875 45.40625 35.40625 
Q 44.1875 33.984375 37.640625 27.21875 
Q 31.109375 20.453125 19.1875 8.296875 
z
" id="DejaVuSans-50"/>
       </defs>
       <use xlink:href="#DejaVuSans-48"/>
       <use x="63.623047" xlink:href="#DejaVuSans-46"/>
       <use x="95.410156" xlink:href="#DejaVuSans-50"/>
      </g>
     </g>
    </g>
    <g id="ytick_3">
     <g id="line2d_6">
      <g>
       <use style="stroke:#000000;stroke-width:0.8;" x="54" xlink:href="#mc51ee3f4d5" y="162.629874"/>
      </g>
     </g>
     <g id="text_7">
      <!-- 0.4 -->
      <g transform="translate(31.096875 166.429093)scale(0.1 -0.1)">
       <defs>
        <path d="M 37.796875 64.3125 
L 12.890625 25.390625 
L 37.796875 25.390625 
z
M 35.203125 72.90625 
L 47.609375 72.90625 
L 47.609375 25.390625 
L 58.015625 25.390625 
L 58.015625 17.1875 
L 47.609375 17.1875 
L 47.609375 0 
L 37.796875 0 
L 37.796875 17.1875 
L 4.890625 17.1875 
L 4.890625 26.703125 
z
" id="DejaVuSans-52"/>
       </defs>
       <use xlink:href="#DejaVuSans-48"/>
       <use x="63.623047" xlink:href="#DejaVuSans-46"/>
       <use x="95.410156" xlink:href="#DejaVuSans-52"/>
      </g>
     </g>
    </g>
    <g id="ytick_4">
     <g id="line2d_7">
      <g>
       <use style="stroke:#000000;stroke-width:0.8;" x="54" xlink:href="#mc51ee3f4d5" y="122.877739"/>
      </g>
     </g>
     <g id="text_8">
      <!-- 0.6 -->
      <g transform="translate(31.096875 126.676957)scale(0.1 -0.1)">
       <defs>
        <path d="M 33.015625 40.375 
Q 26.375 40.375 22.484375 35.828125 
Q 18.609375 31.296875 18.609375 23.390625 
Q 18.609375 15.53125 22.484375 10.953125 
Q 26.375 6.390625 33.015625 6.390625 
Q 39.65625 6.390625 43.53125 10.953125 
Q 47.40625 15.53125 47.40625 23.390625 
Q 47.40625 31.296875 43.53125 35.828125 
Q 39.65625 40.375 33.015625 40.375 
z
M 52.59375 71.296875 
L 52.59375 62.3125 
Q 48.875 64.0625 45.09375 64.984375 
Q 41.3125 65.921875 37.59375 65.921875 
Q 27.828125 65.921875 22.671875 59.328125 
Q 17.53125 52.734375 16.796875 39.40625 
Q 19.671875 43.65625 24.015625 45.921875 
Q 28.375 48.1875 33.59375 48.1875 
Q 44.578125 48.1875 50.953125 41.515625 
Q 57.328125 34.859375 57.328125 23.390625 
Q 57.328125 12.15625 50.6875 5.359375 
Q 44.046875 -1.421875 33.015625 -1.421875 
Q 20.359375 -1.421875 13.671875 8.265625 
Q 6.984375 17.96875 6.984375 36.375 
Q 6.984375 53.65625 15.1875 63.9375 
Q 23.390625 74.21875 37.203125 74.21875 
Q 40.921875 74.21875 44.703125 73.484375 
Q 48.484375 72.75 52.59375 71.296875 
z
" id="DejaVuSans-54"/>
       </defs>
       <use xlink:href="#DejaVuSans-48"/>
       <use x="63.623047" xlink:href="#DejaVuSans-46"/>
       <use x="95.410156" xlink:href="#DejaVuSans-54"/>
      </g>
     </g>
    </g>
    <g id="ytick_5">
     <g id="line2d_8">
      <g>
       <use style="stroke:#000000;stroke-width:0.8;" x="54" xlink:href="#mc51ee3f4d5" y="83.125603"/>
      </g>
     </g>
     <g id="text_9">
      <!-- 0.8 -->
      <g transform="translate(31.096875 86.924822)scale(0.1 -0.1)">
       <defs>
        <path d="M 31.78125 34.625 
Q 24.75 34.625 20.71875 30.859375 
Q 16.703125 27.09375 16.703125 20.515625 
Q 16.703125 13.921875 20.71875 10.15625 
Q 24.75 6.390625 31.78125 6.390625 
Q 38.8125 6.390625 42.859375 10.171875 
Q 46.921875 13.96875 46.921875 20.515625 
Q 46.921875 27.09375 42.890625 30.859375 
Q 38.875 34.625 31.78125 34.625 
z
M 21.921875 38.8125 
Q 15.578125 40.375 12.03125 44.71875 
Q 8.5 49.078125 8.5 55.328125 
Q 8.5 64.0625 14.71875 69.140625 
Q 20.953125 74.21875 31.78125 74.21875 
Q 42.671875 74.21875 48.875 69.140625 
Q 55.078125 64.0625 55.078125 55.328125 
Q 55.078125 49.078125 51.53125 44.71875 
Q 48 40.375 41.703125 38.8125 
Q 48.828125 37.15625 52.796875 32.3125 
Q 56.78125 27.484375 56.78125 20.515625 
Q 56.78125 9.90625 50.3125 4.234375 
Q 43.84375 -1.421875 31.78125 -1.421875 
Q 19.734375 -1.421875 13.25 4.234375 
Q 6.78125 9.90625 6.78125 20.515625 
Q 6.78125 27.484375 10.78125 32.3125 
Q 14.796875 37.15625 21.921875 38.8125 
z
M 18.3125 54.390625 
Q 18.3125 48.734375 21.84375 45.5625 
Q 25.390625 42.390625 31.78125 42.390625 
Q 38.140625 42.390625 41.71875 45.5625 
Q 45.3125 48.734375 45.3125 54.390625 
Q 45.3125 60.0625 41.71875 63.234375 
Q 38.140625 66.40625 31.78125 66.40625 
Q 25.390625 66.40625 21.84375 63.234375 
Q 18.3125 60.0625 18.3125 54.390625 
z
" id="DejaVuSans-56"/>
       </defs>
       <use xlink:href="#DejaVuSans-48"/>
       <use x="63.623047" xlink:href="#DejaVuSans-46"/>
       <use x="95.410156" xlink:href="#DejaVuSans-56"/>
      </g>
     </g>
    </g>
    <g id="ytick_6">
     <g id="line2d_9">
      <g>
       <use style="stroke:#000000;stroke-width:0.8;" x="54" xlink:href="#mc51ee3f4d5" y="43.373468"/>
      </g>
     </g>
     <g id="text_10">
      <!-- 1.0 -->
      <g transform="translate(31.096875 47.172687)scale(0.1 -0.1)">
       <defs>
        <path d="M 12.40625 8.296875 
L 28.515625 8.296875 
L 28.515625 63.921875 
L 10.984375 60.40625 
L 10.984375 69.390625 
L 28.421875 72.90625 
L 38.28125 72.90625 
L 38.28125 8.296875 
L 54.390625 8.296875 
L 54.390625 0 
L 12.40625 0 
z
" id="DejaVuSans-49"/>
       </defs>
       <use xlink:href="#DejaVuSans-49"/>
       <use x="63.623047" xlink:href="#DejaVuSans-46"/>
       <use x="95.410156" xlink:href="#DejaVuSans-48"/>
      </g>
     </g>
    </g>
    <g id="text_11">
     <!-- value -->
     <g transform="translate(25.017187 156.937813)rotate(-90)scale(0.1 -0.1)">
      <defs>
       <path d="M 8.5 21.578125 
L 8.5 54.6875 
L 17.484375 54.6875 
L 17.484375 21.921875 
Q 17.484375 14.15625 20.5 10.265625 
Q 23.53125 6.390625 29.59375 6.390625 
Q 36.859375 6.390625 41.078125 11.03125 
Q 45.3125 15.671875 45.3125 23.6875 
L 45.3125 54.6875 
L 54.296875 54.6875 
L 54.296875 0 
L 45.3125 0 
L 45.3125 8.40625 
Q 42.046875 3.421875 37.71875 1 
Q 33.40625 -1.421875 27.6875 -1.421875 
Q 18.265625 -1.421875 13.375 4.4375 
Q 8.5 10.296875 8.5 21.578125 
z
M 31.109375 56 
z
" id="DejaVuSans-117"/>
      </defs>
      <use xlink:href="#DejaVuSans-118"/>
      <use x="59.179688" xlink:href="#DejaVuSans-97"/>
      <use x="120.458984" xlink:href="#DejaVuSans-108"/>
      <use x="148.242188" xlink:href="#DejaVuSans-117"/>
      <use x="211.621094" xlink:href="#DejaVuSans-101"/>
     </g>
    </g>
   </g>
   <g id="line2d_10">
    <path clip-path="url(#p58e9653097)" d="M 80.04 242.116364 
L 80.04 115.416053 
" style="fill:none;stroke:#3d3d3d;stroke-linecap:square;stroke-width:1.5;"/>
   </g>
   <g id="line2d_11">
    <path clip-path="url(#p58e9653097)" d="M 80.04 233.199666 
L 80.04 186.037308 
" style="fill:none;stroke:#3d3d3d;stroke-linecap:square;stroke-width:4.5;"/>
   </g>
   <g id="line2d_12">
    <path clip-path="url(#p58e9653097)" d="M 221.4 242.083739 
L 221.4 44.443636 
" style="fill:none;stroke:#3d3d3d;stroke-linecap:square;stroke-width:1.5;"/>
   </g>
   <g id="line2d_13">
    <path clip-path="url(#p58e9653097)" d="M 221.4 231.272912 
L 221.4 121.867428 
" style="fill:none;stroke:#3d3d3d;stroke-linecap:square;stroke-width:4.5;"/>
   </g>
   <g id="line2d_14">
    <path clip-path="url(#p58e9653097)" d="M 362.76 242.089125 
L 362.76 44.723571 
" style="fill:none;stroke:#3d3d3d;stroke-linecap:square;stroke-width:1.5;"/>
   </g>
   <g id="line2d_15">
    <path clip-path="url(#p58e9653097)" d="M 362.76 230.925183 
L 362.76 128.91796 
" style="fill:none;stroke:#3d3d3d;stroke-linecap:square;stroke-width:4.5;"/>
   </g>
   <g id="patch_6">
    <path d="M 54 252 
L 54 34.56 
" style="fill:none;stroke:#000000;stroke-linecap:square;stroke-linejoin:miter;stroke-width:0.8;"/>
   </g>
   <g id="patch_7">
    <path d="M 388.8 252 
L 388.8 34.56 
" style="fill:none;stroke:#000000;stroke-linecap:square;stroke-linejoin:miter;stroke-width:0.8;"/>
   </g>
   <g id="patch_8">
    <path d="M 54 252 
L 388.8 252 
" style="fill:none;stroke:#000000;stroke-linecap:square;stroke-linejoin:miter;stroke-width:0.8;"/>
   </g>
   <g id="patch_9">
    <path d="M 54 34.56 
L 388.8 34.56 
" style="fill:none;stroke:#000000;stroke-linecap:square;stroke-linejoin:miter;stroke-width:0.8;"/>
   </g>
   <g id="PathCollection_1">
    <defs>
     <path d="M 0 1.5 
C 0.397805 1.5 0.77937 1.341951 1.06066 1.06066 
C 1.341951 0.77937 1.5 0.397805 1.5 0 
C 1.5 -0.397805 1.341951 -0.77937 1.06066 -1.06066 
C 0.77937 -1.341951 0.397805 -1.5 0 -1.5 
C -0.397805 -1.5 -0.77937 -1.341951 -1.06066 -1.06066 
C -1.341951 -0.77937 -1.5 -0.397805 -1.5 0 
C -1.5 0.397805 -1.341951 0.77937 -1.06066 1.06066 
C -0.77937 1.341951 -0.397805 1.5 0 1.5 
z
" id="mfe36bf9a7a" style="stroke:#3d3d3d;"/>
    </defs>
    <g clip-path="url(#p58e9653097)">
     <use style="fill:#ffffff;stroke:#3d3d3d;" x="80.04" xlink:href="#mfe36bf9a7a" y="220.558496"/>
    </g>
   </g>
   <g id="PathCollection_2">
    <g clip-path="url(#p58e9653097)">
     <use style="fill:#ffffff;stroke:#3d3d3d;" x="221.4" xlink:href="#mfe36bf9a7a" y="209.072485"/>
    </g>
   </g>
   <g id="PathCollection_3">
    <g clip-path="url(#p58e9653097)">
     <use style="fill:#ffffff;stroke:#3d3d3d;" x="362.76" xlink:href="#mfe36bf9a7a" y="211.707014"/>
    </g>
   </g>
   <g id="legend_1">
    <g id="patch_10">
     <path d="M 61 101.2725 
L 116.275 101.2725 
Q 118.275 101.2725 118.275 99.2725 
L 118.275 41.56 
Q 118.275 39.56 116.275 39.56 
L 61 39.56 
Q 59 39.56 59 41.56 
L 59 99.2725 
Q 59 101.2725 61 101.2725 
z
" style="fill:#ffffff;opacity:0.8;stroke:#cccccc;stroke-linejoin:miter;"/>
    </g>
    <g id="text_12">
     <!-- set -->
     <g transform="translate(80.996094 51.158437)scale(0.1 -0.1)">
      <use xlink:href="#DejaVuSans-115"/>
      <use x="52.099609" xlink:href="#DejaVuSans-101"/>
      <use x="113.623047" xlink:href="#DejaVuSans-116"/>
     </g>
    </g>
    <g id="patch_11">
     <path d="M 63 65.836562 
L 83 65.836562 
L 83 58.836562 
L 63 58.836562 
z
" style="fill:#3274a1;stroke:#3d3d3d;stroke-linejoin:miter;stroke-width:0.75;"/>
    </g>
    <g id="text_13">
     <!-- train -->
     <g transform="translate(91 65.836562)scale(0.1 -0.1)">
      <use xlink:href="#DejaVuSans-116"/>
      <use x="39.208984" xlink:href="#DejaVuSans-114"/>
      <use x="80.322266" xlink:href="#DejaVuSans-97"/>
      <use x="141.601562" xlink:href="#DejaVuSans-105"/>
      <use x="169.384766" xlink:href="#DejaVuSans-110"/>
     </g>
    </g>
    <g id="patch_12">
     <path d="M 63 80.514687 
L 83 80.514687 
L 83 73.514687 
L 63 73.514687 
z
" style="fill:#e1812c;stroke:#3d3d3d;stroke-linejoin:miter;stroke-width:0.75;"/>
    </g>
    <g id="text_14">
     <!-- val -->
     <g transform="translate(91 80.514687)scale(0.1 -0.1)">
      <use xlink:href="#DejaVuSans-118"/>
      <use x="59.179688" xlink:href="#DejaVuSans-97"/>
      <use x="120.458984" xlink:href="#DejaVuSans-108"/>
     </g>
    </g>
    <g id="patch_13">
     <path d="M 63 95.192813 
L 83 95.192813 
L 83 88.192813 
L 63 88.192813 
z
" style="fill:#3a923a;stroke:#3d3d3d;stroke-linejoin:miter;stroke-width:0.75;"/>
    </g>
    <g id="text_15">
     <!-- test -->
     <g transform="translate(91 95.192813)scale(0.1 -0.1)">
      <use xlink:href="#DejaVuSans-116"/>
      <use x="39.208984" xlink:href="#DejaVuSans-101"/>
      <use x="100.732422" xlink:href="#DejaVuSans-115"/>
      <use x="152.832031" xlink:href="#DejaVuSans-116"/>
     </g>
    </g>
   </g>
  </g>
 </g>
 <defs>
  <clipPath id="p58e9653097">
   <rect height="217.44" width="334.8" x="54" y="34.56"/>
  </clipPath>
 </defs>
</svg>
