<?xml version="1.0" encoding="utf-8" standalone="no"?>
<!DOCTYPE svg PUBLIC "-//W3C//DTD SVG 1.1//EN"
  "http://www.w3.org/Graphics/SVG/1.1/DTD/svg11.dtd">
<!-- Created with matplotlib (https://matplotlib.org/) -->
<svg height="288pt" version="1.1" viewBox="0 0 432 288" width="432pt" xmlns="http://www.w3.org/2000/svg" xmlns:xlink="http://www.w3.org/1999/xlink">
 <metadata>
  <rdf:RDF xmlns:cc="http://creativecommons.org/ns#" xmlns:dc="http://purl.org/dc/elements/1.1/" xmlns:rdf="http://www.w3.org/1999/02/22-rdf-syntax-ns#">
   <cc:Work>
    <dc:type rdf:resource="http://purl.org/dc/dcmitype/StillImage"/>
    <dc:date>2022-05-02T17:37:54.123854</dc:date>
    <dc:format>image/svg+xml</dc:format>
    <dc:creator>
     <cc:Agent>
      <dc:title>Matplotlib v3.3.4, https://matplotlib.org/</dc:title>
     </cc:Agent>
    </dc:creator>
   </cc:Work>
  </rdf:RDF>
 </metadata>
 <defs>
  <style type="text/css">*{stroke-linecap:butt;stroke-linejoin:round;}</style>
 </defs>
 <g id="figure_1">
  <g id="patch_1">
   <path d="M 0 288 
L 432 288 
L 432 0 
L 0 0 
z
" style="fill:#ffffff;"/>
  </g>
  <g id="axes_1">
   <g id="patch_2">
    <path d="M 54 252 
L 388.8 252 
L 388.8 34.56 
L 54 34.56 
z
" style="fill:#ffffff;"/>
   </g>
   <g id="PolyCollection_1">
    <defs>
     <path d="M 104.399042 -45.883636 
L 104.040958 -45.883636 
L 103.990398 -47.814158 
L 103.940144 -49.744679 
L 103.893398 -51.6752 
L 103.85218 -53.605721 
L 103.816665 -55.536242 
L 103.784765 -57.466763 
L 103.752354 -59.397285 
L 103.714611 -61.327806 
L 103.668418 -63.258327 
L 103.6148 -65.188848 
L 103.559891 -67.119369 
L 103.513499 -69.04989 
L 103.485766 -70.980412 
L 103.483544 -72.910933 
L 103.508072 -74.841454 
L 103.55471 -76.771975 
L 103.614439 -78.702496 
L 103.676377 -80.633018 
L 103.730482 -82.563539 
L 103.769631 -84.49406 
L 103.790477 -86.424581 
L 103.792943 -88.355102 
L 103.778903 -90.285623 
L 103.751041 -92.216145 
L 103.71254 -94.146666 
L 103.667321 -96.077187 
L 103.619905 -98.007708 
L 103.574238 -99.938229 
L 103.53198 -101.86875 
L 103.491631 -103.799272 
L 103.449589 -105.729793 
L 103.402801 -107.660314 
L 103.351232 -109.590835 
L 103.298165 -111.521356 
L 103.247651 -113.451878 
L 103.200465 -115.382399 
L 103.151258 -117.31292 
L 103.089191 -119.243441 
L 103.002181 -121.173962 
L 102.882486 -123.104483 
L 102.730371 -125.035005 
L 102.553854 -126.965526 
L 102.364961 -128.896047 
L 102.174702 -130.826568 
L 101.989026 -132.757089 
L 101.806836 -134.68761 
L 101.620029 -136.618132 
L 101.415223 -138.548653 
L 101.177028 -140.479174 
L 100.89252 -142.409695 
L 100.555725 -144.340216 
L 100.170066 -146.270737 
L 99.747134 -148.201259 
L 99.302363 -150.13178 
L 98.850465 -152.062301 
L 98.403509 -153.992822 
L 97.971752 -155.923343 
L 97.56436 -157.853865 
L 97.187275 -159.784386 
L 96.83872 -161.714907 
L 96.505629 -163.645428 
L 96.163854 -165.575949 
L 95.782218 -167.50647 
L 95.328752 -169.436992 
L 94.778251 -171.367513 
L 94.121121 -173.298034 
L 93.371612 -175.228555 
L 92.570059 -177.159076 
L 91.773591 -179.089597 
L 91.035696 -181.020119 
L 90.383551 -182.95064 
L 89.805486 -184.881161 
L 89.255326 -186.811682 
L 88.669636 -188.742203 
L 87.986754 -190.672725 
L 87.15797 -192.603246 
L 86.148833 -194.533767 
L 84.935481 -196.464288 
L 83.502846 -198.394809 
L 81.848668 -200.32533 
L 79.992959 -202.255852 
L 77.98967 -204.186373 
L 75.936713 -206.116894 
L 73.98103 -208.047415 
L 72.315201 -209.977936 
L 71.161414 -211.908457 
L 70.74 -213.838979 
L 71.22576 -215.7695 
L 72.703636 -217.700021 
L 75.139478 -219.630542 
L 78.377184 -221.561063 
L 82.163047 -223.491585 
L 86.188912 -225.422106 
L 90.142414 -227.352627 
L 93.753928 -229.283148 
L 96.832105 -231.213669 
L 99.281839 -233.14419 
L 101.101658 -235.074712 
L 102.362814 -237.005233 
L 106.077186 -237.005233 
L 106.077186 -237.005233 
L 107.338342 -235.074712 
L 109.158161 -233.14419 
L 111.607895 -231.213669 
L 114.686072 -229.283148 
L 118.297586 -227.352627 
L 122.251088 -225.422106 
L 126.276953 -223.491585 
L 130.062816 -221.561063 
L 133.300522 -219.630542 
L 135.736364 -217.700021 
L 137.21424 -215.7695 
L 137.7 -213.838979 
L 137.278586 -211.908457 
L 136.124799 -209.977936 
L 134.45897 -208.047415 
L 132.503287 -206.116894 
L 130.45033 -204.186373 
L 128.447041 -202.255852 
L 126.591332 -200.32533 
L 124.937154 -198.394809 
L 123.504519 -196.464288 
L 122.291167 -194.533767 
L 121.28203 -192.603246 
L 120.453246 -190.672725 
L 119.770364 -188.742203 
L 119.184674 -186.811682 
L 118.634514 -184.881161 
L 118.056449 -182.95064 
L 117.404304 -181.020119 
L 116.666409 -179.089597 
L 115.869941 -177.159076 
L 115.068388 -175.228555 
L 114.318879 -173.298034 
L 113.661749 -171.367513 
L 113.111248 -169.436992 
L 112.657782 -167.50647 
L 112.276146 -165.575949 
L 111.934371 -163.645428 
L 111.60128 -161.714907 
L 111.252725 -159.784386 
L 110.87564 -157.853865 
L 110.468248 -155.923343 
L 110.036491 -153.992822 
L 109.589535 -152.062301 
L 109.137637 -150.13178 
L 108.692866 -148.201259 
L 108.269934 -146.270737 
L 107.884275 -144.340216 
L 107.54748 -142.409695 
L 107.262972 -140.479174 
L 107.024777 -138.548653 
L 106.819971 -136.618132 
L 106.633164 -134.68761 
L 106.450974 -132.757089 
L 106.265298 -130.826568 
L 106.075039 -128.896047 
L 105.886146 -126.965526 
L 105.709629 -125.035005 
L 105.557514 -123.104483 
L 105.437819 -121.173962 
L 105.350809 -119.243441 
L 105.288742 -117.31292 
L 105.239535 -115.382399 
L 105.192349 -113.451878 
L 105.141835 -111.521356 
L 105.088768 -109.590835 
L 105.037199 -107.660314 
L 104.990411 -105.729793 
L 104.948369 -103.799272 
L 104.90802 -101.86875 
L 104.865762 -99.938229 
L 104.820095 -98.007708 
L 104.772679 -96.077187 
L 104.72746 -94.146666 
L 104.688959 -92.216145 
L 104.661097 -90.285623 
L 104.647057 -88.355102 
L 104.649523 -86.424581 
L 104.670369 -84.49406 
L 104.709518 -82.563539 
L 104.763623 -80.633018 
L 104.825561 -78.702496 
L 104.88529 -76.771975 
L 104.931928 -74.841454 
L 104.956456 -72.910933 
L 104.954234 -70.980412 
L 104.926501 -69.04989 
L 104.880109 -67.119369 
L 104.8252 -65.188848 
L 104.771582 -63.258327 
L 104.725389 -61.327806 
L 104.687646 -59.397285 
L 104.655235 -57.466763 
L 104.623335 -55.536242 
L 104.58782 -53.605721 
L 104.546602 -51.6752 
L 104.499856 -49.744679 
L 104.449602 -47.814158 
L 104.399042 -45.883636 
z
" id="m32322ad1c0" style="stroke:#3f3f3f;stroke-width:1.5;"/>
    </defs>
    <g clip-path="url(#pdbd0d497f7)">
     <use style="fill:#3274a1;stroke:#3f3f3f;stroke-width:1.5;" x="0" xlink:href="#m32322ad1c0" y="288"/>
    </g>
   </g>
   <g id="PolyCollection_2">
    <defs>
     <path d="M 338.610504 -99.305166 
L 338.549496 -99.305166 
L 338.552843 -100.762249 
L 338.560836 -102.219332 
L 338.569281 -103.676414 
L 338.575248 -105.133497 
L 338.57833 -106.59058 
L 338.579535 -108.047663 
L 338.579897 -109.504746 
L 338.579982 -110.961828 
L 338.579997 -112.418911 
L 338.579994 -113.875994 
L 338.579962 -115.333077 
L 338.579801 -116.79016 
L 338.579161 -118.247242 
L 338.577154 -119.704325 
L 338.57217 -121.161408 
L 338.562288 -122.618491 
L 338.546432 -124.075574 
L 338.525448 -125.532656 
L 338.502178 -126.989739 
L 338.480886 -128.446822 
L 338.466633 -129.903905 
L 338.463763 -131.360988 
L 338.472439 -132.818071 
L 338.485103 -134.275153 
L 338.487605 -135.732236 
L 338.467401 -137.189319 
L 338.423238 -138.646402 
L 338.366763 -140.103485 
L 338.314503 -141.560567 
L 338.279227 -143.01765 
L 338.267068 -144.474733 
L 338.276873 -145.931816 
L 338.299264 -147.388899 
L 338.320395 -148.845981 
L 338.331065 -150.303064 
L 338.331881 -151.760147 
L 338.328392 -153.21723 
L 338.321735 -154.674313 
L 338.304321 -156.131395 
L 338.263987 -157.588478 
L 338.192193 -159.045561 
L 338.089998 -160.502644 
L 337.970123 -161.959727 
L 337.85574 -163.416809 
L 337.772363 -164.873892 
L 337.731081 -166.330975 
L 337.715858 -167.788058 
L 337.691441 -169.245141 
L 337.627007 -170.702223 
L 337.51437 -172.159306 
L 337.369921 -173.616389 
L 337.223353 -175.073472 
L 337.099444 -176.530555 
L 337.002139 -177.987637 
L 336.910327 -179.44472 
L 336.788198 -180.901803 
L 336.608031 -182.358886 
L 336.375813 -183.815969 
L 336.13828 -185.273051 
L 335.956341 -186.730134 
L 335.859477 -188.187217 
L 335.815577 -189.6443 
L 335.740732 -191.101383 
L 335.545118 -192.558465 
L 335.182505 -194.015548 
L 334.667425 -195.472631 
L 334.056415 -196.929714 
L 333.419235 -198.386797 
L 332.816553 -199.84388 
L 332.277359 -201.300962 
L 331.772831 -202.758045 
L 331.209564 -204.215128 
L 330.472153 -205.672211 
L 329.495527 -207.129294 
L 328.286538 -208.586376 
L 326.852034 -210.043459 
L 325.113325 -211.500542 
L 322.921145 -212.957625 
L 320.166903 -214.414708 
L 316.88533 -215.87179 
L 313.289462 -217.328873 
L 309.764507 -218.785956 
L 306.841774 -220.243039 
L 305.119817 -221.700122 
L 305.1 -223.157204 
L 306.978981 -224.614287 
L 310.526746 -226.07137 
L 315.165208 -227.528453 
L 320.204137 -228.985536 
L 325.050199 -230.442618 
L 329.27901 -231.899701 
L 332.635585 -233.356784 
L 335.044644 -234.813867 
L 336.605233 -236.27095 
L 337.52585 -237.728032 
L 338.030198 -239.185115 
L 338.293198 -240.642198 
L 338.426857 -242.099281 
L 338.495111 -243.556364 
L 338.664889 -243.556364 
L 338.664889 -243.556364 
L 338.733143 -242.099281 
L 338.866802 -240.642198 
L 339.129802 -239.185115 
L 339.63415 -237.728032 
L 340.554767 -236.27095 
L 342.115356 -234.813867 
L 344.524415 -233.356784 
L 347.88099 -231.899701 
L 352.109801 -230.442618 
L 356.955863 -228.985536 
L 361.994792 -227.528453 
L 366.633254 -226.07137 
L 370.181019 -224.614287 
L 372.06 -223.157204 
L 372.040183 -221.700122 
L 370.318226 -220.243039 
L 367.395493 -218.785956 
L 363.870538 -217.328873 
L 360.27467 -215.87179 
L 356.993097 -214.414708 
L 354.238855 -212.957625 
L 352.046675 -211.500542 
L 350.307966 -210.043459 
L 348.873462 -208.586376 
L 347.664473 -207.129294 
L 346.687847 -205.672211 
L 345.950436 -204.215128 
L 345.387169 -202.758045 
L 344.882641 -201.300962 
L 344.343447 -199.84388 
L 343.740765 -198.386797 
L 343.103585 -196.929714 
L 342.492575 -195.472631 
L 341.977495 -194.015548 
L 341.614882 -192.558465 
L 341.419268 -191.101383 
L 341.344423 -189.6443 
L 341.300523 -188.187217 
L 341.203659 -186.730134 
L 341.02172 -185.273051 
L 340.784187 -183.815969 
L 340.551969 -182.358886 
L 340.371802 -180.901803 
L 340.249673 -179.44472 
L 340.157861 -177.987637 
L 340.060556 -176.530555 
L 339.936647 -175.073472 
L 339.790079 -173.616389 
L 339.64563 -172.159306 
L 339.532993 -170.702223 
L 339.468559 -169.245141 
L 339.444142 -167.788058 
L 339.428919 -166.330975 
L 339.387637 -164.873892 
L 339.30426 -163.416809 
L 339.189877 -161.959727 
L 339.070002 -160.502644 
L 338.967807 -159.045561 
L 338.896013 -157.588478 
L 338.855679 -156.131395 
L 338.838265 -154.674313 
L 338.831608 -153.21723 
L 338.828119 -151.760147 
L 338.828935 -150.303064 
L 338.839605 -148.845981 
L 338.860736 -147.388899 
L 338.883127 -145.931816 
L 338.892932 -144.474733 
L 338.880773 -143.01765 
L 338.845497 -141.560567 
L 338.793237 -140.103485 
L 338.736762 -138.646402 
L 338.692599 -137.189319 
L 338.672395 -135.732236 
L 338.674897 -134.275153 
L 338.687561 -132.818071 
L 338.696237 -131.360988 
L 338.693367 -129.903905 
L 338.679114 -128.446822 
L 338.657822 -126.989739 
L 338.634552 -125.532656 
L 338.613568 -124.075574 
L 338.597712 -122.618491 
L 338.58783 -121.161408 
L 338.582846 -119.704325 
L 338.580839 -118.247242 
L 338.580199 -116.79016 
L 338.580038 -115.333077 
L 338.580006 -113.875994 
L 338.580003 -112.418911 
L 338.580018 -110.961828 
L 338.580103 -109.504746 
L 338.580465 -108.047663 
L 338.58167 -106.59058 
L 338.584752 -105.133497 
L 338.590719 -103.676414 
L 338.599164 -102.219332 
L 338.607157 -100.762249 
L 338.610504 -99.305166 
z
" id="mcce8e6e885" style="stroke:#3f3f3f;stroke-width:1.5;"/>
    </defs>
    <g clip-path="url(#pdbd0d497f7)">
     <use style="fill:#e1812c;stroke:#3f3f3f;stroke-width:1.5;" x="0" xlink:href="#mcce8e6e885" y="288"/>
    </g>
   </g>
   <g id="patch_3">
    <path clip-path="url(#pdbd0d497f7)" d="M 137.7 252.651598 
L 137.7 252.651598 
L 137.7 252.651598 
L 137.7 252.651598 
z
" style="fill:#3274a1;stroke:#3f3f3f;stroke-linejoin:miter;stroke-width:0.75;"/>
   </g>
   <g id="patch_4">
    <path clip-path="url(#pdbd0d497f7)" d="M 137.7 252.651598 
L 137.7 252.651598 
L 137.7 252.651598 
L 137.7 252.651598 
z
" style="fill:#e1812c;stroke:#3f3f3f;stroke-linejoin:miter;stroke-width:0.75;"/>
   </g>
   <g id="matplotlib.axis_1">
    <g id="xtick_1">
     <g id="line2d_1">
      <defs>
       <path d="M 0 0 
L 0 3.5 
" id="m5a644bc7a5" style="stroke:#000000;stroke-width:0.8;"/>
      </defs>
      <g>
       <use style="stroke:#000000;stroke-width:0.8;" x="137.7" xlink:href="#m5a644bc7a5" y="252"/>
      </g>
     </g>
     <g id="text_1">
      <!-- Z_2_ns -->
      <g transform="translate(120.320312 266.421875)scale(0.1 -0.1)">
       <defs>
        <path d="M 5.609375 72.90625 
L 62.890625 72.90625 
L 62.890625 65.375 
L 16.796875 8.296875 
L 64.015625 8.296875 
L 64.015625 0 
L 4.5 0 
L 4.5 7.515625 
L 50.59375 64.59375 
L 5.609375 64.59375 
z
" id="DejaVuSans-90"/>
        <path d="M 50.984375 -16.609375 
L 50.984375 -23.578125 
L -0.984375 -23.578125 
L -0.984375 -16.609375 
z
" id="DejaVuSans-95"/>
        <path d="M 19.1875 8.296875 
L 53.609375 8.296875 
L 53.609375 0 
L 7.328125 0 
L 7.328125 8.296875 
Q 12.9375 14.109375 22.625 23.890625 
Q 32.328125 33.6875 34.8125 36.53125 
Q 39.546875 41.84375 41.421875 45.53125 
Q 43.3125 49.21875 43.3125 52.78125 
Q 43.3125 58.59375 39.234375 62.25 
Q 35.15625 65.921875 28.609375 65.921875 
Q 23.96875 65.921875 18.8125 64.3125 
Q 13.671875 62.703125 7.8125 59.421875 
L 7.8125 69.390625 
Q 13.765625 71.78125 18.9375 73 
Q 24.125 74.21875 28.421875 74.21875 
Q 39.75 74.21875 46.484375 68.546875 
Q 53.21875 62.890625 53.21875 53.421875 
Q 53.21875 48.921875 51.53125 44.890625 
Q 49.859375 40.875 45.40625 35.40625 
Q 44.1875 33.984375 37.640625 27.21875 
Q 31.109375 20.453125 19.1875 8.296875 
z
" id="DejaVuSans-50"/>
        <path d="M 54.890625 33.015625 
L 54.890625 0 
L 45.90625 0 
L 45.90625 32.71875 
Q 45.90625 40.484375 42.875 44.328125 
Q 39.84375 48.1875 33.796875 48.1875 
Q 26.515625 48.1875 22.3125 43.546875 
Q 18.109375 38.921875 18.109375 30.90625 
L 18.109375 0 
L 9.078125 0 
L 9.078125 54.6875 
L 18.109375 54.6875 
L 18.109375 46.1875 
Q 21.34375 51.125 25.703125 53.5625 
Q 30.078125 56 35.796875 56 
Q 45.21875 56 50.046875 50.171875 
Q 54.890625 44.34375 54.890625 33.015625 
z
" id="DejaVuSans-110"/>
        <path d="M 44.28125 53.078125 
L 44.28125 44.578125 
Q 40.484375 46.53125 36.375 47.5 
Q 32.28125 48.484375 27.875 48.484375 
Q 21.1875 48.484375 17.84375 46.4375 
Q 14.5 44.390625 14.5 40.28125 
Q 14.5 37.15625 16.890625 35.375 
Q 19.28125 33.59375 26.515625 31.984375 
L 29.59375 31.296875 
Q 39.15625 29.25 43.1875 25.515625 
Q 47.21875 21.78125 47.21875 15.09375 
Q 47.21875 7.46875 41.1875 3.015625 
Q 35.15625 -1.421875 24.609375 -1.421875 
Q 20.21875 -1.421875 15.453125 -0.5625 
Q 10.6875 0.296875 5.421875 2 
L 5.421875 11.28125 
Q 10.40625 8.6875 15.234375 7.390625 
Q 20.0625 6.109375 24.8125 6.109375 
Q 31.15625 6.109375 34.5625 8.28125 
Q 37.984375 10.453125 37.984375 14.40625 
Q 37.984375 18.0625 35.515625 20.015625 
Q 33.0625 21.96875 24.703125 23.78125 
L 21.578125 24.515625 
Q 13.234375 26.265625 9.515625 29.90625 
Q 5.8125 33.546875 5.8125 39.890625 
Q 5.8125 47.609375 11.28125 51.796875 
Q 16.75 56 26.8125 56 
Q 31.78125 56 36.171875 55.265625 
Q 40.578125 54.546875 44.28125 53.078125 
z
" id="DejaVuSans-115"/>
       </defs>
       <use xlink:href="#DejaVuSans-90"/>
       <use x="68.505859" xlink:href="#DejaVuSans-95"/>
       <use x="118.505859" xlink:href="#DejaVuSans-50"/>
       <use x="182.128906" xlink:href="#DejaVuSans-95"/>
       <use x="232.128906" xlink:href="#DejaVuSans-110"/>
       <use x="295.507812" xlink:href="#DejaVuSans-115"/>
      </g>
     </g>
    </g>
    <g id="xtick_2">
     <g id="line2d_2">
      <g>
       <use style="stroke:#000000;stroke-width:0.8;" x="305.1" xlink:href="#m5a644bc7a5" y="252"/>
      </g>
     </g>
     <g id="text_2">
      <!-- Z_3_ns -->
      <g transform="translate(287.720313 266.421875)scale(0.1 -0.1)">
       <defs>
        <path d="M 40.578125 39.3125 
Q 47.65625 37.796875 51.625 33 
Q 55.609375 28.21875 55.609375 21.1875 
Q 55.609375 10.40625 48.1875 4.484375 
Q 40.765625 -1.421875 27.09375 -1.421875 
Q 22.515625 -1.421875 17.65625 -0.515625 
Q 12.796875 0.390625 7.625 2.203125 
L 7.625 11.71875 
Q 11.71875 9.328125 16.59375 8.109375 
Q 21.484375 6.890625 26.8125 6.890625 
Q 36.078125 6.890625 40.9375 10.546875 
Q 45.796875 14.203125 45.796875 21.1875 
Q 45.796875 27.640625 41.28125 31.265625 
Q 36.765625 34.90625 28.71875 34.90625 
L 20.21875 34.90625 
L 20.21875 43.015625 
L 29.109375 43.015625 
Q 36.375 43.015625 40.234375 45.921875 
Q 44.09375 48.828125 44.09375 54.296875 
Q 44.09375 59.90625 40.109375 62.90625 
Q 36.140625 65.921875 28.71875 65.921875 
Q 24.65625 65.921875 20.015625 65.03125 
Q 15.375 64.15625 9.8125 62.3125 
L 9.8125 71.09375 
Q 15.4375 72.65625 20.34375 73.4375 
Q 25.25 74.21875 29.59375 74.21875 
Q 40.828125 74.21875 47.359375 69.109375 
Q 53.90625 64.015625 53.90625 55.328125 
Q 53.90625 49.265625 50.4375 45.09375 
Q 46.96875 40.921875 40.578125 39.3125 
z
" id="DejaVuSans-51"/>
       </defs>
       <use xlink:href="#DejaVuSans-90"/>
       <use x="68.505859" xlink:href="#DejaVuSans-95"/>
       <use x="118.505859" xlink:href="#DejaVuSans-51"/>
       <use x="182.128906" xlink:href="#DejaVuSans-95"/>
       <use x="232.128906" xlink:href="#DejaVuSans-110"/>
       <use x="295.507812" xlink:href="#DejaVuSans-115"/>
      </g>
     </g>
    </g>
    <g id="text_3">
     <!-- set -->
     <g transform="translate(213.758594 280.378125)scale(0.1 -0.1)">
      <defs>
       <path d="M 56.203125 29.59375 
L 56.203125 25.203125 
L 14.890625 25.203125 
Q 15.484375 15.921875 20.484375 11.0625 
Q 25.484375 6.203125 34.421875 6.203125 
Q 39.59375 6.203125 44.453125 7.46875 
Q 49.3125 8.734375 54.109375 11.28125 
L 54.109375 2.78125 
Q 49.265625 0.734375 44.1875 -0.34375 
Q 39.109375 -1.421875 33.890625 -1.421875 
Q 20.796875 -1.421875 13.15625 6.1875 
Q 5.515625 13.8125 5.515625 26.8125 
Q 5.515625 40.234375 12.765625 48.109375 
Q 20.015625 56 32.328125 56 
Q 43.359375 56 49.78125 48.890625 
Q 56.203125 41.796875 56.203125 29.59375 
z
M 47.21875 32.234375 
Q 47.125 39.59375 43.09375 43.984375 
Q 39.0625 48.390625 32.421875 48.390625 
Q 24.90625 48.390625 20.390625 44.140625 
Q 15.875 39.890625 15.1875 32.171875 
z
" id="DejaVuSans-101"/>
       <path d="M 18.3125 70.21875 
L 18.3125 54.6875 
L 36.8125 54.6875 
L 36.8125 47.703125 
L 18.3125 47.703125 
L 18.3125 18.015625 
Q 18.3125 11.328125 20.140625 9.421875 
Q 21.96875 7.515625 27.59375 7.515625 
L 36.8125 7.515625 
L 36.8125 0 
L 27.59375 0 
Q 17.1875 0 13.234375 3.875 
Q 9.28125 7.765625 9.28125 18.015625 
L 9.28125 47.703125 
L 2.6875 47.703125 
L 2.6875 54.6875 
L 9.28125 54.6875 
L 9.28125 70.21875 
z
" id="DejaVuSans-116"/>
      </defs>
      <use xlink:href="#DejaVuSans-115"/>
      <use x="52.099609" xlink:href="#DejaVuSans-101"/>
      <use x="113.623047" xlink:href="#DejaVuSans-116"/>
     </g>
    </g>
   </g>
   <g id="matplotlib.axis_2">
    <g id="ytick_1">
     <g id="line2d_3">
      <defs>
       <path d="M 0 0 
L -3.5 0 
" id="mf344ceb2b7" style="stroke:#000000;stroke-width:0.8;"/>
      </defs>
      <g>
       <use style="stroke:#000000;stroke-width:0.8;" x="54" xlink:href="#mf344ceb2b7" y="207.841575"/>
      </g>
     </g>
     <g id="text_4">
      <!-- 10 -->
      <g transform="translate(34.275 211.640793)scale(0.1 -0.1)">
       <defs>
        <path d="M 12.40625 8.296875 
L 28.515625 8.296875 
L 28.515625 63.921875 
L 10.984375 60.40625 
L 10.984375 69.390625 
L 28.421875 72.90625 
L 38.28125 72.90625 
L 38.28125 8.296875 
L 54.390625 8.296875 
L 54.390625 0 
L 12.40625 0 
z
" id="DejaVuSans-49"/>
        <path d="M 31.78125 66.40625 
Q 24.171875 66.40625 20.328125 58.90625 
Q 16.5 51.421875 16.5 36.375 
Q 16.5 21.390625 20.328125 13.890625 
Q 24.171875 6.390625 31.78125 6.390625 
Q 39.453125 6.390625 43.28125 13.890625 
Q 47.125 21.390625 47.125 36.375 
Q 47.125 51.421875 43.28125 58.90625 
Q 39.453125 66.40625 31.78125 66.40625 
z
M 31.78125 74.21875 
Q 44.046875 74.21875 50.515625 64.515625 
Q 56.984375 54.828125 56.984375 36.375 
Q 56.984375 17.96875 50.515625 8.265625 
Q 44.046875 -1.421875 31.78125 -1.421875 
Q 19.53125 -1.421875 13.0625 8.265625 
Q 6.59375 17.96875 6.59375 36.375 
Q 6.59375 54.828125 13.0625 64.515625 
Q 19.53125 74.21875 31.78125 74.21875 
z
" id="DejaVuSans-48"/>
       </defs>
       <use xlink:href="#DejaVuSans-49"/>
       <use x="63.623047" xlink:href="#DejaVuSans-48"/>
      </g>
     </g>
    </g>
    <g id="ytick_2">
     <g id="line2d_4">
      <g>
       <use style="stroke:#000000;stroke-width:0.8;" x="54" xlink:href="#mf344ceb2b7" y="163.031551"/>
      </g>
     </g>
     <g id="text_5">
      <!-- 20 -->
      <g transform="translate(34.275 166.83077)scale(0.1 -0.1)">
       <use xlink:href="#DejaVuSans-50"/>
       <use x="63.623047" xlink:href="#DejaVuSans-48"/>
      </g>
     </g>
    </g>
    <g id="ytick_3">
     <g id="line2d_5">
      <g>
       <use style="stroke:#000000;stroke-width:0.8;" x="54" xlink:href="#mf344ceb2b7" y="118.221528"/>
      </g>
     </g>
     <g id="text_6">
      <!-- 30 -->
      <g transform="translate(34.275 122.020747)scale(0.1 -0.1)">
       <use xlink:href="#DejaVuSans-51"/>
       <use x="63.623047" xlink:href="#DejaVuSans-48"/>
      </g>
     </g>
    </g>
    <g id="ytick_4">
     <g id="line2d_6">
      <g>
       <use style="stroke:#000000;stroke-width:0.8;" x="54" xlink:href="#mf344ceb2b7" y="73.411505"/>
      </g>
     </g>
     <g id="text_7">
      <!-- 40 -->
      <g transform="translate(34.275 77.210724)scale(0.1 -0.1)">
       <defs>
        <path d="M 37.796875 64.3125 
L 12.890625 25.390625 
L 37.796875 25.390625 
z
M 35.203125 72.90625 
L 47.609375 72.90625 
L 47.609375 25.390625 
L 58.015625 25.390625 
L 58.015625 17.1875 
L 47.609375 17.1875 
L 47.609375 0 
L 37.796875 0 
L 37.796875 17.1875 
L 4.890625 17.1875 
L 4.890625 26.703125 
z
" id="DejaVuSans-52"/>
       </defs>
       <use xlink:href="#DejaVuSans-52"/>
       <use x="63.623047" xlink:href="#DejaVuSans-48"/>
      </g>
     </g>
    </g>
    <g id="text_8">
     <!-- value -->
     <g transform="translate(28.195312 156.937813)rotate(-90)scale(0.1 -0.1)">
      <defs>
       <path d="M 2.984375 54.6875 
L 12.5 54.6875 
L 29.59375 8.796875 
L 46.6875 54.6875 
L 56.203125 54.6875 
L 35.6875 0 
L 23.484375 0 
z
" id="DejaVuSans-118"/>
       <path d="M 34.28125 27.484375 
Q 23.390625 27.484375 19.1875 25 
Q 14.984375 22.515625 14.984375 16.5 
Q 14.984375 11.71875 18.140625 8.90625 
Q 21.296875 6.109375 26.703125 6.109375 
Q 34.1875 6.109375 38.703125 11.40625 
Q 43.21875 16.703125 43.21875 25.484375 
L 43.21875 27.484375 
z
M 52.203125 31.203125 
L 52.203125 0 
L 43.21875 0 
L 43.21875 8.296875 
Q 40.140625 3.328125 35.546875 0.953125 
Q 30.953125 -1.421875 24.3125 -1.421875 
Q 15.921875 -1.421875 10.953125 3.296875 
Q 6 8.015625 6 15.921875 
Q 6 25.140625 12.171875 29.828125 
Q 18.359375 34.515625 30.609375 34.515625 
L 43.21875 34.515625 
L 43.21875 35.40625 
Q 43.21875 41.609375 39.140625 45 
Q 35.0625 48.390625 27.6875 48.390625 
Q 23 48.390625 18.546875 47.265625 
Q 14.109375 46.140625 10.015625 43.890625 
L 10.015625 52.203125 
Q 14.9375 54.109375 19.578125 55.046875 
Q 24.21875 56 28.609375 56 
Q 40.484375 56 46.34375 49.84375 
Q 52.203125 43.703125 52.203125 31.203125 
z
" id="DejaVuSans-97"/>
       <path d="M 9.421875 75.984375 
L 18.40625 75.984375 
L 18.40625 0 
L 9.421875 0 
z
" id="DejaVuSans-108"/>
       <path d="M 8.5 21.578125 
L 8.5 54.6875 
L 17.484375 54.6875 
L 17.484375 21.921875 
Q 17.484375 14.15625 20.5 10.265625 
Q 23.53125 6.390625 29.59375 6.390625 
Q 36.859375 6.390625 41.078125 11.03125 
Q 45.3125 15.671875 45.3125 23.6875 
L 45.3125 54.6875 
L 54.296875 54.6875 
L 54.296875 0 
L 45.3125 0 
L 45.3125 8.40625 
Q 42.046875 3.421875 37.71875 1 
Q 33.40625 -1.421875 27.6875 -1.421875 
Q 18.265625 -1.421875 13.375 4.4375 
Q 8.5 10.296875 8.5 21.578125 
z
M 31.109375 56 
z
" id="DejaVuSans-117"/>
      </defs>
      <use xlink:href="#DejaVuSans-118"/>
      <use x="59.179688" xlink:href="#DejaVuSans-97"/>
      <use x="120.458984" xlink:href="#DejaVuSans-108"/>
      <use x="148.242188" xlink:href="#DejaVuSans-117"/>
      <use x="211.621094" xlink:href="#DejaVuSans-101"/>
     </g>
    </g>
   </g>
   <g id="line2d_7">
    <path clip-path="url(#pdbd0d497f7)" d="M 104.22 157.641875 
L 104.22 50.994767 
" style="fill:none;stroke:#3f3f3f;stroke-linecap:square;stroke-width:1.5;"/>
   </g>
   <g id="line2d_8">
    <path clip-path="url(#pdbd0d497f7)" d="M 104.22 106.854368 
L 104.22 72.873037 
" style="fill:none;stroke:#3f3f3f;stroke-linecap:square;stroke-width:4.5;"/>
   </g>
   <g id="line2d_9">
    <path clip-path="url(#pdbd0d497f7)" d="M 338.58 97.899004 
L 338.58 44.443636 
" style="fill:none;stroke:#3f3f3f;stroke-linecap:square;stroke-width:1.5;"/>
   </g>
   <g id="line2d_10">
    <path clip-path="url(#pdbd0d497f7)" d="M 338.58 77.376484 
L 338.58 63.648696 
" style="fill:none;stroke:#3f3f3f;stroke-linecap:square;stroke-width:4.5;"/>
   </g>
   <g id="patch_5">
    <path d="M 54 252 
L 54 34.56 
" style="fill:none;stroke:#000000;stroke-linecap:square;stroke-linejoin:miter;stroke-width:0.8;"/>
   </g>
   <g id="patch_6">
    <path d="M 388.8 252 
L 388.8 34.56 
" style="fill:none;stroke:#000000;stroke-linecap:square;stroke-linejoin:miter;stroke-width:0.8;"/>
   </g>
   <g id="patch_7">
    <path d="M 54 252 
L 388.8 252 
" style="fill:none;stroke:#000000;stroke-linecap:square;stroke-linejoin:miter;stroke-width:0.8;"/>
   </g>
   <g id="patch_8">
    <path d="M 54 34.56 
L 388.8 34.56 
" style="fill:none;stroke:#000000;stroke-linecap:square;stroke-linejoin:miter;stroke-width:0.8;"/>
   </g>
   <g id="PathCollection_1">
    <defs>
     <path d="M 0 1.5 
C 0.397805 1.5 0.77937 1.341951 1.06066 1.06066 
C 1.341951 0.77937 1.5 0.397805 1.5 0 
C 1.5 -0.397805 1.341951 -0.77937 1.06066 -1.06066 
C 0.77937 -1.341951 0.397805 -1.5 0 -1.5 
C -0.397805 -1.5 -0.77937 -1.341951 -1.06066 -1.06066 
C -1.341951 -0.77937 -1.5 -0.397805 -1.5 0 
C -1.5 0.397805 -1.341951 0.77937 -1.06066 1.06066 
C -0.77937 1.341951 -0.397805 1.5 0 1.5 
z
" id="m0ffe314627" style="stroke:#3f3f3f;"/>
    </defs>
    <g clip-path="url(#pdbd0d497f7)">
     <use style="fill:#ffffff;stroke:#3f3f3f;" x="104.22" xlink:href="#m0ffe314627" y="84.712846"/>
    </g>
   </g>
   <g id="PathCollection_2">
    <g clip-path="url(#pdbd0d497f7)">
     <use style="fill:#ffffff;stroke:#3f3f3f;" x="338.58" xlink:href="#m0ffe314627" y="68.334703"/>
    </g>
   </g>
   <g id="legend_1">
    <g id="patch_9">
     <path d="M 61 247 
L 127.759375 247 
Q 129.759375 247 129.759375 245 
L 129.759375 201.409375 
Q 129.759375 199.409375 127.759375 199.409375 
L 61 199.409375 
Q 59 199.409375 59 201.409375 
L 59 245 
Q 59 247 61 247 
z
" style="fill:#ffffff;opacity:0.8;stroke:#cccccc;stroke-linejoin:miter;"/>
    </g>
    <g id="text_9">
     <!-- set -->
     <g transform="translate(86.738281 211.007812)scale(0.1 -0.1)">
      <use xlink:href="#DejaVuSans-115"/>
      <use x="52.099609" xlink:href="#DejaVuSans-101"/>
      <use x="113.623047" xlink:href="#DejaVuSans-116"/>
     </g>
    </g>
    <g id="patch_10">
     <path d="M 63 225.685937 
L 83 225.685937 
L 83 218.685937 
L 63 218.685937 
z
" style="fill:#3274a1;stroke:#3f3f3f;stroke-linejoin:miter;stroke-width:0.75;"/>
    </g>
    <g id="text_10">
     <!-- Z_2_ns -->
     <g transform="translate(91 225.685937)scale(0.1 -0.1)">
      <use xlink:href="#DejaVuSans-90"/>
      <use x="68.505859" xlink:href="#DejaVuSans-95"/>
      <use x="118.505859" xlink:href="#DejaVuSans-50"/>
      <use x="182.128906" xlink:href="#DejaVuSans-95"/>
      <use x="232.128906" xlink:href="#DejaVuSans-110"/>
      <use x="295.507812" xlink:href="#DejaVuSans-115"/>
     </g>
    </g>
    <g id="patch_11">
     <path d="M 63 240.642188 
L 83 240.642188 
L 83 233.642188 
L 63 233.642188 
z
" style="fill:#e1812c;stroke:#3f3f3f;stroke-linejoin:miter;stroke-width:0.75;"/>
    </g>
    <g id="text_11">
     <!-- Z_3_ns -->
     <g transform="translate(91 240.642188)scale(0.1 -0.1)">
      <use xlink:href="#DejaVuSans-90"/>
      <use x="68.505859" xlink:href="#DejaVuSans-95"/>
      <use x="118.505859" xlink:href="#DejaVuSans-51"/>
      <use x="182.128906" xlink:href="#DejaVuSans-95"/>
      <use x="232.128906" xlink:href="#DejaVuSans-110"/>
      <use x="295.507812" xlink:href="#DejaVuSans-115"/>
     </g>
    </g>
   </g>
  </g>
 </g>
 <defs>
  <clipPath id="pdbd0d497f7">
   <rect height="217.44" width="334.8" x="54" y="34.56"/>
  </clipPath>
 </defs>
</svg>
