<?xml version="1.0" encoding="utf-8" standalone="no"?>
<!DOCTYPE svg PUBLIC "-//W3C//DTD SVG 1.1//EN"
  "http://www.w3.org/Graphics/SVG/1.1/DTD/svg11.dtd">
<!-- Created with matplotlib (https://matplotlib.org/) -->
<svg height="288pt" version="1.1" viewBox="0 0 432 288" width="432pt" xmlns="http://www.w3.org/2000/svg" xmlns:xlink="http://www.w3.org/1999/xlink">
 <metadata>
  <rdf:RDF xmlns:cc="http://creativecommons.org/ns#" xmlns:dc="http://purl.org/dc/elements/1.1/" xmlns:rdf="http://www.w3.org/1999/02/22-rdf-syntax-ns#">
   <cc:Work>
    <dc:type rdf:resource="http://purl.org/dc/dcmitype/StillImage"/>
    <dc:date>2021-07-13T18:08:06.854229</dc:date>
    <dc:format>image/svg+xml</dc:format>
    <dc:creator>
     <cc:Agent>
      <dc:title>Matplotlib v3.3.4, https://matplotlib.org/</dc:title>
     </cc:Agent>
    </dc:creator>
   </cc:Work>
  </rdf:RDF>
 </metadata>
 <defs>
  <style type="text/css">*{stroke-linecap:butt;stroke-linejoin:round;}</style>
 </defs>
 <g id="figure_1">
  <g id="patch_1">
   <path d="M 0 288 
L 432 288 
L 432 0 
L 0 0 
z
" style="fill:#ffffff;"/>
  </g>
  <g id="axes_1">
   <g id="patch_2">
    <path d="M 54 252 
L 388.8 252 
L 388.8 34.56 
L 54 34.56 
z
" style="fill:#ffffff;"/>
   </g>
   <g id="PolyCollection_1">
    <defs>
     <path d="M 91.582662 -46.193443 
L 68.497338 -46.193443 
L 66.177307 -48.187008 
L 65.16 -50.180573 
L 65.380495 -52.174138 
L 66.258243 -54.167703 
L 67.089102 -56.161267 
L 67.426308 -58.154832 
L 67.211365 -60.148397 
L 66.664622 -62.141962 
L 66.089855 -64.135527 
L 65.726754 -66.129092 
L 65.698884 -68.122657 
L 66.036184 -70.116221 
L 66.722408 -72.109786 
L 67.726239 -74.103351 
L 69.004942 -76.096916 
L 70.494505 -78.090481 
L 72.103734 -80.084046 
L 73.719648 -82.077611 
L 75.224024 -84.071175 
L 76.518162 -86.06474 
L 77.547401 -88.058305 
L 78.31094 -90.05187 
L 78.848722 -92.045435 
L 79.214638 -94.039 
L 79.45529 -96.032565 
L 79.604611 -98.026129 
L 79.689119 -100.019694 
L 79.733176 -102.013259 
L 79.759098 -104.006824 
L 79.783565 -106.000389 
L 79.814118 -107.993954 
L 79.848704 -109.987518 
L 79.879176 -111.981083 
L 79.897143 -113.974648 
L 79.89885 -115.968213 
L 79.886445 -117.961778 
L 79.865686 -119.955343 
L 79.842433 -121.948908 
L 79.820288 -123.942472 
L 79.800231 -125.936037 
L 79.781818 -127.929602 
L 79.764925 -129.923167 
L 79.750652 -131.916732 
L 79.740531 -133.910297 
L 79.734917 -135.903862 
L 79.732695 -137.897426 
L 79.732967 -139.890991 
L 79.736536 -141.884556 
L 79.744654 -143.878121 
L 79.755754 -145.871686 
L 79.763806 -147.865251 
L 79.76093 -149.858816 
L 79.743022 -151.85238 
L 79.714251 -153.845945 
L 79.686329 -155.83951 
L 79.671965 -157.833075 
L 79.676743 -159.82664 
L 79.695813 -161.820205 
L 79.718198 -163.81377 
L 79.734843 -165.807334 
L 79.743701 -167.800899 
L 79.748693 -169.794464 
L 79.755133 -171.788029 
L 79.766053 -173.781594 
L 79.781453 -175.775159 
L 79.79952 -177.768723 
L 79.818031 -179.762288 
L 79.834915 -181.755853 
L 79.848183 -183.749418 
L 79.856268 -185.742983 
L 79.859151 -187.736548 
L 79.859072 -189.730113 
L 79.859405 -191.723677 
L 79.862202 -193.717242 
L 79.866712 -195.710807 
L 79.870479 -197.704372 
L 79.872074 -199.697937 
L 79.872798 -201.691502 
L 79.875764 -203.685067 
L 79.883468 -205.678631 
L 79.896249 -207.672196 
L 79.912651 -209.665761 
L 79.930602 -211.659326 
L 79.948041 -213.652891 
L 79.96297 -215.646456 
L 79.973711 -217.640021 
L 79.979593 -219.633585 
L 79.981556 -221.62715 
L 79.982058 -223.620715 
L 79.984115 -225.61428 
L 79.989827 -227.607845 
L 79.999216 -229.60141 
L 80.010223 -231.594975 
L 80.01992 -233.588539 
L 80.026082 -235.582104 
L 80.028144 -237.575669 
L 80.027215 -239.569234 
L 80.025375 -241.562799 
L 80.024629 -243.556364 
L 80.055371 -243.556364 
L 80.055371 -243.556364 
L 80.054625 -241.562799 
L 80.052785 -239.569234 
L 80.051856 -237.575669 
L 80.053918 -235.582104 
L 80.06008 -233.588539 
L 80.069777 -231.594975 
L 80.080784 -229.60141 
L 80.090173 -227.607845 
L 80.095885 -225.61428 
L 80.097942 -223.620715 
L 80.098444 -221.62715 
L 80.100407 -219.633585 
L 80.106289 -217.640021 
L 80.11703 -215.646456 
L 80.131959 -213.652891 
L 80.149398 -211.659326 
L 80.167349 -209.665761 
L 80.183751 -207.672196 
L 80.196532 -205.678631 
L 80.204236 -203.685067 
L 80.207202 -201.691502 
L 80.207926 -199.697937 
L 80.209521 -197.704372 
L 80.213288 -195.710807 
L 80.217798 -193.717242 
L 80.220595 -191.723677 
L 80.220928 -189.730113 
L 80.220849 -187.736548 
L 80.223732 -185.742983 
L 80.231817 -183.749418 
L 80.245085 -181.755853 
L 80.261969 -179.762288 
L 80.28048 -177.768723 
L 80.298547 -175.775159 
L 80.313947 -173.781594 
L 80.324867 -171.788029 
L 80.331307 -169.794464 
L 80.336299 -167.800899 
L 80.345157 -165.807334 
L 80.361802 -163.81377 
L 80.384187 -161.820205 
L 80.403257 -159.82664 
L 80.408035 -157.833075 
L 80.393671 -155.83951 
L 80.365749 -153.845945 
L 80.336978 -151.85238 
L 80.31907 -149.858816 
L 80.316194 -147.865251 
L 80.324246 -145.871686 
L 80.335346 -143.878121 
L 80.343464 -141.884556 
L 80.347033 -139.890991 
L 80.347305 -137.897426 
L 80.345083 -135.903862 
L 80.339469 -133.910297 
L 80.329348 -131.916732 
L 80.315075 -129.923167 
L 80.298182 -127.929602 
L 80.279769 -125.936037 
L 80.259712 -123.942472 
L 80.237567 -121.948908 
L 80.214314 -119.955343 
L 80.193555 -117.961778 
L 80.18115 -115.968213 
L 80.182857 -113.974648 
L 80.200824 -111.981083 
L 80.231296 -109.987518 
L 80.265882 -107.993954 
L 80.296435 -106.000389 
L 80.320902 -104.006824 
L 80.346824 -102.013259 
L 80.390881 -100.019694 
L 80.475389 -98.026129 
L 80.62471 -96.032565 
L 80.865362 -94.039 
L 81.231278 -92.045435 
L 81.76906 -90.05187 
L 82.532599 -88.058305 
L 83.561838 -86.06474 
L 84.855976 -84.071175 
L 86.360352 -82.077611 
L 87.976266 -80.084046 
L 89.585495 -78.090481 
L 91.075058 -76.096916 
L 92.353761 -74.103351 
L 93.357592 -72.109786 
L 94.043816 -70.116221 
L 94.381116 -68.122657 
L 94.353246 -66.129092 
L 93.990145 -64.135527 
L 93.415378 -62.141962 
L 92.868635 -60.148397 
L 92.653692 -58.154832 
L 92.990898 -56.161267 
L 93.821757 -54.167703 
L 94.699505 -52.174138 
L 94.92 -50.180573 
L 93.902693 -48.187008 
L 91.582662 -46.193443 
z
" id="mfd92381f79" style="stroke:#3d3d3d;stroke-width:1.5;"/>
    </defs>
    <g clip-path="url(#p78afb41d94)">
     <use style="fill:#3274a1;stroke:#3d3d3d;stroke-width:1.5;" x="0" xlink:href="#mfd92381f79" y="288"/>
    </g>
   </g>
   <g id="PolyCollection_2">
    <defs>
     <path d="M 231.178722 -46.302205 
L 211.621278 -46.302205 
L 210.122114 -48.035335 
L 208.998321 -49.768464 
L 208.281244 -51.501594 
L 207.906921 -53.234723 
L 207.747998 -54.967853 
L 207.663901 -56.700982 
L 207.547219 -58.434112 
L 207.349692 -60.167241 
L 207.083542 -61.900371 
L 206.80498 -63.6335 
L 206.591207 -65.36663 
L 206.52 -67.099759 
L 206.655665 -68.832889 
L 207.040921 -70.566018 
L 207.692858 -72.299148 
L 208.601801 -74.032277 
L 209.73296 -75.765407 
L 211.031008 -77.498536 
L 212.42715 -79.231666 
L 213.847556 -80.964795 
L 215.221767 -82.697925 
L 216.489852 -84.431054 
L 217.607557 -86.164184 
L 218.549007 -87.897313 
L 219.306836 -89.630443 
L 219.889873 -91.363572 
L 220.318904 -93.096702 
L 220.621421 -94.829831 
L 220.826501 -96.562961 
L 220.960831 -98.29609 
L 221.046413 -100.02922 
L 221.099899 -101.762349 
L 221.133038 -103.495479 
L 221.15364 -105.228608 
L 221.166619 -106.961738 
L 221.174913 -108.694867 
L 221.180195 -110.427997 
L 221.183368 -112.161126 
L 221.184824 -113.894256 
L 221.184566 -115.627385 
L 221.182324 -117.360515 
L 221.177808 -119.093644 
L 221.171089 -120.826774 
L 221.162953 -122.559903 
L 221.154967 -124.293033 
L 221.149108 -126.026162 
L 221.147074 -127.759292 
L 221.149583 -129.492421 
L 221.15607 -131.225551 
L 221.164971 -132.95868 
L 221.174466 -134.69181 
L 221.183248 -136.424939 
L 221.190896 -138.158069 
L 221.197646 -139.891199 
L 221.203742 -141.624328 
L 221.208776 -143.357458 
L 221.211465 -145.090587 
L 221.210012 -146.823717 
L 221.202871 -148.556846 
L 221.189523 -150.289976 
L 221.170894 -152.023105 
L 221.149237 -153.756235 
L 221.127586 -155.489364 
L 221.109043 -157.222494 
L 221.096131 -158.955623 
L 221.090379 -160.688753 
L 221.092147 -162.421882 
L 221.100667 -164.155012 
L 221.114215 -165.888141 
L 221.130369 -167.621271 
L 221.146352 -169.3544 
L 221.159419 -171.08753 
L 221.167299 -172.820659 
L 221.168597 -174.553789 
L 221.163083 -176.286918 
L 221.151787 -178.020048 
L 221.136879 -179.753177 
L 221.121385 -181.486307 
L 221.108735 -183.219436 
L 221.102198 -184.952566 
L 221.104222 -186.685695 
L 221.115829 -188.418825 
L 221.136267 -190.151954 
L 221.163125 -191.885084 
L 221.192925 -193.618213 
L 221.221961 -195.351343 
L 221.247041 -197.084472 
L 221.265845 -198.817602 
L 221.276851 -200.550731 
L 221.27908 -202.283861 
L 221.271996 -204.01699 
L 221.255794 -205.75012 
L 221.231992 -207.483249 
L 221.203938 -209.216379 
L 221.176748 -210.949508 
L 221.156403 -212.682638 
L 221.14819 -214.415767 
L 221.155077 -216.148897 
L 221.176747 -217.882026 
L 221.623253 -217.882026 
L 221.623253 -217.882026 
L 221.644923 -216.148897 
L 221.65181 -214.415767 
L 221.643597 -212.682638 
L 221.623252 -210.949508 
L 221.596062 -209.216379 
L 221.568008 -207.483249 
L 221.544206 -205.75012 
L 221.528004 -204.01699 
L 221.52092 -202.283861 
L 221.523149 -200.550731 
L 221.534155 -198.817602 
L 221.552959 -197.084472 
L 221.578039 -195.351343 
L 221.607075 -193.618213 
L 221.636875 -191.885084 
L 221.663733 -190.151954 
L 221.684171 -188.418825 
L 221.695778 -186.685695 
L 221.697802 -184.952566 
L 221.691265 -183.219436 
L 221.678615 -181.486307 
L 221.663121 -179.753177 
L 221.648213 -178.020048 
L 221.636917 -176.286918 
L 221.631403 -174.553789 
L 221.632701 -172.820659 
L 221.640581 -171.08753 
L 221.653648 -169.3544 
L 221.669631 -167.621271 
L 221.685785 -165.888141 
L 221.699333 -164.155012 
L 221.707853 -162.421882 
L 221.709621 -160.688753 
L 221.703869 -158.955623 
L 221.690957 -157.222494 
L 221.672414 -155.489364 
L 221.650763 -153.756235 
L 221.629106 -152.023105 
L 221.610477 -150.289976 
L 221.597129 -148.556846 
L 221.589988 -146.823717 
L 221.588535 -145.090587 
L 221.591224 -143.357458 
L 221.596258 -141.624328 
L 221.602354 -139.891199 
L 221.609104 -138.158069 
L 221.616752 -136.424939 
L 221.625534 -134.69181 
L 221.635029 -132.95868 
L 221.64393 -131.225551 
L 221.650417 -129.492421 
L 221.652926 -127.759292 
L 221.650892 -126.026162 
L 221.645033 -124.293033 
L 221.637047 -122.559903 
L 221.628911 -120.826774 
L 221.622192 -119.093644 
L 221.617676 -117.360515 
L 221.615434 -115.627385 
L 221.615176 -113.894256 
L 221.616632 -112.161126 
L 221.619805 -110.427997 
L 221.625087 -108.694867 
L 221.633381 -106.961738 
L 221.64636 -105.228608 
L 221.666962 -103.495479 
L 221.700101 -101.762349 
L 221.753587 -100.02922 
L 221.839169 -98.29609 
L 221.973499 -96.562961 
L 222.178579 -94.829831 
L 222.481096 -93.096702 
L 222.910127 -91.363572 
L 223.493164 -89.630443 
L 224.250993 -87.897313 
L 225.192443 -86.164184 
L 226.310148 -84.431054 
L 227.578233 -82.697925 
L 228.952444 -80.964795 
L 230.37285 -79.231666 
L 231.768992 -77.498536 
L 233.06704 -75.765407 
L 234.198199 -74.032277 
L 235.107142 -72.299148 
L 235.759079 -70.566018 
L 236.144335 -68.832889 
L 236.28 -67.099759 
L 236.208793 -65.36663 
L 235.99502 -63.6335 
L 235.716458 -61.900371 
L 235.450308 -60.167241 
L 235.252781 -58.434112 
L 235.136099 -56.700982 
L 235.052002 -54.967853 
L 234.893079 -53.234723 
L 234.518756 -51.501594 
L 233.801679 -49.768464 
L 232.677886 -48.035335 
L 231.178722 -46.302205 
z
" id="mfb46396587" style="stroke:#3d3d3d;stroke-width:1.5;"/>
    </defs>
    <g clip-path="url(#p78afb41d94)">
     <use style="fill:#e1812c;stroke:#3d3d3d;stroke-width:1.5;" x="0" xlink:href="#mfb46396587" y="288"/>
    </g>
   </g>
   <g id="PolyCollection_3">
    <defs>
     <path d="M 373.401155 -45.883636 
L 352.118845 -45.883636 
L 350.228515 -47.675119 
L 348.871245 -49.466601 
L 348.118089 -51.258083 
L 347.88 -53.049566 
L 347.961025 -54.841048 
L 348.14566 -56.63253 
L 348.275712 -58.424013 
L 348.286548 -60.215495 
L 348.199713 -62.006977 
L 348.089346 -63.79846 
L 348.044488 -65.589942 
L 348.141996 -67.381424 
L 348.434033 -69.172907 
L 348.946694 -70.964389 
L 349.683894 -72.755871 
L 350.631748 -74.547354 
L 351.761148 -76.338836 
L 353.02864 -78.130318 
L 354.377458 -79.921801 
L 355.7411 -81.713283 
L 357.050727 -83.504765 
L 358.24523 -85.296248 
L 359.280605 -87.08773 
L 360.135051 -88.879212 
L 360.808256 -90.670695 
L 361.31613 -92.462177 
L 361.683868 -94.253659 
L 361.939933 -96.045142 
L 362.112118 -97.836624 
L 362.2254 -99.628106 
L 362.300746 -101.419589 
L 362.354247 -103.211071 
L 362.396585 -105.002554 
L 362.433218 -106.794036 
L 362.465513 -108.585518 
L 362.492568 -110.377001 
L 362.513004 -112.168483 
L 362.526103 -113.959965 
L 362.53214 -115.751448 
L 362.532221 -117.54293 
L 362.528027 -119.334412 
L 362.521556 -121.125895 
L 362.514749 -122.917377 
L 362.508956 -124.708859 
L 362.504497 -126.500342 
L 362.500688 -128.291824 
L 362.49645 -130.083306 
L 362.491154 -131.874789 
L 362.485175 -133.666271 
L 362.47979 -135.457753 
L 362.476539 -137.249236 
L 362.476504 -139.040718 
L 362.479915 -140.8322 
L 362.486269 -142.623683 
L 362.49479 -144.415165 
L 362.504926 -146.206647 
L 362.516573 -147.99813 
L 362.529921 -149.789612 
L 362.544983 -151.581094 
L 362.561115 -153.372577 
L 362.576808 -155.164059 
L 362.589974 -156.955541 
L 362.598681 -158.747024 
L 362.602003 -160.538506 
L 362.60055 -162.329988 
L 362.596292 -164.121471 
L 362.591683 -165.912953 
L 362.588507 -167.704435 
L 362.58709 -169.495918 
L 362.586378 -171.2874 
L 362.58484 -173.078882 
L 362.58161 -174.870365 
L 362.577104 -176.661847 
L 362.572717 -178.453329 
L 362.569818 -180.244812 
L 362.568725 -182.036294 
L 362.568246 -183.827776 
L 362.565979 -185.619259 
L 362.559203 -187.410741 
L 362.546028 -189.202223 
L 362.52643 -190.993706 
L 362.502811 -192.785188 
L 362.479751 -194.57667 
L 362.462896 -196.368153 
L 362.457279 -198.159635 
L 362.465747 -199.951117 
L 362.488093 -201.7426 
L 362.521191 -203.534082 
L 362.559964 -205.325564 
L 362.598751 -207.117047 
L 362.632611 -208.908529 
L 362.658282 -210.700011 
L 362.674649 -212.491494 
L 362.682688 -214.282976 
L 362.68494 -216.074458 
L 362.684661 -217.865941 
L 362.684912 -219.657423 
L 362.687834 -221.448905 
L 362.694283 -223.240388 
L 362.825717 -223.240388 
L 362.825717 -223.240388 
L 362.832166 -221.448905 
L 362.835088 -219.657423 
L 362.835339 -217.865941 
L 362.83506 -216.074458 
L 362.837312 -214.282976 
L 362.845351 -212.491494 
L 362.861718 -210.700011 
L 362.887389 -208.908529 
L 362.921249 -207.117047 
L 362.960036 -205.325564 
L 362.998809 -203.534082 
L 363.031907 -201.7426 
L 363.054253 -199.951117 
L 363.062721 -198.159635 
L 363.057104 -196.368153 
L 363.040249 -194.57667 
L 363.017189 -192.785188 
L 362.99357 -190.993706 
L 362.973972 -189.202223 
L 362.960797 -187.410741 
L 362.954021 -185.619259 
L 362.951754 -183.827776 
L 362.951275 -182.036294 
L 362.950182 -180.244812 
L 362.947283 -178.453329 
L 362.942896 -176.661847 
L 362.93839 -174.870365 
L 362.93516 -173.078882 
L 362.933622 -171.2874 
L 362.93291 -169.495918 
L 362.931493 -167.704435 
L 362.928317 -165.912953 
L 362.923708 -164.121471 
L 362.91945 -162.329988 
L 362.917997 -160.538506 
L 362.921319 -158.747024 
L 362.930026 -156.955541 
L 362.943192 -155.164059 
L 362.958885 -153.372577 
L 362.975017 -151.581094 
L 362.990079 -149.789612 
L 363.003427 -147.99813 
L 363.015074 -146.206647 
L 363.02521 -144.415165 
L 363.033731 -142.623683 
L 363.040085 -140.8322 
L 363.043496 -139.040718 
L 363.043461 -137.249236 
L 363.04021 -135.457753 
L 363.034825 -133.666271 
L 363.028846 -131.874789 
L 363.02355 -130.083306 
L 363.019312 -128.291824 
L 363.015503 -126.500342 
L 363.011044 -124.708859 
L 363.005251 -122.917377 
L 362.998444 -121.125895 
L 362.991973 -119.334412 
L 362.987779 -117.54293 
L 362.98786 -115.751448 
L 362.993897 -113.959965 
L 363.006996 -112.168483 
L 363.027432 -110.377001 
L 363.054487 -108.585518 
L 363.086782 -106.794036 
L 363.123415 -105.002554 
L 363.165753 -103.211071 
L 363.219254 -101.419589 
L 363.2946 -99.628106 
L 363.407882 -97.836624 
L 363.580067 -96.045142 
L 363.836132 -94.253659 
L 364.20387 -92.462177 
L 364.711744 -90.670695 
L 365.384949 -88.879212 
L 366.239395 -87.08773 
L 367.27477 -85.296248 
L 368.469273 -83.504765 
L 369.7789 -81.713283 
L 371.142542 -79.921801 
L 372.49136 -78.130318 
L 373.758852 -76.338836 
L 374.888252 -74.547354 
L 375.836106 -72.755871 
L 376.573306 -70.964389 
L 377.085967 -69.172907 
L 377.378004 -67.381424 
L 377.475512 -65.589942 
L 377.430654 -63.79846 
L 377.320287 -62.006977 
L 377.233452 -60.215495 
L 377.244288 -58.424013 
L 377.37434 -56.63253 
L 377.558975 -54.841048 
L 377.64 -53.049566 
L 377.401911 -51.258083 
L 376.648755 -49.466601 
L 375.291485 -47.675119 
L 373.401155 -45.883636 
z
" id="me6de601961" style="stroke:#3d3d3d;stroke-width:1.5;"/>
    </defs>
    <g clip-path="url(#p78afb41d94)">
     <use style="fill:#3a923a;stroke:#3d3d3d;stroke-width:1.5;" x="0" xlink:href="#me6de601961" y="288"/>
    </g>
   </g>
   <g id="patch_3">
    <path clip-path="url(#p78afb41d94)" d="M 109.8 309.725827 
L 109.8 309.725827 
L 109.8 309.725827 
L 109.8 309.725827 
z
" style="fill:#3274a1;stroke:#3d3d3d;stroke-linejoin:miter;stroke-width:0.75;"/>
   </g>
   <g id="patch_4">
    <path clip-path="url(#p78afb41d94)" d="M 109.8 309.725827 
L 109.8 309.725827 
L 109.8 309.725827 
L 109.8 309.725827 
z
" style="fill:#e1812c;stroke:#3d3d3d;stroke-linejoin:miter;stroke-width:0.75;"/>
   </g>
   <g id="patch_5">
    <path clip-path="url(#p78afb41d94)" d="M 109.8 309.725827 
L 109.8 309.725827 
L 109.8 309.725827 
L 109.8 309.725827 
z
" style="fill:#3a923a;stroke:#3d3d3d;stroke-linejoin:miter;stroke-width:0.75;"/>
   </g>
   <g id="matplotlib.axis_1">
    <g id="xtick_1">
     <g id="line2d_1">
      <defs>
       <path d="M 0 0 
L 0 3.5 
" id="me6de7d3d9d" style="stroke:#000000;stroke-width:0.8;"/>
      </defs>
      <g>
       <use style="stroke:#000000;stroke-width:0.8;" x="109.8" xlink:href="#me6de7d3d9d" y="252"/>
      </g>
     </g>
     <g id="text_1">
      <!-- train -->
      <g transform="translate(98.1625 266.598437)scale(0.1 -0.1)">
       <defs>
        <path d="M 18.3125 70.21875 
L 18.3125 54.6875 
L 36.8125 54.6875 
L 36.8125 47.703125 
L 18.3125 47.703125 
L 18.3125 18.015625 
Q 18.3125 11.328125 20.140625 9.421875 
Q 21.96875 7.515625 27.59375 7.515625 
L 36.8125 7.515625 
L 36.8125 0 
L 27.59375 0 
Q 17.1875 0 13.234375 3.875 
Q 9.28125 7.765625 9.28125 18.015625 
L 9.28125 47.703125 
L 2.6875 47.703125 
L 2.6875 54.6875 
L 9.28125 54.6875 
L 9.28125 70.21875 
z
" id="DejaVuSans-116"/>
        <path d="M 41.109375 46.296875 
Q 39.59375 47.171875 37.8125 47.578125 
Q 36.03125 48 33.890625 48 
Q 26.265625 48 22.1875 43.046875 
Q 18.109375 38.09375 18.109375 28.8125 
L 18.109375 0 
L 9.078125 0 
L 9.078125 54.6875 
L 18.109375 54.6875 
L 18.109375 46.1875 
Q 20.953125 51.171875 25.484375 53.578125 
Q 30.03125 56 36.53125 56 
Q 37.453125 56 38.578125 55.875 
Q 39.703125 55.765625 41.0625 55.515625 
z
" id="DejaVuSans-114"/>
        <path d="M 34.28125 27.484375 
Q 23.390625 27.484375 19.1875 25 
Q 14.984375 22.515625 14.984375 16.5 
Q 14.984375 11.71875 18.140625 8.90625 
Q 21.296875 6.109375 26.703125 6.109375 
Q 34.1875 6.109375 38.703125 11.40625 
Q 43.21875 16.703125 43.21875 25.484375 
L 43.21875 27.484375 
z
M 52.203125 31.203125 
L 52.203125 0 
L 43.21875 0 
L 43.21875 8.296875 
Q 40.140625 3.328125 35.546875 0.953125 
Q 30.953125 -1.421875 24.3125 -1.421875 
Q 15.921875 -1.421875 10.953125 3.296875 
Q 6 8.015625 6 15.921875 
Q 6 25.140625 12.171875 29.828125 
Q 18.359375 34.515625 30.609375 34.515625 
L 43.21875 34.515625 
L 43.21875 35.40625 
Q 43.21875 41.609375 39.140625 45 
Q 35.0625 48.390625 27.6875 48.390625 
Q 23 48.390625 18.546875 47.265625 
Q 14.109375 46.140625 10.015625 43.890625 
L 10.015625 52.203125 
Q 14.9375 54.109375 19.578125 55.046875 
Q 24.21875 56 28.609375 56 
Q 40.484375 56 46.34375 49.84375 
Q 52.203125 43.703125 52.203125 31.203125 
z
" id="DejaVuSans-97"/>
        <path d="M 9.421875 54.6875 
L 18.40625 54.6875 
L 18.40625 0 
L 9.421875 0 
z
M 9.421875 75.984375 
L 18.40625 75.984375 
L 18.40625 64.59375 
L 9.421875 64.59375 
z
" id="DejaVuSans-105"/>
        <path d="M 54.890625 33.015625 
L 54.890625 0 
L 45.90625 0 
L 45.90625 32.71875 
Q 45.90625 40.484375 42.875 44.328125 
Q 39.84375 48.1875 33.796875 48.1875 
Q 26.515625 48.1875 22.3125 43.546875 
Q 18.109375 38.921875 18.109375 30.90625 
L 18.109375 0 
L 9.078125 0 
L 9.078125 54.6875 
L 18.109375 54.6875 
L 18.109375 46.1875 
Q 21.34375 51.125 25.703125 53.5625 
Q 30.078125 56 35.796875 56 
Q 45.21875 56 50.046875 50.171875 
Q 54.890625 44.34375 54.890625 33.015625 
z
" id="DejaVuSans-110"/>
       </defs>
       <use xlink:href="#DejaVuSans-116"/>
       <use x="39.208984" xlink:href="#DejaVuSans-114"/>
       <use x="80.322266" xlink:href="#DejaVuSans-97"/>
       <use x="141.601562" xlink:href="#DejaVuSans-105"/>
       <use x="169.384766" xlink:href="#DejaVuSans-110"/>
      </g>
     </g>
    </g>
    <g id="xtick_2">
     <g id="line2d_2">
      <g>
       <use style="stroke:#000000;stroke-width:0.8;" x="221.4" xlink:href="#me6de7d3d9d" y="252"/>
      </g>
     </g>
     <g id="text_2">
      <!-- val -->
      <g transform="translate(213.9875 266.598437)scale(0.1 -0.1)">
       <defs>
        <path d="M 2.984375 54.6875 
L 12.5 54.6875 
L 29.59375 8.796875 
L 46.6875 54.6875 
L 56.203125 54.6875 
L 35.6875 0 
L 23.484375 0 
z
" id="DejaVuSans-118"/>
        <path d="M 9.421875 75.984375 
L 18.40625 75.984375 
L 18.40625 0 
L 9.421875 0 
z
" id="DejaVuSans-108"/>
       </defs>
       <use xlink:href="#DejaVuSans-118"/>
       <use x="59.179688" xlink:href="#DejaVuSans-97"/>
       <use x="120.458984" xlink:href="#DejaVuSans-108"/>
      </g>
     </g>
    </g>
    <g id="xtick_3">
     <g id="line2d_3">
      <g>
       <use style="stroke:#000000;stroke-width:0.8;" x="333" xlink:href="#me6de7d3d9d" y="252"/>
      </g>
     </g>
     <g id="text_3">
      <!-- test -->
      <g transform="translate(323.398438 266.598437)scale(0.1 -0.1)">
       <defs>
        <path d="M 56.203125 29.59375 
L 56.203125 25.203125 
L 14.890625 25.203125 
Q 15.484375 15.921875 20.484375 11.0625 
Q 25.484375 6.203125 34.421875 6.203125 
Q 39.59375 6.203125 44.453125 7.46875 
Q 49.3125 8.734375 54.109375 11.28125 
L 54.109375 2.78125 
Q 49.265625 0.734375 44.1875 -0.34375 
Q 39.109375 -1.421875 33.890625 -1.421875 
Q 20.796875 -1.421875 13.15625 6.1875 
Q 5.515625 13.8125 5.515625 26.8125 
Q 5.515625 40.234375 12.765625 48.109375 
Q 20.015625 56 32.328125 56 
Q 43.359375 56 49.78125 48.890625 
Q 56.203125 41.796875 56.203125 29.59375 
z
M 47.21875 32.234375 
Q 47.125 39.59375 43.09375 43.984375 
Q 39.0625 48.390625 32.421875 48.390625 
Q 24.90625 48.390625 20.390625 44.140625 
Q 15.875 39.890625 15.1875 32.171875 
z
" id="DejaVuSans-101"/>
        <path d="M 44.28125 53.078125 
L 44.28125 44.578125 
Q 40.484375 46.53125 36.375 47.5 
Q 32.28125 48.484375 27.875 48.484375 
Q 21.1875 48.484375 17.84375 46.4375 
Q 14.5 44.390625 14.5 40.28125 
Q 14.5 37.15625 16.890625 35.375 
Q 19.28125 33.59375 26.515625 31.984375 
L 29.59375 31.296875 
Q 39.15625 29.25 43.1875 25.515625 
Q 47.21875 21.78125 47.21875 15.09375 
Q 47.21875 7.46875 41.1875 3.015625 
Q 35.15625 -1.421875 24.609375 -1.421875 
Q 20.21875 -1.421875 15.453125 -0.5625 
Q 10.6875 0.296875 5.421875 2 
L 5.421875 11.28125 
Q 10.40625 8.6875 15.234375 7.390625 
Q 20.0625 6.109375 24.8125 6.109375 
Q 31.15625 6.109375 34.5625 8.28125 
Q 37.984375 10.453125 37.984375 14.40625 
Q 37.984375 18.0625 35.515625 20.015625 
Q 33.0625 21.96875 24.703125 23.78125 
L 21.578125 24.515625 
Q 13.234375 26.265625 9.515625 29.90625 
Q 5.8125 33.546875 5.8125 39.890625 
Q 5.8125 47.609375 11.28125 51.796875 
Q 16.75 56 26.8125 56 
Q 31.78125 56 36.171875 55.265625 
Q 40.578125 54.546875 44.28125 53.078125 
z
" id="DejaVuSans-115"/>
       </defs>
       <use xlink:href="#DejaVuSans-116"/>
       <use x="39.208984" xlink:href="#DejaVuSans-101"/>
       <use x="100.732422" xlink:href="#DejaVuSans-115"/>
       <use x="152.832031" xlink:href="#DejaVuSans-116"/>
      </g>
     </g>
    </g>
    <g id="text_4">
     <!-- set -->
     <g transform="translate(213.758594 280.276563)scale(0.1 -0.1)">
      <use xlink:href="#DejaVuSans-115"/>
      <use x="52.099609" xlink:href="#DejaVuSans-101"/>
      <use x="113.623047" xlink:href="#DejaVuSans-116"/>
     </g>
    </g>
   </g>
   <g id="matplotlib.axis_2">
    <g id="ytick_1">
     <g id="line2d_4">
      <defs>
       <path d="M 0 0 
L -3.5 0 
" id="m1df3297aba" style="stroke:#000000;stroke-width:0.8;"/>
      </defs>
      <g>
       <use style="stroke:#000000;stroke-width:0.8;" x="54" xlink:href="#m1df3297aba" y="226.348133"/>
      </g>
     </g>
     <g id="text_5">
      <!-- 0.15 -->
      <g transform="translate(24.734375 230.147351)scale(0.1 -0.1)">
       <defs>
        <path d="M 31.78125 66.40625 
Q 24.171875 66.40625 20.328125 58.90625 
Q 16.5 51.421875 16.5 36.375 
Q 16.5 21.390625 20.328125 13.890625 
Q 24.171875 6.390625 31.78125 6.390625 
Q 39.453125 6.390625 43.28125 13.890625 
Q 47.125 21.390625 47.125 36.375 
Q 47.125 51.421875 43.28125 58.90625 
Q 39.453125 66.40625 31.78125 66.40625 
z
M 31.78125 74.21875 
Q 44.046875 74.21875 50.515625 64.515625 
Q 56.984375 54.828125 56.984375 36.375 
Q 56.984375 17.96875 50.515625 8.265625 
Q 44.046875 -1.421875 31.78125 -1.421875 
Q 19.53125 -1.421875 13.0625 8.265625 
Q 6.59375 17.96875 6.59375 36.375 
Q 6.59375 54.828125 13.0625 64.515625 
Q 19.53125 74.21875 31.78125 74.21875 
z
" id="DejaVuSans-48"/>
        <path d="M 10.6875 12.40625 
L 21 12.40625 
L 21 0 
L 10.6875 0 
z
" id="DejaVuSans-46"/>
        <path d="M 12.40625 8.296875 
L 28.515625 8.296875 
L 28.515625 63.921875 
L 10.984375 60.40625 
L 10.984375 69.390625 
L 28.421875 72.90625 
L 38.28125 72.90625 
L 38.28125 8.296875 
L 54.390625 8.296875 
L 54.390625 0 
L 12.40625 0 
z
" id="DejaVuSans-49"/>
        <path d="M 10.796875 72.90625 
L 49.515625 72.90625 
L 49.515625 64.59375 
L 19.828125 64.59375 
L 19.828125 46.734375 
Q 21.96875 47.46875 24.109375 47.828125 
Q 26.265625 48.1875 28.421875 48.1875 
Q 40.625 48.1875 47.75 41.5 
Q 54.890625 34.8125 54.890625 23.390625 
Q 54.890625 11.625 47.5625 5.09375 
Q 40.234375 -1.421875 26.90625 -1.421875 
Q 22.3125 -1.421875 17.546875 -0.640625 
Q 12.796875 0.140625 7.71875 1.703125 
L 7.71875 11.625 
Q 12.109375 9.234375 16.796875 8.0625 
Q 21.484375 6.890625 26.703125 6.890625 
Q 35.15625 6.890625 40.078125 11.328125 
Q 45.015625 15.765625 45.015625 23.390625 
Q 45.015625 31 40.078125 35.4375 
Q 35.15625 39.890625 26.703125 39.890625 
Q 22.75 39.890625 18.8125 39.015625 
Q 14.890625 38.140625 10.796875 36.28125 
z
" id="DejaVuSans-53"/>
       </defs>
       <use xlink:href="#DejaVuSans-48"/>
       <use x="63.623047" xlink:href="#DejaVuSans-46"/>
       <use x="95.410156" xlink:href="#DejaVuSans-49"/>
       <use x="159.033203" xlink:href="#DejaVuSans-53"/>
      </g>
     </g>
    </g>
    <g id="ytick_2">
     <g id="line2d_5">
      <g>
       <use style="stroke:#000000;stroke-width:0.8;" x="54" xlink:href="#m1df3297aba" y="198.555568"/>
      </g>
     </g>
     <g id="text_6">
      <!-- 0.20 -->
      <g transform="translate(24.734375 202.354787)scale(0.1 -0.1)">
       <defs>
        <path d="M 19.1875 8.296875 
L 53.609375 8.296875 
L 53.609375 0 
L 7.328125 0 
L 7.328125 8.296875 
Q 12.9375 14.109375 22.625 23.890625 
Q 32.328125 33.6875 34.8125 36.53125 
Q 39.546875 41.84375 41.421875 45.53125 
Q 43.3125 49.21875 43.3125 52.78125 
Q 43.3125 58.59375 39.234375 62.25 
Q 35.15625 65.921875 28.609375 65.921875 
Q 23.96875 65.921875 18.8125 64.3125 
Q 13.671875 62.703125 7.8125 59.421875 
L 7.8125 69.390625 
Q 13.765625 71.78125 18.9375 73 
Q 24.125 74.21875 28.421875 74.21875 
Q 39.75 74.21875 46.484375 68.546875 
Q 53.21875 62.890625 53.21875 53.421875 
Q 53.21875 48.921875 51.53125 44.890625 
Q 49.859375 40.875 45.40625 35.40625 
Q 44.1875 33.984375 37.640625 27.21875 
Q 31.109375 20.453125 19.1875 8.296875 
z
" id="DejaVuSans-50"/>
       </defs>
       <use xlink:href="#DejaVuSans-48"/>
       <use x="63.623047" xlink:href="#DejaVuSans-46"/>
       <use x="95.410156" xlink:href="#DejaVuSans-50"/>
       <use x="159.033203" xlink:href="#DejaVuSans-48"/>
      </g>
     </g>
    </g>
    <g id="ytick_3">
     <g id="line2d_6">
      <g>
       <use style="stroke:#000000;stroke-width:0.8;" x="54" xlink:href="#m1df3297aba" y="170.763003"/>
      </g>
     </g>
     <g id="text_7">
      <!-- 0.25 -->
      <g transform="translate(24.734375 174.562222)scale(0.1 -0.1)">
       <use xlink:href="#DejaVuSans-48"/>
       <use x="63.623047" xlink:href="#DejaVuSans-46"/>
       <use x="95.410156" xlink:href="#DejaVuSans-50"/>
       <use x="159.033203" xlink:href="#DejaVuSans-53"/>
      </g>
     </g>
    </g>
    <g id="ytick_4">
     <g id="line2d_7">
      <g>
       <use style="stroke:#000000;stroke-width:0.8;" x="54" xlink:href="#m1df3297aba" y="142.970438"/>
      </g>
     </g>
     <g id="text_8">
      <!-- 0.30 -->
      <g transform="translate(24.734375 146.769657)scale(0.1 -0.1)">
       <defs>
        <path d="M 40.578125 39.3125 
Q 47.65625 37.796875 51.625 33 
Q 55.609375 28.21875 55.609375 21.1875 
Q 55.609375 10.40625 48.1875 4.484375 
Q 40.765625 -1.421875 27.09375 -1.421875 
Q 22.515625 -1.421875 17.65625 -0.515625 
Q 12.796875 0.390625 7.625 2.203125 
L 7.625 11.71875 
Q 11.71875 9.328125 16.59375 8.109375 
Q 21.484375 6.890625 26.8125 6.890625 
Q 36.078125 6.890625 40.9375 10.546875 
Q 45.796875 14.203125 45.796875 21.1875 
Q 45.796875 27.640625 41.28125 31.265625 
Q 36.765625 34.90625 28.71875 34.90625 
L 20.21875 34.90625 
L 20.21875 43.015625 
L 29.109375 43.015625 
Q 36.375 43.015625 40.234375 45.921875 
Q 44.09375 48.828125 44.09375 54.296875 
Q 44.09375 59.90625 40.109375 62.90625 
Q 36.140625 65.921875 28.71875 65.921875 
Q 24.65625 65.921875 20.015625 65.03125 
Q 15.375 64.15625 9.8125 62.3125 
L 9.8125 71.09375 
Q 15.4375 72.65625 20.34375 73.4375 
Q 25.25 74.21875 29.59375 74.21875 
Q 40.828125 74.21875 47.359375 69.109375 
Q 53.90625 64.015625 53.90625 55.328125 
Q 53.90625 49.265625 50.4375 45.09375 
Q 46.96875 40.921875 40.578125 39.3125 
z
" id="DejaVuSans-51"/>
       </defs>
       <use xlink:href="#DejaVuSans-48"/>
       <use x="63.623047" xlink:href="#DejaVuSans-46"/>
       <use x="95.410156" xlink:href="#DejaVuSans-51"/>
       <use x="159.033203" xlink:href="#DejaVuSans-48"/>
      </g>
     </g>
    </g>
    <g id="ytick_5">
     <g id="line2d_8">
      <g>
       <use style="stroke:#000000;stroke-width:0.8;" x="54" xlink:href="#m1df3297aba" y="115.177873"/>
      </g>
     </g>
     <g id="text_9">
      <!-- 0.35 -->
      <g transform="translate(24.734375 118.977092)scale(0.1 -0.1)">
       <use xlink:href="#DejaVuSans-48"/>
       <use x="63.623047" xlink:href="#DejaVuSans-46"/>
       <use x="95.410156" xlink:href="#DejaVuSans-51"/>
       <use x="159.033203" xlink:href="#DejaVuSans-53"/>
      </g>
     </g>
    </g>
    <g id="ytick_6">
     <g id="line2d_9">
      <g>
       <use style="stroke:#000000;stroke-width:0.8;" x="54" xlink:href="#m1df3297aba" y="87.385308"/>
      </g>
     </g>
     <g id="text_10">
      <!-- 0.40 -->
      <g transform="translate(24.734375 91.184527)scale(0.1 -0.1)">
       <defs>
        <path d="M 37.796875 64.3125 
L 12.890625 25.390625 
L 37.796875 25.390625 
z
M 35.203125 72.90625 
L 47.609375 72.90625 
L 47.609375 25.390625 
L 58.015625 25.390625 
L 58.015625 17.1875 
L 47.609375 17.1875 
L 47.609375 0 
L 37.796875 0 
L 37.796875 17.1875 
L 4.890625 17.1875 
L 4.890625 26.703125 
z
" id="DejaVuSans-52"/>
       </defs>
       <use xlink:href="#DejaVuSans-48"/>
       <use x="63.623047" xlink:href="#DejaVuSans-46"/>
       <use x="95.410156" xlink:href="#DejaVuSans-52"/>
       <use x="159.033203" xlink:href="#DejaVuSans-48"/>
      </g>
     </g>
    </g>
    <g id="ytick_7">
     <g id="line2d_10">
      <g>
       <use style="stroke:#000000;stroke-width:0.8;" x="54" xlink:href="#m1df3297aba" y="59.592743"/>
      </g>
     </g>
     <g id="text_11">
      <!-- 0.45 -->
      <g transform="translate(24.734375 63.391962)scale(0.1 -0.1)">
       <use xlink:href="#DejaVuSans-48"/>
       <use x="63.623047" xlink:href="#DejaVuSans-46"/>
       <use x="95.410156" xlink:href="#DejaVuSans-52"/>
       <use x="159.033203" xlink:href="#DejaVuSans-53"/>
      </g>
     </g>
    </g>
    <g id="text_12">
     <!-- value -->
     <g transform="translate(18.654688 156.937813)rotate(-90)scale(0.1 -0.1)">
      <defs>
       <path d="M 8.5 21.578125 
L 8.5 54.6875 
L 17.484375 54.6875 
L 17.484375 21.921875 
Q 17.484375 14.15625 20.5 10.265625 
Q 23.53125 6.390625 29.59375 6.390625 
Q 36.859375 6.390625 41.078125 11.03125 
Q 45.3125 15.671875 45.3125 23.6875 
L 45.3125 54.6875 
L 54.296875 54.6875 
L 54.296875 0 
L 45.3125 0 
L 45.3125 8.40625 
Q 42.046875 3.421875 37.71875 1 
Q 33.40625 -1.421875 27.6875 -1.421875 
Q 18.265625 -1.421875 13.375 4.4375 
Q 8.5 10.296875 8.5 21.578125 
z
M 31.109375 56 
z
" id="DejaVuSans-117"/>
      </defs>
      <use xlink:href="#DejaVuSans-118"/>
      <use x="59.179688" xlink:href="#DejaVuSans-97"/>
      <use x="120.458984" xlink:href="#DejaVuSans-108"/>
      <use x="148.242188" xlink:href="#DejaVuSans-117"/>
      <use x="211.621094" xlink:href="#DejaVuSans-101"/>
     </g>
    </g>
   </g>
   <g id="line2d_11">
    <path clip-path="url(#p78afb41d94)" d="M 80.04 241.806557 
L 80.04 182.499325 
" style="fill:none;stroke:#3d3d3d;stroke-linecap:square;stroke-width:1.5;"/>
   </g>
   <g id="line2d_12">
    <path clip-path="url(#p78afb41d94)" d="M 80.04 236.51488 
L 80.04 214.590652 
" style="fill:none;stroke:#3d3d3d;stroke-linecap:square;stroke-width:4.5;"/>
   </g>
   <g id="line2d_13">
    <path clip-path="url(#p78afb41d94)" d="M 221.4 241.697795 
L 221.4 187.40093 
" style="fill:none;stroke:#3d3d3d;stroke-linecap:square;stroke-width:1.5;"/>
   </g>
   <g id="line2d_14">
    <path clip-path="url(#p78afb41d94)" d="M 221.4 235.169271 
L 221.4 214.679117 
" style="fill:none;stroke:#3d3d3d;stroke-linecap:square;stroke-width:4.5;"/>
   </g>
   <g id="line2d_15">
    <path clip-path="url(#p78afb41d94)" d="M 362.76 242.116364 
L 362.76 184.480479 
" style="fill:none;stroke:#3d3d3d;stroke-linecap:square;stroke-width:1.5;"/>
   </g>
   <g id="line2d_16">
    <path clip-path="url(#p78afb41d94)" d="M 362.76 235.794933 
L 362.76 214.850479 
" style="fill:none;stroke:#3d3d3d;stroke-linecap:square;stroke-width:4.5;"/>
   </g>
   <g id="patch_6">
    <path d="M 54 252 
L 54 34.56 
" style="fill:none;stroke:#000000;stroke-linecap:square;stroke-linejoin:miter;stroke-width:0.8;"/>
   </g>
   <g id="patch_7">
    <path d="M 388.8 252 
L 388.8 34.56 
" style="fill:none;stroke:#000000;stroke-linecap:square;stroke-linejoin:miter;stroke-width:0.8;"/>
   </g>
   <g id="patch_8">
    <path d="M 54 252 
L 388.8 252 
" style="fill:none;stroke:#000000;stroke-linecap:square;stroke-linejoin:miter;stroke-width:0.8;"/>
   </g>
   <g id="patch_9">
    <path d="M 54 34.56 
L 388.8 34.56 
" style="fill:none;stroke:#000000;stroke-linecap:square;stroke-linejoin:miter;stroke-width:0.8;"/>
   </g>
   <g id="PathCollection_1">
    <defs>
     <path d="M 0 1.5 
C 0.397805 1.5 0.77937 1.341951 1.06066 1.06066 
C 1.341951 0.77937 1.5 0.397805 1.5 0 
C 1.5 -0.397805 1.341951 -0.77937 1.06066 -1.06066 
C 0.77937 -1.341951 0.397805 -1.5 0 -1.5 
C -0.397805 -1.5 -0.77937 -1.341951 -1.06066 -1.06066 
C -1.341951 -0.77937 -1.5 -0.397805 -1.5 0 
C -1.5 0.397805 -1.341951 0.77937 -1.06066 1.06066 
C -0.77937 1.341951 -0.397805 1.5 0 1.5 
z
" id="m8e5c7866a9" style="stroke:#3d3d3d;"/>
    </defs>
    <g clip-path="url(#p78afb41d94)">
     <use style="fill:#ffffff;stroke:#3d3d3d;" x="80.04" xlink:href="#m8e5c7866a9" y="223.893778"/>
    </g>
   </g>
   <g id="PathCollection_2">
    <g clip-path="url(#p78afb41d94)">
     <use style="fill:#ffffff;stroke:#3d3d3d;" x="221.4" xlink:href="#m8e5c7866a9" y="223.5109"/>
    </g>
   </g>
   <g id="PathCollection_3">
    <g clip-path="url(#p78afb41d94)">
     <use style="fill:#ffffff;stroke:#3d3d3d;" x="362.76" xlink:href="#m8e5c7866a9" y="224.406771"/>
    </g>
   </g>
   <g id="legend_1">
    <g id="patch_10">
     <path d="M 326.525 101.2725 
L 381.8 101.2725 
Q 383.8 101.2725 383.8 99.2725 
L 383.8 41.56 
Q 383.8 39.56 381.8 39.56 
L 326.525 39.56 
Q 324.525 39.56 324.525 41.56 
L 324.525 99.2725 
Q 324.525 101.2725 326.525 101.2725 
z
" style="fill:#ffffff;opacity:0.8;stroke:#cccccc;stroke-linejoin:miter;"/>
    </g>
    <g id="text_13">
     <!-- set -->
     <g transform="translate(346.521094 51.158437)scale(0.1 -0.1)">
      <use xlink:href="#DejaVuSans-115"/>
      <use x="52.099609" xlink:href="#DejaVuSans-101"/>
      <use x="113.623047" xlink:href="#DejaVuSans-116"/>
     </g>
    </g>
    <g id="patch_11">
     <path d="M 328.525 65.836562 
L 348.525 65.836562 
L 348.525 58.836562 
L 328.525 58.836562 
z
" style="fill:#3274a1;stroke:#3d3d3d;stroke-linejoin:miter;stroke-width:0.75;"/>
    </g>
    <g id="text_14">
     <!-- train -->
     <g transform="translate(356.525 65.836562)scale(0.1 -0.1)">
      <use xlink:href="#DejaVuSans-116"/>
      <use x="39.208984" xlink:href="#DejaVuSans-114"/>
      <use x="80.322266" xlink:href="#DejaVuSans-97"/>
      <use x="141.601562" xlink:href="#DejaVuSans-105"/>
      <use x="169.384766" xlink:href="#DejaVuSans-110"/>
     </g>
    </g>
    <g id="patch_12">
     <path d="M 328.525 80.514687 
L 348.525 80.514687 
L 348.525 73.514687 
L 328.525 73.514687 
z
" style="fill:#e1812c;stroke:#3d3d3d;stroke-linejoin:miter;stroke-width:0.75;"/>
    </g>
    <g id="text_15">
     <!-- val -->
     <g transform="translate(356.525 80.514687)scale(0.1 -0.1)">
      <use xlink:href="#DejaVuSans-118"/>
      <use x="59.179688" xlink:href="#DejaVuSans-97"/>
      <use x="120.458984" xlink:href="#DejaVuSans-108"/>
     </g>
    </g>
    <g id="patch_13">
     <path d="M 328.525 95.192813 
L 348.525 95.192813 
L 348.525 88.192813 
L 328.525 88.192813 
z
" style="fill:#3a923a;stroke:#3d3d3d;stroke-linejoin:miter;stroke-width:0.75;"/>
    </g>
    <g id="text_16">
     <!-- test -->
     <g transform="translate(356.525 95.192813)scale(0.1 -0.1)">
      <use xlink:href="#DejaVuSans-116"/>
      <use x="39.208984" xlink:href="#DejaVuSans-101"/>
      <use x="100.732422" xlink:href="#DejaVuSans-115"/>
      <use x="152.832031" xlink:href="#DejaVuSans-116"/>
     </g>
    </g>
   </g>
  </g>
 </g>
 <defs>
  <clipPath id="p78afb41d94">
   <rect height="217.44" width="334.8" x="54" y="34.56"/>
  </clipPath>
 </defs>
</svg>
