<?xml version="1.0" encoding="utf-8" standalone="no"?>
<!DOCTYPE svg PUBLIC "-//W3C//DTD SVG 1.1//EN"
  "http://www.w3.org/Graphics/SVG/1.1/DTD/svg11.dtd">
<!-- Created with matplotlib (https://matplotlib.org/) -->
<svg height="288pt" version="1.1" viewBox="0 0 432 288" width="432pt" xmlns="http://www.w3.org/2000/svg" xmlns:xlink="http://www.w3.org/1999/xlink">
 <metadata>
  <rdf:RDF xmlns:cc="http://creativecommons.org/ns#" xmlns:dc="http://purl.org/dc/elements/1.1/" xmlns:rdf="http://www.w3.org/1999/02/22-rdf-syntax-ns#">
   <cc:Work>
    <dc:type rdf:resource="http://purl.org/dc/dcmitype/StillImage"/>
    <dc:date>2021-07-13T18:10:26.343620</dc:date>
    <dc:format>image/svg+xml</dc:format>
    <dc:creator>
     <cc:Agent>
      <dc:title>Matplotlib v3.3.4, https://matplotlib.org/</dc:title>
     </cc:Agent>
    </dc:creator>
   </cc:Work>
  </rdf:RDF>
 </metadata>
 <defs>
  <style type="text/css">*{stroke-linecap:butt;stroke-linejoin:round;}</style>
 </defs>
 <g id="figure_1">
  <g id="patch_1">
   <path d="M 0 288 
L 432 288 
L 432 0 
L 0 0 
z
" style="fill:#ffffff;"/>
  </g>
  <g id="axes_1">
   <g id="patch_2">
    <path d="M 54 252 
L 388.8 252 
L 388.8 34.56 
L 54 34.56 
z
" style="fill:#ffffff;"/>
   </g>
   <g id="PolyCollection_1">
    <defs>
     <path d="M 111.474007 -53.137781 
L 96.965993 -53.137781 
L 94.466993 -55.033934 
L 91.608996 -56.930088 
L 88.505635 -58.826241 
L 85.306066 -60.722394 
L 82.175015 -62.618547 
L 79.270053 -64.5147 
L 76.721299 -66.410853 
L 74.617436 -68.307007 
L 72.999545 -70.20316 
L 71.862131 -72.099313 
L 71.159626 -73.995466 
L 70.81656 -75.891619 
L 70.74 -77.787772 
L 70.833 -79.683926 
L 71.007508 -81.580079 
L 71.194857 -83.476232 
L 71.352084 -85.372385 
L 71.463203 -87.268538 
L 71.535846 -89.164691 
L 71.594718 -91.060844 
L 71.673631 -92.956998 
L 71.807543 -94.853151 
L 72.025453 -96.749304 
L 72.344723 -98.645457 
L 72.767519 -100.54161 
L 73.280197 -102.437763 
L 73.856091 -104.333917 
L 74.461254 -106.23007 
L 75.061557 -108.126223 
L 75.628931 -110.022376 
L 76.144847 -111.918529 
L 76.600312 -113.814682 
L 76.993125 -115.710836 
L 77.324172 -117.606989 
L 77.594686 -119.503142 
L 77.80571 -121.399295 
L 77.959872 -123.295448 
L 78.064501 -125.191601 
L 78.134547 -127.087755 
L 78.193776 -128.983908 
L 78.27332 -130.880061 
L 78.407611 -132.776214 
L 78.628647 -134.672367 
L 78.960149 -136.56852 
L 79.413189 -138.464674 
L 79.98431 -140.360827 
L 80.656328 -142.25698 
L 81.401221 -144.153133 
L 82.184246 -146.049286 
L 82.968549 -147.945439 
L 83.71986 -149.841593 
L 84.410972 -151.737746 
L 85.02551 -153.633899 
L 85.560143 -155.530052 
L 86.024371 -157.426205 
L 86.43752 -159.322358 
L 86.823514 -161.218512 
L 87.204818 -163.114665 
L 87.597322 -165.010818 
L 88.00756 -166.906971 
L 88.43288 -168.803124 
L 88.864255 -170.699277 
L 89.290734 -172.595431 
L 89.704184 -174.491584 
L 90.102921 -176.387737 
L 90.493151 -178.28389 
L 90.887831 -180.180043 
L 91.303386 -182.076196 
L 91.755563 -183.97235 
L 92.255942 -185.868503 
L 92.810286 -187.764656 
L 93.418917 -189.660809 
L 94.078402 -191.556962 
L 94.783285 -193.453115 
L 95.526887 -195.349269 
L 96.300924 -197.245422 
L 97.094502 -199.141575 
L 97.893441 -201.037728 
L 98.680636 -202.933881 
L 99.437606 -204.830034 
L 100.146764 -206.726188 
L 100.793647 -208.622341 
L 101.368479 -210.518494 
L 101.866746 -212.414647 
L 102.288896 -214.3108 
L 102.639431 -216.206953 
L 102.925754 -218.103107 
L 103.156982 -219.99926 
L 103.342862 -221.895413 
L 103.492827 -223.791566 
L 103.615228 -225.687719 
L 103.716811 -227.583872 
L 103.802487 -229.480026 
L 103.875457 -231.376179 
L 103.937613 -233.272332 
L 103.9901 -235.168485 
L 104.033851 -237.064638 
L 104.069917 -238.960791 
L 104.09954 -240.856945 
L 104.34046 -240.856945 
L 104.34046 -240.856945 
L 104.370083 -238.960791 
L 104.406149 -237.064638 
L 104.4499 -235.168485 
L 104.502387 -233.272332 
L 104.564543 -231.376179 
L 104.637513 -229.480026 
L 104.723189 -227.583872 
L 104.824772 -225.687719 
L 104.947173 -223.791566 
L 105.097138 -221.895413 
L 105.283018 -219.99926 
L 105.514246 -218.103107 
L 105.800569 -216.206953 
L 106.151104 -214.3108 
L 106.573254 -212.414647 
L 107.071521 -210.518494 
L 107.646353 -208.622341 
L 108.293236 -206.726188 
L 109.002394 -204.830034 
L 109.759364 -202.933881 
L 110.546559 -201.037728 
L 111.345498 -199.141575 
L 112.139076 -197.245422 
L 112.913113 -195.349269 
L 113.656715 -193.453115 
L 114.361598 -191.556962 
L 115.021083 -189.660809 
L 115.629714 -187.764656 
L 116.184058 -185.868503 
L 116.684437 -183.97235 
L 117.136614 -182.076196 
L 117.552169 -180.180043 
L 117.946849 -178.28389 
L 118.337079 -176.387737 
L 118.735816 -174.491584 
L 119.149266 -172.595431 
L 119.575745 -170.699277 
L 120.00712 -168.803124 
L 120.43244 -166.906971 
L 120.842678 -165.010818 
L 121.235182 -163.114665 
L 121.616486 -161.218512 
L 122.00248 -159.322358 
L 122.415629 -157.426205 
L 122.879857 -155.530052 
L 123.41449 -153.633899 
L 124.029028 -151.737746 
L 124.72014 -149.841593 
L 125.471451 -147.945439 
L 126.255754 -146.049286 
L 127.038779 -144.153133 
L 127.783672 -142.25698 
L 128.45569 -140.360827 
L 129.026811 -138.464674 
L 129.479851 -136.56852 
L 129.811353 -134.672367 
L 130.032389 -132.776214 
L 130.16668 -130.880061 
L 130.246224 -128.983908 
L 130.305453 -127.087755 
L 130.375499 -125.191601 
L 130.480128 -123.295448 
L 130.63429 -121.399295 
L 130.845314 -119.503142 
L 131.115828 -117.606989 
L 131.446875 -115.710836 
L 131.839688 -113.814682 
L 132.295153 -111.918529 
L 132.811069 -110.022376 
L 133.378443 -108.126223 
L 133.978746 -106.23007 
L 134.583909 -104.333917 
L 135.159803 -102.437763 
L 135.672481 -100.54161 
L 136.095277 -98.645457 
L 136.414547 -96.749304 
L 136.632457 -94.853151 
L 136.766369 -92.956998 
L 136.845282 -91.060844 
L 136.904154 -89.164691 
L 136.976797 -87.268538 
L 137.087916 -85.372385 
L 137.245143 -83.476232 
L 137.432492 -81.580079 
L 137.607 -79.683926 
L 137.7 -77.787772 
L 137.62344 -75.891619 
L 137.280374 -73.995466 
L 136.577869 -72.099313 
L 135.440455 -70.20316 
L 133.822564 -68.307007 
L 131.718701 -66.410853 
L 129.169947 -64.5147 
L 126.264985 -62.618547 
L 123.133934 -60.722394 
L 119.934365 -58.826241 
L 116.831004 -56.930088 
L 113.973007 -55.033934 
L 111.474007 -53.137781 
z
" id="m75c9cd6631" style="stroke:#3f3f3f;stroke-width:1.5;"/>
    </defs>
    <g clip-path="url(#p5708d4a6b7)">
     <use style="fill:#3274a1;stroke:#3f3f3f;stroke-width:1.5;" x="0" xlink:href="#m75c9cd6631" y="288"/>
    </g>
   </g>
   <g id="PolyCollection_2">
    <defs>
     <path d="M 346.750356 -45.883636 
L 330.409644 -45.883636 
L 327.902855 -47.880331 
L 325.138581 -49.877025 
L 322.237696 -51.873719 
L 319.336065 -53.870413 
L 316.564774 -55.867107 
L 314.033308 -57.863802 
L 311.819422 -59.860496 
L 309.966504 -61.85719 
L 308.486481 -63.853884 
L 307.365163 -65.850579 
L 306.567662 -67.847273 
L 306.043321 -69.843967 
L 305.730951 -71.840661 
L 305.565349 -73.837355 
L 305.484983 -75.83405 
L 305.439449 -77.830744 
L 305.394763 -79.827438 
L 305.335092 -81.824132 
L 305.260842 -83.820826 
L 305.184217 -85.817521 
L 305.123869 -87.814215 
L 305.1 -89.810909 
L 305.130546 -91.807603 
L 305.228505 -93.804298 
L 305.400213 -95.800992 
L 305.644559 -97.797686 
L 305.953272 -99.79438 
L 306.312466 -101.791074 
L 306.70528 -103.787769 
L 307.115003 -105.784463 
L 307.527762 -107.781157 
L 307.933846 -109.777851 
L 308.327219 -111.774545 
L 308.703469 -113.77124 
L 309.057175 -115.767934 
L 309.3801 -117.764628 
L 309.661515 -119.761322 
L 309.891273 -121.758017 
L 310.06505 -123.754711 
L 310.18994 -125.751405 
L 310.28786 -127.748099 
L 310.394538 -129.744793 
L 310.553411 -131.741488 
L 310.805821 -133.738182 
L 311.180693 -135.734876 
L 311.687284 -137.73157 
L 312.313444 -139.728264 
L 313.029574 -141.724959 
L 313.796418 -143.721653 
L 314.573765 -145.718347 
L 315.327577 -147.715041 
L 316.03434 -149.711736 
L 316.682685 -151.70843 
L 317.272941 -153.705124 
L 317.815147 -155.701818 
L 318.325743 -157.698512 
L 318.823184 -159.695207 
L 319.323144 -161.691901 
L 319.834508 -163.688595 
L 320.357441 -165.685289 
L 320.88427 -167.681983 
L 321.402931 -169.678678 
L 321.901792 -171.675372 
L 322.374259 -173.672066 
L 322.821733 -175.66876 
L 323.25413 -177.665455 
L 323.687962 -179.662149 
L 324.142692 -181.658843 
L 324.636509 -183.655537 
L 325.182825 -185.652231 
L 325.788469 -187.648926 
L 326.453909 -189.64562 
L 327.175029 -191.642314 
L 327.945341 -193.639008 
L 328.757476 -195.635702 
L 329.603267 -197.632397 
L 330.472664 -199.629091 
L 331.352394 -201.625785 
L 332.225491 -203.622479 
L 333.072323 -205.619174 
L 333.872953 -207.615868 
L 334.609992 -209.612562 
L 335.270923 -211.609256 
L 335.849197 -213.60595 
L 336.34402 -215.602645 
L 336.759204 -217.599339 
L 337.101701 -219.596033 
L 337.380254 -221.592727 
L 337.604376 -223.589421 
L 337.783605 -225.586116 
L 337.926923 -227.58281 
L 338.042265 -229.579504 
L 338.136161 -231.576198 
L 338.213586 -233.572893 
L 338.27807 -235.569587 
L 338.332037 -237.566281 
L 338.377223 -239.562975 
L 338.415037 -241.559669 
L 338.446749 -243.556364 
L 338.713251 -243.556364 
L 338.713251 -243.556364 
L 338.744963 -241.559669 
L 338.782777 -239.562975 
L 338.827963 -237.566281 
L 338.88193 -235.569587 
L 338.946414 -233.572893 
L 339.023839 -231.576198 
L 339.117735 -229.579504 
L 339.233077 -227.58281 
L 339.376395 -225.586116 
L 339.555624 -223.589421 
L 339.779746 -221.592727 
L 340.058299 -219.596033 
L 340.400796 -217.599339 
L 340.81598 -215.602645 
L 341.310803 -213.60595 
L 341.889077 -211.609256 
L 342.550008 -209.612562 
L 343.287047 -207.615868 
L 344.087677 -205.619174 
L 344.934509 -203.622479 
L 345.807606 -201.625785 
L 346.687336 -199.629091 
L 347.556733 -197.632397 
L 348.402524 -195.635702 
L 349.214659 -193.639008 
L 349.984971 -191.642314 
L 350.706091 -189.64562 
L 351.371531 -187.648926 
L 351.977175 -185.652231 
L 352.523491 -183.655537 
L 353.017308 -181.658843 
L 353.472038 -179.662149 
L 353.90587 -177.665455 
L 354.338267 -175.66876 
L 354.785741 -173.672066 
L 355.258208 -171.675372 
L 355.757069 -169.678678 
L 356.27573 -167.681983 
L 356.802559 -165.685289 
L 357.325492 -163.688595 
L 357.836856 -161.691901 
L 358.336816 -159.695207 
L 358.834257 -157.698512 
L 359.344853 -155.701818 
L 359.887059 -153.705124 
L 360.477315 -151.70843 
L 361.12566 -149.711736 
L 361.832423 -147.715041 
L 362.586235 -145.718347 
L 363.363582 -143.721653 
L 364.130426 -141.724959 
L 364.846556 -139.728264 
L 365.472716 -137.73157 
L 365.979307 -135.734876 
L 366.354179 -133.738182 
L 366.606589 -131.741488 
L 366.765462 -129.744793 
L 366.87214 -127.748099 
L 366.97006 -125.751405 
L 367.09495 -123.754711 
L 367.268727 -121.758017 
L 367.498485 -119.761322 
L 367.7799 -117.764628 
L 368.102825 -115.767934 
L 368.456531 -113.77124 
L 368.832781 -111.774545 
L 369.226154 -109.777851 
L 369.632238 -107.781157 
L 370.044997 -105.784463 
L 370.45472 -103.787769 
L 370.847534 -101.791074 
L 371.206728 -99.79438 
L 371.515441 -97.797686 
L 371.759787 -95.800992 
L 371.931495 -93.804298 
L 372.029454 -91.807603 
L 372.06 -89.810909 
L 372.036131 -87.814215 
L 371.975783 -85.817521 
L 371.899158 -83.820826 
L 371.824908 -81.824132 
L 371.765237 -79.827438 
L 371.720551 -77.830744 
L 371.675017 -75.83405 
L 371.594651 -73.837355 
L 371.429049 -71.840661 
L 371.116679 -69.843967 
L 370.592338 -67.847273 
L 369.794837 -65.850579 
L 368.673519 -63.853884 
L 367.193496 -61.85719 
L 365.340578 -59.860496 
L 363.126692 -57.863802 
L 360.595226 -55.867107 
L 357.823935 -53.870413 
L 354.922304 -51.873719 
L 352.021419 -49.877025 
L 349.257145 -47.880331 
L 346.750356 -45.883636 
z
" id="m83b7cd9399" style="stroke:#3f3f3f;stroke-width:1.5;"/>
    </defs>
    <g clip-path="url(#p5708d4a6b7)">
     <use style="fill:#e1812c;stroke:#3f3f3f;stroke-width:1.5;" x="0" xlink:href="#m83b7cd9399" y="288"/>
    </g>
   </g>
   <g id="patch_3">
    <path clip-path="url(#p5708d4a6b7)" d="M 137.7 52.154487 
L 137.7 52.154487 
L 137.7 52.154487 
L 137.7 52.154487 
z
" style="fill:#3274a1;stroke:#3f3f3f;stroke-linejoin:miter;stroke-width:0.75;"/>
   </g>
   <g id="patch_4">
    <path clip-path="url(#p5708d4a6b7)" d="M 137.7 52.154487 
L 137.7 52.154487 
L 137.7 52.154487 
L 137.7 52.154487 
z
" style="fill:#e1812c;stroke:#3f3f3f;stroke-linejoin:miter;stroke-width:0.75;"/>
   </g>
   <g id="matplotlib.axis_1">
    <g id="xtick_1">
     <g id="line2d_1">
      <defs>
       <path d="M 0 0 
L 0 3.5 
" id="me3ce272e3f" style="stroke:#000000;stroke-width:0.8;"/>
      </defs>
      <g>
       <use style="stroke:#000000;stroke-width:0.8;" x="137.7" xlink:href="#me3ce272e3f" y="252"/>
      </g>
     </g>
     <g id="text_1">
      <!-- Z_1_ns -->
      <g transform="translate(120.320312 266.320312)scale(0.1 -0.1)">
       <defs>
        <path d="M 5.609375 72.90625 
L 62.890625 72.90625 
L 62.890625 65.375 
L 16.796875 8.296875 
L 64.015625 8.296875 
L 64.015625 0 
L 4.5 0 
L 4.5 7.515625 
L 50.59375 64.59375 
L 5.609375 64.59375 
z
" id="DejaVuSans-90"/>
        <path d="M 50.984375 -16.609375 
L 50.984375 -23.578125 
L -0.984375 -23.578125 
L -0.984375 -16.609375 
z
" id="DejaVuSans-95"/>
        <path d="M 12.40625 8.296875 
L 28.515625 8.296875 
L 28.515625 63.921875 
L 10.984375 60.40625 
L 10.984375 69.390625 
L 28.421875 72.90625 
L 38.28125 72.90625 
L 38.28125 8.296875 
L 54.390625 8.296875 
L 54.390625 0 
L 12.40625 0 
z
" id="DejaVuSans-49"/>
        <path d="M 54.890625 33.015625 
L 54.890625 0 
L 45.90625 0 
L 45.90625 32.71875 
Q 45.90625 40.484375 42.875 44.328125 
Q 39.84375 48.1875 33.796875 48.1875 
Q 26.515625 48.1875 22.3125 43.546875 
Q 18.109375 38.921875 18.109375 30.90625 
L 18.109375 0 
L 9.078125 0 
L 9.078125 54.6875 
L 18.109375 54.6875 
L 18.109375 46.1875 
Q 21.34375 51.125 25.703125 53.5625 
Q 30.078125 56 35.796875 56 
Q 45.21875 56 50.046875 50.171875 
Q 54.890625 44.34375 54.890625 33.015625 
z
" id="DejaVuSans-110"/>
        <path d="M 44.28125 53.078125 
L 44.28125 44.578125 
Q 40.484375 46.53125 36.375 47.5 
Q 32.28125 48.484375 27.875 48.484375 
Q 21.1875 48.484375 17.84375 46.4375 
Q 14.5 44.390625 14.5 40.28125 
Q 14.5 37.15625 16.890625 35.375 
Q 19.28125 33.59375 26.515625 31.984375 
L 29.59375 31.296875 
Q 39.15625 29.25 43.1875 25.515625 
Q 47.21875 21.78125 47.21875 15.09375 
Q 47.21875 7.46875 41.1875 3.015625 
Q 35.15625 -1.421875 24.609375 -1.421875 
Q 20.21875 -1.421875 15.453125 -0.5625 
Q 10.6875 0.296875 5.421875 2 
L 5.421875 11.28125 
Q 10.40625 8.6875 15.234375 7.390625 
Q 20.0625 6.109375 24.8125 6.109375 
Q 31.15625 6.109375 34.5625 8.28125 
Q 37.984375 10.453125 37.984375 14.40625 
Q 37.984375 18.0625 35.515625 20.015625 
Q 33.0625 21.96875 24.703125 23.78125 
L 21.578125 24.515625 
Q 13.234375 26.265625 9.515625 29.90625 
Q 5.8125 33.546875 5.8125 39.890625 
Q 5.8125 47.609375 11.28125 51.796875 
Q 16.75 56 26.8125 56 
Q 31.78125 56 36.171875 55.265625 
Q 40.578125 54.546875 44.28125 53.078125 
z
" id="DejaVuSans-115"/>
       </defs>
       <use xlink:href="#DejaVuSans-90"/>
       <use x="68.505859" xlink:href="#DejaVuSans-95"/>
       <use x="118.505859" xlink:href="#DejaVuSans-49"/>
       <use x="182.128906" xlink:href="#DejaVuSans-95"/>
       <use x="232.128906" xlink:href="#DejaVuSans-110"/>
       <use x="295.507812" xlink:href="#DejaVuSans-115"/>
      </g>
     </g>
    </g>
    <g id="xtick_2">
     <g id="line2d_2">
      <g>
       <use style="stroke:#000000;stroke-width:0.8;" x="305.1" xlink:href="#me3ce272e3f" y="252"/>
      </g>
     </g>
     <g id="text_2">
      <!-- Z_2_ns -->
      <g transform="translate(287.720313 266.421875)scale(0.1 -0.1)">
       <defs>
        <path d="M 19.1875 8.296875 
L 53.609375 8.296875 
L 53.609375 0 
L 7.328125 0 
L 7.328125 8.296875 
Q 12.9375 14.109375 22.625 23.890625 
Q 32.328125 33.6875 34.8125 36.53125 
Q 39.546875 41.84375 41.421875 45.53125 
Q 43.3125 49.21875 43.3125 52.78125 
Q 43.3125 58.59375 39.234375 62.25 
Q 35.15625 65.921875 28.609375 65.921875 
Q 23.96875 65.921875 18.8125 64.3125 
Q 13.671875 62.703125 7.8125 59.421875 
L 7.8125 69.390625 
Q 13.765625 71.78125 18.9375 73 
Q 24.125 74.21875 28.421875 74.21875 
Q 39.75 74.21875 46.484375 68.546875 
Q 53.21875 62.890625 53.21875 53.421875 
Q 53.21875 48.921875 51.53125 44.890625 
Q 49.859375 40.875 45.40625 35.40625 
Q 44.1875 33.984375 37.640625 27.21875 
Q 31.109375 20.453125 19.1875 8.296875 
z
" id="DejaVuSans-50"/>
       </defs>
       <use xlink:href="#DejaVuSans-90"/>
       <use x="68.505859" xlink:href="#DejaVuSans-95"/>
       <use x="118.505859" xlink:href="#DejaVuSans-50"/>
       <use x="182.128906" xlink:href="#DejaVuSans-95"/>
       <use x="232.128906" xlink:href="#DejaVuSans-110"/>
       <use x="295.507812" xlink:href="#DejaVuSans-115"/>
      </g>
     </g>
    </g>
    <g id="text_3">
     <!-- set -->
     <g transform="translate(213.758594 280.378125)scale(0.1 -0.1)">
      <defs>
       <path d="M 56.203125 29.59375 
L 56.203125 25.203125 
L 14.890625 25.203125 
Q 15.484375 15.921875 20.484375 11.0625 
Q 25.484375 6.203125 34.421875 6.203125 
Q 39.59375 6.203125 44.453125 7.46875 
Q 49.3125 8.734375 54.109375 11.28125 
L 54.109375 2.78125 
Q 49.265625 0.734375 44.1875 -0.34375 
Q 39.109375 -1.421875 33.890625 -1.421875 
Q 20.796875 -1.421875 13.15625 6.1875 
Q 5.515625 13.8125 5.515625 26.8125 
Q 5.515625 40.234375 12.765625 48.109375 
Q 20.015625 56 32.328125 56 
Q 43.359375 56 49.78125 48.890625 
Q 56.203125 41.796875 56.203125 29.59375 
z
M 47.21875 32.234375 
Q 47.125 39.59375 43.09375 43.984375 
Q 39.0625 48.390625 32.421875 48.390625 
Q 24.90625 48.390625 20.390625 44.140625 
Q 15.875 39.890625 15.1875 32.171875 
z
" id="DejaVuSans-101"/>
       <path d="M 18.3125 70.21875 
L 18.3125 54.6875 
L 36.8125 54.6875 
L 36.8125 47.703125 
L 18.3125 47.703125 
L 18.3125 18.015625 
Q 18.3125 11.328125 20.140625 9.421875 
Q 21.96875 7.515625 27.59375 7.515625 
L 36.8125 7.515625 
L 36.8125 0 
L 27.59375 0 
Q 17.1875 0 13.234375 3.875 
Q 9.28125 7.765625 9.28125 18.015625 
L 9.28125 47.703125 
L 2.6875 47.703125 
L 2.6875 54.6875 
L 9.28125 54.6875 
L 9.28125 70.21875 
z
" id="DejaVuSans-116"/>
      </defs>
      <use xlink:href="#DejaVuSans-115"/>
      <use x="52.099609" xlink:href="#DejaVuSans-101"/>
      <use x="113.623047" xlink:href="#DejaVuSans-116"/>
     </g>
    </g>
   </g>
   <g id="matplotlib.axis_2">
    <g id="ytick_1">
     <g id="line2d_3">
      <defs>
       <path d="M 0 0 
L -3.5 0 
" id="m6de16d1494" style="stroke:#000000;stroke-width:0.8;"/>
      </defs>
      <g>
       <use style="stroke:#000000;stroke-width:0.8;" x="54" xlink:href="#m6de16d1494" y="239.51694"/>
      </g>
     </g>
     <g id="text_4">
      <!-- −20 -->
      <g transform="translate(25.895312 243.316159)scale(0.1 -0.1)">
       <defs>
        <path d="M 10.59375 35.5 
L 73.1875 35.5 
L 73.1875 27.203125 
L 10.59375 27.203125 
z
" id="DejaVuSans-8722"/>
        <path d="M 31.78125 66.40625 
Q 24.171875 66.40625 20.328125 58.90625 
Q 16.5 51.421875 16.5 36.375 
Q 16.5 21.390625 20.328125 13.890625 
Q 24.171875 6.390625 31.78125 6.390625 
Q 39.453125 6.390625 43.28125 13.890625 
Q 47.125 21.390625 47.125 36.375 
Q 47.125 51.421875 43.28125 58.90625 
Q 39.453125 66.40625 31.78125 66.40625 
z
M 31.78125 74.21875 
Q 44.046875 74.21875 50.515625 64.515625 
Q 56.984375 54.828125 56.984375 36.375 
Q 56.984375 17.96875 50.515625 8.265625 
Q 44.046875 -1.421875 31.78125 -1.421875 
Q 19.53125 -1.421875 13.0625 8.265625 
Q 6.59375 17.96875 6.59375 36.375 
Q 6.59375 54.828125 13.0625 64.515625 
Q 19.53125 74.21875 31.78125 74.21875 
z
" id="DejaVuSans-48"/>
       </defs>
       <use xlink:href="#DejaVuSans-8722"/>
       <use x="83.789062" xlink:href="#DejaVuSans-50"/>
       <use x="147.412109" xlink:href="#DejaVuSans-48"/>
      </g>
     </g>
    </g>
    <g id="ytick_2">
     <g id="line2d_4">
      <g>
       <use style="stroke:#000000;stroke-width:0.8;" x="54" xlink:href="#m6de16d1494" y="192.676327"/>
      </g>
     </g>
     <g id="text_5">
      <!-- −15 -->
      <g transform="translate(25.895312 196.475546)scale(0.1 -0.1)">
       <defs>
        <path d="M 10.796875 72.90625 
L 49.515625 72.90625 
L 49.515625 64.59375 
L 19.828125 64.59375 
L 19.828125 46.734375 
Q 21.96875 47.46875 24.109375 47.828125 
Q 26.265625 48.1875 28.421875 48.1875 
Q 40.625 48.1875 47.75 41.5 
Q 54.890625 34.8125 54.890625 23.390625 
Q 54.890625 11.625 47.5625 5.09375 
Q 40.234375 -1.421875 26.90625 -1.421875 
Q 22.3125 -1.421875 17.546875 -0.640625 
Q 12.796875 0.140625 7.71875 1.703125 
L 7.71875 11.625 
Q 12.109375 9.234375 16.796875 8.0625 
Q 21.484375 6.890625 26.703125 6.890625 
Q 35.15625 6.890625 40.078125 11.328125 
Q 45.015625 15.765625 45.015625 23.390625 
Q 45.015625 31 40.078125 35.4375 
Q 35.15625 39.890625 26.703125 39.890625 
Q 22.75 39.890625 18.8125 39.015625 
Q 14.890625 38.140625 10.796875 36.28125 
z
" id="DejaVuSans-53"/>
       </defs>
       <use xlink:href="#DejaVuSans-8722"/>
       <use x="83.789062" xlink:href="#DejaVuSans-49"/>
       <use x="147.412109" xlink:href="#DejaVuSans-53"/>
      </g>
     </g>
    </g>
    <g id="ytick_3">
     <g id="line2d_5">
      <g>
       <use style="stroke:#000000;stroke-width:0.8;" x="54" xlink:href="#m6de16d1494" y="145.835713"/>
      </g>
     </g>
     <g id="text_6">
      <!-- −10 -->
      <g transform="translate(25.895312 149.634932)scale(0.1 -0.1)">
       <use xlink:href="#DejaVuSans-8722"/>
       <use x="83.789062" xlink:href="#DejaVuSans-49"/>
       <use x="147.412109" xlink:href="#DejaVuSans-48"/>
      </g>
     </g>
    </g>
    <g id="ytick_4">
     <g id="line2d_6">
      <g>
       <use style="stroke:#000000;stroke-width:0.8;" x="54" xlink:href="#m6de16d1494" y="98.9951"/>
      </g>
     </g>
     <g id="text_7">
      <!-- −5 -->
      <g transform="translate(32.257812 102.794319)scale(0.1 -0.1)">
       <use xlink:href="#DejaVuSans-8722"/>
       <use x="83.789062" xlink:href="#DejaVuSans-53"/>
      </g>
     </g>
    </g>
    <g id="ytick_5">
     <g id="line2d_7">
      <g>
       <use style="stroke:#000000;stroke-width:0.8;" x="54" xlink:href="#m6de16d1494" y="52.154487"/>
      </g>
     </g>
     <g id="text_8">
      <!-- 0 -->
      <g transform="translate(40.6375 55.953705)scale(0.1 -0.1)">
       <use xlink:href="#DejaVuSans-48"/>
      </g>
     </g>
    </g>
    <g id="text_9">
     <!-- value -->
     <g transform="translate(19.815625 156.937813)rotate(-90)scale(0.1 -0.1)">
      <defs>
       <path d="M 2.984375 54.6875 
L 12.5 54.6875 
L 29.59375 8.796875 
L 46.6875 54.6875 
L 56.203125 54.6875 
L 35.6875 0 
L 23.484375 0 
z
" id="DejaVuSans-118"/>
       <path d="M 34.28125 27.484375 
Q 23.390625 27.484375 19.1875 25 
Q 14.984375 22.515625 14.984375 16.5 
Q 14.984375 11.71875 18.140625 8.90625 
Q 21.296875 6.109375 26.703125 6.109375 
Q 34.1875 6.109375 38.703125 11.40625 
Q 43.21875 16.703125 43.21875 25.484375 
L 43.21875 27.484375 
z
M 52.203125 31.203125 
L 52.203125 0 
L 43.21875 0 
L 43.21875 8.296875 
Q 40.140625 3.328125 35.546875 0.953125 
Q 30.953125 -1.421875 24.3125 -1.421875 
Q 15.921875 -1.421875 10.953125 3.296875 
Q 6 8.015625 6 15.921875 
Q 6 25.140625 12.171875 29.828125 
Q 18.359375 34.515625 30.609375 34.515625 
L 43.21875 34.515625 
L 43.21875 35.40625 
Q 43.21875 41.609375 39.140625 45 
Q 35.0625 48.390625 27.6875 48.390625 
Q 23 48.390625 18.546875 47.265625 
Q 14.109375 46.140625 10.015625 43.890625 
L 10.015625 52.203125 
Q 14.9375 54.109375 19.578125 55.046875 
Q 24.21875 56 28.609375 56 
Q 40.484375 56 46.34375 49.84375 
Q 52.203125 43.703125 52.203125 31.203125 
z
" id="DejaVuSans-97"/>
       <path d="M 9.421875 75.984375 
L 18.40625 75.984375 
L 18.40625 0 
L 9.421875 0 
z
" id="DejaVuSans-108"/>
       <path d="M 8.5 21.578125 
L 8.5 54.6875 
L 17.484375 54.6875 
L 17.484375 21.921875 
Q 17.484375 14.15625 20.5 10.265625 
Q 23.53125 6.390625 29.59375 6.390625 
Q 36.859375 6.390625 41.078125 11.03125 
Q 45.3125 15.671875 45.3125 23.6875 
L 45.3125 54.6875 
L 54.296875 54.6875 
L 54.296875 0 
L 45.3125 0 
L 45.3125 8.40625 
Q 42.046875 3.421875 37.71875 1 
Q 33.40625 -1.421875 27.6875 -1.421875 
Q 18.265625 -1.421875 13.375 4.4375 
Q 8.5 10.296875 8.5 21.578125 
z
M 31.109375 56 
z
" id="DejaVuSans-117"/>
      </defs>
      <use xlink:href="#DejaVuSans-118"/>
      <use x="59.179688" xlink:href="#DejaVuSans-97"/>
      <use x="120.458984" xlink:href="#DejaVuSans-108"/>
      <use x="148.242188" xlink:href="#DejaVuSans-117"/>
      <use x="211.621094" xlink:href="#DejaVuSans-101"/>
     </g>
    </g>
   </g>
   <g id="line2d_8">
    <path clip-path="url(#p5708d4a6b7)" d="M 104.22 234.862219 
L 104.22 58.000417 
" style="fill:none;stroke:#3f3f3f;stroke-linecap:square;stroke-width:1.5;"/>
   </g>
   <g id="line2d_9">
    <path clip-path="url(#p5708d4a6b7)" d="M 104.22 202.944376 
L 104.22 142.115605 
" style="fill:none;stroke:#3f3f3f;stroke-linecap:square;stroke-width:4.5;"/>
   </g>
   <g id="line2d_10">
    <path clip-path="url(#p5708d4a6b7)" d="M 338.58 242.116364 
L 338.58 55.188732 
" style="fill:none;stroke:#3f3f3f;stroke-linecap:square;stroke-width:1.5;"/>
   </g>
   <g id="line2d_11">
    <path clip-path="url(#p5708d4a6b7)" d="M 338.58 206.415584 
L 338.58 142.422699 
" style="fill:none;stroke:#3f3f3f;stroke-linecap:square;stroke-width:4.5;"/>
   </g>
   <g id="patch_5">
    <path d="M 54 252 
L 54 34.56 
" style="fill:none;stroke:#000000;stroke-linecap:square;stroke-linejoin:miter;stroke-width:0.8;"/>
   </g>
   <g id="patch_6">
    <path d="M 388.8 252 
L 388.8 34.56 
" style="fill:none;stroke:#000000;stroke-linecap:square;stroke-linejoin:miter;stroke-width:0.8;"/>
   </g>
   <g id="patch_7">
    <path d="M 54 252 
L 388.8 252 
" style="fill:none;stroke:#000000;stroke-linecap:square;stroke-linejoin:miter;stroke-width:0.8;"/>
   </g>
   <g id="patch_8">
    <path d="M 54 34.56 
L 388.8 34.56 
" style="fill:none;stroke:#000000;stroke-linecap:square;stroke-linejoin:miter;stroke-width:0.8;"/>
   </g>
   <g id="PathCollection_1">
    <defs>
     <path d="M 0 1.5 
C 0.397805 1.5 0.77937 1.341951 1.06066 1.06066 
C 1.341951 0.77937 1.5 0.397805 1.5 0 
C 1.5 -0.397805 1.341951 -0.77937 1.06066 -1.06066 
C 0.77937 -1.341951 0.397805 -1.5 0 -1.5 
C -0.397805 -1.5 -0.77937 -1.341951 -1.06066 -1.06066 
C -1.341951 -0.77937 -1.5 -0.397805 -1.5 0 
C -1.5 0.397805 -1.341951 0.77937 -1.06066 1.06066 
C -0.77937 1.341951 -0.397805 1.5 0 1.5 
z
" id="m49048fd2af" style="stroke:#3f3f3f;"/>
    </defs>
    <g clip-path="url(#p5708d4a6b7)">
     <use style="fill:#ffffff;stroke:#3f3f3f;" x="104.22" xlink:href="#m49048fd2af" y="175.601188"/>
    </g>
   </g>
   <g id="PathCollection_2">
    <g clip-path="url(#p5708d4a6b7)">
     <use style="fill:#ffffff;stroke:#3f3f3f;" x="338.58" xlink:href="#m49048fd2af" y="177.000185"/>
    </g>
   </g>
   <g id="legend_1">
    <g id="patch_9">
     <path d="M 188.020312 247 
L 254.779688 247 
Q 256.779688 247 256.779688 245 
L 256.779688 201.409375 
Q 256.779688 199.409375 254.779688 199.409375 
L 188.020312 199.409375 
Q 186.020312 199.409375 186.020312 201.409375 
L 186.020312 245 
Q 186.020312 247 188.020312 247 
z
" style="fill:#ffffff;opacity:0.8;stroke:#cccccc;stroke-linejoin:miter;"/>
    </g>
    <g id="text_10">
     <!-- set -->
     <g transform="translate(213.758594 211.007812)scale(0.1 -0.1)">
      <use xlink:href="#DejaVuSans-115"/>
      <use x="52.099609" xlink:href="#DejaVuSans-101"/>
      <use x="113.623047" xlink:href="#DejaVuSans-116"/>
     </g>
    </g>
    <g id="patch_10">
     <path d="M 190.020312 225.685937 
L 210.020312 225.685937 
L 210.020312 218.685937 
L 190.020312 218.685937 
z
" style="fill:#3274a1;stroke:#3f3f3f;stroke-linejoin:miter;stroke-width:0.75;"/>
    </g>
    <g id="text_11">
     <!-- Z_1_ns -->
     <g transform="translate(218.020312 225.685937)scale(0.1 -0.1)">
      <use xlink:href="#DejaVuSans-90"/>
      <use x="68.505859" xlink:href="#DejaVuSans-95"/>
      <use x="118.505859" xlink:href="#DejaVuSans-49"/>
      <use x="182.128906" xlink:href="#DejaVuSans-95"/>
      <use x="232.128906" xlink:href="#DejaVuSans-110"/>
      <use x="295.507812" xlink:href="#DejaVuSans-115"/>
     </g>
    </g>
    <g id="patch_11">
     <path d="M 190.020312 240.642188 
L 210.020312 240.642188 
L 210.020312 233.642188 
L 190.020312 233.642188 
z
" style="fill:#e1812c;stroke:#3f3f3f;stroke-linejoin:miter;stroke-width:0.75;"/>
    </g>
    <g id="text_12">
     <!-- Z_2_ns -->
     <g transform="translate(218.020312 240.642188)scale(0.1 -0.1)">
      <use xlink:href="#DejaVuSans-90"/>
      <use x="68.505859" xlink:href="#DejaVuSans-95"/>
      <use x="118.505859" xlink:href="#DejaVuSans-50"/>
      <use x="182.128906" xlink:href="#DejaVuSans-95"/>
      <use x="232.128906" xlink:href="#DejaVuSans-110"/>
      <use x="295.507812" xlink:href="#DejaVuSans-115"/>
     </g>
    </g>
   </g>
  </g>
 </g>
 <defs>
  <clipPath id="p5708d4a6b7">
   <rect height="217.44" width="334.8" x="54" y="34.56"/>
  </clipPath>
 </defs>
</svg>
