<?xml version="1.0" encoding="utf-8" standalone="no"?>
<!DOCTYPE svg PUBLIC "-//W3C//DTD SVG 1.1//EN"
  "http://www.w3.org/Graphics/SVG/1.1/DTD/svg11.dtd">
<!-- Created with matplotlib (https://matplotlib.org/) -->
<svg height="288pt" version="1.1" viewBox="0 0 432 288" width="432pt" xmlns="http://www.w3.org/2000/svg" xmlns:xlink="http://www.w3.org/1999/xlink">
 <metadata>
  <rdf:RDF xmlns:cc="http://creativecommons.org/ns#" xmlns:dc="http://purl.org/dc/elements/1.1/" xmlns:rdf="http://www.w3.org/1999/02/22-rdf-syntax-ns#">
   <cc:Work>
    <dc:type rdf:resource="http://purl.org/dc/dcmitype/StillImage"/>
    <dc:date>2022-07-16T12:06:02.637707</dc:date>
    <dc:format>image/svg+xml</dc:format>
    <dc:creator>
     <cc:Agent>
      <dc:title>Matplotlib v3.3.4, https://matplotlib.org/</dc:title>
     </cc:Agent>
    </dc:creator>
   </cc:Work>
  </rdf:RDF>
 </metadata>
 <defs>
  <style type="text/css">*{stroke-linecap:butt;stroke-linejoin:round;}</style>
 </defs>
 <g id="figure_1">
  <g id="patch_1">
   <path d="M 0 288 
L 432 288 
L 432 0 
L 0 0 
z
" style="fill:#ffffff;"/>
  </g>
  <g id="axes_1">
   <g id="patch_2">
    <path d="M 54 252 
L 388.8 252 
L 388.8 34.56 
L 54 34.56 
z
" style="fill:#ffffff;"/>
   </g>
   <g id="PolyCollection_1">
    <defs>
     <path d="M 80.128432 -53.131499 
L 79.951568 -53.131499 
L 79.937373 -55.037047 
L 79.921061 -56.942595 
L 79.900673 -58.848143 
L 79.874636 -60.75369 
L 79.842471 -62.659238 
L 79.805091 -64.564786 
L 79.764571 -66.470334 
L 79.723521 -68.375882 
L 79.684345 -70.28143 
L 79.648614 -72.186978 
L 79.616703 -74.092526 
L 79.587696 -75.998074 
L 79.55952 -77.903621 
L 79.529232 -79.809169 
L 79.493354 -81.714717 
L 79.4482 -83.620265 
L 79.390221 -85.525813 
L 79.316515 -87.431361 
L 79.22558 -89.336909 
L 79.118114 -91.242457 
L 78.997455 -93.148005 
L 78.869154 -95.053553 
L 78.739591 -96.9591 
L 78.614034 -98.864648 
L 78.49494 -100.770196 
L 78.381201 -102.675744 
L 78.268548 -104.581292 
L 78.150852 -106.48684 
L 78.021775 -108.392388 
L 77.876293 -110.297936 
L 77.711754 -112.203484 
L 77.528279 -114.109031 
L 77.328397 -116.014579 
L 77.116002 -117.920127 
L 76.894972 -119.825675 
L 76.668028 -121.731223 
L 76.436367 -123.636771 
L 76.200194 -125.542319 
L 75.959786 -127.447867 
L 75.716421 -129.353415 
L 75.472595 -131.258963 
L 75.231499 -133.16451 
L 74.996142 -135.070058 
L 74.768719 -136.975606 
L 74.550487 -138.881154 
L 74.341985 -140.786702 
L 74.143129 -142.69225 
L 73.952845 -144.597798 
L 73.76831 -146.503346 
L 73.584262 -148.408894 
L 73.392977 -150.314441 
L 73.185228 -152.219989 
L 72.952096 -154.125537 
L 72.687081 -156.031085 
L 72.387821 -157.936633 
L 72.056894 -159.842181 
L 71.701497 -161.747729 
L 71.332104 -163.653277 
L 70.960383 -165.558825 
L 70.596719 -167.464373 
L 70.24785 -169.36992 
L 69.91531 -171.275468 
L 69.59547 -173.181016 
L 69.281585 -175.086564 
L 68.967389 -176.992112 
L 68.650753 -178.89766 
L 68.335578 -180.803208 
L 68.030702 -182.708756 
L 67.74612 -184.614304 
L 67.488212 -186.519851 
L 67.256287 -188.425399 
L 67.042158 -190.330947 
L 66.83308 -192.236495 
L 66.616884 -194.142043 
L 66.387137 -196.047591 
L 66.146067 -197.953139 
L 65.903962 -199.858687 
L 65.675478 -201.764235 
L 65.475095 -203.669783 
L 65.314657 -205.57533 
L 65.204854 -207.480878 
L 65.16 -209.386426 
L 65.202926 -211.291974 
L 65.366049 -213.197522 
L 65.686357 -215.10307 
L 66.195456 -217.008618 
L 66.908719 -218.914166 
L 67.818346 -220.819714 
L 68.893173 -222.725261 
L 70.084813 -224.630809 
L 71.337074 -226.536357 
L 72.594944 -228.441905 
L 73.810697 -230.347453 
L 74.946645 -232.253001 
L 75.975529 -234.158549 
L 76.879847 -236.064097 
L 77.650938 -237.969645 
L 78.288033 -239.875193 
L 78.797134 -241.78074 
L 81.282866 -241.78074 
L 81.282866 -241.78074 
L 81.791967 -239.875193 
L 82.429062 -237.969645 
L 83.200153 -236.064097 
L 84.104471 -234.158549 
L 85.133355 -232.253001 
L 86.269303 -230.347453 
L 87.485056 -228.441905 
L 88.742926 -226.536357 
L 89.995187 -224.630809 
L 91.186827 -222.725261 
L 92.261654 -220.819714 
L 93.171281 -218.914166 
L 93.884544 -217.008618 
L 94.393643 -215.10307 
L 94.713951 -213.197522 
L 94.877074 -211.291974 
L 94.92 -209.386426 
L 94.875146 -207.480878 
L 94.765343 -205.57533 
L 94.604905 -203.669783 
L 94.404522 -201.764235 
L 94.176038 -199.858687 
L 93.933933 -197.953139 
L 93.692863 -196.047591 
L 93.463116 -194.142043 
L 93.24692 -192.236495 
L 93.037842 -190.330947 
L 92.823713 -188.425399 
L 92.591788 -186.519851 
L 92.33388 -184.614304 
L 92.049298 -182.708756 
L 91.744422 -180.803208 
L 91.429247 -178.89766 
L 91.112611 -176.992112 
L 90.798415 -175.086564 
L 90.48453 -173.181016 
L 90.16469 -171.275468 
L 89.83215 -169.36992 
L 89.483281 -167.464373 
L 89.119617 -165.558825 
L 88.747896 -163.653277 
L 88.378503 -161.747729 
L 88.023106 -159.842181 
L 87.692179 -157.936633 
L 87.392919 -156.031085 
L 87.127904 -154.125537 
L 86.894772 -152.219989 
L 86.687023 -150.314441 
L 86.495738 -148.408894 
L 86.31169 -146.503346 
L 86.127155 -144.597798 
L 85.936871 -142.69225 
L 85.738015 -140.786702 
L 85.529513 -138.881154 
L 85.311281 -136.975606 
L 85.083858 -135.070058 
L 84.848501 -133.16451 
L 84.607405 -131.258963 
L 84.363579 -129.353415 
L 84.120214 -127.447867 
L 83.879806 -125.542319 
L 83.643633 -123.636771 
L 83.411972 -121.731223 
L 83.185028 -119.825675 
L 82.963998 -117.920127 
L 82.751603 -116.014579 
L 82.551721 -114.109031 
L 82.368246 -112.203484 
L 82.203707 -110.297936 
L 82.058225 -108.392388 
L 81.929148 -106.48684 
L 81.811452 -104.581292 
L 81.698799 -102.675744 
L 81.58506 -100.770196 
L 81.465966 -98.864648 
L 81.340409 -96.9591 
L 81.210846 -95.053553 
L 81.082545 -93.148005 
L 80.961886 -91.242457 
L 80.85442 -89.336909 
L 80.763485 -87.431361 
L 80.689779 -85.525813 
L 80.6318 -83.620265 
L 80.586646 -81.714717 
L 80.550768 -79.809169 
L 80.52048 -77.903621 
L 80.492304 -75.998074 
L 80.463297 -74.092526 
L 80.431386 -72.186978 
L 80.395655 -70.28143 
L 80.356479 -68.375882 
L 80.315429 -66.470334 
L 80.274909 -64.564786 
L 80.237529 -62.659238 
L 80.205364 -60.75369 
L 80.179327 -58.848143 
L 80.158939 -56.942595 
L 80.142627 -55.037047 
L 80.128432 -53.131499 
z
" id="m276b3ccee2" style="stroke:#3d3d3d;stroke-width:1.5;"/>
    </defs>
    <g clip-path="url(#pe76aec8f40)">
     <use style="fill:#3274a1;stroke:#3d3d3d;stroke-width:1.5;" x="0" xlink:href="#m276b3ccee2" y="288"/>
    </g>
   </g>
   <g id="PolyCollection_2">
    <defs>
     <path d="M 221.559355 -45.883636 
L 221.240645 -45.883636 
L 221.213963 -47.804271 
L 221.183004 -49.724906 
L 221.145981 -51.64554 
L 221.101218 -53.566175 
L 221.047576 -55.486809 
L 220.984753 -57.407444 
L 220.913345 -59.328079 
L 220.834638 -61.248713 
L 220.750227 -63.169348 
L 220.661632 -65.089983 
L 220.570088 -67.010617 
L 220.476608 -68.931252 
L 220.382265 -70.851886 
L 220.288541 -72.772521 
L 220.197494 -74.693156 
L 220.111606 -76.61379 
L 220.033243 -78.534425 
L 219.963889 -80.45506 
L 219.903387 -82.375694 
L 219.849474 -84.296329 
L 219.797784 -86.216963 
L 219.742373 -88.137598 
L 219.676645 -90.058233 
L 219.594449 -91.978867 
L 219.491118 -93.899502 
L 219.364223 -95.820137 
L 219.213936 -97.740771 
L 219.042945 -99.661406 
L 218.855948 -101.58204 
L 218.658799 -103.502675 
L 218.457421 -105.42331 
L 218.256679 -107.343944 
L 218.059426 -109.264579 
L 217.86593 -111.185214 
L 217.673861 -113.105848 
L 217.478828 -115.026483 
L 217.275372 -116.947117 
L 217.058167 -118.867752 
L 216.823174 -120.788387 
L 216.568543 -122.709021 
L 216.295117 -124.629656 
L 216.006514 -126.55029 
L 215.70874 -128.470925 
L 215.409333 -130.39156 
L 215.116027 -132.312194 
L 214.835035 -134.232829 
L 214.569195 -136.153464 
L 214.316394 -138.074098 
L 214.068761 -139.994733 
L 213.813078 -141.915367 
L 213.532542 -143.836002 
L 213.209708 -145.756637 
L 212.830027 -147.677271 
L 212.385192 -149.597906 
L 211.875496 -151.518541 
L 211.310617 -153.439175 
L 210.708635 -155.35981 
L 210.093478 -157.280444 
L 209.491377 -159.201079 
L 208.927043 -161.121714 
L 208.420349 -163.042348 
L 207.984074 -164.962983 
L 207.62304 -166.883618 
L 207.334662 -168.804252 
L 207.110665 -170.724887 
L 206.939533 -172.645521 
L 206.809155 -174.566156 
L 206.709129 -176.486791 
L 206.632277 -178.407425 
L 206.575109 -180.32806 
L 206.537231 -182.248695 
L 206.52 -184.169329 
L 206.524928 -186.089964 
L 206.552458 -188.010598 
L 206.601555 -189.931233 
L 206.670262 -191.851868 
L 206.75698 -193.772502 
L 206.861936 -195.693137 
L 206.988255 -197.613772 
L 207.142247 -199.534406 
L 207.332855 -201.455041 
L 207.57055 -203.375675 
L 207.866093 -205.29631 
L 208.229482 -207.216945 
L 208.669199 -209.137579 
L 209.191597 -211.058214 
L 209.80021 -212.978848 
L 210.494875 -214.899483 
L 211.270765 -216.820118 
L 212.117643 -218.740752 
L 213.019696 -220.661387 
L 213.956193 -222.582022 
L 214.90297 -224.502656 
L 215.834494 -226.423291 
L 216.726138 -228.343925 
L 217.556268 -230.26456 
L 218.307836 -232.185195 
L 218.969348 -234.105829 
L 219.535157 -236.026464 
L 223.264843 -236.026464 
L 223.264843 -236.026464 
L 223.830652 -234.105829 
L 224.492164 -232.185195 
L 225.243732 -230.26456 
L 226.073862 -228.343925 
L 226.965506 -226.423291 
L 227.89703 -224.502656 
L 228.843807 -222.582022 
L 229.780304 -220.661387 
L 230.682357 -218.740752 
L 231.529235 -216.820118 
L 232.305125 -214.899483 
L 232.99979 -212.978848 
L 233.608403 -211.058214 
L 234.130801 -209.137579 
L 234.570518 -207.216945 
L 234.933907 -205.29631 
L 235.22945 -203.375675 
L 235.467145 -201.455041 
L 235.657753 -199.534406 
L 235.811745 -197.613772 
L 235.938064 -195.693137 
L 236.04302 -193.772502 
L 236.129738 -191.851868 
L 236.198445 -189.931233 
L 236.247542 -188.010598 
L 236.275072 -186.089964 
L 236.28 -184.169329 
L 236.262769 -182.248695 
L 236.224891 -180.32806 
L 236.167723 -178.407425 
L 236.090871 -176.486791 
L 235.990845 -174.566156 
L 235.860467 -172.645521 
L 235.689335 -170.724887 
L 235.465338 -168.804252 
L 235.17696 -166.883618 
L 234.815926 -164.962983 
L 234.379651 -163.042348 
L 233.872957 -161.121714 
L 233.308623 -159.201079 
L 232.706522 -157.280444 
L 232.091365 -155.35981 
L 231.489383 -153.439175 
L 230.924504 -151.518541 
L 230.414808 -149.597906 
L 229.969973 -147.677271 
L 229.590292 -145.756637 
L 229.267458 -143.836002 
L 228.986922 -141.915367 
L 228.731239 -139.994733 
L 228.483606 -138.074098 
L 228.230805 -136.153464 
L 227.964965 -134.232829 
L 227.683973 -132.312194 
L 227.390667 -130.39156 
L 227.09126 -128.470925 
L 226.793486 -126.55029 
L 226.504883 -124.629656 
L 226.231457 -122.709021 
L 225.976826 -120.788387 
L 225.741833 -118.867752 
L 225.524628 -116.947117 
L 225.321172 -115.026483 
L 225.126139 -113.105848 
L 224.93407 -111.185214 
L 224.740574 -109.264579 
L 224.543321 -107.343944 
L 224.342579 -105.42331 
L 224.141201 -103.502675 
L 223.944052 -101.58204 
L 223.757055 -99.661406 
L 223.586064 -97.740771 
L 223.435777 -95.820137 
L 223.308882 -93.899502 
L 223.205551 -91.978867 
L 223.123355 -90.058233 
L 223.057627 -88.137598 
L 223.002216 -86.216963 
L 222.950526 -84.296329 
L 222.896613 -82.375694 
L 222.836111 -80.45506 
L 222.766757 -78.534425 
L 222.688394 -76.61379 
L 222.602506 -74.693156 
L 222.511459 -72.772521 
L 222.417735 -70.851886 
L 222.323392 -68.931252 
L 222.229912 -67.010617 
L 222.138368 -65.089983 
L 222.049773 -63.169348 
L 221.965362 -61.248713 
L 221.886655 -59.328079 
L 221.815247 -57.407444 
L 221.752424 -55.486809 
L 221.698782 -53.566175 
L 221.654019 -51.64554 
L 221.616996 -49.724906 
L 221.586037 -47.804271 
L 221.559355 -45.883636 
z
" id="me936a4df5a" style="stroke:#3d3d3d;stroke-width:1.5;"/>
    </defs>
    <g clip-path="url(#pe76aec8f40)">
     <use style="fill:#e1812c;stroke:#3d3d3d;stroke-width:1.5;" x="0" xlink:href="#me936a4df5a" y="288"/>
    </g>
   </g>
   <g id="PolyCollection_3">
    <defs>
     <path d="M 362.999766 -47.254704 
L 362.520234 -47.254704 
L 362.465692 -49.237549 
L 362.404925 -51.220394 
L 362.33879 -53.203239 
L 362.268746 -55.186085 
L 362.196834 -57.16893 
L 362.12549 -59.151775 
L 362.057232 -61.13462 
L 361.994276 -63.117465 
L 361.938183 -65.10031 
L 361.889632 -67.083155 
L 361.84833 -69.066 
L 361.813055 -71.048845 
L 361.781774 -73.03169 
L 361.751746 -75.014535 
L 361.719621 -76.99738 
L 361.681521 -78.980225 
L 361.633214 -80.96307 
L 361.570436 -82.945915 
L 361.489397 -84.92876 
L 361.387411 -86.911605 
L 361.263478 -88.89445 
L 361.11862 -90.877295 
L 360.955784 -92.86014 
L 360.779288 -94.842985 
L 360.593894 -96.82583 
L 360.403781 -98.808675 
L 360.211697 -100.791521 
L 360.01853 -102.774366 
L 359.823394 -104.757211 
L 359.624153 -106.740056 
L 359.418191 -108.722901 
L 359.203159 -110.705746 
L 358.977471 -112.688591 
L 358.74043 -114.671436 
L 358.491993 -116.654281 
L 358.23238 -118.637126 
L 357.961773 -120.619971 
L 357.680338 -122.602816 
L 357.38863 -124.585661 
L 357.088191 -126.568506 
L 356.781973 -128.551351 
L 356.474189 -130.534196 
L 356.1694 -132.517041 
L 355.870975 -134.499886 
L 355.579431 -136.482731 
L 355.291291 -138.465576 
L 354.999055 -140.448421 
L 354.692503 -142.431266 
L 354.361113 -144.414111 
L 353.996996 -146.396957 
L 353.597527 -148.379802 
L 353.166915 -150.362647 
L 352.716279 -152.345492 
L 352.262156 -154.328337 
L 351.823836 -156.311182 
L 351.420154 -158.294027 
L 351.066483 -160.276872 
L 350.772503 -162.259717 
L 350.541065 -164.242562 
L 350.368152 -166.225407 
L 350.243724 -168.208252 
L 350.15318 -170.191097 
L 350.079198 -172.173942 
L 350.003839 -174.156787 
L 349.910797 -176.139632 
L 349.78762 -178.122477 
L 349.627586 -180.105322 
L 349.430761 -182.088167 
L 349.20389 -184.071012 
L 348.958991 -186.053857 
L 348.710966 -188.036702 
L 348.474948 -190.019547 
L 348.264282 -192.002393 
L 348.089836 -193.985238 
L 347.960863 -195.968083 
L 347.886936 -197.950928 
L 347.88 -199.933773 
L 347.955447 -201.916618 
L 348.13144 -203.899463 
L 348.426411 -205.882308 
L 348.855374 -207.865153 
L 349.42615 -209.847998 
L 350.136681 -211.830843 
L 350.974166 -213.813688 
L 351.916168 -215.796533 
L 352.933237 -217.779378 
L 353.992264 -219.762223 
L 355.059756 -221.745068 
L 356.104501 -223.727913 
L 357.099425 -225.710758 
L 358.022709 -227.693603 
L 358.858377 -229.676448 
L 359.596499 -231.659293 
L 360.233082 -233.642138 
L 360.769597 -235.624983 
L 361.212117 -237.607829 
L 361.570106 -239.590674 
L 361.854993 -241.573519 
L 362.078768 -243.556364 
L 363.441232 -243.556364 
L 363.441232 -243.556364 
L 363.665007 -241.573519 
L 363.949894 -239.590674 
L 364.307883 -237.607829 
L 364.750403 -235.624983 
L 365.286918 -233.642138 
L 365.923501 -231.659293 
L 366.661623 -229.676448 
L 367.497291 -227.693603 
L 368.420575 -225.710758 
L 369.415499 -223.727913 
L 370.460244 -221.745068 
L 371.527736 -219.762223 
L 372.586763 -217.779378 
L 373.603832 -215.796533 
L 374.545834 -213.813688 
L 375.383319 -211.830843 
L 376.09385 -209.847998 
L 376.664626 -207.865153 
L 377.093589 -205.882308 
L 377.38856 -203.899463 
L 377.564553 -201.916618 
L 377.64 -199.933773 
L 377.633064 -197.950928 
L 377.559137 -195.968083 
L 377.430164 -193.985238 
L 377.255718 -192.002393 
L 377.045052 -190.019547 
L 376.809034 -188.036702 
L 376.561009 -186.053857 
L 376.31611 -184.071012 
L 376.089239 -182.088167 
L 375.892414 -180.105322 
L 375.73238 -178.122477 
L 375.609203 -176.139632 
L 375.516161 -174.156787 
L 375.440802 -172.173942 
L 375.36682 -170.191097 
L 375.276276 -168.208252 
L 375.151848 -166.225407 
L 374.978935 -164.242562 
L 374.747497 -162.259717 
L 374.453517 -160.276872 
L 374.099846 -158.294027 
L 373.696164 -156.311182 
L 373.257844 -154.328337 
L 372.803721 -152.345492 
L 372.353085 -150.362647 
L 371.922473 -148.379802 
L 371.523004 -146.396957 
L 371.158887 -144.414111 
L 370.827497 -142.431266 
L 370.520945 -140.448421 
L 370.228709 -138.465576 
L 369.940569 -136.482731 
L 369.649025 -134.499886 
L 369.3506 -132.517041 
L 369.045811 -130.534196 
L 368.738027 -128.551351 
L 368.431809 -126.568506 
L 368.13137 -124.585661 
L 367.839662 -122.602816 
L 367.558227 -120.619971 
L 367.28762 -118.637126 
L 367.028007 -116.654281 
L 366.77957 -114.671436 
L 366.542529 -112.688591 
L 366.316841 -110.705746 
L 366.101809 -108.722901 
L 365.895847 -106.740056 
L 365.696606 -104.757211 
L 365.50147 -102.774366 
L 365.308303 -100.791521 
L 365.116219 -98.808675 
L 364.926106 -96.82583 
L 364.740712 -94.842985 
L 364.564216 -92.86014 
L 364.40138 -90.877295 
L 364.256522 -88.89445 
L 364.132589 -86.911605 
L 364.030603 -84.92876 
L 363.949564 -82.945915 
L 363.886786 -80.96307 
L 363.838479 -78.980225 
L 363.800379 -76.99738 
L 363.768254 -75.014535 
L 363.738226 -73.03169 
L 363.706945 -71.048845 
L 363.67167 -69.066 
L 363.630368 -67.083155 
L 363.581817 -65.10031 
L 363.525724 -63.117465 
L 363.462768 -61.13462 
L 363.39451 -59.151775 
L 363.323166 -57.16893 
L 363.251254 -55.186085 
L 363.18121 -53.203239 
L 363.115075 -51.220394 
L 363.054308 -49.237549 
L 362.999766 -47.254704 
z
" id="mbf5cd61054" style="stroke:#3d3d3d;stroke-width:1.5;"/>
    </defs>
    <g clip-path="url(#pe76aec8f40)">
     <use style="fill:#3a923a;stroke:#3d3d3d;stroke-width:1.5;" x="0" xlink:href="#mbf5cd61054" y="288"/>
    </g>
   </g>
   <g id="patch_3">
    <path clip-path="url(#pe76aec8f40)" d="M 109.8 244.781783 
L 109.8 244.781783 
L 109.8 244.781783 
L 109.8 244.781783 
z
" style="fill:#3274a1;stroke:#3d3d3d;stroke-linejoin:miter;stroke-width:0.75;"/>
   </g>
   <g id="patch_4">
    <path clip-path="url(#pe76aec8f40)" d="M 109.8 244.781783 
L 109.8 244.781783 
L 109.8 244.781783 
L 109.8 244.781783 
z
" style="fill:#e1812c;stroke:#3d3d3d;stroke-linejoin:miter;stroke-width:0.75;"/>
   </g>
   <g id="patch_5">
    <path clip-path="url(#pe76aec8f40)" d="M 109.8 244.781783 
L 109.8 244.781783 
L 109.8 244.781783 
L 109.8 244.781783 
z
" style="fill:#3a923a;stroke:#3d3d3d;stroke-linejoin:miter;stroke-width:0.75;"/>
   </g>
   <g id="matplotlib.axis_1">
    <g id="xtick_1">
     <g id="line2d_1">
      <defs>
       <path d="M 0 0 
L 0 3.5 
" id="m7c23ec6848" style="stroke:#000000;stroke-width:0.8;"/>
      </defs>
      <g>
       <use style="stroke:#000000;stroke-width:0.8;" x="109.8" xlink:href="#m7c23ec6848" y="252"/>
      </g>
     </g>
     <g id="text_1">
      <!-- train -->
      <g transform="translate(98.1625 266.598437)scale(0.1 -0.1)">
       <defs>
        <path d="M 18.3125 70.21875 
L 18.3125 54.6875 
L 36.8125 54.6875 
L 36.8125 47.703125 
L 18.3125 47.703125 
L 18.3125 18.015625 
Q 18.3125 11.328125 20.140625 9.421875 
Q 21.96875 7.515625 27.59375 7.515625 
L 36.8125 7.515625 
L 36.8125 0 
L 27.59375 0 
Q 17.1875 0 13.234375 3.875 
Q 9.28125 7.765625 9.28125 18.015625 
L 9.28125 47.703125 
L 2.6875 47.703125 
L 2.6875 54.6875 
L 9.28125 54.6875 
L 9.28125 70.21875 
z
" id="DejaVuSans-116"/>
        <path d="M 41.109375 46.296875 
Q 39.59375 47.171875 37.8125 47.578125 
Q 36.03125 48 33.890625 48 
Q 26.265625 48 22.1875 43.046875 
Q 18.109375 38.09375 18.109375 28.8125 
L 18.109375 0 
L 9.078125 0 
L 9.078125 54.6875 
L 18.109375 54.6875 
L 18.109375 46.1875 
Q 20.953125 51.171875 25.484375 53.578125 
Q 30.03125 56 36.53125 56 
Q 37.453125 56 38.578125 55.875 
Q 39.703125 55.765625 41.0625 55.515625 
z
" id="DejaVuSans-114"/>
        <path d="M 34.28125 27.484375 
Q 23.390625 27.484375 19.1875 25 
Q 14.984375 22.515625 14.984375 16.5 
Q 14.984375 11.71875 18.140625 8.90625 
Q 21.296875 6.109375 26.703125 6.109375 
Q 34.1875 6.109375 38.703125 11.40625 
Q 43.21875 16.703125 43.21875 25.484375 
L 43.21875 27.484375 
z
M 52.203125 31.203125 
L 52.203125 0 
L 43.21875 0 
L 43.21875 8.296875 
Q 40.140625 3.328125 35.546875 0.953125 
Q 30.953125 -1.421875 24.3125 -1.421875 
Q 15.921875 -1.421875 10.953125 3.296875 
Q 6 8.015625 6 15.921875 
Q 6 25.140625 12.171875 29.828125 
Q 18.359375 34.515625 30.609375 34.515625 
L 43.21875 34.515625 
L 43.21875 35.40625 
Q 43.21875 41.609375 39.140625 45 
Q 35.0625 48.390625 27.6875 48.390625 
Q 23 48.390625 18.546875 47.265625 
Q 14.109375 46.140625 10.015625 43.890625 
L 10.015625 52.203125 
Q 14.9375 54.109375 19.578125 55.046875 
Q 24.21875 56 28.609375 56 
Q 40.484375 56 46.34375 49.84375 
Q 52.203125 43.703125 52.203125 31.203125 
z
" id="DejaVuSans-97"/>
        <path d="M 9.421875 54.6875 
L 18.40625 54.6875 
L 18.40625 0 
L 9.421875 0 
z
M 9.421875 75.984375 
L 18.40625 75.984375 
L 18.40625 64.59375 
L 9.421875 64.59375 
z
" id="DejaVuSans-105"/>
        <path d="M 54.890625 33.015625 
L 54.890625 0 
L 45.90625 0 
L 45.90625 32.71875 
Q 45.90625 40.484375 42.875 44.328125 
Q 39.84375 48.1875 33.796875 48.1875 
Q 26.515625 48.1875 22.3125 43.546875 
Q 18.109375 38.921875 18.109375 30.90625 
L 18.109375 0 
L 9.078125 0 
L 9.078125 54.6875 
L 18.109375 54.6875 
L 18.109375 46.1875 
Q 21.34375 51.125 25.703125 53.5625 
Q 30.078125 56 35.796875 56 
Q 45.21875 56 50.046875 50.171875 
Q 54.890625 44.34375 54.890625 33.015625 
z
" id="DejaVuSans-110"/>
       </defs>
       <use xlink:href="#DejaVuSans-116"/>
       <use x="39.208984" xlink:href="#DejaVuSans-114"/>
       <use x="80.322266" xlink:href="#DejaVuSans-97"/>
       <use x="141.601562" xlink:href="#DejaVuSans-105"/>
       <use x="169.384766" xlink:href="#DejaVuSans-110"/>
      </g>
     </g>
    </g>
    <g id="xtick_2">
     <g id="line2d_2">
      <g>
       <use style="stroke:#000000;stroke-width:0.8;" x="221.4" xlink:href="#m7c23ec6848" y="252"/>
      </g>
     </g>
     <g id="text_2">
      <!-- val -->
      <g transform="translate(213.9875 266.598437)scale(0.1 -0.1)">
       <defs>
        <path d="M 2.984375 54.6875 
L 12.5 54.6875 
L 29.59375 8.796875 
L 46.6875 54.6875 
L 56.203125 54.6875 
L 35.6875 0 
L 23.484375 0 
z
" id="DejaVuSans-118"/>
        <path d="M 9.421875 75.984375 
L 18.40625 75.984375 
L 18.40625 0 
L 9.421875 0 
z
" id="DejaVuSans-108"/>
       </defs>
       <use xlink:href="#DejaVuSans-118"/>
       <use x="59.179688" xlink:href="#DejaVuSans-97"/>
       <use x="120.458984" xlink:href="#DejaVuSans-108"/>
      </g>
     </g>
    </g>
    <g id="xtick_3">
     <g id="line2d_3">
      <g>
       <use style="stroke:#000000;stroke-width:0.8;" x="333" xlink:href="#m7c23ec6848" y="252"/>
      </g>
     </g>
     <g id="text_3">
      <!-- test -->
      <g transform="translate(323.398438 266.598437)scale(0.1 -0.1)">
       <defs>
        <path d="M 56.203125 29.59375 
L 56.203125 25.203125 
L 14.890625 25.203125 
Q 15.484375 15.921875 20.484375 11.0625 
Q 25.484375 6.203125 34.421875 6.203125 
Q 39.59375 6.203125 44.453125 7.46875 
Q 49.3125 8.734375 54.109375 11.28125 
L 54.109375 2.78125 
Q 49.265625 0.734375 44.1875 -0.34375 
Q 39.109375 -1.421875 33.890625 -1.421875 
Q 20.796875 -1.421875 13.15625 6.1875 
Q 5.515625 13.8125 5.515625 26.8125 
Q 5.515625 40.234375 12.765625 48.109375 
Q 20.015625 56 32.328125 56 
Q 43.359375 56 49.78125 48.890625 
Q 56.203125 41.796875 56.203125 29.59375 
z
M 47.21875 32.234375 
Q 47.125 39.59375 43.09375 43.984375 
Q 39.0625 48.390625 32.421875 48.390625 
Q 24.90625 48.390625 20.390625 44.140625 
Q 15.875 39.890625 15.1875 32.171875 
z
" id="DejaVuSans-101"/>
        <path d="M 44.28125 53.078125 
L 44.28125 44.578125 
Q 40.484375 46.53125 36.375 47.5 
Q 32.28125 48.484375 27.875 48.484375 
Q 21.1875 48.484375 17.84375 46.4375 
Q 14.5 44.390625 14.5 40.28125 
Q 14.5 37.15625 16.890625 35.375 
Q 19.28125 33.59375 26.515625 31.984375 
L 29.59375 31.296875 
Q 39.15625 29.25 43.1875 25.515625 
Q 47.21875 21.78125 47.21875 15.09375 
Q 47.21875 7.46875 41.1875 3.015625 
Q 35.15625 -1.421875 24.609375 -1.421875 
Q 20.21875 -1.421875 15.453125 -0.5625 
Q 10.6875 0.296875 5.421875 2 
L 5.421875 11.28125 
Q 10.40625 8.6875 15.234375 7.390625 
Q 20.0625 6.109375 24.8125 6.109375 
Q 31.15625 6.109375 34.5625 8.28125 
Q 37.984375 10.453125 37.984375 14.40625 
Q 37.984375 18.0625 35.515625 20.015625 
Q 33.0625 21.96875 24.703125 23.78125 
L 21.578125 24.515625 
Q 13.234375 26.265625 9.515625 29.90625 
Q 5.8125 33.546875 5.8125 39.890625 
Q 5.8125 47.609375 11.28125 51.796875 
Q 16.75 56 26.8125 56 
Q 31.78125 56 36.171875 55.265625 
Q 40.578125 54.546875 44.28125 53.078125 
z
" id="DejaVuSans-115"/>
       </defs>
       <use xlink:href="#DejaVuSans-116"/>
       <use x="39.208984" xlink:href="#DejaVuSans-101"/>
       <use x="100.732422" xlink:href="#DejaVuSans-115"/>
       <use x="152.832031" xlink:href="#DejaVuSans-116"/>
      </g>
     </g>
    </g>
    <g id="text_4">
     <!-- set -->
     <g transform="translate(213.758594 280.276563)scale(0.1 -0.1)">
      <use xlink:href="#DejaVuSans-115"/>
      <use x="52.099609" xlink:href="#DejaVuSans-101"/>
      <use x="113.623047" xlink:href="#DejaVuSans-116"/>
     </g>
    </g>
   </g>
   <g id="matplotlib.axis_2">
    <g id="ytick_1">
     <g id="line2d_4">
      <defs>
       <path d="M 0 0 
L -3.5 0 
" id="me224691422" style="stroke:#000000;stroke-width:0.8;"/>
      </defs>
      <g>
       <use style="stroke:#000000;stroke-width:0.8;" x="54" xlink:href="#me224691422" y="244.781783"/>
      </g>
     </g>
     <g id="text_5">
      <!-- 0.0 -->
      <g transform="translate(31.096875 248.581002)scale(0.1 -0.1)">
       <defs>
        <path d="M 31.78125 66.40625 
Q 24.171875 66.40625 20.328125 58.90625 
Q 16.5 51.421875 16.5 36.375 
Q 16.5 21.390625 20.328125 13.890625 
Q 24.171875 6.390625 31.78125 6.390625 
Q 39.453125 6.390625 43.28125 13.890625 
Q 47.125 21.390625 47.125 36.375 
Q 47.125 51.421875 43.28125 58.90625 
Q 39.453125 66.40625 31.78125 66.40625 
z
M 31.78125 74.21875 
Q 44.046875 74.21875 50.515625 64.515625 
Q 56.984375 54.828125 56.984375 36.375 
Q 56.984375 17.96875 50.515625 8.265625 
Q 44.046875 -1.421875 31.78125 -1.421875 
Q 19.53125 -1.421875 13.0625 8.265625 
Q 6.59375 17.96875 6.59375 36.375 
Q 6.59375 54.828125 13.0625 64.515625 
Q 19.53125 74.21875 31.78125 74.21875 
z
" id="DejaVuSans-48"/>
        <path d="M 10.6875 12.40625 
L 21 12.40625 
L 21 0 
L 10.6875 0 
z
" id="DejaVuSans-46"/>
       </defs>
       <use xlink:href="#DejaVuSans-48"/>
       <use x="63.623047" xlink:href="#DejaVuSans-46"/>
       <use x="95.410156" xlink:href="#DejaVuSans-48"/>
      </g>
     </g>
    </g>
    <g id="ytick_2">
     <g id="line2d_5">
      <g>
       <use style="stroke:#000000;stroke-width:0.8;" x="54" xlink:href="#me224691422" y="202.269865"/>
      </g>
     </g>
     <g id="text_6">
      <!-- 0.2 -->
      <g transform="translate(31.096875 206.069084)scale(0.1 -0.1)">
       <defs>
        <path d="M 19.1875 8.296875 
L 53.609375 8.296875 
L 53.609375 0 
L 7.328125 0 
L 7.328125 8.296875 
Q 12.9375 14.109375 22.625 23.890625 
Q 32.328125 33.6875 34.8125 36.53125 
Q 39.546875 41.84375 41.421875 45.53125 
Q 43.3125 49.21875 43.3125 52.78125 
Q 43.3125 58.59375 39.234375 62.25 
Q 35.15625 65.921875 28.609375 65.921875 
Q 23.96875 65.921875 18.8125 64.3125 
Q 13.671875 62.703125 7.8125 59.421875 
L 7.8125 69.390625 
Q 13.765625 71.78125 18.9375 73 
Q 24.125 74.21875 28.421875 74.21875 
Q 39.75 74.21875 46.484375 68.546875 
Q 53.21875 62.890625 53.21875 53.421875 
Q 53.21875 48.921875 51.53125 44.890625 
Q 49.859375 40.875 45.40625 35.40625 
Q 44.1875 33.984375 37.640625 27.21875 
Q 31.109375 20.453125 19.1875 8.296875 
z
" id="DejaVuSans-50"/>
       </defs>
       <use xlink:href="#DejaVuSans-48"/>
       <use x="63.623047" xlink:href="#DejaVuSans-46"/>
       <use x="95.410156" xlink:href="#DejaVuSans-50"/>
      </g>
     </g>
    </g>
    <g id="ytick_3">
     <g id="line2d_6">
      <g>
       <use style="stroke:#000000;stroke-width:0.8;" x="54" xlink:href="#me224691422" y="159.757948"/>
      </g>
     </g>
     <g id="text_7">
      <!-- 0.4 -->
      <g transform="translate(31.096875 163.557166)scale(0.1 -0.1)">
       <defs>
        <path d="M 37.796875 64.3125 
L 12.890625 25.390625 
L 37.796875 25.390625 
z
M 35.203125 72.90625 
L 47.609375 72.90625 
L 47.609375 25.390625 
L 58.015625 25.390625 
L 58.015625 17.1875 
L 47.609375 17.1875 
L 47.609375 0 
L 37.796875 0 
L 37.796875 17.1875 
L 4.890625 17.1875 
L 4.890625 26.703125 
z
" id="DejaVuSans-52"/>
       </defs>
       <use xlink:href="#DejaVuSans-48"/>
       <use x="63.623047" xlink:href="#DejaVuSans-46"/>
       <use x="95.410156" xlink:href="#DejaVuSans-52"/>
      </g>
     </g>
    </g>
    <g id="ytick_4">
     <g id="line2d_7">
      <g>
       <use style="stroke:#000000;stroke-width:0.8;" x="54" xlink:href="#me224691422" y="117.24603"/>
      </g>
     </g>
     <g id="text_8">
      <!-- 0.6 -->
      <g transform="translate(31.096875 121.045248)scale(0.1 -0.1)">
       <defs>
        <path d="M 33.015625 40.375 
Q 26.375 40.375 22.484375 35.828125 
Q 18.609375 31.296875 18.609375 23.390625 
Q 18.609375 15.53125 22.484375 10.953125 
Q 26.375 6.390625 33.015625 6.390625 
Q 39.65625 6.390625 43.53125 10.953125 
Q 47.40625 15.53125 47.40625 23.390625 
Q 47.40625 31.296875 43.53125 35.828125 
Q 39.65625 40.375 33.015625 40.375 
z
M 52.59375 71.296875 
L 52.59375 62.3125 
Q 48.875 64.0625 45.09375 64.984375 
Q 41.3125 65.921875 37.59375 65.921875 
Q 27.828125 65.921875 22.671875 59.328125 
Q 17.53125 52.734375 16.796875 39.40625 
Q 19.671875 43.65625 24.015625 45.921875 
Q 28.375 48.1875 33.59375 48.1875 
Q 44.578125 48.1875 50.953125 41.515625 
Q 57.328125 34.859375 57.328125 23.390625 
Q 57.328125 12.15625 50.6875 5.359375 
Q 44.046875 -1.421875 33.015625 -1.421875 
Q 20.359375 -1.421875 13.671875 8.265625 
Q 6.984375 17.96875 6.984375 36.375 
Q 6.984375 53.65625 15.1875 63.9375 
Q 23.390625 74.21875 37.203125 74.21875 
Q 40.921875 74.21875 44.703125 73.484375 
Q 48.484375 72.75 52.59375 71.296875 
z
" id="DejaVuSans-54"/>
       </defs>
       <use xlink:href="#DejaVuSans-48"/>
       <use x="63.623047" xlink:href="#DejaVuSans-46"/>
       <use x="95.410156" xlink:href="#DejaVuSans-54"/>
      </g>
     </g>
    </g>
    <g id="ytick_5">
     <g id="line2d_8">
      <g>
       <use style="stroke:#000000;stroke-width:0.8;" x="54" xlink:href="#me224691422" y="74.734112"/>
      </g>
     </g>
     <g id="text_9">
      <!-- 0.8 -->
      <g transform="translate(31.096875 78.53333)scale(0.1 -0.1)">
       <defs>
        <path d="M 31.78125 34.625 
Q 24.75 34.625 20.71875 30.859375 
Q 16.703125 27.09375 16.703125 20.515625 
Q 16.703125 13.921875 20.71875 10.15625 
Q 24.75 6.390625 31.78125 6.390625 
Q 38.8125 6.390625 42.859375 10.171875 
Q 46.921875 13.96875 46.921875 20.515625 
Q 46.921875 27.09375 42.890625 30.859375 
Q 38.875 34.625 31.78125 34.625 
z
M 21.921875 38.8125 
Q 15.578125 40.375 12.03125 44.71875 
Q 8.5 49.078125 8.5 55.328125 
Q 8.5 64.0625 14.71875 69.140625 
Q 20.953125 74.21875 31.78125 74.21875 
Q 42.671875 74.21875 48.875 69.140625 
Q 55.078125 64.0625 55.078125 55.328125 
Q 55.078125 49.078125 51.53125 44.71875 
Q 48 40.375 41.703125 38.8125 
Q 48.828125 37.15625 52.796875 32.3125 
Q 56.78125 27.484375 56.78125 20.515625 
Q 56.78125 9.90625 50.3125 4.234375 
Q 43.84375 -1.421875 31.78125 -1.421875 
Q 19.734375 -1.421875 13.25 4.234375 
Q 6.78125 9.90625 6.78125 20.515625 
Q 6.78125 27.484375 10.78125 32.3125 
Q 14.796875 37.15625 21.921875 38.8125 
z
M 18.3125 54.390625 
Q 18.3125 48.734375 21.84375 45.5625 
Q 25.390625 42.390625 31.78125 42.390625 
Q 38.140625 42.390625 41.71875 45.5625 
Q 45.3125 48.734375 45.3125 54.390625 
Q 45.3125 60.0625 41.71875 63.234375 
Q 38.140625 66.40625 31.78125 66.40625 
Q 25.390625 66.40625 21.84375 63.234375 
Q 18.3125 60.0625 18.3125 54.390625 
z
" id="DejaVuSans-56"/>
       </defs>
       <use xlink:href="#DejaVuSans-48"/>
       <use x="63.623047" xlink:href="#DejaVuSans-46"/>
       <use x="95.410156" xlink:href="#DejaVuSans-56"/>
      </g>
     </g>
    </g>
    <g id="text_10">
     <!-- value -->
     <g transform="translate(25.017187 156.937813)rotate(-90)scale(0.1 -0.1)">
      <defs>
       <path d="M 8.5 21.578125 
L 8.5 54.6875 
L 17.484375 54.6875 
L 17.484375 21.921875 
Q 17.484375 14.15625 20.5 10.265625 
Q 23.53125 6.390625 29.59375 6.390625 
Q 36.859375 6.390625 41.078125 11.03125 
Q 45.3125 15.671875 45.3125 23.6875 
L 45.3125 54.6875 
L 54.296875 54.6875 
L 54.296875 0 
L 45.3125 0 
L 45.3125 8.40625 
Q 42.046875 3.421875 37.71875 1 
Q 33.40625 -1.421875 27.6875 -1.421875 
Q 18.265625 -1.421875 13.375 4.4375 
Q 8.5 10.296875 8.5 21.578125 
z
M 31.109375 56 
z
" id="DejaVuSans-117"/>
      </defs>
      <use xlink:href="#DejaVuSans-118"/>
      <use x="59.179688" xlink:href="#DejaVuSans-97"/>
      <use x="120.458984" xlink:href="#DejaVuSans-108"/>
      <use x="148.242188" xlink:href="#DejaVuSans-117"/>
      <use x="211.621094" xlink:href="#DejaVuSans-101"/>
     </g>
    </g>
   </g>
   <g id="line2d_9">
    <path clip-path="url(#pe76aec8f40)" d="M 80.04 199.378242 
L 80.04 46.21926 
" style="fill:none;stroke:#3d3d3d;stroke-linecap:square;stroke-width:1.5;"/>
   </g>
   <g id="line2d_10">
    <path clip-path="url(#pe76aec8f40)" d="M 80.04 127.226549 
L 80.04 78.794139 
" style="fill:none;stroke:#3d3d3d;stroke-linecap:square;stroke-width:4.5;"/>
   </g>
   <g id="line2d_11">
    <path clip-path="url(#pe76aec8f40)" d="M 221.4 206.731734 
L 221.4 51.973536 
" style="fill:none;stroke:#3d3d3d;stroke-linecap:square;stroke-width:1.5;"/>
   </g>
   <g id="line2d_12">
    <path clip-path="url(#pe76aec8f40)" d="M 221.4 135.56721 
L 221.4 87.65168 
" style="fill:none;stroke:#3d3d3d;stroke-linecap:square;stroke-width:4.5;"/>
   </g>
   <g id="line2d_13">
    <path clip-path="url(#pe76aec8f40)" d="M 362.76 213.04049 
L 362.76 44.443636 
" style="fill:none;stroke:#3d3d3d;stroke-linecap:square;stroke-width:1.5;"/>
   </g>
   <g id="line2d_14">
    <path clip-path="url(#pe76aec8f40)" d="M 362.76 137.26338 
L 362.76 86.71605 
" style="fill:none;stroke:#3d3d3d;stroke-linecap:square;stroke-width:4.5;"/>
   </g>
   <g id="patch_6">
    <path d="M 54 252 
L 54 34.56 
" style="fill:none;stroke:#000000;stroke-linecap:square;stroke-linejoin:miter;stroke-width:0.8;"/>
   </g>
   <g id="patch_7">
    <path d="M 388.8 252 
L 388.8 34.56 
" style="fill:none;stroke:#000000;stroke-linecap:square;stroke-linejoin:miter;stroke-width:0.8;"/>
   </g>
   <g id="patch_8">
    <path d="M 54 252 
L 388.8 252 
" style="fill:none;stroke:#000000;stroke-linecap:square;stroke-linejoin:miter;stroke-width:0.8;"/>
   </g>
   <g id="patch_9">
    <path d="M 54 34.56 
L 388.8 34.56 
" style="fill:none;stroke:#000000;stroke-linecap:square;stroke-linejoin:miter;stroke-width:0.8;"/>
   </g>
   <g id="PathCollection_1">
    <defs>
     <path d="M 0 1.5 
C 0.397805 1.5 0.77937 1.341951 1.06066 1.06066 
C 1.341951 0.77937 1.5 0.397805 1.5 0 
C 1.5 -0.397805 1.341951 -0.77937 1.06066 -1.06066 
C 0.77937 -1.341951 0.397805 -1.5 0 -1.5 
C -0.397805 -1.5 -0.77937 -1.341951 -1.06066 -1.06066 
C -1.341951 -0.77937 -1.5 -0.397805 -1.5 0 
C -1.5 0.397805 -1.341951 0.77937 -1.06066 1.06066 
C -0.77937 1.341951 -0.397805 1.5 0 1.5 
z
" id="m35f4a8b090" style="stroke:#3d3d3d;"/>
    </defs>
    <g clip-path="url(#pe76aec8f40)">
     <use style="fill:#ffffff;stroke:#3d3d3d;" x="80.04" xlink:href="#m35f4a8b090" y="99.633972"/>
    </g>
   </g>
   <g id="PathCollection_2">
    <g clip-path="url(#pe76aec8f40)">
     <use style="fill:#ffffff;stroke:#3d3d3d;" x="221.4" xlink:href="#m35f4a8b090" y="111.066628"/>
    </g>
   </g>
   <g id="PathCollection_3">
    <g clip-path="url(#pe76aec8f40)">
     <use style="fill:#ffffff;stroke:#3d3d3d;" x="362.76" xlink:href="#m35f4a8b090" y="110.247523"/>
    </g>
   </g>
   <g id="legend_1">
    <g id="patch_10">
     <path d="M 326.525 247 
L 381.8 247 
Q 383.8 247 383.8 245 
L 383.8 187.2875 
Q 383.8 185.2875 381.8 185.2875 
L 326.525 185.2875 
Q 324.525 185.2875 324.525 187.2875 
L 324.525 245 
Q 324.525 247 326.525 247 
z
" style="fill:#ffffff;opacity:0.8;stroke:#cccccc;stroke-linejoin:miter;"/>
    </g>
    <g id="text_11">
     <!-- set -->
     <g transform="translate(346.521094 196.885938)scale(0.1 -0.1)">
      <use xlink:href="#DejaVuSans-115"/>
      <use x="52.099609" xlink:href="#DejaVuSans-101"/>
      <use x="113.623047" xlink:href="#DejaVuSans-116"/>
     </g>
    </g>
    <g id="patch_11">
     <path d="M 328.525 211.564063 
L 348.525 211.564063 
L 348.525 204.564063 
L 328.525 204.564063 
z
" style="fill:#3274a1;stroke:#3d3d3d;stroke-linejoin:miter;stroke-width:0.75;"/>
    </g>
    <g id="text_12">
     <!-- train -->
     <g transform="translate(356.525 211.564063)scale(0.1 -0.1)">
      <use xlink:href="#DejaVuSans-116"/>
      <use x="39.208984" xlink:href="#DejaVuSans-114"/>
      <use x="80.322266" xlink:href="#DejaVuSans-97"/>
      <use x="141.601562" xlink:href="#DejaVuSans-105"/>
      <use x="169.384766" xlink:href="#DejaVuSans-110"/>
     </g>
    </g>
    <g id="patch_12">
     <path d="M 328.525 226.242188 
L 348.525 226.242188 
L 348.525 219.242188 
L 328.525 219.242188 
z
" style="fill:#e1812c;stroke:#3d3d3d;stroke-linejoin:miter;stroke-width:0.75;"/>
    </g>
    <g id="text_13">
     <!-- val -->
     <g transform="translate(356.525 226.242188)scale(0.1 -0.1)">
      <use xlink:href="#DejaVuSans-118"/>
      <use x="59.179688" xlink:href="#DejaVuSans-97"/>
      <use x="120.458984" xlink:href="#DejaVuSans-108"/>
     </g>
    </g>
    <g id="patch_13">
     <path d="M 328.525 240.920313 
L 348.525 240.920313 
L 348.525 233.920313 
L 328.525 233.920313 
z
" style="fill:#3a923a;stroke:#3d3d3d;stroke-linejoin:miter;stroke-width:0.75;"/>
    </g>
    <g id="text_14">
     <!-- test -->
     <g transform="translate(356.525 240.920313)scale(0.1 -0.1)">
      <use xlink:href="#DejaVuSans-116"/>
      <use x="39.208984" xlink:href="#DejaVuSans-101"/>
      <use x="100.732422" xlink:href="#DejaVuSans-115"/>
      <use x="152.832031" xlink:href="#DejaVuSans-116"/>
     </g>
    </g>
   </g>
  </g>
 </g>
 <defs>
  <clipPath id="pe76aec8f40">
   <rect height="217.44" width="334.8" x="54" y="34.56"/>
  </clipPath>
 </defs>
</svg>
