<?xml version="1.0" encoding="utf-8" standalone="no"?>
<!DOCTYPE svg PUBLIC "-//W3C//DTD SVG 1.1//EN"
  "http://www.w3.org/Graphics/SVG/1.1/DTD/svg11.dtd">
<!-- Created with matplotlib (https://matplotlib.org/) -->
<svg height="288pt" version="1.1" viewBox="0 0 432 288" width="432pt" xmlns="http://www.w3.org/2000/svg" xmlns:xlink="http://www.w3.org/1999/xlink">
 <metadata>
  <rdf:RDF xmlns:cc="http://creativecommons.org/ns#" xmlns:dc="http://purl.org/dc/elements/1.1/" xmlns:rdf="http://www.w3.org/1999/02/22-rdf-syntax-ns#">
   <cc:Work>
    <dc:type rdf:resource="http://purl.org/dc/dcmitype/StillImage"/>
    <dc:date>2021-07-13T17:09:25.368429</dc:date>
    <dc:format>image/svg+xml</dc:format>
    <dc:creator>
     <cc:Agent>
      <dc:title>Matplotlib v3.3.4, https://matplotlib.org/</dc:title>
     </cc:Agent>
    </dc:creator>
   </cc:Work>
  </rdf:RDF>
 </metadata>
 <defs>
  <style type="text/css">*{stroke-linecap:butt;stroke-linejoin:round;}</style>
 </defs>
 <g id="figure_1">
  <g id="patch_1">
   <path d="M 0 288 
L 432 288 
L 432 0 
L 0 0 
z
" style="fill:#ffffff;"/>
  </g>
  <g id="axes_1">
   <g id="patch_2">
    <path d="M 54 252 
L 388.8 252 
L 388.8 34.56 
L 54 34.56 
z
" style="fill:#ffffff;"/>
   </g>
   <g id="PolyCollection_1">
    <defs>
     <path d="M 94.467799 -45.883636 
L 65.612201 -45.883636 
L 65.16 -47.880331 
L 66.309792 -49.877025 
L 68.532164 -51.873719 
L 71.07802 -53.870413 
L 73.346034 -55.867107 
L 75.057624 -57.863802 
L 76.212977 -59.860496 
L 76.949062 -61.85719 
L 77.419295 -63.853884 
L 77.737635 -65.850579 
L 77.971932 -67.847273 
L 78.157737 -69.843967 
L 78.313324 -71.840661 
L 78.448665 -73.837355 
L 78.568635 -75.83405 
L 78.673796 -77.830744 
L 78.761746 -79.827438 
L 78.82987 -81.824132 
L 78.878432 -83.820826 
L 78.91223 -85.817521 
L 78.939866 -87.814215 
L 78.971108 -89.810909 
L 79.013622 -91.807603 
L 79.070225 -93.804298 
L 79.137679 -95.800992 
L 79.207944 -97.797686 
L 79.27199 -99.79438 
L 79.324424 -101.791074 
L 79.36613 -103.787769 
L 79.403135 -105.784463 
L 79.442596 -107.781157 
L 79.488573 -109.777851 
L 79.540072 -111.774545 
L 79.59206 -113.77124 
L 79.638388 -115.767934 
L 79.674857 -117.764628 
L 79.700947 -119.761322 
L 79.719541 -121.758017 
L 79.734883 -123.754711 
L 79.74988 -125.751405 
L 79.764424 -127.748099 
L 79.775891 -129.744793 
L 79.781505 -131.741488 
L 79.780769 -133.738182 
L 79.776141 -135.734876 
L 79.771595 -137.73157 
L 79.770379 -139.728264 
L 79.773658 -141.724959 
L 79.780752 -143.721653 
L 79.790293 -145.718347 
L 79.801185 -147.715041 
L 79.81289 -149.711736 
L 79.825343 -151.70843 
L 79.838821 -153.705124 
L 79.853669 -155.701818 
L 79.869763 -157.698512 
L 79.886061 -159.695207 
L 79.900831 -161.691901 
L 79.912597 -163.688595 
L 79.921135 -165.685289 
L 79.927691 -167.681983 
L 79.934203 -169.678678 
L 79.942021 -171.675372 
L 79.950996 -173.672066 
L 79.959564 -175.66876 
L 79.965792 -177.665455 
L 79.968652 -179.662149 
L 79.968709 -181.658843 
L 79.967844 -183.655537 
L 79.968259 -185.652231 
L 79.971355 -187.648926 
L 79.977124 -189.64562 
L 79.984359 -191.642314 
L 79.991459 -193.639008 
L 79.997229 -195.635702 
L 80.001154 -197.632397 
L 80.003177 -199.629091 
L 80.003419 -201.625785 
L 80.002164 -203.622479 
L 79.999993 -205.619174 
L 79.99776 -207.615868 
L 79.996357 -209.612562 
L 79.996435 -211.609256 
L 79.998231 -213.60595 
L 80.0015 -215.602645 
L 80.005607 -217.599339 
L 80.009836 -219.596033 
L 80.013809 -221.592727 
L 80.017638 -223.589421 
L 80.021651 -225.586116 
L 80.025917 -227.58281 
L 80.030044 -229.579504 
L 80.033389 -231.576198 
L 80.03542 -233.572893 
L 80.035975 -235.569587 
L 80.035303 -237.566281 
L 80.033985 -239.562975 
L 80.032765 -241.559669 
L 80.032289 -243.556364 
L 80.047711 -243.556364 
L 80.047711 -243.556364 
L 80.047235 -241.559669 
L 80.046015 -239.562975 
L 80.044697 -237.566281 
L 80.044025 -235.569587 
L 80.04458 -233.572893 
L 80.046611 -231.576198 
L 80.049956 -229.579504 
L 80.054083 -227.58281 
L 80.058349 -225.586116 
L 80.062362 -223.589421 
L 80.066191 -221.592727 
L 80.070164 -219.596033 
L 80.074393 -217.599339 
L 80.0785 -215.602645 
L 80.081769 -213.60595 
L 80.083565 -211.609256 
L 80.083643 -209.612562 
L 80.08224 -207.615868 
L 80.080007 -205.619174 
L 80.077836 -203.622479 
L 80.076581 -201.625785 
L 80.076823 -199.629091 
L 80.078846 -197.632397 
L 80.082771 -195.635702 
L 80.088541 -193.639008 
L 80.095641 -191.642314 
L 80.102876 -189.64562 
L 80.108645 -187.648926 
L 80.111741 -185.652231 
L 80.112156 -183.655537 
L 80.111291 -181.658843 
L 80.111348 -179.662149 
L 80.114208 -177.665455 
L 80.120436 -175.66876 
L 80.129004 -173.672066 
L 80.137979 -171.675372 
L 80.145797 -169.678678 
L 80.152309 -167.681983 
L 80.158865 -165.685289 
L 80.167403 -163.688595 
L 80.179169 -161.691901 
L 80.193939 -159.695207 
L 80.210237 -157.698512 
L 80.226331 -155.701818 
L 80.241179 -153.705124 
L 80.254657 -151.70843 
L 80.26711 -149.711736 
L 80.278815 -147.715041 
L 80.289707 -145.718347 
L 80.299248 -143.721653 
L 80.306342 -141.724959 
L 80.309621 -139.728264 
L 80.308405 -137.73157 
L 80.303859 -135.734876 
L 80.299231 -133.738182 
L 80.298495 -131.741488 
L 80.304109 -129.744793 
L 80.315576 -127.748099 
L 80.33012 -125.751405 
L 80.345117 -123.754711 
L 80.360459 -121.758017 
L 80.379053 -119.761322 
L 80.405143 -117.764628 
L 80.441612 -115.767934 
L 80.48794 -113.77124 
L 80.539928 -111.774545 
L 80.591427 -109.777851 
L 80.637404 -107.781157 
L 80.676865 -105.784463 
L 80.71387 -103.787769 
L 80.755576 -101.791074 
L 80.80801 -99.79438 
L 80.872056 -97.797686 
L 80.942321 -95.800992 
L 81.009775 -93.804298 
L 81.066378 -91.807603 
L 81.108892 -89.810909 
L 81.140134 -87.814215 
L 81.16777 -85.817521 
L 81.201568 -83.820826 
L 81.25013 -81.824132 
L 81.318254 -79.827438 
L 81.406204 -77.830744 
L 81.511365 -75.83405 
L 81.631335 -73.837355 
L 81.766676 -71.840661 
L 81.922263 -69.843967 
L 82.108068 -67.847273 
L 82.342365 -65.850579 
L 82.660705 -63.853884 
L 83.130938 -61.85719 
L 83.867023 -59.860496 
L 85.022376 -57.863802 
L 86.733966 -55.867107 
L 89.00198 -53.870413 
L 91.547836 -51.873719 
L 93.770208 -49.877025 
L 94.92 -47.880331 
L 94.467799 -45.883636 
z
" id="m16ae509556" style="stroke:#3d3d3d;stroke-width:1.5;"/>
    </defs>
    <g clip-path="url(#pb0528fb968)">
     <use style="fill:#3274a1;stroke:#3d3d3d;stroke-width:1.5;" x="0" xlink:href="#m16ae509556" y="288"/>
    </g>
   </g>
   <g id="PolyCollection_2">
    <defs>
     <path d="M 235.8641 -45.88366 
L 206.9359 -45.88366 
L 206.52 -47.871177 
L 207.031531 -49.858695 
L 208.30909 -51.846212 
L 210.064229 -53.833729 
L 211.977177 -55.821247 
L 213.783727 -57.808764 
L 215.322869 -59.796282 
L 216.538747 -61.783799 
L 217.451206 -63.771316 
L 218.116923 -65.758834 
L 218.598345 -67.746351 
L 218.947347 -69.733868 
L 219.201656 -71.721386 
L 219.388111 -73.708903 
L 219.527278 -75.696421 
L 219.636418 -77.683938 
L 219.730291 -79.671455 
L 219.820611 -81.658973 
L 219.915199 -83.64649 
L 220.017483 -85.634007 
L 220.126655 -87.621525 
L 220.238504 -89.609042 
L 220.34688 -91.59656 
L 220.445492 -93.584077 
L 220.529581 -95.571594 
L 220.596948 -97.559112 
L 220.648054 -99.546629 
L 220.685305 -101.534146 
L 220.712014 -103.521664 
L 220.731514 -105.509181 
L 220.746696 -107.496699 
L 220.759852 -109.484216 
L 220.772586 -111.471733 
L 220.785611 -113.459251 
L 220.798578 -115.446768 
L 220.810209 -117.434285 
L 220.818957 -119.421803 
L 220.824034 -121.40932 
L 220.826313 -123.396838 
L 220.828546 -125.384355 
L 220.834586 -127.371872 
L 220.847862 -129.35939 
L 220.869761 -131.346907 
L 220.898763 -133.334424 
L 220.930816 -135.321942 
L 220.960873 -137.309459 
L 220.984882 -139.296977 
L 221.001298 -141.284494 
L 221.011394 -143.272011 
L 221.018306 -145.259529 
L 221.02537 -147.247046 
L 221.03464 -149.234563 
L 221.046268 -151.222081 
L 221.058878 -153.209598 
L 221.070557 -155.197116 
L 221.079844 -157.184633 
L 221.086278 -159.17215 
L 221.090436 -161.159668 
L 221.093668 -163.147185 
L 221.097761 -165.134702 
L 221.104608 -167.12222 
L 221.115849 -169.109737 
L 221.132462 -171.097255 
L 221.154443 -173.084772 
L 221.180745 -175.072289 
L 221.209566 -177.059807 
L 221.238854 -179.047324 
L 221.266786 -181.034841 
L 221.292019 -183.022359 
L 221.313705 -185.009876 
L 221.33138 -186.997394 
L 221.344886 -188.984911 
L 221.354372 -190.972428 
L 221.360317 -192.959946 
L 221.363488 -194.947463 
L 221.3648 -196.93498 
L 221.365137 -198.922498 
L 221.365209 -200.910015 
L 221.365501 -202.897533 
L 221.366287 -204.88505 
L 221.367652 -206.872567 
L 221.369495 -208.860085 
L 221.371535 -210.847602 
L 221.373378 -212.835119 
L 221.374662 -214.822637 
L 221.375231 -216.810154 
L 221.375239 -218.797672 
L 221.375115 -220.785189 
L 221.375365 -222.772706 
L 221.376325 -224.760224 
L 221.377977 -226.747741 
L 221.379931 -228.735258 
L 221.381581 -230.722776 
L 221.382375 -232.710293 
L 221.38206 -234.697811 
L 221.380812 -236.685328 
L 221.379191 -238.672845 
L 221.377938 -240.660363 
L 221.377712 -242.64788 
L 221.422288 -242.64788 
L 221.422288 -242.64788 
L 221.422062 -240.660363 
L 221.420809 -238.672845 
L 221.419188 -236.685328 
L 221.41794 -234.697811 
L 221.417625 -232.710293 
L 221.418419 -230.722776 
L 221.420069 -228.735258 
L 221.422023 -226.747741 
L 221.423675 -224.760224 
L 221.424635 -222.772706 
L 221.424885 -220.785189 
L 221.424761 -218.797672 
L 221.424769 -216.810154 
L 221.425338 -214.822637 
L 221.426622 -212.835119 
L 221.428465 -210.847602 
L 221.430505 -208.860085 
L 221.432348 -206.872567 
L 221.433713 -204.88505 
L 221.434499 -202.897533 
L 221.434791 -200.910015 
L 221.434863 -198.922498 
L 221.4352 -196.93498 
L 221.436512 -194.947463 
L 221.439683 -192.959946 
L 221.445628 -190.972428 
L 221.455114 -188.984911 
L 221.46862 -186.997394 
L 221.486295 -185.009876 
L 221.507981 -183.022359 
L 221.533214 -181.034841 
L 221.561146 -179.047324 
L 221.590434 -177.059807 
L 221.619255 -175.072289 
L 221.645557 -173.084772 
L 221.667538 -171.097255 
L 221.684151 -169.109737 
L 221.695392 -167.12222 
L 221.702239 -165.134702 
L 221.706332 -163.147185 
L 221.709564 -161.159668 
L 221.713722 -159.17215 
L 221.720156 -157.184633 
L 221.729443 -155.197116 
L 221.741122 -153.209598 
L 221.753732 -151.222081 
L 221.76536 -149.234563 
L 221.77463 -147.247046 
L 221.781694 -145.259529 
L 221.788606 -143.272011 
L 221.798702 -141.284494 
L 221.815118 -139.296977 
L 221.839127 -137.309459 
L 221.869184 -135.321942 
L 221.901237 -133.334424 
L 221.930239 -131.346907 
L 221.952138 -129.35939 
L 221.965414 -127.371872 
L 221.971454 -125.384355 
L 221.973687 -123.396838 
L 221.975966 -121.40932 
L 221.981043 -119.421803 
L 221.989791 -117.434285 
L 222.001422 -115.446768 
L 222.014389 -113.459251 
L 222.027414 -111.471733 
L 222.040148 -109.484216 
L 222.053304 -107.496699 
L 222.068486 -105.509181 
L 222.087986 -103.521664 
L 222.114695 -101.534146 
L 222.151946 -99.546629 
L 222.203052 -97.559112 
L 222.270419 -95.571594 
L 222.354508 -93.584077 
L 222.45312 -91.59656 
L 222.561496 -89.609042 
L 222.673345 -87.621525 
L 222.782517 -85.634007 
L 222.884801 -83.64649 
L 222.979389 -81.658973 
L 223.069709 -79.671455 
L 223.163582 -77.683938 
L 223.272722 -75.696421 
L 223.411889 -73.708903 
L 223.598344 -71.721386 
L 223.852653 -69.733868 
L 224.201655 -67.746351 
L 224.683077 -65.758834 
L 225.348794 -63.771316 
L 226.261253 -61.783799 
L 227.477131 -59.796282 
L 229.016273 -57.808764 
L 230.822823 -55.821247 
L 232.735771 -53.833729 
L 234.49091 -51.846212 
L 235.768469 -49.858695 
L 236.28 -47.871177 
L 235.8641 -45.88366 
z
" id="me2e8a125c6" style="stroke:#3d3d3d;stroke-width:1.5;"/>
    </defs>
    <g clip-path="url(#pb0528fb968)">
     <use style="fill:#e1812c;stroke:#3d3d3d;stroke-width:1.5;" x="0" xlink:href="#me2e8a125c6" y="288"/>
    </g>
   </g>
   <g id="PolyCollection_3">
    <defs>
     <path d="M 377.205919 -45.883656 
L 348.314081 -45.883656 
L 347.88 -47.752371 
L 348.324599 -49.621087 
L 349.512589 -51.489803 
L 351.189343 -53.358519 
L 353.060875 -55.227235 
L 354.870591 -57.095951 
L 356.446738 -58.964667 
L 357.712372 -60.833383 
L 358.666464 -62.702098 
L 359.352744 -64.570814 
L 359.83102 -66.43953 
L 360.15862 -68.308246 
L 360.382464 -70.176962 
L 360.5383 -72.045678 
L 360.652924 -73.914394 
L 360.746495 -75.78311 
L 360.833747 -77.651825 
L 360.924237 -79.520541 
L 361.022374 -81.389257 
L 361.127996 -83.257973 
L 361.237803 -85.126689 
L 361.347357 -86.995405 
L 361.452915 -88.864121 
L 361.552417 -90.732837 
L 361.645369 -92.601552 
L 361.73199 -94.470268 
L 361.812271 -96.338984 
L 361.885489 -98.2077 
L 361.950331 -100.076416 
L 362.00539 -101.945132 
L 362.049732 -103.813848 
L 362.083297 -105.682564 
L 362.107092 -107.551279 
L 362.123157 -109.419995 
L 362.134305 -111.288711 
L 362.143628 -113.157427 
L 362.153835 -115.026143 
L 362.166602 -116.894859 
L 362.182149 -118.763575 
L 362.199238 -120.632291 
L 362.21566 -122.501006 
L 362.229108 -124.369722 
L 362.238158 -126.238438 
L 362.242987 -128.107154 
L 362.245499 -129.97587 
L 362.248747 -131.844586 
L 362.255836 -133.713302 
L 362.268755 -135.582018 
L 362.287642 -137.450733 
L 362.310804 -139.319449 
L 362.335482 -141.188165 
L 362.358988 -143.056881 
L 362.379703 -144.925597 
L 362.397487 -146.794313 
L 362.413386 -148.663029 
L 362.428862 -150.531745 
L 362.444961 -152.40046 
L 362.461837 -154.269176 
L 362.478811 -156.137892 
L 362.494878 -158.006608 
L 362.509379 -159.875324 
L 362.522479 -161.74404 
L 362.535194 -163.612756 
L 362.548947 -165.481472 
L 362.56484 -167.350187 
L 362.583019 -169.218903 
L 362.602434 -171.087619 
L 362.621132 -172.956335 
L 362.636942 -174.825051 
L 362.648261 -176.693767 
L 362.654583 -178.562483 
L 362.656608 -180.431199 
L 362.65591 -182.299914 
L 362.654346 -184.16863 
L 362.653465 -186.037346 
L 362.654145 -187.906062 
L 362.656559 -189.774778 
L 362.660426 -191.643494 
L 362.665372 -193.51221 
L 362.67121 -195.380925 
L 362.678007 -197.249641 
L 362.685958 -199.118357 
L 362.695141 -200.987073 
L 362.705339 -202.855789 
L 362.715999 -204.724505 
L 362.726354 -206.593221 
L 362.735636 -208.461937 
L 362.743259 -210.330652 
L 362.748923 -212.199368 
L 362.752586 -214.068084 
L 362.754383 -215.9368 
L 362.754523 -217.805516 
L 362.753242 -219.674232 
L 362.750818 -221.542948 
L 362.747621 -223.411664 
L 362.744153 -225.280379 
L 362.741019 -227.149095 
L 362.73883 -229.017811 
L 362.738045 -230.886527 
L 362.781955 -230.886527 
L 362.781955 -230.886527 
L 362.78117 -229.017811 
L 362.778981 -227.149095 
L 362.775847 -225.280379 
L 362.772379 -223.411664 
L 362.769182 -221.542948 
L 362.766758 -219.674232 
L 362.765477 -217.805516 
L 362.765617 -215.9368 
L 362.767414 -214.068084 
L 362.771077 -212.199368 
L 362.776741 -210.330652 
L 362.784364 -208.461937 
L 362.793646 -206.593221 
L 362.804001 -204.724505 
L 362.814661 -202.855789 
L 362.824859 -200.987073 
L 362.834042 -199.118357 
L 362.841993 -197.249641 
L 362.84879 -195.380925 
L 362.854628 -193.51221 
L 362.859574 -191.643494 
L 362.863441 -189.774778 
L 362.865855 -187.906062 
L 362.866535 -186.037346 
L 362.865654 -184.16863 
L 362.86409 -182.299914 
L 362.863392 -180.431199 
L 362.865417 -178.562483 
L 362.871739 -176.693767 
L 362.883058 -174.825051 
L 362.898868 -172.956335 
L 362.917566 -171.087619 
L 362.936981 -169.218903 
L 362.95516 -167.350187 
L 362.971053 -165.481472 
L 362.984806 -163.612756 
L 362.997521 -161.74404 
L 363.010621 -159.875324 
L 363.025122 -158.006608 
L 363.041189 -156.137892 
L 363.058163 -154.269176 
L 363.075039 -152.40046 
L 363.091138 -150.531745 
L 363.106614 -148.663029 
L 363.122513 -146.794313 
L 363.140297 -144.925597 
L 363.161012 -143.056881 
L 363.184518 -141.188165 
L 363.209196 -139.319449 
L 363.232358 -137.450733 
L 363.251245 -135.582018 
L 363.264164 -133.713302 
L 363.271253 -131.844586 
L 363.274501 -129.97587 
L 363.277013 -128.107154 
L 363.281842 -126.238438 
L 363.290892 -124.369722 
L 363.30434 -122.501006 
L 363.320762 -120.632291 
L 363.337851 -118.763575 
L 363.353398 -116.894859 
L 363.366165 -115.026143 
L 363.376372 -113.157427 
L 363.385695 -111.288711 
L 363.396843 -109.419995 
L 363.412908 -107.551279 
L 363.436703 -105.682564 
L 363.470268 -103.813848 
L 363.51461 -101.945132 
L 363.569669 -100.076416 
L 363.634511 -98.2077 
L 363.707729 -96.338984 
L 363.78801 -94.470268 
L 363.874631 -92.601552 
L 363.967583 -90.732837 
L 364.067085 -88.864121 
L 364.172643 -86.995405 
L 364.282197 -85.126689 
L 364.392004 -83.257973 
L 364.497626 -81.389257 
L 364.595763 -79.520541 
L 364.686253 -77.651825 
L 364.773505 -75.78311 
L 364.867076 -73.914394 
L 364.9817 -72.045678 
L 365.137536 -70.176962 
L 365.36138 -68.308246 
L 365.68898 -66.43953 
L 366.167256 -64.570814 
L 366.853536 -62.702098 
L 367.807628 -60.833383 
L 369.073262 -58.964667 
L 370.649409 -57.095951 
L 372.459125 -55.227235 
L 374.330657 -53.358519 
L 376.007411 -51.489803 
L 377.195401 -49.621087 
L 377.64 -47.752371 
L 377.205919 -45.883656 
z
" id="md10c866a8a" style="stroke:#3d3d3d;stroke-width:1.5;"/>
    </defs>
    <g clip-path="url(#pb0528fb968)">
     <use style="fill:#3a923a;stroke:#3d3d3d;stroke-width:1.5;" x="0" xlink:href="#md10c866a8a" y="288"/>
    </g>
   </g>
   <g id="patch_3">
    <path clip-path="url(#pb0528fb968)" d="M 109.8 242.116391 
L 109.8 242.116391 
L 109.8 242.116391 
L 109.8 242.116391 
z
" style="fill:#3274a1;stroke:#3d3d3d;stroke-linejoin:miter;stroke-width:0.75;"/>
   </g>
   <g id="patch_4">
    <path clip-path="url(#pb0528fb968)" d="M 109.8 242.116391 
L 109.8 242.116391 
L 109.8 242.116391 
L 109.8 242.116391 
z
" style="fill:#e1812c;stroke:#3d3d3d;stroke-linejoin:miter;stroke-width:0.75;"/>
   </g>
   <g id="patch_5">
    <path clip-path="url(#pb0528fb968)" d="M 109.8 242.116391 
L 109.8 242.116391 
L 109.8 242.116391 
L 109.8 242.116391 
z
" style="fill:#3a923a;stroke:#3d3d3d;stroke-linejoin:miter;stroke-width:0.75;"/>
   </g>
   <g id="matplotlib.axis_1">
    <g id="xtick_1">
     <g id="line2d_1">
      <defs>
       <path d="M 0 0 
L 0 3.5 
" id="m053b0e307d" style="stroke:#000000;stroke-width:0.8;"/>
      </defs>
      <g>
       <use style="stroke:#000000;stroke-width:0.8;" x="109.8" xlink:href="#m053b0e307d" y="252"/>
      </g>
     </g>
     <g id="text_1">
      <!-- train -->
      <g transform="translate(98.1625 266.598437)scale(0.1 -0.1)">
       <defs>
        <path d="M 18.3125 70.21875 
L 18.3125 54.6875 
L 36.8125 54.6875 
L 36.8125 47.703125 
L 18.3125 47.703125 
L 18.3125 18.015625 
Q 18.3125 11.328125 20.140625 9.421875 
Q 21.96875 7.515625 27.59375 7.515625 
L 36.8125 7.515625 
L 36.8125 0 
L 27.59375 0 
Q 17.1875 0 13.234375 3.875 
Q 9.28125 7.765625 9.28125 18.015625 
L 9.28125 47.703125 
L 2.6875 47.703125 
L 2.6875 54.6875 
L 9.28125 54.6875 
L 9.28125 70.21875 
z
" id="DejaVuSans-116"/>
        <path d="M 41.109375 46.296875 
Q 39.59375 47.171875 37.8125 47.578125 
Q 36.03125 48 33.890625 48 
Q 26.265625 48 22.1875 43.046875 
Q 18.109375 38.09375 18.109375 28.8125 
L 18.109375 0 
L 9.078125 0 
L 9.078125 54.6875 
L 18.109375 54.6875 
L 18.109375 46.1875 
Q 20.953125 51.171875 25.484375 53.578125 
Q 30.03125 56 36.53125 56 
Q 37.453125 56 38.578125 55.875 
Q 39.703125 55.765625 41.0625 55.515625 
z
" id="DejaVuSans-114"/>
        <path d="M 34.28125 27.484375 
Q 23.390625 27.484375 19.1875 25 
Q 14.984375 22.515625 14.984375 16.5 
Q 14.984375 11.71875 18.140625 8.90625 
Q 21.296875 6.109375 26.703125 6.109375 
Q 34.1875 6.109375 38.703125 11.40625 
Q 43.21875 16.703125 43.21875 25.484375 
L 43.21875 27.484375 
z
M 52.203125 31.203125 
L 52.203125 0 
L 43.21875 0 
L 43.21875 8.296875 
Q 40.140625 3.328125 35.546875 0.953125 
Q 30.953125 -1.421875 24.3125 -1.421875 
Q 15.921875 -1.421875 10.953125 3.296875 
Q 6 8.015625 6 15.921875 
Q 6 25.140625 12.171875 29.828125 
Q 18.359375 34.515625 30.609375 34.515625 
L 43.21875 34.515625 
L 43.21875 35.40625 
Q 43.21875 41.609375 39.140625 45 
Q 35.0625 48.390625 27.6875 48.390625 
Q 23 48.390625 18.546875 47.265625 
Q 14.109375 46.140625 10.015625 43.890625 
L 10.015625 52.203125 
Q 14.9375 54.109375 19.578125 55.046875 
Q 24.21875 56 28.609375 56 
Q 40.484375 56 46.34375 49.84375 
Q 52.203125 43.703125 52.203125 31.203125 
z
" id="DejaVuSans-97"/>
        <path d="M 9.421875 54.6875 
L 18.40625 54.6875 
L 18.40625 0 
L 9.421875 0 
z
M 9.421875 75.984375 
L 18.40625 75.984375 
L 18.40625 64.59375 
L 9.421875 64.59375 
z
" id="DejaVuSans-105"/>
        <path d="M 54.890625 33.015625 
L 54.890625 0 
L 45.90625 0 
L 45.90625 32.71875 
Q 45.90625 40.484375 42.875 44.328125 
Q 39.84375 48.1875 33.796875 48.1875 
Q 26.515625 48.1875 22.3125 43.546875 
Q 18.109375 38.921875 18.109375 30.90625 
L 18.109375 0 
L 9.078125 0 
L 9.078125 54.6875 
L 18.109375 54.6875 
L 18.109375 46.1875 
Q 21.34375 51.125 25.703125 53.5625 
Q 30.078125 56 35.796875 56 
Q 45.21875 56 50.046875 50.171875 
Q 54.890625 44.34375 54.890625 33.015625 
z
" id="DejaVuSans-110"/>
       </defs>
       <use xlink:href="#DejaVuSans-116"/>
       <use x="39.208984" xlink:href="#DejaVuSans-114"/>
       <use x="80.322266" xlink:href="#DejaVuSans-97"/>
       <use x="141.601562" xlink:href="#DejaVuSans-105"/>
       <use x="169.384766" xlink:href="#DejaVuSans-110"/>
      </g>
     </g>
    </g>
    <g id="xtick_2">
     <g id="line2d_2">
      <g>
       <use style="stroke:#000000;stroke-width:0.8;" x="221.4" xlink:href="#m053b0e307d" y="252"/>
      </g>
     </g>
     <g id="text_2">
      <!-- val -->
      <g transform="translate(213.9875 266.598437)scale(0.1 -0.1)">
       <defs>
        <path d="M 2.984375 54.6875 
L 12.5 54.6875 
L 29.59375 8.796875 
L 46.6875 54.6875 
L 56.203125 54.6875 
L 35.6875 0 
L 23.484375 0 
z
" id="DejaVuSans-118"/>
        <path d="M 9.421875 75.984375 
L 18.40625 75.984375 
L 18.40625 0 
L 9.421875 0 
z
" id="DejaVuSans-108"/>
       </defs>
       <use xlink:href="#DejaVuSans-118"/>
       <use x="59.179688" xlink:href="#DejaVuSans-97"/>
       <use x="120.458984" xlink:href="#DejaVuSans-108"/>
      </g>
     </g>
    </g>
    <g id="xtick_3">
     <g id="line2d_3">
      <g>
       <use style="stroke:#000000;stroke-width:0.8;" x="333" xlink:href="#m053b0e307d" y="252"/>
      </g>
     </g>
     <g id="text_3">
      <!-- test -->
      <g transform="translate(323.398438 266.598437)scale(0.1 -0.1)">
       <defs>
        <path d="M 56.203125 29.59375 
L 56.203125 25.203125 
L 14.890625 25.203125 
Q 15.484375 15.921875 20.484375 11.0625 
Q 25.484375 6.203125 34.421875 6.203125 
Q 39.59375 6.203125 44.453125 7.46875 
Q 49.3125 8.734375 54.109375 11.28125 
L 54.109375 2.78125 
Q 49.265625 0.734375 44.1875 -0.34375 
Q 39.109375 -1.421875 33.890625 -1.421875 
Q 20.796875 -1.421875 13.15625 6.1875 
Q 5.515625 13.8125 5.515625 26.8125 
Q 5.515625 40.234375 12.765625 48.109375 
Q 20.015625 56 32.328125 56 
Q 43.359375 56 49.78125 48.890625 
Q 56.203125 41.796875 56.203125 29.59375 
z
M 47.21875 32.234375 
Q 47.125 39.59375 43.09375 43.984375 
Q 39.0625 48.390625 32.421875 48.390625 
Q 24.90625 48.390625 20.390625 44.140625 
Q 15.875 39.890625 15.1875 32.171875 
z
" id="DejaVuSans-101"/>
        <path d="M 44.28125 53.078125 
L 44.28125 44.578125 
Q 40.484375 46.53125 36.375 47.5 
Q 32.28125 48.484375 27.875 48.484375 
Q 21.1875 48.484375 17.84375 46.4375 
Q 14.5 44.390625 14.5 40.28125 
Q 14.5 37.15625 16.890625 35.375 
Q 19.28125 33.59375 26.515625 31.984375 
L 29.59375 31.296875 
Q 39.15625 29.25 43.1875 25.515625 
Q 47.21875 21.78125 47.21875 15.09375 
Q 47.21875 7.46875 41.1875 3.015625 
Q 35.15625 -1.421875 24.609375 -1.421875 
Q 20.21875 -1.421875 15.453125 -0.5625 
Q 10.6875 0.296875 5.421875 2 
L 5.421875 11.28125 
Q 10.40625 8.6875 15.234375 7.390625 
Q 20.0625 6.109375 24.8125 6.109375 
Q 31.15625 6.109375 34.5625 8.28125 
Q 37.984375 10.453125 37.984375 14.40625 
Q 37.984375 18.0625 35.515625 20.015625 
Q 33.0625 21.96875 24.703125 23.78125 
L 21.578125 24.515625 
Q 13.234375 26.265625 9.515625 29.90625 
Q 5.8125 33.546875 5.8125 39.890625 
Q 5.8125 47.609375 11.28125 51.796875 
Q 16.75 56 26.8125 56 
Q 31.78125 56 36.171875 55.265625 
Q 40.578125 54.546875 44.28125 53.078125 
z
" id="DejaVuSans-115"/>
       </defs>
       <use xlink:href="#DejaVuSans-116"/>
       <use x="39.208984" xlink:href="#DejaVuSans-101"/>
       <use x="100.732422" xlink:href="#DejaVuSans-115"/>
       <use x="152.832031" xlink:href="#DejaVuSans-116"/>
      </g>
     </g>
    </g>
    <g id="text_4">
     <!-- set -->
     <g transform="translate(213.758594 280.276563)scale(0.1 -0.1)">
      <use xlink:href="#DejaVuSans-115"/>
      <use x="52.099609" xlink:href="#DejaVuSans-101"/>
      <use x="113.623047" xlink:href="#DejaVuSans-116"/>
     </g>
    </g>
   </g>
   <g id="matplotlib.axis_2">
    <g id="ytick_1">
     <g id="line2d_4">
      <defs>
       <path d="M 0 0 
L -3.5 0 
" id="m60fcaf84c2" style="stroke:#000000;stroke-width:0.8;"/>
      </defs>
      <g>
       <use style="stroke:#000000;stroke-width:0.8;" x="54" xlink:href="#m60fcaf84c2" y="242.116391"/>
      </g>
     </g>
     <g id="text_5">
      <!-- 0.00 -->
      <g transform="translate(24.734375 245.91561)scale(0.1 -0.1)">
       <defs>
        <path d="M 31.78125 66.40625 
Q 24.171875 66.40625 20.328125 58.90625 
Q 16.5 51.421875 16.5 36.375 
Q 16.5 21.390625 20.328125 13.890625 
Q 24.171875 6.390625 31.78125 6.390625 
Q 39.453125 6.390625 43.28125 13.890625 
Q 47.125 21.390625 47.125 36.375 
Q 47.125 51.421875 43.28125 58.90625 
Q 39.453125 66.40625 31.78125 66.40625 
z
M 31.78125 74.21875 
Q 44.046875 74.21875 50.515625 64.515625 
Q 56.984375 54.828125 56.984375 36.375 
Q 56.984375 17.96875 50.515625 8.265625 
Q 44.046875 -1.421875 31.78125 -1.421875 
Q 19.53125 -1.421875 13.0625 8.265625 
Q 6.59375 17.96875 6.59375 36.375 
Q 6.59375 54.828125 13.0625 64.515625 
Q 19.53125 74.21875 31.78125 74.21875 
z
" id="DejaVuSans-48"/>
        <path d="M 10.6875 12.40625 
L 21 12.40625 
L 21 0 
L 10.6875 0 
z
" id="DejaVuSans-46"/>
       </defs>
       <use xlink:href="#DejaVuSans-48"/>
       <use x="63.623047" xlink:href="#DejaVuSans-46"/>
       <use x="95.410156" xlink:href="#DejaVuSans-48"/>
       <use x="159.033203" xlink:href="#DejaVuSans-48"/>
      </g>
     </g>
    </g>
    <g id="ytick_2">
     <g id="line2d_5">
      <g>
       <use style="stroke:#000000;stroke-width:0.8;" x="54" xlink:href="#m60fcaf84c2" y="197.873868"/>
      </g>
     </g>
     <g id="text_6">
      <!-- 0.02 -->
      <g transform="translate(24.734375 201.673087)scale(0.1 -0.1)">
       <defs>
        <path d="M 19.1875 8.296875 
L 53.609375 8.296875 
L 53.609375 0 
L 7.328125 0 
L 7.328125 8.296875 
Q 12.9375 14.109375 22.625 23.890625 
Q 32.328125 33.6875 34.8125 36.53125 
Q 39.546875 41.84375 41.421875 45.53125 
Q 43.3125 49.21875 43.3125 52.78125 
Q 43.3125 58.59375 39.234375 62.25 
Q 35.15625 65.921875 28.609375 65.921875 
Q 23.96875 65.921875 18.8125 64.3125 
Q 13.671875 62.703125 7.8125 59.421875 
L 7.8125 69.390625 
Q 13.765625 71.78125 18.9375 73 
Q 24.125 74.21875 28.421875 74.21875 
Q 39.75 74.21875 46.484375 68.546875 
Q 53.21875 62.890625 53.21875 53.421875 
Q 53.21875 48.921875 51.53125 44.890625 
Q 49.859375 40.875 45.40625 35.40625 
Q 44.1875 33.984375 37.640625 27.21875 
Q 31.109375 20.453125 19.1875 8.296875 
z
" id="DejaVuSans-50"/>
       </defs>
       <use xlink:href="#DejaVuSans-48"/>
       <use x="63.623047" xlink:href="#DejaVuSans-46"/>
       <use x="95.410156" xlink:href="#DejaVuSans-48"/>
       <use x="159.033203" xlink:href="#DejaVuSans-50"/>
      </g>
     </g>
    </g>
    <g id="ytick_3">
     <g id="line2d_6">
      <g>
       <use style="stroke:#000000;stroke-width:0.8;" x="54" xlink:href="#m60fcaf84c2" y="153.631345"/>
      </g>
     </g>
     <g id="text_7">
      <!-- 0.04 -->
      <g transform="translate(24.734375 157.430564)scale(0.1 -0.1)">
       <defs>
        <path d="M 37.796875 64.3125 
L 12.890625 25.390625 
L 37.796875 25.390625 
z
M 35.203125 72.90625 
L 47.609375 72.90625 
L 47.609375 25.390625 
L 58.015625 25.390625 
L 58.015625 17.1875 
L 47.609375 17.1875 
L 47.609375 0 
L 37.796875 0 
L 37.796875 17.1875 
L 4.890625 17.1875 
L 4.890625 26.703125 
z
" id="DejaVuSans-52"/>
       </defs>
       <use xlink:href="#DejaVuSans-48"/>
       <use x="63.623047" xlink:href="#DejaVuSans-46"/>
       <use x="95.410156" xlink:href="#DejaVuSans-48"/>
       <use x="159.033203" xlink:href="#DejaVuSans-52"/>
      </g>
     </g>
    </g>
    <g id="ytick_4">
     <g id="line2d_7">
      <g>
       <use style="stroke:#000000;stroke-width:0.8;" x="54" xlink:href="#m60fcaf84c2" y="109.388822"/>
      </g>
     </g>
     <g id="text_8">
      <!-- 0.06 -->
      <g transform="translate(24.734375 113.188041)scale(0.1 -0.1)">
       <defs>
        <path d="M 33.015625 40.375 
Q 26.375 40.375 22.484375 35.828125 
Q 18.609375 31.296875 18.609375 23.390625 
Q 18.609375 15.53125 22.484375 10.953125 
Q 26.375 6.390625 33.015625 6.390625 
Q 39.65625 6.390625 43.53125 10.953125 
Q 47.40625 15.53125 47.40625 23.390625 
Q 47.40625 31.296875 43.53125 35.828125 
Q 39.65625 40.375 33.015625 40.375 
z
M 52.59375 71.296875 
L 52.59375 62.3125 
Q 48.875 64.0625 45.09375 64.984375 
Q 41.3125 65.921875 37.59375 65.921875 
Q 27.828125 65.921875 22.671875 59.328125 
Q 17.53125 52.734375 16.796875 39.40625 
Q 19.671875 43.65625 24.015625 45.921875 
Q 28.375 48.1875 33.59375 48.1875 
Q 44.578125 48.1875 50.953125 41.515625 
Q 57.328125 34.859375 57.328125 23.390625 
Q 57.328125 12.15625 50.6875 5.359375 
Q 44.046875 -1.421875 33.015625 -1.421875 
Q 20.359375 -1.421875 13.671875 8.265625 
Q 6.984375 17.96875 6.984375 36.375 
Q 6.984375 53.65625 15.1875 63.9375 
Q 23.390625 74.21875 37.203125 74.21875 
Q 40.921875 74.21875 44.703125 73.484375 
Q 48.484375 72.75 52.59375 71.296875 
z
" id="DejaVuSans-54"/>
       </defs>
       <use xlink:href="#DejaVuSans-48"/>
       <use x="63.623047" xlink:href="#DejaVuSans-46"/>
       <use x="95.410156" xlink:href="#DejaVuSans-48"/>
       <use x="159.033203" xlink:href="#DejaVuSans-54"/>
      </g>
     </g>
    </g>
    <g id="ytick_5">
     <g id="line2d_8">
      <g>
       <use style="stroke:#000000;stroke-width:0.8;" x="54" xlink:href="#m60fcaf84c2" y="65.146299"/>
      </g>
     </g>
     <g id="text_9">
      <!-- 0.08 -->
      <g transform="translate(24.734375 68.945518)scale(0.1 -0.1)">
       <defs>
        <path d="M 31.78125 34.625 
Q 24.75 34.625 20.71875 30.859375 
Q 16.703125 27.09375 16.703125 20.515625 
Q 16.703125 13.921875 20.71875 10.15625 
Q 24.75 6.390625 31.78125 6.390625 
Q 38.8125 6.390625 42.859375 10.171875 
Q 46.921875 13.96875 46.921875 20.515625 
Q 46.921875 27.09375 42.890625 30.859375 
Q 38.875 34.625 31.78125 34.625 
z
M 21.921875 38.8125 
Q 15.578125 40.375 12.03125 44.71875 
Q 8.5 49.078125 8.5 55.328125 
Q 8.5 64.0625 14.71875 69.140625 
Q 20.953125 74.21875 31.78125 74.21875 
Q 42.671875 74.21875 48.875 69.140625 
Q 55.078125 64.0625 55.078125 55.328125 
Q 55.078125 49.078125 51.53125 44.71875 
Q 48 40.375 41.703125 38.8125 
Q 48.828125 37.15625 52.796875 32.3125 
Q 56.78125 27.484375 56.78125 20.515625 
Q 56.78125 9.90625 50.3125 4.234375 
Q 43.84375 -1.421875 31.78125 -1.421875 
Q 19.734375 -1.421875 13.25 4.234375 
Q 6.78125 9.90625 6.78125 20.515625 
Q 6.78125 27.484375 10.78125 32.3125 
Q 14.796875 37.15625 21.921875 38.8125 
z
M 18.3125 54.390625 
Q 18.3125 48.734375 21.84375 45.5625 
Q 25.390625 42.390625 31.78125 42.390625 
Q 38.140625 42.390625 41.71875 45.5625 
Q 45.3125 48.734375 45.3125 54.390625 
Q 45.3125 60.0625 41.71875 63.234375 
Q 38.140625 66.40625 31.78125 66.40625 
Q 25.390625 66.40625 21.84375 63.234375 
Q 18.3125 60.0625 18.3125 54.390625 
z
" id="DejaVuSans-56"/>
       </defs>
       <use xlink:href="#DejaVuSans-48"/>
       <use x="63.623047" xlink:href="#DejaVuSans-46"/>
       <use x="95.410156" xlink:href="#DejaVuSans-48"/>
       <use x="159.033203" xlink:href="#DejaVuSans-56"/>
      </g>
     </g>
    </g>
    <g id="text_10">
     <!-- value -->
     <g transform="translate(18.654688 156.937813)rotate(-90)scale(0.1 -0.1)">
      <defs>
       <path d="M 8.5 21.578125 
L 8.5 54.6875 
L 17.484375 54.6875 
L 17.484375 21.921875 
Q 17.484375 14.15625 20.5 10.265625 
Q 23.53125 6.390625 29.59375 6.390625 
Q 36.859375 6.390625 41.078125 11.03125 
Q 45.3125 15.671875 45.3125 23.6875 
L 45.3125 54.6875 
L 54.296875 54.6875 
L 54.296875 0 
L 45.3125 0 
L 45.3125 8.40625 
Q 42.046875 3.421875 37.71875 1 
Q 33.40625 -1.421875 27.6875 -1.421875 
Q 18.265625 -1.421875 13.375 4.4375 
Q 8.5 10.296875 8.5 21.578125 
z
M 31.109375 56 
z
" id="DejaVuSans-117"/>
      </defs>
      <use xlink:href="#DejaVuSans-118"/>
      <use x="59.179688" xlink:href="#DejaVuSans-97"/>
      <use x="120.458984" xlink:href="#DejaVuSans-108"/>
      <use x="148.242188" xlink:href="#DejaVuSans-117"/>
      <use x="211.621094" xlink:href="#DejaVuSans-101"/>
     </g>
    </g>
   </g>
   <g id="line2d_9">
    <path clip-path="url(#pb0528fb968)" d="M 80.04 242.116364 
L 80.04 201.79418 
" style="fill:none;stroke:#3d3d3d;stroke-linecap:square;stroke-width:1.5;"/>
   </g>
   <g id="line2d_10">
    <path clip-path="url(#pb0528fb968)" d="M 80.04 242.051335 
L 80.04 225.944177 
" style="fill:none;stroke:#3d3d3d;stroke-linecap:square;stroke-width:4.5;"/>
   </g>
   <g id="line2d_11">
    <path clip-path="url(#pb0528fb968)" d="M 221.4 242.11634 
L 221.4 201.559132 
" style="fill:none;stroke:#3d3d3d;stroke-linecap:square;stroke-width:1.5;"/>
   </g>
   <g id="line2d_12">
    <path clip-path="url(#pb0528fb968)" d="M 221.4 242.027035 
L 221.4 225.708902 
" style="fill:none;stroke:#3d3d3d;stroke-linecap:square;stroke-width:4.5;"/>
   </g>
   <g id="line2d_13">
    <path clip-path="url(#pb0528fb968)" d="M 362.76 242.116344 
L 362.76 200.896084 
" style="fill:none;stroke:#3d3d3d;stroke-linecap:square;stroke-width:1.5;"/>
   </g>
   <g id="line2d_14">
    <path clip-path="url(#pb0528fb968)" d="M 362.76 242.030799 
L 362.76 224.889935 
" style="fill:none;stroke:#3d3d3d;stroke-linecap:square;stroke-width:4.5;"/>
   </g>
   <g id="patch_6">
    <path d="M 54 252 
L 54 34.56 
" style="fill:none;stroke:#000000;stroke-linecap:square;stroke-linejoin:miter;stroke-width:0.8;"/>
   </g>
   <g id="patch_7">
    <path d="M 388.8 252 
L 388.8 34.56 
" style="fill:none;stroke:#000000;stroke-linecap:square;stroke-linejoin:miter;stroke-width:0.8;"/>
   </g>
   <g id="patch_8">
    <path d="M 54 252 
L 388.8 252 
" style="fill:none;stroke:#000000;stroke-linecap:square;stroke-linejoin:miter;stroke-width:0.8;"/>
   </g>
   <g id="patch_9">
    <path d="M 54 34.56 
L 388.8 34.56 
" style="fill:none;stroke:#000000;stroke-linecap:square;stroke-linejoin:miter;stroke-width:0.8;"/>
   </g>
   <g id="PathCollection_1">
    <defs>
     <path d="M 0 1.5 
C 0.397805 1.5 0.77937 1.341951 1.06066 1.06066 
C 1.341951 0.77937 1.5 0.397805 1.5 0 
C 1.5 -0.397805 1.341951 -0.77937 1.06066 -1.06066 
C 0.77937 -1.341951 0.397805 -1.5 0 -1.5 
C -0.397805 -1.5 -0.77937 -1.341951 -1.06066 -1.06066 
C -1.341951 -0.77937 -1.5 -0.397805 -1.5 0 
C -1.5 0.397805 -1.341951 0.77937 -1.06066 1.06066 
C -0.77937 1.341951 -0.397805 1.5 0 1.5 
z
" id="mc3f4a359be" style="stroke:#3d3d3d;"/>
    </defs>
    <g clip-path="url(#pb0528fb968)">
     <use style="fill:#ffffff;stroke:#3d3d3d;" x="80.04" xlink:href="#mc3f4a359be" y="239.771216"/>
    </g>
   </g>
   <g id="PathCollection_2">
    <g clip-path="url(#pb0528fb968)">
     <use style="fill:#ffffff;stroke:#3d3d3d;" x="221.4" xlink:href="#mc3f4a359be" y="240.026565"/>
    </g>
   </g>
   <g id="PathCollection_3">
    <g clip-path="url(#pb0528fb968)">
     <use style="fill:#ffffff;stroke:#3d3d3d;" x="362.76" xlink:href="#mc3f4a359be" y="239.823286"/>
    </g>
   </g>
   <g id="legend_1">
    <g id="patch_10">
     <path d="M 326.525 101.2725 
L 381.8 101.2725 
Q 383.8 101.2725 383.8 99.2725 
L 383.8 41.56 
Q 383.8 39.56 381.8 39.56 
L 326.525 39.56 
Q 324.525 39.56 324.525 41.56 
L 324.525 99.2725 
Q 324.525 101.2725 326.525 101.2725 
z
" style="fill:#ffffff;opacity:0.8;stroke:#cccccc;stroke-linejoin:miter;"/>
    </g>
    <g id="text_11">
     <!-- set -->
     <g transform="translate(346.521094 51.158437)scale(0.1 -0.1)">
      <use xlink:href="#DejaVuSans-115"/>
      <use x="52.099609" xlink:href="#DejaVuSans-101"/>
      <use x="113.623047" xlink:href="#DejaVuSans-116"/>
     </g>
    </g>
    <g id="patch_11">
     <path d="M 328.525 65.836562 
L 348.525 65.836562 
L 348.525 58.836562 
L 328.525 58.836562 
z
" style="fill:#3274a1;stroke:#3d3d3d;stroke-linejoin:miter;stroke-width:0.75;"/>
    </g>
    <g id="text_12">
     <!-- train -->
     <g transform="translate(356.525 65.836562)scale(0.1 -0.1)">
      <use xlink:href="#DejaVuSans-116"/>
      <use x="39.208984" xlink:href="#DejaVuSans-114"/>
      <use x="80.322266" xlink:href="#DejaVuSans-97"/>
      <use x="141.601562" xlink:href="#DejaVuSans-105"/>
      <use x="169.384766" xlink:href="#DejaVuSans-110"/>
     </g>
    </g>
    <g id="patch_12">
     <path d="M 328.525 80.514687 
L 348.525 80.514687 
L 348.525 73.514687 
L 328.525 73.514687 
z
" style="fill:#e1812c;stroke:#3d3d3d;stroke-linejoin:miter;stroke-width:0.75;"/>
    </g>
    <g id="text_13">
     <!-- val -->
     <g transform="translate(356.525 80.514687)scale(0.1 -0.1)">
      <use xlink:href="#DejaVuSans-118"/>
      <use x="59.179688" xlink:href="#DejaVuSans-97"/>
      <use x="120.458984" xlink:href="#DejaVuSans-108"/>
     </g>
    </g>
    <g id="patch_13">
     <path d="M 328.525 95.192813 
L 348.525 95.192813 
L 348.525 88.192813 
L 328.525 88.192813 
z
" style="fill:#3a923a;stroke:#3d3d3d;stroke-linejoin:miter;stroke-width:0.75;"/>
    </g>
    <g id="text_14">
     <!-- test -->
     <g transform="translate(356.525 95.192813)scale(0.1 -0.1)">
      <use xlink:href="#DejaVuSans-116"/>
      <use x="39.208984" xlink:href="#DejaVuSans-101"/>
      <use x="100.732422" xlink:href="#DejaVuSans-115"/>
      <use x="152.832031" xlink:href="#DejaVuSans-116"/>
     </g>
    </g>
   </g>
  </g>
 </g>
 <defs>
  <clipPath id="pb0528fb968">
   <rect height="217.44" width="334.8" x="54" y="34.56"/>
  </clipPath>
 </defs>
</svg>
