<?xml version="1.0" encoding="utf-8" standalone="no"?>
<!DOCTYPE svg PUBLIC "-//W3C//DTD SVG 1.1//EN"
  "http://www.w3.org/Graphics/SVG/1.1/DTD/svg11.dtd">
<!-- Created with matplotlib (http://matplotlib.org/) -->
<svg height="345.6pt" version="1.1" viewBox="0 0 460.8 345.6" width="460.8pt" xmlns="http://www.w3.org/2000/svg" xmlns:xlink="http://www.w3.org/1999/xlink">
 <defs>
  <style type="text/css">
*{stroke-linecap:butt;stroke-linejoin:round;}
  </style>
 </defs>
 <g id="figure_1">
  <g id="patch_1">
   <path d="M 0 345.6 
L 460.8 345.6 
L 460.8 0 
L 0 0 
z
" style="fill:#ffffff;"/>
  </g>
  <g id="axes_1">
   <g id="patch_2">
    <path d="M 57.6 307.584 
L 414.72 307.584 
L 414.72 41.472 
L 57.6 41.472 
z
" style="fill:#ffffff;"/>
   </g>
   <g id="matplotlib.axis_1">
    <g id="xtick_1">
     <g id="line2d_1">
      <defs>
       <path d="M 0 0 
L 0 3.5 
" id="m95f469da26" style="stroke:#000000;stroke-width:0.8;"/>
      </defs>
      <g>
       <use style="stroke:#000000;stroke-width:0.8;" x="73.832727" xlink:href="#m95f469da26" y="307.584"/>
      </g>
     </g>
     <g id="text_1">
      <!-- 0 -->
      <defs>
       <path d="M 31.78125 66.40625 
Q 24.171875 66.40625 20.328125 58.90625 
Q 16.5 51.421875 16.5 36.375 
Q 16.5 21.390625 20.328125 13.890625 
Q 24.171875 6.390625 31.78125 6.390625 
Q 39.453125 6.390625 43.28125 13.890625 
Q 47.125 21.390625 47.125 36.375 
Q 47.125 51.421875 43.28125 58.90625 
Q 39.453125 66.40625 31.78125 66.40625 
z
M 31.78125 74.21875 
Q 44.046875 74.21875 50.515625 64.515625 
Q 56.984375 54.828125 56.984375 36.375 
Q 56.984375 17.96875 50.515625 8.265625 
Q 44.046875 -1.421875 31.78125 -1.421875 
Q 19.53125 -1.421875 13.0625 8.265625 
Q 6.59375 17.96875 6.59375 36.375 
Q 6.59375 54.828125 13.0625 64.515625 
Q 19.53125 74.21875 31.78125 74.21875 
z
" id="DejaVuSans-30"/>
      </defs>
      <g transform="translate(70.651477 322.182437)scale(0.1 -0.1)">
       <use xlink:href="#DejaVuSans-30"/>
      </g>
     </g>
    </g>
    <g id="xtick_2">
     <g id="line2d_2">
      <g>
       <use style="stroke:#000000;stroke-width:0.8;" x="114.618474" xlink:href="#m95f469da26" y="307.584"/>
      </g>
     </g>
     <g id="text_2">
      <!-- 25 -->
      <defs>
       <path d="M 19.1875 8.296875 
L 53.609375 8.296875 
L 53.609375 0 
L 7.328125 0 
L 7.328125 8.296875 
Q 12.9375 14.109375 22.625 23.890625 
Q 32.328125 33.6875 34.8125 36.53125 
Q 39.546875 41.84375 41.421875 45.53125 
Q 43.3125 49.21875 43.3125 52.78125 
Q 43.3125 58.59375 39.234375 62.25 
Q 35.15625 65.921875 28.609375 65.921875 
Q 23.96875 65.921875 18.8125 64.3125 
Q 13.671875 62.703125 7.8125 59.421875 
L 7.8125 69.390625 
Q 13.765625 71.78125 18.9375 73 
Q 24.125 74.21875 28.421875 74.21875 
Q 39.75 74.21875 46.484375 68.546875 
Q 53.21875 62.890625 53.21875 53.421875 
Q 53.21875 48.921875 51.53125 44.890625 
Q 49.859375 40.875 45.40625 35.40625 
Q 44.1875 33.984375 37.640625 27.21875 
Q 31.109375 20.453125 19.1875 8.296875 
z
" id="DejaVuSans-32"/>
       <path d="M 10.796875 72.90625 
L 49.515625 72.90625 
L 49.515625 64.59375 
L 19.828125 64.59375 
L 19.828125 46.734375 
Q 21.96875 47.46875 24.109375 47.828125 
Q 26.265625 48.1875 28.421875 48.1875 
Q 40.625 48.1875 47.75 41.5 
Q 54.890625 34.8125 54.890625 23.390625 
Q 54.890625 11.625 47.5625 5.09375 
Q 40.234375 -1.421875 26.90625 -1.421875 
Q 22.3125 -1.421875 17.546875 -0.640625 
Q 12.796875 0.140625 7.71875 1.703125 
L 7.71875 11.625 
Q 12.109375 9.234375 16.796875 8.0625 
Q 21.484375 6.890625 26.703125 6.890625 
Q 35.15625 6.890625 40.078125 11.328125 
Q 45.015625 15.765625 45.015625 23.390625 
Q 45.015625 31 40.078125 35.4375 
Q 35.15625 39.890625 26.703125 39.890625 
Q 22.75 39.890625 18.8125 39.015625 
Q 14.890625 38.140625 10.796875 36.28125 
z
" id="DejaVuSans-35"/>
      </defs>
      <g transform="translate(108.255974 322.182437)scale(0.1 -0.1)">
       <use xlink:href="#DejaVuSans-32"/>
       <use x="63.623047" xlink:href="#DejaVuSans-35"/>
      </g>
     </g>
    </g>
    <g id="xtick_3">
     <g id="line2d_3">
      <g>
       <use style="stroke:#000000;stroke-width:0.8;" x="155.404221" xlink:href="#m95f469da26" y="307.584"/>
      </g>
     </g>
     <g id="text_3">
      <!-- 50 -->
      <g transform="translate(149.041721 322.182437)scale(0.1 -0.1)">
       <use xlink:href="#DejaVuSans-35"/>
       <use x="63.623047" xlink:href="#DejaVuSans-30"/>
      </g>
     </g>
    </g>
    <g id="xtick_4">
     <g id="line2d_4">
      <g>
       <use style="stroke:#000000;stroke-width:0.8;" x="196.189968" xlink:href="#m95f469da26" y="307.584"/>
      </g>
     </g>
     <g id="text_4">
      <!-- 75 -->
      <defs>
       <path d="M 8.203125 72.90625 
L 55.078125 72.90625 
L 55.078125 68.703125 
L 28.609375 0 
L 18.3125 0 
L 43.21875 64.59375 
L 8.203125 64.59375 
z
" id="DejaVuSans-37"/>
      </defs>
      <g transform="translate(189.827468 322.182437)scale(0.1 -0.1)">
       <use xlink:href="#DejaVuSans-37"/>
       <use x="63.623047" xlink:href="#DejaVuSans-35"/>
      </g>
     </g>
    </g>
    <g id="xtick_5">
     <g id="line2d_5">
      <g>
       <use style="stroke:#000000;stroke-width:0.8;" x="236.975715" xlink:href="#m95f469da26" y="307.584"/>
      </g>
     </g>
     <g id="text_5">
      <!-- 100 -->
      <defs>
       <path d="M 12.40625 8.296875 
L 28.515625 8.296875 
L 28.515625 63.921875 
L 10.984375 60.40625 
L 10.984375 69.390625 
L 28.421875 72.90625 
L 38.28125 72.90625 
L 38.28125 8.296875 
L 54.390625 8.296875 
L 54.390625 0 
L 12.40625 0 
z
" id="DejaVuSans-31"/>
      </defs>
      <g transform="translate(227.431965 322.182437)scale(0.1 -0.1)">
       <use xlink:href="#DejaVuSans-31"/>
       <use x="63.623047" xlink:href="#DejaVuSans-30"/>
       <use x="127.246094" xlink:href="#DejaVuSans-30"/>
      </g>
     </g>
    </g>
    <g id="xtick_6">
     <g id="line2d_6">
      <g>
       <use style="stroke:#000000;stroke-width:0.8;" x="277.761462" xlink:href="#m95f469da26" y="307.584"/>
      </g>
     </g>
     <g id="text_6">
      <!-- 125 -->
      <g transform="translate(268.217712 322.182437)scale(0.1 -0.1)">
       <use xlink:href="#DejaVuSans-31"/>
       <use x="63.623047" xlink:href="#DejaVuSans-32"/>
       <use x="127.246094" xlink:href="#DejaVuSans-35"/>
      </g>
     </g>
    </g>
    <g id="xtick_7">
     <g id="line2d_7">
      <g>
       <use style="stroke:#000000;stroke-width:0.8;" x="318.547209" xlink:href="#m95f469da26" y="307.584"/>
      </g>
     </g>
     <g id="text_7">
      <!-- 150 -->
      <g transform="translate(309.003459 322.182437)scale(0.1 -0.1)">
       <use xlink:href="#DejaVuSans-31"/>
       <use x="63.623047" xlink:href="#DejaVuSans-35"/>
       <use x="127.246094" xlink:href="#DejaVuSans-30"/>
      </g>
     </g>
    </g>
    <g id="xtick_8">
     <g id="line2d_8">
      <g>
       <use style="stroke:#000000;stroke-width:0.8;" x="359.332956" xlink:href="#m95f469da26" y="307.584"/>
      </g>
     </g>
     <g id="text_8">
      <!-- 175 -->
      <g transform="translate(349.789206 322.182437)scale(0.1 -0.1)">
       <use xlink:href="#DejaVuSans-31"/>
       <use x="63.623047" xlink:href="#DejaVuSans-37"/>
       <use x="127.246094" xlink:href="#DejaVuSans-35"/>
      </g>
     </g>
    </g>
    <g id="xtick_9">
     <g id="line2d_9">
      <g>
       <use style="stroke:#000000;stroke-width:0.8;" x="400.118703" xlink:href="#m95f469da26" y="307.584"/>
      </g>
     </g>
     <g id="text_9">
      <!-- 200 -->
      <g transform="translate(390.574953 322.182437)scale(0.1 -0.1)">
       <use xlink:href="#DejaVuSans-32"/>
       <use x="63.623047" xlink:href="#DejaVuSans-30"/>
       <use x="127.246094" xlink:href="#DejaVuSans-30"/>
      </g>
     </g>
    </g>
    <g id="text_10">
     <!-- epoch -->
     <defs>
      <path d="M 56.203125 29.59375 
L 56.203125 25.203125 
L 14.890625 25.203125 
Q 15.484375 15.921875 20.484375 11.0625 
Q 25.484375 6.203125 34.421875 6.203125 
Q 39.59375 6.203125 44.453125 7.46875 
Q 49.3125 8.734375 54.109375 11.28125 
L 54.109375 2.78125 
Q 49.265625 0.734375 44.1875 -0.34375 
Q 39.109375 -1.421875 33.890625 -1.421875 
Q 20.796875 -1.421875 13.15625 6.1875 
Q 5.515625 13.8125 5.515625 26.8125 
Q 5.515625 40.234375 12.765625 48.109375 
Q 20.015625 56 32.328125 56 
Q 43.359375 56 49.78125 48.890625 
Q 56.203125 41.796875 56.203125 29.59375 
z
M 47.21875 32.234375 
Q 47.125 39.59375 43.09375 43.984375 
Q 39.0625 48.390625 32.421875 48.390625 
Q 24.90625 48.390625 20.390625 44.140625 
Q 15.875 39.890625 15.1875 32.171875 
z
" id="DejaVuSans-65"/>
      <path d="M 18.109375 8.203125 
L 18.109375 -20.796875 
L 9.078125 -20.796875 
L 9.078125 54.6875 
L 18.109375 54.6875 
L 18.109375 46.390625 
Q 20.953125 51.265625 25.265625 53.625 
Q 29.59375 56 35.59375 56 
Q 45.5625 56 51.78125 48.09375 
Q 58.015625 40.1875 58.015625 27.296875 
Q 58.015625 14.40625 51.78125 6.484375 
Q 45.5625 -1.421875 35.59375 -1.421875 
Q 29.59375 -1.421875 25.265625 0.953125 
Q 20.953125 3.328125 18.109375 8.203125 
z
M 48.6875 27.296875 
Q 48.6875 37.203125 44.609375 42.84375 
Q 40.53125 48.484375 33.40625 48.484375 
Q 26.265625 48.484375 22.1875 42.84375 
Q 18.109375 37.203125 18.109375 27.296875 
Q 18.109375 17.390625 22.1875 11.75 
Q 26.265625 6.109375 33.40625 6.109375 
Q 40.53125 6.109375 44.609375 11.75 
Q 48.6875 17.390625 48.6875 27.296875 
z
" id="DejaVuSans-70"/>
      <path d="M 30.609375 48.390625 
Q 23.390625 48.390625 19.1875 42.75 
Q 14.984375 37.109375 14.984375 27.296875 
Q 14.984375 17.484375 19.15625 11.84375 
Q 23.34375 6.203125 30.609375 6.203125 
Q 37.796875 6.203125 41.984375 11.859375 
Q 46.1875 17.53125 46.1875 27.296875 
Q 46.1875 37.015625 41.984375 42.703125 
Q 37.796875 48.390625 30.609375 48.390625 
z
M 30.609375 56 
Q 42.328125 56 49.015625 48.375 
Q 55.71875 40.765625 55.71875 27.296875 
Q 55.71875 13.875 49.015625 6.21875 
Q 42.328125 -1.421875 30.609375 -1.421875 
Q 18.84375 -1.421875 12.171875 6.21875 
Q 5.515625 13.875 5.515625 27.296875 
Q 5.515625 40.765625 12.171875 48.375 
Q 18.84375 56 30.609375 56 
z
" id="DejaVuSans-6f"/>
      <path d="M 48.78125 52.59375 
L 48.78125 44.1875 
Q 44.96875 46.296875 41.140625 47.34375 
Q 37.3125 48.390625 33.40625 48.390625 
Q 24.65625 48.390625 19.8125 42.84375 
Q 14.984375 37.3125 14.984375 27.296875 
Q 14.984375 17.28125 19.8125 11.734375 
Q 24.65625 6.203125 33.40625 6.203125 
Q 37.3125 6.203125 41.140625 7.25 
Q 44.96875 8.296875 48.78125 10.40625 
L 48.78125 2.09375 
Q 45.015625 0.34375 40.984375 -0.53125 
Q 36.96875 -1.421875 32.421875 -1.421875 
Q 20.0625 -1.421875 12.78125 6.34375 
Q 5.515625 14.109375 5.515625 27.296875 
Q 5.515625 40.671875 12.859375 48.328125 
Q 20.21875 56 33.015625 56 
Q 37.15625 56 41.109375 55.140625 
Q 45.0625 54.296875 48.78125 52.59375 
z
" id="DejaVuSans-63"/>
      <path d="M 54.890625 33.015625 
L 54.890625 0 
L 45.90625 0 
L 45.90625 32.71875 
Q 45.90625 40.484375 42.875 44.328125 
Q 39.84375 48.1875 33.796875 48.1875 
Q 26.515625 48.1875 22.3125 43.546875 
Q 18.109375 38.921875 18.109375 30.90625 
L 18.109375 0 
L 9.078125 0 
L 9.078125 75.984375 
L 18.109375 75.984375 
L 18.109375 46.1875 
Q 21.34375 51.125 25.703125 53.5625 
Q 30.078125 56 35.796875 56 
Q 45.21875 56 50.046875 50.171875 
Q 54.890625 44.34375 54.890625 33.015625 
z
" id="DejaVuSans-68"/>
     </defs>
     <g transform="translate(220.931875 335.860562)scale(0.1 -0.1)">
      <use xlink:href="#DejaVuSans-65"/>
      <use x="61.523438" xlink:href="#DejaVuSans-70"/>
      <use x="125" xlink:href="#DejaVuSans-6f"/>
      <use x="186.181641" xlink:href="#DejaVuSans-63"/>
      <use x="241.162109" xlink:href="#DejaVuSans-68"/>
     </g>
    </g>
   </g>
   <g id="matplotlib.axis_2">
    <g id="ytick_1">
     <g id="line2d_10">
      <defs>
       <path d="M 0 0 
L -3.5 0 
" id="m4988048853" style="stroke:#000000;stroke-width:0.8;"/>
      </defs>
      <g>
       <use style="stroke:#000000;stroke-width:0.8;" x="57.6" xlink:href="#m4988048853" y="268.179337"/>
      </g>
     </g>
     <g id="text_11">
      <!-- 0.60 -->
      <defs>
       <path d="M 10.6875 12.40625 
L 21 12.40625 
L 21 0 
L 10.6875 0 
z
" id="DejaVuSans-2e"/>
       <path d="M 33.015625 40.375 
Q 26.375 40.375 22.484375 35.828125 
Q 18.609375 31.296875 18.609375 23.390625 
Q 18.609375 15.53125 22.484375 10.953125 
Q 26.375 6.390625 33.015625 6.390625 
Q 39.65625 6.390625 43.53125 10.953125 
Q 47.40625 15.53125 47.40625 23.390625 
Q 47.40625 31.296875 43.53125 35.828125 
Q 39.65625 40.375 33.015625 40.375 
z
M 52.59375 71.296875 
L 52.59375 62.3125 
Q 48.875 64.0625 45.09375 64.984375 
Q 41.3125 65.921875 37.59375 65.921875 
Q 27.828125 65.921875 22.671875 59.328125 
Q 17.53125 52.734375 16.796875 39.40625 
Q 19.671875 43.65625 24.015625 45.921875 
Q 28.375 48.1875 33.59375 48.1875 
Q 44.578125 48.1875 50.953125 41.515625 
Q 57.328125 34.859375 57.328125 23.390625 
Q 57.328125 12.15625 50.6875 5.359375 
Q 44.046875 -1.421875 33.015625 -1.421875 
Q 20.359375 -1.421875 13.671875 8.265625 
Q 6.984375 17.96875 6.984375 36.375 
Q 6.984375 53.65625 15.1875 63.9375 
Q 23.390625 74.21875 37.203125 74.21875 
Q 40.921875 74.21875 44.703125 73.484375 
Q 48.484375 72.75 52.59375 71.296875 
z
" id="DejaVuSans-36"/>
      </defs>
      <g transform="translate(28.334375 271.978556)scale(0.1 -0.1)">
       <use xlink:href="#DejaVuSans-30"/>
       <use x="63.623047" xlink:href="#DejaVuSans-2e"/>
       <use x="95.410156" xlink:href="#DejaVuSans-36"/>
       <use x="159.033203" xlink:href="#DejaVuSans-30"/>
      </g>
     </g>
    </g>
    <g id="ytick_2">
     <g id="line2d_11">
      <g>
       <use style="stroke:#000000;stroke-width:0.8;" x="57.6" xlink:href="#m4988048853" y="227.74637"/>
      </g>
     </g>
     <g id="text_12">
      <!-- 0.62 -->
      <g transform="translate(28.334375 231.545589)scale(0.1 -0.1)">
       <use xlink:href="#DejaVuSans-30"/>
       <use x="63.623047" xlink:href="#DejaVuSans-2e"/>
       <use x="95.410156" xlink:href="#DejaVuSans-36"/>
       <use x="159.033203" xlink:href="#DejaVuSans-32"/>
      </g>
     </g>
    </g>
    <g id="ytick_3">
     <g id="line2d_12">
      <g>
       <use style="stroke:#000000;stroke-width:0.8;" x="57.6" xlink:href="#m4988048853" y="187.313404"/>
      </g>
     </g>
     <g id="text_13">
      <!-- 0.64 -->
      <defs>
       <path d="M 37.796875 64.3125 
L 12.890625 25.390625 
L 37.796875 25.390625 
z
M 35.203125 72.90625 
L 47.609375 72.90625 
L 47.609375 25.390625 
L 58.015625 25.390625 
L 58.015625 17.1875 
L 47.609375 17.1875 
L 47.609375 0 
L 37.796875 0 
L 37.796875 17.1875 
L 4.890625 17.1875 
L 4.890625 26.703125 
z
" id="DejaVuSans-34"/>
      </defs>
      <g transform="translate(28.334375 191.112622)scale(0.1 -0.1)">
       <use xlink:href="#DejaVuSans-30"/>
       <use x="63.623047" xlink:href="#DejaVuSans-2e"/>
       <use x="95.410156" xlink:href="#DejaVuSans-36"/>
       <use x="159.033203" xlink:href="#DejaVuSans-34"/>
      </g>
     </g>
    </g>
    <g id="ytick_4">
     <g id="line2d_13">
      <g>
       <use style="stroke:#000000;stroke-width:0.8;" x="57.6" xlink:href="#m4988048853" y="146.880437"/>
      </g>
     </g>
     <g id="text_14">
      <!-- 0.66 -->
      <g transform="translate(28.334375 150.679656)scale(0.1 -0.1)">
       <use xlink:href="#DejaVuSans-30"/>
       <use x="63.623047" xlink:href="#DejaVuSans-2e"/>
       <use x="95.410156" xlink:href="#DejaVuSans-36"/>
       <use x="159.033203" xlink:href="#DejaVuSans-36"/>
      </g>
     </g>
    </g>
    <g id="ytick_5">
     <g id="line2d_14">
      <g>
       <use style="stroke:#000000;stroke-width:0.8;" x="57.6" xlink:href="#m4988048853" y="106.44747"/>
      </g>
     </g>
     <g id="text_15">
      <!-- 0.68 -->
      <defs>
       <path d="M 31.78125 34.625 
Q 24.75 34.625 20.71875 30.859375 
Q 16.703125 27.09375 16.703125 20.515625 
Q 16.703125 13.921875 20.71875 10.15625 
Q 24.75 6.390625 31.78125 6.390625 
Q 38.8125 6.390625 42.859375 10.171875 
Q 46.921875 13.96875 46.921875 20.515625 
Q 46.921875 27.09375 42.890625 30.859375 
Q 38.875 34.625 31.78125 34.625 
z
M 21.921875 38.8125 
Q 15.578125 40.375 12.03125 44.71875 
Q 8.5 49.078125 8.5 55.328125 
Q 8.5 64.0625 14.71875 69.140625 
Q 20.953125 74.21875 31.78125 74.21875 
Q 42.671875 74.21875 48.875 69.140625 
Q 55.078125 64.0625 55.078125 55.328125 
Q 55.078125 49.078125 51.53125 44.71875 
Q 48 40.375 41.703125 38.8125 
Q 48.828125 37.15625 52.796875 32.3125 
Q 56.78125 27.484375 56.78125 20.515625 
Q 56.78125 9.90625 50.3125 4.234375 
Q 43.84375 -1.421875 31.78125 -1.421875 
Q 19.734375 -1.421875 13.25 4.234375 
Q 6.78125 9.90625 6.78125 20.515625 
Q 6.78125 27.484375 10.78125 32.3125 
Q 14.796875 37.15625 21.921875 38.8125 
z
M 18.3125 54.390625 
Q 18.3125 48.734375 21.84375 45.5625 
Q 25.390625 42.390625 31.78125 42.390625 
Q 38.140625 42.390625 41.71875 45.5625 
Q 45.3125 48.734375 45.3125 54.390625 
Q 45.3125 60.0625 41.71875 63.234375 
Q 38.140625 66.40625 31.78125 66.40625 
Q 25.390625 66.40625 21.84375 63.234375 
Q 18.3125 60.0625 18.3125 54.390625 
z
" id="DejaVuSans-38"/>
      </defs>
      <g transform="translate(28.334375 110.246689)scale(0.1 -0.1)">
       <use xlink:href="#DejaVuSans-30"/>
       <use x="63.623047" xlink:href="#DejaVuSans-2e"/>
       <use x="95.410156" xlink:href="#DejaVuSans-36"/>
       <use x="159.033203" xlink:href="#DejaVuSans-38"/>
      </g>
     </g>
    </g>
    <g id="ytick_6">
     <g id="line2d_15">
      <g>
       <use style="stroke:#000000;stroke-width:0.8;" x="57.6" xlink:href="#m4988048853" y="66.014503"/>
      </g>
     </g>
     <g id="text_16">
      <!-- 0.70 -->
      <g transform="translate(28.334375 69.813722)scale(0.1 -0.1)">
       <use xlink:href="#DejaVuSans-30"/>
       <use x="63.623047" xlink:href="#DejaVuSans-2e"/>
       <use x="95.410156" xlink:href="#DejaVuSans-37"/>
       <use x="159.033203" xlink:href="#DejaVuSans-30"/>
      </g>
     </g>
    </g>
    <g id="text_17">
     <!-- accuracy -->
     <defs>
      <path d="M 34.28125 27.484375 
Q 23.390625 27.484375 19.1875 25 
Q 14.984375 22.515625 14.984375 16.5 
Q 14.984375 11.71875 18.140625 8.90625 
Q 21.296875 6.109375 26.703125 6.109375 
Q 34.1875 6.109375 38.703125 11.40625 
Q 43.21875 16.703125 43.21875 25.484375 
L 43.21875 27.484375 
z
M 52.203125 31.203125 
L 52.203125 0 
L 43.21875 0 
L 43.21875 8.296875 
Q 40.140625 3.328125 35.546875 0.953125 
Q 30.953125 -1.421875 24.3125 -1.421875 
Q 15.921875 -1.421875 10.953125 3.296875 
Q 6 8.015625 6 15.921875 
Q 6 25.140625 12.171875 29.828125 
Q 18.359375 34.515625 30.609375 34.515625 
L 43.21875 34.515625 
L 43.21875 35.40625 
Q 43.21875 41.609375 39.140625 45 
Q 35.0625 48.390625 27.6875 48.390625 
Q 23 48.390625 18.546875 47.265625 
Q 14.109375 46.140625 10.015625 43.890625 
L 10.015625 52.203125 
Q 14.9375 54.109375 19.578125 55.046875 
Q 24.21875 56 28.609375 56 
Q 40.484375 56 46.34375 49.84375 
Q 52.203125 43.703125 52.203125 31.203125 
z
" id="DejaVuSans-61"/>
      <path d="M 8.5 21.578125 
L 8.5 54.6875 
L 17.484375 54.6875 
L 17.484375 21.921875 
Q 17.484375 14.15625 20.5 10.265625 
Q 23.53125 6.390625 29.59375 6.390625 
Q 36.859375 6.390625 41.078125 11.03125 
Q 45.3125 15.671875 45.3125 23.6875 
L 45.3125 54.6875 
L 54.296875 54.6875 
L 54.296875 0 
L 45.3125 0 
L 45.3125 8.40625 
Q 42.046875 3.421875 37.71875 1 
Q 33.40625 -1.421875 27.6875 -1.421875 
Q 18.265625 -1.421875 13.375 4.4375 
Q 8.5 10.296875 8.5 21.578125 
z
M 31.109375 56 
z
" id="DejaVuSans-75"/>
      <path d="M 41.109375 46.296875 
Q 39.59375 47.171875 37.8125 47.578125 
Q 36.03125 48 33.890625 48 
Q 26.265625 48 22.1875 43.046875 
Q 18.109375 38.09375 18.109375 28.8125 
L 18.109375 0 
L 9.078125 0 
L 9.078125 54.6875 
L 18.109375 54.6875 
L 18.109375 46.1875 
Q 20.953125 51.171875 25.484375 53.578125 
Q 30.03125 56 36.53125 56 
Q 37.453125 56 38.578125 55.875 
Q 39.703125 55.765625 41.0625 55.515625 
z
" id="DejaVuSans-72"/>
      <path d="M 32.171875 -5.078125 
Q 28.375 -14.84375 24.75 -17.8125 
Q 21.140625 -20.796875 15.09375 -20.796875 
L 7.90625 -20.796875 
L 7.90625 -13.28125 
L 13.1875 -13.28125 
Q 16.890625 -13.28125 18.9375 -11.515625 
Q 21 -9.765625 23.484375 -3.21875 
L 25.09375 0.875 
L 2.984375 54.6875 
L 12.5 54.6875 
L 29.59375 11.921875 
L 46.6875 54.6875 
L 56.203125 54.6875 
z
" id="DejaVuSans-79"/>
     </defs>
     <g transform="translate(22.254687 197.087375)rotate(-90)scale(0.1 -0.1)">
      <use xlink:href="#DejaVuSans-61"/>
      <use x="61.279297" xlink:href="#DejaVuSans-63"/>
      <use x="116.259766" xlink:href="#DejaVuSans-63"/>
      <use x="171.240234" xlink:href="#DejaVuSans-75"/>
      <use x="234.619141" xlink:href="#DejaVuSans-72"/>
      <use x="275.732422" xlink:href="#DejaVuSans-61"/>
      <use x="337.011719" xlink:href="#DejaVuSans-63"/>
      <use x="391.992188" xlink:href="#DejaVuSans-79"/>
     </g>
    </g>
   </g>
   <g id="line2d_16">
    <path clip-path="url(#p094fac2041)" d="M 73.832727 295.488 
L 75.464157 277.891198 
L 77.095587 271.901402 
L 78.727017 266.987668 
L 80.358447 260.39911 
L 81.989877 255.175451 
L 83.621307 247.735442 
L 85.252736 243.533138 
L 86.884166 234.717144 
L 88.515596 231.957823 
L 90.147026 229.73581 
L 91.778456 226.113591 
L 93.409886 224.235845 
L 95.041316 216.254552 
L 96.672746 211.794499 
L 98.304175 210.568777 
L 99.935605 209.016501 
L 101.567035 206.155719 
L 103.198465 204.823234 
L 104.829895 203.008389 
L 106.461325 199.025153 
L 108.092755 197.216213 
L 109.724185 197.647963 
L 111.355614 201.222946 
L 112.987044 191.088927 
L 114.618474 191.110858 
L 116.249904 188.424319 
L 117.881334 201.662288 
L 119.512764 185.978538 
L 121.144194 186.813118 
L 122.775624 182.900736 
L 124.407053 183.881362 
L 126.038483 181.417145 
L 127.669913 180.398923 
L 129.301343 179.212604 
L 130.932773 178.207396 
L 132.564203 177.363778 
L 134.195633 174.787255 
L 135.827063 173.28113 
L 137.458492 176.214573 
L 139.089922 170.794982 
L 140.721352 170.501204 
L 142.352782 168.027226 
L 143.984212 167.937333 
L 145.615642 167.521368 
L 147.247072 164.306077 
L 148.878502 162.812484 
L 150.509931 163.789495 
L 152.141361 163.245559 
L 153.772791 159.293894 
L 155.404221 158.715978 
L 157.035651 159.342456 
L 158.667081 155.452969 
L 160.298511 158.181683 
L 161.929941 156.783526 
L 163.56137 155.207511 
L 165.1928 154.063005 
L 166.82423 152.334077 
L 168.45566 149.396657 
L 170.08709 149.885645 
L 171.71852 148.375543 
L 173.34995 148.028986 
L 174.98138 147.010523 
L 176.61281 146.504907 
L 178.244239 144.169383 
L 179.875669 144.703558 
L 181.507099 143.637498 
L 183.138529 142.272719 
L 184.769959 140.58717 
L 186.401389 143.445783 
L 188.032819 139.249022 
L 189.664249 138.040169 
L 191.295678 137.958712 
L 192.927108 138.334671 
L 194.558538 135.079734 
L 196.189968 136.764319 
L 197.821398 134.378788 
L 199.452828 134.366015 
L 201.084258 132.215217 
L 202.715688 133.193433 
L 204.347117 130.755244 
L 205.978547 128.663611 
L 207.609977 128.510938 
L 209.241407 129.605557 
L 210.872837 125.74029 
L 212.504267 126.875397 
L 214.135697 127.654547 
L 215.767127 126.36737 
L 217.398556 122.490174 
L 219.029986 126.094559 
L 220.661416 122.862759 
L 222.292846 120.517475 
L 223.924276 121.094186 
L 225.555706 119.679882 
L 227.187136 123.065319 
L 228.818566 120.109824 
L 230.449995 117.647776 
L 232.081425 118.776857 
L 233.712855 116.89875 
L 235.344285 115.959456 
L 236.975715 114.488517 
L 238.607145 116.75644 
L 240.238575 114.409348 
L 241.870005 114.323673 
L 243.501434 111.181766 
L 245.132864 110.279103 
L 246.764294 113.074453 
L 248.395724 110.323447 
L 250.027154 108.357857 
L 251.658584 107.110565 
L 253.290014 107.86911 
L 254.921444 109.685401 
L 256.552873 105.772658 
L 258.184303 106.15175 
L 259.815733 106.967291 
L 261.447163 105.497316 
L 263.078593 103.380499 
L 264.710023 103.728984 
L 266.341453 102.54375 
L 267.972883 105.305119 
L 269.604312 98.71644 
L 271.235742 100.586233 
L 272.867172 101.191623 
L 274.498602 100.243894 
L 276.130032 98.60052 
L 277.761462 96.495512 
L 279.392892 97.022577 
L 281.024322 98.208052 
L 282.655751 96.534071 
L 284.287181 95.426198 
L 285.918611 92.26248 
L 287.550041 94.521005 
L 289.181471 96.436587 
L 290.812901 96.859782 
L 292.444331 91.742283 
L 294.075761 89.560035 
L 295.70719 88.975491 
L 297.33862 88.236828 
L 298.97005 88.617607 
L 300.60148 88.082107 
L 302.23291 88.266351 
L 303.86434 89.400011 
L 305.49577 88.136211 
L 307.1272 87.322718 
L 308.75863 84.093328 
L 310.390059 84.741616 
L 312.021489 84.617983 
L 313.652919 82.507191 
L 315.284349 80.684152 
L 316.915779 82.471403 
L 318.547209 80.480508 
L 320.178639 80.223964 
L 321.810069 81.409319 
L 323.441498 78.840267 
L 325.072928 76.775144 
L 326.704358 78.087747 
L 328.335788 76.424973 
L 329.967218 77.24907 
L 331.598648 77.38897 
L 333.230078 75.523756 
L 334.861508 73.887732 
L 336.492937 72.914818 
L 338.124367 73.428508 
L 339.755797 72.66201 
L 341.387227 73.721081 
L 343.018657 72.222668 
L 344.650087 70.417463 
L 346.281517 75.08345 
L 347.912947 69.082087 
L 349.544376 67.491732 
L 351.175806 69.776405 
L 352.807236 66.816091 
L 354.438666 69.388517 
L 356.070096 67.086733 
L 359.332956 65.374192 
L 360.964386 65.68002 
L 362.595815 64.256799 
L 364.227245 63.575976 
L 365.858675 62.286148 
L 367.490105 63.85421 
L 369.121535 61.961402 
L 370.752965 61.199001 
L 372.384395 60.089561 
L 374.015825 62.333625 
L 375.647254 61.894163 
L 377.278684 60.33068 
L 378.910114 62.171192 
L 380.541544 58.2999 
L 382.172974 58.738639 
L 383.804404 57.989131 
L 385.435834 56.099938 
L 387.067264 57.234322 
L 388.698693 55.700361 
L 390.330123 56.497346 
L 391.961553 56.012697 
L 393.592983 55.980764 
L 395.224413 54.718169 
L 396.855843 54.47235 
L 398.487273 53.568 
L 398.487273 53.568 
" style="fill:none;stroke:#0000ff;stroke-linecap:square;stroke-width:1.5;"/>
   </g>
   <g id="line2d_17">
    <path clip-path="url(#p094fac2041)" d="M 73.832727 290.901302 
L 75.464157 276.14793 
L 77.095587 270.619889 
L 78.727017 259.451621 
L 80.358447 274.781464 
L 81.989877 243.578566 
L 83.621307 238.694716 
L 85.252736 227.476924 
L 86.884166 217.518232 
L 88.515596 219.164859 
L 90.147026 229.659774 
L 91.778456 206.682182 
L 93.409886 217.958899 
L 95.041316 211.900177 
L 96.672746 214.304988 
L 98.304175 210.88304 
L 99.935605 201.453582 
L 101.567035 207.205873 
L 103.198465 201.747601 
L 104.829895 202.92187 
L 106.461325 197.203078 
L 108.092755 192.439246 
L 109.724185 193.989594 
L 111.355614 188.457095 
L 112.987044 178.342838 
L 114.618474 187.17522 
L 116.249904 187.619261 
L 117.881334 179.800401 
L 119.512764 192.472504 
L 122.775624 179.907646 
L 124.407053 202.118499 
L 126.038483 176.89636 
L 127.669913 178.261862 
L 129.301343 181.80672 
L 130.932773 171.088639 
L 132.564203 175.605809 
L 134.195633 177.511029 
L 135.827063 171.209621 
L 137.458492 173.37765 
L 139.089922 177.774802 
L 140.721352 176.936366 
L 142.352782 175.725586 
L 143.984212 174.967763 
L 145.615642 169.24138 
L 147.247072 163.036492 
L 148.878502 168.911934 
L 150.509931 167.452081 
L 152.141361 167.164207 
L 153.772791 161.040537 
L 155.404221 162.193116 
L 157.035651 163.878182 
L 158.667081 162.219866 
L 160.298511 158.822259 
L 161.929941 163.049868 
L 163.56137 169.690723 
L 165.1928 158.356648 
L 166.82423 154.384378 
L 168.45566 163.480534 
L 170.08709 160.98354 
L 171.71852 156.950418 
L 173.34995 161.959949 
L 174.98138 152.453251 
L 176.61281 154.757806 
L 178.244239 158.518961 
L 179.875669 153.537507 
L 181.507099 161.269727 
L 183.138529 148.449651 
L 184.769959 148.385545 
L 186.401389 151.019787 
L 188.032819 147.412149 
L 189.664249 149.057933 
L 191.295678 154.540786 
L 192.927108 155.089903 
L 194.558538 165.354785 
L 196.189968 149.717307 
L 197.821398 152.086811 
L 199.452828 157.23805 
L 201.084258 151.303805 
L 202.715688 147.425886 
L 204.347117 148.023082 
L 205.978547 149.071067 
L 207.609977 149.963849 
L 209.241407 151.831834 
L 212.504267 144.669818 
L 214.135697 148.07321 
L 215.767127 146.789768 
L 217.398556 144.575226 
L 219.029986 150.394876 
L 220.661416 145.563684 
L 222.292846 148.048387 
L 223.924276 149.268807 
L 225.555706 154.089877 
L 227.187136 148.352407 
L 228.818566 145.616945 
L 230.449995 150.815902 
L 232.081425 145.54826 
L 233.712855 142.730497 
L 235.344285 149.99542 
L 236.975715 145.48307 
L 238.607145 145.656108 
L 240.238575 147.489992 
L 241.870005 143.458556 
L 243.501434 145.331843 
L 245.132864 145.93892 
L 246.764294 144.152272 
L 248.395724 148.540507 
L 250.027154 145.620801 
L 251.658584 145.674183 
L 253.290014 146.370911 
L 254.921444 146.584798 
L 256.552873 153.49485 
L 258.184303 150.08459 
L 259.815733 144.183241 
L 261.447163 144.958776 
L 263.078593 146.167749 
L 264.710023 145.071082 
L 266.341453 146.885927 
L 267.972883 147.513127 
L 269.604312 145.55778 
L 271.235742 149.871908 
L 272.867172 146.982688 
L 274.498602 143.686662 
L 276.130032 144.373148 
L 277.761462 145.458247 
L 279.392892 148.89574 
L 281.024322 148.723305 
L 282.655751 146.73 
L 284.287181 145.947476 
L 285.918611 143.555799 
L 287.550041 147.432513 
L 289.181471 148.298906 
L 290.812901 145.202668 
L 292.444331 144.639332 
L 294.075761 147.066917 
L 295.70719 147.875349 
L 297.33862 149.931917 
L 298.97005 147.860769 
L 300.60148 144.743202 
L 302.23291 145.221345 
L 303.86434 150.866632 
L 305.49577 147.000884 
L 307.1272 146.975579 
L 308.75863 148.609915 
L 310.390059 151.048346 
L 312.021489 148.747646 
L 313.652919 147.625313 
L 315.284349 148.9584 
L 316.915779 148.219014 
L 318.547209 147.255379 
L 320.178639 148.925986 
L 321.810069 148.910682 
L 323.441498 147.544096 
L 325.072928 148.87405 
L 326.704358 152.512657 
L 328.335788 149.682964 
L 329.967218 152.787878 
L 331.598648 150.602738 
L 333.230078 149.937098 
L 334.861508 151.952575 
L 336.492937 154.502829 
L 339.755797 150.372343 
L 341.387227 152.389386 
L 343.018657 152.434694 
L 344.650087 153.277589 
L 346.281517 150.285703 
L 347.912947 152.577245 
L 349.544376 150.209427 
L 351.175806 152.886929 
L 352.807236 151.013762 
L 354.438666 151.593245 
L 356.070096 156.421183 
L 357.701526 154.687314 
L 359.332956 152.518321 
L 360.964386 151.016413 
L 362.595815 151.582641 
L 364.227245 154.212425 
L 365.858675 152.805953 
L 367.490105 153.313498 
L 369.121535 151.886782 
L 370.752965 153.037072 
L 372.384395 155.148225 
L 374.015825 154.912407 
L 375.647254 152.167667 
L 377.278684 155.474297 
L 378.910114 154.000707 
L 380.541544 153.140942 
L 382.172974 152.681116 
L 383.804404 152.607611 
L 385.435834 153.386279 
L 387.067264 154.038423 
L 388.698693 150.583458 
L 390.330123 156.435282 
L 391.961553 156.183076 
L 393.592983 153.224207 
L 395.224413 154.391246 
L 396.855843 154.035772 
L 398.487273 156.311649 
L 398.487273 156.311649 
" style="fill:none;stroke:#bfbf00;stroke-linecap:square;stroke-width:1.5;"/>
   </g>
   <g id="patch_3">
    <path d="M 57.6 307.584 
L 57.6 41.472 
" style="fill:none;stroke:#000000;stroke-linecap:square;stroke-linejoin:miter;stroke-width:0.8;"/>
   </g>
   <g id="patch_4">
    <path d="M 414.72 307.584 
L 414.72 41.472 
" style="fill:none;stroke:#000000;stroke-linecap:square;stroke-linejoin:miter;stroke-width:0.8;"/>
   </g>
   <g id="patch_5">
    <path d="M 57.6 307.584 
L 414.72 307.584 
" style="fill:none;stroke:#000000;stroke-linecap:square;stroke-linejoin:miter;stroke-width:0.8;"/>
   </g>
   <g id="patch_6">
    <path d="M 57.6 41.472 
L 414.72 41.472 
" style="fill:none;stroke:#000000;stroke-linecap:square;stroke-linejoin:miter;stroke-width:0.8;"/>
   </g>
   <g id="text_18">
    <!-- samerate_acc_d2 val_samerate_acc_d2 -->
    <defs>
     <path d="M 44.28125 53.078125 
L 44.28125 44.578125 
Q 40.484375 46.53125 36.375 47.5 
Q 32.28125 48.484375 27.875 48.484375 
Q 21.1875 48.484375 17.84375 46.4375 
Q 14.5 44.390625 14.5 40.28125 
Q 14.5 37.15625 16.890625 35.375 
Q 19.28125 33.59375 26.515625 31.984375 
L 29.59375 31.296875 
Q 39.15625 29.25 43.1875 25.515625 
Q 47.21875 21.78125 47.21875 15.09375 
Q 47.21875 7.46875 41.1875 3.015625 
Q 35.15625 -1.421875 24.609375 -1.421875 
Q 20.21875 -1.421875 15.453125 -0.5625 
Q 10.6875 0.296875 5.421875 2 
L 5.421875 11.28125 
Q 10.40625 8.6875 15.234375 7.390625 
Q 20.0625 6.109375 24.8125 6.109375 
Q 31.15625 6.109375 34.5625 8.28125 
Q 37.984375 10.453125 37.984375 14.40625 
Q 37.984375 18.0625 35.515625 20.015625 
Q 33.0625 21.96875 24.703125 23.78125 
L 21.578125 24.515625 
Q 13.234375 26.265625 9.515625 29.90625 
Q 5.8125 33.546875 5.8125 39.890625 
Q 5.8125 47.609375 11.28125 51.796875 
Q 16.75 56 26.8125 56 
Q 31.78125 56 36.171875 55.265625 
Q 40.578125 54.546875 44.28125 53.078125 
z
" id="DejaVuSans-73"/>
     <path d="M 52 44.1875 
Q 55.375 50.25 60.0625 53.125 
Q 64.75 56 71.09375 56 
Q 79.640625 56 84.28125 50.015625 
Q 88.921875 44.046875 88.921875 33.015625 
L 88.921875 0 
L 79.890625 0 
L 79.890625 32.71875 
Q 79.890625 40.578125 77.09375 44.375 
Q 74.3125 48.1875 68.609375 48.1875 
Q 61.625 48.1875 57.5625 43.546875 
Q 53.515625 38.921875 53.515625 30.90625 
L 53.515625 0 
L 44.484375 0 
L 44.484375 32.71875 
Q 44.484375 40.625 41.703125 44.40625 
Q 38.921875 48.1875 33.109375 48.1875 
Q 26.21875 48.1875 22.15625 43.53125 
Q 18.109375 38.875 18.109375 30.90625 
L 18.109375 0 
L 9.078125 0 
L 9.078125 54.6875 
L 18.109375 54.6875 
L 18.109375 46.1875 
Q 21.1875 51.21875 25.484375 53.609375 
Q 29.78125 56 35.6875 56 
Q 41.65625 56 45.828125 52.96875 
Q 50 49.953125 52 44.1875 
z
" id="DejaVuSans-6d"/>
     <path d="M 18.3125 70.21875 
L 18.3125 54.6875 
L 36.8125 54.6875 
L 36.8125 47.703125 
L 18.3125 47.703125 
L 18.3125 18.015625 
Q 18.3125 11.328125 20.140625 9.421875 
Q 21.96875 7.515625 27.59375 7.515625 
L 36.8125 7.515625 
L 36.8125 0 
L 27.59375 0 
Q 17.1875 0 13.234375 3.875 
Q 9.28125 7.765625 9.28125 18.015625 
L 9.28125 47.703125 
L 2.6875 47.703125 
L 2.6875 54.6875 
L 9.28125 54.6875 
L 9.28125 70.21875 
z
" id="DejaVuSans-74"/>
     <path d="M 50.984375 -16.609375 
L 50.984375 -23.578125 
L -0.984375 -23.578125 
L -0.984375 -16.609375 
z
" id="DejaVuSans-5f"/>
     <path d="M 45.40625 46.390625 
L 45.40625 75.984375 
L 54.390625 75.984375 
L 54.390625 0 
L 45.40625 0 
L 45.40625 8.203125 
Q 42.578125 3.328125 38.25 0.953125 
Q 33.9375 -1.421875 27.875 -1.421875 
Q 17.96875 -1.421875 11.734375 6.484375 
Q 5.515625 14.40625 5.515625 27.296875 
Q 5.515625 40.1875 11.734375 48.09375 
Q 17.96875 56 27.875 56 
Q 33.9375 56 38.25 53.625 
Q 42.578125 51.265625 45.40625 46.390625 
z
M 14.796875 27.296875 
Q 14.796875 17.390625 18.875 11.75 
Q 22.953125 6.109375 30.078125 6.109375 
Q 37.203125 6.109375 41.296875 11.75 
Q 45.40625 17.390625 45.40625 27.296875 
Q 45.40625 37.203125 41.296875 42.84375 
Q 37.203125 48.484375 30.078125 48.484375 
Q 22.953125 48.484375 18.875 42.84375 
Q 14.796875 37.203125 14.796875 27.296875 
z
" id="DejaVuSans-64"/>
     <path id="DejaVuSans-20"/>
     <path d="M 2.984375 54.6875 
L 12.5 54.6875 
L 29.59375 8.796875 
L 46.6875 54.6875 
L 56.203125 54.6875 
L 35.6875 0 
L 23.484375 0 
z
" id="DejaVuSans-76"/>
     <path d="M 9.421875 75.984375 
L 18.40625 75.984375 
L 18.40625 0 
L 9.421875 0 
z
" id="DejaVuSans-6c"/>
    </defs>
    <g transform="translate(117.5025 35.472)scale(0.12 -0.12)">
     <use xlink:href="#DejaVuSans-73"/>
     <use x="52.099609" xlink:href="#DejaVuSans-61"/>
     <use x="113.378906" xlink:href="#DejaVuSans-6d"/>
     <use x="210.791016" xlink:href="#DejaVuSans-65"/>
     <use x="272.314453" xlink:href="#DejaVuSans-72"/>
     <use x="313.427734" xlink:href="#DejaVuSans-61"/>
     <use x="374.707031" xlink:href="#DejaVuSans-74"/>
     <use x="413.916016" xlink:href="#DejaVuSans-65"/>
     <use x="475.439453" xlink:href="#DejaVuSans-5f"/>
     <use x="525.439453" xlink:href="#DejaVuSans-61"/>
     <use x="586.71875" xlink:href="#DejaVuSans-63"/>
     <use x="641.699219" xlink:href="#DejaVuSans-63"/>
     <use x="696.679688" xlink:href="#DejaVuSans-5f"/>
     <use x="746.679688" xlink:href="#DejaVuSans-64"/>
     <use x="810.15625" xlink:href="#DejaVuSans-32"/>
     <use x="873.779297" xlink:href="#DejaVuSans-20"/>
     <use x="905.566406" xlink:href="#DejaVuSans-76"/>
     <use x="964.746094" xlink:href="#DejaVuSans-61"/>
     <use x="1026.025391" xlink:href="#DejaVuSans-6c"/>
     <use x="1053.808594" xlink:href="#DejaVuSans-5f"/>
     <use x="1103.808594" xlink:href="#DejaVuSans-73"/>
     <use x="1155.908203" xlink:href="#DejaVuSans-61"/>
     <use x="1217.1875" xlink:href="#DejaVuSans-6d"/>
     <use x="1314.599609" xlink:href="#DejaVuSans-65"/>
     <use x="1376.123047" xlink:href="#DejaVuSans-72"/>
     <use x="1417.236328" xlink:href="#DejaVuSans-61"/>
     <use x="1478.515625" xlink:href="#DejaVuSans-74"/>
     <use x="1517.724609" xlink:href="#DejaVuSans-65"/>
     <use x="1579.248047" xlink:href="#DejaVuSans-5f"/>
     <use x="1629.248047" xlink:href="#DejaVuSans-61"/>
     <use x="1690.527344" xlink:href="#DejaVuSans-63"/>
     <use x="1745.507812" xlink:href="#DejaVuSans-63"/>
     <use x="1800.488281" xlink:href="#DejaVuSans-5f"/>
     <use x="1850.488281" xlink:href="#DejaVuSans-64"/>
     <use x="1913.964844" xlink:href="#DejaVuSans-32"/>
    </g>
   </g>
   <g id="legend_1">
    <g id="patch_7">
     <path d="M 64.6 54.472 
L 68.6 54.472 
Q 70.6 54.472 70.6 52.472 
L 70.6 48.472 
Q 70.6 46.472 68.6 46.472 
L 64.6 46.472 
Q 62.6 46.472 62.6 48.472 
L 62.6 52.472 
Q 62.6 54.472 64.6 54.472 
z
" style="fill:#ffffff;opacity:0.8;stroke:#cccccc;stroke-linejoin:miter;"/>
    </g>
   </g>
  </g>
 </g>
 <defs>
  <clipPath id="p094fac2041">
   <rect height="266.112" width="357.12" x="57.6" y="41.472"/>
  </clipPath>
 </defs>
</svg>
