<?xml version="1.0" encoding="utf-8" standalone="no"?>
<!DOCTYPE svg PUBLIC "-//W3C//DTD SVG 1.1//EN"
  "http://www.w3.org/Graphics/SVG/1.1/DTD/svg11.dtd">
<!-- Created with matplotlib (https://matplotlib.org/) -->
<svg height="288pt" version="1.1" viewBox="0 0 432 288" width="432pt" xmlns="http://www.w3.org/2000/svg" xmlns:xlink="http://www.w3.org/1999/xlink">
 <metadata>
  <rdf:RDF xmlns:cc="http://creativecommons.org/ns#" xmlns:dc="http://purl.org/dc/elements/1.1/" xmlns:rdf="http://www.w3.org/1999/02/22-rdf-syntax-ns#">
   <cc:Work>
    <dc:type rdf:resource="http://purl.org/dc/dcmitype/StillImage"/>
    <dc:date>2021-07-10T00:01:39.067383</dc:date>
    <dc:format>image/svg+xml</dc:format>
    <dc:creator>
     <cc:Agent>
      <dc:title>Matplotlib v3.3.4, https://matplotlib.org/</dc:title>
     </cc:Agent>
    </dc:creator>
   </cc:Work>
  </rdf:RDF>
 </metadata>
 <defs>
  <style type="text/css">*{stroke-linecap:butt;stroke-linejoin:round;}</style>
 </defs>
 <g id="figure_1">
  <g id="patch_1">
   <path d="M 0 288 
L 432 288 
L 432 0 
L 0 0 
z
" style="fill:#ffffff;"/>
  </g>
  <g id="axes_1">
   <g id="patch_2">
    <path d="M 54 252 
L 388.8 252 
L 388.8 34.56 
L 54 34.56 
z
" style="fill:#ffffff;"/>
   </g>
   <g id="PolyCollection_1">
    <defs>
     <path d="M 104.380334 -49.395211 
L 104.059666 -49.395211 
L 104.031814 -51.219884 
L 104.001488 -53.044557 
L 103.96452 -54.869229 
L 103.917074 -56.693902 
L 103.85544 -58.518575 
L 103.77417 -60.343248 
L 103.664285 -62.16792 
L 103.513606 -63.992593 
L 103.309729 -65.817266 
L 103.044112 -67.641938 
L 102.714708 -69.466611 
L 102.325252 -71.291284 
L 101.881032 -73.115957 
L 101.3829 -74.940629 
L 100.822669 -76.765302 
L 100.183182 -78.589975 
L 99.444549 -80.414647 
L 98.59442 -82.23932 
L 97.636583 -84.063993 
L 96.591766 -85.888666 
L 95.488792 -87.713338 
L 94.350862 -89.538011 
L 93.185569 -91.362684 
L 91.98464 -93.187356 
L 90.731889 -95.012029 
L 89.411422 -96.836702 
L 88.008838 -98.661375 
L 86.506295 -100.486047 
L 84.881228 -102.31072 
L 83.118463 -104.135393 
L 81.233801 -105.960065 
L 79.29316 -107.784738 
L 77.409234 -109.609411 
L 75.711459 -111.434084 
L 74.303433 -113.258756 
L 73.229564 -115.083429 
L 72.465866 -116.908102 
L 71.936865 -118.732774 
L 71.550254 -120.557447 
L 71.235337 -122.38212 
L 70.96998 -124.206793 
L 70.784482 -126.031465 
L 70.74 -127.856138 
L 70.890896 -129.680811 
L 71.249311 -131.505484 
L 71.771182 -133.330156 
L 72.373194 -135.154829 
L 72.97301 -136.979502 
L 73.53053 -138.804174 
L 74.066465 -140.628847 
L 74.647782 -142.45352 
L 75.348948 -144.278193 
L 76.210976 -146.102865 
L 77.220071 -147.927538 
L 78.31515 -149.752211 
L 79.416935 -151.576883 
L 80.46081 -153.401556 
L 81.416687 -155.226229 
L 82.289468 -157.050902 
L 83.105521 -158.875574 
L 83.896732 -160.700247 
L 84.691611 -162.52492 
L 85.515145 -164.349592 
L 86.391829 -166.174265 
L 87.344523 -167.998938 
L 88.38646 -169.823611 
L 89.510564 -171.648283 
L 90.684041 -173.472956 
L 91.854495 -175.297629 
L 92.967552 -177.122301 
L 93.988414 -178.946974 
L 94.915353 -180.771647 
L 95.77618 -182.59632 
L 96.608949 -184.420992 
L 97.43869 -186.245665 
L 98.264224 -188.070338 
L 99.061154 -189.89501 
L 99.796079 -191.719683 
L 100.441965 -193.544356 
L 100.987413 -195.369029 
L 101.438332 -197.193701 
L 101.813893 -199.018374 
L 102.13909 -200.843047 
L 102.436239 -202.667719 
L 102.718262 -204.492392 
L 102.98648 -206.317065 
L 103.233656 -208.141738 
L 103.45019 -209.96641 
L 103.629762 -211.791083 
L 103.771617 -213.615756 
L 103.879218 -215.440428 
L 103.957302 -217.265101 
L 104.00989 -219.089774 
L 104.04042 -220.914447 
L 104.053242 -222.739119 
L 104.054768 -224.563792 
L 104.053034 -226.388465 
L 104.055704 -228.213137 
L 104.067635 -230.03781 
L 104.372365 -230.03781 
L 104.372365 -230.03781 
L 104.384296 -228.213137 
L 104.386966 -226.388465 
L 104.385232 -224.563792 
L 104.386758 -222.739119 
L 104.39958 -220.914447 
L 104.43011 -219.089774 
L 104.482698 -217.265101 
L 104.560782 -215.440428 
L 104.668383 -213.615756 
L 104.810238 -211.791083 
L 104.98981 -209.96641 
L 105.206344 -208.141738 
L 105.45352 -206.317065 
L 105.721738 -204.492392 
L 106.003761 -202.667719 
L 106.30091 -200.843047 
L 106.626107 -199.018374 
L 107.001668 -197.193701 
L 107.452587 -195.369029 
L 107.998035 -193.544356 
L 108.643921 -191.719683 
L 109.378846 -189.89501 
L 110.175776 -188.070338 
L 111.00131 -186.245665 
L 111.831051 -184.420992 
L 112.66382 -182.59632 
L 113.524647 -180.771647 
L 114.451586 -178.946974 
L 115.472448 -177.122301 
L 116.585505 -175.297629 
L 117.755959 -173.472956 
L 118.929436 -171.648283 
L 120.05354 -169.823611 
L 121.095477 -167.998938 
L 122.048171 -166.174265 
L 122.924855 -164.349592 
L 123.748389 -162.52492 
L 124.543268 -160.700247 
L 125.334479 -158.875574 
L 126.150532 -157.050902 
L 127.023313 -155.226229 
L 127.97919 -153.401556 
L 129.023065 -151.576883 
L 130.12485 -149.752211 
L 131.219929 -147.927538 
L 132.229024 -146.102865 
L 133.091052 -144.278193 
L 133.792218 -142.45352 
L 134.373535 -140.628847 
L 134.90947 -138.804174 
L 135.46699 -136.979502 
L 136.066806 -135.154829 
L 136.668818 -133.330156 
L 137.190689 -131.505484 
L 137.549104 -129.680811 
L 137.7 -127.856138 
L 137.655518 -126.031465 
L 137.47002 -124.206793 
L 137.204663 -122.38212 
L 136.889746 -120.557447 
L 136.503135 -118.732774 
L 135.974134 -116.908102 
L 135.210436 -115.083429 
L 134.136567 -113.258756 
L 132.728541 -111.434084 
L 131.030766 -109.609411 
L 129.14684 -107.784738 
L 127.206199 -105.960065 
L 125.321537 -104.135393 
L 123.558772 -102.31072 
L 121.933705 -100.486047 
L 120.431162 -98.661375 
L 119.028578 -96.836702 
L 117.708111 -95.012029 
L 116.45536 -93.187356 
L 115.254431 -91.362684 
L 114.089138 -89.538011 
L 112.951208 -87.713338 
L 111.848234 -85.888666 
L 110.803417 -84.063993 
L 109.84558 -82.23932 
L 108.995451 -80.414647 
L 108.256818 -78.589975 
L 107.617331 -76.765302 
L 107.0571 -74.940629 
L 106.558968 -73.115957 
L 106.114748 -71.291284 
L 105.725292 -69.466611 
L 105.395888 -67.641938 
L 105.130271 -65.817266 
L 104.926394 -63.992593 
L 104.775715 -62.16792 
L 104.66583 -60.343248 
L 104.58456 -58.518575 
L 104.522926 -56.693902 
L 104.47548 -54.869229 
L 104.438512 -53.044557 
L 104.408186 -51.219884 
L 104.380334 -49.395211 
z
" id="ma1f464150d" style="stroke:#3f3f3f;stroke-width:1.5;"/>
    </defs>
    <g clip-path="url(#pcbaa777c57)">
     <use style="fill:#3274a1;stroke:#3f3f3f;stroke-width:1.5;" x="0" xlink:href="#ma1f464150d" y="288"/>
    </g>
   </g>
   <g id="PolyCollection_2">
    <defs>
     <path d="M 338.950948 -45.883636 
L 338.209052 -45.883636 
L 338.114722 -47.880331 
L 338.011475 -49.877025 
L 337.895312 -51.873719 
L 337.759153 -53.870413 
L 337.594334 -55.867107 
L 337.392577 -57.863802 
L 337.147374 -59.860496 
L 336.854052 -61.85719 
L 336.508735 -63.853884 
L 336.10716 -65.850579 
L 335.644378 -67.847273 
L 335.115636 -69.843967 
L 334.517799 -71.840661 
L 333.850178 -73.837355 
L 333.114078 -75.83405 
L 332.311401 -77.830744 
L 331.443505 -79.827438 
L 330.511443 -81.824132 
L 329.517553 -83.820826 
L 328.46701 -85.817521 
L 327.367624 -87.814215 
L 326.227541 -89.810909 
L 325.05235 -91.807603 
L 323.84383 -93.804298 
L 322.601023 -95.800992 
L 321.322142 -97.797686 
L 320.005233 -99.79438 
L 318.647553 -101.791074 
L 317.246292 -103.787769 
L 315.803446 -105.784463 
L 314.334177 -107.781157 
L 312.873449 -109.777851 
L 311.474392 -111.774545 
L 310.19584 -113.77124 
L 309.083562 -115.767934 
L 308.154916 -117.764628 
L 307.395814 -119.761322 
L 306.772175 -121.758017 
L 306.249606 -123.754711 
L 305.810358 -125.751405 
L 305.458855 -127.748099 
L 305.214708 -129.744793 
L 305.1 -131.741488 
L 305.130131 -133.738182 
L 305.313197 -135.734876 
L 305.655182 -137.73157 
L 306.16328 -139.728264 
L 306.841249 -141.724959 
L 307.677618 -143.721653 
L 308.634462 -145.718347 
L 309.646133 -147.715041 
L 310.632319 -149.711736 
L 311.521231 -151.70843 
L 312.272044 -153.705124 
L 312.885125 -155.701818 
L 313.394709 -157.698512 
L 313.847948 -159.695207 
L 314.281562 -161.691901 
L 314.708339 -163.688595 
L 315.119979 -165.685289 
L 315.5034 -167.681983 
L 315.860047 -169.678678 
L 316.21636 -171.675372 
L 316.619061 -173.672066 
L 317.117868 -175.66876 
L 317.745287 -177.665455 
L 318.504236 -179.662149 
L 319.369292 -181.658843 
L 320.299591 -183.655537 
L 321.255727 -185.652231 
L 322.212115 -187.648926 
L 323.160169 -189.64562 
L 324.103126 -191.642314 
L 325.047165 -193.639008 
L 325.993906 -195.635702 
L 326.93728 -197.632397 
L 327.865029 -199.629091 
L 328.763198 -201.625785 
L 329.621314 -203.622479 
L 330.436001 -205.619174 
L 331.211504 -207.615868 
L 331.956796 -209.612562 
L 332.680454 -211.609256 
L 333.385585 -213.60595 
L 334.067121 -215.602645 
L 334.712721 -217.599339 
L 335.306803 -219.596033 
L 335.835893 -221.592727 
L 336.292928 -223.589421 
L 336.678801 -225.586116 
L 337.00081 -227.58281 
L 337.269202 -229.579504 
L 337.493798 -231.576198 
L 337.682273 -233.572893 
L 337.840376 -235.569587 
L 337.973104 -237.566281 
L 338.085491 -239.562975 
L 338.18235 -241.559669 
L 338.267324 -243.556364 
L 338.892676 -243.556364 
L 338.892676 -243.556364 
L 338.97765 -241.559669 
L 339.074509 -239.562975 
L 339.186896 -237.566281 
L 339.319624 -235.569587 
L 339.477727 -233.572893 
L 339.666202 -231.576198 
L 339.890798 -229.579504 
L 340.15919 -227.58281 
L 340.481199 -225.586116 
L 340.867072 -223.589421 
L 341.324107 -221.592727 
L 341.853197 -219.596033 
L 342.447279 -217.599339 
L 343.092879 -215.602645 
L 343.774415 -213.60595 
L 344.479546 -211.609256 
L 345.203204 -209.612562 
L 345.948496 -207.615868 
L 346.723999 -205.619174 
L 347.538686 -203.622479 
L 348.396802 -201.625785 
L 349.294971 -199.629091 
L 350.22272 -197.632397 
L 351.166094 -195.635702 
L 352.112835 -193.639008 
L 353.056874 -191.642314 
L 353.999831 -189.64562 
L 354.947885 -187.648926 
L 355.904273 -185.652231 
L 356.860409 -183.655537 
L 357.790708 -181.658843 
L 358.655764 -179.662149 
L 359.414713 -177.665455 
L 360.042132 -175.66876 
L 360.540939 -173.672066 
L 360.94364 -171.675372 
L 361.299953 -169.678678 
L 361.6566 -167.681983 
L 362.040021 -165.685289 
L 362.451661 -163.688595 
L 362.878438 -161.691901 
L 363.312052 -159.695207 
L 363.765291 -157.698512 
L 364.274875 -155.701818 
L 364.887956 -153.705124 
L 365.638769 -151.70843 
L 366.527681 -149.711736 
L 367.513867 -147.715041 
L 368.525538 -145.718347 
L 369.482382 -143.721653 
L 370.318751 -141.724959 
L 370.99672 -139.728264 
L 371.504818 -137.73157 
L 371.846803 -135.734876 
L 372.029869 -133.738182 
L 372.06 -131.741488 
L 371.945292 -129.744793 
L 371.701145 -127.748099 
L 371.349642 -125.751405 
L 370.910394 -123.754711 
L 370.387825 -121.758017 
L 369.764186 -119.761322 
L 369.005084 -117.764628 
L 368.076438 -115.767934 
L 366.96416 -113.77124 
L 365.685608 -111.774545 
L 364.286551 -109.777851 
L 362.825823 -107.781157 
L 361.356554 -105.784463 
L 359.913708 -103.787769 
L 358.512447 -101.791074 
L 357.154767 -99.79438 
L 355.837858 -97.797686 
L 354.558977 -95.800992 
L 353.31617 -93.804298 
L 352.10765 -91.807603 
L 350.932459 -89.810909 
L 349.792376 -87.814215 
L 348.69299 -85.817521 
L 347.642447 -83.820826 
L 346.648557 -81.824132 
L 345.716495 -79.827438 
L 344.848599 -77.830744 
L 344.045922 -75.83405 
L 343.309822 -73.837355 
L 342.642201 -71.840661 
L 342.044364 -69.843967 
L 341.515622 -67.847273 
L 341.05284 -65.850579 
L 340.651265 -63.853884 
L 340.305948 -61.85719 
L 340.012626 -59.860496 
L 339.767423 -57.863802 
L 339.565666 -55.867107 
L 339.400847 -53.870413 
L 339.264688 -51.873719 
L 339.148525 -49.877025 
L 339.045278 -47.880331 
L 338.950948 -45.883636 
z
" id="m4dc8593ef0" style="stroke:#3f3f3f;stroke-width:1.5;"/>
    </defs>
    <g clip-path="url(#pcbaa777c57)">
     <use style="fill:#e1812c;stroke:#3f3f3f;stroke-width:1.5;" x="0" xlink:href="#m4dc8593ef0" y="288"/>
    </g>
   </g>
   <g id="patch_3">
    <path clip-path="url(#pcbaa777c57)" d="M 137.7 212.056724 
L 137.7 212.056724 
L 137.7 212.056724 
L 137.7 212.056724 
z
" style="fill:#3274a1;stroke:#3f3f3f;stroke-linejoin:miter;stroke-width:0.75;"/>
   </g>
   <g id="patch_4">
    <path clip-path="url(#pcbaa777c57)" d="M 137.7 212.056724 
L 137.7 212.056724 
L 137.7 212.056724 
L 137.7 212.056724 
z
" style="fill:#e1812c;stroke:#3f3f3f;stroke-linejoin:miter;stroke-width:0.75;"/>
   </g>
   <g id="matplotlib.axis_1">
    <g id="xtick_1">
     <g id="line2d_1">
      <defs>
       <path d="M 0 0 
L 0 3.5 
" id="m90c0be03f1" style="stroke:#000000;stroke-width:0.8;"/>
      </defs>
      <g>
       <use style="stroke:#000000;stroke-width:0.8;" x="137.7" xlink:href="#m90c0be03f1" y="252"/>
      </g>
     </g>
     <g id="text_1">
      <!-- Z_1_ns -->
      <g transform="translate(120.320312 266.320312)scale(0.1 -0.1)">
       <defs>
        <path d="M 5.609375 72.90625 
L 62.890625 72.90625 
L 62.890625 65.375 
L 16.796875 8.296875 
L 64.015625 8.296875 
L 64.015625 0 
L 4.5 0 
L 4.5 7.515625 
L 50.59375 64.59375 
L 5.609375 64.59375 
z
" id="DejaVuSans-90"/>
        <path d="M 50.984375 -16.609375 
L 50.984375 -23.578125 
L -0.984375 -23.578125 
L -0.984375 -16.609375 
z
" id="DejaVuSans-95"/>
        <path d="M 12.40625 8.296875 
L 28.515625 8.296875 
L 28.515625 63.921875 
L 10.984375 60.40625 
L 10.984375 69.390625 
L 28.421875 72.90625 
L 38.28125 72.90625 
L 38.28125 8.296875 
L 54.390625 8.296875 
L 54.390625 0 
L 12.40625 0 
z
" id="DejaVuSans-49"/>
        <path d="M 54.890625 33.015625 
L 54.890625 0 
L 45.90625 0 
L 45.90625 32.71875 
Q 45.90625 40.484375 42.875 44.328125 
Q 39.84375 48.1875 33.796875 48.1875 
Q 26.515625 48.1875 22.3125 43.546875 
Q 18.109375 38.921875 18.109375 30.90625 
L 18.109375 0 
L 9.078125 0 
L 9.078125 54.6875 
L 18.109375 54.6875 
L 18.109375 46.1875 
Q 21.34375 51.125 25.703125 53.5625 
Q 30.078125 56 35.796875 56 
Q 45.21875 56 50.046875 50.171875 
Q 54.890625 44.34375 54.890625 33.015625 
z
" id="DejaVuSans-110"/>
        <path d="M 44.28125 53.078125 
L 44.28125 44.578125 
Q 40.484375 46.53125 36.375 47.5 
Q 32.28125 48.484375 27.875 48.484375 
Q 21.1875 48.484375 17.84375 46.4375 
Q 14.5 44.390625 14.5 40.28125 
Q 14.5 37.15625 16.890625 35.375 
Q 19.28125 33.59375 26.515625 31.984375 
L 29.59375 31.296875 
Q 39.15625 29.25 43.1875 25.515625 
Q 47.21875 21.78125 47.21875 15.09375 
Q 47.21875 7.46875 41.1875 3.015625 
Q 35.15625 -1.421875 24.609375 -1.421875 
Q 20.21875 -1.421875 15.453125 -0.5625 
Q 10.6875 0.296875 5.421875 2 
L 5.421875 11.28125 
Q 10.40625 8.6875 15.234375 7.390625 
Q 20.0625 6.109375 24.8125 6.109375 
Q 31.15625 6.109375 34.5625 8.28125 
Q 37.984375 10.453125 37.984375 14.40625 
Q 37.984375 18.0625 35.515625 20.015625 
Q 33.0625 21.96875 24.703125 23.78125 
L 21.578125 24.515625 
Q 13.234375 26.265625 9.515625 29.90625 
Q 5.8125 33.546875 5.8125 39.890625 
Q 5.8125 47.609375 11.28125 51.796875 
Q 16.75 56 26.8125 56 
Q 31.78125 56 36.171875 55.265625 
Q 40.578125 54.546875 44.28125 53.078125 
z
" id="DejaVuSans-115"/>
       </defs>
       <use xlink:href="#DejaVuSans-90"/>
       <use x="68.505859" xlink:href="#DejaVuSans-95"/>
       <use x="118.505859" xlink:href="#DejaVuSans-49"/>
       <use x="182.128906" xlink:href="#DejaVuSans-95"/>
       <use x="232.128906" xlink:href="#DejaVuSans-110"/>
       <use x="295.507812" xlink:href="#DejaVuSans-115"/>
      </g>
     </g>
    </g>
    <g id="xtick_2">
     <g id="line2d_2">
      <g>
       <use style="stroke:#000000;stroke-width:0.8;" x="305.1" xlink:href="#m90c0be03f1" y="252"/>
      </g>
     </g>
     <g id="text_2">
      <!-- Z_2_ns -->
      <g transform="translate(287.720313 266.421875)scale(0.1 -0.1)">
       <defs>
        <path d="M 19.1875 8.296875 
L 53.609375 8.296875 
L 53.609375 0 
L 7.328125 0 
L 7.328125 8.296875 
Q 12.9375 14.109375 22.625 23.890625 
Q 32.328125 33.6875 34.8125 36.53125 
Q 39.546875 41.84375 41.421875 45.53125 
Q 43.3125 49.21875 43.3125 52.78125 
Q 43.3125 58.59375 39.234375 62.25 
Q 35.15625 65.921875 28.609375 65.921875 
Q 23.96875 65.921875 18.8125 64.3125 
Q 13.671875 62.703125 7.8125 59.421875 
L 7.8125 69.390625 
Q 13.765625 71.78125 18.9375 73 
Q 24.125 74.21875 28.421875 74.21875 
Q 39.75 74.21875 46.484375 68.546875 
Q 53.21875 62.890625 53.21875 53.421875 
Q 53.21875 48.921875 51.53125 44.890625 
Q 49.859375 40.875 45.40625 35.40625 
Q 44.1875 33.984375 37.640625 27.21875 
Q 31.109375 20.453125 19.1875 8.296875 
z
" id="DejaVuSans-50"/>
       </defs>
       <use xlink:href="#DejaVuSans-90"/>
       <use x="68.505859" xlink:href="#DejaVuSans-95"/>
       <use x="118.505859" xlink:href="#DejaVuSans-50"/>
       <use x="182.128906" xlink:href="#DejaVuSans-95"/>
       <use x="232.128906" xlink:href="#DejaVuSans-110"/>
       <use x="295.507812" xlink:href="#DejaVuSans-115"/>
      </g>
     </g>
    </g>
    <g id="text_3">
     <!-- set -->
     <g transform="translate(213.758594 280.378125)scale(0.1 -0.1)">
      <defs>
       <path d="M 56.203125 29.59375 
L 56.203125 25.203125 
L 14.890625 25.203125 
Q 15.484375 15.921875 20.484375 11.0625 
Q 25.484375 6.203125 34.421875 6.203125 
Q 39.59375 6.203125 44.453125 7.46875 
Q 49.3125 8.734375 54.109375 11.28125 
L 54.109375 2.78125 
Q 49.265625 0.734375 44.1875 -0.34375 
Q 39.109375 -1.421875 33.890625 -1.421875 
Q 20.796875 -1.421875 13.15625 6.1875 
Q 5.515625 13.8125 5.515625 26.8125 
Q 5.515625 40.234375 12.765625 48.109375 
Q 20.015625 56 32.328125 56 
Q 43.359375 56 49.78125 48.890625 
Q 56.203125 41.796875 56.203125 29.59375 
z
M 47.21875 32.234375 
Q 47.125 39.59375 43.09375 43.984375 
Q 39.0625 48.390625 32.421875 48.390625 
Q 24.90625 48.390625 20.390625 44.140625 
Q 15.875 39.890625 15.1875 32.171875 
z
" id="DejaVuSans-101"/>
       <path d="M 18.3125 70.21875 
L 18.3125 54.6875 
L 36.8125 54.6875 
L 36.8125 47.703125 
L 18.3125 47.703125 
L 18.3125 18.015625 
Q 18.3125 11.328125 20.140625 9.421875 
Q 21.96875 7.515625 27.59375 7.515625 
L 36.8125 7.515625 
L 36.8125 0 
L 27.59375 0 
Q 17.1875 0 13.234375 3.875 
Q 9.28125 7.765625 9.28125 18.015625 
L 9.28125 47.703125 
L 2.6875 47.703125 
L 2.6875 54.6875 
L 9.28125 54.6875 
L 9.28125 70.21875 
z
" id="DejaVuSans-116"/>
      </defs>
      <use xlink:href="#DejaVuSans-115"/>
      <use x="52.099609" xlink:href="#DejaVuSans-101"/>
      <use x="113.623047" xlink:href="#DejaVuSans-116"/>
     </g>
    </g>
   </g>
   <g id="matplotlib.axis_2">
    <g id="ytick_1">
     <g id="line2d_3">
      <defs>
       <path d="M 0 0 
L -3.5 0 
" id="m0c355aff6a" style="stroke:#000000;stroke-width:0.8;"/>
      </defs>
      <g>
       <use style="stroke:#000000;stroke-width:0.8;" x="54" xlink:href="#m0c355aff6a" y="244.51087"/>
      </g>
     </g>
     <g id="text_4">
      <!-- −5 -->
      <g transform="translate(32.257812 248.310088)scale(0.1 -0.1)">
       <defs>
        <path d="M 10.59375 35.5 
L 73.1875 35.5 
L 73.1875 27.203125 
L 10.59375 27.203125 
z
" id="DejaVuSans-8722"/>
        <path d="M 10.796875 72.90625 
L 49.515625 72.90625 
L 49.515625 64.59375 
L 19.828125 64.59375 
L 19.828125 46.734375 
Q 21.96875 47.46875 24.109375 47.828125 
Q 26.265625 48.1875 28.421875 48.1875 
Q 40.625 48.1875 47.75 41.5 
Q 54.890625 34.8125 54.890625 23.390625 
Q 54.890625 11.625 47.5625 5.09375 
Q 40.234375 -1.421875 26.90625 -1.421875 
Q 22.3125 -1.421875 17.546875 -0.640625 
Q 12.796875 0.140625 7.71875 1.703125 
L 7.71875 11.625 
Q 12.109375 9.234375 16.796875 8.0625 
Q 21.484375 6.890625 26.703125 6.890625 
Q 35.15625 6.890625 40.078125 11.328125 
Q 45.015625 15.765625 45.015625 23.390625 
Q 45.015625 31 40.078125 35.4375 
Q 35.15625 39.890625 26.703125 39.890625 
Q 22.75 39.890625 18.8125 39.015625 
Q 14.890625 38.140625 10.796875 36.28125 
z
" id="DejaVuSans-53"/>
       </defs>
       <use xlink:href="#DejaVuSans-8722"/>
       <use x="83.789062" xlink:href="#DejaVuSans-53"/>
      </g>
     </g>
    </g>
    <g id="ytick_2">
     <g id="line2d_4">
      <g>
       <use style="stroke:#000000;stroke-width:0.8;" x="54" xlink:href="#m0c355aff6a" y="212.056724"/>
      </g>
     </g>
     <g id="text_5">
      <!-- 0 -->
      <g transform="translate(40.6375 215.855943)scale(0.1 -0.1)">
       <defs>
        <path d="M 31.78125 66.40625 
Q 24.171875 66.40625 20.328125 58.90625 
Q 16.5 51.421875 16.5 36.375 
Q 16.5 21.390625 20.328125 13.890625 
Q 24.171875 6.390625 31.78125 6.390625 
Q 39.453125 6.390625 43.28125 13.890625 
Q 47.125 21.390625 47.125 36.375 
Q 47.125 51.421875 43.28125 58.90625 
Q 39.453125 66.40625 31.78125 66.40625 
z
M 31.78125 74.21875 
Q 44.046875 74.21875 50.515625 64.515625 
Q 56.984375 54.828125 56.984375 36.375 
Q 56.984375 17.96875 50.515625 8.265625 
Q 44.046875 -1.421875 31.78125 -1.421875 
Q 19.53125 -1.421875 13.0625 8.265625 
Q 6.59375 17.96875 6.59375 36.375 
Q 6.59375 54.828125 13.0625 64.515625 
Q 19.53125 74.21875 31.78125 74.21875 
z
" id="DejaVuSans-48"/>
       </defs>
       <use xlink:href="#DejaVuSans-48"/>
      </g>
     </g>
    </g>
    <g id="ytick_3">
     <g id="line2d_5">
      <g>
       <use style="stroke:#000000;stroke-width:0.8;" x="54" xlink:href="#m0c355aff6a" y="179.602579"/>
      </g>
     </g>
     <g id="text_6">
      <!-- 5 -->
      <g transform="translate(40.6375 183.401797)scale(0.1 -0.1)">
       <use xlink:href="#DejaVuSans-53"/>
      </g>
     </g>
    </g>
    <g id="ytick_4">
     <g id="line2d_6">
      <g>
       <use style="stroke:#000000;stroke-width:0.8;" x="54" xlink:href="#m0c355aff6a" y="147.148433"/>
      </g>
     </g>
     <g id="text_7">
      <!-- 10 -->
      <g transform="translate(34.275 150.947652)scale(0.1 -0.1)">
       <use xlink:href="#DejaVuSans-49"/>
       <use x="63.623047" xlink:href="#DejaVuSans-48"/>
      </g>
     </g>
    </g>
    <g id="ytick_5">
     <g id="line2d_7">
      <g>
       <use style="stroke:#000000;stroke-width:0.8;" x="54" xlink:href="#m0c355aff6a" y="114.694288"/>
      </g>
     </g>
     <g id="text_8">
      <!-- 15 -->
      <g transform="translate(34.275 118.493507)scale(0.1 -0.1)">
       <use xlink:href="#DejaVuSans-49"/>
       <use x="63.623047" xlink:href="#DejaVuSans-53"/>
      </g>
     </g>
    </g>
    <g id="ytick_6">
     <g id="line2d_8">
      <g>
       <use style="stroke:#000000;stroke-width:0.8;" x="54" xlink:href="#m0c355aff6a" y="82.240142"/>
      </g>
     </g>
     <g id="text_9">
      <!-- 20 -->
      <g transform="translate(34.275 86.039361)scale(0.1 -0.1)">
       <use xlink:href="#DejaVuSans-50"/>
       <use x="63.623047" xlink:href="#DejaVuSans-48"/>
      </g>
     </g>
    </g>
    <g id="ytick_7">
     <g id="line2d_9">
      <g>
       <use style="stroke:#000000;stroke-width:0.8;" x="54" xlink:href="#m0c355aff6a" y="49.785997"/>
      </g>
     </g>
     <g id="text_10">
      <!-- 25 -->
      <g transform="translate(34.275 53.585216)scale(0.1 -0.1)">
       <use xlink:href="#DejaVuSans-50"/>
       <use x="63.623047" xlink:href="#DejaVuSans-53"/>
      </g>
     </g>
    </g>
    <g id="text_11">
     <!-- value -->
     <g transform="translate(26.178125 156.937813)rotate(-90)scale(0.1 -0.1)">
      <defs>
       <path d="M 2.984375 54.6875 
L 12.5 54.6875 
L 29.59375 8.796875 
L 46.6875 54.6875 
L 56.203125 54.6875 
L 35.6875 0 
L 23.484375 0 
z
" id="DejaVuSans-118"/>
       <path d="M 34.28125 27.484375 
Q 23.390625 27.484375 19.1875 25 
Q 14.984375 22.515625 14.984375 16.5 
Q 14.984375 11.71875 18.140625 8.90625 
Q 21.296875 6.109375 26.703125 6.109375 
Q 34.1875 6.109375 38.703125 11.40625 
Q 43.21875 16.703125 43.21875 25.484375 
L 43.21875 27.484375 
z
M 52.203125 31.203125 
L 52.203125 0 
L 43.21875 0 
L 43.21875 8.296875 
Q 40.140625 3.328125 35.546875 0.953125 
Q 30.953125 -1.421875 24.3125 -1.421875 
Q 15.921875 -1.421875 10.953125 3.296875 
Q 6 8.015625 6 15.921875 
Q 6 25.140625 12.171875 29.828125 
Q 18.359375 34.515625 30.609375 34.515625 
L 43.21875 34.515625 
L 43.21875 35.40625 
Q 43.21875 41.609375 39.140625 45 
Q 35.0625 48.390625 27.6875 48.390625 
Q 23 48.390625 18.546875 47.265625 
Q 14.109375 46.140625 10.015625 43.890625 
L 10.015625 52.203125 
Q 14.9375 54.109375 19.578125 55.046875 
Q 24.21875 56 28.609375 56 
Q 40.484375 56 46.34375 49.84375 
Q 52.203125 43.703125 52.203125 31.203125 
z
" id="DejaVuSans-97"/>
       <path d="M 9.421875 75.984375 
L 18.40625 75.984375 
L 18.40625 0 
L 9.421875 0 
z
" id="DejaVuSans-108"/>
       <path d="M 8.5 21.578125 
L 8.5 54.6875 
L 17.484375 54.6875 
L 17.484375 21.921875 
Q 17.484375 14.15625 20.5 10.265625 
Q 23.53125 6.390625 29.59375 6.390625 
Q 36.859375 6.390625 41.078125 11.03125 
Q 45.3125 15.671875 45.3125 23.6875 
L 45.3125 54.6875 
L 54.296875 54.6875 
L 54.296875 0 
L 45.3125 0 
L 45.3125 8.40625 
Q 42.046875 3.421875 37.71875 1 
Q 33.40625 -1.421875 27.6875 -1.421875 
Q 18.265625 -1.421875 13.375 4.4375 
Q 8.5 10.296875 8.5 21.578125 
z
M 31.109375 56 
z
" id="DejaVuSans-117"/>
      </defs>
      <use xlink:href="#DejaVuSans-118"/>
      <use x="59.179688" xlink:href="#DejaVuSans-97"/>
      <use x="120.458984" xlink:href="#DejaVuSans-108"/>
      <use x="148.242188" xlink:href="#DejaVuSans-117"/>
      <use x="211.621094" xlink:href="#DejaVuSans-101"/>
     </g>
    </g>
   </g>
   <g id="line2d_10">
    <path clip-path="url(#pcbaa777c57)" d="M 104.22 229.326535 
L 104.22 79.881601 
" style="fill:none;stroke:#3f3f3f;stroke-linecap:square;stroke-width:1.5;"/>
   </g>
   <g id="line2d_11">
    <path clip-path="url(#pcbaa777c57)" d="M 104.22 173.527318 
L 104.22 135.551007 
" style="fill:none;stroke:#3f3f3f;stroke-linecap:square;stroke-width:4.5;"/>
   </g>
   <g id="line2d_12">
    <path clip-path="url(#pcbaa777c57)" d="M 338.58 242.116364 
L 338.58 47.096444 
" style="fill:none;stroke:#3f3f3f;stroke-linecap:square;stroke-width:1.5;"/>
   </g>
   <g id="line2d_13">
    <path clip-path="url(#pcbaa777c57)" d="M 338.58 171.075082 
L 338.58 120.876183 
" style="fill:none;stroke:#3f3f3f;stroke-linecap:square;stroke-width:4.5;"/>
   </g>
   <g id="patch_5">
    <path d="M 54 252 
L 54 34.56 
" style="fill:none;stroke:#000000;stroke-linecap:square;stroke-linejoin:miter;stroke-width:0.8;"/>
   </g>
   <g id="patch_6">
    <path d="M 388.8 252 
L 388.8 34.56 
" style="fill:none;stroke:#000000;stroke-linecap:square;stroke-linejoin:miter;stroke-width:0.8;"/>
   </g>
   <g id="patch_7">
    <path d="M 54 252 
L 388.8 252 
" style="fill:none;stroke:#000000;stroke-linecap:square;stroke-linejoin:miter;stroke-width:0.8;"/>
   </g>
   <g id="patch_8">
    <path d="M 54 34.56 
L 388.8 34.56 
" style="fill:none;stroke:#000000;stroke-linecap:square;stroke-linejoin:miter;stroke-width:0.8;"/>
   </g>
   <g id="PathCollection_1">
    <defs>
     <path d="M 0 1.5 
C 0.397805 1.5 0.77937 1.341951 1.06066 1.06066 
C 1.341951 0.77937 1.5 0.397805 1.5 0 
C 1.5 -0.397805 1.341951 -0.77937 1.06066 -1.06066 
C 0.77937 -1.341951 0.397805 -1.5 0 -1.5 
C -0.397805 -1.5 -0.77937 -1.341951 -1.06066 -1.06066 
C -1.341951 -0.77937 -1.5 -0.397805 -1.5 0 
C -1.5 0.397805 -1.341951 0.77937 -1.06066 1.06066 
C -0.77937 1.341951 -0.397805 1.5 0 1.5 
z
" id="mc00569a654" style="stroke:#3f3f3f;"/>
    </defs>
    <g clip-path="url(#pcbaa777c57)">
     <use style="fill:#ffffff;stroke:#3f3f3f;" x="104.22" xlink:href="#mc00569a654" y="155.663115"/>
    </g>
   </g>
   <g id="PathCollection_2">
    <g clip-path="url(#pcbaa777c57)">
     <use style="fill:#ffffff;stroke:#3f3f3f;" x="338.58" xlink:href="#mc00569a654" y="148.462822"/>
    </g>
   </g>
   <g id="legend_1">
    <g id="patch_9">
     <path d="M 188.020312 247 
L 254.779688 247 
Q 256.779688 247 256.779688 245 
L 256.779688 201.409375 
Q 256.779688 199.409375 254.779688 199.409375 
L 188.020312 199.409375 
Q 186.020312 199.409375 186.020312 201.409375 
L 186.020312 245 
Q 186.020312 247 188.020312 247 
z
" style="fill:#ffffff;opacity:0.8;stroke:#cccccc;stroke-linejoin:miter;"/>
    </g>
    <g id="text_12">
     <!-- set -->
     <g transform="translate(213.758594 211.007812)scale(0.1 -0.1)">
      <use xlink:href="#DejaVuSans-115"/>
      <use x="52.099609" xlink:href="#DejaVuSans-101"/>
      <use x="113.623047" xlink:href="#DejaVuSans-116"/>
     </g>
    </g>
    <g id="patch_10">
     <path d="M 190.020312 225.685937 
L 210.020312 225.685937 
L 210.020312 218.685937 
L 190.020312 218.685937 
z
" style="fill:#3274a1;stroke:#3f3f3f;stroke-linejoin:miter;stroke-width:0.75;"/>
    </g>
    <g id="text_13">
     <!-- Z_1_ns -->
     <g transform="translate(218.020312 225.685937)scale(0.1 -0.1)">
      <use xlink:href="#DejaVuSans-90"/>
      <use x="68.505859" xlink:href="#DejaVuSans-95"/>
      <use x="118.505859" xlink:href="#DejaVuSans-49"/>
      <use x="182.128906" xlink:href="#DejaVuSans-95"/>
      <use x="232.128906" xlink:href="#DejaVuSans-110"/>
      <use x="295.507812" xlink:href="#DejaVuSans-115"/>
     </g>
    </g>
    <g id="patch_11">
     <path d="M 190.020312 240.642188 
L 210.020312 240.642188 
L 210.020312 233.642188 
L 190.020312 233.642188 
z
" style="fill:#e1812c;stroke:#3f3f3f;stroke-linejoin:miter;stroke-width:0.75;"/>
    </g>
    <g id="text_14">
     <!-- Z_2_ns -->
     <g transform="translate(218.020312 240.642188)scale(0.1 -0.1)">
      <use xlink:href="#DejaVuSans-90"/>
      <use x="68.505859" xlink:href="#DejaVuSans-95"/>
      <use x="118.505859" xlink:href="#DejaVuSans-50"/>
      <use x="182.128906" xlink:href="#DejaVuSans-95"/>
      <use x="232.128906" xlink:href="#DejaVuSans-110"/>
      <use x="295.507812" xlink:href="#DejaVuSans-115"/>
     </g>
    </g>
   </g>
  </g>
 </g>
 <defs>
  <clipPath id="pcbaa777c57">
   <rect height="217.44" width="334.8" x="54" y="34.56"/>
  </clipPath>
 </defs>
</svg>
