<?xml version="1.0" encoding="utf-8" standalone="no"?>
<!DOCTYPE svg PUBLIC "-//W3C//DTD SVG 1.1//EN"
  "http://www.w3.org/Graphics/SVG/1.1/DTD/svg11.dtd">
<!-- Created with matplotlib (https://matplotlib.org/) -->
<svg height="288pt" version="1.1" viewBox="0 0 432 288" width="432pt" xmlns="http://www.w3.org/2000/svg" xmlns:xlink="http://www.w3.org/1999/xlink">
 <metadata>
  <rdf:RDF xmlns:cc="http://creativecommons.org/ns#" xmlns:dc="http://purl.org/dc/elements/1.1/" xmlns:rdf="http://www.w3.org/1999/02/22-rdf-syntax-ns#">
   <cc:Work>
    <dc:type rdf:resource="http://purl.org/dc/dcmitype/StillImage"/>
    <dc:date>2021-07-13T18:38:25.759530</dc:date>
    <dc:format>image/svg+xml</dc:format>
    <dc:creator>
     <cc:Agent>
      <dc:title>Matplotlib v3.3.4, https://matplotlib.org/</dc:title>
     </cc:Agent>
    </dc:creator>
   </cc:Work>
  </rdf:RDF>
 </metadata>
 <defs>
  <style type="text/css">*{stroke-linecap:butt;stroke-linejoin:round;}</style>
 </defs>
 <g id="figure_1">
  <g id="patch_1">
   <path d="M 0 288 
L 432 288 
L 432 0 
L 0 0 
z
" style="fill:#ffffff;"/>
  </g>
  <g id="axes_1">
   <g id="patch_2">
    <path d="M 54 252 
L 388.8 252 
L 388.8 34.56 
L 54 34.56 
z
" style="fill:#ffffff;"/>
   </g>
   <g id="PolyCollection_1">
    <defs>
     <path d="M 104.328407 -47.986911 
L 104.111593 -47.986911 
L 104.091093 -49.557801 
L 104.068623 -51.128691 
L 104.028119 -52.699581 
L 103.953983 -54.270471 
L 103.843274 -55.841361 
L 103.712991 -57.412251 
L 103.595607 -58.983141 
L 103.522017 -60.554031 
L 103.501564 -62.124921 
L 103.513819 -63.695811 
L 103.51955 -65.266701 
L 103.484663 -66.837591 
L 103.401279 -68.408481 
L 103.290336 -69.979371 
L 103.181883 -71.550261 
L 103.086808 -73.121151 
L 102.982172 -74.692041 
L 102.821937 -76.262931 
L 102.565337 -77.833821 
L 102.204413 -79.404711 
L 101.773497 -80.975601 
L 101.332372 -82.546491 
L 100.932287 -84.117382 
L 100.588543 -85.688272 
L 100.275363 -87.259162 
L 99.9371 -88.830052 
L 99.502133 -90.400942 
L 98.895855 -91.971832 
L 98.058072 -93.542722 
L 96.963249 -95.113612 
L 95.625864 -96.684502 
L 94.076731 -98.255392 
L 92.328197 -99.826282 
L 90.364992 -101.397172 
L 88.172544 -102.968062 
L 85.778582 -104.538952 
L 83.274111 -106.109842 
L 80.790557 -107.680732 
L 78.439655 -109.251622 
L 76.273452 -110.822512 
L 74.323956 -112.393402 
L 72.682467 -113.964292 
L 71.499574 -115.535182 
L 70.872901 -117.106072 
L 70.74 -118.676962 
L 70.90161 -120.247852 
L 71.168955 -121.818742 
L 71.516286 -123.389632 
L 72.113429 -124.960522 
L 73.205757 -126.531412 
L 74.936104 -128.102302 
L 77.247741 -129.673192 
L 79.92175 -131.244082 
L 82.688636 -132.814972 
L 85.325779 -134.385862 
L 87.69697 -135.956752 
L 89.738126 -137.527642 
L 91.423404 -139.098532 
L 92.756357 -140.669422 
L 93.795623 -142.240312 
L 94.668592 -143.811202 
L 95.530302 -145.382092 
L 96.489576 -146.952982 
L 97.560505 -148.523872 
L 98.66966 -150.094762 
L 99.705225 -151.665652 
L 100.572808 -153.236542 
L 101.226823 -154.807432 
L 101.670293 -156.378322 
L 101.940869 -157.949212 
L 102.099276 -159.520102 
L 102.215189 -161.090992 
L 102.344511 -162.661882 
L 102.512653 -164.232772 
L 102.718463 -165.803662 
L 102.948533 -167.374552 
L 103.1844 -168.945442 
L 103.403994 -170.516332 
L 103.587282 -172.087222 
L 103.724158 -173.658112 
L 103.816467 -175.229002 
L 103.874094 -176.799892 
L 103.910273 -178.370782 
L 103.937737 -179.941672 
L 103.965257 -181.512562 
L 103.995942 -183.083452 
L 104.028208 -184.654342 
L 104.057781 -186.225232 
L 104.079807 -187.796122 
L 104.092232 -189.367012 
L 104.099116 -190.937902 
L 104.108963 -192.508792 
L 104.127387 -194.079682 
L 104.151448 -195.650572 
L 104.172077 -197.221462 
L 104.181809 -198.792352 
L 104.180321 -200.363242 
L 104.174056 -201.934132 
L 104.171279 -203.505022 
L 104.268721 -203.505022 
L 104.268721 -203.505022 
L 104.265944 -201.934132 
L 104.259679 -200.363242 
L 104.258191 -198.792352 
L 104.267923 -197.221462 
L 104.288552 -195.650572 
L 104.312613 -194.079682 
L 104.331037 -192.508792 
L 104.340884 -190.937902 
L 104.347768 -189.367012 
L 104.360193 -187.796122 
L 104.382219 -186.225232 
L 104.411792 -184.654342 
L 104.444058 -183.083452 
L 104.474743 -181.512562 
L 104.502263 -179.941672 
L 104.529727 -178.370782 
L 104.565906 -176.799892 
L 104.623533 -175.229002 
L 104.715842 -173.658112 
L 104.852718 -172.087222 
L 105.036006 -170.516332 
L 105.2556 -168.945442 
L 105.491467 -167.374552 
L 105.721537 -165.803662 
L 105.927347 -164.232772 
L 106.095489 -162.661882 
L 106.224811 -161.090992 
L 106.340724 -159.520102 
L 106.499131 -157.949212 
L 106.769707 -156.378322 
L 107.213177 -154.807432 
L 107.867192 -153.236542 
L 108.734775 -151.665652 
L 109.77034 -150.094762 
L 110.879495 -148.523872 
L 111.950424 -146.952982 
L 112.909698 -145.382092 
L 113.771408 -143.811202 
L 114.644377 -142.240312 
L 115.683643 -140.669422 
L 117.016596 -139.098532 
L 118.701874 -137.527642 
L 120.74303 -135.956752 
L 123.114221 -134.385862 
L 125.751364 -132.814972 
L 128.51825 -131.244082 
L 131.192259 -129.673192 
L 133.503896 -128.102302 
L 135.234243 -126.531412 
L 136.326571 -124.960522 
L 136.923714 -123.389632 
L 137.271045 -121.818742 
L 137.53839 -120.247852 
L 137.7 -118.676962 
L 137.567099 -117.106072 
L 136.940426 -115.535182 
L 135.757533 -113.964292 
L 134.116044 -112.393402 
L 132.166548 -110.822512 
L 130.000345 -109.251622 
L 127.649443 -107.680732 
L 125.165889 -106.109842 
L 122.661418 -104.538952 
L 120.267456 -102.968062 
L 118.075008 -101.397172 
L 116.111803 -99.826282 
L 114.363269 -98.255392 
L 112.814136 -96.684502 
L 111.476751 -95.113612 
L 110.381928 -93.542722 
L 109.544145 -91.971832 
L 108.937867 -90.400942 
L 108.5029 -88.830052 
L 108.164637 -87.259162 
L 107.851457 -85.688272 
L 107.507713 -84.117382 
L 107.107628 -82.546491 
L 106.666503 -80.975601 
L 106.235587 -79.404711 
L 105.874663 -77.833821 
L 105.618063 -76.262931 
L 105.457828 -74.692041 
L 105.353192 -73.121151 
L 105.258117 -71.550261 
L 105.149664 -69.979371 
L 105.038721 -68.408481 
L 104.955337 -66.837591 
L 104.92045 -65.266701 
L 104.926181 -63.695811 
L 104.938436 -62.124921 
L 104.917983 -60.554031 
L 104.844393 -58.983141 
L 104.727009 -57.412251 
L 104.596726 -55.841361 
L 104.486017 -54.270471 
L 104.411881 -52.699581 
L 104.371377 -51.128691 
L 104.348907 -49.557801 
L 104.328407 -47.986911 
z
" id="me148c074ba" style="stroke:#3f3f3f;stroke-width:1.5;"/>
    </defs>
    <g clip-path="url(#p04276ec11e)">
     <use style="fill:#3274a1;stroke:#3f3f3f;stroke-width:1.5;" x="0" xlink:href="#me148c074ba" y="288"/>
    </g>
   </g>
   <g id="PolyCollection_2">
    <defs>
     <path d="M 338.642707 -45.883636 
L 338.517293 -45.883636 
L 338.500757 -47.880331 
L 338.473813 -49.877025 
L 338.429927 -51.873719 
L 338.375116 -53.870413 
L 338.322496 -55.867107 
L 338.283658 -57.863802 
L 338.254357 -59.860496 
L 338.205008 -61.85719 
L 338.107706 -63.853884 
L 337.976066 -65.850579 
L 337.848625 -67.847273 
L 337.722582 -69.843967 
L 337.532699 -71.840661 
L 337.216336 -73.837355 
L 336.784384 -75.83405 
L 336.312978 -77.830744 
L 335.87561 -79.827438 
L 335.488616 -81.824132 
L 335.097526 -83.820826 
L 334.596456 -85.817521 
L 333.887015 -87.814215 
L 332.944374 -89.810909 
L 331.795382 -91.807603 
L 330.419238 -93.804298 
L 328.740938 -95.800992 
L 326.745588 -97.797686 
L 324.510168 -99.79438 
L 322.095721 -101.791074 
L 319.491848 -103.787769 
L 316.726056 -105.784463 
L 313.972136 -107.781157 
L 311.43913 -109.777851 
L 309.207102 -111.774545 
L 307.307278 -113.77124 
L 305.873251 -115.767934 
L 305.1 -117.764628 
L 305.11417 -119.761322 
L 305.872472 -121.758017 
L 307.134937 -123.754711 
L 308.614204 -125.751405 
L 310.190426 -127.748099 
L 311.92353 -129.744793 
L 313.894486 -131.741488 
L 316.137456 -133.738182 
L 318.655907 -135.734876 
L 321.345434 -137.73157 
L 323.943052 -139.728264 
L 326.193663 -141.724959 
L 328.047015 -143.721653 
L 329.616062 -145.718347 
L 331.001662 -147.715041 
L 332.236528 -149.711736 
L 333.32544 -151.70843 
L 334.258084 -153.705124 
L 335.034713 -155.701818 
L 335.695586 -157.698512 
L 336.278887 -159.695207 
L 336.786012 -161.691901 
L 337.210317 -163.688595 
L 337.542608 -165.685289 
L 337.762295 -167.681983 
L 337.878188 -169.678678 
L 337.944766 -171.675372 
L 338.008651 -173.672066 
L 338.077481 -175.66876 
L 338.141444 -177.665455 
L 338.190535 -179.662149 
L 338.221545 -181.658843 
L 338.2477 -183.655537 
L 338.291667 -185.652231 
L 338.359961 -187.648926 
L 338.431855 -189.64562 
L 338.482592 -191.642314 
L 338.510242 -193.639008 
L 338.52957 -195.635702 
L 338.548934 -197.632397 
L 338.56525 -199.629091 
L 338.574801 -201.625785 
L 338.578655 -203.622479 
L 338.579746 -205.619174 
L 338.579965 -207.615868 
L 338.579996 -209.612562 
L 338.58 -211.609256 
L 338.58 -213.60595 
L 338.58 -215.602645 
L 338.58 -217.599339 
L 338.58 -219.596033 
L 338.58 -221.592727 
L 338.58 -223.589421 
L 338.58 -225.586116 
L 338.579998 -227.58281 
L 338.579978 -229.579504 
L 338.579828 -231.576198 
L 338.579031 -233.572893 
L 338.576003 -235.569587 
L 338.567969 -237.566281 
L 338.553567 -239.562975 
L 338.53761 -241.559669 
L 338.530383 -243.556364 
L 338.629617 -243.556364 
L 338.629617 -243.556364 
L 338.62239 -241.559669 
L 338.606433 -239.562975 
L 338.592031 -237.566281 
L 338.583997 -235.569587 
L 338.580969 -233.572893 
L 338.580172 -231.576198 
L 338.580022 -229.579504 
L 338.580002 -227.58281 
L 338.58 -225.586116 
L 338.58 -223.589421 
L 338.58 -221.592727 
L 338.58 -219.596033 
L 338.58 -217.599339 
L 338.58 -215.602645 
L 338.58 -213.60595 
L 338.58 -211.609256 
L 338.580004 -209.612562 
L 338.580035 -207.615868 
L 338.580254 -205.619174 
L 338.581345 -203.622479 
L 338.585199 -201.625785 
L 338.59475 -199.629091 
L 338.611066 -197.632397 
L 338.63043 -195.635702 
L 338.649758 -193.639008 
L 338.677408 -191.642314 
L 338.728145 -189.64562 
L 338.800039 -187.648926 
L 338.868333 -185.652231 
L 338.9123 -183.655537 
L 338.938455 -181.658843 
L 338.969465 -179.662149 
L 339.018556 -177.665455 
L 339.082519 -175.66876 
L 339.151349 -173.672066 
L 339.215234 -171.675372 
L 339.281812 -169.678678 
L 339.397705 -167.681983 
L 339.617392 -165.685289 
L 339.949683 -163.688595 
L 340.373988 -161.691901 
L 340.881113 -159.695207 
L 341.464414 -157.698512 
L 342.125287 -155.701818 
L 342.901916 -153.705124 
L 343.83456 -151.70843 
L 344.923472 -149.711736 
L 346.158338 -147.715041 
L 347.543938 -145.718347 
L 349.112985 -143.721653 
L 350.966337 -141.724959 
L 353.216948 -139.728264 
L 355.814566 -137.73157 
L 358.504093 -135.734876 
L 361.022544 -133.738182 
L 363.265514 -131.741488 
L 365.23647 -129.744793 
L 366.969574 -127.748099 
L 368.545796 -125.751405 
L 370.025063 -123.754711 
L 371.287528 -121.758017 
L 372.04583 -119.761322 
L 372.06 -117.764628 
L 371.286749 -115.767934 
L 369.852722 -113.77124 
L 367.952898 -111.774545 
L 365.72087 -109.777851 
L 363.187864 -107.781157 
L 360.433944 -105.784463 
L 357.668152 -103.787769 
L 355.064279 -101.791074 
L 352.649832 -99.79438 
L 350.414412 -97.797686 
L 348.419062 -95.800992 
L 346.740762 -93.804298 
L 345.364618 -91.807603 
L 344.215626 -89.810909 
L 343.272985 -87.814215 
L 342.563544 -85.817521 
L 342.062474 -83.820826 
L 341.671384 -81.824132 
L 341.28439 -79.827438 
L 340.847022 -77.830744 
L 340.375616 -75.83405 
L 339.943664 -73.837355 
L 339.627301 -71.840661 
L 339.437418 -69.843967 
L 339.311375 -67.847273 
L 339.183934 -65.850579 
L 339.052294 -63.853884 
L 338.954992 -61.85719 
L 338.905643 -59.860496 
L 338.876342 -57.863802 
L 338.837504 -55.867107 
L 338.784884 -53.870413 
L 338.730073 -51.873719 
L 338.686187 -49.877025 
L 338.659243 -47.880331 
L 338.642707 -45.883636 
z
" id="m41bfb90933" style="stroke:#3f3f3f;stroke-width:1.5;"/>
    </defs>
    <g clip-path="url(#p04276ec11e)">
     <use style="fill:#e1812c;stroke:#3f3f3f;stroke-width:1.5;" x="0" xlink:href="#m41bfb90933" y="288"/>
    </g>
   </g>
   <g id="patch_3">
    <path clip-path="url(#p04276ec11e)" d="M 137.7 172.900816 
L 137.7 172.900816 
L 137.7 172.900816 
L 137.7 172.900816 
z
" style="fill:#3274a1;stroke:#3f3f3f;stroke-linejoin:miter;stroke-width:0.75;"/>
   </g>
   <g id="patch_4">
    <path clip-path="url(#p04276ec11e)" d="M 137.7 172.900816 
L 137.7 172.900816 
L 137.7 172.900816 
L 137.7 172.900816 
z
" style="fill:#e1812c;stroke:#3f3f3f;stroke-linejoin:miter;stroke-width:0.75;"/>
   </g>
   <g id="matplotlib.axis_1">
    <g id="xtick_1">
     <g id="line2d_1">
      <defs>
       <path d="M 0 0 
L 0 3.5 
" id="m84b8eb89ac" style="stroke:#000000;stroke-width:0.8;"/>
      </defs>
      <g>
       <use style="stroke:#000000;stroke-width:0.8;" x="137.7" xlink:href="#m84b8eb89ac" y="252"/>
      </g>
     </g>
     <g id="text_1">
      <!-- Z_1_ns -->
      <g transform="translate(120.320312 266.320312)scale(0.1 -0.1)">
       <defs>
        <path d="M 5.609375 72.90625 
L 62.890625 72.90625 
L 62.890625 65.375 
L 16.796875 8.296875 
L 64.015625 8.296875 
L 64.015625 0 
L 4.5 0 
L 4.5 7.515625 
L 50.59375 64.59375 
L 5.609375 64.59375 
z
" id="DejaVuSans-90"/>
        <path d="M 50.984375 -16.609375 
L 50.984375 -23.578125 
L -0.984375 -23.578125 
L -0.984375 -16.609375 
z
" id="DejaVuSans-95"/>
        <path d="M 12.40625 8.296875 
L 28.515625 8.296875 
L 28.515625 63.921875 
L 10.984375 60.40625 
L 10.984375 69.390625 
L 28.421875 72.90625 
L 38.28125 72.90625 
L 38.28125 8.296875 
L 54.390625 8.296875 
L 54.390625 0 
L 12.40625 0 
z
" id="DejaVuSans-49"/>
        <path d="M 54.890625 33.015625 
L 54.890625 0 
L 45.90625 0 
L 45.90625 32.71875 
Q 45.90625 40.484375 42.875 44.328125 
Q 39.84375 48.1875 33.796875 48.1875 
Q 26.515625 48.1875 22.3125 43.546875 
Q 18.109375 38.921875 18.109375 30.90625 
L 18.109375 0 
L 9.078125 0 
L 9.078125 54.6875 
L 18.109375 54.6875 
L 18.109375 46.1875 
Q 21.34375 51.125 25.703125 53.5625 
Q 30.078125 56 35.796875 56 
Q 45.21875 56 50.046875 50.171875 
Q 54.890625 44.34375 54.890625 33.015625 
z
" id="DejaVuSans-110"/>
        <path d="M 44.28125 53.078125 
L 44.28125 44.578125 
Q 40.484375 46.53125 36.375 47.5 
Q 32.28125 48.484375 27.875 48.484375 
Q 21.1875 48.484375 17.84375 46.4375 
Q 14.5 44.390625 14.5 40.28125 
Q 14.5 37.15625 16.890625 35.375 
Q 19.28125 33.59375 26.515625 31.984375 
L 29.59375 31.296875 
Q 39.15625 29.25 43.1875 25.515625 
Q 47.21875 21.78125 47.21875 15.09375 
Q 47.21875 7.46875 41.1875 3.015625 
Q 35.15625 -1.421875 24.609375 -1.421875 
Q 20.21875 -1.421875 15.453125 -0.5625 
Q 10.6875 0.296875 5.421875 2 
L 5.421875 11.28125 
Q 10.40625 8.6875 15.234375 7.390625 
Q 20.0625 6.109375 24.8125 6.109375 
Q 31.15625 6.109375 34.5625 8.28125 
Q 37.984375 10.453125 37.984375 14.40625 
Q 37.984375 18.0625 35.515625 20.015625 
Q 33.0625 21.96875 24.703125 23.78125 
L 21.578125 24.515625 
Q 13.234375 26.265625 9.515625 29.90625 
Q 5.8125 33.546875 5.8125 39.890625 
Q 5.8125 47.609375 11.28125 51.796875 
Q 16.75 56 26.8125 56 
Q 31.78125 56 36.171875 55.265625 
Q 40.578125 54.546875 44.28125 53.078125 
z
" id="DejaVuSans-115"/>
       </defs>
       <use xlink:href="#DejaVuSans-90"/>
       <use x="68.505859" xlink:href="#DejaVuSans-95"/>
       <use x="118.505859" xlink:href="#DejaVuSans-49"/>
       <use x="182.128906" xlink:href="#DejaVuSans-95"/>
       <use x="232.128906" xlink:href="#DejaVuSans-110"/>
       <use x="295.507812" xlink:href="#DejaVuSans-115"/>
      </g>
     </g>
    </g>
    <g id="xtick_2">
     <g id="line2d_2">
      <g>
       <use style="stroke:#000000;stroke-width:0.8;" x="305.1" xlink:href="#m84b8eb89ac" y="252"/>
      </g>
     </g>
     <g id="text_2">
      <!-- Z_2_ns -->
      <g transform="translate(287.720313 266.421875)scale(0.1 -0.1)">
       <defs>
        <path d="M 19.1875 8.296875 
L 53.609375 8.296875 
L 53.609375 0 
L 7.328125 0 
L 7.328125 8.296875 
Q 12.9375 14.109375 22.625 23.890625 
Q 32.328125 33.6875 34.8125 36.53125 
Q 39.546875 41.84375 41.421875 45.53125 
Q 43.3125 49.21875 43.3125 52.78125 
Q 43.3125 58.59375 39.234375 62.25 
Q 35.15625 65.921875 28.609375 65.921875 
Q 23.96875 65.921875 18.8125 64.3125 
Q 13.671875 62.703125 7.8125 59.421875 
L 7.8125 69.390625 
Q 13.765625 71.78125 18.9375 73 
Q 24.125 74.21875 28.421875 74.21875 
Q 39.75 74.21875 46.484375 68.546875 
Q 53.21875 62.890625 53.21875 53.421875 
Q 53.21875 48.921875 51.53125 44.890625 
Q 49.859375 40.875 45.40625 35.40625 
Q 44.1875 33.984375 37.640625 27.21875 
Q 31.109375 20.453125 19.1875 8.296875 
z
" id="DejaVuSans-50"/>
       </defs>
       <use xlink:href="#DejaVuSans-90"/>
       <use x="68.505859" xlink:href="#DejaVuSans-95"/>
       <use x="118.505859" xlink:href="#DejaVuSans-50"/>
       <use x="182.128906" xlink:href="#DejaVuSans-95"/>
       <use x="232.128906" xlink:href="#DejaVuSans-110"/>
       <use x="295.507812" xlink:href="#DejaVuSans-115"/>
      </g>
     </g>
    </g>
    <g id="text_3">
     <!-- set -->
     <g transform="translate(213.758594 280.378125)scale(0.1 -0.1)">
      <defs>
       <path d="M 56.203125 29.59375 
L 56.203125 25.203125 
L 14.890625 25.203125 
Q 15.484375 15.921875 20.484375 11.0625 
Q 25.484375 6.203125 34.421875 6.203125 
Q 39.59375 6.203125 44.453125 7.46875 
Q 49.3125 8.734375 54.109375 11.28125 
L 54.109375 2.78125 
Q 49.265625 0.734375 44.1875 -0.34375 
Q 39.109375 -1.421875 33.890625 -1.421875 
Q 20.796875 -1.421875 13.15625 6.1875 
Q 5.515625 13.8125 5.515625 26.8125 
Q 5.515625 40.234375 12.765625 48.109375 
Q 20.015625 56 32.328125 56 
Q 43.359375 56 49.78125 48.890625 
Q 56.203125 41.796875 56.203125 29.59375 
z
M 47.21875 32.234375 
Q 47.125 39.59375 43.09375 43.984375 
Q 39.0625 48.390625 32.421875 48.390625 
Q 24.90625 48.390625 20.390625 44.140625 
Q 15.875 39.890625 15.1875 32.171875 
z
" id="DejaVuSans-101"/>
       <path d="M 18.3125 70.21875 
L 18.3125 54.6875 
L 36.8125 54.6875 
L 36.8125 47.703125 
L 18.3125 47.703125 
L 18.3125 18.015625 
Q 18.3125 11.328125 20.140625 9.421875 
Q 21.96875 7.515625 27.59375 7.515625 
L 36.8125 7.515625 
L 36.8125 0 
L 27.59375 0 
Q 17.1875 0 13.234375 3.875 
Q 9.28125 7.765625 9.28125 18.015625 
L 9.28125 47.703125 
L 2.6875 47.703125 
L 2.6875 54.6875 
L 9.28125 54.6875 
L 9.28125 70.21875 
z
" id="DejaVuSans-116"/>
      </defs>
      <use xlink:href="#DejaVuSans-115"/>
      <use x="52.099609" xlink:href="#DejaVuSans-101"/>
      <use x="113.623047" xlink:href="#DejaVuSans-116"/>
     </g>
    </g>
   </g>
   <g id="matplotlib.axis_2">
    <g id="ytick_1">
     <g id="line2d_3">
      <defs>
       <path d="M 0 0 
L -3.5 0 
" id="mbec2ca01a8" style="stroke:#000000;stroke-width:0.8;"/>
      </defs>
      <g>
       <use style="stroke:#000000;stroke-width:0.8;" x="54" xlink:href="#mbec2ca01a8" y="246.725502"/>
      </g>
     </g>
     <g id="text_4">
      <!-- −60 -->
      <g transform="translate(25.895312 250.52472)scale(0.1 -0.1)">
       <defs>
        <path d="M 10.59375 35.5 
L 73.1875 35.5 
L 73.1875 27.203125 
L 10.59375 27.203125 
z
" id="DejaVuSans-8722"/>
        <path d="M 33.015625 40.375 
Q 26.375 40.375 22.484375 35.828125 
Q 18.609375 31.296875 18.609375 23.390625 
Q 18.609375 15.53125 22.484375 10.953125 
Q 26.375 6.390625 33.015625 6.390625 
Q 39.65625 6.390625 43.53125 10.953125 
Q 47.40625 15.53125 47.40625 23.390625 
Q 47.40625 31.296875 43.53125 35.828125 
Q 39.65625 40.375 33.015625 40.375 
z
M 52.59375 71.296875 
L 52.59375 62.3125 
Q 48.875 64.0625 45.09375 64.984375 
Q 41.3125 65.921875 37.59375 65.921875 
Q 27.828125 65.921875 22.671875 59.328125 
Q 17.53125 52.734375 16.796875 39.40625 
Q 19.671875 43.65625 24.015625 45.921875 
Q 28.375 48.1875 33.59375 48.1875 
Q 44.578125 48.1875 50.953125 41.515625 
Q 57.328125 34.859375 57.328125 23.390625 
Q 57.328125 12.15625 50.6875 5.359375 
Q 44.046875 -1.421875 33.015625 -1.421875 
Q 20.359375 -1.421875 13.671875 8.265625 
Q 6.984375 17.96875 6.984375 36.375 
Q 6.984375 53.65625 15.1875 63.9375 
Q 23.390625 74.21875 37.203125 74.21875 
Q 40.921875 74.21875 44.703125 73.484375 
Q 48.484375 72.75 52.59375 71.296875 
z
" id="DejaVuSans-54"/>
        <path d="M 31.78125 66.40625 
Q 24.171875 66.40625 20.328125 58.90625 
Q 16.5 51.421875 16.5 36.375 
Q 16.5 21.390625 20.328125 13.890625 
Q 24.171875 6.390625 31.78125 6.390625 
Q 39.453125 6.390625 43.28125 13.890625 
Q 47.125 21.390625 47.125 36.375 
Q 47.125 51.421875 43.28125 58.90625 
Q 39.453125 66.40625 31.78125 66.40625 
z
M 31.78125 74.21875 
Q 44.046875 74.21875 50.515625 64.515625 
Q 56.984375 54.828125 56.984375 36.375 
Q 56.984375 17.96875 50.515625 8.265625 
Q 44.046875 -1.421875 31.78125 -1.421875 
Q 19.53125 -1.421875 13.0625 8.265625 
Q 6.59375 17.96875 6.59375 36.375 
Q 6.59375 54.828125 13.0625 64.515625 
Q 19.53125 74.21875 31.78125 74.21875 
z
" id="DejaVuSans-48"/>
       </defs>
       <use xlink:href="#DejaVuSans-8722"/>
       <use x="83.789062" xlink:href="#DejaVuSans-54"/>
       <use x="147.412109" xlink:href="#DejaVuSans-48"/>
      </g>
     </g>
    </g>
    <g id="ytick_2">
     <g id="line2d_4">
      <g>
       <use style="stroke:#000000;stroke-width:0.8;" x="54" xlink:href="#mbec2ca01a8" y="222.117273"/>
      </g>
     </g>
     <g id="text_5">
      <!-- −40 -->
      <g transform="translate(25.895312 225.916492)scale(0.1 -0.1)">
       <defs>
        <path d="M 37.796875 64.3125 
L 12.890625 25.390625 
L 37.796875 25.390625 
z
M 35.203125 72.90625 
L 47.609375 72.90625 
L 47.609375 25.390625 
L 58.015625 25.390625 
L 58.015625 17.1875 
L 47.609375 17.1875 
L 47.609375 0 
L 37.796875 0 
L 37.796875 17.1875 
L 4.890625 17.1875 
L 4.890625 26.703125 
z
" id="DejaVuSans-52"/>
       </defs>
       <use xlink:href="#DejaVuSans-8722"/>
       <use x="83.789062" xlink:href="#DejaVuSans-52"/>
       <use x="147.412109" xlink:href="#DejaVuSans-48"/>
      </g>
     </g>
    </g>
    <g id="ytick_3">
     <g id="line2d_5">
      <g>
       <use style="stroke:#000000;stroke-width:0.8;" x="54" xlink:href="#mbec2ca01a8" y="197.509045"/>
      </g>
     </g>
     <g id="text_6">
      <!-- −20 -->
      <g transform="translate(25.895312 201.308263)scale(0.1 -0.1)">
       <use xlink:href="#DejaVuSans-8722"/>
       <use x="83.789062" xlink:href="#DejaVuSans-50"/>
       <use x="147.412109" xlink:href="#DejaVuSans-48"/>
      </g>
     </g>
    </g>
    <g id="ytick_4">
     <g id="line2d_6">
      <g>
       <use style="stroke:#000000;stroke-width:0.8;" x="54" xlink:href="#mbec2ca01a8" y="172.900816"/>
      </g>
     </g>
     <g id="text_7">
      <!-- 0 -->
      <g transform="translate(40.6375 176.700035)scale(0.1 -0.1)">
       <use xlink:href="#DejaVuSans-48"/>
      </g>
     </g>
    </g>
    <g id="ytick_5">
     <g id="line2d_7">
      <g>
       <use style="stroke:#000000;stroke-width:0.8;" x="54" xlink:href="#mbec2ca01a8" y="148.292587"/>
      </g>
     </g>
     <g id="text_8">
      <!-- 20 -->
      <g transform="translate(34.275 152.091806)scale(0.1 -0.1)">
       <use xlink:href="#DejaVuSans-50"/>
       <use x="63.623047" xlink:href="#DejaVuSans-48"/>
      </g>
     </g>
    </g>
    <g id="ytick_6">
     <g id="line2d_8">
      <g>
       <use style="stroke:#000000;stroke-width:0.8;" x="54" xlink:href="#mbec2ca01a8" y="123.684359"/>
      </g>
     </g>
     <g id="text_9">
      <!-- 40 -->
      <g transform="translate(34.275 127.483578)scale(0.1 -0.1)">
       <use xlink:href="#DejaVuSans-52"/>
       <use x="63.623047" xlink:href="#DejaVuSans-48"/>
      </g>
     </g>
    </g>
    <g id="ytick_7">
     <g id="line2d_9">
      <g>
       <use style="stroke:#000000;stroke-width:0.8;" x="54" xlink:href="#mbec2ca01a8" y="99.07613"/>
      </g>
     </g>
     <g id="text_10">
      <!-- 60 -->
      <g transform="translate(34.275 102.875349)scale(0.1 -0.1)">
       <use xlink:href="#DejaVuSans-54"/>
       <use x="63.623047" xlink:href="#DejaVuSans-48"/>
      </g>
     </g>
    </g>
    <g id="ytick_8">
     <g id="line2d_10">
      <g>
       <use style="stroke:#000000;stroke-width:0.8;" x="54" xlink:href="#mbec2ca01a8" y="74.467902"/>
      </g>
     </g>
     <g id="text_11">
      <!-- 80 -->
      <g transform="translate(34.275 78.267121)scale(0.1 -0.1)">
       <defs>
        <path d="M 31.78125 34.625 
Q 24.75 34.625 20.71875 30.859375 
Q 16.703125 27.09375 16.703125 20.515625 
Q 16.703125 13.921875 20.71875 10.15625 
Q 24.75 6.390625 31.78125 6.390625 
Q 38.8125 6.390625 42.859375 10.171875 
Q 46.921875 13.96875 46.921875 20.515625 
Q 46.921875 27.09375 42.890625 30.859375 
Q 38.875 34.625 31.78125 34.625 
z
M 21.921875 38.8125 
Q 15.578125 40.375 12.03125 44.71875 
Q 8.5 49.078125 8.5 55.328125 
Q 8.5 64.0625 14.71875 69.140625 
Q 20.953125 74.21875 31.78125 74.21875 
Q 42.671875 74.21875 48.875 69.140625 
Q 55.078125 64.0625 55.078125 55.328125 
Q 55.078125 49.078125 51.53125 44.71875 
Q 48 40.375 41.703125 38.8125 
Q 48.828125 37.15625 52.796875 32.3125 
Q 56.78125 27.484375 56.78125 20.515625 
Q 56.78125 9.90625 50.3125 4.234375 
Q 43.84375 -1.421875 31.78125 -1.421875 
Q 19.734375 -1.421875 13.25 4.234375 
Q 6.78125 9.90625 6.78125 20.515625 
Q 6.78125 27.484375 10.78125 32.3125 
Q 14.796875 37.15625 21.921875 38.8125 
z
M 18.3125 54.390625 
Q 18.3125 48.734375 21.84375 45.5625 
Q 25.390625 42.390625 31.78125 42.390625 
Q 38.140625 42.390625 41.71875 45.5625 
Q 45.3125 48.734375 45.3125 54.390625 
Q 45.3125 60.0625 41.71875 63.234375 
Q 38.140625 66.40625 31.78125 66.40625 
Q 25.390625 66.40625 21.84375 63.234375 
Q 18.3125 60.0625 18.3125 54.390625 
z
" id="DejaVuSans-56"/>
       </defs>
       <use xlink:href="#DejaVuSans-56"/>
       <use x="63.623047" xlink:href="#DejaVuSans-48"/>
      </g>
     </g>
    </g>
    <g id="ytick_9">
     <g id="line2d_11">
      <g>
       <use style="stroke:#000000;stroke-width:0.8;" x="54" xlink:href="#mbec2ca01a8" y="49.859673"/>
      </g>
     </g>
     <g id="text_12">
      <!-- 100 -->
      <g transform="translate(27.9125 53.658892)scale(0.1 -0.1)">
       <use xlink:href="#DejaVuSans-49"/>
       <use x="63.623047" xlink:href="#DejaVuSans-48"/>
       <use x="127.246094" xlink:href="#DejaVuSans-48"/>
      </g>
     </g>
    </g>
    <g id="text_13">
     <!-- value -->
     <g transform="translate(19.815625 156.937813)rotate(-90)scale(0.1 -0.1)">
      <defs>
       <path d="M 2.984375 54.6875 
L 12.5 54.6875 
L 29.59375 8.796875 
L 46.6875 54.6875 
L 56.203125 54.6875 
L 35.6875 0 
L 23.484375 0 
z
" id="DejaVuSans-118"/>
       <path d="M 34.28125 27.484375 
Q 23.390625 27.484375 19.1875 25 
Q 14.984375 22.515625 14.984375 16.5 
Q 14.984375 11.71875 18.140625 8.90625 
Q 21.296875 6.109375 26.703125 6.109375 
Q 34.1875 6.109375 38.703125 11.40625 
Q 43.21875 16.703125 43.21875 25.484375 
L 43.21875 27.484375 
z
M 52.203125 31.203125 
L 52.203125 0 
L 43.21875 0 
L 43.21875 8.296875 
Q 40.140625 3.328125 35.546875 0.953125 
Q 30.953125 -1.421875 24.3125 -1.421875 
Q 15.921875 -1.421875 10.953125 3.296875 
Q 6 8.015625 6 15.921875 
Q 6 25.140625 12.171875 29.828125 
Q 18.359375 34.515625 30.609375 34.515625 
L 43.21875 34.515625 
L 43.21875 35.40625 
Q 43.21875 41.609375 39.140625 45 
Q 35.0625 48.390625 27.6875 48.390625 
Q 23 48.390625 18.546875 47.265625 
Q 14.109375 46.140625 10.015625 43.890625 
L 10.015625 52.203125 
Q 14.9375 54.109375 19.578125 55.046875 
Q 24.21875 56 28.609375 56 
Q 40.484375 56 46.34375 49.84375 
Q 52.203125 43.703125 52.203125 31.203125 
z
" id="DejaVuSans-97"/>
       <path d="M 9.421875 75.984375 
L 18.40625 75.984375 
L 18.40625 0 
L 9.421875 0 
z
" id="DejaVuSans-108"/>
       <path d="M 8.5 21.578125 
L 8.5 54.6875 
L 17.484375 54.6875 
L 17.484375 21.921875 
Q 17.484375 14.15625 20.5 10.265625 
Q 23.53125 6.390625 29.59375 6.390625 
Q 36.859375 6.390625 41.078125 11.03125 
Q 45.3125 15.671875 45.3125 23.6875 
L 45.3125 54.6875 
L 54.296875 54.6875 
L 54.296875 0 
L 45.3125 0 
L 45.3125 8.40625 
Q 42.046875 3.421875 37.71875 1 
Q 33.40625 -1.421875 27.6875 -1.421875 
Q 18.265625 -1.421875 13.375 4.4375 
Q 8.5 10.296875 8.5 21.578125 
z
M 31.109375 56 
z
" id="DejaVuSans-117"/>
      </defs>
      <use xlink:href="#DejaVuSans-118"/>
      <use x="59.179688" xlink:href="#DejaVuSans-97"/>
      <use x="120.458984" xlink:href="#DejaVuSans-108"/>
      <use x="148.242188" xlink:href="#DejaVuSans-117"/>
      <use x="211.621094" xlink:href="#DejaVuSans-101"/>
     </g>
    </g>
   </g>
   <g id="line2d_12">
    <path clip-path="url(#p04276ec11e)" d="M 104.22 207.182311 
L 104.22 129.025485 
" style="fill:none;stroke:#3f3f3f;stroke-linecap:square;stroke-width:1.5;"/>
   </g>
   <g id="line2d_13">
    <path clip-path="url(#p04276ec11e)" d="M 104.22 177.880249 
L 104.22 158.308336 
" style="fill:none;stroke:#3f3f3f;stroke-linecap:square;stroke-width:4.5;"/>
   </g>
   <g id="line2d_14">
    <path clip-path="url(#p04276ec11e)" d="M 338.58 211.618183 
L 338.58 124.653987 
" style="fill:none;stroke:#3f3f3f;stroke-linecap:square;stroke-width:1.5;"/>
   </g>
   <g id="line2d_15">
    <path clip-path="url(#p04276ec11e)" d="M 338.58 178.965768 
L 338.58 157.137047 
" style="fill:none;stroke:#3f3f3f;stroke-linecap:square;stroke-width:4.5;"/>
   </g>
   <g id="patch_5">
    <path d="M 54 252 
L 54 34.56 
" style="fill:none;stroke:#000000;stroke-linecap:square;stroke-linejoin:miter;stroke-width:0.8;"/>
   </g>
   <g id="patch_6">
    <path d="M 388.8 252 
L 388.8 34.56 
" style="fill:none;stroke:#000000;stroke-linecap:square;stroke-linejoin:miter;stroke-width:0.8;"/>
   </g>
   <g id="patch_7">
    <path d="M 54 252 
L 388.8 252 
" style="fill:none;stroke:#000000;stroke-linecap:square;stroke-linejoin:miter;stroke-width:0.8;"/>
   </g>
   <g id="patch_8">
    <path d="M 54 34.56 
L 388.8 34.56 
" style="fill:none;stroke:#000000;stroke-linecap:square;stroke-linejoin:miter;stroke-width:0.8;"/>
   </g>
   <g id="PathCollection_1">
    <defs>
     <path d="M 0 1.5 
C 0.397805 1.5 0.77937 1.341951 1.06066 1.06066 
C 1.341951 0.77937 1.5 0.397805 1.5 0 
C 1.5 -0.397805 1.341951 -0.77937 1.06066 -1.06066 
C 0.77937 -1.341951 0.397805 -1.5 0 -1.5 
C -0.397805 -1.5 -0.77937 -1.341951 -1.06066 -1.06066 
C -1.341951 -0.77937 -1.5 -0.397805 -1.5 0 
C -1.5 0.397805 -1.341951 0.77937 -1.06066 1.06066 
C -0.77937 1.341951 -0.397805 1.5 0 1.5 
z
" id="m4b8d6a11df" style="stroke:#3f3f3f;"/>
    </defs>
    <g clip-path="url(#p04276ec11e)">
     <use style="fill:#ffffff;stroke:#3f3f3f;" x="104.22" xlink:href="#m4b8d6a11df" y="168.184411"/>
    </g>
   </g>
   <g id="PathCollection_2">
    <g clip-path="url(#p04276ec11e)">
     <use style="fill:#ffffff;stroke:#3f3f3f;" x="338.58" xlink:href="#m4b8d6a11df" y="168.301725"/>
    </g>
   </g>
   <g id="legend_1">
    <g id="patch_9">
     <path d="M 315.040625 87.150625 
L 381.8 87.150625 
Q 383.8 87.150625 383.8 85.150625 
L 383.8 41.56 
Q 383.8 39.56 381.8 39.56 
L 315.040625 39.56 
Q 313.040625 39.56 313.040625 41.56 
L 313.040625 85.150625 
Q 313.040625 87.150625 315.040625 87.150625 
z
" style="fill:#ffffff;opacity:0.8;stroke:#cccccc;stroke-linejoin:miter;"/>
    </g>
    <g id="text_14">
     <!-- set -->
     <g transform="translate(340.778906 51.158437)scale(0.1 -0.1)">
      <use xlink:href="#DejaVuSans-115"/>
      <use x="52.099609" xlink:href="#DejaVuSans-101"/>
      <use x="113.623047" xlink:href="#DejaVuSans-116"/>
     </g>
    </g>
    <g id="patch_10">
     <path d="M 317.040625 65.836562 
L 337.040625 65.836562 
L 337.040625 58.836562 
L 317.040625 58.836562 
z
" style="fill:#3274a1;stroke:#3f3f3f;stroke-linejoin:miter;stroke-width:0.75;"/>
    </g>
    <g id="text_15">
     <!-- Z_1_ns -->
     <g transform="translate(345.040625 65.836562)scale(0.1 -0.1)">
      <use xlink:href="#DejaVuSans-90"/>
      <use x="68.505859" xlink:href="#DejaVuSans-95"/>
      <use x="118.505859" xlink:href="#DejaVuSans-49"/>
      <use x="182.128906" xlink:href="#DejaVuSans-95"/>
      <use x="232.128906" xlink:href="#DejaVuSans-110"/>
      <use x="295.507812" xlink:href="#DejaVuSans-115"/>
     </g>
    </g>
    <g id="patch_11">
     <path d="M 317.040625 80.792812 
L 337.040625 80.792812 
L 337.040625 73.792812 
L 317.040625 73.792812 
z
" style="fill:#e1812c;stroke:#3f3f3f;stroke-linejoin:miter;stroke-width:0.75;"/>
    </g>
    <g id="text_16">
     <!-- Z_2_ns -->
     <g transform="translate(345.040625 80.792812)scale(0.1 -0.1)">
      <use xlink:href="#DejaVuSans-90"/>
      <use x="68.505859" xlink:href="#DejaVuSans-95"/>
      <use x="118.505859" xlink:href="#DejaVuSans-50"/>
      <use x="182.128906" xlink:href="#DejaVuSans-95"/>
      <use x="232.128906" xlink:href="#DejaVuSans-110"/>
      <use x="295.507812" xlink:href="#DejaVuSans-115"/>
     </g>
    </g>
   </g>
  </g>
 </g>
 <defs>
  <clipPath id="p04276ec11e">
   <rect height="217.44" width="334.8" x="54" y="34.56"/>
  </clipPath>
 </defs>
</svg>
