<?xml version="1.0" encoding="utf-8" standalone="no"?>
<!DOCTYPE svg PUBLIC "-//W3C//DTD SVG 1.1//EN"
  "http://www.w3.org/Graphics/SVG/1.1/DTD/svg11.dtd">
<!-- Created with matplotlib (https://matplotlib.org/) -->
<svg height="345.6pt" version="1.1" viewBox="0 0 460.8 345.6" width="460.8pt" xmlns="http://www.w3.org/2000/svg" xmlns:xlink="http://www.w3.org/1999/xlink">
 <metadata>
  <rdf:RDF xmlns:cc="http://creativecommons.org/ns#" xmlns:dc="http://purl.org/dc/elements/1.1/" xmlns:rdf="http://www.w3.org/1999/02/22-rdf-syntax-ns#">
   <cc:Work>
    <dc:type rdf:resource="http://purl.org/dc/dcmitype/StillImage"/>
    <dc:date>2023-07-16T19:51:03.908054</dc:date>
    <dc:format>image/svg+xml</dc:format>
    <dc:creator>
     <cc:Agent>
      <dc:title>Matplotlib v3.3.4, https://matplotlib.org/</dc:title>
     </cc:Agent>
    </dc:creator>
   </cc:Work>
  </rdf:RDF>
 </metadata>
 <defs>
  <style type="text/css">*{stroke-linecap:butt;stroke-linejoin:round;}</style>
 </defs>
 <g id="figure_1">
  <g id="patch_1">
   <path d="M 0 345.6 
L 460.8 345.6 
L 460.8 0 
L 0 0 
z
" style="fill:#ffffff;"/>
  </g>
  <g id="axes_1">
   <g id="patch_2">
    <path d="M 57.6 307.584 
L 414.72 307.584 
L 414.72 41.472 
L 57.6 41.472 
z
" style="fill:#ffffff;"/>
   </g>
   <g id="matplotlib.axis_1">
    <g id="xtick_1">
     <g id="line2d_1">
      <defs>
       <path d="M 0 0 
L 0 3.5 
" id="m7540f348c6" style="stroke:#000000;stroke-width:0.8;"/>
      </defs>
      <g>
       <use style="stroke:#000000;stroke-width:0.8;" x="73.832727" xlink:href="#m7540f348c6" y="307.584"/>
      </g>
     </g>
     <g id="text_1">
      <!-- 0 -->
      <g transform="translate(70.651477 322.182437)scale(0.1 -0.1)">
       <defs>
        <path d="M 31.78125 66.40625 
Q 24.171875 66.40625 20.328125 58.90625 
Q 16.5 51.421875 16.5 36.375 
Q 16.5 21.390625 20.328125 13.890625 
Q 24.171875 6.390625 31.78125 6.390625 
Q 39.453125 6.390625 43.28125 13.890625 
Q 47.125 21.390625 47.125 36.375 
Q 47.125 51.421875 43.28125 58.90625 
Q 39.453125 66.40625 31.78125 66.40625 
z
M 31.78125 74.21875 
Q 44.046875 74.21875 50.515625 64.515625 
Q 56.984375 54.828125 56.984375 36.375 
Q 56.984375 17.96875 50.515625 8.265625 
Q 44.046875 -1.421875 31.78125 -1.421875 
Q 19.53125 -1.421875 13.0625 8.265625 
Q 6.59375 17.96875 6.59375 36.375 
Q 6.59375 54.828125 13.0625 64.515625 
Q 19.53125 74.21875 31.78125 74.21875 
z
" id="DejaVuSans-48"/>
       </defs>
       <use xlink:href="#DejaVuSans-48"/>
      </g>
     </g>
    </g>
    <g id="xtick_2">
     <g id="line2d_2">
      <g>
       <use style="stroke:#000000;stroke-width:0.8;" x="128.032151" xlink:href="#m7540f348c6" y="307.584"/>
      </g>
     </g>
     <g id="text_2">
      <!-- 100 -->
      <g transform="translate(118.488401 322.182437)scale(0.1 -0.1)">
       <defs>
        <path d="M 12.40625 8.296875 
L 28.515625 8.296875 
L 28.515625 63.921875 
L 10.984375 60.40625 
L 10.984375 69.390625 
L 28.421875 72.90625 
L 38.28125 72.90625 
L 38.28125 8.296875 
L 54.390625 8.296875 
L 54.390625 0 
L 12.40625 0 
z
" id="DejaVuSans-49"/>
       </defs>
       <use xlink:href="#DejaVuSans-49"/>
       <use x="63.623047" xlink:href="#DejaVuSans-48"/>
       <use x="127.246094" xlink:href="#DejaVuSans-48"/>
      </g>
     </g>
    </g>
    <g id="xtick_3">
     <g id="line2d_3">
      <g>
       <use style="stroke:#000000;stroke-width:0.8;" x="182.231574" xlink:href="#m7540f348c6" y="307.584"/>
      </g>
     </g>
     <g id="text_3">
      <!-- 200 -->
      <g transform="translate(172.687824 322.182437)scale(0.1 -0.1)">
       <defs>
        <path d="M 19.1875 8.296875 
L 53.609375 8.296875 
L 53.609375 0 
L 7.328125 0 
L 7.328125 8.296875 
Q 12.9375 14.109375 22.625 23.890625 
Q 32.328125 33.6875 34.8125 36.53125 
Q 39.546875 41.84375 41.421875 45.53125 
Q 43.3125 49.21875 43.3125 52.78125 
Q 43.3125 58.59375 39.234375 62.25 
Q 35.15625 65.921875 28.609375 65.921875 
Q 23.96875 65.921875 18.8125 64.3125 
Q 13.671875 62.703125 7.8125 59.421875 
L 7.8125 69.390625 
Q 13.765625 71.78125 18.9375 73 
Q 24.125 74.21875 28.421875 74.21875 
Q 39.75 74.21875 46.484375 68.546875 
Q 53.21875 62.890625 53.21875 53.421875 
Q 53.21875 48.921875 51.53125 44.890625 
Q 49.859375 40.875 45.40625 35.40625 
Q 44.1875 33.984375 37.640625 27.21875 
Q 31.109375 20.453125 19.1875 8.296875 
z
" id="DejaVuSans-50"/>
       </defs>
       <use xlink:href="#DejaVuSans-50"/>
       <use x="63.623047" xlink:href="#DejaVuSans-48"/>
       <use x="127.246094" xlink:href="#DejaVuSans-48"/>
      </g>
     </g>
    </g>
    <g id="xtick_4">
     <g id="line2d_4">
      <g>
       <use style="stroke:#000000;stroke-width:0.8;" x="236.430997" xlink:href="#m7540f348c6" y="307.584"/>
      </g>
     </g>
     <g id="text_4">
      <!-- 300 -->
      <g transform="translate(226.887247 322.182437)scale(0.1 -0.1)">
       <defs>
        <path d="M 40.578125 39.3125 
Q 47.65625 37.796875 51.625 33 
Q 55.609375 28.21875 55.609375 21.1875 
Q 55.609375 10.40625 48.1875 4.484375 
Q 40.765625 -1.421875 27.09375 -1.421875 
Q 22.515625 -1.421875 17.65625 -0.515625 
Q 12.796875 0.390625 7.625 2.203125 
L 7.625 11.71875 
Q 11.71875 9.328125 16.59375 8.109375 
Q 21.484375 6.890625 26.8125 6.890625 
Q 36.078125 6.890625 40.9375 10.546875 
Q 45.796875 14.203125 45.796875 21.1875 
Q 45.796875 27.640625 41.28125 31.265625 
Q 36.765625 34.90625 28.71875 34.90625 
L 20.21875 34.90625 
L 20.21875 43.015625 
L 29.109375 43.015625 
Q 36.375 43.015625 40.234375 45.921875 
Q 44.09375 48.828125 44.09375 54.296875 
Q 44.09375 59.90625 40.109375 62.90625 
Q 36.140625 65.921875 28.71875 65.921875 
Q 24.65625 65.921875 20.015625 65.03125 
Q 15.375 64.15625 9.8125 62.3125 
L 9.8125 71.09375 
Q 15.4375 72.65625 20.34375 73.4375 
Q 25.25 74.21875 29.59375 74.21875 
Q 40.828125 74.21875 47.359375 69.109375 
Q 53.90625 64.015625 53.90625 55.328125 
Q 53.90625 49.265625 50.4375 45.09375 
Q 46.96875 40.921875 40.578125 39.3125 
z
" id="DejaVuSans-51"/>
       </defs>
       <use xlink:href="#DejaVuSans-51"/>
       <use x="63.623047" xlink:href="#DejaVuSans-48"/>
       <use x="127.246094" xlink:href="#DejaVuSans-48"/>
      </g>
     </g>
    </g>
    <g id="xtick_5">
     <g id="line2d_5">
      <g>
       <use style="stroke:#000000;stroke-width:0.8;" x="290.63042" xlink:href="#m7540f348c6" y="307.584"/>
      </g>
     </g>
     <g id="text_5">
      <!-- 400 -->
      <g transform="translate(281.08667 322.182437)scale(0.1 -0.1)">
       <defs>
        <path d="M 37.796875 64.3125 
L 12.890625 25.390625 
L 37.796875 25.390625 
z
M 35.203125 72.90625 
L 47.609375 72.90625 
L 47.609375 25.390625 
L 58.015625 25.390625 
L 58.015625 17.1875 
L 47.609375 17.1875 
L 47.609375 0 
L 37.796875 0 
L 37.796875 17.1875 
L 4.890625 17.1875 
L 4.890625 26.703125 
z
" id="DejaVuSans-52"/>
       </defs>
       <use xlink:href="#DejaVuSans-52"/>
       <use x="63.623047" xlink:href="#DejaVuSans-48"/>
       <use x="127.246094" xlink:href="#DejaVuSans-48"/>
      </g>
     </g>
    </g>
    <g id="xtick_6">
     <g id="line2d_6">
      <g>
       <use style="stroke:#000000;stroke-width:0.8;" x="344.829844" xlink:href="#m7540f348c6" y="307.584"/>
      </g>
     </g>
     <g id="text_6">
      <!-- 500 -->
      <g transform="translate(335.286094 322.182437)scale(0.1 -0.1)">
       <defs>
        <path d="M 10.796875 72.90625 
L 49.515625 72.90625 
L 49.515625 64.59375 
L 19.828125 64.59375 
L 19.828125 46.734375 
Q 21.96875 47.46875 24.109375 47.828125 
Q 26.265625 48.1875 28.421875 48.1875 
Q 40.625 48.1875 47.75 41.5 
Q 54.890625 34.8125 54.890625 23.390625 
Q 54.890625 11.625 47.5625 5.09375 
Q 40.234375 -1.421875 26.90625 -1.421875 
Q 22.3125 -1.421875 17.546875 -0.640625 
Q 12.796875 0.140625 7.71875 1.703125 
L 7.71875 11.625 
Q 12.109375 9.234375 16.796875 8.0625 
Q 21.484375 6.890625 26.703125 6.890625 
Q 35.15625 6.890625 40.078125 11.328125 
Q 45.015625 15.765625 45.015625 23.390625 
Q 45.015625 31 40.078125 35.4375 
Q 35.15625 39.890625 26.703125 39.890625 
Q 22.75 39.890625 18.8125 39.015625 
Q 14.890625 38.140625 10.796875 36.28125 
z
" id="DejaVuSans-53"/>
       </defs>
       <use xlink:href="#DejaVuSans-53"/>
       <use x="63.623047" xlink:href="#DejaVuSans-48"/>
       <use x="127.246094" xlink:href="#DejaVuSans-48"/>
      </g>
     </g>
    </g>
    <g id="xtick_7">
     <g id="line2d_7">
      <g>
       <use style="stroke:#000000;stroke-width:0.8;" x="399.029267" xlink:href="#m7540f348c6" y="307.584"/>
      </g>
     </g>
     <g id="text_7">
      <!-- 600 -->
      <g transform="translate(389.485517 322.182437)scale(0.1 -0.1)">
       <defs>
        <path d="M 33.015625 40.375 
Q 26.375 40.375 22.484375 35.828125 
Q 18.609375 31.296875 18.609375 23.390625 
Q 18.609375 15.53125 22.484375 10.953125 
Q 26.375 6.390625 33.015625 6.390625 
Q 39.65625 6.390625 43.53125 10.953125 
Q 47.40625 15.53125 47.40625 23.390625 
Q 47.40625 31.296875 43.53125 35.828125 
Q 39.65625 40.375 33.015625 40.375 
z
M 52.59375 71.296875 
L 52.59375 62.3125 
Q 48.875 64.0625 45.09375 64.984375 
Q 41.3125 65.921875 37.59375 65.921875 
Q 27.828125 65.921875 22.671875 59.328125 
Q 17.53125 52.734375 16.796875 39.40625 
Q 19.671875 43.65625 24.015625 45.921875 
Q 28.375 48.1875 33.59375 48.1875 
Q 44.578125 48.1875 50.953125 41.515625 
Q 57.328125 34.859375 57.328125 23.390625 
Q 57.328125 12.15625 50.6875 5.359375 
Q 44.046875 -1.421875 33.015625 -1.421875 
Q 20.359375 -1.421875 13.671875 8.265625 
Q 6.984375 17.96875 6.984375 36.375 
Q 6.984375 53.65625 15.1875 63.9375 
Q 23.390625 74.21875 37.203125 74.21875 
Q 40.921875 74.21875 44.703125 73.484375 
Q 48.484375 72.75 52.59375 71.296875 
z
" id="DejaVuSans-54"/>
       </defs>
       <use xlink:href="#DejaVuSans-54"/>
       <use x="63.623047" xlink:href="#DejaVuSans-48"/>
       <use x="127.246094" xlink:href="#DejaVuSans-48"/>
      </g>
     </g>
    </g>
    <g id="text_8">
     <!-- epoch -->
     <g transform="translate(220.931875 335.860562)scale(0.1 -0.1)">
      <defs>
       <path d="M 56.203125 29.59375 
L 56.203125 25.203125 
L 14.890625 25.203125 
Q 15.484375 15.921875 20.484375 11.0625 
Q 25.484375 6.203125 34.421875 6.203125 
Q 39.59375 6.203125 44.453125 7.46875 
Q 49.3125 8.734375 54.109375 11.28125 
L 54.109375 2.78125 
Q 49.265625 0.734375 44.1875 -0.34375 
Q 39.109375 -1.421875 33.890625 -1.421875 
Q 20.796875 -1.421875 13.15625 6.1875 
Q 5.515625 13.8125 5.515625 26.8125 
Q 5.515625 40.234375 12.765625 48.109375 
Q 20.015625 56 32.328125 56 
Q 43.359375 56 49.78125 48.890625 
Q 56.203125 41.796875 56.203125 29.59375 
z
M 47.21875 32.234375 
Q 47.125 39.59375 43.09375 43.984375 
Q 39.0625 48.390625 32.421875 48.390625 
Q 24.90625 48.390625 20.390625 44.140625 
Q 15.875 39.890625 15.1875 32.171875 
z
" id="DejaVuSans-101"/>
       <path d="M 18.109375 8.203125 
L 18.109375 -20.796875 
L 9.078125 -20.796875 
L 9.078125 54.6875 
L 18.109375 54.6875 
L 18.109375 46.390625 
Q 20.953125 51.265625 25.265625 53.625 
Q 29.59375 56 35.59375 56 
Q 45.5625 56 51.78125 48.09375 
Q 58.015625 40.1875 58.015625 27.296875 
Q 58.015625 14.40625 51.78125 6.484375 
Q 45.5625 -1.421875 35.59375 -1.421875 
Q 29.59375 -1.421875 25.265625 0.953125 
Q 20.953125 3.328125 18.109375 8.203125 
z
M 48.6875 27.296875 
Q 48.6875 37.203125 44.609375 42.84375 
Q 40.53125 48.484375 33.40625 48.484375 
Q 26.265625 48.484375 22.1875 42.84375 
Q 18.109375 37.203125 18.109375 27.296875 
Q 18.109375 17.390625 22.1875 11.75 
Q 26.265625 6.109375 33.40625 6.109375 
Q 40.53125 6.109375 44.609375 11.75 
Q 48.6875 17.390625 48.6875 27.296875 
z
" id="DejaVuSans-112"/>
       <path d="M 30.609375 48.390625 
Q 23.390625 48.390625 19.1875 42.75 
Q 14.984375 37.109375 14.984375 27.296875 
Q 14.984375 17.484375 19.15625 11.84375 
Q 23.34375 6.203125 30.609375 6.203125 
Q 37.796875 6.203125 41.984375 11.859375 
Q 46.1875 17.53125 46.1875 27.296875 
Q 46.1875 37.015625 41.984375 42.703125 
Q 37.796875 48.390625 30.609375 48.390625 
z
M 30.609375 56 
Q 42.328125 56 49.015625 48.375 
Q 55.71875 40.765625 55.71875 27.296875 
Q 55.71875 13.875 49.015625 6.21875 
Q 42.328125 -1.421875 30.609375 -1.421875 
Q 18.84375 -1.421875 12.171875 6.21875 
Q 5.515625 13.875 5.515625 27.296875 
Q 5.515625 40.765625 12.171875 48.375 
Q 18.84375 56 30.609375 56 
z
" id="DejaVuSans-111"/>
       <path d="M 48.78125 52.59375 
L 48.78125 44.1875 
Q 44.96875 46.296875 41.140625 47.34375 
Q 37.3125 48.390625 33.40625 48.390625 
Q 24.65625 48.390625 19.8125 42.84375 
Q 14.984375 37.3125 14.984375 27.296875 
Q 14.984375 17.28125 19.8125 11.734375 
Q 24.65625 6.203125 33.40625 6.203125 
Q 37.3125 6.203125 41.140625 7.25 
Q 44.96875 8.296875 48.78125 10.40625 
L 48.78125 2.09375 
Q 45.015625 0.34375 40.984375 -0.53125 
Q 36.96875 -1.421875 32.421875 -1.421875 
Q 20.0625 -1.421875 12.78125 6.34375 
Q 5.515625 14.109375 5.515625 27.296875 
Q 5.515625 40.671875 12.859375 48.328125 
Q 20.21875 56 33.015625 56 
Q 37.15625 56 41.109375 55.140625 
Q 45.0625 54.296875 48.78125 52.59375 
z
" id="DejaVuSans-99"/>
       <path d="M 54.890625 33.015625 
L 54.890625 0 
L 45.90625 0 
L 45.90625 32.71875 
Q 45.90625 40.484375 42.875 44.328125 
Q 39.84375 48.1875 33.796875 48.1875 
Q 26.515625 48.1875 22.3125 43.546875 
Q 18.109375 38.921875 18.109375 30.90625 
L 18.109375 0 
L 9.078125 0 
L 9.078125 75.984375 
L 18.109375 75.984375 
L 18.109375 46.1875 
Q 21.34375 51.125 25.703125 53.5625 
Q 30.078125 56 35.796875 56 
Q 45.21875 56 50.046875 50.171875 
Q 54.890625 44.34375 54.890625 33.015625 
z
" id="DejaVuSans-104"/>
      </defs>
      <use xlink:href="#DejaVuSans-101"/>
      <use x="61.523438" xlink:href="#DejaVuSans-112"/>
      <use x="125" xlink:href="#DejaVuSans-111"/>
      <use x="186.181641" xlink:href="#DejaVuSans-99"/>
      <use x="241.162109" xlink:href="#DejaVuSans-104"/>
     </g>
    </g>
   </g>
   <g id="matplotlib.axis_2">
    <g id="ytick_1">
     <g id="line2d_8">
      <defs>
       <path d="M 0 0 
L -3.5 0 
" id="m39b002f7f5" style="stroke:#000000;stroke-width:0.8;"/>
      </defs>
      <g>
       <use style="stroke:#000000;stroke-width:0.8;" x="57.6" xlink:href="#m39b002f7f5" y="291.321335"/>
      </g>
     </g>
     <g id="text_9">
      <!-- 0.68 -->
      <g transform="translate(28.334375 295.120554)scale(0.1 -0.1)">
       <defs>
        <path d="M 10.6875 12.40625 
L 21 12.40625 
L 21 0 
L 10.6875 0 
z
" id="DejaVuSans-46"/>
        <path d="M 31.78125 34.625 
Q 24.75 34.625 20.71875 30.859375 
Q 16.703125 27.09375 16.703125 20.515625 
Q 16.703125 13.921875 20.71875 10.15625 
Q 24.75 6.390625 31.78125 6.390625 
Q 38.8125 6.390625 42.859375 10.171875 
Q 46.921875 13.96875 46.921875 20.515625 
Q 46.921875 27.09375 42.890625 30.859375 
Q 38.875 34.625 31.78125 34.625 
z
M 21.921875 38.8125 
Q 15.578125 40.375 12.03125 44.71875 
Q 8.5 49.078125 8.5 55.328125 
Q 8.5 64.0625 14.71875 69.140625 
Q 20.953125 74.21875 31.78125 74.21875 
Q 42.671875 74.21875 48.875 69.140625 
Q 55.078125 64.0625 55.078125 55.328125 
Q 55.078125 49.078125 51.53125 44.71875 
Q 48 40.375 41.703125 38.8125 
Q 48.828125 37.15625 52.796875 32.3125 
Q 56.78125 27.484375 56.78125 20.515625 
Q 56.78125 9.90625 50.3125 4.234375 
Q 43.84375 -1.421875 31.78125 -1.421875 
Q 19.734375 -1.421875 13.25 4.234375 
Q 6.78125 9.90625 6.78125 20.515625 
Q 6.78125 27.484375 10.78125 32.3125 
Q 14.796875 37.15625 21.921875 38.8125 
z
M 18.3125 54.390625 
Q 18.3125 48.734375 21.84375 45.5625 
Q 25.390625 42.390625 31.78125 42.390625 
Q 38.140625 42.390625 41.71875 45.5625 
Q 45.3125 48.734375 45.3125 54.390625 
Q 45.3125 60.0625 41.71875 63.234375 
Q 38.140625 66.40625 31.78125 66.40625 
Q 25.390625 66.40625 21.84375 63.234375 
Q 18.3125 60.0625 18.3125 54.390625 
z
" id="DejaVuSans-56"/>
       </defs>
       <use xlink:href="#DejaVuSans-48"/>
       <use x="63.623047" xlink:href="#DejaVuSans-46"/>
       <use x="95.410156" xlink:href="#DejaVuSans-54"/>
       <use x="159.033203" xlink:href="#DejaVuSans-56"/>
      </g>
     </g>
    </g>
    <g id="ytick_2">
     <g id="line2d_9">
      <g>
       <use style="stroke:#000000;stroke-width:0.8;" x="57.6" xlink:href="#m39b002f7f5" y="260.89469"/>
      </g>
     </g>
     <g id="text_10">
      <!-- 0.70 -->
      <g transform="translate(28.334375 264.693909)scale(0.1 -0.1)">
       <defs>
        <path d="M 8.203125 72.90625 
L 55.078125 72.90625 
L 55.078125 68.703125 
L 28.609375 0 
L 18.3125 0 
L 43.21875 64.59375 
L 8.203125 64.59375 
z
" id="DejaVuSans-55"/>
       </defs>
       <use xlink:href="#DejaVuSans-48"/>
       <use x="63.623047" xlink:href="#DejaVuSans-46"/>
       <use x="95.410156" xlink:href="#DejaVuSans-55"/>
       <use x="159.033203" xlink:href="#DejaVuSans-48"/>
      </g>
     </g>
    </g>
    <g id="ytick_3">
     <g id="line2d_10">
      <g>
       <use style="stroke:#000000;stroke-width:0.8;" x="57.6" xlink:href="#m39b002f7f5" y="230.468045"/>
      </g>
     </g>
     <g id="text_11">
      <!-- 0.72 -->
      <g transform="translate(28.334375 234.267263)scale(0.1 -0.1)">
       <use xlink:href="#DejaVuSans-48"/>
       <use x="63.623047" xlink:href="#DejaVuSans-46"/>
       <use x="95.410156" xlink:href="#DejaVuSans-55"/>
       <use x="159.033203" xlink:href="#DejaVuSans-50"/>
      </g>
     </g>
    </g>
    <g id="ytick_4">
     <g id="line2d_11">
      <g>
       <use style="stroke:#000000;stroke-width:0.8;" x="57.6" xlink:href="#m39b002f7f5" y="200.041399"/>
      </g>
     </g>
     <g id="text_12">
      <!-- 0.74 -->
      <g transform="translate(28.334375 203.840618)scale(0.1 -0.1)">
       <use xlink:href="#DejaVuSans-48"/>
       <use x="63.623047" xlink:href="#DejaVuSans-46"/>
       <use x="95.410156" xlink:href="#DejaVuSans-55"/>
       <use x="159.033203" xlink:href="#DejaVuSans-52"/>
      </g>
     </g>
    </g>
    <g id="ytick_5">
     <g id="line2d_12">
      <g>
       <use style="stroke:#000000;stroke-width:0.8;" x="57.6" xlink:href="#m39b002f7f5" y="169.614754"/>
      </g>
     </g>
     <g id="text_13">
      <!-- 0.76 -->
      <g transform="translate(28.334375 173.413973)scale(0.1 -0.1)">
       <use xlink:href="#DejaVuSans-48"/>
       <use x="63.623047" xlink:href="#DejaVuSans-46"/>
       <use x="95.410156" xlink:href="#DejaVuSans-55"/>
       <use x="159.033203" xlink:href="#DejaVuSans-54"/>
      </g>
     </g>
    </g>
    <g id="ytick_6">
     <g id="line2d_13">
      <g>
       <use style="stroke:#000000;stroke-width:0.8;" x="57.6" xlink:href="#m39b002f7f5" y="139.188109"/>
      </g>
     </g>
     <g id="text_14">
      <!-- 0.78 -->
      <g transform="translate(28.334375 142.987327)scale(0.1 -0.1)">
       <use xlink:href="#DejaVuSans-48"/>
       <use x="63.623047" xlink:href="#DejaVuSans-46"/>
       <use x="95.410156" xlink:href="#DejaVuSans-55"/>
       <use x="159.033203" xlink:href="#DejaVuSans-56"/>
      </g>
     </g>
    </g>
    <g id="ytick_7">
     <g id="line2d_14">
      <g>
       <use style="stroke:#000000;stroke-width:0.8;" x="57.6" xlink:href="#m39b002f7f5" y="108.761463"/>
      </g>
     </g>
     <g id="text_15">
      <!-- 0.80 -->
      <g transform="translate(28.334375 112.560682)scale(0.1 -0.1)">
       <use xlink:href="#DejaVuSans-48"/>
       <use x="63.623047" xlink:href="#DejaVuSans-46"/>
       <use x="95.410156" xlink:href="#DejaVuSans-56"/>
       <use x="159.033203" xlink:href="#DejaVuSans-48"/>
      </g>
     </g>
    </g>
    <g id="ytick_8">
     <g id="line2d_15">
      <g>
       <use style="stroke:#000000;stroke-width:0.8;" x="57.6" xlink:href="#m39b002f7f5" y="78.334818"/>
      </g>
     </g>
     <g id="text_16">
      <!-- 0.82 -->
      <g transform="translate(28.334375 82.134037)scale(0.1 -0.1)">
       <use xlink:href="#DejaVuSans-48"/>
       <use x="63.623047" xlink:href="#DejaVuSans-46"/>
       <use x="95.410156" xlink:href="#DejaVuSans-56"/>
       <use x="159.033203" xlink:href="#DejaVuSans-50"/>
      </g>
     </g>
    </g>
    <g id="ytick_9">
     <g id="line2d_16">
      <g>
       <use style="stroke:#000000;stroke-width:0.8;" x="57.6" xlink:href="#m39b002f7f5" y="47.908173"/>
      </g>
     </g>
     <g id="text_17">
      <!-- 0.84 -->
      <g transform="translate(28.334375 51.707392)scale(0.1 -0.1)">
       <use xlink:href="#DejaVuSans-48"/>
       <use x="63.623047" xlink:href="#DejaVuSans-46"/>
       <use x="95.410156" xlink:href="#DejaVuSans-56"/>
       <use x="159.033203" xlink:href="#DejaVuSans-52"/>
      </g>
     </g>
    </g>
    <g id="text_18">
     <!-- accuracy -->
     <g transform="translate(22.254687 197.087375)rotate(-90)scale(0.1 -0.1)">
      <defs>
       <path d="M 34.28125 27.484375 
Q 23.390625 27.484375 19.1875 25 
Q 14.984375 22.515625 14.984375 16.5 
Q 14.984375 11.71875 18.140625 8.90625 
Q 21.296875 6.109375 26.703125 6.109375 
Q 34.1875 6.109375 38.703125 11.40625 
Q 43.21875 16.703125 43.21875 25.484375 
L 43.21875 27.484375 
z
M 52.203125 31.203125 
L 52.203125 0 
L 43.21875 0 
L 43.21875 8.296875 
Q 40.140625 3.328125 35.546875 0.953125 
Q 30.953125 -1.421875 24.3125 -1.421875 
Q 15.921875 -1.421875 10.953125 3.296875 
Q 6 8.015625 6 15.921875 
Q 6 25.140625 12.171875 29.828125 
Q 18.359375 34.515625 30.609375 34.515625 
L 43.21875 34.515625 
L 43.21875 35.40625 
Q 43.21875 41.609375 39.140625 45 
Q 35.0625 48.390625 27.6875 48.390625 
Q 23 48.390625 18.546875 47.265625 
Q 14.109375 46.140625 10.015625 43.890625 
L 10.015625 52.203125 
Q 14.9375 54.109375 19.578125 55.046875 
Q 24.21875 56 28.609375 56 
Q 40.484375 56 46.34375 49.84375 
Q 52.203125 43.703125 52.203125 31.203125 
z
" id="DejaVuSans-97"/>
       <path d="M 8.5 21.578125 
L 8.5 54.6875 
L 17.484375 54.6875 
L 17.484375 21.921875 
Q 17.484375 14.15625 20.5 10.265625 
Q 23.53125 6.390625 29.59375 6.390625 
Q 36.859375 6.390625 41.078125 11.03125 
Q 45.3125 15.671875 45.3125 23.6875 
L 45.3125 54.6875 
L 54.296875 54.6875 
L 54.296875 0 
L 45.3125 0 
L 45.3125 8.40625 
Q 42.046875 3.421875 37.71875 1 
Q 33.40625 -1.421875 27.6875 -1.421875 
Q 18.265625 -1.421875 13.375 4.4375 
Q 8.5 10.296875 8.5 21.578125 
z
M 31.109375 56 
z
" id="DejaVuSans-117"/>
       <path d="M 41.109375 46.296875 
Q 39.59375 47.171875 37.8125 47.578125 
Q 36.03125 48 33.890625 48 
Q 26.265625 48 22.1875 43.046875 
Q 18.109375 38.09375 18.109375 28.8125 
L 18.109375 0 
L 9.078125 0 
L 9.078125 54.6875 
L 18.109375 54.6875 
L 18.109375 46.1875 
Q 20.953125 51.171875 25.484375 53.578125 
Q 30.03125 56 36.53125 56 
Q 37.453125 56 38.578125 55.875 
Q 39.703125 55.765625 41.0625 55.515625 
z
" id="DejaVuSans-114"/>
       <path d="M 32.171875 -5.078125 
Q 28.375 -14.84375 24.75 -17.8125 
Q 21.140625 -20.796875 15.09375 -20.796875 
L 7.90625 -20.796875 
L 7.90625 -13.28125 
L 13.1875 -13.28125 
Q 16.890625 -13.28125 18.9375 -11.515625 
Q 21 -9.765625 23.484375 -3.21875 
L 25.09375 0.875 
L 2.984375 54.6875 
L 12.5 54.6875 
L 29.59375 11.921875 
L 46.6875 54.6875 
L 56.203125 54.6875 
z
" id="DejaVuSans-121"/>
      </defs>
      <use xlink:href="#DejaVuSans-97"/>
      <use x="61.279297" xlink:href="#DejaVuSans-99"/>
      <use x="116.259766" xlink:href="#DejaVuSans-99"/>
      <use x="171.240234" xlink:href="#DejaVuSans-117"/>
      <use x="234.619141" xlink:href="#DejaVuSans-114"/>
      <use x="275.732422" xlink:href="#DejaVuSans-97"/>
      <use x="337.011719" xlink:href="#DejaVuSans-99"/>
      <use x="391.992188" xlink:href="#DejaVuSans-121"/>
     </g>
    </g>
   </g>
   <g id="line2d_17">
    <path clip-path="url(#pea5830c9c4)" d="M 73.832727 295.488 
L 74.374722 269.793984 
L 76.000704 234.667502 
L 76.542698 226.335148 
L 77.084693 227.309942 
L 77.626687 220.435607 
L 78.168681 217.264128 
L 78.710675 216.620583 
L 79.794664 210.261755 
L 80.336658 207.137791 
L 80.878652 201.824305 
L 81.420647 203.594621 
L 81.962641 200.400834 
L 83.046629 195.756736 
L 83.588623 197.707049 
L 84.130618 193.952416 
L 84.672612 194.368086 
L 85.214606 192.467284 
L 85.7566 191.219639 
L 86.298595 186.9242 
L 86.840589 186.192788 
L 87.382583 187.377411 
L 87.924577 184.137288 
L 88.466572 178.717164 
L 89.008566 178.586043 
L 89.55056 178.327428 
L 90.092554 175.464981 
L 90.634548 176.648879 
L 91.176543 173.09655 
L 91.718537 173.762674 
L 92.260531 172.91084 
L 92.802525 168.342096 
L 93.34452 170.695112 
L 93.886514 168.977118 
L 94.428508 165.357868 
L 94.970502 164.94247 
L 95.512497 164.297474 
L 96.054491 162.165895 
L 96.596485 162.45661 
L 97.138479 159.45615 
L 97.680474 159.710503 
L 98.222468 159.269443 
L 98.764462 156.38215 
L 99.306456 157.25883 
L 99.84845 155.599414 
L 100.390445 152.922948 
L 100.932439 151.946522 
L 102.016427 149.524591 
L 102.558422 147.759262 
L 103.100416 148.065484 
L 103.64241 147.907159 
L 104.184404 144.664134 
L 104.726399 146.880225 
L 105.268393 141.428182 
L 105.810387 141.263057 
L 106.352381 142.979782 
L 106.894375 140.210008 
L 107.43637 138.976055 
L 107.978364 139.388914 
L 108.520358 136.103361 
L 109.062352 136.040431 
L 109.604347 134.52211 
L 110.146341 134.662208 
L 110.688335 133.655133 
L 111.230329 131.555292 
L 111.772324 130.607611 
L 112.314318 131.226673 
L 112.856312 129.80556 
L 113.398306 129.042048 
L 113.940301 127.857424 
L 114.482295 128.104432 
L 115.024289 126.795398 
L 115.566283 126.131269 
L 116.108277 125.065434 
L 116.650272 122.942832 
L 117.192266 123.469584 
L 117.73426 122.749415 
L 118.276254 121.514284 
L 118.818249 120.953256 
L 119.360243 119.825397 
L 119.902237 117.566959 
L 120.444231 120.114662 
L 120.986226 118.831924 
L 121.52822 118.092532 
L 122.070214 118.043112 
L 122.612208 117.551997 
L 123.154202 117.23018 
L 123.696197 115.141038 
L 124.238191 114.933566 
L 124.780185 113.212398 
L 125.864174 111.299717 
L 126.406168 112.176487 
L 126.948162 113.749214 
L 127.490156 111.601858 
L 128.032151 111.009999 
L 128.574145 109.264983 
L 129.116139 110.195344 
L 129.658133 108.302612 
L 130.200127 107.213201 
L 130.742122 108.157164 
L 131.284116 107.184365 
L 131.82611 108.23678 
L 132.368104 108.017791 
L 133.452093 105.744663 
L 134.536081 103.688438 
L 135.078076 104.598941 
L 135.62007 106.52069 
L 136.162064 103.554778 
L 136.704058 102.927918 
L 137.246053 102.916946 
L 137.788047 101.488035 
L 138.330041 102.733775 
L 138.872035 101.962827 
L 139.414029 102.322276 
L 139.956024 101.87233 
L 140.498018 100.722708 
L 141.040012 99.8823 
L 141.582006 103.06312 
L 142.124001 99.764509 
L 142.665995 100.228783 
L 143.207989 99.248458 
L 143.749983 99.68317 
L 144.291978 97.787809 
L 144.833972 97.62758 
L 145.375966 96.901336 
L 145.91796 98.743923 
L 146.459954 97.5982 
L 147.001949 97.4017 
L 147.543943 95.182798 
L 148.085937 97.449125 
L 148.627931 95.301496 
L 149.169926 93.882106 
L 149.71192 96.751807 
L 150.253914 95.494369 
L 150.795908 95.91276 
L 151.337903 98.959828 
L 151.879897 93.347466 
L 152.421891 93.987112 
L 152.963885 97.30413 
L 153.505879 94.277827 
L 154.047874 93.297683 
L 154.589868 94.003252 
L 155.131862 91.545775 
L 155.673856 91.605442 
L 156.215851 92.741552 
L 156.757845 91.232662 
L 157.299839 92.131286 
L 157.841833 91.611426 
L 158.383828 93.543059 
L 158.925822 91.316631 
L 159.467816 91.474774 
L 160.00981 90.419095 
L 160.551805 91.170548 
L 161.093799 89.478306 
L 161.635793 89.076963 
L 162.177787 90.63228 
L 162.719781 90.134818 
L 163.261776 88.41628 
L 163.80377 88.082311 
L 164.345764 88.529356 
L 164.887758 88.445297 
L 165.429753 89.142977 
L 165.971747 88.046402 
L 166.513741 87.527994 
L 167.055735 88.035974 
L 167.59773 87.730297 
L 168.139724 86.160562 
L 168.681718 85.651947 
L 169.223712 88.939585 
L 169.765706 87.06245 
L 170.307701 86.868761 
L 170.849695 85.296578 
L 171.391689 88.695842 
L 171.933683 85.630002 
L 172.475678 85.105972 
L 173.017672 83.993256 
L 173.559666 83.604518 
L 174.10166 87.389437 
L 174.643655 83.160646 
L 175.185649 84.303104 
L 175.727643 84.08593 
L 176.269637 84.188396 
L 176.811632 83.489537 
L 177.353626 83.04222 
L 177.89562 84.480744 
L 178.437614 83.534967 
L 178.979608 84.403758 
L 179.521603 83.602704 
L 180.063597 81.46641 
L 180.605591 83.444923 
L 181.68958 80.991527 
L 182.231574 82.668262 
L 182.773568 82.079668 
L 183.315562 81.13498 
L 183.857557 80.825404 
L 184.399551 81.424063 
L 184.941545 80.163632 
L 185.483539 79.973208 
L 186.025533 80.001499 
L 186.567528 81.162093 
L 187.109522 83.299022 
L 187.651516 81.35823 
L 188.19351 81.056815 
L 188.735505 79.494697 
L 189.277499 81.251774 
L 189.819493 77.758386 
L 190.361487 78.484086 
L 190.903482 78.302275 
L 191.445476 77.725742 
L 191.98747 78.02217 
L 192.529464 80.038677 
L 193.071458 77.846616 
L 193.613453 79.173242 
L 194.155447 78.787315 
L 194.697441 78.569777 
L 195.239435 78.676052 
L 195.78143 76.527244 
L 196.323424 79.604962 
L 196.865418 78.127266 
L 197.949407 76.130617 
L 198.491401 75.803358 
L 199.033395 78.614663 
L 199.575389 76.845435 
L 200.117384 75.638777 
L 200.659378 76.291934 
L 201.201372 74.819406 
L 201.743366 80.660822 
L 202.28536 78.256664 
L 202.827355 75.294108 
L 203.369349 74.902468 
L 203.911343 74.889138 
L 204.453337 76.53332 
L 204.995332 75.362298 
L 205.537326 75.664711 
L 206.07932 74.996501 
L 206.621314 76.109126 
L 207.163309 74.539754 
L 207.705303 75.3331 
L 208.247297 74.919787 
L 208.789291 77.586188 
L 209.331285 72.671596 
L 209.87328 72.958412 
L 210.415274 75.3399 
L 210.957268 71.970017 
L 211.499262 74.508379 
L 212.041257 75.048641 
L 212.583251 73.480357 
L 213.667239 74.565234 
L 214.209234 72.870726 
L 214.751228 74.995322 
L 215.293222 75.622999 
L 215.835216 72.81777 
L 216.377211 72.435922 
L 216.919205 73.910989 
L 217.461199 71.455053 
L 218.003193 73.219838 
L 218.545187 76.120642 
L 219.087182 72.572031 
L 219.629176 71.031132 
L 220.17117 72.456597 
L 220.713164 72.933475 
L 221.255159 71.952334 
L 221.797153 71.314683 
L 222.881141 71.823389 
L 223.423136 71.941362 
L 223.96513 71.419508 
L 224.507124 72.186738 
L 225.049118 72.040564 
L 225.591112 74.516903 
L 226.133107 71.013903 
L 226.675101 71.51744 
L 227.217095 72.531588 
L 227.759089 69.960763 
L 228.301084 69.317581 
L 228.843078 71.139674 
L 229.385072 71.022789 
L 229.927066 69.631328 
L 230.469061 71.333816 
L 231.011055 70.123803 
L 231.553049 73.044284 
L 232.095043 73.002391 
L 232.637037 72.314504 
L 233.179032 68.909165 
L 234.26302 69.305611 
L 234.805014 67.949787 
L 235.347009 69.135589 
L 235.889003 69.746308 
L 236.430997 69.63423 
L 236.972991 69.29745 
L 237.514986 68.7629 
L 238.05698 68.833902 
L 239.140968 70.116367 
L 239.682963 67.785749 
L 240.224957 68.840793 
L 240.766951 70.823115 
L 241.308945 69.793552 
L 241.850939 70.473278 
L 242.392934 68.004647 
L 242.934928 66.682918 
L 243.476922 66.978892 
L 244.018916 67.613007 
L 244.560911 67.054246 
L 245.102905 67.006368 
L 245.644899 67.901818 
L 246.728888 67.639938 
L 247.270882 76.488706 
L 247.812876 70.247398 
L 248.896864 66.974358 
L 249.438859 66.653266 
L 249.980853 66.168499 
L 250.522847 65.340695 
L 251.064841 65.554968 
L 251.606836 66.915689 
L 252.14883 66.046899 
L 252.690824 65.508994 
L 253.232818 67.03611 
L 253.774813 65.43092 
L 254.316807 66.411517 
L 254.858801 68.796905 
L 255.400795 73.338083 
L 255.942789 66.782573 
L 256.484784 67.172128 
L 257.026778 65.776768 
L 257.568772 65.423031 
L 258.110766 64.860008 
L 258.652761 64.948783 
L 259.194755 64.428651 
L 259.736749 68.264169 
L 260.278743 67.688542 
L 260.820738 64.279848 
L 261.362732 63.666589 
L 261.904726 64.881409 
L 262.44672 65.381954 
L 262.988715 65.150542 
L 263.530709 67.992405 
L 264.072703 66.209757 
L 265.156691 64.520146 
L 265.698686 66.926208 
L 266.24068 64.249017 
L 266.782674 63.459026 
L 267.324668 64.147548 
L 267.866663 63.899723 
L 268.408657 64.736958 
L 268.950651 65.145374 
L 269.492645 65.384674 
L 270.03464 65.783206 
L 270.576634 63.826818 
L 271.118628 63.73759 
L 271.660622 64.840513 
L 272.202616 65.325008 
L 272.744611 64.69987 
L 273.286605 65.750834 
L 273.828599 64.061947 
L 274.370593 66.201868 
L 274.912588 63.124876 
L 275.454582 63.367622 
L 275.996576 66.70323 
L 276.53857 63.969092 
L 277.080565 62.071827 
L 277.622559 64.705583 
L 278.164553 64.93645 
L 278.706547 63.291906 
L 279.248542 63.580354 
L 279.790536 64.313399 
L 280.33253 62.338422 
L 280.874524 63.482875 
L 281.416518 64.899454 
L 281.958513 64.067207 
L 282.500507 64.38975 
L 283.584495 61.172024 
L 284.12649 63.549886 
L 284.668484 64.944702 
L 285.210478 61.879407 
L 285.752472 61.134211 
L 286.294467 64.020598 
L 286.836461 63.983964 
L 287.378455 63.78429 
L 288.462443 60.801966 
L 289.004438 63.906524 
L 289.546432 63.817206 
L 290.088426 61.130222 
L 290.63042 61.343316 
L 291.172415 62.620885 
L 291.714409 62.638023 
L 292.256403 63.274495 
L 292.798397 64.461567 
L 293.340392 61.273312 
L 293.882386 62.755089 
L 294.42438 63.655164 
L 294.966374 62.869797 
L 295.508368 61.387748 
L 296.050363 60.864534 
L 296.592357 62.449775 
L 297.134351 61.638293 
L 297.676345 62.724803 
L 298.760334 61.21827 
L 299.302328 61.680187 
L 299.844322 61.953491 
L 300.386317 63.340056 
L 300.928311 61.891014 
L 301.470305 63.505544 
L 302.012299 62.6042 
L 302.554294 60.026302 
L 303.096288 62.212197 
L 303.638282 60.942336 
L 304.180276 62.220902 
L 304.72227 63.10003 
L 305.264265 60.614533 
L 305.806259 60.54997 
L 306.348253 61.701224 
L 306.890247 61.189525 
L 307.432242 61.329805 
L 307.974236 59.875504 
L 308.51623 61.863085 
L 309.058224 61.090958 
L 309.600219 62.737225 
L 310.142213 59.700948 
L 310.684207 60.118431 
L 311.226201 59.295615 
L 311.768195 59.908783 
L 312.31019 64.754821 
L 312.852184 59.707295 
L 313.394178 60.775487 
L 313.936172 60.828897 
L 314.478167 58.211735 
L 315.020161 61.072278 
L 315.562155 63.005271 
L 316.104149 58.408961 
L 316.646144 59.842315 
L 317.730132 62.119342 
L 318.272126 60.949137 
L 318.814121 58.616796 
L 319.356115 61.118887 
L 319.898109 61.016874 
L 320.440103 58.797427 
L 321.524092 61.343407 
L 322.066086 59.178005 
L 322.60808 59.368067 
L 323.150074 58.142185 
L 323.692069 61.069467 
L 324.234063 60.38956 
L 325.318051 58.429454 
L 325.860046 57.434258 
L 326.40204 61.020954 
L 326.944034 61.248648 
L 327.486028 60.513517 
L 328.028022 58.734406 
L 328.570017 59.054138 
L 329.112011 59.509525 
L 329.654005 60.940069 
L 330.195999 61.058404 
L 330.737994 58.26986 
L 331.279988 58.837144 
L 331.821982 58.831704 
L 332.363976 59.968902 
L 332.905971 58.715182 
L 333.447965 61.428735 
L 333.989959 60.567834 
L 334.531953 58.738577 
L 335.073947 58.243835 
L 335.615942 57.39445 
L 336.157936 58.568192 
L 336.69993 57.503536 
L 337.241924 60.623148 
L 337.783919 59.244654 
L 338.325913 56.994195 
L 338.867907 58.214455 
L 339.409901 58.13085 
L 339.951896 61.123149 
L 340.49389 57.411407 
L 341.035884 56.557488 
L 342.119873 60.887929 
L 342.661867 58.146991 
L 343.203861 57.848568 
L 343.745855 57.890643 
L 344.287849 59.815112 
L 344.829844 58.309124 
L 345.371838 57.166122 
L 345.913832 57.612713 
L 346.455826 57.731411 
L 346.997821 58.324811 
L 347.539815 58.519226 
L 348.081809 57.808851 
L 348.623803 59.397628 
L 349.165798 58.90198 
L 349.707792 58.149983 
L 350.249786 55.831425 
L 350.79178 58.17229 
L 351.333774 57.047514 
L 351.875769 57.325625 
L 352.417763 57.906783 
L 352.959757 57.931357 
L 353.501751 56.595663 
L 354.043746 56.923829 
L 354.58574 58.120694 
L 355.127734 57.209919 
L 355.669728 57.005621 
L 356.211723 56.606001 
L 356.753717 56.499544 
L 357.295711 58.202486 
L 357.837705 57.470257 
L 358.379699 57.266412 
L 358.921694 56.852011 
L 360.005682 58.163857 
L 360.547676 58.100019 
L 361.089671 56.977057 
L 361.631665 56.471615 
L 362.173659 56.797786 
L 362.715653 55.811113 
L 363.257648 56.728235 
L 363.799642 60.064024 
L 364.341636 56.315286 
L 364.88363 58.003809 
L 365.425625 55.459734 
L 365.967619 55.232494 
L 366.509613 56.490204 
L 367.051607 58.192058 
L 368.135596 55.564287 
L 368.67759 56.800325 
L 369.219584 56.695954 
L 369.761578 56.287719 
L 370.303573 57.974883 
L 370.845567 55.274659 
L 371.387561 57.057126 
L 371.929555 54.827887 
L 372.47155 57.514871 
L 373.013544 57.137467 
L 373.555538 55.840947 
L 374.097532 57.469895 
L 374.639526 61.362721 
L 375.181521 55.446858 
L 375.723515 55.751719 
L 376.265509 56.400705 
L 376.807503 55.093303 
L 377.349498 56.086867 
L 377.891492 56.551684 
L 378.433486 54.898162 
L 378.97548 54.632021 
L 379.517475 56.533821 
L 380.059469 55.845571 
L 380.601463 55.883928 
L 381.143457 59.949225 
L 381.685452 55.863525 
L 382.227446 55.901429 
L 382.76944 56.145989 
L 383.311434 55.137735 
L 383.853428 54.509968 
L 384.395423 54.945587 
L 384.937417 56.64599 
L 385.479411 56.330429 
L 386.021405 54.721339 
L 386.5634 55.945771 
L 387.105394 56.829342 
L 387.647388 53.568 
L 388.189382 54.249267 
L 388.731377 54.151063 
L 389.273371 53.805487 
L 389.815365 57.24211 
L 390.357359 58.177459 
L 390.899353 54.694317 
L 391.441348 56.290077 
L 391.983342 54.77892 
L 392.525336 54.840944 
L 393.06733 55.388914 
L 393.609325 54.095477 
L 394.151319 56.21291 
L 394.693313 54.533998 
L 395.235307 53.997997 
L 395.777302 55.633293 
L 396.86129 55.384199 
L 397.403284 55.077978 
L 397.945278 55.856453 
L 398.487273 54.839403 
L 398.487273 54.839403 
" style="fill:none;stroke:#0000ff;stroke-linecap:square;stroke-width:1.5;"/>
   </g>
   <g id="line2d_18">
    <path clip-path="url(#pea5830c9c4)" d="M 73.832727 272.253546 
L 74.374722 283.398474 
L 74.916716 246.503128 
L 75.45871 230.44515 
L 76.000704 226.59458 
L 76.542698 212.850353 
L 77.084693 229.627412 
L 78.168681 202.412355 
L 78.710675 215.501157 
L 79.25267 204.066149 
L 79.794664 211.769829 
L 80.336658 193.790918 
L 80.878652 204.804725 
L 81.420647 211.743441 
L 81.962641 199.784311 
L 82.504635 184.580706 
L 83.046629 204.434213 
L 83.588623 201.00838 
L 84.130618 199.914435 
L 84.672612 197.650738 
L 85.214606 192.176116 
L 85.7566 195.864462 
L 86.298595 197.424948 
L 86.840589 184.509433 
L 87.924577 178.498538 
L 88.466572 179.7645 
L 89.008566 183.526206 
L 89.55056 182.747278 
L 90.634548 178.06573 
L 91.718537 182.268858 
L 92.260531 182.212003 
L 92.802525 182.553589 
L 93.34452 183.552231 
L 93.886514 183.933806 
L 94.428508 173.840022 
L 94.970502 182.678362 
L 95.512497 175.876661 
L 96.054491 182.563019 
L 96.596485 180.297871 
L 97.138479 193.593057 
L 97.680474 177.140628 
L 98.222468 177.347012 
L 98.764462 177.678895 
L 99.306456 183.18725 
L 99.84845 181.174641 
L 100.390445 184.520133 
L 100.932439 177.290157 
L 101.474433 178.288799 
L 102.016427 175.731122 
L 102.558422 174.102446 
L 103.100416 185.250729 
L 103.64241 179.564917 
L 104.184404 181.904784 
L 104.726399 180.215807 
L 105.268393 187.781112 
L 105.810387 180.680806 
L 106.352381 177.281996 
L 106.894375 179.13501 
L 107.43637 184.82989 
L 107.978364 180.179445 
L 108.520358 185.41531 
L 109.062352 180.217258 
L 109.604347 185.207747 
L 110.146341 180.47279 
L 110.688335 179.493734 
L 111.230329 178.076158 
L 111.772324 184.318373 
L 112.314318 177.885824 
L 112.856312 179.900881 
L 113.398306 180.908772 
L 113.940301 181.210006 
L 114.482295 185.11181 
L 115.024289 184.278565 
L 115.566283 182.0272 
L 116.108277 184.869607 
L 116.650272 187.082253 
L 117.192266 179.033541 
L 117.73426 183.537903 
L 118.276254 178.222876 
L 118.818249 181.691236 
L 119.360243 180.145894 
L 119.902237 183.348567 
L 120.444231 184.477242 
L 120.986226 187.960655 
L 121.52822 182.153606 
L 122.070214 179.201659 
L 122.612208 183.269586 
L 123.154202 183.037358 
L 123.696197 181.621323 
L 124.238191 182.733585 
L 124.780185 181.501718 
L 125.322179 182.397531 
L 125.864174 187.420211 
L 126.406168 185.021947 
L 126.948162 186.510344 
L 127.490156 185.413769 
L 128.032151 183.882663 
L 128.574145 186.460742 
L 129.116139 185.800785 
L 129.658133 182.987122 
L 130.200127 184.198133 
L 130.742122 183.742927 
L 131.284116 184.492022 
L 131.82611 184.463005 
L 132.368104 191.3173 
L 132.910099 183.547153 
L 133.452093 181.17319 
L 133.994087 185.995743 
L 134.536081 188.825093 
L 135.078076 183.121054 
L 135.62007 187.008985 
L 136.162064 186.294801 
L 136.704058 184.766869 
L 137.246053 183.838775 
L 137.788047 188.481603 
L 138.330041 184.660503 
L 138.872035 186.204576 
L 139.414029 190.012981 
L 139.956024 184.93943 
L 140.498018 189.004274 
L 141.040012 184.517866 
L 141.582006 186.85066 
L 142.124001 186.408784 
L 142.665995 189.092322 
L 143.207989 186.712013 
L 143.749983 190.108103 
L 144.291978 185.30704 
L 144.833972 187.604561 
L 145.375966 186.653888 
L 145.91796 196.138039 
L 146.459954 185.868612 
L 147.001949 187.618525 
L 147.543943 188.522499 
L 148.085937 187.01243 
L 148.627931 191.485871 
L 149.169926 187.222714 
L 150.253914 191.561769 
L 150.795908 187.354923 
L 151.337903 190.75065 
L 151.879897 187.540814 
L 152.421891 190.821379 
L 152.963885 191.60729 
L 153.505879 186.782379 
L 154.047874 189.989042 
L 154.589868 190.222357 
L 155.131862 188.525763 
L 155.673856 188.062124 
L 156.215851 193.211664 
L 156.757845 186.249824 
L 157.299839 191.457035 
L 157.841833 188.367167 
L 158.383828 187.756628 
L 158.925822 188.01071 
L 159.467816 189.956307 
L 160.00981 188.148722 
L 160.551805 189.729611 
L 161.093799 186.503452 
L 162.177787 190.221723 
L 162.719781 190.054149 
L 163.261776 189.066842 
L 163.80377 192.626788 
L 164.345764 185.415582 
L 165.429753 194.770608 
L 165.971747 189.240944 
L 166.513741 193.158164 
L 167.055735 192.563041 
L 167.59773 188.303329 
L 168.139724 190.074189 
L 168.681718 189.225982 
L 169.223712 186.157695 
L 169.765706 190.553878 
L 170.307701 189.454764 
L 170.849695 190.627418 
L 171.391689 190.045262 
L 171.933683 191.005094 
L 172.475678 190.04762 
L 173.017672 189.707213 
L 174.10166 193.1082 
L 174.643655 191.067934 
L 175.185649 192.736418 
L 175.727643 188.434631 
L 176.269637 192.747662 
L 176.811632 188.716823 
L 177.353626 189.73759 
L 177.89562 191.864726 
L 178.437614 190.452227 
L 178.979608 193.114729 
L 179.521603 191.450053 
L 180.063597 187.309856 
L 180.605591 189.592777 
L 181.147585 189.833347 
L 181.68958 189.43554 
L 182.231574 194.870445 
L 182.773568 187.170936 
L 183.315562 190.927745 
L 183.857557 192.461572 
L 184.399551 189.45014 
L 184.941545 188.763704 
L 185.483539 187.471989 
L 186.025533 191.691802 
L 186.567528 189.806053 
L 187.109522 192.346682 
L 187.651516 189.883401 
L 188.19351 188.907248 
L 189.277499 188.944244 
L 189.819493 191.74104 
L 190.361487 189.844772 
L 190.903482 190.308502 
L 191.445476 189.122881 
L 191.98747 190.9457 
L 192.529464 191.538283 
L 193.071458 186.730783 
L 193.613453 192.534568 
L 194.155447 187.193606 
L 194.697441 192.497934 
L 195.239435 190.199325 
L 195.78143 192.07374 
L 196.323424 192.818482 
L 196.865418 188.909333 
L 197.407412 189.564757 
L 198.491401 191.533115 
L 199.033395 192.085347 
L 199.575389 189.372156 
L 200.117384 191.038101 
L 200.659378 189.711656 
L 201.201372 193.8407 
L 201.743366 188.087877 
L 202.28536 190.24004 
L 202.827355 190.354839 
L 203.369349 188.828085 
L 203.911343 191.213201 
L 204.453337 187.506265 
L 205.537326 192.223903 
L 206.07932 192.7434 
L 206.621314 197.783128 
L 207.705303 190.737048 
L 208.247297 194.350948 
L 208.789291 190.736776 
L 209.331285 189.278485 
L 209.87328 190.369347 
L 210.415274 189.404528 
L 210.957268 186.240122 
L 211.499262 189.44887 
L 212.041257 191.480431 
L 212.583251 190.830266 
L 213.125245 186.677917 
L 213.667239 190.728434 
L 214.209234 193.037833 
L 214.751228 190.085433 
L 215.293222 188.451407 
L 215.835216 193.58544 
L 216.377211 194.732342 
L 216.919205 189.177832 
L 217.461199 191.166139 
L 218.003193 191.527221 
L 218.545187 188.858553 
L 219.087182 192.047262 
L 219.629176 191.136759 
L 220.17117 189.536556 
L 220.713164 189.349305 
L 221.255159 192.513258 
L 221.797153 187.907789 
L 222.339147 191.441801 
L 222.881141 188.753185 
L 223.423136 191.505367 
L 223.96513 192.68328 
L 224.507124 190.240765 
L 225.049118 191.573648 
L 225.591112 189.933819 
L 226.133107 190.745844 
L 226.675101 189.36327 
L 227.217095 188.500283 
L 227.759089 189.384579 
L 228.301084 195.290105 
L 228.843078 188.08434 
L 229.385072 189.725349 
L 229.927066 192.937543 
L 230.469061 193.122708 
L 231.011055 189.129501 
L 231.553049 191.10611 
L 232.095043 194.396197 
L 232.637037 191.684548 
L 233.179032 189.776582 
L 233.721026 189.221448 
L 234.26302 193.029763 
L 234.805014 193.426935 
L 235.347009 191.715106 
L 235.889003 187.733687 
L 236.430997 192.220639 
L 236.972991 190.819384 
L 237.514986 190.688445 
L 238.598974 188.598578 
L 239.682963 191.820565 
L 240.224957 189.76824 
L 240.766951 191.433368 
L 241.308945 190.142288 
L 241.850939 192.644107 
L 242.392934 189.358192 
L 243.476922 194.354394 
L 244.018916 190.079448 
L 244.560911 188.341414 
L 245.102905 189.536103 
L 245.644899 192.445249 
L 246.186893 191.149273 
L 246.728888 190.347403 
L 247.270882 206.876365 
L 247.812876 189.794536 
L 248.35487 191.698784 
L 248.896864 189.537463 
L 249.438859 190.821379 
L 249.980853 190.31095 
L 250.522847 188.524131 
L 251.064841 197.308698 
L 251.606836 186.371061 
L 252.14883 190.692525 
L 252.690824 189.322102 
L 253.232818 190.144283 
L 253.774813 188.36889 
L 254.316807 190.527672 
L 254.858801 191.809956 
L 255.400795 190.116082 
L 255.942789 190.313127 
L 256.484784 190.375785 
L 257.026778 192.643654 
L 257.568772 188.662597 
L 258.110766 189.403349 
L 258.652761 192.407436 
L 259.194755 191.371344 
L 259.736749 192.023141 
L 260.278743 192.868899 
L 260.820738 191.237503 
L 261.362732 193.449786 
L 261.904726 190.86019 
L 262.44672 192.718464 
L 262.988715 188.884125 
L 263.530709 193.80452 
L 264.072703 191.535472 
L 264.614697 192.238775 
L 265.156691 193.52124 
L 265.698686 193.860831 
L 266.24068 191.651722 
L 266.782674 192.683462 
L 267.324668 189.229428 
L 267.866663 193.089067 
L 268.408657 192.692258 
L 268.950651 190.954133 
L 269.492645 197.580552 
L 270.03464 189.126508 
L 271.118628 192.836799 
L 271.660622 186.646905 
L 272.202616 187.465007 
L 272.744611 193.059687 
L 273.286605 191.694794 
L 273.828599 191.041456 
L 274.370593 191.626241 
L 274.912588 190.389024 
L 275.454582 197.46122 
L 275.996576 191.958941 
L 276.53857 191.352302 
L 277.080565 195.815949 
L 277.622559 195.310508 
L 278.164553 191.4924 
L 278.706547 192.607292 
L 279.248542 187.806048 
L 279.790536 190.432822 
L 280.33253 191.394649 
L 280.874524 191.788284 
L 281.416518 189.745933 
L 281.958513 197.146928 
L 282.500507 192.709305 
L 283.042501 198.24849 
L 283.584495 192.158343 
L 284.12649 193.87135 
L 284.668484 191.019603 
L 285.210478 189.463923 
L 285.752472 192.388303 
L 286.294467 193.364457 
L 286.836461 195.798811 
L 287.378455 191.318751 
L 287.920449 189.673843 
L 288.462443 197.328466 
L 289.004438 193.072291 
L 289.546432 191.300524 
L 290.088426 192.430741 
L 290.63042 195.252655 
L 291.172415 192.199692 
L 291.714409 193.831723 
L 292.256403 191.160063 
L 292.798397 190.47798 
L 293.340392 192.918228 
L 293.882386 192.987688 
L 294.42438 193.562408 
L 294.966374 192.7648 
L 295.508368 192.638757 
L 296.050363 192.078636 
L 296.592357 193.649459 
L 297.134351 189.607557 
L 297.676345 192.24748 
L 298.21834 189.236229 
L 298.760334 194.868994 
L 299.302328 189.858283 
L 299.844322 191.05796 
L 300.386317 196.329643 
L 300.928311 194.177299 
L 301.470305 190.951231 
L 302.012299 190.770871 
L 302.554294 194.102398 
L 303.096288 191.725806 
L 303.638282 193.423851 
L 304.180276 196.01653 
L 304.72227 191.973631 
L 305.264265 193.762989 
L 305.806259 192.67385 
L 306.348253 192.861736 
L 306.890247 191.711389 
L 307.432242 192.480342 
L 307.974236 192.4788 
L 308.51623 192.932646 
L 309.058224 192.520241 
L 309.600219 194.821025 
L 310.142213 194.783575 
L 310.684207 192.474448 
L 311.226201 191.955223 
L 312.31019 192.844325 
L 312.852184 195.168777 
L 313.394178 193.95831 
L 313.936172 191.459846 
L 314.478167 193.670406 
L 315.020161 193.034297 
L 315.562155 192.071382 
L 316.104149 189.707394 
L 317.188138 195.592155 
L 317.730132 192.822563 
L 318.272126 192.536109 
L 318.814121 194.074379 
L 319.356115 189.473172 
L 319.898109 196.039109 
L 320.440103 193.473997 
L 320.982097 194.676121 
L 321.524092 191.933097 
L 322.066086 192.991859 
L 322.60808 195.146108 
L 323.150074 192.452776 
L 323.692069 196.252294 
L 324.234063 191.75301 
L 324.776057 195.625615 
L 325.318051 193.534298 
L 325.860046 192.814401 
L 326.40204 194.722458 
L 326.944034 201.134786 
L 327.486028 192.30497 
L 328.028022 196.676579 
L 328.570017 194.413426 
L 329.112011 195.923222 
L 329.654005 192.7113 
L 330.195999 190.507632 
L 330.737994 196.086353 
L 331.821982 194.041553 
L 332.363976 194.651547 
L 332.905971 190.971452 
L 333.447965 196.082635 
L 333.989959 192.342964 
L 334.531953 191.943253 
L 335.073947 196.489328 
L 335.615942 192.156076 
L 336.157936 193.666054 
L 336.69993 192.116268 
L 337.783919 190.763889 
L 338.325913 192.617357 
L 338.867907 197.233707 
L 339.409901 192.650545 
L 339.951896 196.115188 
L 340.49389 194.370897 
L 341.035884 195.239688 
L 341.577878 197.63106 
L 342.119873 195.628426 
L 342.661867 192.375336 
L 343.203861 192.706131 
L 343.745855 194.739687 
L 344.287849 192.210664 
L 344.829844 194.33653 
L 345.371838 193.229528 
L 345.913832 193.127152 
L 346.455826 194.139305 
L 346.997821 198.585723 
L 347.539815 194.447883 
L 348.623803 195.278952 
L 349.165798 193.44643 
L 349.707792 192.570204 
L 350.249786 194.683375 
L 350.79178 193.201417 
L 351.333774 192.445068 
L 351.875769 194.375885 
L 352.417763 192.196428 
L 352.959757 192.042456 
L 353.501751 193.692622 
L 354.043746 193.357747 
L 354.58574 196.966569 
L 355.127734 191.092599 
L 355.669728 194.000567 
L 356.211723 194.786658 
L 356.753717 194.770517 
L 357.295711 195.014715 
L 357.837705 192.327186 
L 358.379699 194.363734 
L 358.921694 192.723632 
L 359.463688 194.198064 
L 360.005682 196.585175 
L 360.547676 191.042998 
L 361.089671 192.811046 
L 361.631665 195.756374 
L 362.173659 193.802978 
L 362.715653 190.835979 
L 363.257648 192.022688 
L 363.799642 194.574561 
L 364.341636 200.631611 
L 364.88363 191.669404 
L 365.425625 191.615632 
L 365.967619 191.301522 
L 366.509613 194.040102 
L 367.051607 190.712837 
L 367.593601 192.124066 
L 368.135596 194.42068 
L 368.67759 194.638943 
L 369.219584 196.76889 
L 369.761578 191.94679 
L 370.303573 196.095783 
L 370.845567 192.794543 
L 371.387561 194.08127 
L 371.929555 193.769336 
L 372.47155 191.819296 
L 373.013544 195.606392 
L 373.555538 197.726001 
L 374.097532 194.424307 
L 375.181521 195.414788 
L 375.723515 196.366821 
L 376.265509 192.675482 
L 376.807503 192.815671 
L 377.349498 198.35277 
L 377.891492 196.469288 
L 378.433486 192.686182 
L 378.97548 193.80996 
L 379.517475 191.695157 
L 380.059469 195.780222 
L 380.601463 195.657534 
L 381.143457 197.51345 
L 381.685452 192.754735 
L 382.227446 195.391393 
L 382.76944 196.39611 
L 383.311434 195.088436 
L 383.853428 194.219646 
L 384.395423 195.790106 
L 384.937417 192.352123 
L 385.479411 198.049542 
L 386.021405 192.422398 
L 386.5634 193.432013 
L 387.105394 192.10992 
L 387.647388 192.587252 
L 388.189382 191.991313 
L 388.731377 192.540462 
L 389.273371 194.938454 
L 389.815365 193.13495 
L 390.357359 197.21666 
L 390.899353 194.386313 
L 391.441348 194.310596 
L 391.983342 192.964021 
L 392.525336 193.930109 
L 393.06733 194.002743 
L 393.609325 193.75782 
L 394.693313 194.987239 
L 395.235307 193.916145 
L 395.777302 196.838984 
L 396.86129 192.957129 
L 397.403284 193.495306 
L 397.945278 193.508001 
L 398.487273 192.942621 
L 398.487273 192.942621 
" style="fill:none;stroke:#bfbf00;stroke-linecap:square;stroke-width:1.5;"/>
   </g>
   <g id="patch_3">
    <path d="M 57.6 307.584 
L 57.6 41.472 
" style="fill:none;stroke:#000000;stroke-linecap:square;stroke-linejoin:miter;stroke-width:0.8;"/>
   </g>
   <g id="patch_4">
    <path d="M 414.72 307.584 
L 414.72 41.472 
" style="fill:none;stroke:#000000;stroke-linecap:square;stroke-linejoin:miter;stroke-width:0.8;"/>
   </g>
   <g id="patch_5">
    <path d="M 57.6 307.584 
L 414.72 307.584 
" style="fill:none;stroke:#000000;stroke-linecap:square;stroke-linejoin:miter;stroke-width:0.8;"/>
   </g>
   <g id="patch_6">
    <path d="M 57.6 41.472 
L 414.72 41.472 
" style="fill:none;stroke:#000000;stroke-linecap:square;stroke-linejoin:miter;stroke-width:0.8;"/>
   </g>
   <g id="text_19">
    <!-- samerate_acc_d2 val_samerate_acc_d2 -->
    <g transform="translate(117.5025 35.472)scale(0.12 -0.12)">
     <defs>
      <path d="M 44.28125 53.078125 
L 44.28125 44.578125 
Q 40.484375 46.53125 36.375 47.5 
Q 32.28125 48.484375 27.875 48.484375 
Q 21.1875 48.484375 17.84375 46.4375 
Q 14.5 44.390625 14.5 40.28125 
Q 14.5 37.15625 16.890625 35.375 
Q 19.28125 33.59375 26.515625 31.984375 
L 29.59375 31.296875 
Q 39.15625 29.25 43.1875 25.515625 
Q 47.21875 21.78125 47.21875 15.09375 
Q 47.21875 7.46875 41.1875 3.015625 
Q 35.15625 -1.421875 24.609375 -1.421875 
Q 20.21875 -1.421875 15.453125 -0.5625 
Q 10.6875 0.296875 5.421875 2 
L 5.421875 11.28125 
Q 10.40625 8.6875 15.234375 7.390625 
Q 20.0625 6.109375 24.8125 6.109375 
Q 31.15625 6.109375 34.5625 8.28125 
Q 37.984375 10.453125 37.984375 14.40625 
Q 37.984375 18.0625 35.515625 20.015625 
Q 33.0625 21.96875 24.703125 23.78125 
L 21.578125 24.515625 
Q 13.234375 26.265625 9.515625 29.90625 
Q 5.8125 33.546875 5.8125 39.890625 
Q 5.8125 47.609375 11.28125 51.796875 
Q 16.75 56 26.8125 56 
Q 31.78125 56 36.171875 55.265625 
Q 40.578125 54.546875 44.28125 53.078125 
z
" id="DejaVuSans-115"/>
      <path d="M 52 44.1875 
Q 55.375 50.25 60.0625 53.125 
Q 64.75 56 71.09375 56 
Q 79.640625 56 84.28125 50.015625 
Q 88.921875 44.046875 88.921875 33.015625 
L 88.921875 0 
L 79.890625 0 
L 79.890625 32.71875 
Q 79.890625 40.578125 77.09375 44.375 
Q 74.3125 48.1875 68.609375 48.1875 
Q 61.625 48.1875 57.5625 43.546875 
Q 53.515625 38.921875 53.515625 30.90625 
L 53.515625 0 
L 44.484375 0 
L 44.484375 32.71875 
Q 44.484375 40.625 41.703125 44.40625 
Q 38.921875 48.1875 33.109375 48.1875 
Q 26.21875 48.1875 22.15625 43.53125 
Q 18.109375 38.875 18.109375 30.90625 
L 18.109375 0 
L 9.078125 0 
L 9.078125 54.6875 
L 18.109375 54.6875 
L 18.109375 46.1875 
Q 21.1875 51.21875 25.484375 53.609375 
Q 29.78125 56 35.6875 56 
Q 41.65625 56 45.828125 52.96875 
Q 50 49.953125 52 44.1875 
z
" id="DejaVuSans-109"/>
      <path d="M 18.3125 70.21875 
L 18.3125 54.6875 
L 36.8125 54.6875 
L 36.8125 47.703125 
L 18.3125 47.703125 
L 18.3125 18.015625 
Q 18.3125 11.328125 20.140625 9.421875 
Q 21.96875 7.515625 27.59375 7.515625 
L 36.8125 7.515625 
L 36.8125 0 
L 27.59375 0 
Q 17.1875 0 13.234375 3.875 
Q 9.28125 7.765625 9.28125 18.015625 
L 9.28125 47.703125 
L 2.6875 47.703125 
L 2.6875 54.6875 
L 9.28125 54.6875 
L 9.28125 70.21875 
z
" id="DejaVuSans-116"/>
      <path d="M 50.984375 -16.609375 
L 50.984375 -23.578125 
L -0.984375 -23.578125 
L -0.984375 -16.609375 
z
" id="DejaVuSans-95"/>
      <path d="M 45.40625 46.390625 
L 45.40625 75.984375 
L 54.390625 75.984375 
L 54.390625 0 
L 45.40625 0 
L 45.40625 8.203125 
Q 42.578125 3.328125 38.25 0.953125 
Q 33.9375 -1.421875 27.875 -1.421875 
Q 17.96875 -1.421875 11.734375 6.484375 
Q 5.515625 14.40625 5.515625 27.296875 
Q 5.515625 40.1875 11.734375 48.09375 
Q 17.96875 56 27.875 56 
Q 33.9375 56 38.25 53.625 
Q 42.578125 51.265625 45.40625 46.390625 
z
M 14.796875 27.296875 
Q 14.796875 17.390625 18.875 11.75 
Q 22.953125 6.109375 30.078125 6.109375 
Q 37.203125 6.109375 41.296875 11.75 
Q 45.40625 17.390625 45.40625 27.296875 
Q 45.40625 37.203125 41.296875 42.84375 
Q 37.203125 48.484375 30.078125 48.484375 
Q 22.953125 48.484375 18.875 42.84375 
Q 14.796875 37.203125 14.796875 27.296875 
z
" id="DejaVuSans-100"/>
      <path id="DejaVuSans-32"/>
      <path d="M 2.984375 54.6875 
L 12.5 54.6875 
L 29.59375 8.796875 
L 46.6875 54.6875 
L 56.203125 54.6875 
L 35.6875 0 
L 23.484375 0 
z
" id="DejaVuSans-118"/>
      <path d="M 9.421875 75.984375 
L 18.40625 75.984375 
L 18.40625 0 
L 9.421875 0 
z
" id="DejaVuSans-108"/>
     </defs>
     <use xlink:href="#DejaVuSans-115"/>
     <use x="52.099609" xlink:href="#DejaVuSans-97"/>
     <use x="113.378906" xlink:href="#DejaVuSans-109"/>
     <use x="210.791016" xlink:href="#DejaVuSans-101"/>
     <use x="272.314453" xlink:href="#DejaVuSans-114"/>
     <use x="313.427734" xlink:href="#DejaVuSans-97"/>
     <use x="374.707031" xlink:href="#DejaVuSans-116"/>
     <use x="413.916016" xlink:href="#DejaVuSans-101"/>
     <use x="475.439453" xlink:href="#DejaVuSans-95"/>
     <use x="525.439453" xlink:href="#DejaVuSans-97"/>
     <use x="586.71875" xlink:href="#DejaVuSans-99"/>
     <use x="641.699219" xlink:href="#DejaVuSans-99"/>
     <use x="696.679688" xlink:href="#DejaVuSans-95"/>
     <use x="746.679688" xlink:href="#DejaVuSans-100"/>
     <use x="810.15625" xlink:href="#DejaVuSans-50"/>
     <use x="873.779297" xlink:href="#DejaVuSans-32"/>
     <use x="905.566406" xlink:href="#DejaVuSans-118"/>
     <use x="964.746094" xlink:href="#DejaVuSans-97"/>
     <use x="1026.025391" xlink:href="#DejaVuSans-108"/>
     <use x="1053.808594" xlink:href="#DejaVuSans-95"/>
     <use x="1103.808594" xlink:href="#DejaVuSans-115"/>
     <use x="1155.908203" xlink:href="#DejaVuSans-97"/>
     <use x="1217.1875" xlink:href="#DejaVuSans-109"/>
     <use x="1314.599609" xlink:href="#DejaVuSans-101"/>
     <use x="1376.123047" xlink:href="#DejaVuSans-114"/>
     <use x="1417.236328" xlink:href="#DejaVuSans-97"/>
     <use x="1478.515625" xlink:href="#DejaVuSans-116"/>
     <use x="1517.724609" xlink:href="#DejaVuSans-101"/>
     <use x="1579.248047" xlink:href="#DejaVuSans-95"/>
     <use x="1629.248047" xlink:href="#DejaVuSans-97"/>
     <use x="1690.527344" xlink:href="#DejaVuSans-99"/>
     <use x="1745.507812" xlink:href="#DejaVuSans-99"/>
     <use x="1800.488281" xlink:href="#DejaVuSans-95"/>
     <use x="1850.488281" xlink:href="#DejaVuSans-100"/>
     <use x="1913.964844" xlink:href="#DejaVuSans-50"/>
    </g>
   </g>
   <g id="legend_1">
    <g id="patch_7">
     <path d="M 64.6 54.472 
L 68.6 54.472 
Q 70.6 54.472 70.6 52.472 
L 70.6 48.472 
Q 70.6 46.472 68.6 46.472 
L 64.6 46.472 
Q 62.6 46.472 62.6 48.472 
L 62.6 52.472 
Q 62.6 54.472 64.6 54.472 
z
" style="fill:#ffffff;opacity:0.8;stroke:#cccccc;stroke-linejoin:miter;"/>
    </g>
   </g>
  </g>
 </g>
 <defs>
  <clipPath id="pea5830c9c4">
   <rect height="266.112" width="357.12" x="57.6" y="41.472"/>
  </clipPath>
 </defs>
</svg>
