<?xml version="1.0" encoding="utf-8" standalone="no"?>
<!DOCTYPE svg PUBLIC "-//W3C//DTD SVG 1.1//EN"
  "http://www.w3.org/Graphics/SVG/1.1/DTD/svg11.dtd">
<!-- Created with matplotlib (https://matplotlib.org/) -->
<svg height="288pt" version="1.1" viewBox="0 0 432 288" width="432pt" xmlns="http://www.w3.org/2000/svg" xmlns:xlink="http://www.w3.org/1999/xlink">
 <metadata>
  <rdf:RDF xmlns:cc="http://creativecommons.org/ns#" xmlns:dc="http://purl.org/dc/elements/1.1/" xmlns:rdf="http://www.w3.org/1999/02/22-rdf-syntax-ns#">
   <cc:Work>
    <dc:type rdf:resource="http://purl.org/dc/dcmitype/StillImage"/>
    <dc:date>2022-05-27T17:42:35.386854</dc:date>
    <dc:format>image/svg+xml</dc:format>
    <dc:creator>
     <cc:Agent>
      <dc:title>Matplotlib v3.3.4, https://matplotlib.org/</dc:title>
     </cc:Agent>
    </dc:creator>
   </cc:Work>
  </rdf:RDF>
 </metadata>
 <defs>
  <style type="text/css">*{stroke-linecap:butt;stroke-linejoin:round;}</style>
 </defs>
 <g id="figure_1">
  <g id="patch_1">
   <path d="M 0 288 
L 432 288 
L 432 0 
L 0 0 
z
" style="fill:#ffffff;"/>
  </g>
  <g id="axes_1">
   <g id="patch_2">
    <path d="M 54 252 
L 388.8 252 
L 388.8 34.56 
L 54 34.56 
z
" style="fill:#ffffff;"/>
   </g>
   <g id="PolyCollection_1">
    <defs>
     <path d="M 80.064948 -64.129031 
L 80.015052 -64.129031 
L 80.012757 -65.832224 
L 80.011692 -67.535417 
L 80.011202 -69.23861 
L 80.010623 -70.941802 
L 80.00885 -72.644995 
L 80.003694 -74.348188 
L 79.992192 -76.051381 
L 79.972282 -77.754574 
L 79.944798 -79.457766 
L 79.913963 -81.160959 
L 79.885431 -82.864152 
L 79.862901 -84.567345 
L 79.845621 -86.270538 
L 79.828482 -87.97373 
L 79.804415 -89.676923 
L 79.767705 -91.380116 
L 79.716997 -93.083309 
L 79.656914 -94.786502 
L 79.596709 -96.489695 
L 79.545326 -98.192887 
L 79.505505 -99.89608 
L 79.471791 -101.599273 
L 79.434718 -103.302466 
L 79.387662 -105.005659 
L 79.330136 -106.708851 
L 79.264943 -108.412044 
L 79.192682 -110.115237 
L 79.109352 -111.81843 
L 79.009177 -113.521623 
L 78.889512 -115.224815 
L 78.753067 -116.928008 
L 78.606029 -118.631201 
L 78.455065 -120.334394 
L 78.306328 -122.037587 
L 78.165477 -123.740779 
L 78.035246 -125.443972 
L 77.910338 -127.147165 
L 77.774231 -128.850358 
L 77.60227 -130.553551 
L 77.369996 -132.256743 
L 77.061175 -133.959936 
L 76.671074 -135.663129 
L 76.205153 -137.366322 
L 75.675876 -139.069515 
L 75.098792 -140.772707 
L 74.487431 -142.4759 
L 73.848538 -144.179093 
L 73.18211 -145.882286 
L 72.488748 -147.585479 
L 71.779455 -149.288671 
L 71.077477 -150.991864 
L 70.406175 -152.695057 
L 69.769955 -154.39825 
L 69.14516 -156.101443 
L 68.493135 -157.804635 
L 67.789857 -159.507828 
L 67.051503 -161.211021 
L 66.338058 -162.914214 
L 65.734505 -164.617407 
L 65.323123 -166.320599 
L 65.16 -168.023792 
L 65.262026 -169.726985 
L 65.607785 -171.430178 
L 66.153051 -173.133371 
L 66.852326 -174.836563 
L 67.670443 -176.539756 
L 68.576085 -178.242949 
L 69.52723 -179.946142 
L 70.465866 -181.649335 
L 71.328473 -183.352527 
L 72.065373 -185.05572 
L 72.65935 -186.758913 
L 73.13575 -188.462106 
L 73.555864 -190.165299 
L 73.990557 -191.868491 
L 74.486205 -193.571684 
L 75.04514 -195.274877 
L 75.632812 -196.97807 
L 76.202715 -198.681263 
L 76.719753 -200.384455 
L 77.169761 -202.087648 
L 77.555701 -203.790841 
L 77.888251 -205.494034 
L 78.178554 -207.197227 
L 78.436407 -208.900419 
L 78.671451 -210.603612 
L 78.892576 -212.306805 
L 79.104259 -214.009998 
L 79.303583 -215.713191 
L 79.482073 -217.416383 
L 79.631528 -219.119576 
L 79.748988 -220.822769 
L 79.837208 -222.525962 
L 79.901596 -224.229155 
L 79.94712 -225.932347 
L 79.977472 -227.63554 
L 79.995994 -229.338733 
L 80.006516 -231.041926 
L 80.013005 -232.745119 
L 80.066995 -232.745119 
L 80.066995 -232.745119 
L 80.073484 -231.041926 
L 80.084006 -229.338733 
L 80.102528 -227.63554 
L 80.13288 -225.932347 
L 80.178404 -224.229155 
L 80.242792 -222.525962 
L 80.331012 -220.822769 
L 80.448472 -219.119576 
L 80.597927 -217.416383 
L 80.776417 -215.713191 
L 80.975741 -214.009998 
L 81.187424 -212.306805 
L 81.408549 -210.603612 
L 81.643593 -208.900419 
L 81.901446 -207.197227 
L 82.191749 -205.494034 
L 82.524299 -203.790841 
L 82.910239 -202.087648 
L 83.360247 -200.384455 
L 83.877285 -198.681263 
L 84.447188 -196.97807 
L 85.03486 -195.274877 
L 85.593795 -193.571684 
L 86.089443 -191.868491 
L 86.524136 -190.165299 
L 86.94425 -188.462106 
L 87.42065 -186.758913 
L 88.014627 -185.05572 
L 88.751527 -183.352527 
L 89.614134 -181.649335 
L 90.55277 -179.946142 
L 91.503915 -178.242949 
L 92.409557 -176.539756 
L 93.227674 -174.836563 
L 93.926949 -173.133371 
L 94.472215 -171.430178 
L 94.817974 -169.726985 
L 94.92 -168.023792 
L 94.756877 -166.320599 
L 94.345495 -164.617407 
L 93.741942 -162.914214 
L 93.028497 -161.211021 
L 92.290143 -159.507828 
L 91.586865 -157.804635 
L 90.93484 -156.101443 
L 90.310045 -154.39825 
L 89.673825 -152.695057 
L 89.002523 -150.991864 
L 88.300545 -149.288671 
L 87.591252 -147.585479 
L 86.89789 -145.882286 
L 86.231462 -144.179093 
L 85.592569 -142.4759 
L 84.981208 -140.772707 
L 84.404124 -139.069515 
L 83.874847 -137.366322 
L 83.408926 -135.663129 
L 83.018825 -133.959936 
L 82.710004 -132.256743 
L 82.47773 -130.553551 
L 82.305769 -128.850358 
L 82.169662 -127.147165 
L 82.044754 -125.443972 
L 81.914523 -123.740779 
L 81.773672 -122.037587 
L 81.624935 -120.334394 
L 81.473971 -118.631201 
L 81.326933 -116.928008 
L 81.190488 -115.224815 
L 81.070823 -113.521623 
L 80.970648 -111.81843 
L 80.887318 -110.115237 
L 80.815057 -108.412044 
L 80.749864 -106.708851 
L 80.692338 -105.005659 
L 80.645282 -103.302466 
L 80.608209 -101.599273 
L 80.574495 -99.89608 
L 80.534674 -98.192887 
L 80.483291 -96.489695 
L 80.423086 -94.786502 
L 80.363003 -93.083309 
L 80.312295 -91.380116 
L 80.275585 -89.676923 
L 80.251518 -87.97373 
L 80.234379 -86.270538 
L 80.217099 -84.567345 
L 80.194569 -82.864152 
L 80.166037 -81.160959 
L 80.135202 -79.457766 
L 80.107718 -77.754574 
L 80.087808 -76.051381 
L 80.076306 -74.348188 
L 80.07115 -72.644995 
L 80.069377 -70.941802 
L 80.068798 -69.23861 
L 80.068308 -67.535417 
L 80.067243 -65.832224 
L 80.064948 -64.129031 
z
" id="m07f83619c5" style="stroke:#3d3d3d;stroke-width:1.5;"/>
    </defs>
    <g clip-path="url(#p915af088c1)">
     <use style="fill:#3274a1;stroke:#3d3d3d;stroke-width:1.5;" x="0" xlink:href="#m07f83619c5" y="288"/>
    </g>
   </g>
   <g id="PolyCollection_2">
    <defs>
     <path d="M 221.524079 -60.412245 
L 221.275921 -60.412245 
L 221.258581 -62.262185 
L 221.245361 -64.112126 
L 221.23648 -65.962067 
L 221.231114 -67.812007 
L 221.227682 -69.661948 
L 221.224422 -71.511888 
L 221.220036 -73.361829 
L 221.214119 -75.21177 
L 221.207086 -77.06171 
L 221.199554 -78.911651 
L 221.191409 -80.761591 
L 221.181035 -82.611532 
L 221.165166 -84.461473 
L 221.139599 -86.311413 
L 221.100564 -88.161354 
L 221.046242 -90.011294 
L 220.977745 -91.861235 
L 220.899124 -93.711176 
L 220.816372 -95.561116 
L 220.735808 -97.411057 
L 220.662442 -99.260997 
L 220.598816 -101.110938 
L 220.544449 -102.960879 
L 220.495776 -104.810819 
L 220.446395 -106.66076 
L 220.387684 -108.5107 
L 220.310029 -110.360641 
L 220.204812 -112.210581 
L 220.066817 -114.060522 
L 219.896216 -115.910463 
L 219.699094 -117.760403 
L 219.485958 -119.610344 
L 219.268435 -121.460284 
L 219.055097 -123.310225 
L 218.8476 -125.160166 
L 218.63814 -127.010106 
L 218.408867 -128.860047 
L 218.133676 -130.709987 
L 217.78255 -132.559928 
L 217.328191 -134.409869 
L 216.753747 -136.259809 
L 216.059468 -138.10975 
L 215.265555 -139.95969 
L 214.409183 -141.809631 
L 213.535669 -143.659572 
L 212.686389 -145.509512 
L 211.887987 -147.359453 
L 211.147381 -149.209393 
L 210.454779 -151.059334 
L 209.793266 -152.909275 
L 209.150543 -154.759215 
L 208.527631 -156.609156 
L 207.941144 -158.459096 
L 207.419108 -160.309037 
L 206.99313 -162.158978 
L 206.690721 -164.008918 
L 206.53039 -165.858859 
L 206.52 -167.708799 
L 206.657156 -169.55874 
L 206.930101 -171.40868 
L 207.318377 -173.258621 
L 207.793547 -175.108562 
L 208.320744 -176.958502 
L 208.861628 -178.808443 
L 209.378734 -180.658383 
L 209.84055 -182.508324 
L 210.226202 -184.358265 
L 210.528461 -186.208205 
L 210.754168 -188.058146 
L 210.922042 -189.908086 
L 211.058735 -191.758027 
L 211.194393 -193.607968 
L 211.358641 -195.457908 
L 211.577287 -197.307849 
L 211.869614 -199.157789 
L 212.246325 -201.00773 
L 212.708583 -202.857671 
L 213.248678 -204.707611 
L 213.852417 -206.557552 
L 214.502471 -208.407492 
L 215.181411 -210.257433 
L 215.873285 -212.107374 
L 216.563422 -213.957314 
L 217.237167 -215.807255 
L 217.878835 -217.657195 
L 218.471974 -219.507136 
L 219.00121 -221.357077 
L 219.454966 -223.207017 
L 219.827832 -225.056958 
L 220.121537 -226.906898 
L 220.344189 -228.756839 
L 220.508248 -230.606779 
L 220.628123 -232.45672 
L 220.718121 -234.306661 
L 220.790994 -236.156601 
L 220.856934 -238.006542 
L 220.922847 -239.856482 
L 220.991914 -241.706423 
L 221.063735 -243.556364 
L 221.736265 -243.556364 
L 221.736265 -243.556364 
L 221.808086 -241.706423 
L 221.877153 -239.856482 
L 221.943066 -238.006542 
L 222.009006 -236.156601 
L 222.081879 -234.306661 
L 222.171877 -232.45672 
L 222.291752 -230.606779 
L 222.455811 -228.756839 
L 222.678463 -226.906898 
L 222.972168 -225.056958 
L 223.345034 -223.207017 
L 223.79879 -221.357077 
L 224.328026 -219.507136 
L 224.921165 -217.657195 
L 225.562833 -215.807255 
L 226.236578 -213.957314 
L 226.926715 -212.107374 
L 227.618589 -210.257433 
L 228.297529 -208.407492 
L 228.947583 -206.557552 
L 229.551322 -204.707611 
L 230.091417 -202.857671 
L 230.553675 -201.00773 
L 230.930386 -199.157789 
L 231.222713 -197.307849 
L 231.441359 -195.457908 
L 231.605607 -193.607968 
L 231.741265 -191.758027 
L 231.877958 -189.908086 
L 232.045832 -188.058146 
L 232.271539 -186.208205 
L 232.573798 -184.358265 
L 232.95945 -182.508324 
L 233.421266 -180.658383 
L 233.938372 -178.808443 
L 234.479256 -176.958502 
L 235.006453 -175.108562 
L 235.481623 -173.258621 
L 235.869899 -171.40868 
L 236.142844 -169.55874 
L 236.28 -167.708799 
L 236.26961 -165.858859 
L 236.109279 -164.008918 
L 235.80687 -162.158978 
L 235.380892 -160.309037 
L 234.858856 -158.459096 
L 234.272369 -156.609156 
L 233.649457 -154.759215 
L 233.006734 -152.909275 
L 232.345221 -151.059334 
L 231.652619 -149.209393 
L 230.912013 -147.359453 
L 230.113611 -145.509512 
L 229.264331 -143.659572 
L 228.390817 -141.809631 
L 227.534445 -139.95969 
L 226.740532 -138.10975 
L 226.046253 -136.259809 
L 225.471809 -134.409869 
L 225.01745 -132.559928 
L 224.666324 -130.709987 
L 224.391133 -128.860047 
L 224.16186 -127.010106 
L 223.9524 -125.160166 
L 223.744903 -123.310225 
L 223.531565 -121.460284 
L 223.314042 -119.610344 
L 223.100906 -117.760403 
L 222.903784 -115.910463 
L 222.733183 -114.060522 
L 222.595188 -112.210581 
L 222.489971 -110.360641 
L 222.412316 -108.5107 
L 222.353605 -106.66076 
L 222.304224 -104.810819 
L 222.255551 -102.960879 
L 222.201184 -101.110938 
L 222.137558 -99.260997 
L 222.064192 -97.411057 
L 221.983628 -95.561116 
L 221.900876 -93.711176 
L 221.822255 -91.861235 
L 221.753758 -90.011294 
L 221.699436 -88.161354 
L 221.660401 -86.311413 
L 221.634834 -84.461473 
L 221.618965 -82.611532 
L 221.608591 -80.761591 
L 221.600446 -78.911651 
L 221.592914 -77.06171 
L 221.585881 -75.21177 
L 221.579964 -73.361829 
L 221.575578 -71.511888 
L 221.572318 -69.661948 
L 221.568886 -67.812007 
L 221.56352 -65.962067 
L 221.554639 -64.112126 
L 221.541419 -62.262185 
L 221.524079 -60.412245 
z
" id="m2440014fe1" style="stroke:#3d3d3d;stroke-width:1.5;"/>
    </defs>
    <g clip-path="url(#p915af088c1)">
     <use style="fill:#e1812c;stroke:#3d3d3d;stroke-width:1.5;" x="0" xlink:href="#m2440014fe1" y="288"/>
    </g>
   </g>
   <g id="PolyCollection_3">
    <defs>
     <path d="M 362.816954 -45.883636 
L 362.703046 -45.883636 
L 362.705763 -47.866556 
L 362.713161 -49.849477 
L 362.723316 -51.832397 
L 362.733944 -53.815317 
L 362.74321 -55.798237 
L 362.750165 -57.781157 
L 362.754696 -59.764077 
L 362.757163 -61.746997 
L 362.757956 -63.729917 
L 362.757135 -65.712837 
L 362.754198 -67.695757 
L 362.748001 -69.678677 
L 362.736913 -71.661598 
L 362.719305 -73.644518 
L 362.694381 -75.627438 
L 362.663099 -77.610358 
L 362.628663 -79.593278 
L 362.596052 -81.576198 
L 362.570441 -83.559118 
L 362.555053 -85.542038 
L 362.549396 -87.524958 
L 362.548724 -89.507878 
L 362.544968 -91.490799 
L 362.528706 -93.473719 
L 362.491501 -95.456639 
L 362.427994 -97.439559 
L 362.337369 -99.422479 
L 362.2239 -101.405399 
L 362.096353 -103.388319 
L 361.966085 -105.371239 
L 361.843954 -107.354159 
L 361.73666 -109.337079 
L 361.643836 -111.319999 
L 361.557476 -113.30292 
L 361.464579 -115.28584 
L 361.35223 -117.26876 
L 361.212621 -119.25168 
L 361.045165 -121.2346 
L 360.854341 -123.21752 
L 360.644378 -125.20044 
L 360.413736 -127.18336 
L 360.152445 -129.16628 
L 359.843634 -131.1492 
L 359.468304 -133.132121 
L 359.010702 -135.115041 
L 358.46161 -137.097961 
L 357.818341 -139.080881 
L 357.082512 -141.063801 
L 356.258571 -143.046721 
L 355.355811 -145.029641 
L 354.393623 -147.012561 
L 353.405513 -148.995481 
L 352.436001 -150.978401 
L 351.528844 -152.961321 
L 350.712886 -154.944242 
L 349.995884 -156.927162 
L 349.37181 -158.910082 
L 348.836408 -160.893002 
L 348.398862 -162.875922 
L 348.080826 -164.858842 
L 347.904567 -166.841762 
L 347.88 -168.824682 
L 347.9995 -170.807602 
L 348.241902 -172.790522 
L 348.580396 -174.773443 
L 348.988252 -176.756363 
L 349.440344 -178.739283 
L 349.912714 -180.722203 
L 350.383361 -182.705123 
L 350.835364 -184.688043 
L 351.260884 -186.670963 
L 351.663384 -188.653883 
L 352.056015 -190.636803 
L 352.455866 -192.619723 
L 352.876123 -194.602643 
L 353.32016 -196.585564 
L 353.781657 -198.568484 
L 354.251833 -200.551404 
L 354.729869 -202.534324 
L 355.229111 -204.517244 
L 355.77321 -206.500164 
L 356.382865 -208.483084 
L 357.060701 -210.466004 
L 357.783805 -212.448924 
L 358.508878 -214.431844 
L 359.18731 -216.414765 
L 359.782014 -218.397685 
L 360.277639 -220.380605 
L 360.680286 -222.363525 
L 361.008783 -224.346445 
L 361.28358 -226.329365 
L 361.519319 -228.312285 
L 361.723593 -230.295205 
L 361.900115 -232.278125 
L 362.052339 -234.261045 
L 362.184722 -236.243965 
L 362.301566 -238.226886 
L 362.405327 -240.209806 
L 362.496113 -242.192726 
L 363.023887 -242.192726 
L 363.023887 -242.192726 
L 363.114673 -240.209806 
L 363.218434 -238.226886 
L 363.335278 -236.243965 
L 363.467661 -234.261045 
L 363.619885 -232.278125 
L 363.796407 -230.295205 
L 364.000681 -228.312285 
L 364.23642 -226.329365 
L 364.511217 -224.346445 
L 364.839714 -222.363525 
L 365.242361 -220.380605 
L 365.737986 -218.397685 
L 366.33269 -216.414765 
L 367.011122 -214.431844 
L 367.736195 -212.448924 
L 368.459299 -210.466004 
L 369.137135 -208.483084 
L 369.74679 -206.500164 
L 370.290889 -204.517244 
L 370.790131 -202.534324 
L 371.268167 -200.551404 
L 371.738343 -198.568484 
L 372.19984 -196.585564 
L 372.643877 -194.602643 
L 373.064134 -192.619723 
L 373.463985 -190.636803 
L 373.856616 -188.653883 
L 374.259116 -186.670963 
L 374.684636 -184.688043 
L 375.136639 -182.705123 
L 375.607286 -180.722203 
L 376.079656 -178.739283 
L 376.531748 -176.756363 
L 376.939604 -174.773443 
L 377.278098 -172.790522 
L 377.5205 -170.807602 
L 377.64 -168.824682 
L 377.615433 -166.841762 
L 377.439174 -164.858842 
L 377.121138 -162.875922 
L 376.683592 -160.893002 
L 376.14819 -158.910082 
L 375.524116 -156.927162 
L 374.807114 -154.944242 
L 373.991156 -152.961321 
L 373.083999 -150.978401 
L 372.114487 -148.995481 
L 371.126377 -147.012561 
L 370.164189 -145.029641 
L 369.261429 -143.046721 
L 368.437488 -141.063801 
L 367.701659 -139.080881 
L 367.05839 -137.097961 
L 366.509298 -135.115041 
L 366.051696 -133.132121 
L 365.676366 -131.1492 
L 365.367555 -129.16628 
L 365.106264 -127.18336 
L 364.875622 -125.20044 
L 364.665659 -123.21752 
L 364.474835 -121.2346 
L 364.307379 -119.25168 
L 364.16777 -117.26876 
L 364.055421 -115.28584 
L 363.962524 -113.30292 
L 363.876164 -111.319999 
L 363.78334 -109.337079 
L 363.676046 -107.354159 
L 363.553915 -105.371239 
L 363.423647 -103.388319 
L 363.2961 -101.405399 
L 363.182631 -99.422479 
L 363.092006 -97.439559 
L 363.028499 -95.456639 
L 362.991294 -93.473719 
L 362.975032 -91.490799 
L 362.971276 -89.507878 
L 362.970604 -87.524958 
L 362.964947 -85.542038 
L 362.949559 -83.559118 
L 362.923948 -81.576198 
L 362.891337 -79.593278 
L 362.856901 -77.610358 
L 362.825619 -75.627438 
L 362.800695 -73.644518 
L 362.783087 -71.661598 
L 362.771999 -69.678677 
L 362.765802 -67.695757 
L 362.762865 -65.712837 
L 362.762044 -63.729917 
L 362.762837 -61.746997 
L 362.765304 -59.764077 
L 362.769835 -57.781157 
L 362.77679 -55.798237 
L 362.786056 -53.815317 
L 362.796684 -51.832397 
L 362.806839 -49.849477 
L 362.814237 -47.866556 
L 362.816954 -45.883636 
z
" id="m8bbce6bbad" style="stroke:#3d3d3d;stroke-width:1.5;"/>
    </defs>
    <g clip-path="url(#p915af088c1)">
     <use style="fill:#3a923a;stroke:#3d3d3d;stroke-width:1.5;" x="0" xlink:href="#m8bbce6bbad" y="288"/>
    </g>
   </g>
   <g id="patch_3">
    <path clip-path="url(#p915af088c1)" d="M 109.8 89.598624 
L 109.8 89.598624 
L 109.8 89.598624 
L 109.8 89.598624 
z
" style="fill:#3274a1;stroke:#3d3d3d;stroke-linejoin:miter;stroke-width:0.75;"/>
   </g>
   <g id="patch_4">
    <path clip-path="url(#p915af088c1)" d="M 109.8 89.598624 
L 109.8 89.598624 
L 109.8 89.598624 
L 109.8 89.598624 
z
" style="fill:#e1812c;stroke:#3d3d3d;stroke-linejoin:miter;stroke-width:0.75;"/>
   </g>
   <g id="patch_5">
    <path clip-path="url(#p915af088c1)" d="M 109.8 89.598624 
L 109.8 89.598624 
L 109.8 89.598624 
L 109.8 89.598624 
z
" style="fill:#3a923a;stroke:#3d3d3d;stroke-linejoin:miter;stroke-width:0.75;"/>
   </g>
   <g id="matplotlib.axis_1">
    <g id="xtick_1">
     <g id="line2d_1">
      <defs>
       <path d="M 0 0 
L 0 3.5 
" id="m3e3e7f6be0" style="stroke:#000000;stroke-width:0.8;"/>
      </defs>
      <g>
       <use style="stroke:#000000;stroke-width:0.8;" x="109.8" xlink:href="#m3e3e7f6be0" y="252"/>
      </g>
     </g>
     <g id="text_1">
      <!-- train -->
      <g transform="translate(98.1625 266.598437)scale(0.1 -0.1)">
       <defs>
        <path d="M 18.3125 70.21875 
L 18.3125 54.6875 
L 36.8125 54.6875 
L 36.8125 47.703125 
L 18.3125 47.703125 
L 18.3125 18.015625 
Q 18.3125 11.328125 20.140625 9.421875 
Q 21.96875 7.515625 27.59375 7.515625 
L 36.8125 7.515625 
L 36.8125 0 
L 27.59375 0 
Q 17.1875 0 13.234375 3.875 
Q 9.28125 7.765625 9.28125 18.015625 
L 9.28125 47.703125 
L 2.6875 47.703125 
L 2.6875 54.6875 
L 9.28125 54.6875 
L 9.28125 70.21875 
z
" id="DejaVuSans-116"/>
        <path d="M 41.109375 46.296875 
Q 39.59375 47.171875 37.8125 47.578125 
Q 36.03125 48 33.890625 48 
Q 26.265625 48 22.1875 43.046875 
Q 18.109375 38.09375 18.109375 28.8125 
L 18.109375 0 
L 9.078125 0 
L 9.078125 54.6875 
L 18.109375 54.6875 
L 18.109375 46.1875 
Q 20.953125 51.171875 25.484375 53.578125 
Q 30.03125 56 36.53125 56 
Q 37.453125 56 38.578125 55.875 
Q 39.703125 55.765625 41.0625 55.515625 
z
" id="DejaVuSans-114"/>
        <path d="M 34.28125 27.484375 
Q 23.390625 27.484375 19.1875 25 
Q 14.984375 22.515625 14.984375 16.5 
Q 14.984375 11.71875 18.140625 8.90625 
Q 21.296875 6.109375 26.703125 6.109375 
Q 34.1875 6.109375 38.703125 11.40625 
Q 43.21875 16.703125 43.21875 25.484375 
L 43.21875 27.484375 
z
M 52.203125 31.203125 
L 52.203125 0 
L 43.21875 0 
L 43.21875 8.296875 
Q 40.140625 3.328125 35.546875 0.953125 
Q 30.953125 -1.421875 24.3125 -1.421875 
Q 15.921875 -1.421875 10.953125 3.296875 
Q 6 8.015625 6 15.921875 
Q 6 25.140625 12.171875 29.828125 
Q 18.359375 34.515625 30.609375 34.515625 
L 43.21875 34.515625 
L 43.21875 35.40625 
Q 43.21875 41.609375 39.140625 45 
Q 35.0625 48.390625 27.6875 48.390625 
Q 23 48.390625 18.546875 47.265625 
Q 14.109375 46.140625 10.015625 43.890625 
L 10.015625 52.203125 
Q 14.9375 54.109375 19.578125 55.046875 
Q 24.21875 56 28.609375 56 
Q 40.484375 56 46.34375 49.84375 
Q 52.203125 43.703125 52.203125 31.203125 
z
" id="DejaVuSans-97"/>
        <path d="M 9.421875 54.6875 
L 18.40625 54.6875 
L 18.40625 0 
L 9.421875 0 
z
M 9.421875 75.984375 
L 18.40625 75.984375 
L 18.40625 64.59375 
L 9.421875 64.59375 
z
" id="DejaVuSans-105"/>
        <path d="M 54.890625 33.015625 
L 54.890625 0 
L 45.90625 0 
L 45.90625 32.71875 
Q 45.90625 40.484375 42.875 44.328125 
Q 39.84375 48.1875 33.796875 48.1875 
Q 26.515625 48.1875 22.3125 43.546875 
Q 18.109375 38.921875 18.109375 30.90625 
L 18.109375 0 
L 9.078125 0 
L 9.078125 54.6875 
L 18.109375 54.6875 
L 18.109375 46.1875 
Q 21.34375 51.125 25.703125 53.5625 
Q 30.078125 56 35.796875 56 
Q 45.21875 56 50.046875 50.171875 
Q 54.890625 44.34375 54.890625 33.015625 
z
" id="DejaVuSans-110"/>
       </defs>
       <use xlink:href="#DejaVuSans-116"/>
       <use x="39.208984" xlink:href="#DejaVuSans-114"/>
       <use x="80.322266" xlink:href="#DejaVuSans-97"/>
       <use x="141.601562" xlink:href="#DejaVuSans-105"/>
       <use x="169.384766" xlink:href="#DejaVuSans-110"/>
      </g>
     </g>
    </g>
    <g id="xtick_2">
     <g id="line2d_2">
      <g>
       <use style="stroke:#000000;stroke-width:0.8;" x="221.4" xlink:href="#m3e3e7f6be0" y="252"/>
      </g>
     </g>
     <g id="text_2">
      <!-- val -->
      <g transform="translate(213.9875 266.598437)scale(0.1 -0.1)">
       <defs>
        <path d="M 2.984375 54.6875 
L 12.5 54.6875 
L 29.59375 8.796875 
L 46.6875 54.6875 
L 56.203125 54.6875 
L 35.6875 0 
L 23.484375 0 
z
" id="DejaVuSans-118"/>
        <path d="M 9.421875 75.984375 
L 18.40625 75.984375 
L 18.40625 0 
L 9.421875 0 
z
" id="DejaVuSans-108"/>
       </defs>
       <use xlink:href="#DejaVuSans-118"/>
       <use x="59.179688" xlink:href="#DejaVuSans-97"/>
       <use x="120.458984" xlink:href="#DejaVuSans-108"/>
      </g>
     </g>
    </g>
    <g id="xtick_3">
     <g id="line2d_3">
      <g>
       <use style="stroke:#000000;stroke-width:0.8;" x="333" xlink:href="#m3e3e7f6be0" y="252"/>
      </g>
     </g>
     <g id="text_3">
      <!-- test -->
      <g transform="translate(323.398438 266.598437)scale(0.1 -0.1)">
       <defs>
        <path d="M 56.203125 29.59375 
L 56.203125 25.203125 
L 14.890625 25.203125 
Q 15.484375 15.921875 20.484375 11.0625 
Q 25.484375 6.203125 34.421875 6.203125 
Q 39.59375 6.203125 44.453125 7.46875 
Q 49.3125 8.734375 54.109375 11.28125 
L 54.109375 2.78125 
Q 49.265625 0.734375 44.1875 -0.34375 
Q 39.109375 -1.421875 33.890625 -1.421875 
Q 20.796875 -1.421875 13.15625 6.1875 
Q 5.515625 13.8125 5.515625 26.8125 
Q 5.515625 40.234375 12.765625 48.109375 
Q 20.015625 56 32.328125 56 
Q 43.359375 56 49.78125 48.890625 
Q 56.203125 41.796875 56.203125 29.59375 
z
M 47.21875 32.234375 
Q 47.125 39.59375 43.09375 43.984375 
Q 39.0625 48.390625 32.421875 48.390625 
Q 24.90625 48.390625 20.390625 44.140625 
Q 15.875 39.890625 15.1875 32.171875 
z
" id="DejaVuSans-101"/>
        <path d="M 44.28125 53.078125 
L 44.28125 44.578125 
Q 40.484375 46.53125 36.375 47.5 
Q 32.28125 48.484375 27.875 48.484375 
Q 21.1875 48.484375 17.84375 46.4375 
Q 14.5 44.390625 14.5 40.28125 
Q 14.5 37.15625 16.890625 35.375 
Q 19.28125 33.59375 26.515625 31.984375 
L 29.59375 31.296875 
Q 39.15625 29.25 43.1875 25.515625 
Q 47.21875 21.78125 47.21875 15.09375 
Q 47.21875 7.46875 41.1875 3.015625 
Q 35.15625 -1.421875 24.609375 -1.421875 
Q 20.21875 -1.421875 15.453125 -0.5625 
Q 10.6875 0.296875 5.421875 2 
L 5.421875 11.28125 
Q 10.40625 8.6875 15.234375 7.390625 
Q 20.0625 6.109375 24.8125 6.109375 
Q 31.15625 6.109375 34.5625 8.28125 
Q 37.984375 10.453125 37.984375 14.40625 
Q 37.984375 18.0625 35.515625 20.015625 
Q 33.0625 21.96875 24.703125 23.78125 
L 21.578125 24.515625 
Q 13.234375 26.265625 9.515625 29.90625 
Q 5.8125 33.546875 5.8125 39.890625 
Q 5.8125 47.609375 11.28125 51.796875 
Q 16.75 56 26.8125 56 
Q 31.78125 56 36.171875 55.265625 
Q 40.578125 54.546875 44.28125 53.078125 
z
" id="DejaVuSans-115"/>
       </defs>
       <use xlink:href="#DejaVuSans-116"/>
       <use x="39.208984" xlink:href="#DejaVuSans-101"/>
       <use x="100.732422" xlink:href="#DejaVuSans-115"/>
       <use x="152.832031" xlink:href="#DejaVuSans-116"/>
      </g>
     </g>
    </g>
    <g id="text_4">
     <!-- set -->
     <g transform="translate(213.758594 280.276563)scale(0.1 -0.1)">
      <use xlink:href="#DejaVuSans-115"/>
      <use x="52.099609" xlink:href="#DejaVuSans-101"/>
      <use x="113.623047" xlink:href="#DejaVuSans-116"/>
     </g>
    </g>
   </g>
   <g id="matplotlib.axis_2">
    <g id="ytick_1">
     <g id="line2d_4">
      <defs>
       <path d="M 0 0 
L -3.5 0 
" id="mb4e388c206" style="stroke:#000000;stroke-width:0.8;"/>
      </defs>
      <g>
       <use style="stroke:#000000;stroke-width:0.8;" x="54" xlink:href="#mb4e388c206" y="241.679865"/>
      </g>
     </g>
     <g id="text_5">
      <!-- −80 -->
      <g transform="translate(25.895312 245.479084)scale(0.1 -0.1)">
       <defs>
        <path d="M 10.59375 35.5 
L 73.1875 35.5 
L 73.1875 27.203125 
L 10.59375 27.203125 
z
" id="DejaVuSans-8722"/>
        <path d="M 31.78125 34.625 
Q 24.75 34.625 20.71875 30.859375 
Q 16.703125 27.09375 16.703125 20.515625 
Q 16.703125 13.921875 20.71875 10.15625 
Q 24.75 6.390625 31.78125 6.390625 
Q 38.8125 6.390625 42.859375 10.171875 
Q 46.921875 13.96875 46.921875 20.515625 
Q 46.921875 27.09375 42.890625 30.859375 
Q 38.875 34.625 31.78125 34.625 
z
M 21.921875 38.8125 
Q 15.578125 40.375 12.03125 44.71875 
Q 8.5 49.078125 8.5 55.328125 
Q 8.5 64.0625 14.71875 69.140625 
Q 20.953125 74.21875 31.78125 74.21875 
Q 42.671875 74.21875 48.875 69.140625 
Q 55.078125 64.0625 55.078125 55.328125 
Q 55.078125 49.078125 51.53125 44.71875 
Q 48 40.375 41.703125 38.8125 
Q 48.828125 37.15625 52.796875 32.3125 
Q 56.78125 27.484375 56.78125 20.515625 
Q 56.78125 9.90625 50.3125 4.234375 
Q 43.84375 -1.421875 31.78125 -1.421875 
Q 19.734375 -1.421875 13.25 4.234375 
Q 6.78125 9.90625 6.78125 20.515625 
Q 6.78125 27.484375 10.78125 32.3125 
Q 14.796875 37.15625 21.921875 38.8125 
z
M 18.3125 54.390625 
Q 18.3125 48.734375 21.84375 45.5625 
Q 25.390625 42.390625 31.78125 42.390625 
Q 38.140625 42.390625 41.71875 45.5625 
Q 45.3125 48.734375 45.3125 54.390625 
Q 45.3125 60.0625 41.71875 63.234375 
Q 38.140625 66.40625 31.78125 66.40625 
Q 25.390625 66.40625 21.84375 63.234375 
Q 18.3125 60.0625 18.3125 54.390625 
z
" id="DejaVuSans-56"/>
        <path d="M 31.78125 66.40625 
Q 24.171875 66.40625 20.328125 58.90625 
Q 16.5 51.421875 16.5 36.375 
Q 16.5 21.390625 20.328125 13.890625 
Q 24.171875 6.390625 31.78125 6.390625 
Q 39.453125 6.390625 43.28125 13.890625 
Q 47.125 21.390625 47.125 36.375 
Q 47.125 51.421875 43.28125 58.90625 
Q 39.453125 66.40625 31.78125 66.40625 
z
M 31.78125 74.21875 
Q 44.046875 74.21875 50.515625 64.515625 
Q 56.984375 54.828125 56.984375 36.375 
Q 56.984375 17.96875 50.515625 8.265625 
Q 44.046875 -1.421875 31.78125 -1.421875 
Q 19.53125 -1.421875 13.0625 8.265625 
Q 6.59375 17.96875 6.59375 36.375 
Q 6.59375 54.828125 13.0625 64.515625 
Q 19.53125 74.21875 31.78125 74.21875 
z
" id="DejaVuSans-48"/>
       </defs>
       <use xlink:href="#DejaVuSans-8722"/>
       <use x="83.789062" xlink:href="#DejaVuSans-56"/>
       <use x="147.412109" xlink:href="#DejaVuSans-48"/>
      </g>
     </g>
    </g>
    <g id="ytick_2">
     <g id="line2d_5">
      <g>
       <use style="stroke:#000000;stroke-width:0.8;" x="54" xlink:href="#mb4e388c206" y="203.659555"/>
      </g>
     </g>
     <g id="text_6">
      <!-- −60 -->
      <g transform="translate(25.895312 207.458774)scale(0.1 -0.1)">
       <defs>
        <path d="M 33.015625 40.375 
Q 26.375 40.375 22.484375 35.828125 
Q 18.609375 31.296875 18.609375 23.390625 
Q 18.609375 15.53125 22.484375 10.953125 
Q 26.375 6.390625 33.015625 6.390625 
Q 39.65625 6.390625 43.53125 10.953125 
Q 47.40625 15.53125 47.40625 23.390625 
Q 47.40625 31.296875 43.53125 35.828125 
Q 39.65625 40.375 33.015625 40.375 
z
M 52.59375 71.296875 
L 52.59375 62.3125 
Q 48.875 64.0625 45.09375 64.984375 
Q 41.3125 65.921875 37.59375 65.921875 
Q 27.828125 65.921875 22.671875 59.328125 
Q 17.53125 52.734375 16.796875 39.40625 
Q 19.671875 43.65625 24.015625 45.921875 
Q 28.375 48.1875 33.59375 48.1875 
Q 44.578125 48.1875 50.953125 41.515625 
Q 57.328125 34.859375 57.328125 23.390625 
Q 57.328125 12.15625 50.6875 5.359375 
Q 44.046875 -1.421875 33.015625 -1.421875 
Q 20.359375 -1.421875 13.671875 8.265625 
Q 6.984375 17.96875 6.984375 36.375 
Q 6.984375 53.65625 15.1875 63.9375 
Q 23.390625 74.21875 37.203125 74.21875 
Q 40.921875 74.21875 44.703125 73.484375 
Q 48.484375 72.75 52.59375 71.296875 
z
" id="DejaVuSans-54"/>
       </defs>
       <use xlink:href="#DejaVuSans-8722"/>
       <use x="83.789062" xlink:href="#DejaVuSans-54"/>
       <use x="147.412109" xlink:href="#DejaVuSans-48"/>
      </g>
     </g>
    </g>
    <g id="ytick_3">
     <g id="line2d_6">
      <g>
       <use style="stroke:#000000;stroke-width:0.8;" x="54" xlink:href="#mb4e388c206" y="165.639245"/>
      </g>
     </g>
     <g id="text_7">
      <!-- −40 -->
      <g transform="translate(25.895312 169.438463)scale(0.1 -0.1)">
       <defs>
        <path d="M 37.796875 64.3125 
L 12.890625 25.390625 
L 37.796875 25.390625 
z
M 35.203125 72.90625 
L 47.609375 72.90625 
L 47.609375 25.390625 
L 58.015625 25.390625 
L 58.015625 17.1875 
L 47.609375 17.1875 
L 47.609375 0 
L 37.796875 0 
L 37.796875 17.1875 
L 4.890625 17.1875 
L 4.890625 26.703125 
z
" id="DejaVuSans-52"/>
       </defs>
       <use xlink:href="#DejaVuSans-8722"/>
       <use x="83.789062" xlink:href="#DejaVuSans-52"/>
       <use x="147.412109" xlink:href="#DejaVuSans-48"/>
      </g>
     </g>
    </g>
    <g id="ytick_4">
     <g id="line2d_7">
      <g>
       <use style="stroke:#000000;stroke-width:0.8;" x="54" xlink:href="#mb4e388c206" y="127.618934"/>
      </g>
     </g>
     <g id="text_8">
      <!-- −20 -->
      <g transform="translate(25.895312 131.418153)scale(0.1 -0.1)">
       <defs>
        <path d="M 19.1875 8.296875 
L 53.609375 8.296875 
L 53.609375 0 
L 7.328125 0 
L 7.328125 8.296875 
Q 12.9375 14.109375 22.625 23.890625 
Q 32.328125 33.6875 34.8125 36.53125 
Q 39.546875 41.84375 41.421875 45.53125 
Q 43.3125 49.21875 43.3125 52.78125 
Q 43.3125 58.59375 39.234375 62.25 
Q 35.15625 65.921875 28.609375 65.921875 
Q 23.96875 65.921875 18.8125 64.3125 
Q 13.671875 62.703125 7.8125 59.421875 
L 7.8125 69.390625 
Q 13.765625 71.78125 18.9375 73 
Q 24.125 74.21875 28.421875 74.21875 
Q 39.75 74.21875 46.484375 68.546875 
Q 53.21875 62.890625 53.21875 53.421875 
Q 53.21875 48.921875 51.53125 44.890625 
Q 49.859375 40.875 45.40625 35.40625 
Q 44.1875 33.984375 37.640625 27.21875 
Q 31.109375 20.453125 19.1875 8.296875 
z
" id="DejaVuSans-50"/>
       </defs>
       <use xlink:href="#DejaVuSans-8722"/>
       <use x="83.789062" xlink:href="#DejaVuSans-50"/>
       <use x="147.412109" xlink:href="#DejaVuSans-48"/>
      </g>
     </g>
    </g>
    <g id="ytick_5">
     <g id="line2d_8">
      <g>
       <use style="stroke:#000000;stroke-width:0.8;" x="54" xlink:href="#mb4e388c206" y="89.598624"/>
      </g>
     </g>
     <g id="text_9">
      <!-- 0 -->
      <g transform="translate(40.6375 93.397842)scale(0.1 -0.1)">
       <use xlink:href="#DejaVuSans-48"/>
      </g>
     </g>
    </g>
    <g id="ytick_6">
     <g id="line2d_9">
      <g>
       <use style="stroke:#000000;stroke-width:0.8;" x="54" xlink:href="#mb4e388c206" y="51.578313"/>
      </g>
     </g>
     <g id="text_10">
      <!-- 20 -->
      <g transform="translate(34.275 55.377532)scale(0.1 -0.1)">
       <use xlink:href="#DejaVuSans-50"/>
       <use x="63.623047" xlink:href="#DejaVuSans-48"/>
      </g>
     </g>
    </g>
    <g id="text_11">
     <!-- value -->
     <g transform="translate(19.815625 156.937813)rotate(-90)scale(0.1 -0.1)">
      <defs>
       <path d="M 8.5 21.578125 
L 8.5 54.6875 
L 17.484375 54.6875 
L 17.484375 21.921875 
Q 17.484375 14.15625 20.5 10.265625 
Q 23.53125 6.390625 29.59375 6.390625 
Q 36.859375 6.390625 41.078125 11.03125 
Q 45.3125 15.671875 45.3125 23.6875 
L 45.3125 54.6875 
L 54.296875 54.6875 
L 54.296875 0 
L 45.3125 0 
L 45.3125 8.40625 
Q 42.046875 3.421875 37.71875 1 
Q 33.40625 -1.421875 27.6875 -1.421875 
Q 18.265625 -1.421875 13.375 4.4375 
Q 8.5 10.296875 8.5 21.578125 
z
M 31.109375 56 
z
" id="DejaVuSans-117"/>
      </defs>
      <use xlink:href="#DejaVuSans-118"/>
      <use x="59.179688" xlink:href="#DejaVuSans-97"/>
      <use x="120.458984" xlink:href="#DejaVuSans-108"/>
      <use x="148.242188" xlink:href="#DejaVuSans-117"/>
      <use x="211.621094" xlink:href="#DejaVuSans-101"/>
     </g>
    </g>
   </g>
   <g id="line2d_10">
    <path clip-path="url(#p915af088c1)" d="M 80.04 172.096581 
L 80.04 72.090683 
" style="fill:none;stroke:#3d3d3d;stroke-linecap:square;stroke-width:1.5;"/>
   </g>
   <g id="line2d_11">
    <path clip-path="url(#p915af088c1)" d="M 80.04 134.466196 
L 80.04 109.276171 
" style="fill:none;stroke:#3d3d3d;stroke-linecap:square;stroke-width:4.5;"/>
   </g>
   <g id="line2d_12">
    <path clip-path="url(#p915af088c1)" d="M 221.4 187.091499 
L 221.4 44.443636 
" style="fill:none;stroke:#3d3d3d;stroke-linecap:square;stroke-width:1.5;"/>
   </g>
   <g id="line2d_13">
    <path clip-path="url(#p915af088c1)" d="M 221.4 132.978439 
L 221.4 96.751296 
" style="fill:none;stroke:#3d3d3d;stroke-linecap:square;stroke-width:4.5;"/>
   </g>
   <g id="line2d_14">
    <path clip-path="url(#p915af088c1)" d="M 362.76 182.644525 
L 362.76 51.54587 
" style="fill:none;stroke:#3d3d3d;stroke-linecap:square;stroke-width:1.5;"/>
   </g>
   <g id="line2d_15">
    <path clip-path="url(#p915af088c1)" d="M 362.76 131.82356 
L 362.76 97.635462 
" style="fill:none;stroke:#3d3d3d;stroke-linecap:square;stroke-width:4.5;"/>
   </g>
   <g id="patch_6">
    <path d="M 54 252 
L 54 34.56 
" style="fill:none;stroke:#000000;stroke-linecap:square;stroke-linejoin:miter;stroke-width:0.8;"/>
   </g>
   <g id="patch_7">
    <path d="M 388.8 252 
L 388.8 34.56 
" style="fill:none;stroke:#000000;stroke-linecap:square;stroke-linejoin:miter;stroke-width:0.8;"/>
   </g>
   <g id="patch_8">
    <path d="M 54 252 
L 388.8 252 
" style="fill:none;stroke:#000000;stroke-linecap:square;stroke-linejoin:miter;stroke-width:0.8;"/>
   </g>
   <g id="patch_9">
    <path d="M 54 34.56 
L 388.8 34.56 
" style="fill:none;stroke:#000000;stroke-linecap:square;stroke-linejoin:miter;stroke-width:0.8;"/>
   </g>
   <g id="PathCollection_1">
    <defs>
     <path d="M 0 1.5 
C 0.397805 1.5 0.77937 1.341951 1.06066 1.06066 
C 1.341951 0.77937 1.5 0.397805 1.5 0 
C 1.5 -0.397805 1.341951 -0.77937 1.06066 -1.06066 
C 0.77937 -1.341951 0.397805 -1.5 0 -1.5 
C -0.397805 -1.5 -0.77937 -1.341951 -1.06066 -1.06066 
C -1.341951 -0.77937 -1.5 -0.397805 -1.5 0 
C -1.5 0.397805 -1.341951 0.77937 -1.06066 1.06066 
C -0.77937 1.341951 -0.397805 1.5 0 1.5 
z
" id="m722a124312" style="stroke:#3d3d3d;"/>
    </defs>
    <g clip-path="url(#p915af088c1)">
     <use style="fill:#ffffff;stroke:#3d3d3d;" x="80.04" xlink:href="#m722a124312" y="120.925039"/>
    </g>
   </g>
   <g id="PathCollection_2">
    <g clip-path="url(#p915af088c1)">
     <use style="fill:#ffffff;stroke:#3d3d3d;" x="221.4" xlink:href="#m722a124312" y="116.830769"/>
    </g>
   </g>
   <g id="PathCollection_3">
    <g clip-path="url(#p915af088c1)">
     <use style="fill:#ffffff;stroke:#3d3d3d;" x="362.76" xlink:href="#m722a124312" y="115.733787"/>
    </g>
   </g>
   <g id="legend_1">
    <g id="patch_10">
     <path d="M 61 247 
L 116.275 247 
Q 118.275 247 118.275 245 
L 118.275 187.2875 
Q 118.275 185.2875 116.275 185.2875 
L 61 185.2875 
Q 59 185.2875 59 187.2875 
L 59 245 
Q 59 247 61 247 
z
" style="fill:#ffffff;opacity:0.8;stroke:#cccccc;stroke-linejoin:miter;"/>
    </g>
    <g id="text_12">
     <!-- set -->
     <g transform="translate(80.996094 196.885938)scale(0.1 -0.1)">
      <use xlink:href="#DejaVuSans-115"/>
      <use x="52.099609" xlink:href="#DejaVuSans-101"/>
      <use x="113.623047" xlink:href="#DejaVuSans-116"/>
     </g>
    </g>
    <g id="patch_11">
     <path d="M 63 211.564063 
L 83 211.564063 
L 83 204.564063 
L 63 204.564063 
z
" style="fill:#3274a1;stroke:#3d3d3d;stroke-linejoin:miter;stroke-width:0.75;"/>
    </g>
    <g id="text_13">
     <!-- train -->
     <g transform="translate(91 211.564063)scale(0.1 -0.1)">
      <use xlink:href="#DejaVuSans-116"/>
      <use x="39.208984" xlink:href="#DejaVuSans-114"/>
      <use x="80.322266" xlink:href="#DejaVuSans-97"/>
      <use x="141.601562" xlink:href="#DejaVuSans-105"/>
      <use x="169.384766" xlink:href="#DejaVuSans-110"/>
     </g>
    </g>
    <g id="patch_12">
     <path d="M 63 226.242188 
L 83 226.242188 
L 83 219.242188 
L 63 219.242188 
z
" style="fill:#e1812c;stroke:#3d3d3d;stroke-linejoin:miter;stroke-width:0.75;"/>
    </g>
    <g id="text_14">
     <!-- val -->
     <g transform="translate(91 226.242188)scale(0.1 -0.1)">
      <use xlink:href="#DejaVuSans-118"/>
      <use x="59.179688" xlink:href="#DejaVuSans-97"/>
      <use x="120.458984" xlink:href="#DejaVuSans-108"/>
     </g>
    </g>
    <g id="patch_13">
     <path d="M 63 240.920313 
L 83 240.920313 
L 83 233.920313 
L 63 233.920313 
z
" style="fill:#3a923a;stroke:#3d3d3d;stroke-linejoin:miter;stroke-width:0.75;"/>
    </g>
    <g id="text_15">
     <!-- test -->
     <g transform="translate(91 240.920313)scale(0.1 -0.1)">
      <use xlink:href="#DejaVuSans-116"/>
      <use x="39.208984" xlink:href="#DejaVuSans-101"/>
      <use x="100.732422" xlink:href="#DejaVuSans-115"/>
      <use x="152.832031" xlink:href="#DejaVuSans-116"/>
     </g>
    </g>
   </g>
  </g>
 </g>
 <defs>
  <clipPath id="p915af088c1">
   <rect height="217.44" width="334.8" x="54" y="34.56"/>
  </clipPath>
 </defs>
</svg>
