<?xml version="1.0" encoding="utf-8" standalone="no"?>
<!DOCTYPE svg PUBLIC "-//W3C//DTD SVG 1.1//EN"
  "http://www.w3.org/Graphics/SVG/1.1/DTD/svg11.dtd">
<!-- Created with matplotlib (https://matplotlib.org/) -->
<svg height="288pt" version="1.1" viewBox="0 0 432 288" width="432pt" xmlns="http://www.w3.org/2000/svg" xmlns:xlink="http://www.w3.org/1999/xlink">
 <metadata>
  <rdf:RDF xmlns:cc="http://creativecommons.org/ns#" xmlns:dc="http://purl.org/dc/elements/1.1/" xmlns:rdf="http://www.w3.org/1999/02/22-rdf-syntax-ns#">
   <cc:Work>
    <dc:type rdf:resource="http://purl.org/dc/dcmitype/StillImage"/>
    <dc:date>2022-04-14T11:57:46.848556</dc:date>
    <dc:format>image/svg+xml</dc:format>
    <dc:creator>
     <cc:Agent>
      <dc:title>Matplotlib v3.3.4, https://matplotlib.org/</dc:title>
     </cc:Agent>
    </dc:creator>
   </cc:Work>
  </rdf:RDF>
 </metadata>
 <defs>
  <style type="text/css">*{stroke-linecap:butt;stroke-linejoin:round;}</style>
 </defs>
 <g id="figure_1">
  <g id="patch_1">
   <path d="M 0 288 
L 432 288 
L 432 0 
L 0 0 
z
" style="fill:#ffffff;"/>
  </g>
  <g id="axes_1">
   <g id="patch_2">
    <path d="M 54 252 
L 388.8 252 
L 388.8 34.56 
L 54 34.56 
z
" style="fill:#ffffff;"/>
   </g>
   <g id="PolyCollection_1">
    <defs>
     <path d="M 80.073878 -67.956724 
L 80.006122 -67.956724 
L 80.00217 -69.454924 
L 80.001576 -70.953124 
L 80.004387 -72.451324 
L 80.010299 -73.949524 
L 80.018211 -75.447724 
L 80.026237 -76.945924 
L 80.032608 -78.444124 
L 80.036536 -79.942324 
L 80.038114 -81.440524 
L 80.037476 -82.938724 
L 80.034072 -84.436924 
L 80.026762 -85.935124 
L 80.014924 -87.433324 
L 79.999783 -88.931524 
L 79.984386 -90.429724 
L 79.971515 -91.927924 
L 79.96163 -93.426124 
L 79.953548 -94.924324 
L 79.946906 -96.422524 
L 79.942293 -97.920724 
L 79.937942 -99.418924 
L 79.927186 -100.917124 
L 79.900673 -102.415324 
L 79.852156 -103.913524 
L 79.783869 -105.411724 
L 79.708436 -106.909924 
L 79.645316 -108.408124 
L 79.610924 -109.906324 
L 79.605665 -111.404524 
L 79.605857 -112.902724 
L 79.567736 -114.400924 
L 79.443134 -115.899124 
L 79.197713 -117.397324 
L 78.81993 -118.895524 
L 78.314995 -120.393724 
L 77.690022 -121.891924 
L 76.945221 -123.390124 
L 76.080612 -124.888324 
L 75.109984 -126.386524 
L 74.063177 -127.884724 
L 72.969522 -129.382924 
L 71.838948 -130.881124 
L 70.66708 -132.379324 
L 69.471033 -133.877524 
L 68.325119 -135.375724 
L 67.349961 -136.873924 
L 66.645245 -138.372124 
L 66.21836 -139.870324 
L 65.977516 -141.368524 
L 65.799419 -142.866724 
L 65.60898 -144.364924 
L 65.406209 -145.863124 
L 65.238558 -147.361324 
L 65.16 -148.859524 
L 65.202283 -150.357724 
L 65.359178 -151.855924 
L 65.58887 -153.354124 
L 65.84329 -154.852324 
L 66.108263 -156.350524 
L 66.415197 -157.848724 
L 66.807603 -159.346924 
L 67.298162 -160.845124 
L 67.865709 -162.343324 
L 68.491169 -163.841524 
L 69.182438 -165.339724 
L 69.955966 -166.837924 
L 70.799982 -168.336124 
L 71.666371 -169.834324 
L 72.5014 -171.332524 
L 73.277526 -172.830724 
L 73.989938 -174.328923 
L 74.63048 -175.827123 
L 75.180551 -177.325323 
L 75.633641 -178.823523 
L 76.014941 -180.321723 
L 76.370511 -181.819923 
L 76.737443 -183.318123 
L 77.12386 -184.816323 
L 77.511213 -186.314523 
L 77.870916 -187.812723 
L 78.181568 -189.310923 
L 78.4374 -190.809123 
L 78.64617 -192.307323 
L 78.821157 -193.805523 
L 78.973251 -195.303723 
L 79.10668 -196.801923 
L 79.220453 -198.300123 
L 79.315158 -199.798323 
L 79.398878 -201.296523 
L 79.484639 -202.794723 
L 79.580803 -204.292923 
L 79.684334 -205.791123 
L 79.783233 -207.289323 
L 79.864663 -208.787523 
L 79.921758 -210.285723 
L 79.955689 -211.783923 
L 79.973537 -213.282123 
L 79.98409 -214.780323 
L 79.993856 -216.278523 
L 80.086144 -216.278523 
L 80.086144 -216.278523 
L 80.09591 -214.780323 
L 80.106463 -213.282123 
L 80.124311 -211.783923 
L 80.158242 -210.285723 
L 80.215337 -208.787523 
L 80.296767 -207.289323 
L 80.395666 -205.791123 
L 80.499197 -204.292923 
L 80.595361 -202.794723 
L 80.681122 -201.296523 
L 80.764842 -199.798323 
L 80.859547 -198.300123 
L 80.97332 -196.801923 
L 81.106749 -195.303723 
L 81.258843 -193.805523 
L 81.43383 -192.307323 
L 81.6426 -190.809123 
L 81.898432 -189.310923 
L 82.209084 -187.812723 
L 82.568787 -186.314523 
L 82.95614 -184.816323 
L 83.342557 -183.318123 
L 83.709489 -181.819923 
L 84.065059 -180.321723 
L 84.446359 -178.823523 
L 84.899449 -177.325323 
L 85.44952 -175.827123 
L 86.090062 -174.328923 
L 86.802474 -172.830724 
L 87.5786 -171.332524 
L 88.413629 -169.834324 
L 89.280018 -168.336124 
L 90.124034 -166.837924 
L 90.897562 -165.339724 
L 91.588831 -163.841524 
L 92.214291 -162.343324 
L 92.781838 -160.845124 
L 93.272397 -159.346924 
L 93.664803 -157.848724 
L 93.971737 -156.350524 
L 94.23671 -154.852324 
L 94.49113 -153.354124 
L 94.720822 -151.855924 
L 94.877717 -150.357724 
L 94.92 -148.859524 
L 94.841442 -147.361324 
L 94.673791 -145.863124 
L 94.47102 -144.364924 
L 94.280581 -142.866724 
L 94.102484 -141.368524 
L 93.86164 -139.870324 
L 93.434755 -138.372124 
L 92.730039 -136.873924 
L 91.754881 -135.375724 
L 90.608967 -133.877524 
L 89.41292 -132.379324 
L 88.241052 -130.881124 
L 87.110478 -129.382924 
L 86.016823 -127.884724 
L 84.970016 -126.386524 
L 83.999388 -124.888324 
L 83.134779 -123.390124 
L 82.389978 -121.891924 
L 81.765005 -120.393724 
L 81.26007 -118.895524 
L 80.882287 -117.397324 
L 80.636866 -115.899124 
L 80.512264 -114.400924 
L 80.474143 -112.902724 
L 80.474335 -111.404524 
L 80.469076 -109.906324 
L 80.434684 -108.408124 
L 80.371564 -106.909924 
L 80.296131 -105.411724 
L 80.227844 -103.913524 
L 80.179327 -102.415324 
L 80.152814 -100.917124 
L 80.142058 -99.418924 
L 80.137707 -97.920724 
L 80.133094 -96.422524 
L 80.126452 -94.924324 
L 80.11837 -93.426124 
L 80.108485 -91.927924 
L 80.095614 -90.429724 
L 80.080217 -88.931524 
L 80.065076 -87.433324 
L 80.053238 -85.935124 
L 80.045928 -84.436924 
L 80.042524 -82.938724 
L 80.041886 -81.440524 
L 80.043464 -79.942324 
L 80.047392 -78.444124 
L 80.053763 -76.945924 
L 80.061789 -75.447724 
L 80.069701 -73.949524 
L 80.075613 -72.451324 
L 80.078424 -70.953124 
L 80.07783 -69.454924 
L 80.073878 -67.956724 
z
" id="m2caa6a8a89" style="stroke:#3d3d3d;stroke-width:1.5;"/>
    </defs>
    <g clip-path="url(#pb1c62df806)">
     <use style="fill:#3274a1;stroke:#3d3d3d;stroke-width:1.5;" x="0" xlink:href="#m2caa6a8a89" y="288"/>
    </g>
   </g>
   <g id="PolyCollection_2">
    <defs>
     <path d="M 221.426606 -68.403925 
L 221.373394 -68.403925 
L 221.374706 -70.158825 
L 221.378254 -71.913726 
L 221.381953 -73.668626 
L 221.38367 -75.423527 
L 221.382213 -77.178427 
L 221.377701 -78.933327 
L 221.371106 -80.688228 
L 221.363296 -82.443128 
L 221.354302 -84.198029 
L 221.343645 -85.952929 
L 221.331652 -87.707829 
L 221.320512 -89.46273 
L 221.313464 -91.21763 
L 221.312086 -92.972531 
L 221.31369 -94.727431 
L 221.3113 -96.482331 
L 221.296788 -98.237232 
L 221.265219 -99.992132 
L 221.217309 -101.747033 
L 221.157959 -103.501933 
L 221.091059 -105.256833 
L 221.01287 -107.011734 
L 220.906789 -108.766634 
L 220.741538 -110.521535 
L 220.473814 -112.276435 
L 220.056143 -114.031335 
L 219.449576 -115.786236 
L 218.63758 -117.541136 
L 217.634019 -119.296037 
L 216.479524 -121.050937 
L 215.228276 -122.805837 
L 213.934994 -124.560738 
L 212.65094 -126.315638 
L 211.427575 -128.070539 
L 210.317534 -129.825439 
L 209.365563 -131.580339 
L 208.59453 -133.33524 
L 207.999521 -135.09014 
L 207.556682 -136.845041 
L 207.239492 -138.599941 
L 207.028773 -140.354841 
L 206.90991 -142.109742 
L 206.862836 -143.864642 
L 206.855746 -145.619543 
L 206.849646 -147.374443 
L 206.812562 -149.129343 
L 206.734917 -150.884244 
L 206.635303 -152.639144 
L 206.551266 -154.394045 
L 206.52 -156.148945 
L 206.561185 -157.903845 
L 206.672622 -159.658746 
L 206.840348 -161.413646 
L 207.05522 -163.168547 
L 207.323953 -164.923447 
L 207.666876 -166.678348 
L 208.104299 -168.433248 
L 208.641572 -170.188148 
L 209.263401 -171.943049 
L 209.939988 -173.697949 
L 210.638329 -175.45285 
L 211.330186 -177.20775 
L 211.994453 -178.96265 
L 212.617719 -180.717551 
L 213.195864 -182.472451 
L 213.734544 -184.227352 
L 214.244958 -185.982252 
L 214.735784 -187.737152 
L 215.207212 -189.492053 
L 215.652339 -191.246953 
L 216.064914 -193.001854 
L 216.446487 -194.756754 
L 216.806622 -196.511654 
L 217.156578 -198.266555 
L 217.502667 -200.021455 
L 217.844464 -201.776356 
L 218.177407 -203.531256 
L 218.496205 -205.286156 
L 218.797057 -207.041057 
L 219.078932 -208.795957 
L 219.343737 -210.550858 
L 219.594343 -212.305758 
L 219.830838 -214.060658 
L 220.04795 -215.815559 
L 220.236621 -217.570459 
L 220.389547 -219.32536 
L 220.506917 -221.08026 
L 220.597992 -222.83516 
L 220.677259 -224.590061 
L 220.757935 -226.344961 
L 220.847054 -228.099862 
L 220.944253 -229.854762 
L 221.043439 -231.609662 
L 221.135609 -233.364563 
L 221.212046 -235.119463 
L 221.267519 -236.874364 
L 221.302403 -238.629264 
L 221.322266 -240.384164 
L 221.33484 -242.139065 
L 221.46516 -242.139065 
L 221.46516 -242.139065 
L 221.477734 -240.384164 
L 221.497597 -238.629264 
L 221.532481 -236.874364 
L 221.587954 -235.119463 
L 221.664391 -233.364563 
L 221.756561 -231.609662 
L 221.855747 -229.854762 
L 221.952946 -228.099862 
L 222.042065 -226.344961 
L 222.122741 -224.590061 
L 222.202008 -222.83516 
L 222.293083 -221.08026 
L 222.410453 -219.32536 
L 222.563379 -217.570459 
L 222.75205 -215.815559 
L 222.969162 -214.060658 
L 223.205657 -212.305758 
L 223.456263 -210.550858 
L 223.721068 -208.795957 
L 224.002943 -207.041057 
L 224.303795 -205.286156 
L 224.622593 -203.531256 
L 224.955536 -201.776356 
L 225.297333 -200.021455 
L 225.643422 -198.266555 
L 225.993378 -196.511654 
L 226.353513 -194.756754 
L 226.735086 -193.001854 
L 227.147661 -191.246953 
L 227.592788 -189.492053 
L 228.064216 -187.737152 
L 228.555042 -185.982252 
L 229.065456 -184.227352 
L 229.604136 -182.472451 
L 230.182281 -180.717551 
L 230.805547 -178.96265 
L 231.469814 -177.20775 
L 232.161671 -175.45285 
L 232.860012 -173.697949 
L 233.536599 -171.943049 
L 234.158428 -170.188148 
L 234.695701 -168.433248 
L 235.133124 -166.678348 
L 235.476047 -164.923447 
L 235.74478 -163.168547 
L 235.959652 -161.413646 
L 236.127378 -159.658746 
L 236.238815 -157.903845 
L 236.28 -156.148945 
L 236.248734 -154.394045 
L 236.164697 -152.639144 
L 236.065083 -150.884244 
L 235.987438 -149.129343 
L 235.950354 -147.374443 
L 235.944254 -145.619543 
L 235.937164 -143.864642 
L 235.89009 -142.109742 
L 235.771227 -140.354841 
L 235.560508 -138.599941 
L 235.243318 -136.845041 
L 234.800479 -135.09014 
L 234.20547 -133.33524 
L 233.434437 -131.580339 
L 232.482466 -129.825439 
L 231.372425 -128.070539 
L 230.14906 -126.315638 
L 228.865006 -124.560738 
L 227.571724 -122.805837 
L 226.320476 -121.050937 
L 225.165981 -119.296037 
L 224.16242 -117.541136 
L 223.350424 -115.786236 
L 222.743857 -114.031335 
L 222.326186 -112.276435 
L 222.058462 -110.521535 
L 221.893211 -108.766634 
L 221.78713 -107.011734 
L 221.708941 -105.256833 
L 221.642041 -103.501933 
L 221.582691 -101.747033 
L 221.534781 -99.992132 
L 221.503212 -98.237232 
L 221.4887 -96.482331 
L 221.48631 -94.727431 
L 221.487914 -92.972531 
L 221.486536 -91.21763 
L 221.479488 -89.46273 
L 221.468348 -87.707829 
L 221.456355 -85.952929 
L 221.445698 -84.198029 
L 221.436704 -82.443128 
L 221.428894 -80.688228 
L 221.422299 -78.933327 
L 221.417787 -77.178427 
L 221.41633 -75.423527 
L 221.418047 -73.668626 
L 221.421746 -71.913726 
L 221.425294 -70.158825 
L 221.426606 -68.403925 
z
" id="m8c4fdcbe3a" style="stroke:#3d3d3d;stroke-width:1.5;"/>
    </defs>
    <g clip-path="url(#pb1c62df806)">
     <use style="fill:#e1812c;stroke:#3d3d3d;stroke-width:1.5;" x="0" xlink:href="#m8c4fdcbe3a" y="288"/>
    </g>
   </g>
   <g id="PolyCollection_3">
    <defs>
     <path d="M 362.786086 -45.883636 
L 362.733914 -45.883636 
L 362.736316 -47.880331 
L 362.74221 -49.877025 
L 362.748613 -51.873719 
L 362.75275 -53.870413 
L 362.753014 -55.867107 
L 362.748825 -57.863802 
L 362.740526 -59.860496 
L 362.729796 -61.85719 
L 362.719767 -63.853884 
L 362.71402 -65.850579 
L 362.714812 -67.847273 
L 362.721835 -69.843967 
L 362.73241 -71.840661 
L 362.743036 -73.837355 
L 362.751186 -75.83405 
L 362.756126 -77.830744 
L 362.758427 -79.827438 
L 362.758888 -81.824132 
L 362.757671 -83.820826 
L 362.753974 -85.817521 
L 362.746282 -87.814215 
L 362.73326 -89.810909 
L 362.715089 -91.807603 
L 362.694507 -93.804298 
L 362.676574 -95.800992 
L 362.666482 -97.797686 
L 362.66571 -99.79438 
L 362.668429 -101.791074 
L 362.660989 -103.787769 
L 362.624659 -105.784463 
L 362.536835 -107.781157 
L 362.365453 -109.777851 
L 362.059973 -111.774545 
L 361.553769 -113.77124 
L 360.791164 -115.767934 
L 359.770236 -117.764628 
L 358.567526 -119.761322 
L 357.314246 -121.758017 
L 356.132085 -123.754711 
L 355.075488 -125.751405 
L 354.124477 -127.748099 
L 353.227278 -129.744793 
L 352.350113 -131.741488 
L 351.496985 -133.738182 
L 350.701538 -135.734876 
L 350.009657 -137.73157 
L 349.455298 -139.728264 
L 349.033264 -141.724959 
L 348.69668 -143.721653 
L 348.396287 -145.718347 
L 348.12844 -147.715041 
L 347.939609 -149.711736 
L 347.88 -151.70843 
L 347.955387 -153.705124 
L 348.128956 -155.701818 
L 348.368231 -157.698512 
L 348.680441 -159.695207 
L 349.096147 -161.691901 
L 349.621597 -163.688595 
L 350.209211 -165.685289 
L 350.772047 -167.681983 
L 351.229847 -169.678678 
L 351.552202 -171.675372 
L 351.769373 -173.672066 
L 351.950157 -175.66876 
L 352.17207 -177.665455 
L 352.505158 -179.662149 
L 353.005062 -181.658843 
L 353.696658 -183.655537 
L 354.548053 -185.652231 
L 355.464904 -187.648926 
L 356.330512 -189.64562 
L 357.07149 -191.642314 
L 357.694984 -193.639008 
L 358.264526 -195.635702 
L 358.836901 -197.632397 
L 359.416344 -199.629091 
L 359.961749 -201.625785 
L 360.429527 -203.622479 
L 360.806372 -205.619174 
L 361.108318 -207.615868 
L 361.359925 -209.612562 
L 361.577958 -211.609256 
L 361.768661 -213.60595 
L 361.932073 -215.602645 
L 362.065464 -217.599339 
L 362.166166 -219.596033 
L 362.237379 -221.592727 
L 362.293178 -223.589421 
L 362.354031 -225.586116 
L 362.43304 -227.58281 
L 362.525728 -229.579504 
L 362.614217 -231.576198 
L 362.681274 -233.572893 
L 362.720577 -235.569587 
L 362.73655 -237.566281 
L 362.738445 -239.562975 
L 362.73534 -241.559669 
L 362.733705 -243.556364 
L 362.786295 -243.556364 
L 362.786295 -243.556364 
L 362.78466 -241.559669 
L 362.781555 -239.562975 
L 362.78345 -237.566281 
L 362.799423 -235.569587 
L 362.838726 -233.572893 
L 362.905783 -231.576198 
L 362.994272 -229.579504 
L 363.08696 -227.58281 
L 363.165969 -225.586116 
L 363.226822 -223.589421 
L 363.282621 -221.592727 
L 363.353834 -219.596033 
L 363.454536 -217.599339 
L 363.587927 -215.602645 
L 363.751339 -213.60595 
L 363.942042 -211.609256 
L 364.160075 -209.612562 
L 364.411682 -207.615868 
L 364.713628 -205.619174 
L 365.090473 -203.622479 
L 365.558251 -201.625785 
L 366.103656 -199.629091 
L 366.683099 -197.632397 
L 367.255474 -195.635702 
L 367.825016 -193.639008 
L 368.44851 -191.642314 
L 369.189488 -189.64562 
L 370.055096 -187.648926 
L 370.971947 -185.652231 
L 371.823342 -183.655537 
L 372.514938 -181.658843 
L 373.014842 -179.662149 
L 373.34793 -177.665455 
L 373.569843 -175.66876 
L 373.750627 -173.672066 
L 373.967798 -171.675372 
L 374.290153 -169.678678 
L 374.747953 -167.681983 
L 375.310789 -165.685289 
L 375.898403 -163.688595 
L 376.423853 -161.691901 
L 376.839559 -159.695207 
L 377.151769 -157.698512 
L 377.391044 -155.701818 
L 377.564613 -153.705124 
L 377.64 -151.70843 
L 377.580391 -149.711736 
L 377.39156 -147.715041 
L 377.123713 -145.718347 
L 376.82332 -143.721653 
L 376.486736 -141.724959 
L 376.064702 -139.728264 
L 375.510343 -137.73157 
L 374.818462 -135.734876 
L 374.023015 -133.738182 
L 373.169887 -131.741488 
L 372.292722 -129.744793 
L 371.395523 -127.748099 
L 370.444512 -125.751405 
L 369.387915 -123.754711 
L 368.205754 -121.758017 
L 366.952474 -119.761322 
L 365.749764 -117.764628 
L 364.728836 -115.767934 
L 363.966231 -113.77124 
L 363.460027 -111.774545 
L 363.154547 -109.777851 
L 362.983165 -107.781157 
L 362.895341 -105.784463 
L 362.859011 -103.787769 
L 362.851571 -101.791074 
L 362.85429 -99.79438 
L 362.853518 -97.797686 
L 362.843426 -95.800992 
L 362.825493 -93.804298 
L 362.804911 -91.807603 
L 362.78674 -89.810909 
L 362.773718 -87.814215 
L 362.766026 -85.817521 
L 362.762329 -83.820826 
L 362.761112 -81.824132 
L 362.761573 -79.827438 
L 362.763874 -77.830744 
L 362.768814 -75.83405 
L 362.776964 -73.837355 
L 362.78759 -71.840661 
L 362.798165 -69.843967 
L 362.805188 -67.847273 
L 362.80598 -65.850579 
L 362.800233 -63.853884 
L 362.790204 -61.85719 
L 362.779474 -59.860496 
L 362.771175 -57.863802 
L 362.766986 -55.867107 
L 362.76725 -53.870413 
L 362.771387 -51.873719 
L 362.77779 -49.877025 
L 362.783684 -47.880331 
L 362.786086 -45.883636 
z
" id="mc152f02e22" style="stroke:#3d3d3d;stroke-width:1.5;"/>
    </defs>
    <g clip-path="url(#pb1c62df806)">
     <use style="fill:#3a923a;stroke:#3d3d3d;stroke-width:1.5;" x="0" xlink:href="#mc152f02e22" y="288"/>
    </g>
   </g>
   <g id="patch_3">
    <path clip-path="url(#pb1c62df806)" d="M 109.8 168.589016 
L 109.8 168.589016 
L 109.8 168.589016 
L 109.8 168.589016 
z
" style="fill:#3274a1;stroke:#3d3d3d;stroke-linejoin:miter;stroke-width:0.75;"/>
   </g>
   <g id="patch_4">
    <path clip-path="url(#pb1c62df806)" d="M 109.8 168.589016 
L 109.8 168.589016 
L 109.8 168.589016 
L 109.8 168.589016 
z
" style="fill:#e1812c;stroke:#3d3d3d;stroke-linejoin:miter;stroke-width:0.75;"/>
   </g>
   <g id="patch_5">
    <path clip-path="url(#pb1c62df806)" d="M 109.8 168.589016 
L 109.8 168.589016 
L 109.8 168.589016 
L 109.8 168.589016 
z
" style="fill:#3a923a;stroke:#3d3d3d;stroke-linejoin:miter;stroke-width:0.75;"/>
   </g>
   <g id="matplotlib.axis_1">
    <g id="xtick_1">
     <g id="line2d_1">
      <defs>
       <path d="M 0 0 
L 0 3.5 
" id="ma65bde9562" style="stroke:#000000;stroke-width:0.8;"/>
      </defs>
      <g>
       <use style="stroke:#000000;stroke-width:0.8;" x="109.8" xlink:href="#ma65bde9562" y="252"/>
      </g>
     </g>
     <g id="text_1">
      <!-- Z_1_zero -->
      <g transform="translate(87.490625 266.320312)scale(0.1 -0.1)">
       <defs>
        <path d="M 5.609375 72.90625 
L 62.890625 72.90625 
L 62.890625 65.375 
L 16.796875 8.296875 
L 64.015625 8.296875 
L 64.015625 0 
L 4.5 0 
L 4.5 7.515625 
L 50.59375 64.59375 
L 5.609375 64.59375 
z
" id="DejaVuSans-90"/>
        <path d="M 50.984375 -16.609375 
L 50.984375 -23.578125 
L -0.984375 -23.578125 
L -0.984375 -16.609375 
z
" id="DejaVuSans-95"/>
        <path d="M 12.40625 8.296875 
L 28.515625 8.296875 
L 28.515625 63.921875 
L 10.984375 60.40625 
L 10.984375 69.390625 
L 28.421875 72.90625 
L 38.28125 72.90625 
L 38.28125 8.296875 
L 54.390625 8.296875 
L 54.390625 0 
L 12.40625 0 
z
" id="DejaVuSans-49"/>
        <path d="M 5.515625 54.6875 
L 48.1875 54.6875 
L 48.1875 46.484375 
L 14.40625 7.171875 
L 48.1875 7.171875 
L 48.1875 0 
L 4.296875 0 
L 4.296875 8.203125 
L 38.09375 47.515625 
L 5.515625 47.515625 
z
" id="DejaVuSans-122"/>
        <path d="M 56.203125 29.59375 
L 56.203125 25.203125 
L 14.890625 25.203125 
Q 15.484375 15.921875 20.484375 11.0625 
Q 25.484375 6.203125 34.421875 6.203125 
Q 39.59375 6.203125 44.453125 7.46875 
Q 49.3125 8.734375 54.109375 11.28125 
L 54.109375 2.78125 
Q 49.265625 0.734375 44.1875 -0.34375 
Q 39.109375 -1.421875 33.890625 -1.421875 
Q 20.796875 -1.421875 13.15625 6.1875 
Q 5.515625 13.8125 5.515625 26.8125 
Q 5.515625 40.234375 12.765625 48.109375 
Q 20.015625 56 32.328125 56 
Q 43.359375 56 49.78125 48.890625 
Q 56.203125 41.796875 56.203125 29.59375 
z
M 47.21875 32.234375 
Q 47.125 39.59375 43.09375 43.984375 
Q 39.0625 48.390625 32.421875 48.390625 
Q 24.90625 48.390625 20.390625 44.140625 
Q 15.875 39.890625 15.1875 32.171875 
z
" id="DejaVuSans-101"/>
        <path d="M 41.109375 46.296875 
Q 39.59375 47.171875 37.8125 47.578125 
Q 36.03125 48 33.890625 48 
Q 26.265625 48 22.1875 43.046875 
Q 18.109375 38.09375 18.109375 28.8125 
L 18.109375 0 
L 9.078125 0 
L 9.078125 54.6875 
L 18.109375 54.6875 
L 18.109375 46.1875 
Q 20.953125 51.171875 25.484375 53.578125 
Q 30.03125 56 36.53125 56 
Q 37.453125 56 38.578125 55.875 
Q 39.703125 55.765625 41.0625 55.515625 
z
" id="DejaVuSans-114"/>
        <path d="M 30.609375 48.390625 
Q 23.390625 48.390625 19.1875 42.75 
Q 14.984375 37.109375 14.984375 27.296875 
Q 14.984375 17.484375 19.15625 11.84375 
Q 23.34375 6.203125 30.609375 6.203125 
Q 37.796875 6.203125 41.984375 11.859375 
Q 46.1875 17.53125 46.1875 27.296875 
Q 46.1875 37.015625 41.984375 42.703125 
Q 37.796875 48.390625 30.609375 48.390625 
z
M 30.609375 56 
Q 42.328125 56 49.015625 48.375 
Q 55.71875 40.765625 55.71875 27.296875 
Q 55.71875 13.875 49.015625 6.21875 
Q 42.328125 -1.421875 30.609375 -1.421875 
Q 18.84375 -1.421875 12.171875 6.21875 
Q 5.515625 13.875 5.515625 27.296875 
Q 5.515625 40.765625 12.171875 48.375 
Q 18.84375 56 30.609375 56 
z
" id="DejaVuSans-111"/>
       </defs>
       <use xlink:href="#DejaVuSans-90"/>
       <use x="68.505859" xlink:href="#DejaVuSans-95"/>
       <use x="118.505859" xlink:href="#DejaVuSans-49"/>
       <use x="182.128906" xlink:href="#DejaVuSans-95"/>
       <use x="232.128906" xlink:href="#DejaVuSans-122"/>
       <use x="284.619141" xlink:href="#DejaVuSans-101"/>
       <use x="346.142578" xlink:href="#DejaVuSans-114"/>
       <use x="385.005859" xlink:href="#DejaVuSans-111"/>
      </g>
     </g>
    </g>
    <g id="xtick_2">
     <g id="line2d_2">
      <g>
       <use style="stroke:#000000;stroke-width:0.8;" x="221.4" xlink:href="#ma65bde9562" y="252"/>
      </g>
     </g>
     <g id="text_2">
      <!-- Z_2_zero -->
      <g transform="translate(199.090625 266.421875)scale(0.1 -0.1)">
       <defs>
        <path d="M 19.1875 8.296875 
L 53.609375 8.296875 
L 53.609375 0 
L 7.328125 0 
L 7.328125 8.296875 
Q 12.9375 14.109375 22.625 23.890625 
Q 32.328125 33.6875 34.8125 36.53125 
Q 39.546875 41.84375 41.421875 45.53125 
Q 43.3125 49.21875 43.3125 52.78125 
Q 43.3125 58.59375 39.234375 62.25 
Q 35.15625 65.921875 28.609375 65.921875 
Q 23.96875 65.921875 18.8125 64.3125 
Q 13.671875 62.703125 7.8125 59.421875 
L 7.8125 69.390625 
Q 13.765625 71.78125 18.9375 73 
Q 24.125 74.21875 28.421875 74.21875 
Q 39.75 74.21875 46.484375 68.546875 
Q 53.21875 62.890625 53.21875 53.421875 
Q 53.21875 48.921875 51.53125 44.890625 
Q 49.859375 40.875 45.40625 35.40625 
Q 44.1875 33.984375 37.640625 27.21875 
Q 31.109375 20.453125 19.1875 8.296875 
z
" id="DejaVuSans-50"/>
       </defs>
       <use xlink:href="#DejaVuSans-90"/>
       <use x="68.505859" xlink:href="#DejaVuSans-95"/>
       <use x="118.505859" xlink:href="#DejaVuSans-50"/>
       <use x="182.128906" xlink:href="#DejaVuSans-95"/>
       <use x="232.128906" xlink:href="#DejaVuSans-122"/>
       <use x="284.619141" xlink:href="#DejaVuSans-101"/>
       <use x="346.142578" xlink:href="#DejaVuSans-114"/>
       <use x="385.005859" xlink:href="#DejaVuSans-111"/>
      </g>
     </g>
    </g>
    <g id="xtick_3">
     <g id="line2d_3">
      <g>
       <use style="stroke:#000000;stroke-width:0.8;" x="333" xlink:href="#ma65bde9562" y="252"/>
      </g>
     </g>
     <g id="text_3">
      <!-- Z_3_zero -->
      <g transform="translate(310.690625 266.421875)scale(0.1 -0.1)">
       <defs>
        <path d="M 40.578125 39.3125 
Q 47.65625 37.796875 51.625 33 
Q 55.609375 28.21875 55.609375 21.1875 
Q 55.609375 10.40625 48.1875 4.484375 
Q 40.765625 -1.421875 27.09375 -1.421875 
Q 22.515625 -1.421875 17.65625 -0.515625 
Q 12.796875 0.390625 7.625 2.203125 
L 7.625 11.71875 
Q 11.71875 9.328125 16.59375 8.109375 
Q 21.484375 6.890625 26.8125 6.890625 
Q 36.078125 6.890625 40.9375 10.546875 
Q 45.796875 14.203125 45.796875 21.1875 
Q 45.796875 27.640625 41.28125 31.265625 
Q 36.765625 34.90625 28.71875 34.90625 
L 20.21875 34.90625 
L 20.21875 43.015625 
L 29.109375 43.015625 
Q 36.375 43.015625 40.234375 45.921875 
Q 44.09375 48.828125 44.09375 54.296875 
Q 44.09375 59.90625 40.109375 62.90625 
Q 36.140625 65.921875 28.71875 65.921875 
Q 24.65625 65.921875 20.015625 65.03125 
Q 15.375 64.15625 9.8125 62.3125 
L 9.8125 71.09375 
Q 15.4375 72.65625 20.34375 73.4375 
Q 25.25 74.21875 29.59375 74.21875 
Q 40.828125 74.21875 47.359375 69.109375 
Q 53.90625 64.015625 53.90625 55.328125 
Q 53.90625 49.265625 50.4375 45.09375 
Q 46.96875 40.921875 40.578125 39.3125 
z
" id="DejaVuSans-51"/>
       </defs>
       <use xlink:href="#DejaVuSans-90"/>
       <use x="68.505859" xlink:href="#DejaVuSans-95"/>
       <use x="118.505859" xlink:href="#DejaVuSans-51"/>
       <use x="182.128906" xlink:href="#DejaVuSans-95"/>
       <use x="232.128906" xlink:href="#DejaVuSans-122"/>
       <use x="284.619141" xlink:href="#DejaVuSans-101"/>
       <use x="346.142578" xlink:href="#DejaVuSans-114"/>
       <use x="385.005859" xlink:href="#DejaVuSans-111"/>
      </g>
     </g>
    </g>
    <g id="text_4">
     <!-- set -->
     <g transform="translate(213.758594 280.378125)scale(0.1 -0.1)">
      <defs>
       <path d="M 44.28125 53.078125 
L 44.28125 44.578125 
Q 40.484375 46.53125 36.375 47.5 
Q 32.28125 48.484375 27.875 48.484375 
Q 21.1875 48.484375 17.84375 46.4375 
Q 14.5 44.390625 14.5 40.28125 
Q 14.5 37.15625 16.890625 35.375 
Q 19.28125 33.59375 26.515625 31.984375 
L 29.59375 31.296875 
Q 39.15625 29.25 43.1875 25.515625 
Q 47.21875 21.78125 47.21875 15.09375 
Q 47.21875 7.46875 41.1875 3.015625 
Q 35.15625 -1.421875 24.609375 -1.421875 
Q 20.21875 -1.421875 15.453125 -0.5625 
Q 10.6875 0.296875 5.421875 2 
L 5.421875 11.28125 
Q 10.40625 8.6875 15.234375 7.390625 
Q 20.0625 6.109375 24.8125 6.109375 
Q 31.15625 6.109375 34.5625 8.28125 
Q 37.984375 10.453125 37.984375 14.40625 
Q 37.984375 18.0625 35.515625 20.015625 
Q 33.0625 21.96875 24.703125 23.78125 
L 21.578125 24.515625 
Q 13.234375 26.265625 9.515625 29.90625 
Q 5.8125 33.546875 5.8125 39.890625 
Q 5.8125 47.609375 11.28125 51.796875 
Q 16.75 56 26.8125 56 
Q 31.78125 56 36.171875 55.265625 
Q 40.578125 54.546875 44.28125 53.078125 
z
" id="DejaVuSans-115"/>
       <path d="M 18.3125 70.21875 
L 18.3125 54.6875 
L 36.8125 54.6875 
L 36.8125 47.703125 
L 18.3125 47.703125 
L 18.3125 18.015625 
Q 18.3125 11.328125 20.140625 9.421875 
Q 21.96875 7.515625 27.59375 7.515625 
L 36.8125 7.515625 
L 36.8125 0 
L 27.59375 0 
Q 17.1875 0 13.234375 3.875 
Q 9.28125 7.765625 9.28125 18.015625 
L 9.28125 47.703125 
L 2.6875 47.703125 
L 2.6875 54.6875 
L 9.28125 54.6875 
L 9.28125 70.21875 
z
" id="DejaVuSans-116"/>
      </defs>
      <use xlink:href="#DejaVuSans-115"/>
      <use x="52.099609" xlink:href="#DejaVuSans-101"/>
      <use x="113.623047" xlink:href="#DejaVuSans-116"/>
     </g>
    </g>
   </g>
   <g id="matplotlib.axis_2">
    <g id="ytick_1">
     <g id="line2d_4">
      <defs>
       <path d="M 0 0 
L -3.5 0 
" id="m1bef476233" style="stroke:#000000;stroke-width:0.8;"/>
      </defs>
      <g>
       <use style="stroke:#000000;stroke-width:0.8;" x="54" xlink:href="#m1bef476233" y="245.438734"/>
      </g>
     </g>
     <g id="text_5">
      <!-- −6 -->
      <g transform="translate(32.257812 249.237953)scale(0.1 -0.1)">
       <defs>
        <path d="M 10.59375 35.5 
L 73.1875 35.5 
L 73.1875 27.203125 
L 10.59375 27.203125 
z
" id="DejaVuSans-8722"/>
        <path d="M 33.015625 40.375 
Q 26.375 40.375 22.484375 35.828125 
Q 18.609375 31.296875 18.609375 23.390625 
Q 18.609375 15.53125 22.484375 10.953125 
Q 26.375 6.390625 33.015625 6.390625 
Q 39.65625 6.390625 43.53125 10.953125 
Q 47.40625 15.53125 47.40625 23.390625 
Q 47.40625 31.296875 43.53125 35.828125 
Q 39.65625 40.375 33.015625 40.375 
z
M 52.59375 71.296875 
L 52.59375 62.3125 
Q 48.875 64.0625 45.09375 64.984375 
Q 41.3125 65.921875 37.59375 65.921875 
Q 27.828125 65.921875 22.671875 59.328125 
Q 17.53125 52.734375 16.796875 39.40625 
Q 19.671875 43.65625 24.015625 45.921875 
Q 28.375 48.1875 33.59375 48.1875 
Q 44.578125 48.1875 50.953125 41.515625 
Q 57.328125 34.859375 57.328125 23.390625 
Q 57.328125 12.15625 50.6875 5.359375 
Q 44.046875 -1.421875 33.015625 -1.421875 
Q 20.359375 -1.421875 13.671875 8.265625 
Q 6.984375 17.96875 6.984375 36.375 
Q 6.984375 53.65625 15.1875 63.9375 
Q 23.390625 74.21875 37.203125 74.21875 
Q 40.921875 74.21875 44.703125 73.484375 
Q 48.484375 72.75 52.59375 71.296875 
z
" id="DejaVuSans-54"/>
       </defs>
       <use xlink:href="#DejaVuSans-8722"/>
       <use x="83.789062" xlink:href="#DejaVuSans-54"/>
      </g>
     </g>
    </g>
    <g id="ytick_2">
     <g id="line2d_5">
      <g>
       <use style="stroke:#000000;stroke-width:0.8;" x="54" xlink:href="#m1bef476233" y="219.822161"/>
      </g>
     </g>
     <g id="text_6">
      <!-- −4 -->
      <g transform="translate(32.257812 223.62138)scale(0.1 -0.1)">
       <defs>
        <path d="M 37.796875 64.3125 
L 12.890625 25.390625 
L 37.796875 25.390625 
z
M 35.203125 72.90625 
L 47.609375 72.90625 
L 47.609375 25.390625 
L 58.015625 25.390625 
L 58.015625 17.1875 
L 47.609375 17.1875 
L 47.609375 0 
L 37.796875 0 
L 37.796875 17.1875 
L 4.890625 17.1875 
L 4.890625 26.703125 
z
" id="DejaVuSans-52"/>
       </defs>
       <use xlink:href="#DejaVuSans-8722"/>
       <use x="83.789062" xlink:href="#DejaVuSans-52"/>
      </g>
     </g>
    </g>
    <g id="ytick_3">
     <g id="line2d_6">
      <g>
       <use style="stroke:#000000;stroke-width:0.8;" x="54" xlink:href="#m1bef476233" y="194.205589"/>
      </g>
     </g>
     <g id="text_7">
      <!-- −2 -->
      <g transform="translate(32.257812 198.004807)scale(0.1 -0.1)">
       <use xlink:href="#DejaVuSans-8722"/>
       <use x="83.789062" xlink:href="#DejaVuSans-50"/>
      </g>
     </g>
    </g>
    <g id="ytick_4">
     <g id="line2d_7">
      <g>
       <use style="stroke:#000000;stroke-width:0.8;" x="54" xlink:href="#m1bef476233" y="168.589016"/>
      </g>
     </g>
     <g id="text_8">
      <!-- 0 -->
      <g transform="translate(40.6375 172.388235)scale(0.1 -0.1)">
       <defs>
        <path d="M 31.78125 66.40625 
Q 24.171875 66.40625 20.328125 58.90625 
Q 16.5 51.421875 16.5 36.375 
Q 16.5 21.390625 20.328125 13.890625 
Q 24.171875 6.390625 31.78125 6.390625 
Q 39.453125 6.390625 43.28125 13.890625 
Q 47.125 21.390625 47.125 36.375 
Q 47.125 51.421875 43.28125 58.90625 
Q 39.453125 66.40625 31.78125 66.40625 
z
M 31.78125 74.21875 
Q 44.046875 74.21875 50.515625 64.515625 
Q 56.984375 54.828125 56.984375 36.375 
Q 56.984375 17.96875 50.515625 8.265625 
Q 44.046875 -1.421875 31.78125 -1.421875 
Q 19.53125 -1.421875 13.0625 8.265625 
Q 6.59375 17.96875 6.59375 36.375 
Q 6.59375 54.828125 13.0625 64.515625 
Q 19.53125 74.21875 31.78125 74.21875 
z
" id="DejaVuSans-48"/>
       </defs>
       <use xlink:href="#DejaVuSans-48"/>
      </g>
     </g>
    </g>
    <g id="ytick_5">
     <g id="line2d_8">
      <g>
       <use style="stroke:#000000;stroke-width:0.8;" x="54" xlink:href="#m1bef476233" y="142.972443"/>
      </g>
     </g>
     <g id="text_9">
      <!-- 2 -->
      <g transform="translate(40.6375 146.771662)scale(0.1 -0.1)">
       <use xlink:href="#DejaVuSans-50"/>
      </g>
     </g>
    </g>
    <g id="ytick_6">
     <g id="line2d_9">
      <g>
       <use style="stroke:#000000;stroke-width:0.8;" x="54" xlink:href="#m1bef476233" y="117.355871"/>
      </g>
     </g>
     <g id="text_10">
      <!-- 4 -->
      <g transform="translate(40.6375 121.155089)scale(0.1 -0.1)">
       <use xlink:href="#DejaVuSans-52"/>
      </g>
     </g>
    </g>
    <g id="ytick_7">
     <g id="line2d_10">
      <g>
       <use style="stroke:#000000;stroke-width:0.8;" x="54" xlink:href="#m1bef476233" y="91.739298"/>
      </g>
     </g>
     <g id="text_11">
      <!-- 6 -->
      <g transform="translate(40.6375 95.538517)scale(0.1 -0.1)">
       <use xlink:href="#DejaVuSans-54"/>
      </g>
     </g>
    </g>
    <g id="ytick_8">
     <g id="line2d_11">
      <g>
       <use style="stroke:#000000;stroke-width:0.8;" x="54" xlink:href="#m1bef476233" y="66.122725"/>
      </g>
     </g>
     <g id="text_12">
      <!-- 8 -->
      <g transform="translate(40.6375 69.921944)scale(0.1 -0.1)">
       <defs>
        <path d="M 31.78125 34.625 
Q 24.75 34.625 20.71875 30.859375 
Q 16.703125 27.09375 16.703125 20.515625 
Q 16.703125 13.921875 20.71875 10.15625 
Q 24.75 6.390625 31.78125 6.390625 
Q 38.8125 6.390625 42.859375 10.171875 
Q 46.921875 13.96875 46.921875 20.515625 
Q 46.921875 27.09375 42.890625 30.859375 
Q 38.875 34.625 31.78125 34.625 
z
M 21.921875 38.8125 
Q 15.578125 40.375 12.03125 44.71875 
Q 8.5 49.078125 8.5 55.328125 
Q 8.5 64.0625 14.71875 69.140625 
Q 20.953125 74.21875 31.78125 74.21875 
Q 42.671875 74.21875 48.875 69.140625 
Q 55.078125 64.0625 55.078125 55.328125 
Q 55.078125 49.078125 51.53125 44.71875 
Q 48 40.375 41.703125 38.8125 
Q 48.828125 37.15625 52.796875 32.3125 
Q 56.78125 27.484375 56.78125 20.515625 
Q 56.78125 9.90625 50.3125 4.234375 
Q 43.84375 -1.421875 31.78125 -1.421875 
Q 19.734375 -1.421875 13.25 4.234375 
Q 6.78125 9.90625 6.78125 20.515625 
Q 6.78125 27.484375 10.78125 32.3125 
Q 14.796875 37.15625 21.921875 38.8125 
z
M 18.3125 54.390625 
Q 18.3125 48.734375 21.84375 45.5625 
Q 25.390625 42.390625 31.78125 42.390625 
Q 38.140625 42.390625 41.71875 45.5625 
Q 45.3125 48.734375 45.3125 54.390625 
Q 45.3125 60.0625 41.71875 63.234375 
Q 38.140625 66.40625 31.78125 66.40625 
Q 25.390625 66.40625 21.84375 63.234375 
Q 18.3125 60.0625 18.3125 54.390625 
z
" id="DejaVuSans-56"/>
       </defs>
       <use xlink:href="#DejaVuSans-56"/>
      </g>
     </g>
    </g>
    <g id="ytick_9">
     <g id="line2d_12">
      <g>
       <use style="stroke:#000000;stroke-width:0.8;" x="54" xlink:href="#m1bef476233" y="40.506152"/>
      </g>
     </g>
     <g id="text_13">
      <!-- 10 -->
      <g transform="translate(34.275 44.305371)scale(0.1 -0.1)">
       <use xlink:href="#DejaVuSans-49"/>
       <use x="63.623047" xlink:href="#DejaVuSans-48"/>
      </g>
     </g>
    </g>
    <g id="text_14">
     <!-- value -->
     <g transform="translate(26.178125 156.937813)rotate(-90)scale(0.1 -0.1)">
      <defs>
       <path d="M 2.984375 54.6875 
L 12.5 54.6875 
L 29.59375 8.796875 
L 46.6875 54.6875 
L 56.203125 54.6875 
L 35.6875 0 
L 23.484375 0 
z
" id="DejaVuSans-118"/>
       <path d="M 34.28125 27.484375 
Q 23.390625 27.484375 19.1875 25 
Q 14.984375 22.515625 14.984375 16.5 
Q 14.984375 11.71875 18.140625 8.90625 
Q 21.296875 6.109375 26.703125 6.109375 
Q 34.1875 6.109375 38.703125 11.40625 
Q 43.21875 16.703125 43.21875 25.484375 
L 43.21875 27.484375 
z
M 52.203125 31.203125 
L 52.203125 0 
L 43.21875 0 
L 43.21875 8.296875 
Q 40.140625 3.328125 35.546875 0.953125 
Q 30.953125 -1.421875 24.3125 -1.421875 
Q 15.921875 -1.421875 10.953125 3.296875 
Q 6 8.015625 6 15.921875 
Q 6 25.140625 12.171875 29.828125 
Q 18.359375 34.515625 30.609375 34.515625 
L 43.21875 34.515625 
L 43.21875 35.40625 
Q 43.21875 41.609375 39.140625 45 
Q 35.0625 48.390625 27.6875 48.390625 
Q 23 48.390625 18.546875 47.265625 
Q 14.109375 46.140625 10.015625 43.890625 
L 10.015625 52.203125 
Q 14.9375 54.109375 19.578125 55.046875 
Q 24.21875 56 28.609375 56 
Q 40.484375 56 46.34375 49.84375 
Q 52.203125 43.703125 52.203125 31.203125 
z
" id="DejaVuSans-97"/>
       <path d="M 9.421875 75.984375 
L 18.40625 75.984375 
L 18.40625 0 
L 9.421875 0 
z
" id="DejaVuSans-108"/>
       <path d="M 8.5 21.578125 
L 8.5 54.6875 
L 17.484375 54.6875 
L 17.484375 21.921875 
Q 17.484375 14.15625 20.5 10.265625 
Q 23.53125 6.390625 29.59375 6.390625 
Q 36.859375 6.390625 41.078125 11.03125 
Q 45.3125 15.671875 45.3125 23.6875 
L 45.3125 54.6875 
L 54.296875 54.6875 
L 54.296875 0 
L 45.3125 0 
L 45.3125 8.40625 
Q 42.046875 3.421875 37.71875 1 
Q 33.40625 -1.421875 27.6875 -1.421875 
Q 18.265625 -1.421875 13.375 4.4375 
Q 8.5 10.296875 8.5 21.578125 
z
M 31.109375 56 
z
" id="DejaVuSans-117"/>
      </defs>
      <use xlink:href="#DejaVuSans-118"/>
      <use x="59.179688" xlink:href="#DejaVuSans-97"/>
      <use x="120.458984" xlink:href="#DejaVuSans-108"/>
      <use x="148.242188" xlink:href="#DejaVuSans-117"/>
      <use x="211.621094" xlink:href="#DejaVuSans-101"/>
     </g>
    </g>
   </g>
   <g id="line2d_13">
    <path clip-path="url(#pb1c62df806)" d="M 80.04 182.840422 
L 80.04 88.739377 
" style="fill:none;stroke:#3d3d3d;stroke-linecap:square;stroke-width:1.5;"/>
   </g>
   <g id="line2d_14">
    <path clip-path="url(#pb1c62df806)" d="M 80.04 148.00716 
L 80.04 124.256497 
" style="fill:none;stroke:#3d3d3d;stroke-linecap:square;stroke-width:4.5;"/>
   </g>
   <g id="line2d_15">
    <path clip-path="url(#pb1c62df806)" d="M 221.4 196.053143 
L 221.4 64.570842 
" style="fill:none;stroke:#3d3d3d;stroke-linecap:square;stroke-width:1.5;"/>
   </g>
   <g id="line2d_16">
    <path clip-path="url(#pb1c62df806)" d="M 221.4 147.504508 
L 221.4 114.303658 
" style="fill:none;stroke:#3d3d3d;stroke-linecap:square;stroke-width:4.5;"/>
   </g>
   <g id="line2d_17">
    <path clip-path="url(#pb1c62df806)" d="M 362.76 193.786517 
L 362.76 64.98455 
" style="fill:none;stroke:#3d3d3d;stroke-linecap:square;stroke-width:1.5;"/>
   </g>
   <g id="line2d_18">
    <path clip-path="url(#pb1c62df806)" d="M 362.76 146.901858 
L 362.76 113.659122 
" style="fill:none;stroke:#3d3d3d;stroke-linecap:square;stroke-width:4.5;"/>
   </g>
   <g id="patch_6">
    <path d="M 54 252 
L 54 34.56 
" style="fill:none;stroke:#000000;stroke-linecap:square;stroke-linejoin:miter;stroke-width:0.8;"/>
   </g>
   <g id="patch_7">
    <path d="M 388.8 252 
L 388.8 34.56 
" style="fill:none;stroke:#000000;stroke-linecap:square;stroke-linejoin:miter;stroke-width:0.8;"/>
   </g>
   <g id="patch_8">
    <path d="M 54 252 
L 388.8 252 
" style="fill:none;stroke:#000000;stroke-linecap:square;stroke-linejoin:miter;stroke-width:0.8;"/>
   </g>
   <g id="patch_9">
    <path d="M 54 34.56 
L 388.8 34.56 
" style="fill:none;stroke:#000000;stroke-linecap:square;stroke-linejoin:miter;stroke-width:0.8;"/>
   </g>
   <g id="PathCollection_1">
    <defs>
     <path d="M 0 1.5 
C 0.397805 1.5 0.77937 1.341951 1.06066 1.06066 
C 1.341951 0.77937 1.5 0.397805 1.5 0 
C 1.5 -0.397805 1.341951 -0.77937 1.06066 -1.06066 
C 0.77937 -1.341951 0.397805 -1.5 0 -1.5 
C -0.397805 -1.5 -0.77937 -1.341951 -1.06066 -1.06066 
C -1.341951 -0.77937 -1.5 -0.397805 -1.5 0 
C -1.5 0.397805 -1.341951 0.77937 -1.06066 1.06066 
C -0.77937 1.341951 -0.397805 1.5 0 1.5 
z
" id="m23d4b727a1" style="stroke:#3d3d3d;"/>
    </defs>
    <g clip-path="url(#pb1c62df806)">
     <use style="fill:#ffffff;stroke:#3d3d3d;" x="80.04" xlink:href="#m23d4b727a1" y="136.605785"/>
    </g>
   </g>
   <g id="PathCollection_2">
    <g clip-path="url(#pb1c62df806)">
     <use style="fill:#ffffff;stroke:#3d3d3d;" x="221.4" xlink:href="#m23d4b727a1" y="131.309967"/>
    </g>
   </g>
   <g id="PathCollection_3">
    <g clip-path="url(#pb1c62df806)">
     <use style="fill:#ffffff;stroke:#3d3d3d;" x="362.76" xlink:href="#m23d4b727a1" y="131.429361"/>
    </g>
   </g>
   <g id="legend_1">
    <g id="patch_10">
     <path d="M 61 247 
L 137.61875 247 
Q 139.61875 247 139.61875 245 
L 139.61875 186.453125 
Q 139.61875 184.453125 137.61875 184.453125 
L 61 184.453125 
Q 59 184.453125 59 186.453125 
L 59 245 
Q 59 247 61 247 
z
" style="fill:#ffffff;opacity:0.8;stroke:#cccccc;stroke-linejoin:miter;"/>
    </g>
    <g id="text_15">
     <!-- set -->
     <g transform="translate(91.667969 196.051562)scale(0.1 -0.1)">
      <use xlink:href="#DejaVuSans-115"/>
      <use x="52.099609" xlink:href="#DejaVuSans-101"/>
      <use x="113.623047" xlink:href="#DejaVuSans-116"/>
     </g>
    </g>
    <g id="patch_11">
     <path d="M 63 210.729687 
L 83 210.729687 
L 83 203.729687 
L 63 203.729687 
z
" style="fill:#3274a1;stroke:#3d3d3d;stroke-linejoin:miter;stroke-width:0.75;"/>
    </g>
    <g id="text_16">
     <!-- Z_1_zero -->
     <g transform="translate(91 210.729687)scale(0.1 -0.1)">
      <use xlink:href="#DejaVuSans-90"/>
      <use x="68.505859" xlink:href="#DejaVuSans-95"/>
      <use x="118.505859" xlink:href="#DejaVuSans-49"/>
      <use x="182.128906" xlink:href="#DejaVuSans-95"/>
      <use x="232.128906" xlink:href="#DejaVuSans-122"/>
      <use x="284.619141" xlink:href="#DejaVuSans-101"/>
      <use x="346.142578" xlink:href="#DejaVuSans-114"/>
      <use x="385.005859" xlink:href="#DejaVuSans-111"/>
     </g>
    </g>
    <g id="patch_12">
     <path d="M 63 225.685937 
L 83 225.685937 
L 83 218.685937 
L 63 218.685937 
z
" style="fill:#e1812c;stroke:#3d3d3d;stroke-linejoin:miter;stroke-width:0.75;"/>
    </g>
    <g id="text_17">
     <!-- Z_2_zero -->
     <g transform="translate(91 225.685937)scale(0.1 -0.1)">
      <use xlink:href="#DejaVuSans-90"/>
      <use x="68.505859" xlink:href="#DejaVuSans-95"/>
      <use x="118.505859" xlink:href="#DejaVuSans-50"/>
      <use x="182.128906" xlink:href="#DejaVuSans-95"/>
      <use x="232.128906" xlink:href="#DejaVuSans-122"/>
      <use x="284.619141" xlink:href="#DejaVuSans-101"/>
      <use x="346.142578" xlink:href="#DejaVuSans-114"/>
      <use x="385.005859" xlink:href="#DejaVuSans-111"/>
     </g>
    </g>
    <g id="patch_13">
     <path d="M 63 240.642187 
L 83 240.642187 
L 83 233.642187 
L 63 233.642187 
z
" style="fill:#3a923a;stroke:#3d3d3d;stroke-linejoin:miter;stroke-width:0.75;"/>
    </g>
    <g id="text_18">
     <!-- Z_3_zero -->
     <g transform="translate(91 240.642187)scale(0.1 -0.1)">
      <use xlink:href="#DejaVuSans-90"/>
      <use x="68.505859" xlink:href="#DejaVuSans-95"/>
      <use x="118.505859" xlink:href="#DejaVuSans-51"/>
      <use x="182.128906" xlink:href="#DejaVuSans-95"/>
      <use x="232.128906" xlink:href="#DejaVuSans-122"/>
      <use x="284.619141" xlink:href="#DejaVuSans-101"/>
      <use x="346.142578" xlink:href="#DejaVuSans-114"/>
      <use x="385.005859" xlink:href="#DejaVuSans-111"/>
     </g>
    </g>
   </g>
  </g>
 </g>
 <defs>
  <clipPath id="pb1c62df806">
   <rect height="217.44" width="334.8" x="54" y="34.56"/>
  </clipPath>
 </defs>
</svg>
