<?xml version="1.0" encoding="utf-8" standalone="no"?>
<!DOCTYPE svg PUBLIC "-//W3C//DTD SVG 1.1//EN"
  "http://www.w3.org/Graphics/SVG/1.1/DTD/svg11.dtd">
<!-- Created with matplotlib (http://matplotlib.org/) -->
<svg height="345.6pt" version="1.1" viewBox="0 0 460.8 345.6" width="460.8pt" xmlns="http://www.w3.org/2000/svg" xmlns:xlink="http://www.w3.org/1999/xlink">
 <defs>
  <style type="text/css">
*{stroke-linecap:butt;stroke-linejoin:round;}
  </style>
 </defs>
 <g id="figure_1">
  <g id="patch_1">
   <path d="M 0 345.6 
L 460.8 345.6 
L 460.8 0 
L 0 0 
z
" style="fill:#ffffff;"/>
  </g>
  <g id="axes_1">
   <g id="patch_2">
    <path d="M 57.6 307.584 
L 414.72 307.584 
L 414.72 41.472 
L 57.6 41.472 
z
" style="fill:#ffffff;"/>
   </g>
   <g id="matplotlib.axis_1">
    <g id="xtick_1">
     <g id="line2d_1">
      <defs>
       <path d="M 0 0 
L 0 3.5 
" id="mbbc3d0568b" style="stroke:#000000;stroke-width:0.8;"/>
      </defs>
      <g>
       <use style="stroke:#000000;stroke-width:0.8;" x="73.832727" xlink:href="#mbbc3d0568b" y="307.584"/>
      </g>
     </g>
     <g id="text_1">
      <!-- 0 -->
      <defs>
       <path d="M 31.78125 66.40625 
Q 24.171875 66.40625 20.328125 58.90625 
Q 16.5 51.421875 16.5 36.375 
Q 16.5 21.390625 20.328125 13.890625 
Q 24.171875 6.390625 31.78125 6.390625 
Q 39.453125 6.390625 43.28125 13.890625 
Q 47.125 21.390625 47.125 36.375 
Q 47.125 51.421875 43.28125 58.90625 
Q 39.453125 66.40625 31.78125 66.40625 
z
M 31.78125 74.21875 
Q 44.046875 74.21875 50.515625 64.515625 
Q 56.984375 54.828125 56.984375 36.375 
Q 56.984375 17.96875 50.515625 8.265625 
Q 44.046875 -1.421875 31.78125 -1.421875 
Q 19.53125 -1.421875 13.0625 8.265625 
Q 6.59375 17.96875 6.59375 36.375 
Q 6.59375 54.828125 13.0625 64.515625 
Q 19.53125 74.21875 31.78125 74.21875 
z
" id="DejaVuSans-30"/>
      </defs>
      <g transform="translate(70.651477 322.182437)scale(0.1 -0.1)">
       <use xlink:href="#DejaVuSans-30"/>
      </g>
     </g>
    </g>
    <g id="xtick_2">
     <g id="line2d_2">
      <g>
       <use style="stroke:#000000;stroke-width:0.8;" x="114.465336" xlink:href="#mbbc3d0568b" y="307.584"/>
      </g>
     </g>
     <g id="text_2">
      <!-- 100 -->
      <defs>
       <path d="M 12.40625 8.296875 
L 28.515625 8.296875 
L 28.515625 63.921875 
L 10.984375 60.40625 
L 10.984375 69.390625 
L 28.421875 72.90625 
L 38.28125 72.90625 
L 38.28125 8.296875 
L 54.390625 8.296875 
L 54.390625 0 
L 12.40625 0 
z
" id="DejaVuSans-31"/>
      </defs>
      <g transform="translate(104.921586 322.182437)scale(0.1 -0.1)">
       <use xlink:href="#DejaVuSans-31"/>
       <use x="63.623047" xlink:href="#DejaVuSans-30"/>
       <use x="127.246094" xlink:href="#DejaVuSans-30"/>
      </g>
     </g>
    </g>
    <g id="xtick_3">
     <g id="line2d_3">
      <g>
       <use style="stroke:#000000;stroke-width:0.8;" x="155.097945" xlink:href="#mbbc3d0568b" y="307.584"/>
      </g>
     </g>
     <g id="text_3">
      <!-- 200 -->
      <defs>
       <path d="M 19.1875 8.296875 
L 53.609375 8.296875 
L 53.609375 0 
L 7.328125 0 
L 7.328125 8.296875 
Q 12.9375 14.109375 22.625 23.890625 
Q 32.328125 33.6875 34.8125 36.53125 
Q 39.546875 41.84375 41.421875 45.53125 
Q 43.3125 49.21875 43.3125 52.78125 
Q 43.3125 58.59375 39.234375 62.25 
Q 35.15625 65.921875 28.609375 65.921875 
Q 23.96875 65.921875 18.8125 64.3125 
Q 13.671875 62.703125 7.8125 59.421875 
L 7.8125 69.390625 
Q 13.765625 71.78125 18.9375 73 
Q 24.125 74.21875 28.421875 74.21875 
Q 39.75 74.21875 46.484375 68.546875 
Q 53.21875 62.890625 53.21875 53.421875 
Q 53.21875 48.921875 51.53125 44.890625 
Q 49.859375 40.875 45.40625 35.40625 
Q 44.1875 33.984375 37.640625 27.21875 
Q 31.109375 20.453125 19.1875 8.296875 
z
" id="DejaVuSans-32"/>
      </defs>
      <g transform="translate(145.554195 322.182437)scale(0.1 -0.1)">
       <use xlink:href="#DejaVuSans-32"/>
       <use x="63.623047" xlink:href="#DejaVuSans-30"/>
       <use x="127.246094" xlink:href="#DejaVuSans-30"/>
      </g>
     </g>
    </g>
    <g id="xtick_4">
     <g id="line2d_4">
      <g>
       <use style="stroke:#000000;stroke-width:0.8;" x="195.730554" xlink:href="#mbbc3d0568b" y="307.584"/>
      </g>
     </g>
     <g id="text_4">
      <!-- 300 -->
      <defs>
       <path d="M 40.578125 39.3125 
Q 47.65625 37.796875 51.625 33 
Q 55.609375 28.21875 55.609375 21.1875 
Q 55.609375 10.40625 48.1875 4.484375 
Q 40.765625 -1.421875 27.09375 -1.421875 
Q 22.515625 -1.421875 17.65625 -0.515625 
Q 12.796875 0.390625 7.625 2.203125 
L 7.625 11.71875 
Q 11.71875 9.328125 16.59375 8.109375 
Q 21.484375 6.890625 26.8125 6.890625 
Q 36.078125 6.890625 40.9375 10.546875 
Q 45.796875 14.203125 45.796875 21.1875 
Q 45.796875 27.640625 41.28125 31.265625 
Q 36.765625 34.90625 28.71875 34.90625 
L 20.21875 34.90625 
L 20.21875 43.015625 
L 29.109375 43.015625 
Q 36.375 43.015625 40.234375 45.921875 
Q 44.09375 48.828125 44.09375 54.296875 
Q 44.09375 59.90625 40.109375 62.90625 
Q 36.140625 65.921875 28.71875 65.921875 
Q 24.65625 65.921875 20.015625 65.03125 
Q 15.375 64.15625 9.8125 62.3125 
L 9.8125 71.09375 
Q 15.4375 72.65625 20.34375 73.4375 
Q 25.25 74.21875 29.59375 74.21875 
Q 40.828125 74.21875 47.359375 69.109375 
Q 53.90625 64.015625 53.90625 55.328125 
Q 53.90625 49.265625 50.4375 45.09375 
Q 46.96875 40.921875 40.578125 39.3125 
z
" id="DejaVuSans-33"/>
      </defs>
      <g transform="translate(186.186804 322.182437)scale(0.1 -0.1)">
       <use xlink:href="#DejaVuSans-33"/>
       <use x="63.623047" xlink:href="#DejaVuSans-30"/>
       <use x="127.246094" xlink:href="#DejaVuSans-30"/>
      </g>
     </g>
    </g>
    <g id="xtick_5">
     <g id="line2d_5">
      <g>
       <use style="stroke:#000000;stroke-width:0.8;" x="236.363163" xlink:href="#mbbc3d0568b" y="307.584"/>
      </g>
     </g>
     <g id="text_5">
      <!-- 400 -->
      <defs>
       <path d="M 37.796875 64.3125 
L 12.890625 25.390625 
L 37.796875 25.390625 
z
M 35.203125 72.90625 
L 47.609375 72.90625 
L 47.609375 25.390625 
L 58.015625 25.390625 
L 58.015625 17.1875 
L 47.609375 17.1875 
L 47.609375 0 
L 37.796875 0 
L 37.796875 17.1875 
L 4.890625 17.1875 
L 4.890625 26.703125 
z
" id="DejaVuSans-34"/>
      </defs>
      <g transform="translate(226.819413 322.182437)scale(0.1 -0.1)">
       <use xlink:href="#DejaVuSans-34"/>
       <use x="63.623047" xlink:href="#DejaVuSans-30"/>
       <use x="127.246094" xlink:href="#DejaVuSans-30"/>
      </g>
     </g>
    </g>
    <g id="xtick_6">
     <g id="line2d_6">
      <g>
       <use style="stroke:#000000;stroke-width:0.8;" x="276.995772" xlink:href="#mbbc3d0568b" y="307.584"/>
      </g>
     </g>
     <g id="text_6">
      <!-- 500 -->
      <defs>
       <path d="M 10.796875 72.90625 
L 49.515625 72.90625 
L 49.515625 64.59375 
L 19.828125 64.59375 
L 19.828125 46.734375 
Q 21.96875 47.46875 24.109375 47.828125 
Q 26.265625 48.1875 28.421875 48.1875 
Q 40.625 48.1875 47.75 41.5 
Q 54.890625 34.8125 54.890625 23.390625 
Q 54.890625 11.625 47.5625 5.09375 
Q 40.234375 -1.421875 26.90625 -1.421875 
Q 22.3125 -1.421875 17.546875 -0.640625 
Q 12.796875 0.140625 7.71875 1.703125 
L 7.71875 11.625 
Q 12.109375 9.234375 16.796875 8.0625 
Q 21.484375 6.890625 26.703125 6.890625 
Q 35.15625 6.890625 40.078125 11.328125 
Q 45.015625 15.765625 45.015625 23.390625 
Q 45.015625 31 40.078125 35.4375 
Q 35.15625 39.890625 26.703125 39.890625 
Q 22.75 39.890625 18.8125 39.015625 
Q 14.890625 38.140625 10.796875 36.28125 
z
" id="DejaVuSans-35"/>
      </defs>
      <g transform="translate(267.452022 322.182437)scale(0.1 -0.1)">
       <use xlink:href="#DejaVuSans-35"/>
       <use x="63.623047" xlink:href="#DejaVuSans-30"/>
       <use x="127.246094" xlink:href="#DejaVuSans-30"/>
      </g>
     </g>
    </g>
    <g id="xtick_7">
     <g id="line2d_7">
      <g>
       <use style="stroke:#000000;stroke-width:0.8;" x="317.628381" xlink:href="#mbbc3d0568b" y="307.584"/>
      </g>
     </g>
     <g id="text_7">
      <!-- 600 -->
      <defs>
       <path d="M 33.015625 40.375 
Q 26.375 40.375 22.484375 35.828125 
Q 18.609375 31.296875 18.609375 23.390625 
Q 18.609375 15.53125 22.484375 10.953125 
Q 26.375 6.390625 33.015625 6.390625 
Q 39.65625 6.390625 43.53125 10.953125 
Q 47.40625 15.53125 47.40625 23.390625 
Q 47.40625 31.296875 43.53125 35.828125 
Q 39.65625 40.375 33.015625 40.375 
z
M 52.59375 71.296875 
L 52.59375 62.3125 
Q 48.875 64.0625 45.09375 64.984375 
Q 41.3125 65.921875 37.59375 65.921875 
Q 27.828125 65.921875 22.671875 59.328125 
Q 17.53125 52.734375 16.796875 39.40625 
Q 19.671875 43.65625 24.015625 45.921875 
Q 28.375 48.1875 33.59375 48.1875 
Q 44.578125 48.1875 50.953125 41.515625 
Q 57.328125 34.859375 57.328125 23.390625 
Q 57.328125 12.15625 50.6875 5.359375 
Q 44.046875 -1.421875 33.015625 -1.421875 
Q 20.359375 -1.421875 13.671875 8.265625 
Q 6.984375 17.96875 6.984375 36.375 
Q 6.984375 53.65625 15.1875 63.9375 
Q 23.390625 74.21875 37.203125 74.21875 
Q 40.921875 74.21875 44.703125 73.484375 
Q 48.484375 72.75 52.59375 71.296875 
z
" id="DejaVuSans-36"/>
      </defs>
      <g transform="translate(308.084631 322.182437)scale(0.1 -0.1)">
       <use xlink:href="#DejaVuSans-36"/>
       <use x="63.623047" xlink:href="#DejaVuSans-30"/>
       <use x="127.246094" xlink:href="#DejaVuSans-30"/>
      </g>
     </g>
    </g>
    <g id="xtick_8">
     <g id="line2d_8">
      <g>
       <use style="stroke:#000000;stroke-width:0.8;" x="358.26099" xlink:href="#mbbc3d0568b" y="307.584"/>
      </g>
     </g>
     <g id="text_8">
      <!-- 700 -->
      <defs>
       <path d="M 8.203125 72.90625 
L 55.078125 72.90625 
L 55.078125 68.703125 
L 28.609375 0 
L 18.3125 0 
L 43.21875 64.59375 
L 8.203125 64.59375 
z
" id="DejaVuSans-37"/>
      </defs>
      <g transform="translate(348.71724 322.182437)scale(0.1 -0.1)">
       <use xlink:href="#DejaVuSans-37"/>
       <use x="63.623047" xlink:href="#DejaVuSans-30"/>
       <use x="127.246094" xlink:href="#DejaVuSans-30"/>
      </g>
     </g>
    </g>
    <g id="xtick_9">
     <g id="line2d_9">
      <g>
       <use style="stroke:#000000;stroke-width:0.8;" x="398.893599" xlink:href="#mbbc3d0568b" y="307.584"/>
      </g>
     </g>
     <g id="text_9">
      <!-- 800 -->
      <defs>
       <path d="M 31.78125 34.625 
Q 24.75 34.625 20.71875 30.859375 
Q 16.703125 27.09375 16.703125 20.515625 
Q 16.703125 13.921875 20.71875 10.15625 
Q 24.75 6.390625 31.78125 6.390625 
Q 38.8125 6.390625 42.859375 10.171875 
Q 46.921875 13.96875 46.921875 20.515625 
Q 46.921875 27.09375 42.890625 30.859375 
Q 38.875 34.625 31.78125 34.625 
z
M 21.921875 38.8125 
Q 15.578125 40.375 12.03125 44.71875 
Q 8.5 49.078125 8.5 55.328125 
Q 8.5 64.0625 14.71875 69.140625 
Q 20.953125 74.21875 31.78125 74.21875 
Q 42.671875 74.21875 48.875 69.140625 
Q 55.078125 64.0625 55.078125 55.328125 
Q 55.078125 49.078125 51.53125 44.71875 
Q 48 40.375 41.703125 38.8125 
Q 48.828125 37.15625 52.796875 32.3125 
Q 56.78125 27.484375 56.78125 20.515625 
Q 56.78125 9.90625 50.3125 4.234375 
Q 43.84375 -1.421875 31.78125 -1.421875 
Q 19.734375 -1.421875 13.25 4.234375 
Q 6.78125 9.90625 6.78125 20.515625 
Q 6.78125 27.484375 10.78125 32.3125 
Q 14.796875 37.15625 21.921875 38.8125 
z
M 18.3125 54.390625 
Q 18.3125 48.734375 21.84375 45.5625 
Q 25.390625 42.390625 31.78125 42.390625 
Q 38.140625 42.390625 41.71875 45.5625 
Q 45.3125 48.734375 45.3125 54.390625 
Q 45.3125 60.0625 41.71875 63.234375 
Q 38.140625 66.40625 31.78125 66.40625 
Q 25.390625 66.40625 21.84375 63.234375 
Q 18.3125 60.0625 18.3125 54.390625 
z
" id="DejaVuSans-38"/>
      </defs>
      <g transform="translate(389.349849 322.182437)scale(0.1 -0.1)">
       <use xlink:href="#DejaVuSans-38"/>
       <use x="63.623047" xlink:href="#DejaVuSans-30"/>
       <use x="127.246094" xlink:href="#DejaVuSans-30"/>
      </g>
     </g>
    </g>
    <g id="text_10">
     <!-- epoch -->
     <defs>
      <path d="M 56.203125 29.59375 
L 56.203125 25.203125 
L 14.890625 25.203125 
Q 15.484375 15.921875 20.484375 11.0625 
Q 25.484375 6.203125 34.421875 6.203125 
Q 39.59375 6.203125 44.453125 7.46875 
Q 49.3125 8.734375 54.109375 11.28125 
L 54.109375 2.78125 
Q 49.265625 0.734375 44.1875 -0.34375 
Q 39.109375 -1.421875 33.890625 -1.421875 
Q 20.796875 -1.421875 13.15625 6.1875 
Q 5.515625 13.8125 5.515625 26.8125 
Q 5.515625 40.234375 12.765625 48.109375 
Q 20.015625 56 32.328125 56 
Q 43.359375 56 49.78125 48.890625 
Q 56.203125 41.796875 56.203125 29.59375 
z
M 47.21875 32.234375 
Q 47.125 39.59375 43.09375 43.984375 
Q 39.0625 48.390625 32.421875 48.390625 
Q 24.90625 48.390625 20.390625 44.140625 
Q 15.875 39.890625 15.1875 32.171875 
z
" id="DejaVuSans-65"/>
      <path d="M 18.109375 8.203125 
L 18.109375 -20.796875 
L 9.078125 -20.796875 
L 9.078125 54.6875 
L 18.109375 54.6875 
L 18.109375 46.390625 
Q 20.953125 51.265625 25.265625 53.625 
Q 29.59375 56 35.59375 56 
Q 45.5625 56 51.78125 48.09375 
Q 58.015625 40.1875 58.015625 27.296875 
Q 58.015625 14.40625 51.78125 6.484375 
Q 45.5625 -1.421875 35.59375 -1.421875 
Q 29.59375 -1.421875 25.265625 0.953125 
Q 20.953125 3.328125 18.109375 8.203125 
z
M 48.6875 27.296875 
Q 48.6875 37.203125 44.609375 42.84375 
Q 40.53125 48.484375 33.40625 48.484375 
Q 26.265625 48.484375 22.1875 42.84375 
Q 18.109375 37.203125 18.109375 27.296875 
Q 18.109375 17.390625 22.1875 11.75 
Q 26.265625 6.109375 33.40625 6.109375 
Q 40.53125 6.109375 44.609375 11.75 
Q 48.6875 17.390625 48.6875 27.296875 
z
" id="DejaVuSans-70"/>
      <path d="M 30.609375 48.390625 
Q 23.390625 48.390625 19.1875 42.75 
Q 14.984375 37.109375 14.984375 27.296875 
Q 14.984375 17.484375 19.15625 11.84375 
Q 23.34375 6.203125 30.609375 6.203125 
Q 37.796875 6.203125 41.984375 11.859375 
Q 46.1875 17.53125 46.1875 27.296875 
Q 46.1875 37.015625 41.984375 42.703125 
Q 37.796875 48.390625 30.609375 48.390625 
z
M 30.609375 56 
Q 42.328125 56 49.015625 48.375 
Q 55.71875 40.765625 55.71875 27.296875 
Q 55.71875 13.875 49.015625 6.21875 
Q 42.328125 -1.421875 30.609375 -1.421875 
Q 18.84375 -1.421875 12.171875 6.21875 
Q 5.515625 13.875 5.515625 27.296875 
Q 5.515625 40.765625 12.171875 48.375 
Q 18.84375 56 30.609375 56 
z
" id="DejaVuSans-6f"/>
      <path d="M 48.78125 52.59375 
L 48.78125 44.1875 
Q 44.96875 46.296875 41.140625 47.34375 
Q 37.3125 48.390625 33.40625 48.390625 
Q 24.65625 48.390625 19.8125 42.84375 
Q 14.984375 37.3125 14.984375 27.296875 
Q 14.984375 17.28125 19.8125 11.734375 
Q 24.65625 6.203125 33.40625 6.203125 
Q 37.3125 6.203125 41.140625 7.25 
Q 44.96875 8.296875 48.78125 10.40625 
L 48.78125 2.09375 
Q 45.015625 0.34375 40.984375 -0.53125 
Q 36.96875 -1.421875 32.421875 -1.421875 
Q 20.0625 -1.421875 12.78125 6.34375 
Q 5.515625 14.109375 5.515625 27.296875 
Q 5.515625 40.671875 12.859375 48.328125 
Q 20.21875 56 33.015625 56 
Q 37.15625 56 41.109375 55.140625 
Q 45.0625 54.296875 48.78125 52.59375 
z
" id="DejaVuSans-63"/>
      <path d="M 54.890625 33.015625 
L 54.890625 0 
L 45.90625 0 
L 45.90625 32.71875 
Q 45.90625 40.484375 42.875 44.328125 
Q 39.84375 48.1875 33.796875 48.1875 
Q 26.515625 48.1875 22.3125 43.546875 
Q 18.109375 38.921875 18.109375 30.90625 
L 18.109375 0 
L 9.078125 0 
L 9.078125 75.984375 
L 18.109375 75.984375 
L 18.109375 46.1875 
Q 21.34375 51.125 25.703125 53.5625 
Q 30.078125 56 35.796875 56 
Q 45.21875 56 50.046875 50.171875 
Q 54.890625 44.34375 54.890625 33.015625 
z
" id="DejaVuSans-68"/>
     </defs>
     <g transform="translate(220.931875 335.860562)scale(0.1 -0.1)">
      <use xlink:href="#DejaVuSans-65"/>
      <use x="61.523438" xlink:href="#DejaVuSans-70"/>
      <use x="125" xlink:href="#DejaVuSans-6f"/>
      <use x="186.181641" xlink:href="#DejaVuSans-63"/>
      <use x="241.162109" xlink:href="#DejaVuSans-68"/>
     </g>
    </g>
   </g>
   <g id="matplotlib.axis_2">
    <g id="ytick_1">
     <g id="line2d_10">
      <defs>
       <path d="M 0 0 
L -3.5 0 
" id="m58a4f08b41" style="stroke:#000000;stroke-width:0.8;"/>
      </defs>
      <g>
       <use style="stroke:#000000;stroke-width:0.8;" x="57.6" xlink:href="#m58a4f08b41" y="298.830887"/>
      </g>
     </g>
     <g id="text_11">
      <!-- 0.00175 -->
      <defs>
       <path d="M 10.6875 12.40625 
L 21 12.40625 
L 21 0 
L 10.6875 0 
z
" id="DejaVuSans-2e"/>
      </defs>
      <g transform="translate(9.246875 302.630105)scale(0.1 -0.1)">
       <use xlink:href="#DejaVuSans-30"/>
       <use x="63.623047" xlink:href="#DejaVuSans-2e"/>
       <use x="95.410156" xlink:href="#DejaVuSans-30"/>
       <use x="159.033203" xlink:href="#DejaVuSans-30"/>
       <use x="222.65625" xlink:href="#DejaVuSans-31"/>
       <use x="286.279297" xlink:href="#DejaVuSans-37"/>
       <use x="349.902344" xlink:href="#DejaVuSans-35"/>
      </g>
     </g>
    </g>
    <g id="ytick_2">
     <g id="line2d_11">
      <g>
       <use style="stroke:#000000;stroke-width:0.8;" x="57.6" xlink:href="#m58a4f08b41" y="266.811769"/>
      </g>
     </g>
     <g id="text_12">
      <!-- 0.00200 -->
      <g transform="translate(9.246875 270.610987)scale(0.1 -0.1)">
       <use xlink:href="#DejaVuSans-30"/>
       <use x="63.623047" xlink:href="#DejaVuSans-2e"/>
       <use x="95.410156" xlink:href="#DejaVuSans-30"/>
       <use x="159.033203" xlink:href="#DejaVuSans-30"/>
       <use x="222.65625" xlink:href="#DejaVuSans-32"/>
       <use x="286.279297" xlink:href="#DejaVuSans-30"/>
       <use x="349.902344" xlink:href="#DejaVuSans-30"/>
      </g>
     </g>
    </g>
    <g id="ytick_3">
     <g id="line2d_12">
      <g>
       <use style="stroke:#000000;stroke-width:0.8;" x="57.6" xlink:href="#m58a4f08b41" y="234.792651"/>
      </g>
     </g>
     <g id="text_13">
      <!-- 0.00225 -->
      <g transform="translate(9.246875 238.591869)scale(0.1 -0.1)">
       <use xlink:href="#DejaVuSans-30"/>
       <use x="63.623047" xlink:href="#DejaVuSans-2e"/>
       <use x="95.410156" xlink:href="#DejaVuSans-30"/>
       <use x="159.033203" xlink:href="#DejaVuSans-30"/>
       <use x="222.65625" xlink:href="#DejaVuSans-32"/>
       <use x="286.279297" xlink:href="#DejaVuSans-32"/>
       <use x="349.902344" xlink:href="#DejaVuSans-35"/>
      </g>
     </g>
    </g>
    <g id="ytick_4">
     <g id="line2d_13">
      <g>
       <use style="stroke:#000000;stroke-width:0.8;" x="57.6" xlink:href="#m58a4f08b41" y="202.773533"/>
      </g>
     </g>
     <g id="text_14">
      <!-- 0.00250 -->
      <g transform="translate(9.246875 206.572752)scale(0.1 -0.1)">
       <use xlink:href="#DejaVuSans-30"/>
       <use x="63.623047" xlink:href="#DejaVuSans-2e"/>
       <use x="95.410156" xlink:href="#DejaVuSans-30"/>
       <use x="159.033203" xlink:href="#DejaVuSans-30"/>
       <use x="222.65625" xlink:href="#DejaVuSans-32"/>
       <use x="286.279297" xlink:href="#DejaVuSans-35"/>
       <use x="349.902344" xlink:href="#DejaVuSans-30"/>
      </g>
     </g>
    </g>
    <g id="ytick_5">
     <g id="line2d_14">
      <g>
       <use style="stroke:#000000;stroke-width:0.8;" x="57.6" xlink:href="#m58a4f08b41" y="170.754415"/>
      </g>
     </g>
     <g id="text_15">
      <!-- 0.00275 -->
      <g transform="translate(9.246875 174.553634)scale(0.1 -0.1)">
       <use xlink:href="#DejaVuSans-30"/>
       <use x="63.623047" xlink:href="#DejaVuSans-2e"/>
       <use x="95.410156" xlink:href="#DejaVuSans-30"/>
       <use x="159.033203" xlink:href="#DejaVuSans-30"/>
       <use x="222.65625" xlink:href="#DejaVuSans-32"/>
       <use x="286.279297" xlink:href="#DejaVuSans-37"/>
       <use x="349.902344" xlink:href="#DejaVuSans-35"/>
      </g>
     </g>
    </g>
    <g id="ytick_6">
     <g id="line2d_15">
      <g>
       <use style="stroke:#000000;stroke-width:0.8;" x="57.6" xlink:href="#m58a4f08b41" y="138.735297"/>
      </g>
     </g>
     <g id="text_16">
      <!-- 0.00300 -->
      <g transform="translate(9.246875 142.534516)scale(0.1 -0.1)">
       <use xlink:href="#DejaVuSans-30"/>
       <use x="63.623047" xlink:href="#DejaVuSans-2e"/>
       <use x="95.410156" xlink:href="#DejaVuSans-30"/>
       <use x="159.033203" xlink:href="#DejaVuSans-30"/>
       <use x="222.65625" xlink:href="#DejaVuSans-33"/>
       <use x="286.279297" xlink:href="#DejaVuSans-30"/>
       <use x="349.902344" xlink:href="#DejaVuSans-30"/>
      </g>
     </g>
    </g>
    <g id="ytick_7">
     <g id="line2d_16">
      <g>
       <use style="stroke:#000000;stroke-width:0.8;" x="57.6" xlink:href="#m58a4f08b41" y="106.716179"/>
      </g>
     </g>
     <g id="text_17">
      <!-- 0.00325 -->
      <g transform="translate(9.246875 110.515398)scale(0.1 -0.1)">
       <use xlink:href="#DejaVuSans-30"/>
       <use x="63.623047" xlink:href="#DejaVuSans-2e"/>
       <use x="95.410156" xlink:href="#DejaVuSans-30"/>
       <use x="159.033203" xlink:href="#DejaVuSans-30"/>
       <use x="222.65625" xlink:href="#DejaVuSans-33"/>
       <use x="286.279297" xlink:href="#DejaVuSans-32"/>
       <use x="349.902344" xlink:href="#DejaVuSans-35"/>
      </g>
     </g>
    </g>
    <g id="ytick_8">
     <g id="line2d_17">
      <g>
       <use style="stroke:#000000;stroke-width:0.8;" x="57.6" xlink:href="#m58a4f08b41" y="74.697061"/>
      </g>
     </g>
     <g id="text_18">
      <!-- 0.00350 -->
      <g transform="translate(9.246875 78.49628)scale(0.1 -0.1)">
       <use xlink:href="#DejaVuSans-30"/>
       <use x="63.623047" xlink:href="#DejaVuSans-2e"/>
       <use x="95.410156" xlink:href="#DejaVuSans-30"/>
       <use x="159.033203" xlink:href="#DejaVuSans-30"/>
       <use x="222.65625" xlink:href="#DejaVuSans-33"/>
       <use x="286.279297" xlink:href="#DejaVuSans-35"/>
       <use x="349.902344" xlink:href="#DejaVuSans-30"/>
      </g>
     </g>
    </g>
    <g id="ytick_9">
     <g id="line2d_18">
      <g>
       <use style="stroke:#000000;stroke-width:0.8;" x="57.6" xlink:href="#m58a4f08b41" y="42.677943"/>
      </g>
     </g>
     <g id="text_19">
      <!-- 0.00375 -->
      <g transform="translate(9.246875 46.477162)scale(0.1 -0.1)">
       <use xlink:href="#DejaVuSans-30"/>
       <use x="63.623047" xlink:href="#DejaVuSans-2e"/>
       <use x="95.410156" xlink:href="#DejaVuSans-30"/>
       <use x="159.033203" xlink:href="#DejaVuSans-30"/>
       <use x="222.65625" xlink:href="#DejaVuSans-33"/>
       <use x="286.279297" xlink:href="#DejaVuSans-37"/>
       <use x="349.902344" xlink:href="#DejaVuSans-35"/>
      </g>
     </g>
    </g>
    <g id="text_20">
     <!-- loss -->
     <defs>
      <path d="M 9.421875 75.984375 
L 18.40625 75.984375 
L 18.40625 0 
L 9.421875 0 
z
" id="DejaVuSans-6c"/>
      <path d="M 44.28125 53.078125 
L 44.28125 44.578125 
Q 40.484375 46.53125 36.375 47.5 
Q 32.28125 48.484375 27.875 48.484375 
Q 21.1875 48.484375 17.84375 46.4375 
Q 14.5 44.390625 14.5 40.28125 
Q 14.5 37.15625 16.890625 35.375 
Q 19.28125 33.59375 26.515625 31.984375 
L 29.59375 31.296875 
Q 39.15625 29.25 43.1875 25.515625 
Q 47.21875 21.78125 47.21875 15.09375 
Q 47.21875 7.46875 41.1875 3.015625 
Q 35.15625 -1.421875 24.609375 -1.421875 
Q 20.21875 -1.421875 15.453125 -0.5625 
Q 10.6875 0.296875 5.421875 2 
L 5.421875 11.28125 
Q 10.40625 8.6875 15.234375 7.390625 
Q 20.0625 6.109375 24.8125 6.109375 
Q 31.15625 6.109375 34.5625 8.28125 
Q 37.984375 10.453125 37.984375 14.40625 
Q 37.984375 18.0625 35.515625 20.015625 
Q 33.0625 21.96875 24.703125 23.78125 
L 21.578125 24.515625 
Q 13.234375 26.265625 9.515625 29.90625 
Q 5.8125 33.546875 5.8125 39.890625 
Q 5.8125 47.609375 11.28125 51.796875 
Q 16.75 56 26.8125 56 
Q 31.78125 56 36.171875 55.265625 
Q 40.578125 54.546875 44.28125 53.078125 
z
" id="DejaVuSans-73"/>
     </defs>
     <g transform="translate(3.167187 184.185812)rotate(-90)scale(0.1 -0.1)">
      <use xlink:href="#DejaVuSans-6c"/>
      <use x="27.783203" xlink:href="#DejaVuSans-6f"/>
      <use x="88.964844" xlink:href="#DejaVuSans-73"/>
      <use x="141.064453" xlink:href="#DejaVuSans-73"/>
     </g>
    </g>
   </g>
   <g id="line2d_19">
    <path clip-path="url(#pdcef5e3728)" d="M 73.832727 53.568 
L 74.239053 91.414637 
L 74.645379 108.440373 
L 75.051706 118.84302 
L 75.864358 131.969164 
L 77.083336 144.678641 
L 77.489662 147.200233 
L 78.302314 154.809118 
L 79.114966 160.699308 
L 79.521293 163.058676 
L 79.927619 166.112341 
L 81.959249 175.818181 
L 82.771901 178.758732 
L 83.178227 179.680769 
L 83.99088 183.088766 
L 84.397206 184.188852 
L 84.803532 184.920333 
L 85.209858 186.686233 
L 86.02251 189.277418 
L 86.428836 189.443412 
L 86.835162 190.727346 
L 87.241488 191.597718 
L 87.647814 192.909147 
L 88.05414 193.303457 
L 88.866793 195.897796 
L 89.273119 196.254165 
L 90.898423 200.297505 
L 92.523727 203.408654 
L 92.930053 205.150588 
L 93.33638 205.630134 
L 93.742706 206.579752 
L 94.149032 208.163353 
L 94.555358 208.789786 
L 94.961684 209.689682 
L 95.36801 210.044805 
L 95.774336 211.429391 
L 96.180662 212.129216 
L 96.586988 212.382173 
L 97.39964 214.166605 
L 97.805967 214.699467 
L 98.212293 214.664034 
L 98.618619 216.264043 
L 99.024945 216.351796 
L 99.431271 216.998681 
L 99.837597 218.235198 
L 100.243923 217.835866 
L 100.650249 219.251446 
L 103.494532 223.068263 
L 103.900858 223.380364 
L 104.307184 223.448596 
L 105.119836 225.428752 
L 105.526162 225.096962 
L 105.932488 226.121824 
L 107.151467 226.869559 
L 107.557793 227.910249 
L 107.964119 227.91561 
L 108.370445 228.457689 
L 108.776771 228.679284 
L 109.183097 229.551747 
L 109.589423 229.868408 
L 109.995749 230.032613 
L 110.402075 230.962733 
L 110.808401 230.648309 
L 111.621054 231.335864 
L 112.02738 232.446383 
L 112.433706 231.997519 
L 112.840032 232.851716 
L 113.246358 233.11992 
L 113.652684 233.725922 
L 114.05901 233.479387 
L 114.465336 233.817677 
L 115.277988 235.0331 
L 116.496967 235.447705 
L 116.903293 235.996119 
L 117.309619 236.23238 
L 117.715945 236.286555 
L 118.122271 237.069466 
L 118.934923 237.324152 
L 119.341249 237.981337 
L 119.747575 238.043779 
L 120.153901 238.733779 
L 120.560228 239.010206 
L 120.966554 239.53261 
L 121.37288 239.310522 
L 121.779206 239.564489 
L 122.185532 240.179172 
L 122.998184 240.926666 
L 123.40451 241.212375 
L 123.810836 241.98351 
L 124.217162 242.000218 
L 125.029815 242.315158 
L 125.436141 242.700049 
L 125.842467 242.909114 
L 126.248793 242.864845 
L 127.061445 243.815308 
L 127.467771 243.992163 
L 127.874097 244.890926 
L 128.280423 244.430508 
L 128.686749 245.121636 
L 129.499402 245.092545 
L 129.905728 245.891432 
L 130.312054 246.137619 
L 130.71838 246.520477 
L 131.124706 246.384306 
L 131.531032 246.742261 
L 131.937358 246.779897 
L 132.343684 247.355719 
L 132.75001 247.239536 
L 133.562662 247.712843 
L 134.375315 248.391445 
L 134.781641 248.460667 
L 135.187967 248.967199 
L 135.594293 248.297319 
L 136.000619 249.265814 
L 136.406945 249.178887 
L 136.813271 249.278291 
L 137.219597 249.947435 
L 138.438575 250.915799 
L 138.844902 250.443767 
L 139.657554 251.151964 
L 140.06388 251.031316 
L 140.876532 252.072562 
L 141.282858 251.825821 
L 141.689184 251.965353 
L 142.501836 252.521856 
L 143.720815 252.827171 
L 144.127141 253.460428 
L 144.939793 253.160974 
L 145.346119 254.05501 
L 145.752445 254.479024 
L 146.565097 253.979663 
L 146.971423 254.184372 
L 147.377749 254.750314 
L 147.784076 254.597918 
L 148.190402 255.0193 
L 148.596728 255.640484 
L 149.003054 255.330562 
L 149.40938 255.211312 
L 150.222032 256.149435 
L 150.628358 256.016606 
L 151.034684 256.284227 
L 151.44101 256.967444 
L 151.847336 256.784785 
L 152.253663 256.892226 
L 152.659989 257.188333 
L 153.066315 257.051984 
L 153.472641 257.308794 
L 153.878967 257.85004 
L 154.285293 257.312923 
L 154.691619 257.51152 
L 155.504271 258.37295 
L 156.72325 258.599606 
L 157.129576 258.28589 
L 157.535902 259.032813 
L 158.348554 259.33935 
L 158.75488 258.866745 
L 159.161206 259.773173 
L 159.567532 259.443513 
L 159.973858 259.587695 
L 160.78651 260.243586 
L 162.005489 260.250962 
L 162.411815 261.244548 
L 162.818141 260.659705 
L 163.224467 260.941785 
L 163.630793 261.603088 
L 164.037119 261.177154 
L 164.443445 261.526743 
L 165.256097 261.506677 
L 165.662423 261.973407 
L 166.06875 261.723786 
L 166.475076 261.964087 
L 166.881402 262.629979 
L 168.10038 262.515747 
L 168.506706 263.066065 
L 169.319358 262.65791 
L 169.725684 263.718177 
L 170.13201 263.412466 
L 170.538337 263.736538 
L 171.350989 263.583193 
L 171.757315 263.969448 
L 172.163641 263.590602 
L 172.569967 264.333629 
L 173.382619 264.550879 
L 173.788945 264.377488 
L 174.195271 265.142389 
L 174.601597 265.323251 
L 175.007924 264.507798 
L 175.41425 264.938625 
L 175.820576 265.764275 
L 176.226902 265.208164 
L 176.633228 265.744435 
L 177.039554 265.583275 
L 177.44588 265.879974 
L 177.852206 265.67054 
L 178.664858 266.259865 
L 179.071184 266.416349 
L 179.477511 266.416531 
L 179.883837 265.832853 
L 180.290163 266.70871 
L 180.696489 267.133897 
L 181.102815 266.608237 
L 181.509141 267.18161 
L 181.915467 267.014727 
L 182.321793 267.04943 
L 182.728119 267.54514 
L 183.134445 267.34254 
L 183.540771 267.551089 
L 184.353424 267.557424 
L 184.75975 268.141356 
L 185.166076 268.260493 
L 185.572402 268.157015 
L 185.978728 268.548605 
L 186.385054 268.455603 
L 187.604032 268.923602 
L 188.010358 268.567704 
L 188.416684 269.062148 
L 188.823011 268.938636 
L 189.229337 269.23279 
L 190.041989 269.168681 
L 190.854641 269.801056 
L 191.260967 269.728803 
L 191.667293 270.081936 
L 192.073619 269.911301 
L 192.479945 270.403486 
L 192.886271 269.921541 
L 193.292598 269.790874 
L 193.698924 270.697597 
L 194.10525 270.376721 
L 194.511576 270.34568 
L 194.917902 270.591333 
L 195.324228 270.446673 
L 195.730554 271.149773 
L 196.13688 271.103723 
L 196.543206 271.176243 
L 196.949532 271.53258 
L 197.762185 271.4139 
L 198.168511 271.378481 
L 198.574837 271.758671 
L 198.981163 271.920053 
L 199.387489 271.539924 
L 199.793815 271.627153 
L 200.200141 272.386167 
L 200.606467 272.039302 
L 201.012793 272.113274 
L 201.419119 272.422345 
L 202.231772 272.364017 
L 202.638098 272.655845 
L 203.45075 272.922835 
L 203.857076 272.800853 
L 204.263402 273.358213 
L 204.669728 272.805198 
L 205.076054 273.487302 
L 205.48238 273.383581 
L 205.888706 273.533206 
L 206.295032 273.053434 
L 206.701359 273.520293 
L 207.107685 273.709666 
L 208.326663 273.74915 
L 208.732989 274.175632 
L 209.139315 274.248519 
L 209.545641 273.940029 
L 209.951967 274.441984 
L 210.358293 273.958055 
L 210.764619 274.782828 
L 211.170946 274.512133 
L 211.577272 274.72493 
L 212.79625 275.004957 
L 213.202576 274.562385 
L 213.608902 275.387739 
L 214.015228 275.030463 
L 214.421554 275.165492 
L 214.82788 275.564062 
L 215.234206 275.182907 
L 215.640532 275.597382 
L 216.046859 275.732002 
L 216.453185 275.241453 
L 216.859511 276.055073 
L 217.265837 275.28248 
L 217.672163 276.011417 
L 218.078489 275.465125 
L 218.484815 276.185802 
L 219.297467 276.087858 
L 219.703793 276.69685 
L 220.110119 275.973434 
L 220.516446 276.181348 
L 220.922772 276.622242 
L 221.329098 276.857088 
L 221.735424 276.658448 
L 222.14175 277.103122 
L 222.548076 276.660809 
L 223.767054 276.983848 
L 224.17338 277.164688 
L 224.579706 277.498608 
L 225.798685 277.412427 
L 226.205011 277.27007 
L 226.611337 277.826286 
L 227.017663 277.634107 
L 227.423989 277.847391 
L 227.830315 277.850209 
L 228.236641 277.996642 
L 228.642967 277.649148 
L 229.049293 278.136173 
L 229.861946 278.415225 
L 230.674598 278.141361 
L 231.080924 278.292517 
L 231.48725 278.836917 
L 231.893576 278.349171 
L 232.706228 278.754981 
L 233.51888 278.712028 
L 233.925207 278.916527 
L 234.331533 278.914022 
L 234.737859 279.2961 
L 235.144185 279.075829 
L 235.956837 279.74324 
L 236.769489 279.274138 
L 237.175815 279.428306 
L 237.582141 279.709578 
L 237.988467 278.876014 
L 238.394793 279.720673 
L 238.80112 279.902762 
L 239.207446 279.506238 
L 239.613772 279.999288 
L 240.020098 279.994484 
L 240.426424 279.610304 
L 240.83275 280.115573 
L 241.239076 279.73178 
L 241.645402 280.098864 
L 242.051728 280.213908 
L 242.458054 280.513192 
L 242.86438 280.286205 
L 243.270707 280.786788 
L 243.677033 280.81315 
L 244.083359 280.172713 
L 244.489685 281.087955 
L 244.896011 280.723592 
L 245.302337 280.988758 
L 245.708663 280.518028 
L 246.114989 281.07453 
L 246.521315 281.031078 
L 246.927641 280.171361 
L 247.333967 281.859018 
L 247.740294 281.079022 
L 248.14662 280.846154 
L 248.552946 281.114553 
L 248.959272 281.028254 
L 249.365598 281.500805 
L 249.771924 281.417145 
L 251.803554 281.771208 
L 252.209881 281.81141 
L 252.616207 282.103575 
L 253.022533 281.643263 
L 253.428859 282.187598 
L 253.835185 282.520143 
L 254.241511 282.423324 
L 254.647837 281.850292 
L 255.460489 282.461457 
L 255.866815 282.578142 
L 256.273141 282.23597 
L 256.679468 282.797004 
L 257.085794 282.662459 
L 257.49212 282.713872 
L 257.898446 282.225582 
L 258.304772 282.849952 
L 259.117424 282.749003 
L 259.52375 283.163202 
L 259.930076 282.747872 
L 260.336402 283.001308 
L 260.742728 282.952755 
L 261.149054 283.184509 
L 261.555381 282.549934 
L 261.961707 283.845445 
L 262.368033 283.257984 
L 262.774359 283.385611 
L 263.180685 283.245821 
L 263.993337 283.715236 
L 264.399663 283.496318 
L 264.805989 283.576284 
L 265.212315 283.95001 
L 265.618641 283.452773 
L 266.024968 283.335924 
L 266.431294 283.776945 
L 266.83762 284.011274 
L 267.243946 283.634042 
L 268.056598 283.864382 
L 268.86925 284.367297 
L 269.681902 284.042987 
L 270.494555 284.250045 
L 270.900881 284.049858 
L 271.307207 284.134566 
L 271.713533 284.776897 
L 272.119859 284.518044 
L 272.526185 284.515104 
L 272.932511 284.628996 
L 273.338837 284.457109 
L 273.745163 284.854036 
L 274.151489 284.558381 
L 274.557815 285.010268 
L 274.964142 284.832378 
L 275.370468 284.286734 
L 275.776794 285.038742 
L 276.589446 284.958444 
L 276.995772 284.795604 
L 277.402098 284.761822 
L 277.808424 285.404605 
L 278.21475 285.483284 
L 278.621076 285.073334 
L 279.027402 285.489433 
L 279.840055 285.644949 
L 280.246381 285.136033 
L 280.652707 285.330047 
L 281.059033 285.170408 
L 281.465359 285.631552 
L 281.871685 285.690664 
L 282.278011 285.535285 
L 282.684337 285.59771 
L 283.090663 286.026682 
L 283.903316 285.667073 
L 284.309642 286.241428 
L 284.715968 286.312102 
L 285.122294 285.858468 
L 285.52862 286.001141 
L 285.934946 286.561428 
L 286.341272 285.976434 
L 286.747598 286.303278 
L 287.56025 286.37292 
L 287.966576 286.517424 
L 289.998207 286.569137 
L 290.404533 286.787713 
L 290.810859 286.452889 
L 291.217185 286.882282 
L 291.623511 286.637751 
L 292.029837 286.954723 
L 293.248816 287.147846 
L 293.655142 286.740712 
L 294.467794 287.253278 
L 295.686772 287.218975 
L 296.499424 287.177692 
L 296.90575 287.474404 
L 297.312076 287.014369 
L 297.718403 287.489252 
L 298.124729 287.60102 
L 298.531055 287.13367 
L 298.937381 287.275102 
L 299.343707 287.577851 
L 299.750033 287.142567 
L 300.562685 287.735123 
L 300.969011 287.785499 
L 301.375337 288.163417 
L 301.781663 287.59119 
L 302.18799 288.142016 
L 303.000642 287.556375 
L 303.406968 287.989644 
L 303.813294 287.949223 
L 304.21962 288.04952 
L 304.625946 287.335519 
L 305.032272 288.394069 
L 305.844924 288.171384 
L 306.25125 288.596795 
L 306.657577 287.639571 
L 307.063903 288.583119 
L 307.876555 288.218941 
L 308.282881 288.780828 
L 308.689207 288.481622 
L 309.095533 288.682462 
L 309.501859 288.116203 
L 309.908185 288.542962 
L 311.127163 288.709429 
L 311.53349 288.56366 
L 311.939816 288.891439 
L 312.346142 288.641028 
L 312.752468 289.015284 
L 313.158794 288.9077 
L 313.56512 288.94404 
L 313.971446 289.309815 
L 314.377772 289.088605 
L 314.784098 289.109971 
L 315.59675 289.298658 
L 316.003077 289.019285 
L 316.409403 289.001847 
L 317.222055 289.480202 
L 317.628381 289.6752 
L 318.034707 289.537426 
L 318.441033 289.657055 
L 318.847359 289.339451 
L 320.066337 289.579393 
L 320.472664 289.878276 
L 320.87899 289.556134 
L 321.691642 289.766577 
L 322.91062 289.929053 
L 323.316946 289.711731 
L 323.723272 289.363545 
L 324.129598 290.086418 
L 324.535924 289.907107 
L 324.942251 290.175549 
L 325.348577 289.914251 
L 325.754903 290.274494 
L 326.161229 290.181052 
L 326.567555 289.773702 
L 326.973881 290.146192 
L 327.380207 290.260102 
L 327.786533 290.181727 
L 328.192859 290.396472 
L 328.599185 290.446739 
L 329.411838 289.750309 
L 329.818164 290.447701 
L 330.22449 290.545559 
L 330.630816 290.251468 
L 331.443468 290.567073 
L 331.849794 290.924182 
L 332.662446 290.374257 
L 333.068772 290.781609 
L 333.881425 290.714269 
L 334.287751 290.360411 
L 334.694077 290.447976 
L 335.100403 290.933906 
L 335.506729 290.80161 
L 335.913055 291.162258 
L 336.319381 290.968356 
L 336.725707 291.273548 
L 337.132033 290.989227 
L 337.538359 291.052749 
L 337.944685 290.527116 
L 338.351011 290.725461 
L 338.757338 291.492563 
L 339.163664 291.318653 
L 339.56999 290.724832 
L 339.976316 291.557162 
L 340.382642 291.256073 
L 341.195294 291.561706 
L 341.60162 291.654131 
L 342.007946 291.416601 
L 342.414272 291.413057 
L 342.820598 291.621681 
L 343.226925 291.255679 
L 343.633251 291.621979 
L 344.445903 291.191768 
L 344.852229 291.81578 
L 345.258555 291.150991 
L 346.071207 291.774028 
L 346.883859 291.869399 
L 347.290185 291.54871 
L 347.696512 291.637658 
L 348.102838 292.223674 
L 348.509164 291.770992 
L 348.91549 291.948887 
L 349.321816 291.323757 
L 349.728142 292.212824 
L 350.134468 292.337205 
L 350.540794 291.874706 
L 350.94712 291.802519 
L 351.353446 292.155339 
L 351.759772 292.127332 
L 352.166099 292.31471 
L 352.572425 291.829848 
L 352.978751 292.391079 
L 353.385077 292.131237 
L 353.791403 292.572881 
L 354.197729 292.222768 
L 355.416707 292.268746 
L 355.823033 291.965616 
L 356.635686 292.879758 
L 357.448338 292.351991 
L 357.854664 292.92233 
L 358.26099 292.856319 
L 359.073642 292.233178 
L 359.479968 292.672747 
L 359.886294 292.322126 
L 360.29262 292.789498 
L 360.698946 292.823887 
L 361.105272 292.98315 
L 361.511599 291.923478 
L 361.917925 292.940253 
L 362.324251 293.366021 
L 362.730577 292.989461 
L 363.543229 292.900291 
L 363.949555 293.141562 
L 365.574859 293.136179 
L 365.981186 293.170928 
L 366.387512 293.364239 
L 367.200164 293.150931 
L 367.60649 293.522096 
L 368.012816 293.531804 
L 368.419142 293.175313 
L 369.231794 293.594898 
L 369.63812 293.239505 
L 370.044446 293.411021 
L 370.450773 293.886246 
L 370.857099 293.465898 
L 371.263425 293.401543 
L 371.669751 293.656062 
L 372.076077 293.383701 
L 372.888729 293.62389 
L 373.295055 293.542865 
L 373.701381 293.758452 
L 374.514033 293.579267 
L 374.92036 293.871645 
L 375.326686 293.585762 
L 375.733012 294.01673 
L 376.139338 293.986699 
L 376.545664 293.774813 
L 376.95199 293.757694 
L 377.358316 294.060275 
L 377.764642 294.066136 
L 378.170968 293.700114 
L 378.577294 294.384849 
L 378.98362 293.728421 
L 379.796273 294.354821 
L 380.608925 293.897055 
L 382.234229 294.358577 
L 383.046881 294.214572 
L 383.453207 294.548203 
L 384.26586 294.319581 
L 385.078512 294.56097 
L 385.484838 294.397362 
L 385.891164 294.684516 
L 386.29749 294.374229 
L 387.516468 294.511174 
L 387.922794 294.75856 
L 389.141773 294.906724 
L 389.548099 294.511163 
L 389.954425 294.596775 
L 390.360751 294.526459 
L 390.767077 294.820249 
L 391.173403 294.874543 
L 391.579729 294.637595 
L 391.986055 294.992457 
L 392.392381 294.587698 
L 392.798707 295.128473 
L 393.205034 295.18852 
L 393.61136 294.740469 
L 394.017686 294.89812 
L 394.424012 294.890684 
L 395.236664 295.227954 
L 395.64299 295.083407 
L 396.049316 294.2874 
L 396.455642 295.370493 
L 396.861968 295.13428 
L 397.268294 295.488 
L 397.674621 295.424253 
L 398.080947 294.661255 
L 398.487273 295.170884 
L 398.487273 295.170884 
" style="fill:none;stroke:#ff0000;stroke-linecap:square;stroke-width:1.5;"/>
   </g>
   <g id="line2d_20">
    <path clip-path="url(#pdcef5e3728)" d="M 73.832727 75.723648 
L 74.239053 102.638237 
L 74.645379 117.315816 
L 75.051706 118.383846 
L 75.458032 125.385492 
L 75.864358 129.228047 
L 76.270684 137.673985 
L 76.67701 140.602355 
L 77.083336 140.487666 
L 77.489662 149.474408 
L 77.895988 153.080836 
L 78.302314 152.844002 
L 78.70864 156.587145 
L 79.114966 161.586292 
L 79.521293 162.060791 
L 79.927619 165.55041 
L 80.333945 165.376055 
L 80.740271 163.348994 
L 81.146597 170.916275 
L 81.552923 171.620336 
L 81.959249 168.60395 
L 82.365575 168.482816 
L 82.771901 174.772577 
L 83.178227 177.074733 
L 83.584553 176.297408 
L 83.99088 179.685359 
L 84.397206 177.821083 
L 84.803532 183.766282 
L 85.209858 179.590474 
L 85.616184 178.775505 
L 86.02251 182.99935 
L 86.428836 183.240895 
L 87.241488 187.136426 
L 87.647814 189.733904 
L 88.05414 190.700392 
L 88.460466 190.09582 
L 88.866793 182.843261 
L 89.273119 188.389701 
L 89.679445 189.807024 
L 90.085771 191.915729 
L 90.492097 189.662978 
L 90.898423 193.044275 
L 91.304749 191.215943 
L 91.711075 191.784534 
L 92.117401 198.517861 
L 92.523727 196.748283 
L 92.930053 196.739373 
L 93.33638 192.186221 
L 93.742706 198.925697 
L 94.555358 197.844661 
L 94.961684 198.47825 
L 95.36801 198.72256 
L 95.774336 203.082282 
L 96.180662 202.481864 
L 96.586988 203.683823 
L 96.993314 203.602154 
L 97.39964 203.66281 
L 97.805967 206.116522 
L 98.212293 205.133122 
L 98.618619 207.102138 
L 99.837597 200.553406 
L 100.243923 207.423778 
L 100.650249 206.311479 
L 101.056575 210.3666 
L 101.462901 209.373388 
L 101.869227 207.702381 
L 102.275554 208.195826 
L 102.68188 211.868919 
L 103.088206 213.34501 
L 103.494532 205.975635 
L 103.900858 212.177565 
L 104.307184 211.0482 
L 104.71351 213.750104 
L 105.119836 213.03985 
L 105.526162 213.354826 
L 105.932488 209.655088 
L 106.338814 213.000153 
L 106.745141 211.505178 
L 107.151467 203.909449 
L 107.557793 212.431779 
L 107.964119 215.419121 
L 108.370445 215.494 
L 108.776771 216.777967 
L 109.183097 212.748811 
L 109.589423 213.253755 
L 109.995749 216.402325 
L 110.402075 212.944294 
L 110.808401 215.315769 
L 111.214728 216.562041 
L 111.621054 214.654132 
L 112.02738 216.079434 
L 112.433706 215.975291 
L 112.840032 216.863434 
L 113.246358 214.404428 
L 113.652684 220.386344 
L 114.05901 213.448863 
L 114.465336 214.444478 
L 114.871662 219.380294 
L 115.277988 220.085498 
L 115.684314 217.141987 
L 116.090641 213.185118 
L 116.496967 219.646729 
L 116.903293 221.207953 
L 117.309619 214.337506 
L 117.715945 219.186154 
L 118.122271 219.547528 
L 118.528597 219.644085 
L 118.934923 220.757986 
L 119.341249 220.675515 
L 119.747575 222.713803 
L 120.153901 221.187455 
L 120.560228 222.910906 
L 120.966554 221.279126 
L 121.37288 221.646123 
L 121.779206 223.177229 
L 122.185532 222.397127 
L 122.591858 222.871856 
L 122.998184 224.321948 
L 123.810836 219.570069 
L 124.217162 221.160996 
L 124.623488 221.544544 
L 125.029815 225.127478 
L 125.436141 221.190954 
L 125.842467 224.425577 
L 126.248793 225.177629 
L 126.655119 223.061491 
L 127.061445 225.674629 
L 127.874097 220.124992 
L 128.280423 224.818514 
L 128.686749 223.854433 
L 129.093075 222.170389 
L 129.499402 223.658307 
L 129.905728 223.981293 
L 130.312054 226.336419 
L 130.71838 222.726711 
L 131.124706 224.109819 
L 131.531032 228.215303 
L 131.937358 223.176864 
L 132.343684 221.539956 
L 133.156336 222.977504 
L 133.562662 227.481183 
L 133.968989 223.538357 
L 134.375315 225.603243 
L 134.781641 226.549609 
L 135.187967 224.440627 
L 135.594293 227.233518 
L 136.000619 223.657214 
L 136.406945 225.829942 
L 136.813271 225.664429 
L 137.219597 219.769864 
L 137.625923 218.166869 
L 138.032249 222.007229 
L 138.438575 223.358053 
L 138.844902 226.678926 
L 139.251228 225.009232 
L 139.657554 226.641627 
L 140.06388 221.875196 
L 140.470206 226.680235 
L 140.876532 226.223558 
L 141.282858 225.286646 
L 141.689184 227.769987 
L 142.09551 222.808246 
L 142.501836 229.498343 
L 142.908162 228.018865 
L 143.314489 224.758631 
L 143.720815 228.916265 
L 144.127141 227.372388 
L 144.533467 227.669558 
L 144.939793 228.43671 
L 145.346119 224.119264 
L 145.752445 226.908169 
L 146.158771 223.775435 
L 146.971423 227.917149 
L 147.377749 225.81924 
L 147.784076 228.712883 
L 148.190402 227.356076 
L 148.596728 224.076782 
L 149.003054 227.507502 
L 149.40938 227.843268 
L 149.815706 228.519567 
L 150.222032 223.963689 
L 150.628358 225.531779 
L 151.034684 230.424607 
L 151.44101 229.54289 
L 151.847336 229.11028 
L 152.253663 225.001584 
L 152.659989 229.212198 
L 153.066315 225.931577 
L 153.472641 228.516186 
L 153.878967 225.347028 
L 154.285293 228.759284 
L 154.691619 228.820426 
L 155.097945 230.17801 
L 155.504271 226.235366 
L 155.910597 230.698441 
L 156.316923 224.486737 
L 156.72325 229.026631 
L 157.129576 223.459149 
L 157.535902 231.931258 
L 157.942228 227.014804 
L 158.348554 230.636771 
L 158.75488 229.340637 
L 159.161206 230.099971 
L 159.567532 230.2803 
L 160.380184 228.069558 
L 160.78651 226.126877 
L 161.192837 230.591471 
L 161.599163 231.220272 
L 162.005489 230.034245 
L 162.411815 231.894644 
L 162.818141 231.710254 
L 163.224467 229.501595 
L 163.630793 229.905672 
L 164.037119 229.647224 
L 164.443445 228.596153 
L 164.849771 224.303634 
L 165.256097 231.070962 
L 165.662423 230.188176 
L 166.475076 229.441652 
L 166.881402 226.592348 
L 167.287728 229.99758 
L 167.694054 227.648983 
L 168.10038 231.289626 
L 168.506706 229.578358 
L 168.913032 231.123667 
L 169.319358 232.082318 
L 170.13201 229.097169 
L 170.538337 231.734232 
L 170.944663 230.019316 
L 171.757315 229.829046 
L 172.163641 230.938995 
L 172.569967 231.419272 
L 172.976293 231.08892 
L 173.382619 229.012464 
L 174.195271 231.189491 
L 174.601597 228.548914 
L 175.007924 230.827341 
L 175.41425 230.259718 
L 175.820576 228.844864 
L 176.226902 231.674232 
L 176.633228 230.113986 
L 177.039554 225.521895 
L 177.44588 229.982878 
L 177.852206 228.484918 
L 178.258532 231.430537 
L 178.664858 232.820223 
L 179.071184 228.252014 
L 179.883837 232.635296 
L 180.290163 231.786707 
L 180.696489 230.116295 
L 181.102815 230.707147 
L 181.509141 231.780774 
L 181.915467 231.362874 
L 182.321793 231.711668 
L 182.728119 225.663826 
L 183.134445 229.889152 
L 183.540771 227.36801 
L 184.353424 231.816899 
L 184.75975 230.630031 
L 185.166076 232.613166 
L 185.572402 230.030275 
L 185.978728 232.248486 
L 186.385054 231.435099 
L 186.79138 226.702053 
L 187.197706 231.66922 
L 187.604032 231.988901 
L 188.010358 233.479649 
L 188.416684 228.157492 
L 188.823011 230.646046 
L 189.229337 229.974121 
L 189.635663 232.912492 
L 190.041989 231.396184 
L 190.448315 231.63898 
L 190.854641 234.537656 
L 191.260967 228.265494 
L 191.667293 230.966643 
L 192.073619 230.523416 
L 192.479945 230.736546 
L 192.886271 230.366975 
L 193.292598 226.121439 
L 193.698924 231.950938 
L 194.10525 232.349884 
L 194.511576 231.83529 
L 194.917902 229.872662 
L 195.324228 232.383923 
L 195.730554 229.695776 
L 196.13688 229.05045 
L 196.543206 231.238434 
L 196.949532 232.148261 
L 197.355858 230.295593 
L 197.762185 230.556741 
L 198.168511 233.244285 
L 198.574837 233.411889 
L 198.981163 233.011223 
L 199.387489 227.855154 
L 199.793815 233.051872 
L 200.200141 229.957971 
L 200.606467 230.902694 
L 201.012793 232.535048 
L 201.419119 230.26133 
L 201.825445 231.397399 
L 202.231772 230.809982 
L 202.638098 232.43581 
L 203.044424 233.386563 
L 203.45075 228.231425 
L 203.857076 233.068746 
L 204.263402 230.715485 
L 204.669728 229.283098 
L 205.076054 231.424551 
L 205.48238 231.459499 
L 205.888706 231.35511 
L 206.295032 232.592826 
L 206.701359 230.242545 
L 207.107685 231.803234 
L 207.514011 232.875952 
L 207.920337 230.814631 
L 208.326663 233.213124 
L 208.732989 231.709786 
L 209.139315 233.603254 
L 209.545641 230.824169 
L 209.951967 230.713094 
L 210.358293 225.309631 
L 210.764619 231.108254 
L 211.170946 231.103734 
L 211.577272 230.803401 
L 211.983598 231.63854 
L 212.389924 231.701712 
L 213.202576 231.26218 
L 213.608902 229.994136 
L 214.015228 231.156298 
L 214.421554 232.768679 
L 214.82788 232.252449 
L 215.640532 230.303525 
L 216.046859 234.323483 
L 216.453185 231.97358 
L 216.859511 230.939402 
L 217.265837 231.379062 
L 217.672163 232.160308 
L 218.078489 228.506828 
L 218.484815 228.459454 
L 219.297467 234.280992 
L 219.703793 232.59566 
L 220.110119 231.461009 
L 220.516446 230.938384 
L 220.922772 229.848567 
L 221.329098 230.94079 
L 221.735424 233.084105 
L 222.14175 232.073754 
L 222.548076 233.014489 
L 222.954402 231.767691 
L 223.360728 230.160984 
L 223.767054 233.321157 
L 224.17338 232.969958 
L 224.579706 232.249791 
L 224.986033 226.827261 
L 225.392359 230.87826 
L 225.798685 231.738237 
L 226.205011 227.769929 
L 226.611337 231.19796 
L 227.017663 232.427464 
L 227.423989 230.273973 
L 227.830315 230.82998 
L 228.236641 232.218141 
L 228.642967 233.019937 
L 229.049293 230.521404 
L 229.45562 231.052169 
L 229.861946 230.962428 
L 230.268272 232.758971 
L 230.674598 233.34093 
L 231.080924 233.486817 
L 231.48725 230.561598 
L 231.893576 232.235072 
L 232.706228 231.357885 
L 233.112554 231.720569 
L 233.51888 233.532234 
L 233.925207 227.58589 
L 234.331533 232.197979 
L 234.737859 231.195454 
L 235.144185 230.784707 
L 235.550511 232.968047 
L 235.956837 233.683824 
L 236.363163 231.635235 
L 236.769489 230.860738 
L 237.175815 231.726308 
L 237.582141 231.240171 
L 237.988467 228.862807 
L 238.394793 230.96339 
L 238.80112 232.46911 
L 239.207446 230.756343 
L 239.613772 231.20189 
L 240.020098 230.185922 
L 240.426424 229.519008 
L 240.83275 232.163612 
L 241.239076 229.065042 
L 241.645402 229.656107 
L 242.051728 232.334726 
L 242.458054 233.164347 
L 242.86438 229.714559 
L 243.677033 232.408064 
L 244.083359 231.053475 
L 244.489685 230.446039 
L 244.896011 230.452403 
L 245.302337 230.766257 
L 245.708663 232.278445 
L 246.114989 232.474688 
L 246.521315 232.097928 
L 246.927641 230.907988 
L 247.333967 230.608414 
L 247.740294 229.755214 
L 248.14662 232.62215 
L 248.552946 234.633097 
L 248.959272 229.726049 
L 249.365598 233.396559 
L 249.771924 231.159039 
L 250.17825 230.988197 
L 250.990902 232.928907 
L 251.397228 228.394366 
L 251.803554 232.503772 
L 252.209881 230.510073 
L 252.616207 232.914438 
L 253.022533 232.865006 
L 253.428859 230.293936 
L 253.835185 229.977446 
L 254.241511 232.579393 
L 254.647837 232.202316 
L 255.054163 230.731164 
L 255.460489 231.018566 
L 255.866815 232.669251 
L 256.273141 232.110411 
L 256.679468 232.506551 
L 257.085794 231.453139 
L 257.49212 231.807672 
L 257.898446 232.471868 
L 258.304772 232.806165 
L 258.711098 233.59192 
L 259.117424 233.572341 
L 259.52375 225.873514 
L 259.930076 227.135828 
L 260.336402 229.795092 
L 260.742728 226.553454 
L 261.149054 228.47111 
L 261.555381 233.048675 
L 261.961707 228.485538 
L 262.368033 228.343716 
L 262.774359 232.460974 
L 263.180685 230.220674 
L 263.587011 231.563564 
L 263.993337 232.400636 
L 264.399663 232.722987 
L 264.805989 232.890077 
L 265.212315 232.105937 
L 265.618641 228.645366 
L 266.024968 232.379699 
L 266.431294 231.265536 
L 266.83762 231.529212 
L 267.243946 231.306573 
L 267.650272 230.486035 
L 268.056598 228.695547 
L 268.462924 232.659743 
L 268.86925 228.216222 
L 269.275576 230.228503 
L 269.681902 226.99562 
L 270.088228 232.222999 
L 270.494555 232.137254 
L 270.900881 226.347468 
L 271.307207 231.090266 
L 272.119859 230.358038 
L 272.526185 232.091327 
L 272.932511 230.364435 
L 273.338837 231.946574 
L 273.745163 231.161544 
L 274.151489 228.754832 
L 274.557815 232.731651 
L 274.964142 230.707197 
L 275.776794 231.326873 
L 276.18312 230.465183 
L 276.589446 228.91345 
L 276.995772 229.786316 
L 277.402098 232.304408 
L 277.808424 229.349911 
L 278.21475 231.263001 
L 278.621076 231.538276 
L 279.027402 230.758395 
L 279.433729 231.479711 
L 279.840055 231.64761 
L 280.246381 231.464102 
L 280.652707 232.981187 
L 281.059033 224.226558 
L 281.871685 234.042976 
L 282.278011 230.733752 
L 282.684337 231.420915 
L 283.090663 230.934964 
L 283.496989 230.768002 
L 284.309642 229.577593 
L 284.715968 231.062618 
L 285.52862 231.798367 
L 285.934946 232.478827 
L 286.341272 230.100454 
L 286.747598 230.525746 
L 287.153924 232.23391 
L 287.56025 230.525669 
L 287.966576 227.485897 
L 288.372902 231.371683 
L 288.779229 231.786927 
L 289.185555 229.295705 
L 289.591881 232.159358 
L 289.998207 230.871492 
L 290.404533 230.922682 
L 290.810859 232.953065 
L 291.217185 230.769472 
L 291.623511 227.951597 
L 292.029837 229.696891 
L 292.436163 229.724253 
L 292.842489 230.864284 
L 293.248816 230.700321 
L 293.655142 230.00318 
L 294.061468 231.949883 
L 294.467794 230.603705 
L 294.87412 230.45748 
L 295.280446 231.769771 
L 295.686772 229.20824 
L 296.093098 231.910358 
L 296.499424 231.094543 
L 297.312076 231.05473 
L 298.124729 229.3729 
L 298.531055 231.849228 
L 298.937381 228.453735 
L 299.343707 231.982511 
L 299.750033 230.54417 
L 300.156359 232.423335 
L 300.562685 231.798064 
L 300.969011 229.164762 
L 301.375337 232.691838 
L 301.781663 230.984395 
L 302.18799 230.767754 
L 302.594316 230.907367 
L 303.000642 231.924572 
L 303.406968 230.128118 
L 303.813294 230.215786 
L 304.21962 231.473748 
L 304.625946 231.433524 
L 305.844924 229.618897 
L 306.25125 231.329503 
L 306.657577 229.801203 
L 307.063903 229.884986 
L 307.470229 230.157295 
L 307.876555 231.917139 
L 308.282881 231.469404 
L 308.689207 230.659634 
L 309.095533 230.758173 
L 309.501859 227.629549 
L 309.908185 230.311964 
L 310.314511 231.113456 
L 310.720837 229.624058 
L 311.127163 231.923835 
L 311.53349 229.175244 
L 311.939816 230.653363 
L 312.752468 229.411649 
L 313.158794 229.749506 
L 313.56512 229.499406 
L 313.971446 231.502467 
L 314.377772 230.202838 
L 314.784098 229.608023 
L 315.190424 232.356263 
L 315.59675 231.405698 
L 316.003077 232.230565 
L 316.409403 230.742013 
L 316.815729 230.899446 
L 317.222055 231.43343 
L 317.628381 231.485233 
L 318.034707 229.896122 
L 318.441033 231.555599 
L 318.847359 230.864749 
L 319.253685 229.393841 
L 319.660011 231.526746 
L 320.066337 231.108339 
L 320.472664 232.723025 
L 320.87899 232.007305 
L 321.285316 230.871119 
L 321.691642 228.606738 
L 322.097968 229.424216 
L 322.504294 228.437305 
L 322.91062 225.29098 
L 323.316946 231.905345 
L 323.723272 231.6311 
L 324.129598 230.163459 
L 324.535924 230.514589 
L 324.942251 231.415226 
L 325.754903 226.78713 
L 326.161229 229.718597 
L 326.567555 231.519842 
L 326.973881 230.974409 
L 327.380207 228.696295 
L 327.786533 231.242575 
L 328.192859 231.629794 
L 328.599185 226.744276 
L 329.005511 227.502794 
L 329.411838 226.092853 
L 329.818164 228.972298 
L 330.22449 229.759765 
L 330.630816 230.225576 
L 331.037142 230.993044 
L 331.443468 229.886547 
L 331.849794 230.705215 
L 332.25612 232.824471 
L 332.662446 231.884488 
L 333.068772 230.355017 
L 333.475098 231.569457 
L 333.881425 229.151678 
L 334.287751 231.357769 
L 334.694077 231.983195 
L 335.100403 223.604441 
L 335.506729 228.747463 
L 336.319381 231.035226 
L 336.725707 230.608069 
L 337.132033 226.648092 
L 337.538359 231.46665 
L 337.944685 229.661955 
L 338.351011 230.195813 
L 338.757338 229.469597 
L 339.163664 228.387016 
L 339.56999 226.046626 
L 339.976316 230.238203 
L 340.382642 231.318935 
L 340.788968 230.975858 
L 341.195294 229.603121 
L 341.60162 230.357106 
L 342.007946 228.49528 
L 342.414272 231.019193 
L 342.820598 230.369912 
L 343.226925 230.845702 
L 343.633251 228.08408 
L 344.039577 226.962676 
L 344.445903 230.185587 
L 344.852229 224.492083 
L 345.258555 226.818647 
L 345.664881 227.971422 
L 346.071207 229.880199 
L 346.477533 230.677845 
L 346.883859 229.196014 
L 347.290185 228.637087 
L 347.696512 227.602418 
L 348.102838 230.257137 
L 348.509164 230.630524 
L 348.91549 230.564517 
L 349.321816 227.139125 
L 349.728142 230.986675 
L 350.134468 226.629964 
L 350.540794 229.894136 
L 350.94712 229.265527 
L 351.353446 230.623604 
L 351.759772 230.328073 
L 352.166099 231.42259 
L 352.978751 229.531963 
L 353.385077 230.71808 
L 353.791403 230.745216 
L 354.197729 230.044804 
L 354.604055 228.343243 
L 355.010381 230.74451 
L 355.416707 228.139917 
L 355.823033 230.45158 
L 356.229359 231.043856 
L 356.635686 230.441021 
L 357.042012 226.581809 
L 357.448338 227.451578 
L 357.854664 231.614343 
L 358.26099 230.579711 
L 358.667316 228.721445 
L 359.073642 227.463581 
L 359.479968 230.307109 
L 359.886294 231.70508 
L 360.29262 228.920948 
L 360.698946 230.722815 
L 361.511599 223.888164 
L 361.917925 230.309594 
L 362.324251 231.365147 
L 362.730577 230.428926 
L 363.136903 231.155665 
L 363.543229 231.140195 
L 363.949555 229.979902 
L 364.355881 231.387157 
L 364.762207 230.584082 
L 365.168533 230.180056 
L 365.574859 230.063851 
L 365.981186 230.517991 
L 366.387512 228.402835 
L 366.793838 231.316388 
L 367.200164 231.811316 
L 367.60649 227.000253 
L 368.012816 229.348714 
L 368.419142 229.026222 
L 369.231794 230.295236 
L 369.63812 228.880804 
L 370.044446 231.05159 
L 370.450773 230.703963 
L 370.857099 230.918741 
L 371.263425 229.946141 
L 371.669751 229.536985 
L 372.076077 230.372371 
L 372.482403 228.766278 
L 372.888729 230.754513 
L 373.295055 230.831089 
L 373.701381 228.348017 
L 374.107707 230.786249 
L 374.514033 229.783175 
L 374.92036 231.366458 
L 375.326686 227.357362 
L 375.733012 225.927469 
L 376.139338 229.874684 
L 376.545664 229.396254 
L 376.95199 227.483167 
L 377.358316 231.129867 
L 377.764642 229.269425 
L 378.170968 228.716673 
L 378.577294 229.685926 
L 378.98362 231.643912 
L 379.796273 226.756353 
L 380.202599 228.756932 
L 380.608925 229.998274 
L 381.015251 229.749959 
L 381.421577 227.26379 
L 381.827903 227.898706 
L 382.234229 226.427932 
L 382.640555 230.696931 
L 383.046881 230.554563 
L 383.453207 228.430911 
L 383.859534 228.764192 
L 384.26586 229.715226 
L 384.672186 230.174145 
L 385.078512 228.541996 
L 385.484838 228.856118 
L 385.891164 229.356402 
L 386.29749 228.596245 
L 386.703816 229.460592 
L 387.110142 228.99135 
L 387.516468 231.063665 
L 387.922794 231.242438 
L 388.32912 225.06392 
L 388.735447 229.846563 
L 389.141773 229.780653 
L 389.548099 228.946928 
L 389.954425 229.769053 
L 390.360751 226.428934 
L 390.767077 230.295216 
L 391.173403 228.438168 
L 391.579729 230.277981 
L 391.986055 228.68914 
L 392.392381 228.909005 
L 392.798707 231.039582 
L 393.205034 229.114751 
L 393.61136 224.32424 
L 394.017686 227.768469 
L 394.424012 227.87198 
L 394.830338 229.411296 
L 395.236664 227.595512 
L 395.64299 230.182224 
L 396.049316 230.419595 
L 396.455642 229.997148 
L 396.861968 228.801185 
L 397.268294 229.524433 
L 397.674621 228.759911 
L 398.080947 229.915096 
L 398.487273 229.650059 
L 398.487273 229.650059 
" style="fill:none;stroke:#008000;stroke-linecap:square;stroke-width:1.5;"/>
   </g>
   <g id="patch_3">
    <path d="M 57.6 307.584 
L 57.6 41.472 
" style="fill:none;stroke:#000000;stroke-linecap:square;stroke-linejoin:miter;stroke-width:0.8;"/>
   </g>
   <g id="patch_4">
    <path d="M 414.72 307.584 
L 414.72 41.472 
" style="fill:none;stroke:#000000;stroke-linecap:square;stroke-linejoin:miter;stroke-width:0.8;"/>
   </g>
   <g id="patch_5">
    <path d="M 57.6 307.584 
L 414.72 307.584 
" style="fill:none;stroke:#000000;stroke-linecap:square;stroke-linejoin:miter;stroke-width:0.8;"/>
   </g>
   <g id="patch_6">
    <path d="M 57.6 41.472 
L 414.72 41.472 
" style="fill:none;stroke:#000000;stroke-linecap:square;stroke-linejoin:miter;stroke-width:0.8;"/>
   </g>
   <g id="text_21">
    <!-- loss val_loss -->
    <defs>
     <path id="DejaVuSans-20"/>
     <path d="M 2.984375 54.6875 
L 12.5 54.6875 
L 29.59375 8.796875 
L 46.6875 54.6875 
L 56.203125 54.6875 
L 35.6875 0 
L 23.484375 0 
z
" id="DejaVuSans-76"/>
     <path d="M 34.28125 27.484375 
Q 23.390625 27.484375 19.1875 25 
Q 14.984375 22.515625 14.984375 16.5 
Q 14.984375 11.71875 18.140625 8.90625 
Q 21.296875 6.109375 26.703125 6.109375 
Q 34.1875 6.109375 38.703125 11.40625 
Q 43.21875 16.703125 43.21875 25.484375 
L 43.21875 27.484375 
z
M 52.203125 31.203125 
L 52.203125 0 
L 43.21875 0 
L 43.21875 8.296875 
Q 40.140625 3.328125 35.546875 0.953125 
Q 30.953125 -1.421875 24.3125 -1.421875 
Q 15.921875 -1.421875 10.953125 3.296875 
Q 6 8.015625 6 15.921875 
Q 6 25.140625 12.171875 29.828125 
Q 18.359375 34.515625 30.609375 34.515625 
L 43.21875 34.515625 
L 43.21875 35.40625 
Q 43.21875 41.609375 39.140625 45 
Q 35.0625 48.390625 27.6875 48.390625 
Q 23 48.390625 18.546875 47.265625 
Q 14.109375 46.140625 10.015625 43.890625 
L 10.015625 52.203125 
Q 14.9375 54.109375 19.578125 55.046875 
Q 24.21875 56 28.609375 56 
Q 40.484375 56 46.34375 49.84375 
Q 52.203125 43.703125 52.203125 31.203125 
z
" id="DejaVuSans-61"/>
     <path d="M 50.984375 -16.609375 
L 50.984375 -23.578125 
L -0.984375 -23.578125 
L -0.984375 -16.609375 
z
" id="DejaVuSans-5f"/>
    </defs>
    <g transform="translate(199.179375 35.472)scale(0.12 -0.12)">
     <use xlink:href="#DejaVuSans-6c"/>
     <use x="27.783203" xlink:href="#DejaVuSans-6f"/>
     <use x="88.964844" xlink:href="#DejaVuSans-73"/>
     <use x="141.064453" xlink:href="#DejaVuSans-73"/>
     <use x="193.164062" xlink:href="#DejaVuSans-20"/>
     <use x="224.951172" xlink:href="#DejaVuSans-76"/>
     <use x="284.130859" xlink:href="#DejaVuSans-61"/>
     <use x="345.410156" xlink:href="#DejaVuSans-6c"/>
     <use x="373.193359" xlink:href="#DejaVuSans-5f"/>
     <use x="423.193359" xlink:href="#DejaVuSans-6c"/>
     <use x="450.976562" xlink:href="#DejaVuSans-6f"/>
     <use x="512.158203" xlink:href="#DejaVuSans-73"/>
     <use x="564.257812" xlink:href="#DejaVuSans-73"/>
    </g>
   </g>
   <g id="legend_1">
    <g id="patch_7">
     <path d="M 64.6 54.472 
L 68.6 54.472 
Q 70.6 54.472 70.6 52.472 
L 70.6 48.472 
Q 70.6 46.472 68.6 46.472 
L 64.6 46.472 
Q 62.6 46.472 62.6 48.472 
L 62.6 52.472 
Q 62.6 54.472 64.6 54.472 
z
" style="fill:#ffffff;opacity:0.8;stroke:#cccccc;stroke-linejoin:miter;"/>
    </g>
   </g>
  </g>
 </g>
 <defs>
  <clipPath id="pdcef5e3728">
   <rect height="266.112" width="357.12" x="57.6" y="41.472"/>
  </clipPath>
 </defs>
</svg>
