<?xml version="1.0" encoding="UTF-8" standalone="no"?>
<!DOCTYPE svg PUBLIC "-//W3C//DTD SVG 1.1//EN"
 "http://www.w3.org/Graphics/SVG/1.1/DTD/svg11.dtd">
<!-- Generated by graphviz version 2.49.0 (20210829.0051)
 -->
<!-- Title: G Pages: 1 -->
<svg width="341pt" height="921pt"
 viewBox="0.00 0.00 341.00 921.00" xmlns="http://www.w3.org/2000/svg" xmlns:xlink="http://www.w3.org/1999/xlink">
<g id="graph0" class="graph" transform="scale(1 1) rotate(0) translate(4 917)">
<title>G</title>
<polygon fill="white" stroke="transparent" points="-4,4 -4,-917 337,-917 337,4 -4,4"/>
<!-- 140124870737592 -->
<g id="node1" class="node">
<title>140124870737592</title>
<polygon fill="none" stroke="black" points="87.5,-876.5 87.5,-912.5 245.5,-912.5 245.5,-876.5 87.5,-876.5"/>
<text text-anchor="middle" x="166.5" y="-890.8" font-family="Times,serif" font-size="14.00">input_1: InputLayer</text>
</g>
<!-- 140124721036256 -->
<g id="node2" class="node">
<title>140124721036256</title>
<polygon fill="none" stroke="black" points="33.5,-803.5 33.5,-839.5 299.5,-839.5 299.5,-803.5 33.5,-803.5"/>
<text text-anchor="middle" x="166.5" y="-817.8" font-family="Times,serif" font-size="14.00">zero_padding1d_1: ZeroPadding1D</text>
</g>
<!-- 140124870737592&#45;&gt;140124721036256 -->
<g id="edge1" class="edge">
<title>140124870737592&#45;&gt;140124721036256</title>
<path fill="none" stroke="black" d="M166.5,-876.31C166.5,-868.29 166.5,-858.55 166.5,-849.57"/>
<polygon fill="black" stroke="black" points="170,-849.53 166.5,-839.53 163,-849.53 170,-849.53"/>
</g>
<!-- 140124721036424 -->
<g id="node3" class="node">
<title>140124721036424</title>
<polygon fill="none" stroke="black" points="92,-730.5 92,-766.5 241,-766.5 241,-730.5 92,-730.5"/>
<text text-anchor="middle" x="166.5" y="-744.8" font-family="Times,serif" font-size="14.00">conv1d_1: Conv1D</text>
</g>
<!-- 140124721036256&#45;&gt;140124721036424 -->
<g id="edge2" class="edge">
<title>140124721036256&#45;&gt;140124721036424</title>
<path fill="none" stroke="black" d="M166.5,-803.31C166.5,-795.29 166.5,-785.55 166.5,-776.57"/>
<polygon fill="black" stroke="black" points="170,-776.53 166.5,-766.53 163,-776.53 170,-776.53"/>
</g>
<!-- 140124721037264 -->
<g id="node4" class="node">
<title>140124721037264</title>
<polygon fill="none" stroke="black" points="74.5,-657.5 74.5,-693.5 258.5,-693.5 258.5,-657.5 74.5,-657.5"/>
<text text-anchor="middle" x="166.5" y="-671.8" font-family="Times,serif" font-size="14.00">activation_1: Activation</text>
</g>
<!-- 140124721036424&#45;&gt;140124721037264 -->
<g id="edge3" class="edge">
<title>140124721036424&#45;&gt;140124721037264</title>
<path fill="none" stroke="black" d="M166.5,-730.31C166.5,-722.29 166.5,-712.55 166.5,-703.57"/>
<polygon fill="black" stroke="black" points="170,-703.53 166.5,-693.53 163,-703.53 170,-703.53"/>
</g>
<!-- 140127149660088 -->
<g id="node5" class="node">
<title>140127149660088</title>
<polygon fill="none" stroke="black" points="91,-584.5 91,-620.5 242,-620.5 242,-584.5 91,-584.5"/>
<text text-anchor="middle" x="166.5" y="-598.8" font-family="Times,serif" font-size="14.00">lambda_1: Lambda</text>
</g>
<!-- 140124721037264&#45;&gt;140127149660088 -->
<g id="edge4" class="edge">
<title>140124721037264&#45;&gt;140127149660088</title>
<path fill="none" stroke="black" d="M166.5,-657.31C166.5,-649.29 166.5,-639.55 166.5,-630.57"/>
<polygon fill="black" stroke="black" points="170,-630.53 166.5,-620.53 163,-630.53 170,-630.53"/>
</g>
<!-- 140124721167832 -->
<g id="node6" class="node">
<title>140124721167832</title>
<polygon fill="none" stroke="black" points="87,-511.5 87,-547.5 246,-547.5 246,-511.5 87,-511.5"/>
<text text-anchor="middle" x="166.5" y="-525.8" font-family="Times,serif" font-size="14.00">reshape_5: Reshape</text>
</g>
<!-- 140127149660088&#45;&gt;140124721167832 -->
<g id="edge5" class="edge">
<title>140127149660088&#45;&gt;140124721167832</title>
<path fill="none" stroke="black" d="M166.5,-584.31C166.5,-576.29 166.5,-566.55 166.5,-557.57"/>
<polygon fill="black" stroke="black" points="170,-557.53 166.5,-547.53 163,-557.53 170,-557.53"/>
</g>
<!-- 140124113936000 -->
<g id="node7" class="node">
<title>140124113936000</title>
<polygon fill="none" stroke="black" points="0,-438.5 0,-474.5 333,-474.5 333,-438.5 0,-438.5"/>
<text text-anchor="middle" x="166.5" y="-452.8" font-family="Times,serif" font-size="14.00">bidirectional_1(lstm_1): Bidirectional(LSTM)</text>
</g>
<!-- 140124721167832&#45;&gt;140124113936000 -->
<g id="edge6" class="edge">
<title>140124721167832&#45;&gt;140124113936000</title>
<path fill="none" stroke="black" d="M166.5,-511.31C166.5,-503.29 166.5,-493.55 166.5,-484.57"/>
<polygon fill="black" stroke="black" points="170,-484.53 166.5,-474.53 163,-484.53 170,-484.53"/>
</g>
<!-- 140123647873824 -->
<g id="node8" class="node">
<title>140123647873824</title>
<polygon fill="none" stroke="black" points="0,-365.5 0,-401.5 333,-401.5 333,-365.5 0,-365.5"/>
<text text-anchor="middle" x="166.5" y="-379.8" font-family="Times,serif" font-size="14.00">bidirectional_2(lstm_2): Bidirectional(LSTM)</text>
</g>
<!-- 140124113936000&#45;&gt;140123647873824 -->
<g id="edge7" class="edge">
<title>140124113936000&#45;&gt;140123647873824</title>
<path fill="none" stroke="black" d="M166.5,-438.31C166.5,-430.29 166.5,-420.55 166.5,-411.57"/>
<polygon fill="black" stroke="black" points="170,-411.53 166.5,-401.53 163,-411.53 170,-411.53"/>
</g>
<!-- 140123314334968 -->
<g id="node9" class="node">
<title>140123314334968</title>
<polygon fill="none" stroke="black" points="102.5,-292.5 102.5,-328.5 230.5,-328.5 230.5,-292.5 102.5,-292.5"/>
<text text-anchor="middle" x="166.5" y="-306.8" font-family="Times,serif" font-size="14.00">dense_1: Dense</text>
</g>
<!-- 140123647873824&#45;&gt;140123314334968 -->
<g id="edge8" class="edge">
<title>140123647873824&#45;&gt;140123314334968</title>
<path fill="none" stroke="black" d="M166.5,-365.31C166.5,-357.29 166.5,-347.55 166.5,-338.57"/>
<polygon fill="black" stroke="black" points="170,-338.53 166.5,-328.53 163,-338.53 170,-338.53"/>
</g>
<!-- 140123313982376 -->
<g id="node10" class="node">
<title>140123313982376</title>
<polygon fill="none" stroke="black" points="4.5,-219.5 4.5,-255.5 328.5,-255.5 328.5,-219.5 4.5,-219.5"/>
<text text-anchor="middle" x="166.5" y="-233.8" font-family="Times,serif" font-size="14.00">layer_normalization_1: LayerNormalization</text>
</g>
<!-- 140123314334968&#45;&gt;140123313982376 -->
<g id="edge9" class="edge">
<title>140123314334968&#45;&gt;140123313982376</title>
<path fill="none" stroke="black" d="M166.5,-292.31C166.5,-284.29 166.5,-274.55 166.5,-265.57"/>
<polygon fill="black" stroke="black" points="170,-265.53 166.5,-255.53 163,-265.53 170,-265.53"/>
</g>
<!-- 140123312380896 -->
<g id="node11" class="node">
<title>140123312380896</title>
<polygon fill="none" stroke="black" points="91,-146.5 91,-182.5 242,-182.5 242,-146.5 91,-146.5"/>
<text text-anchor="middle" x="166.5" y="-160.8" font-family="Times,serif" font-size="14.00">lambda_2: Lambda</text>
</g>
<!-- 140123313982376&#45;&gt;140123312380896 -->
<g id="edge10" class="edge">
<title>140123313982376&#45;&gt;140123312380896</title>
<path fill="none" stroke="black" d="M166.5,-219.31C166.5,-211.29 166.5,-201.55 166.5,-192.57"/>
<polygon fill="black" stroke="black" points="170,-192.53 166.5,-182.53 163,-192.53 170,-192.53"/>
</g>
<!-- 140123312032904 -->
<g id="node12" class="node">
<title>140123312032904</title>
<polygon fill="none" stroke="black" points="91,-73.5 91,-109.5 242,-109.5 242,-73.5 91,-73.5"/>
<text text-anchor="middle" x="166.5" y="-87.8" font-family="Times,serif" font-size="14.00">lambda_3: Lambda</text>
</g>
<!-- 140123312380896&#45;&gt;140123312032904 -->
<g id="edge11" class="edge">
<title>140123312380896&#45;&gt;140123312032904</title>
<path fill="none" stroke="black" d="M166.5,-146.31C166.5,-138.29 166.5,-128.55 166.5,-119.57"/>
<polygon fill="black" stroke="black" points="170,-119.53 166.5,-109.53 163,-119.53 170,-119.53"/>
</g>
<!-- 140123310509360 -->
<g id="node13" class="node">
<title>140123310509360</title>
<polygon fill="none" stroke="black" points="91,-0.5 91,-36.5 242,-36.5 242,-0.5 91,-0.5"/>
<text text-anchor="middle" x="166.5" y="-14.8" font-family="Times,serif" font-size="14.00">lambda_4: Lambda</text>
</g>
<!-- 140123312032904&#45;&gt;140123310509360 -->
<g id="edge12" class="edge">
<title>140123312032904&#45;&gt;140123310509360</title>
<path fill="none" stroke="black" d="M166.5,-73.31C166.5,-65.29 166.5,-55.55 166.5,-46.57"/>
<polygon fill="black" stroke="black" points="170,-46.53 166.5,-36.53 163,-46.53 170,-46.53"/>
</g>
</g>
</svg>
