<?xml version="1.0" encoding="utf-8" standalone="no"?>
<!DOCTYPE svg PUBLIC "-//W3C//DTD SVG 1.1//EN"
  "http://www.w3.org/Graphics/SVG/1.1/DTD/svg11.dtd">
<!-- Created with matplotlib (https://matplotlib.org/) -->
<svg height="360pt" version="1.1" viewBox="0 0 442.61 360" width="442.61pt" xmlns="http://www.w3.org/2000/svg" xmlns:xlink="http://www.w3.org/1999/xlink">
 <metadata>
  <rdf:RDF xmlns:cc="http://creativecommons.org/ns#" xmlns:dc="http://purl.org/dc/elements/1.1/" xmlns:rdf="http://www.w3.org/1999/02/22-rdf-syntax-ns#">
   <cc:Work>
    <dc:type rdf:resource="http://purl.org/dc/dcmitype/StillImage"/>
    <dc:date>2023-11-13T22:51:30.584701</dc:date>
    <dc:format>image/svg+xml</dc:format>
    <dc:creator>
     <cc:Agent>
      <dc:title>Matplotlib v3.3.4, https://matplotlib.org/</dc:title>
     </cc:Agent>
    </dc:creator>
   </cc:Work>
  </rdf:RDF>
 </metadata>
 <defs>
  <style type="text/css">*{stroke-linecap:butt;stroke-linejoin:round;}</style>
 </defs>
 <g id="figure_1">
  <g id="patch_1">
   <path d="M 0 360 
L 442.61 360 
L 442.61 0 
L 0 0 
z
" style="fill:#ffffff;"/>
  </g>
  <g id="axes_1">
   <g id="patch_2">
    <path d="M 66.637394 317.93875 
L 355.5739 317.93875 
L 355.5739 10.8 
L 66.637394 10.8 
z
" style="fill:#ffffff;"/>
   </g>
   <g id="PolyCollection_1">
    <defs>
     <path d="M 97.671315 -56.02282 
L 80.549152 -56.02282 
L 81.725934 -58.843187 
L 86.396065 -61.663554 
L 88.205502 -64.483921 
L 88.611199 -67.304288 
L 88.78877 -70.124655 
L 88.876797 -72.945022 
L 88.913322 -75.765389 
L 88.954444 -78.585756 
L 88.997026 -81.406123 
L 89.018639 -84.22649 
L 89.035746 -87.046857 
L 89.04252 -89.867224 
L 89.042263 -92.687591 
L 89.067477 -95.507958 
L 89.092507 -98.328325 
L 89.091089 -101.148692 
L 89.082127 -103.969058 
L 89.082326 -106.789425 
L 89.084817 -109.609792 
L 89.089704 -112.430159 
L 89.09383 -115.250526 
L 89.095594 -118.070893 
L 89.099176 -120.89126 
L 89.10088 -123.711627 
L 89.104096 -126.531994 
L 89.105987 -129.352361 
L 89.106754 -132.172728 
L 89.105672 -134.993095 
L 89.102094 -137.813462 
L 89.103068 -140.633829 
L 89.104181 -143.454196 
L 89.105868 -146.274563 
L 89.107993 -149.09493 
L 89.104905 -151.915296 
L 89.099318 -154.735663 
L 89.100404 -157.55603 
L 89.106801 -160.376397 
L 89.109811 -163.196764 
L 89.110145 -166.017131 
L 89.109112 -168.837498 
L 89.10536 -171.657865 
L 89.102898 -174.478232 
L 89.103451 -177.298599 
L 89.106084 -180.118966 
L 89.107547 -182.939333 
L 89.107014 -185.7597 
L 89.107125 -188.580067 
L 89.107374 -191.400434 
L 89.108605 -194.220801 
L 89.107595 -197.041168 
L 89.106878 -199.861534 
L 89.106908 -202.681901 
L 89.108196 -205.502268 
L 89.109845 -208.322635 
L 89.110213 -211.143002 
L 89.110179 -213.963369 
L 89.10951 -216.783736 
L 89.107532 -219.604103 
L 89.10646 -222.42447 
L 89.106785 -225.244837 
L 89.108224 -228.065204 
L 89.107829 -230.885571 
L 89.10763 -233.705938 
L 89.109422 -236.526305 
L 89.110167 -239.346672 
L 89.110232 -242.167039 
L 89.110234 -244.987406 
L 89.110234 -247.807773 
L 89.110234 -250.628139 
L 89.110234 -253.448506 
L 89.110234 -256.268873 
L 89.110234 -259.08924 
L 89.110234 -261.909607 
L 89.110234 -264.729974 
L 89.110231 -267.550341 
L 89.110125 -270.370708 
L 89.10917 -273.191075 
L 89.107471 -276.011442 
L 89.108334 -278.831809 
L 89.109888 -281.652176 
L 89.110217 -284.472543 
L 89.110234 -287.29291 
L 89.110234 -290.113277 
L 89.110234 -292.933644 
L 89.110234 -295.754011 
L 89.110232 -298.574377 
L 89.110156 -301.394744 
L 89.109352 -304.215111 
L 89.10758 -307.035478 
L 89.108119 -309.855845 
L 89.109787 -312.676212 
L 89.110209 -315.496579 
L 89.110233 -318.316946 
L 89.110234 -321.137313 
L 89.110234 -323.95768 
L 89.110227 -326.778047 
L 89.110034 -329.598414 
L 89.108766 -332.418781 
L 89.107382 -335.239148 
L 89.113085 -335.239148 
L 89.113085 -335.239148 
L 89.111701 -332.418781 
L 89.110434 -329.598414 
L 89.110241 -326.778047 
L 89.110234 -323.95768 
L 89.110234 -321.137313 
L 89.110234 -318.316946 
L 89.110259 -315.496579 
L 89.11068 -312.676212 
L 89.112349 -309.855845 
L 89.112887 -307.035478 
L 89.111115 -304.215111 
L 89.110311 -301.394744 
L 89.110236 -298.574377 
L 89.110234 -295.754011 
L 89.110234 -292.933644 
L 89.110234 -290.113277 
L 89.110234 -287.29291 
L 89.11025 -284.472543 
L 89.11058 -281.652176 
L 89.112134 -278.831809 
L 89.112996 -276.011442 
L 89.111298 -273.191075 
L 89.110342 -270.370708 
L 89.110237 -267.550341 
L 89.110234 -264.729974 
L 89.110234 -261.909607 
L 89.110234 -259.08924 
L 89.110234 -256.268873 
L 89.110234 -253.448506 
L 89.110234 -250.628139 
L 89.110234 -247.807773 
L 89.110234 -244.987406 
L 89.110235 -242.167039 
L 89.110301 -239.346672 
L 89.111045 -236.526305 
L 89.112838 -233.705938 
L 89.112638 -230.885571 
L 89.112244 -228.065204 
L 89.113683 -225.244837 
L 89.114008 -222.42447 
L 89.112936 -219.604103 
L 89.110958 -216.783736 
L 89.110288 -213.963369 
L 89.110255 -211.143002 
L 89.110623 -208.322635 
L 89.112271 -205.502268 
L 89.11356 -202.681901 
L 89.113589 -199.861534 
L 89.112873 -197.041168 
L 89.111863 -194.220801 
L 89.113094 -191.400434 
L 89.113342 -188.580067 
L 89.113453 -185.7597 
L 89.112921 -182.939333 
L 89.114383 -180.118966 
L 89.117017 -177.298599 
L 89.11757 -174.478232 
L 89.115108 -171.657865 
L 89.111355 -168.837498 
L 89.110322 -166.017131 
L 89.110657 -163.196764 
L 89.113666 -160.376397 
L 89.120064 -157.55603 
L 89.12115 -154.735663 
L 89.115563 -151.915296 
L 89.112474 -149.09493 
L 89.114599 -146.274563 
L 89.116287 -143.454196 
L 89.117399 -140.633829 
L 89.118374 -137.813462 
L 89.114795 -134.993095 
L 89.113714 -132.172728 
L 89.11448 -129.352361 
L 89.116371 -126.531994 
L 89.119587 -123.711627 
L 89.121291 -120.89126 
L 89.124873 -118.070893 
L 89.126637 -115.250526 
L 89.130764 -112.430159 
L 89.13565 -109.609792 
L 89.138142 -106.789425 
L 89.13834 -103.969058 
L 89.129379 -101.148692 
L 89.12796 -98.328325 
L 89.152991 -95.507958 
L 89.178204 -92.687591 
L 89.177948 -89.867224 
L 89.184721 -87.046857 
L 89.201828 -84.22649 
L 89.223442 -81.406123 
L 89.266024 -78.585756 
L 89.307146 -75.765389 
L 89.34367 -72.945022 
L 89.431698 -70.124655 
L 89.609269 -67.304288 
L 90.014965 -64.483921 
L 91.824403 -61.663554 
L 96.494534 -58.843187 
L 97.671315 -56.02282 
z
" id="m7a5b94a902" style="stroke:#3d3d3d;stroke-width:1.5;"/>
    </defs>
    <g clip-path="url(#p96529075ed)">
     <use style="fill:#3274a1;stroke:#3d3d3d;stroke-width:1.5;" x="0" xlink:href="#m7a5b94a902" y="360"/>
    </g>
   </g>
   <g id="PolyCollection_2">
    <defs>
     <path d="M 122.987713 -56.074331 
L 106.599244 -56.074331 
L 103.89963 -58.026629 
L 102.28597 -59.978927 
L 101.951856 -61.931225 
L 102.514718 -63.883522 
L 103.400137 -65.83582 
L 104.180353 -67.788118 
L 104.683159 -69.740416 
L 104.94081 -71.692713 
L 105.072924 -73.645011 
L 105.172374 -75.597309 
L 105.253282 -77.549607 
L 105.279347 -79.501904 
L 105.237791 -81.454202 
L 105.192001 -83.4065 
L 105.258693 -85.358798 
L 105.522989 -87.311095 
L 105.970561 -89.263393 
L 106.502761 -91.215691 
L 107.014971 -93.167989 
L 107.460988 -95.120286 
L 107.860709 -97.072584 
L 108.266061 -99.024882 
L 108.712479 -100.97718 
L 109.184575 -102.929477 
L 109.628569 -104.881775 
L 110.006849 -106.834073 
L 110.337345 -108.786371 
L 110.672447 -110.738668 
L 111.043604 -112.690966 
L 111.435006 -114.643264 
L 111.806894 -116.595562 
L 112.131455 -118.547859 
L 112.406564 -120.500157 
L 112.648665 -122.452455 
L 112.877062 -124.404753 
L 113.098811 -126.35705 
L 113.305434 -128.309348 
L 113.483201 -130.261646 
L 113.626149 -132.213944 
L 113.742405 -134.166241 
L 113.8496 -136.118539 
L 113.961481 -138.070837 
L 114.077196 -140.023135 
L 114.183932 -141.975432 
L 114.269631 -143.92773 
L 114.332671 -145.880028 
L 114.380279 -147.832326 
L 114.41923 -149.784623 
L 114.449925 -151.736921 
L 114.470908 -153.689219 
L 114.486972 -155.641517 
L 114.508334 -157.593814 
L 114.541162 -159.546112 
L 114.582058 -161.49841 
L 114.622369 -163.450708 
L 114.654859 -165.403005 
L 114.675961 -167.355303 
L 114.68589 -169.307601 
L 114.689193 -171.259899 
L 114.692778 -173.212196 
L 114.700513 -175.164494 
L 114.710281 -177.116792 
L 114.717371 -179.06909 
L 114.719482 -181.021387 
L 114.7181 -182.973685 
L 114.717319 -184.925983 
L 114.721861 -186.878281 
L 114.73381 -188.830578 
L 114.750186 -190.782876 
L 114.765084 -192.735174 
L 114.774751 -194.687472 
L 114.779802 -196.639769 
L 114.782705 -198.592067 
L 114.784596 -200.544365 
L 114.7851 -202.496663 
L 114.784249 -204.44896 
L 114.783339 -206.401258 
L 114.783635 -208.353556 
L 114.784829 -210.305854 
L 114.785343 -212.258151 
L 114.784097 -214.210449 
L 114.78159 -216.162747 
L 114.779208 -218.115045 
L 114.777922 -220.067342 
L 114.777829 -222.01964 
L 114.778477 -223.971938 
L 114.779319 -225.924236 
L 114.780252 -227.876533 
L 114.781823 -229.828831 
L 114.78447 -231.781129 
L 114.787711 -233.733427 
L 114.7905 -235.685724 
L 114.792174 -237.638022 
L 114.792673 -239.59032 
L 114.792078 -241.542618 
L 114.790335 -243.494915 
L 114.78765 -245.447213 
L 114.785013 -247.399511 
L 114.78389 -249.351809 
L 114.803067 -249.351809 
L 114.803067 -249.351809 
L 114.801945 -247.399511 
L 114.799308 -245.447213 
L 114.796622 -243.494915 
L 114.79488 -241.542618 
L 114.794284 -239.59032 
L 114.794784 -237.638022 
L 114.796457 -235.685724 
L 114.799247 -233.733427 
L 114.802487 -231.781129 
L 114.805134 -229.828831 
L 114.806705 -227.876533 
L 114.807639 -225.924236 
L 114.80848 -223.971938 
L 114.809129 -222.01964 
L 114.809036 -220.067342 
L 114.807749 -218.115045 
L 114.805368 -216.162747 
L 114.802861 -214.210449 
L 114.801614 -212.258151 
L 114.802128 -210.305854 
L 114.803323 -208.353556 
L 114.803619 -206.401258 
L 114.802708 -204.44896 
L 114.801858 -202.496663 
L 114.802361 -200.544365 
L 114.804252 -198.592067 
L 114.807156 -196.639769 
L 114.812206 -194.687472 
L 114.821874 -192.735174 
L 114.836772 -190.782876 
L 114.853148 -188.830578 
L 114.865097 -186.878281 
L 114.869639 -184.925983 
L 114.868857 -182.973685 
L 114.867475 -181.021387 
L 114.869586 -179.06909 
L 114.876676 -177.116792 
L 114.886444 -175.164494 
L 114.894179 -173.212196 
L 114.897764 -171.259899 
L 114.901068 -169.307601 
L 114.910997 -167.355303 
L 114.932098 -165.403005 
L 114.964588 -163.450708 
L 115.004899 -161.49841 
L 115.045795 -159.546112 
L 115.078623 -157.593814 
L 115.099986 -155.641517 
L 115.116049 -153.689219 
L 115.137033 -151.736921 
L 115.167727 -149.784623 
L 115.206678 -147.832326 
L 115.254287 -145.880028 
L 115.317327 -143.92773 
L 115.403026 -141.975432 
L 115.509761 -140.023135 
L 115.625476 -138.070837 
L 115.737357 -136.118539 
L 115.844552 -134.166241 
L 115.960808 -132.213944 
L 116.103757 -130.261646 
L 116.281523 -128.309348 
L 116.488146 -126.35705 
L 116.709895 -124.404753 
L 116.938293 -122.452455 
L 117.180394 -120.500157 
L 117.455502 -118.547859 
L 117.780064 -116.595562 
L 118.151952 -114.643264 
L 118.543353 -112.690966 
L 118.914511 -110.738668 
L 119.249613 -108.786371 
L 119.580108 -106.834073 
L 119.958388 -104.881775 
L 120.402383 -102.929477 
L 120.874479 -100.97718 
L 121.320897 -99.024882 
L 121.726248 -97.072584 
L 122.125969 -95.120286 
L 122.571987 -93.167989 
L 123.084197 -91.215691 
L 123.616396 -89.263393 
L 124.063968 -87.311095 
L 124.328264 -85.358798 
L 124.394956 -83.4065 
L 124.349167 -81.454202 
L 124.307611 -79.501904 
L 124.333675 -77.549607 
L 124.414583 -75.597309 
L 124.514034 -73.645011 
L 124.646148 -71.692713 
L 124.903799 -69.740416 
L 125.406604 -67.788118 
L 126.186821 -65.83582 
L 127.07224 -63.883522 
L 127.635101 -61.931225 
L 127.300988 -59.978927 
L 125.687327 -58.026629 
L 122.987713 -56.074331 
z
" id="m1402a4a310" style="stroke:#3d3d3d;stroke-width:1.5;"/>
    </defs>
    <g clip-path="url(#p96529075ed)">
     <use style="fill:#e1812c;stroke:#3d3d3d;stroke-width:1.5;" x="0" xlink:href="#m1402a4a310" y="360"/>
    </g>
   </g>
   <g id="PolyCollection_3">
    <defs>
     <path d="M 144.591262 -56.074331 
L 136.362185 -56.074331 
L 135.379344 -57.704555 
L 134.630245 -59.334779 
L 134.192808 -60.965004 
L 134.055912 -62.595228 
L 134.140884 -64.225452 
L 134.345597 -65.855676 
L 134.584206 -67.4859 
L 134.806353 -69.116124 
L 134.995525 -70.746348 
L 135.155233 -72.376572 
L 135.292638 -74.006796 
L 135.407106 -75.63702 
L 135.488451 -77.267244 
L 135.525288 -78.897469 
L 135.517743 -80.527693 
L 135.484829 -82.157917 
L 135.459762 -83.788141 
L 135.475433 -85.418365 
L 135.549768 -87.048589 
L 135.680254 -88.678813 
L 135.849425 -90.309037 
L 136.035901 -91.939261 
L 136.224018 -93.569485 
L 136.408243 -95.19971 
L 136.592179 -96.829934 
L 136.783734 -98.460158 
L 136.988764 -100.090382 
L 137.206031 -101.720606 
L 137.426125 -103.35083 
L 137.635146 -104.981054 
L 137.821377 -106.611278 
L 137.981381 -108.241502 
L 138.122146 -109.871726 
L 138.257897 -111.50195 
L 138.402998 -113.132175 
L 138.564639 -114.762399 
L 138.739327 -116.392623 
L 138.91505 -118.022847 
L 139.077698 -119.653071 
L 139.21785 -121.283295 
L 139.334061 -122.913519 
L 139.431332 -124.543743 
L 139.516651 -126.173967 
L 139.594937 -127.804191 
L 139.667572 -129.434415 
L 139.733504 -131.06464 
L 139.791452 -132.694864 
L 139.841687 -134.325088 
L 139.88652 -135.955312 
L 139.929395 -137.585536 
L 139.973206 -139.21576 
L 140.01891 -140.845984 
L 140.065249 -142.476208 
L 140.109649 -144.106432 
L 140.149532 -145.736656 
L 140.183199 -147.366881 
L 140.209969 -148.997105 
L 140.22996 -150.627329 
L 140.244075 -152.257553 
L 140.254284 -153.887777 
L 140.263658 -155.518001 
L 140.275572 -157.148225 
L 140.292233 -158.778449 
L 140.313484 -160.408673 
L 140.336828 -162.038897 
L 140.358728 -163.669121 
L 140.3763 -165.299346 
L 140.388414 -166.92957 
L 140.395797 -168.559794 
L 140.400338 -170.190018 
L 140.404085 -171.820242 
L 140.408371 -173.450466 
L 140.413422 -175.08069 
L 140.41858 -176.710914 
L 140.422919 -178.341138 
L 140.42584 -179.971362 
L 140.427348 -181.601587 
L 140.42804 -183.231811 
L 140.428914 -184.862035 
L 140.431025 -186.492259 
L 140.435009 -188.122483 
L 140.440707 -189.752707 
L 140.447193 -191.382931 
L 140.453291 -193.013155 
L 140.458187 -194.643379 
L 140.461711 -196.273603 
L 140.46412 -197.903827 
L 140.465707 -199.534052 
L 140.466598 -201.164276 
L 140.466861 -202.7945 
L 140.466698 -204.424724 
L 140.466473 -206.054948 
L 140.466507 -207.685172 
L 140.466845 -209.315396 
L 140.467241 -210.94562 
L 140.467388 -212.575844 
L 140.467224 -214.206068 
L 140.467028 -215.836292 
L 140.467246 -217.466517 
L 140.486202 -217.466517 
L 140.486202 -217.466517 
L 140.48642 -215.836292 
L 140.486224 -214.206068 
L 140.486059 -212.575844 
L 140.486207 -210.94562 
L 140.486602 -209.315396 
L 140.486941 -207.685172 
L 140.486975 -206.054948 
L 140.48675 -204.424724 
L 140.486586 -202.7945 
L 140.486849 -201.164276 
L 140.487741 -199.534052 
L 140.489327 -197.903827 
L 140.491736 -196.273603 
L 140.49526 -194.643379 
L 140.500157 -193.013155 
L 140.506254 -191.382931 
L 140.51274 -189.752707 
L 140.518438 -188.122483 
L 140.522422 -186.492259 
L 140.524533 -184.862035 
L 140.525407 -183.231811 
L 140.5261 -181.601587 
L 140.527608 -179.971362 
L 140.530528 -178.341138 
L 140.534867 -176.710914 
L 140.540025 -175.08069 
L 140.545076 -173.450466 
L 140.549362 -171.820242 
L 140.553109 -170.190018 
L 140.55765 -168.559794 
L 140.565033 -166.92957 
L 140.577148 -165.299346 
L 140.594719 -163.669121 
L 140.616619 -162.038897 
L 140.639963 -160.408673 
L 140.661214 -158.778449 
L 140.677875 -157.148225 
L 140.689789 -155.518001 
L 140.699163 -153.887777 
L 140.709372 -152.257553 
L 140.723487 -150.627329 
L 140.743478 -148.997105 
L 140.770249 -147.366881 
L 140.803916 -145.736656 
L 140.843798 -144.106432 
L 140.888198 -142.476208 
L 140.934537 -140.845984 
L 140.980241 -139.21576 
L 141.024053 -137.585536 
L 141.066927 -135.955312 
L 141.11176 -134.325088 
L 141.161995 -132.694864 
L 141.219943 -131.06464 
L 141.285875 -129.434415 
L 141.358511 -127.804191 
L 141.436796 -126.173967 
L 141.522115 -124.543743 
L 141.619386 -122.913519 
L 141.735597 -121.283295 
L 141.87575 -119.653071 
L 142.038397 -118.022847 
L 142.21412 -116.392623 
L 142.388809 -114.762399 
L 142.55045 -113.132175 
L 142.69555 -111.50195 
L 142.831302 -109.871726 
L 142.972067 -108.241502 
L 143.13207 -106.611278 
L 143.318302 -104.981054 
L 143.527323 -103.35083 
L 143.747416 -101.720606 
L 143.964684 -100.090382 
L 144.169713 -98.460158 
L 144.361268 -96.829934 
L 144.545204 -95.19971 
L 144.729429 -93.569485 
L 144.917546 -91.939261 
L 145.104022 -90.309037 
L 145.273193 -88.678813 
L 145.403679 -87.048589 
L 145.478014 -85.418365 
L 145.493685 -83.788141 
L 145.468619 -82.157917 
L 145.435705 -80.527693 
L 145.42816 -78.897469 
L 145.464997 -77.267244 
L 145.546341 -75.63702 
L 145.660809 -74.006796 
L 145.798215 -72.376572 
L 145.957923 -70.746348 
L 146.147095 -69.116124 
L 146.369241 -67.4859 
L 146.60785 -65.855676 
L 146.812563 -64.225452 
L 146.897535 -62.595228 
L 146.760639 -60.965004 
L 146.323202 -59.334779 
L 145.574103 -57.704555 
L 144.591262 -56.074331 
z
" id="m5288eab5e8" style="stroke:#3d3d3d;stroke-width:1.5;"/>
    </defs>
    <g clip-path="url(#p96529075ed)">
     <use style="fill:#3a923a;stroke:#3d3d3d;stroke-width:1.5;" x="0" xlink:href="#m5288eab5e8" y="360"/>
    </g>
   </g>
   <g id="PolyCollection_4">
    <defs>
     <path d="M 193.983484 -56.02244 
L 176.861321 -56.02244 
L 179.950874 -57.963743 
L 184.031363 -59.905046 
L 184.988489 -61.846349 
L 185.175342 -63.787652 
L 185.261582 -65.728954 
L 185.288163 -67.670257 
L 185.307288 -69.61156 
L 185.325169 -71.552863 
L 185.348203 -73.494166 
L 185.367846 -75.435469 
L 185.375667 -77.376772 
L 185.380757 -79.318075 
L 185.381444 -81.259378 
L 185.381559 -83.20068 
L 185.392908 -85.141983 
L 185.401653 -87.083286 
L 185.405443 -89.024589 
L 185.41066 -90.965892 
L 185.410392 -92.907195 
L 185.405527 -94.848498 
L 185.399793 -96.789801 
L 185.397874 -98.731103 
L 185.402021 -100.672406 
L 185.408542 -102.613709 
L 185.415475 -104.555012 
L 185.417914 -106.496315 
L 185.415863 -108.437618 
L 185.415655 -110.378921 
L 185.416336 -112.320224 
L 185.417445 -114.261526 
L 185.419463 -116.202829 
L 185.421559 -118.144132 
L 185.422325 -120.085435 
L 185.422388 -122.026738 
L 185.422085 -123.968041 
L 185.420051 -125.909344 
L 185.41743 -127.850647 
L 185.418437 -129.79195 
L 185.419497 -131.733252 
L 185.420451 -133.674555 
L 185.420055 -135.615858 
L 185.420439 -137.557161 
L 185.421664 -139.498464 
L 185.420843 -141.439767 
L 185.420013 -143.38107 
L 185.42128 -145.322373 
L 185.421262 -147.263675 
L 185.419588 -149.204978 
L 185.418988 -151.146281 
L 185.419916 -153.087584 
L 185.421671 -155.028887 
L 185.422143 -156.97019 
L 185.421073 -158.911493 
L 185.41998 -160.852796 
L 185.421204 -162.794099 
L 185.422242 -164.735401 
L 185.422396 -166.676704 
L 185.422402 -168.618007 
L 185.422402 -170.55931 
L 185.422402 -172.500613 
L 185.422402 -174.441916 
L 185.422397 -176.383219 
L 185.42226 -178.324522 
L 185.421271 -180.265824 
L 185.41984 -182.207127 
L 185.419851 -184.14843 
L 185.41976 -186.089733 
L 185.420889 -188.031036 
L 185.42113 -189.972339 
L 185.419994 -191.913642 
L 185.420929 -193.854945 
L 185.422157 -195.796247 
L 185.422391 -197.73755 
L 185.422402 -199.678853 
L 185.422401 -201.620156 
L 185.422346 -203.561459 
L 185.421582 -205.502762 
L 185.418906 -207.444065 
L 185.417985 -209.385368 
L 185.420743 -211.326671 
L 185.422219 -213.267973 
L 185.422396 -215.209276 
L 185.422387 -217.150579 
L 185.422096 -219.091882 
L 185.420772 -221.033185 
L 185.420053 -222.974488 
L 185.421485 -224.915791 
L 185.422305 -226.857094 
L 185.4224 -228.798396 
L 185.422402 -230.739699 
L 185.422402 -232.681002 
L 185.422402 -234.622305 
L 185.422402 -236.563608 
L 185.422402 -238.504911 
L 185.422402 -240.446214 
L 185.422395 -242.387517 
L 185.422224 -244.32882 
L 185.42114 -246.270122 
L 185.419977 -248.211425 
L 185.424827 -248.211425 
L 185.424827 -248.211425 
L 185.423665 -246.270122 
L 185.42258 -244.32882 
L 185.422409 -242.387517 
L 185.422402 -240.446214 
L 185.422402 -238.504911 
L 185.422402 -236.563608 
L 185.422402 -234.622305 
L 185.422402 -232.681002 
L 185.422402 -230.739699 
L 185.422405 -228.798396 
L 185.422499 -226.857094 
L 185.423319 -224.915791 
L 185.424752 -222.974488 
L 185.424033 -221.033185 
L 185.422709 -219.091882 
L 185.422418 -217.150579 
L 185.422408 -215.209276 
L 185.422585 -213.267973 
L 185.424062 -211.326671 
L 185.42682 -209.385368 
L 185.425898 -207.444065 
L 185.423222 -205.502762 
L 185.422458 -203.561459 
L 185.422403 -201.620156 
L 185.422402 -199.678853 
L 185.422413 -197.73755 
L 185.422647 -195.796247 
L 185.423876 -193.854945 
L 185.424811 -191.913642 
L 185.423674 -189.972339 
L 185.423916 -188.031036 
L 185.425044 -186.089733 
L 185.424954 -184.14843 
L 185.424964 -182.207127 
L 185.423534 -180.265824 
L 185.422545 -178.324522 
L 185.422407 -176.383219 
L 185.422402 -174.441916 
L 185.422402 -172.500613 
L 185.422402 -170.55931 
L 185.422402 -168.618007 
L 185.422408 -166.676704 
L 185.422563 -164.735401 
L 185.4236 -162.794099 
L 185.424825 -160.852796 
L 185.423731 -158.911493 
L 185.422661 -156.97019 
L 185.423133 -155.028887 
L 185.424888 -153.087584 
L 185.425817 -151.146281 
L 185.425217 -149.204978 
L 185.423542 -147.263675 
L 185.423525 -145.322373 
L 185.424792 -143.38107 
L 185.423962 -141.439767 
L 185.423141 -139.498464 
L 185.424366 -137.557161 
L 185.424749 -135.615858 
L 185.424354 -133.674555 
L 185.425307 -131.733252 
L 185.426368 -129.79195 
L 185.427375 -127.850647 
L 185.424753 -125.909344 
L 185.422719 -123.968041 
L 185.422416 -122.026738 
L 185.422479 -120.085435 
L 185.423245 -118.144132 
L 185.425342 -116.202829 
L 185.42736 -114.261526 
L 185.428469 -112.320224 
L 185.42915 -110.378921 
L 185.428942 -108.437618 
L 185.42689 -106.496315 
L 185.429329 -104.555012 
L 185.436262 -102.613709 
L 185.442783 -100.672406 
L 185.44693 -98.731103 
L 185.445011 -96.789801 
L 185.439278 -94.848498 
L 185.434413 -92.907195 
L 185.434144 -90.965892 
L 185.439362 -89.024589 
L 185.443151 -87.083286 
L 185.451896 -85.141983 
L 185.463246 -83.20068 
L 185.46336 -81.259378 
L 185.464048 -79.318075 
L 185.469138 -77.376772 
L 185.476959 -75.435469 
L 185.496601 -73.494166 
L 185.519636 -71.552863 
L 185.537516 -69.61156 
L 185.556642 -67.670257 
L 185.583222 -65.728954 
L 185.669463 -63.787652 
L 185.856316 -61.846349 
L 186.813442 -59.905046 
L 190.893931 -57.963743 
L 193.983484 -56.02244 
z
" id="mca5a74e23e" style="stroke:#3d3d3d;stroke-width:1.5;"/>
    </defs>
    <g clip-path="url(#p96529075ed)">
     <use style="fill:#3274a1;stroke:#3d3d3d;stroke-width:1.5;" x="0" xlink:href="#mca5a74e23e" y="360"/>
    </g>
   </g>
   <g id="PolyCollection_5">
    <defs>
     <path d="M 219.91079 -56.077197 
L 202.300504 -56.077197 
L 200.133138 -57.671785 
L 198.738002 -59.266374 
L 198.264025 -60.860962 
L 198.556102 -62.455551 
L 199.295276 -64.050139 
L 200.166416 -65.644728 
L 200.952923 -67.239316 
L 201.552382 -68.833905 
L 201.952389 -70.428494 
L 202.193701 -72.023082 
L 202.33205 -73.617671 
L 202.410448 -75.212259 
L 202.450927 -76.806848 
L 202.461125 -78.401436 
L 202.443121 -79.996025 
L 202.39835 -81.590613 
L 202.331486 -83.185202 
L 202.256245 -84.779791 
L 202.19971 -86.374379 
L 202.198196 -87.968968 
L 202.282375 -89.563556 
L 202.460222 -91.158145 
L 202.712568 -92.752733 
L 203.007284 -94.347322 
L 203.320457 -95.94191 
L 203.646008 -97.536499 
L 203.987595 -99.131088 
L 204.344089 -100.725676 
L 204.70442 -102.320265 
L 205.056282 -103.914853 
L 205.398411 -105.509442 
L 205.74247 -107.10403 
L 206.101777 -108.698619 
L 206.478158 -110.293207 
L 206.859198 -111.887796 
L 207.226314 -113.482384 
L 207.564428 -115.076973 
L 207.866257 -116.671562 
L 208.131754 -118.26615 
L 208.366176 -119.860739 
L 208.578278 -121.455327 
L 208.7781 -123.049916 
L 208.973893 -124.644504 
L 209.168903 -126.239093 
L 209.360114 -127.833681 
L 209.540453 -129.42827 
L 209.702975 -131.022859 
L 209.843755 -132.617447 
L 209.962206 -134.212036 
L 210.060386 -135.806624 
L 210.142686 -137.401213 
L 210.215346 -138.995801 
L 210.284797 -140.59039 
L 210.355255 -142.184978 
L 210.427165 -143.779567 
L 210.497672 -145.374156 
L 210.56271 -146.968744 
L 210.61915 -148.563333 
L 210.665797 -150.157921 
L 210.703254 -151.75251 
L 210.733306 -153.347098 
L 210.758249 -154.941687 
L 210.780367 -156.536275 
L 210.801786 -158.130864 
L 210.824709 -159.725453 
L 210.85138 -161.320041 
L 210.883119 -162.91463 
L 210.918929 -164.509218 
L 210.955079 -166.103807 
L 210.986502 -167.698395 
L 211.009325 -169.292984 
L 211.022914 -170.887572 
L 211.030039 -172.482161 
L 211.035012 -174.076749 
L 211.04107 -175.671338 
L 211.048943 -177.265927 
L 211.057463 -178.860515 
L 211.065276 -180.455104 
L 211.071932 -182.049692 
L 211.077687 -183.644281 
L 211.082679 -185.238869 
L 211.086488 -186.833458 
L 211.088472 -188.428046 
L 211.08847 -190.022635 
L 211.0872 -191.617224 
L 211.085931 -193.211812 
L 211.085678 -194.806401 
L 211.086592 -196.400989 
L 211.088048 -197.995578 
L 211.089263 -199.590166 
L 211.08981 -201.184755 
L 211.0896 -202.779343 
L 211.088606 -204.373932 
L 211.086797 -205.968521 
L 211.084395 -207.563109 
L 211.082087 -209.157698 
L 211.080881 -210.752286 
L 211.081642 -212.346875 
L 211.084609 -213.941463 
L 211.126686 -213.941463 
L 211.126686 -213.941463 
L 211.129652 -212.346875 
L 211.130413 -210.752286 
L 211.129207 -209.157698 
L 211.1269 -207.563109 
L 211.124498 -205.968521 
L 211.122689 -204.373932 
L 211.121695 -202.779343 
L 211.121485 -201.184755 
L 211.122031 -199.590166 
L 211.123247 -197.995578 
L 211.124702 -196.400989 
L 211.125616 -194.806401 
L 211.125364 -193.211812 
L 211.124095 -191.617224 
L 211.122824 -190.022635 
L 211.122823 -188.428046 
L 211.124806 -186.833458 
L 211.128615 -185.238869 
L 211.133607 -183.644281 
L 211.139363 -182.049692 
L 211.146018 -180.455104 
L 211.153831 -178.860515 
L 211.162352 -177.265927 
L 211.170224 -175.671338 
L 211.176282 -174.076749 
L 211.181255 -172.482161 
L 211.188381 -170.887572 
L 211.201969 -169.292984 
L 211.224793 -167.698395 
L 211.256215 -166.103807 
L 211.292365 -164.509218 
L 211.328175 -162.91463 
L 211.359915 -161.320041 
L 211.386586 -159.725453 
L 211.409509 -158.130864 
L 211.430927 -156.536275 
L 211.453046 -154.941687 
L 211.477989 -153.347098 
L 211.50804 -151.75251 
L 211.545498 -150.157921 
L 211.592144 -148.563333 
L 211.648584 -146.968744 
L 211.713623 -145.374156 
L 211.78413 -143.779567 
L 211.85604 -142.184978 
L 211.926498 -140.59039 
L 211.995949 -138.995801 
L 212.068608 -137.401213 
L 212.150909 -135.806624 
L 212.249089 -134.212036 
L 212.367539 -132.617447 
L 212.508319 -131.022859 
L 212.670841 -129.42827 
L 212.85118 -127.833681 
L 213.042392 -126.239093 
L 213.237401 -124.644504 
L 213.433194 -123.049916 
L 213.633016 -121.455327 
L 213.845118 -119.860739 
L 214.079541 -118.26615 
L 214.345037 -116.671562 
L 214.646867 -115.076973 
L 214.98498 -113.482384 
L 215.352097 -111.887796 
L 215.733137 -110.293207 
L 216.109517 -108.698619 
L 216.468825 -107.10403 
L 216.812884 -105.509442 
L 217.155013 -103.914853 
L 217.506874 -102.320265 
L 217.867206 -100.725676 
L 218.223699 -99.131088 
L 218.565286 -97.536499 
L 218.890838 -95.94191 
L 219.20401 -94.347322 
L 219.498727 -92.752733 
L 219.751072 -91.158145 
L 219.928919 -89.563556 
L 220.013098 -87.968968 
L 220.011584 -86.374379 
L 219.955049 -84.779791 
L 219.879809 -83.185202 
L 219.812945 -81.590613 
L 219.768174 -79.996025 
L 219.750169 -78.401436 
L 219.760367 -76.806848 
L 219.800846 -75.212259 
L 219.879244 -73.617671 
L 220.017594 -72.023082 
L 220.258906 -70.428494 
L 220.658912 -68.833905 
L 221.258371 -67.239316 
L 222.044879 -65.644728 
L 222.916018 -64.050139 
L 223.655192 -62.455551 
L 223.94727 -60.860962 
L 223.473293 -59.266374 
L 222.078156 -57.671785 
L 219.91079 -56.077197 
z
" id="m3fa1280097" style="stroke:#3d3d3d;stroke-width:1.5;"/>
    </defs>
    <g clip-path="url(#p96529075ed)">
     <use style="fill:#e1812c;stroke:#3d3d3d;stroke-width:1.5;" x="0" xlink:href="#m3fa1280097" y="360"/>
    </g>
   </g>
   <g id="PolyCollection_6">
    <defs>
     <path d="M 241.172615 -56.077197 
L 232.40517 -56.077197 
L 231.462161 -57.648596 
L 230.781172 -59.219995 
L 230.425041 -60.791395 
L 230.368081 -62.362794 
L 230.522366 -63.934193 
L 230.781967 -65.505592 
L 231.059443 -67.076992 
L 231.301761 -68.648391 
L 231.488158 -70.21979 
L 231.619234 -71.79119 
L 231.705212 -73.362589 
L 231.757599 -74.933988 
L 231.785496 -76.505388 
L 231.795699 -78.076787 
L 231.794279 -79.648186 
L 231.787518 -81.219586 
L 231.781738 -82.790985 
L 231.783098 -84.362384 
L 231.798141 -85.933784 
L 231.834301 -87.505183 
L 231.898944 -89.076582 
L 231.996854 -90.647982 
L 232.127999 -92.219381 
L 232.287505 -93.79078 
L 232.46781 -95.36218 
L 232.661046 -96.933579 
L 232.860042 -98.504978 
L 233.058184 -100.076377 
L 233.249596 -101.647777 
L 233.430464 -103.219176 
L 233.600734 -104.790575 
L 233.764612 -106.361975 
L 233.928982 -107.933374 
L 234.100354 -109.504773 
L 234.282009 -111.076173 
L 234.472721 -112.647572 
L 234.667331 -114.218971 
L 234.85847 -115.790371 
L 235.038676 -117.36177 
L 235.202438 -118.933169 
L 235.347707 -120.504569 
L 235.476153 -122.075968 
L 235.591812 -123.647367 
L 235.698686 -125.218767 
L 235.798681 -126.790166 
L 235.891032 -128.361565 
L 235.973336 -129.932965 
L 236.043373 -131.504364 
L 236.100669 -133.075763 
L 236.147118 -134.647162 
L 236.186457 -136.218562 
L 236.222875 -137.789961 
L 236.259424 -139.36136 
L 236.297043 -140.93276 
L 236.334707 -142.504159 
L 236.370524 -144.075558 
L 236.403092 -145.646958 
L 236.4323 -147.218357 
L 236.459141 -148.789756 
L 236.484784 -150.361156 
L 236.50962 -151.932555 
L 236.533013 -153.503954 
L 236.553895 -155.075354 
L 236.571729 -156.646753 
L 236.587136 -158.218152 
L 236.601788 -159.789552 
L 236.617677 -161.360951 
L 236.636178 -162.93235 
L 236.657358 -164.503749 
L 236.679829 -166.075149 
L 236.701275 -167.646548 
L 236.719457 -169.217947 
L 236.73324 -170.789347 
L 236.743028 -172.360746 
L 236.750355 -173.932145 
L 236.756901 -175.503545 
L 236.763602 -177.074944 
L 236.770393 -178.646343 
L 236.776598 -180.217743 
L 236.781544 -181.789142 
L 236.784963 -183.360541 
L 236.787012 -184.931941 
L 236.788069 -186.50334 
L 236.788503 -188.074739 
L 236.788552 -189.646139 
L 236.788289 -191.217538 
L 236.787669 -192.788937 
L 236.786598 -194.360337 
L 236.785046 -195.931736 
L 236.783141 -197.503135 
L 236.781199 -199.074534 
L 236.779619 -200.645934 
L 236.778681 -202.217333 
L 236.778377 -203.788732 
L 236.778424 -205.360132 
L 236.778479 -206.931531 
L 236.778408 -208.50293 
L 236.778393 -210.07433 
L 236.778787 -211.645729 
L 236.798997 -211.645729 
L 236.798997 -211.645729 
L 236.799391 -210.07433 
L 236.799376 -208.50293 
L 236.799305 -206.931531 
L 236.79936 -205.360132 
L 236.799407 -203.788732 
L 236.799103 -202.217333 
L 236.798166 -200.645934 
L 236.796585 -199.074534 
L 236.794643 -197.503135 
L 236.792738 -195.931736 
L 236.791186 -194.360337 
L 236.790116 -192.788937 
L 236.789495 -191.217538 
L 236.789233 -189.646139 
L 236.789281 -188.074739 
L 236.789715 -186.50334 
L 236.790772 -184.931941 
L 236.792821 -183.360541 
L 236.79624 -181.789142 
L 236.801187 -180.217743 
L 236.807391 -178.646343 
L 236.814182 -177.074944 
L 236.820883 -175.503545 
L 236.82743 -173.932145 
L 236.834756 -172.360746 
L 236.844544 -170.789347 
L 236.858327 -169.217947 
L 236.87651 -167.646548 
L 236.897955 -166.075149 
L 236.920427 -164.503749 
L 236.941606 -162.93235 
L 236.960107 -161.360951 
L 236.975996 -159.789552 
L 236.990648 -158.218152 
L 237.006056 -156.646753 
L 237.023889 -155.075354 
L 237.044771 -153.503954 
L 237.068165 -151.932555 
L 237.093001 -150.361156 
L 237.118643 -148.789756 
L 237.145484 -147.218357 
L 237.174692 -145.646958 
L 237.20726 -144.075558 
L 237.243077 -142.504159 
L 237.280741 -140.93276 
L 237.318361 -139.36136 
L 237.354909 -137.789961 
L 237.391327 -136.218562 
L 237.430666 -134.647162 
L 237.477115 -133.075763 
L 237.534411 -131.504364 
L 237.604448 -129.932965 
L 237.686752 -128.361565 
L 237.779103 -126.790166 
L 237.879098 -125.218767 
L 237.985972 -123.647367 
L 238.101631 -122.075968 
L 238.230077 -120.504569 
L 238.375346 -118.933169 
L 238.539109 -117.36177 
L 238.719314 -115.790371 
L 238.910453 -114.218971 
L 239.105063 -112.647572 
L 239.295775 -111.076173 
L 239.47743 -109.504773 
L 239.648803 -107.933374 
L 239.813172 -106.361975 
L 239.97705 -104.790575 
L 240.14732 -103.219176 
L 240.328189 -101.647777 
L 240.519601 -100.076377 
L 240.717742 -98.504978 
L 240.916738 -96.933579 
L 241.109974 -95.36218 
L 241.290279 -93.79078 
L 241.449785 -92.219381 
L 241.58093 -90.647982 
L 241.67884 -89.076582 
L 241.743483 -87.505183 
L 241.779643 -85.933784 
L 241.794686 -84.362384 
L 241.796047 -82.790985 
L 241.790266 -81.219586 
L 241.783505 -79.648186 
L 241.782085 -78.076787 
L 241.792288 -76.505388 
L 241.820186 -74.933988 
L 241.872572 -73.362589 
L 241.958551 -71.79119 
L 242.089626 -70.21979 
L 242.276024 -68.648391 
L 242.518341 -67.076992 
L 242.795817 -65.505592 
L 243.055419 -63.934193 
L 243.209703 -62.362794 
L 243.152744 -60.791395 
L 242.796612 -59.219995 
L 242.115624 -57.648596 
L 241.172615 -56.077197 
z
" id="m0d055b50a0" style="stroke:#3d3d3d;stroke-width:1.5;"/>
    </defs>
    <g clip-path="url(#p96529075ed)">
     <use style="fill:#3a923a;stroke:#3d3d3d;stroke-width:1.5;" x="0" xlink:href="#m0d055b50a0" y="360"/>
    </g>
   </g>
   <g id="PolyCollection_7">
    <defs>
     <path d="M 289.158579 -56.022102 
L 274.310562 -56.022102 
L 273.173489 -58.241878 
L 275.418951 -60.461653 
L 277.267014 -62.681429 
L 278.493019 -64.901204 
L 279.406179 -67.12098 
L 280.019041 -69.340755 
L 280.375784 -71.560531 
L 280.645971 -73.780306 
L 280.898415 -76.000082 
L 281.135804 -78.219857 
L 281.286749 -80.439633 
L 281.365494 -82.659408 
L 281.434923 -84.879184 
L 281.514489 -87.098959 
L 281.578324 -89.318734 
L 281.618483 -91.53851 
L 281.643965 -93.758285 
L 281.638611 -95.978061 
L 281.628894 -98.197836 
L 281.643631 -100.417612 
L 281.66437 -102.637387 
L 281.683973 -104.857163 
L 281.705566 -107.076938 
L 281.710308 -109.296714 
L 281.713733 -111.516489 
L 281.723832 -113.736265 
L 281.725165 -115.95604 
L 281.718791 -118.175816 
L 281.709878 -120.395591 
L 281.698494 -122.615367 
L 281.699744 -124.835142 
L 281.706754 -127.054918 
L 281.706257 -129.274693 
L 281.709422 -131.494469 
L 281.714156 -133.714244 
L 281.715923 -135.93402 
L 281.72344 -138.153795 
L 281.730932 -140.37357 
L 281.728824 -142.593346 
L 281.725522 -144.813121 
L 281.729712 -147.032897 
L 281.732712 -149.252672 
L 281.730612 -151.472448 
L 281.728895 -153.692223 
L 281.728279 -155.911999 
L 281.727174 -158.131774 
L 281.726268 -160.35155 
L 281.725829 -162.571325 
L 281.727062 -164.791101 
L 281.730838 -167.010876 
L 281.733828 -169.230652 
L 281.734521 -171.450427 
L 281.73457 -173.670203 
L 281.734571 -175.889978 
L 281.734571 -178.109754 
L 281.734571 -180.329529 
L 281.734571 -182.549305 
L 281.734571 -184.76908 
L 281.734571 -186.988856 
L 281.734571 -189.208631 
L 281.734571 -191.428407 
L 281.734571 -193.648182 
L 281.734571 -195.867957 
L 281.734571 -198.087733 
L 281.734571 -200.307508 
L 281.734571 -202.527284 
L 281.734571 -204.747059 
L 281.734571 -206.966835 
L 281.734571 -209.18661 
L 281.734571 -211.406386 
L 281.734571 -213.626161 
L 281.734571 -215.845937 
L 281.734571 -218.065712 
L 281.734571 -220.285488 
L 281.734571 -222.505263 
L 281.734571 -224.725039 
L 281.734571 -226.944814 
L 281.734571 -229.16459 
L 281.734571 -231.384365 
L 281.734571 -233.604141 
L 281.734571 -235.823916 
L 281.734571 -238.043692 
L 281.734571 -240.263467 
L 281.734571 -242.483243 
L 281.734571 -244.703018 
L 281.734571 -246.922794 
L 281.734571 -249.142569 
L 281.734571 -251.362344 
L 281.734571 -253.58212 
L 281.734571 -255.801895 
L 281.734571 -258.021671 
L 281.734571 -260.241446 
L 281.734571 -262.461222 
L 281.734571 -264.680997 
L 281.73457 -266.900773 
L 281.734547 -269.120548 
L 281.73413 -271.340324 
L 281.732 -273.560099 
L 281.729944 -275.779875 
L 281.739198 -275.779875 
L 281.739198 -275.779875 
L 281.737142 -273.560099 
L 281.735012 -271.340324 
L 281.734594 -269.120548 
L 281.734571 -266.900773 
L 281.734571 -264.680997 
L 281.734571 -262.461222 
L 281.734571 -260.241446 
L 281.734571 -258.021671 
L 281.734571 -255.801895 
L 281.734571 -253.58212 
L 281.734571 -251.362344 
L 281.734571 -249.142569 
L 281.734571 -246.922794 
L 281.734571 -244.703018 
L 281.734571 -242.483243 
L 281.734571 -240.263467 
L 281.734571 -238.043692 
L 281.734571 -235.823916 
L 281.734571 -233.604141 
L 281.734571 -231.384365 
L 281.734571 -229.16459 
L 281.734571 -226.944814 
L 281.734571 -224.725039 
L 281.734571 -222.505263 
L 281.734571 -220.285488 
L 281.734571 -218.065712 
L 281.734571 -215.845937 
L 281.734571 -213.626161 
L 281.734571 -211.406386 
L 281.734571 -209.18661 
L 281.734571 -206.966835 
L 281.734571 -204.747059 
L 281.734571 -202.527284 
L 281.734571 -200.307508 
L 281.734571 -198.087733 
L 281.734571 -195.867957 
L 281.734571 -193.648182 
L 281.734571 -191.428407 
L 281.734571 -189.208631 
L 281.734571 -186.988856 
L 281.734571 -184.76908 
L 281.734571 -182.549305 
L 281.734571 -180.329529 
L 281.734571 -178.109754 
L 281.734571 -175.889978 
L 281.734572 -173.670203 
L 281.73462 -171.450427 
L 281.735314 -169.230652 
L 281.738304 -167.010876 
L 281.74208 -164.791101 
L 281.743312 -162.571325 
L 281.742874 -160.35155 
L 281.741968 -158.131774 
L 281.740862 -155.911999 
L 281.740247 -153.692223 
L 281.73853 -151.472448 
L 281.73643 -149.252672 
L 281.73943 -147.032897 
L 281.74362 -144.813121 
L 281.740318 -142.593346 
L 281.738209 -140.37357 
L 281.745701 -138.153795 
L 281.753219 -135.93402 
L 281.754986 -133.714244 
L 281.75972 -131.494469 
L 281.762884 -129.274693 
L 281.762388 -127.054918 
L 281.769397 -124.835142 
L 281.770648 -122.615367 
L 281.759264 -120.395591 
L 281.75035 -118.175816 
L 281.743977 -115.95604 
L 281.74531 -113.736265 
L 281.755408 -111.516489 
L 281.758834 -109.296714 
L 281.763576 -107.076938 
L 281.785169 -104.857163 
L 281.804772 -102.637387 
L 281.82551 -100.417612 
L 281.840247 -98.197836 
L 281.83053 -95.978061 
L 281.825176 -93.758285 
L 281.850659 -91.53851 
L 281.890817 -89.318734 
L 281.954653 -87.098959 
L 282.034219 -84.879184 
L 282.103647 -82.659408 
L 282.182393 -80.439633 
L 282.333337 -78.219857 
L 282.570727 -76.000082 
L 282.823171 -73.780306 
L 283.093358 -71.560531 
L 283.450101 -69.340755 
L 284.062963 -67.12098 
L 284.976122 -64.901204 
L 286.202127 -62.681429 
L 288.050191 -60.461653 
L 290.295652 -58.241878 
L 289.158579 -56.022102 
z
" id="mbe33fbfee4" style="stroke:#3d3d3d;stroke-width:1.5;"/>
    </defs>
    <g clip-path="url(#p96529075ed)">
     <use style="fill:#3274a1;stroke:#3d3d3d;stroke-width:1.5;" x="0" xlink:href="#mbe33fbfee4" y="360"/>
    </g>
   </g>
   <g id="PolyCollection_8">
    <defs>
     <path d="M 315.993437 -56.069573 
L 298.842195 -56.069573 
L 296.676507 -57.64965 
L 295.198261 -59.229727 
L 294.576193 -60.809804 
L 294.703016 -62.389881 
L 295.312713 -63.969958 
L 296.134013 -65.550035 
L 296.975934 -67.130112 
L 297.729566 -68.710189 
L 298.33451 -70.290265 
L 298.755989 -71.870342 
L 298.983357 -73.450419 
L 299.036123 -75.030496 
L 298.961956 -76.610573 
L 298.822368 -78.19065 
L 298.673528 -79.770727 
L 298.553335 -81.350804 
L 298.479007 -82.930881 
L 298.449658 -84.510958 
L 298.447651 -86.091035 
L 298.441657 -87.671112 
L 298.399544 -89.251189 
L 298.309984 -90.831265 
L 298.197683 -92.411342 
L 298.117124 -93.991419 
L 298.126483 -95.571496 
L 298.259854 -97.151573 
L 298.515985 -98.73165 
L 298.866661 -100.311727 
L 299.273236 -101.891804 
L 299.698544 -103.471881 
L 300.1118 -105.051958 
L 300.492667 -106.632035 
L 300.837627 -108.212112 
L 301.1627 -109.792189 
L 301.494579 -111.372265 
L 301.852221 -112.952342 
L 302.232585 -114.532419 
L 302.613796 -116.112496 
L 302.974026 -117.692573 
L 303.309092 -119.27265 
L 303.632852 -120.852727 
L 303.961621 -122.432804 
L 304.298393 -124.012881 
L 304.630202 -125.592958 
L 304.938174 -127.173035 
L 305.210021 -128.753112 
L 305.445534 -130.333188 
L 305.652972 -131.913265 
L 305.84109 -133.493342 
L 306.013499 -135.073419 
L 306.168648 -136.653496 
L 306.303688 -138.233573 
L 306.418044 -139.81365 
L 306.514108 -141.393727 
L 306.595572 -142.973804 
L 306.665765 -144.553881 
L 306.727617 -146.133958 
L 306.784771 -147.714035 
L 306.841979 -149.294112 
L 306.903487 -150.874188 
L 306.970209 -152.454265 
L 307.038271 -154.034342 
L 307.100883 -155.614419 
L 307.152492 -157.194496 
L 307.191819 -158.774573 
L 307.221421 -160.35465 
L 307.24489 -161.934727 
L 307.264613 -163.514804 
L 307.281638 -165.094881 
L 307.29671 -166.674958 
L 307.310845 -168.255035 
L 307.324905 -169.835112 
L 307.338963 -171.415188 
L 307.352205 -172.995265 
L 307.363344 -174.575342 
L 307.371125 -176.155419 
L 307.374714 -177.735496 
L 307.374092 -179.315573 
L 307.370459 -180.89565 
L 307.366254 -182.475727 
L 307.364336 -184.055804 
L 307.366579 -185.635881 
L 307.372852 -187.215958 
L 307.381268 -188.796035 
L 307.389561 -190.376111 
L 307.396404 -191.956188 
L 307.401725 -193.536265 
L 307.406055 -195.116342 
L 307.409763 -196.696419 
L 307.412817 -198.276496 
L 307.415026 -199.856573 
L 307.416295 -201.43665 
L 307.416654 -203.016727 
L 307.416145 -204.596804 
L 307.414778 -206.176881 
L 307.412673 -207.756958 
L 307.410258 -209.337035 
L 307.408284 -210.917111 
L 307.407517 -212.497188 
L 307.428114 -212.497188 
L 307.428114 -212.497188 
L 307.427347 -210.917111 
L 307.425373 -209.337035 
L 307.422959 -207.756958 
L 307.420854 -206.176881 
L 307.419487 -204.596804 
L 307.418978 -203.016727 
L 307.419337 -201.43665 
L 307.420605 -199.856573 
L 307.422814 -198.276496 
L 307.425869 -196.696419 
L 307.429576 -195.116342 
L 307.433907 -193.536265 
L 307.439228 -191.956188 
L 307.446071 -190.376111 
L 307.454363 -188.796035 
L 307.46278 -187.215958 
L 307.469052 -185.635881 
L 307.471296 -184.055804 
L 307.469378 -182.475727 
L 307.465172 -180.89565 
L 307.46154 -179.315573 
L 307.460917 -177.735496 
L 307.464506 -176.155419 
L 307.472288 -174.575342 
L 307.483427 -172.995265 
L 307.496668 -171.415188 
L 307.510727 -169.835112 
L 307.524786 -168.255035 
L 307.538921 -166.674958 
L 307.553994 -165.094881 
L 307.571018 -163.514804 
L 307.590742 -161.934727 
L 307.614211 -160.35465 
L 307.643812 -158.774573 
L 307.683139 -157.194496 
L 307.734749 -155.614419 
L 307.79736 -154.034342 
L 307.865423 -152.454265 
L 307.932145 -150.874188 
L 307.993652 -149.294112 
L 308.05086 -147.714035 
L 308.108014 -146.133958 
L 308.169866 -144.553881 
L 308.24006 -142.973804 
L 308.321524 -141.393727 
L 308.417587 -139.81365 
L 308.531943 -138.233573 
L 308.666983 -136.653496 
L 308.822133 -135.073419 
L 308.994541 -133.493342 
L 309.18266 -131.913265 
L 309.390097 -130.333188 
L 309.625611 -128.753112 
L 309.897458 -127.173035 
L 310.20543 -125.592958 
L 310.537238 -124.012881 
L 310.874011 -122.432804 
L 311.20278 -120.852727 
L 311.52654 -119.27265 
L 311.861606 -117.692573 
L 312.221835 -116.112496 
L 312.603046 -114.532419 
L 312.983411 -112.952342 
L 313.341052 -111.372265 
L 313.672931 -109.792189 
L 313.998004 -108.212112 
L 314.342965 -106.632035 
L 314.723831 -105.051958 
L 315.137087 -103.471881 
L 315.562395 -101.891804 
L 315.968971 -100.311727 
L 316.319647 -98.73165 
L 316.575778 -97.151573 
L 316.709149 -95.571496 
L 316.718507 -93.991419 
L 316.637949 -92.411342 
L 316.525647 -90.831265 
L 316.436087 -89.251189 
L 316.393974 -87.671112 
L 316.38798 -86.091035 
L 316.385974 -84.510958 
L 316.356625 -82.930881 
L 316.282296 -81.350804 
L 316.162104 -79.770727 
L 316.013264 -78.19065 
L 315.873676 -76.610573 
L 315.799509 -75.030496 
L 315.852274 -73.450419 
L 316.079643 -71.870342 
L 316.501122 -70.290265 
L 317.106065 -68.710189 
L 317.859698 -67.130112 
L 318.701618 -65.550035 
L 319.522918 -63.969958 
L 320.132616 -62.389881 
L 320.259438 -60.809804 
L 319.63737 -59.229727 
L 318.159125 -57.64965 
L 315.993437 -56.069573 
z
" id="m92f16048f9" style="stroke:#3d3d3d;stroke-width:1.5;"/>
    </defs>
    <g clip-path="url(#p96529075ed)">
     <use style="fill:#e1812c;stroke:#3d3d3d;stroke-width:1.5;" x="0" xlink:href="#m92f16048f9" y="360"/>
    </g>
   </g>
   <g id="PolyCollection_9">
    <defs>
     <path d="M 337.395312 -56.069573 
L 328.806809 -56.069573 
L 327.962245 -57.454921 
L 327.296278 -58.84027 
L 326.866534 -60.225618 
L 326.680249 -61.610966 
L 326.70108 -62.996314 
L 326.868743 -64.381662 
L 327.120533 -65.767011 
L 327.405567 -67.152359 
L 327.688914 -68.537707 
L 327.948566 -69.923055 
L 328.170518 -71.308403 
L 328.345697 -72.693752 
L 328.469585 -74.0791 
L 328.543082 -75.464448 
L 328.572644 -76.849796 
L 328.5687 -78.235145 
L 328.542779 -79.620493 
L 328.504676 -81.005841 
L 328.460856 -82.391189 
L 328.414384 -83.776537 
L 328.36591 -85.161886 
L 328.315033 -86.547234 
L 328.261793 -87.932582 
L 328.208231 -89.31793 
L 328.159684 -90.703278 
L 328.125001 -92.088627 
L 328.11497 -93.473975 
L 328.139153 -94.859323 
L 328.202471 -96.244671 
L 328.303272 -97.630019 
L 328.433852 -99.015368 
L 328.583039 -100.400716 
L 328.739462 -101.786064 
L 328.894138 -103.171412 
L 329.041832 -104.55676 
L 329.181415 -105.942109 
L 329.315654 -107.327457 
L 329.450509 -108.712805 
L 329.593641 -110.098153 
L 329.752027 -111.483502 
L 329.929231 -112.86885 
L 330.123535 -114.254198 
L 330.328067 -115.639546 
L 330.53315 -117.024894 
L 330.729849 -118.410243 
L 330.912951 -119.795591 
L 331.081966 -121.180939 
L 331.239911 -122.566287 
L 331.39086 -123.951635 
L 331.537698 -125.336984 
L 331.68111 -126.722332 
L 331.819919 -128.10768 
L 331.952142 -129.493028 
L 332.075943 -130.878376 
L 332.19003 -132.263725 
L 332.29353 -133.649073 
L 332.385714 -135.034421 
L 332.46587 -136.419769 
L 332.533419 -137.805117 
L 332.588151 -139.190466 
L 332.630476 -140.575814 
L 332.661609 -141.961162 
L 332.683675 -143.34651 
L 332.699684 -144.731859 
L 332.713258 -146.117207 
L 332.72804 -147.502555 
L 332.74689 -148.887903 
L 332.771141 -150.273251 
L 332.800281 -151.6586 
L 332.832258 -153.043948 
L 332.864313 -154.429296 
L 332.893966 -155.814644 
L 332.919698 -157.199992 
L 332.941105 -158.585341 
L 332.95859 -159.970689 
L 332.97291 -161.356037 
L 332.984864 -162.741385 
L 332.995196 -164.126733 
L 333.004616 -165.512082 
L 333.013768 -166.89743 
L 333.023114 -168.282778 
L 333.03279 -169.668126 
L 333.042579 -171.053474 
L 333.05202 -172.438823 
L 333.06061 -173.824171 
L 333.067983 -175.209519 
L 333.073993 -176.594867 
L 333.078675 -177.980215 
L 333.082152 -179.365564 
L 333.084544 -180.750912 
L 333.085958 -182.13626 
L 333.086523 -183.521608 
L 333.086437 -184.906957 
L 333.085978 -186.292305 
L 333.085459 -187.677653 
L 333.085169 -189.063001 
L 333.085328 -190.448349 
L 333.086069 -191.833698 
L 333.08742 -193.219046 
L 333.114701 -193.219046 
L 333.114701 -193.219046 
L 333.116053 -191.833698 
L 333.116793 -190.448349 
L 333.116953 -189.063001 
L 333.116662 -187.677653 
L 333.116143 -186.292305 
L 333.115684 -184.906957 
L 333.115598 -183.521608 
L 333.116163 -182.13626 
L 333.117577 -180.750912 
L 333.11997 -179.365564 
L 333.123446 -177.980215 
L 333.128129 -176.594867 
L 333.134139 -175.209519 
L 333.141512 -173.824171 
L 333.150101 -172.438823 
L 333.159542 -171.053474 
L 333.169331 -169.668126 
L 333.179008 -168.282778 
L 333.188353 -166.89743 
L 333.197506 -165.512082 
L 333.206925 -164.126733 
L 333.217257 -162.741385 
L 333.229211 -161.356037 
L 333.243532 -159.970689 
L 333.261017 -158.585341 
L 333.282424 -157.199992 
L 333.308156 -155.814644 
L 333.337808 -154.429296 
L 333.369863 -153.043948 
L 333.40184 -151.6586 
L 333.43098 -150.273251 
L 333.455231 -148.887903 
L 333.474081 -147.502555 
L 333.488863 -146.117207 
L 333.502437 -144.731859 
L 333.518446 -143.34651 
L 333.540512 -141.961162 
L 333.571645 -140.575814 
L 333.613971 -139.190466 
L 333.668703 -137.805117 
L 333.736251 -136.419769 
L 333.816408 -135.034421 
L 333.908592 -133.649073 
L 334.012092 -132.263725 
L 334.126178 -130.878376 
L 334.249979 -129.493028 
L 334.382202 -128.10768 
L 334.521012 -126.722332 
L 334.664424 -125.336984 
L 334.811261 -123.951635 
L 334.96221 -122.566287 
L 335.120155 -121.180939 
L 335.28917 -119.795591 
L 335.472272 -118.410243 
L 335.668972 -117.024894 
L 335.874055 -115.639546 
L 336.078586 -114.254198 
L 336.272891 -112.86885 
L 336.450095 -111.483502 
L 336.608481 -110.098153 
L 336.751613 -108.712805 
L 336.886467 -107.327457 
L 337.020706 -105.942109 
L 337.160289 -104.55676 
L 337.307984 -103.171412 
L 337.46266 -101.786064 
L 337.619082 -100.400716 
L 337.768269 -99.015368 
L 337.898849 -97.630019 
L 337.99965 -96.244671 
L 338.062969 -94.859323 
L 338.087151 -93.473975 
L 338.07712 -92.088627 
L 338.042437 -90.703278 
L 337.99389 -89.31793 
L 337.940329 -87.932582 
L 337.887089 -86.547234 
L 337.836211 -85.161886 
L 337.787737 -83.776537 
L 337.741266 -82.391189 
L 337.697445 -81.005841 
L 337.659342 -79.620493 
L 337.633421 -78.235145 
L 337.629477 -76.849796 
L 337.659039 -75.464448 
L 337.732536 -74.0791 
L 337.856425 -72.693752 
L 338.031603 -71.308403 
L 338.253555 -69.923055 
L 338.513208 -68.537707 
L 338.796554 -67.152359 
L 339.081589 -65.767011 
L 339.333378 -64.381662 
L 339.501041 -62.996314 
L 339.521872 -61.610966 
L 339.335587 -60.225618 
L 338.905843 -58.84027 
L 338.239876 -57.454921 
L 337.395312 -56.069573 
z
" id="m59cd2c8132" style="stroke:#3d3d3d;stroke-width:1.5;"/>
    </defs>
    <g clip-path="url(#p96529075ed)">
     <use style="fill:#3a923a;stroke:#3d3d3d;stroke-width:1.5;" x="0" xlink:href="#m59cd2c8132" y="360"/>
    </g>
   </g>
   <g id="patch_3">
    <path clip-path="url(#p96529075ed)" d="M 114.793479 303.978582 
L 114.793479 303.978582 
L 114.793479 303.978582 
L 114.793479 303.978582 
z
" style="fill:#3274a1;stroke:#3d3d3d;stroke-linejoin:miter;stroke-width:0.75;"/>
   </g>
   <g id="patch_4">
    <path clip-path="url(#p96529075ed)" d="M 114.793479 303.978582 
L 114.793479 303.978582 
L 114.793479 303.978582 
L 114.793479 303.978582 
z
" style="fill:#e1812c;stroke:#3d3d3d;stroke-linejoin:miter;stroke-width:0.75;"/>
   </g>
   <g id="patch_5">
    <path clip-path="url(#p96529075ed)" d="M 114.793479 303.978582 
L 114.793479 303.978582 
L 114.793479 303.978582 
L 114.793479 303.978582 
z
" style="fill:#3a923a;stroke:#3d3d3d;stroke-linejoin:miter;stroke-width:0.75;"/>
   </g>
   <g id="matplotlib.axis_1">
    <g id="xtick_1">
     <g id="line2d_1">
      <defs>
       <path d="M 0 0 
L 0 3.5 
" id="ma9a97b3b5b" style="stroke:#000000;stroke-width:0.8;"/>
      </defs>
      <g>
       <use style="stroke:#000000;stroke-width:0.8;" x="114.793479" xlink:href="#ma9a97b3b5b" y="317.93875"/>
      </g>
     </g>
     <g id="text_1">
      <!-- BLSTM-MD -->
      <g transform="translate(88.066916 332.537188)scale(0.1 -0.1)">
       <defs>
        <path d="M 19.671875 34.8125 
L 19.671875 8.109375 
L 35.5 8.109375 
Q 43.453125 8.109375 47.28125 11.40625 
Q 51.125 14.703125 51.125 21.484375 
Q 51.125 28.328125 47.28125 31.5625 
Q 43.453125 34.8125 35.5 34.8125 
z
M 19.671875 64.796875 
L 19.671875 42.828125 
L 34.28125 42.828125 
Q 41.5 42.828125 45.03125 45.53125 
Q 48.578125 48.25 48.578125 53.8125 
Q 48.578125 59.328125 45.03125 62.0625 
Q 41.5 64.796875 34.28125 64.796875 
z
M 9.8125 72.90625 
L 35.015625 72.90625 
Q 46.296875 72.90625 52.390625 68.21875 
Q 58.5 63.53125 58.5 54.890625 
Q 58.5 48.1875 55.375 44.234375 
Q 52.25 40.28125 46.1875 39.3125 
Q 53.46875 37.75 57.5 32.78125 
Q 61.53125 27.828125 61.53125 20.40625 
Q 61.53125 10.640625 54.890625 5.3125 
Q 48.25 0 35.984375 0 
L 9.8125 0 
z
" id="DejaVuSans-66"/>
        <path d="M 9.8125 72.90625 
L 19.671875 72.90625 
L 19.671875 8.296875 
L 55.171875 8.296875 
L 55.171875 0 
L 9.8125 0 
z
" id="DejaVuSans-76"/>
        <path d="M 53.515625 70.515625 
L 53.515625 60.890625 
Q 47.90625 63.578125 42.921875 64.890625 
Q 37.9375 66.21875 33.296875 66.21875 
Q 25.25 66.21875 20.875 63.09375 
Q 16.5 59.96875 16.5 54.203125 
Q 16.5 49.359375 19.40625 46.890625 
Q 22.3125 44.4375 30.421875 42.921875 
L 36.375 41.703125 
Q 47.40625 39.59375 52.65625 34.296875 
Q 57.90625 29 57.90625 20.125 
Q 57.90625 9.515625 50.796875 4.046875 
Q 43.703125 -1.421875 29.984375 -1.421875 
Q 24.8125 -1.421875 18.96875 -0.25 
Q 13.140625 0.921875 6.890625 3.21875 
L 6.890625 13.375 
Q 12.890625 10.015625 18.65625 8.296875 
Q 24.421875 6.59375 29.984375 6.59375 
Q 38.421875 6.59375 43.015625 9.90625 
Q 47.609375 13.234375 47.609375 19.390625 
Q 47.609375 24.75 44.3125 27.78125 
Q 41.015625 30.8125 33.5 32.328125 
L 27.484375 33.5 
Q 16.453125 35.6875 11.515625 40.375 
Q 6.59375 45.0625 6.59375 53.421875 
Q 6.59375 63.09375 13.40625 68.65625 
Q 20.21875 74.21875 32.171875 74.21875 
Q 37.3125 74.21875 42.625 73.28125 
Q 47.953125 72.359375 53.515625 70.515625 
z
" id="DejaVuSans-83"/>
        <path d="M -0.296875 72.90625 
L 61.375 72.90625 
L 61.375 64.59375 
L 35.5 64.59375 
L 35.5 0 
L 25.59375 0 
L 25.59375 64.59375 
L -0.296875 64.59375 
z
" id="DejaVuSans-84"/>
        <path d="M 9.8125 72.90625 
L 24.515625 72.90625 
L 43.109375 23.296875 
L 61.8125 72.90625 
L 76.515625 72.90625 
L 76.515625 0 
L 66.890625 0 
L 66.890625 64.015625 
L 48.09375 14.015625 
L 38.1875 14.015625 
L 19.390625 64.015625 
L 19.390625 0 
L 9.8125 0 
z
" id="DejaVuSans-77"/>
        <path d="M 4.890625 31.390625 
L 31.203125 31.390625 
L 31.203125 23.390625 
L 4.890625 23.390625 
z
" id="DejaVuSans-45"/>
        <path d="M 19.671875 64.796875 
L 19.671875 8.109375 
L 31.59375 8.109375 
Q 46.6875 8.109375 53.6875 14.9375 
Q 60.6875 21.78125 60.6875 36.53125 
Q 60.6875 51.171875 53.6875 57.984375 
Q 46.6875 64.796875 31.59375 64.796875 
z
M 9.8125 72.90625 
L 30.078125 72.90625 
Q 51.265625 72.90625 61.171875 64.09375 
Q 71.09375 55.28125 71.09375 36.53125 
Q 71.09375 17.671875 61.125 8.828125 
Q 51.171875 0 30.078125 0 
L 9.8125 0 
z
" id="DejaVuSans-68"/>
       </defs>
       <use xlink:href="#DejaVuSans-66"/>
       <use x="68.603516" xlink:href="#DejaVuSans-76"/>
       <use x="124.316406" xlink:href="#DejaVuSans-83"/>
       <use x="187.792969" xlink:href="#DejaVuSans-84"/>
       <use x="248.876953" xlink:href="#DejaVuSans-77"/>
       <use x="335.15625" xlink:href="#DejaVuSans-45"/>
       <use x="371.240234" xlink:href="#DejaVuSans-77"/>
       <use x="457.519531" xlink:href="#DejaVuSans-68"/>
      </g>
     </g>
    </g>
    <g id="xtick_2">
     <g id="line2d_2">
      <g>
       <use style="stroke:#000000;stroke-width:0.8;" x="211.105647" xlink:href="#ma9a97b3b5b" y="317.93875"/>
      </g>
     </g>
     <g id="text_2">
      <!-- Conv-TasNet-MD -->
      <g transform="translate(170.567366 332.537188)scale(0.1 -0.1)">
       <defs>
        <path d="M 64.40625 67.28125 
L 64.40625 56.890625 
Q 59.421875 61.53125 53.78125 63.8125 
Q 48.140625 66.109375 41.796875 66.109375 
Q 29.296875 66.109375 22.65625 58.46875 
Q 16.015625 50.828125 16.015625 36.375 
Q 16.015625 21.96875 22.65625 14.328125 
Q 29.296875 6.6875 41.796875 6.6875 
Q 48.140625 6.6875 53.78125 8.984375 
Q 59.421875 11.28125 64.40625 15.921875 
L 64.40625 5.609375 
Q 59.234375 2.09375 53.4375 0.328125 
Q 47.65625 -1.421875 41.21875 -1.421875 
Q 24.65625 -1.421875 15.125 8.703125 
Q 5.609375 18.84375 5.609375 36.375 
Q 5.609375 53.953125 15.125 64.078125 
Q 24.65625 74.21875 41.21875 74.21875 
Q 47.75 74.21875 53.53125 72.484375 
Q 59.328125 70.75 64.40625 67.28125 
z
" id="DejaVuSans-67"/>
        <path d="M 30.609375 48.390625 
Q 23.390625 48.390625 19.1875 42.75 
Q 14.984375 37.109375 14.984375 27.296875 
Q 14.984375 17.484375 19.15625 11.84375 
Q 23.34375 6.203125 30.609375 6.203125 
Q 37.796875 6.203125 41.984375 11.859375 
Q 46.1875 17.53125 46.1875 27.296875 
Q 46.1875 37.015625 41.984375 42.703125 
Q 37.796875 48.390625 30.609375 48.390625 
z
M 30.609375 56 
Q 42.328125 56 49.015625 48.375 
Q 55.71875 40.765625 55.71875 27.296875 
Q 55.71875 13.875 49.015625 6.21875 
Q 42.328125 -1.421875 30.609375 -1.421875 
Q 18.84375 -1.421875 12.171875 6.21875 
Q 5.515625 13.875 5.515625 27.296875 
Q 5.515625 40.765625 12.171875 48.375 
Q 18.84375 56 30.609375 56 
z
" id="DejaVuSans-111"/>
        <path d="M 54.890625 33.015625 
L 54.890625 0 
L 45.90625 0 
L 45.90625 32.71875 
Q 45.90625 40.484375 42.875 44.328125 
Q 39.84375 48.1875 33.796875 48.1875 
Q 26.515625 48.1875 22.3125 43.546875 
Q 18.109375 38.921875 18.109375 30.90625 
L 18.109375 0 
L 9.078125 0 
L 9.078125 54.6875 
L 18.109375 54.6875 
L 18.109375 46.1875 
Q 21.34375 51.125 25.703125 53.5625 
Q 30.078125 56 35.796875 56 
Q 45.21875 56 50.046875 50.171875 
Q 54.890625 44.34375 54.890625 33.015625 
z
" id="DejaVuSans-110"/>
        <path d="M 2.984375 54.6875 
L 12.5 54.6875 
L 29.59375 8.796875 
L 46.6875 54.6875 
L 56.203125 54.6875 
L 35.6875 0 
L 23.484375 0 
z
" id="DejaVuSans-118"/>
        <path d="M 34.28125 27.484375 
Q 23.390625 27.484375 19.1875 25 
Q 14.984375 22.515625 14.984375 16.5 
Q 14.984375 11.71875 18.140625 8.90625 
Q 21.296875 6.109375 26.703125 6.109375 
Q 34.1875 6.109375 38.703125 11.40625 
Q 43.21875 16.703125 43.21875 25.484375 
L 43.21875 27.484375 
z
M 52.203125 31.203125 
L 52.203125 0 
L 43.21875 0 
L 43.21875 8.296875 
Q 40.140625 3.328125 35.546875 0.953125 
Q 30.953125 -1.421875 24.3125 -1.421875 
Q 15.921875 -1.421875 10.953125 3.296875 
Q 6 8.015625 6 15.921875 
Q 6 25.140625 12.171875 29.828125 
Q 18.359375 34.515625 30.609375 34.515625 
L 43.21875 34.515625 
L 43.21875 35.40625 
Q 43.21875 41.609375 39.140625 45 
Q 35.0625 48.390625 27.6875 48.390625 
Q 23 48.390625 18.546875 47.265625 
Q 14.109375 46.140625 10.015625 43.890625 
L 10.015625 52.203125 
Q 14.9375 54.109375 19.578125 55.046875 
Q 24.21875 56 28.609375 56 
Q 40.484375 56 46.34375 49.84375 
Q 52.203125 43.703125 52.203125 31.203125 
z
" id="DejaVuSans-97"/>
        <path d="M 44.28125 53.078125 
L 44.28125 44.578125 
Q 40.484375 46.53125 36.375 47.5 
Q 32.28125 48.484375 27.875 48.484375 
Q 21.1875 48.484375 17.84375 46.4375 
Q 14.5 44.390625 14.5 40.28125 
Q 14.5 37.15625 16.890625 35.375 
Q 19.28125 33.59375 26.515625 31.984375 
L 29.59375 31.296875 
Q 39.15625 29.25 43.1875 25.515625 
Q 47.21875 21.78125 47.21875 15.09375 
Q 47.21875 7.46875 41.1875 3.015625 
Q 35.15625 -1.421875 24.609375 -1.421875 
Q 20.21875 -1.421875 15.453125 -0.5625 
Q 10.6875 0.296875 5.421875 2 
L 5.421875 11.28125 
Q 10.40625 8.6875 15.234375 7.390625 
Q 20.0625 6.109375 24.8125 6.109375 
Q 31.15625 6.109375 34.5625 8.28125 
Q 37.984375 10.453125 37.984375 14.40625 
Q 37.984375 18.0625 35.515625 20.015625 
Q 33.0625 21.96875 24.703125 23.78125 
L 21.578125 24.515625 
Q 13.234375 26.265625 9.515625 29.90625 
Q 5.8125 33.546875 5.8125 39.890625 
Q 5.8125 47.609375 11.28125 51.796875 
Q 16.75 56 26.8125 56 
Q 31.78125 56 36.171875 55.265625 
Q 40.578125 54.546875 44.28125 53.078125 
z
" id="DejaVuSans-115"/>
        <path d="M 9.8125 72.90625 
L 23.09375 72.90625 
L 55.421875 11.921875 
L 55.421875 72.90625 
L 64.984375 72.90625 
L 64.984375 0 
L 51.703125 0 
L 19.390625 60.984375 
L 19.390625 0 
L 9.8125 0 
z
" id="DejaVuSans-78"/>
        <path d="M 56.203125 29.59375 
L 56.203125 25.203125 
L 14.890625 25.203125 
Q 15.484375 15.921875 20.484375 11.0625 
Q 25.484375 6.203125 34.421875 6.203125 
Q 39.59375 6.203125 44.453125 7.46875 
Q 49.3125 8.734375 54.109375 11.28125 
L 54.109375 2.78125 
Q 49.265625 0.734375 44.1875 -0.34375 
Q 39.109375 -1.421875 33.890625 -1.421875 
Q 20.796875 -1.421875 13.15625 6.1875 
Q 5.515625 13.8125 5.515625 26.8125 
Q 5.515625 40.234375 12.765625 48.109375 
Q 20.015625 56 32.328125 56 
Q 43.359375 56 49.78125 48.890625 
Q 56.203125 41.796875 56.203125 29.59375 
z
M 47.21875 32.234375 
Q 47.125 39.59375 43.09375 43.984375 
Q 39.0625 48.390625 32.421875 48.390625 
Q 24.90625 48.390625 20.390625 44.140625 
Q 15.875 39.890625 15.1875 32.171875 
z
" id="DejaVuSans-101"/>
        <path d="M 18.3125 70.21875 
L 18.3125 54.6875 
L 36.8125 54.6875 
L 36.8125 47.703125 
L 18.3125 47.703125 
L 18.3125 18.015625 
Q 18.3125 11.328125 20.140625 9.421875 
Q 21.96875 7.515625 27.59375 7.515625 
L 36.8125 7.515625 
L 36.8125 0 
L 27.59375 0 
Q 17.1875 0 13.234375 3.875 
Q 9.28125 7.765625 9.28125 18.015625 
L 9.28125 47.703125 
L 2.6875 47.703125 
L 2.6875 54.6875 
L 9.28125 54.6875 
L 9.28125 70.21875 
z
" id="DejaVuSans-116"/>
       </defs>
       <use xlink:href="#DejaVuSans-67"/>
       <use x="69.824219" xlink:href="#DejaVuSans-111"/>
       <use x="131.005859" xlink:href="#DejaVuSans-110"/>
       <use x="194.384766" xlink:href="#DejaVuSans-118"/>
       <use x="250.939453" xlink:href="#DejaVuSans-45"/>
       <use x="277.898438" xlink:href="#DejaVuSans-84"/>
       <use x="322.482422" xlink:href="#DejaVuSans-97"/>
       <use x="383.761719" xlink:href="#DejaVuSans-115"/>
       <use x="435.861328" xlink:href="#DejaVuSans-78"/>
       <use x="510.666016" xlink:href="#DejaVuSans-101"/>
       <use x="572.189453" xlink:href="#DejaVuSans-116"/>
       <use x="611.398438" xlink:href="#DejaVuSans-45"/>
       <use x="647.482422" xlink:href="#DejaVuSans-77"/>
       <use x="733.761719" xlink:href="#DejaVuSans-68"/>
      </g>
     </g>
    </g>
    <g id="xtick_3">
     <g id="line2d_3">
      <g>
       <use style="stroke:#000000;stroke-width:0.8;" x="307.417816" xlink:href="#ma9a97b3b5b" y="317.93875"/>
      </g>
     </g>
     <g id="text_3">
      <!-- Wave-U-Net-MD -->
      <g transform="translate(267.680316 332.537188)scale(0.1 -0.1)">
       <defs>
        <path d="M 3.328125 72.90625 
L 13.28125 72.90625 
L 28.609375 11.28125 
L 43.890625 72.90625 
L 54.984375 72.90625 
L 70.3125 11.28125 
L 85.59375 72.90625 
L 95.609375 72.90625 
L 77.296875 0 
L 64.890625 0 
L 49.515625 63.28125 
L 33.984375 0 
L 21.578125 0 
z
" id="DejaVuSans-87"/>
        <path d="M 8.6875 72.90625 
L 18.609375 72.90625 
L 18.609375 28.609375 
Q 18.609375 16.890625 22.84375 11.734375 
Q 27.09375 6.59375 36.625 6.59375 
Q 46.09375 6.59375 50.34375 11.734375 
Q 54.59375 16.890625 54.59375 28.609375 
L 54.59375 72.90625 
L 64.5 72.90625 
L 64.5 27.390625 
Q 64.5 13.140625 57.4375 5.859375 
Q 50.390625 -1.421875 36.625 -1.421875 
Q 22.796875 -1.421875 15.734375 5.859375 
Q 8.6875 13.140625 8.6875 27.390625 
z
" id="DejaVuSans-85"/>
       </defs>
       <use xlink:href="#DejaVuSans-87"/>
       <use x="92.501953" xlink:href="#DejaVuSans-97"/>
       <use x="153.78125" xlink:href="#DejaVuSans-118"/>
       <use x="212.960938" xlink:href="#DejaVuSans-101"/>
       <use x="274.484375" xlink:href="#DejaVuSans-45"/>
       <use x="310.568359" xlink:href="#DejaVuSans-85"/>
       <use x="383.761719" xlink:href="#DejaVuSans-45"/>
       <use x="419.845703" xlink:href="#DejaVuSans-78"/>
       <use x="494.650391" xlink:href="#DejaVuSans-101"/>
       <use x="556.173828" xlink:href="#DejaVuSans-116"/>
       <use x="595.382812" xlink:href="#DejaVuSans-45"/>
       <use x="631.466797" xlink:href="#DejaVuSans-77"/>
       <use x="717.746094" xlink:href="#DejaVuSans-68"/>
      </g>
     </g>
    </g>
    <g id="text_4">
     <!-- Model -->
     <g transform="translate(196.092366 346.215312)scale(0.1 -0.1)">
      <defs>
       <path d="M 45.40625 46.390625 
L 45.40625 75.984375 
L 54.390625 75.984375 
L 54.390625 0 
L 45.40625 0 
L 45.40625 8.203125 
Q 42.578125 3.328125 38.25 0.953125 
Q 33.9375 -1.421875 27.875 -1.421875 
Q 17.96875 -1.421875 11.734375 6.484375 
Q 5.515625 14.40625 5.515625 27.296875 
Q 5.515625 40.1875 11.734375 48.09375 
Q 17.96875 56 27.875 56 
Q 33.9375 56 38.25 53.625 
Q 42.578125 51.265625 45.40625 46.390625 
z
M 14.796875 27.296875 
Q 14.796875 17.390625 18.875 11.75 
Q 22.953125 6.109375 30.078125 6.109375 
Q 37.203125 6.109375 41.296875 11.75 
Q 45.40625 17.390625 45.40625 27.296875 
Q 45.40625 37.203125 41.296875 42.84375 
Q 37.203125 48.484375 30.078125 48.484375 
Q 22.953125 48.484375 18.875 42.84375 
Q 14.796875 37.203125 14.796875 27.296875 
z
" id="DejaVuSans-100"/>
       <path d="M 9.421875 75.984375 
L 18.40625 75.984375 
L 18.40625 0 
L 9.421875 0 
z
" id="DejaVuSans-108"/>
      </defs>
      <use xlink:href="#DejaVuSans-77"/>
      <use x="86.279297" xlink:href="#DejaVuSans-111"/>
      <use x="147.460938" xlink:href="#DejaVuSans-100"/>
      <use x="210.9375" xlink:href="#DejaVuSans-101"/>
      <use x="272.460938" xlink:href="#DejaVuSans-108"/>
     </g>
    </g>
   </g>
   <g id="matplotlib.axis_2">
    <g id="ytick_1">
     <g id="line2d_4">
      <defs>
       <path d="M 0 0 
L -3.5 0 
" id="md9578a095e" style="stroke:#000000;stroke-width:0.8;"/>
      </defs>
      <g>
       <use style="stroke:#000000;stroke-width:0.8;" x="66.637394" xlink:href="#md9578a095e" y="303.978582"/>
      </g>
     </g>
     <g id="text_5">
      <!-- 0.00 -->
      <g transform="translate(37.371769 307.777801)scale(0.1 -0.1)">
       <defs>
        <path d="M 31.78125 66.40625 
Q 24.171875 66.40625 20.328125 58.90625 
Q 16.5 51.421875 16.5 36.375 
Q 16.5 21.390625 20.328125 13.890625 
Q 24.171875 6.390625 31.78125 6.390625 
Q 39.453125 6.390625 43.28125 13.890625 
Q 47.125 21.390625 47.125 36.375 
Q 47.125 51.421875 43.28125 58.90625 
Q 39.453125 66.40625 31.78125 66.40625 
z
M 31.78125 74.21875 
Q 44.046875 74.21875 50.515625 64.515625 
Q 56.984375 54.828125 56.984375 36.375 
Q 56.984375 17.96875 50.515625 8.265625 
Q 44.046875 -1.421875 31.78125 -1.421875 
Q 19.53125 -1.421875 13.0625 8.265625 
Q 6.59375 17.96875 6.59375 36.375 
Q 6.59375 54.828125 13.0625 64.515625 
Q 19.53125 74.21875 31.78125 74.21875 
z
" id="DejaVuSans-48"/>
        <path d="M 10.6875 12.40625 
L 21 12.40625 
L 21 0 
L 10.6875 0 
z
" id="DejaVuSans-46"/>
       </defs>
       <use xlink:href="#DejaVuSans-48"/>
       <use x="63.623047" xlink:href="#DejaVuSans-46"/>
       <use x="95.410156" xlink:href="#DejaVuSans-48"/>
       <use x="159.033203" xlink:href="#DejaVuSans-48"/>
      </g>
     </g>
    </g>
    <g id="ytick_2">
     <g id="line2d_5">
      <g>
       <use style="stroke:#000000;stroke-width:0.8;" x="66.637394" xlink:href="#md9578a095e" y="252.599042"/>
      </g>
     </g>
     <g id="text_6">
      <!-- 0.01 -->
      <g transform="translate(37.371769 256.398261)scale(0.1 -0.1)">
       <defs>
        <path d="M 12.40625 8.296875 
L 28.515625 8.296875 
L 28.515625 63.921875 
L 10.984375 60.40625 
L 10.984375 69.390625 
L 28.421875 72.90625 
L 38.28125 72.90625 
L 38.28125 8.296875 
L 54.390625 8.296875 
L 54.390625 0 
L 12.40625 0 
z
" id="DejaVuSans-49"/>
       </defs>
       <use xlink:href="#DejaVuSans-48"/>
       <use x="63.623047" xlink:href="#DejaVuSans-46"/>
       <use x="95.410156" xlink:href="#DejaVuSans-48"/>
       <use x="159.033203" xlink:href="#DejaVuSans-49"/>
      </g>
     </g>
    </g>
    <g id="ytick_3">
     <g id="line2d_6">
      <g>
       <use style="stroke:#000000;stroke-width:0.8;" x="66.637394" xlink:href="#md9578a095e" y="201.219502"/>
      </g>
     </g>
     <g id="text_7">
      <!-- 0.02 -->
      <g transform="translate(37.371769 205.018721)scale(0.1 -0.1)">
       <defs>
        <path d="M 19.1875 8.296875 
L 53.609375 8.296875 
L 53.609375 0 
L 7.328125 0 
L 7.328125 8.296875 
Q 12.9375 14.109375 22.625 23.890625 
Q 32.328125 33.6875 34.8125 36.53125 
Q 39.546875 41.84375 41.421875 45.53125 
Q 43.3125 49.21875 43.3125 52.78125 
Q 43.3125 58.59375 39.234375 62.25 
Q 35.15625 65.921875 28.609375 65.921875 
Q 23.96875 65.921875 18.8125 64.3125 
Q 13.671875 62.703125 7.8125 59.421875 
L 7.8125 69.390625 
Q 13.765625 71.78125 18.9375 73 
Q 24.125 74.21875 28.421875 74.21875 
Q 39.75 74.21875 46.484375 68.546875 
Q 53.21875 62.890625 53.21875 53.421875 
Q 53.21875 48.921875 51.53125 44.890625 
Q 49.859375 40.875 45.40625 35.40625 
Q 44.1875 33.984375 37.640625 27.21875 
Q 31.109375 20.453125 19.1875 8.296875 
z
" id="DejaVuSans-50"/>
       </defs>
       <use xlink:href="#DejaVuSans-48"/>
       <use x="63.623047" xlink:href="#DejaVuSans-46"/>
       <use x="95.410156" xlink:href="#DejaVuSans-48"/>
       <use x="159.033203" xlink:href="#DejaVuSans-50"/>
      </g>
     </g>
    </g>
    <g id="ytick_4">
     <g id="line2d_7">
      <g>
       <use style="stroke:#000000;stroke-width:0.8;" x="66.637394" xlink:href="#md9578a095e" y="149.839962"/>
      </g>
     </g>
     <g id="text_8">
      <!-- 0.03 -->
      <g transform="translate(37.371769 153.639181)scale(0.1 -0.1)">
       <defs>
        <path d="M 40.578125 39.3125 
Q 47.65625 37.796875 51.625 33 
Q 55.609375 28.21875 55.609375 21.1875 
Q 55.609375 10.40625 48.1875 4.484375 
Q 40.765625 -1.421875 27.09375 -1.421875 
Q 22.515625 -1.421875 17.65625 -0.515625 
Q 12.796875 0.390625 7.625 2.203125 
L 7.625 11.71875 
Q 11.71875 9.328125 16.59375 8.109375 
Q 21.484375 6.890625 26.8125 6.890625 
Q 36.078125 6.890625 40.9375 10.546875 
Q 45.796875 14.203125 45.796875 21.1875 
Q 45.796875 27.640625 41.28125 31.265625 
Q 36.765625 34.90625 28.71875 34.90625 
L 20.21875 34.90625 
L 20.21875 43.015625 
L 29.109375 43.015625 
Q 36.375 43.015625 40.234375 45.921875 
Q 44.09375 48.828125 44.09375 54.296875 
Q 44.09375 59.90625 40.109375 62.90625 
Q 36.140625 65.921875 28.71875 65.921875 
Q 24.65625 65.921875 20.015625 65.03125 
Q 15.375 64.15625 9.8125 62.3125 
L 9.8125 71.09375 
Q 15.4375 72.65625 20.34375 73.4375 
Q 25.25 74.21875 29.59375 74.21875 
Q 40.828125 74.21875 47.359375 69.109375 
Q 53.90625 64.015625 53.90625 55.328125 
Q 53.90625 49.265625 50.4375 45.09375 
Q 46.96875 40.921875 40.578125 39.3125 
z
" id="DejaVuSans-51"/>
       </defs>
       <use xlink:href="#DejaVuSans-48"/>
       <use x="63.623047" xlink:href="#DejaVuSans-46"/>
       <use x="95.410156" xlink:href="#DejaVuSans-48"/>
       <use x="159.033203" xlink:href="#DejaVuSans-51"/>
      </g>
     </g>
    </g>
    <g id="ytick_5">
     <g id="line2d_8">
      <g>
       <use style="stroke:#000000;stroke-width:0.8;" x="66.637394" xlink:href="#md9578a095e" y="98.460422"/>
      </g>
     </g>
     <g id="text_9">
      <!-- 0.04 -->
      <g transform="translate(37.371769 102.259641)scale(0.1 -0.1)">
       <defs>
        <path d="M 37.796875 64.3125 
L 12.890625 25.390625 
L 37.796875 25.390625 
z
M 35.203125 72.90625 
L 47.609375 72.90625 
L 47.609375 25.390625 
L 58.015625 25.390625 
L 58.015625 17.1875 
L 47.609375 17.1875 
L 47.609375 0 
L 37.796875 0 
L 37.796875 17.1875 
L 4.890625 17.1875 
L 4.890625 26.703125 
z
" id="DejaVuSans-52"/>
       </defs>
       <use xlink:href="#DejaVuSans-48"/>
       <use x="63.623047" xlink:href="#DejaVuSans-46"/>
       <use x="95.410156" xlink:href="#DejaVuSans-48"/>
       <use x="159.033203" xlink:href="#DejaVuSans-52"/>
      </g>
     </g>
    </g>
    <g id="ytick_6">
     <g id="line2d_9">
      <g>
       <use style="stroke:#000000;stroke-width:0.8;" x="66.637394" xlink:href="#md9578a095e" y="47.080882"/>
      </g>
     </g>
     <g id="text_10">
      <!-- 0.05 -->
      <g transform="translate(37.371769 50.880101)scale(0.1 -0.1)">
       <defs>
        <path d="M 10.796875 72.90625 
L 49.515625 72.90625 
L 49.515625 64.59375 
L 19.828125 64.59375 
L 19.828125 46.734375 
Q 21.96875 47.46875 24.109375 47.828125 
Q 26.265625 48.1875 28.421875 48.1875 
Q 40.625 48.1875 47.75 41.5 
Q 54.890625 34.8125 54.890625 23.390625 
Q 54.890625 11.625 47.5625 5.09375 
Q 40.234375 -1.421875 26.90625 -1.421875 
Q 22.3125 -1.421875 17.546875 -0.640625 
Q 12.796875 0.140625 7.71875 1.703125 
L 7.71875 11.625 
Q 12.109375 9.234375 16.796875 8.0625 
Q 21.484375 6.890625 26.703125 6.890625 
Q 35.15625 6.890625 40.078125 11.328125 
Q 45.015625 15.765625 45.015625 23.390625 
Q 45.015625 31 40.078125 35.4375 
Q 35.15625 39.890625 26.703125 39.890625 
Q 22.75 39.890625 18.8125 39.015625 
Q 14.890625 38.140625 10.796875 36.28125 
z
" id="DejaVuSans-53"/>
       </defs>
       <use xlink:href="#DejaVuSans-48"/>
       <use x="63.623047" xlink:href="#DejaVuSans-46"/>
       <use x="95.410156" xlink:href="#DejaVuSans-48"/>
       <use x="159.033203" xlink:href="#DejaVuSans-53"/>
      </g>
     </g>
    </g>
    <g id="text_11">
     <!-- MSE -->
     <g transform="translate(31.292082 175.017031)rotate(-90)scale(0.1 -0.1)">
      <defs>
       <path d="M 9.8125 72.90625 
L 55.90625 72.90625 
L 55.90625 64.59375 
L 19.671875 64.59375 
L 19.671875 43.015625 
L 54.390625 43.015625 
L 54.390625 34.71875 
L 19.671875 34.71875 
L 19.671875 8.296875 
L 56.78125 8.296875 
L 56.78125 0 
L 9.8125 0 
z
" id="DejaVuSans-69"/>
      </defs>
      <use xlink:href="#DejaVuSans-77"/>
      <use x="86.279297" xlink:href="#DejaVuSans-83"/>
      <use x="149.755859" xlink:href="#DejaVuSans-69"/>
     </g>
    </g>
   </g>
   <g id="line2d_10">
    <path clip-path="url(#p96529075ed)" d="M 89.110234 303.97718 
L 89.110234 298.170737 
" style="fill:none;stroke:#3d3d3d;stroke-linecap:square;stroke-width:1.5;"/>
   </g>
   <g id="line2d_11">
    <path clip-path="url(#p96529075ed)" d="M 89.110234 303.650283 
L 89.110234 301.450409 
" style="fill:none;stroke:#3d3d3d;stroke-linecap:square;stroke-width:4.5;"/>
   </g>
   <g id="line2d_12">
    <path clip-path="url(#p96529075ed)" d="M 114.793479 303.925669 
L 114.793479 215.924668 
" style="fill:none;stroke:#3d3d3d;stroke-linecap:square;stroke-width:1.5;"/>
   </g>
   <g id="line2d_13">
    <path clip-path="url(#p96529075ed)" d="M 114.793479 294.337853 
L 114.793479 262.887436 
" style="fill:none;stroke:#3d3d3d;stroke-linecap:square;stroke-width:4.5;"/>
   </g>
   <g id="line2d_14">
    <path clip-path="url(#p96529075ed)" d="M 140.476724 303.925669 
L 140.476724 214.606299 
" style="fill:none;stroke:#3d3d3d;stroke-linecap:square;stroke-width:1.5;"/>
   </g>
   <g id="line2d_15">
    <path clip-path="url(#p96529075ed)" d="M 140.476724 293.749635 
L 140.476724 261.828219 
" style="fill:none;stroke:#3d3d3d;stroke-linecap:square;stroke-width:4.5;"/>
   </g>
   <g id="line2d_16">
    <path clip-path="url(#p96529075ed)" d="M 185.422402 303.97756 
L 185.422402 303.07512 
" style="fill:none;stroke:#3d3d3d;stroke-linecap:square;stroke-width:1.5;"/>
   </g>
   <g id="line2d_17">
    <path clip-path="url(#p96529075ed)" d="M 185.422402 303.939946 
L 185.422402 303.594 
" style="fill:none;stroke:#3d3d3d;stroke-linecap:square;stroke-width:4.5;"/>
   </g>
   <g id="line2d_18">
    <path clip-path="url(#p96529075ed)" d="M 211.105647 303.922803 
L 211.105647 210.814783 
" style="fill:none;stroke:#3d3d3d;stroke-linecap:square;stroke-width:1.5;"/>
   </g>
   <g id="line2d_19">
    <path clip-path="url(#p96529075ed)" d="M 211.105647 294.516846 
L 211.105647 261.023731 
" style="fill:none;stroke:#3d3d3d;stroke-linecap:square;stroke-width:4.5;"/>
   </g>
   <g id="line2d_20">
    <path clip-path="url(#p96529075ed)" d="M 236.788892 303.922803 
L 236.788892 212.050169 
" style="fill:none;stroke:#3d3d3d;stroke-linecap:square;stroke-width:1.5;"/>
   </g>
   <g id="line2d_21">
    <path clip-path="url(#p96529075ed)" d="M 236.788892 293.644204 
L 236.788892 260.981066 
" style="fill:none;stroke:#3d3d3d;stroke-linecap:square;stroke-width:4.5;"/>
   </g>
   <g id="line2d_22">
    <path clip-path="url(#p96529075ed)" d="M 281.734571 303.977898 
L 281.734571 282.062093 
" style="fill:none;stroke:#3d3d3d;stroke-linecap:square;stroke-width:1.5;"/>
   </g>
   <g id="line2d_23">
    <path clip-path="url(#p96529075ed)" d="M 281.734571 302.999524 
L 281.734571 294.58234 
" style="fill:none;stroke:#3d3d3d;stroke-linecap:square;stroke-width:4.5;"/>
   </g>
   <g id="line2d_24">
    <path clip-path="url(#p96529075ed)" d="M 307.417816 303.930427 
L 307.417816 204.802544 
" style="fill:none;stroke:#3d3d3d;stroke-linecap:square;stroke-width:1.5;"/>
   </g>
   <g id="line2d_25">
    <path clip-path="url(#p96529075ed)" d="M 307.417816 293.187302 
L 307.417816 257.46808 
" style="fill:none;stroke:#3d3d3d;stroke-linecap:square;stroke-width:4.5;"/>
   </g>
   <g id="line2d_26">
    <path clip-path="url(#p96529075ed)" d="M 333.101061 303.930427 
L 333.101061 203.64724 
" style="fill:none;stroke:#3d3d3d;stroke-linecap:square;stroke-width:1.5;"/>
   </g>
   <g id="line2d_27">
    <path clip-path="url(#p96529075ed)" d="M 333.101061 292.69065 
L 333.101061 256.838102 
" style="fill:none;stroke:#3d3d3d;stroke-linecap:square;stroke-width:4.5;"/>
   </g>
   <g id="patch_6">
    <path d="M 66.637394 317.93875 
L 66.637394 10.8 
" style="fill:none;stroke:#000000;stroke-linecap:square;stroke-linejoin:miter;stroke-width:0.8;"/>
   </g>
   <g id="patch_7">
    <path d="M 66.637394 317.93875 
L 355.5739 317.93875 
" style="fill:none;stroke:#000000;stroke-linecap:square;stroke-linejoin:miter;stroke-width:0.8;"/>
   </g>
   <g id="PathCollection_1">
    <defs>
     <path d="M 0 1.5 
C 0.397805 1.5 0.77937 1.341951 1.06066 1.06066 
C 1.341951 0.77937 1.5 0.397805 1.5 0 
C 1.5 -0.397805 1.341951 -0.77937 1.06066 -1.06066 
C 0.77937 -1.341951 0.397805 -1.5 0 -1.5 
C -0.397805 -1.5 -0.77937 -1.341951 -1.06066 -1.06066 
C -1.341951 -0.77937 -1.5 -0.397805 -1.5 0 
C -1.5 0.397805 -1.341951 0.77937 -1.06066 1.06066 
C -0.77937 1.341951 -0.397805 1.5 0 1.5 
z
" id="mf23273a220" style="stroke:#3d3d3d;"/>
    </defs>
    <g clip-path="url(#p96529075ed)">
     <use style="fill:#ffffff;stroke:#3d3d3d;" x="89.110234" xlink:href="#mf23273a220" y="303.054663"/>
    </g>
   </g>
   <g id="PathCollection_2">
    <g clip-path="url(#p96529075ed)">
     <use style="fill:#ffffff;stroke:#3d3d3d;" x="114.793479" xlink:href="#mf23273a220" y="279.255245"/>
    </g>
   </g>
   <g id="PathCollection_3">
    <g clip-path="url(#p96529075ed)">
     <use style="fill:#ffffff;stroke:#3d3d3d;" x="140.476724" xlink:href="#mf23273a220" y="278.162156"/>
    </g>
   </g>
   <g id="PathCollection_4">
    <g clip-path="url(#p96529075ed)">
     <use style="fill:#ffffff;stroke:#3d3d3d;" x="185.422402" xlink:href="#mf23273a220" y="303.866362"/>
    </g>
   </g>
   <g id="PathCollection_5">
    <g clip-path="url(#p96529075ed)">
     <use style="fill:#ffffff;stroke:#3d3d3d;" x="211.105647" xlink:href="#mf23273a220" y="278.008129"/>
    </g>
   </g>
   <g id="PathCollection_6">
    <g clip-path="url(#p96529075ed)">
     <use style="fill:#ffffff;stroke:#3d3d3d;" x="236.788892" xlink:href="#mf23273a220" y="277.809129"/>
    </g>
   </g>
   <g id="PathCollection_7">
    <g clip-path="url(#p96529075ed)">
     <use style="fill:#ffffff;stroke:#3d3d3d;" x="281.734571" xlink:href="#mf23273a220" y="300.162538"/>
    </g>
   </g>
   <g id="PathCollection_8">
    <g clip-path="url(#p96529075ed)">
     <use style="fill:#ffffff;stroke:#3d3d3d;" x="307.417816" xlink:href="#mf23273a220" y="274.848115"/>
    </g>
   </g>
   <g id="PathCollection_9">
    <g clip-path="url(#p96529075ed)">
     <use style="fill:#ffffff;stroke:#3d3d3d;" x="333.101061" xlink:href="#mf23273a220" y="274.338979"/>
    </g>
   </g>
  </g>
  <g id="legend_1">
   <g id="text_12">
    <!-- target_number -->
    <g transform="translate(359.175625 160.603125)scale(0.1 -0.1)">
     <defs>
      <path d="M 41.109375 46.296875 
Q 39.59375 47.171875 37.8125 47.578125 
Q 36.03125 48 33.890625 48 
Q 26.265625 48 22.1875 43.046875 
Q 18.109375 38.09375 18.109375 28.8125 
L 18.109375 0 
L 9.078125 0 
L 9.078125 54.6875 
L 18.109375 54.6875 
L 18.109375 46.1875 
Q 20.953125 51.171875 25.484375 53.578125 
Q 30.03125 56 36.53125 56 
Q 37.453125 56 38.578125 55.875 
Q 39.703125 55.765625 41.0625 55.515625 
z
" id="DejaVuSans-114"/>
      <path d="M 45.40625 27.984375 
Q 45.40625 37.75 41.375 43.109375 
Q 37.359375 48.484375 30.078125 48.484375 
Q 22.859375 48.484375 18.828125 43.109375 
Q 14.796875 37.75 14.796875 27.984375 
Q 14.796875 18.265625 18.828125 12.890625 
Q 22.859375 7.515625 30.078125 7.515625 
Q 37.359375 7.515625 41.375 12.890625 
Q 45.40625 18.265625 45.40625 27.984375 
z
M 54.390625 6.78125 
Q 54.390625 -7.171875 48.1875 -13.984375 
Q 42 -20.796875 29.203125 -20.796875 
Q 24.46875 -20.796875 20.265625 -20.09375 
Q 16.0625 -19.390625 12.109375 -17.921875 
L 12.109375 -9.1875 
Q 16.0625 -11.328125 19.921875 -12.34375 
Q 23.78125 -13.375 27.78125 -13.375 
Q 36.625 -13.375 41.015625 -8.765625 
Q 45.40625 -4.15625 45.40625 5.171875 
L 45.40625 9.625 
Q 42.625 4.78125 38.28125 2.390625 
Q 33.9375 0 27.875 0 
Q 17.828125 0 11.671875 7.65625 
Q 5.515625 15.328125 5.515625 27.984375 
Q 5.515625 40.671875 11.671875 48.328125 
Q 17.828125 56 27.875 56 
Q 33.9375 56 38.28125 53.609375 
Q 42.625 51.21875 45.40625 46.390625 
L 45.40625 54.6875 
L 54.390625 54.6875 
z
" id="DejaVuSans-103"/>
      <path d="M 50.984375 -16.609375 
L 50.984375 -23.578125 
L -0.984375 -23.578125 
L -0.984375 -16.609375 
z
" id="DejaVuSans-95"/>
      <path d="M 8.5 21.578125 
L 8.5 54.6875 
L 17.484375 54.6875 
L 17.484375 21.921875 
Q 17.484375 14.15625 20.5 10.265625 
Q 23.53125 6.390625 29.59375 6.390625 
Q 36.859375 6.390625 41.078125 11.03125 
Q 45.3125 15.671875 45.3125 23.6875 
L 45.3125 54.6875 
L 54.296875 54.6875 
L 54.296875 0 
L 45.3125 0 
L 45.3125 8.40625 
Q 42.046875 3.421875 37.71875 1 
Q 33.40625 -1.421875 27.6875 -1.421875 
Q 18.265625 -1.421875 13.375 4.4375 
Q 8.5 10.296875 8.5 21.578125 
z
M 31.109375 56 
z
" id="DejaVuSans-117"/>
      <path d="M 52 44.1875 
Q 55.375 50.25 60.0625 53.125 
Q 64.75 56 71.09375 56 
Q 79.640625 56 84.28125 50.015625 
Q 88.921875 44.046875 88.921875 33.015625 
L 88.921875 0 
L 79.890625 0 
L 79.890625 32.71875 
Q 79.890625 40.578125 77.09375 44.375 
Q 74.3125 48.1875 68.609375 48.1875 
Q 61.625 48.1875 57.5625 43.546875 
Q 53.515625 38.921875 53.515625 30.90625 
L 53.515625 0 
L 44.484375 0 
L 44.484375 32.71875 
Q 44.484375 40.625 41.703125 44.40625 
Q 38.921875 48.1875 33.109375 48.1875 
Q 26.21875 48.1875 22.15625 43.53125 
Q 18.109375 38.875 18.109375 30.90625 
L 18.109375 0 
L 9.078125 0 
L 9.078125 54.6875 
L 18.109375 54.6875 
L 18.109375 46.1875 
Q 21.1875 51.21875 25.484375 53.609375 
Q 29.78125 56 35.6875 56 
Q 41.65625 56 45.828125 52.96875 
Q 50 49.953125 52 44.1875 
z
" id="DejaVuSans-109"/>
      <path d="M 48.6875 27.296875 
Q 48.6875 37.203125 44.609375 42.84375 
Q 40.53125 48.484375 33.40625 48.484375 
Q 26.265625 48.484375 22.1875 42.84375 
Q 18.109375 37.203125 18.109375 27.296875 
Q 18.109375 17.390625 22.1875 11.75 
Q 26.265625 6.109375 33.40625 6.109375 
Q 40.53125 6.109375 44.609375 11.75 
Q 48.6875 17.390625 48.6875 27.296875 
z
M 18.109375 46.390625 
Q 20.953125 51.265625 25.265625 53.625 
Q 29.59375 56 35.59375 56 
Q 45.5625 56 51.78125 48.09375 
Q 58.015625 40.1875 58.015625 27.296875 
Q 58.015625 14.40625 51.78125 6.484375 
Q 45.5625 -1.421875 35.59375 -1.421875 
Q 29.59375 -1.421875 25.265625 0.953125 
Q 20.953125 3.328125 18.109375 8.203125 
L 18.109375 0 
L 9.078125 0 
L 9.078125 75.984375 
L 18.109375 75.984375 
z
" id="DejaVuSans-98"/>
     </defs>
     <use xlink:href="#DejaVuSans-116"/>
     <use x="39.208984" xlink:href="#DejaVuSans-97"/>
     <use x="100.488281" xlink:href="#DejaVuSans-114"/>
     <use x="139.851562" xlink:href="#DejaVuSans-103"/>
     <use x="203.328125" xlink:href="#DejaVuSans-101"/>
     <use x="264.851562" xlink:href="#DejaVuSans-116"/>
     <use x="304.060547" xlink:href="#DejaVuSans-95"/>
     <use x="354.060547" xlink:href="#DejaVuSans-110"/>
     <use x="417.439453" xlink:href="#DejaVuSans-117"/>
     <use x="480.818359" xlink:href="#DejaVuSans-109"/>
     <use x="578.230469" xlink:href="#DejaVuSans-98"/>
     <use x="641.707031" xlink:href="#DejaVuSans-101"/>
     <use x="703.230469" xlink:href="#DejaVuSans-114"/>
    </g>
   </g>
   <g id="patch_8">
    <path d="M 379.211562 175.559375 
L 399.211562 175.559375 
L 399.211562 168.559375 
L 379.211562 168.559375 
z
" style="fill:#3274a1;stroke:#3d3d3d;stroke-linejoin:miter;stroke-width:0.75;"/>
   </g>
   <g id="text_13">
    <!-- 1 -->
    <g transform="translate(407.211562 175.559375)scale(0.1 -0.1)">
     <use xlink:href="#DejaVuSans-49"/>
    </g>
   </g>
   <g id="patch_9">
    <path d="M 379.211562 190.2375 
L 399.211562 190.2375 
L 399.211562 183.2375 
L 379.211562 183.2375 
z
" style="fill:#e1812c;stroke:#3d3d3d;stroke-linejoin:miter;stroke-width:0.75;"/>
   </g>
   <g id="text_14">
    <!-- 2 -->
    <g transform="translate(407.211562 190.2375)scale(0.1 -0.1)">
     <use xlink:href="#DejaVuSans-50"/>
    </g>
   </g>
   <g id="patch_10">
    <path d="M 379.211562 204.915625 
L 399.211562 204.915625 
L 399.211562 197.915625 
L 379.211562 197.915625 
z
" style="fill:#3a923a;stroke:#3d3d3d;stroke-linejoin:miter;stroke-width:0.75;"/>
   </g>
   <g id="text_15">
    <!-- 3 -->
    <g transform="translate(407.211562 204.915625)scale(0.1 -0.1)">
     <use xlink:href="#DejaVuSans-51"/>
    </g>
   </g>
  </g>
 </g>
 <defs>
  <clipPath id="p96529075ed">
   <rect height="307.13875" width="288.936506" x="66.637394" y="10.8"/>
  </clipPath>
 </defs>
</svg>
