<?xml version="1.0" encoding="utf-8" standalone="no"?>
<!DOCTYPE svg PUBLIC "-//W3C//DTD SVG 1.1//EN"
  "http://www.w3.org/Graphics/SVG/1.1/DTD/svg11.dtd">
<!-- Created with matplotlib (https://matplotlib.org/) -->
<svg height="360pt" version="1.1" viewBox="0 0 442.61 360" width="442.61pt" xmlns="http://www.w3.org/2000/svg" xmlns:xlink="http://www.w3.org/1999/xlink">
 <metadata>
  <rdf:RDF xmlns:cc="http://creativecommons.org/ns#" xmlns:dc="http://purl.org/dc/elements/1.1/" xmlns:rdf="http://www.w3.org/1999/02/22-rdf-syntax-ns#">
   <cc:Work>
    <dc:type rdf:resource="http://purl.org/dc/dcmitype/StillImage"/>
    <dc:date>2023-11-13T22:51:56.620697</dc:date>
    <dc:format>image/svg+xml</dc:format>
    <dc:creator>
     <cc:Agent>
      <dc:title>Matplotlib v3.3.4, https://matplotlib.org/</dc:title>
     </cc:Agent>
    </dc:creator>
   </cc:Work>
  </rdf:RDF>
 </metadata>
 <defs>
  <style type="text/css">*{stroke-linecap:butt;stroke-linejoin:round;}</style>
 </defs>
 <g id="figure_1">
  <g id="patch_1">
   <path d="M 0 360 
L 442.61 360 
L 442.61 0 
L 0 0 
z
" style="fill:#ffffff;"/>
  </g>
  <g id="axes_1">
   <g id="patch_2">
    <path d="M 65.198912 317.93875 
L 355.5739 317.93875 
L 355.5739 10.8 
L 65.198912 10.8 
z
" style="fill:#ffffff;"/>
   </g>
   <g id="PolyCollection_1">
    <defs>
     <path d="M 87.784361 -56.022102 
L 87.782905 -56.022102 
L 87.781886 -58.550072 
L 87.780348 -61.078043 
L 87.778756 -63.606013 
L 87.777778 -66.133983 
L 87.777605 -68.661953 
L 87.777731 -71.189923 
L 87.77766 -73.717894 
L 87.77762 -76.245864 
L 87.778212 -78.773834 
L 87.779469 -81.301804 
L 87.780572 -83.829774 
L 87.780384 -86.357744 
L 87.778098 -88.885715 
L 87.773736 -91.413685 
L 87.768396 -93.941655 
L 87.763779 -96.469625 
L 87.761079 -98.997595 
L 87.760346 -101.525566 
L 87.760879 -104.053536 
L 87.761895 -106.581506 
L 87.762873 -109.109476 
L 87.763592 -111.637446 
L 87.76371 -114.165416 
L 87.762254 -116.693387 
L 87.758011 -119.221357 
L 87.750732 -121.749327 
L 87.741861 -124.277297 
L 87.733977 -126.805267 
L 87.729285 -129.333237 
L 87.728094 -131.861208 
L 87.728289 -134.389178 
L 87.726048 -136.917148 
L 87.717687 -139.445118 
L 87.702325 -141.973088 
L 87.683335 -144.501059 
L 87.666074 -147.029029 
L 87.653242 -149.556999 
L 87.642493 -152.084969 
L 87.628506 -154.612939 
L 87.607116 -157.140909 
L 87.577662 -159.66888 
L 87.542098 -162.19685 
L 87.503309 -164.72482 
L 87.465557 -167.25279 
L 87.435709 -169.78076 
L 87.421959 -172.308731 
L 87.430489 -174.836701 
L 87.462753 -177.364671 
L 87.513994 -179.892641 
L 87.573631 -182.420611 
L 87.629349 -184.948581 
L 87.672875 -187.476552 
L 87.702369 -190.004522 
L 87.720419 -192.532492 
L 87.730764 -195.060462 
L 87.735721 -197.588432 
L 87.735036 -200.116403 
L 87.727225 -202.644373 
L 87.712325 -205.172343 
L 87.692931 -207.700313 
L 87.672535 -210.228283 
L 87.653018 -212.756253 
L 87.633061 -215.284224 
L 87.60899 -217.812194 
L 87.578217 -220.340164 
L 87.541276 -222.868134 
L 87.498606 -225.396104 
L 87.445591 -227.924074 
L 87.372846 -230.452045 
L 87.272011 -232.980015 
L 87.139433 -235.507985 
L 86.973368 -238.035955 
L 86.770907 -240.563925 
L 86.529149 -243.091896 
L 86.242246 -245.619866 
L 85.892737 -248.147836 
L 85.457101 -250.675806 
L 84.932381 -253.203776 
L 84.349113 -255.731746 
L 83.739772 -258.259717 
L 83.092569 -260.787687 
L 82.352175 -263.315657 
L 81.482543 -265.843627 
L 80.540781 -268.371597 
L 79.697726 -270.899568 
L 79.182454 -273.427538 
L 79.17993 -275.955508 
L 79.740854 -278.483478 
L 80.758966 -281.011448 
L 82.028258 -283.539418 
L 83.337187 -286.067389 
L 84.539283 -288.595359 
L 85.565935 -291.123329 
L 86.39245 -293.651299 
L 87.005652 -296.179269 
L 87.407027 -298.70724 
L 87.629557 -301.23521 
L 87.731254 -303.76318 
L 87.768999 -306.29115 
L 87.798268 -306.29115 
L 87.798268 -306.29115 
L 87.836013 -303.76318 
L 87.93771 -301.23521 
L 88.160239 -298.70724 
L 88.561615 -296.179269 
L 89.174816 -293.651299 
L 90.001332 -291.123329 
L 91.027983 -288.595359 
L 92.230079 -286.067389 
L 93.539009 -283.539418 
L 94.808301 -281.011448 
L 95.826413 -278.483478 
L 96.387337 -275.955508 
L 96.384812 -273.427538 
L 95.869541 -270.899568 
L 95.026486 -268.371597 
L 94.084723 -265.843627 
L 93.215091 -263.315657 
L 92.474697 -260.787687 
L 91.827494 -258.259717 
L 91.218153 -255.731746 
L 90.634886 -253.203776 
L 90.110165 -250.675806 
L 89.67453 -248.147836 
L 89.32502 -245.619866 
L 89.038117 -243.091896 
L 88.796359 -240.563925 
L 88.593899 -238.035955 
L 88.427833 -235.507985 
L 88.295256 -232.980015 
L 88.19442 -230.452045 
L 88.121675 -227.924074 
L 88.06866 -225.396104 
L 88.025991 -222.868134 
L 87.98905 -220.340164 
L 87.958277 -217.812194 
L 87.934205 -215.284224 
L 87.914249 -212.756253 
L 87.894731 -210.228283 
L 87.874335 -207.700313 
L 87.854942 -205.172343 
L 87.840041 -202.644373 
L 87.83223 -200.116403 
L 87.831546 -197.588432 
L 87.836502 -195.060462 
L 87.846848 -192.532492 
L 87.864897 -190.004522 
L 87.894391 -187.476552 
L 87.937918 -184.948581 
L 87.993636 -182.420611 
L 88.053273 -179.892641 
L 88.104513 -177.364671 
L 88.136778 -174.836701 
L 88.145307 -172.308731 
L 88.131558 -169.78076 
L 88.101709 -167.25279 
L 88.063957 -164.72482 
L 88.025169 -162.19685 
L 87.989604 -159.66888 
L 87.960151 -157.140909 
L 87.938761 -154.612939 
L 87.924773 -152.084969 
L 87.914024 -149.556999 
L 87.901192 -147.029029 
L 87.883931 -144.501059 
L 87.864941 -141.973088 
L 87.84958 -139.445118 
L 87.841218 -136.917148 
L 87.838978 -134.389178 
L 87.839173 -131.861208 
L 87.837981 -129.333237 
L 87.83329 -126.805267 
L 87.825406 -124.277297 
L 87.816534 -121.749327 
L 87.809256 -119.221357 
L 87.805012 -116.693387 
L 87.803557 -114.165416 
L 87.803675 -111.637446 
L 87.804394 -109.109476 
L 87.805371 -106.581506 
L 87.806387 -104.053536 
L 87.806921 -101.525566 
L 87.806187 -98.997595 
L 87.803487 -96.469625 
L 87.798871 -93.941655 
L 87.79353 -91.413685 
L 87.789168 -88.885715 
L 87.786883 -86.357744 
L 87.786695 -83.829774 
L 87.787797 -81.301804 
L 87.789054 -78.773834 
L 87.789646 -76.245864 
L 87.789607 -73.717894 
L 87.789535 -71.189923 
L 87.789661 -68.661953 
L 87.789489 -66.133983 
L 87.78851 -63.606013 
L 87.786918 -61.078043 
L 87.785381 -58.550072 
L 87.784361 -56.022102 
z
" id="mda40be4a14" style="stroke:#3d3d3d;stroke-width:1.5;"/>
    </defs>
    <g clip-path="url(#p955645599f)">
     <use style="fill:#3274a1;stroke:#3d3d3d;stroke-width:1.5;" x="0" xlink:href="#mda40be4a14" y="360"/>
    </g>
   </g>
   <g id="PolyCollection_2">
    <defs>
     <path d="M 113.596452 -164.80006 
L 113.593034 -164.80006 
L 113.589282 -165.894193 
L 113.582987 -166.988327 
L 113.576864 -168.08246 
L 113.574262 -169.176594 
L 113.575644 -170.270727 
L 113.578231 -171.36486 
L 113.579555 -172.458994 
L 113.581259 -173.553127 
L 113.585233 -174.647261 
L 113.588649 -175.741394 
L 113.587882 -176.835527 
L 113.583954 -177.929661 
L 113.581322 -179.023794 
L 113.581419 -180.117928 
L 113.581423 -181.212061 
L 113.581175 -182.306195 
L 113.583194 -183.400328 
L 113.585671 -184.494461 
L 113.584375 -185.588595 
L 113.579695 -186.682728 
L 113.575473 -187.776862 
L 113.573187 -188.870995 
L 113.57133 -189.965128 
L 113.567938 -191.059262 
L 113.562282 -192.153395 
L 113.555448 -193.247529 
L 113.551013 -194.341662 
L 113.554623 -195.435795 
L 113.566679 -196.529929 
L 113.578464 -197.624062 
L 113.582344 -198.718196 
L 113.580021 -199.812329 
L 113.576272 -200.906462 
L 113.570426 -202.000596 
L 113.559193 -203.094729 
L 113.543795 -204.188863 
L 113.529286 -205.282996 
L 113.516079 -206.377129 
L 113.494782 -207.471263 
L 113.457122 -208.565396 
L 113.409489 -209.65953 
L 113.363521 -210.753663 
L 113.317227 -211.847796 
L 113.251203 -212.94193 
L 113.140151 -214.036063 
L 112.984695 -215.130197 
L 112.826348 -216.22433 
L 112.695347 -217.318463 
L 112.559843 -218.412597 
L 112.360455 -219.50673 
L 112.066237 -220.600864 
L 111.667581 -221.694997 
L 111.149862 -222.78913 
L 110.513663 -223.883264 
L 109.803675 -224.977397 
L 109.067052 -226.071531 
L 108.296752 -227.165664 
L 107.466187 -228.259797 
L 106.579146 -229.353931 
L 105.673253 -230.448064 
L 104.856921 -231.542198 
L 104.277508 -232.636331 
L 103.907449 -233.730464 
L 103.505875 -234.824598 
L 102.934167 -235.918731 
L 102.306445 -237.012865 
L 101.755313 -238.106998 
L 101.296652 -239.201131 
L 100.945027 -240.295265 
L 100.740951 -241.389398 
L 100.689188 -242.483532 
L 100.78616 -243.577665 
L 101.033126 -244.671798 
L 101.410053 -245.765932 
L 101.943442 -246.860065 
L 102.741603 -247.954199 
L 103.888403 -249.048332 
L 105.332823 -250.142465 
L 106.875789 -251.236599 
L 108.284447 -252.330732 
L 109.450031 -253.424866 
L 110.395294 -254.518999 
L 111.148887 -255.613132 
L 111.729785 -256.707266 
L 112.211046 -257.801399 
L 112.655626 -258.895533 
L 113.033559 -259.989666 
L 113.283202 -261.083799 
L 113.401205 -262.177933 
L 113.445071 -263.272066 
L 113.474761 -264.3662 
L 113.508621 -265.460333 
L 113.538314 -266.554466 
L 113.55859 -267.6486 
L 113.570431 -268.742733 
L 113.577438 -269.836867 
L 113.583694 -270.931 
L 113.589509 -272.025133 
L 113.593073 -273.119267 
L 113.596413 -273.119267 
L 113.596413 -273.119267 
L 113.599977 -272.025133 
L 113.605792 -270.931 
L 113.612048 -269.836867 
L 113.619056 -268.742733 
L 113.630897 -267.6486 
L 113.651172 -266.554466 
L 113.680866 -265.460333 
L 113.714725 -264.3662 
L 113.744415 -263.272066 
L 113.788282 -262.177933 
L 113.906285 -261.083799 
L 114.155927 -259.989666 
L 114.533861 -258.895533 
L 114.97844 -257.801399 
L 115.459701 -256.707266 
L 116.040599 -255.613132 
L 116.794193 -254.518999 
L 117.739456 -253.424866 
L 118.905039 -252.330732 
L 120.313698 -251.236599 
L 121.856664 -250.142465 
L 123.301084 -249.048332 
L 124.447883 -247.954199 
L 125.246045 -246.860065 
L 125.779434 -245.765932 
L 126.15636 -244.671798 
L 126.403327 -243.577665 
L 126.500298 -242.483532 
L 126.448535 -241.389398 
L 126.244459 -240.295265 
L 125.892834 -239.201131 
L 125.434174 -238.106998 
L 124.883041 -237.012865 
L 124.25532 -235.918731 
L 123.683612 -234.824598 
L 123.282038 -233.730464 
L 122.911979 -232.636331 
L 122.332565 -231.542198 
L 121.516233 -230.448064 
L 120.61034 -229.353931 
L 119.7233 -228.259797 
L 118.892735 -227.165664 
L 118.122435 -226.071531 
L 117.385812 -224.977397 
L 116.675823 -223.883264 
L 116.039625 -222.78913 
L 115.521906 -221.694997 
L 115.123249 -220.600864 
L 114.829032 -219.50673 
L 114.629644 -218.412597 
L 114.49414 -217.318463 
L 114.363139 -216.22433 
L 114.204792 -215.130197 
L 114.049336 -214.036063 
L 113.938283 -212.94193 
L 113.872259 -211.847796 
L 113.825966 -210.753663 
L 113.779998 -209.65953 
L 113.732365 -208.565396 
L 113.694704 -207.471263 
L 113.673407 -206.377129 
L 113.660201 -205.282996 
L 113.645691 -204.188863 
L 113.630293 -203.094729 
L 113.61906 -202.000596 
L 113.613215 -200.906462 
L 113.609466 -199.812329 
L 113.607142 -198.718196 
L 113.611023 -197.624062 
L 113.622807 -196.529929 
L 113.634864 -195.435795 
L 113.638473 -194.341662 
L 113.634038 -193.247529 
L 113.627204 -192.153395 
L 113.621549 -191.059262 
L 113.618157 -189.965128 
L 113.616299 -188.870995 
L 113.614014 -187.776862 
L 113.609792 -186.682728 
L 113.605112 -185.588595 
L 113.603815 -184.494461 
L 113.606292 -183.400328 
L 113.608311 -182.306195 
L 113.608064 -181.212061 
L 113.608067 -180.117928 
L 113.608164 -179.023794 
L 113.605532 -177.929661 
L 113.601604 -176.835527 
L 113.600838 -175.741394 
L 113.604253 -174.647261 
L 113.608227 -173.553127 
L 113.609932 -172.458994 
L 113.611255 -171.36486 
L 113.613843 -170.270727 
L 113.615225 -169.176594 
L 113.612623 -168.08246 
L 113.6065 -166.988327 
L 113.600205 -165.894193 
L 113.596452 -164.80006 
z
" id="m5a9f7b9c22" style="stroke:#3d3d3d;stroke-width:1.5;"/>
    </defs>
    <g clip-path="url(#p955645599f)">
     <use style="fill:#e1812c;stroke:#3d3d3d;stroke-width:1.5;" x="0" xlink:href="#m5a9f7b9c22" y="360"/>
    </g>
   </g>
   <g id="PolyCollection_3">
    <defs>
     <path d="M 139.407294 -169.647971 
L 139.404413 -169.647971 
L 139.402146 -170.65782 
L 139.39878 -171.667669 
L 139.39583 -172.677518 
L 139.395195 -173.687367 
L 139.396923 -174.697216 
L 139.398749 -175.707065 
L 139.398486 -176.716914 
L 139.396445 -177.726763 
L 139.395091 -178.736612 
L 139.396319 -179.746461 
L 139.399539 -180.75631 
L 139.402748 -181.766159 
L 139.404708 -182.776007 
L 139.405455 -183.785856 
L 139.405361 -184.795705 
L 139.404359 -185.805554 
L 139.402061 -186.815403 
L 139.398674 -187.825252 
L 139.395731 -188.835101 
L 139.39504 -189.84495 
L 139.396459 -190.854799 
L 139.397696 -191.864648 
L 139.396997 -192.874497 
L 139.395344 -193.884346 
L 139.395218 -194.894195 
L 139.397584 -195.904044 
L 139.401009 -196.913893 
L 139.403522 -197.923742 
L 139.404103 -198.933591 
L 139.402265 -199.94344 
L 139.397461 -200.953289 
L 139.389834 -201.963138 
L 139.381451 -202.972987 
L 139.375806 -203.982836 
L 139.374821 -204.992685 
L 139.37609 -206.002534 
L 139.374248 -207.012383 
L 139.365293 -208.022232 
L 139.348369 -209.032081 
L 139.324317 -210.04193 
L 139.294681 -211.051779 
L 139.260195 -212.061628 
L 139.216677 -213.071477 
L 139.15595 -214.081326 
L 139.077272 -215.091175 
L 138.995427 -216.101024 
L 138.929801 -217.110873 
L 138.883548 -218.120722 
L 138.835635 -219.130571 
L 138.752058 -220.14042 
L 138.603624 -221.150269 
L 138.379083 -222.160118 
L 138.088593 -223.169967 
L 137.755334 -224.179815 
L 137.40145 -225.189664 
L 137.039706 -226.199513 
L 136.674144 -227.209362 
L 136.303317 -228.219211 
L 135.923561 -229.22906 
L 135.537607 -230.238909 
L 135.16656 -231.248758 
L 134.846674 -232.258607 
L 134.598566 -233.268456 
L 134.400021 -234.278305 
L 134.210834 -235.288154 
L 134.022451 -236.298003 
L 133.84899 -237.307852 
L 133.675739 -238.317701 
L 133.469193 -239.32755 
L 133.24073 -240.337399 
L 133.051645 -241.347248 
L 132.953076 -242.357097 
L 132.956623 -243.366946 
L 133.056279 -244.376795 
L 133.247475 -245.386644 
L 133.527621 -246.396493 
L 133.897748 -247.406342 
L 134.364985 -248.416191 
L 134.932755 -249.42604 
L 135.581023 -250.435889 
L 136.256876 -251.445738 
L 136.893252 -252.455587 
L 137.441771 -253.465436 
L 137.884202 -254.475285 
L 138.222717 -255.485134 
L 138.478299 -256.494983 
L 138.689557 -257.504832 
L 138.886577 -258.514681 
L 139.064745 -259.52453 
L 139.198416 -260.534379 
L 139.276036 -261.544228 
L 139.312158 -262.554077 
L 139.331258 -263.563926 
L 139.348838 -264.573775 
L 139.367251 -265.583623 
L 139.383168 -266.593472 
L 139.394385 -267.603321 
L 139.400987 -268.61317 
L 139.404182 -269.623019 
L 139.407525 -269.623019 
L 139.407525 -269.623019 
L 139.41072 -268.61317 
L 139.417321 -267.603321 
L 139.428539 -266.593472 
L 139.444456 -265.583623 
L 139.462868 -264.573775 
L 139.480448 -263.563926 
L 139.499548 -262.554077 
L 139.53567 -261.544228 
L 139.61329 -260.534379 
L 139.746962 -259.52453 
L 139.925129 -258.514681 
L 140.12215 -257.504832 
L 140.333408 -256.494983 
L 140.588989 -255.485134 
L 140.927505 -254.475285 
L 141.369936 -253.465436 
L 141.918455 -252.455587 
L 142.55483 -251.445738 
L 143.230684 -250.435889 
L 143.878952 -249.42604 
L 144.446721 -248.416191 
L 144.913959 -247.406342 
L 145.284085 -246.396493 
L 145.564232 -245.386644 
L 145.755428 -244.376795 
L 145.855084 -243.366946 
L 145.858631 -242.357097 
L 145.760062 -241.347248 
L 145.570977 -240.337399 
L 145.342513 -239.32755 
L 145.135968 -238.317701 
L 144.962717 -237.307852 
L 144.789256 -236.298003 
L 144.600873 -235.288154 
L 144.411686 -234.278305 
L 144.213141 -233.268456 
L 143.965033 -232.258607 
L 143.645146 -231.248758 
L 143.274099 -230.238909 
L 142.888146 -229.22906 
L 142.50839 -228.219211 
L 142.137563 -227.209362 
L 141.772001 -226.199513 
L 141.410257 -225.189664 
L 141.056373 -224.179815 
L 140.723114 -223.169967 
L 140.432623 -222.160118 
L 140.208083 -221.150269 
L 140.059649 -220.14042 
L 139.976072 -219.130571 
L 139.928158 -218.120722 
L 139.881905 -217.110873 
L 139.81628 -216.101024 
L 139.734435 -215.091175 
L 139.655757 -214.081326 
L 139.59503 -213.071477 
L 139.551512 -212.061628 
L 139.517026 -211.051779 
L 139.48739 -210.04193 
L 139.463337 -209.032081 
L 139.446414 -208.022232 
L 139.437459 -207.012383 
L 139.435617 -206.002534 
L 139.436885 -204.992685 
L 139.435901 -203.982836 
L 139.430256 -202.972987 
L 139.421872 -201.963138 
L 139.414245 -200.953289 
L 139.409441 -199.94344 
L 139.407604 -198.933591 
L 139.408184 -197.923742 
L 139.410697 -196.913893 
L 139.414123 -195.904044 
L 139.416489 -194.894195 
L 139.416362 -193.884346 
L 139.41471 -192.874497 
L 139.414011 -191.864648 
L 139.415247 -190.854799 
L 139.416667 -189.84495 
L 139.415976 -188.835101 
L 139.413033 -187.825252 
L 139.409646 -186.815403 
L 139.407348 -185.805554 
L 139.406346 -184.795705 
L 139.406251 -183.785856 
L 139.406999 -182.776007 
L 139.408959 -181.766159 
L 139.412168 -180.75631 
L 139.415388 -179.746461 
L 139.416616 -178.736612 
L 139.415261 -177.726763 
L 139.41322 -176.716914 
L 139.412958 -175.707065 
L 139.414784 -174.697216 
L 139.416512 -173.687367 
L 139.415877 -172.677518 
L 139.412927 -171.667669 
L 139.409561 -170.65782 
L 139.407294 -169.647971 
z
" id="m64acbac5bb" style="stroke:#3d3d3d;stroke-width:1.5;"/>
    </defs>
    <g clip-path="url(#p955645599f)">
     <use style="fill:#3a923a;stroke:#3d3d3d;stroke-width:1.5;" x="0" xlink:href="#m64acbac5bb" y="360"/>
    </g>
   </g>
   <g id="PolyCollection_4">
    <defs>
     <path d="M 184.576516 -134.893823 
L 184.574076 -134.893823 
L 184.572379 -136.917513 
L 184.569431 -138.941203 
L 184.565293 -140.964893 
L 184.560645 -142.988583 
L 184.556595 -145.012273 
L 184.55414 -147.035964 
L 184.55373 -149.059654 
L 184.555191 -151.083344 
L 184.557889 -153.107034 
L 184.560918 -155.130724 
L 184.563407 -157.154414 
L 184.564985 -159.178105 
L 184.566012 -161.201795 
L 184.567144 -163.225485 
L 184.568556 -165.249175 
L 184.569626 -167.272865 
L 184.569389 -169.296555 
L 184.567293 -171.320245 
L 184.563598 -173.343936 
L 184.559128 -175.367626 
L 184.554591 -177.391316 
L 184.550045 -179.415006 
L 184.545112 -181.438696 
L 184.539762 -183.462386 
L 184.534713 -185.486077 
L 184.530712 -187.509767 
L 184.527329 -189.533457 
L 184.522827 -191.557147 
L 184.5155 -193.580837 
L 184.504565 -195.604527 
L 184.488468 -197.628217 
L 184.461353 -199.651908 
L 184.410639 -201.675598 
L 184.318265 -203.699288 
L 184.167809 -205.722978 
L 183.95896 -207.746668 
L 183.72351 -209.770358 
L 183.52652 -211.794048 
L 183.440055 -213.817739 
L 183.501456 -215.841429 
L 183.688849 -217.865119 
L 183.935168 -219.888809 
L 184.167861 -221.912499 
L 184.342341 -223.936189 
L 184.449839 -225.95988 
L 184.504642 -227.98357 
L 184.526789 -230.00726 
L 184.531397 -232.03095 
L 184.526477 -234.05464 
L 184.515731 -236.07833 
L 184.501874 -238.10202 
L 184.487356 -240.125711 
L 184.472441 -242.149401 
L 184.453854 -244.173091 
L 184.426881 -246.196781 
L 184.389279 -248.220471 
L 184.342111 -250.244161 
L 184.285975 -252.267852 
L 184.217175 -254.291542 
L 184.128731 -256.315232 
L 184.014695 -258.338922 
L 183.871609 -260.362612 
L 183.69471 -262.386302 
L 183.474832 -264.409992 
L 183.203289 -266.433683 
L 182.881477 -268.457373 
L 182.52226 -270.481063 
L 182.13779 -272.504753 
L 181.726074 -274.528443 
L 181.272476 -276.552133 
L 180.766499 -278.575823 
L 180.217737 -280.599514 
L 179.654384 -282.623204 
L 179.103321 -284.646894 
L 178.570843 -286.670584 
L 178.046668 -288.694274 
L 177.529208 -290.717964 
L 177.042453 -292.741655 
L 176.62351 -294.765345 
L 176.297773 -296.789035 
L 176.074935 -298.812725 
L 175.971593 -300.836415 
L 176.031248 -302.860105 
L 176.312118 -304.883795 
L 176.846391 -306.907486 
L 177.605782 -308.931176 
L 178.505133 -310.954866 
L 179.442476 -312.978556 
L 180.344427 -315.002246 
L 181.184522 -317.025936 
L 181.965159 -319.049627 
L 182.683026 -321.073317 
L 183.310887 -323.097007 
L 183.81092 -325.120697 
L 184.162806 -327.144387 
L 184.378266 -329.168077 
L 184.49241 -331.191767 
L 184.544697 -333.215458 
L 184.565422 -335.239148 
L 184.585169 -335.239148 
L 184.585169 -335.239148 
L 184.605895 -333.215458 
L 184.658182 -331.191767 
L 184.772326 -329.168077 
L 184.987786 -327.144387 
L 185.339672 -325.120697 
L 185.839705 -323.097007 
L 186.467565 -321.073317 
L 187.185433 -319.049627 
L 187.966069 -317.025936 
L 188.806165 -315.002246 
L 189.708116 -312.978556 
L 190.645459 -310.954866 
L 191.54481 -308.931176 
L 192.3042 -306.907486 
L 192.838474 -304.883795 
L 193.119344 -302.860105 
L 193.178999 -300.836415 
L 193.075657 -298.812725 
L 192.852819 -296.789035 
L 192.527082 -294.765345 
L 192.108139 -292.741655 
L 191.621384 -290.717964 
L 191.103923 -288.694274 
L 190.579749 -286.670584 
L 190.047271 -284.646894 
L 189.496208 -282.623204 
L 188.932855 -280.599514 
L 188.384093 -278.575823 
L 187.878116 -276.552133 
L 187.424517 -274.528443 
L 187.012802 -272.504753 
L 186.628332 -270.481063 
L 186.269115 -268.457373 
L 185.947303 -266.433683 
L 185.67576 -264.409992 
L 185.455882 -262.386302 
L 185.278983 -260.362612 
L 185.135897 -258.338922 
L 185.02186 -256.315232 
L 184.933417 -254.291542 
L 184.864617 -252.267852 
L 184.808481 -250.244161 
L 184.761313 -248.220471 
L 184.72371 -246.196781 
L 184.696738 -244.173091 
L 184.678151 -242.149401 
L 184.663236 -240.125711 
L 184.648718 -238.10202 
L 184.634861 -236.07833 
L 184.624114 -234.05464 
L 184.619195 -232.03095 
L 184.623803 -230.00726 
L 184.64595 -227.98357 
L 184.700753 -225.95988 
L 184.808251 -223.936189 
L 184.98273 -221.912499 
L 185.215424 -219.888809 
L 185.461743 -217.865119 
L 185.649136 -215.841429 
L 185.710537 -213.817739 
L 185.624072 -211.794048 
L 185.427082 -209.770358 
L 185.191632 -207.746668 
L 184.982783 -205.722978 
L 184.832327 -203.699288 
L 184.739953 -201.675598 
L 184.689239 -199.651908 
L 184.662124 -197.628217 
L 184.646027 -195.604527 
L 184.635092 -193.580837 
L 184.627765 -191.557147 
L 184.623263 -189.533457 
L 184.61988 -187.509767 
L 184.615879 -185.486077 
L 184.610829 -183.462386 
L 184.60548 -181.438696 
L 184.600547 -179.415006 
L 184.596001 -177.391316 
L 184.591463 -175.367626 
L 184.586994 -173.343936 
L 184.583298 -171.320245 
L 184.581203 -169.296555 
L 184.580966 -167.272865 
L 184.582035 -165.249175 
L 184.583448 -163.225485 
L 184.58458 -161.201795 
L 184.585607 -159.178105 
L 184.587185 -157.154414 
L 184.589673 -155.130724 
L 184.592703 -153.107034 
L 184.595401 -151.083344 
L 184.596862 -149.059654 
L 184.596452 -147.035964 
L 184.593997 -145.012273 
L 184.589947 -142.988583 
L 184.585299 -140.964893 
L 184.58116 -138.941203 
L 184.578213 -136.917513 
L 184.576516 -134.893823 
z
" id="me2f231eede" style="stroke:#3d3d3d;stroke-width:1.5;"/>
    </defs>
    <g clip-path="url(#p955645599f)">
     <use style="fill:#3274a1;stroke:#3d3d3d;stroke-width:1.5;" x="0" xlink:href="#me2f231eede" y="360"/>
    </g>
   </g>
   <g id="PolyCollection_5">
    <defs>
     <path d="M 210.387806 -117.815268 
L 210.385006 -117.815268 
L 210.380841 -119.408164 
L 210.376324 -121.00106 
L 210.378082 -122.593955 
L 210.383274 -124.186851 
L 210.385869 -125.779746 
L 210.386364 -127.372642 
L 210.386404 -128.965538 
L 210.386406 -130.558433 
L 210.386391 -132.151329 
L 210.386159 -133.744225 
L 210.384515 -135.33712 
L 210.37964 -136.930016 
L 210.374158 -138.522912 
L 210.371878 -140.115807 
L 210.370481 -141.708703 
L 210.370257 -143.301599 
L 210.373715 -144.894494 
L 210.379084 -146.48739 
L 210.379372 -148.080286 
L 210.376143 -149.673181 
L 210.3781 -151.266077 
L 210.382942 -152.858973 
L 210.383386 -154.451868 
L 210.378853 -156.044764 
L 210.376091 -157.63766 
L 210.379803 -159.230555 
L 210.382925 -160.823451 
L 210.37759 -162.416347 
L 210.362857 -164.009242 
L 210.350848 -165.602138 
L 210.355118 -167.195034 
L 210.364625 -168.787929 
L 210.361378 -170.380825 
L 210.355189 -171.973721 
L 210.360069 -173.566616 
L 210.36593 -175.159512 
L 210.36432 -176.752408 
L 210.357795 -178.345303 
L 210.355319 -179.938199 
L 210.355212 -181.531095 
L 210.342263 -183.12399 
L 210.324992 -184.716886 
L 210.324759 -186.309782 
L 210.33828 -187.902677 
L 210.349068 -189.495573 
L 210.34615 -191.088468 
L 210.331081 -192.681364 
L 210.316961 -194.27426 
L 210.310491 -195.867155 
L 210.305717 -197.460051 
L 210.305963 -199.052947 
L 210.301867 -200.645842 
L 210.290885 -202.238738 
L 210.281827 -203.831634 
L 210.262734 -205.424529 
L 210.238846 -207.017425 
L 210.231884 -208.610321 
L 210.219497 -210.203216 
L 210.178375 -211.796112 
L 210.136455 -213.389008 
L 210.108303 -214.981903 
L 210.047676 -216.574799 
L 209.920505 -218.167695 
L 209.769178 -219.76059 
L 209.599404 -221.353486 
L 209.281082 -222.946382 
L 208.716063 -224.539277 
L 207.967633 -226.132173 
L 207.088532 -227.725069 
L 206.050466 -229.317964 
L 204.893383 -230.91086 
L 203.680551 -232.503756 
L 202.445431 -234.096651 
L 201.277646 -235.689547 
L 200.213429 -237.282443 
L 199.273528 -238.875338 
L 198.4539 -240.468234 
L 197.824919 -242.06113 
L 197.525677 -243.654025 
L 197.480851 -245.246921 
L 197.816329 -246.839817 
L 198.832394 -248.432712 
L 200.545395 -250.025608 
L 202.52168 -251.618503 
L 204.374127 -253.211399 
L 206.031358 -254.804295 
L 207.391464 -256.39719 
L 208.399447 -257.990086 
L 209.115312 -259.582982 
L 209.583118 -261.175877 
L 209.889008 -262.768773 
L 210.113125 -264.361669 
L 210.246465 -265.954564 
L 210.301183 -267.54746 
L 210.328822 -269.140356 
L 210.339403 -270.733251 
L 210.34979 -272.326147 
L 210.369641 -273.919043 
L 210.382627 -275.511938 
L 210.390185 -275.511938 
L 210.390185 -275.511938 
L 210.403171 -273.919043 
L 210.423022 -272.326147 
L 210.433409 -270.733251 
L 210.44399 -269.140356 
L 210.471628 -267.54746 
L 210.526347 -265.954564 
L 210.659687 -264.361669 
L 210.883804 -262.768773 
L 211.189694 -261.175877 
L 211.6575 -259.582982 
L 212.373365 -257.990086 
L 213.381348 -256.39719 
L 214.741454 -254.804295 
L 216.398685 -253.211399 
L 218.251132 -251.618503 
L 220.227417 -250.025608 
L 221.940418 -248.432712 
L 222.956483 -246.839817 
L 223.291961 -245.246921 
L 223.247135 -243.654025 
L 222.947892 -242.06113 
L 222.318912 -240.468234 
L 221.499283 -238.875338 
L 220.559383 -237.282443 
L 219.495166 -235.689547 
L 218.327381 -234.096651 
L 217.092261 -232.503756 
L 215.879429 -230.91086 
L 214.722346 -229.317964 
L 213.68428 -227.725069 
L 212.805179 -226.132173 
L 212.056749 -224.539277 
L 211.49173 -222.946382 
L 211.173408 -221.353486 
L 211.003633 -219.76059 
L 210.852306 -218.167695 
L 210.725136 -216.574799 
L 210.664509 -214.981903 
L 210.636357 -213.389008 
L 210.594437 -211.796112 
L 210.553315 -210.203216 
L 210.540928 -208.610321 
L 210.533966 -207.017425 
L 210.510078 -205.424529 
L 210.490985 -203.831634 
L 210.481927 -202.238738 
L 210.470945 -200.645842 
L 210.466849 -199.052947 
L 210.467095 -197.460051 
L 210.462321 -195.867155 
L 210.455851 -194.27426 
L 210.441731 -192.681364 
L 210.426662 -191.088468 
L 210.423744 -189.495573 
L 210.434532 -187.902677 
L 210.448053 -186.309782 
L 210.44782 -184.716886 
L 210.430549 -183.12399 
L 210.4176 -181.531095 
L 210.417493 -179.938199 
L 210.415017 -178.345303 
L 210.408492 -176.752408 
L 210.406882 -175.159512 
L 210.412743 -173.566616 
L 210.417623 -171.973721 
L 210.411434 -170.380825 
L 210.408187 -168.787929 
L 210.417694 -167.195034 
L 210.421964 -165.602138 
L 210.409955 -164.009242 
L 210.395222 -162.416347 
L 210.389887 -160.823451 
L 210.393009 -159.230555 
L 210.396721 -157.63766 
L 210.393959 -156.044764 
L 210.389426 -154.451868 
L 210.38987 -152.858973 
L 210.394712 -151.266077 
L 210.396669 -149.673181 
L 210.39344 -148.080286 
L 210.393728 -146.48739 
L 210.399097 -144.894494 
L 210.402555 -143.301599 
L 210.402331 -141.708703 
L 210.400934 -140.115807 
L 210.398654 -138.522912 
L 210.393172 -136.930016 
L 210.388297 -135.33712 
L 210.386652 -133.744225 
L 210.386421 -132.151329 
L 210.386406 -130.558433 
L 210.386407 -128.965538 
L 210.386448 -127.372642 
L 210.386943 -125.779746 
L 210.389538 -124.186851 
L 210.39473 -122.593955 
L 210.396488 -121.00106 
L 210.391971 -119.408164 
L 210.387806 -117.815268 
z
" id="ma9bb883050" style="stroke:#3d3d3d;stroke-width:1.5;"/>
    </defs>
    <g clip-path="url(#p955645599f)">
     <use style="fill:#e1812c;stroke:#3d3d3d;stroke-width:1.5;" x="0" xlink:href="#ma9bb883050" y="360"/>
    </g>
   </g>
   <g id="PolyCollection_6">
    <defs>
     <path d="M 236.198777 -117.3946 
L 236.196255 -117.3946 
L 236.193003 -118.991981 
L 236.188943 -120.589363 
L 236.188871 -122.186744 
L 236.192889 -123.784126 
L 236.196201 -125.381507 
L 236.197318 -126.978889 
L 236.1975 -128.57627 
L 236.197514 -130.173652 
L 236.19749 -131.771033 
L 236.197225 -133.368415 
L 236.195773 -134.965796 
L 236.191814 -136.563178 
L 236.186737 -138.160559 
L 236.184046 -139.757941 
L 236.184685 -141.355322 
L 236.188588 -142.952704 
L 236.193654 -144.550085 
L 236.196579 -146.147467 
L 236.197393 -147.744848 
L 236.197507 -149.34223 
L 236.197516 -150.939611 
L 236.197516 -152.536993 
L 236.197516 -154.134374 
L 236.197516 -155.731755 
L 236.197515 -157.329137 
L 236.197486 -158.926518 
L 236.197196 -160.5239 
L 236.195673 -162.121281 
L 236.191877 -163.718663 
L 236.188191 -165.316044 
L 236.188011 -166.913426 
L 236.186517 -168.510807 
L 236.17799 -170.108189 
L 236.170806 -171.70557 
L 236.175546 -173.302952 
L 236.184245 -174.900333 
L 236.183292 -176.497715 
L 236.174187 -178.095096 
L 236.168442 -179.692478 
L 236.168776 -181.289859 
L 236.168094 -182.887241 
L 236.167843 -184.484622 
L 236.173397 -186.082004 
L 236.181992 -187.679385 
L 236.188723 -189.276767 
L 236.189002 -190.874148 
L 236.181866 -192.47153 
L 236.173169 -194.068911 
L 236.168203 -195.666293 
L 236.167183 -197.263674 
L 236.169681 -198.861056 
L 236.172706 -200.458437 
L 236.171283 -202.055819 
L 236.163308 -203.6532 
L 236.148811 -205.250582 
L 236.138958 -206.847963 
L 236.142659 -208.445345 
L 236.144311 -210.042726 
L 236.128576 -211.640108 
L 236.107441 -213.237489 
L 236.094338 -214.834871 
L 236.074718 -216.432252 
L 236.028112 -218.029634 
L 235.952472 -219.627015 
L 235.828965 -221.224397 
L 235.613626 -222.821778 
L 235.302519 -224.41916 
L 234.923385 -226.016541 
L 234.46704 -227.613923 
L 233.918386 -229.211304 
L 233.308315 -230.808686 
L 232.674117 -232.406067 
L 232.040657 -234.003449 
L 231.439686 -235.60083 
L 230.887846 -237.198212 
L 230.406137 -238.795593 
L 230.040325 -240.392975 
L 229.828427 -241.990356 
L 229.750868 -243.587738 
L 229.744739 -245.185119 
L 229.878618 -246.782501 
L 230.328268 -248.379882 
L 231.184016 -249.977264 
L 232.306395 -251.574645 
L 233.402725 -253.172027 
L 234.279234 -254.769408 
L 234.901757 -256.36679 
L 235.340051 -257.964171 
L 235.668568 -259.561553 
L 235.893028 -261.158934 
L 236.02476 -262.756316 
L 236.104237 -264.353697 
L 236.149914 -265.951079 
L 236.169513 -267.54846 
L 236.178261 -269.145842 
L 236.183402 -270.743223 
L 236.187764 -272.340605 
L 236.192863 -273.937986 
L 236.196246 -275.535368 
L 236.198786 -275.535368 
L 236.198786 -275.535368 
L 236.202169 -273.937986 
L 236.207268 -272.340605 
L 236.21163 -270.743223 
L 236.216771 -269.145842 
L 236.22552 -267.54846 
L 236.245118 -265.951079 
L 236.290795 -264.353697 
L 236.370272 -262.756316 
L 236.502004 -261.158934 
L 236.726464 -259.561553 
L 237.054982 -257.964171 
L 237.493275 -256.36679 
L 238.115798 -254.769408 
L 238.992307 -253.172027 
L 240.088637 -251.574645 
L 241.211016 -249.977264 
L 242.066764 -248.379882 
L 242.516414 -246.782501 
L 242.650294 -245.185119 
L 242.644164 -243.587738 
L 242.566605 -241.990356 
L 242.354707 -240.392975 
L 241.988895 -238.795593 
L 241.507186 -237.198212 
L 240.955346 -235.60083 
L 240.354375 -234.003449 
L 239.720915 -232.406067 
L 239.086717 -230.808686 
L 238.476646 -229.211304 
L 237.927992 -227.613923 
L 237.471647 -226.016541 
L 237.092513 -224.41916 
L 236.781406 -222.821778 
L 236.566067 -221.224397 
L 236.44256 -219.627015 
L 236.36692 -218.029634 
L 236.320314 -216.432252 
L 236.300694 -214.834871 
L 236.287591 -213.237489 
L 236.266456 -211.640108 
L 236.250721 -210.042726 
L 236.252373 -208.445345 
L 236.256074 -206.847963 
L 236.246221 -205.250582 
L 236.231724 -203.6532 
L 236.223749 -202.055819 
L 236.222326 -200.458437 
L 236.225351 -198.861056 
L 236.227849 -197.263674 
L 236.226829 -195.666293 
L 236.221863 -194.068911 
L 236.213166 -192.47153 
L 236.20603 -190.874148 
L 236.206309 -189.276767 
L 236.21304 -187.679385 
L 236.221635 -186.082004 
L 236.227189 -184.484622 
L 236.226938 -182.887241 
L 236.226256 -181.289859 
L 236.22659 -179.692478 
L 236.220845 -178.095096 
L 236.21174 -176.497715 
L 236.210787 -174.900333 
L 236.219486 -173.302952 
L 236.224226 -171.70557 
L 236.217042 -170.108189 
L 236.208515 -168.510807 
L 236.207021 -166.913426 
L 236.206841 -165.316044 
L 236.203155 -163.718663 
L 236.199359 -162.121281 
L 236.197836 -160.5239 
L 236.197546 -158.926518 
L 236.197517 -157.329137 
L 236.197516 -155.731755 
L 236.197516 -154.134374 
L 236.197516 -152.536993 
L 236.197516 -150.939611 
L 236.197525 -149.34223 
L 236.197639 -147.744848 
L 236.198453 -146.147467 
L 236.201378 -144.550085 
L 236.206444 -142.952704 
L 236.210347 -141.355322 
L 236.210986 -139.757941 
L 236.208295 -138.160559 
L 236.203218 -136.563178 
L 236.199259 -134.965796 
L 236.197807 -133.368415 
L 236.197542 -131.771033 
L 236.197518 -130.173652 
L 236.197532 -128.57627 
L 236.197714 -126.978889 
L 236.198831 -125.381507 
L 236.202143 -123.784126 
L 236.206161 -122.186744 
L 236.206089 -120.589363 
L 236.202029 -118.991981 
L 236.198777 -117.3946 
z
" id="me19c81f027" style="stroke:#3d3d3d;stroke-width:1.5;"/>
    </defs>
    <g clip-path="url(#p955645599f)">
     <use style="fill:#3a923a;stroke:#3d3d3d;stroke-width:1.5;" x="0" xlink:href="#me19c81f027" y="360"/>
    </g>
   </g>
   <g id="PolyCollection_7">
    <defs>
     <path d="M 281.367983 -160.253627 
L 281.365934 -160.253627 
L 281.364057 -161.702655 
L 281.36133 -163.151682 
L 281.359479 -164.60071 
L 281.36015 -166.049737 
L 281.362714 -167.498765 
L 281.365146 -168.947792 
L 281.366428 -170.39682 
L 281.366852 -171.845847 
L 281.366944 -173.294875 
L 281.366953 -174.743902 
L 281.366917 -176.19293 
L 281.36671 -177.641957 
L 281.365931 -179.090985 
L 281.364052 -180.540012 
L 281.361324 -181.98904 
L 281.359477 -183.438067 
L 281.360155 -184.887095 
L 281.36272 -186.336122 
L 281.36515 -187.78515 
L 281.36643 -189.234177 
L 281.366853 -190.683205 
L 281.366944 -192.132232 
L 281.366957 -193.58126 
L 281.366959 -195.030287 
L 281.366959 -196.479315 
L 281.366959 -197.928342 
L 281.366959 -199.37737 
L 281.366958 -200.826397 
L 281.366954 -202.275425 
L 281.36691 -203.724452 
L 281.366626 -205.17348 
L 281.365367 -206.622507 
L 281.36154 -208.071535 
L 281.35343 -209.520562 
L 281.341022 -210.96959 
L 281.326304 -212.418617 
L 281.310518 -213.867645 
L 281.289754 -215.316672 
L 281.251058 -216.7657 
L 281.174054 -218.214727 
L 281.042252 -219.663755 
L 280.859549 -221.112782 
L 280.661878 -222.56181 
L 280.511974 -224.010837 
L 280.46801 -225.459865 
L 280.541799 -226.908892 
L 280.690876 -228.35792 
L 280.857437 -229.806947 
L 281.000848 -231.255975 
L 281.09364 -232.705002 
L 281.117943 -234.15403 
L 281.073971 -235.603057 
L 280.97911 -237.052085 
L 280.862444 -238.501112 
L 280.754182 -239.95014 
L 280.656324 -241.399167 
L 280.524016 -242.848195 
L 280.295338 -244.297222 
L 279.939997 -245.74625 
L 279.47188 -247.195277 
L 278.922371 -248.644305 
L 278.316191 -250.093332 
L 277.677167 -251.54236 
L 277.041557 -252.991387 
L 276.43519 -254.440415 
L 275.812891 -255.889442 
L 275.058176 -257.33847 
L 274.137101 -258.787497 
L 273.255852 -260.236525 
L 272.763255 -261.685552 
L 272.853084 -263.13458 
L 273.410579 -264.583607 
L 274.182188 -266.032635 
L 275.024058 -267.481662 
L 275.931197 -268.93069 
L 276.906361 -270.379717 
L 277.871002 -271.828745 
L 278.699253 -273.277772 
L 279.318583 -274.7268 
L 279.747904 -276.175827 
L 280.045864 -277.624855 
L 280.263829 -279.073882 
L 280.440879 -280.52291 
L 280.601124 -281.971937 
L 280.748229 -283.420965 
L 280.872784 -284.869992 
L 280.962022 -286.31902 
L 281.011379 -287.768047 
L 281.036203 -289.217075 
L 281.063238 -290.666102 
L 281.10986 -292.11513 
L 281.174529 -293.564157 
L 281.241392 -295.013185 
L 281.293635 -296.462212 
L 281.325782 -297.91124 
L 281.343704 -299.360267 
L 281.354758 -300.809295 
L 281.361765 -302.258322 
L 281.365321 -303.70735 
L 281.368596 -303.70735 
L 281.368596 -303.70735 
L 281.372153 -302.258322 
L 281.379159 -300.809295 
L 281.390213 -299.360267 
L 281.408135 -297.91124 
L 281.440282 -296.462212 
L 281.492525 -295.013185 
L 281.559388 -293.564157 
L 281.624057 -292.11513 
L 281.670679 -290.666102 
L 281.697714 -289.217075 
L 281.722538 -287.768047 
L 281.771895 -286.31902 
L 281.861133 -284.869992 
L 281.985688 -283.420965 
L 282.132793 -281.971937 
L 282.293038 -280.52291 
L 282.470089 -279.073882 
L 282.688054 -277.624855 
L 282.986014 -276.175827 
L 283.415334 -274.7268 
L 284.034664 -273.277772 
L 284.862915 -271.828745 
L 285.827556 -270.379717 
L 286.80272 -268.93069 
L 287.709859 -267.481662 
L 288.551729 -266.032635 
L 289.323338 -264.583607 
L 289.880833 -263.13458 
L 289.970662 -261.685552 
L 289.478065 -260.236525 
L 288.596816 -258.787497 
L 287.675741 -257.33847 
L 286.921027 -255.889442 
L 286.298727 -254.440415 
L 285.69236 -252.991387 
L 285.05675 -251.54236 
L 284.417727 -250.093332 
L 283.811546 -248.644305 
L 283.262038 -247.195277 
L 282.79392 -245.74625 
L 282.438579 -244.297222 
L 282.209901 -242.848195 
L 282.077593 -241.399167 
L 281.979736 -239.95014 
L 281.871473 -238.501112 
L 281.754807 -237.052085 
L 281.659946 -235.603057 
L 281.615974 -234.15403 
L 281.640277 -232.705002 
L 281.73307 -231.255975 
L 281.876481 -229.806947 
L 282.043041 -228.35792 
L 282.192118 -226.908892 
L 282.265907 -225.459865 
L 282.221943 -224.010837 
L 282.072039 -222.56181 
L 281.874368 -221.112782 
L 281.691665 -219.663755 
L 281.559863 -218.214727 
L 281.482859 -216.7657 
L 281.444163 -215.316672 
L 281.423399 -213.867645 
L 281.407613 -212.418617 
L 281.392896 -210.96959 
L 281.380487 -209.520562 
L 281.372378 -208.071535 
L 281.36855 -206.622507 
L 281.367291 -205.17348 
L 281.367007 -203.724452 
L 281.366964 -202.275425 
L 281.366959 -200.826397 
L 281.366959 -199.37737 
L 281.366959 -197.928342 
L 281.366959 -196.479315 
L 281.366959 -195.030287 
L 281.36696 -193.58126 
L 281.366973 -192.132232 
L 281.367064 -190.683205 
L 281.367487 -189.234177 
L 281.368767 -187.78515 
L 281.371197 -186.336122 
L 281.373763 -184.887095 
L 281.37444 -183.438067 
L 281.372593 -181.98904 
L 281.369866 -180.540012 
L 281.367986 -179.090985 
L 281.367207 -177.641957 
L 281.367 -176.19293 
L 281.366965 -174.743902 
L 281.366974 -173.294875 
L 281.367065 -171.845847 
L 281.367489 -170.39682 
L 281.368772 -168.947792 
L 281.371204 -167.498765 
L 281.373767 -166.049737 
L 281.374438 -164.60071 
L 281.372587 -163.151682 
L 281.36986 -161.702655 
L 281.367983 -160.253627 
z
" id="m184c168490" style="stroke:#3d3d3d;stroke-width:1.5;"/>
    </defs>
    <g clip-path="url(#p955645599f)">
     <use style="fill:#3274a1;stroke:#3d3d3d;stroke-width:1.5;" x="0" xlink:href="#m184c168490" y="360"/>
    </g>
   </g>
   <g id="PolyCollection_8">
    <defs>
     <path d="M 307.182088 -207.706988 
L 307.174049 -207.706988 
L 307.168487 -208.329949 
L 307.158744 -208.95291 
L 307.144431 -209.57587 
L 307.12591 -210.198831 
L 307.103048 -210.821792 
L 307.074458 -211.444753 
L 307.039193 -212.067714 
L 306.999427 -212.690675 
L 306.959786 -213.313635 
L 306.92266 -213.936596 
L 306.885295 -214.559557 
L 306.843677 -215.182518 
L 306.798953 -215.805479 
L 306.757035 -216.42844 
L 306.719687 -217.0514 
L 306.676936 -217.674361 
L 306.610764 -218.297322 
L 306.507754 -218.920283 
L 306.36801 -219.543244 
L 306.20096 -220.166205 
L 306.012233 -220.789165 
L 305.795313 -221.412126 
L 305.536878 -222.035087 
L 305.229664 -222.658048 
L 304.877631 -223.281009 
L 304.486648 -223.90397 
L 304.052016 -224.52693 
L 303.560365 -225.149891 
L 303.008199 -225.772852 
L 302.418912 -226.395813 
L 301.83932 -227.018774 
L 301.317842 -227.641735 
L 300.883291 -228.264695 
L 300.53636 -228.887656 
L 300.250824 -229.510617 
L 299.981629 -230.133578 
L 299.682749 -230.756539 
L 299.328861 -231.3795 
L 298.923875 -232.00246 
L 298.488955 -232.625421 
L 298.042566 -233.248382 
L 297.590871 -233.871343 
L 297.13549 -234.494304 
L 296.688249 -235.117265 
L 296.273715 -235.740225 
L 295.913273 -236.363186 
L 295.608041 -236.986147 
L 295.339938 -237.609108 
L 295.087341 -238.232069 
L 294.838797 -238.85503 
L 294.599758 -239.47799 
L 294.396267 -240.100951 
L 294.272514 -240.723912 
L 294.276898 -241.346873 
L 294.441591 -241.969834 
L 294.76717 -242.592795 
L 295.221438 -243.215755 
L 295.754946 -243.838716 
L 296.324317 -244.461677 
L 296.905801 -245.084638 
L 297.491187 -245.707599 
L 298.078137 -246.33056 
L 298.668953 -246.95352 
L 299.272444 -247.576481 
L 299.894774 -248.199442 
L 300.523799 -248.822403 
L 301.129464 -249.445364 
L 301.688321 -250.068325 
L 302.208019 -250.691285 
L 302.722583 -251.314246 
L 303.261721 -251.937207 
L 303.825431 -252.560168 
L 304.384869 -253.183129 
L 304.901522 -253.80609 
L 305.346196 -254.42905 
L 305.70879 -255.052011 
L 305.998235 -255.674972 
L 306.234001 -256.297933 
L 306.433981 -256.920894 
L 306.60688 -257.543855 
L 306.753353 -258.166815 
L 306.8716 -258.789776 
L 306.960793 -259.412737 
L 307.021409 -260.035698 
L 307.05602 -260.658659 
L 307.071358 -261.28162 
L 307.078213 -261.90458 
L 307.087065 -262.527541 
L 307.102659 -263.150502 
L 307.12261 -263.773463 
L 307.141073 -264.396424 
L 307.153738 -265.019385 
L 307.160212 -265.642345 
L 307.163043 -266.265306 
L 307.165181 -266.888267 
L 307.168073 -267.511228 
L 307.171462 -268.134189 
L 307.174431 -268.75715 
L 307.176413 -269.38011 
L 307.179724 -269.38011 
L 307.179724 -269.38011 
L 307.181706 -268.75715 
L 307.184675 -268.134189 
L 307.188065 -267.511228 
L 307.190956 -266.888267 
L 307.193094 -266.265306 
L 307.195925 -265.642345 
L 307.202399 -265.019385 
L 307.215064 -264.396424 
L 307.233528 -263.773463 
L 307.253478 -263.150502 
L 307.269072 -262.527541 
L 307.277925 -261.90458 
L 307.284779 -261.28162 
L 307.300117 -260.658659 
L 307.334728 -260.035698 
L 307.395344 -259.412737 
L 307.484537 -258.789776 
L 307.602784 -258.166815 
L 307.749257 -257.543855 
L 307.922156 -256.920894 
L 308.122136 -256.297933 
L 308.357903 -255.674972 
L 308.647347 -255.052011 
L 309.009941 -254.42905 
L 309.454616 -253.80609 
L 309.971269 -253.183129 
L 310.530707 -252.560168 
L 311.094417 -251.937207 
L 311.633555 -251.314246 
L 312.148119 -250.691285 
L 312.667816 -250.068325 
L 313.226674 -249.445364 
L 313.832339 -248.822403 
L 314.461363 -248.199442 
L 315.083694 -247.576481 
L 315.687184 -246.95352 
L 316.278 -246.33056 
L 316.864951 -245.707599 
L 317.450337 -245.084638 
L 318.031821 -244.461677 
L 318.601191 -243.838716 
L 319.1347 -243.215755 
L 319.588967 -242.592795 
L 319.914546 -241.969834 
L 320.079239 -241.346873 
L 320.083624 -240.723912 
L 319.959871 -240.100951 
L 319.75638 -239.47799 
L 319.51734 -238.85503 
L 319.268796 -238.232069 
L 319.016199 -237.609108 
L 318.748096 -236.986147 
L 318.442864 -236.363186 
L 318.082422 -235.740225 
L 317.667888 -235.117265 
L 317.220648 -234.494304 
L 316.765267 -233.871343 
L 316.313571 -233.248382 
L 315.867182 -232.625421 
L 315.432262 -232.00246 
L 315.027276 -231.3795 
L 314.673389 -230.756539 
L 314.374509 -230.133578 
L 314.105313 -229.510617 
L 313.819777 -228.887656 
L 313.472846 -228.264695 
L 313.038296 -227.641735 
L 312.516817 -227.018774 
L 311.937225 -226.395813 
L 311.347938 -225.772852 
L 310.795772 -225.149891 
L 310.304121 -224.52693 
L 309.869489 -223.90397 
L 309.478506 -223.281009 
L 309.126473 -222.658048 
L 308.81926 -222.035087 
L 308.560824 -221.412126 
L 308.343904 -220.789165 
L 308.155178 -220.166205 
L 307.988127 -219.543244 
L 307.848383 -218.920283 
L 307.745374 -218.297322 
L 307.679201 -217.674361 
L 307.63645 -217.0514 
L 307.599102 -216.42844 
L 307.557185 -215.805479 
L 307.51246 -215.182518 
L 307.470842 -214.559557 
L 307.433478 -213.936596 
L 307.396351 -213.313635 
L 307.35671 -212.690675 
L 307.316944 -212.067714 
L 307.28168 -211.444753 
L 307.253089 -210.821792 
L 307.230228 -210.198831 
L 307.211707 -209.57587 
L 307.197393 -208.95291 
L 307.187651 -208.329949 
L 307.182088 -207.706988 
z
" id="mdf174e3985" style="stroke:#3d3d3d;stroke-width:1.5;"/>
    </defs>
    <g clip-path="url(#p955645599f)">
     <use style="fill:#e1812c;stroke:#3d3d3d;stroke-width:1.5;" x="0" xlink:href="#mdf174e3985" y="360"/>
    </g>
   </g>
   <g id="PolyCollection_9">
    <defs>
     <path d="M 332.990687 -207.637173 
L 332.987671 -207.637173 
L 332.986087 -208.233033 
L 332.983518 -208.828892 
L 332.979745 -209.424751 
L 332.974493 -210.020611 
L 332.96722 -210.61647 
L 332.957016 -211.212329 
L 332.942883 -211.808189 
L 332.924321 -212.404048 
L 332.901771 -212.999908 
L 332.876559 -213.595767 
L 332.850491 -214.191626 
L 332.8255 -214.787486 
L 332.803425 -215.383345 
L 332.785604 -215.979204 
L 332.772182 -216.575064 
L 332.761555 -217.170923 
L 332.750448 -217.766782 
L 332.734515 -218.362642 
L 332.708907 -218.958501 
L 332.668515 -219.55436 
L 332.608239 -220.15022 
L 332.523883 -220.746079 
L 332.413648 -221.341939 
L 332.279322 -221.937798 
L 332.12584 -222.533657 
L 331.958415 -223.129517 
L 331.778158 -223.725376 
L 331.579114 -224.321235 
L 331.350089 -224.917095 
L 331.082007 -225.512954 
L 330.777057 -226.108813 
L 330.453364 -226.704673 
L 330.141002 -227.300532 
L 329.870482 -227.896392 
L 329.659628 -228.492251 
L 329.506084 -229.08811 
L 329.389718 -229.68397 
L 329.283274 -230.279829 
L 329.164498 -230.875688 
L 329.022625 -231.471548 
L 328.856974 -232.067407 
L 328.671273 -232.663266 
L 328.46923 -233.259126 
L 328.254302 -233.854985 
L 328.032512 -234.450844 
L 327.814573 -235.046704 
L 327.614015 -235.642563 
L 327.441203 -236.238423 
L 327.297051 -236.834282 
L 327.171605 -237.430141 
L 327.049629 -238.026001 
L 326.920228 -238.62186 
L 326.784753 -239.217719 
L 326.658689 -239.813579 
L 326.567103 -240.409438 
L 326.536401 -241.005297 
L 326.58607 -241.601157 
L 326.722938 -242.197016 
L 326.938874 -242.792875 
L 327.21235 -243.388735 
L 327.514383 -243.984594 
L 327.817763 -244.580454 
L 328.105492 -245.176313 
L 328.373889 -245.772172 
L 328.629611 -246.368032 
L 328.883981 -246.963891 
L 329.14794 -247.55975 
L 329.428016 -248.15561 
L 329.723052 -248.751469 
L 330.023849 -249.347328 
L 330.318151 -249.943188 
L 330.598733 -250.539047 
L 330.867822 -251.134907 
L 331.133347 -251.730766 
L 331.400086 -252.326625 
L 331.66345 -252.922485 
L 331.910616 -253.518344 
L 332.127179 -254.114203 
L 332.303988 -254.710063 
L 332.440338 -255.305922 
L 332.542922 -255.901781 
L 332.622067 -256.497641 
L 332.687393 -257.0935 
L 332.744921 -257.689359 
L 332.796666 -258.285219 
L 332.842171 -258.881078 
L 332.880371 -259.476938 
L 332.910618 -260.072797 
L 332.932924 -260.668656 
L 332.948027 -261.264516 
L 332.957439 -261.860375 
L 332.963227 -262.456234 
L 332.967425 -263.052094 
L 332.9714 -263.647953 
L 332.975593 -264.243812 
L 332.979731 -264.839672 
L 332.983295 -265.435531 
L 332.985928 -266.031391 
L 332.987596 -266.62725 
L 332.990761 -266.62725 
L 332.990761 -266.62725 
L 332.992429 -266.031391 
L 332.995063 -265.435531 
L 332.998626 -264.839672 
L 333.002764 -264.243812 
L 333.006958 -263.647953 
L 333.010933 -263.052094 
L 333.01513 -262.456234 
L 333.020919 -261.860375 
L 333.030331 -261.264516 
L 333.045433 -260.668656 
L 333.06774 -260.072797 
L 333.097987 -259.476938 
L 333.136187 -258.881078 
L 333.181692 -258.285219 
L 333.233436 -257.689359 
L 333.290965 -257.0935 
L 333.356291 -256.497641 
L 333.435435 -255.901781 
L 333.538019 -255.305922 
L 333.674369 -254.710063 
L 333.851179 -254.114203 
L 334.067742 -253.518344 
L 334.314907 -252.922485 
L 334.578271 -252.326625 
L 334.845011 -251.730766 
L 335.110535 -251.134907 
L 335.379625 -250.539047 
L 335.660206 -249.943188 
L 335.954509 -249.347328 
L 336.255306 -248.751469 
L 336.550341 -248.15561 
L 336.830417 -247.55975 
L 337.094376 -246.963891 
L 337.348746 -246.368032 
L 337.604469 -245.772172 
L 337.872866 -245.176313 
L 338.160594 -244.580454 
L 338.463975 -243.984594 
L 338.766008 -243.388735 
L 339.039483 -242.792875 
L 339.255419 -242.197016 
L 339.392287 -241.601157 
L 339.441956 -241.005297 
L 339.411255 -240.409438 
L 339.319669 -239.813579 
L 339.193604 -239.217719 
L 339.058129 -238.62186 
L 338.928728 -238.026001 
L 338.806752 -237.430141 
L 338.681306 -236.834282 
L 338.537155 -236.238423 
L 338.364342 -235.642563 
L 338.163785 -235.046704 
L 337.945845 -234.450844 
L 337.724056 -233.854985 
L 337.509128 -233.259126 
L 337.307084 -232.663266 
L 337.121383 -232.067407 
L 336.955733 -231.471548 
L 336.813859 -230.875688 
L 336.695084 -230.279829 
L 336.588639 -229.68397 
L 336.472273 -229.08811 
L 336.318729 -228.492251 
L 336.107875 -227.896392 
L 335.837356 -227.300532 
L 335.524994 -226.704673 
L 335.2013 -226.108813 
L 334.896351 -225.512954 
L 334.628269 -224.917095 
L 334.399243 -224.321235 
L 334.200199 -223.725376 
L 334.019943 -223.129517 
L 333.852518 -222.533657 
L 333.699035 -221.937798 
L 333.564709 -221.341939 
L 333.454474 -220.746079 
L 333.370119 -220.15022 
L 333.309843 -219.55436 
L 333.26945 -218.958501 
L 333.243843 -218.362642 
L 333.22791 -217.766782 
L 333.216803 -217.170923 
L 333.206176 -216.575064 
L 333.192753 -215.979204 
L 333.174933 -215.383345 
L 333.152858 -214.787486 
L 333.127866 -214.191626 
L 333.101798 -213.595767 
L 333.076586 -212.999908 
L 333.054036 -212.404048 
L 333.035474 -211.808189 
L 333.021342 -211.212329 
L 333.011137 -210.61647 
L 333.003864 -210.020611 
L 332.998613 -209.424751 
L 332.99484 -208.828892 
L 332.99227 -208.233033 
L 332.990687 -207.637173 
z
" id="mdf3f7d8b2c" style="stroke:#3d3d3d;stroke-width:1.5;"/>
    </defs>
    <g clip-path="url(#p955645599f)">
     <use style="fill:#3a923a;stroke:#3d3d3d;stroke-width:1.5;" x="0" xlink:href="#mdf3f7d8b2c" y="360"/>
    </g>
   </g>
   <g id="patch_3">
    <path clip-path="url(#p955645599f)" d="M 113.594743 122.094593 
L 113.594743 122.094593 
L 113.594743 122.094593 
L 113.594743 122.094593 
z
" style="fill:#3274a1;stroke:#3d3d3d;stroke-linejoin:miter;stroke-width:0.75;"/>
   </g>
   <g id="patch_4">
    <path clip-path="url(#p955645599f)" d="M 113.594743 122.094593 
L 113.594743 122.094593 
L 113.594743 122.094593 
L 113.594743 122.094593 
z
" style="fill:#e1812c;stroke:#3d3d3d;stroke-linejoin:miter;stroke-width:0.75;"/>
   </g>
   <g id="patch_5">
    <path clip-path="url(#p955645599f)" d="M 113.594743 122.094593 
L 113.594743 122.094593 
L 113.594743 122.094593 
L 113.594743 122.094593 
z
" style="fill:#3a923a;stroke:#3d3d3d;stroke-linejoin:miter;stroke-width:0.75;"/>
   </g>
   <g id="matplotlib.axis_1">
    <g id="xtick_1">
     <g id="line2d_1">
      <defs>
       <path d="M 0 0 
L 0 3.5 
" id="m186b31f7e4" style="stroke:#000000;stroke-width:0.8;"/>
      </defs>
      <g>
       <use style="stroke:#000000;stroke-width:0.8;" x="113.594743" xlink:href="#m186b31f7e4" y="317.93875"/>
      </g>
     </g>
     <g id="text_1">
      <!-- BLSTM-MD -->
      <g transform="translate(86.868181 332.537188)scale(0.1 -0.1)">
       <defs>
        <path d="M 19.671875 34.8125 
L 19.671875 8.109375 
L 35.5 8.109375 
Q 43.453125 8.109375 47.28125 11.40625 
Q 51.125 14.703125 51.125 21.484375 
Q 51.125 28.328125 47.28125 31.5625 
Q 43.453125 34.8125 35.5 34.8125 
z
M 19.671875 64.796875 
L 19.671875 42.828125 
L 34.28125 42.828125 
Q 41.5 42.828125 45.03125 45.53125 
Q 48.578125 48.25 48.578125 53.8125 
Q 48.578125 59.328125 45.03125 62.0625 
Q 41.5 64.796875 34.28125 64.796875 
z
M 9.8125 72.90625 
L 35.015625 72.90625 
Q 46.296875 72.90625 52.390625 68.21875 
Q 58.5 63.53125 58.5 54.890625 
Q 58.5 48.1875 55.375 44.234375 
Q 52.25 40.28125 46.1875 39.3125 
Q 53.46875 37.75 57.5 32.78125 
Q 61.53125 27.828125 61.53125 20.40625 
Q 61.53125 10.640625 54.890625 5.3125 
Q 48.25 0 35.984375 0 
L 9.8125 0 
z
" id="DejaVuSans-66"/>
        <path d="M 9.8125 72.90625 
L 19.671875 72.90625 
L 19.671875 8.296875 
L 55.171875 8.296875 
L 55.171875 0 
L 9.8125 0 
z
" id="DejaVuSans-76"/>
        <path d="M 53.515625 70.515625 
L 53.515625 60.890625 
Q 47.90625 63.578125 42.921875 64.890625 
Q 37.9375 66.21875 33.296875 66.21875 
Q 25.25 66.21875 20.875 63.09375 
Q 16.5 59.96875 16.5 54.203125 
Q 16.5 49.359375 19.40625 46.890625 
Q 22.3125 44.4375 30.421875 42.921875 
L 36.375 41.703125 
Q 47.40625 39.59375 52.65625 34.296875 
Q 57.90625 29 57.90625 20.125 
Q 57.90625 9.515625 50.796875 4.046875 
Q 43.703125 -1.421875 29.984375 -1.421875 
Q 24.8125 -1.421875 18.96875 -0.25 
Q 13.140625 0.921875 6.890625 3.21875 
L 6.890625 13.375 
Q 12.890625 10.015625 18.65625 8.296875 
Q 24.421875 6.59375 29.984375 6.59375 
Q 38.421875 6.59375 43.015625 9.90625 
Q 47.609375 13.234375 47.609375 19.390625 
Q 47.609375 24.75 44.3125 27.78125 
Q 41.015625 30.8125 33.5 32.328125 
L 27.484375 33.5 
Q 16.453125 35.6875 11.515625 40.375 
Q 6.59375 45.0625 6.59375 53.421875 
Q 6.59375 63.09375 13.40625 68.65625 
Q 20.21875 74.21875 32.171875 74.21875 
Q 37.3125 74.21875 42.625 73.28125 
Q 47.953125 72.359375 53.515625 70.515625 
z
" id="DejaVuSans-83"/>
        <path d="M -0.296875 72.90625 
L 61.375 72.90625 
L 61.375 64.59375 
L 35.5 64.59375 
L 35.5 0 
L 25.59375 0 
L 25.59375 64.59375 
L -0.296875 64.59375 
z
" id="DejaVuSans-84"/>
        <path d="M 9.8125 72.90625 
L 24.515625 72.90625 
L 43.109375 23.296875 
L 61.8125 72.90625 
L 76.515625 72.90625 
L 76.515625 0 
L 66.890625 0 
L 66.890625 64.015625 
L 48.09375 14.015625 
L 38.1875 14.015625 
L 19.390625 64.015625 
L 19.390625 0 
L 9.8125 0 
z
" id="DejaVuSans-77"/>
        <path d="M 4.890625 31.390625 
L 31.203125 31.390625 
L 31.203125 23.390625 
L 4.890625 23.390625 
z
" id="DejaVuSans-45"/>
        <path d="M 19.671875 64.796875 
L 19.671875 8.109375 
L 31.59375 8.109375 
Q 46.6875 8.109375 53.6875 14.9375 
Q 60.6875 21.78125 60.6875 36.53125 
Q 60.6875 51.171875 53.6875 57.984375 
Q 46.6875 64.796875 31.59375 64.796875 
z
M 9.8125 72.90625 
L 30.078125 72.90625 
Q 51.265625 72.90625 61.171875 64.09375 
Q 71.09375 55.28125 71.09375 36.53125 
Q 71.09375 17.671875 61.125 8.828125 
Q 51.171875 0 30.078125 0 
L 9.8125 0 
z
" id="DejaVuSans-68"/>
       </defs>
       <use xlink:href="#DejaVuSans-66"/>
       <use x="68.603516" xlink:href="#DejaVuSans-76"/>
       <use x="124.316406" xlink:href="#DejaVuSans-83"/>
       <use x="187.792969" xlink:href="#DejaVuSans-84"/>
       <use x="248.876953" xlink:href="#DejaVuSans-77"/>
       <use x="335.15625" xlink:href="#DejaVuSans-45"/>
       <use x="371.240234" xlink:href="#DejaVuSans-77"/>
       <use x="457.519531" xlink:href="#DejaVuSans-68"/>
      </g>
     </g>
    </g>
    <g id="xtick_2">
     <g id="line2d_2">
      <g>
       <use style="stroke:#000000;stroke-width:0.8;" x="210.386406" xlink:href="#m186b31f7e4" y="317.93875"/>
      </g>
     </g>
     <g id="text_2">
      <!-- Conv-TasNet-MD -->
      <g transform="translate(169.848125 332.537188)scale(0.1 -0.1)">
       <defs>
        <path d="M 64.40625 67.28125 
L 64.40625 56.890625 
Q 59.421875 61.53125 53.78125 63.8125 
Q 48.140625 66.109375 41.796875 66.109375 
Q 29.296875 66.109375 22.65625 58.46875 
Q 16.015625 50.828125 16.015625 36.375 
Q 16.015625 21.96875 22.65625 14.328125 
Q 29.296875 6.6875 41.796875 6.6875 
Q 48.140625 6.6875 53.78125 8.984375 
Q 59.421875 11.28125 64.40625 15.921875 
L 64.40625 5.609375 
Q 59.234375 2.09375 53.4375 0.328125 
Q 47.65625 -1.421875 41.21875 -1.421875 
Q 24.65625 -1.421875 15.125 8.703125 
Q 5.609375 18.84375 5.609375 36.375 
Q 5.609375 53.953125 15.125 64.078125 
Q 24.65625 74.21875 41.21875 74.21875 
Q 47.75 74.21875 53.53125 72.484375 
Q 59.328125 70.75 64.40625 67.28125 
z
" id="DejaVuSans-67"/>
        <path d="M 30.609375 48.390625 
Q 23.390625 48.390625 19.1875 42.75 
Q 14.984375 37.109375 14.984375 27.296875 
Q 14.984375 17.484375 19.15625 11.84375 
Q 23.34375 6.203125 30.609375 6.203125 
Q 37.796875 6.203125 41.984375 11.859375 
Q 46.1875 17.53125 46.1875 27.296875 
Q 46.1875 37.015625 41.984375 42.703125 
Q 37.796875 48.390625 30.609375 48.390625 
z
M 30.609375 56 
Q 42.328125 56 49.015625 48.375 
Q 55.71875 40.765625 55.71875 27.296875 
Q 55.71875 13.875 49.015625 6.21875 
Q 42.328125 -1.421875 30.609375 -1.421875 
Q 18.84375 -1.421875 12.171875 6.21875 
Q 5.515625 13.875 5.515625 27.296875 
Q 5.515625 40.765625 12.171875 48.375 
Q 18.84375 56 30.609375 56 
z
" id="DejaVuSans-111"/>
        <path d="M 54.890625 33.015625 
L 54.890625 0 
L 45.90625 0 
L 45.90625 32.71875 
Q 45.90625 40.484375 42.875 44.328125 
Q 39.84375 48.1875 33.796875 48.1875 
Q 26.515625 48.1875 22.3125 43.546875 
Q 18.109375 38.921875 18.109375 30.90625 
L 18.109375 0 
L 9.078125 0 
L 9.078125 54.6875 
L 18.109375 54.6875 
L 18.109375 46.1875 
Q 21.34375 51.125 25.703125 53.5625 
Q 30.078125 56 35.796875 56 
Q 45.21875 56 50.046875 50.171875 
Q 54.890625 44.34375 54.890625 33.015625 
z
" id="DejaVuSans-110"/>
        <path d="M 2.984375 54.6875 
L 12.5 54.6875 
L 29.59375 8.796875 
L 46.6875 54.6875 
L 56.203125 54.6875 
L 35.6875 0 
L 23.484375 0 
z
" id="DejaVuSans-118"/>
        <path d="M 34.28125 27.484375 
Q 23.390625 27.484375 19.1875 25 
Q 14.984375 22.515625 14.984375 16.5 
Q 14.984375 11.71875 18.140625 8.90625 
Q 21.296875 6.109375 26.703125 6.109375 
Q 34.1875 6.109375 38.703125 11.40625 
Q 43.21875 16.703125 43.21875 25.484375 
L 43.21875 27.484375 
z
M 52.203125 31.203125 
L 52.203125 0 
L 43.21875 0 
L 43.21875 8.296875 
Q 40.140625 3.328125 35.546875 0.953125 
Q 30.953125 -1.421875 24.3125 -1.421875 
Q 15.921875 -1.421875 10.953125 3.296875 
Q 6 8.015625 6 15.921875 
Q 6 25.140625 12.171875 29.828125 
Q 18.359375 34.515625 30.609375 34.515625 
L 43.21875 34.515625 
L 43.21875 35.40625 
Q 43.21875 41.609375 39.140625 45 
Q 35.0625 48.390625 27.6875 48.390625 
Q 23 48.390625 18.546875 47.265625 
Q 14.109375 46.140625 10.015625 43.890625 
L 10.015625 52.203125 
Q 14.9375 54.109375 19.578125 55.046875 
Q 24.21875 56 28.609375 56 
Q 40.484375 56 46.34375 49.84375 
Q 52.203125 43.703125 52.203125 31.203125 
z
" id="DejaVuSans-97"/>
        <path d="M 44.28125 53.078125 
L 44.28125 44.578125 
Q 40.484375 46.53125 36.375 47.5 
Q 32.28125 48.484375 27.875 48.484375 
Q 21.1875 48.484375 17.84375 46.4375 
Q 14.5 44.390625 14.5 40.28125 
Q 14.5 37.15625 16.890625 35.375 
Q 19.28125 33.59375 26.515625 31.984375 
L 29.59375 31.296875 
Q 39.15625 29.25 43.1875 25.515625 
Q 47.21875 21.78125 47.21875 15.09375 
Q 47.21875 7.46875 41.1875 3.015625 
Q 35.15625 -1.421875 24.609375 -1.421875 
Q 20.21875 -1.421875 15.453125 -0.5625 
Q 10.6875 0.296875 5.421875 2 
L 5.421875 11.28125 
Q 10.40625 8.6875 15.234375 7.390625 
Q 20.0625 6.109375 24.8125 6.109375 
Q 31.15625 6.109375 34.5625 8.28125 
Q 37.984375 10.453125 37.984375 14.40625 
Q 37.984375 18.0625 35.515625 20.015625 
Q 33.0625 21.96875 24.703125 23.78125 
L 21.578125 24.515625 
Q 13.234375 26.265625 9.515625 29.90625 
Q 5.8125 33.546875 5.8125 39.890625 
Q 5.8125 47.609375 11.28125 51.796875 
Q 16.75 56 26.8125 56 
Q 31.78125 56 36.171875 55.265625 
Q 40.578125 54.546875 44.28125 53.078125 
z
" id="DejaVuSans-115"/>
        <path d="M 9.8125 72.90625 
L 23.09375 72.90625 
L 55.421875 11.921875 
L 55.421875 72.90625 
L 64.984375 72.90625 
L 64.984375 0 
L 51.703125 0 
L 19.390625 60.984375 
L 19.390625 0 
L 9.8125 0 
z
" id="DejaVuSans-78"/>
        <path d="M 56.203125 29.59375 
L 56.203125 25.203125 
L 14.890625 25.203125 
Q 15.484375 15.921875 20.484375 11.0625 
Q 25.484375 6.203125 34.421875 6.203125 
Q 39.59375 6.203125 44.453125 7.46875 
Q 49.3125 8.734375 54.109375 11.28125 
L 54.109375 2.78125 
Q 49.265625 0.734375 44.1875 -0.34375 
Q 39.109375 -1.421875 33.890625 -1.421875 
Q 20.796875 -1.421875 13.15625 6.1875 
Q 5.515625 13.8125 5.515625 26.8125 
Q 5.515625 40.234375 12.765625 48.109375 
Q 20.015625 56 32.328125 56 
Q 43.359375 56 49.78125 48.890625 
Q 56.203125 41.796875 56.203125 29.59375 
z
M 47.21875 32.234375 
Q 47.125 39.59375 43.09375 43.984375 
Q 39.0625 48.390625 32.421875 48.390625 
Q 24.90625 48.390625 20.390625 44.140625 
Q 15.875 39.890625 15.1875 32.171875 
z
" id="DejaVuSans-101"/>
        <path d="M 18.3125 70.21875 
L 18.3125 54.6875 
L 36.8125 54.6875 
L 36.8125 47.703125 
L 18.3125 47.703125 
L 18.3125 18.015625 
Q 18.3125 11.328125 20.140625 9.421875 
Q 21.96875 7.515625 27.59375 7.515625 
L 36.8125 7.515625 
L 36.8125 0 
L 27.59375 0 
Q 17.1875 0 13.234375 3.875 
Q 9.28125 7.765625 9.28125 18.015625 
L 9.28125 47.703125 
L 2.6875 47.703125 
L 2.6875 54.6875 
L 9.28125 54.6875 
L 9.28125 70.21875 
z
" id="DejaVuSans-116"/>
       </defs>
       <use xlink:href="#DejaVuSans-67"/>
       <use x="69.824219" xlink:href="#DejaVuSans-111"/>
       <use x="131.005859" xlink:href="#DejaVuSans-110"/>
       <use x="194.384766" xlink:href="#DejaVuSans-118"/>
       <use x="250.939453" xlink:href="#DejaVuSans-45"/>
       <use x="277.898438" xlink:href="#DejaVuSans-84"/>
       <use x="322.482422" xlink:href="#DejaVuSans-97"/>
       <use x="383.761719" xlink:href="#DejaVuSans-115"/>
       <use x="435.861328" xlink:href="#DejaVuSans-78"/>
       <use x="510.666016" xlink:href="#DejaVuSans-101"/>
       <use x="572.189453" xlink:href="#DejaVuSans-116"/>
       <use x="611.398438" xlink:href="#DejaVuSans-45"/>
       <use x="647.482422" xlink:href="#DejaVuSans-77"/>
       <use x="733.761719" xlink:href="#DejaVuSans-68"/>
      </g>
     </g>
    </g>
    <g id="xtick_3">
     <g id="line2d_3">
      <g>
       <use style="stroke:#000000;stroke-width:0.8;" x="307.178069" xlink:href="#m186b31f7e4" y="317.93875"/>
      </g>
     </g>
     <g id="text_3">
      <!-- Wave-U-Net-MD -->
      <g transform="translate(267.440569 332.537188)scale(0.1 -0.1)">
       <defs>
        <path d="M 3.328125 72.90625 
L 13.28125 72.90625 
L 28.609375 11.28125 
L 43.890625 72.90625 
L 54.984375 72.90625 
L 70.3125 11.28125 
L 85.59375 72.90625 
L 95.609375 72.90625 
L 77.296875 0 
L 64.890625 0 
L 49.515625 63.28125 
L 33.984375 0 
L 21.578125 0 
z
" id="DejaVuSans-87"/>
        <path d="M 8.6875 72.90625 
L 18.609375 72.90625 
L 18.609375 28.609375 
Q 18.609375 16.890625 22.84375 11.734375 
Q 27.09375 6.59375 36.625 6.59375 
Q 46.09375 6.59375 50.34375 11.734375 
Q 54.59375 16.890625 54.59375 28.609375 
L 54.59375 72.90625 
L 64.5 72.90625 
L 64.5 27.390625 
Q 64.5 13.140625 57.4375 5.859375 
Q 50.390625 -1.421875 36.625 -1.421875 
Q 22.796875 -1.421875 15.734375 5.859375 
Q 8.6875 13.140625 8.6875 27.390625 
z
" id="DejaVuSans-85"/>
       </defs>
       <use xlink:href="#DejaVuSans-87"/>
       <use x="92.501953" xlink:href="#DejaVuSans-97"/>
       <use x="153.78125" xlink:href="#DejaVuSans-118"/>
       <use x="212.960938" xlink:href="#DejaVuSans-101"/>
       <use x="274.484375" xlink:href="#DejaVuSans-45"/>
       <use x="310.568359" xlink:href="#DejaVuSans-85"/>
       <use x="383.761719" xlink:href="#DejaVuSans-45"/>
       <use x="419.845703" xlink:href="#DejaVuSans-78"/>
       <use x="494.650391" xlink:href="#DejaVuSans-101"/>
       <use x="556.173828" xlink:href="#DejaVuSans-116"/>
       <use x="595.382812" xlink:href="#DejaVuSans-45"/>
       <use x="631.466797" xlink:href="#DejaVuSans-77"/>
       <use x="717.746094" xlink:href="#DejaVuSans-68"/>
      </g>
     </g>
    </g>
    <g id="text_4">
     <!-- Model -->
     <g transform="translate(195.373125 346.215312)scale(0.1 -0.1)">
      <defs>
       <path d="M 45.40625 46.390625 
L 45.40625 75.984375 
L 54.390625 75.984375 
L 54.390625 0 
L 45.40625 0 
L 45.40625 8.203125 
Q 42.578125 3.328125 38.25 0.953125 
Q 33.9375 -1.421875 27.875 -1.421875 
Q 17.96875 -1.421875 11.734375 6.484375 
Q 5.515625 14.40625 5.515625 27.296875 
Q 5.515625 40.1875 11.734375 48.09375 
Q 17.96875 56 27.875 56 
Q 33.9375 56 38.25 53.625 
Q 42.578125 51.265625 45.40625 46.390625 
z
M 14.796875 27.296875 
Q 14.796875 17.390625 18.875 11.75 
Q 22.953125 6.109375 30.078125 6.109375 
Q 37.203125 6.109375 41.296875 11.75 
Q 45.40625 17.390625 45.40625 27.296875 
Q 45.40625 37.203125 41.296875 42.84375 
Q 37.203125 48.484375 30.078125 48.484375 
Q 22.953125 48.484375 18.875 42.84375 
Q 14.796875 37.203125 14.796875 27.296875 
z
" id="DejaVuSans-100"/>
       <path d="M 9.421875 75.984375 
L 18.40625 75.984375 
L 18.40625 0 
L 9.421875 0 
z
" id="DejaVuSans-108"/>
      </defs>
      <use xlink:href="#DejaVuSans-77"/>
      <use x="86.279297" xlink:href="#DejaVuSans-111"/>
      <use x="147.460938" xlink:href="#DejaVuSans-100"/>
      <use x="210.9375" xlink:href="#DejaVuSans-101"/>
      <use x="272.460938" xlink:href="#DejaVuSans-108"/>
     </g>
    </g>
   </g>
   <g id="matplotlib.axis_2">
    <g id="ytick_1">
     <g id="line2d_4">
      <defs>
       <path d="M 0 0 
L -3.5 0 
" id="m8be5c06b1b" style="stroke:#000000;stroke-width:0.8;"/>
      </defs>
      <g>
       <use style="stroke:#000000;stroke-width:0.8;" x="65.198912" xlink:href="#m8be5c06b1b" y="313.533683"/>
      </g>
     </g>
     <g id="text_5">
      <!-- 80 -->
      <g transform="translate(37.094224 317.332902)scale(0.1 -0.1)">
       <defs>
        <path d="M 10.59375 35.5 
L 73.1875 35.5 
L 73.1875 27.203125 
L 10.59375 27.203125 
z
" id="DejaVuSans-8722"/>
        <path d="M 31.78125 34.625 
Q 24.75 34.625 20.71875 30.859375 
Q 16.703125 27.09375 16.703125 20.515625 
Q 16.703125 13.921875 20.71875 10.15625 
Q 24.75 6.390625 31.78125 6.390625 
Q 38.8125 6.390625 42.859375 10.171875 
Q 46.921875 13.96875 46.921875 20.515625 
Q 46.921875 27.09375 42.890625 30.859375 
Q 38.875 34.625 31.78125 34.625 
z
M 21.921875 38.8125 
Q 15.578125 40.375 12.03125 44.71875 
Q 8.5 49.078125 8.5 55.328125 
Q 8.5 64.0625 14.71875 69.140625 
Q 20.953125 74.21875 31.78125 74.21875 
Q 42.671875 74.21875 48.875 69.140625 
Q 55.078125 64.0625 55.078125 55.328125 
Q 55.078125 49.078125 51.53125 44.71875 
Q 48 40.375 41.703125 38.8125 
Q 48.828125 37.15625 52.796875 32.3125 
Q 56.78125 27.484375 56.78125 20.515625 
Q 56.78125 9.90625 50.3125 4.234375 
Q 43.84375 -1.421875 31.78125 -1.421875 
Q 19.734375 -1.421875 13.25 4.234375 
Q 6.78125 9.90625 6.78125 20.515625 
Q 6.78125 27.484375 10.78125 32.3125 
Q 14.796875 37.15625 21.921875 38.8125 
z
M 18.3125 54.390625 
Q 18.3125 48.734375 21.84375 45.5625 
Q 25.390625 42.390625 31.78125 42.390625 
Q 38.140625 42.390625 41.71875 45.5625 
Q 45.3125 48.734375 45.3125 54.390625 
Q 45.3125 60.0625 41.71875 63.234375 
Q 38.140625 66.40625 31.78125 66.40625 
Q 25.390625 66.40625 21.84375 63.234375 
Q 18.3125 60.0625 18.3125 54.390625 
z
" id="DejaVuSans-56"/>
        <path d="M 31.78125 66.40625 
Q 24.171875 66.40625 20.328125 58.90625 
Q 16.5 51.421875 16.5 36.375 
Q 16.5 21.390625 20.328125 13.890625 
Q 24.171875 6.390625 31.78125 6.390625 
Q 39.453125 6.390625 43.28125 13.890625 
Q 47.125 21.390625 47.125 36.375 
Q 47.125 51.421875 43.28125 58.90625 
Q 39.453125 66.40625 31.78125 66.40625 
z
M 31.78125 74.21875 
Q 44.046875 74.21875 50.515625 64.515625 
Q 56.984375 54.828125 56.984375 36.375 
Q 56.984375 17.96875 50.515625 8.265625 
Q 44.046875 -1.421875 31.78125 -1.421875 
Q 19.53125 -1.421875 13.0625 8.265625 
Q 6.59375 17.96875 6.59375 36.375 
Q 6.59375 54.828125 13.0625 64.515625 
Q 19.53125 74.21875 31.78125 74.21875 
z
" id="DejaVuSans-48"/>
       </defs>
       <use xlink:href="#DejaVuSans-8722"/>
       <use x="83.789062" xlink:href="#DejaVuSans-56"/>
       <use x="147.412109" xlink:href="#DejaVuSans-48"/>
      </g>
     </g>
    </g>
    <g id="ytick_2">
     <g id="line2d_5">
      <g>
       <use style="stroke:#000000;stroke-width:0.8;" x="65.198912" xlink:href="#m8be5c06b1b" y="265.673911"/>
      </g>
     </g>
     <g id="text_6">
      <!-- 60 -->
      <g transform="translate(37.094224 269.473129)scale(0.1 -0.1)">
       <defs>
        <path d="M 33.015625 40.375 
Q 26.375 40.375 22.484375 35.828125 
Q 18.609375 31.296875 18.609375 23.390625 
Q 18.609375 15.53125 22.484375 10.953125 
Q 26.375 6.390625 33.015625 6.390625 
Q 39.65625 6.390625 43.53125 10.953125 
Q 47.40625 15.53125 47.40625 23.390625 
Q 47.40625 31.296875 43.53125 35.828125 
Q 39.65625 40.375 33.015625 40.375 
z
M 52.59375 71.296875 
L 52.59375 62.3125 
Q 48.875 64.0625 45.09375 64.984375 
Q 41.3125 65.921875 37.59375 65.921875 
Q 27.828125 65.921875 22.671875 59.328125 
Q 17.53125 52.734375 16.796875 39.40625 
Q 19.671875 43.65625 24.015625 45.921875 
Q 28.375 48.1875 33.59375 48.1875 
Q 44.578125 48.1875 50.953125 41.515625 
Q 57.328125 34.859375 57.328125 23.390625 
Q 57.328125 12.15625 50.6875 5.359375 
Q 44.046875 -1.421875 33.015625 -1.421875 
Q 20.359375 -1.421875 13.671875 8.265625 
Q 6.984375 17.96875 6.984375 36.375 
Q 6.984375 53.65625 15.1875 63.9375 
Q 23.390625 74.21875 37.203125 74.21875 
Q 40.921875 74.21875 44.703125 73.484375 
Q 48.484375 72.75 52.59375 71.296875 
z
" id="DejaVuSans-54"/>
       </defs>
       <use xlink:href="#DejaVuSans-8722"/>
       <use x="83.789062" xlink:href="#DejaVuSans-54"/>
       <use x="147.412109" xlink:href="#DejaVuSans-48"/>
      </g>
     </g>
    </g>
    <g id="ytick_3">
     <g id="line2d_6">
      <g>
       <use style="stroke:#000000;stroke-width:0.8;" x="65.198912" xlink:href="#m8be5c06b1b" y="217.814138"/>
      </g>
     </g>
     <g id="text_7">
      <!-- 40 -->
      <g transform="translate(37.094224 221.613357)scale(0.1 -0.1)">
       <defs>
        <path d="M 37.796875 64.3125 
L 12.890625 25.390625 
L 37.796875 25.390625 
z
M 35.203125 72.90625 
L 47.609375 72.90625 
L 47.609375 25.390625 
L 58.015625 25.390625 
L 58.015625 17.1875 
L 47.609375 17.1875 
L 47.609375 0 
L 37.796875 0 
L 37.796875 17.1875 
L 4.890625 17.1875 
L 4.890625 26.703125 
z
" id="DejaVuSans-52"/>
       </defs>
       <use xlink:href="#DejaVuSans-8722"/>
       <use x="83.789062" xlink:href="#DejaVuSans-52"/>
       <use x="147.412109" xlink:href="#DejaVuSans-48"/>
      </g>
     </g>
    </g>
    <g id="ytick_4">
     <g id="line2d_7">
      <g>
       <use style="stroke:#000000;stroke-width:0.8;" x="65.198912" xlink:href="#m8be5c06b1b" y="169.954366"/>
      </g>
     </g>
     <g id="text_8">
      <!-- 20 -->
      <g transform="translate(37.094224 173.753584)scale(0.1 -0.1)">
       <defs>
        <path d="M 19.1875 8.296875 
L 53.609375 8.296875 
L 53.609375 0 
L 7.328125 0 
L 7.328125 8.296875 
Q 12.9375 14.109375 22.625 23.890625 
Q 32.328125 33.6875 34.8125 36.53125 
Q 39.546875 41.84375 41.421875 45.53125 
Q 43.3125 49.21875 43.3125 52.78125 
Q 43.3125 58.59375 39.234375 62.25 
Q 35.15625 65.921875 28.609375 65.921875 
Q 23.96875 65.921875 18.8125 64.3125 
Q 13.671875 62.703125 7.8125 59.421875 
L 7.8125 69.390625 
Q 13.765625 71.78125 18.9375 73 
Q 24.125 74.21875 28.421875 74.21875 
Q 39.75 74.21875 46.484375 68.546875 
Q 53.21875 62.890625 53.21875 53.421875 
Q 53.21875 48.921875 51.53125 44.890625 
Q 49.859375 40.875 45.40625 35.40625 
Q 44.1875 33.984375 37.640625 27.21875 
Q 31.109375 20.453125 19.1875 8.296875 
z
" id="DejaVuSans-50"/>
       </defs>
       <use xlink:href="#DejaVuSans-8722"/>
       <use x="83.789062" xlink:href="#DejaVuSans-50"/>
       <use x="147.412109" xlink:href="#DejaVuSans-48"/>
      </g>
     </g>
    </g>
    <g id="ytick_5">
     <g id="line2d_8">
      <g>
       <use style="stroke:#000000;stroke-width:0.8;" x="65.198912" xlink:href="#m8be5c06b1b" y="122.094593"/>
      </g>
     </g>
     <g id="text_9">
      <!-- 0 -->
      <g transform="translate(51.836412 125.893812)scale(0.1 -0.1)">
       <use xlink:href="#DejaVuSans-48"/>
      </g>
     </g>
    </g>
    <g id="ytick_6">
     <g id="line2d_9">
      <g>
       <use style="stroke:#000000;stroke-width:0.8;" x="65.198912" xlink:href="#m8be5c06b1b" y="74.234821"/>
      </g>
     </g>
     <g id="text_10">
      <!-- 20 -->
      <g transform="translate(45.473912 78.034039)scale(0.1 -0.1)">
       <use xlink:href="#DejaVuSans-50"/>
       <use x="63.623047" xlink:href="#DejaVuSans-48"/>
      </g>
     </g>
    </g>
    <g id="ytick_7">
     <g id="line2d_10">
      <g>
       <use style="stroke:#000000;stroke-width:0.8;" x="65.198912" xlink:href="#m8be5c06b1b" y="26.375048"/>
      </g>
     </g>
     <g id="text_11">
      <!-- 40 -->
      <g transform="translate(45.473912 30.174267)scale(0.1 -0.1)">
       <use xlink:href="#DejaVuSans-52"/>
       <use x="63.623047" xlink:href="#DejaVuSans-48"/>
      </g>
     </g>
    </g>
    <g id="text_12">
     <!-- SI_SNR -->
     <g transform="translate(30.736412 181.907656)rotate(-90)scale(0.1 -0.1)">
      <defs>
       <path d="M 9.8125 72.90625 
L 19.671875 72.90625 
L 19.671875 0 
L 9.8125 0 
z
" id="DejaVuSans-73"/>
       <path d="M 50.984375 -16.609375 
L 50.984375 -23.578125 
L -0.984375 -23.578125 
L -0.984375 -16.609375 
z
" id="DejaVuSans-95"/>
       <path d="M 44.390625 34.1875 
Q 47.5625 33.109375 50.5625 29.59375 
Q 53.5625 26.078125 56.59375 19.921875 
L 66.609375 0 
L 56 0 
L 46.6875 18.703125 
Q 43.0625 26.03125 39.671875 28.421875 
Q 36.28125 30.8125 30.421875 30.8125 
L 19.671875 30.8125 
L 19.671875 0 
L 9.8125 0 
L 9.8125 72.90625 
L 32.078125 72.90625 
Q 44.578125 72.90625 50.734375 67.671875 
Q 56.890625 62.453125 56.890625 51.90625 
Q 56.890625 45.015625 53.6875 40.46875 
Q 50.484375 35.9375 44.390625 34.1875 
z
M 19.671875 64.796875 
L 19.671875 38.921875 
L 32.078125 38.921875 
Q 39.203125 38.921875 42.84375 42.21875 
Q 46.484375 45.515625 46.484375 51.90625 
Q 46.484375 58.296875 42.84375 61.546875 
Q 39.203125 64.796875 32.078125 64.796875 
z
" id="DejaVuSans-82"/>
      </defs>
      <use xlink:href="#DejaVuSans-83"/>
      <use x="63.476562" xlink:href="#DejaVuSans-73"/>
      <use x="92.96875" xlink:href="#DejaVuSans-95"/>
      <use x="142.96875" xlink:href="#DejaVuSans-83"/>
      <use x="206.445312" xlink:href="#DejaVuSans-78"/>
      <use x="281.25" xlink:href="#DejaVuSans-82"/>
     </g>
    </g>
   </g>
   <g id="line2d_11">
    <path clip-path="url(#p955645599f)" d="M 87.783633 127.657532 
L 87.783633 63.841837 
" style="fill:none;stroke:#3d3d3d;stroke-linecap:square;stroke-width:1.5;"/>
   </g>
   <g id="line2d_12">
    <path clip-path="url(#p955645599f)" d="M 87.783633 100.090792 
L 87.783633 81.643273 
" style="fill:none;stroke:#3d3d3d;stroke-linecap:square;stroke-width:4.5;"/>
   </g>
   <g id="line2d_13">
    <path clip-path="url(#p955645599f)" d="M 113.594743 145.959368 
L 113.594743 95.858909 
" style="fill:none;stroke:#3d3d3d;stroke-linecap:square;stroke-width:1.5;"/>
   </g>
   <g id="line2d_14">
    <path clip-path="url(#p955645599f)" d="M 113.594743 126.734497 
L 113.594743 113.852797 
" style="fill:none;stroke:#3d3d3d;stroke-linecap:square;stroke-width:4.5;"/>
   </g>
   <g id="line2d_15">
    <path clip-path="url(#p955645599f)" d="M 139.405853 145.908118 
L 139.405853 95.91544 
" style="fill:none;stroke:#3d3d3d;stroke-linecap:square;stroke-width:1.5;"/>
   </g>
   <g id="line2d_16">
    <path clip-path="url(#p955645599f)" d="M 139.405853 126.815482 
L 139.405853 114.03643 
" style="fill:none;stroke:#3d3d3d;stroke-linecap:square;stroke-width:4.5;"/>
   </g>
   <g id="line2d_17">
    <path clip-path="url(#p955645599f)" d="M 184.575296 107.507712 
L 184.575296 33.802584 
" style="fill:none;stroke:#3d3d3d;stroke-linecap:square;stroke-width:1.5;"/>
   </g>
   <g id="line2d_18">
    <path clip-path="url(#p955645599f)" d="M 184.575296 75.824144 
L 184.575296 54.549549 
" style="fill:none;stroke:#3d3d3d;stroke-linecap:square;stroke-width:4.5;"/>
   </g>
   <g id="line2d_19">
    <path clip-path="url(#p955645599f)" d="M 210.386406 141.32798 
L 210.386406 95.55817 
" style="fill:none;stroke:#3d3d3d;stroke-linecap:square;stroke-width:1.5;"/>
   </g>
   <g id="line2d_20">
    <path clip-path="url(#p955645599f)" d="M 210.386406 123.776469 
L 210.386406 112.071221 
" style="fill:none;stroke:#3d3d3d;stroke-linecap:square;stroke-width:4.5;"/>
   </g>
   <g id="line2d_21">
    <path clip-path="url(#p955645599f)" d="M 236.197516 140.857274 
L 236.197516 95.711328 
" style="fill:none;stroke:#3d3d3d;stroke-linecap:square;stroke-width:1.5;"/>
   </g>
   <g id="line2d_22">
    <path clip-path="url(#p955645599f)" d="M 236.197516 123.969476 
L 236.197516 112.444055 
" style="fill:none;stroke:#3d3d3d;stroke-linecap:square;stroke-width:4.5;"/>
   </g>
   <g id="line2d_23">
    <path clip-path="url(#p955645599f)" d="M 281.366959 122.943693 
L 281.366959 75.122912 
" style="fill:none;stroke:#3d3d3d;stroke-linecap:square;stroke-width:1.5;"/>
   </g>
   <g id="line2d_24">
    <path clip-path="url(#p955645599f)" d="M 281.366959 105.031397 
L 281.366959 93.024264 
" style="fill:none;stroke:#3d3d3d;stroke-linecap:square;stroke-width:4.5;"/>
   </g>
   <g id="line2d_25">
    <path clip-path="url(#p955645599f)" d="M 307.178069 143.546808 
L 307.178069 99.354816 
" style="fill:none;stroke:#3d3d3d;stroke-linecap:square;stroke-width:1.5;"/>
   </g>
   <g id="line2d_26">
    <path clip-path="url(#p955645599f)" d="M 307.178069 126.779515 
L 307.178069 115.5821 
" style="fill:none;stroke:#3d3d3d;stroke-linecap:square;stroke-width:4.5;"/>
   </g>
   <g id="line2d_27">
    <path clip-path="url(#p955645599f)" d="M 332.989179 143.541283 
L 332.989179 100.439465 
" style="fill:none;stroke:#3d3d3d;stroke-linecap:square;stroke-width:1.5;"/>
   </g>
   <g id="line2d_28">
    <path clip-path="url(#p955645599f)" d="M 332.989179 126.950625 
L 332.989179 115.86373 
" style="fill:none;stroke:#3d3d3d;stroke-linecap:square;stroke-width:4.5;"/>
   </g>
   <g id="patch_6">
    <path d="M 65.198912 317.93875 
L 65.198912 10.8 
" style="fill:none;stroke:#000000;stroke-linecap:square;stroke-linejoin:miter;stroke-width:0.8;"/>
   </g>
   <g id="patch_7">
    <path d="M 65.198912 317.93875 
L 355.5739 317.93875 
" style="fill:none;stroke:#000000;stroke-linecap:square;stroke-linejoin:miter;stroke-width:0.8;"/>
   </g>
   <g id="PathCollection_1">
    <defs>
     <path d="M 0 1.5 
C 0.397805 1.5 0.77937 1.341951 1.06066 1.06066 
C 1.341951 0.77937 1.5 0.397805 1.5 0 
C 1.5 -0.397805 1.341951 -0.77937 1.06066 -1.06066 
C 0.77937 -1.341951 0.397805 -1.5 0 -1.5 
C -0.397805 -1.5 -0.77937 -1.341951 -1.06066 -1.06066 
C -1.341951 -0.77937 -1.5 -0.397805 -1.5 0 
C -1.5 0.397805 -1.341951 0.77937 -1.06066 1.06066 
C -0.77937 1.341951 -0.397805 1.5 0 1.5 
z
" id="mcef278823e" style="stroke:#3d3d3d;"/>
    </defs>
    <g clip-path="url(#p955645599f)">
     <use style="fill:#ffffff;stroke:#3d3d3d;" x="87.783633" xlink:href="#mcef278823e" y="88.629634"/>
    </g>
   </g>
   <g id="PathCollection_2">
    <g clip-path="url(#p955645599f)">
     <use style="fill:#ffffff;stroke:#3d3d3d;" x="113.594743" xlink:href="#mcef278823e" y="119.857406"/>
    </g>
   </g>
   <g id="PathCollection_3">
    <g clip-path="url(#p955645599f)">
     <use style="fill:#ffffff;stroke:#3d3d3d;" x="139.405853" xlink:href="#mcef278823e" y="119.838416"/>
    </g>
   </g>
   <g id="PathCollection_4">
    <g clip-path="url(#p955645599f)">
     <use style="fill:#ffffff;stroke:#3d3d3d;" x="184.575296" xlink:href="#mcef278823e" y="63.909514"/>
    </g>
   </g>
   <g id="PathCollection_5">
    <g clip-path="url(#p955645599f)">
     <use style="fill:#ffffff;stroke:#3d3d3d;" x="210.386406" xlink:href="#mcef278823e" y="117.599149"/>
    </g>
   </g>
   <g id="PathCollection_6">
    <g clip-path="url(#p955645599f)">
     <use style="fill:#ffffff;stroke:#3d3d3d;" x="236.197516" xlink:href="#mcef278823e" y="117.940866"/>
    </g>
   </g>
   <g id="PathCollection_7">
    <g clip-path="url(#p955645599f)">
     <use style="fill:#ffffff;stroke:#3d3d3d;" x="281.366959" xlink:href="#mcef278823e" y="98.439305"/>
    </g>
   </g>
   <g id="PathCollection_8">
    <g clip-path="url(#p955645599f)">
     <use style="fill:#ffffff;stroke:#3d3d3d;" x="307.178069" xlink:href="#mcef278823e" y="120.823558"/>
    </g>
   </g>
   <g id="PathCollection_9">
    <g clip-path="url(#p955645599f)">
     <use style="fill:#ffffff;stroke:#3d3d3d;" x="332.989179" xlink:href="#mcef278823e" y="120.982706"/>
    </g>
   </g>
  </g>
  <g id="legend_1">
   <g id="text_13">
    <!-- target_number -->
    <g transform="translate(359.175625 160.603125)scale(0.1 -0.1)">
     <defs>
      <path d="M 41.109375 46.296875 
Q 39.59375 47.171875 37.8125 47.578125 
Q 36.03125 48 33.890625 48 
Q 26.265625 48 22.1875 43.046875 
Q 18.109375 38.09375 18.109375 28.8125 
L 18.109375 0 
L 9.078125 0 
L 9.078125 54.6875 
L 18.109375 54.6875 
L 18.109375 46.1875 
Q 20.953125 51.171875 25.484375 53.578125 
Q 30.03125 56 36.53125 56 
Q 37.453125 56 38.578125 55.875 
Q 39.703125 55.765625 41.0625 55.515625 
z
" id="DejaVuSans-114"/>
      <path d="M 45.40625 27.984375 
Q 45.40625 37.75 41.375 43.109375 
Q 37.359375 48.484375 30.078125 48.484375 
Q 22.859375 48.484375 18.828125 43.109375 
Q 14.796875 37.75 14.796875 27.984375 
Q 14.796875 18.265625 18.828125 12.890625 
Q 22.859375 7.515625 30.078125 7.515625 
Q 37.359375 7.515625 41.375 12.890625 
Q 45.40625 18.265625 45.40625 27.984375 
z
M 54.390625 6.78125 
Q 54.390625 -7.171875 48.1875 -13.984375 
Q 42 -20.796875 29.203125 -20.796875 
Q 24.46875 -20.796875 20.265625 -20.09375 
Q 16.0625 -19.390625 12.109375 -17.921875 
L 12.109375 -9.1875 
Q 16.0625 -11.328125 19.921875 -12.34375 
Q 23.78125 -13.375 27.78125 -13.375 
Q 36.625 -13.375 41.015625 -8.765625 
Q 45.40625 -4.15625 45.40625 5.171875 
L 45.40625 9.625 
Q 42.625 4.78125 38.28125 2.390625 
Q 33.9375 0 27.875 0 
Q 17.828125 0 11.671875 7.65625 
Q 5.515625 15.328125 5.515625 27.984375 
Q 5.515625 40.671875 11.671875 48.328125 
Q 17.828125 56 27.875 56 
Q 33.9375 56 38.28125 53.609375 
Q 42.625 51.21875 45.40625 46.390625 
L 45.40625 54.6875 
L 54.390625 54.6875 
z
" id="DejaVuSans-103"/>
      <path d="M 8.5 21.578125 
L 8.5 54.6875 
L 17.484375 54.6875 
L 17.484375 21.921875 
Q 17.484375 14.15625 20.5 10.265625 
Q 23.53125 6.390625 29.59375 6.390625 
Q 36.859375 6.390625 41.078125 11.03125 
Q 45.3125 15.671875 45.3125 23.6875 
L 45.3125 54.6875 
L 54.296875 54.6875 
L 54.296875 0 
L 45.3125 0 
L 45.3125 8.40625 
Q 42.046875 3.421875 37.71875 1 
Q 33.40625 -1.421875 27.6875 -1.421875 
Q 18.265625 -1.421875 13.375 4.4375 
Q 8.5 10.296875 8.5 21.578125 
z
M 31.109375 56 
z
" id="DejaVuSans-117"/>
      <path d="M 52 44.1875 
Q 55.375 50.25 60.0625 53.125 
Q 64.75 56 71.09375 56 
Q 79.640625 56 84.28125 50.015625 
Q 88.921875 44.046875 88.921875 33.015625 
L 88.921875 0 
L 79.890625 0 
L 79.890625 32.71875 
Q 79.890625 40.578125 77.09375 44.375 
Q 74.3125 48.1875 68.609375 48.1875 
Q 61.625 48.1875 57.5625 43.546875 
Q 53.515625 38.921875 53.515625 30.90625 
L 53.515625 0 
L 44.484375 0 
L 44.484375 32.71875 
Q 44.484375 40.625 41.703125 44.40625 
Q 38.921875 48.1875 33.109375 48.1875 
Q 26.21875 48.1875 22.15625 43.53125 
Q 18.109375 38.875 18.109375 30.90625 
L 18.109375 0 
L 9.078125 0 
L 9.078125 54.6875 
L 18.109375 54.6875 
L 18.109375 46.1875 
Q 21.1875 51.21875 25.484375 53.609375 
Q 29.78125 56 35.6875 56 
Q 41.65625 56 45.828125 52.96875 
Q 50 49.953125 52 44.1875 
z
" id="DejaVuSans-109"/>
      <path d="M 48.6875 27.296875 
Q 48.6875 37.203125 44.609375 42.84375 
Q 40.53125 48.484375 33.40625 48.484375 
Q 26.265625 48.484375 22.1875 42.84375 
Q 18.109375 37.203125 18.109375 27.296875 
Q 18.109375 17.390625 22.1875 11.75 
Q 26.265625 6.109375 33.40625 6.109375 
Q 40.53125 6.109375 44.609375 11.75 
Q 48.6875 17.390625 48.6875 27.296875 
z
M 18.109375 46.390625 
Q 20.953125 51.265625 25.265625 53.625 
Q 29.59375 56 35.59375 56 
Q 45.5625 56 51.78125 48.09375 
Q 58.015625 40.1875 58.015625 27.296875 
Q 58.015625 14.40625 51.78125 6.484375 
Q 45.5625 -1.421875 35.59375 -1.421875 
Q 29.59375 -1.421875 25.265625 0.953125 
Q 20.953125 3.328125 18.109375 8.203125 
L 18.109375 0 
L 9.078125 0 
L 9.078125 75.984375 
L 18.109375 75.984375 
z
" id="DejaVuSans-98"/>
     </defs>
     <use xlink:href="#DejaVuSans-116"/>
     <use x="39.208984" xlink:href="#DejaVuSans-97"/>
     <use x="100.488281" xlink:href="#DejaVuSans-114"/>
     <use x="139.851562" xlink:href="#DejaVuSans-103"/>
     <use x="203.328125" xlink:href="#DejaVuSans-101"/>
     <use x="264.851562" xlink:href="#DejaVuSans-116"/>
     <use x="304.060547" xlink:href="#DejaVuSans-95"/>
     <use x="354.060547" xlink:href="#DejaVuSans-110"/>
     <use x="417.439453" xlink:href="#DejaVuSans-117"/>
     <use x="480.818359" xlink:href="#DejaVuSans-109"/>
     <use x="578.230469" xlink:href="#DejaVuSans-98"/>
     <use x="641.707031" xlink:href="#DejaVuSans-101"/>
     <use x="703.230469" xlink:href="#DejaVuSans-114"/>
    </g>
   </g>
   <g id="patch_8">
    <path d="M 379.211562 175.559375 
L 399.211562 175.559375 
L 399.211562 168.559375 
L 379.211562 168.559375 
z
" style="fill:#3274a1;stroke:#3d3d3d;stroke-linejoin:miter;stroke-width:0.75;"/>
   </g>
   <g id="text_14">
    <!-- 1 -->
    <g transform="translate(407.211562 175.559375)scale(0.1 -0.1)">
     <defs>
      <path d="M 12.40625 8.296875 
L 28.515625 8.296875 
L 28.515625 63.921875 
L 10.984375 60.40625 
L 10.984375 69.390625 
L 28.421875 72.90625 
L 38.28125 72.90625 
L 38.28125 8.296875 
L 54.390625 8.296875 
L 54.390625 0 
L 12.40625 0 
z
" id="DejaVuSans-49"/>
     </defs>
     <use xlink:href="#DejaVuSans-49"/>
    </g>
   </g>
   <g id="patch_9">
    <path d="M 379.211562 190.2375 
L 399.211562 190.2375 
L 399.211562 183.2375 
L 379.211562 183.2375 
z
" style="fill:#e1812c;stroke:#3d3d3d;stroke-linejoin:miter;stroke-width:0.75;"/>
   </g>
   <g id="text_15">
    <!-- 2 -->
    <g transform="translate(407.211562 190.2375)scale(0.1 -0.1)">
     <use xlink:href="#DejaVuSans-50"/>
    </g>
   </g>
   <g id="patch_10">
    <path d="M 379.211562 204.915625 
L 399.211562 204.915625 
L 399.211562 197.915625 
L 379.211562 197.915625 
z
" style="fill:#3a923a;stroke:#3d3d3d;stroke-linejoin:miter;stroke-width:0.75;"/>
   </g>
   <g id="text_16">
    <!-- 3 -->
    <g transform="translate(407.211562 204.915625)scale(0.1 -0.1)">
     <defs>
      <path d="M 40.578125 39.3125 
Q 47.65625 37.796875 51.625 33 
Q 55.609375 28.21875 55.609375 21.1875 
Q 55.609375 10.40625 48.1875 4.484375 
Q 40.765625 -1.421875 27.09375 -1.421875 
Q 22.515625 -1.421875 17.65625 -0.515625 
Q 12.796875 0.390625 7.625 2.203125 
L 7.625 11.71875 
Q 11.71875 9.328125 16.59375 8.109375 
Q 21.484375 6.890625 26.8125 6.890625 
Q 36.078125 6.890625 40.9375 10.546875 
Q 45.796875 14.203125 45.796875 21.1875 
Q 45.796875 27.640625 41.28125 31.265625 
Q 36.765625 34.90625 28.71875 34.90625 
L 20.21875 34.90625 
L 20.21875 43.015625 
L 29.109375 43.015625 
Q 36.375 43.015625 40.234375 45.921875 
Q 44.09375 48.828125 44.09375 54.296875 
Q 44.09375 59.90625 40.109375 62.90625 
Q 36.140625 65.921875 28.71875 65.921875 
Q 24.65625 65.921875 20.015625 65.03125 
Q 15.375 64.15625 9.8125 62.3125 
L 9.8125 71.09375 
Q 15.4375 72.65625 20.34375 73.4375 
Q 25.25 74.21875 29.59375 74.21875 
Q 40.828125 74.21875 47.359375 69.109375 
Q 53.90625 64.015625 53.90625 55.328125 
Q 53.90625 49.265625 50.4375 45.09375 
Q 46.96875 40.921875 40.578125 39.3125 
z
" id="DejaVuSans-51"/>
     </defs>
     <use xlink:href="#DejaVuSans-51"/>
    </g>
   </g>
  </g>
 </g>
 <defs>
  <clipPath id="p955645599f">
   <rect height="307.13875" width="290.374988" x="65.198912" y="10.8"/>
  </clipPath>
 </defs>
</svg>
