<?xml version="1.0" encoding="utf-8" standalone="no"?>
<!DOCTYPE svg PUBLIC "-//W3C//DTD SVG 1.1//EN"
  "http://www.w3.org/Graphics/SVG/1.1/DTD/svg11.dtd">
<!-- Created with matplotlib (https://matplotlib.org/) -->
<svg height="360pt" version="1.1" viewBox="0 0 442.61 360" width="442.61pt" xmlns="http://www.w3.org/2000/svg" xmlns:xlink="http://www.w3.org/1999/xlink">
 <metadata>
  <rdf:RDF xmlns:cc="http://creativecommons.org/ns#" xmlns:dc="http://purl.org/dc/elements/1.1/" xmlns:rdf="http://www.w3.org/1999/02/22-rdf-syntax-ns#">
   <cc:Work>
    <dc:type rdf:resource="http://purl.org/dc/dcmitype/StillImage"/>
    <dc:date>2023-11-13T22:51:54.272698</dc:date>
    <dc:format>image/svg+xml</dc:format>
    <dc:creator>
     <cc:Agent>
      <dc:title>Matplotlib v3.3.4, https://matplotlib.org/</dc:title>
     </cc:Agent>
    </dc:creator>
   </cc:Work>
  </rdf:RDF>
 </metadata>
 <defs>
  <style type="text/css">*{stroke-linecap:butt;stroke-linejoin:round;}</style>
 </defs>
 <g id="figure_1">
  <g id="patch_1">
   <path d="M 0 360 
L 442.61 360 
L 442.61 0 
L 0 0 
z
" style="fill:#ffffff;"/>
  </g>
  <g id="axes_1">
   <g id="patch_2">
    <path d="M 65.198912 317.93875 
L 355.5739 317.93875 
L 355.5739 10.8 
L 65.198912 10.8 
z
" style="fill:#ffffff;"/>
   </g>
   <g id="PolyCollection_1">
    <defs>
     <path d="M 87.78436 -56.022102 
L 87.782906 -56.022102 
L 87.781905 -58.601212 
L 87.780415 -61.180321 
L 87.778937 -63.759431 
L 87.778263 -66.338541 
L 87.77882 -68.91765 
L 87.780253 -71.49676 
L 87.781773 -74.075869 
L 87.782831 -76.654979 
L 87.783362 -79.234088 
L 87.78356 -81.813198 
L 87.783607 -84.392308 
L 87.783576 -86.971417 
L 87.783415 -89.550527 
L 87.78296 -92.129636 
L 87.782002 -94.708746 
L 87.780538 -97.287856 
L 87.779025 -99.866965 
L 87.778231 -102.446075 
L 87.778554 -105.025184 
L 87.77948 -107.604294 
L 87.779846 -110.183403 
L 87.778738 -112.762513 
L 87.776279 -115.341623 
L 87.773738 -117.920732 
L 87.772623 -120.499842 
L 87.773321 -123.078951 
L 87.774689 -125.658061 
L 87.775102 -128.237171 
L 87.773581 -130.81628 
L 87.769763 -133.39539 
L 87.76343 -135.974499 
L 87.754757 -138.553609 
L 87.744518 -141.132718 
L 87.733014 -143.711828 
L 87.718943 -146.290938 
L 87.700408 -148.870047 
L 87.676805 -151.449157 
L 87.647987 -154.028266 
L 87.61154 -156.607376 
L 87.563265 -159.186486 
L 87.50127 -161.765595 
L 87.427889 -164.344705 
L 87.347676 -166.923814 
L 87.266947 -169.502924 
L 87.197254 -172.082033 
L 87.157379 -174.661143 
L 87.167463 -177.240253 
L 87.235401 -179.819362 
L 87.34568 -182.398472 
L 87.464334 -184.977581 
L 87.55954 -187.556691 
L 87.619033 -190.1358 
L 87.649513 -192.71491 
L 87.663579 -195.29402 
L 87.668406 -197.873129 
L 87.663006 -200.452239 
L 87.642947 -203.031348 
L 87.60787 -205.610458 
L 87.565474 -208.189568 
L 87.528062 -210.768677 
L 87.504439 -213.347787 
L 87.494078 -215.926896 
L 87.487973 -218.506006 
L 87.474363 -221.085115 
L 87.443904 -223.664225 
L 87.390988 -226.243335 
L 87.312277 -228.822444 
L 87.205464 -231.401554 
L 87.069685 -233.980663 
L 86.905117 -236.559773 
L 86.709445 -239.138883 
L 86.475339 -241.717992 
L 86.195237 -244.297102 
L 85.869663 -246.876211 
L 85.505767 -249.455321 
L 85.102559 -252.03443 
L 84.640594 -254.61354 
L 84.092806 -257.19265 
L 83.443381 -259.771759 
L 82.689542 -262.350869 
L 81.83381 -264.929978 
L 80.90341 -267.509088 
L 80.003407 -270.088197 
L 79.345127 -272.667307 
L 79.17993 -275.246417 
L 79.653612 -277.825526 
L 80.696142 -280.404636 
L 82.049563 -282.983745 
L 83.413456 -285.562855 
L 84.587379 -288.141965 
L 85.513818 -290.721074 
L 86.226282 -293.300184 
L 86.774145 -295.879293 
L 87.18428 -298.458403 
L 87.467291 -301.037512 
L 87.638719 -303.616622 
L 87.727012 -306.195732 
L 87.764988 -308.774841 
L 87.7785 -311.353951 
L 87.788767 -311.353951 
L 87.788767 -311.353951 
L 87.802279 -308.774841 
L 87.840254 -306.195732 
L 87.928547 -303.616622 
L 88.099976 -301.037512 
L 88.382987 -298.458403 
L 88.793121 -295.879293 
L 89.340985 -293.300184 
L 90.053449 -290.721074 
L 90.979887 -288.141965 
L 92.15381 -285.562855 
L 93.517703 -282.983745 
L 94.871125 -280.404636 
L 95.913654 -277.825526 
L 96.387337 -275.246417 
L 96.222139 -272.667307 
L 95.56386 -270.088197 
L 94.663856 -267.509088 
L 93.733456 -264.929978 
L 92.877724 -262.350869 
L 92.123886 -259.771759 
L 91.47446 -257.19265 
L 90.926672 -254.61354 
L 90.464708 -252.03443 
L 90.0615 -249.455321 
L 89.697604 -246.876211 
L 89.372029 -244.297102 
L 89.091927 -241.717992 
L 88.857822 -239.138883 
L 88.66215 -236.559773 
L 88.497582 -233.980663 
L 88.361802 -231.401554 
L 88.25499 -228.822444 
L 88.176278 -226.243335 
L 88.123363 -223.664225 
L 88.092904 -221.085115 
L 88.079293 -218.506006 
L 88.073188 -215.926896 
L 88.062828 -213.347787 
L 88.039204 -210.768677 
L 88.001792 -208.189568 
L 87.959396 -205.610458 
L 87.92432 -203.031348 
L 87.904261 -200.452239 
L 87.898861 -197.873129 
L 87.903687 -195.29402 
L 87.917754 -192.71491 
L 87.948234 -190.1358 
L 88.007727 -187.556691 
L 88.102933 -184.977581 
L 88.221586 -182.398472 
L 88.331865 -179.819362 
L 88.399804 -177.240253 
L 88.409887 -174.661143 
L 88.370012 -172.082033 
L 88.30032 -169.502924 
L 88.219591 -166.923814 
L 88.139377 -164.344705 
L 88.065996 -161.765595 
L 88.004002 -159.186486 
L 87.955726 -156.607376 
L 87.91928 -154.028266 
L 87.890461 -151.449157 
L 87.866858 -148.870047 
L 87.848324 -146.290938 
L 87.834252 -143.711828 
L 87.822748 -141.132718 
L 87.81251 -138.553609 
L 87.803837 -135.974499 
L 87.797504 -133.39539 
L 87.793685 -130.81628 
L 87.792165 -128.237171 
L 87.792577 -125.658061 
L 87.793945 -123.078951 
L 87.794643 -120.499842 
L 87.793529 -117.920732 
L 87.790988 -115.341623 
L 87.788529 -112.762513 
L 87.78742 -110.183403 
L 87.787787 -107.604294 
L 87.788712 -105.025184 
L 87.789035 -102.446075 
L 87.788242 -99.866965 
L 87.786729 -97.287856 
L 87.785264 -94.708746 
L 87.784307 -92.129636 
L 87.783852 -89.550527 
L 87.783691 -86.971417 
L 87.783659 -84.392308 
L 87.783707 -81.813198 
L 87.783905 -79.234088 
L 87.784435 -76.654979 
L 87.785493 -74.075869 
L 87.787013 -71.49676 
L 87.788446 -68.91765 
L 87.789004 -66.338541 
L 87.788329 -63.759431 
L 87.786851 -61.180321 
L 87.785361 -58.601212 
L 87.78436 -56.022102 
z
" id="m858ffa7bc3" style="stroke:#3d3d3d;stroke-width:1.5;"/>
    </defs>
    <g clip-path="url(#p98535eb959)">
     <use style="fill:#3274a1;stroke:#3d3d3d;stroke-width:1.5;" x="0" xlink:href="#m858ffa7bc3" y="360"/>
    </g>
   </g>
   <g id="PolyCollection_2">
    <defs>
     <path d="M 113.596006 -65.646268 
L 113.59348 -65.646268 
L 113.590059 -67.658511 
L 113.58596 -69.670755 
L 113.586417 -71.682999 
L 113.590751 -73.695242 
L 113.593762 -75.707486 
L 113.59443 -77.71973 
L 113.593361 -79.731973 
L 113.58982 -81.744217 
L 113.585836 -83.75646 
L 113.586593 -85.768704 
L 113.590948 -87.780948 
L 113.593556 -89.793191 
L 113.592756 -91.805435 
L 113.588867 -93.817679 
L 113.585448 -95.829922 
L 113.586758 -97.842166 
L 113.587874 -99.854409 
L 113.581324 -101.866653 
L 113.571862 -103.878897 
L 113.571388 -105.89114 
L 113.580219 -107.903384 
L 113.589199 -109.915628 
L 113.593206 -111.927871 
L 113.592636 -113.940115 
L 113.588528 -115.952358 
L 113.583627 -117.964602 
L 113.579809 -119.976846 
L 113.574553 -121.989089 
L 113.571189 -124.001333 
L 113.573522 -126.013577 
L 113.575918 -128.02582 
L 113.573408 -130.038064 
L 113.569265 -132.050307 
L 113.563011 -134.062551 
L 113.553092 -136.074795 
L 113.553976 -138.087038 
L 113.570601 -140.099282 
L 113.583323 -142.111525 
L 113.579356 -144.123769 
L 113.56548 -146.136013 
L 113.555397 -148.148256 
L 113.545804 -150.1605 
L 113.524096 -152.172744 
L 113.50961 -154.184987 
L 113.516608 -156.197231 
L 113.516442 -158.209474 
L 113.502116 -160.221718 
L 113.496844 -162.233962 
L 113.494803 -164.246205 
L 113.479776 -166.258449 
L 113.462831 -168.270693 
L 113.45191 -170.282936 
L 113.443666 -172.29518 
L 113.440753 -174.307423 
L 113.427665 -176.319667 
L 113.393495 -178.331911 
L 113.36577 -180.344154 
L 113.358647 -182.356398 
L 113.359762 -184.368642 
L 113.362169 -186.380885 
L 113.337073 -188.393129 
L 113.249326 -190.405372 
L 113.120133 -192.417616 
L 112.992925 -194.42986 
L 112.839716 -196.442103 
L 112.622309 -198.454347 
L 112.389259 -200.466591 
L 112.125173 -202.478834 
L 111.695203 -204.491078 
L 111.035764 -206.503321 
L 110.178268 -208.515565 
L 109.141442 -210.527809 
L 107.990279 -212.540052 
L 106.943523 -214.552296 
L 106.127469 -216.564539 
L 105.285728 -218.576783 
L 104.152288 -220.589027 
L 102.93315 -222.60127 
L 101.969877 -224.613514 
L 101.257762 -226.625758 
L 100.740325 -228.638001 
L 100.689188 -230.650245 
L 101.3227 -232.662488 
L 102.585223 -234.674732 
L 104.442831 -236.686976 
L 106.590837 -238.699219 
L 108.485109 -240.711463 
L 109.960836 -242.723707 
L 111.154992 -244.73595 
L 112.102659 -246.748194 
L 112.755795 -248.760437 
L 113.144321 -250.772681 
L 113.362257 -252.784925 
L 113.482643 -254.797168 
L 113.538071 -256.809412 
L 113.55924 -258.821656 
L 113.573676 -260.833899 
L 113.586454 -262.846143 
L 113.592886 -264.858386 
L 113.5966 -264.858386 
L 113.5966 -264.858386 
L 113.603033 -262.846143 
L 113.61581 -260.833899 
L 113.630247 -258.821656 
L 113.651415 -256.809412 
L 113.706844 -254.797168 
L 113.82723 -252.784925 
L 114.045166 -250.772681 
L 114.433692 -248.760437 
L 115.086828 -246.748194 
L 116.034495 -244.73595 
L 117.228651 -242.723707 
L 118.704378 -240.711463 
L 120.598649 -238.699219 
L 122.746656 -236.686976 
L 124.604263 -234.674732 
L 125.866787 -232.662488 
L 126.500298 -230.650245 
L 126.449161 -228.638001 
L 125.931725 -226.625758 
L 125.21961 -224.613514 
L 124.256337 -222.60127 
L 123.037199 -220.589027 
L 121.903758 -218.576783 
L 121.062018 -216.564539 
L 120.245963 -214.552296 
L 119.199207 -212.540052 
L 118.048045 -210.527809 
L 117.011218 -208.515565 
L 116.153722 -206.503321 
L 115.494284 -204.491078 
L 115.064313 -202.478834 
L 114.800227 -200.466591 
L 114.567177 -198.454347 
L 114.349771 -196.442103 
L 114.196562 -194.42986 
L 114.069354 -192.417616 
L 113.940161 -190.405372 
L 113.852413 -188.393129 
L 113.827318 -186.380885 
L 113.829725 -184.368642 
L 113.83084 -182.356398 
L 113.823717 -180.344154 
L 113.795992 -178.331911 
L 113.761821 -176.319667 
L 113.748734 -174.307423 
L 113.74582 -172.29518 
L 113.737576 -170.282936 
L 113.726655 -168.270693 
L 113.709711 -166.258449 
L 113.694684 -164.246205 
L 113.692643 -162.233962 
L 113.687371 -160.221718 
L 113.673044 -158.209474 
L 113.672879 -156.197231 
L 113.679877 -154.184987 
L 113.665391 -152.172744 
L 113.643682 -150.1605 
L 113.63409 -148.148256 
L 113.624007 -146.136013 
L 113.610131 -144.123769 
L 113.606164 -142.111525 
L 113.618886 -140.099282 
L 113.635511 -138.087038 
L 113.636395 -136.074795 
L 113.626475 -134.062551 
L 113.620222 -132.050307 
L 113.616078 -130.038064 
L 113.613569 -128.02582 
L 113.615965 -126.013577 
L 113.618298 -124.001333 
L 113.614933 -121.989089 
L 113.609678 -119.976846 
L 113.60586 -117.964602 
L 113.600959 -115.952358 
L 113.596851 -113.940115 
L 113.596281 -111.927871 
L 113.600287 -109.915628 
L 113.609268 -107.903384 
L 113.618099 -105.89114 
L 113.617625 -103.878897 
L 113.608163 -101.866653 
L 113.601612 -99.854409 
L 113.602729 -97.842166 
L 113.604039 -95.829922 
L 113.60062 -93.817679 
L 113.596731 -91.805435 
L 113.595931 -89.793191 
L 113.598538 -87.780948 
L 113.602894 -85.768704 
L 113.603651 -83.75646 
L 113.599666 -81.744217 
L 113.596126 -79.731973 
L 113.595056 -77.71973 
L 113.595724 -75.707486 
L 113.598735 -73.695242 
L 113.60307 -71.682999 
L 113.603526 -69.670755 
L 113.599427 -67.658511 
L 113.596006 -65.646268 
z
" id="m52fff69bbb" style="stroke:#3d3d3d;stroke-width:1.5;"/>
    </defs>
    <g clip-path="url(#p98535eb959)">
     <use style="fill:#e1812c;stroke:#3d3d3d;stroke-width:1.5;" x="0" xlink:href="#m52fff69bbb" y="360"/>
    </g>
   </g>
   <g id="PolyCollection_3">
    <defs>
     <path d="M 139.407032 -90.936218 
L 139.404674 -90.936218 
L 139.40224 -92.696598 
L 139.398816 -94.456977 
L 139.397144 -96.217357 
L 139.399004 -97.977736 
L 139.40243 -99.738116 
L 139.404766 -101.498496 
L 139.405634 -103.258875 
L 139.405825 -105.019255 
L 139.405851 -106.779634 
L 139.405853 -108.540014 
L 139.405853 -110.300393 
L 139.405853 -112.060773 
L 139.405848 -113.821152 
L 139.405797 -115.581532 
L 139.405473 -117.341912 
L 139.40422 -119.102291 
L 139.401389 -120.862671 
L 139.398101 -122.62305 
L 139.397297 -124.38343 
L 139.39983 -126.143809 
L 139.402978 -127.904189 
L 139.404073 -129.664569 
L 139.40243 -131.424948 
L 139.399129 -133.185328 
L 139.397151 -134.945707 
L 139.398666 -136.706087 
L 139.401933 -138.466466 
L 139.403561 -140.226846 
L 139.401218 -141.987225 
L 139.393453 -143.747605 
L 139.381738 -145.507985 
L 139.372166 -147.268364 
L 139.368743 -149.028744 
L 139.367551 -150.789123 
L 139.366057 -152.549503 
L 139.369378 -154.309882 
L 139.377433 -156.070262 
L 139.381188 -157.830642 
L 139.376728 -159.591021 
L 139.368593 -161.351401 
L 139.360524 -163.11178 
L 139.352189 -164.87216 
L 139.343991 -166.632539 
L 139.340194 -168.392919 
L 139.343223 -170.153298 
L 139.348447 -171.913678 
L 139.350677 -173.674058 
L 139.349148 -175.434437 
L 139.34266 -177.194817 
L 139.330216 -178.955196 
L 139.315611 -180.715576 
L 139.304582 -182.475955 
L 139.301356 -184.236335 
L 139.302338 -185.996715 
L 139.291129 -187.757094 
L 139.252916 -189.517474 
L 139.191896 -191.277853 
L 139.125886 -193.038233 
L 139.060046 -194.798612 
L 138.977441 -196.558992 
L 138.873292 -198.319371 
L 138.764182 -200.079751 
L 138.644032 -201.840131 
L 138.472403 -203.60051 
L 138.215809 -205.36089 
L 137.879181 -207.121269 
L 137.489576 -208.881649 
L 137.05283 -210.642028 
L 136.561411 -212.402408 
L 136.062504 -214.162788 
L 135.645347 -215.923167 
L 135.310723 -217.683547 
L 134.941106 -219.443926 
L 134.460422 -221.204306 
L 133.935831 -222.964685 
L 133.478424 -224.725065 
L 133.13994 -226.485444 
L 132.953076 -228.245824 
L 132.967185 -230.006204 
L 133.187464 -231.766583 
L 133.582436 -233.526963 
L 134.194218 -235.287342 
L 135.07448 -237.047722 
L 136.085718 -238.808101 
L 136.980831 -240.568481 
L 137.657349 -242.328861 
L 138.171084 -244.08924 
L 138.579398 -245.84962 
L 138.88516 -247.609999 
L 139.088367 -249.370379 
L 139.21588 -251.130758 
L 139.299315 -252.891138 
L 139.353706 -254.651517 
L 139.382997 -256.411897 
L 139.39349 -258.172277 
L 139.396032 -259.932656 
L 139.398663 -261.693036 
L 139.402226 -263.453415 
L 139.404674 -265.213795 
L 139.407033 -265.213795 
L 139.407033 -265.213795 
L 139.409481 -263.453415 
L 139.413044 -261.693036 
L 139.415674 -259.932656 
L 139.418217 -258.172277 
L 139.42871 -256.411897 
L 139.458001 -254.651517 
L 139.512392 -252.891138 
L 139.595827 -251.130758 
L 139.723339 -249.370379 
L 139.926546 -247.609999 
L 140.232309 -245.84962 
L 140.640623 -244.08924 
L 141.154357 -242.328861 
L 141.830876 -240.568481 
L 142.725989 -238.808101 
L 143.737226 -237.047722 
L 144.617489 -235.287342 
L 145.22927 -233.526963 
L 145.624242 -231.766583 
L 145.844522 -230.006204 
L 145.858631 -228.245824 
L 145.671767 -226.485444 
L 145.333283 -224.725065 
L 144.875876 -222.964685 
L 144.351284 -221.204306 
L 143.870601 -219.443926 
L 143.500984 -217.683547 
L 143.16636 -215.923167 
L 142.749203 -214.162788 
L 142.250296 -212.402408 
L 141.758876 -210.642028 
L 141.32213 -208.881649 
L 140.932526 -207.121269 
L 140.595897 -205.36089 
L 140.339303 -203.60051 
L 140.167674 -201.840131 
L 140.047525 -200.079751 
L 139.938415 -198.319371 
L 139.834266 -196.558992 
L 139.751661 -194.798612 
L 139.685821 -193.038233 
L 139.619811 -191.277853 
L 139.55879 -189.517474 
L 139.520578 -187.757094 
L 139.509369 -185.996715 
L 139.510351 -184.236335 
L 139.507125 -182.475955 
L 139.496095 -180.715576 
L 139.48149 -178.955196 
L 139.469047 -177.194817 
L 139.462559 -175.434437 
L 139.46103 -173.674058 
L 139.463259 -171.913678 
L 139.468484 -170.153298 
L 139.471512 -168.392919 
L 139.467716 -166.632539 
L 139.459518 -164.87216 
L 139.451183 -163.11178 
L 139.443113 -161.351401 
L 139.434978 -159.591021 
L 139.430519 -157.830642 
L 139.434273 -156.070262 
L 139.442329 -154.309882 
L 139.445649 -152.549503 
L 139.444156 -150.789123 
L 139.442964 -149.028744 
L 139.439541 -147.268364 
L 139.429969 -145.507985 
L 139.418253 -143.747605 
L 139.410488 -141.987225 
L 139.408146 -140.226846 
L 139.409773 -138.466466 
L 139.41304 -136.706087 
L 139.414556 -134.945707 
L 139.412578 -133.185328 
L 139.409277 -131.424948 
L 139.407634 -129.664569 
L 139.408728 -127.904189 
L 139.411877 -126.143809 
L 139.414409 -124.38343 
L 139.413606 -122.62305 
L 139.410318 -120.862671 
L 139.407487 -119.102291 
L 139.406233 -117.341912 
L 139.405909 -115.581532 
L 139.405859 -113.821152 
L 139.405854 -112.060773 
L 139.405853 -110.300393 
L 139.405853 -108.540014 
L 139.405856 -106.779634 
L 139.405881 -105.019255 
L 139.406073 -103.258875 
L 139.40694 -101.498496 
L 139.409276 -99.738116 
L 139.412702 -97.977736 
L 139.414562 -96.217357 
L 139.41289 -94.456977 
L 139.409466 -92.696598 
L 139.407032 -90.936218 
z
" id="mdaa40dd8df" style="stroke:#3d3d3d;stroke-width:1.5;"/>
    </defs>
    <g clip-path="url(#p98535eb959)">
     <use style="fill:#3a923a;stroke:#3d3d3d;stroke-width:1.5;" x="0" xlink:href="#mdaa40dd8df" y="360"/>
    </g>
   </g>
   <g id="PolyCollection_4">
    <defs>
     <path d="M 184.576257 -133.30094 
L 184.574335 -133.30094 
L 184.573262 -135.34072 
L 184.571677 -137.3805 
L 184.569871 -139.42028 
L 184.568402 -141.46006 
L 184.567748 -143.499839 
L 184.567897 -145.539619 
L 184.568299 -147.579399 
L 184.568307 -149.619179 
L 184.567717 -151.658959 
L 184.566861 -153.698739 
L 184.566199 -155.738519 
L 184.565901 -157.778299 
L 184.565886 -159.818078 
L 184.566157 -161.857858 
L 184.566927 -163.897638 
L 184.568329 -165.937418 
L 184.570095 -167.977198 
L 184.571551 -170.016978 
L 184.571827 -172.056758 
L 184.569984 -174.096538 
L 184.565074 -176.136317 
L 184.556329 -178.176097 
L 184.543414 -180.215877 
L 184.526133 -182.255657 
L 184.503122 -184.295437 
L 184.470054 -186.335217 
L 184.419009 -188.374997 
L 184.340777 -190.414777 
L 184.230562 -192.454556 
L 184.095196 -194.494336 
L 183.957342 -196.534116 
L 183.851539 -198.573896 
L 183.810884 -200.613676 
L 183.85057 -202.653456 
L 183.959005 -204.693236 
L 184.103237 -206.733016 
L 184.245206 -208.772795 
L 184.3578 -210.812575 
L 184.431424 -212.852355 
L 184.470111 -214.892135 
L 184.482999 -216.931915 
L 184.477621 -218.971695 
L 184.457811 -221.011475 
L 184.425294 -223.051255 
L 184.382399 -225.091034 
L 184.333678 -227.130814 
L 184.285417 -229.170594 
L 184.243214 -231.210374 
L 184.208975 -233.250154 
L 184.179621 -235.289934 
L 184.14911 -237.329714 
L 184.112439 -239.369494 
L 184.067909 -241.409273 
L 184.015304 -243.449053 
L 183.952308 -245.488833 
L 183.873896 -247.528613 
L 183.775885 -249.568393 
L 183.658445 -251.608173 
L 183.525258 -253.647953 
L 183.379341 -255.687733 
L 183.220335 -257.727512 
L 183.046388 -259.767292 
L 182.858947 -261.807072 
L 182.664806 -263.846852 
L 182.470735 -265.886632 
L 182.273699 -267.926412 
L 182.05757 -269.966192 
L 181.803751 -272.005972 
L 181.508019 -274.045751 
L 181.185984 -276.085531 
L 180.859755 -278.125311 
L 180.538978 -280.165091 
L 180.215196 -282.204871 
L 179.871756 -284.244651 
L 179.494209 -286.284431 
L 179.070593 -288.324211 
L 178.588894 -290.36399 
L 178.044585 -292.40377 
L 177.457096 -294.44355 
L 176.879553 -296.48333 
L 176.389781 -298.52311 
L 176.067384 -300.56289 
L 175.971593 -302.60267 
L 176.129085 -304.64245 
L 176.531434 -306.682229 
L 177.139947 -308.722009 
L 177.897509 -310.761789 
L 178.744482 -312.801569 
L 179.631163 -314.841349 
L 180.520545 -316.881129 
L 181.382367 -318.920909 
L 182.185494 -320.960689 
L 182.895686 -323.000468 
L 183.481284 -325.040248 
L 183.92357 -327.080028 
L 184.224644 -329.119808 
L 184.40685 -331.159588 
L 184.503785 -333.199368 
L 184.548703 -335.239148 
L 184.601889 -335.239148 
L 184.601889 -335.239148 
L 184.646807 -333.199368 
L 184.743741 -331.159588 
L 184.925947 -329.119808 
L 185.227022 -327.080028 
L 185.669308 -325.040248 
L 186.254906 -323.000468 
L 186.965098 -320.960689 
L 187.768225 -318.920909 
L 188.630047 -316.881129 
L 189.519429 -314.841349 
L 190.40611 -312.801569 
L 191.253083 -310.761789 
L 192.010645 -308.722009 
L 192.619158 -306.682229 
L 193.021507 -304.64245 
L 193.178999 -302.60267 
L 193.083208 -300.56289 
L 192.76081 -298.52311 
L 192.271039 -296.48333 
L 191.693496 -294.44355 
L 191.106007 -292.40377 
L 190.561698 -290.36399 
L 190.079998 -288.324211 
L 189.656382 -286.284431 
L 189.278836 -284.244651 
L 188.935396 -282.204871 
L 188.611614 -280.165091 
L 188.290837 -278.125311 
L 187.964608 -276.085531 
L 187.642573 -274.045751 
L 187.346841 -272.005972 
L 187.093022 -269.966192 
L 186.876893 -267.926412 
L 186.679857 -265.886632 
L 186.485786 -263.846852 
L 186.291645 -261.807072 
L 186.104204 -259.767292 
L 185.930257 -257.727512 
L 185.771251 -255.687733 
L 185.625334 -253.647953 
L 185.492147 -251.608173 
L 185.374707 -249.568393 
L 185.276696 -247.528613 
L 185.198284 -245.488833 
L 185.135288 -243.449053 
L 185.082683 -241.409273 
L 185.038153 -239.369494 
L 185.001482 -237.329714 
L 184.97097 -235.289934 
L 184.941617 -233.250154 
L 184.907377 -231.210374 
L 184.865175 -229.170594 
L 184.816913 -227.130814 
L 184.768193 -225.091034 
L 184.725298 -223.051255 
L 184.692781 -221.011475 
L 184.672971 -218.971695 
L 184.667593 -216.931915 
L 184.68048 -214.892135 
L 184.719168 -212.852355 
L 184.792792 -210.812575 
L 184.905385 -208.772795 
L 185.047355 -206.733016 
L 185.191587 -204.693236 
L 185.300021 -202.653456 
L 185.339707 -200.613676 
L 185.299053 -198.573896 
L 185.19325 -196.534116 
L 185.055396 -194.494336 
L 184.92003 -192.454556 
L 184.809815 -190.414777 
L 184.731582 -188.374997 
L 184.680538 -186.335217 
L 184.64747 -184.295437 
L 184.624459 -182.255657 
L 184.607178 -180.215877 
L 184.594263 -178.176097 
L 184.585518 -176.136317 
L 184.580608 -174.096538 
L 184.578765 -172.056758 
L 184.579041 -170.016978 
L 184.580497 -167.977198 
L 184.582263 -165.937418 
L 184.583665 -163.897638 
L 184.584434 -161.857858 
L 184.584706 -159.818078 
L 184.584691 -157.778299 
L 184.584393 -155.738519 
L 184.583731 -153.698739 
L 184.582875 -151.658959 
L 184.582285 -149.619179 
L 184.582293 -147.579399 
L 184.582694 -145.539619 
L 184.582844 -143.499839 
L 184.58219 -141.46006 
L 184.580721 -139.42028 
L 184.578915 -137.3805 
L 184.57733 -135.34072 
L 184.576257 -133.30094 
z
" id="md86f51028a" style="stroke:#3d3d3d;stroke-width:1.5;"/>
    </defs>
    <g clip-path="url(#p98535eb959)">
     <use style="fill:#3274a1;stroke:#3d3d3d;stroke-width:1.5;" x="0" xlink:href="#md86f51028a" y="360"/>
    </g>
   </g>
   <g id="PolyCollection_5">
    <defs>
     <path d="M 210.388842 -61.074372 
L 210.38397 -61.074372 
L 210.37599 -63.176026 
L 210.364743 -65.27768 
L 210.362947 -67.379335 
L 210.372184 -69.480989 
L 210.381532 -71.582643 
L 210.385521 -73.684298 
L 210.386323 -75.785952 
L 210.386317 -77.887606 
L 210.385533 -79.989261 
L 210.382356 -82.090915 
L 210.37786 -84.192569 
L 210.378208 -86.294223 
L 210.382831 -88.395878 
L 210.385697 -90.497532 
L 210.386342 -92.599186 
L 210.386401 -94.700841 
L 210.386348 -96.802495 
L 210.385737 -98.904149 
L 210.382842 -101.005804 
L 210.377139 -103.107458 
L 210.372917 -105.209112 
L 210.373237 -107.310767 
L 210.377936 -109.412421 
L 210.38343 -111.514075 
L 210.3859 -113.61573 
L 210.386348 -115.717384 
L 210.386065 -117.819038 
L 210.383406 -119.920693 
L 210.373879 -122.022347 
L 210.361174 -124.124001 
L 210.360059 -126.225655 
L 210.367 -128.32731 
L 210.367016 -130.428964 
L 210.357925 -132.530618 
L 210.347958 -134.632273 
L 210.350695 -136.733927 
L 210.364808 -138.835581 
L 210.373061 -140.937236 
L 210.369681 -143.03889 
L 210.361317 -145.140544 
L 210.353944 -147.242199 
L 210.349766 -149.343853 
L 210.343143 -151.445507 
L 210.335133 -153.547162 
L 210.337045 -155.648816 
L 210.339772 -157.75047 
L 210.330015 -159.852124 
L 210.318177 -161.953779 
L 210.301453 -164.055433 
L 210.267078 -166.157087 
L 210.241743 -168.258742 
L 210.254407 -170.360396 
L 210.28444 -172.46205 
L 210.283173 -174.563705 
L 210.247929 -176.665359 
L 210.228 -178.767013 
L 210.227749 -180.868668 
L 210.209238 -182.970322 
L 210.178005 -185.071976 
L 210.14229 -187.173631 
L 210.083426 -189.275285 
L 210.032542 -191.376939 
L 209.992712 -193.478594 
L 209.890812 -195.580248 
L 209.71128 -197.681902 
L 209.527507 -199.783556 
L 209.350723 -201.885211 
L 209.062749 -203.986865 
L 208.48817 -206.088519 
L 207.57867 -208.190174 
L 206.491493 -210.291828 
L 205.391778 -212.393482 
L 204.232047 -214.495137 
L 203.040005 -216.596791 
L 201.996644 -218.698445 
L 200.999087 -220.8001 
L 199.872662 -222.901754 
L 198.704855 -225.003408 
L 197.749924 -227.105063 
L 197.480851 -229.206717 
L 198.030839 -231.308371 
L 198.988377 -233.410025 
L 200.423253 -235.51168 
L 202.440931 -237.613334 
L 204.464741 -239.714988 
L 206.139384 -241.816643 
L 207.477607 -243.918297 
L 208.489045 -246.019951 
L 209.235377 -248.121606 
L 209.754354 -250.22326 
L 210.062528 -252.324914 
L 210.225178 -254.426569 
L 210.299487 -256.528223 
L 210.331158 -258.629877 
L 210.351654 -260.731532 
L 210.366319 -262.833186 
L 210.374548 -264.93484 
L 210.381096 -267.036495 
L 210.385136 -269.138149 
L 210.387676 -269.138149 
L 210.387676 -269.138149 
L 210.391716 -267.036495 
L 210.398264 -264.93484 
L 210.406493 -262.833186 
L 210.421158 -260.731532 
L 210.441654 -258.629877 
L 210.473325 -256.528223 
L 210.547634 -254.426569 
L 210.710284 -252.324914 
L 211.018458 -250.22326 
L 211.537435 -248.121606 
L 212.283766 -246.019951 
L 213.295205 -243.918297 
L 214.633428 -241.816643 
L 216.308071 -239.714988 
L 218.331881 -237.613334 
L 220.349559 -235.51168 
L 221.784435 -233.410025 
L 222.741973 -231.308371 
L 223.291961 -229.206717 
L 223.022888 -227.105063 
L 222.067957 -225.003408 
L 220.90015 -222.901754 
L 219.773725 -220.8001 
L 218.776168 -218.698445 
L 217.732807 -216.596791 
L 216.540765 -214.495137 
L 215.381034 -212.393482 
L 214.281319 -210.291828 
L 213.194142 -208.190174 
L 212.284642 -206.088519 
L 211.710063 -203.986865 
L 211.422089 -201.885211 
L 211.245305 -199.783556 
L 211.061532 -197.681902 
L 210.882 -195.580248 
L 210.7801 -193.478594 
L 210.74027 -191.376939 
L 210.689386 -189.275285 
L 210.630522 -187.173631 
L 210.594807 -185.071976 
L 210.563574 -182.970322 
L 210.545063 -180.868668 
L 210.544812 -178.767013 
L 210.524883 -176.665359 
L 210.489639 -174.563705 
L 210.488372 -172.46205 
L 210.518405 -170.360396 
L 210.531069 -168.258742 
L 210.505734 -166.157087 
L 210.471359 -164.055433 
L 210.454635 -161.953779 
L 210.442797 -159.852124 
L 210.43304 -157.75047 
L 210.435767 -155.648816 
L 210.437679 -153.547162 
L 210.429669 -151.445507 
L 210.423046 -149.343853 
L 210.418868 -147.242199 
L 210.411495 -145.140544 
L 210.403131 -143.03889 
L 210.399751 -140.937236 
L 210.408004 -138.835581 
L 210.422117 -136.733927 
L 210.424854 -134.632273 
L 210.414887 -132.530618 
L 210.405796 -130.428964 
L 210.405812 -128.32731 
L 210.412752 -126.225655 
L 210.411638 -124.124001 
L 210.398933 -122.022347 
L 210.389405 -119.920693 
L 210.386747 -117.819038 
L 210.386464 -115.717384 
L 210.386912 -113.61573 
L 210.389382 -111.514075 
L 210.394876 -109.412421 
L 210.399575 -107.310767 
L 210.399894 -105.209112 
L 210.395673 -103.107458 
L 210.38997 -101.005804 
L 210.387075 -98.904149 
L 210.386464 -96.802495 
L 210.386411 -94.700841 
L 210.38647 -92.599186 
L 210.387115 -90.497532 
L 210.389981 -88.395878 
L 210.394604 -86.294223 
L 210.394952 -84.192569 
L 210.390456 -82.090915 
L 210.387278 -79.989261 
L 210.386495 -77.887606 
L 210.386489 -75.785952 
L 210.387291 -73.684298 
L 210.39128 -71.582643 
L 210.400628 -69.480989 
L 210.409865 -67.379335 
L 210.408069 -65.27768 
L 210.396822 -63.176026 
L 210.388842 -61.074372 
z
" id="m0833213191" style="stroke:#3d3d3d;stroke-width:1.5;"/>
    </defs>
    <g clip-path="url(#p98535eb959)">
     <use style="fill:#e1812c;stroke:#3d3d3d;stroke-width:1.5;" x="0" xlink:href="#m0833213191" y="360"/>
    </g>
   </g>
   <g id="PolyCollection_6">
    <defs>
     <path d="M 236.19872 -60.60217 
L 236.196312 -60.60217 
L 236.1929 -62.677229 
L 236.187081 -64.752287 
L 236.183113 -66.827345 
L 236.185137 -68.902403 
L 236.190956 -70.977461 
L 236.195439 -73.052519 
L 236.197129 -75.127578 
L 236.197378 -77.202636 
L 236.19678 -79.277694 
L 236.194538 -81.352752 
L 236.190907 -83.42781 
L 236.189492 -85.502869 
L 236.192187 -87.577927 
L 236.19558 -89.652985 
L 236.197131 -91.728043 
L 236.197474 -93.803101 
L 236.197513 -95.878159 
L 236.197508 -97.953218 
L 236.19741 -100.028276 
L 236.196746 -102.103334 
L 236.194446 -104.178392 
L 236.190816 -106.25345 
L 236.189518 -108.328509 
L 236.192293 -110.403567 
L 236.19565 -112.478625 
L 236.197147 -114.553683 
L 236.197406 -116.628741 
L 236.19694 -118.703799 
L 236.194965 -120.778858 
L 236.191185 -122.853916 
L 236.188134 -124.928974 
L 236.187199 -127.004032 
L 236.185871 -129.07909 
L 236.183171 -131.154149 
L 236.17927 -133.229207 
L 236.175818 -135.304265 
L 236.177238 -137.379323 
L 236.182538 -139.454381 
L 236.185006 -141.52944 
L 236.183092 -143.604498 
L 236.178807 -145.679556 
L 236.173146 -147.754614 
L 236.169311 -149.829672 
L 236.169986 -151.90473 
L 236.173408 -153.979789 
L 236.176771 -156.054847 
L 236.179801 -158.129905 
L 236.18288 -160.204963 
L 236.180763 -162.280021 
L 236.16566 -164.35508 
L 236.146779 -166.430138 
L 236.147328 -168.505196 
L 236.166177 -170.580254 
L 236.175698 -172.655312 
L 236.161233 -174.73037 
L 236.136352 -176.805429 
L 236.122704 -178.880487 
L 236.124223 -180.955545 
L 236.129431 -183.030603 
L 236.123838 -185.105661 
L 236.099722 -187.18072 
L 236.068303 -189.255778 
L 236.048434 -191.330836 
L 236.040589 -193.405894 
L 236.024471 -195.480952 
L 235.979113 -197.55601 
L 235.892687 -199.631069 
L 235.756264 -201.706127 
L 235.545944 -203.781185 
L 235.202376 -205.856243 
L 234.698541 -207.931301 
L 234.130215 -210.00636 
L 233.595114 -212.081418 
L 233.058589 -214.156476 
L 232.50318 -216.231534 
L 231.996202 -218.306592 
L 231.518123 -220.38165 
L 230.982319 -222.456709 
L 230.414085 -224.531767 
L 229.944636 -226.606825 
L 229.744739 -228.681883 
L 229.915886 -230.756941 
L 230.404922 -232.832 
L 231.1457 -234.907058 
L 232.099077 -236.982116 
L 233.115765 -239.057174 
L 234.021905 -241.132232 
L 234.736082 -243.207291 
L 235.257889 -245.282349 
L 235.629764 -247.357407 
L 235.88176 -249.432465 
L 236.035613 -251.507523 
L 236.123741 -253.582581 
L 236.166963 -255.65764 
L 236.181501 -257.732698 
L 236.185445 -259.807756 
L 236.18902 -261.882814 
L 236.193502 -263.957872 
L 236.196404 -266.032931 
L 236.198628 -266.032931 
L 236.198628 -266.032931 
L 236.20153 -263.957872 
L 236.206012 -261.882814 
L 236.209587 -259.807756 
L 236.213531 -257.732698 
L 236.228069 -255.65764 
L 236.271291 -253.582581 
L 236.359419 -251.507523 
L 236.513272 -249.432465 
L 236.765268 -247.357407 
L 237.137143 -245.282349 
L 237.658951 -243.207291 
L 238.373127 -241.132232 
L 239.279267 -239.057174 
L 240.295955 -236.982116 
L 241.249332 -234.907058 
L 241.99011 -232.832 
L 242.479147 -230.756941 
L 242.650294 -228.681883 
L 242.450396 -226.606825 
L 241.980947 -224.531767 
L 241.412713 -222.456709 
L 240.876909 -220.38165 
L 240.39883 -218.306592 
L 239.891852 -216.231534 
L 239.336444 -214.156476 
L 238.799918 -212.081418 
L 238.264817 -210.00636 
L 237.696491 -207.931301 
L 237.192656 -205.856243 
L 236.849089 -203.781185 
L 236.638768 -201.706127 
L 236.502345 -199.631069 
L 236.415919 -197.55601 
L 236.370562 -195.480952 
L 236.354443 -193.405894 
L 236.346598 -191.330836 
L 236.326729 -189.255778 
L 236.29531 -187.18072 
L 236.271194 -185.105661 
L 236.265601 -183.030603 
L 236.270809 -180.955545 
L 236.272328 -178.880487 
L 236.25868 -176.805429 
L 236.233799 -174.73037 
L 236.219334 -172.655312 
L 236.228855 -170.580254 
L 236.247704 -168.505196 
L 236.248254 -166.430138 
L 236.229372 -164.35508 
L 236.214269 -162.280021 
L 236.212152 -160.204963 
L 236.215231 -158.129905 
L 236.218261 -156.054847 
L 236.221624 -153.979789 
L 236.225047 -151.90473 
L 236.225721 -149.829672 
L 236.221886 -147.754614 
L 236.216225 -145.679556 
L 236.21194 -143.604498 
L 236.210026 -141.52944 
L 236.212494 -139.454381 
L 236.217794 -137.379323 
L 236.219214 -135.304265 
L 236.215762 -133.229207 
L 236.211861 -131.154149 
L 236.209161 -129.07909 
L 236.207833 -127.004032 
L 236.206898 -124.928974 
L 236.203848 -122.853916 
L 236.200067 -120.778858 
L 236.198092 -118.703799 
L 236.197626 -116.628741 
L 236.197885 -114.553683 
L 236.199382 -112.478625 
L 236.202739 -110.403567 
L 236.205514 -108.328509 
L 236.204216 -106.25345 
L 236.200587 -104.178392 
L 236.198286 -102.103334 
L 236.197622 -100.028276 
L 236.197524 -97.953218 
L 236.197519 -95.878159 
L 236.197558 -93.803101 
L 236.197901 -91.728043 
L 236.199452 -89.652985 
L 236.202845 -87.577927 
L 236.20554 -85.502869 
L 236.204125 -83.42781 
L 236.200494 -81.352752 
L 236.198252 -79.277694 
L 236.197654 -77.202636 
L 236.197903 -75.127578 
L 236.199593 -73.052519 
L 236.204076 -70.977461 
L 236.209895 -68.902403 
L 236.211919 -66.827345 
L 236.207951 -64.752287 
L 236.202132 -62.677229 
L 236.19872 -60.60217 
z
" id="md44d3823f6" style="stroke:#3d3d3d;stroke-width:1.5;"/>
    </defs>
    <g clip-path="url(#p98535eb959)">
     <use style="fill:#3a923a;stroke:#3d3d3d;stroke-width:1.5;" x="0" xlink:href="#md44d3823f6" y="360"/>
    </g>
   </g>
   <g id="PolyCollection_7">
    <defs>
     <path d="M 281.368217 -171.536104 
L 281.3657 -171.536104 
L 281.3639 -172.794776 
L 281.360881 -174.053449 
L 281.357039 -175.312121 
L 281.353612 -176.570793 
L 281.352116 -177.829465 
L 281.3533 -179.088138 
L 281.356567 -180.34681 
L 281.360438 -181.605482 
L 281.363596 -182.864154 
L 281.365533 -184.122827 
L 281.366429 -185.381499 
L 281.366645 -186.640171 
L 281.366322 -187.898844 
L 281.365267 -189.157516 
L 281.363079 -190.416188 
L 281.359457 -191.67486 
L 281.354498 -192.933533 
L 281.348696 -194.192205 
L 281.342615 -195.450877 
L 281.336435 -196.70955 
L 281.329554 -197.968222 
L 281.320289 -199.226894 
L 281.305372 -200.485566 
L 281.278627 -201.744239 
L 281.229354 -203.002911 
L 281.143202 -204.261583 
L 281.008423 -205.520255 
L 280.826506 -206.778928 
L 280.620847 -208.0376 
L 280.435045 -209.296272 
L 280.316775 -210.554945 
L 280.294214 -211.813617 
L 280.361501 -213.072289 
L 280.485316 -214.330961 
L 280.626094 -215.589634 
L 280.754532 -216.848306 
L 280.853408 -218.106978 
L 280.913061 -219.36565 
L 280.930604 -220.624323 
L 280.910838 -221.882995 
L 280.862767 -223.141667 
L 280.793487 -224.40034 
L 280.705355 -225.659012 
L 280.596933 -226.917684 
L 280.463449 -228.176356 
L 280.296019 -229.435029 
L 280.08383 -230.693701 
L 279.820358 -231.952373 
L 279.507095 -233.211046 
L 279.149611 -234.469718 
L 278.751589 -235.72839 
L 278.316134 -236.987062 
L 277.852458 -238.245735 
L 277.376423 -239.504407 
L 276.90068 -240.763079 
L 276.424168 -242.021751 
L 275.931723 -243.280424 
L 275.403406 -244.539096 
L 274.826803 -245.797768 
L 274.210543 -247.056441 
L 273.600185 -248.315113 
L 273.086072 -249.573785 
L 272.780703 -250.832457 
L 272.763255 -252.09113 
L 273.031826 -253.349802 
L 273.510035 -254.608474 
L 274.10484 -255.867147 
L 274.763291 -257.125819 
L 275.479011 -258.384491 
L 276.249255 -259.643163 
L 277.032802 -260.901836 
L 277.754836 -262.160508 
L 278.350268 -263.41918 
L 278.799699 -264.677852 
L 279.13136 -265.936525 
L 279.397378 -267.195197 
L 279.643282 -268.453869 
L 279.886916 -269.712542 
L 280.118006 -270.971214 
L 280.315545 -272.229886 
L 280.466406 -273.488558 
L 280.57249 -274.747231 
L 280.646842 -276.005903 
L 280.705099 -277.264575 
L 280.75829 -278.523247 
L 280.811456 -279.78192 
L 280.867614 -281.040592 
L 280.930734 -282.299264 
L 281.003451 -283.557937 
L 281.082963 -284.816609 
L 281.160896 -286.075281 
L 281.227817 -287.333953 
L 281.278321 -288.592626 
L 281.312723 -289.851298 
L 281.334908 -291.10997 
L 281.349023 -292.368643 
L 281.357808 -293.627315 
L 281.362865 -294.885987 
L 281.3654 -296.144659 
L 281.368517 -296.144659 
L 281.368517 -296.144659 
L 281.371052 -294.885987 
L 281.376109 -293.627315 
L 281.384894 -292.368643 
L 281.399009 -291.10997 
L 281.421194 -289.851298 
L 281.455596 -288.592626 
L 281.5061 -287.333953 
L 281.573021 -286.075281 
L 281.650954 -284.816609 
L 281.730467 -283.557937 
L 281.803184 -282.299264 
L 281.866303 -281.040592 
L 281.922461 -279.78192 
L 281.975627 -278.523247 
L 282.028818 -277.264575 
L 282.087076 -276.005903 
L 282.161427 -274.747231 
L 282.267512 -273.488558 
L 282.418373 -272.229886 
L 282.615911 -270.971214 
L 282.847002 -269.712542 
L 283.090635 -268.453869 
L 283.33654 -267.195197 
L 283.602557 -265.936525 
L 283.934218 -264.677852 
L 284.383649 -263.41918 
L 284.979081 -262.160508 
L 285.701115 -260.901836 
L 286.484662 -259.643163 
L 287.254906 -258.384491 
L 287.970626 -257.125819 
L 288.629077 -255.867147 
L 289.223882 -254.608474 
L 289.702091 -253.349802 
L 289.970662 -252.09113 
L 289.953214 -250.832457 
L 289.647846 -249.573785 
L 289.133732 -248.315113 
L 288.523374 -247.056441 
L 287.907114 -245.797768 
L 287.330511 -244.539096 
L 286.802194 -243.280424 
L 286.309749 -242.021751 
L 285.833237 -240.763079 
L 285.357495 -239.504407 
L 284.881459 -238.245735 
L 284.417784 -236.987062 
L 283.982328 -235.72839 
L 283.584306 -234.469718 
L 283.226822 -233.211046 
L 282.913559 -231.952373 
L 282.650087 -230.693701 
L 282.437899 -229.435029 
L 282.270468 -228.176356 
L 282.136985 -226.917684 
L 282.028562 -225.659012 
L 281.94043 -224.40034 
L 281.87115 -223.141667 
L 281.823079 -221.882995 
L 281.803314 -220.624323 
L 281.820856 -219.36565 
L 281.880509 -218.106978 
L 281.979386 -216.848306 
L 282.107823 -215.589634 
L 282.248602 -214.330961 
L 282.372416 -213.072289 
L 282.439704 -211.813617 
L 282.417142 -210.554945 
L 282.298872 -209.296272 
L 282.11307 -208.0376 
L 281.907411 -206.778928 
L 281.725494 -205.520255 
L 281.590716 -204.261583 
L 281.504563 -203.002911 
L 281.455291 -201.744239 
L 281.428545 -200.485566 
L 281.413628 -199.226894 
L 281.404363 -197.968222 
L 281.397482 -196.70955 
L 281.391302 -195.450877 
L 281.385221 -194.192205 
L 281.379419 -192.933533 
L 281.37446 -191.67486 
L 281.370838 -190.416188 
L 281.36865 -189.157516 
L 281.367595 -187.898844 
L 281.367273 -186.640171 
L 281.367488 -185.381499 
L 281.368385 -184.122827 
L 281.370321 -182.864154 
L 281.373479 -181.605482 
L 281.37735 -180.34681 
L 281.380618 -179.088138 
L 281.381802 -177.829465 
L 281.380305 -176.570793 
L 281.376878 -175.312121 
L 281.373036 -174.053449 
L 281.370017 -172.794776 
L 281.368217 -171.536104 
z
" id="m29d2f6c0f4" style="stroke:#3d3d3d;stroke-width:1.5;"/>
    </defs>
    <g clip-path="url(#p98535eb959)">
     <use style="fill:#3274a1;stroke:#3d3d3d;stroke-width:1.5;" x="0" xlink:href="#m29d2f6c0f4" y="360"/>
    </g>
   </g>
   <g id="PolyCollection_8">
    <defs>
     <path d="M 307.180469 -177.214492 
L 307.175669 -177.214492 
L 307.172234 -178.01801 
L 307.166631 -178.821527 
L 307.159959 -179.625044 
L 307.154802 -180.428562 
L 307.153457 -181.232079 
L 307.155635 -182.035597 
L 307.158221 -182.839114 
L 307.157598 -183.642632 
L 307.152121 -184.446149 
L 307.142462 -185.249666 
L 307.130091 -186.053184 
L 307.115633 -186.856701 
L 307.098459 -187.660219 
L 307.07774 -188.463736 
L 307.054212 -189.267254 
L 307.030745 -190.070771 
L 307.009961 -190.874288 
L 306.990112 -191.677806 
L 306.964195 -192.481323 
L 306.925328 -193.284841 
L 306.873204 -194.088358 
L 306.813057 -194.891876 
L 306.748242 -195.695393 
L 306.677332 -196.49891 
L 306.599705 -197.302428 
L 306.518807 -198.105945 
L 306.434165 -198.909463 
L 306.331049 -199.71298 
L 306.182879 -200.516497 
L 305.965788 -201.320015 
L 305.670882 -202.123532 
L 305.30438 -202.92705 
L 304.878181 -203.730567 
L 304.401768 -204.534085 
L 303.886037 -205.337602 
L 303.354825 -206.141119 
L 302.844671 -206.944637 
L 302.3852 -207.748154 
L 301.978793 -208.551672 
L 301.598961 -209.355189 
L 301.204774 -210.158707 
L 300.758954 -210.962224 
L 300.245352 -211.765741 
L 299.685275 -212.569259 
L 299.140272 -213.372776 
L 298.68071 -214.176294 
L 298.329493 -214.979811 
L 298.036626 -215.783329 
L 297.719864 -216.586846 
L 297.327653 -217.390363 
L 296.860358 -218.193881 
L 296.34731 -218.997398 
L 295.821151 -219.800916 
L 295.315319 -220.604433 
L 294.874028 -221.407951 
L 294.544606 -222.211468 
L 294.348574 -223.014985 
L 294.272514 -223.818503 
L 294.297848 -224.62202 
L 294.423314 -225.425538 
L 294.64655 -226.229055 
L 294.944503 -227.032572 
L 295.293385 -227.83609 
L 295.699622 -228.639607 
L 296.193622 -229.443125 
L 296.792904 -230.246642 
L 297.480858 -231.05016 
L 298.220405 -231.853677 
L 298.976887 -232.657194 
L 299.72411 -233.460712 
L 300.440468 -234.264229 
L 301.111899 -235.067747 
L 301.736554 -235.871264 
L 302.320618 -236.674782 
L 302.873988 -237.478299 
L 303.412425 -238.281816 
L 303.952091 -239.085334 
L 304.491173 -239.888851 
L 305.00055 -240.692369 
L 305.441261 -241.495886 
L 305.794363 -242.299404 
L 306.072986 -243.102921 
L 306.305572 -243.906438 
L 306.509952 -244.709956 
L 306.684631 -245.513473 
L 306.820593 -246.316991 
L 306.915624 -247.120508 
L 306.97734 -247.924025 
L 307.017612 -248.727543 
L 307.046988 -249.53106 
L 307.072289 -250.334578 
L 307.096189 -251.138095 
L 307.118182 -251.941613 
L 307.136706 -252.74513 
L 307.151037 -253.548647 
L 307.161559 -254.352165 
L 307.168936 -255.155682 
L 307.173665 -255.9592 
L 307.176278 -256.762717 
L 307.17986 -256.762717 
L 307.17986 -256.762717 
L 307.182472 -255.9592 
L 307.187202 -255.155682 
L 307.194578 -254.352165 
L 307.2051 -253.548647 
L 307.219432 -252.74513 
L 307.237955 -251.941613 
L 307.259948 -251.138095 
L 307.283849 -250.334578 
L 307.309149 -249.53106 
L 307.338526 -248.727543 
L 307.378797 -247.924025 
L 307.440513 -247.120508 
L 307.535545 -246.316991 
L 307.671506 -245.513473 
L 307.846185 -244.709956 
L 308.050566 -243.906438 
L 308.283151 -243.102921 
L 308.561774 -242.299404 
L 308.914877 -241.495886 
L 309.355587 -240.692369 
L 309.864964 -239.888851 
L 310.404047 -239.085334 
L 310.943713 -238.281816 
L 311.482149 -237.478299 
L 312.035519 -236.674782 
L 312.619583 -235.871264 
L 313.244238 -235.067747 
L 313.915669 -234.264229 
L 314.632027 -233.460712 
L 315.37925 -232.657194 
L 316.135732 -231.853677 
L 316.875279 -231.05016 
L 317.563233 -230.246642 
L 318.162516 -229.443125 
L 318.656515 -228.639607 
L 319.062752 -227.83609 
L 319.411634 -227.032572 
L 319.709587 -226.229055 
L 319.932823 -225.425538 
L 320.058289 -224.62202 
L 320.083624 -223.818503 
L 320.007563 -223.014985 
L 319.811532 -222.211468 
L 319.482109 -221.407951 
L 319.040818 -220.604433 
L 318.534986 -219.800916 
L 318.008828 -218.997398 
L 317.49578 -218.193881 
L 317.028484 -217.390363 
L 316.636273 -216.586846 
L 316.319511 -215.783329 
L 316.026644 -214.979811 
L 315.675427 -214.176294 
L 315.215865 -213.372776 
L 314.670863 -212.569259 
L 314.110785 -211.765741 
L 313.597184 -210.962224 
L 313.151363 -210.158707 
L 312.757176 -209.355189 
L 312.377345 -208.551672 
L 311.970937 -207.748154 
L 311.511466 -206.944637 
L 311.001312 -206.141119 
L 310.4701 -205.337602 
L 309.95437 -204.534085 
L 309.477957 -203.730567 
L 309.051757 -202.92705 
L 308.685255 -202.123532 
L 308.39035 -201.320015 
L 308.173258 -200.516497 
L 308.025088 -199.71298 
L 307.921973 -198.909463 
L 307.83733 -198.105945 
L 307.756432 -197.302428 
L 307.678805 -196.49891 
L 307.607896 -195.695393 
L 307.54308 -194.891876 
L 307.482934 -194.088358 
L 307.43081 -193.284841 
L 307.391943 -192.481323 
L 307.366025 -191.677806 
L 307.346177 -190.874288 
L 307.325392 -190.070771 
L 307.301926 -189.267254 
L 307.278397 -188.463736 
L 307.257678 -187.660219 
L 307.240504 -186.856701 
L 307.226047 -186.053184 
L 307.213675 -185.249666 
L 307.204017 -184.446149 
L 307.198539 -183.642632 
L 307.197916 -182.839114 
L 307.200503 -182.035597 
L 307.202681 -181.232079 
L 307.201335 -180.428562 
L 307.196178 -179.625044 
L 307.189506 -178.821527 
L 307.183903 -178.01801 
L 307.180469 -177.214492 
z
" id="m037aeab0dc" style="stroke:#3d3d3d;stroke-width:1.5;"/>
    </defs>
    <g clip-path="url(#p98535eb959)">
     <use style="fill:#e1812c;stroke:#3d3d3d;stroke-width:1.5;" x="0" xlink:href="#m037aeab0dc" y="360"/>
    </g>
   </g>
   <g id="PolyCollection_9">
    <defs>
     <path d="M 332.991373 -176.78594 
L 332.986984 -176.78594 
L 332.984453 -177.556361 
L 332.980483 -178.326783 
L 332.975503 -179.097205 
L 332.970784 -179.867626 
L 332.96797 -180.638048 
L 332.968059 -181.40847 
L 332.970578 -182.178892 
L 332.973664 -182.949313 
L 332.975083 -183.719735 
L 332.973458 -184.490157 
L 332.968961 -185.260578 
L 332.963087 -186.031 
L 332.957661 -186.801422 
L 332.953635 -187.571843 
L 332.950465 -188.342265 
L 332.946483 -189.112687 
L 332.939857 -189.883109 
L 332.92927 -190.65353 
L 332.913895 -191.423952 
L 332.893185 -192.194374 
L 332.86718 -192.964795 
L 332.837153 -193.735217 
L 332.805563 -194.505639 
L 332.774928 -195.27606 
L 332.746594 -196.046482 
L 332.720593 -196.816904 
L 332.696121 -197.587325 
L 332.67097 -198.357747 
L 332.639646 -199.128169 
L 332.59237 -199.898591 
L 332.517222 -200.669012 
L 332.404994 -201.439434 
L 332.253629 -202.209856 
L 332.069093 -202.980277 
L 331.861695 -203.750699 
L 331.639991 -204.521121 
L 331.406987 -205.291542 
L 331.162406 -206.061964 
L 330.909212 -206.832386 
L 330.657149 -207.602808 
L 330.417892 -208.373229 
L 330.195177 -209.143651 
L 329.979568 -209.914073 
L 329.75404 -210.684494 
L 329.506757 -211.454916 
L 329.241346 -212.225338 
L 328.97708 -212.995759 
L 328.738055 -213.766181 
L 328.537657 -214.536603 
L 328.369283 -215.307025 
L 328.211313 -216.077446 
L 328.042258 -216.847868 
L 327.852163 -217.61829 
L 327.641488 -218.388711 
L 327.413831 -219.159133 
L 327.174925 -219.929555 
L 326.939846 -220.699976 
L 326.736797 -221.470398 
L 326.597012 -222.24082 
L 326.536401 -223.011241 
L 326.546216 -223.781663 
L 326.602033 -224.552085 
L 326.681698 -225.322507 
L 326.776095 -226.092928 
L 326.887823 -226.86335 
L 327.025198 -227.633772 
L 327.198268 -228.404193 
L 327.415871 -229.174615 
L 327.68144 -229.945037 
L 327.990066 -230.715458 
L 328.330099 -231.48588 
L 328.687619 -232.256302 
L 329.049767 -233.026724 
L 329.406276 -233.797145 
L 329.750872 -234.567567 
L 330.081985 -235.337989 
L 330.401015 -236.10841 
L 330.709405 -236.878832 
L 331.007446 -237.649254 
L 331.294681 -238.419675 
L 331.569332 -239.190097 
L 331.826436 -239.960519 
L 332.057525 -240.730941 
L 332.253842 -241.501362 
L 332.41131 -242.271784 
L 332.533182 -243.042206 
L 332.627934 -243.812627 
L 332.704227 -244.583049 
L 332.767258 -245.353471 
L 332.818859 -246.123892 
L 332.859842 -246.894314 
L 332.891718 -247.664736 
L 332.916713 -248.435157 
L 332.93687 -249.205579 
L 332.953367 -249.976001 
L 332.966496 -250.746423 
L 332.976179 -251.516844 
L 332.982557 -252.287266 
L 332.986221 -253.057688 
L 332.992136 -253.057688 
L 332.992136 -253.057688 
L 332.9958 -252.287266 
L 333.002178 -251.516844 
L 333.011862 -250.746423 
L 333.02499 -249.976001 
L 333.041487 -249.205579 
L 333.061645 -248.435157 
L 333.08664 -247.664736 
L 333.118516 -246.894314 
L 333.159498 -246.123892 
L 333.2111 -245.353471 
L 333.274131 -244.583049 
L 333.350424 -243.812627 
L 333.445175 -243.042206 
L 333.567047 -242.271784 
L 333.724515 -241.501362 
L 333.920832 -240.730941 
L 334.151921 -239.960519 
L 334.409025 -239.190097 
L 334.683677 -238.419675 
L 334.970912 -237.649254 
L 335.268953 -236.878832 
L 335.577343 -236.10841 
L 335.896372 -235.337989 
L 336.227485 -234.567567 
L 336.572082 -233.797145 
L 336.928591 -233.026724 
L 337.290739 -232.256302 
L 337.648259 -231.48588 
L 337.988291 -230.715458 
L 338.296917 -229.945037 
L 338.562487 -229.174615 
L 338.78009 -228.404193 
L 338.95316 -227.633772 
L 339.090534 -226.86335 
L 339.202262 -226.092928 
L 339.29666 -225.322507 
L 339.376325 -224.552085 
L 339.432142 -223.781663 
L 339.441956 -223.011241 
L 339.381346 -222.24082 
L 339.24156 -221.470398 
L 339.038511 -220.699976 
L 338.803433 -219.929555 
L 338.564526 -219.159133 
L 338.336869 -218.388711 
L 338.126195 -217.61829 
L 337.9361 -216.847868 
L 337.767045 -216.077446 
L 337.609074 -215.307025 
L 337.440701 -214.536603 
L 337.240302 -213.766181 
L 337.001277 -212.995759 
L 336.737011 -212.225338 
L 336.471601 -211.454916 
L 336.224317 -210.684494 
L 335.99879 -209.914073 
L 335.78318 -209.143651 
L 335.560465 -208.373229 
L 335.321209 -207.602808 
L 335.069145 -206.832386 
L 334.815951 -206.061964 
L 334.57137 -205.291542 
L 334.338367 -204.521121 
L 334.116663 -203.750699 
L 333.909264 -202.980277 
L 333.724729 -202.209856 
L 333.573363 -201.439434 
L 333.461135 -200.669012 
L 333.385987 -199.898591 
L 333.338711 -199.128169 
L 333.307388 -198.357747 
L 333.282236 -197.587325 
L 333.257764 -196.816904 
L 333.231764 -196.046482 
L 333.203429 -195.27606 
L 333.172794 -194.505639 
L 333.141205 -193.735217 
L 333.111177 -192.964795 
L 333.085173 -192.194374 
L 333.064462 -191.423952 
L 333.049087 -190.65353 
L 333.0385 -189.883109 
L 333.031875 -189.112687 
L 333.027893 -188.342265 
L 333.024722 -187.571843 
L 333.020696 -186.801422 
L 333.01527 -186.031 
L 333.009396 -185.260578 
L 333.004899 -184.490157 
L 333.003275 -183.719735 
L 333.004694 -182.949313 
L 333.00778 -182.178892 
L 333.010298 -181.40847 
L 333.010388 -180.638048 
L 333.007573 -179.867626 
L 333.002854 -179.097205 
L 332.997875 -178.326783 
L 332.993905 -177.556361 
L 332.991373 -176.78594 
z
" id="mf3edaa1d1a" style="stroke:#3d3d3d;stroke-width:1.5;"/>
    </defs>
    <g clip-path="url(#p98535eb959)">
     <use style="fill:#3a923a;stroke:#3d3d3d;stroke-width:1.5;" x="0" xlink:href="#mf3edaa1d1a" y="360"/>
    </g>
   </g>
   <g id="patch_3">
    <path clip-path="url(#p98535eb959)" d="M 113.594743 138.249803 
L 113.594743 138.249803 
L 113.594743 138.249803 
L 113.594743 138.249803 
z
" style="fill:#3274a1;stroke:#3d3d3d;stroke-linejoin:miter;stroke-width:0.75;"/>
   </g>
   <g id="patch_4">
    <path clip-path="url(#p98535eb959)" d="M 113.594743 138.249803 
L 113.594743 138.249803 
L 113.594743 138.249803 
L 113.594743 138.249803 
z
" style="fill:#e1812c;stroke:#3d3d3d;stroke-linejoin:miter;stroke-width:0.75;"/>
   </g>
   <g id="patch_5">
    <path clip-path="url(#p98535eb959)" d="M 113.594743 138.249803 
L 113.594743 138.249803 
L 113.594743 138.249803 
L 113.594743 138.249803 
z
" style="fill:#3a923a;stroke:#3d3d3d;stroke-linejoin:miter;stroke-width:0.75;"/>
   </g>
   <g id="matplotlib.axis_1">
    <g id="xtick_1">
     <g id="line2d_1">
      <defs>
       <path d="M 0 0 
L 0 3.5 
" id="m7e852b48b3" style="stroke:#000000;stroke-width:0.8;"/>
      </defs>
      <g>
       <use style="stroke:#000000;stroke-width:0.8;" x="113.594743" xlink:href="#m7e852b48b3" y="317.93875"/>
      </g>
     </g>
     <g id="text_1">
      <!-- BLSTM-MD -->
      <g transform="translate(86.868181 332.537188)scale(0.1 -0.1)">
       <defs>
        <path d="M 19.671875 34.8125 
L 19.671875 8.109375 
L 35.5 8.109375 
Q 43.453125 8.109375 47.28125 11.40625 
Q 51.125 14.703125 51.125 21.484375 
Q 51.125 28.328125 47.28125 31.5625 
Q 43.453125 34.8125 35.5 34.8125 
z
M 19.671875 64.796875 
L 19.671875 42.828125 
L 34.28125 42.828125 
Q 41.5 42.828125 45.03125 45.53125 
Q 48.578125 48.25 48.578125 53.8125 
Q 48.578125 59.328125 45.03125 62.0625 
Q 41.5 64.796875 34.28125 64.796875 
z
M 9.8125 72.90625 
L 35.015625 72.90625 
Q 46.296875 72.90625 52.390625 68.21875 
Q 58.5 63.53125 58.5 54.890625 
Q 58.5 48.1875 55.375 44.234375 
Q 52.25 40.28125 46.1875 39.3125 
Q 53.46875 37.75 57.5 32.78125 
Q 61.53125 27.828125 61.53125 20.40625 
Q 61.53125 10.640625 54.890625 5.3125 
Q 48.25 0 35.984375 0 
L 9.8125 0 
z
" id="DejaVuSans-66"/>
        <path d="M 9.8125 72.90625 
L 19.671875 72.90625 
L 19.671875 8.296875 
L 55.171875 8.296875 
L 55.171875 0 
L 9.8125 0 
z
" id="DejaVuSans-76"/>
        <path d="M 53.515625 70.515625 
L 53.515625 60.890625 
Q 47.90625 63.578125 42.921875 64.890625 
Q 37.9375 66.21875 33.296875 66.21875 
Q 25.25 66.21875 20.875 63.09375 
Q 16.5 59.96875 16.5 54.203125 
Q 16.5 49.359375 19.40625 46.890625 
Q 22.3125 44.4375 30.421875 42.921875 
L 36.375 41.703125 
Q 47.40625 39.59375 52.65625 34.296875 
Q 57.90625 29 57.90625 20.125 
Q 57.90625 9.515625 50.796875 4.046875 
Q 43.703125 -1.421875 29.984375 -1.421875 
Q 24.8125 -1.421875 18.96875 -0.25 
Q 13.140625 0.921875 6.890625 3.21875 
L 6.890625 13.375 
Q 12.890625 10.015625 18.65625 8.296875 
Q 24.421875 6.59375 29.984375 6.59375 
Q 38.421875 6.59375 43.015625 9.90625 
Q 47.609375 13.234375 47.609375 19.390625 
Q 47.609375 24.75 44.3125 27.78125 
Q 41.015625 30.8125 33.5 32.328125 
L 27.484375 33.5 
Q 16.453125 35.6875 11.515625 40.375 
Q 6.59375 45.0625 6.59375 53.421875 
Q 6.59375 63.09375 13.40625 68.65625 
Q 20.21875 74.21875 32.171875 74.21875 
Q 37.3125 74.21875 42.625 73.28125 
Q 47.953125 72.359375 53.515625 70.515625 
z
" id="DejaVuSans-83"/>
        <path d="M -0.296875 72.90625 
L 61.375 72.90625 
L 61.375 64.59375 
L 35.5 64.59375 
L 35.5 0 
L 25.59375 0 
L 25.59375 64.59375 
L -0.296875 64.59375 
z
" id="DejaVuSans-84"/>
        <path d="M 9.8125 72.90625 
L 24.515625 72.90625 
L 43.109375 23.296875 
L 61.8125 72.90625 
L 76.515625 72.90625 
L 76.515625 0 
L 66.890625 0 
L 66.890625 64.015625 
L 48.09375 14.015625 
L 38.1875 14.015625 
L 19.390625 64.015625 
L 19.390625 0 
L 9.8125 0 
z
" id="DejaVuSans-77"/>
        <path d="M 4.890625 31.390625 
L 31.203125 31.390625 
L 31.203125 23.390625 
L 4.890625 23.390625 
z
" id="DejaVuSans-45"/>
        <path d="M 19.671875 64.796875 
L 19.671875 8.109375 
L 31.59375 8.109375 
Q 46.6875 8.109375 53.6875 14.9375 
Q 60.6875 21.78125 60.6875 36.53125 
Q 60.6875 51.171875 53.6875 57.984375 
Q 46.6875 64.796875 31.59375 64.796875 
z
M 9.8125 72.90625 
L 30.078125 72.90625 
Q 51.265625 72.90625 61.171875 64.09375 
Q 71.09375 55.28125 71.09375 36.53125 
Q 71.09375 17.671875 61.125 8.828125 
Q 51.171875 0 30.078125 0 
L 9.8125 0 
z
" id="DejaVuSans-68"/>
       </defs>
       <use xlink:href="#DejaVuSans-66"/>
       <use x="68.603516" xlink:href="#DejaVuSans-76"/>
       <use x="124.316406" xlink:href="#DejaVuSans-83"/>
       <use x="187.792969" xlink:href="#DejaVuSans-84"/>
       <use x="248.876953" xlink:href="#DejaVuSans-77"/>
       <use x="335.15625" xlink:href="#DejaVuSans-45"/>
       <use x="371.240234" xlink:href="#DejaVuSans-77"/>
       <use x="457.519531" xlink:href="#DejaVuSans-68"/>
      </g>
     </g>
    </g>
    <g id="xtick_2">
     <g id="line2d_2">
      <g>
       <use style="stroke:#000000;stroke-width:0.8;" x="210.386406" xlink:href="#m7e852b48b3" y="317.93875"/>
      </g>
     </g>
     <g id="text_2">
      <!-- Conv-TasNet-MD -->
      <g transform="translate(169.848125 332.537188)scale(0.1 -0.1)">
       <defs>
        <path d="M 64.40625 67.28125 
L 64.40625 56.890625 
Q 59.421875 61.53125 53.78125 63.8125 
Q 48.140625 66.109375 41.796875 66.109375 
Q 29.296875 66.109375 22.65625 58.46875 
Q 16.015625 50.828125 16.015625 36.375 
Q 16.015625 21.96875 22.65625 14.328125 
Q 29.296875 6.6875 41.796875 6.6875 
Q 48.140625 6.6875 53.78125 8.984375 
Q 59.421875 11.28125 64.40625 15.921875 
L 64.40625 5.609375 
Q 59.234375 2.09375 53.4375 0.328125 
Q 47.65625 -1.421875 41.21875 -1.421875 
Q 24.65625 -1.421875 15.125 8.703125 
Q 5.609375 18.84375 5.609375 36.375 
Q 5.609375 53.953125 15.125 64.078125 
Q 24.65625 74.21875 41.21875 74.21875 
Q 47.75 74.21875 53.53125 72.484375 
Q 59.328125 70.75 64.40625 67.28125 
z
" id="DejaVuSans-67"/>
        <path d="M 30.609375 48.390625 
Q 23.390625 48.390625 19.1875 42.75 
Q 14.984375 37.109375 14.984375 27.296875 
Q 14.984375 17.484375 19.15625 11.84375 
Q 23.34375 6.203125 30.609375 6.203125 
Q 37.796875 6.203125 41.984375 11.859375 
Q 46.1875 17.53125 46.1875 27.296875 
Q 46.1875 37.015625 41.984375 42.703125 
Q 37.796875 48.390625 30.609375 48.390625 
z
M 30.609375 56 
Q 42.328125 56 49.015625 48.375 
Q 55.71875 40.765625 55.71875 27.296875 
Q 55.71875 13.875 49.015625 6.21875 
Q 42.328125 -1.421875 30.609375 -1.421875 
Q 18.84375 -1.421875 12.171875 6.21875 
Q 5.515625 13.875 5.515625 27.296875 
Q 5.515625 40.765625 12.171875 48.375 
Q 18.84375 56 30.609375 56 
z
" id="DejaVuSans-111"/>
        <path d="M 54.890625 33.015625 
L 54.890625 0 
L 45.90625 0 
L 45.90625 32.71875 
Q 45.90625 40.484375 42.875 44.328125 
Q 39.84375 48.1875 33.796875 48.1875 
Q 26.515625 48.1875 22.3125 43.546875 
Q 18.109375 38.921875 18.109375 30.90625 
L 18.109375 0 
L 9.078125 0 
L 9.078125 54.6875 
L 18.109375 54.6875 
L 18.109375 46.1875 
Q 21.34375 51.125 25.703125 53.5625 
Q 30.078125 56 35.796875 56 
Q 45.21875 56 50.046875 50.171875 
Q 54.890625 44.34375 54.890625 33.015625 
z
" id="DejaVuSans-110"/>
        <path d="M 2.984375 54.6875 
L 12.5 54.6875 
L 29.59375 8.796875 
L 46.6875 54.6875 
L 56.203125 54.6875 
L 35.6875 0 
L 23.484375 0 
z
" id="DejaVuSans-118"/>
        <path d="M 34.28125 27.484375 
Q 23.390625 27.484375 19.1875 25 
Q 14.984375 22.515625 14.984375 16.5 
Q 14.984375 11.71875 18.140625 8.90625 
Q 21.296875 6.109375 26.703125 6.109375 
Q 34.1875 6.109375 38.703125 11.40625 
Q 43.21875 16.703125 43.21875 25.484375 
L 43.21875 27.484375 
z
M 52.203125 31.203125 
L 52.203125 0 
L 43.21875 0 
L 43.21875 8.296875 
Q 40.140625 3.328125 35.546875 0.953125 
Q 30.953125 -1.421875 24.3125 -1.421875 
Q 15.921875 -1.421875 10.953125 3.296875 
Q 6 8.015625 6 15.921875 
Q 6 25.140625 12.171875 29.828125 
Q 18.359375 34.515625 30.609375 34.515625 
L 43.21875 34.515625 
L 43.21875 35.40625 
Q 43.21875 41.609375 39.140625 45 
Q 35.0625 48.390625 27.6875 48.390625 
Q 23 48.390625 18.546875 47.265625 
Q 14.109375 46.140625 10.015625 43.890625 
L 10.015625 52.203125 
Q 14.9375 54.109375 19.578125 55.046875 
Q 24.21875 56 28.609375 56 
Q 40.484375 56 46.34375 49.84375 
Q 52.203125 43.703125 52.203125 31.203125 
z
" id="DejaVuSans-97"/>
        <path d="M 44.28125 53.078125 
L 44.28125 44.578125 
Q 40.484375 46.53125 36.375 47.5 
Q 32.28125 48.484375 27.875 48.484375 
Q 21.1875 48.484375 17.84375 46.4375 
Q 14.5 44.390625 14.5 40.28125 
Q 14.5 37.15625 16.890625 35.375 
Q 19.28125 33.59375 26.515625 31.984375 
L 29.59375 31.296875 
Q 39.15625 29.25 43.1875 25.515625 
Q 47.21875 21.78125 47.21875 15.09375 
Q 47.21875 7.46875 41.1875 3.015625 
Q 35.15625 -1.421875 24.609375 -1.421875 
Q 20.21875 -1.421875 15.453125 -0.5625 
Q 10.6875 0.296875 5.421875 2 
L 5.421875 11.28125 
Q 10.40625 8.6875 15.234375 7.390625 
Q 20.0625 6.109375 24.8125 6.109375 
Q 31.15625 6.109375 34.5625 8.28125 
Q 37.984375 10.453125 37.984375 14.40625 
Q 37.984375 18.0625 35.515625 20.015625 
Q 33.0625 21.96875 24.703125 23.78125 
L 21.578125 24.515625 
Q 13.234375 26.265625 9.515625 29.90625 
Q 5.8125 33.546875 5.8125 39.890625 
Q 5.8125 47.609375 11.28125 51.796875 
Q 16.75 56 26.8125 56 
Q 31.78125 56 36.171875 55.265625 
Q 40.578125 54.546875 44.28125 53.078125 
z
" id="DejaVuSans-115"/>
        <path d="M 9.8125 72.90625 
L 23.09375 72.90625 
L 55.421875 11.921875 
L 55.421875 72.90625 
L 64.984375 72.90625 
L 64.984375 0 
L 51.703125 0 
L 19.390625 60.984375 
L 19.390625 0 
L 9.8125 0 
z
" id="DejaVuSans-78"/>
        <path d="M 56.203125 29.59375 
L 56.203125 25.203125 
L 14.890625 25.203125 
Q 15.484375 15.921875 20.484375 11.0625 
Q 25.484375 6.203125 34.421875 6.203125 
Q 39.59375 6.203125 44.453125 7.46875 
Q 49.3125 8.734375 54.109375 11.28125 
L 54.109375 2.78125 
Q 49.265625 0.734375 44.1875 -0.34375 
Q 39.109375 -1.421875 33.890625 -1.421875 
Q 20.796875 -1.421875 13.15625 6.1875 
Q 5.515625 13.8125 5.515625 26.8125 
Q 5.515625 40.234375 12.765625 48.109375 
Q 20.015625 56 32.328125 56 
Q 43.359375 56 49.78125 48.890625 
Q 56.203125 41.796875 56.203125 29.59375 
z
M 47.21875 32.234375 
Q 47.125 39.59375 43.09375 43.984375 
Q 39.0625 48.390625 32.421875 48.390625 
Q 24.90625 48.390625 20.390625 44.140625 
Q 15.875 39.890625 15.1875 32.171875 
z
" id="DejaVuSans-101"/>
        <path d="M 18.3125 70.21875 
L 18.3125 54.6875 
L 36.8125 54.6875 
L 36.8125 47.703125 
L 18.3125 47.703125 
L 18.3125 18.015625 
Q 18.3125 11.328125 20.140625 9.421875 
Q 21.96875 7.515625 27.59375 7.515625 
L 36.8125 7.515625 
L 36.8125 0 
L 27.59375 0 
Q 17.1875 0 13.234375 3.875 
Q 9.28125 7.765625 9.28125 18.015625 
L 9.28125 47.703125 
L 2.6875 47.703125 
L 2.6875 54.6875 
L 9.28125 54.6875 
L 9.28125 70.21875 
z
" id="DejaVuSans-116"/>
       </defs>
       <use xlink:href="#DejaVuSans-67"/>
       <use x="69.824219" xlink:href="#DejaVuSans-111"/>
       <use x="131.005859" xlink:href="#DejaVuSans-110"/>
       <use x="194.384766" xlink:href="#DejaVuSans-118"/>
       <use x="250.939453" xlink:href="#DejaVuSans-45"/>
       <use x="277.898438" xlink:href="#DejaVuSans-84"/>
       <use x="322.482422" xlink:href="#DejaVuSans-97"/>
       <use x="383.761719" xlink:href="#DejaVuSans-115"/>
       <use x="435.861328" xlink:href="#DejaVuSans-78"/>
       <use x="510.666016" xlink:href="#DejaVuSans-101"/>
       <use x="572.189453" xlink:href="#DejaVuSans-116"/>
       <use x="611.398438" xlink:href="#DejaVuSans-45"/>
       <use x="647.482422" xlink:href="#DejaVuSans-77"/>
       <use x="733.761719" xlink:href="#DejaVuSans-68"/>
      </g>
     </g>
    </g>
    <g id="xtick_3">
     <g id="line2d_3">
      <g>
       <use style="stroke:#000000;stroke-width:0.8;" x="307.178069" xlink:href="#m7e852b48b3" y="317.93875"/>
      </g>
     </g>
     <g id="text_3">
      <!-- Wave-U-Net-MD -->
      <g transform="translate(267.440569 332.537188)scale(0.1 -0.1)">
       <defs>
        <path d="M 3.328125 72.90625 
L 13.28125 72.90625 
L 28.609375 11.28125 
L 43.890625 72.90625 
L 54.984375 72.90625 
L 70.3125 11.28125 
L 85.59375 72.90625 
L 95.609375 72.90625 
L 77.296875 0 
L 64.890625 0 
L 49.515625 63.28125 
L 33.984375 0 
L 21.578125 0 
z
" id="DejaVuSans-87"/>
        <path d="M 8.6875 72.90625 
L 18.609375 72.90625 
L 18.609375 28.609375 
Q 18.609375 16.890625 22.84375 11.734375 
Q 27.09375 6.59375 36.625 6.59375 
Q 46.09375 6.59375 50.34375 11.734375 
Q 54.59375 16.890625 54.59375 28.609375 
L 54.59375 72.90625 
L 64.5 72.90625 
L 64.5 27.390625 
Q 64.5 13.140625 57.4375 5.859375 
Q 50.390625 -1.421875 36.625 -1.421875 
Q 22.796875 -1.421875 15.734375 5.859375 
Q 8.6875 13.140625 8.6875 27.390625 
z
" id="DejaVuSans-85"/>
       </defs>
       <use xlink:href="#DejaVuSans-87"/>
       <use x="92.501953" xlink:href="#DejaVuSans-97"/>
       <use x="153.78125" xlink:href="#DejaVuSans-118"/>
       <use x="212.960938" xlink:href="#DejaVuSans-101"/>
       <use x="274.484375" xlink:href="#DejaVuSans-45"/>
       <use x="310.568359" xlink:href="#DejaVuSans-85"/>
       <use x="383.761719" xlink:href="#DejaVuSans-45"/>
       <use x="419.845703" xlink:href="#DejaVuSans-78"/>
       <use x="494.650391" xlink:href="#DejaVuSans-101"/>
       <use x="556.173828" xlink:href="#DejaVuSans-116"/>
       <use x="595.382812" xlink:href="#DejaVuSans-45"/>
       <use x="631.466797" xlink:href="#DejaVuSans-77"/>
       <use x="717.746094" xlink:href="#DejaVuSans-68"/>
      </g>
     </g>
    </g>
    <g id="text_4">
     <!-- Model -->
     <g transform="translate(195.373125 346.215312)scale(0.1 -0.1)">
      <defs>
       <path d="M 45.40625 46.390625 
L 45.40625 75.984375 
L 54.390625 75.984375 
L 54.390625 0 
L 45.40625 0 
L 45.40625 8.203125 
Q 42.578125 3.328125 38.25 0.953125 
Q 33.9375 -1.421875 27.875 -1.421875 
Q 17.96875 -1.421875 11.734375 6.484375 
Q 5.515625 14.40625 5.515625 27.296875 
Q 5.515625 40.1875 11.734375 48.09375 
Q 17.96875 56 27.875 56 
Q 33.9375 56 38.25 53.625 
Q 42.578125 51.265625 45.40625 46.390625 
z
M 14.796875 27.296875 
Q 14.796875 17.390625 18.875 11.75 
Q 22.953125 6.109375 30.078125 6.109375 
Q 37.203125 6.109375 41.296875 11.75 
Q 45.40625 17.390625 45.40625 27.296875 
Q 45.40625 37.203125 41.296875 42.84375 
Q 37.203125 48.484375 30.078125 48.484375 
Q 22.953125 48.484375 18.875 42.84375 
Q 14.796875 37.203125 14.796875 27.296875 
z
" id="DejaVuSans-100"/>
       <path d="M 9.421875 75.984375 
L 18.40625 75.984375 
L 18.40625 0 
L 9.421875 0 
z
" id="DejaVuSans-108"/>
      </defs>
      <use xlink:href="#DejaVuSans-77"/>
      <use x="86.279297" xlink:href="#DejaVuSans-111"/>
      <use x="147.460938" xlink:href="#DejaVuSans-100"/>
      <use x="210.9375" xlink:href="#DejaVuSans-101"/>
      <use x="272.460938" xlink:href="#DejaVuSans-108"/>
     </g>
    </g>
   </g>
   <g id="matplotlib.axis_2">
    <g id="ytick_1">
     <g id="line2d_4">
      <defs>
       <path d="M 0 0 
L -3.5 0 
" id="m356617d072" style="stroke:#000000;stroke-width:0.8;"/>
      </defs>
      <g>
       <use style="stroke:#000000;stroke-width:0.8;" x="65.198912" xlink:href="#m356617d072" y="309.738424"/>
      </g>
     </g>
     <g id="text_5">
      <!-- 60 -->
      <g transform="translate(37.094224 313.537642)scale(0.1 -0.1)">
       <defs>
        <path d="M 10.59375 35.5 
L 73.1875 35.5 
L 73.1875 27.203125 
L 10.59375 27.203125 
z
" id="DejaVuSans-8722"/>
        <path d="M 33.015625 40.375 
Q 26.375 40.375 22.484375 35.828125 
Q 18.609375 31.296875 18.609375 23.390625 
Q 18.609375 15.53125 22.484375 10.953125 
Q 26.375 6.390625 33.015625 6.390625 
Q 39.65625 6.390625 43.53125 10.953125 
Q 47.40625 15.53125 47.40625 23.390625 
Q 47.40625 31.296875 43.53125 35.828125 
Q 39.65625 40.375 33.015625 40.375 
z
M 52.59375 71.296875 
L 52.59375 62.3125 
Q 48.875 64.0625 45.09375 64.984375 
Q 41.3125 65.921875 37.59375 65.921875 
Q 27.828125 65.921875 22.671875 59.328125 
Q 17.53125 52.734375 16.796875 39.40625 
Q 19.671875 43.65625 24.015625 45.921875 
Q 28.375 48.1875 33.59375 48.1875 
Q 44.578125 48.1875 50.953125 41.515625 
Q 57.328125 34.859375 57.328125 23.390625 
Q 57.328125 12.15625 50.6875 5.359375 
Q 44.046875 -1.421875 33.015625 -1.421875 
Q 20.359375 -1.421875 13.671875 8.265625 
Q 6.984375 17.96875 6.984375 36.375 
Q 6.984375 53.65625 15.1875 63.9375 
Q 23.390625 74.21875 37.203125 74.21875 
Q 40.921875 74.21875 44.703125 73.484375 
Q 48.484375 72.75 52.59375 71.296875 
z
" id="DejaVuSans-54"/>
        <path d="M 31.78125 66.40625 
Q 24.171875 66.40625 20.328125 58.90625 
Q 16.5 51.421875 16.5 36.375 
Q 16.5 21.390625 20.328125 13.890625 
Q 24.171875 6.390625 31.78125 6.390625 
Q 39.453125 6.390625 43.28125 13.890625 
Q 47.125 21.390625 47.125 36.375 
Q 47.125 51.421875 43.28125 58.90625 
Q 39.453125 66.40625 31.78125 66.40625 
z
M 31.78125 74.21875 
Q 44.046875 74.21875 50.515625 64.515625 
Q 56.984375 54.828125 56.984375 36.375 
Q 56.984375 17.96875 50.515625 8.265625 
Q 44.046875 -1.421875 31.78125 -1.421875 
Q 19.53125 -1.421875 13.0625 8.265625 
Q 6.59375 17.96875 6.59375 36.375 
Q 6.59375 54.828125 13.0625 64.515625 
Q 19.53125 74.21875 31.78125 74.21875 
z
" id="DejaVuSans-48"/>
       </defs>
       <use xlink:href="#DejaVuSans-8722"/>
       <use x="83.789062" xlink:href="#DejaVuSans-54"/>
       <use x="147.412109" xlink:href="#DejaVuSans-48"/>
      </g>
     </g>
    </g>
    <g id="ytick_2">
     <g id="line2d_5">
      <g>
       <use style="stroke:#000000;stroke-width:0.8;" x="65.198912" xlink:href="#m356617d072" y="252.57555"/>
      </g>
     </g>
     <g id="text_6">
      <!-- 40 -->
      <g transform="translate(37.094224 256.374769)scale(0.1 -0.1)">
       <defs>
        <path d="M 37.796875 64.3125 
L 12.890625 25.390625 
L 37.796875 25.390625 
z
M 35.203125 72.90625 
L 47.609375 72.90625 
L 47.609375 25.390625 
L 58.015625 25.390625 
L 58.015625 17.1875 
L 47.609375 17.1875 
L 47.609375 0 
L 37.796875 0 
L 37.796875 17.1875 
L 4.890625 17.1875 
L 4.890625 26.703125 
z
" id="DejaVuSans-52"/>
       </defs>
       <use xlink:href="#DejaVuSans-8722"/>
       <use x="83.789062" xlink:href="#DejaVuSans-52"/>
       <use x="147.412109" xlink:href="#DejaVuSans-48"/>
      </g>
     </g>
    </g>
    <g id="ytick_3">
     <g id="line2d_6">
      <g>
       <use style="stroke:#000000;stroke-width:0.8;" x="65.198912" xlink:href="#m356617d072" y="195.412677"/>
      </g>
     </g>
     <g id="text_7">
      <!-- 20 -->
      <g transform="translate(37.094224 199.211895)scale(0.1 -0.1)">
       <defs>
        <path d="M 19.1875 8.296875 
L 53.609375 8.296875 
L 53.609375 0 
L 7.328125 0 
L 7.328125 8.296875 
Q 12.9375 14.109375 22.625 23.890625 
Q 32.328125 33.6875 34.8125 36.53125 
Q 39.546875 41.84375 41.421875 45.53125 
Q 43.3125 49.21875 43.3125 52.78125 
Q 43.3125 58.59375 39.234375 62.25 
Q 35.15625 65.921875 28.609375 65.921875 
Q 23.96875 65.921875 18.8125 64.3125 
Q 13.671875 62.703125 7.8125 59.421875 
L 7.8125 69.390625 
Q 13.765625 71.78125 18.9375 73 
Q 24.125 74.21875 28.421875 74.21875 
Q 39.75 74.21875 46.484375 68.546875 
Q 53.21875 62.890625 53.21875 53.421875 
Q 53.21875 48.921875 51.53125 44.890625 
Q 49.859375 40.875 45.40625 35.40625 
Q 44.1875 33.984375 37.640625 27.21875 
Q 31.109375 20.453125 19.1875 8.296875 
z
" id="DejaVuSans-50"/>
       </defs>
       <use xlink:href="#DejaVuSans-8722"/>
       <use x="83.789062" xlink:href="#DejaVuSans-50"/>
       <use x="147.412109" xlink:href="#DejaVuSans-48"/>
      </g>
     </g>
    </g>
    <g id="ytick_4">
     <g id="line2d_7">
      <g>
       <use style="stroke:#000000;stroke-width:0.8;" x="65.198912" xlink:href="#m356617d072" y="138.249803"/>
      </g>
     </g>
     <g id="text_8">
      <!-- 0 -->
      <g transform="translate(51.836412 142.049022)scale(0.1 -0.1)">
       <use xlink:href="#DejaVuSans-48"/>
      </g>
     </g>
    </g>
    <g id="ytick_5">
     <g id="line2d_8">
      <g>
       <use style="stroke:#000000;stroke-width:0.8;" x="65.198912" xlink:href="#m356617d072" y="81.08693"/>
      </g>
     </g>
     <g id="text_9">
      <!-- 20 -->
      <g transform="translate(45.473912 84.886149)scale(0.1 -0.1)">
       <use xlink:href="#DejaVuSans-50"/>
       <use x="63.623047" xlink:href="#DejaVuSans-48"/>
      </g>
     </g>
    </g>
    <g id="ytick_6">
     <g id="line2d_9">
      <g>
       <use style="stroke:#000000;stroke-width:0.8;" x="65.198912" xlink:href="#m356617d072" y="23.924056"/>
      </g>
     </g>
     <g id="text_10">
      <!-- 40 -->
      <g transform="translate(45.473912 27.723275)scale(0.1 -0.1)">
       <use xlink:href="#DejaVuSans-52"/>
       <use x="63.623047" xlink:href="#DejaVuSans-48"/>
      </g>
     </g>
    </g>
    <g id="text_11">
     <!-- SI_SNR -->
     <g transform="translate(30.736412 181.907656)rotate(-90)scale(0.1 -0.1)">
      <defs>
       <path d="M 9.8125 72.90625 
L 19.671875 72.90625 
L 19.671875 0 
L 9.8125 0 
z
" id="DejaVuSans-73"/>
       <path d="M 50.984375 -16.609375 
L 50.984375 -23.578125 
L -0.984375 -23.578125 
L -0.984375 -16.609375 
z
" id="DejaVuSans-95"/>
       <path d="M 44.390625 34.1875 
Q 47.5625 33.109375 50.5625 29.59375 
Q 53.5625 26.078125 56.59375 19.921875 
L 66.609375 0 
L 56 0 
L 46.6875 18.703125 
Q 43.0625 26.03125 39.671875 28.421875 
Q 36.28125 30.8125 30.421875 30.8125 
L 19.671875 30.8125 
L 19.671875 0 
L 9.8125 0 
L 9.8125 72.90625 
L 32.078125 72.90625 
Q 44.578125 72.90625 50.734375 67.671875 
Q 56.890625 62.453125 56.890625 51.90625 
Q 56.890625 45.015625 53.6875 40.46875 
Q 50.484375 35.9375 44.390625 34.1875 
z
M 19.671875 64.796875 
L 19.671875 38.921875 
L 32.078125 38.921875 
Q 39.203125 38.921875 42.84375 42.21875 
Q 46.484375 45.515625 46.484375 51.90625 
Q 46.484375 58.296875 42.84375 61.546875 
Q 39.203125 64.796875 32.078125 64.796875 
z
" id="DejaVuSans-82"/>
      </defs>
      <use xlink:href="#DejaVuSans-83"/>
      <use x="63.476562" xlink:href="#DejaVuSans-73"/>
      <use x="92.96875" xlink:href="#DejaVuSans-95"/>
      <use x="142.96875" xlink:href="#DejaVuSans-83"/>
      <use x="206.445312" xlink:href="#DejaVuSans-78"/>
      <use x="281.25" xlink:href="#DejaVuSans-82"/>
     </g>
    </g>
   </g>
   <g id="line2d_10">
    <path clip-path="url(#p98535eb959)" d="M 87.783633 131.098325 
L 87.783633 59.092512 
" style="fill:none;stroke:#3d3d3d;stroke-linecap:square;stroke-width:1.5;"/>
   </g>
   <g id="line2d_11">
    <path clip-path="url(#p98535eb959)" d="M 87.783633 101.801911 
L 87.783633 82.161004 
" style="fill:none;stroke:#3d3d3d;stroke-linecap:square;stroke-width:4.5;"/>
   </g>
   <g id="line2d_12">
    <path clip-path="url(#p98535eb959)" d="M 113.594743 164.398328 
L 113.594743 104.503005 
" style="fill:none;stroke:#3d3d3d;stroke-linecap:square;stroke-width:1.5;"/>
   </g>
   <g id="line2d_13">
    <path clip-path="url(#p98535eb959)" d="M 113.594743 141.841313 
L 113.594743 126.75894 
" style="fill:none;stroke:#3d3d3d;stroke-linecap:square;stroke-width:4.5;"/>
   </g>
   <g id="line2d_14">
    <path clip-path="url(#p98535eb959)" d="M 139.405853 164.588205 
L 139.405853 106.234528 
" style="fill:none;stroke:#3d3d3d;stroke-linecap:square;stroke-width:1.5;"/>
   </g>
   <g id="line2d_15">
    <path clip-path="url(#p98535eb959)" d="M 139.405853 142.21638 
L 139.405853 127.046061 
" style="fill:none;stroke:#3d3d3d;stroke-linecap:square;stroke-width:4.5;"/>
   </g>
   <g id="line2d_16">
    <path clip-path="url(#p98535eb959)" d="M 184.575296 119.302507 
L 184.575296 34.517256 
" style="fill:none;stroke:#3d3d3d;stroke-linecap:square;stroke-width:1.5;"/>
   </g>
   <g id="line2d_17">
    <path clip-path="url(#p98535eb959)" d="M 184.575296 80.086284 
L 184.575296 53.859356 
" style="fill:none;stroke:#3d3d3d;stroke-linecap:square;stroke-width:4.5;"/>
   </g>
   <g id="line2d_18">
    <path clip-path="url(#p98535eb959)" d="M 210.386406 162.88047 
L 210.386406 105.111897 
" style="fill:none;stroke:#3d3d3d;stroke-linecap:square;stroke-width:1.5;"/>
   </g>
   <g id="line2d_19">
    <path clip-path="url(#p98535eb959)" d="M 210.386406 141.028325 
L 210.386406 126.413183 
" style="fill:none;stroke:#3d3d3d;stroke-linecap:square;stroke-width:4.5;"/>
   </g>
   <g id="line2d_20">
    <path clip-path="url(#p98535eb959)" d="M 236.197516 162.88047 
L 236.197516 107.99759 
" style="fill:none;stroke:#3d3d3d;stroke-linecap:square;stroke-width:1.5;"/>
   </g>
   <g id="line2d_21">
    <path clip-path="url(#p98535eb959)" d="M 236.197516 141.342254 
L 236.197516 126.980705 
" style="fill:none;stroke:#3d3d3d;stroke-linecap:square;stroke-width:4.5;"/>
   </g>
   <g id="line2d_22">
    <path clip-path="url(#p98535eb959)" d="M 281.366959 138.554887 
L 281.366959 81.616775 
" style="fill:none;stroke:#3d3d3d;stroke-linecap:square;stroke-width:1.5;"/>
   </g>
   <g id="line2d_23">
    <path clip-path="url(#p98535eb959)" d="M 281.366959 117.325628 
L 281.366959 103.01108 
" style="fill:none;stroke:#3d3d3d;stroke-linecap:square;stroke-width:4.5;"/>
   </g>
   <g id="line2d_24">
    <path clip-path="url(#p98535eb959)" d="M 307.178069 164.582454 
L 307.178069 110.779244 
" style="fill:none;stroke:#3d3d3d;stroke-linecap:square;stroke-width:1.5;"/>
   </g>
   <g id="line2d_25">
    <path clip-path="url(#p98535eb959)" d="M 307.178069 144.340358 
L 307.178069 130.790171 
" style="fill:none;stroke:#3d3d3d;stroke-linecap:square;stroke-width:4.5;"/>
   </g>
   <g id="line2d_26">
    <path clip-path="url(#p98535eb959)" d="M 332.989179 164.692176 
L 332.989179 110.779244 
" style="fill:none;stroke:#3d3d3d;stroke-linecap:square;stroke-width:1.5;"/>
   </g>
   <g id="line2d_27">
    <path clip-path="url(#p98535eb959)" d="M 332.989179 144.490867 
L 332.989179 130.966892 
" style="fill:none;stroke:#3d3d3d;stroke-linecap:square;stroke-width:4.5;"/>
   </g>
   <g id="patch_6">
    <path d="M 65.198912 317.93875 
L 65.198912 10.8 
" style="fill:none;stroke:#000000;stroke-linecap:square;stroke-linejoin:miter;stroke-width:0.8;"/>
   </g>
   <g id="patch_7">
    <path d="M 65.198912 317.93875 
L 355.5739 317.93875 
" style="fill:none;stroke:#000000;stroke-linecap:square;stroke-linejoin:miter;stroke-width:0.8;"/>
   </g>
   <g id="PathCollection_1">
    <defs>
     <path d="M 0 1.5 
C 0.397805 1.5 0.77937 1.341951 1.06066 1.06066 
C 1.341951 0.77937 1.5 0.397805 1.5 0 
C 1.5 -0.397805 1.341951 -0.77937 1.06066 -1.06066 
C 0.77937 -1.341951 0.397805 -1.5 0 -1.5 
C -0.397805 -1.5 -0.77937 -1.341951 -1.06066 -1.06066 
C -1.341951 -0.77937 -1.5 -0.397805 -1.5 0 
C -1.5 0.397805 -1.341951 0.77937 -1.06066 1.06066 
C -0.77937 1.341951 -0.397805 1.5 0 1.5 
z
" id="mc2a5e1393d" style="stroke:#3d3d3d;"/>
    </defs>
    <g clip-path="url(#p98535eb959)">
     <use style="fill:#ffffff;stroke:#3d3d3d;" x="87.783633" xlink:href="#mc2a5e1393d" y="89.130444"/>
    </g>
   </g>
   <g id="PathCollection_2">
    <g clip-path="url(#p98535eb959)">
     <use style="fill:#ffffff;stroke:#3d3d3d;" x="113.594743" xlink:href="#mc2a5e1393d" y="133.421035"/>
    </g>
   </g>
   <g id="PathCollection_3">
    <g clip-path="url(#p98535eb959)">
     <use style="fill:#ffffff;stroke:#3d3d3d;" x="139.405853" xlink:href="#mc2a5e1393d" y="133.720068"/>
    </g>
   </g>
   <g id="PathCollection_4">
    <g clip-path="url(#p98535eb959)">
     <use style="fill:#ffffff;stroke:#3d3d3d;" x="184.575296" xlink:href="#mc2a5e1393d" y="63.41849"/>
    </g>
   </g>
   <g id="PathCollection_5">
    <g clip-path="url(#p98535eb959)">
     <use style="fill:#ffffff;stroke:#3d3d3d;" x="210.386406" xlink:href="#mc2a5e1393d" y="133.007011"/>
    </g>
   </g>
   <g id="PathCollection_6">
    <g clip-path="url(#p98535eb959)">
     <use style="fill:#ffffff;stroke:#3d3d3d;" x="236.197516" xlink:href="#mc2a5e1393d" y="133.408764"/>
    </g>
   </g>
   <g id="PathCollection_7">
    <g clip-path="url(#p98535eb959)">
     <use style="fill:#ffffff;stroke:#3d3d3d;" x="281.366959" xlink:href="#mc2a5e1393d" y="109.507481"/>
    </g>
   </g>
   <g id="PathCollection_8">
    <g clip-path="url(#p98535eb959)">
     <use style="fill:#ffffff;stroke:#3d3d3d;" x="307.178069" xlink:href="#mc2a5e1393d" y="137.193008"/>
    </g>
   </g>
   <g id="PathCollection_9">
    <g clip-path="url(#p98535eb959)">
     <use style="fill:#ffffff;stroke:#3d3d3d;" x="332.989179" xlink:href="#mc2a5e1393d" y="137.347598"/>
    </g>
   </g>
  </g>
  <g id="legend_1">
   <g id="text_12">
    <!-- target_number -->
    <g transform="translate(359.175625 160.603125)scale(0.1 -0.1)">
     <defs>
      <path d="M 41.109375 46.296875 
Q 39.59375 47.171875 37.8125 47.578125 
Q 36.03125 48 33.890625 48 
Q 26.265625 48 22.1875 43.046875 
Q 18.109375 38.09375 18.109375 28.8125 
L 18.109375 0 
L 9.078125 0 
L 9.078125 54.6875 
L 18.109375 54.6875 
L 18.109375 46.1875 
Q 20.953125 51.171875 25.484375 53.578125 
Q 30.03125 56 36.53125 56 
Q 37.453125 56 38.578125 55.875 
Q 39.703125 55.765625 41.0625 55.515625 
z
" id="DejaVuSans-114"/>
      <path d="M 45.40625 27.984375 
Q 45.40625 37.75 41.375 43.109375 
Q 37.359375 48.484375 30.078125 48.484375 
Q 22.859375 48.484375 18.828125 43.109375 
Q 14.796875 37.75 14.796875 27.984375 
Q 14.796875 18.265625 18.828125 12.890625 
Q 22.859375 7.515625 30.078125 7.515625 
Q 37.359375 7.515625 41.375 12.890625 
Q 45.40625 18.265625 45.40625 27.984375 
z
M 54.390625 6.78125 
Q 54.390625 -7.171875 48.1875 -13.984375 
Q 42 -20.796875 29.203125 -20.796875 
Q 24.46875 -20.796875 20.265625 -20.09375 
Q 16.0625 -19.390625 12.109375 -17.921875 
L 12.109375 -9.1875 
Q 16.0625 -11.328125 19.921875 -12.34375 
Q 23.78125 -13.375 27.78125 -13.375 
Q 36.625 -13.375 41.015625 -8.765625 
Q 45.40625 -4.15625 45.40625 5.171875 
L 45.40625 9.625 
Q 42.625 4.78125 38.28125 2.390625 
Q 33.9375 0 27.875 0 
Q 17.828125 0 11.671875 7.65625 
Q 5.515625 15.328125 5.515625 27.984375 
Q 5.515625 40.671875 11.671875 48.328125 
Q 17.828125 56 27.875 56 
Q 33.9375 56 38.28125 53.609375 
Q 42.625 51.21875 45.40625 46.390625 
L 45.40625 54.6875 
L 54.390625 54.6875 
z
" id="DejaVuSans-103"/>
      <path d="M 8.5 21.578125 
L 8.5 54.6875 
L 17.484375 54.6875 
L 17.484375 21.921875 
Q 17.484375 14.15625 20.5 10.265625 
Q 23.53125 6.390625 29.59375 6.390625 
Q 36.859375 6.390625 41.078125 11.03125 
Q 45.3125 15.671875 45.3125 23.6875 
L 45.3125 54.6875 
L 54.296875 54.6875 
L 54.296875 0 
L 45.3125 0 
L 45.3125 8.40625 
Q 42.046875 3.421875 37.71875 1 
Q 33.40625 -1.421875 27.6875 -1.421875 
Q 18.265625 -1.421875 13.375 4.4375 
Q 8.5 10.296875 8.5 21.578125 
z
M 31.109375 56 
z
" id="DejaVuSans-117"/>
      <path d="M 52 44.1875 
Q 55.375 50.25 60.0625 53.125 
Q 64.75 56 71.09375 56 
Q 79.640625 56 84.28125 50.015625 
Q 88.921875 44.046875 88.921875 33.015625 
L 88.921875 0 
L 79.890625 0 
L 79.890625 32.71875 
Q 79.890625 40.578125 77.09375 44.375 
Q 74.3125 48.1875 68.609375 48.1875 
Q 61.625 48.1875 57.5625 43.546875 
Q 53.515625 38.921875 53.515625 30.90625 
L 53.515625 0 
L 44.484375 0 
L 44.484375 32.71875 
Q 44.484375 40.625 41.703125 44.40625 
Q 38.921875 48.1875 33.109375 48.1875 
Q 26.21875 48.1875 22.15625 43.53125 
Q 18.109375 38.875 18.109375 30.90625 
L 18.109375 0 
L 9.078125 0 
L 9.078125 54.6875 
L 18.109375 54.6875 
L 18.109375 46.1875 
Q 21.1875 51.21875 25.484375 53.609375 
Q 29.78125 56 35.6875 56 
Q 41.65625 56 45.828125 52.96875 
Q 50 49.953125 52 44.1875 
z
" id="DejaVuSans-109"/>
      <path d="M 48.6875 27.296875 
Q 48.6875 37.203125 44.609375 42.84375 
Q 40.53125 48.484375 33.40625 48.484375 
Q 26.265625 48.484375 22.1875 42.84375 
Q 18.109375 37.203125 18.109375 27.296875 
Q 18.109375 17.390625 22.1875 11.75 
Q 26.265625 6.109375 33.40625 6.109375 
Q 40.53125 6.109375 44.609375 11.75 
Q 48.6875 17.390625 48.6875 27.296875 
z
M 18.109375 46.390625 
Q 20.953125 51.265625 25.265625 53.625 
Q 29.59375 56 35.59375 56 
Q 45.5625 56 51.78125 48.09375 
Q 58.015625 40.1875 58.015625 27.296875 
Q 58.015625 14.40625 51.78125 6.484375 
Q 45.5625 -1.421875 35.59375 -1.421875 
Q 29.59375 -1.421875 25.265625 0.953125 
Q 20.953125 3.328125 18.109375 8.203125 
L 18.109375 0 
L 9.078125 0 
L 9.078125 75.984375 
L 18.109375 75.984375 
z
" id="DejaVuSans-98"/>
     </defs>
     <use xlink:href="#DejaVuSans-116"/>
     <use x="39.208984" xlink:href="#DejaVuSans-97"/>
     <use x="100.488281" xlink:href="#DejaVuSans-114"/>
     <use x="139.851562" xlink:href="#DejaVuSans-103"/>
     <use x="203.328125" xlink:href="#DejaVuSans-101"/>
     <use x="264.851562" xlink:href="#DejaVuSans-116"/>
     <use x="304.060547" xlink:href="#DejaVuSans-95"/>
     <use x="354.060547" xlink:href="#DejaVuSans-110"/>
     <use x="417.439453" xlink:href="#DejaVuSans-117"/>
     <use x="480.818359" xlink:href="#DejaVuSans-109"/>
     <use x="578.230469" xlink:href="#DejaVuSans-98"/>
     <use x="641.707031" xlink:href="#DejaVuSans-101"/>
     <use x="703.230469" xlink:href="#DejaVuSans-114"/>
    </g>
   </g>
   <g id="patch_8">
    <path d="M 379.211562 175.559375 
L 399.211562 175.559375 
L 399.211562 168.559375 
L 379.211562 168.559375 
z
" style="fill:#3274a1;stroke:#3d3d3d;stroke-linejoin:miter;stroke-width:0.75;"/>
   </g>
   <g id="text_13">
    <!-- 1 -->
    <g transform="translate(407.211562 175.559375)scale(0.1 -0.1)">
     <defs>
      <path d="M 12.40625 8.296875 
L 28.515625 8.296875 
L 28.515625 63.921875 
L 10.984375 60.40625 
L 10.984375 69.390625 
L 28.421875 72.90625 
L 38.28125 72.90625 
L 38.28125 8.296875 
L 54.390625 8.296875 
L 54.390625 0 
L 12.40625 0 
z
" id="DejaVuSans-49"/>
     </defs>
     <use xlink:href="#DejaVuSans-49"/>
    </g>
   </g>
   <g id="patch_9">
    <path d="M 379.211562 190.2375 
L 399.211562 190.2375 
L 399.211562 183.2375 
L 379.211562 183.2375 
z
" style="fill:#e1812c;stroke:#3d3d3d;stroke-linejoin:miter;stroke-width:0.75;"/>
   </g>
   <g id="text_14">
    <!-- 2 -->
    <g transform="translate(407.211562 190.2375)scale(0.1 -0.1)">
     <use xlink:href="#DejaVuSans-50"/>
    </g>
   </g>
   <g id="patch_10">
    <path d="M 379.211562 204.915625 
L 399.211562 204.915625 
L 399.211562 197.915625 
L 379.211562 197.915625 
z
" style="fill:#3a923a;stroke:#3d3d3d;stroke-linejoin:miter;stroke-width:0.75;"/>
   </g>
   <g id="text_15">
    <!-- 3 -->
    <g transform="translate(407.211562 204.915625)scale(0.1 -0.1)">
     <defs>
      <path d="M 40.578125 39.3125 
Q 47.65625 37.796875 51.625 33 
Q 55.609375 28.21875 55.609375 21.1875 
Q 55.609375 10.40625 48.1875 4.484375 
Q 40.765625 -1.421875 27.09375 -1.421875 
Q 22.515625 -1.421875 17.65625 -0.515625 
Q 12.796875 0.390625 7.625 2.203125 
L 7.625 11.71875 
Q 11.71875 9.328125 16.59375 8.109375 
Q 21.484375 6.890625 26.8125 6.890625 
Q 36.078125 6.890625 40.9375 10.546875 
Q 45.796875 14.203125 45.796875 21.1875 
Q 45.796875 27.640625 41.28125 31.265625 
Q 36.765625 34.90625 28.71875 34.90625 
L 20.21875 34.90625 
L 20.21875 43.015625 
L 29.109375 43.015625 
Q 36.375 43.015625 40.234375 45.921875 
Q 44.09375 48.828125 44.09375 54.296875 
Q 44.09375 59.90625 40.109375 62.90625 
Q 36.140625 65.921875 28.71875 65.921875 
Q 24.65625 65.921875 20.015625 65.03125 
Q 15.375 64.15625 9.8125 62.3125 
L 9.8125 71.09375 
Q 15.4375 72.65625 20.34375 73.4375 
Q 25.25 74.21875 29.59375 74.21875 
Q 40.828125 74.21875 47.359375 69.109375 
Q 53.90625 64.015625 53.90625 55.328125 
Q 53.90625 49.265625 50.4375 45.09375 
Q 46.96875 40.921875 40.578125 39.3125 
z
" id="DejaVuSans-51"/>
     </defs>
     <use xlink:href="#DejaVuSans-51"/>
    </g>
   </g>
  </g>
 </g>
 <defs>
  <clipPath id="p98535eb959">
   <rect height="307.13875" width="290.374988" x="65.198912" y="10.8"/>
  </clipPath>
 </defs>
</svg>
