<?xml version="1.0" encoding="utf-8" standalone="no"?>
<!DOCTYPE svg PUBLIC "-//W3C//DTD SVG 1.1//EN"
  "http://www.w3.org/Graphics/SVG/1.1/DTD/svg11.dtd">
<!-- Created with matplotlib (https://matplotlib.org/) -->
<svg height="360pt" version="1.1" viewBox="0 0 442.61 360" width="442.61pt" xmlns="http://www.w3.org/2000/svg" xmlns:xlink="http://www.w3.org/1999/xlink">
 <metadata>
  <rdf:RDF xmlns:cc="http://creativecommons.org/ns#" xmlns:dc="http://purl.org/dc/elements/1.1/" xmlns:rdf="http://www.w3.org/1999/02/22-rdf-syntax-ns#">
   <cc:Work>
    <dc:type rdf:resource="http://purl.org/dc/dcmitype/StillImage"/>
    <dc:date>2023-11-13T22:51:41.301701</dc:date>
    <dc:format>image/svg+xml</dc:format>
    <dc:creator>
     <cc:Agent>
      <dc:title>Matplotlib v3.3.4, https://matplotlib.org/</dc:title>
     </cc:Agent>
    </dc:creator>
   </cc:Work>
  </rdf:RDF>
 </metadata>
 <defs>
  <style type="text/css">*{stroke-linecap:butt;stroke-linejoin:round;}</style>
 </defs>
 <g id="figure_1">
  <g id="patch_1">
   <path d="M 0 360 
L 442.61 360 
L 442.61 0 
L 0 0 
z
" style="fill:#ffffff;"/>
  </g>
  <g id="axes_1">
   <g id="patch_2">
    <path d="M 69.071749 317.93875 
L 355.5739 317.93875 
L 355.5739 10.8 
L 69.071749 10.8 
z
" style="fill:#ffffff;"/>
   </g>
   <g id="PolyCollection_1">
    <defs>
     <path d="M 97.724678 -56.022102 
L 97.719251 -56.022102 
L 97.715236 -58.842476 
L 97.70926 -61.662851 
L 97.703682 -64.483225 
L 97.701821 -67.303599 
L 97.704575 -70.123973 
L 97.708907 -72.944347 
L 97.71051 -75.764722 
L 97.70774 -78.585096 
L 97.702892 -81.40547 
L 97.699646 -84.225844 
L 97.699038 -87.046218 
L 97.698535 -89.866593 
L 97.695342 -92.686967 
L 97.688697 -95.507341 
L 97.677995 -98.327715 
L 97.661068 -101.148089 
L 97.636263 -103.968464 
L 97.604971 -106.788838 
L 97.569994 -109.609212 
L 97.530309 -112.429586 
L 97.479332 -115.24996 
L 97.412313 -118.070335 
L 97.333007 -120.890709 
L 97.242561 -123.711083 
L 97.109009 -126.531457 
L 96.825938 -129.351831 
L 96.186693 -132.172206 
L 94.953872 -134.99258 
L 93.06316 -137.812954 
L 90.780242 -140.633328 
L 88.56271 -143.453702 
L 86.730086 -146.274077 
L 85.315624 -149.094451 
L 84.190431 -151.914825 
L 83.214843 -154.735199 
L 82.298008 -157.555573 
L 81.443757 -160.375948 
L 80.760736 -163.196322 
L 80.345923 -166.016696 
L 80.13928 -168.83707 
L 79.945368 -171.657444 
L 79.614285 -174.477819 
L 79.178137 -177.298193 
L 78.802623 -180.118567 
L 78.621821 -182.938941 
L 78.638585 -185.759315 
L 78.763198 -188.57969 
L 78.896277 -191.400064 
L 78.979885 -194.220438 
L 79.029895 -197.040812 
L 79.140872 -199.861186 
L 79.432306 -202.68156 
L 79.968655 -205.501935 
L 80.726652 -208.322309 
L 81.624359 -211.142683 
L 82.558692 -213.963057 
L 83.436372 -216.783431 
L 84.226378 -219.603806 
L 84.99439 -222.42418 
L 85.853847 -225.244554 
L 86.87101 -228.064928 
L 88.012711 -230.885302 
L 89.166075 -233.705677 
L 90.209138 -236.526051 
L 91.083411 -239.346425 
L 91.807488 -242.166799 
L 92.435353 -244.987173 
L 93.022674 -247.807548 
L 93.61095 -250.627922 
L 94.20152 -253.448296 
L 94.751882 -256.26867 
L 95.22356 -259.089044 
L 95.623149 -261.909419 
L 95.982838 -264.729793 
L 96.316344 -267.550167 
L 96.608115 -270.370541 
L 96.838227 -273.190915 
L 97.006685 -276.01129 
L 97.13326 -278.831664 
L 97.240699 -281.652038 
L 97.340783 -284.472412 
L 97.432325 -287.292786 
L 97.50848 -290.113161 
L 97.564095 -292.933535 
L 97.597706 -295.753909 
L 97.613295 -298.574283 
L 97.622401 -301.394657 
L 97.637475 -304.215032 
L 97.660108 -307.035406 
L 97.680884 -309.85578 
L 97.691591 -312.676154 
L 97.692982 -315.496528 
L 97.691045 -318.316903 
L 97.690609 -321.137277 
L 97.693644 -323.957651 
L 97.700078 -326.778025 
L 97.708057 -329.598399 
L 97.714931 -332.418774 
L 97.719192 -335.239148 
L 97.724737 -335.239148 
L 97.724737 -335.239148 
L 97.728998 -332.418774 
L 97.735872 -329.598399 
L 97.743851 -326.778025 
L 97.750285 -323.957651 
L 97.75332 -321.137277 
L 97.752884 -318.316903 
L 97.750947 -315.496528 
L 97.752338 -312.676154 
L 97.763045 -309.85578 
L 97.783821 -307.035406 
L 97.806454 -304.215032 
L 97.821528 -301.394657 
L 97.830634 -298.574283 
L 97.846223 -295.753909 
L 97.879834 -292.933535 
L 97.935449 -290.113161 
L 98.011604 -287.292786 
L 98.103146 -284.472412 
L 98.20323 -281.652038 
L 98.310669 -278.831664 
L 98.437244 -276.01129 
L 98.605702 -273.190915 
L 98.835814 -270.370541 
L 99.127585 -267.550167 
L 99.461091 -264.729793 
L 99.82078 -261.909419 
L 100.220369 -259.089044 
L 100.692047 -256.26867 
L 101.242409 -253.448296 
L 101.832979 -250.627922 
L 102.421255 -247.807548 
L 103.008576 -244.987173 
L 103.636441 -242.166799 
L 104.360518 -239.346425 
L 105.234791 -236.526051 
L 106.277854 -233.705677 
L 107.431218 -230.885302 
L 108.572919 -228.064928 
L 109.590082 -225.244554 
L 110.449539 -222.42418 
L 111.217551 -219.603806 
L 112.007557 -216.783431 
L 112.885237 -213.963057 
L 113.81957 -211.142683 
L 114.717277 -208.322309 
L 115.475274 -205.501935 
L 116.011623 -202.68156 
L 116.303057 -199.861186 
L 116.414034 -197.040812 
L 116.464044 -194.220438 
L 116.547652 -191.400064 
L 116.680731 -188.57969 
L 116.805344 -185.759315 
L 116.822108 -182.938941 
L 116.641306 -180.118567 
L 116.265792 -177.298193 
L 115.829644 -174.477819 
L 115.498561 -171.657444 
L 115.304649 -168.83707 
L 115.098006 -166.016696 
L 114.683193 -163.196322 
L 114.000172 -160.375948 
L 113.145921 -157.555573 
L 112.229086 -154.735199 
L 111.253498 -151.914825 
L 110.128305 -149.094451 
L 108.713843 -146.274077 
L 106.881219 -143.453702 
L 104.663687 -140.633328 
L 102.380769 -137.812954 
L 100.490057 -134.99258 
L 99.257236 -132.172206 
L 98.617991 -129.351831 
L 98.33492 -126.531457 
L 98.201368 -123.711083 
L 98.110922 -120.890709 
L 98.031616 -118.070335 
L 97.964597 -115.24996 
L 97.91362 -112.429586 
L 97.873935 -109.609212 
L 97.838958 -106.788838 
L 97.807666 -103.968464 
L 97.782861 -101.148089 
L 97.765934 -98.327715 
L 97.755232 -95.507341 
L 97.748587 -92.686967 
L 97.745394 -89.866593 
L 97.744891 -87.046218 
L 97.744283 -84.225844 
L 97.741037 -81.40547 
L 97.736189 -78.585096 
L 97.733419 -75.764722 
L 97.735022 -72.944347 
L 97.739354 -70.123973 
L 97.742108 -67.303599 
L 97.740247 -64.483225 
L 97.734669 -61.662851 
L 97.728693 -58.842476 
L 97.724678 -56.022102 
z
" id="mfe77074b4b" style="stroke:#3f3f3f;stroke-width:1.5;"/>
    </defs>
    <g clip-path="url(#p30521273e1)">
     <use style="fill:#3274a1;stroke:#3f3f3f;stroke-width:1.5;" x="0" xlink:href="#mfe77074b4b" y="360"/>
    </g>
   </g>
   <g id="PolyCollection_2">
    <defs>
     <path d="M 135.924274 -59.746208 
L 135.920228 -59.746208 
L 135.917517 -62.009414 
L 135.913478 -64.272621 
L 135.909361 -66.535827 
L 135.90716 -68.799033 
L 135.907891 -71.062239 
L 135.910322 -73.325445 
L 135.911865 -75.588651 
L 135.910883 -77.851857 
L 135.908057 -80.115063 
L 135.905394 -82.378269 
L 135.903844 -84.641475 
L 135.902192 -86.904681 
L 135.898749 -89.167888 
L 135.893801 -91.431094 
L 135.889451 -93.6943 
L 135.886918 -95.957506 
L 135.884934 -98.220712 
L 135.881209 -100.483918 
L 135.874196 -102.747124 
L 135.862308 -105.01033 
L 135.842777 -107.273536 
L 135.813543 -109.536742 
L 135.776582 -111.799948 
L 135.738062 -114.063155 
L 135.703826 -116.326361 
L 135.673385 -118.589567 
L 135.638373 -120.852773 
L 135.58821 -123.115979 
L 135.516333 -125.379185 
L 135.416386 -127.642391 
L 135.265803 -129.905597 
L 135.007125 -132.168803 
L 134.548234 -134.432009 
L 133.800921 -136.695216 
L 132.746136 -138.958422 
L 131.4734 -141.221628 
L 130.149815 -143.484834 
L 128.939694 -145.74804 
L 127.94265 -148.011246 
L 127.190638 -150.274452 
L 126.683697 -152.537658 
L 126.416766 -154.800864 
L 126.37218 -157.06407 
L 126.496599 -159.327276 
L 126.702876 -161.590483 
L 126.91092 -163.853689 
L 127.094452 -166.116895 
L 127.285391 -168.380101 
L 127.526715 -170.643307 
L 127.822759 -172.906513 
L 128.141735 -175.169719 
L 128.458369 -177.432925 
L 128.774313 -179.696131 
L 129.096874 -181.959337 
L 129.420352 -184.222543 
L 129.737455 -186.48575 
L 130.054673 -188.748956 
L 130.386775 -191.012162 
L 130.742377 -193.275368 
L 131.117444 -195.538574 
L 131.495056 -197.80178 
L 131.850219 -200.064986 
L 132.165934 -202.328192 
L 132.451898 -204.591398 
L 132.741489 -206.854604 
L 133.061619 -209.11781 
L 133.405351 -211.381017 
L 133.738784 -213.644223 
L 134.033503 -215.907429 
L 134.285403 -218.170635 
L 134.503127 -220.433841 
L 134.690497 -222.697047 
L 134.846673 -224.960253 
L 134.976307 -227.223459 
L 135.092006 -229.486665 
L 135.206931 -231.749871 
L 135.32664 -234.013078 
L 135.447522 -236.276284 
L 135.561475 -238.53949 
L 135.660809 -240.802696 
L 135.740228 -243.065902 
L 135.797764 -245.329108 
L 135.835563 -247.592314 
L 135.859086 -249.85552 
L 135.874287 -252.118726 
L 135.884326 -254.381932 
L 135.888718 -256.645138 
L 135.886464 -258.908345 
L 135.880168 -261.171551 
L 135.875902 -263.434757 
L 135.878155 -265.697963 
L 135.885787 -267.961169 
L 135.894055 -270.224375 
L 135.899919 -272.487581 
L 135.904082 -274.750787 
L 135.908422 -277.013993 
L 135.913251 -279.277199 
L 135.917474 -281.540405 
L 135.920222 -283.803612 
L 135.924281 -283.803612 
L 135.924281 -283.803612 
L 135.927029 -281.540405 
L 135.931251 -279.277199 
L 135.93608 -277.013993 
L 135.94042 -274.750787 
L 135.944583 -272.487581 
L 135.950448 -270.224375 
L 135.958715 -267.961169 
L 135.966347 -265.697963 
L 135.9686 -263.434757 
L 135.964334 -261.171551 
L 135.958039 -258.908345 
L 135.955784 -256.645138 
L 135.960176 -254.381932 
L 135.970215 -252.118726 
L 135.985416 -249.85552 
L 136.00894 -247.592314 
L 136.046738 -245.329108 
L 136.104275 -243.065902 
L 136.183693 -240.802696 
L 136.283027 -238.53949 
L 136.39698 -236.276284 
L 136.517862 -234.013078 
L 136.637571 -231.749871 
L 136.752497 -229.486665 
L 136.868196 -227.223459 
L 136.99783 -224.960253 
L 137.154006 -222.697047 
L 137.341376 -220.433841 
L 137.559099 -218.170635 
L 137.810999 -215.907429 
L 138.105718 -213.644223 
L 138.439152 -211.381017 
L 138.782883 -209.11781 
L 139.103014 -206.854604 
L 139.392605 -204.591398 
L 139.678568 -202.328192 
L 139.994283 -200.064986 
L 140.349447 -197.80178 
L 140.727058 -195.538574 
L 141.102125 -193.275368 
L 141.457728 -191.012162 
L 141.789829 -188.748956 
L 142.107047 -186.48575 
L 142.42415 -184.222543 
L 142.747628 -181.959337 
L 143.07019 -179.696131 
L 143.386133 -177.432925 
L 143.702768 -175.169719 
L 144.021743 -172.906513 
L 144.317788 -170.643307 
L 144.559111 -168.380101 
L 144.750051 -166.116895 
L 144.933582 -163.853689 
L 145.141627 -161.590483 
L 145.347904 -159.327276 
L 145.472323 -157.06407 
L 145.427737 -154.800864 
L 145.160806 -152.537658 
L 144.653864 -150.274452 
L 143.901853 -148.011246 
L 142.904808 -145.74804 
L 141.694687 -143.484834 
L 140.371102 -141.221628 
L 139.098366 -138.958422 
L 138.043582 -136.695216 
L 137.296268 -134.432009 
L 136.837377 -132.168803 
L 136.5787 -129.905597 
L 136.428117 -127.642391 
L 136.328169 -125.379185 
L 136.256293 -123.115979 
L 136.20613 -120.852773 
L 136.171118 -118.589567 
L 136.140676 -116.326361 
L 136.106441 -114.063155 
L 136.06792 -111.799948 
L 136.030959 -109.536742 
L 136.001726 -107.273536 
L 135.982194 -105.01033 
L 135.970307 -102.747124 
L 135.963294 -100.483918 
L 135.959569 -98.220712 
L 135.957585 -95.957506 
L 135.955051 -93.6943 
L 135.950702 -91.431094 
L 135.945754 -89.167888 
L 135.942311 -86.904681 
L 135.940658 -84.641475 
L 135.939108 -82.378269 
L 135.936446 -80.115063 
L 135.93362 -77.851857 
L 135.932638 -75.588651 
L 135.934181 -73.325445 
L 135.936612 -71.062239 
L 135.937342 -68.799033 
L 135.935142 -66.535827 
L 135.931025 -64.272621 
L 135.926986 -62.009414 
L 135.924274 -59.746208 
z
" id="m86e3d2bfc6" style="stroke:#3f3f3f;stroke-width:1.5;"/>
    </defs>
    <g clip-path="url(#p30521273e1)">
     <use style="fill:#e1812c;stroke:#3f3f3f;stroke-width:1.5;" x="0" xlink:href="#m86e3d2bfc6" y="360"/>
    </g>
   </g>
   <g id="PolyCollection_3">
    <defs>
     <path d="M 193.226166 -65.559893 
L 193.219196 -65.559893 
L 193.214024 -68.19013 
L 193.205488 -70.820366 
L 193.195369 -73.450603 
L 193.187955 -76.080839 
L 193.187295 -78.711076 
L 193.193572 -81.341312 
L 193.202501 -83.971549 
L 193.208144 -86.601786 
L 193.205802 -89.232022 
L 193.193171 -91.862259 
L 193.171142 -94.492495 
L 193.144431 -97.122732 
L 193.119532 -99.752968 
L 193.099397 -102.383205 
L 193.079673 -105.013442 
L 193.05207 -107.643678 
L 193.012572 -110.273915 
L 192.965059 -112.904151 
L 192.916068 -115.534388 
L 192.86737 -118.164624 
L 192.811847 -120.794861 
L 192.726811 -123.425098 
L 192.553775 -126.055334 
L 192.161303 -128.685571 
L 191.32236 -131.315807 
L 189.796204 -133.946044 
L 187.572294 -136.57628 
L 185.101743 -139.206517 
L 183.164126 -141.836753 
L 182.325914 -144.46699 
L 182.497032 -147.097227 
L 183.060166 -149.727463 
L 183.393159 -152.3577 
L 183.233785 -154.987936 
L 182.644403 -157.618173 
L 181.776452 -160.248409 
L 180.719294 -162.878646 
L 179.517603 -165.508883 
L 178.254961 -168.139119 
L 177.084512 -170.769356 
L 176.176381 -173.399592 
L 175.622599 -176.029829 
L 175.368551 -178.660065 
L 175.240419 -181.290302 
L 175.070193 -183.920539 
L 174.806572 -186.550775 
L 174.505962 -189.181012 
L 174.252264 -191.811248 
L 174.122538 -194.441485 
L 174.203722 -197.071721 
L 174.583257 -199.701958 
L 175.294763 -202.332195 
L 176.271078 -204.962431 
L 177.351134 -207.592668 
L 178.345396 -210.222904 
L 179.131248 -212.853141 
L 179.721668 -215.483377 
L 180.249062 -218.113614 
L 180.870417 -220.74385 
L 181.672584 -223.374087 
L 182.641988 -226.004324 
L 183.695568 -228.63456 
L 184.735412 -231.264797 
L 185.689578 -233.895033 
L 186.520436 -236.52527 
L 187.219011 -239.155506 
L 187.809916 -241.785743 
L 188.348359 -244.41598 
L 188.882568 -247.046216 
L 189.413462 -249.676453 
L 189.9035 -252.306689 
L 190.322068 -254.936926 
L 190.670503 -257.567162 
L 190.96989 -260.197399 
L 191.242475 -262.827636 
L 191.506267 -265.457872 
L 191.771699 -268.088109 
L 192.033052 -270.718345 
L 192.268602 -273.348582 
L 192.458356 -275.978818 
L 192.602376 -278.609055 
L 192.718137 -281.239291 
L 192.821347 -283.869528 
L 192.914042 -286.499765 
L 192.991062 -289.130001 
L 193.051676 -291.760238 
L 193.100727 -294.390474 
L 193.141908 -297.020711 
L 193.174654 -299.650947 
L 193.196985 -302.281184 
L 193.208644 -304.911421 
L 193.211559 -307.541657 
L 193.209114 -310.171894 
L 193.205461 -312.80213 
L 193.204255 -315.432367 
L 193.206871 -318.062603 
L 193.211907 -320.69284 
L 193.216862 -323.323077 
L 193.22019 -325.953313 
L 193.225173 -325.953313 
L 193.225173 -325.953313 
L 193.228501 -323.323077 
L 193.233455 -320.69284 
L 193.238492 -318.062603 
L 193.241108 -315.432367 
L 193.239902 -312.80213 
L 193.236249 -310.171894 
L 193.233804 -307.541657 
L 193.236718 -304.911421 
L 193.248378 -302.281184 
L 193.270709 -299.650947 
L 193.303455 -297.020711 
L 193.344636 -294.390474 
L 193.393687 -291.760238 
L 193.454301 -289.130001 
L 193.531321 -286.499765 
L 193.624015 -283.869528 
L 193.727226 -281.239291 
L 193.842986 -278.609055 
L 193.987006 -275.978818 
L 194.176761 -273.348582 
L 194.412311 -270.718345 
L 194.673664 -268.088109 
L 194.939096 -265.457872 
L 195.202888 -262.827636 
L 195.475472 -260.197399 
L 195.77486 -257.567162 
L 196.123295 -254.936926 
L 196.541863 -252.306689 
L 197.031901 -249.676453 
L 197.562794 -247.046216 
L 198.097003 -244.41598 
L 198.635446 -241.785743 
L 199.226352 -239.155506 
L 199.924927 -236.52527 
L 200.755785 -233.895033 
L 201.709951 -231.264797 
L 202.749794 -228.63456 
L 203.803375 -226.004324 
L 204.772779 -223.374087 
L 205.574945 -220.74385 
L 206.1963 -218.113614 
L 206.723695 -215.483377 
L 207.314115 -212.853141 
L 208.099967 -210.222904 
L 209.094229 -207.592668 
L 210.174284 -204.962431 
L 211.1506 -202.332195 
L 211.862105 -199.701958 
L 212.241641 -197.071721 
L 212.322825 -194.441485 
L 212.193098 -191.811248 
L 211.939401 -189.181012 
L 211.638791 -186.550775 
L 211.375169 -183.920539 
L 211.204944 -181.290302 
L 211.076812 -178.660065 
L 210.822764 -176.029829 
L 210.268982 -173.399592 
L 209.360851 -170.769356 
L 208.190402 -168.139119 
L 206.92776 -165.508883 
L 205.726068 -162.878646 
L 204.668911 -160.248409 
L 203.80096 -157.618173 
L 203.211578 -154.987936 
L 203.052204 -152.3577 
L 203.385197 -149.727463 
L 203.948331 -147.097227 
L 204.119449 -144.46699 
L 203.281236 -141.836753 
L 201.34362 -139.206517 
L 198.873069 -136.57628 
L 196.649159 -133.946044 
L 195.123003 -131.315807 
L 194.28406 -128.685571 
L 193.891587 -126.055334 
L 193.718552 -123.425098 
L 193.633516 -120.794861 
L 193.577992 -118.164624 
L 193.529295 -115.534388 
L 193.480303 -112.904151 
L 193.43279 -110.273915 
L 193.393293 -107.643678 
L 193.365689 -105.013442 
L 193.345966 -102.383205 
L 193.325831 -99.752968 
L 193.300932 -97.122732 
L 193.27422 -94.492495 
L 193.252191 -91.862259 
L 193.239561 -89.232022 
L 193.237218 -86.601786 
L 193.242862 -83.971549 
L 193.251791 -81.341312 
L 193.258068 -78.711076 
L 193.257408 -76.080839 
L 193.249994 -73.450603 
L 193.239875 -70.820366 
L 193.231339 -68.19013 
L 193.226166 -65.559893 
z
" id="ma7ee997419" style="stroke:#3f3f3f;stroke-width:1.5;"/>
    </defs>
    <g clip-path="url(#p30521273e1)">
     <use style="fill:#3274a1;stroke:#3f3f3f;stroke-width:1.5;" x="0" xlink:href="#ma7ee997419" y="360"/>
    </g>
   </g>
   <g id="PolyCollection_4">
    <defs>
     <path d="M 231.425718 -77.963042 
L 231.420218 -77.963042 
L 231.4161 -80.142215 
L 231.409155 -82.321388 
L 231.400529 -84.500561 
L 231.393401 -86.679735 
L 231.391026 -88.858908 
L 231.393495 -91.038081 
L 231.39612 -93.217255 
L 231.391258 -95.396428 
L 231.372722 -97.575601 
L 231.340403 -99.754774 
L 231.301597 -101.933948 
L 231.266472 -104.113121 
L 231.241085 -106.292294 
L 231.225512 -108.471468 
L 231.217454 -110.650641 
L 231.213494 -112.829814 
L 231.206247 -115.008987 
L 231.184937 -117.188161 
L 231.141754 -119.367334 
L 231.076793 -121.546507 
L 230.996001 -123.725681 
L 230.902444 -125.904854 
L 230.780186 -128.084027 
L 230.569875 -130.2632 
L 230.151542 -132.442374 
L 229.377554 -134.621547 
L 228.187277 -136.80072 
L 226.736893 -138.979894 
L 225.38001 -141.159067 
L 224.437713 -143.33824 
L 223.961419 -145.517413 
L 223.740689 -147.696587 
L 223.521445 -149.87576 
L 223.187388 -152.054933 
L 222.776776 -154.234107 
L 222.3994 -156.41328 
L 222.146074 -158.592453 
L 222.032675 -160.771626 
L 222.001248 -162.9508 
L 221.976093 -165.129973 
L 221.92504 -167.309146 
L 221.872896 -169.48832 
L 221.87372 -171.667493 
L 221.983001 -173.846666 
L 222.236652 -176.025839 
L 222.624258 -178.205013 
L 223.082239 -180.384186 
L 223.537252 -182.563359 
L 223.965313 -184.742533 
L 224.402248 -186.921706 
L 224.896336 -189.100879 
L 225.452586 -191.280052 
L 226.018023 -193.459226 
L 226.518415 -195.638399 
L 226.912777 -197.817572 
L 227.215667 -199.996745 
L 227.473685 -202.175919 
L 227.732051 -204.355092 
L 228.022232 -206.534265 
L 228.360258 -208.713439 
L 228.740714 -210.892612 
L 229.137791 -213.071785 
L 229.520955 -215.250958 
L 229.869293 -217.430132 
L 230.173167 -219.609305 
L 230.429903 -221.788478 
L 230.640302 -223.967652 
L 230.806268 -226.146825 
L 230.93094 -228.325998 
L 231.022453 -230.505171 
L 231.09586 -232.684345 
L 231.166324 -234.863518 
L 231.237976 -237.042691 
L 231.301611 -239.221865 
L 231.344823 -241.401038 
L 231.363548 -243.580211 
L 231.364771 -245.759384 
L 231.361087 -247.938558 
L 231.362942 -250.117731 
L 231.373162 -252.296904 
L 231.387003 -254.476078 
L 231.397707 -256.655251 
L 231.402457 -258.834424 
L 231.403331 -261.013597 
L 231.403591 -263.192771 
L 231.404253 -265.371944 
L 231.404466 -267.551117 
L 231.404131 -269.730291 
L 231.404692 -271.909464 
L 231.407091 -274.088637 
L 231.410059 -276.26781 
L 231.411203 -278.446984 
L 231.40961 -280.626157 
L 231.407002 -282.80533 
L 231.40623 -284.984504 
L 231.408679 -287.163677 
L 231.413244 -289.34285 
L 231.417722 -291.522023 
L 231.420727 -293.701197 
L 231.425209 -293.701197 
L 231.425209 -293.701197 
L 231.428214 -291.522023 
L 231.432692 -289.34285 
L 231.437257 -287.163677 
L 231.439706 -284.984504 
L 231.438934 -282.80533 
L 231.436326 -280.626157 
L 231.434733 -278.446984 
L 231.435877 -276.26781 
L 231.438845 -274.088637 
L 231.441245 -271.909464 
L 231.441805 -269.730291 
L 231.441471 -267.551117 
L 231.441683 -265.371944 
L 231.442345 -263.192771 
L 231.442605 -261.013597 
L 231.443479 -258.834424 
L 231.448229 -256.655251 
L 231.458933 -254.476078 
L 231.472774 -252.296904 
L 231.482994 -250.117731 
L 231.484849 -247.938558 
L 231.481165 -245.759384 
L 231.482388 -243.580211 
L 231.501113 -241.401038 
L 231.544325 -239.221865 
L 231.60796 -237.042691 
L 231.679612 -234.863518 
L 231.750076 -232.684345 
L 231.823483 -230.505171 
L 231.914997 -228.325998 
L 232.039668 -226.146825 
L 232.205634 -223.967652 
L 232.416033 -221.788478 
L 232.67277 -219.609305 
L 232.976643 -217.430132 
L 233.324981 -215.250958 
L 233.708145 -213.071785 
L 234.105222 -210.892612 
L 234.485679 -208.713439 
L 234.823704 -206.534265 
L 235.113885 -204.355092 
L 235.372252 -202.175919 
L 235.63027 -199.996745 
L 235.933159 -197.817572 
L 236.327521 -195.638399 
L 236.827913 -193.459226 
L 237.39335 -191.280052 
L 237.9496 -189.100879 
L 238.443688 -186.921706 
L 238.880624 -184.742533 
L 239.308684 -182.563359 
L 239.763697 -180.384186 
L 240.221679 -178.205013 
L 240.609284 -176.025839 
L 240.862935 -173.846666 
L 240.972216 -171.667493 
L 240.97304 -169.48832 
L 240.920896 -167.309146 
L 240.869843 -165.129973 
L 240.844688 -162.9508 
L 240.813261 -160.771626 
L 240.699862 -158.592453 
L 240.446537 -156.41328 
L 240.06916 -154.234107 
L 239.658548 -152.054933 
L 239.324491 -149.87576 
L 239.105247 -147.696587 
L 238.884517 -145.517413 
L 238.408223 -143.33824 
L 237.465926 -141.159067 
L 236.109043 -138.979894 
L 234.658659 -136.80072 
L 233.468382 -134.621547 
L 232.694394 -132.442374 
L 232.276061 -130.2632 
L 232.06575 -128.084027 
L 231.943492 -125.904854 
L 231.849935 -123.725681 
L 231.769143 -121.546507 
L 231.704182 -119.367334 
L 231.660999 -117.188161 
L 231.639689 -115.008987 
L 231.632442 -112.829814 
L 231.628482 -110.650641 
L 231.620424 -108.471468 
L 231.604851 -106.292294 
L 231.579465 -104.113121 
L 231.544339 -101.933948 
L 231.505533 -99.754774 
L 231.473214 -97.575601 
L 231.454678 -95.396428 
L 231.449816 -93.217255 
L 231.452442 -91.038081 
L 231.45491 -88.858908 
L 231.452535 -86.679735 
L 231.445407 -84.500561 
L 231.436781 -82.321388 
L 231.429836 -80.142215 
L 231.425718 -77.963042 
z
" id="md2666f8eb6" style="stroke:#3f3f3f;stroke-width:1.5;"/>
    </defs>
    <g clip-path="url(#p30521273e1)">
     <use style="fill:#e1812c;stroke:#3f3f3f;stroke-width:1.5;" x="0" xlink:href="#md2666f8eb6" y="360"/>
    </g>
   </g>
   <g id="PolyCollection_5">
    <defs>
     <path d="M 288.726065 -94.893656 
L 288.720731 -94.893656 
L 288.71696 -96.910039 
L 288.710274 -98.926422 
L 288.700154 -100.942805 
L 288.686393 -102.959188 
L 288.668959 -104.975571 
L 288.648636 -106.991955 
L 288.6279 -109.008338 
L 288.609924 -111.024721 
L 288.595612 -113.041104 
L 288.58206 -115.057487 
L 288.564655 -117.07387 
L 288.539979 -119.090253 
L 288.505662 -121.106636 
L 288.45829 -123.123019 
L 288.393213 -125.139402 
L 288.306365 -127.155785 
L 288.194602 -129.172168 
L 288.052477 -131.188552 
L 287.866435 -133.204935 
L 287.610479 -135.221318 
L 287.248727 -137.237701 
L 286.743771 -139.254084 
L 286.060853 -141.270467 
L 285.163334 -143.28685 
L 284.012785 -145.303233 
L 282.591682 -147.319616 
L 280.940549 -149.335999 
L 279.169554 -151.352382 
L 277.419061 -153.368765 
L 275.799526 -155.385149 
L 274.362188 -157.401532 
L 273.11363 -159.417915 
L 272.052255 -161.434298 
L 271.200048 -163.450681 
L 270.599968 -165.467064 
L 270.265345 -167.483447 
L 270.125852 -169.49983 
L 270.044806 -171.516213 
L 269.914309 -173.532596 
L 269.73907 -175.548979 
L 269.623255 -177.565362 
L 269.674446 -179.581745 
L 269.915797 -181.598129 
L 270.279208 -183.614512 
L 270.674588 -185.630895 
L 271.067171 -187.647278 
L 271.493906 -189.663661 
L 272.009114 -191.680044 
L 272.620167 -193.696427 
L 273.284195 -195.71281 
L 273.962493 -197.729193 
L 274.658156 -199.745576 
L 275.394487 -201.761959 
L 276.174595 -203.778342 
L 276.974001 -205.794726 
L 277.76375 -207.811109 
L 278.531301 -209.827492 
L 279.28127 -211.843875 
L 280.019898 -213.860258 
L 280.7369 -215.876641 
L 281.401357 -217.893024 
L 281.982613 -219.909407 
L 282.483896 -221.92579 
L 282.953003 -223.942173 
L 283.448443 -225.958556 
L 283.987038 -227.974939 
L 284.524886 -229.991323 
L 284.993433 -232.007706 
L 285.358047 -234.024089 
L 285.645172 -236.040472 
L 285.916932 -238.056855 
L 286.222037 -240.073238 
L 286.565857 -242.089621 
L 286.914645 -244.106004 
L 287.220807 -246.122387 
L 287.451192 -248.13877 
L 287.604506 -250.155153 
L 287.708847 -252.171536 
L 287.802423 -254.187919 
L 287.91207 -256.204303 
L 288.042513 -258.220686 
L 288.17923 -260.237069 
L 288.300289 -262.253452 
L 288.389869 -264.269835 
L 288.446637 -266.286218 
L 288.48301 -268.302601 
L 288.515605 -270.318984 
L 288.552906 -272.335367 
L 288.59021 -274.35175 
L 288.616656 -276.368133 
L 288.627329 -278.384516 
L 288.628525 -280.4009 
L 288.631933 -282.417283 
L 288.644704 -284.433666 
L 288.665207 -286.450049 
L 288.686793 -288.466432 
L 288.703841 -290.482815 
L 288.714537 -292.499198 
L 288.720009 -294.515581 
L 288.726788 -294.515581 
L 288.726788 -294.515581 
L 288.732259 -292.499198 
L 288.742956 -290.482815 
L 288.760003 -288.466432 
L 288.78159 -286.450049 
L 288.802093 -284.433666 
L 288.814863 -282.417283 
L 288.818272 -280.4009 
L 288.819467 -278.384516 
L 288.830141 -276.368133 
L 288.856587 -274.35175 
L 288.89389 -272.335367 
L 288.931191 -270.318984 
L 288.963786 -268.302601 
L 289.00016 -266.286218 
L 289.056928 -264.269835 
L 289.146508 -262.253452 
L 289.267566 -260.237069 
L 289.404283 -258.220686 
L 289.534726 -256.204303 
L 289.644373 -254.187919 
L 289.73795 -252.171536 
L 289.84229 -250.155153 
L 289.995604 -248.13877 
L 290.22599 -246.122387 
L 290.532151 -244.106004 
L 290.88094 -242.089621 
L 291.224759 -240.073238 
L 291.529864 -238.056855 
L 291.801624 -236.040472 
L 292.08875 -234.024089 
L 292.453363 -232.007706 
L 292.92191 -229.991323 
L 293.459758 -227.974939 
L 293.998354 -225.958556 
L 294.493794 -223.942173 
L 294.962901 -221.92579 
L 295.464183 -219.909407 
L 296.04544 -217.893024 
L 296.709896 -215.876641 
L 297.426899 -213.860258 
L 298.165527 -211.843875 
L 298.915495 -209.827492 
L 299.683047 -207.811109 
L 300.472796 -205.794726 
L 301.272201 -203.778342 
L 302.05231 -201.761959 
L 302.788641 -199.745576 
L 303.484303 -197.729193 
L 304.162601 -195.71281 
L 304.826629 -193.696427 
L 305.437682 -191.680044 
L 305.95289 -189.663661 
L 306.379625 -187.647278 
L 306.772209 -185.630895 
L 307.167588 -183.614512 
L 307.531 -181.598129 
L 307.77235 -179.581745 
L 307.823542 -177.565362 
L 307.707726 -175.548979 
L 307.532488 -173.532596 
L 307.40199 -171.516213 
L 307.320944 -169.49983 
L 307.181451 -167.483447 
L 306.846829 -165.467064 
L 306.246748 -163.450681 
L 305.394541 -161.434298 
L 304.333167 -159.417915 
L 303.084608 -157.401532 
L 301.647271 -155.385149 
L 300.027735 -153.368765 
L 298.277243 -151.352382 
L 296.506248 -149.335999 
L 294.855115 -147.319616 
L 293.434012 -145.303233 
L 292.283462 -143.28685 
L 291.385943 -141.270467 
L 290.703026 -139.254084 
L 290.198069 -137.237701 
L 289.836317 -135.221318 
L 289.580361 -133.204935 
L 289.39432 -131.188552 
L 289.252195 -129.172168 
L 289.140431 -127.155785 
L 289.053583 -125.139402 
L 288.988507 -123.123019 
L 288.941134 -121.106636 
L 288.906818 -119.090253 
L 288.882142 -117.07387 
L 288.864736 -115.057487 
L 288.851184 -113.041104 
L 288.836873 -111.024721 
L 288.818896 -109.008338 
L 288.79816 -106.991955 
L 288.777837 -104.975571 
L 288.760403 -102.959188 
L 288.746643 -100.942805 
L 288.736522 -98.926422 
L 288.729836 -96.910039 
L 288.726065 -94.893656 
z
" id="mb3937ecce3" style="stroke:#3f3f3f;stroke-width:1.5;"/>
    </defs>
    <g clip-path="url(#p30521273e1)">
     <use style="fill:#3274a1;stroke:#3f3f3f;stroke-width:1.5;" x="0" xlink:href="#mb3937ecce3" y="360"/>
    </g>
   </g>
   <g id="PolyCollection_6">
    <defs>
     <path d="M 326.926089 -82.883954 
L 326.921281 -82.883954 
L 326.917781 -84.774671 
L 326.911534 -86.665389 
L 326.902561 -88.556107 
L 326.892413 -90.446824 
L 326.883828 -92.337542 
L 326.879114 -94.228259 
L 326.878263 -96.118977 
L 326.878532 -98.009694 
L 326.87604 -99.900412 
L 326.867951 -101.79113 
L 326.853332 -103.681847 
L 326.832271 -105.572565 
L 326.804604 -107.463282 
L 326.770097 -109.354 
L 326.730268 -111.244718 
L 326.689447 -113.135435 
L 326.652512 -115.026153 
L 326.62039 -116.91687 
L 326.587308 -118.807588 
L 326.54211 -120.698305 
L 326.472194 -122.589023 
L 326.36703 -124.479741 
L 326.219826 -126.370458 
L 326.028422 -128.261176 
L 325.796322 -130.151893 
L 325.530213 -132.042611 
L 325.229801 -133.933329 
L 324.876654 -135.824046 
L 324.43759 -137.714764 
L 323.884758 -139.605481 
L 323.212574 -141.496199 
L 322.436875 -143.386917 
L 321.588586 -145.277634 
L 320.716444 -147.168352 
L 319.885247 -149.059069 
L 319.151131 -150.949787 
L 318.53315 -152.840504 
L 318.021878 -154.731222 
L 317.62454 -156.62194 
L 317.390591 -158.512657 
L 317.373613 -160.403375 
L 317.562688 -162.294092 
L 317.862641 -164.18481 
L 318.153454 -166.075528 
L 318.374468 -167.966245 
L 318.558125 -169.856963 
L 318.789358 -171.74768 
L 319.128674 -173.638398 
L 319.563649 -175.529115 
L 320.028312 -177.419833 
L 320.466213 -179.310551 
L 320.871946 -181.201268 
L 321.276596 -183.091986 
L 321.704931 -184.982703 
L 322.150922 -186.873421 
L 322.586578 -188.764139 
L 322.985423 -190.654856 
L 323.336379 -192.545574 
L 323.640343 -194.436291 
L 323.900508 -196.327009 
L 324.120691 -198.217727 
L 324.312422 -200.108444 
L 324.498052 -201.999162 
L 324.700029 -203.889879 
L 324.923854 -205.780597 
L 325.153933 -207.671314 
L 325.369901 -209.562032 
L 325.566577 -211.45275 
L 325.755151 -213.343467 
L 325.945896 -215.234185 
L 326.134133 -217.124902 
L 326.304244 -219.01562 
L 326.443611 -220.906338 
L 326.549943 -222.797055 
L 326.627842 -224.687773 
L 326.683193 -226.57849 
L 326.722047 -228.469208 
L 326.75129 -230.359925 
L 326.776541 -232.250643 
L 326.799008 -234.141361 
L 326.816388 -236.032078 
L 326.827657 -237.922796 
L 326.835883 -239.813513 
L 326.845746 -241.704231 
L 326.859363 -243.594949 
L 326.875238 -245.485666 
L 326.890256 -247.376384 
L 326.901691 -249.267101 
L 326.907966 -251.157819 
L 326.908934 -253.048537 
L 326.906025 -254.939254 
L 326.901836 -256.829972 
L 326.899066 -258.720689 
L 326.899404 -260.611407 
L 326.90299 -262.502124 
L 326.908589 -264.392842 
L 326.914363 -266.28356 
L 326.918866 -268.174277 
L 326.921619 -270.064995 
L 326.925751 -270.064995 
L 326.925751 -270.064995 
L 326.928504 -268.174277 
L 326.933007 -266.28356 
L 326.938781 -264.392842 
L 326.94438 -262.502124 
L 326.947965 -260.611407 
L 326.948304 -258.720689 
L 326.945534 -256.829972 
L 326.941345 -254.939254 
L 326.938436 -253.048537 
L 326.939404 -251.157819 
L 326.945679 -249.267101 
L 326.957113 -247.376384 
L 326.972132 -245.485666 
L 326.988007 -243.594949 
L 327.001624 -241.704231 
L 327.011487 -239.813513 
L 327.019713 -237.922796 
L 327.030982 -236.032078 
L 327.048362 -234.141361 
L 327.070829 -232.250643 
L 327.09608 -230.359925 
L 327.125323 -228.469208 
L 327.164177 -226.57849 
L 327.219528 -224.687773 
L 327.297426 -222.797055 
L 327.403759 -220.906338 
L 327.543126 -219.01562 
L 327.713237 -217.124902 
L 327.901474 -215.234185 
L 328.092219 -213.343467 
L 328.280793 -211.45275 
L 328.477469 -209.562032 
L 328.693437 -207.671314 
L 328.923516 -205.780597 
L 329.147341 -203.889879 
L 329.349318 -201.999162 
L 329.534947 -200.108444 
L 329.726679 -198.217727 
L 329.946862 -196.327009 
L 330.207027 -194.436291 
L 330.510991 -192.545574 
L 330.861947 -190.654856 
L 331.260792 -188.764139 
L 331.696448 -186.873421 
L 332.142439 -184.982703 
L 332.570774 -183.091986 
L 332.975424 -181.201268 
L 333.381157 -179.310551 
L 333.819058 -177.419833 
L 334.283721 -175.529115 
L 334.718696 -173.638398 
L 335.058012 -171.74768 
L 335.289245 -169.856963 
L 335.472902 -167.966245 
L 335.693916 -166.075528 
L 335.984729 -164.18481 
L 336.284682 -162.294092 
L 336.473757 -160.403375 
L 336.456779 -158.512657 
L 336.22283 -156.62194 
L 335.825492 -154.731222 
L 335.31422 -152.840504 
L 334.696239 -150.949787 
L 333.962123 -149.059069 
L 333.130926 -147.168352 
L 332.258784 -145.277634 
L 331.410495 -143.386917 
L 330.634796 -141.496199 
L 329.962612 -139.605481 
L 329.40978 -137.714764 
L 328.970716 -135.824046 
L 328.617569 -133.933329 
L 328.317157 -132.042611 
L 328.051048 -130.151893 
L 327.818947 -128.261176 
L 327.627544 -126.370458 
L 327.48034 -124.479741 
L 327.375176 -122.589023 
L 327.305259 -120.698305 
L 327.260062 -118.807588 
L 327.226979 -116.91687 
L 327.194858 -115.026153 
L 327.157923 -113.135435 
L 327.117102 -111.244718 
L 327.077273 -109.354 
L 327.042766 -107.463282 
L 327.015099 -105.572565 
L 326.994038 -103.681847 
L 326.979419 -101.79113 
L 326.97133 -99.900412 
L 326.968838 -98.009694 
L 326.969107 -96.118977 
L 326.968256 -94.228259 
L 326.963542 -92.337542 
L 326.954957 -90.446824 
L 326.944809 -88.556107 
L 326.935836 -86.665389 
L 326.929588 -84.774671 
L 326.926089 -82.883954 
z
" id="medd62735a0" style="stroke:#3f3f3f;stroke-width:1.5;"/>
    </defs>
    <g clip-path="url(#p30521273e1)">
     <use style="fill:#e1812c;stroke:#3f3f3f;stroke-width:1.5;" x="0" xlink:href="#medd62735a0" y="360"/>
    </g>
   </g>
   <g id="patch_3">
    <path clip-path="url(#p30521273e1)" d="M 116.822108 219.607973 
L 116.822108 219.607973 
L 116.822108 219.607973 
L 116.822108 219.607973 
z
" style="fill:#3274a1;stroke:#3f3f3f;stroke-linejoin:miter;stroke-width:0.75;"/>
   </g>
   <g id="patch_4">
    <path clip-path="url(#p30521273e1)" d="M 116.822108 219.607973 
L 116.822108 219.607973 
L 116.822108 219.607973 
L 116.822108 219.607973 
z
" style="fill:#e1812c;stroke:#3f3f3f;stroke-linejoin:miter;stroke-width:0.75;"/>
   </g>
   <g id="matplotlib.axis_1">
    <g id="xtick_1">
     <g id="line2d_1">
      <defs>
       <path d="M 0 0 
L 0 3.5 
" id="mcc351a6aaa" style="stroke:#000000;stroke-width:0.8;"/>
      </defs>
      <g>
       <use style="stroke:#000000;stroke-width:0.8;" x="116.822108" xlink:href="#mcc351a6aaa" y="317.93875"/>
      </g>
     </g>
     <g id="text_1">
      <!-- BLSTM-MD -->
      <g transform="translate(90.095545 332.537188)scale(0.1 -0.1)">
       <defs>
        <path d="M 19.671875 34.8125 
L 19.671875 8.109375 
L 35.5 8.109375 
Q 43.453125 8.109375 47.28125 11.40625 
Q 51.125 14.703125 51.125 21.484375 
Q 51.125 28.328125 47.28125 31.5625 
Q 43.453125 34.8125 35.5 34.8125 
z
M 19.671875 64.796875 
L 19.671875 42.828125 
L 34.28125 42.828125 
Q 41.5 42.828125 45.03125 45.53125 
Q 48.578125 48.25 48.578125 53.8125 
Q 48.578125 59.328125 45.03125 62.0625 
Q 41.5 64.796875 34.28125 64.796875 
z
M 9.8125 72.90625 
L 35.015625 72.90625 
Q 46.296875 72.90625 52.390625 68.21875 
Q 58.5 63.53125 58.5 54.890625 
Q 58.5 48.1875 55.375 44.234375 
Q 52.25 40.28125 46.1875 39.3125 
Q 53.46875 37.75 57.5 32.78125 
Q 61.53125 27.828125 61.53125 20.40625 
Q 61.53125 10.640625 54.890625 5.3125 
Q 48.25 0 35.984375 0 
L 9.8125 0 
z
" id="DejaVuSans-66"/>
        <path d="M 9.8125 72.90625 
L 19.671875 72.90625 
L 19.671875 8.296875 
L 55.171875 8.296875 
L 55.171875 0 
L 9.8125 0 
z
" id="DejaVuSans-76"/>
        <path d="M 53.515625 70.515625 
L 53.515625 60.890625 
Q 47.90625 63.578125 42.921875 64.890625 
Q 37.9375 66.21875 33.296875 66.21875 
Q 25.25 66.21875 20.875 63.09375 
Q 16.5 59.96875 16.5 54.203125 
Q 16.5 49.359375 19.40625 46.890625 
Q 22.3125 44.4375 30.421875 42.921875 
L 36.375 41.703125 
Q 47.40625 39.59375 52.65625 34.296875 
Q 57.90625 29 57.90625 20.125 
Q 57.90625 9.515625 50.796875 4.046875 
Q 43.703125 -1.421875 29.984375 -1.421875 
Q 24.8125 -1.421875 18.96875 -0.25 
Q 13.140625 0.921875 6.890625 3.21875 
L 6.890625 13.375 
Q 12.890625 10.015625 18.65625 8.296875 
Q 24.421875 6.59375 29.984375 6.59375 
Q 38.421875 6.59375 43.015625 9.90625 
Q 47.609375 13.234375 47.609375 19.390625 
Q 47.609375 24.75 44.3125 27.78125 
Q 41.015625 30.8125 33.5 32.328125 
L 27.484375 33.5 
Q 16.453125 35.6875 11.515625 40.375 
Q 6.59375 45.0625 6.59375 53.421875 
Q 6.59375 63.09375 13.40625 68.65625 
Q 20.21875 74.21875 32.171875 74.21875 
Q 37.3125 74.21875 42.625 73.28125 
Q 47.953125 72.359375 53.515625 70.515625 
z
" id="DejaVuSans-83"/>
        <path d="M -0.296875 72.90625 
L 61.375 72.90625 
L 61.375 64.59375 
L 35.5 64.59375 
L 35.5 0 
L 25.59375 0 
L 25.59375 64.59375 
L -0.296875 64.59375 
z
" id="DejaVuSans-84"/>
        <path d="M 9.8125 72.90625 
L 24.515625 72.90625 
L 43.109375 23.296875 
L 61.8125 72.90625 
L 76.515625 72.90625 
L 76.515625 0 
L 66.890625 0 
L 66.890625 64.015625 
L 48.09375 14.015625 
L 38.1875 14.015625 
L 19.390625 64.015625 
L 19.390625 0 
L 9.8125 0 
z
" id="DejaVuSans-77"/>
        <path d="M 4.890625 31.390625 
L 31.203125 31.390625 
L 31.203125 23.390625 
L 4.890625 23.390625 
z
" id="DejaVuSans-45"/>
        <path d="M 19.671875 64.796875 
L 19.671875 8.109375 
L 31.59375 8.109375 
Q 46.6875 8.109375 53.6875 14.9375 
Q 60.6875 21.78125 60.6875 36.53125 
Q 60.6875 51.171875 53.6875 57.984375 
Q 46.6875 64.796875 31.59375 64.796875 
z
M 9.8125 72.90625 
L 30.078125 72.90625 
Q 51.265625 72.90625 61.171875 64.09375 
Q 71.09375 55.28125 71.09375 36.53125 
Q 71.09375 17.671875 61.125 8.828125 
Q 51.171875 0 30.078125 0 
L 9.8125 0 
z
" id="DejaVuSans-68"/>
       </defs>
       <use xlink:href="#DejaVuSans-66"/>
       <use x="68.603516" xlink:href="#DejaVuSans-76"/>
       <use x="124.316406" xlink:href="#DejaVuSans-83"/>
       <use x="187.792969" xlink:href="#DejaVuSans-84"/>
       <use x="248.876953" xlink:href="#DejaVuSans-77"/>
       <use x="335.15625" xlink:href="#DejaVuSans-45"/>
       <use x="371.240234" xlink:href="#DejaVuSans-77"/>
       <use x="457.519531" xlink:href="#DejaVuSans-68"/>
      </g>
     </g>
    </g>
    <g id="xtick_2">
     <g id="line2d_2">
      <g>
       <use style="stroke:#000000;stroke-width:0.8;" x="212.322825" xlink:href="#mcc351a6aaa" y="317.93875"/>
      </g>
     </g>
     <g id="text_2">
      <!-- Conv-TasNet-MD -->
      <g transform="translate(171.784543 332.537188)scale(0.1 -0.1)">
       <defs>
        <path d="M 64.40625 67.28125 
L 64.40625 56.890625 
Q 59.421875 61.53125 53.78125 63.8125 
Q 48.140625 66.109375 41.796875 66.109375 
Q 29.296875 66.109375 22.65625 58.46875 
Q 16.015625 50.828125 16.015625 36.375 
Q 16.015625 21.96875 22.65625 14.328125 
Q 29.296875 6.6875 41.796875 6.6875 
Q 48.140625 6.6875 53.78125 8.984375 
Q 59.421875 11.28125 64.40625 15.921875 
L 64.40625 5.609375 
Q 59.234375 2.09375 53.4375 0.328125 
Q 47.65625 -1.421875 41.21875 -1.421875 
Q 24.65625 -1.421875 15.125 8.703125 
Q 5.609375 18.84375 5.609375 36.375 
Q 5.609375 53.953125 15.125 64.078125 
Q 24.65625 74.21875 41.21875 74.21875 
Q 47.75 74.21875 53.53125 72.484375 
Q 59.328125 70.75 64.40625 67.28125 
z
" id="DejaVuSans-67"/>
        <path d="M 30.609375 48.390625 
Q 23.390625 48.390625 19.1875 42.75 
Q 14.984375 37.109375 14.984375 27.296875 
Q 14.984375 17.484375 19.15625 11.84375 
Q 23.34375 6.203125 30.609375 6.203125 
Q 37.796875 6.203125 41.984375 11.859375 
Q 46.1875 17.53125 46.1875 27.296875 
Q 46.1875 37.015625 41.984375 42.703125 
Q 37.796875 48.390625 30.609375 48.390625 
z
M 30.609375 56 
Q 42.328125 56 49.015625 48.375 
Q 55.71875 40.765625 55.71875 27.296875 
Q 55.71875 13.875 49.015625 6.21875 
Q 42.328125 -1.421875 30.609375 -1.421875 
Q 18.84375 -1.421875 12.171875 6.21875 
Q 5.515625 13.875 5.515625 27.296875 
Q 5.515625 40.765625 12.171875 48.375 
Q 18.84375 56 30.609375 56 
z
" id="DejaVuSans-111"/>
        <path d="M 54.890625 33.015625 
L 54.890625 0 
L 45.90625 0 
L 45.90625 32.71875 
Q 45.90625 40.484375 42.875 44.328125 
Q 39.84375 48.1875 33.796875 48.1875 
Q 26.515625 48.1875 22.3125 43.546875 
Q 18.109375 38.921875 18.109375 30.90625 
L 18.109375 0 
L 9.078125 0 
L 9.078125 54.6875 
L 18.109375 54.6875 
L 18.109375 46.1875 
Q 21.34375 51.125 25.703125 53.5625 
Q 30.078125 56 35.796875 56 
Q 45.21875 56 50.046875 50.171875 
Q 54.890625 44.34375 54.890625 33.015625 
z
" id="DejaVuSans-110"/>
        <path d="M 2.984375 54.6875 
L 12.5 54.6875 
L 29.59375 8.796875 
L 46.6875 54.6875 
L 56.203125 54.6875 
L 35.6875 0 
L 23.484375 0 
z
" id="DejaVuSans-118"/>
        <path d="M 34.28125 27.484375 
Q 23.390625 27.484375 19.1875 25 
Q 14.984375 22.515625 14.984375 16.5 
Q 14.984375 11.71875 18.140625 8.90625 
Q 21.296875 6.109375 26.703125 6.109375 
Q 34.1875 6.109375 38.703125 11.40625 
Q 43.21875 16.703125 43.21875 25.484375 
L 43.21875 27.484375 
z
M 52.203125 31.203125 
L 52.203125 0 
L 43.21875 0 
L 43.21875 8.296875 
Q 40.140625 3.328125 35.546875 0.953125 
Q 30.953125 -1.421875 24.3125 -1.421875 
Q 15.921875 -1.421875 10.953125 3.296875 
Q 6 8.015625 6 15.921875 
Q 6 25.140625 12.171875 29.828125 
Q 18.359375 34.515625 30.609375 34.515625 
L 43.21875 34.515625 
L 43.21875 35.40625 
Q 43.21875 41.609375 39.140625 45 
Q 35.0625 48.390625 27.6875 48.390625 
Q 23 48.390625 18.546875 47.265625 
Q 14.109375 46.140625 10.015625 43.890625 
L 10.015625 52.203125 
Q 14.9375 54.109375 19.578125 55.046875 
Q 24.21875 56 28.609375 56 
Q 40.484375 56 46.34375 49.84375 
Q 52.203125 43.703125 52.203125 31.203125 
z
" id="DejaVuSans-97"/>
        <path d="M 44.28125 53.078125 
L 44.28125 44.578125 
Q 40.484375 46.53125 36.375 47.5 
Q 32.28125 48.484375 27.875 48.484375 
Q 21.1875 48.484375 17.84375 46.4375 
Q 14.5 44.390625 14.5 40.28125 
Q 14.5 37.15625 16.890625 35.375 
Q 19.28125 33.59375 26.515625 31.984375 
L 29.59375 31.296875 
Q 39.15625 29.25 43.1875 25.515625 
Q 47.21875 21.78125 47.21875 15.09375 
Q 47.21875 7.46875 41.1875 3.015625 
Q 35.15625 -1.421875 24.609375 -1.421875 
Q 20.21875 -1.421875 15.453125 -0.5625 
Q 10.6875 0.296875 5.421875 2 
L 5.421875 11.28125 
Q 10.40625 8.6875 15.234375 7.390625 
Q 20.0625 6.109375 24.8125 6.109375 
Q 31.15625 6.109375 34.5625 8.28125 
Q 37.984375 10.453125 37.984375 14.40625 
Q 37.984375 18.0625 35.515625 20.015625 
Q 33.0625 21.96875 24.703125 23.78125 
L 21.578125 24.515625 
Q 13.234375 26.265625 9.515625 29.90625 
Q 5.8125 33.546875 5.8125 39.890625 
Q 5.8125 47.609375 11.28125 51.796875 
Q 16.75 56 26.8125 56 
Q 31.78125 56 36.171875 55.265625 
Q 40.578125 54.546875 44.28125 53.078125 
z
" id="DejaVuSans-115"/>
        <path d="M 9.8125 72.90625 
L 23.09375 72.90625 
L 55.421875 11.921875 
L 55.421875 72.90625 
L 64.984375 72.90625 
L 64.984375 0 
L 51.703125 0 
L 19.390625 60.984375 
L 19.390625 0 
L 9.8125 0 
z
" id="DejaVuSans-78"/>
        <path d="M 56.203125 29.59375 
L 56.203125 25.203125 
L 14.890625 25.203125 
Q 15.484375 15.921875 20.484375 11.0625 
Q 25.484375 6.203125 34.421875 6.203125 
Q 39.59375 6.203125 44.453125 7.46875 
Q 49.3125 8.734375 54.109375 11.28125 
L 54.109375 2.78125 
Q 49.265625 0.734375 44.1875 -0.34375 
Q 39.109375 -1.421875 33.890625 -1.421875 
Q 20.796875 -1.421875 13.15625 6.1875 
Q 5.515625 13.8125 5.515625 26.8125 
Q 5.515625 40.234375 12.765625 48.109375 
Q 20.015625 56 32.328125 56 
Q 43.359375 56 49.78125 48.890625 
Q 56.203125 41.796875 56.203125 29.59375 
z
M 47.21875 32.234375 
Q 47.125 39.59375 43.09375 43.984375 
Q 39.0625 48.390625 32.421875 48.390625 
Q 24.90625 48.390625 20.390625 44.140625 
Q 15.875 39.890625 15.1875 32.171875 
z
" id="DejaVuSans-101"/>
        <path d="M 18.3125 70.21875 
L 18.3125 54.6875 
L 36.8125 54.6875 
L 36.8125 47.703125 
L 18.3125 47.703125 
L 18.3125 18.015625 
Q 18.3125 11.328125 20.140625 9.421875 
Q 21.96875 7.515625 27.59375 7.515625 
L 36.8125 7.515625 
L 36.8125 0 
L 27.59375 0 
Q 17.1875 0 13.234375 3.875 
Q 9.28125 7.765625 9.28125 18.015625 
L 9.28125 47.703125 
L 2.6875 47.703125 
L 2.6875 54.6875 
L 9.28125 54.6875 
L 9.28125 70.21875 
z
" id="DejaVuSans-116"/>
       </defs>
       <use xlink:href="#DejaVuSans-67"/>
       <use x="69.824219" xlink:href="#DejaVuSans-111"/>
       <use x="131.005859" xlink:href="#DejaVuSans-110"/>
       <use x="194.384766" xlink:href="#DejaVuSans-118"/>
       <use x="250.939453" xlink:href="#DejaVuSans-45"/>
       <use x="277.898438" xlink:href="#DejaVuSans-84"/>
       <use x="322.482422" xlink:href="#DejaVuSans-97"/>
       <use x="383.761719" xlink:href="#DejaVuSans-115"/>
       <use x="435.861328" xlink:href="#DejaVuSans-78"/>
       <use x="510.666016" xlink:href="#DejaVuSans-101"/>
       <use x="572.189453" xlink:href="#DejaVuSans-116"/>
       <use x="611.398438" xlink:href="#DejaVuSans-45"/>
       <use x="647.482422" xlink:href="#DejaVuSans-77"/>
       <use x="733.761719" xlink:href="#DejaVuSans-68"/>
      </g>
     </g>
    </g>
    <g id="xtick_3">
     <g id="line2d_3">
      <g>
       <use style="stroke:#000000;stroke-width:0.8;" x="307.823542" xlink:href="#mcc351a6aaa" y="317.93875"/>
      </g>
     </g>
     <g id="text_3">
      <!-- Wave-U-Net-MD -->
      <g transform="translate(268.086042 332.537188)scale(0.1 -0.1)">
       <defs>
        <path d="M 3.328125 72.90625 
L 13.28125 72.90625 
L 28.609375 11.28125 
L 43.890625 72.90625 
L 54.984375 72.90625 
L 70.3125 11.28125 
L 85.59375 72.90625 
L 95.609375 72.90625 
L 77.296875 0 
L 64.890625 0 
L 49.515625 63.28125 
L 33.984375 0 
L 21.578125 0 
z
" id="DejaVuSans-87"/>
        <path d="M 8.6875 72.90625 
L 18.609375 72.90625 
L 18.609375 28.609375 
Q 18.609375 16.890625 22.84375 11.734375 
Q 27.09375 6.59375 36.625 6.59375 
Q 46.09375 6.59375 50.34375 11.734375 
Q 54.59375 16.890625 54.59375 28.609375 
L 54.59375 72.90625 
L 64.5 72.90625 
L 64.5 27.390625 
Q 64.5 13.140625 57.4375 5.859375 
Q 50.390625 -1.421875 36.625 -1.421875 
Q 22.796875 -1.421875 15.734375 5.859375 
Q 8.6875 13.140625 8.6875 27.390625 
z
" id="DejaVuSans-85"/>
       </defs>
       <use xlink:href="#DejaVuSans-87"/>
       <use x="92.501953" xlink:href="#DejaVuSans-97"/>
       <use x="153.78125" xlink:href="#DejaVuSans-118"/>
       <use x="212.960938" xlink:href="#DejaVuSans-101"/>
       <use x="274.484375" xlink:href="#DejaVuSans-45"/>
       <use x="310.568359" xlink:href="#DejaVuSans-85"/>
       <use x="383.761719" xlink:href="#DejaVuSans-45"/>
       <use x="419.845703" xlink:href="#DejaVuSans-78"/>
       <use x="494.650391" xlink:href="#DejaVuSans-101"/>
       <use x="556.173828" xlink:href="#DejaVuSans-116"/>
       <use x="595.382812" xlink:href="#DejaVuSans-45"/>
       <use x="631.466797" xlink:href="#DejaVuSans-77"/>
       <use x="717.746094" xlink:href="#DejaVuSans-68"/>
      </g>
     </g>
    </g>
    <g id="text_4">
     <!-- Model -->
     <g transform="translate(197.309543 346.215312)scale(0.1 -0.1)">
      <defs>
       <path d="M 45.40625 46.390625 
L 45.40625 75.984375 
L 54.390625 75.984375 
L 54.390625 0 
L 45.40625 0 
L 45.40625 8.203125 
Q 42.578125 3.328125 38.25 0.953125 
Q 33.9375 -1.421875 27.875 -1.421875 
Q 17.96875 -1.421875 11.734375 6.484375 
Q 5.515625 14.40625 5.515625 27.296875 
Q 5.515625 40.1875 11.734375 48.09375 
Q 17.96875 56 27.875 56 
Q 33.9375 56 38.25 53.625 
Q 42.578125 51.265625 45.40625 46.390625 
z
M 14.796875 27.296875 
Q 14.796875 17.390625 18.875 11.75 
Q 22.953125 6.109375 30.078125 6.109375 
Q 37.203125 6.109375 41.296875 11.75 
Q 45.40625 17.390625 45.40625 27.296875 
Q 45.40625 37.203125 41.296875 42.84375 
Q 37.203125 48.484375 30.078125 48.484375 
Q 22.953125 48.484375 18.875 42.84375 
Q 14.796875 37.203125 14.796875 27.296875 
z
" id="DejaVuSans-100"/>
       <path d="M 9.421875 75.984375 
L 18.40625 75.984375 
L 18.40625 0 
L 9.421875 0 
z
" id="DejaVuSans-108"/>
      </defs>
      <use xlink:href="#DejaVuSans-77"/>
      <use x="86.279297" xlink:href="#DejaVuSans-111"/>
      <use x="147.460938" xlink:href="#DejaVuSans-100"/>
      <use x="210.9375" xlink:href="#DejaVuSans-101"/>
      <use x="272.460938" xlink:href="#DejaVuSans-108"/>
     </g>
    </g>
   </g>
   <g id="matplotlib.axis_2">
    <g id="ytick_1">
     <g id="line2d_4">
      <defs>
       <path d="M 0 0 
L -3.5 0 
" id="mf069b1c9e1" style="stroke:#000000;stroke-width:0.8;"/>
      </defs>
      <g>
       <use style="stroke:#000000;stroke-width:0.8;" x="69.071749" xlink:href="#mf069b1c9e1" y="290.286201"/>
      </g>
     </g>
     <g id="text_5">
      <!-- −5.0 -->
      <g transform="translate(37.788937 294.085419)scale(0.1 -0.1)">
       <defs>
        <path d="M 10.59375 35.5 
L 73.1875 35.5 
L 73.1875 27.203125 
L 10.59375 27.203125 
z
" id="DejaVuSans-8722"/>
        <path d="M 10.796875 72.90625 
L 49.515625 72.90625 
L 49.515625 64.59375 
L 19.828125 64.59375 
L 19.828125 46.734375 
Q 21.96875 47.46875 24.109375 47.828125 
Q 26.265625 48.1875 28.421875 48.1875 
Q 40.625 48.1875 47.75 41.5 
Q 54.890625 34.8125 54.890625 23.390625 
Q 54.890625 11.625 47.5625 5.09375 
Q 40.234375 -1.421875 26.90625 -1.421875 
Q 22.3125 -1.421875 17.546875 -0.640625 
Q 12.796875 0.140625 7.71875 1.703125 
L 7.71875 11.625 
Q 12.109375 9.234375 16.796875 8.0625 
Q 21.484375 6.890625 26.703125 6.890625 
Q 35.15625 6.890625 40.078125 11.328125 
Q 45.015625 15.765625 45.015625 23.390625 
Q 45.015625 31 40.078125 35.4375 
Q 35.15625 39.890625 26.703125 39.890625 
Q 22.75 39.890625 18.8125 39.015625 
Q 14.890625 38.140625 10.796875 36.28125 
z
" id="DejaVuSans-53"/>
        <path d="M 10.6875 12.40625 
L 21 12.40625 
L 21 0 
L 10.6875 0 
z
" id="DejaVuSans-46"/>
        <path d="M 31.78125 66.40625 
Q 24.171875 66.40625 20.328125 58.90625 
Q 16.5 51.421875 16.5 36.375 
Q 16.5 21.390625 20.328125 13.890625 
Q 24.171875 6.390625 31.78125 6.390625 
Q 39.453125 6.390625 43.28125 13.890625 
Q 47.125 21.390625 47.125 36.375 
Q 47.125 51.421875 43.28125 58.90625 
Q 39.453125 66.40625 31.78125 66.40625 
z
M 31.78125 74.21875 
Q 44.046875 74.21875 50.515625 64.515625 
Q 56.984375 54.828125 56.984375 36.375 
Q 56.984375 17.96875 50.515625 8.265625 
Q 44.046875 -1.421875 31.78125 -1.421875 
Q 19.53125 -1.421875 13.0625 8.265625 
Q 6.59375 17.96875 6.59375 36.375 
Q 6.59375 54.828125 13.0625 64.515625 
Q 19.53125 74.21875 31.78125 74.21875 
z
" id="DejaVuSans-48"/>
       </defs>
       <use xlink:href="#DejaVuSans-8722"/>
       <use x="83.789062" xlink:href="#DejaVuSans-53"/>
       <use x="147.412109" xlink:href="#DejaVuSans-46"/>
       <use x="179.199219" xlink:href="#DejaVuSans-48"/>
      </g>
     </g>
    </g>
    <g id="ytick_2">
     <g id="line2d_5">
      <g>
       <use style="stroke:#000000;stroke-width:0.8;" x="69.071749" xlink:href="#mf069b1c9e1" y="254.947087"/>
      </g>
     </g>
     <g id="text_6">
      <!-- −2.5 -->
      <g transform="translate(37.788937 258.746305)scale(0.1 -0.1)">
       <defs>
        <path d="M 19.1875 8.296875 
L 53.609375 8.296875 
L 53.609375 0 
L 7.328125 0 
L 7.328125 8.296875 
Q 12.9375 14.109375 22.625 23.890625 
Q 32.328125 33.6875 34.8125 36.53125 
Q 39.546875 41.84375 41.421875 45.53125 
Q 43.3125 49.21875 43.3125 52.78125 
Q 43.3125 58.59375 39.234375 62.25 
Q 35.15625 65.921875 28.609375 65.921875 
Q 23.96875 65.921875 18.8125 64.3125 
Q 13.671875 62.703125 7.8125 59.421875 
L 7.8125 69.390625 
Q 13.765625 71.78125 18.9375 73 
Q 24.125 74.21875 28.421875 74.21875 
Q 39.75 74.21875 46.484375 68.546875 
Q 53.21875 62.890625 53.21875 53.421875 
Q 53.21875 48.921875 51.53125 44.890625 
Q 49.859375 40.875 45.40625 35.40625 
Q 44.1875 33.984375 37.640625 27.21875 
Q 31.109375 20.453125 19.1875 8.296875 
z
" id="DejaVuSans-50"/>
       </defs>
       <use xlink:href="#DejaVuSans-8722"/>
       <use x="83.789062" xlink:href="#DejaVuSans-50"/>
       <use x="147.412109" xlink:href="#DejaVuSans-46"/>
       <use x="179.199219" xlink:href="#DejaVuSans-53"/>
      </g>
     </g>
    </g>
    <g id="ytick_3">
     <g id="line2d_6">
      <g>
       <use style="stroke:#000000;stroke-width:0.8;" x="69.071749" xlink:href="#mf069b1c9e1" y="219.607973"/>
      </g>
     </g>
     <g id="text_7">
      <!-- 0.0 -->
      <g transform="translate(46.168624 223.407191)scale(0.1 -0.1)">
       <use xlink:href="#DejaVuSans-48"/>
       <use x="63.623047" xlink:href="#DejaVuSans-46"/>
       <use x="95.410156" xlink:href="#DejaVuSans-48"/>
      </g>
     </g>
    </g>
    <g id="ytick_4">
     <g id="line2d_7">
      <g>
       <use style="stroke:#000000;stroke-width:0.8;" x="69.071749" xlink:href="#mf069b1c9e1" y="184.268859"/>
      </g>
     </g>
     <g id="text_8">
      <!-- 2.5 -->
      <g transform="translate(46.168624 188.068078)scale(0.1 -0.1)">
       <use xlink:href="#DejaVuSans-50"/>
       <use x="63.623047" xlink:href="#DejaVuSans-46"/>
       <use x="95.410156" xlink:href="#DejaVuSans-53"/>
      </g>
     </g>
    </g>
    <g id="ytick_5">
     <g id="line2d_8">
      <g>
       <use style="stroke:#000000;stroke-width:0.8;" x="69.071749" xlink:href="#mf069b1c9e1" y="148.929745"/>
      </g>
     </g>
     <g id="text_9">
      <!-- 5.0 -->
      <g transform="translate(46.168624 152.728964)scale(0.1 -0.1)">
       <use xlink:href="#DejaVuSans-53"/>
       <use x="63.623047" xlink:href="#DejaVuSans-46"/>
       <use x="95.410156" xlink:href="#DejaVuSans-48"/>
      </g>
     </g>
    </g>
    <g id="ytick_6">
     <g id="line2d_9">
      <g>
       <use style="stroke:#000000;stroke-width:0.8;" x="69.071749" xlink:href="#mf069b1c9e1" y="113.590631"/>
      </g>
     </g>
     <g id="text_10">
      <!-- 7.5 -->
      <g transform="translate(46.168624 117.38985)scale(0.1 -0.1)">
       <defs>
        <path d="M 8.203125 72.90625 
L 55.078125 72.90625 
L 55.078125 68.703125 
L 28.609375 0 
L 18.3125 0 
L 43.21875 64.59375 
L 8.203125 64.59375 
z
" id="DejaVuSans-55"/>
       </defs>
       <use xlink:href="#DejaVuSans-55"/>
       <use x="63.623047" xlink:href="#DejaVuSans-46"/>
       <use x="95.410156" xlink:href="#DejaVuSans-53"/>
      </g>
     </g>
    </g>
    <g id="ytick_7">
     <g id="line2d_10">
      <g>
       <use style="stroke:#000000;stroke-width:0.8;" x="69.071749" xlink:href="#mf069b1c9e1" y="78.251517"/>
      </g>
     </g>
     <g id="text_11">
      <!-- 10.0 -->
      <g transform="translate(39.806124 82.050736)scale(0.1 -0.1)">
       <defs>
        <path d="M 12.40625 8.296875 
L 28.515625 8.296875 
L 28.515625 63.921875 
L 10.984375 60.40625 
L 10.984375 69.390625 
L 28.421875 72.90625 
L 38.28125 72.90625 
L 38.28125 8.296875 
L 54.390625 8.296875 
L 54.390625 0 
L 12.40625 0 
z
" id="DejaVuSans-49"/>
       </defs>
       <use xlink:href="#DejaVuSans-49"/>
       <use x="63.623047" xlink:href="#DejaVuSans-48"/>
       <use x="127.246094" xlink:href="#DejaVuSans-46"/>
       <use x="159.033203" xlink:href="#DejaVuSans-48"/>
      </g>
     </g>
    </g>
    <g id="ytick_8">
     <g id="line2d_11">
      <g>
       <use style="stroke:#000000;stroke-width:0.8;" x="69.071749" xlink:href="#mf069b1c9e1" y="42.912403"/>
      </g>
     </g>
     <g id="text_12">
      <!-- 12.5 -->
      <g transform="translate(39.806124 46.711622)scale(0.1 -0.1)">
       <use xlink:href="#DejaVuSans-49"/>
       <use x="63.623047" xlink:href="#DejaVuSans-50"/>
       <use x="127.246094" xlink:href="#DejaVuSans-46"/>
       <use x="159.033203" xlink:href="#DejaVuSans-53"/>
      </g>
     </g>
    </g>
    <g id="text_13">
     <!-- SDR -->
     <g transform="translate(31.709249 174.867813)rotate(-90)scale(0.1 -0.1)">
      <defs>
       <path d="M 44.390625 34.1875 
Q 47.5625 33.109375 50.5625 29.59375 
Q 53.5625 26.078125 56.59375 19.921875 
L 66.609375 0 
L 56 0 
L 46.6875 18.703125 
Q 43.0625 26.03125 39.671875 28.421875 
Q 36.28125 30.8125 30.421875 30.8125 
L 19.671875 30.8125 
L 19.671875 0 
L 9.8125 0 
L 9.8125 72.90625 
L 32.078125 72.90625 
Q 44.578125 72.90625 50.734375 67.671875 
Q 56.890625 62.453125 56.890625 51.90625 
Q 56.890625 45.015625 53.6875 40.46875 
Q 50.484375 35.9375 44.390625 34.1875 
z
M 19.671875 64.796875 
L 19.671875 38.921875 
L 32.078125 38.921875 
Q 39.203125 38.921875 42.84375 42.21875 
Q 46.484375 45.515625 46.484375 51.90625 
Q 46.484375 58.296875 42.84375 61.546875 
Q 39.203125 64.796875 32.078125 64.796875 
z
" id="DejaVuSans-82"/>
      </defs>
      <use xlink:href="#DejaVuSans-83"/>
      <use x="63.476562" xlink:href="#DejaVuSans-68"/>
      <use x="140.478516" xlink:href="#DejaVuSans-82"/>
     </g>
    </g>
   </g>
   <g id="line2d_12">
    <path clip-path="url(#p30521273e1)" d="M 97.721964 256.460627 
L 97.721964 78.993136 
" style="fill:none;stroke:#3f3f3f;stroke-linecap:square;stroke-width:1.5;"/>
   </g>
   <g id="line2d_13">
    <path clip-path="url(#p30521273e1)" d="M 97.721964 192.51897 
L 97.721964 147.076032 
" style="fill:none;stroke:#3f3f3f;stroke-linecap:square;stroke-width:4.5;"/>
   </g>
   <g id="line2d_14">
    <path clip-path="url(#p30521273e1)" d="M 135.922251 249.834344 
L 135.922251 122.697904 
" style="fill:none;stroke:#3f3f3f;stroke-linecap:square;stroke-width:1.5;"/>
   </g>
   <g id="line2d_15">
    <path clip-path="url(#p30521273e1)" d="M 135.922251 205.190122 
L 135.922251 172.168436 
" style="fill:none;stroke:#3f3f3f;stroke-linecap:square;stroke-width:4.5;"/>
   </g>
   <g id="line2d_16">
    <path clip-path="url(#p30521273e1)" d="M 193.222681 254.598325 
L 193.222681 82.869541 
" style="fill:none;stroke:#3f3f3f;stroke-linecap:square;stroke-width:1.5;"/>
   </g>
   <g id="line2d_17">
    <path clip-path="url(#p30521273e1)" d="M 193.222681 190.340186 
L 193.222681 147.252637 
" style="fill:none;stroke:#3f3f3f;stroke-linecap:square;stroke-width:4.5;"/>
   </g>
   <g id="line2d_18">
    <path clip-path="url(#p30521273e1)" d="M 231.422968 251.445105 
L 231.422968 127.483413 
" style="fill:none;stroke:#3f3f3f;stroke-linecap:square;stroke-width:1.5;"/>
   </g>
   <g id="line2d_19">
    <path clip-path="url(#p30521273e1)" d="M 231.422968 205.241235 
L 231.422968 173.889093 
" style="fill:none;stroke:#3f3f3f;stroke-linecap:square;stroke-width:4.5;"/>
   </g>
   <g id="line2d_20">
    <path clip-path="url(#p30521273e1)" d="M 288.723398 244.149035 
L 288.723398 107.31037 
" style="fill:none;stroke:#3f3f3f;stroke-linecap:square;stroke-width:1.5;"/>
   </g>
   <g id="line2d_21">
    <path clip-path="url(#p30521273e1)" d="M 288.723398 193.383167 
L 288.723398 158.933228 
" style="fill:none;stroke:#3f3f3f;stroke-linecap:square;stroke-width:4.5;"/>
   </g>
   <g id="line2d_22">
    <path clip-path="url(#p30521273e1)" d="M 326.923685 245.999304 
L 326.923685 139.416188 
" style="fill:none;stroke:#3f3f3f;stroke-linecap:square;stroke-width:1.5;"/>
   </g>
   <g id="line2d_23">
    <path clip-path="url(#p30521273e1)" d="M 326.923685 205.958089 
L 326.923685 179.077716 
" style="fill:none;stroke:#3f3f3f;stroke-linecap:square;stroke-width:4.5;"/>
   </g>
   <g id="patch_5">
    <path d="M 69.071749 317.93875 
L 69.071749 10.8 
" style="fill:none;stroke:#000000;stroke-linecap:square;stroke-linejoin:miter;stroke-width:0.8;"/>
   </g>
   <g id="patch_6">
    <path d="M 69.071749 317.93875 
L 355.5739 317.93875 
" style="fill:none;stroke:#000000;stroke-linecap:square;stroke-linejoin:miter;stroke-width:0.8;"/>
   </g>
   <g id="PathCollection_1">
    <defs>
     <path d="M 0 1.5 
C 0.397805 1.5 0.77937 1.341951 1.06066 1.06066 
C 1.341951 0.77937 1.5 0.397805 1.5 0 
C 1.5 -0.397805 1.341951 -0.77937 1.06066 -1.06066 
C 0.77937 -1.341951 0.397805 -1.5 0 -1.5 
C -0.397805 -1.5 -0.77937 -1.341951 -1.06066 -1.06066 
C -1.341951 -0.77937 -1.5 -0.397805 -1.5 0 
C -1.5 0.397805 -1.341951 0.77937 -1.06066 1.06066 
C -0.77937 1.341951 -0.397805 1.5 0 1.5 
z
" id="m4c251bdd20" style="stroke:#3f3f3f;"/>
    </defs>
    <g clip-path="url(#p30521273e1)">
     <use style="fill:#ffffff;stroke:#3f3f3f;" x="97.721964" xlink:href="#m4c251bdd20" y="170.127612"/>
    </g>
   </g>
   <g id="PathCollection_2">
    <g clip-path="url(#p30521273e1)">
     <use style="fill:#ffffff;stroke:#3f3f3f;" x="135.922251" xlink:href="#m4c251bdd20" y="190.436119"/>
    </g>
   </g>
   <g id="PathCollection_3">
    <g clip-path="url(#p30521273e1)">
     <use style="fill:#ffffff;stroke:#3f3f3f;" x="193.222681" xlink:href="#m4c251bdd20" y="169.170489"/>
    </g>
   </g>
   <g id="PathCollection_4">
    <g clip-path="url(#p30521273e1)">
     <use style="fill:#ffffff;stroke:#3f3f3f;" x="231.422968" xlink:href="#m4c251bdd20" y="190.24824"/>
    </g>
   </g>
   <g id="PathCollection_5">
    <g clip-path="url(#p30521273e1)">
     <use style="fill:#ffffff;stroke:#3f3f3f;" x="288.723398" xlink:href="#m4c251bdd20" y="177.409453"/>
    </g>
   </g>
   <g id="PathCollection_6">
    <g clip-path="url(#p30521273e1)">
     <use style="fill:#ffffff;stroke:#3f3f3f;" x="326.923685" xlink:href="#m4c251bdd20" y="193.919739"/>
    </g>
   </g>
  </g>
  <g id="legend_1">
   <g id="text_14">
    <!-- target_number -->
    <g transform="translate(359.175625 167.942187)scale(0.1 -0.1)">
     <defs>
      <path d="M 41.109375 46.296875 
Q 39.59375 47.171875 37.8125 47.578125 
Q 36.03125 48 33.890625 48 
Q 26.265625 48 22.1875 43.046875 
Q 18.109375 38.09375 18.109375 28.8125 
L 18.109375 0 
L 9.078125 0 
L 9.078125 54.6875 
L 18.109375 54.6875 
L 18.109375 46.1875 
Q 20.953125 51.171875 25.484375 53.578125 
Q 30.03125 56 36.53125 56 
Q 37.453125 56 38.578125 55.875 
Q 39.703125 55.765625 41.0625 55.515625 
z
" id="DejaVuSans-114"/>
      <path d="M 45.40625 27.984375 
Q 45.40625 37.75 41.375 43.109375 
Q 37.359375 48.484375 30.078125 48.484375 
Q 22.859375 48.484375 18.828125 43.109375 
Q 14.796875 37.75 14.796875 27.984375 
Q 14.796875 18.265625 18.828125 12.890625 
Q 22.859375 7.515625 30.078125 7.515625 
Q 37.359375 7.515625 41.375 12.890625 
Q 45.40625 18.265625 45.40625 27.984375 
z
M 54.390625 6.78125 
Q 54.390625 -7.171875 48.1875 -13.984375 
Q 42 -20.796875 29.203125 -20.796875 
Q 24.46875 -20.796875 20.265625 -20.09375 
Q 16.0625 -19.390625 12.109375 -17.921875 
L 12.109375 -9.1875 
Q 16.0625 -11.328125 19.921875 -12.34375 
Q 23.78125 -13.375 27.78125 -13.375 
Q 36.625 -13.375 41.015625 -8.765625 
Q 45.40625 -4.15625 45.40625 5.171875 
L 45.40625 9.625 
Q 42.625 4.78125 38.28125 2.390625 
Q 33.9375 0 27.875 0 
Q 17.828125 0 11.671875 7.65625 
Q 5.515625 15.328125 5.515625 27.984375 
Q 5.515625 40.671875 11.671875 48.328125 
Q 17.828125 56 27.875 56 
Q 33.9375 56 38.28125 53.609375 
Q 42.625 51.21875 45.40625 46.390625 
L 45.40625 54.6875 
L 54.390625 54.6875 
z
" id="DejaVuSans-103"/>
      <path d="M 50.984375 -16.609375 
L 50.984375 -23.578125 
L -0.984375 -23.578125 
L -0.984375 -16.609375 
z
" id="DejaVuSans-95"/>
      <path d="M 8.5 21.578125 
L 8.5 54.6875 
L 17.484375 54.6875 
L 17.484375 21.921875 
Q 17.484375 14.15625 20.5 10.265625 
Q 23.53125 6.390625 29.59375 6.390625 
Q 36.859375 6.390625 41.078125 11.03125 
Q 45.3125 15.671875 45.3125 23.6875 
L 45.3125 54.6875 
L 54.296875 54.6875 
L 54.296875 0 
L 45.3125 0 
L 45.3125 8.40625 
Q 42.046875 3.421875 37.71875 1 
Q 33.40625 -1.421875 27.6875 -1.421875 
Q 18.265625 -1.421875 13.375 4.4375 
Q 8.5 10.296875 8.5 21.578125 
z
M 31.109375 56 
z
" id="DejaVuSans-117"/>
      <path d="M 52 44.1875 
Q 55.375 50.25 60.0625 53.125 
Q 64.75 56 71.09375 56 
Q 79.640625 56 84.28125 50.015625 
Q 88.921875 44.046875 88.921875 33.015625 
L 88.921875 0 
L 79.890625 0 
L 79.890625 32.71875 
Q 79.890625 40.578125 77.09375 44.375 
Q 74.3125 48.1875 68.609375 48.1875 
Q 61.625 48.1875 57.5625 43.546875 
Q 53.515625 38.921875 53.515625 30.90625 
L 53.515625 0 
L 44.484375 0 
L 44.484375 32.71875 
Q 44.484375 40.625 41.703125 44.40625 
Q 38.921875 48.1875 33.109375 48.1875 
Q 26.21875 48.1875 22.15625 43.53125 
Q 18.109375 38.875 18.109375 30.90625 
L 18.109375 0 
L 9.078125 0 
L 9.078125 54.6875 
L 18.109375 54.6875 
L 18.109375 46.1875 
Q 21.1875 51.21875 25.484375 53.609375 
Q 29.78125 56 35.6875 56 
Q 41.65625 56 45.828125 52.96875 
Q 50 49.953125 52 44.1875 
z
" id="DejaVuSans-109"/>
      <path d="M 48.6875 27.296875 
Q 48.6875 37.203125 44.609375 42.84375 
Q 40.53125 48.484375 33.40625 48.484375 
Q 26.265625 48.484375 22.1875 42.84375 
Q 18.109375 37.203125 18.109375 27.296875 
Q 18.109375 17.390625 22.1875 11.75 
Q 26.265625 6.109375 33.40625 6.109375 
Q 40.53125 6.109375 44.609375 11.75 
Q 48.6875 17.390625 48.6875 27.296875 
z
M 18.109375 46.390625 
Q 20.953125 51.265625 25.265625 53.625 
Q 29.59375 56 35.59375 56 
Q 45.5625 56 51.78125 48.09375 
Q 58.015625 40.1875 58.015625 27.296875 
Q 58.015625 14.40625 51.78125 6.484375 
Q 45.5625 -1.421875 35.59375 -1.421875 
Q 29.59375 -1.421875 25.265625 0.953125 
Q 20.953125 3.328125 18.109375 8.203125 
L 18.109375 0 
L 9.078125 0 
L 9.078125 75.984375 
L 18.109375 75.984375 
z
" id="DejaVuSans-98"/>
     </defs>
     <use xlink:href="#DejaVuSans-116"/>
     <use x="39.208984" xlink:href="#DejaVuSans-97"/>
     <use x="100.488281" xlink:href="#DejaVuSans-114"/>
     <use x="139.851562" xlink:href="#DejaVuSans-103"/>
     <use x="203.328125" xlink:href="#DejaVuSans-101"/>
     <use x="264.851562" xlink:href="#DejaVuSans-116"/>
     <use x="304.060547" xlink:href="#DejaVuSans-95"/>
     <use x="354.060547" xlink:href="#DejaVuSans-110"/>
     <use x="417.439453" xlink:href="#DejaVuSans-117"/>
     <use x="480.818359" xlink:href="#DejaVuSans-109"/>
     <use x="578.230469" xlink:href="#DejaVuSans-98"/>
     <use x="641.707031" xlink:href="#DejaVuSans-101"/>
     <use x="703.230469" xlink:href="#DejaVuSans-114"/>
    </g>
   </g>
   <g id="patch_7">
    <path d="M 379.211562 182.898438 
L 399.211562 182.898438 
L 399.211562 175.898438 
L 379.211562 175.898438 
z
" style="fill:#3274a1;stroke:#3f3f3f;stroke-linejoin:miter;stroke-width:0.75;"/>
   </g>
   <g id="text_15">
    <!-- 2 -->
    <g transform="translate(407.211562 182.898438)scale(0.1 -0.1)">
     <use xlink:href="#DejaVuSans-50"/>
    </g>
   </g>
   <g id="patch_8">
    <path d="M 379.211562 197.576562 
L 399.211562 197.576562 
L 399.211562 190.576562 
L 379.211562 190.576562 
z
" style="fill:#e1812c;stroke:#3f3f3f;stroke-linejoin:miter;stroke-width:0.75;"/>
   </g>
   <g id="text_16">
    <!-- 3 -->
    <g transform="translate(407.211562 197.576562)scale(0.1 -0.1)">
     <defs>
      <path d="M 40.578125 39.3125 
Q 47.65625 37.796875 51.625 33 
Q 55.609375 28.21875 55.609375 21.1875 
Q 55.609375 10.40625 48.1875 4.484375 
Q 40.765625 -1.421875 27.09375 -1.421875 
Q 22.515625 -1.421875 17.65625 -0.515625 
Q 12.796875 0.390625 7.625 2.203125 
L 7.625 11.71875 
Q 11.71875 9.328125 16.59375 8.109375 
Q 21.484375 6.890625 26.8125 6.890625 
Q 36.078125 6.890625 40.9375 10.546875 
Q 45.796875 14.203125 45.796875 21.1875 
Q 45.796875 27.640625 41.28125 31.265625 
Q 36.765625 34.90625 28.71875 34.90625 
L 20.21875 34.90625 
L 20.21875 43.015625 
L 29.109375 43.015625 
Q 36.375 43.015625 40.234375 45.921875 
Q 44.09375 48.828125 44.09375 54.296875 
Q 44.09375 59.90625 40.109375 62.90625 
Q 36.140625 65.921875 28.71875 65.921875 
Q 24.65625 65.921875 20.015625 65.03125 
Q 15.375 64.15625 9.8125 62.3125 
L 9.8125 71.09375 
Q 15.4375 72.65625 20.34375 73.4375 
Q 25.25 74.21875 29.59375 74.21875 
Q 40.828125 74.21875 47.359375 69.109375 
Q 53.90625 64.015625 53.90625 55.328125 
Q 53.90625 49.265625 50.4375 45.09375 
Q 46.96875 40.921875 40.578125 39.3125 
z
" id="DejaVuSans-51"/>
     </defs>
     <use xlink:href="#DejaVuSans-51"/>
    </g>
   </g>
  </g>
 </g>
 <defs>
  <clipPath id="p30521273e1">
   <rect height="307.13875" width="286.502151" x="69.071749" y="10.8"/>
  </clipPath>
 </defs>
</svg>
