<?xml version="1.0" encoding="utf-8" standalone="no"?>
<!DOCTYPE svg PUBLIC "-//W3C//DTD SVG 1.1//EN"
  "http://www.w3.org/Graphics/SVG/1.1/DTD/svg11.dtd">
<!-- Created with matplotlib (https://matplotlib.org/) -->
<svg height="288pt" version="1.1" viewBox="0 0 432 288" width="432pt" xmlns="http://www.w3.org/2000/svg" xmlns:xlink="http://www.w3.org/1999/xlink">
 <metadata>
  <rdf:RDF xmlns:cc="http://creativecommons.org/ns#" xmlns:dc="http://purl.org/dc/elements/1.1/" xmlns:rdf="http://www.w3.org/1999/02/22-rdf-syntax-ns#">
   <cc:Work>
    <dc:type rdf:resource="http://purl.org/dc/dcmitype/StillImage"/>
    <dc:date>2022-04-29T12:05:43.168879</dc:date>
    <dc:format>image/svg+xml</dc:format>
    <dc:creator>
     <cc:Agent>
      <dc:title>Matplotlib v3.3.4, https://matplotlib.org/</dc:title>
     </cc:Agent>
    </dc:creator>
   </cc:Work>
  </rdf:RDF>
 </metadata>
 <defs>
  <style type="text/css">*{stroke-linecap:butt;stroke-linejoin:round;}</style>
 </defs>
 <g id="figure_1">
  <g id="patch_1">
   <path d="M 0 288 
L 432 288 
L 432 0 
L 0 0 
z
" style="fill:#ffffff;"/>
  </g>
  <g id="axes_1">
   <g id="patch_2">
    <path d="M 54 252 
L 388.8 252 
L 388.8 34.56 
L 54 34.56 
z
" style="fill:#ffffff;"/>
   </g>
   <g id="PolyCollection_1">
    <defs>
     <path d="M 104.291434 -45.883636 
L 104.148566 -45.883636 
L 104.137408 -47.880331 
L 104.123796 -49.877025 
L 104.103969 -51.873719 
L 104.077251 -53.870413 
L 104.047663 -55.867107 
L 104.022462 -57.863802 
L 104.008503 -59.860496 
L 104.008753 -61.85719 
L 104.020926 -63.853884 
L 104.038589 -65.850579 
L 104.053578 -67.847273 
L 104.058468 -69.843967 
L 104.048695 -71.840661 
L 104.024172 -73.837355 
L 103.989122 -75.83405 
L 103.948618 -77.830744 
L 103.902859 -79.827438 
L 103.843566 -81.824132 
L 103.756748 -83.820826 
L 103.630952 -85.817521 
L 103.464809 -87.814215 
L 103.26782 -89.810909 
L 103.053892 -91.807603 
L 102.832527 -93.804298 
L 102.603617 -95.800992 
L 102.358821 -97.797686 
L 102.087749 -99.79438 
L 101.782946 -101.791074 
L 101.437722 -103.787769 
L 101.037833 -105.784463 
L 100.556969 -107.781157 
L 99.965976 -109.777851 
L 99.252736 -111.774545 
L 98.434928 -113.77124 
L 97.54873 -115.767934 
L 96.616439 -117.764628 
L 95.61797 -119.761322 
L 94.492877 -121.758017 
L 93.176422 -123.754711 
L 91.645199 -125.751405 
L 89.940027 -127.748099 
L 88.152101 -129.744793 
L 86.384745 -131.741488 
L 84.715877 -133.738182 
L 83.180318 -135.734876 
L 81.777163 -137.73157 
L 80.494009 -139.728264 
L 79.328519 -141.724959 
L 78.286374 -143.721653 
L 77.354388 -145.718347 
L 76.477153 -147.715041 
L 75.570587 -149.711736 
L 74.572967 -151.70843 
L 73.496487 -153.705124 
L 72.439522 -155.701818 
L 71.549841 -157.698512 
L 70.96138 -159.695207 
L 70.74 -161.691901 
L 70.864341 -163.688595 
L 71.244506 -165.685289 
L 71.760975 -167.681983 
L 72.303774 -169.678678 
L 72.80167 -171.675372 
L 73.236721 -173.672066 
L 73.640949 -175.66876 
L 74.079674 -177.665455 
L 74.634299 -179.662149 
L 75.390288 -181.658843 
L 76.421053 -183.655537 
L 77.760886 -185.652231 
L 79.381805 -187.648926 
L 81.199278 -189.64562 
L 83.10957 -191.642314 
L 85.030301 -193.639008 
L 86.913934 -195.635702 
L 88.733249 -197.632397 
L 90.462793 -199.629091 
L 92.074851 -201.625785 
L 93.546484 -203.622479 
L 94.864877 -205.619174 
L 96.027739 -207.615868 
L 97.044637 -209.612562 
L 97.940336 -211.609256 
L 98.752353 -213.60595 
L 99.517511 -215.602645 
L 100.254515 -217.599339 
L 100.955896 -219.596033 
L 101.595416 -221.592727 
L 102.14462 -223.589421 
L 102.587249 -225.586116 
L 102.925001 -227.58281 
L 103.175252 -229.579504 
L 103.363981 -231.576198 
L 103.516781 -233.572893 
L 103.651127 -235.569587 
L 103.773506 -237.566281 
L 103.882478 -239.562975 
L 103.974546 -241.559669 
L 104.048329 -243.556364 
L 104.391671 -243.556364 
L 104.391671 -243.556364 
L 104.465454 -241.559669 
L 104.557522 -239.562975 
L 104.666494 -237.566281 
L 104.788873 -235.569587 
L 104.923219 -233.572893 
L 105.076019 -231.576198 
L 105.264748 -229.579504 
L 105.514999 -227.58281 
L 105.852751 -225.586116 
L 106.29538 -223.589421 
L 106.844584 -221.592727 
L 107.484104 -219.596033 
L 108.185485 -217.599339 
L 108.922489 -215.602645 
L 109.687647 -213.60595 
L 110.499664 -211.609256 
L 111.395363 -209.612562 
L 112.412261 -207.615868 
L 113.575123 -205.619174 
L 114.893516 -203.622479 
L 116.365149 -201.625785 
L 117.977207 -199.629091 
L 119.706751 -197.632397 
L 121.526066 -195.635702 
L 123.409699 -193.639008 
L 125.33043 -191.642314 
L 127.240722 -189.64562 
L 129.058195 -187.648926 
L 130.679114 -185.652231 
L 132.018947 -183.655537 
L 133.049712 -181.658843 
L 133.805701 -179.662149 
L 134.360326 -177.665455 
L 134.799051 -175.66876 
L 135.203279 -173.672066 
L 135.63833 -171.675372 
L 136.136226 -169.678678 
L 136.679025 -167.681983 
L 137.195494 -165.685289 
L 137.575659 -163.688595 
L 137.7 -161.691901 
L 137.47862 -159.695207 
L 136.890159 -157.698512 
L 136.000478 -155.701818 
L 134.943513 -153.705124 
L 133.867033 -151.70843 
L 132.869413 -149.711736 
L 131.962847 -147.715041 
L 131.085612 -145.718347 
L 130.153626 -143.721653 
L 129.111481 -141.724959 
L 127.945991 -139.728264 
L 126.662837 -137.73157 
L 125.259682 -135.734876 
L 123.724123 -133.738182 
L 122.055255 -131.741488 
L 120.287899 -129.744793 
L 118.499973 -127.748099 
L 116.794801 -125.751405 
L 115.263578 -123.754711 
L 113.947123 -121.758017 
L 112.82203 -119.761322 
L 111.823561 -117.764628 
L 110.89127 -115.767934 
L 110.005072 -113.77124 
L 109.187264 -111.774545 
L 108.474024 -109.777851 
L 107.883031 -107.781157 
L 107.402167 -105.784463 
L 107.002278 -103.787769 
L 106.657054 -101.791074 
L 106.352251 -99.79438 
L 106.081179 -97.797686 
L 105.836383 -95.800992 
L 105.607473 -93.804298 
L 105.386108 -91.807603 
L 105.17218 -89.810909 
L 104.975191 -87.814215 
L 104.809048 -85.817521 
L 104.683252 -83.820826 
L 104.596434 -81.824132 
L 104.537141 -79.827438 
L 104.491382 -77.830744 
L 104.450878 -75.83405 
L 104.415828 -73.837355 
L 104.391305 -71.840661 
L 104.381532 -69.843967 
L 104.386422 -67.847273 
L 104.401411 -65.850579 
L 104.419074 -63.853884 
L 104.431247 -61.85719 
L 104.431497 -59.860496 
L 104.417538 -57.863802 
L 104.392337 -55.867107 
L 104.362749 -53.870413 
L 104.336031 -51.873719 
L 104.316204 -49.877025 
L 104.302592 -47.880331 
L 104.291434 -45.883636 
z
" id="mbcea110edc" style="stroke:#3f3f3f;stroke-width:1.5;"/>
    </defs>
    <g clip-path="url(#p21ef05e2aa)">
     <use style="fill:#3274a1;stroke:#3f3f3f;stroke-width:1.5;" x="0" xlink:href="#mbcea110edc" y="288"/>
    </g>
   </g>
   <g id="PolyCollection_2">
    <defs>
     <path d="M 338.730004 -88.999326 
L 338.429996 -88.999326 
L 338.37532 -90.511086 
L 338.318077 -92.022846 
L 338.264613 -93.534606 
L 338.22117 -95.046366 
L 338.191602 -96.558126 
L 338.17589 -98.069886 
L 338.170022 -99.581646 
L 338.166804 -101.093405 
L 338.157528 -102.605165 
L 338.134871 -104.116925 
L 338.096081 -105.628685 
L 338.043174 -107.140445 
L 337.978021 -108.652205 
L 337.895957 -110.163965 
L 337.785396 -111.675725 
L 337.635636 -113.187485 
L 337.44518 -114.699245 
L 337.220999 -116.211005 
L 336.969261 -117.722765 
L 336.688241 -119.234524 
L 336.371269 -120.746284 
L 336.014237 -122.258044 
L 335.614908 -123.769804 
L 335.160752 -125.281564 
L 334.618998 -126.793324 
L 333.946772 -128.305084 
L 333.121798 -129.816844 
L 332.170122 -131.328604 
L 331.162586 -132.840364 
L 330.175442 -134.352124 
L 329.241088 -135.863884 
L 328.323755 -137.375644 
L 327.33747 -138.887403 
L 326.198161 -140.399163 
L 324.882714 -141.910923 
L 323.459243 -143.422683 
L 322.061149 -144.934443 
L 320.809036 -146.446203 
L 319.726068 -147.957963 
L 318.709533 -149.469723 
L 317.588283 -150.981483 
L 316.229415 -152.493243 
L 314.615873 -154.005003 
L 312.843019 -155.516763 
L 311.052633 -157.028523 
L 309.367602 -158.540282 
L 307.87298 -160.052042 
L 306.63747 -161.563802 
L 305.733537 -163.075562 
L 305.220739 -164.587322 
L 305.1 -166.099082 
L 305.289485 -167.610842 
L 305.665278 -169.122602 
L 306.146232 -170.634362 
L 306.748374 -172.146122 
L 307.557506 -173.657882 
L 308.647742 -175.169642 
L 310.020519 -176.681402 
L 311.608137 -178.193161 
L 313.321184 -179.704921 
L 315.087839 -181.216681 
L 316.85558 -182.728441 
L 318.571266 -184.240201 
L 320.177694 -185.751961 
L 321.641106 -187.263721 
L 322.980414 -188.775481 
L 324.258142 -190.287241 
L 325.532213 -191.799001 
L 326.811828 -193.310761 
L 328.057205 -194.822521 
L 329.217982 -196.334281 
L 330.270772 -197.84604 
L 331.225557 -199.3578 
L 332.105981 -200.86956 
L 332.93031 -202.38132 
L 333.709237 -203.89308 
L 334.45206 -205.40484 
L 335.165166 -206.9166 
L 335.842427 -208.42836 
L 336.461407 -209.94012 
L 336.992973 -211.45188 
L 337.416002 -212.96364 
L 337.724962 -214.4754 
L 337.928373 -215.987159 
L 338.044874 -217.498919 
L 338.101223 -219.010679 
L 338.129367 -220.522439 
L 338.158733 -222.034199 
L 338.206272 -223.545959 
L 338.271789 -225.057719 
L 338.342841 -226.569479 
L 338.40537 -228.081239 
L 338.451887 -229.592999 
L 338.48253 -231.104759 
L 338.501031 -232.616519 
L 338.510974 -234.128279 
L 338.515261 -235.640038 
L 338.517302 -237.151798 
L 338.52099 -238.663558 
L 338.63901 -238.663558 
L 338.63901 -238.663558 
L 338.642698 -237.151798 
L 338.644739 -235.640038 
L 338.649026 -234.128279 
L 338.658969 -232.616519 
L 338.67747 -231.104759 
L 338.708113 -229.592999 
L 338.75463 -228.081239 
L 338.817159 -226.569479 
L 338.888211 -225.057719 
L 338.953728 -223.545959 
L 339.001267 -222.034199 
L 339.030633 -220.522439 
L 339.058777 -219.010679 
L 339.115126 -217.498919 
L 339.231627 -215.987159 
L 339.435038 -214.4754 
L 339.743998 -212.96364 
L 340.167027 -211.45188 
L 340.698593 -209.94012 
L 341.317573 -208.42836 
L 341.994834 -206.9166 
L 342.70794 -205.40484 
L 343.450763 -203.89308 
L 344.22969 -202.38132 
L 345.054019 -200.86956 
L 345.934443 -199.3578 
L 346.889228 -197.84604 
L 347.942018 -196.334281 
L 349.102795 -194.822521 
L 350.348172 -193.310761 
L 351.627787 -191.799001 
L 352.901858 -190.287241 
L 354.179586 -188.775481 
L 355.518894 -187.263721 
L 356.982306 -185.751961 
L 358.588734 -184.240201 
L 360.30442 -182.728441 
L 362.072161 -181.216681 
L 363.838816 -179.704921 
L 365.551863 -178.193161 
L 367.139481 -176.681402 
L 368.512258 -175.169642 
L 369.602494 -173.657882 
L 370.411626 -172.146122 
L 371.013768 -170.634362 
L 371.494722 -169.122602 
L 371.870515 -167.610842 
L 372.06 -166.099082 
L 371.939261 -164.587322 
L 371.426463 -163.075562 
L 370.52253 -161.563802 
L 369.28702 -160.052042 
L 367.792398 -158.540282 
L 366.107367 -157.028523 
L 364.316981 -155.516763 
L 362.544127 -154.005003 
L 360.930585 -152.493243 
L 359.571717 -150.981483 
L 358.450467 -149.469723 
L 357.433932 -147.957963 
L 356.350964 -146.446203 
L 355.098851 -144.934443 
L 353.700757 -143.422683 
L 352.277286 -141.910923 
L 350.961839 -140.399163 
L 349.82253 -138.887403 
L 348.836245 -137.375644 
L 347.918912 -135.863884 
L 346.984558 -134.352124 
L 345.997414 -132.840364 
L 344.989878 -131.328604 
L 344.038202 -129.816844 
L 343.213228 -128.305084 
L 342.541002 -126.793324 
L 341.999248 -125.281564 
L 341.545092 -123.769804 
L 341.145763 -122.258044 
L 340.788731 -120.746284 
L 340.471759 -119.234524 
L 340.190739 -117.722765 
L 339.939001 -116.211005 
L 339.71482 -114.699245 
L 339.524364 -113.187485 
L 339.374604 -111.675725 
L 339.264043 -110.163965 
L 339.181979 -108.652205 
L 339.116826 -107.140445 
L 339.063919 -105.628685 
L 339.025129 -104.116925 
L 339.002472 -102.605165 
L 338.993196 -101.093405 
L 338.989978 -99.581646 
L 338.98411 -98.069886 
L 338.968398 -96.558126 
L 338.93883 -95.046366 
L 338.895387 -93.534606 
L 338.841923 -92.022846 
L 338.78468 -90.511086 
L 338.730004 -88.999326 
z
" id="m1be99cedf3" style="stroke:#3f3f3f;stroke-width:1.5;"/>
    </defs>
    <g clip-path="url(#p21ef05e2aa)">
     <use style="fill:#e1812c;stroke:#3f3f3f;stroke-width:1.5;" x="0" xlink:href="#m1be99cedf3" y="288"/>
    </g>
   </g>
   <g id="patch_3">
    <path clip-path="url(#p21ef05e2aa)" d="M 137.7 -103.537061 
L 137.7 -103.537061 
L 137.7 -103.537061 
L 137.7 -103.537061 
z
" style="fill:#3274a1;stroke:#3f3f3f;stroke-linejoin:miter;stroke-width:0.75;"/>
   </g>
   <g id="patch_4">
    <path clip-path="url(#p21ef05e2aa)" d="M 137.7 -103.537061 
L 137.7 -103.537061 
L 137.7 -103.537061 
L 137.7 -103.537061 
z
" style="fill:#e1812c;stroke:#3f3f3f;stroke-linejoin:miter;stroke-width:0.75;"/>
   </g>
   <g id="matplotlib.axis_1">
    <g id="xtick_1">
     <g id="line2d_1">
      <defs>
       <path d="M 0 0 
L 0 3.5 
" id="m1dbc07010a" style="stroke:#000000;stroke-width:0.8;"/>
      </defs>
      <g>
       <use style="stroke:#000000;stroke-width:0.8;" x="137.7" xlink:href="#m1dbc07010a" y="252"/>
      </g>
     </g>
     <g id="text_1">
      <!-- Z_2_ns -->
      <g transform="translate(120.320312 266.421875)scale(0.1 -0.1)">
       <defs>
        <path d="M 5.609375 72.90625 
L 62.890625 72.90625 
L 62.890625 65.375 
L 16.796875 8.296875 
L 64.015625 8.296875 
L 64.015625 0 
L 4.5 0 
L 4.5 7.515625 
L 50.59375 64.59375 
L 5.609375 64.59375 
z
" id="DejaVuSans-90"/>
        <path d="M 50.984375 -16.609375 
L 50.984375 -23.578125 
L -0.984375 -23.578125 
L -0.984375 -16.609375 
z
" id="DejaVuSans-95"/>
        <path d="M 19.1875 8.296875 
L 53.609375 8.296875 
L 53.609375 0 
L 7.328125 0 
L 7.328125 8.296875 
Q 12.9375 14.109375 22.625 23.890625 
Q 32.328125 33.6875 34.8125 36.53125 
Q 39.546875 41.84375 41.421875 45.53125 
Q 43.3125 49.21875 43.3125 52.78125 
Q 43.3125 58.59375 39.234375 62.25 
Q 35.15625 65.921875 28.609375 65.921875 
Q 23.96875 65.921875 18.8125 64.3125 
Q 13.671875 62.703125 7.8125 59.421875 
L 7.8125 69.390625 
Q 13.765625 71.78125 18.9375 73 
Q 24.125 74.21875 28.421875 74.21875 
Q 39.75 74.21875 46.484375 68.546875 
Q 53.21875 62.890625 53.21875 53.421875 
Q 53.21875 48.921875 51.53125 44.890625 
Q 49.859375 40.875 45.40625 35.40625 
Q 44.1875 33.984375 37.640625 27.21875 
Q 31.109375 20.453125 19.1875 8.296875 
z
" id="DejaVuSans-50"/>
        <path d="M 54.890625 33.015625 
L 54.890625 0 
L 45.90625 0 
L 45.90625 32.71875 
Q 45.90625 40.484375 42.875 44.328125 
Q 39.84375 48.1875 33.796875 48.1875 
Q 26.515625 48.1875 22.3125 43.546875 
Q 18.109375 38.921875 18.109375 30.90625 
L 18.109375 0 
L 9.078125 0 
L 9.078125 54.6875 
L 18.109375 54.6875 
L 18.109375 46.1875 
Q 21.34375 51.125 25.703125 53.5625 
Q 30.078125 56 35.796875 56 
Q 45.21875 56 50.046875 50.171875 
Q 54.890625 44.34375 54.890625 33.015625 
z
" id="DejaVuSans-110"/>
        <path d="M 44.28125 53.078125 
L 44.28125 44.578125 
Q 40.484375 46.53125 36.375 47.5 
Q 32.28125 48.484375 27.875 48.484375 
Q 21.1875 48.484375 17.84375 46.4375 
Q 14.5 44.390625 14.5 40.28125 
Q 14.5 37.15625 16.890625 35.375 
Q 19.28125 33.59375 26.515625 31.984375 
L 29.59375 31.296875 
Q 39.15625 29.25 43.1875 25.515625 
Q 47.21875 21.78125 47.21875 15.09375 
Q 47.21875 7.46875 41.1875 3.015625 
Q 35.15625 -1.421875 24.609375 -1.421875 
Q 20.21875 -1.421875 15.453125 -0.5625 
Q 10.6875 0.296875 5.421875 2 
L 5.421875 11.28125 
Q 10.40625 8.6875 15.234375 7.390625 
Q 20.0625 6.109375 24.8125 6.109375 
Q 31.15625 6.109375 34.5625 8.28125 
Q 37.984375 10.453125 37.984375 14.40625 
Q 37.984375 18.0625 35.515625 20.015625 
Q 33.0625 21.96875 24.703125 23.78125 
L 21.578125 24.515625 
Q 13.234375 26.265625 9.515625 29.90625 
Q 5.8125 33.546875 5.8125 39.890625 
Q 5.8125 47.609375 11.28125 51.796875 
Q 16.75 56 26.8125 56 
Q 31.78125 56 36.171875 55.265625 
Q 40.578125 54.546875 44.28125 53.078125 
z
" id="DejaVuSans-115"/>
       </defs>
       <use xlink:href="#DejaVuSans-90"/>
       <use x="68.505859" xlink:href="#DejaVuSans-95"/>
       <use x="118.505859" xlink:href="#DejaVuSans-50"/>
       <use x="182.128906" xlink:href="#DejaVuSans-95"/>
       <use x="232.128906" xlink:href="#DejaVuSans-110"/>
       <use x="295.507812" xlink:href="#DejaVuSans-115"/>
      </g>
     </g>
    </g>
    <g id="xtick_2">
     <g id="line2d_2">
      <g>
       <use style="stroke:#000000;stroke-width:0.8;" x="305.1" xlink:href="#m1dbc07010a" y="252"/>
      </g>
     </g>
     <g id="text_2">
      <!-- Z_3_ns -->
      <g transform="translate(287.720313 266.421875)scale(0.1 -0.1)">
       <defs>
        <path d="M 40.578125 39.3125 
Q 47.65625 37.796875 51.625 33 
Q 55.609375 28.21875 55.609375 21.1875 
Q 55.609375 10.40625 48.1875 4.484375 
Q 40.765625 -1.421875 27.09375 -1.421875 
Q 22.515625 -1.421875 17.65625 -0.515625 
Q 12.796875 0.390625 7.625 2.203125 
L 7.625 11.71875 
Q 11.71875 9.328125 16.59375 8.109375 
Q 21.484375 6.890625 26.8125 6.890625 
Q 36.078125 6.890625 40.9375 10.546875 
Q 45.796875 14.203125 45.796875 21.1875 
Q 45.796875 27.640625 41.28125 31.265625 
Q 36.765625 34.90625 28.71875 34.90625 
L 20.21875 34.90625 
L 20.21875 43.015625 
L 29.109375 43.015625 
Q 36.375 43.015625 40.234375 45.921875 
Q 44.09375 48.828125 44.09375 54.296875 
Q 44.09375 59.90625 40.109375 62.90625 
Q 36.140625 65.921875 28.71875 65.921875 
Q 24.65625 65.921875 20.015625 65.03125 
Q 15.375 64.15625 9.8125 62.3125 
L 9.8125 71.09375 
Q 15.4375 72.65625 20.34375 73.4375 
Q 25.25 74.21875 29.59375 74.21875 
Q 40.828125 74.21875 47.359375 69.109375 
Q 53.90625 64.015625 53.90625 55.328125 
Q 53.90625 49.265625 50.4375 45.09375 
Q 46.96875 40.921875 40.578125 39.3125 
z
" id="DejaVuSans-51"/>
       </defs>
       <use xlink:href="#DejaVuSans-90"/>
       <use x="68.505859" xlink:href="#DejaVuSans-95"/>
       <use x="118.505859" xlink:href="#DejaVuSans-51"/>
       <use x="182.128906" xlink:href="#DejaVuSans-95"/>
       <use x="232.128906" xlink:href="#DejaVuSans-110"/>
       <use x="295.507812" xlink:href="#DejaVuSans-115"/>
      </g>
     </g>
    </g>
    <g id="text_3">
     <!-- set -->
     <g transform="translate(213.758594 280.378125)scale(0.1 -0.1)">
      <defs>
       <path d="M 56.203125 29.59375 
L 56.203125 25.203125 
L 14.890625 25.203125 
Q 15.484375 15.921875 20.484375 11.0625 
Q 25.484375 6.203125 34.421875 6.203125 
Q 39.59375 6.203125 44.453125 7.46875 
Q 49.3125 8.734375 54.109375 11.28125 
L 54.109375 2.78125 
Q 49.265625 0.734375 44.1875 -0.34375 
Q 39.109375 -1.421875 33.890625 -1.421875 
Q 20.796875 -1.421875 13.15625 6.1875 
Q 5.515625 13.8125 5.515625 26.8125 
Q 5.515625 40.234375 12.765625 48.109375 
Q 20.015625 56 32.328125 56 
Q 43.359375 56 49.78125 48.890625 
Q 56.203125 41.796875 56.203125 29.59375 
z
M 47.21875 32.234375 
Q 47.125 39.59375 43.09375 43.984375 
Q 39.0625 48.390625 32.421875 48.390625 
Q 24.90625 48.390625 20.390625 44.140625 
Q 15.875 39.890625 15.1875 32.171875 
z
" id="DejaVuSans-101"/>
       <path d="M 18.3125 70.21875 
L 18.3125 54.6875 
L 36.8125 54.6875 
L 36.8125 47.703125 
L 18.3125 47.703125 
L 18.3125 18.015625 
Q 18.3125 11.328125 20.140625 9.421875 
Q 21.96875 7.515625 27.59375 7.515625 
L 36.8125 7.515625 
L 36.8125 0 
L 27.59375 0 
Q 17.1875 0 13.234375 3.875 
Q 9.28125 7.765625 9.28125 18.015625 
L 9.28125 47.703125 
L 2.6875 47.703125 
L 2.6875 54.6875 
L 9.28125 54.6875 
L 9.28125 70.21875 
z
" id="DejaVuSans-116"/>
      </defs>
      <use xlink:href="#DejaVuSans-115"/>
      <use x="52.099609" xlink:href="#DejaVuSans-101"/>
      <use x="113.623047" xlink:href="#DejaVuSans-116"/>
     </g>
    </g>
   </g>
   <g id="matplotlib.axis_2">
    <g id="ytick_1">
     <g id="line2d_3">
      <defs>
       <path d="M 0 0 
L -3.5 0 
" id="m7497563e5e" style="stroke:#000000;stroke-width:0.8;"/>
      </defs>
      <g>
       <use style="stroke:#000000;stroke-width:0.8;" x="54" xlink:href="#m7497563e5e" y="220.724514"/>
      </g>
     </g>
     <g id="text_4">
      <!-- −14 -->
      <g transform="translate(25.895312 224.523733)scale(0.1 -0.1)">
       <defs>
        <path d="M 10.59375 35.5 
L 73.1875 35.5 
L 73.1875 27.203125 
L 10.59375 27.203125 
z
" id="DejaVuSans-8722"/>
        <path d="M 12.40625 8.296875 
L 28.515625 8.296875 
L 28.515625 63.921875 
L 10.984375 60.40625 
L 10.984375 69.390625 
L 28.421875 72.90625 
L 38.28125 72.90625 
L 38.28125 8.296875 
L 54.390625 8.296875 
L 54.390625 0 
L 12.40625 0 
z
" id="DejaVuSans-49"/>
        <path d="M 37.796875 64.3125 
L 12.890625 25.390625 
L 37.796875 25.390625 
z
M 35.203125 72.90625 
L 47.609375 72.90625 
L 47.609375 25.390625 
L 58.015625 25.390625 
L 58.015625 17.1875 
L 47.609375 17.1875 
L 47.609375 0 
L 37.796875 0 
L 37.796875 17.1875 
L 4.890625 17.1875 
L 4.890625 26.703125 
z
" id="DejaVuSans-52"/>
       </defs>
       <use xlink:href="#DejaVuSans-8722"/>
       <use x="83.789062" xlink:href="#DejaVuSans-49"/>
       <use x="147.412109" xlink:href="#DejaVuSans-52"/>
      </g>
     </g>
    </g>
    <g id="ytick_2">
     <g id="line2d_4">
      <g>
       <use style="stroke:#000000;stroke-width:0.8;" x="54" xlink:href="#m7497563e5e" y="174.401432"/>
      </g>
     </g>
     <g id="text_5">
      <!-- −12 -->
      <g transform="translate(25.895312 178.200651)scale(0.1 -0.1)">
       <use xlink:href="#DejaVuSans-8722"/>
       <use x="83.789062" xlink:href="#DejaVuSans-49"/>
       <use x="147.412109" xlink:href="#DejaVuSans-50"/>
      </g>
     </g>
    </g>
    <g id="ytick_3">
     <g id="line2d_5">
      <g>
       <use style="stroke:#000000;stroke-width:0.8;" x="54" xlink:href="#m7497563e5e" y="128.07835"/>
      </g>
     </g>
     <g id="text_6">
      <!-- −10 -->
      <g transform="translate(25.895312 131.877569)scale(0.1 -0.1)">
       <defs>
        <path d="M 31.78125 66.40625 
Q 24.171875 66.40625 20.328125 58.90625 
Q 16.5 51.421875 16.5 36.375 
Q 16.5 21.390625 20.328125 13.890625 
Q 24.171875 6.390625 31.78125 6.390625 
Q 39.453125 6.390625 43.28125 13.890625 
Q 47.125 21.390625 47.125 36.375 
Q 47.125 51.421875 43.28125 58.90625 
Q 39.453125 66.40625 31.78125 66.40625 
z
M 31.78125 74.21875 
Q 44.046875 74.21875 50.515625 64.515625 
Q 56.984375 54.828125 56.984375 36.375 
Q 56.984375 17.96875 50.515625 8.265625 
Q 44.046875 -1.421875 31.78125 -1.421875 
Q 19.53125 -1.421875 13.0625 8.265625 
Q 6.59375 17.96875 6.59375 36.375 
Q 6.59375 54.828125 13.0625 64.515625 
Q 19.53125 74.21875 31.78125 74.21875 
z
" id="DejaVuSans-48"/>
       </defs>
       <use xlink:href="#DejaVuSans-8722"/>
       <use x="83.789062" xlink:href="#DejaVuSans-49"/>
       <use x="147.412109" xlink:href="#DejaVuSans-48"/>
      </g>
     </g>
    </g>
    <g id="ytick_4">
     <g id="line2d_6">
      <g>
       <use style="stroke:#000000;stroke-width:0.8;" x="54" xlink:href="#m7497563e5e" y="81.755268"/>
      </g>
     </g>
     <g id="text_7">
      <!-- −8 -->
      <g transform="translate(32.257812 85.554487)scale(0.1 -0.1)">
       <defs>
        <path d="M 31.78125 34.625 
Q 24.75 34.625 20.71875 30.859375 
Q 16.703125 27.09375 16.703125 20.515625 
Q 16.703125 13.921875 20.71875 10.15625 
Q 24.75 6.390625 31.78125 6.390625 
Q 38.8125 6.390625 42.859375 10.171875 
Q 46.921875 13.96875 46.921875 20.515625 
Q 46.921875 27.09375 42.890625 30.859375 
Q 38.875 34.625 31.78125 34.625 
z
M 21.921875 38.8125 
Q 15.578125 40.375 12.03125 44.71875 
Q 8.5 49.078125 8.5 55.328125 
Q 8.5 64.0625 14.71875 69.140625 
Q 20.953125 74.21875 31.78125 74.21875 
Q 42.671875 74.21875 48.875 69.140625 
Q 55.078125 64.0625 55.078125 55.328125 
Q 55.078125 49.078125 51.53125 44.71875 
Q 48 40.375 41.703125 38.8125 
Q 48.828125 37.15625 52.796875 32.3125 
Q 56.78125 27.484375 56.78125 20.515625 
Q 56.78125 9.90625 50.3125 4.234375 
Q 43.84375 -1.421875 31.78125 -1.421875 
Q 19.734375 -1.421875 13.25 4.234375 
Q 6.78125 9.90625 6.78125 20.515625 
Q 6.78125 27.484375 10.78125 32.3125 
Q 14.796875 37.15625 21.921875 38.8125 
z
M 18.3125 54.390625 
Q 18.3125 48.734375 21.84375 45.5625 
Q 25.390625 42.390625 31.78125 42.390625 
Q 38.140625 42.390625 41.71875 45.5625 
Q 45.3125 48.734375 45.3125 54.390625 
Q 45.3125 60.0625 41.71875 63.234375 
Q 38.140625 66.40625 31.78125 66.40625 
Q 25.390625 66.40625 21.84375 63.234375 
Q 18.3125 60.0625 18.3125 54.390625 
z
" id="DejaVuSans-56"/>
       </defs>
       <use xlink:href="#DejaVuSans-8722"/>
       <use x="83.789062" xlink:href="#DejaVuSans-56"/>
      </g>
     </g>
    </g>
    <g id="ytick_5">
     <g id="line2d_7">
      <g>
       <use style="stroke:#000000;stroke-width:0.8;" x="54" xlink:href="#m7497563e5e" y="35.432186"/>
      </g>
     </g>
     <g id="text_8">
      <!-- −6 -->
      <g transform="translate(32.257812 39.231405)scale(0.1 -0.1)">
       <defs>
        <path d="M 33.015625 40.375 
Q 26.375 40.375 22.484375 35.828125 
Q 18.609375 31.296875 18.609375 23.390625 
Q 18.609375 15.53125 22.484375 10.953125 
Q 26.375 6.390625 33.015625 6.390625 
Q 39.65625 6.390625 43.53125 10.953125 
Q 47.40625 15.53125 47.40625 23.390625 
Q 47.40625 31.296875 43.53125 35.828125 
Q 39.65625 40.375 33.015625 40.375 
z
M 52.59375 71.296875 
L 52.59375 62.3125 
Q 48.875 64.0625 45.09375 64.984375 
Q 41.3125 65.921875 37.59375 65.921875 
Q 27.828125 65.921875 22.671875 59.328125 
Q 17.53125 52.734375 16.796875 39.40625 
Q 19.671875 43.65625 24.015625 45.921875 
Q 28.375 48.1875 33.59375 48.1875 
Q 44.578125 48.1875 50.953125 41.515625 
Q 57.328125 34.859375 57.328125 23.390625 
Q 57.328125 12.15625 50.6875 5.359375 
Q 44.046875 -1.421875 33.015625 -1.421875 
Q 20.359375 -1.421875 13.671875 8.265625 
Q 6.984375 17.96875 6.984375 36.375 
Q 6.984375 53.65625 15.1875 63.9375 
Q 23.390625 74.21875 37.203125 74.21875 
Q 40.921875 74.21875 44.703125 73.484375 
Q 48.484375 72.75 52.59375 71.296875 
z
" id="DejaVuSans-54"/>
       </defs>
       <use xlink:href="#DejaVuSans-8722"/>
       <use x="83.789062" xlink:href="#DejaVuSans-54"/>
      </g>
     </g>
    </g>
    <g id="text_9">
     <!-- value -->
     <g transform="translate(19.815625 156.937813)rotate(-90)scale(0.1 -0.1)">
      <defs>
       <path d="M 2.984375 54.6875 
L 12.5 54.6875 
L 29.59375 8.796875 
L 46.6875 54.6875 
L 56.203125 54.6875 
L 35.6875 0 
L 23.484375 0 
z
" id="DejaVuSans-118"/>
       <path d="M 34.28125 27.484375 
Q 23.390625 27.484375 19.1875 25 
Q 14.984375 22.515625 14.984375 16.5 
Q 14.984375 11.71875 18.140625 8.90625 
Q 21.296875 6.109375 26.703125 6.109375 
Q 34.1875 6.109375 38.703125 11.40625 
Q 43.21875 16.703125 43.21875 25.484375 
L 43.21875 27.484375 
z
M 52.203125 31.203125 
L 52.203125 0 
L 43.21875 0 
L 43.21875 8.296875 
Q 40.140625 3.328125 35.546875 0.953125 
Q 30.953125 -1.421875 24.3125 -1.421875 
Q 15.921875 -1.421875 10.953125 3.296875 
Q 6 8.015625 6 15.921875 
Q 6 25.140625 12.171875 29.828125 
Q 18.359375 34.515625 30.609375 34.515625 
L 43.21875 34.515625 
L 43.21875 35.40625 
Q 43.21875 41.609375 39.140625 45 
Q 35.0625 48.390625 27.6875 48.390625 
Q 23 48.390625 18.546875 47.265625 
Q 14.109375 46.140625 10.015625 43.890625 
L 10.015625 52.203125 
Q 14.9375 54.109375 19.578125 55.046875 
Q 24.21875 56 28.609375 56 
Q 40.484375 56 46.34375 49.84375 
Q 52.203125 43.703125 52.203125 31.203125 
z
" id="DejaVuSans-97"/>
       <path d="M 9.421875 75.984375 
L 18.40625 75.984375 
L 18.40625 0 
L 9.421875 0 
z
" id="DejaVuSans-108"/>
       <path d="M 8.5 21.578125 
L 8.5 54.6875 
L 17.484375 54.6875 
L 17.484375 21.921875 
Q 17.484375 14.15625 20.5 10.265625 
Q 23.53125 6.390625 29.59375 6.390625 
Q 36.859375 6.390625 41.078125 11.03125 
Q 45.3125 15.671875 45.3125 23.6875 
L 45.3125 54.6875 
L 54.296875 54.6875 
L 54.296875 0 
L 45.3125 0 
L 45.3125 8.40625 
Q 42.046875 3.421875 37.71875 1 
Q 33.40625 -1.421875 27.6875 -1.421875 
Q 18.265625 -1.421875 13.375 4.4375 
Q 8.5 10.296875 8.5 21.578125 
z
M 31.109375 56 
z
" id="DejaVuSans-117"/>
      </defs>
      <use xlink:href="#DejaVuSans-118"/>
      <use x="59.179688" xlink:href="#DejaVuSans-97"/>
      <use x="120.458984" xlink:href="#DejaVuSans-108"/>
      <use x="148.242188" xlink:href="#DejaVuSans-117"/>
      <use x="211.621094" xlink:href="#DejaVuSans-101"/>
     </g>
    </g>
   </g>
   <g id="line2d_8">
    <path clip-path="url(#p21ef05e2aa)" d="M 104.22 197.45845 
L 104.22 53.514284 
" style="fill:none;stroke:#3f3f3f;stroke-linecap:square;stroke-width:1.5;"/>
   </g>
   <g id="line2d_9">
    <path clip-path="url(#p21ef05e2aa)" d="M 104.22 143.022668 
L 104.22 106.532411 
" style="fill:none;stroke:#3f3f3f;stroke-linecap:square;stroke-width:4.5;"/>
   </g>
   <g id="line2d_10">
    <path clip-path="url(#p21ef05e2aa)" d="M 338.58 170.014996 
L 338.58 73.115424 
" style="fill:none;stroke:#3f3f3f;stroke-linecap:square;stroke-width:1.5;"/>
   </g>
   <g id="line2d_11">
    <path clip-path="url(#p21ef05e2aa)" d="M 338.58 133.888593 
L 338.58 109.5678 
" style="fill:none;stroke:#3f3f3f;stroke-linecap:square;stroke-width:4.5;"/>
   </g>
   <g id="patch_5">
    <path d="M 54 252 
L 54 34.56 
" style="fill:none;stroke:#000000;stroke-linecap:square;stroke-linejoin:miter;stroke-width:0.8;"/>
   </g>
   <g id="patch_6">
    <path d="M 388.8 252 
L 388.8 34.56 
" style="fill:none;stroke:#000000;stroke-linecap:square;stroke-linejoin:miter;stroke-width:0.8;"/>
   </g>
   <g id="patch_7">
    <path d="M 54 252 
L 388.8 252 
" style="fill:none;stroke:#000000;stroke-linecap:square;stroke-linejoin:miter;stroke-width:0.8;"/>
   </g>
   <g id="patch_8">
    <path d="M 54 34.56 
L 388.8 34.56 
" style="fill:none;stroke:#000000;stroke-linecap:square;stroke-linejoin:miter;stroke-width:0.8;"/>
   </g>
   <g id="PathCollection_1">
    <defs>
     <path d="M 0 1.5 
C 0.397805 1.5 0.77937 1.341951 1.06066 1.06066 
C 1.341951 0.77937 1.5 0.397805 1.5 0 
C 1.5 -0.397805 1.341951 -0.77937 1.06066 -1.06066 
C 0.77937 -1.341951 0.397805 -1.5 0 -1.5 
C -0.397805 -1.5 -0.77937 -1.341951 -1.06066 -1.06066 
C -1.341951 -0.77937 -1.5 -0.397805 -1.5 0 
C -1.5 0.397805 -1.341951 0.77937 -1.06066 1.06066 
C -0.77937 1.341951 -0.397805 1.5 0 1.5 
z
" id="m0cb31c97e5" style="stroke:#3f3f3f;"/>
    </defs>
    <g clip-path="url(#p21ef05e2aa)">
     <use style="fill:#ffffff;stroke:#3f3f3f;" x="104.22" xlink:href="#m0cb31c97e5" y="124.618088"/>
    </g>
   </g>
   <g id="PathCollection_2">
    <g clip-path="url(#p21ef05e2aa)">
     <use style="fill:#ffffff;stroke:#3f3f3f;" x="338.58" xlink:href="#m0cb31c97e5" y="121.591755"/>
    </g>
   </g>
   <g id="legend_1">
    <g id="patch_9">
     <path d="M 61 247 
L 127.759375 247 
Q 129.759375 247 129.759375 245 
L 129.759375 201.409375 
Q 129.759375 199.409375 127.759375 199.409375 
L 61 199.409375 
Q 59 199.409375 59 201.409375 
L 59 245 
Q 59 247 61 247 
z
" style="fill:#ffffff;opacity:0.8;stroke:#cccccc;stroke-linejoin:miter;"/>
    </g>
    <g id="text_10">
     <!-- set -->
     <g transform="translate(86.738281 211.007812)scale(0.1 -0.1)">
      <use xlink:href="#DejaVuSans-115"/>
      <use x="52.099609" xlink:href="#DejaVuSans-101"/>
      <use x="113.623047" xlink:href="#DejaVuSans-116"/>
     </g>
    </g>
    <g id="patch_10">
     <path d="M 63 225.685937 
L 83 225.685937 
L 83 218.685937 
L 63 218.685937 
z
" style="fill:#3274a1;stroke:#3f3f3f;stroke-linejoin:miter;stroke-width:0.75;"/>
    </g>
    <g id="text_11">
     <!-- Z_2_ns -->
     <g transform="translate(91 225.685937)scale(0.1 -0.1)">
      <use xlink:href="#DejaVuSans-90"/>
      <use x="68.505859" xlink:href="#DejaVuSans-95"/>
      <use x="118.505859" xlink:href="#DejaVuSans-50"/>
      <use x="182.128906" xlink:href="#DejaVuSans-95"/>
      <use x="232.128906" xlink:href="#DejaVuSans-110"/>
      <use x="295.507812" xlink:href="#DejaVuSans-115"/>
     </g>
    </g>
    <g id="patch_11">
     <path d="M 63 240.642188 
L 83 240.642188 
L 83 233.642188 
L 63 233.642188 
z
" style="fill:#e1812c;stroke:#3f3f3f;stroke-linejoin:miter;stroke-width:0.75;"/>
    </g>
    <g id="text_12">
     <!-- Z_3_ns -->
     <g transform="translate(91 240.642188)scale(0.1 -0.1)">
      <use xlink:href="#DejaVuSans-90"/>
      <use x="68.505859" xlink:href="#DejaVuSans-95"/>
      <use x="118.505859" xlink:href="#DejaVuSans-51"/>
      <use x="182.128906" xlink:href="#DejaVuSans-95"/>
      <use x="232.128906" xlink:href="#DejaVuSans-110"/>
      <use x="295.507812" xlink:href="#DejaVuSans-115"/>
     </g>
    </g>
   </g>
  </g>
 </g>
 <defs>
  <clipPath id="p21ef05e2aa">
   <rect height="217.44" width="334.8" x="54" y="34.56"/>
  </clipPath>
 </defs>
</svg>
