<?xml version="1.0" encoding="utf-8" standalone="no"?>
<!DOCTYPE svg PUBLIC "-//W3C//DTD SVG 1.1//EN"
  "http://www.w3.org/Graphics/SVG/1.1/DTD/svg11.dtd">
<!-- Created with matplotlib (https://matplotlib.org/) -->
<svg height="288pt" version="1.1" viewBox="0 0 432 288" width="432pt" xmlns="http://www.w3.org/2000/svg" xmlns:xlink="http://www.w3.org/1999/xlink">
 <metadata>
  <rdf:RDF xmlns:cc="http://creativecommons.org/ns#" xmlns:dc="http://purl.org/dc/elements/1.1/" xmlns:rdf="http://www.w3.org/1999/02/22-rdf-syntax-ns#">
   <cc:Work>
    <dc:type rdf:resource="http://purl.org/dc/dcmitype/StillImage"/>
    <dc:date>2022-04-14T11:32:23.021003</dc:date>
    <dc:format>image/svg+xml</dc:format>
    <dc:creator>
     <cc:Agent>
      <dc:title>Matplotlib v3.3.4, https://matplotlib.org/</dc:title>
     </cc:Agent>
    </dc:creator>
   </cc:Work>
  </rdf:RDF>
 </metadata>
 <defs>
  <style type="text/css">*{stroke-linecap:butt;stroke-linejoin:round;}</style>
 </defs>
 <g id="figure_1">
  <g id="patch_1">
   <path d="M 0 288 
L 432 288 
L 432 0 
L 0 0 
z
" style="fill:#ffffff;"/>
  </g>
  <g id="axes_1">
   <g id="patch_2">
    <path d="M 54 252 
L 388.8 252 
L 388.8 34.56 
L 54 34.56 
z
" style="fill:#ffffff;"/>
   </g>
   <g id="PolyCollection_1">
    <defs>
     <path d="M 94.92 -45.883636 
L 65.16 -45.883636 
L 77.513339 -46.196182 
L 80.016841 -46.508728 
L 80.036187 -46.821274 
L 80.038878 -47.13382 
L 80.031483 -47.446366 
L 80.036971 -47.758912 
L 80.03996 -48.071458 
L 80.04 -48.384004 
L 80.04 -48.69655 
L 80.039848 -49.009095 
L 80.036144 -49.321641 
L 80.03775 -49.634187 
L 80.03997 -49.946733 
L 80.04 -50.259279 
L 80.039999 -50.571825 
L 80.039453 -50.884371 
L 80.035151 -51.196917 
L 80.039012 -51.509463 
L 80.039995 -51.822009 
L 80.04 -52.134555 
L 80.04 -52.4471 
L 80.04 -52.759646 
L 80.04 -53.072192 
L 80.04 -53.384738 
L 80.04 -53.697284 
L 80.04 -54.00983 
L 80.04 -54.322376 
L 80.04 -54.634922 
L 80.04 -54.947468 
L 80.04 -55.260014 
L 80.04 -55.57256 
L 80.04 -55.885106 
L 80.04 -56.197651 
L 80.04 -56.510197 
L 80.04 -56.822743 
L 80.04 -57.135289 
L 80.04 -57.447835 
L 80.04 -57.760381 
L 80.04 -58.072927 
L 80.04 -58.385473 
L 80.04 -58.698019 
L 80.04 -59.010565 
L 80.04 -59.323111 
L 80.04 -59.635656 
L 80.04 -59.948202 
L 80.04 -60.260748 
L 80.04 -60.573294 
L 80.04 -60.88584 
L 80.04 -61.198386 
L 80.04 -61.510932 
L 80.04 -61.823478 
L 80.04 -62.136024 
L 80.04 -62.44857 
L 80.04 -62.761116 
L 80.04 -63.073661 
L 80.04 -63.386207 
L 80.04 -63.698753 
L 80.04 -64.011299 
L 80.04 -64.323845 
L 80.04 -64.636391 
L 80.04 -64.948937 
L 80.04 -65.261483 
L 80.04 -65.574029 
L 80.04 -65.886575 
L 80.04 -66.199121 
L 80.04 -66.511666 
L 80.04 -66.824212 
L 80.04 -67.136758 
L 80.04 -67.449304 
L 80.04 -67.76185 
L 80.04 -68.074396 
L 80.04 -68.386942 
L 80.04 -68.699488 
L 80.04 -69.012034 
L 80.04 -69.32458 
L 80.04 -69.637126 
L 80.04 -69.949671 
L 80.04 -70.262217 
L 80.04 -70.574763 
L 80.04 -70.887309 
L 80.04 -71.199855 
L 80.04 -71.512401 
L 80.04 -71.824947 
L 80.04 -72.137493 
L 80.04 -72.450039 
L 80.04 -72.762585 
L 80.04 -73.075131 
L 80.04 -73.387677 
L 80.04 -73.700222 
L 80.04 -74.012768 
L 80.04 -74.325314 
L 80.04 -74.63786 
L 80.04 -74.950406 
L 80.04 -75.262952 
L 80.04 -75.575498 
L 80.04 -75.888044 
L 80.039993 -76.20059 
L 80.038317 -76.513136 
L 80.030227 -76.825682 
L 80.049773 -76.825682 
L 80.049773 -76.825682 
L 80.041683 -76.513136 
L 80.040007 -76.20059 
L 80.04 -75.888044 
L 80.04 -75.575498 
L 80.04 -75.262952 
L 80.04 -74.950406 
L 80.04 -74.63786 
L 80.04 -74.325314 
L 80.04 -74.012768 
L 80.04 -73.700222 
L 80.04 -73.387677 
L 80.04 -73.075131 
L 80.04 -72.762585 
L 80.04 -72.450039 
L 80.04 -72.137493 
L 80.04 -71.824947 
L 80.04 -71.512401 
L 80.04 -71.199855 
L 80.04 -70.887309 
L 80.04 -70.574763 
L 80.04 -70.262217 
L 80.04 -69.949671 
L 80.04 -69.637126 
L 80.04 -69.32458 
L 80.04 -69.012034 
L 80.04 -68.699488 
L 80.04 -68.386942 
L 80.04 -68.074396 
L 80.04 -67.76185 
L 80.04 -67.449304 
L 80.04 -67.136758 
L 80.04 -66.824212 
L 80.04 -66.511666 
L 80.04 -66.199121 
L 80.04 -65.886575 
L 80.04 -65.574029 
L 80.04 -65.261483 
L 80.04 -64.948937 
L 80.04 -64.636391 
L 80.04 -64.323845 
L 80.04 -64.011299 
L 80.04 -63.698753 
L 80.04 -63.386207 
L 80.04 -63.073661 
L 80.04 -62.761116 
L 80.04 -62.44857 
L 80.04 -62.136024 
L 80.04 -61.823478 
L 80.04 -61.510932 
L 80.04 -61.198386 
L 80.04 -60.88584 
L 80.04 -60.573294 
L 80.04 -60.260748 
L 80.04 -59.948202 
L 80.04 -59.635656 
L 80.04 -59.323111 
L 80.04 -59.010565 
L 80.04 -58.698019 
L 80.04 -58.385473 
L 80.04 -58.072927 
L 80.04 -57.760381 
L 80.04 -57.447835 
L 80.04 -57.135289 
L 80.04 -56.822743 
L 80.04 -56.510197 
L 80.04 -56.197651 
L 80.04 -55.885106 
L 80.04 -55.57256 
L 80.04 -55.260014 
L 80.04 -54.947468 
L 80.04 -54.634922 
L 80.04 -54.322376 
L 80.04 -54.00983 
L 80.04 -53.697284 
L 80.04 -53.384738 
L 80.04 -53.072192 
L 80.04 -52.759646 
L 80.04 -52.4471 
L 80.04 -52.134555 
L 80.040005 -51.822009 
L 80.040988 -51.509463 
L 80.044849 -51.196917 
L 80.040547 -50.884371 
L 80.040001 -50.571825 
L 80.04 -50.259279 
L 80.04003 -49.946733 
L 80.04225 -49.634187 
L 80.043856 -49.321641 
L 80.040152 -49.009095 
L 80.04 -48.69655 
L 80.04 -48.384004 
L 80.04004 -48.071458 
L 80.043029 -47.758912 
L 80.048517 -47.446366 
L 80.041122 -47.13382 
L 80.043813 -46.821274 
L 80.063159 -46.508728 
L 82.566661 -46.196182 
L 94.92 -45.883636 
z
" id="m5cf6810be3" style="stroke:#3d3d3d;stroke-width:1.5;"/>
    </defs>
    <g clip-path="url(#p70173831cc)">
     <use style="fill:#3274a1;stroke:#3d3d3d;stroke-width:1.5;" x="0" xlink:href="#m5cf6810be3" y="288"/>
    </g>
   </g>
   <g id="PolyCollection_2">
    <defs>
     <path d="M 236.28 -45.88403 
L 206.52 -45.88403 
L 214.207038 -47.870002 
L 220.573164 -49.855974 
L 221.351947 -51.841946 
L 221.386428 -53.827918 
L 221.397514 -55.813891 
L 221.399882 -57.799863 
L 221.399852 -59.785835 
L 221.397194 -61.771807 
L 221.387747 -63.757779 
L 221.387644 -65.743751 
L 221.394731 -67.729724 
L 221.388123 -69.715696 
L 221.387275 -71.701668 
L 221.396843 -73.68764 
L 221.399821 -75.673612 
L 221.399998 -77.659584 
L 221.4 -79.645557 
L 221.4 -81.631529 
L 221.4 -83.617501 
L 221.4 -85.603473 
L 221.4 -87.589445 
L 221.4 -89.575417 
L 221.4 -91.56139 
L 221.4 -93.547362 
L 221.4 -95.533334 
L 221.4 -97.519306 
L 221.4 -99.505278 
L 221.399982 -101.49125 
L 221.399274 -103.477223 
L 221.393166 -105.463195 
L 221.385281 -107.449167 
L 221.392748 -109.435139 
L 221.399183 -111.421111 
L 221.399979 -113.407083 
L 221.4 -115.393056 
L 221.4 -117.379028 
L 221.4 -119.365 
L 221.4 -121.350972 
L 221.4 -123.336944 
L 221.4 -125.322916 
L 221.4 -127.308889 
L 221.4 -129.294861 
L 221.4 -131.280833 
L 221.4 -133.266805 
L 221.4 -135.252777 
L 221.4 -137.238749 
L 221.4 -139.224722 
L 221.4 -141.210694 
L 221.4 -143.196666 
L 221.4 -145.182638 
L 221.4 -147.16861 
L 221.4 -149.154582 
L 221.4 -151.140555 
L 221.4 -153.126527 
L 221.4 -155.112499 
L 221.4 -157.098471 
L 221.4 -159.084443 
L 221.4 -161.070415 
L 221.4 -163.056388 
L 221.4 -165.04236 
L 221.4 -167.028332 
L 221.4 -169.014304 
L 221.4 -171.000276 
L 221.4 -172.986248 
L 221.4 -174.972221 
L 221.4 -176.958193 
L 221.4 -178.944165 
L 221.4 -180.930137 
L 221.4 -182.916109 
L 221.4 -184.902081 
L 221.4 -186.888054 
L 221.4 -188.874026 
L 221.4 -190.859998 
L 221.4 -192.84597 
L 221.4 -194.831942 
L 221.4 -196.817914 
L 221.4 -198.803887 
L 221.4 -200.789859 
L 221.4 -202.775831 
L 221.4 -204.761803 
L 221.4 -206.747775 
L 221.4 -208.733747 
L 221.4 -210.71972 
L 221.4 -212.705692 
L 221.4 -214.691664 
L 221.4 -216.677636 
L 221.4 -218.663608 
L 221.4 -220.64958 
L 221.4 -222.635553 
L 221.4 -224.621525 
L 221.4 -226.607497 
L 221.4 -228.593469 
L 221.4 -230.579441 
L 221.4 -232.565413 
L 221.4 -234.551386 
L 221.399981 -236.537358 
L 221.39923 -238.52333 
L 221.392958 -240.509302 
L 221.385277 -242.495274 
L 221.414723 -242.495274 
L 221.414723 -242.495274 
L 221.407042 -240.509302 
L 221.40077 -238.52333 
L 221.400019 -236.537358 
L 221.4 -234.551386 
L 221.4 -232.565413 
L 221.4 -230.579441 
L 221.4 -228.593469 
L 221.4 -226.607497 
L 221.4 -224.621525 
L 221.4 -222.635553 
L 221.4 -220.64958 
L 221.4 -218.663608 
L 221.4 -216.677636 
L 221.4 -214.691664 
L 221.4 -212.705692 
L 221.4 -210.71972 
L 221.4 -208.733747 
L 221.4 -206.747775 
L 221.4 -204.761803 
L 221.4 -202.775831 
L 221.4 -200.789859 
L 221.4 -198.803887 
L 221.4 -196.817914 
L 221.4 -194.831942 
L 221.4 -192.84597 
L 221.4 -190.859998 
L 221.4 -188.874026 
L 221.4 -186.888054 
L 221.4 -184.902081 
L 221.4 -182.916109 
L 221.4 -180.930137 
L 221.4 -178.944165 
L 221.4 -176.958193 
L 221.4 -174.972221 
L 221.4 -172.986248 
L 221.4 -171.000276 
L 221.4 -169.014304 
L 221.4 -167.028332 
L 221.4 -165.04236 
L 221.4 -163.056388 
L 221.4 -161.070415 
L 221.4 -159.084443 
L 221.4 -157.098471 
L 221.4 -155.112499 
L 221.4 -153.126527 
L 221.4 -151.140555 
L 221.4 -149.154582 
L 221.4 -147.16861 
L 221.4 -145.182638 
L 221.4 -143.196666 
L 221.4 -141.210694 
L 221.4 -139.224722 
L 221.4 -137.238749 
L 221.4 -135.252777 
L 221.4 -133.266805 
L 221.4 -131.280833 
L 221.4 -129.294861 
L 221.4 -127.308889 
L 221.4 -125.322916 
L 221.4 -123.336944 
L 221.4 -121.350972 
L 221.4 -119.365 
L 221.4 -117.379028 
L 221.4 -115.393056 
L 221.400021 -113.407083 
L 221.400817 -111.421111 
L 221.407252 -109.435139 
L 221.414719 -107.449167 
L 221.406834 -105.463195 
L 221.400726 -103.477223 
L 221.400018 -101.49125 
L 221.4 -99.505278 
L 221.4 -97.519306 
L 221.4 -95.533334 
L 221.4 -93.547362 
L 221.4 -91.56139 
L 221.4 -89.575417 
L 221.4 -87.589445 
L 221.4 -85.603473 
L 221.4 -83.617501 
L 221.4 -81.631529 
L 221.4 -79.645557 
L 221.400002 -77.659584 
L 221.400179 -75.673612 
L 221.403157 -73.68764 
L 221.412725 -71.701668 
L 221.411877 -69.715696 
L 221.405269 -67.729724 
L 221.412356 -65.743751 
L 221.412253 -63.757779 
L 221.402806 -61.771807 
L 221.400148 -59.785835 
L 221.400118 -57.799863 
L 221.402486 -55.813891 
L 221.413572 -53.827918 
L 221.448053 -51.841946 
L 222.226836 -49.855974 
L 228.592962 -47.870002 
L 236.28 -45.88403 
z
" id="m082de593c3" style="stroke:#3d3d3d;stroke-width:1.5;"/>
    </defs>
    <g clip-path="url(#p70173831cc)">
     <use style="fill:#e1812c;stroke:#3d3d3d;stroke-width:1.5;" x="0" xlink:href="#m082de593c3" y="288"/>
    </g>
   </g>
   <g id="PolyCollection_3">
    <defs>
     <path d="M 377.64 -45.883912 
L 347.88 -45.883912 
L 356.082354 -47.880603 
L 362.154022 -49.877295 
L 362.743007 -51.873986 
L 362.759364 -53.870678 
L 362.757986 -55.867369 
L 362.748651 -57.864061 
L 362.747476 -59.860752 
L 362.757299 -61.857443 
L 362.759441 -63.854135 
L 362.754216 -65.850826 
L 362.745385 -67.847518 
L 362.752799 -69.844209 
L 362.759308 -71.840901 
L 362.759987 -73.837592 
L 362.76 -75.834284 
L 362.76 -77.830975 
L 362.76 -79.827666 
L 362.76 -81.824358 
L 362.76 -83.821049 
L 362.76 -85.817741 
L 362.76 -87.814432 
L 362.76 -89.811124 
L 362.76 -91.807815 
L 362.76 -93.804506 
L 362.76 -95.801198 
L 362.76 -97.797889 
L 362.76 -99.794581 
L 362.76 -101.791272 
L 362.76 -103.787964 
L 362.76 -105.784655 
L 362.76 -107.781346 
L 362.76 -109.778038 
L 362.76 -111.774729 
L 362.76 -113.771421 
L 362.76 -115.768112 
L 362.76 -117.764804 
L 362.76 -119.761495 
L 362.76 -121.758186 
L 362.76 -123.754878 
L 362.76 -125.751569 
L 362.76 -127.748261 
L 362.76 -129.744952 
L 362.76 -131.741644 
L 362.76 -133.738335 
L 362.76 -135.735026 
L 362.76 -137.731718 
L 362.76 -139.728409 
L 362.76 -141.725101 
L 362.76 -143.721792 
L 362.76 -145.718484 
L 362.76 -147.715175 
L 362.76 -149.711866 
L 362.76 -151.708558 
L 362.76 -153.705249 
L 362.76 -155.701941 
L 362.76 -157.698632 
L 362.76 -159.695324 
L 362.76 -161.692015 
L 362.76 -163.688706 
L 362.76 -165.685398 
L 362.76 -167.682089 
L 362.76 -169.678781 
L 362.76 -171.675472 
L 362.76 -173.672164 
L 362.76 -175.668855 
L 362.76 -177.665546 
L 362.76 -179.662238 
L 362.76 -181.658929 
L 362.76 -183.655621 
L 362.76 -185.652312 
L 362.76 -187.649004 
L 362.76 -189.645695 
L 362.76 -191.642386 
L 362.76 -193.639078 
L 362.76 -195.635769 
L 362.76 -197.632461 
L 362.76 -199.629152 
L 362.76 -201.625844 
L 362.76 -203.622535 
L 362.76 -205.619226 
L 362.76 -207.615918 
L 362.76 -209.612609 
L 362.76 -211.609301 
L 362.76 -213.605992 
L 362.76 -215.602684 
L 362.76 -217.599375 
L 362.76 -219.596066 
L 362.76 -221.592758 
L 362.76 -223.589449 
L 362.76 -225.586141 
L 362.76 -227.582832 
L 362.76 -229.579524 
L 362.76 -231.576215 
L 362.76 -233.572906 
L 362.76 -235.569598 
L 362.759991 -237.566289 
L 362.759442 -239.562981 
L 362.753523 -241.559672 
L 362.745331 -243.556364 
L 362.774669 -243.556364 
L 362.774669 -243.556364 
L 362.766477 -241.559672 
L 362.760558 -239.562981 
L 362.760009 -237.566289 
L 362.76 -235.569598 
L 362.76 -233.572906 
L 362.76 -231.576215 
L 362.76 -229.579524 
L 362.76 -227.582832 
L 362.76 -225.586141 
L 362.76 -223.589449 
L 362.76 -221.592758 
L 362.76 -219.596066 
L 362.76 -217.599375 
L 362.76 -215.602684 
L 362.76 -213.605992 
L 362.76 -211.609301 
L 362.76 -209.612609 
L 362.76 -207.615918 
L 362.76 -205.619226 
L 362.76 -203.622535 
L 362.76 -201.625844 
L 362.76 -199.629152 
L 362.76 -197.632461 
L 362.76 -195.635769 
L 362.76 -193.639078 
L 362.76 -191.642386 
L 362.76 -189.645695 
L 362.76 -187.649004 
L 362.76 -185.652312 
L 362.76 -183.655621 
L 362.76 -181.658929 
L 362.76 -179.662238 
L 362.76 -177.665546 
L 362.76 -175.668855 
L 362.76 -173.672164 
L 362.76 -171.675472 
L 362.76 -169.678781 
L 362.76 -167.682089 
L 362.76 -165.685398 
L 362.76 -163.688706 
L 362.76 -161.692015 
L 362.76 -159.695324 
L 362.76 -157.698632 
L 362.76 -155.701941 
L 362.76 -153.705249 
L 362.76 -151.708558 
L 362.76 -149.711866 
L 362.76 -147.715175 
L 362.76 -145.718484 
L 362.76 -143.721792 
L 362.76 -141.725101 
L 362.76 -139.728409 
L 362.76 -137.731718 
L 362.76 -135.735026 
L 362.76 -133.738335 
L 362.76 -131.741644 
L 362.76 -129.744952 
L 362.76 -127.748261 
L 362.76 -125.751569 
L 362.76 -123.754878 
L 362.76 -121.758186 
L 362.76 -119.761495 
L 362.76 -117.764804 
L 362.76 -115.768112 
L 362.76 -113.771421 
L 362.76 -111.774729 
L 362.76 -109.778038 
L 362.76 -107.781346 
L 362.76 -105.784655 
L 362.76 -103.787964 
L 362.76 -101.791272 
L 362.76 -99.794581 
L 362.76 -97.797889 
L 362.76 -95.801198 
L 362.76 -93.804506 
L 362.76 -91.807815 
L 362.76 -89.811124 
L 362.76 -87.814432 
L 362.76 -85.817741 
L 362.76 -83.821049 
L 362.76 -81.824358 
L 362.76 -79.827666 
L 362.76 -77.830975 
L 362.76 -75.834284 
L 362.760013 -73.837592 
L 362.760692 -71.840901 
L 362.767201 -69.844209 
L 362.774615 -67.847518 
L 362.765784 -65.850826 
L 362.760559 -63.854135 
L 362.762701 -61.857443 
L 362.772524 -59.860752 
L 362.771349 -57.864061 
L 362.762014 -55.867369 
L 362.760636 -53.870678 
L 362.776993 -51.873986 
L 363.365978 -49.877295 
L 369.437646 -47.880603 
L 377.64 -45.883912 
z
" id="m5175ed025c" style="stroke:#3d3d3d;stroke-width:1.5;"/>
    </defs>
    <g clip-path="url(#p70173831cc)">
     <use style="fill:#3a923a;stroke:#3d3d3d;stroke-width:1.5;" x="0" xlink:href="#m5175ed025c" y="288"/>
    </g>
   </g>
   <g id="patch_3">
    <path clip-path="url(#p70173831cc)" d="M 109.8 242.131822 
L 109.8 242.131822 
L 109.8 242.131822 
L 109.8 242.131822 
z
" style="fill:#3274a1;stroke:#3d3d3d;stroke-linejoin:miter;stroke-width:0.75;"/>
   </g>
   <g id="patch_4">
    <path clip-path="url(#p70173831cc)" d="M 109.8 242.131822 
L 109.8 242.131822 
L 109.8 242.131822 
L 109.8 242.131822 
z
" style="fill:#e1812c;stroke:#3d3d3d;stroke-linejoin:miter;stroke-width:0.75;"/>
   </g>
   <g id="patch_5">
    <path clip-path="url(#p70173831cc)" d="M 109.8 242.131822 
L 109.8 242.131822 
L 109.8 242.131822 
L 109.8 242.131822 
z
" style="fill:#3a923a;stroke:#3d3d3d;stroke-linejoin:miter;stroke-width:0.75;"/>
   </g>
   <g id="matplotlib.axis_1">
    <g id="xtick_1">
     <g id="line2d_1">
      <defs>
       <path d="M 0 0 
L 0 3.5 
" id="me958d73385" style="stroke:#000000;stroke-width:0.8;"/>
      </defs>
      <g>
       <use style="stroke:#000000;stroke-width:0.8;" x="109.8" xlink:href="#me958d73385" y="252"/>
      </g>
     </g>
     <g id="text_1">
      <!-- train -->
      <g transform="translate(98.1625 266.598437)scale(0.1 -0.1)">
       <defs>
        <path d="M 18.3125 70.21875 
L 18.3125 54.6875 
L 36.8125 54.6875 
L 36.8125 47.703125 
L 18.3125 47.703125 
L 18.3125 18.015625 
Q 18.3125 11.328125 20.140625 9.421875 
Q 21.96875 7.515625 27.59375 7.515625 
L 36.8125 7.515625 
L 36.8125 0 
L 27.59375 0 
Q 17.1875 0 13.234375 3.875 
Q 9.28125 7.765625 9.28125 18.015625 
L 9.28125 47.703125 
L 2.6875 47.703125 
L 2.6875 54.6875 
L 9.28125 54.6875 
L 9.28125 70.21875 
z
" id="DejaVuSans-116"/>
        <path d="M 41.109375 46.296875 
Q 39.59375 47.171875 37.8125 47.578125 
Q 36.03125 48 33.890625 48 
Q 26.265625 48 22.1875 43.046875 
Q 18.109375 38.09375 18.109375 28.8125 
L 18.109375 0 
L 9.078125 0 
L 9.078125 54.6875 
L 18.109375 54.6875 
L 18.109375 46.1875 
Q 20.953125 51.171875 25.484375 53.578125 
Q 30.03125 56 36.53125 56 
Q 37.453125 56 38.578125 55.875 
Q 39.703125 55.765625 41.0625 55.515625 
z
" id="DejaVuSans-114"/>
        <path d="M 34.28125 27.484375 
Q 23.390625 27.484375 19.1875 25 
Q 14.984375 22.515625 14.984375 16.5 
Q 14.984375 11.71875 18.140625 8.90625 
Q 21.296875 6.109375 26.703125 6.109375 
Q 34.1875 6.109375 38.703125 11.40625 
Q 43.21875 16.703125 43.21875 25.484375 
L 43.21875 27.484375 
z
M 52.203125 31.203125 
L 52.203125 0 
L 43.21875 0 
L 43.21875 8.296875 
Q 40.140625 3.328125 35.546875 0.953125 
Q 30.953125 -1.421875 24.3125 -1.421875 
Q 15.921875 -1.421875 10.953125 3.296875 
Q 6 8.015625 6 15.921875 
Q 6 25.140625 12.171875 29.828125 
Q 18.359375 34.515625 30.609375 34.515625 
L 43.21875 34.515625 
L 43.21875 35.40625 
Q 43.21875 41.609375 39.140625 45 
Q 35.0625 48.390625 27.6875 48.390625 
Q 23 48.390625 18.546875 47.265625 
Q 14.109375 46.140625 10.015625 43.890625 
L 10.015625 52.203125 
Q 14.9375 54.109375 19.578125 55.046875 
Q 24.21875 56 28.609375 56 
Q 40.484375 56 46.34375 49.84375 
Q 52.203125 43.703125 52.203125 31.203125 
z
" id="DejaVuSans-97"/>
        <path d="M 9.421875 54.6875 
L 18.40625 54.6875 
L 18.40625 0 
L 9.421875 0 
z
M 9.421875 75.984375 
L 18.40625 75.984375 
L 18.40625 64.59375 
L 9.421875 64.59375 
z
" id="DejaVuSans-105"/>
        <path d="M 54.890625 33.015625 
L 54.890625 0 
L 45.90625 0 
L 45.90625 32.71875 
Q 45.90625 40.484375 42.875 44.328125 
Q 39.84375 48.1875 33.796875 48.1875 
Q 26.515625 48.1875 22.3125 43.546875 
Q 18.109375 38.921875 18.109375 30.90625 
L 18.109375 0 
L 9.078125 0 
L 9.078125 54.6875 
L 18.109375 54.6875 
L 18.109375 46.1875 
Q 21.34375 51.125 25.703125 53.5625 
Q 30.078125 56 35.796875 56 
Q 45.21875 56 50.046875 50.171875 
Q 54.890625 44.34375 54.890625 33.015625 
z
" id="DejaVuSans-110"/>
       </defs>
       <use xlink:href="#DejaVuSans-116"/>
       <use x="39.208984" xlink:href="#DejaVuSans-114"/>
       <use x="80.322266" xlink:href="#DejaVuSans-97"/>
       <use x="141.601562" xlink:href="#DejaVuSans-105"/>
       <use x="169.384766" xlink:href="#DejaVuSans-110"/>
      </g>
     </g>
    </g>
    <g id="xtick_2">
     <g id="line2d_2">
      <g>
       <use style="stroke:#000000;stroke-width:0.8;" x="221.4" xlink:href="#me958d73385" y="252"/>
      </g>
     </g>
     <g id="text_2">
      <!-- val -->
      <g transform="translate(213.9875 266.598437)scale(0.1 -0.1)">
       <defs>
        <path d="M 2.984375 54.6875 
L 12.5 54.6875 
L 29.59375 8.796875 
L 46.6875 54.6875 
L 56.203125 54.6875 
L 35.6875 0 
L 23.484375 0 
z
" id="DejaVuSans-118"/>
        <path d="M 9.421875 75.984375 
L 18.40625 75.984375 
L 18.40625 0 
L 9.421875 0 
z
" id="DejaVuSans-108"/>
       </defs>
       <use xlink:href="#DejaVuSans-118"/>
       <use x="59.179688" xlink:href="#DejaVuSans-97"/>
       <use x="120.458984" xlink:href="#DejaVuSans-108"/>
      </g>
     </g>
    </g>
    <g id="xtick_3">
     <g id="line2d_3">
      <g>
       <use style="stroke:#000000;stroke-width:0.8;" x="333" xlink:href="#me958d73385" y="252"/>
      </g>
     </g>
     <g id="text_3">
      <!-- test -->
      <g transform="translate(323.398438 266.598437)scale(0.1 -0.1)">
       <defs>
        <path d="M 56.203125 29.59375 
L 56.203125 25.203125 
L 14.890625 25.203125 
Q 15.484375 15.921875 20.484375 11.0625 
Q 25.484375 6.203125 34.421875 6.203125 
Q 39.59375 6.203125 44.453125 7.46875 
Q 49.3125 8.734375 54.109375 11.28125 
L 54.109375 2.78125 
Q 49.265625 0.734375 44.1875 -0.34375 
Q 39.109375 -1.421875 33.890625 -1.421875 
Q 20.796875 -1.421875 13.15625 6.1875 
Q 5.515625 13.8125 5.515625 26.8125 
Q 5.515625 40.234375 12.765625 48.109375 
Q 20.015625 56 32.328125 56 
Q 43.359375 56 49.78125 48.890625 
Q 56.203125 41.796875 56.203125 29.59375 
z
M 47.21875 32.234375 
Q 47.125 39.59375 43.09375 43.984375 
Q 39.0625 48.390625 32.421875 48.390625 
Q 24.90625 48.390625 20.390625 44.140625 
Q 15.875 39.890625 15.1875 32.171875 
z
" id="DejaVuSans-101"/>
        <path d="M 44.28125 53.078125 
L 44.28125 44.578125 
Q 40.484375 46.53125 36.375 47.5 
Q 32.28125 48.484375 27.875 48.484375 
Q 21.1875 48.484375 17.84375 46.4375 
Q 14.5 44.390625 14.5 40.28125 
Q 14.5 37.15625 16.890625 35.375 
Q 19.28125 33.59375 26.515625 31.984375 
L 29.59375 31.296875 
Q 39.15625 29.25 43.1875 25.515625 
Q 47.21875 21.78125 47.21875 15.09375 
Q 47.21875 7.46875 41.1875 3.015625 
Q 35.15625 -1.421875 24.609375 -1.421875 
Q 20.21875 -1.421875 15.453125 -0.5625 
Q 10.6875 0.296875 5.421875 2 
L 5.421875 11.28125 
Q 10.40625 8.6875 15.234375 7.390625 
Q 20.0625 6.109375 24.8125 6.109375 
Q 31.15625 6.109375 34.5625 8.28125 
Q 37.984375 10.453125 37.984375 14.40625 
Q 37.984375 18.0625 35.515625 20.015625 
Q 33.0625 21.96875 24.703125 23.78125 
L 21.578125 24.515625 
Q 13.234375 26.265625 9.515625 29.90625 
Q 5.8125 33.546875 5.8125 39.890625 
Q 5.8125 47.609375 11.28125 51.796875 
Q 16.75 56 26.8125 56 
Q 31.78125 56 36.171875 55.265625 
Q 40.578125 54.546875 44.28125 53.078125 
z
" id="DejaVuSans-115"/>
       </defs>
       <use xlink:href="#DejaVuSans-116"/>
       <use x="39.208984" xlink:href="#DejaVuSans-101"/>
       <use x="100.732422" xlink:href="#DejaVuSans-115"/>
       <use x="152.832031" xlink:href="#DejaVuSans-116"/>
      </g>
     </g>
    </g>
    <g id="text_4">
     <!-- set -->
     <g transform="translate(213.758594 280.276563)scale(0.1 -0.1)">
      <use xlink:href="#DejaVuSans-115"/>
      <use x="52.099609" xlink:href="#DejaVuSans-101"/>
      <use x="113.623047" xlink:href="#DejaVuSans-116"/>
     </g>
    </g>
   </g>
   <g id="matplotlib.axis_2">
    <g id="ytick_1">
     <g id="line2d_4">
      <defs>
       <path d="M 0 0 
L -3.5 0 
" id="m93b4f39307" style="stroke:#000000;stroke-width:0.8;"/>
      </defs>
      <g>
       <use style="stroke:#000000;stroke-width:0.8;" x="54" xlink:href="#m93b4f39307" y="242.131822"/>
      </g>
     </g>
     <g id="text_5">
      <!-- 0.0000 -->
      <g transform="translate(12.009375 245.931041)scale(0.1 -0.1)">
       <defs>
        <path d="M 31.78125 66.40625 
Q 24.171875 66.40625 20.328125 58.90625 
Q 16.5 51.421875 16.5 36.375 
Q 16.5 21.390625 20.328125 13.890625 
Q 24.171875 6.390625 31.78125 6.390625 
Q 39.453125 6.390625 43.28125 13.890625 
Q 47.125 21.390625 47.125 36.375 
Q 47.125 51.421875 43.28125 58.90625 
Q 39.453125 66.40625 31.78125 66.40625 
z
M 31.78125 74.21875 
Q 44.046875 74.21875 50.515625 64.515625 
Q 56.984375 54.828125 56.984375 36.375 
Q 56.984375 17.96875 50.515625 8.265625 
Q 44.046875 -1.421875 31.78125 -1.421875 
Q 19.53125 -1.421875 13.0625 8.265625 
Q 6.59375 17.96875 6.59375 36.375 
Q 6.59375 54.828125 13.0625 64.515625 
Q 19.53125 74.21875 31.78125 74.21875 
z
" id="DejaVuSans-48"/>
        <path d="M 10.6875 12.40625 
L 21 12.40625 
L 21 0 
L 10.6875 0 
z
" id="DejaVuSans-46"/>
       </defs>
       <use xlink:href="#DejaVuSans-48"/>
       <use x="63.623047" xlink:href="#DejaVuSans-46"/>
       <use x="95.410156" xlink:href="#DejaVuSans-48"/>
       <use x="159.033203" xlink:href="#DejaVuSans-48"/>
       <use x="222.65625" xlink:href="#DejaVuSans-48"/>
       <use x="286.279297" xlink:href="#DejaVuSans-48"/>
      </g>
     </g>
    </g>
    <g id="ytick_2">
     <g id="line2d_5">
      <g>
       <use style="stroke:#000000;stroke-width:0.8;" x="54" xlink:href="#m93b4f39307" y="217.268086"/>
      </g>
     </g>
     <g id="text_6">
      <!-- 0.0025 -->
      <g transform="translate(12.009375 221.067305)scale(0.1 -0.1)">
       <defs>
        <path d="M 19.1875 8.296875 
L 53.609375 8.296875 
L 53.609375 0 
L 7.328125 0 
L 7.328125 8.296875 
Q 12.9375 14.109375 22.625 23.890625 
Q 32.328125 33.6875 34.8125 36.53125 
Q 39.546875 41.84375 41.421875 45.53125 
Q 43.3125 49.21875 43.3125 52.78125 
Q 43.3125 58.59375 39.234375 62.25 
Q 35.15625 65.921875 28.609375 65.921875 
Q 23.96875 65.921875 18.8125 64.3125 
Q 13.671875 62.703125 7.8125 59.421875 
L 7.8125 69.390625 
Q 13.765625 71.78125 18.9375 73 
Q 24.125 74.21875 28.421875 74.21875 
Q 39.75 74.21875 46.484375 68.546875 
Q 53.21875 62.890625 53.21875 53.421875 
Q 53.21875 48.921875 51.53125 44.890625 
Q 49.859375 40.875 45.40625 35.40625 
Q 44.1875 33.984375 37.640625 27.21875 
Q 31.109375 20.453125 19.1875 8.296875 
z
" id="DejaVuSans-50"/>
        <path d="M 10.796875 72.90625 
L 49.515625 72.90625 
L 49.515625 64.59375 
L 19.828125 64.59375 
L 19.828125 46.734375 
Q 21.96875 47.46875 24.109375 47.828125 
Q 26.265625 48.1875 28.421875 48.1875 
Q 40.625 48.1875 47.75 41.5 
Q 54.890625 34.8125 54.890625 23.390625 
Q 54.890625 11.625 47.5625 5.09375 
Q 40.234375 -1.421875 26.90625 -1.421875 
Q 22.3125 -1.421875 17.546875 -0.640625 
Q 12.796875 0.140625 7.71875 1.703125 
L 7.71875 11.625 
Q 12.109375 9.234375 16.796875 8.0625 
Q 21.484375 6.890625 26.703125 6.890625 
Q 35.15625 6.890625 40.078125 11.328125 
Q 45.015625 15.765625 45.015625 23.390625 
Q 45.015625 31 40.078125 35.4375 
Q 35.15625 39.890625 26.703125 39.890625 
Q 22.75 39.890625 18.8125 39.015625 
Q 14.890625 38.140625 10.796875 36.28125 
z
" id="DejaVuSans-53"/>
       </defs>
       <use xlink:href="#DejaVuSans-48"/>
       <use x="63.623047" xlink:href="#DejaVuSans-46"/>
       <use x="95.410156" xlink:href="#DejaVuSans-48"/>
       <use x="159.033203" xlink:href="#DejaVuSans-48"/>
       <use x="222.65625" xlink:href="#DejaVuSans-50"/>
       <use x="286.279297" xlink:href="#DejaVuSans-53"/>
      </g>
     </g>
    </g>
    <g id="ytick_3">
     <g id="line2d_6">
      <g>
       <use style="stroke:#000000;stroke-width:0.8;" x="54" xlink:href="#m93b4f39307" y="192.404349"/>
      </g>
     </g>
     <g id="text_7">
      <!-- 0.0050 -->
      <g transform="translate(12.009375 196.203568)scale(0.1 -0.1)">
       <use xlink:href="#DejaVuSans-48"/>
       <use x="63.623047" xlink:href="#DejaVuSans-46"/>
       <use x="95.410156" xlink:href="#DejaVuSans-48"/>
       <use x="159.033203" xlink:href="#DejaVuSans-48"/>
       <use x="222.65625" xlink:href="#DejaVuSans-53"/>
       <use x="286.279297" xlink:href="#DejaVuSans-48"/>
      </g>
     </g>
    </g>
    <g id="ytick_4">
     <g id="line2d_7">
      <g>
       <use style="stroke:#000000;stroke-width:0.8;" x="54" xlink:href="#m93b4f39307" y="167.540613"/>
      </g>
     </g>
     <g id="text_8">
      <!-- 0.0075 -->
      <g transform="translate(12.009375 171.339832)scale(0.1 -0.1)">
       <defs>
        <path d="M 8.203125 72.90625 
L 55.078125 72.90625 
L 55.078125 68.703125 
L 28.609375 0 
L 18.3125 0 
L 43.21875 64.59375 
L 8.203125 64.59375 
z
" id="DejaVuSans-55"/>
       </defs>
       <use xlink:href="#DejaVuSans-48"/>
       <use x="63.623047" xlink:href="#DejaVuSans-46"/>
       <use x="95.410156" xlink:href="#DejaVuSans-48"/>
       <use x="159.033203" xlink:href="#DejaVuSans-48"/>
       <use x="222.65625" xlink:href="#DejaVuSans-55"/>
       <use x="286.279297" xlink:href="#DejaVuSans-53"/>
      </g>
     </g>
    </g>
    <g id="ytick_5">
     <g id="line2d_8">
      <g>
       <use style="stroke:#000000;stroke-width:0.8;" x="54" xlink:href="#m93b4f39307" y="142.676877"/>
      </g>
     </g>
     <g id="text_9">
      <!-- 0.0100 -->
      <g transform="translate(12.009375 146.476096)scale(0.1 -0.1)">
       <defs>
        <path d="M 12.40625 8.296875 
L 28.515625 8.296875 
L 28.515625 63.921875 
L 10.984375 60.40625 
L 10.984375 69.390625 
L 28.421875 72.90625 
L 38.28125 72.90625 
L 38.28125 8.296875 
L 54.390625 8.296875 
L 54.390625 0 
L 12.40625 0 
z
" id="DejaVuSans-49"/>
       </defs>
       <use xlink:href="#DejaVuSans-48"/>
       <use x="63.623047" xlink:href="#DejaVuSans-46"/>
       <use x="95.410156" xlink:href="#DejaVuSans-48"/>
       <use x="159.033203" xlink:href="#DejaVuSans-49"/>
       <use x="222.65625" xlink:href="#DejaVuSans-48"/>
       <use x="286.279297" xlink:href="#DejaVuSans-48"/>
      </g>
     </g>
    </g>
    <g id="ytick_6">
     <g id="line2d_9">
      <g>
       <use style="stroke:#000000;stroke-width:0.8;" x="54" xlink:href="#m93b4f39307" y="117.81314"/>
      </g>
     </g>
     <g id="text_10">
      <!-- 0.0125 -->
      <g transform="translate(12.009375 121.612359)scale(0.1 -0.1)">
       <use xlink:href="#DejaVuSans-48"/>
       <use x="63.623047" xlink:href="#DejaVuSans-46"/>
       <use x="95.410156" xlink:href="#DejaVuSans-48"/>
       <use x="159.033203" xlink:href="#DejaVuSans-49"/>
       <use x="222.65625" xlink:href="#DejaVuSans-50"/>
       <use x="286.279297" xlink:href="#DejaVuSans-53"/>
      </g>
     </g>
    </g>
    <g id="ytick_7">
     <g id="line2d_10">
      <g>
       <use style="stroke:#000000;stroke-width:0.8;" x="54" xlink:href="#m93b4f39307" y="92.949404"/>
      </g>
     </g>
     <g id="text_11">
      <!-- 0.0150 -->
      <g transform="translate(12.009375 96.748623)scale(0.1 -0.1)">
       <use xlink:href="#DejaVuSans-48"/>
       <use x="63.623047" xlink:href="#DejaVuSans-46"/>
       <use x="95.410156" xlink:href="#DejaVuSans-48"/>
       <use x="159.033203" xlink:href="#DejaVuSans-49"/>
       <use x="222.65625" xlink:href="#DejaVuSans-53"/>
       <use x="286.279297" xlink:href="#DejaVuSans-48"/>
      </g>
     </g>
    </g>
    <g id="ytick_8">
     <g id="line2d_11">
      <g>
       <use style="stroke:#000000;stroke-width:0.8;" x="54" xlink:href="#m93b4f39307" y="68.085668"/>
      </g>
     </g>
     <g id="text_12">
      <!-- 0.0175 -->
      <g transform="translate(12.009375 71.884887)scale(0.1 -0.1)">
       <use xlink:href="#DejaVuSans-48"/>
       <use x="63.623047" xlink:href="#DejaVuSans-46"/>
       <use x="95.410156" xlink:href="#DejaVuSans-48"/>
       <use x="159.033203" xlink:href="#DejaVuSans-49"/>
       <use x="222.65625" xlink:href="#DejaVuSans-55"/>
       <use x="286.279297" xlink:href="#DejaVuSans-53"/>
      </g>
     </g>
    </g>
    <g id="ytick_9">
     <g id="line2d_12">
      <g>
       <use style="stroke:#000000;stroke-width:0.8;" x="54" xlink:href="#m93b4f39307" y="43.221931"/>
      </g>
     </g>
     <g id="text_13">
      <!-- 0.0200 -->
      <g transform="translate(12.009375 47.02115)scale(0.1 -0.1)">
       <use xlink:href="#DejaVuSans-48"/>
       <use x="63.623047" xlink:href="#DejaVuSans-46"/>
       <use x="95.410156" xlink:href="#DejaVuSans-48"/>
       <use x="159.033203" xlink:href="#DejaVuSans-50"/>
       <use x="222.65625" xlink:href="#DejaVuSans-48"/>
       <use x="286.279297" xlink:href="#DejaVuSans-48"/>
      </g>
     </g>
    </g>
    <g id="text_14">
     <!-- value -->
     <g transform="translate(5.929687 156.937813)rotate(-90)scale(0.1 -0.1)">
      <defs>
       <path d="M 8.5 21.578125 
L 8.5 54.6875 
L 17.484375 54.6875 
L 17.484375 21.921875 
Q 17.484375 14.15625 20.5 10.265625 
Q 23.53125 6.390625 29.59375 6.390625 
Q 36.859375 6.390625 41.078125 11.03125 
Q 45.3125 15.671875 45.3125 23.6875 
L 45.3125 54.6875 
L 54.296875 54.6875 
L 54.296875 0 
L 45.3125 0 
L 45.3125 8.40625 
Q 42.046875 3.421875 37.71875 1 
Q 33.40625 -1.421875 27.6875 -1.421875 
Q 18.265625 -1.421875 13.375 4.4375 
Q 8.5 10.296875 8.5 21.578125 
z
M 31.109375 56 
z
" id="DejaVuSans-117"/>
      </defs>
      <use xlink:href="#DejaVuSans-118"/>
      <use x="59.179688" xlink:href="#DejaVuSans-97"/>
      <use x="120.458984" xlink:href="#DejaVuSans-108"/>
      <use x="148.242188" xlink:href="#DejaVuSans-117"/>
      <use x="211.621094" xlink:href="#DejaVuSans-101"/>
     </g>
    </g>
   </g>
   <g id="line2d_13">
    <path clip-path="url(#p70173831cc)" d="M 80.04 242.116364 
L 80.04 242.100121 
" style="fill:none;stroke:#3d3d3d;stroke-linecap:square;stroke-width:1.5;"/>
   </g>
   <g id="line2d_14">
    <path clip-path="url(#p70173831cc)" d="M 80.04 242.112541 
L 80.04 242.107552 
" style="fill:none;stroke:#3d3d3d;stroke-linecap:square;stroke-width:4.5;"/>
   </g>
   <g id="line2d_15">
    <path clip-path="url(#p70173831cc)" d="M 221.4 242.11597 
L 221.4 242.100625 
" style="fill:none;stroke:#3d3d3d;stroke-linecap:square;stroke-width:1.5;"/>
   </g>
   <g id="line2d_16">
    <path clip-path="url(#p70173831cc)" d="M 221.4 242.112592 
L 221.4 242.107784 
" style="fill:none;stroke:#3d3d3d;stroke-linecap:square;stroke-width:4.5;"/>
   </g>
   <g id="line2d_17">
    <path clip-path="url(#p70173831cc)" d="M 362.76 242.116088 
L 362.76 242.099305 
" style="fill:none;stroke:#3d3d3d;stroke-linecap:square;stroke-width:1.5;"/>
   </g>
   <g id="line2d_18">
    <path clip-path="url(#p70173831cc)" d="M 362.76 242.112758 
L 362.76 242.107155 
" style="fill:none;stroke:#3d3d3d;stroke-linecap:square;stroke-width:4.5;"/>
   </g>
   <g id="patch_6">
    <path d="M 54 252 
L 54 34.56 
" style="fill:none;stroke:#000000;stroke-linecap:square;stroke-linejoin:miter;stroke-width:0.8;"/>
   </g>
   <g id="patch_7">
    <path d="M 388.8 252 
L 388.8 34.56 
" style="fill:none;stroke:#000000;stroke-linecap:square;stroke-linejoin:miter;stroke-width:0.8;"/>
   </g>
   <g id="patch_8">
    <path d="M 54 252 
L 388.8 252 
" style="fill:none;stroke:#000000;stroke-linecap:square;stroke-linejoin:miter;stroke-width:0.8;"/>
   </g>
   <g id="patch_9">
    <path d="M 54 34.56 
L 388.8 34.56 
" style="fill:none;stroke:#000000;stroke-linecap:square;stroke-linejoin:miter;stroke-width:0.8;"/>
   </g>
   <g id="PathCollection_1">
    <defs>
     <path d="M 0 1.5 
C 0.397805 1.5 0.77937 1.341951 1.06066 1.06066 
C 1.341951 0.77937 1.5 0.397805 1.5 0 
C 1.5 -0.397805 1.341951 -0.77937 1.06066 -1.06066 
C 0.77937 -1.341951 0.397805 -1.5 0 -1.5 
C -0.397805 -1.5 -0.77937 -1.341951 -1.06066 -1.06066 
C -1.341951 -0.77937 -1.5 -0.397805 -1.5 0 
C -1.5 0.397805 -1.341951 0.77937 -1.06066 1.06066 
C -0.77937 1.341951 -0.397805 1.5 0 1.5 
z
" id="m57b76e44d0" style="stroke:#3d3d3d;"/>
    </defs>
    <g clip-path="url(#p70173831cc)">
     <use style="fill:#ffffff;stroke:#3d3d3d;" x="80.04" xlink:href="#m57b76e44d0" y="242.110329"/>
    </g>
   </g>
   <g id="PathCollection_2">
    <g clip-path="url(#p70173831cc)">
     <use style="fill:#ffffff;stroke:#3d3d3d;" x="221.4" xlink:href="#m57b76e44d0" y="242.110474"/>
    </g>
   </g>
   <g id="PathCollection_3">
    <g clip-path="url(#p70173831cc)">
     <use style="fill:#ffffff;stroke:#3d3d3d;" x="362.76" xlink:href="#m57b76e44d0" y="242.11051"/>
    </g>
   </g>
   <g id="legend_1">
    <g id="patch_10">
     <path d="M 326.525 101.2725 
L 381.8 101.2725 
Q 383.8 101.2725 383.8 99.2725 
L 383.8 41.56 
Q 383.8 39.56 381.8 39.56 
L 326.525 39.56 
Q 324.525 39.56 324.525 41.56 
L 324.525 99.2725 
Q 324.525 101.2725 326.525 101.2725 
z
" style="fill:#ffffff;opacity:0.8;stroke:#cccccc;stroke-linejoin:miter;"/>
    </g>
    <g id="text_15">
     <!-- set -->
     <g transform="translate(346.521094 51.158437)scale(0.1 -0.1)">
      <use xlink:href="#DejaVuSans-115"/>
      <use x="52.099609" xlink:href="#DejaVuSans-101"/>
      <use x="113.623047" xlink:href="#DejaVuSans-116"/>
     </g>
    </g>
    <g id="patch_11">
     <path d="M 328.525 65.836562 
L 348.525 65.836562 
L 348.525 58.836562 
L 328.525 58.836562 
z
" style="fill:#3274a1;stroke:#3d3d3d;stroke-linejoin:miter;stroke-width:0.75;"/>
    </g>
    <g id="text_16">
     <!-- train -->
     <g transform="translate(356.525 65.836562)scale(0.1 -0.1)">
      <use xlink:href="#DejaVuSans-116"/>
      <use x="39.208984" xlink:href="#DejaVuSans-114"/>
      <use x="80.322266" xlink:href="#DejaVuSans-97"/>
      <use x="141.601562" xlink:href="#DejaVuSans-105"/>
      <use x="169.384766" xlink:href="#DejaVuSans-110"/>
     </g>
    </g>
    <g id="patch_12">
     <path d="M 328.525 80.514687 
L 348.525 80.514687 
L 348.525 73.514687 
L 328.525 73.514687 
z
" style="fill:#e1812c;stroke:#3d3d3d;stroke-linejoin:miter;stroke-width:0.75;"/>
    </g>
    <g id="text_17">
     <!-- val -->
     <g transform="translate(356.525 80.514687)scale(0.1 -0.1)">
      <use xlink:href="#DejaVuSans-118"/>
      <use x="59.179688" xlink:href="#DejaVuSans-97"/>
      <use x="120.458984" xlink:href="#DejaVuSans-108"/>
     </g>
    </g>
    <g id="patch_13">
     <path d="M 328.525 95.192813 
L 348.525 95.192813 
L 348.525 88.192813 
L 328.525 88.192813 
z
" style="fill:#3a923a;stroke:#3d3d3d;stroke-linejoin:miter;stroke-width:0.75;"/>
    </g>
    <g id="text_18">
     <!-- test -->
     <g transform="translate(356.525 95.192813)scale(0.1 -0.1)">
      <use xlink:href="#DejaVuSans-116"/>
      <use x="39.208984" xlink:href="#DejaVuSans-101"/>
      <use x="100.732422" xlink:href="#DejaVuSans-115"/>
      <use x="152.832031" xlink:href="#DejaVuSans-116"/>
     </g>
    </g>
   </g>
  </g>
 </g>
 <defs>
  <clipPath id="p70173831cc">
   <rect height="217.44" width="334.8" x="54" y="34.56"/>
  </clipPath>
 </defs>
</svg>
