<?xml version="1.0" encoding="utf-8" standalone="no"?>
<!DOCTYPE svg PUBLIC "-//W3C//DTD SVG 1.1//EN"
  "http://www.w3.org/Graphics/SVG/1.1/DTD/svg11.dtd">
<!-- Created with matplotlib (https://matplotlib.org/) -->
<svg height="288pt" version="1.1" viewBox="0 0 432 288" width="432pt" xmlns="http://www.w3.org/2000/svg" xmlns:xlink="http://www.w3.org/1999/xlink">
 <metadata>
  <rdf:RDF xmlns:cc="http://creativecommons.org/ns#" xmlns:dc="http://purl.org/dc/elements/1.1/" xmlns:rdf="http://www.w3.org/1999/02/22-rdf-syntax-ns#">
   <cc:Work>
    <dc:type rdf:resource="http://purl.org/dc/dcmitype/StillImage"/>
    <dc:date>2021-07-10T00:30:54.934573</dc:date>
    <dc:format>image/svg+xml</dc:format>
    <dc:creator>
     <cc:Agent>
      <dc:title>Matplotlib v3.3.4, https://matplotlib.org/</dc:title>
     </cc:Agent>
    </dc:creator>
   </cc:Work>
  </rdf:RDF>
 </metadata>
 <defs>
  <style type="text/css">*{stroke-linecap:butt;stroke-linejoin:round;}</style>
 </defs>
 <g id="figure_1">
  <g id="patch_1">
   <path d="M 0 288 
L 432 288 
L 432 0 
L 0 0 
z
" style="fill:#ffffff;"/>
  </g>
  <g id="axes_1">
   <g id="patch_2">
    <path d="M 54 252 
L 388.8 252 
L 388.8 34.56 
L 54 34.56 
z
" style="fill:#ffffff;"/>
   </g>
   <g id="PolyCollection_1">
    <defs>
     <path d="M 80.064606 -52.118795 
L 80.015394 -52.118795 
L 80.015358 -53.86325 
L 80.01616 -55.607705 
L 80.015632 -57.35216 
L 80.011408 -59.096616 
L 80.001572 -60.841071 
L 79.984701 -62.585526 
L 79.959316 -64.329981 
L 79.923288 -66.074437 
L 79.873918 -67.818892 
L 79.808901 -69.563347 
L 79.727521 -71.307803 
L 79.630923 -73.052258 
L 79.520962 -74.796713 
L 79.398278 -76.541168 
L 79.260934 -78.285624 
L 79.104368 -80.030079 
L 78.922002 -81.774534 
L 78.705084 -83.518989 
L 78.441342 -85.263445 
L 78.114448 -87.0079 
L 77.707679 -88.752355 
L 77.212548 -90.49681 
L 76.637711 -92.241266 
L 76.010461 -93.985721 
L 75.367023 -95.730176 
L 74.736262 -97.474632 
L 74.126739 -99.219087 
L 73.524928 -100.963542 
L 72.904892 -102.707997 
L 72.242763 -104.452453 
L 71.527454 -106.196908 
L 70.76288 -107.941363 
L 69.963471 -109.685818 
L 69.148607 -111.430274 
L 68.340132 -113.174729 
L 67.562714 -114.919184 
L 66.844395 -116.663639 
L 66.215704 -118.408095 
L 65.707723 -120.15255 
L 65.349562 -121.897005 
L 65.164015 -123.641461 
L 65.16 -125.385916 
L 65.323603 -127.130371 
L 65.614066 -128.874826 
L 65.971429 -130.619282 
L 66.336144 -132.363737 
L 66.671667 -134.108192 
L 66.977035 -135.852647 
L 67.282081 -137.597103 
L 67.628738 -139.341558 
L 68.049519 -141.086013 
L 68.55368 -142.830468 
L 69.12472 -144.574924 
L 69.72594 -146.319379 
L 70.309151 -148.063834 
L 70.824911 -149.80829 
L 71.23519 -151.552745 
L 71.526723 -153.2972 
L 71.718642 -155.041655 
L 71.857878 -156.786111 
L 72.002513 -158.530566 
L 72.201176 -160.275021 
L 72.478839 -162.019476 
L 72.834575 -163.763932 
L 73.249668 -165.508387 
L 73.700051 -167.252842 
L 74.166831 -168.997297 
L 74.64088 -170.741753 
L 75.120571 -172.486208 
L 75.605205 -174.230663 
L 76.088914 -175.975119 
L 76.559069 -177.719574 
L 76.999623 -179.464029 
L 77.396488 -181.208484 
L 77.741712 -182.95294 
L 78.035174 -184.697395 
L 78.283953 -186.44185 
L 78.499704 -188.186305 
L 78.694439 -189.930761 
L 78.876164 -191.675216 
L 79.046527 -193.419671 
L 79.201794 -195.164126 
L 79.336435 -196.908582 
L 79.447139 -198.653037 
L 79.535085 -200.397492 
L 79.605596 -202.141948 
L 79.665803 -203.886403 
L 79.721833 -205.630858 
L 79.776871 -207.375313 
L 79.830698 -209.119769 
L 79.880474 -210.864224 
L 79.922197 -212.608679 
L 79.952368 -214.353134 
L 79.969498 -216.09759 
L 79.975028 -217.842045 
L 79.973209 -219.5865 
L 79.969758 -221.330955 
L 79.969722 -223.075411 
L 79.975629 -224.819866 
L 80.104371 -224.819866 
L 80.104371 -224.819866 
L 80.110278 -223.075411 
L 80.110242 -221.330955 
L 80.106791 -219.5865 
L 80.104972 -217.842045 
L 80.110502 -216.09759 
L 80.127632 -214.353134 
L 80.157803 -212.608679 
L 80.199526 -210.864224 
L 80.249302 -209.119769 
L 80.303129 -207.375313 
L 80.358167 -205.630858 
L 80.414197 -203.886403 
L 80.474404 -202.141948 
L 80.544915 -200.397492 
L 80.632861 -198.653037 
L 80.743565 -196.908582 
L 80.878206 -195.164126 
L 81.033473 -193.419671 
L 81.203836 -191.675216 
L 81.385561 -189.930761 
L 81.580296 -188.186305 
L 81.796047 -186.44185 
L 82.044826 -184.697395 
L 82.338288 -182.95294 
L 82.683512 -181.208484 
L 83.080377 -179.464029 
L 83.520931 -177.719574 
L 83.991086 -175.975119 
L 84.474795 -174.230663 
L 84.959429 -172.486208 
L 85.43912 -170.741753 
L 85.913169 -168.997297 
L 86.379949 -167.252842 
L 86.830332 -165.508387 
L 87.245425 -163.763932 
L 87.601161 -162.019476 
L 87.878824 -160.275021 
L 88.077487 -158.530566 
L 88.222122 -156.786111 
L 88.361358 -155.041655 
L 88.553277 -153.2972 
L 88.84481 -151.552745 
L 89.255089 -149.80829 
L 89.770849 -148.063834 
L 90.35406 -146.319379 
L 90.95528 -144.574924 
L 91.52632 -142.830468 
L 92.030481 -141.086013 
L 92.451262 -139.341558 
L 92.797919 -137.597103 
L 93.102965 -135.852647 
L 93.408333 -134.108192 
L 93.743856 -132.363737 
L 94.108571 -130.619282 
L 94.465934 -128.874826 
L 94.756397 -127.130371 
L 94.92 -125.385916 
L 94.915985 -123.641461 
L 94.730438 -121.897005 
L 94.372277 -120.15255 
L 93.864296 -118.408095 
L 93.235605 -116.663639 
L 92.517286 -114.919184 
L 91.739868 -113.174729 
L 90.931393 -111.430274 
L 90.116529 -109.685818 
L 89.31712 -107.941363 
L 88.552546 -106.196908 
L 87.837237 -104.452453 
L 87.175108 -102.707997 
L 86.555072 -100.963542 
L 85.953261 -99.219087 
L 85.343738 -97.474632 
L 84.712977 -95.730176 
L 84.069539 -93.985721 
L 83.442289 -92.241266 
L 82.867452 -90.49681 
L 82.372321 -88.752355 
L 81.965552 -87.0079 
L 81.638658 -85.263445 
L 81.374916 -83.518989 
L 81.157998 -81.774534 
L 80.975632 -80.030079 
L 80.819066 -78.285624 
L 80.681722 -76.541168 
L 80.559038 -74.796713 
L 80.449077 -73.052258 
L 80.352479 -71.307803 
L 80.271099 -69.563347 
L 80.206082 -67.818892 
L 80.156712 -66.074437 
L 80.120684 -64.329981 
L 80.095299 -62.585526 
L 80.078428 -60.841071 
L 80.068592 -59.096616 
L 80.064368 -57.35216 
L 80.06384 -55.607705 
L 80.064642 -53.86325 
L 80.064606 -52.118795 
z
" id="mb001e7fac3" style="stroke:#3d3d3d;stroke-width:1.5;"/>
    </defs>
    <g clip-path="url(#pb94b35f7f4)">
     <use style="fill:#3274a1;stroke:#3d3d3d;stroke-width:1.5;" x="0" xlink:href="#mb001e7fac3" y="288"/>
    </g>
   </g>
   <g id="PolyCollection_2">
    <defs>
     <path d="M 221.465649 -45.883636 
L 221.334351 -45.883636 
L 221.321524 -47.880331 
L 221.30503 -49.877025 
L 221.281329 -51.873719 
L 221.247049 -53.870413 
L 221.20026 -55.867107 
L 221.141108 -57.863802 
L 221.071372 -59.860496 
L 220.993005 -61.85719 
L 220.906362 -63.853884 
L 220.809065 -65.850579 
L 220.696145 -67.847273 
L 220.56133 -69.843967 
L 220.398567 -71.840661 
L 220.202864 -73.837355 
L 219.970243 -75.83405 
L 219.697541 -77.830744 
L 219.382804 -79.827438 
L 219.026116 -81.824132 
L 218.629766 -83.820826 
L 218.19682 -85.817521 
L 217.728558 -87.814215 
L 217.222449 -89.810909 
L 216.672221 -91.807603 
L 216.070184 -93.804298 
L 215.410559 -95.800992 
L 214.69228 -97.797686 
L 213.920439 -99.79438 
L 213.106525 -101.791074 
L 212.268018 -103.787769 
L 211.427671 -105.784463 
L 210.612058 -107.781157 
L 209.848533 -109.777851 
L 209.160402 -111.774545 
L 208.561931 -113.77124 
L 208.05609 -115.767934 
L 207.637011 -117.764628 
L 207.295802 -119.761322 
L 207.02554 -121.758017 
L 206.821813 -123.754711 
L 206.679229 -125.751405 
L 206.588369 -127.748099 
L 206.537634 -129.744793 
L 206.52 -131.741488 
L 206.539695 -133.738182 
L 206.612845 -135.734876 
L 206.760388 -137.73157 
L 206.997298 -139.728264 
L 207.324638 -141.724959 
L 207.728316 -143.721653 
L 208.183543 -145.718347 
L 208.661151 -147.715041 
L 209.132752 -149.711736 
L 209.574313 -151.70843 
L 209.969034 -153.705124 
L 210.309637 -155.701818 
L 210.598902 -157.698512 
L 210.847223 -159.695207 
L 211.067602 -161.691901 
L 211.270317 -163.688595 
L 211.460128 -165.685289 
L 211.637557 -167.681983 
L 211.80332 -169.678678 
L 211.963076 -171.675372 
L 212.129535 -173.672066 
L 212.320721 -175.66876 
L 212.555527 -177.665455 
L 212.848796 -179.662149 
L 213.207635 -181.658843 
L 213.629389 -183.655537 
L 214.101071 -185.652231 
L 214.600444 -187.648926 
L 215.099417 -189.64562 
L 215.569979 -191.642314 
L 215.991533 -193.639008 
L 216.357163 -195.635702 
L 216.676031 -197.632397 
L 216.970292 -199.629091 
L 217.267125 -201.625785 
L 217.588895 -203.622479 
L 217.945583 -205.619174 
L 218.332672 -207.615868 
L 218.734832 -209.612562 
L 219.132838 -211.609256 
L 219.50989 -213.60595 
L 219.854731 -215.602645 
L 220.161318 -217.599339 
L 220.426804 -219.596033 
L 220.649835 -221.592727 
L 220.830217 -223.589421 
L 220.969656 -225.586116 
L 221.07253 -227.58281 
L 221.14577 -229.579504 
L 221.197603 -231.576198 
L 221.235729 -233.572893 
L 221.265838 -235.569587 
L 221.291133 -237.566281 
L 221.312885 -239.562975 
L 221.331433 -241.559669 
L 221.346988 -243.556364 
L 221.453012 -243.556364 
L 221.453012 -243.556364 
L 221.468567 -241.559669 
L 221.487115 -239.562975 
L 221.508867 -237.566281 
L 221.534162 -235.569587 
L 221.564271 -233.572893 
L 221.602397 -231.576198 
L 221.65423 -229.579504 
L 221.72747 -227.58281 
L 221.830344 -225.586116 
L 221.969783 -223.589421 
L 222.150165 -221.592727 
L 222.373196 -219.596033 
L 222.638682 -217.599339 
L 222.945269 -215.602645 
L 223.29011 -213.60595 
L 223.667162 -211.609256 
L 224.065168 -209.612562 
L 224.467328 -207.615868 
L 224.854417 -205.619174 
L 225.211105 -203.622479 
L 225.532875 -201.625785 
L 225.829708 -199.629091 
L 226.123969 -197.632397 
L 226.442837 -195.635702 
L 226.808467 -193.639008 
L 227.230021 -191.642314 
L 227.700583 -189.64562 
L 228.199556 -187.648926 
L 228.698929 -185.652231 
L 229.170611 -183.655537 
L 229.592365 -181.658843 
L 229.951204 -179.662149 
L 230.244473 -177.665455 
L 230.479279 -175.66876 
L 230.670465 -173.672066 
L 230.836924 -171.675372 
L 230.99668 -169.678678 
L 231.162443 -167.681983 
L 231.339872 -165.685289 
L 231.529683 -163.688595 
L 231.732398 -161.691901 
L 231.952777 -159.695207 
L 232.201098 -157.698512 
L 232.490363 -155.701818 
L 232.830966 -153.705124 
L 233.225687 -151.70843 
L 233.667248 -149.711736 
L 234.138849 -147.715041 
L 234.616457 -145.718347 
L 235.071684 -143.721653 
L 235.475362 -141.724959 
L 235.802702 -139.728264 
L 236.039612 -137.73157 
L 236.187155 -135.734876 
L 236.260305 -133.738182 
L 236.28 -131.741488 
L 236.262366 -129.744793 
L 236.211631 -127.748099 
L 236.120771 -125.751405 
L 235.978187 -123.754711 
L 235.77446 -121.758017 
L 235.504198 -119.761322 
L 235.162989 -117.764628 
L 234.74391 -115.767934 
L 234.238069 -113.77124 
L 233.639598 -111.774545 
L 232.951467 -109.777851 
L 232.187942 -107.781157 
L 231.372329 -105.784463 
L 230.531982 -103.787769 
L 229.693475 -101.791074 
L 228.879561 -99.79438 
L 228.10772 -97.797686 
L 227.389441 -95.800992 
L 226.729816 -93.804298 
L 226.127779 -91.807603 
L 225.577551 -89.810909 
L 225.071442 -87.814215 
L 224.60318 -85.817521 
L 224.170234 -83.820826 
L 223.773884 -81.824132 
L 223.417196 -79.827438 
L 223.102459 -77.830744 
L 222.829757 -75.83405 
L 222.597136 -73.837355 
L 222.401433 -71.840661 
L 222.23867 -69.843967 
L 222.103855 -67.847273 
L 221.990935 -65.850579 
L 221.893638 -63.853884 
L 221.806995 -61.85719 
L 221.728628 -59.860496 
L 221.658892 -57.863802 
L 221.59974 -55.867107 
L 221.552951 -53.870413 
L 221.518671 -51.873719 
L 221.49497 -49.877025 
L 221.478476 -47.880331 
L 221.465649 -45.883636 
z
" id="maaaf65df86" style="stroke:#3d3d3d;stroke-width:1.5;"/>
    </defs>
    <g clip-path="url(#pb94b35f7f4)">
     <use style="fill:#e1812c;stroke:#3d3d3d;stroke-width:1.5;" x="0" xlink:href="#maaaf65df86" y="288"/>
    </g>
   </g>
   <g id="PolyCollection_3">
    <defs>
     <path d="M 362.800289 -77.581199 
L 362.719711 -77.581199 
L 362.713524 -78.827267 
L 362.708174 -80.073335 
L 362.702285 -81.319403 
L 362.693984 -82.565471 
L 362.68185 -83.811539 
L 362.665798 -85.057607 
L 362.647218 -86.303675 
L 362.628109 -87.549743 
L 362.60977 -88.795811 
L 362.592064 -90.041879 
L 362.573705 -91.287947 
L 362.552957 -92.534015 
L 362.527718 -93.780083 
L 362.494813 -95.026151 
L 362.4493 -96.272219 
L 362.384759 -97.518287 
L 362.294628 -98.764355 
L 362.17383 -100.010423 
L 362.019938 -101.256491 
L 361.833668 -102.502559 
L 361.618879 -103.748627 
L 361.382281 -104.994695 
L 361.132641 -106.240763 
L 360.878889 -107.486831 
L 360.626647 -108.732899 
L 360.374003 -109.978967 
L 360.109113 -111.225035 
L 359.812427 -112.471103 
L 359.463775 -113.717171 
L 359.050843 -114.963239 
L 358.574258 -116.209307 
L 358.046756 -117.455375 
L 357.487644 -118.701443 
L 356.915904 -119.947511 
L 356.345022 -121.193579 
L 355.780913 -122.439647 
L 355.22275 -123.685715 
L 354.665884 -124.931783 
L 354.106365 -126.177851 
L 353.546093 -127.423919 
L 352.995813 -128.669987 
L 352.472392 -129.916055 
L 351.990083 -131.162123 
L 351.551233 -132.408191 
L 351.144164 -133.654259 
L 350.751127 -134.900327 
L 350.361089 -136.146395 
L 349.977626 -137.392463 
L 349.61536 -138.638531 
L 349.287053 -139.884599 
L 348.991673 -141.130667 
L 348.714763 -142.376735 
L 348.443568 -143.622803 
L 348.186518 -144.868871 
L 347.980833 -146.114939 
L 347.88 -147.361007 
L 347.928343 -148.607075 
L 348.139309 -149.853143 
L 348.489985 -151.099211 
L 348.932325 -152.345279 
L 349.412438 -153.591347 
L 349.887889 -154.837415 
L 350.336602 -156.083483 
L 350.756102 -157.329551 
L 351.156938 -158.575619 
L 351.556651 -159.821686 
L 351.977821 -161.067754 
L 352.447114 -162.313822 
L 352.989202 -163.55989 
L 353.6147 -164.805958 
L 354.309994 -166.052026 
L 355.038991 -167.298094 
L 355.758691 -168.544162 
L 356.438977 -169.79023 
L 357.073112 -171.036298 
L 357.672474 -172.282366 
L 358.250648 -173.528434 
L 358.808733 -174.774502 
L 359.331369 -176.02057 
L 359.794723 -177.266638 
L 360.180057 -178.512706 
L 360.484185 -179.758774 
L 360.721312 -181.004842 
L 360.916434 -182.25091 
L 361.094928 -183.496978 
L 361.273883 -184.743046 
L 361.458581 -185.989114 
L 361.644228 -187.235182 
L 361.820818 -188.48125 
L 361.978526 -189.727318 
L 362.111603 -190.973386 
L 362.219741 -192.219454 
L 362.306881 -193.465522 
L 362.378546 -194.71159 
L 362.439412 -195.957658 
L 362.492408 -197.203726 
L 362.539284 -198.449794 
L 362.581464 -199.695862 
L 362.620116 -200.94193 
L 362.899884 -200.94193 
L 362.899884 -200.94193 
L 362.938536 -199.695862 
L 362.980716 -198.449794 
L 363.027592 -197.203726 
L 363.080588 -195.957658 
L 363.141454 -194.71159 
L 363.213119 -193.465522 
L 363.300259 -192.219454 
L 363.408397 -190.973386 
L 363.541474 -189.727318 
L 363.699182 -188.48125 
L 363.875772 -187.235182 
L 364.061419 -185.989114 
L 364.246117 -184.743046 
L 364.425072 -183.496978 
L 364.603566 -182.25091 
L 364.798688 -181.004842 
L 365.035815 -179.758774 
L 365.339943 -178.512706 
L 365.725277 -177.266638 
L 366.188631 -176.02057 
L 366.711267 -174.774502 
L 367.269352 -173.528434 
L 367.847526 -172.282366 
L 368.446888 -171.036298 
L 369.081023 -169.79023 
L 369.761309 -168.544162 
L 370.481009 -167.298094 
L 371.210006 -166.052026 
L 371.9053 -164.805958 
L 372.530798 -163.55989 
L 373.072886 -162.313822 
L 373.542179 -161.067754 
L 373.963349 -159.821686 
L 374.363062 -158.575619 
L 374.763898 -157.329551 
L 375.183398 -156.083483 
L 375.632111 -154.837415 
L 376.107562 -153.591347 
L 376.587675 -152.345279 
L 377.030015 -151.099211 
L 377.380691 -149.853143 
L 377.591657 -148.607075 
L 377.64 -147.361007 
L 377.539167 -146.114939 
L 377.333482 -144.868871 
L 377.076432 -143.622803 
L 376.805237 -142.376735 
L 376.528327 -141.130667 
L 376.232947 -139.884599 
L 375.90464 -138.638531 
L 375.542374 -137.392463 
L 375.158911 -136.146395 
L 374.768873 -134.900327 
L 374.375836 -133.654259 
L 373.968767 -132.408191 
L 373.529917 -131.162123 
L 373.047608 -129.916055 
L 372.524187 -128.669987 
L 371.973907 -127.423919 
L 371.413635 -126.177851 
L 370.854116 -124.931783 
L 370.29725 -123.685715 
L 369.739087 -122.439647 
L 369.174978 -121.193579 
L 368.604096 -119.947511 
L 368.032356 -118.701443 
L 367.473244 -117.455375 
L 366.945742 -116.209307 
L 366.469157 -114.963239 
L 366.056225 -113.717171 
L 365.707573 -112.471103 
L 365.410887 -111.225035 
L 365.145997 -109.978967 
L 364.893353 -108.732899 
L 364.641111 -107.486831 
L 364.387359 -106.240763 
L 364.137719 -104.994695 
L 363.901121 -103.748627 
L 363.686332 -102.502559 
L 363.500062 -101.256491 
L 363.34617 -100.010423 
L 363.225372 -98.764355 
L 363.135241 -97.518287 
L 363.0707 -96.272219 
L 363.025187 -95.026151 
L 362.992282 -93.780083 
L 362.967043 -92.534015 
L 362.946295 -91.287947 
L 362.927936 -90.041879 
L 362.91023 -88.795811 
L 362.891891 -87.549743 
L 362.872782 -86.303675 
L 362.854202 -85.057607 
L 362.83815 -83.811539 
L 362.826016 -82.565471 
L 362.817715 -81.319403 
L 362.811826 -80.073335 
L 362.806476 -78.827267 
L 362.800289 -77.581199 
z
" id="m9b13d81193" style="stroke:#3d3d3d;stroke-width:1.5;"/>
    </defs>
    <g clip-path="url(#pb94b35f7f4)">
     <use style="fill:#3a923a;stroke:#3d3d3d;stroke-width:1.5;" x="0" xlink:href="#m9b13d81193" y="288"/>
    </g>
   </g>
   <g id="patch_3">
    <path clip-path="url(#pb94b35f7f4)" d="M 109.8 190.244329 
L 109.8 190.244329 
L 109.8 190.244329 
L 109.8 190.244329 
z
" style="fill:#3274a1;stroke:#3d3d3d;stroke-linejoin:miter;stroke-width:0.75;"/>
   </g>
   <g id="patch_4">
    <path clip-path="url(#pb94b35f7f4)" d="M 109.8 190.244329 
L 109.8 190.244329 
L 109.8 190.244329 
L 109.8 190.244329 
z
" style="fill:#e1812c;stroke:#3d3d3d;stroke-linejoin:miter;stroke-width:0.75;"/>
   </g>
   <g id="patch_5">
    <path clip-path="url(#pb94b35f7f4)" d="M 109.8 190.244329 
L 109.8 190.244329 
L 109.8 190.244329 
L 109.8 190.244329 
z
" style="fill:#3a923a;stroke:#3d3d3d;stroke-linejoin:miter;stroke-width:0.75;"/>
   </g>
   <g id="matplotlib.axis_1">
    <g id="xtick_1">
     <g id="line2d_1">
      <defs>
       <path d="M 0 0 
L 0 3.5 
" id="m4765945ecf" style="stroke:#000000;stroke-width:0.8;"/>
      </defs>
      <g>
       <use style="stroke:#000000;stroke-width:0.8;" x="109.8" xlink:href="#m4765945ecf" y="252"/>
      </g>
     </g>
     <g id="text_1">
      <!-- Z_1_ns -->
      <g transform="translate(92.420312 266.320312)scale(0.1 -0.1)">
       <defs>
        <path d="M 5.609375 72.90625 
L 62.890625 72.90625 
L 62.890625 65.375 
L 16.796875 8.296875 
L 64.015625 8.296875 
L 64.015625 0 
L 4.5 0 
L 4.5 7.515625 
L 50.59375 64.59375 
L 5.609375 64.59375 
z
" id="DejaVuSans-90"/>
        <path d="M 50.984375 -16.609375 
L 50.984375 -23.578125 
L -0.984375 -23.578125 
L -0.984375 -16.609375 
z
" id="DejaVuSans-95"/>
        <path d="M 12.40625 8.296875 
L 28.515625 8.296875 
L 28.515625 63.921875 
L 10.984375 60.40625 
L 10.984375 69.390625 
L 28.421875 72.90625 
L 38.28125 72.90625 
L 38.28125 8.296875 
L 54.390625 8.296875 
L 54.390625 0 
L 12.40625 0 
z
" id="DejaVuSans-49"/>
        <path d="M 54.890625 33.015625 
L 54.890625 0 
L 45.90625 0 
L 45.90625 32.71875 
Q 45.90625 40.484375 42.875 44.328125 
Q 39.84375 48.1875 33.796875 48.1875 
Q 26.515625 48.1875 22.3125 43.546875 
Q 18.109375 38.921875 18.109375 30.90625 
L 18.109375 0 
L 9.078125 0 
L 9.078125 54.6875 
L 18.109375 54.6875 
L 18.109375 46.1875 
Q 21.34375 51.125 25.703125 53.5625 
Q 30.078125 56 35.796875 56 
Q 45.21875 56 50.046875 50.171875 
Q 54.890625 44.34375 54.890625 33.015625 
z
" id="DejaVuSans-110"/>
        <path d="M 44.28125 53.078125 
L 44.28125 44.578125 
Q 40.484375 46.53125 36.375 47.5 
Q 32.28125 48.484375 27.875 48.484375 
Q 21.1875 48.484375 17.84375 46.4375 
Q 14.5 44.390625 14.5 40.28125 
Q 14.5 37.15625 16.890625 35.375 
Q 19.28125 33.59375 26.515625 31.984375 
L 29.59375 31.296875 
Q 39.15625 29.25 43.1875 25.515625 
Q 47.21875 21.78125 47.21875 15.09375 
Q 47.21875 7.46875 41.1875 3.015625 
Q 35.15625 -1.421875 24.609375 -1.421875 
Q 20.21875 -1.421875 15.453125 -0.5625 
Q 10.6875 0.296875 5.421875 2 
L 5.421875 11.28125 
Q 10.40625 8.6875 15.234375 7.390625 
Q 20.0625 6.109375 24.8125 6.109375 
Q 31.15625 6.109375 34.5625 8.28125 
Q 37.984375 10.453125 37.984375 14.40625 
Q 37.984375 18.0625 35.515625 20.015625 
Q 33.0625 21.96875 24.703125 23.78125 
L 21.578125 24.515625 
Q 13.234375 26.265625 9.515625 29.90625 
Q 5.8125 33.546875 5.8125 39.890625 
Q 5.8125 47.609375 11.28125 51.796875 
Q 16.75 56 26.8125 56 
Q 31.78125 56 36.171875 55.265625 
Q 40.578125 54.546875 44.28125 53.078125 
z
" id="DejaVuSans-115"/>
       </defs>
       <use xlink:href="#DejaVuSans-90"/>
       <use x="68.505859" xlink:href="#DejaVuSans-95"/>
       <use x="118.505859" xlink:href="#DejaVuSans-49"/>
       <use x="182.128906" xlink:href="#DejaVuSans-95"/>
       <use x="232.128906" xlink:href="#DejaVuSans-110"/>
       <use x="295.507812" xlink:href="#DejaVuSans-115"/>
      </g>
     </g>
    </g>
    <g id="xtick_2">
     <g id="line2d_2">
      <g>
       <use style="stroke:#000000;stroke-width:0.8;" x="221.4" xlink:href="#m4765945ecf" y="252"/>
      </g>
     </g>
     <g id="text_2">
      <!-- Z_2_ns -->
      <g transform="translate(204.020312 266.421875)scale(0.1 -0.1)">
       <defs>
        <path d="M 19.1875 8.296875 
L 53.609375 8.296875 
L 53.609375 0 
L 7.328125 0 
L 7.328125 8.296875 
Q 12.9375 14.109375 22.625 23.890625 
Q 32.328125 33.6875 34.8125 36.53125 
Q 39.546875 41.84375 41.421875 45.53125 
Q 43.3125 49.21875 43.3125 52.78125 
Q 43.3125 58.59375 39.234375 62.25 
Q 35.15625 65.921875 28.609375 65.921875 
Q 23.96875 65.921875 18.8125 64.3125 
Q 13.671875 62.703125 7.8125 59.421875 
L 7.8125 69.390625 
Q 13.765625 71.78125 18.9375 73 
Q 24.125 74.21875 28.421875 74.21875 
Q 39.75 74.21875 46.484375 68.546875 
Q 53.21875 62.890625 53.21875 53.421875 
Q 53.21875 48.921875 51.53125 44.890625 
Q 49.859375 40.875 45.40625 35.40625 
Q 44.1875 33.984375 37.640625 27.21875 
Q 31.109375 20.453125 19.1875 8.296875 
z
" id="DejaVuSans-50"/>
       </defs>
       <use xlink:href="#DejaVuSans-90"/>
       <use x="68.505859" xlink:href="#DejaVuSans-95"/>
       <use x="118.505859" xlink:href="#DejaVuSans-50"/>
       <use x="182.128906" xlink:href="#DejaVuSans-95"/>
       <use x="232.128906" xlink:href="#DejaVuSans-110"/>
       <use x="295.507812" xlink:href="#DejaVuSans-115"/>
      </g>
     </g>
    </g>
    <g id="xtick_3">
     <g id="line2d_3">
      <g>
       <use style="stroke:#000000;stroke-width:0.8;" x="333" xlink:href="#m4765945ecf" y="252"/>
      </g>
     </g>
     <g id="text_3">
      <!-- Z_3_ns -->
      <g transform="translate(315.620313 266.421875)scale(0.1 -0.1)">
       <defs>
        <path d="M 40.578125 39.3125 
Q 47.65625 37.796875 51.625 33 
Q 55.609375 28.21875 55.609375 21.1875 
Q 55.609375 10.40625 48.1875 4.484375 
Q 40.765625 -1.421875 27.09375 -1.421875 
Q 22.515625 -1.421875 17.65625 -0.515625 
Q 12.796875 0.390625 7.625 2.203125 
L 7.625 11.71875 
Q 11.71875 9.328125 16.59375 8.109375 
Q 21.484375 6.890625 26.8125 6.890625 
Q 36.078125 6.890625 40.9375 10.546875 
Q 45.796875 14.203125 45.796875 21.1875 
Q 45.796875 27.640625 41.28125 31.265625 
Q 36.765625 34.90625 28.71875 34.90625 
L 20.21875 34.90625 
L 20.21875 43.015625 
L 29.109375 43.015625 
Q 36.375 43.015625 40.234375 45.921875 
Q 44.09375 48.828125 44.09375 54.296875 
Q 44.09375 59.90625 40.109375 62.90625 
Q 36.140625 65.921875 28.71875 65.921875 
Q 24.65625 65.921875 20.015625 65.03125 
Q 15.375 64.15625 9.8125 62.3125 
L 9.8125 71.09375 
Q 15.4375 72.65625 20.34375 73.4375 
Q 25.25 74.21875 29.59375 74.21875 
Q 40.828125 74.21875 47.359375 69.109375 
Q 53.90625 64.015625 53.90625 55.328125 
Q 53.90625 49.265625 50.4375 45.09375 
Q 46.96875 40.921875 40.578125 39.3125 
z
" id="DejaVuSans-51"/>
       </defs>
       <use xlink:href="#DejaVuSans-90"/>
       <use x="68.505859" xlink:href="#DejaVuSans-95"/>
       <use x="118.505859" xlink:href="#DejaVuSans-51"/>
       <use x="182.128906" xlink:href="#DejaVuSans-95"/>
       <use x="232.128906" xlink:href="#DejaVuSans-110"/>
       <use x="295.507812" xlink:href="#DejaVuSans-115"/>
      </g>
     </g>
    </g>
    <g id="text_4">
     <!-- set -->
     <g transform="translate(213.758594 280.378125)scale(0.1 -0.1)">
      <defs>
       <path d="M 56.203125 29.59375 
L 56.203125 25.203125 
L 14.890625 25.203125 
Q 15.484375 15.921875 20.484375 11.0625 
Q 25.484375 6.203125 34.421875 6.203125 
Q 39.59375 6.203125 44.453125 7.46875 
Q 49.3125 8.734375 54.109375 11.28125 
L 54.109375 2.78125 
Q 49.265625 0.734375 44.1875 -0.34375 
Q 39.109375 -1.421875 33.890625 -1.421875 
Q 20.796875 -1.421875 13.15625 6.1875 
Q 5.515625 13.8125 5.515625 26.8125 
Q 5.515625 40.234375 12.765625 48.109375 
Q 20.015625 56 32.328125 56 
Q 43.359375 56 49.78125 48.890625 
Q 56.203125 41.796875 56.203125 29.59375 
z
M 47.21875 32.234375 
Q 47.125 39.59375 43.09375 43.984375 
Q 39.0625 48.390625 32.421875 48.390625 
Q 24.90625 48.390625 20.390625 44.140625 
Q 15.875 39.890625 15.1875 32.171875 
z
" id="DejaVuSans-101"/>
       <path d="M 18.3125 70.21875 
L 18.3125 54.6875 
L 36.8125 54.6875 
L 36.8125 47.703125 
L 18.3125 47.703125 
L 18.3125 18.015625 
Q 18.3125 11.328125 20.140625 9.421875 
Q 21.96875 7.515625 27.59375 7.515625 
L 36.8125 7.515625 
L 36.8125 0 
L 27.59375 0 
Q 17.1875 0 13.234375 3.875 
Q 9.28125 7.765625 9.28125 18.015625 
L 9.28125 47.703125 
L 2.6875 47.703125 
L 2.6875 54.6875 
L 9.28125 54.6875 
L 9.28125 70.21875 
z
" id="DejaVuSans-116"/>
      </defs>
      <use xlink:href="#DejaVuSans-115"/>
      <use x="52.099609" xlink:href="#DejaVuSans-101"/>
      <use x="113.623047" xlink:href="#DejaVuSans-116"/>
     </g>
    </g>
   </g>
   <g id="matplotlib.axis_2">
    <g id="ytick_1">
     <g id="line2d_4">
      <defs>
       <path d="M 0 0 
L -3.5 0 
" id="me787f7a4fb" style="stroke:#000000;stroke-width:0.8;"/>
      </defs>
      <g>
       <use style="stroke:#000000;stroke-width:0.8;" x="54" xlink:href="#me787f7a4fb" y="221.391426"/>
      </g>
     </g>
     <g id="text_5">
      <!-- −5 -->
      <g transform="translate(32.257812 225.190645)scale(0.1 -0.1)">
       <defs>
        <path d="M 10.59375 35.5 
L 73.1875 35.5 
L 73.1875 27.203125 
L 10.59375 27.203125 
z
" id="DejaVuSans-8722"/>
        <path d="M 10.796875 72.90625 
L 49.515625 72.90625 
L 49.515625 64.59375 
L 19.828125 64.59375 
L 19.828125 46.734375 
Q 21.96875 47.46875 24.109375 47.828125 
Q 26.265625 48.1875 28.421875 48.1875 
Q 40.625 48.1875 47.75 41.5 
Q 54.890625 34.8125 54.890625 23.390625 
Q 54.890625 11.625 47.5625 5.09375 
Q 40.234375 -1.421875 26.90625 -1.421875 
Q 22.3125 -1.421875 17.546875 -0.640625 
Q 12.796875 0.140625 7.71875 1.703125 
L 7.71875 11.625 
Q 12.109375 9.234375 16.796875 8.0625 
Q 21.484375 6.890625 26.703125 6.890625 
Q 35.15625 6.890625 40.078125 11.328125 
Q 45.015625 15.765625 45.015625 23.390625 
Q 45.015625 31 40.078125 35.4375 
Q 35.15625 39.890625 26.703125 39.890625 
Q 22.75 39.890625 18.8125 39.015625 
Q 14.890625 38.140625 10.796875 36.28125 
z
" id="DejaVuSans-53"/>
       </defs>
       <use xlink:href="#DejaVuSans-8722"/>
       <use x="83.789062" xlink:href="#DejaVuSans-53"/>
      </g>
     </g>
    </g>
    <g id="ytick_2">
     <g id="line2d_5">
      <g>
       <use style="stroke:#000000;stroke-width:0.8;" x="54" xlink:href="#me787f7a4fb" y="190.244329"/>
      </g>
     </g>
     <g id="text_6">
      <!-- 0 -->
      <g transform="translate(40.6375 194.043548)scale(0.1 -0.1)">
       <defs>
        <path d="M 31.78125 66.40625 
Q 24.171875 66.40625 20.328125 58.90625 
Q 16.5 51.421875 16.5 36.375 
Q 16.5 21.390625 20.328125 13.890625 
Q 24.171875 6.390625 31.78125 6.390625 
Q 39.453125 6.390625 43.28125 13.890625 
Q 47.125 21.390625 47.125 36.375 
Q 47.125 51.421875 43.28125 58.90625 
Q 39.453125 66.40625 31.78125 66.40625 
z
M 31.78125 74.21875 
Q 44.046875 74.21875 50.515625 64.515625 
Q 56.984375 54.828125 56.984375 36.375 
Q 56.984375 17.96875 50.515625 8.265625 
Q 44.046875 -1.421875 31.78125 -1.421875 
Q 19.53125 -1.421875 13.0625 8.265625 
Q 6.59375 17.96875 6.59375 36.375 
Q 6.59375 54.828125 13.0625 64.515625 
Q 19.53125 74.21875 31.78125 74.21875 
z
" id="DejaVuSans-48"/>
       </defs>
       <use xlink:href="#DejaVuSans-48"/>
      </g>
     </g>
    </g>
    <g id="ytick_3">
     <g id="line2d_6">
      <g>
       <use style="stroke:#000000;stroke-width:0.8;" x="54" xlink:href="#me787f7a4fb" y="159.097233"/>
      </g>
     </g>
     <g id="text_7">
      <!-- 5 -->
      <g transform="translate(40.6375 162.896451)scale(0.1 -0.1)">
       <use xlink:href="#DejaVuSans-53"/>
      </g>
     </g>
    </g>
    <g id="ytick_4">
     <g id="line2d_7">
      <g>
       <use style="stroke:#000000;stroke-width:0.8;" x="54" xlink:href="#me787f7a4fb" y="127.950136"/>
      </g>
     </g>
     <g id="text_8">
      <!-- 10 -->
      <g transform="translate(34.275 131.749355)scale(0.1 -0.1)">
       <use xlink:href="#DejaVuSans-49"/>
       <use x="63.623047" xlink:href="#DejaVuSans-48"/>
      </g>
     </g>
    </g>
    <g id="ytick_5">
     <g id="line2d_8">
      <g>
       <use style="stroke:#000000;stroke-width:0.8;" x="54" xlink:href="#me787f7a4fb" y="96.803039"/>
      </g>
     </g>
     <g id="text_9">
      <!-- 15 -->
      <g transform="translate(34.275 100.602258)scale(0.1 -0.1)">
       <use xlink:href="#DejaVuSans-49"/>
       <use x="63.623047" xlink:href="#DejaVuSans-53"/>
      </g>
     </g>
    </g>
    <g id="ytick_6">
     <g id="line2d_9">
      <g>
       <use style="stroke:#000000;stroke-width:0.8;" x="54" xlink:href="#me787f7a4fb" y="65.655942"/>
      </g>
     </g>
     <g id="text_10">
      <!-- 20 -->
      <g transform="translate(34.275 69.455161)scale(0.1 -0.1)">
       <use xlink:href="#DejaVuSans-50"/>
       <use x="63.623047" xlink:href="#DejaVuSans-48"/>
      </g>
     </g>
    </g>
    <g id="text_11">
     <!-- value -->
     <g transform="translate(26.178125 156.937813)rotate(-90)scale(0.1 -0.1)">
      <defs>
       <path d="M 2.984375 54.6875 
L 12.5 54.6875 
L 29.59375 8.796875 
L 46.6875 54.6875 
L 56.203125 54.6875 
L 35.6875 0 
L 23.484375 0 
z
" id="DejaVuSans-118"/>
       <path d="M 34.28125 27.484375 
Q 23.390625 27.484375 19.1875 25 
Q 14.984375 22.515625 14.984375 16.5 
Q 14.984375 11.71875 18.140625 8.90625 
Q 21.296875 6.109375 26.703125 6.109375 
Q 34.1875 6.109375 38.703125 11.40625 
Q 43.21875 16.703125 43.21875 25.484375 
L 43.21875 27.484375 
z
M 52.203125 31.203125 
L 52.203125 0 
L 43.21875 0 
L 43.21875 8.296875 
Q 40.140625 3.328125 35.546875 0.953125 
Q 30.953125 -1.421875 24.3125 -1.421875 
Q 15.921875 -1.421875 10.953125 3.296875 
Q 6 8.015625 6 15.921875 
Q 6 25.140625 12.171875 29.828125 
Q 18.359375 34.515625 30.609375 34.515625 
L 43.21875 34.515625 
L 43.21875 35.40625 
Q 43.21875 41.609375 39.140625 45 
Q 35.0625 48.390625 27.6875 48.390625 
Q 23 48.390625 18.546875 47.265625 
Q 14.109375 46.140625 10.015625 43.890625 
L 10.015625 52.203125 
Q 14.9375 54.109375 19.578125 55.046875 
Q 24.21875 56 28.609375 56 
Q 40.484375 56 46.34375 49.84375 
Q 52.203125 43.703125 52.203125 31.203125 
z
" id="DejaVuSans-97"/>
       <path d="M 9.421875 75.984375 
L 18.40625 75.984375 
L 18.40625 0 
L 9.421875 0 
z
" id="DejaVuSans-108"/>
       <path d="M 8.5 21.578125 
L 8.5 54.6875 
L 17.484375 54.6875 
L 17.484375 21.921875 
Q 17.484375 14.15625 20.5 10.265625 
Q 23.53125 6.390625 29.59375 6.390625 
Q 36.859375 6.390625 41.078125 11.03125 
Q 45.3125 15.671875 45.3125 23.6875 
L 45.3125 54.6875 
L 54.296875 54.6875 
L 54.296875 0 
L 45.3125 0 
L 45.3125 8.40625 
Q 42.046875 3.421875 37.71875 1 
Q 33.40625 -1.421875 27.6875 -1.421875 
Q 18.265625 -1.421875 13.375 4.4375 
Q 8.5 10.296875 8.5 21.578125 
z
M 31.109375 56 
z
" id="DejaVuSans-117"/>
      </defs>
      <use xlink:href="#DejaVuSans-118"/>
      <use x="59.179688" xlink:href="#DejaVuSans-97"/>
      <use x="120.458984" xlink:href="#DejaVuSans-108"/>
      <use x="148.242188" xlink:href="#DejaVuSans-117"/>
      <use x="211.621094" xlink:href="#DejaVuSans-101"/>
     </g>
    </g>
   </g>
   <g id="line2d_10">
    <path clip-path="url(#pb94b35f7f4)" d="M 80.04 220.298253 
L 80.04 87.27036 
" style="fill:none;stroke:#3d3d3d;stroke-linecap:square;stroke-width:1.5;"/>
   </g>
   <g id="line2d_11">
    <path clip-path="url(#pb94b35f7f4)" d="M 80.04 171.379119 
L 80.04 137.681364 
" style="fill:none;stroke:#3d3d3d;stroke-linecap:square;stroke-width:4.5;"/>
   </g>
   <g id="line2d_12">
    <path clip-path="url(#pb94b35f7f4)" d="M 221.4 231.501302 
L 221.4 52.874445 
" style="fill:none;stroke:#3d3d3d;stroke-linecap:square;stroke-width:1.5;"/>
   </g>
   <g id="line2d_13">
    <path clip-path="url(#pb94b35f7f4)" d="M 221.4 169.419672 
L 221.4 122.148418 
" style="fill:none;stroke:#3d3d3d;stroke-linecap:square;stroke-width:4.5;"/>
   </g>
   <g id="line2d_14">
    <path clip-path="url(#pb94b35f7f4)" d="M 362.76 190.800749 
L 362.76 93.090289 
" style="fill:none;stroke:#3d3d3d;stroke-linecap:square;stroke-width:1.5;"/>
   </g>
   <g id="line2d_15">
    <path clip-path="url(#pb94b35f7f4)" d="M 362.76 154.905587 
L 362.76 130.056896 
" style="fill:none;stroke:#3d3d3d;stroke-linecap:square;stroke-width:4.5;"/>
   </g>
   <g id="patch_6">
    <path d="M 54 252 
L 54 34.56 
" style="fill:none;stroke:#000000;stroke-linecap:square;stroke-linejoin:miter;stroke-width:0.8;"/>
   </g>
   <g id="patch_7">
    <path d="M 388.8 252 
L 388.8 34.56 
" style="fill:none;stroke:#000000;stroke-linecap:square;stroke-linejoin:miter;stroke-width:0.8;"/>
   </g>
   <g id="patch_8">
    <path d="M 54 252 
L 388.8 252 
" style="fill:none;stroke:#000000;stroke-linecap:square;stroke-linejoin:miter;stroke-width:0.8;"/>
   </g>
   <g id="patch_9">
    <path d="M 54 34.56 
L 388.8 34.56 
" style="fill:none;stroke:#000000;stroke-linecap:square;stroke-linejoin:miter;stroke-width:0.8;"/>
   </g>
   <g id="PathCollection_1">
    <defs>
     <path d="M 0 1.5 
C 0.397805 1.5 0.77937 1.341951 1.06066 1.06066 
C 1.341951 0.77937 1.5 0.397805 1.5 0 
C 1.5 -0.397805 1.341951 -0.77937 1.06066 -1.06066 
C 0.77937 -1.341951 0.397805 -1.5 0 -1.5 
C -0.397805 -1.5 -0.77937 -1.341951 -1.06066 -1.06066 
C -1.341951 -0.77937 -1.5 -0.397805 -1.5 0 
C -1.5 0.397805 -1.341951 0.77937 -1.06066 1.06066 
C -0.77937 1.341951 -0.397805 1.5 0 1.5 
z
" id="m2e6913206a" style="stroke:#3d3d3d;"/>
    </defs>
    <g clip-path="url(#pb94b35f7f4)">
     <use style="fill:#ffffff;stroke:#3d3d3d;" x="80.04" xlink:href="#m2e6913206a" y="156.597346"/>
    </g>
   </g>
   <g id="PathCollection_2">
    <g clip-path="url(#pb94b35f7f4)">
     <use style="fill:#ffffff;stroke:#3d3d3d;" x="221.4" xlink:href="#m2e6913206a" y="148.846122"/>
    </g>
   </g>
   <g id="PathCollection_3">
    <g clip-path="url(#pb94b35f7f4)">
     <use style="fill:#ffffff;stroke:#3d3d3d;" x="362.76" xlink:href="#m2e6913206a" y="142.131814"/>
    </g>
   </g>
   <g id="legend_1">
    <g id="patch_10">
     <path d="M 315.040625 102.106875 
L 381.8 102.106875 
Q 383.8 102.106875 383.8 100.106875 
L 383.8 41.56 
Q 383.8 39.56 381.8 39.56 
L 315.040625 39.56 
Q 313.040625 39.56 313.040625 41.56 
L 313.040625 100.106875 
Q 313.040625 102.106875 315.040625 102.106875 
z
" style="fill:#ffffff;opacity:0.8;stroke:#cccccc;stroke-linejoin:miter;"/>
    </g>
    <g id="text_12">
     <!-- set -->
     <g transform="translate(340.778906 51.158437)scale(0.1 -0.1)">
      <use xlink:href="#DejaVuSans-115"/>
      <use x="52.099609" xlink:href="#DejaVuSans-101"/>
      <use x="113.623047" xlink:href="#DejaVuSans-116"/>
     </g>
    </g>
    <g id="patch_11">
     <path d="M 317.040625 65.836562 
L 337.040625 65.836562 
L 337.040625 58.836562 
L 317.040625 58.836562 
z
" style="fill:#3274a1;stroke:#3d3d3d;stroke-linejoin:miter;stroke-width:0.75;"/>
    </g>
    <g id="text_13">
     <!-- Z_1_ns -->
     <g transform="translate(345.040625 65.836562)scale(0.1 -0.1)">
      <use xlink:href="#DejaVuSans-90"/>
      <use x="68.505859" xlink:href="#DejaVuSans-95"/>
      <use x="118.505859" xlink:href="#DejaVuSans-49"/>
      <use x="182.128906" xlink:href="#DejaVuSans-95"/>
      <use x="232.128906" xlink:href="#DejaVuSans-110"/>
      <use x="295.507812" xlink:href="#DejaVuSans-115"/>
     </g>
    </g>
    <g id="patch_12">
     <path d="M 317.040625 80.792812 
L 337.040625 80.792812 
L 337.040625 73.792812 
L 317.040625 73.792812 
z
" style="fill:#e1812c;stroke:#3d3d3d;stroke-linejoin:miter;stroke-width:0.75;"/>
    </g>
    <g id="text_14">
     <!-- Z_2_ns -->
     <g transform="translate(345.040625 80.792812)scale(0.1 -0.1)">
      <use xlink:href="#DejaVuSans-90"/>
      <use x="68.505859" xlink:href="#DejaVuSans-95"/>
      <use x="118.505859" xlink:href="#DejaVuSans-50"/>
      <use x="182.128906" xlink:href="#DejaVuSans-95"/>
      <use x="232.128906" xlink:href="#DejaVuSans-110"/>
      <use x="295.507812" xlink:href="#DejaVuSans-115"/>
     </g>
    </g>
    <g id="patch_13">
     <path d="M 317.040625 95.749062 
L 337.040625 95.749062 
L 337.040625 88.749062 
L 317.040625 88.749062 
z
" style="fill:#3a923a;stroke:#3d3d3d;stroke-linejoin:miter;stroke-width:0.75;"/>
    </g>
    <g id="text_15">
     <!-- Z_3_ns -->
     <g transform="translate(345.040625 95.749062)scale(0.1 -0.1)">
      <use xlink:href="#DejaVuSans-90"/>
      <use x="68.505859" xlink:href="#DejaVuSans-95"/>
      <use x="118.505859" xlink:href="#DejaVuSans-51"/>
      <use x="182.128906" xlink:href="#DejaVuSans-95"/>
      <use x="232.128906" xlink:href="#DejaVuSans-110"/>
      <use x="295.507812" xlink:href="#DejaVuSans-115"/>
     </g>
    </g>
   </g>
  </g>
 </g>
 <defs>
  <clipPath id="pb94b35f7f4">
   <rect height="217.44" width="334.8" x="54" y="34.56"/>
  </clipPath>
 </defs>
</svg>
