<?xml version="1.0" encoding="utf-8" standalone="no"?>
<!DOCTYPE svg PUBLIC "-//W3C//DTD SVG 1.1//EN"
  "http://www.w3.org/Graphics/SVG/1.1/DTD/svg11.dtd">
<!-- Created with matplotlib (https://matplotlib.org/) -->
<svg height="288pt" version="1.1" viewBox="0 0 432 288" width="432pt" xmlns="http://www.w3.org/2000/svg" xmlns:xlink="http://www.w3.org/1999/xlink">
 <metadata>
  <rdf:RDF xmlns:cc="http://creativecommons.org/ns#" xmlns:dc="http://purl.org/dc/elements/1.1/" xmlns:rdf="http://www.w3.org/1999/02/22-rdf-syntax-ns#">
   <cc:Work>
    <dc:type rdf:resource="http://purl.org/dc/dcmitype/StillImage"/>
    <dc:date>2022-05-12T13:08:34.290184</dc:date>
    <dc:format>image/svg+xml</dc:format>
    <dc:creator>
     <cc:Agent>
      <dc:title>Matplotlib v3.3.4, https://matplotlib.org/</dc:title>
     </cc:Agent>
    </dc:creator>
   </cc:Work>
  </rdf:RDF>
 </metadata>
 <defs>
  <style type="text/css">*{stroke-linecap:butt;stroke-linejoin:round;}</style>
 </defs>
 <g id="figure_1">
  <g id="patch_1">
   <path d="M 0 288 
L 432 288 
L 432 0 
L 0 0 
z
" style="fill:#ffffff;"/>
  </g>
  <g id="axes_1">
   <g id="patch_2">
    <path d="M 54 252 
L 388.8 252 
L 388.8 34.56 
L 54 34.56 
z
" style="fill:#ffffff;"/>
   </g>
   <g id="PolyCollection_1">
    <defs>
     <path d="M 104.328773 -85.079256 
L 104.111227 -85.079256 
L 104.087159 -86.680035 
L 104.059944 -88.280813 
L 104.024913 -89.881592 
L 103.977985 -91.482371 
L 103.918646 -93.08315 
L 103.850978 -94.683929 
L 103.781503 -96.284708 
L 103.714873 -97.885487 
L 103.650062 -99.486266 
L 103.579246 -101.087044 
L 103.489649 -102.687823 
L 103.367032 -104.288602 
L 103.198985 -105.889381 
L 102.976691 -107.49016 
L 102.695073 -109.090939 
L 102.352462 -110.691718 
L 101.950797 -112.292496 
L 101.49554 -113.893275 
L 100.993311 -115.494054 
L 100.44707 -117.094833 
L 99.852124 -118.695612 
L 99.196933 -120.296391 
L 98.469427 -121.89717 
L 97.66556 -123.497949 
L 96.795358 -125.098727 
L 95.882306 -126.699506 
L 94.953526 -128.300285 
L 94.022161 -129.901064 
L 93.070277 -131.501843 
L 92.045226 -133.102622 
L 90.877381 -134.703401 
L 89.513174 -136.304179 
L 87.945134 -137.904958 
L 86.220984 -139.505737 
L 84.426624 -141.106516 
L 82.652948 -142.707295 
L 80.964009 -144.308074 
L 79.381432 -145.908853 
L 77.891083 -147.509632 
L 76.467913 -149.11041 
L 75.106784 -150.711189 
L 73.842381 -152.311968 
L 72.74373 -153.912747 
L 71.882181 -155.513526 
L 71.291315 -157.114305 
L 70.947201 -158.715084 
L 70.785029 -160.315863 
L 70.74 -161.916641 
L 70.781002 -163.51742 
L 70.913498 -165.118199 
L 71.156335 -166.718978 
L 71.518901 -168.319757 
L 72 -169.920536 
L 72.604968 -171.521315 
L 73.358973 -173.122093 
L 74.299224 -174.722872 
L 75.449476 -176.323651 
L 76.796221 -177.92443 
L 78.284883 -179.525209 
L 79.8394 -181.125988 
L 81.391801 -182.726767 
L 82.901564 -184.327546 
L 84.352997 -185.928324 
L 85.736664 -187.529103 
L 87.033166 -189.129882 
L 88.213714 -190.730661 
L 89.255967 -192.33144 
L 90.160966 -193.932219 
L 90.957733 -195.532998 
L 91.693217 -197.133776 
L 92.41571 -198.734555 
L 93.162379 -200.335334 
L 93.955754 -201.936113 
L 94.805332 -203.536892 
L 95.706895 -205.137671 
L 96.637828 -206.73845 
L 97.556065 -208.339229 
L 98.41134 -209.940007 
L 99.166464 -211.540786 
L 99.814294 -213.141565 
L 100.377016 -214.742344 
L 100.888372 -216.343123 
L 101.372517 -217.943902 
L 101.833677 -219.544681 
L 102.260486 -221.145459 
L 102.638268 -222.746238 
L 102.959302 -224.347017 
L 103.225402 -225.947796 
L 103.444034 -227.548575 
L 103.623117 -229.149354 
L 103.768433 -230.750133 
L 103.88376 -232.350912 
L 103.971687 -233.95169 
L 104.034084 -235.552469 
L 104.072889 -237.153248 
L 104.091681 -238.754027 
L 104.097022 -240.354806 
L 104.097829 -241.955585 
L 104.102488 -243.556364 
L 104.337512 -243.556364 
L 104.337512 -243.556364 
L 104.342171 -241.955585 
L 104.342978 -240.354806 
L 104.348319 -238.754027 
L 104.367111 -237.153248 
L 104.405916 -235.552469 
L 104.468313 -233.95169 
L 104.55624 -232.350912 
L 104.671567 -230.750133 
L 104.816883 -229.149354 
L 104.995966 -227.548575 
L 105.214598 -225.947796 
L 105.480698 -224.347017 
L 105.801732 -222.746238 
L 106.179514 -221.145459 
L 106.606323 -219.544681 
L 107.067483 -217.943902 
L 107.551628 -216.343123 
L 108.062984 -214.742344 
L 108.625706 -213.141565 
L 109.273536 -211.540786 
L 110.02866 -209.940007 
L 110.883935 -208.339229 
L 111.802172 -206.73845 
L 112.733105 -205.137671 
L 113.634668 -203.536892 
L 114.484246 -201.936113 
L 115.277621 -200.335334 
L 116.02429 -198.734555 
L 116.746783 -197.133776 
L 117.482267 -195.532998 
L 118.279034 -193.932219 
L 119.184033 -192.33144 
L 120.226286 -190.730661 
L 121.406834 -189.129882 
L 122.703336 -187.529103 
L 124.087003 -185.928324 
L 125.538436 -184.327546 
L 127.048199 -182.726767 
L 128.6006 -181.125988 
L 130.155117 -179.525209 
L 131.643779 -177.92443 
L 132.990524 -176.323651 
L 134.140776 -174.722872 
L 135.081027 -173.122093 
L 135.835032 -171.521315 
L 136.44 -169.920536 
L 136.921099 -168.319757 
L 137.283665 -166.718978 
L 137.526502 -165.118199 
L 137.658998 -163.51742 
L 137.7 -161.916641 
L 137.654971 -160.315863 
L 137.492799 -158.715084 
L 137.148685 -157.114305 
L 136.557819 -155.513526 
L 135.69627 -153.912747 
L 134.597619 -152.311968 
L 133.333216 -150.711189 
L 131.972087 -149.11041 
L 130.548917 -147.509632 
L 129.058568 -145.908853 
L 127.475991 -144.308074 
L 125.787052 -142.707295 
L 124.013376 -141.106516 
L 122.219016 -139.505737 
L 120.494866 -137.904958 
L 118.926826 -136.304179 
L 117.562619 -134.703401 
L 116.394774 -133.102622 
L 115.369723 -131.501843 
L 114.417839 -129.901064 
L 113.486474 -128.300285 
L 112.557694 -126.699506 
L 111.644642 -125.098727 
L 110.77444 -123.497949 
L 109.970573 -121.89717 
L 109.243067 -120.296391 
L 108.587876 -118.695612 
L 107.99293 -117.094833 
L 107.446689 -115.494054 
L 106.94446 -113.893275 
L 106.489203 -112.292496 
L 106.087538 -110.691718 
L 105.744927 -109.090939 
L 105.463309 -107.49016 
L 105.241015 -105.889381 
L 105.072968 -104.288602 
L 104.950351 -102.687823 
L 104.860754 -101.087044 
L 104.789938 -99.486266 
L 104.725127 -97.885487 
L 104.658497 -96.284708 
L 104.589022 -94.683929 
L 104.521354 -93.08315 
L 104.462015 -91.482371 
L 104.415087 -89.881592 
L 104.380056 -88.280813 
L 104.352841 -86.680035 
L 104.328773 -85.079256 
z
" id="m66328f8dec" style="stroke:#3f3f3f;stroke-width:1.5;"/>
    </defs>
    <g clip-path="url(#p4a077d9ee6)">
     <use style="fill:#3274a1;stroke:#3f3f3f;stroke-width:1.5;" x="0" xlink:href="#m66328f8dec" y="288"/>
    </g>
   </g>
   <g id="PolyCollection_2">
    <defs>
     <path d="M 338.635488 -45.883636 
L 338.524512 -45.883636 
L 338.528621 -47.850492 
L 338.538935 -49.817347 
L 338.550118 -51.784202 
L 338.556758 -53.751058 
L 338.555791 -55.717913 
L 338.547509 -57.684769 
L 338.535307 -59.651624 
L 338.524127 -61.618479 
L 338.5177 -63.585335 
L 338.516219 -65.55219 
L 338.516754 -67.519045 
L 338.516494 -69.485901 
L 338.515621 -71.452756 
L 338.516572 -73.419612 
L 338.520189 -75.386467 
L 338.522558 -77.353322 
L 338.515626 -79.320178 
L 338.49133 -81.287033 
L 338.44662 -83.253888 
L 338.386305 -85.220744 
L 338.321153 -87.187599 
L 338.260687 -89.154455 
L 338.204906 -91.12131 
L 338.143002 -93.088165 
L 338.062958 -95.055021 
L 337.964436 -97.021876 
L 337.86132 -98.988731 
L 337.769516 -100.955587 
L 337.691306 -102.922442 
L 337.611668 -104.889298 
L 337.510027 -106.856153 
L 337.376433 -108.823008 
L 337.217609 -110.789864 
L 337.046487 -112.756719 
L 336.861561 -114.723574 
L 336.631249 -116.69043 
L 336.296837 -118.657285 
L 335.795064 -120.624141 
L 335.086477 -122.590996 
L 334.169347 -124.557851 
L 333.0676 -126.524707 
L 331.801908 -128.491562 
L 330.370678 -130.458417 
L 328.763038 -132.425273 
L 326.99537 -134.392128 
L 325.132668 -136.358984 
L 323.26285 -138.325839 
L 321.439325 -140.292694 
L 319.646508 -142.25955 
L 317.826366 -144.226405 
L 315.945668 -146.19326 
L 314.043871 -148.160116 
L 312.21865 -150.126971 
L 310.562784 -152.093827 
L 309.111797 -154.060682 
L 307.851345 -156.027537 
L 306.771802 -157.994393 
L 305.909566 -159.961248 
L 305.334384 -161.928104 
L 305.1 -163.894959 
L 305.203061 -165.861814 
L 305.579724 -167.82867 
L 306.142756 -169.795525 
L 306.834893 -171.76238 
L 307.652586 -173.729236 
L 308.611949 -175.696091 
L 309.687695 -177.662947 
L 310.790451 -179.629802 
L 311.810509 -181.596657 
L 312.688741 -183.563513 
L 313.452684 -185.530368 
L 314.194535 -187.497223 
L 315.019934 -189.464079 
L 316.008407 -191.430934 
L 317.197626 -193.39779 
L 318.579499 -195.364645 
L 320.102121 -197.3315 
L 321.682706 -199.298356 
L 323.229357 -201.265211 
L 324.662577 -203.232066 
L 325.936695 -205.198922 
L 327.06229 -207.165777 
L 328.108961 -209.132633 
L 329.164363 -211.099488 
L 330.269276 -213.066343 
L 331.388191 -215.033199 
L 332.445274 -217.000054 
L 333.38607 -218.966909 
L 334.20459 -220.933765 
L 334.923857 -222.90062 
L 335.56574 -224.867476 
L 336.139761 -226.834331 
L 336.647093 -228.801186 
L 337.084756 -230.768042 
L 337.448027 -232.734897 
L 337.736033 -234.701752 
L 337.957491 -236.668608 
L 338.128886 -238.635463 
L 338.265608 -240.602319 
L 338.894392 -240.602319 
L 338.894392 -240.602319 
L 339.031114 -238.635463 
L 339.202509 -236.668608 
L 339.423967 -234.701752 
L 339.711973 -232.734897 
L 340.075244 -230.768042 
L 340.512907 -228.801186 
L 341.020239 -226.834331 
L 341.59426 -224.867476 
L 342.236143 -222.90062 
L 342.95541 -220.933765 
L 343.77393 -218.966909 
L 344.714726 -217.000054 
L 345.771809 -215.033199 
L 346.890724 -213.066343 
L 347.995637 -211.099488 
L 349.051039 -209.132633 
L 350.09771 -207.165777 
L 351.223305 -205.198922 
L 352.497423 -203.232066 
L 353.930643 -201.265211 
L 355.477294 -199.298356 
L 357.057879 -197.3315 
L 358.580501 -195.364645 
L 359.962374 -193.39779 
L 361.151593 -191.430934 
L 362.140066 -189.464079 
L 362.965465 -187.497223 
L 363.707316 -185.530368 
L 364.471259 -183.563513 
L 365.349491 -181.596657 
L 366.369549 -179.629802 
L 367.472305 -177.662947 
L 368.548051 -175.696091 
L 369.507414 -173.729236 
L 370.325107 -171.76238 
L 371.017244 -169.795525 
L 371.580276 -167.82867 
L 371.956939 -165.861814 
L 372.06 -163.894959 
L 371.825616 -161.928104 
L 371.250434 -159.961248 
L 370.388198 -157.994393 
L 369.308655 -156.027537 
L 368.048203 -154.060682 
L 366.597216 -152.093827 
L 364.94135 -150.126971 
L 363.116129 -148.160116 
L 361.214332 -146.19326 
L 359.333634 -144.226405 
L 357.513492 -142.25955 
L 355.720675 -140.292694 
L 353.89715 -138.325839 
L 352.027332 -136.358984 
L 350.16463 -134.392128 
L 348.396962 -132.425273 
L 346.789322 -130.458417 
L 345.358092 -128.491562 
L 344.0924 -126.524707 
L 342.990653 -124.557851 
L 342.073523 -122.590996 
L 341.364936 -120.624141 
L 340.863163 -118.657285 
L 340.528751 -116.69043 
L 340.298439 -114.723574 
L 340.113513 -112.756719 
L 339.942391 -110.789864 
L 339.783567 -108.823008 
L 339.649973 -106.856153 
L 339.548332 -104.889298 
L 339.468694 -102.922442 
L 339.390484 -100.955587 
L 339.29868 -98.988731 
L 339.195564 -97.021876 
L 339.097042 -95.055021 
L 339.016998 -93.088165 
L 338.955094 -91.12131 
L 338.899313 -89.154455 
L 338.838847 -87.187599 
L 338.773695 -85.220744 
L 338.71338 -83.253888 
L 338.66867 -81.287033 
L 338.644374 -79.320178 
L 338.637442 -77.353322 
L 338.639811 -75.386467 
L 338.643428 -73.419612 
L 338.644379 -71.452756 
L 338.643506 -69.485901 
L 338.643246 -67.519045 
L 338.643781 -65.55219 
L 338.6423 -63.585335 
L 338.635873 -61.618479 
L 338.624693 -59.651624 
L 338.612491 -57.684769 
L 338.604209 -55.717913 
L 338.603242 -53.751058 
L 338.609882 -51.784202 
L 338.621065 -49.817347 
L 338.631379 -47.850492 
L 338.635488 -45.883636 
z
" id="me122fdfc60" style="stroke:#3f3f3f;stroke-width:1.5;"/>
    </defs>
    <g clip-path="url(#p4a077d9ee6)">
     <use style="fill:#e1812c;stroke:#3f3f3f;stroke-width:1.5;" x="0" xlink:href="#me122fdfc60" y="288"/>
    </g>
   </g>
   <g id="patch_3">
    <path clip-path="url(#p4a077d9ee6)" d="M 137.7 159.326226 
L 137.7 159.326226 
L 137.7 159.326226 
L 137.7 159.326226 
z
" style="fill:#3274a1;stroke:#3f3f3f;stroke-linejoin:miter;stroke-width:0.75;"/>
   </g>
   <g id="patch_4">
    <path clip-path="url(#p4a077d9ee6)" d="M 137.7 159.326226 
L 137.7 159.326226 
L 137.7 159.326226 
L 137.7 159.326226 
z
" style="fill:#e1812c;stroke:#3f3f3f;stroke-linejoin:miter;stroke-width:0.75;"/>
   </g>
   <g id="matplotlib.axis_1">
    <g id="xtick_1">
     <g id="line2d_1">
      <defs>
       <path d="M 0 0 
L 0 3.5 
" id="m9795f09928" style="stroke:#000000;stroke-width:0.8;"/>
      </defs>
      <g>
       <use style="stroke:#000000;stroke-width:0.8;" x="137.7" xlink:href="#m9795f09928" y="252"/>
      </g>
     </g>
     <g id="text_1">
      <!-- Z_2_ns -->
      <g transform="translate(120.320312 266.421875)scale(0.1 -0.1)">
       <defs>
        <path d="M 5.609375 72.90625 
L 62.890625 72.90625 
L 62.890625 65.375 
L 16.796875 8.296875 
L 64.015625 8.296875 
L 64.015625 0 
L 4.5 0 
L 4.5 7.515625 
L 50.59375 64.59375 
L 5.609375 64.59375 
z
" id="DejaVuSans-90"/>
        <path d="M 50.984375 -16.609375 
L 50.984375 -23.578125 
L -0.984375 -23.578125 
L -0.984375 -16.609375 
z
" id="DejaVuSans-95"/>
        <path d="M 19.1875 8.296875 
L 53.609375 8.296875 
L 53.609375 0 
L 7.328125 0 
L 7.328125 8.296875 
Q 12.9375 14.109375 22.625 23.890625 
Q 32.328125 33.6875 34.8125 36.53125 
Q 39.546875 41.84375 41.421875 45.53125 
Q 43.3125 49.21875 43.3125 52.78125 
Q 43.3125 58.59375 39.234375 62.25 
Q 35.15625 65.921875 28.609375 65.921875 
Q 23.96875 65.921875 18.8125 64.3125 
Q 13.671875 62.703125 7.8125 59.421875 
L 7.8125 69.390625 
Q 13.765625 71.78125 18.9375 73 
Q 24.125 74.21875 28.421875 74.21875 
Q 39.75 74.21875 46.484375 68.546875 
Q 53.21875 62.890625 53.21875 53.421875 
Q 53.21875 48.921875 51.53125 44.890625 
Q 49.859375 40.875 45.40625 35.40625 
Q 44.1875 33.984375 37.640625 27.21875 
Q 31.109375 20.453125 19.1875 8.296875 
z
" id="DejaVuSans-50"/>
        <path d="M 54.890625 33.015625 
L 54.890625 0 
L 45.90625 0 
L 45.90625 32.71875 
Q 45.90625 40.484375 42.875 44.328125 
Q 39.84375 48.1875 33.796875 48.1875 
Q 26.515625 48.1875 22.3125 43.546875 
Q 18.109375 38.921875 18.109375 30.90625 
L 18.109375 0 
L 9.078125 0 
L 9.078125 54.6875 
L 18.109375 54.6875 
L 18.109375 46.1875 
Q 21.34375 51.125 25.703125 53.5625 
Q 30.078125 56 35.796875 56 
Q 45.21875 56 50.046875 50.171875 
Q 54.890625 44.34375 54.890625 33.015625 
z
" id="DejaVuSans-110"/>
        <path d="M 44.28125 53.078125 
L 44.28125 44.578125 
Q 40.484375 46.53125 36.375 47.5 
Q 32.28125 48.484375 27.875 48.484375 
Q 21.1875 48.484375 17.84375 46.4375 
Q 14.5 44.390625 14.5 40.28125 
Q 14.5 37.15625 16.890625 35.375 
Q 19.28125 33.59375 26.515625 31.984375 
L 29.59375 31.296875 
Q 39.15625 29.25 43.1875 25.515625 
Q 47.21875 21.78125 47.21875 15.09375 
Q 47.21875 7.46875 41.1875 3.015625 
Q 35.15625 -1.421875 24.609375 -1.421875 
Q 20.21875 -1.421875 15.453125 -0.5625 
Q 10.6875 0.296875 5.421875 2 
L 5.421875 11.28125 
Q 10.40625 8.6875 15.234375 7.390625 
Q 20.0625 6.109375 24.8125 6.109375 
Q 31.15625 6.109375 34.5625 8.28125 
Q 37.984375 10.453125 37.984375 14.40625 
Q 37.984375 18.0625 35.515625 20.015625 
Q 33.0625 21.96875 24.703125 23.78125 
L 21.578125 24.515625 
Q 13.234375 26.265625 9.515625 29.90625 
Q 5.8125 33.546875 5.8125 39.890625 
Q 5.8125 47.609375 11.28125 51.796875 
Q 16.75 56 26.8125 56 
Q 31.78125 56 36.171875 55.265625 
Q 40.578125 54.546875 44.28125 53.078125 
z
" id="DejaVuSans-115"/>
       </defs>
       <use xlink:href="#DejaVuSans-90"/>
       <use x="68.505859" xlink:href="#DejaVuSans-95"/>
       <use x="118.505859" xlink:href="#DejaVuSans-50"/>
       <use x="182.128906" xlink:href="#DejaVuSans-95"/>
       <use x="232.128906" xlink:href="#DejaVuSans-110"/>
       <use x="295.507812" xlink:href="#DejaVuSans-115"/>
      </g>
     </g>
    </g>
    <g id="xtick_2">
     <g id="line2d_2">
      <g>
       <use style="stroke:#000000;stroke-width:0.8;" x="305.1" xlink:href="#m9795f09928" y="252"/>
      </g>
     </g>
     <g id="text_2">
      <!-- Z_3_ns -->
      <g transform="translate(287.720313 266.421875)scale(0.1 -0.1)">
       <defs>
        <path d="M 40.578125 39.3125 
Q 47.65625 37.796875 51.625 33 
Q 55.609375 28.21875 55.609375 21.1875 
Q 55.609375 10.40625 48.1875 4.484375 
Q 40.765625 -1.421875 27.09375 -1.421875 
Q 22.515625 -1.421875 17.65625 -0.515625 
Q 12.796875 0.390625 7.625 2.203125 
L 7.625 11.71875 
Q 11.71875 9.328125 16.59375 8.109375 
Q 21.484375 6.890625 26.8125 6.890625 
Q 36.078125 6.890625 40.9375 10.546875 
Q 45.796875 14.203125 45.796875 21.1875 
Q 45.796875 27.640625 41.28125 31.265625 
Q 36.765625 34.90625 28.71875 34.90625 
L 20.21875 34.90625 
L 20.21875 43.015625 
L 29.109375 43.015625 
Q 36.375 43.015625 40.234375 45.921875 
Q 44.09375 48.828125 44.09375 54.296875 
Q 44.09375 59.90625 40.109375 62.90625 
Q 36.140625 65.921875 28.71875 65.921875 
Q 24.65625 65.921875 20.015625 65.03125 
Q 15.375 64.15625 9.8125 62.3125 
L 9.8125 71.09375 
Q 15.4375 72.65625 20.34375 73.4375 
Q 25.25 74.21875 29.59375 74.21875 
Q 40.828125 74.21875 47.359375 69.109375 
Q 53.90625 64.015625 53.90625 55.328125 
Q 53.90625 49.265625 50.4375 45.09375 
Q 46.96875 40.921875 40.578125 39.3125 
z
" id="DejaVuSans-51"/>
       </defs>
       <use xlink:href="#DejaVuSans-90"/>
       <use x="68.505859" xlink:href="#DejaVuSans-95"/>
       <use x="118.505859" xlink:href="#DejaVuSans-51"/>
       <use x="182.128906" xlink:href="#DejaVuSans-95"/>
       <use x="232.128906" xlink:href="#DejaVuSans-110"/>
       <use x="295.507812" xlink:href="#DejaVuSans-115"/>
      </g>
     </g>
    </g>
    <g id="text_3">
     <!-- set -->
     <g transform="translate(213.758594 280.378125)scale(0.1 -0.1)">
      <defs>
       <path d="M 56.203125 29.59375 
L 56.203125 25.203125 
L 14.890625 25.203125 
Q 15.484375 15.921875 20.484375 11.0625 
Q 25.484375 6.203125 34.421875 6.203125 
Q 39.59375 6.203125 44.453125 7.46875 
Q 49.3125 8.734375 54.109375 11.28125 
L 54.109375 2.78125 
Q 49.265625 0.734375 44.1875 -0.34375 
Q 39.109375 -1.421875 33.890625 -1.421875 
Q 20.796875 -1.421875 13.15625 6.1875 
Q 5.515625 13.8125 5.515625 26.8125 
Q 5.515625 40.234375 12.765625 48.109375 
Q 20.015625 56 32.328125 56 
Q 43.359375 56 49.78125 48.890625 
Q 56.203125 41.796875 56.203125 29.59375 
z
M 47.21875 32.234375 
Q 47.125 39.59375 43.09375 43.984375 
Q 39.0625 48.390625 32.421875 48.390625 
Q 24.90625 48.390625 20.390625 44.140625 
Q 15.875 39.890625 15.1875 32.171875 
z
" id="DejaVuSans-101"/>
       <path d="M 18.3125 70.21875 
L 18.3125 54.6875 
L 36.8125 54.6875 
L 36.8125 47.703125 
L 18.3125 47.703125 
L 18.3125 18.015625 
Q 18.3125 11.328125 20.140625 9.421875 
Q 21.96875 7.515625 27.59375 7.515625 
L 36.8125 7.515625 
L 36.8125 0 
L 27.59375 0 
Q 17.1875 0 13.234375 3.875 
Q 9.28125 7.765625 9.28125 18.015625 
L 9.28125 47.703125 
L 2.6875 47.703125 
L 2.6875 54.6875 
L 9.28125 54.6875 
L 9.28125 70.21875 
z
" id="DejaVuSans-116"/>
      </defs>
      <use xlink:href="#DejaVuSans-115"/>
      <use x="52.099609" xlink:href="#DejaVuSans-101"/>
      <use x="113.623047" xlink:href="#DejaVuSans-116"/>
     </g>
    </g>
   </g>
   <g id="matplotlib.axis_2">
    <g id="ytick_1">
     <g id="line2d_3">
      <defs>
       <path d="M 0 0 
L -3.5 0 
" id="m48965a38cd" style="stroke:#000000;stroke-width:0.8;"/>
      </defs>
      <g>
       <use style="stroke:#000000;stroke-width:0.8;" x="54" xlink:href="#m48965a38cd" y="234.464028"/>
      </g>
     </g>
     <g id="text_4">
      <!-- −7.5 -->
      <g transform="translate(22.717187 238.263246)scale(0.1 -0.1)">
       <defs>
        <path d="M 10.59375 35.5 
L 73.1875 35.5 
L 73.1875 27.203125 
L 10.59375 27.203125 
z
" id="DejaVuSans-8722"/>
        <path d="M 8.203125 72.90625 
L 55.078125 72.90625 
L 55.078125 68.703125 
L 28.609375 0 
L 18.3125 0 
L 43.21875 64.59375 
L 8.203125 64.59375 
z
" id="DejaVuSans-55"/>
        <path d="M 10.6875 12.40625 
L 21 12.40625 
L 21 0 
L 10.6875 0 
z
" id="DejaVuSans-46"/>
        <path d="M 10.796875 72.90625 
L 49.515625 72.90625 
L 49.515625 64.59375 
L 19.828125 64.59375 
L 19.828125 46.734375 
Q 21.96875 47.46875 24.109375 47.828125 
Q 26.265625 48.1875 28.421875 48.1875 
Q 40.625 48.1875 47.75 41.5 
Q 54.890625 34.8125 54.890625 23.390625 
Q 54.890625 11.625 47.5625 5.09375 
Q 40.234375 -1.421875 26.90625 -1.421875 
Q 22.3125 -1.421875 17.546875 -0.640625 
Q 12.796875 0.140625 7.71875 1.703125 
L 7.71875 11.625 
Q 12.109375 9.234375 16.796875 8.0625 
Q 21.484375 6.890625 26.703125 6.890625 
Q 35.15625 6.890625 40.078125 11.328125 
Q 45.015625 15.765625 45.015625 23.390625 
Q 45.015625 31 40.078125 35.4375 
Q 35.15625 39.890625 26.703125 39.890625 
Q 22.75 39.890625 18.8125 39.015625 
Q 14.890625 38.140625 10.796875 36.28125 
z
" id="DejaVuSans-53"/>
       </defs>
       <use xlink:href="#DejaVuSans-8722"/>
       <use x="83.789062" xlink:href="#DejaVuSans-55"/>
       <use x="147.412109" xlink:href="#DejaVuSans-46"/>
       <use x="179.199219" xlink:href="#DejaVuSans-53"/>
      </g>
     </g>
    </g>
    <g id="ytick_2">
     <g id="line2d_4">
      <g>
       <use style="stroke:#000000;stroke-width:0.8;" x="54" xlink:href="#m48965a38cd" y="209.418094"/>
      </g>
     </g>
     <g id="text_5">
      <!-- −5.0 -->
      <g transform="translate(22.717187 213.217313)scale(0.1 -0.1)">
       <defs>
        <path d="M 31.78125 66.40625 
Q 24.171875 66.40625 20.328125 58.90625 
Q 16.5 51.421875 16.5 36.375 
Q 16.5 21.390625 20.328125 13.890625 
Q 24.171875 6.390625 31.78125 6.390625 
Q 39.453125 6.390625 43.28125 13.890625 
Q 47.125 21.390625 47.125 36.375 
Q 47.125 51.421875 43.28125 58.90625 
Q 39.453125 66.40625 31.78125 66.40625 
z
M 31.78125 74.21875 
Q 44.046875 74.21875 50.515625 64.515625 
Q 56.984375 54.828125 56.984375 36.375 
Q 56.984375 17.96875 50.515625 8.265625 
Q 44.046875 -1.421875 31.78125 -1.421875 
Q 19.53125 -1.421875 13.0625 8.265625 
Q 6.59375 17.96875 6.59375 36.375 
Q 6.59375 54.828125 13.0625 64.515625 
Q 19.53125 74.21875 31.78125 74.21875 
z
" id="DejaVuSans-48"/>
       </defs>
       <use xlink:href="#DejaVuSans-8722"/>
       <use x="83.789062" xlink:href="#DejaVuSans-53"/>
       <use x="147.412109" xlink:href="#DejaVuSans-46"/>
       <use x="179.199219" xlink:href="#DejaVuSans-48"/>
      </g>
     </g>
    </g>
    <g id="ytick_3">
     <g id="line2d_5">
      <g>
       <use style="stroke:#000000;stroke-width:0.8;" x="54" xlink:href="#m48965a38cd" y="184.37216"/>
      </g>
     </g>
     <g id="text_6">
      <!-- −2.5 -->
      <g transform="translate(22.717187 188.171379)scale(0.1 -0.1)">
       <use xlink:href="#DejaVuSans-8722"/>
       <use x="83.789062" xlink:href="#DejaVuSans-50"/>
       <use x="147.412109" xlink:href="#DejaVuSans-46"/>
       <use x="179.199219" xlink:href="#DejaVuSans-53"/>
      </g>
     </g>
    </g>
    <g id="ytick_4">
     <g id="line2d_6">
      <g>
       <use style="stroke:#000000;stroke-width:0.8;" x="54" xlink:href="#m48965a38cd" y="159.326226"/>
      </g>
     </g>
     <g id="text_7">
      <!-- 0.0 -->
      <g transform="translate(31.096875 163.125445)scale(0.1 -0.1)">
       <use xlink:href="#DejaVuSans-48"/>
       <use x="63.623047" xlink:href="#DejaVuSans-46"/>
       <use x="95.410156" xlink:href="#DejaVuSans-48"/>
      </g>
     </g>
    </g>
    <g id="ytick_5">
     <g id="line2d_7">
      <g>
       <use style="stroke:#000000;stroke-width:0.8;" x="54" xlink:href="#m48965a38cd" y="134.280293"/>
      </g>
     </g>
     <g id="text_8">
      <!-- 2.5 -->
      <g transform="translate(31.096875 138.079511)scale(0.1 -0.1)">
       <use xlink:href="#DejaVuSans-50"/>
       <use x="63.623047" xlink:href="#DejaVuSans-46"/>
       <use x="95.410156" xlink:href="#DejaVuSans-53"/>
      </g>
     </g>
    </g>
    <g id="ytick_6">
     <g id="line2d_8">
      <g>
       <use style="stroke:#000000;stroke-width:0.8;" x="54" xlink:href="#m48965a38cd" y="109.234359"/>
      </g>
     </g>
     <g id="text_9">
      <!-- 5.0 -->
      <g transform="translate(31.096875 113.033578)scale(0.1 -0.1)">
       <use xlink:href="#DejaVuSans-53"/>
       <use x="63.623047" xlink:href="#DejaVuSans-46"/>
       <use x="95.410156" xlink:href="#DejaVuSans-48"/>
      </g>
     </g>
    </g>
    <g id="ytick_7">
     <g id="line2d_9">
      <g>
       <use style="stroke:#000000;stroke-width:0.8;" x="54" xlink:href="#m48965a38cd" y="84.188425"/>
      </g>
     </g>
     <g id="text_10">
      <!-- 7.5 -->
      <g transform="translate(31.096875 87.987644)scale(0.1 -0.1)">
       <use xlink:href="#DejaVuSans-55"/>
       <use x="63.623047" xlink:href="#DejaVuSans-46"/>
       <use x="95.410156" xlink:href="#DejaVuSans-53"/>
      </g>
     </g>
    </g>
    <g id="ytick_8">
     <g id="line2d_10">
      <g>
       <use style="stroke:#000000;stroke-width:0.8;" x="54" xlink:href="#m48965a38cd" y="59.142492"/>
      </g>
     </g>
     <g id="text_11">
      <!-- 10.0 -->
      <g transform="translate(24.734375 62.94171)scale(0.1 -0.1)">
       <defs>
        <path d="M 12.40625 8.296875 
L 28.515625 8.296875 
L 28.515625 63.921875 
L 10.984375 60.40625 
L 10.984375 69.390625 
L 28.421875 72.90625 
L 38.28125 72.90625 
L 38.28125 8.296875 
L 54.390625 8.296875 
L 54.390625 0 
L 12.40625 0 
z
" id="DejaVuSans-49"/>
       </defs>
       <use xlink:href="#DejaVuSans-49"/>
       <use x="63.623047" xlink:href="#DejaVuSans-48"/>
       <use x="127.246094" xlink:href="#DejaVuSans-46"/>
       <use x="159.033203" xlink:href="#DejaVuSans-48"/>
      </g>
     </g>
    </g>
    <g id="text_12">
     <!-- value -->
     <g transform="translate(16.6375 156.937813)rotate(-90)scale(0.1 -0.1)">
      <defs>
       <path d="M 2.984375 54.6875 
L 12.5 54.6875 
L 29.59375 8.796875 
L 46.6875 54.6875 
L 56.203125 54.6875 
L 35.6875 0 
L 23.484375 0 
z
" id="DejaVuSans-118"/>
       <path d="M 34.28125 27.484375 
Q 23.390625 27.484375 19.1875 25 
Q 14.984375 22.515625 14.984375 16.5 
Q 14.984375 11.71875 18.140625 8.90625 
Q 21.296875 6.109375 26.703125 6.109375 
Q 34.1875 6.109375 38.703125 11.40625 
Q 43.21875 16.703125 43.21875 25.484375 
L 43.21875 27.484375 
z
M 52.203125 31.203125 
L 52.203125 0 
L 43.21875 0 
L 43.21875 8.296875 
Q 40.140625 3.328125 35.546875 0.953125 
Q 30.953125 -1.421875 24.3125 -1.421875 
Q 15.921875 -1.421875 10.953125 3.296875 
Q 6 8.015625 6 15.921875 
Q 6 25.140625 12.171875 29.828125 
Q 18.359375 34.515625 30.609375 34.515625 
L 43.21875 34.515625 
L 43.21875 35.40625 
Q 43.21875 41.609375 39.140625 45 
Q 35.0625 48.390625 27.6875 48.390625 
Q 23 48.390625 18.546875 47.265625 
Q 14.109375 46.140625 10.015625 43.890625 
L 10.015625 52.203125 
Q 14.9375 54.109375 19.578125 55.046875 
Q 24.21875 56 28.609375 56 
Q 40.484375 56 46.34375 49.84375 
Q 52.203125 43.703125 52.203125 31.203125 
z
" id="DejaVuSans-97"/>
       <path d="M 9.421875 75.984375 
L 18.40625 75.984375 
L 18.40625 0 
L 9.421875 0 
z
" id="DejaVuSans-108"/>
       <path d="M 8.5 21.578125 
L 8.5 54.6875 
L 17.484375 54.6875 
L 17.484375 21.921875 
Q 17.484375 14.15625 20.5 10.265625 
Q 23.53125 6.390625 29.59375 6.390625 
Q 36.859375 6.390625 41.078125 11.03125 
Q 45.3125 15.671875 45.3125 23.6875 
L 45.3125 54.6875 
L 54.296875 54.6875 
L 54.296875 0 
L 45.3125 0 
L 45.3125 8.40625 
Q 42.046875 3.421875 37.71875 1 
Q 33.40625 -1.421875 27.6875 -1.421875 
Q 18.265625 -1.421875 13.375 4.4375 
Q 8.5 10.296875 8.5 21.578125 
z
M 31.109375 56 
z
" id="DejaVuSans-117"/>
      </defs>
      <use xlink:href="#DejaVuSans-118"/>
      <use x="59.179688" xlink:href="#DejaVuSans-97"/>
      <use x="120.458984" xlink:href="#DejaVuSans-108"/>
      <use x="148.242188" xlink:href="#DejaVuSans-117"/>
      <use x="211.621094" xlink:href="#DejaVuSans-101"/>
     </g>
    </g>
   </g>
   <g id="line2d_11">
    <path clip-path="url(#p4a077d9ee6)" d="M 104.22 182.147414 
L 104.22 63.779951 
" style="fill:none;stroke:#3f3f3f;stroke-linecap:square;stroke-width:1.5;"/>
   </g>
   <g id="line2d_12">
    <path clip-path="url(#p4a077d9ee6)" d="M 104.22 138.233334 
L 104.22 108.433248 
" style="fill:none;stroke:#3f3f3f;stroke-linecap:square;stroke-width:4.5;"/>
   </g>
   <g id="line2d_13">
    <path clip-path="url(#p4a077d9ee6)" d="M 338.58 184.796119 
L 338.58 50.948954 
" style="fill:none;stroke:#3f3f3f;stroke-linecap:square;stroke-width:1.5;"/>
   </g>
   <g id="line2d_14">
    <path clip-path="url(#p4a077d9ee6)" d="M 338.58 134.508254 
L 338.58 100.974818 
" style="fill:none;stroke:#3f3f3f;stroke-linecap:square;stroke-width:4.5;"/>
   </g>
   <g id="patch_5">
    <path d="M 54 252 
L 54 34.56 
" style="fill:none;stroke:#000000;stroke-linecap:square;stroke-linejoin:miter;stroke-width:0.8;"/>
   </g>
   <g id="patch_6">
    <path d="M 388.8 252 
L 388.8 34.56 
" style="fill:none;stroke:#000000;stroke-linecap:square;stroke-linejoin:miter;stroke-width:0.8;"/>
   </g>
   <g id="patch_7">
    <path d="M 54 252 
L 388.8 252 
" style="fill:none;stroke:#000000;stroke-linecap:square;stroke-linejoin:miter;stroke-width:0.8;"/>
   </g>
   <g id="patch_8">
    <path d="M 54 34.56 
L 388.8 34.56 
" style="fill:none;stroke:#000000;stroke-linecap:square;stroke-linejoin:miter;stroke-width:0.8;"/>
   </g>
   <g id="PathCollection_1">
    <defs>
     <path d="M 0 1.5 
C 0.397805 1.5 0.77937 1.341951 1.06066 1.06066 
C 1.341951 0.77937 1.5 0.397805 1.5 0 
C 1.5 -0.397805 1.341951 -0.77937 1.06066 -1.06066 
C 0.77937 -1.341951 0.397805 -1.5 0 -1.5 
C -0.397805 -1.5 -0.77937 -1.341951 -1.06066 -1.06066 
C -1.341951 -0.77937 -1.5 -0.397805 -1.5 0 
C -1.5 0.397805 -1.341951 0.77937 -1.06066 1.06066 
C -0.77937 1.341951 -0.397805 1.5 0 1.5 
z
" id="m2b5b5f9a40" style="stroke:#3f3f3f;"/>
    </defs>
    <g clip-path="url(#p4a077d9ee6)">
     <use style="fill:#ffffff;stroke:#3f3f3f;" x="104.22" xlink:href="#m2b5b5f9a40" y="123.606028"/>
    </g>
   </g>
   <g id="PathCollection_2">
    <g clip-path="url(#p4a077d9ee6)">
     <use style="fill:#ffffff;stroke:#3f3f3f;" x="338.58" xlink:href="#m2b5b5f9a40" y="119.007021"/>
    </g>
   </g>
   <g id="legend_1">
    <g id="patch_9">
     <path d="M 61 247 
L 127.759375 247 
Q 129.759375 247 129.759375 245 
L 129.759375 201.409375 
Q 129.759375 199.409375 127.759375 199.409375 
L 61 199.409375 
Q 59 199.409375 59 201.409375 
L 59 245 
Q 59 247 61 247 
z
" style="fill:#ffffff;opacity:0.8;stroke:#cccccc;stroke-linejoin:miter;"/>
    </g>
    <g id="text_13">
     <!-- set -->
     <g transform="translate(86.738281 211.007812)scale(0.1 -0.1)">
      <use xlink:href="#DejaVuSans-115"/>
      <use x="52.099609" xlink:href="#DejaVuSans-101"/>
      <use x="113.623047" xlink:href="#DejaVuSans-116"/>
     </g>
    </g>
    <g id="patch_10">
     <path d="M 63 225.685937 
L 83 225.685937 
L 83 218.685937 
L 63 218.685937 
z
" style="fill:#3274a1;stroke:#3f3f3f;stroke-linejoin:miter;stroke-width:0.75;"/>
    </g>
    <g id="text_14">
     <!-- Z_2_ns -->
     <g transform="translate(91 225.685937)scale(0.1 -0.1)">
      <use xlink:href="#DejaVuSans-90"/>
      <use x="68.505859" xlink:href="#DejaVuSans-95"/>
      <use x="118.505859" xlink:href="#DejaVuSans-50"/>
      <use x="182.128906" xlink:href="#DejaVuSans-95"/>
      <use x="232.128906" xlink:href="#DejaVuSans-110"/>
      <use x="295.507812" xlink:href="#DejaVuSans-115"/>
     </g>
    </g>
    <g id="patch_11">
     <path d="M 63 240.642188 
L 83 240.642188 
L 83 233.642188 
L 63 233.642188 
z
" style="fill:#e1812c;stroke:#3f3f3f;stroke-linejoin:miter;stroke-width:0.75;"/>
    </g>
    <g id="text_15">
     <!-- Z_3_ns -->
     <g transform="translate(91 240.642188)scale(0.1 -0.1)">
      <use xlink:href="#DejaVuSans-90"/>
      <use x="68.505859" xlink:href="#DejaVuSans-95"/>
      <use x="118.505859" xlink:href="#DejaVuSans-51"/>
      <use x="182.128906" xlink:href="#DejaVuSans-95"/>
      <use x="232.128906" xlink:href="#DejaVuSans-110"/>
      <use x="295.507812" xlink:href="#DejaVuSans-115"/>
     </g>
    </g>
   </g>
  </g>
 </g>
 <defs>
  <clipPath id="p4a077d9ee6">
   <rect height="217.44" width="334.8" x="54" y="34.56"/>
  </clipPath>
 </defs>
</svg>
