<?xml version="1.0" encoding="utf-8" standalone="no"?>
<!DOCTYPE svg PUBLIC "-//W3C//DTD SVG 1.1//EN"
  "http://www.w3.org/Graphics/SVG/1.1/DTD/svg11.dtd">
<!-- Created with matplotlib (https://matplotlib.org/) -->
<svg height="288pt" version="1.1" viewBox="0 0 432 288" width="432pt" xmlns="http://www.w3.org/2000/svg" xmlns:xlink="http://www.w3.org/1999/xlink">
 <metadata>
  <rdf:RDF xmlns:cc="http://creativecommons.org/ns#" xmlns:dc="http://purl.org/dc/elements/1.1/" xmlns:rdf="http://www.w3.org/1999/02/22-rdf-syntax-ns#">
   <cc:Work>
    <dc:type rdf:resource="http://purl.org/dc/dcmitype/StillImage"/>
    <dc:date>2022-05-12T13:08:32.531833</dc:date>
    <dc:format>image/svg+xml</dc:format>
    <dc:creator>
     <cc:Agent>
      <dc:title>Matplotlib v3.3.4, https://matplotlib.org/</dc:title>
     </cc:Agent>
    </dc:creator>
   </cc:Work>
  </rdf:RDF>
 </metadata>
 <defs>
  <style type="text/css">*{stroke-linecap:butt;stroke-linejoin:round;}</style>
 </defs>
 <g id="figure_1">
  <g id="patch_1">
   <path d="M 0 288 
L 432 288 
L 432 0 
L 0 0 
z
" style="fill:#ffffff;"/>
  </g>
  <g id="axes_1">
   <g id="patch_2">
    <path d="M 54 252 
L 388.8 252 
L 388.8 34.56 
L 54 34.56 
z
" style="fill:#ffffff;"/>
   </g>
   <g id="PolyCollection_1">
    <defs>
     <path d="M 104.448349 -52.668543 
L 103.991651 -52.668543 
L 103.94502 -54.101216 
L 103.89834 -55.533889 
L 103.845756 -56.966563 
L 103.777761 -58.399236 
L 103.683357 -59.831909 
L 103.552331 -61.264582 
L 103.376747 -62.697256 
L 103.151555 -64.129929 
L 102.874579 -65.562602 
L 102.545586 -66.995275 
L 102.163732 -68.427949 
L 101.723496 -69.860622 
L 101.211238 -71.293295 
L 100.605647 -72.725968 
L 99.883698 -74.158642 
L 99.029846 -75.591315 
L 98.043261 -77.023988 
L 96.938657 -78.456661 
L 95.740603 -79.889335 
L 94.475479 -81.322008 
L 93.166211 -82.754681 
L 91.832068 -84.187354 
L 90.491803 -85.620028 
L 89.166464 -87.052701 
L 87.87912 -88.485374 
L 86.650991 -89.918047 
L 85.495408 -91.350721 
L 84.412132 -92.783394 
L 83.385273 -94.216067 
L 82.38779 -95.64874 
L 81.392769 -97.081414 
L 80.386539 -98.514087 
L 79.374694 -99.94676 
L 78.374527 -101.379433 
L 77.397164 -102.812107 
L 76.433079 -104.24478 
L 75.455549 -105.677453 
L 74.444681 -107.110126 
L 73.417743 -108.5428 
L 72.443229 -109.975473 
L 71.623972 -111.408146 
L 71.054086 -112.840819 
L 70.772487 -114.273493 
L 70.74 -115.706166 
L 70.854499 -117.138839 
L 70.996919 -118.571512 
L 71.083804 -120.004186 
L 71.099834 -121.436859 
L 71.096975 -122.869532 
L 71.165765 -124.302205 
L 71.396182 -125.734879 
L 71.84492 -127.167552 
L 72.517461 -128.600225 
L 73.365848 -130.032898 
L 74.301125 -131.465572 
L 75.219556 -132.898245 
L 76.038435 -134.330918 
L 76.729967 -135.763591 
L 77.336869 -137.196265 
L 77.958214 -138.628938 
L 78.708685 -140.061611 
L 79.669669 -141.494284 
L 80.855626 -142.926958 
L 82.210644 -144.359631 
L 83.634311 -145.792304 
L 85.022902 -147.224977 
L 86.307184 -148.657651 
L 87.472134 -150.090324 
L 88.553149 -151.522997 
L 89.613546 -152.95567 
L 90.714866 -154.388344 
L 91.892353 -155.821017 
L 93.14356 -157.25369 
L 94.431707 -158.686363 
L 95.700037 -160.119037 
L 96.890533 -161.55171 
L 97.959978 -162.984383 
L 98.888428 -164.417056 
L 99.678771 -165.84973 
L 100.349656 -167.282403 
L 100.925762 -168.715076 
L 101.429103 -170.147749 
L 101.873706 -171.580423 
L 102.264737 -173.013096 
L 102.601622 -174.445769 
L 102.883136 -175.878442 
L 103.111495 -177.311116 
L 103.293504 -178.743789 
L 103.439019 -180.176462 
L 103.558489 -181.609135 
L 103.661042 -183.041809 
L 103.753305 -184.474482 
L 103.83861 -185.907155 
L 103.916791 -187.339828 
L 103.985163 -188.772502 
L 104.040685 -190.205175 
L 104.082249 -191.637848 
L 104.111681 -193.070521 
L 104.132898 -194.503195 
L 104.307102 -194.503195 
L 104.307102 -194.503195 
L 104.328319 -193.070521 
L 104.357751 -191.637848 
L 104.399315 -190.205175 
L 104.454837 -188.772502 
L 104.523209 -187.339828 
L 104.60139 -185.907155 
L 104.686695 -184.474482 
L 104.778958 -183.041809 
L 104.881511 -181.609135 
L 105.000981 -180.176462 
L 105.146496 -178.743789 
L 105.328505 -177.311116 
L 105.556864 -175.878442 
L 105.838378 -174.445769 
L 106.175263 -173.013096 
L 106.566294 -171.580423 
L 107.010897 -170.147749 
L 107.514238 -168.715076 
L 108.090344 -167.282403 
L 108.761229 -165.84973 
L 109.551572 -164.417056 
L 110.480022 -162.984383 
L 111.549467 -161.55171 
L 112.739963 -160.119037 
L 114.008293 -158.686363 
L 115.29644 -157.25369 
L 116.547647 -155.821017 
L 117.725134 -154.388344 
L 118.826454 -152.95567 
L 119.886851 -151.522997 
L 120.967866 -150.090324 
L 122.132816 -148.657651 
L 123.417098 -147.224977 
L 124.805689 -145.792304 
L 126.229356 -144.359631 
L 127.584374 -142.926958 
L 128.770331 -141.494284 
L 129.731315 -140.061611 
L 130.481786 -138.628938 
L 131.103131 -137.196265 
L 131.710033 -135.763591 
L 132.401565 -134.330918 
L 133.220444 -132.898245 
L 134.138875 -131.465572 
L 135.074152 -130.032898 
L 135.922539 -128.600225 
L 136.59508 -127.167552 
L 137.043818 -125.734879 
L 137.274235 -124.302205 
L 137.343025 -122.869532 
L 137.340166 -121.436859 
L 137.356196 -120.004186 
L 137.443081 -118.571512 
L 137.585501 -117.138839 
L 137.7 -115.706166 
L 137.667513 -114.273493 
L 137.385914 -112.840819 
L 136.816028 -111.408146 
L 135.996771 -109.975473 
L 135.022257 -108.5428 
L 133.995319 -107.110126 
L 132.984451 -105.677453 
L 132.006921 -104.24478 
L 131.042836 -102.812107 
L 130.065473 -101.379433 
L 129.065306 -99.94676 
L 128.053461 -98.514087 
L 127.047231 -97.081414 
L 126.05221 -95.64874 
L 125.054727 -94.216067 
L 124.027868 -92.783394 
L 122.944592 -91.350721 
L 121.789009 -89.918047 
L 120.56088 -88.485374 
L 119.273536 -87.052701 
L 117.948197 -85.620028 
L 116.607932 -84.187354 
L 115.273789 -82.754681 
L 113.964521 -81.322008 
L 112.699397 -79.889335 
L 111.501343 -78.456661 
L 110.396739 -77.023988 
L 109.410154 -75.591315 
L 108.556302 -74.158642 
L 107.834353 -72.725968 
L 107.228762 -71.293295 
L 106.716504 -69.860622 
L 106.276268 -68.427949 
L 105.894414 -66.995275 
L 105.565421 -65.562602 
L 105.288445 -64.129929 
L 105.063253 -62.697256 
L 104.887669 -61.264582 
L 104.756643 -59.831909 
L 104.662239 -58.399236 
L 104.594244 -56.966563 
L 104.54166 -55.533889 
L 104.49498 -54.101216 
L 104.448349 -52.668543 
z
" id="m60f4969922" style="stroke:#3f3f3f;stroke-width:1.5;"/>
    </defs>
    <g clip-path="url(#pc3d9f0ad71)">
     <use style="fill:#3274a1;stroke:#3f3f3f;stroke-width:1.5;" x="0" xlink:href="#m60f4969922" y="288"/>
    </g>
   </g>
   <g id="PolyCollection_2">
    <defs>
     <path d="M 338.660567 -45.883636 
L 338.499433 -45.883636 
L 338.487872 -47.880331 
L 338.479605 -49.877025 
L 338.468078 -51.873719 
L 338.440644 -53.870413 
L 338.379872 -55.867107 
L 338.268739 -57.863802 
L 338.097556 -59.860496 
L 337.866772 -61.85719 
L 337.582056 -63.853884 
L 337.244967 -65.850579 
L 336.847144 -67.847273 
L 336.374081 -69.843967 
L 335.817033 -71.840661 
L 335.1829 -73.837355 
L 334.490364 -75.83405 
L 333.751844 -77.830744 
L 332.956211 -79.827438 
L 332.069008 -81.824132 
L 331.051438 -83.820826 
L 329.883076 -85.817521 
L 328.571967 -87.814215 
L 327.148318 -89.810909 
L 325.650454 -91.807603 
L 324.112934 -93.804298 
L 322.55946 -95.800992 
L 320.999187 -97.797686 
L 319.428145 -99.79438 
L 317.838571 -101.791074 
L 316.231057 -103.787769 
L 314.617536 -105.784463 
L 313.013473 -107.781157 
L 311.437033 -109.777851 
L 309.927945 -111.774545 
L 308.564439 -113.77124 
L 307.44249 -115.767934 
L 306.619512 -117.764628 
L 306.070763 -119.761322 
L 305.702427 -121.758017 
L 305.417694 -123.754711 
L 305.191234 -125.751405 
L 305.1 -127.748099 
L 305.280893 -129.744793 
L 305.831257 -131.741488 
L 306.719423 -133.738182 
L 307.784534 -135.734876 
L 308.84064 -137.73157 
L 309.801618 -139.728264 
L 310.717688 -141.724959 
L 311.703724 -143.721653 
L 312.846172 -145.718347 
L 314.174679 -147.715041 
L 315.691053 -149.711736 
L 317.390416 -151.70843 
L 319.248673 -153.705124 
L 321.20942 -155.701818 
L 323.197237 -157.698512 
L 325.140646 -159.695207 
L 326.979689 -161.691901 
L 328.660641 -163.688595 
L 330.136034 -165.685289 
L 331.377997 -167.681983 
L 332.395142 -169.678678 
L 333.233538 -171.675372 
L 333.952236 -173.672066 
L 334.59 -175.66876 
L 335.152998 -177.665455 
L 335.632611 -179.662149 
L 336.031368 -181.658843 
L 336.370765 -183.655537 
L 336.678079 -185.652231 
L 336.969078 -187.648926 
L 337.241322 -189.64562 
L 337.479704 -191.642314 
L 337.668525 -193.639008 
L 337.8036 -195.635702 
L 337.89747 -197.632397 
L 337.972832 -199.629091 
L 338.047871 -201.625785 
L 338.125877 -203.622479 
L 338.198433 -205.619174 
L 338.258041 -207.615868 
L 338.306891 -209.612562 
L 338.35384 -211.609256 
L 338.404575 -213.60595 
L 338.455815 -215.602645 
L 338.498342 -217.599339 
L 338.524447 -219.596033 
L 338.533044 -221.592727 
L 338.529751 -223.589421 
L 338.523274 -225.586116 
L 338.520491 -227.58281 
L 338.522765 -229.579504 
L 338.525816 -231.576198 
L 338.523463 -233.572893 
L 338.512688 -235.569587 
L 338.496357 -237.566281 
L 338.481843 -239.562975 
L 338.476725 -241.559669 
L 338.484515 -243.556364 
L 338.675485 -243.556364 
L 338.675485 -243.556364 
L 338.683275 -241.559669 
L 338.678157 -239.562975 
L 338.663643 -237.566281 
L 338.647312 -235.569587 
L 338.636537 -233.572893 
L 338.634184 -231.576198 
L 338.637235 -229.579504 
L 338.639509 -227.58281 
L 338.636726 -225.586116 
L 338.630249 -223.589421 
L 338.626956 -221.592727 
L 338.635553 -219.596033 
L 338.661658 -217.599339 
L 338.704185 -215.602645 
L 338.755425 -213.60595 
L 338.80616 -211.609256 
L 338.853109 -209.612562 
L 338.901959 -207.615868 
L 338.961567 -205.619174 
L 339.034123 -203.622479 
L 339.112129 -201.625785 
L 339.187168 -199.629091 
L 339.26253 -197.632397 
L 339.3564 -195.635702 
L 339.491475 -193.639008 
L 339.680296 -191.642314 
L 339.918678 -189.64562 
L 340.190922 -187.648926 
L 340.481921 -185.652231 
L 340.789235 -183.655537 
L 341.128632 -181.658843 
L 341.527389 -179.662149 
L 342.007002 -177.665455 
L 342.57 -175.66876 
L 343.207764 -173.672066 
L 343.926462 -171.675372 
L 344.764858 -169.678678 
L 345.782003 -167.681983 
L 347.023966 -165.685289 
L 348.499359 -163.688595 
L 350.180311 -161.691901 
L 352.019354 -159.695207 
L 353.962763 -157.698512 
L 355.95058 -155.701818 
L 357.911327 -153.705124 
L 359.769584 -151.70843 
L 361.468947 -149.711736 
L 362.985321 -147.715041 
L 364.313828 -145.718347 
L 365.456276 -143.721653 
L 366.442312 -141.724959 
L 367.358382 -139.728264 
L 368.31936 -137.73157 
L 369.375466 -135.734876 
L 370.440577 -133.738182 
L 371.328743 -131.741488 
L 371.879107 -129.744793 
L 372.06 -127.748099 
L 371.968766 -125.751405 
L 371.742306 -123.754711 
L 371.457573 -121.758017 
L 371.089237 -119.761322 
L 370.540488 -117.764628 
L 369.71751 -115.767934 
L 368.595561 -113.77124 
L 367.232055 -111.774545 
L 365.722967 -109.777851 
L 364.146527 -107.781157 
L 362.542464 -105.784463 
L 360.928943 -103.787769 
L 359.321429 -101.791074 
L 357.731855 -99.79438 
L 356.160813 -97.797686 
L 354.60054 -95.800992 
L 353.047066 -93.804298 
L 351.509546 -91.807603 
L 350.011682 -89.810909 
L 348.588033 -87.814215 
L 347.276924 -85.817521 
L 346.108562 -83.820826 
L 345.090992 -81.824132 
L 344.203789 -79.827438 
L 343.408156 -77.830744 
L 342.669636 -75.83405 
L 341.9771 -73.837355 
L 341.342967 -71.840661 
L 340.785919 -69.843967 
L 340.312856 -67.847273 
L 339.915033 -65.850579 
L 339.577944 -63.853884 
L 339.293228 -61.85719 
L 339.062444 -59.860496 
L 338.891261 -57.863802 
L 338.780128 -55.867107 
L 338.719356 -53.870413 
L 338.691922 -51.873719 
L 338.680395 -49.877025 
L 338.672128 -47.880331 
L 338.660567 -45.883636 
z
" id="mfb69b2a467" style="stroke:#3f3f3f;stroke-width:1.5;"/>
    </defs>
    <g clip-path="url(#pc3d9f0ad71)">
     <use style="fill:#e1812c;stroke:#3f3f3f;stroke-width:1.5;" x="0" xlink:href="#mfb69b2a467" y="288"/>
    </g>
   </g>
   <g id="patch_3">
    <path clip-path="url(#pc3d9f0ad71)" d="M 137.7 183.196319 
L 137.7 183.196319 
L 137.7 183.196319 
L 137.7 183.196319 
z
" style="fill:#3274a1;stroke:#3f3f3f;stroke-linejoin:miter;stroke-width:0.75;"/>
   </g>
   <g id="patch_4">
    <path clip-path="url(#pc3d9f0ad71)" d="M 137.7 183.196319 
L 137.7 183.196319 
L 137.7 183.196319 
L 137.7 183.196319 
z
" style="fill:#e1812c;stroke:#3f3f3f;stroke-linejoin:miter;stroke-width:0.75;"/>
   </g>
   <g id="matplotlib.axis_1">
    <g id="xtick_1">
     <g id="line2d_1">
      <defs>
       <path d="M 0 0 
L 0 3.5 
" id="m3fb5b12859" style="stroke:#000000;stroke-width:0.8;"/>
      </defs>
      <g>
       <use style="stroke:#000000;stroke-width:0.8;" x="137.7" xlink:href="#m3fb5b12859" y="252"/>
      </g>
     </g>
     <g id="text_1">
      <!-- Z_2_ns -->
      <g transform="translate(120.320312 266.421875)scale(0.1 -0.1)">
       <defs>
        <path d="M 5.609375 72.90625 
L 62.890625 72.90625 
L 62.890625 65.375 
L 16.796875 8.296875 
L 64.015625 8.296875 
L 64.015625 0 
L 4.5 0 
L 4.5 7.515625 
L 50.59375 64.59375 
L 5.609375 64.59375 
z
" id="DejaVuSans-90"/>
        <path d="M 50.984375 -16.609375 
L 50.984375 -23.578125 
L -0.984375 -23.578125 
L -0.984375 -16.609375 
z
" id="DejaVuSans-95"/>
        <path d="M 19.1875 8.296875 
L 53.609375 8.296875 
L 53.609375 0 
L 7.328125 0 
L 7.328125 8.296875 
Q 12.9375 14.109375 22.625 23.890625 
Q 32.328125 33.6875 34.8125 36.53125 
Q 39.546875 41.84375 41.421875 45.53125 
Q 43.3125 49.21875 43.3125 52.78125 
Q 43.3125 58.59375 39.234375 62.25 
Q 35.15625 65.921875 28.609375 65.921875 
Q 23.96875 65.921875 18.8125 64.3125 
Q 13.671875 62.703125 7.8125 59.421875 
L 7.8125 69.390625 
Q 13.765625 71.78125 18.9375 73 
Q 24.125 74.21875 28.421875 74.21875 
Q 39.75 74.21875 46.484375 68.546875 
Q 53.21875 62.890625 53.21875 53.421875 
Q 53.21875 48.921875 51.53125 44.890625 
Q 49.859375 40.875 45.40625 35.40625 
Q 44.1875 33.984375 37.640625 27.21875 
Q 31.109375 20.453125 19.1875 8.296875 
z
" id="DejaVuSans-50"/>
        <path d="M 54.890625 33.015625 
L 54.890625 0 
L 45.90625 0 
L 45.90625 32.71875 
Q 45.90625 40.484375 42.875 44.328125 
Q 39.84375 48.1875 33.796875 48.1875 
Q 26.515625 48.1875 22.3125 43.546875 
Q 18.109375 38.921875 18.109375 30.90625 
L 18.109375 0 
L 9.078125 0 
L 9.078125 54.6875 
L 18.109375 54.6875 
L 18.109375 46.1875 
Q 21.34375 51.125 25.703125 53.5625 
Q 30.078125 56 35.796875 56 
Q 45.21875 56 50.046875 50.171875 
Q 54.890625 44.34375 54.890625 33.015625 
z
" id="DejaVuSans-110"/>
        <path d="M 44.28125 53.078125 
L 44.28125 44.578125 
Q 40.484375 46.53125 36.375 47.5 
Q 32.28125 48.484375 27.875 48.484375 
Q 21.1875 48.484375 17.84375 46.4375 
Q 14.5 44.390625 14.5 40.28125 
Q 14.5 37.15625 16.890625 35.375 
Q 19.28125 33.59375 26.515625 31.984375 
L 29.59375 31.296875 
Q 39.15625 29.25 43.1875 25.515625 
Q 47.21875 21.78125 47.21875 15.09375 
Q 47.21875 7.46875 41.1875 3.015625 
Q 35.15625 -1.421875 24.609375 -1.421875 
Q 20.21875 -1.421875 15.453125 -0.5625 
Q 10.6875 0.296875 5.421875 2 
L 5.421875 11.28125 
Q 10.40625 8.6875 15.234375 7.390625 
Q 20.0625 6.109375 24.8125 6.109375 
Q 31.15625 6.109375 34.5625 8.28125 
Q 37.984375 10.453125 37.984375 14.40625 
Q 37.984375 18.0625 35.515625 20.015625 
Q 33.0625 21.96875 24.703125 23.78125 
L 21.578125 24.515625 
Q 13.234375 26.265625 9.515625 29.90625 
Q 5.8125 33.546875 5.8125 39.890625 
Q 5.8125 47.609375 11.28125 51.796875 
Q 16.75 56 26.8125 56 
Q 31.78125 56 36.171875 55.265625 
Q 40.578125 54.546875 44.28125 53.078125 
z
" id="DejaVuSans-115"/>
       </defs>
       <use xlink:href="#DejaVuSans-90"/>
       <use x="68.505859" xlink:href="#DejaVuSans-95"/>
       <use x="118.505859" xlink:href="#DejaVuSans-50"/>
       <use x="182.128906" xlink:href="#DejaVuSans-95"/>
       <use x="232.128906" xlink:href="#DejaVuSans-110"/>
       <use x="295.507812" xlink:href="#DejaVuSans-115"/>
      </g>
     </g>
    </g>
    <g id="xtick_2">
     <g id="line2d_2">
      <g>
       <use style="stroke:#000000;stroke-width:0.8;" x="305.1" xlink:href="#m3fb5b12859" y="252"/>
      </g>
     </g>
     <g id="text_2">
      <!-- Z_3_ns -->
      <g transform="translate(287.720313 266.421875)scale(0.1 -0.1)">
       <defs>
        <path d="M 40.578125 39.3125 
Q 47.65625 37.796875 51.625 33 
Q 55.609375 28.21875 55.609375 21.1875 
Q 55.609375 10.40625 48.1875 4.484375 
Q 40.765625 -1.421875 27.09375 -1.421875 
Q 22.515625 -1.421875 17.65625 -0.515625 
Q 12.796875 0.390625 7.625 2.203125 
L 7.625 11.71875 
Q 11.71875 9.328125 16.59375 8.109375 
Q 21.484375 6.890625 26.8125 6.890625 
Q 36.078125 6.890625 40.9375 10.546875 
Q 45.796875 14.203125 45.796875 21.1875 
Q 45.796875 27.640625 41.28125 31.265625 
Q 36.765625 34.90625 28.71875 34.90625 
L 20.21875 34.90625 
L 20.21875 43.015625 
L 29.109375 43.015625 
Q 36.375 43.015625 40.234375 45.921875 
Q 44.09375 48.828125 44.09375 54.296875 
Q 44.09375 59.90625 40.109375 62.90625 
Q 36.140625 65.921875 28.71875 65.921875 
Q 24.65625 65.921875 20.015625 65.03125 
Q 15.375 64.15625 9.8125 62.3125 
L 9.8125 71.09375 
Q 15.4375 72.65625 20.34375 73.4375 
Q 25.25 74.21875 29.59375 74.21875 
Q 40.828125 74.21875 47.359375 69.109375 
Q 53.90625 64.015625 53.90625 55.328125 
Q 53.90625 49.265625 50.4375 45.09375 
Q 46.96875 40.921875 40.578125 39.3125 
z
" id="DejaVuSans-51"/>
       </defs>
       <use xlink:href="#DejaVuSans-90"/>
       <use x="68.505859" xlink:href="#DejaVuSans-95"/>
       <use x="118.505859" xlink:href="#DejaVuSans-51"/>
       <use x="182.128906" xlink:href="#DejaVuSans-95"/>
       <use x="232.128906" xlink:href="#DejaVuSans-110"/>
       <use x="295.507812" xlink:href="#DejaVuSans-115"/>
      </g>
     </g>
    </g>
    <g id="text_3">
     <!-- set -->
     <g transform="translate(213.758594 280.378125)scale(0.1 -0.1)">
      <defs>
       <path d="M 56.203125 29.59375 
L 56.203125 25.203125 
L 14.890625 25.203125 
Q 15.484375 15.921875 20.484375 11.0625 
Q 25.484375 6.203125 34.421875 6.203125 
Q 39.59375 6.203125 44.453125 7.46875 
Q 49.3125 8.734375 54.109375 11.28125 
L 54.109375 2.78125 
Q 49.265625 0.734375 44.1875 -0.34375 
Q 39.109375 -1.421875 33.890625 -1.421875 
Q 20.796875 -1.421875 13.15625 6.1875 
Q 5.515625 13.8125 5.515625 26.8125 
Q 5.515625 40.234375 12.765625 48.109375 
Q 20.015625 56 32.328125 56 
Q 43.359375 56 49.78125 48.890625 
Q 56.203125 41.796875 56.203125 29.59375 
z
M 47.21875 32.234375 
Q 47.125 39.59375 43.09375 43.984375 
Q 39.0625 48.390625 32.421875 48.390625 
Q 24.90625 48.390625 20.390625 44.140625 
Q 15.875 39.890625 15.1875 32.171875 
z
" id="DejaVuSans-101"/>
       <path d="M 18.3125 70.21875 
L 18.3125 54.6875 
L 36.8125 54.6875 
L 36.8125 47.703125 
L 18.3125 47.703125 
L 18.3125 18.015625 
Q 18.3125 11.328125 20.140625 9.421875 
Q 21.96875 7.515625 27.59375 7.515625 
L 36.8125 7.515625 
L 36.8125 0 
L 27.59375 0 
Q 17.1875 0 13.234375 3.875 
Q 9.28125 7.765625 9.28125 18.015625 
L 9.28125 47.703125 
L 2.6875 47.703125 
L 2.6875 54.6875 
L 9.28125 54.6875 
L 9.28125 70.21875 
z
" id="DejaVuSans-116"/>
      </defs>
      <use xlink:href="#DejaVuSans-115"/>
      <use x="52.099609" xlink:href="#DejaVuSans-101"/>
      <use x="113.623047" xlink:href="#DejaVuSans-116"/>
     </g>
    </g>
   </g>
   <g id="matplotlib.axis_2">
    <g id="ytick_1">
     <g id="line2d_3">
      <defs>
       <path d="M 0 0 
L -3.5 0 
" id="mdcdbba4966" style="stroke:#000000;stroke-width:0.8;"/>
      </defs>
      <g>
       <use style="stroke:#000000;stroke-width:0.8;" x="54" xlink:href="#mdcdbba4966" y="230.171255"/>
      </g>
     </g>
     <g id="text_4">
      <!-- −10 -->
      <g transform="translate(25.895312 233.970474)scale(0.1 -0.1)">
       <defs>
        <path d="M 10.59375 35.5 
L 73.1875 35.5 
L 73.1875 27.203125 
L 10.59375 27.203125 
z
" id="DejaVuSans-8722"/>
        <path d="M 12.40625 8.296875 
L 28.515625 8.296875 
L 28.515625 63.921875 
L 10.984375 60.40625 
L 10.984375 69.390625 
L 28.421875 72.90625 
L 38.28125 72.90625 
L 38.28125 8.296875 
L 54.390625 8.296875 
L 54.390625 0 
L 12.40625 0 
z
" id="DejaVuSans-49"/>
        <path d="M 31.78125 66.40625 
Q 24.171875 66.40625 20.328125 58.90625 
Q 16.5 51.421875 16.5 36.375 
Q 16.5 21.390625 20.328125 13.890625 
Q 24.171875 6.390625 31.78125 6.390625 
Q 39.453125 6.390625 43.28125 13.890625 
Q 47.125 21.390625 47.125 36.375 
Q 47.125 51.421875 43.28125 58.90625 
Q 39.453125 66.40625 31.78125 66.40625 
z
M 31.78125 74.21875 
Q 44.046875 74.21875 50.515625 64.515625 
Q 56.984375 54.828125 56.984375 36.375 
Q 56.984375 17.96875 50.515625 8.265625 
Q 44.046875 -1.421875 31.78125 -1.421875 
Q 19.53125 -1.421875 13.0625 8.265625 
Q 6.59375 17.96875 6.59375 36.375 
Q 6.59375 54.828125 13.0625 64.515625 
Q 19.53125 74.21875 31.78125 74.21875 
z
" id="DejaVuSans-48"/>
       </defs>
       <use xlink:href="#DejaVuSans-8722"/>
       <use x="83.789062" xlink:href="#DejaVuSans-49"/>
       <use x="147.412109" xlink:href="#DejaVuSans-48"/>
      </g>
     </g>
    </g>
    <g id="ytick_2">
     <g id="line2d_4">
      <g>
       <use style="stroke:#000000;stroke-width:0.8;" x="54" xlink:href="#mdcdbba4966" y="183.196319"/>
      </g>
     </g>
     <g id="text_5">
      <!-- 0 -->
      <g transform="translate(40.6375 186.995538)scale(0.1 -0.1)">
       <use xlink:href="#DejaVuSans-48"/>
      </g>
     </g>
    </g>
    <g id="ytick_3">
     <g id="line2d_5">
      <g>
       <use style="stroke:#000000;stroke-width:0.8;" x="54" xlink:href="#mdcdbba4966" y="136.221384"/>
      </g>
     </g>
     <g id="text_6">
      <!-- 10 -->
      <g transform="translate(34.275 140.020603)scale(0.1 -0.1)">
       <use xlink:href="#DejaVuSans-49"/>
       <use x="63.623047" xlink:href="#DejaVuSans-48"/>
      </g>
     </g>
    </g>
    <g id="ytick_4">
     <g id="line2d_6">
      <g>
       <use style="stroke:#000000;stroke-width:0.8;" x="54" xlink:href="#mdcdbba4966" y="89.246449"/>
      </g>
     </g>
     <g id="text_7">
      <!-- 20 -->
      <g transform="translate(34.275 93.045667)scale(0.1 -0.1)">
       <use xlink:href="#DejaVuSans-50"/>
       <use x="63.623047" xlink:href="#DejaVuSans-48"/>
      </g>
     </g>
    </g>
    <g id="ytick_5">
     <g id="line2d_7">
      <g>
       <use style="stroke:#000000;stroke-width:0.8;" x="54" xlink:href="#mdcdbba4966" y="42.271513"/>
      </g>
     </g>
     <g id="text_8">
      <!-- 30 -->
      <g transform="translate(34.275 46.070732)scale(0.1 -0.1)">
       <use xlink:href="#DejaVuSans-51"/>
       <use x="63.623047" xlink:href="#DejaVuSans-48"/>
      </g>
     </g>
    </g>
    <g id="text_9">
     <!-- value -->
     <g transform="translate(19.815625 156.937813)rotate(-90)scale(0.1 -0.1)">
      <defs>
       <path d="M 2.984375 54.6875 
L 12.5 54.6875 
L 29.59375 8.796875 
L 46.6875 54.6875 
L 56.203125 54.6875 
L 35.6875 0 
L 23.484375 0 
z
" id="DejaVuSans-118"/>
       <path d="M 34.28125 27.484375 
Q 23.390625 27.484375 19.1875 25 
Q 14.984375 22.515625 14.984375 16.5 
Q 14.984375 11.71875 18.140625 8.90625 
Q 21.296875 6.109375 26.703125 6.109375 
Q 34.1875 6.109375 38.703125 11.40625 
Q 43.21875 16.703125 43.21875 25.484375 
L 43.21875 27.484375 
z
M 52.203125 31.203125 
L 52.203125 0 
L 43.21875 0 
L 43.21875 8.296875 
Q 40.140625 3.328125 35.546875 0.953125 
Q 30.953125 -1.421875 24.3125 -1.421875 
Q 15.921875 -1.421875 10.953125 3.296875 
Q 6 8.015625 6 15.921875 
Q 6 25.140625 12.171875 29.828125 
Q 18.359375 34.515625 30.609375 34.515625 
L 43.21875 34.515625 
L 43.21875 35.40625 
Q 43.21875 41.609375 39.140625 45 
Q 35.0625 48.390625 27.6875 48.390625 
Q 23 48.390625 18.546875 47.265625 
Q 14.109375 46.140625 10.015625 43.890625 
L 10.015625 52.203125 
Q 14.9375 54.109375 19.578125 55.046875 
Q 24.21875 56 28.609375 56 
Q 40.484375 56 46.34375 49.84375 
Q 52.203125 43.703125 52.203125 31.203125 
z
" id="DejaVuSans-97"/>
       <path d="M 9.421875 75.984375 
L 18.40625 75.984375 
L 18.40625 0 
L 9.421875 0 
z
" id="DejaVuSans-108"/>
       <path d="M 8.5 21.578125 
L 8.5 54.6875 
L 17.484375 54.6875 
L 17.484375 21.921875 
Q 17.484375 14.15625 20.5 10.265625 
Q 23.53125 6.390625 29.59375 6.390625 
Q 36.859375 6.390625 41.078125 11.03125 
Q 45.3125 15.671875 45.3125 23.6875 
L 45.3125 54.6875 
L 54.296875 54.6875 
L 54.296875 0 
L 45.3125 0 
L 45.3125 8.40625 
Q 42.046875 3.421875 37.71875 1 
Q 33.40625 -1.421875 27.6875 -1.421875 
Q 18.265625 -1.421875 13.375 4.4375 
Q 8.5 10.296875 8.5 21.578125 
z
M 31.109375 56 
z
" id="DejaVuSans-117"/>
      </defs>
      <use xlink:href="#DejaVuSans-118"/>
      <use x="59.179688" xlink:href="#DejaVuSans-97"/>
      <use x="120.458984" xlink:href="#DejaVuSans-108"/>
      <use x="148.242188" xlink:href="#DejaVuSans-117"/>
      <use x="211.621094" xlink:href="#DejaVuSans-101"/>
     </g>
    </g>
   </g>
   <g id="line2d_8">
    <path clip-path="url(#pc3d9f0ad71)" d="M 104.22 231.852607 
L 104.22 102.619783 
" style="fill:none;stroke:#3f3f3f;stroke-linecap:square;stroke-width:1.5;"/>
   </g>
   <g id="line2d_9">
    <path clip-path="url(#pc3d9f0ad71)" d="M 104.22 184.253464 
L 104.22 151.502559 
" style="fill:none;stroke:#3f3f3f;stroke-linecap:square;stroke-width:4.5;"/>
   </g>
   <g id="line2d_10">
    <path clip-path="url(#pc3d9f0ad71)" d="M 338.58 226.311611 
L 338.58 97.016261 
" style="fill:none;stroke:#3f3f3f;stroke-linecap:square;stroke-width:1.5;"/>
   </g>
   <g id="line2d_11">
    <path clip-path="url(#pc3d9f0ad71)" d="M 338.58 177.769633 
L 338.58 145.250853 
" style="fill:none;stroke:#3f3f3f;stroke-linecap:square;stroke-width:4.5;"/>
   </g>
   <g id="patch_5">
    <path d="M 54 252 
L 54 34.56 
" style="fill:none;stroke:#000000;stroke-linecap:square;stroke-linejoin:miter;stroke-width:0.8;"/>
   </g>
   <g id="patch_6">
    <path d="M 388.8 252 
L 388.8 34.56 
" style="fill:none;stroke:#000000;stroke-linecap:square;stroke-linejoin:miter;stroke-width:0.8;"/>
   </g>
   <g id="patch_7">
    <path d="M 54 252 
L 388.8 252 
" style="fill:none;stroke:#000000;stroke-linecap:square;stroke-linejoin:miter;stroke-width:0.8;"/>
   </g>
   <g id="patch_8">
    <path d="M 54 34.56 
L 388.8 34.56 
" style="fill:none;stroke:#000000;stroke-linecap:square;stroke-linejoin:miter;stroke-width:0.8;"/>
   </g>
   <g id="PathCollection_1">
    <defs>
     <path d="M 0 1.5 
C 0.397805 1.5 0.77937 1.341951 1.06066 1.06066 
C 1.341951 0.77937 1.5 0.397805 1.5 0 
C 1.5 -0.397805 1.341951 -0.77937 1.06066 -1.06066 
C 0.77937 -1.341951 0.397805 -1.5 0 -1.5 
C -0.397805 -1.5 -0.77937 -1.341951 -1.06066 -1.06066 
C -1.341951 -0.77937 -1.5 -0.397805 -1.5 0 
C -1.5 0.397805 -1.341951 0.77937 -1.06066 1.06066 
C -0.77937 1.341951 -0.397805 1.5 0 1.5 
z
" id="ma5829d5698" style="stroke:#3f3f3f;"/>
    </defs>
    <g clip-path="url(#pc3d9f0ad71)">
     <use style="fill:#ffffff;stroke:#3f3f3f;" x="104.22" xlink:href="#ma5829d5698" y="168.02249"/>
    </g>
   </g>
   <g id="PathCollection_2">
    <g clip-path="url(#pc3d9f0ad71)">
     <use style="fill:#ffffff;stroke:#3f3f3f;" x="338.58" xlink:href="#ma5829d5698" y="161.453406"/>
    </g>
   </g>
   <g id="legend_1">
    <g id="patch_9">
     <path d="M 315.040625 87.150625 
L 381.8 87.150625 
Q 383.8 87.150625 383.8 85.150625 
L 383.8 41.56 
Q 383.8 39.56 381.8 39.56 
L 315.040625 39.56 
Q 313.040625 39.56 313.040625 41.56 
L 313.040625 85.150625 
Q 313.040625 87.150625 315.040625 87.150625 
z
" style="fill:#ffffff;opacity:0.8;stroke:#cccccc;stroke-linejoin:miter;"/>
    </g>
    <g id="text_10">
     <!-- set -->
     <g transform="translate(340.778906 51.158437)scale(0.1 -0.1)">
      <use xlink:href="#DejaVuSans-115"/>
      <use x="52.099609" xlink:href="#DejaVuSans-101"/>
      <use x="113.623047" xlink:href="#DejaVuSans-116"/>
     </g>
    </g>
    <g id="patch_10">
     <path d="M 317.040625 65.836562 
L 337.040625 65.836562 
L 337.040625 58.836562 
L 317.040625 58.836562 
z
" style="fill:#3274a1;stroke:#3f3f3f;stroke-linejoin:miter;stroke-width:0.75;"/>
    </g>
    <g id="text_11">
     <!-- Z_2_ns -->
     <g transform="translate(345.040625 65.836562)scale(0.1 -0.1)">
      <use xlink:href="#DejaVuSans-90"/>
      <use x="68.505859" xlink:href="#DejaVuSans-95"/>
      <use x="118.505859" xlink:href="#DejaVuSans-50"/>
      <use x="182.128906" xlink:href="#DejaVuSans-95"/>
      <use x="232.128906" xlink:href="#DejaVuSans-110"/>
      <use x="295.507812" xlink:href="#DejaVuSans-115"/>
     </g>
    </g>
    <g id="patch_11">
     <path d="M 317.040625 80.792812 
L 337.040625 80.792812 
L 337.040625 73.792812 
L 317.040625 73.792812 
z
" style="fill:#e1812c;stroke:#3f3f3f;stroke-linejoin:miter;stroke-width:0.75;"/>
    </g>
    <g id="text_12">
     <!-- Z_3_ns -->
     <g transform="translate(345.040625 80.792812)scale(0.1 -0.1)">
      <use xlink:href="#DejaVuSans-90"/>
      <use x="68.505859" xlink:href="#DejaVuSans-95"/>
      <use x="118.505859" xlink:href="#DejaVuSans-51"/>
      <use x="182.128906" xlink:href="#DejaVuSans-95"/>
      <use x="232.128906" xlink:href="#DejaVuSans-110"/>
      <use x="295.507812" xlink:href="#DejaVuSans-115"/>
     </g>
    </g>
   </g>
  </g>
 </g>
 <defs>
  <clipPath id="pc3d9f0ad71">
   <rect height="217.44" width="334.8" x="54" y="34.56"/>
  </clipPath>
 </defs>
</svg>
