<?xml version="1.0" encoding="utf-8" standalone="no"?>
<!DOCTYPE svg PUBLIC "-//W3C//DTD SVG 1.1//EN"
  "http://www.w3.org/Graphics/SVG/1.1/DTD/svg11.dtd">
<!-- Created with matplotlib (https://matplotlib.org/) -->
<svg height="288pt" version="1.1" viewBox="0 0 432 288" width="432pt" xmlns="http://www.w3.org/2000/svg" xmlns:xlink="http://www.w3.org/1999/xlink">
 <metadata>
  <rdf:RDF xmlns:cc="http://creativecommons.org/ns#" xmlns:dc="http://purl.org/dc/elements/1.1/" xmlns:rdf="http://www.w3.org/1999/02/22-rdf-syntax-ns#">
   <cc:Work>
    <dc:type rdf:resource="http://purl.org/dc/dcmitype/StillImage"/>
    <dc:date>2022-07-16T12:06:05.797493</dc:date>
    <dc:format>image/svg+xml</dc:format>
    <dc:creator>
     <cc:Agent>
      <dc:title>Matplotlib v3.3.4, https://matplotlib.org/</dc:title>
     </cc:Agent>
    </dc:creator>
   </cc:Work>
  </rdf:RDF>
 </metadata>
 <defs>
  <style type="text/css">*{stroke-linecap:butt;stroke-linejoin:round;}</style>
 </defs>
 <g id="figure_1">
  <g id="patch_1">
   <path d="M 0 288 
L 432 288 
L 432 0 
L 0 0 
z
" style="fill:#ffffff;"/>
  </g>
  <g id="axes_1">
   <g id="patch_2">
    <path d="M 54 252 
L 388.8 252 
L 388.8 34.56 
L 54 34.56 
z
" style="fill:#ffffff;"/>
   </g>
   <g id="PolyCollection_1">
    <defs>
     <path d="M 80.065037 -45.883636 
L 80.014963 -45.883636 
L 80.010016 -47.844324 
L 80.00251 -49.805012 
L 79.990353 -51.765699 
L 79.973713 -53.726387 
L 79.955784 -55.687074 
L 79.941185 -57.647762 
L 79.933077 -59.60845 
L 79.931234 -61.569137 
L 79.93248 -63.529825 
L 79.932916 -65.490512 
L 79.930193 -67.4512 
L 79.924599 -69.411888 
L 79.918783 -71.372575 
L 79.9165 -73.333263 
L 79.920732 -75.293951 
L 79.931805 -77.254638 
L 79.946744 -79.215326 
L 79.960739 -81.176013 
L 79.969836 -83.136701 
L 79.972419 -85.097389 
L 79.968033 -87.058076 
L 79.954797 -89.018764 
L 79.928379 -90.979451 
L 79.884297 -92.940139 
L 79.822446 -94.900827 
L 79.750525 -96.861514 
L 79.683191 -98.822202 
L 79.636296 -100.782889 
L 79.619147 -102.743577 
L 79.629589 -104.704265 
L 79.655003 -106.664952 
L 79.678357 -108.62564 
L 79.685337 -110.586327 
L 79.66868 -112.547015 
L 79.628253 -114.507703 
L 79.568147 -116.46839 
L 79.493408 -118.429078 
L 79.408313 -120.389766 
L 79.316348 -122.350453 
L 79.220591 -124.311141 
L 79.123122 -126.271828 
L 79.023097 -128.232516 
L 78.914854 -130.193204 
L 78.788614 -132.153891 
L 78.635173 -134.114579 
L 78.452371 -136.075266 
L 78.248612 -138.035954 
L 78.040092 -139.996642 
L 77.84214 -141.957329 
L 77.658633 -143.918017 
L 77.475236 -145.878704 
L 77.261429 -147.839392 
L 76.981947 -149.80008 
L 76.612907 -151.760767 
L 76.155013 -153.721455 
L 75.636257 -155.682142 
L 75.099435 -157.64283 
L 74.57817 -159.603518 
L 74.07692 -161.564205 
L 73.572617 -163.524893 
L 73.038769 -165.485581 
L 72.470508 -167.446268 
L 71.88683 -169.406956 
L 71.308729 -171.367643 
L 70.734911 -173.328331 
L 70.136756 -175.289019 
L 69.475818 -177.249706 
L 68.73084 -179.210394 
L 67.918023 -181.171081 
L 67.093781 -183.131769 
L 66.338263 -185.092457 
L 65.7293 -187.053144 
L 65.32424 -189.013832 
L 65.16 -190.974519 
L 65.260596 -192.935207 
L 65.630733 -194.895895 
L 66.233376 -196.856582 
L 66.978997 -198.81727 
L 67.753608 -200.777958 
L 68.475021 -202.738645 
L 69.133745 -204.699333 
L 69.784786 -206.66002 
L 70.498552 -208.620708 
L 71.310318 -210.581396 
L 72.203438 -212.542083 
L 73.131302 -214.502771 
L 74.053504 -216.463458 
L 74.954462 -218.424146 
L 75.832375 -220.384834 
L 76.675049 -222.345521 
L 77.449532 -224.306209 
L 78.115616 -226.266896 
L 78.648966 -228.227584 
L 79.052781 -230.188272 
L 79.350667 -232.148959 
L 79.570357 -234.109647 
L 79.732278 -236.070334 
L 79.84845 -238.031022 
L 79.927232 -239.99171 
L 80.152768 -239.99171 
L 80.152768 -239.99171 
L 80.23155 -238.031022 
L 80.347722 -236.070334 
L 80.509643 -234.109647 
L 80.729333 -232.148959 
L 81.027219 -230.188272 
L 81.431034 -228.227584 
L 81.964384 -226.266896 
L 82.630468 -224.306209 
L 83.404951 -222.345521 
L 84.247625 -220.384834 
L 85.125538 -218.424146 
L 86.026496 -216.463458 
L 86.948698 -214.502771 
L 87.876562 -212.542083 
L 88.769682 -210.581396 
L 89.581448 -208.620708 
L 90.295214 -206.66002 
L 90.946255 -204.699333 
L 91.604979 -202.738645 
L 92.326392 -200.777958 
L 93.101003 -198.81727 
L 93.846624 -196.856582 
L 94.449267 -194.895895 
L 94.819404 -192.935207 
L 94.92 -190.974519 
L 94.75576 -189.013832 
L 94.3507 -187.053144 
L 93.741737 -185.092457 
L 92.986219 -183.131769 
L 92.161977 -181.171081 
L 91.34916 -179.210394 
L 90.604182 -177.249706 
L 89.943244 -175.289019 
L 89.345089 -173.328331 
L 88.771271 -171.367643 
L 88.19317 -169.406956 
L 87.609492 -167.446268 
L 87.041231 -165.485581 
L 86.507383 -163.524893 
L 86.00308 -161.564205 
L 85.50183 -159.603518 
L 84.980565 -157.64283 
L 84.443743 -155.682142 
L 83.924987 -153.721455 
L 83.467093 -151.760767 
L 83.098053 -149.80008 
L 82.818571 -147.839392 
L 82.604764 -145.878704 
L 82.421367 -143.918017 
L 82.23786 -141.957329 
L 82.039908 -139.996642 
L 81.831388 -138.035954 
L 81.627629 -136.075266 
L 81.444827 -134.114579 
L 81.291386 -132.153891 
L 81.165146 -130.193204 
L 81.056903 -128.232516 
L 80.956878 -126.271828 
L 80.859409 -124.311141 
L 80.763652 -122.350453 
L 80.671687 -120.389766 
L 80.586592 -118.429078 
L 80.511853 -116.46839 
L 80.451747 -114.507703 
L 80.41132 -112.547015 
L 80.394663 -110.586327 
L 80.401643 -108.62564 
L 80.424997 -106.664952 
L 80.450411 -104.704265 
L 80.460853 -102.743577 
L 80.443704 -100.782889 
L 80.396809 -98.822202 
L 80.329475 -96.861514 
L 80.257554 -94.900827 
L 80.195703 -92.940139 
L 80.151621 -90.979451 
L 80.125203 -89.018764 
L 80.111967 -87.058076 
L 80.107581 -85.097389 
L 80.110164 -83.136701 
L 80.119261 -81.176013 
L 80.133256 -79.215326 
L 80.148195 -77.254638 
L 80.159268 -75.293951 
L 80.1635 -73.333263 
L 80.161217 -71.372575 
L 80.155401 -69.411888 
L 80.149807 -67.4512 
L 80.147084 -65.490512 
L 80.14752 -63.529825 
L 80.148766 -61.569137 
L 80.146923 -59.60845 
L 80.138815 -57.647762 
L 80.124216 -55.687074 
L 80.106287 -53.726387 
L 80.089647 -51.765699 
L 80.07749 -49.805012 
L 80.069984 -47.844324 
L 80.065037 -45.883636 
z
" id="m43d544d207" style="stroke:#3d3d3d;stroke-width:1.5;"/>
    </defs>
    <g clip-path="url(#pbb689d7fe1)">
     <use style="fill:#3274a1;stroke:#3d3d3d;stroke-width:1.5;" x="0" xlink:href="#m43d544d207" y="288"/>
    </g>
   </g>
   <g id="PolyCollection_2">
    <defs>
     <path d="M 221.469395 -77.910302 
L 221.330605 -77.910302 
L 221.321039 -79.533512 
L 221.309369 -81.156722 
L 221.293473 -82.779932 
L 221.271115 -84.403142 
L 221.240494 -86.026352 
L 221.200783 -87.649562 
L 221.152564 -89.272772 
L 221.098073 -90.895982 
L 221.041153 -92.519192 
L 220.98681 -94.142402 
L 220.94034 -95.765612 
L 220.906122 -97.388822 
L 220.886364 -99.012032 
L 220.88018 -100.635241 
L 220.883361 -102.258451 
L 220.888987 -103.881661 
L 220.888777 -105.504871 
L 220.874855 -107.128081 
L 220.841467 -108.751291 
L 220.786218 -110.374501 
L 220.710494 -111.997711 
L 220.618935 -113.620921 
L 220.518079 -115.244131 
L 220.414573 -116.867341 
L 220.313515 -118.490551 
L 220.217453 -120.113761 
L 220.126304 -121.736971 
L 220.038066 -123.360181 
L 219.949882 -124.983391 
L 219.858948 -126.606601 
L 219.762969 -128.229811 
L 219.660172 -129.853021 
L 219.549169 -131.476231 
L 219.428952 -133.099441 
L 219.299179 -134.72265 
L 219.160577 -136.34586 
L 219.015166 -137.96907 
L 218.865983 -139.59228 
L 218.716209 -141.21549 
L 218.567855 -142.8387 
L 218.420407 -144.46191 
L 218.269856 -146.08512 
L 218.108479 -147.70833 
L 217.925526 -149.33154 
L 217.70873 -150.95475 
L 217.446333 -152.57796 
L 217.129164 -154.20117 
L 216.752249 -155.82438 
L 216.315606 -157.44759 
L 215.824074 -159.0708 
L 215.286318 -160.69401 
L 214.713265 -162.31722 
L 214.116301 -163.94043 
L 213.505541 -165.56364 
L 212.888495 -167.186849 
L 212.269393 -168.810059 
L 211.649413 -170.433269 
L 211.027845 -172.056479 
L 210.40405 -173.679689 
L 209.779817 -175.302899 
L 209.161579 -176.926109 
L 208.561867 -178.549319 
L 207.999427 -180.172529 
L 207.497634 -181.795739 
L 207.08122 -183.418949 
L 206.771852 -185.042159 
L 206.58365 -186.665369 
L 206.52 -188.288579 
L 206.572883 -189.911789 
L 206.725189 -191.534999 
L 206.955432 -193.158209 
L 207.243288 -194.781419 
L 207.574027 -196.404629 
L 207.940369 -198.027839 
L 208.341471 -199.651049 
L 208.779976 -201.274258 
L 209.258766 -202.897468 
L 209.778839 -204.520678 
L 210.338853 -206.143888 
L 210.935897 -207.767098 
L 211.566531 -209.390308 
L 212.227332 -211.013518 
L 212.914765 -212.636728 
L 213.624676 -214.259938 
L 214.351796 -215.883148 
L 215.089386 -217.506358 
L 215.828962 -219.129568 
L 216.56 -220.752778 
L 217.269819 -222.375988 
L 217.943996 -223.999198 
L 218.567591 -225.622408 
L 219.127089 -227.245618 
L 219.612565 -228.868828 
L 220.019373 -230.492038 
L 220.348792 -232.115248 
L 220.607434 -233.738458 
L 220.805639 -235.361667 
L 220.955377 -236.984877 
L 221.068239 -238.608087 
L 221.731761 -238.608087 
L 221.731761 -238.608087 
L 221.844623 -236.984877 
L 221.994361 -235.361667 
L 222.192566 -233.738458 
L 222.451208 -232.115248 
L 222.780627 -230.492038 
L 223.187435 -228.868828 
L 223.672911 -227.245618 
L 224.232409 -225.622408 
L 224.856004 -223.999198 
L 225.530181 -222.375988 
L 226.24 -220.752778 
L 226.971038 -219.129568 
L 227.710614 -217.506358 
L 228.448204 -215.883148 
L 229.175324 -214.259938 
L 229.885235 -212.636728 
L 230.572668 -211.013518 
L 231.233469 -209.390308 
L 231.864103 -207.767098 
L 232.461147 -206.143888 
L 233.021161 -204.520678 
L 233.541234 -202.897468 
L 234.020024 -201.274258 
L 234.458529 -199.651049 
L 234.859631 -198.027839 
L 235.225973 -196.404629 
L 235.556712 -194.781419 
L 235.844568 -193.158209 
L 236.074811 -191.534999 
L 236.227117 -189.911789 
L 236.28 -188.288579 
L 236.21635 -186.665369 
L 236.028148 -185.042159 
L 235.71878 -183.418949 
L 235.302366 -181.795739 
L 234.800573 -180.172529 
L 234.238133 -178.549319 
L 233.638421 -176.926109 
L 233.020183 -175.302899 
L 232.39595 -173.679689 
L 231.772155 -172.056479 
L 231.150587 -170.433269 
L 230.530607 -168.810059 
L 229.911505 -167.186849 
L 229.294459 -165.56364 
L 228.683699 -163.94043 
L 228.086735 -162.31722 
L 227.513682 -160.69401 
L 226.975926 -159.0708 
L 226.484394 -157.44759 
L 226.047751 -155.82438 
L 225.670836 -154.20117 
L 225.353667 -152.57796 
L 225.09127 -150.95475 
L 224.874474 -149.33154 
L 224.691521 -147.70833 
L 224.530144 -146.08512 
L 224.379593 -144.46191 
L 224.232145 -142.8387 
L 224.083791 -141.21549 
L 223.934017 -139.59228 
L 223.784834 -137.96907 
L 223.639423 -136.34586 
L 223.500821 -134.72265 
L 223.371048 -133.099441 
L 223.250831 -131.476231 
L 223.139828 -129.853021 
L 223.037031 -128.229811 
L 222.941052 -126.606601 
L 222.850118 -124.983391 
L 222.761934 -123.360181 
L 222.673696 -121.736971 
L 222.582547 -120.113761 
L 222.486485 -118.490551 
L 222.385427 -116.867341 
L 222.281921 -115.244131 
L 222.181065 -113.620921 
L 222.089506 -111.997711 
L 222.013782 -110.374501 
L 221.958533 -108.751291 
L 221.925145 -107.128081 
L 221.911223 -105.504871 
L 221.911013 -103.881661 
L 221.916639 -102.258451 
L 221.91982 -100.635241 
L 221.913636 -99.012032 
L 221.893878 -97.388822 
L 221.85966 -95.765612 
L 221.81319 -94.142402 
L 221.758847 -92.519192 
L 221.701927 -90.895982 
L 221.647436 -89.272772 
L 221.599217 -87.649562 
L 221.559506 -86.026352 
L 221.528885 -84.403142 
L 221.506527 -82.779932 
L 221.490631 -81.156722 
L 221.478961 -79.533512 
L 221.469395 -77.910302 
z
" id="mbc884a7787" style="stroke:#3d3d3d;stroke-width:1.5;"/>
    </defs>
    <g clip-path="url(#pbb689d7fe1)">
     <use style="fill:#e1812c;stroke:#3d3d3d;stroke-width:1.5;" x="0" xlink:href="#mbc884a7787" y="288"/>
    </g>
   </g>
   <g id="PolyCollection_3">
    <defs>
     <path d="M 362.867583 -67.624216 
L 362.652417 -67.624216 
L 362.648416 -69.401308 
L 362.648235 -71.1784 
L 362.648521 -72.955493 
L 362.64598 -74.732585 
L 362.639028 -76.509678 
L 362.628656 -78.28677 
L 362.618048 -80.063862 
L 362.611117 -81.840955 
L 362.610663 -83.618047 
L 362.617044 -85.39514 
L 362.627947 -87.172232 
L 362.639341 -88.949324 
L 362.647085 -90.726417 
L 362.648413 -92.503509 
L 362.642564 -94.280602 
L 362.630291 -96.057694 
L 362.612556 -97.834787 
L 362.589135 -99.611879 
L 362.557953 -101.388971 
L 362.515599 -103.166064 
L 362.458982 -104.943156 
L 362.387518 -106.720249 
L 362.304944 -108.497341 
L 362.219767 -110.274433 
L 362.143615 -112.051526 
L 362.087584 -113.828618 
L 362.057703 -115.605711 
L 362.051541 -117.382803 
L 362.057824 -119.159895 
L 362.059672 -120.936988 
L 362.040223 -122.71408 
L 361.988169 -124.491173 
L 361.900931 -126.268265 
L 361.784491 -128.045357 
L 361.650389 -129.82245 
L 361.511231 -131.599542 
L 361.37603 -133.376635 
L 361.246614 -135.153727 
L 361.116264 -136.930819 
L 360.971588 -138.707912 
L 360.797587 -140.485004 
L 360.584167 -142.262097 
L 360.331008 -144.039189 
L 360.048103 -145.816281 
L 359.75153 -147.593374 
L 359.456724 -149.370466 
L 359.172729 -151.147559 
L 358.899772 -152.924651 
L 358.630115 -154.701743 
L 358.350407 -156.478836 
L 358.044007 -158.255928 
L 357.693184 -160.033021 
L 357.282038 -161.810113 
L 356.800322 -163.587205 
L 356.246784 -165.364298 
L 355.629874 -167.14139 
L 354.964684 -168.918483 
L 354.267257 -170.695575 
L 353.549279 -172.472667 
L 352.816302 -174.24976 
L 352.07083 -176.026852 
L 351.318743 -177.803945 
L 350.575316 -179.581037 
L 349.866968 -181.35813 
L 349.227211 -183.135222 
L 348.688831 -184.912314 
L 348.276687 -186.689407 
L 348.005032 -188.466499 
L 347.88 -190.243592 
L 347.904325 -192.020684 
L 348.07996 -193.797776 
L 348.406265 -195.574869 
L 348.875174 -197.351961 
L 349.46737 -199.129054 
L 350.152957 -200.906146 
L 350.897048 -202.683238 
L 351.667449 -204.460331 
L 352.440624 -206.237423 
L 353.203563 -208.014516 
L 353.951731 -209.791608 
L 354.685206 -211.5687 
L 355.405408 -213.345793 
L 356.113796 -215.122885 
L 356.81225 -216.899978 
L 357.503553 -218.67707 
L 358.190298 -220.454162 
L 358.871834 -222.231255 
L 359.540761 -224.008347 
L 360.181503 -225.78544 
L 360.772593 -227.562532 
L 361.292072 -229.339624 
L 361.723558 -231.116717 
L 362.060328 -232.893809 
L 362.306111 -234.670902 
L 362.473015 -236.447994 
L 362.57797 -238.225086 
L 362.639071 -240.002179 
L 362.672659 -241.779271 
L 362.691491 -243.556364 
L 362.828509 -243.556364 
L 362.828509 -243.556364 
L 362.847341 -241.779271 
L 362.880929 -240.002179 
L 362.94203 -238.225086 
L 363.046985 -236.447994 
L 363.213889 -234.670902 
L 363.459672 -232.893809 
L 363.796442 -231.116717 
L 364.227928 -229.339624 
L 364.747407 -227.562532 
L 365.338497 -225.78544 
L 365.979239 -224.008347 
L 366.648166 -222.231255 
L 367.329702 -220.454162 
L 368.016447 -218.67707 
L 368.70775 -216.899978 
L 369.406204 -215.122885 
L 370.114592 -213.345793 
L 370.834794 -211.5687 
L 371.568269 -209.791608 
L 372.316437 -208.014516 
L 373.079376 -206.237423 
L 373.852551 -204.460331 
L 374.622952 -202.683238 
L 375.367043 -200.906146 
L 376.05263 -199.129054 
L 376.644826 -197.351961 
L 377.113735 -195.574869 
L 377.44004 -193.797776 
L 377.615675 -192.020684 
L 377.64 -190.243592 
L 377.514968 -188.466499 
L 377.243313 -186.689407 
L 376.831169 -184.912314 
L 376.292789 -183.135222 
L 375.653032 -181.35813 
L 374.944684 -179.581037 
L 374.201257 -177.803945 
L 373.44917 -176.026852 
L 372.703698 -174.24976 
L 371.970721 -172.472667 
L 371.252743 -170.695575 
L 370.555316 -168.918483 
L 369.890126 -167.14139 
L 369.273216 -165.364298 
L 368.719678 -163.587205 
L 368.237962 -161.810113 
L 367.826816 -160.033021 
L 367.475993 -158.255928 
L 367.169593 -156.478836 
L 366.889885 -154.701743 
L 366.620228 -152.924651 
L 366.347271 -151.147559 
L 366.063276 -149.370466 
L 365.76847 -147.593374 
L 365.471897 -145.816281 
L 365.188992 -144.039189 
L 364.935833 -142.262097 
L 364.722413 -140.485004 
L 364.548412 -138.707912 
L 364.403736 -136.930819 
L 364.273386 -135.153727 
L 364.14397 -133.376635 
L 364.008769 -131.599542 
L 363.869611 -129.82245 
L 363.735509 -128.045357 
L 363.619069 -126.268265 
L 363.531831 -124.491173 
L 363.479777 -122.71408 
L 363.460328 -120.936988 
L 363.462176 -119.159895 
L 363.468459 -117.382803 
L 363.462297 -115.605711 
L 363.432416 -113.828618 
L 363.376385 -112.051526 
L 363.300233 -110.274433 
L 363.215056 -108.497341 
L 363.132482 -106.720249 
L 363.061018 -104.943156 
L 363.004401 -103.166064 
L 362.962047 -101.388971 
L 362.930865 -99.611879 
L 362.907444 -97.834787 
L 362.889709 -96.057694 
L 362.877436 -94.280602 
L 362.871587 -92.503509 
L 362.872915 -90.726417 
L 362.880659 -88.949324 
L 362.892053 -87.172232 
L 362.902956 -85.39514 
L 362.909337 -83.618047 
L 362.908883 -81.840955 
L 362.901952 -80.063862 
L 362.891344 -78.28677 
L 362.880972 -76.509678 
L 362.87402 -74.732585 
L 362.871479 -72.955493 
L 362.871765 -71.1784 
L 362.871584 -69.401308 
L 362.867583 -67.624216 
z
" id="m70dba8ffc0" style="stroke:#3d3d3d;stroke-width:1.5;"/>
    </defs>
    <g clip-path="url(#pbb689d7fe1)">
     <use style="fill:#3a923a;stroke:#3d3d3d;stroke-width:1.5;" x="0" xlink:href="#m70dba8ffc0" y="288"/>
    </g>
   </g>
   <g id="patch_3">
    <path clip-path="url(#pbb689d7fe1)" d="M 109.8 24.901821 
L 109.8 24.901821 
L 109.8 24.901821 
L 109.8 24.901821 
z
" style="fill:#3274a1;stroke:#3d3d3d;stroke-linejoin:miter;stroke-width:0.75;"/>
   </g>
   <g id="patch_4">
    <path clip-path="url(#pbb689d7fe1)" d="M 109.8 24.901821 
L 109.8 24.901821 
L 109.8 24.901821 
L 109.8 24.901821 
z
" style="fill:#e1812c;stroke:#3d3d3d;stroke-linejoin:miter;stroke-width:0.75;"/>
   </g>
   <g id="patch_5">
    <path clip-path="url(#pbb689d7fe1)" d="M 109.8 24.901821 
L 109.8 24.901821 
L 109.8 24.901821 
L 109.8 24.901821 
z
" style="fill:#3a923a;stroke:#3d3d3d;stroke-linejoin:miter;stroke-width:0.75;"/>
   </g>
   <g id="matplotlib.axis_1">
    <g id="xtick_1">
     <g id="line2d_1">
      <defs>
       <path d="M 0 0 
L 0 3.5 
" id="m6181cefbc7" style="stroke:#000000;stroke-width:0.8;"/>
      </defs>
      <g>
       <use style="stroke:#000000;stroke-width:0.8;" x="109.8" xlink:href="#m6181cefbc7" y="252"/>
      </g>
     </g>
     <g id="text_1">
      <!-- train -->
      <g transform="translate(98.1625 266.598437)scale(0.1 -0.1)">
       <defs>
        <path d="M 18.3125 70.21875 
L 18.3125 54.6875 
L 36.8125 54.6875 
L 36.8125 47.703125 
L 18.3125 47.703125 
L 18.3125 18.015625 
Q 18.3125 11.328125 20.140625 9.421875 
Q 21.96875 7.515625 27.59375 7.515625 
L 36.8125 7.515625 
L 36.8125 0 
L 27.59375 0 
Q 17.1875 0 13.234375 3.875 
Q 9.28125 7.765625 9.28125 18.015625 
L 9.28125 47.703125 
L 2.6875 47.703125 
L 2.6875 54.6875 
L 9.28125 54.6875 
L 9.28125 70.21875 
z
" id="DejaVuSans-116"/>
        <path d="M 41.109375 46.296875 
Q 39.59375 47.171875 37.8125 47.578125 
Q 36.03125 48 33.890625 48 
Q 26.265625 48 22.1875 43.046875 
Q 18.109375 38.09375 18.109375 28.8125 
L 18.109375 0 
L 9.078125 0 
L 9.078125 54.6875 
L 18.109375 54.6875 
L 18.109375 46.1875 
Q 20.953125 51.171875 25.484375 53.578125 
Q 30.03125 56 36.53125 56 
Q 37.453125 56 38.578125 55.875 
Q 39.703125 55.765625 41.0625 55.515625 
z
" id="DejaVuSans-114"/>
        <path d="M 34.28125 27.484375 
Q 23.390625 27.484375 19.1875 25 
Q 14.984375 22.515625 14.984375 16.5 
Q 14.984375 11.71875 18.140625 8.90625 
Q 21.296875 6.109375 26.703125 6.109375 
Q 34.1875 6.109375 38.703125 11.40625 
Q 43.21875 16.703125 43.21875 25.484375 
L 43.21875 27.484375 
z
M 52.203125 31.203125 
L 52.203125 0 
L 43.21875 0 
L 43.21875 8.296875 
Q 40.140625 3.328125 35.546875 0.953125 
Q 30.953125 -1.421875 24.3125 -1.421875 
Q 15.921875 -1.421875 10.953125 3.296875 
Q 6 8.015625 6 15.921875 
Q 6 25.140625 12.171875 29.828125 
Q 18.359375 34.515625 30.609375 34.515625 
L 43.21875 34.515625 
L 43.21875 35.40625 
Q 43.21875 41.609375 39.140625 45 
Q 35.0625 48.390625 27.6875 48.390625 
Q 23 48.390625 18.546875 47.265625 
Q 14.109375 46.140625 10.015625 43.890625 
L 10.015625 52.203125 
Q 14.9375 54.109375 19.578125 55.046875 
Q 24.21875 56 28.609375 56 
Q 40.484375 56 46.34375 49.84375 
Q 52.203125 43.703125 52.203125 31.203125 
z
" id="DejaVuSans-97"/>
        <path d="M 9.421875 54.6875 
L 18.40625 54.6875 
L 18.40625 0 
L 9.421875 0 
z
M 9.421875 75.984375 
L 18.40625 75.984375 
L 18.40625 64.59375 
L 9.421875 64.59375 
z
" id="DejaVuSans-105"/>
        <path d="M 54.890625 33.015625 
L 54.890625 0 
L 45.90625 0 
L 45.90625 32.71875 
Q 45.90625 40.484375 42.875 44.328125 
Q 39.84375 48.1875 33.796875 48.1875 
Q 26.515625 48.1875 22.3125 43.546875 
Q 18.109375 38.921875 18.109375 30.90625 
L 18.109375 0 
L 9.078125 0 
L 9.078125 54.6875 
L 18.109375 54.6875 
L 18.109375 46.1875 
Q 21.34375 51.125 25.703125 53.5625 
Q 30.078125 56 35.796875 56 
Q 45.21875 56 50.046875 50.171875 
Q 54.890625 44.34375 54.890625 33.015625 
z
" id="DejaVuSans-110"/>
       </defs>
       <use xlink:href="#DejaVuSans-116"/>
       <use x="39.208984" xlink:href="#DejaVuSans-114"/>
       <use x="80.322266" xlink:href="#DejaVuSans-97"/>
       <use x="141.601562" xlink:href="#DejaVuSans-105"/>
       <use x="169.384766" xlink:href="#DejaVuSans-110"/>
      </g>
     </g>
    </g>
    <g id="xtick_2">
     <g id="line2d_2">
      <g>
       <use style="stroke:#000000;stroke-width:0.8;" x="221.4" xlink:href="#m6181cefbc7" y="252"/>
      </g>
     </g>
     <g id="text_2">
      <!-- val -->
      <g transform="translate(213.9875 266.598437)scale(0.1 -0.1)">
       <defs>
        <path d="M 2.984375 54.6875 
L 12.5 54.6875 
L 29.59375 8.796875 
L 46.6875 54.6875 
L 56.203125 54.6875 
L 35.6875 0 
L 23.484375 0 
z
" id="DejaVuSans-118"/>
        <path d="M 9.421875 75.984375 
L 18.40625 75.984375 
L 18.40625 0 
L 9.421875 0 
z
" id="DejaVuSans-108"/>
       </defs>
       <use xlink:href="#DejaVuSans-118"/>
       <use x="59.179688" xlink:href="#DejaVuSans-97"/>
       <use x="120.458984" xlink:href="#DejaVuSans-108"/>
      </g>
     </g>
    </g>
    <g id="xtick_3">
     <g id="line2d_3">
      <g>
       <use style="stroke:#000000;stroke-width:0.8;" x="333" xlink:href="#m6181cefbc7" y="252"/>
      </g>
     </g>
     <g id="text_3">
      <!-- test -->
      <g transform="translate(323.398438 266.598437)scale(0.1 -0.1)">
       <defs>
        <path d="M 56.203125 29.59375 
L 56.203125 25.203125 
L 14.890625 25.203125 
Q 15.484375 15.921875 20.484375 11.0625 
Q 25.484375 6.203125 34.421875 6.203125 
Q 39.59375 6.203125 44.453125 7.46875 
Q 49.3125 8.734375 54.109375 11.28125 
L 54.109375 2.78125 
Q 49.265625 0.734375 44.1875 -0.34375 
Q 39.109375 -1.421875 33.890625 -1.421875 
Q 20.796875 -1.421875 13.15625 6.1875 
Q 5.515625 13.8125 5.515625 26.8125 
Q 5.515625 40.234375 12.765625 48.109375 
Q 20.015625 56 32.328125 56 
Q 43.359375 56 49.78125 48.890625 
Q 56.203125 41.796875 56.203125 29.59375 
z
M 47.21875 32.234375 
Q 47.125 39.59375 43.09375 43.984375 
Q 39.0625 48.390625 32.421875 48.390625 
Q 24.90625 48.390625 20.390625 44.140625 
Q 15.875 39.890625 15.1875 32.171875 
z
" id="DejaVuSans-101"/>
        <path d="M 44.28125 53.078125 
L 44.28125 44.578125 
Q 40.484375 46.53125 36.375 47.5 
Q 32.28125 48.484375 27.875 48.484375 
Q 21.1875 48.484375 17.84375 46.4375 
Q 14.5 44.390625 14.5 40.28125 
Q 14.5 37.15625 16.890625 35.375 
Q 19.28125 33.59375 26.515625 31.984375 
L 29.59375 31.296875 
Q 39.15625 29.25 43.1875 25.515625 
Q 47.21875 21.78125 47.21875 15.09375 
Q 47.21875 7.46875 41.1875 3.015625 
Q 35.15625 -1.421875 24.609375 -1.421875 
Q 20.21875 -1.421875 15.453125 -0.5625 
Q 10.6875 0.296875 5.421875 2 
L 5.421875 11.28125 
Q 10.40625 8.6875 15.234375 7.390625 
Q 20.0625 6.109375 24.8125 6.109375 
Q 31.15625 6.109375 34.5625 8.28125 
Q 37.984375 10.453125 37.984375 14.40625 
Q 37.984375 18.0625 35.515625 20.015625 
Q 33.0625 21.96875 24.703125 23.78125 
L 21.578125 24.515625 
Q 13.234375 26.265625 9.515625 29.90625 
Q 5.8125 33.546875 5.8125 39.890625 
Q 5.8125 47.609375 11.28125 51.796875 
Q 16.75 56 26.8125 56 
Q 31.78125 56 36.171875 55.265625 
Q 40.578125 54.546875 44.28125 53.078125 
z
" id="DejaVuSans-115"/>
       </defs>
       <use xlink:href="#DejaVuSans-116"/>
       <use x="39.208984" xlink:href="#DejaVuSans-101"/>
       <use x="100.732422" xlink:href="#DejaVuSans-115"/>
       <use x="152.832031" xlink:href="#DejaVuSans-116"/>
      </g>
     </g>
    </g>
    <g id="text_4">
     <!-- set -->
     <g transform="translate(213.758594 280.276563)scale(0.1 -0.1)">
      <use xlink:href="#DejaVuSans-115"/>
      <use x="52.099609" xlink:href="#DejaVuSans-101"/>
      <use x="113.623047" xlink:href="#DejaVuSans-116"/>
     </g>
    </g>
   </g>
   <g id="matplotlib.axis_2">
    <g id="ytick_1">
     <g id="line2d_4">
      <defs>
       <path d="M 0 0 
L -3.5 0 
" id="m8c7d151930" style="stroke:#000000;stroke-width:0.8;"/>
      </defs>
      <g>
       <use style="stroke:#000000;stroke-width:0.8;" x="54" xlink:href="#m8c7d151930" y="250.83261"/>
      </g>
     </g>
     <g id="text_5">
      <!-- −100 -->
      <g transform="translate(19.532812 254.631828)scale(0.1 -0.1)">
       <defs>
        <path d="M 10.59375 35.5 
L 73.1875 35.5 
L 73.1875 27.203125 
L 10.59375 27.203125 
z
" id="DejaVuSans-8722"/>
        <path d="M 12.40625 8.296875 
L 28.515625 8.296875 
L 28.515625 63.921875 
L 10.984375 60.40625 
L 10.984375 69.390625 
L 28.421875 72.90625 
L 38.28125 72.90625 
L 38.28125 8.296875 
L 54.390625 8.296875 
L 54.390625 0 
L 12.40625 0 
z
" id="DejaVuSans-49"/>
        <path d="M 31.78125 66.40625 
Q 24.171875 66.40625 20.328125 58.90625 
Q 16.5 51.421875 16.5 36.375 
Q 16.5 21.390625 20.328125 13.890625 
Q 24.171875 6.390625 31.78125 6.390625 
Q 39.453125 6.390625 43.28125 13.890625 
Q 47.125 21.390625 47.125 36.375 
Q 47.125 51.421875 43.28125 58.90625 
Q 39.453125 66.40625 31.78125 66.40625 
z
M 31.78125 74.21875 
Q 44.046875 74.21875 50.515625 64.515625 
Q 56.984375 54.828125 56.984375 36.375 
Q 56.984375 17.96875 50.515625 8.265625 
Q 44.046875 -1.421875 31.78125 -1.421875 
Q 19.53125 -1.421875 13.0625 8.265625 
Q 6.59375 17.96875 6.59375 36.375 
Q 6.59375 54.828125 13.0625 64.515625 
Q 19.53125 74.21875 31.78125 74.21875 
z
" id="DejaVuSans-48"/>
       </defs>
       <use xlink:href="#DejaVuSans-8722"/>
       <use x="83.789062" xlink:href="#DejaVuSans-49"/>
       <use x="147.412109" xlink:href="#DejaVuSans-48"/>
       <use x="211.035156" xlink:href="#DejaVuSans-48"/>
      </g>
     </g>
    </g>
    <g id="ytick_2">
     <g id="line2d_5">
      <g>
       <use style="stroke:#000000;stroke-width:0.8;" x="54" xlink:href="#m8c7d151930" y="205.646452"/>
      </g>
     </g>
     <g id="text_6">
      <!-- −80 -->
      <g transform="translate(25.895312 209.445671)scale(0.1 -0.1)">
       <defs>
        <path d="M 31.78125 34.625 
Q 24.75 34.625 20.71875 30.859375 
Q 16.703125 27.09375 16.703125 20.515625 
Q 16.703125 13.921875 20.71875 10.15625 
Q 24.75 6.390625 31.78125 6.390625 
Q 38.8125 6.390625 42.859375 10.171875 
Q 46.921875 13.96875 46.921875 20.515625 
Q 46.921875 27.09375 42.890625 30.859375 
Q 38.875 34.625 31.78125 34.625 
z
M 21.921875 38.8125 
Q 15.578125 40.375 12.03125 44.71875 
Q 8.5 49.078125 8.5 55.328125 
Q 8.5 64.0625 14.71875 69.140625 
Q 20.953125 74.21875 31.78125 74.21875 
Q 42.671875 74.21875 48.875 69.140625 
Q 55.078125 64.0625 55.078125 55.328125 
Q 55.078125 49.078125 51.53125 44.71875 
Q 48 40.375 41.703125 38.8125 
Q 48.828125 37.15625 52.796875 32.3125 
Q 56.78125 27.484375 56.78125 20.515625 
Q 56.78125 9.90625 50.3125 4.234375 
Q 43.84375 -1.421875 31.78125 -1.421875 
Q 19.734375 -1.421875 13.25 4.234375 
Q 6.78125 9.90625 6.78125 20.515625 
Q 6.78125 27.484375 10.78125 32.3125 
Q 14.796875 37.15625 21.921875 38.8125 
z
M 18.3125 54.390625 
Q 18.3125 48.734375 21.84375 45.5625 
Q 25.390625 42.390625 31.78125 42.390625 
Q 38.140625 42.390625 41.71875 45.5625 
Q 45.3125 48.734375 45.3125 54.390625 
Q 45.3125 60.0625 41.71875 63.234375 
Q 38.140625 66.40625 31.78125 66.40625 
Q 25.390625 66.40625 21.84375 63.234375 
Q 18.3125 60.0625 18.3125 54.390625 
z
" id="DejaVuSans-56"/>
       </defs>
       <use xlink:href="#DejaVuSans-8722"/>
       <use x="83.789062" xlink:href="#DejaVuSans-56"/>
       <use x="147.412109" xlink:href="#DejaVuSans-48"/>
      </g>
     </g>
    </g>
    <g id="ytick_3">
     <g id="line2d_6">
      <g>
       <use style="stroke:#000000;stroke-width:0.8;" x="54" xlink:href="#m8c7d151930" y="160.460294"/>
      </g>
     </g>
     <g id="text_7">
      <!-- −60 -->
      <g transform="translate(25.895312 164.259513)scale(0.1 -0.1)">
       <defs>
        <path d="M 33.015625 40.375 
Q 26.375 40.375 22.484375 35.828125 
Q 18.609375 31.296875 18.609375 23.390625 
Q 18.609375 15.53125 22.484375 10.953125 
Q 26.375 6.390625 33.015625 6.390625 
Q 39.65625 6.390625 43.53125 10.953125 
Q 47.40625 15.53125 47.40625 23.390625 
Q 47.40625 31.296875 43.53125 35.828125 
Q 39.65625 40.375 33.015625 40.375 
z
M 52.59375 71.296875 
L 52.59375 62.3125 
Q 48.875 64.0625 45.09375 64.984375 
Q 41.3125 65.921875 37.59375 65.921875 
Q 27.828125 65.921875 22.671875 59.328125 
Q 17.53125 52.734375 16.796875 39.40625 
Q 19.671875 43.65625 24.015625 45.921875 
Q 28.375 48.1875 33.59375 48.1875 
Q 44.578125 48.1875 50.953125 41.515625 
Q 57.328125 34.859375 57.328125 23.390625 
Q 57.328125 12.15625 50.6875 5.359375 
Q 44.046875 -1.421875 33.015625 -1.421875 
Q 20.359375 -1.421875 13.671875 8.265625 
Q 6.984375 17.96875 6.984375 36.375 
Q 6.984375 53.65625 15.1875 63.9375 
Q 23.390625 74.21875 37.203125 74.21875 
Q 40.921875 74.21875 44.703125 73.484375 
Q 48.484375 72.75 52.59375 71.296875 
z
" id="DejaVuSans-54"/>
       </defs>
       <use xlink:href="#DejaVuSans-8722"/>
       <use x="83.789062" xlink:href="#DejaVuSans-54"/>
       <use x="147.412109" xlink:href="#DejaVuSans-48"/>
      </g>
     </g>
    </g>
    <g id="ytick_4">
     <g id="line2d_7">
      <g>
       <use style="stroke:#000000;stroke-width:0.8;" x="54" xlink:href="#m8c7d151930" y="115.274137"/>
      </g>
     </g>
     <g id="text_8">
      <!-- −40 -->
      <g transform="translate(25.895312 119.073355)scale(0.1 -0.1)">
       <defs>
        <path d="M 37.796875 64.3125 
L 12.890625 25.390625 
L 37.796875 25.390625 
z
M 35.203125 72.90625 
L 47.609375 72.90625 
L 47.609375 25.390625 
L 58.015625 25.390625 
L 58.015625 17.1875 
L 47.609375 17.1875 
L 47.609375 0 
L 37.796875 0 
L 37.796875 17.1875 
L 4.890625 17.1875 
L 4.890625 26.703125 
z
" id="DejaVuSans-52"/>
       </defs>
       <use xlink:href="#DejaVuSans-8722"/>
       <use x="83.789062" xlink:href="#DejaVuSans-52"/>
       <use x="147.412109" xlink:href="#DejaVuSans-48"/>
      </g>
     </g>
    </g>
    <g id="ytick_5">
     <g id="line2d_8">
      <g>
       <use style="stroke:#000000;stroke-width:0.8;" x="54" xlink:href="#m8c7d151930" y="70.087979"/>
      </g>
     </g>
     <g id="text_9">
      <!-- −20 -->
      <g transform="translate(25.895312 73.887198)scale(0.1 -0.1)">
       <defs>
        <path d="M 19.1875 8.296875 
L 53.609375 8.296875 
L 53.609375 0 
L 7.328125 0 
L 7.328125 8.296875 
Q 12.9375 14.109375 22.625 23.890625 
Q 32.328125 33.6875 34.8125 36.53125 
Q 39.546875 41.84375 41.421875 45.53125 
Q 43.3125 49.21875 43.3125 52.78125 
Q 43.3125 58.59375 39.234375 62.25 
Q 35.15625 65.921875 28.609375 65.921875 
Q 23.96875 65.921875 18.8125 64.3125 
Q 13.671875 62.703125 7.8125 59.421875 
L 7.8125 69.390625 
Q 13.765625 71.78125 18.9375 73 
Q 24.125 74.21875 28.421875 74.21875 
Q 39.75 74.21875 46.484375 68.546875 
Q 53.21875 62.890625 53.21875 53.421875 
Q 53.21875 48.921875 51.53125 44.890625 
Q 49.859375 40.875 45.40625 35.40625 
Q 44.1875 33.984375 37.640625 27.21875 
Q 31.109375 20.453125 19.1875 8.296875 
z
" id="DejaVuSans-50"/>
       </defs>
       <use xlink:href="#DejaVuSans-8722"/>
       <use x="83.789062" xlink:href="#DejaVuSans-50"/>
       <use x="147.412109" xlink:href="#DejaVuSans-48"/>
      </g>
     </g>
    </g>
    <g id="text_10">
     <!-- value -->
     <g transform="translate(13.453125 156.937813)rotate(-90)scale(0.1 -0.1)">
      <defs>
       <path d="M 8.5 21.578125 
L 8.5 54.6875 
L 17.484375 54.6875 
L 17.484375 21.921875 
Q 17.484375 14.15625 20.5 10.265625 
Q 23.53125 6.390625 29.59375 6.390625 
Q 36.859375 6.390625 41.078125 11.03125 
Q 45.3125 15.671875 45.3125 23.6875 
L 45.3125 54.6875 
L 54.296875 54.6875 
L 54.296875 0 
L 45.3125 0 
L 45.3125 8.40625 
Q 42.046875 3.421875 37.71875 1 
Q 33.40625 -1.421875 27.6875 -1.421875 
Q 18.265625 -1.421875 13.375 4.4375 
Q 8.5 10.296875 8.5 21.578125 
z
M 31.109375 56 
z
" id="DejaVuSans-117"/>
      </defs>
      <use xlink:href="#DejaVuSans-118"/>
      <use x="59.179688" xlink:href="#DejaVuSans-97"/>
      <use x="120.458984" xlink:href="#DejaVuSans-108"/>
      <use x="148.242188" xlink:href="#DejaVuSans-117"/>
      <use x="211.621094" xlink:href="#DejaVuSans-101"/>
     </g>
    </g>
   </g>
   <g id="line2d_9">
    <path clip-path="url(#pbb689d7fe1)" d="M 80.04 159.311604 
L 80.04 48.00829 
" style="fill:none;stroke:#3d3d3d;stroke-linecap:square;stroke-width:1.5;"/>
   </g>
   <g id="line2d_10">
    <path clip-path="url(#pbb689d7fe1)" d="M 80.04 116.117459 
L 80.04 87.121894 
" style="fill:none;stroke:#3d3d3d;stroke-linecap:square;stroke-width:4.5;"/>
   </g>
   <g id="line2d_11">
    <path clip-path="url(#pbb689d7fe1)" d="M 221.4 161.614734 
L 221.4 49.391913 
" style="fill:none;stroke:#3d3d3d;stroke-linecap:square;stroke-width:1.5;"/>
   </g>
   <g id="line2d_12">
    <path clip-path="url(#pbb689d7fe1)" d="M 221.4 117.07804 
L 221.4 87.113513 
" style="fill:none;stroke:#3d3d3d;stroke-linecap:square;stroke-width:4.5;"/>
   </g>
   <g id="line2d_13">
    <path clip-path="url(#pbb689d7fe1)" d="M 362.76 155.24657 
L 362.76 58.048476 
" style="fill:none;stroke:#3d3d3d;stroke-linecap:square;stroke-width:1.5;"/>
   </g>
   <g id="line2d_14">
    <path clip-path="url(#pbb689d7fe1)" d="M 362.76 114.784216 
L 362.76 87.496528 
" style="fill:none;stroke:#3d3d3d;stroke-linecap:square;stroke-width:4.5;"/>
   </g>
   <g id="patch_6">
    <path d="M 54 252 
L 54 34.56 
" style="fill:none;stroke:#000000;stroke-linecap:square;stroke-linejoin:miter;stroke-width:0.8;"/>
   </g>
   <g id="patch_7">
    <path d="M 388.8 252 
L 388.8 34.56 
" style="fill:none;stroke:#000000;stroke-linecap:square;stroke-linejoin:miter;stroke-width:0.8;"/>
   </g>
   <g id="patch_8">
    <path d="M 54 252 
L 388.8 252 
" style="fill:none;stroke:#000000;stroke-linecap:square;stroke-linejoin:miter;stroke-width:0.8;"/>
   </g>
   <g id="patch_9">
    <path d="M 54 34.56 
L 388.8 34.56 
" style="fill:none;stroke:#000000;stroke-linecap:square;stroke-linejoin:miter;stroke-width:0.8;"/>
   </g>
   <g id="PathCollection_1">
    <defs>
     <path d="M 0 1.5 
C 0.397805 1.5 0.77937 1.341951 1.06066 1.06066 
C 1.341951 0.77937 1.5 0.397805 1.5 0 
C 1.5 -0.397805 1.341951 -0.77937 1.06066 -1.06066 
C 0.77937 -1.341951 0.397805 -1.5 0 -1.5 
C -0.397805 -1.5 -0.77937 -1.341951 -1.06066 -1.06066 
C -1.341951 -0.77937 -1.5 -0.397805 -1.5 0 
C -1.5 0.397805 -1.341951 0.77937 -1.06066 1.06066 
C -0.77937 1.341951 -0.397805 1.5 0 1.5 
z
" id="me68d87bece" style="stroke:#3d3d3d;"/>
    </defs>
    <g clip-path="url(#pbb689d7fe1)">
     <use style="fill:#ffffff;stroke:#3d3d3d;" x="80.04" xlink:href="#me68d87bece" y="100.015893"/>
    </g>
   </g>
   <g id="PathCollection_2">
    <g clip-path="url(#pbb689d7fe1)">
     <use style="fill:#ffffff;stroke:#3d3d3d;" x="221.4" xlink:href="#me68d87bece" y="101.18761"/>
    </g>
   </g>
   <g id="PathCollection_3">
    <g clip-path="url(#pbb689d7fe1)">
     <use style="fill:#ffffff;stroke:#3d3d3d;" x="362.76" xlink:href="#me68d87bece" y="100.009669"/>
    </g>
   </g>
   <g id="legend_1">
    <g id="patch_10">
     <path d="M 61 247 
L 116.275 247 
Q 118.275 247 118.275 245 
L 118.275 187.2875 
Q 118.275 185.2875 116.275 185.2875 
L 61 185.2875 
Q 59 185.2875 59 187.2875 
L 59 245 
Q 59 247 61 247 
z
" style="fill:#ffffff;opacity:0.8;stroke:#cccccc;stroke-linejoin:miter;"/>
    </g>
    <g id="text_11">
     <!-- set -->
     <g transform="translate(80.996094 196.885938)scale(0.1 -0.1)">
      <use xlink:href="#DejaVuSans-115"/>
      <use x="52.099609" xlink:href="#DejaVuSans-101"/>
      <use x="113.623047" xlink:href="#DejaVuSans-116"/>
     </g>
    </g>
    <g id="patch_11">
     <path d="M 63 211.564063 
L 83 211.564063 
L 83 204.564063 
L 63 204.564063 
z
" style="fill:#3274a1;stroke:#3d3d3d;stroke-linejoin:miter;stroke-width:0.75;"/>
    </g>
    <g id="text_12">
     <!-- train -->
     <g transform="translate(91 211.564063)scale(0.1 -0.1)">
      <use xlink:href="#DejaVuSans-116"/>
      <use x="39.208984" xlink:href="#DejaVuSans-114"/>
      <use x="80.322266" xlink:href="#DejaVuSans-97"/>
      <use x="141.601562" xlink:href="#DejaVuSans-105"/>
      <use x="169.384766" xlink:href="#DejaVuSans-110"/>
     </g>
    </g>
    <g id="patch_12">
     <path d="M 63 226.242188 
L 83 226.242188 
L 83 219.242188 
L 63 219.242188 
z
" style="fill:#e1812c;stroke:#3d3d3d;stroke-linejoin:miter;stroke-width:0.75;"/>
    </g>
    <g id="text_13">
     <!-- val -->
     <g transform="translate(91 226.242188)scale(0.1 -0.1)">
      <use xlink:href="#DejaVuSans-118"/>
      <use x="59.179688" xlink:href="#DejaVuSans-97"/>
      <use x="120.458984" xlink:href="#DejaVuSans-108"/>
     </g>
    </g>
    <g id="patch_13">
     <path d="M 63 240.920313 
L 83 240.920313 
L 83 233.920313 
L 63 233.920313 
z
" style="fill:#3a923a;stroke:#3d3d3d;stroke-linejoin:miter;stroke-width:0.75;"/>
    </g>
    <g id="text_14">
     <!-- test -->
     <g transform="translate(91 240.920313)scale(0.1 -0.1)">
      <use xlink:href="#DejaVuSans-116"/>
      <use x="39.208984" xlink:href="#DejaVuSans-101"/>
      <use x="100.732422" xlink:href="#DejaVuSans-115"/>
      <use x="152.832031" xlink:href="#DejaVuSans-116"/>
     </g>
    </g>
   </g>
  </g>
 </g>
 <defs>
  <clipPath id="pbb689d7fe1">
   <rect height="217.44" width="334.8" x="54" y="34.56"/>
  </clipPath>
 </defs>
</svg>
