<?xml version="1.0" encoding="utf-8" standalone="no"?>
<!DOCTYPE svg PUBLIC "-//W3C//DTD SVG 1.1//EN"
  "http://www.w3.org/Graphics/SVG/1.1/DTD/svg11.dtd">
<!-- Created with matplotlib (https://matplotlib.org/) -->
<svg height="288pt" version="1.1" viewBox="0 0 432 288" width="432pt" xmlns="http://www.w3.org/2000/svg" xmlns:xlink="http://www.w3.org/1999/xlink">
 <metadata>
  <rdf:RDF xmlns:cc="http://creativecommons.org/ns#" xmlns:dc="http://purl.org/dc/elements/1.1/" xmlns:rdf="http://www.w3.org/1999/02/22-rdf-syntax-ns#">
   <cc:Work>
    <dc:type rdf:resource="http://purl.org/dc/dcmitype/StillImage"/>
    <dc:date>2021-07-13T18:28:54.576071</dc:date>
    <dc:format>image/svg+xml</dc:format>
    <dc:creator>
     <cc:Agent>
      <dc:title>Matplotlib v3.3.4, https://matplotlib.org/</dc:title>
     </cc:Agent>
    </dc:creator>
   </cc:Work>
  </rdf:RDF>
 </metadata>
 <defs>
  <style type="text/css">*{stroke-linecap:butt;stroke-linejoin:round;}</style>
 </defs>
 <g id="figure_1">
  <g id="patch_1">
   <path d="M 0 288 
L 432 288 
L 432 0 
L 0 0 
z
" style="fill:#ffffff;"/>
  </g>
  <g id="axes_1">
   <g id="patch_2">
    <path d="M 54 252 
L 388.8 252 
L 388.8 34.56 
L 54 34.56 
z
" style="fill:#ffffff;"/>
   </g>
   <g id="PolyCollection_1">
    <defs>
     <path d="M 80.063864 -83.946433 
L 80.016136 -83.946433 
L 80.013749 -85.557447 
L 80.011357 -87.168462 
L 80.007682 -88.779476 
L 80.003002 -90.390491 
L 79.999367 -92.001505 
L 79.999056 -93.61252 
L 80.002593 -95.223534 
L 80.008128 -96.834548 
L 80.01273 -98.445563 
L 80.01438 -100.056577 
L 80.012915 -101.667592 
L 80.00932 -103.278606 
L 80.004437 -104.88962 
L 79.998515 -106.500635 
L 79.991816 -108.111649 
L 79.985003 -109.722664 
L 79.97859 -111.333678 
L 79.972297 -112.944693 
L 79.965313 -114.555707 
L 79.95676 -116.166721 
L 79.945073 -117.777736 
L 79.927169 -119.38875 
L 79.899791 -120.999765 
L 79.862958 -122.610779 
L 79.821774 -124.221793 
L 79.783664 -125.832808 
L 79.753437 -127.443822 
L 79.731307 -129.054837 
L 79.715061 -130.665851 
L 79.702652 -132.276866 
L 79.692195 -133.88788 
L 79.680856 -135.498894 
L 79.66545 -137.109909 
L 79.644371 -138.720923 
L 79.618202 -140.331938 
L 79.588105 -141.942952 
L 79.553839 -143.553966 
L 79.512958 -145.164981 
L 79.461128 -146.775995 
L 79.393614 -148.38701 
L 79.308344 -149.998024 
L 79.208654 -151.609039 
L 79.101762 -153.220053 
L 78.992289 -154.831067 
L 78.876536 -156.442082 
L 78.744709 -158.053096 
L 78.591394 -159.664111 
L 78.425409 -161.275125 
L 78.268097 -162.886139 
L 78.137664 -164.497154 
L 78.030226 -166.108168 
L 77.913618 -167.719183 
L 77.741062 -169.330197 
L 77.475415 -170.941212 
L 77.106683 -172.552226 
L 76.653207 -174.16324 
L 76.15123 -175.774255 
L 75.642878 -177.385269 
L 75.166039 -178.996284 
L 74.742759 -180.607298 
L 74.366394 -182.218313 
L 73.996969 -183.829327 
L 73.574477 -185.440341 
L 73.046533 -187.051356 
L 72.393399 -188.66237 
L 71.635297 -190.273385 
L 70.820568 -191.884399 
L 70.003455 -193.495413 
L 69.222859 -195.106428 
L 68.493449 -196.717442 
L 67.814808 -198.328457 
L 67.189667 -199.939471 
L 66.632371 -201.550486 
L 66.159188 -203.1615 
L 65.774013 -204.772514 
L 65.470561 -206.383529 
L 65.254 -207.994543 
L 65.16 -209.605558 
L 65.247934 -211.216572 
L 65.571296 -212.827586 
L 66.150788 -214.438601 
L 66.967265 -216.049615 
L 67.968868 -217.66063 
L 69.082125 -219.271644 
L 70.228881 -220.882659 
L 71.350628 -222.493673 
L 72.424681 -224.104687 
L 73.454144 -225.715702 
L 74.439809 -227.326716 
L 75.363862 -228.937731 
L 76.200218 -230.548745 
L 76.934277 -232.159759 
L 77.568419 -233.770774 
L 78.112094 -235.381788 
L 78.572521 -236.992803 
L 78.954801 -238.603817 
L 79.265555 -240.214832 
L 79.512746 -241.825846 
L 79.702966 -243.43686 
L 80.377034 -243.43686 
L 80.377034 -243.43686 
L 80.567254 -241.825846 
L 80.814445 -240.214832 
L 81.125199 -238.603817 
L 81.507479 -236.992803 
L 81.967906 -235.381788 
L 82.511581 -233.770774 
L 83.145723 -232.159759 
L 83.879782 -230.548745 
L 84.716138 -228.937731 
L 85.640191 -227.326716 
L 86.625856 -225.715702 
L 87.655319 -224.104687 
L 88.729372 -222.493673 
L 89.851119 -220.882659 
L 90.997875 -219.271644 
L 92.111132 -217.66063 
L 93.112735 -216.049615 
L 93.929212 -214.438601 
L 94.508704 -212.827586 
L 94.832066 -211.216572 
L 94.92 -209.605558 
L 94.826 -207.994543 
L 94.609439 -206.383529 
L 94.305987 -204.772514 
L 93.920812 -203.1615 
L 93.447629 -201.550486 
L 92.890333 -199.939471 
L 92.265192 -198.328457 
L 91.586551 -196.717442 
L 90.857141 -195.106428 
L 90.076545 -193.495413 
L 89.259432 -191.884399 
L 88.444703 -190.273385 
L 87.686601 -188.66237 
L 87.033467 -187.051356 
L 86.505523 -185.440341 
L 86.083031 -183.829327 
L 85.713606 -182.218313 
L 85.337241 -180.607298 
L 84.913961 -178.996284 
L 84.437122 -177.385269 
L 83.92877 -175.774255 
L 83.426793 -174.16324 
L 82.973317 -172.552226 
L 82.604585 -170.941212 
L 82.338938 -169.330197 
L 82.166382 -167.719183 
L 82.049774 -166.108168 
L 81.942336 -164.497154 
L 81.811903 -162.886139 
L 81.654591 -161.275125 
L 81.488606 -159.664111 
L 81.335291 -158.053096 
L 81.203464 -156.442082 
L 81.087711 -154.831067 
L 80.978238 -153.220053 
L 80.871346 -151.609039 
L 80.771656 -149.998024 
L 80.686386 -148.38701 
L 80.618872 -146.775995 
L 80.567042 -145.164981 
L 80.526161 -143.553966 
L 80.491895 -141.942952 
L 80.461798 -140.331938 
L 80.435629 -138.720923 
L 80.41455 -137.109909 
L 80.399144 -135.498894 
L 80.387805 -133.88788 
L 80.377348 -132.276866 
L 80.364939 -130.665851 
L 80.348693 -129.054837 
L 80.326563 -127.443822 
L 80.296336 -125.832808 
L 80.258226 -124.221793 
L 80.217042 -122.610779 
L 80.180209 -120.999765 
L 80.152831 -119.38875 
L 80.134927 -117.777736 
L 80.12324 -116.166721 
L 80.114687 -114.555707 
L 80.107703 -112.944693 
L 80.10141 -111.333678 
L 80.094997 -109.722664 
L 80.088184 -108.111649 
L 80.081485 -106.500635 
L 80.075563 -104.88962 
L 80.07068 -103.278606 
L 80.067085 -101.667592 
L 80.06562 -100.056577 
L 80.06727 -98.445563 
L 80.071872 -96.834548 
L 80.077407 -95.223534 
L 80.080944 -93.61252 
L 80.080633 -92.001505 
L 80.076998 -90.390491 
L 80.072318 -88.779476 
L 80.068643 -87.168462 
L 80.066251 -85.557447 
L 80.063864 -83.946433 
z
" id="m61742e8ad5" style="stroke:#3d3d3d;stroke-width:1.5;"/>
    </defs>
    <g clip-path="url(#pf84574c65e)">
     <use style="fill:#3274a1;stroke:#3d3d3d;stroke-width:1.5;" x="0" xlink:href="#m61742e8ad5" y="288"/>
    </g>
   </g>
   <g id="PolyCollection_2">
    <defs>
     <path d="M 221.419909 -70.112884 
L 221.380091 -70.112884 
L 221.380923 -71.864838 
L 221.383224 -73.616792 
L 221.384438 -75.368747 
L 221.383294 -77.120701 
L 221.380946 -78.872656 
L 221.379834 -80.62461 
L 221.381278 -82.376564 
L 221.384011 -84.128519 
L 221.384931 -85.880473 
L 221.381446 -87.632427 
L 221.373723 -89.384382 
L 221.365294 -91.136336 
L 221.3611 -92.88829 
L 221.363999 -94.640245 
L 221.372678 -96.392199 
L 221.383025 -98.144153 
L 221.391366 -99.896108 
L 221.39638 -101.648062 
L 221.398626 -103.400016 
L 221.399018 -105.151971 
L 221.397669 -106.903925 
L 221.393388 -108.655879 
L 221.383881 -110.407834 
L 221.367063 -112.159788 
L 221.343477 -113.911742 
L 221.317908 -115.663697 
L 221.297443 -117.415651 
L 221.286217 -119.167605 
L 221.281743 -120.91956 
L 221.276943 -122.671514 
L 221.26521 -124.423468 
L 221.242611 -126.175423 
L 221.206783 -127.927377 
L 221.157089 -129.679331 
L 221.097186 -131.431286 
L 221.035509 -133.18324 
L 220.980369 -134.935194 
L 220.933092 -136.687149 
L 220.886413 -138.439103 
L 220.831352 -140.191057 
L 220.76655 -141.943012 
L 220.699479 -143.694966 
L 220.636983 -145.44692 
L 220.575842 -147.198875 
L 220.50533 -148.950829 
L 220.420037 -150.702784 
L 220.328556 -152.454738 
L 220.246186 -154.206692 
L 220.17517 -155.958647 
L 220.091182 -157.710601 
L 219.954319 -159.462555 
L 219.73971 -161.21451 
L 219.457712 -162.966464 
L 219.142448 -164.718418 
L 218.824398 -166.470373 
L 218.51637 -168.222327 
L 218.217568 -169.974281 
L 217.921606 -171.726236 
L 217.620866 -173.47819 
L 217.306713 -175.230144 
L 216.966542 -176.982099 
L 216.584311 -178.734053 
L 216.148973 -180.486007 
L 215.661195 -182.237962 
L 215.127542 -183.989916 
L 214.548279 -185.74187 
L 213.91464 -187.493825 
L 213.222116 -189.245779 
L 212.489078 -190.997733 
L 211.758908 -192.749688 
L 211.073742 -194.501642 
L 210.438423 -196.253596 
L 209.81165 -198.005551 
L 209.14017 -199.757505 
L 208.411002 -201.509459 
L 207.67914 -203.261414 
L 207.050271 -205.013368 
L 206.636399 -206.765322 
L 206.52 -208.517277 
L 206.746398 -210.269231 
L 207.334225 -212.021185 
L 208.277999 -213.77314 
L 209.529298 -215.525094 
L 210.977442 -217.277049 
L 212.469487 -219.029003 
L 213.874918 -220.780957 
L 215.142356 -222.532912 
L 216.292215 -224.284866 
L 217.354667 -226.03682 
L 218.317919 -227.788775 
L 219.133707 -229.540729 
L 219.763068 -231.292683 
L 220.210514 -233.044638 
L 220.518914 -234.796592 
L 220.740602 -236.548546 
L 220.913761 -238.300501 
L 221.056382 -240.052455 
L 221.172479 -241.804409 
L 221.261148 -243.556364 
L 221.538852 -243.556364 
L 221.538852 -243.556364 
L 221.627521 -241.804409 
L 221.743618 -240.052455 
L 221.886239 -238.300501 
L 222.059398 -236.548546 
L 222.281086 -234.796592 
L 222.589486 -233.044638 
L 223.036932 -231.292683 
L 223.666293 -229.540729 
L 224.482081 -227.788775 
L 225.445333 -226.03682 
L 226.507785 -224.284866 
L 227.657644 -222.532912 
L 228.925082 -220.780957 
L 230.330513 -219.029003 
L 231.822558 -217.277049 
L 233.270702 -215.525094 
L 234.522001 -213.77314 
L 235.465775 -212.021185 
L 236.053602 -210.269231 
L 236.28 -208.517277 
L 236.163601 -206.765322 
L 235.749729 -205.013368 
L 235.12086 -203.261414 
L 234.388998 -201.509459 
L 233.65983 -199.757505 
L 232.98835 -198.005551 
L 232.361577 -196.253596 
L 231.726258 -194.501642 
L 231.041092 -192.749688 
L 230.310922 -190.997733 
L 229.577884 -189.245779 
L 228.88536 -187.493825 
L 228.251721 -185.74187 
L 227.672458 -183.989916 
L 227.138805 -182.237962 
L 226.651027 -180.486007 
L 226.215689 -178.734053 
L 225.833458 -176.982099 
L 225.493287 -175.230144 
L 225.179134 -173.47819 
L 224.878394 -171.726236 
L 224.582432 -169.974281 
L 224.28363 -168.222327 
L 223.975602 -166.470373 
L 223.657552 -164.718418 
L 223.342288 -162.966464 
L 223.06029 -161.21451 
L 222.845681 -159.462555 
L 222.708818 -157.710601 
L 222.62483 -155.958647 
L 222.553814 -154.206692 
L 222.471444 -152.454738 
L 222.379963 -150.702784 
L 222.29467 -148.950829 
L 222.224158 -147.198875 
L 222.163017 -145.44692 
L 222.100521 -143.694966 
L 222.03345 -141.943012 
L 221.968648 -140.191057 
L 221.913587 -138.439103 
L 221.866908 -136.687149 
L 221.819631 -134.935194 
L 221.764491 -133.18324 
L 221.702814 -131.431286 
L 221.642911 -129.679331 
L 221.593217 -127.927377 
L 221.557389 -126.175423 
L 221.53479 -124.423468 
L 221.523057 -122.671514 
L 221.518257 -120.91956 
L 221.513783 -119.167605 
L 221.502557 -117.415651 
L 221.482092 -115.663697 
L 221.456523 -113.911742 
L 221.432937 -112.159788 
L 221.416119 -110.407834 
L 221.406612 -108.655879 
L 221.402331 -106.903925 
L 221.400982 -105.151971 
L 221.401374 -103.400016 
L 221.40362 -101.648062 
L 221.408634 -99.896108 
L 221.416975 -98.144153 
L 221.427322 -96.392199 
L 221.436001 -94.640245 
L 221.4389 -92.88829 
L 221.434706 -91.136336 
L 221.426277 -89.384382 
L 221.418554 -87.632427 
L 221.415069 -85.880473 
L 221.415989 -84.128519 
L 221.418722 -82.376564 
L 221.420166 -80.62461 
L 221.419054 -78.872656 
L 221.416706 -77.120701 
L 221.415562 -75.368747 
L 221.416776 -73.616792 
L 221.419077 -71.864838 
L 221.419909 -70.112884 
z
" id="m86ac2f6def" style="stroke:#3d3d3d;stroke-width:1.5;"/>
    </defs>
    <g clip-path="url(#pf84574c65e)">
     <use style="fill:#e1812c;stroke:#3d3d3d;stroke-width:1.5;" x="0" xlink:href="#m86ac2f6def" y="288"/>
    </g>
   </g>
   <g id="PolyCollection_3">
    <defs>
     <path d="M 362.779389 -45.883636 
L 362.740611 -45.883636 
L 362.742613 -47.758609 
L 362.747462 -49.633581 
L 362.752725 -51.508553 
L 362.756574 -53.383526 
L 362.758541 -55.258498 
L 362.758843 -57.13347 
L 362.757349 -59.008443 
L 362.753178 -60.883415 
L 362.745436 -62.758387 
L 362.734925 -64.63336 
L 362.72526 -66.508332 
L 362.721274 -68.383304 
L 362.725265 -70.258277 
L 362.73493 -72.133249 
L 362.745422 -74.008221 
L 362.753082 -75.883194 
L 362.756971 -77.758166 
L 362.757711 -79.633138 
L 362.755904 -81.508111 
L 362.751842 -83.383083 
L 362.746308 -85.258055 
L 362.74099 -87.133027 
L 362.737221 -89.008 
L 362.733853 -90.882972 
L 362.726971 -92.757944 
L 362.71288 -94.632917 
L 362.692064 -96.507889 
L 362.66994 -98.382861 
L 362.652904 -100.257834 
L 362.643215 -102.132806 
L 362.63809 -104.007778 
L 362.633812 -105.882751 
L 362.629542 -107.757723 
L 362.626191 -109.632695 
L 362.622743 -111.507668 
L 362.616009 -113.38264 
L 362.604425 -115.257612 
L 362.589709 -117.132585 
L 362.572813 -119.007557 
L 362.549506 -120.882529 
L 362.512548 -122.757502 
L 362.458623 -124.632474 
L 362.391584 -126.507446 
L 362.3185 -128.382419 
L 362.243526 -130.257391 
L 362.165772 -132.132363 
L 362.082131 -134.007336 
L 361.991655 -135.882308 
L 361.897824 -137.75728 
L 361.807843 -139.632253 
L 361.729505 -141.507225 
L 361.665337 -143.382197 
L 361.607348 -145.25717 
L 361.540419 -147.132142 
L 361.454042 -149.007114 
L 361.348318 -150.882086 
L 361.225966 -152.757059 
L 361.081534 -154.632031 
L 360.901151 -156.507003 
L 360.67035 -158.381976 
L 360.381593 -160.256948 
L 360.039918 -162.13192 
L 359.664723 -164.006893 
L 359.280187 -165.881865 
L 358.895724 -167.756837 
L 358.495109 -169.63181 
L 358.049259 -171.506782 
L 357.539498 -173.381754 
L 356.963827 -175.256727 
L 356.322942 -177.131699 
L 355.613538 -179.006671 
L 354.846829 -180.881644 
L 354.066297 -182.756616 
L 353.322788 -184.631588 
L 352.619083 -186.506561 
L 351.897205 -188.381533 
L 351.103912 -190.256505 
L 350.264089 -192.131478 
L 349.472175 -194.00645 
L 348.815486 -195.881422 
L 348.325718 -197.756395 
L 348.005869 -199.631367 
L 347.88 -201.506339 
L 348.004065 -203.381312 
L 348.442725 -205.256284 
L 349.241145 -207.131256 
L 350.397282 -209.006229 
L 351.843885 -210.881201 
L 353.462561 -212.756173 
L 355.124294 -214.631145 
L 356.71977 -216.506118 
L 358.161797 -218.38109 
L 359.382407 -220.256062 
L 360.34674 -222.131035 
L 361.06802 -224.006007 
L 361.596125 -225.880979 
L 361.985558 -227.755952 
L 362.272896 -229.630924 
L 362.47721 -231.505896 
L 363.04279 -231.505896 
L 363.04279 -231.505896 
L 363.247104 -229.630924 
L 363.534442 -227.755952 
L 363.923875 -225.880979 
L 364.45198 -224.006007 
L 365.17326 -222.131035 
L 366.137593 -220.256062 
L 367.358203 -218.38109 
L 368.80023 -216.506118 
L 370.395706 -214.631145 
L 372.057439 -212.756173 
L 373.676115 -210.881201 
L 375.122718 -209.006229 
L 376.278855 -207.131256 
L 377.077275 -205.256284 
L 377.515935 -203.381312 
L 377.64 -201.506339 
L 377.514131 -199.631367 
L 377.194282 -197.756395 
L 376.704514 -195.881422 
L 376.047825 -194.00645 
L 375.255911 -192.131478 
L 374.416088 -190.256505 
L 373.622795 -188.381533 
L 372.900917 -186.506561 
L 372.197212 -184.631588 
L 371.453703 -182.756616 
L 370.673171 -180.881644 
L 369.906462 -179.006671 
L 369.197058 -177.131699 
L 368.556173 -175.256727 
L 367.980502 -173.381754 
L 367.470741 -171.506782 
L 367.024891 -169.63181 
L 366.624276 -167.756837 
L 366.239813 -165.881865 
L 365.855277 -164.006893 
L 365.480082 -162.13192 
L 365.138407 -160.256948 
L 364.84965 -158.381976 
L 364.618849 -156.507003 
L 364.438466 -154.632031 
L 364.294034 -152.757059 
L 364.171682 -150.882086 
L 364.065958 -149.007114 
L 363.979581 -147.132142 
L 363.912652 -145.25717 
L 363.854663 -143.382197 
L 363.790495 -141.507225 
L 363.712157 -139.632253 
L 363.622176 -137.75728 
L 363.528345 -135.882308 
L 363.437869 -134.007336 
L 363.354228 -132.132363 
L 363.276474 -130.257391 
L 363.2015 -128.382419 
L 363.128416 -126.507446 
L 363.061377 -124.632474 
L 363.007452 -122.757502 
L 362.970494 -120.882529 
L 362.947187 -119.007557 
L 362.930291 -117.132585 
L 362.915575 -115.257612 
L 362.903991 -113.38264 
L 362.897257 -111.507668 
L 362.893809 -109.632695 
L 362.890458 -107.757723 
L 362.886188 -105.882751 
L 362.88191 -104.007778 
L 362.876785 -102.132806 
L 362.867096 -100.257834 
L 362.85006 -98.382861 
L 362.827936 -96.507889 
L 362.80712 -94.632917 
L 362.793029 -92.757944 
L 362.786147 -90.882972 
L 362.782779 -89.008 
L 362.77901 -87.133027 
L 362.773692 -85.258055 
L 362.768158 -83.383083 
L 362.764096 -81.508111 
L 362.762289 -79.633138 
L 362.763029 -77.758166 
L 362.766918 -75.883194 
L 362.774578 -74.008221 
L 362.78507 -72.133249 
L 362.794735 -70.258277 
L 362.798726 -68.383304 
L 362.79474 -66.508332 
L 362.785075 -64.63336 
L 362.774564 -62.758387 
L 362.766822 -60.883415 
L 362.762651 -59.008443 
L 362.761157 -57.13347 
L 362.761459 -55.258498 
L 362.763426 -53.383526 
L 362.767275 -51.508553 
L 362.772538 -49.633581 
L 362.777387 -47.758609 
L 362.779389 -45.883636 
z
" id="m91721b1bba" style="stroke:#3d3d3d;stroke-width:1.5;"/>
    </defs>
    <g clip-path="url(#pf84574c65e)">
     <use style="fill:#3a923a;stroke:#3d3d3d;stroke-width:1.5;" x="0" xlink:href="#m91721b1bba" y="288"/>
    </g>
   </g>
   <g id="patch_3">
    <path clip-path="url(#pf84574c65e)" d="M 109.8 6.084596 
L 109.8 6.084596 
L 109.8 6.084596 
L 109.8 6.084596 
z
" style="fill:#3274a1;stroke:#3d3d3d;stroke-linejoin:miter;stroke-width:0.75;"/>
   </g>
   <g id="patch_4">
    <path clip-path="url(#pf84574c65e)" d="M 109.8 6.084596 
L 109.8 6.084596 
L 109.8 6.084596 
L 109.8 6.084596 
z
" style="fill:#e1812c;stroke:#3d3d3d;stroke-linejoin:miter;stroke-width:0.75;"/>
   </g>
   <g id="patch_5">
    <path clip-path="url(#pf84574c65e)" d="M 109.8 6.084596 
L 109.8 6.084596 
L 109.8 6.084596 
L 109.8 6.084596 
z
" style="fill:#3a923a;stroke:#3d3d3d;stroke-linejoin:miter;stroke-width:0.75;"/>
   </g>
   <g id="matplotlib.axis_1">
    <g id="xtick_1">
     <g id="line2d_1">
      <defs>
       <path d="M 0 0 
L 0 3.5 
" id="m4b94e74332" style="stroke:#000000;stroke-width:0.8;"/>
      </defs>
      <g>
       <use style="stroke:#000000;stroke-width:0.8;" x="109.8" xlink:href="#m4b94e74332" y="252"/>
      </g>
     </g>
     <g id="text_1">
      <!-- Z_1_ns -->
      <g transform="translate(92.420312 266.320312)scale(0.1 -0.1)">
       <defs>
        <path d="M 5.609375 72.90625 
L 62.890625 72.90625 
L 62.890625 65.375 
L 16.796875 8.296875 
L 64.015625 8.296875 
L 64.015625 0 
L 4.5 0 
L 4.5 7.515625 
L 50.59375 64.59375 
L 5.609375 64.59375 
z
" id="DejaVuSans-90"/>
        <path d="M 50.984375 -16.609375 
L 50.984375 -23.578125 
L -0.984375 -23.578125 
L -0.984375 -16.609375 
z
" id="DejaVuSans-95"/>
        <path d="M 12.40625 8.296875 
L 28.515625 8.296875 
L 28.515625 63.921875 
L 10.984375 60.40625 
L 10.984375 69.390625 
L 28.421875 72.90625 
L 38.28125 72.90625 
L 38.28125 8.296875 
L 54.390625 8.296875 
L 54.390625 0 
L 12.40625 0 
z
" id="DejaVuSans-49"/>
        <path d="M 54.890625 33.015625 
L 54.890625 0 
L 45.90625 0 
L 45.90625 32.71875 
Q 45.90625 40.484375 42.875 44.328125 
Q 39.84375 48.1875 33.796875 48.1875 
Q 26.515625 48.1875 22.3125 43.546875 
Q 18.109375 38.921875 18.109375 30.90625 
L 18.109375 0 
L 9.078125 0 
L 9.078125 54.6875 
L 18.109375 54.6875 
L 18.109375 46.1875 
Q 21.34375 51.125 25.703125 53.5625 
Q 30.078125 56 35.796875 56 
Q 45.21875 56 50.046875 50.171875 
Q 54.890625 44.34375 54.890625 33.015625 
z
" id="DejaVuSans-110"/>
        <path d="M 44.28125 53.078125 
L 44.28125 44.578125 
Q 40.484375 46.53125 36.375 47.5 
Q 32.28125 48.484375 27.875 48.484375 
Q 21.1875 48.484375 17.84375 46.4375 
Q 14.5 44.390625 14.5 40.28125 
Q 14.5 37.15625 16.890625 35.375 
Q 19.28125 33.59375 26.515625 31.984375 
L 29.59375 31.296875 
Q 39.15625 29.25 43.1875 25.515625 
Q 47.21875 21.78125 47.21875 15.09375 
Q 47.21875 7.46875 41.1875 3.015625 
Q 35.15625 -1.421875 24.609375 -1.421875 
Q 20.21875 -1.421875 15.453125 -0.5625 
Q 10.6875 0.296875 5.421875 2 
L 5.421875 11.28125 
Q 10.40625 8.6875 15.234375 7.390625 
Q 20.0625 6.109375 24.8125 6.109375 
Q 31.15625 6.109375 34.5625 8.28125 
Q 37.984375 10.453125 37.984375 14.40625 
Q 37.984375 18.0625 35.515625 20.015625 
Q 33.0625 21.96875 24.703125 23.78125 
L 21.578125 24.515625 
Q 13.234375 26.265625 9.515625 29.90625 
Q 5.8125 33.546875 5.8125 39.890625 
Q 5.8125 47.609375 11.28125 51.796875 
Q 16.75 56 26.8125 56 
Q 31.78125 56 36.171875 55.265625 
Q 40.578125 54.546875 44.28125 53.078125 
z
" id="DejaVuSans-115"/>
       </defs>
       <use xlink:href="#DejaVuSans-90"/>
       <use x="68.505859" xlink:href="#DejaVuSans-95"/>
       <use x="118.505859" xlink:href="#DejaVuSans-49"/>
       <use x="182.128906" xlink:href="#DejaVuSans-95"/>
       <use x="232.128906" xlink:href="#DejaVuSans-110"/>
       <use x="295.507812" xlink:href="#DejaVuSans-115"/>
      </g>
     </g>
    </g>
    <g id="xtick_2">
     <g id="line2d_2">
      <g>
       <use style="stroke:#000000;stroke-width:0.8;" x="221.4" xlink:href="#m4b94e74332" y="252"/>
      </g>
     </g>
     <g id="text_2">
      <!-- Z_2_ns -->
      <g transform="translate(204.020312 266.421875)scale(0.1 -0.1)">
       <defs>
        <path d="M 19.1875 8.296875 
L 53.609375 8.296875 
L 53.609375 0 
L 7.328125 0 
L 7.328125 8.296875 
Q 12.9375 14.109375 22.625 23.890625 
Q 32.328125 33.6875 34.8125 36.53125 
Q 39.546875 41.84375 41.421875 45.53125 
Q 43.3125 49.21875 43.3125 52.78125 
Q 43.3125 58.59375 39.234375 62.25 
Q 35.15625 65.921875 28.609375 65.921875 
Q 23.96875 65.921875 18.8125 64.3125 
Q 13.671875 62.703125 7.8125 59.421875 
L 7.8125 69.390625 
Q 13.765625 71.78125 18.9375 73 
Q 24.125 74.21875 28.421875 74.21875 
Q 39.75 74.21875 46.484375 68.546875 
Q 53.21875 62.890625 53.21875 53.421875 
Q 53.21875 48.921875 51.53125 44.890625 
Q 49.859375 40.875 45.40625 35.40625 
Q 44.1875 33.984375 37.640625 27.21875 
Q 31.109375 20.453125 19.1875 8.296875 
z
" id="DejaVuSans-50"/>
       </defs>
       <use xlink:href="#DejaVuSans-90"/>
       <use x="68.505859" xlink:href="#DejaVuSans-95"/>
       <use x="118.505859" xlink:href="#DejaVuSans-50"/>
       <use x="182.128906" xlink:href="#DejaVuSans-95"/>
       <use x="232.128906" xlink:href="#DejaVuSans-110"/>
       <use x="295.507812" xlink:href="#DejaVuSans-115"/>
      </g>
     </g>
    </g>
    <g id="xtick_3">
     <g id="line2d_3">
      <g>
       <use style="stroke:#000000;stroke-width:0.8;" x="333" xlink:href="#m4b94e74332" y="252"/>
      </g>
     </g>
     <g id="text_3">
      <!-- Z_3_ns -->
      <g transform="translate(315.620313 266.421875)scale(0.1 -0.1)">
       <defs>
        <path d="M 40.578125 39.3125 
Q 47.65625 37.796875 51.625 33 
Q 55.609375 28.21875 55.609375 21.1875 
Q 55.609375 10.40625 48.1875 4.484375 
Q 40.765625 -1.421875 27.09375 -1.421875 
Q 22.515625 -1.421875 17.65625 -0.515625 
Q 12.796875 0.390625 7.625 2.203125 
L 7.625 11.71875 
Q 11.71875 9.328125 16.59375 8.109375 
Q 21.484375 6.890625 26.8125 6.890625 
Q 36.078125 6.890625 40.9375 10.546875 
Q 45.796875 14.203125 45.796875 21.1875 
Q 45.796875 27.640625 41.28125 31.265625 
Q 36.765625 34.90625 28.71875 34.90625 
L 20.21875 34.90625 
L 20.21875 43.015625 
L 29.109375 43.015625 
Q 36.375 43.015625 40.234375 45.921875 
Q 44.09375 48.828125 44.09375 54.296875 
Q 44.09375 59.90625 40.109375 62.90625 
Q 36.140625 65.921875 28.71875 65.921875 
Q 24.65625 65.921875 20.015625 65.03125 
Q 15.375 64.15625 9.8125 62.3125 
L 9.8125 71.09375 
Q 15.4375 72.65625 20.34375 73.4375 
Q 25.25 74.21875 29.59375 74.21875 
Q 40.828125 74.21875 47.359375 69.109375 
Q 53.90625 64.015625 53.90625 55.328125 
Q 53.90625 49.265625 50.4375 45.09375 
Q 46.96875 40.921875 40.578125 39.3125 
z
" id="DejaVuSans-51"/>
       </defs>
       <use xlink:href="#DejaVuSans-90"/>
       <use x="68.505859" xlink:href="#DejaVuSans-95"/>
       <use x="118.505859" xlink:href="#DejaVuSans-51"/>
       <use x="182.128906" xlink:href="#DejaVuSans-95"/>
       <use x="232.128906" xlink:href="#DejaVuSans-110"/>
       <use x="295.507812" xlink:href="#DejaVuSans-115"/>
      </g>
     </g>
    </g>
    <g id="text_4">
     <!-- set -->
     <g transform="translate(213.758594 280.378125)scale(0.1 -0.1)">
      <defs>
       <path d="M 56.203125 29.59375 
L 56.203125 25.203125 
L 14.890625 25.203125 
Q 15.484375 15.921875 20.484375 11.0625 
Q 25.484375 6.203125 34.421875 6.203125 
Q 39.59375 6.203125 44.453125 7.46875 
Q 49.3125 8.734375 54.109375 11.28125 
L 54.109375 2.78125 
Q 49.265625 0.734375 44.1875 -0.34375 
Q 39.109375 -1.421875 33.890625 -1.421875 
Q 20.796875 -1.421875 13.15625 6.1875 
Q 5.515625 13.8125 5.515625 26.8125 
Q 5.515625 40.234375 12.765625 48.109375 
Q 20.015625 56 32.328125 56 
Q 43.359375 56 49.78125 48.890625 
Q 56.203125 41.796875 56.203125 29.59375 
z
M 47.21875 32.234375 
Q 47.125 39.59375 43.09375 43.984375 
Q 39.0625 48.390625 32.421875 48.390625 
Q 24.90625 48.390625 20.390625 44.140625 
Q 15.875 39.890625 15.1875 32.171875 
z
" id="DejaVuSans-101"/>
       <path d="M 18.3125 70.21875 
L 18.3125 54.6875 
L 36.8125 54.6875 
L 36.8125 47.703125 
L 18.3125 47.703125 
L 18.3125 18.015625 
Q 18.3125 11.328125 20.140625 9.421875 
Q 21.96875 7.515625 27.59375 7.515625 
L 36.8125 7.515625 
L 36.8125 0 
L 27.59375 0 
Q 17.1875 0 13.234375 3.875 
Q 9.28125 7.765625 9.28125 18.015625 
L 9.28125 47.703125 
L 2.6875 47.703125 
L 2.6875 54.6875 
L 9.28125 54.6875 
L 9.28125 70.21875 
z
" id="DejaVuSans-116"/>
      </defs>
      <use xlink:href="#DejaVuSans-115"/>
      <use x="52.099609" xlink:href="#DejaVuSans-101"/>
      <use x="113.623047" xlink:href="#DejaVuSans-116"/>
     </g>
    </g>
   </g>
   <g id="matplotlib.axis_2">
    <g id="ytick_1">
     <g id="line2d_4">
      <defs>
       <path d="M 0 0 
L -3.5 0 
" id="mda8e032376" style="stroke:#000000;stroke-width:0.8;"/>
      </defs>
      <g>
       <use style="stroke:#000000;stroke-width:0.8;" x="54" xlink:href="#mda8e032376" y="238.380681"/>
      </g>
     </g>
     <g id="text_5">
      <!-- −120 -->
      <g transform="translate(19.532812 242.1799)scale(0.1 -0.1)">
       <defs>
        <path d="M 10.59375 35.5 
L 73.1875 35.5 
L 73.1875 27.203125 
L 10.59375 27.203125 
z
" id="DejaVuSans-8722"/>
        <path d="M 31.78125 66.40625 
Q 24.171875 66.40625 20.328125 58.90625 
Q 16.5 51.421875 16.5 36.375 
Q 16.5 21.390625 20.328125 13.890625 
Q 24.171875 6.390625 31.78125 6.390625 
Q 39.453125 6.390625 43.28125 13.890625 
Q 47.125 21.390625 47.125 36.375 
Q 47.125 51.421875 43.28125 58.90625 
Q 39.453125 66.40625 31.78125 66.40625 
z
M 31.78125 74.21875 
Q 44.046875 74.21875 50.515625 64.515625 
Q 56.984375 54.828125 56.984375 36.375 
Q 56.984375 17.96875 50.515625 8.265625 
Q 44.046875 -1.421875 31.78125 -1.421875 
Q 19.53125 -1.421875 13.0625 8.265625 
Q 6.59375 17.96875 6.59375 36.375 
Q 6.59375 54.828125 13.0625 64.515625 
Q 19.53125 74.21875 31.78125 74.21875 
z
" id="DejaVuSans-48"/>
       </defs>
       <use xlink:href="#DejaVuSans-8722"/>
       <use x="83.789062" xlink:href="#DejaVuSans-49"/>
       <use x="147.412109" xlink:href="#DejaVuSans-50"/>
       <use x="211.035156" xlink:href="#DejaVuSans-48"/>
      </g>
     </g>
    </g>
    <g id="ytick_2">
     <g id="line2d_5">
      <g>
       <use style="stroke:#000000;stroke-width:0.8;" x="54" xlink:href="#mda8e032376" y="199.664667"/>
      </g>
     </g>
     <g id="text_6">
      <!-- −100 -->
      <g transform="translate(19.532812 203.463886)scale(0.1 -0.1)">
       <use xlink:href="#DejaVuSans-8722"/>
       <use x="83.789062" xlink:href="#DejaVuSans-49"/>
       <use x="147.412109" xlink:href="#DejaVuSans-48"/>
       <use x="211.035156" xlink:href="#DejaVuSans-48"/>
      </g>
     </g>
    </g>
    <g id="ytick_3">
     <g id="line2d_6">
      <g>
       <use style="stroke:#000000;stroke-width:0.8;" x="54" xlink:href="#mda8e032376" y="160.948653"/>
      </g>
     </g>
     <g id="text_7">
      <!-- −80 -->
      <g transform="translate(25.895312 164.747872)scale(0.1 -0.1)">
       <defs>
        <path d="M 31.78125 34.625 
Q 24.75 34.625 20.71875 30.859375 
Q 16.703125 27.09375 16.703125 20.515625 
Q 16.703125 13.921875 20.71875 10.15625 
Q 24.75 6.390625 31.78125 6.390625 
Q 38.8125 6.390625 42.859375 10.171875 
Q 46.921875 13.96875 46.921875 20.515625 
Q 46.921875 27.09375 42.890625 30.859375 
Q 38.875 34.625 31.78125 34.625 
z
M 21.921875 38.8125 
Q 15.578125 40.375 12.03125 44.71875 
Q 8.5 49.078125 8.5 55.328125 
Q 8.5 64.0625 14.71875 69.140625 
Q 20.953125 74.21875 31.78125 74.21875 
Q 42.671875 74.21875 48.875 69.140625 
Q 55.078125 64.0625 55.078125 55.328125 
Q 55.078125 49.078125 51.53125 44.71875 
Q 48 40.375 41.703125 38.8125 
Q 48.828125 37.15625 52.796875 32.3125 
Q 56.78125 27.484375 56.78125 20.515625 
Q 56.78125 9.90625 50.3125 4.234375 
Q 43.84375 -1.421875 31.78125 -1.421875 
Q 19.734375 -1.421875 13.25 4.234375 
Q 6.78125 9.90625 6.78125 20.515625 
Q 6.78125 27.484375 10.78125 32.3125 
Q 14.796875 37.15625 21.921875 38.8125 
z
M 18.3125 54.390625 
Q 18.3125 48.734375 21.84375 45.5625 
Q 25.390625 42.390625 31.78125 42.390625 
Q 38.140625 42.390625 41.71875 45.5625 
Q 45.3125 48.734375 45.3125 54.390625 
Q 45.3125 60.0625 41.71875 63.234375 
Q 38.140625 66.40625 31.78125 66.40625 
Q 25.390625 66.40625 21.84375 63.234375 
Q 18.3125 60.0625 18.3125 54.390625 
z
" id="DejaVuSans-56"/>
       </defs>
       <use xlink:href="#DejaVuSans-8722"/>
       <use x="83.789062" xlink:href="#DejaVuSans-56"/>
       <use x="147.412109" xlink:href="#DejaVuSans-48"/>
      </g>
     </g>
    </g>
    <g id="ytick_4">
     <g id="line2d_7">
      <g>
       <use style="stroke:#000000;stroke-width:0.8;" x="54" xlink:href="#mda8e032376" y="122.232639"/>
      </g>
     </g>
     <g id="text_8">
      <!-- −60 -->
      <g transform="translate(25.895312 126.031857)scale(0.1 -0.1)">
       <defs>
        <path d="M 33.015625 40.375 
Q 26.375 40.375 22.484375 35.828125 
Q 18.609375 31.296875 18.609375 23.390625 
Q 18.609375 15.53125 22.484375 10.953125 
Q 26.375 6.390625 33.015625 6.390625 
Q 39.65625 6.390625 43.53125 10.953125 
Q 47.40625 15.53125 47.40625 23.390625 
Q 47.40625 31.296875 43.53125 35.828125 
Q 39.65625 40.375 33.015625 40.375 
z
M 52.59375 71.296875 
L 52.59375 62.3125 
Q 48.875 64.0625 45.09375 64.984375 
Q 41.3125 65.921875 37.59375 65.921875 
Q 27.828125 65.921875 22.671875 59.328125 
Q 17.53125 52.734375 16.796875 39.40625 
Q 19.671875 43.65625 24.015625 45.921875 
Q 28.375 48.1875 33.59375 48.1875 
Q 44.578125 48.1875 50.953125 41.515625 
Q 57.328125 34.859375 57.328125 23.390625 
Q 57.328125 12.15625 50.6875 5.359375 
Q 44.046875 -1.421875 33.015625 -1.421875 
Q 20.359375 -1.421875 13.671875 8.265625 
Q 6.984375 17.96875 6.984375 36.375 
Q 6.984375 53.65625 15.1875 63.9375 
Q 23.390625 74.21875 37.203125 74.21875 
Q 40.921875 74.21875 44.703125 73.484375 
Q 48.484375 72.75 52.59375 71.296875 
z
" id="DejaVuSans-54"/>
       </defs>
       <use xlink:href="#DejaVuSans-8722"/>
       <use x="83.789062" xlink:href="#DejaVuSans-54"/>
       <use x="147.412109" xlink:href="#DejaVuSans-48"/>
      </g>
     </g>
    </g>
    <g id="ytick_5">
     <g id="line2d_8">
      <g>
       <use style="stroke:#000000;stroke-width:0.8;" x="54" xlink:href="#mda8e032376" y="83.516624"/>
      </g>
     </g>
     <g id="text_9">
      <!-- −40 -->
      <g transform="translate(25.895312 87.315843)scale(0.1 -0.1)">
       <defs>
        <path d="M 37.796875 64.3125 
L 12.890625 25.390625 
L 37.796875 25.390625 
z
M 35.203125 72.90625 
L 47.609375 72.90625 
L 47.609375 25.390625 
L 58.015625 25.390625 
L 58.015625 17.1875 
L 47.609375 17.1875 
L 47.609375 0 
L 37.796875 0 
L 37.796875 17.1875 
L 4.890625 17.1875 
L 4.890625 26.703125 
z
" id="DejaVuSans-52"/>
       </defs>
       <use xlink:href="#DejaVuSans-8722"/>
       <use x="83.789062" xlink:href="#DejaVuSans-52"/>
       <use x="147.412109" xlink:href="#DejaVuSans-48"/>
      </g>
     </g>
    </g>
    <g id="ytick_6">
     <g id="line2d_9">
      <g>
       <use style="stroke:#000000;stroke-width:0.8;" x="54" xlink:href="#mda8e032376" y="44.80061"/>
      </g>
     </g>
     <g id="text_10">
      <!-- −20 -->
      <g transform="translate(25.895312 48.599829)scale(0.1 -0.1)">
       <use xlink:href="#DejaVuSans-8722"/>
       <use x="83.789062" xlink:href="#DejaVuSans-50"/>
       <use x="147.412109" xlink:href="#DejaVuSans-48"/>
      </g>
     </g>
    </g>
    <g id="text_11">
     <!-- value -->
     <g transform="translate(13.453125 156.937813)rotate(-90)scale(0.1 -0.1)">
      <defs>
       <path d="M 2.984375 54.6875 
L 12.5 54.6875 
L 29.59375 8.796875 
L 46.6875 54.6875 
L 56.203125 54.6875 
L 35.6875 0 
L 23.484375 0 
z
" id="DejaVuSans-118"/>
       <path d="M 34.28125 27.484375 
Q 23.390625 27.484375 19.1875 25 
Q 14.984375 22.515625 14.984375 16.5 
Q 14.984375 11.71875 18.140625 8.90625 
Q 21.296875 6.109375 26.703125 6.109375 
Q 34.1875 6.109375 38.703125 11.40625 
Q 43.21875 16.703125 43.21875 25.484375 
L 43.21875 27.484375 
z
M 52.203125 31.203125 
L 52.203125 0 
L 43.21875 0 
L 43.21875 8.296875 
Q 40.140625 3.328125 35.546875 0.953125 
Q 30.953125 -1.421875 24.3125 -1.421875 
Q 15.921875 -1.421875 10.953125 3.296875 
Q 6 8.015625 6 15.921875 
Q 6 25.140625 12.171875 29.828125 
Q 18.359375 34.515625 30.609375 34.515625 
L 43.21875 34.515625 
L 43.21875 35.40625 
Q 43.21875 41.609375 39.140625 45 
Q 35.0625 48.390625 27.6875 48.390625 
Q 23 48.390625 18.546875 47.265625 
Q 14.109375 46.140625 10.015625 43.890625 
L 10.015625 52.203125 
Q 14.9375 54.109375 19.578125 55.046875 
Q 24.21875 56 28.609375 56 
Q 40.484375 56 46.34375 49.84375 
Q 52.203125 43.703125 52.203125 31.203125 
z
" id="DejaVuSans-97"/>
       <path d="M 9.421875 75.984375 
L 18.40625 75.984375 
L 18.40625 0 
L 9.421875 0 
z
" id="DejaVuSans-108"/>
       <path d="M 8.5 21.578125 
L 8.5 54.6875 
L 17.484375 54.6875 
L 17.484375 21.921875 
Q 17.484375 14.15625 20.5 10.265625 
Q 23.53125 6.390625 29.59375 6.390625 
Q 36.859375 6.390625 41.078125 11.03125 
Q 45.3125 15.671875 45.3125 23.6875 
L 45.3125 54.6875 
L 54.296875 54.6875 
L 54.296875 0 
L 45.3125 0 
L 45.3125 8.40625 
Q 42.046875 3.421875 37.71875 1 
Q 33.40625 -1.421875 27.6875 -1.421875 
Q 18.265625 -1.421875 13.375 4.4375 
Q 8.5 10.296875 8.5 21.578125 
z
M 31.109375 56 
z
" id="DejaVuSans-117"/>
      </defs>
      <use xlink:href="#DejaVuSans-118"/>
      <use x="59.179688" xlink:href="#DejaVuSans-97"/>
      <use x="120.458984" xlink:href="#DejaVuSans-108"/>
      <use x="148.242188" xlink:href="#DejaVuSans-117"/>
      <use x="211.621094" xlink:href="#DejaVuSans-101"/>
     </g>
    </g>
   </g>
   <g id="line2d_10">
    <path clip-path="url(#pf84574c65e)" d="M 80.04 130.627065 
L 80.04 44.56314 
" style="fill:none;stroke:#3d3d3d;stroke-linecap:square;stroke-width:1.5;"/>
   </g>
   <g id="line2d_11">
    <path clip-path="url(#pf84574c65e)" d="M 80.04 96.190166 
L 80.04 73.186368 
" style="fill:none;stroke:#3d3d3d;stroke-linecap:square;stroke-width:4.5;"/>
   </g>
   <g id="line2d_12">
    <path clip-path="url(#pf84574c65e)" d="M 221.4 134.029736 
L 221.4 44.443636 
" style="fill:none;stroke:#3d3d3d;stroke-linecap:square;stroke-width:1.5;"/>
   </g>
   <g id="line2d_13">
    <path clip-path="url(#pf84574c65e)" d="M 221.4 99.18268 
L 221.4 75.870653 
" style="fill:none;stroke:#3d3d3d;stroke-linecap:square;stroke-width:4.5;"/>
   </g>
   <g id="line2d_14">
    <path clip-path="url(#pf84574c65e)" d="M 362.76 140.041645 
L 362.76 56.494104 
" style="fill:none;stroke:#3d3d3d;stroke-linecap:square;stroke-width:1.5;"/>
   </g>
   <g id="line2d_15">
    <path clip-path="url(#pf84574c65e)" d="M 362.76 105.588558 
L 362.76 82.536794 
" style="fill:none;stroke:#3d3d3d;stroke-linecap:square;stroke-width:4.5;"/>
   </g>
   <g id="patch_6">
    <path d="M 54 252 
L 54 34.56 
" style="fill:none;stroke:#000000;stroke-linecap:square;stroke-linejoin:miter;stroke-width:0.8;"/>
   </g>
   <g id="patch_7">
    <path d="M 388.8 252 
L 388.8 34.56 
" style="fill:none;stroke:#000000;stroke-linecap:square;stroke-linejoin:miter;stroke-width:0.8;"/>
   </g>
   <g id="patch_8">
    <path d="M 54 252 
L 388.8 252 
" style="fill:none;stroke:#000000;stroke-linecap:square;stroke-linejoin:miter;stroke-width:0.8;"/>
   </g>
   <g id="patch_9">
    <path d="M 54 34.56 
L 388.8 34.56 
" style="fill:none;stroke:#000000;stroke-linecap:square;stroke-linejoin:miter;stroke-width:0.8;"/>
   </g>
   <g id="PathCollection_1">
    <defs>
     <path d="M 0 1.5 
C 0.397805 1.5 0.77937 1.341951 1.06066 1.06066 
C 1.341951 0.77937 1.5 0.397805 1.5 0 
C 1.5 -0.397805 1.341951 -0.77937 1.06066 -1.06066 
C 0.77937 -1.341951 0.397805 -1.5 0 -1.5 
C -0.397805 -1.5 -0.77937 -1.341951 -1.06066 -1.06066 
C -1.341951 -0.77937 -1.5 -0.397805 -1.5 0 
C -1.5 0.397805 -1.341951 0.77937 -1.06066 1.06066 
C -0.77937 1.341951 -0.397805 1.5 0 1.5 
z
" id="m0951517f7c" style="stroke:#3d3d3d;"/>
    </defs>
    <g clip-path="url(#pf84574c65e)">
     <use style="fill:#ffffff;stroke:#3d3d3d;" x="80.04" xlink:href="#m0951517f7c" y="83.586748"/>
    </g>
   </g>
   <g id="PathCollection_2">
    <g clip-path="url(#pf84574c65e)">
     <use style="fill:#ffffff;stroke:#3d3d3d;" x="221.4" xlink:href="#m0951517f7c" y="85.336799"/>
    </g>
   </g>
   <g id="PathCollection_3">
    <g clip-path="url(#pf84574c65e)">
     <use style="fill:#ffffff;stroke:#3d3d3d;" x="362.76" xlink:href="#m0951517f7c" y="92.548008"/>
    </g>
   </g>
   <g id="legend_1">
    <g id="patch_10">
     <path d="M 61 247 
L 127.759375 247 
Q 129.759375 247 129.759375 245 
L 129.759375 186.453125 
Q 129.759375 184.453125 127.759375 184.453125 
L 61 184.453125 
Q 59 184.453125 59 186.453125 
L 59 245 
Q 59 247 61 247 
z
" style="fill:#ffffff;opacity:0.8;stroke:#cccccc;stroke-linejoin:miter;"/>
    </g>
    <g id="text_12">
     <!-- set -->
     <g transform="translate(86.738281 196.051562)scale(0.1 -0.1)">
      <use xlink:href="#DejaVuSans-115"/>
      <use x="52.099609" xlink:href="#DejaVuSans-101"/>
      <use x="113.623047" xlink:href="#DejaVuSans-116"/>
     </g>
    </g>
    <g id="patch_11">
     <path d="M 63 210.729687 
L 83 210.729687 
L 83 203.729687 
L 63 203.729687 
z
" style="fill:#3274a1;stroke:#3d3d3d;stroke-linejoin:miter;stroke-width:0.75;"/>
    </g>
    <g id="text_13">
     <!-- Z_1_ns -->
     <g transform="translate(91 210.729687)scale(0.1 -0.1)">
      <use xlink:href="#DejaVuSans-90"/>
      <use x="68.505859" xlink:href="#DejaVuSans-95"/>
      <use x="118.505859" xlink:href="#DejaVuSans-49"/>
      <use x="182.128906" xlink:href="#DejaVuSans-95"/>
      <use x="232.128906" xlink:href="#DejaVuSans-110"/>
      <use x="295.507812" xlink:href="#DejaVuSans-115"/>
     </g>
    </g>
    <g id="patch_12">
     <path d="M 63 225.685937 
L 83 225.685937 
L 83 218.685937 
L 63 218.685937 
z
" style="fill:#e1812c;stroke:#3d3d3d;stroke-linejoin:miter;stroke-width:0.75;"/>
    </g>
    <g id="text_14">
     <!-- Z_2_ns -->
     <g transform="translate(91 225.685937)scale(0.1 -0.1)">
      <use xlink:href="#DejaVuSans-90"/>
      <use x="68.505859" xlink:href="#DejaVuSans-95"/>
      <use x="118.505859" xlink:href="#DejaVuSans-50"/>
      <use x="182.128906" xlink:href="#DejaVuSans-95"/>
      <use x="232.128906" xlink:href="#DejaVuSans-110"/>
      <use x="295.507812" xlink:href="#DejaVuSans-115"/>
     </g>
    </g>
    <g id="patch_13">
     <path d="M 63 240.642187 
L 83 240.642187 
L 83 233.642187 
L 63 233.642187 
z
" style="fill:#3a923a;stroke:#3d3d3d;stroke-linejoin:miter;stroke-width:0.75;"/>
    </g>
    <g id="text_15">
     <!-- Z_3_ns -->
     <g transform="translate(91 240.642187)scale(0.1 -0.1)">
      <use xlink:href="#DejaVuSans-90"/>
      <use x="68.505859" xlink:href="#DejaVuSans-95"/>
      <use x="118.505859" xlink:href="#DejaVuSans-51"/>
      <use x="182.128906" xlink:href="#DejaVuSans-95"/>
      <use x="232.128906" xlink:href="#DejaVuSans-110"/>
      <use x="295.507812" xlink:href="#DejaVuSans-115"/>
     </g>
    </g>
   </g>
  </g>
 </g>
 <defs>
  <clipPath id="pf84574c65e">
   <rect height="217.44" width="334.8" x="54" y="34.56"/>
  </clipPath>
 </defs>
</svg>
