<?xml version="1.0" encoding="utf-8" standalone="no"?>
<!DOCTYPE svg PUBLIC "-//W3C//DTD SVG 1.1//EN"
  "http://www.w3.org/Graphics/SVG/1.1/DTD/svg11.dtd">
<!-- Created with matplotlib (https://matplotlib.org/) -->
<svg height="288pt" version="1.1" viewBox="0 0 432 288" width="432pt" xmlns="http://www.w3.org/2000/svg" xmlns:xlink="http://www.w3.org/1999/xlink">
 <metadata>
  <rdf:RDF xmlns:cc="http://creativecommons.org/ns#" xmlns:dc="http://purl.org/dc/elements/1.1/" xmlns:rdf="http://www.w3.org/1999/02/22-rdf-syntax-ns#">
   <cc:Work>
    <dc:type rdf:resource="http://purl.org/dc/dcmitype/StillImage"/>
    <dc:date>2022-07-16T12:03:21.766939</dc:date>
    <dc:format>image/svg+xml</dc:format>
    <dc:creator>
     <cc:Agent>
      <dc:title>Matplotlib v3.3.4, https://matplotlib.org/</dc:title>
     </cc:Agent>
    </dc:creator>
   </cc:Work>
  </rdf:RDF>
 </metadata>
 <defs>
  <style type="text/css">*{stroke-linecap:butt;stroke-linejoin:round;}</style>
 </defs>
 <g id="figure_1">
  <g id="patch_1">
   <path d="M 0 288 
L 432 288 
L 432 0 
L 0 0 
z
" style="fill:#ffffff;"/>
  </g>
  <g id="axes_1">
   <g id="patch_2">
    <path d="M 54 252 
L 388.8 252 
L 388.8 34.56 
L 54 34.56 
z
" style="fill:#ffffff;"/>
   </g>
   <g id="PolyCollection_1">
    <defs>
     <path d="M 116.783702 -46.839908 
L 91.656298 -46.839908 
L 88.860688 -48.727677 
L 86.171658 -50.615445 
L 83.752149 -52.503214 
L 81.717442 -54.390982 
L 80.118555 -56.278751 
L 78.94173 -58.166519 
L 78.122182 -60.054288 
L 77.566686 -61.942056 
L 77.178215 -63.829825 
L 76.876527 -65.717594 
L 76.610413 -67.605362 
L 76.359628 -69.493131 
L 76.127221 -71.380899 
L 75.925678 -73.268668 
L 75.762361 -75.156436 
L 75.630001 -77.044205 
L 75.505948 -78.931973 
L 75.359938 -80.819742 
L 75.166188 -82.707511 
L 74.913629 -84.595279 
L 74.609296 -86.483048 
L 74.273542 -88.370816 
L 73.929896 -90.258585 
L 73.594825 -92.146353 
L 73.272207 -94.034122 
L 72.954588 -95.92189 
L 72.629864 -97.809659 
L 72.289788 -99.697428 
L 71.936467 -101.585196 
L 71.584598 -103.472965 
L 71.259337 -105.360733 
L 70.991271 -107.248502 
L 70.810315 -109.13627 
L 70.74 -111.024039 
L 70.793044 -112.911807 
L 70.969021 -114.799576 
L 71.254896 -116.687345 
L 71.628724 -118.575113 
L 72.065602 -120.462882 
L 72.543717 -122.35065 
L 73.048053 -124.238419 
L 73.570606 -126.126187 
L 74.108077 -128.013956 
L 74.65957 -129.901724 
L 75.2265 -131.789493 
L 75.814949 -133.677262 
L 76.438496 -135.56503 
L 77.118722 -137.452799 
L 77.881705 -139.340567 
L 78.751106 -141.228336 
L 79.740373 -143.116104 
L 80.847084 -145.003873 
L 82.051428 -146.891641 
L 83.31919 -148.77941 
L 84.608067 -150.667179 
L 85.875409 -152.554947 
L 87.085332 -154.442716 
L 88.213489 -156.330484 
L 89.248553 -158.218253 
L 90.190493 -160.106021 
L 91.046818 -161.99379 
L 91.828635 -163.881558 
L 92.548124 -165.769327 
L 93.217927 -167.657096 
L 93.851683 -169.544864 
L 94.464209 -171.432633 
L 95.070217 -173.320401 
L 95.681605 -175.20817 
L 96.304471 -177.095938 
L 96.937322 -178.983707 
L 97.571381 -180.871475 
L 98.192804 -182.759244 
L 98.785847 -184.647013 
L 99.335862 -186.534781 
L 99.831488 -188.42255 
L 100.26603 -190.310318 
L 100.638274 -192.198087 
L 100.952882 -194.085855 
L 101.220077 -195.973624 
L 101.454236 -197.861393 
L 101.67128 -199.749161 
L 101.885381 -201.63693 
L 102.105993 -203.524698 
L 102.336234 -205.412467 
L 102.573113 -207.300235 
L 102.809335 -209.188004 
L 103.035877 -211.075772 
L 103.244415 -212.963541 
L 103.428971 -214.85131 
L 103.586551 -216.739078 
L 103.716946 -218.626847 
L 103.822009 -220.514615 
L 103.904784 -222.402384 
L 103.968766 -224.290152 
L 104.017457 -226.177921 
L 104.054174 -228.065689 
L 104.082009 -229.953458 
L 104.103763 -231.841227 
L 104.121797 -233.728995 
L 104.318203 -233.728995 
L 104.318203 -233.728995 
L 104.336237 -231.841227 
L 104.357991 -229.953458 
L 104.385826 -228.065689 
L 104.422543 -226.177921 
L 104.471234 -224.290152 
L 104.535216 -222.402384 
L 104.617991 -220.514615 
L 104.723054 -218.626847 
L 104.853449 -216.739078 
L 105.011029 -214.85131 
L 105.195585 -212.963541 
L 105.404123 -211.075772 
L 105.630665 -209.188004 
L 105.866887 -207.300235 
L 106.103766 -205.412467 
L 106.334007 -203.524698 
L 106.554619 -201.63693 
L 106.76872 -199.749161 
L 106.985764 -197.861393 
L 107.219923 -195.973624 
L 107.487118 -194.085855 
L 107.801726 -192.198087 
L 108.17397 -190.310318 
L 108.608512 -188.42255 
L 109.104138 -186.534781 
L 109.654153 -184.647013 
L 110.247196 -182.759244 
L 110.868619 -180.871475 
L 111.502678 -178.983707 
L 112.135529 -177.095938 
L 112.758395 -175.20817 
L 113.369783 -173.320401 
L 113.975791 -171.432633 
L 114.588317 -169.544864 
L 115.222073 -167.657096 
L 115.891876 -165.769327 
L 116.611365 -163.881558 
L 117.393182 -161.99379 
L 118.249507 -160.106021 
L 119.191447 -158.218253 
L 120.226511 -156.330484 
L 121.354668 -154.442716 
L 122.564591 -152.554947 
L 123.831933 -150.667179 
L 125.12081 -148.77941 
L 126.388572 -146.891641 
L 127.592916 -145.003873 
L 128.699627 -143.116104 
L 129.688894 -141.228336 
L 130.558295 -139.340567 
L 131.321278 -137.452799 
L 132.001504 -135.56503 
L 132.625051 -133.677262 
L 133.2135 -131.789493 
L 133.78043 -129.901724 
L 134.331923 -128.013956 
L 134.869394 -126.126187 
L 135.391947 -124.238419 
L 135.896283 -122.35065 
L 136.374398 -120.462882 
L 136.811276 -118.575113 
L 137.185104 -116.687345 
L 137.470979 -114.799576 
L 137.646956 -112.911807 
L 137.7 -111.024039 
L 137.629685 -109.13627 
L 137.448729 -107.248502 
L 137.180663 -105.360733 
L 136.855402 -103.472965 
L 136.503533 -101.585196 
L 136.150212 -99.697428 
L 135.810136 -97.809659 
L 135.485412 -95.92189 
L 135.167793 -94.034122 
L 134.845175 -92.146353 
L 134.510104 -90.258585 
L 134.166458 -88.370816 
L 133.830704 -86.483048 
L 133.526371 -84.595279 
L 133.273812 -82.707511 
L 133.080062 -80.819742 
L 132.934052 -78.931973 
L 132.809999 -77.044205 
L 132.677639 -75.156436 
L 132.514322 -73.268668 
L 132.312779 -71.380899 
L 132.080372 -69.493131 
L 131.829587 -67.605362 
L 131.563473 -65.717594 
L 131.261785 -63.829825 
L 130.873314 -61.942056 
L 130.317818 -60.054288 
L 129.49827 -58.166519 
L 128.321445 -56.278751 
L 126.722558 -54.390982 
L 124.687851 -52.503214 
L 122.268342 -50.615445 
L 119.579312 -48.727677 
L 116.783702 -46.839908 
z
" id="m260011fce6" style="stroke:#3f3f3f;stroke-width:1.5;"/>
    </defs>
    <g clip-path="url(#p6af56a303e)">
     <use style="fill:#3274a1;stroke:#3f3f3f;stroke-width:1.5;" x="0" xlink:href="#m260011fce6" y="288"/>
    </g>
   </g>
   <g id="PolyCollection_2">
    <defs>
     <path d="M 344.491192 -45.883636 
L 332.668808 -45.883636 
L 330.970005 -47.880331 
L 329.243948 -49.877025 
L 327.601817 -51.873719 
L 326.122094 -53.870413 
L 324.83412 -55.867107 
L 323.719909 -57.863802 
L 322.731498 -59.860496 
L 321.814262 -61.85719 
L 320.925502 -63.853884 
L 320.042136 -65.850579 
L 319.158012 -67.847273 
L 318.276028 -69.843967 
L 317.401005 -71.840661 
L 316.536683 -73.837355 
L 315.686866 -75.83405 
L 314.858514 -77.830744 
L 314.064219 -79.827438 
L 313.322335 -81.824132 
L 312.654176 -83.820826 
L 312.078712 -85.817521 
L 311.606086 -87.814215 
L 311.232122 -89.810909 
L 310.93626 -91.807603 
L 310.684563 -93.804298 
L 310.437377 -95.800992 
L 310.158788 -97.797686 
L 309.823891 -99.79438 
L 309.420954 -101.791074 
L 308.948726 -103.787769 
L 308.412233 -105.784463 
L 307.821321 -107.781157 
L 307.193918 -109.777851 
L 306.561907 -111.774545 
L 305.974537 -113.77124 
L 305.494639 -115.767934 
L 305.186623 -117.764628 
L 305.1 -119.761322 
L 305.255255 -121.758017 
L 305.638381 -123.754711 
L 306.206612 -125.751405 
L 306.902849 -127.748099 
L 307.672637 -129.744793 
L 308.477223 -131.741488 
L 309.299023 -133.738182 
L 310.139697 -135.734876 
L 311.013616 -137.73157 
L 311.939837 -139.728264 
L 312.934683 -141.724959 
L 314.006142 -143.721653 
L 315.150954 -145.718347 
L 316.354972 -147.715041 
L 317.596504 -149.711736 
L 318.85114 -151.70843 
L 320.09607 -153.705124 
L 321.312522 -155.701818 
L 322.486362 -157.698512 
L 323.607944 -159.695207 
L 324.672273 -161.691901 
L 325.679549 -163.688595 
L 326.63517 -165.685289 
L 327.548096 -167.681983 
L 328.42737 -169.678678 
L 329.277845 -171.675372 
L 330.096986 -173.672066 
L 330.874419 -175.66876 
L 331.594805 -177.665455 
L 332.243129 -179.662149 
L 332.810326 -181.658843 
L 333.296961 -183.655537 
L 333.713557 -185.652231 
L 334.077728 -187.648926 
L 334.409612 -189.64562 
L 334.72752 -191.642314 
L 335.044982 -193.639008 
L 335.369365 -195.635702 
L 335.701531 -197.632397 
L 336.036122 -199.629091 
L 336.362568 -201.625785 
L 336.667145 -203.622479 
L 336.936159 -205.619174 
L 337.159618 -207.615868 
L 337.334201 -209.612562 
L 337.464303 -211.609256 
L 337.560588 -213.60595 
L 337.636509 -215.602645 
L 337.704133 -217.599339 
L 337.770905 -219.596033 
L 337.83852 -221.592727 
L 337.904097 -223.589421 
L 337.96285 -225.586116 
L 338.010959 -227.58281 
L 338.047466 -229.579504 
L 338.074694 -231.576198 
L 338.097358 -233.572893 
L 338.120993 -235.569587 
L 338.150365 -237.566281 
L 338.188313 -239.562975 
L 338.235205 -241.559669 
L 338.289015 -243.556364 
L 338.870985 -243.556364 
L 338.870985 -243.556364 
L 338.924795 -241.559669 
L 338.971687 -239.562975 
L 339.009635 -237.566281 
L 339.039007 -235.569587 
L 339.062642 -233.572893 
L 339.085306 -231.576198 
L 339.112534 -229.579504 
L 339.149041 -227.58281 
L 339.19715 -225.586116 
L 339.255903 -223.589421 
L 339.32148 -221.592727 
L 339.389095 -219.596033 
L 339.455867 -217.599339 
L 339.523491 -215.602645 
L 339.599412 -213.60595 
L 339.695697 -211.609256 
L 339.825799 -209.612562 
L 340.000382 -207.615868 
L 340.223841 -205.619174 
L 340.492855 -203.622479 
L 340.797432 -201.625785 
L 341.123878 -199.629091 
L 341.458469 -197.632397 
L 341.790635 -195.635702 
L 342.115018 -193.639008 
L 342.43248 -191.642314 
L 342.750388 -189.64562 
L 343.082272 -187.648926 
L 343.446443 -185.652231 
L 343.863039 -183.655537 
L 344.349674 -181.658843 
L 344.916871 -179.662149 
L 345.565195 -177.665455 
L 346.285581 -175.66876 
L 347.063014 -173.672066 
L 347.882155 -171.675372 
L 348.73263 -169.678678 
L 349.611904 -167.681983 
L 350.52483 -165.685289 
L 351.480451 -163.688595 
L 352.487727 -161.691901 
L 353.552056 -159.695207 
L 354.673638 -157.698512 
L 355.847478 -155.701818 
L 357.06393 -153.705124 
L 358.30886 -151.70843 
L 359.563496 -149.711736 
L 360.805028 -147.715041 
L 362.009046 -145.718347 
L 363.153858 -143.721653 
L 364.225317 -141.724959 
L 365.220163 -139.728264 
L 366.146384 -137.73157 
L 367.020303 -135.734876 
L 367.860977 -133.738182 
L 368.682777 -131.741488 
L 369.487363 -129.744793 
L 370.257151 -127.748099 
L 370.953388 -125.751405 
L 371.521619 -123.754711 
L 371.904745 -121.758017 
L 372.06 -119.761322 
L 371.973377 -117.764628 
L 371.665361 -115.767934 
L 371.185463 -113.77124 
L 370.598093 -111.774545 
L 369.966082 -109.777851 
L 369.338679 -107.781157 
L 368.747767 -105.784463 
L 368.211274 -103.787769 
L 367.739046 -101.791074 
L 367.336109 -99.79438 
L 367.001212 -97.797686 
L 366.722623 -95.800992 
L 366.475437 -93.804298 
L 366.22374 -91.807603 
L 365.927878 -89.810909 
L 365.553914 -87.814215 
L 365.081288 -85.817521 
L 364.505824 -83.820826 
L 363.837665 -81.824132 
L 363.095781 -79.827438 
L 362.301486 -77.830744 
L 361.473134 -75.83405 
L 360.623317 -73.837355 
L 359.758995 -71.840661 
L 358.883972 -69.843967 
L 358.001988 -67.847273 
L 357.117864 -65.850579 
L 356.234498 -63.853884 
L 355.345738 -61.85719 
L 354.428502 -59.860496 
L 353.440091 -57.863802 
L 352.32588 -55.867107 
L 351.037906 -53.870413 
L 349.558183 -51.873719 
L 347.916052 -49.877025 
L 346.189995 -47.880331 
L 344.491192 -45.883636 
z
" id="m99a60fb0c9" style="stroke:#3f3f3f;stroke-width:1.5;"/>
    </defs>
    <g clip-path="url(#p6af56a303e)">
     <use style="fill:#e1812c;stroke:#3f3f3f;stroke-width:1.5;" x="0" xlink:href="#m99a60fb0c9" y="288"/>
    </g>
   </g>
   <g id="patch_3">
    <path clip-path="url(#p6af56a303e)" d="M 137.7 241.804024 
L 137.7 241.804024 
L 137.7 241.804024 
L 137.7 241.804024 
z
" style="fill:#3274a1;stroke:#3f3f3f;stroke-linejoin:miter;stroke-width:0.75;"/>
   </g>
   <g id="patch_4">
    <path clip-path="url(#p6af56a303e)" d="M 137.7 241.804024 
L 137.7 241.804024 
L 137.7 241.804024 
L 137.7 241.804024 
z
" style="fill:#e1812c;stroke:#3f3f3f;stroke-linejoin:miter;stroke-width:0.75;"/>
   </g>
   <g id="matplotlib.axis_1">
    <g id="xtick_1">
     <g id="line2d_1">
      <defs>
       <path d="M 0 0 
L 0 3.5 
" id="m9f194e8251" style="stroke:#000000;stroke-width:0.8;"/>
      </defs>
      <g>
       <use style="stroke:#000000;stroke-width:0.8;" x="137.7" xlink:href="#m9f194e8251" y="252"/>
      </g>
     </g>
     <g id="text_1">
      <!-- Z_2_zero -->
      <g transform="translate(115.390625 266.421875)scale(0.1 -0.1)">
       <defs>
        <path d="M 5.609375 72.90625 
L 62.890625 72.90625 
L 62.890625 65.375 
L 16.796875 8.296875 
L 64.015625 8.296875 
L 64.015625 0 
L 4.5 0 
L 4.5 7.515625 
L 50.59375 64.59375 
L 5.609375 64.59375 
z
" id="DejaVuSans-90"/>
        <path d="M 50.984375 -16.609375 
L 50.984375 -23.578125 
L -0.984375 -23.578125 
L -0.984375 -16.609375 
z
" id="DejaVuSans-95"/>
        <path d="M 19.1875 8.296875 
L 53.609375 8.296875 
L 53.609375 0 
L 7.328125 0 
L 7.328125 8.296875 
Q 12.9375 14.109375 22.625 23.890625 
Q 32.328125 33.6875 34.8125 36.53125 
Q 39.546875 41.84375 41.421875 45.53125 
Q 43.3125 49.21875 43.3125 52.78125 
Q 43.3125 58.59375 39.234375 62.25 
Q 35.15625 65.921875 28.609375 65.921875 
Q 23.96875 65.921875 18.8125 64.3125 
Q 13.671875 62.703125 7.8125 59.421875 
L 7.8125 69.390625 
Q 13.765625 71.78125 18.9375 73 
Q 24.125 74.21875 28.421875 74.21875 
Q 39.75 74.21875 46.484375 68.546875 
Q 53.21875 62.890625 53.21875 53.421875 
Q 53.21875 48.921875 51.53125 44.890625 
Q 49.859375 40.875 45.40625 35.40625 
Q 44.1875 33.984375 37.640625 27.21875 
Q 31.109375 20.453125 19.1875 8.296875 
z
" id="DejaVuSans-50"/>
        <path d="M 5.515625 54.6875 
L 48.1875 54.6875 
L 48.1875 46.484375 
L 14.40625 7.171875 
L 48.1875 7.171875 
L 48.1875 0 
L 4.296875 0 
L 4.296875 8.203125 
L 38.09375 47.515625 
L 5.515625 47.515625 
z
" id="DejaVuSans-122"/>
        <path d="M 56.203125 29.59375 
L 56.203125 25.203125 
L 14.890625 25.203125 
Q 15.484375 15.921875 20.484375 11.0625 
Q 25.484375 6.203125 34.421875 6.203125 
Q 39.59375 6.203125 44.453125 7.46875 
Q 49.3125 8.734375 54.109375 11.28125 
L 54.109375 2.78125 
Q 49.265625 0.734375 44.1875 -0.34375 
Q 39.109375 -1.421875 33.890625 -1.421875 
Q 20.796875 -1.421875 13.15625 6.1875 
Q 5.515625 13.8125 5.515625 26.8125 
Q 5.515625 40.234375 12.765625 48.109375 
Q 20.015625 56 32.328125 56 
Q 43.359375 56 49.78125 48.890625 
Q 56.203125 41.796875 56.203125 29.59375 
z
M 47.21875 32.234375 
Q 47.125 39.59375 43.09375 43.984375 
Q 39.0625 48.390625 32.421875 48.390625 
Q 24.90625 48.390625 20.390625 44.140625 
Q 15.875 39.890625 15.1875 32.171875 
z
" id="DejaVuSans-101"/>
        <path d="M 41.109375 46.296875 
Q 39.59375 47.171875 37.8125 47.578125 
Q 36.03125 48 33.890625 48 
Q 26.265625 48 22.1875 43.046875 
Q 18.109375 38.09375 18.109375 28.8125 
L 18.109375 0 
L 9.078125 0 
L 9.078125 54.6875 
L 18.109375 54.6875 
L 18.109375 46.1875 
Q 20.953125 51.171875 25.484375 53.578125 
Q 30.03125 56 36.53125 56 
Q 37.453125 56 38.578125 55.875 
Q 39.703125 55.765625 41.0625 55.515625 
z
" id="DejaVuSans-114"/>
        <path d="M 30.609375 48.390625 
Q 23.390625 48.390625 19.1875 42.75 
Q 14.984375 37.109375 14.984375 27.296875 
Q 14.984375 17.484375 19.15625 11.84375 
Q 23.34375 6.203125 30.609375 6.203125 
Q 37.796875 6.203125 41.984375 11.859375 
Q 46.1875 17.53125 46.1875 27.296875 
Q 46.1875 37.015625 41.984375 42.703125 
Q 37.796875 48.390625 30.609375 48.390625 
z
M 30.609375 56 
Q 42.328125 56 49.015625 48.375 
Q 55.71875 40.765625 55.71875 27.296875 
Q 55.71875 13.875 49.015625 6.21875 
Q 42.328125 -1.421875 30.609375 -1.421875 
Q 18.84375 -1.421875 12.171875 6.21875 
Q 5.515625 13.875 5.515625 27.296875 
Q 5.515625 40.765625 12.171875 48.375 
Q 18.84375 56 30.609375 56 
z
" id="DejaVuSans-111"/>
       </defs>
       <use xlink:href="#DejaVuSans-90"/>
       <use x="68.505859" xlink:href="#DejaVuSans-95"/>
       <use x="118.505859" xlink:href="#DejaVuSans-50"/>
       <use x="182.128906" xlink:href="#DejaVuSans-95"/>
       <use x="232.128906" xlink:href="#DejaVuSans-122"/>
       <use x="284.619141" xlink:href="#DejaVuSans-101"/>
       <use x="346.142578" xlink:href="#DejaVuSans-114"/>
       <use x="385.005859" xlink:href="#DejaVuSans-111"/>
      </g>
     </g>
    </g>
    <g id="xtick_2">
     <g id="line2d_2">
      <g>
       <use style="stroke:#000000;stroke-width:0.8;" x="305.1" xlink:href="#m9f194e8251" y="252"/>
      </g>
     </g>
     <g id="text_2">
      <!-- Z_3_zero -->
      <g transform="translate(282.790625 266.421875)scale(0.1 -0.1)">
       <defs>
        <path d="M 40.578125 39.3125 
Q 47.65625 37.796875 51.625 33 
Q 55.609375 28.21875 55.609375 21.1875 
Q 55.609375 10.40625 48.1875 4.484375 
Q 40.765625 -1.421875 27.09375 -1.421875 
Q 22.515625 -1.421875 17.65625 -0.515625 
Q 12.796875 0.390625 7.625 2.203125 
L 7.625 11.71875 
Q 11.71875 9.328125 16.59375 8.109375 
Q 21.484375 6.890625 26.8125 6.890625 
Q 36.078125 6.890625 40.9375 10.546875 
Q 45.796875 14.203125 45.796875 21.1875 
Q 45.796875 27.640625 41.28125 31.265625 
Q 36.765625 34.90625 28.71875 34.90625 
L 20.21875 34.90625 
L 20.21875 43.015625 
L 29.109375 43.015625 
Q 36.375 43.015625 40.234375 45.921875 
Q 44.09375 48.828125 44.09375 54.296875 
Q 44.09375 59.90625 40.109375 62.90625 
Q 36.140625 65.921875 28.71875 65.921875 
Q 24.65625 65.921875 20.015625 65.03125 
Q 15.375 64.15625 9.8125 62.3125 
L 9.8125 71.09375 
Q 15.4375 72.65625 20.34375 73.4375 
Q 25.25 74.21875 29.59375 74.21875 
Q 40.828125 74.21875 47.359375 69.109375 
Q 53.90625 64.015625 53.90625 55.328125 
Q 53.90625 49.265625 50.4375 45.09375 
Q 46.96875 40.921875 40.578125 39.3125 
z
" id="DejaVuSans-51"/>
       </defs>
       <use xlink:href="#DejaVuSans-90"/>
       <use x="68.505859" xlink:href="#DejaVuSans-95"/>
       <use x="118.505859" xlink:href="#DejaVuSans-51"/>
       <use x="182.128906" xlink:href="#DejaVuSans-95"/>
       <use x="232.128906" xlink:href="#DejaVuSans-122"/>
       <use x="284.619141" xlink:href="#DejaVuSans-101"/>
       <use x="346.142578" xlink:href="#DejaVuSans-114"/>
       <use x="385.005859" xlink:href="#DejaVuSans-111"/>
      </g>
     </g>
    </g>
    <g id="text_3">
     <!-- set -->
     <g transform="translate(213.758594 280.378125)scale(0.1 -0.1)">
      <defs>
       <path d="M 44.28125 53.078125 
L 44.28125 44.578125 
Q 40.484375 46.53125 36.375 47.5 
Q 32.28125 48.484375 27.875 48.484375 
Q 21.1875 48.484375 17.84375 46.4375 
Q 14.5 44.390625 14.5 40.28125 
Q 14.5 37.15625 16.890625 35.375 
Q 19.28125 33.59375 26.515625 31.984375 
L 29.59375 31.296875 
Q 39.15625 29.25 43.1875 25.515625 
Q 47.21875 21.78125 47.21875 15.09375 
Q 47.21875 7.46875 41.1875 3.015625 
Q 35.15625 -1.421875 24.609375 -1.421875 
Q 20.21875 -1.421875 15.453125 -0.5625 
Q 10.6875 0.296875 5.421875 2 
L 5.421875 11.28125 
Q 10.40625 8.6875 15.234375 7.390625 
Q 20.0625 6.109375 24.8125 6.109375 
Q 31.15625 6.109375 34.5625 8.28125 
Q 37.984375 10.453125 37.984375 14.40625 
Q 37.984375 18.0625 35.515625 20.015625 
Q 33.0625 21.96875 24.703125 23.78125 
L 21.578125 24.515625 
Q 13.234375 26.265625 9.515625 29.90625 
Q 5.8125 33.546875 5.8125 39.890625 
Q 5.8125 47.609375 11.28125 51.796875 
Q 16.75 56 26.8125 56 
Q 31.78125 56 36.171875 55.265625 
Q 40.578125 54.546875 44.28125 53.078125 
z
" id="DejaVuSans-115"/>
       <path d="M 18.3125 70.21875 
L 18.3125 54.6875 
L 36.8125 54.6875 
L 36.8125 47.703125 
L 18.3125 47.703125 
L 18.3125 18.015625 
Q 18.3125 11.328125 20.140625 9.421875 
Q 21.96875 7.515625 27.59375 7.515625 
L 36.8125 7.515625 
L 36.8125 0 
L 27.59375 0 
Q 17.1875 0 13.234375 3.875 
Q 9.28125 7.765625 9.28125 18.015625 
L 9.28125 47.703125 
L 2.6875 47.703125 
L 2.6875 54.6875 
L 9.28125 54.6875 
L 9.28125 70.21875 
z
" id="DejaVuSans-116"/>
      </defs>
      <use xlink:href="#DejaVuSans-115"/>
      <use x="52.099609" xlink:href="#DejaVuSans-101"/>
      <use x="113.623047" xlink:href="#DejaVuSans-116"/>
     </g>
    </g>
   </g>
   <g id="matplotlib.axis_2">
    <g id="ytick_1">
     <g id="line2d_3">
      <defs>
       <path d="M 0 0 
L -3.5 0 
" id="m9ec8ac57db" style="stroke:#000000;stroke-width:0.8;"/>
      </defs>
      <g>
       <use style="stroke:#000000;stroke-width:0.8;" x="54" xlink:href="#m9ec8ac57db" y="241.804024"/>
      </g>
     </g>
     <g id="text_4">
      <!-- 0 -->
      <g transform="translate(40.6375 245.603243)scale(0.1 -0.1)">
       <defs>
        <path d="M 31.78125 66.40625 
Q 24.171875 66.40625 20.328125 58.90625 
Q 16.5 51.421875 16.5 36.375 
Q 16.5 21.390625 20.328125 13.890625 
Q 24.171875 6.390625 31.78125 6.390625 
Q 39.453125 6.390625 43.28125 13.890625 
Q 47.125 21.390625 47.125 36.375 
Q 47.125 51.421875 43.28125 58.90625 
Q 39.453125 66.40625 31.78125 66.40625 
z
M 31.78125 74.21875 
Q 44.046875 74.21875 50.515625 64.515625 
Q 56.984375 54.828125 56.984375 36.375 
Q 56.984375 17.96875 50.515625 8.265625 
Q 44.046875 -1.421875 31.78125 -1.421875 
Q 19.53125 -1.421875 13.0625 8.265625 
Q 6.59375 17.96875 6.59375 36.375 
Q 6.59375 54.828125 13.0625 64.515625 
Q 19.53125 74.21875 31.78125 74.21875 
z
" id="DejaVuSans-48"/>
       </defs>
       <use xlink:href="#DejaVuSans-48"/>
      </g>
     </g>
    </g>
    <g id="ytick_2">
     <g id="line2d_4">
      <g>
       <use style="stroke:#000000;stroke-width:0.8;" x="54" xlink:href="#m9ec8ac57db" y="199.096508"/>
      </g>
     </g>
     <g id="text_5">
      <!-- 5 -->
      <g transform="translate(40.6375 202.895727)scale(0.1 -0.1)">
       <defs>
        <path d="M 10.796875 72.90625 
L 49.515625 72.90625 
L 49.515625 64.59375 
L 19.828125 64.59375 
L 19.828125 46.734375 
Q 21.96875 47.46875 24.109375 47.828125 
Q 26.265625 48.1875 28.421875 48.1875 
Q 40.625 48.1875 47.75 41.5 
Q 54.890625 34.8125 54.890625 23.390625 
Q 54.890625 11.625 47.5625 5.09375 
Q 40.234375 -1.421875 26.90625 -1.421875 
Q 22.3125 -1.421875 17.546875 -0.640625 
Q 12.796875 0.140625 7.71875 1.703125 
L 7.71875 11.625 
Q 12.109375 9.234375 16.796875 8.0625 
Q 21.484375 6.890625 26.703125 6.890625 
Q 35.15625 6.890625 40.078125 11.328125 
Q 45.015625 15.765625 45.015625 23.390625 
Q 45.015625 31 40.078125 35.4375 
Q 35.15625 39.890625 26.703125 39.890625 
Q 22.75 39.890625 18.8125 39.015625 
Q 14.890625 38.140625 10.796875 36.28125 
z
" id="DejaVuSans-53"/>
       </defs>
       <use xlink:href="#DejaVuSans-53"/>
      </g>
     </g>
    </g>
    <g id="ytick_3">
     <g id="line2d_5">
      <g>
       <use style="stroke:#000000;stroke-width:0.8;" x="54" xlink:href="#m9ec8ac57db" y="156.388992"/>
      </g>
     </g>
     <g id="text_6">
      <!-- 10 -->
      <g transform="translate(34.275 160.188211)scale(0.1 -0.1)">
       <defs>
        <path d="M 12.40625 8.296875 
L 28.515625 8.296875 
L 28.515625 63.921875 
L 10.984375 60.40625 
L 10.984375 69.390625 
L 28.421875 72.90625 
L 38.28125 72.90625 
L 38.28125 8.296875 
L 54.390625 8.296875 
L 54.390625 0 
L 12.40625 0 
z
" id="DejaVuSans-49"/>
       </defs>
       <use xlink:href="#DejaVuSans-49"/>
       <use x="63.623047" xlink:href="#DejaVuSans-48"/>
      </g>
     </g>
    </g>
    <g id="ytick_4">
     <g id="line2d_6">
      <g>
       <use style="stroke:#000000;stroke-width:0.8;" x="54" xlink:href="#m9ec8ac57db" y="113.681476"/>
      </g>
     </g>
     <g id="text_7">
      <!-- 15 -->
      <g transform="translate(34.275 117.480695)scale(0.1 -0.1)">
       <use xlink:href="#DejaVuSans-49"/>
       <use x="63.623047" xlink:href="#DejaVuSans-53"/>
      </g>
     </g>
    </g>
    <g id="ytick_5">
     <g id="line2d_7">
      <g>
       <use style="stroke:#000000;stroke-width:0.8;" x="54" xlink:href="#m9ec8ac57db" y="70.97396"/>
      </g>
     </g>
     <g id="text_8">
      <!-- 20 -->
      <g transform="translate(34.275 74.773179)scale(0.1 -0.1)">
       <use xlink:href="#DejaVuSans-50"/>
       <use x="63.623047" xlink:href="#DejaVuSans-48"/>
      </g>
     </g>
    </g>
    <g id="text_9">
     <!-- value -->
     <g transform="translate(28.195312 156.937813)rotate(-90)scale(0.1 -0.1)">
      <defs>
       <path d="M 2.984375 54.6875 
L 12.5 54.6875 
L 29.59375 8.796875 
L 46.6875 54.6875 
L 56.203125 54.6875 
L 35.6875 0 
L 23.484375 0 
z
" id="DejaVuSans-118"/>
       <path d="M 34.28125 27.484375 
Q 23.390625 27.484375 19.1875 25 
Q 14.984375 22.515625 14.984375 16.5 
Q 14.984375 11.71875 18.140625 8.90625 
Q 21.296875 6.109375 26.703125 6.109375 
Q 34.1875 6.109375 38.703125 11.40625 
Q 43.21875 16.703125 43.21875 25.484375 
L 43.21875 27.484375 
z
M 52.203125 31.203125 
L 52.203125 0 
L 43.21875 0 
L 43.21875 8.296875 
Q 40.140625 3.328125 35.546875 0.953125 
Q 30.953125 -1.421875 24.3125 -1.421875 
Q 15.921875 -1.421875 10.953125 3.296875 
Q 6 8.015625 6 15.921875 
Q 6 25.140625 12.171875 29.828125 
Q 18.359375 34.515625 30.609375 34.515625 
L 43.21875 34.515625 
L 43.21875 35.40625 
Q 43.21875 41.609375 39.140625 45 
Q 35.0625 48.390625 27.6875 48.390625 
Q 23 48.390625 18.546875 47.265625 
Q 14.109375 46.140625 10.015625 43.890625 
L 10.015625 52.203125 
Q 14.9375 54.109375 19.578125 55.046875 
Q 24.21875 56 28.609375 56 
Q 40.484375 56 46.34375 49.84375 
Q 52.203125 43.703125 52.203125 31.203125 
z
" id="DejaVuSans-97"/>
       <path d="M 9.421875 75.984375 
L 18.40625 75.984375 
L 18.40625 0 
L 9.421875 0 
z
" id="DejaVuSans-108"/>
       <path d="M 8.5 21.578125 
L 8.5 54.6875 
L 17.484375 54.6875 
L 17.484375 21.921875 
Q 17.484375 14.15625 20.5 10.265625 
Q 23.53125 6.390625 29.59375 6.390625 
Q 36.859375 6.390625 41.078125 11.03125 
Q 45.3125 15.671875 45.3125 23.6875 
L 45.3125 54.6875 
L 54.296875 54.6875 
L 54.296875 0 
L 45.3125 0 
L 45.3125 8.40625 
Q 42.046875 3.421875 37.71875 1 
Q 33.40625 -1.421875 27.6875 -1.421875 
Q 18.265625 -1.421875 13.375 4.4375 
Q 8.5 10.296875 8.5 21.578125 
z
M 31.109375 56 
z
" id="DejaVuSans-117"/>
      </defs>
      <use xlink:href="#DejaVuSans-118"/>
      <use x="59.179688" xlink:href="#DejaVuSans-97"/>
      <use x="120.458984" xlink:href="#DejaVuSans-108"/>
      <use x="148.242188" xlink:href="#DejaVuSans-117"/>
      <use x="211.621094" xlink:href="#DejaVuSans-101"/>
     </g>
    </g>
   </g>
   <g id="line2d_8">
    <path clip-path="url(#p6af56a303e)" d="M 104.22 241.160092 
L 104.22 71.384542 
" style="fill:none;stroke:#3f3f3f;stroke-linecap:square;stroke-width:1.5;"/>
   </g>
   <g id="line2d_9">
    <path clip-path="url(#p6af56a303e)" d="M 104.22 209.25232 
L 104.22 153.518754 
" style="fill:none;stroke:#3f3f3f;stroke-linecap:square;stroke-width:4.5;"/>
   </g>
   <g id="line2d_10">
    <path clip-path="url(#p6af56a303e)" d="M 338.58 242.116364 
L 338.58 73.301822 
" style="fill:none;stroke:#3f3f3f;stroke-linecap:square;stroke-width:1.5;"/>
   </g>
   <g id="line2d_11">
    <path clip-path="url(#p6af56a303e)" d="M 338.58 200.786473 
L 338.58 149.730434 
" style="fill:none;stroke:#3f3f3f;stroke-linecap:square;stroke-width:4.5;"/>
   </g>
   <g id="patch_5">
    <path d="M 54 252 
L 54 34.56 
" style="fill:none;stroke:#000000;stroke-linecap:square;stroke-linejoin:miter;stroke-width:0.8;"/>
   </g>
   <g id="patch_6">
    <path d="M 388.8 252 
L 388.8 34.56 
" style="fill:none;stroke:#000000;stroke-linecap:square;stroke-linejoin:miter;stroke-width:0.8;"/>
   </g>
   <g id="patch_7">
    <path d="M 54 252 
L 388.8 252 
" style="fill:none;stroke:#000000;stroke-linecap:square;stroke-linejoin:miter;stroke-width:0.8;"/>
   </g>
   <g id="patch_8">
    <path d="M 54 34.56 
L 388.8 34.56 
" style="fill:none;stroke:#000000;stroke-linecap:square;stroke-linejoin:miter;stroke-width:0.8;"/>
   </g>
   <g id="PathCollection_1">
    <defs>
     <path d="M 0 1.5 
C 0.397805 1.5 0.77937 1.341951 1.06066 1.06066 
C 1.341951 0.77937 1.5 0.397805 1.5 0 
C 1.5 -0.397805 1.341951 -0.77937 1.06066 -1.06066 
C 0.77937 -1.341951 0.397805 -1.5 0 -1.5 
C -0.397805 -1.5 -0.77937 -1.341951 -1.06066 -1.06066 
C -1.341951 -0.77937 -1.5 -0.397805 -1.5 0 
C -1.5 0.397805 -1.341951 0.77937 -1.06066 1.06066 
C -0.77937 1.341951 -0.397805 1.5 0 1.5 
z
" id="mbda6bba9e1" style="stroke:#3f3f3f;"/>
    </defs>
    <g clip-path="url(#p6af56a303e)">
     <use style="fill:#ffffff;stroke:#3f3f3f;" x="104.22" xlink:href="#mbda6bba9e1" y="180.738328"/>
    </g>
   </g>
   <g id="PathCollection_2">
    <g clip-path="url(#p6af56a303e)">
     <use style="fill:#ffffff;stroke:#3f3f3f;" x="338.58" xlink:href="#mbda6bba9e1" y="173.863804"/>
    </g>
   </g>
   <g id="legend_1">
    <g id="patch_9">
     <path d="M 183.090625 247 
L 259.709375 247 
Q 261.709375 247 261.709375 245 
L 261.709375 201.409375 
Q 261.709375 199.409375 259.709375 199.409375 
L 183.090625 199.409375 
Q 181.090625 199.409375 181.090625 201.409375 
L 181.090625 245 
Q 181.090625 247 183.090625 247 
z
" style="fill:#ffffff;opacity:0.8;stroke:#cccccc;stroke-linejoin:miter;"/>
    </g>
    <g id="text_10">
     <!-- set -->
     <g transform="translate(213.758594 211.007812)scale(0.1 -0.1)">
      <use xlink:href="#DejaVuSans-115"/>
      <use x="52.099609" xlink:href="#DejaVuSans-101"/>
      <use x="113.623047" xlink:href="#DejaVuSans-116"/>
     </g>
    </g>
    <g id="patch_10">
     <path d="M 185.090625 225.685937 
L 205.090625 225.685937 
L 205.090625 218.685937 
L 185.090625 218.685937 
z
" style="fill:#3274a1;stroke:#3f3f3f;stroke-linejoin:miter;stroke-width:0.75;"/>
    </g>
    <g id="text_11">
     <!-- Z_2_zero -->
     <g transform="translate(213.090625 225.685937)scale(0.1 -0.1)">
      <use xlink:href="#DejaVuSans-90"/>
      <use x="68.505859" xlink:href="#DejaVuSans-95"/>
      <use x="118.505859" xlink:href="#DejaVuSans-50"/>
      <use x="182.128906" xlink:href="#DejaVuSans-95"/>
      <use x="232.128906" xlink:href="#DejaVuSans-122"/>
      <use x="284.619141" xlink:href="#DejaVuSans-101"/>
      <use x="346.142578" xlink:href="#DejaVuSans-114"/>
      <use x="385.005859" xlink:href="#DejaVuSans-111"/>
     </g>
    </g>
    <g id="patch_11">
     <path d="M 185.090625 240.642188 
L 205.090625 240.642188 
L 205.090625 233.642188 
L 185.090625 233.642188 
z
" style="fill:#e1812c;stroke:#3f3f3f;stroke-linejoin:miter;stroke-width:0.75;"/>
    </g>
    <g id="text_12">
     <!-- Z_3_zero -->
     <g transform="translate(213.090625 240.642188)scale(0.1 -0.1)">
      <use xlink:href="#DejaVuSans-90"/>
      <use x="68.505859" xlink:href="#DejaVuSans-95"/>
      <use x="118.505859" xlink:href="#DejaVuSans-51"/>
      <use x="182.128906" xlink:href="#DejaVuSans-95"/>
      <use x="232.128906" xlink:href="#DejaVuSans-122"/>
      <use x="284.619141" xlink:href="#DejaVuSans-101"/>
      <use x="346.142578" xlink:href="#DejaVuSans-114"/>
      <use x="385.005859" xlink:href="#DejaVuSans-111"/>
     </g>
    </g>
   </g>
  </g>
 </g>
 <defs>
  <clipPath id="p6af56a303e">
   <rect height="217.44" width="334.8" x="54" y="34.56"/>
  </clipPath>
 </defs>
</svg>
