<?xml version="1.0" encoding="utf-8" standalone="no"?>
<!DOCTYPE svg PUBLIC "-//W3C//DTD SVG 1.1//EN"
  "http://www.w3.org/Graphics/SVG/1.1/DTD/svg11.dtd">
<!-- Created with matplotlib (https://matplotlib.org/) -->
<svg height="288pt" version="1.1" viewBox="0 0 432 288" width="432pt" xmlns="http://www.w3.org/2000/svg" xmlns:xlink="http://www.w3.org/1999/xlink">
 <metadata>
  <rdf:RDF xmlns:cc="http://creativecommons.org/ns#" xmlns:dc="http://purl.org/dc/elements/1.1/" xmlns:rdf="http://www.w3.org/1999/02/22-rdf-syntax-ns#">
   <cc:Work>
    <dc:type rdf:resource="http://purl.org/dc/dcmitype/StillImage"/>
    <dc:date>2022-07-16T12:03:22.337757</dc:date>
    <dc:format>image/svg+xml</dc:format>
    <dc:creator>
     <cc:Agent>
      <dc:title>Matplotlib v3.3.4, https://matplotlib.org/</dc:title>
     </cc:Agent>
    </dc:creator>
   </cc:Work>
  </rdf:RDF>
 </metadata>
 <defs>
  <style type="text/css">*{stroke-linecap:butt;stroke-linejoin:round;}</style>
 </defs>
 <g id="figure_1">
  <g id="patch_1">
   <path d="M 0 288 
L 432 288 
L 432 0 
L 0 0 
z
" style="fill:#ffffff;"/>
  </g>
  <g id="axes_1">
   <g id="patch_2">
    <path d="M 54 252 
L 388.8 252 
L 388.8 34.56 
L 54 34.56 
z
" style="fill:#ffffff;"/>
   </g>
   <g id="PolyCollection_1">
    <defs>
     <path d="M 104.416872 -57.475996 
L 104.023128 -57.475996 
L 103.954381 -59.265887 
L 103.871649 -61.055778 
L 103.775399 -62.845669 
L 103.667865 -64.63556 
L 103.552743 -66.425451 
L 103.433973 -68.215342 
L 103.314283 -70.005233 
L 103.194515 -71.795124 
L 103.074285 -73.585015 
L 102.953485 -75.374906 
L 102.833418 -77.164797 
L 102.71664 -78.954688 
L 102.605714 -80.744579 
L 102.502015 -82.53447 
L 102.405612 -84.324361 
L 102.316153 -86.114252 
L 102.233672 -87.904143 
L 102.158254 -89.694034 
L 102.08865 -91.483925 
L 102.021072 -93.273816 
L 101.949351 -95.063707 
L 101.866577 -96.853598 
L 101.767138 -98.643489 
L 101.647904 -100.43338 
L 101.50807 -102.223271 
L 101.348193 -104.013162 
L 101.169426 -105.803053 
L 100.973558 -107.592944 
L 100.763683 -109.382835 
L 100.54467 -111.172726 
L 100.322689 -112.962617 
L 100.103926 -114.752508 
L 99.893468 -116.542399 
L 99.69538 -118.33229 
L 99.513744 -120.122181 
L 99.352971 -121.912072 
L 99.215448 -123.701963 
L 99.096459 -125.491854 
L 98.979059 -127.281745 
L 98.832979 -129.071636 
L 98.619893 -130.861527 
L 98.303561 -132.651418 
L 97.860219 -134.441309 
L 97.284617 -136.2312 
L 96.589948 -138.02109 
L 95.802972 -139.810981 
L 94.956736 -141.600872 
L 94.082482 -143.390763 
L 93.201502 -145.180654 
L 92.318197 -146.970545 
L 91.416937 -148.760436 
L 90.465613 -150.550327 
L 89.426853 -152.340218 
L 88.274154 -154.130109 
L 87.006511 -155.92 
L 85.653824 -157.709891 
L 84.268119 -159.499782 
L 82.902517 -161.289673 
L 81.587711 -163.079564 
L 80.319418 -164.869455 
L 79.065591 -166.659346 
L 77.790815 -168.449237 
L 76.484277 -170.239128 
L 75.175209 -172.029019 
L 73.927747 -173.81891 
L 72.819884 -175.608801 
L 71.919339 -177.398692 
L 71.26792 -179.188583 
L 70.87829 -180.978474 
L 70.74 -182.768365 
L 70.829792 -184.558256 
L 71.122938 -186.348147 
L 71.603669 -188.138038 
L 72.271804 -189.927929 
L 73.141985 -191.71782 
L 74.234376 -193.507711 
L 75.560752 -195.297602 
L 77.113378 -197.087493 
L 78.862558 -198.877384 
L 80.763117 -200.667275 
L 82.764588 -202.457166 
L 84.818444 -204.247057 
L 86.878961 -206.036948 
L 88.899673 -207.826839 
L 90.83104 -209.61673 
L 92.624198 -211.406621 
L 94.2409 -213.196512 
L 95.664387 -214.986403 
L 96.904052 -216.776294 
L 97.99002 -218.566185 
L 98.959746 -220.356076 
L 99.843299 -222.145967 
L 100.654319 -223.935858 
L 101.389877 -225.725749 
L 102.037654 -227.51564 
L 102.585605 -229.305531 
L 103.029251 -231.095422 
L 103.374008 -232.885313 
L 103.632994 -234.675204 
L 104.807006 -234.675204 
L 104.807006 -234.675204 
L 105.065992 -232.885313 
L 105.410749 -231.095422 
L 105.854395 -229.305531 
L 106.402346 -227.51564 
L 107.050123 -225.725749 
L 107.785681 -223.935858 
L 108.596701 -222.145967 
L 109.480254 -220.356076 
L 110.44998 -218.566185 
L 111.535948 -216.776294 
L 112.775613 -214.986403 
L 114.1991 -213.196512 
L 115.815802 -211.406621 
L 117.60896 -209.61673 
L 119.540327 -207.826839 
L 121.561039 -206.036948 
L 123.621556 -204.247057 
L 125.675412 -202.457166 
L 127.676883 -200.667275 
L 129.577442 -198.877384 
L 131.326622 -197.087493 
L 132.879248 -195.297602 
L 134.205624 -193.507711 
L 135.298015 -191.71782 
L 136.168196 -189.927929 
L 136.836331 -188.138038 
L 137.317062 -186.348147 
L 137.610208 -184.558256 
L 137.7 -182.768365 
L 137.56171 -180.978474 
L 137.17208 -179.188583 
L 136.520661 -177.398692 
L 135.620116 -175.608801 
L 134.512253 -173.81891 
L 133.264791 -172.029019 
L 131.955723 -170.239128 
L 130.649185 -168.449237 
L 129.374409 -166.659346 
L 128.120582 -164.869455 
L 126.852289 -163.079564 
L 125.537483 -161.289673 
L 124.171881 -159.499782 
L 122.786176 -157.709891 
L 121.433489 -155.92 
L 120.165846 -154.130109 
L 119.013147 -152.340218 
L 117.974387 -150.550327 
L 117.023063 -148.760436 
L 116.121803 -146.970545 
L 115.238498 -145.180654 
L 114.357518 -143.390763 
L 113.483264 -141.600872 
L 112.637028 -139.810981 
L 111.850052 -138.02109 
L 111.155383 -136.2312 
L 110.579781 -134.441309 
L 110.136439 -132.651418 
L 109.820107 -130.861527 
L 109.607021 -129.071636 
L 109.460941 -127.281745 
L 109.343541 -125.491854 
L 109.224552 -123.701963 
L 109.087029 -121.912072 
L 108.926256 -120.122181 
L 108.74462 -118.33229 
L 108.546532 -116.542399 
L 108.336074 -114.752508 
L 108.117311 -112.962617 
L 107.89533 -111.172726 
L 107.676317 -109.382835 
L 107.466442 -107.592944 
L 107.270574 -105.803053 
L 107.091807 -104.013162 
L 106.93193 -102.223271 
L 106.792096 -100.43338 
L 106.672862 -98.643489 
L 106.573423 -96.853598 
L 106.490649 -95.063707 
L 106.418928 -93.273816 
L 106.35135 -91.483925 
L 106.281746 -89.694034 
L 106.206328 -87.904143 
L 106.123847 -86.114252 
L 106.034388 -84.324361 
L 105.937985 -82.53447 
L 105.834286 -80.744579 
L 105.72336 -78.954688 
L 105.606582 -77.164797 
L 105.486515 -75.374906 
L 105.365715 -73.585015 
L 105.245485 -71.795124 
L 105.125717 -70.005233 
L 105.006027 -68.215342 
L 104.887257 -66.425451 
L 104.772135 -64.63556 
L 104.664601 -62.845669 
L 104.568351 -61.055778 
L 104.485619 -59.265887 
L 104.416872 -57.475996 
z
" id="m88d238cad8" style="stroke:#3f3f3f;stroke-width:1.5;"/>
    </defs>
    <g clip-path="url(#pf62011fb16)">
     <use style="fill:#3274a1;stroke:#3f3f3f;stroke-width:1.5;" x="0" xlink:href="#m88d238cad8" y="288"/>
    </g>
   </g>
   <g id="PolyCollection_2">
    <defs>
     <path d="M 338.642993 -45.883636 
L 338.517007 -45.883636 
L 338.508756 -47.880331 
L 338.502717 -49.877025 
L 338.496815 -51.873719 
L 338.487662 -53.870413 
L 338.47087 -55.867107 
L 338.441814 -57.863802 
L 338.397088 -59.860496 
L 338.336339 -61.85719 
L 338.263781 -63.853884 
L 338.188552 -65.850579 
L 338.122791 -67.847273 
L 338.076875 -69.843967 
L 338.053512 -71.840661 
L 338.044716 -73.837355 
L 338.034864 -75.83405 
L 338.008771 -77.830744 
L 337.959688 -79.827438 
L 337.892011 -81.824132 
L 337.816907 -83.820826 
L 337.743223 -85.817521 
L 337.66915 -87.814215 
L 337.580715 -89.810909 
L 337.459956 -91.807603 
L 337.298859 -93.804298 
L 337.109588 -95.800992 
L 336.92277 -97.797686 
L 336.773644 -99.79438 
L 336.684413 -101.791074 
L 336.653544 -103.787769 
L 336.657702 -105.784463 
L 336.663647 -107.781157 
L 336.642066 -109.777851 
L 336.576383 -111.774545 
L 336.464722 -113.77124 
L 336.316969 -115.767934 
L 336.148977 -117.764628 
L 335.97522 -119.761322 
L 335.801876 -121.758017 
L 335.622485 -123.754711 
L 335.416831 -125.751405 
L 335.153025 -127.748099 
L 334.794876 -129.744793 
L 334.316162 -131.741488 
L 333.71588 -133.738182 
L 333.021087 -135.734876 
L 332.269871 -137.73157 
L 331.485454 -139.728264 
L 330.663584 -141.724959 
L 329.784016 -143.721653 
L 328.833736 -145.718347 
L 327.819674 -147.715041 
L 326.761006 -149.711736 
L 325.670817 -151.70843 
L 324.54463 -153.705124 
L 323.364775 -155.701818 
L 322.114841 -157.698512 
L 320.790464 -159.695207 
L 319.396568 -161.691901 
L 317.932425 -163.688595 
L 316.376953 -165.685289 
L 314.692018 -167.681983 
L 312.854612 -169.678678 
L 310.906193 -171.675372 
L 308.982683 -173.672066 
L 307.289847 -175.66876 
L 306.026379 -177.665455 
L 305.301229 -179.662149 
L 305.1 -181.658843 
L 305.319517 -183.655537 
L 305.842266 -185.652231 
L 306.59972 -187.648926 
L 307.586496 -189.64562 
L 308.823211 -191.642314 
L 310.30136 -193.639008 
L 311.954915 -195.635702 
L 313.680502 -197.632397 
L 315.387695 -199.629091 
L 317.037731 -201.625785 
L 318.643244 -203.622479 
L 320.236938 -205.619174 
L 321.838597 -207.615868 
L 323.442008 -209.612562 
L 325.022153 -211.609256 
L 326.550814 -213.60595 
L 328.00984 -215.602645 
L 329.395977 -217.599339 
L 330.714775 -219.596033 
L 331.966686 -221.592727 
L 333.135515 -223.589421 
L 334.190045 -225.586116 
L 335.099748 -227.58281 
L 335.852956 -229.579504 
L 336.463093 -231.576198 
L 336.958843 -233.572893 
L 337.367485 -235.569587 
L 337.70452 -237.566281 
L 337.9749 -239.562975 
L 338.180916 -241.559669 
L 338.328538 -243.556364 
L 338.831462 -243.556364 
L 338.831462 -243.556364 
L 338.979084 -241.559669 
L 339.1851 -239.562975 
L 339.45548 -237.566281 
L 339.792515 -235.569587 
L 340.201157 -233.572893 
L 340.696907 -231.576198 
L 341.307044 -229.579504 
L 342.060252 -227.58281 
L 342.969955 -225.586116 
L 344.024485 -223.589421 
L 345.193314 -221.592727 
L 346.445225 -219.596033 
L 347.764023 -217.599339 
L 349.15016 -215.602645 
L 350.609186 -213.60595 
L 352.137847 -211.609256 
L 353.717992 -209.612562 
L 355.321403 -207.615868 
L 356.923062 -205.619174 
L 358.516756 -203.622479 
L 360.122269 -201.625785 
L 361.772305 -199.629091 
L 363.479498 -197.632397 
L 365.205085 -195.635702 
L 366.85864 -193.639008 
L 368.336789 -191.642314 
L 369.573504 -189.64562 
L 370.56028 -187.648926 
L 371.317734 -185.652231 
L 371.840483 -183.655537 
L 372.06 -181.658843 
L 371.858771 -179.662149 
L 371.133621 -177.665455 
L 369.870153 -175.66876 
L 368.177317 -173.672066 
L 366.253807 -171.675372 
L 364.305388 -169.678678 
L 362.467982 -167.681983 
L 360.783047 -165.685289 
L 359.227575 -163.688595 
L 357.763432 -161.691901 
L 356.369536 -159.695207 
L 355.045159 -157.698512 
L 353.795225 -155.701818 
L 352.61537 -153.705124 
L 351.489183 -151.70843 
L 350.398994 -149.711736 
L 349.340326 -147.715041 
L 348.326264 -145.718347 
L 347.375984 -143.721653 
L 346.496416 -141.724959 
L 345.674546 -139.728264 
L 344.890129 -137.73157 
L 344.138913 -135.734876 
L 343.44412 -133.738182 
L 342.843838 -131.741488 
L 342.365124 -129.744793 
L 342.006975 -127.748099 
L 341.743169 -125.751405 
L 341.537515 -123.754711 
L 341.358124 -121.758017 
L 341.18478 -119.761322 
L 341.011023 -117.764628 
L 340.843031 -115.767934 
L 340.695278 -113.77124 
L 340.583617 -111.774545 
L 340.517934 -109.777851 
L 340.496353 -107.781157 
L 340.502298 -105.784463 
L 340.506456 -103.787769 
L 340.475587 -101.791074 
L 340.386356 -99.79438 
L 340.23723 -97.797686 
L 340.050412 -95.800992 
L 339.861141 -93.804298 
L 339.700044 -91.807603 
L 339.579285 -89.810909 
L 339.49085 -87.814215 
L 339.416777 -85.817521 
L 339.343093 -83.820826 
L 339.267989 -81.824132 
L 339.200312 -79.827438 
L 339.151229 -77.830744 
L 339.125136 -75.83405 
L 339.115284 -73.837355 
L 339.106488 -71.840661 
L 339.083125 -69.843967 
L 339.037209 -67.847273 
L 338.971448 -65.850579 
L 338.896219 -63.853884 
L 338.823661 -61.85719 
L 338.762912 -59.860496 
L 338.718186 -57.863802 
L 338.68913 -55.867107 
L 338.672338 -53.870413 
L 338.663185 -51.873719 
L 338.657283 -49.877025 
L 338.651244 -47.880331 
L 338.642993 -45.883636 
z
" id="m030209d7a4" style="stroke:#3f3f3f;stroke-width:1.5;"/>
    </defs>
    <g clip-path="url(#pf62011fb16)">
     <use style="fill:#e1812c;stroke:#3f3f3f;stroke-width:1.5;" x="0" xlink:href="#m030209d7a4" y="288"/>
    </g>
   </g>
   <g id="patch_3">
    <path clip-path="url(#pf62011fb16)" d="M 137.7 176.29586 
L 137.7 176.29586 
L 137.7 176.29586 
L 137.7 176.29586 
z
" style="fill:#3274a1;stroke:#3f3f3f;stroke-linejoin:miter;stroke-width:0.75;"/>
   </g>
   <g id="patch_4">
    <path clip-path="url(#pf62011fb16)" d="M 137.7 176.29586 
L 137.7 176.29586 
L 137.7 176.29586 
L 137.7 176.29586 
z
" style="fill:#e1812c;stroke:#3f3f3f;stroke-linejoin:miter;stroke-width:0.75;"/>
   </g>
   <g id="matplotlib.axis_1">
    <g id="xtick_1">
     <g id="line2d_1">
      <defs>
       <path d="M 0 0 
L 0 3.5 
" id="m7f10a81067" style="stroke:#000000;stroke-width:0.8;"/>
      </defs>
      <g>
       <use style="stroke:#000000;stroke-width:0.8;" x="137.7" xlink:href="#m7f10a81067" y="252"/>
      </g>
     </g>
     <g id="text_1">
      <!-- Z_2_zero -->
      <g transform="translate(115.390625 266.421875)scale(0.1 -0.1)">
       <defs>
        <path d="M 5.609375 72.90625 
L 62.890625 72.90625 
L 62.890625 65.375 
L 16.796875 8.296875 
L 64.015625 8.296875 
L 64.015625 0 
L 4.5 0 
L 4.5 7.515625 
L 50.59375 64.59375 
L 5.609375 64.59375 
z
" id="DejaVuSans-90"/>
        <path d="M 50.984375 -16.609375 
L 50.984375 -23.578125 
L -0.984375 -23.578125 
L -0.984375 -16.609375 
z
" id="DejaVuSans-95"/>
        <path d="M 19.1875 8.296875 
L 53.609375 8.296875 
L 53.609375 0 
L 7.328125 0 
L 7.328125 8.296875 
Q 12.9375 14.109375 22.625 23.890625 
Q 32.328125 33.6875 34.8125 36.53125 
Q 39.546875 41.84375 41.421875 45.53125 
Q 43.3125 49.21875 43.3125 52.78125 
Q 43.3125 58.59375 39.234375 62.25 
Q 35.15625 65.921875 28.609375 65.921875 
Q 23.96875 65.921875 18.8125 64.3125 
Q 13.671875 62.703125 7.8125 59.421875 
L 7.8125 69.390625 
Q 13.765625 71.78125 18.9375 73 
Q 24.125 74.21875 28.421875 74.21875 
Q 39.75 74.21875 46.484375 68.546875 
Q 53.21875 62.890625 53.21875 53.421875 
Q 53.21875 48.921875 51.53125 44.890625 
Q 49.859375 40.875 45.40625 35.40625 
Q 44.1875 33.984375 37.640625 27.21875 
Q 31.109375 20.453125 19.1875 8.296875 
z
" id="DejaVuSans-50"/>
        <path d="M 5.515625 54.6875 
L 48.1875 54.6875 
L 48.1875 46.484375 
L 14.40625 7.171875 
L 48.1875 7.171875 
L 48.1875 0 
L 4.296875 0 
L 4.296875 8.203125 
L 38.09375 47.515625 
L 5.515625 47.515625 
z
" id="DejaVuSans-122"/>
        <path d="M 56.203125 29.59375 
L 56.203125 25.203125 
L 14.890625 25.203125 
Q 15.484375 15.921875 20.484375 11.0625 
Q 25.484375 6.203125 34.421875 6.203125 
Q 39.59375 6.203125 44.453125 7.46875 
Q 49.3125 8.734375 54.109375 11.28125 
L 54.109375 2.78125 
Q 49.265625 0.734375 44.1875 -0.34375 
Q 39.109375 -1.421875 33.890625 -1.421875 
Q 20.796875 -1.421875 13.15625 6.1875 
Q 5.515625 13.8125 5.515625 26.8125 
Q 5.515625 40.234375 12.765625 48.109375 
Q 20.015625 56 32.328125 56 
Q 43.359375 56 49.78125 48.890625 
Q 56.203125 41.796875 56.203125 29.59375 
z
M 47.21875 32.234375 
Q 47.125 39.59375 43.09375 43.984375 
Q 39.0625 48.390625 32.421875 48.390625 
Q 24.90625 48.390625 20.390625 44.140625 
Q 15.875 39.890625 15.1875 32.171875 
z
" id="DejaVuSans-101"/>
        <path d="M 41.109375 46.296875 
Q 39.59375 47.171875 37.8125 47.578125 
Q 36.03125 48 33.890625 48 
Q 26.265625 48 22.1875 43.046875 
Q 18.109375 38.09375 18.109375 28.8125 
L 18.109375 0 
L 9.078125 0 
L 9.078125 54.6875 
L 18.109375 54.6875 
L 18.109375 46.1875 
Q 20.953125 51.171875 25.484375 53.578125 
Q 30.03125 56 36.53125 56 
Q 37.453125 56 38.578125 55.875 
Q 39.703125 55.765625 41.0625 55.515625 
z
" id="DejaVuSans-114"/>
        <path d="M 30.609375 48.390625 
Q 23.390625 48.390625 19.1875 42.75 
Q 14.984375 37.109375 14.984375 27.296875 
Q 14.984375 17.484375 19.15625 11.84375 
Q 23.34375 6.203125 30.609375 6.203125 
Q 37.796875 6.203125 41.984375 11.859375 
Q 46.1875 17.53125 46.1875 27.296875 
Q 46.1875 37.015625 41.984375 42.703125 
Q 37.796875 48.390625 30.609375 48.390625 
z
M 30.609375 56 
Q 42.328125 56 49.015625 48.375 
Q 55.71875 40.765625 55.71875 27.296875 
Q 55.71875 13.875 49.015625 6.21875 
Q 42.328125 -1.421875 30.609375 -1.421875 
Q 18.84375 -1.421875 12.171875 6.21875 
Q 5.515625 13.875 5.515625 27.296875 
Q 5.515625 40.765625 12.171875 48.375 
Q 18.84375 56 30.609375 56 
z
" id="DejaVuSans-111"/>
       </defs>
       <use xlink:href="#DejaVuSans-90"/>
       <use x="68.505859" xlink:href="#DejaVuSans-95"/>
       <use x="118.505859" xlink:href="#DejaVuSans-50"/>
       <use x="182.128906" xlink:href="#DejaVuSans-95"/>
       <use x="232.128906" xlink:href="#DejaVuSans-122"/>
       <use x="284.619141" xlink:href="#DejaVuSans-101"/>
       <use x="346.142578" xlink:href="#DejaVuSans-114"/>
       <use x="385.005859" xlink:href="#DejaVuSans-111"/>
      </g>
     </g>
    </g>
    <g id="xtick_2">
     <g id="line2d_2">
      <g>
       <use style="stroke:#000000;stroke-width:0.8;" x="305.1" xlink:href="#m7f10a81067" y="252"/>
      </g>
     </g>
     <g id="text_2">
      <!-- Z_3_zero -->
      <g transform="translate(282.790625 266.421875)scale(0.1 -0.1)">
       <defs>
        <path d="M 40.578125 39.3125 
Q 47.65625 37.796875 51.625 33 
Q 55.609375 28.21875 55.609375 21.1875 
Q 55.609375 10.40625 48.1875 4.484375 
Q 40.765625 -1.421875 27.09375 -1.421875 
Q 22.515625 -1.421875 17.65625 -0.515625 
Q 12.796875 0.390625 7.625 2.203125 
L 7.625 11.71875 
Q 11.71875 9.328125 16.59375 8.109375 
Q 21.484375 6.890625 26.8125 6.890625 
Q 36.078125 6.890625 40.9375 10.546875 
Q 45.796875 14.203125 45.796875 21.1875 
Q 45.796875 27.640625 41.28125 31.265625 
Q 36.765625 34.90625 28.71875 34.90625 
L 20.21875 34.90625 
L 20.21875 43.015625 
L 29.109375 43.015625 
Q 36.375 43.015625 40.234375 45.921875 
Q 44.09375 48.828125 44.09375 54.296875 
Q 44.09375 59.90625 40.109375 62.90625 
Q 36.140625 65.921875 28.71875 65.921875 
Q 24.65625 65.921875 20.015625 65.03125 
Q 15.375 64.15625 9.8125 62.3125 
L 9.8125 71.09375 
Q 15.4375 72.65625 20.34375 73.4375 
Q 25.25 74.21875 29.59375 74.21875 
Q 40.828125 74.21875 47.359375 69.109375 
Q 53.90625 64.015625 53.90625 55.328125 
Q 53.90625 49.265625 50.4375 45.09375 
Q 46.96875 40.921875 40.578125 39.3125 
z
" id="DejaVuSans-51"/>
       </defs>
       <use xlink:href="#DejaVuSans-90"/>
       <use x="68.505859" xlink:href="#DejaVuSans-95"/>
       <use x="118.505859" xlink:href="#DejaVuSans-51"/>
       <use x="182.128906" xlink:href="#DejaVuSans-95"/>
       <use x="232.128906" xlink:href="#DejaVuSans-122"/>
       <use x="284.619141" xlink:href="#DejaVuSans-101"/>
       <use x="346.142578" xlink:href="#DejaVuSans-114"/>
       <use x="385.005859" xlink:href="#DejaVuSans-111"/>
      </g>
     </g>
    </g>
    <g id="text_3">
     <!-- set -->
     <g transform="translate(213.758594 280.378125)scale(0.1 -0.1)">
      <defs>
       <path d="M 44.28125 53.078125 
L 44.28125 44.578125 
Q 40.484375 46.53125 36.375 47.5 
Q 32.28125 48.484375 27.875 48.484375 
Q 21.1875 48.484375 17.84375 46.4375 
Q 14.5 44.390625 14.5 40.28125 
Q 14.5 37.15625 16.890625 35.375 
Q 19.28125 33.59375 26.515625 31.984375 
L 29.59375 31.296875 
Q 39.15625 29.25 43.1875 25.515625 
Q 47.21875 21.78125 47.21875 15.09375 
Q 47.21875 7.46875 41.1875 3.015625 
Q 35.15625 -1.421875 24.609375 -1.421875 
Q 20.21875 -1.421875 15.453125 -0.5625 
Q 10.6875 0.296875 5.421875 2 
L 5.421875 11.28125 
Q 10.40625 8.6875 15.234375 7.390625 
Q 20.0625 6.109375 24.8125 6.109375 
Q 31.15625 6.109375 34.5625 8.28125 
Q 37.984375 10.453125 37.984375 14.40625 
Q 37.984375 18.0625 35.515625 20.015625 
Q 33.0625 21.96875 24.703125 23.78125 
L 21.578125 24.515625 
Q 13.234375 26.265625 9.515625 29.90625 
Q 5.8125 33.546875 5.8125 39.890625 
Q 5.8125 47.609375 11.28125 51.796875 
Q 16.75 56 26.8125 56 
Q 31.78125 56 36.171875 55.265625 
Q 40.578125 54.546875 44.28125 53.078125 
z
" id="DejaVuSans-115"/>
       <path d="M 18.3125 70.21875 
L 18.3125 54.6875 
L 36.8125 54.6875 
L 36.8125 47.703125 
L 18.3125 47.703125 
L 18.3125 18.015625 
Q 18.3125 11.328125 20.140625 9.421875 
Q 21.96875 7.515625 27.59375 7.515625 
L 36.8125 7.515625 
L 36.8125 0 
L 27.59375 0 
Q 17.1875 0 13.234375 3.875 
Q 9.28125 7.765625 9.28125 18.015625 
L 9.28125 47.703125 
L 2.6875 47.703125 
L 2.6875 54.6875 
L 9.28125 54.6875 
L 9.28125 70.21875 
z
" id="DejaVuSans-116"/>
      </defs>
      <use xlink:href="#DejaVuSans-115"/>
      <use x="52.099609" xlink:href="#DejaVuSans-101"/>
      <use x="113.623047" xlink:href="#DejaVuSans-116"/>
     </g>
    </g>
   </g>
   <g id="matplotlib.axis_2">
    <g id="ytick_1">
     <g id="line2d_3">
      <defs>
       <path d="M 0 0 
L -3.5 0 
" id="mc64905ab81" style="stroke:#000000;stroke-width:0.8;"/>
      </defs>
      <g>
       <use style="stroke:#000000;stroke-width:0.8;" x="54" xlink:href="#mc64905ab81" y="239.676608"/>
      </g>
     </g>
     <g id="text_4">
      <!-- −10 -->
      <g transform="translate(25.895312 243.475827)scale(0.1 -0.1)">
       <defs>
        <path d="M 10.59375 35.5 
L 73.1875 35.5 
L 73.1875 27.203125 
L 10.59375 27.203125 
z
" id="DejaVuSans-8722"/>
        <path d="M 12.40625 8.296875 
L 28.515625 8.296875 
L 28.515625 63.921875 
L 10.984375 60.40625 
L 10.984375 69.390625 
L 28.421875 72.90625 
L 38.28125 72.90625 
L 38.28125 8.296875 
L 54.390625 8.296875 
L 54.390625 0 
L 12.40625 0 
z
" id="DejaVuSans-49"/>
        <path d="M 31.78125 66.40625 
Q 24.171875 66.40625 20.328125 58.90625 
Q 16.5 51.421875 16.5 36.375 
Q 16.5 21.390625 20.328125 13.890625 
Q 24.171875 6.390625 31.78125 6.390625 
Q 39.453125 6.390625 43.28125 13.890625 
Q 47.125 21.390625 47.125 36.375 
Q 47.125 51.421875 43.28125 58.90625 
Q 39.453125 66.40625 31.78125 66.40625 
z
M 31.78125 74.21875 
Q 44.046875 74.21875 50.515625 64.515625 
Q 56.984375 54.828125 56.984375 36.375 
Q 56.984375 17.96875 50.515625 8.265625 
Q 44.046875 -1.421875 31.78125 -1.421875 
Q 19.53125 -1.421875 13.0625 8.265625 
Q 6.59375 17.96875 6.59375 36.375 
Q 6.59375 54.828125 13.0625 64.515625 
Q 19.53125 74.21875 31.78125 74.21875 
z
" id="DejaVuSans-48"/>
       </defs>
       <use xlink:href="#DejaVuSans-8722"/>
       <use x="83.789062" xlink:href="#DejaVuSans-49"/>
       <use x="147.412109" xlink:href="#DejaVuSans-48"/>
      </g>
     </g>
    </g>
    <g id="ytick_2">
     <g id="line2d_4">
      <g>
       <use style="stroke:#000000;stroke-width:0.8;" x="54" xlink:href="#mc64905ab81" y="207.986234"/>
      </g>
     </g>
     <g id="text_5">
      <!-- −5 -->
      <g transform="translate(32.257812 211.785453)scale(0.1 -0.1)">
       <defs>
        <path d="M 10.796875 72.90625 
L 49.515625 72.90625 
L 49.515625 64.59375 
L 19.828125 64.59375 
L 19.828125 46.734375 
Q 21.96875 47.46875 24.109375 47.828125 
Q 26.265625 48.1875 28.421875 48.1875 
Q 40.625 48.1875 47.75 41.5 
Q 54.890625 34.8125 54.890625 23.390625 
Q 54.890625 11.625 47.5625 5.09375 
Q 40.234375 -1.421875 26.90625 -1.421875 
Q 22.3125 -1.421875 17.546875 -0.640625 
Q 12.796875 0.140625 7.71875 1.703125 
L 7.71875 11.625 
Q 12.109375 9.234375 16.796875 8.0625 
Q 21.484375 6.890625 26.703125 6.890625 
Q 35.15625 6.890625 40.078125 11.328125 
Q 45.015625 15.765625 45.015625 23.390625 
Q 45.015625 31 40.078125 35.4375 
Q 35.15625 39.890625 26.703125 39.890625 
Q 22.75 39.890625 18.8125 39.015625 
Q 14.890625 38.140625 10.796875 36.28125 
z
" id="DejaVuSans-53"/>
       </defs>
       <use xlink:href="#DejaVuSans-8722"/>
       <use x="83.789062" xlink:href="#DejaVuSans-53"/>
      </g>
     </g>
    </g>
    <g id="ytick_3">
     <g id="line2d_5">
      <g>
       <use style="stroke:#000000;stroke-width:0.8;" x="54" xlink:href="#mc64905ab81" y="176.29586"/>
      </g>
     </g>
     <g id="text_6">
      <!-- 0 -->
      <g transform="translate(40.6375 180.095079)scale(0.1 -0.1)">
       <use xlink:href="#DejaVuSans-48"/>
      </g>
     </g>
    </g>
    <g id="ytick_4">
     <g id="line2d_6">
      <g>
       <use style="stroke:#000000;stroke-width:0.8;" x="54" xlink:href="#mc64905ab81" y="144.605486"/>
      </g>
     </g>
     <g id="text_7">
      <!-- 5 -->
      <g transform="translate(40.6375 148.404705)scale(0.1 -0.1)">
       <use xlink:href="#DejaVuSans-53"/>
      </g>
     </g>
    </g>
    <g id="ytick_5">
     <g id="line2d_7">
      <g>
       <use style="stroke:#000000;stroke-width:0.8;" x="54" xlink:href="#mc64905ab81" y="112.915112"/>
      </g>
     </g>
     <g id="text_8">
      <!-- 10 -->
      <g transform="translate(34.275 116.714331)scale(0.1 -0.1)">
       <use xlink:href="#DejaVuSans-49"/>
       <use x="63.623047" xlink:href="#DejaVuSans-48"/>
      </g>
     </g>
    </g>
    <g id="ytick_6">
     <g id="line2d_8">
      <g>
       <use style="stroke:#000000;stroke-width:0.8;" x="54" xlink:href="#mc64905ab81" y="81.224738"/>
      </g>
     </g>
     <g id="text_9">
      <!-- 15 -->
      <g transform="translate(34.275 85.023957)scale(0.1 -0.1)">
       <use xlink:href="#DejaVuSans-49"/>
       <use x="63.623047" xlink:href="#DejaVuSans-53"/>
      </g>
     </g>
    </g>
    <g id="ytick_7">
     <g id="line2d_9">
      <g>
       <use style="stroke:#000000;stroke-width:0.8;" x="54" xlink:href="#mc64905ab81" y="49.534364"/>
      </g>
     </g>
     <g id="text_10">
      <!-- 20 -->
      <g transform="translate(34.275 53.333583)scale(0.1 -0.1)">
       <use xlink:href="#DejaVuSans-50"/>
       <use x="63.623047" xlink:href="#DejaVuSans-48"/>
      </g>
     </g>
    </g>
    <g id="text_11">
     <!-- value -->
     <g transform="translate(19.815625 156.937813)rotate(-90)scale(0.1 -0.1)">
      <defs>
       <path d="M 2.984375 54.6875 
L 12.5 54.6875 
L 29.59375 8.796875 
L 46.6875 54.6875 
L 56.203125 54.6875 
L 35.6875 0 
L 23.484375 0 
z
" id="DejaVuSans-118"/>
       <path d="M 34.28125 27.484375 
Q 23.390625 27.484375 19.1875 25 
Q 14.984375 22.515625 14.984375 16.5 
Q 14.984375 11.71875 18.140625 8.90625 
Q 21.296875 6.109375 26.703125 6.109375 
Q 34.1875 6.109375 38.703125 11.40625 
Q 43.21875 16.703125 43.21875 25.484375 
L 43.21875 27.484375 
z
M 52.203125 31.203125 
L 52.203125 0 
L 43.21875 0 
L 43.21875 8.296875 
Q 40.140625 3.328125 35.546875 0.953125 
Q 30.953125 -1.421875 24.3125 -1.421875 
Q 15.921875 -1.421875 10.953125 3.296875 
Q 6 8.015625 6 15.921875 
Q 6 25.140625 12.171875 29.828125 
Q 18.359375 34.515625 30.609375 34.515625 
L 43.21875 34.515625 
L 43.21875 35.40625 
Q 43.21875 41.609375 39.140625 45 
Q 35.0625 48.390625 27.6875 48.390625 
Q 23 48.390625 18.546875 47.265625 
Q 14.109375 46.140625 10.015625 43.890625 
L 10.015625 52.203125 
Q 14.9375 54.109375 19.578125 55.046875 
Q 24.21875 56 28.609375 56 
Q 40.484375 56 46.34375 49.84375 
Q 52.203125 43.703125 52.203125 31.203125 
z
" id="DejaVuSans-97"/>
       <path d="M 9.421875 75.984375 
L 18.40625 75.984375 
L 18.40625 0 
L 9.421875 0 
z
" id="DejaVuSans-108"/>
       <path d="M 8.5 21.578125 
L 8.5 54.6875 
L 17.484375 54.6875 
L 17.484375 21.921875 
Q 17.484375 14.15625 20.5 10.265625 
Q 23.53125 6.390625 29.59375 6.390625 
Q 36.859375 6.390625 41.078125 11.03125 
Q 45.3125 15.671875 45.3125 23.6875 
L 45.3125 54.6875 
L 54.296875 54.6875 
L 54.296875 0 
L 45.3125 0 
L 45.3125 8.40625 
Q 42.046875 3.421875 37.71875 1 
Q 33.40625 -1.421875 27.6875 -1.421875 
Q 18.265625 -1.421875 13.375 4.4375 
Q 8.5 10.296875 8.5 21.578125 
z
M 31.109375 56 
z
" id="DejaVuSans-117"/>
      </defs>
      <use xlink:href="#DejaVuSans-118"/>
      <use x="59.179688" xlink:href="#DejaVuSans-97"/>
      <use x="120.458984" xlink:href="#DejaVuSans-108"/>
      <use x="148.242188" xlink:href="#DejaVuSans-117"/>
      <use x="211.621094" xlink:href="#DejaVuSans-101"/>
     </g>
    </g>
   </g>
   <g id="line2d_10">
    <path clip-path="url(#pf62011fb16)" d="M 104.22 177.475532 
L 104.22 53.324796 
" style="fill:none;stroke:#3f3f3f;stroke-linecap:square;stroke-width:1.5;"/>
   </g>
   <g id="line2d_11">
    <path clip-path="url(#pf62011fb16)" d="M 104.22 128.127046 
L 104.22 95.209504 
" style="fill:none;stroke:#3f3f3f;stroke-linecap:square;stroke-width:4.5;"/>
   </g>
   <g id="line2d_12">
    <path clip-path="url(#pf62011fb16)" d="M 338.58 169.833385 
L 338.58 48.472776 
" style="fill:none;stroke:#3f3f3f;stroke-linecap:square;stroke-width:1.5;"/>
   </g>
   <g id="line2d_13">
    <path clip-path="url(#pf62011fb16)" d="M 338.58 123.843304 
L 338.58 93.012129 
" style="fill:none;stroke:#3f3f3f;stroke-linecap:square;stroke-width:4.5;"/>
   </g>
   <g id="patch_5">
    <path d="M 54 252 
L 54 34.56 
" style="fill:none;stroke:#000000;stroke-linecap:square;stroke-linejoin:miter;stroke-width:0.8;"/>
   </g>
   <g id="patch_6">
    <path d="M 388.8 252 
L 388.8 34.56 
" style="fill:none;stroke:#000000;stroke-linecap:square;stroke-linejoin:miter;stroke-width:0.8;"/>
   </g>
   <g id="patch_7">
    <path d="M 54 252 
L 388.8 252 
" style="fill:none;stroke:#000000;stroke-linecap:square;stroke-linejoin:miter;stroke-width:0.8;"/>
   </g>
   <g id="patch_8">
    <path d="M 54 34.56 
L 388.8 34.56 
" style="fill:none;stroke:#000000;stroke-linecap:square;stroke-linejoin:miter;stroke-width:0.8;"/>
   </g>
   <g id="PathCollection_1">
    <defs>
     <path d="M 0 1.5 
C 0.397805 1.5 0.77937 1.341951 1.06066 1.06066 
C 1.341951 0.77937 1.5 0.397805 1.5 0 
C 1.5 -0.397805 1.341951 -0.77937 1.06066 -1.06066 
C 0.77937 -1.341951 0.397805 -1.5 0 -1.5 
C -0.397805 -1.5 -0.77937 -1.341951 -1.06066 -1.06066 
C -1.341951 -0.77937 -1.5 -0.397805 -1.5 0 
C -1.5 0.397805 -1.341951 0.77937 -1.06066 1.06066 
C -0.77937 1.341951 -0.397805 1.5 0 1.5 
z
" id="m8d95a7e7b0" style="stroke:#3f3f3f;"/>
    </defs>
    <g clip-path="url(#pf62011fb16)">
     <use style="fill:#ffffff;stroke:#3f3f3f;" x="104.22" xlink:href="#m8d95a7e7b0" y="109.930177"/>
    </g>
   </g>
   <g id="PathCollection_2">
    <g clip-path="url(#pf62011fb16)">
     <use style="fill:#ffffff;stroke:#3f3f3f;" x="338.58" xlink:href="#m8d95a7e7b0" y="107.45427"/>
    </g>
   </g>
   <g id="legend_1">
    <g id="patch_9">
     <path d="M 61 247 
L 137.61875 247 
Q 139.61875 247 139.61875 245 
L 139.61875 201.409375 
Q 139.61875 199.409375 137.61875 199.409375 
L 61 199.409375 
Q 59 199.409375 59 201.409375 
L 59 245 
Q 59 247 61 247 
z
" style="fill:#ffffff;opacity:0.8;stroke:#cccccc;stroke-linejoin:miter;"/>
    </g>
    <g id="text_12">
     <!-- set -->
     <g transform="translate(91.667969 211.007812)scale(0.1 -0.1)">
      <use xlink:href="#DejaVuSans-115"/>
      <use x="52.099609" xlink:href="#DejaVuSans-101"/>
      <use x="113.623047" xlink:href="#DejaVuSans-116"/>
     </g>
    </g>
    <g id="patch_10">
     <path d="M 63 225.685937 
L 83 225.685937 
L 83 218.685937 
L 63 218.685937 
z
" style="fill:#3274a1;stroke:#3f3f3f;stroke-linejoin:miter;stroke-width:0.75;"/>
    </g>
    <g id="text_13">
     <!-- Z_2_zero -->
     <g transform="translate(91 225.685937)scale(0.1 -0.1)">
      <use xlink:href="#DejaVuSans-90"/>
      <use x="68.505859" xlink:href="#DejaVuSans-95"/>
      <use x="118.505859" xlink:href="#DejaVuSans-50"/>
      <use x="182.128906" xlink:href="#DejaVuSans-95"/>
      <use x="232.128906" xlink:href="#DejaVuSans-122"/>
      <use x="284.619141" xlink:href="#DejaVuSans-101"/>
      <use x="346.142578" xlink:href="#DejaVuSans-114"/>
      <use x="385.005859" xlink:href="#DejaVuSans-111"/>
     </g>
    </g>
    <g id="patch_11">
     <path d="M 63 240.642188 
L 83 240.642188 
L 83 233.642188 
L 63 233.642188 
z
" style="fill:#e1812c;stroke:#3f3f3f;stroke-linejoin:miter;stroke-width:0.75;"/>
    </g>
    <g id="text_14">
     <!-- Z_3_zero -->
     <g transform="translate(91 240.642188)scale(0.1 -0.1)">
      <use xlink:href="#DejaVuSans-90"/>
      <use x="68.505859" xlink:href="#DejaVuSans-95"/>
      <use x="118.505859" xlink:href="#DejaVuSans-51"/>
      <use x="182.128906" xlink:href="#DejaVuSans-95"/>
      <use x="232.128906" xlink:href="#DejaVuSans-122"/>
      <use x="284.619141" xlink:href="#DejaVuSans-101"/>
      <use x="346.142578" xlink:href="#DejaVuSans-114"/>
      <use x="385.005859" xlink:href="#DejaVuSans-111"/>
     </g>
    </g>
   </g>
  </g>
 </g>
 <defs>
  <clipPath id="pf62011fb16">
   <rect height="217.44" width="334.8" x="54" y="34.56"/>
  </clipPath>
 </defs>
</svg>
