<?xml version="1.0" encoding="utf-8" standalone="no"?>
<!DOCTYPE svg PUBLIC "-//W3C//DTD SVG 1.1//EN"
  "http://www.w3.org/Graphics/SVG/1.1/DTD/svg11.dtd">
<!-- Created with matplotlib (https://matplotlib.org/) -->
<svg height="288pt" version="1.1" viewBox="0 0 432 288" width="432pt" xmlns="http://www.w3.org/2000/svg" xmlns:xlink="http://www.w3.org/1999/xlink">
 <metadata>
  <rdf:RDF xmlns:cc="http://creativecommons.org/ns#" xmlns:dc="http://purl.org/dc/elements/1.1/" xmlns:rdf="http://www.w3.org/1999/02/22-rdf-syntax-ns#">
   <cc:Work>
    <dc:type rdf:resource="http://purl.org/dc/dcmitype/StillImage"/>
    <dc:date>2022-05-02T16:43:18.503466</dc:date>
    <dc:format>image/svg+xml</dc:format>
    <dc:creator>
     <cc:Agent>
      <dc:title>Matplotlib v3.3.4, https://matplotlib.org/</dc:title>
     </cc:Agent>
    </dc:creator>
   </cc:Work>
  </rdf:RDF>
 </metadata>
 <defs>
  <style type="text/css">*{stroke-linecap:butt;stroke-linejoin:round;}</style>
 </defs>
 <g id="figure_1">
  <g id="patch_1">
   <path d="M 0 288 
L 432 288 
L 432 0 
L 0 0 
z
" style="fill:#ffffff;"/>
  </g>
  <g id="axes_1">
   <g id="patch_2">
    <path d="M 54 252 
L 388.8 252 
L 388.8 34.56 
L 54 34.56 
z
" style="fill:#ffffff;"/>
   </g>
   <g id="PolyCollection_1">
    <defs>
     <path d="M 104.379357 -64.2012 
L 104.060643 -64.2012 
L 104.004323 -65.932643 
L 103.938544 -67.664085 
L 103.865936 -69.395528 
L 103.790089 -71.126971 
L 103.714382 -72.858414 
L 103.640732 -74.589856 
L 103.568885 -76.321299 
L 103.496653 -78.052742 
L 103.420866 -79.784185 
L 103.338422 -81.515627 
L 103.246873 -83.24707 
L 103.144478 -84.978513 
L 103.030152 -86.709956 
L 102.903741 -88.441398 
L 102.766592 -90.172841 
L 102.621907 -91.904284 
L 102.474466 -93.635727 
L 102.329805 -95.36717 
L 102.193404 -97.098612 
L 102.070265 -98.830055 
L 101.964631 -100.561498 
L 101.879287 -102.292941 
L 101.814241 -104.024383 
L 101.76539 -105.755826 
L 101.724195 -107.487269 
L 101.678966 -109.218712 
L 101.617428 -110.950154 
L 101.529527 -112.681597 
L 101.40943 -114.41304 
L 101.256237 -116.144483 
L 101.073544 -117.875925 
L 100.868262 -119.607368 
L 100.648957 -121.338811 
L 100.423892 -123.070254 
L 100.199131 -124.801697 
L 99.977401 -126.533139 
L 99.758375 -128.264582 
L 99.540365 -129.996025 
L 99.322473 -131.727468 
L 99.10566 -133.45891 
L 98.891653 -135.190353 
L 98.679813 -136.921796 
L 98.463516 -138.653239 
L 98.228223 -140.384681 
L 97.952973 -142.116124 
L 97.615458 -143.847567 
L 97.199016 -145.57901 
L 96.698529 -147.310452 
L 96.122318 -149.041895 
L 95.488648 -150.773338 
L 94.818007 -152.504781 
L 94.124689 -154.236223 
L 93.412025 -155.967666 
L 92.674054 -157.699109 
L 91.902866 -159.430552 
L 91.097217 -161.161995 
L 90.266734 -162.893437 
L 89.428538 -164.62488 
L 88.598106 -166.356323 
L 87.780327 -168.087766 
L 86.966811 -169.819208 
L 86.141187 -171.550651 
L 85.288424 -173.282094 
L 84.401546 -175.013537 
L 83.481356 -176.744979 
L 82.530171 -178.476422 
L 81.544761 -180.207865 
L 80.51401 -181.939308 
L 79.423473 -183.67075 
L 78.26483 -185.402193 
L 77.045691 -187.133636 
L 75.795105 -188.865079 
L 74.562133 -190.596522 
L 73.408027 -192.327964 
L 72.395762 -194.059407 
L 71.5821 -195.79085 
L 71.015634 -197.522293 
L 70.74 -199.253735 
L 70.797379 -200.985178 
L 71.226906 -202.716621 
L 72.056315 -204.448064 
L 73.290549 -206.179506 
L 74.90403 -207.910949 
L 76.841555 -209.642392 
L 79.027753 -211.373835 
L 81.380301 -213.105277 
L 83.820737 -214.83672 
L 86.27919 -216.568163 
L 88.693571 -218.299606 
L 91.006874 -220.031049 
L 93.166594 -221.762491 
L 95.127964 -223.493934 
L 96.859665 -225.225377 
L 98.348632 -226.95682 
L 99.600886 -228.688262 
L 100.637448 -230.419705 
L 101.486995 -232.151148 
L 102.178355 -233.882591 
L 102.735649 -235.614033 
L 105.704351 -235.614033 
L 105.704351 -235.614033 
L 106.261645 -233.882591 
L 106.953005 -232.151148 
L 107.802552 -230.419705 
L 108.839114 -228.688262 
L 110.091368 -226.95682 
L 111.580335 -225.225377 
L 113.312036 -223.493934 
L 115.273406 -221.762491 
L 117.433126 -220.031049 
L 119.746429 -218.299606 
L 122.16081 -216.568163 
L 124.619263 -214.83672 
L 127.059699 -213.105277 
L 129.412247 -211.373835 
L 131.598445 -209.642392 
L 133.53597 -207.910949 
L 135.149451 -206.179506 
L 136.383685 -204.448064 
L 137.213094 -202.716621 
L 137.642621 -200.985178 
L 137.7 -199.253735 
L 137.424366 -197.522293 
L 136.8579 -195.79085 
L 136.044238 -194.059407 
L 135.031973 -192.327964 
L 133.877867 -190.596522 
L 132.644895 -188.865079 
L 131.394309 -187.133636 
L 130.17517 -185.402193 
L 129.016527 -183.67075 
L 127.92599 -181.939308 
L 126.895239 -180.207865 
L 125.909829 -178.476422 
L 124.958644 -176.744979 
L 124.038454 -175.013537 
L 123.151576 -173.282094 
L 122.298813 -171.550651 
L 121.473189 -169.819208 
L 120.659673 -168.087766 
L 119.841894 -166.356323 
L 119.011462 -164.62488 
L 118.173266 -162.893437 
L 117.342783 -161.161995 
L 116.537134 -159.430552 
L 115.765946 -157.699109 
L 115.027975 -155.967666 
L 114.315311 -154.236223 
L 113.621993 -152.504781 
L 112.951352 -150.773338 
L 112.317682 -149.041895 
L 111.741471 -147.310452 
L 111.240984 -145.57901 
L 110.824542 -143.847567 
L 110.487027 -142.116124 
L 110.211777 -140.384681 
L 109.976484 -138.653239 
L 109.760187 -136.921796 
L 109.548347 -135.190353 
L 109.33434 -133.45891 
L 109.117527 -131.727468 
L 108.899635 -129.996025 
L 108.681625 -128.264582 
L 108.462599 -126.533139 
L 108.240869 -124.801697 
L 108.016108 -123.070254 
L 107.791043 -121.338811 
L 107.571738 -119.607368 
L 107.366456 -117.875925 
L 107.183763 -116.144483 
L 107.03057 -114.41304 
L 106.910473 -112.681597 
L 106.822572 -110.950154 
L 106.761034 -109.218712 
L 106.715805 -107.487269 
L 106.67461 -105.755826 
L 106.625759 -104.024383 
L 106.560713 -102.292941 
L 106.475369 -100.561498 
L 106.369735 -98.830055 
L 106.246596 -97.098612 
L 106.110195 -95.36717 
L 105.965534 -93.635727 
L 105.818093 -91.904284 
L 105.673408 -90.172841 
L 105.536259 -88.441398 
L 105.409848 -86.709956 
L 105.295522 -84.978513 
L 105.193127 -83.24707 
L 105.101578 -81.515627 
L 105.019134 -79.784185 
L 104.943347 -78.052742 
L 104.871115 -76.321299 
L 104.799268 -74.589856 
L 104.725618 -72.858414 
L 104.649911 -71.126971 
L 104.574064 -69.395528 
L 104.501456 -67.664085 
L 104.435677 -65.932643 
L 104.379357 -64.2012 
z
" id="mdbc4091887" style="stroke:#3f3f3f;stroke-width:1.5;"/>
    </defs>
    <g clip-path="url(#p097461a9fb)">
     <use style="fill:#3274a1;stroke:#3f3f3f;stroke-width:1.5;" x="0" xlink:href="#mdbc4091887" y="288"/>
    </g>
   </g>
   <g id="PolyCollection_2">
    <defs>
     <path d="M 338.665219 -45.883636 
L 338.494781 -45.883636 
L 338.491796 -47.880331 
L 338.499222 -49.877025 
L 338.510609 -51.873719 
L 338.519671 -53.870413 
L 338.525092 -55.867107 
L 338.530123 -57.863802 
L 338.538169 -59.860496 
L 338.549323 -61.85719 
L 338.56079 -63.853884 
L 338.56957 -65.850579 
L 338.574198 -67.847273 
L 338.574414 -69.843967 
L 338.570105 -71.840661 
L 338.561059 -73.837355 
L 338.547596 -75.83405 
L 338.530742 -77.830744 
L 338.510962 -79.827438 
L 338.486791 -81.824132 
L 338.456077 -83.820826 
L 338.419873 -85.817521 
L 338.384721 -87.814215 
L 338.359424 -89.810909 
L 338.348075 -91.807603 
L 338.345422 -93.804298 
L 338.339073 -95.800992 
L 338.317817 -97.797686 
L 338.280349 -99.79438 
L 338.236892 -101.791074 
L 338.200448 -103.787769 
L 338.17382 -105.784463 
L 338.144228 -107.781157 
L 338.091397 -109.777851 
L 338.002493 -111.774545 
L 337.88174 -113.77124 
L 337.748448 -115.767934 
L 337.626456 -117.764628 
L 337.532161 -119.761322 
L 337.466842 -121.758017 
L 337.415531 -123.754711 
L 337.352309 -125.751405 
L 337.251148 -127.748099 
L 337.099556 -129.744793 
L 336.907508 -131.741488 
L 336.702911 -133.738182 
L 336.514579 -135.734876 
L 336.355824 -137.73157 
L 336.21954 -139.728264 
L 336.082603 -141.724959 
L 335.913693 -143.721653 
L 335.68511 -145.718347 
L 335.3876 -147.715041 
L 335.036746 -149.711736 
L 334.659086 -151.70843 
L 334.263551 -153.705124 
L 333.82266 -155.701818 
L 333.284588 -157.698512 
L 332.608861 -159.695207 
L 331.794693 -161.691901 
L 330.880918 -163.688595 
L 329.926012 -165.685289 
L 328.9887 -167.681983 
L 328.115253 -169.678678 
L 327.324652 -171.675372 
L 326.590355 -173.672066 
L 325.837823 -175.66876 
L 324.975112 -177.665455 
L 323.938527 -179.662149 
L 322.710713 -181.658843 
L 321.296984 -183.655537 
L 319.69593 -185.652231 
L 317.907473 -187.648926 
L 315.975693 -189.64562 
L 314.016675 -191.642314 
L 312.18682 -193.639008 
L 310.604978 -195.635702 
L 309.292006 -197.632397 
L 308.178788 -199.629091 
L 307.176825 -201.625785 
L 306.261845 -203.622479 
L 305.515581 -205.619174 
L 305.1 -207.615868 
L 305.190593 -209.612562 
L 305.927768 -211.609256 
L 307.408955 -213.60595 
L 309.678426 -215.602645 
L 312.678916 -217.599339 
L 316.20861 -219.596033 
L 319.95503 -221.592727 
L 323.600056 -223.589421 
L 326.913165 -225.586116 
L 329.772597 -227.58281 
L 332.133569 -229.579504 
L 333.997288 -231.576198 
L 335.402525 -233.572893 
L 336.421906 -235.569587 
L 337.144687 -237.566281 
L 337.652435 -239.562975 
L 338.005073 -241.559669 
L 338.242827 -243.556364 
L 338.917173 -243.556364 
L 338.917173 -243.556364 
L 339.154927 -241.559669 
L 339.507565 -239.562975 
L 340.015313 -237.566281 
L 340.738094 -235.569587 
L 341.757475 -233.572893 
L 343.162712 -231.576198 
L 345.026431 -229.579504 
L 347.387403 -227.58281 
L 350.246835 -225.586116 
L 353.559944 -223.589421 
L 357.20497 -221.592727 
L 360.95139 -219.596033 
L 364.481084 -217.599339 
L 367.481574 -215.602645 
L 369.751045 -213.60595 
L 371.232232 -211.609256 
L 371.969407 -209.612562 
L 372.06 -207.615868 
L 371.644419 -205.619174 
L 370.898155 -203.622479 
L 369.983175 -201.625785 
L 368.981212 -199.629091 
L 367.867994 -197.632397 
L 366.555022 -195.635702 
L 364.97318 -193.639008 
L 363.143325 -191.642314 
L 361.184307 -189.64562 
L 359.252527 -187.648926 
L 357.46407 -185.652231 
L 355.863016 -183.655537 
L 354.449287 -181.658843 
L 353.221473 -179.662149 
L 352.184888 -177.665455 
L 351.322177 -175.66876 
L 350.569645 -173.672066 
L 349.835348 -171.675372 
L 349.044747 -169.678678 
L 348.1713 -167.681983 
L 347.233988 -165.685289 
L 346.279082 -163.688595 
L 345.365307 -161.691901 
L 344.551139 -159.695207 
L 343.875412 -157.698512 
L 343.33734 -155.701818 
L 342.896449 -153.705124 
L 342.500914 -151.70843 
L 342.123254 -149.711736 
L 341.7724 -147.715041 
L 341.47489 -145.718347 
L 341.246307 -143.721653 
L 341.077397 -141.724959 
L 340.94046 -139.728264 
L 340.804176 -137.73157 
L 340.645421 -135.734876 
L 340.457089 -133.738182 
L 340.252492 -131.741488 
L 340.060444 -129.744793 
L 339.908852 -127.748099 
L 339.807691 -125.751405 
L 339.744469 -123.754711 
L 339.693158 -121.758017 
L 339.627839 -119.761322 
L 339.533544 -117.764628 
L 339.411552 -115.767934 
L 339.27826 -113.77124 
L 339.157507 -111.774545 
L 339.068603 -109.777851 
L 339.015772 -107.781157 
L 338.98618 -105.784463 
L 338.959552 -103.787769 
L 338.923108 -101.791074 
L 338.879651 -99.79438 
L 338.842183 -97.797686 
L 338.820927 -95.800992 
L 338.814578 -93.804298 
L 338.811925 -91.807603 
L 338.800576 -89.810909 
L 338.775279 -87.814215 
L 338.740127 -85.817521 
L 338.703923 -83.820826 
L 338.673209 -81.824132 
L 338.649038 -79.827438 
L 338.629258 -77.830744 
L 338.612404 -75.83405 
L 338.598941 -73.837355 
L 338.589895 -71.840661 
L 338.585586 -69.843967 
L 338.585802 -67.847273 
L 338.59043 -65.850579 
L 338.59921 -63.853884 
L 338.610677 -61.85719 
L 338.621831 -59.860496 
L 338.629877 -57.863802 
L 338.634908 -55.867107 
L 338.640329 -53.870413 
L 338.649391 -51.873719 
L 338.660778 -49.877025 
L 338.668204 -47.880331 
L 338.665219 -45.883636 
z
" id="m16fa0fd356" style="stroke:#3f3f3f;stroke-width:1.5;"/>
    </defs>
    <g clip-path="url(#p097461a9fb)">
     <use style="fill:#e1812c;stroke:#3f3f3f;stroke-width:1.5;" x="0" xlink:href="#m16fa0fd356" y="288"/>
    </g>
   </g>
   <g id="patch_3">
    <path clip-path="url(#p097461a9fb)" d="M 137.7 340.027514 
L 137.7 340.027514 
L 137.7 340.027514 
L 137.7 340.027514 
z
" style="fill:#3274a1;stroke:#3f3f3f;stroke-linejoin:miter;stroke-width:0.75;"/>
   </g>
   <g id="patch_4">
    <path clip-path="url(#p097461a9fb)" d="M 137.7 340.027514 
L 137.7 340.027514 
L 137.7 340.027514 
L 137.7 340.027514 
z
" style="fill:#e1812c;stroke:#3f3f3f;stroke-linejoin:miter;stroke-width:0.75;"/>
   </g>
   <g id="matplotlib.axis_1">
    <g id="xtick_1">
     <g id="line2d_1">
      <defs>
       <path d="M 0 0 
L 0 3.5 
" id="m66def22d4c" style="stroke:#000000;stroke-width:0.8;"/>
      </defs>
      <g>
       <use style="stroke:#000000;stroke-width:0.8;" x="137.7" xlink:href="#m66def22d4c" y="252"/>
      </g>
     </g>
     <g id="text_1">
      <!-- Z_1_ns -->
      <g transform="translate(120.320312 266.320312)scale(0.1 -0.1)">
       <defs>
        <path d="M 5.609375 72.90625 
L 62.890625 72.90625 
L 62.890625 65.375 
L 16.796875 8.296875 
L 64.015625 8.296875 
L 64.015625 0 
L 4.5 0 
L 4.5 7.515625 
L 50.59375 64.59375 
L 5.609375 64.59375 
z
" id="DejaVuSans-90"/>
        <path d="M 50.984375 -16.609375 
L 50.984375 -23.578125 
L -0.984375 -23.578125 
L -0.984375 -16.609375 
z
" id="DejaVuSans-95"/>
        <path d="M 12.40625 8.296875 
L 28.515625 8.296875 
L 28.515625 63.921875 
L 10.984375 60.40625 
L 10.984375 69.390625 
L 28.421875 72.90625 
L 38.28125 72.90625 
L 38.28125 8.296875 
L 54.390625 8.296875 
L 54.390625 0 
L 12.40625 0 
z
" id="DejaVuSans-49"/>
        <path d="M 54.890625 33.015625 
L 54.890625 0 
L 45.90625 0 
L 45.90625 32.71875 
Q 45.90625 40.484375 42.875 44.328125 
Q 39.84375 48.1875 33.796875 48.1875 
Q 26.515625 48.1875 22.3125 43.546875 
Q 18.109375 38.921875 18.109375 30.90625 
L 18.109375 0 
L 9.078125 0 
L 9.078125 54.6875 
L 18.109375 54.6875 
L 18.109375 46.1875 
Q 21.34375 51.125 25.703125 53.5625 
Q 30.078125 56 35.796875 56 
Q 45.21875 56 50.046875 50.171875 
Q 54.890625 44.34375 54.890625 33.015625 
z
" id="DejaVuSans-110"/>
        <path d="M 44.28125 53.078125 
L 44.28125 44.578125 
Q 40.484375 46.53125 36.375 47.5 
Q 32.28125 48.484375 27.875 48.484375 
Q 21.1875 48.484375 17.84375 46.4375 
Q 14.5 44.390625 14.5 40.28125 
Q 14.5 37.15625 16.890625 35.375 
Q 19.28125 33.59375 26.515625 31.984375 
L 29.59375 31.296875 
Q 39.15625 29.25 43.1875 25.515625 
Q 47.21875 21.78125 47.21875 15.09375 
Q 47.21875 7.46875 41.1875 3.015625 
Q 35.15625 -1.421875 24.609375 -1.421875 
Q 20.21875 -1.421875 15.453125 -0.5625 
Q 10.6875 0.296875 5.421875 2 
L 5.421875 11.28125 
Q 10.40625 8.6875 15.234375 7.390625 
Q 20.0625 6.109375 24.8125 6.109375 
Q 31.15625 6.109375 34.5625 8.28125 
Q 37.984375 10.453125 37.984375 14.40625 
Q 37.984375 18.0625 35.515625 20.015625 
Q 33.0625 21.96875 24.703125 23.78125 
L 21.578125 24.515625 
Q 13.234375 26.265625 9.515625 29.90625 
Q 5.8125 33.546875 5.8125 39.890625 
Q 5.8125 47.609375 11.28125 51.796875 
Q 16.75 56 26.8125 56 
Q 31.78125 56 36.171875 55.265625 
Q 40.578125 54.546875 44.28125 53.078125 
z
" id="DejaVuSans-115"/>
       </defs>
       <use xlink:href="#DejaVuSans-90"/>
       <use x="68.505859" xlink:href="#DejaVuSans-95"/>
       <use x="118.505859" xlink:href="#DejaVuSans-49"/>
       <use x="182.128906" xlink:href="#DejaVuSans-95"/>
       <use x="232.128906" xlink:href="#DejaVuSans-110"/>
       <use x="295.507812" xlink:href="#DejaVuSans-115"/>
      </g>
     </g>
    </g>
    <g id="xtick_2">
     <g id="line2d_2">
      <g>
       <use style="stroke:#000000;stroke-width:0.8;" x="305.1" xlink:href="#m66def22d4c" y="252"/>
      </g>
     </g>
     <g id="text_2">
      <!-- Z_3_ns -->
      <g transform="translate(287.720313 266.421875)scale(0.1 -0.1)">
       <defs>
        <path d="M 40.578125 39.3125 
Q 47.65625 37.796875 51.625 33 
Q 55.609375 28.21875 55.609375 21.1875 
Q 55.609375 10.40625 48.1875 4.484375 
Q 40.765625 -1.421875 27.09375 -1.421875 
Q 22.515625 -1.421875 17.65625 -0.515625 
Q 12.796875 0.390625 7.625 2.203125 
L 7.625 11.71875 
Q 11.71875 9.328125 16.59375 8.109375 
Q 21.484375 6.890625 26.8125 6.890625 
Q 36.078125 6.890625 40.9375 10.546875 
Q 45.796875 14.203125 45.796875 21.1875 
Q 45.796875 27.640625 41.28125 31.265625 
Q 36.765625 34.90625 28.71875 34.90625 
L 20.21875 34.90625 
L 20.21875 43.015625 
L 29.109375 43.015625 
Q 36.375 43.015625 40.234375 45.921875 
Q 44.09375 48.828125 44.09375 54.296875 
Q 44.09375 59.90625 40.109375 62.90625 
Q 36.140625 65.921875 28.71875 65.921875 
Q 24.65625 65.921875 20.015625 65.03125 
Q 15.375 64.15625 9.8125 62.3125 
L 9.8125 71.09375 
Q 15.4375 72.65625 20.34375 73.4375 
Q 25.25 74.21875 29.59375 74.21875 
Q 40.828125 74.21875 47.359375 69.109375 
Q 53.90625 64.015625 53.90625 55.328125 
Q 53.90625 49.265625 50.4375 45.09375 
Q 46.96875 40.921875 40.578125 39.3125 
z
" id="DejaVuSans-51"/>
       </defs>
       <use xlink:href="#DejaVuSans-90"/>
       <use x="68.505859" xlink:href="#DejaVuSans-95"/>
       <use x="118.505859" xlink:href="#DejaVuSans-51"/>
       <use x="182.128906" xlink:href="#DejaVuSans-95"/>
       <use x="232.128906" xlink:href="#DejaVuSans-110"/>
       <use x="295.507812" xlink:href="#DejaVuSans-115"/>
      </g>
     </g>
    </g>
    <g id="text_3">
     <!-- set -->
     <g transform="translate(213.758594 280.378125)scale(0.1 -0.1)">
      <defs>
       <path d="M 56.203125 29.59375 
L 56.203125 25.203125 
L 14.890625 25.203125 
Q 15.484375 15.921875 20.484375 11.0625 
Q 25.484375 6.203125 34.421875 6.203125 
Q 39.59375 6.203125 44.453125 7.46875 
Q 49.3125 8.734375 54.109375 11.28125 
L 54.109375 2.78125 
Q 49.265625 0.734375 44.1875 -0.34375 
Q 39.109375 -1.421875 33.890625 -1.421875 
Q 20.796875 -1.421875 13.15625 6.1875 
Q 5.515625 13.8125 5.515625 26.8125 
Q 5.515625 40.234375 12.765625 48.109375 
Q 20.015625 56 32.328125 56 
Q 43.359375 56 49.78125 48.890625 
Q 56.203125 41.796875 56.203125 29.59375 
z
M 47.21875 32.234375 
Q 47.125 39.59375 43.09375 43.984375 
Q 39.0625 48.390625 32.421875 48.390625 
Q 24.90625 48.390625 20.390625 44.140625 
Q 15.875 39.890625 15.1875 32.171875 
z
" id="DejaVuSans-101"/>
       <path d="M 18.3125 70.21875 
L 18.3125 54.6875 
L 36.8125 54.6875 
L 36.8125 47.703125 
L 18.3125 47.703125 
L 18.3125 18.015625 
Q 18.3125 11.328125 20.140625 9.421875 
Q 21.96875 7.515625 27.59375 7.515625 
L 36.8125 7.515625 
L 36.8125 0 
L 27.59375 0 
Q 17.1875 0 13.234375 3.875 
Q 9.28125 7.765625 9.28125 18.015625 
L 9.28125 47.703125 
L 2.6875 47.703125 
L 2.6875 54.6875 
L 9.28125 54.6875 
L 9.28125 70.21875 
z
" id="DejaVuSans-116"/>
      </defs>
      <use xlink:href="#DejaVuSans-115"/>
      <use x="52.099609" xlink:href="#DejaVuSans-101"/>
      <use x="113.623047" xlink:href="#DejaVuSans-116"/>
     </g>
    </g>
   </g>
   <g id="matplotlib.axis_2">
    <g id="ytick_1">
     <g id="line2d_3">
      <defs>
       <path d="M 0 0 
L -3.5 0 
" id="m4fc44670ab" style="stroke:#000000;stroke-width:0.8;"/>
      </defs>
      <g>
       <use style="stroke:#000000;stroke-width:0.8;" x="54" xlink:href="#m4fc44670ab" y="225.332895"/>
      </g>
     </g>
     <g id="text_4">
      <!-- 20 -->
      <g transform="translate(34.275 229.132114)scale(0.1 -0.1)">
       <defs>
        <path d="M 19.1875 8.296875 
L 53.609375 8.296875 
L 53.609375 0 
L 7.328125 0 
L 7.328125 8.296875 
Q 12.9375 14.109375 22.625 23.890625 
Q 32.328125 33.6875 34.8125 36.53125 
Q 39.546875 41.84375 41.421875 45.53125 
Q 43.3125 49.21875 43.3125 52.78125 
Q 43.3125 58.59375 39.234375 62.25 
Q 35.15625 65.921875 28.609375 65.921875 
Q 23.96875 65.921875 18.8125 64.3125 
Q 13.671875 62.703125 7.8125 59.421875 
L 7.8125 69.390625 
Q 13.765625 71.78125 18.9375 73 
Q 24.125 74.21875 28.421875 74.21875 
Q 39.75 74.21875 46.484375 68.546875 
Q 53.21875 62.890625 53.21875 53.421875 
Q 53.21875 48.921875 51.53125 44.890625 
Q 49.859375 40.875 45.40625 35.40625 
Q 44.1875 33.984375 37.640625 27.21875 
Q 31.109375 20.453125 19.1875 8.296875 
z
" id="DejaVuSans-50"/>
        <path d="M 31.78125 66.40625 
Q 24.171875 66.40625 20.328125 58.90625 
Q 16.5 51.421875 16.5 36.375 
Q 16.5 21.390625 20.328125 13.890625 
Q 24.171875 6.390625 31.78125 6.390625 
Q 39.453125 6.390625 43.28125 13.890625 
Q 47.125 21.390625 47.125 36.375 
Q 47.125 51.421875 43.28125 58.90625 
Q 39.453125 66.40625 31.78125 66.40625 
z
M 31.78125 74.21875 
Q 44.046875 74.21875 50.515625 64.515625 
Q 56.984375 54.828125 56.984375 36.375 
Q 56.984375 17.96875 50.515625 8.265625 
Q 44.046875 -1.421875 31.78125 -1.421875 
Q 19.53125 -1.421875 13.0625 8.265625 
Q 6.59375 17.96875 6.59375 36.375 
Q 6.59375 54.828125 13.0625 64.515625 
Q 19.53125 74.21875 31.78125 74.21875 
z
" id="DejaVuSans-48"/>
       </defs>
       <use xlink:href="#DejaVuSans-50"/>
       <use x="63.623047" xlink:href="#DejaVuSans-48"/>
      </g>
     </g>
    </g>
    <g id="ytick_2">
     <g id="line2d_4">
      <g>
       <use style="stroke:#000000;stroke-width:0.8;" x="54" xlink:href="#m4fc44670ab" y="196.65924"/>
      </g>
     </g>
     <g id="text_5">
      <!-- 25 -->
      <g transform="translate(34.275 200.458459)scale(0.1 -0.1)">
       <defs>
        <path d="M 10.796875 72.90625 
L 49.515625 72.90625 
L 49.515625 64.59375 
L 19.828125 64.59375 
L 19.828125 46.734375 
Q 21.96875 47.46875 24.109375 47.828125 
Q 26.265625 48.1875 28.421875 48.1875 
Q 40.625 48.1875 47.75 41.5 
Q 54.890625 34.8125 54.890625 23.390625 
Q 54.890625 11.625 47.5625 5.09375 
Q 40.234375 -1.421875 26.90625 -1.421875 
Q 22.3125 -1.421875 17.546875 -0.640625 
Q 12.796875 0.140625 7.71875 1.703125 
L 7.71875 11.625 
Q 12.109375 9.234375 16.796875 8.0625 
Q 21.484375 6.890625 26.703125 6.890625 
Q 35.15625 6.890625 40.078125 11.328125 
Q 45.015625 15.765625 45.015625 23.390625 
Q 45.015625 31 40.078125 35.4375 
Q 35.15625 39.890625 26.703125 39.890625 
Q 22.75 39.890625 18.8125 39.015625 
Q 14.890625 38.140625 10.796875 36.28125 
z
" id="DejaVuSans-53"/>
       </defs>
       <use xlink:href="#DejaVuSans-50"/>
       <use x="63.623047" xlink:href="#DejaVuSans-53"/>
      </g>
     </g>
    </g>
    <g id="ytick_3">
     <g id="line2d_5">
      <g>
       <use style="stroke:#000000;stroke-width:0.8;" x="54" xlink:href="#m4fc44670ab" y="167.985585"/>
      </g>
     </g>
     <g id="text_6">
      <!-- 30 -->
      <g transform="translate(34.275 171.784804)scale(0.1 -0.1)">
       <use xlink:href="#DejaVuSans-51"/>
       <use x="63.623047" xlink:href="#DejaVuSans-48"/>
      </g>
     </g>
    </g>
    <g id="ytick_4">
     <g id="line2d_6">
      <g>
       <use style="stroke:#000000;stroke-width:0.8;" x="54" xlink:href="#m4fc44670ab" y="139.31193"/>
      </g>
     </g>
     <g id="text_7">
      <!-- 35 -->
      <g transform="translate(34.275 143.111149)scale(0.1 -0.1)">
       <use xlink:href="#DejaVuSans-51"/>
       <use x="63.623047" xlink:href="#DejaVuSans-53"/>
      </g>
     </g>
    </g>
    <g id="ytick_5">
     <g id="line2d_7">
      <g>
       <use style="stroke:#000000;stroke-width:0.8;" x="54" xlink:href="#m4fc44670ab" y="110.638275"/>
      </g>
     </g>
     <g id="text_8">
      <!-- 40 -->
      <g transform="translate(34.275 114.437494)scale(0.1 -0.1)">
       <defs>
        <path d="M 37.796875 64.3125 
L 12.890625 25.390625 
L 37.796875 25.390625 
z
M 35.203125 72.90625 
L 47.609375 72.90625 
L 47.609375 25.390625 
L 58.015625 25.390625 
L 58.015625 17.1875 
L 47.609375 17.1875 
L 47.609375 0 
L 37.796875 0 
L 37.796875 17.1875 
L 4.890625 17.1875 
L 4.890625 26.703125 
z
" id="DejaVuSans-52"/>
       </defs>
       <use xlink:href="#DejaVuSans-52"/>
       <use x="63.623047" xlink:href="#DejaVuSans-48"/>
      </g>
     </g>
    </g>
    <g id="ytick_6">
     <g id="line2d_8">
      <g>
       <use style="stroke:#000000;stroke-width:0.8;" x="54" xlink:href="#m4fc44670ab" y="81.964621"/>
      </g>
     </g>
     <g id="text_9">
      <!-- 45 -->
      <g transform="translate(34.275 85.763839)scale(0.1 -0.1)">
       <use xlink:href="#DejaVuSans-52"/>
       <use x="63.623047" xlink:href="#DejaVuSans-53"/>
      </g>
     </g>
    </g>
    <g id="ytick_7">
     <g id="line2d_9">
      <g>
       <use style="stroke:#000000;stroke-width:0.8;" x="54" xlink:href="#m4fc44670ab" y="53.290966"/>
      </g>
     </g>
     <g id="text_10">
      <!-- 50 -->
      <g transform="translate(34.275 57.090184)scale(0.1 -0.1)">
       <use xlink:href="#DejaVuSans-53"/>
       <use x="63.623047" xlink:href="#DejaVuSans-48"/>
      </g>
     </g>
    </g>
    <g id="text_11">
     <!-- value -->
     <g transform="translate(28.195312 156.937813)rotate(-90)scale(0.1 -0.1)">
      <defs>
       <path d="M 2.984375 54.6875 
L 12.5 54.6875 
L 29.59375 8.796875 
L 46.6875 54.6875 
L 56.203125 54.6875 
L 35.6875 0 
L 23.484375 0 
z
" id="DejaVuSans-118"/>
       <path d="M 34.28125 27.484375 
Q 23.390625 27.484375 19.1875 25 
Q 14.984375 22.515625 14.984375 16.5 
Q 14.984375 11.71875 18.140625 8.90625 
Q 21.296875 6.109375 26.703125 6.109375 
Q 34.1875 6.109375 38.703125 11.40625 
Q 43.21875 16.703125 43.21875 25.484375 
L 43.21875 27.484375 
z
M 52.203125 31.203125 
L 52.203125 0 
L 43.21875 0 
L 43.21875 8.296875 
Q 40.140625 3.328125 35.546875 0.953125 
Q 30.953125 -1.421875 24.3125 -1.421875 
Q 15.921875 -1.421875 10.953125 3.296875 
Q 6 8.015625 6 15.921875 
Q 6 25.140625 12.171875 29.828125 
Q 18.359375 34.515625 30.609375 34.515625 
L 43.21875 34.515625 
L 43.21875 35.40625 
Q 43.21875 41.609375 39.140625 45 
Q 35.0625 48.390625 27.6875 48.390625 
Q 23 48.390625 18.546875 47.265625 
Q 14.109375 46.140625 10.015625 43.890625 
L 10.015625 52.203125 
Q 14.9375 54.109375 19.578125 55.046875 
Q 24.21875 56 28.609375 56 
Q 40.484375 56 46.34375 49.84375 
Q 52.203125 43.703125 52.203125 31.203125 
z
" id="DejaVuSans-97"/>
       <path d="M 9.421875 75.984375 
L 18.40625 75.984375 
L 18.40625 0 
L 9.421875 0 
z
" id="DejaVuSans-108"/>
       <path d="M 8.5 21.578125 
L 8.5 54.6875 
L 17.484375 54.6875 
L 17.484375 21.921875 
Q 17.484375 14.15625 20.5 10.265625 
Q 23.53125 6.390625 29.59375 6.390625 
Q 36.859375 6.390625 41.078125 11.03125 
Q 45.3125 15.671875 45.3125 23.6875 
L 45.3125 54.6875 
L 54.296875 54.6875 
L 54.296875 0 
L 45.3125 0 
L 45.3125 8.40625 
Q 42.046875 3.421875 37.71875 1 
Q 33.40625 -1.421875 27.6875 -1.421875 
Q 18.265625 -1.421875 13.375 4.4375 
Q 8.5 10.296875 8.5 21.578125 
z
M 31.109375 56 
z
" id="DejaVuSans-117"/>
      </defs>
      <use xlink:href="#DejaVuSans-118"/>
      <use x="59.179688" xlink:href="#DejaVuSans-97"/>
      <use x="120.458984" xlink:href="#DejaVuSans-108"/>
      <use x="148.242188" xlink:href="#DejaVuSans-117"/>
      <use x="211.621094" xlink:href="#DejaVuSans-101"/>
     </g>
    </g>
   </g>
   <g id="line2d_10">
    <path clip-path="url(#p097461a9fb)" d="M 104.22 173.034922 
L 104.22 52.385967 
" style="fill:none;stroke:#3f3f3f;stroke-linecap:square;stroke-width:1.5;"/>
   </g>
   <g id="line2d_11">
    <path clip-path="url(#p097461a9fb)" d="M 104.22 119.650289 
L 104.22 83.964308 
" style="fill:none;stroke:#3f3f3f;stroke-linecap:square;stroke-width:4.5;"/>
   </g>
   <g id="line2d_12">
    <path clip-path="url(#p097461a9fb)" d="M 338.58 144.460771 
L 338.58 44.443636 
" style="fill:none;stroke:#3f3f3f;stroke-linecap:square;stroke-width:1.5;"/>
   </g>
   <g id="line2d_13">
    <path clip-path="url(#p097461a9fb)" d="M 338.58 103.872987 
L 338.58 76.458026 
" style="fill:none;stroke:#3f3f3f;stroke-linecap:square;stroke-width:4.5;"/>
   </g>
   <g id="patch_5">
    <path d="M 54 252 
L 54 34.56 
" style="fill:none;stroke:#000000;stroke-linecap:square;stroke-linejoin:miter;stroke-width:0.8;"/>
   </g>
   <g id="patch_6">
    <path d="M 388.8 252 
L 388.8 34.56 
" style="fill:none;stroke:#000000;stroke-linecap:square;stroke-linejoin:miter;stroke-width:0.8;"/>
   </g>
   <g id="patch_7">
    <path d="M 54 252 
L 388.8 252 
" style="fill:none;stroke:#000000;stroke-linecap:square;stroke-linejoin:miter;stroke-width:0.8;"/>
   </g>
   <g id="patch_8">
    <path d="M 54 34.56 
L 388.8 34.56 
" style="fill:none;stroke:#000000;stroke-linecap:square;stroke-linejoin:miter;stroke-width:0.8;"/>
   </g>
   <g id="PathCollection_1">
    <defs>
     <path d="M 0 1.5 
C 0.397805 1.5 0.77937 1.341951 1.06066 1.06066 
C 1.341951 0.77937 1.5 0.397805 1.5 0 
C 1.5 -0.397805 1.341951 -0.77937 1.06066 -1.06066 
C 0.77937 -1.341951 0.397805 -1.5 0 -1.5 
C -0.397805 -1.5 -0.77937 -1.341951 -1.06066 -1.06066 
C -1.341951 -0.77937 -1.5 -0.397805 -1.5 0 
C -1.5 0.397805 -1.341951 0.77937 -1.06066 1.06066 
C -0.77937 1.341951 -0.397805 1.5 0 1.5 
z
" id="m8014cb3c98" style="stroke:#3f3f3f;"/>
    </defs>
    <g clip-path="url(#p097461a9fb)">
     <use style="fill:#ffffff;stroke:#3f3f3f;" x="104.22" xlink:href="#m8014cb3c98" y="97.987386"/>
    </g>
   </g>
   <g id="PathCollection_2">
    <g clip-path="url(#p097461a9fb)">
     <use style="fill:#ffffff;stroke:#3f3f3f;" x="338.58" xlink:href="#m8014cb3c98" y="88.123795"/>
    </g>
   </g>
   <g id="legend_1">
    <g id="patch_9">
     <path d="M 61 247 
L 127.759375 247 
Q 129.759375 247 129.759375 245 
L 129.759375 201.409375 
Q 129.759375 199.409375 127.759375 199.409375 
L 61 199.409375 
Q 59 199.409375 59 201.409375 
L 59 245 
Q 59 247 61 247 
z
" style="fill:#ffffff;opacity:0.8;stroke:#cccccc;stroke-linejoin:miter;"/>
    </g>
    <g id="text_12">
     <!-- set -->
     <g transform="translate(86.738281 211.007812)scale(0.1 -0.1)">
      <use xlink:href="#DejaVuSans-115"/>
      <use x="52.099609" xlink:href="#DejaVuSans-101"/>
      <use x="113.623047" xlink:href="#DejaVuSans-116"/>
     </g>
    </g>
    <g id="patch_10">
     <path d="M 63 225.685937 
L 83 225.685937 
L 83 218.685937 
L 63 218.685937 
z
" style="fill:#3274a1;stroke:#3f3f3f;stroke-linejoin:miter;stroke-width:0.75;"/>
    </g>
    <g id="text_13">
     <!-- Z_1_ns -->
     <g transform="translate(91 225.685937)scale(0.1 -0.1)">
      <use xlink:href="#DejaVuSans-90"/>
      <use x="68.505859" xlink:href="#DejaVuSans-95"/>
      <use x="118.505859" xlink:href="#DejaVuSans-49"/>
      <use x="182.128906" xlink:href="#DejaVuSans-95"/>
      <use x="232.128906" xlink:href="#DejaVuSans-110"/>
      <use x="295.507812" xlink:href="#DejaVuSans-115"/>
     </g>
    </g>
    <g id="patch_11">
     <path d="M 63 240.642188 
L 83 240.642188 
L 83 233.642188 
L 63 233.642188 
z
" style="fill:#e1812c;stroke:#3f3f3f;stroke-linejoin:miter;stroke-width:0.75;"/>
    </g>
    <g id="text_14">
     <!-- Z_3_ns -->
     <g transform="translate(91 240.642188)scale(0.1 -0.1)">
      <use xlink:href="#DejaVuSans-90"/>
      <use x="68.505859" xlink:href="#DejaVuSans-95"/>
      <use x="118.505859" xlink:href="#DejaVuSans-51"/>
      <use x="182.128906" xlink:href="#DejaVuSans-95"/>
      <use x="232.128906" xlink:href="#DejaVuSans-110"/>
      <use x="295.507812" xlink:href="#DejaVuSans-115"/>
     </g>
    </g>
   </g>
  </g>
 </g>
 <defs>
  <clipPath id="p097461a9fb">
   <rect height="217.44" width="334.8" x="54" y="34.56"/>
  </clipPath>
 </defs>
</svg>
