<?xml version="1.0" encoding="utf-8" standalone="no"?>
<!DOCTYPE svg PUBLIC "-//W3C//DTD SVG 1.1//EN"
  "http://www.w3.org/Graphics/SVG/1.1/DTD/svg11.dtd">
<!-- Created with matplotlib (https://matplotlib.org/) -->
<svg height="288pt" version="1.1" viewBox="0 0 432 288" width="432pt" xmlns="http://www.w3.org/2000/svg" xmlns:xlink="http://www.w3.org/1999/xlink">
 <metadata>
  <rdf:RDF xmlns:cc="http://creativecommons.org/ns#" xmlns:dc="http://purl.org/dc/elements/1.1/" xmlns:rdf="http://www.w3.org/1999/02/22-rdf-syntax-ns#">
   <cc:Work>
    <dc:type rdf:resource="http://purl.org/dc/dcmitype/StillImage"/>
    <dc:date>2022-04-15T22:22:32.543860</dc:date>
    <dc:format>image/svg+xml</dc:format>
    <dc:creator>
     <cc:Agent>
      <dc:title>Matplotlib v3.3.4, https://matplotlib.org/</dc:title>
     </cc:Agent>
    </dc:creator>
   </cc:Work>
  </rdf:RDF>
 </metadata>
 <defs>
  <style type="text/css">*{stroke-linecap:butt;stroke-linejoin:round;}</style>
 </defs>
 <g id="figure_1">
  <g id="patch_1">
   <path d="M 0 288 
L 432 288 
L 432 0 
L 0 0 
z
" style="fill:#ffffff;"/>
  </g>
  <g id="axes_1">
   <g id="patch_2">
    <path d="M 54 252 
L 388.8 252 
L 388.8 34.56 
L 54 34.56 
z
" style="fill:#ffffff;"/>
   </g>
   <g id="PolyCollection_1">
    <defs>
     <path d="M 104.435059 -66.399398 
L 104.004941 -66.399398 
L 103.952112 -68.030013 
L 103.899655 -69.660628 
L 103.849136 -71.291243 
L 103.800651 -72.921858 
L 103.752902 -74.552473 
L 103.703835 -76.183088 
L 103.651672 -77.813703 
L 103.595904 -79.444319 
L 103.537759 -81.074934 
L 103.479856 -82.705549 
L 103.425202 -84.336164 
L 103.376032 -85.966779 
L 103.333086 -87.597394 
L 103.295644 -89.228009 
L 103.262285 -90.858624 
L 103.231956 -92.48924 
L 103.204856 -94.119855 
L 103.182696 -95.75047 
L 103.168221 -97.381085 
L 103.164156 -99.0117 
L 103.171954 -100.642315 
L 103.190797 -102.27293 
L 103.217277 -103.903545 
L 103.245969 -105.534161 
L 103.270683 -107.164776 
L 103.285857 -108.795391 
L 103.287416 -110.426006 
L 103.272783 -112.056621 
L 103.240135 -113.687236 
L 103.187302 -115.317851 
L 103.110863 -116.948466 
L 103.005986 -118.579082 
L 102.867491 -120.209697 
L 102.692061 -121.840312 
L 102.480768 -123.470927 
L 102.240513 -125.101542 
L 101.983342 -126.732157 
L 101.723639 -128.362772 
L 101.474317 -129.993387 
L 101.243382 -131.624003 
L 101.031837 -133.254618 
L 100.833351 -134.885233 
L 100.63589 -136.515848 
L 100.425257 -138.146463 
L 100.189876 -139.777078 
L 99.925262 -141.407693 
L 99.636142 -143.038308 
L 99.334815 -144.668923 
L 99.035908 -146.299539 
L 98.749601 -147.930154 
L 98.476324 -149.560769 
L 98.205385 -151.191384 
L 97.918022 -152.821999 
L 97.593358 -154.452614 
L 97.21458 -156.083229 
L 96.772982 -157.713844 
L 96.268729 -159.34446 
L 95.70879 -160.975075 
L 95.103621 -162.60569 
L 94.464549 -164.236305 
L 93.802773 -165.86692 
L 93.129228 -167.497535 
L 92.45356 -169.12815 
L 91.781176 -170.758765 
L 91.109168 -172.389381 
L 90.42306 -174.019996 
L 89.696093 -175.650611 
L 88.892002 -177.281226 
L 87.971939 -178.911841 
L 86.905369 -180.542456 
L 85.682208 -182.173071 
L 84.320441 -183.803686 
L 82.863547 -185.434302 
L 81.367134 -187.064917 
L 79.881298 -188.695532 
L 78.438408 -190.326147 
L 77.052399 -191.956762 
L 75.728164 -193.587377 
L 74.474389 -195.217992 
L 73.31362 -196.848607 
L 72.287611 -198.479223 
L 71.459181 -200.109838 
L 70.911126 -201.740453 
L 70.74 -203.371068 
L 71.042053 -205.001683 
L 71.892347 -206.632298 
L 73.323364 -208.262913 
L 75.311628 -209.893528 
L 77.777865 -211.524144 
L 80.600002 -213.154759 
L 83.633221 -214.785374 
L 86.730016 -216.415989 
L 89.755407 -218.046604 
L 92.596035 -219.677219 
L 95.164447 -221.307834 
L 97.400649 -222.938449 
L 99.272346 -224.569065 
L 100.774127 -226.19968 
L 101.925069 -227.830295 
L 106.514931 -227.830295 
L 106.514931 -227.830295 
L 107.665873 -226.19968 
L 109.167654 -224.569065 
L 111.039351 -222.938449 
L 113.275553 -221.307834 
L 115.843965 -219.677219 
L 118.684593 -218.046604 
L 121.709984 -216.415989 
L 124.806779 -214.785374 
L 127.839998 -213.154759 
L 130.662135 -211.524144 
L 133.128372 -209.893528 
L 135.116636 -208.262913 
L 136.547653 -206.632298 
L 137.397947 -205.001683 
L 137.7 -203.371068 
L 137.528874 -201.740453 
L 136.980819 -200.109838 
L 136.152389 -198.479223 
L 135.12638 -196.848607 
L 133.965611 -195.217992 
L 132.711836 -193.587377 
L 131.387601 -191.956762 
L 130.001592 -190.326147 
L 128.558702 -188.695532 
L 127.072866 -187.064917 
L 125.576453 -185.434302 
L 124.119559 -183.803686 
L 122.757792 -182.173071 
L 121.534631 -180.542456 
L 120.468061 -178.911841 
L 119.547998 -177.281226 
L 118.743907 -175.650611 
L 118.01694 -174.019996 
L 117.330832 -172.389381 
L 116.658824 -170.758765 
L 115.98644 -169.12815 
L 115.310772 -167.497535 
L 114.637227 -165.86692 
L 113.975451 -164.236305 
L 113.336379 -162.60569 
L 112.73121 -160.975075 
L 112.171271 -159.34446 
L 111.667018 -157.713844 
L 111.22542 -156.083229 
L 110.846642 -154.452614 
L 110.521978 -152.821999 
L 110.234615 -151.191384 
L 109.963676 -149.560769 
L 109.690399 -147.930154 
L 109.404092 -146.299539 
L 109.105185 -144.668923 
L 108.803858 -143.038308 
L 108.514738 -141.407693 
L 108.250124 -139.777078 
L 108.014743 -138.146463 
L 107.80411 -136.515848 
L 107.606649 -134.885233 
L 107.408163 -133.254618 
L 107.196618 -131.624003 
L 106.965683 -129.993387 
L 106.716361 -128.362772 
L 106.456658 -126.732157 
L 106.199487 -125.101542 
L 105.959232 -123.470927 
L 105.747939 -121.840312 
L 105.572509 -120.209697 
L 105.434014 -118.579082 
L 105.329137 -116.948466 
L 105.252698 -115.317851 
L 105.199865 -113.687236 
L 105.167217 -112.056621 
L 105.152584 -110.426006 
L 105.154143 -108.795391 
L 105.169317 -107.164776 
L 105.194031 -105.534161 
L 105.222723 -103.903545 
L 105.249203 -102.27293 
L 105.268046 -100.642315 
L 105.275844 -99.0117 
L 105.271779 -97.381085 
L 105.257304 -95.75047 
L 105.235144 -94.119855 
L 105.208044 -92.48924 
L 105.177715 -90.858624 
L 105.144356 -89.228009 
L 105.106914 -87.597394 
L 105.063968 -85.966779 
L 105.014798 -84.336164 
L 104.960144 -82.705549 
L 104.902241 -81.074934 
L 104.844096 -79.444319 
L 104.788328 -77.813703 
L 104.736165 -76.183088 
L 104.687098 -74.552473 
L 104.639349 -72.921858 
L 104.590864 -71.291243 
L 104.540345 -69.660628 
L 104.487888 -68.030013 
L 104.435059 -66.399398 
z
" id="m60670a0f26" style="stroke:#3f3f3f;stroke-width:1.5;"/>
    </defs>
    <g clip-path="url(#pb9f49b7e4b)">
     <use style="fill:#3274a1;stroke:#3f3f3f;stroke-width:1.5;" x="0" xlink:href="#m60670a0f26" y="288"/>
    </g>
   </g>
   <g id="PolyCollection_2">
    <defs>
     <path d="M 338.619298 -45.883636 
L 338.540702 -45.883636 
L 338.544323 -47.880331 
L 338.553304 -49.877025 
L 338.563526 -51.873719 
L 338.571569 -53.870413 
L 338.576214 -55.867107 
L 338.577772 -57.863802 
L 338.576622 -59.860496 
L 338.572465 -61.85719 
L 338.564882 -63.853884 
L 338.554735 -65.850579 
L 338.544986 -67.847273 
L 338.539361 -69.843967 
L 338.539264 -71.840661 
L 338.541894 -73.837355 
L 338.541905 -75.83405 
L 338.535257 -77.830744 
L 338.521546 -79.827438 
L 338.50311 -81.824132 
L 338.482654 -83.820826 
L 338.461463 -85.817521 
L 338.438413 -87.814215 
L 338.410247 -89.810909 
L 338.374681 -91.807603 
L 338.334744 -93.804298 
L 338.298794 -95.800992 
L 338.274434 -97.797686 
L 338.262599 -99.79438 
L 338.257772 -101.791074 
L 338.252285 -103.787769 
L 338.239601 -105.784463 
L 338.21588 -107.781157 
L 338.181097 -109.777851 
L 338.138539 -111.774545 
L 338.092159 -113.77124 
L 338.044791 -115.767934 
L 337.998965 -117.764628 
L 337.957113 -119.761322 
L 337.918478 -121.758017 
L 337.876191 -123.754711 
L 337.820309 -125.751405 
L 337.746218 -127.748099 
L 337.659742 -129.744793 
L 337.572102 -131.741488 
L 337.490096 -133.738182 
L 337.413251 -135.734876 
L 337.339215 -137.73157 
L 337.266376 -139.728264 
L 337.1884 -141.724959 
L 337.089923 -143.721653 
L 336.951738 -145.718347 
L 336.760793 -147.715041 
L 336.517789 -149.711736 
L 336.241781 -151.70843 
L 335.968716 -153.705124 
L 335.736098 -155.701818 
L 335.556628 -157.698512 
L 335.398519 -159.695207 
L 335.189445 -161.691901 
L 334.847944 -163.688595 
L 334.329332 -165.685289 
L 333.656283 -167.681983 
L 332.906717 -169.678678 
L 332.16606 -171.675372 
L 331.483148 -173.672066 
L 330.859777 -175.66876 
L 330.269218 -177.665455 
L 329.67865 -179.662149 
L 329.055497 -181.658843 
L 328.358262 -183.655537 
L 327.530341 -185.652231 
L 326.50828 -187.648926 
L 325.234482 -189.64562 
L 323.665992 -191.642314 
L 321.788813 -193.639008 
L 319.638735 -195.635702 
L 317.306266 -197.632397 
L 314.912266 -199.629091 
L 312.573454 -201.625785 
L 310.386463 -203.622479 
L 308.438793 -205.619174 
L 306.830146 -207.615868 
L 305.678384 -209.612562 
L 305.1 -211.609256 
L 305.182145 -213.60595 
L 305.969292 -215.602645 
L 307.466198 -217.599339 
L 309.641518 -219.596033 
L 312.421965 -221.592727 
L 315.680365 -223.589421 
L 319.229924 -225.586116 
L 322.840224 -227.58281 
L 326.278528 -229.579504 
L 329.355828 -231.576198 
L 331.951602 -233.572893 
L 334.014827 -235.569587 
L 335.556965 -237.566281 
L 336.64301 -239.562975 
L 337.372797 -241.559669 
L 337.851198 -243.556364 
L 339.308802 -243.556364 
L 339.308802 -243.556364 
L 339.787203 -241.559669 
L 340.51699 -239.562975 
L 341.603035 -237.566281 
L 343.145173 -235.569587 
L 345.208398 -233.572893 
L 347.804172 -231.576198 
L 350.881472 -229.579504 
L 354.319776 -227.58281 
L 357.930076 -225.586116 
L 361.479635 -223.589421 
L 364.738035 -221.592727 
L 367.518482 -219.596033 
L 369.693802 -217.599339 
L 371.190708 -215.602645 
L 371.977855 -213.60595 
L 372.06 -211.609256 
L 371.481616 -209.612562 
L 370.329854 -207.615868 
L 368.721207 -205.619174 
L 366.773537 -203.622479 
L 364.586546 -201.625785 
L 362.247734 -199.629091 
L 359.853734 -197.632397 
L 357.521265 -195.635702 
L 355.371187 -193.639008 
L 353.494008 -191.642314 
L 351.925518 -189.64562 
L 350.65172 -187.648926 
L 349.629659 -185.652231 
L 348.801738 -183.655537 
L 348.104503 -181.658843 
L 347.48135 -179.662149 
L 346.890782 -177.665455 
L 346.300223 -175.66876 
L 345.676852 -173.672066 
L 344.99394 -171.675372 
L 344.253283 -169.678678 
L 343.503717 -167.681983 
L 342.830668 -165.685289 
L 342.312056 -163.688595 
L 341.970555 -161.691901 
L 341.761481 -159.695207 
L 341.603372 -157.698512 
L 341.423902 -155.701818 
L 341.191284 -153.705124 
L 340.918219 -151.70843 
L 340.642211 -149.711736 
L 340.399207 -147.715041 
L 340.208262 -145.718347 
L 340.070077 -143.721653 
L 339.9716 -141.724959 
L 339.893624 -139.728264 
L 339.820785 -137.73157 
L 339.746749 -135.734876 
L 339.669904 -133.738182 
L 339.587898 -131.741488 
L 339.500258 -129.744793 
L 339.413782 -127.748099 
L 339.339691 -125.751405 
L 339.283809 -123.754711 
L 339.241522 -121.758017 
L 339.202887 -119.761322 
L 339.161035 -117.764628 
L 339.115209 -115.767934 
L 339.067841 -113.77124 
L 339.021461 -111.774545 
L 338.978903 -109.777851 
L 338.94412 -107.781157 
L 338.920399 -105.784463 
L 338.907715 -103.787769 
L 338.902228 -101.791074 
L 338.897401 -99.79438 
L 338.885566 -97.797686 
L 338.861206 -95.800992 
L 338.825256 -93.804298 
L 338.785319 -91.807603 
L 338.749753 -89.810909 
L 338.721587 -87.814215 
L 338.698537 -85.817521 
L 338.677346 -83.820826 
L 338.65689 -81.824132 
L 338.638454 -79.827438 
L 338.624743 -77.830744 
L 338.618095 -75.83405 
L 338.618106 -73.837355 
L 338.620736 -71.840661 
L 338.620639 -69.843967 
L 338.615014 -67.847273 
L 338.605265 -65.850579 
L 338.595118 -63.853884 
L 338.587535 -61.85719 
L 338.583378 -59.860496 
L 338.582228 -57.863802 
L 338.583786 -55.867107 
L 338.588431 -53.870413 
L 338.596474 -51.873719 
L 338.606696 -49.877025 
L 338.615677 -47.880331 
L 338.619298 -45.883636 
z
" id="mf412ae3b8b" style="stroke:#3f3f3f;stroke-width:1.5;"/>
    </defs>
    <g clip-path="url(#pb9f49b7e4b)">
     <use style="fill:#e1812c;stroke:#3f3f3f;stroke-width:1.5;" x="0" xlink:href="#mf412ae3b8b" y="288"/>
    </g>
   </g>
   <g id="patch_3">
    <path clip-path="url(#pb9f49b7e4b)" d="M 137.7 235.174073 
L 137.7 235.174073 
L 137.7 235.174073 
L 137.7 235.174073 
z
" style="fill:#3274a1;stroke:#3f3f3f;stroke-linejoin:miter;stroke-width:0.75;"/>
   </g>
   <g id="patch_4">
    <path clip-path="url(#pb9f49b7e4b)" d="M 137.7 235.174073 
L 137.7 235.174073 
L 137.7 235.174073 
L 137.7 235.174073 
z
" style="fill:#e1812c;stroke:#3f3f3f;stroke-linejoin:miter;stroke-width:0.75;"/>
   </g>
   <g id="matplotlib.axis_1">
    <g id="xtick_1">
     <g id="line2d_1">
      <defs>
       <path d="M 0 0 
L 0 3.5 
" id="mb71521bf7c" style="stroke:#000000;stroke-width:0.8;"/>
      </defs>
      <g>
       <use style="stroke:#000000;stroke-width:0.8;" x="137.7" xlink:href="#mb71521bf7c" y="252"/>
      </g>
     </g>
     <g id="text_1">
      <!-- Z_2_ns -->
      <g transform="translate(120.320312 266.421875)scale(0.1 -0.1)">
       <defs>
        <path d="M 5.609375 72.90625 
L 62.890625 72.90625 
L 62.890625 65.375 
L 16.796875 8.296875 
L 64.015625 8.296875 
L 64.015625 0 
L 4.5 0 
L 4.5 7.515625 
L 50.59375 64.59375 
L 5.609375 64.59375 
z
" id="DejaVuSans-90"/>
        <path d="M 50.984375 -16.609375 
L 50.984375 -23.578125 
L -0.984375 -23.578125 
L -0.984375 -16.609375 
z
" id="DejaVuSans-95"/>
        <path d="M 19.1875 8.296875 
L 53.609375 8.296875 
L 53.609375 0 
L 7.328125 0 
L 7.328125 8.296875 
Q 12.9375 14.109375 22.625 23.890625 
Q 32.328125 33.6875 34.8125 36.53125 
Q 39.546875 41.84375 41.421875 45.53125 
Q 43.3125 49.21875 43.3125 52.78125 
Q 43.3125 58.59375 39.234375 62.25 
Q 35.15625 65.921875 28.609375 65.921875 
Q 23.96875 65.921875 18.8125 64.3125 
Q 13.671875 62.703125 7.8125 59.421875 
L 7.8125 69.390625 
Q 13.765625 71.78125 18.9375 73 
Q 24.125 74.21875 28.421875 74.21875 
Q 39.75 74.21875 46.484375 68.546875 
Q 53.21875 62.890625 53.21875 53.421875 
Q 53.21875 48.921875 51.53125 44.890625 
Q 49.859375 40.875 45.40625 35.40625 
Q 44.1875 33.984375 37.640625 27.21875 
Q 31.109375 20.453125 19.1875 8.296875 
z
" id="DejaVuSans-50"/>
        <path d="M 54.890625 33.015625 
L 54.890625 0 
L 45.90625 0 
L 45.90625 32.71875 
Q 45.90625 40.484375 42.875 44.328125 
Q 39.84375 48.1875 33.796875 48.1875 
Q 26.515625 48.1875 22.3125 43.546875 
Q 18.109375 38.921875 18.109375 30.90625 
L 18.109375 0 
L 9.078125 0 
L 9.078125 54.6875 
L 18.109375 54.6875 
L 18.109375 46.1875 
Q 21.34375 51.125 25.703125 53.5625 
Q 30.078125 56 35.796875 56 
Q 45.21875 56 50.046875 50.171875 
Q 54.890625 44.34375 54.890625 33.015625 
z
" id="DejaVuSans-110"/>
        <path d="M 44.28125 53.078125 
L 44.28125 44.578125 
Q 40.484375 46.53125 36.375 47.5 
Q 32.28125 48.484375 27.875 48.484375 
Q 21.1875 48.484375 17.84375 46.4375 
Q 14.5 44.390625 14.5 40.28125 
Q 14.5 37.15625 16.890625 35.375 
Q 19.28125 33.59375 26.515625 31.984375 
L 29.59375 31.296875 
Q 39.15625 29.25 43.1875 25.515625 
Q 47.21875 21.78125 47.21875 15.09375 
Q 47.21875 7.46875 41.1875 3.015625 
Q 35.15625 -1.421875 24.609375 -1.421875 
Q 20.21875 -1.421875 15.453125 -0.5625 
Q 10.6875 0.296875 5.421875 2 
L 5.421875 11.28125 
Q 10.40625 8.6875 15.234375 7.390625 
Q 20.0625 6.109375 24.8125 6.109375 
Q 31.15625 6.109375 34.5625 8.28125 
Q 37.984375 10.453125 37.984375 14.40625 
Q 37.984375 18.0625 35.515625 20.015625 
Q 33.0625 21.96875 24.703125 23.78125 
L 21.578125 24.515625 
Q 13.234375 26.265625 9.515625 29.90625 
Q 5.8125 33.546875 5.8125 39.890625 
Q 5.8125 47.609375 11.28125 51.796875 
Q 16.75 56 26.8125 56 
Q 31.78125 56 36.171875 55.265625 
Q 40.578125 54.546875 44.28125 53.078125 
z
" id="DejaVuSans-115"/>
       </defs>
       <use xlink:href="#DejaVuSans-90"/>
       <use x="68.505859" xlink:href="#DejaVuSans-95"/>
       <use x="118.505859" xlink:href="#DejaVuSans-50"/>
       <use x="182.128906" xlink:href="#DejaVuSans-95"/>
       <use x="232.128906" xlink:href="#DejaVuSans-110"/>
       <use x="295.507812" xlink:href="#DejaVuSans-115"/>
      </g>
     </g>
    </g>
    <g id="xtick_2">
     <g id="line2d_2">
      <g>
       <use style="stroke:#000000;stroke-width:0.8;" x="305.1" xlink:href="#mb71521bf7c" y="252"/>
      </g>
     </g>
     <g id="text_2">
      <!-- Z_3_ns -->
      <g transform="translate(287.720313 266.421875)scale(0.1 -0.1)">
       <defs>
        <path d="M 40.578125 39.3125 
Q 47.65625 37.796875 51.625 33 
Q 55.609375 28.21875 55.609375 21.1875 
Q 55.609375 10.40625 48.1875 4.484375 
Q 40.765625 -1.421875 27.09375 -1.421875 
Q 22.515625 -1.421875 17.65625 -0.515625 
Q 12.796875 0.390625 7.625 2.203125 
L 7.625 11.71875 
Q 11.71875 9.328125 16.59375 8.109375 
Q 21.484375 6.890625 26.8125 6.890625 
Q 36.078125 6.890625 40.9375 10.546875 
Q 45.796875 14.203125 45.796875 21.1875 
Q 45.796875 27.640625 41.28125 31.265625 
Q 36.765625 34.90625 28.71875 34.90625 
L 20.21875 34.90625 
L 20.21875 43.015625 
L 29.109375 43.015625 
Q 36.375 43.015625 40.234375 45.921875 
Q 44.09375 48.828125 44.09375 54.296875 
Q 44.09375 59.90625 40.109375 62.90625 
Q 36.140625 65.921875 28.71875 65.921875 
Q 24.65625 65.921875 20.015625 65.03125 
Q 15.375 64.15625 9.8125 62.3125 
L 9.8125 71.09375 
Q 15.4375 72.65625 20.34375 73.4375 
Q 25.25 74.21875 29.59375 74.21875 
Q 40.828125 74.21875 47.359375 69.109375 
Q 53.90625 64.015625 53.90625 55.328125 
Q 53.90625 49.265625 50.4375 45.09375 
Q 46.96875 40.921875 40.578125 39.3125 
z
" id="DejaVuSans-51"/>
       </defs>
       <use xlink:href="#DejaVuSans-90"/>
       <use x="68.505859" xlink:href="#DejaVuSans-95"/>
       <use x="118.505859" xlink:href="#DejaVuSans-51"/>
       <use x="182.128906" xlink:href="#DejaVuSans-95"/>
       <use x="232.128906" xlink:href="#DejaVuSans-110"/>
       <use x="295.507812" xlink:href="#DejaVuSans-115"/>
      </g>
     </g>
    </g>
    <g id="text_3">
     <!-- set -->
     <g transform="translate(213.758594 280.378125)scale(0.1 -0.1)">
      <defs>
       <path d="M 56.203125 29.59375 
L 56.203125 25.203125 
L 14.890625 25.203125 
Q 15.484375 15.921875 20.484375 11.0625 
Q 25.484375 6.203125 34.421875 6.203125 
Q 39.59375 6.203125 44.453125 7.46875 
Q 49.3125 8.734375 54.109375 11.28125 
L 54.109375 2.78125 
Q 49.265625 0.734375 44.1875 -0.34375 
Q 39.109375 -1.421875 33.890625 -1.421875 
Q 20.796875 -1.421875 13.15625 6.1875 
Q 5.515625 13.8125 5.515625 26.8125 
Q 5.515625 40.234375 12.765625 48.109375 
Q 20.015625 56 32.328125 56 
Q 43.359375 56 49.78125 48.890625 
Q 56.203125 41.796875 56.203125 29.59375 
z
M 47.21875 32.234375 
Q 47.125 39.59375 43.09375 43.984375 
Q 39.0625 48.390625 32.421875 48.390625 
Q 24.90625 48.390625 20.390625 44.140625 
Q 15.875 39.890625 15.1875 32.171875 
z
" id="DejaVuSans-101"/>
       <path d="M 18.3125 70.21875 
L 18.3125 54.6875 
L 36.8125 54.6875 
L 36.8125 47.703125 
L 18.3125 47.703125 
L 18.3125 18.015625 
Q 18.3125 11.328125 20.140625 9.421875 
Q 21.96875 7.515625 27.59375 7.515625 
L 36.8125 7.515625 
L 36.8125 0 
L 27.59375 0 
Q 17.1875 0 13.234375 3.875 
Q 9.28125 7.765625 9.28125 18.015625 
L 9.28125 47.703125 
L 2.6875 47.703125 
L 2.6875 54.6875 
L 9.28125 54.6875 
L 9.28125 70.21875 
z
" id="DejaVuSans-116"/>
      </defs>
      <use xlink:href="#DejaVuSans-115"/>
      <use x="52.099609" xlink:href="#DejaVuSans-101"/>
      <use x="113.623047" xlink:href="#DejaVuSans-116"/>
     </g>
    </g>
   </g>
   <g id="matplotlib.axis_2">
    <g id="ytick_1">
     <g id="line2d_3">
      <defs>
       <path d="M 0 0 
L -3.5 0 
" id="m725bf21a09" style="stroke:#000000;stroke-width:0.8;"/>
      </defs>
      <g>
       <use style="stroke:#000000;stroke-width:0.8;" x="54" xlink:href="#m725bf21a09" y="235.174073"/>
      </g>
     </g>
     <g id="text_4">
      <!-- 0 -->
      <g transform="translate(40.6375 238.973292)scale(0.1 -0.1)">
       <defs>
        <path d="M 31.78125 66.40625 
Q 24.171875 66.40625 20.328125 58.90625 
Q 16.5 51.421875 16.5 36.375 
Q 16.5 21.390625 20.328125 13.890625 
Q 24.171875 6.390625 31.78125 6.390625 
Q 39.453125 6.390625 43.28125 13.890625 
Q 47.125 21.390625 47.125 36.375 
Q 47.125 51.421875 43.28125 58.90625 
Q 39.453125 66.40625 31.78125 66.40625 
z
M 31.78125 74.21875 
Q 44.046875 74.21875 50.515625 64.515625 
Q 56.984375 54.828125 56.984375 36.375 
Q 56.984375 17.96875 50.515625 8.265625 
Q 44.046875 -1.421875 31.78125 -1.421875 
Q 19.53125 -1.421875 13.0625 8.265625 
Q 6.59375 17.96875 6.59375 36.375 
Q 6.59375 54.828125 13.0625 64.515625 
Q 19.53125 74.21875 31.78125 74.21875 
z
" id="DejaVuSans-48"/>
       </defs>
       <use xlink:href="#DejaVuSans-48"/>
      </g>
     </g>
    </g>
    <g id="ytick_2">
     <g id="line2d_4">
      <g>
       <use style="stroke:#000000;stroke-width:0.8;" x="54" xlink:href="#m725bf21a09" y="204.458631"/>
      </g>
     </g>
     <g id="text_5">
      <!-- 5 -->
      <g transform="translate(40.6375 208.25785)scale(0.1 -0.1)">
       <defs>
        <path d="M 10.796875 72.90625 
L 49.515625 72.90625 
L 49.515625 64.59375 
L 19.828125 64.59375 
L 19.828125 46.734375 
Q 21.96875 47.46875 24.109375 47.828125 
Q 26.265625 48.1875 28.421875 48.1875 
Q 40.625 48.1875 47.75 41.5 
Q 54.890625 34.8125 54.890625 23.390625 
Q 54.890625 11.625 47.5625 5.09375 
Q 40.234375 -1.421875 26.90625 -1.421875 
Q 22.3125 -1.421875 17.546875 -0.640625 
Q 12.796875 0.140625 7.71875 1.703125 
L 7.71875 11.625 
Q 12.109375 9.234375 16.796875 8.0625 
Q 21.484375 6.890625 26.703125 6.890625 
Q 35.15625 6.890625 40.078125 11.328125 
Q 45.015625 15.765625 45.015625 23.390625 
Q 45.015625 31 40.078125 35.4375 
Q 35.15625 39.890625 26.703125 39.890625 
Q 22.75 39.890625 18.8125 39.015625 
Q 14.890625 38.140625 10.796875 36.28125 
z
" id="DejaVuSans-53"/>
       </defs>
       <use xlink:href="#DejaVuSans-53"/>
      </g>
     </g>
    </g>
    <g id="ytick_3">
     <g id="line2d_5">
      <g>
       <use style="stroke:#000000;stroke-width:0.8;" x="54" xlink:href="#m725bf21a09" y="173.743189"/>
      </g>
     </g>
     <g id="text_6">
      <!-- 10 -->
      <g transform="translate(34.275 177.542407)scale(0.1 -0.1)">
       <defs>
        <path d="M 12.40625 8.296875 
L 28.515625 8.296875 
L 28.515625 63.921875 
L 10.984375 60.40625 
L 10.984375 69.390625 
L 28.421875 72.90625 
L 38.28125 72.90625 
L 38.28125 8.296875 
L 54.390625 8.296875 
L 54.390625 0 
L 12.40625 0 
z
" id="DejaVuSans-49"/>
       </defs>
       <use xlink:href="#DejaVuSans-49"/>
       <use x="63.623047" xlink:href="#DejaVuSans-48"/>
      </g>
     </g>
    </g>
    <g id="ytick_4">
     <g id="line2d_6">
      <g>
       <use style="stroke:#000000;stroke-width:0.8;" x="54" xlink:href="#m725bf21a09" y="143.027746"/>
      </g>
     </g>
     <g id="text_7">
      <!-- 15 -->
      <g transform="translate(34.275 146.826965)scale(0.1 -0.1)">
       <use xlink:href="#DejaVuSans-49"/>
       <use x="63.623047" xlink:href="#DejaVuSans-53"/>
      </g>
     </g>
    </g>
    <g id="ytick_5">
     <g id="line2d_7">
      <g>
       <use style="stroke:#000000;stroke-width:0.8;" x="54" xlink:href="#m725bf21a09" y="112.312304"/>
      </g>
     </g>
     <g id="text_8">
      <!-- 20 -->
      <g transform="translate(34.275 116.111523)scale(0.1 -0.1)">
       <use xlink:href="#DejaVuSans-50"/>
       <use x="63.623047" xlink:href="#DejaVuSans-48"/>
      </g>
     </g>
    </g>
    <g id="ytick_6">
     <g id="line2d_8">
      <g>
       <use style="stroke:#000000;stroke-width:0.8;" x="54" xlink:href="#m725bf21a09" y="81.596862"/>
      </g>
     </g>
     <g id="text_9">
      <!-- 25 -->
      <g transform="translate(34.275 85.39608)scale(0.1 -0.1)">
       <use xlink:href="#DejaVuSans-50"/>
       <use x="63.623047" xlink:href="#DejaVuSans-53"/>
      </g>
     </g>
    </g>
    <g id="ytick_7">
     <g id="line2d_9">
      <g>
       <use style="stroke:#000000;stroke-width:0.8;" x="54" xlink:href="#m725bf21a09" y="50.881419"/>
      </g>
     </g>
     <g id="text_10">
      <!-- 30 -->
      <g transform="translate(34.275 54.680638)scale(0.1 -0.1)">
       <use xlink:href="#DejaVuSans-51"/>
       <use x="63.623047" xlink:href="#DejaVuSans-48"/>
      </g>
     </g>
    </g>
    <g id="text_11">
     <!-- value -->
     <g transform="translate(28.195312 156.937813)rotate(-90)scale(0.1 -0.1)">
      <defs>
       <path d="M 2.984375 54.6875 
L 12.5 54.6875 
L 29.59375 8.796875 
L 46.6875 54.6875 
L 56.203125 54.6875 
L 35.6875 0 
L 23.484375 0 
z
" id="DejaVuSans-118"/>
       <path d="M 34.28125 27.484375 
Q 23.390625 27.484375 19.1875 25 
Q 14.984375 22.515625 14.984375 16.5 
Q 14.984375 11.71875 18.140625 8.90625 
Q 21.296875 6.109375 26.703125 6.109375 
Q 34.1875 6.109375 38.703125 11.40625 
Q 43.21875 16.703125 43.21875 25.484375 
L 43.21875 27.484375 
z
M 52.203125 31.203125 
L 52.203125 0 
L 43.21875 0 
L 43.21875 8.296875 
Q 40.140625 3.328125 35.546875 0.953125 
Q 30.953125 -1.421875 24.3125 -1.421875 
Q 15.921875 -1.421875 10.953125 3.296875 
Q 6 8.015625 6 15.921875 
Q 6 25.140625 12.171875 29.828125 
Q 18.359375 34.515625 30.609375 34.515625 
L 43.21875 34.515625 
L 43.21875 35.40625 
Q 43.21875 41.609375 39.140625 45 
Q 35.0625 48.390625 27.6875 48.390625 
Q 23 48.390625 18.546875 47.265625 
Q 14.109375 46.140625 10.015625 43.890625 
L 10.015625 52.203125 
Q 14.9375 54.109375 19.578125 55.046875 
Q 24.21875 56 28.609375 56 
Q 40.484375 56 46.34375 49.84375 
Q 52.203125 43.703125 52.203125 31.203125 
z
" id="DejaVuSans-97"/>
       <path d="M 9.421875 75.984375 
L 18.40625 75.984375 
L 18.40625 0 
L 9.421875 0 
z
" id="DejaVuSans-108"/>
       <path d="M 8.5 21.578125 
L 8.5 54.6875 
L 17.484375 54.6875 
L 17.484375 21.921875 
Q 17.484375 14.15625 20.5 10.265625 
Q 23.53125 6.390625 29.59375 6.390625 
Q 36.859375 6.390625 41.078125 11.03125 
Q 45.3125 15.671875 45.3125 23.6875 
L 45.3125 54.6875 
L 54.296875 54.6875 
L 54.296875 0 
L 45.3125 0 
L 45.3125 8.40625 
Q 42.046875 3.421875 37.71875 1 
Q 33.40625 -1.421875 27.6875 -1.421875 
Q 18.265625 -1.421875 13.375 4.4375 
Q 8.5 10.296875 8.5 21.578125 
z
M 31.109375 56 
z
" id="DejaVuSans-117"/>
      </defs>
      <use xlink:href="#DejaVuSans-118"/>
      <use x="59.179688" xlink:href="#DejaVuSans-97"/>
      <use x="120.458984" xlink:href="#DejaVuSans-108"/>
      <use x="148.242188" xlink:href="#DejaVuSans-117"/>
      <use x="211.621094" xlink:href="#DejaVuSans-101"/>
     </g>
    </g>
   </g>
   <g id="line2d_10">
    <path clip-path="url(#pb9f49b7e4b)" d="M 104.22 156.854482 
L 104.22 60.169705 
" style="fill:none;stroke:#3f3f3f;stroke-linecap:square;stroke-width:1.5;"/>
   </g>
   <g id="line2d_11">
    <path clip-path="url(#pb9f49b7e4b)" d="M 104.22 112.20872 
L 104.22 82.432472 
" style="fill:none;stroke:#3f3f3f;stroke-linecap:square;stroke-width:4.5;"/>
   </g>
   <g id="line2d_12">
    <path clip-path="url(#pb9f49b7e4b)" d="M 338.58 130.565955 
L 338.58 44.443636 
" style="fill:none;stroke:#3f3f3f;stroke-linecap:square;stroke-width:1.5;"/>
   </g>
   <g id="line2d_13">
    <path clip-path="url(#pb9f49b7e4b)" d="M 338.58 94.675595 
L 338.58 70.718372 
" style="fill:none;stroke:#3f3f3f;stroke-linecap:square;stroke-width:4.5;"/>
   </g>
   <g id="patch_5">
    <path d="M 54 252 
L 54 34.56 
" style="fill:none;stroke:#000000;stroke-linecap:square;stroke-linejoin:miter;stroke-width:0.8;"/>
   </g>
   <g id="patch_6">
    <path d="M 388.8 252 
L 388.8 34.56 
" style="fill:none;stroke:#000000;stroke-linecap:square;stroke-linejoin:miter;stroke-width:0.8;"/>
   </g>
   <g id="patch_7">
    <path d="M 54 252 
L 388.8 252 
" style="fill:none;stroke:#000000;stroke-linecap:square;stroke-linejoin:miter;stroke-width:0.8;"/>
   </g>
   <g id="patch_8">
    <path d="M 54 34.56 
L 388.8 34.56 
" style="fill:none;stroke:#000000;stroke-linecap:square;stroke-linejoin:miter;stroke-width:0.8;"/>
   </g>
   <g id="PathCollection_1">
    <defs>
     <path d="M 0 1.5 
C 0.397805 1.5 0.77937 1.341951 1.06066 1.06066 
C 1.341951 0.77937 1.5 0.397805 1.5 0 
C 1.5 -0.397805 1.341951 -0.77937 1.06066 -1.06066 
C 0.77937 -1.341951 0.397805 -1.5 0 -1.5 
C -0.397805 -1.5 -0.77937 -1.341951 -1.06066 -1.06066 
C -1.341951 -0.77937 -1.5 -0.397805 -1.5 0 
C -1.5 0.397805 -1.341951 0.77937 -1.06066 1.06066 
C -0.77937 1.341951 -0.397805 1.5 0 1.5 
z
" id="m3132d17b25" style="stroke:#3f3f3f;"/>
    </defs>
    <g clip-path="url(#pb9f49b7e4b)">
     <use style="fill:#ffffff;stroke:#3f3f3f;" x="104.22" xlink:href="#m3132d17b25" y="93.776953"/>
    </g>
   </g>
   <g id="PathCollection_2">
    <g clip-path="url(#pb9f49b7e4b)">
     <use style="fill:#ffffff;stroke:#3f3f3f;" x="338.58" xlink:href="#m3132d17b25" y="80.699081"/>
    </g>
   </g>
   <g id="legend_1">
    <g id="patch_9">
     <path d="M 61 247 
L 127.759375 247 
Q 129.759375 247 129.759375 245 
L 129.759375 201.409375 
Q 129.759375 199.409375 127.759375 199.409375 
L 61 199.409375 
Q 59 199.409375 59 201.409375 
L 59 245 
Q 59 247 61 247 
z
" style="fill:#ffffff;opacity:0.8;stroke:#cccccc;stroke-linejoin:miter;"/>
    </g>
    <g id="text_12">
     <!-- set -->
     <g transform="translate(86.738281 211.007812)scale(0.1 -0.1)">
      <use xlink:href="#DejaVuSans-115"/>
      <use x="52.099609" xlink:href="#DejaVuSans-101"/>
      <use x="113.623047" xlink:href="#DejaVuSans-116"/>
     </g>
    </g>
    <g id="patch_10">
     <path d="M 63 225.685937 
L 83 225.685937 
L 83 218.685937 
L 63 218.685937 
z
" style="fill:#3274a1;stroke:#3f3f3f;stroke-linejoin:miter;stroke-width:0.75;"/>
    </g>
    <g id="text_13">
     <!-- Z_2_ns -->
     <g transform="translate(91 225.685937)scale(0.1 -0.1)">
      <use xlink:href="#DejaVuSans-90"/>
      <use x="68.505859" xlink:href="#DejaVuSans-95"/>
      <use x="118.505859" xlink:href="#DejaVuSans-50"/>
      <use x="182.128906" xlink:href="#DejaVuSans-95"/>
      <use x="232.128906" xlink:href="#DejaVuSans-110"/>
      <use x="295.507812" xlink:href="#DejaVuSans-115"/>
     </g>
    </g>
    <g id="patch_11">
     <path d="M 63 240.642188 
L 83 240.642188 
L 83 233.642188 
L 63 233.642188 
z
" style="fill:#e1812c;stroke:#3f3f3f;stroke-linejoin:miter;stroke-width:0.75;"/>
    </g>
    <g id="text_14">
     <!-- Z_3_ns -->
     <g transform="translate(91 240.642188)scale(0.1 -0.1)">
      <use xlink:href="#DejaVuSans-90"/>
      <use x="68.505859" xlink:href="#DejaVuSans-95"/>
      <use x="118.505859" xlink:href="#DejaVuSans-51"/>
      <use x="182.128906" xlink:href="#DejaVuSans-95"/>
      <use x="232.128906" xlink:href="#DejaVuSans-110"/>
      <use x="295.507812" xlink:href="#DejaVuSans-115"/>
     </g>
    </g>
   </g>
  </g>
 </g>
 <defs>
  <clipPath id="pb9f49b7e4b">
   <rect height="217.44" width="334.8" x="54" y="34.56"/>
  </clipPath>
 </defs>
</svg>
