<?xml version="1.0" encoding="utf-8" standalone="no"?>
<!DOCTYPE svg PUBLIC "-//W3C//DTD SVG 1.1//EN"
  "http://www.w3.org/Graphics/SVG/1.1/DTD/svg11.dtd">
<!-- Created with matplotlib (https://matplotlib.org/) -->
<svg height="288pt" version="1.1" viewBox="0 0 432 288" width="432pt" xmlns="http://www.w3.org/2000/svg" xmlns:xlink="http://www.w3.org/1999/xlink">
 <metadata>
  <rdf:RDF xmlns:cc="http://creativecommons.org/ns#" xmlns:dc="http://purl.org/dc/elements/1.1/" xmlns:rdf="http://www.w3.org/1999/02/22-rdf-syntax-ns#">
   <cc:Work>
    <dc:type rdf:resource="http://purl.org/dc/dcmitype/StillImage"/>
    <dc:date>2022-07-16T11:51:05.301235</dc:date>
    <dc:format>image/svg+xml</dc:format>
    <dc:creator>
     <cc:Agent>
      <dc:title>Matplotlib v3.3.4, https://matplotlib.org/</dc:title>
     </cc:Agent>
    </dc:creator>
   </cc:Work>
  </rdf:RDF>
 </metadata>
 <defs>
  <style type="text/css">*{stroke-linecap:butt;stroke-linejoin:round;}</style>
 </defs>
 <g id="figure_1">
  <g id="patch_1">
   <path d="M 0 288 
L 432 288 
L 432 0 
L 0 0 
z
" style="fill:#ffffff;"/>
  </g>
  <g id="axes_1">
   <g id="patch_2">
    <path d="M 54 252 
L 388.8 252 
L 388.8 34.56 
L 54 34.56 
z
" style="fill:#ffffff;"/>
   </g>
   <g id="PolyCollection_1">
    <defs>
     <path d="M 80.063238 -80.995227 
L 80.016762 -80.995227 
L 80.018515 -82.53648 
L 80.022923 -84.077733 
L 80.027804 -85.618986 
L 80.030825 -87.16024 
L 80.030305 -88.701493 
L 80.025503 -90.242746 
L 80.016728 -91.783999 
L 80.005399 -93.325252 
L 79.993624 -94.866506 
L 79.983082 -96.407759 
L 79.973911 -97.949012 
L 79.964726 -99.490265 
L 79.954 -101.031518 
L 79.941739 -102.572772 
L 79.92998 -104.114025 
L 79.921579 -105.655278 
L 79.918019 -107.196531 
L 79.917835 -108.737785 
L 79.917111 -110.279038 
L 79.911981 -111.820291 
L 79.901236 -113.361544 
L 79.886886 -114.902797 
L 79.87245 -116.444051 
L 79.860646 -117.985304 
L 79.852101 -119.526557 
L 79.845446 -121.06781 
L 79.838438 -122.609063 
L 79.829537 -124.150317 
L 79.818941 -125.69157 
L 79.808162 -127.232823 
L 79.798405 -128.774076 
L 79.788824 -130.31533 
L 79.775682 -131.856583 
L 79.753413 -133.397836 
L 79.718433 -134.939089 
L 79.674018 -136.480342 
L 79.63136 -138.021596 
L 79.603346 -139.562849 
L 79.594626 -141.104102 
L 79.596335 -142.645355 
L 79.589757 -144.186608 
L 79.554991 -145.727862 
L 79.477888 -147.269115 
L 79.352926 -148.810368 
L 79.184128 -150.351621 
L 78.985126 -151.892875 
L 78.776135 -153.434128 
L 78.576155 -154.975381 
L 78.393816 -156.516634 
L 78.223413 -158.057887 
L 78.049495 -159.599141 
L 77.856597 -161.140394 
L 77.636578 -162.681647 
L 77.387887 -164.2229 
L 77.108038 -165.764154 
L 76.787812 -167.305407 
L 76.415041 -168.84666 
L 75.985213 -170.387913 
L 75.506464 -171.929166 
L 74.991545 -173.47042 
L 74.444776 -175.011673 
L 73.858618 -176.552926 
L 73.223163 -178.094179 
L 72.536959 -179.635432 
L 71.807681 -181.176686 
L 71.045029 -182.717939 
L 70.257381 -184.259192 
L 69.456867 -185.800445 
L 68.665139 -187.341699 
L 67.911495 -188.882952 
L 67.225398 -190.424205 
L 66.631193 -191.965458 
L 66.147839 -193.506711 
L 65.789984 -195.047965 
L 65.565833 -196.589218 
L 65.469852 -198.130471 
L 65.472698 -199.671724 
L 65.516817 -201.212977 
L 65.529279 -202.754231 
L 65.456097 -204.295484 
L 65.304151 -205.836737 
L 65.16 -207.37799 
L 65.160512 -208.919244 
L 65.425141 -210.460497 
L 65.996315 -212.00175 
L 66.831903 -213.543003 
L 67.84891 -215.084256 
L 68.975423 -216.62551 
L 70.17043 -218.166763 
L 71.409272 -219.708016 
L 72.661738 -221.249269 
L 73.885271 -222.790522 
L 75.03347 -224.331776 
L 76.067991 -225.873029 
L 76.966026 -227.414282 
L 77.722358 -228.955535 
L 78.346087 -230.496789 
L 78.852435 -232.038042 
L 79.253977 -233.579295 
L 80.826023 -233.579295 
L 80.826023 -233.579295 
L 81.227565 -232.038042 
L 81.733913 -230.496789 
L 82.357642 -228.955535 
L 83.113974 -227.414282 
L 84.012009 -225.873029 
L 85.04653 -224.331776 
L 86.194729 -222.790522 
L 87.418262 -221.249269 
L 88.670728 -219.708016 
L 89.90957 -218.166763 
L 91.104577 -216.62551 
L 92.23109 -215.084256 
L 93.248097 -213.543003 
L 94.083685 -212.00175 
L 94.654859 -210.460497 
L 94.919488 -208.919244 
L 94.92 -207.37799 
L 94.775849 -205.836737 
L 94.623903 -204.295484 
L 94.550721 -202.754231 
L 94.563183 -201.212977 
L 94.607302 -199.671724 
L 94.610148 -198.130471 
L 94.514167 -196.589218 
L 94.290016 -195.047965 
L 93.932161 -193.506711 
L 93.448807 -191.965458 
L 92.854602 -190.424205 
L 92.168505 -188.882952 
L 91.414861 -187.341699 
L 90.623133 -185.800445 
L 89.822619 -184.259192 
L 89.034971 -182.717939 
L 88.272319 -181.176686 
L 87.543041 -179.635432 
L 86.856837 -178.094179 
L 86.221382 -176.552926 
L 85.635224 -175.011673 
L 85.088455 -173.47042 
L 84.573536 -171.929166 
L 84.094787 -170.387913 
L 83.664959 -168.84666 
L 83.292188 -167.305407 
L 82.971962 -165.764154 
L 82.692113 -164.2229 
L 82.443422 -162.681647 
L 82.223403 -161.140394 
L 82.030505 -159.599141 
L 81.856587 -158.057887 
L 81.686184 -156.516634 
L 81.503845 -154.975381 
L 81.303865 -153.434128 
L 81.094874 -151.892875 
L 80.895872 -150.351621 
L 80.727074 -148.810368 
L 80.602112 -147.269115 
L 80.525009 -145.727862 
L 80.490243 -144.186608 
L 80.483665 -142.645355 
L 80.485374 -141.104102 
L 80.476654 -139.562849 
L 80.44864 -138.021596 
L 80.405982 -136.480342 
L 80.361567 -134.939089 
L 80.326587 -133.397836 
L 80.304318 -131.856583 
L 80.291176 -130.31533 
L 80.281595 -128.774076 
L 80.271838 -127.232823 
L 80.261059 -125.69157 
L 80.250463 -124.150317 
L 80.241562 -122.609063 
L 80.234554 -121.06781 
L 80.227899 -119.526557 
L 80.219354 -117.985304 
L 80.20755 -116.444051 
L 80.193114 -114.902797 
L 80.178764 -113.361544 
L 80.168019 -111.820291 
L 80.162889 -110.279038 
L 80.162165 -108.737785 
L 80.161981 -107.196531 
L 80.158421 -105.655278 
L 80.15002 -104.114025 
L 80.138261 -102.572772 
L 80.126 -101.031518 
L 80.115274 -99.490265 
L 80.106089 -97.949012 
L 80.096918 -96.407759 
L 80.086376 -94.866506 
L 80.074601 -93.325252 
L 80.063272 -91.783999 
L 80.054497 -90.242746 
L 80.049695 -88.701493 
L 80.049175 -87.16024 
L 80.052196 -85.618986 
L 80.057077 -84.077733 
L 80.061485 -82.53648 
L 80.063238 -80.995227 
z
" id="m5f1685bf90" style="stroke:#3d3d3d;stroke-width:1.5;"/>
    </defs>
    <g clip-path="url(#p7e968b8bf8)">
     <use style="fill:#3274a1;stroke:#3d3d3d;stroke-width:1.5;" x="0" xlink:href="#m5f1685bf90" y="288"/>
    </g>
   </g>
   <g id="PolyCollection_2">
    <defs>
     <path d="M 221.44672 -45.883636 
L 221.35328 -45.883636 
L 221.35665 -47.880331 
L 221.365371 -49.877025 
L 221.376184 -51.873719 
L 221.385898 -53.870413 
L 221.392812 -55.867107 
L 221.396845 -57.863802 
L 221.398804 -59.860496 
L 221.399592 -61.85719 
L 221.399804 -63.853884 
L 221.399653 -65.850579 
L 221.398984 -67.847273 
L 221.397261 -69.843967 
L 221.393615 -71.840661 
L 221.387179 -73.837355 
L 221.377835 -75.83405 
L 221.36701 -77.830744 
L 221.357727 -79.827438 
L 221.353365 -81.824132 
L 221.355707 -83.820826 
L 221.363782 -85.817521 
L 221.374503 -87.814215 
L 221.384547 -89.810909 
L 221.391936 -91.807603 
L 221.396372 -93.804298 
L 221.398571 -95.800992 
L 221.399411 -97.797686 
L 221.39941 -99.79438 
L 221.398484 -101.791074 
L 221.395779 -103.787769 
L 221.389485 -105.784463 
L 221.376883 -107.781157 
L 221.355028 -109.777851 
L 221.322334 -111.774545 
L 221.28067 -113.77124 
L 221.236718 -115.767934 
L 221.200986 -117.764628 
L 221.183684 -119.761322 
L 221.18903 -121.758017 
L 221.211655 -123.754711 
L 221.238315 -125.751405 
L 221.254419 -127.748099 
L 221.251011 -129.744793 
L 221.227518 -131.741488 
L 221.188998 -133.738182 
L 221.140392 -135.734876 
L 221.0818 -137.73157 
L 221.00809 -139.728264 
L 220.913795 -141.724959 
L 220.80035 -143.721653 
L 220.679085 -145.718347 
L 220.565208 -147.715041 
L 220.46669 -149.711736 
L 220.37929 -151.70843 
L 220.294024 -153.705124 
L 220.209099 -155.701818 
L 220.131501 -157.698512 
L 220.064095 -159.695207 
L 219.990778 -161.691901 
L 219.875641 -163.688595 
L 219.679236 -165.685289 
L 219.380996 -167.681983 
L 218.993902 -169.678678 
L 218.563606 -171.675372 
L 218.151535 -173.672066 
L 217.808143 -175.66876 
L 217.547886 -177.665455 
L 217.338462 -179.662149 
L 217.111231 -181.658843 
L 216.790534 -183.655537 
L 216.329185 -185.652231 
L 215.728691 -187.648926 
L 215.026631 -189.64562 
L 214.2584 -191.642314 
L 213.42831 -193.639008 
L 212.521187 -195.635702 
L 211.545399 -197.632397 
L 210.562727 -199.629091 
L 209.669751 -201.625785 
L 208.941001 -203.622479 
L 208.380826 -205.619174 
L 207.925487 -207.615868 
L 207.496363 -209.612562 
L 207.06636 -211.609256 
L 206.695908 -213.60595 
L 206.52 -215.602645 
L 206.69668 -217.599339 
L 207.342049 -219.596033 
L 208.479901 -221.592727 
L 210.028696 -223.589421 
L 211.830473 -225.586116 
L 213.702306 -227.58281 
L 215.481762 -229.579504 
L 217.05137 -231.576198 
L 218.345155 -233.572893 
L 219.345189 -235.569587 
L 220.071878 -237.566281 
L 220.570011 -239.562975 
L 220.8942 -241.559669 
L 221.097073 -243.556364 
L 221.702927 -243.556364 
L 221.702927 -243.556364 
L 221.9058 -241.559669 
L 222.229989 -239.562975 
L 222.728122 -237.566281 
L 223.454811 -235.569587 
L 224.454845 -233.572893 
L 225.74863 -231.576198 
L 227.318238 -229.579504 
L 229.097694 -227.58281 
L 230.969527 -225.586116 
L 232.771304 -223.589421 
L 234.320099 -221.592727 
L 235.457951 -219.596033 
L 236.10332 -217.599339 
L 236.28 -215.602645 
L 236.104092 -213.60595 
L 235.73364 -211.609256 
L 235.303637 -209.612562 
L 234.874513 -207.615868 
L 234.419174 -205.619174 
L 233.858999 -203.622479 
L 233.130249 -201.625785 
L 232.237273 -199.629091 
L 231.254601 -197.632397 
L 230.278813 -195.635702 
L 229.37169 -193.639008 
L 228.5416 -191.642314 
L 227.773369 -189.64562 
L 227.071309 -187.648926 
L 226.470815 -185.652231 
L 226.009466 -183.655537 
L 225.688769 -181.658843 
L 225.461538 -179.662149 
L 225.252114 -177.665455 
L 224.991857 -175.66876 
L 224.648465 -173.672066 
L 224.236394 -171.675372 
L 223.806098 -169.678678 
L 223.419004 -167.681983 
L 223.120764 -165.685289 
L 222.924359 -163.688595 
L 222.809222 -161.691901 
L 222.735905 -159.695207 
L 222.668499 -157.698512 
L 222.590901 -155.701818 
L 222.505976 -153.705124 
L 222.42071 -151.70843 
L 222.33331 -149.711736 
L 222.234792 -147.715041 
L 222.120915 -145.718347 
L 221.99965 -143.721653 
L 221.886205 -141.724959 
L 221.79191 -139.728264 
L 221.7182 -137.73157 
L 221.659608 -135.734876 
L 221.611002 -133.738182 
L 221.572482 -131.741488 
L 221.548989 -129.744793 
L 221.545581 -127.748099 
L 221.561685 -125.751405 
L 221.588345 -123.754711 
L 221.61097 -121.758017 
L 221.616316 -119.761322 
L 221.599014 -117.764628 
L 221.563282 -115.767934 
L 221.51933 -113.77124 
L 221.477666 -111.774545 
L 221.444972 -109.777851 
L 221.423117 -107.781157 
L 221.410515 -105.784463 
L 221.404221 -103.787769 
L 221.401516 -101.791074 
L 221.40059 -99.79438 
L 221.400589 -97.797686 
L 221.401429 -95.800992 
L 221.403628 -93.804298 
L 221.408064 -91.807603 
L 221.415453 -89.810909 
L 221.425497 -87.814215 
L 221.436218 -85.817521 
L 221.444293 -83.820826 
L 221.446635 -81.824132 
L 221.442273 -79.827438 
L 221.43299 -77.830744 
L 221.422165 -75.83405 
L 221.412821 -73.837355 
L 221.406385 -71.840661 
L 221.402739 -69.843967 
L 221.401016 -67.847273 
L 221.400347 -65.850579 
L 221.400196 -63.853884 
L 221.400408 -61.85719 
L 221.401196 -59.860496 
L 221.403155 -57.863802 
L 221.407188 -55.867107 
L 221.414102 -53.870413 
L 221.423816 -51.873719 
L 221.434629 -49.877025 
L 221.44335 -47.880331 
L 221.44672 -45.883636 
z
" id="m5059dd4d8c" style="stroke:#3d3d3d;stroke-width:1.5;"/>
    </defs>
    <g clip-path="url(#p7e968b8bf8)">
     <use style="fill:#e1812c;stroke:#3d3d3d;stroke-width:1.5;" x="0" xlink:href="#m5059dd4d8c" y="288"/>
    </g>
   </g>
   <g id="PolyCollection_3">
    <defs>
     <path d="M 362.852926 -111.889156 
L 362.667074 -111.889156 
L 362.652711 -113.153848 
L 362.639528 -114.41854 
L 362.627645 -115.683233 
L 362.616931 -116.947925 
L 362.607132 -118.212617 
L 362.598021 -119.477309 
L 362.589507 -120.742001 
L 362.581663 -122.006694 
L 362.574655 -123.271386 
L 362.568606 -124.536078 
L 362.563456 -125.80077 
L 362.558905 -127.065463 
L 362.554436 -128.330155 
L 362.54941 -129.594847 
L 362.543134 -130.859539 
L 362.5349 -132.124232 
L 362.524 -133.388924 
L 362.509762 -134.653616 
L 362.491638 -135.918308 
L 362.469286 -137.183 
L 362.442592 -138.447693 
L 362.411586 -139.712385 
L 362.376298 -140.977077 
L 362.336636 -142.241769 
L 362.292333 -143.506462 
L 362.24302 -144.771154 
L 362.188386 -146.035846 
L 362.128422 -147.300538 
L 362.06373 -148.56523 
L 361.995798 -149.829923 
L 361.927116 -151.094615 
L 361.860951 -152.359307 
L 361.800746 -153.623999 
L 361.74922 -154.888692 
L 361.707444 -156.153384 
L 361.674135 -157.418076 
L 361.645293 -158.682768 
L 361.614227 -159.94746 
L 361.571927 -161.212153 
L 361.507897 -162.476845 
L 361.411609 -163.741537 
L 361.274665 -165.006229 
L 361.093434 -166.270922 
L 360.871412 -167.535614 
L 360.620234 -168.800306 
L 360.358364 -170.064998 
L 360.107261 -171.32969 
L 359.885834 -172.594383 
L 359.704986 -173.859075 
L 359.564166 -175.123767 
L 359.451238 -176.388459 
L 359.345656 -177.653152 
L 359.223739 -178.917844 
L 359.064241 -180.182536 
L 358.852581 -181.447228 
L 358.582842 -182.71192 
L 358.257465 -183.976613 
L 357.885151 -185.241305 
L 357.477736 -186.505997 
L 357.046859 -187.770689 
L 356.601244 -189.035382 
L 356.145275 -190.300074 
L 355.679231 -191.564766 
L 355.200964 -192.829458 
L 354.708186 -194.094151 
L 354.200213 -195.358843 
L 353.678293 -196.623535 
L 353.144466 -197.888227 
L 352.599794 -199.152919 
L 352.043363 -200.417612 
L 351.473149 -201.682304 
L 350.88895 -202.946996 
L 350.296351 -204.211688 
L 349.709981 -205.476381 
L 349.154343 -206.741073 
L 348.661444 -208.005765 
L 348.265752 -209.270457 
L 347.998032 -210.535149 
L 347.88 -211.799842 
L 347.921236 -213.064534 
L 348.118961 -214.329226 
L 348.46037 -215.593918 
L 348.926555 -216.858611 
L 349.496859 -218.123303 
L 350.152538 -219.387995 
L 350.878988 -220.652687 
L 351.666151 -221.917379 
L 352.507206 -223.182072 
L 353.395996 -224.446764 
L 354.324055 -225.711456 
L 355.278227 -226.976148 
L 356.239803 -228.240841 
L 357.185596 -229.505533 
L 358.090698 -230.770225 
L 358.931997 -232.034917 
L 359.691271 -233.299609 
L 360.356991 -234.564302 
L 360.924531 -235.828994 
L 361.395174 -237.093686 
L 364.124826 -237.093686 
L 364.124826 -237.093686 
L 364.595469 -235.828994 
L 365.163009 -234.564302 
L 365.828729 -233.299609 
L 366.588003 -232.034917 
L 367.429302 -230.770225 
L 368.334404 -229.505533 
L 369.280197 -228.240841 
L 370.241773 -226.976148 
L 371.195945 -225.711456 
L 372.124004 -224.446764 
L 373.012794 -223.182072 
L 373.853849 -221.917379 
L 374.641012 -220.652687 
L 375.367462 -219.387995 
L 376.023141 -218.123303 
L 376.593445 -216.858611 
L 377.05963 -215.593918 
L 377.401039 -214.329226 
L 377.598764 -213.064534 
L 377.64 -211.799842 
L 377.521968 -210.535149 
L 377.254248 -209.270457 
L 376.858556 -208.005765 
L 376.365657 -206.741073 
L 375.810019 -205.476381 
L 375.223649 -204.211688 
L 374.63105 -202.946996 
L 374.046851 -201.682304 
L 373.476637 -200.417612 
L 372.920206 -199.152919 
L 372.375534 -197.888227 
L 371.841707 -196.623535 
L 371.319787 -195.358843 
L 370.811814 -194.094151 
L 370.319036 -192.829458 
L 369.840769 -191.564766 
L 369.374725 -190.300074 
L 368.918756 -189.035382 
L 368.473141 -187.770689 
L 368.042264 -186.505997 
L 367.634849 -185.241305 
L 367.262535 -183.976613 
L 366.937158 -182.71192 
L 366.667419 -181.447228 
L 366.455759 -180.182536 
L 366.296261 -178.917844 
L 366.174344 -177.653152 
L 366.068762 -176.388459 
L 365.955834 -175.123767 
L 365.815014 -173.859075 
L 365.634166 -172.594383 
L 365.412739 -171.32969 
L 365.161636 -170.064998 
L 364.899766 -168.800306 
L 364.648588 -167.535614 
L 364.426566 -166.270922 
L 364.245335 -165.006229 
L 364.108391 -163.741537 
L 364.012103 -162.476845 
L 363.948073 -161.212153 
L 363.905773 -159.94746 
L 363.874707 -158.682768 
L 363.845865 -157.418076 
L 363.812556 -156.153384 
L 363.77078 -154.888692 
L 363.719254 -153.623999 
L 363.659049 -152.359307 
L 363.592884 -151.094615 
L 363.524202 -149.829923 
L 363.45627 -148.56523 
L 363.391578 -147.300538 
L 363.331614 -146.035846 
L 363.27698 -144.771154 
L 363.227667 -143.506462 
L 363.183364 -142.241769 
L 363.143702 -140.977077 
L 363.108414 -139.712385 
L 363.077408 -138.447693 
L 363.050714 -137.183 
L 363.028362 -135.918308 
L 363.010238 -134.653616 
L 362.996 -133.388924 
L 362.9851 -132.124232 
L 362.976866 -130.859539 
L 362.97059 -129.594847 
L 362.965564 -128.330155 
L 362.961095 -127.065463 
L 362.956544 -125.80077 
L 362.951394 -124.536078 
L 362.945345 -123.271386 
L 362.938337 -122.006694 
L 362.930493 -120.742001 
L 362.921979 -119.477309 
L 362.912868 -118.212617 
L 362.903069 -116.947925 
L 362.892355 -115.683233 
L 362.880472 -114.41854 
L 362.867289 -113.153848 
L 362.852926 -111.889156 
z
" id="m6b3995b83c" style="stroke:#3d3d3d;stroke-width:1.5;"/>
    </defs>
    <g clip-path="url(#p7e968b8bf8)">
     <use style="fill:#3a923a;stroke:#3d3d3d;stroke-width:1.5;" x="0" xlink:href="#m6b3995b83c" y="288"/>
    </g>
   </g>
   <g id="patch_3">
    <path clip-path="url(#p7e968b8bf8)" d="M 109.8 61.436381 
L 109.8 61.436381 
L 109.8 61.436381 
L 109.8 61.436381 
z
" style="fill:#3274a1;stroke:#3d3d3d;stroke-linejoin:miter;stroke-width:0.75;"/>
   </g>
   <g id="patch_4">
    <path clip-path="url(#p7e968b8bf8)" d="M 109.8 61.436381 
L 109.8 61.436381 
L 109.8 61.436381 
L 109.8 61.436381 
z
" style="fill:#e1812c;stroke:#3d3d3d;stroke-linejoin:miter;stroke-width:0.75;"/>
   </g>
   <g id="patch_5">
    <path clip-path="url(#p7e968b8bf8)" d="M 109.8 61.436381 
L 109.8 61.436381 
L 109.8 61.436381 
L 109.8 61.436381 
z
" style="fill:#3a923a;stroke:#3d3d3d;stroke-linejoin:miter;stroke-width:0.75;"/>
   </g>
   <g id="matplotlib.axis_1">
    <g id="xtick_1">
     <g id="line2d_1">
      <defs>
       <path d="M 0 0 
L 0 3.5 
" id="ma9027392dd" style="stroke:#000000;stroke-width:0.8;"/>
      </defs>
      <g>
       <use style="stroke:#000000;stroke-width:0.8;" x="109.8" xlink:href="#ma9027392dd" y="252"/>
      </g>
     </g>
     <g id="text_1">
      <!-- train -->
      <g transform="translate(98.1625 266.598437)scale(0.1 -0.1)">
       <defs>
        <path d="M 18.3125 70.21875 
L 18.3125 54.6875 
L 36.8125 54.6875 
L 36.8125 47.703125 
L 18.3125 47.703125 
L 18.3125 18.015625 
Q 18.3125 11.328125 20.140625 9.421875 
Q 21.96875 7.515625 27.59375 7.515625 
L 36.8125 7.515625 
L 36.8125 0 
L 27.59375 0 
Q 17.1875 0 13.234375 3.875 
Q 9.28125 7.765625 9.28125 18.015625 
L 9.28125 47.703125 
L 2.6875 47.703125 
L 2.6875 54.6875 
L 9.28125 54.6875 
L 9.28125 70.21875 
z
" id="DejaVuSans-116"/>
        <path d="M 41.109375 46.296875 
Q 39.59375 47.171875 37.8125 47.578125 
Q 36.03125 48 33.890625 48 
Q 26.265625 48 22.1875 43.046875 
Q 18.109375 38.09375 18.109375 28.8125 
L 18.109375 0 
L 9.078125 0 
L 9.078125 54.6875 
L 18.109375 54.6875 
L 18.109375 46.1875 
Q 20.953125 51.171875 25.484375 53.578125 
Q 30.03125 56 36.53125 56 
Q 37.453125 56 38.578125 55.875 
Q 39.703125 55.765625 41.0625 55.515625 
z
" id="DejaVuSans-114"/>
        <path d="M 34.28125 27.484375 
Q 23.390625 27.484375 19.1875 25 
Q 14.984375 22.515625 14.984375 16.5 
Q 14.984375 11.71875 18.140625 8.90625 
Q 21.296875 6.109375 26.703125 6.109375 
Q 34.1875 6.109375 38.703125 11.40625 
Q 43.21875 16.703125 43.21875 25.484375 
L 43.21875 27.484375 
z
M 52.203125 31.203125 
L 52.203125 0 
L 43.21875 0 
L 43.21875 8.296875 
Q 40.140625 3.328125 35.546875 0.953125 
Q 30.953125 -1.421875 24.3125 -1.421875 
Q 15.921875 -1.421875 10.953125 3.296875 
Q 6 8.015625 6 15.921875 
Q 6 25.140625 12.171875 29.828125 
Q 18.359375 34.515625 30.609375 34.515625 
L 43.21875 34.515625 
L 43.21875 35.40625 
Q 43.21875 41.609375 39.140625 45 
Q 35.0625 48.390625 27.6875 48.390625 
Q 23 48.390625 18.546875 47.265625 
Q 14.109375 46.140625 10.015625 43.890625 
L 10.015625 52.203125 
Q 14.9375 54.109375 19.578125 55.046875 
Q 24.21875 56 28.609375 56 
Q 40.484375 56 46.34375 49.84375 
Q 52.203125 43.703125 52.203125 31.203125 
z
" id="DejaVuSans-97"/>
        <path d="M 9.421875 54.6875 
L 18.40625 54.6875 
L 18.40625 0 
L 9.421875 0 
z
M 9.421875 75.984375 
L 18.40625 75.984375 
L 18.40625 64.59375 
L 9.421875 64.59375 
z
" id="DejaVuSans-105"/>
        <path d="M 54.890625 33.015625 
L 54.890625 0 
L 45.90625 0 
L 45.90625 32.71875 
Q 45.90625 40.484375 42.875 44.328125 
Q 39.84375 48.1875 33.796875 48.1875 
Q 26.515625 48.1875 22.3125 43.546875 
Q 18.109375 38.921875 18.109375 30.90625 
L 18.109375 0 
L 9.078125 0 
L 9.078125 54.6875 
L 18.109375 54.6875 
L 18.109375 46.1875 
Q 21.34375 51.125 25.703125 53.5625 
Q 30.078125 56 35.796875 56 
Q 45.21875 56 50.046875 50.171875 
Q 54.890625 44.34375 54.890625 33.015625 
z
" id="DejaVuSans-110"/>
       </defs>
       <use xlink:href="#DejaVuSans-116"/>
       <use x="39.208984" xlink:href="#DejaVuSans-114"/>
       <use x="80.322266" xlink:href="#DejaVuSans-97"/>
       <use x="141.601562" xlink:href="#DejaVuSans-105"/>
       <use x="169.384766" xlink:href="#DejaVuSans-110"/>
      </g>
     </g>
    </g>
    <g id="xtick_2">
     <g id="line2d_2">
      <g>
       <use style="stroke:#000000;stroke-width:0.8;" x="221.4" xlink:href="#ma9027392dd" y="252"/>
      </g>
     </g>
     <g id="text_2">
      <!-- val -->
      <g transform="translate(213.9875 266.598437)scale(0.1 -0.1)">
       <defs>
        <path d="M 2.984375 54.6875 
L 12.5 54.6875 
L 29.59375 8.796875 
L 46.6875 54.6875 
L 56.203125 54.6875 
L 35.6875 0 
L 23.484375 0 
z
" id="DejaVuSans-118"/>
        <path d="M 9.421875 75.984375 
L 18.40625 75.984375 
L 18.40625 0 
L 9.421875 0 
z
" id="DejaVuSans-108"/>
       </defs>
       <use xlink:href="#DejaVuSans-118"/>
       <use x="59.179688" xlink:href="#DejaVuSans-97"/>
       <use x="120.458984" xlink:href="#DejaVuSans-108"/>
      </g>
     </g>
    </g>
    <g id="xtick_3">
     <g id="line2d_3">
      <g>
       <use style="stroke:#000000;stroke-width:0.8;" x="333" xlink:href="#ma9027392dd" y="252"/>
      </g>
     </g>
     <g id="text_3">
      <!-- test -->
      <g transform="translate(323.398438 266.598437)scale(0.1 -0.1)">
       <defs>
        <path d="M 56.203125 29.59375 
L 56.203125 25.203125 
L 14.890625 25.203125 
Q 15.484375 15.921875 20.484375 11.0625 
Q 25.484375 6.203125 34.421875 6.203125 
Q 39.59375 6.203125 44.453125 7.46875 
Q 49.3125 8.734375 54.109375 11.28125 
L 54.109375 2.78125 
Q 49.265625 0.734375 44.1875 -0.34375 
Q 39.109375 -1.421875 33.890625 -1.421875 
Q 20.796875 -1.421875 13.15625 6.1875 
Q 5.515625 13.8125 5.515625 26.8125 
Q 5.515625 40.234375 12.765625 48.109375 
Q 20.015625 56 32.328125 56 
Q 43.359375 56 49.78125 48.890625 
Q 56.203125 41.796875 56.203125 29.59375 
z
M 47.21875 32.234375 
Q 47.125 39.59375 43.09375 43.984375 
Q 39.0625 48.390625 32.421875 48.390625 
Q 24.90625 48.390625 20.390625 44.140625 
Q 15.875 39.890625 15.1875 32.171875 
z
" id="DejaVuSans-101"/>
        <path d="M 44.28125 53.078125 
L 44.28125 44.578125 
Q 40.484375 46.53125 36.375 47.5 
Q 32.28125 48.484375 27.875 48.484375 
Q 21.1875 48.484375 17.84375 46.4375 
Q 14.5 44.390625 14.5 40.28125 
Q 14.5 37.15625 16.890625 35.375 
Q 19.28125 33.59375 26.515625 31.984375 
L 29.59375 31.296875 
Q 39.15625 29.25 43.1875 25.515625 
Q 47.21875 21.78125 47.21875 15.09375 
Q 47.21875 7.46875 41.1875 3.015625 
Q 35.15625 -1.421875 24.609375 -1.421875 
Q 20.21875 -1.421875 15.453125 -0.5625 
Q 10.6875 0.296875 5.421875 2 
L 5.421875 11.28125 
Q 10.40625 8.6875 15.234375 7.390625 
Q 20.0625 6.109375 24.8125 6.109375 
Q 31.15625 6.109375 34.5625 8.28125 
Q 37.984375 10.453125 37.984375 14.40625 
Q 37.984375 18.0625 35.515625 20.015625 
Q 33.0625 21.96875 24.703125 23.78125 
L 21.578125 24.515625 
Q 13.234375 26.265625 9.515625 29.90625 
Q 5.8125 33.546875 5.8125 39.890625 
Q 5.8125 47.609375 11.28125 51.796875 
Q 16.75 56 26.8125 56 
Q 31.78125 56 36.171875 55.265625 
Q 40.578125 54.546875 44.28125 53.078125 
z
" id="DejaVuSans-115"/>
       </defs>
       <use xlink:href="#DejaVuSans-116"/>
       <use x="39.208984" xlink:href="#DejaVuSans-101"/>
       <use x="100.732422" xlink:href="#DejaVuSans-115"/>
       <use x="152.832031" xlink:href="#DejaVuSans-116"/>
      </g>
     </g>
    </g>
    <g id="text_4">
     <!-- set -->
     <g transform="translate(213.758594 280.276563)scale(0.1 -0.1)">
      <use xlink:href="#DejaVuSans-115"/>
      <use x="52.099609" xlink:href="#DejaVuSans-101"/>
      <use x="113.623047" xlink:href="#DejaVuSans-116"/>
     </g>
    </g>
   </g>
   <g id="matplotlib.axis_2">
    <g id="ytick_1">
     <g id="line2d_4">
      <defs>
       <path d="M 0 0 
L -3.5 0 
" id="m374195266a" style="stroke:#000000;stroke-width:0.8;"/>
      </defs>
      <g>
       <use style="stroke:#000000;stroke-width:0.8;" x="54" xlink:href="#m374195266a" y="232.172601"/>
      </g>
     </g>
     <g id="text_5">
      <!-- −80 -->
      <g transform="translate(25.895312 235.97182)scale(0.1 -0.1)">
       <defs>
        <path d="M 10.59375 35.5 
L 73.1875 35.5 
L 73.1875 27.203125 
L 10.59375 27.203125 
z
" id="DejaVuSans-8722"/>
        <path d="M 31.78125 34.625 
Q 24.75 34.625 20.71875 30.859375 
Q 16.703125 27.09375 16.703125 20.515625 
Q 16.703125 13.921875 20.71875 10.15625 
Q 24.75 6.390625 31.78125 6.390625 
Q 38.8125 6.390625 42.859375 10.171875 
Q 46.921875 13.96875 46.921875 20.515625 
Q 46.921875 27.09375 42.890625 30.859375 
Q 38.875 34.625 31.78125 34.625 
z
M 21.921875 38.8125 
Q 15.578125 40.375 12.03125 44.71875 
Q 8.5 49.078125 8.5 55.328125 
Q 8.5 64.0625 14.71875 69.140625 
Q 20.953125 74.21875 31.78125 74.21875 
Q 42.671875 74.21875 48.875 69.140625 
Q 55.078125 64.0625 55.078125 55.328125 
Q 55.078125 49.078125 51.53125 44.71875 
Q 48 40.375 41.703125 38.8125 
Q 48.828125 37.15625 52.796875 32.3125 
Q 56.78125 27.484375 56.78125 20.515625 
Q 56.78125 9.90625 50.3125 4.234375 
Q 43.84375 -1.421875 31.78125 -1.421875 
Q 19.734375 -1.421875 13.25 4.234375 
Q 6.78125 9.90625 6.78125 20.515625 
Q 6.78125 27.484375 10.78125 32.3125 
Q 14.796875 37.15625 21.921875 38.8125 
z
M 18.3125 54.390625 
Q 18.3125 48.734375 21.84375 45.5625 
Q 25.390625 42.390625 31.78125 42.390625 
Q 38.140625 42.390625 41.71875 45.5625 
Q 45.3125 48.734375 45.3125 54.390625 
Q 45.3125 60.0625 41.71875 63.234375 
Q 38.140625 66.40625 31.78125 66.40625 
Q 25.390625 66.40625 21.84375 63.234375 
Q 18.3125 60.0625 18.3125 54.390625 
z
" id="DejaVuSans-56"/>
        <path d="M 31.78125 66.40625 
Q 24.171875 66.40625 20.328125 58.90625 
Q 16.5 51.421875 16.5 36.375 
Q 16.5 21.390625 20.328125 13.890625 
Q 24.171875 6.390625 31.78125 6.390625 
Q 39.453125 6.390625 43.28125 13.890625 
Q 47.125 21.390625 47.125 36.375 
Q 47.125 51.421875 43.28125 58.90625 
Q 39.453125 66.40625 31.78125 66.40625 
z
M 31.78125 74.21875 
Q 44.046875 74.21875 50.515625 64.515625 
Q 56.984375 54.828125 56.984375 36.375 
Q 56.984375 17.96875 50.515625 8.265625 
Q 44.046875 -1.421875 31.78125 -1.421875 
Q 19.53125 -1.421875 13.0625 8.265625 
Q 6.59375 17.96875 6.59375 36.375 
Q 6.59375 54.828125 13.0625 64.515625 
Q 19.53125 74.21875 31.78125 74.21875 
z
" id="DejaVuSans-48"/>
       </defs>
       <use xlink:href="#DejaVuSans-8722"/>
       <use x="83.789062" xlink:href="#DejaVuSans-56"/>
       <use x="147.412109" xlink:href="#DejaVuSans-48"/>
      </g>
     </g>
    </g>
    <g id="ytick_2">
     <g id="line2d_5">
      <g>
       <use style="stroke:#000000;stroke-width:0.8;" x="54" xlink:href="#m374195266a" y="189.488546"/>
      </g>
     </g>
     <g id="text_6">
      <!-- −60 -->
      <g transform="translate(25.895312 193.287765)scale(0.1 -0.1)">
       <defs>
        <path d="M 33.015625 40.375 
Q 26.375 40.375 22.484375 35.828125 
Q 18.609375 31.296875 18.609375 23.390625 
Q 18.609375 15.53125 22.484375 10.953125 
Q 26.375 6.390625 33.015625 6.390625 
Q 39.65625 6.390625 43.53125 10.953125 
Q 47.40625 15.53125 47.40625 23.390625 
Q 47.40625 31.296875 43.53125 35.828125 
Q 39.65625 40.375 33.015625 40.375 
z
M 52.59375 71.296875 
L 52.59375 62.3125 
Q 48.875 64.0625 45.09375 64.984375 
Q 41.3125 65.921875 37.59375 65.921875 
Q 27.828125 65.921875 22.671875 59.328125 
Q 17.53125 52.734375 16.796875 39.40625 
Q 19.671875 43.65625 24.015625 45.921875 
Q 28.375 48.1875 33.59375 48.1875 
Q 44.578125 48.1875 50.953125 41.515625 
Q 57.328125 34.859375 57.328125 23.390625 
Q 57.328125 12.15625 50.6875 5.359375 
Q 44.046875 -1.421875 33.015625 -1.421875 
Q 20.359375 -1.421875 13.671875 8.265625 
Q 6.984375 17.96875 6.984375 36.375 
Q 6.984375 53.65625 15.1875 63.9375 
Q 23.390625 74.21875 37.203125 74.21875 
Q 40.921875 74.21875 44.703125 73.484375 
Q 48.484375 72.75 52.59375 71.296875 
z
" id="DejaVuSans-54"/>
       </defs>
       <use xlink:href="#DejaVuSans-8722"/>
       <use x="83.789062" xlink:href="#DejaVuSans-54"/>
       <use x="147.412109" xlink:href="#DejaVuSans-48"/>
      </g>
     </g>
    </g>
    <g id="ytick_3">
     <g id="line2d_6">
      <g>
       <use style="stroke:#000000;stroke-width:0.8;" x="54" xlink:href="#m374195266a" y="146.804491"/>
      </g>
     </g>
     <g id="text_7">
      <!-- −40 -->
      <g transform="translate(25.895312 150.603709)scale(0.1 -0.1)">
       <defs>
        <path d="M 37.796875 64.3125 
L 12.890625 25.390625 
L 37.796875 25.390625 
z
M 35.203125 72.90625 
L 47.609375 72.90625 
L 47.609375 25.390625 
L 58.015625 25.390625 
L 58.015625 17.1875 
L 47.609375 17.1875 
L 47.609375 0 
L 37.796875 0 
L 37.796875 17.1875 
L 4.890625 17.1875 
L 4.890625 26.703125 
z
" id="DejaVuSans-52"/>
       </defs>
       <use xlink:href="#DejaVuSans-8722"/>
       <use x="83.789062" xlink:href="#DejaVuSans-52"/>
       <use x="147.412109" xlink:href="#DejaVuSans-48"/>
      </g>
     </g>
    </g>
    <g id="ytick_4">
     <g id="line2d_7">
      <g>
       <use style="stroke:#000000;stroke-width:0.8;" x="54" xlink:href="#m374195266a" y="104.120436"/>
      </g>
     </g>
     <g id="text_8">
      <!-- −20 -->
      <g transform="translate(25.895312 107.919654)scale(0.1 -0.1)">
       <defs>
        <path d="M 19.1875 8.296875 
L 53.609375 8.296875 
L 53.609375 0 
L 7.328125 0 
L 7.328125 8.296875 
Q 12.9375 14.109375 22.625 23.890625 
Q 32.328125 33.6875 34.8125 36.53125 
Q 39.546875 41.84375 41.421875 45.53125 
Q 43.3125 49.21875 43.3125 52.78125 
Q 43.3125 58.59375 39.234375 62.25 
Q 35.15625 65.921875 28.609375 65.921875 
Q 23.96875 65.921875 18.8125 64.3125 
Q 13.671875 62.703125 7.8125 59.421875 
L 7.8125 69.390625 
Q 13.765625 71.78125 18.9375 73 
Q 24.125 74.21875 28.421875 74.21875 
Q 39.75 74.21875 46.484375 68.546875 
Q 53.21875 62.890625 53.21875 53.421875 
Q 53.21875 48.921875 51.53125 44.890625 
Q 49.859375 40.875 45.40625 35.40625 
Q 44.1875 33.984375 37.640625 27.21875 
Q 31.109375 20.453125 19.1875 8.296875 
z
" id="DejaVuSans-50"/>
       </defs>
       <use xlink:href="#DejaVuSans-8722"/>
       <use x="83.789062" xlink:href="#DejaVuSans-50"/>
       <use x="147.412109" xlink:href="#DejaVuSans-48"/>
      </g>
     </g>
    </g>
    <g id="ytick_5">
     <g id="line2d_8">
      <g>
       <use style="stroke:#000000;stroke-width:0.8;" x="54" xlink:href="#m374195266a" y="61.436381"/>
      </g>
     </g>
     <g id="text_9">
      <!-- 0 -->
      <g transform="translate(40.6375 65.235599)scale(0.1 -0.1)">
       <use xlink:href="#DejaVuSans-48"/>
      </g>
     </g>
    </g>
    <g id="text_10">
     <!-- value -->
     <g transform="translate(19.815625 156.937813)rotate(-90)scale(0.1 -0.1)">
      <defs>
       <path d="M 8.5 21.578125 
L 8.5 54.6875 
L 17.484375 54.6875 
L 17.484375 21.921875 
Q 17.484375 14.15625 20.5 10.265625 
Q 23.53125 6.390625 29.59375 6.390625 
Q 36.859375 6.390625 41.078125 11.03125 
Q 45.3125 15.671875 45.3125 23.6875 
L 45.3125 54.6875 
L 54.296875 54.6875 
L 54.296875 0 
L 45.3125 0 
L 45.3125 8.40625 
Q 42.046875 3.421875 37.71875 1 
Q 33.40625 -1.421875 27.6875 -1.421875 
Q 18.265625 -1.421875 13.375 4.4375 
Q 8.5 10.296875 8.5 21.578125 
z
M 31.109375 56 
z
" id="DejaVuSans-117"/>
      </defs>
      <use xlink:href="#DejaVuSans-118"/>
      <use x="59.179688" xlink:href="#DejaVuSans-97"/>
      <use x="120.458984" xlink:href="#DejaVuSans-108"/>
      <use x="148.242188" xlink:href="#DejaVuSans-117"/>
      <use x="211.621094" xlink:href="#DejaVuSans-101"/>
     </g>
    </g>
   </g>
   <g id="line2d_9">
    <path clip-path="url(#p7e968b8bf8)" d="M 80.04 136.946378 
L 80.04 54.420705 
" style="fill:none;stroke:#3d3d3d;stroke-linecap:square;stroke-width:1.5;"/>
   </g>
   <g id="line2d_10">
    <path clip-path="url(#p7e968b8bf8)" d="M 80.04 101.510809 
L 80.04 77.785181 
" style="fill:none;stroke:#3d3d3d;stroke-linecap:square;stroke-width:4.5;"/>
   </g>
   <g id="line2d_11">
    <path clip-path="url(#p7e968b8bf8)" d="M 221.4 129.518758 
L 221.4 44.443636 
" style="fill:none;stroke:#3d3d3d;stroke-linecap:square;stroke-width:1.5;"/>
   </g>
   <g id="line2d_12">
    <path clip-path="url(#p7e968b8bf8)" d="M 221.4 93.833457 
L 221.4 69.815085 
" style="fill:none;stroke:#3d3d3d;stroke-linecap:square;stroke-width:4.5;"/>
   </g>
   <g id="line2d_13">
    <path clip-path="url(#p7e968b8bf8)" d="M 362.76 126.108342 
L 362.76 50.906314 
" style="fill:none;stroke:#3d3d3d;stroke-linecap:square;stroke-width:1.5;"/>
   </g>
   <g id="line2d_14">
    <path clip-path="url(#p7e968b8bf8)" d="M 362.76 92.975839 
L 362.76 70.750812 
" style="fill:none;stroke:#3d3d3d;stroke-linecap:square;stroke-width:4.5;"/>
   </g>
   <g id="patch_6">
    <path d="M 54 252 
L 54 34.56 
" style="fill:none;stroke:#000000;stroke-linecap:square;stroke-linejoin:miter;stroke-width:0.8;"/>
   </g>
   <g id="patch_7">
    <path d="M 388.8 252 
L 388.8 34.56 
" style="fill:none;stroke:#000000;stroke-linecap:square;stroke-linejoin:miter;stroke-width:0.8;"/>
   </g>
   <g id="patch_8">
    <path d="M 54 252 
L 388.8 252 
" style="fill:none;stroke:#000000;stroke-linecap:square;stroke-linejoin:miter;stroke-width:0.8;"/>
   </g>
   <g id="patch_9">
    <path d="M 54 34.56 
L 388.8 34.56 
" style="fill:none;stroke:#000000;stroke-linecap:square;stroke-linejoin:miter;stroke-width:0.8;"/>
   </g>
   <g id="PathCollection_1">
    <defs>
     <path d="M 0 1.5 
C 0.397805 1.5 0.77937 1.341951 1.06066 1.06066 
C 1.341951 0.77937 1.5 0.397805 1.5 0 
C 1.5 -0.397805 1.341951 -0.77937 1.06066 -1.06066 
C 0.77937 -1.341951 0.397805 -1.5 0 -1.5 
C -0.397805 -1.5 -0.77937 -1.341951 -1.06066 -1.06066 
C -1.341951 -0.77937 -1.5 -0.397805 -1.5 0 
C -1.5 0.397805 -1.341951 0.77937 -1.06066 1.06066 
C -0.77937 1.341951 -0.397805 1.5 0 1.5 
z
" id="m81c255db67" style="stroke:#3d3d3d;"/>
    </defs>
    <g clip-path="url(#p7e968b8bf8)">
     <use style="fill:#ffffff;stroke:#3d3d3d;" x="80.04" xlink:href="#m81c255db67" y="89.306361"/>
    </g>
   </g>
   <g id="PathCollection_2">
    <g clip-path="url(#p7e968b8bf8)">
     <use style="fill:#ffffff;stroke:#3d3d3d;" x="221.4" xlink:href="#m81c255db67" y="80.164761"/>
    </g>
   </g>
   <g id="PathCollection_3">
    <g clip-path="url(#p7e968b8bf8)">
     <use style="fill:#ffffff;stroke:#3d3d3d;" x="362.76" xlink:href="#m81c255db67" y="80.093994"/>
    </g>
   </g>
   <g id="legend_1">
    <g id="patch_10">
     <path d="M 61 247 
L 116.275 247 
Q 118.275 247 118.275 245 
L 118.275 187.2875 
Q 118.275 185.2875 116.275 185.2875 
L 61 185.2875 
Q 59 185.2875 59 187.2875 
L 59 245 
Q 59 247 61 247 
z
" style="fill:#ffffff;opacity:0.8;stroke:#cccccc;stroke-linejoin:miter;"/>
    </g>
    <g id="text_11">
     <!-- set -->
     <g transform="translate(80.996094 196.885938)scale(0.1 -0.1)">
      <use xlink:href="#DejaVuSans-115"/>
      <use x="52.099609" xlink:href="#DejaVuSans-101"/>
      <use x="113.623047" xlink:href="#DejaVuSans-116"/>
     </g>
    </g>
    <g id="patch_11">
     <path d="M 63 211.564063 
L 83 211.564063 
L 83 204.564063 
L 63 204.564063 
z
" style="fill:#3274a1;stroke:#3d3d3d;stroke-linejoin:miter;stroke-width:0.75;"/>
    </g>
    <g id="text_12">
     <!-- train -->
     <g transform="translate(91 211.564063)scale(0.1 -0.1)">
      <use xlink:href="#DejaVuSans-116"/>
      <use x="39.208984" xlink:href="#DejaVuSans-114"/>
      <use x="80.322266" xlink:href="#DejaVuSans-97"/>
      <use x="141.601562" xlink:href="#DejaVuSans-105"/>
      <use x="169.384766" xlink:href="#DejaVuSans-110"/>
     </g>
    </g>
    <g id="patch_12">
     <path d="M 63 226.242188 
L 83 226.242188 
L 83 219.242188 
L 63 219.242188 
z
" style="fill:#e1812c;stroke:#3d3d3d;stroke-linejoin:miter;stroke-width:0.75;"/>
    </g>
    <g id="text_13">
     <!-- val -->
     <g transform="translate(91 226.242188)scale(0.1 -0.1)">
      <use xlink:href="#DejaVuSans-118"/>
      <use x="59.179688" xlink:href="#DejaVuSans-97"/>
      <use x="120.458984" xlink:href="#DejaVuSans-108"/>
     </g>
    </g>
    <g id="patch_13">
     <path d="M 63 240.920313 
L 83 240.920313 
L 83 233.920313 
L 63 233.920313 
z
" style="fill:#3a923a;stroke:#3d3d3d;stroke-linejoin:miter;stroke-width:0.75;"/>
    </g>
    <g id="text_14">
     <!-- test -->
     <g transform="translate(91 240.920313)scale(0.1 -0.1)">
      <use xlink:href="#DejaVuSans-116"/>
      <use x="39.208984" xlink:href="#DejaVuSans-101"/>
      <use x="100.732422" xlink:href="#DejaVuSans-115"/>
      <use x="152.832031" xlink:href="#DejaVuSans-116"/>
     </g>
    </g>
   </g>
  </g>
 </g>
 <defs>
  <clipPath id="p7e968b8bf8">
   <rect height="217.44" width="334.8" x="54" y="34.56"/>
  </clipPath>
 </defs>
</svg>
