<?xml version="1.0" encoding="utf-8" standalone="no"?>
<!DOCTYPE svg PUBLIC "-//W3C//DTD SVG 1.1//EN"
  "http://www.w3.org/Graphics/SVG/1.1/DTD/svg11.dtd">
<!-- Created with matplotlib (https://matplotlib.org/) -->
<svg height="288pt" version="1.1" viewBox="0 0 432 288" width="432pt" xmlns="http://www.w3.org/2000/svg" xmlns:xlink="http://www.w3.org/1999/xlink">
 <metadata>
  <rdf:RDF xmlns:cc="http://creativecommons.org/ns#" xmlns:dc="http://purl.org/dc/elements/1.1/" xmlns:rdf="http://www.w3.org/1999/02/22-rdf-syntax-ns#">
   <cc:Work>
    <dc:type rdf:resource="http://purl.org/dc/dcmitype/StillImage"/>
    <dc:date>2022-04-29T12:19:41.227367</dc:date>
    <dc:format>image/svg+xml</dc:format>
    <dc:creator>
     <cc:Agent>
      <dc:title>Matplotlib v3.3.4, https://matplotlib.org/</dc:title>
     </cc:Agent>
    </dc:creator>
   </cc:Work>
  </rdf:RDF>
 </metadata>
 <defs>
  <style type="text/css">*{stroke-linecap:butt;stroke-linejoin:round;}</style>
 </defs>
 <g id="figure_1">
  <g id="patch_1">
   <path d="M 0 288 
L 432 288 
L 432 0 
L 0 0 
z
" style="fill:#ffffff;"/>
  </g>
  <g id="axes_1">
   <g id="patch_2">
    <path d="M 54 252 
L 388.8 252 
L 388.8 34.56 
L 54 34.56 
z
" style="fill:#ffffff;"/>
   </g>
   <g id="PolyCollection_1">
    <defs>
     <path d="M 80.06364 -102.570461 
L 80.01636 -102.570461 
L 80.016414 -103.994561 
L 80.018808 -105.418661 
L 80.022178 -106.842761 
L 80.024726 -108.266861 
L 80.025035 -109.690961 
L 80.022661 -111.115061 
L 80.018217 -112.539161 
L 80.012948 -113.963261 
L 80.008017 -115.387361 
L 80.003942 -116.811461 
L 80.000533 -118.235561 
L 79.997306 -119.659661 
L 79.993943 -121.083761 
L 79.99033 -122.507861 
L 79.986173 -123.931961 
L 79.980557 -125.356061 
L 79.971864 -126.780161 
L 79.958206 -128.204261 
L 79.938264 -129.628362 
L 79.912282 -131.052462 
L 79.88279 -132.476562 
L 79.854506 -133.900662 
L 79.833014 -135.324762 
L 79.822508 -136.748862 
L 79.823795 -138.172962 
L 79.83396 -139.597062 
L 79.848079 -141.021162 
L 79.861702 -142.445262 
L 79.872204 -143.869362 
L 79.878194 -145.293462 
L 79.878031 -146.717562 
L 79.869154 -148.141662 
L 79.848937 -149.565762 
L 79.816274 -150.989862 
L 79.772592 -152.413962 
L 79.721524 -153.838062 
L 79.667528 -155.262162 
L 79.614327 -156.686262 
L 79.564112 -158.110362 
L 79.517729 -159.534462 
L 79.475272 -160.958562 
L 79.436408 -162.382662 
L 79.400387 -163.806762 
L 79.366072 -165.230862 
L 79.331875 -166.654962 
L 79.295213 -168.079062 
L 79.251726 -169.503162 
L 79.195451 -170.927262 
L 79.120749 -172.351362 
L 79.025239 -173.775462 
L 78.911786 -175.199562 
L 78.787877 -176.623662 
L 78.66236 -178.047762 
L 78.541365 -179.471862 
L 78.425985 -180.895962 
L 78.313191 -182.320062 
L 78.199055 -183.744163 
L 78.08175 -185.168263 
L 77.962496 -186.592363 
L 77.844445 -188.016463 
L 77.730655 -189.440563 
L 77.622434 -190.864663 
L 77.51926 -192.288763 
L 77.420733 -193.712863 
L 77.329089 -195.136963 
L 77.24922 -196.561063 
L 77.184811 -197.985163 
L 77.133311 -199.409263 
L 77.084461 -200.833363 
L 77.024286 -202.257463 
L 76.941724 -203.681563 
L 76.832837 -205.105663 
L 76.699114 -206.529763 
L 76.539718 -207.953863 
L 76.340688 -209.377963 
L 76.066292 -210.802063 
L 75.657714 -212.226163 
L 75.041568 -213.650263 
L 74.147324 -215.074363 
L 72.931444 -216.498463 
L 71.406189 -217.922563 
L 69.667782 -219.346663 
L 67.909742 -220.770763 
L 66.40105 -222.194863 
L 65.419533 -223.618963 
L 65.16 -225.043063 
L 65.663068 -226.467163 
L 66.806739 -227.891263 
L 68.365435 -229.315363 
L 70.099318 -230.739463 
L 71.823953 -232.163563 
L 73.432791 -233.587663 
L 74.879321 -235.011763 
L 76.145508 -236.435864 
L 77.219962 -237.859964 
L 78.093496 -239.284064 
L 78.765567 -240.708164 
L 79.250638 -242.132264 
L 79.577802 -243.556364 
L 80.502198 -243.556364 
L 80.502198 -243.556364 
L 80.829362 -242.132264 
L 81.314433 -240.708164 
L 81.986504 -239.284064 
L 82.860038 -237.859964 
L 83.934492 -236.435864 
L 85.200679 -235.011763 
L 86.647209 -233.587663 
L 88.256047 -232.163563 
L 89.980682 -230.739463 
L 91.714565 -229.315363 
L 93.273261 -227.891263 
L 94.416932 -226.467163 
L 94.92 -225.043063 
L 94.660467 -223.618963 
L 93.67895 -222.194863 
L 92.170258 -220.770763 
L 90.412218 -219.346663 
L 88.673811 -217.922563 
L 87.148556 -216.498463 
L 85.932676 -215.074363 
L 85.038432 -213.650263 
L 84.422286 -212.226163 
L 84.013708 -210.802063 
L 83.739312 -209.377963 
L 83.540282 -207.953863 
L 83.380886 -206.529763 
L 83.247163 -205.105663 
L 83.138276 -203.681563 
L 83.055714 -202.257463 
L 82.995539 -200.833363 
L 82.946689 -199.409263 
L 82.895189 -197.985163 
L 82.83078 -196.561063 
L 82.750911 -195.136963 
L 82.659267 -193.712863 
L 82.56074 -192.288763 
L 82.457566 -190.864663 
L 82.349345 -189.440563 
L 82.235555 -188.016463 
L 82.117504 -186.592363 
L 81.99825 -185.168263 
L 81.880945 -183.744163 
L 81.766809 -182.320062 
L 81.654015 -180.895962 
L 81.538635 -179.471862 
L 81.41764 -178.047762 
L 81.292123 -176.623662 
L 81.168214 -175.199562 
L 81.054761 -173.775462 
L 80.959251 -172.351362 
L 80.884549 -170.927262 
L 80.828274 -169.503162 
L 80.784787 -168.079062 
L 80.748125 -166.654962 
L 80.713928 -165.230862 
L 80.679613 -163.806762 
L 80.643592 -162.382662 
L 80.604728 -160.958562 
L 80.562271 -159.534462 
L 80.515888 -158.110362 
L 80.465673 -156.686262 
L 80.412472 -155.262162 
L 80.358476 -153.838062 
L 80.307408 -152.413962 
L 80.263726 -150.989862 
L 80.231063 -149.565762 
L 80.210846 -148.141662 
L 80.201969 -146.717562 
L 80.201806 -145.293462 
L 80.207796 -143.869362 
L 80.218298 -142.445262 
L 80.231921 -141.021162 
L 80.24604 -139.597062 
L 80.256205 -138.172962 
L 80.257492 -136.748862 
L 80.246986 -135.324762 
L 80.225494 -133.900662 
L 80.19721 -132.476562 
L 80.167718 -131.052462 
L 80.141736 -129.628362 
L 80.121794 -128.204261 
L 80.108136 -126.780161 
L 80.099443 -125.356061 
L 80.093827 -123.931961 
L 80.08967 -122.507861 
L 80.086057 -121.083761 
L 80.082694 -119.659661 
L 80.079467 -118.235561 
L 80.076058 -116.811461 
L 80.071983 -115.387361 
L 80.067052 -113.963261 
L 80.061783 -112.539161 
L 80.057339 -111.115061 
L 80.054965 -109.690961 
L 80.055274 -108.266861 
L 80.057822 -106.842761 
L 80.061192 -105.418661 
L 80.063586 -103.994561 
L 80.06364 -102.570461 
z
" id="m32c4c55182" style="stroke:#3d3d3d;stroke-width:1.5;"/>
    </defs>
    <g clip-path="url(#p58e0ebac58)">
     <use style="fill:#3274a1;stroke:#3d3d3d;stroke-width:1.5;" x="0" xlink:href="#m32c4c55182" y="288"/>
    </g>
   </g>
   <g id="PolyCollection_2">
    <defs>
     <path d="M 221.438784 -45.883636 
L 221.361216 -45.883636 
L 221.350235 -47.514427 
L 221.337231 -49.145217 
L 221.321951 -50.776007 
L 221.304299 -52.406797 
L 221.284335 -54.037588 
L 221.262188 -55.668378 
L 221.237953 -57.299168 
L 221.211588 -58.929959 
L 221.182893 -60.560749 
L 221.151705 -62.191539 
L 221.118427 -63.822329 
L 221.084667 -65.45312 
L 221.053462 -67.08391 
L 221.028517 -68.7147 
L 221.012505 -70.34549 
L 221.0053 -71.976281 
L 221.003314 -73.607071 
L 221.000542 -75.237861 
L 220.990776 -76.868652 
L 220.969735 -78.499442 
L 220.936053 -80.130232 
L 220.891008 -81.761022 
L 220.837576 -83.391813 
L 220.779466 -85.022603 
L 220.720325 -86.653393 
L 220.66302 -88.284184 
L 220.608975 -89.914974 
L 220.557776 -91.545764 
L 220.50725 -93.176554 
L 220.453997 -94.807345 
L 220.394139 -96.438135 
L 220.324025 -98.068925 
L 220.240754 -99.699715 
L 220.142498 -101.330506 
L 220.028624 -102.961296 
L 219.899628 -104.592086 
L 219.756967 -106.222877 
L 219.602882 -107.853667 
L 219.440226 -109.484457 
L 219.272071 -111.115247 
L 219.100837 -112.746038 
L 218.927026 -114.376828 
L 218.748312 -116.007618 
L 218.559982 -117.638408 
L 218.357194 -119.269199 
L 218.138222 -120.899989 
L 217.906963 -122.530779 
L 217.673149 -124.16157 
L 217.449885 -125.79236 
L 217.249522 -127.42315 
L 217.079598 -129.05394 
L 216.940384 -130.684731 
L 216.824796 -132.315521 
L 216.720456 -133.946311 
L 216.613023 -135.577101 
L 216.489687 -137.207892 
L 216.341709 -138.838682 
L 216.16504 -140.469472 
L 215.958488 -142.100263 
L 215.720079 -143.731053 
L 215.443656 -145.361843 
L 215.118259 -146.992633 
L 214.731351 -148.623424 
L 214.2744 -150.254214 
L 213.747583 -151.885004 
L 213.161029 -153.515795 
L 212.532334 -155.146585 
L 211.882139 -156.777375 
L 211.230045 -158.408165 
L 210.592132 -160.038956 
L 209.980157 -161.669746 
L 209.401779 -163.300536 
L 208.861142 -164.931326 
L 208.359549 -166.562117 
L 207.89674 -168.192907 
L 207.473794 -169.823697 
L 207.098134 -171.454488 
L 206.789186 -173.085278 
L 206.581265 -174.716068 
L 206.52 -176.346858 
L 206.651263 -177.977649 
L 207.006009 -179.608439 
L 207.587824 -181.239229 
L 208.369827 -182.870019 
L 209.303172 -184.50081 
L 210.333105 -186.1316 
L 211.414255 -187.76239 
L 212.51767 -189.393181 
L 213.627558 -191.023971 
L 214.731922 -192.654761 
L 215.813954 -194.285551 
L 216.848962 -195.916342 
L 217.807298 -197.547132 
L 218.660515 -199.177922 
L 219.387479 -200.808712 
L 219.978304 -202.439503 
L 220.435358 -204.070293 
L 220.771567 -205.701083 
L 221.006802 -207.331874 
L 221.793198 -207.331874 
L 221.793198 -207.331874 
L 222.028433 -205.701083 
L 222.364642 -204.070293 
L 222.821696 -202.439503 
L 223.412521 -200.808712 
L 224.139485 -199.177922 
L 224.992702 -197.547132 
L 225.951038 -195.916342 
L 226.986046 -194.285551 
L 228.068078 -192.654761 
L 229.172442 -191.023971 
L 230.28233 -189.393181 
L 231.385745 -187.76239 
L 232.466895 -186.1316 
L 233.496828 -184.50081 
L 234.430173 -182.870019 
L 235.212176 -181.239229 
L 235.793991 -179.608439 
L 236.148737 -177.977649 
L 236.28 -176.346858 
L 236.218735 -174.716068 
L 236.010814 -173.085278 
L 235.701866 -171.454488 
L 235.326206 -169.823697 
L 234.90326 -168.192907 
L 234.440451 -166.562117 
L 233.938858 -164.931326 
L 233.398221 -163.300536 
L 232.819843 -161.669746 
L 232.207868 -160.038956 
L 231.569955 -158.408165 
L 230.917861 -156.777375 
L 230.267666 -155.146585 
L 229.638971 -153.515795 
L 229.052417 -151.885004 
L 228.5256 -150.254214 
L 228.068649 -148.623424 
L 227.681741 -146.992633 
L 227.356344 -145.361843 
L 227.079921 -143.731053 
L 226.841512 -142.100263 
L 226.63496 -140.469472 
L 226.458291 -138.838682 
L 226.310313 -137.207892 
L 226.186977 -135.577101 
L 226.079544 -133.946311 
L 225.975204 -132.315521 
L 225.859616 -130.684731 
L 225.720402 -129.05394 
L 225.550478 -127.42315 
L 225.350115 -125.79236 
L 225.126851 -124.16157 
L 224.893037 -122.530779 
L 224.661778 -120.899989 
L 224.442806 -119.269199 
L 224.240018 -117.638408 
L 224.051688 -116.007618 
L 223.872974 -114.376828 
L 223.699163 -112.746038 
L 223.527929 -111.115247 
L 223.359774 -109.484457 
L 223.197118 -107.853667 
L 223.043033 -106.222877 
L 222.900372 -104.592086 
L 222.771376 -102.961296 
L 222.657502 -101.330506 
L 222.559246 -99.699715 
L 222.475975 -98.068925 
L 222.405861 -96.438135 
L 222.346003 -94.807345 
L 222.29275 -93.176554 
L 222.242224 -91.545764 
L 222.191025 -89.914974 
L 222.13698 -88.284184 
L 222.079675 -86.653393 
L 222.020534 -85.022603 
L 221.962424 -83.391813 
L 221.908992 -81.761022 
L 221.863947 -80.130232 
L 221.830265 -78.499442 
L 221.809224 -76.868652 
L 221.799458 -75.237861 
L 221.796686 -73.607071 
L 221.7947 -71.976281 
L 221.787495 -70.34549 
L 221.771483 -68.7147 
L 221.746538 -67.08391 
L 221.715333 -65.45312 
L 221.681573 -63.822329 
L 221.648295 -62.191539 
L 221.617107 -60.560749 
L 221.588412 -58.929959 
L 221.562047 -57.299168 
L 221.537812 -55.668378 
L 221.515665 -54.037588 
L 221.495701 -52.406797 
L 221.478049 -50.776007 
L 221.462769 -49.145217 
L 221.449765 -47.514427 
L 221.438784 -45.883636 
z
" id="m0842886411" style="stroke:#3d3d3d;stroke-width:1.5;"/>
    </defs>
    <g clip-path="url(#p58e0ebac58)">
     <use style="fill:#e1812c;stroke:#3d3d3d;stroke-width:1.5;" x="0" xlink:href="#m0842886411" y="288"/>
    </g>
   </g>
   <g id="PolyCollection_3">
    <defs>
     <path d="M 362.774919 -76.865843 
L 362.745081 -76.865843 
L 362.746147 -78.403226 
L 362.748908 -79.94061 
L 362.752337 -81.477994 
L 362.755414 -83.015377 
L 362.757556 -84.552761 
L 362.758635 -86.090144 
L 362.75871 -87.627528 
L 362.75777 -89.164911 
L 362.755681 -90.702295 
L 362.752352 -92.239678 
L 362.747942 -93.777062 
L 362.742855 -95.314445 
L 362.737411 -96.851829 
L 362.73144 -98.389213 
L 362.724237 -99.926596 
L 362.715052 -101.46398 
L 362.703808 -103.001363 
L 362.69145 -104.538747 
L 362.679606 -106.07613 
L 362.669706 -107.613514 
L 362.662139 -109.150897 
L 362.656036 -110.688281 
L 362.64981 -112.225664 
L 362.641948 -113.763048 
L 362.631608 -115.300432 
L 362.619093 -116.837815 
L 362.60633 -118.375199 
L 362.596712 -119.912582 
L 362.593419 -121.449966 
L 362.596715 -122.987349 
L 362.60243 -124.524733 
L 362.603457 -126.062116 
L 362.593433 -127.5995 
L 362.569842 -129.136884 
L 362.534426 -130.674267 
L 362.491345 -132.211651 
L 362.445095 -133.749034 
L 362.399541 -135.286418 
L 362.357544 -136.823801 
L 362.31994 -138.361185 
L 362.284128 -139.898568 
L 362.244568 -141.435952 
L 362.196626 -142.973335 
L 362.141455 -144.510719 
L 362.087113 -146.048103 
L 362.043784 -147.585486 
L 362.016501 -149.12287 
L 362.001356 -150.660253 
L 361.98812 -152.197637 
L 361.966766 -153.73502 
L 361.932546 -155.272404 
L 361.886015 -156.809787 
L 361.828701 -158.347171 
L 361.758597 -159.884555 
L 361.669591 -161.421938 
L 361.555547 -162.959322 
L 361.415503 -164.496705 
L 361.2552 -166.034089 
L 361.083551 -167.571472 
L 360.90757 -169.108856 
L 360.730512 -170.646239 
L 360.553959 -172.183623 
L 360.380087 -173.721006 
L 360.210632 -175.25839 
L 360.043371 -176.795774 
L 359.870058 -178.333157 
L 359.678789 -179.870541 
L 359.460199 -181.407924 
L 359.213585 -182.945308 
L 358.948423 -184.482691 
L 358.679135 -186.020075 
L 358.415314 -187.557458 
L 358.15299 -189.094842 
L 357.872735 -190.632226 
L 357.54707 -192.169609 
L 357.15412 -193.706993 
L 356.689622 -195.244376 
L 356.169225 -196.78176 
L 355.618409 -198.319143 
L 355.054839 -199.856527 
L 354.472682 -201.39391 
L 353.838551 -202.931294 
L 353.104374 -204.468677 
L 352.234104 -206.006061 
L 351.232473 -207.543445 
L 350.162076 -209.080828 
L 349.141671 -210.618212 
L 348.327045 -212.155595 
L 347.88 -213.692979 
L 347.932559 -215.230362 
L 348.55528 -216.767746 
L 349.738401 -218.305129 
L 351.390296 -219.842513 
L 353.352224 -221.379897 
L 355.425517 -222.91728 
L 357.407126 -224.454664 
L 359.127955 -225.992047 
L 360.484452 -227.529431 
L 361.451958 -229.066814 
L 364.068042 -229.066814 
L 364.068042 -229.066814 
L 365.035548 -227.529431 
L 366.392045 -225.992047 
L 368.112874 -224.454664 
L 370.094483 -222.91728 
L 372.167776 -221.379897 
L 374.129704 -219.842513 
L 375.781599 -218.305129 
L 376.96472 -216.767746 
L 377.587441 -215.230362 
L 377.64 -213.692979 
L 377.192955 -212.155595 
L 376.378329 -210.618212 
L 375.357924 -209.080828 
L 374.287527 -207.543445 
L 373.285896 -206.006061 
L 372.415626 -204.468677 
L 371.681449 -202.931294 
L 371.047318 -201.39391 
L 370.465161 -199.856527 
L 369.901591 -198.319143 
L 369.350775 -196.78176 
L 368.830378 -195.244376 
L 368.36588 -193.706993 
L 367.97293 -192.169609 
L 367.647265 -190.632226 
L 367.36701 -189.094842 
L 367.104686 -187.557458 
L 366.840865 -186.020075 
L 366.571577 -184.482691 
L 366.306415 -182.945308 
L 366.059801 -181.407924 
L 365.841211 -179.870541 
L 365.649942 -178.333157 
L 365.476629 -176.795774 
L 365.309368 -175.25839 
L 365.139913 -173.721006 
L 364.966041 -172.183623 
L 364.789488 -170.646239 
L 364.61243 -169.108856 
L 364.436449 -167.571472 
L 364.2648 -166.034089 
L 364.104497 -164.496705 
L 363.964453 -162.959322 
L 363.850409 -161.421938 
L 363.761403 -159.884555 
L 363.691299 -158.347171 
L 363.633985 -156.809787 
L 363.587454 -155.272404 
L 363.553234 -153.73502 
L 363.53188 -152.197637 
L 363.518644 -150.660253 
L 363.503499 -149.12287 
L 363.476216 -147.585486 
L 363.432887 -146.048103 
L 363.378545 -144.510719 
L 363.323374 -142.973335 
L 363.275432 -141.435952 
L 363.235872 -139.898568 
L 363.20006 -138.361185 
L 363.162456 -136.823801 
L 363.120459 -135.286418 
L 363.074905 -133.749034 
L 363.028655 -132.211651 
L 362.985574 -130.674267 
L 362.950158 -129.136884 
L 362.926567 -127.5995 
L 362.916543 -126.062116 
L 362.91757 -124.524733 
L 362.923285 -122.987349 
L 362.926581 -121.449966 
L 362.923288 -119.912582 
L 362.91367 -118.375199 
L 362.900907 -116.837815 
L 362.888392 -115.300432 
L 362.878052 -113.763048 
L 362.87019 -112.225664 
L 362.863964 -110.688281 
L 362.857861 -109.150897 
L 362.850294 -107.613514 
L 362.840394 -106.07613 
L 362.82855 -104.538747 
L 362.816192 -103.001363 
L 362.804948 -101.46398 
L 362.795763 -99.926596 
L 362.78856 -98.389213 
L 362.782589 -96.851829 
L 362.777145 -95.314445 
L 362.772058 -93.777062 
L 362.767648 -92.239678 
L 362.764319 -90.702295 
L 362.76223 -89.164911 
L 362.76129 -87.627528 
L 362.761365 -86.090144 
L 362.762444 -84.552761 
L 362.764586 -83.015377 
L 362.767663 -81.477994 
L 362.771092 -79.94061 
L 362.773853 -78.403226 
L 362.774919 -76.865843 
z
" id="mb24c396266" style="stroke:#3d3d3d;stroke-width:1.5;"/>
    </defs>
    <g clip-path="url(#p58e0ebac58)">
     <use style="fill:#3a923a;stroke:#3d3d3d;stroke-width:1.5;" x="0" xlink:href="#mb24c396266" y="288"/>
    </g>
   </g>
   <g id="patch_3">
    <path clip-path="url(#p58e0ebac58)" d="M 109.8 68.58069 
L 109.8 68.58069 
L 109.8 68.58069 
L 109.8 68.58069 
z
" style="fill:#3274a1;stroke:#3d3d3d;stroke-linejoin:miter;stroke-width:0.75;"/>
   </g>
   <g id="patch_4">
    <path clip-path="url(#p58e0ebac58)" d="M 109.8 68.58069 
L 109.8 68.58069 
L 109.8 68.58069 
L 109.8 68.58069 
z
" style="fill:#e1812c;stroke:#3d3d3d;stroke-linejoin:miter;stroke-width:0.75;"/>
   </g>
   <g id="patch_5">
    <path clip-path="url(#p58e0ebac58)" d="M 109.8 68.58069 
L 109.8 68.58069 
L 109.8 68.58069 
L 109.8 68.58069 
z
" style="fill:#3a923a;stroke:#3d3d3d;stroke-linejoin:miter;stroke-width:0.75;"/>
   </g>
   <g id="matplotlib.axis_1">
    <g id="xtick_1">
     <g id="line2d_1">
      <defs>
       <path d="M 0 0 
L 0 3.5 
" id="m80d01ee1f9" style="stroke:#000000;stroke-width:0.8;"/>
      </defs>
      <g>
       <use style="stroke:#000000;stroke-width:0.8;" x="109.8" xlink:href="#m80d01ee1f9" y="252"/>
      </g>
     </g>
     <g id="text_1">
      <!-- Z_1_ns -->
      <g transform="translate(92.420312 266.320312)scale(0.1 -0.1)">
       <defs>
        <path d="M 5.609375 72.90625 
L 62.890625 72.90625 
L 62.890625 65.375 
L 16.796875 8.296875 
L 64.015625 8.296875 
L 64.015625 0 
L 4.5 0 
L 4.5 7.515625 
L 50.59375 64.59375 
L 5.609375 64.59375 
z
" id="DejaVuSans-90"/>
        <path d="M 50.984375 -16.609375 
L 50.984375 -23.578125 
L -0.984375 -23.578125 
L -0.984375 -16.609375 
z
" id="DejaVuSans-95"/>
        <path d="M 12.40625 8.296875 
L 28.515625 8.296875 
L 28.515625 63.921875 
L 10.984375 60.40625 
L 10.984375 69.390625 
L 28.421875 72.90625 
L 38.28125 72.90625 
L 38.28125 8.296875 
L 54.390625 8.296875 
L 54.390625 0 
L 12.40625 0 
z
" id="DejaVuSans-49"/>
        <path d="M 54.890625 33.015625 
L 54.890625 0 
L 45.90625 0 
L 45.90625 32.71875 
Q 45.90625 40.484375 42.875 44.328125 
Q 39.84375 48.1875 33.796875 48.1875 
Q 26.515625 48.1875 22.3125 43.546875 
Q 18.109375 38.921875 18.109375 30.90625 
L 18.109375 0 
L 9.078125 0 
L 9.078125 54.6875 
L 18.109375 54.6875 
L 18.109375 46.1875 
Q 21.34375 51.125 25.703125 53.5625 
Q 30.078125 56 35.796875 56 
Q 45.21875 56 50.046875 50.171875 
Q 54.890625 44.34375 54.890625 33.015625 
z
" id="DejaVuSans-110"/>
        <path d="M 44.28125 53.078125 
L 44.28125 44.578125 
Q 40.484375 46.53125 36.375 47.5 
Q 32.28125 48.484375 27.875 48.484375 
Q 21.1875 48.484375 17.84375 46.4375 
Q 14.5 44.390625 14.5 40.28125 
Q 14.5 37.15625 16.890625 35.375 
Q 19.28125 33.59375 26.515625 31.984375 
L 29.59375 31.296875 
Q 39.15625 29.25 43.1875 25.515625 
Q 47.21875 21.78125 47.21875 15.09375 
Q 47.21875 7.46875 41.1875 3.015625 
Q 35.15625 -1.421875 24.609375 -1.421875 
Q 20.21875 -1.421875 15.453125 -0.5625 
Q 10.6875 0.296875 5.421875 2 
L 5.421875 11.28125 
Q 10.40625 8.6875 15.234375 7.390625 
Q 20.0625 6.109375 24.8125 6.109375 
Q 31.15625 6.109375 34.5625 8.28125 
Q 37.984375 10.453125 37.984375 14.40625 
Q 37.984375 18.0625 35.515625 20.015625 
Q 33.0625 21.96875 24.703125 23.78125 
L 21.578125 24.515625 
Q 13.234375 26.265625 9.515625 29.90625 
Q 5.8125 33.546875 5.8125 39.890625 
Q 5.8125 47.609375 11.28125 51.796875 
Q 16.75 56 26.8125 56 
Q 31.78125 56 36.171875 55.265625 
Q 40.578125 54.546875 44.28125 53.078125 
z
" id="DejaVuSans-115"/>
       </defs>
       <use xlink:href="#DejaVuSans-90"/>
       <use x="68.505859" xlink:href="#DejaVuSans-95"/>
       <use x="118.505859" xlink:href="#DejaVuSans-49"/>
       <use x="182.128906" xlink:href="#DejaVuSans-95"/>
       <use x="232.128906" xlink:href="#DejaVuSans-110"/>
       <use x="295.507812" xlink:href="#DejaVuSans-115"/>
      </g>
     </g>
    </g>
    <g id="xtick_2">
     <g id="line2d_2">
      <g>
       <use style="stroke:#000000;stroke-width:0.8;" x="221.4" xlink:href="#m80d01ee1f9" y="252"/>
      </g>
     </g>
     <g id="text_2">
      <!-- Z_2_ns -->
      <g transform="translate(204.020312 266.421875)scale(0.1 -0.1)">
       <defs>
        <path d="M 19.1875 8.296875 
L 53.609375 8.296875 
L 53.609375 0 
L 7.328125 0 
L 7.328125 8.296875 
Q 12.9375 14.109375 22.625 23.890625 
Q 32.328125 33.6875 34.8125 36.53125 
Q 39.546875 41.84375 41.421875 45.53125 
Q 43.3125 49.21875 43.3125 52.78125 
Q 43.3125 58.59375 39.234375 62.25 
Q 35.15625 65.921875 28.609375 65.921875 
Q 23.96875 65.921875 18.8125 64.3125 
Q 13.671875 62.703125 7.8125 59.421875 
L 7.8125 69.390625 
Q 13.765625 71.78125 18.9375 73 
Q 24.125 74.21875 28.421875 74.21875 
Q 39.75 74.21875 46.484375 68.546875 
Q 53.21875 62.890625 53.21875 53.421875 
Q 53.21875 48.921875 51.53125 44.890625 
Q 49.859375 40.875 45.40625 35.40625 
Q 44.1875 33.984375 37.640625 27.21875 
Q 31.109375 20.453125 19.1875 8.296875 
z
" id="DejaVuSans-50"/>
       </defs>
       <use xlink:href="#DejaVuSans-90"/>
       <use x="68.505859" xlink:href="#DejaVuSans-95"/>
       <use x="118.505859" xlink:href="#DejaVuSans-50"/>
       <use x="182.128906" xlink:href="#DejaVuSans-95"/>
       <use x="232.128906" xlink:href="#DejaVuSans-110"/>
       <use x="295.507812" xlink:href="#DejaVuSans-115"/>
      </g>
     </g>
    </g>
    <g id="xtick_3">
     <g id="line2d_3">
      <g>
       <use style="stroke:#000000;stroke-width:0.8;" x="333" xlink:href="#m80d01ee1f9" y="252"/>
      </g>
     </g>
     <g id="text_3">
      <!-- Z_3_ns -->
      <g transform="translate(315.620313 266.421875)scale(0.1 -0.1)">
       <defs>
        <path d="M 40.578125 39.3125 
Q 47.65625 37.796875 51.625 33 
Q 55.609375 28.21875 55.609375 21.1875 
Q 55.609375 10.40625 48.1875 4.484375 
Q 40.765625 -1.421875 27.09375 -1.421875 
Q 22.515625 -1.421875 17.65625 -0.515625 
Q 12.796875 0.390625 7.625 2.203125 
L 7.625 11.71875 
Q 11.71875 9.328125 16.59375 8.109375 
Q 21.484375 6.890625 26.8125 6.890625 
Q 36.078125 6.890625 40.9375 10.546875 
Q 45.796875 14.203125 45.796875 21.1875 
Q 45.796875 27.640625 41.28125 31.265625 
Q 36.765625 34.90625 28.71875 34.90625 
L 20.21875 34.90625 
L 20.21875 43.015625 
L 29.109375 43.015625 
Q 36.375 43.015625 40.234375 45.921875 
Q 44.09375 48.828125 44.09375 54.296875 
Q 44.09375 59.90625 40.109375 62.90625 
Q 36.140625 65.921875 28.71875 65.921875 
Q 24.65625 65.921875 20.015625 65.03125 
Q 15.375 64.15625 9.8125 62.3125 
L 9.8125 71.09375 
Q 15.4375 72.65625 20.34375 73.4375 
Q 25.25 74.21875 29.59375 74.21875 
Q 40.828125 74.21875 47.359375 69.109375 
Q 53.90625 64.015625 53.90625 55.328125 
Q 53.90625 49.265625 50.4375 45.09375 
Q 46.96875 40.921875 40.578125 39.3125 
z
" id="DejaVuSans-51"/>
       </defs>
       <use xlink:href="#DejaVuSans-90"/>
       <use x="68.505859" xlink:href="#DejaVuSans-95"/>
       <use x="118.505859" xlink:href="#DejaVuSans-51"/>
       <use x="182.128906" xlink:href="#DejaVuSans-95"/>
       <use x="232.128906" xlink:href="#DejaVuSans-110"/>
       <use x="295.507812" xlink:href="#DejaVuSans-115"/>
      </g>
     </g>
    </g>
    <g id="text_4">
     <!-- set -->
     <g transform="translate(213.758594 280.378125)scale(0.1 -0.1)">
      <defs>
       <path d="M 56.203125 29.59375 
L 56.203125 25.203125 
L 14.890625 25.203125 
Q 15.484375 15.921875 20.484375 11.0625 
Q 25.484375 6.203125 34.421875 6.203125 
Q 39.59375 6.203125 44.453125 7.46875 
Q 49.3125 8.734375 54.109375 11.28125 
L 54.109375 2.78125 
Q 49.265625 0.734375 44.1875 -0.34375 
Q 39.109375 -1.421875 33.890625 -1.421875 
Q 20.796875 -1.421875 13.15625 6.1875 
Q 5.515625 13.8125 5.515625 26.8125 
Q 5.515625 40.234375 12.765625 48.109375 
Q 20.015625 56 32.328125 56 
Q 43.359375 56 49.78125 48.890625 
Q 56.203125 41.796875 56.203125 29.59375 
z
M 47.21875 32.234375 
Q 47.125 39.59375 43.09375 43.984375 
Q 39.0625 48.390625 32.421875 48.390625 
Q 24.90625 48.390625 20.390625 44.140625 
Q 15.875 39.890625 15.1875 32.171875 
z
" id="DejaVuSans-101"/>
       <path d="M 18.3125 70.21875 
L 18.3125 54.6875 
L 36.8125 54.6875 
L 36.8125 47.703125 
L 18.3125 47.703125 
L 18.3125 18.015625 
Q 18.3125 11.328125 20.140625 9.421875 
Q 21.96875 7.515625 27.59375 7.515625 
L 36.8125 7.515625 
L 36.8125 0 
L 27.59375 0 
Q 17.1875 0 13.234375 3.875 
Q 9.28125 7.765625 9.28125 18.015625 
L 9.28125 47.703125 
L 2.6875 47.703125 
L 2.6875 54.6875 
L 9.28125 54.6875 
L 9.28125 70.21875 
z
" id="DejaVuSans-116"/>
      </defs>
      <use xlink:href="#DejaVuSans-115"/>
      <use x="52.099609" xlink:href="#DejaVuSans-101"/>
      <use x="113.623047" xlink:href="#DejaVuSans-116"/>
     </g>
    </g>
   </g>
   <g id="matplotlib.axis_2">
    <g id="ytick_1">
     <g id="line2d_4">
      <defs>
       <path d="M 0 0 
L -3.5 0 
" id="m33ceabd4ff" style="stroke:#000000;stroke-width:0.8;"/>
      </defs>
      <g>
       <use style="stroke:#000000;stroke-width:0.8;" x="54" xlink:href="#m33ceabd4ff" y="241.824522"/>
      </g>
     </g>
     <g id="text_5">
      <!-- −35 -->
      <g transform="translate(25.895312 245.623741)scale(0.1 -0.1)">
       <defs>
        <path d="M 10.59375 35.5 
L 73.1875 35.5 
L 73.1875 27.203125 
L 10.59375 27.203125 
z
" id="DejaVuSans-8722"/>
        <path d="M 10.796875 72.90625 
L 49.515625 72.90625 
L 49.515625 64.59375 
L 19.828125 64.59375 
L 19.828125 46.734375 
Q 21.96875 47.46875 24.109375 47.828125 
Q 26.265625 48.1875 28.421875 48.1875 
Q 40.625 48.1875 47.75 41.5 
Q 54.890625 34.8125 54.890625 23.390625 
Q 54.890625 11.625 47.5625 5.09375 
Q 40.234375 -1.421875 26.90625 -1.421875 
Q 22.3125 -1.421875 17.546875 -0.640625 
Q 12.796875 0.140625 7.71875 1.703125 
L 7.71875 11.625 
Q 12.109375 9.234375 16.796875 8.0625 
Q 21.484375 6.890625 26.703125 6.890625 
Q 35.15625 6.890625 40.078125 11.328125 
Q 45.015625 15.765625 45.015625 23.390625 
Q 45.015625 31 40.078125 35.4375 
Q 35.15625 39.890625 26.703125 39.890625 
Q 22.75 39.890625 18.8125 39.015625 
Q 14.890625 38.140625 10.796875 36.28125 
z
" id="DejaVuSans-53"/>
       </defs>
       <use xlink:href="#DejaVuSans-8722"/>
       <use x="83.789062" xlink:href="#DejaVuSans-51"/>
       <use x="147.412109" xlink:href="#DejaVuSans-53"/>
      </g>
     </g>
    </g>
    <g id="ytick_2">
     <g id="line2d_5">
      <g>
       <use style="stroke:#000000;stroke-width:0.8;" x="54" xlink:href="#m33ceabd4ff" y="217.075403"/>
      </g>
     </g>
     <g id="text_6">
      <!-- −30 -->
      <g transform="translate(25.895312 220.874622)scale(0.1 -0.1)">
       <defs>
        <path d="M 31.78125 66.40625 
Q 24.171875 66.40625 20.328125 58.90625 
Q 16.5 51.421875 16.5 36.375 
Q 16.5 21.390625 20.328125 13.890625 
Q 24.171875 6.390625 31.78125 6.390625 
Q 39.453125 6.390625 43.28125 13.890625 
Q 47.125 21.390625 47.125 36.375 
Q 47.125 51.421875 43.28125 58.90625 
Q 39.453125 66.40625 31.78125 66.40625 
z
M 31.78125 74.21875 
Q 44.046875 74.21875 50.515625 64.515625 
Q 56.984375 54.828125 56.984375 36.375 
Q 56.984375 17.96875 50.515625 8.265625 
Q 44.046875 -1.421875 31.78125 -1.421875 
Q 19.53125 -1.421875 13.0625 8.265625 
Q 6.59375 17.96875 6.59375 36.375 
Q 6.59375 54.828125 13.0625 64.515625 
Q 19.53125 74.21875 31.78125 74.21875 
z
" id="DejaVuSans-48"/>
       </defs>
       <use xlink:href="#DejaVuSans-8722"/>
       <use x="83.789062" xlink:href="#DejaVuSans-51"/>
       <use x="147.412109" xlink:href="#DejaVuSans-48"/>
      </g>
     </g>
    </g>
    <g id="ytick_3">
     <g id="line2d_6">
      <g>
       <use style="stroke:#000000;stroke-width:0.8;" x="54" xlink:href="#m33ceabd4ff" y="192.326285"/>
      </g>
     </g>
     <g id="text_7">
      <!-- −25 -->
      <g transform="translate(25.895312 196.125503)scale(0.1 -0.1)">
       <use xlink:href="#DejaVuSans-8722"/>
       <use x="83.789062" xlink:href="#DejaVuSans-50"/>
       <use x="147.412109" xlink:href="#DejaVuSans-53"/>
      </g>
     </g>
    </g>
    <g id="ytick_4">
     <g id="line2d_7">
      <g>
       <use style="stroke:#000000;stroke-width:0.8;" x="54" xlink:href="#m33ceabd4ff" y="167.577166"/>
      </g>
     </g>
     <g id="text_8">
      <!-- −20 -->
      <g transform="translate(25.895312 171.376384)scale(0.1 -0.1)">
       <use xlink:href="#DejaVuSans-8722"/>
       <use x="83.789062" xlink:href="#DejaVuSans-50"/>
       <use x="147.412109" xlink:href="#DejaVuSans-48"/>
      </g>
     </g>
    </g>
    <g id="ytick_5">
     <g id="line2d_8">
      <g>
       <use style="stroke:#000000;stroke-width:0.8;" x="54" xlink:href="#m33ceabd4ff" y="142.828047"/>
      </g>
     </g>
     <g id="text_9">
      <!-- −15 -->
      <g transform="translate(25.895312 146.627266)scale(0.1 -0.1)">
       <use xlink:href="#DejaVuSans-8722"/>
       <use x="83.789062" xlink:href="#DejaVuSans-49"/>
       <use x="147.412109" xlink:href="#DejaVuSans-53"/>
      </g>
     </g>
    </g>
    <g id="ytick_6">
     <g id="line2d_9">
      <g>
       <use style="stroke:#000000;stroke-width:0.8;" x="54" xlink:href="#m33ceabd4ff" y="118.078928"/>
      </g>
     </g>
     <g id="text_10">
      <!-- −10 -->
      <g transform="translate(25.895312 121.878147)scale(0.1 -0.1)">
       <use xlink:href="#DejaVuSans-8722"/>
       <use x="83.789062" xlink:href="#DejaVuSans-49"/>
       <use x="147.412109" xlink:href="#DejaVuSans-48"/>
      </g>
     </g>
    </g>
    <g id="ytick_7">
     <g id="line2d_10">
      <g>
       <use style="stroke:#000000;stroke-width:0.8;" x="54" xlink:href="#m33ceabd4ff" y="93.329809"/>
      </g>
     </g>
     <g id="text_11">
      <!-- −5 -->
      <g transform="translate(32.257812 97.129028)scale(0.1 -0.1)">
       <use xlink:href="#DejaVuSans-8722"/>
       <use x="83.789062" xlink:href="#DejaVuSans-53"/>
      </g>
     </g>
    </g>
    <g id="ytick_8">
     <g id="line2d_11">
      <g>
       <use style="stroke:#000000;stroke-width:0.8;" x="54" xlink:href="#m33ceabd4ff" y="68.58069"/>
      </g>
     </g>
     <g id="text_12">
      <!-- 0 -->
      <g transform="translate(40.6375 72.379909)scale(0.1 -0.1)">
       <use xlink:href="#DejaVuSans-48"/>
      </g>
     </g>
    </g>
    <g id="ytick_9">
     <g id="line2d_12">
      <g>
       <use style="stroke:#000000;stroke-width:0.8;" x="54" xlink:href="#m33ceabd4ff" y="43.831571"/>
      </g>
     </g>
     <g id="text_13">
      <!-- 5 -->
      <g transform="translate(40.6375 47.63079)scale(0.1 -0.1)">
       <use xlink:href="#DejaVuSans-53"/>
      </g>
     </g>
    </g>
    <g id="text_14">
     <!-- value -->
     <g transform="translate(19.815625 156.937813)rotate(-90)scale(0.1 -0.1)">
      <defs>
       <path d="M 2.984375 54.6875 
L 12.5 54.6875 
L 29.59375 8.796875 
L 46.6875 54.6875 
L 56.203125 54.6875 
L 35.6875 0 
L 23.484375 0 
z
" id="DejaVuSans-118"/>
       <path d="M 34.28125 27.484375 
Q 23.390625 27.484375 19.1875 25 
Q 14.984375 22.515625 14.984375 16.5 
Q 14.984375 11.71875 18.140625 8.90625 
Q 21.296875 6.109375 26.703125 6.109375 
Q 34.1875 6.109375 38.703125 11.40625 
Q 43.21875 16.703125 43.21875 25.484375 
L 43.21875 27.484375 
z
M 52.203125 31.203125 
L 52.203125 0 
L 43.21875 0 
L 43.21875 8.296875 
Q 40.140625 3.328125 35.546875 0.953125 
Q 30.953125 -1.421875 24.3125 -1.421875 
Q 15.921875 -1.421875 10.953125 3.296875 
Q 6 8.015625 6 15.921875 
Q 6 25.140625 12.171875 29.828125 
Q 18.359375 34.515625 30.609375 34.515625 
L 43.21875 34.515625 
L 43.21875 35.40625 
Q 43.21875 41.609375 39.140625 45 
Q 35.0625 48.390625 27.6875 48.390625 
Q 23 48.390625 18.546875 47.265625 
Q 14.109375 46.140625 10.015625 43.890625 
L 10.015625 52.203125 
Q 14.9375 54.109375 19.578125 55.046875 
Q 24.21875 56 28.609375 56 
Q 40.484375 56 46.34375 49.84375 
Q 52.203125 43.703125 52.203125 31.203125 
z
" id="DejaVuSans-97"/>
       <path d="M 9.421875 75.984375 
L 18.40625 75.984375 
L 18.40625 0 
L 9.421875 0 
z
" id="DejaVuSans-108"/>
       <path d="M 8.5 21.578125 
L 8.5 54.6875 
L 17.484375 54.6875 
L 17.484375 21.921875 
Q 17.484375 14.15625 20.5 10.265625 
Q 23.53125 6.390625 29.59375 6.390625 
Q 36.859375 6.390625 41.078125 11.03125 
Q 45.3125 15.671875 45.3125 23.6875 
L 45.3125 54.6875 
L 54.296875 54.6875 
L 54.296875 0 
L 45.3125 0 
L 45.3125 8.40625 
Q 42.046875 3.421875 37.71875 1 
Q 33.40625 -1.421875 27.6875 -1.421875 
Q 18.265625 -1.421875 13.375 4.4375 
Q 8.5 10.296875 8.5 21.578125 
z
M 31.109375 56 
z
" id="DejaVuSans-117"/>
      </defs>
      <use xlink:href="#DejaVuSans-118"/>
      <use x="59.179688" xlink:href="#DejaVuSans-97"/>
      <use x="120.458984" xlink:href="#DejaVuSans-108"/>
      <use x="148.242188" xlink:href="#DejaVuSans-117"/>
      <use x="211.621094" xlink:href="#DejaVuSans-101"/>
     </g>
    </g>
   </g>
   <g id="line2d_13">
    <path clip-path="url(#p58e0ebac58)" d="M 80.04 112.033184 
L 80.04 44.443636 
" style="fill:none;stroke:#3d3d3d;stroke-linecap:square;stroke-width:1.5;"/>
   </g>
   <g id="line2d_14">
    <path clip-path="url(#p58e0ebac58)" d="M 80.04 81.707717 
L 80.04 61.386697 
" style="fill:none;stroke:#3d3d3d;stroke-linecap:square;stroke-width:4.5;"/>
   </g>
   <g id="line2d_15">
    <path clip-path="url(#p58e0ebac58)" d="M 221.4 190.041987 
L 221.4 80.668126 
" style="fill:none;stroke:#3d3d3d;stroke-linecap:square;stroke-width:1.5;"/>
   </g>
   <g id="line2d_16">
    <path clip-path="url(#p58e0ebac58)" d="M 221.4 141.538179 
L 221.4 108.838992 
" style="fill:none;stroke:#3d3d3d;stroke-linecap:square;stroke-width:4.5;"/>
   </g>
   <g id="line2d_17">
    <path clip-path="url(#p58e0ebac58)" d="M 362.76 128.428663 
L 362.76 58.933186 
" style="fill:none;stroke:#3d3d3d;stroke-linecap:square;stroke-width:1.5;"/>
   </g>
   <g id="line2d_18">
    <path clip-path="url(#p58e0ebac58)" d="M 362.76 95.071885 
L 362.76 72.62668 
" style="fill:none;stroke:#3d3d3d;stroke-linecap:square;stroke-width:4.5;"/>
   </g>
   <g id="patch_6">
    <path d="M 54 252 
L 54 34.56 
" style="fill:none;stroke:#000000;stroke-linecap:square;stroke-linejoin:miter;stroke-width:0.8;"/>
   </g>
   <g id="patch_7">
    <path d="M 388.8 252 
L 388.8 34.56 
" style="fill:none;stroke:#000000;stroke-linecap:square;stroke-linejoin:miter;stroke-width:0.8;"/>
   </g>
   <g id="patch_8">
    <path d="M 54 252 
L 388.8 252 
" style="fill:none;stroke:#000000;stroke-linecap:square;stroke-linejoin:miter;stroke-width:0.8;"/>
   </g>
   <g id="patch_9">
    <path d="M 54 34.56 
L 388.8 34.56 
" style="fill:none;stroke:#000000;stroke-linecap:square;stroke-linejoin:miter;stroke-width:0.8;"/>
   </g>
   <g id="PathCollection_1">
    <defs>
     <path d="M 0 1.5 
C 0.397805 1.5 0.77937 1.341951 1.06066 1.06066 
C 1.341951 0.77937 1.5 0.397805 1.5 0 
C 1.5 -0.397805 1.341951 -0.77937 1.06066 -1.06066 
C 0.77937 -1.341951 0.397805 -1.5 0 -1.5 
C -0.397805 -1.5 -0.77937 -1.341951 -1.06066 -1.06066 
C -1.341951 -0.77937 -1.5 -0.397805 -1.5 0 
C -1.5 0.397805 -1.341951 0.77937 -1.06066 1.06066 
C -0.77937 1.341951 -0.397805 1.5 0 1.5 
z
" id="m2733c79f06" style="stroke:#3d3d3d;"/>
    </defs>
    <g clip-path="url(#p58e0ebac58)">
     <use style="fill:#ffffff;stroke:#3d3d3d;" x="80.04" xlink:href="#m2733c79f06" y="65.864854"/>
    </g>
   </g>
   <g id="PathCollection_2">
    <g clip-path="url(#p58e0ebac58)">
     <use style="fill:#ffffff;stroke:#3d3d3d;" x="221.4" xlink:href="#m2733c79f06" y="121.296146"/>
    </g>
   </g>
   <g id="PathCollection_3">
    <g clip-path="url(#p58e0ebac58)">
     <use style="fill:#ffffff;stroke:#3d3d3d;" x="362.76" xlink:href="#m2733c79f06" y="80.216504"/>
    </g>
   </g>
   <g id="legend_1">
    <g id="patch_10">
     <path d="M 61 247 
L 127.759375 247 
Q 129.759375 247 129.759375 245 
L 129.759375 186.453125 
Q 129.759375 184.453125 127.759375 184.453125 
L 61 184.453125 
Q 59 184.453125 59 186.453125 
L 59 245 
Q 59 247 61 247 
z
" style="fill:#ffffff;opacity:0.8;stroke:#cccccc;stroke-linejoin:miter;"/>
    </g>
    <g id="text_15">
     <!-- set -->
     <g transform="translate(86.738281 196.051562)scale(0.1 -0.1)">
      <use xlink:href="#DejaVuSans-115"/>
      <use x="52.099609" xlink:href="#DejaVuSans-101"/>
      <use x="113.623047" xlink:href="#DejaVuSans-116"/>
     </g>
    </g>
    <g id="patch_11">
     <path d="M 63 210.729687 
L 83 210.729687 
L 83 203.729687 
L 63 203.729687 
z
" style="fill:#3274a1;stroke:#3d3d3d;stroke-linejoin:miter;stroke-width:0.75;"/>
    </g>
    <g id="text_16">
     <!-- Z_1_ns -->
     <g transform="translate(91 210.729687)scale(0.1 -0.1)">
      <use xlink:href="#DejaVuSans-90"/>
      <use x="68.505859" xlink:href="#DejaVuSans-95"/>
      <use x="118.505859" xlink:href="#DejaVuSans-49"/>
      <use x="182.128906" xlink:href="#DejaVuSans-95"/>
      <use x="232.128906" xlink:href="#DejaVuSans-110"/>
      <use x="295.507812" xlink:href="#DejaVuSans-115"/>
     </g>
    </g>
    <g id="patch_12">
     <path d="M 63 225.685937 
L 83 225.685937 
L 83 218.685937 
L 63 218.685937 
z
" style="fill:#e1812c;stroke:#3d3d3d;stroke-linejoin:miter;stroke-width:0.75;"/>
    </g>
    <g id="text_17">
     <!-- Z_2_ns -->
     <g transform="translate(91 225.685937)scale(0.1 -0.1)">
      <use xlink:href="#DejaVuSans-90"/>
      <use x="68.505859" xlink:href="#DejaVuSans-95"/>
      <use x="118.505859" xlink:href="#DejaVuSans-50"/>
      <use x="182.128906" xlink:href="#DejaVuSans-95"/>
      <use x="232.128906" xlink:href="#DejaVuSans-110"/>
      <use x="295.507812" xlink:href="#DejaVuSans-115"/>
     </g>
    </g>
    <g id="patch_13">
     <path d="M 63 240.642187 
L 83 240.642187 
L 83 233.642187 
L 63 233.642187 
z
" style="fill:#3a923a;stroke:#3d3d3d;stroke-linejoin:miter;stroke-width:0.75;"/>
    </g>
    <g id="text_18">
     <!-- Z_3_ns -->
     <g transform="translate(91 240.642187)scale(0.1 -0.1)">
      <use xlink:href="#DejaVuSans-90"/>
      <use x="68.505859" xlink:href="#DejaVuSans-95"/>
      <use x="118.505859" xlink:href="#DejaVuSans-51"/>
      <use x="182.128906" xlink:href="#DejaVuSans-95"/>
      <use x="232.128906" xlink:href="#DejaVuSans-110"/>
      <use x="295.507812" xlink:href="#DejaVuSans-115"/>
     </g>
    </g>
   </g>
  </g>
 </g>
 <defs>
  <clipPath id="p58e0ebac58">
   <rect height="217.44" width="334.8" x="54" y="34.56"/>
  </clipPath>
 </defs>
</svg>
