<?xml version="1.0" encoding="utf-8" standalone="no"?>
<!DOCTYPE svg PUBLIC "-//W3C//DTD SVG 1.1//EN"
  "http://www.w3.org/Graphics/SVG/1.1/DTD/svg11.dtd">
<!-- Created with matplotlib (https://matplotlib.org/) -->
<svg height="288pt" version="1.1" viewBox="0 0 432 288" width="432pt" xmlns="http://www.w3.org/2000/svg" xmlns:xlink="http://www.w3.org/1999/xlink">
 <metadata>
  <rdf:RDF xmlns:cc="http://creativecommons.org/ns#" xmlns:dc="http://purl.org/dc/elements/1.1/" xmlns:rdf="http://www.w3.org/1999/02/22-rdf-syntax-ns#">
   <cc:Work>
    <dc:type rdf:resource="http://purl.org/dc/dcmitype/StillImage"/>
    <dc:date>2022-05-27T17:49:54.446657</dc:date>
    <dc:format>image/svg+xml</dc:format>
    <dc:creator>
     <cc:Agent>
      <dc:title>Matplotlib v3.3.4, https://matplotlib.org/</dc:title>
     </cc:Agent>
    </dc:creator>
   </cc:Work>
  </rdf:RDF>
 </metadata>
 <defs>
  <style type="text/css">*{stroke-linecap:butt;stroke-linejoin:round;}</style>
 </defs>
 <g id="figure_1">
  <g id="patch_1">
   <path d="M 0 288 
L 432 288 
L 432 0 
L 0 0 
z
" style="fill:#ffffff;"/>
  </g>
  <g id="axes_1">
   <g id="patch_2">
    <path d="M 54 252 
L 388.8 252 
L 388.8 34.56 
L 54 34.56 
z
" style="fill:#ffffff;"/>
   </g>
   <g id="PolyCollection_1">
    <defs>
     <path d="M 89.321545 -45.883636 
L 70.758455 -45.883636 
L 68.773156 -47.015469 
L 67.117055 -48.147301 
L 65.943579 -49.279134 
L 65.306159 -50.410966 
L 65.16 -51.542799 
L 65.394229 -52.674631 
L 65.87523 -53.806463 
L 66.481239 -54.938296 
L 67.118166 -56.070128 
L 67.719134 -57.201961 
L 68.237554 -58.333793 
L 68.642718 -59.465626 
L 68.920826 -60.597458 
L 69.078123 -61.729291 
L 69.140611 -62.861123 
L 69.147153 -63.992955 
L 69.137382 -65.124788 
L 69.139382 -66.25662 
L 69.162441 -67.388453 
L 69.197517 -68.520285 
L 69.224278 -69.652118 
L 69.220844 -70.78395 
L 69.171965 -71.915782 
L 69.073049 -73.047615 
L 68.929911 -74.179447 
L 68.755941 -75.31128 
L 68.568762 -76.443112 
L 68.387794 -77.574945 
L 68.232969 -78.706777 
L 68.124072 -79.83861 
L 68.0799 -80.970442 
L 68.116745 -82.102274 
L 68.246365 -83.234107 
L 68.474191 -84.365939 
L 68.798677 -85.497772 
L 69.212124 -86.629604 
L 69.702388 -87.761437 
L 70.254316 -88.893269 
L 70.850141 -90.025101 
L 71.469198 -91.156934 
L 72.088244 -92.288766 
L 72.683553 -93.420599 
L 73.234675 -94.552431 
L 73.728364 -95.684264 
L 74.160743 -96.816096 
L 74.536663 -97.947929 
L 74.866805 -99.079761 
L 75.164173 -100.211593 
L 75.441534 -101.343426 
L 75.710377 -102.475258 
L 75.980787 -103.607091 
L 76.261174 -104.738923 
L 76.557119 -105.870756 
L 76.869487 -107.002588 
L 77.192751 -108.134421 
L 77.514854 -109.266253 
L 77.819504 -110.398085 
L 78.09067 -111.529918 
L 78.31767 -112.66175 
L 78.498519 -113.793583 
L 78.639823 -114.925415 
L 78.753262 -116.057248 
L 78.850636 -117.18908 
L 78.940126 -118.320912 
L 79.025462 -119.452745 
L 79.107684 -120.584577 
L 79.187593 -121.71641 
L 79.26693 -122.848242 
L 79.347628 -123.980075 
L 79.43009 -125.111907 
L 79.512121 -126.24374 
L 79.589472 -127.375572 
L 79.657699 -128.507404 
L 79.714136 -129.639237 
L 79.758825 -130.771069 
L 79.794006 -131.902902 
L 79.822711 -133.034734 
L 79.847392 -134.166567 
L 79.869313 -135.298399 
L 79.888816 -136.430231 
L 79.905999 -137.562064 
L 79.921213 -138.693896 
L 79.935089 -139.825729 
L 79.948196 -140.957561 
L 79.960715 -142.089394 
L 79.972334 -143.221226 
L 79.982405 -144.353059 
L 79.990197 -145.484891 
L 79.995145 -146.616723 
L 79.997041 -147.748556 
L 79.996162 -148.880388 
L 79.993287 -150.012221 
L 79.989556 -151.144053 
L 79.98621 -152.275886 
L 79.98429 -153.407718 
L 79.984445 -154.539551 
L 79.986885 -155.671383 
L 79.991445 -156.803215 
L 79.997687 -157.935048 
L 80.082313 -157.935048 
L 80.082313 -157.935048 
L 80.088555 -156.803215 
L 80.093115 -155.671383 
L 80.095555 -154.539551 
L 80.09571 -153.407718 
L 80.09379 -152.275886 
L 80.090444 -151.144053 
L 80.086713 -150.012221 
L 80.083838 -148.880388 
L 80.082959 -147.748556 
L 80.084855 -146.616723 
L 80.089803 -145.484891 
L 80.097595 -144.353059 
L 80.107666 -143.221226 
L 80.119285 -142.089394 
L 80.131804 -140.957561 
L 80.144911 -139.825729 
L 80.158787 -138.693896 
L 80.174001 -137.562064 
L 80.191184 -136.430231 
L 80.210687 -135.298399 
L 80.232608 -134.166567 
L 80.257289 -133.034734 
L 80.285994 -131.902902 
L 80.321175 -130.771069 
L 80.365864 -129.639237 
L 80.422301 -128.507404 
L 80.490528 -127.375572 
L 80.567879 -126.24374 
L 80.64991 -125.111907 
L 80.732372 -123.980075 
L 80.81307 -122.848242 
L 80.892407 -121.71641 
L 80.972316 -120.584577 
L 81.054538 -119.452745 
L 81.139874 -118.320912 
L 81.229364 -117.18908 
L 81.326738 -116.057248 
L 81.440177 -114.925415 
L 81.581481 -113.793583 
L 81.76233 -112.66175 
L 81.98933 -111.529918 
L 82.260496 -110.398085 
L 82.565146 -109.266253 
L 82.887249 -108.134421 
L 83.210513 -107.002588 
L 83.522881 -105.870756 
L 83.818826 -104.738923 
L 84.099213 -103.607091 
L 84.369623 -102.475258 
L 84.638466 -101.343426 
L 84.915827 -100.211593 
L 85.213195 -99.079761 
L 85.543337 -97.947929 
L 85.919257 -96.816096 
L 86.351636 -95.684264 
L 86.845325 -94.552431 
L 87.396447 -93.420599 
L 87.991756 -92.288766 
L 88.610802 -91.156934 
L 89.229859 -90.025101 
L 89.825684 -88.893269 
L 90.377612 -87.761437 
L 90.867876 -86.629604 
L 91.281323 -85.497772 
L 91.605809 -84.365939 
L 91.833635 -83.234107 
L 91.963255 -82.102274 
L 92.0001 -80.970442 
L 91.955928 -79.83861 
L 91.847031 -78.706777 
L 91.692206 -77.574945 
L 91.511238 -76.443112 
L 91.324059 -75.31128 
L 91.150089 -74.179447 
L 91.006951 -73.047615 
L 90.908035 -71.915782 
L 90.859156 -70.78395 
L 90.855722 -69.652118 
L 90.882483 -68.520285 
L 90.917559 -67.388453 
L 90.940618 -66.25662 
L 90.942618 -65.124788 
L 90.932847 -63.992955 
L 90.939389 -62.861123 
L 91.001877 -61.729291 
L 91.159174 -60.597458 
L 91.437282 -59.465626 
L 91.842446 -58.333793 
L 92.360866 -57.201961 
L 92.961834 -56.070128 
L 93.598761 -54.938296 
L 94.20477 -53.806463 
L 94.685771 -52.674631 
L 94.92 -51.542799 
L 94.773841 -50.410966 
L 94.136421 -49.279134 
L 92.962945 -48.147301 
L 91.306844 -47.015469 
L 89.321545 -45.883636 
z
" id="mfd0289214a" style="stroke:#3d3d3d;stroke-width:1.5;"/>
    </defs>
    <g clip-path="url(#pd7f9976b32)">
     <use style="fill:#3274a1;stroke:#3d3d3d;stroke-width:1.5;" x="0" xlink:href="#mfd0289214a" y="288"/>
    </g>
   </g>
   <g id="PolyCollection_2">
    <defs>
     <path d="M 232.459467 -45.978378 
L 210.340533 -45.978378 
L 208.762213 -47.974115 
L 207.563058 -49.969852 
L 206.816017 -51.96559 
L 206.52 -53.961327 
L 206.60851 -55.957064 
L 206.97327 -57.952801 
L 207.493298 -59.948539 
L 208.059917 -61.944276 
L 208.591976 -63.940013 
L 209.040445 -65.93575 
L 209.385188 -67.931488 
L 209.627892 -69.927225 
L 209.784421 -71.922962 
L 209.878277 -73.918699 
L 209.935556 -75.914436 
L 209.981169 -77.910174 
L 210.036075 -79.905911 
L 210.115494 -81.901648 
L 210.228236 -83.897385 
L 210.377263 -85.893123 
L 210.561394 -87.88886 
L 210.777721 -89.884597 
L 211.024042 -91.880334 
L 211.300499 -93.876071 
L 211.609813 -95.871809 
L 211.955958 -97.867546 
L 212.341777 -99.863283 
L 212.766549 -101.85902 
L 213.224583 -103.854758 
L 213.705532 -105.850495 
L 214.196283 -107.846232 
L 214.683638 -109.841969 
L 215.156702 -111.837707 
L 215.608248 -113.833444 
L 216.034856 -115.829181 
L 216.436147 -117.824918 
L 216.813594 -119.820655 
L 217.16929 -121.816393 
L 217.504862 -123.81213 
L 217.820683 -125.807867 
L 218.115593 -127.803604 
L 218.387313 -129.799342 
L 218.633575 -131.795079 
L 218.853593 -133.790816 
L 219.049225 -135.786553 
L 219.225153 -137.782291 
L 219.387894 -139.778028 
L 219.543987 -141.773765 
L 219.698181 -143.769502 
L 219.852391 -145.765239 
L 220.005762 -147.760977 
L 220.155596 -149.756714 
L 220.298545 -151.752451 
L 220.431513 -153.748188 
L 220.552028 -155.743926 
L 220.658177 -157.739663 
L 220.748402 -159.7354 
L 220.821415 -161.731137 
L 220.876338 -163.726874 
L 220.913027 -165.722612 
L 220.932444 -167.718349 
L 220.936907 -169.714086 
L 220.930107 -171.709823 
L 220.9168 -173.705561 
L 220.902206 -175.701298 
L 220.891238 -177.697035 
L 220.887734 -179.692772 
L 220.893943 -181.68851 
L 220.91039 -183.684247 
L 220.936147 -185.679984 
L 220.969386 -187.675721 
L 221.007961 -189.671458 
L 221.049822 -191.667196 
L 221.093121 -193.662933 
L 221.136097 -195.65867 
L 221.176906 -197.654407 
L 221.213603 -199.650145 
L 221.244349 -201.645882 
L 221.267788 -203.641619 
L 221.283405 -205.637356 
L 221.29168 -207.633094 
L 221.293943 -209.628831 
L 221.291976 -211.624568 
L 221.287526 -213.620305 
L 221.281908 -215.616042 
L 221.275833 -217.61178 
L 221.26949 -219.607517 
L 221.262833 -221.603254 
L 221.255911 -223.598991 
L 221.249124 -225.594729 
L 221.243278 -227.590466 
L 221.239442 -229.586203 
L 221.238654 -231.58194 
L 221.241622 -233.577677 
L 221.248532 -235.573415 
L 221.259038 -237.569152 
L 221.272407 -239.564889 
L 221.287718 -241.560626 
L 221.304041 -243.556364 
L 221.495959 -243.556364 
L 221.495959 -243.556364 
L 221.512282 -241.560626 
L 221.527593 -239.564889 
L 221.540962 -237.569152 
L 221.551468 -235.573415 
L 221.558378 -233.577677 
L 221.561346 -231.58194 
L 221.560558 -229.586203 
L 221.556722 -227.590466 
L 221.550876 -225.594729 
L 221.544089 -223.598991 
L 221.537167 -221.603254 
L 221.53051 -219.607517 
L 221.524167 -217.61178 
L 221.518092 -215.616042 
L 221.512474 -213.620305 
L 221.508024 -211.624568 
L 221.506057 -209.628831 
L 221.50832 -207.633094 
L 221.516595 -205.637356 
L 221.532212 -203.641619 
L 221.555651 -201.645882 
L 221.586397 -199.650145 
L 221.623094 -197.654407 
L 221.663903 -195.65867 
L 221.706879 -193.662933 
L 221.750178 -191.667196 
L 221.792039 -189.671458 
L 221.830614 -187.675721 
L 221.863853 -185.679984 
L 221.88961 -183.684247 
L 221.906057 -181.68851 
L 221.912266 -179.692772 
L 221.908762 -177.697035 
L 221.897794 -175.701298 
L 221.8832 -173.705561 
L 221.869893 -171.709823 
L 221.863093 -169.714086 
L 221.867556 -167.718349 
L 221.886973 -165.722612 
L 221.923662 -163.726874 
L 221.978585 -161.731137 
L 222.051598 -159.7354 
L 222.141823 -157.739663 
L 222.247972 -155.743926 
L 222.368487 -153.748188 
L 222.501455 -151.752451 
L 222.644404 -149.756714 
L 222.794238 -147.760977 
L 222.947609 -145.765239 
L 223.101819 -143.769502 
L 223.256013 -141.773765 
L 223.412106 -139.778028 
L 223.574847 -137.782291 
L 223.750775 -135.786553 
L 223.946407 -133.790816 
L 224.166425 -131.795079 
L 224.412687 -129.799342 
L 224.684407 -127.803604 
L 224.979317 -125.807867 
L 225.295138 -123.81213 
L 225.63071 -121.816393 
L 225.986406 -119.820655 
L 226.363853 -117.824918 
L 226.765144 -115.829181 
L 227.191752 -113.833444 
L 227.643298 -111.837707 
L 228.116362 -109.841969 
L 228.603717 -107.846232 
L 229.094468 -105.850495 
L 229.575417 -103.854758 
L 230.033451 -101.85902 
L 230.458223 -99.863283 
L 230.844042 -97.867546 
L 231.190187 -95.871809 
L 231.499501 -93.876071 
L 231.775958 -91.880334 
L 232.022279 -89.884597 
L 232.238606 -87.88886 
L 232.422737 -85.893123 
L 232.571764 -83.897385 
L 232.684506 -81.901648 
L 232.763925 -79.905911 
L 232.818831 -77.910174 
L 232.864444 -75.914436 
L 232.921723 -73.918699 
L 233.015579 -71.922962 
L 233.172108 -69.927225 
L 233.414812 -67.931488 
L 233.759555 -65.93575 
L 234.208024 -63.940013 
L 234.740083 -61.944276 
L 235.306702 -59.948539 
L 235.82673 -57.952801 
L 236.19149 -55.957064 
L 236.28 -53.961327 
L 235.983983 -51.96559 
L 235.236942 -49.969852 
L 234.037787 -47.974115 
L 232.459467 -45.978378 
z
" id="m65cbefd189" style="stroke:#3d3d3d;stroke-width:1.5;"/>
    </defs>
    <g clip-path="url(#pd7f9976b32)">
     <use style="fill:#e1812c;stroke:#3d3d3d;stroke-width:1.5;" x="0" xlink:href="#m65cbefd189" y="288"/>
    </g>
   </g>
   <g id="PolyCollection_3">
    <defs>
     <path d="M 372.70514 -46.011807 
L 352.81486 -46.011807 
L 351.240571 -47.927968 
L 349.901284 -49.844129 
L 348.877757 -51.760291 
L 348.208645 -53.676452 
L 347.889527 -55.592614 
L 347.88 -57.508775 
L 348.115129 -59.424936 
L 348.517505 -61.341098 
L 349.007644 -63.257259 
L 349.512191 -65.173421 
L 349.970402 -67.089582 
L 350.339284 -69.005743 
L 350.597093 -70.921905 
L 350.744272 -72.838066 
L 350.801081 -74.754228 
L 350.801972 -76.670389 
L 350.787949 -78.58655 
L 350.79884 -80.502712 
L 350.867356 -82.418873 
L 351.015881 -84.335035 
L 351.255787 -86.251196 
L 351.588245 -88.167357 
L 352.005487 -90.083519 
L 352.492065 -91.99968 
L 353.026371 -93.915841 
L 353.58297 -95.832003 
L 354.135963 -97.748164 
L 354.662882 -99.664326 
L 355.148086 -101.580487 
L 355.584608 -103.496648 
L 355.973954 -105.41281 
L 356.324139 -107.328971 
L 356.64676 -109.245133 
L 356.954034 -111.161294 
L 357.2564 -113.077455 
L 357.560902 -114.993617 
L 357.870344 -116.909778 
L 358.183172 -118.82594 
L 358.494129 -120.742101 
L 358.795686 -122.658262 
L 359.080028 -124.574424 
L 359.341108 -126.490585 
L 359.576099 -128.406747 
L 359.785755 -130.322908 
L 359.973609 -132.239069 
L 360.144414 -134.155231 
L 360.302576 -136.071392 
L 360.451182 -137.987554 
L 360.591936 -139.903715 
L 360.725783 -141.819876 
L 360.853747 -143.736038 
L 360.977453 -145.652199 
L 361.099066 -147.568361 
L 361.220688 -149.484522 
L 361.343557 -151.400683 
L 361.467454 -153.316845 
L 361.59061 -155.233006 
L 361.71016 -157.149167 
L 361.822941 -159.065329 
L 361.926276 -160.98149 
L 362.018474 -162.897652 
L 362.09891 -164.813813 
L 362.167783 -166.729974 
L 362.225742 -168.646136 
L 362.273571 -170.562297 
L 362.311999 -172.478459 
L 362.341616 -174.39462 
L 362.362837 -176.310781 
L 362.375906 -178.226943 
L 362.380981 -180.143104 
L 362.378366 -182.059266 
L 362.368854 -183.975427 
L 362.354059 -185.891588 
L 362.336553 -187.80775 
L 362.319629 -189.723911 
L 362.306727 -191.640073 
L 362.300664 -193.556234 
L 362.302989 -195.472395 
L 362.313692 -197.388557 
L 362.33141 -199.304718 
L 362.354009 -201.22088 
L 362.379323 -203.137041 
L 362.405756 -205.053202 
L 362.432555 -206.969364 
L 362.4597 -208.885525 
L 362.487542 -210.801686 
L 362.516353 -212.717848 
L 362.545992 -214.634009 
L 362.575771 -216.550171 
L 362.604548 -218.466332 
L 362.630965 -220.382493 
L 362.653747 -222.298655 
L 362.671987 -224.214816 
L 362.685347 -226.130978 
L 362.694152 -228.047139 
L 362.699332 -229.9633 
L 362.702231 -231.879462 
L 362.704321 -233.795623 
L 362.706872 -235.711785 
L 362.813128 -235.711785 
L 362.813128 -235.711785 
L 362.815679 -233.795623 
L 362.817769 -231.879462 
L 362.820668 -229.9633 
L 362.825848 -228.047139 
L 362.834653 -226.130978 
L 362.848013 -224.214816 
L 362.866253 -222.298655 
L 362.889035 -220.382493 
L 362.915452 -218.466332 
L 362.944229 -216.550171 
L 362.974008 -214.634009 
L 363.003647 -212.717848 
L 363.032458 -210.801686 
L 363.0603 -208.885525 
L 363.087445 -206.969364 
L 363.114244 -205.053202 
L 363.140677 -203.137041 
L 363.165991 -201.22088 
L 363.18859 -199.304718 
L 363.206308 -197.388557 
L 363.217011 -195.472395 
L 363.219336 -193.556234 
L 363.213273 -191.640073 
L 363.200371 -189.723911 
L 363.183447 -187.80775 
L 363.165941 -185.891588 
L 363.151146 -183.975427 
L 363.141634 -182.059266 
L 363.139019 -180.143104 
L 363.144094 -178.226943 
L 363.157163 -176.310781 
L 363.178384 -174.39462 
L 363.208001 -172.478459 
L 363.246429 -170.562297 
L 363.294258 -168.646136 
L 363.352217 -166.729974 
L 363.42109 -164.813813 
L 363.501526 -162.897652 
L 363.593724 -160.98149 
L 363.697059 -159.065329 
L 363.80984 -157.149167 
L 363.92939 -155.233006 
L 364.052546 -153.316845 
L 364.176443 -151.400683 
L 364.299312 -149.484522 
L 364.420934 -147.568361 
L 364.542547 -145.652199 
L 364.666253 -143.736038 
L 364.794217 -141.819876 
L 364.928064 -139.903715 
L 365.068818 -137.987554 
L 365.217424 -136.071392 
L 365.375586 -134.155231 
L 365.546391 -132.239069 
L 365.734245 -130.322908 
L 365.943901 -128.406747 
L 366.178892 -126.490585 
L 366.439972 -124.574424 
L 366.724314 -122.658262 
L 367.025871 -120.742101 
L 367.336828 -118.82594 
L 367.649656 -116.909778 
L 367.959098 -114.993617 
L 368.2636 -113.077455 
L 368.565966 -111.161294 
L 368.87324 -109.245133 
L 369.195861 -107.328971 
L 369.546046 -105.41281 
L 369.935392 -103.496648 
L 370.371914 -101.580487 
L 370.857118 -99.664326 
L 371.384037 -97.748164 
L 371.93703 -95.832003 
L 372.493629 -93.915841 
L 373.027935 -91.99968 
L 373.514513 -90.083519 
L 373.931755 -88.167357 
L 374.264213 -86.251196 
L 374.504119 -84.335035 
L 374.652644 -82.418873 
L 374.72116 -80.502712 
L 374.732051 -78.58655 
L 374.718028 -76.670389 
L 374.718919 -74.754228 
L 374.775728 -72.838066 
L 374.922907 -70.921905 
L 375.180716 -69.005743 
L 375.549598 -67.089582 
L 376.007809 -65.173421 
L 376.512356 -63.257259 
L 377.002495 -61.341098 
L 377.404871 -59.424936 
L 377.64 -57.508775 
L 377.630473 -55.592614 
L 377.311355 -53.676452 
L 376.642243 -51.760291 
L 375.618716 -49.844129 
L 374.279429 -47.927968 
L 372.70514 -46.011807 
z
" id="m876767cc39" style="stroke:#3d3d3d;stroke-width:1.5;"/>
    </defs>
    <g clip-path="url(#pd7f9976b32)">
     <use style="fill:#3a923a;stroke:#3d3d3d;stroke-width:1.5;" x="0" xlink:href="#m876767cc39" y="288"/>
    </g>
   </g>
   <g id="patch_3">
    <path clip-path="url(#pd7f9976b32)" d="M 109.8 242.178048 
L 109.8 242.178048 
L 109.8 242.178048 
L 109.8 242.178048 
z
" style="fill:#3274a1;stroke:#3d3d3d;stroke-linejoin:miter;stroke-width:0.75;"/>
   </g>
   <g id="patch_4">
    <path clip-path="url(#pd7f9976b32)" d="M 109.8 242.178048 
L 109.8 242.178048 
L 109.8 242.178048 
L 109.8 242.178048 
z
" style="fill:#e1812c;stroke:#3d3d3d;stroke-linejoin:miter;stroke-width:0.75;"/>
   </g>
   <g id="patch_5">
    <path clip-path="url(#pd7f9976b32)" d="M 109.8 242.178048 
L 109.8 242.178048 
L 109.8 242.178048 
L 109.8 242.178048 
z
" style="fill:#3a923a;stroke:#3d3d3d;stroke-linejoin:miter;stroke-width:0.75;"/>
   </g>
   <g id="matplotlib.axis_1">
    <g id="xtick_1">
     <g id="line2d_1">
      <defs>
       <path d="M 0 0 
L 0 3.5 
" id="m0cc2172293" style="stroke:#000000;stroke-width:0.8;"/>
      </defs>
      <g>
       <use style="stroke:#000000;stroke-width:0.8;" x="109.8" xlink:href="#m0cc2172293" y="252"/>
      </g>
     </g>
     <g id="text_1">
      <!-- train -->
      <g transform="translate(98.1625 266.598437)scale(0.1 -0.1)">
       <defs>
        <path d="M 18.3125 70.21875 
L 18.3125 54.6875 
L 36.8125 54.6875 
L 36.8125 47.703125 
L 18.3125 47.703125 
L 18.3125 18.015625 
Q 18.3125 11.328125 20.140625 9.421875 
Q 21.96875 7.515625 27.59375 7.515625 
L 36.8125 7.515625 
L 36.8125 0 
L 27.59375 0 
Q 17.1875 0 13.234375 3.875 
Q 9.28125 7.765625 9.28125 18.015625 
L 9.28125 47.703125 
L 2.6875 47.703125 
L 2.6875 54.6875 
L 9.28125 54.6875 
L 9.28125 70.21875 
z
" id="DejaVuSans-116"/>
        <path d="M 41.109375 46.296875 
Q 39.59375 47.171875 37.8125 47.578125 
Q 36.03125 48 33.890625 48 
Q 26.265625 48 22.1875 43.046875 
Q 18.109375 38.09375 18.109375 28.8125 
L 18.109375 0 
L 9.078125 0 
L 9.078125 54.6875 
L 18.109375 54.6875 
L 18.109375 46.1875 
Q 20.953125 51.171875 25.484375 53.578125 
Q 30.03125 56 36.53125 56 
Q 37.453125 56 38.578125 55.875 
Q 39.703125 55.765625 41.0625 55.515625 
z
" id="DejaVuSans-114"/>
        <path d="M 34.28125 27.484375 
Q 23.390625 27.484375 19.1875 25 
Q 14.984375 22.515625 14.984375 16.5 
Q 14.984375 11.71875 18.140625 8.90625 
Q 21.296875 6.109375 26.703125 6.109375 
Q 34.1875 6.109375 38.703125 11.40625 
Q 43.21875 16.703125 43.21875 25.484375 
L 43.21875 27.484375 
z
M 52.203125 31.203125 
L 52.203125 0 
L 43.21875 0 
L 43.21875 8.296875 
Q 40.140625 3.328125 35.546875 0.953125 
Q 30.953125 -1.421875 24.3125 -1.421875 
Q 15.921875 -1.421875 10.953125 3.296875 
Q 6 8.015625 6 15.921875 
Q 6 25.140625 12.171875 29.828125 
Q 18.359375 34.515625 30.609375 34.515625 
L 43.21875 34.515625 
L 43.21875 35.40625 
Q 43.21875 41.609375 39.140625 45 
Q 35.0625 48.390625 27.6875 48.390625 
Q 23 48.390625 18.546875 47.265625 
Q 14.109375 46.140625 10.015625 43.890625 
L 10.015625 52.203125 
Q 14.9375 54.109375 19.578125 55.046875 
Q 24.21875 56 28.609375 56 
Q 40.484375 56 46.34375 49.84375 
Q 52.203125 43.703125 52.203125 31.203125 
z
" id="DejaVuSans-97"/>
        <path d="M 9.421875 54.6875 
L 18.40625 54.6875 
L 18.40625 0 
L 9.421875 0 
z
M 9.421875 75.984375 
L 18.40625 75.984375 
L 18.40625 64.59375 
L 9.421875 64.59375 
z
" id="DejaVuSans-105"/>
        <path d="M 54.890625 33.015625 
L 54.890625 0 
L 45.90625 0 
L 45.90625 32.71875 
Q 45.90625 40.484375 42.875 44.328125 
Q 39.84375 48.1875 33.796875 48.1875 
Q 26.515625 48.1875 22.3125 43.546875 
Q 18.109375 38.921875 18.109375 30.90625 
L 18.109375 0 
L 9.078125 0 
L 9.078125 54.6875 
L 18.109375 54.6875 
L 18.109375 46.1875 
Q 21.34375 51.125 25.703125 53.5625 
Q 30.078125 56 35.796875 56 
Q 45.21875 56 50.046875 50.171875 
Q 54.890625 44.34375 54.890625 33.015625 
z
" id="DejaVuSans-110"/>
       </defs>
       <use xlink:href="#DejaVuSans-116"/>
       <use x="39.208984" xlink:href="#DejaVuSans-114"/>
       <use x="80.322266" xlink:href="#DejaVuSans-97"/>
       <use x="141.601562" xlink:href="#DejaVuSans-105"/>
       <use x="169.384766" xlink:href="#DejaVuSans-110"/>
      </g>
     </g>
    </g>
    <g id="xtick_2">
     <g id="line2d_2">
      <g>
       <use style="stroke:#000000;stroke-width:0.8;" x="221.4" xlink:href="#m0cc2172293" y="252"/>
      </g>
     </g>
     <g id="text_2">
      <!-- val -->
      <g transform="translate(213.9875 266.598437)scale(0.1 -0.1)">
       <defs>
        <path d="M 2.984375 54.6875 
L 12.5 54.6875 
L 29.59375 8.796875 
L 46.6875 54.6875 
L 56.203125 54.6875 
L 35.6875 0 
L 23.484375 0 
z
" id="DejaVuSans-118"/>
        <path d="M 9.421875 75.984375 
L 18.40625 75.984375 
L 18.40625 0 
L 9.421875 0 
z
" id="DejaVuSans-108"/>
       </defs>
       <use xlink:href="#DejaVuSans-118"/>
       <use x="59.179688" xlink:href="#DejaVuSans-97"/>
       <use x="120.458984" xlink:href="#DejaVuSans-108"/>
      </g>
     </g>
    </g>
    <g id="xtick_3">
     <g id="line2d_3">
      <g>
       <use style="stroke:#000000;stroke-width:0.8;" x="333" xlink:href="#m0cc2172293" y="252"/>
      </g>
     </g>
     <g id="text_3">
      <!-- test -->
      <g transform="translate(323.398438 266.598437)scale(0.1 -0.1)">
       <defs>
        <path d="M 56.203125 29.59375 
L 56.203125 25.203125 
L 14.890625 25.203125 
Q 15.484375 15.921875 20.484375 11.0625 
Q 25.484375 6.203125 34.421875 6.203125 
Q 39.59375 6.203125 44.453125 7.46875 
Q 49.3125 8.734375 54.109375 11.28125 
L 54.109375 2.78125 
Q 49.265625 0.734375 44.1875 -0.34375 
Q 39.109375 -1.421875 33.890625 -1.421875 
Q 20.796875 -1.421875 13.15625 6.1875 
Q 5.515625 13.8125 5.515625 26.8125 
Q 5.515625 40.234375 12.765625 48.109375 
Q 20.015625 56 32.328125 56 
Q 43.359375 56 49.78125 48.890625 
Q 56.203125 41.796875 56.203125 29.59375 
z
M 47.21875 32.234375 
Q 47.125 39.59375 43.09375 43.984375 
Q 39.0625 48.390625 32.421875 48.390625 
Q 24.90625 48.390625 20.390625 44.140625 
Q 15.875 39.890625 15.1875 32.171875 
z
" id="DejaVuSans-101"/>
        <path d="M 44.28125 53.078125 
L 44.28125 44.578125 
Q 40.484375 46.53125 36.375 47.5 
Q 32.28125 48.484375 27.875 48.484375 
Q 21.1875 48.484375 17.84375 46.4375 
Q 14.5 44.390625 14.5 40.28125 
Q 14.5 37.15625 16.890625 35.375 
Q 19.28125 33.59375 26.515625 31.984375 
L 29.59375 31.296875 
Q 39.15625 29.25 43.1875 25.515625 
Q 47.21875 21.78125 47.21875 15.09375 
Q 47.21875 7.46875 41.1875 3.015625 
Q 35.15625 -1.421875 24.609375 -1.421875 
Q 20.21875 -1.421875 15.453125 -0.5625 
Q 10.6875 0.296875 5.421875 2 
L 5.421875 11.28125 
Q 10.40625 8.6875 15.234375 7.390625 
Q 20.0625 6.109375 24.8125 6.109375 
Q 31.15625 6.109375 34.5625 8.28125 
Q 37.984375 10.453125 37.984375 14.40625 
Q 37.984375 18.0625 35.515625 20.015625 
Q 33.0625 21.96875 24.703125 23.78125 
L 21.578125 24.515625 
Q 13.234375 26.265625 9.515625 29.90625 
Q 5.8125 33.546875 5.8125 39.890625 
Q 5.8125 47.609375 11.28125 51.796875 
Q 16.75 56 26.8125 56 
Q 31.78125 56 36.171875 55.265625 
Q 40.578125 54.546875 44.28125 53.078125 
z
" id="DejaVuSans-115"/>
       </defs>
       <use xlink:href="#DejaVuSans-116"/>
       <use x="39.208984" xlink:href="#DejaVuSans-101"/>
       <use x="100.732422" xlink:href="#DejaVuSans-115"/>
       <use x="152.832031" xlink:href="#DejaVuSans-116"/>
      </g>
     </g>
    </g>
    <g id="text_4">
     <!-- set -->
     <g transform="translate(213.758594 280.276563)scale(0.1 -0.1)">
      <use xlink:href="#DejaVuSans-115"/>
      <use x="52.099609" xlink:href="#DejaVuSans-101"/>
      <use x="113.623047" xlink:href="#DejaVuSans-116"/>
     </g>
    </g>
   </g>
   <g id="matplotlib.axis_2">
    <g id="ytick_1">
     <g id="line2d_4">
      <defs>
       <path d="M 0 0 
L -3.5 0 
" id="m46b9ab64c1" style="stroke:#000000;stroke-width:0.8;"/>
      </defs>
      <g>
       <use style="stroke:#000000;stroke-width:0.8;" x="54" xlink:href="#m46b9ab64c1" y="242.178048"/>
      </g>
     </g>
     <g id="text_5">
      <!-- 0.000 -->
      <g transform="translate(18.371875 245.977266)scale(0.1 -0.1)">
       <defs>
        <path d="M 31.78125 66.40625 
Q 24.171875 66.40625 20.328125 58.90625 
Q 16.5 51.421875 16.5 36.375 
Q 16.5 21.390625 20.328125 13.890625 
Q 24.171875 6.390625 31.78125 6.390625 
Q 39.453125 6.390625 43.28125 13.890625 
Q 47.125 21.390625 47.125 36.375 
Q 47.125 51.421875 43.28125 58.90625 
Q 39.453125 66.40625 31.78125 66.40625 
z
M 31.78125 74.21875 
Q 44.046875 74.21875 50.515625 64.515625 
Q 56.984375 54.828125 56.984375 36.375 
Q 56.984375 17.96875 50.515625 8.265625 
Q 44.046875 -1.421875 31.78125 -1.421875 
Q 19.53125 -1.421875 13.0625 8.265625 
Q 6.59375 17.96875 6.59375 36.375 
Q 6.59375 54.828125 13.0625 64.515625 
Q 19.53125 74.21875 31.78125 74.21875 
z
" id="DejaVuSans-48"/>
        <path d="M 10.6875 12.40625 
L 21 12.40625 
L 21 0 
L 10.6875 0 
z
" id="DejaVuSans-46"/>
       </defs>
       <use xlink:href="#DejaVuSans-48"/>
       <use x="63.623047" xlink:href="#DejaVuSans-46"/>
       <use x="95.410156" xlink:href="#DejaVuSans-48"/>
       <use x="159.033203" xlink:href="#DejaVuSans-48"/>
       <use x="222.65625" xlink:href="#DejaVuSans-48"/>
      </g>
     </g>
    </g>
    <g id="ytick_2">
     <g id="line2d_5">
      <g>
       <use style="stroke:#000000;stroke-width:0.8;" x="54" xlink:href="#m46b9ab64c1" y="213.614715"/>
      </g>
     </g>
     <g id="text_6">
      <!-- 0.005 -->
      <g transform="translate(18.371875 217.413934)scale(0.1 -0.1)">
       <defs>
        <path d="M 10.796875 72.90625 
L 49.515625 72.90625 
L 49.515625 64.59375 
L 19.828125 64.59375 
L 19.828125 46.734375 
Q 21.96875 47.46875 24.109375 47.828125 
Q 26.265625 48.1875 28.421875 48.1875 
Q 40.625 48.1875 47.75 41.5 
Q 54.890625 34.8125 54.890625 23.390625 
Q 54.890625 11.625 47.5625 5.09375 
Q 40.234375 -1.421875 26.90625 -1.421875 
Q 22.3125 -1.421875 17.546875 -0.640625 
Q 12.796875 0.140625 7.71875 1.703125 
L 7.71875 11.625 
Q 12.109375 9.234375 16.796875 8.0625 
Q 21.484375 6.890625 26.703125 6.890625 
Q 35.15625 6.890625 40.078125 11.328125 
Q 45.015625 15.765625 45.015625 23.390625 
Q 45.015625 31 40.078125 35.4375 
Q 35.15625 39.890625 26.703125 39.890625 
Q 22.75 39.890625 18.8125 39.015625 
Q 14.890625 38.140625 10.796875 36.28125 
z
" id="DejaVuSans-53"/>
       </defs>
       <use xlink:href="#DejaVuSans-48"/>
       <use x="63.623047" xlink:href="#DejaVuSans-46"/>
       <use x="95.410156" xlink:href="#DejaVuSans-48"/>
       <use x="159.033203" xlink:href="#DejaVuSans-48"/>
       <use x="222.65625" xlink:href="#DejaVuSans-53"/>
      </g>
     </g>
    </g>
    <g id="ytick_3">
     <g id="line2d_6">
      <g>
       <use style="stroke:#000000;stroke-width:0.8;" x="54" xlink:href="#m46b9ab64c1" y="185.051382"/>
      </g>
     </g>
     <g id="text_7">
      <!-- 0.010 -->
      <g transform="translate(18.371875 188.850601)scale(0.1 -0.1)">
       <defs>
        <path d="M 12.40625 8.296875 
L 28.515625 8.296875 
L 28.515625 63.921875 
L 10.984375 60.40625 
L 10.984375 69.390625 
L 28.421875 72.90625 
L 38.28125 72.90625 
L 38.28125 8.296875 
L 54.390625 8.296875 
L 54.390625 0 
L 12.40625 0 
z
" id="DejaVuSans-49"/>
       </defs>
       <use xlink:href="#DejaVuSans-48"/>
       <use x="63.623047" xlink:href="#DejaVuSans-46"/>
       <use x="95.410156" xlink:href="#DejaVuSans-48"/>
       <use x="159.033203" xlink:href="#DejaVuSans-49"/>
       <use x="222.65625" xlink:href="#DejaVuSans-48"/>
      </g>
     </g>
    </g>
    <g id="ytick_4">
     <g id="line2d_7">
      <g>
       <use style="stroke:#000000;stroke-width:0.8;" x="54" xlink:href="#m46b9ab64c1" y="156.48805"/>
      </g>
     </g>
     <g id="text_8">
      <!-- 0.015 -->
      <g transform="translate(18.371875 160.287268)scale(0.1 -0.1)">
       <use xlink:href="#DejaVuSans-48"/>
       <use x="63.623047" xlink:href="#DejaVuSans-46"/>
       <use x="95.410156" xlink:href="#DejaVuSans-48"/>
       <use x="159.033203" xlink:href="#DejaVuSans-49"/>
       <use x="222.65625" xlink:href="#DejaVuSans-53"/>
      </g>
     </g>
    </g>
    <g id="ytick_5">
     <g id="line2d_8">
      <g>
       <use style="stroke:#000000;stroke-width:0.8;" x="54" xlink:href="#m46b9ab64c1" y="127.924717"/>
      </g>
     </g>
     <g id="text_9">
      <!-- 0.020 -->
      <g transform="translate(18.371875 131.723936)scale(0.1 -0.1)">
       <defs>
        <path d="M 19.1875 8.296875 
L 53.609375 8.296875 
L 53.609375 0 
L 7.328125 0 
L 7.328125 8.296875 
Q 12.9375 14.109375 22.625 23.890625 
Q 32.328125 33.6875 34.8125 36.53125 
Q 39.546875 41.84375 41.421875 45.53125 
Q 43.3125 49.21875 43.3125 52.78125 
Q 43.3125 58.59375 39.234375 62.25 
Q 35.15625 65.921875 28.609375 65.921875 
Q 23.96875 65.921875 18.8125 64.3125 
Q 13.671875 62.703125 7.8125 59.421875 
L 7.8125 69.390625 
Q 13.765625 71.78125 18.9375 73 
Q 24.125 74.21875 28.421875 74.21875 
Q 39.75 74.21875 46.484375 68.546875 
Q 53.21875 62.890625 53.21875 53.421875 
Q 53.21875 48.921875 51.53125 44.890625 
Q 49.859375 40.875 45.40625 35.40625 
Q 44.1875 33.984375 37.640625 27.21875 
Q 31.109375 20.453125 19.1875 8.296875 
z
" id="DejaVuSans-50"/>
       </defs>
       <use xlink:href="#DejaVuSans-48"/>
       <use x="63.623047" xlink:href="#DejaVuSans-46"/>
       <use x="95.410156" xlink:href="#DejaVuSans-48"/>
       <use x="159.033203" xlink:href="#DejaVuSans-50"/>
       <use x="222.65625" xlink:href="#DejaVuSans-48"/>
      </g>
     </g>
    </g>
    <g id="ytick_6">
     <g id="line2d_9">
      <g>
       <use style="stroke:#000000;stroke-width:0.8;" x="54" xlink:href="#m46b9ab64c1" y="99.361384"/>
      </g>
     </g>
     <g id="text_10">
      <!-- 0.025 -->
      <g transform="translate(18.371875 103.160603)scale(0.1 -0.1)">
       <use xlink:href="#DejaVuSans-48"/>
       <use x="63.623047" xlink:href="#DejaVuSans-46"/>
       <use x="95.410156" xlink:href="#DejaVuSans-48"/>
       <use x="159.033203" xlink:href="#DejaVuSans-50"/>
       <use x="222.65625" xlink:href="#DejaVuSans-53"/>
      </g>
     </g>
    </g>
    <g id="ytick_7">
     <g id="line2d_10">
      <g>
       <use style="stroke:#000000;stroke-width:0.8;" x="54" xlink:href="#m46b9ab64c1" y="70.798052"/>
      </g>
     </g>
     <g id="text_11">
      <!-- 0.030 -->
      <g transform="translate(18.371875 74.597271)scale(0.1 -0.1)">
       <defs>
        <path d="M 40.578125 39.3125 
Q 47.65625 37.796875 51.625 33 
Q 55.609375 28.21875 55.609375 21.1875 
Q 55.609375 10.40625 48.1875 4.484375 
Q 40.765625 -1.421875 27.09375 -1.421875 
Q 22.515625 -1.421875 17.65625 -0.515625 
Q 12.796875 0.390625 7.625 2.203125 
L 7.625 11.71875 
Q 11.71875 9.328125 16.59375 8.109375 
Q 21.484375 6.890625 26.8125 6.890625 
Q 36.078125 6.890625 40.9375 10.546875 
Q 45.796875 14.203125 45.796875 21.1875 
Q 45.796875 27.640625 41.28125 31.265625 
Q 36.765625 34.90625 28.71875 34.90625 
L 20.21875 34.90625 
L 20.21875 43.015625 
L 29.109375 43.015625 
Q 36.375 43.015625 40.234375 45.921875 
Q 44.09375 48.828125 44.09375 54.296875 
Q 44.09375 59.90625 40.109375 62.90625 
Q 36.140625 65.921875 28.71875 65.921875 
Q 24.65625 65.921875 20.015625 65.03125 
Q 15.375 64.15625 9.8125 62.3125 
L 9.8125 71.09375 
Q 15.4375 72.65625 20.34375 73.4375 
Q 25.25 74.21875 29.59375 74.21875 
Q 40.828125 74.21875 47.359375 69.109375 
Q 53.90625 64.015625 53.90625 55.328125 
Q 53.90625 49.265625 50.4375 45.09375 
Q 46.96875 40.921875 40.578125 39.3125 
z
" id="DejaVuSans-51"/>
       </defs>
       <use xlink:href="#DejaVuSans-48"/>
       <use x="63.623047" xlink:href="#DejaVuSans-46"/>
       <use x="95.410156" xlink:href="#DejaVuSans-48"/>
       <use x="159.033203" xlink:href="#DejaVuSans-51"/>
       <use x="222.65625" xlink:href="#DejaVuSans-48"/>
      </g>
     </g>
    </g>
    <g id="ytick_8">
     <g id="line2d_11">
      <g>
       <use style="stroke:#000000;stroke-width:0.8;" x="54" xlink:href="#m46b9ab64c1" y="42.234719"/>
      </g>
     </g>
     <g id="text_12">
      <!-- 0.035 -->
      <g transform="translate(18.371875 46.033938)scale(0.1 -0.1)">
       <use xlink:href="#DejaVuSans-48"/>
       <use x="63.623047" xlink:href="#DejaVuSans-46"/>
       <use x="95.410156" xlink:href="#DejaVuSans-48"/>
       <use x="159.033203" xlink:href="#DejaVuSans-51"/>
       <use x="222.65625" xlink:href="#DejaVuSans-53"/>
      </g>
     </g>
    </g>
    <g id="text_13">
     <!-- value -->
     <g transform="translate(12.292187 156.937813)rotate(-90)scale(0.1 -0.1)">
      <defs>
       <path d="M 8.5 21.578125 
L 8.5 54.6875 
L 17.484375 54.6875 
L 17.484375 21.921875 
Q 17.484375 14.15625 20.5 10.265625 
Q 23.53125 6.390625 29.59375 6.390625 
Q 36.859375 6.390625 41.078125 11.03125 
Q 45.3125 15.671875 45.3125 23.6875 
L 45.3125 54.6875 
L 54.296875 54.6875 
L 54.296875 0 
L 45.3125 0 
L 45.3125 8.40625 
Q 42.046875 3.421875 37.71875 1 
Q 33.40625 -1.421875 27.6875 -1.421875 
Q 18.265625 -1.421875 13.375 4.4375 
Q 8.5 10.296875 8.5 21.578125 
z
M 31.109375 56 
z
" id="DejaVuSans-117"/>
      </defs>
      <use xlink:href="#DejaVuSans-118"/>
      <use x="59.179688" xlink:href="#DejaVuSans-97"/>
      <use x="120.458984" xlink:href="#DejaVuSans-108"/>
      <use x="148.242188" xlink:href="#DejaVuSans-117"/>
      <use x="211.621094" xlink:href="#DejaVuSans-101"/>
     </g>
    </g>
   </g>
   <g id="line2d_12">
    <path clip-path="url(#pd7f9976b32)" d="M 80.04 242.116364 
L 80.04 158.047442 
" style="fill:none;stroke:#3d3d3d;stroke-linecap:square;stroke-width:1.5;"/>
   </g>
   <g id="line2d_13">
    <path clip-path="url(#pd7f9976b32)" d="M 80.04 232.172203 
L 80.04 202.341335 
" style="fill:none;stroke:#3d3d3d;stroke-linecap:square;stroke-width:4.5;"/>
   </g>
   <g id="line2d_14">
    <path clip-path="url(#pd7f9976b32)" d="M 221.4 242.021622 
L 221.4 125.458861 
" style="fill:none;stroke:#3d3d3d;stroke-linecap:square;stroke-width:1.5;"/>
   </g>
   <g id="line2d_15">
    <path clip-path="url(#pd7f9976b32)" d="M 221.4 231.443566 
L 221.4 188.178703 
" style="fill:none;stroke:#3d3d3d;stroke-linecap:square;stroke-width:4.5;"/>
   </g>
   <g id="line2d_16">
    <path clip-path="url(#pd7f9976b32)" d="M 362.76 241.988193 
L 362.76 130.184394 
" style="fill:none;stroke:#3d3d3d;stroke-linecap:square;stroke-width:1.5;"/>
   </g>
   <g id="line2d_17">
    <path clip-path="url(#pd7f9976b32)" d="M 362.76 229.421986 
L 362.76 189.283585 
" style="fill:none;stroke:#3d3d3d;stroke-linecap:square;stroke-width:4.5;"/>
   </g>
   <g id="patch_6">
    <path d="M 54 252 
L 54 34.56 
" style="fill:none;stroke:#000000;stroke-linecap:square;stroke-linejoin:miter;stroke-width:0.8;"/>
   </g>
   <g id="patch_7">
    <path d="M 388.8 252 
L 388.8 34.56 
" style="fill:none;stroke:#000000;stroke-linecap:square;stroke-linejoin:miter;stroke-width:0.8;"/>
   </g>
   <g id="patch_8">
    <path d="M 54 252 
L 388.8 252 
" style="fill:none;stroke:#000000;stroke-linecap:square;stroke-linejoin:miter;stroke-width:0.8;"/>
   </g>
   <g id="patch_9">
    <path d="M 54 34.56 
L 388.8 34.56 
" style="fill:none;stroke:#000000;stroke-linecap:square;stroke-linejoin:miter;stroke-width:0.8;"/>
   </g>
   <g id="PathCollection_1">
    <defs>
     <path d="M 0 1.5 
C 0.397805 1.5 0.77937 1.341951 1.06066 1.06066 
C 1.341951 0.77937 1.5 0.397805 1.5 0 
C 1.5 -0.397805 1.341951 -0.77937 1.06066 -1.06066 
C 0.77937 -1.341951 0.397805 -1.5 0 -1.5 
C -0.397805 -1.5 -0.77937 -1.341951 -1.06066 -1.06066 
C -1.341951 -0.77937 -1.5 -0.397805 -1.5 0 
C -1.5 0.397805 -1.341951 0.77937 -1.06066 1.06066 
C -0.77937 1.341951 -0.397805 1.5 0 1.5 
z
" id="mf30d5e3eca" style="stroke:#3d3d3d;"/>
    </defs>
    <g clip-path="url(#pd7f9976b32)">
     <use style="fill:#ffffff;stroke:#3d3d3d;" x="80.04" xlink:href="#mf30d5e3eca" y="216.629827"/>
    </g>
   </g>
   <g id="PathCollection_2">
    <g clip-path="url(#pd7f9976b32)">
     <use style="fill:#ffffff;stroke:#3d3d3d;" x="221.4" xlink:href="#mf30d5e3eca" y="210.640534"/>
    </g>
   </g>
   <g id="PathCollection_3">
    <g clip-path="url(#pd7f9976b32)">
     <use style="fill:#ffffff;stroke:#3d3d3d;" x="362.76" xlink:href="#mf30d5e3eca" y="210.05026"/>
    </g>
   </g>
   <g id="legend_1">
    <g id="patch_10">
     <path d="M 326.525 101.2725 
L 381.8 101.2725 
Q 383.8 101.2725 383.8 99.2725 
L 383.8 41.56 
Q 383.8 39.56 381.8 39.56 
L 326.525 39.56 
Q 324.525 39.56 324.525 41.56 
L 324.525 99.2725 
Q 324.525 101.2725 326.525 101.2725 
z
" style="fill:#ffffff;opacity:0.8;stroke:#cccccc;stroke-linejoin:miter;"/>
    </g>
    <g id="text_14">
     <!-- set -->
     <g transform="translate(346.521094 51.158437)scale(0.1 -0.1)">
      <use xlink:href="#DejaVuSans-115"/>
      <use x="52.099609" xlink:href="#DejaVuSans-101"/>
      <use x="113.623047" xlink:href="#DejaVuSans-116"/>
     </g>
    </g>
    <g id="patch_11">
     <path d="M 328.525 65.836562 
L 348.525 65.836562 
L 348.525 58.836562 
L 328.525 58.836562 
z
" style="fill:#3274a1;stroke:#3d3d3d;stroke-linejoin:miter;stroke-width:0.75;"/>
    </g>
    <g id="text_15">
     <!-- train -->
     <g transform="translate(356.525 65.836562)scale(0.1 -0.1)">
      <use xlink:href="#DejaVuSans-116"/>
      <use x="39.208984" xlink:href="#DejaVuSans-114"/>
      <use x="80.322266" xlink:href="#DejaVuSans-97"/>
      <use x="141.601562" xlink:href="#DejaVuSans-105"/>
      <use x="169.384766" xlink:href="#DejaVuSans-110"/>
     </g>
    </g>
    <g id="patch_12">
     <path d="M 328.525 80.514687 
L 348.525 80.514687 
L 348.525 73.514687 
L 328.525 73.514687 
z
" style="fill:#e1812c;stroke:#3d3d3d;stroke-linejoin:miter;stroke-width:0.75;"/>
    </g>
    <g id="text_16">
     <!-- val -->
     <g transform="translate(356.525 80.514687)scale(0.1 -0.1)">
      <use xlink:href="#DejaVuSans-118"/>
      <use x="59.179688" xlink:href="#DejaVuSans-97"/>
      <use x="120.458984" xlink:href="#DejaVuSans-108"/>
     </g>
    </g>
    <g id="patch_13">
     <path d="M 328.525 95.192813 
L 348.525 95.192813 
L 348.525 88.192813 
L 328.525 88.192813 
z
" style="fill:#3a923a;stroke:#3d3d3d;stroke-linejoin:miter;stroke-width:0.75;"/>
    </g>
    <g id="text_17">
     <!-- test -->
     <g transform="translate(356.525 95.192813)scale(0.1 -0.1)">
      <use xlink:href="#DejaVuSans-116"/>
      <use x="39.208984" xlink:href="#DejaVuSans-101"/>
      <use x="100.732422" xlink:href="#DejaVuSans-115"/>
      <use x="152.832031" xlink:href="#DejaVuSans-116"/>
     </g>
    </g>
   </g>
  </g>
 </g>
 <defs>
  <clipPath id="pd7f9976b32">
   <rect height="217.44" width="334.8" x="54" y="34.56"/>
  </clipPath>
 </defs>
</svg>
