<?xml version="1.0" encoding="utf-8" standalone="no"?>
<!DOCTYPE svg PUBLIC "-//W3C//DTD SVG 1.1//EN"
  "http://www.w3.org/Graphics/SVG/1.1/DTD/svg11.dtd">
<!-- Created with matplotlib (https://matplotlib.org/) -->
<svg height="288pt" version="1.1" viewBox="0 0 432 288" width="432pt" xmlns="http://www.w3.org/2000/svg" xmlns:xlink="http://www.w3.org/1999/xlink">
 <metadata>
  <rdf:RDF xmlns:cc="http://creativecommons.org/ns#" xmlns:dc="http://purl.org/dc/elements/1.1/" xmlns:rdf="http://www.w3.org/1999/02/22-rdf-syntax-ns#">
   <cc:Work>
    <dc:type rdf:resource="http://purl.org/dc/dcmitype/StillImage"/>
    <dc:date>2022-05-27T17:49:56.236939</dc:date>
    <dc:format>image/svg+xml</dc:format>
    <dc:creator>
     <cc:Agent>
      <dc:title>Matplotlib v3.3.4, https://matplotlib.org/</dc:title>
     </cc:Agent>
    </dc:creator>
   </cc:Work>
  </rdf:RDF>
 </metadata>
 <defs>
  <style type="text/css">*{stroke-linecap:butt;stroke-linejoin:round;}</style>
 </defs>
 <g id="figure_1">
  <g id="patch_1">
   <path d="M 0 288 
L 432 288 
L 432 0 
L 0 0 
z
" style="fill:#ffffff;"/>
  </g>
  <g id="axes_1">
   <g id="patch_2">
    <path d="M 54 252 
L 388.8 252 
L 388.8 34.56 
L 54 34.56 
z
" style="fill:#ffffff;"/>
   </g>
   <g id="PolyCollection_1">
    <defs>
     <path d="M 80.070572 -45.883636 
L 80.009428 -45.883636 
L 80.003693 -47.880331 
L 79.999056 -49.877025 
L 79.994884 -51.873719 
L 79.990078 -53.870413 
L 79.98367 -55.867107 
L 79.975473 -57.863802 
L 79.966413 -59.860496 
L 79.958195 -61.85719 
L 79.952425 -63.853884 
L 79.949805 -65.850579 
L 79.950014 -67.847273 
L 79.952118 -69.843967 
L 79.954805 -71.840661 
L 79.956148 -73.837355 
L 79.953506 -75.83405 
L 79.94432 -77.830744 
L 79.9276 -79.827438 
L 79.904957 -81.824132 
L 79.880245 -83.820826 
L 79.858028 -85.817521 
L 79.841986 -87.814215 
L 79.834057 -89.810909 
L 79.834244 -91.807603 
L 79.840727 -93.804298 
L 79.850176 -95.800992 
L 79.85824 -97.797686 
L 79.860084 -99.79438 
L 79.851108 -101.791074 
L 79.828436 -103.787769 
L 79.793122 -105.784463 
L 79.751497 -107.781157 
L 79.713575 -109.777851 
L 79.688315 -111.774545 
L 79.678429 -113.77124 
L 79.678344 -115.767934 
L 79.676971 -117.764628 
L 79.663699 -119.761322 
L 79.634063 -121.758017 
L 79.591704 -123.754711 
L 79.545358 -125.751405 
L 79.502854 -127.748099 
L 79.466554 -129.744793 
L 79.433776 -131.741488 
L 79.401255 -133.738182 
L 79.368739 -135.734876 
L 79.338034 -137.73157 
L 79.309185 -139.728264 
L 79.278693 -141.724959 
L 79.241842 -143.721653 
L 79.196278 -145.718347 
L 79.142739 -147.715041 
L 79.082243 -149.711736 
L 79.012586 -151.70843 
L 78.92728 -153.705124 
L 78.817569 -155.701818 
L 78.675842 -157.698512 
L 78.498365 -159.695207 
L 78.286146 -161.691901 
L 78.043658 -163.688595 
L 77.775852 -165.685289 
L 77.485039 -167.681983 
L 77.170038 -169.678678 
L 76.828837 -171.675372 
L 76.46303 -173.672066 
L 76.080167 -175.66876 
L 75.691199 -177.665455 
L 75.303977 -179.662149 
L 74.917245 -181.658843 
L 74.520071 -183.655537 
L 74.098386 -185.652231 
L 73.644995 -187.648926 
L 73.166238 -189.64562 
L 72.680231 -191.642314 
L 72.20689 -193.639008 
L 71.754807 -195.635702 
L 71.312382 -197.632397 
L 70.8494 -199.629091 
L 70.329528 -201.625785 
L 69.726646 -203.622479 
L 69.035417 -205.619174 
L 68.272355 -207.615868 
L 67.472171 -209.612562 
L 66.686073 -211.609256 
L 65.982492 -213.60595 
L 65.44455 -215.602645 
L 65.16 -217.599339 
L 65.206213 -219.596033 
L 65.636354 -221.592727 
L 66.470108 -223.589421 
L 67.688294 -225.586116 
L 69.230118 -227.58281 
L 70.994071 -229.579504 
L 72.845947 -231.576198 
L 74.637218 -233.572893 
L 76.232332 -235.569587 
L 77.536474 -237.566281 
L 78.512195 -239.562975 
L 79.178031 -241.559669 
L 79.591321 -243.556364 
L 80.488679 -243.556364 
L 80.488679 -243.556364 
L 80.901969 -241.559669 
L 81.567805 -239.562975 
L 82.543526 -237.566281 
L 83.847668 -235.569587 
L 85.442782 -233.572893 
L 87.234053 -231.576198 
L 89.085929 -229.579504 
L 90.849882 -227.58281 
L 92.391706 -225.586116 
L 93.609892 -223.589421 
L 94.443646 -221.592727 
L 94.873787 -219.596033 
L 94.92 -217.599339 
L 94.63545 -215.602645 
L 94.097508 -213.60595 
L 93.393927 -211.609256 
L 92.607829 -209.612562 
L 91.807645 -207.615868 
L 91.044583 -205.619174 
L 90.353354 -203.622479 
L 89.750472 -201.625785 
L 89.2306 -199.629091 
L 88.767618 -197.632397 
L 88.325193 -195.635702 
L 87.87311 -193.639008 
L 87.399769 -191.642314 
L 86.913762 -189.64562 
L 86.435005 -187.648926 
L 85.981614 -185.652231 
L 85.559929 -183.655537 
L 85.162755 -181.658843 
L 84.776023 -179.662149 
L 84.388801 -177.665455 
L 83.999833 -175.66876 
L 83.61697 -173.672066 
L 83.251163 -171.675372 
L 82.909962 -169.678678 
L 82.594961 -167.681983 
L 82.304148 -165.685289 
L 82.036342 -163.688595 
L 81.793854 -161.691901 
L 81.581635 -159.695207 
L 81.404158 -157.698512 
L 81.262431 -155.701818 
L 81.15272 -153.705124 
L 81.067414 -151.70843 
L 80.997757 -149.711736 
L 80.937261 -147.715041 
L 80.883722 -145.718347 
L 80.838158 -143.721653 
L 80.801307 -141.724959 
L 80.770815 -139.728264 
L 80.741966 -137.73157 
L 80.711261 -135.734876 
L 80.678745 -133.738182 
L 80.646224 -131.741488 
L 80.613446 -129.744793 
L 80.577146 -127.748099 
L 80.534642 -125.751405 
L 80.488296 -123.754711 
L 80.445937 -121.758017 
L 80.416301 -119.761322 
L 80.403029 -117.764628 
L 80.401656 -115.767934 
L 80.401571 -113.77124 
L 80.391685 -111.774545 
L 80.366425 -109.777851 
L 80.328503 -107.781157 
L 80.286878 -105.784463 
L 80.251564 -103.787769 
L 80.228892 -101.791074 
L 80.219916 -99.79438 
L 80.22176 -97.797686 
L 80.229824 -95.800992 
L 80.239273 -93.804298 
L 80.245756 -91.807603 
L 80.245943 -89.810909 
L 80.238014 -87.814215 
L 80.221972 -85.817521 
L 80.199755 -83.820826 
L 80.175043 -81.824132 
L 80.1524 -79.827438 
L 80.13568 -77.830744 
L 80.126494 -75.83405 
L 80.123852 -73.837355 
L 80.125195 -71.840661 
L 80.127882 -69.843967 
L 80.129986 -67.847273 
L 80.130195 -65.850579 
L 80.127575 -63.853884 
L 80.121805 -61.85719 
L 80.113587 -59.860496 
L 80.104527 -57.863802 
L 80.09633 -55.867107 
L 80.089922 -53.870413 
L 80.085116 -51.873719 
L 80.080944 -49.877025 
L 80.076307 -47.880331 
L 80.070572 -45.883636 
z
" id="m976e4c397a" style="stroke:#3d3d3d;stroke-width:1.5;"/>
    </defs>
    <g clip-path="url(#pae74b064f3)">
     <use style="fill:#3274a1;stroke:#3d3d3d;stroke-width:1.5;" x="0" xlink:href="#m976e4c397a" y="288"/>
    </g>
   </g>
   <g id="PolyCollection_2">
    <defs>
     <path d="M 221.831493 -48.55169 
L 220.968507 -48.55169 
L 220.896951 -50.47655 
L 220.82559 -52.40141 
L 220.756596 -54.32627 
L 220.691824 -56.251129 
L 220.632647 -58.175989 
L 220.579868 -60.100849 
L 220.533736 -62.025709 
L 220.494034 -63.950569 
L 220.460199 -65.875429 
L 220.431426 -67.800289 
L 220.406725 -69.725149 
L 220.384899 -71.650009 
L 220.364484 -73.574869 
L 220.343685 -75.499729 
L 220.320358 -77.424589 
L 220.292119 -79.349449 
L 220.256553 -81.274309 
L 220.211551 -83.199169 
L 220.155679 -85.124029 
L 220.088533 -87.048889 
L 220.010968 -88.973749 
L 219.925173 -90.898609 
L 219.834531 -92.823469 
L 219.743301 -94.748329 
L 219.656154 -96.673189 
L 219.577635 -98.598049 
L 219.511649 -100.522909 
L 219.461028 -102.447769 
L 219.427268 -104.372629 
L 219.410442 -106.297489 
L 219.40931 -108.222349 
L 219.42158 -110.147209 
L 219.44426 -112.072069 
L 219.474031 -113.996929 
L 219.507574 -115.921789 
L 219.541814 -117.846649 
L 219.574045 -119.771509 
L 219.601968 -121.696369 
L 219.623653 -123.621229 
L 219.637475 -125.546089 
L 219.642043 -127.470949 
L 219.636141 -129.395809 
L 219.618685 -131.320669 
L 219.588678 -133.245529 
L 219.545176 -135.170389 
L 219.487243 -137.095249 
L 219.413936 -139.020109 
L 219.324308 -140.944969 
L 219.217457 -142.869828 
L 219.092615 -144.794688 
L 218.949253 -146.719548 
L 218.787169 -148.644408 
L 218.606527 -150.569268 
L 218.407822 -152.494128 
L 218.191759 -154.418988 
L 217.959077 -156.343848 
L 217.710354 -158.268708 
L 217.445836 -160.193568 
L 217.165342 -162.118428 
L 216.86826 -164.043288 
L 216.553647 -165.968148 
L 216.220401 -167.893008 
L 215.867492 -169.817868 
L 215.494184 -171.742728 
L 215.100243 -173.667588 
L 214.686051 -175.592448 
L 214.25265 -177.517308 
L 213.801674 -179.442168 
L 213.335193 -181.367028 
L 212.855498 -183.291888 
L 212.364866 -185.216748 
L 211.865353 -187.141608 
L 211.358695 -189.066468 
L 210.846353 -190.991328 
L 210.329772 -192.916188 
L 209.810863 -194.841048 
L 209.292721 -196.765908 
L 208.780487 -198.690768 
L 208.282268 -200.615628 
L 207.809913 -202.540488 
L 207.379466 -204.465348 
L 207.011079 -206.390208 
L 206.728235 -208.315068 
L 206.556236 -210.239928 
L 206.52 -212.164788 
L 206.641405 -214.089648 
L 206.936487 -216.014508 
L 207.41292 -217.939368 
L 208.068207 -219.864228 
L 208.888905 -221.789088 
L 209.851115 -223.713948 
L 210.922191 -225.638808 
L 212.063477 -227.563668 
L 213.233669 -229.488527 
L 214.392308 -231.413387 
L 215.502951 -233.338247 
L 216.535611 -235.263107 
L 217.468268 -237.187967 
L 218.28737 -239.112827 
L 224.51263 -239.112827 
L 224.51263 -239.112827 
L 225.331732 -237.187967 
L 226.264389 -235.263107 
L 227.297049 -233.338247 
L 228.407692 -231.413387 
L 229.566331 -229.488527 
L 230.736523 -227.563668 
L 231.877809 -225.638808 
L 232.948885 -223.713948 
L 233.911095 -221.789088 
L 234.731793 -219.864228 
L 235.38708 -217.939368 
L 235.863513 -216.014508 
L 236.158595 -214.089648 
L 236.28 -212.164788 
L 236.243764 -210.239928 
L 236.071765 -208.315068 
L 235.788921 -206.390208 
L 235.420534 -204.465348 
L 234.990087 -202.540488 
L 234.517732 -200.615628 
L 234.019513 -198.690768 
L 233.507279 -196.765908 
L 232.989137 -194.841048 
L 232.470228 -192.916188 
L 231.953647 -190.991328 
L 231.441305 -189.066468 
L 230.934647 -187.141608 
L 230.435134 -185.216748 
L 229.944502 -183.291888 
L 229.464807 -181.367028 
L 228.998326 -179.442168 
L 228.54735 -177.517308 
L 228.113949 -175.592448 
L 227.699757 -173.667588 
L 227.305816 -171.742728 
L 226.932508 -169.817868 
L 226.579599 -167.893008 
L 226.246353 -165.968148 
L 225.93174 -164.043288 
L 225.634658 -162.118428 
L 225.354164 -160.193568 
L 225.089646 -158.268708 
L 224.840923 -156.343848 
L 224.608241 -154.418988 
L 224.392178 -152.494128 
L 224.193473 -150.569268 
L 224.012831 -148.644408 
L 223.850747 -146.719548 
L 223.707385 -144.794688 
L 223.582543 -142.869828 
L 223.475692 -140.944969 
L 223.386064 -139.020109 
L 223.312757 -137.095249 
L 223.254824 -135.170389 
L 223.211322 -133.245529 
L 223.181315 -131.320669 
L 223.163859 -129.395809 
L 223.157957 -127.470949 
L 223.162525 -125.546089 
L 223.176347 -123.621229 
L 223.198032 -121.696369 
L 223.225955 -119.771509 
L 223.258186 -117.846649 
L 223.292426 -115.921789 
L 223.325969 -113.996929 
L 223.35574 -112.072069 
L 223.37842 -110.147209 
L 223.39069 -108.222349 
L 223.389558 -106.297489 
L 223.372732 -104.372629 
L 223.338972 -102.447769 
L 223.288351 -100.522909 
L 223.222365 -98.598049 
L 223.143846 -96.673189 
L 223.056699 -94.748329 
L 222.965469 -92.823469 
L 222.874827 -90.898609 
L 222.789032 -88.973749 
L 222.711467 -87.048889 
L 222.644321 -85.124029 
L 222.588449 -83.199169 
L 222.543447 -81.274309 
L 222.507881 -79.349449 
L 222.479642 -77.424589 
L 222.456315 -75.499729 
L 222.435516 -73.574869 
L 222.415101 -71.650009 
L 222.393275 -69.725149 
L 222.368574 -67.800289 
L 222.339801 -65.875429 
L 222.305966 -63.950569 
L 222.266264 -62.025709 
L 222.220132 -60.100849 
L 222.167353 -58.175989 
L 222.108176 -56.251129 
L 222.043404 -54.32627 
L 221.97441 -52.40141 
L 221.903049 -50.47655 
L 221.831493 -48.55169 
z
" id="m289ce5cf3d" style="stroke:#3d3d3d;stroke-width:1.5;"/>
    </defs>
    <g clip-path="url(#pae74b064f3)">
     <use style="fill:#e1812c;stroke:#3d3d3d;stroke-width:1.5;" x="0" xlink:href="#m289ce5cf3d" y="288"/>
    </g>
   </g>
   <g id="PolyCollection_3">
    <defs>
     <path d="M 363.19307 -46.281075 
L 362.32693 -46.281075 
L 362.259417 -48.190292 
L 362.193468 -50.09951 
L 362.130908 -52.008728 
L 362.072976 -53.917946 
L 362.020209 -55.827164 
L 361.97246 -57.736382 
L 361.929059 -59.645599 
L 361.889071 -61.554817 
L 361.851602 -63.464035 
L 361.816062 -65.373253 
L 361.782323 -67.282471 
L 361.750742 -69.191689 
L 361.72202 -71.100906 
L 361.696952 -73.010124 
L 361.676135 -74.919342 
L 361.659699 -76.82856 
L 361.647158 -78.737778 
L 361.637419 -80.646996 
L 361.628949 -82.556213 
L 361.620068 -84.465431 
L 361.609276 -86.374649 
L 361.595527 -88.283867 
L 361.578373 -90.193085 
L 361.557933 -92.102302 
L 361.53471 -94.01152 
L 361.509322 -95.920738 
L 361.482234 -97.829956 
L 361.453603 -99.739174 
L 361.423268 -101.648392 
L 361.390909 -103.557609 
L 361.356299 -105.466827 
L 361.319576 -107.376045 
L 361.281425 -109.285263 
L 361.243103 -111.194481 
L 361.206288 -113.103699 
L 361.172782 -115.012916 
L 361.144132 -116.922134 
L 361.121273 -118.831352 
L 361.104251 -120.74057 
L 361.092079 -122.649788 
L 361.082759 -124.559006 
L 361.073418 -126.468223 
L 361.060554 -128.377441 
L 361.040329 -130.286659 
L 361.008878 -132.195877 
L 360.962593 -134.105095 
L 360.898371 -136.014313 
L 360.813799 -137.92353 
L 360.707285 -139.832748 
L 360.578118 -141.741966 
L 360.426484 -143.651184 
L 360.253441 -145.560402 
L 360.060849 -147.46962 
L 359.85128 -149.378837 
L 359.627864 -151.288055 
L 359.39408 -153.197273 
L 359.153463 -155.106491 
L 358.909232 -157.015709 
L 358.663889 -158.924927 
L 358.418836 -160.834144 
L 358.174093 -162.743362 
L 357.928187 -164.65258 
L 357.678239 -166.561798 
L 357.420245 -168.471016 
L 357.14947 -170.380234 
L 356.860892 -172.289451 
L 356.549587 -174.198669 
L 356.211034 -176.107887 
L 355.841329 -178.017105 
L 355.437373 -179.926323 
L 354.997104 -181.83554 
L 354.519815 -183.744758 
L 354.006537 -185.653976 
L 353.460437 -187.563194 
L 352.887075 -189.472412 
L 352.294432 -191.38163 
L 351.692618 -193.290847 
L 351.093311 -195.200065 
L 350.509038 -197.109283 
L 349.9525 -199.018501 
L 349.436136 -200.927719 
L 348.972033 -202.836937 
L 348.572211 -204.746154 
L 348.249129 -206.655372 
L 348.016197 -208.56459 
L 347.888001 -210.473808 
L 347.88 -212.383026 
L 348.007577 -214.292244 
L 348.284429 -216.201461 
L 348.720501 -218.110679 
L 349.31976 -220.019897 
L 350.078231 -221.929115 
L 350.982692 -223.838333 
L 352.010385 -225.747551 
L 353.129934 -227.656768 
L 354.30346 -229.565986 
L 355.489668 -231.475204 
L 356.647465 -233.384422 
L 357.739593 -235.29364 
L 367.780407 -235.29364 
L 367.780407 -235.29364 
L 368.872535 -233.384422 
L 370.030332 -231.475204 
L 371.21654 -229.565986 
L 372.390066 -227.656768 
L 373.509615 -225.747551 
L 374.537308 -223.838333 
L 375.441769 -221.929115 
L 376.20024 -220.019897 
L 376.799499 -218.110679 
L 377.235571 -216.201461 
L 377.512423 -214.292244 
L 377.64 -212.383026 
L 377.631999 -210.473808 
L 377.503803 -208.56459 
L 377.270871 -206.655372 
L 376.947789 -204.746154 
L 376.547967 -202.836937 
L 376.083864 -200.927719 
L 375.5675 -199.018501 
L 375.010962 -197.109283 
L 374.426689 -195.200065 
L 373.827382 -193.290847 
L 373.225568 -191.38163 
L 372.632925 -189.472412 
L 372.059563 -187.563194 
L 371.513463 -185.653976 
L 371.000185 -183.744758 
L 370.522896 -181.83554 
L 370.082627 -179.926323 
L 369.678671 -178.017105 
L 369.308966 -176.107887 
L 368.970413 -174.198669 
L 368.659108 -172.289451 
L 368.37053 -170.380234 
L 368.099755 -168.471016 
L 367.841761 -166.561798 
L 367.591813 -164.65258 
L 367.345907 -162.743362 
L 367.101164 -160.834144 
L 366.856111 -158.924927 
L 366.610768 -157.015709 
L 366.366537 -155.106491 
L 366.12592 -153.197273 
L 365.892136 -151.288055 
L 365.66872 -149.378837 
L 365.459151 -147.46962 
L 365.266559 -145.560402 
L 365.093516 -143.651184 
L 364.941882 -141.741966 
L 364.812715 -139.832748 
L 364.706201 -137.92353 
L 364.621629 -136.014313 
L 364.557407 -134.105095 
L 364.511122 -132.195877 
L 364.479671 -130.286659 
L 364.459446 -128.377441 
L 364.446582 -126.468223 
L 364.437241 -124.559006 
L 364.427921 -122.649788 
L 364.415749 -120.74057 
L 364.398727 -118.831352 
L 364.375868 -116.922134 
L 364.347218 -115.012916 
L 364.313712 -113.103699 
L 364.276897 -111.194481 
L 364.238575 -109.285263 
L 364.200424 -107.376045 
L 364.163701 -105.466827 
L 364.129091 -103.557609 
L 364.096732 -101.648392 
L 364.066397 -99.739174 
L 364.037766 -97.829956 
L 364.010678 -95.920738 
L 363.98529 -94.01152 
L 363.962067 -92.102302 
L 363.941627 -90.193085 
L 363.924473 -88.283867 
L 363.910724 -86.374649 
L 363.899932 -84.465431 
L 363.891051 -82.556213 
L 363.882581 -80.646996 
L 363.872842 -78.737778 
L 363.860301 -76.82856 
L 363.843865 -74.919342 
L 363.823048 -73.010124 
L 363.79798 -71.100906 
L 363.769258 -69.191689 
L 363.737677 -67.282471 
L 363.703938 -65.373253 
L 363.668398 -63.464035 
L 363.630929 -61.554817 
L 363.590941 -59.645599 
L 363.54754 -57.736382 
L 363.499791 -55.827164 
L 363.447024 -53.917946 
L 363.389092 -52.008728 
L 363.326532 -50.09951 
L 363.260583 -48.190292 
L 363.19307 -46.281075 
z
" id="me566a31c44" style="stroke:#3d3d3d;stroke-width:1.5;"/>
    </defs>
    <g clip-path="url(#pae74b064f3)">
     <use style="fill:#3a923a;stroke:#3d3d3d;stroke-width:1.5;" x="0" xlink:href="#me566a31c44" y="288"/>
    </g>
   </g>
   <g id="patch_3">
    <path clip-path="url(#pae74b064f3)" d="M 109.8 242.512058 
L 109.8 242.512058 
L 109.8 242.512058 
L 109.8 242.512058 
z
" style="fill:#3274a1;stroke:#3d3d3d;stroke-linejoin:miter;stroke-width:0.75;"/>
   </g>
   <g id="patch_4">
    <path clip-path="url(#pae74b064f3)" d="M 109.8 242.512058 
L 109.8 242.512058 
L 109.8 242.512058 
L 109.8 242.512058 
z
" style="fill:#e1812c;stroke:#3d3d3d;stroke-linejoin:miter;stroke-width:0.75;"/>
   </g>
   <g id="patch_5">
    <path clip-path="url(#pae74b064f3)" d="M 109.8 242.512058 
L 109.8 242.512058 
L 109.8 242.512058 
L 109.8 242.512058 
z
" style="fill:#3a923a;stroke:#3d3d3d;stroke-linejoin:miter;stroke-width:0.75;"/>
   </g>
   <g id="matplotlib.axis_1">
    <g id="xtick_1">
     <g id="line2d_1">
      <defs>
       <path d="M 0 0 
L 0 3.5 
" id="m44fc9ca55d" style="stroke:#000000;stroke-width:0.8;"/>
      </defs>
      <g>
       <use style="stroke:#000000;stroke-width:0.8;" x="109.8" xlink:href="#m44fc9ca55d" y="252"/>
      </g>
     </g>
     <g id="text_1">
      <!-- train -->
      <g transform="translate(98.1625 266.598437)scale(0.1 -0.1)">
       <defs>
        <path d="M 18.3125 70.21875 
L 18.3125 54.6875 
L 36.8125 54.6875 
L 36.8125 47.703125 
L 18.3125 47.703125 
L 18.3125 18.015625 
Q 18.3125 11.328125 20.140625 9.421875 
Q 21.96875 7.515625 27.59375 7.515625 
L 36.8125 7.515625 
L 36.8125 0 
L 27.59375 0 
Q 17.1875 0 13.234375 3.875 
Q 9.28125 7.765625 9.28125 18.015625 
L 9.28125 47.703125 
L 2.6875 47.703125 
L 2.6875 54.6875 
L 9.28125 54.6875 
L 9.28125 70.21875 
z
" id="DejaVuSans-116"/>
        <path d="M 41.109375 46.296875 
Q 39.59375 47.171875 37.8125 47.578125 
Q 36.03125 48 33.890625 48 
Q 26.265625 48 22.1875 43.046875 
Q 18.109375 38.09375 18.109375 28.8125 
L 18.109375 0 
L 9.078125 0 
L 9.078125 54.6875 
L 18.109375 54.6875 
L 18.109375 46.1875 
Q 20.953125 51.171875 25.484375 53.578125 
Q 30.03125 56 36.53125 56 
Q 37.453125 56 38.578125 55.875 
Q 39.703125 55.765625 41.0625 55.515625 
z
" id="DejaVuSans-114"/>
        <path d="M 34.28125 27.484375 
Q 23.390625 27.484375 19.1875 25 
Q 14.984375 22.515625 14.984375 16.5 
Q 14.984375 11.71875 18.140625 8.90625 
Q 21.296875 6.109375 26.703125 6.109375 
Q 34.1875 6.109375 38.703125 11.40625 
Q 43.21875 16.703125 43.21875 25.484375 
L 43.21875 27.484375 
z
M 52.203125 31.203125 
L 52.203125 0 
L 43.21875 0 
L 43.21875 8.296875 
Q 40.140625 3.328125 35.546875 0.953125 
Q 30.953125 -1.421875 24.3125 -1.421875 
Q 15.921875 -1.421875 10.953125 3.296875 
Q 6 8.015625 6 15.921875 
Q 6 25.140625 12.171875 29.828125 
Q 18.359375 34.515625 30.609375 34.515625 
L 43.21875 34.515625 
L 43.21875 35.40625 
Q 43.21875 41.609375 39.140625 45 
Q 35.0625 48.390625 27.6875 48.390625 
Q 23 48.390625 18.546875 47.265625 
Q 14.109375 46.140625 10.015625 43.890625 
L 10.015625 52.203125 
Q 14.9375 54.109375 19.578125 55.046875 
Q 24.21875 56 28.609375 56 
Q 40.484375 56 46.34375 49.84375 
Q 52.203125 43.703125 52.203125 31.203125 
z
" id="DejaVuSans-97"/>
        <path d="M 9.421875 54.6875 
L 18.40625 54.6875 
L 18.40625 0 
L 9.421875 0 
z
M 9.421875 75.984375 
L 18.40625 75.984375 
L 18.40625 64.59375 
L 9.421875 64.59375 
z
" id="DejaVuSans-105"/>
        <path d="M 54.890625 33.015625 
L 54.890625 0 
L 45.90625 0 
L 45.90625 32.71875 
Q 45.90625 40.484375 42.875 44.328125 
Q 39.84375 48.1875 33.796875 48.1875 
Q 26.515625 48.1875 22.3125 43.546875 
Q 18.109375 38.921875 18.109375 30.90625 
L 18.109375 0 
L 9.078125 0 
L 9.078125 54.6875 
L 18.109375 54.6875 
L 18.109375 46.1875 
Q 21.34375 51.125 25.703125 53.5625 
Q 30.078125 56 35.796875 56 
Q 45.21875 56 50.046875 50.171875 
Q 54.890625 44.34375 54.890625 33.015625 
z
" id="DejaVuSans-110"/>
       </defs>
       <use xlink:href="#DejaVuSans-116"/>
       <use x="39.208984" xlink:href="#DejaVuSans-114"/>
       <use x="80.322266" xlink:href="#DejaVuSans-97"/>
       <use x="141.601562" xlink:href="#DejaVuSans-105"/>
       <use x="169.384766" xlink:href="#DejaVuSans-110"/>
      </g>
     </g>
    </g>
    <g id="xtick_2">
     <g id="line2d_2">
      <g>
       <use style="stroke:#000000;stroke-width:0.8;" x="221.4" xlink:href="#m44fc9ca55d" y="252"/>
      </g>
     </g>
     <g id="text_2">
      <!-- val -->
      <g transform="translate(213.9875 266.598437)scale(0.1 -0.1)">
       <defs>
        <path d="M 2.984375 54.6875 
L 12.5 54.6875 
L 29.59375 8.796875 
L 46.6875 54.6875 
L 56.203125 54.6875 
L 35.6875 0 
L 23.484375 0 
z
" id="DejaVuSans-118"/>
        <path d="M 9.421875 75.984375 
L 18.40625 75.984375 
L 18.40625 0 
L 9.421875 0 
z
" id="DejaVuSans-108"/>
       </defs>
       <use xlink:href="#DejaVuSans-118"/>
       <use x="59.179688" xlink:href="#DejaVuSans-97"/>
       <use x="120.458984" xlink:href="#DejaVuSans-108"/>
      </g>
     </g>
    </g>
    <g id="xtick_3">
     <g id="line2d_3">
      <g>
       <use style="stroke:#000000;stroke-width:0.8;" x="333" xlink:href="#m44fc9ca55d" y="252"/>
      </g>
     </g>
     <g id="text_3">
      <!-- test -->
      <g transform="translate(323.398438 266.598437)scale(0.1 -0.1)">
       <defs>
        <path d="M 56.203125 29.59375 
L 56.203125 25.203125 
L 14.890625 25.203125 
Q 15.484375 15.921875 20.484375 11.0625 
Q 25.484375 6.203125 34.421875 6.203125 
Q 39.59375 6.203125 44.453125 7.46875 
Q 49.3125 8.734375 54.109375 11.28125 
L 54.109375 2.78125 
Q 49.265625 0.734375 44.1875 -0.34375 
Q 39.109375 -1.421875 33.890625 -1.421875 
Q 20.796875 -1.421875 13.15625 6.1875 
Q 5.515625 13.8125 5.515625 26.8125 
Q 5.515625 40.234375 12.765625 48.109375 
Q 20.015625 56 32.328125 56 
Q 43.359375 56 49.78125 48.890625 
Q 56.203125 41.796875 56.203125 29.59375 
z
M 47.21875 32.234375 
Q 47.125 39.59375 43.09375 43.984375 
Q 39.0625 48.390625 32.421875 48.390625 
Q 24.90625 48.390625 20.390625 44.140625 
Q 15.875 39.890625 15.1875 32.171875 
z
" id="DejaVuSans-101"/>
        <path d="M 44.28125 53.078125 
L 44.28125 44.578125 
Q 40.484375 46.53125 36.375 47.5 
Q 32.28125 48.484375 27.875 48.484375 
Q 21.1875 48.484375 17.84375 46.4375 
Q 14.5 44.390625 14.5 40.28125 
Q 14.5 37.15625 16.890625 35.375 
Q 19.28125 33.59375 26.515625 31.984375 
L 29.59375 31.296875 
Q 39.15625 29.25 43.1875 25.515625 
Q 47.21875 21.78125 47.21875 15.09375 
Q 47.21875 7.46875 41.1875 3.015625 
Q 35.15625 -1.421875 24.609375 -1.421875 
Q 20.21875 -1.421875 15.453125 -0.5625 
Q 10.6875 0.296875 5.421875 2 
L 5.421875 11.28125 
Q 10.40625 8.6875 15.234375 7.390625 
Q 20.0625 6.109375 24.8125 6.109375 
Q 31.15625 6.109375 34.5625 8.28125 
Q 37.984375 10.453125 37.984375 14.40625 
Q 37.984375 18.0625 35.515625 20.015625 
Q 33.0625 21.96875 24.703125 23.78125 
L 21.578125 24.515625 
Q 13.234375 26.265625 9.515625 29.90625 
Q 5.8125 33.546875 5.8125 39.890625 
Q 5.8125 47.609375 11.28125 51.796875 
Q 16.75 56 26.8125 56 
Q 31.78125 56 36.171875 55.265625 
Q 40.578125 54.546875 44.28125 53.078125 
z
" id="DejaVuSans-115"/>
       </defs>
       <use xlink:href="#DejaVuSans-116"/>
       <use x="39.208984" xlink:href="#DejaVuSans-101"/>
       <use x="100.732422" xlink:href="#DejaVuSans-115"/>
       <use x="152.832031" xlink:href="#DejaVuSans-116"/>
      </g>
     </g>
    </g>
    <g id="text_4">
     <!-- set -->
     <g transform="translate(213.758594 280.276563)scale(0.1 -0.1)">
      <use xlink:href="#DejaVuSans-115"/>
      <use x="52.099609" xlink:href="#DejaVuSans-101"/>
      <use x="113.623047" xlink:href="#DejaVuSans-116"/>
     </g>
    </g>
   </g>
   <g id="matplotlib.axis_2">
    <g id="ytick_1">
     <g id="line2d_4">
      <defs>
       <path d="M 0 0 
L -3.5 0 
" id="ma226853ee1" style="stroke:#000000;stroke-width:0.8;"/>
      </defs>
      <g>
       <use style="stroke:#000000;stroke-width:0.8;" x="54" xlink:href="#ma226853ee1" y="242.512058"/>
      </g>
     </g>
     <g id="text_5">
      <!-- 0.0 -->
      <g transform="translate(31.096875 246.311276)scale(0.1 -0.1)">
       <defs>
        <path d="M 31.78125 66.40625 
Q 24.171875 66.40625 20.328125 58.90625 
Q 16.5 51.421875 16.5 36.375 
Q 16.5 21.390625 20.328125 13.890625 
Q 24.171875 6.390625 31.78125 6.390625 
Q 39.453125 6.390625 43.28125 13.890625 
Q 47.125 21.390625 47.125 36.375 
Q 47.125 51.421875 43.28125 58.90625 
Q 39.453125 66.40625 31.78125 66.40625 
z
M 31.78125 74.21875 
Q 44.046875 74.21875 50.515625 64.515625 
Q 56.984375 54.828125 56.984375 36.375 
Q 56.984375 17.96875 50.515625 8.265625 
Q 44.046875 -1.421875 31.78125 -1.421875 
Q 19.53125 -1.421875 13.0625 8.265625 
Q 6.59375 17.96875 6.59375 36.375 
Q 6.59375 54.828125 13.0625 64.515625 
Q 19.53125 74.21875 31.78125 74.21875 
z
" id="DejaVuSans-48"/>
        <path d="M 10.6875 12.40625 
L 21 12.40625 
L 21 0 
L 10.6875 0 
z
" id="DejaVuSans-46"/>
       </defs>
       <use xlink:href="#DejaVuSans-48"/>
       <use x="63.623047" xlink:href="#DejaVuSans-46"/>
       <use x="95.410156" xlink:href="#DejaVuSans-48"/>
      </g>
     </g>
    </g>
    <g id="ytick_2">
     <g id="line2d_5">
      <g>
       <use style="stroke:#000000;stroke-width:0.8;" x="54" xlink:href="#ma226853ee1" y="201.178997"/>
      </g>
     </g>
     <g id="text_6">
      <!-- 0.2 -->
      <g transform="translate(31.096875 204.978216)scale(0.1 -0.1)">
       <defs>
        <path d="M 19.1875 8.296875 
L 53.609375 8.296875 
L 53.609375 0 
L 7.328125 0 
L 7.328125 8.296875 
Q 12.9375 14.109375 22.625 23.890625 
Q 32.328125 33.6875 34.8125 36.53125 
Q 39.546875 41.84375 41.421875 45.53125 
Q 43.3125 49.21875 43.3125 52.78125 
Q 43.3125 58.59375 39.234375 62.25 
Q 35.15625 65.921875 28.609375 65.921875 
Q 23.96875 65.921875 18.8125 64.3125 
Q 13.671875 62.703125 7.8125 59.421875 
L 7.8125 69.390625 
Q 13.765625 71.78125 18.9375 73 
Q 24.125 74.21875 28.421875 74.21875 
Q 39.75 74.21875 46.484375 68.546875 
Q 53.21875 62.890625 53.21875 53.421875 
Q 53.21875 48.921875 51.53125 44.890625 
Q 49.859375 40.875 45.40625 35.40625 
Q 44.1875 33.984375 37.640625 27.21875 
Q 31.109375 20.453125 19.1875 8.296875 
z
" id="DejaVuSans-50"/>
       </defs>
       <use xlink:href="#DejaVuSans-48"/>
       <use x="63.623047" xlink:href="#DejaVuSans-46"/>
       <use x="95.410156" xlink:href="#DejaVuSans-50"/>
      </g>
     </g>
    </g>
    <g id="ytick_3">
     <g id="line2d_6">
      <g>
       <use style="stroke:#000000;stroke-width:0.8;" x="54" xlink:href="#ma226853ee1" y="159.845937"/>
      </g>
     </g>
     <g id="text_7">
      <!-- 0.4 -->
      <g transform="translate(31.096875 163.645156)scale(0.1 -0.1)">
       <defs>
        <path d="M 37.796875 64.3125 
L 12.890625 25.390625 
L 37.796875 25.390625 
z
M 35.203125 72.90625 
L 47.609375 72.90625 
L 47.609375 25.390625 
L 58.015625 25.390625 
L 58.015625 17.1875 
L 47.609375 17.1875 
L 47.609375 0 
L 37.796875 0 
L 37.796875 17.1875 
L 4.890625 17.1875 
L 4.890625 26.703125 
z
" id="DejaVuSans-52"/>
       </defs>
       <use xlink:href="#DejaVuSans-48"/>
       <use x="63.623047" xlink:href="#DejaVuSans-46"/>
       <use x="95.410156" xlink:href="#DejaVuSans-52"/>
      </g>
     </g>
    </g>
    <g id="ytick_4">
     <g id="line2d_7">
      <g>
       <use style="stroke:#000000;stroke-width:0.8;" x="54" xlink:href="#ma226853ee1" y="118.512877"/>
      </g>
     </g>
     <g id="text_8">
      <!-- 0.6 -->
      <g transform="translate(31.096875 122.312096)scale(0.1 -0.1)">
       <defs>
        <path d="M 33.015625 40.375 
Q 26.375 40.375 22.484375 35.828125 
Q 18.609375 31.296875 18.609375 23.390625 
Q 18.609375 15.53125 22.484375 10.953125 
Q 26.375 6.390625 33.015625 6.390625 
Q 39.65625 6.390625 43.53125 10.953125 
Q 47.40625 15.53125 47.40625 23.390625 
Q 47.40625 31.296875 43.53125 35.828125 
Q 39.65625 40.375 33.015625 40.375 
z
M 52.59375 71.296875 
L 52.59375 62.3125 
Q 48.875 64.0625 45.09375 64.984375 
Q 41.3125 65.921875 37.59375 65.921875 
Q 27.828125 65.921875 22.671875 59.328125 
Q 17.53125 52.734375 16.796875 39.40625 
Q 19.671875 43.65625 24.015625 45.921875 
Q 28.375 48.1875 33.59375 48.1875 
Q 44.578125 48.1875 50.953125 41.515625 
Q 57.328125 34.859375 57.328125 23.390625 
Q 57.328125 12.15625 50.6875 5.359375 
Q 44.046875 -1.421875 33.015625 -1.421875 
Q 20.359375 -1.421875 13.671875 8.265625 
Q 6.984375 17.96875 6.984375 36.375 
Q 6.984375 53.65625 15.1875 63.9375 
Q 23.390625 74.21875 37.203125 74.21875 
Q 40.921875 74.21875 44.703125 73.484375 
Q 48.484375 72.75 52.59375 71.296875 
z
" id="DejaVuSans-54"/>
       </defs>
       <use xlink:href="#DejaVuSans-48"/>
       <use x="63.623047" xlink:href="#DejaVuSans-46"/>
       <use x="95.410156" xlink:href="#DejaVuSans-54"/>
      </g>
     </g>
    </g>
    <g id="ytick_5">
     <g id="line2d_8">
      <g>
       <use style="stroke:#000000;stroke-width:0.8;" x="54" xlink:href="#ma226853ee1" y="77.179817"/>
      </g>
     </g>
     <g id="text_9">
      <!-- 0.8 -->
      <g transform="translate(31.096875 80.979035)scale(0.1 -0.1)">
       <defs>
        <path d="M 31.78125 34.625 
Q 24.75 34.625 20.71875 30.859375 
Q 16.703125 27.09375 16.703125 20.515625 
Q 16.703125 13.921875 20.71875 10.15625 
Q 24.75 6.390625 31.78125 6.390625 
Q 38.8125 6.390625 42.859375 10.171875 
Q 46.921875 13.96875 46.921875 20.515625 
Q 46.921875 27.09375 42.890625 30.859375 
Q 38.875 34.625 31.78125 34.625 
z
M 21.921875 38.8125 
Q 15.578125 40.375 12.03125 44.71875 
Q 8.5 49.078125 8.5 55.328125 
Q 8.5 64.0625 14.71875 69.140625 
Q 20.953125 74.21875 31.78125 74.21875 
Q 42.671875 74.21875 48.875 69.140625 
Q 55.078125 64.0625 55.078125 55.328125 
Q 55.078125 49.078125 51.53125 44.71875 
Q 48 40.375 41.703125 38.8125 
Q 48.828125 37.15625 52.796875 32.3125 
Q 56.78125 27.484375 56.78125 20.515625 
Q 56.78125 9.90625 50.3125 4.234375 
Q 43.84375 -1.421875 31.78125 -1.421875 
Q 19.734375 -1.421875 13.25 4.234375 
Q 6.78125 9.90625 6.78125 20.515625 
Q 6.78125 27.484375 10.78125 32.3125 
Q 14.796875 37.15625 21.921875 38.8125 
z
M 18.3125 54.390625 
Q 18.3125 48.734375 21.84375 45.5625 
Q 25.390625 42.390625 31.78125 42.390625 
Q 38.140625 42.390625 41.71875 45.5625 
Q 45.3125 48.734375 45.3125 54.390625 
Q 45.3125 60.0625 41.71875 63.234375 
Q 38.140625 66.40625 31.78125 66.40625 
Q 25.390625 66.40625 21.84375 63.234375 
Q 18.3125 60.0625 18.3125 54.390625 
z
" id="DejaVuSans-56"/>
       </defs>
       <use xlink:href="#DejaVuSans-48"/>
       <use x="63.623047" xlink:href="#DejaVuSans-46"/>
       <use x="95.410156" xlink:href="#DejaVuSans-56"/>
      </g>
     </g>
    </g>
    <g id="ytick_6">
     <g id="line2d_9">
      <g>
       <use style="stroke:#000000;stroke-width:0.8;" x="54" xlink:href="#ma226853ee1" y="35.846756"/>
      </g>
     </g>
     <g id="text_10">
      <!-- 1.0 -->
      <g transform="translate(31.096875 39.645975)scale(0.1 -0.1)">
       <defs>
        <path d="M 12.40625 8.296875 
L 28.515625 8.296875 
L 28.515625 63.921875 
L 10.984375 60.40625 
L 10.984375 69.390625 
L 28.421875 72.90625 
L 38.28125 72.90625 
L 38.28125 8.296875 
L 54.390625 8.296875 
L 54.390625 0 
L 12.40625 0 
z
" id="DejaVuSans-49"/>
       </defs>
       <use xlink:href="#DejaVuSans-49"/>
       <use x="63.623047" xlink:href="#DejaVuSans-46"/>
       <use x="95.410156" xlink:href="#DejaVuSans-48"/>
      </g>
     </g>
    </g>
    <g id="text_11">
     <!-- value -->
     <g transform="translate(25.017187 156.937813)rotate(-90)scale(0.1 -0.1)">
      <defs>
       <path d="M 8.5 21.578125 
L 8.5 54.6875 
L 17.484375 54.6875 
L 17.484375 21.921875 
Q 17.484375 14.15625 20.5 10.265625 
Q 23.53125 6.390625 29.59375 6.390625 
Q 36.859375 6.390625 41.078125 11.03125 
Q 45.3125 15.671875 45.3125 23.6875 
L 45.3125 54.6875 
L 54.296875 54.6875 
L 54.296875 0 
L 45.3125 0 
L 45.3125 8.40625 
Q 42.046875 3.421875 37.71875 1 
Q 33.40625 -1.421875 27.6875 -1.421875 
Q 18.265625 -1.421875 13.375 4.4375 
Q 8.5 10.296875 8.5 21.578125 
z
M 31.109375 56 
z
" id="DejaVuSans-117"/>
      </defs>
      <use xlink:href="#DejaVuSans-118"/>
      <use x="59.179688" xlink:href="#DejaVuSans-97"/>
      <use x="120.458984" xlink:href="#DejaVuSans-108"/>
      <use x="148.242188" xlink:href="#DejaVuSans-117"/>
      <use x="211.621094" xlink:href="#DejaVuSans-101"/>
     </g>
    </g>
   </g>
   <g id="line2d_10">
    <path clip-path="url(#pae74b064f3)" d="M 80.04 140.589306 
L 80.04 44.443636 
" style="fill:none;stroke:#3d3d3d;stroke-linecap:square;stroke-width:1.5;"/>
   </g>
   <g id="line2d_11">
    <path clip-path="url(#pae74b064f3)" d="M 80.04 96.913103 
L 80.04 67.650889 
" style="fill:none;stroke:#3d3d3d;stroke-linecap:square;stroke-width:4.5;"/>
   </g>
   <g id="line2d_12">
    <path clip-path="url(#pae74b064f3)" d="M 221.4 179.851063 
L 221.4 48.887173 
" style="fill:none;stroke:#3d3d3d;stroke-linecap:square;stroke-width:1.5;"/>
   </g>
   <g id="line2d_13">
    <path clip-path="url(#pae74b064f3)" d="M 221.4 115.864062 
L 221.4 72.836292 
" style="fill:none;stroke:#3d3d3d;stroke-linecap:square;stroke-width:4.5;"/>
   </g>
   <g id="line2d_14">
    <path clip-path="url(#pae74b064f3)" d="M 362.76 176.871029 
L 362.76 52.70636 
" style="fill:none;stroke:#3d3d3d;stroke-linecap:square;stroke-width:1.5;"/>
   </g>
   <g id="line2d_15">
    <path clip-path="url(#pae74b064f3)" d="M 362.76 114.82706 
L 362.76 72.550495 
" style="fill:none;stroke:#3d3d3d;stroke-linecap:square;stroke-width:4.5;"/>
   </g>
   <g id="patch_6">
    <path d="M 54 252 
L 54 34.56 
" style="fill:none;stroke:#000000;stroke-linecap:square;stroke-linejoin:miter;stroke-width:0.8;"/>
   </g>
   <g id="patch_7">
    <path d="M 388.8 252 
L 388.8 34.56 
" style="fill:none;stroke:#000000;stroke-linecap:square;stroke-linejoin:miter;stroke-width:0.8;"/>
   </g>
   <g id="patch_8">
    <path d="M 54 252 
L 388.8 252 
" style="fill:none;stroke:#000000;stroke-linecap:square;stroke-linejoin:miter;stroke-width:0.8;"/>
   </g>
   <g id="patch_9">
    <path d="M 54 34.56 
L 388.8 34.56 
" style="fill:none;stroke:#000000;stroke-linecap:square;stroke-linejoin:miter;stroke-width:0.8;"/>
   </g>
   <g id="PathCollection_1">
    <defs>
     <path d="M 0 1.5 
C 0.397805 1.5 0.77937 1.341951 1.06066 1.06066 
C 1.341951 0.77937 1.5 0.397805 1.5 0 
C 1.5 -0.397805 1.341951 -0.77937 1.06066 -1.06066 
C 0.77937 -1.341951 0.397805 -1.5 0 -1.5 
C -0.397805 -1.5 -0.77937 -1.341951 -1.06066 -1.06066 
C -1.341951 -0.77937 -1.5 -0.397805 -1.5 0 
C -1.5 0.397805 -1.341951 0.77937 -1.06066 1.06066 
C -0.77937 1.341951 -0.397805 1.5 0 1.5 
z
" id="mc475358144" style="stroke:#3d3d3d;"/>
    </defs>
    <g clip-path="url(#pae74b064f3)">
     <use style="fill:#ffffff;stroke:#3d3d3d;" x="80.04" xlink:href="#mc475358144" y="79.112431"/>
    </g>
   </g>
   <g id="PathCollection_2">
    <g clip-path="url(#pae74b064f3)">
     <use style="fill:#ffffff;stroke:#3d3d3d;" x="221.4" xlink:href="#mc475358144" y="89.310567"/>
    </g>
   </g>
   <g id="PathCollection_3">
    <g clip-path="url(#pae74b064f3)">
     <use style="fill:#ffffff;stroke:#3d3d3d;" x="362.76" xlink:href="#mc475358144" y="88.463315"/>
    </g>
   </g>
   <g id="legend_1">
    <g id="patch_10">
     <path d="M 326.525 247 
L 381.8 247 
Q 383.8 247 383.8 245 
L 383.8 187.2875 
Q 383.8 185.2875 381.8 185.2875 
L 326.525 185.2875 
Q 324.525 185.2875 324.525 187.2875 
L 324.525 245 
Q 324.525 247 326.525 247 
z
" style="fill:#ffffff;opacity:0.8;stroke:#cccccc;stroke-linejoin:miter;"/>
    </g>
    <g id="text_12">
     <!-- set -->
     <g transform="translate(346.521094 196.885938)scale(0.1 -0.1)">
      <use xlink:href="#DejaVuSans-115"/>
      <use x="52.099609" xlink:href="#DejaVuSans-101"/>
      <use x="113.623047" xlink:href="#DejaVuSans-116"/>
     </g>
    </g>
    <g id="patch_11">
     <path d="M 328.525 211.564063 
L 348.525 211.564063 
L 348.525 204.564063 
L 328.525 204.564063 
z
" style="fill:#3274a1;stroke:#3d3d3d;stroke-linejoin:miter;stroke-width:0.75;"/>
    </g>
    <g id="text_13">
     <!-- train -->
     <g transform="translate(356.525 211.564063)scale(0.1 -0.1)">
      <use xlink:href="#DejaVuSans-116"/>
      <use x="39.208984" xlink:href="#DejaVuSans-114"/>
      <use x="80.322266" xlink:href="#DejaVuSans-97"/>
      <use x="141.601562" xlink:href="#DejaVuSans-105"/>
      <use x="169.384766" xlink:href="#DejaVuSans-110"/>
     </g>
    </g>
    <g id="patch_12">
     <path d="M 328.525 226.242188 
L 348.525 226.242188 
L 348.525 219.242188 
L 328.525 219.242188 
z
" style="fill:#e1812c;stroke:#3d3d3d;stroke-linejoin:miter;stroke-width:0.75;"/>
    </g>
    <g id="text_14">
     <!-- val -->
     <g transform="translate(356.525 226.242188)scale(0.1 -0.1)">
      <use xlink:href="#DejaVuSans-118"/>
      <use x="59.179688" xlink:href="#DejaVuSans-97"/>
      <use x="120.458984" xlink:href="#DejaVuSans-108"/>
     </g>
    </g>
    <g id="patch_13">
     <path d="M 328.525 240.920313 
L 348.525 240.920313 
L 348.525 233.920313 
L 328.525 233.920313 
z
" style="fill:#3a923a;stroke:#3d3d3d;stroke-linejoin:miter;stroke-width:0.75;"/>
    </g>
    <g id="text_15">
     <!-- test -->
     <g transform="translate(356.525 240.920313)scale(0.1 -0.1)">
      <use xlink:href="#DejaVuSans-116"/>
      <use x="39.208984" xlink:href="#DejaVuSans-101"/>
      <use x="100.732422" xlink:href="#DejaVuSans-115"/>
      <use x="152.832031" xlink:href="#DejaVuSans-116"/>
     </g>
    </g>
   </g>
  </g>
 </g>
 <defs>
  <clipPath id="pae74b064f3">
   <rect height="217.44" width="334.8" x="54" y="34.56"/>
  </clipPath>
 </defs>
</svg>
