<?xml version="1.0" encoding="utf-8" standalone="no"?>
<!DOCTYPE svg PUBLIC "-//W3C//DTD SVG 1.1//EN"
  "http://www.w3.org/Graphics/SVG/1.1/DTD/svg11.dtd">
<!-- Created with matplotlib (https://matplotlib.org/) -->
<svg height="288pt" version="1.1" viewBox="0 0 432 288" width="432pt" xmlns="http://www.w3.org/2000/svg" xmlns:xlink="http://www.w3.org/1999/xlink">
 <metadata>
  <rdf:RDF xmlns:cc="http://creativecommons.org/ns#" xmlns:dc="http://purl.org/dc/elements/1.1/" xmlns:rdf="http://www.w3.org/1999/02/22-rdf-syntax-ns#">
   <cc:Work>
    <dc:type rdf:resource="http://purl.org/dc/dcmitype/StillImage"/>
    <dc:date>2022-04-14T11:27:35.171691</dc:date>
    <dc:format>image/svg+xml</dc:format>
    <dc:creator>
     <cc:Agent>
      <dc:title>Matplotlib v3.3.4, https://matplotlib.org/</dc:title>
     </cc:Agent>
    </dc:creator>
   </cc:Work>
  </rdf:RDF>
 </metadata>
 <defs>
  <style type="text/css">*{stroke-linecap:butt;stroke-linejoin:round;}</style>
 </defs>
 <g id="figure_1">
  <g id="patch_1">
   <path d="M 0 288 
L 432 288 
L 432 0 
L 0 0 
z
" style="fill:#ffffff;"/>
  </g>
  <g id="axes_1">
   <g id="patch_2">
    <path d="M 54 252 
L 388.8 252 
L 388.8 34.56 
L 54 34.56 
z
" style="fill:#ffffff;"/>
   </g>
   <g id="PolyCollection_1">
    <defs>
     <path d="M 83.429003 -45.887674 
L 76.650997 -45.887674 
L 76.384433 -47.884328 
L 76.163189 -49.880981 
L 75.99684 -51.877634 
L 75.892369 -53.874288 
L 75.853617 -55.870941 
L 75.880983 -57.867595 
L 75.971439 -59.864248 
L 76.118829 -61.860902 
L 76.314425 -63.857555 
L 76.547673 -65.854208 
L 76.807034 -67.850862 
L 77.080836 -69.847515 
L 77.358054 -71.844169 
L 77.628942 -73.840822 
L 77.885483 -75.837476 
L 78.121646 -77.834129 
L 78.333439 -79.830782 
L 78.518805 -81.827436 
L 78.677391 -83.824089 
L 78.810238 -85.820743 
L 78.919423 -87.817396 
L 79.007718 -89.81405 
L 79.078259 -91.810703 
L 79.134273 -93.807356 
L 79.178862 -95.80401 
L 79.214839 -97.800663 
L 79.244628 -99.797317 
L 79.270213 -101.79397 
L 79.293124 -103.790624 
L 79.314465 -105.787277 
L 79.334954 -107.78393 
L 79.354985 -109.780584 
L 79.374691 -111.777237 
L 79.394013 -113.773891 
L 79.412752 -115.770544 
L 79.430628 -117.767198 
L 79.447313 -119.763851 
L 79.462465 -121.760504 
L 79.475748 -123.757158 
L 79.486849 -125.753811 
L 79.495483 -127.750465 
L 79.501407 -129.747118 
L 79.504423 -131.743772 
L 79.504387 -133.740425 
L 79.501215 -135.737078 
L 79.494884 -137.733732 
L 79.485437 -139.730385 
L 79.472973 -141.727039 
L 79.457641 -143.723692 
L 79.439624 -145.720346 
L 79.41912 -147.716999 
L 79.396321 -149.713652 
L 79.371391 -151.710306 
L 79.34445 -153.706959 
L 79.315556 -155.703613 
L 79.284695 -157.700266 
L 79.251779 -159.69692 
L 79.216646 -161.693573 
L 79.179061 -163.690226 
L 79.138722 -165.68688 
L 79.095271 -167.683533 
L 79.048295 -169.680187 
L 78.997326 -171.67684 
L 78.941845 -173.673494 
L 78.881266 -175.670147 
L 78.814924 -177.6668 
L 78.742043 -179.663454 
L 78.6617 -181.660107 
L 78.572769 -183.656761 
L 78.473855 -185.653414 
L 78.363219 -187.650068 
L 78.238684 -189.646721 
L 78.097548 -191.643374 
L 77.936494 -193.640028 
L 77.751518 -195.636681 
L 77.537885 -197.633335 
L 77.290132 -199.629988 
L 77.002131 -201.626642 
L 76.667244 -203.623295 
L 76.278575 -205.619948 
L 75.829362 -207.616602 
L 75.313499 -209.613255 
L 74.726208 -211.609909 
L 74.064838 -213.606562 
L 73.329761 -215.603216 
L 72.52529 -217.599869 
L 71.660533 -219.596522 
L 70.750059 -221.593176 
L 69.814235 -223.589829 
L 68.879117 -225.586483 
L 67.975771 -227.583136 
L 67.138987 -229.57979 
L 66.40539 -231.576443 
L 65.811062 -233.573096 
L 65.388854 -235.56975 
L 65.165671 -237.566403 
L 65.16 -239.563057 
L 65.380022 -241.55971 
L 65.822526 -243.556364 
L 94.257474 -243.556364 
L 94.257474 -243.556364 
L 94.699978 -241.55971 
L 94.92 -239.563057 
L 94.914329 -237.566403 
L 94.691146 -235.56975 
L 94.268938 -233.573096 
L 93.67461 -231.576443 
L 92.941013 -229.57979 
L 92.104229 -227.583136 
L 91.200883 -225.586483 
L 90.265765 -223.589829 
L 89.329941 -221.593176 
L 88.419467 -219.596522 
L 87.55471 -217.599869 
L 86.750239 -215.603216 
L 86.015162 -213.606562 
L 85.353792 -211.609909 
L 84.766501 -209.613255 
L 84.250638 -207.616602 
L 83.801425 -205.619948 
L 83.412756 -203.623295 
L 83.077869 -201.626642 
L 82.789868 -199.629988 
L 82.542115 -197.633335 
L 82.328482 -195.636681 
L 82.143506 -193.640028 
L 81.982452 -191.643374 
L 81.841316 -189.646721 
L 81.716781 -187.650068 
L 81.606145 -185.653414 
L 81.507231 -183.656761 
L 81.4183 -181.660107 
L 81.337957 -179.663454 
L 81.265076 -177.6668 
L 81.198734 -175.670147 
L 81.138155 -173.673494 
L 81.082674 -171.67684 
L 81.031705 -169.680187 
L 80.984729 -167.683533 
L 80.941278 -165.68688 
L 80.900939 -163.690226 
L 80.863354 -161.693573 
L 80.828221 -159.69692 
L 80.795305 -157.700266 
L 80.764444 -155.703613 
L 80.73555 -153.706959 
L 80.708609 -151.710306 
L 80.683679 -149.713652 
L 80.66088 -147.716999 
L 80.640376 -145.720346 
L 80.622359 -143.723692 
L 80.607027 -141.727039 
L 80.594563 -139.730385 
L 80.585116 -137.733732 
L 80.578785 -135.737078 
L 80.575613 -133.740425 
L 80.575577 -131.743772 
L 80.578593 -129.747118 
L 80.584517 -127.750465 
L 80.593151 -125.753811 
L 80.604252 -123.757158 
L 80.617535 -121.760504 
L 80.632687 -119.763851 
L 80.649372 -117.767198 
L 80.667248 -115.770544 
L 80.685987 -113.773891 
L 80.705309 -111.777237 
L 80.725015 -109.780584 
L 80.745046 -107.78393 
L 80.765535 -105.787277 
L 80.786876 -103.790624 
L 80.809787 -101.79397 
L 80.835372 -99.797317 
L 80.865161 -97.800663 
L 80.901138 -95.80401 
L 80.945727 -93.807356 
L 81.001741 -91.810703 
L 81.072282 -89.81405 
L 81.160577 -87.817396 
L 81.269762 -85.820743 
L 81.402609 -83.824089 
L 81.561195 -81.827436 
L 81.746561 -79.830782 
L 81.958354 -77.834129 
L 82.194517 -75.837476 
L 82.451058 -73.840822 
L 82.721946 -71.844169 
L 82.999164 -69.847515 
L 83.272966 -67.850862 
L 83.532327 -65.854208 
L 83.765575 -63.857555 
L 83.961171 -61.860902 
L 84.108561 -59.864248 
L 84.199017 -57.867595 
L 84.226383 -55.870941 
L 84.187631 -53.874288 
L 84.08316 -51.877634 
L 83.916811 -49.880981 
L 83.695567 -47.884328 
L 83.429003 -45.887674 
z
" id="m792baf9b84" style="stroke:#3d3d3d;stroke-width:1.5;"/>
    </defs>
    <g clip-path="url(#p1bad43ad74)">
     <use style="fill:#3274a1;stroke:#3d3d3d;stroke-width:1.5;" x="0" xlink:href="#m792baf9b84" y="288"/>
    </g>
   </g>
   <g id="PolyCollection_2">
    <defs>
     <path d="M 225.39035 -45.883636 
L 217.40965 -45.883636 
L 217.210069 -47.879032 
L 217.048806 -49.874428 
L 216.930526 -51.869824 
L 216.858494 -53.865219 
L 216.834404 -55.860615 
L 216.858286 -57.856011 
L 216.92851 -59.851407 
L 217.041889 -61.846803 
L 217.19386 -63.842198 
L 217.378748 -65.837594 
L 217.590072 -67.83299 
L 217.820881 -69.828386 
L 218.064103 -71.823782 
L 218.312863 -73.819177 
L 218.560776 -75.814573 
L 218.802172 -77.809969 
L 219.032272 -79.805365 
L 219.247287 -81.80076 
L 219.444454 -83.796156 
L 219.622016 -85.791552 
L 219.779146 -87.786948 
L 219.915833 -89.782344 
L 220.032751 -91.777739 
L 220.131106 -93.773135 
L 220.212483 -95.768531 
L 220.278707 -97.763927 
L 220.331712 -99.759322 
L 220.373436 -101.754718 
L 220.405727 -103.750114 
L 220.430291 -105.74551 
L 220.448636 -107.740906 
L 220.462057 -109.736301 
L 220.471626 -111.731697 
L 220.478193 -113.727093 
L 220.482403 -115.722489 
L 220.484717 -117.717884 
L 220.485435 -119.71328 
L 220.484726 -121.708676 
L 220.48265 -123.704072 
L 220.479189 -125.699468 
L 220.47427 -127.694863 
L 220.467786 -129.690259 
L 220.459616 -131.685655 
L 220.449645 -133.681051 
L 220.437769 -135.676446 
L 220.42391 -137.671842 
L 220.40802 -139.667238 
L 220.390083 -141.662634 
L 220.370112 -143.65803 
L 220.348146 -145.653425 
L 220.324238 -147.648821 
L 220.298445 -149.644217 
L 220.270817 -151.639613 
L 220.241376 -153.635009 
L 220.210102 -155.630404 
L 220.176914 -157.6258 
L 220.141649 -159.621196 
L 220.10405 -161.616592 
L 220.063738 -163.611987 
L 220.020199 -165.607383 
L 219.972764 -167.602779 
L 219.920589 -169.598175 
L 219.862631 -171.593571 
L 219.797631 -173.588966 
L 219.724089 -175.584362 
L 219.640243 -177.579758 
L 219.544047 -179.575154 
L 219.433153 -181.570549 
L 219.304901 -183.565945 
L 219.156318 -185.561341 
L 218.984134 -187.556737 
L 218.78481 -189.552133 
L 218.5546 -191.547528 
L 218.289637 -193.542924 
L 217.986056 -195.53832 
L 217.640149 -197.533716 
L 217.248561 -199.529111 
L 216.808524 -201.524507 
L 216.318115 -203.519903 
L 215.776546 -205.515299 
L 215.184455 -207.510695 
L 214.544194 -209.50609 
L 213.860091 -211.501486 
L 213.138651 -213.496882 
L 212.388692 -215.492278 
L 211.621372 -217.487673 
L 210.850095 -219.483069 
L 210.090276 -221.478465 
L 209.358962 -223.473861 
L 208.674304 -225.469257 
L 208.054906 -227.464652 
L 207.519057 -229.460048 
L 207.083917 -231.455444 
L 206.764667 -233.45084 
L 206.573719 -235.446235 
L 206.52 -237.441631 
L 206.60841 -239.437027 
L 206.839454 -241.432423 
L 207.209121 -243.427819 
L 235.590879 -243.427819 
L 235.590879 -243.427819 
L 235.960546 -241.432423 
L 236.19159 -239.437027 
L 236.28 -237.441631 
L 236.226281 -235.446235 
L 236.035333 -233.45084 
L 235.716083 -231.455444 
L 235.280943 -229.460048 
L 234.745094 -227.464652 
L 234.125696 -225.469257 
L 233.441038 -223.473861 
L 232.709724 -221.478465 
L 231.949905 -219.483069 
L 231.178628 -217.487673 
L 230.411308 -215.492278 
L 229.661349 -213.496882 
L 228.939909 -211.501486 
L 228.255806 -209.50609 
L 227.615545 -207.510695 
L 227.023454 -205.515299 
L 226.481885 -203.519903 
L 225.991476 -201.524507 
L 225.551439 -199.529111 
L 225.159851 -197.533716 
L 224.813944 -195.53832 
L 224.510363 -193.542924 
L 224.2454 -191.547528 
L 224.01519 -189.552133 
L 223.815866 -187.556737 
L 223.643682 -185.561341 
L 223.495099 -183.565945 
L 223.366847 -181.570549 
L 223.255953 -179.575154 
L 223.159757 -177.579758 
L 223.075911 -175.584362 
L 223.002369 -173.588966 
L 222.937369 -171.593571 
L 222.879411 -169.598175 
L 222.827236 -167.602779 
L 222.779801 -165.607383 
L 222.736262 -163.611987 
L 222.69595 -161.616592 
L 222.658351 -159.621196 
L 222.623086 -157.6258 
L 222.589898 -155.630404 
L 222.558624 -153.635009 
L 222.529183 -151.639613 
L 222.501555 -149.644217 
L 222.475762 -147.648821 
L 222.451854 -145.653425 
L 222.429888 -143.65803 
L 222.409917 -141.662634 
L 222.39198 -139.667238 
L 222.37609 -137.671842 
L 222.362231 -135.676446 
L 222.350355 -133.681051 
L 222.340384 -131.685655 
L 222.332214 -129.690259 
L 222.32573 -127.694863 
L 222.320811 -125.699468 
L 222.31735 -123.704072 
L 222.315274 -121.708676 
L 222.314565 -119.71328 
L 222.315283 -117.717884 
L 222.317597 -115.722489 
L 222.321807 -113.727093 
L 222.328374 -111.731697 
L 222.337943 -109.736301 
L 222.351364 -107.740906 
L 222.369709 -105.74551 
L 222.394273 -103.750114 
L 222.426564 -101.754718 
L 222.468288 -99.759322 
L 222.521293 -97.763927 
L 222.587517 -95.768531 
L 222.668894 -93.773135 
L 222.767249 -91.777739 
L 222.884167 -89.782344 
L 223.020854 -87.786948 
L 223.177984 -85.791552 
L 223.355546 -83.796156 
L 223.552713 -81.80076 
L 223.767728 -79.805365 
L 223.997828 -77.809969 
L 224.239224 -75.814573 
L 224.487137 -73.819177 
L 224.735897 -71.823782 
L 224.979119 -69.828386 
L 225.209928 -67.83299 
L 225.421252 -65.837594 
L 225.60614 -63.842198 
L 225.758111 -61.846803 
L 225.87149 -59.851407 
L 225.941714 -57.856011 
L 225.965596 -55.860615 
L 225.941506 -53.865219 
L 225.869474 -51.869824 
L 225.751194 -49.874428 
L 225.589931 -47.879032 
L 225.39035 -45.883636 
z
" id="mbbc5634919" style="stroke:#3d3d3d;stroke-width:1.5;"/>
    </defs>
    <g clip-path="url(#p1bad43ad74)">
     <use style="fill:#e1812c;stroke:#3d3d3d;stroke-width:1.5;" x="0" xlink:href="#mbbc5634919" y="288"/>
    </g>
   </g>
   <g id="PolyCollection_3">
    <defs>
     <path d="M 366.905187 -46.765613 
L 358.614813 -46.765613 
L 358.422679 -48.752532 
L 358.268389 -50.739452 
L 358.155927 -52.726372 
L 358.087946 -54.713292 
L 358.065639 -56.700212 
L 358.088685 -58.687131 
L 358.155284 -60.674051 
L 358.262266 -62.660971 
L 358.405279 -64.647891 
L 358.579028 -66.634811 
L 358.777556 -68.621731 
L 358.994546 -70.60865 
L 359.223619 -72.59557 
L 359.45861 -74.58249 
L 359.693812 -76.56941 
L 359.924171 -78.55633 
L 360.145423 -80.54325 
L 360.354173 -82.530169 
L 360.547924 -84.517089 
L 360.72505 -86.504009 
L 360.884732 -88.490929 
L 361.026859 -90.477849 
L 361.151913 -92.464768 
L 361.260844 -94.451688 
L 361.354941 -96.438608 
L 361.435713 -98.425528 
L 361.504782 -100.412448 
L 361.563793 -102.399368 
L 361.614335 -104.386287 
L 361.65789 -106.373207 
L 361.695787 -108.360127 
L 361.729179 -110.347047 
L 361.759027 -112.333967 
L 361.786096 -114.320886 
L 361.810958 -116.307806 
L 361.834 -118.294726 
L 361.855441 -120.281646 
L 361.875343 -122.268566 
L 361.893635 -124.255486 
L 361.910133 -126.242405 
L 361.924559 -128.229325 
L 361.936571 -130.216245 
L 361.945781 -132.203165 
L 361.951777 -134.190085 
L 361.95415 -136.177005 
L 361.952507 -138.163924 
L 361.946491 -140.150844 
L 361.935796 -142.137764 
L 361.920172 -144.124684 
L 361.899434 -146.111604 
L 361.87346 -148.098523 
L 361.842193 -150.085443 
L 361.805627 -152.072363 
L 361.763801 -154.059283 
L 361.716783 -156.046203 
L 361.664653 -158.033123 
L 361.607484 -160.020042 
L 361.545322 -162.006962 
L 361.478161 -163.993882 
L 361.405922 -165.980802 
L 361.328427 -167.967722 
L 361.245374 -169.954641 
L 361.156309 -171.941561 
L 361.060598 -173.928481 
L 360.957396 -175.915401 
L 360.845621 -177.902321 
L 360.723917 -179.889241 
L 360.590627 -181.87616 
L 360.443765 -183.86308 
L 360.280997 -185.85 
L 360.09963 -187.83692 
L 359.896614 -189.82384 
L 359.668574 -191.81076 
L 359.411862 -193.797679 
L 359.122647 -195.784599 
L 358.797048 -197.771519 
L 358.431308 -199.758439 
L 358.022014 -201.745359 
L 357.566368 -203.732278 
L 357.062486 -205.719198 
L 356.509728 -207.706118 
L 355.909031 -209.693038 
L 355.263232 -211.679958 
L 354.57734 -213.666878 
L 353.858742 -215.653797 
L 353.117303 -217.640717 
L 352.365338 -219.627637 
L 351.617436 -221.614557 
L 350.890117 -223.601477 
L 350.201336 -225.588396 
L 349.569828 -227.575316 
L 349.014342 -229.562236 
L 348.552788 -231.549156 
L 348.201356 -233.536076 
L 347.973666 -235.522996 
L 347.88 -237.509915 
L 347.92669 -239.496835 
L 348.115694 -241.483755 
L 348.444408 -243.470675 
L 377.075592 -243.470675 
L 377.075592 -243.470675 
L 377.404306 -241.483755 
L 377.59331 -239.496835 
L 377.64 -237.509915 
L 377.546334 -235.522996 
L 377.318644 -233.536076 
L 376.967212 -231.549156 
L 376.505658 -229.562236 
L 375.950172 -227.575316 
L 375.318664 -225.588396 
L 374.629883 -223.601477 
L 373.902564 -221.614557 
L 373.154662 -219.627637 
L 372.402697 -217.640717 
L 371.661258 -215.653797 
L 370.94266 -213.666878 
L 370.256768 -211.679958 
L 369.610969 -209.693038 
L 369.010272 -207.706118 
L 368.457514 -205.719198 
L 367.953632 -203.732278 
L 367.497986 -201.745359 
L 367.088692 -199.758439 
L 366.722952 -197.771519 
L 366.397353 -195.784599 
L 366.108138 -193.797679 
L 365.851426 -191.81076 
L 365.623386 -189.82384 
L 365.42037 -187.83692 
L 365.239003 -185.85 
L 365.076235 -183.86308 
L 364.929373 -181.87616 
L 364.796083 -179.889241 
L 364.674379 -177.902321 
L 364.562604 -175.915401 
L 364.459402 -173.928481 
L 364.363691 -171.941561 
L 364.274626 -169.954641 
L 364.191573 -167.967722 
L 364.114078 -165.980802 
L 364.041839 -163.993882 
L 363.974678 -162.006962 
L 363.912516 -160.020042 
L 363.855347 -158.033123 
L 363.803217 -156.046203 
L 363.756199 -154.059283 
L 363.714373 -152.072363 
L 363.677807 -150.085443 
L 363.64654 -148.098523 
L 363.620566 -146.111604 
L 363.599828 -144.124684 
L 363.584204 -142.137764 
L 363.573509 -140.150844 
L 363.567493 -138.163924 
L 363.56585 -136.177005 
L 363.568223 -134.190085 
L 363.574219 -132.203165 
L 363.583429 -130.216245 
L 363.595441 -128.229325 
L 363.609867 -126.242405 
L 363.626365 -124.255486 
L 363.644657 -122.268566 
L 363.664559 -120.281646 
L 363.686 -118.294726 
L 363.709042 -116.307806 
L 363.733904 -114.320886 
L 363.760973 -112.333967 
L 363.790821 -110.347047 
L 363.824213 -108.360127 
L 363.86211 -106.373207 
L 363.905665 -104.386287 
L 363.956207 -102.399368 
L 364.015218 -100.412448 
L 364.084287 -98.425528 
L 364.165059 -96.438608 
L 364.259156 -94.451688 
L 364.368087 -92.464768 
L 364.493141 -90.477849 
L 364.635268 -88.490929 
L 364.79495 -86.504009 
L 364.972076 -84.517089 
L 365.165827 -82.530169 
L 365.374577 -80.54325 
L 365.595829 -78.55633 
L 365.826188 -76.56941 
L 366.06139 -74.58249 
L 366.296381 -72.59557 
L 366.525454 -70.60865 
L 366.742444 -68.621731 
L 366.940972 -66.634811 
L 367.114721 -64.647891 
L 367.257734 -62.660971 
L 367.364716 -60.674051 
L 367.431315 -58.687131 
L 367.454361 -56.700212 
L 367.432054 -54.713292 
L 367.364073 -52.726372 
L 367.251611 -50.739452 
L 367.097321 -48.752532 
L 366.905187 -46.765613 
z
" id="mc8036fc8fc" style="stroke:#3d3d3d;stroke-width:1.5;"/>
    </defs>
    <g clip-path="url(#p1bad43ad74)">
     <use style="fill:#3a923a;stroke:#3d3d3d;stroke-width:1.5;" x="0" xlink:href="#mc8036fc8fc" y="288"/>
    </g>
   </g>
   <g id="patch_3">
    <path clip-path="url(#p1bad43ad74)" d="M 109.8 242.810569 
L 109.8 242.810569 
L 109.8 242.810569 
L 109.8 242.810569 
z
" style="fill:#3274a1;stroke:#3d3d3d;stroke-linejoin:miter;stroke-width:0.75;"/>
   </g>
   <g id="patch_4">
    <path clip-path="url(#p1bad43ad74)" d="M 109.8 242.810569 
L 109.8 242.810569 
L 109.8 242.810569 
L 109.8 242.810569 
z
" style="fill:#e1812c;stroke:#3d3d3d;stroke-linejoin:miter;stroke-width:0.75;"/>
   </g>
   <g id="patch_5">
    <path clip-path="url(#p1bad43ad74)" d="M 109.8 242.810569 
L 109.8 242.810569 
L 109.8 242.810569 
L 109.8 242.810569 
z
" style="fill:#3a923a;stroke:#3d3d3d;stroke-linejoin:miter;stroke-width:0.75;"/>
   </g>
   <g id="matplotlib.axis_1">
    <g id="xtick_1">
     <g id="line2d_1">
      <defs>
       <path d="M 0 0 
L 0 3.5 
" id="mc3de77da0e" style="stroke:#000000;stroke-width:0.8;"/>
      </defs>
      <g>
       <use style="stroke:#000000;stroke-width:0.8;" x="109.8" xlink:href="#mc3de77da0e" y="252"/>
      </g>
     </g>
     <g id="text_1">
      <!-- train -->
      <g transform="translate(98.1625 266.598437)scale(0.1 -0.1)">
       <defs>
        <path d="M 18.3125 70.21875 
L 18.3125 54.6875 
L 36.8125 54.6875 
L 36.8125 47.703125 
L 18.3125 47.703125 
L 18.3125 18.015625 
Q 18.3125 11.328125 20.140625 9.421875 
Q 21.96875 7.515625 27.59375 7.515625 
L 36.8125 7.515625 
L 36.8125 0 
L 27.59375 0 
Q 17.1875 0 13.234375 3.875 
Q 9.28125 7.765625 9.28125 18.015625 
L 9.28125 47.703125 
L 2.6875 47.703125 
L 2.6875 54.6875 
L 9.28125 54.6875 
L 9.28125 70.21875 
z
" id="DejaVuSans-116"/>
        <path d="M 41.109375 46.296875 
Q 39.59375 47.171875 37.8125 47.578125 
Q 36.03125 48 33.890625 48 
Q 26.265625 48 22.1875 43.046875 
Q 18.109375 38.09375 18.109375 28.8125 
L 18.109375 0 
L 9.078125 0 
L 9.078125 54.6875 
L 18.109375 54.6875 
L 18.109375 46.1875 
Q 20.953125 51.171875 25.484375 53.578125 
Q 30.03125 56 36.53125 56 
Q 37.453125 56 38.578125 55.875 
Q 39.703125 55.765625 41.0625 55.515625 
z
" id="DejaVuSans-114"/>
        <path d="M 34.28125 27.484375 
Q 23.390625 27.484375 19.1875 25 
Q 14.984375 22.515625 14.984375 16.5 
Q 14.984375 11.71875 18.140625 8.90625 
Q 21.296875 6.109375 26.703125 6.109375 
Q 34.1875 6.109375 38.703125 11.40625 
Q 43.21875 16.703125 43.21875 25.484375 
L 43.21875 27.484375 
z
M 52.203125 31.203125 
L 52.203125 0 
L 43.21875 0 
L 43.21875 8.296875 
Q 40.140625 3.328125 35.546875 0.953125 
Q 30.953125 -1.421875 24.3125 -1.421875 
Q 15.921875 -1.421875 10.953125 3.296875 
Q 6 8.015625 6 15.921875 
Q 6 25.140625 12.171875 29.828125 
Q 18.359375 34.515625 30.609375 34.515625 
L 43.21875 34.515625 
L 43.21875 35.40625 
Q 43.21875 41.609375 39.140625 45 
Q 35.0625 48.390625 27.6875 48.390625 
Q 23 48.390625 18.546875 47.265625 
Q 14.109375 46.140625 10.015625 43.890625 
L 10.015625 52.203125 
Q 14.9375 54.109375 19.578125 55.046875 
Q 24.21875 56 28.609375 56 
Q 40.484375 56 46.34375 49.84375 
Q 52.203125 43.703125 52.203125 31.203125 
z
" id="DejaVuSans-97"/>
        <path d="M 9.421875 54.6875 
L 18.40625 54.6875 
L 18.40625 0 
L 9.421875 0 
z
M 9.421875 75.984375 
L 18.40625 75.984375 
L 18.40625 64.59375 
L 9.421875 64.59375 
z
" id="DejaVuSans-105"/>
        <path d="M 54.890625 33.015625 
L 54.890625 0 
L 45.90625 0 
L 45.90625 32.71875 
Q 45.90625 40.484375 42.875 44.328125 
Q 39.84375 48.1875 33.796875 48.1875 
Q 26.515625 48.1875 22.3125 43.546875 
Q 18.109375 38.921875 18.109375 30.90625 
L 18.109375 0 
L 9.078125 0 
L 9.078125 54.6875 
L 18.109375 54.6875 
L 18.109375 46.1875 
Q 21.34375 51.125 25.703125 53.5625 
Q 30.078125 56 35.796875 56 
Q 45.21875 56 50.046875 50.171875 
Q 54.890625 44.34375 54.890625 33.015625 
z
" id="DejaVuSans-110"/>
       </defs>
       <use xlink:href="#DejaVuSans-116"/>
       <use x="39.208984" xlink:href="#DejaVuSans-114"/>
       <use x="80.322266" xlink:href="#DejaVuSans-97"/>
       <use x="141.601562" xlink:href="#DejaVuSans-105"/>
       <use x="169.384766" xlink:href="#DejaVuSans-110"/>
      </g>
     </g>
    </g>
    <g id="xtick_2">
     <g id="line2d_2">
      <g>
       <use style="stroke:#000000;stroke-width:0.8;" x="221.4" xlink:href="#mc3de77da0e" y="252"/>
      </g>
     </g>
     <g id="text_2">
      <!-- val -->
      <g transform="translate(213.9875 266.598437)scale(0.1 -0.1)">
       <defs>
        <path d="M 2.984375 54.6875 
L 12.5 54.6875 
L 29.59375 8.796875 
L 46.6875 54.6875 
L 56.203125 54.6875 
L 35.6875 0 
L 23.484375 0 
z
" id="DejaVuSans-118"/>
        <path d="M 9.421875 75.984375 
L 18.40625 75.984375 
L 18.40625 0 
L 9.421875 0 
z
" id="DejaVuSans-108"/>
       </defs>
       <use xlink:href="#DejaVuSans-118"/>
       <use x="59.179688" xlink:href="#DejaVuSans-97"/>
       <use x="120.458984" xlink:href="#DejaVuSans-108"/>
      </g>
     </g>
    </g>
    <g id="xtick_3">
     <g id="line2d_3">
      <g>
       <use style="stroke:#000000;stroke-width:0.8;" x="333" xlink:href="#mc3de77da0e" y="252"/>
      </g>
     </g>
     <g id="text_3">
      <!-- test -->
      <g transform="translate(323.398438 266.598437)scale(0.1 -0.1)">
       <defs>
        <path d="M 56.203125 29.59375 
L 56.203125 25.203125 
L 14.890625 25.203125 
Q 15.484375 15.921875 20.484375 11.0625 
Q 25.484375 6.203125 34.421875 6.203125 
Q 39.59375 6.203125 44.453125 7.46875 
Q 49.3125 8.734375 54.109375 11.28125 
L 54.109375 2.78125 
Q 49.265625 0.734375 44.1875 -0.34375 
Q 39.109375 -1.421875 33.890625 -1.421875 
Q 20.796875 -1.421875 13.15625 6.1875 
Q 5.515625 13.8125 5.515625 26.8125 
Q 5.515625 40.234375 12.765625 48.109375 
Q 20.015625 56 32.328125 56 
Q 43.359375 56 49.78125 48.890625 
Q 56.203125 41.796875 56.203125 29.59375 
z
M 47.21875 32.234375 
Q 47.125 39.59375 43.09375 43.984375 
Q 39.0625 48.390625 32.421875 48.390625 
Q 24.90625 48.390625 20.390625 44.140625 
Q 15.875 39.890625 15.1875 32.171875 
z
" id="DejaVuSans-101"/>
        <path d="M 44.28125 53.078125 
L 44.28125 44.578125 
Q 40.484375 46.53125 36.375 47.5 
Q 32.28125 48.484375 27.875 48.484375 
Q 21.1875 48.484375 17.84375 46.4375 
Q 14.5 44.390625 14.5 40.28125 
Q 14.5 37.15625 16.890625 35.375 
Q 19.28125 33.59375 26.515625 31.984375 
L 29.59375 31.296875 
Q 39.15625 29.25 43.1875 25.515625 
Q 47.21875 21.78125 47.21875 15.09375 
Q 47.21875 7.46875 41.1875 3.015625 
Q 35.15625 -1.421875 24.609375 -1.421875 
Q 20.21875 -1.421875 15.453125 -0.5625 
Q 10.6875 0.296875 5.421875 2 
L 5.421875 11.28125 
Q 10.40625 8.6875 15.234375 7.390625 
Q 20.0625 6.109375 24.8125 6.109375 
Q 31.15625 6.109375 34.5625 8.28125 
Q 37.984375 10.453125 37.984375 14.40625 
Q 37.984375 18.0625 35.515625 20.015625 
Q 33.0625 21.96875 24.703125 23.78125 
L 21.578125 24.515625 
Q 13.234375 26.265625 9.515625 29.90625 
Q 5.8125 33.546875 5.8125 39.890625 
Q 5.8125 47.609375 11.28125 51.796875 
Q 16.75 56 26.8125 56 
Q 31.78125 56 36.171875 55.265625 
Q 40.578125 54.546875 44.28125 53.078125 
z
" id="DejaVuSans-115"/>
       </defs>
       <use xlink:href="#DejaVuSans-116"/>
       <use x="39.208984" xlink:href="#DejaVuSans-101"/>
       <use x="100.732422" xlink:href="#DejaVuSans-115"/>
       <use x="152.832031" xlink:href="#DejaVuSans-116"/>
      </g>
     </g>
    </g>
    <g id="text_4">
     <!-- set -->
     <g transform="translate(213.758594 280.276563)scale(0.1 -0.1)">
      <use xlink:href="#DejaVuSans-115"/>
      <use x="52.099609" xlink:href="#DejaVuSans-101"/>
      <use x="113.623047" xlink:href="#DejaVuSans-116"/>
     </g>
    </g>
   </g>
   <g id="matplotlib.axis_2">
    <g id="ytick_1">
     <g id="line2d_4">
      <defs>
       <path d="M 0 0 
L -3.5 0 
" id="mc9115fe7c1" style="stroke:#000000;stroke-width:0.8;"/>
      </defs>
      <g>
       <use style="stroke:#000000;stroke-width:0.8;" x="54" xlink:href="#mc9115fe7c1" y="242.810569"/>
      </g>
     </g>
     <g id="text_5">
      <!-- 0.0 -->
      <g transform="translate(31.096875 246.609787)scale(0.1 -0.1)">
       <defs>
        <path d="M 31.78125 66.40625 
Q 24.171875 66.40625 20.328125 58.90625 
Q 16.5 51.421875 16.5 36.375 
Q 16.5 21.390625 20.328125 13.890625 
Q 24.171875 6.390625 31.78125 6.390625 
Q 39.453125 6.390625 43.28125 13.890625 
Q 47.125 21.390625 47.125 36.375 
Q 47.125 51.421875 43.28125 58.90625 
Q 39.453125 66.40625 31.78125 66.40625 
z
M 31.78125 74.21875 
Q 44.046875 74.21875 50.515625 64.515625 
Q 56.984375 54.828125 56.984375 36.375 
Q 56.984375 17.96875 50.515625 8.265625 
Q 44.046875 -1.421875 31.78125 -1.421875 
Q 19.53125 -1.421875 13.0625 8.265625 
Q 6.59375 17.96875 6.59375 36.375 
Q 6.59375 54.828125 13.0625 64.515625 
Q 19.53125 74.21875 31.78125 74.21875 
z
" id="DejaVuSans-48"/>
        <path d="M 10.6875 12.40625 
L 21 12.40625 
L 21 0 
L 10.6875 0 
z
" id="DejaVuSans-46"/>
       </defs>
       <use xlink:href="#DejaVuSans-48"/>
       <use x="63.623047" xlink:href="#DejaVuSans-46"/>
       <use x="95.410156" xlink:href="#DejaVuSans-48"/>
      </g>
     </g>
    </g>
    <g id="ytick_2">
     <g id="line2d_5">
      <g>
       <use style="stroke:#000000;stroke-width:0.8;" x="54" xlink:href="#mc9115fe7c1" y="202.998357"/>
      </g>
     </g>
     <g id="text_6">
      <!-- 0.2 -->
      <g transform="translate(31.096875 206.797576)scale(0.1 -0.1)">
       <defs>
        <path d="M 19.1875 8.296875 
L 53.609375 8.296875 
L 53.609375 0 
L 7.328125 0 
L 7.328125 8.296875 
Q 12.9375 14.109375 22.625 23.890625 
Q 32.328125 33.6875 34.8125 36.53125 
Q 39.546875 41.84375 41.421875 45.53125 
Q 43.3125 49.21875 43.3125 52.78125 
Q 43.3125 58.59375 39.234375 62.25 
Q 35.15625 65.921875 28.609375 65.921875 
Q 23.96875 65.921875 18.8125 64.3125 
Q 13.671875 62.703125 7.8125 59.421875 
L 7.8125 69.390625 
Q 13.765625 71.78125 18.9375 73 
Q 24.125 74.21875 28.421875 74.21875 
Q 39.75 74.21875 46.484375 68.546875 
Q 53.21875 62.890625 53.21875 53.421875 
Q 53.21875 48.921875 51.53125 44.890625 
Q 49.859375 40.875 45.40625 35.40625 
Q 44.1875 33.984375 37.640625 27.21875 
Q 31.109375 20.453125 19.1875 8.296875 
z
" id="DejaVuSans-50"/>
       </defs>
       <use xlink:href="#DejaVuSans-48"/>
       <use x="63.623047" xlink:href="#DejaVuSans-46"/>
       <use x="95.410156" xlink:href="#DejaVuSans-50"/>
      </g>
     </g>
    </g>
    <g id="ytick_3">
     <g id="line2d_6">
      <g>
       <use style="stroke:#000000;stroke-width:0.8;" x="54" xlink:href="#mc9115fe7c1" y="163.186146"/>
      </g>
     </g>
     <g id="text_7">
      <!-- 0.4 -->
      <g transform="translate(31.096875 166.985365)scale(0.1 -0.1)">
       <defs>
        <path d="M 37.796875 64.3125 
L 12.890625 25.390625 
L 37.796875 25.390625 
z
M 35.203125 72.90625 
L 47.609375 72.90625 
L 47.609375 25.390625 
L 58.015625 25.390625 
L 58.015625 17.1875 
L 47.609375 17.1875 
L 47.609375 0 
L 37.796875 0 
L 37.796875 17.1875 
L 4.890625 17.1875 
L 4.890625 26.703125 
z
" id="DejaVuSans-52"/>
       </defs>
       <use xlink:href="#DejaVuSans-48"/>
       <use x="63.623047" xlink:href="#DejaVuSans-46"/>
       <use x="95.410156" xlink:href="#DejaVuSans-52"/>
      </g>
     </g>
    </g>
    <g id="ytick_4">
     <g id="line2d_7">
      <g>
       <use style="stroke:#000000;stroke-width:0.8;" x="54" xlink:href="#mc9115fe7c1" y="123.373935"/>
      </g>
     </g>
     <g id="text_8">
      <!-- 0.6 -->
      <g transform="translate(31.096875 127.173154)scale(0.1 -0.1)">
       <defs>
        <path d="M 33.015625 40.375 
Q 26.375 40.375 22.484375 35.828125 
Q 18.609375 31.296875 18.609375 23.390625 
Q 18.609375 15.53125 22.484375 10.953125 
Q 26.375 6.390625 33.015625 6.390625 
Q 39.65625 6.390625 43.53125 10.953125 
Q 47.40625 15.53125 47.40625 23.390625 
Q 47.40625 31.296875 43.53125 35.828125 
Q 39.65625 40.375 33.015625 40.375 
z
M 52.59375 71.296875 
L 52.59375 62.3125 
Q 48.875 64.0625 45.09375 64.984375 
Q 41.3125 65.921875 37.59375 65.921875 
Q 27.828125 65.921875 22.671875 59.328125 
Q 17.53125 52.734375 16.796875 39.40625 
Q 19.671875 43.65625 24.015625 45.921875 
Q 28.375 48.1875 33.59375 48.1875 
Q 44.578125 48.1875 50.953125 41.515625 
Q 57.328125 34.859375 57.328125 23.390625 
Q 57.328125 12.15625 50.6875 5.359375 
Q 44.046875 -1.421875 33.015625 -1.421875 
Q 20.359375 -1.421875 13.671875 8.265625 
Q 6.984375 17.96875 6.984375 36.375 
Q 6.984375 53.65625 15.1875 63.9375 
Q 23.390625 74.21875 37.203125 74.21875 
Q 40.921875 74.21875 44.703125 73.484375 
Q 48.484375 72.75 52.59375 71.296875 
z
" id="DejaVuSans-54"/>
       </defs>
       <use xlink:href="#DejaVuSans-48"/>
       <use x="63.623047" xlink:href="#DejaVuSans-46"/>
       <use x="95.410156" xlink:href="#DejaVuSans-54"/>
      </g>
     </g>
    </g>
    <g id="ytick_5">
     <g id="line2d_8">
      <g>
       <use style="stroke:#000000;stroke-width:0.8;" x="54" xlink:href="#mc9115fe7c1" y="83.561724"/>
      </g>
     </g>
     <g id="text_9">
      <!-- 0.8 -->
      <g transform="translate(31.096875 87.360942)scale(0.1 -0.1)">
       <defs>
        <path d="M 31.78125 34.625 
Q 24.75 34.625 20.71875 30.859375 
Q 16.703125 27.09375 16.703125 20.515625 
Q 16.703125 13.921875 20.71875 10.15625 
Q 24.75 6.390625 31.78125 6.390625 
Q 38.8125 6.390625 42.859375 10.171875 
Q 46.921875 13.96875 46.921875 20.515625 
Q 46.921875 27.09375 42.890625 30.859375 
Q 38.875 34.625 31.78125 34.625 
z
M 21.921875 38.8125 
Q 15.578125 40.375 12.03125 44.71875 
Q 8.5 49.078125 8.5 55.328125 
Q 8.5 64.0625 14.71875 69.140625 
Q 20.953125 74.21875 31.78125 74.21875 
Q 42.671875 74.21875 48.875 69.140625 
Q 55.078125 64.0625 55.078125 55.328125 
Q 55.078125 49.078125 51.53125 44.71875 
Q 48 40.375 41.703125 38.8125 
Q 48.828125 37.15625 52.796875 32.3125 
Q 56.78125 27.484375 56.78125 20.515625 
Q 56.78125 9.90625 50.3125 4.234375 
Q 43.84375 -1.421875 31.78125 -1.421875 
Q 19.734375 -1.421875 13.25 4.234375 
Q 6.78125 9.90625 6.78125 20.515625 
Q 6.78125 27.484375 10.78125 32.3125 
Q 14.796875 37.15625 21.921875 38.8125 
z
M 18.3125 54.390625 
Q 18.3125 48.734375 21.84375 45.5625 
Q 25.390625 42.390625 31.78125 42.390625 
Q 38.140625 42.390625 41.71875 45.5625 
Q 45.3125 48.734375 45.3125 54.390625 
Q 45.3125 60.0625 41.71875 63.234375 
Q 38.140625 66.40625 31.78125 66.40625 
Q 25.390625 66.40625 21.84375 63.234375 
Q 18.3125 60.0625 18.3125 54.390625 
z
" id="DejaVuSans-56"/>
       </defs>
       <use xlink:href="#DejaVuSans-48"/>
       <use x="63.623047" xlink:href="#DejaVuSans-46"/>
       <use x="95.410156" xlink:href="#DejaVuSans-56"/>
      </g>
     </g>
    </g>
    <g id="ytick_6">
     <g id="line2d_9">
      <g>
       <use style="stroke:#000000;stroke-width:0.8;" x="54" xlink:href="#mc9115fe7c1" y="43.749512"/>
      </g>
     </g>
     <g id="text_10">
      <!-- 1.0 -->
      <g transform="translate(31.096875 47.548731)scale(0.1 -0.1)">
       <defs>
        <path d="M 12.40625 8.296875 
L 28.515625 8.296875 
L 28.515625 63.921875 
L 10.984375 60.40625 
L 10.984375 69.390625 
L 28.421875 72.90625 
L 38.28125 72.90625 
L 38.28125 8.296875 
L 54.390625 8.296875 
L 54.390625 0 
L 12.40625 0 
z
" id="DejaVuSans-49"/>
       </defs>
       <use xlink:href="#DejaVuSans-49"/>
       <use x="63.623047" xlink:href="#DejaVuSans-46"/>
       <use x="95.410156" xlink:href="#DejaVuSans-48"/>
      </g>
     </g>
    </g>
    <g id="text_11">
     <!-- value -->
     <g transform="translate(25.017187 156.937813)rotate(-90)scale(0.1 -0.1)">
      <defs>
       <path d="M 8.5 21.578125 
L 8.5 54.6875 
L 17.484375 54.6875 
L 17.484375 21.921875 
Q 17.484375 14.15625 20.5 10.265625 
Q 23.53125 6.390625 29.59375 6.390625 
Q 36.859375 6.390625 41.078125 11.03125 
Q 45.3125 15.671875 45.3125 23.6875 
L 45.3125 54.6875 
L 54.296875 54.6875 
L 54.296875 0 
L 45.3125 0 
L 45.3125 8.40625 
Q 42.046875 3.421875 37.71875 1 
Q 33.40625 -1.421875 27.6875 -1.421875 
Q 18.265625 -1.421875 13.375 4.4375 
Q 8.5 10.296875 8.5 21.578125 
z
M 31.109375 56 
z
" id="DejaVuSans-117"/>
      </defs>
      <use xlink:href="#DejaVuSans-118"/>
      <use x="59.179688" xlink:href="#DejaVuSans-97"/>
      <use x="120.458984" xlink:href="#DejaVuSans-108"/>
      <use x="148.242188" xlink:href="#DejaVuSans-117"/>
      <use x="211.621094" xlink:href="#DejaVuSans-101"/>
     </g>
    </g>
   </g>
   <g id="line2d_10">
    <path clip-path="url(#p1bad43ad74)" d="M 80.04 220.629688 
L 80.04 44.443636 
" style="fill:none;stroke:#3d3d3d;stroke-linecap:square;stroke-width:1.5;"/>
   </g>
   <g id="line2d_11">
    <path clip-path="url(#p1bad43ad74)" d="M 80.04 115.857648 
L 80.04 45.577915 
" style="fill:none;stroke:#3d3d3d;stroke-linecap:square;stroke-width:4.5;"/>
   </g>
   <g id="line2d_12">
    <path clip-path="url(#p1bad43ad74)" d="M 221.4 242.116364 
L 221.4 44.572181 
" style="fill:none;stroke:#3d3d3d;stroke-linecap:square;stroke-width:1.5;"/>
   </g>
   <g id="line2d_13">
    <path clip-path="url(#p1bad43ad74)" d="M 221.4 131.378064 
L 221.4 45.799736 
" style="fill:none;stroke:#3d3d3d;stroke-linecap:square;stroke-width:4.5;"/>
   </g>
   <g id="line2d_14">
    <path clip-path="url(#p1bad43ad74)" d="M 362.76 241.234387 
L 362.76 44.529325 
" style="fill:none;stroke:#3d3d3d;stroke-linecap:square;stroke-width:1.5;"/>
   </g>
   <g id="line2d_15">
    <path clip-path="url(#p1bad43ad74)" d="M 362.76 139.975328 
L 362.76 45.925303 
" style="fill:none;stroke:#3d3d3d;stroke-linecap:square;stroke-width:4.5;"/>
   </g>
   <g id="patch_6">
    <path d="M 54 252 
L 54 34.56 
" style="fill:none;stroke:#000000;stroke-linecap:square;stroke-linejoin:miter;stroke-width:0.8;"/>
   </g>
   <g id="patch_7">
    <path d="M 388.8 252 
L 388.8 34.56 
" style="fill:none;stroke:#000000;stroke-linecap:square;stroke-linejoin:miter;stroke-width:0.8;"/>
   </g>
   <g id="patch_8">
    <path d="M 54 252 
L 388.8 252 
" style="fill:none;stroke:#000000;stroke-linecap:square;stroke-linejoin:miter;stroke-width:0.8;"/>
   </g>
   <g id="patch_9">
    <path d="M 54 34.56 
L 388.8 34.56 
" style="fill:none;stroke:#000000;stroke-linecap:square;stroke-linejoin:miter;stroke-width:0.8;"/>
   </g>
   <g id="PathCollection_1">
    <defs>
     <path d="M 0 1.5 
C 0.397805 1.5 0.77937 1.341951 1.06066 1.06066 
C 1.341951 0.77937 1.5 0.397805 1.5 0 
C 1.5 -0.397805 1.341951 -0.77937 1.06066 -1.06066 
C 0.77937 -1.341951 0.397805 -1.5 0 -1.5 
C -0.397805 -1.5 -0.77937 -1.341951 -1.06066 -1.06066 
C -1.341951 -0.77937 -1.5 -0.397805 -1.5 0 
C -1.5 0.397805 -1.341951 0.77937 -1.06066 1.06066 
C -0.77937 1.341951 -0.397805 1.5 0 1.5 
z
" id="me8ca023b55" style="stroke:#3d3d3d;"/>
    </defs>
    <g clip-path="url(#p1bad43ad74)">
     <use style="fill:#ffffff;stroke:#3d3d3d;" x="80.04" xlink:href="#me8ca023b55" y="54.23203"/>
    </g>
   </g>
   <g id="PathCollection_2">
    <g clip-path="url(#p1bad43ad74)">
     <use style="fill:#ffffff;stroke:#3d3d3d;" x="221.4" xlink:href="#me8ca023b55" y="57.148111"/>
    </g>
   </g>
   <g id="PathCollection_3">
    <g clip-path="url(#p1bad43ad74)">
     <use style="fill:#ffffff;stroke:#3d3d3d;" x="362.76" xlink:href="#me8ca023b55" y="55.296797"/>
    </g>
   </g>
   <g id="legend_1">
    <g id="patch_10">
     <path d="M 326.525 247 
L 381.8 247 
Q 383.8 247 383.8 245 
L 383.8 187.2875 
Q 383.8 185.2875 381.8 185.2875 
L 326.525 185.2875 
Q 324.525 185.2875 324.525 187.2875 
L 324.525 245 
Q 324.525 247 326.525 247 
z
" style="fill:#ffffff;opacity:0.8;stroke:#cccccc;stroke-linejoin:miter;"/>
    </g>
    <g id="text_12">
     <!-- set -->
     <g transform="translate(346.521094 196.885938)scale(0.1 -0.1)">
      <use xlink:href="#DejaVuSans-115"/>
      <use x="52.099609" xlink:href="#DejaVuSans-101"/>
      <use x="113.623047" xlink:href="#DejaVuSans-116"/>
     </g>
    </g>
    <g id="patch_11">
     <path d="M 328.525 211.564063 
L 348.525 211.564063 
L 348.525 204.564063 
L 328.525 204.564063 
z
" style="fill:#3274a1;stroke:#3d3d3d;stroke-linejoin:miter;stroke-width:0.75;"/>
    </g>
    <g id="text_13">
     <!-- train -->
     <g transform="translate(356.525 211.564063)scale(0.1 -0.1)">
      <use xlink:href="#DejaVuSans-116"/>
      <use x="39.208984" xlink:href="#DejaVuSans-114"/>
      <use x="80.322266" xlink:href="#DejaVuSans-97"/>
      <use x="141.601562" xlink:href="#DejaVuSans-105"/>
      <use x="169.384766" xlink:href="#DejaVuSans-110"/>
     </g>
    </g>
    <g id="patch_12">
     <path d="M 328.525 226.242188 
L 348.525 226.242188 
L 348.525 219.242188 
L 328.525 219.242188 
z
" style="fill:#e1812c;stroke:#3d3d3d;stroke-linejoin:miter;stroke-width:0.75;"/>
    </g>
    <g id="text_14">
     <!-- val -->
     <g transform="translate(356.525 226.242188)scale(0.1 -0.1)">
      <use xlink:href="#DejaVuSans-118"/>
      <use x="59.179688" xlink:href="#DejaVuSans-97"/>
      <use x="120.458984" xlink:href="#DejaVuSans-108"/>
     </g>
    </g>
    <g id="patch_13">
     <path d="M 328.525 240.920313 
L 348.525 240.920313 
L 348.525 233.920313 
L 328.525 233.920313 
z
" style="fill:#3a923a;stroke:#3d3d3d;stroke-linejoin:miter;stroke-width:0.75;"/>
    </g>
    <g id="text_15">
     <!-- test -->
     <g transform="translate(356.525 240.920313)scale(0.1 -0.1)">
      <use xlink:href="#DejaVuSans-116"/>
      <use x="39.208984" xlink:href="#DejaVuSans-101"/>
      <use x="100.732422" xlink:href="#DejaVuSans-115"/>
      <use x="152.832031" xlink:href="#DejaVuSans-116"/>
     </g>
    </g>
   </g>
  </g>
 </g>
 <defs>
  <clipPath id="p1bad43ad74">
   <rect height="217.44" width="334.8" x="54" y="34.56"/>
  </clipPath>
 </defs>
</svg>
