<?xml version="1.0" encoding="utf-8" standalone="no"?>
<!DOCTYPE svg PUBLIC "-//W3C//DTD SVG 1.1//EN"
  "http://www.w3.org/Graphics/SVG/1.1/DTD/svg11.dtd">
<!-- Created with matplotlib (https://matplotlib.org/) -->
<svg height="288pt" version="1.1" viewBox="0 0 432 288" width="432pt" xmlns="http://www.w3.org/2000/svg" xmlns:xlink="http://www.w3.org/1999/xlink">
 <metadata>
  <rdf:RDF xmlns:cc="http://creativecommons.org/ns#" xmlns:dc="http://purl.org/dc/elements/1.1/" xmlns:rdf="http://www.w3.org/1999/02/22-rdf-syntax-ns#">
   <cc:Work>
    <dc:type rdf:resource="http://purl.org/dc/dcmitype/StillImage"/>
    <dc:date>2022-05-07T17:44:25.705532</dc:date>
    <dc:format>image/svg+xml</dc:format>
    <dc:creator>
     <cc:Agent>
      <dc:title>Matplotlib v3.3.4, https://matplotlib.org/</dc:title>
     </cc:Agent>
    </dc:creator>
   </cc:Work>
  </rdf:RDF>
 </metadata>
 <defs>
  <style type="text/css">*{stroke-linecap:butt;stroke-linejoin:round;}</style>
 </defs>
 <g id="figure_1">
  <g id="patch_1">
   <path d="M 0 288 
L 432 288 
L 432 0 
L 0 0 
z
" style="fill:#ffffff;"/>
  </g>
  <g id="axes_1">
   <g id="patch_2">
    <path d="M 54 252 
L 388.8 252 
L 388.8 34.56 
L 54 34.56 
z
" style="fill:#ffffff;"/>
   </g>
   <g id="PolyCollection_1">
    <defs>
     <path d="M 104.282961 -46.89627 
L 104.157039 -46.89627 
L 104.159839 -48.882736 
L 104.167475 -50.869201 
L 104.17729 -52.855667 
L 104.185807 -54.842132 
L 104.189452 -56.828598 
L 104.184848 -58.815063 
L 104.168646 -60.801529 
L 104.137181 -62.787995 
L 104.086321 -64.77446 
L 104.011793 -66.760926 
L 103.910016 -68.747391 
L 103.779126 -70.733857 
L 103.619589 -72.720323 
L 103.433756 -74.706788 
L 103.224167 -76.693254 
L 102.991194 -78.679719 
L 102.731102 -80.666185 
L 102.435433 -82.652651 
L 102.091988 -84.639116 
L 101.686884 -86.625582 
L 101.206786 -88.612047 
L 100.640192 -90.598513 
L 99.977035 -92.584979 
L 99.20694 -94.571444 
L 98.317932 -96.55791 
L 97.297869 -98.544375 
L 96.139334 -100.530841 
L 94.846035 -102.517307 
L 93.437066 -104.503772 
L 91.946191 -106.490238 
L 90.415932 -108.476703 
L 88.888908 -110.463169 
L 87.40002 -112.449635 
L 85.972379 -114.4361 
L 84.617828 -116.422566 
L 83.340615 -118.409031 
L 82.141797 -120.395497 
L 81.022975 -122.381962 
L 79.989977 -124.368428 
L 79.057329 -126.354894 
L 78.251855 -128.341359 
L 77.610499 -130.327825 
L 77.168021 -132.31429 
L 76.93634 -134.300756 
L 76.885794 -136.287222 
L 76.942017 -138.273687 
L 77.005329 -140.260153 
L 76.985298 -142.246618 
L 76.831737 -144.233084 
L 76.544642 -146.21955 
L 76.159408 -148.206015 
L 75.719439 -150.192481 
L 75.253977 -152.178946 
L 74.771802 -154.165412 
L 74.269212 -156.151878 
L 73.743032 -158.138343 
L 73.199989 -160.124809 
L 72.65895 -162.111274 
L 72.147158 -164.09774 
L 71.693421 -166.084206 
L 71.32114 -168.070671 
L 71.043333 -170.057137 
L 70.860904 -172.043602 
L 70.764523 -174.030068 
L 70.74 -176.016533 
L 70.776616 -178.002999 
L 70.876793 -179.989465 
L 71.063319 -181.97593 
L 71.379322 -183.962396 
L 71.878402 -185.948861 
L 72.607393 -187.935327 
L 73.588708 -189.921793 
L 74.810193 -191.908258 
L 76.227917 -193.894724 
L 77.782381 -195.881189 
L 79.422231 -197.867655 
L 81.123702 -199.854121 
L 82.893581 -201.840586 
L 84.752035 -203.827052 
L 86.705143 -205.813517 
L 88.724958 -207.799983 
L 90.749685 -209.786449 
L 92.702282 -211.772914 
L 94.514312 -213.75938 
L 96.141759 -215.745845 
L 97.568015 -217.732311 
L 98.797609 -219.718777 
L 99.846842 -221.705242 
L 100.735589 -223.691708 
L 101.482071 -225.678173 
L 102.101031 -227.664639 
L 102.604798 -229.651104 
L 103.00563 -231.63757 
L 103.317328 -233.624036 
L 103.555049 -235.610501 
L 103.733806 -237.596967 
L 103.866964 -239.583432 
L 103.965569 -241.569898 
L 104.038427 -243.556364 
L 104.401573 -243.556364 
L 104.401573 -243.556364 
L 104.474431 -241.569898 
L 104.573036 -239.583432 
L 104.706194 -237.596967 
L 104.884951 -235.610501 
L 105.122672 -233.624036 
L 105.43437 -231.63757 
L 105.835202 -229.651104 
L 106.338969 -227.664639 
L 106.957929 -225.678173 
L 107.704411 -223.691708 
L 108.593158 -221.705242 
L 109.642391 -219.718777 
L 110.871985 -217.732311 
L 112.298241 -215.745845 
L 113.925688 -213.75938 
L 115.737718 -211.772914 
L 117.690315 -209.786449 
L 119.715042 -207.799983 
L 121.734857 -205.813517 
L 123.687965 -203.827052 
L 125.546419 -201.840586 
L 127.316298 -199.854121 
L 129.017769 -197.867655 
L 130.657619 -195.881189 
L 132.212083 -193.894724 
L 133.629807 -191.908258 
L 134.851292 -189.921793 
L 135.832607 -187.935327 
L 136.561598 -185.948861 
L 137.060678 -183.962396 
L 137.376681 -181.97593 
L 137.563207 -179.989465 
L 137.663384 -178.002999 
L 137.7 -176.016533 
L 137.675477 -174.030068 
L 137.579096 -172.043602 
L 137.396667 -170.057137 
L 137.11886 -168.070671 
L 136.746579 -166.084206 
L 136.292842 -164.09774 
L 135.78105 -162.111274 
L 135.240011 -160.124809 
L 134.696968 -158.138343 
L 134.170788 -156.151878 
L 133.668198 -154.165412 
L 133.186023 -152.178946 
L 132.720561 -150.192481 
L 132.280592 -148.206015 
L 131.895358 -146.21955 
L 131.608263 -144.233084 
L 131.454702 -142.246618 
L 131.434671 -140.260153 
L 131.497983 -138.273687 
L 131.554206 -136.287222 
L 131.50366 -134.300756 
L 131.271979 -132.31429 
L 130.829501 -130.327825 
L 130.188145 -128.341359 
L 129.382671 -126.354894 
L 128.450023 -124.368428 
L 127.417025 -122.381962 
L 126.298203 -120.395497 
L 125.099385 -118.409031 
L 123.822172 -116.422566 
L 122.467621 -114.4361 
L 121.03998 -112.449635 
L 119.551092 -110.463169 
L 118.024068 -108.476703 
L 116.493809 -106.490238 
L 115.002934 -104.503772 
L 113.593965 -102.517307 
L 112.300666 -100.530841 
L 111.142131 -98.544375 
L 110.122068 -96.55791 
L 109.23306 -94.571444 
L 108.462965 -92.584979 
L 107.799808 -90.598513 
L 107.233214 -88.612047 
L 106.753116 -86.625582 
L 106.348012 -84.639116 
L 106.004567 -82.652651 
L 105.708898 -80.666185 
L 105.448806 -78.679719 
L 105.215833 -76.693254 
L 105.006244 -74.706788 
L 104.820411 -72.720323 
L 104.660874 -70.733857 
L 104.529984 -68.747391 
L 104.428207 -66.760926 
L 104.353679 -64.77446 
L 104.302819 -62.787995 
L 104.271354 -60.801529 
L 104.255152 -58.815063 
L 104.250548 -56.828598 
L 104.254193 -54.842132 
L 104.26271 -52.855667 
L 104.272525 -50.869201 
L 104.280161 -48.882736 
L 104.282961 -46.89627 
z
" id="m0a18590874" style="stroke:#3f3f3f;stroke-width:1.5;"/>
    </defs>
    <g clip-path="url(#p1dc47e3d9a)">
     <use style="fill:#3274a1;stroke:#3f3f3f;stroke-width:1.5;" x="0" xlink:href="#m0a18590874" y="288"/>
    </g>
   </g>
   <g id="PolyCollection_2">
    <defs>
     <path d="M 338.634506 -45.883636 
L 338.525494 -45.883636 
L 338.529866 -47.102801 
L 338.540987 -48.321965 
L 338.554317 -49.541129 
L 338.565695 -50.760293 
L 338.573259 -51.979458 
L 338.577311 -53.198622 
L 338.579081 -54.417786 
L 338.57967 -55.636951 
L 338.579608 -56.856115 
L 338.578709 -58.075279 
L 338.575794 -59.294443 
L 338.568278 -60.513608 
L 338.552242 -61.732772 
L 338.524014 -62.951936 
L 338.483244 -64.1711 
L 338.435041 -65.390265 
L 338.387624 -66.609429 
L 338.345631 -67.828593 
L 338.305307 -69.047757 
L 338.257775 -70.266922 
L 338.197914 -71.486086 
L 338.129091 -72.70525 
L 338.05835 -73.924415 
L 337.987325 -75.143579 
L 337.907507 -76.362743 
L 337.80266 -77.581907 
L 337.656174 -78.801072 
L 337.460754 -80.020236 
L 337.226169 -81.2394 
L 336.977369 -82.458564 
L 336.738578 -83.677729 
L 336.510937 -84.896893 
L 336.260646 -86.116057 
L 335.929508 -87.335222 
L 335.463097 -88.554386 
L 334.838089 -89.77355 
L 334.0709 -90.992714 
L 333.20281 -92.211879 
L 332.272481 -93.431043 
L 331.295483 -94.650207 
L 330.264555 -95.869371 
L 329.166686 -97.088536 
L 328.00014 -98.3077 
L 326.778682 -99.526864 
L 325.522469 -100.746028 
L 324.240404 -101.965193 
L 322.91138 -103.184357 
L 321.479933 -104.403521 
L 319.882292 -105.622686 
L 318.096953 -106.84185 
L 316.187111 -108.061014 
L 314.298928 -109.280178 
L 312.604349 -110.499343 
L 311.215891 -111.718507 
L 310.129272 -112.937671 
L 309.238186 -114.156835 
L 308.412975 -115.376 
L 307.585978 -116.595164 
L 306.784414 -117.814328 
L 306.093664 -119.033493 
L 305.584934 -120.252657 
L 305.267317 -121.471821 
L 305.106817 -122.690985 
L 305.1 -123.91015 
L 305.335273 -125.129314 
L 305.971185 -126.348478 
L 307.127946 -127.567642 
L 308.776663 -128.786807 
L 310.728608 -130.005971 
L 312.738945 -131.225135 
L 314.632694 -132.444299 
L 316.352651 -133.663464 
L 317.91849 -134.882628 
L 319.36401 -136.101792 
L 320.713425 -137.320957 
L 321.998376 -138.540121 
L 323.273563 -139.759285 
L 324.596558 -140.978449 
L 325.983206 -142.197614 
L 327.384751 -143.416778 
L 328.716077 -144.635942 
L 329.913034 -145.855106 
L 330.969109 -147.074271 
L 331.925504 -148.293435 
L 332.83192 -149.512599 
L 333.713031 -150.731764 
L 334.560104 -151.950928 
L 335.343865 -153.170092 
L 336.034159 -154.389256 
L 336.614113 -155.608421 
L 337.083353 -156.827585 
L 337.452407 -158.046749 
L 337.735395 -159.265913 
L 337.946516 -160.485078 
L 338.100076 -161.704242 
L 338.210917 -162.923406 
L 338.293464 -164.14257 
L 338.359649 -165.361735 
L 338.416812 -166.580899 
L 338.743188 -166.580899 
L 338.743188 -166.580899 
L 338.800351 -165.361735 
L 338.866536 -164.14257 
L 338.949083 -162.923406 
L 339.059924 -161.704242 
L 339.213484 -160.485078 
L 339.424605 -159.265913 
L 339.707593 -158.046749 
L 340.076647 -156.827585 
L 340.545887 -155.608421 
L 341.125841 -154.389256 
L 341.816135 -153.170092 
L 342.599896 -151.950928 
L 343.446969 -150.731764 
L 344.32808 -149.512599 
L 345.234496 -148.293435 
L 346.190891 -147.074271 
L 347.246966 -145.855106 
L 348.443923 -144.635942 
L 349.775249 -143.416778 
L 351.176794 -142.197614 
L 352.563442 -140.978449 
L 353.886437 -139.759285 
L 355.161624 -138.540121 
L 356.446575 -137.320957 
L 357.79599 -136.101792 
L 359.24151 -134.882628 
L 360.807349 -133.663464 
L 362.527306 -132.444299 
L 364.421055 -131.225135 
L 366.431392 -130.005971 
L 368.383337 -128.786807 
L 370.032054 -127.567642 
L 371.188815 -126.348478 
L 371.824727 -125.129314 
L 372.06 -123.91015 
L 372.053183 -122.690985 
L 371.892683 -121.471821 
L 371.575066 -120.252657 
L 371.066336 -119.033493 
L 370.375586 -117.814328 
L 369.574022 -116.595164 
L 368.747025 -115.376 
L 367.921814 -114.156835 
L 367.030728 -112.937671 
L 365.944109 -111.718507 
L 364.555651 -110.499343 
L 362.861072 -109.280178 
L 360.972889 -108.061014 
L 359.063047 -106.84185 
L 357.277708 -105.622686 
L 355.680067 -104.403521 
L 354.24862 -103.184357 
L 352.919596 -101.965193 
L 351.637531 -100.746028 
L 350.381318 -99.526864 
L 349.15986 -98.3077 
L 347.993314 -97.088536 
L 346.895445 -95.869371 
L 345.864517 -94.650207 
L 344.887519 -93.431043 
L 343.95719 -92.211879 
L 343.0891 -90.992714 
L 342.321911 -89.77355 
L 341.696903 -88.554386 
L 341.230492 -87.335222 
L 340.899354 -86.116057 
L 340.649063 -84.896893 
L 340.421422 -83.677729 
L 340.182631 -82.458564 
L 339.933831 -81.2394 
L 339.699246 -80.020236 
L 339.503826 -78.801072 
L 339.35734 -77.581907 
L 339.252493 -76.362743 
L 339.172675 -75.143579 
L 339.10165 -73.924415 
L 339.030909 -72.70525 
L 338.962086 -71.486086 
L 338.902225 -70.266922 
L 338.854693 -69.047757 
L 338.814369 -67.828593 
L 338.772376 -66.609429 
L 338.724959 -65.390265 
L 338.676756 -64.1711 
L 338.635986 -62.951936 
L 338.607758 -61.732772 
L 338.591722 -60.513608 
L 338.584206 -59.294443 
L 338.581291 -58.075279 
L 338.580392 -56.856115 
L 338.58033 -55.636951 
L 338.580919 -54.417786 
L 338.582689 -53.198622 
L 338.586741 -51.979458 
L 338.594305 -50.760293 
L 338.605683 -49.541129 
L 338.619013 -48.321965 
L 338.630134 -47.102801 
L 338.634506 -45.883636 
z
" id="m64ab5c65c6" style="stroke:#3f3f3f;stroke-width:1.5;"/>
    </defs>
    <g clip-path="url(#p1dc47e3d9a)">
     <use style="fill:#e1812c;stroke:#3f3f3f;stroke-width:1.5;" x="0" xlink:href="#m64ab5c65c6" y="288"/>
    </g>
   </g>
   <g id="patch_3">
    <path clip-path="url(#p1dc47e3d9a)" d="M 137.7 12.836175 
L 137.7 12.836175 
L 137.7 12.836175 
L 137.7 12.836175 
z
" style="fill:#3274a1;stroke:#3f3f3f;stroke-linejoin:miter;stroke-width:0.75;"/>
   </g>
   <g id="patch_4">
    <path clip-path="url(#p1dc47e3d9a)" d="M 137.7 12.836175 
L 137.7 12.836175 
L 137.7 12.836175 
L 137.7 12.836175 
z
" style="fill:#e1812c;stroke:#3f3f3f;stroke-linejoin:miter;stroke-width:0.75;"/>
   </g>
   <g id="matplotlib.axis_1">
    <g id="xtick_1">
     <g id="line2d_1">
      <defs>
       <path d="M 0 0 
L 0 3.5 
" id="me7c649b298" style="stroke:#000000;stroke-width:0.8;"/>
      </defs>
      <g>
       <use style="stroke:#000000;stroke-width:0.8;" x="137.7" xlink:href="#me7c649b298" y="252"/>
      </g>
     </g>
     <g id="text_1">
      <!-- Z_1_ns -->
      <g transform="translate(120.320312 266.320312)scale(0.1 -0.1)">
       <defs>
        <path d="M 5.609375 72.90625 
L 62.890625 72.90625 
L 62.890625 65.375 
L 16.796875 8.296875 
L 64.015625 8.296875 
L 64.015625 0 
L 4.5 0 
L 4.5 7.515625 
L 50.59375 64.59375 
L 5.609375 64.59375 
z
" id="DejaVuSans-90"/>
        <path d="M 50.984375 -16.609375 
L 50.984375 -23.578125 
L -0.984375 -23.578125 
L -0.984375 -16.609375 
z
" id="DejaVuSans-95"/>
        <path d="M 12.40625 8.296875 
L 28.515625 8.296875 
L 28.515625 63.921875 
L 10.984375 60.40625 
L 10.984375 69.390625 
L 28.421875 72.90625 
L 38.28125 72.90625 
L 38.28125 8.296875 
L 54.390625 8.296875 
L 54.390625 0 
L 12.40625 0 
z
" id="DejaVuSans-49"/>
        <path d="M 54.890625 33.015625 
L 54.890625 0 
L 45.90625 0 
L 45.90625 32.71875 
Q 45.90625 40.484375 42.875 44.328125 
Q 39.84375 48.1875 33.796875 48.1875 
Q 26.515625 48.1875 22.3125 43.546875 
Q 18.109375 38.921875 18.109375 30.90625 
L 18.109375 0 
L 9.078125 0 
L 9.078125 54.6875 
L 18.109375 54.6875 
L 18.109375 46.1875 
Q 21.34375 51.125 25.703125 53.5625 
Q 30.078125 56 35.796875 56 
Q 45.21875 56 50.046875 50.171875 
Q 54.890625 44.34375 54.890625 33.015625 
z
" id="DejaVuSans-110"/>
        <path d="M 44.28125 53.078125 
L 44.28125 44.578125 
Q 40.484375 46.53125 36.375 47.5 
Q 32.28125 48.484375 27.875 48.484375 
Q 21.1875 48.484375 17.84375 46.4375 
Q 14.5 44.390625 14.5 40.28125 
Q 14.5 37.15625 16.890625 35.375 
Q 19.28125 33.59375 26.515625 31.984375 
L 29.59375 31.296875 
Q 39.15625 29.25 43.1875 25.515625 
Q 47.21875 21.78125 47.21875 15.09375 
Q 47.21875 7.46875 41.1875 3.015625 
Q 35.15625 -1.421875 24.609375 -1.421875 
Q 20.21875 -1.421875 15.453125 -0.5625 
Q 10.6875 0.296875 5.421875 2 
L 5.421875 11.28125 
Q 10.40625 8.6875 15.234375 7.390625 
Q 20.0625 6.109375 24.8125 6.109375 
Q 31.15625 6.109375 34.5625 8.28125 
Q 37.984375 10.453125 37.984375 14.40625 
Q 37.984375 18.0625 35.515625 20.015625 
Q 33.0625 21.96875 24.703125 23.78125 
L 21.578125 24.515625 
Q 13.234375 26.265625 9.515625 29.90625 
Q 5.8125 33.546875 5.8125 39.890625 
Q 5.8125 47.609375 11.28125 51.796875 
Q 16.75 56 26.8125 56 
Q 31.78125 56 36.171875 55.265625 
Q 40.578125 54.546875 44.28125 53.078125 
z
" id="DejaVuSans-115"/>
       </defs>
       <use xlink:href="#DejaVuSans-90"/>
       <use x="68.505859" xlink:href="#DejaVuSans-95"/>
       <use x="118.505859" xlink:href="#DejaVuSans-49"/>
       <use x="182.128906" xlink:href="#DejaVuSans-95"/>
       <use x="232.128906" xlink:href="#DejaVuSans-110"/>
       <use x="295.507812" xlink:href="#DejaVuSans-115"/>
      </g>
     </g>
    </g>
    <g id="xtick_2">
     <g id="line2d_2">
      <g>
       <use style="stroke:#000000;stroke-width:0.8;" x="305.1" xlink:href="#me7c649b298" y="252"/>
      </g>
     </g>
     <g id="text_2">
      <!-- Z_2_ns -->
      <g transform="translate(287.720313 266.421875)scale(0.1 -0.1)">
       <defs>
        <path d="M 19.1875 8.296875 
L 53.609375 8.296875 
L 53.609375 0 
L 7.328125 0 
L 7.328125 8.296875 
Q 12.9375 14.109375 22.625 23.890625 
Q 32.328125 33.6875 34.8125 36.53125 
Q 39.546875 41.84375 41.421875 45.53125 
Q 43.3125 49.21875 43.3125 52.78125 
Q 43.3125 58.59375 39.234375 62.25 
Q 35.15625 65.921875 28.609375 65.921875 
Q 23.96875 65.921875 18.8125 64.3125 
Q 13.671875 62.703125 7.8125 59.421875 
L 7.8125 69.390625 
Q 13.765625 71.78125 18.9375 73 
Q 24.125 74.21875 28.421875 74.21875 
Q 39.75 74.21875 46.484375 68.546875 
Q 53.21875 62.890625 53.21875 53.421875 
Q 53.21875 48.921875 51.53125 44.890625 
Q 49.859375 40.875 45.40625 35.40625 
Q 44.1875 33.984375 37.640625 27.21875 
Q 31.109375 20.453125 19.1875 8.296875 
z
" id="DejaVuSans-50"/>
       </defs>
       <use xlink:href="#DejaVuSans-90"/>
       <use x="68.505859" xlink:href="#DejaVuSans-95"/>
       <use x="118.505859" xlink:href="#DejaVuSans-50"/>
       <use x="182.128906" xlink:href="#DejaVuSans-95"/>
       <use x="232.128906" xlink:href="#DejaVuSans-110"/>
       <use x="295.507812" xlink:href="#DejaVuSans-115"/>
      </g>
     </g>
    </g>
    <g id="text_3">
     <!-- set -->
     <g transform="translate(213.758594 280.378125)scale(0.1 -0.1)">
      <defs>
       <path d="M 56.203125 29.59375 
L 56.203125 25.203125 
L 14.890625 25.203125 
Q 15.484375 15.921875 20.484375 11.0625 
Q 25.484375 6.203125 34.421875 6.203125 
Q 39.59375 6.203125 44.453125 7.46875 
Q 49.3125 8.734375 54.109375 11.28125 
L 54.109375 2.78125 
Q 49.265625 0.734375 44.1875 -0.34375 
Q 39.109375 -1.421875 33.890625 -1.421875 
Q 20.796875 -1.421875 13.15625 6.1875 
Q 5.515625 13.8125 5.515625 26.8125 
Q 5.515625 40.234375 12.765625 48.109375 
Q 20.015625 56 32.328125 56 
Q 43.359375 56 49.78125 48.890625 
Q 56.203125 41.796875 56.203125 29.59375 
z
M 47.21875 32.234375 
Q 47.125 39.59375 43.09375 43.984375 
Q 39.0625 48.390625 32.421875 48.390625 
Q 24.90625 48.390625 20.390625 44.140625 
Q 15.875 39.890625 15.1875 32.171875 
z
" id="DejaVuSans-101"/>
       <path d="M 18.3125 70.21875 
L 18.3125 54.6875 
L 36.8125 54.6875 
L 36.8125 47.703125 
L 18.3125 47.703125 
L 18.3125 18.015625 
Q 18.3125 11.328125 20.140625 9.421875 
Q 21.96875 7.515625 27.59375 7.515625 
L 36.8125 7.515625 
L 36.8125 0 
L 27.59375 0 
Q 17.1875 0 13.234375 3.875 
Q 9.28125 7.765625 9.28125 18.015625 
L 9.28125 47.703125 
L 2.6875 47.703125 
L 2.6875 54.6875 
L 9.28125 54.6875 
L 9.28125 70.21875 
z
" id="DejaVuSans-116"/>
      </defs>
      <use xlink:href="#DejaVuSans-115"/>
      <use x="52.099609" xlink:href="#DejaVuSans-101"/>
      <use x="113.623047" xlink:href="#DejaVuSans-116"/>
     </g>
    </g>
   </g>
   <g id="matplotlib.axis_2">
    <g id="ytick_1">
     <g id="line2d_3">
      <defs>
       <path d="M 0 0 
L -3.5 0 
" id="m174f103ebd" style="stroke:#000000;stroke-width:0.8;"/>
      </defs>
      <g>
       <use style="stroke:#000000;stroke-width:0.8;" x="54" xlink:href="#m174f103ebd" y="240.21428"/>
      </g>
     </g>
     <g id="text_4">
      <!-- −14 -->
      <g transform="translate(25.895312 244.013498)scale(0.1 -0.1)">
       <defs>
        <path d="M 10.59375 35.5 
L 73.1875 35.5 
L 73.1875 27.203125 
L 10.59375 27.203125 
z
" id="DejaVuSans-8722"/>
        <path d="M 37.796875 64.3125 
L 12.890625 25.390625 
L 37.796875 25.390625 
z
M 35.203125 72.90625 
L 47.609375 72.90625 
L 47.609375 25.390625 
L 58.015625 25.390625 
L 58.015625 17.1875 
L 47.609375 17.1875 
L 47.609375 0 
L 37.796875 0 
L 37.796875 17.1875 
L 4.890625 17.1875 
L 4.890625 26.703125 
z
" id="DejaVuSans-52"/>
       </defs>
       <use xlink:href="#DejaVuSans-8722"/>
       <use x="83.789062" xlink:href="#DejaVuSans-49"/>
       <use x="147.412109" xlink:href="#DejaVuSans-52"/>
      </g>
     </g>
    </g>
    <g id="ytick_2">
     <g id="line2d_4">
      <g>
       <use style="stroke:#000000;stroke-width:0.8;" x="54" xlink:href="#m174f103ebd" y="207.731693"/>
      </g>
     </g>
     <g id="text_5">
      <!-- −12 -->
      <g transform="translate(25.895312 211.530912)scale(0.1 -0.1)">
       <use xlink:href="#DejaVuSans-8722"/>
       <use x="83.789062" xlink:href="#DejaVuSans-49"/>
       <use x="147.412109" xlink:href="#DejaVuSans-50"/>
      </g>
     </g>
    </g>
    <g id="ytick_3">
     <g id="line2d_5">
      <g>
       <use style="stroke:#000000;stroke-width:0.8;" x="54" xlink:href="#m174f103ebd" y="175.249107"/>
      </g>
     </g>
     <g id="text_6">
      <!-- −10 -->
      <g transform="translate(25.895312 179.048326)scale(0.1 -0.1)">
       <defs>
        <path d="M 31.78125 66.40625 
Q 24.171875 66.40625 20.328125 58.90625 
Q 16.5 51.421875 16.5 36.375 
Q 16.5 21.390625 20.328125 13.890625 
Q 24.171875 6.390625 31.78125 6.390625 
Q 39.453125 6.390625 43.28125 13.890625 
Q 47.125 21.390625 47.125 36.375 
Q 47.125 51.421875 43.28125 58.90625 
Q 39.453125 66.40625 31.78125 66.40625 
z
M 31.78125 74.21875 
Q 44.046875 74.21875 50.515625 64.515625 
Q 56.984375 54.828125 56.984375 36.375 
Q 56.984375 17.96875 50.515625 8.265625 
Q 44.046875 -1.421875 31.78125 -1.421875 
Q 19.53125 -1.421875 13.0625 8.265625 
Q 6.59375 17.96875 6.59375 36.375 
Q 6.59375 54.828125 13.0625 64.515625 
Q 19.53125 74.21875 31.78125 74.21875 
z
" id="DejaVuSans-48"/>
       </defs>
       <use xlink:href="#DejaVuSans-8722"/>
       <use x="83.789062" xlink:href="#DejaVuSans-49"/>
       <use x="147.412109" xlink:href="#DejaVuSans-48"/>
      </g>
     </g>
    </g>
    <g id="ytick_4">
     <g id="line2d_6">
      <g>
       <use style="stroke:#000000;stroke-width:0.8;" x="54" xlink:href="#m174f103ebd" y="142.766521"/>
      </g>
     </g>
     <g id="text_7">
      <!-- −8 -->
      <g transform="translate(32.257812 146.565739)scale(0.1 -0.1)">
       <defs>
        <path d="M 31.78125 34.625 
Q 24.75 34.625 20.71875 30.859375 
Q 16.703125 27.09375 16.703125 20.515625 
Q 16.703125 13.921875 20.71875 10.15625 
Q 24.75 6.390625 31.78125 6.390625 
Q 38.8125 6.390625 42.859375 10.171875 
Q 46.921875 13.96875 46.921875 20.515625 
Q 46.921875 27.09375 42.890625 30.859375 
Q 38.875 34.625 31.78125 34.625 
z
M 21.921875 38.8125 
Q 15.578125 40.375 12.03125 44.71875 
Q 8.5 49.078125 8.5 55.328125 
Q 8.5 64.0625 14.71875 69.140625 
Q 20.953125 74.21875 31.78125 74.21875 
Q 42.671875 74.21875 48.875 69.140625 
Q 55.078125 64.0625 55.078125 55.328125 
Q 55.078125 49.078125 51.53125 44.71875 
Q 48 40.375 41.703125 38.8125 
Q 48.828125 37.15625 52.796875 32.3125 
Q 56.78125 27.484375 56.78125 20.515625 
Q 56.78125 9.90625 50.3125 4.234375 
Q 43.84375 -1.421875 31.78125 -1.421875 
Q 19.734375 -1.421875 13.25 4.234375 
Q 6.78125 9.90625 6.78125 20.515625 
Q 6.78125 27.484375 10.78125 32.3125 
Q 14.796875 37.15625 21.921875 38.8125 
z
M 18.3125 54.390625 
Q 18.3125 48.734375 21.84375 45.5625 
Q 25.390625 42.390625 31.78125 42.390625 
Q 38.140625 42.390625 41.71875 45.5625 
Q 45.3125 48.734375 45.3125 54.390625 
Q 45.3125 60.0625 41.71875 63.234375 
Q 38.140625 66.40625 31.78125 66.40625 
Q 25.390625 66.40625 21.84375 63.234375 
Q 18.3125 60.0625 18.3125 54.390625 
z
" id="DejaVuSans-56"/>
       </defs>
       <use xlink:href="#DejaVuSans-8722"/>
       <use x="83.789062" xlink:href="#DejaVuSans-56"/>
      </g>
     </g>
    </g>
    <g id="ytick_5">
     <g id="line2d_7">
      <g>
       <use style="stroke:#000000;stroke-width:0.8;" x="54" xlink:href="#m174f103ebd" y="110.283934"/>
      </g>
     </g>
     <g id="text_8">
      <!-- −6 -->
      <g transform="translate(32.257812 114.083153)scale(0.1 -0.1)">
       <defs>
        <path d="M 33.015625 40.375 
Q 26.375 40.375 22.484375 35.828125 
Q 18.609375 31.296875 18.609375 23.390625 
Q 18.609375 15.53125 22.484375 10.953125 
Q 26.375 6.390625 33.015625 6.390625 
Q 39.65625 6.390625 43.53125 10.953125 
Q 47.40625 15.53125 47.40625 23.390625 
Q 47.40625 31.296875 43.53125 35.828125 
Q 39.65625 40.375 33.015625 40.375 
z
M 52.59375 71.296875 
L 52.59375 62.3125 
Q 48.875 64.0625 45.09375 64.984375 
Q 41.3125 65.921875 37.59375 65.921875 
Q 27.828125 65.921875 22.671875 59.328125 
Q 17.53125 52.734375 16.796875 39.40625 
Q 19.671875 43.65625 24.015625 45.921875 
Q 28.375 48.1875 33.59375 48.1875 
Q 44.578125 48.1875 50.953125 41.515625 
Q 57.328125 34.859375 57.328125 23.390625 
Q 57.328125 12.15625 50.6875 5.359375 
Q 44.046875 -1.421875 33.015625 -1.421875 
Q 20.359375 -1.421875 13.671875 8.265625 
Q 6.984375 17.96875 6.984375 36.375 
Q 6.984375 53.65625 15.1875 63.9375 
Q 23.390625 74.21875 37.203125 74.21875 
Q 40.921875 74.21875 44.703125 73.484375 
Q 48.484375 72.75 52.59375 71.296875 
z
" id="DejaVuSans-54"/>
       </defs>
       <use xlink:href="#DejaVuSans-8722"/>
       <use x="83.789062" xlink:href="#DejaVuSans-54"/>
      </g>
     </g>
    </g>
    <g id="ytick_6">
     <g id="line2d_8">
      <g>
       <use style="stroke:#000000;stroke-width:0.8;" x="54" xlink:href="#m174f103ebd" y="77.801348"/>
      </g>
     </g>
     <g id="text_9">
      <!-- −4 -->
      <g transform="translate(32.257812 81.600567)scale(0.1 -0.1)">
       <use xlink:href="#DejaVuSans-8722"/>
       <use x="83.789062" xlink:href="#DejaVuSans-52"/>
      </g>
     </g>
    </g>
    <g id="ytick_7">
     <g id="line2d_9">
      <g>
       <use style="stroke:#000000;stroke-width:0.8;" x="54" xlink:href="#m174f103ebd" y="45.318761"/>
      </g>
     </g>
     <g id="text_10">
      <!-- −2 -->
      <g transform="translate(32.257812 49.11798)scale(0.1 -0.1)">
       <use xlink:href="#DejaVuSans-8722"/>
       <use x="83.789062" xlink:href="#DejaVuSans-50"/>
      </g>
     </g>
    </g>
    <g id="text_11">
     <!-- value -->
     <g transform="translate(19.815625 156.937813)rotate(-90)scale(0.1 -0.1)">
      <defs>
       <path d="M 2.984375 54.6875 
L 12.5 54.6875 
L 29.59375 8.796875 
L 46.6875 54.6875 
L 56.203125 54.6875 
L 35.6875 0 
L 23.484375 0 
z
" id="DejaVuSans-118"/>
       <path d="M 34.28125 27.484375 
Q 23.390625 27.484375 19.1875 25 
Q 14.984375 22.515625 14.984375 16.5 
Q 14.984375 11.71875 18.140625 8.90625 
Q 21.296875 6.109375 26.703125 6.109375 
Q 34.1875 6.109375 38.703125 11.40625 
Q 43.21875 16.703125 43.21875 25.484375 
L 43.21875 27.484375 
z
M 52.203125 31.203125 
L 52.203125 0 
L 43.21875 0 
L 43.21875 8.296875 
Q 40.140625 3.328125 35.546875 0.953125 
Q 30.953125 -1.421875 24.3125 -1.421875 
Q 15.921875 -1.421875 10.953125 3.296875 
Q 6 8.015625 6 15.921875 
Q 6 25.140625 12.171875 29.828125 
Q 18.359375 34.515625 30.609375 34.515625 
L 43.21875 34.515625 
L 43.21875 35.40625 
Q 43.21875 41.609375 39.140625 45 
Q 35.0625 48.390625 27.6875 48.390625 
Q 23 48.390625 18.546875 47.265625 
Q 14.109375 46.140625 10.015625 43.890625 
L 10.015625 52.203125 
Q 14.9375 54.109375 19.578125 55.046875 
Q 24.21875 56 28.609375 56 
Q 40.484375 56 46.34375 49.84375 
Q 52.203125 43.703125 52.203125 31.203125 
z
" id="DejaVuSans-97"/>
       <path d="M 9.421875 75.984375 
L 18.40625 75.984375 
L 18.40625 0 
L 9.421875 0 
z
" id="DejaVuSans-108"/>
       <path d="M 8.5 21.578125 
L 8.5 54.6875 
L 17.484375 54.6875 
L 17.484375 21.921875 
Q 17.484375 14.15625 20.5 10.265625 
Q 23.53125 6.390625 29.59375 6.390625 
Q 36.859375 6.390625 41.078125 11.03125 
Q 45.3125 15.671875 45.3125 23.6875 
L 45.3125 54.6875 
L 54.296875 54.6875 
L 54.296875 0 
L 45.3125 0 
L 45.3125 8.40625 
Q 42.046875 3.421875 37.71875 1 
Q 33.40625 -1.421875 27.6875 -1.421875 
Q 18.265625 -1.421875 13.375 4.4375 
Q 8.5 10.296875 8.5 21.578125 
z
M 31.109375 56 
z
" id="DejaVuSans-117"/>
      </defs>
      <use xlink:href="#DejaVuSans-118"/>
      <use x="59.179688" xlink:href="#DejaVuSans-97"/>
      <use x="120.458984" xlink:href="#DejaVuSans-108"/>
      <use x="148.242188" xlink:href="#DejaVuSans-117"/>
      <use x="211.621094" xlink:href="#DejaVuSans-101"/>
     </g>
    </g>
   </g>
   <g id="line2d_10">
    <path clip-path="url(#p1dc47e3d9a)" d="M 104.22 218.62916 
L 104.22 44.443636 
" style="fill:none;stroke:#3f3f3f;stroke-linecap:square;stroke-width:1.5;"/>
   </g>
   <g id="line2d_11">
    <path clip-path="url(#p1dc47e3d9a)" d="M 104.22 152.973817 
L 104.22 103.517064 
" style="fill:none;stroke:#3f3f3f;stroke-linecap:square;stroke-width:4.5;"/>
   </g>
   <g id="line2d_12">
    <path clip-path="url(#p1dc47e3d9a)" d="M 338.58 206.394753 
L 338.58 130.090974 
" style="fill:none;stroke:#3f3f3f;stroke-linecap:square;stroke-width:1.5;"/>
   </g>
   <g id="line2d_13">
    <path clip-path="url(#p1dc47e3d9a)" d="M 338.58 177.06144 
L 338.58 157.486625 
" style="fill:none;stroke:#3f3f3f;stroke-linecap:square;stroke-width:4.5;"/>
   </g>
   <g id="patch_5">
    <path d="M 54 252 
L 54 34.56 
" style="fill:none;stroke:#000000;stroke-linecap:square;stroke-linejoin:miter;stroke-width:0.8;"/>
   </g>
   <g id="patch_6">
    <path d="M 388.8 252 
L 388.8 34.56 
" style="fill:none;stroke:#000000;stroke-linecap:square;stroke-linejoin:miter;stroke-width:0.8;"/>
   </g>
   <g id="patch_7">
    <path d="M 54 252 
L 388.8 252 
" style="fill:none;stroke:#000000;stroke-linecap:square;stroke-linejoin:miter;stroke-width:0.8;"/>
   </g>
   <g id="patch_8">
    <path d="M 54 34.56 
L 388.8 34.56 
" style="fill:none;stroke:#000000;stroke-linecap:square;stroke-linejoin:miter;stroke-width:0.8;"/>
   </g>
   <g id="PathCollection_1">
    <defs>
     <path d="M 0 1.5 
C 0.397805 1.5 0.77937 1.341951 1.06066 1.06066 
C 1.341951 0.77937 1.5 0.397805 1.5 0 
C 1.5 -0.397805 1.341951 -0.77937 1.06066 -1.06066 
C 0.77937 -1.341951 0.397805 -1.5 0 -1.5 
C -0.397805 -1.5 -0.77937 -1.341951 -1.06066 -1.06066 
C -1.341951 -0.77937 -1.5 -0.397805 -1.5 0 
C -1.5 0.397805 -1.341951 0.77937 -1.06066 1.06066 
C -0.77937 1.341951 -0.397805 1.5 0 1.5 
z
" id="m91bce25c6e" style="stroke:#3f3f3f;"/>
    </defs>
    <g clip-path="url(#p1dc47e3d9a)">
     <use style="fill:#ffffff;stroke:#3f3f3f;" x="104.22" xlink:href="#m91bce25c6e" y="126.27536"/>
    </g>
   </g>
   <g id="PathCollection_2">
    <g clip-path="url(#p1dc47e3d9a)">
     <use style="fill:#ffffff;stroke:#3f3f3f;" x="338.58" xlink:href="#m91bce25c6e" y="167.054857"/>
    </g>
   </g>
   <g id="legend_1">
    <g id="patch_9">
     <path d="M 315.040625 87.150625 
L 381.8 87.150625 
Q 383.8 87.150625 383.8 85.150625 
L 383.8 41.56 
Q 383.8 39.56 381.8 39.56 
L 315.040625 39.56 
Q 313.040625 39.56 313.040625 41.56 
L 313.040625 85.150625 
Q 313.040625 87.150625 315.040625 87.150625 
z
" style="fill:#ffffff;opacity:0.8;stroke:#cccccc;stroke-linejoin:miter;"/>
    </g>
    <g id="text_12">
     <!-- set -->
     <g transform="translate(340.778906 51.158437)scale(0.1 -0.1)">
      <use xlink:href="#DejaVuSans-115"/>
      <use x="52.099609" xlink:href="#DejaVuSans-101"/>
      <use x="113.623047" xlink:href="#DejaVuSans-116"/>
     </g>
    </g>
    <g id="patch_10">
     <path d="M 317.040625 65.836562 
L 337.040625 65.836562 
L 337.040625 58.836562 
L 317.040625 58.836562 
z
" style="fill:#3274a1;stroke:#3f3f3f;stroke-linejoin:miter;stroke-width:0.75;"/>
    </g>
    <g id="text_13">
     <!-- Z_1_ns -->
     <g transform="translate(345.040625 65.836562)scale(0.1 -0.1)">
      <use xlink:href="#DejaVuSans-90"/>
      <use x="68.505859" xlink:href="#DejaVuSans-95"/>
      <use x="118.505859" xlink:href="#DejaVuSans-49"/>
      <use x="182.128906" xlink:href="#DejaVuSans-95"/>
      <use x="232.128906" xlink:href="#DejaVuSans-110"/>
      <use x="295.507812" xlink:href="#DejaVuSans-115"/>
     </g>
    </g>
    <g id="patch_11">
     <path d="M 317.040625 80.792812 
L 337.040625 80.792812 
L 337.040625 73.792812 
L 317.040625 73.792812 
z
" style="fill:#e1812c;stroke:#3f3f3f;stroke-linejoin:miter;stroke-width:0.75;"/>
    </g>
    <g id="text_14">
     <!-- Z_2_ns -->
     <g transform="translate(345.040625 80.792812)scale(0.1 -0.1)">
      <use xlink:href="#DejaVuSans-90"/>
      <use x="68.505859" xlink:href="#DejaVuSans-95"/>
      <use x="118.505859" xlink:href="#DejaVuSans-50"/>
      <use x="182.128906" xlink:href="#DejaVuSans-95"/>
      <use x="232.128906" xlink:href="#DejaVuSans-110"/>
      <use x="295.507812" xlink:href="#DejaVuSans-115"/>
     </g>
    </g>
   </g>
  </g>
 </g>
 <defs>
  <clipPath id="p1dc47e3d9a">
   <rect height="217.44" width="334.8" x="54" y="34.56"/>
  </clipPath>
 </defs>
</svg>
