<?xml version="1.0" encoding="utf-8" standalone="no"?>
<!DOCTYPE svg PUBLIC "-//W3C//DTD SVG 1.1//EN"
  "http://www.w3.org/Graphics/SVG/1.1/DTD/svg11.dtd">
<!-- Created with matplotlib (https://matplotlib.org/) -->
<svg height="288pt" version="1.1" viewBox="0 0 432 288" width="432pt" xmlns="http://www.w3.org/2000/svg" xmlns:xlink="http://www.w3.org/1999/xlink">
 <metadata>
  <rdf:RDF xmlns:cc="http://creativecommons.org/ns#" xmlns:dc="http://purl.org/dc/elements/1.1/" xmlns:rdf="http://www.w3.org/1999/02/22-rdf-syntax-ns#">
   <cc:Work>
    <dc:type rdf:resource="http://purl.org/dc/dcmitype/StillImage"/>
    <dc:date>2022-07-16T11:50:01.671068</dc:date>
    <dc:format>image/svg+xml</dc:format>
    <dc:creator>
     <cc:Agent>
      <dc:title>Matplotlib v3.3.4, https://matplotlib.org/</dc:title>
     </cc:Agent>
    </dc:creator>
   </cc:Work>
  </rdf:RDF>
 </metadata>
 <defs>
  <style type="text/css">*{stroke-linecap:butt;stroke-linejoin:round;}</style>
 </defs>
 <g id="figure_1">
  <g id="patch_1">
   <path d="M 0 288 
L 432 288 
L 432 0 
L 0 0 
z
" style="fill:#ffffff;"/>
  </g>
  <g id="axes_1">
   <g id="patch_2">
    <path d="M 54 252 
L 388.8 252 
L 388.8 34.56 
L 54 34.56 
z
" style="fill:#ffffff;"/>
   </g>
   <g id="PolyCollection_1">
    <defs>
     <path d="M 88.030846 -45.895551 
L 72.049154 -45.895551 
L 68.679722 -46.117932 
L 66.184707 -46.340312 
L 65.16 -46.562693 
L 65.508281 -46.785073 
L 66.674418 -47.007454 
L 68.087014 -47.229834 
L 69.408422 -47.452215 
L 70.53239 -47.674595 
L 71.47934 -47.896976 
L 72.306666 -48.119356 
L 73.064 -48.341736 
L 73.77977 -48.564117 
L 74.457882 -48.786497 
L 75.077837 -49.008878 
L 75.606806 -49.231258 
L 76.026543 -49.453639 
L 76.356153 -49.676019 
L 76.643635 -49.8984 
L 76.929723 -50.12078 
L 77.22406 -50.343161 
L 77.517352 -50.565541 
L 77.803219 -50.787921 
L 78.07825 -51.010302 
L 78.331109 -51.232682 
L 78.546175 -51.455063 
L 78.716513 -51.677443 
L 78.8465 -51.899824 
L 78.945607 -52.122204 
L 79.025487 -52.344585 
L 79.099589 -52.566965 
L 79.178892 -52.789345 
L 79.265386 -53.011726 
L 79.349631 -53.234106 
L 79.416471 -53.456487 
L 79.45724 -53.678867 
L 79.478921 -53.901248 
L 79.499983 -54.123628 
L 79.535973 -54.346009 
L 79.589618 -54.568389 
L 79.653154 -54.79077 
L 79.716355 -55.01315 
L 79.772001 -55.23553 
L 79.816975 -55.457911 
L 79.850297 -55.680291 
L 79.87041 -55.902672 
L 79.875389 -56.125052 
L 79.867118 -56.347433 
L 79.854325 -56.569813 
L 79.848371 -56.792194 
L 79.854977 -57.014574 
L 79.871989 -57.236954 
L 79.894691 -57.459335 
L 79.919256 -57.681715 
L 79.940799 -57.904096 
L 79.95326 -58.126476 
L 79.954163 -58.348857 
L 79.947558 -58.571237 
L 79.940992 -58.793618 
L 79.940619 -59.015998 
L 79.948825 -59.238379 
L 79.964096 -59.460759 
L 79.981972 -59.683139 
L 79.997107 -59.90552 
L 80.005694 -60.1279 
L 80.007038 -60.350281 
L 80.003903 -60.572661 
L 80.001064 -60.795042 
L 80.0019 -61.017422 
L 80.005467 -61.239803 
L 80.007368 -61.462183 
L 80.004089 -61.684564 
L 79.996644 -61.906944 
L 79.989961 -62.129324 
L 79.988733 -62.351705 
L 79.99396 -62.574085 
L 80.003231 -62.796466 
L 80.01346 -63.018846 
L 80.022693 -63.241227 
L 80.029997 -63.463607 
L 80.034899 -63.685988 
L 80.037288 -63.908368 
L 80.037322 -64.130748 
L 80.035289 -64.353129 
L 80.031867 -64.575509 
L 80.028541 -64.79789 
L 80.027166 -65.02027 
L 80.028611 -65.242651 
L 80.031995 -65.465031 
L 80.035544 -65.687412 
L 80.038035 -65.909792 
L 80.039307 -66.132173 
L 80.039768 -66.354553 
L 80.039766 -66.576933 
L 80.039297 -66.799314 
L 80.038013 -67.021694 
L 80.035506 -67.244075 
L 80.03195 -67.466455 
L 80.028579 -67.688836 
L 80.027166 -67.911216 
L 80.052834 -67.911216 
L 80.052834 -67.911216 
L 80.051421 -67.688836 
L 80.04805 -67.466455 
L 80.044494 -67.244075 
L 80.041987 -67.021694 
L 80.040703 -66.799314 
L 80.040234 -66.576933 
L 80.040232 -66.354553 
L 80.040693 -66.132173 
L 80.041965 -65.909792 
L 80.044456 -65.687412 
L 80.048005 -65.465031 
L 80.051389 -65.242651 
L 80.052834 -65.02027 
L 80.051459 -64.79789 
L 80.048133 -64.575509 
L 80.044711 -64.353129 
L 80.042678 -64.130748 
L 80.042712 -63.908368 
L 80.045101 -63.685988 
L 80.050003 -63.463607 
L 80.057307 -63.241227 
L 80.06654 -63.018846 
L 80.076769 -62.796466 
L 80.08604 -62.574085 
L 80.091267 -62.351705 
L 80.090039 -62.129324 
L 80.083356 -61.906944 
L 80.075911 -61.684564 
L 80.072632 -61.462183 
L 80.074533 -61.239803 
L 80.0781 -61.017422 
L 80.078936 -60.795042 
L 80.076097 -60.572661 
L 80.072962 -60.350281 
L 80.074306 -60.1279 
L 80.082893 -59.90552 
L 80.098028 -59.683139 
L 80.115904 -59.460759 
L 80.131175 -59.238379 
L 80.139381 -59.015998 
L 80.139008 -58.793618 
L 80.132442 -58.571237 
L 80.125837 -58.348857 
L 80.12674 -58.126476 
L 80.139201 -57.904096 
L 80.160744 -57.681715 
L 80.185309 -57.459335 
L 80.208011 -57.236954 
L 80.225023 -57.014574 
L 80.231629 -56.792194 
L 80.225675 -56.569813 
L 80.212882 -56.347433 
L 80.204611 -56.125052 
L 80.20959 -55.902672 
L 80.229703 -55.680291 
L 80.263025 -55.457911 
L 80.307999 -55.23553 
L 80.363645 -55.01315 
L 80.426846 -54.79077 
L 80.490382 -54.568389 
L 80.544027 -54.346009 
L 80.580017 -54.123628 
L 80.601079 -53.901248 
L 80.62276 -53.678867 
L 80.663529 -53.456487 
L 80.730369 -53.234106 
L 80.814614 -53.011726 
L 80.901108 -52.789345 
L 80.980411 -52.566965 
L 81.054513 -52.344585 
L 81.134393 -52.122204 
L 81.2335 -51.899824 
L 81.363487 -51.677443 
L 81.533825 -51.455063 
L 81.748891 -51.232682 
L 82.00175 -51.010302 
L 82.276781 -50.787921 
L 82.562648 -50.565541 
L 82.85594 -50.343161 
L 83.150277 -50.12078 
L 83.436365 -49.8984 
L 83.723847 -49.676019 
L 84.053457 -49.453639 
L 84.473194 -49.231258 
L 85.002163 -49.008878 
L 85.622118 -48.786497 
L 86.30023 -48.564117 
L 87.016 -48.341736 
L 87.773334 -48.119356 
L 88.60066 -47.896976 
L 89.54761 -47.674595 
L 90.671578 -47.452215 
L 91.992986 -47.229834 
L 93.405582 -47.007454 
L 94.571719 -46.785073 
L 94.92 -46.562693 
L 93.895293 -46.340312 
L 91.400278 -46.117932 
L 88.030846 -45.895551 
z
" id="m5c620b3110" style="stroke:#3d3d3d;stroke-width:1.5;"/>
    </defs>
    <g clip-path="url(#pa52a2f2e7a)">
     <use style="fill:#3274a1;stroke:#3d3d3d;stroke-width:1.5;" x="0" xlink:href="#m5c620b3110" y="288"/>
    </g>
   </g>
   <g id="PolyCollection_2">
    <defs>
     <path d="M 235.01065 -45.94416 
L 207.78935 -45.94416 
L 206.52 -47.940243 
L 208.370832 -49.936326 
L 211.932696 -51.932409 
L 215.340138 -53.928492 
L 217.668913 -55.924574 
L 218.962914 -57.920657 
L 219.602493 -59.91674 
L 219.918258 -61.912823 
L 220.120059 -63.908906 
L 220.308918 -65.904989 
L 220.501014 -67.901072 
L 220.674156 -69.897155 
L 220.810913 -71.893237 
L 220.911227 -73.88932 
L 220.985901 -75.885403 
L 221.049899 -77.881486 
L 221.114278 -79.877569 
L 221.177359 -81.873652 
L 221.226691 -83.869735 
L 221.251717 -85.865817 
L 221.253576 -87.8619 
L 221.243796 -89.857983 
L 221.235937 -91.854066 
L 221.238598 -93.850149 
L 221.252824 -95.846232 
L 221.27291 -97.842315 
L 221.290935 -99.838397 
L 221.303179 -101.83448 
L 221.312205 -103.830563 
L 221.321918 -105.826646 
L 221.331528 -107.822729 
L 221.336642 -109.818812 
L 221.336556 -111.814895 
L 221.336885 -113.810978 
L 221.342823 -115.80706 
L 221.353172 -117.803143 
L 221.363644 -119.799226 
L 221.37273 -121.795309 
L 221.381127 -123.791392 
L 221.387887 -125.787475 
L 221.389975 -127.783558 
L 221.384636 -129.77964 
L 221.371757 -131.775723 
L 221.355757 -133.771806 
L 221.344854 -135.767889 
L 221.345277 -137.763972 
L 221.355109 -139.760055 
L 221.366204 -141.756138 
L 221.372971 -143.75222 
L 221.37686 -145.748303 
L 221.381766 -147.744386 
L 221.388312 -149.740469 
L 221.394208 -151.736552 
L 221.397762 -153.732635 
L 221.398978 -155.728718 
L 221.397978 -157.724801 
L 221.393359 -159.720883 
L 221.382522 -161.716966 
L 221.365233 -163.713049 
L 221.347873 -165.709132 
L 221.3411 -167.705215 
L 221.349845 -169.701298 
L 221.367814 -171.697381 
L 221.384435 -173.693463 
L 221.394327 -175.689546 
L 221.398442 -177.685629 
L 221.399678 -179.681712 
L 221.39995 -181.677795 
L 221.399994 -183.673878 
L 221.399999 -185.669961 
L 221.4 -187.666043 
L 221.4 -189.662126 
L 221.4 -191.658209 
L 221.4 -193.654292 
L 221.4 -195.650375 
L 221.4 -197.646458 
L 221.4 -199.642541 
L 221.4 -201.638624 
L 221.4 -203.634706 
L 221.4 -205.630789 
L 221.399999 -207.626872 
L 221.399993 -209.622955 
L 221.399949 -211.619038 
L 221.399723 -213.615121 
L 221.398864 -215.611204 
L 221.396485 -217.607286 
L 221.391807 -219.603369 
L 221.385617 -221.599452 
L 221.380982 -223.595535 
L 221.381058 -225.591618 
L 221.385789 -227.587701 
L 221.391952 -229.583784 
L 221.396463 -231.579866 
L 221.398336 -233.575949 
L 221.397698 -235.572032 
L 221.394459 -237.568115 
L 221.388837 -239.564198 
L 221.382933 -241.560281 
L 221.380335 -243.556364 
L 221.419665 -243.556364 
L 221.419665 -243.556364 
L 221.417067 -241.560281 
L 221.411163 -239.564198 
L 221.405541 -237.568115 
L 221.402302 -235.572032 
L 221.401664 -233.575949 
L 221.403537 -231.579866 
L 221.408048 -229.583784 
L 221.414211 -227.587701 
L 221.418942 -225.591618 
L 221.419018 -223.595535 
L 221.414383 -221.599452 
L 221.408193 -219.603369 
L 221.403515 -217.607286 
L 221.401136 -215.611204 
L 221.400277 -213.615121 
L 221.400051 -211.619038 
L 221.400007 -209.622955 
L 221.400001 -207.626872 
L 221.4 -205.630789 
L 221.4 -203.634706 
L 221.4 -201.638624 
L 221.4 -199.642541 
L 221.4 -197.646458 
L 221.4 -195.650375 
L 221.4 -193.654292 
L 221.4 -191.658209 
L 221.4 -189.662126 
L 221.4 -187.666043 
L 221.400001 -185.669961 
L 221.400006 -183.673878 
L 221.40005 -181.677795 
L 221.400322 -179.681712 
L 221.401558 -177.685629 
L 221.405673 -175.689546 
L 221.415565 -173.693463 
L 221.432186 -171.697381 
L 221.450155 -169.701298 
L 221.4589 -167.705215 
L 221.452127 -165.709132 
L 221.434767 -163.713049 
L 221.417478 -161.716966 
L 221.406641 -159.720883 
L 221.402022 -157.724801 
L 221.401022 -155.728718 
L 221.402238 -153.732635 
L 221.405792 -151.736552 
L 221.411688 -149.740469 
L 221.418234 -147.744386 
L 221.42314 -145.748303 
L 221.427029 -143.75222 
L 221.433796 -141.756138 
L 221.444891 -139.760055 
L 221.454723 -137.763972 
L 221.455146 -135.767889 
L 221.444243 -133.771806 
L 221.428243 -131.775723 
L 221.415364 -129.77964 
L 221.410025 -127.783558 
L 221.412113 -125.787475 
L 221.418873 -123.791392 
L 221.42727 -121.795309 
L 221.436356 -119.799226 
L 221.446828 -117.803143 
L 221.457177 -115.80706 
L 221.463115 -113.810978 
L 221.463444 -111.814895 
L 221.463358 -109.818812 
L 221.468472 -107.822729 
L 221.478082 -105.826646 
L 221.487795 -103.830563 
L 221.496821 -101.83448 
L 221.509065 -99.838397 
L 221.52709 -97.842315 
L 221.547176 -95.846232 
L 221.561402 -93.850149 
L 221.564063 -91.854066 
L 221.556204 -89.857983 
L 221.546424 -87.8619 
L 221.548283 -85.865817 
L 221.573309 -83.869735 
L 221.622641 -81.873652 
L 221.685722 -79.877569 
L 221.750101 -77.881486 
L 221.814099 -75.885403 
L 221.888773 -73.88932 
L 221.989087 -71.893237 
L 222.125844 -69.897155 
L 222.298986 -67.901072 
L 222.491082 -65.904989 
L 222.679941 -63.908906 
L 222.881742 -61.912823 
L 223.197507 -59.91674 
L 223.837086 -57.920657 
L 225.131087 -55.924574 
L 227.459862 -53.928492 
L 230.867304 -51.932409 
L 234.429168 -49.936326 
L 236.28 -47.940243 
L 235.01065 -45.94416 
z
" id="me02ac2281d" style="stroke:#3d3d3d;stroke-width:1.5;"/>
    </defs>
    <g clip-path="url(#pa52a2f2e7a)">
     <use style="fill:#e1812c;stroke:#3d3d3d;stroke-width:1.5;" x="0" xlink:href="#me02ac2281d" y="288"/>
    </g>
   </g>
   <g id="PolyCollection_3">
    <defs>
     <path d="M 376.159484 -45.883636 
L 349.360516 -45.883636 
L 347.88 -47.57035 
L 348.668807 -49.257064 
L 351.167758 -50.943778 
L 354.245537 -52.630491 
L 356.958717 -54.317205 
L 358.913656 -56.003919 
L 360.151254 -57.690633 
L 360.879098 -59.377347 
L 361.297153 -61.06406 
L 361.543392 -62.750774 
L 361.699861 -64.437488 
L 361.814805 -66.124202 
L 361.918697 -67.810915 
L 362.027693 -69.497629 
L 362.142257 -71.184343 
L 362.250254 -72.871057 
L 362.335184 -74.557771 
L 362.38551 -76.244484 
L 362.401732 -77.931198 
L 362.397978 -79.617912 
L 362.395701 -81.304626 
L 362.411998 -82.991339 
L 362.450496 -84.678053 
L 362.501244 -86.364767 
L 362.548151 -88.051481 
L 362.577725 -89.738194 
L 362.585016 -91.424908 
L 362.575714 -93.111622 
L 362.563337 -94.798336 
L 362.561712 -96.48505 
L 362.577305 -98.171763 
L 362.607219 -99.858477 
L 362.64323 -101.545191 
L 362.676694 -103.231905 
L 362.700725 -104.918618 
L 362.710827 -106.605332 
L 362.706 -108.292046 
L 362.689879 -109.97876 
L 362.670299 -111.665474 
L 362.656643 -113.352187 
L 362.655572 -115.038901 
L 362.667272 -116.725615 
L 362.685261 -118.412329 
L 362.700841 -120.099042 
L 362.708892 -121.785756 
L 362.709901 -123.47247 
L 362.706905 -125.159184 
L 362.701538 -126.845897 
L 362.693719 -128.532611 
L 362.684273 -130.219325 
L 362.675903 -131.906039 
L 362.670876 -133.592753 
L 362.668928 -135.279466 
L 362.668437 -136.96618 
L 362.669162 -138.652894 
L 362.673029 -140.339608 
L 362.68203 -142.026321 
L 362.695517 -143.713035 
L 362.70992 -145.399749 
L 362.721526 -147.086463 
L 362.72931 -148.773177 
L 362.734595 -150.45989 
L 362.738257 -152.146604 
L 362.73913 -153.833318 
L 362.735582 -155.520032 
L 362.728401 -157.206745 
L 362.721668 -158.893459 
L 362.720188 -160.580173 
L 362.725724 -162.266887 
L 362.735779 -163.9536 
L 362.745992 -165.640314 
L 362.753375 -167.327028 
L 362.757439 -169.013742 
L 362.75919 -170.700456 
L 362.759791 -172.387169 
L 362.759956 -174.073883 
L 362.759992 -175.760597 
L 362.759999 -177.447311 
L 362.76 -179.134024 
L 362.76 -180.820738 
L 362.76 -182.507452 
L 362.76 -184.194166 
L 362.76 -185.88088 
L 362.76 -187.567593 
L 362.76 -189.254307 
L 362.76 -190.941021 
L 362.76 -192.627735 
L 362.76 -194.314448 
L 362.759999 -196.001162 
L 362.759995 -197.687876 
L 362.759969 -199.37459 
L 362.75986 -201.061303 
L 362.75948 -202.748017 
L 362.758416 -204.434731 
L 362.756062 -206.121445 
L 362.752003 -207.808159 
L 362.746736 -209.494872 
L 362.742031 -211.181586 
L 362.740117 -212.8683 
L 362.779883 -212.8683 
L 362.779883 -212.8683 
L 362.777969 -211.181586 
L 362.773264 -209.494872 
L 362.767997 -207.808159 
L 362.763938 -206.121445 
L 362.761584 -204.434731 
L 362.76052 -202.748017 
L 362.76014 -201.061303 
L 362.760031 -199.37459 
L 362.760005 -197.687876 
L 362.760001 -196.001162 
L 362.76 -194.314448 
L 362.76 -192.627735 
L 362.76 -190.941021 
L 362.76 -189.254307 
L 362.76 -187.567593 
L 362.76 -185.88088 
L 362.76 -184.194166 
L 362.76 -182.507452 
L 362.76 -180.820738 
L 362.76 -179.134024 
L 362.760001 -177.447311 
L 362.760008 -175.760597 
L 362.760044 -174.073883 
L 362.760209 -172.387169 
L 362.76081 -170.700456 
L 362.762561 -169.013742 
L 362.766625 -167.327028 
L 362.774008 -165.640314 
L 362.784221 -163.9536 
L 362.794276 -162.266887 
L 362.799812 -160.580173 
L 362.798332 -158.893459 
L 362.791599 -157.206745 
L 362.784418 -155.520032 
L 362.78087 -153.833318 
L 362.781743 -152.146604 
L 362.785405 -150.45989 
L 362.79069 -148.773177 
L 362.798474 -147.086463 
L 362.81008 -145.399749 
L 362.824483 -143.713035 
L 362.83797 -142.026321 
L 362.846971 -140.339608 
L 362.850838 -138.652894 
L 362.851563 -136.96618 
L 362.851072 -135.279466 
L 362.849124 -133.592753 
L 362.844097 -131.906039 
L 362.835727 -130.219325 
L 362.826281 -128.532611 
L 362.818462 -126.845897 
L 362.813095 -125.159184 
L 362.810099 -123.47247 
L 362.811108 -121.785756 
L 362.819159 -120.099042 
L 362.834739 -118.412329 
L 362.852728 -116.725615 
L 362.864428 -115.038901 
L 362.863357 -113.352187 
L 362.849701 -111.665474 
L 362.830121 -109.97876 
L 362.814 -108.292046 
L 362.809173 -106.605332 
L 362.819275 -104.918618 
L 362.843306 -103.231905 
L 362.87677 -101.545191 
L 362.912781 -99.858477 
L 362.942695 -98.171763 
L 362.958288 -96.48505 
L 362.956663 -94.798336 
L 362.944286 -93.111622 
L 362.934984 -91.424908 
L 362.942275 -89.738194 
L 362.971849 -88.051481 
L 363.018756 -86.364767 
L 363.069504 -84.678053 
L 363.108002 -82.991339 
L 363.124299 -81.304626 
L 363.122022 -79.617912 
L 363.118268 -77.931198 
L 363.13449 -76.244484 
L 363.184816 -74.557771 
L 363.269746 -72.871057 
L 363.377743 -71.184343 
L 363.492307 -69.497629 
L 363.601303 -67.810915 
L 363.705195 -66.124202 
L 363.820139 -64.437488 
L 363.976608 -62.750774 
L 364.222847 -61.06406 
L 364.640902 -59.377347 
L 365.368746 -57.690633 
L 366.606344 -56.003919 
L 368.561283 -54.317205 
L 371.274463 -52.630491 
L 374.352242 -50.943778 
L 376.851193 -49.257064 
L 377.64 -47.57035 
L 376.159484 -45.883636 
z
" id="m741c485f8f" style="stroke:#3d3d3d;stroke-width:1.5;"/>
    </defs>
    <g clip-path="url(#pa52a2f2e7a)">
     <use style="fill:#3a923a;stroke:#3d3d3d;stroke-width:1.5;" x="0" xlink:href="#m741c485f8f" y="288"/>
    </g>
   </g>
   <g id="patch_3">
    <path clip-path="url(#pa52a2f2e7a)" d="M 109.8 242.247862 
L 109.8 242.247862 
L 109.8 242.247862 
L 109.8 242.247862 
z
" style="fill:#3274a1;stroke:#3d3d3d;stroke-linejoin:miter;stroke-width:0.75;"/>
   </g>
   <g id="patch_4">
    <path clip-path="url(#pa52a2f2e7a)" d="M 109.8 242.247862 
L 109.8 242.247862 
L 109.8 242.247862 
L 109.8 242.247862 
z
" style="fill:#e1812c;stroke:#3d3d3d;stroke-linejoin:miter;stroke-width:0.75;"/>
   </g>
   <g id="patch_5">
    <path clip-path="url(#pa52a2f2e7a)" d="M 109.8 242.247862 
L 109.8 242.247862 
L 109.8 242.247862 
L 109.8 242.247862 
z
" style="fill:#3a923a;stroke:#3d3d3d;stroke-linejoin:miter;stroke-width:0.75;"/>
   </g>
   <g id="matplotlib.axis_1">
    <g id="xtick_1">
     <g id="line2d_1">
      <defs>
       <path d="M 0 0 
L 0 3.5 
" id="m89076e5c77" style="stroke:#000000;stroke-width:0.8;"/>
      </defs>
      <g>
       <use style="stroke:#000000;stroke-width:0.8;" x="109.8" xlink:href="#m89076e5c77" y="252"/>
      </g>
     </g>
     <g id="text_1">
      <!-- train -->
      <g transform="translate(98.1625 266.598437)scale(0.1 -0.1)">
       <defs>
        <path d="M 18.3125 70.21875 
L 18.3125 54.6875 
L 36.8125 54.6875 
L 36.8125 47.703125 
L 18.3125 47.703125 
L 18.3125 18.015625 
Q 18.3125 11.328125 20.140625 9.421875 
Q 21.96875 7.515625 27.59375 7.515625 
L 36.8125 7.515625 
L 36.8125 0 
L 27.59375 0 
Q 17.1875 0 13.234375 3.875 
Q 9.28125 7.765625 9.28125 18.015625 
L 9.28125 47.703125 
L 2.6875 47.703125 
L 2.6875 54.6875 
L 9.28125 54.6875 
L 9.28125 70.21875 
z
" id="DejaVuSans-116"/>
        <path d="M 41.109375 46.296875 
Q 39.59375 47.171875 37.8125 47.578125 
Q 36.03125 48 33.890625 48 
Q 26.265625 48 22.1875 43.046875 
Q 18.109375 38.09375 18.109375 28.8125 
L 18.109375 0 
L 9.078125 0 
L 9.078125 54.6875 
L 18.109375 54.6875 
L 18.109375 46.1875 
Q 20.953125 51.171875 25.484375 53.578125 
Q 30.03125 56 36.53125 56 
Q 37.453125 56 38.578125 55.875 
Q 39.703125 55.765625 41.0625 55.515625 
z
" id="DejaVuSans-114"/>
        <path d="M 34.28125 27.484375 
Q 23.390625 27.484375 19.1875 25 
Q 14.984375 22.515625 14.984375 16.5 
Q 14.984375 11.71875 18.140625 8.90625 
Q 21.296875 6.109375 26.703125 6.109375 
Q 34.1875 6.109375 38.703125 11.40625 
Q 43.21875 16.703125 43.21875 25.484375 
L 43.21875 27.484375 
z
M 52.203125 31.203125 
L 52.203125 0 
L 43.21875 0 
L 43.21875 8.296875 
Q 40.140625 3.328125 35.546875 0.953125 
Q 30.953125 -1.421875 24.3125 -1.421875 
Q 15.921875 -1.421875 10.953125 3.296875 
Q 6 8.015625 6 15.921875 
Q 6 25.140625 12.171875 29.828125 
Q 18.359375 34.515625 30.609375 34.515625 
L 43.21875 34.515625 
L 43.21875 35.40625 
Q 43.21875 41.609375 39.140625 45 
Q 35.0625 48.390625 27.6875 48.390625 
Q 23 48.390625 18.546875 47.265625 
Q 14.109375 46.140625 10.015625 43.890625 
L 10.015625 52.203125 
Q 14.9375 54.109375 19.578125 55.046875 
Q 24.21875 56 28.609375 56 
Q 40.484375 56 46.34375 49.84375 
Q 52.203125 43.703125 52.203125 31.203125 
z
" id="DejaVuSans-97"/>
        <path d="M 9.421875 54.6875 
L 18.40625 54.6875 
L 18.40625 0 
L 9.421875 0 
z
M 9.421875 75.984375 
L 18.40625 75.984375 
L 18.40625 64.59375 
L 9.421875 64.59375 
z
" id="DejaVuSans-105"/>
        <path d="M 54.890625 33.015625 
L 54.890625 0 
L 45.90625 0 
L 45.90625 32.71875 
Q 45.90625 40.484375 42.875 44.328125 
Q 39.84375 48.1875 33.796875 48.1875 
Q 26.515625 48.1875 22.3125 43.546875 
Q 18.109375 38.921875 18.109375 30.90625 
L 18.109375 0 
L 9.078125 0 
L 9.078125 54.6875 
L 18.109375 54.6875 
L 18.109375 46.1875 
Q 21.34375 51.125 25.703125 53.5625 
Q 30.078125 56 35.796875 56 
Q 45.21875 56 50.046875 50.171875 
Q 54.890625 44.34375 54.890625 33.015625 
z
" id="DejaVuSans-110"/>
       </defs>
       <use xlink:href="#DejaVuSans-116"/>
       <use x="39.208984" xlink:href="#DejaVuSans-114"/>
       <use x="80.322266" xlink:href="#DejaVuSans-97"/>
       <use x="141.601562" xlink:href="#DejaVuSans-105"/>
       <use x="169.384766" xlink:href="#DejaVuSans-110"/>
      </g>
     </g>
    </g>
    <g id="xtick_2">
     <g id="line2d_2">
      <g>
       <use style="stroke:#000000;stroke-width:0.8;" x="221.4" xlink:href="#m89076e5c77" y="252"/>
      </g>
     </g>
     <g id="text_2">
      <!-- val -->
      <g transform="translate(213.9875 266.598437)scale(0.1 -0.1)">
       <defs>
        <path d="M 2.984375 54.6875 
L 12.5 54.6875 
L 29.59375 8.796875 
L 46.6875 54.6875 
L 56.203125 54.6875 
L 35.6875 0 
L 23.484375 0 
z
" id="DejaVuSans-118"/>
        <path d="M 9.421875 75.984375 
L 18.40625 75.984375 
L 18.40625 0 
L 9.421875 0 
z
" id="DejaVuSans-108"/>
       </defs>
       <use xlink:href="#DejaVuSans-118"/>
       <use x="59.179688" xlink:href="#DejaVuSans-97"/>
       <use x="120.458984" xlink:href="#DejaVuSans-108"/>
      </g>
     </g>
    </g>
    <g id="xtick_3">
     <g id="line2d_3">
      <g>
       <use style="stroke:#000000;stroke-width:0.8;" x="333" xlink:href="#m89076e5c77" y="252"/>
      </g>
     </g>
     <g id="text_3">
      <!-- test -->
      <g transform="translate(323.398438 266.598437)scale(0.1 -0.1)">
       <defs>
        <path d="M 56.203125 29.59375 
L 56.203125 25.203125 
L 14.890625 25.203125 
Q 15.484375 15.921875 20.484375 11.0625 
Q 25.484375 6.203125 34.421875 6.203125 
Q 39.59375 6.203125 44.453125 7.46875 
Q 49.3125 8.734375 54.109375 11.28125 
L 54.109375 2.78125 
Q 49.265625 0.734375 44.1875 -0.34375 
Q 39.109375 -1.421875 33.890625 -1.421875 
Q 20.796875 -1.421875 13.15625 6.1875 
Q 5.515625 13.8125 5.515625 26.8125 
Q 5.515625 40.234375 12.765625 48.109375 
Q 20.015625 56 32.328125 56 
Q 43.359375 56 49.78125 48.890625 
Q 56.203125 41.796875 56.203125 29.59375 
z
M 47.21875 32.234375 
Q 47.125 39.59375 43.09375 43.984375 
Q 39.0625 48.390625 32.421875 48.390625 
Q 24.90625 48.390625 20.390625 44.140625 
Q 15.875 39.890625 15.1875 32.171875 
z
" id="DejaVuSans-101"/>
        <path d="M 44.28125 53.078125 
L 44.28125 44.578125 
Q 40.484375 46.53125 36.375 47.5 
Q 32.28125 48.484375 27.875 48.484375 
Q 21.1875 48.484375 17.84375 46.4375 
Q 14.5 44.390625 14.5 40.28125 
Q 14.5 37.15625 16.890625 35.375 
Q 19.28125 33.59375 26.515625 31.984375 
L 29.59375 31.296875 
Q 39.15625 29.25 43.1875 25.515625 
Q 47.21875 21.78125 47.21875 15.09375 
Q 47.21875 7.46875 41.1875 3.015625 
Q 35.15625 -1.421875 24.609375 -1.421875 
Q 20.21875 -1.421875 15.453125 -0.5625 
Q 10.6875 0.296875 5.421875 2 
L 5.421875 11.28125 
Q 10.40625 8.6875 15.234375 7.390625 
Q 20.0625 6.109375 24.8125 6.109375 
Q 31.15625 6.109375 34.5625 8.28125 
Q 37.984375 10.453125 37.984375 14.40625 
Q 37.984375 18.0625 35.515625 20.015625 
Q 33.0625 21.96875 24.703125 23.78125 
L 21.578125 24.515625 
Q 13.234375 26.265625 9.515625 29.90625 
Q 5.8125 33.546875 5.8125 39.890625 
Q 5.8125 47.609375 11.28125 51.796875 
Q 16.75 56 26.8125 56 
Q 31.78125 56 36.171875 55.265625 
Q 40.578125 54.546875 44.28125 53.078125 
z
" id="DejaVuSans-115"/>
       </defs>
       <use xlink:href="#DejaVuSans-116"/>
       <use x="39.208984" xlink:href="#DejaVuSans-101"/>
       <use x="100.732422" xlink:href="#DejaVuSans-115"/>
       <use x="152.832031" xlink:href="#DejaVuSans-116"/>
      </g>
     </g>
    </g>
    <g id="text_4">
     <!-- set -->
     <g transform="translate(213.758594 280.276563)scale(0.1 -0.1)">
      <use xlink:href="#DejaVuSans-115"/>
      <use x="52.099609" xlink:href="#DejaVuSans-101"/>
      <use x="113.623047" xlink:href="#DejaVuSans-116"/>
     </g>
    </g>
   </g>
   <g id="matplotlib.axis_2">
    <g id="ytick_1">
     <g id="line2d_4">
      <defs>
       <path d="M 0 0 
L -3.5 0 
" id="m8ecd647590" style="stroke:#000000;stroke-width:0.8;"/>
      </defs>
      <g>
       <use style="stroke:#000000;stroke-width:0.8;" x="54" xlink:href="#m8ecd647590" y="242.247862"/>
      </g>
     </g>
     <g id="text_5">
      <!-- 0.000 -->
      <g transform="translate(18.371875 246.04708)scale(0.1 -0.1)">
       <defs>
        <path d="M 31.78125 66.40625 
Q 24.171875 66.40625 20.328125 58.90625 
Q 16.5 51.421875 16.5 36.375 
Q 16.5 21.390625 20.328125 13.890625 
Q 24.171875 6.390625 31.78125 6.390625 
Q 39.453125 6.390625 43.28125 13.890625 
Q 47.125 21.390625 47.125 36.375 
Q 47.125 51.421875 43.28125 58.90625 
Q 39.453125 66.40625 31.78125 66.40625 
z
M 31.78125 74.21875 
Q 44.046875 74.21875 50.515625 64.515625 
Q 56.984375 54.828125 56.984375 36.375 
Q 56.984375 17.96875 50.515625 8.265625 
Q 44.046875 -1.421875 31.78125 -1.421875 
Q 19.53125 -1.421875 13.0625 8.265625 
Q 6.59375 17.96875 6.59375 36.375 
Q 6.59375 54.828125 13.0625 64.515625 
Q 19.53125 74.21875 31.78125 74.21875 
z
" id="DejaVuSans-48"/>
        <path d="M 10.6875 12.40625 
L 21 12.40625 
L 21 0 
L 10.6875 0 
z
" id="DejaVuSans-46"/>
       </defs>
       <use xlink:href="#DejaVuSans-48"/>
       <use x="63.623047" xlink:href="#DejaVuSans-46"/>
       <use x="95.410156" xlink:href="#DejaVuSans-48"/>
       <use x="159.033203" xlink:href="#DejaVuSans-48"/>
       <use x="222.65625" xlink:href="#DejaVuSans-48"/>
      </g>
     </g>
    </g>
    <g id="ytick_2">
     <g id="line2d_5">
      <g>
       <use style="stroke:#000000;stroke-width:0.8;" x="54" xlink:href="#m8ecd647590" y="202.175457"/>
      </g>
     </g>
     <g id="text_6">
      <!-- 0.005 -->
      <g transform="translate(18.371875 205.974676)scale(0.1 -0.1)">
       <defs>
        <path d="M 10.796875 72.90625 
L 49.515625 72.90625 
L 49.515625 64.59375 
L 19.828125 64.59375 
L 19.828125 46.734375 
Q 21.96875 47.46875 24.109375 47.828125 
Q 26.265625 48.1875 28.421875 48.1875 
Q 40.625 48.1875 47.75 41.5 
Q 54.890625 34.8125 54.890625 23.390625 
Q 54.890625 11.625 47.5625 5.09375 
Q 40.234375 -1.421875 26.90625 -1.421875 
Q 22.3125 -1.421875 17.546875 -0.640625 
Q 12.796875 0.140625 7.71875 1.703125 
L 7.71875 11.625 
Q 12.109375 9.234375 16.796875 8.0625 
Q 21.484375 6.890625 26.703125 6.890625 
Q 35.15625 6.890625 40.078125 11.328125 
Q 45.015625 15.765625 45.015625 23.390625 
Q 45.015625 31 40.078125 35.4375 
Q 35.15625 39.890625 26.703125 39.890625 
Q 22.75 39.890625 18.8125 39.015625 
Q 14.890625 38.140625 10.796875 36.28125 
z
" id="DejaVuSans-53"/>
       </defs>
       <use xlink:href="#DejaVuSans-48"/>
       <use x="63.623047" xlink:href="#DejaVuSans-46"/>
       <use x="95.410156" xlink:href="#DejaVuSans-48"/>
       <use x="159.033203" xlink:href="#DejaVuSans-48"/>
       <use x="222.65625" xlink:href="#DejaVuSans-53"/>
      </g>
     </g>
    </g>
    <g id="ytick_3">
     <g id="line2d_6">
      <g>
       <use style="stroke:#000000;stroke-width:0.8;" x="54" xlink:href="#m8ecd647590" y="162.103052"/>
      </g>
     </g>
     <g id="text_7">
      <!-- 0.010 -->
      <g transform="translate(18.371875 165.902271)scale(0.1 -0.1)">
       <defs>
        <path d="M 12.40625 8.296875 
L 28.515625 8.296875 
L 28.515625 63.921875 
L 10.984375 60.40625 
L 10.984375 69.390625 
L 28.421875 72.90625 
L 38.28125 72.90625 
L 38.28125 8.296875 
L 54.390625 8.296875 
L 54.390625 0 
L 12.40625 0 
z
" id="DejaVuSans-49"/>
       </defs>
       <use xlink:href="#DejaVuSans-48"/>
       <use x="63.623047" xlink:href="#DejaVuSans-46"/>
       <use x="95.410156" xlink:href="#DejaVuSans-48"/>
       <use x="159.033203" xlink:href="#DejaVuSans-49"/>
       <use x="222.65625" xlink:href="#DejaVuSans-48"/>
      </g>
     </g>
    </g>
    <g id="ytick_4">
     <g id="line2d_7">
      <g>
       <use style="stroke:#000000;stroke-width:0.8;" x="54" xlink:href="#m8ecd647590" y="122.030647"/>
      </g>
     </g>
     <g id="text_8">
      <!-- 0.015 -->
      <g transform="translate(18.371875 125.829866)scale(0.1 -0.1)">
       <use xlink:href="#DejaVuSans-48"/>
       <use x="63.623047" xlink:href="#DejaVuSans-46"/>
       <use x="95.410156" xlink:href="#DejaVuSans-48"/>
       <use x="159.033203" xlink:href="#DejaVuSans-49"/>
       <use x="222.65625" xlink:href="#DejaVuSans-53"/>
      </g>
     </g>
    </g>
    <g id="ytick_5">
     <g id="line2d_8">
      <g>
       <use style="stroke:#000000;stroke-width:0.8;" x="54" xlink:href="#m8ecd647590" y="81.958243"/>
      </g>
     </g>
     <g id="text_9">
      <!-- 0.020 -->
      <g transform="translate(18.371875 85.757461)scale(0.1 -0.1)">
       <defs>
        <path d="M 19.1875 8.296875 
L 53.609375 8.296875 
L 53.609375 0 
L 7.328125 0 
L 7.328125 8.296875 
Q 12.9375 14.109375 22.625 23.890625 
Q 32.328125 33.6875 34.8125 36.53125 
Q 39.546875 41.84375 41.421875 45.53125 
Q 43.3125 49.21875 43.3125 52.78125 
Q 43.3125 58.59375 39.234375 62.25 
Q 35.15625 65.921875 28.609375 65.921875 
Q 23.96875 65.921875 18.8125 64.3125 
Q 13.671875 62.703125 7.8125 59.421875 
L 7.8125 69.390625 
Q 13.765625 71.78125 18.9375 73 
Q 24.125 74.21875 28.421875 74.21875 
Q 39.75 74.21875 46.484375 68.546875 
Q 53.21875 62.890625 53.21875 53.421875 
Q 53.21875 48.921875 51.53125 44.890625 
Q 49.859375 40.875 45.40625 35.40625 
Q 44.1875 33.984375 37.640625 27.21875 
Q 31.109375 20.453125 19.1875 8.296875 
z
" id="DejaVuSans-50"/>
       </defs>
       <use xlink:href="#DejaVuSans-48"/>
       <use x="63.623047" xlink:href="#DejaVuSans-46"/>
       <use x="95.410156" xlink:href="#DejaVuSans-48"/>
       <use x="159.033203" xlink:href="#DejaVuSans-50"/>
       <use x="222.65625" xlink:href="#DejaVuSans-48"/>
      </g>
     </g>
    </g>
    <g id="ytick_6">
     <g id="line2d_9">
      <g>
       <use style="stroke:#000000;stroke-width:0.8;" x="54" xlink:href="#m8ecd647590" y="41.885838"/>
      </g>
     </g>
     <g id="text_10">
      <!-- 0.025 -->
      <g transform="translate(18.371875 45.685057)scale(0.1 -0.1)">
       <use xlink:href="#DejaVuSans-48"/>
       <use x="63.623047" xlink:href="#DejaVuSans-46"/>
       <use x="95.410156" xlink:href="#DejaVuSans-48"/>
       <use x="159.033203" xlink:href="#DejaVuSans-50"/>
       <use x="222.65625" xlink:href="#DejaVuSans-53"/>
      </g>
     </g>
    </g>
    <g id="text_11">
     <!-- value -->
     <g transform="translate(12.292187 156.937813)rotate(-90)scale(0.1 -0.1)">
      <defs>
       <path d="M 8.5 21.578125 
L 8.5 54.6875 
L 17.484375 54.6875 
L 17.484375 21.921875 
Q 17.484375 14.15625 20.5 10.265625 
Q 23.53125 6.390625 29.59375 6.390625 
Q 36.859375 6.390625 41.078125 11.03125 
Q 45.3125 15.671875 45.3125 23.6875 
L 45.3125 54.6875 
L 54.296875 54.6875 
L 54.296875 0 
L 45.3125 0 
L 45.3125 8.40625 
Q 42.046875 3.421875 37.71875 1 
Q 33.40625 -1.421875 27.6875 -1.421875 
Q 18.265625 -1.421875 13.375 4.4375 
Q 8.5 10.296875 8.5 21.578125 
z
M 31.109375 56 
z
" id="DejaVuSans-117"/>
      </defs>
      <use xlink:href="#DejaVuSans-118"/>
      <use x="59.179688" xlink:href="#DejaVuSans-97"/>
      <use x="120.458984" xlink:href="#DejaVuSans-108"/>
      <use x="148.242188" xlink:href="#DejaVuSans-117"/>
      <use x="211.621094" xlink:href="#DejaVuSans-101"/>
     </g>
    </g>
   </g>
   <g id="line2d_10">
    <path clip-path="url(#pa52a2f2e7a)" d="M 80.04 242.104449 
L 80.04 235.683583 
" style="fill:none;stroke:#3d3d3d;stroke-linecap:square;stroke-width:1.5;"/>
   </g>
   <g id="line2d_11">
    <path clip-path="url(#pa52a2f2e7a)" d="M 80.04 241.443936 
L 80.04 239.134912 
" style="fill:none;stroke:#3d3d3d;stroke-linecap:square;stroke-width:4.5;"/>
   </g>
   <g id="line2d_12">
    <path clip-path="url(#pa52a2f2e7a)" d="M 221.4 242.05584 
L 221.4 229.881012 
" style="fill:none;stroke:#3d3d3d;stroke-linecap:square;stroke-width:1.5;"/>
   </g>
   <g id="line2d_13">
    <path clip-path="url(#pa52a2f2e7a)" d="M 221.4 241.446674 
L 221.4 236.818919 
" style="fill:none;stroke:#3d3d3d;stroke-linecap:square;stroke-width:4.5;"/>
   </g>
   <g id="line2d_14">
    <path clip-path="url(#pa52a2f2e7a)" d="M 362.76 242.116364 
L 362.76 229.763805 
" style="fill:none;stroke:#3d3d3d;stroke-linecap:square;stroke-width:1.5;"/>
   </g>
   <g id="line2d_15">
    <path clip-path="url(#pa52a2f2e7a)" d="M 362.76 241.327035 
L 362.76 236.597336 
" style="fill:none;stroke:#3d3d3d;stroke-linecap:square;stroke-width:4.5;"/>
   </g>
   <g id="patch_6">
    <path d="M 54 252 
L 54 34.56 
" style="fill:none;stroke:#000000;stroke-linecap:square;stroke-linejoin:miter;stroke-width:0.8;"/>
   </g>
   <g id="patch_7">
    <path d="M 388.8 252 
L 388.8 34.56 
" style="fill:none;stroke:#000000;stroke-linecap:square;stroke-linejoin:miter;stroke-width:0.8;"/>
   </g>
   <g id="patch_8">
    <path d="M 54 252 
L 388.8 252 
" style="fill:none;stroke:#000000;stroke-linecap:square;stroke-linejoin:miter;stroke-width:0.8;"/>
   </g>
   <g id="patch_9">
    <path d="M 54 34.56 
L 388.8 34.56 
" style="fill:none;stroke:#000000;stroke-linecap:square;stroke-linejoin:miter;stroke-width:0.8;"/>
   </g>
   <g id="PathCollection_1">
    <defs>
     <path d="M 0 1.5 
C 0.397805 1.5 0.77937 1.341951 1.06066 1.06066 
C 1.341951 0.77937 1.5 0.397805 1.5 0 
C 1.5 -0.397805 1.341951 -0.77937 1.06066 -1.06066 
C 0.77937 -1.341951 0.397805 -1.5 0 -1.5 
C -0.397805 -1.5 -0.77937 -1.341951 -1.06066 -1.06066 
C -1.341951 -0.77937 -1.5 -0.397805 -1.5 0 
C -1.5 0.397805 -1.341951 0.77937 -1.06066 1.06066 
C -0.77937 1.341951 -0.397805 1.5 0 1.5 
z
" id="m732e9af136" style="stroke:#3d3d3d;"/>
    </defs>
    <g clip-path="url(#pa52a2f2e7a)">
     <use style="fill:#ffffff;stroke:#3d3d3d;" x="80.04" xlink:href="#m732e9af136" y="240.609512"/>
    </g>
   </g>
   <g id="PathCollection_2">
    <g clip-path="url(#pa52a2f2e7a)">
     <use style="fill:#ffffff;stroke:#3d3d3d;" x="221.4" xlink:href="#m732e9af136" y="240.219803"/>
    </g>
   </g>
   <g id="PathCollection_3">
    <g clip-path="url(#pa52a2f2e7a)">
     <use style="fill:#ffffff;stroke:#3d3d3d;" x="362.76" xlink:href="#m732e9af136" y="240.089481"/>
    </g>
   </g>
   <g id="legend_1">
    <g id="patch_10">
     <path d="M 326.525 101.2725 
L 381.8 101.2725 
Q 383.8 101.2725 383.8 99.2725 
L 383.8 41.56 
Q 383.8 39.56 381.8 39.56 
L 326.525 39.56 
Q 324.525 39.56 324.525 41.56 
L 324.525 99.2725 
Q 324.525 101.2725 326.525 101.2725 
z
" style="fill:#ffffff;opacity:0.8;stroke:#cccccc;stroke-linejoin:miter;"/>
    </g>
    <g id="text_12">
     <!-- set -->
     <g transform="translate(346.521094 51.158437)scale(0.1 -0.1)">
      <use xlink:href="#DejaVuSans-115"/>
      <use x="52.099609" xlink:href="#DejaVuSans-101"/>
      <use x="113.623047" xlink:href="#DejaVuSans-116"/>
     </g>
    </g>
    <g id="patch_11">
     <path d="M 328.525 65.836562 
L 348.525 65.836562 
L 348.525 58.836562 
L 328.525 58.836562 
z
" style="fill:#3274a1;stroke:#3d3d3d;stroke-linejoin:miter;stroke-width:0.75;"/>
    </g>
    <g id="text_13">
     <!-- train -->
     <g transform="translate(356.525 65.836562)scale(0.1 -0.1)">
      <use xlink:href="#DejaVuSans-116"/>
      <use x="39.208984" xlink:href="#DejaVuSans-114"/>
      <use x="80.322266" xlink:href="#DejaVuSans-97"/>
      <use x="141.601562" xlink:href="#DejaVuSans-105"/>
      <use x="169.384766" xlink:href="#DejaVuSans-110"/>
     </g>
    </g>
    <g id="patch_12">
     <path d="M 328.525 80.514687 
L 348.525 80.514687 
L 348.525 73.514687 
L 328.525 73.514687 
z
" style="fill:#e1812c;stroke:#3d3d3d;stroke-linejoin:miter;stroke-width:0.75;"/>
    </g>
    <g id="text_14">
     <!-- val -->
     <g transform="translate(356.525 80.514687)scale(0.1 -0.1)">
      <use xlink:href="#DejaVuSans-118"/>
      <use x="59.179688" xlink:href="#DejaVuSans-97"/>
      <use x="120.458984" xlink:href="#DejaVuSans-108"/>
     </g>
    </g>
    <g id="patch_13">
     <path d="M 328.525 95.192813 
L 348.525 95.192813 
L 348.525 88.192813 
L 328.525 88.192813 
z
" style="fill:#3a923a;stroke:#3d3d3d;stroke-linejoin:miter;stroke-width:0.75;"/>
    </g>
    <g id="text_15">
     <!-- test -->
     <g transform="translate(356.525 95.192813)scale(0.1 -0.1)">
      <use xlink:href="#DejaVuSans-116"/>
      <use x="39.208984" xlink:href="#DejaVuSans-101"/>
      <use x="100.732422" xlink:href="#DejaVuSans-115"/>
      <use x="152.832031" xlink:href="#DejaVuSans-116"/>
     </g>
    </g>
   </g>
  </g>
 </g>
 <defs>
  <clipPath id="pa52a2f2e7a">
   <rect height="217.44" width="334.8" x="54" y="34.56"/>
  </clipPath>
 </defs>
</svg>
