<?xml version="1.0" encoding="utf-8" standalone="no"?>
<!DOCTYPE svg PUBLIC "-//W3C//DTD SVG 1.1//EN"
  "http://www.w3.org/Graphics/SVG/1.1/DTD/svg11.dtd">
<!-- Created with matplotlib (https://matplotlib.org/) -->
<svg height="288pt" version="1.1" viewBox="0 0 432 288" width="432pt" xmlns="http://www.w3.org/2000/svg" xmlns:xlink="http://www.w3.org/1999/xlink">
 <metadata>
  <rdf:RDF xmlns:cc="http://creativecommons.org/ns#" xmlns:dc="http://purl.org/dc/elements/1.1/" xmlns:rdf="http://www.w3.org/1999/02/22-rdf-syntax-ns#">
   <cc:Work>
    <dc:type rdf:resource="http://purl.org/dc/dcmitype/StillImage"/>
    <dc:date>2022-04-17T18:03:15.752377</dc:date>
    <dc:format>image/svg+xml</dc:format>
    <dc:creator>
     <cc:Agent>
      <dc:title>Matplotlib v3.3.4, https://matplotlib.org/</dc:title>
     </cc:Agent>
    </dc:creator>
   </cc:Work>
  </rdf:RDF>
 </metadata>
 <defs>
  <style type="text/css">*{stroke-linecap:butt;stroke-linejoin:round;}</style>
 </defs>
 <g id="figure_1">
  <g id="patch_1">
   <path d="M 0 288 
L 432 288 
L 432 0 
L 0 0 
z
" style="fill:#ffffff;"/>
  </g>
  <g id="axes_1">
   <g id="patch_2">
    <path d="M 54 252 
L 388.8 252 
L 388.8 34.56 
L 54 34.56 
z
" style="fill:#ffffff;"/>
   </g>
   <g id="PolyCollection_1">
    <defs>
     <path d="M 104.479701 -45.883636 
L 103.960299 -45.883636 
L 103.894828 -47.880331 
L 103.82547 -49.877025 
L 103.751611 -51.873719 
L 103.672225 -53.870413 
L 103.587113 -55.867107 
L 103.497589 -57.863802 
L 103.406015 -59.860496 
L 103.314503 -61.85719 
L 103.223698 -63.853884 
L 103.132587 -65.850579 
L 103.039618 -67.847273 
L 102.94459 -69.843967 
L 102.850312 -71.840661 
L 102.763065 -73.837355 
L 102.691373 -75.83405 
L 102.643375 -77.830744 
L 102.623726 -79.827438 
L 102.63132 -81.824132 
L 102.658836 -83.820826 
L 102.694314 -85.817521 
L 102.724161 -87.814215 
L 102.736541 -89.810909 
L 102.724137 -91.807603 
L 102.685612 -93.804298 
L 102.62539 -95.800992 
L 102.551795 -97.797686 
L 102.474201 -99.79438 
L 102.400291 -101.791074 
L 102.334509 -103.787769 
L 102.277869 -105.784463 
L 102.228346 -107.781157 
L 102.180847 -109.777851 
L 102.126776 -111.774545 
L 102.054394 -113.77124 
L 101.951461 -115.767934 
L 101.810263 -117.764628 
L 101.633084 -119.761322 
L 101.434927 -121.758017 
L 101.241005 -123.754711 
L 101.078955 -125.751405 
L 100.968615 -127.748099 
L 100.913743 -129.744793 
L 100.899295 -131.741488 
L 100.895203 -133.738182 
L 100.864495 -135.734876 
L 100.771955 -137.73157 
L 100.590025 -139.728264 
L 100.300871 -141.724959 
L 99.895804 -143.721653 
L 99.374224 -145.718347 
L 98.743518 -147.715041 
L 98.01969 -149.711736 
L 97.227076 -151.70843 
L 96.395529 -153.705124 
L 95.554774 -155.701818 
L 94.727661 -157.698512 
L 93.925085 -159.695207 
L 93.144756 -161.691901 
L 92.373948 -163.688595 
L 91.594539 -165.685289 
L 90.788457 -167.681983 
L 89.942727 -169.678678 
L 89.053874 -171.675372 
L 88.130291 -173.672066 
L 87.189718 -175.66876 
L 86.249975 -177.665455 
L 85.315514 -179.662149 
L 84.367133 -181.658843 
L 83.362627 -183.655537 
L 82.250506 -185.652231 
L 80.991119 -187.648926 
L 79.575319 -189.64562 
L 78.033123 -191.642314 
L 76.430795 -193.639008 
L 74.859695 -195.635702 
L 73.421658 -197.632397 
L 72.214936 -199.629091 
L 71.323899 -201.625785 
L 70.815068 -203.622479 
L 70.74 -205.619174 
L 71.141744 -207.615868 
L 72.058267 -209.612562 
L 73.516783 -211.609256 
L 75.518268 -213.60595 
L 78.018671 -215.602645 
L 80.917461 -217.599339 
L 84.061913 -219.596033 
L 87.268329 -221.592727 
L 90.353504 -223.589421 
L 93.165787 -225.586116 
L 95.606178 -227.58281 
L 97.634673 -229.579504 
L 99.262587 -231.576198 
L 100.535807 -233.572893 
L 101.515655 -235.569587 
L 102.26322 -237.566281 
L 102.830272 -239.562975 
L 103.256735 -241.559669 
L 103.572428 -243.556364 
L 104.867572 -243.556364 
L 104.867572 -243.556364 
L 105.183265 -241.559669 
L 105.609728 -239.562975 
L 106.17678 -237.566281 
L 106.924345 -235.569587 
L 107.904193 -233.572893 
L 109.177413 -231.576198 
L 110.805327 -229.579504 
L 112.833822 -227.58281 
L 115.274213 -225.586116 
L 118.086496 -223.589421 
L 121.171671 -221.592727 
L 124.378087 -219.596033 
L 127.522539 -217.599339 
L 130.421329 -215.602645 
L 132.921732 -213.60595 
L 134.923217 -211.609256 
L 136.381733 -209.612562 
L 137.298256 -207.615868 
L 137.7 -205.619174 
L 137.624932 -203.622479 
L 137.116101 -201.625785 
L 136.225064 -199.629091 
L 135.018342 -197.632397 
L 133.580305 -195.635702 
L 132.009205 -193.639008 
L 130.406877 -191.642314 
L 128.864681 -189.64562 
L 127.448881 -187.648926 
L 126.189494 -185.652231 
L 125.077373 -183.655537 
L 124.072867 -181.658843 
L 123.124486 -179.662149 
L 122.190025 -177.665455 
L 121.250282 -175.66876 
L 120.309709 -173.672066 
L 119.386126 -171.675372 
L 118.497273 -169.678678 
L 117.651543 -167.681983 
L 116.845461 -165.685289 
L 116.066052 -163.688595 
L 115.295244 -161.691901 
L 114.514915 -159.695207 
L 113.712339 -157.698512 
L 112.885226 -155.701818 
L 112.044471 -153.705124 
L 111.212924 -151.70843 
L 110.42031 -149.711736 
L 109.696482 -147.715041 
L 109.065776 -145.718347 
L 108.544196 -143.721653 
L 108.139129 -141.724959 
L 107.849975 -139.728264 
L 107.668045 -137.73157 
L 107.575505 -135.734876 
L 107.544797 -133.738182 
L 107.540705 -131.741488 
L 107.526257 -129.744793 
L 107.471385 -127.748099 
L 107.361045 -125.751405 
L 107.198995 -123.754711 
L 107.005073 -121.758017 
L 106.806916 -119.761322 
L 106.629737 -117.764628 
L 106.488539 -115.767934 
L 106.385606 -113.77124 
L 106.313224 -111.774545 
L 106.259153 -109.777851 
L 106.211654 -107.781157 
L 106.162131 -105.784463 
L 106.105491 -103.787769 
L 106.039709 -101.791074 
L 105.965799 -99.79438 
L 105.888205 -97.797686 
L 105.81461 -95.800992 
L 105.754388 -93.804298 
L 105.715863 -91.807603 
L 105.703459 -89.810909 
L 105.715839 -87.814215 
L 105.745686 -85.817521 
L 105.781164 -83.820826 
L 105.80868 -81.824132 
L 105.816274 -79.827438 
L 105.796625 -77.830744 
L 105.748627 -75.83405 
L 105.676935 -73.837355 
L 105.589688 -71.840661 
L 105.49541 -69.843967 
L 105.400382 -67.847273 
L 105.307413 -65.850579 
L 105.216302 -63.853884 
L 105.125497 -61.85719 
L 105.033985 -59.860496 
L 104.942411 -57.863802 
L 104.852887 -55.867107 
L 104.767775 -53.870413 
L 104.688389 -51.873719 
L 104.61453 -49.877025 
L 104.545172 -47.880331 
L 104.479701 -45.883636 
z
" id="mfaf70388ed" style="stroke:#3f3f3f;stroke-width:1.5;"/>
    </defs>
    <g clip-path="url(#p89721cded5)">
     <use style="fill:#3274a1;stroke:#3f3f3f;stroke-width:1.5;" x="0" xlink:href="#mfaf70388ed" y="288"/>
    </g>
   </g>
   <g id="PolyCollection_2">
    <defs>
     <path d="M 338.626172 -70.064737 
L 338.533828 -70.064737 
L 338.537661 -71.787729 
L 338.547258 -73.510721 
L 338.558138 -75.233713 
L 338.565927 -76.956705 
L 338.56803 -78.679697 
L 338.563833 -80.402689 
L 338.554597 -82.125681 
L 338.543598 -83.848673 
L 338.535493 -85.571665 
L 338.53409 -87.294658 
L 338.539772 -89.01765 
L 338.548852 -90.740642 
L 338.555442 -92.463634 
L 338.554127 -94.186626 
L 338.541833 -95.909618 
L 338.518809 -97.63261 
L 338.488778 -99.355602 
L 338.45737 -101.078594 
L 338.428554 -102.801586 
L 338.4014 -104.524578 
L 338.370654 -106.24757 
L 338.331639 -107.970563 
L 338.28531 -109.693555 
L 338.238523 -111.416547 
L 338.199299 -113.139539 
L 338.171471 -114.862531 
L 338.152488 -116.585523 
L 338.134449 -118.308515 
L 338.107097 -120.031507 
L 338.061812 -121.754499 
L 337.994781 -123.477491 
L 337.907366 -125.200483 
L 337.804565 -126.923475 
L 337.694164 -128.646467 
L 337.586416 -130.36946 
L 337.491436 -132.092452 
L 337.414089 -133.815444 
L 337.35041 -135.538436 
L 337.288946 -137.261428 
L 337.215442 -138.98442 
L 337.117027 -140.707412 
L 336.984639 -142.430404 
L 336.815209 -144.153396 
L 336.613571 -145.876388 
L 336.39135 -147.59938 
L 336.160626 -149.322372 
L 335.923832 -151.045365 
L 335.66551 -152.768357 
L 335.353235 -154.491349 
L 334.950262 -156.214341 
L 334.433088 -157.937333 
L 333.804203 -159.660325 
L 333.096101 -161.383317 
L 332.365656 -163.106309 
L 331.675603 -164.829301 
L 331.065315 -166.552293 
L 330.525887 -168.275285 
L 329.995854 -169.998277 
L 329.380327 -171.72127 
L 328.586818 -173.444262 
L 327.56886 -175.167254 
L 326.357715 -176.890246 
L 325.050859 -178.613238 
L 323.748347 -180.33623 
L 322.481289 -182.059222 
L 321.19967 -183.782214 
L 319.837062 -185.505206 
L 318.391055 -187.228198 
L 316.937248 -188.95119 
L 315.560942 -190.674182 
L 314.27781 -192.397174 
L 313.026311 -194.120167 
L 311.733268 -195.843159 
L 310.376282 -197.566151 
L 308.989656 -199.289143 
L 307.643851 -201.012135 
L 306.446373 -202.735127 
L 305.547067 -204.458119 
L 305.1 -206.181111 
L 305.19462 -207.904103 
L 305.82532 -209.627095 
L 306.930395 -211.350087 
L 308.45281 -213.073079 
L 310.361211 -214.796072 
L 312.625568 -216.519064 
L 315.188432 -218.242056 
L 317.963016 -219.965048 
L 320.85064 -221.68804 
L 323.752689 -223.411032 
L 326.569698 -225.134024 
L 329.201352 -226.857016 
L 331.556829 -228.580008 
L 333.5675 -230.303 
L 335.192849 -232.025992 
L 336.423024 -233.748984 
L 337.28323 -235.471977 
L 337.834102 -237.194969 
L 338.158997 -238.917961 
L 338.341018 -240.640953 
L 338.818982 -240.640953 
L 338.818982 -240.640953 
L 339.001003 -238.917961 
L 339.325898 -237.194969 
L 339.87677 -235.471977 
L 340.736976 -233.748984 
L 341.967151 -232.025992 
L 343.5925 -230.303 
L 345.603171 -228.580008 
L 347.958648 -226.857016 
L 350.590302 -225.134024 
L 353.407311 -223.411032 
L 356.30936 -221.68804 
L 359.196984 -219.965048 
L 361.971568 -218.242056 
L 364.534432 -216.519064 
L 366.798789 -214.796072 
L 368.70719 -213.073079 
L 370.229605 -211.350087 
L 371.33468 -209.627095 
L 371.96538 -207.904103 
L 372.06 -206.181111 
L 371.612933 -204.458119 
L 370.713627 -202.735127 
L 369.516149 -201.012135 
L 368.170344 -199.289143 
L 366.783718 -197.566151 
L 365.426732 -195.843159 
L 364.133689 -194.120167 
L 362.88219 -192.397174 
L 361.599058 -190.674182 
L 360.222752 -188.95119 
L 358.768945 -187.228198 
L 357.322938 -185.505206 
L 355.96033 -183.782214 
L 354.678711 -182.059222 
L 353.411653 -180.33623 
L 352.109141 -178.613238 
L 350.802285 -176.890246 
L 349.59114 -175.167254 
L 348.573182 -173.444262 
L 347.779673 -171.72127 
L 347.164146 -169.998277 
L 346.634113 -168.275285 
L 346.094685 -166.552293 
L 345.484397 -164.829301 
L 344.794344 -163.106309 
L 344.063899 -161.383317 
L 343.355797 -159.660325 
L 342.726912 -157.937333 
L 342.209738 -156.214341 
L 341.806765 -154.491349 
L 341.49449 -152.768357 
L 341.236168 -151.045365 
L 340.999374 -149.322372 
L 340.76865 -147.59938 
L 340.546429 -145.876388 
L 340.344791 -144.153396 
L 340.175361 -142.430404 
L 340.042973 -140.707412 
L 339.944558 -138.98442 
L 339.871054 -137.261428 
L 339.80959 -135.538436 
L 339.745911 -133.815444 
L 339.668564 -132.092452 
L 339.573584 -130.36946 
L 339.465836 -128.646467 
L 339.355435 -126.923475 
L 339.252634 -125.200483 
L 339.165219 -123.477491 
L 339.098188 -121.754499 
L 339.052903 -120.031507 
L 339.025551 -118.308515 
L 339.007512 -116.585523 
L 338.988529 -114.862531 
L 338.960701 -113.139539 
L 338.921477 -111.416547 
L 338.87469 -109.693555 
L 338.828361 -107.970563 
L 338.789346 -106.24757 
L 338.7586 -104.524578 
L 338.731446 -102.801586 
L 338.70263 -101.078594 
L 338.671222 -99.355602 
L 338.641191 -97.63261 
L 338.618167 -95.909618 
L 338.605873 -94.186626 
L 338.604558 -92.463634 
L 338.611148 -90.740642 
L 338.620228 -89.01765 
L 338.62591 -87.294658 
L 338.624507 -85.571665 
L 338.616402 -83.848673 
L 338.605403 -82.125681 
L 338.596167 -80.402689 
L 338.59197 -78.679697 
L 338.594073 -76.956705 
L 338.601862 -75.233713 
L 338.612742 -73.510721 
L 338.622339 -71.787729 
L 338.626172 -70.064737 
z
" id="mad14ec2fb1" style="stroke:#3f3f3f;stroke-width:1.5;"/>
    </defs>
    <g clip-path="url(#p89721cded5)">
     <use style="fill:#e1812c;stroke:#3f3f3f;stroke-width:1.5;" x="0" xlink:href="#mad14ec2fb1" y="288"/>
    </g>
   </g>
   <g id="patch_3">
    <path clip-path="url(#p89721cded5)" d="M 137.7 263.482313 
L 137.7 263.482313 
L 137.7 263.482313 
L 137.7 263.482313 
z
" style="fill:#3274a1;stroke:#3f3f3f;stroke-linejoin:miter;stroke-width:0.75;"/>
   </g>
   <g id="patch_4">
    <path clip-path="url(#p89721cded5)" d="M 137.7 263.482313 
L 137.7 263.482313 
L 137.7 263.482313 
L 137.7 263.482313 
z
" style="fill:#e1812c;stroke:#3f3f3f;stroke-linejoin:miter;stroke-width:0.75;"/>
   </g>
   <g id="matplotlib.axis_1">
    <g id="xtick_1">
     <g id="line2d_1">
      <defs>
       <path d="M 0 0 
L 0 3.5 
" id="m5d9a62a12f" style="stroke:#000000;stroke-width:0.8;"/>
      </defs>
      <g>
       <use style="stroke:#000000;stroke-width:0.8;" x="137.7" xlink:href="#m5d9a62a12f" y="252"/>
      </g>
     </g>
     <g id="text_1">
      <!-- Z_1_ns -->
      <g transform="translate(120.320312 266.320312)scale(0.1 -0.1)">
       <defs>
        <path d="M 5.609375 72.90625 
L 62.890625 72.90625 
L 62.890625 65.375 
L 16.796875 8.296875 
L 64.015625 8.296875 
L 64.015625 0 
L 4.5 0 
L 4.5 7.515625 
L 50.59375 64.59375 
L 5.609375 64.59375 
z
" id="DejaVuSans-90"/>
        <path d="M 50.984375 -16.609375 
L 50.984375 -23.578125 
L -0.984375 -23.578125 
L -0.984375 -16.609375 
z
" id="DejaVuSans-95"/>
        <path d="M 12.40625 8.296875 
L 28.515625 8.296875 
L 28.515625 63.921875 
L 10.984375 60.40625 
L 10.984375 69.390625 
L 28.421875 72.90625 
L 38.28125 72.90625 
L 38.28125 8.296875 
L 54.390625 8.296875 
L 54.390625 0 
L 12.40625 0 
z
" id="DejaVuSans-49"/>
        <path d="M 54.890625 33.015625 
L 54.890625 0 
L 45.90625 0 
L 45.90625 32.71875 
Q 45.90625 40.484375 42.875 44.328125 
Q 39.84375 48.1875 33.796875 48.1875 
Q 26.515625 48.1875 22.3125 43.546875 
Q 18.109375 38.921875 18.109375 30.90625 
L 18.109375 0 
L 9.078125 0 
L 9.078125 54.6875 
L 18.109375 54.6875 
L 18.109375 46.1875 
Q 21.34375 51.125 25.703125 53.5625 
Q 30.078125 56 35.796875 56 
Q 45.21875 56 50.046875 50.171875 
Q 54.890625 44.34375 54.890625 33.015625 
z
" id="DejaVuSans-110"/>
        <path d="M 44.28125 53.078125 
L 44.28125 44.578125 
Q 40.484375 46.53125 36.375 47.5 
Q 32.28125 48.484375 27.875 48.484375 
Q 21.1875 48.484375 17.84375 46.4375 
Q 14.5 44.390625 14.5 40.28125 
Q 14.5 37.15625 16.890625 35.375 
Q 19.28125 33.59375 26.515625 31.984375 
L 29.59375 31.296875 
Q 39.15625 29.25 43.1875 25.515625 
Q 47.21875 21.78125 47.21875 15.09375 
Q 47.21875 7.46875 41.1875 3.015625 
Q 35.15625 -1.421875 24.609375 -1.421875 
Q 20.21875 -1.421875 15.453125 -0.5625 
Q 10.6875 0.296875 5.421875 2 
L 5.421875 11.28125 
Q 10.40625 8.6875 15.234375 7.390625 
Q 20.0625 6.109375 24.8125 6.109375 
Q 31.15625 6.109375 34.5625 8.28125 
Q 37.984375 10.453125 37.984375 14.40625 
Q 37.984375 18.0625 35.515625 20.015625 
Q 33.0625 21.96875 24.703125 23.78125 
L 21.578125 24.515625 
Q 13.234375 26.265625 9.515625 29.90625 
Q 5.8125 33.546875 5.8125 39.890625 
Q 5.8125 47.609375 11.28125 51.796875 
Q 16.75 56 26.8125 56 
Q 31.78125 56 36.171875 55.265625 
Q 40.578125 54.546875 44.28125 53.078125 
z
" id="DejaVuSans-115"/>
       </defs>
       <use xlink:href="#DejaVuSans-90"/>
       <use x="68.505859" xlink:href="#DejaVuSans-95"/>
       <use x="118.505859" xlink:href="#DejaVuSans-49"/>
       <use x="182.128906" xlink:href="#DejaVuSans-95"/>
       <use x="232.128906" xlink:href="#DejaVuSans-110"/>
       <use x="295.507812" xlink:href="#DejaVuSans-115"/>
      </g>
     </g>
    </g>
    <g id="xtick_2">
     <g id="line2d_2">
      <g>
       <use style="stroke:#000000;stroke-width:0.8;" x="305.1" xlink:href="#m5d9a62a12f" y="252"/>
      </g>
     </g>
     <g id="text_2">
      <!-- Z_3_ns -->
      <g transform="translate(287.720313 266.421875)scale(0.1 -0.1)">
       <defs>
        <path d="M 40.578125 39.3125 
Q 47.65625 37.796875 51.625 33 
Q 55.609375 28.21875 55.609375 21.1875 
Q 55.609375 10.40625 48.1875 4.484375 
Q 40.765625 -1.421875 27.09375 -1.421875 
Q 22.515625 -1.421875 17.65625 -0.515625 
Q 12.796875 0.390625 7.625 2.203125 
L 7.625 11.71875 
Q 11.71875 9.328125 16.59375 8.109375 
Q 21.484375 6.890625 26.8125 6.890625 
Q 36.078125 6.890625 40.9375 10.546875 
Q 45.796875 14.203125 45.796875 21.1875 
Q 45.796875 27.640625 41.28125 31.265625 
Q 36.765625 34.90625 28.71875 34.90625 
L 20.21875 34.90625 
L 20.21875 43.015625 
L 29.109375 43.015625 
Q 36.375 43.015625 40.234375 45.921875 
Q 44.09375 48.828125 44.09375 54.296875 
Q 44.09375 59.90625 40.109375 62.90625 
Q 36.140625 65.921875 28.71875 65.921875 
Q 24.65625 65.921875 20.015625 65.03125 
Q 15.375 64.15625 9.8125 62.3125 
L 9.8125 71.09375 
Q 15.4375 72.65625 20.34375 73.4375 
Q 25.25 74.21875 29.59375 74.21875 
Q 40.828125 74.21875 47.359375 69.109375 
Q 53.90625 64.015625 53.90625 55.328125 
Q 53.90625 49.265625 50.4375 45.09375 
Q 46.96875 40.921875 40.578125 39.3125 
z
" id="DejaVuSans-51"/>
       </defs>
       <use xlink:href="#DejaVuSans-90"/>
       <use x="68.505859" xlink:href="#DejaVuSans-95"/>
       <use x="118.505859" xlink:href="#DejaVuSans-51"/>
       <use x="182.128906" xlink:href="#DejaVuSans-95"/>
       <use x="232.128906" xlink:href="#DejaVuSans-110"/>
       <use x="295.507812" xlink:href="#DejaVuSans-115"/>
      </g>
     </g>
    </g>
    <g id="text_3">
     <!-- set -->
     <g transform="translate(213.758594 280.378125)scale(0.1 -0.1)">
      <defs>
       <path d="M 56.203125 29.59375 
L 56.203125 25.203125 
L 14.890625 25.203125 
Q 15.484375 15.921875 20.484375 11.0625 
Q 25.484375 6.203125 34.421875 6.203125 
Q 39.59375 6.203125 44.453125 7.46875 
Q 49.3125 8.734375 54.109375 11.28125 
L 54.109375 2.78125 
Q 49.265625 0.734375 44.1875 -0.34375 
Q 39.109375 -1.421875 33.890625 -1.421875 
Q 20.796875 -1.421875 13.15625 6.1875 
Q 5.515625 13.8125 5.515625 26.8125 
Q 5.515625 40.234375 12.765625 48.109375 
Q 20.015625 56 32.328125 56 
Q 43.359375 56 49.78125 48.890625 
Q 56.203125 41.796875 56.203125 29.59375 
z
M 47.21875 32.234375 
Q 47.125 39.59375 43.09375 43.984375 
Q 39.0625 48.390625 32.421875 48.390625 
Q 24.90625 48.390625 20.390625 44.140625 
Q 15.875 39.890625 15.1875 32.171875 
z
" id="DejaVuSans-101"/>
       <path d="M 18.3125 70.21875 
L 18.3125 54.6875 
L 36.8125 54.6875 
L 36.8125 47.703125 
L 18.3125 47.703125 
L 18.3125 18.015625 
Q 18.3125 11.328125 20.140625 9.421875 
Q 21.96875 7.515625 27.59375 7.515625 
L 36.8125 7.515625 
L 36.8125 0 
L 27.59375 0 
Q 17.1875 0 13.234375 3.875 
Q 9.28125 7.765625 9.28125 18.015625 
L 9.28125 47.703125 
L 2.6875 47.703125 
L 2.6875 54.6875 
L 9.28125 54.6875 
L 9.28125 70.21875 
z
" id="DejaVuSans-116"/>
      </defs>
      <use xlink:href="#DejaVuSans-115"/>
      <use x="52.099609" xlink:href="#DejaVuSans-101"/>
      <use x="113.623047" xlink:href="#DejaVuSans-116"/>
     </g>
    </g>
   </g>
   <g id="matplotlib.axis_2">
    <g id="ytick_1">
     <g id="line2d_3">
      <defs>
       <path d="M 0 0 
L -3.5 0 
" id="m719b8cfc37" style="stroke:#000000;stroke-width:0.8;"/>
      </defs>
      <g>
       <use style="stroke:#000000;stroke-width:0.8;" x="54" xlink:href="#m719b8cfc37" y="233.716408"/>
      </g>
     </g>
     <g id="text_4">
      <!-- 5 -->
      <g transform="translate(40.6375 237.515627)scale(0.1 -0.1)">
       <defs>
        <path d="M 10.796875 72.90625 
L 49.515625 72.90625 
L 49.515625 64.59375 
L 19.828125 64.59375 
L 19.828125 46.734375 
Q 21.96875 47.46875 24.109375 47.828125 
Q 26.265625 48.1875 28.421875 48.1875 
Q 40.625 48.1875 47.75 41.5 
Q 54.890625 34.8125 54.890625 23.390625 
Q 54.890625 11.625 47.5625 5.09375 
Q 40.234375 -1.421875 26.90625 -1.421875 
Q 22.3125 -1.421875 17.546875 -0.640625 
Q 12.796875 0.140625 7.71875 1.703125 
L 7.71875 11.625 
Q 12.109375 9.234375 16.796875 8.0625 
Q 21.484375 6.890625 26.703125 6.890625 
Q 35.15625 6.890625 40.078125 11.328125 
Q 45.015625 15.765625 45.015625 23.390625 
Q 45.015625 31 40.078125 35.4375 
Q 35.15625 39.890625 26.703125 39.890625 
Q 22.75 39.890625 18.8125 39.015625 
Q 14.890625 38.140625 10.796875 36.28125 
z
" id="DejaVuSans-53"/>
       </defs>
       <use xlink:href="#DejaVuSans-53"/>
      </g>
     </g>
    </g>
    <g id="ytick_2">
     <g id="line2d_4">
      <g>
       <use style="stroke:#000000;stroke-width:0.8;" x="54" xlink:href="#m719b8cfc37" y="203.950503"/>
      </g>
     </g>
     <g id="text_5">
      <!-- 10 -->
      <g transform="translate(34.275 207.749722)scale(0.1 -0.1)">
       <defs>
        <path d="M 31.78125 66.40625 
Q 24.171875 66.40625 20.328125 58.90625 
Q 16.5 51.421875 16.5 36.375 
Q 16.5 21.390625 20.328125 13.890625 
Q 24.171875 6.390625 31.78125 6.390625 
Q 39.453125 6.390625 43.28125 13.890625 
Q 47.125 21.390625 47.125 36.375 
Q 47.125 51.421875 43.28125 58.90625 
Q 39.453125 66.40625 31.78125 66.40625 
z
M 31.78125 74.21875 
Q 44.046875 74.21875 50.515625 64.515625 
Q 56.984375 54.828125 56.984375 36.375 
Q 56.984375 17.96875 50.515625 8.265625 
Q 44.046875 -1.421875 31.78125 -1.421875 
Q 19.53125 -1.421875 13.0625 8.265625 
Q 6.59375 17.96875 6.59375 36.375 
Q 6.59375 54.828125 13.0625 64.515625 
Q 19.53125 74.21875 31.78125 74.21875 
z
" id="DejaVuSans-48"/>
       </defs>
       <use xlink:href="#DejaVuSans-49"/>
       <use x="63.623047" xlink:href="#DejaVuSans-48"/>
      </g>
     </g>
    </g>
    <g id="ytick_3">
     <g id="line2d_5">
      <g>
       <use style="stroke:#000000;stroke-width:0.8;" x="54" xlink:href="#m719b8cfc37" y="174.184598"/>
      </g>
     </g>
     <g id="text_6">
      <!-- 15 -->
      <g transform="translate(34.275 177.983817)scale(0.1 -0.1)">
       <use xlink:href="#DejaVuSans-49"/>
       <use x="63.623047" xlink:href="#DejaVuSans-53"/>
      </g>
     </g>
    </g>
    <g id="ytick_4">
     <g id="line2d_6">
      <g>
       <use style="stroke:#000000;stroke-width:0.8;" x="54" xlink:href="#m719b8cfc37" y="144.418693"/>
      </g>
     </g>
     <g id="text_7">
      <!-- 20 -->
      <g transform="translate(34.275 148.217912)scale(0.1 -0.1)">
       <defs>
        <path d="M 19.1875 8.296875 
L 53.609375 8.296875 
L 53.609375 0 
L 7.328125 0 
L 7.328125 8.296875 
Q 12.9375 14.109375 22.625 23.890625 
Q 32.328125 33.6875 34.8125 36.53125 
Q 39.546875 41.84375 41.421875 45.53125 
Q 43.3125 49.21875 43.3125 52.78125 
Q 43.3125 58.59375 39.234375 62.25 
Q 35.15625 65.921875 28.609375 65.921875 
Q 23.96875 65.921875 18.8125 64.3125 
Q 13.671875 62.703125 7.8125 59.421875 
L 7.8125 69.390625 
Q 13.765625 71.78125 18.9375 73 
Q 24.125 74.21875 28.421875 74.21875 
Q 39.75 74.21875 46.484375 68.546875 
Q 53.21875 62.890625 53.21875 53.421875 
Q 53.21875 48.921875 51.53125 44.890625 
Q 49.859375 40.875 45.40625 35.40625 
Q 44.1875 33.984375 37.640625 27.21875 
Q 31.109375 20.453125 19.1875 8.296875 
z
" id="DejaVuSans-50"/>
       </defs>
       <use xlink:href="#DejaVuSans-50"/>
       <use x="63.623047" xlink:href="#DejaVuSans-48"/>
      </g>
     </g>
    </g>
    <g id="ytick_5">
     <g id="line2d_7">
      <g>
       <use style="stroke:#000000;stroke-width:0.8;" x="54" xlink:href="#m719b8cfc37" y="114.652788"/>
      </g>
     </g>
     <g id="text_8">
      <!-- 25 -->
      <g transform="translate(34.275 118.452007)scale(0.1 -0.1)">
       <use xlink:href="#DejaVuSans-50"/>
       <use x="63.623047" xlink:href="#DejaVuSans-53"/>
      </g>
     </g>
    </g>
    <g id="ytick_6">
     <g id="line2d_8">
      <g>
       <use style="stroke:#000000;stroke-width:0.8;" x="54" xlink:href="#m719b8cfc37" y="84.886883"/>
      </g>
     </g>
     <g id="text_9">
      <!-- 30 -->
      <g transform="translate(34.275 88.686102)scale(0.1 -0.1)">
       <use xlink:href="#DejaVuSans-51"/>
       <use x="63.623047" xlink:href="#DejaVuSans-48"/>
      </g>
     </g>
    </g>
    <g id="ytick_7">
     <g id="line2d_9">
      <g>
       <use style="stroke:#000000;stroke-width:0.8;" x="54" xlink:href="#m719b8cfc37" y="55.120978"/>
      </g>
     </g>
     <g id="text_10">
      <!-- 35 -->
      <g transform="translate(34.275 58.920197)scale(0.1 -0.1)">
       <use xlink:href="#DejaVuSans-51"/>
       <use x="63.623047" xlink:href="#DejaVuSans-53"/>
      </g>
     </g>
    </g>
    <g id="text_11">
     <!-- value -->
     <g transform="translate(28.195312 156.937813)rotate(-90)scale(0.1 -0.1)">
      <defs>
       <path d="M 2.984375 54.6875 
L 12.5 54.6875 
L 29.59375 8.796875 
L 46.6875 54.6875 
L 56.203125 54.6875 
L 35.6875 0 
L 23.484375 0 
z
" id="DejaVuSans-118"/>
       <path d="M 34.28125 27.484375 
Q 23.390625 27.484375 19.1875 25 
Q 14.984375 22.515625 14.984375 16.5 
Q 14.984375 11.71875 18.140625 8.90625 
Q 21.296875 6.109375 26.703125 6.109375 
Q 34.1875 6.109375 38.703125 11.40625 
Q 43.21875 16.703125 43.21875 25.484375 
L 43.21875 27.484375 
z
M 52.203125 31.203125 
L 52.203125 0 
L 43.21875 0 
L 43.21875 8.296875 
Q 40.140625 3.328125 35.546875 0.953125 
Q 30.953125 -1.421875 24.3125 -1.421875 
Q 15.921875 -1.421875 10.953125 3.296875 
Q 6 8.015625 6 15.921875 
Q 6 25.140625 12.171875 29.828125 
Q 18.359375 34.515625 30.609375 34.515625 
L 43.21875 34.515625 
L 43.21875 35.40625 
Q 43.21875 41.609375 39.140625 45 
Q 35.0625 48.390625 27.6875 48.390625 
Q 23 48.390625 18.546875 47.265625 
Q 14.109375 46.140625 10.015625 43.890625 
L 10.015625 52.203125 
Q 14.9375 54.109375 19.578125 55.046875 
Q 24.21875 56 28.609375 56 
Q 40.484375 56 46.34375 49.84375 
Q 52.203125 43.703125 52.203125 31.203125 
z
" id="DejaVuSans-97"/>
       <path d="M 9.421875 75.984375 
L 18.40625 75.984375 
L 18.40625 0 
L 9.421875 0 
z
" id="DejaVuSans-108"/>
       <path d="M 8.5 21.578125 
L 8.5 54.6875 
L 17.484375 54.6875 
L 17.484375 21.921875 
Q 17.484375 14.15625 20.5 10.265625 
Q 23.53125 6.390625 29.59375 6.390625 
Q 36.859375 6.390625 41.078125 11.03125 
Q 45.3125 15.671875 45.3125 23.6875 
L 45.3125 54.6875 
L 54.296875 54.6875 
L 54.296875 0 
L 45.3125 0 
L 45.3125 8.40625 
Q 42.046875 3.421875 37.71875 1 
Q 33.40625 -1.421875 27.6875 -1.421875 
Q 18.265625 -1.421875 13.375 4.4375 
Q 8.5 10.296875 8.5 21.578125 
z
M 31.109375 56 
z
" id="DejaVuSans-117"/>
      </defs>
      <use xlink:href="#DejaVuSans-118"/>
      <use x="59.179688" xlink:href="#DejaVuSans-97"/>
      <use x="120.458984" xlink:href="#DejaVuSans-108"/>
      <use x="148.242188" xlink:href="#DejaVuSans-117"/>
      <use x="211.621094" xlink:href="#DejaVuSans-101"/>
     </g>
    </g>
   </g>
   <g id="line2d_10">
    <path clip-path="url(#p89721cded5)" d="M 104.22 167.739891 
L 104.22 44.443636 
" style="fill:none;stroke:#3f3f3f;stroke-linecap:square;stroke-width:1.5;"/>
   </g>
   <g id="line2d_11">
    <path clip-path="url(#p89721cded5)" d="M 104.22 114.8431 
L 104.22 79.448988 
" style="fill:none;stroke:#3f3f3f;stroke-linecap:square;stroke-width:4.5;"/>
   </g>
   <g id="line2d_12">
    <path clip-path="url(#p89721cded5)" d="M 338.58 139.385966 
L 338.58 47.359047 
" style="fill:none;stroke:#3f3f3f;stroke-linecap:square;stroke-width:1.5;"/>
   </g>
   <g id="line2d_13">
    <path clip-path="url(#p89721cded5)" d="M 338.58 101.514165 
L 338.58 76.263464 
" style="fill:none;stroke:#3f3f3f;stroke-linecap:square;stroke-width:4.5;"/>
   </g>
   <g id="patch_5">
    <path d="M 54 252 
L 54 34.56 
" style="fill:none;stroke:#000000;stroke-linecap:square;stroke-linejoin:miter;stroke-width:0.8;"/>
   </g>
   <g id="patch_6">
    <path d="M 388.8 252 
L 388.8 34.56 
" style="fill:none;stroke:#000000;stroke-linecap:square;stroke-linejoin:miter;stroke-width:0.8;"/>
   </g>
   <g id="patch_7">
    <path d="M 54 252 
L 388.8 252 
" style="fill:none;stroke:#000000;stroke-linecap:square;stroke-linejoin:miter;stroke-width:0.8;"/>
   </g>
   <g id="patch_8">
    <path d="M 54 34.56 
L 388.8 34.56 
" style="fill:none;stroke:#000000;stroke-linecap:square;stroke-linejoin:miter;stroke-width:0.8;"/>
   </g>
   <g id="PathCollection_1">
    <defs>
     <path d="M 0 1.5 
C 0.397805 1.5 0.77937 1.341951 1.06066 1.06066 
C 1.341951 0.77937 1.5 0.397805 1.5 0 
C 1.5 -0.397805 1.341951 -0.77937 1.06066 -1.06066 
C 0.77937 -1.341951 0.397805 -1.5 0 -1.5 
C -0.397805 -1.5 -0.77937 -1.341951 -1.06066 -1.06066 
C -1.341951 -0.77937 -1.5 -0.397805 -1.5 0 
C -1.5 0.397805 -1.341951 0.77937 -1.06066 1.06066 
C -0.77937 1.341951 -0.397805 1.5 0 1.5 
z
" id="ma220cdf24b" style="stroke:#3f3f3f;"/>
    </defs>
    <g clip-path="url(#p89721cded5)">
     <use style="fill:#ffffff;stroke:#3f3f3f;" x="104.22" xlink:href="#ma220cdf24b" y="92.970042"/>
    </g>
   </g>
   <g id="PathCollection_2">
    <g clip-path="url(#p89721cded5)">
     <use style="fill:#ffffff;stroke:#3f3f3f;" x="338.58" xlink:href="#ma220cdf24b" y="87.268381"/>
    </g>
   </g>
   <g id="legend_1">
    <g id="patch_9">
     <path d="M 61 247 
L 127.759375 247 
Q 129.759375 247 129.759375 245 
L 129.759375 201.409375 
Q 129.759375 199.409375 127.759375 199.409375 
L 61 199.409375 
Q 59 199.409375 59 201.409375 
L 59 245 
Q 59 247 61 247 
z
" style="fill:#ffffff;opacity:0.8;stroke:#cccccc;stroke-linejoin:miter;"/>
    </g>
    <g id="text_12">
     <!-- set -->
     <g transform="translate(86.738281 211.007812)scale(0.1 -0.1)">
      <use xlink:href="#DejaVuSans-115"/>
      <use x="52.099609" xlink:href="#DejaVuSans-101"/>
      <use x="113.623047" xlink:href="#DejaVuSans-116"/>
     </g>
    </g>
    <g id="patch_10">
     <path d="M 63 225.685937 
L 83 225.685937 
L 83 218.685937 
L 63 218.685937 
z
" style="fill:#3274a1;stroke:#3f3f3f;stroke-linejoin:miter;stroke-width:0.75;"/>
    </g>
    <g id="text_13">
     <!-- Z_1_ns -->
     <g transform="translate(91 225.685937)scale(0.1 -0.1)">
      <use xlink:href="#DejaVuSans-90"/>
      <use x="68.505859" xlink:href="#DejaVuSans-95"/>
      <use x="118.505859" xlink:href="#DejaVuSans-49"/>
      <use x="182.128906" xlink:href="#DejaVuSans-95"/>
      <use x="232.128906" xlink:href="#DejaVuSans-110"/>
      <use x="295.507812" xlink:href="#DejaVuSans-115"/>
     </g>
    </g>
    <g id="patch_11">
     <path d="M 63 240.642188 
L 83 240.642188 
L 83 233.642188 
L 63 233.642188 
z
" style="fill:#e1812c;stroke:#3f3f3f;stroke-linejoin:miter;stroke-width:0.75;"/>
    </g>
    <g id="text_14">
     <!-- Z_3_ns -->
     <g transform="translate(91 240.642188)scale(0.1 -0.1)">
      <use xlink:href="#DejaVuSans-90"/>
      <use x="68.505859" xlink:href="#DejaVuSans-95"/>
      <use x="118.505859" xlink:href="#DejaVuSans-51"/>
      <use x="182.128906" xlink:href="#DejaVuSans-95"/>
      <use x="232.128906" xlink:href="#DejaVuSans-110"/>
      <use x="295.507812" xlink:href="#DejaVuSans-115"/>
     </g>
    </g>
   </g>
  </g>
 </g>
 <defs>
  <clipPath id="p89721cded5">
   <rect height="217.44" width="334.8" x="54" y="34.56"/>
  </clipPath>
 </defs>
</svg>
