<?xml version="1.0" encoding="utf-8" standalone="no"?>
<!DOCTYPE svg PUBLIC "-//W3C//DTD SVG 1.1//EN"
  "http://www.w3.org/Graphics/SVG/1.1/DTD/svg11.dtd">
<!-- Created with matplotlib (https://matplotlib.org/) -->
<svg height="288pt" version="1.1" viewBox="0 0 432 288" width="432pt" xmlns="http://www.w3.org/2000/svg" xmlns:xlink="http://www.w3.org/1999/xlink">
 <metadata>
  <rdf:RDF xmlns:cc="http://creativecommons.org/ns#" xmlns:dc="http://purl.org/dc/elements/1.1/" xmlns:rdf="http://www.w3.org/1999/02/22-rdf-syntax-ns#">
   <cc:Work>
    <dc:type rdf:resource="http://purl.org/dc/dcmitype/StillImage"/>
    <dc:date>2021-07-13T17:40:20.091387</dc:date>
    <dc:format>image/svg+xml</dc:format>
    <dc:creator>
     <cc:Agent>
      <dc:title>Matplotlib v3.3.4, https://matplotlib.org/</dc:title>
     </cc:Agent>
    </dc:creator>
   </cc:Work>
  </rdf:RDF>
 </metadata>
 <defs>
  <style type="text/css">*{stroke-linecap:butt;stroke-linejoin:round;}</style>
 </defs>
 <g id="figure_1">
  <g id="patch_1">
   <path d="M 0 288 
L 432 288 
L 432 0 
L 0 0 
z
" style="fill:#ffffff;"/>
  </g>
  <g id="axes_1">
   <g id="patch_2">
    <path d="M 54 252 
L 388.8 252 
L 388.8 34.56 
L 54 34.56 
z
" style="fill:#ffffff;"/>
   </g>
   <g id="PolyCollection_1">
    <defs>
     <path d="M 93.250008 -45.883636 
L 66.829992 -45.883636 
L 65.84708 -47.880331 
L 65.277848 -49.877025 
L 65.16 -51.873719 
L 65.485248 -53.870413 
L 66.202435 -55.867107 
L 67.227666 -57.863802 
L 68.458853 -59.860496 
L 69.791353 -61.85719 
L 71.131516 -63.853884 
L 72.405957 -65.850579 
L 73.565683 -67.847273 
L 74.585499 -69.843967 
L 75.46 -71.840661 
L 76.197812 -73.837355 
L 76.815598 -75.83405 
L 77.332959 -77.830744 
L 77.768774 -79.827438 
L 78.139092 -81.824132 
L 78.456351 -83.820826 
L 78.729522 -85.817521 
L 78.964785 -87.814215 
L 79.166393 -89.810909 
L 79.337476 -91.807603 
L 79.480664 -93.804298 
L 79.59848 -95.800992 
L 79.693529 -97.797686 
L 79.768528 -99.79438 
L 79.82624 -101.791074 
L 79.869376 -103.787769 
L 79.900485 -105.784463 
L 79.921881 -107.781157 
L 79.935582 -109.777851 
L 79.94329 -111.774545 
L 79.946379 -113.77124 
L 79.94591 -115.767934 
L 79.942648 -117.764628 
L 79.937096 -119.761322 
L 79.929537 -121.758017 
L 79.920087 -123.754711 
L 79.908745 -125.751405 
L 79.895445 -127.748099 
L 79.880085 -129.744793 
L 79.862536 -131.741488 
L 79.842626 -133.738182 
L 79.820109 -135.734876 
L 79.794625 -137.73157 
L 79.765678 -139.728264 
L 79.732638 -141.724959 
L 79.694786 -143.721653 
L 79.651396 -145.718347 
L 79.601828 -147.715041 
L 79.545637 -149.711736 
L 79.482644 -151.70843 
L 79.412981 -153.705124 
L 79.337071 -155.701818 
L 79.255573 -157.698512 
L 79.169292 -159.695207 
L 79.079081 -161.691901 
L 78.985774 -163.688595 
L 78.890164 -165.685289 
L 78.793051 -167.681983 
L 78.695348 -169.678678 
L 78.598235 -171.675372 
L 78.503314 -173.672066 
L 78.41271 -175.66876 
L 78.329084 -177.665455 
L 78.255524 -179.662149 
L 78.195319 -181.658843 
L 78.151646 -183.655537 
L 78.127239 -185.652231 
L 78.124092 -187.648926 
L 78.143245 -189.64562 
L 78.184686 -191.642314 
L 78.24736 -193.639008 
L 78.329264 -195.635702 
L 78.427604 -197.632397 
L 78.538978 -199.629091 
L 78.659583 -201.625785 
L 78.785441 -203.622479 
L 78.912628 -205.619174 
L 79.037518 -207.615868 
L 79.157002 -209.612562 
L 79.26867 -211.609256 
L 79.37092 -213.60595 
L 79.462975 -215.602645 
L 79.544798 -217.599339 
L 79.616931 -219.596033 
L 79.680283 -221.592727 
L 79.735905 -223.589421 
L 79.784807 -225.586116 
L 79.82783 -227.58281 
L 79.865594 -229.579504 
L 79.898519 -231.576198 
L 79.926887 -233.572893 
L 79.950929 -235.569587 
L 79.970895 -237.566281 
L 79.987109 -239.562975 
L 79.999978 -241.559669 
L 80.009976 -243.556364 
L 80.070024 -243.556364 
L 80.070024 -243.556364 
L 80.080022 -241.559669 
L 80.092891 -239.562975 
L 80.109105 -237.566281 
L 80.129071 -235.569587 
L 80.153113 -233.572893 
L 80.181481 -231.576198 
L 80.214406 -229.579504 
L 80.25217 -227.58281 
L 80.295193 -225.586116 
L 80.344095 -223.589421 
L 80.399717 -221.592727 
L 80.463069 -219.596033 
L 80.535202 -217.599339 
L 80.617025 -215.602645 
L 80.70908 -213.60595 
L 80.81133 -211.609256 
L 80.922998 -209.612562 
L 81.042482 -207.615868 
L 81.167372 -205.619174 
L 81.294559 -203.622479 
L 81.420417 -201.625785 
L 81.541022 -199.629091 
L 81.652396 -197.632397 
L 81.750736 -195.635702 
L 81.83264 -193.639008 
L 81.895314 -191.642314 
L 81.936755 -189.64562 
L 81.955908 -187.648926 
L 81.952761 -185.652231 
L 81.928354 -183.655537 
L 81.884681 -181.658843 
L 81.824476 -179.662149 
L 81.750916 -177.665455 
L 81.66729 -175.66876 
L 81.576686 -173.672066 
L 81.481765 -171.675372 
L 81.384652 -169.678678 
L 81.286949 -167.681983 
L 81.189836 -165.685289 
L 81.094226 -163.688595 
L 81.000919 -161.691901 
L 80.910708 -159.695207 
L 80.824427 -157.698512 
L 80.742929 -155.701818 
L 80.667019 -153.705124 
L 80.597356 -151.70843 
L 80.534363 -149.711736 
L 80.478172 -147.715041 
L 80.428604 -145.718347 
L 80.385214 -143.721653 
L 80.347362 -141.724959 
L 80.314322 -139.728264 
L 80.285375 -137.73157 
L 80.259891 -135.734876 
L 80.237374 -133.738182 
L 80.217464 -131.741488 
L 80.199915 -129.744793 
L 80.184555 -127.748099 
L 80.171255 -125.751405 
L 80.159913 -123.754711 
L 80.150463 -121.758017 
L 80.142904 -119.761322 
L 80.137352 -117.764628 
L 80.13409 -115.767934 
L 80.133621 -113.77124 
L 80.13671 -111.774545 
L 80.144418 -109.777851 
L 80.158119 -107.781157 
L 80.179515 -105.784463 
L 80.210624 -103.787769 
L 80.25376 -101.791074 
L 80.311472 -99.79438 
L 80.386471 -97.797686 
L 80.48152 -95.800992 
L 80.599336 -93.804298 
L 80.742524 -91.807603 
L 80.913607 -89.810909 
L 81.115215 -87.814215 
L 81.350478 -85.817521 
L 81.623649 -83.820826 
L 81.940908 -81.824132 
L 82.311226 -79.827438 
L 82.747041 -77.830744 
L 83.264402 -75.83405 
L 83.882188 -73.837355 
L 84.62 -71.840661 
L 85.494501 -69.843967 
L 86.514317 -67.847273 
L 87.674043 -65.850579 
L 88.948484 -63.853884 
L 90.288647 -61.85719 
L 91.621147 -59.860496 
L 92.852334 -57.863802 
L 93.877565 -55.867107 
L 94.594752 -53.870413 
L 94.92 -51.873719 
L 94.802152 -49.877025 
L 94.23292 -47.880331 
L 93.250008 -45.883636 
z
" id="m21b574a21c" style="stroke:#3d3d3d;stroke-width:1.5;"/>
    </defs>
    <g clip-path="url(#pb675a1110e)">
     <use style="fill:#3274a1;stroke:#3d3d3d;stroke-width:1.5;" x="0" xlink:href="#m21b574a21c" y="288"/>
    </g>
   </g>
   <g id="PolyCollection_2">
    <defs>
     <path d="M 234.96771 -45.889792 
L 207.83229 -45.889792 
L 207.150224 -47.687724 
L 206.70706 -49.485656 
L 206.52 -51.283588 
L 206.591299 -53.081519 
L 206.908493 -54.879451 
L 207.446066 -56.677383 
L 208.168284 -58.475315 
L 209.032801 -60.273247 
L 209.994531 -62.071179 
L 211.009332 -63.869111 
L 212.037097 -65.667043 
L 213.04398 -67.464975 
L 214.003669 -69.262907 
L 214.897711 -71.060839 
L 215.715058 -72.858771 
L 216.451043 -74.656703 
L 217.106028 -76.454635 
L 217.683961 -78.252567 
L 218.191017 -80.050498 
L 218.634445 -81.84843 
L 219.021695 -83.646362 
L 219.359827 -85.444294 
L 219.655166 -87.242226 
L 219.913174 -89.040158 
L 220.138453 -90.83809 
L 220.33484 -92.636022 
L 220.505544 -94.433954 
L 220.653278 -96.231886 
L 220.78039 -98.029818 
L 220.888951 -99.82775 
L 220.980831 -101.625682 
L 221.057742 -103.423614 
L 221.121268 -105.221546 
L 221.172875 -107.019477 
L 221.213926 -108.817409 
L 221.24568 -110.615341 
L 221.269295 -112.413273 
L 221.285829 -114.211205 
L 221.296236 -116.009137 
L 221.301355 -117.807069 
L 221.301907 -119.605001 
L 221.298479 -121.402933 
L 221.291509 -123.200865 
L 221.281278 -124.998797 
L 221.267897 -126.796729 
L 221.251315 -128.594661 
L 221.231326 -130.392593 
L 221.207596 -132.190525 
L 221.179699 -133.988457 
L 221.147167 -135.786388 
L 221.109547 -137.58432 
L 221.066455 -139.382252 
L 221.017636 -141.180184 
L 220.963006 -142.978116 
L 220.902684 -144.776048 
L 220.837006 -146.57398 
L 220.766517 -148.371912 
L 220.691946 -150.169844 
L 220.614163 -151.967776 
L 220.534127 -153.765708 
L 220.452826 -155.56364 
L 220.371221 -157.361572 
L 220.290189 -159.159504 
L 220.210494 -160.957436 
L 220.132761 -162.755367 
L 220.05748 -164.553299 
L 219.985029 -166.351231 
L 219.915714 -168.149163 
L 219.849826 -169.947095 
L 219.787704 -171.745027 
L 219.729798 -173.542959 
L 219.67672 -175.340891 
L 219.629274 -177.138823 
L 219.588465 -178.936755 
L 219.55547 -180.734687 
L 219.531576 -182.532619 
L 219.518096 -184.330551 
L 219.516259 -186.128483 
L 219.527089 -187.926415 
L 219.551292 -189.724346 
L 219.589158 -191.522278 
L 219.640494 -193.32021 
L 219.704596 -195.118142 
L 219.780265 -196.916074 
L 219.865868 -198.714006 
L 219.959437 -200.511938 
L 220.058789 -202.30987 
L 220.161664 -204.107802 
L 220.265861 -205.905734 
L 220.369352 -207.703666 
L 220.470376 -209.501598 
L 220.567493 -211.29953 
L 220.659609 -213.097462 
L 220.745968 -214.895394 
L 220.826114 -216.693326 
L 220.899844 -218.491257 
L 220.967146 -220.289189 
L 221.028149 -222.087121 
L 221.083069 -223.885053 
L 221.716931 -223.885053 
L 221.716931 -223.885053 
L 221.771851 -222.087121 
L 221.832854 -220.289189 
L 221.900156 -218.491257 
L 221.973886 -216.693326 
L 222.054032 -214.895394 
L 222.140391 -213.097462 
L 222.232507 -211.29953 
L 222.329624 -209.501598 
L 222.430648 -207.703666 
L 222.534139 -205.905734 
L 222.638336 -204.107802 
L 222.741211 -202.30987 
L 222.840563 -200.511938 
L 222.934132 -198.714006 
L 223.019735 -196.916074 
L 223.095404 -195.118142 
L 223.159506 -193.32021 
L 223.210842 -191.522278 
L 223.248708 -189.724346 
L 223.272911 -187.926415 
L 223.283741 -186.128483 
L 223.281904 -184.330551 
L 223.268424 -182.532619 
L 223.24453 -180.734687 
L 223.211535 -178.936755 
L 223.170726 -177.138823 
L 223.12328 -175.340891 
L 223.070202 -173.542959 
L 223.012296 -171.745027 
L 222.950174 -169.947095 
L 222.884286 -168.149163 
L 222.814971 -166.351231 
L 222.74252 -164.553299 
L 222.667239 -162.755367 
L 222.589506 -160.957436 
L 222.509811 -159.159504 
L 222.428779 -157.361572 
L 222.347174 -155.56364 
L 222.265873 -153.765708 
L 222.185837 -151.967776 
L 222.108054 -150.169844 
L 222.033483 -148.371912 
L 221.962994 -146.57398 
L 221.897316 -144.776048 
L 221.836994 -142.978116 
L 221.782364 -141.180184 
L 221.733545 -139.382252 
L 221.690453 -137.58432 
L 221.652833 -135.786388 
L 221.620301 -133.988457 
L 221.592404 -132.190525 
L 221.568674 -130.392593 
L 221.548685 -128.594661 
L 221.532103 -126.796729 
L 221.518722 -124.998797 
L 221.508491 -123.200865 
L 221.501521 -121.402933 
L 221.498093 -119.605001 
L 221.498645 -117.807069 
L 221.503764 -116.009137 
L 221.514171 -114.211205 
L 221.530705 -112.413273 
L 221.55432 -110.615341 
L 221.586074 -108.817409 
L 221.627125 -107.019477 
L 221.678732 -105.221546 
L 221.742258 -103.423614 
L 221.819169 -101.625682 
L 221.911049 -99.82775 
L 222.01961 -98.029818 
L 222.146722 -96.231886 
L 222.294456 -94.433954 
L 222.46516 -92.636022 
L 222.661547 -90.83809 
L 222.886826 -89.040158 
L 223.144834 -87.242226 
L 223.440173 -85.444294 
L 223.778305 -83.646362 
L 224.165555 -81.84843 
L 224.608983 -80.050498 
L 225.116039 -78.252567 
L 225.693972 -76.454635 
L 226.348957 -74.656703 
L 227.084942 -72.858771 
L 227.902289 -71.060839 
L 228.796331 -69.262907 
L 229.75602 -67.464975 
L 230.762903 -65.667043 
L 231.790668 -63.869111 
L 232.805469 -62.071179 
L 233.767199 -60.273247 
L 234.631716 -58.475315 
L 235.353934 -56.677383 
L 235.891507 -54.879451 
L 236.208701 -53.081519 
L 236.28 -51.283588 
L 236.09294 -49.485656 
L 235.649776 -47.687724 
L 234.96771 -45.889792 
z
" id="m1890d69319" style="stroke:#3d3d3d;stroke-width:1.5;"/>
    </defs>
    <g clip-path="url(#pb675a1110e)">
     <use style="fill:#e1812c;stroke:#3d3d3d;stroke-width:1.5;" x="0" xlink:href="#m1890d69319" y="288"/>
    </g>
   </g>
   <g id="PolyCollection_3">
    <defs>
     <path d="M 376.440085 -45.902329 
L 349.079915 -45.902329 
L 348.431557 -47.744376 
L 348.026262 -49.586422 
L 347.88 -51.428469 
L 347.993791 -53.270515 
L 348.354014 -55.112562 
L 348.934121 -56.954609 
L 349.697497 -58.796655 
L 350.601046 -60.638702 
L 351.599046 -62.480748 
L 352.646805 -64.322795 
L 353.703723 -66.164842 
L 354.735516 -68.006888 
L 355.715497 -69.848935 
L 356.624924 -71.690982 
L 357.452578 -73.533028 
L 358.193771 -75.375075 
L 358.849012 -77.217121 
L 359.422569 -79.059168 
L 359.921087 -80.901215 
L 360.352405 -82.743261 
L 360.724628 -84.585308 
L 361.045477 -86.427354 
L 361.3219 -88.269401 
L 361.559892 -90.111448 
L 361.764479 -91.953494 
L 361.93981 -93.795541 
L 362.089299 -95.637587 
L 362.215792 -97.479634 
L 362.321722 -99.321681 
L 362.409238 -101.163727 
L 362.480303 -103.005774 
L 362.536762 -104.847821 
L 362.580369 -106.689867 
L 362.612807 -108.531914 
L 362.635677 -110.37396 
L 362.650487 -112.216007 
L 362.658631 -114.058054 
L 362.661371 -115.9001 
L 362.659814 -117.742147 
L 362.654896 -119.584193 
L 362.647372 -121.42624 
L 362.637798 -123.268287 
L 362.626532 -125.110333 
L 362.613727 -126.95238 
L 362.599338 -128.794426 
L 362.583136 -130.636473 
L 362.564722 -132.47852 
L 362.543559 -134.320566 
L 362.519003 -136.162613 
L 362.490341 -138.00466 
L 362.456835 -139.846706 
L 362.417765 -141.688753 
L 362.372475 -143.530799 
L 362.320412 -145.372846 
L 362.261164 -147.214893 
L 362.194491 -149.056939 
L 362.120347 -150.898986 
L 362.038906 -152.741032 
L 361.950563 -154.583079 
L 361.85595 -156.425126 
L 361.755934 -158.267172 
L 361.651612 -160.109219 
L 361.544307 -161.951265 
L 361.435554 -163.793312 
L 361.32708 -165.635359 
L 361.220775 -167.477405 
L 361.118654 -169.319452 
L 361.022805 -171.161499 
L 360.935324 -173.003545 
L 360.858243 -174.845592 
L 360.793443 -176.687638 
L 360.742573 -178.529685 
L 360.706959 -180.371732 
L 360.687537 -182.213778 
L 360.684793 -184.055825 
L 360.698728 -185.897871 
L 360.728856 -187.739918 
L 360.774228 -189.581965 
L 360.833482 -191.424011 
L 360.904922 -193.266058 
L 360.986609 -195.108104 
L 361.07647 -196.950151 
L 361.172396 -198.792198 
L 361.272337 -200.634244 
L 361.374381 -202.476291 
L 361.476812 -204.318338 
L 361.578147 -206.160384 
L 361.677153 -208.002431 
L 361.772843 -209.844477 
L 361.864466 -211.686524 
L 361.951479 -213.528571 
L 362.033522 -215.370617 
L 362.110387 -217.212664 
L 362.181992 -219.05471 
L 362.248352 -220.896757 
L 362.309557 -222.738804 
L 362.36575 -224.58085 
L 362.417108 -226.422897 
L 362.463826 -228.264943 
L 363.056174 -228.264943 
L 363.056174 -228.264943 
L 363.102892 -226.422897 
L 363.15425 -224.58085 
L 363.210443 -222.738804 
L 363.271648 -220.896757 
L 363.338008 -219.05471 
L 363.409613 -217.212664 
L 363.486478 -215.370617 
L 363.568521 -213.528571 
L 363.655534 -211.686524 
L 363.747157 -209.844477 
L 363.842847 -208.002431 
L 363.941853 -206.160384 
L 364.043188 -204.318338 
L 364.145619 -202.476291 
L 364.247663 -200.634244 
L 364.347604 -198.792198 
L 364.44353 -196.950151 
L 364.533391 -195.108104 
L 364.615078 -193.266058 
L 364.686518 -191.424011 
L 364.745772 -189.581965 
L 364.791144 -187.739918 
L 364.821272 -185.897871 
L 364.835207 -184.055825 
L 364.832463 -182.213778 
L 364.813041 -180.371732 
L 364.777427 -178.529685 
L 364.726557 -176.687638 
L 364.661757 -174.845592 
L 364.584676 -173.003545 
L 364.497195 -171.161499 
L 364.401346 -169.319452 
L 364.299225 -167.477405 
L 364.19292 -165.635359 
L 364.084446 -163.793312 
L 363.975693 -161.951265 
L 363.868388 -160.109219 
L 363.764066 -158.267172 
L 363.66405 -156.425126 
L 363.569437 -154.583079 
L 363.481094 -152.741032 
L 363.399653 -150.898986 
L 363.325509 -149.056939 
L 363.258836 -147.214893 
L 363.199588 -145.372846 
L 363.147525 -143.530799 
L 363.102235 -141.688753 
L 363.063165 -139.846706 
L 363.029659 -138.00466 
L 363.000997 -136.162613 
L 362.976441 -134.320566 
L 362.955278 -132.47852 
L 362.936864 -130.636473 
L 362.920662 -128.794426 
L 362.906273 -126.95238 
L 362.893468 -125.110333 
L 362.882202 -123.268287 
L 362.872628 -121.42624 
L 362.865104 -119.584193 
L 362.860186 -117.742147 
L 362.858629 -115.9001 
L 362.861369 -114.058054 
L 362.869513 -112.216007 
L 362.884323 -110.37396 
L 362.907193 -108.531914 
L 362.939631 -106.689867 
L 362.983238 -104.847821 
L 363.039697 -103.005774 
L 363.110762 -101.163727 
L 363.198278 -99.321681 
L 363.304208 -97.479634 
L 363.430701 -95.637587 
L 363.58019 -93.795541 
L 363.755521 -91.953494 
L 363.960108 -90.111448 
L 364.1981 -88.269401 
L 364.474523 -86.427354 
L 364.795372 -84.585308 
L 365.167595 -82.743261 
L 365.598913 -80.901215 
L 366.097431 -79.059168 
L 366.670988 -77.217121 
L 367.326229 -75.375075 
L 368.067422 -73.533028 
L 368.895076 -71.690982 
L 369.804503 -69.848935 
L 370.784484 -68.006888 
L 371.816277 -66.164842 
L 372.873195 -64.322795 
L 373.920954 -62.480748 
L 374.918954 -60.638702 
L 375.822503 -58.796655 
L 376.585879 -56.954609 
L 377.165986 -55.112562 
L 377.526209 -53.270515 
L 377.64 -51.428469 
L 377.493738 -49.586422 
L 377.088443 -47.744376 
L 376.440085 -45.902329 
z
" id="m5ad28a73c2" style="stroke:#3d3d3d;stroke-width:1.5;"/>
    </defs>
    <g clip-path="url(#pb675a1110e)">
     <use style="fill:#3a923a;stroke:#3d3d3d;stroke-width:1.5;" x="0" xlink:href="#m5ad28a73c2" y="288"/>
    </g>
   </g>
   <g id="patch_3">
    <path clip-path="url(#pb675a1110e)" d="M 109.8 242.11988 
L 109.8 242.11988 
L 109.8 242.11988 
L 109.8 242.11988 
z
" style="fill:#3274a1;stroke:#3d3d3d;stroke-linejoin:miter;stroke-width:0.75;"/>
   </g>
   <g id="patch_4">
    <path clip-path="url(#pb675a1110e)" d="M 109.8 242.11988 
L 109.8 242.11988 
L 109.8 242.11988 
L 109.8 242.11988 
z
" style="fill:#e1812c;stroke:#3d3d3d;stroke-linejoin:miter;stroke-width:0.75;"/>
   </g>
   <g id="patch_5">
    <path clip-path="url(#pb675a1110e)" d="M 109.8 242.11988 
L 109.8 242.11988 
L 109.8 242.11988 
L 109.8 242.11988 
z
" style="fill:#3a923a;stroke:#3d3d3d;stroke-linejoin:miter;stroke-width:0.75;"/>
   </g>
   <g id="matplotlib.axis_1">
    <g id="xtick_1">
     <g id="line2d_1">
      <defs>
       <path d="M 0 0 
L 0 3.5 
" id="me38098666c" style="stroke:#000000;stroke-width:0.8;"/>
      </defs>
      <g>
       <use style="stroke:#000000;stroke-width:0.8;" x="109.8" xlink:href="#me38098666c" y="252"/>
      </g>
     </g>
     <g id="text_1">
      <!-- train -->
      <g transform="translate(98.1625 266.598437)scale(0.1 -0.1)">
       <defs>
        <path d="M 18.3125 70.21875 
L 18.3125 54.6875 
L 36.8125 54.6875 
L 36.8125 47.703125 
L 18.3125 47.703125 
L 18.3125 18.015625 
Q 18.3125 11.328125 20.140625 9.421875 
Q 21.96875 7.515625 27.59375 7.515625 
L 36.8125 7.515625 
L 36.8125 0 
L 27.59375 0 
Q 17.1875 0 13.234375 3.875 
Q 9.28125 7.765625 9.28125 18.015625 
L 9.28125 47.703125 
L 2.6875 47.703125 
L 2.6875 54.6875 
L 9.28125 54.6875 
L 9.28125 70.21875 
z
" id="DejaVuSans-116"/>
        <path d="M 41.109375 46.296875 
Q 39.59375 47.171875 37.8125 47.578125 
Q 36.03125 48 33.890625 48 
Q 26.265625 48 22.1875 43.046875 
Q 18.109375 38.09375 18.109375 28.8125 
L 18.109375 0 
L 9.078125 0 
L 9.078125 54.6875 
L 18.109375 54.6875 
L 18.109375 46.1875 
Q 20.953125 51.171875 25.484375 53.578125 
Q 30.03125 56 36.53125 56 
Q 37.453125 56 38.578125 55.875 
Q 39.703125 55.765625 41.0625 55.515625 
z
" id="DejaVuSans-114"/>
        <path d="M 34.28125 27.484375 
Q 23.390625 27.484375 19.1875 25 
Q 14.984375 22.515625 14.984375 16.5 
Q 14.984375 11.71875 18.140625 8.90625 
Q 21.296875 6.109375 26.703125 6.109375 
Q 34.1875 6.109375 38.703125 11.40625 
Q 43.21875 16.703125 43.21875 25.484375 
L 43.21875 27.484375 
z
M 52.203125 31.203125 
L 52.203125 0 
L 43.21875 0 
L 43.21875 8.296875 
Q 40.140625 3.328125 35.546875 0.953125 
Q 30.953125 -1.421875 24.3125 -1.421875 
Q 15.921875 -1.421875 10.953125 3.296875 
Q 6 8.015625 6 15.921875 
Q 6 25.140625 12.171875 29.828125 
Q 18.359375 34.515625 30.609375 34.515625 
L 43.21875 34.515625 
L 43.21875 35.40625 
Q 43.21875 41.609375 39.140625 45 
Q 35.0625 48.390625 27.6875 48.390625 
Q 23 48.390625 18.546875 47.265625 
Q 14.109375 46.140625 10.015625 43.890625 
L 10.015625 52.203125 
Q 14.9375 54.109375 19.578125 55.046875 
Q 24.21875 56 28.609375 56 
Q 40.484375 56 46.34375 49.84375 
Q 52.203125 43.703125 52.203125 31.203125 
z
" id="DejaVuSans-97"/>
        <path d="M 9.421875 54.6875 
L 18.40625 54.6875 
L 18.40625 0 
L 9.421875 0 
z
M 9.421875 75.984375 
L 18.40625 75.984375 
L 18.40625 64.59375 
L 9.421875 64.59375 
z
" id="DejaVuSans-105"/>
        <path d="M 54.890625 33.015625 
L 54.890625 0 
L 45.90625 0 
L 45.90625 32.71875 
Q 45.90625 40.484375 42.875 44.328125 
Q 39.84375 48.1875 33.796875 48.1875 
Q 26.515625 48.1875 22.3125 43.546875 
Q 18.109375 38.921875 18.109375 30.90625 
L 18.109375 0 
L 9.078125 0 
L 9.078125 54.6875 
L 18.109375 54.6875 
L 18.109375 46.1875 
Q 21.34375 51.125 25.703125 53.5625 
Q 30.078125 56 35.796875 56 
Q 45.21875 56 50.046875 50.171875 
Q 54.890625 44.34375 54.890625 33.015625 
z
" id="DejaVuSans-110"/>
       </defs>
       <use xlink:href="#DejaVuSans-116"/>
       <use x="39.208984" xlink:href="#DejaVuSans-114"/>
       <use x="80.322266" xlink:href="#DejaVuSans-97"/>
       <use x="141.601562" xlink:href="#DejaVuSans-105"/>
       <use x="169.384766" xlink:href="#DejaVuSans-110"/>
      </g>
     </g>
    </g>
    <g id="xtick_2">
     <g id="line2d_2">
      <g>
       <use style="stroke:#000000;stroke-width:0.8;" x="221.4" xlink:href="#me38098666c" y="252"/>
      </g>
     </g>
     <g id="text_2">
      <!-- val -->
      <g transform="translate(213.9875 266.598437)scale(0.1 -0.1)">
       <defs>
        <path d="M 2.984375 54.6875 
L 12.5 54.6875 
L 29.59375 8.796875 
L 46.6875 54.6875 
L 56.203125 54.6875 
L 35.6875 0 
L 23.484375 0 
z
" id="DejaVuSans-118"/>
        <path d="M 9.421875 75.984375 
L 18.40625 75.984375 
L 18.40625 0 
L 9.421875 0 
z
" id="DejaVuSans-108"/>
       </defs>
       <use xlink:href="#DejaVuSans-118"/>
       <use x="59.179688" xlink:href="#DejaVuSans-97"/>
       <use x="120.458984" xlink:href="#DejaVuSans-108"/>
      </g>
     </g>
    </g>
    <g id="xtick_3">
     <g id="line2d_3">
      <g>
       <use style="stroke:#000000;stroke-width:0.8;" x="333" xlink:href="#me38098666c" y="252"/>
      </g>
     </g>
     <g id="text_3">
      <!-- test -->
      <g transform="translate(323.398438 266.598437)scale(0.1 -0.1)">
       <defs>
        <path d="M 56.203125 29.59375 
L 56.203125 25.203125 
L 14.890625 25.203125 
Q 15.484375 15.921875 20.484375 11.0625 
Q 25.484375 6.203125 34.421875 6.203125 
Q 39.59375 6.203125 44.453125 7.46875 
Q 49.3125 8.734375 54.109375 11.28125 
L 54.109375 2.78125 
Q 49.265625 0.734375 44.1875 -0.34375 
Q 39.109375 -1.421875 33.890625 -1.421875 
Q 20.796875 -1.421875 13.15625 6.1875 
Q 5.515625 13.8125 5.515625 26.8125 
Q 5.515625 40.234375 12.765625 48.109375 
Q 20.015625 56 32.328125 56 
Q 43.359375 56 49.78125 48.890625 
Q 56.203125 41.796875 56.203125 29.59375 
z
M 47.21875 32.234375 
Q 47.125 39.59375 43.09375 43.984375 
Q 39.0625 48.390625 32.421875 48.390625 
Q 24.90625 48.390625 20.390625 44.140625 
Q 15.875 39.890625 15.1875 32.171875 
z
" id="DejaVuSans-101"/>
        <path d="M 44.28125 53.078125 
L 44.28125 44.578125 
Q 40.484375 46.53125 36.375 47.5 
Q 32.28125 48.484375 27.875 48.484375 
Q 21.1875 48.484375 17.84375 46.4375 
Q 14.5 44.390625 14.5 40.28125 
Q 14.5 37.15625 16.890625 35.375 
Q 19.28125 33.59375 26.515625 31.984375 
L 29.59375 31.296875 
Q 39.15625 29.25 43.1875 25.515625 
Q 47.21875 21.78125 47.21875 15.09375 
Q 47.21875 7.46875 41.1875 3.015625 
Q 35.15625 -1.421875 24.609375 -1.421875 
Q 20.21875 -1.421875 15.453125 -0.5625 
Q 10.6875 0.296875 5.421875 2 
L 5.421875 11.28125 
Q 10.40625 8.6875 15.234375 7.390625 
Q 20.0625 6.109375 24.8125 6.109375 
Q 31.15625 6.109375 34.5625 8.28125 
Q 37.984375 10.453125 37.984375 14.40625 
Q 37.984375 18.0625 35.515625 20.015625 
Q 33.0625 21.96875 24.703125 23.78125 
L 21.578125 24.515625 
Q 13.234375 26.265625 9.515625 29.90625 
Q 5.8125 33.546875 5.8125 39.890625 
Q 5.8125 47.609375 11.28125 51.796875 
Q 16.75 56 26.8125 56 
Q 31.78125 56 36.171875 55.265625 
Q 40.578125 54.546875 44.28125 53.078125 
z
" id="DejaVuSans-115"/>
       </defs>
       <use xlink:href="#DejaVuSans-116"/>
       <use x="39.208984" xlink:href="#DejaVuSans-101"/>
       <use x="100.732422" xlink:href="#DejaVuSans-115"/>
       <use x="152.832031" xlink:href="#DejaVuSans-116"/>
      </g>
     </g>
    </g>
    <g id="text_4">
     <!-- set -->
     <g transform="translate(213.758594 280.276563)scale(0.1 -0.1)">
      <use xlink:href="#DejaVuSans-115"/>
      <use x="52.099609" xlink:href="#DejaVuSans-101"/>
      <use x="113.623047" xlink:href="#DejaVuSans-116"/>
     </g>
    </g>
   </g>
   <g id="matplotlib.axis_2">
    <g id="ytick_1">
     <g id="line2d_4">
      <defs>
       <path d="M 0 0 
L -3.5 0 
" id="m8134622bc0" style="stroke:#000000;stroke-width:0.8;"/>
      </defs>
      <g>
       <use style="stroke:#000000;stroke-width:0.8;" x="54" xlink:href="#m8134622bc0" y="242.11988"/>
      </g>
     </g>
     <g id="text_5">
      <!-- 0.0 -->
      <g transform="translate(31.096875 245.919098)scale(0.1 -0.1)">
       <defs>
        <path d="M 31.78125 66.40625 
Q 24.171875 66.40625 20.328125 58.90625 
Q 16.5 51.421875 16.5 36.375 
Q 16.5 21.390625 20.328125 13.890625 
Q 24.171875 6.390625 31.78125 6.390625 
Q 39.453125 6.390625 43.28125 13.890625 
Q 47.125 21.390625 47.125 36.375 
Q 47.125 51.421875 43.28125 58.90625 
Q 39.453125 66.40625 31.78125 66.40625 
z
M 31.78125 74.21875 
Q 44.046875 74.21875 50.515625 64.515625 
Q 56.984375 54.828125 56.984375 36.375 
Q 56.984375 17.96875 50.515625 8.265625 
Q 44.046875 -1.421875 31.78125 -1.421875 
Q 19.53125 -1.421875 13.0625 8.265625 
Q 6.59375 17.96875 6.59375 36.375 
Q 6.59375 54.828125 13.0625 64.515625 
Q 19.53125 74.21875 31.78125 74.21875 
z
" id="DejaVuSans-48"/>
        <path d="M 10.6875 12.40625 
L 21 12.40625 
L 21 0 
L 10.6875 0 
z
" id="DejaVuSans-46"/>
       </defs>
       <use xlink:href="#DejaVuSans-48"/>
       <use x="63.623047" xlink:href="#DejaVuSans-46"/>
       <use x="95.410156" xlink:href="#DejaVuSans-48"/>
      </g>
     </g>
    </g>
    <g id="ytick_2">
     <g id="line2d_5">
      <g>
       <use style="stroke:#000000;stroke-width:0.8;" x="54" xlink:href="#m8134622bc0" y="210.103234"/>
      </g>
     </g>
     <g id="text_6">
      <!-- 0.1 -->
      <g transform="translate(31.096875 213.902453)scale(0.1 -0.1)">
       <defs>
        <path d="M 12.40625 8.296875 
L 28.515625 8.296875 
L 28.515625 63.921875 
L 10.984375 60.40625 
L 10.984375 69.390625 
L 28.421875 72.90625 
L 38.28125 72.90625 
L 38.28125 8.296875 
L 54.390625 8.296875 
L 54.390625 0 
L 12.40625 0 
z
" id="DejaVuSans-49"/>
       </defs>
       <use xlink:href="#DejaVuSans-48"/>
       <use x="63.623047" xlink:href="#DejaVuSans-46"/>
       <use x="95.410156" xlink:href="#DejaVuSans-49"/>
      </g>
     </g>
    </g>
    <g id="ytick_3">
     <g id="line2d_6">
      <g>
       <use style="stroke:#000000;stroke-width:0.8;" x="54" xlink:href="#m8134622bc0" y="178.086589"/>
      </g>
     </g>
     <g id="text_7">
      <!-- 0.2 -->
      <g transform="translate(31.096875 181.885807)scale(0.1 -0.1)">
       <defs>
        <path d="M 19.1875 8.296875 
L 53.609375 8.296875 
L 53.609375 0 
L 7.328125 0 
L 7.328125 8.296875 
Q 12.9375 14.109375 22.625 23.890625 
Q 32.328125 33.6875 34.8125 36.53125 
Q 39.546875 41.84375 41.421875 45.53125 
Q 43.3125 49.21875 43.3125 52.78125 
Q 43.3125 58.59375 39.234375 62.25 
Q 35.15625 65.921875 28.609375 65.921875 
Q 23.96875 65.921875 18.8125 64.3125 
Q 13.671875 62.703125 7.8125 59.421875 
L 7.8125 69.390625 
Q 13.765625 71.78125 18.9375 73 
Q 24.125 74.21875 28.421875 74.21875 
Q 39.75 74.21875 46.484375 68.546875 
Q 53.21875 62.890625 53.21875 53.421875 
Q 53.21875 48.921875 51.53125 44.890625 
Q 49.859375 40.875 45.40625 35.40625 
Q 44.1875 33.984375 37.640625 27.21875 
Q 31.109375 20.453125 19.1875 8.296875 
z
" id="DejaVuSans-50"/>
       </defs>
       <use xlink:href="#DejaVuSans-48"/>
       <use x="63.623047" xlink:href="#DejaVuSans-46"/>
       <use x="95.410156" xlink:href="#DejaVuSans-50"/>
      </g>
     </g>
    </g>
    <g id="ytick_4">
     <g id="line2d_7">
      <g>
       <use style="stroke:#000000;stroke-width:0.8;" x="54" xlink:href="#m8134622bc0" y="146.069943"/>
      </g>
     </g>
     <g id="text_8">
      <!-- 0.3 -->
      <g transform="translate(31.096875 149.869162)scale(0.1 -0.1)">
       <defs>
        <path d="M 40.578125 39.3125 
Q 47.65625 37.796875 51.625 33 
Q 55.609375 28.21875 55.609375 21.1875 
Q 55.609375 10.40625 48.1875 4.484375 
Q 40.765625 -1.421875 27.09375 -1.421875 
Q 22.515625 -1.421875 17.65625 -0.515625 
Q 12.796875 0.390625 7.625 2.203125 
L 7.625 11.71875 
Q 11.71875 9.328125 16.59375 8.109375 
Q 21.484375 6.890625 26.8125 6.890625 
Q 36.078125 6.890625 40.9375 10.546875 
Q 45.796875 14.203125 45.796875 21.1875 
Q 45.796875 27.640625 41.28125 31.265625 
Q 36.765625 34.90625 28.71875 34.90625 
L 20.21875 34.90625 
L 20.21875 43.015625 
L 29.109375 43.015625 
Q 36.375 43.015625 40.234375 45.921875 
Q 44.09375 48.828125 44.09375 54.296875 
Q 44.09375 59.90625 40.109375 62.90625 
Q 36.140625 65.921875 28.71875 65.921875 
Q 24.65625 65.921875 20.015625 65.03125 
Q 15.375 64.15625 9.8125 62.3125 
L 9.8125 71.09375 
Q 15.4375 72.65625 20.34375 73.4375 
Q 25.25 74.21875 29.59375 74.21875 
Q 40.828125 74.21875 47.359375 69.109375 
Q 53.90625 64.015625 53.90625 55.328125 
Q 53.90625 49.265625 50.4375 45.09375 
Q 46.96875 40.921875 40.578125 39.3125 
z
" id="DejaVuSans-51"/>
       </defs>
       <use xlink:href="#DejaVuSans-48"/>
       <use x="63.623047" xlink:href="#DejaVuSans-46"/>
       <use x="95.410156" xlink:href="#DejaVuSans-51"/>
      </g>
     </g>
    </g>
    <g id="ytick_5">
     <g id="line2d_8">
      <g>
       <use style="stroke:#000000;stroke-width:0.8;" x="54" xlink:href="#m8134622bc0" y="114.053298"/>
      </g>
     </g>
     <g id="text_9">
      <!-- 0.4 -->
      <g transform="translate(31.096875 117.852516)scale(0.1 -0.1)">
       <defs>
        <path d="M 37.796875 64.3125 
L 12.890625 25.390625 
L 37.796875 25.390625 
z
M 35.203125 72.90625 
L 47.609375 72.90625 
L 47.609375 25.390625 
L 58.015625 25.390625 
L 58.015625 17.1875 
L 47.609375 17.1875 
L 47.609375 0 
L 37.796875 0 
L 37.796875 17.1875 
L 4.890625 17.1875 
L 4.890625 26.703125 
z
" id="DejaVuSans-52"/>
       </defs>
       <use xlink:href="#DejaVuSans-48"/>
       <use x="63.623047" xlink:href="#DejaVuSans-46"/>
       <use x="95.410156" xlink:href="#DejaVuSans-52"/>
      </g>
     </g>
    </g>
    <g id="ytick_6">
     <g id="line2d_9">
      <g>
       <use style="stroke:#000000;stroke-width:0.8;" x="54" xlink:href="#m8134622bc0" y="82.036652"/>
      </g>
     </g>
     <g id="text_10">
      <!-- 0.5 -->
      <g transform="translate(31.096875 85.835871)scale(0.1 -0.1)">
       <defs>
        <path d="M 10.796875 72.90625 
L 49.515625 72.90625 
L 49.515625 64.59375 
L 19.828125 64.59375 
L 19.828125 46.734375 
Q 21.96875 47.46875 24.109375 47.828125 
Q 26.265625 48.1875 28.421875 48.1875 
Q 40.625 48.1875 47.75 41.5 
Q 54.890625 34.8125 54.890625 23.390625 
Q 54.890625 11.625 47.5625 5.09375 
Q 40.234375 -1.421875 26.90625 -1.421875 
Q 22.3125 -1.421875 17.546875 -0.640625 
Q 12.796875 0.140625 7.71875 1.703125 
L 7.71875 11.625 
Q 12.109375 9.234375 16.796875 8.0625 
Q 21.484375 6.890625 26.703125 6.890625 
Q 35.15625 6.890625 40.078125 11.328125 
Q 45.015625 15.765625 45.015625 23.390625 
Q 45.015625 31 40.078125 35.4375 
Q 35.15625 39.890625 26.703125 39.890625 
Q 22.75 39.890625 18.8125 39.015625 
Q 14.890625 38.140625 10.796875 36.28125 
z
" id="DejaVuSans-53"/>
       </defs>
       <use xlink:href="#DejaVuSans-48"/>
       <use x="63.623047" xlink:href="#DejaVuSans-46"/>
       <use x="95.410156" xlink:href="#DejaVuSans-53"/>
      </g>
     </g>
    </g>
    <g id="ytick_7">
     <g id="line2d_10">
      <g>
       <use style="stroke:#000000;stroke-width:0.8;" x="54" xlink:href="#m8134622bc0" y="50.020007"/>
      </g>
     </g>
     <g id="text_11">
      <!-- 0.6 -->
      <g transform="translate(31.096875 53.819225)scale(0.1 -0.1)">
       <defs>
        <path d="M 33.015625 40.375 
Q 26.375 40.375 22.484375 35.828125 
Q 18.609375 31.296875 18.609375 23.390625 
Q 18.609375 15.53125 22.484375 10.953125 
Q 26.375 6.390625 33.015625 6.390625 
Q 39.65625 6.390625 43.53125 10.953125 
Q 47.40625 15.53125 47.40625 23.390625 
Q 47.40625 31.296875 43.53125 35.828125 
Q 39.65625 40.375 33.015625 40.375 
z
M 52.59375 71.296875 
L 52.59375 62.3125 
Q 48.875 64.0625 45.09375 64.984375 
Q 41.3125 65.921875 37.59375 65.921875 
Q 27.828125 65.921875 22.671875 59.328125 
Q 17.53125 52.734375 16.796875 39.40625 
Q 19.671875 43.65625 24.015625 45.921875 
Q 28.375 48.1875 33.59375 48.1875 
Q 44.578125 48.1875 50.953125 41.515625 
Q 57.328125 34.859375 57.328125 23.390625 
Q 57.328125 12.15625 50.6875 5.359375 
Q 44.046875 -1.421875 33.015625 -1.421875 
Q 20.359375 -1.421875 13.671875 8.265625 
Q 6.984375 17.96875 6.984375 36.375 
Q 6.984375 53.65625 15.1875 63.9375 
Q 23.390625 74.21875 37.203125 74.21875 
Q 40.921875 74.21875 44.703125 73.484375 
Q 48.484375 72.75 52.59375 71.296875 
z
" id="DejaVuSans-54"/>
       </defs>
       <use xlink:href="#DejaVuSans-48"/>
       <use x="63.623047" xlink:href="#DejaVuSans-46"/>
       <use x="95.410156" xlink:href="#DejaVuSans-54"/>
      </g>
     </g>
    </g>
    <g id="text_12">
     <!-- value -->
     <g transform="translate(25.017187 156.937813)rotate(-90)scale(0.1 -0.1)">
      <defs>
       <path d="M 8.5 21.578125 
L 8.5 54.6875 
L 17.484375 54.6875 
L 17.484375 21.921875 
Q 17.484375 14.15625 20.5 10.265625 
Q 23.53125 6.390625 29.59375 6.390625 
Q 36.859375 6.390625 41.078125 11.03125 
Q 45.3125 15.671875 45.3125 23.6875 
L 45.3125 54.6875 
L 54.296875 54.6875 
L 54.296875 0 
L 45.3125 0 
L 45.3125 8.40625 
Q 42.046875 3.421875 37.71875 1 
Q 33.40625 -1.421875 27.6875 -1.421875 
Q 18.265625 -1.421875 13.375 4.4375 
Q 8.5 10.296875 8.5 21.578125 
z
M 31.109375 56 
z
" id="DejaVuSans-117"/>
      </defs>
      <use xlink:href="#DejaVuSans-118"/>
      <use x="59.179688" xlink:href="#DejaVuSans-97"/>
      <use x="120.458984" xlink:href="#DejaVuSans-108"/>
      <use x="148.242188" xlink:href="#DejaVuSans-117"/>
      <use x="211.621094" xlink:href="#DejaVuSans-101"/>
     </g>
    </g>
   </g>
   <g id="line2d_11">
    <path clip-path="url(#pb675a1110e)" d="M 80.04 242.116364 
L 80.04 187.965581 
" style="fill:none;stroke:#3d3d3d;stroke-linecap:square;stroke-width:1.5;"/>
   </g>
   <g id="line2d_12">
    <path clip-path="url(#pb675a1110e)" d="M 80.04 239.099294 
L 80.04 218.122648 
" style="fill:none;stroke:#3d3d3d;stroke-linecap:square;stroke-width:4.5;"/>
   </g>
   <g id="line2d_13">
    <path clip-path="url(#pb675a1110e)" d="M 221.4 242.110208 
L 221.4 190.141887 
" style="fill:none;stroke:#3d3d3d;stroke-linecap:square;stroke-width:1.5;"/>
   </g>
   <g id="line2d_14">
    <path clip-path="url(#pb675a1110e)" d="M 221.4 239.33764 
L 221.4 218.497916 
" style="fill:none;stroke:#3d3d3d;stroke-linecap:square;stroke-width:4.5;"/>
   </g>
   <g id="line2d_15">
    <path clip-path="url(#pb675a1110e)" d="M 362.76 242.097671 
L 362.76 196.814453 
" style="fill:none;stroke:#3d3d3d;stroke-linecap:square;stroke-width:1.5;"/>
   </g>
   <g id="line2d_16">
    <path clip-path="url(#pb675a1110e)" d="M 362.76 239.380091 
L 362.76 220.355239 
" style="fill:none;stroke:#3d3d3d;stroke-linecap:square;stroke-width:4.5;"/>
   </g>
   <g id="patch_6">
    <path d="M 54 252 
L 54 34.56 
" style="fill:none;stroke:#000000;stroke-linecap:square;stroke-linejoin:miter;stroke-width:0.8;"/>
   </g>
   <g id="patch_7">
    <path d="M 388.8 252 
L 388.8 34.56 
" style="fill:none;stroke:#000000;stroke-linecap:square;stroke-linejoin:miter;stroke-width:0.8;"/>
   </g>
   <g id="patch_8">
    <path d="M 54 252 
L 388.8 252 
" style="fill:none;stroke:#000000;stroke-linecap:square;stroke-linejoin:miter;stroke-width:0.8;"/>
   </g>
   <g id="patch_9">
    <path d="M 54 34.56 
L 388.8 34.56 
" style="fill:none;stroke:#000000;stroke-linecap:square;stroke-linejoin:miter;stroke-width:0.8;"/>
   </g>
   <g id="PathCollection_1">
    <defs>
     <path d="M 0 1.5 
C 0.397805 1.5 0.77937 1.341951 1.06066 1.06066 
C 1.341951 0.77937 1.5 0.397805 1.5 0 
C 1.5 -0.397805 1.341951 -0.77937 1.06066 -1.06066 
C 0.77937 -1.341951 0.397805 -1.5 0 -1.5 
C -0.397805 -1.5 -0.77937 -1.341951 -1.06066 -1.06066 
C -1.341951 -0.77937 -1.5 -0.397805 -1.5 0 
C -1.5 0.397805 -1.341951 0.77937 -1.06066 1.06066 
C -0.77937 1.341951 -0.397805 1.5 0 1.5 
z
" id="m8e20ece53d" style="stroke:#3d3d3d;"/>
    </defs>
    <g clip-path="url(#pb675a1110e)">
     <use style="fill:#ffffff;stroke:#3d3d3d;" x="80.04" xlink:href="#m8e20ece53d" y="235.781541"/>
    </g>
   </g>
   <g id="PathCollection_2">
    <g clip-path="url(#pb675a1110e)">
     <use style="fill:#ffffff;stroke:#3d3d3d;" x="221.4" xlink:href="#m8e20ece53d" y="236.105938"/>
    </g>
   </g>
   <g id="PathCollection_3">
    <g clip-path="url(#pb675a1110e)">
     <use style="fill:#ffffff;stroke:#3d3d3d;" x="362.76" xlink:href="#m8e20ece53d" y="236.492691"/>
    </g>
   </g>
   <g id="legend_1">
    <g id="patch_10">
     <path d="M 326.525 101.2725 
L 381.8 101.2725 
Q 383.8 101.2725 383.8 99.2725 
L 383.8 41.56 
Q 383.8 39.56 381.8 39.56 
L 326.525 39.56 
Q 324.525 39.56 324.525 41.56 
L 324.525 99.2725 
Q 324.525 101.2725 326.525 101.2725 
z
" style="fill:#ffffff;opacity:0.8;stroke:#cccccc;stroke-linejoin:miter;"/>
    </g>
    <g id="text_13">
     <!-- set -->
     <g transform="translate(346.521094 51.158437)scale(0.1 -0.1)">
      <use xlink:href="#DejaVuSans-115"/>
      <use x="52.099609" xlink:href="#DejaVuSans-101"/>
      <use x="113.623047" xlink:href="#DejaVuSans-116"/>
     </g>
    </g>
    <g id="patch_11">
     <path d="M 328.525 65.836562 
L 348.525 65.836562 
L 348.525 58.836562 
L 328.525 58.836562 
z
" style="fill:#3274a1;stroke:#3d3d3d;stroke-linejoin:miter;stroke-width:0.75;"/>
    </g>
    <g id="text_14">
     <!-- train -->
     <g transform="translate(356.525 65.836562)scale(0.1 -0.1)">
      <use xlink:href="#DejaVuSans-116"/>
      <use x="39.208984" xlink:href="#DejaVuSans-114"/>
      <use x="80.322266" xlink:href="#DejaVuSans-97"/>
      <use x="141.601562" xlink:href="#DejaVuSans-105"/>
      <use x="169.384766" xlink:href="#DejaVuSans-110"/>
     </g>
    </g>
    <g id="patch_12">
     <path d="M 328.525 80.514687 
L 348.525 80.514687 
L 348.525 73.514687 
L 328.525 73.514687 
z
" style="fill:#e1812c;stroke:#3d3d3d;stroke-linejoin:miter;stroke-width:0.75;"/>
    </g>
    <g id="text_15">
     <!-- val -->
     <g transform="translate(356.525 80.514687)scale(0.1 -0.1)">
      <use xlink:href="#DejaVuSans-118"/>
      <use x="59.179688" xlink:href="#DejaVuSans-97"/>
      <use x="120.458984" xlink:href="#DejaVuSans-108"/>
     </g>
    </g>
    <g id="patch_13">
     <path d="M 328.525 95.192813 
L 348.525 95.192813 
L 348.525 88.192813 
L 328.525 88.192813 
z
" style="fill:#3a923a;stroke:#3d3d3d;stroke-linejoin:miter;stroke-width:0.75;"/>
    </g>
    <g id="text_16">
     <!-- test -->
     <g transform="translate(356.525 95.192813)scale(0.1 -0.1)">
      <use xlink:href="#DejaVuSans-116"/>
      <use x="39.208984" xlink:href="#DejaVuSans-101"/>
      <use x="100.732422" xlink:href="#DejaVuSans-115"/>
      <use x="152.832031" xlink:href="#DejaVuSans-116"/>
     </g>
    </g>
   </g>
  </g>
 </g>
 <defs>
  <clipPath id="pb675a1110e">
   <rect height="217.44" width="334.8" x="54" y="34.56"/>
  </clipPath>
 </defs>
</svg>
